
<svg xmlns="http://www.w3.org/2000/svg" xmlns:xlink="http://www.w3.org/1999/xlink" width="24px" height="24px" viewBox="0 0 24 24" version="1.1">
<g id="surface1">
<path style=" stroke:none;fill-rule:nonzero;fill:rgb(92.54902%,91.372549%,84.705882%);fill-opacity:1;" d="M 6.433594 1.296875 C 4.8125 1.296875 3.507812 2.601562 3.507812 4.222656 L 3.507812 19.777344 C 3.507812 21.398438 4.8125 22.703125 6.433594 22.703125 L 17.566406 22.703125 C 19.1875 22.703125 20.492188 21.398438 20.492188 19.777344 L 20.492188 4.765625 L 12.421875 1.296875 Z M 17.867188 1.3125 C 18.0625 1.332031 18.253906 1.371094 18.4375 1.425781 C 18.253906 1.371094 18.0625 1.332031 17.867188 1.3125 Z M 18.4375 1.425781 C 18.714844 1.511719 18.96875 1.636719 19.203125 1.792969 C 18.96875 1.636719 18.714844 1.511719 18.4375 1.425781 Z M 19.429688 1.960938 C 19.5 2.019531 19.570312 2.085938 19.636719 2.152344 C 19.570312 2.085938 19.503906 2.023438 19.429688 1.960938 Z M 19.429688 1.960938 "/>
<path style=" stroke:none;fill-rule:nonzero;fill:rgb(100%,100%,100%);fill-opacity:0.682353;" d="M 20.492188 4.765625 L 12.421875 1.296875 L 12.421875 1.839844 C 12.421875 3.460938 13.726562 4.765625 15.347656 4.765625 Z M 20.492188 4.765625 "/>
<path style=" stroke:none;fill-rule:nonzero;fill:rgb(0%,0%,0%);fill-opacity:0.607843;" d="M 13.761719 8.753906 L 13.175781 15.828125 C 13.144531 16.15625 13.128906 16.375 13.128906 16.476562 C 13.128906 16.644531 13.15625 16.773438 13.214844 16.859375 C 13.285156 16.980469 13.382812 17.070312 13.503906 17.128906 C 13.628906 17.1875 13.839844 17.21875 14.132812 17.21875 L 14.070312 17.449219 L 11.023438 17.449219 L 11.085938 17.21875 L 11.21875 17.21875 C 11.464844 17.21875 11.667969 17.160156 11.824219 17.042969 C 11.933594 16.964844 12.019531 16.832031 12.078125 16.648438 C 12.121094 16.519531 12.160156 16.214844 12.199219 15.730469 L 12.289062 14.652344 L 10.078125 14.652344 L 9.292969 15.828125 C 9.113281 16.089844 9 16.28125 8.953125 16.398438 C 8.910156 16.507812 8.886719 16.617188 8.886719 16.714844 C 8.886719 16.851562 8.9375 16.964844 9.035156 17.0625 C 9.132812 17.15625 9.296875 17.210938 9.523438 17.21875 L 9.460938 17.449219 L 7.175781 17.449219 L 7.238281 17.21875 C 7.519531 17.207031 7.765625 17.101562 7.980469 16.910156 C 8.195312 16.714844 8.515625 16.296875 8.941406 15.664062 L 13.5625 8.753906 L 13.761719 8.753906 M 12.632812 10.84375 L 10.390625 14.195312 L 12.335938 14.195312 L 12.632812 10.84375 "/>
</g>
</svg>
