<?xml version="1.0" encoding="UTF-8"?>
<svg xmlns="http://www.w3.org/2000/svg" xmlns:xlink="http://www.w3.org/1999/xlink" width="22pt" height="22pt" viewBox="0 0 22 22" version="1.1">
<g id="surface1">
<path style="fill-rule:nonzero;fill:rgb(30.196078%,30.196078%,30.196078%);fill-opacity:1;stroke-width:2.429905;stroke-linecap:butt;stroke-linejoin:miter;stroke:rgb(91.372549%,67.058824%,11.372549%);stroke-opacity:1;stroke-miterlimit:4;" d="M 6.852273 3.034091 L 41.147727 3.034091 C 42.997159 3.034091 44.488636 4.525568 44.488636 6.375 L 44.488636 41.625 C 44.488636 43.474432 42.997159 44.965909 41.147727 44.965909 L 6.852273 44.965909 C 5.002841 44.965909 3.511364 43.474432 3.511364 41.625 L 3.511364 6.375 C 3.511364 4.525568 5.002841 3.034091 6.852273 3.034091 Z M 6.852273 3.034091 " transform="matrix(0.458333,0,0,0.458333,0,0)"/>
<path style="fill-rule:evenodd;fill:rgb(100%,100%,100%);fill-opacity:1;stroke-width:4.759072;stroke-linecap:butt;stroke-linejoin:miter;stroke:rgb(100%,100%,100%);stroke-opacity:1;stroke-miterlimit:4;" d="M 20.955265 5.070162 L 37.827064 5.07577 C 38.753221 5.074661 39.510088 5.824784 39.511197 6.750941 L 39.50766 27.186829 C 39.508769 28.112987 38.758646 28.869854 37.832488 28.870963 L 20.96069 28.865355 C 20.034533 28.866464 19.277665 28.116341 19.276557 27.190184 L 19.280094 6.754296 C 19.278985 5.828139 20.029108 5.071271 20.955265 5.070162 Z M 20.955265 5.070162 " transform="matrix(0.442716,0.118625,-0.118625,0.442716,0,0)"/>
<path style=" stroke:none;fill-rule:evenodd;fill:rgb(87.843137%,27.45098%,7.45098%);fill-opacity:1;" d="M 11.5 8.875 C 12.96875 7.273438 15.453125 9.023438 14.714844 10.707031 C 13.984375 12.375 11.046875 13.984375 10.121094 14.152344 C 9.351562 13.511719 7.675781 10.699219 7.910156 8.902344 C 8.152344 7.03125 10.824219 6.695312 11.5 8.875 Z M 11.5 8.875 "/>
<path style=" stroke:none;fill-rule:evenodd;fill:rgb(87.843137%,27.45098%,7.45098%);fill-opacity:1;" d="M 9.121094 5.910156 C 9.410156 5.59375 9.898438 5.9375 9.753906 6.269531 C 9.609375 6.601562 9.03125 6.917969 8.851562 6.949219 C 8.699219 6.824219 8.367188 6.269531 8.414062 5.914062 C 8.460938 5.546875 8.988281 5.480469 9.121094 5.910156 Z M 9.121094 5.910156 "/>
<path style=" stroke:none;fill-rule:evenodd;fill:rgb(87.843137%,27.45098%,7.45098%);fill-opacity:1;" d="M 12.855469 16.085938 C 12.949219 16.5 13.542969 16.449219 13.585938 16.085938 C 13.625 15.730469 13.28125 15.167969 13.140625 15.046875 C 12.945312 15.082031 12.382812 15.394531 12.246094 15.726562 C 12.101562 16.070312 12.527344 16.390625 12.855469 16.085938 Z M 12.855469 16.085938 "/>
</g>
</svg>
