
<svg xmlns="http://www.w3.org/2000/svg" xmlns:xlink="http://www.w3.org/1999/xlink" width="22px" height="22px" viewBox="0 0 22 22" version="1.1">
<g id="surface1">
<path style="fill-rule:nonzero;fill:rgb(98.431373%,94.901961%,94.901961%);fill-opacity:1;stroke-width:7.991354;stroke-linecap:butt;stroke-linejoin:miter;stroke:rgb(20%,20%,20%);stroke-opacity:1;stroke-miterlimit:4;" d="M -8.410053 6.511425 L 104.401053 6.511425 C 110.456946 6.511425 115.387408 11.415091 115.387408 17.470984 L 115.387408 133.444016 C 115.387408 139.499909 110.456946 144.403575 104.401053 144.403575 L -8.410053 144.403575 C -14.465946 144.403575 -19.396408 139.499909 -19.396408 133.444016 L -19.396408 17.470984 C -19.396408 11.415091 -14.465946 6.511425 -8.410053 6.511425 Z M -8.410053 6.511425 " transform="matrix(0.145777,0,0,0.145777,4.00334,0)"/>
<path style=" stroke:none;fill-rule:nonzero;fill:rgb(20%,20%,20%);fill-opacity:1;" d="M 16.316406 1.980469 C 12.730469 1.980469 12.058594 7.085938 14.074219 7.085938 C 16.09375 7.085938 19.902344 1.980469 16.316406 1.980469 Z M 16.316406 1.980469 "/>
<path style=" stroke:none;fill-rule:nonzero;fill:rgb(20%,20%,20%);fill-opacity:1;" d="M 10.363281 6.453125 C 11.4375 6.519531 12.613281 2.355469 10.597656 2.617188 C 8.578125 2.878906 9.289062 6.386719 10.363281 6.453125 Z M 10.363281 6.453125 "/>
<path style=" stroke:none;fill-rule:nonzero;fill:rgb(20%,20%,20%);fill-opacity:1;" d="M 5.4375 9.042969 C 6.203125 8.707031 5.539062 5.417969 4.238281 6.3125 C 2.941406 7.210938 4.675781 9.378906 5.4375 9.042969 Z M 5.4375 9.042969 "/>
<path style=" stroke:none;fill-rule:nonzero;fill:rgb(20%,20%,20%);fill-opacity:1;" d="M 7.589844 7.320312 C 8.5 7.136719 8.550781 3.402344 6.929688 4.074219 C 5.308594 4.742188 6.683594 7.507812 7.589844 7.320312 Z M 7.589844 7.320312 "/>
<path style=" stroke:none;fill-rule:nonzero;fill:rgb(20%,20%,20%);fill-opacity:1;" d="M 12.339844 15.667969 C 12.503906 16.902344 11.4375 17.511719 10.394531 16.714844 C 7.070312 14.1875 15.894531 12.925781 15.3125 9.46875 C 14.828125 6.601562 6.03125 7.484375 5.027344 11.972656 C 4.347656 15.007812 7.820312 19.21875 11.441406 19.21875 C 13.222656 19.21875 15.277344 17.609375 15.660156 15.574219 C 15.953125 14.019531 12.207031 14.640625 12.339844 15.667969 Z M 12.339844 15.667969 "/>
</g>
</svg>
