<?xml version="1.0" encoding="UTF-8"?>
<svg xmlns="http://www.w3.org/2000/svg" xmlns:xlink="http://www.w3.org/1999/xlink" width="22pt" height="22pt" viewBox="0 0 22 22" version="1.1">
<g id="surface1">
<path style="fill-rule:nonzero;fill:rgb(98.431373%,94.901961%,94.901961%);fill-opacity:1;stroke-width:25.1982;stroke-linecap:butt;stroke-linejoin:miter;stroke:rgb(0%,34.509804%,41.960784%);stroke-opacity:1;stroke-miterlimit:4;" d="M 78.140611 38.6063 L 433.859388 38.6063 C 452.95113 38.6063 468.440657 54.095826 468.440657 73.187568 L 468.440657 438.812438 C 468.440657 457.90418 452.95113 473.393707 433.859388 473.393707 L 78.140611 473.393707 C 59.048869 473.393707 43.559342 457.90418 43.559342 438.812438 L 43.559342 73.187568 C 43.559342 54.095826 59.048869 38.6063 78.140611 38.6063 Z M 78.140611 38.6063 " transform="matrix(0.0433761,0,0,0.0433761,-0.104277,-0.104278)"/>
<path style=" stroke:none;fill-rule:evenodd;fill:rgb(26.27451%,31.372549%,36.078431%);fill-opacity:1;" d="M 15.585938 3.121094 C 16.257812 3.121094 16.804688 3.738281 16.804688 4.503906 L 16.804688 17.996094 C 16.804688 18.761719 16.257812 19.378906 15.585938 19.378906 C 14.917969 19.378906 14.371094 18.761719 14.371094 17.996094 L 14.371094 4.503906 C 14.371094 3.738281 14.917969 3.121094 15.585938 3.121094 Z M 15.585938 3.121094 "/>
<path style=" stroke:none;fill-rule:evenodd;fill:rgb(26.27451%,31.372549%,36.078431%);fill-opacity:1;" d="M 15.585938 3.554688 C 16.050781 3.554688 16.425781 4.027344 16.425781 4.609375 L 16.425781 17.898438 C 16.425781 18.484375 16.050781 18.957031 15.585938 18.957031 C 15.125 18.957031 14.75 18.484375 14.75 17.898438 L 14.75 4.609375 C 14.75 4.027344 15.125 3.554688 15.585938 3.554688 Z M 15.585938 3.554688 "/>
<path style=" stroke:none;fill-rule:nonzero;fill:rgb(16.470588%,16.470588%,100%);fill-opacity:1;" d="M 17.851562 7.785156 C 17.851562 8.980469 16.878906 9.953125 15.683594 9.953125 C 14.488281 9.953125 13.519531 8.980469 13.519531 7.785156 C 13.519531 6.589844 14.488281 5.621094 15.683594 5.621094 C 16.878906 5.621094 17.851562 6.589844 17.851562 7.785156 Z M 17.851562 7.785156 "/>
<path style=" stroke:none;fill-rule:evenodd;fill:rgb(26.27451%,31.372549%,36.078431%);fill-opacity:1;" d="M 11.078125 3.121094 C 11.75 3.121094 12.292969 3.738281 12.292969 4.503906 L 12.292969 17.996094 C 12.292969 18.761719 11.75 19.378906 11.078125 19.378906 C 10.40625 19.378906 9.863281 18.761719 9.863281 17.996094 L 9.863281 4.503906 C 9.863281 3.738281 10.40625 3.121094 11.078125 3.121094 Z M 11.078125 3.121094 "/>
<path style=" stroke:none;fill-rule:evenodd;fill:rgb(26.27451%,31.372549%,36.078431%);fill-opacity:1;" d="M 11.078125 3.554688 C 11.539062 3.554688 11.914062 4.027344 11.914062 4.609375 L 11.914062 17.898438 C 11.914062 18.484375 11.539062 18.957031 11.078125 18.957031 C 10.617188 18.957031 10.242188 18.484375 10.242188 17.898438 L 10.242188 4.609375 C 10.242188 4.027344 10.617188 3.554688 11.078125 3.554688 Z M 11.078125 3.554688 "/>
<path style=" stroke:none;fill-rule:nonzero;fill:rgb(16.470588%,16.470588%,100%);fill-opacity:1;" d="M 13.210938 12.519531 C 13.210938 13.714844 12.242188 14.6875 11.046875 14.6875 C 9.847656 14.6875 8.878906 13.714844 8.878906 12.519531 C 8.878906 11.324219 9.847656 10.355469 11.046875 10.355469 C 12.242188 10.355469 13.210938 11.324219 13.210938 12.519531 Z M 13.210938 12.519531 "/>
<path style=" stroke:none;fill-rule:evenodd;fill:rgb(26.27451%,31.372549%,36.078431%);fill-opacity:1;" d="M 6.5625 3.121094 C 7.234375 3.121094 7.777344 3.738281 7.777344 4.503906 L 7.777344 17.996094 C 7.777344 18.761719 7.234375 19.378906 6.5625 19.378906 C 5.890625 19.378906 5.347656 18.761719 5.347656 17.996094 L 5.347656 4.503906 C 5.347656 3.738281 5.890625 3.121094 6.5625 3.121094 Z M 6.5625 3.121094 "/>
<path style=" stroke:none;fill-rule:evenodd;fill:rgb(26.27451%,31.372549%,36.078431%);fill-opacity:1;" d="M 6.5625 3.554688 C 7.023438 3.554688 7.398438 4.027344 7.398438 4.609375 L 7.398438 17.898438 C 7.398438 18.484375 7.023438 18.957031 6.5625 18.957031 C 6.101562 18.957031 5.726562 18.484375 5.726562 17.898438 L 5.726562 4.609375 C 5.726562 4.027344 6.101562 3.554688 6.5625 3.554688 Z M 6.5625 3.554688 "/>
<path style=" stroke:none;fill-rule:nonzero;fill:rgb(16.470588%,16.470588%,100%);fill-opacity:1;" d="M 8.695312 6.425781 C 8.695312 7.621094 7.726562 8.589844 6.527344 8.589844 C 5.332031 8.589844 4.363281 7.621094 4.363281 6.425781 C 4.363281 5.226562 5.332031 4.257812 6.527344 4.257812 C 7.726562 4.257812 8.695312 5.226562 8.695312 6.425781 Z M 8.695312 6.425781 "/>
</g>
</svg>
