<?xml version="1.0" encoding="UTF-8" standalone="no"?>
<svg
   xmlns:dc="http://purl.org/dc/elements/1.1/"
   xmlns:cc="http://creativecommons.org/ns#"
   xmlns:rdf="http://www.w3.org/1999/02/22-rdf-syntax-ns#"
   xmlns:svg="http://www.w3.org/2000/svg"
   xmlns="http://www.w3.org/2000/svg"
   xmlns:sodipodi="http://sodipodi.sourceforge.net/DTD/sodipodi-0.dtd"
   xmlns:inkscape="http://www.inkscape.org/namespaces/inkscape"
   width="48"
   viewBox="0 0 48 48"
   height="48"
   id="svg2"
   version="1.1"
   inkscape:version="0.91 r13725"
   sodipodi:docname="application-postscript.svg">
  <metadata
     id="metadata22">
    <rdf:RDF>
      <cc:Work
         rdf:about="">
        <dc:format>image/svg+xml</dc:format>
        <dc:type
           rdf:resource="http://purl.org/dc/dcmitype/StillImage" />
      </cc:Work>
    </rdf:RDF>
  </metadata>
  <defs
     id="defs20">
    <clipPath
       id="clipPath4157"
       clipPathUnits="userSpaceOnUse">
      <path
         style="fill:#f9f8f2;fill-opacity:1;stroke-width:1.00658333"
         inkscape:connector-curvature="0"
         id="path4159"
         d="m 27.642964,3.2951379 13.085584,13.0855841 -11.072418,0 c -0.977824,0 -2.013166,-1.035372 -2.013166,-2.013167 l 0,-11.0724171 z" />
    </clipPath>
  </defs>
  <sodipodi:namedview
     pagecolor="#ffffff"
     bordercolor="#666666"
     borderopacity="1"
     objecttolerance="10"
     gridtolerance="10"
     guidetolerance="10"
     inkscape:pageopacity="0"
     inkscape:pageshadow="2"
     inkscape:window-width="1366"
     inkscape:window-height="701"
     id="namedview18"
     showgrid="false"
     inkscape:zoom="8.2665344"
     inkscape:cx="3.586262"
     inkscape:cy="33.677574"
     inkscape:window-x="0"
     inkscape:window-y="27"
     inkscape:window-maximized="1"
     inkscape:current-layer="svg2" />
  <path
     style="opacity:1;fill:#d41a1a;fill-opacity:1;stroke:none;stroke-width:9.30000019;stroke-miterlimit:4;stroke-dasharray:none;stroke-opacity:1"
     d="m 12.867188,2.5917969 c -3.2418681,0 -5.851563,2.6096949 -5.851563,5.8515625 l 0,31.1132816 c 0,3.241867 2.6096949,5.851562 5.851563,5.851562 l 22.265624,0 c 3.241868,0 5.851563,-2.609695 5.851563,-5.851562 l 0,-30.025391 -16.144531,-6.9394531 -11.972656,0 z m 22.865234,0.029297 c 0.39439,0.039811 0.777621,0.1187827 1.144531,0.2324218 C 36.510036,2.7398694 36.126815,2.6609073 35.732422,2.6210938 Z m 1.144531,0.2324218 c 0.550365,0.1704588 1.064441,0.4195284 1.53125,0.734375 -0.466825,-0.3148628 -0.980874,-0.5639057 -1.53125,-0.734375 z m 1.982422,1.0703125 c 0.144388,0.1190607 0.281855,0.246699 0.414063,0.3789062 C 39.140916,4.1701479 39.004141,4.0432016 38.859375,3.9238281 Z"
     id="rect4193-6"
     inkscape:connector-curvature="0" />
  <path
     style="opacity:0.68300003;fill:#ffffff;fill-opacity:1;stroke:none;stroke-width:9.30000019;stroke-miterlimit:4;stroke-dasharray:none;stroke-opacity:1"
     d="m 40.984375,9.5312499 -16.144531,-6.939453 0,1.087891 c 0,3.241867 2.609695,5.851562 5.851563,5.851562 l 10.292968,0 z"
     id="rect4142-00"
     inkscape:connector-curvature="0" />
  <g
     transform="matrix(0.03625217,0,0,0.03684348,13.106956,15.049565)"
     id="g10"
     style="fill:#ffffff">
    <path
       d="m 141,238 c 18.514,0.807 38.845,12.452 54,22.344 44.528,29.067 79.993,77.323 73,132.66 6.644,-10.558 7.005,-25.915 7,-38 -0.02,-38.88 -21.15,-78.83 -48,-106 -8.95,-9.05 -18.34,-19.46 -30,-25 l 132.27,-154 31.73,-37 c 2.449,-2.8377 10.588,-9.4499 8.824,-13.671 -1.64,-3.935 -9.22,-6.395 -12.82,-8.017 -4.07,-1.8334 -11.48,-5.6272 -15.98,-3.9841 -4.6,1.6755 -8.51,8.0781 -11.6,11.672 l -24.29,28 -114.41,132 -33.85,39 c -5.391,6.261 -12.41,12.447 -15.87,20 z"
       id="path12"
       inkscape:connector-curvature="0" />
    <path
       d="m 66,283 c 45.491,-47.531 85.688,-100.6 129.16,-150 l 55,-64 C 262.77,54.669 277.87,40.19 288,24 281.41,22.052 266.29,20.868 260,24.028 253.28,27.402 247.61,36.42 242.72,42 l -31.291,35 c -4.612,5.3198 -10.069,13.749 -16.425,16.973 -9.153,4.6431 -25.879,2.7931 -35.999,3.0416 l -37,2.8959 c -27.603,1.929 -59.063,1.989 -72.687,31.089 -10.927,23.337 -9.2531,56.661 -10.363,82 -2.3249,53.095 -4.1748,106.99 0.8696,160 2.1611,22.708 -0.3947,51.687 11.402,72 11.525,19.844 33.79,24.124 54.768,26.075 40.603,3.775 89.231,2.673 122,-25.375 38.892,-33.29 33.398,-92.806 -2,-125.61 -38.72,-35.88 -109.61,-54.11 -160,-37.09 z"
       id="path14"
       inkscape:connector-curvature="0" />
    <path
       d="m 203,476 c 7.355,3.086 19.953,2 28,2 l 51,1 c 64.687,0 128.55,-4.035 193,-6.961 30.612,-1.389 65.241,-2.494 77.934,-36.039 8.056,-21.288 6.617,-48.539 8.155,-71 3.554,-51.884 5.016,-105.15 0.081,-157 -2.312,-24.294 0.591,-54.495 -10.06,-77 -16.48,-34.847 -66.34,-32.199 -99.1,-33.015 -8.109,-0.2019 -23.216,-4.892 -30.606,-1.382 -5.623,2.6707 -9.033,16.969 -11.652,22.397 l -29.051,63 c -34.22,74.54 -66.29,150.89 -103.45,224 -14.41,28.35 -40.43,64.18 -74.24,70 z"
       id="path16"
       inkscape:connector-curvature="0" />
  </g>
</svg>
