<?xml version="1.0" encoding="UTF-8" standalone="no"?>
<!-- Created using Karbon, part of Calligra: http://www.calligra.org/karbon -->

<svg
   xmlns:dc="http://purl.org/dc/elements/1.1/"
   xmlns:cc="http://creativecommons.org/ns#"
   xmlns:rdf="http://www.w3.org/1999/02/22-rdf-syntax-ns#"
   xmlns:svg="http://www.w3.org/2000/svg"
   xmlns="http://www.w3.org/2000/svg"
   xmlns:sodipodi="http://sodipodi.sourceforge.net/DTD/sodipodi-0.dtd"
   xmlns:inkscape="http://www.inkscape.org/namespaces/inkscape"
   width="38.400002pt"
   height="38.400002pt"
   id="svg2"
   version="1.1"
   inkscape:version="0.91 r13725"
   sodipodi:docname="application-x-zerosize.svg"
   viewBox="0 0 51.200002 51.200002">
  <metadata
     id="metadata12">
    <rdf:RDF>
      <cc:Work
         rdf:about="">
        <dc:format>image/svg+xml</dc:format>
        <dc:type
           rdf:resource="http://purl.org/dc/dcmitype/StillImage" />
      </cc:Work>
    </rdf:RDF>
  </metadata>
  <sodipodi:namedview
     pagecolor="#ffffff"
     bordercolor="#666666"
     borderopacity="1"
     objecttolerance="10"
     gridtolerance="10"
     guidetolerance="10"
     inkscape:pageopacity="0"
     inkscape:pageshadow="2"
     inkscape:window-width="1366"
     inkscape:window-height="701"
     id="namedview10"
     inkscape:document-units="px"
     showgrid="false"
     inkscape:zoom="7.7498757"
     inkscape:cx="32.576527"
     inkscape:cy="25.600001"
     inkscape:window-x="0"
     inkscape:window-y="27"
     inkscape:window-maximized="1"
     inkscape:current-layer="svg2" />
  <defs
     id="defs4">
    <clipPath
       id="clipPath4157"
       clipPathUnits="userSpaceOnUse">
      <path
         style="fill:#f9f8f2;fill-opacity:1;stroke-width:1.00658333"
         inkscape:connector-curvature="0"
         id="path4159"
         d="m 27.642964,3.2951379 13.085584,13.0855841 -11.072418,0 c -0.977824,0 -2.013166,-1.035372 -2.013166,-2.013167 l 0,-11.0724171 z" />
    </clipPath>
  </defs>
  <path
     style="opacity:1;fill:#f2f2f2;fill-opacity:1;stroke:none;stroke-width:9.30000019;stroke-miterlimit:4;stroke-dasharray:none;stroke-opacity:1"
     d="m 13.725001,2.7645834 c -3.457993,0 -6.2416674,2.7836747 -6.2416674,6.2416669 l 0,33.1875017 c 0,3.457991 2.7836744,6.241666 6.2416674,6.241666 l 23.75,0 c 3.457992,0 6.241667,-2.783675 6.241667,-6.241666 l 0,-32.027085 -17.220834,-7.4020836 -12.770833,0 z m 24.389584,0.03125 c 0.420682,0.042465 0.829462,0.1267015 1.220833,0.2479166 C 38.94404,2.9225275 38.535271,2.8383012 38.114585,2.7958335 Z m 1.220833,0.2479166 c 0.587056,0.1818227 1.135404,0.4474969 1.633333,0.7833333 C 40.470804,3.4912299 39.922486,3.2255841 39.335418,3.0437502 Z m 2.114583,1.1416667 c 0.154014,0.1269981 0.300646,0.2631456 0.441668,0.4041666 -0.141357,-0.1414256 -0.287251,-0.276835 -0.441668,-0.4041667 z"
     id="rect4193-6"
     inkscape:connector-curvature="0" />
  <path
     style="opacity:0.68300003;fill:#ffffff;fill-opacity:1;stroke:none;stroke-width:9.30000019;stroke-miterlimit:4;stroke-dasharray:none;stroke-opacity:1"
     d="m 43.716668,10.166667 -17.220834,-7.4020836 0,1.1604171 c 0,3.4579916 2.783675,6.2416665 6.241668,6.2416665 l 10.979166,0 z"
     id="rect4142-00"
     inkscape:connector-curvature="0" />
</svg>
