
<svg xmlns="http://www.w3.org/2000/svg" xmlns:xlink="http://www.w3.org/1999/xlink" width="128px" height="128px" viewBox="0 0 128 128" version="1.1">
<g id="surface1">
<path style=" stroke:none;fill-rule:nonzero;fill:#FFCDAE;fill-opacity:1;" d="M 6.175781 13.917969 C 5.105469 13.917969 4.246094 14.777344 4.246094 15.84375 L 4.246094 112.21875 C 4.246094 113.289062 5.105469 114.148438 6.175781 114.148438 L 121.824219 114.148438 C 122.894531 114.148438 123.753906 113.289062 123.753906 112.21875 L 123.753906 15.84375 C 123.753906 14.777344 122.894531 13.917969 121.824219 13.917969 Z M 6.175781 13.917969 "/>
<path style=" stroke:none;fill-rule:nonzero;fill:rgb(0%,33.333333%,83.137255%);fill-opacity:1;" d="M 4.246094 14.3125 L 4.246094 22.710938 C 4.246094 24.257812 5.105469 25.507812 6.175781 25.507812 L 121.824219 25.507812 C 122.894531 25.507812 123.753906 24.257812 123.753906 22.710938 L 123.753906 14.3125 Z M 4.246094 14.3125 "/>
<path style=" stroke:none;fill-rule:nonzero;fill:rgb(100%,100%,100%);fill-opacity:1;" d="M 117.96875 18.671875 C 117.96875 18.136719 117.539062 17.707031 117.007812 17.707031 C 116.476562 17.707031 116.042969 18.136719 116.042969 18.671875 C 116.042969 19.203125 116.476562 19.632812 117.007812 19.632812 C 117.539062 19.632812 117.96875 19.203125 117.96875 18.671875 Z M 117.96875 18.671875 "/>
<path style=" stroke:none;fill-rule:nonzero;fill:rgb(100%,100%,100%);fill-opacity:1;" d="M 112.1875 18.671875 C 112.1875 18.136719 111.757812 17.707031 111.222656 17.707031 C 110.691406 17.707031 110.261719 18.136719 110.261719 18.671875 C 110.261719 19.203125 110.691406 19.632812 111.222656 19.632812 C 111.757812 19.632812 112.1875 19.203125 112.1875 18.671875 Z M 112.1875 18.671875 "/>
<path style=" stroke:none;fill-rule:nonzero;fill:rgb(100%,100%,100%);fill-opacity:1;" d="M 106.40625 18.671875 C 106.40625 18.136719 105.972656 17.707031 105.441406 17.707031 C 104.910156 17.707031 104.476562 18.136719 104.476562 18.671875 C 104.476562 19.203125 104.910156 19.632812 105.441406 19.632812 C 105.972656 19.632812 106.40625 19.203125 106.40625 18.671875 Z M 106.40625 18.671875 "/>
<path style=" stroke:none;fill-rule:nonzero;fill:rgb(65.098039%,90.588235%,95.294118%);fill-opacity:1;" d="M 4.246094 15.78125 C 4.246094 14.710938 5.105469 13.851562 6.175781 13.851562 L 121.824219 13.851562 C 122.894531 13.851562 123.753906 14.710938 123.753906 15.78125 Z M 4.246094 15.78125 "/>
<path style=" stroke:none;fill-rule:nonzero;fill:rgb(100%,100%,100%);fill-opacity:1;" d="M 8.101562 18.671875 C 8.101562 18.136719 7.671875 17.707031 7.140625 17.707031 C 6.605469 17.707031 6.175781 18.136719 6.175781 18.671875 C 6.175781 19.203125 6.605469 19.632812 7.140625 19.632812 C 7.671875 19.632812 8.101562 19.203125 8.101562 18.671875 Z M 8.101562 18.671875 "/>
<path style=" stroke:none;fill-rule:nonzero;fill:rgb(100%,100%,100%);fill-opacity:1;" d="M 11.957031 18.671875 C 11.957031 18.136719 11.523438 17.707031 10.992188 17.707031 C 10.460938 17.707031 10.03125 18.136719 10.03125 18.671875 C 10.03125 19.203125 10.460938 19.632812 10.992188 19.632812 C 11.523438 19.632812 11.957031 19.203125 11.957031 18.671875 Z M 11.957031 18.671875 "/>
<path style="fill-rule:nonzero;fill:rgb(80%,80%,80%);fill-opacity:1;stroke-width:1;stroke-linecap:butt;stroke-linejoin:miter;stroke:rgb(23.137255%,20.392157%,20.392157%);stroke-opacity:1;stroke-miterlimit:4;" d="M 97.421875 127.0625 C 94.5 127.0625 92.09375 129.75 91.609375 133.3125 L 114.765625 133.3125 C 114.28125 129.75 111.875 127.0625 108.953125 127.0625 Z M 97.421875 127.0625 " transform="matrix(0.25,0,0,0.25,0,0)"/>
<path style=" stroke:none;fill-rule:nonzero;fill:#DA8752;fill-opacity:1;" d="M 16.503906 33.578125 L 28.738281 33.578125 C 29.707031 33.578125 30.492188 34.359375 30.492188 35.328125 L 30.492188 41.476562 C 30.492188 42.445312 29.707031 43.226562 28.738281 43.226562 L 16.503906 43.226562 C 15.539062 43.226562 14.75 42.445312 14.75 41.476562 L 14.75 35.328125 C 14.75 34.359375 15.539062 33.578125 16.503906 33.578125 Z M 16.503906 33.578125 "/>
<path style=" stroke:none;fill-rule:nonzero;fill:#DA8752;fill-opacity:1;" d="M 16.503906 35.828125 L 28.738281 35.828125 C 29.707031 35.828125 30.492188 36.613281 30.492188 37.582031 L 30.492188 43.730469 C 30.492188 44.695312 29.707031 45.480469 28.738281 45.480469 L 16.503906 45.480469 C 15.539062 45.480469 14.75 44.695312 14.75 43.730469 L 14.75 37.582031 C 14.75 36.613281 15.539062 35.828125 16.503906 35.828125 Z M 16.503906 35.828125 "/>
<path style="fill-rule:nonzero;fill:rgb(80%,80%,80%);fill-opacity:1;stroke-width:1;stroke-linecap:butt;stroke-linejoin:miter;stroke:rgb(23.137255%,20.392157%,20.392157%);stroke-opacity:1;stroke-miterlimit:4;" d="M 97.421875 204.40625 C 94.5 204.40625 92.09375 207.09375 91.609375 210.625 L 114.765625 210.625 C 114.28125 207.09375 111.875 204.40625 108.953125 204.40625 Z M 97.421875 204.40625 " transform="matrix(0.25,0,0,0.25,0,0)"/>
<path style=" stroke:none;fill-rule:nonzero;fill:#DA8752;fill-opacity:1;" d="M 16.503906 52.90625 L 28.738281 52.90625 C 29.707031 52.90625 30.492188 53.691406 30.492188 54.660156 L 30.492188 60.808594 C 30.492188 61.777344 29.707031 62.5625 28.738281 62.5625 L 16.503906 62.5625 C 15.539062 62.5625 14.75 61.777344 14.75 60.808594 L 14.75 54.660156 C 14.75 53.691406 15.539062 52.90625 16.503906 52.90625 Z M 16.503906 52.90625 "/>
<path style=" stroke:none;fill-rule:nonzero;fill:#DA8752;fill-opacity:1;" d="M 16.503906 55.160156 L 28.738281 55.160156 C 29.707031 55.160156 30.492188 55.945312 30.492188 56.914062 L 30.492188 63.0625 C 30.492188 64.03125 29.707031 64.8125 28.738281 64.8125 L 16.503906 64.8125 C 15.539062 64.8125 14.75 64.03125 14.75 63.0625 L 14.75 56.914062 C 14.75 55.945312 15.539062 55.160156 16.503906 55.160156 Z M 16.503906 55.160156 "/>
</g>
</svg>
