
<svg xmlns="http://www.w3.org/2000/svg" xmlns:xlink="http://www.w3.org/1999/xlink" width="24px" height="24px" viewBox="0 0 24 24" version="1.1">
<g id="surface1">
<path style="fill-rule:nonzero;fill:rgb(100%,100%,100%);fill-opacity:1;stroke-width:28.191782;stroke-linecap:butt;stroke-linejoin:miter;stroke:rgb(82.745098%,34.901961%,30.196078%);stroke-opacity:1;stroke-miterlimit:4;" d="M 81.5 25.083333 L 430.5 25.083333 C 461.666667 25.083333 486.916667 50.333333 486.916667 81.5 L 486.916667 430.5 C 486.916667 461.666667 461.666667 486.916667 430.5 486.916667 L 81.5 486.916667 C 50.333333 486.916667 25.083333 461.666667 25.083333 430.5 L 25.083333 81.5 C 25.083333 50.333333 50.333333 25.083333 81.5 25.083333 Z M 81.5 25.083333 " transform="matrix(0.046875,0,0,0.046875,0,0)"/>
<path style="fill-rule:nonzero;fill:rgb(100%,33.333333%,33.333333%);fill-opacity:1;stroke-width:0.807631;stroke-linecap:butt;stroke-linejoin:miter;stroke:rgb(63.137255%,34.901961%,18.431373%);stroke-opacity:1;stroke-miterlimit:4;" d="M 113.008845 258.20364 C 113.024251 201.043475 93.023759 154.763142 68.344567 154.763416 C 43.665376 154.763689 23.665065 201.116219 23.630243 258.195344 C 23.67646 315.255053 43.676953 361.535385 68.356144 361.535112 C 93.035336 361.534838 113.055063 315.263348 113.008845 258.20364 Z M 113.008845 258.20364 " transform="matrix(0.0455848,0.0109219,-0.0109219,0.0455848,5.039678,-2.023975)"/>
<path style="fill-rule:nonzero;fill:rgb(100%,16.470588%,16.470588%);fill-opacity:1;stroke-width:0.616468;stroke-linecap:butt;stroke-linejoin:miter;stroke:rgb(63.137255%,34.901961%,18.431373%);stroke-opacity:1;stroke-miterlimit:4;" d="M 102.458459 258.160704 C 102.462196 214.542649 87.163831 179.303955 68.306007 179.280528 C 49.529223 179.237683 34.265407 214.600808 34.242252 258.137823 C 34.238515 301.755878 49.475258 337.095028 68.333081 337.118456 C 87.171488 337.060844 102.454721 301.778759 102.458459 258.160704 Z M 102.458459 258.160704 " transform="matrix(0.0455848,0.0109219,-0.0109219,0.0455848,5.039678,-2.023975)"/>
<path style="fill-rule:nonzero;fill:rgb(100%,33.333333%,33.333333%);fill-opacity:1;stroke-width:0.490916;stroke-linecap:butt;stroke-linejoin:miter;stroke:rgb(63.137255%,34.901961%,18.431373%);stroke-opacity:1;stroke-miterlimit:4;" d="M 95.525324 258.193703 C 95.522407 223.489197 83.368638 195.295033 68.371185 195.28929 C 53.292693 195.302964 41.191887 223.481357 41.194804 258.185864 C 41.197721 292.89037 53.332074 321.003494 68.329526 321.009237 C 83.326978 321.01498 95.528241 292.89821 95.525324 258.193703 Z M 95.525324 258.193703 " transform="matrix(0.0455848,0.0109219,-0.0109219,0.0455848,5.039678,-2.023975)"/>
<path style="fill-rule:nonzero;fill:rgb(0%,66.666667%,83.137255%);fill-opacity:1;stroke-width:0.844005;stroke-linecap:butt;stroke-linejoin:miter;stroke:rgb(63.137255%,34.901961%,18.431373%);stroke-opacity:1;stroke-miterlimit:4;" d="M 70.757345 244.590243 L 347.969509 234.21406 C 353.489508 234.00549 358.073402 240.61948 358.076867 248.502301 L 358.006219 272.170183 C 358.009683 280.053004 353.517949 286.699173 347.96249 286.402088 L 70.785513 272.604734 C 65.16843 272.408106 60.674691 250.433672 60.697572 258.397533 L 60.632576 258.841565 C 60.655457 266.805427 65.156306 244.81823 70.757345 244.590243 Z M 70.757345 244.590243 " transform="matrix(0.0455848,0.0109219,-0.0109219,0.0455848,5.039678,-2.023975)"/>
<path style="fill-rule:nonzero;fill:rgb(100%,33.333333%,33.333333%);fill-opacity:1;stroke-width:1;stroke-linecap:butt;stroke-linejoin:miter;stroke:rgb(63.137255%,34.901961%,18.431373%);stroke-opacity:1;stroke-miterlimit:4;" d="M 407.865881 258.16745 C 407.892955 187.465174 383.109296 130.16262 352.527697 130.206012 C 322.007721 130.148947 297.189877 187.510298 297.243843 258.193156 C 297.216769 328.895432 322.000428 386.197986 352.500988 386.174011 C 383.082587 386.13062 407.838807 328.869725 407.865881 258.16745 Z M 407.865881 258.16745 " transform="matrix(0.0455848,0.0109219,-0.0109219,0.0455848,5.039678,-2.023975)"/>
<path style="fill-rule:nonzero;fill:rgb(100%,16.470588%,16.470588%);fill-opacity:1;stroke-width:0.763305;stroke-linecap:butt;stroke-linejoin:miter;stroke:rgb(63.137255%,34.901961%,18.431373%);stroke-opacity:1;stroke-miterlimit:4;" d="M 394.748386 258.139738 C 394.77227 204.233832 375.87935 160.430271 352.574461 160.444035 C 329.188532 160.477217 310.284765 204.25334 310.341921 258.139829 C 310.337455 312.126774 329.210957 355.849296 352.535263 355.916571 C 375.840152 355.902806 394.74392 312.126683 394.748386 258.139738 Z M 394.748386 258.139738 " transform="matrix(0.0455848,0.0109219,-0.0109219,0.0455848,5.039678,-2.023975)"/>
<path style="fill-rule:nonzero;fill:rgb(100%,33.333333%,33.333333%);fill-opacity:1;stroke-width:0.607847;stroke-linecap:butt;stroke-linejoin:miter;stroke:rgb(63.137255%,34.901961%,18.431373%);stroke-opacity:1;stroke-miterlimit:4;" d="M 386.178414 258.136456 C 386.175405 215.205552 371.136203 180.333224 352.540915 180.332586 C 333.945627 180.331947 318.908886 215.212207 318.911894 258.14311 C 318.934319 301.155054 333.954105 335.946343 352.549393 335.946981 C 371.14468 335.947619 386.200838 301.148399 386.178414 258.136456 Z M 386.178414 258.136456 " transform="matrix(0.0455848,0.0109219,-0.0109219,0.0455848,5.039678,-2.023975)"/>
<path style="fill-rule:nonzero;fill:rgb(0%,66.666667%,83.137255%);fill-opacity:1;stroke-width:0.356991;stroke-linecap:butt;stroke-linejoin:miter;stroke:rgb(63.137255%,34.901961%,18.431373%);stroke-opacity:1;stroke-miterlimit:4;" d="M 342.41405 233.916976 L 342.400285 286.792154 L 359.439774 286.737095 L 359.400941 286.575015 C 360.026469 286.682217 360.63258 286.70838 361.219275 286.653502 L 376.398223 286.701452 C 386.767114 286.702181 395.136083 278.355819 395.136812 267.986929 L 395.165344 252.726941 C 395.166074 242.358051 386.819712 233.989082 376.450822 233.988353 L 361.190834 233.95982 C 360.604139 234.014697 359.998027 233.988535 359.411333 234.043412 L 359.472956 233.942956 Z M 342.41405 233.916976 " transform="matrix(0.0455848,0.0109219,-0.0109219,0.0455848,5.039678,-2.023975)"/>
</g>
</svg>
