
<svg xmlns="http://www.w3.org/2000/svg" xmlns:xlink="http://www.w3.org/1999/xlink" width="24px" height="24px" viewBox="0 0 24 24" version="1.1">
<g id="surface1">
<path style="fill-rule:nonzero;fill:rgb(52.941176%,80.392157%,87.058824%);fill-opacity:1;stroke-width:28.191782;stroke-linecap:butt;stroke-linejoin:miter;stroke:rgb(0%,41.568627%,72.54902%);stroke-opacity:1;stroke-miterlimit:4;" d="M 81.5 25.083333 L 430.5 25.083333 C 461.666667 25.083333 486.916667 50.333333 486.916667 81.5 L 486.916667 430.5 C 486.916667 461.666667 461.666667 486.916667 430.5 486.916667 L 81.5 486.916667 C 50.333333 486.916667 25.083333 461.666667 25.083333 430.5 L 25.083333 81.5 C 25.083333 50.333333 50.333333 25.083333 81.5 25.083333 Z M 81.5 25.083333 " transform="matrix(0.046875,0,0,0.046875,0,0)"/>
<path style="fill:none;stroke-width:16.944517;stroke-linecap:round;stroke-linejoin:round;stroke:rgb(100%,100%,100%);stroke-opacity:1;stroke-miterlimit:4;" d="M 384.009473 190.908854 L 112.842807 190.908854 " transform="matrix(0.046875,0,0,0.046875,0.355025,-2.710571)"/>
<path style="fill:none;stroke-width:16.944517;stroke-linecap:round;stroke-linejoin:round;stroke:rgb(100%,100%,100%);stroke-opacity:1;stroke-miterlimit:4;" d="M 384.009473 241.742188 L 112.842807 241.742188 " transform="matrix(0.046875,0,0,0.046875,0.355025,-2.710571)"/>
<path style="fill:none;stroke-width:16.944517;stroke-linecap:round;stroke-linejoin:round;stroke:rgb(100%,100%,100%);stroke-opacity:1;stroke-miterlimit:4;" d="M 384.009473 292.575521 L 112.842807 292.575521 " transform="matrix(0.046875,0,0,0.046875,0.355025,-2.710571)"/>
<path style="fill:none;stroke-width:16.944517;stroke-linecap:round;stroke-linejoin:round;stroke:rgb(100%,100%,100%);stroke-opacity:1;stroke-miterlimit:4;" d="M 384.009473 343.408854 L 112.842807 343.408854 " transform="matrix(0.046875,0,0,0.046875,0.355025,-2.710571)"/>
<path style="fill:none;stroke-width:16.944517;stroke-linecap:round;stroke-linejoin:round;stroke:rgb(100%,100%,100%);stroke-opacity:1;stroke-miterlimit:4;" d="M 384.009473 385.908854 L 112.842807 385.908854 " transform="matrix(0.046875,0,0,0.046875,0.355025,-2.710571)"/>
<path style="fill:none;stroke-width:16.944517;stroke-linecap:round;stroke-linejoin:round;stroke:rgb(100%,100%,100%);stroke-opacity:1;stroke-miterlimit:4;" d="M 384.009473 436.742188 L 112.842807 436.742188 " transform="matrix(0.046875,0,0,0.046875,0.355025,-2.710571)"/>
<path style=" stroke:none;fill-rule:evenodd;fill:rgb(12.941176%,40.392157%,47.058824%);fill-opacity:1;" d="M 19.113281 9.199219 C 18.640625 9.644531 17.546875 10.582031 17.546875 10.582031 L 20.105469 13.160156 C 20.105469 13.160156 21.214844 12.023438 21.714844 11.550781 C 21.839844 11.433594 21.824219 11.171875 21.699219 11.050781 C 21.3125 10.6875 20.667969 10.089844 20.667969 10.089844 C 20.667969 10.089844 20.0625 9.515625 19.6875 9.164062 C 19.550781 9.035156 19.246094 9.070312 19.113281 9.199219 Z M 16.421875 11.503906 L 9.582031 17.949219 L 9.640625 20.496094 L 12.3125 20.480469 L 19.078125 14.097656 Z M 16.421875 11.503906 "/>
</g>
</svg>
