
<svg xmlns="http://www.w3.org/2000/svg" xmlns:xlink="http://www.w3.org/1999/xlink" width="24px" height="24px" viewBox="0 0 24 24" version="1.1">
<g id="surface1">
<path style="fill-rule:nonzero;fill:rgb(80.392157%,61.176471%,42.745098%);fill-opacity:1;stroke-width:28.191782;stroke-linecap:butt;stroke-linejoin:miter;stroke:rgb(41.568627%,30.196078%,21.960784%);stroke-opacity:1;stroke-miterlimit:4;" d="M 81.5 25.633293 L 430.5 25.633293 C 461.666667 25.633293 486.916667 50.849105 486.916667 81.993138 L 486.916667 431.006699 C 486.916667 462.150732 461.666667 487.366544 430.5 487.366544 L 81.5 487.366544 C 50.333333 487.366544 25.083333 462.150732 25.083333 431.006699 L 25.083333 81.993138 C 25.083333 50.849105 50.333333 25.633293 81.5 25.633293 Z M 81.5 25.633293 " transform="matrix(0.046875,0,0,0.0467836,0,0)"/>
<path style=" stroke:none;fill-rule:nonzero;fill:rgb(41.568627%,30.196078%,21.960784%);fill-opacity:1;" d="M 13.40625 5.984375 C 13.152344 5.984375 12.898438 5.992188 12.75 6.007812 C 12.429688 6.039062 11.960938 6.136719 11.648438 6.230469 C 9.34375 6.929688 7.652344 8.964844 7.398438 11.347656 C 7.367188 11.640625 7.367188 12.359375 7.398438 12.65625 C 7.433594 12.972656 7.53125 13.445312 7.625 13.757812 C 8.03125 15.09375 8.894531 16.246094 10.082031 17.035156 C 10.847656 17.542969 11.734375 17.871094 12.652344 17.984375 C 12.957031 18.019531 13.75 18.027344 14.058594 17.996094 C 14.378906 17.960938 14.851562 17.867188 15.164062 17.769531 C 17.28125 17.128906 18.898438 15.351562 19.324219 13.1875 C 19.410156 12.761719 19.433594 12.492188 19.433594 12 C 19.433594 11.347656 19.359375 10.820312 19.183594 10.246094 C 18.90625 9.324219 18.421875 8.511719 17.738281 7.808594 C 16.746094 6.789062 15.453125 6.15625 14.058594 6.007812 C 13.914062 5.992188 13.660156 5.984375 13.40625 5.984375 Z M 13.40625 6.488281 C 13.699219 6.488281 13.992188 6.503906 14.183594 6.53125 C 16.027344 6.820312 17.542969 7.917969 18.359375 9.558594 C 18.617188 10.074219 18.789062 10.625 18.882812 11.226562 C 18.941406 11.601562 18.941406 12.398438 18.882812 12.777344 C 18.738281 13.710938 18.386719 14.566406 17.84375 15.289062 C 17.632812 15.570312 17.257812 15.992188 17.195312 16.007812 C 17.167969 16.019531 17.085938 15.984375 16.949219 15.902344 C 16.753906 15.785156 16.460938 15.652344 15.679688 15.328125 C 15.082031 15.082031 14.808594 14.894531 14.664062 14.628906 C 14.597656 14.507812 14.597656 14.5 14.585938 14.027344 L 14.578125 13.550781 L 14.660156 13.460938 C 14.824219 13.289062 15.015625 12.890625 15.089844 12.558594 C 15.128906 12.386719 15.132812 12.375 15.21875 12.328125 C 15.417969 12.230469 15.535156 11.953125 15.535156 11.597656 C 15.535156 11.378906 15.535156 11.367188 15.457031 11.257812 C 15.378906 11.148438 15.378906 11.140625 15.402344 11.050781 C 15.589844 10.402344 15.648438 9.710938 15.5625 9.238281 C 15.480469 8.800781 15.246094 8.464844 14.90625 8.300781 C 14.8125 8.253906 14.6875 8.210938 14.628906 8.203125 C 14.546875 8.1875 14.503906 8.164062 14.429688 8.085938 C 14.207031 7.851562 13.917969 7.761719 13.394531 7.761719 C 12.371094 7.765625 11.695312 8.140625 11.410156 8.859375 C 11.203125 9.382812 11.203125 10.085938 11.40625 11.015625 C 11.433594 11.140625 11.433594 11.144531 11.355469 11.257812 C 11.277344 11.367188 11.273438 11.378906 11.273438 11.597656 C 11.273438 11.953125 11.394531 12.230469 11.589844 12.328125 C 11.671875 12.371094 11.683594 12.390625 11.710938 12.511719 C 11.777344 12.832031 11.917969 13.148438 12.113281 13.402344 L 12.234375 13.5625 L 12.234375 14.039062 C 12.230469 14.5625 12.226562 14.578125 12.070312 14.769531 C 11.894531 14.988281 11.613281 15.140625 10.789062 15.476562 C 10.34375 15.65625 9.886719 15.875 9.742188 15.972656 C 9.703125 16 9.65625 16.019531 9.636719 16.019531 C 9.617188 16.019531 9.523438 15.9375 9.429688 15.839844 C 8.609375 14.972656 8.109375 13.957031 7.925781 12.777344 C 7.867188 12.402344 7.867188 11.601562 7.925781 11.226562 C 8.214844 9.382812 9.3125 7.871094 10.957031 7.054688 C 11.476562 6.796875 12.027344 6.625 12.628906 6.53125 C 12.816406 6.503906 13.109375 6.488281 13.40625 6.488281 Z M 13.40625 6.488281 "/>
<path style=" stroke:none;fill-rule:nonzero;fill:rgb(41.568627%,30.196078%,21.960784%);fill-opacity:1;" d="M 1.601562 1.347656 L 1.601562 22.382812 L 4.613281 22.382812 L 4.613281 1.347656 Z M 1.601562 1.347656 "/>
</g>
</svg>
