
<svg xmlns="http://www.w3.org/2000/svg" xmlns:xlink="http://www.w3.org/1999/xlink" width="24px" height="24px" viewBox="0 0 24 24" version="1.1">
<g id="surface1">
<path style="fill-rule:nonzero;fill:rgb(100%,100%,100%);fill-opacity:1;stroke-width:26.401737;stroke-linecap:butt;stroke-linejoin:miter;stroke:rgb(16.862745%,65.882353%,92.156863%);stroke-opacity:1;stroke-miterlimit:4;" d="M 76.562476 23.749993 L 403.437374 23.749993 C 432.57799 23.749993 456.249857 47.42186 456.249857 76.562476 L 456.249857 403.437374 C 456.249857 432.57799 432.57799 456.249857 403.437374 456.249857 L 76.562476 456.249857 C 47.42186 456.249857 23.749993 432.57799 23.749993 403.437374 L 23.749993 76.562476 C 23.749993 47.42186 47.42186 23.749993 76.562476 23.749993 Z M 76.562476 23.749993 " transform="matrix(0.05,0,0,0.05,0,0)"/>
<path style=" stroke:none;fill-rule:nonzero;fill:rgb(20.784314%,48.627451%,93.333333%);fill-opacity:1;" d="M 3.285156 21.582031 C 3.152344 21.398438 2.9375 20.933594 2.832031 20.621094 C 2.652344 20.082031 2.625 19.886719 2.625 19.15625 C 2.628906 18.539062 2.640625 18.425781 2.734375 18.078125 C 3.074219 16.8125 3.914062 15.765625 5.113281 15.113281 C 5.597656 14.851562 5.617188 14.808594 5.335938 14.574219 C 4.941406 14.242188 4.582031 13.707031 4.40625 13.195312 C 3.878906 11.644531 4.589844 9.957031 6.054688 9.269531 C 6.886719 8.882812 7.929688 8.882812 8.761719 9.269531 C 10.230469 9.957031 10.945312 11.664062 10.410156 13.203125 C 10.234375 13.714844 9.902344 14.207031 9.5 14.554688 C 9.300781 14.730469 9.28125 14.761719 9.320312 14.832031 C 9.34375 14.878906 9.492188 14.984375 9.652344 15.066406 C 9.808594 15.148438 10.003906 15.257812 10.085938 15.308594 C 10.167969 15.359375 10.257812 15.398438 10.285156 15.398438 C 10.3125 15.398438 10.421875 15.277344 10.53125 15.132812 C 10.984375 14.53125 11.75 13.894531 12.46875 13.519531 C 12.859375 13.316406 13.003906 13.207031 13.003906 13.109375 C 13.003906 13.074219 12.886719 12.953125 12.746094 12.839844 C 12.207031 12.402344 11.679688 11.570312 11.5 10.871094 C 10.929688 8.648438 12.285156 6.441406 14.519531 5.96875 C 14.679688 5.933594 15.007812 5.910156 15.335938 5.910156 C 15.785156 5.910156 15.949219 5.925781 16.269531 6.007812 C 16.976562 6.1875 17.589844 6.535156 18.109375 7.054688 C 19.097656 8.125 19.488281 9.621094 19.121094 10.914062 C 18.890625 11.664062 18.425781 12.398438 17.910156 12.816406 C 17.78125 12.921875 17.664062 13.035156 17.652344 13.0625 C 17.613281 13.15625 17.785156 13.296875 18.214844 13.523438 C 19.699219 14.296875 20.792969 15.667969 21.171875 17.230469 C 21.492188 18.558594 21.351562 19.847656 20.75 21.074219 C 20.644531 21.292969 20.527344 21.507812 20.488281 21.554688 L 20.417969 21.640625 L 11.890625 21.667969 L 3.363281 21.691406 Z M 3.285156 21.582031 "/>
<path style=" stroke:none;fill-rule:nonzero;fill:rgb(31.372549%,70.196078%,15.686275%);fill-opacity:1;" d="M 3.285156 21.578125 C 3.152344 21.394531 2.933594 20.933594 2.832031 20.621094 C 2.652344 20.082031 2.625 19.886719 2.625 19.15625 C 2.628906 18.539062 2.640625 18.425781 2.734375 18.078125 C 3.074219 16.8125 3.914062 15.765625 5.113281 15.113281 C 5.597656 14.851562 5.617188 14.808594 5.335938 14.574219 C 4.941406 14.242188 4.582031 13.707031 4.40625 13.195312 C 3.878906 11.644531 4.589844 9.957031 6.054688 9.269531 C 6.886719 8.882812 7.929688 8.882812 8.761719 9.269531 C 10.230469 9.957031 10.945312 11.664062 10.410156 13.203125 C 10.234375 13.714844 9.902344 14.207031 9.5 14.554688 C 9.214844 14.808594 9.230469 14.839844 9.765625 15.125 C 9.984375 15.242188 10.179688 15.363281 10.203125 15.386719 C 10.230469 15.421875 10.183594 15.53125 10.054688 15.753906 C 9.535156 16.65625 9.308594 17.515625 9.308594 18.585938 C 9.308594 19.628906 9.546875 20.546875 10.035156 21.378906 C 10.117188 21.527344 10.179688 21.652344 10.164062 21.667969 C 10.152344 21.679688 8.617188 21.6875 6.75 21.6875 L 3.359375 21.6875 Z M 3.285156 21.578125 "/>
</g>
</svg>
