<!-- color: #ef772a -->
<svg xmlns="http://www.w3.org/2000/svg" xmlns:xlink="http://www.w3.org/1999/xlink" width="24px" height="24px" viewBox="0 0 24 24" version="1.1">
<defs>
<clipPath id="clip1">
  <path d="M 7.828125 7.78125 L 12.421875 7.78125 L 12.421875 12.75 L 7.828125 12.75 Z M 7.828125 7.78125 "/>
</clipPath>
<clipPath id="clip2">
  <path d="M 23.449219 12.28125 C 23.449219 18.539062 18.375 23.609375 12.121094 23.609375 C 5.867188 23.609375 0.792969 18.539062 0.792969 12.28125 C 0.792969 6.019531 5.867188 0.949219 12.121094 0.949219 C 18.375 0.949219 23.449219 6.019531 23.449219 12.28125 Z M 23.449219 12.28125 "/>
</clipPath>
<clipPath id="clip3">
  <path d="M 15.09375 15.28125 L 18.5625 15.28125 L 18.5625 18.703125 L 15.09375 18.703125 Z M 15.09375 15.28125 "/>
</clipPath>
<clipPath id="clip4">
  <path d="M 23.449219 12.28125 C 23.449219 18.539062 18.375 23.609375 12.121094 23.609375 C 5.867188 23.609375 0.792969 18.539062 0.792969 12.28125 C 0.792969 6.019531 5.867188 0.949219 12.121094 0.949219 C 18.375 0.949219 23.449219 6.019531 23.449219 12.28125 Z M 23.449219 12.28125 "/>
</clipPath>
<clipPath id="clip5">
  <path d="M 12.890625 13.03125 L 15.984375 13.03125 L 15.984375 16.171875 L 12.890625 16.171875 Z M 12.890625 13.03125 "/>
</clipPath>
<clipPath id="clip6">
  <path d="M 23.449219 12.28125 C 23.449219 18.539062 18.375 23.609375 12.121094 23.609375 C 5.867188 23.609375 0.792969 18.539062 0.792969 12.28125 C 0.792969 6.019531 5.867188 0.949219 12.121094 0.949219 C 18.375 0.949219 23.449219 6.019531 23.449219 12.28125 Z M 23.449219 12.28125 "/>
</clipPath>
<clipPath id="clip7">
  <path d="M 5.71875 5.8125 L 14.53125 5.8125 L 14.53125 14.71875 L 5.71875 14.71875 Z M 5.71875 5.8125 "/>
</clipPath>
<clipPath id="clip8">
  <path d="M 23.449219 12.28125 C 23.449219 18.539062 18.375 23.609375 12.121094 23.609375 C 5.867188 23.609375 0.792969 18.539062 0.792969 12.28125 C 0.792969 6.019531 5.867188 0.949219 12.121094 0.949219 C 18.375 0.949219 23.449219 6.019531 23.449219 12.28125 Z M 23.449219 12.28125 "/>
</clipPath>
</defs>
<g id="surface1">
<path style="fill-rule:nonzero;fill:rgb(93.333333%,43.921569%,11.372549%);fill-opacity:1;stroke-width:6.941165;stroke-linecap:butt;stroke-linejoin:miter;stroke:rgb(88.627451%,82.352941%,80.392157%);stroke-opacity:1;stroke-miterlimit:4;" d="M 21.041667 7.145833 L 106.958333 7.145833 C 114.645833 7.145833 120.854167 13.354167 120.854167 21.041667 L 120.854167 106.958333 C 120.854167 114.645833 114.645833 120.854167 106.958333 120.854167 L 21.041667 120.854167 C 13.354167 120.854167 7.145833 114.645833 7.145833 106.958333 L 7.145833 21.041667 C 7.145833 13.354167 13.354167 7.145833 21.041667 7.145833 Z M 21.041667 7.145833 " transform="matrix(0.1875,0,0,0.1875,0,0)"/>
<g clip-path="url(#clip1)" clip-rule="nonzero">
<g clip-path="url(#clip2)" clip-rule="nonzero">
<path style=" stroke:none;fill-rule:nonzero;fill:rgb(97.647059%,97.647059%,97.647059%);fill-opacity:1;" d="M 9.746094 7.820312 L 10.5 7.820312 L 12.378906 12.746094 L 11.6875 12.746094 L 11.238281 11.484375 L 9.023438 11.484375 L 8.558594 12.746094 L 7.867188 12.746094 M 10.117188 8.484375 L 9.222656 10.929688 L 11.023438 10.929688 M 10.117188 8.484375 "/>
</g>
</g>
<g clip-path="url(#clip3)" clip-rule="nonzero">
<g clip-path="url(#clip4)" clip-rule="nonzero">
<path style=" stroke:none;fill-rule:nonzero;fill:rgb(97.647059%,97.647059%,97.647059%);fill-opacity:1;" d="M 15.136719 16.355469 L 16.191406 15.296875 L 18.527344 17.628906 L 17.46875 18.6875 M 15.136719 16.355469 "/>
</g>
</g>
<g clip-path="url(#clip5)" clip-rule="nonzero">
<g clip-path="url(#clip6)" clip-rule="nonzero">
<path style=" stroke:none;fill-rule:nonzero;fill:rgb(97.647059%,97.647059%,97.647059%);fill-opacity:1;" d="M 12.894531 13.796875 L 13.636719 13.054688 L 15.96875 15.386719 L 15.226562 16.128906 M 12.894531 13.796875 "/>
</g>
</g>
<g clip-path="url(#clip7)" clip-rule="nonzero">
<g clip-path="url(#clip8)" clip-rule="nonzero">
<path style=" stroke:none;fill-rule:nonzero;fill:rgb(97.647059%,97.647059%,97.647059%);fill-opacity:1;" d="M 10.117188 5.859375 C 8.988281 5.859375 7.867188 6.308594 7.007812 7.167969 C 5.289062 8.882812 5.289062 11.667969 7.007812 13.386719 C 8.722656 15.101562 11.507812 15.101562 13.226562 13.386719 C 14.941406 11.667969 14.941406 8.886719 13.226562 7.167969 C 12.367188 6.308594 11.246094 5.859375 10.117188 5.859375 M 10.117188 6.625 C 11.054688 6.625 12.011719 6.9375 12.734375 7.660156 C 14.175781 9.101562 14.175781 11.453125 12.734375 12.894531 C 11.292969 14.335938 8.941406 14.335938 7.5 12.894531 C 6.054688 11.453125 6.054688 9.101562 7.5 7.660156 C 8.21875 6.9375 9.175781 6.625 10.113281 6.625 M 10.113281 6.625 "/>
</g>
</g>
</g>
</svg>
