
<svg xmlns="http://www.w3.org/2000/svg" xmlns:xlink="http://www.w3.org/1999/xlink" width="24px" height="24px" viewBox="0 0 24 24" version="1.1">
<g id="surface1">
<path style="fill-rule:nonzero;fill:rgb(20.392157%,28.627451%,36.862745%);fill-opacity:1;stroke-width:2.611181;stroke-linecap:butt;stroke-linejoin:miter;stroke:rgb(16.078431%,50.196078%,72.54902%);stroke-opacity:1;stroke-miterlimit:4;" d="M 7.851562 2.882812 L 40.179686 2.882812 C 43.070311 2.882812 45.406249 5.21875 45.406249 8.101562 L 45.406249 40.437499 C 45.406249 43.320311 43.070311 45.656249 40.179686 45.656249 L 7.851562 45.656249 C 4.96875 45.656249 2.632812 43.320311 2.632812 40.437499 L 2.632812 8.101562 C 2.632812 5.21875 4.96875 2.882812 7.851562 2.882812 Z M 7.851562 2.882812 " transform="matrix(0.5,0,0,0.5,0,0)"/>
<path style=" stroke:none;fill-rule:nonzero;fill:rgb(90.588235%,29.803922%,23.529412%);fill-opacity:1;" d="M 15 2 L 20.5 2 L 20.5 7.5 L 17.75 5.5 L 15 7.5 Z M 15 2 "/>
<path style=" stroke:none;fill-rule:nonzero;fill:rgb(16.078431%,50.196078%,72.54902%);fill-opacity:1;" d="M 1.703125 2 L 7 2 L 7 22.359375 L 1.703125 22.359375 Z M 1.703125 2 "/>
<path style=" stroke:none;fill-rule:nonzero;fill:rgb(92.54902%,94.117647%,94.509804%);fill-opacity:1;" d="M 18.25 7.5 C 18.25 7.5 15.859375 7.871094 13.542969 9.269531 C 13.960938 9.609375 14.332031 10.027344 14.617188 10.523438 C 14.703125 10.675781 14.777344 10.824219 14.84375 10.980469 C 14.378906 10.34375 13.773438 9.867188 13.097656 9.550781 C 12.835938 9.726562 12.578125 9.917969 12.324219 10.121094 C 12.417969 10.25 12.507812 10.382812 12.589844 10.523438 C 12.675781 10.675781 12.75 10.824219 12.816406 10.980469 C 12.621094 10.714844 12.398438 10.476562 12.160156 10.265625 C 10.550781 11.625 9.25 13.601562 9.25 16.5 C 9.25 16.5 11.128906 13.789062 14.347656 12.785156 C 13.332031 12.476562 12.214844 12.515625 11.1875 12.96875 C 11.324219 12.871094 11.464844 12.773438 11.613281 12.6875 C 12.84375 11.980469 14.261719 11.902344 15.492188 12.363281 C 18.109375 11.042969 18.25 7.5 18.25 7.5 Z M 18.25 7.5 "/>
</g>
</svg>
