
<svg xmlns="http://www.w3.org/2000/svg" xmlns:xlink="http://www.w3.org/1999/xlink" width="24px" height="24px" viewBox="0 0 24 24" version="1.1">
<g id="surface1">
<path style=" stroke:none;fill-rule:nonzero;fill:rgb(26.666667%,36.470588%,65.490196%);fill-opacity:1;" d="M 4.183594 1.742188 L 19.925781 1.742188 C 21.273438 1.742188 22.367188 2.835938 22.367188 4.183594 L 22.367188 19.925781 C 22.367188 21.273438 21.273438 22.367188 19.925781 22.367188 L 4.183594 22.367188 C 2.835938 22.367188 1.742188 21.273438 1.742188 19.925781 L 1.742188 4.183594 C 1.742188 2.835938 2.835938 1.742188 4.183594 1.742188 Z M 4.183594 1.742188 "/>
<path style=" stroke:none;fill-rule:nonzero;fill:rgb(97.647059%,97.647059%,97.647059%);fill-opacity:1;" d="M 16.269531 4.34375 C 16.226562 4.367188 16.222656 4.382812 16.234375 4.367188 C 15.835938 5.039062 15.828125 5.925781 15.648438 6.714844 C 15.648438 6.71875 15.648438 6.722656 15.648438 6.726562 C 15.648438 6.738281 15.652344 6.75 15.648438 6.761719 C 15.5625 7.609375 15.277344 8.476562 15.476562 9.292969 C 15.488281 9.3125 15.496094 9.332031 15.5 9.351562 C 15.503906 9.359375 15.5 9.367188 15.5 9.375 C 15.503906 9.378906 15.496094 9.382812 15.5 9.386719 C 15.503906 9.390625 15.519531 9.382812 15.523438 9.386719 C 15.566406 9.445312 15.617188 9.492188 15.648438 9.5 C 15.671875 9.503906 15.714844 9.5 15.796875 9.445312 C 15.886719 9.382812 15.933594 9.261719 15.960938 9.101562 C 15.96875 9.078125 15.980469 9.058594 15.992188 9.042969 C 15.992188 9.035156 15.992188 9.027344 15.992188 9.019531 C 16 9 16.007812 8.980469 16.015625 8.960938 C 16.019531 8.957031 16.023438 8.953125 16.027344 8.949219 C 16.378906 7.550781 16.625 6.082031 16.53125 4.640625 C 16.519531 4.570312 16.507812 4.515625 16.441406 4.433594 C 16.394531 4.382812 16.359375 4.351562 16.347656 4.34375 C 16.335938 4.335938 16.34375 4.339844 16.304688 4.34375 C 16.300781 4.34375 16.296875 4.34375 16.292969 4.34375 C 16.277344 4.34375 16.277344 4.34375 16.269531 4.34375 Z M 19.5 5.03125 C 18.890625 5.328125 18.578125 6.035156 18.160156 6.613281 C 18.15625 6.632812 18.152344 6.652344 18.148438 6.671875 C 18.140625 6.683594 18.132812 6.695312 18.125 6.703125 C 17.59375 7.644531 16.914062 8.585938 16.839844 9.671875 C 16.839844 9.679688 16.84375 9.691406 16.839844 9.695312 C 16.851562 9.859375 16.949219 9.949219 17.046875 9.972656 C 17.144531 9.992188 17.320312 9.933594 17.390625 9.820312 C 17.398438 9.8125 17.40625 9.804688 17.414062 9.800781 C 17.414062 9.796875 17.414062 9.792969 17.414062 9.789062 C 17.414062 9.78125 17.414062 9.773438 17.414062 9.765625 C 18.378906 8.4375 19.105469 6.871094 19.707031 5.339844 C 19.707031 5.335938 19.707031 5.332031 19.707031 5.328125 C 19.75 5.230469 19.753906 5.199219 19.71875 5.121094 C 19.707031 5.101562 19.59375 5.023438 19.535156 5.03125 C 19.527344 5.035156 19.511719 5.027344 19.5 5.03125 Z M 10.183594 5.453125 C 10.132812 5.453125 10.082031 5.457031 10.035156 5.464844 C 9.9375 5.484375 9.792969 5.574219 9.691406 5.617188 C 9.320312 5.753906 9.113281 6.070312 9.023438 6.441406 C 8.9375 6.820312 8.964844 7.238281 9.023438 7.667969 C 9.085938 8.097656 9.171875 8.542969 9.265625 8.882812 C 9.347656 9.175781 9.410156 9.3125 9.4375 9.410156 L 9.4375 9.488281 C 9.4375 9.523438 9.414062 9.519531 9.390625 9.546875 C 9.378906 9.554688 9.402344 9.582031 9.390625 9.582031 C 9.367188 9.601562 9.332031 9.617188 9.300781 9.617188 C 9.234375 9.621094 9.183594 9.597656 9.117188 9.582031 C 9.070312 9.570312 9.011719 9.535156 9.023438 9.546875 C 9.003906 9.535156 8.96875 9.523438 8.957031 9.5 C 8.957031 9.496094 8.960938 9.496094 8.957031 9.488281 C 8.941406 9.460938 8.921875 9.390625 8.898438 9.339844 C 8.847656 9.230469 8.808594 9.101562 8.738281 8.9375 C 8.59375 8.613281 8.40625 8.214844 8.199219 7.839844 C 7.996094 7.460938 7.757812 7.125 7.488281 6.886719 C 7.355469 6.769531 7.191406 6.652344 7.03125 6.613281 C 6.878906 6.574219 6.695312 6.601562 6.539062 6.679688 C 6.128906 6.910156 5.894531 7.277344 5.804688 7.667969 C 5.714844 8.0625 5.75 8.519531 5.816406 8.917969 C 5.882812 9.3125 5.988281 9.644531 6.058594 9.914062 C 6.085938 10.027344 6.128906 10.132812 6.136719 10.1875 C 6.136719 10.246094 6.105469 10.386719 6.089844 10.441406 C 6.023438 10.679688 5.863281 11.082031 5.863281 11.082031 C 5.863281 11.082031 2.664062 19.585938 9.53125 18.992188 C 9.585938 18.988281 9.707031 18.945312 9.757812 18.945312 C 11.105469 18.671875 12.382812 18.269531 13.519531 17.808594 C 13.742188 17.703125 14.039062 17.597656 14.367188 17.445312 C 15.023438 17.136719 15.84375 16.742188 16.636719 16.308594 C 17.429688 15.875 18.171875 15.40625 18.734375 14.910156 C 19.296875 14.414062 19.703125 13.878906 19.625 13.339844 C 19.507812 12.46875 18.929688 11.824219 18.160156 11.324219 C 17.386719 10.820312 16.425781 10.476562 15.464844 10.222656 C 14.507812 9.96875 13.578125 9.761719 12.863281 9.648438 C 12.507812 9.59375 12.167969 9.585938 11.960938 9.546875 C 11.898438 9.535156 11.867188 9.511719 11.832031 9.5 C 11.816406 9.5 11.816406 9.5 11.796875 9.488281 C 11.777344 9.476562 11.742188 9.476562 11.730469 9.453125 C 11.71875 9.433594 11.730469 9.398438 11.730469 9.375 C 11.730469 9.367188 11.730469 9.351562 11.730469 9.339844 L 11.730469 8.8125 C 11.71875 8.375 11.683594 7.792969 11.59375 7.253906 C 11.5 6.710938 11.363281 6.183594 11.066406 5.832031 C 10.886719 5.625 10.636719 5.488281 10.332031 5.464844 C 10.285156 5.460938 10.230469 5.457031 10.183594 5.457031 Z M 10.183594 5.453125 "/>
</g>
</svg>
