<!-- color: #bb0000 -->
<svg xmlns="http://www.w3.org/2000/svg" xmlns:xlink="http://www.w3.org/1999/xlink" width="24px" height="24px" viewBox="0 0 24 24" version="1.1">
<defs>
<clipPath id="clip1">
  <path d="M 5.578125 5.578125 L 18.421875 5.578125 L 18.421875 18.421875 L 5.578125 18.421875 Z M 5.578125 5.578125 "/>
</clipPath>
<clipPath id="clip2">
  <path d="M 24.234375 12.003906 C 24.234375 18.761719 18.753906 24.238281 12 24.238281 C 5.25 24.238281 -0.230469 18.761719 -0.230469 12.003906 C -0.230469 5.246094 5.25 -0.226562 12 -0.226562 C 18.753906 -0.226562 24.234375 5.246094 24.234375 12.003906 Z M 24.234375 12.003906 "/>
</clipPath>
</defs>
<g id="surface1">
<path style="fill-rule:evenodd;fill:rgb(96.470588%,27.843137%,27.843137%);fill-opacity:0.996078;stroke-width:16;stroke-linecap:butt;stroke-linejoin:miter;stroke:rgb(62.352941%,2.745098%,2.745098%);stroke-opacity:0.996078;stroke-miterlimit:4;" d="M 87.75 31 L 424.25 31 C 455.583333 31 481 56.416667 481 87.75 L 481 424.25 C 481 455.583333 455.583333 481 424.25 481 L 87.75 481 C 56.416667 481 31 455.583333 31 424.25 L 31 87.75 C 31 56.416667 56.416667 31 87.75 31 Z M 87.75 31 " transform="matrix(0.046875,0,0,0.046875,0,0)"/>
<g clip-path="url(#clip1)" clip-rule="nonzero">
<g clip-path="url(#clip2)" clip-rule="nonzero">
<path style=" stroke:none;fill-rule:nonzero;fill:rgb(100%,100%,100%);fill-opacity:1;" d="M 8.207031 5.621094 L 5.621094 17.097656 L 7.722656 17.097656 L 8.941406 11.960938 L 14.683594 11.960938 L 9.304688 16.769531 L 10.707031 18.382812 L 11.421875 18.011719 C 12.777344 17.316406 13.347656 17.722656 14.375 18.007812 C 15.378906 18.285156 16.320312 18.582031 18.273438 17.457031 L 17.886719 15.472656 C 15.757812 16.984375 15.082031 15.636719 13.5625 15.578125 L 17.910156 11.902344 L 18.378906 9.9375 L 9.273438 9.9375 L 9.863281 7.582031 L 15.832031 7.582031 L 16.242188 5.617188 L 8.207031 5.617188 M 8.210938 5.621094 "/>
</g>
</g>
</g>
</svg>
