
<svg xmlns="http://www.w3.org/2000/svg" xmlns:xlink="http://www.w3.org/1999/xlink" width="24px" height="24px" viewBox="0 0 24 24" version="1.1">
<g id="surface1">
<path style="fill-rule:evenodd;fill:rgb(17.254902%,24.313725%,31.372549%);fill-opacity:1;stroke-width:40.8;stroke-linecap:butt;stroke-linejoin:miter;stroke:rgb(18.039216%,80%,44.313725%);stroke-opacity:1;stroke-miterlimit:4;" d="M 170.666667 61.666667 L 856 61.666667 C 920.666667 61.666667 973.333333 114.166667 973.333333 179 L 973.333333 860 C 973.333333 924.833333 920.666667 977.333333 856 977.333333 L 170.666667 977.333333 C 105.833333 977.333333 53.333333 924.833333 53.333333 860 L 53.333333 179 C 53.333333 114.166667 105.833333 61.666667 170.666667 61.666667 Z M 170.666667 61.666667 " transform="matrix(0.0234375,0,0,0.0234375,0,0)"/>
<path style=" stroke:none;fill-rule:evenodd;fill:rgb(18.039216%,80%,44.313725%);fill-opacity:1;" d="M 10.976562 4.089844 C 8.808594 4.089844 6.65625 4.984375 5.121094 6.515625 C 3.589844 8.046875 2.699219 10.203125 2.699219 12.371094 C 2.699219 14.539062 3.589844 16.691406 5.121094 18.226562 C 6.65625 19.757812 8.808594 20.652344 10.976562 20.652344 C 13.144531 20.652344 15.300781 19.757812 16.832031 18.226562 C 18.367188 16.691406 19.261719 14.539062 19.261719 12.371094 L 17.050781 12.371094 C 17.050781 13.960938 16.398438 15.539062 15.273438 16.664062 C 14.148438 17.789062 12.566406 18.441406 10.976562 18.441406 C 9.386719 18.441406 7.808594 17.789062 6.683594 16.664062 C 5.558594 15.539062 4.90625 13.960938 4.90625 12.371094 C 4.90625 10.78125 5.558594 9.199219 6.683594 8.078125 C 7.808594 6.953125 9.386719 6.296875 10.976562 6.296875 C 10.976562 6.296875 10.976562 6.296875 10.980469 6.296875 L 10.980469 4.089844 C 10.980469 4.089844 10.976562 4.089844 10.976562 4.089844 Z M 10.976562 4.089844 "/>
<path style=" stroke:none;fill-rule:evenodd;fill:rgb(92.54902%,94.117647%,94.509804%);fill-opacity:1;" d="M 8.261719 11.503906 L 9.824219 9.941406 L 13.230469 13.347656 L 11.667969 14.910156 Z M 8.261719 11.503906 "/>
<path style=" stroke:none;fill-rule:evenodd;fill:rgb(92.54902%,94.117647%,94.509804%);fill-opacity:1;" d="M 19.570312 4.042969 L 10.1875 13.425781 L 11.75 14.988281 L 21.132812 5.605469 Z M 19.570312 4.042969 "/>
</g>
</svg>
