
<svg xmlns="http://www.w3.org/2000/svg" xmlns:xlink="http://www.w3.org/1999/xlink" width="24px" height="24px" viewBox="0 0 24 24" version="1.1">
<g id="surface1">
<path style="fill-rule:nonzero;fill:rgb(50.196078%,50.196078%,50.196078%);fill-opacity:1;stroke-width:6.392664;stroke-linecap:butt;stroke-linejoin:miter;stroke:rgb(21.568627%,20.784314%,22.745098%);stroke-opacity:1;stroke-miterlimit:4;" d="M 26.594804 935.928544 L 105.744433 935.928544 C 112.806335 935.928544 118.520238 941.662566 118.520238 948.724468 L 118.520238 1027.874097 C 118.520238 1034.915879 112.806335 1040.649902 105.744433 1040.649902 L 26.594804 1040.649902 C 19.532902 1040.649902 13.79888 1034.915879 13.79888 1027.874097 L 13.79888 948.724468 C 13.79888 941.662566 19.532902 935.928544 26.594804 935.928544 Z M 26.594804 935.928544 " transform="matrix(0.194154,0,0,0.194154,-0.45254,-179.893607)"/>
<path style=" stroke:none;fill-rule:nonzero;fill:rgb(21.568627%,20.784314%,22.745098%);fill-opacity:1;" d="M 2.613281 2.269531 L 22.023438 2.269531 L 22.023438 5.636719 L 2.613281 5.636719 Z M 2.613281 2.269531 "/>
<path style=" stroke:none;fill-rule:nonzero;fill:rgb(100%,100%,100%);fill-opacity:1;" d="M 16.289062 3.601562 L 17.546875 3.601562 L 17.546875 4.835938 L 16.289062 4.835938 Z M 16.289062 3.601562 "/>
<path style=" stroke:none;fill-rule:nonzero;fill:rgb(100%,100%,100%);fill-opacity:1;" d="M 18.597656 3.601562 L 19.855469 3.601562 L 19.855469 4.835938 L 18.597656 4.835938 Z M 18.597656 3.601562 "/>
<path style=" stroke:none;fill-rule:nonzero;fill:rgb(100%,100%,100%);fill-opacity:1;" d="M 13.980469 3.601562 L 15.238281 3.601562 L 15.238281 4.835938 L 13.980469 4.835938 Z M 13.980469 3.601562 "/>
<path style=" stroke:none;fill-rule:nonzero;fill:rgb(82.352941%,82.352941%,82.352941%);fill-opacity:1;" d="M 15.902344 13.128906 C 15.902344 11.335938 14.414062 9.882812 12.578125 9.882812 C 10.738281 9.882812 9.25 11.335938 9.25 13.128906 C 9.25 14.921875 10.738281 16.375 12.578125 16.375 C 14.414062 16.375 15.902344 14.921875 15.902344 13.128906 Z M 15.902344 13.128906 "/>
<path style=" stroke:none;fill-rule:nonzero;fill:rgb(82.352941%,82.352941%,82.352941%);fill-opacity:1;" d="M 11.863281 18.175781 C 11.773438 18.136719 11.679688 18.035156 11.636719 17.933594 C 11.613281 17.878906 11.59375 17.679688 11.574219 17.355469 C 11.558594 17.082031 11.539062 16.839844 11.527344 16.8125 C 11.515625 16.777344 11.453125 16.746094 11.296875 16.691406 C 11.179688 16.648438 11.003906 16.574219 10.902344 16.523438 C 10.804688 16.476562 10.703125 16.433594 10.675781 16.433594 C 10.648438 16.433594 10.484375 16.566406 10.257812 16.777344 C 10.050781 16.964844 9.851562 17.136719 9.808594 17.15625 C 9.726562 17.199219 9.539062 17.207031 9.441406 17.171875 C 9.363281 17.140625 8.550781 16.339844 8.496094 16.238281 C 8.445312 16.140625 8.449219 15.957031 8.507812 15.847656 C 8.535156 15.796875 8.707031 15.59375 8.890625 15.390625 C 9.089844 15.175781 9.226562 15.011719 9.226562 14.984375 C 9.226562 14.957031 9.1875 14.855469 9.136719 14.757812 C 9.085938 14.660156 9.011719 14.484375 8.972656 14.367188 C 8.929688 14.25 8.882812 14.144531 8.859375 14.132812 C 8.839844 14.125 8.601562 14.101562 8.328125 14.089844 C 8.011719 14.070312 7.800781 14.046875 7.738281 14.027344 C 7.621094 13.984375 7.484375 13.839844 7.464844 13.738281 C 7.457031 13.695312 7.453125 13.382812 7.457031 13.046875 L 7.464844 12.433594 L 7.535156 12.34375 C 7.660156 12.1875 7.71875 12.171875 8.316406 12.136719 C 8.652344 12.113281 8.855469 12.09375 8.875 12.074219 C 8.890625 12.0625 8.9375 11.945312 8.984375 11.820312 C 9.03125 11.691406 9.105469 11.519531 9.148438 11.433594 C 9.191406 11.347656 9.226562 11.261719 9.226562 11.238281 C 9.226562 11.214844 9.085938 11.039062 8.914062 10.851562 C 8.742188 10.664062 8.578125 10.476562 8.546875 10.4375 C 8.464844 10.328125 8.4375 10.195312 8.46875 10.0625 C 8.496094 9.964844 8.539062 9.910156 8.914062 9.53125 C 9.144531 9.300781 9.367188 9.089844 9.414062 9.066406 C 9.523438 9.007812 9.699219 9.007812 9.804688 9.0625 C 9.851562 9.085938 10.050781 9.253906 10.25 9.4375 C 10.449219 9.621094 10.625 9.777344 10.640625 9.785156 C 10.660156 9.796875 10.765625 9.757812 10.898438 9.695312 C 11.019531 9.636719 11.207031 9.5625 11.308594 9.527344 C 11.449219 9.480469 11.5 9.449219 11.519531 9.410156 C 11.535156 9.378906 11.558594 9.132812 11.574219 8.859375 C 11.605469 8.335938 11.621094 8.253906 11.730469 8.140625 C 11.851562 8.015625 11.917969 8.003906 12.589844 8.011719 L 13.203125 8.019531 L 13.296875 8.082031 C 13.460938 8.191406 13.484375 8.257812 13.519531 8.84375 C 13.539062 9.125 13.558594 9.375 13.566406 9.402344 C 13.574219 9.441406 13.625 9.46875 13.789062 9.527344 C 13.90625 9.566406 14.09375 9.644531 14.203125 9.703125 C 14.316406 9.757812 14.414062 9.804688 14.425781 9.804688 C 14.4375 9.804688 14.617188 9.648438 14.824219 9.457031 C 15.03125 9.265625 15.242188 9.089844 15.289062 9.066406 C 15.398438 9.007812 15.5625 9.007812 15.683594 9.066406 C 15.742188 9.09375 15.9375 9.273438 16.183594 9.523438 C 16.605469 9.949219 16.640625 9.996094 16.640625 10.191406 C 16.640625 10.328125 16.582031 10.417969 16.21875 10.816406 C 16.019531 11.03125 15.859375 11.21875 15.859375 11.230469 C 15.859375 11.238281 15.910156 11.355469 15.972656 11.488281 C 16.035156 11.617188 16.109375 11.804688 16.140625 11.894531 C 16.175781 12.011719 16.207031 12.074219 16.238281 12.085938 C 16.261719 12.097656 16.519531 12.121094 16.804688 12.136719 C 17.371094 12.171875 17.460938 12.195312 17.558594 12.332031 C 17.648438 12.457031 17.65625 12.550781 17.648438 13.167969 L 17.640625 13.761719 L 17.574219 13.859375 C 17.449219 14.035156 17.417969 14.042969 16.789062 14.085938 C 16.480469 14.105469 16.222656 14.128906 16.21875 14.132812 C 16.210938 14.140625 16.171875 14.238281 16.132812 14.351562 C 16.09375 14.464844 16.015625 14.648438 15.957031 14.761719 C 15.902344 14.875 15.859375 14.980469 15.863281 14.996094 C 15.867188 15.011719 16.019531 15.191406 16.203125 15.390625 C 16.386719 15.589844 16.5625 15.800781 16.589844 15.855469 C 16.648438 15.976562 16.65625 16.101562 16.605469 16.222656 C 16.5625 16.328125 15.8125 17.085938 15.691406 17.152344 C 15.589844 17.203125 15.40625 17.210938 15.300781 17.164062 C 15.257812 17.144531 15.054688 16.972656 14.84375 16.78125 C 14.636719 16.589844 14.449219 16.433594 14.429688 16.433594 C 14.40625 16.433594 14.289062 16.480469 14.167969 16.539062 C 14.042969 16.597656 13.859375 16.671875 13.761719 16.703125 C 13.621094 16.75 13.574219 16.777344 13.566406 16.8125 C 13.558594 16.839844 13.539062 17.09375 13.519531 17.375 C 13.480469 17.992188 13.457031 18.0625 13.238281 18.171875 C 13.175781 18.203125 13.074219 18.207031 12.550781 18.207031 C 12.085938 18.207031 11.914062 18.199219 11.863281 18.175781 Z M 12.773438 15.421875 C 13.328125 15.363281 13.792969 15.140625 14.191406 14.746094 C 14.492188 14.441406 14.6875 14.101562 14.804688 13.675781 C 14.878906 13.410156 14.878906 12.816406 14.804688 12.546875 C 14.578125 11.722656 13.988281 11.117188 13.175781 10.871094 C 12.984375 10.8125 12.933594 10.808594 12.566406 10.808594 C 12.210938 10.804688 12.136719 10.8125 11.96875 10.859375 C 11.109375 11.09375 10.453125 11.78125 10.277344 12.636719 C 10.113281 13.402344 10.351562 14.1875 10.910156 14.75 C 11.203125 15.046875 11.585938 15.261719 11.996094 15.367188 C 12.113281 15.398438 12.28125 15.421875 12.519531 15.441406 C 12.539062 15.441406 12.652344 15.433594 12.773438 15.421875 Z M 12.203125 14.457031 C 11.613281 14.296875 11.203125 13.796875 11.167969 13.199219 C 11.140625 12.78125 11.277344 12.425781 11.574219 12.128906 C 12.117188 11.589844 12.980469 11.585938 13.515625 12.117188 C 13.957031 12.554688 14.0625 13.179688 13.789062 13.730469 C 13.554688 14.195312 13.125 14.472656 12.601562 14.492188 C 12.421875 14.5 12.332031 14.492188 12.203125 14.457031 Z M 12.859375 13.875 C 13.019531 13.816406 13.214844 13.636719 13.296875 13.46875 C 13.351562 13.351562 13.359375 13.3125 13.359375 13.109375 C 13.359375 12.890625 13.355469 12.871094 13.28125 12.730469 C 13.128906 12.453125 12.90625 12.3125 12.589844 12.296875 C 12.335938 12.28125 12.179688 12.335938 11.996094 12.503906 C 11.765625 12.71875 11.671875 13.015625 11.746094 13.304688 C 11.8125 13.558594 11.949219 13.730469 12.179688 13.847656 C 12.394531 13.957031 12.617188 13.964844 12.859375 13.875 Z M 12.859375 13.875 "/>
<path style=" stroke:none;fill-rule:nonzero;fill:rgb(50.196078%,50.196078%,50.196078%);fill-opacity:1;" d="M 14.902344 13.152344 C 14.902344 14.449219 13.851562 15.496094 12.558594 15.496094 C 11.261719 15.496094 10.214844 14.449219 10.214844 13.152344 C 10.214844 11.859375 11.261719 10.808594 12.558594 10.808594 C 13.851562 10.808594 14.902344 11.859375 14.902344 13.152344 Z M 14.902344 13.152344 "/>
</g>
</svg>
