
<svg xmlns="http://www.w3.org/2000/svg" xmlns:xlink="http://www.w3.org/1999/xlink" width="24px" height="24px" viewBox="0 0 24 24" version="1.1">
<g id="surface1">
<path style=" stroke:none;fill-rule:nonzero;fill:rgb(13.72549%,43.137255%,50.588235%);fill-opacity:1;" d="M 3.976562 0.632812 L 20.265625 0.632812 C 22.039062 0.632812 23.476562 2.070312 23.476562 3.84375 L 23.476562 20.132812 C 23.476562 21.90625 22.039062 23.34375 20.265625 23.34375 L 3.976562 23.34375 C 2.199219 23.34375 0.761719 21.90625 0.761719 20.132812 L 0.761719 3.84375 C 0.761719 2.070312 2.199219 0.632812 3.976562 0.632812 Z M 3.976562 0.632812 "/>
<path style=" stroke:none;fill-rule:nonzero;fill:rgb(21.568627%,67.058824%,78.431373%);fill-opacity:1;" d="M 4.527344 1.402344 L 19.710938 1.402344 C 21.363281 1.402344 22.703125 2.742188 22.703125 4.398438 L 22.703125 19.578125 C 22.703125 21.234375 21.363281 22.574219 19.710938 22.574219 L 4.527344 22.574219 C 2.875 22.574219 1.535156 21.234375 1.535156 19.578125 L 1.535156 4.398438 C 1.535156 2.742188 2.875 1.402344 4.527344 1.402344 Z M 4.527344 1.402344 "/>
<path style=" stroke:none;fill-rule:evenodd;fill:rgb(0%,0%,0%);fill-opacity:0.498039;" d="M 4.800781 4.8125 L 4.800781 19.523438 C 9.730469 18.203125 14.921875 18.160156 19.511719 19.523438 L 19.511719 4.8125 C 16.761719 5.546875 7.820312 5.621094 4.800781 4.8125 Z M 6.269531 6.28125 L 18.039062 6.28125 L 18.039062 15.109375 L 15.097656 9.226562 L 11.648438 16.121094 L 9.582031 12.902344 L 6.269531 18.054688 Z M 6.269531 6.28125 "/>
</g>
</svg>
