
<svg xmlns="http://www.w3.org/2000/svg" xmlns:xlink="http://www.w3.org/1999/xlink" width="24px" height="24px" viewBox="0 0 24 24" version="1.1">
<defs>
<clipPath id="clip1">
  <path d="M 2.625 2.765625 L 21.375 2.765625 L 21.375 21.234375 L 2.625 21.234375 Z M 2.625 2.765625 "/>
</clipPath>
<clipPath id="clip2">
  <path d="M 21.335938 12 C 21.335938 17.074219 17.15625 21.191406 12 21.191406 C 6.84375 21.191406 2.664062 17.074219 2.664062 12 C 2.664062 6.925781 6.84375 2.808594 12 2.808594 C 17.15625 2.808594 21.335938 6.925781 21.335938 12 Z M 21.335938 12 "/>
</clipPath>
<clipPath id="clip3">
  <path d="M 9.84375 2.765625 L 21.375 2.765625 L 21.375 20.90625 L 9.84375 20.90625 Z M 9.84375 2.765625 "/>
</clipPath>
<clipPath id="clip4">
  <path d="M 21.335938 12 C 21.335938 17.074219 17.15625 21.191406 12 21.191406 C 6.84375 21.191406 2.664062 17.074219 2.664062 12 C 2.664062 6.925781 6.84375 2.808594 12 2.808594 C 17.15625 2.808594 21.335938 6.925781 21.335938 12 Z M 21.335938 12 "/>
</clipPath>
<clipPath id="clip5">
  <path d="M 6.703125 9.609375 L 14.25 9.609375 L 14.25 18.984375 L 6.703125 18.984375 Z M 6.703125 9.609375 "/>
</clipPath>
<clipPath id="clip6">
  <path d="M 21.335938 12 C 21.335938 17.074219 17.15625 21.191406 12 21.191406 C 6.84375 21.191406 2.664062 17.074219 2.664062 12 C 2.664062 6.925781 6.84375 2.808594 12 2.808594 C 17.15625 2.808594 21.335938 6.925781 21.335938 12 Z M 21.335938 12 "/>
</clipPath>
<clipPath id="clip7">
  <path d="M 7.171875 17.15625 L 10.40625 17.15625 L 10.40625 18.140625 L 7.171875 18.140625 Z M 7.171875 17.15625 "/>
</clipPath>
<clipPath id="clip8">
  <path d="M 21.335938 12 C 21.335938 17.074219 17.15625 21.191406 12 21.191406 C 6.84375 21.191406 2.664062 17.074219 2.664062 12 C 2.664062 6.925781 6.84375 2.808594 12 2.808594 C 17.15625 2.808594 21.335938 6.925781 21.335938 12 Z M 21.335938 12 "/>
</clipPath>
<clipPath id="clip9">
  <path d="M 7.125 14.859375 L 10.265625 14.859375 L 10.265625 15.703125 L 7.125 15.703125 Z M 7.125 14.859375 "/>
</clipPath>
<clipPath id="clip10">
  <path d="M 21.335938 12 C 21.335938 17.074219 17.15625 21.191406 12 21.191406 C 6.84375 21.191406 2.664062 17.074219 2.664062 12 C 2.664062 6.925781 6.84375 2.808594 12 2.808594 C 17.15625 2.808594 21.335938 6.925781 21.335938 12 Z M 21.335938 12 "/>
</clipPath>
<clipPath id="clip11">
  <path d="M 2.625 3.796875 L 7.734375 3.796875 L 7.734375 16.171875 L 2.625 16.171875 Z M 2.625 3.796875 "/>
</clipPath>
<clipPath id="clip12">
  <path d="M 21.335938 12 C 21.335938 17.074219 17.15625 21.191406 12 21.191406 C 6.84375 21.191406 2.664062 17.074219 2.664062 12 C 2.664062 6.925781 6.84375 2.808594 12 2.808594 C 17.15625 2.808594 21.335938 6.925781 21.335938 12 Z M 21.335938 12 "/>
</clipPath>
</defs>
<g id="surface1">
<path style="fill-rule:evenodd;fill:rgb(13.333333%,12.941176%,29.019608%);fill-opacity:1;stroke-width:31.050983;stroke-linecap:butt;stroke-linejoin:miter;stroke:rgb(91.372549%,10.588235%,0%);stroke-opacity:1;stroke-miterlimit:4;" d="M 83.916665 21.243507 L 428.083331 21.243507 C 457.166665 21.243507 480.749998 44.856798 480.749998 73.886757 L 480.749998 446.113465 C 480.749998 475.143424 457.166665 498.756715 428.083331 498.756715 L 83.916665 498.756715 C 54.833331 498.756715 31.249998 475.143424 31.249998 446.113465 L 31.249998 73.886757 C 31.249998 44.856798 54.833331 21.243507 83.916665 21.243507 Z M 83.916665 21.243507 " transform="matrix(0.046875,0,0,0.0461538,0.000000089407,-0.000000440157)"/>
<g clip-path="url(#clip1)" clip-rule="nonzero">
<g clip-path="url(#clip2)" clip-rule="nonzero">
<path style=" stroke:none;fill-rule:nonzero;fill:rgb(91.372549%,10.588235%,0%);fill-opacity:1;" d="M 10.902344 21.210938 C 9.742188 21.011719 9.25 20.886719 8.484375 20.585938 C 6.785156 19.921875 5.214844 18.6875 4.1875 17.199219 C 3.925781 16.820312 3.621094 16.296875 3.621094 16.226562 C 3.621094 16.1875 3.5625 16.039062 3.492188 15.902344 C 3.148438 15.226562 2.875 14.359375 2.710938 13.433594 C 2.617188 12.902344 2.605469 12.757812 2.609375 11.972656 C 2.609375 11.203125 2.621094 11.035156 2.710938 10.53125 C 3.164062 8.03125 4.511719 5.90625 6.546875 4.488281 C 6.902344 4.242188 7.589844 3.824219 7.972656 3.625 C 8.425781 3.394531 9.523438 3.015625 9.746094 3.015625 C 9.808594 3.015625 9.984375 2.988281 10.136719 2.957031 C 10.890625 2.796875 12.191406 2.738281 13.011719 2.828125 C 15.101562 3.054688 17.140625 4.027344 18.644531 5.511719 C 20.035156 6.886719 20.914062 8.59375 21.269531 10.613281 C 21.390625 11.320312 21.390625 12.660156 21.269531 13.371094 C 21.015625 14.796875 20.578125 15.914062 19.820312 17.046875 C 18.734375 18.671875 17.21875 19.867188 15.328125 20.601562 C 15.082031 20.695312 14.796875 20.792969 14.691406 20.820312 C 14.585938 20.84375 14.441406 20.898438 14.367188 20.933594 C 14.292969 20.972656 14 21.046875 13.710938 21.105469 C 13.230469 21.199219 13.113281 21.207031 12.09375 21.214844 C 11.492188 21.222656 10.953125 21.21875 10.902344 21.210938 Z M 10.902344 21.210938 "/>
</g>
</g>
<g clip-path="url(#clip3)" clip-rule="nonzero">
<g clip-path="url(#clip4)" clip-rule="nonzero">
<path style=" stroke:none;fill-rule:nonzero;fill:rgb(13.333333%,12.941176%,29.019608%);fill-opacity:1;" d="M 14.664062 20.574219 C 14.851562 20.226562 15.023438 19.742188 15.085938 19.398438 C 15.160156 18.980469 15.109375 18.25 14.984375 17.867188 C 14.765625 17.1875 14.371094 16.519531 13.59375 15.507812 C 12.882812 14.582031 12.695312 14.125 12.695312 13.335938 C 12.695312 12.851562 12.765625 12.511719 13 11.886719 C 13.207031 11.328125 13.265625 11.085938 13.296875 10.683594 C 13.375 9.53125 12.828125 8.789062 12.023438 8.953125 C 11.652344 9.03125 11.519531 9.191406 11.207031 9.953125 C 11.082031 10.265625 10.964844 10.410156 10.757812 10.515625 C 10.5625 10.613281 10.222656 10.644531 10.007812 10.589844 L 9.84375 10.542969 L 9.84375 6.773438 C 9.84375 4.699219 9.851562 3 9.859375 3 C 9.871094 3 10.003906 2.976562 10.160156 2.941406 C 10.910156 2.785156 12.210938 2.726562 13.03125 2.816406 C 15.121094 3.042969 17.160156 4.015625 18.664062 5.5 C 20.054688 6.878906 20.933594 8.585938 21.289062 10.609375 C 21.414062 11.316406 21.414062 12.660156 21.289062 13.367188 C 21.039062 14.796875 20.597656 15.914062 19.839844 17.050781 C 19.128906 18.113281 18.300781 18.9375 17.207031 19.660156 C 16.527344 20.109375 15.140625 20.753906 14.648438 20.84375 L 14.511719 20.867188 Z M 14.664062 20.574219 "/>
</g>
</g>
<g clip-path="url(#clip5)" clip-rule="nonzero">
<g clip-path="url(#clip6)" clip-rule="nonzero">
<path style=" stroke:none;fill-rule:nonzero;fill:rgb(13.333333%,12.941176%,29.019608%);fill-opacity:1;" d="M 13.179688 18.925781 C 13.035156 18.863281 12.863281 18.65625 12.566406 18.191406 C 11.949219 17.210938 11.199219 16.546875 10.410156 16.28125 C 9.972656 16.132812 9.664062 16.097656 8.691406 16.097656 C 7.765625 16.097656 7.539062 16.066406 7.234375 15.917969 C 7.0625 15.828125 7.007812 15.773438 6.902344 15.589844 C 6.832031 15.464844 6.757812 15.257812 6.730469 15.128906 C 6.671875 14.8125 6.746094 14.390625 7.027344 13.480469 C 7.351562 12.429688 7.355469 12.050781 7.039062 11.363281 C 6.8125 10.859375 6.84375 10.59375 7.136719 10.539062 C 7.273438 10.511719 7.640625 10.578125 7.722656 10.644531 C 7.757812 10.671875 7.773438 10.84375 7.773438 11.261719 C 7.773438 11.691406 7.785156 11.851562 7.820312 11.882812 C 7.964844 12 9.292969 12.03125 9.65625 11.925781 C 9.832031 11.875 9.851562 11.839844 9.851562 11.535156 L 9.851562 11.277344 L 10.09375 11.300781 C 10.550781 11.347656 11.058594 11.199219 11.378906 10.925781 C 11.609375 10.730469 11.839844 10.367188 11.929688 10.070312 C 12.023438 9.765625 12.191406 9.582031 12.332031 9.636719 C 12.640625 9.75 12.5625 10.667969 12.144531 11.933594 C 11.847656 12.824219 11.832031 13.472656 12.09375 14.277344 C 12.21875 14.660156 12.367188 14.925781 12.875 15.660156 C 13.425781 16.460938 13.839844 17.125 14.058594 17.570312 C 14.25 17.957031 14.296875 18.339844 14.1875 18.570312 C 14.035156 18.878906 13.507812 19.066406 13.179688 18.925781 Z M 13.179688 18.925781 "/>
</g>
</g>
<g clip-path="url(#clip7)" clip-rule="nonzero">
<g clip-path="url(#clip8)" clip-rule="nonzero">
<path style=" stroke:none;fill-rule:nonzero;fill:rgb(13.333333%,12.941176%,29.019608%);fill-opacity:1;" d="M 10.121094 18.058594 C 10.367188 17.941406 10.453125 17.703125 10.332031 17.457031 C 10.195312 17.175781 10.167969 17.171875 8.792969 17.171875 C 7.492188 17.171875 7.457031 17.175781 7.292969 17.382812 C 7.195312 17.507812 7.183594 17.761719 7.273438 17.886719 C 7.308594 17.933594 7.390625 18.007812 7.457031 18.046875 C 7.570312 18.113281 7.664062 18.117188 8.785156 18.117188 C 9.808594 18.117188 10.011719 18.109375 10.121094 18.058594 Z M 10.121094 18.058594 "/>
</g>
</g>
<g clip-path="url(#clip9)" clip-rule="nonzero">
<g clip-path="url(#clip10)" clip-rule="nonzero">
<path style=" stroke:none;fill-rule:nonzero;fill:rgb(91.372549%,10.588235%,0%);fill-opacity:1;" d="M 7.386719 15.625 C 7.253906 15.574219 7.140625 15.398438 7.140625 15.253906 C 7.140625 15.15625 7.171875 15.09375 7.269531 14.996094 L 7.402344 14.867188 L 9.984375 14.867188 L 10.101562 14.964844 C 10.246094 15.085938 10.289062 15.269531 10.203125 15.429688 C 10.085938 15.65625 10.042969 15.664062 8.691406 15.660156 C 8.015625 15.660156 7.429688 15.644531 7.386719 15.625 Z M 7.386719 15.625 "/>
</g>
</g>
<g clip-path="url(#clip11)" clip-rule="nonzero">
<g clip-path="url(#clip12)" clip-rule="nonzero">
<path style=" stroke:none;fill-rule:nonzero;fill:rgb(13.333333%,12.941176%,29.019608%);fill-opacity:1;" d="M 3.417969 15.796875 C 3.074219 15.070312 2.839844 14.296875 2.679688 13.375 C 2.605469 12.941406 2.59375 12.730469 2.59375 11.992188 C 2.59375 11.21875 2.605469 11.054688 2.699219 10.550781 C 3.148438 8.058594 4.476562 5.949219 6.496094 4.523438 C 6.867188 4.257812 7.609375 3.820312 7.679688 3.820312 C 7.71875 3.820312 7.726562 4.421875 7.71875 6.878906 L 7.710938 9.941406 L 7.527344 9.953125 C 7.171875 9.976562 6.71875 9.691406 6.535156 9.328125 C 6.453125 9.167969 6.4375 9.074219 6.414062 8.574219 C 6.398438 8.226562 6.363281 7.914062 6.324219 7.785156 C 6.214844 7.414062 5.863281 7.121094 5.449219 7.0625 C 4.964844 6.988281 4.480469 7.339844 4.144531 8.003906 C 3.734375 8.828125 3.664062 9.625 3.917969 10.613281 C 3.960938 10.773438 4.089844 11.191406 4.207031 11.542969 C 4.703125 13.019531 4.75 13.527344 4.472656 14.378906 C 4.378906 14.671875 3.65625 16.140625 3.605469 16.140625 C 3.59375 16.140625 3.507812 15.988281 3.417969 15.796875 Z M 3.417969 15.796875 "/>
</g>
</g>
<path style=" stroke:none;fill-rule:evenodd;fill:rgb(91.372549%,10.588235%,0%);fill-opacity:1;" d="M 7.691406 4.097656 L 7.691406 1.308594 L 9.800781 1.308594 L 9.847656 3.136719 L 8.578125 4.707031 Z M 7.691406 4.097656 "/>
<path style=" stroke:none;fill-rule:evenodd;fill:rgb(91.372549%,10.588235%,0%);fill-opacity:1;" d="M 3.644531 16.097656 L 2.476562 18.8125 C 1.640625 20.75 4.566406 22.148438 6.945312 22.160156 C 6.945312 22.160156 11.683594 22.269531 13.585938 22.160156 C 14.128906 22.128906 14.523438 20.839844 14.523438 20.839844 C 10.578125 20.136719 6.6875 19.28125 3.644531 16.097656 Z M 3.644531 16.097656 "/>
</g>
</svg>
