
<svg xmlns="http://www.w3.org/2000/svg" xmlns:xlink="http://www.w3.org/1999/xlink" width="24px" height="24px" viewBox="0 0 24 24" version="1.1">
<g id="surface1">
<path style="fill-rule:evenodd;fill:rgb(80.392157%,29.019608%,28.627451%);fill-opacity:1;stroke-width:20.4;stroke-linecap:butt;stroke-linejoin:miter;stroke:rgb(100%,54.901961%,0%);stroke-opacity:1;stroke-miterlimit:4;" d="M 80.16929 21.412769 L 446.474718 21.412769 C 476.921991 21.412769 501.655069 46.12632 501.655069 76.679717 L 501.655069 442.981944 C 501.655069 473.450706 476.921991 498.164257 446.474718 498.164257 L 80.16929 498.164257 C 49.636731 498.164257 24.903652 473.450706 24.903652 442.981944 L 24.903652 76.679717 C 24.903652 46.12632 49.636731 21.412769 80.16929 21.412769 Z M 80.16929 21.412769 " transform="matrix(0.0458015,0,0,0.0461538,0,0)"/>
<path style="fill-rule:nonzero;fill:rgb(100%,100%,100%);fill-opacity:1;stroke-width:3;stroke-linecap:round;stroke-linejoin:miter;stroke:rgb(97.647059%,97.647059%,97.647059%);stroke-opacity:1;stroke-miterlimit:4;" d="M 198.546923 452.884291 C 166.052775 434.179857 125.456411 410.820473 108.399115 401.002761 C 91.341819 391.269684 74.284523 380.351711 70.531918 376.797022 L 63.794286 370.449363 L 64.220719 259.576924 L 64.647151 148.789121 L 69.337907 144.218806 C 77.013691 136.686251 254.409567 34.78517 261.317772 34.023451 C 266.69082 33.431003 274.622462 37.662775 358.288498 86.158888 C 409.11924 115.612024 452.018339 141.425836 455.259225 144.641984 L 461.143992 150.312559 L 461.058705 250.35166 C 460.973419 305.449338 460.4617 355.722795 459.779408 362.070454 C 458.75597 372.480614 458.158965 374.004052 453.638782 377.728012 C 449.203885 381.451972 293.385488 472.350445 273.599025 482.760605 C 269.334701 485.045762 264.046939 486.823107 261.82949 486.823107 C 259.356183 486.823107 234.623104 473.535341 198.546923 452.884291 Z M 272.405014 461.601743 C 306.775465 442.30486 435.984481 367.402487 438.201929 365.540507 C 440.675237 363.424621 440.931096 356.399879 440.84581 259.492289 L 440.84581 155.729227 L 431.123151 150.143288 C 425.83539 147.096412 387.030042 124.752653 345.069094 100.462279 C 303.108146 76.171905 266.946679 55.60549 264.729231 54.759136 C 261.232485 53.404969 255.433005 56.36721 211.766327 81.673209 C 184.8158 97.246132 145.157587 120.266974 123.665395 132.62375 L 84.604187 155.221415 L 83.580749 259.069112 C 82.727885 341.673311 82.898458 363.170715 84.433614 364.609517 C 86.395203 366.386862 218.077527 442.728038 246.136778 458.30096 C 254.238994 462.871275 261.573631 466.595234 262.341209 466.595234 C 263.023501 466.595234 267.628971 464.310077 272.405014 461.601743 Z M 272.405014 461.601743 " transform="matrix(0.0458015,0,0,0.0461538,0,0)"/>
<path style="fill-rule:nonzero;fill:rgb(100%,54.901961%,0%);fill-opacity:1;stroke-width:4;stroke-linecap:butt;stroke-linejoin:miter;stroke:rgb(100%,54.901961%,0%);stroke-opacity:1;stroke-miterlimit:4;" d="M 218.077527 355.299618 L 218.077527 347.513157 L 306.860751 347.513157 L 306.860751 363.086079 L 218.077527 363.086079 Z M 218.077527 355.299618 " transform="matrix(0.0458015,0,0,0.0461538,0,0)"/>
<path style=" stroke:none;fill-rule:nonzero;fill:rgb(80%,80%,80%);fill-opacity:1;" d="M 10.582031 15.125 C 11.164062 15.109375 12.09375 15.109375 12.652344 15.125 C 13.207031 15.136719 12.734375 15.144531 11.59375 15.144531 C 10.457031 15.144531 10 15.136719 10.582031 15.125 Z M 10.582031 15.125 "/>
<path style="fill-rule:nonzero;fill:rgb(100%,54.901961%,0%);fill-opacity:1;stroke-width:4;stroke-linecap:butt;stroke-linejoin:miter;stroke:rgb(100%,54.901961%,0%);stroke-opacity:1;stroke-miterlimit:4;" d="M 263.79108 129.407603 C 245.198627 129.407603 233.002661 132.031302 218.930392 138.971408 C 180.892622 157.845114 159.997435 197.369869 165.029337 241.041761 C 167.673218 264.147239 175.093141 277.604275 201.873096 308.242308 L 218.418673 327.285284 L 263.108788 327.200649 L 307.713616 327.116013 L 325.623777 306.211057 C 345.751386 282.851673 356.241623 264.824322 359.567795 247.812597 C 369.37574 198.47013 341.231202 149.889381 293.641347 133.893281 C 282.298245 130.084686 277.778062 129.407603 263.79108 129.407603 Z M 264.302798 145.572974 C 290.315174 145.82688 315.559972 159.114645 330.485106 181.204498 C 340.037192 195.253983 343.192791 205.325601 343.96037 224.791754 C 345.069094 252.721453 339.440186 265.41677 312.319086 296.054803 L 299.86726 310.019652 L 225.071018 310.019652 L 211.169322 293.769646 C 185.412805 263.724061 181.489627 254.837339 181.574914 226.823005 C 181.6602 211.334718 182.257206 206.595133 185.071659 199.40112 C 190.785853 184.928458 200.849658 171.471421 212.533906 162.669334 C 225.412164 152.936258 236.499406 148.450579 253.13027 146.250057 C 256.882875 145.742244 260.63548 145.488338 264.302798 145.572974 Z M 288.183013 383.313952 L 237.522844 384.160306 L 237.096412 392.369945 L 236.669979 400.494948 L 288.183013 400.494948 Z M 288.183013 383.313952 " transform="matrix(0.0458015,0,0,0.0461538,0,0)"/>
</g>
</svg>
