
<svg xmlns="http://www.w3.org/2000/svg" xmlns:xlink="http://www.w3.org/1999/xlink" width="24px" height="24px" viewBox="0 0 24 24" version="1.1">
<g id="surface1">
<path style="fill-rule:nonzero;fill:rgb(8.627451%,62.745098%,52.156863%);fill-opacity:1;stroke-width:1.793082;stroke-linecap:butt;stroke-linejoin:miter;stroke:rgb(5.098039%,37.254902%,30.980392%);stroke-opacity:1;stroke-miterlimit:4;" d="M 7.023437 1006.823106 L 40.976561 1006.823106 C 43.499999 1006.823106 45.539061 1008.862168 45.539061 1011.385606 L 45.539061 1045.33873 C 45.539061 1047.862167 43.499999 1049.90123 40.976561 1049.90123 L 7.023437 1049.90123 C 4.5 1049.90123 2.460937 1047.862167 2.460937 1045.33873 L 2.460937 1011.385606 C 2.460937 1008.862168 4.5 1006.823106 7.023437 1006.823106 Z M 7.023437 1006.823106 " transform="matrix(0.5,0,0,0.5,0,-502.1811)"/>
<path style="fill:none;stroke-width:1.5;stroke-linecap:butt;stroke-linejoin:miter;stroke:rgb(92.54902%,94.117647%,94.509804%);stroke-opacity:1;stroke-miterlimit:4;" d="M 38.046874 1028.362168 C 38.046874 1036.11998 31.757812 1042.409042 23.999999 1042.409042 C 16.242187 1042.409042 9.953125 1036.11998 9.953125 1028.362168 C 9.953125 1020.604356 16.242187 1014.315293 23.999999 1014.315293 C 31.757812 1014.315293 38.046874 1020.604356 38.046874 1028.362168 Z M 38.046874 1028.362168 " transform="matrix(0.5,0,0,0.5,0,-502.1811)"/>
<path style=" stroke:none;fill-rule:nonzero;fill:rgb(100%,100%,100%);fill-opacity:1;" d="M 14.125 13.3125 C 14.125 13.609375 14.074219 13.882812 13.964844 14.125 C 13.859375 14.367188 13.707031 14.578125 13.507812 14.753906 C 13.3125 14.933594 13.070312 15.082031 12.789062 15.199219 C 12.503906 15.316406 12.183594 15.402344 11.828125 15.453125 L 11.828125 16.921875 L 10.945312 16.921875 L 10.945312 15.507812 C 10.734375 15.507812 10.519531 15.5 10.300781 15.480469 C 10.082031 15.460938 9.875 15.433594 9.667969 15.394531 C 9.464844 15.355469 9.273438 15.308594 9.09375 15.253906 C 8.914062 15.199219 8.757812 15.132812 8.621094 15.0625 L 8.621094 13.964844 C 8.761719 14.03125 8.925781 14.101562 9.109375 14.171875 C 9.296875 14.242188 9.488281 14.304688 9.695312 14.359375 C 9.898438 14.414062 10.109375 14.460938 10.324219 14.496094 C 10.539062 14.535156 10.746094 14.550781 10.945312 14.550781 L 10.945312 11.78125 C 10.566406 11.652344 10.238281 11.519531 9.960938 11.378906 C 9.679688 11.238281 9.449219 11.078125 9.265625 10.894531 C 9.082031 10.714844 8.945312 10.507812 8.859375 10.273438 C 8.769531 10.039062 8.722656 9.765625 8.722656 9.449219 C 8.722656 9.164062 8.777344 8.902344 8.878906 8.667969 C 8.984375 8.429688 9.132812 8.222656 9.328125 8.046875 C 9.519531 7.871094 9.753906 7.726562 10.03125 7.613281 C 10.304688 7.5 10.609375 7.425781 10.945312 7.386719 L 10.945312 6.238281 L 11.828125 6.238281 L 11.828125 7.359375 C 12.253906 7.382812 12.644531 7.4375 13.003906 7.527344 C 13.367188 7.617188 13.6875 7.726562 13.972656 7.859375 L 13.550781 8.785156 C 13.3125 8.679688 13.042969 8.582031 12.746094 8.496094 C 12.449219 8.40625 12.140625 8.351562 11.828125 8.324219 L 11.828125 11.019531 C 12.203125 11.152344 12.53125 11.289062 12.820312 11.429688 C 13.109375 11.570312 13.347656 11.726562 13.542969 11.90625 C 13.734375 12.082031 13.882812 12.285156 13.980469 12.511719 C 14.078125 12.738281 14.125 13.007812 14.125 13.3125 Z M 13 13.3125 C 13 13.171875 12.980469 13.042969 12.9375 12.925781 C 12.894531 12.808594 12.828125 12.703125 12.738281 12.605469 C 12.644531 12.511719 12.523438 12.421875 12.375 12.34375 C 12.226562 12.261719 12.042969 12.183594 11.828125 12.105469 L 11.828125 14.488281 C 12.222656 14.429688 12.519531 14.292969 12.710938 14.085938 C 12.90625 13.875 13 13.617188 13 13.3125 Z M 9.847656 9.460938 C 9.847656 9.613281 9.863281 9.753906 9.902344 9.875 C 9.9375 9.996094 10 10.105469 10.082031 10.207031 C 10.167969 10.304688 10.28125 10.398438 10.421875 10.476562 C 10.5625 10.558594 10.738281 10.632812 10.945312 10.707031 L 10.945312 8.351562 C 10.566406 8.417969 10.289062 8.546875 10.113281 8.738281 C 9.933594 8.925781 9.847656 9.167969 9.847656 9.460938 Z M 9.847656 9.460938 "/>
</g>
</svg>
