
<svg xmlns="http://www.w3.org/2000/svg" xmlns:xlink="http://www.w3.org/1999/xlink" width="24px" height="24px" viewBox="0 0 24 24" version="1.1">
<g id="surface1">
<path style="fill-rule:nonzero;fill:rgb(100%,100%,100%);fill-opacity:1;stroke-width:28.191782;stroke-linecap:butt;stroke-linejoin:miter;stroke:rgb(20.392157%,28.627451%,36.862745%);stroke-opacity:1;stroke-miterlimit:4;" d="M 81.5 25.083333 L 430.5 25.083333 C 461.666667 25.083333 486.916667 50.333333 486.916667 81.5 L 486.916667 430.5 C 486.916667 461.666667 461.666667 486.916667 430.5 486.916667 L 81.5 486.916667 C 50.333333 486.916667 25.083333 461.666667 25.083333 430.5 L 25.083333 81.5 C 25.083333 50.333333 50.333333 25.083333 81.5 25.083333 Z M 81.5 25.083333 " transform="matrix(0.046875,0,0,0.046875,0,0)"/>
<path style=" stroke:none;fill-rule:evenodd;fill:rgb(76.862745%,79.607843%,81.176471%);fill-opacity:1;" d="M 17.4375 11.714844 L 19.226562 9.433594 L 21.09375 11.539062 L 19.304688 13.820312 Z M 17.4375 11.714844 "/>
<path style=" stroke:none;fill-rule:evenodd;fill:rgb(97.647059%,87.058824%,41.176471%);fill-opacity:1;" d="M 13.816406 9.925781 L 18.421875 9.925781 L 18.421875 13.328125 L 13.816406 13.328125 Z M 13.816406 9.925781 "/>
<path style=" stroke:none;fill-rule:evenodd;fill:rgb(76.862745%,79.607843%,81.176471%);fill-opacity:1;" d="M 6.820312 9.285156 L 13.828125 9.285156 L 13.828125 13.96875 L 6.820312 13.96875 Z M 6.820312 9.285156 "/>
<path style=" stroke:none;fill-rule:evenodd;fill:rgb(76.862745%,79.607843%,81.176471%);fill-opacity:1;" d="M 15.15625 9.285156 L 17.09375 9.285156 L 17.09375 13.96875 L 15.15625 13.96875 Z M 15.15625 9.285156 "/>
<path style=" stroke:none;fill-rule:evenodd;fill:rgb(20.392157%,28.627451%,36.862745%);fill-opacity:1;" d="M 2.621094 8.214844 L 6.867188 8.214844 L 6.867188 15.234375 L 2.621094 15.234375 Z M 2.621094 8.214844 "/>
</g>
</svg>
