
<svg xmlns="http://www.w3.org/2000/svg" xmlns:xlink="http://www.w3.org/1999/xlink" width="24px" height="24px" viewBox="0 0 24 24" version="1.1">
<g id="surface1">
<path style="fill-rule:nonzero;fill:rgb(100%,100%,100%);fill-opacity:1;stroke-width:27.910587;stroke-linecap:butt;stroke-linejoin:miter;stroke:rgb(85.882353%,69.019608%,20.784314%);stroke-opacity:1;stroke-miterlimit:4;" d="M 83.25 27.416667 L 428.75 27.416667 C 459.583333 27.416667 484.583333 52.416667 484.583333 83.25 L 484.583333 428.75 C 484.583333 459.583333 459.583333 484.583333 428.75 484.583333 L 83.25 484.583333 C 52.416667 484.583333 27.416667 459.583333 27.416667 428.75 L 27.416667 83.25 C 27.416667 52.416667 52.416667 27.416667 83.25 27.416667 Z M 83.25 27.416667 " transform="matrix(0.046875,0,0,0.046875,0,0)"/>
<path style=" stroke:none;fill-rule:nonzero;fill:rgb(100%,78.431373%,19.215686%);fill-opacity:1;" d="M 4.292969 1.941406 C 3.355469 1.949219 2.640625 2.925781 2.777344 3.882812 C 2.78125 9.445312 2.769531 15.011719 2.785156 20.574219 C 2.851562 21.515625 3.75 22.1875 4.617188 22.058594 C 9.96875 22.054688 15.316406 22.070312 20.667969 22.050781 C 21.5625 21.980469 22.195312 21.03125 22.078125 20.117188 C 22.078125 16.707031 22.078125 13.296875 22.078125 9.882812 C 21.714844 9.035156 20.84375 8.515625 20.28125 7.800781 C 18.441406 5.886719 16.613281 3.957031 14.761719 2.058594 C 14.246094 1.824219 13.648438 1.988281 13.097656 1.941406 C 10.160156 1.941406 7.226562 1.941406 4.292969 1.941406 Z M 16.867188 1.941406 C 16.511719 1.96875 16.492188 2.488281 16.785156 2.636719 C 18.394531 4.300781 19.976562 5.992188 21.601562 7.636719 C 21.914062 7.8125 22.171875 7.414062 22.078125 7.109375 C 22.054688 5.828125 22.121094 4.539062 22.042969 3.265625 C 21.898438 2.367188 21.003906 1.816406 20.179688 1.941406 C 19.074219 1.941406 17.972656 1.941406 16.867188 1.941406 Z M 16.867188 1.941406 "/>
<path style=" stroke:none;fill-rule:nonzero;fill:rgb(85.882353%,69.019608%,20.784314%);fill-opacity:1;" d="M 1.726562 1.488281 L 5.582031 1.488281 L 5.582031 22.265625 L 1.726562 22.265625 Z M 1.726562 1.488281 "/>
<path style=" stroke:none;fill-rule:nonzero;fill:rgb(100%,100%,100%);fill-opacity:1;" d="M 11.421875 8.871094 L 8.46875 8.871094 L 8.46875 9.347656 L 9.152344 9.417969 L 9.355469 9.585938 L 9.355469 16.171875 L 9.152344 16.339844 L 8.46875 16.398438 L 8.46875 16.886719 L 11.421875 16.886719 C 12.617188 16.886719 13.523438 16.757812 14.335938 16.148438 C 15.316406 15.40625 15.828125 14.292969 15.828125 12.871094 C 15.828125 10.363281 14.253906 8.871094 11.421875 8.871094 Z M 10.429688 9.417969 L 11.371094 9.417969 C 13.558594 9.417969 14.625 10.542969 14.625 12.871094 C 14.625 15.191406 13.558594 16.339844 11.371094 16.339844 L 10.429688 16.339844 Z M 10.429688 9.417969 "/>
</g>
</svg>
