
<svg xmlns="http://www.w3.org/2000/svg" xmlns:xlink="http://www.w3.org/1999/xlink" width="24px" height="24px" viewBox="0 0 24 24" version="1.1">
<g id="surface1">
<path style=" stroke:none;fill-rule:evenodd;fill:rgb(20.392157%,28.627451%,36.862745%);fill-opacity:1;" d="M 3.921875 1.21875 L 20.078125 1.21875 C 21.511719 1.21875 22.679688 2.386719 22.679688 3.820312 L 22.679688 20.382812 C 22.679688 21.816406 21.511719 22.984375 20.078125 22.984375 L 3.921875 22.984375 C 2.488281 22.984375 1.320312 21.816406 1.320312 20.382812 L 1.320312 3.820312 C 1.320312 2.386719 2.488281 1.21875 3.921875 1.21875 Z M 3.921875 1.21875 "/>
<path style=" stroke:none;fill-rule:evenodd;fill:rgb(60.784314%,34.901961%,71.372549%);fill-opacity:1;" d="M 6.289062 9.558594 L 17.675781 9.558594 C 19.023438 9.558594 20.117188 10.652344 20.117188 12 C 20.117188 13.347656 19.023438 14.441406 17.675781 14.441406 L 6.289062 14.441406 C 4.941406 14.441406 3.847656 13.347656 3.847656 12 C 3.847656 10.652344 4.941406 9.558594 6.289062 9.558594 Z M 6.289062 9.558594 "/>
<path style=" stroke:none;fill-rule:nonzero;fill:rgb(100%,100%,100%);fill-opacity:1;" d="M 20.6875 12.046875 C 20.6875 13.730469 19.34375 15.097656 17.683594 15.097656 C 16.027344 15.097656 14.683594 13.730469 14.683594 12.046875 C 14.683594 10.359375 16.027344 8.996094 17.683594 8.996094 C 19.34375 8.996094 20.6875 10.359375 20.6875 12.046875 Z M 20.6875 12.046875 "/>
</g>
</svg>
