<!-- Generator: Adobe Illustrator 16.0.0, SVG Export Plug-In . SVG Version: 6.00 Build 0)  -->
<svg xmlns="http://www.w3.org/2000/svg" xmlns:xlink="http://www.w3.org/1999/xlink" width="24px" height="24px" viewBox="0 0 24 24" version="1.1">
<g id="surface1">
<path style="fill-rule:nonzero;fill:rgb(0%,41.568627%,72.54902%);fill-opacity:1;stroke-width:28.191782;stroke-linecap:butt;stroke-linejoin:miter;stroke:rgb(38.039216%,64.705882%,84.313725%);stroke-opacity:1;stroke-miterlimit:4;" d="M 81.5 25.083333 L 430.5 25.083333 C 461.666667 25.083333 486.916667 50.333333 486.916667 81.5 L 486.916667 430.5 C 486.916667 461.666667 461.666667 486.916667 430.5 486.916667 L 81.5 486.916667 C 50.333333 486.916667 25.083333 461.666667 25.083333 430.5 L 25.083333 81.5 C 25.083333 50.333333 50.333333 25.083333 81.5 25.083333 Z M 81.5 25.083333 " transform="matrix(0.046875,0,0,0.046875,0,0)"/>
<path style=" stroke:none;fill-rule:evenodd;fill:rgb(100%,100%,100%);fill-opacity:1;" d="M 15.421875 6.410156 C 14.949219 6.855469 13.855469 7.792969 13.855469 7.792969 L 16.414062 10.371094 C 16.414062 10.371094 17.523438 9.234375 18.023438 8.761719 C 18.148438 8.644531 18.132812 8.378906 18.007812 8.261719 C 17.621094 7.898438 16.976562 7.300781 16.976562 7.300781 C 16.976562 7.300781 16.371094 6.726562 15.996094 6.375 C 15.859375 6.246094 15.554688 6.28125 15.421875 6.410156 Z M 12.730469 8.714844 L 5.890625 15.15625 L 5.949219 17.707031 L 8.621094 17.691406 L 15.386719 11.304688 Z M 12.730469 8.714844 "/>
<path style=" stroke:none;fill-rule:nonzero;fill:rgb(100%,100%,100%);fill-opacity:1;" d="M 13.304688 16.917969 L 12.90625 16.917969 L 12.90625 19.210938 L 13.476562 19.210938 L 13.476562 17.46875 C 13.726562 17.367188 13.917969 17.34375 14.023438 17.34375 C 14.390625 17.34375 14.4375 17.636719 14.4375 17.808594 L 14.4375 19.210938 L 15.007812 19.210938 L 15.007812 17.90625 C 15.007812 17.507812 14.96875 16.875 14.175781 16.875 C 13.859375 16.875 13.5625 17 13.378906 17.074219 Z M 13.304688 16.917969 "/>
<path style=" stroke:none;fill-rule:nonzero;fill:rgb(100%,100%,100%);fill-opacity:1;" d="M 17.210938 17.0625 C 17.054688 16.976562 16.804688 16.871094 16.527344 16.871094 C 16.085938 16.871094 15.433594 17.136719 15.433594 18.066406 C 15.433594 18.800781 15.855469 19.257812 16.605469 19.257812 C 16.804688 19.257812 16.945312 19.222656 17.101562 19.140625 L 17.101562 20.445312 L 17.675781 20.445312 L 17.675781 16.917969 L 17.273438 16.917969 Z M 16.683594 17.332031 C 16.808594 17.332031 16.945312 17.351562 17.097656 17.410156 L 17.097656 18.707031 C 16.992188 18.769531 16.867188 18.820312 16.703125 18.820312 C 16.324219 18.820312 16.019531 18.636719 16.019531 18.097656 C 16.019531 17.503906 16.304688 17.332031 16.683594 17.332031 Z M 16.683594 17.332031 "/>
<path style=" stroke:none;fill-rule:nonzero;fill:rgb(100%,100%,100%);fill-opacity:1;" d="M 19.90625 17.0625 C 19.75 16.976562 19.496094 16.871094 19.222656 16.871094 C 18.78125 16.871094 18.128906 17.136719 18.128906 18.066406 C 18.128906 18.800781 18.550781 19.257812 19.296875 19.257812 C 19.496094 19.257812 19.640625 19.222656 19.796875 19.140625 L 19.796875 20.445312 L 20.367188 20.445312 L 20.367188 16.917969 L 19.96875 16.917969 Z M 19.378906 17.332031 C 19.503906 17.332031 19.640625 17.351562 19.792969 17.410156 L 19.792969 18.707031 C 19.6875 18.769531 19.558594 18.820312 19.398438 18.820312 C 19.015625 18.820312 18.710938 18.636719 18.710938 18.097656 C 18.710938 17.503906 19 17.332031 19.378906 17.332031 Z M 19.378906 17.332031 "/>
</g>
</svg>
