
<svg xmlns="http://www.w3.org/2000/svg" xmlns:xlink="http://www.w3.org/1999/xlink" width="24px" height="24px" viewBox="0 0 24 24" version="1.1">
<g id="surface1">
<path style="fill-rule:nonzero;fill:rgb(68.235294%,86.27451%,90.980392%);fill-opacity:1;stroke-width:25.925713;stroke-linecap:butt;stroke-linejoin:miter;stroke:rgb(54.509804%,59.215686%,60%);stroke-opacity:1;stroke-miterlimit:4;" d="M 73 32.333333 L 439 32.333333 C 458.666667 32.333333 474.583333 48.25 474.583333 67.916667 L 474.583333 444.083333 C 474.583333 463.75 458.666667 479.666667 439 479.666667 L 73 479.666667 C 53.333333 479.666667 37.416667 463.75 37.416667 444.083333 L 37.416667 67.916667 C 37.416667 48.25 53.333333 32.333333 73 32.333333 Z M 73 32.333333 " transform="matrix(0.046875,0,0,0.046875,0,0)"/>
<path style=" stroke:none;fill-rule:nonzero;fill:rgb(100%,100%,0%);fill-opacity:1;" d="M 10.136719 5.238281 C 6.402344 5.238281 3.378906 8.265625 3.378906 12 C 3.378906 15.734375 6.402344 18.761719 10.136719 18.761719 C 12.65625 18.757812 14.964844 17.359375 16.128906 15.125 L 10.851562 12.167969 L 16.546875 9.867188 C 15.628906 7.105469 13.046875 5.242188 10.136719 5.238281 Z M 10.136719 5.238281 "/>
<path style=" stroke:none;fill-rule:nonzero;fill:rgb(100%,100%,0%);fill-opacity:1;" d="M 17.808594 12.511719 C 17.808594 13.078125 17.347656 13.539062 16.78125 13.539062 C 16.210938 13.539062 15.75 13.078125 15.75 12.511719 C 15.75 11.941406 16.210938 11.480469 16.78125 11.480469 C 17.347656 11.480469 17.808594 11.941406 17.808594 12.511719 Z M 17.808594 12.511719 "/>
<path style=" stroke:none;fill-rule:nonzero;fill:rgb(100%,100%,0%);fill-opacity:1;" d="M 20.554688 12.511719 C 20.554688 13.078125 20.09375 13.539062 19.523438 13.539062 C 18.957031 13.539062 18.496094 13.078125 18.496094 12.511719 C 18.496094 11.941406 18.957031 11.480469 19.523438 11.480469 C 20.09375 11.480469 20.554688 11.941406 20.554688 12.511719 Z M 20.554688 12.511719 "/>
</g>
</svg>
