
<svg xmlns="http://www.w3.org/2000/svg" xmlns:xlink="http://www.w3.org/1999/xlink" width="24px" height="24px" viewBox="0 0 24 24" version="1.1">
<g id="surface1">
<path style="fill-rule:nonzero;fill:rgb(41.176471%,41.176471%,41.176471%);fill-opacity:1;stroke-width:27.746531;stroke-linecap:butt;stroke-linejoin:miter;stroke:rgb(59.607843%,63.137255%,67.45098%);stroke-opacity:1;stroke-miterlimit:4;" d="M 84.249997 30.919492 L 427.749997 30.919492 C 458.416664 30.919492 483.249997 55.752825 483.249997 86.419492 L 483.249997 429.919492 C 483.249997 460.586159 458.416664 485.419492 427.749997 485.419492 L 84.249997 485.419492 C 53.583331 485.419492 28.749997 460.586159 28.749997 429.919492 L 28.749997 86.419492 C 28.749997 55.752825 53.583331 30.919492 84.249997 30.919492 Z M 84.249997 30.919492 " transform="matrix(0.046875,0,0,0.046875,0.000000120683,-0.101695)"/>
<path style=" stroke:none;fill-rule:nonzero;fill:rgb(100%,100%,100%);fill-opacity:1;" d="M 21.101562 12.003906 C 21.101562 7.050781 17.058594 3.039062 12.070312 3.039062 C 7.082031 3.039062 3.039062 7.050781 3.039062 12.003906 C 3.039062 16.957031 7.082031 20.96875 12.070312 20.96875 C 17.058594 20.96875 21.101562 16.957031 21.101562 12.003906 Z M 21.101562 12.003906 "/>
<path style=" stroke:none;fill-rule:nonzero;fill:rgb(41.176471%,41.176471%,41.176471%);fill-opacity:1;" d="M 11.335938 21.703125 C 8.871094 21.445312 6.789062 20.484375 5.152344 18.855469 C 3.433594 17.140625 2.472656 15.015625 2.253906 12.445312 C 2.164062 11.375 2.375 9.9375 2.804688 8.679688 C 3.011719 8.074219 3.53125 7.019531 3.890625 6.484375 C 5.328125 4.339844 7.53125 2.839844 10.027344 2.308594 C 11.503906 1.996094 12.628906 1.996094 14.101562 2.308594 C 16.601562 2.839844 18.804688 4.339844 20.242188 6.484375 C 20.597656 7.019531 21.121094 8.074219 21.328125 8.679688 C 21.757812 9.9375 21.96875 11.375 21.875 12.445312 C 21.6875 14.652344 20.984375 16.457031 19.679688 18.082031 C 18.433594 19.628906 16.625 20.820312 14.71875 21.339844 C 14.285156 21.460938 13.902344 21.539062 13.164062 21.660156 C 12.828125 21.71875 11.710938 21.742188 11.335938 21.703125 Z M 12.65625 17.796875 C 12.671875 17.761719 12.679688 15.613281 12.679688 13.019531 L 12.679688 8.300781 L 12.765625 8.128906 C 12.851562 7.964844 12.863281 7.957031 13.039062 7.945312 C 13.207031 7.933594 13.234375 7.945312 13.371094 8.082031 C 13.480469 8.1875 13.527344 8.28125 13.558594 8.429688 C 13.589844 8.566406 13.605469 9.28125 13.605469 10.609375 L 13.605469 12.589844 L 13.710938 12.644531 C 14.019531 12.804688 14.351562 12.878906 14.757812 12.878906 C 15.136719 12.878906 15.175781 12.871094 15.417969 12.75 C 16.203125 12.367188 16.53125 11.511719 16.445312 10.105469 C 16.335938 8.367188 15.589844 7.53125 13.515625 6.828125 C 12.109375 6.347656 10.214844 5.851562 10.128906 5.941406 C 10.074219 5.992188 10.09375 17.011719 10.148438 17.070312 C 10.1875 17.109375 12.464844 17.847656 12.570312 17.855469 C 12.605469 17.855469 12.644531 17.828125 12.65625 17.796875 Z M 15.257812 16.949219 C 16.34375 16.554688 17.574219 16.113281 17.988281 15.964844 C 18.886719 15.640625 19.285156 15.445312 19.550781 15.1875 C 20.085938 14.660156 19.800781 14.152344 18.742188 13.757812 C 17.132812 13.152344 15.253906 13.109375 13.46875 13.632812 C 13.050781 13.757812 13.066406 13.722656 13.066406 14.496094 C 13.066406 14.859375 13.074219 15.1875 13.089844 15.21875 C 13.101562 15.253906 13.140625 15.28125 13.179688 15.28125 C 13.214844 15.28125 13.816406 15.082031 14.511719 14.835938 C 16.050781 14.292969 16.238281 14.242188 16.707031 14.242188 C 17.28125 14.242188 17.589844 14.359375 17.492188 14.542969 C 17.433594 14.648438 17.203125 14.742188 15.082031 15.492188 C 14.027344 15.867188 13.140625 16.203125 13.113281 16.234375 C 13.078125 16.277344 13.066406 16.484375 13.066406 16.953125 C 13.066406 17.628906 13.085938 17.734375 13.21875 17.683594 C 13.25 17.671875 14.167969 17.339844 15.257812 16.949219 Z M 9.335938 16.433594 C 9.472656 16.410156 9.609375 16.359375 9.632812 16.328125 C 9.683594 16.261719 9.707031 15.234375 9.660156 15.113281 C 9.625 15.019531 9.546875 15.035156 9.027344 15.226562 C 8.238281 15.515625 8.121094 15.550781 7.761719 15.585938 C 7.203125 15.644531 6.683594 15.535156 6.683594 15.359375 C 6.683594 15.210938 6.832031 15.148438 8.914062 14.410156 C 9.261719 14.289062 9.578125 14.15625 9.613281 14.121094 C 9.671875 14.058594 9.683594 13.972656 9.683594 13.421875 C 9.683594 13.074219 9.671875 12.761719 9.660156 12.726562 C 9.628906 12.652344 9.535156 12.652344 9.347656 12.722656 C 9.265625 12.753906 8.414062 13.058594 7.453125 13.398438 C 5.175781 14.203125 4.511719 14.523438 4.371094 14.890625 C 4.320312 15.023438 4.332031 15.273438 4.394531 15.390625 C 4.480469 15.5625 4.789062 15.820312 5.046875 15.9375 C 5.5 16.144531 6.511719 16.398438 7.222656 16.488281 C 7.488281 16.519531 9.09375 16.480469 9.335938 16.433594 Z M 9.335938 16.433594 "/>
</g>
</svg>
