
<svg xmlns="http://www.w3.org/2000/svg" xmlns:xlink="http://www.w3.org/1999/xlink" width="24px" height="24px" viewBox="0 0 24 24" version="1.1">
<g id="surface1">
<path style="fill-rule:nonzero;fill:rgb(98.431373%,94.901961%,94.901961%);fill-opacity:1;stroke-width:25.1982;stroke-linecap:butt;stroke-linejoin:miter;stroke:rgb(0%,34.509804%,41.960784%);stroke-opacity:1;stroke-miterlimit:4;" d="M 78.166667 38.583333 L 433.833333 38.583333 C 453 38.583333 468.5 54.083333 468.5 73.166667 L 468.5 438.833333 C 468.5 457.916667 453 473.416667 433.833333 473.416667 L 78.166667 473.416667 C 59 473.416667 43.5 457.916667 43.5 438.833333 L 43.5 73.166667 C 43.5 54.083333 59 38.583333 78.166667 38.583333 Z M 78.166667 38.583333 " transform="matrix(0.046875,0,0,0.046875,0,0)"/>
<path style=" stroke:none;fill-rule:evenodd;fill:rgb(26.27451%,31.372549%,36.078431%);fill-opacity:1;" d="M 16.957031 3.484375 C 17.683594 3.484375 18.269531 4.152344 18.269531 4.976562 L 18.269531 19.5625 C 18.269531 20.386719 17.683594 21.054688 16.957031 21.054688 C 16.230469 21.054688 15.644531 20.386719 15.644531 19.5625 L 15.644531 4.976562 C 15.644531 4.152344 16.230469 3.484375 16.957031 3.484375 Z M 16.957031 3.484375 "/>
<path style=" stroke:none;fill-rule:evenodd;fill:rgb(26.27451%,31.372549%,36.078431%);fill-opacity:1;" d="M 16.957031 3.953125 C 17.457031 3.953125 17.863281 4.464844 17.863281 5.09375 L 17.863281 19.457031 C 17.863281 20.085938 17.457031 20.597656 16.957031 20.597656 C 16.457031 20.597656 16.054688 20.085938 16.054688 19.457031 L 16.054688 5.09375 C 16.054688 4.464844 16.457031 3.953125 16.957031 3.953125 Z M 16.957031 3.953125 "/>
<path style=" stroke:none;fill-rule:nonzero;fill:rgb(16.470588%,16.470588%,100%);fill-opacity:1;" d="M 19.402344 8.527344 C 19.402344 9.820312 18.355469 10.867188 17.0625 10.867188 C 15.769531 10.867188 14.722656 9.820312 14.722656 8.527344 C 14.722656 7.234375 15.769531 6.1875 17.0625 6.1875 C 18.355469 6.1875 19.402344 7.234375 19.402344 8.527344 Z M 19.402344 8.527344 "/>
<path style=" stroke:none;fill-rule:evenodd;fill:rgb(26.27451%,31.372549%,36.078431%);fill-opacity:1;" d="M 12.085938 3.484375 C 12.8125 3.484375 13.398438 4.152344 13.398438 4.976562 L 13.398438 19.5625 C 13.398438 20.386719 12.8125 21.054688 12.085938 21.054688 C 11.359375 21.054688 10.773438 20.386719 10.773438 19.5625 L 10.773438 4.976562 C 10.773438 4.152344 11.359375 3.484375 12.085938 3.484375 Z M 12.085938 3.484375 "/>
<path style=" stroke:none;fill-rule:evenodd;fill:rgb(26.27451%,31.372549%,36.078431%);fill-opacity:1;" d="M 12.085938 3.953125 C 12.585938 3.953125 12.988281 4.464844 12.988281 5.09375 L 12.988281 19.457031 C 12.988281 20.085938 12.585938 20.597656 12.085938 20.597656 C 11.585938 20.597656 11.179688 20.085938 11.179688 19.457031 L 11.179688 5.09375 C 11.179688 4.464844 11.585938 3.953125 12.085938 3.953125 Z M 12.085938 3.953125 "/>
<path style=" stroke:none;fill-rule:nonzero;fill:rgb(16.470588%,16.470588%,100%);fill-opacity:1;" d="M 14.390625 13.640625 C 14.390625 14.933594 13.34375 15.984375 12.050781 15.984375 C 10.757812 15.984375 9.707031 14.933594 9.707031 13.640625 C 9.707031 12.347656 10.757812 11.300781 12.050781 11.300781 C 13.34375 11.300781 14.390625 12.347656 14.390625 13.640625 Z M 14.390625 13.640625 "/>
<path style=" stroke:none;fill-rule:evenodd;fill:rgb(26.27451%,31.372549%,36.078431%);fill-opacity:1;" d="M 7.203125 3.484375 C 7.929688 3.484375 8.515625 4.152344 8.515625 4.976562 L 8.515625 19.5625 C 8.515625 20.386719 7.929688 21.054688 7.203125 21.054688 C 6.476562 21.054688 5.890625 20.386719 5.890625 19.5625 L 5.890625 4.976562 C 5.890625 4.152344 6.476562 3.484375 7.203125 3.484375 Z M 7.203125 3.484375 "/>
<path style=" stroke:none;fill-rule:evenodd;fill:rgb(26.27451%,31.372549%,36.078431%);fill-opacity:1;" d="M 7.203125 3.953125 C 7.703125 3.953125 8.109375 4.464844 8.109375 5.09375 L 8.109375 19.457031 C 8.109375 20.085938 7.703125 20.597656 7.203125 20.597656 C 6.703125 20.597656 6.300781 20.085938 6.300781 19.457031 L 6.300781 5.09375 C 6.300781 4.464844 6.703125 3.953125 7.203125 3.953125 Z M 7.203125 3.953125 "/>
<path style=" stroke:none;fill-rule:nonzero;fill:rgb(16.470588%,16.470588%,100%);fill-opacity:1;" d="M 9.507812 7.054688 C 9.507812 8.347656 8.460938 9.394531 7.167969 9.394531 C 5.875 9.394531 4.828125 8.347656 4.828125 7.054688 C 4.828125 5.761719 5.875 4.714844 7.167969 4.714844 C 8.460938 4.714844 9.507812 5.761719 9.507812 7.054688 Z M 9.507812 7.054688 "/>
</g>
</svg>
