
<svg xmlns="http://www.w3.org/2000/svg" xmlns:xlink="http://www.w3.org/1999/xlink" width="24px" height="24px" viewBox="0 0 24 24" version="1.1">
<g id="surface1">
<path style="fill-rule:nonzero;fill:rgb(70.196078%,43.529412%,11.764706%);fill-opacity:1;stroke-width:7.117036;stroke-linecap:butt;stroke-linejoin:miter;stroke:rgb(20%,20%,20%);stroke-opacity:1;stroke-miterlimit:4;" d="M 19.9375 5.708333 L 108.0625 5.708333 C 115.916667 5.708333 122.291667 12.083333 122.291667 19.9375 L 122.291667 108.0625 C 122.291667 115.916667 115.916667 122.291667 108.0625 122.291667 L 19.9375 122.291667 C 12.083333 122.291667 5.708333 115.916667 5.708333 108.0625 L 5.708333 19.9375 C 5.708333 12.083333 12.083333 5.708333 19.9375 5.708333 Z M 19.9375 5.708333 " transform="matrix(0.1875,0,0,0.1875,0,0)"/>
<path style=" stroke:none;fill-rule:evenodd;fill:rgb(20%,20%,20%);fill-opacity:1;" d="M 20.867188 11.980469 C 20.789062 7.054688 16.742188 3.117188 11.8125 3.179688 C 6.886719 3.238281 2.933594 7.269531 2.972656 12.195312 C 3.011719 17.125 7.027344 21.089844 11.957031 21.070312 C 16.882812 21.050781 20.867188 17.050781 20.867188 12.125 "/>
<path style=" stroke:none;fill-rule:evenodd;fill:rgb(99.607843%,82.352941%,42.352941%);fill-opacity:0.4;" d="M 19.378906 12.140625 C 19.378906 8.023438 16.042969 4.683594 11.921875 4.683594 C 7.804688 4.683594 4.46875 8.023438 4.46875 12.140625 C 4.46875 16.257812 7.804688 19.597656 11.921875 19.597656 C 16.042969 19.597656 19.378906 16.257812 19.378906 12.140625 "/>
<path style=" stroke:none;fill-rule:evenodd;fill:rgb(46.27451%,32.54902%,12.941176%);fill-opacity:0.686275;" d="M 16.777344 12.132812 C 16.777344 9.457031 14.605469 7.289062 11.929688 7.289062 C 9.253906 7.289062 7.085938 9.457031 7.085938 12.132812 C 7.085938 14.808594 9.253906 16.980469 11.929688 16.980469 C 14.605469 16.980469 16.777344 14.808594 16.777344 12.132812 "/>
<path style=" stroke:none;fill-rule:evenodd;fill:rgb(32.54902%,18.039216%,0%);fill-opacity:1;" d="M 15.0625 12.121094 C 15.0625 10.386719 13.65625 8.980469 11.921875 8.980469 C 10.1875 8.980469 8.785156 10.386719 8.785156 12.121094 C 8.785156 13.855469 10.1875 15.261719 11.921875 15.261719 C 13.65625 15.261719 15.0625 13.855469 15.0625 12.121094 "/>
<path style=" stroke:none;fill-rule:evenodd;fill:rgb(100%,100%,100%);fill-opacity:0.643137;" d="M 14.976562 10.332031 C 15.285156 9.671875 14.988281 8.882812 14.316406 8.570312 C 13.644531 8.253906 12.847656 8.535156 12.539062 9.195312 C 12.230469 9.851562 12.527344 10.640625 13.199219 10.957031 C 13.875 11.269531 14.667969 10.992188 14.976562 10.332031 "/>
<path style=" stroke:none;fill-rule:evenodd;fill:rgb(100%,100%,100%);fill-opacity:0.364706;" d="M 10.484375 14.480469 C 10.746094 14.160156 10.726562 13.6875 10.4375 13.425781 C 10.152344 13.164062 9.707031 13.210938 9.445312 13.53125 C 9.183594 13.851562 9.203125 14.320312 9.488281 14.582031 C 9.777344 14.84375 10.222656 14.796875 10.484375 14.480469 "/>
</g>
</svg>
