
<svg xmlns="http://www.w3.org/2000/svg" xmlns:xlink="http://www.w3.org/1999/xlink" width="24px" height="24px" viewBox="0 0 24 24" version="1.1">
<g id="surface1">
<path style="fill-rule:nonzero;fill:rgb(14.509804%,54.117647%,81.960784%);fill-opacity:1;stroke-width:27.910587;stroke-linecap:butt;stroke-linejoin:miter;stroke:rgb(9.019608%,36.862745%,60%);stroke-opacity:1;stroke-miterlimit:4;" d="M 83.25 27.416667 L 428.75 27.416667 C 459.583333 27.416667 484.583333 52.416667 484.583333 83.25 L 484.583333 428.75 C 484.583333 459.583333 459.583333 484.583333 428.75 484.583333 L 83.25 484.583333 C 52.416667 484.583333 27.416667 459.583333 27.416667 428.75 L 27.416667 83.25 C 27.416667 52.416667 52.416667 27.416667 83.25 27.416667 Z M 83.25 27.416667 " transform="matrix(0.046875,0,0,0.046875,0,0)"/>
<path style=" stroke:none;fill-rule:nonzero;fill:rgb(100%,100%,100%);fill-opacity:1;" d="M 12.988281 13.699219 L 10.335938 13.699219 L 10.335938 13.351562 C 10.335938 12.960938 10.417969 12.617188 10.578125 12.316406 C 10.738281 12.011719 11.078125 11.628906 11.597656 11.164062 L 12.070312 10.75 C 12.347656 10.503906 12.554688 10.273438 12.683594 10.054688 C 12.8125 9.835938 12.878906 9.617188 12.878906 9.398438 C 12.878906 9.066406 12.761719 8.808594 12.523438 8.621094 C 12.289062 8.433594 11.960938 8.339844 11.539062 8.339844 C 11.144531 8.339844 10.714844 8.417969 10.253906 8.578125 C 9.792969 8.738281 9.3125 8.972656 8.8125 9.285156 L 8.8125 7.050781 C 9.40625 6.851562 9.949219 6.703125 10.4375 6.609375 C 10.925781 6.515625 11.398438 6.464844 11.855469 6.464844 C 13.050781 6.464844 13.960938 6.703125 14.589844 7.175781 C 15.214844 7.648438 15.53125 8.335938 15.53125 9.242188 C 15.53125 9.707031 15.433594 10.125 15.242188 10.492188 C 15.050781 10.859375 14.726562 11.253906 14.265625 11.675781 L 13.796875 12.082031 C 13.460938 12.378906 13.246094 12.613281 13.140625 12.792969 C 13.039062 12.96875 12.988281 13.164062 12.988281 13.378906 Z M 10.335938 14.753906 L 12.988281 14.753906 L 12.988281 17.285156 L 10.335938 17.285156 Z M 10.335938 14.753906 "/>
</g>
</svg>
