
<svg xmlns="http://www.w3.org/2000/svg" xmlns:xlink="http://www.w3.org/1999/xlink" width="24px" height="24px" viewBox="0 0 24 24" version="1.1">
<g id="surface1">
<path style="fill-rule:nonzero;fill:rgb(21.960784%,39.607843%,60.392157%);fill-opacity:1;stroke-width:57.039246;stroke-linecap:butt;stroke-linejoin:miter;stroke:rgb(6.666667%,20.392157%,31.372549%);stroke-opacity:1;stroke-miterlimit:4;" d="M 158.833333 44.833333 L 865.166667 44.833333 C 928.166667 44.833333 979.166667 95.833333 979.166667 158.833333 L 979.166667 865.166667 C 979.166667 928.166667 928.166667 979.166667 865.166667 979.166667 L 158.833333 979.166667 C 95.833333 979.166667 44.833333 928.166667 44.833333 865.166667 L 44.833333 158.833333 C 44.833333 95.833333 95.833333 44.833333 158.833333 44.833333 Z M 158.833333 44.833333 " transform="matrix(0.0234375,0,0,0.0234375,0,0)"/>
<path style=" stroke:none;fill-rule:nonzero;fill:rgb(100%,100%,100%);fill-opacity:1;" d="M 16.375 6.976562 C 16.4375 7.042969 16.503906 7.09375 16.578125 7.140625 C 16.730469 7.234375 16.910156 7.28125 17.105469 7.28125 C 17.390625 7.28125 17.632812 7.179688 17.835938 6.976562 C 18.039062 6.777344 18.136719 6.53125 18.136719 6.25 C 18.136719 6.050781 18.089844 5.875 17.992188 5.714844 C 17.949219 5.644531 17.898438 5.578125 17.835938 5.515625 C 17.632812 5.3125 17.390625 5.214844 17.105469 5.214844 C 16.820312 5.214844 16.578125 5.3125 16.375 5.515625 C 16.171875 5.71875 16.070312 5.964844 16.070312 6.25 C 16.070312 6.53125 16.171875 6.777344 16.375 6.976562 Z M 15.496094 3.460938 C 15.496094 3.265625 15.449219 3.089844 15.351562 2.933594 C 15.308594 2.859375 15.257812 2.792969 15.195312 2.730469 C 14.992188 2.527344 14.75 2.429688 14.464844 2.429688 C 14.175781 2.429688 13.933594 2.527344 13.730469 2.730469 C 13.53125 2.933594 13.429688 3.179688 13.429688 3.460938 C 13.429688 3.746094 13.53125 3.992188 13.730469 4.191406 C 13.796875 4.253906 13.863281 4.308594 13.933594 4.351562 C 14.089844 4.449219 14.265625 4.496094 14.464844 4.496094 C 14.75 4.496094 14.992188 4.394531 15.195312 4.191406 C 15.394531 3.992188 15.496094 3.746094 15.496094 3.460938 Z M 12.855469 3.460938 C 12.855469 3.265625 12.804688 3.089844 12.710938 2.933594 C 12.667969 2.859375 12.613281 2.792969 12.550781 2.730469 C 12.347656 2.527344 12.105469 2.429688 11.820312 2.429688 C 11.535156 2.429688 11.292969 2.527344 11.089844 2.730469 C 10.886719 2.933594 10.789062 3.179688 10.789062 3.460938 C 10.789062 3.746094 10.886719 3.992188 11.089844 4.191406 C 11.152344 4.253906 11.21875 4.308594 11.289062 4.351562 C 11.449219 4.449219 11.625 4.496094 11.820312 4.496094 C 12.105469 4.496094 12.347656 4.394531 12.550781 4.191406 C 12.753906 3.992188 12.855469 3.746094 12.855469 3.460938 Z M 15.351562 8.503906 C 15.308594 8.429688 15.253906 8.363281 15.195312 8.304688 C 14.992188 8.101562 14.75 8 14.464844 8 C 14.175781 8 13.933594 8.101562 13.730469 8.304688 C 13.53125 8.503906 13.429688 8.75 13.429688 9.035156 C 13.429688 9.320312 13.53125 9.5625 13.730469 9.765625 C 13.796875 9.828125 13.863281 9.882812 13.933594 9.925781 C 14.089844 10.019531 14.265625 10.066406 14.464844 10.066406 C 14.75 10.066406 14.992188 9.964844 15.195312 9.765625 C 15.394531 9.5625 15.496094 9.320312 15.496094 9.035156 C 15.496094 8.835938 15.449219 8.660156 15.351562 8.503906 Z M 12.710938 8.503906 C 12.667969 8.429688 12.613281 8.363281 12.550781 8.304688 C 12.347656 8.101562 12.105469 8 11.820312 8 C 11.535156 8 11.292969 8.101562 11.089844 8.304688 C 10.886719 8.503906 10.789062 8.75 10.789062 9.035156 C 10.789062 9.320312 10.886719 9.5625 11.089844 9.765625 C 11.152344 9.828125 11.21875 9.882812 11.289062 9.925781 C 11.449219 10.019531 11.625 10.066406 11.820312 10.066406 C 12.105469 10.066406 12.347656 9.964844 12.550781 9.765625 C 12.753906 9.5625 12.855469 9.320312 12.855469 9.035156 C 12.855469 8.835938 12.804688 8.660156 12.710938 8.503906 Z M 12.855469 11.820312 C 12.855469 11.625 12.804688 11.445312 12.710938 11.289062 C 12.667969 11.21875 12.613281 11.148438 12.550781 11.089844 C 12.347656 10.886719 12.105469 10.785156 11.820312 10.785156 C 11.535156 10.785156 11.292969 10.886719 11.089844 11.089844 C 10.886719 11.289062 10.789062 11.535156 10.789062 11.820312 C 10.789062 12.105469 10.886719 12.347656 11.089844 12.550781 C 11.152344 12.613281 11.21875 12.667969 11.289062 12.710938 C 11.449219 12.804688 11.625 12.855469 11.820312 12.855469 C 12.105469 12.855469 12.347656 12.75 12.550781 12.550781 C 12.753906 12.347656 12.855469 12.105469 12.855469 11.820312 Z M 12.710938 14.074219 C 12.667969 14.003906 12.613281 13.9375 12.550781 13.875 C 12.347656 13.671875 12.105469 13.570312 11.820312 13.570312 C 11.535156 13.570312 11.292969 13.671875 11.089844 13.875 C 10.886719 14.078125 10.789062 14.320312 10.789062 14.605469 C 10.789062 14.890625 10.886719 15.132812 11.089844 15.335938 C 11.152344 15.398438 11.21875 15.453125 11.289062 15.496094 C 11.449219 15.59375 11.625 15.640625 11.820312 15.640625 C 12.105469 15.640625 12.347656 15.539062 12.550781 15.335938 C 12.753906 15.132812 12.855469 14.890625 12.855469 14.605469 C 12.855469 14.410156 12.804688 14.234375 12.710938 14.074219 Z M 12.855469 17.390625 C 12.855469 17.195312 12.804688 17.019531 12.710938 16.859375 C 12.667969 16.789062 12.613281 16.722656 12.550781 16.660156 C 12.347656 16.460938 12.105469 16.359375 11.820312 16.359375 C 11.535156 16.359375 11.292969 16.460938 11.089844 16.660156 C 10.886719 16.863281 10.789062 17.105469 10.789062 17.390625 C 10.789062 17.675781 10.886719 17.921875 11.089844 18.121094 C 11.152344 18.183594 11.21875 18.238281 11.289062 18.28125 C 11.449219 18.378906 11.625 18.425781 11.820312 18.425781 C 12.105469 18.425781 12.347656 18.324219 12.550781 18.121094 C 12.753906 17.921875 12.855469 17.675781 12.855469 17.390625 Z M 12.710938 19.648438 C 12.667969 19.574219 12.613281 19.507812 12.550781 19.445312 C 12.347656 19.246094 12.105469 19.144531 11.820312 19.144531 C 11.535156 19.144531 11.292969 19.246094 11.089844 19.445312 C 10.886719 19.648438 10.789062 19.890625 10.789062 20.175781 C 10.789062 20.460938 10.886719 20.707031 11.089844 20.90625 C 11.152344 20.96875 11.21875 21.023438 11.289062 21.066406 C 11.449219 21.164062 11.625 21.210938 11.820312 21.210938 C 12.105469 21.210938 12.347656 21.109375 12.550781 20.90625 C 12.753906 20.707031 12.855469 20.460938 12.855469 20.175781 C 12.855469 19.980469 12.804688 19.804688 12.710938 19.648438 Z M 10.070312 2.933594 C 10.027344 2.863281 9.972656 2.792969 9.910156 2.730469 C 9.707031 2.527344 9.464844 2.429688 9.179688 2.429688 C 8.894531 2.429688 8.648438 2.527344 8.449219 2.730469 C 8.246094 2.933594 8.144531 3.179688 8.144531 3.460938 C 8.144531 3.746094 8.246094 3.992188 8.449219 4.191406 C 8.511719 4.253906 8.578125 4.308594 8.648438 4.351562 C 8.804688 4.449219 8.984375 4.496094 9.179688 4.496094 C 9.464844 4.496094 9.707031 4.394531 9.910156 4.191406 C 10.109375 3.992188 10.214844 3.746094 10.214844 3.460938 C 10.214844 3.265625 10.164062 3.089844 10.070312 2.933594 Z M 5.804688 6.976562 C 5.867188 7.042969 5.9375 7.09375 6.007812 7.140625 C 6.164062 7.234375 6.339844 7.28125 6.539062 7.28125 C 6.824219 7.28125 7.066406 7.179688 7.265625 6.976562 C 7.46875 6.777344 7.570312 6.53125 7.570312 6.25 C 7.570312 6.050781 7.523438 5.875 7.425781 5.71875 C 7.382812 5.644531 7.328125 5.578125 7.265625 5.515625 C 7.066406 5.3125 6.824219 5.214844 6.539062 5.214844 C 6.25 5.214844 6.007812 5.3125 5.804688 5.515625 C 5.605469 5.71875 5.503906 5.964844 5.503906 6.25 C 5.503906 6.53125 5.605469 6.777344 5.804688 6.976562 Z M 10.070312 8.503906 C 10.027344 8.433594 9.972656 8.367188 9.910156 8.304688 C 9.707031 8.101562 9.464844 8 9.179688 8 C 8.894531 8 8.648438 8.101562 8.449219 8.304688 C 8.246094 8.503906 8.144531 8.75 8.144531 9.035156 C 8.144531 9.320312 8.246094 9.5625 8.449219 9.765625 C 8.511719 9.828125 8.578125 9.882812 8.648438 9.925781 C 8.804688 10.019531 8.984375 10.066406 9.179688 10.066406 C 9.464844 10.066406 9.707031 9.964844 9.910156 9.765625 C 10.109375 9.5625 10.214844 9.320312 10.214844 9.035156 C 10.214844 8.839844 10.164062 8.660156 10.070312 8.503906 Z M 10.070312 19.648438 C 10.027344 19.574219 9.972656 19.507812 9.910156 19.445312 C 9.707031 19.246094 9.464844 19.144531 9.179688 19.144531 C 8.894531 19.144531 8.648438 19.246094 8.449219 19.445312 C 8.246094 19.648438 8.144531 19.890625 8.144531 20.175781 C 8.144531 20.460938 8.246094 20.707031 8.449219 20.90625 C 8.511719 20.96875 8.578125 21.023438 8.648438 21.066406 C 8.804688 21.164062 8.984375 21.210938 9.179688 21.210938 C 9.464844 21.210938 9.707031 21.109375 9.910156 20.90625 C 10.109375 20.707031 10.214844 20.460938 10.214844 20.175781 C 10.214844 19.980469 10.164062 19.804688 10.070312 19.648438 Z M 10.070312 19.648438 "/>
<path style=" stroke:none;fill-rule:nonzero;fill:rgb(0%,0%,0%);fill-opacity:0.2;" d="M 16.578125 7.140625 C 16.621094 7.207031 16.671875 7.273438 16.734375 7.335938 C 16.9375 7.539062 17.179688 7.640625 17.464844 7.640625 C 17.75 7.640625 17.992188 7.539062 18.195312 7.335938 C 18.398438 7.136719 18.5 6.894531 18.5 6.609375 C 18.5 6.320312 18.398438 6.078125 18.195312 5.875 C 18.132812 5.8125 18.066406 5.757812 17.992188 5.714844 C 18.089844 5.875 18.136719 6.050781 18.136719 6.25 C 18.136719 6.53125 18.039062 6.777344 17.835938 6.976562 C 17.632812 7.179688 17.390625 7.28125 17.105469 7.28125 C 16.910156 7.28125 16.730469 7.234375 16.578125 7.140625 Z M 15.351562 2.933594 C 15.449219 3.089844 15.496094 3.265625 15.496094 3.460938 C 15.496094 3.746094 15.394531 3.992188 15.195312 4.191406 C 14.992188 4.394531 14.75 4.496094 14.464844 4.496094 C 14.265625 4.496094 14.089844 4.449219 13.933594 4.351562 C 13.976562 4.421875 14.03125 4.488281 14.09375 4.550781 C 14.292969 4.753906 14.539062 4.855469 14.824219 4.855469 C 15.109375 4.855469 15.351562 4.753906 15.554688 4.550781 C 15.753906 4.351562 15.855469 4.105469 15.855469 3.820312 C 15.855469 3.535156 15.753906 3.292969 15.554688 3.089844 C 15.492188 3.027344 15.425781 2.976562 15.351562 2.933594 Z M 12.710938 2.933594 C 12.804688 3.089844 12.855469 3.265625 12.855469 3.460938 C 12.855469 3.746094 12.753906 3.992188 12.550781 4.191406 C 12.347656 4.394531 12.105469 4.496094 11.820312 4.496094 C 11.625 4.496094 11.449219 4.449219 11.289062 4.351562 C 11.335938 4.421875 11.386719 4.488281 11.449219 4.550781 C 11.652344 4.753906 11.894531 4.855469 12.179688 4.855469 C 12.464844 4.855469 12.710938 4.753906 12.910156 4.550781 C 13.113281 4.351562 13.214844 4.105469 13.214844 3.820312 C 13.214844 3.535156 13.113281 3.292969 12.910156 3.089844 C 12.847656 3.027344 12.78125 2.976562 12.710938 2.933594 Z M 12.910156 5.875 C 12.847656 5.8125 12.78125 5.761719 12.710938 5.71875 C 12.804688 5.875 12.855469 6.050781 12.855469 6.25 C 12.855469 6.53125 12.753906 6.777344 12.550781 6.976562 C 12.347656 7.179688 12.105469 7.28125 11.820312 7.28125 C 11.625 7.28125 11.449219 7.234375 11.289062 7.136719 C 11.335938 7.207031 11.386719 7.273438 11.449219 7.335938 C 11.652344 7.539062 11.894531 7.640625 12.179688 7.640625 C 12.464844 7.640625 12.710938 7.539062 12.910156 7.335938 C 13.113281 7.136719 13.214844 6.894531 13.214844 6.609375 C 13.214844 6.320312 13.113281 6.078125 12.910156 5.875 Z M 15.554688 5.875 C 15.488281 5.8125 15.421875 5.757812 15.351562 5.714844 C 15.449219 5.875 15.496094 6.050781 15.496094 6.25 C 15.496094 6.53125 15.394531 6.777344 15.195312 6.976562 C 14.992188 7.179688 14.75 7.28125 14.464844 7.28125 C 14.265625 7.28125 14.089844 7.234375 13.933594 7.140625 C 13.976562 7.207031 14.03125 7.273438 14.09375 7.335938 C 14.292969 7.539062 14.539062 7.640625 14.824219 7.640625 C 15.109375 7.640625 15.351562 7.539062 15.554688 7.335938 C 15.753906 7.136719 15.855469 6.894531 15.855469 6.609375 C 15.855469 6.320312 15.753906 6.078125 15.554688 5.875 Z M 15.351562 8.503906 C 15.449219 8.660156 15.496094 8.835938 15.496094 9.035156 C 15.496094 9.320312 15.394531 9.5625 15.195312 9.765625 C 14.992188 9.964844 14.75 10.066406 14.464844 10.066406 C 14.265625 10.066406 14.089844 10.019531 13.933594 9.925781 C 13.976562 9.996094 14.03125 10.0625 14.09375 10.125 C 14.292969 10.324219 14.539062 10.425781 14.824219 10.425781 C 15.109375 10.425781 15.351562 10.324219 15.554688 10.125 C 15.753906 9.921875 15.855469 9.679688 15.855469 9.394531 C 15.855469 9.109375 15.753906 8.863281 15.554688 8.660156 C 15.492188 8.597656 15.425781 8.546875 15.351562 8.503906 Z M 12.710938 8.503906 C 12.804688 8.660156 12.855469 8.835938 12.855469 9.035156 C 12.855469 9.320312 12.753906 9.5625 12.550781 9.765625 C 12.347656 9.964844 12.105469 10.066406 11.820312 10.066406 C 11.625 10.066406 11.449219 10.019531 11.289062 9.925781 C 11.335938 9.996094 11.386719 10.0625 11.449219 10.125 C 11.652344 10.324219 11.894531 10.425781 12.179688 10.425781 C 12.464844 10.425781 12.710938 10.324219 12.910156 10.125 C 13.113281 9.921875 13.214844 9.679688 13.214844 9.394531 C 13.214844 9.109375 13.113281 8.863281 12.910156 8.660156 C 12.847656 8.597656 12.78125 8.546875 12.710938 8.503906 Z M 12.710938 11.289062 C 12.804688 11.445312 12.855469 11.625 12.855469 11.820312 C 12.855469 12.105469 12.753906 12.347656 12.550781 12.550781 C 12.347656 12.75 12.105469 12.855469 11.820312 12.855469 C 11.625 12.855469 11.449219 12.804688 11.289062 12.710938 C 11.335938 12.78125 11.386719 12.847656 11.449219 12.910156 C 11.652344 13.109375 11.894531 13.210938 12.179688 13.210938 C 12.464844 13.210938 12.710938 13.109375 12.910156 12.910156 C 13.113281 12.707031 13.214844 12.464844 13.214844 12.179688 C 13.214844 11.894531 13.113281 11.648438 12.910156 11.445312 C 12.847656 11.382812 12.78125 11.332031 12.710938 11.289062 Z M 15.351562 11.289062 C 15.449219 11.445312 15.496094 11.621094 15.496094 11.820312 C 15.496094 12.105469 15.394531 12.347656 15.195312 12.550781 C 14.992188 12.75 14.75 12.855469 14.464844 12.855469 C 14.265625 12.855469 14.089844 12.804688 13.933594 12.710938 C 13.976562 12.78125 14.03125 12.847656 14.09375 12.910156 C 14.292969 13.109375 14.539062 13.210938 14.824219 13.210938 C 15.109375 13.210938 15.351562 13.109375 15.554688 12.910156 C 15.753906 12.707031 15.855469 12.464844 15.855469 12.179688 C 15.855469 11.894531 15.753906 11.648438 15.554688 11.445312 C 15.488281 11.382812 15.421875 11.332031 15.351562 11.289062 Z M 18.5 9.394531 C 18.5 9.109375 18.398438 8.863281 18.195312 8.660156 C 18.132812 8.597656 18.066406 8.546875 17.992188 8.503906 C 18.089844 8.660156 18.136719 8.835938 18.136719 9.035156 C 18.136719 9.320312 18.039062 9.5625 17.835938 9.765625 C 17.632812 9.964844 17.390625 10.066406 17.105469 10.066406 C 16.910156 10.066406 16.730469 10.019531 16.578125 9.925781 C 16.617188 9.996094 16.671875 10.0625 16.734375 10.125 C 16.9375 10.324219 17.179688 10.425781 17.464844 10.425781 C 17.75 10.425781 17.992188 10.324219 18.195312 10.125 C 18.398438 9.921875 18.5 9.679688 18.5 9.394531 Z M 19.21875 9.925781 C 19.261719 9.996094 19.3125 10.0625 19.375 10.125 C 19.578125 10.324219 19.820312 10.425781 20.105469 10.425781 C 20.390625 10.425781 20.632812 10.324219 20.835938 10.125 C 21.039062 9.921875 21.140625 9.679688 21.140625 9.394531 C 21.140625 9.109375 21.039062 8.863281 20.835938 8.660156 C 20.773438 8.597656 20.707031 8.546875 20.636719 8.503906 C 20.734375 8.660156 20.78125 8.835938 20.78125 9.035156 C 20.78125 9.320312 20.679688 9.5625 20.476562 9.765625 C 20.277344 9.964844 20.03125 10.066406 19.75 10.066406 C 19.550781 10.066406 19.375 10.019531 19.21875 9.925781 Z M 17.992188 11.289062 C 18.089844 11.445312 18.136719 11.621094 18.136719 11.820312 C 18.136719 12.105469 18.039062 12.347656 17.835938 12.550781 C 17.632812 12.75 17.390625 12.855469 17.105469 12.855469 C 16.910156 12.855469 16.730469 12.804688 16.578125 12.710938 C 16.621094 12.78125 16.671875 12.847656 16.734375 12.910156 C 16.9375 13.109375 17.179688 13.210938 17.464844 13.210938 C 17.75 13.210938 17.992188 13.109375 18.195312 12.910156 C 18.398438 12.707031 18.5 12.464844 18.5 12.179688 C 18.5 11.894531 18.398438 11.648438 18.195312 11.445312 C 18.132812 11.382812 18.066406 11.332031 17.992188 11.289062 Z M 20.636719 11.289062 C 20.734375 11.445312 20.78125 11.621094 20.78125 11.820312 C 20.78125 12.105469 20.679688 12.347656 20.476562 12.550781 C 20.277344 12.75 20.03125 12.855469 19.75 12.855469 C 19.550781 12.855469 19.375 12.804688 19.21875 12.710938 C 19.261719 12.78125 19.3125 12.847656 19.375 12.910156 C 19.578125 13.109375 19.820312 13.210938 20.105469 13.210938 C 20.390625 13.210938 20.632812 13.109375 20.835938 12.910156 C 21.039062 12.707031 21.140625 12.464844 21.140625 12.179688 C 21.140625 11.894531 21.039062 11.648438 20.835938 11.445312 C 20.773438 11.382812 20.707031 11.332031 20.636719 11.289062 Z M 20.835938 14.234375 C 20.773438 14.171875 20.707031 14.117188 20.636719 14.074219 C 20.734375 14.234375 20.78125 14.410156 20.78125 14.605469 C 20.78125 14.890625 20.679688 15.132812 20.476562 15.335938 C 20.277344 15.539062 20.03125 15.640625 19.75 15.640625 C 19.550781 15.640625 19.375 15.59375 19.21875 15.496094 C 19.261719 15.566406 19.3125 15.632812 19.375 15.695312 C 19.578125 15.898438 19.820312 16 20.105469 16 C 20.390625 16 20.632812 15.898438 20.835938 15.695312 C 21.039062 15.492188 21.140625 15.25 21.140625 14.964844 C 21.140625 14.679688 21.039062 14.433594 20.835938 14.234375 Z M 18.195312 14.234375 C 18.132812 14.171875 18.066406 14.117188 17.992188 14.074219 C 18.089844 14.234375 18.136719 14.410156 18.136719 14.605469 C 18.136719 14.890625 18.039062 15.132812 17.835938 15.335938 C 17.632812 15.539062 17.390625 15.640625 17.105469 15.640625 C 16.910156 15.640625 16.730469 15.59375 16.578125 15.496094 C 16.617188 15.566406 16.671875 15.632812 16.734375 15.695312 C 16.9375 15.898438 17.179688 16 17.464844 16 C 17.75 16 17.992188 15.898438 18.195312 15.695312 C 18.398438 15.492188 18.5 15.25 18.5 14.964844 C 18.5 14.679688 18.398438 14.433594 18.195312 14.234375 Z M 15.554688 14.234375 C 15.488281 14.171875 15.421875 14.117188 15.351562 14.074219 C 15.449219 14.234375 15.496094 14.410156 15.496094 14.605469 C 15.496094 14.890625 15.394531 15.132812 15.195312 15.335938 C 14.992188 15.539062 14.75 15.640625 14.464844 15.640625 C 14.265625 15.640625 14.089844 15.59375 13.933594 15.496094 C 13.976562 15.566406 14.03125 15.632812 14.09375 15.695312 C 14.292969 15.898438 14.539062 16 14.824219 16 C 15.109375 16 15.351562 15.898438 15.554688 15.695312 C 15.753906 15.492188 15.855469 15.25 15.855469 14.964844 C 15.855469 14.679688 15.753906 14.433594 15.554688 14.234375 Z M 12.910156 14.234375 C 12.847656 14.171875 12.78125 14.117188 12.710938 14.074219 C 12.804688 14.234375 12.855469 14.410156 12.855469 14.605469 C 12.855469 14.890625 12.753906 15.132812 12.550781 15.335938 C 12.347656 15.539062 12.105469 15.640625 11.820312 15.640625 C 11.625 15.640625 11.449219 15.59375 11.289062 15.496094 C 11.335938 15.566406 11.386719 15.632812 11.449219 15.695312 C 11.652344 15.898438 11.894531 16 12.179688 16 C 12.464844 16 12.710938 15.898438 12.910156 15.695312 C 13.113281 15.492188 13.214844 15.25 13.214844 14.964844 C 13.214844 14.679688 13.113281 14.433594 12.910156 14.234375 Z M 15.351562 16.859375 C 15.449219 17.019531 15.496094 17.195312 15.496094 17.390625 C 15.496094 17.675781 15.394531 17.921875 15.195312 18.121094 C 14.992188 18.324219 14.75 18.425781 14.464844 18.425781 C 14.265625 18.425781 14.089844 18.378906 13.933594 18.28125 C 13.976562 18.351562 14.03125 18.417969 14.09375 18.480469 C 14.292969 18.683594 14.539062 18.785156 14.824219 18.785156 C 15.109375 18.785156 15.351562 18.683594 15.554688 18.480469 C 15.753906 18.277344 15.855469 18.035156 15.855469 17.75 C 15.855469 17.464844 15.753906 17.21875 15.554688 17.019531 C 15.488281 16.957031 15.421875 16.902344 15.351562 16.859375 Z M 12.710938 16.859375 C 12.804688 17.019531 12.855469 17.195312 12.855469 17.390625 C 12.855469 17.675781 12.753906 17.921875 12.550781 18.121094 C 12.347656 18.324219 12.105469 18.425781 11.820312 18.425781 C 11.625 18.425781 11.449219 18.378906 11.289062 18.28125 C 11.335938 18.351562 11.386719 18.417969 11.449219 18.480469 C 11.652344 18.683594 11.894531 18.785156 12.179688 18.785156 C 12.464844 18.785156 12.710938 18.683594 12.910156 18.480469 C 13.113281 18.277344 13.214844 18.035156 13.214844 17.75 C 13.214844 17.464844 13.113281 17.21875 12.910156 17.019531 C 12.847656 16.957031 12.78125 16.90625 12.710938 16.859375 Z M 12.910156 19.804688 C 12.847656 19.742188 12.78125 19.691406 12.710938 19.648438 C 12.804688 19.804688 12.855469 19.980469 12.855469 20.175781 C 12.855469 20.460938 12.753906 20.707031 12.550781 20.90625 C 12.347656 21.109375 12.105469 21.210938 11.820312 21.210938 C 11.625 21.210938 11.449219 21.164062 11.289062 21.066406 C 11.335938 21.136719 11.386719 21.203125 11.449219 21.265625 C 11.652344 21.46875 11.894531 21.570312 12.179688 21.570312 C 12.464844 21.570312 12.710938 21.46875 12.910156 21.265625 C 13.113281 21.066406 13.214844 20.820312 13.214844 20.535156 C 13.214844 20.25 13.113281 20.007812 12.910156 19.804688 Z M 15.554688 19.804688 C 15.488281 19.742188 15.421875 19.6875 15.351562 19.644531 C 15.449219 19.804688 15.496094 19.980469 15.496094 20.175781 C 15.496094 20.460938 15.394531 20.707031 15.195312 20.90625 C 14.992188 21.109375 14.75 21.210938 14.464844 21.210938 C 14.265625 21.210938 14.089844 21.164062 13.933594 21.066406 C 13.976562 21.136719 14.03125 21.203125 14.09375 21.265625 C 14.292969 21.46875 14.539062 21.570312 14.824219 21.570312 C 15.109375 21.570312 15.351562 21.46875 15.554688 21.265625 C 15.753906 21.066406 15.855469 20.820312 15.855469 20.535156 C 15.855469 20.25 15.753906 20.007812 15.554688 19.804688 Z M 17.992188 16.859375 C 18.089844 17.019531 18.136719 17.195312 18.136719 17.390625 C 18.136719 17.675781 18.039062 17.921875 17.835938 18.121094 C 17.632812 18.324219 17.390625 18.425781 17.105469 18.425781 C 16.910156 18.425781 16.730469 18.378906 16.578125 18.28125 C 16.617188 18.351562 16.671875 18.417969 16.734375 18.480469 C 16.9375 18.683594 17.179688 18.785156 17.464844 18.785156 C 17.75 18.785156 17.992188 18.683594 18.195312 18.480469 C 18.398438 18.277344 18.5 18.035156 18.5 17.75 C 18.5 17.464844 18.398438 17.21875 18.195312 17.019531 C 18.132812 16.957031 18.066406 16.902344 17.992188 16.859375 Z M 3.523438 10.125 C 3.726562 10.324219 3.96875 10.425781 4.253906 10.425781 C 4.539062 10.425781 4.78125 10.324219 4.984375 10.125 C 5.1875 9.921875 5.289062 9.679688 5.289062 9.394531 C 5.289062 9.109375 5.1875 8.863281 4.984375 8.660156 C 4.921875 8.597656 4.855469 8.546875 4.785156 8.503906 C 4.878906 8.660156 4.929688 8.835938 4.929688 9.035156 C 4.929688 9.320312 4.828125 9.5625 4.625 9.765625 C 4.421875 9.964844 4.179688 10.066406 3.894531 10.066406 C 3.699219 10.066406 3.519531 10.019531 3.367188 9.925781 C 3.40625 9.996094 3.460938 10.0625 3.523438 10.125 Z M 4.785156 11.289062 C 4.878906 11.445312 4.929688 11.625 4.929688 11.820312 C 4.929688 12.105469 4.828125 12.347656 4.625 12.550781 C 4.421875 12.75 4.179688 12.855469 3.894531 12.855469 C 3.699219 12.855469 3.519531 12.804688 3.367188 12.710938 C 3.410156 12.78125 3.460938 12.847656 3.523438 12.910156 C 3.726562 13.109375 3.96875 13.210938 4.253906 13.210938 C 4.539062 13.210938 4.78125 13.109375 4.984375 12.910156 C 5.1875 12.707031 5.289062 12.464844 5.289062 12.179688 C 5.289062 11.894531 5.1875 11.648438 4.984375 11.445312 C 4.921875 11.382812 4.855469 11.332031 4.785156 11.289062 Z M 10.574219 3.820312 C 10.574219 3.535156 10.46875 3.292969 10.269531 3.089844 C 10.207031 3.027344 10.140625 2.976562 10.070312 2.933594 C 10.164062 3.089844 10.214844 3.265625 10.214844 3.460938 C 10.214844 3.746094 10.109375 3.992188 9.910156 4.191406 C 9.707031 4.394531 9.464844 4.496094 9.179688 4.496094 C 8.984375 4.496094 8.804688 4.449219 8.648438 4.351562 C 8.691406 4.421875 8.746094 4.488281 8.804688 4.550781 C 9.007812 4.753906 9.253906 4.855469 9.539062 4.855469 C 9.824219 4.855469 10.066406 4.753906 10.269531 4.550781 C 10.46875 4.351562 10.574219 4.105469 10.574219 3.820312 Z M 8.648438 7.136719 C 8.691406 7.207031 8.746094 7.273438 8.804688 7.335938 C 9.007812 7.539062 9.253906 7.640625 9.539062 7.640625 C 9.824219 7.640625 10.066406 7.539062 10.269531 7.335938 C 10.46875 7.136719 10.574219 6.894531 10.574219 6.609375 C 10.574219 6.320312 10.46875 6.078125 10.269531 5.875 C 10.207031 5.8125 10.140625 5.761719 10.070312 5.71875 C 10.164062 5.875 10.214844 6.050781 10.214844 6.25 C 10.214844 6.53125 10.109375 6.777344 9.910156 6.976562 C 9.707031 7.179688 9.464844 7.28125 9.179688 7.28125 C 8.984375 7.28125 8.804688 7.234375 8.648438 7.136719 Z M 6.007812 7.140625 C 6.050781 7.207031 6.101562 7.273438 6.164062 7.335938 C 6.367188 7.539062 6.609375 7.640625 6.898438 7.640625 C 7.183594 7.640625 7.421875 7.539062 7.625 7.335938 C 7.828125 7.136719 7.929688 6.894531 7.929688 6.609375 C 7.929688 6.320312 7.828125 6.078125 7.625 5.875 C 7.5625 5.8125 7.496094 5.761719 7.425781 5.71875 C 7.523438 5.875 7.570312 6.050781 7.570312 6.25 C 7.570312 6.53125 7.46875 6.777344 7.265625 6.976562 C 7.066406 7.179688 6.824219 7.28125 6.539062 7.28125 C 6.339844 7.28125 6.164062 7.234375 6.007812 7.140625 Z M 7.929688 9.394531 C 7.929688 9.109375 7.828125 8.863281 7.625 8.660156 C 7.5625 8.597656 7.496094 8.546875 7.425781 8.503906 C 7.523438 8.660156 7.570312 8.835938 7.570312 9.035156 C 7.570312 9.320312 7.46875 9.5625 7.265625 9.765625 C 7.066406 9.964844 6.824219 10.066406 6.539062 10.066406 C 6.339844 10.066406 6.164062 10.019531 6.007812 9.925781 C 6.050781 9.996094 6.101562 10.0625 6.164062 10.125 C 6.367188 10.324219 6.609375 10.425781 6.898438 10.425781 C 7.183594 10.425781 7.421875 10.324219 7.625 10.125 C 7.828125 9.921875 7.929688 9.679688 7.929688 9.394531 Z M 7.425781 11.289062 C 7.523438 11.445312 7.570312 11.625 7.570312 11.820312 C 7.570312 12.105469 7.46875 12.347656 7.265625 12.550781 C 7.066406 12.75 6.824219 12.855469 6.539062 12.855469 C 6.339844 12.855469 6.164062 12.804688 6.007812 12.710938 C 6.050781 12.78125 6.101562 12.847656 6.164062 12.910156 C 6.367188 13.109375 6.609375 13.210938 6.898438 13.210938 C 7.183594 13.210938 7.421875 13.109375 7.625 12.910156 C 7.828125 12.707031 7.929688 12.464844 7.929688 12.179688 C 7.929688 11.894531 7.828125 11.648438 7.625 11.445312 C 7.5625 11.382812 7.496094 11.332031 7.425781 11.289062 Z M 10.574219 9.394531 C 10.574219 9.109375 10.46875 8.863281 10.269531 8.660156 C 10.207031 8.597656 10.140625 8.546875 10.070312 8.503906 C 10.164062 8.660156 10.214844 8.839844 10.214844 9.035156 C 10.214844 9.320312 10.109375 9.5625 9.910156 9.765625 C 9.707031 9.964844 9.464844 10.066406 9.179688 10.066406 C 8.984375 10.066406 8.804688 10.019531 8.648438 9.925781 C 8.691406 9.996094 8.746094 10.0625 8.804688 10.125 C 9.007812 10.324219 9.253906 10.425781 9.539062 10.425781 C 9.824219 10.425781 10.066406 10.324219 10.269531 10.125 C 10.46875 9.921875 10.574219 9.679688 10.574219 9.394531 Z M 10.070312 11.289062 C 10.164062 11.445312 10.214844 11.625 10.214844 11.820312 C 10.214844 12.105469 10.109375 12.347656 9.910156 12.550781 C 9.707031 12.75 9.464844 12.855469 9.179688 12.855469 C 8.984375 12.855469 8.804688 12.804688 8.648438 12.710938 C 8.691406 12.78125 8.746094 12.847656 8.804688 12.910156 C 9.007812 13.109375 9.253906 13.210938 9.539062 13.210938 C 9.824219 13.210938 10.066406 13.109375 10.269531 12.910156 C 10.46875 12.707031 10.574219 12.464844 10.574219 12.179688 C 10.574219 11.894531 10.46875 11.648438 10.269531 11.445312 C 10.207031 11.382812 10.140625 11.332031 10.070312 11.289062 Z M 8.648438 15.496094 C 8.691406 15.566406 8.746094 15.632812 8.804688 15.695312 C 9.007812 15.898438 9.253906 16 9.539062 16 C 9.824219 16 10.066406 15.898438 10.269531 15.695312 C 10.46875 15.492188 10.574219 15.25 10.574219 14.964844 C 10.574219 14.679688 10.46875 14.433594 10.269531 14.234375 C 10.207031 14.171875 10.140625 14.117188 10.070312 14.074219 C 10.164062 14.234375 10.214844 14.410156 10.214844 14.605469 C 10.214844 14.890625 10.109375 15.132812 9.910156 15.335938 C 9.707031 15.539062 9.464844 15.640625 9.179688 15.640625 C 8.984375 15.640625 8.804688 15.59375 8.648438 15.496094 Z M 7.625 14.234375 C 7.5625 14.171875 7.496094 14.117188 7.425781 14.074219 C 7.523438 14.234375 7.570312 14.410156 7.570312 14.605469 C 7.570312 14.890625 7.46875 15.132812 7.265625 15.335938 C 7.066406 15.539062 6.824219 15.640625 6.539062 15.640625 C 6.339844 15.640625 6.164062 15.59375 6.007812 15.496094 C 6.050781 15.566406 6.101562 15.632812 6.164062 15.695312 C 6.367188 15.898438 6.609375 16 6.898438 16 C 7.183594 16 7.421875 15.898438 7.625 15.695312 C 7.828125 15.492188 7.929688 15.25 7.929688 14.964844 C 7.929688 14.679688 7.828125 14.433594 7.625 14.234375 Z M 4.984375 14.234375 C 4.921875 14.171875 4.855469 14.117188 4.785156 14.074219 C 4.878906 14.234375 4.929688 14.410156 4.929688 14.605469 C 4.929688 14.890625 4.828125 15.132812 4.625 15.335938 C 4.421875 15.539062 4.179688 15.640625 3.894531 15.640625 C 3.699219 15.640625 3.519531 15.59375 3.367188 15.496094 C 3.40625 15.566406 3.460938 15.632812 3.523438 15.695312 C 3.726562 15.898438 3.96875 16 4.253906 16 C 4.539062 16 4.78125 15.898438 4.984375 15.695312 C 5.1875 15.492188 5.289062 15.25 5.289062 14.964844 C 5.289062 14.679688 5.1875 14.433594 4.984375 14.234375 Z M 7.425781 16.859375 C 7.523438 17.019531 7.570312 17.195312 7.570312 17.390625 C 7.570312 17.675781 7.46875 17.921875 7.265625 18.121094 C 7.066406 18.324219 6.824219 18.425781 6.539062 18.425781 C 6.339844 18.425781 6.164062 18.378906 6.007812 18.28125 C 6.050781 18.351562 6.101562 18.417969 6.164062 18.480469 C 6.367188 18.683594 6.609375 18.785156 6.898438 18.785156 C 7.183594 18.785156 7.421875 18.683594 7.625 18.480469 C 7.828125 18.277344 7.929688 18.035156 7.929688 17.75 C 7.929688 17.464844 7.828125 17.21875 7.625 17.019531 C 7.5625 16.957031 7.496094 16.90625 7.425781 16.859375 Z M 10.574219 17.75 C 10.574219 17.464844 10.46875 17.21875 10.269531 17.019531 C 10.207031 16.957031 10.140625 16.90625 10.070312 16.859375 C 10.164062 17.019531 10.214844 17.195312 10.214844 17.390625 C 10.214844 17.675781 10.109375 17.921875 9.910156 18.121094 C 9.707031 18.324219 9.464844 18.425781 9.179688 18.425781 C 8.984375 18.425781 8.804688 18.378906 8.648438 18.28125 C 8.691406 18.351562 8.746094 18.417969 8.804688 18.480469 C 9.007812 18.683594 9.253906 18.785156 9.539062 18.785156 C 9.824219 18.785156 10.066406 18.683594 10.269531 18.480469 C 10.46875 18.277344 10.574219 18.035156 10.574219 17.75 Z M 8.648438 21.066406 C 8.691406 21.136719 8.746094 21.203125 8.804688 21.265625 C 9.007812 21.46875 9.253906 21.570312 9.539062 21.570312 C 9.824219 21.570312 10.066406 21.46875 10.269531 21.265625 C 10.46875 21.066406 10.574219 20.820312 10.574219 20.535156 C 10.574219 20.25 10.46875 20.007812 10.269531 19.804688 C 10.207031 19.742188 10.140625 19.691406 10.070312 19.648438 C 10.164062 19.804688 10.214844 19.980469 10.214844 20.175781 C 10.214844 20.460938 10.109375 20.707031 9.910156 20.90625 C 9.707031 21.109375 9.464844 21.210938 9.179688 21.210938 C 8.984375 21.210938 8.804688 21.164062 8.648438 21.066406 Z M 8.648438 21.066406 "/>
<path style=" stroke:none;fill-rule:nonzero;fill:rgb(39.215686%,63.529412%,94.509804%);fill-opacity:1;" d="M 12.710938 5.71875 C 12.667969 5.644531 12.613281 5.578125 12.550781 5.515625 C 12.347656 5.3125 12.105469 5.214844 11.820312 5.214844 C 11.535156 5.214844 11.292969 5.3125 11.089844 5.515625 C 10.886719 5.71875 10.789062 5.964844 10.789062 6.25 C 10.789062 6.53125 10.886719 6.777344 11.089844 6.976562 C 11.152344 7.042969 11.21875 7.09375 11.289062 7.136719 C 11.449219 7.234375 11.625 7.28125 11.820312 7.28125 C 12.105469 7.28125 12.347656 7.179688 12.550781 6.976562 C 12.753906 6.777344 12.855469 6.53125 12.855469 6.25 C 12.855469 6.050781 12.804688 5.875 12.710938 5.71875 Z M 13.429688 6.25 C 13.429688 6.53125 13.53125 6.777344 13.730469 6.976562 C 13.796875 7.042969 13.863281 7.09375 13.933594 7.140625 C 14.089844 7.234375 14.265625 7.28125 14.464844 7.28125 C 14.75 7.28125 14.992188 7.179688 15.195312 6.976562 C 15.394531 6.777344 15.496094 6.53125 15.496094 6.25 C 15.496094 6.050781 15.449219 5.875 15.351562 5.714844 C 15.308594 5.644531 15.253906 5.578125 15.195312 5.515625 C 14.992188 5.3125 14.75 5.214844 14.464844 5.214844 C 14.175781 5.214844 13.933594 5.3125 13.730469 5.515625 C 13.53125 5.71875 13.429688 5.964844 13.429688 6.25 Z M 13.730469 11.089844 C 13.53125 11.289062 13.429688 11.535156 13.429688 11.820312 C 13.429688 12.105469 13.53125 12.347656 13.730469 12.550781 C 13.796875 12.613281 13.863281 12.667969 13.933594 12.710938 C 14.089844 12.804688 14.265625 12.855469 14.464844 12.855469 C 14.75 12.855469 14.992188 12.75 15.195312 12.550781 C 15.394531 12.347656 15.496094 12.105469 15.496094 11.820312 C 15.496094 11.621094 15.449219 11.445312 15.351562 11.289062 C 15.308594 11.21875 15.253906 11.148438 15.195312 11.089844 C 14.992188 10.886719 14.75 10.785156 14.464844 10.785156 C 14.175781 10.785156 13.933594 10.886719 13.730469 11.089844 Z M 17.992188 8.503906 C 17.949219 8.429688 17.898438 8.363281 17.835938 8.304688 C 17.632812 8.101562 17.390625 8 17.105469 8 C 16.820312 8 16.578125 8.101562 16.375 8.304688 C 16.171875 8.503906 16.070312 8.75 16.070312 9.035156 C 16.070312 9.320312 16.171875 9.5625 16.375 9.765625 C 16.4375 9.828125 16.503906 9.882812 16.578125 9.925781 C 16.730469 10.019531 16.910156 10.066406 17.105469 10.066406 C 17.390625 10.066406 17.632812 9.964844 17.835938 9.765625 C 18.039062 9.5625 18.136719 9.320312 18.136719 9.035156 C 18.136719 8.835938 18.089844 8.660156 17.992188 8.503906 Z M 19.015625 8.304688 C 18.8125 8.503906 18.714844 8.75 18.714844 9.035156 C 18.714844 9.320312 18.8125 9.5625 19.015625 9.765625 C 19.078125 9.828125 19.144531 9.882812 19.21875 9.925781 C 19.375 10.019531 19.550781 10.066406 19.75 10.066406 C 20.03125 10.066406 20.277344 9.964844 20.476562 9.765625 C 20.679688 9.5625 20.78125 9.320312 20.78125 9.035156 C 20.78125 8.835938 20.734375 8.660156 20.636719 8.503906 C 20.59375 8.429688 20.539062 8.363281 20.476562 8.304688 C 20.277344 8.101562 20.03125 8 19.75 8 C 19.460938 8 19.21875 8.101562 19.015625 8.304688 Z M 16.375 11.089844 C 16.171875 11.289062 16.070312 11.535156 16.070312 11.820312 C 16.070312 12.105469 16.171875 12.347656 16.375 12.550781 C 16.4375 12.613281 16.503906 12.667969 16.578125 12.710938 C 16.730469 12.804688 16.910156 12.855469 17.105469 12.855469 C 17.390625 12.855469 17.632812 12.75 17.835938 12.550781 C 18.039062 12.347656 18.136719 12.105469 18.136719 11.820312 C 18.136719 11.621094 18.089844 11.445312 17.992188 11.289062 C 17.949219 11.21875 17.898438 11.148438 17.835938 11.089844 C 17.632812 10.886719 17.390625 10.785156 17.105469 10.785156 C 16.820312 10.785156 16.578125 10.886719 16.375 11.089844 Z M 19.015625 11.089844 C 18.8125 11.289062 18.714844 11.535156 18.714844 11.820312 C 18.714844 12.105469 18.8125 12.347656 19.015625 12.550781 C 19.078125 12.613281 19.148438 12.667969 19.21875 12.710938 C 19.375 12.804688 19.550781 12.855469 19.75 12.855469 C 20.03125 12.855469 20.277344 12.75 20.476562 12.550781 C 20.679688 12.347656 20.78125 12.105469 20.78125 11.820312 C 20.78125 11.621094 20.734375 11.445312 20.636719 11.289062 C 20.59375 11.21875 20.539062 11.148438 20.476562 11.089844 C 20.277344 10.886719 20.03125 10.785156 19.75 10.785156 C 19.460938 10.785156 19.21875 10.886719 19.015625 11.089844 Z M 20.476562 13.875 C 20.277344 13.671875 20.03125 13.570312 19.75 13.570312 C 19.460938 13.570312 19.21875 13.671875 19.015625 13.875 C 18.8125 14.078125 18.714844 14.320312 18.714844 14.605469 C 18.714844 14.890625 18.8125 15.132812 19.015625 15.335938 C 19.078125 15.398438 19.144531 15.453125 19.21875 15.496094 C 19.375 15.59375 19.550781 15.640625 19.75 15.640625 C 20.03125 15.640625 20.277344 15.539062 20.476562 15.335938 C 20.679688 15.132812 20.78125 14.890625 20.78125 14.605469 C 20.78125 14.410156 20.734375 14.234375 20.636719 14.074219 C 20.59375 14.003906 20.539062 13.9375 20.476562 13.875 Z M 17.992188 14.074219 C 17.949219 14.003906 17.898438 13.9375 17.835938 13.875 C 17.632812 13.671875 17.390625 13.570312 17.105469 13.570312 C 16.820312 13.570312 16.578125 13.671875 16.375 13.875 C 16.171875 14.078125 16.070312 14.320312 16.070312 14.605469 C 16.070312 14.890625 16.171875 15.132812 16.375 15.335938 C 16.4375 15.398438 16.503906 15.453125 16.578125 15.496094 C 16.730469 15.59375 16.910156 15.640625 17.105469 15.640625 C 17.390625 15.640625 17.632812 15.539062 17.835938 15.335938 C 18.039062 15.132812 18.136719 14.890625 18.136719 14.605469 C 18.136719 14.410156 18.089844 14.234375 17.992188 14.074219 Z M 15.351562 14.074219 C 15.308594 14.003906 15.253906 13.9375 15.195312 13.875 C 14.992188 13.671875 14.75 13.570312 14.464844 13.570312 C 14.175781 13.570312 13.933594 13.671875 13.730469 13.875 C 13.53125 14.078125 13.429688 14.320312 13.429688 14.605469 C 13.429688 14.890625 13.53125 15.132812 13.730469 15.335938 C 13.796875 15.398438 13.863281 15.453125 13.933594 15.496094 C 14.089844 15.59375 14.265625 15.640625 14.464844 15.640625 C 14.75 15.640625 14.992188 15.539062 15.195312 15.335938 C 15.394531 15.132812 15.496094 14.890625 15.496094 14.605469 C 15.496094 14.410156 15.449219 14.234375 15.351562 14.074219 Z M 15.496094 17.390625 C 15.496094 17.195312 15.449219 17.019531 15.351562 16.859375 C 15.308594 16.789062 15.253906 16.722656 15.195312 16.660156 C 14.992188 16.460938 14.75 16.359375 14.464844 16.359375 C 14.175781 16.359375 13.933594 16.460938 13.730469 16.660156 C 13.53125 16.863281 13.429688 17.105469 13.429688 17.390625 C 13.429688 17.675781 13.53125 17.921875 13.730469 18.121094 C 13.796875 18.183594 13.863281 18.238281 13.933594 18.28125 C 14.089844 18.378906 14.265625 18.425781 14.464844 18.425781 C 14.75 18.425781 14.992188 18.324219 15.195312 18.121094 C 15.394531 17.921875 15.496094 17.675781 15.496094 17.390625 Z M 13.429688 20.175781 C 13.429688 20.460938 13.53125 20.707031 13.730469 20.90625 C 13.796875 20.96875 13.863281 21.023438 13.933594 21.066406 C 14.089844 21.164062 14.265625 21.210938 14.464844 21.210938 C 14.75 21.210938 14.992188 21.109375 15.195312 20.90625 C 15.394531 20.707031 15.496094 20.460938 15.496094 20.175781 C 15.496094 19.980469 15.449219 19.804688 15.351562 19.644531 C 15.308594 19.574219 15.253906 19.507812 15.195312 19.445312 C 14.992188 19.246094 14.75 19.144531 14.464844 19.144531 C 14.175781 19.144531 13.933594 19.246094 13.730469 19.445312 C 13.53125 19.648438 13.429688 19.890625 13.429688 20.175781 Z M 18.136719 17.390625 C 18.136719 17.195312 18.089844 17.019531 17.992188 16.859375 C 17.949219 16.789062 17.898438 16.722656 17.835938 16.660156 C 17.632812 16.460938 17.390625 16.359375 17.105469 16.359375 C 16.820312 16.359375 16.578125 16.460938 16.375 16.660156 C 16.171875 16.863281 16.070312 17.105469 16.070312 17.390625 C 16.070312 17.675781 16.171875 17.921875 16.375 18.121094 C 16.4375 18.183594 16.503906 18.238281 16.578125 18.28125 C 16.730469 18.378906 16.910156 18.425781 17.105469 18.425781 C 17.390625 18.425781 17.632812 18.324219 17.835938 18.121094 C 18.039062 17.921875 18.136719 17.675781 18.136719 17.390625 Z M 3.164062 8.304688 C 2.960938 8.503906 2.863281 8.75 2.863281 9.035156 C 2.863281 9.320312 2.960938 9.5625 3.164062 9.765625 C 3.226562 9.828125 3.292969 9.882812 3.367188 9.925781 C 3.519531 10.019531 3.699219 10.066406 3.894531 10.066406 C 4.179688 10.066406 4.421875 9.964844 4.625 9.765625 C 4.828125 9.5625 4.929688 9.320312 4.929688 9.035156 C 4.929688 8.835938 4.878906 8.660156 4.785156 8.503906 C 4.742188 8.429688 4.6875 8.363281 4.625 8.304688 C 4.421875 8.101562 4.179688 8 3.894531 8 C 3.609375 8 3.367188 8.101562 3.164062 8.304688 Z M 3.164062 11.089844 C 2.960938 11.289062 2.863281 11.535156 2.863281 11.820312 C 2.863281 12.105469 2.960938 12.347656 3.164062 12.550781 C 3.226562 12.613281 3.292969 12.667969 3.367188 12.710938 C 3.519531 12.804688 3.699219 12.855469 3.894531 12.855469 C 4.179688 12.855469 4.421875 12.75 4.625 12.550781 C 4.828125 12.347656 4.929688 12.105469 4.929688 11.820312 C 4.929688 11.625 4.878906 11.445312 4.785156 11.289062 C 4.742188 11.21875 4.6875 11.148438 4.625 11.089844 C 4.421875 10.886719 4.179688 10.785156 3.894531 10.785156 C 3.609375 10.785156 3.367188 10.886719 3.164062 11.089844 Z M 10.070312 5.71875 C 10.023438 5.644531 9.972656 5.578125 9.910156 5.515625 C 9.707031 5.3125 9.464844 5.214844 9.179688 5.214844 C 8.894531 5.214844 8.648438 5.3125 8.449219 5.515625 C 8.246094 5.71875 8.144531 5.964844 8.144531 6.25 C 8.144531 6.53125 8.246094 6.777344 8.449219 6.976562 C 8.511719 7.042969 8.578125 7.09375 8.648438 7.136719 C 8.804688 7.234375 8.984375 7.28125 9.179688 7.28125 C 9.464844 7.28125 9.707031 7.179688 9.910156 6.976562 C 10.109375 6.777344 10.214844 6.53125 10.214844 6.25 C 10.214844 6.050781 10.164062 5.875 10.070312 5.71875 Z M 7.425781 8.503906 C 7.382812 8.429688 7.328125 8.363281 7.265625 8.304688 C 7.066406 8.101562 6.824219 8 6.539062 8 C 6.25 8 6.007812 8.101562 5.804688 8.304688 C 5.605469 8.503906 5.503906 8.75 5.503906 9.035156 C 5.503906 9.320312 5.605469 9.5625 5.804688 9.765625 C 5.867188 9.828125 5.933594 9.882812 6.007812 9.925781 C 6.164062 10.019531 6.339844 10.066406 6.539062 10.066406 C 6.824219 10.066406 7.066406 9.964844 7.265625 9.765625 C 7.46875 9.5625 7.570312 9.320312 7.570312 9.035156 C 7.570312 8.835938 7.523438 8.660156 7.425781 8.503906 Z M 5.804688 11.089844 C 5.605469 11.289062 5.503906 11.535156 5.503906 11.820312 C 5.503906 12.105469 5.605469 12.347656 5.804688 12.550781 C 5.867188 12.613281 5.9375 12.667969 6.007812 12.710938 C 6.164062 12.804688 6.339844 12.855469 6.539062 12.855469 C 6.824219 12.855469 7.066406 12.75 7.265625 12.550781 C 7.46875 12.347656 7.570312 12.105469 7.570312 11.820312 C 7.570312 11.625 7.523438 11.445312 7.425781 11.289062 C 7.382812 11.21875 7.328125 11.148438 7.265625 11.089844 C 7.066406 10.886719 6.824219 10.785156 6.539062 10.785156 C 6.25 10.785156 6.007812 10.886719 5.804688 11.089844 Z M 10.070312 11.289062 C 10.027344 11.21875 9.972656 11.152344 9.910156 11.089844 C 9.707031 10.886719 9.464844 10.785156 9.179688 10.785156 C 8.894531 10.785156 8.648438 10.886719 8.449219 11.089844 C 8.246094 11.289062 8.144531 11.535156 8.144531 11.820312 C 8.144531 12.105469 8.246094 12.347656 8.449219 12.550781 C 8.511719 12.613281 8.578125 12.667969 8.648438 12.710938 C 8.804688 12.804688 8.984375 12.855469 9.179688 12.855469 C 9.464844 12.855469 9.707031 12.75 9.910156 12.550781 C 10.109375 12.347656 10.214844 12.105469 10.214844 11.820312 C 10.214844 11.625 10.164062 11.445312 10.070312 11.289062 Z M 10.070312 14.074219 C 10.027344 14.003906 9.972656 13.9375 9.910156 13.875 C 9.707031 13.671875 9.464844 13.570312 9.179688 13.570312 C 8.894531 13.570312 8.648438 13.671875 8.449219 13.875 C 8.246094 14.078125 8.144531 14.320312 8.144531 14.605469 C 8.144531 14.890625 8.246094 15.132812 8.449219 15.335938 C 8.511719 15.398438 8.578125 15.453125 8.648438 15.496094 C 8.804688 15.59375 8.984375 15.640625 9.179688 15.640625 C 9.464844 15.640625 9.707031 15.539062 9.910156 15.335938 C 10.109375 15.132812 10.214844 14.890625 10.214844 14.605469 C 10.214844 14.410156 10.164062 14.234375 10.070312 14.074219 Z M 7.425781 14.074219 C 7.382812 14.003906 7.328125 13.9375 7.265625 13.875 C 7.066406 13.671875 6.824219 13.570312 6.539062 13.570312 C 6.25 13.570312 6.007812 13.671875 5.804688 13.875 C 5.605469 14.078125 5.503906 14.320312 5.503906 14.605469 C 5.503906 14.890625 5.605469 15.132812 5.804688 15.335938 C 5.867188 15.398438 5.933594 15.453125 6.007812 15.496094 C 6.164062 15.59375 6.339844 15.640625 6.539062 15.640625 C 6.824219 15.640625 7.066406 15.539062 7.265625 15.335938 C 7.46875 15.132812 7.570312 14.890625 7.570312 14.605469 C 7.570312 14.410156 7.523438 14.234375 7.425781 14.074219 Z M 4.785156 14.074219 C 4.742188 14.003906 4.6875 13.9375 4.625 13.875 C 4.421875 13.671875 4.179688 13.570312 3.894531 13.570312 C 3.609375 13.570312 3.367188 13.671875 3.164062 13.875 C 2.960938 14.078125 2.863281 14.320312 2.863281 14.605469 C 2.863281 14.890625 2.960938 15.132812 3.164062 15.335938 C 3.226562 15.398438 3.292969 15.453125 3.367188 15.496094 C 3.519531 15.59375 3.699219 15.640625 3.894531 15.640625 C 4.179688 15.640625 4.421875 15.539062 4.625 15.335938 C 4.828125 15.132812 4.929688 14.890625 4.929688 14.605469 C 4.929688 14.410156 4.878906 14.234375 4.785156 14.074219 Z M 7.570312 17.390625 C 7.570312 17.195312 7.523438 17.019531 7.425781 16.859375 C 7.382812 16.789062 7.328125 16.722656 7.265625 16.660156 C 7.066406 16.460938 6.824219 16.359375 6.539062 16.359375 C 6.25 16.359375 6.007812 16.460938 5.804688 16.660156 C 5.605469 16.863281 5.503906 17.105469 5.503906 17.390625 C 5.503906 17.675781 5.605469 17.921875 5.804688 18.121094 C 5.867188 18.183594 5.933594 18.238281 6.007812 18.28125 C 6.164062 18.378906 6.339844 18.425781 6.539062 18.425781 C 6.824219 18.425781 7.066406 18.324219 7.265625 18.121094 C 7.46875 17.921875 7.570312 17.675781 7.570312 17.390625 Z M 10.070312 16.859375 C 10.027344 16.789062 9.972656 16.722656 9.910156 16.660156 C 9.707031 16.460938 9.464844 16.359375 9.179688 16.359375 C 8.894531 16.359375 8.648438 16.460938 8.449219 16.660156 C 8.246094 16.863281 8.144531 17.105469 8.144531 17.390625 C 8.144531 17.675781 8.246094 17.921875 8.449219 18.121094 C 8.511719 18.183594 8.578125 18.238281 8.648438 18.28125 C 8.804688 18.378906 8.984375 18.425781 9.179688 18.425781 C 9.464844 18.425781 9.707031 18.324219 9.910156 18.121094 C 10.109375 17.921875 10.214844 17.675781 10.214844 17.390625 C 10.214844 17.195312 10.164062 17.019531 10.070312 16.859375 Z M 10.070312 16.859375 "/>
</g>
</svg>
