
<svg xmlns="http://www.w3.org/2000/svg" xmlns:xlink="http://www.w3.org/1999/xlink" width="24px" height="24px" viewBox="0 0 24 24" version="1.1">
<defs>
<clipPath id="clip1">
  <path d="M 6.046875 14.53125 L 21.046875 14.53125 L 21.046875 19.640625 L 6.046875 19.640625 Z M 6.046875 14.53125 "/>
</clipPath>
<clipPath id="clip2">
  <path d="M 27.949219 12.035156 C 27.949219 20.808594 20.832031 27.914062 12.066406 27.914062 C 3.300781 27.914062 -3.8125 20.808594 -3.8125 12.035156 C -3.8125 3.261719 3.300781 -3.847656 12.066406 -3.847656 C 20.832031 -3.847656 27.949219 3.261719 27.949219 12.035156 Z M 27.949219 12.035156 "/>
</clipPath>
<clipPath id="clip3">
  <path d="M 9.046875 4.40625 L 21.046875 4.40625 L 21.046875 14.578125 L 9.046875 14.578125 Z M 9.046875 4.40625 "/>
</clipPath>
<clipPath id="clip4">
  <path d="M 27.949219 12.035156 C 27.949219 20.808594 20.832031 27.914062 12.066406 27.914062 C 3.300781 27.914062 -3.8125 20.808594 -3.8125 12.035156 C -3.8125 3.261719 3.300781 -3.847656 12.066406 -3.847656 C 20.832031 -3.847656 27.949219 3.261719 27.949219 12.035156 Z M 27.949219 12.035156 "/>
</clipPath>
<clipPath id="clip5">
  <path d="M 3.046875 4.40625 L 12.09375 4.40625 L 12.09375 19.640625 L 3.046875 19.640625 Z M 3.046875 4.40625 "/>
</clipPath>
<clipPath id="clip6">
  <path d="M 27.949219 12.035156 C 27.949219 20.808594 20.832031 27.914062 12.066406 27.914062 C 3.300781 27.914062 -3.8125 20.808594 -3.8125 12.035156 C -3.8125 3.261719 3.300781 -3.847656 12.066406 -3.847656 C 20.832031 -3.847656 27.949219 3.261719 27.949219 12.035156 Z M 27.949219 12.035156 "/>
</clipPath>
</defs>
<g id="surface1">
<path style="fill-rule:nonzero;fill:rgb(100%,100%,100%);fill-opacity:1;stroke-width:27.082432;stroke-linecap:butt;stroke-linejoin:miter;stroke:rgb(24.313725%,52.54902%,98.431373%);stroke-opacity:1;stroke-miterlimit:4;" d="M 88.333333 34.166667 L 423.666667 34.166667 C 453.583333 34.166667 477.833333 58.416667 477.833333 88.333333 L 477.833333 423.666667 C 477.833333 453.583333 453.583333 477.833333 423.666667 477.833333 L 88.333333 477.833333 C 58.416667 477.833333 34.166667 453.583333 34.166667 423.666667 L 34.166667 88.333333 C 34.166667 58.416667 58.416667 34.166667 88.333333 34.166667 Z M 88.333333 34.166667 " transform="matrix(0.046875,0,0,0.046875,0,0)"/>
<g clip-path="url(#clip1)" clip-rule="nonzero">
<g clip-path="url(#clip2)" clip-rule="nonzero">
<path style=" stroke:none;fill-rule:evenodd;fill:rgb(24.313725%,52.54902%,98.431373%);fill-opacity:1;" d="M 9.078125 14.566406 L 21.042969 14.566406 L 18.050781 19.628906 L 6.082031 19.628906 M 9.078125 14.566406 "/>
</g>
</g>
<g clip-path="url(#clip3)" clip-rule="nonzero">
<g clip-path="url(#clip4)" clip-rule="nonzero">
<path style=" stroke:none;fill-rule:evenodd;fill:rgb(98.431373%,81.176471%,29.411765%);fill-opacity:1;" d="M 21.042969 14.566406 L 15.058594 4.4375 L 9.078125 4.4375 L 15.058594 14.566406 M 21.042969 14.566406 "/>
</g>
</g>
<g clip-path="url(#clip5)" clip-rule="nonzero">
<g clip-path="url(#clip6)" clip-rule="nonzero">
<path style=" stroke:none;fill-rule:evenodd;fill:rgb(3.921569%,63.921569%,37.254902%);fill-opacity:1;" d="M 6.082031 19.628906 L 12.066406 9.5 L 9.078125 4.4375 L 3.089844 14.566406 M 6.082031 19.628906 "/>
</g>
</g>
</g>
</svg>
