
<svg xmlns="http://www.w3.org/2000/svg" xmlns:xlink="http://www.w3.org/1999/xlink" width="24px" height="24px" viewBox="0 0 24 24" version="1.1">
<g id="surface1">
<path style="fill-rule:nonzero;fill:rgb(39.607843%,59.607843%,0%);fill-opacity:1;stroke-width:55.679031;stroke-linecap:butt;stroke-linejoin:miter;stroke:rgb(94.901961%,94.901961%,94.901961%);stroke-opacity:1;stroke-miterlimit:4;" d="M 167.333333 56 L 856.666667 56 C 918.166667 56 968 105.833333 968 167.333333 L 968 856.666667 C 968 918.166667 918.166667 968 856.666667 968 L 167.333333 968 C 105.833333 968 56 918.166667 56 856.666667 L 56 167.333333 C 56 105.833333 105.833333 56 167.333333 56 Z M 167.333333 56 " transform="matrix(0.0234375,0,0,0.0234375,0,0)"/>
<path style=" stroke:none;fill-rule:evenodd;fill:rgb(94.901961%,94.901961%,94.901961%);fill-opacity:1;" d="M 20.820312 11.976562 C 20.820312 7.128906 16.894531 3.203125 12.050781 3.203125 C 7.203125 3.203125 3.277344 7.128906 3.277344 11.976562 C 3.277344 16.820312 7.203125 20.75 12.050781 20.75 C 16.894531 20.75 20.820312 16.820312 20.820312 11.976562 Z M 20.820312 11.976562 "/>
<path style=" stroke:none;fill-rule:nonzero;fill:rgb(39.607843%,59.607843%,0%);fill-opacity:1;" d="M 11.359375 21.394531 C 10.90625 21.351562 10.707031 21.328125 10.515625 21.296875 C 8.914062 21.046875 7.511719 20.433594 6.261719 19.441406 C 4.570312 18.09375 3.410156 16.355469 2.917969 14.4375 C 2.695312 13.570312 2.628906 12.996094 2.628906 11.984375 C 2.628906 11.152344 2.652344 10.84375 2.773438 10.191406 C 3.160156 8.085938 4.246094 6.242188 5.964844 4.773438 C 7.683594 3.300781 9.714844 2.5625 12.03125 2.558594 C 14.648438 2.558594 16.859375 3.472656 18.703125 5.320312 C 20.371094 6.992188 21.265625 8.921875 21.441406 11.242188 C 21.476562 11.703125 21.457031 12.71875 21.40625 13.132812 C 21.113281 15.519531 20.058594 17.496094 18.210938 19.113281 C 16.761719 20.386719 15.132812 21.113281 13.199219 21.351562 C 12.90625 21.386719 11.601562 21.417969 11.359375 21.394531 Z M 15.960938 12.550781 C 17.789062 6.460938 17.859375 6.210938 17.816406 6.179688 C 17.777344 6.152344 17.488281 6.148438 16.03125 6.152344 C 15.074219 6.15625 14.285156 6.167969 14.277344 6.175781 C 14.269531 6.183594 13.761719 8.070312 13.152344 10.371094 C 12.542969 12.667969 12.035156 14.554688 12.03125 14.5625 C 12.023438 14.566406 12.011719 14.542969 12 14.503906 C 11.992188 14.46875 11.53125 12.582031 10.976562 10.316406 C 10.421875 8.050781 9.960938 6.1875 9.949219 6.179688 C 9.929688 6.15625 6.5625 6.140625 6.449219 6.160156 C 6.390625 6.171875 6.371094 6.1875 6.371094 6.226562 C 6.371094 6.28125 9.90625 18.789062 9.9375 18.855469 C 9.960938 18.894531 10.078125 18.898438 12.011719 18.890625 L 14.058594 18.886719 Z M 15.960938 12.550781 "/>
</g>
</svg>
