
<svg xmlns="http://www.w3.org/2000/svg" xmlns:xlink="http://www.w3.org/1999/xlink" width="24px" height="24px" viewBox="0 0 24 24" version="1.1">
<g id="surface1">
<path style="fill-rule:nonzero;fill:rgb(90.588235%,29.803922%,23.529412%);fill-opacity:1;stroke-width:2.634141;stroke-linecap:butt;stroke-linejoin:miter;stroke:rgb(90.588235%,53.72549%,49.803922%);stroke-opacity:1;stroke-miterlimit:4;" d="M 7.695312 2.421875 L 40.304686 2.421875 C 43.218749 2.421875 45.578124 4.78125 45.578124 7.695312 L 45.578124 40.304686 C 45.578124 43.218749 43.218749 45.578124 40.304686 45.578124 L 7.695312 45.578124 C 4.78125 45.578124 2.421875 43.218749 2.421875 40.304686 L 2.421875 7.695312 C 2.421875 4.78125 4.78125 2.421875 7.695312 2.421875 Z M 7.695312 2.421875 " transform="matrix(0.5,0,0,0.5,0,0)"/>
<path style=" stroke:none;fill-rule:nonzero;fill:rgb(100%,100%,100%);fill-opacity:1;" d="M 5.511719 8.449219 L 7.523438 8.449219 L 9.75 12.761719 L 12.082031 8.171875 L 14.492188 12.796875 L 16.640625 8.449219 L 18.632812 8.449219 L 14.535156 16.375 L 12.101562 11.285156 L 9.660156 16.375 Z M 5.511719 8.449219 "/>
</g>
</svg>
