
<svg xmlns="http://www.w3.org/2000/svg" xmlns:xlink="http://www.w3.org/1999/xlink" width="24px" height="24px" viewBox="0 0 24 24" version="1.1">
<g id="surface1">
<path style=" stroke:none;fill-rule:nonzero;fill:rgb(0%,50.196078%,50.196078%);fill-opacity:1;" d="M 2.480469 1.472656 L 21.519531 1.472656 C 22.074219 1.472656 22.527344 1.925781 22.527344 2.480469 L 22.527344 21.519531 C 22.527344 22.074219 22.074219 22.527344 21.519531 22.527344 L 2.480469 22.527344 C 1.925781 22.527344 1.472656 22.074219 1.472656 21.519531 L 1.472656 2.480469 C 1.472656 1.925781 1.925781 1.472656 2.480469 1.472656 Z M 2.480469 1.472656 "/>
<path style=" stroke:none;fill-rule:nonzero;fill:rgb(100%,100%,100%);fill-opacity:1;" d="M 4.6875 4.722656 L 4.6875 6.605469 C 4.703125 6.613281 4.714844 6.621094 4.730469 6.628906 L 7.996094 8.757812 C 8.144531 8.855469 8.144531 9.015625 7.996094 9.113281 L 4.730469 11.242188 C 4.714844 11.253906 4.703125 11.257812 4.6875 11.265625 L 4.6875 13.152344 C 4.78125 13.128906 4.867188 13.09375 4.941406 13.046875 L 10.359375 9.515625 L 10.359375 8.410156 C 10.359375 8.394531 10.359375 8.378906 10.363281 8.359375 L 4.941406 4.824219 C 4.867188 4.777344 4.78125 4.742188 4.6875 4.722656 Z M 4.6875 4.722656 "/>
<path style=" stroke:none;fill-rule:nonzero;fill:rgb(100%,100%,100%);fill-opacity:1;" d="M 7.480469 13.679688 L 13.664062 13.679688 L 13.664062 15.433594 L 7.480469 15.433594 Z M 7.480469 13.679688 "/>
</g>
</svg>
