
<svg xmlns="http://www.w3.org/2000/svg" xmlns:xlink="http://www.w3.org/1999/xlink" width="24px" height="24px" viewBox="0 0 24 24" version="1.1">
<g id="surface1">
<path style=" stroke:none;fill-rule:evenodd;fill:rgb(57.647059%,67.45098%,61.568627%);fill-opacity:1;" d="M 3.46875 1.179688 L 20.429688 1.179688 C 21.8125 1.179688 22.933594 2.300781 22.933594 3.683594 L 22.933594 20.644531 C 22.933594 22.027344 21.8125 23.148438 20.429688 23.148438 L 3.46875 23.148438 C 2.085938 23.148438 0.964844 22.027344 0.964844 20.644531 L 0.964844 3.683594 C 0.964844 2.300781 2.085938 1.179688 3.46875 1.179688 Z M 3.46875 1.179688 "/>
<path style=" stroke:none;fill-rule:evenodd;fill:rgb(90.196078%,90.196078%,90.196078%);fill-opacity:1;" d="M 7.492188 12.675781 L 16.820312 12.675781 C 18.039062 12.675781 19.027344 13.664062 19.027344 14.882812 L 19.027344 18.851562 C 19.027344 20.070312 18.039062 21.054688 16.820312 21.054688 L 7.492188 21.054688 C 6.273438 21.054688 5.285156 20.070312 5.285156 18.851562 L 5.285156 14.882812 C 5.285156 13.664062 6.273438 12.675781 7.492188 12.675781 Z M 7.492188 12.675781 "/>
<path style=" stroke:none;fill-rule:nonzero;fill:rgb(61.960784%,66.27451%,67.45098%);fill-opacity:1;" d="M 7.796875 18.175781 C 7.542969 18.085938 7.375 17.945312 7.273438 17.738281 C 6.984375 17.144531 7.40625 16.46875 8.066406 16.46875 C 8.890625 16.46875 9.253906 17.457031 8.628906 18.003906 C 8.378906 18.222656 8.09375 18.285156 7.796875 18.175781 Z M 7.796875 18.175781 "/>
<path style=" stroke:none;fill-rule:nonzero;fill:rgb(61.960784%,66.27451%,67.45098%);fill-opacity:1;" d="M 15.757812 18.175781 C 15.539062 18.09375 15.339844 17.910156 15.238281 17.683594 C 14.972656 17.113281 15.398438 16.46875 16.039062 16.46875 C 16.707031 16.46875 17.132812 17.167969 16.820312 17.753906 C 16.628906 18.117188 16.132812 18.316406 15.757812 18.175781 Z M 15.757812 18.175781 "/>
<path style=" stroke:none;fill-rule:evenodd;fill:rgb(100%,83.529412%,83.529412%);fill-opacity:1;" d="M 7.957031 12.351562 L 16.222656 12.351562 C 18.542969 12.351562 20.421875 12.996094 20.421875 13.789062 L 20.421875 13.839844 C 20.421875 14.636719 18.542969 15.28125 16.222656 15.28125 L 7.957031 15.28125 C 5.636719 15.28125 3.757812 14.636719 3.757812 13.839844 L 3.757812 13.789062 C 3.757812 12.996094 5.636719 12.351562 7.957031 12.351562 Z M 7.957031 12.351562 "/>
<path style=" stroke:none;fill-rule:nonzero;fill:rgb(80.392157%,3.529412%,3.529412%);fill-opacity:1;" d="M 3.257812 14.320312 C 3.097656 14.070312 2.828125 12.082031 2.953125 12.082031 C 2.96875 12.082031 3.121094 12.125 3.289062 12.175781 C 3.742188 12.3125 4.261719 12.28125 4.65625 12.097656 C 5.449219 11.726562 5.90625 10.878906 5.769531 10.042969 C 5.621094 9.148438 4.902344 8.476562 4.03125 8.417969 C 3.835938 8.402344 3.667969 8.375 3.65625 8.355469 C 3.621094 8.296875 4.09375 7.398438 4.421875 6.898438 C 5.554688 5.183594 7.210938 3.90625 9.140625 3.261719 C 13.449219 1.816406 18.144531 3.742188 20.207031 7.796875 C 20.460938 8.300781 20.46875 8.40625 20.246094 8.40625 C 20.050781 8.40625 19.597656 8.570312 19.386719 8.714844 C 18.820312 9.109375 18.519531 9.671875 18.519531 10.332031 C 18.519531 11.210938 19.070312 11.949219 19.910156 12.191406 C 20.167969 12.269531 20.667969 12.265625 21.039062 12.191406 L 21.191406 12.160156 L 21.160156 12.609375 C 21.128906 13.113281 20.933594 14.1875 20.851562 14.3125 C 20.800781 14.390625 20.472656 14.390625 12.058594 14.398438 C 3.359375 14.40625 3.3125 14.40625 3.257812 14.320312 Z M 3.257812 14.320312 "/>
<path style=" stroke:none;fill-rule:nonzero;fill:rgb(100%,100%,100%);fill-opacity:1;" d="M 13.136719 11.601562 C 14.257812 11.261719 15.125 10.546875 15.652344 9.53125 C 15.960938 8.933594 16.042969 8.589844 16.070312 7.828125 C 16.09375 7.125 16.027344 6.710938 15.796875 6.144531 C 15.453125 5.292969 14.691406 4.480469 13.847656 4.054688 C 12.976562 3.613281 11.796875 3.527344 10.835938 3.828125 C 9.441406 4.269531 8.378906 5.449219 8.082031 6.886719 C 8.027344 7.144531 8.015625 7.382812 8.035156 7.851562 C 8.0625 8.585938 8.148438 8.941406 8.453125 9.53125 C 9.027344 10.636719 9.988281 11.378906 11.234375 11.664062 C 11.640625 11.757812 12.734375 11.722656 13.136719 11.601562 Z M 13.136719 11.601562 "/>
<path style=" stroke:none;fill-rule:evenodd;fill:rgb(100%,100%,100%);fill-opacity:1;" d="M 20.15625 12.339844 C 19.230469 12.207031 18.523438 11.34375 18.527344 10.347656 C 18.53125 9.351562 19.199219 8.570312 20.222656 8.355469 C 20.351562 8.328125 20.390625 8.3125 20.402344 8.324219 C 20.414062 8.335938 20.523438 8.527344 20.59375 8.722656 C 20.945312 9.679688 21.234375 11.085938 21.203125 11.933594 C 21.191406 12.265625 21.1875 12.277344 21.09375 12.304688 C 20.921875 12.347656 20.371094 12.371094 20.15625 12.339844 Z M 20.15625 12.339844 "/>
<path style=" stroke:none;fill-rule:evenodd;fill:rgb(100%,100%,100%);fill-opacity:1;" d="M 3.679688 12.246094 C 3.46875 12.222656 3.039062 12.109375 2.996094 12.0625 C 2.976562 12.046875 2.96875 12.015625 2.964844 11.949219 C 2.953125 11.789062 3.007812 10.960938 3.058594 10.578125 C 3.117188 10.101562 3.289062 9.414062 3.515625 8.746094 C 3.574219 8.566406 3.628906 8.402344 3.636719 8.378906 L 3.652344 8.335938 L 3.78125 8.34375 C 4.144531 8.367188 4.289062 8.390625 4.496094 8.460938 C 4.769531 8.554688 4.992188 8.699219 5.210938 8.921875 C 5.488281 9.207031 5.65625 9.527344 5.746094 9.941406 C 5.789062 10.136719 5.789062 10.484375 5.746094 10.679688 C 5.59375 11.375 5.101562 11.945312 4.46875 12.160156 C 4.25 12.234375 3.910156 12.269531 3.679688 12.246094 Z M 3.679688 12.246094 "/>
</g>
</svg>
