
<svg xmlns="http://www.w3.org/2000/svg" xmlns:xlink="http://www.w3.org/1999/xlink" width="128px" height="128px" viewBox="0 0 128 128" version="1.1">
<g id="surface1">
<path style="fill-rule:nonzero;fill:rgb(80%,80%,80%);fill-opacity:1;stroke-width:1;stroke-linecap:butt;stroke-linejoin:miter;stroke:rgb(23.137255%,20.392157%,20.392157%);stroke-opacity:1;stroke-miterlimit:4;" d="M 309.890625 42.4375 C 287.15625 42.4375 268.4375 63.34375 264.71875 90.96875 L 444.59375 90.96875 C 440.875 63.34375 422.171875 42.4375 399.453125 42.4375 Z M 309.890625 42.4375 " transform="matrix(0.25,0,0,0.25,0,0)"/>
<path style=" stroke:none;fill-rule:nonzero;fill:#A9A9A9;fill-opacity:1;" d="M 16.484375 24.6875 L 111.515625 24.6875 C 119.03125 24.6875 125.125 30.796875 125.125 38.332031 L 125.125 86.207031 C 125.125 93.742188 119.03125 99.851562 111.515625 99.851562 L 16.484375 99.851562 C 8.96875 99.851562 2.875 93.742188 2.875 86.207031 L 2.875 38.332031 C 2.875 30.796875 8.96875 24.6875 16.484375 24.6875 Z M 16.484375 24.6875 "/>
<path style=" stroke:none;fill-rule:nonzero;fill:#A9A9A9;fill-opacity:1;" d="M 16.484375 42.226562 L 111.515625 42.226562 C 119.03125 42.226562 125.125 48.335938 125.125 55.871094 L 125.125 103.746094 C 125.125 111.28125 119.03125 117.390625 111.515625 117.390625 L 16.484375 117.390625 C 8.96875 117.390625 2.875 111.28125 2.875 103.746094 L 2.875 55.871094 C 2.875 48.335938 8.96875 42.226562 16.484375 42.226562 Z M 16.484375 42.226562 "/>
<path style=" stroke:none;fill-rule:evenodd;fill:rgb(100%,100%,100%);fill-opacity:1;" d="M 63.097656 34.152344 C 53.957031 34.152344 46.597656 41.140625 46.597656 49.816406 L 46.597656 65.484375 L 40 65.484375 L 40 96.816406 L 88.402344 96.816406 L 88.402344 65.484375 L 81.800781 65.484375 L 81.800781 49.816406 C 81.800781 41.140625 74.445312 34.152344 65.300781 34.152344 Z M 64.199219 42.503906 C 69.074219 42.503906 73 46.234375 73 50.863281 C 73 50.878906 72.996094 50.890625 72.996094 50.90625 L 73 50.90625 L 73 65.484375 L 55.402344 65.484375 L 55.402344 50.90625 L 55.40625 50.90625 C 55.40625 50.890625 55.402344 50.878906 55.402344 50.863281 C 55.402344 46.234375 59.320312 42.503906 64.199219 42.503906 Z M 64.050781 71.203125 C 67.554688 71.203125 70.394531 74.042969 70.394531 77.546875 C 70.398438 79.960938 69.023438 82.171875 66.859375 83.238281 L 70.546875 93.464844 L 57.683594 93.464844 L 61.355469 83.285156 C 59.128906 82.242188 57.707031 80.007812 57.703125 77.546875 C 57.703125 74.042969 60.546875 71.203125 64.050781 71.203125 Z M 64.050781 71.203125 "/>
</g>
</svg>
