<?xml version="1.0" encoding="UTF-8"?>
<svg xmlns="http://www.w3.org/2000/svg" xmlns:xlink="http://www.w3.org/1999/xlink" width="512pt" height="512pt" viewBox="0 0 512 512" version="1.1">
<g id="surface1">
<path style="fill-rule:nonzero;fill:rgb(100%,100%,100%);fill-opacity:1;stroke-width:28.282129;stroke-linecap:butt;stroke-linejoin:miter;stroke:rgb(13.333333%,21.176471%,33.72549%);stroke-opacity:1;stroke-miterlimit:4;" d="M 80.921873 24.355468 L 431.078117 24.355468 C 462.320303 24.355468 487.644522 49.679687 487.644522 80.921873 L 487.644522 431.078117 C 487.644522 462.320303 462.320303 487.644522 431.078117 487.644522 L 80.921873 487.644522 C 49.679687 487.644522 24.355468 462.320303 24.355468 431.078117 L 24.355468 80.921873 C 24.355468 49.679687 49.679687 24.355468 80.921873 24.355468 Z M 80.921873 24.355468 " transform="matrix(1,0,0,1,0,0)"/>
<path style=" stroke:none;fill-rule:evenodd;fill:rgb(13.333333%,21.176471%,33.72549%);fill-opacity:1;" d="M 193.054688 209.886719 L 319.367188 209.886719 L 319.367188 434.753906 L 193.054688 434.753906 Z M 193.054688 209.886719 "/>
<path style="fill:none;stroke-width:26.238472;stroke-linecap:square;stroke-linejoin:miter;stroke:rgb(100%,100%,100%);stroke-opacity:1;stroke-miterlimit:2.012602;" d="M 302.804682 291.105463 C 302.804682 267.937495 284.824213 249.156245 262.64062 249.156245 C 240.460933 249.156245 222.476558 267.937495 222.476558 291.105463 C 222.476558 314.269525 240.460933 333.050775 262.64062 333.050775 C 284.824213 333.050775 302.804682 314.269525 302.804682 291.105463 " transform="matrix(1,0,0,1,0,0)"/>
<path style="fill:none;stroke-width:26.394171;stroke-linecap:square;stroke-linejoin:miter;stroke:rgb(83.137255%,10.196078%,10.196078%);stroke-opacity:1;stroke-miterlimit:2.012602;" d="M 326.015619 163.960934 C 308.570306 143.660153 283.082026 132.058591 256.312495 132.242185 C 229.546871 132.425779 204.218746 144.371091 187.050778 164.906247 " transform="matrix(1,0,0,1,0,0)"/>
<path style="fill:none;stroke-width:26.394171;stroke-linecap:square;stroke-linejoin:miter;stroke:rgb(83.137255%,10.196078%,10.196078%);stroke-opacity:1;stroke-miterlimit:2;" d="M 370.24218 125.292966 C 341.554681 91.914061 299.640619 72.839842 255.628901 73.140624 C 211.617183 73.437499 169.96484 93.082029 141.738278 126.85156 " transform="matrix(1,0,0,1,0,0)"/>
</g>
</svg>
