
<svg xmlns="http://www.w3.org/2000/svg" xmlns:xlink="http://www.w3.org/1999/xlink" width="32px" height="32px" viewBox="0 0 32 32" version="1.1">
<g id="surface1">
<path style=" stroke:none;fill-rule:nonzero;fill:rgb(92.54902%,91.372549%,84.705882%);fill-opacity:1;" d="M 8.578125 1.726562 C 6.417969 1.726562 4.675781 3.46875 4.675781 5.628906 L 4.675781 26.371094 C 4.675781 28.53125 6.417969 30.273438 8.578125 30.273438 L 23.421875 30.273438 C 25.582031 30.273438 27.324219 28.53125 27.324219 26.371094 L 27.324219 6.355469 L 16.558594 1.726562 Z M 23.820312 1.746094 C 24.085938 1.773438 24.339844 1.828125 24.585938 1.902344 C 24.339844 1.828125 24.085938 1.773438 23.820312 1.746094 Z M 24.585938 1.902344 C 24.953125 2.015625 25.292969 2.183594 25.605469 2.390625 C 25.292969 2.183594 24.953125 2.015625 24.585938 1.902344 Z M 25.90625 2.617188 C 26.003906 2.695312 26.09375 2.78125 26.183594 2.867188 C 26.09375 2.78125 26.003906 2.695312 25.90625 2.617188 Z M 25.90625 2.617188 "/>
<path style=" stroke:none;fill-rule:nonzero;fill:rgb(100%,100%,100%);fill-opacity:0.682353;" d="M 27.324219 6.355469 L 16.558594 1.726562 L 16.558594 2.453125 C 16.558594 4.613281 18.300781 6.355469 20.460938 6.355469 Z M 27.324219 6.355469 "/>
<path style=" stroke:none;fill-rule:nonzero;fill:rgb(0%,0%,0%);fill-opacity:0.611765;" d="M 13.320312 20.050781 C 13.320312 20.40625 13.410156 20.660156 13.59375 20.820312 C 13.78125 20.980469 14.050781 21.0625 14.40625 21.070312 L 14.40625 21.796875 C 13.808594 21.789062 13.34375 21.640625 13.015625 21.34375 C 12.6875 21.050781 12.523438 20.636719 12.523438 20.105469 L 12.523438 18.53125 C 12.523438 18.171875 12.425781 17.914062 12.226562 17.761719 C 12.027344 17.605469 11.738281 17.527344 11.363281 17.527344 L 11.363281 16.796875 C 11.773438 16.789062 12.066406 16.707031 12.25 16.546875 C 12.433594 16.386719 12.523438 16.140625 12.523438 15.808594 L 12.523438 14.21875 C 12.523438 13.683594 12.695312 13.265625 13.035156 12.96875 C 13.375 12.671875 13.832031 12.519531 14.40625 12.519531 L 14.40625 13.242188 C 13.679688 13.265625 13.320312 13.609375 13.320312 14.277344 L 13.320312 15.808594 C 13.320312 16.554688 12.96875 16.992188 12.265625 17.128906 L 12.265625 17.191406 C 12.96875 17.324219 13.320312 17.765625 13.320312 18.507812 L 13.320312 20.050781 "/>
<path style=" stroke:none;fill-rule:nonzero;fill:rgb(0%,0%,0%);fill-opacity:0.611765;" d="M 19.726562 17.128906 C 19.023438 16.992188 18.671875 16.554688 18.671875 15.808594 L 18.671875 14.277344 C 18.671875 13.609375 18.3125 13.265625 17.597656 13.242188 L 17.597656 12.519531 C 18.175781 12.519531 18.632812 12.671875 18.964844 12.972656 C 19.296875 13.273438 19.464844 13.691406 19.464844 14.21875 L 19.464844 15.808594 C 19.464844 16.144531 19.558594 16.390625 19.742188 16.550781 C 19.929688 16.707031 20.226562 16.789062 20.636719 16.796875 L 20.636719 17.527344 C 20.253906 17.527344 19.960938 17.605469 19.761719 17.761719 C 19.5625 17.914062 19.464844 18.171875 19.464844 18.53125 L 19.464844 20.105469 C 19.464844 20.632812 19.304688 21.046875 18.976562 21.339844 C 18.65625 21.636719 18.195312 21.789062 17.597656 21.796875 L 17.597656 21.070312 C 17.949219 21.0625 18.214844 20.980469 18.398438 20.820312 C 18.578125 20.660156 18.671875 20.40625 18.671875 20.050781 L 18.671875 18.507812 C 18.671875 18.113281 18.757812 17.8125 18.929688 17.605469 C 19.105469 17.398438 19.367188 17.257812 19.726562 17.191406 L 19.726562 17.128906 "/>
</g>
</svg>
