
<svg xmlns="http://www.w3.org/2000/svg" xmlns:xlink="http://www.w3.org/1999/xlink" width="32px" height="32px" viewBox="0 0 32 32" version="1.1">
<g id="surface1">
<path style=" stroke:none;fill-rule:nonzero;fill:rgb(87.843137%,29.411765%,14.901961%);fill-opacity:1;" d="M 8.578125 1.726562 C 6.417969 1.726562 4.675781 3.46875 4.675781 5.628906 L 4.675781 26.371094 C 4.675781 28.53125 6.417969 30.273438 8.578125 30.273438 L 23.421875 30.273438 C 25.582031 30.273438 27.324219 28.53125 27.324219 26.371094 L 27.324219 6.355469 L 16.558594 1.726562 Z M 23.820312 1.746094 C 24.085938 1.773438 24.339844 1.828125 24.585938 1.902344 C 24.339844 1.828125 24.085938 1.773438 23.820312 1.746094 Z M 24.585938 1.902344 C 24.953125 2.015625 25.292969 2.183594 25.605469 2.390625 C 25.292969 2.183594 24.953125 2.015625 24.585938 1.902344 Z M 25.90625 2.617188 C 26.003906 2.695312 26.09375 2.78125 26.183594 2.867188 C 26.09375 2.78125 26.003906 2.695312 25.90625 2.617188 Z M 25.90625 2.617188 "/>
<path style=" stroke:none;fill-rule:nonzero;fill:rgb(100%,100%,100%);fill-opacity:0.682353;" d="M 27.324219 6.355469 L 16.558594 1.726562 L 16.558594 2.453125 C 16.558594 4.613281 18.300781 6.355469 20.460938 6.355469 Z M 27.324219 6.355469 "/>
<path style=" stroke:none;fill-rule:evenodd;fill:rgb(100%,100%,100%);fill-opacity:1;" d="M 14.554688 19.433594 C 14.554688 19.433594 14.132812 19.664062 14.855469 19.742188 C 15.726562 19.835938 16.171875 19.824219 17.132812 19.652344 C 17.132812 19.652344 17.386719 19.800781 17.738281 19.929688 C 15.585938 20.808594 12.863281 19.878906 14.554688 19.433594 "/>
<path style=" stroke:none;fill-rule:evenodd;fill:rgb(100%,100%,100%);fill-opacity:1;" d="M 14.292969 18.289062 C 14.292969 18.289062 13.820312 18.621094 14.539062 18.691406 C 15.472656 18.78125 16.207031 18.789062 17.480469 18.558594 C 17.480469 18.558594 17.65625 18.726562 17.933594 18.820312 C 15.328125 19.542969 12.429688 18.875 14.292969 18.289062 "/>
<path style=" stroke:none;fill-rule:evenodd;fill:rgb(100%,100%,100%);fill-opacity:1;" d="M 16.511719 16.351562 C 17.042969 16.929688 16.371094 17.453125 16.371094 17.453125 C 16.371094 17.453125 17.71875 16.792969 17.101562 15.96875 C 16.523438 15.195312 16.078125 14.8125 18.480469 13.492188 C 18.480469 13.492188 14.710938 14.386719 16.511719 16.351562 "/>
<path style=" stroke:none;fill-rule:evenodd;fill:rgb(100%,100%,100%);fill-opacity:1;" d="M 19.359375 20.277344 C 19.359375 20.277344 19.671875 20.519531 19.015625 20.707031 C 17.773438 21.066406 13.84375 21.171875 12.75 20.722656 C 12.355469 20.558594 13.09375 20.335938 13.324219 20.289062 C 13.566406 20.238281 13.703125 20.246094 13.703125 20.246094 C 13.269531 19.957031 10.882812 20.820312 12.492188 21.066406 C 16.886719 21.742188 20.5 20.765625 19.359375 20.277344 "/>
<path style=" stroke:none;fill-rule:evenodd;fill:rgb(100%,100%,100%);fill-opacity:1;" d="M 14.757812 17.105469 C 14.757812 17.105469 12.757812 17.554688 14.050781 17.71875 C 14.59375 17.789062 15.683594 17.773438 16.695312 17.691406 C 17.523438 17.625 18.355469 17.484375 18.355469 17.484375 C 18.355469 17.484375 18.0625 17.605469 17.851562 17.742188 C 15.820312 18.246094 11.894531 18.011719 13.027344 17.492188 C 13.980469 17.054688 14.757812 17.105469 14.757812 17.105469 "/>
<path style=" stroke:none;fill-rule:evenodd;fill:rgb(100%,100%,100%);fill-opacity:1;" d="M 18.34375 19.007812 C 20.410156 17.988281 19.453125 17.011719 18.789062 17.144531 C 18.625 17.175781 18.550781 17.203125 18.550781 17.203125 C 18.550781 17.203125 18.613281 17.113281 18.730469 17.074219 C 20.046875 16.636719 21.0625 18.371094 18.304688 19.058594 C 18.304688 19.058594 18.335938 19.03125 18.34375 19.007812 "/>
<path style=" stroke:none;fill-rule:evenodd;fill:rgb(100%,100%,100%);fill-opacity:1;" d="M 17.101562 11.363281 C 17.101562 11.363281 18.242188 12.445312 16.015625 14.113281 C 14.230469 15.453125 15.609375 16.214844 16.015625 17.085938 C 14.972656 16.195312 14.207031 15.410156 14.71875 14.679688 C 15.472656 13.605469 17.5625 13.085938 17.101562 11.363281 "/>
<path style=" stroke:none;fill-rule:evenodd;fill:rgb(100%,100%,100%);fill-opacity:1;" d="M 14.960938 21.765625 C 16.941406 21.882812 19.984375 21.699219 20.058594 20.808594 C 20.058594 20.808594 19.917969 21.144531 18.417969 21.414062 C 16.726562 21.714844 14.640625 21.679688 13.40625 21.488281 C 13.40625 21.488281 13.65625 21.683594 14.960938 21.765625 "/>
</g>
</svg>
