
<svg xmlns="http://www.w3.org/2000/svg" xmlns:xlink="http://www.w3.org/1999/xlink" width="32px" height="32px" viewBox="0 0 32 32" version="1.1">
<g id="surface1">
<path style=" stroke:none;fill-rule:nonzero;fill:rgb(5.882353%,63.137255%,37.254902%);fill-opacity:1;" d="M 8.578125 1.726562 C 6.417969 1.726562 4.675781 3.46875 4.675781 5.628906 L 4.675781 26.371094 C 4.675781 28.53125 6.417969 30.273438 8.578125 30.273438 L 23.421875 30.273438 C 25.582031 30.273438 27.324219 28.53125 27.324219 26.371094 L 27.324219 6.355469 L 16.558594 1.726562 Z M 23.820312 1.746094 C 24.085938 1.773438 24.339844 1.828125 24.585938 1.902344 C 24.339844 1.828125 24.085938 1.773438 23.820312 1.746094 Z M 24.585938 1.902344 C 24.953125 2.015625 25.292969 2.183594 25.605469 2.390625 C 25.292969 2.183594 24.953125 2.015625 24.585938 1.902344 Z M 25.90625 2.617188 C 26.003906 2.695312 26.09375 2.78125 26.183594 2.867188 C 26.09375 2.78125 26.003906 2.695312 25.90625 2.617188 Z M 25.90625 2.617188 "/>
<path style=" stroke:none;fill-rule:nonzero;fill:rgb(100%,100%,100%);fill-opacity:0.682353;" d="M 27.324219 6.355469 L 16.558594 1.726562 L 16.558594 2.453125 C 16.558594 4.613281 18.300781 6.355469 20.460938 6.355469 Z M 27.324219 6.355469 "/>
<path style=" stroke:none;fill-rule:evenodd;fill:rgb(100%,100%,100%);fill-opacity:1;" d="M 21.796875 13.101562 L 9.042969 22.957031 C 10.203125 22.957031 10.257812 22.917969 11.363281 22.957031 L 11.363281 21.796875 L 11.941406 21.796875 L 11.941406 22.957031 L 13.101562 22.957031 L 13.101562 21.796875 L 13.679688 21.796875 L 13.679688 22.957031 L 14.839844 22.957031 L 14.839844 21.796875 L 15.421875 21.796875 L 15.421875 22.957031 L 16.578125 22.957031 L 16.578125 21.796875 L 17.160156 21.796875 L 17.160156 22.957031 L 18.320312 22.957031 L 18.320312 21.796875 L 18.898438 21.796875 L 18.898438 22.957031 L 20.058594 22.957031 L 20.058594 21.796875 L 20.636719 21.796875 L 20.636719 22.957031 L 21.796875 22.957031 Z M 20.636719 15.421875 L 20.636719 20.636719 L 14.261719 20.636719 Z M 20.636719 15.421875 "/>
</g>
</svg>
