
<svg xmlns="http://www.w3.org/2000/svg" xmlns:xlink="http://www.w3.org/1999/xlink" width="32px" height="32px" viewBox="0 0 32 32" version="1.1">
<defs>
<clipPath id="clip1">
  <path d="M 16 18 L 24 18 L 24 26 L 16 26 Z M 16 18 "/>
</clipPath>
<clipPath id="clip2">
  <path d="M 19.617188 11.644531 C 15.960938 9.53125 11.285156 10.785156 9.171875 14.441406 C 7.058594 18.097656 8.3125 22.777344 11.972656 24.886719 C 15.628906 27 20.304688 25.746094 22.417969 22.089844 C 24.527344 18.433594 23.273438 13.753906 19.617188 11.644531 Z M 16.835938 16.460938 C 17.835938 17.035156 18.175781 18.3125 17.601562 19.308594 C 17.023438 20.304688 15.75 20.648438 14.75 20.070312 C 13.753906 19.496094 13.414062 18.21875 13.988281 17.222656 C 14.5625 16.226562 15.839844 15.882812 16.835938 16.460938 Z M 16.835938 16.460938 "/>
</clipPath>
<clipPath id="clip3">
  <path d="M 8 11 L 16 11 L 16 19 L 8 19 Z M 8 11 "/>
</clipPath>
<clipPath id="clip4">
  <path d="M 12 24.960938 C 15.660156 27.070312 20.335938 25.816406 22.449219 22.160156 C 24.558594 18.503906 23.304688 13.828125 19.648438 11.714844 C 15.992188 9.605469 11.316406 10.855469 9.203125 14.515625 C 7.089844 18.171875 8.34375 22.847656 12 24.960938 Z M 14.78125 20.144531 C 13.785156 19.566406 13.441406 18.292969 14.019531 17.292969 C 14.59375 16.296875 15.871094 15.957031 16.867188 16.53125 C 17.867188 17.109375 18.207031 18.382812 17.632812 19.378906 C 17.054688 20.378906 15.78125 20.71875 14.78125 20.144531 Z M 14.78125 20.144531 "/>
</clipPath>
</defs>
<g id="surface1">
<path style=" stroke:none;fill-rule:nonzero;fill:rgb(80%,80%,80%);fill-opacity:1;" d="M 8.578125 1.726562 C 6.417969 1.726562 4.675781 3.46875 4.675781 5.628906 L 4.675781 26.371094 C 4.675781 28.53125 6.417969 30.273438 8.578125 30.273438 L 23.421875 30.273438 C 25.582031 30.273438 27.324219 28.53125 27.324219 26.371094 L 27.324219 6.355469 L 16.558594 1.726562 Z M 23.820312 1.746094 C 24.085938 1.773438 24.339844 1.828125 24.585938 1.902344 C 24.339844 1.828125 24.085938 1.773438 23.820312 1.746094 Z M 24.585938 1.902344 C 24.953125 2.015625 25.292969 2.183594 25.605469 2.390625 C 25.292969 2.183594 24.953125 2.015625 24.585938 1.902344 Z M 25.90625 2.617188 C 26.003906 2.695312 26.09375 2.78125 26.183594 2.867188 C 26.09375 2.78125 26.003906 2.695312 25.90625 2.617188 Z M 25.90625 2.617188 "/>
<path style=" stroke:none;fill-rule:nonzero;fill:rgb(100%,100%,100%);fill-opacity:0.682353;" d="M 27.324219 6.355469 L 16.558594 1.726562 L 16.558594 2.453125 C 16.558594 4.613281 18.300781 6.355469 20.460938 6.355469 Z M 27.324219 6.355469 "/>
<path style="fill-rule:nonzero;fill:rgb(50.196078%,50.196078%,50.196078%);fill-opacity:1;stroke-width:0.143376;stroke-linecap:butt;stroke-linejoin:miter;stroke:rgb(83.137255%,83.137255%,83.137255%);stroke-opacity:1;stroke-miterlimit:4;" d="M 29.425781 17.466797 C 23.941406 14.296875 16.927734 16.177734 13.757812 21.662109 C 10.587891 27.146484 12.46875 34.166016 17.958984 37.330078 C 23.443359 40.5 30.457031 38.619141 33.626953 33.134766 C 36.791016 27.650391 34.910156 20.630859 29.425781 17.466797 Z M 25.253906 24.691406 C 26.753906 25.552734 27.263672 27.46875 26.402344 28.962891 C 25.535156 30.457031 23.625 30.972656 22.125 30.105469 C 20.630859 29.244141 20.121094 27.328125 20.982422 25.833984 C 21.84375 24.339844 23.759766 23.824219 25.253906 24.691406 Z M 25.253906 24.691406 " transform="matrix(0.666667,0,0,0.666667,0,0)"/>
<g clip-path="url(#clip1)" clip-rule="nonzero">
<g clip-path="url(#clip2)" clip-rule="nonzero">
<path style=" stroke:none;fill-rule:evenodd;fill:rgb(94.901961%,94.901961%,94.901961%);fill-opacity:1;" d="M 17.011719 18.101562 L 24.683594 19.394531 L 21.160156 25.5 L 16.066406 18.914062 Z M 17.011719 18.101562 "/>
</g>
</g>
<g clip-path="url(#clip3)" clip-rule="nonzero">
<g clip-path="url(#clip4)" clip-rule="nonzero">
<path style=" stroke:none;fill-rule:evenodd;fill:rgb(94.901961%,94.901961%,94.901961%);fill-opacity:1;" d="M 14.609375 18.503906 L 6.9375 17.207031 L 10.460938 11.105469 L 15.554688 17.6875 Z M 14.609375 18.503906 "/>
</g>
</g>
<path style="fill-rule:nonzero;fill:rgb(100%,100%,100%);fill-opacity:1;stroke-width:0.253932;stroke-linecap:butt;stroke-linejoin:miter;stroke:rgb(90.588235%,90.588235%,90.588235%);stroke-opacity:1;stroke-miterlimit:4;" d="M 26.138672 23.15625 C 23.794922 21.802734 20.800781 22.605469 19.453125 24.949219 C 18.099609 27.292969 18.902344 30.287109 21.240234 31.640625 C 23.583984 32.994141 26.578125 32.191406 27.931641 29.847656 C 29.285156 27.503906 28.482422 24.509766 26.138672 23.15625 Z M 24.990234 25.148438 C 26.232422 25.863281 26.660156 27.457031 25.939453 28.699219 C 25.224609 29.941406 23.636719 30.369141 22.394531 29.648438 C 21.146484 28.933594 20.724609 27.339844 21.439453 26.097656 C 22.160156 24.855469 23.748047 24.427734 24.990234 25.148438 Z M 24.990234 25.148438 " transform="matrix(0.666667,0,0,0.666667,0,0)"/>
</g>
</svg>
