
<svg xmlns="http://www.w3.org/2000/svg" xmlns:xlink="http://www.w3.org/1999/xlink" width="32px" height="32px" viewBox="0 0 32 32" version="1.1">
<g id="surface1">
<path style=" stroke:none;fill-rule:nonzero;fill:rgb(50.196078%,50.196078%,50.196078%);fill-opacity:1;" d="M 8.578125 1.726562 C 6.417969 1.726562 4.675781 3.46875 4.675781 5.628906 L 4.675781 26.371094 C 4.675781 28.53125 6.417969 30.273438 8.578125 30.273438 L 23.421875 30.273438 C 25.582031 30.273438 27.324219 28.53125 27.324219 26.371094 L 27.324219 6.355469 L 16.558594 1.726562 Z M 23.820312 1.746094 C 24.085938 1.773438 24.339844 1.828125 24.585938 1.902344 C 24.339844 1.828125 24.085938 1.773438 23.820312 1.746094 Z M 24.585938 1.902344 C 24.953125 2.015625 25.292969 2.183594 25.605469 2.390625 C 25.292969 2.183594 24.953125 2.015625 24.585938 1.902344 Z M 25.90625 2.617188 C 26.003906 2.695312 26.09375 2.78125 26.183594 2.867188 C 26.09375 2.78125 26.003906 2.695312 25.90625 2.617188 Z M 25.90625 2.617188 "/>
<path style=" stroke:none;fill-rule:nonzero;fill:rgb(100%,100%,100%);fill-opacity:0.682353;" d="M 27.324219 6.355469 L 16.558594 1.726562 L 16.558594 2.453125 C 16.558594 4.613281 18.300781 6.355469 20.460938 6.355469 Z M 27.324219 6.355469 "/>
<path style=" stroke:none;fill-rule:nonzero;fill:rgb(100%,100%,100%);fill-opacity:1;" d="M 12.207031 13.332031 C 11.996094 13.355469 12 13.445312 12 13.792969 L 12 17.332031 C 12 16.597656 12.597656 16 13.332031 16 C 14.070312 16 14.667969 16.597656 14.667969 17.332031 C 14.667969 18.070312 14.070312 18.667969 13.332031 18.667969 C 12.597656 18.667969 12 18.070312 12 17.332031 L 12 20.832031 C 12 21.335938 12 21.332031 12.5 21.332031 L 16 21.332031 C 15.261719 21.332031 14.667969 20.738281 14.667969 20 C 14.667969 19.261719 15.261719 18.667969 16 18.667969 C 16.738281 18.667969 17.332031 19.261719 17.332031 20 C 17.332031 20.738281 16.738281 21.332031 16 21.332031 L 19.5 21.332031 C 20.003906 21.332031 20 21.332031 20 20.832031 L 20 13.832031 C 20 13.332031 20 13.332031 19.5 13.332031 L 12.5 13.332031 C 12.375 13.332031 12.277344 13.324219 12.207031 13.332031 Z M 12.207031 13.332031 "/>
<path style=" stroke:none;fill-rule:nonzero;fill:rgb(100%,100%,100%);fill-opacity:1;" d="M 17.332031 12 C 17.332031 12.738281 16.734375 13.332031 16 13.332031 C 15.261719 13.332031 14.667969 12.738281 14.667969 12 C 14.667969 11.265625 15.261719 10.667969 16 10.667969 C 16.734375 10.667969 17.332031 11.265625 17.332031 12 Z M 17.332031 12 "/>
<path style=" stroke:none;fill-rule:nonzero;fill:rgb(100%,100%,100%);fill-opacity:1;" d="M 22.667969 17.335938 C 22.667969 18.070312 22.070312 18.667969 21.332031 18.667969 C 20.597656 18.667969 20 18.070312 20 17.335938 C 20 16.597656 20.597656 16 21.332031 16 C 22.070312 16 22.667969 16.597656 22.667969 17.335938 Z M 22.667969 17.335938 "/>
</g>
</svg>
