
<svg xmlns="http://www.w3.org/2000/svg" xmlns:xlink="http://www.w3.org/1999/xlink" width="16px" height="16px" viewBox="0 0 16 16" version="1.1">
<g id="surface1">
<path style="fill-rule:nonzero;fill:rgb(100%,100%,100%);fill-opacity:1;stroke-width:36.786812;stroke-linecap:butt;stroke-linejoin:miter;stroke:rgb(21.568627%,67.058824%,78.431373%);stroke-opacity:1;stroke-miterlimit:4;" d="M 112.724157 40.554212 L 568.090026 40.554212 C 608.809765 40.554212 641.749717 73.494164 641.749717 114.213904 L 641.749717 569.579772 C 641.749717 610.299512 608.809765 643.239464 568.090026 643.239464 L 112.724157 643.239464 C 72.004418 643.239464 39.064466 610.299512 39.064466 569.579772 L 39.064466 114.213904 C 39.064466 73.494164 72.004418 40.554212 112.724157 40.554212 Z M 112.724157 40.554212 " transform="matrix(0.0235988,0,0,0.0235988,0,0)"/>
<path style=" stroke:none;fill-rule:evenodd;fill:rgb(21.568627%,67.058824%,78.431373%);fill-opacity:1;" d="M 2.167969 8.476562 C 2.296875 8.425781 2.449219 8.46875 2.578125 8.421875 C 2.707031 8.378906 2.933594 8.203125 2.933594 8.203125 C 2.695312 7.523438 2.46875 6.84375 2.390625 6.101562 C 2.390625 6.101562 3.550781 6.226562 4.101562 6.179688 C 4.4375 6.148438 4.746094 5.980469 5.085938 5.984375 C 5.355469 5.984375 5.59375 6.1875 5.863281 6.203125 C 6.546875 6.246094 7.140625 5.828125 7.898438 5.796875 C 8.367188 5.777344 8.71875 6.417969 9.1875 6.371094 C 9.722656 6.320312 10.257812 6.167969 10.796875 6.148438 C 11.132812 6.136719 11.464844 6.097656 11.792969 6.050781 C 12.070312 6.015625 12.339844 5.929688 12.621094 5.910156 C 12.742188 5.898438 12.992188 5.921875 12.992188 5.921875 C 13.105469 6.300781 13.082031 6.65625 13.0625 7.011719 C 12.3125 7.519531 11.546875 8.027344 10.988281 8.535156 C 11.160156 8.816406 11.445312 9.042969 11.792969 9.097656 L 12.488281 9.203125 C 12.613281 9.523438 12.414062 9.789062 12.25 9.960938 C 12.25 9.960938 11.964844 9.878906 11.816406 9.863281 C 11.355469 9.820312 10.886719 9.839844 10.425781 9.910156 C 10.03125 9.972656 9.578125 9.976562 9.277344 10.234375 C 8.171875 11.179688 6.644531 13.796875 6.609375 13.761719 L 5.933594 15.085938 L 2.066406 15.050781 L 1.050781 13.863281 L 0.949219 9.320312 C 0.949219 9.320312 1.707031 8.652344 2.167969 8.476562 Z M 2.167969 8.476562 "/>
<path style=" stroke:none;fill-rule:evenodd;fill:rgb(100%,100%,100%);fill-opacity:1;" d="M 6.398438 7.621094 C 6.398438 7.621094 6.753906 7.195312 6.976562 7.035156 C 7.1875 6.882812 7.425781 6.746094 7.683594 6.6875 C 7.871094 6.644531 8.082031 6.628906 8.269531 6.6875 C 8.429688 6.738281 8.675781 6.804688 8.6875 6.976562 C 8.699219 7.085938 8.539062 7.140625 8.449219 7.203125 C 8.351562 7.269531 8.242188 7.324219 8.125 7.347656 C 7.960938 7.378906 7.789062 7.316406 7.621094 7.335938 C 7.207031 7.378906 6.398438 7.621094 6.398438 7.621094 Z M 6.398438 7.621094 "/>
</g>
</svg>
