<!-- color: #eea53a -->
<svg xmlns="http://www.w3.org/2000/svg" xmlns:xlink="http://www.w3.org/1999/xlink" width="16px" height="16px" viewBox="0 0 16 16" version="1.1">
<defs>
<clipPath id="clip1">
  <path d="M 3.5 2.84375 L 12.6875 2.84375 L 12.6875 11.15625 L 3.5 11.15625 Z M 3.5 2.84375 "/>
</clipPath>
<clipPath id="clip2">
  <path d="M 1.667969 0.332031 L 14.332031 0.332031 C 15.070312 0.332031 15.667969 0.929688 15.667969 1.664062 L 15.667969 14.332031 C 15.667969 15.070312 15.070312 15.664062 14.332031 15.664062 L 1.667969 15.664062 C 0.929688 15.664062 0.332031 15.070312 0.332031 14.332031 L 0.332031 1.664062 C 0.332031 0.929688 0.929688 0.332031 1.667969 0.332031 Z M 1.667969 0.332031 "/>
</clipPath>
</defs>
<g id="surface1">
<path style="fill-rule:nonzero;fill:rgb(93.333333%,63.921569%,21.176471%);fill-opacity:1;stroke-width:2.617475;stroke-linecap:butt;stroke-linejoin:miter;stroke:rgb(63.137255%,38.823529%,6.27451%);stroke-opacity:1;stroke-miterlimit:4;" d="M 7.792969 2.566406 L 40.20703 2.566406 C 43.089842 2.566406 45.433592 4.910156 45.433592 7.792969 L 45.433592 40.20703 C 45.433592 43.089842 43.089842 45.433592 40.20703 45.433592 L 7.792969 45.433592 C 4.910156 45.433592 2.566406 43.089842 2.566406 40.20703 L 2.566406 7.792969 C 2.566406 4.910156 4.910156 2.566406 7.792969 2.566406 Z M 7.792969 2.566406 " transform="matrix(0.333333,0,0,0.333333,0,0)"/>
<g clip-path="url(#clip1)" clip-rule="nonzero">
<g clip-path="url(#clip2)" clip-rule="nonzero">
<path style=" stroke:none;fill-rule:nonzero;fill:rgb(100%,100%,100%);fill-opacity:1;" d="M 7.996094 2.847656 C 7.355469 2.847656 6.835938 3.367188 6.835938 4.007812 C 6.835938 4.546875 7.214844 4.996094 7.714844 5.125 L 7.714844 5.722656 C 6.566406 5.859375 5.675781 6.832031 5.675781 8.019531 C 5.675781 8.339844 5.742188 8.644531 5.859375 8.921875 L 5.46875 9.148438 C 5.105469 8.789062 4.542969 8.699219 4.078125 8.964844 C 3.523438 9.285156 3.335938 9.992188 3.65625 10.546875 C 3.976562 11.101562 4.683594 11.292969 5.242188 10.972656 C 5.714844 10.695312 5.921875 10.140625 5.773438 9.636719 L 6.152344 9.421875 C 6.574219 9.980469 7.238281 10.34375 7.996094 10.34375 C 8.800781 10.34375 9.507812 9.9375 9.925781 9.3125 L 10.414062 9.59375 C 10.234375 10.109375 10.433594 10.691406 10.925781 10.972656 C 11.480469 11.292969 12.1875 11.105469 12.507812 10.550781 C 12.828125 9.996094 12.640625 9.285156 12.085938 8.964844 C 11.636719 8.707031 11.09375 8.785156 10.730469 9.117188 L 10.175781 8.804688 C 10.265625 8.558594 10.316406 8.296875 10.316406 8.023438 C 10.316406 6.84375 9.433594 5.867188 8.289062 5.722656 L 8.289062 5.128906 C 8.789062 4.996094 9.15625 4.550781 9.15625 4.007812 C 9.15625 3.367188 8.636719 2.851562 7.996094 2.851562 M 8.324219 6.621094 C 8.480469 6.621094 8.613281 6.636719 8.726562 6.675781 C 8.835938 6.714844 8.925781 6.769531 8.996094 6.828125 C 9.070312 6.894531 9.128906 6.96875 9.160156 7.046875 C 9.191406 7.121094 9.203125 7.199219 9.203125 7.273438 C 9.203125 7.40625 9.175781 7.519531 9.117188 7.621094 C 9.058594 7.726562 8.964844 7.820312 8.835938 7.894531 C 8.707031 7.964844 8.535156 8.015625 8.335938 8.054688 C 8.136719 8.097656 7.902344 8.121094 7.621094 8.121094 L 7.316406 8.121094 C 7.304688 8.183594 7.289062 8.234375 7.285156 8.292969 C 7.28125 8.355469 7.285156 8.417969 7.285156 8.46875 C 7.285156 8.65625 7.332031 8.800781 7.425781 8.902344 C 7.519531 9.003906 7.671875 9.042969 7.878906 9.042969 C 8 9.042969 8.109375 9.039062 8.207031 9.019531 C 8.304688 9.003906 8.386719 8.988281 8.457031 8.964844 C 8.527344 8.945312 8.585938 8.917969 8.628906 8.902344 C 8.675781 8.882812 8.710938 8.882812 8.726562 8.882812 C 8.742188 8.882812 8.753906 8.890625 8.761719 8.902344 C 8.769531 8.914062 8.769531 8.925781 8.769531 8.945312 C 8.769531 8.964844 8.773438 8.996094 8.769531 9.023438 C 8.765625 9.046875 8.757812 9.070312 8.75 9.097656 C 8.742188 9.125 8.730469 9.148438 8.714844 9.171875 C 8.703125 9.199219 8.699219 9.222656 8.683594 9.238281 C 8.660156 9.261719 8.625 9.28125 8.5625 9.304688 C 8.507812 9.324219 8.4375 9.347656 8.359375 9.367188 C 8.28125 9.386719 8.191406 9.398438 8.097656 9.414062 C 8.003906 9.425781 7.910156 9.421875 7.816406 9.421875 C 7.648438 9.421875 7.5 9.40625 7.371094 9.367188 C 7.246094 9.332031 7.140625 9.273438 7.058594 9.195312 C 6.972656 9.117188 6.902344 9.019531 6.863281 8.902344 C 6.820312 8.785156 6.808594 8.648438 6.808594 8.488281 C 6.808594 8.367188 6.816406 8.230469 6.839844 8.089844 C 6.867188 7.945312 6.898438 7.8125 6.949219 7.675781 C 7 7.539062 7.0625 7.402344 7.144531 7.273438 C 7.226562 7.148438 7.328125 7.035156 7.4375 6.9375 C 7.550781 6.839844 7.679688 6.769531 7.828125 6.710938 C 7.976562 6.648438 8.140625 6.621094 8.328125 6.621094 M 8.289062 6.992188 C 8.167969 6.992188 8.058594 7.011719 7.964844 7.054688 C 7.871094 7.097656 7.777344 7.148438 7.703125 7.21875 C 7.632812 7.289062 7.574219 7.382812 7.519531 7.480469 C 7.46875 7.574219 7.433594 7.664062 7.402344 7.773438 L 7.6875 7.773438 C 7.882812 7.773438 8.050781 7.761719 8.183594 7.738281 C 8.316406 7.714844 8.425781 7.679688 8.507812 7.640625 C 8.589844 7.589844 8.640625 7.542969 8.671875 7.488281 C 8.707031 7.425781 8.726562 7.375 8.726562 7.3125 C 8.726562 7.21875 8.683594 7.136719 8.605469 7.074219 C 8.53125 7.015625 8.433594 6.988281 8.292969 6.988281 M 8.289062 6.992188 "/>
</g>
</g>
</g>
</svg>
