
<svg xmlns="http://www.w3.org/2000/svg" xmlns:xlink="http://www.w3.org/1999/xlink" width="16px" height="16px" viewBox="0 0 16 16" version="1.1">
<g id="surface1">
<path style="fill-rule:nonzero;fill:rgb(100%,100%,100%);fill-opacity:1;stroke-width:28.191782;stroke-linecap:butt;stroke-linejoin:miter;stroke:rgb(24.705882%,14.509804%,33.333333%);stroke-opacity:1;stroke-miterlimit:4;" d="M 81.5 25.125 L 430.5 25.125 C 461.625 25.125 486.875 50.375 486.875 81.5 L 486.875 430.5 C 486.875 461.625 461.625 486.875 430.5 486.875 L 81.5 486.875 C 50.375 486.875 25.125 461.625 25.125 430.5 L 25.125 81.5 C 25.125 50.375 50.375 25.125 81.5 25.125 Z M 81.5 25.125 " transform="matrix(0.03125,0,0,0.03125,0,0)"/>
<path style=" stroke:none;fill-rule:nonzero;fill:rgb(66.666667%,80%,100%);fill-opacity:0.976471;" d="M 12.367188 10.273438 C 12.367188 12.65625 10.4375 14.589844 8.054688 14.589844 C 5.667969 14.589844 3.738281 12.65625 3.738281 10.273438 C 3.738281 7.890625 6.339844 4.554688 8.054688 1.589844 C 9.808594 4.632812 12.367188 7.890625 12.367188 10.273438 Z M 12.367188 10.273438 "/>
<path style=" stroke:none;fill-rule:nonzero;fill:rgb(4.313725%,9.019608%,15.686275%);fill-opacity:0.921569;" d="M 3.214844 8.296875 C 3.148438 8.523438 3.09375 8.691406 3.09375 8.9375 C 3.09375 10.355469 4.246094 11.503906 5.664062 11.503906 C 6.753906 11.503906 7.679688 10.824219 8.050781 9.863281 C 8.421875 10.824219 9.351562 11.503906 10.445312 11.503906 C 11.859375 11.503906 13.011719 10.355469 13.011719 8.9375 C 13.011719 8.691406 12.957031 8.523438 12.894531 8.296875 C 9.667969 7.910156 6.441406 7.910156 3.214844 8.296875 Z M 3.214844 8.296875 "/>
<path style=" stroke:none;fill-rule:nonzero;fill:rgb(83.529412%,89.803922%,100%);fill-opacity:0.129412;" d="M 8.054688 8.003906 C 6.441406 8.003906 4.828125 8.101562 3.214844 8.296875 C 3.164062 8.476562 3.121094 8.617188 3.101562 8.789062 C 6.402344 8.363281 9.703125 8.363281 13.003906 8.789062 C 12.988281 8.617188 12.941406 8.476562 12.890625 8.296875 C 11.277344 8.105469 9.667969 8.003906 8.054688 8.003906 Z M 8.054688 8.003906 "/>
<path style=" stroke:none;fill-rule:nonzero;fill:rgb(63.921569%,14.509804%,61.176471%);fill-opacity:0.290196;" d="M 7.433594 8.476562 C 6.171875 8.496094 4.910156 8.578125 3.648438 8.722656 C 3.640625 8.796875 3.632812 8.867188 3.632812 8.941406 C 3.632812 10.035156 4.519531 10.917969 5.609375 10.917969 C 6.703125 10.917969 7.585938 10.035156 7.585938 8.941406 C 7.585938 8.78125 7.5625 8.625 7.527344 8.476562 C 7.496094 8.476562 7.464844 8.476562 7.433594 8.476562 Z M 7.433594 8.476562 "/>
<path style=" stroke:none;fill-rule:nonzero;fill:rgb(63.921569%,14.509804%,61.176471%);fill-opacity:0.290196;" d="M 8.542969 8.476562 C 8.507812 8.625 8.484375 8.78125 8.484375 8.941406 C 8.484375 10.035156 9.363281 10.917969 10.457031 10.917969 C 11.546875 10.917969 12.433594 10.035156 12.433594 8.941406 C 12.433594 8.867188 12.425781 8.792969 12.417969 8.71875 C 11.125 8.570312 9.835938 8.492188 8.542969 8.476562 Z M 8.542969 8.476562 "/>
</g>
</svg>
