
<svg xmlns="http://www.w3.org/2000/svg" xmlns:xlink="http://www.w3.org/1999/xlink" width="16px" height="16px" viewBox="0 0 16 16" version="1.1">
<g id="surface1">
<path style="fill-rule:nonzero;fill:rgb(100%,100%,100%);fill-opacity:1;stroke-width:28.191782;stroke-linecap:butt;stroke-linejoin:miter;stroke:rgb(6.27451%,40.784314%,63.137255%);stroke-opacity:1;stroke-miterlimit:4;" d="M 81.5 25.125 L 430.5 25.125 C 461.625 25.125 486.875 50.375 486.875 81.5 L 486.875 430.5 C 486.875 461.625 461.625 486.875 430.5 486.875 L 81.5 486.875 C 50.375 486.875 25.125 461.625 25.125 430.5 L 25.125 81.5 C 25.125 50.375 50.375 25.125 81.5 25.125 Z M 81.5 25.125 " transform="matrix(0.03125,0,0,0.03125,0,0)"/>
<path style=" stroke:none;fill-rule:nonzero;fill:rgb(5.882353%,36.078431%,83.921569%);fill-opacity:1;" d="M 8.902344 13.960938 C 8.863281 13.953125 8.652344 13.863281 8.429688 13.757812 C 7.855469 13.484375 7.625 13.429688 7.023438 13.429688 C 6.113281 13.429688 5.9375 13.351562 5.519531 12.777344 C 5.382812 12.585938 5.367188 12.574219 5.183594 12.511719 C 4.851562 12.398438 4.558594 12.148438 4.414062 11.863281 C 4.339844 11.71875 4.328125 11.613281 4.355469 11.421875 C 4.375 11.304688 4.375 11.292969 4.324219 11.292969 C 4.199219 11.292969 3.960938 11.175781 3.839844 11.054688 C 3.699219 10.917969 3.578125 10.6875 3.558594 10.511719 L 3.546875 10.394531 L 3.269531 10.40625 C 2.855469 10.425781 2.59375 10.351562 2.367188 10.144531 C 2.207031 10 2.125 9.8125 2.125 9.589844 C 2.125 9.433594 2.136719 9.390625 2.203125 9.300781 C 2.246094 9.242188 2.304688 9.175781 2.332031 9.152344 C 2.410156 9.085938 2.585938 8.804688 2.648438 8.640625 C 2.679688 8.554688 2.734375 8.339844 2.773438 8.15625 C 2.8125 7.972656 2.875 7.757812 2.910156 7.675781 C 3.035156 7.417969 3.34375 7.257812 3.71875 7.253906 C 4.003906 7.253906 4.167969 7.3125 4.320312 7.464844 C 4.386719 7.535156 4.457031 7.589844 4.476562 7.589844 C 4.503906 7.589844 4.640625 7.363281 4.726562 7.171875 C 4.730469 7.160156 4.695312 7.125 4.640625 7.09375 C 4.527344 7.027344 4.484375 6.941406 4.484375 6.765625 C 4.484375 6.441406 4.652344 6.289062 5.261719 6.0625 C 5.457031 5.992188 5.492188 5.96875 5.609375 5.820312 C 5.832031 5.539062 6.109375 5.082031 6.464844 4.394531 C 6.652344 4.03125 6.871094 3.621094 6.949219 3.484375 C 7.027344 3.347656 7.144531 3.089844 7.214844 2.910156 C 7.382812 2.460938 7.429688 2.421875 7.933594 2.28125 C 8.789062 2.046875 9.035156 2.007812 9.378906 2.050781 C 9.972656 2.125 10.292969 2.359375 10.5625 2.914062 C 10.785156 3.375 10.832031 3.65625 10.75 4.089844 C 10.730469 4.210938 10.710938 4.476562 10.710938 4.679688 C 10.710938 5.085938 10.667969 5.347656 10.574219 5.535156 C 10.539062 5.601562 10.363281 5.800781 10.179688 5.984375 C 9.996094 6.164062 9.8125 6.367188 9.769531 6.429688 L 9.6875 6.546875 L 9.738281 6.726562 C 9.800781 6.96875 9.945312 7.257812 10.066406 7.390625 C 10.121094 7.453125 10.242188 7.558594 10.339844 7.632812 C 10.46875 7.726562 10.566406 7.828125 10.683594 8.003906 C 10.914062 8.339844 11.109375 8.464844 11.429688 8.488281 C 11.609375 8.5 11.617188 8.5 11.707031 8.40625 C 11.808594 8.308594 11.839844 8.21875 11.894531 7.902344 C 11.925781 7.71875 11.921875 7.699219 11.867188 7.589844 C 11.761719 7.386719 11.792969 7.3125 12.023438 7.222656 C 12.253906 7.132812 12.523438 7.183594 12.523438 7.320312 C 12.523438 7.351562 12.449219 7.480469 12.355469 7.605469 C 12.15625 7.882812 12.027344 8.144531 12.027344 8.277344 C 12.027344 8.472656 12.257812 8.636719 12.457031 8.585938 C 12.621094 8.546875 12.8125 8.425781 13.015625 8.234375 C 13.25 8.011719 13.363281 7.957031 13.566406 7.980469 C 13.761719 8.003906 13.867188 8.066406 13.867188 8.160156 C 13.867188 8.351562 13.660156 8.46875 13.222656 8.535156 C 12.828125 8.59375 12.679688 8.660156 12.476562 8.878906 C 12.164062 9.214844 12.097656 9.269531 11.90625 9.359375 C 11.625 9.496094 11.277344 9.546875 10.875 9.519531 C 10.417969 9.488281 10.25 9.496094 10.066406 9.550781 C 9.835938 9.617188 9.550781 9.621094 9.484375 9.554688 C 9.421875 9.492188 9.457031 9.433594 9.617188 9.347656 C 9.730469 9.289062 9.757812 9.285156 10.050781 9.300781 C 10.414062 9.316406 10.53125 9.285156 10.5625 9.164062 C 10.609375 8.980469 10.246094 8.503906 9.824219 8.1875 C 9.53125 7.96875 9.4375 7.875 9.335938 7.71875 C 9.28125 7.636719 9.238281 7.59375 9.222656 7.613281 C 9.210938 7.625 9.175781 7.796875 9.144531 7.992188 C 9.050781 8.628906 8.890625 9.082031 8.621094 9.484375 C 8.359375 9.878906 8.089844 10.101562 7.464844 10.453125 C 7.390625 10.496094 7.34375 10.539062 7.355469 10.550781 C 7.367188 10.5625 7.464844 10.597656 7.570312 10.632812 C 7.769531 10.699219 8.46875 11.03125 8.679688 11.167969 C 9.121094 11.445312 9.511719 11.910156 9.574219 12.230469 C 9.597656 12.359375 9.546875 12.507812 9.453125 12.582031 L 9.382812 12.640625 L 9.476562 12.625 C 9.644531 12.605469 9.976562 12.449219 10.1875 12.292969 C 10.359375 12.164062 10.40625 12.140625 10.507812 12.140625 C 10.648438 12.140625 10.738281 12.210938 10.738281 12.320312 C 10.738281 12.429688 10.621094 12.515625 10.402344 12.570312 C 10.292969 12.59375 10.109375 12.65625 9.996094 12.703125 C 9.761719 12.804688 9.429688 12.882812 8.8125 12.976562 C 8.351562 13.050781 8.214844 13.097656 8.214844 13.183594 C 8.214844 13.269531 8.300781 13.335938 8.519531 13.417969 C 9.105469 13.636719 9.285156 13.738281 9.285156 13.84375 C 9.285156 13.867188 9.265625 13.90625 9.242188 13.925781 C 9.199219 13.960938 9.007812 13.984375 8.902344 13.960938 Z M 8.902344 13.960938 "/>
</g>
</svg>
