
<svg xmlns="http://www.w3.org/2000/svg" xmlns:xlink="http://www.w3.org/1999/xlink" width="16px" height="16px" viewBox="0 0 16 16" version="1.1">
<g id="surface1">
<path style="fill-rule:nonzero;fill:rgb(100%,100%,100%);fill-opacity:1;stroke-width:28.191782;stroke-linecap:butt;stroke-linejoin:miter;stroke:rgb(6.27451%,63.137255%,52.941176%);stroke-opacity:1;stroke-miterlimit:4;" d="M 81.49999 635.644576 L 430.49999 635.644576 C 461.62499 635.644576 486.87499 660.894576 486.87499 692.019576 L 486.87499 1041.019576 C 486.87499 1072.144576 461.62499 1097.394576 430.49999 1097.394576 L 81.49999 1097.394576 C 50.37499 1097.394576 25.12499 1072.144576 25.12499 1041.019576 L 25.12499 692.019576 C 25.12499 660.894576 50.37499 635.644576 81.49999 635.644576 Z M 81.49999 635.644576 " transform="matrix(0.03125,0,0,0.03125,0.0000003125,-19.078737)"/>
<path style=" stroke:none;fill-rule:nonzero;fill:rgb(96.470588%,27.843137%,27.843137%);fill-opacity:1;" d="M 11.671875 8.011719 C 11.671875 10.171875 9.917969 11.925781 7.753906 11.925781 C 5.59375 11.925781 3.839844 10.171875 3.839844 8.011719 C 3.839844 5.847656 5.59375 4.097656 7.753906 4.097656 C 9.917969 4.097656 11.671875 5.847656 11.671875 8.011719 Z M 11.671875 8.011719 "/>
<path style=" stroke:none;fill-rule:nonzero;fill:rgb(10.588235%,63.921569%,61.176471%);fill-opacity:1;" d="M 7.753906 1.792969 L 7.753906 8.242188 L 12.117188 12.441406 C 13.304688 11.273438 13.972656 9.675781 13.972656 8.011719 C 13.972656 4.578125 11.1875 1.792969 7.753906 1.792969 Z M 7.753906 1.792969 "/>
<path style=" stroke:none;fill-rule:nonzero;fill:rgb(55.686275%,26.666667%,67.843137%);fill-opacity:1;" d="M 7.753906 8.242188 L 3.398438 12.4375 C 4.558594 13.582031 6.125 14.226562 7.753906 14.226562 Z M 7.753906 8.242188 "/>
<path style=" stroke:none;fill-rule:nonzero;fill:rgb(97.647059%,87.058824%,41.176471%);fill-opacity:1;" d="M 2.238281 8.242188 C 2.296875 9.644531 2.890625 10.976562 3.894531 11.957031 L 7.753906 8.242188 Z M 2.238281 8.242188 "/>
<path style=" stroke:none;fill-rule:nonzero;fill:rgb(32.156863%,70.196078%,85.098039%);fill-opacity:1;" d="M 7.753906 8.242188 L 7.753906 13.539062 C 9.199219 13.535156 10.585938 12.972656 11.617188 11.960938 Z M 7.753906 8.242188 "/>
</g>
</svg>
