
<svg xmlns="http://www.w3.org/2000/svg" xmlns:xlink="http://www.w3.org/1999/xlink" width="16px" height="16px" viewBox="0 0 16 16" version="1.1">
<g id="surface1">
<path style="fill-rule:nonzero;fill:rgb(100%,78.431373%,19.215686%);fill-opacity:1;stroke-width:28.191782;stroke-linecap:butt;stroke-linejoin:miter;stroke:rgb(60%,63.137255%,6.27451%);stroke-opacity:1;stroke-miterlimit:4;" d="M 81.5 25.125 L 430.5 25.125 C 461.625 25.125 486.875 50.375 486.875 81.5 L 486.875 430.5 C 486.875 461.625 461.625 486.875 430.5 486.875 L 81.5 486.875 C 50.375 486.875 25.125 461.625 25.125 430.5 L 25.125 81.5 C 25.125 50.375 50.375 25.125 81.5 25.125 Z M 81.5 25.125 " transform="matrix(0.03125,0,0,0.03125,0,0)"/>
<path style=" stroke:none;fill-rule:nonzero;fill:rgb(100%,100%,100%);fill-opacity:1;" d="M 2.859375 5.429688 C 2.613281 5.429688 2.613281 6.164062 2.859375 6.164062 L 13.140625 6.164062 C 13.386719 6.164062 13.386719 5.429688 13.140625 5.429688 Z M 2.859375 7.632812 C 2.613281 7.632812 2.613281 8.367188 2.859375 8.367188 C 5.820312 8.367188 10.246094 8.367188 13.140625 8.367188 C 13.386719 8.367188 13.386719 7.632812 13.140625 7.632812 C 9.875 7.632812 5.625 7.632812 2.859375 7.632812 Z M 2.859375 9.835938 C 2.613281 9.835938 2.613281 10.570312 2.859375 10.570312 C 4.421875 10.570312 6.785156 10.570312 8 10.570312 C 8.246094 10.570312 8.246094 9.835938 8 9.835938 C 6.757812 9.835938 4.488281 9.835938 2.859375 9.835938 Z M 2.859375 9.835938 "/>
<path style=" stroke:none;fill-rule:nonzero;fill:rgb(100%,91.372549%,66.666667%);fill-opacity:1;" d="M 14.734375 10.539062 L 10.328125 14.695312 L 10.328125 11.925781 C 10.328125 11.164062 10.984375 10.539062 11.796875 10.539062 Z M 14.734375 10.539062 "/>
<path style=" stroke:none;fill-rule:nonzero;fill:rgb(100%,100%,100%);fill-opacity:1;" d="M 10.328125 14.695312 L 14.734375 10.539062 L 14.734375 13.3125 C 14.734375 14.074219 14.078125 14.695312 13.265625 14.695312 Z M 10.328125 14.695312 "/>
</g>
</svg>
