
<svg xmlns="http://www.w3.org/2000/svg" xmlns:xlink="http://www.w3.org/1999/xlink" width="16px" height="16px" viewBox="0 0 16 16" version="1.1">
<g id="surface1">
<path style="fill-rule:nonzero;fill:rgb(12.941176%,40.392157%,47.058824%);fill-opacity:1;stroke-width:2.544986;stroke-linecap:butt;stroke-linejoin:miter;stroke:rgb(16.862745%,65.882353%,92.156863%);stroke-opacity:1;stroke-miterlimit:4;" d="M 8.25 3.152344 L 39.749999 3.152344 C 42.562499 3.152344 44.847655 5.4375 44.847655 8.25 L 44.847655 39.749999 C 44.847655 42.562499 42.562499 44.847655 39.749999 44.847655 L 8.25 44.847655 C 5.4375 44.847655 3.152344 42.562499 3.152344 39.749999 L 3.152344 8.25 C 3.152344 5.4375 5.4375 3.152344 8.25 3.152344 Z M 8.25 3.152344 " transform="matrix(0.333333,0,0,0.333333,0,0)"/>
<path style=" stroke:none;fill-rule:nonzero;fill:rgb(74.117647%,76.470588%,78.039216%);fill-opacity:1;" d="M 3.347656 3.347656 L 3.347656 5.671875 L 12.652344 5.671875 L 12.652344 3.347656 Z M 4.277344 3.8125 L 5.207031 3.8125 L 5.207031 5.207031 L 4.277344 5.207031 Z M 4.277344 3.8125 "/>
<path style=" stroke:none;fill-rule:nonzero;fill:rgb(74.117647%,76.470588%,78.039216%);fill-opacity:1;" d="M 3.347656 6.835938 L 3.347656 9.164062 L 12.652344 9.164062 L 12.652344 6.835938 Z M 4.277344 7.300781 L 5.207031 7.300781 L 5.207031 8.699219 L 4.277344 8.699219 Z M 4.277344 7.300781 "/>
<path style=" stroke:none;fill-rule:nonzero;fill:rgb(74.117647%,76.470588%,78.039216%);fill-opacity:1;" d="M 3.347656 10.328125 L 3.347656 12.652344 L 12.652344 12.652344 L 12.652344 10.328125 Z M 4.277344 10.792969 L 5.207031 10.792969 L 5.207031 12.1875 L 4.277344 12.1875 Z M 4.277344 10.792969 "/>
<path style=" stroke:none;fill-rule:nonzero;fill:rgb(92.54902%,94.117647%,94.509804%);fill-opacity:1;" d="M 11.023438 3.347656 L 11.023438 5.671875 L 12.652344 5.671875 L 12.652344 3.347656 Z M 11.023438 3.347656 "/>
<path style=" stroke:none;fill-rule:nonzero;fill:rgb(92.54902%,94.117647%,94.509804%);fill-opacity:1;" d="M 11.023438 6.835938 L 11.023438 9.164062 L 12.652344 9.164062 L 12.652344 6.835938 Z M 11.023438 6.835938 "/>
<path style=" stroke:none;fill-rule:nonzero;fill:rgb(92.54902%,94.117647%,94.509804%);fill-opacity:1;" d="M 11.023438 10.328125 L 11.023438 12.652344 L 12.652344 12.652344 L 12.652344 10.328125 Z M 11.023438 10.328125 "/>
<path style=" stroke:none;fill-rule:nonzero;fill:rgb(58.431373%,64.705882%,65.098039%);fill-opacity:1;" d="M 3.347656 3.347656 L 3.347656 5.671875 L 4.277344 5.671875 L 4.277344 3.347656 Z M 3.347656 3.347656 "/>
<path style=" stroke:none;fill-rule:nonzero;fill:rgb(58.431373%,64.705882%,65.098039%);fill-opacity:1;" d="M 3.347656 6.835938 L 3.347656 9.164062 L 4.277344 9.164062 L 4.277344 6.835938 Z M 3.347656 6.835938 "/>
<path style=" stroke:none;fill-rule:nonzero;fill:rgb(58.431373%,64.705882%,65.098039%);fill-opacity:1;" d="M 3.347656 10.328125 L 3.347656 12.652344 L 4.277344 12.652344 L 4.277344 10.328125 Z M 3.347656 10.328125 "/>
</g>
</svg>
