
<svg xmlns="http://www.w3.org/2000/svg" xmlns:xlink="http://www.w3.org/1999/xlink" width="16px" height="16px" viewBox="0 0 16 16" version="1.1">
<g id="surface1">
<path style="fill-rule:nonzero;fill:rgb(100%,100%,100%);fill-opacity:1;stroke-width:2.571234;stroke-linecap:butt;stroke-linejoin:miter;stroke:rgb(18.039216%,80%,44.313725%);stroke-opacity:1;stroke-miterlimit:4;" d="M 8.085937 2.941406 L 39.914061 2.941406 C 42.761717 2.941406 45.058592 5.238281 45.058592 8.085937 L 45.058592 39.914061 C 45.058592 42.761717 42.761717 45.058592 39.914061 45.058592 L 8.085937 45.058592 C 5.238281 45.058592 2.941406 42.761717 2.941406 39.914061 L 2.941406 8.085937 C 2.941406 5.238281 5.238281 2.941406 8.085937 2.941406 Z M 8.085937 2.941406 " transform="matrix(0.333333,0,0,0.333333,0,0)"/>
<path style=" stroke:none;fill-rule:nonzero;fill:rgb(18.039216%,80%,44.313725%);fill-opacity:1;" d="M 1.101562 4.015625 L 14.859375 4.015625 L 14.859375 5.214844 L 1.101562 5.214844 Z M 1.101562 4.015625 "/>
<path style=" stroke:none;fill-rule:nonzero;fill:rgb(18.039216%,80%,44.313725%);fill-opacity:1;" d="M 12.082031 0.996094 L 12.082031 14.753906 L 10.882812 14.753906 L 10.882812 0.996094 Z M 12.082031 0.996094 "/>
</g>
</svg>
