
<svg xmlns="http://www.w3.org/2000/svg" xmlns:xlink="http://www.w3.org/1999/xlink" width="16px" height="16px" viewBox="0 0 16 16" version="1.1">
<defs>
<clipPath id="clip1">
  <path d="M 1.875 1.96875 L 14.03125 1.96875 L 14.03125 14.125 L 1.875 14.125 Z M 1.875 1.96875 "/>
</clipPath>
<clipPath id="clip2">
  <path d="M 3.378906 1.984375 L 12.535156 1.984375 C 13.351562 1.984375 14.015625 2.648438 14.015625 3.464844 L 14.015625 12.621094 C 14.015625 13.4375 13.351562 14.101562 12.535156 14.101562 L 3.378906 14.101562 C 2.5625 14.101562 1.898438 13.4375 1.898438 12.621094 L 1.898438 3.464844 C 1.898438 2.648438 2.5625 1.984375 3.378906 1.984375 Z M 3.378906 1.984375 "/>
</clipPath>
</defs>
<g id="surface1">
<path style=" stroke:none;fill-rule:nonzero;fill:rgb(82.745098%,37.254902%,37.254902%);fill-opacity:1;" d="M 5.691406 2.90625 L 9.796875 2.90625 C 11.550781 2.90625 12.972656 4.328125 12.972656 6.082031 L 12.972656 10.546875 C 12.972656 12.300781 11.550781 13.722656 9.796875 13.722656 L 5.691406 13.722656 C 3.9375 13.722656 2.515625 12.300781 2.515625 10.546875 L 2.515625 6.082031 C 2.515625 4.328125 3.9375 2.90625 5.691406 2.90625 Z M 5.691406 2.90625 "/>
<path style="fill-rule:nonzero;fill:rgb(38.431373%,56.470588%,27.058824%);fill-opacity:1;stroke-width:6.696714;stroke-linecap:butt;stroke-linejoin:miter;stroke:rgb(32.156863%,32.156863%,32.156863%);stroke-opacity:1;stroke-miterlimit:4;" d="M 22.53125 9.15625 L 105.46875 9.15625 C 112.84375 9.15625 118.84375 15.15625 118.84375 22.53125 L 118.84375 105.46875 C 118.84375 112.84375 112.84375 118.84375 105.46875 118.84375 L 22.53125 118.84375 C 15.15625 118.84375 9.15625 112.84375 9.15625 105.46875 L 9.15625 22.53125 C 9.15625 15.15625 15.15625 9.15625 22.53125 9.15625 Z M 22.53125 9.15625 " transform="matrix(0.125,0,0,0.125,0,0)"/>
<path style=" stroke:none;fill-rule:nonzero;fill:rgb(100%,100%,100%);fill-opacity:1;" d="M 3.910156 2.90625 L 11.894531 2.90625 C 12.765625 2.90625 13.476562 3.570312 13.476562 4.386719 L 13.476562 11.976562 C 13.476562 12.796875 12.765625 13.457031 11.894531 13.457031 L 3.910156 13.457031 C 3.039062 13.457031 2.332031 12.796875 2.332031 11.976562 L 2.332031 4.386719 C 2.332031 3.570312 3.039062 2.90625 3.910156 2.90625 Z M 3.910156 2.90625 "/>
<g clip-path="url(#clip1)" clip-rule="nonzero">
<g clip-path="url(#clip2)" clip-rule="nonzero">
<path style=" stroke:none;fill-rule:nonzero;fill:rgb(38.431373%,56.470588%,27.058824%);fill-opacity:1;" d="M -0.734375 7.878906 L -0.734375 -0.492188 L 16.472656 -0.492188 L 16.472656 16.25 L -0.734375 16.25 Z M 11.859375 10.078125 C 11.867188 8.851562 11.878906 7.847656 11.890625 7.847656 C 11.898438 7.847656 12.023438 7.945312 12.167969 8.0625 C 12.449219 8.300781 12.523438 8.335938 12.695312 8.335938 C 12.957031 8.335938 13.148438 8.15625 13.148438 7.910156 C 13.148438 7.609375 13.417969 7.851562 9.886719 5.015625 C 8.878906 4.207031 8.019531 3.519531 7.972656 3.488281 C 7.914062 3.449219 7.875 3.445312 7.828125 3.46875 C 7.792969 3.488281 6.839844 4.246094 5.707031 5.152344 C 2.234375 7.941406 2.558594 7.65625 2.558594 7.933594 C 2.558594 8.101562 2.570312 8.125 2.6875 8.238281 C 2.9375 8.484375 3.148438 8.441406 3.609375 8.058594 L 3.867188 7.839844 L 3.867188 10.042969 C 3.867188 11.71875 3.878906 12.257812 3.910156 12.285156 C 3.941406 12.316406 4.855469 12.324219 7.902344 12.316406 L 11.851562 12.308594 Z M 8.601562 11.386719 C 8.390625 11.257812 8.359375 10.976562 8.535156 10.8125 C 8.855469 10.515625 9.332031 10.863281 9.128906 11.246094 C 9.03125 11.429688 8.78125 11.496094 8.601562 11.386719 Z M 9.609375 11.390625 C 9.429688 11.296875 9.367188 11.070312 9.46875 10.882812 C 9.519531 10.789062 9.6875 10.691406 9.804688 10.691406 C 9.910156 10.691406 10.089844 10.796875 10.140625 10.890625 C 10.316406 11.222656 9.949219 11.570312 9.609375 11.390625 Z M 10.652344 11.394531 C 10.386719 11.25 10.40625 10.847656 10.683594 10.734375 C 10.941406 10.628906 11.203125 10.792969 11.210938 11.066406 C 11.214844 11.1875 11.195312 11.230469 11.109375 11.3125 C 10.984375 11.4375 10.789062 11.46875 10.652344 11.394531 Z M 8.621094 10.375 C 8.394531 10.269531 8.351562 9.96875 8.535156 9.800781 C 8.855469 9.503906 9.332031 9.851562 9.128906 10.234375 C 9.074219 10.339844 8.921875 10.429688 8.804688 10.429688 C 8.761719 10.429688 8.679688 10.40625 8.621094 10.375 Z M 9.609375 10.378906 C 9.429688 10.285156 9.367188 10.058594 9.46875 9.871094 C 9.519531 9.773438 9.6875 9.675781 9.804688 9.675781 C 9.910156 9.675781 10.089844 9.785156 10.140625 9.875 C 10.316406 10.210938 9.949219 10.558594 9.609375 10.378906 Z M 10.652344 10.378906 C 10.386719 10.234375 10.40625 9.835938 10.683594 9.722656 C 10.84375 9.65625 10.992188 9.6875 11.117188 9.8125 C 11.328125 10.027344 11.1875 10.382812 10.875 10.417969 C 10.792969 10.425781 10.707031 10.410156 10.652344 10.378906 Z M 8.621094 9.363281 C 8.394531 9.257812 8.351562 8.957031 8.535156 8.785156 C 8.855469 8.488281 9.332031 8.835938 9.128906 9.222656 C 9.074219 9.328125 8.921875 9.417969 8.804688 9.414062 C 8.761719 9.414062 8.679688 9.390625 8.621094 9.363281 Z M 9.609375 9.363281 C 9.429688 9.269531 9.367188 9.042969 9.46875 8.855469 C 9.519531 8.761719 9.6875 8.664062 9.804688 8.664062 C 9.910156 8.664062 10.089844 8.773438 10.140625 8.863281 C 10.316406 9.195312 9.949219 9.542969 9.609375 9.363281 Z M 10.652344 9.367188 C 10.386719 9.222656 10.40625 8.820312 10.683594 8.707031 C 10.84375 8.640625 10.992188 8.671875 11.117188 8.796875 C 11.328125 9.011719 11.1875 9.367188 10.875 9.402344 C 10.792969 9.410156 10.707031 9.398438 10.652344 9.367188 Z M 10.652344 9.367188 "/>
</g>
</g>
</g>
</svg>
