<!-- Generator: Adobe Illustrator 16.0.0, SVG Export Plug-In . SVG Version: 6.00 Build 0)  -->
<svg xmlns="http://www.w3.org/2000/svg" xmlns:xlink="http://www.w3.org/1999/xlink" width="16px" height="16px" viewBox="0 0 16 16" version="1.1">
<g id="surface1">
<path style="fill-rule:nonzero;fill:rgb(82.745098%,74.901961%,74.901961%);fill-opacity:1;stroke-width:30.018902;stroke-linecap:butt;stroke-linejoin:miter;stroke:rgb(82.745098%,37.254902%,37.254902%);stroke-opacity:1;stroke-miterlimit:4;" d="M 99.534613 39.451394 L 471.186263 39.451394 C 504.364467 39.451394 531.269482 66.356409 531.269482 99.534613 L 531.269482 471.186263 C 531.269482 504.364467 504.364467 531.269482 471.186263 531.269482 L 99.534613 531.269482 C 66.356409 531.269482 39.451394 504.364467 39.451394 471.186263 L 39.451394 99.534613 C 39.451394 66.356409 66.356409 39.451394 99.534613 39.451394 Z M 99.534613 39.451394 " transform="matrix(0.028021,0,0,0.028021,0,0)"/>
<path style=" stroke:none;fill-rule:nonzero;fill:rgb(42.352941%,32.54902%,32.54902%);fill-opacity:1;" d="M 13.582031 8.65625 C 13.484375 8.78125 13.402344 8.921875 13.292969 9.039062 C 13.191406 9.144531 13.070312 9.238281 12.949219 9.320312 C 12.488281 9.589844 12.199219 9.890625 11.714844 10.050781 C 11.144531 10.230469 10.632812 10.539062 10.082031 10.761719 C 9.929688 10.824219 9.773438 10.882812 9.613281 10.933594 C 9.390625 11.007812 9.15625 11.003906 8.925781 11.003906 C 8.753906 11 8.578125 11.027344 8.410156 11.015625 C 8.164062 11 7.921875 10.953125 7.675781 10.929688 C 7.335938 10.902344 7 10.894531 6.660156 10.941406 C 6.554688 10.957031 6.441406 10.945312 6.335938 10.933594 C 6.273438 10.925781 6.257812 10.847656 6.308594 10.808594 C 6.441406 10.710938 6.550781 10.582031 6.714844 10.535156 C 6.804688 10.511719 6.890625 10.480469 6.980469 10.476562 C 7.089844 10.476562 7.179688 10.449219 7.246094 10.351562 C 7.164062 10.265625 7.0625 10.21875 6.941406 10.199219 C 6.628906 10.148438 6.378906 9.980469 6.144531 9.777344 C 5.921875 9.582031 5.691406 9.386719 5.367188 9.390625 C 5.347656 9.394531 5.324219 9.382812 5.304688 9.378906 C 5.164062 9.359375 5.050781 9.375 4.960938 9.515625 C 4.890625 9.621094 4.78125 9.710938 4.675781 9.789062 C 4.632812 9.820312 4.550781 9.816406 4.492188 9.804688 C 4.28125 9.765625 4.074219 9.707031 3.867188 9.667969 C 3.773438 9.648438 3.675781 9.660156 3.582031 9.652344 C 3.46875 9.644531 3.445312 9.5625 3.441406 9.46875 C 3.441406 9.375 3.445312 9.304688 3.566406 9.273438 C 3.792969 9.210938 4 9.269531 4.214844 9.328125 C 4.304688 9.351562 4.390625 9.40625 4.492188 9.328125 C 4.570312 9.273438 4.589844 9.210938 4.5625 9.132812 C 4.460938 8.824219 4.320312 8.535156 4.144531 8.261719 C 4.125 8.230469 4.078125 8.203125 4.039062 8.199219 C 3.695312 8.140625 3.359375 8.054688 3.039062 7.914062 C 2.96875 7.882812 2.898438 7.839844 2.828125 7.800781 C 2.800781 7.78125 2.765625 7.757812 2.757812 7.734375 C 2.695312 7.507812 2.5 7.363281 2.394531 7.164062 C 2.304688 6.992188 2.316406 6.730469 2.460938 6.601562 C 2.742188 6.347656 3.023438 6.097656 3.320312 5.867188 C 3.640625 5.617188 4.011719 5.617188 4.390625 5.6875 C 4.605469 5.726562 4.824219 5.777344 5.035156 5.765625 C 5.320312 5.746094 5.597656 5.667969 5.878906 5.621094 C 6.125 5.582031 6.371094 5.542969 6.621094 5.519531 C 6.867188 5.496094 7.113281 5.515625 7.359375 5.570312 C 7.523438 5.609375 7.695312 5.601562 7.855469 5.636719 C 8.296875 5.734375 8.71875 5.886719 9.121094 6.09375 C 9.414062 6.246094 9.648438 6.464844 9.875 6.691406 C 10.050781 6.863281 10.21875 7.046875 10.367188 7.242188 C 10.5 7.417969 10.605469 7.617188 10.710938 7.816406 C 10.855469 8.085938 10.933594 8.371094 11.03125 8.65625 C 11.070312 8.773438 11.089844 8.894531 11.117188 9.015625 C 11.125 9.046875 11.132812 9.078125 11.144531 9.128906 C 11.285156 9.046875 11.410156 8.984375 11.515625 8.902344 C 11.765625 8.625 11.929688 8.308594 12.054688 7.988281 C 12.117188 7.835938 12.15625 7.671875 12.222656 7.519531 C 12.328125 7.28125 12.417969 7.027344 12.570312 6.824219 C 12.71875 6.625 12.917969 6.441406 13.214844 6.503906 C 13.285156 6.515625 13.363281 6.546875 13.421875 6.589844 C 13.632812 6.757812 13.816406 6.949219 13.96875 7.175781 C 14.101562 7.371094 14.097656 7.578125 14.042969 7.789062 C 13.957031 8.113281 13.785156 8.390625 13.582031 8.65625 Z M 13.582031 8.65625 "/>
<path style=" stroke:none;fill-rule:nonzero;fill:rgb(82.745098%,74.901961%,74.901961%);fill-opacity:1;" d="M 3.691406 6.449219 C 3.691406 6.347656 3.617188 6.265625 3.527344 6.265625 C 3.4375 6.265625 3.363281 6.347656 3.363281 6.449219 C 3.363281 6.550781 3.4375 6.632812 3.527344 6.632812 C 3.617188 6.632812 3.691406 6.550781 3.691406 6.449219 Z M 3.691406 6.449219 "/>
</g>
</svg>
