
<svg xmlns="http://www.w3.org/2000/svg" xmlns:xlink="http://www.w3.org/1999/xlink" width="16px" height="16px" viewBox="0 0 16 16" version="1.1">
<g id="surface1">
<path style="fill-rule:nonzero;fill:rgb(92.54902%,92.54902%,92.54902%);fill-opacity:1;stroke-width:2.67719;stroke-linecap:butt;stroke-linejoin:miter;stroke:rgb(43.921569%,5.490196%,38.823529%);stroke-opacity:1;stroke-miterlimit:4;" d="M 392.001105 501.872203 L 425.141729 501.872203 C 428.106573 501.872203 430.497198 504.262828 430.497198 507.227672 L 430.497198 540.368296 C 430.497198 543.333139 428.106573 545.723764 425.141729 545.723764 L 392.001105 545.723764 C 389.036262 545.723764 386.645637 543.333139 386.645637 540.368296 L 386.645637 507.227672 C 386.645637 504.262828 389.036262 501.872203 392.001105 501.872203 Z M 392.001105 501.872203 " transform="matrix(0.333333,0,0,0.333333,-128.190477,-166.599333)"/>
<path style=" stroke:none;fill-rule:nonzero;fill:rgb(61.568627%,22.352941%,43.529412%);fill-opacity:1;" d="M 2.882812 1.679688 L 2.882812 8.621094 C 2.882812 9.460938 2.980469 10.222656 3.160156 10.917969 C 3.339844 11.597656 3.628906 12.199219 4.035156 12.703125 C 4.441406 13.210938 4.960938 13.59375 5.625 13.878906 C 6.292969 14.148438 7.121094 14.28125 8.097656 14.28125 C 9.21875 14.28125 10.214844 14.234375 11.058594 14.09375 C 11.921875 13.949219 12.59375 13.792969 13.117188 13.667969 L 13.117188 1.675781 L 11.070312 1.675781 L 11.070312 12.070312 C 10.988281 12.105469 10.621094 12.164062 10.425781 12.199219 C 10.246094 12.214844 10.054688 12.246094 9.824219 12.277344 C 9.597656 12.292969 9.371094 12.316406 9.113281 12.332031 C 8.851562 12.34375 8.589844 12.359375 8.34375 12.359375 C 7.1875 12.359375 6.363281 12.019531 5.875 11.371094 C 5.386719 10.722656 4.929688 9.6875 4.929688 8.1875 L 4.929688 1.675781 M 2.882812 1.679688 "/>
</g>
</svg>
