
<svg xmlns="http://www.w3.org/2000/svg" xmlns:xlink="http://www.w3.org/1999/xlink" width="16px" height="16px" viewBox="0 0 16 16" version="1.1">
<g id="surface1">
<path style=" stroke:none;fill-rule:nonzero;fill:rgb(40.784314%,61.960784%,25.882353%);fill-opacity:1;" d="M 2.789062 1.160156 L 13.285156 1.160156 C 14.183594 1.160156 14.910156 1.890625 14.910156 2.789062 L 14.910156 13.285156 C 14.910156 14.183594 14.183594 14.910156 13.285156 14.910156 L 2.789062 14.910156 C 1.890625 14.910156 1.160156 14.183594 1.160156 13.285156 L 1.160156 2.789062 C 1.160156 1.890625 1.890625 1.160156 2.789062 1.160156 Z M 2.789062 1.160156 "/>
<path style=" stroke:none;fill-rule:nonzero;fill:rgb(94.901961%,94.901961%,94.901961%);fill-opacity:1;" d="M 7.601562 2.574219 C 5.507812 2.574219 4.3125 3.441406 3.53125 4.40625 C 4.128906 4.570312 4.539062 4.703125 4.675781 4.75 C 4.675781 4.660156 4.691406 3.84375 4.691406 3.84375 L 4.710938 3.816406 L 4.734375 3.808594 C 4.917969 3.835938 8.839844 4.414062 10.492188 5.378906 C 10.699219 5.496094 10.808594 5.628906 10.933594 5.757812 C 11.390625 6.230469 12 8.191406 12.0625 8.597656 L 12.039062 8.640625 C 12.015625 8.648438 11.953125 8.695312 11.875 8.746094 C 11.492188 9.015625 10.597656 9.640625 9.441406 9.539062 C 8.402344 9.445312 7.035156 8.851562 5.398438 7.773438 C 5.472656 7.945312 5.8125 8.746094 5.871094 8.878906 L 5.890625 8.917969 C 6.128906 9.039062 8.402344 10.195312 9.53125 10.171875 C 10.441406 10.15625 11.417969 9.710938 11.808594 9.476562 L 11.929688 9.457031 C 11.964844 9.484375 11.953125 9.535156 11.945312 9.582031 C 11.917969 9.695312 11.867188 9.898438 11.832031 9.992188 L 11.800781 10.074219 C 11.757812 10.195312 11.71875 10.308594 11.636719 10.375 C 11.40625 10.582031 11.039062 10.742188 10.464844 10.996094 C 9.578125 11.382812 8.140625 11.628906 6.804688 11.621094 C 6.324219 11.613281 5.867188 11.554688 5.460938 11.511719 C 4.613281 11.414062 3.921875 11.339844 3.507812 11.660156 C 4.507812 12.789062 5.972656 13.496094 7.601562 13.496094 C 10.617188 13.496094 13.0625 11.054688 13.0625 8.035156 C 13.0625 5.019531 10.621094 2.574219 7.601562 2.574219 Z M 9.042969 5.472656 C 8.625 5.480469 8.230469 5.625 7.925781 5.914062 C 7.59375 6.21875 7.410156 6.640625 7.394531 7.085938 C 7.363281 8.011719 8.089844 8.792969 9.015625 8.828125 C 9.464844 8.84375 9.882812 8.679688 10.210938 8.371094 C 10.539062 8.066406 10.730469 7.65625 10.75 7.207031 C 10.78125 6.28125 10.054688 5.507812 9.128906 5.472656 C 9.097656 5.472656 9.074219 5.472656 9.042969 5.472656 Z M 9 5.960938 C 9.039062 5.957031 9.074219 5.957031 9.113281 5.960938 C 9.757812 5.984375 10.269531 6.53125 10.246094 7.175781 C 10.238281 7.488281 10.101562 7.777344 9.875 7.992188 C 9.644531 8.203125 9.34375 8.324219 9.03125 8.3125 C 8.382812 8.289062 7.878906 7.734375 7.902344 7.085938 C 7.910156 6.773438 8.046875 6.488281 8.273438 6.273438 C 8.476562 6.085938 8.730469 5.976562 9 5.960938 Z M 9.261719 6.585938 C 8.980469 6.585938 8.753906 6.742188 8.753906 6.929688 C 8.753906 7.117188 8.980469 7.265625 9.261719 7.265625 C 9.539062 7.265625 9.761719 7.117188 9.761719 6.929688 C 9.761719 6.742188 9.539062 6.585938 9.261719 6.585938 Z M 9.261719 6.585938 "/>
</g>
</svg>
