
<svg xmlns="http://www.w3.org/2000/svg" xmlns:xlink="http://www.w3.org/1999/xlink" width="16px" height="16px" viewBox="0 0 16 16" version="1.1">
<g id="surface1">
<path style="fill-rule:nonzero;fill:rgb(17.254902%,24.313725%,31.372549%);fill-opacity:1;stroke-width:0.777657;stroke-linecap:butt;stroke-linejoin:miter;stroke:rgb(29.019608%,68.235294%,90.980392%);stroke-opacity:1;stroke-miterlimit:4;" d="M -36.161237 398.248428 L -26.530403 398.248428 C -25.673814 398.248428 -24.975976 398.946267 -24.975976 399.802856 L -24.975976 409.43369 C -24.975976 410.290278 -25.673814 410.988117 -26.530403 410.988117 L -36.161237 410.988117 C -37.017826 410.988117 -37.715664 410.290278 -37.715664 409.43369 L -37.715664 399.802856 C -37.715664 398.946267 -37.017826 398.248428 -36.161237 398.248428 Z M -36.161237 398.248428 " transform="matrix(1.181102,0,0,1.181102,45.022618,-469.895552)"/>
<path style=" stroke:none;fill-rule:nonzero;fill:rgb(17.254902%,24.313725%,31.372549%);fill-opacity:1;" d="M 8 1.332031 C 11.683594 1.332031 14.667969 4.316406 14.667969 8 C 14.667969 11.683594 11.683594 14.667969 8 14.667969 C 4.316406 14.667969 1.332031 11.683594 1.332031 8 C 1.332031 4.316406 4.316406 1.332031 8 1.332031 Z M 8 1.332031 "/>
<path style=" stroke:none;fill-rule:nonzero;fill:rgb(58.431373%,64.705882%,65.098039%);fill-opacity:1;" d="M 9.53125 7.09375 C 9.429688 7.828125 9.039062 8.964844 8.222656 9.863281 C 8.230469 9.890625 8.664062 10.1875 8.664062 10.1875 C 9.703125 8.96875 9.886719 8.042969 10.054688 7.230469 C 10.054688 7.230469 9.753906 7.0625 9.53125 7.09375 Z M 9.53125 7.09375 "/>
<path style=" stroke:none;fill-rule:nonzero;fill:rgb(74.117647%,76.470588%,78.039216%);fill-opacity:1;" d="M 6.375 6.832031 C 5.800781 3.671875 9.46875 2.941406 9.652344 6.570312 L 10.171875 6.691406 C 10.289062 4.847656 9.085938 3.515625 7.785156 3.582031 C 6.632812 3.640625 5.429688 4.964844 5.863281 7.0625 Z M 6.375 6.832031 "/>
<path style=" stroke:none;fill-rule:nonzero;fill:rgb(49.803922%,54.901961%,55.294118%);fill-opacity:1;" d="M 7.894531 10.277344 C 5.542969 12.074219 3 9.902344 6.019531 7.59375 L 5.859375 7.03125 C 3.675781 8.304688 3.761719 10.140625 4.695312 11.050781 C 5.523438 11.855469 7.292969 11.695312 8.328125 10.597656 Z M 7.894531 10.277344 "/>
<path style=" stroke:none;fill-rule:nonzero;fill:rgb(92.54902%,94.117647%,94.509804%);fill-opacity:1;" d="M 8.554688 6.453125 C 6.863281 6.421875 5.859375 7.035156 5.859375 7.035156 C 5.871094 7.085938 5.855469 7.46875 6.648438 8.878906 C 7.378906 9.96875 8.402344 10.886719 9.671875 11.136719 C 10.9375 11.390625 12.316406 10.683594 12.390625 9.386719 C 12.464844 8.09375 11.453125 7.375 11.234375 7.210938 C 11.011719 7.050781 10.25 6.480469 8.554688 6.453125 Z M 8.234375 7.015625 C 8.636719 7.003906 9.117188 7.035156 9.691406 7.117188 C 12.222656 7.859375 12.003906 9.617188 11.566406 10.074219 C 11.167969 10.492188 10.222656 10.992188 8.765625 10.222656 C 7.304688 9.449219 6.535156 7.367188 6.535156 7.367188 C 6.535156 7.367188 7.023438 7.039062 8.234375 7.015625 Z M 8.234375 7.015625 "/>
</g>
</svg>
