
<svg xmlns="http://www.w3.org/2000/svg" xmlns:xlink="http://www.w3.org/1999/xlink" width="16px" height="16px" viewBox="0 0 16 16" version="1.1">
<g id="surface1">
<path style="fill-rule:nonzero;fill:rgb(100%,100%,100%);fill-opacity:1;stroke-width:26.343105;stroke-linecap:butt;stroke-linejoin:miter;stroke:rgb(29.019608%,68.235294%,90.980392%);stroke-opacity:1;stroke-miterlimit:4;" d="M 76.874976 24.257805 L 403.124874 24.257805 C 432.187365 24.257805 455.742045 47.812485 455.742045 76.874976 L 455.742045 403.124874 C 455.742045 432.187365 432.187365 455.742045 403.124874 455.742045 L 76.874976 455.742045 C 47.812485 455.742045 24.257805 432.187365 24.257805 403.124874 L 24.257805 76.874976 C 24.257805 47.812485 47.812485 24.257805 76.874976 24.257805 Z M 76.874976 24.257805 " transform="matrix(0.0333333,0,0,0.0333333,0,0)"/>
<path style=" stroke:none;fill-rule:nonzero;fill:rgb(20.784314%,48.627451%,93.333333%);fill-opacity:1;" d="M 2.367188 13.03125 C 2.28125 12.910156 2.140625 12.613281 2.070312 12.410156 C 1.957031 12.0625 1.9375 11.933594 1.941406 11.464844 C 1.941406 11.0625 1.949219 10.988281 2.007812 10.765625 C 2.226562 9.945312 2.773438 9.269531 3.546875 8.851562 C 3.859375 8.679688 3.871094 8.652344 3.691406 8.5 C 3.4375 8.285156 3.203125 7.941406 3.089844 7.609375 C 2.75 6.609375 3.207031 5.515625 4.15625 5.070312 C 4.691406 4.820312 5.367188 4.820312 5.90625 5.070312 C 6.855469 5.515625 7.316406 6.617188 6.972656 7.613281 C 6.855469 7.945312 6.644531 8.261719 6.382812 8.488281 C 6.253906 8.601562 6.242188 8.621094 6.265625 8.667969 C 6.28125 8.695312 6.378906 8.765625 6.480469 8.816406 C 6.582031 8.871094 6.710938 8.941406 6.761719 8.976562 C 6.816406 9.007812 6.871094 9.035156 6.890625 9.035156 C 6.910156 9.03125 6.980469 8.957031 7.050781 8.863281 C 7.34375 8.472656 7.839844 8.058594 8.304688 7.816406 C 8.554688 7.6875 8.648438 7.617188 8.648438 7.554688 C 8.648438 7.53125 8.574219 7.453125 8.480469 7.378906 C 8.132812 7.097656 7.792969 6.558594 7.675781 6.109375 C 7.304688 4.667969 8.183594 3.242188 9.628906 2.9375 C 9.734375 2.914062 9.945312 2.898438 10.15625 2.898438 C 10.449219 2.898438 10.550781 2.910156 10.761719 2.964844 C 11.21875 3.078125 11.613281 3.304688 11.949219 3.640625 C 12.589844 4.332031 12.839844 5.300781 12.601562 6.132812 C 12.457031 6.617188 12.152344 7.09375 11.820312 7.367188 C 11.738281 7.433594 11.664062 7.503906 11.652344 7.523438 C 11.628906 7.585938 11.738281 7.675781 12.015625 7.820312 C 12.976562 8.320312 13.683594 9.207031 13.929688 10.21875 C 14.136719 11.078125 14.046875 11.910156 13.65625 12.703125 C 13.589844 12.84375 13.511719 12.984375 13.488281 13.015625 L 13.441406 13.070312 L 2.417969 13.101562 Z M 2.367188 13.03125 "/>
<path style=" stroke:none;fill-rule:nonzero;fill:rgb(31.372549%,70.196078%,15.686275%);fill-opacity:1;" d="M 2.363281 13.03125 C 2.28125 12.910156 2.140625 12.613281 2.070312 12.410156 C 1.957031 12.0625 1.9375 11.933594 1.941406 11.464844 C 1.941406 11.0625 1.949219 10.988281 2.007812 10.765625 C 2.226562 9.945312 2.773438 9.269531 3.546875 8.851562 C 3.859375 8.679688 3.871094 8.652344 3.691406 8.5 C 3.4375 8.285156 3.203125 7.941406 3.089844 7.609375 C 2.75 6.609375 3.207031 5.515625 4.15625 5.070312 C 4.691406 4.820312 5.367188 4.820312 5.90625 5.070312 C 6.855469 5.515625 7.316406 6.617188 6.972656 7.613281 C 6.855469 7.945312 6.644531 8.261719 6.382812 8.488281 C 6.199219 8.652344 6.210938 8.671875 6.554688 8.855469 C 6.695312 8.933594 6.824219 9.011719 6.835938 9.027344 C 6.855469 9.046875 6.824219 9.121094 6.742188 9.265625 C 6.40625 9.847656 6.261719 10.402344 6.261719 11.09375 C 6.261719 11.769531 6.414062 12.363281 6.730469 12.902344 C 6.785156 12.996094 6.820312 13.078125 6.8125 13.085938 C 6.804688 13.09375 5.8125 13.101562 4.605469 13.101562 L 2.414062 13.101562 Z M 2.363281 13.03125 "/>
</g>
</svg>
