<!-- color: #bb0000 -->
<svg xmlns="http://www.w3.org/2000/svg" xmlns:xlink="http://www.w3.org/1999/xlink" width="16px" height="16px" viewBox="0 0 16 16" version="1.1">
<defs>
<clipPath id="clip1">
  <path d="M 3.71875 3.71875 L 12.28125 3.71875 L 12.28125 12.28125 L 3.71875 12.28125 Z M 3.71875 3.71875 "/>
</clipPath>
<clipPath id="clip2">
  <path d="M 16.15625 8.003906 C 16.15625 12.507812 12.503906 16.15625 8 16.15625 C 3.5 16.15625 -0.152344 12.507812 -0.152344 8.003906 C -0.152344 3.496094 3.5 -0.152344 8 -0.152344 C 12.503906 -0.152344 16.15625 3.496094 16.15625 8.003906 Z M 16.15625 8.003906 "/>
</clipPath>
</defs>
<g id="surface1">
<path style="fill-rule:evenodd;fill:rgb(96.470588%,27.843137%,27.843137%);fill-opacity:0.996078;stroke-width:16;stroke-linecap:butt;stroke-linejoin:miter;stroke:rgb(62.352941%,2.745098%,2.745098%);stroke-opacity:0.996078;stroke-miterlimit:4;" d="M 87.75 31 L 424.25 31 C 455.625 31 481 56.375 481 87.75 L 481 424.25 C 481 455.625 455.625 481 424.25 481 L 87.75 481 C 56.375 481 31 455.625 31 424.25 L 31 87.75 C 31 56.375 56.375 31 87.75 31 Z M 87.75 31 " transform="matrix(0.03125,0,0,0.03125,0,0)"/>
<g clip-path="url(#clip1)" clip-rule="nonzero">
<g clip-path="url(#clip2)" clip-rule="nonzero">
<path style=" stroke:none;fill-rule:nonzero;fill:rgb(100%,100%,100%);fill-opacity:1;" d="M 5.472656 3.746094 L 3.746094 11.398438 L 5.148438 11.398438 L 5.960938 7.976562 L 9.789062 7.976562 L 6.203125 11.179688 L 7.136719 12.253906 L 7.613281 12.007812 C 8.519531 11.542969 8.898438 11.816406 9.585938 12.003906 C 10.253906 12.191406 10.878906 12.386719 12.183594 11.636719 L 11.921875 10.3125 C 10.503906 11.324219 10.054688 10.425781 9.042969 10.386719 L 11.9375 7.933594 L 12.253906 6.625 L 6.183594 6.625 L 6.574219 5.054688 L 10.554688 5.054688 L 10.828125 3.746094 L 5.472656 3.746094 M 5.472656 3.746094 "/>
</g>
</g>
</g>
</svg>
