
<svg xmlns="http://www.w3.org/2000/svg" xmlns:xlink="http://www.w3.org/1999/xlink" width="16px" height="16px" viewBox="0 0 16 16" version="1.1">
<defs>
<clipPath id="clip1">
  <path d="M 1.25 2.71875 L 14.0625 2.71875 L 14.0625 14.9375 L 1.25 14.9375 Z M 1.25 2.71875 "/>
</clipPath>
<clipPath id="clip2">
  <path d="M 3.601562 1.210938 L 12.402344 1.210938 C 13.75 1.210938 14.839844 2.300781 14.839844 3.648438 L 14.839844 12.496094 C 14.839844 13.84375 13.75 14.933594 12.402344 14.933594 L 3.601562 14.933594 C 2.257812 14.933594 1.164062 13.84375 1.164062 12.496094 L 1.164062 3.648438 C 1.164062 2.300781 2.257812 1.210938 3.601562 1.210938 Z M 3.601562 1.210938 "/>
</clipPath>
<clipPath id="clip3">
  <path d="M 8.28125 6 L 10.15625 6 L 10.15625 7.875 L 8.28125 7.875 Z M 8.28125 6 "/>
</clipPath>
<clipPath id="clip4">
  <path d="M 3.601562 1.210938 L 12.402344 1.210938 C 13.75 1.210938 14.839844 2.300781 14.839844 3.648438 L 14.839844 12.496094 C 14.839844 13.84375 13.75 14.933594 12.402344 14.933594 L 3.601562 14.933594 C 2.257812 14.933594 1.164062 13.84375 1.164062 12.496094 L 1.164062 3.648438 C 1.164062 2.300781 2.257812 1.210938 3.601562 1.210938 Z M 3.601562 1.210938 "/>
</clipPath>
<clipPath id="clip5">
  <path d="M 1.15625 1.1875 L 7.125 1.1875 L 7.125 7.1875 L 1.15625 7.1875 Z M 1.15625 1.1875 "/>
</clipPath>
<clipPath id="clip6">
  <path d="M 3.601562 1.210938 L 12.402344 1.210938 C 13.75 1.210938 14.839844 2.300781 14.839844 3.648438 L 14.839844 12.496094 C 14.839844 13.84375 13.75 14.933594 12.402344 14.933594 L 3.601562 14.933594 C 2.257812 14.933594 1.164062 13.84375 1.164062 12.496094 L 1.164062 3.648438 C 1.164062 2.300781 2.257812 1.210938 3.601562 1.210938 Z M 3.601562 1.210938 "/>
</clipPath>
<clipPath id="clip7">
  <path d="M 1.15625 1.1875 L 14.84375 1.1875 L 14.84375 14.9375 L 1.15625 14.9375 Z M 1.15625 1.1875 "/>
</clipPath>
<clipPath id="clip8">
  <path d="M 3.601562 1.210938 L 12.402344 1.210938 C 13.75 1.210938 14.839844 2.300781 14.839844 3.648438 L 14.839844 12.496094 C 14.839844 13.84375 13.75 14.933594 12.402344 14.933594 L 3.601562 14.933594 C 2.257812 14.933594 1.164062 13.84375 1.164062 12.496094 L 1.164062 3.648438 C 1.164062 2.300781 2.257812 1.210938 3.601562 1.210938 Z M 3.601562 1.210938 "/>
</clipPath>
<clipPath id="clip9">
  <path d="M 1.5 3 L 4 3 L 4 5 L 1.5 5 Z M 1.5 3 "/>
</clipPath>
<clipPath id="clip10">
  <path d="M 3.601562 1.210938 L 12.402344 1.210938 C 13.75 1.210938 14.839844 2.300781 14.839844 3.648438 L 14.839844 12.496094 C 14.839844 13.84375 13.75 14.933594 12.402344 14.933594 L 3.601562 14.933594 C 2.257812 14.933594 1.164062 13.84375 1.164062 12.496094 L 1.164062 3.648438 C 1.164062 2.300781 2.257812 1.210938 3.601562 1.210938 Z M 3.601562 1.210938 "/>
</clipPath>
<clipPath id="clip11">
  <path d="M 2 2 L 4 2 L 4 4 L 2 4 Z M 2 2 "/>
</clipPath>
<clipPath id="clip12">
  <path d="M 3.601562 1.210938 L 12.402344 1.210938 C 13.75 1.210938 14.839844 2.300781 14.839844 3.648438 L 14.839844 12.496094 C 14.839844 13.84375 13.75 14.933594 12.402344 14.933594 L 3.601562 14.933594 C 2.257812 14.933594 1.164062 13.84375 1.164062 12.496094 L 1.164062 3.648438 C 1.164062 2.300781 2.257812 1.210938 3.601562 1.210938 Z M 3.601562 1.210938 "/>
</clipPath>
<clipPath id="clip13">
  <path d="M 3 2 L 4.84375 2 L 4.84375 4 L 3 4 Z M 3 2 "/>
</clipPath>
<clipPath id="clip14">
  <path d="M 3.601562 1.210938 L 12.402344 1.210938 C 13.75 1.210938 14.839844 2.300781 14.839844 3.648438 L 14.839844 12.496094 C 14.839844 13.84375 13.75 14.933594 12.402344 14.933594 L 3.601562 14.933594 C 2.257812 14.933594 1.164062 13.84375 1.164062 12.496094 L 1.164062 3.648438 C 1.164062 2.300781 2.257812 1.210938 3.601562 1.210938 Z M 3.601562 1.210938 "/>
</clipPath>
<clipPath id="clip15">
  <path d="M 1.4375 5.96875 L 5.78125 5.96875 L 5.78125 9.46875 L 1.4375 9.46875 Z M 1.4375 5.96875 "/>
</clipPath>
<clipPath id="clip16">
  <path d="M 3.601562 1.210938 L 12.402344 1.210938 C 13.75 1.210938 14.839844 2.300781 14.839844 3.648438 L 14.839844 12.496094 C 14.839844 13.84375 13.75 14.933594 12.402344 14.933594 L 3.601562 14.933594 C 2.257812 14.933594 1.164062 13.84375 1.164062 12.496094 L 1.164062 3.648438 C 1.164062 2.300781 2.257812 1.210938 3.601562 1.210938 Z M 3.601562 1.210938 "/>
</clipPath>
</defs>
<g id="surface1">
<g clip-path="url(#clip1)" clip-rule="nonzero">
<g clip-path="url(#clip2)" clip-rule="nonzero">
<path style=" stroke:none;fill-rule:nonzero;fill:rgb(100%,100%,100%);fill-opacity:1;" d="M 4.496094 2.75 L 10.828125 2.75 C 12.609375 2.75 14.050781 4.191406 14.050781 5.96875 L 14.050781 11.820312 C 14.050781 13.601562 12.609375 15.042969 10.828125 15.042969 L 4.496094 15.042969 C 2.714844 15.042969 1.273438 13.601562 1.273438 11.820312 L 1.273438 5.96875 C 1.273438 4.191406 2.714844 2.75 4.496094 2.75 Z M 4.496094 2.75 "/>
</g>
</g>
<g clip-path="url(#clip3)" clip-rule="nonzero">
<g clip-path="url(#clip4)" clip-rule="nonzero">
<path style=" stroke:none;fill-rule:nonzero;fill:rgb(100%,57.254902%,0.784314%);fill-opacity:1;" d="M 8.292969 7.8125 C 8.292969 7.792969 8.292969 7.535156 8.296875 7.246094 C 8.320312 6.351562 8.691406 5.863281 9.515625 6.035156 C 9.90625 6.167969 10.132812 6.441406 10.144531 6.78125 C 10.15625 7.160156 9.917969 7.613281 9.628906 7.753906 C 9.472656 7.828125 9.3125 7.84375 8.863281 7.847656 C 8.550781 7.847656 8.296875 7.832031 8.292969 7.8125 Z M 8.292969 7.8125 "/>
</g>
</g>
<g clip-path="url(#clip5)" clip-rule="nonzero">
<g clip-path="url(#clip6)" clip-rule="nonzero">
<path style=" stroke:none;fill-rule:nonzero;fill:rgb(29.411765%,90.980392%,81.176471%);fill-opacity:1;" d="M 5.304688 1.148438 C 3.324219 1.132812 3.125 1.152344 2.488281 1.453125 C 2.082031 1.640625 1.5625 2.148438 1.375 2.539062 C 1.105469 3.097656 1.085938 3.253906 1.085938 5.289062 L 1.085938 7.167969 L 7.09375 1.164062 Z M 5.304688 1.148438 "/>
</g>
</g>
<g clip-path="url(#clip7)" clip-rule="nonzero">
<g clip-path="url(#clip8)" clip-rule="nonzero">
<path style=" stroke:none;fill-rule:nonzero;fill:rgb(100%,57.254902%,0.784314%);fill-opacity:1;" d="M 7 1.144531 L 1.085938 7.0625 L 1.085938 9.835938 C 1.089844 11.363281 1.105469 12.78125 1.128906 12.992188 C 1.179688 13.488281 1.390625 13.921875 1.765625 14.300781 C 2.085938 14.628906 2.632812 14.921875 3.046875 14.988281 C 3.195312 15.011719 3.609375 15.035156 3.96875 15.035156 L 4.621094 15.042969 L 4.621094 14.363281 C 4.621094 13.988281 4.605469 13.28125 4.585938 12.792969 L 4.554688 11.902344 L 3.570312 11.15625 C 2.195312 10.121094 1.386719 9.492188 1.449219 9.457031 C 1.503906 9.429688 2.019531 9.019531 3.296875 7.980469 C 4.527344 6.984375 4.667969 6.917969 4.667969 6.71875 C 4.667969 6.445312 4.894531 5.648438 5.074219 5.289062 C 6.90625 1.847656 12.558594 2.167969 13.417969 5.875 C 13.542969 6.480469 13.558594 6.597656 13.550781 7.070312 C 13.578125 9.523438 11.640625 11.042969 9.335938 11.066406 C 9.132812 11.066406 8.816406 11.078125 8.632812 11.097656 L 8.304688 11.128906 L 8.304688 15.042969 L 10.351562 15.042969 C 11.480469 15.042969 12.589844 15.019531 12.820312 14.992188 C 13.355469 14.933594 13.828125 14.707031 14.191406 14.34375 C 14.496094 14.042969 14.636719 13.816406 14.808594 13.359375 L 14.933594 13.027344 L 14.933594 12.917969 L 14.929688 8.496094 C 14.929688 6.007812 14.910156 3.746094 14.890625 3.472656 C 14.859375 3.050781 14.828125 2.921875 14.679688 2.613281 C 14.359375 1.941406 13.886719 1.539062 13.132812 1.285156 L 12.71875 1.144531 Z M 7 1.144531 "/>
</g>
</g>
<g clip-path="url(#clip9)" clip-rule="nonzero">
<g clip-path="url(#clip10)" clip-rule="nonzero">
<path style=" stroke:none;fill-rule:nonzero;fill:rgb(100%,100%,100%);fill-opacity:1;" d="M 2.761719 3.910156 C 2.832031 3.976562 2.886719 4.042969 2.925781 4.117188 C 2.96875 4.1875 2.992188 4.257812 3.003906 4.332031 C 3.011719 4.402344 3.003906 4.476562 2.976562 4.546875 C 2.949219 4.621094 2.902344 4.691406 2.835938 4.757812 C 2.769531 4.828125 2.703125 4.878906 2.628906 4.90625 C 2.558594 4.9375 2.488281 4.949219 2.414062 4.941406 C 2.34375 4.9375 2.269531 4.914062 2.199219 4.875 C 2.125 4.835938 2.054688 4.785156 1.984375 4.714844 C 1.914062 4.648438 1.859375 4.582031 1.816406 4.507812 C 1.777344 4.4375 1.75 4.367188 1.742188 4.292969 C 1.734375 4.222656 1.742188 4.152344 1.769531 4.078125 C 1.796875 4.007812 1.84375 3.9375 1.910156 3.867188 C 1.976562 3.796875 2.042969 3.75 2.113281 3.71875 C 2.1875 3.691406 2.257812 3.679688 2.328125 3.683594 C 2.402344 3.691406 2.472656 3.710938 2.546875 3.75 C 2.621094 3.789062 2.691406 3.839844 2.761719 3.910156 Z M 2.171875 4.519531 C 2.222656 4.566406 2.265625 4.601562 2.3125 4.628906 C 2.359375 4.660156 2.402344 4.675781 2.445312 4.683594 C 2.488281 4.691406 2.527344 4.691406 2.566406 4.679688 C 2.605469 4.664062 2.640625 4.640625 2.675781 4.605469 C 2.710938 4.570312 2.734375 4.53125 2.746094 4.492188 C 2.757812 4.453125 2.757812 4.410156 2.746094 4.371094 C 2.738281 4.328125 2.71875 4.285156 2.6875 4.242188 C 2.65625 4.195312 2.617188 4.152344 2.570312 4.105469 C 2.523438 4.0625 2.476562 4.023438 2.433594 3.996094 C 2.386719 3.96875 2.34375 3.949219 2.300781 3.941406 C 2.257812 3.933594 2.21875 3.933594 2.179688 3.945312 C 2.140625 3.960938 2.105469 3.984375 2.070312 4.019531 C 2.035156 4.054688 2.011719 4.09375 2 4.132812 C 1.988281 4.171875 1.988281 4.214844 2 4.257812 C 2.007812 4.296875 2.027344 4.34375 2.058594 4.386719 C 2.089844 4.429688 2.125 4.476562 2.171875 4.519531 Z M 2.171875 4.519531 "/>
</g>
</g>
<g clip-path="url(#clip11)" clip-rule="nonzero">
<g clip-path="url(#clip12)" clip-rule="nonzero">
<path style=" stroke:none;fill-rule:nonzero;fill:rgb(100%,100%,100%);fill-opacity:1;" d="M 3.003906 3.050781 C 2.96875 3.085938 2.945312 3.125 2.929688 3.167969 C 2.917969 3.210938 2.914062 3.253906 2.921875 3.296875 C 2.933594 3.34375 2.949219 3.386719 2.980469 3.433594 C 3.007812 3.480469 3.046875 3.527344 3.09375 3.570312 C 3.140625 3.617188 3.1875 3.652344 3.234375 3.679688 C 3.277344 3.707031 3.324219 3.726562 3.367188 3.730469 C 3.410156 3.738281 3.453125 3.734375 3.492188 3.71875 C 3.535156 3.703125 3.574219 3.675781 3.609375 3.632812 C 3.644531 3.597656 3.675781 3.558594 3.703125 3.511719 C 3.730469 3.46875 3.757812 3.417969 3.785156 3.359375 L 3.945312 3.511719 C 3.933594 3.539062 3.921875 3.566406 3.910156 3.59375 C 3.894531 3.617188 3.882812 3.640625 3.867188 3.664062 C 3.851562 3.6875 3.832031 3.710938 3.816406 3.734375 C 3.796875 3.757812 3.777344 3.78125 3.753906 3.804688 C 3.6875 3.875 3.617188 3.925781 3.546875 3.953125 C 3.476562 3.984375 3.402344 3.996094 3.332031 3.992188 C 3.257812 3.984375 3.1875 3.964844 3.113281 3.925781 C 3.042969 3.886719 2.972656 3.832031 2.902344 3.765625 C 2.832031 3.703125 2.78125 3.632812 2.742188 3.558594 C 2.703125 3.484375 2.679688 3.410156 2.671875 3.335938 C 2.664062 3.261719 2.675781 3.1875 2.703125 3.113281 C 2.730469 3.039062 2.777344 2.964844 2.84375 2.898438 C 2.886719 2.851562 2.933594 2.8125 2.988281 2.78125 C 3.042969 2.746094 3.101562 2.71875 3.160156 2.695312 L 3.257812 2.90625 C 3.207031 2.925781 3.160156 2.945312 3.117188 2.96875 C 3.074219 2.988281 3.035156 3.019531 3.003906 3.050781 Z M 3.003906 3.050781 "/>
</g>
</g>
<g clip-path="url(#clip13)" clip-rule="nonzero">
<g clip-path="url(#clip14)" clip-rule="nonzero">
<path style=" stroke:none;fill-rule:nonzero;fill:rgb(100%,100%,100%);fill-opacity:1;" d="M 3.84375 2.683594 L 3.894531 2.628906 C 3.945312 2.578125 3.96875 2.53125 3.972656 2.488281 C 3.972656 2.445312 3.953125 2.402344 3.910156 2.363281 C 3.867188 2.320312 3.824219 2.304688 3.785156 2.3125 C 3.742188 2.320312 3.695312 2.347656 3.648438 2.402344 L 3.601562 2.449219 Z M 4 2.832031 L 4.34375 3.164062 L 4.160156 3.355469 L 3.261719 2.488281 L 3.496094 2.242188 C 3.609375 2.128906 3.710938 2.0625 3.808594 2.050781 C 3.90625 2.039062 4 2.078125 4.089844 2.164062 C 4.121094 2.195312 4.144531 2.226562 4.164062 2.257812 C 4.179688 2.289062 4.191406 2.320312 4.199219 2.355469 C 4.207031 2.386719 4.207031 2.417969 4.203125 2.449219 C 4.203125 2.484375 4.195312 2.511719 4.1875 2.542969 C 4.304688 2.566406 4.410156 2.589844 4.5 2.609375 C 4.539062 2.617188 4.578125 2.625 4.617188 2.632812 C 4.652344 2.640625 4.6875 2.648438 4.71875 2.652344 C 4.746094 2.660156 4.769531 2.664062 4.789062 2.667969 L 4.816406 2.671875 L 4.613281 2.886719 L 4.078125 2.75 Z M 4 2.832031 "/>
</g>
</g>
<g clip-path="url(#clip15)" clip-rule="nonzero">
<g clip-path="url(#clip16)" clip-rule="nonzero">
<path style=" stroke:none;fill-rule:nonzero;fill:rgb(90.196078%,90.196078%,90.196078%);fill-opacity:1;" d="M 1.441406 9.453125 L 5.75 9.445312 L 5.757812 5.984375 Z M 1.441406 9.453125 "/>
</g>
</g>
</g>
</svg>
