
<svg xmlns="http://www.w3.org/2000/svg" xmlns:xlink="http://www.w3.org/1999/xlink" width="16px" height="16px" viewBox="0 0 16 16" version="1.1">
<g id="surface1">
<path style="fill-rule:nonzero;fill:rgb(100%,90.196078%,81.176471%);fill-opacity:0.980392;stroke-width:28.191782;stroke-linecap:butt;stroke-linejoin:miter;stroke:rgb(65.098039%,44.705882%,25.098039%);stroke-opacity:0.980392;stroke-miterlimit:4;" d="M 81.5 25.125 L 430.5 25.125 C 461.625 25.125 486.875 50.375 486.875 81.5 L 486.875 430.5 C 486.875 461.625 461.625 486.875 430.5 486.875 L 81.5 486.875 C 50.375 486.875 25.125 461.625 25.125 430.5 L 25.125 81.5 C 25.125 50.375 50.375 25.125 81.5 25.125 Z M 81.5 25.125 " transform="matrix(0.03125,0,0,0.03125,0,0)"/>
<path style=" stroke:none;fill-rule:nonzero;fill:rgb(65.098039%,44.705882%,25.098039%);fill-opacity:0.980392;" d="M 12.675781 3.882812 C 11.636719 7.105469 6.867188 7.765625 4.039062 4.199219 C 4.070312 5.429688 3.96875 6.347656 4.523438 7.355469 C 4.152344 7.472656 3.886719 7.816406 3.882812 8.226562 C 3.695312 8.238281 3.511719 8.246094 3.304688 8.253906 C 2.980469 7.886719 2.574219 7.660156 2.191406 7.824219 C 1.628906 8.0625 1.449219 8.875 1.722656 9.660156 C 1.9375 10.28125 2.382812 10.714844 2.828125 10.742188 C 4.695312 12.050781 8.84375 12.996094 10.417969 10.832031 C 10.949219 10.101562 11.265625 9.539062 11.292969 8.402344 C 12.53125 7.128906 13.59375 6.171875 12.675781 3.882812 Z M 4.039062 4.199219 Z M 4.039062 4.199219 "/>
<path style=" stroke:none;fill-rule:nonzero;fill:rgb(65.098039%,44.705882%,25.098039%);fill-opacity:0.980392;" d="M 2.28125 8.402344 C 2.15625 8.402344 2.054688 8.523438 2.054688 8.664062 C 2.054688 8.800781 2.15625 8.914062 2.28125 8.914062 C 2.40625 8.914062 2.511719 8.800781 2.511719 8.664062 C 2.511719 8.523438 2.40625 8.402344 2.28125 8.402344 M 2.28125 8.402344 "/>
<path style=" stroke:none;fill-rule:nonzero;fill:rgb(41.960784%,29.411765%,15.686275%);fill-opacity:1;" d="M 7.847656 10.535156 L 10.511719 10.644531 L 10.335938 11.382812 L 7.546875 10.761719 C 7.648438 10.6875 7.742188 10.605469 7.847656 10.535156 M 7.847656 10.535156 "/>
<path style=" stroke:none;fill-rule:nonzero;fill:rgb(66.666667%,66.666667%,66.666667%);fill-opacity:1;" d="M 11.960938 10.800781 L 10.511719 10.605469 C 10.511719 10.605469 10.199219 10.671875 10.15625 10.933594 C 10.113281 11.199219 10.328125 11.382812 10.328125 11.382812 L 11.917969 11.375 M 11.960938 10.800781 "/>
<path style=" stroke:none;fill-rule:nonzero;fill:rgb(72.941176%,12.941176%,12.941176%);fill-opacity:1;" d="M 12.199219 10.605469 C 11.898438 10.667969 11.777344 11.039062 11.8125 11.28125 C 11.84375 11.519531 12.628906 12.304688 14.402344 11.09375 C 13.628906 10.972656 12.53125 10.53125 12.199219 10.605469 M 12.199219 10.605469 "/>
<path style=" stroke:none;fill-rule:nonzero;fill:rgb(27.45098%,25.098039%,23.921569%);fill-opacity:1;" d="M 10.457031 10.597656 C 10.457031 10.597656 10.140625 10.664062 10.097656 10.925781 C 10.058594 11.191406 10.265625 11.375 10.265625 11.375 L 10.320312 11.375 C 10.269531 11.28125 10.21875 11.148438 10.238281 10.984375 C 10.269531 10.75 10.453125 10.644531 10.542969 10.605469 M 10.457031 10.597656 "/>
</g>
</svg>
