
<svg xmlns="http://www.w3.org/2000/svg" xmlns:xlink="http://www.w3.org/1999/xlink" width="16px" height="16px" viewBox="0 0 16 16" version="1.1">
<g id="surface1">
<path style="fill-rule:nonzero;fill:rgb(20.392157%,28.627451%,36.862745%);fill-opacity:1;stroke-width:1.935101;stroke-linecap:butt;stroke-linejoin:miter;stroke:rgb(9.019608%,36.862745%,60%);stroke-opacity:1;stroke-miterlimit:4;" d="M 6.085417 263.089243 L 30.039029 263.089243 C 32.182154 263.089243 33.910765 264.817854 33.910765 266.960979 L 33.910765 290.914591 C 33.910765 293.057716 32.182154 294.786327 30.039029 294.786327 L 6.085417 294.786327 C 3.942292 294.786327 2.213681 293.057716 2.213681 290.914591 L 2.213681 266.960979 C 2.213681 264.817854 3.942292 263.089243 6.085417 263.089243 Z M 6.085417 263.089243 " transform="matrix(0.442913,0,0,0.442913,0,-115.545276)"/>
<path style=" stroke:none;fill-rule:nonzero;fill:rgb(17.254902%,24.313725%,31.372549%);fill-opacity:1;" d="M 4.898438 6.773438 C 5.59375 6.773438 6.160156 7.339844 6.160156 8.035156 C 6.160156 8.734375 5.59375 9.296875 4.898438 9.296875 C 4.199219 9.296875 3.636719 8.734375 3.636719 8.035156 C 3.636719 7.339844 4.199219 6.773438 4.898438 6.773438 Z M 4.898438 6.773438 "/>
<path style=" stroke:none;fill-rule:nonzero;fill:rgb(17.254902%,24.313725%,31.372549%);fill-opacity:1;" d="M 11.03125 6.773438 C 11.726562 6.773438 12.292969 7.339844 12.292969 8.035156 C 12.292969 8.734375 11.726562 9.296875 11.03125 9.296875 C 10.332031 9.296875 9.765625 8.734375 9.765625 8.035156 C 9.765625 7.339844 10.332031 6.773438 11.03125 6.773438 Z M 11.03125 6.773438 "/>
<path style=" stroke:none;fill-rule:nonzero;fill:rgb(95.294118%,61.176471%,7.058824%);fill-opacity:1;" d="M 4.898438 7.132812 C 5.394531 7.132812 5.800781 7.539062 5.800781 8.035156 C 5.800781 8.535156 5.394531 8.9375 4.898438 8.9375 C 4.398438 8.9375 3.996094 8.535156 3.996094 8.035156 C 3.996094 7.539062 4.398438 7.132812 4.898438 7.132812 Z M 4.898438 7.132812 "/>
<path style=" stroke:none;fill-rule:nonzero;fill:rgb(96.078431%,78.823529%,45.098039%);fill-opacity:1;" d="M 11.03125 7.132812 C 11.527344 7.132812 11.929688 7.539062 11.929688 8.035156 C 11.929688 8.535156 11.527344 8.9375 11.03125 8.9375 C 10.53125 8.9375 10.128906 8.535156 10.128906 8.035156 C 10.128906 7.539062 10.53125 7.132812 11.03125 7.132812 Z M 11.03125 7.132812 "/>
<path style=" stroke:none;fill-rule:nonzero;fill:rgb(17.254902%,24.313725%,31.372549%);fill-opacity:1;" d="M 7.964844 6.773438 C 8.660156 6.773438 9.226562 7.339844 9.226562 8.035156 C 9.226562 8.734375 8.660156 9.296875 7.964844 9.296875 C 7.265625 9.296875 6.703125 8.734375 6.703125 8.035156 C 6.703125 7.339844 7.265625 6.773438 7.964844 6.773438 Z M 7.964844 6.773438 "/>
<path style=" stroke:none;fill-rule:nonzero;fill:rgb(96.862745%,73.72549%,36.862745%);fill-opacity:1;" d="M 7.964844 7.132812 C 8.460938 7.132812 8.867188 7.539062 8.867188 8.035156 C 8.867188 8.535156 8.460938 8.9375 7.964844 8.9375 C 7.464844 8.9375 7.0625 8.535156 7.0625 8.035156 C 7.0625 7.539062 7.464844 7.132812 7.964844 7.132812 Z M 7.964844 7.132812 "/>
</g>
</svg>
