
<svg xmlns="http://www.w3.org/2000/svg" xmlns:xlink="http://www.w3.org/1999/xlink" width="16px" height="16px" viewBox="0 0 16 16" version="1.1">
<g id="surface1">
<path style="fill-rule:nonzero;fill:rgb(44.313725%,78.431373%,21.568627%);fill-opacity:1;stroke-width:20.136691;stroke-linecap:butt;stroke-linejoin:miter;stroke:rgb(35.686275%,62.745098%,17.254902%);stroke-opacity:1;stroke-miterlimit:4;" d="M 65.834981 14.66783 L 447.164896 14.66783 C 475.441479 14.66783 498.466696 37.558397 498.466696 65.83498 L 498.466696 447.164895 C 498.466696 475.441478 475.441479 498.466695 447.164896 498.466695 L 65.834981 498.466695 C 37.558398 498.466695 14.667831 475.441478 14.667831 447.164895 L 14.667831 65.83498 C 14.667831 37.558397 37.558398 14.66783 65.834981 14.66783 Z M 65.834981 14.66783 " transform="matrix(0.0290103,0,0,0.0290103,0.558857,0.558857)"/>
<path style=" stroke:none;fill-rule:nonzero;fill:rgb(100%,100%,100%);fill-opacity:1;" d="M 3.125 3.148438 L 3.125 4.402344 C 3.136719 4.410156 3.144531 4.414062 3.152344 4.417969 L 5.328125 5.839844 C 5.429688 5.90625 5.429688 6.011719 5.328125 6.078125 L 3.152344 7.496094 C 3.144531 7.5 3.136719 7.507812 3.125 7.511719 L 3.125 8.769531 C 3.1875 8.753906 3.246094 8.730469 3.296875 8.699219 L 6.90625 6.34375 L 6.90625 5.609375 C 6.90625 5.597656 6.90625 5.585938 6.90625 5.574219 L 3.296875 3.21875 C 3.246094 3.183594 3.1875 3.160156 3.125 3.148438 Z M 3.125 3.148438 "/>
<path style=" stroke:none;fill-rule:nonzero;fill:rgb(100%,100%,100%);fill-opacity:1;" d="M 4.988281 9.121094 L 9.109375 9.121094 L 9.109375 10.289062 L 4.988281 10.289062 Z M 4.988281 9.121094 "/>
</g>
</svg>
