
<svg xmlns="http://www.w3.org/2000/svg" xmlns:xlink="http://www.w3.org/1999/xlink" width="16px" height="16px" viewBox="0 0 16 16" version="1.1">
<g id="surface1">
<path style="fill-rule:evenodd;fill:rgb(0%,50.196078%,0%);fill-opacity:1;stroke-width:30.578964;stroke-linecap:butt;stroke-linejoin:miter;stroke:rgb(0%,38.823529%,0%);stroke-opacity:1;stroke-miterlimit:4;" d="M 78.25 27.875 L 433.75 27.875 C 461.625 27.875 484.125 50.375 484.125 78.25 L 484.125 433.75 C 484.125 461.625 461.625 484.125 433.75 484.125 L 78.25 484.125 C 50.375 484.125 27.875 461.625 27.875 433.75 L 27.875 78.25 C 27.875 50.375 50.375 27.875 78.25 27.875 Z M 78.25 27.875 " transform="matrix(0.03125,0,0,0.03125,0,0)"/>
<path style=" stroke:none;fill-rule:nonzero;fill:rgb(88.627451%,89.019608%,85.882353%);fill-opacity:1;" d="M 7.890625 13.371094 C 6.691406 13.230469 5.628906 12.726562 4.808594 11.90625 C 4.019531 11.117188 3.515625 10.078125 3.375 8.953125 C 3.347656 8.71875 3.347656 8.050781 3.375 7.816406 C 3.515625 6.695312 4.019531 5.65625 4.808594 4.863281 C 5.441406 4.234375 6.246094 3.773438 7.109375 3.546875 C 7.628906 3.414062 7.753906 3.398438 8.40625 3.398438 C 9.054688 3.398438 9.183594 3.414062 9.703125 3.546875 C 11.703125 4.066406 13.179688 5.757812 13.433594 7.816406 C 13.464844 8.050781 13.464844 8.71875 13.433594 8.953125 C 13.296875 10.078125 12.792969 11.117188 12 11.90625 C 11.265625 12.644531 10.335938 13.125 9.265625 13.324219 C 9.085938 13.355469 8.921875 13.367188 8.5 13.375 C 8.207031 13.378906 7.933594 13.375 7.890625 13.371094 Z M 7.890625 13.371094 "/>
<path style=" stroke:none;fill-rule:nonzero;fill:rgb(0%,50.196078%,0%);fill-opacity:1;" d="M 7.375 14.214844 C 5.699219 14.054688 4.089844 13.191406 3.039062 11.882812 C 2.449219 11.148438 2.015625 10.238281 1.8125 9.332031 C 1.703125 8.828125 1.675781 8.5625 1.675781 7.988281 C 1.675781 7.234375 1.761719 6.699219 1.992188 6.003906 C 2.121094 5.613281 2.433594 4.960938 2.664062 4.605469 C 4.296875 2.101562 7.5 1.074219 10.292969 2.164062 C 12.257812 2.929688 13.710938 4.613281 14.160156 6.644531 C 14.199219 6.8125 14.246094 7.066406 14.265625 7.199219 C 14.308594 7.515625 14.308594 8.460938 14.265625 8.773438 C 14.101562 9.921875 13.640625 11 12.933594 11.882812 C 11.617188 13.527344 9.5 14.414062 7.375 14.214844 Z M 6.9375 11.945312 C 7.738281 11.183594 11.246094 7.652344 11.246094 7.613281 C 11.246094 7.574219 11.214844 7.566406 11.046875 7.5625 C 10.941406 7.558594 10.3125 7.550781 9.648438 7.542969 L 8.449219 7.523438 L 9.277344 6.085938 C 9.734375 5.292969 10.101562 4.628906 10.097656 4.605469 C 10.089844 4.570312 9.839844 4.566406 8.046875 4.558594 C 6.125 4.550781 6.003906 4.554688 5.980469 4.597656 C 5.96875 4.625 5.789062 5.675781 5.582031 6.9375 C 5.265625 8.863281 5.214844 9.230469 5.246094 9.25 C 5.269531 9.265625 5.753906 9.277344 6.324219 9.277344 C 7.304688 9.277344 7.367188 9.28125 7.351562 9.324219 C 7.222656 9.753906 6.609375 12.113281 6.621094 12.144531 C 6.628906 12.164062 6.648438 12.183594 6.664062 12.183594 C 6.679688 12.183594 6.800781 12.074219 6.9375 11.945312 Z M 6.9375 11.945312 "/>
</g>
</svg>
