
<svg xmlns="http://www.w3.org/2000/svg" xmlns:xlink="http://www.w3.org/1999/xlink" width="16px" height="16px" viewBox="0 0 16 16" version="1.1">
<defs>
<clipPath id="clip1">
  <path d="M 1.1875 1.1875 L 14.8125 1.1875 L 14.8125 14.8125 L 1.1875 14.8125 Z M 1.1875 1.1875 "/>
</clipPath>
<clipPath id="clip2">
  <path d="M 2.703125 1.207031 L 13.296875 1.207031 C 14.125 1.207031 14.792969 1.875 14.792969 2.703125 L 14.792969 13.296875 C 14.792969 14.125 14.125 14.792969 13.296875 14.792969 L 2.703125 14.792969 C 1.875 14.792969 1.207031 14.125 1.207031 13.296875 L 1.207031 2.703125 C 1.207031 1.875 1.875 1.207031 2.703125 1.207031 Z M 2.703125 1.207031 "/>
</clipPath>
<radialGradient id="radial0" gradientUnits="userSpaceOnUse" cx="256" cy="256" fx="256" fy="256" r="226.38" gradientTransform="matrix(0.0474444,0,0,0.0474444,-4.028553,-4.028734)">
<stop offset="0" style="stop-color:rgb(83.137255%,33.333333%,0%);stop-opacity:0.172549;"/>
<stop offset="1" style="stop-color:rgb(90.196078%,36.078431%,0%);stop-opacity:0.501961;"/>
</radialGradient>
</defs>
<g id="surface1">
<path style=" stroke:none;fill-rule:evenodd;fill:rgb(74.901961%,39.215686%,5.490196%);fill-opacity:1;" d="M 2.164062 0.511719 L 13.835938 0.511719 C 14.75 0.511719 15.488281 1.25 15.488281 2.164062 L 15.488281 13.835938 C 15.488281 14.75 14.75 15.488281 13.835938 15.488281 L 2.164062 15.488281 C 1.25 15.488281 0.511719 14.75 0.511719 13.835938 L 0.511719 2.164062 C 0.511719 1.25 1.25 0.511719 2.164062 0.511719 Z M 2.164062 0.511719 "/>
<g clip-path="url(#clip1)" clip-rule="nonzero">
<g clip-path="url(#clip2)" clip-rule="nonzero">
<path style=" stroke:none;fill-rule:evenodd;fill:rgb(96.470588%,56.078431%,10.588235%);fill-opacity:1;" d="M 18.363281 7.976562 C 18.363281 13.714844 13.710938 18.363281 7.976562 18.363281 C 2.242188 18.363281 -2.410156 13.714844 -2.410156 7.976562 C -2.410156 2.242188 2.242188 -2.410156 7.976562 -2.410156 C 13.710938 -2.410156 18.363281 2.242188 18.363281 7.976562 "/>
<path style=" stroke:none;fill-rule:nonzero;fill:url(#radial0);" d="M 5.96875 -2.214844 C 4.660156 -1.957031 3.445312 -1.457031 2.363281 -0.761719 L 7.773438 7.773438 L -0.726562 2.308594 C -1.429688 3.386719 -1.9375 4.601562 -2.203125 5.910156 L 7.664062 8.117188 L -2.15625 10.253906 C -1.871094 11.539062 -1.34375 12.734375 -0.628906 13.792969 L 7.773438 8.460938 L 2.433594 16.761719 C 3.5 17.433594 4.691406 17.917969 5.972656 18.167969 L 8.117188 8.574219 L 10.195312 18.125 C 11.453125 17.851562 12.625 17.351562 13.667969 16.667969 L 8.460938 8.460938 L 16.632812 13.71875 C 17.324219 12.679688 17.832031 11.507812 18.113281 10.253906 L 8.574219 8.117188 L 18.179688 6.027344 C 17.9375 4.75 17.460938 3.554688 16.796875 2.488281 L 8.460938 7.773438 L 13.84375 -0.59375 C 12.789062 -1.316406 11.597656 -1.851562 10.3125 -2.144531 L 8.117188 7.664062 L 5.96875 -2.214844 "/>
</g>
</g>
<path style=" stroke:none;fill-rule:nonzero;fill:rgb(100%,100%,100%);fill-opacity:1;" d="M 4.109375 13.015625 C 3.976562 13.015625 3.78125 13.003906 3.523438 12.972656 C 3.253906 12.945312 3.007812 12.894531 2.777344 12.816406 L 3.066406 11.085938 C 3.207031 11.132812 3.339844 11.167969 3.464844 11.1875 C 3.578125 11.207031 3.726562 11.214844 3.910156 11.214844 C 4.242188 11.214844 4.476562 11.117188 4.609375 10.914062 C 4.742188 10.714844 4.808594 10.425781 4.808594 10.042969 L 4.808594 3.328125 L 6.9375 2.851562 L 6.9375 10.101562 C 6.9375 11.089844 6.695312 11.824219 6.210938 12.300781 C 5.722656 12.777344 5.023438 13.015625 4.109375 13.015625 "/>
</g>
</svg>
