
<svg xmlns="http://www.w3.org/2000/svg" xmlns:xlink="http://www.w3.org/1999/xlink" width="16px" height="16px" viewBox="0 0 16 16" version="1.1">
<g id="surface1">
<path style="fill-rule:nonzero;fill:rgb(20%,28.235294%,36.470588%);fill-opacity:1;stroke-width:56.788383;stroke-linecap:butt;stroke-linejoin:miter;stroke:rgb(0%,80%,100%);stroke-opacity:1;stroke-miterlimit:4;" d="M 160.5 47 L 863.5 47 C 926.25 47 977 97.75 977 160.5 L 977 863.5 C 977 926.25 926.25 977 863.5 977 L 160.5 977 C 97.75 977 47 926.25 47 863.5 L 47 160.5 C 47 97.75 97.75 47 160.5 47 Z M 160.5 47 " transform="matrix(0.015625,0,0,0.015625,0,0)"/>
<path style=" stroke:none;fill-rule:nonzero;fill:rgb(85.882353%,88.627451%,89.019608%);fill-opacity:1;" d="M 4.777344 13 C 4.542969 12.964844 4.363281 12.875 4.191406 12.710938 C 4.042969 12.5625 3.953125 12.410156 3.902344 12.210938 L 3.875 12.109375 L 3.875 4.003906 L 3.902344 3.90625 C 4.003906 3.527344 4.285156 3.246094 4.660156 3.144531 L 4.761719 3.117188 L 11.410156 3.117188 L 11.507812 3.144531 C 11.886719 3.246094 12.167969 3.527344 12.269531 3.90625 L 12.292969 4.003906 L 12.292969 12.109375 L 12.269531 12.210938 C 12.21875 12.402344 12.140625 12.542969 12 12.6875 C 11.855469 12.835938 11.703125 12.925781 11.503906 12.980469 L 11.410156 13.003906 L 8.125 13.007812 C 6.320312 13.007812 4.8125 13.003906 4.777344 13 Z M 4.777344 13 "/>
<path style=" stroke:none;fill-rule:nonzero;fill:rgb(20%,28.235294%,36.470588%);fill-opacity:1;" d="M 7.585938 10.074219 C 7.730469 9.980469 7.851562 9.847656 7.914062 9.707031 C 7.96875 9.585938 8 9.375 7.96875 9.355469 C 7.960938 9.351562 7.902344 9.402344 7.832031 9.46875 C 7.65625 9.640625 7.503906 9.734375 7.3125 9.796875 C 7.042969 9.882812 6.785156 9.863281 6.546875 9.738281 C 6.363281 9.644531 6.171875 9.429688 6.074219 9.210938 C 5.761719 8.515625 6.070312 7.664062 6.984375 6.691406 C 7.304688 6.351562 7.777344 5.949219 8.066406 5.769531 C 8.175781 5.703125 8.167969 5.703125 8.339844 5.816406 C 8.808594 6.128906 9.414062 6.707031 9.769531 7.179688 C 10.417969 8.046875 10.550781 8.789062 10.164062 9.386719 C 10.015625 9.609375 9.839844 9.742188 9.597656 9.808594 C 9.460938 9.84375 9.21875 9.84375 9.070312 9.808594 C 8.851562 9.753906 8.621094 9.613281 8.460938 9.4375 C 8.363281 9.328125 8.347656 9.328125 8.359375 9.453125 C 8.367188 9.550781 8.40625 9.6875 8.457031 9.769531 C 8.53125 9.902344 8.625 9.996094 8.761719 10.082031 L 8.835938 10.132812 L 7.5 10.132812 Z M 7.585938 10.074219 "/>
</g>
</svg>
