
<svg xmlns="http://www.w3.org/2000/svg" xmlns:xlink="http://www.w3.org/1999/xlink" width="16px" height="16px" viewBox="0 0 16 16" version="1.1">
<g id="surface1">
<path style="fill-rule:nonzero;fill:rgb(95.294118%,97.254902%,97.647059%);fill-opacity:1;stroke-width:53.967125;stroke-linecap:butt;stroke-linejoin:miter;stroke:rgb(0%,41.568627%,72.54902%);stroke-opacity:1;stroke-miterlimit:4;" d="M 178 70 L 846 70 C 905.75 70 954 118.25 954 178 L 954 846 C 954 905.75 905.75 954 846 954 L 178 954 C 118.25 954 70 905.75 70 846 L 70 178 C 70 118.25 118.25 70 178 70 Z M 178 70 " transform="matrix(0.015625,0,0,0.015625,0,0)"/>
<path style="fill-rule:nonzero;fill:rgb(94.117647%,100%,100%);fill-opacity:1;stroke-width:7.766708;stroke-linecap:butt;stroke-linejoin:miter;stroke:rgb(25.490196%,41.176471%,88.235294%);stroke-opacity:1;stroke-miterlimit:4;" d="M 467.75 872.25 C 340 856.5 231 774.75 180.25 656.75 C 152.75 592.25 144.25 520.5 156.25 451.5 C 180.5 312 284.25 198.75 420 164 C 452.75 155.5 469.25 153.5 507.75 153.5 C 545.5 153.5 562.75 155.5 593.25 163.25 C 694.5 188.5 778.75 256 826.25 349.75 C 874.5 445 878.5 552.75 837.5 653 C 803 738 731 810.75 646.5 846.25 C 615 859.5 579.25 868.75 547 872.25 C 530.25 874 482.75 874 467.75 872.25 Z M 467.75 872.25 " transform="matrix(0.015625,0,0,0.015625,0,0)"/>
<path style=" stroke:none;fill-rule:nonzero;fill:rgb(25.490196%,41.176471%,88.235294%);fill-opacity:1;" d="M 7.253906 13.605469 C 5.960938 13.441406 4.730469 12.785156 3.855469 11.796875 C 2.917969 10.742188 2.394531 9.359375 2.398438 7.933594 C 2.398438 7.671875 2.414062 7.5625 2.453125 7.5625 C 2.492188 7.5625 2.660156 7.808594 2.660156 7.867188 C 2.660156 7.949219 2.714844 7.980469 2.730469 7.90625 C 2.738281 7.878906 2.757812 7.851562 2.777344 7.851562 C 2.792969 7.851562 2.9375 7.90625 3.101562 7.972656 C 3.363281 8.082031 3.421875 8.121094 3.621094 8.304688 C 3.855469 8.519531 3.867188 8.527344 4.066406 8.554688 C 4.136719 8.5625 4.199219 8.582031 4.207031 8.597656 C 4.214844 8.613281 4.164062 8.757812 4.089844 8.921875 C 3.945312 9.25 3.875 9.488281 3.875 9.652344 C 3.875 9.910156 4.101562 10.289062 4.472656 10.65625 C 4.609375 10.789062 4.738281 10.941406 4.761719 10.992188 C 4.785156 11.046875 4.800781 11.171875 4.800781 11.292969 C 4.800781 11.40625 4.824219 11.59375 4.851562 11.710938 C 4.902344 11.921875 4.902344 11.925781 4.847656 12.140625 C 4.800781 12.328125 4.796875 12.371094 4.828125 12.441406 C 4.890625 12.59375 5.375 12.878906 5.546875 12.859375 C 5.628906 12.851562 5.632812 12.847656 5.632812 12.730469 C 5.632812 12.632812 5.652344 12.582031 5.734375 12.46875 C 5.792969 12.394531 5.898438 12.285156 5.976562 12.226562 C 6.128906 12.117188 6.113281 12.144531 6.265625 11.613281 C 6.3125 11.453125 6.332031 11.429688 6.59375 11.253906 C 6.792969 11.117188 6.832031 11.03125 6.832031 10.726562 C 6.832031 10.5 6.84375 10.453125 6.980469 10.054688 C 7.066406 9.8125 7.121094 9.617188 7.105469 9.605469 C 7.09375 9.589844 6.972656 9.539062 6.839844 9.488281 C 6.582031 9.386719 6.261719 9.210938 6.199219 9.136719 C 6.179688 9.113281 6.136719 9.085938 6.105469 9.070312 C 6.066406 9.058594 6.042969 9.019531 6.03125 8.945312 C 6.015625 8.851562 6 8.828125 5.871094 8.753906 C 5.789062 8.710938 5.691406 8.667969 5.652344 8.667969 C 5.585938 8.660156 5.578125 8.648438 5.539062 8.476562 L 5.5 8.289062 L 5.25 8.261719 C 5.042969 8.242188 4.96875 8.21875 4.847656 8.148438 C 4.636719 8.027344 4.5625 8.035156 4.402344 8.195312 C 4.332031 8.269531 4.273438 8.339844 4.273438 8.355469 C 4.273438 8.371094 4.230469 8.382812 4.175781 8.382812 C 4.105469 8.382812 4.078125 8.371094 4.070312 8.332031 C 4.0625 8.304688 4.011719 8.261719 3.957031 8.242188 C 3.847656 8.195312 3.824219 8.148438 3.824219 7.96875 C 3.824219 7.851562 3.757812 7.773438 3.660156 7.773438 C 3.578125 7.773438 3.550781 7.703125 3.582031 7.582031 C 3.652344 7.335938 3.652344 7.347656 3.550781 7.347656 C 3.5 7.347656 3.429688 7.371094 3.394531 7.402344 C 3.355469 7.429688 3.3125 7.453125 3.296875 7.453125 C 3.28125 7.453125 3.226562 7.371094 3.175781 7.269531 C 3.046875 7.015625 3.003906 7.027344 3.003906 7.3125 C 3.003906 7.390625 2.992188 7.453125 2.980469 7.441406 C 2.941406 7.417969 2.929688 7.214844 2.957031 7.074219 C 3.007812 6.832031 3.277344 6.636719 3.632812 6.589844 C 3.789062 6.570312 3.902344 6.59375 3.902344 6.644531 C 3.902344 6.691406 4.101562 6.855469 4.136719 6.832031 C 4.148438 6.824219 4.167969 6.761719 4.175781 6.6875 C 4.195312 6.546875 4.257812 6.4375 4.457031 6.207031 C 4.523438 6.128906 4.625 5.980469 4.679688 5.878906 C 4.800781 5.664062 5.011719 5.492188 5.328125 5.355469 C 5.578125 5.246094 5.828125 5.089844 5.828125 5.046875 C 5.828125 4.996094 5.664062 4.933594 5.519531 4.933594 C 5.40625 4.933594 5.398438 4.929688 5.445312 4.894531 C 5.472656 4.875 5.558594 4.84375 5.640625 4.828125 C 5.910156 4.773438 6.070312 4.710938 6.167969 4.625 C 6.242188 4.5625 6.257812 4.53125 6.238281 4.503906 C 6.222656 4.484375 6.15625 4.378906 6.085938 4.273438 C 5.957031 4.078125 5.882812 4.027344 5.753906 4.039062 C 5.691406 4.046875 5.683594 4.035156 5.6875 3.972656 C 5.695312 3.910156 5.675781 3.890625 5.5625 3.832031 C 5.488281 3.792969 5.410156 3.769531 5.390625 3.777344 C 5.371094 3.785156 5.308594 3.890625 5.25 4.011719 C 5.152344 4.226562 4.894531 4.585938 4.835938 4.589844 C 4.820312 4.589844 4.800781 4.554688 4.789062 4.511719 C 4.777344 4.449219 4.746094 4.421875 4.585938 4.347656 C 4.40625 4.265625 4.296875 4.171875 4.296875 4.097656 C 4.296875 4.03125 4.4375 3.898438 4.671875 3.742188 C 4.921875 3.574219 4.957031 3.558594 4.957031 3.621094 C 4.957031 3.648438 4.988281 3.660156 5.0625 3.660156 C 5.152344 3.660156 5.179688 3.644531 5.289062 3.523438 C 5.511719 3.265625 5.667969 3.199219 5.726562 3.328125 C 5.761719 3.40625 6.027344 3.527344 6.164062 3.527344 C 6.261719 3.527344 6.359375 3.488281 6.359375 3.449219 C 6.359375 3.433594 6.328125 3.410156 6.292969 3.390625 C 6.257812 3.375 6.210938 3.316406 6.183594 3.257812 C 6.132812 3.140625 6.058594 3.09375 5.890625 3.066406 C 5.828125 3.054688 5.777344 3.039062 5.777344 3.027344 C 5.777344 3.015625 5.925781 2.9375 6.105469 2.851562 L 6.4375 2.695312 L 6.519531 2.78125 C 6.5625 2.824219 6.65625 2.90625 6.726562 2.960938 C 6.796875 3.015625 6.871094 3.09375 6.890625 3.140625 C 6.917969 3.207031 6.914062 3.230469 6.851562 3.34375 C 6.8125 3.414062 6.78125 3.488281 6.78125 3.507812 C 6.78125 3.582031 6.996094 3.984375 7.03125 3.972656 C 7.046875 3.96875 7.148438 3.871094 7.257812 3.753906 C 7.363281 3.636719 7.476562 3.527344 7.503906 3.507812 C 7.535156 3.492188 7.691406 3.433594 7.855469 3.382812 C 8.25 3.253906 8.351562 3.167969 8.46875 2.851562 C 8.535156 2.671875 8.570312 2.613281 8.644531 2.5625 C 8.742188 2.496094 8.722656 2.460938 8.597656 2.484375 C 8.511719 2.503906 8.488281 2.464844 8.539062 2.394531 C 8.558594 2.363281 8.5 2.378906 8.542969 2.378906 C 8.597656 2.375 8.769531 2.371094 9.023438 2.417969 C 9.523438 2.515625 10.402344 2.847656 10.605469 3.015625 L 10.667969 3.066406 L 10.539062 3.125 C 10.46875 3.15625 10.363281 3.195312 10.300781 3.210938 C 10.214844 3.230469 10.171875 3.265625 10.082031 3.390625 C 10.019531 3.472656 9.898438 3.605469 9.808594 3.6875 L 9.652344 3.832031 L 9.667969 3.976562 C 9.6875 4.171875 9.710938 4.1875 9.859375 4.117188 L 9.980469 4.058594 L 10.097656 4.164062 C 10.273438 4.328125 10.3125 4.308594 10.371094 4.019531 C 10.410156 3.820312 10.480469 3.664062 10.550781 3.597656 C 10.636719 3.523438 10.652344 3.5625 10.578125 3.664062 L 10.515625 3.746094 L 10.574219 3.785156 C 10.695312 3.867188 10.632812 4.148438 10.460938 4.320312 L 10.34375 4.4375 L 10.195312 4.421875 C 10.015625 4.398438 10 4.390625 10 4.308594 C 10 4.269531 9.988281 4.246094 9.964844 4.246094 C 9.914062 4.246094 9.871094 4.328125 9.871094 4.414062 C 9.871094 4.472656 9.855469 4.484375 9.800781 4.484375 C 9.765625 4.484375 9.710938 4.496094 9.679688 4.511719 C 9.636719 4.535156 9.617188 4.53125 9.566406 4.484375 C 9.53125 4.453125 9.488281 4.386719 9.472656 4.339844 C 9.453125 4.296875 9.410156 4.210938 9.375 4.15625 C 9.324219 4.074219 9.300781 4.058594 9.242188 4.0625 C 9.164062 4.074219 9.160156 4.085938 9.195312 4.308594 C 9.210938 4.425781 9.210938 4.4375 9.164062 4.417969 C 9.140625 4.40625 9.078125 4.390625 9.03125 4.382812 C 8.925781 4.367188 8.90625 4.40625 8.953125 4.5625 C 8.988281 4.683594 9.050781 4.738281 9.050781 4.648438 C 9.050781 4.621094 9.070312 4.582031 9.09375 4.5625 C 9.128906 4.53125 9.136719 4.535156 9.160156 4.566406 C 9.171875 4.585938 9.183594 4.625 9.183594 4.652344 C 9.183594 4.679688 9.203125 4.734375 9.230469 4.78125 C 9.273438 4.855469 9.273438 4.859375 9.210938 4.90625 L 9.144531 4.957031 L 9.21875 5.089844 C 9.257812 5.160156 9.289062 5.230469 9.289062 5.242188 C 9.289062 5.257812 9.226562 5.28125 9.152344 5.300781 C 8.925781 5.355469 8.84375 5.484375 8.839844 5.789062 C 8.839844 5.910156 8.84375 5.917969 8.933594 5.957031 C 8.988281 5.976562 9.054688 5.996094 9.082031 5.996094 C 9.109375 5.996094 9.257812 5.875 9.417969 5.71875 C 9.6875 5.460938 9.867188 5.332031 9.964844 5.332031 C 10.007812 5.332031 10.167969 5.496094 10.230469 5.609375 C 10.25 5.640625 10.265625 5.691406 10.265625 5.722656 C 10.265625 5.808594 10.351562 5.800781 10.421875 5.714844 C 10.453125 5.675781 10.476562 5.609375 10.476562 5.566406 C 10.476562 5.453125 10.519531 5.484375 10.644531 5.6875 C 10.703125 5.789062 10.765625 5.875 10.785156 5.882812 C 10.800781 5.886719 10.835938 5.832031 10.867188 5.757812 C 10.902344 5.679688 10.941406 5.625 10.964844 5.625 C 10.988281 5.625 11.003906 5.636719 11.003906 5.648438 C 11.003906 5.695312 11.28125 5.875 11.484375 5.957031 C 11.601562 6.003906 11.703125 6.050781 11.710938 6.058594 C 11.738281 6.085938 11.640625 6.207031 11.53125 6.277344 C 11.402344 6.363281 11.289062 6.367188 11.003906 6.292969 C 10.785156 6.234375 10.6875 6.242188 10.621094 6.316406 C 10.59375 6.34375 10.5625 6.367188 10.546875 6.367188 C 10.53125 6.367188 10.433594 6.300781 10.332031 6.21875 C 10.015625 5.960938 10.039062 5.96875 9.613281 5.96875 C 9.308594 5.96875 9.230469 5.976562 9.199219 6.011719 C 9.175781 6.035156 9.15625 6.0625 9.15625 6.070312 C 9.15625 6.082031 9.113281 6.113281 9.0625 6.140625 C 9.011719 6.167969 8.894531 6.273438 8.800781 6.371094 C 8.601562 6.582031 8.417969 6.933594 8.351562 7.230469 C 8.328125 7.332031 8.285156 7.511719 8.253906 7.632812 C 8.21875 7.769531 8.207031 7.882812 8.21875 7.941406 C 8.253906 8.140625 8.507812 8.527344 8.742188 8.746094 C 8.875 8.871094 8.910156 8.878906 9.023438 8.820312 C 9.066406 8.800781 9.15625 8.78125 9.226562 8.785156 C 9.296875 8.789062 9.425781 8.769531 9.511719 8.742188 C 9.746094 8.675781 9.882812 8.695312 9.996094 8.820312 C 10.085938 8.917969 10.085938 8.921875 10.070312 9.082031 C 10.054688 9.234375 10.0625 9.273438 10.1875 9.628906 L 10.324219 10.015625 L 10.300781 10.371094 C 10.261719 11.015625 10.269531 11.085938 10.40625 11.511719 C 10.476562 11.726562 10.542969 11.976562 10.5625 12.078125 C 10.589844 12.253906 10.589844 12.257812 10.671875 12.253906 C 10.796875 12.253906 11.085938 12.144531 11.253906 12.03125 C 11.441406 11.90625 11.546875 11.777344 11.601562 11.609375 C 11.625 11.539062 11.679688 11.429688 11.71875 11.371094 C 11.792969 11.265625 11.792969 11.253906 11.765625 11.121094 C 11.730469 10.957031 11.753906 10.925781 11.96875 10.78125 C 12.1875 10.640625 12.226562 10.585938 12.226562 10.40625 C 12.230469 10.324219 12.222656 10.117188 12.210938 9.949219 C 12.183594 9.570312 12.207031 9.496094 12.515625 9.003906 C 12.75 8.632812 12.84375 8.429688 12.859375 8.261719 L 12.867188 8.15625 L 12.710938 8.144531 L 12.558594 8.132812 L 12.605469 8.074219 C 12.632812 8.042969 12.75 7.9375 12.867188 7.839844 C 13.101562 7.644531 13.207031 7.519531 13.25 7.382812 C 13.285156 7.28125 13.265625 7.113281 13.210938 7.039062 C 13.175781 6.992188 13.171875 6.992188 13.097656 7.0625 C 13.054688 7.101562 13.011719 7.136719 12.996094 7.136719 C 12.964844 7.136719 12.730469 6.816406 12.695312 6.722656 C 12.65625 6.617188 12.699219 6.585938 12.792969 6.652344 C 12.832031 6.679688 12.964844 6.753906 13.082031 6.816406 C 13.199219 6.875 13.316406 6.941406 13.339844 6.960938 C 13.441406 7.035156 13.496094 8.023438 13.433594 8.617188 C 13.324219 9.621094 12.945312 10.578125 12.328125 11.414062 C 12.097656 11.730469 11.578125 12.261719 11.269531 12.496094 C 10.5 13.089844 9.613281 13.464844 8.683594 13.59375 C 8.367188 13.636719 7.558594 13.644531 7.253906 13.605469 Z M 7.253906 13.605469 "/>
<path style=" stroke:none;fill-rule:nonzero;fill:rgb(47.843137%,63.921569%,15.686275%);fill-opacity:0.835294;" d="M 6.976562 2.390625 C 7.035156 2.382812 7.09375 2.375 7.152344 2.367188 C 7.636719 2.296875 8.078125 2.308594 8.503906 2.351562 C 9.445312 2.449219 10.25 2.726562 11.011719 3.21875 C 11.765625 3.710938 12.34375 4.324219 12.816406 5.140625 C 13.496094 6.320312 13.742188 7.699219 13.519531 9.054688 C 13.355469 10.03125 12.933594 10.933594 12.273438 11.714844 C 11.558594 12.554688 10.445312 13.304688 9.1875 13.582031 C 8.75 13.675781 8.230469 13.75 7.765625 13.625 C 6.730469 13.351562 5.960938 12.40625 5.847656 11.273438 C 5.75 10.273438 6.152344 9.308594 6.949219 8.640625 C 7.222656 8.410156 7.453125 8.265625 7.886719 8.058594 C 8.371094 7.828125 8.609375 7.679688 8.898438 7.433594 C 9.417969 7 9.738281 6.515625 9.898438 5.917969 C 9.976562 5.636719 10.003906 5.386719 9.992188 5.070312 C 9.988281 4.90625 9.882812 4.402344 9.820312 4.246094 C 9.558594 3.578125 9.074219 3.054688 8.445312 2.753906 C 8.023438 2.550781 7.441406 2.425781 7 2.441406 C 6.902344 2.445312 6.871094 2.449219 6.886719 2.414062 C 6.886719 2.410156 6.886719 2.410156 6.890625 2.410156 C 6.894531 2.40625 6.976562 2.390625 6.980469 2.390625 C 6.988281 2.390625 6.886719 2.417969 6.976562 2.390625 Z M 6.976562 2.390625 "/>
</g>
</svg>
