
<svg xmlns="http://www.w3.org/2000/svg" xmlns:xlink="http://www.w3.org/1999/xlink" width="16px" height="16px" viewBox="0 0 16 16" version="1.1">
<g id="surface1">
<path style="fill-rule:nonzero;fill:rgb(16.078431%,50.196078%,72.54902%);fill-opacity:1;stroke-width:6.633275;stroke-linecap:butt;stroke-linejoin:miter;stroke:rgb(21.568627%,20.784314%,22.745098%);stroke-opacity:1;stroke-miterlimit:4;" d="M 21.03125 934.01845 L 103.15625 934.01845 C 110.46875 934.01845 116.40625 939.9872 116.40625 947.2997 L 116.40625 1029.4247 C 116.40625 1036.7372 110.46875 1042.70595 103.15625 1042.70595 L 21.03125 1042.70595 C 13.6875 1042.70595 7.75 1036.7372 7.75 1029.4247 L 7.75 947.2997 C 7.75 939.9872 13.6875 934.01845 21.03125 934.01845 Z M 21.03125 934.01845 " transform="matrix(0.125,0,0,0.125,0,-115.545275)"/>
<path style=" stroke:none;fill-rule:nonzero;fill:rgb(21.568627%,20.784314%,22.745098%);fill-opacity:1;" d="M 1.226562 1.507812 L 14.191406 1.507812 L 14.191406 3.757812 L 1.226562 3.757812 Z M 1.226562 1.507812 "/>
<path style=" stroke:none;fill-rule:nonzero;fill:rgb(100%,100%,100%);fill-opacity:1;" d="M 10.363281 2.398438 L 11.203125 2.398438 L 11.203125 3.222656 L 10.363281 3.222656 Z M 10.363281 2.398438 "/>
<path style=" stroke:none;fill-rule:nonzero;fill:rgb(100%,100%,100%);fill-opacity:1;" d="M 11.902344 2.398438 L 12.746094 2.398438 L 12.746094 3.222656 L 11.902344 3.222656 Z M 11.902344 2.398438 "/>
<path style=" stroke:none;fill-rule:nonzero;fill:rgb(100%,100%,100%);fill-opacity:1;" d="M 8.820312 2.398438 L 9.660156 2.398438 L 9.660156 3.222656 L 8.820312 3.222656 Z M 8.820312 2.398438 "/>
<path style=" stroke:none;fill-rule:nonzero;fill:rgb(80%,80%,80%);fill-opacity:1;" d="M 10.316406 9 C 10.316406 7.757812 9.285156 6.753906 8.015625 6.753906 C 6.746094 6.753906 5.714844 7.757812 5.714844 9 C 5.714844 10.238281 6.746094 11.246094 8.015625 11.246094 C 9.285156 11.246094 10.316406 10.238281 10.316406 9 Z M 10.316406 9 "/>
<path style=" stroke:none;fill-rule:nonzero;fill:rgb(80%,80%,80%);fill-opacity:1;" d="M 7.523438 12.492188 C 7.460938 12.460938 7.394531 12.390625 7.363281 12.320312 C 7.351562 12.285156 7.335938 12.144531 7.320312 11.921875 C 7.3125 11.734375 7.296875 11.566406 7.289062 11.546875 C 7.28125 11.523438 7.238281 11.5 7.128906 11.464844 C 7.046875 11.433594 6.925781 11.382812 6.859375 11.347656 C 6.789062 11.316406 6.71875 11.285156 6.703125 11.285156 C 6.679688 11.285156 6.570312 11.378906 6.410156 11.523438 C 6.269531 11.652344 6.128906 11.773438 6.101562 11.785156 C 6.042969 11.816406 5.914062 11.820312 5.847656 11.796875 C 5.792969 11.777344 5.230469 11.21875 5.191406 11.152344 C 5.15625 11.082031 5.160156 10.957031 5.203125 10.878906 C 5.21875 10.84375 5.339844 10.703125 5.464844 10.566406 C 5.605469 10.417969 5.699219 10.300781 5.699219 10.28125 C 5.699219 10.265625 5.671875 10.195312 5.636719 10.125 C 5.601562 10.058594 5.550781 9.9375 5.523438 9.855469 C 5.492188 9.773438 5.460938 9.703125 5.445312 9.695312 C 5.429688 9.6875 5.265625 9.671875 5.078125 9.664062 C 4.859375 9.652344 4.710938 9.636719 4.667969 9.621094 C 4.585938 9.589844 4.492188 9.492188 4.480469 9.421875 C 4.472656 9.390625 4.472656 9.175781 4.476562 8.941406 L 4.480469 8.519531 L 4.527344 8.457031 C 4.613281 8.347656 4.65625 8.335938 5.066406 8.3125 C 5.300781 8.296875 5.441406 8.28125 5.453125 8.269531 C 5.464844 8.261719 5.5 8.179688 5.53125 8.09375 C 5.5625 8.003906 5.613281 7.886719 5.644531 7.828125 C 5.675781 7.769531 5.699219 7.707031 5.699219 7.691406 C 5.699219 7.675781 5.601562 7.554688 5.480469 7.425781 C 5.363281 7.292969 5.25 7.164062 5.226562 7.136719 C 5.171875 7.0625 5.152344 6.96875 5.175781 6.878906 C 5.191406 6.8125 5.222656 6.773438 5.480469 6.511719 C 5.640625 6.351562 5.796875 6.203125 5.828125 6.1875 C 5.90625 6.148438 6.023438 6.148438 6.097656 6.1875 C 6.128906 6.203125 6.269531 6.320312 6.40625 6.445312 C 6.542969 6.570312 6.664062 6.679688 6.675781 6.6875 C 6.6875 6.695312 6.761719 6.667969 6.855469 6.625 C 6.9375 6.585938 7.066406 6.53125 7.136719 6.507812 C 7.234375 6.476562 7.273438 6.453125 7.285156 6.425781 C 7.292969 6.40625 7.3125 6.234375 7.320312 6.046875 C 7.34375 5.683594 7.355469 5.625 7.429688 5.550781 C 7.511719 5.460938 7.5625 5.453125 8.023438 5.460938 L 8.449219 5.464844 L 8.515625 5.507812 C 8.628906 5.585938 8.640625 5.632812 8.667969 6.035156 C 8.679688 6.230469 8.695312 6.402344 8.699219 6.421875 C 8.707031 6.449219 8.742188 6.46875 8.855469 6.507812 C 8.933594 6.535156 9.0625 6.589844 9.140625 6.628906 C 9.21875 6.667969 9.289062 6.699219 9.296875 6.699219 C 9.300781 6.699219 9.425781 6.589844 9.570312 6.460938 C 9.714844 6.328125 9.859375 6.207031 9.890625 6.1875 C 9.96875 6.148438 10.082031 6.148438 10.164062 6.191406 C 10.207031 6.210938 10.339844 6.332031 10.511719 6.503906 C 10.804688 6.800781 10.828125 6.832031 10.828125 6.964844 C 10.828125 7.0625 10.785156 7.125 10.535156 7.398438 C 10.398438 7.546875 10.285156 7.675781 10.285156 7.683594 C 10.285156 7.691406 10.320312 7.773438 10.363281 7.863281 C 10.40625 7.953125 10.460938 8.082031 10.480469 8.148438 C 10.503906 8.226562 10.527344 8.269531 10.546875 8.277344 C 10.566406 8.285156 10.742188 8.300781 10.9375 8.3125 C 11.332031 8.339844 11.394531 8.355469 11.460938 8.445312 C 11.523438 8.535156 11.53125 8.601562 11.523438 9.027344 L 11.519531 9.4375 L 11.472656 9.503906 C 11.386719 9.625 11.363281 9.632812 10.929688 9.660156 C 10.714844 9.675781 10.539062 9.691406 10.535156 9.695312 C 10.53125 9.699219 10.503906 9.765625 10.476562 9.84375 C 10.449219 9.925781 10.394531 10.050781 10.355469 10.128906 C 10.316406 10.207031 10.285156 10.28125 10.289062 10.292969 C 10.292969 10.304688 10.398438 10.425781 10.523438 10.5625 C 10.652344 10.703125 10.769531 10.847656 10.789062 10.886719 C 10.832031 10.96875 10.835938 11.058594 10.800781 11.140625 C 10.773438 11.210938 10.253906 11.738281 10.171875 11.78125 C 10.101562 11.816406 9.972656 11.820312 9.898438 11.789062 C 9.871094 11.777344 9.730469 11.660156 9.585938 11.527344 C 9.441406 11.394531 9.308594 11.285156 9.296875 11.285156 C 9.28125 11.285156 9.199219 11.320312 9.117188 11.359375 C 9.03125 11.398438 8.902344 11.449219 8.832031 11.472656 C 8.738281 11.503906 8.707031 11.523438 8.699219 11.546875 C 8.695312 11.566406 8.679688 11.742188 8.667969 11.9375 C 8.640625 12.363281 8.625 12.410156 8.472656 12.488281 C 8.429688 12.507812 8.359375 12.511719 7.996094 12.511719 C 7.675781 12.511719 7.558594 12.507812 7.523438 12.492188 Z M 8.152344 10.585938 C 8.535156 10.542969 8.859375 10.390625 9.132812 10.117188 C 9.339844 9.90625 9.476562 9.671875 9.554688 9.378906 C 9.605469 9.191406 9.605469 8.785156 9.554688 8.597656 C 9.402344 8.027344 8.992188 7.609375 8.429688 7.4375 C 8.296875 7.398438 8.261719 7.394531 8.007812 7.394531 C 7.761719 7.390625 7.710938 7.398438 7.59375 7.429688 C 7 7.589844 6.546875 8.066406 6.421875 8.660156 C 6.3125 9.191406 6.476562 9.730469 6.863281 10.121094 C 7.066406 10.324219 7.328125 10.476562 7.613281 10.546875 C 7.695312 10.570312 7.8125 10.585938 7.976562 10.597656 C 7.988281 10.601562 8.066406 10.59375 8.152344 10.585938 Z M 7.757812 9.917969 C 7.351562 9.808594 7.066406 9.460938 7.039062 9.046875 C 7.023438 8.757812 7.117188 8.511719 7.320312 8.308594 C 7.695312 7.933594 8.292969 7.929688 8.664062 8.300781 C 8.96875 8.605469 9.042969 9.035156 8.851562 9.414062 C 8.691406 9.738281 8.394531 9.929688 8.03125 9.941406 C 7.90625 9.949219 7.847656 9.941406 7.757812 9.917969 Z M 8.210938 9.515625 C 8.324219 9.472656 8.457031 9.347656 8.511719 9.234375 C 8.550781 9.152344 8.558594 9.128906 8.558594 8.984375 C 8.558594 8.832031 8.554688 8.820312 8.503906 8.726562 C 8.398438 8.53125 8.242188 8.433594 8.023438 8.421875 C 7.847656 8.414062 7.742188 8.453125 7.613281 8.566406 C 7.453125 8.714844 7.390625 8.921875 7.441406 9.121094 C 7.484375 9.296875 7.582031 9.414062 7.742188 9.496094 C 7.890625 9.570312 8.042969 9.578125 8.210938 9.515625 Z M 8.210938 9.515625 "/>
<path style=" stroke:none;fill-rule:nonzero;fill:rgb(16.078431%,50.196078%,72.54902%);fill-opacity:1;" d="M 9.316406 8.984375 C 9.316406 9.714844 8.734375 10.304688 8.007812 10.308594 C 7.285156 10.316406 6.695312 9.730469 6.683594 9.003906 C 6.671875 8.277344 7.25 7.675781 7.972656 7.660156 C 8.695312 7.644531 9.296875 8.21875 9.316406 8.949219 "/>
</g>
</svg>
