
<svg xmlns="http://www.w3.org/2000/svg" xmlns:xlink="http://www.w3.org/1999/xlink" width="16px" height="16px" viewBox="0 0 16 16" version="1.1">
<g id="surface1">
<path style="fill-rule:nonzero;fill:rgb(100%,100%,100%);fill-opacity:1;stroke-width:6.94235;stroke-linecap:butt;stroke-linejoin:miter;stroke:rgb(18.039216%,80%,44.313725%);stroke-opacity:1;stroke-miterlimit:4;" d="M 21.03125 931.4872 L 106.96875 931.4872 C 114.65625 931.4872 120.875 937.70595 120.875 945.39345 L 120.875 1031.33095 C 120.875 1039.01845 114.65625 1045.2372 106.96875 1045.2372 L 21.03125 1045.2372 C 13.34375 1045.2372 7.125 1039.01845 7.125 1031.33095 L 7.125 945.39345 C 7.125 937.70595 13.34375 931.4872 21.03125 931.4872 Z M 21.03125 931.4872 " transform="matrix(0.125,0,0,0.125,0,-115.545275)"/>
<path style=" stroke:none;fill-rule:nonzero;fill:rgb(18.039216%,80%,44.313725%);fill-opacity:1;" d="M 7.261719 2.148438 C 4.921875 2.148438 3.035156 4.023438 3.019531 6.359375 L 3.019531 12.683594 C 3.019531 13.332031 3.539062 13.851562 4.1875 13.851562 C 4.835938 13.851562 5.359375 13.332031 5.359375 12.683594 C 5.359375 13.332031 5.882812 13.851562 6.53125 13.851562 L 6.824219 13.851562 C 7.472656 13.851562 7.992188 13.332031 7.992188 12.683594 C 7.992188 13.332031 8.515625 13.851562 9.164062 13.851562 L 9.457031 13.851562 C 10.105469 13.851562 10.628906 13.332031 10.628906 12.683594 C 10.628906 13.332031 11.148438 13.851562 11.796875 13.851562 C 12.445312 13.851562 12.96875 13.332031 12.96875 12.683594 L 12.96875 6.359375 L 12.964844 6.359375 C 12.949219 4.023438 11.066406 2.148438 8.726562 2.148438 Z M 7.261719 2.148438 "/>
<path style=" stroke:none;fill-rule:nonzero;fill:rgb(92.54902%,94.117647%,94.509804%);fill-opacity:1;" d="M 6.417969 5.074219 C 7.148438 5.074219 7.734375 5.664062 7.734375 6.390625 C 7.734375 7.117188 7.148438 7.707031 6.417969 7.707031 C 5.691406 7.707031 5.101562 7.117188 5.101562 6.390625 C 5.101562 5.664062 5.691406 5.074219 6.417969 5.074219 Z M 6.417969 5.074219 "/>
<path style=" stroke:none;fill-rule:nonzero;fill:rgb(92.54902%,94.117647%,94.509804%);fill-opacity:1;" d="M 11.101562 5.074219 C 11.828125 5.074219 12.417969 5.664062 12.417969 6.390625 C 12.417969 7.117188 11.828125 7.707031 11.101562 7.707031 C 10.375 7.707031 9.785156 7.117188 9.785156 6.390625 C 9.785156 5.664062 10.375 5.074219 11.101562 5.074219 Z M 11.101562 5.074219 "/>
<path style=" stroke:none;fill-rule:nonzero;fill:rgb(20.392157%,28.627451%,36.862745%);fill-opacity:1;" d="M 7.371094 6.023438 C 7.574219 6.023438 7.734375 6.1875 7.734375 6.390625 C 7.734375 6.59375 7.574219 6.757812 7.371094 6.757812 C 7.167969 6.757812 7.003906 6.59375 7.003906 6.390625 C 7.003906 6.1875 7.167969 6.023438 7.371094 6.023438 Z M 7.371094 6.023438 "/>
<path style=" stroke:none;fill-rule:nonzero;fill:rgb(20.392157%,28.627451%,36.862745%);fill-opacity:1;" d="M 12.054688 6.023438 C 12.253906 6.023438 12.417969 6.1875 12.417969 6.390625 C 12.417969 6.59375 12.253906 6.757812 12.054688 6.757812 C 11.851562 6.757812 11.6875 6.59375 11.6875 6.390625 C 11.6875 6.1875 11.851562 6.023438 12.054688 6.023438 Z M 12.054688 6.023438 "/>
</g>
</svg>
