
<svg xmlns="http://www.w3.org/2000/svg" xmlns:xlink="http://www.w3.org/1999/xlink" width="16px" height="16px" viewBox="0 0 16 16" version="1.1">
<defs>
<clipPath id="clip1">
  <path d="M 1.34375 0.90625 L 14.15625 0.90625 L 14.15625 15.125 L 1.34375 15.125 Z M 1.34375 0.90625 "/>
</clipPath>
<clipPath id="clip2">
  <path d="M 2.445312 0.117188 L 15.28125 0.117188 C 15.871094 0.117188 16.351562 0.597656 16.351562 1.1875 L 16.351562 14.027344 C 16.351562 14.617188 15.871094 15.097656 15.28125 15.097656 L 2.445312 15.097656 C 1.851562 15.097656 1.375 14.617188 1.375 14.027344 L 1.375 1.1875 C 1.375 0.597656 1.851562 0.117188 2.445312 0.117188 Z M 2.445312 0.117188 "/>
</clipPath>
<clipPath id="clip3">
  <path d="M 1.34375 1.125 L 13.96875 1.125 L 13.96875 15.125 L 1.34375 15.125 Z M 1.34375 1.125 "/>
</clipPath>
<clipPath id="clip4">
  <path d="M 2.445312 0.117188 L 15.28125 0.117188 C 15.871094 0.117188 16.351562 0.597656 16.351562 1.1875 L 16.351562 14.027344 C 16.351562 14.617188 15.871094 15.097656 15.28125 15.097656 L 2.445312 15.097656 C 1.851562 15.097656 1.375 14.617188 1.375 14.027344 L 1.375 1.1875 C 1.375 0.597656 1.851562 0.117188 2.445312 0.117188 Z M 2.445312 0.117188 "/>
</clipPath>
<clipPath id="clip5">
  <path d="M 1.34375 1.3125 L 13.78125 1.3125 L 13.78125 15.125 L 1.34375 15.125 Z M 1.34375 1.3125 "/>
</clipPath>
<clipPath id="clip6">
  <path d="M 2.445312 0.117188 L 15.28125 0.117188 C 15.871094 0.117188 16.351562 0.597656 16.351562 1.1875 L 16.351562 14.027344 C 16.351562 14.617188 15.871094 15.097656 15.28125 15.097656 L 2.445312 15.097656 C 1.851562 15.097656 1.375 14.617188 1.375 14.027344 L 1.375 1.1875 C 1.375 0.597656 1.851562 0.117188 2.445312 0.117188 Z M 2.445312 0.117188 "/>
</clipPath>
<clipPath id="clip7">
  <path d="M 1.34375 1.46875 L 13.625 1.46875 L 13.625 15.125 L 1.34375 15.125 Z M 1.34375 1.46875 "/>
</clipPath>
<clipPath id="clip8">
  <path d="M 2.445312 0.117188 L 15.28125 0.117188 C 15.871094 0.117188 16.351562 0.597656 16.351562 1.1875 L 16.351562 14.027344 C 16.351562 14.617188 15.871094 15.097656 15.28125 15.097656 L 2.445312 15.097656 C 1.851562 15.097656 1.375 14.617188 1.375 14.027344 L 1.375 1.1875 C 1.375 0.597656 1.851562 0.117188 2.445312 0.117188 Z M 2.445312 0.117188 "/>
</clipPath>
<clipPath id="clip9">
  <path d="M 1.34375 1.59375 L 13.5 1.59375 L 13.5 15.125 L 1.34375 15.125 Z M 1.34375 1.59375 "/>
</clipPath>
<clipPath id="clip10">
  <path d="M 2.445312 0.117188 L 15.28125 0.117188 C 15.871094 0.117188 16.351562 0.597656 16.351562 1.1875 L 16.351562 14.027344 C 16.351562 14.617188 15.871094 15.097656 15.28125 15.097656 L 2.445312 15.097656 C 1.851562 15.097656 1.375 14.617188 1.375 14.027344 L 1.375 1.1875 C 1.375 0.597656 1.851562 0.117188 2.445312 0.117188 Z M 2.445312 0.117188 "/>
</clipPath>
</defs>
<g id="surface1">
<path style=" stroke:none;fill-rule:nonzero;fill:rgb(60.784314%,48.235294%,60.392157%);fill-opacity:1;" d="M 2.917969 0.9375 L 13.039062 0.9375 C 14.042969 0.9375 14.855469 1.75 14.855469 2.753906 L 14.855469 13.269531 C 14.855469 14.273438 14.042969 15.089844 13.039062 15.089844 L 2.917969 15.089844 C 1.914062 15.089844 1.097656 14.273438 1.097656 13.269531 L 1.097656 2.753906 C 1.097656 1.75 1.914062 0.9375 2.917969 0.9375 Z M 2.917969 0.9375 "/>
<g clip-path="url(#clip1)" clip-rule="nonzero">
<g clip-path="url(#clip2)" clip-rule="nonzero">
<path style=" stroke:none;fill-rule:nonzero;fill:rgb(100%,100%,100%);fill-opacity:0.0509804;" d="M 9.542969 0.925781 C 9.535156 0.929688 9.53125 0.929688 9.527344 0.933594 C 9.523438 0.933594 9.519531 0.933594 9.515625 0.933594 C 9.515625 0.933594 9.480469 0.945312 9.480469 0.945312 C 9.039062 1.023438 8.753906 1.320312 8.5625 1.652344 C 8.523438 1.589844 8.5 1.519531 8.449219 1.46875 C 8.246094 1.261719 7.984375 1.144531 7.726562 1.101562 C 7.464844 1.054688 7.15625 1.082031 6.921875 1.292969 C 6.679688 1.519531 6.628906 1.886719 6.738281 2.242188 C 6.738281 2.242188 6.746094 2.257812 6.746094 2.257812 C 6.746094 2.257812 6.757812 2.28125 6.757812 2.28125 C 6.757812 2.28125 6.769531 2.296875 6.765625 2.296875 C 6.765625 2.296875 6.773438 2.320312 6.773438 2.320312 C 7.050781 2.800781 7.1875 3.339844 7.222656 3.902344 C 7.050781 4.109375 6.859375 4.355469 6.738281 4.660156 C 6.59375 5.035156 6.585938 5.519531 6.90625 5.898438 L 6.902344 5.898438 C 6.914062 5.921875 6.933594 5.941406 6.945312 5.964844 C 6.5625 6.222656 6.390625 6.628906 6.339844 6.984375 C 6.277344 7.378906 6.28125 7.746094 6.203125 7.949219 C 6.203125 7.945312 6.195312 7.980469 6.195312 7.980469 C 6.195312 7.984375 6.195312 7.984375 6.195312 7.988281 C 6.03125 8.628906 5.957031 9.097656 5.585938 9.445312 C 5.585938 9.449219 5.585938 9.449219 5.585938 9.453125 C 5.585938 9.453125 5.570312 9.46875 5.570312 9.46875 C 5.570312 9.46875 5.554688 9.484375 5.554688 9.484375 C 5.554688 9.484375 5.535156 9.503906 5.535156 9.503906 C 5.535156 9.5 5.523438 9.523438 5.523438 9.523438 C 5.523438 9.523438 5.515625 9.542969 5.515625 9.542969 C 5.515625 9.539062 5.503906 9.5625 5.503906 9.5625 C 5.503906 9.5625 5.492188 9.585938 5.492188 9.585938 C 5.492188 9.585938 5.484375 9.609375 5.484375 9.609375 C 5.285156 10.203125 4.945312 10.785156 4.550781 11.167969 C 4.546875 11.167969 4.546875 11.171875 4.542969 11.171875 C 4.535156 11.179688 4.535156 11.183594 4.539062 11.179688 C 2.765625 12.371094 1.015625 13.582031 -0.839844 14.578125 C -0.835938 14.578125 -0.871094 14.601562 -0.871094 14.601562 C -0.871094 14.601562 -0.90625 14.621094 -0.90625 14.621094 C -0.90625 14.621094 -0.9375 14.652344 -0.9375 14.652344 C -0.9375 14.648438 -0.960938 14.679688 -0.960938 14.679688 C -0.960938 14.679688 -0.988281 14.710938 -0.988281 14.710938 C -0.988281 14.710938 -1.003906 14.75 -1.003906 14.75 C -1.003906 14.75 -1.023438 14.785156 -1.023438 14.785156 C -1.023438 14.785156 -1.035156 14.824219 -1.03125 14.824219 C -1.03125 14.824219 -1.042969 14.863281 -1.042969 14.863281 C -1.042969 14.863281 -1.050781 14.90625 -1.050781 14.90625 C -1.050781 14.90625 -1.050781 14.945312 -1.050781 14.945312 C -1.050781 14.945312 -1.042969 14.984375 -1.042969 14.984375 C -1.042969 14.984375 -1.03125 15.023438 -1.03125 15.023438 C -1.035156 15.023438 -1.023438 15.0625 -1.023438 15.0625 C -1.023438 15.0625 -1.003906 15.101562 -1.003906 15.101562 C -1.003906 15.101562 -0.988281 15.136719 -0.988281 15.136719 C -0.988281 15.136719 -0.984375 15.140625 -0.984375 15.140625 C -0.996094 15.121094 -0.96875 15.191406 -0.9375 15.269531 C -0.910156 15.347656 -0.871094 15.453125 -0.816406 15.554688 C -0.75 15.671875 -0.617188 15.828125 -0.390625 15.859375 C -0.21875 15.882812 -0.0742188 15.816406 0.0429688 15.738281 C 0.0234375 15.746094 0.0273438 15.746094 0.0585938 15.730469 C 1.882812 14.976562 3.539062 13.921875 5.144531 12.84375 C 5.105469 13.089844 5.101562 13.332031 5.125 13.554688 C 5.167969 13.960938 5.238281 14.320312 5.203125 14.632812 C 5.203125 14.632812 5.203125 14.65625 5.203125 14.65625 C 5.203125 14.65625 5.195312 14.679688 5.195312 14.679688 C 5.195312 14.679688 5.203125 14.699219 5.203125 14.699219 C 5.203125 14.699219 5.203125 14.722656 5.203125 14.722656 C 5.238281 15.046875 5.363281 15.382812 5.59375 15.648438 C 5.792969 15.882812 6.105469 16.015625 6.449219 16.019531 C 6.457031 16.023438 6.464844 16.023438 6.472656 16.027344 C 6.496094 16.039062 6.523438 16.046875 6.550781 16.050781 C 7.023438 16.078125 7.757812 16.273438 8.410156 15.882812 C 8.414062 15.878906 8.414062 15.878906 8.417969 15.875 C 8.417969 15.875 8.449219 15.855469 8.449219 15.855469 C 8.449219 15.855469 8.476562 15.824219 8.476562 15.824219 C 8.476562 15.828125 8.507812 15.796875 8.507812 15.796875 C 8.507812 15.796875 8.523438 15.777344 8.527344 15.769531 C 8.527344 15.769531 8.527344 15.765625 8.527344 15.765625 C 8.570312 15.703125 8.570312 15.636719 8.59375 15.570312 C 8.707031 15.707031 8.832031 15.839844 8.984375 15.949219 C 8.984375 15.949219 8.988281 15.953125 8.992188 15.953125 C 8.996094 15.960938 9.007812 15.964844 9.007812 15.964844 C 9.007812 15.964844 9.03125 15.976562 9.03125 15.976562 C 9.03125 15.976562 9.058594 15.992188 9.058594 15.992188 C 9.058594 15.992188 9.082031 16.003906 9.078125 16.003906 C 9.078125 16.003906 9.109375 16.011719 9.109375 16.011719 C 9.109375 16.011719 9.136719 16.019531 9.136719 16.019531 C 9.136719 16.019531 9.164062 16.027344 9.164062 16.027344 C 9.164062 16.027344 9.191406 16.027344 9.191406 16.027344 C 9.191406 16.027344 9.195312 16.027344 9.195312 16.027344 C 9.882812 16.058594 10.589844 16.042969 11.265625 16.015625 C 11.265625 16.015625 11.292969 16.015625 11.292969 16.015625 C 11.292969 16.015625 11.320312 16.011719 11.320312 16.011719 C 11.320312 16.011719 11.347656 16.003906 11.347656 16.003906 C 11.347656 16.003906 11.375 15.992188 11.375 15.992188 C 11.550781 15.933594 11.691406 15.808594 11.769531 15.652344 C 11.847656 15.503906 11.851562 15.351562 11.839844 15.21875 C 11.8125 14.96875 11.703125 14.738281 11.539062 14.574219 C 11.535156 14.570312 11.535156 14.570312 11.53125 14.566406 C 11.53125 14.566406 11.507812 14.550781 11.507812 14.550781 C 11.507812 14.550781 11.492188 14.539062 11.492188 14.539062 C 11.492188 14.539062 11.46875 14.523438 11.46875 14.523438 C 11.46875 14.523438 11.464844 14.519531 11.460938 14.515625 C 11.375 14.464844 11.347656 14.421875 11.320312 14.355469 C 11.292969 14.289062 11.277344 14.183594 11.273438 14.046875 C 11.269531 13.808594 11.316406 13.480469 11.285156 13.140625 C 11.285156 13.132812 11.289062 13.125 11.285156 13.117188 C 11.289062 13.144531 11.289062 13.125 11.285156 13.097656 C 11.285156 13.09375 11.285156 13.09375 11.285156 13.089844 C 11.289062 13.078125 11.285156 13.066406 11.285156 13.050781 C 11.359375 13.058594 11.433594 13.0625 11.507812 13.039062 C 11.644531 13.003906 11.707031 12.929688 11.769531 12.867188 C 11.960938 12.898438 12.15625 12.898438 12.328125 12.816406 C 12.554688 12.714844 12.710938 12.535156 12.824219 12.367188 C 13.046875 12.035156 13.160156 11.660156 13.242188 11.480469 C 13.242188 11.476562 13.246094 11.472656 13.246094 11.46875 C 13.25 11.46875 13.25 11.464844 13.253906 11.464844 C 13.675781 10.9375 14.28125 10.214844 14.132812 9.300781 C 14.140625 9.355469 14.144531 9.351562 14.132812 9.285156 C 14.125 9.246094 14.105469 9.207031 14.078125 9.179688 C 14.074219 9.175781 14.074219 9.175781 14.074219 9.171875 C 13.988281 8.910156 13.789062 8.710938 13.542969 8.65625 C 13.394531 8.621094 13.234375 8.628906 13.082031 8.699219 C 12.949219 8.761719 12.867188 8.863281 12.808594 8.972656 C 12.792969 8.984375 12.777344 9 12.769531 9.015625 C 12.753906 9.042969 12.742188 9.058594 12.746094 9.054688 C 12.613281 9.269531 12.429688 9.582031 12.246094 9.832031 C 12.230469 9.847656 12.222656 9.855469 12.210938 9.871094 C 12.082031 9.355469 11.910156 8.871094 11.722656 8.445312 C 11.644531 7.726562 11.429688 7.082031 11.242188 6.464844 C 11.242188 6.464844 11.242188 6.460938 11.242188 6.460938 C 11.238281 6.453125 11.230469 6.433594 11.230469 6.433594 C 11.230469 6.433594 11.214844 6.394531 11.214844 6.394531 C 11.214844 6.394531 11.195312 6.359375 11.195312 6.359375 C 11.199219 6.359375 11.175781 6.332031 11.175781 6.332031 C 11.171875 6.328125 11.171875 6.328125 11.167969 6.328125 C 10.949219 6.058594 10.683594 5.800781 10.394531 5.609375 C 10.390625 5.480469 10.390625 5.34375 10.363281 5.171875 C 10.324219 4.96875 10.207031 4.761719 10.027344 4.59375 C 10.023438 4.589844 10.023438 4.589844 10.023438 4.585938 C 10.015625 4.566406 10.003906 4.542969 9.988281 4.527344 C 9.960938 4.492188 9.957031 4.496094 9.960938 4.421875 C 9.960938 4.351562 9.988281 4.242188 10.03125 4.121094 C 10.125 3.867188 10.3125 3.546875 10.378906 3.183594 C 10.378906 3.179688 10.378906 3.171875 10.378906 3.167969 C 10.378906 3.167969 10.378906 3.144531 10.378906 3.144531 C 10.378906 3.144531 10.382812 3.121094 10.382812 3.121094 C 10.382812 3.121094 10.378906 3.101562 10.378906 3.101562 C 10.378906 3.101562 10.378906 3.09375 10.378906 3.089844 C 10.378906 3.085938 10.378906 3.078125 10.378906 3.078125 C 10.371094 2.929688 10.472656 2.578125 10.523438 2.214844 C 10.546875 2.027344 10.5625 1.8125 10.496094 1.59375 C 10.425781 1.367188 10.265625 1.160156 10.027344 1.023438 L 10.027344 1.027344 C 10.027344 1.027344 10.003906 1.011719 10.003906 1.011719 C 10.003906 1.011719 9.980469 1 9.984375 1 C 9.851562 0.945312 9.707031 0.921875 9.558594 0.925781 C 9.554688 0.925781 9.546875 0.925781 9.542969 0.925781 Z M 9.542969 0.925781 "/>
</g>
</g>
<g clip-path="url(#clip3)" clip-rule="nonzero">
<g clip-path="url(#clip4)" clip-rule="nonzero">
<path style=" stroke:none;fill-rule:nonzero;fill:rgb(100%,100%,100%);fill-opacity:0.0509804;" d="M 9.570312 1.128906 C 9.566406 1.128906 9.558594 1.132812 9.554688 1.132812 C 9.085938 1.199219 8.789062 1.527344 8.628906 1.898438 C 8.582031 2 8.566406 2.109375 8.539062 2.21875 C 8.539062 2.21875 8.535156 2.21875 8.535156 2.21875 C 8.539062 1.980469 8.453125 1.761719 8.304688 1.613281 C 8.136719 1.441406 7.914062 1.339844 7.691406 1.300781 C 7.46875 1.261719 7.234375 1.285156 7.0625 1.445312 C 6.890625 1.605469 6.839844 1.878906 6.933594 2.179688 C 6.9375 2.195312 6.945312 2.207031 6.953125 2.21875 C 7.257812 2.75 7.402344 3.34375 7.4375 3.957031 C 7.25 4.167969 7.050781 4.429688 6.929688 4.734375 C 6.796875 5.074219 6.78125 5.492188 7.085938 5.808594 C 7.125 5.894531 7.171875 5.976562 7.222656 6.023438 C 7.21875 6.027344 7.21875 6.027344 7.214844 6.03125 C 6.757812 6.234375 6.597656 6.636719 6.539062 7.011719 C 6.484375 7.382812 6.492188 7.757812 6.394531 8.019531 C 6.390625 8.027344 6.390625 8.03125 6.390625 8.035156 C 6.226562 8.664062 6.152344 9.195312 5.726562 9.597656 C 5.703125 9.617188 5.6875 9.644531 5.675781 9.675781 C 5.464844 10.300781 5.113281 10.902344 4.683594 11.320312 C 4.683594 11.320312 4.679688 11.324219 4.679688 11.324219 C 2.894531 12.519531 1.132812 13.746094 -0.742188 14.757812 C -0.789062 14.78125 -0.824219 14.824219 -0.839844 14.878906 C -0.851562 14.929688 -0.84375 14.984375 -0.816406 15.03125 C -0.773438 15.09375 -0.730469 15.28125 -0.636719 15.453125 C -0.589844 15.539062 -0.503906 15.640625 -0.363281 15.660156 C -0.242188 15.675781 -0.140625 15.625 -0.0351562 15.546875 C -0.03125 15.546875 -0.0234375 15.542969 -0.0195312 15.542969 C 1.953125 14.726562 3.746094 13.5625 5.492188 12.382812 C 5.300781 12.773438 5.285156 13.167969 5.324219 13.53125 C 5.367188 13.925781 5.445312 14.296875 5.402344 14.65625 C 5.402344 14.671875 5.402344 14.6875 5.402344 14.699219 C 5.433594 14.984375 5.546875 15.28125 5.746094 15.515625 C 5.9375 15.734375 6.230469 15.878906 6.5625 15.84375 L 6.5625 15.847656 C 7.070312 15.878906 7.738281 16.050781 8.304688 15.710938 C 8.328125 15.695312 8.347656 15.675781 8.359375 15.652344 C 8.523438 15.421875 8.503906 15.15625 8.429688 14.921875 C 8.578125 15.261719 8.789062 15.566406 9.109375 15.789062 C 9.136719 15.808594 9.171875 15.824219 9.207031 15.824219 C 9.882812 15.859375 10.582031 15.84375 11.253906 15.816406 C 11.273438 15.8125 11.289062 15.808594 11.308594 15.804688 C 11.433594 15.761719 11.535156 15.667969 11.585938 15.5625 C 11.640625 15.460938 11.648438 15.34375 11.636719 15.242188 C 11.613281 15.035156 11.523438 14.851562 11.390625 14.71875 C 11.378906 14.707031 11.367188 14.695312 11.351562 14.691406 C 11.125 14.546875 11.078125 14.34375 11.074219 14.054688 C 11.070312 13.78125 11.117188 13.457031 11.085938 13.140625 C 11.085938 13.132812 11.085938 13.121094 11.085938 13.113281 C 11.085938 13.101562 11.085938 13.089844 11.085938 13.078125 C 11.09375 12.980469 11.089844 12.882812 11.082031 12.785156 C 11.078125 12.78125 11.082031 12.78125 11.082031 12.777344 C 11.203125 12.84375 11.335938 12.878906 11.453125 12.84375 C 11.5625 12.816406 11.636719 12.734375 11.714844 12.660156 C 11.910156 12.707031 12.09375 12.703125 12.246094 12.632812 C 12.421875 12.550781 12.554688 12.40625 12.65625 12.253906 C 12.859375 11.953125 12.964844 11.585938 13.0625 11.378906 C 13.066406 11.378906 13.070312 11.375 13.070312 11.375 C 13.496094 10.839844 14.066406 10.160156 13.933594 9.335938 C 13.933594 9.328125 13.933594 9.324219 13.933594 9.316406 L 13.925781 9.316406 C 13.894531 9.070312 13.707031 8.898438 13.5 8.851562 C 13.390625 8.828125 13.273438 8.832031 13.164062 8.882812 C 13.070312 8.929688 12.996094 9.023438 12.945312 9.128906 L 12.941406 9.125 C 12.933594 9.132812 12.925781 9.152344 12.917969 9.164062 C 12.789062 9.375 12.597656 9.691406 12.40625 9.953125 C 12.304688 10.089844 12.203125 10.203125 12.121094 10.269531 C 12.113281 10.277344 12.117188 10.269531 12.109375 10.277344 C 11.988281 9.632812 11.757812 9.03125 11.527344 8.503906 C 11.457031 7.796875 11.238281 7.15625 11.046875 6.519531 C 11.039062 6.496094 11.027344 6.472656 11.011719 6.453125 C 10.78125 6.171875 10.492188 5.890625 10.199219 5.714844 C 10.191406 5.5625 10.195312 5.394531 10.160156 5.207031 C 10.125 5.007812 10.019531 4.800781 9.828125 4.660156 L 9.832031 4.65625 C 9.773438 4.585938 9.757812 4.515625 9.757812 4.414062 C 9.761719 4.3125 9.792969 4.1875 9.84375 4.046875 C 9.945312 3.769531 10.121094 3.460938 10.175781 3.144531 C 10.179688 3.128906 10.179688 3.113281 10.175781 3.101562 C 10.164062 2.875 10.273438 2.53125 10.324219 2.1875 C 10.347656 2.011719 10.355469 1.832031 10.300781 1.65625 C 10.246094 1.480469 10.121094 1.3125 9.925781 1.199219 C 9.917969 1.195312 9.914062 1.191406 9.90625 1.1875 C 9.800781 1.144531 9.683594 1.121094 9.570312 1.128906 Z M 8.199219 14.085938 C 8.246094 14.332031 8.296875 14.582031 8.394531 14.824219 C 8.300781 14.601562 8.160156 14.410156 8.039062 14.261719 C 8.0625 14.226562 8.105469 14.171875 8.160156 14.121094 C 8.175781 14.105469 8.183594 14.101562 8.199219 14.085938 Z M 8.199219 14.085938 "/>
</g>
</g>
<g clip-path="url(#clip5)" clip-rule="nonzero">
<g clip-path="url(#clip6)" clip-rule="nonzero">
<path style=" stroke:none;fill-rule:nonzero;fill:rgb(100%,100%,100%);fill-opacity:0.0509804;" d="M 9.582031 1.324219 C 8.792969 1.433594 8.621094 2.371094 8.609375 3.03125 C 8.546875 3.496094 8.542969 2.410156 8.355469 2.285156 C 8.480469 1.421875 6.789062 1.082031 7.117188 2.125 C 7.453125 2.707031 7.617188 3.347656 7.640625 4.007812 C 7.261719 4.425781 6.730469 5.164062 7.222656 5.675781 C 7.304688 5.992188 7.855469 6.0625 7.289062 6.207031 C 6.507812 6.554688 6.808594 7.457031 6.574219 8.089844 C 6.417969 8.703125 6.339844 9.285156 5.859375 9.734375 C 5.640625 10.386719 5.273438 11.019531 4.8125 11.460938 C 3.019531 12.660156 1.246094 13.898438 -0.652344 14.921875 C -0.5 15.164062 -0.503906 15.691406 -0.109375 15.367188 C 1.867188 14.554688 3.671875 13.382812 5.4375 12.1875 C 5.738281 12.074219 5.9375 11.949219 5.691406 12.375 C 5.253906 13.128906 5.6875 13.878906 5.59375 14.679688 C 5.644531 15.171875 6.011719 15.753906 6.574219 15.660156 C 7.105469 15.695312 7.726562 15.832031 8.203125 15.542969 C 8.472656 15.167969 8.125 14.640625 7.871094 14.34375 C 7.640625 14.230469 8.382812 13.644531 8.332031 13.84375 C 8.429688 14.496094 8.65625 15.238281 9.21875 15.632812 C 9.886719 15.664062 10.578125 15.648438 11.246094 15.621094 C 11.582031 15.503906 11.441406 15.042969 11.25 14.847656 C 10.660156 14.480469 10.976562 13.6875 10.898438 13.105469 C 10.953125 12.808594 10.65625 11.917969 11.089844 12.570312 C 11.269531 12.769531 11.550781 12.640625 11.683594 12.460938 C 12.453125 12.730469 12.675781 11.75 12.894531 11.289062 C 13.328125 10.742188 13.871094 10.089844 13.746094 9.351562 C 13.714844 9.019531 13.21875 8.894531 13.101562 9.222656 C 12.847656 9.636719 12.289062 10.625 11.976562 10.523438 C 11.882812 9.824219 11.605469 9.167969 11.34375 8.582031 C 11.285156 7.878906 11.0625 7.234375 10.863281 6.578125 C 10.617188 6.277344 10.289062 5.960938 10.015625 5.820312 C 9.976562 5.457031 10.042969 4.984375 9.679688 4.777344 C 9.324219 4.34375 9.890625 3.644531 9.988281 3.113281 C 9.949219 2.539062 10.460938 1.730469 9.832031 1.367188 C 9.753906 1.335938 9.667969 1.320312 9.582031 1.324219 Z M 10.785156 10.550781 C 11.128906 10.6875 11.132812 11.605469 10.96875 11.464844 C 11.050781 11.164062 10.820312 10.851562 10.785156 10.550781 Z M 10.785156 10.550781 "/>
</g>
</g>
<g clip-path="url(#clip7)" clip-rule="nonzero">
<g clip-path="url(#clip8)" clip-rule="nonzero">
<path style=" stroke:none;fill-rule:nonzero;fill:rgb(100%,100%,100%);fill-opacity:0.0509804;" d="M 9.585938 1.488281 C 9.4375 1.496094 9.28125 1.570312 9.15625 1.71875 C 8.761719 2.183594 8.8125 2.789062 8.75 3.273438 C 8.710938 3.324219 8.671875 3.375 8.652344 3.429688 C 8.621094 3.511719 8.601562 3.59375 8.578125 3.664062 C 8.5625 3.707031 8.550781 3.71875 8.539062 3.742188 C 8.453125 3.5625 8.417969 3.359375 8.394531 3.132812 C 8.371094 2.875 8.347656 2.59375 8.195312 2.332031 C 8.1875 1.980469 7.9375 1.726562 7.699219 1.640625 C 7.570312 1.59375 7.421875 1.578125 7.3125 1.683594 C 7.257812 1.738281 7.234375 1.816406 7.234375 1.890625 C 7.238281 1.96875 7.261719 2.046875 7.300781 2.128906 C 7.5625 2.648438 7.769531 3.128906 7.757812 3.566406 C 7.757812 3.703125 7.765625 3.789062 7.78125 3.863281 C 7.792969 3.921875 7.804688 3.984375 7.816406 4.054688 C 7.585938 4.320312 7.4375 4.492188 7.351562 4.675781 C 7.230469 4.9375 7.175781 5.125 7.183594 5.285156 C 7.191406 5.414062 7.265625 5.507812 7.351562 5.574219 C 7.382812 5.652344 7.417969 5.734375 7.496094 5.808594 C 7.558594 5.863281 7.660156 5.878906 7.757812 5.902344 C 7.746094 5.980469 7.75 6.070312 7.75 6.175781 C 7.445312 6.269531 7.1875 6.421875 7.03125 6.644531 C 6.859375 6.882812 6.800781 7.191406 6.867188 7.53125 C 6.867188 7.53125 6.867188 7.535156 6.867188 7.535156 C 6.84375 8.015625 6.582031 8.402344 6.539062 8.96875 C 6.523438 9.195312 6.449219 9.273438 6.339844 9.386719 C 6.226562 9.496094 6.066406 9.632812 5.972656 9.898438 C 5.785156 10.417969 5.609375 10.710938 5.476562 10.910156 C 5.40625 11.011719 5.347656 11.085938 5.300781 11.164062 C 5.273438 11.210938 5.265625 11.265625 5.253906 11.320312 C 5.179688 11.332031 5.105469 11.339844 5.058594 11.386719 C 5.011719 11.429688 4.992188 11.488281 4.984375 11.546875 C 4.703125 11.738281 3.699219 12.421875 2.554688 13.167969 C 1.386719 13.933594 0.0976562 14.742188 -0.582031 15.074219 C -0.652344 15.101562 -0.683594 15.183594 -0.652344 15.253906 C -0.625 15.320312 -0.546875 15.355469 -0.476562 15.324219 C 1.632812 14.609375 5.050781 12.253906 5.339844 12.054688 C 5.40625 12.066406 5.476562 12.058594 5.535156 12.015625 C 5.589844 11.976562 5.621094 11.917969 5.640625 11.851562 C 5.722656 11.875 5.804688 11.90625 5.875 11.898438 C 5.941406 11.890625 5.980469 11.84375 6.03125 11.8125 C 6.039062 11.855469 6.046875 11.886719 6.066406 11.921875 C 5.882812 12.28125 5.730469 12.628906 5.664062 12.933594 C 5.628906 13.09375 5.613281 13.25 5.636719 13.386719 C 5.652344 13.492188 5.707031 13.585938 5.78125 13.664062 C 5.734375 14.007812 5.707031 14.351562 5.753906 14.65625 C 5.800781 14.980469 5.9375 15.273438 6.203125 15.449219 C 6.226562 15.460938 6.246094 15.46875 6.273438 15.46875 C 6.804688 15.496094 7.503906 15.640625 8.039062 15.457031 C 8.089844 15.441406 8.125 15.390625 8.128906 15.335938 C 8.140625 15.035156 7.996094 14.777344 7.855469 14.582031 C 7.78125 14.488281 7.710938 14.410156 7.652344 14.34375 C 7.597656 14.28125 7.5625 14.214844 7.570312 14.234375 L 7.5625 14.234375 C 7.558594 14.253906 7.5625 14.234375 7.601562 14.1875 C 7.679688 14.097656 7.695312 14.066406 7.753906 13.992188 C 7.773438 13.988281 7.792969 13.996094 7.808594 13.988281 C 7.859375 13.964844 7.898438 13.9375 7.9375 13.902344 C 8.019531 13.832031 8.101562 13.734375 8.183594 13.632812 C 8.269531 13.523438 8.332031 13.433594 8.410156 13.324219 C 8.472656 14.027344 8.59375 14.824219 9.226562 15.441406 C 9.25 15.464844 9.285156 15.480469 9.320312 15.480469 C 9.808594 15.480469 10.667969 15.46875 11.152344 15.46875 C 11.191406 15.46875 11.230469 15.453125 11.253906 15.421875 C 11.28125 15.390625 11.292969 15.351562 11.285156 15.3125 C 11.246094 15.074219 11.105469 14.910156 10.980469 14.800781 C 10.917969 14.746094 10.851562 14.699219 10.808594 14.667969 C 10.777344 14.644531 10.773438 14.644531 10.761719 14.632812 C 10.710938 14.160156 10.722656 13.675781 10.730469 13.234375 C 10.734375 12.832031 10.726562 12.484375 10.664062 12.199219 C 10.730469 12.199219 10.789062 12.144531 10.796875 12.078125 C 10.800781 12.019531 10.789062 11.976562 10.777344 11.929688 C 10.820312 11.929688 10.859375 11.90625 10.882812 11.871094 C 10.902344 11.835938 10.910156 11.792969 10.894531 11.753906 C 10.859375 11.644531 10.800781 11.550781 10.75 11.464844 C 10.8125 11.433594 10.84375 11.367188 10.824219 11.300781 C 10.703125 10.886719 10.574219 10.554688 10.496094 10.113281 C 10.492188 10.09375 10.484375 10.074219 10.472656 10.058594 C 10.308594 9.820312 10.253906 9.628906 10.253906 9.433594 C 10.257812 9.265625 10.316406 9.082031 10.402344 8.882812 C 10.414062 8.914062 10.417969 8.914062 10.429688 8.949219 C 10.488281 9.144531 10.53125 9.445312 10.535156 9.511719 C 10.535156 9.515625 10.535156 9.515625 10.535156 9.519531 C 10.574219 10.078125 11.007812 10.546875 11.226562 10.910156 C 11.226562 10.914062 11.222656 10.917969 11.226562 10.917969 C 11.25 10.996094 11.246094 11.09375 11.230469 11.21875 C 11.214844 11.320312 11.207031 11.445312 11.207031 11.570312 C 11.132812 11.671875 11.097656 11.707031 10.945312 11.847656 C 10.921875 11.875 10.90625 11.90625 10.90625 11.941406 C 10.902344 12.070312 10.964844 12.167969 11.03125 12.261719 C 11.097656 12.355469 11.167969 12.433594 11.257812 12.488281 C 11.308594 12.519531 11.375 12.511719 11.421875 12.472656 C 11.511719 12.390625 11.578125 12.339844 11.664062 12.261719 C 11.707031 12.292969 11.738281 12.328125 11.804688 12.347656 C 11.859375 12.367188 11.9375 12.371094 12.003906 12.339844 C 12.039062 12.320312 12.054688 12.285156 12.078125 12.253906 C 12.105469 12.257812 12.132812 12.265625 12.160156 12.261719 C 12.21875 12.25 12.28125 12.207031 12.316406 12.160156 C 12.355469 12.101562 12.367188 12.050781 12.371094 11.988281 C 12.398438 11.980469 12.425781 11.984375 12.445312 11.96875 C 12.527344 11.910156 12.535156 11.832031 12.546875 11.765625 C 12.558594 11.660156 12.535156 11.546875 12.511719 11.445312 C 12.789062 11.195312 13.109375 10.796875 13.335938 10.386719 C 13.457031 10.171875 13.550781 9.957031 13.59375 9.757812 C 13.632812 9.5625 13.621094 9.363281 13.480469 9.230469 C 13.449219 9.195312 13.402344 9.183594 13.355469 9.191406 C 13.3125 9.203125 13.273438 9.234375 13.257812 9.277344 C 13.191406 9.46875 12.941406 9.839844 12.664062 10.183594 C 12.417969 10.484375 12.183594 10.742188 12.011719 10.929688 C 12.003906 10.921875 11.984375 10.894531 11.976562 10.890625 C 11.957031 10.871094 11.929688 10.832031 11.875 10.757812 C 11.738281 10.355469 11.675781 9.957031 11.605469 9.636719 C 11.566406 9.472656 11.53125 9.328125 11.476562 9.203125 C 11.429688 9.097656 11.355469 9.007812 11.265625 8.945312 C 11.207031 8.871094 11.1875 8.808594 11.179688 8.722656 C 11.171875 8.636719 11.179688 8.53125 11.179688 8.40625 C 11.179688 8.167969 11.128906 7.859375 10.863281 7.5 C 10.917969 7.171875 10.878906 6.929688 10.789062 6.765625 C 10.707031 6.613281 10.59375 6.535156 10.515625 6.492188 C 10.457031 6.292969 10.328125 6.15625 10.175781 6.101562 C 10.054688 6.058594 9.964844 6.070312 9.871094 6.070312 C 9.851562 5.972656 9.828125 5.886719 9.855469 5.617188 C 9.859375 5.5625 9.832031 5.511719 9.78125 5.484375 C 9.777344 5.476562 9.777344 5.453125 9.777344 5.417969 C 9.777344 5.351562 9.789062 5.261719 9.789062 5.171875 C 9.785156 5.128906 9.777344 5.074219 9.75 5.027344 C 9.71875 4.980469 9.671875 4.949219 9.625 4.933594 C 9.570312 4.914062 9.5 4.917969 9.4375 4.917969 C 9.445312 4.71875 9.433594 4.527344 9.382812 4.34375 C 9.46875 4.101562 9.5 3.90625 9.644531 3.597656 C 9.8125 3.222656 9.96875 2.726562 9.894531 2.226562 C 10 2.046875 10.035156 1.871094 9.976562 1.730469 C 9.914062 1.574219 9.75 1.484375 9.585938 1.488281 Z M 7.308594 9.167969 C 7.300781 9.203125 7.28125 9.246094 7.285156 9.277344 C 7.289062 9.316406 7.300781 9.351562 7.320312 9.390625 C 7.324219 9.402344 7.34375 9.40625 7.351562 9.417969 L 7.347656 9.417969 C 7.347656 9.421875 7.347656 9.421875 7.347656 9.425781 C 7.316406 9.453125 7.25 9.519531 7.15625 9.617188 C 7.164062 9.589844 7.179688 9.558594 7.179688 9.535156 C 7.179688 9.472656 7.167969 9.441406 7.167969 9.414062 C 7.171875 9.378906 7.214844 9.289062 7.308594 9.167969 Z M 6.878906 10.054688 C 6.875 10.066406 6.886719 10.082031 6.882812 10.097656 L 6.542969 10.375 C 6.566406 10.351562 6.582031 10.328125 6.605469 10.304688 C 6.6875 10.222656 6.785156 10.144531 6.878906 10.054688 Z M 6.378906 11.179688 C 6.363281 11.214844 6.363281 11.277344 6.371094 11.308594 C 6.375 11.320312 6.375 11.316406 6.378906 11.324219 C 6.351562 11.339844 6.332031 11.359375 6.3125 11.375 C 6.316406 11.324219 6.316406 11.277344 6.3125 11.230469 C 6.324219 11.214844 6.359375 11.195312 6.378906 11.179688 Z M 6.378906 11.179688 "/>
</g>
</g>
<g clip-path="url(#clip9)" clip-rule="nonzero">
<g clip-path="url(#clip10)" clip-rule="nonzero">
<path style=" stroke:none;fill-rule:nonzero;fill:rgb(0%,0%,0%);fill-opacity:1;" d="M 9.59375 1.621094 C 9.488281 1.625 9.367188 1.683594 9.261719 1.808594 C 8.90625 2.226562 8.949219 2.792969 8.882812 3.304688 C 8.699219 3.449219 8.734375 4.027344 8.464844 3.902344 C 8.167969 3.445312 8.355469 2.851562 8.0625 2.378906 C 8.105469 1.75 7.128906 1.480469 7.421875 2.070312 C 7.683594 2.589844 7.902344 3.089844 7.890625 3.574219 C 7.886719 3.820312 7.9375 3.851562 7.960938 4.089844 C 7.699219 4.394531 7.558594 4.558594 7.476562 4.730469 C 7.242188 5.230469 7.300781 5.421875 7.46875 5.503906 C 7.539062 5.667969 7.589844 5.785156 7.882812 5.804688 C 8.03125 5.8125 8.027344 5.875 7.890625 5.902344 C 7.871094 6 7.878906 6.066406 7.878906 6.269531 C 7.21875 6.4375 6.863281 6.894531 7 7.539062 C 6.980469 8.0625 6.710938 8.453125 6.671875 8.976562 C 6.632812 9.5 6.265625 9.472656 6.097656 9.945312 C 5.722656 11.003906 5.355469 11.171875 5.355469 11.417969 C 5.160156 11.425781 5.097656 11.519531 5.113281 11.625 C 4.605469 11.972656 0.875 14.515625 -0.519531 15.199219 C 1.570312 14.488281 5.097656 12.058594 5.3125 11.910156 C 5.414062 11.960938 5.519531 11.921875 5.539062 11.695312 C 6.023438 11.945312 6.242188 11.496094 6.175781 11.171875 C 6.34375 11.007812 6.828125 10.640625 6.941406 10.523438 C 6.886719 10.617188 6.761719 10.851562 6.648438 11.003906 C 6.609375 11.0625 6.570312 11.113281 6.546875 11.148438 C 6.457031 11.289062 6.523438 11.242188 6.527344 11.382812 C 6.058594 11.640625 6.113281 11.839844 6.214844 11.921875 C 5.828125 12.675781 5.585938 13.386719 5.917969 13.617188 C 5.8125 14.335938 5.824219 15.039062 6.277344 15.335938 C 6.828125 15.363281 7.519531 15.492188 7.996094 15.328125 C 8.019531 14.820312 7.496094 14.414062 7.441406 14.28125 C 7.425781 14.207031 7.410156 14.203125 7.5 14.101562 C 7.585938 13.996094 7.585938 13.988281 7.675781 13.875 C 7.855469 13.933594 8.285156 13.25 8.519531 12.957031 C 8.582031 13.730469 8.621094 14.667969 9.320312 15.347656 C 9.804688 15.347656 10.667969 15.335938 11.152344 15.335938 C 11.082031 14.933594 10.699219 14.792969 10.628906 14.695312 C 10.511719 13.691406 10.683594 12.652344 10.519531 12.121094 C 10.554688 12.09375 10.585938 12.058594 10.664062 12.066406 C 10.679688 11.8125 10.4375 11.707031 10.765625 11.796875 C 10.6875 11.566406 10.367188 11.179688 10.699219 11.34375 C 10.578125 10.933594 10.441406 10.589844 10.359375 10.136719 C 10.007812 9.625 10.089844 9.230469 10.3125 8.742188 C 10.5 8.375 10.664062 9.308594 10.671875 9.507812 C 10.707031 10.007812 11.125 10.476562 11.351562 10.867188 C 11.429688 11.101562 11.308594 11.371094 11.339844 11.632812 C 11.25 11.757812 11.203125 11.800781 11.042969 11.949219 C 11.039062 12.070312 11.210938 12.296875 11.332031 12.371094 C 11.464844 12.257812 11.484375 12.269531 11.65625 12.09375 C 11.753906 12.183594 11.9375 12.332031 12.027344 12.117188 C 12.21875 12.15625 12.238281 12.089844 12.25 11.839844 C 12.449219 11.992188 12.4375 11.589844 12.371094 11.398438 C 12.90625 10.941406 13.753906 9.679688 13.386719 9.324219 C 13.222656 9.792969 12.347656 10.769531 12.015625 11.128906 C 11.855469 10.949219 11.890625 11.027344 11.753906 10.820312 C 11.453125 9.972656 11.496094 9.1875 11.152344 9.027344 C 10.867188 8.640625 11.304688 8.253906 10.726562 7.53125 C 10.863281 6.847656 10.550781 6.660156 10.421875 6.59375 C 10.371094 6.175781 9.910156 6.171875 9.753906 6.1875 C 9.738281 6.046875 9.683594 5.976562 9.71875 5.605469 C 9.589844 5.546875 9.660156 5.304688 9.65625 5.179688 C 9.652344 5.050781 9.574219 5.039062 9.304688 5.042969 C 9.332031 4.789062 9.3125 4.542969 9.242188 4.324219 C 9.335938 4.085938 9.363281 3.875 9.519531 3.539062 C 9.6875 3.167969 9.839844 2.675781 9.753906 2.199219 C 9.992188 1.851562 9.828125 1.609375 9.59375 1.621094 Z M 7.394531 8.855469 C 7.378906 9.011719 7.457031 9.101562 7.457031 9.101562 C 7.394531 9.207031 7.417969 9.347656 7.46875 9.355469 C 7.5 9.417969 7.484375 9.472656 7.484375 9.472656 C 7.484375 9.472656 6.933594 9.96875 7.023438 10.15625 L 6.175781 10.851562 C 6.21875 10.265625 6.757812 10.097656 6.996094 9.695312 C 7.152344 9.425781 6.800781 9.464844 7.394531 8.855469 Z M 7.394531 8.855469 "/>
</g>
</g>
</g>
</svg>
