
<svg xmlns="http://www.w3.org/2000/svg" xmlns:xlink="http://www.w3.org/1999/xlink" width="16px" height="16px" viewBox="0 0 16 16" version="1.1">
<g id="surface1">
<path style="fill-rule:nonzero;fill:rgb(94.901961%,45.098039%,5.882353%);fill-opacity:1;stroke-width:28.191782;stroke-linecap:butt;stroke-linejoin:miter;stroke:rgb(2.745098%,20.392157%,31.372549%);stroke-opacity:1;stroke-miterlimit:4;" d="M 81.5 25.125 L 430.5 25.125 C 461.625 25.125 486.875 50.375 486.875 81.5 L 486.875 430.5 C 486.875 461.625 461.625 486.875 430.5 486.875 L 81.5 486.875 C 50.375 486.875 25.125 461.625 25.125 430.5 L 25.125 81.5 C 25.125 50.375 50.375 25.125 81.5 25.125 Z M 81.5 25.125 " transform="matrix(0.03125,0,0,0.03125,0,0)"/>
<path style=" stroke:none;fill-rule:nonzero;fill:rgb(2.745098%,20.392157%,31.372549%);fill-opacity:1;" d="M 1.117188 1.09375 L 4.679688 1.09375 L 4.679688 14.988281 L 1.117188 14.988281 Z M 1.117188 1.09375 "/>
<path style=" stroke:none;fill-rule:evenodd;fill:rgb(100%,100%,100%);fill-opacity:1;" d="M 6.472656 3.351562 C 7.242188 2.933594 8.796875 2.847656 9.304688 3.515625 C 9.492188 2.722656 10.460938 2.109375 11.75 2.03125 C 11.136719 1.886719 10.113281 1.484375 9.015625 2.699219 C 7.285156 2.164062 6.628906 3.144531 6.472656 3.351562 Z M 6.472656 3.351562 "/>
<path style=" stroke:none;fill-rule:evenodd;fill:rgb(100%,100%,100%);fill-opacity:1;" d="M 3.476562 7.5625 C 4.734375 6.777344 7.34375 6.484375 8.269531 7.5625 C 8.5 6.207031 10.078125 5.074219 12.246094 4.824219 C 11.195312 4.636719 9.433594 4.054688 7.695312 6.210938 C 4.730469 5.476562 3.71875 7.195312 3.476562 7.5625 Z M 3.476562 7.5625 "/>
<path style="fill-rule:nonzero;fill:rgb(94.901961%,45.098039%,5.882353%);fill-opacity:1;stroke-width:13.445017;stroke-linecap:butt;stroke-linejoin:miter;stroke:rgb(100%,100%,100%);stroke-opacity:1;stroke-miterlimit:4;" d="M 233.625 299.625 L 385.625 299.625 C 413.25 299.625 435.625 322 435.625 349.625 L 435.625 386.625 C 435.625 414.25 413.25 436.625 385.625 436.625 L 233.625 436.625 C 206 436.625 183.625 414.25 183.625 386.625 L 183.625 349.625 C 183.625 322 206 299.625 233.625 299.625 Z M 233.625 299.625 " transform="matrix(0.03125,0,0,0.03125,0,0)"/>
<path style=" stroke:none;fill-rule:nonzero;fill:rgb(100%,100%,100%);fill-opacity:1;" d="M 6.554688 9.996094 L 11.558594 9.996094 L 11.558594 10.40625 L 6.554688 10.40625 Z M 6.554688 9.996094 "/>
<path style=" stroke:none;fill-rule:nonzero;fill:rgb(100%,100%,100%);fill-opacity:1;" d="M 6.554688 12.101562 L 11.558594 12.101562 L 11.558594 12.511719 L 6.554688 12.511719 Z M 6.554688 12.101562 "/>
<path style=" stroke:none;fill-rule:nonzero;fill:rgb(100%,100%,100%);fill-opacity:1;" d="M 6.554688 11.070312 L 8.632812 11.070312 L 8.632812 11.480469 L 6.554688 11.480469 Z M 6.554688 11.070312 "/>
</g>
</svg>
