
<svg xmlns="http://www.w3.org/2000/svg" xmlns:xlink="http://www.w3.org/1999/xlink" width="16px" height="16px" viewBox="0 0 16 16" version="1.1">
<g id="surface1">
<path style=" stroke:none;fill-rule:nonzero;fill:rgb(74.117647%,76.470588%,78.039216%);fill-opacity:1;" d="M 0.96875 0.96875 L 15.03125 0.96875 L 15.03125 15.03125 L 0.96875 15.03125 Z M 0.96875 0.96875 "/>
<path style=" stroke:none;fill-rule:nonzero;fill:rgb(58.431373%,64.705882%,65.098039%);fill-opacity:1;" d="M 2.023438 2.375 L 13.976562 2.375 L 13.976562 14.328125 L 2.023438 14.328125 Z M 2.023438 2.375 "/>
<path style=" stroke:none;fill-rule:nonzero;fill:rgb(92.54902%,94.117647%,94.509804%);fill-opacity:1;" d="M 2.023438 1.671875 L 13.976562 1.671875 L 13.976562 13.625 L 2.023438 13.625 Z M 2.023438 1.671875 "/>
<path style=" stroke:none;fill-rule:nonzero;fill:rgb(49.803922%,54.901961%,55.294118%);fill-opacity:1;" d="M 8 4.835938 L 4.835938 8 L 4.835938 8.703125 L 6.417969 8.703125 L 6.417969 11.164062 L 9.582031 11.164062 L 9.582031 8.703125 L 11.164062 8.703125 L 11.164062 8 Z M 8 5.832031 L 10.167969 8 L 8.878906 8 L 8.878906 10.460938 L 7.121094 10.460938 L 7.121094 8 L 5.832031 8 Z M 8 5.832031 "/>
</g>
</svg>
