
<svg xmlns="http://www.w3.org/2000/svg" xmlns:xlink="http://www.w3.org/1999/xlink" width="16px" height="16px" viewBox="0 0 16 16" version="1.1">
<defs>
<linearGradient id="linear0" gradientUnits="userSpaceOnUse" x1="1" y1="0" x2="47" y2="0" gradientTransform="matrix(0,-0.287698,0.287698,0,1.095884,14.904753)">
<stop offset="0" style="stop-color:rgb(26.27451%,40.392157%,41.176471%);stop-opacity:1;"/>
<stop offset="1" style="stop-color:rgb(29.411765%,45.098039%,46.27451%);stop-opacity:1;"/>
</linearGradient>
</defs>
<g id="surface1">
<path style=" stroke:none;fill-rule:nonzero;fill:url(#linear0);" d="M 1.382812 13.464844 L 1.382812 2.535156 C 1.382812 1.898438 1.898438 1.382812 2.535156 1.382812 L 13.464844 1.382812 C 14.101562 1.382812 14.617188 1.898438 14.617188 2.535156 L 14.617188 13.464844 C 14.617188 14.101562 14.101562 14.617188 13.464844 14.617188 L 2.535156 14.617188 C 1.898438 14.617188 1.382812 14.101562 1.382812 13.464844 Z M 1.382812 13.464844 "/>
<path style="fill-rule:nonzero;fill:rgb(100%,100%,100%);fill-opacity:1;stroke-width:0.4;stroke-linecap:butt;stroke-linejoin:miter;stroke:rgb(100%,100%,100%);stroke-opacity:1;stroke-miterlimit:4;" d="M 23.592577 4.682349 L 24.407431 4.682349 C 25.752709 4.674662 26.844305 5.766258 26.844305 7.119223 L 26.844305 30.503992 C 26.844305 31.856957 25.752709 32.948554 24.399744 32.948554 L 23.592577 32.956241 C 22.247299 32.948554 21.155703 31.856957 21.155703 30.503992 L 21.155703 7.119223 C 21.148015 5.773946 22.247299 4.674662 23.592577 4.682349 Z M 23.592577 4.682349 " transform="matrix(0.254072,0.254072,-0.254072,0.254072,7.511854,-3.707294)"/>
<path style="fill-rule:nonzero;fill:rgb(100%,33.333333%,33.333333%);fill-opacity:1;stroke-width:0.383166;stroke-linecap:butt;stroke-linejoin:miter;stroke:rgb(100%,100%,100%);stroke-opacity:1;stroke-miterlimit:4;" d="M 27.113361 36.323279 C 27.113361 34.462952 25.714272 32.956241 24.000004 32.963928 C 22.285736 32.956241 20.886647 34.462952 20.886647 36.323279 C 20.886647 38.183606 22.285736 39.690317 24.000004 39.698004 C 25.714272 39.690317 27.113361 38.183606 27.113361 36.323279 Z M 27.113361 36.323279 " transform="matrix(0.254072,0.254072,-0.254072,0.254072,7.511854,-3.707294)"/>
<path style="fill-rule:nonzero;fill:rgb(100%,33.333333%,33.333333%);fill-opacity:1;stroke-width:0.271515;stroke-linecap:butt;stroke-linejoin:miter;stroke:rgb(100%,100%,100%);stroke-opacity:1;stroke-miterlimit:4;" d="M 23.58489 20.279882 L 24.415118 20.279882 C 25.791145 20.272195 26.913491 20.764182 26.913491 21.379166 L 26.913491 31.910768 C 26.913491 32.525752 25.798832 33.010052 24.415118 33.010052 L 23.58489 33.010052 C 22.201176 33.010052 21.086517 32.525752 21.086517 31.910768 L 21.086517 21.379166 C 21.086517 20.764182 22.208863 20.272195 23.58489 20.279882 Z M 23.58489 20.279882 " transform="matrix(0.254072,0.254072,-0.254072,0.254072,7.511854,-3.707294)"/>
<path style=" stroke:none;fill-rule:nonzero;fill:rgb(100%,33.333333%,33.333333%);fill-opacity:1;" d="M 5.84375 10.15625 C 5.96875 10.28125 5.792969 10.660156 5.453125 11 L 5.335938 11.117188 C 4.992188 11.460938 4.613281 11.636719 4.488281 11.511719 C 4.363281 11.386719 4.539062 11.007812 4.882812 10.664062 L 5 10.546875 C 5.339844 10.207031 5.71875 10.03125 5.84375 10.15625 Z M 5.84375 10.15625 "/>
<path style=" stroke:none;fill-rule:nonzero;fill:rgb(20%,20%,20%);fill-opacity:1;" d="M 11.671875 4.378906 L 12.269531 4.976562 C 12.285156 4.992188 12.285156 5.019531 12.269531 5.039062 L 12.246094 5.058594 C 12.230469 5.078125 12.203125 5.078125 12.1875 5.058594 L 11.589844 4.460938 C 11.570312 4.445312 11.570312 4.417969 11.589844 4.402344 L 11.609375 4.378906 C 11.628906 4.363281 11.652344 4.363281 11.671875 4.378906 Z M 11.671875 4.378906 "/>
<path style=" stroke:none;fill-rule:nonzero;fill:rgb(20%,20%,20%);fill-opacity:1;" d="M 11.386719 5.113281 L 11.769531 5.496094 C 11.78125 5.507812 11.777344 5.53125 11.761719 5.546875 L 11.738281 5.566406 C 11.722656 5.585938 11.699219 5.589844 11.6875 5.578125 L 11.304688 5.195312 C 11.296875 5.1875 11.300781 5.164062 11.316406 5.148438 L 11.339844 5.125 C 11.355469 5.109375 11.378906 5.101562 11.386719 5.113281 Z M 11.386719 5.113281 "/>
<path style=" stroke:none;fill-rule:nonzero;fill:rgb(20%,20%,20%);fill-opacity:1;" d="M 10.65625 5.394531 L 11.253906 5.992188 C 11.269531 6.011719 11.269531 6.039062 11.253906 6.054688 L 11.230469 6.074219 C 11.214844 6.09375 11.1875 6.09375 11.167969 6.074219 L 10.574219 5.480469 C 10.554688 5.460938 10.554688 5.433594 10.574219 5.417969 L 10.59375 5.394531 C 10.609375 5.378906 10.636719 5.378906 10.65625 5.394531 Z M 10.65625 5.394531 "/>
<path style=" stroke:none;fill-rule:nonzero;fill:rgb(20%,20%,20%);fill-opacity:1;" d="M 10.371094 6.128906 L 10.753906 6.511719 C 10.765625 6.523438 10.761719 6.546875 10.742188 6.5625 L 10.722656 6.585938 C 10.707031 6.601562 10.683594 6.605469 10.671875 6.59375 L 10.289062 6.210938 C 10.28125 6.203125 10.285156 6.179688 10.300781 6.164062 L 10.324219 6.140625 C 10.339844 6.125 10.363281 6.121094 10.371094 6.128906 Z M 10.371094 6.128906 "/>
<path style=" stroke:none;fill-rule:nonzero;fill:rgb(20%,20%,20%);fill-opacity:1;" d="M 9.636719 6.414062 L 10.234375 7.011719 C 10.253906 7.027344 10.253906 7.054688 10.234375 7.070312 L 10.214844 7.09375 C 10.195312 7.109375 10.171875 7.109375 10.152344 7.09375 L 9.554688 6.496094 C 9.539062 6.476562 9.539062 6.453125 9.554688 6.433594 L 9.578125 6.414062 C 9.59375 6.394531 9.621094 6.394531 9.636719 6.414062 Z M 9.636719 6.414062 "/>
<path style=" stroke:none;fill-rule:nonzero;fill:rgb(20%,20%,20%);fill-opacity:1;" d="M 9.355469 7.148438 L 9.738281 7.527344 C 9.75 7.539062 9.746094 7.5625 9.726562 7.578125 L 9.707031 7.601562 C 9.6875 7.617188 9.667969 7.621094 9.65625 7.609375 L 9.273438 7.230469 C 9.261719 7.21875 9.269531 7.195312 9.285156 7.179688 L 9.304688 7.15625 C 9.324219 7.140625 9.34375 7.136719 9.355469 7.148438 Z M 9.355469 7.148438 "/>
<path style=" stroke:none;fill-rule:nonzero;fill:rgb(20%,20%,20%);fill-opacity:1;" d="M 8.621094 7.429688 L 9.21875 8.027344 C 9.234375 8.042969 9.234375 8.070312 9.21875 8.085938 L 9.199219 8.109375 C 9.179688 8.125 9.152344 8.125 9.136719 8.109375 L 8.539062 7.511719 C 8.523438 7.496094 8.523438 7.46875 8.539062 7.449219 L 8.5625 7.429688 C 8.578125 7.414062 8.605469 7.414062 8.621094 7.429688 Z M 8.621094 7.429688 "/>
<path style=" stroke:none;fill-rule:nonzero;fill:rgb(20%,20%,20%);fill-opacity:1;" d="M 8.339844 8.164062 L 8.722656 8.546875 C 8.734375 8.554688 8.726562 8.578125 8.710938 8.59375 L 8.6875 8.617188 C 8.671875 8.632812 8.652344 8.636719 8.640625 8.628906 L 8.257812 8.246094 C 8.246094 8.234375 8.25 8.210938 8.269531 8.195312 L 8.289062 8.175781 C 8.308594 8.15625 8.328125 8.152344 8.339844 8.164062 Z M 8.339844 8.164062 "/>
<path style=" stroke:none;fill-rule:nonzero;fill:rgb(20%,20%,20%);fill-opacity:1;" d="M 7.605469 8.445312 L 8.203125 9.042969 C 8.21875 9.058594 8.21875 9.085938 8.203125 9.101562 L 8.179688 9.125 C 8.164062 9.140625 8.136719 9.140625 8.121094 9.125 L 7.523438 8.527344 C 7.507812 8.511719 7.507812 8.484375 7.523438 8.46875 L 7.546875 8.445312 C 7.5625 8.429688 7.589844 8.429688 7.605469 8.445312 Z M 7.605469 8.445312 "/>
<path style=" stroke:none;fill-rule:nonzero;fill:rgb(20%,20%,20%);fill-opacity:1;" d="M 7.324219 9.179688 L 7.707031 9.5625 C 7.714844 9.574219 7.710938 9.59375 7.695312 9.609375 L 7.671875 9.632812 C 7.65625 9.648438 7.632812 9.65625 7.625 9.644531 L 7.242188 9.261719 C 7.230469 9.25 7.234375 9.230469 7.253906 9.210938 L 7.273438 9.191406 C 7.289062 9.171875 7.3125 9.167969 7.324219 9.179688 Z M 7.324219 9.179688 "/>
<path style=" stroke:none;fill-rule:nonzero;fill:rgb(20%,20%,20%);fill-opacity:1;" d="M 6.589844 9.460938 L 7.1875 10.058594 C 7.203125 10.074219 7.203125 10.101562 7.1875 10.121094 L 7.164062 10.140625 C 7.148438 10.15625 7.121094 10.15625 7.105469 10.140625 L 6.507812 9.542969 C 6.492188 9.527344 6.492188 9.5 6.507812 9.484375 L 6.527344 9.460938 C 6.546875 9.445312 6.574219 9.445312 6.589844 9.460938 Z M 6.589844 9.460938 "/>
<path style=" stroke:none;fill-rule:nonzero;fill:rgb(20%,20%,20%);fill-opacity:1;" d="M 6.308594 10.195312 L 6.691406 10.578125 C 6.699219 10.589844 6.695312 10.609375 6.679688 10.628906 L 6.65625 10.648438 C 6.640625 10.664062 6.617188 10.671875 6.609375 10.660156 L 6.226562 10.277344 C 6.214844 10.265625 6.21875 10.246094 6.234375 10.226562 L 6.257812 10.207031 C 6.273438 10.191406 6.296875 10.183594 6.308594 10.195312 Z M 6.308594 10.195312 "/>
</g>
</svg>
