
<svg xmlns="http://www.w3.org/2000/svg" xmlns:xlink="http://www.w3.org/1999/xlink" width="16px" height="16px" viewBox="0 0 16 16" version="1.1">
<g id="surface1">
<path style="fill-rule:nonzero;fill:rgb(100%,77.647059%,45.882353%);fill-opacity:0.639216;stroke-width:6.815335;stroke-linecap:butt;stroke-linejoin:miter;stroke:rgb(95.686275%,55.686275%,31.764706%);stroke-opacity:1;stroke-miterlimit:4;" d="M 21.8125 8.1875 L 106.1875 8.1875 C 113.71875 8.1875 119.8125 14.28125 119.8125 21.8125 L 119.8125 106.1875 C 119.8125 113.71875 113.71875 119.8125 106.1875 119.8125 L 21.8125 119.8125 C 14.28125 119.8125 8.1875 113.71875 8.1875 106.1875 L 8.1875 21.8125 C 8.1875 14.28125 14.28125 8.1875 21.8125 8.1875 Z M 21.8125 8.1875 " transform="matrix(0.125,0,0,0.125,0,0)"/>
<path style=" stroke:none;fill-rule:nonzero;fill:rgb(95.686275%,55.686275%,31.764706%);fill-opacity:1;" d="M 7.804688 2.402344 C 6.613281 4.03125 2.558594 8.625 4.28125 11.277344 C 5.621094 13.335938 10.164062 13.34375 11.484375 11.277344 C 13.207031 8.59375 8.824219 4.027344 7.804688 2.402344 M 7.804688 2.402344 "/>
<path style=" stroke:none;fill-rule:nonzero;fill:rgb(100%,77.647059%,45.882353%);fill-opacity:1;" d="M 7.398438 5.773438 C 5.058594 5.921875 4.257812 9.324219 5.152344 10.875 C 6.144531 12.394531 9 12.710938 10.769531 11.824219 C 10.457031 11.492188 10.027344 11.15625 9.464844 11.011719 C 8.203125 10.683594 6.3125 8.730469 7.261719 7.425781 C 8.207031 6.125 9.78125 7.425781 9.78125 7.425781 C 9.78125 7.425781 9.464844 6.125 7.886719 5.796875 C 7.789062 5.777344 7.675781 5.777344 7.574219 5.773438 C 7.507812 5.769531 7.460938 5.769531 7.398438 5.773438 M 7.398438 5.773438 "/>
</g>
</svg>
