
<svg xmlns="http://www.w3.org/2000/svg" xmlns:xlink="http://www.w3.org/1999/xlink" width="16px" height="16px" viewBox="0 0 16 16" version="1.1">
<g id="surface1">
<path style="fill-rule:nonzero;fill:rgb(100%,100%,100%);fill-opacity:1;stroke-width:6.940816;stroke-linecap:butt;stroke-linejoin:miter;stroke:rgb(95.294118%,61.176471%,7.058824%);stroke-opacity:1;stroke-miterlimit:4;" d="M 21.03125 7.15625 L 106.96875 7.15625 C 114.625 7.15625 120.84375 13.375 120.84375 21.03125 L 120.84375 106.96875 C 120.84375 114.625 114.625 120.84375 106.96875 120.84375 L 21.03125 120.84375 C 13.375 120.84375 7.15625 114.625 7.15625 106.96875 L 7.15625 21.03125 C 7.15625 13.375 13.375 7.15625 21.03125 7.15625 Z M 21.03125 7.15625 " transform="matrix(0.125,0,0,0.125,0,0)"/>
<path style=" stroke:none;fill-rule:nonzero;fill:rgb(95.294118%,61.176471%,7.058824%);fill-opacity:1;" d="M 1.855469 2.113281 L 1.855469 4.558594 L 4.300781 4.558594 C 8.367188 4.558594 11.636719 7.832031 11.636719 11.898438 L 11.636719 14.34375 L 14.085938 14.34375 L 14.085938 11.898438 C 14.085938 6.476562 9.71875 2.113281 4.300781 2.113281 Z M 1.855469 7.003906 L 1.855469 9.453125 L 4.300781 9.453125 C 5.65625 9.453125 6.746094 10.542969 6.746094 11.898438 L 6.746094 14.34375 L 9.191406 14.34375 L 9.191406 11.898438 C 9.191406 9.1875 7.011719 7.003906 4.300781 7.003906 Z M 3.28125 11.492188 C 2.488281 11.492188 1.855469 12.125 1.855469 12.917969 C 1.855469 13.707031 2.488281 14.34375 3.28125 14.34375 C 4.070312 14.34375 4.707031 13.707031 4.707031 12.917969 C 4.707031 12.125 4.070312 11.492188 3.28125 11.492188 Z M 3.28125 11.492188 "/>
</g>
</svg>
