
<svg xmlns="http://www.w3.org/2000/svg" xmlns:xlink="http://www.w3.org/1999/xlink" width="16px" height="16px" viewBox="0 0 16 16" version="1.1">
<g id="surface1">
<path style="fill-rule:nonzero;fill:rgb(70.196078%,43.529412%,11.764706%);fill-opacity:1;stroke-width:7.117036;stroke-linecap:butt;stroke-linejoin:miter;stroke:rgb(20%,20%,20%);stroke-opacity:1;stroke-miterlimit:4;" d="M 19.9375 5.71875 L 108.0625 5.71875 C 115.90625 5.71875 122.28125 12.09375 122.28125 19.9375 L 122.28125 108.0625 C 122.28125 115.90625 115.90625 122.28125 108.0625 122.28125 L 19.9375 122.28125 C 12.09375 122.28125 5.71875 115.90625 5.71875 108.0625 L 5.71875 19.9375 C 5.71875 12.09375 12.09375 5.71875 19.9375 5.71875 Z M 19.9375 5.71875 " transform="matrix(0.125,0,0,0.125,0,0)"/>
<path style=" stroke:none;fill-rule:evenodd;fill:rgb(20%,20%,20%);fill-opacity:1;" d="M 13.910156 7.988281 C 13.859375 4.703125 11.160156 2.078125 7.875 2.117188 C 4.589844 2.15625 1.957031 4.84375 1.984375 8.128906 C 2.007812 11.414062 4.6875 14.0625 7.972656 14.046875 C 11.257812 14.035156 13.914062 11.367188 13.914062 8.082031 "/>
<path style=" stroke:none;fill-rule:evenodd;fill:rgb(99.607843%,82.352941%,42.352941%);fill-opacity:0.4;" d="M 12.917969 8.09375 C 12.917969 5.347656 10.695312 3.125 7.949219 3.125 C 5.203125 3.125 2.976562 5.347656 2.976562 8.09375 C 2.976562 10.839844 5.203125 13.066406 7.949219 13.066406 C 10.695312 13.066406 12.917969 10.839844 12.917969 8.09375 "/>
<path style=" stroke:none;fill-rule:evenodd;fill:rgb(46.27451%,32.54902%,12.941176%);fill-opacity:0.686275;" d="M 11.183594 8.089844 C 11.183594 6.304688 9.738281 4.859375 7.953125 4.859375 C 6.167969 4.859375 4.722656 6.304688 4.722656 8.089844 C 4.722656 9.875 6.167969 11.320312 7.953125 11.320312 C 9.738281 11.320312 11.183594 9.875 11.183594 8.089844 "/>
<path style=" stroke:none;fill-rule:evenodd;fill:rgb(32.54902%,18.039216%,0%);fill-opacity:1;" d="M 10.042969 8.082031 C 10.042969 6.925781 9.105469 5.988281 7.949219 5.988281 C 6.792969 5.988281 5.855469 6.925781 5.855469 8.082031 C 5.855469 9.238281 6.792969 10.175781 7.949219 10.175781 C 9.105469 10.175781 10.042969 9.238281 10.042969 8.082031 "/>
<path style=" stroke:none;fill-rule:evenodd;fill:rgb(100%,100%,100%);fill-opacity:0.643137;" d="M 9.984375 6.886719 C 10.191406 6.449219 9.992188 5.921875 9.542969 5.714844 C 9.09375 5.503906 8.566406 5.691406 8.359375 6.128906 C 8.15625 6.566406 8.351562 7.09375 8.800781 7.304688 C 9.25 7.511719 9.777344 7.328125 9.984375 6.886719 "/>
<path style=" stroke:none;fill-rule:evenodd;fill:rgb(100%,100%,100%);fill-opacity:0.364706;" d="M 6.988281 9.652344 C 7.164062 9.441406 7.152344 9.125 6.960938 8.949219 C 6.769531 8.777344 6.472656 8.808594 6.296875 9.019531 C 6.121094 9.234375 6.136719 9.546875 6.328125 9.722656 C 6.519531 9.898438 6.816406 9.867188 6.988281 9.652344 "/>
</g>
</svg>
