
<svg xmlns="http://www.w3.org/2000/svg" xmlns:xlink="http://www.w3.org/1999/xlink" width="16px" height="16px" viewBox="0 0 16 16" version="1.1">
<g id="surface1">
<path style=" stroke:none;fill-rule:evenodd;fill:rgb(80.392157%,61.176471%,42.745098%);fill-opacity:1;" d="M 2.511719 1.160156 L 13.539062 1.160156 C 14.402344 1.160156 15.105469 1.863281 15.105469 2.730469 L 15.105469 13.566406 C 15.105469 14.433594 14.402344 15.136719 13.539062 15.136719 L 2.511719 15.136719 C 1.644531 15.136719 0.941406 14.433594 0.941406 13.566406 L 0.941406 2.730469 C 0.941406 1.863281 1.644531 1.160156 2.511719 1.160156 Z M 2.511719 1.160156 "/>
<path style=" stroke:none;fill-rule:nonzero;fill:rgb(12.156863%,9.019608%,5.882353%);fill-opacity:1;" d="M 7.371094 10.96875 C 6.769531 10.875 6.097656 10.527344 5.660156 10.085938 C 5.003906 9.425781 4.667969 8.457031 4.773438 7.550781 C 4.945312 6.074219 6.066406 4.945312 7.53125 4.777344 C 8.472656 4.667969 9.433594 5.003906 10.09375 5.671875 C 10.757812 6.339844 11.09375 7.304688 10.988281 8.21875 C 10.847656 9.429688 10.082031 10.398438 8.933594 10.824219 C 8.445312 11.003906 7.90625 11.054688 7.371094 10.96875 Z M 8.589844 10.253906 C 9.429688 9.976562 10.105469 9.242188 10.324219 8.375 C 10.382812 8.144531 10.382812 7.621094 10.324219 7.386719 C 10.113281 6.527344 9.433594 5.792969 8.582031 5.503906 C 8.292969 5.40625 8.222656 5.398438 7.882812 5.398438 C 7.558594 5.398438 7.457031 5.414062 7.222656 5.488281 C 6.589844 5.691406 6.113281 6.066406 5.75 6.648438 C 5.398438 7.214844 5.296875 7.832031 5.457031 8.445312 C 5.699219 9.386719 6.582031 10.191406 7.542969 10.355469 C 7.839844 10.40625 8.253906 10.367188 8.589844 10.253906 Z M 7.382812 9.046875 C 7.121094 8.761719 6.761719 8.375 6.582031 8.183594 C 6.140625 7.707031 6.050781 7.589844 6.105469 7.570312 C 6.128906 7.5625 6.378906 7.550781 6.660156 7.542969 L 7.171875 7.535156 L 7.203125 6.183594 L 7.542969 6.167969 C 7.730469 6.15625 8.03125 6.15625 8.21875 6.167969 L 8.558594 6.183594 L 8.589844 7.535156 L 9.101562 7.542969 C 9.382812 7.550781 9.632812 7.5625 9.65625 7.570312 C 9.710938 7.589844 9.621094 7.707031 9.179688 8.183594 C 9 8.375 8.640625 8.761719 8.378906 9.046875 C 8.117188 9.332031 7.894531 9.566406 7.882812 9.566406 C 7.867188 9.566406 7.644531 9.332031 7.382812 9.046875 Z M 7.382812 9.046875 "/>
<path style=" stroke:none;fill-rule:evenodd;fill:rgb(89.019608%,76.862745%,66.27451%);fill-opacity:1;" d="M 6.746094 13.808594 L 9.027344 13.808594 C 9.066406 13.808594 9.09375 13.839844 9.09375 13.875 L 9.09375 15.066406 C 9.09375 15.105469 9.066406 15.132812 9.027344 15.132812 L 6.746094 15.132812 C 6.710938 15.132812 6.679688 15.105469 6.679688 15.066406 L 6.679688 13.875 C 6.679688 13.839844 6.710938 13.808594 6.746094 13.808594 Z M 6.746094 13.808594 "/>
<path style=" stroke:none;fill-rule:evenodd;fill:rgb(89.019608%,76.862745%,66.27451%);fill-opacity:1;" d="M 6.773438 1.160156 L 9.054688 1.160156 C 9.09375 1.160156 9.121094 1.191406 9.121094 1.226562 L 9.121094 2.417969 C 9.121094 2.453125 9.09375 2.484375 9.054688 2.484375 L 6.773438 2.484375 C 6.738281 2.484375 6.707031 2.453125 6.707031 2.417969 L 6.707031 1.226562 C 6.707031 1.191406 6.738281 1.160156 6.773438 1.160156 Z M 6.773438 1.160156 "/>
</g>
</svg>
