
<svg xmlns="http://www.w3.org/2000/svg" xmlns:xlink="http://www.w3.org/1999/xlink" width="16px" height="16px" viewBox="0 0 16 16" version="1.1">
<g id="surface1">
<path style=" stroke:none;fill-rule:nonzero;fill:rgb(38.823529%,47.843137%,50.980392%);fill-opacity:1;" d="M 4.570312 3.679688 L 9.148438 3.679688 L 9.148438 0.816406 L 4.570312 0.816406 Z M 4.570312 3.679688 "/>
<path style=" stroke:none;fill-rule:nonzero;fill:rgb(100%,100%,100%);fill-opacity:0.654902;" d="M 5.234375 2.625 L 6.378906 2.625 L 6.378906 1.480469 L 5.234375 1.480469 Z M 5.234375 2.625 "/>
<path style=" stroke:none;fill-rule:nonzero;fill:rgb(1.960784%,20.784314%,24.705882%);fill-opacity:0.654902;" d="M 5.144531 2.53125 L 6.289062 2.53125 L 6.289062 1.390625 L 5.144531 1.390625 Z M 5.144531 2.53125 "/>
<path style=" stroke:none;fill-rule:nonzero;fill:rgb(100%,100%,100%);fill-opacity:0.654902;" d="M 7.523438 2.625 L 8.667969 2.625 L 8.667969 1.480469 L 7.523438 1.480469 Z M 7.523438 2.625 "/>
<path style=" stroke:none;fill-rule:nonzero;fill:rgb(1.960784%,20.784314%,24.705882%);fill-opacity:0.654902;" d="M 7.433594 2.53125 L 8.578125 2.53125 L 8.578125 1.390625 L 7.433594 1.390625 Z M 7.433594 2.53125 "/>
<path style="fill-rule:nonzero;fill:rgb(14.509804%,68.235294%,87.45098%);fill-opacity:1;stroke-width:9.766254;stroke-linecap:butt;stroke-linejoin:miter;stroke:rgb(14.509804%,68.235294%,87.45098%);stroke-opacity:1;stroke-miterlimit:4;" d="M 118.875 122.625 L 320.25 122.625 C 328.625 122.625 335.375 129.25 335.375 137.625 L 335.375 473.75 C 335.375 482.125 328.625 488.875 320.25 488.875 L 118.875 488.875 C 110.5 488.875 103.75 482.125 103.75 473.75 L 103.75 137.625 C 103.75 129.25 110.5 122.625 118.875 122.625 Z M 118.875 122.625 " transform="matrix(0.03125,0,0,0.03125,0,0)"/>
<path style=" stroke:none;fill-rule:nonzero;fill:rgb(92.54902%,94.117647%,94.509804%);fill-opacity:1;" d="M 7.8125 7.019531 L 7.8125 6.085938 L 8.75 6.085938 L 8.75 7.019531 Z M 7.8125 7.019531 "/>
<path style=" stroke:none;fill-rule:nonzero;fill:rgb(92.54902%,94.117647%,94.509804%);fill-opacity:1;" d="M 6.949219 10.554688 C 7.300781 10.554688 7.585938 10.839844 7.585938 11.191406 C 7.585938 11.542969 7.300781 11.828125 6.949219 11.828125 C 6.597656 11.828125 6.3125 11.542969 6.3125 11.191406 C 6.3125 10.839844 6.597656 10.554688 6.949219 10.554688 Z M 6.949219 10.554688 "/>
<path style=" stroke:none;fill-rule:nonzero;fill:rgb(92.54902%,94.117647%,94.509804%);fill-opacity:1;" d="M 5.753906 6.90625 C 6.066406 6.90625 6.320312 7.160156 6.320312 7.472656 C 6.320312 7.785156 6.066406 8.035156 5.753906 8.035156 C 5.441406 8.035156 5.191406 7.785156 5.191406 7.472656 C 5.191406 7.160156 5.441406 6.90625 5.753906 6.90625 Z M 5.753906 6.90625 "/>
<path style=" stroke:none;fill-rule:evenodd;fill:rgb(92.54902%,94.117647%,94.509804%);fill-opacity:1;" d="M 6.449219 5.519531 C 6.449219 5.519531 6.949219 4.386719 6.964844 4.402344 C 6.976562 4.417969 7.460938 5.519531 7.460938 5.519531 Z M 6.449219 5.519531 "/>
<path style="fill:none;stroke-width:6.079651;stroke-linecap:butt;stroke-linejoin:miter;stroke:rgb(92.54902%,94.117647%,94.509804%);stroke-opacity:1;stroke-miterlimit:2.012602;" d="M 256.79065 269.535739 C 253.790838 241.582942 213.157016 227.674721 213.020661 211.448463 C 212.884305 200.403699 213.429726 195.631271 213.293371 181.586695 " transform="matrix(0.0286476,0,0,0.0286476,-0.407224,2.524535)"/>
<path style="fill:none;stroke-width:6.079651;stroke-linecap:butt;stroke-linejoin:miter;stroke:rgb(92.54902%,94.117647%,94.509804%);stroke-opacity:1;stroke-miterlimit:2.012602;" d="M 256.79065 239.673971 C 256.79065 212.130239 287.061484 205.721549 302.060546 185.268282 C 304.378583 181.859405 302.878677 150.634085 302.878677 148.725114 " transform="matrix(0.0286476,0,0,0.0286476,-0.407224,2.524535)"/>
<path style="fill:none;stroke-width:6.079651;stroke-linecap:butt;stroke-linejoin:miter;stroke:rgb(92.54902%,94.117647%,94.509804%);stroke-opacity:1;stroke-miterlimit:2.012602;" d="M 256.654295 302.942741 L 256.654295 96.092042 " transform="matrix(0.0286476,0,0,0.0286476,-0.407224,2.524535)"/>
<path style=" stroke:none;fill-rule:evenodd;fill:rgb(10.196078%,73.72549%,61.176471%);fill-opacity:1;" d="M 14.601562 11.765625 C 14.597656 9.917969 13.105469 8.425781 11.269531 8.429688 C 9.4375 8.429688 7.949219 9.929688 7.953125 11.773438 C 7.953125 13.621094 9.441406 15.117188 11.277344 15.117188 C 13.113281 15.113281 14.601562 13.617188 14.601562 11.773438 "/>
<path style=" stroke:none;fill-rule:evenodd;fill:rgb(100%,100%,100%);fill-opacity:1;" d="M 10.992188 10.152344 L 10.992188 11.480469 L 9.667969 11.480469 L 9.667969 12.074219 L 10.992188 12.074219 L 10.992188 13.40625 L 11.59375 13.40625 L 11.59375 12.074219 L 12.917969 12.074219 L 12.917969 11.480469 L 11.59375 11.480469 L 11.59375 10.152344 Z M 10.992188 10.152344 "/>
</g>
</svg>
