
<svg xmlns="http://www.w3.org/2000/svg" xmlns:xlink="http://www.w3.org/1999/xlink" width="16px" height="16px" viewBox="0 0 16 16" version="1.1">
<g id="surface1">
<path style="fill-rule:nonzero;fill:rgb(39.607843%,59.607843%,0%);fill-opacity:1;stroke-width:55.679031;stroke-linecap:butt;stroke-linejoin:miter;stroke:rgb(94.901961%,94.901961%,94.901961%);stroke-opacity:1;stroke-miterlimit:4;" d="M 167.25 56 L 856.75 56 C 918.25 56 968 105.75 968 167.25 L 968 856.75 C 968 918.25 918.25 968 856.75 968 L 167.25 968 C 105.75 968 56 918.25 56 856.75 L 56 167.25 C 56 105.75 105.75 56 167.25 56 Z M 167.25 56 " transform="matrix(0.015625,0,0,0.015625,0,0)"/>
<path style=" stroke:none;fill-rule:evenodd;fill:rgb(94.901961%,94.901961%,94.901961%);fill-opacity:1;" d="M 13.882812 7.984375 C 13.882812 4.753906 11.261719 2.136719 8.03125 2.136719 C 4.804688 2.136719 2.183594 4.753906 2.183594 7.984375 C 2.183594 11.214844 4.804688 13.832031 8.03125 13.832031 C 11.261719 13.832031 13.882812 11.214844 13.882812 7.984375 Z M 13.882812 7.984375 "/>
<path style=" stroke:none;fill-rule:nonzero;fill:rgb(39.607843%,59.607843%,0%);fill-opacity:1;" d="M 7.574219 14.261719 C 7.273438 14.234375 7.136719 14.21875 7.011719 14.199219 C 5.941406 14.03125 5.007812 13.625 4.175781 12.960938 C 3.046875 12.0625 2.273438 10.902344 1.945312 9.625 C 1.796875 9.046875 1.753906 8.664062 1.753906 7.988281 C 1.753906 7.433594 1.769531 7.230469 1.847656 6.792969 C 2.105469 5.390625 2.828125 4.160156 3.976562 3.179688 C 5.121094 2.199219 6.476562 1.707031 8.019531 1.707031 C 9.765625 1.707031 11.238281 2.316406 12.46875 3.546875 C 13.582031 4.660156 14.175781 5.945312 14.296875 7.496094 C 14.320312 7.800781 14.304688 8.476562 14.273438 8.753906 C 14.074219 10.347656 13.371094 11.664062 12.140625 12.742188 C 11.175781 13.589844 10.089844 14.074219 8.800781 14.234375 C 8.605469 14.257812 7.734375 14.277344 7.574219 14.261719 Z M 10.640625 8.367188 C 11.859375 4.308594 11.90625 4.140625 11.878906 4.121094 C 11.851562 4.101562 11.660156 4.097656 10.6875 4.101562 C 10.050781 4.105469 9.523438 4.109375 9.519531 4.117188 C 9.511719 4.121094 9.175781 5.382812 8.769531 6.914062 C 8.359375 8.445312 8.023438 9.703125 8.019531 9.707031 C 8.015625 9.710938 8.007812 9.695312 8 9.667969 C 7.996094 9.644531 7.6875 8.386719 7.316406 6.878906 C 6.949219 5.367188 6.640625 4.125 6.632812 4.117188 C 6.617188 4.105469 4.375 4.09375 4.300781 4.105469 C 4.261719 4.113281 4.246094 4.125 4.246094 4.148438 C 4.246094 4.1875 6.601562 12.527344 6.625 12.570312 C 6.640625 12.597656 6.71875 12.597656 8.007812 12.59375 L 9.375 12.589844 Z M 10.640625 8.367188 "/>
</g>
</svg>
