
<svg xmlns="http://www.w3.org/2000/svg" xmlns:xlink="http://www.w3.org/1999/xlink" width="16px" height="16px" viewBox="0 0 16 16" version="1.1">
<g id="surface1">
<path style="fill-rule:nonzero;fill:rgb(100%,100%,100%);fill-opacity:1;stroke-width:31.174202;stroke-linecap:butt;stroke-linejoin:miter;stroke:rgb(83.137255%,10.196078%,10.196078%);stroke-opacity:1;stroke-miterlimit:4;" d="M 137.955568 -508.923771 L 523.87621 -508.923771 C 558.293918 -508.923771 586.21511 -481.002579 586.21511 -446.584871 L 586.21511 -60.664229 C 586.21511 -26.246521 558.293918 1.674671 523.87621 1.674671 L 137.955568 1.674671 C 103.537861 1.674671 75.616668 -26.246521 75.616668 -60.664229 L 75.616668 -446.584871 C 75.616668 -481.002579 103.537861 -508.923771 137.955568 -508.923771 Z M 137.955568 -508.923771 " transform="matrix(0.0282603,0,0,0.0282603,-1.351797,15.167517)"/>
<path style=" stroke:none;fill-rule:nonzero;fill:rgb(83.137255%,10.196078%,10.196078%);fill-opacity:1;" d="M 10.6875 13.792969 C 9.050781 13.46875 7.574219 13.171875 7.40625 13.136719 L 7.105469 13.074219 L 7.105469 8.410156 L 9.042969 8.425781 C 10.105469 8.4375 11.625 8.457031 12.414062 8.476562 L 13.851562 8.507812 L 13.851562 11.453125 C 13.851562 14.226562 13.847656 14.398438 13.761719 14.394531 C 13.710938 14.390625 12.328125 14.121094 10.6875 13.792969 Z M 4.203125 12.503906 L 2.175781 12.105469 L 2.160156 10.230469 L 2.148438 8.355469 L 4.191406 8.378906 C 5.316406 8.390625 6.242188 8.40625 6.25 8.414062 C 6.257812 8.421875 6.257812 9.433594 6.25 10.664062 L 6.234375 12.898438 Z M 2.148438 5.78125 C 2.148438 4.75 2.15625 3.910156 2.164062 3.910156 C 2.171875 3.910156 3.066406 3.730469 4.152344 3.511719 C 5.238281 3.296875 6.15625 3.117188 6.191406 3.117188 C 6.246094 3.117188 6.261719 3.566406 6.261719 5.351562 L 6.261719 7.582031 L 5.195312 7.617188 C 4.605469 7.636719 3.679688 7.652344 3.136719 7.652344 L 2.148438 7.652344 Z M 7.105469 5.273438 L 7.105469 2.929688 L 10.386719 2.28125 C 12.191406 1.925781 13.710938 1.621094 13.761719 1.609375 C 13.847656 1.582031 13.851562 1.75 13.851562 4.5625 L 13.851562 7.546875 L 12.070312 7.546875 C 11.085938 7.546875 9.570312 7.5625 8.695312 7.582031 L 7.105469 7.617188 Z M 7.105469 5.273438 "/>
</g>
</svg>
