
<svg xmlns="http://www.w3.org/2000/svg" xmlns:xlink="http://www.w3.org/1999/xlink" width="16px" height="16px" viewBox="0 0 16 16" version="1.1">
<defs>
<linearGradient id="linear0" gradientUnits="userSpaceOnUse" x1="1" y1="0" x2="47" y2="0" gradientTransform="matrix(0,-0.333333,0.333333,0,0.000738222,16)">
<stop offset="0" style="stop-color:rgb(26.27451%,40.392157%,41.176471%);stop-opacity:1;"/>
<stop offset="1" style="stop-color:rgb(29.411765%,45.098039%,46.27451%);stop-opacity:1;"/>
</linearGradient>
</defs>
<g id="surface1">
<path style=" stroke:none;fill-rule:nonzero;fill:url(#linear0);" d="M 0.332031 14.332031 L 0.332031 1.667969 C 0.332031 0.929688 0.929688 0.332031 1.667969 0.332031 L 14.332031 0.332031 C 15.070312 0.332031 15.667969 0.929688 15.667969 1.667969 L 15.667969 14.332031 C 15.667969 15.070312 15.070312 15.667969 14.332031 15.667969 L 1.667969 15.667969 C 0.929688 15.667969 0.332031 15.070312 0.332031 14.332031 Z M 0.332031 14.332031 "/>
<path style="fill-rule:nonzero;fill:rgb(100%,100%,100%);fill-opacity:1;stroke-width:0.4;stroke-linecap:butt;stroke-linejoin:miter;stroke:rgb(100%,100%,100%);stroke-opacity:1;stroke-miterlimit:4;" d="M 23.595274 4.675459 L 24.404727 4.675459 C 25.758239 4.675459 26.852992 5.770211 26.846357 7.117089 L 26.846357 30.511619 C 26.846357 31.851861 25.751604 32.946614 24.404727 32.953249 L 23.595274 32.953249 C 22.248396 32.946614 21.153644 31.851861 21.153644 30.511619 L 21.153644 7.117089 C 21.147009 5.770211 22.241761 4.675459 23.595274 4.675459 Z M 23.595274 4.675459 " transform="matrix(0.294373,0.294373,-0.294373,0.294373,7.434423,-5.564329)"/>
<path style="fill-rule:nonzero;fill:rgb(100%,33.333333%,33.333333%);fill-opacity:1;stroke-width:0.383166;stroke-linecap:butt;stroke-linejoin:miter;stroke:rgb(100%,100%,100%);stroke-opacity:1;stroke-miterlimit:4;" d="M 27.111751 36.32376 C 27.111751 34.465998 25.71843 32.953249 24 32.959884 C 22.281571 32.953249 20.888249 34.465998 20.888249 36.32376 C 20.888249 38.181521 22.281571 39.69427 24 39.687636 C 25.71843 39.69427 27.111751 38.181521 27.111751 36.32376 Z M 27.111751 36.32376 " transform="matrix(0.294373,0.294373,-0.294373,0.294373,7.434423,-5.564329)"/>
<path style="fill-rule:nonzero;fill:rgb(100%,33.333333%,33.333333%);fill-opacity:1;stroke-width:0.271515;stroke-linecap:butt;stroke-linejoin:miter;stroke:rgb(100%,100%,100%);stroke-opacity:1;stroke-miterlimit:4;" d="M 23.588639 20.274024 L 24.411362 20.274024 C 25.791414 20.274024 26.912706 20.771639 26.906071 21.375411 L 26.912706 31.91821 C 26.912706 32.515348 25.791414 33.012962 24.411362 33.012962 L 23.588639 33.012962 C 22.208587 33.012962 21.087295 32.515348 21.087295 31.91821 L 21.087295 21.368776 C 21.087295 20.771639 22.208587 20.274024 23.588639 20.274024 Z M 23.588639 20.274024 " transform="matrix(0.294373,0.294373,-0.294373,0.294373,7.434423,-5.564329)"/>
<path style=" stroke:none;fill-rule:nonzero;fill:rgb(100%,33.333333%,33.333333%);fill-opacity:1;" d="M 5.503906 10.496094 C 5.648438 10.640625 5.445312 11.078125 5.046875 11.476562 L 4.914062 11.613281 C 4.515625 12.007812 4.078125 12.210938 3.933594 12.066406 C 3.789062 11.921875 3.992188 11.484375 4.386719 11.085938 L 4.523438 10.953125 C 4.921875 10.554688 5.359375 10.351562 5.503906 10.496094 Z M 5.503906 10.496094 "/>
<path style=" stroke:none;fill-rule:nonzero;fill:rgb(20%,20%,20%);fill-opacity:1;" d="M 12.253906 3.804688 L 12.945312 4.5 C 12.964844 4.515625 12.964844 4.546875 12.945312 4.566406 L 12.917969 4.59375 C 12.902344 4.613281 12.871094 4.613281 12.851562 4.59375 L 12.15625 3.902344 C 12.136719 3.882812 12.136719 3.851562 12.15625 3.832031 L 12.183594 3.804688 C 12.203125 3.785156 12.234375 3.785156 12.253906 3.804688 Z M 12.253906 3.804688 "/>
<path style=" stroke:none;fill-rule:nonzero;fill:rgb(20%,20%,20%);fill-opacity:1;" d="M 11.925781 4.65625 L 12.367188 5.097656 C 12.382812 5.113281 12.375 5.136719 12.355469 5.15625 L 12.332031 5.183594 C 12.3125 5.203125 12.285156 5.207031 12.273438 5.195312 L 11.832031 4.75 C 11.820312 4.738281 11.824219 4.714844 11.84375 4.695312 L 11.867188 4.667969 C 11.886719 4.648438 11.914062 4.644531 11.925781 4.65625 Z M 11.925781 4.65625 "/>
<path style=" stroke:none;fill-rule:nonzero;fill:rgb(20%,20%,20%);fill-opacity:1;" d="M 11.074219 4.984375 L 11.769531 5.675781 C 11.789062 5.695312 11.789062 5.726562 11.769531 5.746094 L 11.742188 5.769531 C 11.722656 5.789062 11.691406 5.789062 11.671875 5.769531 L 10.980469 5.078125 C 10.960938 5.058594 10.960938 5.027344 10.980469 5.007812 L 11.007812 4.984375 C 11.023438 4.964844 11.054688 4.964844 11.074219 4.984375 Z M 11.074219 4.984375 "/>
<path style=" stroke:none;fill-rule:nonzero;fill:rgb(20%,20%,20%);fill-opacity:1;" d="M 10.75 5.835938 L 11.191406 6.277344 C 11.203125 6.289062 11.199219 6.316406 11.179688 6.335938 L 11.152344 6.359375 C 11.132812 6.378906 11.109375 6.382812 11.097656 6.371094 L 10.652344 5.929688 C 10.640625 5.917969 10.648438 5.890625 10.664062 5.871094 L 10.691406 5.847656 C 10.710938 5.828125 10.734375 5.820312 10.75 5.835938 Z M 10.75 5.835938 "/>
<path style=" stroke:none;fill-rule:nonzero;fill:rgb(20%,20%,20%);fill-opacity:1;" d="M 9.898438 6.160156 L 10.589844 6.851562 C 10.609375 6.871094 10.609375 6.902344 10.589844 6.921875 L 10.566406 6.949219 C 10.546875 6.96875 10.515625 6.96875 10.496094 6.949219 L 9.804688 6.257812 C 9.785156 6.238281 9.785156 6.207031 9.804688 6.1875 L 9.828125 6.160156 C 9.847656 6.140625 9.878906 6.140625 9.898438 6.160156 Z M 9.898438 6.160156 "/>
<path style=" stroke:none;fill-rule:nonzero;fill:rgb(20%,20%,20%);fill-opacity:1;" d="M 9.570312 7.011719 L 10.015625 7.453125 C 10.027344 7.46875 10.019531 7.492188 10 7.511719 L 9.976562 7.539062 C 9.957031 7.554688 9.929688 7.5625 9.917969 7.550781 L 9.476562 7.105469 C 9.464844 7.09375 9.46875 7.070312 9.488281 7.050781 L 9.515625 7.023438 C 9.53125 7.003906 9.558594 7 9.570312 7.011719 Z M 9.570312 7.011719 "/>
<path style=" stroke:none;fill-rule:nonzero;fill:rgb(20%,20%,20%);fill-opacity:1;" d="M 8.71875 7.339844 L 9.414062 8.03125 C 9.433594 8.050781 9.433594 8.082031 9.414062 8.101562 L 9.386719 8.125 C 9.367188 8.144531 9.335938 8.144531 9.316406 8.125 L 8.625 7.433594 C 8.605469 7.414062 8.605469 7.382812 8.625 7.363281 L 8.652344 7.339844 C 8.671875 7.320312 8.703125 7.320312 8.71875 7.339844 Z M 8.71875 7.339844 "/>
<path style=" stroke:none;fill-rule:nonzero;fill:rgb(20%,20%,20%);fill-opacity:1;" d="M 8.394531 8.1875 L 8.835938 8.632812 C 8.847656 8.644531 8.84375 8.667969 8.824219 8.6875 L 8.796875 8.714844 C 8.78125 8.734375 8.753906 8.738281 8.742188 8.726562 L 8.296875 8.285156 C 8.285156 8.273438 8.292969 8.246094 8.3125 8.226562 L 8.335938 8.203125 C 8.355469 8.183594 8.382812 8.175781 8.394531 8.1875 Z M 8.394531 8.1875 "/>
<path style=" stroke:none;fill-rule:nonzero;fill:rgb(20%,20%,20%);fill-opacity:1;" d="M 7.542969 8.515625 L 8.234375 9.207031 C 8.253906 9.226562 8.253906 9.257812 8.234375 9.277344 L 8.210938 9.304688 C 8.191406 9.324219 8.160156 9.324219 8.140625 9.304688 L 7.449219 8.609375 C 7.429688 8.589844 7.429688 8.558594 7.449219 8.542969 L 7.472656 8.515625 C 7.492188 8.496094 7.523438 8.496094 7.542969 8.515625 Z M 7.542969 8.515625 "/>
<path style=" stroke:none;fill-rule:nonzero;fill:rgb(20%,20%,20%);fill-opacity:1;" d="M 7.214844 9.367188 L 7.660156 9.808594 C 7.671875 9.820312 7.664062 9.847656 7.648438 9.867188 L 7.621094 9.890625 C 7.601562 9.910156 7.578125 9.917969 7.5625 9.90625 L 7.121094 9.460938 C 7.109375 9.449219 7.113281 9.421875 7.132812 9.40625 L 7.160156 9.378906 C 7.179688 9.359375 7.203125 9.355469 7.214844 9.367188 Z M 7.214844 9.367188 "/>
<path style=" stroke:none;fill-rule:nonzero;fill:rgb(20%,20%,20%);fill-opacity:1;" d="M 6.367188 9.695312 L 7.058594 10.386719 C 7.078125 10.40625 7.078125 10.4375 7.058594 10.457031 L 7.03125 10.480469 C 7.011719 10.5 6.980469 10.5 6.960938 10.480469 L 6.269531 9.789062 C 6.25 9.769531 6.25 9.738281 6.269531 9.71875 L 6.296875 9.695312 C 6.316406 9.675781 6.347656 9.675781 6.367188 9.695312 Z M 6.367188 9.695312 "/>
<path style=" stroke:none;fill-rule:nonzero;fill:rgb(20%,20%,20%);fill-opacity:1;" d="M 6.039062 10.542969 L 6.480469 10.988281 C 6.492188 11 6.488281 11.023438 6.46875 11.042969 L 6.445312 11.070312 C 6.425781 11.089844 6.398438 11.09375 6.386719 11.082031 L 5.945312 10.640625 C 5.929688 10.625 5.9375 10.601562 5.957031 10.582031 L 5.980469 10.554688 C 6 10.539062 6.027344 10.53125 6.039062 10.542969 Z M 6.039062 10.542969 "/>
</g>
</svg>
