
<svg xmlns="http://www.w3.org/2000/svg" xmlns:xlink="http://www.w3.org/1999/xlink" width="48px" height="48px" viewBox="0 0 48 48" version="1.1">
<g id="surface1">
<path style=" stroke:none;fill-rule:nonzero;fill:rgb(55.686275%,26.666667%,67.843137%);fill-opacity:1;" d="M 12.867188 2.59375 C 9.625 2.59375 7.015625 5.203125 7.015625 8.445312 L 7.015625 39.558594 C 7.015625 42.796875 9.625 45.40625 12.867188 45.40625 L 35.132812 45.40625 C 38.375 45.40625 40.984375 42.796875 40.984375 39.558594 L 40.984375 9.53125 L 24.839844 2.59375 Z M 35.734375 2.621094 C 36.125 2.660156 36.511719 2.738281 36.875 2.855469 C 36.511719 2.738281 36.125 2.660156 35.734375 2.621094 Z M 36.875 2.855469 C 37.425781 3.023438 37.941406 3.273438 38.40625 3.589844 C 37.941406 3.273438 37.425781 3.023438 36.875 2.855469 Z M 38.859375 3.925781 C 39.003906 4.042969 39.140625 4.171875 39.273438 4.304688 C 39.140625 4.171875 39.003906 4.042969 38.859375 3.921875 Z M 38.859375 3.925781 "/>
<path style=" stroke:none;fill-rule:nonzero;fill:rgb(100%,100%,100%);fill-opacity:0.682353;" d="M 40.984375 9.53125 L 24.839844 2.59375 L 24.839844 3.679688 C 24.839844 6.921875 27.449219 9.53125 30.691406 9.53125 Z M 40.984375 9.53125 "/>
<path style=" stroke:none;fill-rule:evenodd;fill:rgb(100%,100%,100%);fill-opacity:1;" d="M 34.433594 26.609375 C 34.433594 30.449219 29.761719 33.566406 24 33.566406 C 18.238281 33.566406 13.566406 30.449219 13.566406 26.609375 C 13.566406 22.765625 18.238281 19.652344 24 19.652344 C 29.761719 19.652344 34.433594 22.765625 34.433594 26.609375 Z M 34.433594 26.609375 "/>
<path style=" stroke:none;fill-rule:nonzero;fill:rgb(55.686275%,26.666667%,67.843137%);fill-opacity:1;" d="M 21.070312 24.03125 C 21.515625 24.03125 21.867188 24.183594 22.121094 24.492188 C 22.382812 24.792969 22.511719 25.21875 22.511719 25.765625 C 22.511719 26.304688 22.40625 26.824219 22.195312 27.328125 C 21.988281 27.824219 21.703125 28.222656 21.339844 28.515625 C 20.976562 28.808594 20.578125 28.953125 20.144531 28.953125 C 19.890625 28.953125 19.671875 28.902344 19.488281 28.796875 C 19.308594 28.691406 19.136719 28.511719 18.980469 28.261719 L 18.945312 28.261719 C 18.910156 28.710938 18.84375 29.128906 18.75 29.511719 L 18.417969 30.957031 L 17.042969 30.957031 L 18.605469 24.121094 L 19.660156 24.121094 L 19.582031 24.84375 L 19.621094 24.84375 C 20.042969 24.300781 20.527344 24.03125 21.070312 24.03125 M 20.519531 25.066406 C 20.3125 25.066406 20.109375 25.164062 19.914062 25.355469 C 19.722656 25.546875 19.566406 25.800781 19.449219 26.121094 C 19.332031 26.4375 19.273438 26.789062 19.273438 27.171875 C 19.273438 27.398438 19.332031 27.582031 19.445312 27.714844 C 19.554688 27.851562 19.710938 27.921875 19.910156 27.921875 C 20.113281 27.921875 20.308594 27.824219 20.496094 27.628906 C 20.679688 27.433594 20.832031 27.164062 20.945312 26.824219 C 21.058594 26.480469 21.117188 26.144531 21.117188 25.8125 C 21.117188 25.316406 20.917969 25.066406 20.519531 25.066406 "/>
<path style=" stroke:none;fill-rule:nonzero;fill:rgb(55.686275%,26.666667%,67.843137%);fill-opacity:1;" d="M 26.007812 28.867188 L 24.632812 28.867188 L 25.257812 26.09375 C 25.304688 25.902344 25.332031 25.734375 25.332031 25.589844 C 25.332031 25.242188 25.164062 25.066406 24.835938 25.066406 C 24.554688 25.066406 24.300781 25.230469 24.074219 25.550781 C 23.84375 25.875 23.664062 26.324219 23.535156 26.902344 L 23.085938 28.867188 L 21.710938 28.867188 L 23.21875 22.261719 L 24.59375 22.261719 C 24.476562 22.773438 24.382812 23.167969 24.320312 23.441406 C 24.257812 23.714844 24.125 24.152344 23.925781 24.753906 L 23.964844 24.753906 C 24.152344 24.535156 24.363281 24.359375 24.59375 24.230469 C 24.824219 24.097656 25.09375 24.03125 25.398438 24.03125 C 25.820312 24.03125 26.144531 24.148438 26.371094 24.386719 C 26.605469 24.625 26.71875 24.960938 26.71875 25.398438 C 26.71875 25.605469 26.683594 25.859375 26.613281 26.164062 L 26.007812 28.867188 "/>
<path style=" stroke:none;fill-rule:nonzero;fill:rgb(55.686275%,26.666667%,67.843137%);fill-opacity:1;" d="M 29.515625 24.03125 C 29.960938 24.03125 30.3125 24.183594 30.566406 24.492188 C 30.828125 24.792969 30.957031 25.21875 30.957031 25.765625 C 30.957031 26.304688 30.851562 26.824219 30.640625 27.328125 C 30.433594 27.824219 30.148438 28.222656 29.785156 28.515625 C 29.421875 28.808594 29.023438 28.953125 28.589844 28.953125 C 28.335938 28.953125 28.117188 28.902344 27.933594 28.796875 C 27.75 28.691406 27.582031 28.511719 27.425781 28.261719 L 27.390625 28.261719 C 27.355469 28.710938 27.289062 29.128906 27.195312 29.511719 L 26.867188 30.957031 L 25.488281 30.957031 L 27.054688 24.121094 L 28.105469 24.121094 L 28.027344 24.84375 L 28.066406 24.84375 C 28.488281 24.300781 28.972656 24.03125 29.515625 24.03125 M 28.964844 25.066406 C 28.757812 25.066406 28.554688 25.164062 28.359375 25.355469 C 28.167969 25.546875 28.011719 25.800781 27.894531 26.121094 C 27.777344 26.4375 27.71875 26.789062 27.71875 27.171875 C 27.71875 27.398438 27.777344 27.582031 27.890625 27.714844 C 28.003906 27.851562 28.15625 27.921875 28.355469 27.921875 C 28.558594 27.921875 28.753906 27.824219 28.941406 27.628906 C 29.125 27.433594 29.277344 27.164062 29.390625 26.824219 C 29.503906 26.484375 29.5625 26.144531 29.5625 25.8125 C 29.5625 25.316406 29.363281 25.066406 28.964844 25.066406 "/>
</g>
</svg>
