
<svg xmlns="http://www.w3.org/2000/svg" xmlns:xlink="http://www.w3.org/1999/xlink" width="48px" height="48px" viewBox="0 0 48 48" version="1.1">
<g id="surface1">
<path style=" stroke:none;fill-rule:nonzero;fill:rgb(55.686275%,26.666667%,67.843137%);fill-opacity:1;" d="M 12.867188 2.59375 C 9.625 2.59375 7.015625 5.203125 7.015625 8.445312 L 7.015625 39.558594 C 7.015625 42.796875 9.625 45.40625 12.867188 45.40625 L 35.132812 45.40625 C 38.375 45.40625 40.984375 42.796875 40.984375 39.558594 L 40.984375 9.53125 L 24.839844 2.59375 Z M 35.734375 2.621094 C 36.125 2.660156 36.511719 2.738281 36.875 2.855469 C 36.511719 2.738281 36.125 2.660156 35.734375 2.621094 Z M 36.875 2.855469 C 37.425781 3.023438 37.941406 3.273438 38.40625 3.589844 C 37.941406 3.273438 37.425781 3.023438 36.875 2.855469 Z M 38.859375 3.925781 C 39.003906 4.042969 39.140625 4.171875 39.273438 4.304688 C 39.140625 4.171875 39.003906 4.042969 38.859375 3.921875 Z M 38.859375 3.925781 "/>
<path style=" stroke:none;fill-rule:nonzero;fill:rgb(100%,100%,100%);fill-opacity:0.682353;" d="M 40.984375 9.53125 L 24.839844 2.59375 L 24.839844 3.679688 C 24.839844 6.921875 27.449219 9.53125 30.691406 9.53125 Z M 40.984375 9.53125 "/>
<path style=" stroke:none;fill-rule:nonzero;fill:rgb(100%,100%,100%);fill-opacity:1;" d="M 18.78125 18.78125 L 18.78125 27.476562 L 16.175781 27.476562 L 18.78125 31.824219 L 20.523438 31.824219 L 20.523438 20.523438 L 31.824219 20.523438 L 31.824219 18.78125 Z M 23.8125 21.625 L 22.03125 23.476562 L 25.144531 26.722656 L 22.03125 29.972656 L 23.8125 31.824219 L 26.925781 28.578125 L 30.035156 31.824219 L 31.816406 29.972656 L 28.703125 26.722656 L 31.816406 23.476562 L 30.035156 21.625 L 26.925781 24.871094 Z M 23.8125 21.625 "/>
</g>
</svg>
