
<svg xmlns="http://www.w3.org/2000/svg" xmlns:xlink="http://www.w3.org/1999/xlink" width="48px" height="48px" viewBox="0 0 48 48" version="1.1">
<g id="surface1">
<path style=" stroke:none;fill-rule:nonzero;fill:rgb(83.137255%,10.196078%,10.196078%);fill-opacity:1;" d="M 12.867188 2.59375 C 9.625 2.59375 7.015625 5.203125 7.015625 8.445312 L 7.015625 39.558594 C 7.015625 42.796875 9.625 45.40625 12.867188 45.40625 L 35.132812 45.40625 C 38.375 45.40625 40.984375 42.796875 40.984375 39.558594 L 40.984375 9.53125 L 24.839844 2.59375 Z M 35.734375 2.621094 C 36.125 2.660156 36.511719 2.738281 36.875 2.855469 C 36.511719 2.738281 36.125 2.660156 35.734375 2.621094 Z M 36.875 2.855469 C 37.425781 3.023438 37.941406 3.273438 38.40625 3.589844 C 37.941406 3.273438 37.425781 3.023438 36.875 2.855469 Z M 38.859375 3.925781 C 39.003906 4.042969 39.140625 4.171875 39.273438 4.304688 C 39.140625 4.171875 39.003906 4.042969 38.859375 3.921875 Z M 38.859375 3.925781 "/>
<path style=" stroke:none;fill-rule:nonzero;fill:rgb(100%,100%,100%);fill-opacity:0.682353;" d="M 40.984375 9.53125 L 24.839844 2.59375 L 24.839844 3.679688 C 24.839844 6.921875 27.449219 9.53125 30.691406 9.53125 Z M 40.984375 9.53125 "/>
<path style=" stroke:none;fill-rule:nonzero;fill:rgb(100%,100%,100%);fill-opacity:1;" d="M 30.957031 19.652344 L 30.957031 18.78125 L 17.042969 18.78125 L 17.042969 19.652344 L 16.175781 19.652344 L 16.175781 24 L 17.042969 24 L 17.042969 24.871094 L 30.957031 24.871094 L 30.957031 24 L 31.824219 24 L 31.824219 19.652344 Z M 17.042969 19.652344 L 25.738281 19.652344 L 25.738281 24 L 17.042969 24 Z M 27.476562 20.523438 L 30.085938 20.523438 L 30.085938 22.261719 L 29.21875 22.261719 L 29.21875 23.128906 L 28.347656 23.128906 L 28.347656 22.261719 L 27.476562 22.261719 Z M 27.476562 20.523438 "/>
<path style=" stroke:none;fill-rule:nonzero;fill:rgb(100%,100%,100%);fill-opacity:1;" d="M 17.042969 27.476562 L 17.042969 28.347656 L 16.175781 28.347656 L 16.175781 33.566406 L 17.042969 33.566406 L 17.042969 34.433594 L 22.261719 34.433594 L 22.261719 33.566406 L 23.128906 33.566406 L 23.128906 28.347656 L 22.261719 28.347656 L 22.261719 27.476562 Z M 21.390625 29.21875 L 22.261719 29.21875 L 22.261719 30.085938 L 21.390625 30.054688 L 21.390625 30.957031 L 20.523438 30.957031 L 20.523438 31.824219 L 19.652344 31.824219 L 19.652344 32.695312 L 18.78125 32.695312 L 18.78125 31.824219 L 17.914062 31.824219 L 17.914062 30.957031 L 18.78125 30.957031 L 18.78125 31.824219 L 19.652344 31.824219 L 19.652344 30.957031 L 20.523438 30.957031 L 20.523438 30.085938 L 21.390625 30.085938 Z M 21.390625 29.21875 "/>
<path style=" stroke:none;fill-rule:nonzero;fill:rgb(100%,100%,100%);fill-opacity:1;" d="M 26.59375 27.476562 L 26.59375 28.347656 L 30.074219 28.347656 L 30.074219 27.476562 Z M 30.074219 28.347656 L 30.074219 29.21875 L 30.941406 29.21875 L 30.941406 28.347656 Z M 30.941406 29.21875 L 30.941406 32.695312 L 31.8125 32.695312 L 31.8125 29.21875 Z M 30.941406 32.695312 L 30.074219 32.695312 L 30.074219 33.566406 L 30.941406 33.566406 Z M 30.074219 33.566406 L 26.59375 33.566406 L 26.59375 34.433594 L 30.074219 34.433594 Z M 26.59375 33.566406 L 26.59375 32.695312 L 25.726562 32.695312 L 25.726562 33.566406 Z M 25.726562 32.695312 L 25.726562 29.21875 L 24.855469 29.21875 L 24.855469 32.695312 Z M 25.726562 29.21875 L 26.59375 29.21875 L 26.59375 28.347656 L 25.726562 28.347656 Z M 25.726562 29.21875 "/>
<path style=" stroke:none;fill-rule:nonzero;fill:rgb(100%,100%,100%);fill-opacity:1;" d="M 27.464844 31.824219 L 26.59375 31.824219 L 26.59375 30.085938 L 27.464844 30.085938 L 27.464844 29.21875 L 29.203125 29.21875 L 29.203125 30.085938 L 30.074219 30.085938 L 30.074219 31.824219 L 29.203125 31.824219 L 29.203125 32.695312 L 27.464844 32.695312 Z M 27.464844 31.824219 "/>
</g>
</svg>
