
<svg xmlns="http://www.w3.org/2000/svg" xmlns:xlink="http://www.w3.org/1999/xlink" width="48px" height="48px" viewBox="0 0 48 48" version="1.1">
<g id="surface1">
<path style=" stroke:none;fill-rule:nonzero;fill:rgb(83.137255%,10.196078%,10.196078%);fill-opacity:1;" d="M 12.867188 2.59375 C 9.625 2.59375 7.015625 5.203125 7.015625 8.445312 L 7.015625 39.558594 C 7.015625 42.796875 9.625 45.40625 12.867188 45.40625 L 35.132812 45.40625 C 38.375 45.40625 40.984375 42.796875 40.984375 39.558594 L 40.984375 9.53125 L 24.839844 2.59375 Z M 35.734375 2.621094 C 36.125 2.660156 36.511719 2.738281 36.875 2.855469 C 36.511719 2.738281 36.125 2.660156 35.734375 2.621094 Z M 36.875 2.855469 C 37.425781 3.023438 37.941406 3.273438 38.40625 3.589844 C 37.941406 3.273438 37.425781 3.023438 36.875 2.855469 Z M 38.859375 3.925781 C 39.003906 4.042969 39.140625 4.171875 39.273438 4.304688 C 39.140625 4.171875 39.003906 4.042969 38.859375 3.921875 Z M 38.859375 3.925781 "/>
<path style=" stroke:none;fill-rule:nonzero;fill:rgb(100%,100%,100%);fill-opacity:0.682353;" d="M 40.984375 9.53125 L 24.839844 2.59375 L 24.839844 3.679688 C 24.839844 6.921875 27.449219 9.53125 30.691406 9.53125 Z M 40.984375 9.53125 "/>
<path style=" stroke:none;fill-rule:nonzero;fill:rgb(100%,100%,100%);fill-opacity:1;" d="M 17.914062 18.78125 L 15.304688 21.390625 L 15.304688 25.738281 L 24 34.433594 L 32.695312 25.738281 L 32.695312 21.390625 L 30.085938 18.78125 Z M 20.523438 19.652344 L 20.523438 25.738281 L 24 33.566406 L 19.652344 25.738281 L 19.652344 21.390625 Z M 20.523438 19.652344 "/>
<path style=" stroke:none;fill-rule:evenodd;fill:rgb(83.137255%,10.196078%,10.196078%);fill-opacity:1;" d="M 24 33.5625 L 21.742188 25.902344 L 21.742188 21.308594 L 22.464844 19.632812 L 22.464844 25.769531 Z M 24 33.5625 "/>
</g>
</svg>
