
<svg xmlns="http://www.w3.org/2000/svg" xmlns:xlink="http://www.w3.org/1999/xlink" width="22px" height="22px" viewBox="0 0 22 22" version="1.1">
<g id="surface1">
<path style=" stroke:none;fill-rule:nonzero;fill:rgb(0%,0%,0%);fill-opacity:0.301961;" d="M 7.667969 3 C 5.824219 3 4.332031 4.511719 4.332031 6.375 L 4.332031 12.011719 C 4.332031 13.875 5.824219 15.386719 7.667969 15.386719 C 9.507812 15.386719 11 13.875 11 12.011719 L 11 6.375 C 11 4.511719 9.507812 3 7.667969 3 Z M 7.667969 3 "/>
<path style=" stroke:none;fill-rule:nonzero;fill:rgb(0%,0%,0%);fill-opacity:0.301961;" d="M 1 12 C 1 15.347656 3.398438 18.113281 6.554688 18.644531 L 6.554688 19.875 L 5.445312 19.875 L 5.445312 21 L 9.890625 21 L 9.890625 19.875 L 8.777344 19.875 L 8.777344 18.644531 C 11.933594 18.113281 14.332031 15.347656 14.332031 12 L 12.109375 12 C 12.109375 14.484375 10.121094 16.5 7.667969 16.5 C 5.210938 16.5 3.222656 14.484375 3.222656 12 Z M 1 12 "/>
<path style=" stroke:none;fill-rule:nonzero;fill:rgb(0%,0%,0%);fill-opacity:0.121569;" d="M 21 5.25 C 21 6.492188 20.003906 7.5 18.777344 7.5 C 17.550781 7.5 16.554688 6.492188 16.554688 5.25 C 16.554688 4.007812 17.550781 3 18.777344 3 C 20.003906 3 21 4.007812 21 5.25 Z M 21 5.25 "/>
<path style=" stroke:none;fill-rule:nonzero;fill:rgb(0%,0%,0%);fill-opacity:0.121569;" d="M 21 12 C 21 13.242188 20.003906 14.25 18.777344 14.25 C 17.550781 14.25 16.554688 13.242188 16.554688 12 C 16.554688 10.757812 17.550781 9.75 18.777344 9.75 C 20.003906 9.75 21 10.757812 21 12 Z M 21 12 "/>
<path style=" stroke:none;fill-rule:nonzero;fill:rgb(0%,0%,0%);fill-opacity:0.121569;" d="M 21 18.75 C 21 19.992188 20.003906 21 18.777344 21 C 17.550781 21 16.554688 19.992188 16.554688 18.75 C 16.554688 17.507812 17.550781 16.5 18.777344 16.5 C 20.003906 16.5 21 17.507812 21 18.75 Z M 21 18.75 "/>
<path style=" stroke:none;fill-rule:nonzero;fill:#4D4D4D;fill-opacity:1;" d="M 7.667969 2 C 5.824219 2 4.332031 3.511719 4.332031 5.375 L 4.332031 11.011719 C 4.332031 12.875 5.824219 14.386719 7.667969 14.386719 C 9.507812 14.386719 11 12.875 11 11.011719 L 11 5.375 C 11 3.511719 9.507812 2 7.667969 2 Z M 7.667969 2 "/>
<path style=" stroke:none;fill-rule:nonzero;fill:#4D4D4D;fill-opacity:1;" d="M 1 11 C 1 14.347656 3.398438 17.113281 6.554688 17.644531 L 6.554688 18.875 L 5.445312 18.875 L 5.445312 20 L 9.890625 20 L 9.890625 18.875 L 8.777344 18.875 L 8.777344 17.644531 C 11.933594 17.113281 14.332031 14.347656 14.332031 11 L 12.109375 11 C 12.109375 13.484375 10.121094 15.5 7.667969 15.5 C 5.210938 15.5 3.222656 13.484375 3.222656 11 Z M 1 11 "/>
<path style=" stroke:none;fill-rule:nonzero;fill:#4D4D4D;fill-opacity:0.4;" d="M 21 4.25 C 21 5.492188 20.003906 6.5 18.777344 6.5 C 17.550781 6.5 16.554688 5.492188 16.554688 4.25 C 16.554688 3.007812 17.550781 2 18.777344 2 C 20.003906 2 21 3.007812 21 4.25 Z M 21 4.25 "/>
<path style=" stroke:none;fill-rule:nonzero;fill:#4D4D4D;fill-opacity:0.4;" d="M 21 11 C 21 12.242188 20.003906 13.25 18.777344 13.25 C 17.550781 13.25 16.554688 12.242188 16.554688 11 C 16.554688 9.757812 17.550781 8.75 18.777344 8.75 C 20.003906 8.75 21 9.757812 21 11 Z M 21 11 "/>
<path style=" stroke:none;fill-rule:nonzero;fill:#4D4D4D;fill-opacity:0.4;" d="M 21 17.75 C 21 18.992188 20.003906 20 18.777344 20 C 17.550781 20 16.554688 18.992188 16.554688 17.75 C 16.554688 16.507812 17.550781 15.5 18.777344 15.5 C 20.003906 15.5 21 16.507812 21 17.75 Z M 21 17.75 "/>
</g>
</svg>
