
<svg xmlns="http://www.w3.org/2000/svg" xmlns:xlink="http://www.w3.org/1999/xlink" width="22px" height="22px" viewBox="0 0 22 22" version="1.1">
<defs>
<filter id="alpha" filterUnits="objectBoundingBox" x="0%" y="0%" width="100%" height="100%">
  <feColorMatrix type="matrix" in="SourceGraphic" values="0 0 0 0 1 0 0 0 0 1 0 0 0 0 1 0 0 0 1 0"/>
</filter>
<mask id="mask0">
  <g filter="url(#alpha)">
<rect x="0" y="0" width="22" height="22" style="fill:rgb(0%,0%,0%);fill-opacity:0.301961;stroke:none;"/>
  </g>
</mask>
<clipPath id="clip1">
  <rect width="22" height="22"/>
</clipPath>
<g id="surface6" clip-path="url(#clip1)">
<path style=" stroke:none;fill-rule:nonzero;fill:rgb(0%,0%,0%);fill-opacity:1;" d="M 6 6 L 3 9 L 3 15 L 6 18 L 6 14 L 8 12 L 6 10 Z M 6 6 "/>
<path style=" stroke:none;fill-rule:nonzero;fill:rgb(0%,0%,0%);fill-opacity:1;" d="M 1 9 C 0.476562 9 0 9.5 0 10 L 0 14 C 0 14.578125 0.433594 15 1 15 L 4.996094 15 L 4.996094 9 Z M 1 9 "/>
</g>
</defs>
<g id="surface1">
<use xlink:href="#surface6" mask="url(#mask0)"/>
<path style=" stroke:none;fill-rule:nonzero;fill:#4D4D4D;fill-opacity:1;" d="M 6 5 L 3 8 L 3 14 L 6 17 L 6 13 L 8 11 L 6 9 Z M 6 5 "/>
<path style=" stroke:none;fill-rule:nonzero;fill:#4D4D4D;fill-opacity:1;" d="M 1 8 C 0.476562 8 0 8.5 0 9 L 0 13 C 0 13.578125 0.433594 14 1 14 L 4.996094 14 L 4.996094 8 Z M 1 8 "/>
<path style=" stroke:none;fill-rule:nonzero;fill:rgb(0%,0%,0%);fill-opacity:0.301961;" d="M 8.253906 11 L 11.746094 11 C 11.886719 11 12 11.09375 12 11.210938 L 12 12.789062 C 12 12.90625 11.886719 13 11.746094 13 L 8.253906 13 C 8.113281 13 8 12.90625 8 12.789062 L 8 11.210938 C 8 11.09375 8.113281 11 8.253906 11 Z M 8.253906 11 "/>
<path style=" stroke:none;fill-rule:nonzero;fill:#4D4D4D;fill-opacity:1;" d="M 8.253906 10 L 11.746094 10 C 11.886719 10 12 10.09375 12 10.210938 L 12 11.789062 C 12 11.90625 11.886719 12 11.746094 12 L 8.253906 12 C 8.113281 12 8 11.90625 8 11.789062 L 8 10.210938 C 8 10.09375 8.113281 10 8.253906 10 Z M 8.253906 10 "/>
<path style=" stroke:none;fill-rule:nonzero;fill:rgb(0%,0%,0%);fill-opacity:0.301961;" d="M 13.253906 11 L 16.746094 11 C 16.886719 11 17 11.09375 17 11.210938 L 17 12.789062 C 17 12.90625 16.886719 13 16.746094 13 L 13.253906 13 C 13.113281 13 13 12.90625 13 12.789062 L 13 11.210938 C 13 11.09375 13.113281 11 13.253906 11 Z M 13.253906 11 "/>
<path style=" stroke:none;fill-rule:nonzero;fill:#4D4D4D;fill-opacity:1;" d="M 13.253906 10 L 16.746094 10 C 16.886719 10 17 10.09375 17 10.210938 L 17 11.789062 C 17 11.90625 16.886719 12 16.746094 12 L 13.253906 12 C 13.113281 12 13 11.90625 13 11.789062 L 13 10.210938 C 13 10.09375 13.113281 10 13.253906 10 Z M 13.253906 10 "/>
<path style=" stroke:none;fill-rule:nonzero;fill:rgb(0%,0%,0%);fill-opacity:0.301961;" d="M 18.253906 11 L 21.746094 11 C 21.886719 11 22 11.09375 22 11.210938 L 22 12.789062 C 22 12.90625 21.886719 13 21.746094 13 L 18.253906 13 C 18.113281 13 18 12.90625 18 12.789062 L 18 11.210938 C 18 11.09375 18.113281 11 18.253906 11 Z M 18.253906 11 "/>
<path style=" stroke:none;fill-rule:nonzero;fill:#4D4D4D;fill-opacity:1;" d="M 18.253906 10 L 21.746094 10 C 21.886719 10 22 10.09375 22 10.210938 L 22 11.789062 C 22 11.90625 21.886719 12 21.746094 12 L 18.253906 12 C 18.113281 12 18 11.90625 18 11.789062 L 18 10.210938 C 18 10.09375 18.113281 10 18.253906 10 Z M 18.253906 10 "/>
</g>
</svg>
