
<svg xmlns="http://www.w3.org/2000/svg" xmlns:xlink="http://www.w3.org/1999/xlink" width="22px" height="22px" viewBox="0 0 22 22" version="1.1">
<g id="surface1">
<path style=" stroke:none;fill-rule:nonzero;fill:rgb(0%,0%,0%);fill-opacity:0.301961;" d="M 11 4 C 6 4 4.601562 5.144531 2 7.125 L 11 20 L 20 7.125 C 17.398438 5.144531 16 4 11 4 Z M 11 5 C 14.484375 5 16.210938 5.601562 18.625 7.4375 L 11 18.3125 L 3.375 7.4375 C 5.789062 5.601562 7.515625 5 11 5 Z M 11 5 "/>
<path style=" stroke:none;fill-rule:nonzero;fill:rgb(87.45098%,21.960784%,17.254902%);fill-opacity:1;" d="M 11 3 C 7 3 4.601562 4.144531 2 6.125 L 11 19 L 20 6.125 C 17.398438 4.144531 15 3 11 3 Z M 11 4 C 14.484375 4 16.210938 4.601562 18.625 6.4375 L 11 17.3125 L 3.375 6.4375 C 5.789062 4.601562 7.515625 4 11 4 Z M 11 4 "/>
</g>
</svg>
