
<svg xmlns="http://www.w3.org/2000/svg" xmlns:xlink="http://www.w3.org/1999/xlink" width="22px" height="22px" viewBox="0 0 22 22" version="1.1">
<g id="surface1">
<path style=" stroke:none;fill-rule:evenodd;fill:rgb(0%,0%,0%);fill-opacity:0.301961;" d="M 10.449219 5 C 5.894531 5 2.199219 8.359375 2.199219 12.5 C 2.199219 16.640625 5.894531 20 10.449219 20 C 12.609375 20 14.582031 19.238281 16.054688 18 L 22 18 L 18.320312 14.65625 C 18.550781 13.96875 18.699219 13.253906 18.699219 12.5 C 18.699219 8.359375 15.003906 5 10.449219 5 Z M 10.449219 5 "/>
<path style=" stroke:none;fill-rule:evenodd;fill:rgb(9.803922%,71.372549%,93.333333%);fill-opacity:1;" d="M 10.449219 4 C 5.894531 4 2.199219 7.359375 2.199219 11.5 C 2.199219 15.640625 5.894531 19 10.449219 19 C 12.609375 19 14.582031 18.238281 16.054688 17 L 22 17 L 18.320312 13.65625 C 18.550781 12.96875 18.699219 12.253906 18.699219 11.5 C 18.699219 7.359375 15.003906 4 10.449219 4 Z M 10.449219 4 "/>
</g>
</svg>
