
<svg xmlns="http://www.w3.org/2000/svg" xmlns:xlink="http://www.w3.org/1999/xlink" width="256px" height="256px" viewBox="0 0 256 256" version="1.1">
<g id="surface1">
<path style="fill-rule:nonzero;fill:rgb(80%,80%,80%);fill-opacity:1;stroke-width:1;stroke-linecap:butt;stroke-linejoin:miter;stroke:rgb(23.137255%,20.392157%,20.392157%);stroke-opacity:1;stroke-miterlimit:4;" d="M 309.890625 42.4375 C 287.164062 42.4375 268.445312 63.34375 264.726562 90.976562 L 444.59375 90.976562 C 440.875 63.34375 422.171875 42.4375 399.453125 42.4375 Z M 309.890625 42.4375 " transform="matrix(0.5,0,0,0.5,0,0)"/>
<path style=" stroke:none;fill-rule:nonzero;fill:#A9A9A9;fill-opacity:1;" d="M 32.96875 49.378906 L 223.03125 49.378906 C 238.0625 49.378906 250.25 61.59375 250.25 76.664062 L 250.25 172.414062 C 250.25 187.484375 238.0625 199.703125 223.03125 199.703125 L 32.96875 199.703125 C 17.9375 199.703125 5.75 187.484375 5.75 172.414062 L 5.75 76.664062 C 5.75 61.59375 17.9375 49.378906 32.96875 49.378906 Z M 32.96875 49.378906 "/>
<path style=" stroke:none;fill-rule:nonzero;fill:#A9A9A9;fill-opacity:1;" d="M 32.96875 84.453125 L 223.03125 84.453125 C 238.0625 84.453125 250.25 96.671875 250.25 111.742188 L 250.25 207.492188 C 250.25 222.5625 238.0625 234.78125 223.03125 234.78125 L 32.96875 234.78125 C 17.9375 234.78125 5.75 222.5625 5.75 207.492188 L 5.75 111.742188 C 5.75 96.671875 17.9375 84.453125 32.96875 84.453125 Z M 32.96875 84.453125 "/>
<path style=" stroke:none;fill-rule:nonzero;fill:rgb(100%,100%,100%);fill-opacity:1;" d="M 130.195312 88.375 C 116.234375 88.375 102.355469 94.125 92.488281 104 C 82.625 113.875 76.882812 127.746094 76.882812 141.707031 C 76.882812 155.671875 82.625 169.542969 92.488281 179.414062 C 102.355469 189.289062 116.234375 195.039062 130.195312 195.039062 C 144.160156 195.039062 158.039062 189.289062 167.914062 179.414062 C 177.796875 169.542969 183.550781 155.671875 183.550781 141.707031 C 183.550781 127.742188 177.796875 113.875 167.914062 104 C 158.039062 94.125 144.160156 88.375 130.195312 88.375 Z M 130.195312 99.039062 C 152.539062 99.039062 172.882812 119.367188 172.882812 141.707031 C 172.882812 164.046875 152.539062 184.375 130.195312 184.375 C 107.855469 184.375 87.550781 164.046875 87.550781 141.707031 C 87.550781 119.367188 107.855469 99.042969 130.195312 99.039062 Z M 119.550781 109.707031 L 119.550781 136.375 L 98.21875 136.375 L 130.21875 173.707031 L 162.21875 136.375 L 140.882812 136.375 L 140.882812 109.707031 Z M 119.550781 109.707031 "/>
</g>
</svg>
