
<svg xmlns="http://www.w3.org/2000/svg" xmlns:xlink="http://www.w3.org/1999/xlink" width="16px" height="16px" viewBox="0 0 16 16" version="1.1">
<g id="surface1">
<path style=" stroke:none;fill-rule:nonzero;fill:#4D4D4D;fill-opacity:1;" d="M 8 8.726562 L 13.816406 8.726562 L 13.816406 9.453125 L 8 9.453125 Z M 8 8.726562 "/>
<path style=" stroke:none;fill-rule:nonzero;fill:#4D4D4D;fill-opacity:1;" d="M 8 10.183594 L 13.816406 10.183594 L 13.816406 10.910156 L 8 10.910156 Z M 8 10.183594 "/>
<path style=" stroke:none;fill-rule:nonzero;fill:#4D4D4D;fill-opacity:1;" d="M 8.726562 7.273438 L 13.816406 7.273438 L 13.816406 8 L 8.726562 8 Z M 8.726562 7.273438 "/>
<path style=" stroke:none;fill-rule:nonzero;fill:rgb(0%,0%,0%);fill-opacity:0.301961;" d="M 5.816406 5.089844 L 7.636719 6.910156 L 9.453125 5.089844 Z M 5.816406 5.089844 "/>
<path style=" stroke:none;fill-rule:nonzero;fill:#4D4D4D;fill-opacity:1;" d="M 5.816406 5.816406 L 7.636719 7.636719 L 9.453125 5.816406 Z M 5.816406 5.816406 "/>
<path style=" stroke:none;fill-rule:nonzero;fill:rgb(0%,0%,0%);fill-opacity:0.301961;" d="M 10.183594 5.089844 L 13.816406 5.089844 L 13.816406 5.816406 L 10.183594 5.816406 Z M 10.183594 5.089844 "/>
<path style=" stroke:none;fill-rule:nonzero;fill:#4D4D4D;fill-opacity:1;" d="M 10.183594 5.816406 L 13.816406 5.816406 L 13.816406 6.546875 L 10.183594 6.546875 Z M 10.183594 5.816406 "/>
<path style=" stroke:none;fill-rule:nonzero;fill:rgb(0%,0%,0%);fill-opacity:0.301961;" d="M 9.453125 6.546875 L 10.910156 6.546875 L 10.910156 7.273438 L 9.453125 7.273438 Z M 9.453125 6.546875 "/>
</g>
</svg>
