<?xml version="1.0" encoding="UTF-8"?>
<svg xmlns="http://www.w3.org/2000/svg" xmlns:xlink="http://www.w3.org/1999/xlink" width="16pt" height="16pt" viewBox="0 0 16 16" version="1.1">
<g id="surface1">
<path style=" stroke:none;fill-rule:evenodd;fill:rgb(100%,0%,0%);fill-opacity:1;" d="M 7.976562 13.699219 C 10.890625 13.433594 12.777344 16.28125 13.804688 11.910156 C 14.832031 7.539062 13.605469 8.601562 13.273438 6.414062 C 12.945312 4.230469 14.765625 2.210938 12.28125 2.707031 C 9.800781 3.203125 8.707031 0.820312 7.019531 2.175781 C 5.328125 3.535156 3.441406 6.8125 2.746094 6.28125 C 2.050781 5.753906 0.695312 7.472656 1.917969 8.929688 C 3.144531 10.386719 1.753906 12.574219 3.078125 13.464844 C 4.402344 14.359375 5.164062 13.699219 6.421875 14.03125 C 7.679688 14.359375 7.976562 13.699219 7.976562 13.699219 Z M 7.976562 13.699219 "/>
<path style="fill-rule:nonzero;fill:rgb(100%,33.333333%,33.333333%);fill-opacity:1;stroke-width:1;stroke-linecap:butt;stroke-linejoin:miter;stroke:rgb(100%,100%,100%);stroke-opacity:1;stroke-miterlimit:4;" d="M 46.752956 29.992698 C 46.752956 39.243443 39.253566 46.742833 30.002822 46.742833 C 20.752078 46.742833 13.252688 39.243443 13.252688 29.992698 C 13.252688 20.756923 20.752078 13.257533 30.002822 13.257533 C 39.253566 13.257533 46.752956 20.756923 46.752956 29.992698 Z M 46.752956 29.992698 " transform="matrix(0.260959,0,0,0.260959,0.186127,0.92705)"/>
<path style="fill-rule:nonzero;fill:rgb(80%,80%,80%);fill-opacity:1;stroke-width:0.662636;stroke-linecap:butt;stroke-linejoin:miter;stroke:rgb(0%,0%,0%);stroke-opacity:1;stroke-miterlimit:4;" d="M 13.598633 6.020508 L 9.980469 9.638672 L 6.367188 6.020508 L 4.858398 7.529297 L 8.476562 11.147461 L 4.858398 14.760742 L 6.367188 16.269531 L 9.980469 12.651367 L 13.598633 16.269531 L 15.102539 14.760742 L 11.489258 11.147461 L 15.107422 7.529297 Z M 13.598633 6.020508 " transform="matrix(0.8,0,0,0.8,0,0)"/>
</g>
</svg>
