
<svg xmlns="http://www.w3.org/2000/svg" xmlns:xlink="http://www.w3.org/1999/xlink" width="16px" height="16px" viewBox="0 0 16 16" version="1.1">
<g id="surface1">
<path style="fill:none;stroke-width:1.5;stroke-linecap:round;stroke-linejoin:miter;stroke:rgb(0%,0%,0%);stroke-opacity:0.301961;stroke-miterlimit:4;" d="M 2.5 13 C 4 11.5 6 11.5 8 13 C 10.066406 14.550781 12 14.5 13.5 13 M 2.5 9 C 4 7.5 6 7.5 8 9 C 10.066406 10.550781 12 10.5 13.5 9 M 2.5 5 C 4 3.5 6 3.5 8 5 C 10.066406 6.550781 12 6.5 13.5 5 "/>
<path style="fill:none;stroke-width:1.5;stroke-linecap:round;stroke-linejoin:miter;stroke:rgb(87.45098%,85.882353%,82.352941%);stroke-opacity:1;stroke-miterlimit:4;" d="M 2.5 12 C 4 10.5 6 10.5 8 12 C 10.066406 13.550781 12 13.5 13.5 12 M 2.5 8 C 4 6.5 6 6.5 8 8 C 10.066406 9.550781 12 9.5 13.5 8 M 2.5 4 C 4 2.5 6 2.5 8 4 C 10.066406 5.550781 12 5.5 13.5 4 "/>
</g>
</svg>
