<?xml version="1.0" encoding="UTF-8"?>
<svg xmlns="http://www.w3.org/2000/svg" xmlns:xlink="http://www.w3.org/1999/xlink" width="32pt" height="32pt" viewBox="0 0 32 32" version="1.1">
<g id="surface1">
<path style=" stroke:none;fill-rule:nonzero;fill:rgb(30.196078%,30.196078%,30.196078%);fill-opacity:1;" d="M 4.363281 8.773438 L 4.382812 9.824219 L 7.449219 10.222656 C 8.289062 10.953125 12.960938 16.363281 13.675781 17.753906 L 13.75 21.625 C 13.292969 22.230469 10.496094 22.105469 10.496094 22.105469 L 10.257812 23.226562 C 10.257812 23.226562 20.726562 23.011719 20.78125 23.136719 C 20.753906 22.996094 20.800781 22.085938 20.800781 22.085938 L 17.402344 21.996094 C 17.402344 21.996094 17.183594 19.234375 17.347656 17.625 C 19.578125 15.160156 23.554688 12.375 23.554688 12.375 L 26.253906 11.914062 L 26.878906 10.832031 L 17.679688 10.777344 L 17.917969 11.898438 C 17.917969 11.898438 20.433594 12.101562 20.707031 12.320312 C 20.671875 12.867188 16.355469 16.324219 16.355469 16.324219 L 11.636719 9.96875 L 14.941406 9.710938 L 15.089844 8.921875 Z M 25.207031 15.289062 L 25.230469 21.203125 L 26.238281 21.335938 L 27.636719 15.617188 Z M 25.011719 21.855469 L 24.851562 23.023438 L 26.082031 23.226562 L 26.265625 21.992188 Z M 25.011719 21.855469 "/>
</g>
</svg>
