<?xml version="1.0" encoding="UTF-8"?>
<svg xmlns="http://www.w3.org/2000/svg" xmlns:xlink="http://www.w3.org/1999/xlink" width="32pt" height="32pt" viewBox="0 0 32 32" version="1.1">
<g id="surface1">
<path style=" stroke:none;fill-rule:evenodd;fill:rgb(30.196078%,30.196078%,30.196078%);fill-opacity:1;" d="M 22.546875 5.816406 C 21.339844 5.816406 20.363281 6.796875 20.363281 8 L 20.363281 10.183594 L 18.910156 10.183594 L 18.910156 13.089844 L 17.453125 13.089844 L 17.453125 27.636719 L 27.636719 27.636719 L 27.636719 13.089844 L 26.183594 13.089844 L 26.183594 10.183594 L 24.726562 10.183594 L 24.726562 8 C 24.726562 6.796875 23.75 5.816406 22.546875 5.816406 Z M 22.546875 5.816406 "/>
<path style=" stroke:none;fill-rule:nonzero;fill:rgb(30.196078%,30.196078%,30.196078%);fill-opacity:1;" d="M 13.089844 5.816406 C 13.089844 6.621094 12.441406 7.273438 11.636719 7.273438 C 10.832031 7.273438 10.183594 6.621094 10.183594 5.816406 C 10.183594 5.015625 10.832031 4.363281 11.636719 4.363281 C 12.441406 4.363281 13.089844 5.015625 13.089844 5.816406 Z M 13.089844 5.816406 "/>
<path style=" stroke:none;fill-rule:nonzero;fill:rgb(30.196078%,30.196078%,30.196078%);fill-opacity:1;" d="M 13.089844 10.183594 C 13.089844 10.984375 12.441406 11.636719 11.636719 11.636719 C 10.832031 11.636719 10.183594 10.984375 10.183594 10.183594 C 10.183594 9.378906 10.832031 8.726562 11.636719 8.726562 C 12.441406 8.726562 13.089844 9.378906 13.089844 10.183594 Z M 13.089844 10.183594 "/>
<path style=" stroke:none;fill-rule:nonzero;fill:rgb(30.196078%,30.196078%,30.196078%);fill-opacity:1;" d="M 18.910156 7.273438 C 18.910156 8.074219 18.257812 8.726562 17.453125 8.726562 C 16.652344 8.726562 16 8.074219 16 7.273438 C 16 6.46875 16.652344 5.816406 17.453125 5.816406 C 18.257812 5.816406 18.910156 6.46875 18.910156 7.273438 Z M 18.910156 7.273438 "/>
<path style=" stroke:none;fill-rule:nonzero;fill:rgb(30.196078%,30.196078%,30.196078%);fill-opacity:1;" d="M 7.273438 5.816406 C 7.273438 5.015625 6.621094 4.363281 5.816406 4.363281 C 5.015625 4.363281 4.363281 5.015625 4.363281 5.816406 C 4.363281 6.621094 5.015625 7.273438 5.816406 7.273438 C 6.621094 7.273438 7.273438 6.621094 7.273438 5.816406 Z M 7.273438 5.816406 "/>
<path style=" stroke:none;fill-rule:nonzero;fill:rgb(30.196078%,30.196078%,30.196078%);fill-opacity:1;" d="M 7.273438 10.183594 C 7.273438 9.378906 6.621094 8.726562 5.816406 8.726562 C 5.015625 8.726562 4.363281 9.378906 4.363281 10.183594 C 4.363281 10.984375 5.015625 11.636719 5.816406 11.636719 C 6.621094 11.636719 7.273438 10.984375 7.273438 10.183594 Z M 7.273438 10.183594 "/>
<path style=" stroke:none;fill-rule:nonzero;fill:rgb(30.196078%,30.196078%,30.196078%);fill-opacity:1;" d="M 7.273438 14.546875 C 7.273438 13.742188 6.621094 13.089844 5.816406 13.089844 C 5.015625 13.089844 4.363281 13.742188 4.363281 14.546875 C 4.363281 15.347656 5.015625 16 5.816406 16 C 6.621094 16 7.273438 15.347656 7.273438 14.546875 Z M 7.273438 14.546875 "/>
</g>
</svg>
