<?xml version="1.0" encoding="UTF-8"?>
<svg xmlns="http://www.w3.org/2000/svg" xmlns:xlink="http://www.w3.org/1999/xlink" width="32pt" height="32pt" viewBox="0 0 32 32" version="1.1">
<g id="surface1">
<path style=" stroke:none;fill-rule:nonzero;fill:rgb(30.196078%,30.196078%,30.196078%);fill-opacity:1;" d="M 26.996094 6.421875 C 28.703125 8.128906 28.703125 10.882812 26.996094 12.589844 L 25.96875 13.621094 L 13.660156 25.925781 C 11.378906 28.207031 7.710938 28.207031 5.433594 25.925781 C 3.152344 23.648438 3.152344 19.976562 5.433594 17.699219 L 18.765625 4.363281 L 19.796875 5.390625 L 6.460938 18.726562 C 4.75 20.4375 4.75 23.1875 6.460938 24.898438 C 8.167969 26.609375 10.921875 26.609375 12.632812 24.898438 L 25.96875 11.5625 C 27.105469 10.421875 27.105469 8.589844 25.96875 7.449219 C 24.828125 6.308594 22.992188 6.308594 21.851562 7.449219 L 8.515625 20.785156 C 7.949219 21.355469 7.949219 22.273438 8.515625 22.839844 C 9.085938 23.410156 10.003906 23.410156 10.574219 22.839844 L 11.601562 21.8125 L 22.882812 10.535156 L 23.910156 11.5625 L 11.601562 23.871094 C 10.464844 25.011719 8.628906 25.011719 7.488281 23.871094 C 6.347656 22.730469 6.347656 20.894531 7.488281 19.757812 L 20.824219 6.421875 C 22.535156 4.710938 25.285156 4.710938 26.996094 6.421875 Z M 26.996094 6.421875 "/>
</g>
</svg>
