
<svg xmlns="http://www.w3.org/2000/svg" xmlns:xlink="http://www.w3.org/1999/xlink" width="32px" height="32px" viewBox="0 0 32 32" version="1.1">
<g id="surface1">
<path style=" stroke:none;fill-rule:nonzero;fill:rgb(10.588235%,63.921569%,61.176471%);fill-opacity:1;" d="M 8.578125 1.726562 C 6.417969 1.726562 4.675781 3.46875 4.675781 5.628906 L 4.675781 26.371094 C 4.675781 28.53125 6.417969 30.273438 8.578125 30.273438 L 23.421875 30.273438 C 25.582031 30.273438 27.324219 28.53125 27.324219 26.371094 L 27.324219 6.355469 L 16.558594 1.726562 Z M 23.820312 1.746094 C 24.085938 1.773438 24.339844 1.828125 24.585938 1.902344 C 24.339844 1.828125 24.085938 1.773438 23.820312 1.746094 Z M 24.585938 1.902344 C 24.953125 2.015625 25.292969 2.183594 25.605469 2.390625 C 25.292969 2.183594 24.953125 2.015625 24.585938 1.902344 Z M 25.90625 2.617188 C 26.003906 2.695312 26.09375 2.78125 26.183594 2.867188 C 26.09375 2.78125 26.003906 2.695312 25.90625 2.617188 Z M 25.90625 2.617188 "/>
<path style=" stroke:none;fill-rule:nonzero;fill:rgb(100%,100%,100%);fill-opacity:0.682353;" d="M 27.324219 6.355469 L 16.558594 1.726562 L 16.558594 2.453125 C 16.558594 4.613281 18.300781 6.355469 20.460938 6.355469 Z M 27.324219 6.355469 "/>
<path style=" stroke:none;fill-rule:nonzero;fill:rgb(100%,100%,100%);fill-opacity:1;" d="M 8.503906 1.746094 L 8.503906 3.535156 L 10.824219 3.535156 L 10.824219 5.324219 L 8.503906 5.324219 L 8.503906 7.113281 L 10.824219 7.113281 L 10.824219 8.902344 L 8.503906 8.902344 L 8.503906 10.6875 L 10.824219 10.6875 L 10.824219 13.371094 L 8.503906 13.371094 L 8.503906 16.949219 L 13.140625 16.949219 L 13.140625 13.371094 L 10.824219 13.371094 L 10.824219 12.476562 L 13.140625 12.476562 L 13.140625 10.6875 L 10.824219 10.6875 L 10.824219 8.902344 L 13.140625 8.902344 L 13.140625 7.113281 L 10.824219 7.113281 L 10.824219 5.324219 L 13.140625 5.324219 L 13.140625 3.535156 L 10.824219 3.535156 L 10.824219 1.746094 Z M 8.503906 1.746094 "/>
<path style=" stroke:none;fill-rule:nonzero;fill:rgb(100%,100%,100%);fill-opacity:1;" d="M 10.910156 16.464844 C 10.75 16.464844 10.421875 16.46875 10.179688 16.472656 L 9.746094 16.476562 L 9.746094 16.910156 C 9.746094 16.910156 9.605469 17.050781 9.570312 17.140625 C 9.292969 17.902344 9.253906 18.761719 9.445312 19.546875 C 9.476562 19.667969 9.636719 19.875 9.636719 19.875 L 9.671875 19.304688 C 9.746094 18.902344 9.707031 18.460938 10.109375 18.460938 L 10.214844 18.460938 L 10.214844 18.066406 C 10.214844 17.738281 10.492188 17.476562 10.835938 17.476562 L 10.902344 17.476562 C 11.246094 17.476562 11.523438 17.738281 11.523438 18.066406 L 11.523438 18.460938 L 11.632812 18.460938 C 12.066406 18.46875 12.0625 19.132812 12.070312 19.304688 L 12.109375 19.875 C 12.109375 19.875 12.289062 19.648438 12.320312 19.515625 C 12.511719 18.761719 12.488281 17.925781 12.210938 17.195312 C 12.183594 17.125 12.070312 17.019531 12.070312 17.019531 L 12.070312 16.476562 L 11.636719 16.472656 C 11.394531 16.46875 11.066406 16.464844 10.910156 16.464844 Z M 10.839844 17.621094 C 10.539062 17.621094 10.296875 17.851562 10.296875 18.136719 L 10.296875 19.320312 C 10.296875 19.605469 10.539062 19.832031 10.839844 19.832031 L 10.898438 19.832031 C 11.199219 19.832031 11.4375 19.605469 11.4375 19.320312 L 11.4375 18.136719 C 11.4375 17.851562 11.199219 17.621094 10.898438 17.621094 Z M 10.214844 18.59375 C 10.191406 18.59375 10.109375 18.625 10.03125 18.660156 L 9.890625 18.730469 L 9.890625 22.472656 L 9.933594 22.53125 L 9.992188 22.5625 L 11.753906 22.535156 L 11.820312 22.484375 L 11.835938 20.640625 L 11.855469 18.757812 L 11.730469 18.675781 C 11.664062 18.628906 11.582031 18.59375 11.546875 18.59375 L 11.523438 18.59375 L 11.523438 19.421875 C 11.523438 19.75 11.246094 20.011719 10.902344 20.011719 L 10.835938 20.011719 C 10.492188 20.011719 10.214844 19.75 10.214844 19.421875 Z M 10.839844 21.105469 C 11.175781 21.105469 11.445312 21.355469 11.445312 21.660156 C 11.445312 21.964844 11.175781 22.210938 10.839844 22.210938 C 10.503906 22.210938 10.230469 21.964844 10.230469 21.660156 C 10.230469 21.355469 10.503906 21.105469 10.839844 21.105469 Z M 10.839844 21.105469 "/>
</g>
</svg>
