
<svg xmlns="http://www.w3.org/2000/svg" xmlns:xlink="http://www.w3.org/1999/xlink" width="32px" height="32px" viewBox="0 0 32 32" version="1.1">
<g id="surface1">
<path style=" stroke:none;fill-rule:nonzero;fill:rgb(93.333333%,93.333333%,93.333333%);fill-opacity:1;" d="M 4.191406 2.667969 C 3.429688 2.667969 2.667969 3.429688 2.667969 4.191406 L 2.667969 27.851562 C 2.667969 28.570312 3.429688 29.332031 4.148438 29.332031 L 27.851562 29.332031 C 28.570312 29.332031 29.332031 28.570312 29.332031 27.851562 L 29.332031 4.148438 C 29.332031 3.429688 28.570312 2.667969 27.851562 2.667969 Z M 4.191406 2.667969 "/>
<path style=" stroke:none;fill-rule:nonzero;fill:rgb(66.666667%,66.666667%,66.666667%);fill-opacity:1;" d="M 4.519531 2.667969 C 4.023438 2.667969 3.582031 2.910156 3.246094 3.246094 C 2.910156 3.582031 2.667969 4.023438 2.667969 4.519531 L 2.667969 27.527344 C 2.667969 28.007812 2.894531 28.449219 3.222656 28.777344 C 3.550781 29.105469 3.992188 29.332031 4.472656 29.332031 L 27.527344 29.332031 C 28.007812 29.332031 28.449219 29.105469 28.777344 28.777344 C 29.105469 28.449219 29.332031 28.007812 29.332031 27.527344 L 29.332031 4.472656 C 29.332031 3.992188 29.105469 3.550781 28.777344 3.222656 C 28.449219 2.894531 28.007812 2.667969 27.527344 2.667969 Z M 4.519531 3.40625 L 27.527344 3.40625 C 27.746094 3.40625 28.027344 3.539062 28.246094 3.753906 C 28.460938 3.972656 28.59375 4.253906 28.59375 4.472656 L 28.59375 27.527344 C 28.59375 27.746094 28.460938 28.027344 28.246094 28.246094 C 28.027344 28.460938 27.746094 28.59375 27.527344 28.59375 L 4.472656 28.59375 C 4.253906 28.59375 3.972656 28.460938 3.753906 28.246094 C 3.539062 28.027344 3.40625 27.746094 3.40625 27.527344 L 3.40625 4.519531 C 3.40625 4.273438 3.535156 3.972656 3.753906 3.753906 C 3.972656 3.535156 4.269531 3.40625 4.519531 3.40625 Z M 4.519531 3.40625 "/>
<path style=" stroke:none;fill-rule:nonzero;fill:rgb(50.196078%,50.196078%,50.196078%);fill-opacity:1;" d="M 19.019531 22.8125 C 17.164062 22.441406 15.492188 22.105469 15.304688 22.066406 L 14.960938 21.996094 L 14.960938 16.714844 L 17.152344 16.734375 C 18.359375 16.746094 20.078125 16.769531 20.972656 16.792969 L 22.597656 16.828125 L 22.597656 20.160156 C 22.597656 23.300781 22.589844 23.496094 22.492188 23.492188 C 22.4375 23.488281 20.871094 23.179688 19.019531 22.8125 Z M 11.679688 21.347656 L 9.382812 20.898438 L 9.351562 16.65625 L 11.664062 16.679688 C 12.933594 16.695312 13.984375 16.714844 13.992188 16.722656 C 14 16.730469 14 17.875 13.992188 19.269531 L 13.976562 21.800781 Z M 9.351562 13.742188 C 9.351562 12.574219 9.359375 11.621094 9.367188 11.621094 C 9.378906 11.621094 10.390625 11.421875 11.617188 11.175781 C 12.847656 10.929688 13.886719 10.726562 13.929688 10.726562 C 13.988281 10.726562 14.003906 11.234375 14.003906 13.253906 L 14.003906 15.78125 L 12.796875 15.820312 C 12.132812 15.839844 11.085938 15.859375 10.46875 15.859375 L 9.351562 15.859375 Z M 14.960938 13.167969 L 14.960938 10.515625 L 18.675781 9.78125 C 20.71875 9.378906 22.4375 9.035156 22.492188 9.019531 C 22.59375 8.992188 22.597656 9.179688 22.597656 12.363281 L 22.597656 15.738281 L 20.578125 15.738281 C 19.46875 15.738281 17.75 15.757812 16.761719 15.777344 L 14.960938 15.820312 Z M 14.960938 13.167969 "/>
</g>
</svg>
