
<svg xmlns="http://www.w3.org/2000/svg" xmlns:xlink="http://www.w3.org/1999/xlink" width="32px" height="32px" viewBox="0 0 32 32" version="1.1">
<defs>
<clipPath id="clip1">
  <path d="M 7 1 L 28 1 L 28 20 L 7 20 Z M 7 1 "/>
</clipPath>
<clipPath id="clip2">
  <path d="M 8.578125 1.726562 L 23.421875 1.726562 C 25.578125 1.726562 27.324219 3.472656 27.324219 5.628906 L 27.324219 26.371094 C 27.324219 28.527344 25.578125 30.273438 23.421875 30.273438 L 8.578125 30.273438 C 6.421875 30.273438 4.675781 28.527344 4.675781 26.371094 L 4.675781 5.628906 C 4.675781 3.472656 6.421875 1.726562 8.578125 1.726562 Z M 8.578125 1.726562 "/>
</clipPath>
<clipPath id="clip3">
  <path d="M 4 15 L 25 15 L 25 31 L 4 31 Z M 4 15 "/>
</clipPath>
<clipPath id="clip4">
  <path d="M 8.578125 1.726562 L 23.421875 1.726562 C 25.578125 1.726562 27.324219 3.472656 27.324219 5.628906 L 27.324219 26.371094 C 27.324219 28.527344 25.578125 30.273438 23.421875 30.273438 L 8.578125 30.273438 C 6.421875 30.273438 4.675781 28.527344 4.675781 26.371094 L 4.675781 5.628906 C 4.675781 3.472656 6.421875 1.726562 8.578125 1.726562 Z M 8.578125 1.726562 "/>
</clipPath>
</defs>
<g id="surface1">
<path style=" stroke:none;fill-rule:nonzero;fill:rgb(92.54902%,91.372549%,84.705882%);fill-opacity:1;" d="M 8.578125 1.726562 L 23.421875 1.726562 C 25.578125 1.726562 27.324219 3.472656 27.324219 5.628906 L 27.324219 26.371094 C 27.324219 28.527344 25.578125 30.273438 23.421875 30.273438 L 8.578125 30.273438 C 6.421875 30.273438 4.675781 28.527344 4.675781 26.371094 L 4.675781 5.628906 C 4.675781 3.472656 6.421875 1.726562 8.578125 1.726562 Z M 8.578125 1.726562 "/>
<g clip-path="url(#clip1)" clip-rule="nonzero">
<g clip-path="url(#clip2)" clip-rule="nonzero">
<path style=" stroke:none;fill-rule:nonzero;fill:rgb(52.54902%,56.470588%,58.039216%);fill-opacity:1;" d="M 20.367188 19.863281 C 20.117188 19.75 19.847656 19.460938 19.730469 19.175781 C 19.667969 19.027344 19.605469 18.460938 19.554688 17.554688 C 19.507812 16.789062 19.449219 16.101562 19.421875 16.027344 C 19.386719 15.929688 19.210938 15.835938 18.773438 15.679688 C 18.441406 15.566406 17.945312 15.359375 17.667969 15.21875 C 17.390625 15.078125 17.101562 14.964844 17.027344 14.964844 C 16.945312 14.964844 16.492188 15.332031 15.84375 15.925781 C 15.265625 16.457031 14.699219 16.9375 14.585938 16.996094 C 14.351562 17.117188 13.824219 17.136719 13.550781 17.035156 C 13.332031 16.953125 11.039062 14.691406 10.890625 14.414062 C 10.746094 14.140625 10.761719 13.625 10.925781 13.3125 C 11 13.167969 11.484375 12.59375 12.003906 12.03125 C 12.5625 11.425781 12.945312 10.957031 12.945312 10.878906 C 12.945312 10.808594 12.832031 10.523438 12.691406 10.246094 C 12.554688 9.964844 12.34375 9.46875 12.230469 9.140625 C 12.117188 8.8125 11.976562 8.519531 11.917969 8.488281 C 11.859375 8.460938 11.1875 8.402344 10.417969 8.359375 C 9.527344 8.308594 8.929688 8.246094 8.753906 8.183594 C 8.425781 8.066406 8.042969 7.660156 7.988281 7.371094 C 7.96875 7.253906 7.957031 6.378906 7.96875 5.429688 L 7.988281 3.699219 L 8.1875 3.453125 C 8.539062 3.011719 8.703125 2.96875 10.378906 2.863281 C 11.328125 2.804688 11.90625 2.746094 11.953125 2.695312 C 11.996094 2.652344 12.136719 2.328125 12.269531 1.972656 C 12.402344 1.617188 12.609375 1.128906 12.726562 0.886719 C 12.847656 0.648438 12.945312 0.398438 12.945312 0.335938 C 12.945312 0.269531 12.550781 -0.21875 12.066406 -0.75 C 11.582031 -1.28125 11.117188 -1.804688 11.035156 -1.914062 C 10.804688 -2.21875 10.726562 -2.597656 10.816406 -2.964844 C 10.886719 -3.246094 11.011719 -3.398438 12.066406 -4.464844 C 12.710938 -5.117188 13.347656 -5.710938 13.480469 -5.777344 C 13.785156 -5.9375 14.273438 -5.9375 14.578125 -5.78125 C 14.707031 -5.71875 15.269531 -5.242188 15.828125 -4.730469 C 16.390625 -4.214844 16.886719 -3.773438 16.929688 -3.746094 C 16.980469 -3.71875 17.28125 -3.824219 17.648438 -4 C 17.996094 -4.164062 18.515625 -4.378906 18.804688 -4.476562 C 19.195312 -4.609375 19.347656 -4.691406 19.402344 -4.808594 C 19.441406 -4.890625 19.511719 -5.589844 19.554688 -6.355469 C 19.640625 -7.828125 19.6875 -8.0625 19.992188 -8.378906 C 20.332031 -8.730469 20.527344 -8.761719 22.414062 -8.738281 L 24.136719 -8.71875 L 24.40625 -8.542969 C 24.867188 -8.234375 24.925781 -8.042969 25.035156 -6.40625 C 25.085938 -5.609375 25.144531 -4.898438 25.160156 -4.824219 C 25.1875 -4.71875 25.328125 -4.640625 25.789062 -4.480469 C 26.117188 -4.363281 26.640625 -4.140625 26.957031 -3.984375 C 27.269531 -3.828125 27.550781 -3.699219 27.582031 -3.699219 C 27.613281 -3.699219 28.117188 -4.136719 28.703125 -4.675781 C 29.285156 -5.210938 29.871094 -5.707031 30.003906 -5.777344 C 30.316406 -5.9375 30.78125 -5.9375 31.125 -5.773438 C 31.289062 -5.695312 31.839844 -5.191406 32.53125 -4.492188 C 33.71875 -3.292969 33.8125 -3.15625 33.816406 -2.609375 C 33.816406 -2.226562 33.644531 -1.972656 32.621094 -0.851562 C 32.066406 -0.246094 31.613281 0.28125 31.613281 0.3125 C 31.613281 0.34375 31.757812 0.671875 31.933594 1.039062 C 32.109375 1.410156 32.324219 1.929688 32.402344 2.191406 C 32.503906 2.515625 32.59375 2.6875 32.679688 2.722656 C 32.753906 2.753906 33.46875 2.820312 34.273438 2.871094 C 35.871094 2.96875 36.125 3.035156 36.394531 3.414062 C 36.648438 3.769531 36.675781 4.035156 36.65625 5.773438 L 36.632812 7.4375 L 36.4375 7.714844 C 36.089844 8.210938 36.003906 8.234375 34.230469 8.351562 C 33.367188 8.40625 32.640625 8.46875 32.625 8.488281 C 32.605469 8.507812 32.496094 8.78125 32.386719 9.101562 C 32.273438 9.421875 32.050781 9.941406 31.890625 10.257812 C 31.734375 10.570312 31.613281 10.867188 31.625 10.914062 C 31.636719 10.960938 32.066406 11.460938 32.582031 12.027344 C 33.101562 12.589844 33.589844 13.179688 33.667969 13.339844 C 33.839844 13.671875 33.855469 14.03125 33.714844 14.367188 C 33.589844 14.664062 31.488281 16.800781 31.144531 16.976562 C 30.859375 17.125 30.335938 17.140625 30.039062 17.011719 C 29.921875 16.960938 29.347656 16.480469 28.761719 15.941406 C 28.171875 15.40625 27.644531 14.964844 27.585938 14.964844 C 27.53125 14.964844 27.199219 15.097656 26.851562 15.257812 C 26.503906 15.421875 25.988281 15.632812 25.707031 15.722656 C 25.316406 15.851562 25.183594 15.925781 25.160156 16.027344 C 25.144531 16.101562 25.085938 16.8125 25.035156 17.605469 C 24.917969 19.351562 24.851562 19.542969 24.242188 19.847656 C 24.066406 19.9375 23.773438 19.953125 22.296875 19.953125 C 20.992188 19.949219 20.515625 19.925781 20.367188 19.863281 Z M 22.925781 12.109375 C 24.492188 11.945312 25.804688 11.320312 26.917969 10.207031 C 27.765625 9.355469 28.316406 8.402344 28.644531 7.199219 C 28.851562 6.445312 28.851562 4.78125 28.644531 4.015625 C 28.011719 1.703125 26.351562 -0.00390625 24.0625 -0.695312 C 23.527344 -0.855469 23.382812 -0.871094 22.34375 -0.875 C 21.347656 -0.878906 21.140625 -0.859375 20.660156 -0.730469 C 18.246094 -0.0703125 16.402344 1.867188 15.898438 4.273438 C 15.445312 6.433594 16.109375 8.636719 17.683594 10.222656 C 18.511719 11.054688 19.582031 11.664062 20.746094 11.960938 C 21.074219 12.046875 21.546875 12.113281 22.214844 12.167969 C 22.269531 12.171875 22.589844 12.144531 22.925781 12.109375 Z M 21.320312 9.394531 C 19.667969 8.945312 18.511719 7.539062 18.410156 5.855469 C 18.335938 4.675781 18.714844 3.679688 19.554688 2.84375 C 21.078125 1.328125 23.511719 1.3125 25.015625 2.8125 C 26.257812 4.046875 26.554688 5.804688 25.785156 7.347656 C 25.128906 8.664062 23.921875 9.4375 22.441406 9.496094 C 21.9375 9.515625 21.6875 9.492188 21.320312 9.394531 Z M 23.167969 7.761719 C 23.625 7.589844 24.167969 7.082031 24.398438 6.617188 C 24.722656 5.863281 24.554688 5.160156 24.359375 4.542969 C 23.933594 3.757812 23.300781 3.359375 22.410156 3.316406 C 21.691406 3.28125 21.261719 3.429688 20.746094 3.902344 C 20.089844 4.503906 19.828125 5.335938 20.039062 6.160156 C 20.222656 6.871094 20.609375 7.351562 21.257812 7.683594 C 21.863281 7.988281 22.488281 8.015625 23.167969 7.761719 Z M 23.167969 7.761719 "/>
</g>
</g>
<g clip-path="url(#clip3)" clip-rule="nonzero">
<g clip-path="url(#clip4)" clip-rule="nonzero">
<path style=" stroke:none;fill-rule:nonzero;fill:rgb(52.54902%,56.470588%,58.039216%);fill-opacity:1;" d="M 14.226562 39.960938 C 13.992188 39.933594 13.695312 39.773438 13.523438 39.570312 C 13.433594 39.464844 13.234375 39.019531 12.953125 38.292969 C 12.714844 37.679688 12.488281 37.136719 12.445312 37.082031 C 12.390625 37.011719 12.222656 36.980469 11.824219 36.972656 C 11.523438 36.964844 11.0625 36.925781 10.800781 36.882812 C 10.539062 36.84375 10.273438 36.824219 10.210938 36.84375 C 10.144531 36.867188 9.871094 37.289062 9.5 37.941406 C 9.167969 38.527344 8.835938 39.066406 8.757812 39.144531 C 8.597656 39.304688 8.171875 39.460938 7.921875 39.449219 C 7.722656 39.441406 5.257812 38.199219 5.0625 38.011719 C 4.871094 37.824219 4.75 37.402344 4.800781 37.101562 C 4.824219 36.96875 5.066406 36.371094 5.34375 35.773438 C 5.640625 35.132812 5.828125 34.648438 5.808594 34.585938 C 5.789062 34.527344 5.621094 34.328125 5.433594 34.136719 C 5.25 33.945312 4.949219 33.597656 4.769531 33.359375 C 4.585938 33.121094 4.394531 32.917969 4.339844 32.910156 C 4.285156 32.902344 3.722656 33.03125 3.085938 33.195312 C 2.34375 33.390625 1.839844 33.5 1.679688 33.492188 C 1.378906 33.484375 0.964844 33.253906 0.84375 33.03125 C 0.792969 32.941406 0.554688 32.230469 0.316406 31.453125 L -0.125 30.039062 L -0.0273438 29.78125 C 0.144531 29.332031 0.265625 29.25 1.605469 28.726562 C 2.363281 28.429688 2.820312 28.226562 2.84375 28.175781 C 2.867188 28.128906 2.898438 27.828125 2.914062 27.5 C 2.925781 27.175781 2.964844 26.722656 3 26.496094 C 3.035156 26.269531 3.050781 26.039062 3.035156 25.988281 C 3.019531 25.933594 2.566406 25.640625 2.03125 25.335938 C 1.496094 25.03125 0.976562 24.722656 0.882812 24.65625 C 0.613281 24.46875 0.453125 24.183594 0.429688 23.855469 C 0.410156 23.609375 0.472656 23.453125 1.054688 22.304688 C 1.40625 21.601562 1.769531 20.953125 1.859375 20.863281 C 2.070312 20.652344 2.464844 20.523438 2.753906 20.570312 C 2.878906 20.589844 3.460938 20.828125 4.050781 21.097656 C 4.644531 21.371094 5.164062 21.601562 5.210938 21.609375 C 5.257812 21.621094 5.476562 21.453125 5.726562 21.214844 C 5.96875 20.988281 6.335938 20.675781 6.546875 20.523438 C 6.832031 20.3125 6.933594 20.203125 6.945312 20.09375 C 6.957031 20.015625 6.828125 19.429688 6.664062 18.792969 C 6.34375 17.570312 6.324219 17.367188 6.488281 17.027344 C 6.671875 16.648438 6.820312 16.574219 8.367188 16.09375 L 9.777344 15.65625 L 10.042969 15.734375 C 10.503906 15.859375 10.597656 16 11.117188 17.308594 C 11.371094 17.945312 11.605469 18.507812 11.640625 18.566406 C 11.6875 18.644531 11.824219 18.671875 12.242188 18.683594 C 12.539062 18.6875 13.027344 18.730469 13.324219 18.777344 C 13.621094 18.824219 13.882812 18.855469 13.910156 18.847656 C 13.933594 18.839844 14.230469 18.347656 14.566406 17.757812 C 14.902344 17.164062 15.25 16.605469 15.339844 16.515625 C 15.550781 16.300781 15.929688 16.179688 16.253906 16.222656 C 16.40625 16.246094 16.988281 16.507812 17.738281 16.898438 C 19.023438 17.5625 19.136719 17.652344 19.277344 18.09375 C 19.378906 18.40625 19.308594 18.65625 18.769531 19.839844 C 18.476562 20.484375 18.242188 21.03125 18.25 21.058594 C 18.257812 21.082031 18.464844 21.3125 18.707031 21.566406 C 18.949219 21.820312 19.257812 22.1875 19.390625 22.382812 C 19.558594 22.621094 19.675781 22.734375 19.757812 22.742188 C 19.824219 22.75 20.425781 22.613281 21.09375 22.445312 C 22.421875 22.105469 22.652344 22.089844 22.96875 22.328125 C 23.269531 22.550781 23.363281 22.761719 23.800781 24.183594 L 24.222656 25.546875 L 24.136719 25.824219 C 23.980469 26.320312 23.917969 26.363281 22.503906 26.925781 C 21.8125 27.199219 21.238281 27.4375 21.226562 27.457031 C 21.21875 27.480469 21.203125 27.734375 21.195312 28.023438 C 21.1875 28.3125 21.144531 28.796875 21.097656 29.09375 C 21.050781 29.390625 21.03125 29.664062 21.050781 29.703125 C 21.074219 29.738281 21.558594 30.03125 22.125 30.355469 C 22.695312 30.679688 23.25 31.03125 23.355469 31.140625 C 23.585938 31.367188 23.691406 31.65625 23.664062 31.964844 C 23.640625 32.242188 22.488281 34.539062 22.257812 34.773438 C 22.0625 34.96875 21.640625 35.117188 21.363281 35.089844 C 21.253906 35.082031 20.660156 34.839844 20.039062 34.554688 C 19.417969 34.273438 18.871094 34.050781 18.824219 34.066406 C 18.777344 34.082031 18.542969 34.277344 18.300781 34.5 C 18.0625 34.726562 17.695312 35.03125 17.488281 35.179688 C 17.207031 35.390625 17.117188 35.484375 17.125 35.574219 C 17.132812 35.636719 17.273438 36.230469 17.4375 36.894531 C 17.800781 38.347656 17.796875 38.519531 17.382812 38.929688 C 17.261719 39.050781 17.027344 39.140625 15.824219 39.527344 C 14.757812 39.867188 14.363281 39.976562 14.226562 39.960938 Z M 14.273438 32.964844 C 15.507812 32.417969 16.410156 31.566406 17.027344 30.363281 C 17.496094 29.445312 17.691406 28.523438 17.644531 27.457031 C 17.613281 26.785156 17.175781 25.429688 16.804688 24.859375 C 15.679688 23.136719 13.878906 22.183594 11.828125 22.222656 C 11.351562 22.234375 11.226562 22.257812 10.378906 22.527344 C 9.566406 22.785156 9.402344 22.855469 9.042969 23.089844 C 7.25 24.261719 6.253906 26.328125 6.476562 28.421875 C 6.675781 30.304688 7.796875 31.929688 9.5 32.804688 C 10.394531 33.265625 11.429688 33.480469 12.453125 33.417969 C 12.746094 33.402344 13.148438 33.332031 13.707031 33.199219 C 13.75 33.1875 14.007812 33.082031 14.273438 32.964844 Z M 12.246094 31.171875 C 10.78125 31.242188 9.46875 30.398438 8.941406 29.050781 C 8.574219 28.109375 8.621094 27.195312 9.082031 26.296875 C 9.925781 24.65625 11.910156 24.003906 13.53125 24.832031 C 14.867188 25.515625 15.574219 26.871094 15.351562 28.332031 C 15.164062 29.574219 14.382812 30.523438 13.1875 30.960938 C 12.785156 31.109375 12.574219 31.15625 12.246094 31.171875 Z M 13.324219 29.355469 C 13.652344 29.09375 13.964844 28.539062 14.027344 28.097656 C 14.09375 27.398438 13.769531 26.867188 13.449219 26.417969 C 12.894531 25.890625 12.273438 25.730469 11.535156 25.929688 C 10.941406 26.085938 10.632812 26.324219 10.335938 26.847656 C 9.957031 27.507812 9.964844 28.253906 10.351562 28.871094 C 10.6875 29.402344 11.128906 29.695312 11.746094 29.792969 C 12.320312 29.882812 12.835938 29.742188 13.324219 29.355469 Z M 13.324219 29.355469 "/>
</g>
</g>
</g>
</svg>
