<?xml version="1.0" encoding="UTF-8"?>
<svg xmlns="http://www.w3.org/2000/svg" xmlns:xlink="http://www.w3.org/1999/xlink" width="16pt" height="16pt" viewBox="0 0 16 16" version="1.1">
<g id="surface1">
<path style="fill-rule:nonzero;fill:rgb(100%,100%,100%);fill-opacity:1;stroke-width:28.191782;stroke-linecap:butt;stroke-linejoin:miter;stroke:rgb(13.333333%,21.176471%,33.72549%);stroke-opacity:1;stroke-miterlimit:4;" d="M 81.499998 25.125 L 430.499992 25.125 C 461.624991 25.125 486.87499 50.374999 486.87499 81.499998 L 486.87499 430.499992 C 486.87499 461.624991 461.624991 486.87499 430.499992 486.87499 L 81.499998 486.87499 C 50.374999 486.87499 25.125 461.624991 25.125 430.499992 L 25.125 81.499998 C 25.125 50.374999 50.374999 25.125 81.499998 25.125 Z M 81.499998 25.125 " transform="matrix(0.03125,0,0,0.03125,0,0)"/>
<path style=" stroke:none;fill-rule:evenodd;fill:rgb(13.333333%,21.176471%,33.72549%);fill-opacity:1;" d="M 8.003906 1.992188 C 8.914062 1.992188 9.65625 2.925781 9.65625 4.082031 L 9.65625 7.625 C 9.65625 8.78125 8.914062 9.71875 8.003906 9.71875 C 7.089844 9.71875 6.351562 8.78125 6.351562 7.625 L 6.351562 4.082031 C 6.351562 2.925781 7.089844 1.992188 8.003906 1.992188 Z M 8.003906 1.992188 "/>
<path style=" stroke:none;fill-rule:evenodd;fill:rgb(13.333333%,21.176471%,33.72549%);fill-opacity:1;" d="M 5.519531 8.03125 L 4.484375 8.035156 C 4.574219 10.179688 5.988281 11.378906 7.523438 11.589844 L 7.523438 12.96875 C 6.847656 13.082031 6.199219 13.425781 5.707031 13.992188 L 10.3125 14.007812 C 9.847656 13.441406 9.230469 13.101562 8.578125 12.976562 L 8.578125 11.578125 C 10.050781 11.339844 11.386719 10.175781 11.515625 8.039062 L 10.464844 8.03125 C 10.289062 11.375 5.714844 11.398438 5.519531 8.03125 Z M 5.519531 8.03125 "/>
</g>
</svg>
