<?xml version="1.0" encoding="UTF-8"?>
<svg xmlns="http://www.w3.org/2000/svg" xmlns:xlink="http://www.w3.org/1999/xlink" width="24pt" height="24pt" viewBox="0 0 24 24" version="1.1">
<g id="surface1">
<path style="fill-rule:nonzero;fill:rgb(100%,100%,100%);fill-opacity:1;stroke-width:2.598408;stroke-linecap:butt;stroke-linejoin:miter;stroke:rgb(60.784314%,61.568627%,65.098039%);stroke-opacity:1;stroke-miterlimit:4;" d="M 7.914062 2.71875 L 40.085938 2.71875 C 42.953125 2.71875 45.28125 5.046875 45.28125 7.914062 L 45.28125 40.085938 C 45.28125 42.953125 42.953125 45.28125 40.085938 45.28125 L 7.914062 45.28125 C 5.046875 45.28125 2.71875 42.953125 2.71875 40.085938 L 2.71875 7.914062 C 2.71875 5.046875 5.046875 2.71875 7.914062 2.71875 Z M 7.914062 2.71875 " transform="matrix(0.5,0,0,0.5,0,0)"/>
<path style=" stroke:none;fill-rule:nonzero;fill:rgb(18.823529%,18.823529%,18.823529%);fill-opacity:1;" d="M 14.277344 2.9375 C 14.070312 2.996094 13.886719 3.128906 13.773438 3.328125 L 7.601562 14.101562 C 7.542969 14.214844 7.511719 14.335938 7.511719 14.460938 L 7.300781 20.382812 C 7.292969 20.621094 7.394531 20.847656 7.574219 21.007812 C 7.757812 21.164062 8.003906 21.242188 8.25 21.203125 C 8.390625 21.179688 8.519531 21.117188 8.632812 21.03125 L 13.0625 17.757812 C 13.152344 17.691406 13.21875 17.601562 13.273438 17.503906 L 19.664062 6.484375 C 19.894531 6.089844 19.753906 5.59375 19.351562 5.375 L 14.921875 3 C 14.722656 2.894531 14.484375 2.878906 14.277344 2.9375 Z M 8.300781 14.625 L 10.097656 14.320312 L 12.0625 15.375 L 12.675781 16.808594 L 9.855469 19.09375 L 8.199219 18.148438 Z M 8.300781 14.625 "/>
<path style=" stroke:none;fill-rule:nonzero;fill:rgb(100%,100%,100%);fill-opacity:1;" d="M 10.195312 12.695312 L 11.660156 14.113281 "/>
<path style="fill-rule:nonzero;fill:rgb(100%,100%,100%);fill-opacity:1;stroke-width:0.167935;stroke-linecap:butt;stroke-linejoin:miter;stroke:rgb(100%,100%,100%);stroke-opacity:1;stroke-miterlimit:4;" d="M 17.960938 37.132812 L 16.40625 36.234375 L 16.453125 35.789062 C 16.484375 35.539062 16.539062 33.984375 16.570312 32.320312 L 16.640625 29.296875 L 18.40625 29 L 20.179688 28.703125 L 24.070312 30.78125 L 24.679688 32.195312 L 25.28125 33.601562 L 22.53125 35.828125 C 21.015625 37.054688 19.71875 38.054688 19.648438 38.046875 C 19.585938 38.046875 18.820312 37.632812 17.960938 37.132812 Z M 17.960938 37.132812 " transform="matrix(0.5,0,0,0.5,0,0)"/>
</g>
</svg>
