<?xml version="1.0" encoding="UTF-8"?>
<svg xmlns="http://www.w3.org/2000/svg" xmlns:xlink="http://www.w3.org/1999/xlink" width="24pt" height="24pt" viewBox="0 0 24 24" version="1.1">
<g id="surface1">
<path style="fill-rule:nonzero;fill:rgb(98.431373%,94.901961%,94.901961%);fill-opacity:1;stroke-width:25.1982;stroke-linecap:butt;stroke-linejoin:miter;stroke:rgb(0%,34.509804%,41.960784%);stroke-opacity:1;stroke-miterlimit:4;" d="M 78.103087 38.561272 L 433.896911 38.561272 C 452.966139 38.561272 468.485684 54.080817 468.485684 73.232596 L 468.485684 438.767411 C 468.485684 457.91919 452.966139 473.438735 433.896911 473.438735 L 78.103087 473.438735 C 59.033859 473.438735 43.514314 457.91919 43.514314 438.767411 L 43.514314 73.232596 C 43.514314 54.080817 59.033859 38.561272 78.103087 38.561272 Z M 78.103087 38.561272 " transform="matrix(0.0473194,0,0,0.0473194,-0.113757,-0.113757)"/>
<path style=" stroke:none;fill-rule:evenodd;fill:rgb(26.27451%,31.372549%,36.078431%);fill-opacity:1;" d="M 17.003906 3.402344 C 17.738281 3.402344 18.332031 4.078125 18.332031 4.910156 L 18.332031 19.632812 C 18.332031 20.464844 17.738281 21.140625 17.003906 21.140625 C 16.273438 21.140625 15.679688 20.464844 15.679688 19.632812 L 15.679688 4.910156 C 15.679688 4.078125 16.273438 3.402344 17.003906 3.402344 Z M 17.003906 3.402344 "/>
<path style=" stroke:none;fill-rule:evenodd;fill:rgb(26.27451%,31.372549%,36.078431%);fill-opacity:1;" d="M 17.003906 3.878906 C 17.507812 3.878906 17.917969 4.394531 17.917969 5.027344 L 17.917969 19.527344 C 17.917969 20.164062 17.507812 20.679688 17.003906 20.679688 C 16.5 20.679688 16.09375 20.164062 16.09375 19.527344 L 16.09375 5.027344 C 16.09375 4.394531 16.5 3.878906 17.003906 3.878906 Z M 17.003906 3.878906 "/>
<path style=" stroke:none;fill-rule:nonzero;fill:rgb(16.470588%,16.470588%,100%);fill-opacity:1;" d="M 19.472656 8.492188 C 19.472656 9.800781 18.414062 10.855469 17.109375 10.855469 C 15.804688 10.855469 14.746094 9.800781 14.746094 8.492188 C 14.746094 7.1875 15.804688 6.128906 17.109375 6.128906 C 18.414062 6.128906 19.472656 7.1875 19.472656 8.492188 Z M 19.472656 8.492188 "/>
<path style=" stroke:none;fill-rule:evenodd;fill:rgb(26.27451%,31.372549%,36.078431%);fill-opacity:1;" d="M 12.085938 3.402344 C 12.816406 3.402344 13.410156 4.078125 13.410156 4.910156 L 13.410156 19.632812 C 13.410156 20.464844 12.816406 21.140625 12.085938 21.140625 C 11.355469 21.140625 10.761719 20.464844 10.761719 19.632812 L 10.761719 4.910156 C 10.761719 4.078125 11.355469 3.402344 12.085938 3.402344 Z M 12.085938 3.402344 "/>
<path style=" stroke:none;fill-rule:evenodd;fill:rgb(26.27451%,31.372549%,36.078431%);fill-opacity:1;" d="M 12.085938 3.878906 C 12.589844 3.878906 13 4.394531 13 5.027344 L 13 19.527344 C 13 20.164062 12.589844 20.679688 12.085938 20.679688 C 11.582031 20.679688 11.171875 20.164062 11.171875 19.527344 L 11.171875 5.027344 C 11.171875 4.394531 11.582031 3.878906 12.085938 3.878906 Z M 12.085938 3.878906 "/>
<path style=" stroke:none;fill-rule:nonzero;fill:rgb(16.470588%,16.470588%,100%);fill-opacity:1;" d="M 14.414062 13.65625 C 14.414062 14.964844 13.355469 16.019531 12.050781 16.019531 C 10.746094 16.019531 9.6875 14.964844 9.6875 13.65625 C 9.6875 12.351562 10.746094 11.296875 12.050781 11.296875 C 13.355469 11.296875 14.414062 12.351562 14.414062 13.65625 Z M 14.414062 13.65625 "/>
<path style=" stroke:none;fill-rule:evenodd;fill:rgb(26.27451%,31.372549%,36.078431%);fill-opacity:1;" d="M 7.160156 3.402344 C 7.890625 3.402344 8.484375 4.078125 8.484375 4.910156 L 8.484375 19.632812 C 8.484375 20.464844 7.890625 21.140625 7.160156 21.140625 C 6.425781 21.140625 5.832031 20.464844 5.832031 19.632812 L 5.832031 4.910156 C 5.832031 4.078125 6.425781 3.402344 7.160156 3.402344 Z M 7.160156 3.402344 "/>
<path style=" stroke:none;fill-rule:evenodd;fill:rgb(26.27451%,31.372549%,36.078431%);fill-opacity:1;" d="M 7.160156 3.878906 C 7.664062 3.878906 8.070312 4.394531 8.070312 5.027344 L 8.070312 19.527344 C 8.070312 20.164062 7.664062 20.679688 7.160156 20.679688 C 6.652344 20.679688 6.246094 20.164062 6.246094 19.527344 L 6.246094 5.027344 C 6.246094 4.394531 6.652344 3.878906 7.160156 3.878906 Z M 7.160156 3.878906 "/>
<path style=" stroke:none;fill-rule:nonzero;fill:rgb(16.470588%,16.470588%,100%);fill-opacity:1;" d="M 9.484375 7.007812 C 9.484375 8.3125 8.425781 9.371094 7.121094 9.371094 C 5.816406 9.371094 4.757812 8.3125 4.757812 7.007812 C 4.757812 5.703125 5.816406 4.644531 7.121094 4.644531 C 8.425781 4.644531 9.484375 5.703125 9.484375 7.007812 Z M 9.484375 7.007812 "/>
</g>
</svg>
