<?xml version="1.0" encoding="UTF-8"?>
<svg xmlns="http://www.w3.org/2000/svg" xmlns:xlink="http://www.w3.org/1999/xlink" width="512pt" height="512pt" viewBox="0 0 512 512" version="1.1">
<g id="surface1">
<path style=" stroke:#3B3434;fill-rule:nonzero;fill:rgb(80%,80%,80%);fill-opacity:1;" d="M 309.886719 42.441406 C 287.164062 42.441406 268.445312 63.34375 264.726562 90.976562 L 444.589844 90.976562 C 440.871094 63.34375 422.167969 42.441406 399.449219 42.441406 Z M 309.886719 42.441406 "/>
<path style=" stroke:none;fill-rule:nonzero;fill:#6B6B6B;fill-opacity:1;" d="M 65.9375 98.757812 L 446.058594 98.757812 C 476.125 98.757812 500.5 123.191406 500.5 153.332031 L 500.5 344.828125 C 500.5 374.96875 476.125 399.402344 446.058594 399.402344 L 65.9375 399.402344 C 35.875 399.402344 11.5 374.96875 11.5 344.828125 L 11.5 153.332031 C 11.5 123.191406 35.875 98.757812 65.9375 98.757812 Z M 65.9375 98.757812 "/>
<path style=" stroke:none;fill-rule:nonzero;fill:#6B6B6B;fill-opacity:1;" d="M 65.9375 168.910156 L 446.058594 168.910156 C 476.125 168.910156 500.5 193.347656 500.5 223.488281 L 500.5 414.980469 C 500.5 445.121094 476.125 469.558594 446.058594 469.558594 L 65.9375 469.558594 C 35.875 469.558594 11.5 445.121094 11.5 414.980469 L 11.5 223.488281 C 11.5 193.347656 35.875 168.910156 65.9375 168.910156 Z M 65.9375 168.910156 "/>
<path style=" stroke:none;fill-rule:evenodd;fill:rgb(100%,100%,100%);fill-opacity:1;" d="M 319.734375 151.132812 L 329.804688 160.285156 L 317.394531 167.640625 L 308.367188 156.496094 L 307.453125 176.796875 L 325.382812 180.75 L 353.636719 214.113281 L 369.496094 205.636719 L 340.074219 172.332031 L 343.730469 157.695312 Z M 232.765625 158.984375 C 216.558594 158.984375 203.417969 169.757812 203.414062 183.042969 C 203.4375 195.09375 214.320312 205.273438 228.890625 206.863281 L 188.285156 224.207031 L 179.933594 316.226562 L 203.414062 315.882812 L 212.808594 236.945312 L 214.675781 308.84375 L 201.625 416.839844 L 225.390625 416.5 L 244.101562 312.355469 L 268.488281 416.394531 L 292.992188 416.394531 L 271.320312 309.265625 L 267.945312 233.480469 L 341.976562 207.101562 L 327.886719 192.675781 L 262.132812 209.804688 L 236.476562 206.878906 C 251.121094 205.355469 262.109375 195.148438 262.132812 183.042969 C 262.128906 169.75 248.980469 158.976562 232.765625 158.984375 Z M 232.765625 158.984375 "/>
</g>
</svg>
