<?xml version="1.0" encoding="UTF-8"?>
<svg xmlns="http://www.w3.org/2000/svg" xmlns:xlink="http://www.w3.org/1999/xlink" width="512pt" height="512pt" viewBox="0 0 512 512" version="1.1">
<g id="surface1">
<path style="fill-rule:nonzero;fill:rgb(100%,100%,100%);fill-opacity:1;stroke-width:2.611469;stroke-linecap:butt;stroke-linejoin:miter;stroke:rgb(56.470588%,56.470588%,56.470588%);stroke-opacity:1;stroke-miterlimit:4;" d="M 7.833618 2.610718 L 40.166382 2.610718 C 43.050659 2.610718 45.389282 4.949341 45.389282 7.833618 L 45.389282 40.166382 C 45.389282 43.050659 43.050659 45.389282 40.166382 45.389282 L 7.833618 45.389282 C 4.949341 45.389282 2.610718 43.050659 2.610718 40.166382 L 2.610718 7.833618 C 2.610718 4.949341 4.949341 2.610718 7.833618 2.610718 Z M 7.833618 2.610718 " transform="matrix(10.666667,0,0,10.666667,0,0)"/>
<path style=" stroke:none;fill-rule:evenodd;fill:rgb(94.901961%,94.901961%,94.901961%);fill-opacity:1;" d="M 258.65625 279.695312 C 275.691406 278.5625 288.667969 263.976562 287.816406 246.921875 C 286.964844 229.871094 272.597656 216.648438 255.535156 217.21875 C 238.46875 217.785156 225.011719 231.929688 225.296875 249.003906 C 225.582031 266.074219 239.5 279.765625 256.574219 279.765625 "/>
<path style="fill:none;stroke-width:2.26261;stroke-linecap:square;stroke-linejoin:bevel;stroke:rgb(94.901961%,94.901961%,94.901961%);stroke-opacity:1;stroke-miterlimit:4;" d="M 24.059692 23.252563 L 24.059692 40.068237 " transform="matrix(10.666667,0,0,10.666667,0,0)"/>
<path style="fill:none;stroke-width:2.26261;stroke-linecap:square;stroke-linejoin:miter;stroke:rgb(94.901961%,94.901961%,94.901961%);stroke-opacity:1;stroke-miterlimit:2.012602;" d="M 29.765991 27.955444 C 32.116333 24.931274 31.699951 20.598999 28.817505 18.077637 C 25.934692 15.555908 21.585571 15.719971 18.901245 18.451538 C 16.216919 21.183472 16.128296 25.534424 18.699829 28.372925 " transform="matrix(10.666667,0,0,10.666667,0,0)"/>
<path style="fill:none;stroke-width:2.26261;stroke-linecap:square;stroke-linejoin:miter;stroke:rgb(30.196078%,30.196078%,30.196078%);stroke-opacity:1;stroke-miterlimit:2.012602;" d="M 33.151245 30.73645 C 36.943726 25.856323 36.239502 18.858398 31.550171 14.831543 C 26.86084 10.805054 19.836914 11.166504 15.585938 15.65332 C 11.335327 20.140503 11.353271 27.173584 15.626953 31.638794 " transform="matrix(10.666667,0,0,10.666667,0,0)"/>
<path style="fill:none;stroke-width:2.26261;stroke-linecap:square;stroke-linejoin:miter;stroke:rgb(30.196078%,30.196078%,30.196078%);stroke-opacity:1;stroke-miterlimit:2.012602;" d="M 36.513794 33.499878 C 41.687988 26.841797 40.742798 17.297974 34.363403 11.783936 C 27.983643 6.270264 18.403564 6.717041 12.564697 12.800903 C 6.726196 18.884766 6.673828 28.475098 12.445312 34.622681 " transform="matrix(10.666667,0,0,10.666667,0,0)"/>
</g>
</svg>
