<?xml version="1.0" encoding="UTF-8"?>
<svg xmlns="http://www.w3.org/2000/svg" xmlns:xlink="http://www.w3.org/1999/xlink" width="32pt" height="32pt" viewBox="0 0 32 32" version="1.1">
<g id="surface1">
<path style=" stroke:none;fill-rule:nonzero;fill:rgb(30.196078%,30.196078%,30.196078%);fill-opacity:1;" d="M 16 4.363281 L 4.363281 11.089844 L 4.363281 13.089844 L 5.816406 13.089844 L 5.816406 26.183594 L 4.363281 26.183594 L 4.363281 27.636719 L 27.636719 27.636719 L 27.636719 26.183594 L 26.183594 26.183594 L 26.183594 13.089844 L 27.636719 13.089844 L 27.636719 11.089844 Z M 16 6.046875 L 25.671875 11.632812 L 6.328125 11.632812 Z M 7.273438 13.089844 L 10.183594 13.089844 L 10.183594 26.183594 L 7.273438 26.183594 Z M 11.636719 13.089844 L 20.363281 13.089844 L 20.363281 26.183594 L 18.910156 26.183594 L 18.910156 20.363281 L 13.089844 20.363281 L 13.089844 26.183594 L 11.636719 26.183594 Z M 21.816406 13.089844 L 24.726562 13.089844 L 24.726562 26.183594 L 21.816406 26.183594 Z M 21.816406 13.089844 "/>
</g>
</svg>
