<?xml version="1.0" encoding="UTF-8"?>
<svg xmlns="http://www.w3.org/2000/svg" xmlns:xlink="http://www.w3.org/1999/xlink" width="32pt" height="32pt" viewBox="0 0 32 32" version="1.1">
<g id="surface1">
<path style=" stroke:none;fill-rule:nonzero;fill:rgb(30.196078%,30.196078%,30.196078%);fill-opacity:1;" d="M 4.363281 4.363281 L 4.363281 10.183594 L 5.816406 10.183594 L 5.816406 5.816406 L 10.183594 5.816406 L 10.183594 4.363281 Z M 4.363281 4.363281 "/>
<path style=" stroke:none;fill-rule:nonzero;fill:rgb(30.196078%,30.196078%,30.196078%);fill-opacity:1;" d="M 26.183594 21.816406 L 26.183594 26.183594 L 21.816406 26.183594 L 21.816406 27.636719 L 27.636719 27.636719 L 27.636719 21.816406 Z M 26.183594 21.816406 "/>
<path style=" stroke:none;fill-rule:nonzero;fill:rgb(30.196078%,30.196078%,30.196078%);fill-opacity:1;" d="M 27.636719 4.363281 L 27.636719 10.183594 L 26.183594 10.183594 L 26.183594 5.816406 L 21.816406 5.816406 L 21.816406 4.363281 Z M 27.636719 4.363281 "/>
<path style=" stroke:none;fill-rule:nonzero;fill:rgb(30.196078%,30.196078%,30.196078%);fill-opacity:1;" d="M 5.816406 21.816406 L 5.816406 26.183594 L 10.183594 26.183594 L 10.183594 27.636719 L 4.363281 27.636719 L 4.363281 21.816406 Z M 5.816406 21.816406 "/>
<path style=" stroke:none;fill-rule:nonzero;fill:rgb(30.196078%,30.196078%,30.196078%);fill-opacity:1;" d="M 7.273438 7.273438 L 14.546875 7.273438 L 14.546875 24.726562 L 7.273438 24.726562 Z M 7.273438 7.273438 "/>
<path style=" stroke:none;fill-rule:nonzero;fill:rgb(30.196078%,30.196078%,30.196078%);fill-opacity:1;" d="M 20.363281 11.636719 L 24.726562 11.636719 L 24.726562 20.363281 L 20.363281 20.363281 Z M 20.363281 11.636719 "/>
<path style=" stroke:none;fill-rule:evenodd;fill:rgb(30.196078%,30.196078%,30.196078%);fill-opacity:1;" d="M 16 18.910156 L 18.910156 16 L 16 13.089844 Z M 16 18.910156 "/>
</g>
</svg>
