
<svg xmlns="http://www.w3.org/2000/svg" xmlns:xlink="http://www.w3.org/1999/xlink" width="32px" height="32px" viewBox="0 0 32 32" version="1.1">
<g id="surface1">
<path style="fill-rule:nonzero;fill:rgb(80%,80%,80%);fill-opacity:1;stroke-width:1;stroke-linecap:butt;stroke-linejoin:miter;stroke:rgb(23.137255%,20.392157%,20.392157%);stroke-opacity:1;stroke-miterlimit:4;" d="M 309.875 42.4375 C 287.1875 42.4375 268.4375 63.375 264.75 91 L 444.5625 91 C 440.875 63.375 422.1875 42.4375 399.4375 42.4375 Z M 309.875 42.4375 " transform="matrix(0.0625,0,0,0.0625,0,0)"/>
<path style=" stroke:none;fill-rule:nonzero;fill:#A9A9A9;fill-opacity:1;" d="M 4.121094 6.171875 L 27.878906 6.171875 C 29.757812 6.171875 31.28125 7.699219 31.28125 9.582031 L 31.28125 21.550781 C 31.28125 23.433594 29.757812 24.960938 27.878906 24.960938 L 4.121094 24.960938 C 2.242188 24.960938 0.71875 23.433594 0.71875 21.550781 L 0.71875 9.582031 C 0.71875 7.699219 2.242188 6.171875 4.121094 6.171875 Z M 4.121094 6.171875 "/>
<path style=" stroke:none;fill-rule:nonzero;fill:#A9A9A9;fill-opacity:1;" d="M 4.121094 10.558594 L 27.878906 10.558594 C 29.757812 10.558594 31.28125 12.085938 31.28125 13.96875 L 31.28125 25.9375 C 31.28125 27.820312 29.757812 29.347656 27.878906 29.347656 L 4.121094 29.347656 C 2.242188 29.347656 0.71875 27.820312 0.71875 25.9375 L 0.71875 13.96875 C 0.71875 12.085938 2.242188 10.558594 4.121094 10.558594 Z M 4.121094 10.558594 "/>
<path style=" stroke:none;fill-rule:nonzero;fill:rgb(100%,100%,100%);fill-opacity:1;" d="M 22.40625 14.800781 C 22.40625 15.945312 21.421875 16.875 20.210938 16.875 C 18.996094 16.875 18.011719 15.945312 18.011719 14.800781 C 18.011719 13.65625 18.996094 12.726562 20.210938 12.726562 C 21.421875 12.726562 22.40625 13.65625 22.40625 14.800781 Z M 22.40625 14.800781 "/>
<path style=" stroke:none;fill-rule:nonzero;fill:rgb(100%,100%,100%);fill-opacity:1;" d="M 20.238281 10.933594 C 18.039062 10.933594 16.246094 12.699219 16.246094 14.882812 C 16.246094 17.070312 18.039062 18.847656 20.238281 18.847656 C 22.4375 18.847656 24.214844 17.070312 24.214844 14.882812 C 24.214844 12.699219 22.4375 10.933594 20.238281 10.933594 Z M 20.238281 12.269531 C 21.699219 12.269531 22.871094 13.433594 22.871094 14.882812 C 22.871094 16.335938 21.699219 17.515625 20.238281 17.515625 C 18.777344 17.515625 17.589844 16.335938 17.589844 14.882812 C 17.589844 13.433594 18.777344 12.269531 20.238281 12.269531 Z M 20.238281 12.269531 "/>
<path style=" stroke:none;fill-rule:nonzero;fill:rgb(100%,100%,100%);fill-opacity:1;" d="M 16.261719 14.9375 L 13.734375 18.667969 L 14.566406 19.496094 C 14.976562 19.707031 15.316406 20.035156 15.53125 20.441406 L 16.355469 21.257812 L 20.136719 18.746094 Z M 16.261719 14.9375 "/>
<path style=" stroke:none;fill-rule:nonzero;fill:rgb(100%,100%,100%);fill-opacity:1;" d="M 15.527344 21.566406 C 15.527344 22.570312 14.78125 23.386719 13.867188 23.386719 C 12.949219 23.386719 12.207031 22.570312 12.207031 21.566406 C 12.207031 20.558594 12.949219 19.742188 13.867188 19.742188 C 14.78125 19.742188 15.527344 20.558594 15.527344 21.566406 Z M 15.527344 21.566406 "/>
<path style=" stroke:none;fill-rule:nonzero;fill:rgb(100%,100%,100%);fill-opacity:1;" d="M 13.523438 18.667969 C 11.953125 18.667969 10.679688 19.929688 10.679688 21.492188 C 10.679688 23.050781 11.953125 24.3125 13.523438 24.3125 C 15.09375 24.3125 16.367188 23.050781 16.367188 21.492188 C 16.367188 19.929688 15.09375 18.667969 13.523438 18.667969 Z M 13.523438 19.238281 C 14.777344 19.238281 15.792969 20.246094 15.792969 21.492188 C 15.792969 22.734375 14.777344 23.742188 13.523438 23.742188 C 12.269531 23.742188 11.253906 22.734375 11.253906 21.492188 C 11.253906 20.246094 12.269531 19.238281 13.523438 19.238281 Z M 13.523438 19.238281 "/>
<path style=" stroke:none;fill-rule:nonzero;fill:rgb(100%,100%,100%);fill-opacity:1;" d="M 8.699219 17.160156 L 8.699219 20.660156 L 13.390625 23.09375 C 13.410156 23.105469 13.433594 23.09375 13.445312 23.070312 L 14.4375 20.140625 C 14.445312 20.117188 14.425781 20.085938 14.40625 20.078125 L 8.699219 17.164062 Z M 8.699219 17.160156 "/>
</g>
</svg>
