
<svg xmlns="http://www.w3.org/2000/svg" xmlns:xlink="http://www.w3.org/1999/xlink" width="16px" height="16px" viewBox="0 0 16 16" version="1.1">
<g id="surface1">
<path style=" stroke:none;fill-rule:nonzero;fill:rgb(21.568627%,44.313725%,78.431373%);fill-opacity:1;" d="M 4.289062 0.863281 C 3.207031 0.863281 2.339844 1.734375 2.339844 2.816406 L 2.339844 13.1875 C 2.339844 14.265625 3.207031 15.136719 4.289062 15.136719 L 11.710938 15.136719 C 12.792969 15.136719 13.660156 14.265625 13.660156 13.1875 L 13.660156 3.175781 L 8.28125 0.863281 Z M 11.910156 0.875 C 12.042969 0.886719 12.171875 0.914062 12.292969 0.953125 C 12.171875 0.914062 12.042969 0.886719 11.910156 0.875 Z M 12.292969 0.953125 C 12.476562 1.007812 12.648438 1.089844 12.800781 1.195312 C 12.648438 1.089844 12.476562 1.007812 12.292969 0.953125 Z M 12.953125 1.308594 C 13 1.347656 13.046875 1.390625 13.089844 1.433594 C 13.046875 1.390625 13 1.347656 12.953125 1.308594 Z M 12.953125 1.308594 "/>
<path style=" stroke:none;fill-rule:nonzero;fill:rgb(100%,100%,100%);fill-opacity:0.682353;" d="M 13.660156 3.175781 L 8.28125 0.863281 L 8.28125 1.226562 C 8.28125 2.308594 9.148438 3.175781 10.230469 3.175781 Z M 13.660156 3.175781 "/>
<path style=" stroke:none;fill-rule:evenodd;fill:rgb(100%,100%,100%);fill-opacity:1;" d="M 11.25 6.894531 L 11.25 11.773438 L 4.75 11.773438 L 4.75 6.894531 Z M 9.53125 7.382812 L 5.398438 7.382812 L 5.398438 10.308594 L 6.699219 8.359375 L 8.222656 10.644531 L 9.136719 9.578125 L 10.601562 11.285156 L 10.601562 8.511719 C 10.488281 8.570312 10.363281 8.597656 10.234375 8.597656 C 9.785156 8.597656 9.421875 8.234375 9.421875 7.785156 C 9.421875 7.644531 9.460938 7.503906 9.53125 7.382812 Z M 6.855469 7.714844 L 7.46875 8.222656 C 7.46875 8.222656 7.417969 8.207031 7.949219 7.867188 L 7.519531 8.636719 Z M 8.667969 8.730469 L 8.289062 9.257812 L 8.042969 8.816406 C 8.347656 9.011719 8.320312 9.023438 8.320312 9.023438 Z M 8.667969 8.730469 "/>
</g>
</svg>
