
<svg xmlns="http://www.w3.org/2000/svg" xmlns:xlink="http://www.w3.org/1999/xlink" width="16px" height="16px" viewBox="0 0 16 16" version="1.1">
<g id="surface1">
<path style=" stroke:none;fill-rule:nonzero;fill:rgb(100%,100%,100%);fill-opacity:1;" d="M 11.4375 9.039062 C 11.308594 9.527344 10.625 9.871094 10.164062 10.09375 C 10.117188 9.789062 10.035156 9.488281 9.90625 9.203125 C 9.757812 9.453125 9.660156 9.730469 9.484375 9.964844 C 9.355469 10.136719 9.210938 10.300781 9.03125 10.429688 C 9.015625 10.4375 9 10.441406 8.984375 10.445312 C 8.890625 10.480469 8.800781 10.519531 8.71875 10.566406 C 8.351562 10.777344 8.082031 11.0625 7.875 11.394531 C 7.59375 11.84375 7.789062 12.417969 7.023438 12.847656 C 7.007812 12.863281 6.992188 12.875 6.976562 12.886719 C 6.980469 12.886719 6.980469 12.886719 6.980469 12.886719 C 6.792969 13.023438 6.421875 13.027344 6.578125 13.316406 C 6.664062 13.449219 6.726562 13.554688 6.832031 13.65625 C 6.828125 13.65625 6.828125 13.660156 6.824219 13.660156 C 7.097656 13.925781 7.496094 14.109375 7.925781 14.144531 C 8.136719 14.167969 8.4375 14.15625 8.5625 14.15625 C 9.632812 14.15625 10.65625 13.65625 11.269531 12.953125 C 11.3125 12.894531 11.492188 12.6875 11.496094 12.648438 C 11.78125 12.195312 12.09375 11.730469 12.113281 11.214844 C 11.804688 11.304688 11.484375 11.40625 11.15625 11.4375 C 11.15625 11.4375 11.160156 11.4375 11.164062 11.4375 C 11.164062 11.4375 11.167969 11.4375 11.167969 11.4375 C 11.167969 11.4375 11.167969 11.4375 11.171875 11.4375 C 11.085938 11.4375 10.925781 11.46875 10.886719 11.429688 C 11.25 11.027344 11.59375 10.585938 11.667969 10.078125 C 11.71875 9.726562 11.65625 9.34375 11.4375 9.039062 Z M 12.277344 9.820312 C 11.964844 9.875 12.324219 10.203125 12.25 10.378906 C 12.519531 10.304688 12.574219 9.894531 12.277344 9.820312 Z M 12.40625 10.511719 C 12.394531 10.511719 12.375 10.515625 12.367188 10.523438 C 12.171875 10.667969 12.304688 10.96875 12.175781 11.144531 C 12.265625 11.148438 12.359375 11.121094 12.441406 11.085938 C 12.703125 11 12.609375 10.640625 12.433594 10.519531 C 12.425781 10.511719 12.417969 10.511719 12.40625 10.511719 Z M 12.003906 10.527344 C 11.910156 10.523438 11.941406 10.773438 12.046875 10.777344 C 12.132812 10.78125 12.144531 10.632812 12.105469 10.566406 C 12.089844 10.539062 12.027344 10.527344 12.003906 10.527344 Z M 11.171875 11.4375 C 11.175781 11.4375 11.175781 11.4375 11.175781 11.4375 C 11.179688 11.4375 11.179688 11.4375 11.183594 11.4375 C 11.183594 11.4375 11.1875 11.4375 11.1875 11.4375 C 11.191406 11.4375 11.191406 11.4375 11.191406 11.4375 C 11.1875 11.4375 11.179688 11.4375 11.171875 11.4375 Z M 8.496094 11.488281 C 8.714844 11.488281 8.730469 11.828125 8.753906 11.980469 C 8.792969 12.210938 8.835938 12.464844 8.496094 12.550781 C 8.472656 12.5625 8.386719 12.617188 8.410156 12.546875 C 8.507812 12.382812 8.339844 11.960938 8.085938 12.171875 C 8.058594 11.933594 8.144531 11.660156 8.390625 11.511719 C 8.429688 11.496094 8.464844 11.488281 8.496094 11.488281 Z M 11.492188 12.640625 C 11.480469 12.644531 11.453125 12.660156 11.394531 12.707031 C 11.355469 12.730469 11.324219 12.742188 11.304688 12.746094 C 11.3125 12.742188 11.316406 12.742188 11.324219 12.738281 C 11.328125 12.738281 11.332031 12.738281 11.332031 12.738281 C 11.347656 12.730469 11.363281 12.726562 11.378906 12.714844 C 11.386719 12.714844 11.390625 12.710938 11.394531 12.707031 C 11.402344 12.703125 11.410156 12.695312 11.417969 12.6875 C 11.421875 12.6875 11.425781 12.683594 11.425781 12.683594 C 11.433594 12.679688 11.4375 12.675781 11.441406 12.671875 C 11.441406 12.671875 11.445312 12.667969 11.449219 12.667969 C 11.453125 12.664062 11.453125 12.660156 11.457031 12.660156 C 11.460938 12.65625 11.464844 12.65625 11.464844 12.652344 C 11.46875 12.652344 11.46875 12.652344 11.46875 12.652344 C 11.472656 12.652344 11.472656 12.648438 11.476562 12.648438 C 11.476562 12.648438 11.480469 12.644531 11.480469 12.644531 C 11.484375 12.644531 11.484375 12.644531 11.484375 12.644531 C 11.488281 12.644531 11.488281 12.644531 11.488281 12.644531 C 11.492188 12.640625 11.492188 12.640625 11.492188 12.640625 Z M 11.277344 12.746094 C 11.277344 12.746094 11.277344 12.746094 11.28125 12.746094 C 11.277344 12.746094 11.277344 12.746094 11.277344 12.746094 Z M 11.296875 12.746094 C 11.292969 12.746094 11.289062 12.746094 11.289062 12.746094 C 11.289062 12.746094 11.292969 12.746094 11.296875 12.746094 Z M 6.96875 12.890625 C 6.96875 12.894531 6.96875 12.894531 6.964844 12.894531 C 6.96875 12.894531 6.96875 12.894531 6.96875 12.890625 Z M 6.820312 13.652344 C 6.820312 13.65625 6.820312 13.65625 6.824219 13.65625 C 6.820312 13.65625 6.820312 13.65625 6.820312 13.652344 Z M 6.820312 13.652344 "/>
<path style=" stroke:none;fill-rule:nonzero;fill:rgb(10.588235%,63.921569%,61.176471%);fill-opacity:1;" d="M 4.289062 0.863281 C 3.207031 0.863281 2.339844 1.734375 2.339844 2.816406 L 2.339844 13.1875 C 2.339844 14.265625 3.207031 15.136719 4.289062 15.136719 L 11.710938 15.136719 C 12.792969 15.136719 13.660156 14.265625 13.660156 13.1875 L 13.660156 3.175781 L 8.28125 0.863281 Z M 11.910156 0.875 C 12.042969 0.886719 12.171875 0.914062 12.292969 0.953125 C 12.171875 0.914062 12.042969 0.886719 11.910156 0.875 Z M 12.292969 0.953125 C 12.476562 1.007812 12.648438 1.089844 12.800781 1.195312 C 12.648438 1.089844 12.476562 1.007812 12.292969 0.953125 Z M 12.953125 1.308594 C 13 1.347656 13.046875 1.390625 13.089844 1.433594 C 13.046875 1.390625 13 1.347656 12.953125 1.308594 Z M 12.953125 1.308594 "/>
<path style=" stroke:none;fill-rule:nonzero;fill:rgb(100%,100%,100%);fill-opacity:0.682353;" d="M 13.660156 3.175781 L 8.28125 0.863281 L 8.28125 1.226562 C 8.28125 2.308594 9.148438 3.175781 10.230469 3.175781 Z M 13.660156 3.175781 "/>
<path style=" stroke:none;fill-rule:nonzero;fill:rgb(100%,100%,100%);fill-opacity:1;" d="M 6.171875 1.402344 L 6.171875 2.5625 L 5.011719 2.5625 L 5.011719 3.722656 L 6.171875 3.722656 L 6.171875 4.878906 L 5.011719 4.878906 L 5.011719 6.039062 L 6.171875 6.039062 L 6.171875 7.777344 L 5.011719 7.777344 L 5.011719 10.097656 L 7.332031 10.097656 L 7.332031 7.777344 L 6.171875 7.777344 L 6.171875 7.199219 L 7.332031 7.199219 L 7.332031 6.039062 L 6.171875 6.039062 L 6.171875 4.878906 L 7.332031 4.878906 L 7.332031 3.722656 L 6.171875 3.722656 L 6.171875 2.5625 L 7.332031 2.5625 L 7.332031 1.402344 Z M 6.171875 1.402344 "/>
</g>
</svg>
