<?xml version="1.0" encoding="UTF-8"?>
<svg xmlns="http://www.w3.org/2000/svg" xmlns:xlink="http://www.w3.org/1999/xlink" width="32pt" height="32pt" viewBox="0 0 32 32" version="1.1">
<g id="surface1">
<path style="fill-rule:nonzero;fill:rgb(60%,60%,60%);fill-opacity:1;stroke-width:26.827003;stroke-linecap:butt;stroke-linejoin:miter;stroke:rgb(16.470588%,49.803922%,100%);stroke-opacity:1;stroke-miterlimit:4;" d="M 89.9375 36.25 L 422.0625 36.25 C 451.6875 36.25 475.75 60.3125 475.75 89.9375 L 475.75 422.0625 C 475.75 451.6875 451.6875 475.75 422.0625 475.75 L 89.9375 475.75 C 60.3125 475.75 36.25 451.6875 36.25 422.0625 L 36.25 89.9375 C 36.25 60.3125 60.3125 36.25 89.9375 36.25 Z M 89.9375 36.25 " transform="matrix(0.0625,0,0,0.0625,0,0)"/>
<path style=" stroke:none;fill-rule:nonzero;fill:rgb(100%,100%,100%);fill-opacity:1;" d="M 6.308594 10.988281 C 6.292969 10.945312 6.285156 9.5 6.296875 7.777344 L 6.3125 4.640625 L 25.96875 4.640625 L 25.96875 11.03125 L 16.152344 11.046875 C 8.332031 11.058594 6.332031 11.046875 6.308594 10.988281 Z M 6.308594 10.988281 "/>
<path style=" stroke:none;fill-rule:nonzero;fill:rgb(88.235294%,33.72549%,29.803922%);fill-opacity:1;" d="M 22.03125 27.542969 C 22.015625 27.503906 22.011719 25.472656 22.019531 23.035156 L 22.035156 18.605469 L 25.832031 18.605469 L 25.832031 27.589844 L 23.949219 27.605469 C 22.472656 27.617188 22.054688 27.605469 22.03125 27.542969 Z M 22.03125 27.542969 "/>
<path style=" stroke:none;fill-rule:nonzero;fill:rgb(19.607843%,30.196078%,35.686275%);fill-opacity:1;" d="M 16.777344 25.722656 L 16.792969 23.898438 L 20.46875 23.898438 L 20.488281 25.722656 L 20.503906 27.542969 L 16.761719 27.542969 Z M 16.777344 25.722656 "/>
<path style=" stroke:none;fill-rule:nonzero;fill:rgb(19.607843%,30.196078%,35.686275%);fill-opacity:1;" d="M 22.03125 15.136719 L 22.03125 13.296875 L 25.710938 13.296875 L 25.710938 16.976562 L 22.03125 16.976562 Z M 22.03125 15.136719 "/>
<path style=" stroke:none;fill-rule:nonzero;fill:rgb(19.607843%,30.196078%,35.686275%);fill-opacity:1;" d="M 6.324219 25.722656 L 6.339844 23.898438 L 8.195312 23.882812 L 10.046875 23.863281 L 10.046875 27.542969 L 6.308594 27.542969 Z M 6.324219 25.722656 "/>
<path style=" stroke:none;fill-rule:nonzero;fill:rgb(19.607843%,30.196078%,35.686275%);fill-opacity:1;" d="M 16.761719 16.976562 C 16.738281 16.953125 16.71875 16.125 16.71875 15.136719 L 16.71875 13.335938 L 20.460938 13.335938 L 20.445312 15.160156 L 20.425781 16.984375 L 18.613281 17 C 17.617188 17.007812 16.78125 16.996094 16.761719 16.976562 Z M 16.761719 16.976562 "/>
<path style=" stroke:none;fill-rule:nonzero;fill:rgb(19.607843%,30.196078%,35.686275%);fill-opacity:1;" d="M 6.308594 20.433594 L 6.308594 18.59375 L 9.988281 18.59375 L 9.988281 22.273438 L 6.308594 22.273438 Z M 6.308594 20.433594 "/>
<path style=" stroke:none;fill-rule:nonzero;fill:rgb(19.607843%,30.196078%,35.686275%);fill-opacity:1;" d="M 16.761719 22.273438 C 16.738281 22.25 16.71875 21.421875 16.71875 20.433594 L 16.71875 18.636719 L 20.457031 18.636719 L 20.457031 22.3125 L 18.628906 22.3125 C 17.625 22.3125 16.78125 22.292969 16.761719 22.273438 Z M 16.761719 22.273438 "/>
<path style=" stroke:none;fill-rule:nonzero;fill:rgb(19.607843%,30.196078%,35.686275%);fill-opacity:1;" d="M 11.597656 15.152344 L 11.613281 13.328125 L 13.464844 13.3125 L 15.320312 13.296875 L 15.320312 16.976562 L 11.582031 16.976562 Z M 11.597656 15.152344 "/>
<path style=" stroke:none;fill-rule:nonzero;fill:rgb(19.607843%,30.196078%,35.686275%);fill-opacity:1;" d="M 6.308594 15.167969 L 6.308594 13.359375 L 9.988281 13.359375 L 9.988281 16.976562 L 6.308594 16.976562 Z M 6.308594 15.167969 "/>
<path style=" stroke:none;fill-rule:nonzero;fill:rgb(19.607843%,30.196078%,35.686275%);fill-opacity:1;" d="M 11.625 22.203125 C 11.566406 22.164062 11.550781 21.765625 11.566406 20.410156 L 11.582031 18.664062 L 13.4375 18.648438 L 15.289062 18.632812 L 15.273438 20.429688 L 15.257812 22.222656 L 13.480469 22.238281 C 12.5 22.246094 11.667969 22.230469 11.625 22.203125 Z M 11.625 22.203125 "/>
<path style=" stroke:none;fill-rule:nonzero;fill:rgb(19.607843%,30.196078%,35.686275%);fill-opacity:1;" d="M 11.597656 25.722656 L 11.613281 23.898438 L 15.289062 23.898438 L 15.304688 25.722656 L 15.324219 27.542969 L 11.582031 27.542969 Z M 11.597656 25.722656 "/>
</g>
</svg>
