<?xml version="1.0" encoding="UTF-8"?>
<svg xmlns="http://www.w3.org/2000/svg" xmlns:xlink="http://www.w3.org/1999/xlink" width="96pt" height="96pt" viewBox="0 0 96 96" version="1.1">
<g id="surface1">
<path style=" stroke:none;fill-rule:nonzero;fill:rgb(30.196078%,30.196078%,30.196078%);fill-opacity:1;" d="M 48 5.8125 C 24.628906 5.8125 5.8125 24.628906 5.8125 48 C 5.8125 71.371094 24.628906 90.1875 48 90.1875 C 71.371094 90.1875 90.1875 71.371094 90.1875 48 C 90.1875 24.628906 71.371094 5.8125 48 5.8125 Z M 48 17.0625 C 65.140625 17.0625 78.9375 30.859375 78.9375 48 C 78.9375 65.140625 65.140625 78.9375 48 78.9375 C 30.859375 78.9375 17.0625 65.140625 17.0625 48 C 17.0625 30.859375 30.859375 17.0625 48 17.0625 Z M 31.125 31.125 L 31.125 45.1875 L 36.75 45.1875 L 36.75 31.125 Z M 59.25 31.125 L 59.25 45.1875 L 64.875 45.1875 L 64.875 31.125 Z M 40.96875 62.0625 L 40.96875 67.6875 L 55.03125 67.6875 L 55.03125 62.0625 Z M 40.96875 62.0625 "/>
</g>
</svg>
