
<svg xmlns="http://www.w3.org/2000/svg" xmlns:xlink="http://www.w3.org/1999/xlink" width="48px" height="48px" viewBox="0 0 48 48" version="1.1">
<g id="surface1">
<path style="fill-rule:nonzero;fill:rgb(100%,100%,100%);fill-opacity:1;stroke-width:28.191782;stroke-linecap:butt;stroke-linejoin:miter;stroke:rgb(6.27451%,63.137255%,37.254902%);stroke-opacity:1;stroke-miterlimit:4;" d="M 294.64285 58.016953 L 643.64285 58.016953 C 674.809517 58.016953 700.059517 83.266953 700.059517 114.43362 L 700.059517 463.43362 C 700.059517 494.600287 674.809517 519.850287 643.64285 519.850287 L 294.64285 519.850287 C 263.476183 519.850287 238.226183 494.600287 238.226183 463.43362 L 238.226183 114.43362 C 238.226183 83.266953 263.476183 58.016953 294.64285 58.016953 Z M 294.64285 58.016953 " transform="matrix(0.09375,0,0,0.09375,-19.982142,-3.087527)"/>
<path style=" stroke:none;fill-rule:nonzero;fill:rgb(5.882353%,63.137255%,37.254902%);fill-opacity:0.996078;" d="M 26.957031 10.917969 C 23.0625 10.917969 19.589844 13.261719 18.03125 16.90625 C 15.355469 17.257812 13.085938 19 12.03125 21.554688 C 8.011719 21.722656 4.78125 25.171875 4.78125 29.316406 C 4.78125 33.597656 8.152344 37.082031 12.324219 37.082031 L 35.675781 37.082031 C 39.847656 37.082031 43.21875 33.597656 43.21875 29.316406 C 43.21875 25.410156 40.453125 22.160156 36.714844 21.636719 C 36.730469 21.398438 36.742188 21.160156 36.742188 20.925781 C 36.742188 15.402344 32.34375 10.917969 26.957031 10.917969 Z M 22.464844 21.433594 L 27.433594 21.433594 L 27.460938 24.667969 L 27.492188 27.90625 L 28.957031 27.921875 C 29.761719 27.933594 30.445312 27.964844 30.472656 27.992188 C 30.503906 28.023438 29.378906 29.347656 27.789062 31.152344 C 26.28125 32.863281 25.007812 34.265625 24.953125 34.273438 C 24.859375 34.289062 19.414062 28.152344 19.414062 28.03125 C 19.414062 27.992188 19.941406 27.957031 20.910156 27.9375 L 22.40625 27.90625 L 22.4375 24.667969 Z M 22.464844 21.433594 "/>
</g>
</svg>
