
<svg xmlns="http://www.w3.org/2000/svg" xmlns:xlink="http://www.w3.org/1999/xlink" width="48px" height="48px" viewBox="0 0 48 48" version="1.1">
<g id="surface1">
<path style="fill-rule:nonzero;fill:rgb(100%,100%,100%);fill-opacity:1;stroke-width:28.191782;stroke-linecap:butt;stroke-linejoin:miter;stroke:rgb(10.588235%,63.921569%,53.72549%);stroke-opacity:1;stroke-miterlimit:4;" d="M 81.5 25.083333 L 430.5 25.083333 C 461.666667 25.083333 486.916667 50.333333 486.916667 81.5 L 486.916667 430.5 C 486.916667 461.666667 461.666667 486.916667 430.5 486.916667 L 81.5 486.916667 C 50.333333 486.916667 25.083333 461.666667 25.083333 430.5 L 25.083333 81.5 C 25.083333 50.333333 50.333333 25.083333 81.5 25.083333 Z M 81.5 25.083333 " transform="matrix(0.09375,0,0,0.09375,0,0)"/>
<path style=" stroke:none;fill-rule:nonzero;fill:rgb(10.588235%,63.921569%,53.72549%);fill-opacity:1;" d="M 9.796875 40.183594 C 9.324219 40.140625 8.953125 39.976562 8.628906 39.671875 C 7.753906 38.835938 7.558594 36.933594 8.054688 34.039062 C 9.039062 28.269531 12.515625 19.9375 16.191406 14.539062 C 18.78125 10.738281 21.246094 8.523438 23.535156 7.945312 C 24.082031 7.808594 24.601562 7.757812 24.972656 7.804688 C 26.773438 8.046875 28.632812 9.644531 30.667969 12.707031 C 32.953125 16.140625 35.40625 21.441406 37.597656 27.671875 C 38.976562 31.597656 40 35.28125 40.191406 36.996094 C 40.265625 37.671875 40.140625 38.039062 39.777344 38.203125 C 39.671875 38.25 39.550781 38.289062 39.511719 38.289062 C 39.363281 38.289062 39.054688 38.21875 38.953125 38.167969 C 38.707031 38.042969 38.3125 37.496094 37.789062 36.558594 C 37.484375 36.015625 36.226562 33.503906 35.691406 32.367188 C 33.859375 28.492188 32.019531 24.792969 30.824219 22.597656 C 28.351562 18.058594 26.378906 15.417969 24.949219 14.726562 C 24.125 14.332031 23.328125 14.65625 22.097656 15.882812 C 20.796875 17.183594 19.441406 19.117188 17.9375 21.8125 C 17.425781 22.738281 16.335938 24.929688 15.890625 25.945312 C 14.507812 29.078125 13.636719 31.835938 13.46875 33.601562 C 13.414062 34.222656 13.496094 34.6875 13.671875 34.746094 C 13.765625 34.773438 14.347656 34.707031 14.738281 34.625 C 15.476562 34.464844 17.253906 33.871094 19.167969 33.148438 C 19.984375 32.839844 22.160156 31.964844 23.914062 31.246094 C 27.632812 29.714844 28.726562 29.292969 30.160156 28.84375 C 30.609375 28.703125 30.726562 28.679688 31.0625 28.664062 C 31.414062 28.648438 31.464844 28.65625 31.609375 28.722656 C 31.820312 28.828125 31.945312 29.015625 31.964844 29.261719 C 31.980469 29.421875 31.964844 29.484375 31.871094 29.675781 C 31.714844 29.988281 31.4375 30.324219 30.914062 30.832031 C 29.335938 32.355469 26.5 34.386719 23.757812 35.957031 C 20.019531 38.09375 16.464844 39.464844 13.328125 39.972656 C 12.0625 40.179688 10.683594 40.261719 9.796875 40.183594 Z M 9.796875 40.183594 "/>
</g>
</svg>
