
<svg xmlns="http://www.w3.org/2000/svg" xmlns:xlink="http://www.w3.org/1999/xlink" width="48px" height="48px" viewBox="0 0 48 48" version="1.1">
<g id="surface1">
<path style="fill-rule:nonzero;fill:rgb(17.254902%,24.313725%,31.372549%);fill-opacity:1;stroke-width:7.207702;stroke-linecap:butt;stroke-linejoin:miter;stroke:rgb(20.392157%,59.607843%,85.882353%);stroke-opacity:1;stroke-miterlimit:4;" d="M 19.385417 4.96875 L 108.614583 4.96875 C 116.583333 4.96875 123.03125 11.416667 123.03125 19.385417 L 123.03125 108.614583 C 123.03125 116.583333 116.583333 123.03125 108.614583 123.03125 L 19.385417 123.03125 C 11.416667 123.03125 4.96875 116.583333 4.96875 108.614583 L 4.96875 19.385417 C 4.96875 11.416667 11.416667 4.96875 19.385417 4.96875 Z M 19.385417 4.96875 " transform="matrix(0.375,0,0,0.375,0,0)"/>
<path style=" stroke:none;fill-rule:nonzero;fill:rgb(20.392157%,59.607843%,85.882353%);fill-opacity:1;" d="M 2.773438 2.285156 L 10.738281 2.285156 L 10.738281 45.207031 L 2.773438 45.207031 Z M 2.773438 2.285156 "/>
<path style=" stroke:none;fill-rule:nonzero;fill:rgb(92.54902%,94.117647%,94.509804%);fill-opacity:1;" d="M 27.824219 13.507812 C 22.152344 13.507812 17.585938 18.074219 17.585938 23.746094 C 17.585938 23.808594 17.589844 23.871094 17.59375 23.933594 C 17.589844 24.003906 17.585938 24.070312 17.585938 24.140625 C 17.585938 25.0625 17.75 25.945312 18.035156 26.769531 C 19.320312 30.957031 23.203125 33.984375 27.824219 33.984375 C 33.496094 33.984375 38.0625 29.417969 38.0625 23.746094 C 38.0625 18.074219 33.496094 13.507812 27.824219 13.507812 Z M 27.824219 15.78125 C 32.234375 15.78125 35.789062 19.332031 35.789062 23.746094 C 35.789062 28.125 32.289062 31.652344 27.925781 31.707031 C 30.621094 30.855469 32.6875 28.617188 33.285156 25.816406 C 31.828125 27.492188 29.6875 28.550781 27.285156 28.550781 C 23.886719 28.550781 21.011719 26.433594 19.875 23.445312 C 20.03125 19.175781 23.511719 15.78125 27.824219 15.78125 Z M 27.824219 15.78125 "/>
</g>
</svg>
