
<svg xmlns="http://www.w3.org/2000/svg" xmlns:xlink="http://www.w3.org/1999/xlink" width="48px" height="48px" viewBox="0 0 48 48" version="1.1">
<g id="surface1">
<path style="fill-rule:nonzero;fill:rgb(100%,100%,100%);fill-opacity:1;stroke-width:28.191782;stroke-linecap:butt;stroke-linejoin:miter;stroke:rgb(6.27451%,40.784314%,63.137255%);stroke-opacity:1;stroke-miterlimit:4;" d="M 81.5 25.083333 L 430.5 25.083333 C 461.666667 25.083333 486.916667 50.333333 486.916667 81.5 L 486.916667 430.5 C 486.916667 461.666667 461.666667 486.916667 430.5 486.916667 L 81.5 486.916667 C 50.333333 486.916667 25.083333 461.666667 25.083333 430.5 L 25.083333 81.5 C 25.083333 50.333333 50.333333 25.083333 81.5 25.083333 Z M 81.5 25.083333 " transform="matrix(0.09375,0,0,0.09375,0,0)"/>
<path style=" stroke:none;fill-rule:nonzero;fill:rgb(5.882353%,36.078431%,83.921569%);fill-opacity:1;" d="M 26.703125 41.886719 C 26.589844 41.867188 25.953125 41.589844 25.292969 41.273438 C 23.570312 40.453125 22.882812 40.292969 21.074219 40.292969 C 18.34375 40.292969 17.808594 40.058594 16.5625 38.332031 C 16.148438 37.757812 16.101562 37.71875 15.554688 37.53125 C 14.558594 37.1875 13.679688 36.449219 13.238281 35.585938 C 13.019531 35.152344 12.980469 34.839844 13.070312 34.265625 C 13.128906 33.90625 13.121094 33.875 12.96875 33.875 C 12.601562 33.875 11.882812 33.527344 11.515625 33.167969 C 11.097656 32.757812 10.734375 32.058594 10.675781 31.53125 L 10.636719 31.1875 L 9.804688 31.222656 C 8.5625 31.277344 7.78125 31.050781 7.101562 30.433594 C 6.621094 30.003906 6.378906 29.441406 6.378906 28.765625 C 6.378906 28.296875 6.410156 28.175781 6.609375 27.902344 C 6.738281 27.726562 6.910156 27.523438 6.996094 27.457031 C 7.234375 27.261719 7.753906 26.414062 7.941406 25.917969 C 8.03125 25.667969 8.203125 25.015625 8.316406 24.464844 C 8.433594 23.914062 8.621094 23.269531 8.734375 23.027344 C 9.109375 22.253906 10.035156 21.765625 11.160156 21.761719 C 12.007812 21.757812 12.507812 21.933594 12.960938 22.398438 C 13.160156 22.601562 13.371094 22.765625 13.429688 22.765625 C 13.511719 22.765625 13.917969 22.089844 14.179688 21.511719 C 14.195312 21.480469 14.082031 21.378906 13.925781 21.285156 C 13.578125 21.082031 13.453125 20.820312 13.453125 20.292969 C 13.453125 19.328125 13.960938 18.871094 15.785156 18.191406 C 16.371094 17.976562 16.472656 17.902344 16.828125 17.453125 C 17.5 16.613281 18.324219 15.246094 19.398438 13.179688 C 19.960938 12.09375 20.617188 10.867188 20.847656 10.457031 C 21.082031 10.042969 21.4375 9.265625 21.640625 8.726562 C 22.148438 7.378906 22.28125 7.261719 23.796875 6.847656 C 26.363281 6.140625 27.101562 6.023438 28.140625 6.152344 C 29.917969 6.375 30.882812 7.074219 31.683594 8.734375 C 32.355469 10.125 32.492188 10.972656 32.257812 12.273438 C 32.191406 12.636719 32.136719 13.433594 32.132812 14.042969 C 32.128906 15.257812 32.003906 16.046875 31.71875 16.605469 C 31.617188 16.800781 31.085938 17.40625 30.539062 17.953125 C 29.988281 18.496094 29.433594 19.101562 29.304688 19.292969 L 29.066406 19.640625 L 29.210938 20.175781 C 29.40625 20.910156 29.835938 21.777344 30.195312 22.175781 C 30.359375 22.355469 30.730469 22.679688 31.023438 22.894531 C 31.40625 23.175781 31.695312 23.488281 32.050781 24.007812 C 32.742188 25.015625 33.324219 25.394531 34.289062 25.464844 C 34.832031 25.503906 34.847656 25.5 35.125 25.222656 C 35.425781 24.921875 35.523438 24.65625 35.683594 23.710938 C 35.777344 23.15625 35.769531 23.097656 35.605469 22.773438 C 35.285156 22.164062 35.382812 21.933594 36.0625 21.667969 C 36.765625 21.398438 37.566406 21.554688 37.566406 21.960938 C 37.566406 22.058594 37.34375 22.441406 37.070312 22.816406 C 36.46875 23.644531 36.082031 24.433594 36.082031 24.835938 C 36.082031 25.414062 36.773438 25.90625 37.375 25.761719 C 37.863281 25.644531 38.441406 25.277344 39.042969 24.703125 C 39.746094 24.035156 40.09375 23.875 40.699219 23.945312 C 41.289062 24.015625 41.597656 24.199219 41.597656 24.484375 C 41.597656 25.054688 40.984375 25.414062 39.664062 25.605469 C 38.492188 25.777344 38.035156 25.984375 37.425781 26.640625 C 36.496094 27.640625 36.292969 27.8125 35.71875 28.082031 C 34.871094 28.484375 33.828125 28.644531 32.628906 28.5625 C 31.25 28.46875 30.75 28.484375 30.199219 28.648438 C 29.511719 28.847656 28.648438 28.859375 28.457031 28.667969 C 28.261719 28.476562 28.371094 28.296875 28.847656 28.046875 C 29.1875 27.867188 29.277344 27.859375 30.148438 27.898438 C 31.242188 27.953125 31.597656 27.859375 31.691406 27.488281 C 31.828125 26.945312 30.742188 25.515625 29.46875 24.558594 C 28.59375 23.902344 28.308594 23.628906 28.003906 23.152344 C 27.84375 22.90625 27.71875 22.785156 27.671875 22.835938 C 27.628906 22.878906 27.523438 23.386719 27.433594 23.96875 C 27.148438 25.886719 26.671875 27.25 25.867188 28.449219 C 25.074219 29.632812 24.273438 30.304688 22.394531 31.363281 C 22.175781 31.488281 22.027344 31.617188 22.066406 31.648438 C 22.105469 31.683594 22.394531 31.792969 22.710938 31.898438 C 23.3125 32.09375 25.402344 33.097656 26.042969 33.5 C 27.367188 34.332031 28.539062 35.730469 28.71875 36.691406 C 28.792969 37.082031 28.640625 37.527344 28.363281 37.746094 L 28.140625 37.917969 L 28.433594 37.878906 C 28.933594 37.8125 29.925781 37.34375 30.5625 36.875 C 31.078125 36.492188 31.222656 36.425781 31.527344 36.425781 C 31.945312 36.425781 32.214844 36.636719 32.214844 36.964844 C 32.214844 37.289062 31.867188 37.546875 31.203125 37.707031 C 30.878906 37.785156 30.332031 37.96875 29.992188 38.113281 C 29.285156 38.417969 28.285156 38.648438 26.4375 38.933594 C 25.054688 39.152344 24.644531 39.292969 24.644531 39.554688 C 24.644531 39.808594 24.902344 40.003906 25.558594 40.253906 C 27.3125 40.910156 27.855469 41.210938 27.855469 41.527344 C 27.855469 41.605469 27.800781 41.71875 27.730469 41.773438 C 27.597656 41.886719 27.03125 41.949219 26.703125 41.886719 Z M 26.703125 41.886719 "/>
</g>
</svg>
