
<svg xmlns="http://www.w3.org/2000/svg" xmlns:xlink="http://www.w3.org/1999/xlink" width="48px" height="48px" viewBox="0 0 48 48" version="1.1">
<g id="surface1">
<path style="fill-rule:nonzero;fill:rgb(100%,100%,100%);fill-opacity:1;stroke-width:6.764574;stroke-linecap:butt;stroke-linejoin:miter;stroke:rgb(0%,50.196078%,50.196078%);stroke-opacity:1;stroke-miterlimit:4;" d="M 406.69643 428.39175 L 490.44643 428.39175 C 497.91518 428.39175 503.97768 434.45425 503.97768 441.923 L 503.97768 525.673 C 503.97768 533.14175 497.91518 539.20425 490.44643 539.20425 L 406.69643 539.20425 C 399.22768 539.20425 393.16518 533.14175 393.16518 525.673 L 393.16518 441.923 C 393.16518 434.45425 399.22768 428.39175 406.69643 428.39175 Z M 406.69643 428.39175 " transform="matrix(0.375,0,0,0.375,-144.214286,-157.42425)"/>
<path style=" stroke:none;fill-rule:evenodd;fill:rgb(0%,50.196078%,50.196078%);fill-opacity:1;" d="M 19.242188 7.617188 C 17.054688 7.742188 15.445312 10.742188 15.648438 14.320312 C 15.851562 17.898438 17.789062 20.699219 19.980469 20.574219 C 22.167969 20.449219 23.777344 17.449219 23.574219 13.871094 C 23.371094 10.292969 21.433594 7.492188 19.242188 7.617188 Z M 31.25 8.71875 C 29.390625 8.808594 27.328125 10.640625 26.167969 13.238281 C 24.703125 16.511719 25.140625 19.886719 27.140625 20.78125 C 29.144531 21.679688 31.953125 19.75 33.414062 16.480469 C 34.878906 13.207031 34.441406 9.828125 32.441406 8.933594 C 32.078125 8.773438 31.675781 8.699219 31.25 8.71875 Z M 9.664062 13.355469 C 9.390625 13.355469 9.128906 13.398438 8.875 13.480469 C 6.792969 14.167969 6.015625 17.484375 7.136719 20.886719 C 8.257812 24.289062 10.859375 26.492188 12.941406 25.804688 C 15.023438 25.121094 15.800781 21.804688 14.679688 18.398438 C 13.710938 15.46875 11.613281 13.359375 9.664062 13.355469 Z M 38.882812 16.976562 C 37.023438 16.84375 34.761719 18.421875 33.304688 20.867188 C 31.46875 23.945312 31.507812 27.351562 33.390625 28.472656 C 35.273438 29.597656 38.289062 28.011719 40.121094 24.933594 C 41.957031 21.855469 41.921875 18.449219 40.039062 17.328125 C 39.695312 17.125 39.304688 17.003906 38.882812 16.976562 Z M 23.164062 21.101562 C 21.628906 21.097656 20.03125 22.0625 18.949219 24.148438 C 17.085938 26.355469 16.445312 27.164062 12.460938 29.058594 C 10.484375 30.460938 9.523438 32.398438 9.992188 35.089844 C 11.265625 39.363281 15.304688 39.503906 16.863281 39.519531 C 19.035156 39.757812 20.949219 39.394531 23.378906 40.230469 C 25.699219 40.410156 27.902344 41.183594 30.351562 40.742188 C 36.074219 38.929688 34.972656 32.914062 31.707031 30.71875 L 27.296875 24.605469 C 26.5625 22.34375 24.902344 21.101562 23.164062 21.101562 Z M 23.164062 21.101562 "/>
</g>
</svg>
