
<svg xmlns="http://www.w3.org/2000/svg" xmlns:xlink="http://www.w3.org/1999/xlink" width="48px" height="48px" viewBox="0 0 48 48" version="1.1">
<g id="surface1">
<path style="fill-rule:nonzero;fill:rgb(87.45098%,82.352941%,1.176471%);fill-opacity:1;stroke-width:22.636312;stroke-linecap:butt;stroke-linejoin:miter;stroke:rgb(6.27451%,27.45098%,63.137255%);stroke-opacity:1;stroke-miterlimit:4;" d="M 69.863259 24.609367 L 350.136609 24.609367 C 375.121953 24.609367 395.390501 44.877916 395.390501 69.863259 L 395.390501 350.136609 C 395.390501 375.121953 375.121953 395.390501 350.136609 395.390501 L 69.863259 395.390501 C 44.877916 395.390501 24.609367 375.121953 24.609367 350.136609 L 24.609367 69.863259 C 24.609367 44.877916 44.877916 24.609367 69.863259 24.609367 Z M 69.863259 24.609367 " transform="matrix(0.114286,0,0,0.114286,0,0)"/>
<path style=" stroke:none;fill-rule:nonzero;fill:rgb(100%,100%,100%);fill-opacity:1;" d="M 23.199219 37.363281 L 23.257812 35.308594 L 25.199219 35.308594 L 25.257812 37.363281 L 25.3125 39.421875 L 27.257812 39.421875 L 27.3125 37.363281 L 27.371094 35.308594 L 29.371094 35.238281 C 30.472656 35.199219 31.527344 35.117188 31.714844 35.054688 C 32.984375 34.632812 34.523438 33.347656 35.050781 32.273438 C 35.867188 30.609375 35.847656 28.550781 34.996094 26.976562 C 34.609375 26.257812 33.601562 25.226562 32.882812 24.8125 C 32.585938 24.636719 31.980469 24.40625 31.535156 24.292969 C 31.09375 24.179688 30.730469 24.050781 30.730469 24.003906 C 30.726562 23.957031 31.046875 23.625 31.441406 23.269531 C 32.300781 22.492188 32.921875 21.5625 33.273438 20.53125 C 33.667969 19.371094 33.648438 17.664062 33.222656 16.503906 C 32.359375 14.144531 30.339844 12.644531 27.65625 12.367188 L 27.371094 12.335938 L 27.3125 10.277344 L 27.257812 8.222656 L 25.3125 8.222656 L 25.257812 10.277344 L 25.199219 12.335938 L 23.257812 12.335938 L 23.199219 10.277344 L 23.144531 8.222656 L 21.199219 8.222656 L 21.144531 10.277344 L 21.085938 12.335938 L 16.972656 12.394531 L 12.855469 12.449219 L 12.855469 14.277344 L 16.855469 14.394531 L 16.855469 33.25 L 12.855469 33.363281 L 12.855469 35.191406 L 16.972656 35.25 L 21.085938 35.308594 L 21.117188 37.25 C 21.132812 38.320312 21.167969 39.257812 21.199219 39.339844 C 21.238281 39.449219 21.507812 39.480469 22.199219 39.453125 L 23.144531 39.421875 Z M 23.199219 37.363281 "/>
<path style=" stroke:none;fill-rule:nonzero;fill:rgb(87.45098%,82.352941%,1.176471%);fill-opacity:1;" d="M 23.28125 33.351562 C 23.238281 33.304688 23.199219 31.636719 23.199219 29.644531 C 23.199219 26.441406 23.222656 26.007812 23.378906 25.949219 C 23.621094 25.855469 28.851562 25.859375 29.535156 25.953125 C 30.34375 26.0625 31.398438 26.75 31.90625 27.488281 C 32.484375 28.335938 32.753906 29.425781 32.578125 30.234375 C 32.292969 31.566406 31.578125 32.527344 30.457031 33.082031 C 29.894531 33.359375 29.832031 33.363281 26.625 33.398438 C 24.832031 33.417969 23.328125 33.398438 23.28125 33.351562 Z M 23.28125 33.351562 "/>
<path style=" stroke:none;fill-rule:nonzero;fill:rgb(87.45098%,82.352941%,1.176471%);fill-opacity:1;" d="M 23.339844 22.46875 C 23.230469 22.398438 23.203125 21.539062 23.226562 18.558594 L 23.257812 14.734375 L 25.429688 14.734375 C 27.59375 14.734375 27.601562 14.738281 28.273438 15.066406 C 29.128906 15.484375 29.707031 16.066406 30.125 16.917969 C 30.417969 17.511719 30.457031 17.71875 30.457031 18.621094 C 30.453125 19.792969 30.21875 20.429688 29.492188 21.234375 C 28.527344 22.304688 27.691406 22.566406 25.265625 22.5625 C 24.285156 22.5625 23.421875 22.519531 23.339844 22.46875 Z M 23.339844 22.46875 "/>
</g>
</svg>
