
<svg xmlns="http://www.w3.org/2000/svg" xmlns:xlink="http://www.w3.org/1999/xlink" width="48px" height="48px" viewBox="0 0 48 48" version="1.1">
<g id="surface1">
<path style="fill-rule:nonzero;fill:rgb(100%,100%,100%);fill-opacity:1;stroke-width:7.220923;stroke-linecap:butt;stroke-linejoin:miter;stroke:rgb(16.862745%,65.882353%,92.156863%);stroke-opacity:1;stroke-miterlimit:4;" d="M 23.029773 170.121275 L 112.436904 170.121275 C 120.407478 170.121275 126.878746 176.592544 126.878746 184.563118 L 126.878746 273.970249 C 126.878746 281.940823 120.407478 288.412091 112.436904 288.412091 L 23.029773 288.412091 C 15.059199 288.412091 8.58793 281.940823 8.58793 273.970249 L 8.58793 184.563118 C 8.58793 176.592544 15.059199 170.121275 23.029773 170.121275 Z M 23.029773 170.121275 " transform="matrix(0.354331,0,0,0.354331,0.00000177165,-57.236214)"/>
<path style=" stroke:none;fill-rule:nonzero;fill:rgb(17.647059%,17.647059%,17.647059%);fill-opacity:1;" d="M 39.082031 24.011719 C 39.082031 32.378906 32.296875 39.160156 23.933594 39.160156 C 15.566406 39.160156 8.785156 32.378906 8.785156 24.011719 C 8.785156 15.644531 15.566406 8.863281 23.933594 8.863281 C 32.296875 8.863281 39.082031 15.644531 39.082031 24.011719 Z M 39.082031 24.011719 "/>
<path style=" stroke:none;fill-rule:nonzero;fill:rgb(17.647059%,17.647059%,17.647059%);fill-opacity:1;" d="M 41.941406 24 C 41.941406 33.90625 33.90625 41.941406 24 41.941406 C 14.09375 41.941406 6.058594 33.90625 6.058594 24 C 6.058594 14.09375 14.09375 6.058594 24 6.058594 C 33.90625 6.058594 41.941406 14.09375 41.941406 24 Z M 41.941406 24 "/>
<path style=" stroke:none;fill-rule:nonzero;fill:rgb(9.019608%,24.705882%,49.411765%);fill-opacity:1;" d="M 38.492188 24 C 38.492188 32.003906 32.003906 38.492188 24 38.492188 C 15.996094 38.492188 9.507812 32.003906 9.507812 24 C 9.507812 15.996094 15.996094 9.507812 24 9.507812 C 32.003906 9.507812 38.492188 15.996094 38.492188 24 Z M 38.492188 24 "/>
<path style=" stroke:none;fill-rule:nonzero;fill:rgb(13.333333%,35.294118%,72.156863%);fill-opacity:1;" d="M 33.996094 24 C 33.996094 29.519531 29.519531 33.996094 24 33.996094 C 18.480469 33.996094 14.003906 29.519531 14.003906 24 C 14.003906 18.480469 18.480469 14.003906 24 14.003906 C 29.519531 14.003906 33.996094 18.480469 33.996094 24 Z M 33.996094 24 "/>
<path style=" stroke:none;fill-rule:nonzero;fill:rgb(3.921569%,9.411765%,18.823529%);fill-opacity:1;" d="M 32.144531 24 C 32.144531 28.496094 28.496094 32.144531 24 32.144531 C 19.503906 32.144531 15.855469 28.496094 15.855469 24 C 15.855469 19.503906 19.503906 15.855469 24 15.855469 C 28.496094 15.855469 32.144531 19.503906 32.144531 24 Z M 32.144531 24 "/>
<path style=" stroke:none;fill-rule:nonzero;fill:rgb(67.843137%,79.607843%,96.078431%);fill-opacity:1;" d="M 26.445312 19.773438 C 24.808594 19.773438 23.484375 21.101562 23.484375 22.734375 C 23.484375 24.367188 24.808594 25.691406 26.445312 25.691406 C 28.078125 25.691406 29.402344 24.367188 29.402344 22.734375 C 29.402344 21.101562 28.078125 19.773438 26.445312 19.773438 Z M 21.058594 24.609375 C 20.1875 24.609375 19.476562 25.316406 19.476562 26.191406 C 19.476562 27.066406 20.1875 27.773438 21.058594 27.773438 C 21.933594 27.773438 22.640625 27.066406 22.640625 26.191406 C 22.640625 25.316406 21.933594 24.609375 21.058594 24.609375 Z M 21.058594 24.609375 "/>
<path style=" stroke:none;fill-rule:nonzero;fill:rgb(17.647059%,17.647059%,17.647059%);fill-opacity:0.501961;" d="M 24 9.585938 C 20.703125 9.585938 17.507812 10.710938 14.9375 12.773438 L 17.800781 16.238281 C 19.566406 14.839844 21.75 14.082031 24 14.082031 C 29.519531 14.082031 33.996094 18.558594 33.996094 24.078125 C 33.992188 26.976562 32.730469 29.734375 30.535156 31.628906 L 33.398438 35.089844 C 36.625 32.339844 38.488281 28.316406 38.492188 24.078125 C 38.492188 16.074219 32.003906 9.585938 24 9.585938 Z M 24 9.585938 "/>
</g>
</svg>
