
<svg xmlns="http://www.w3.org/2000/svg" xmlns:xlink="http://www.w3.org/1999/xlink" width="48px" height="48px" viewBox="0 0 48 48" version="1.1">
<g id="surface1">
<path style="fill-rule:nonzero;fill:rgb(100%,100%,100%);fill-opacity:1;stroke-width:6.815335;stroke-linecap:butt;stroke-linejoin:miter;stroke:rgb(29.019608%,68.235294%,90.980392%);stroke-opacity:1;stroke-miterlimit:4;" d="M 21.8125 8.177083 L 106.1875 8.177083 C 113.71875 8.177083 119.822917 14.28125 119.822917 21.8125 L 119.822917 106.1875 C 119.822917 113.71875 113.71875 119.822917 106.1875 119.822917 L 21.8125 119.822917 C 14.28125 119.822917 8.177083 113.71875 8.177083 106.1875 L 8.177083 21.8125 C 8.177083 14.28125 14.28125 8.177083 21.8125 8.177083 Z M 21.8125 8.177083 " transform="matrix(0.375,0,0,0.375,0,0)"/>
<path style=" stroke:none;fill-rule:nonzero;fill:rgb(100%,58.039216%,3.529412%);fill-opacity:1;" d="M 23.65625 16.566406 L 18.394531 27.09375 L 28.921875 27.09375 M 23.65625 20.175781 L 26.285156 25.4375 L 21.019531 25.4375 L 23.652344 20.175781 M 23.65625 20.175781 "/>
<path style=" stroke:none;fill-rule:nonzero;fill:rgb(80%,80%,80%);fill-opacity:1;" d="M 13.777344 7.828125 L 13.777344 10.960938 L 11.152344 10.90625 L 11.152344 14.003906 L 13.777344 14.070312 L 13.777344 32.488281 L 11.152344 32.445312 L 11.152344 35.539062 L 13.777344 35.59375 L 13.777344 37.589844 L 12.460938 37.589844 L 14.4375 40.386719 L 16.410156 37.589844 L 15.09375 37.589844 L 15.09375 35.59375 L 24.304688 35.539062 C 31.589844 35.492188 37.460938 30.050781 37.460938 23.226562 C 37.460938 16.398438 31.589844 10.90625 24.304688 10.90625 L 15.09375 10.964844 L 15.09375 7.828125 M 15.09375 14.070312 L 24.304688 14.003906 C 29.816406 13.957031 34.15625 18.066406 34.15625 23.226562 C 34.15625 28.394531 29.816406 32.449219 24.304688 32.449219 L 15.09375 32.496094 M 15.09375 14.078125 "/>
<path style=" stroke:none;fill-rule:nonzero;fill:rgb(0%,50.196078%,50.196078%);fill-opacity:1;" d="M 12.585938 10.457031 L 16.152344 10.457031 L 16.152344 14.554688 L 12.585938 14.554688 M 12.585938 10.457031 "/>
</g>
</svg>
