
<svg xmlns="http://www.w3.org/2000/svg" xmlns:xlink="http://www.w3.org/1999/xlink" width="48px" height="48px" viewBox="0 0 48 48" version="1.1">
<defs>
<linearGradient id="linear0" gradientUnits="userSpaceOnUse" x1="1" y1="0" x2="47" y2="0" gradientTransform="matrix(1,0,0,1,-48.000001,0.00221467)">
<stop offset="0" style="stop-color:rgb(31.764706%,72.156863%,87.45098%);stop-opacity:1;"/>
<stop offset="1" style="stop-color:rgb(38.431373%,74.509804%,88.627451%);stop-opacity:1;"/>
</linearGradient>
</defs>
<g id="surface1">
<path style="fill-rule:nonzero;fill:url(#linear0);stroke-width:1.4;stroke-linecap:butt;stroke-linejoin:miter;stroke:rgb(10.980392%,45.490196%,58.823529%);stroke-opacity:1;stroke-miterlimit:4;" d="M -42.999999 1 L -5 1 C -2.789062 1 -1 2.789062 -1 5 L -1 42.999999 C -1 45.210936 -2.789062 46.999999 -5 46.999999 L -42.999999 46.999999 C -45.210936 46.999999 -46.999999 45.210936 -46.999999 42.999999 L -46.999999 5 C -46.999999 2.789062 -45.210936 1 -42.999999 1 Z M -42.999999 1 " transform="matrix(0,-1,1,0,0,0)"/>
<path style=" stroke:none;fill-rule:nonzero;fill:rgb(0%,0%,0%);fill-opacity:0.0196078;" d="M 14.859375 45.421875 L 14.859375 45.671875 C 14.859375 47.886719 16.640625 49.671875 18.859375 49.671875 L 56.859375 49.671875 C 59.074219 49.671875 60.859375 47.886719 60.859375 45.671875 L 60.859375 45.421875 C 60.859375 47.636719 59.074219 49.421875 56.859375 49.421875 L 18.859375 49.421875 C 16.640625 49.421875 14.859375 47.636719 14.859375 45.421875 Z M 14.859375 45.921875 L 14.859375 46.421875 C 14.859375 48.636719 16.640625 50.421875 18.859375 50.421875 L 56.859375 50.421875 C 59.074219 50.421875 60.859375 48.636719 60.859375 46.421875 L 60.859375 45.921875 C 60.859375 48.136719 59.074219 49.921875 56.859375 49.921875 L 18.859375 49.921875 C 16.640625 49.921875 14.859375 48.136719 14.859375 45.921875 Z M 14.859375 45.921875 "/>
<path style=" stroke:none;fill-rule:nonzero;fill:rgb(0%,0%,0%);fill-opacity:0.0509804;" d="M 14.859375 45.671875 L 14.859375 45.921875 C 14.859375 48.136719 16.640625 49.921875 18.859375 49.921875 L 56.859375 49.921875 C 59.074219 49.921875 60.859375 48.136719 60.859375 45.921875 L 60.859375 45.671875 C 60.859375 47.886719 59.074219 49.671875 56.859375 49.671875 L 18.859375 49.671875 C 16.640625 49.671875 14.859375 47.886719 14.859375 45.671875 Z M 14.859375 45.671875 "/>
<path style=" stroke:none;fill-rule:nonzero;fill:rgb(0%,0%,0%);fill-opacity:0.101961;" d="M 14.859375 45.421875 L 14.859375 45.671875 C 14.859375 47.886719 16.640625 49.671875 18.859375 49.671875 L 56.859375 49.671875 C 59.074219 49.671875 60.859375 47.886719 60.859375 45.671875 L 60.859375 45.421875 C 60.859375 47.636719 59.074219 49.421875 56.859375 49.421875 L 18.859375 49.421875 C 16.640625 49.421875 14.859375 47.636719 14.859375 45.421875 Z M 14.859375 45.421875 "/>
<path style=" stroke:none;fill-rule:nonzero;fill:rgb(100%,100%,100%);fill-opacity:1;" d="M 27.453125 10.34375 C 25.996094 10.34375 24.796875 11.679688 24.558594 13.449219 L 36.089844 13.449219 C 35.851562 11.679688 34.652344 10.34375 33.195312 10.34375 Z M 27.453125 10.34375 "/>
<path style=" stroke:none;fill-rule:nonzero;fill:rgb(90.196078%,90.196078%,90.196078%);fill-opacity:1;" d="M 11.816406 13.945312 C 9.882812 13.945312 8.328125 15.503906 8.328125 17.4375 L 8.328125 34.164062 C 8.328125 36.097656 9.882812 37.65625 11.816406 37.65625 L 36.183594 37.65625 C 38.117188 37.65625 39.671875 36.097656 39.671875 34.164062 L 39.671875 17.4375 C 39.671875 15.503906 38.117188 13.945312 36.183594 13.945312 Z M 11.816406 13.945312 "/>
</g>
</svg>
