
<svg xmlns="http://www.w3.org/2000/svg" xmlns:xlink="http://www.w3.org/1999/xlink" width="48px" height="48px" viewBox="0 0 48 48" version="1.1">
<g id="surface1">
<path style=" stroke:none;fill-rule:nonzero;fill:rgb(80%,80%,80%);fill-opacity:1;" d="M 28.988281 4.285156 C 26.882812 4.285156 25.152344 6.214844 24.808594 8.765625 L 41.453125 8.765625 C 41.109375 6.214844 39.378906 4.285156 37.273438 4.285156 Z M 28.988281 4.285156 "/>
<path style=" stroke:none;fill-rule:nonzero;fill:rgb(14.509804%,68.235294%,87.45098%);fill-opacity:1;" d="M 6.410156 9.484375 L 41.589844 9.484375 C 44.371094 9.484375 46.625 11.742188 46.625 14.523438 L 46.625 32.199219 C 46.625 34.980469 44.371094 37.238281 41.589844 37.238281 L 6.410156 37.238281 C 3.628906 37.238281 1.375 34.980469 1.375 32.199219 L 1.375 14.523438 C 1.375 11.742188 3.628906 9.484375 6.410156 9.484375 Z M 6.410156 9.484375 "/>
<path style=" stroke:none;fill-rule:nonzero;fill:rgb(14.509804%,68.235294%,87.45098%);fill-opacity:1;" d="M 6.410156 15.960938 L 41.589844 15.960938 C 44.371094 15.960938 46.625 18.214844 46.625 21 L 46.625 38.675781 C 46.625 41.457031 44.371094 43.714844 41.589844 43.714844 L 6.410156 43.714844 C 3.628906 43.714844 1.375 41.457031 1.375 38.675781 L 1.375 21 C 1.375 18.214844 3.628906 15.960938 6.410156 15.960938 Z M 6.410156 15.960938 "/>
<path style="fill-rule:nonzero;fill:rgb(100%,100%,100%);fill-opacity:1;stroke-width:11.742473;stroke-linecap:butt;stroke-linejoin:miter;stroke:rgb(100%,100%,100%);stroke-opacity:1;stroke-miterlimit:4;" d="M 189.333334 191.583334 L 189.333334 206.500001 L 286.833334 206.500001 L 330.125001 259.333334 L 330.125001 363.166668 L 316.583334 363.166668 L 316.583334 376.000001 L 342.916668 376.000001 L 342.333334 256.250001 L 342.333334 253.125001 L 291.916668 191.583334 Z M 189.500001 216.250001 L 189.500001 246.083334 L 201.750001 246.083334 L 201.750001 216.250001 Z M 189.500001 275.916668 L 189.500001 305.791668 L 201.750001 305.791668 L 201.750001 275.916668 Z M 189.500001 338.208334 L 189.500001 363.166668 L 169.041668 363.166668 L 169.041668 375.958334 L 189.500001 375.958334 L 189.500001 398.541668 L 201.708334 398.541668 L 201.708334 375.958334 L 222.208334 375.958334 L 222.208334 363.166668 L 201.708334 363.166668 L 201.708334 338.208334 Z M 248.791668 363.166668 L 248.791668 376.000001 L 283.833334 376.000001 L 283.833334 363.166668 Z M 248.791668 363.166668 " transform="matrix(0.09375,0,0,0.09375,-0.0000000942328,-0.0000000856142)"/>
</g>
</svg>
