
<svg xmlns="http://www.w3.org/2000/svg" xmlns:xlink="http://www.w3.org/1999/xlink" width="48px" height="48px" viewBox="0 0 48 48" version="1.1">
<g id="surface1">
<path style="fill-rule:nonzero;fill:rgb(92.54902%,92.54902%,92.54902%);fill-opacity:1;stroke-width:16.591911;stroke-linecap:butt;stroke-linejoin:miter;stroke:rgb(29.019608%,68.235294%,90.980392%);stroke-opacity:1;stroke-miterlimit:4;" d="M 47.29003 14.111325 L 252.709912 14.111325 C 271.044869 14.111325 285.888616 28.955072 285.888616 47.29003 L 285.888616 252.709912 C 285.888616 271.044869 271.044869 285.888616 252.709912 285.888616 L 47.29003 285.888616 C 28.955072 285.888616 14.111325 271.044869 14.111325 252.709912 L 14.111325 47.29003 C 14.111325 28.955072 28.955072 14.111325 47.29003 14.111325 Z M 47.29003 14.111325 " transform="matrix(0.16,0,0,0.16,0,0)"/>
<path style=" stroke:none;fill-rule:evenodd;fill:rgb(95.686275%,95.686275%,95.686275%);fill-opacity:1;" d="M 6.941406 3 C 18.515625 3.011719 30.09375 2.96875 41.667969 3.019531 C 44.042969 3.179688 45.570312 5.59375 45.257812 7.835938 C 45.242188 19.132812 45.285156 30.429688 45.234375 41.722656 C 45.074219 44.097656 42.660156 45.625 40.417969 45.3125 C 29.121094 45.300781 17.824219 45.339844 6.53125 45.292969 C 4.15625 45.128906 2.628906 42.71875 2.941406 40.476562 C 2.953125 29.179688 2.914062 17.882812 2.960938 6.589844 C 3.125 4.597656 4.941406 2.957031 6.941406 3 Z M 6.941406 3 "/>
<path style=" stroke:none;fill-rule:evenodd;fill:rgb(0%,0%,0%);fill-opacity:1;" d="M 3.34375 17.269531 C 17.179688 17.269531 31.015625 17.269531 44.855469 17.269531 C 45.996094 18.003906 44.160156 18.21875 43.539062 18.070312 C 30.140625 18.070312 16.742188 18.070312 3.34375 18.070312 C 2.816406 18.074219 2.816406 17.261719 3.34375 17.269531 Z M 3.34375 17.269531 "/>
<path style=" stroke:none;fill-rule:evenodd;fill:rgb(0%,0%,0%);fill-opacity:1;" d="M 3.34375 31.761719 C 17.179688 31.761719 31.015625 31.761719 44.851562 31.761719 C 45.992188 32.5 44.15625 32.710938 43.535156 32.5625 C 30.136719 32.5625 16.742188 32.5625 3.34375 32.5625 C 2.820312 32.570312 2.820312 31.757812 3.34375 31.761719 Z M 3.34375 31.761719 "/>
<path style=" stroke:none;fill-rule:evenodd;fill:rgb(0%,0%,0%);fill-opacity:1;" d="M 16.773438 3.398438 C 16.777344 17.234375 16.78125 31.070312 16.785156 44.90625 C 16.046875 46.046875 15.832031 44.214844 15.984375 43.589844 C 15.976562 30.195312 15.976562 16.796875 15.972656 3.398438 C 15.964844 2.875 16.777344 2.875 16.773438 3.398438 Z M 16.773438 3.398438 "/>
<path style=" stroke:none;fill-rule:evenodd;fill:rgb(0%,0%,0%);fill-opacity:1;" d="M 31.953125 3.402344 C 31.957031 17.238281 31.960938 31.070312 31.964844 44.90625 C 31.226562 46.046875 31.011719 44.210938 31.164062 43.589844 C 31.160156 30.195312 31.15625 16.796875 31.152344 3.402344 C 31.144531 2.878906 31.957031 2.878906 31.953125 3.402344 Z M 31.953125 3.402344 "/>
<path style=" stroke:none;fill-rule:evenodd;fill:rgb(90.196078%,90.196078%,90.196078%);fill-opacity:1;" d="M 3.023438 24.953125 C 3.023438 22.667969 3.023438 20.382812 3.023438 18.097656 C 7.324219 18.097656 11.621094 18.097656 15.921875 18.097656 C 15.921875 22.621094 15.921875 27.148438 15.921875 31.671875 C 11.664062 31.679688 7.398438 31.648438 3.148438 31.722656 C 2.921875 29.488281 3.070312 27.203125 3.023438 24.953125 Z M 3.023438 24.953125 "/>
<path style=" stroke:none;fill-rule:evenodd;fill:rgb(90.196078%,90.196078%,90.196078%);fill-opacity:1;" d="M 16.800781 10.121094 C 16.789062 7.765625 16.78125 5.40625 16.769531 3.050781 C 21.558594 3.050781 26.351562 3.050781 31.140625 3.050781 C 31.117188 7.765625 31.097656 12.476562 31.078125 17.191406 C 26.328125 17.191406 21.578125 17.191406 16.832031 17.191406 C 16.820312 14.835938 16.8125 12.476562 16.800781 10.121094 Z M 16.800781 10.121094 "/>
<path style=" stroke:none;fill-rule:evenodd;fill:rgb(90.196078%,90.196078%,90.196078%);fill-opacity:1;" d="M 5.785156 45.082031 C 3.011719 44.285156 2.839844 41.203125 3.023438 38.824219 C 3.023438 36.742188 3.023438 34.660156 3.023438 32.578125 C 7.324219 32.578125 11.621094 32.578125 15.917969 32.578125 C 15.9375 36.800781 15.957031 41.027344 15.976562 45.25 C 12.582031 45.195312 9.167969 45.355469 5.785156 45.082031 Z M 5.785156 45.082031 "/>
<path style=" stroke:none;fill-rule:evenodd;fill:rgb(90.196078%,90.196078%,90.196078%);fill-opacity:1;" d="M 16.800781 38.914062 C 16.8125 36.800781 16.820312 34.691406 16.832031 32.578125 C 21.578125 32.578125 26.328125 32.578125 31.078125 32.578125 C 31.097656 36.800781 31.117188 41.027344 31.140625 45.25 C 26.351562 45.25 21.558594 45.25 16.769531 45.25 C 16.78125 43.136719 16.789062 41.027344 16.800781 38.914062 Z M 16.800781 38.914062 "/>
<path style=" stroke:none;fill-rule:evenodd;fill:rgb(94.901961%,94.901961%,94.901961%);fill-opacity:1;" d="M 31.960938 38.921875 C 31.972656 36.808594 31.980469 34.695312 31.992188 32.582031 C 36.402344 32.5625 40.8125 32.542969 45.222656 32.523438 C 45.15625 35.839844 45.410156 39.183594 45.003906 42.480469 C 44.5 44.117188 42.777344 45.449219 41.03125 45.199219 C 37.996094 45.21875 34.964844 45.238281 31.929688 45.257812 C 31.941406 43.144531 31.953125 41.03125 31.960938 38.921875 Z M 31.960938 38.921875 "/>
<path style=" stroke:none;fill-rule:evenodd;fill:rgb(100%,100%,100%);fill-opacity:1;" d="M 31.988281 38.902344 C 31.988281 36.792969 31.988281 34.6875 31.988281 32.578125 C 36.398438 32.578125 40.8125 32.578125 45.222656 32.578125 C 45.175781 35.921875 45.34375 39.292969 44.894531 42.609375 C 44.421875 43.832031 43.207031 45.042969 41.859375 45.125 C 38.570312 45.15625 35.277344 45.191406 31.988281 45.226562 C 31.988281 43.117188 31.988281 41.011719 31.988281 38.902344 Z M 31.988281 38.902344 "/>
<path style=" stroke:none;fill-rule:evenodd;fill:rgb(100%,100%,100%);fill-opacity:1;" d="M 16.828125 38.914062 C 16.828125 36.800781 16.828125 34.691406 16.828125 32.578125 C 21.578125 32.578125 26.332031 32.578125 31.082031 32.578125 C 31.082031 36.800781 31.082031 41.027344 31.082031 45.25 C 26.332031 45.25 21.578125 45.25 16.828125 45.25 C 16.828125 43.136719 16.828125 41.027344 16.828125 38.914062 Z M 16.828125 38.914062 "/>
<path style=" stroke:none;fill-rule:evenodd;fill:rgb(100%,100%,100%);fill-opacity:1;" d="M 10.480469 45.199219 C 8.605469 44.84375 6.386719 45.699219 4.773438 44.480469 C 2.828125 43.3125 3.148438 40.914062 3.070312 38.976562 C 3.023438 36.84375 3.03125 34.710938 3.023438 32.578125 C 7.324219 32.578125 11.621094 32.578125 15.921875 32.578125 C 15.921875 36.800781 15.921875 41.027344 15.921875 45.25 C 14.109375 45.238281 12.292969 45.285156 10.480469 45.199219 Z M 10.480469 45.199219 "/>
<path style=" stroke:none;fill-rule:evenodd;fill:rgb(100%,100%,100%);fill-opacity:1;" d="M 3.097656 29.28125 C 3.003906 25.550781 3.027344 21.824219 3.023438 18.097656 C 7.324219 18.097656 11.621094 18.097656 15.921875 18.097656 C 15.921875 22.621094 15.921875 27.148438 15.921875 31.671875 C 11.671875 31.671875 7.421875 31.671875 3.171875 31.671875 C 3.148438 30.875 3.125 30.078125 3.097656 29.28125 Z M 3.097656 29.28125 "/>
<path style=" stroke:none;fill-rule:evenodd;fill:rgb(100%,100%,100%);fill-opacity:1;" d="M 16.828125 10.121094 C 16.828125 7.765625 16.828125 5.40625 16.828125 3.050781 C 21.578125 3.050781 26.332031 3.050781 31.082031 3.050781 C 31.082031 7.765625 31.082031 12.476562 31.082031 17.191406 C 26.332031 17.191406 21.578125 17.191406 16.828125 17.191406 C 16.828125 14.835938 16.828125 12.476562 16.828125 10.121094 Z M 16.828125 10.121094 "/>
<path style=" stroke:none;fill-rule:nonzero;fill:rgb(0%,0%,0%);fill-opacity:1;" d="M 37.816406 9.644531 C 38.261719 9.644531 38.679688 9.707031 39.066406 9.832031 C 39.453125 9.953125 39.789062 10.140625 40.074219 10.382812 C 40.363281 10.625 40.585938 10.929688 40.75 11.289062 C 40.910156 11.652344 40.992188 12.070312 40.992188 12.542969 C 40.992188 13.058594 40.914062 13.519531 40.761719 13.933594 C 40.609375 14.34375 40.378906 14.691406 40.078125 14.976562 C 39.777344 15.261719 39.402344 15.480469 38.957031 15.628906 C 38.511719 15.78125 38 15.855469 37.421875 15.855469 C 37.191406 15.855469 36.964844 15.84375 36.742188 15.820312 C 36.519531 15.800781 36.304688 15.765625 36.097656 15.722656 C 35.894531 15.679688 35.695312 15.625 35.511719 15.558594 C 35.328125 15.492188 35.160156 15.410156 35.011719 15.320312 L 35.011719 14.15625 C 35.160156 14.261719 35.335938 14.351562 35.535156 14.433594 C 35.734375 14.515625 35.945312 14.582031 36.167969 14.636719 C 36.390625 14.691406 36.613281 14.734375 36.835938 14.761719 C 37.058594 14.792969 37.265625 14.808594 37.457031 14.808594 C 37.8125 14.808594 38.132812 14.765625 38.410156 14.679688 C 38.691406 14.597656 38.929688 14.46875 39.121094 14.292969 C 39.316406 14.117188 39.464844 13.894531 39.570312 13.628906 C 39.671875 13.359375 39.726562 13.042969 39.726562 12.679688 C 39.726562 12.03125 39.527344 11.539062 39.128906 11.199219 C 38.730469 10.859375 38.15625 10.6875 37.394531 10.6875 C 37.273438 10.6875 37.140625 10.695312 37 10.707031 C 36.855469 10.714844 36.714844 10.730469 36.574219 10.75 C 36.429688 10.765625 36.292969 10.785156 36.164062 10.804688 C 36.035156 10.824219 35.925781 10.84375 35.832031 10.863281 L 35.21875 10.476562 L 35.59375 5.816406 L 40.269531 5.816406 L 40.269531 6.941406 L 36.664062 6.941406 L 36.398438 9.78125 C 36.542969 9.753906 36.734375 9.722656 36.972656 9.691406 C 37.210938 9.660156 37.492188 9.644531 37.816406 9.644531 Z M 37.816406 9.644531 "/>
<path style=" stroke:none;fill-rule:nonzero;fill:rgb(0%,0%,0%);fill-opacity:1;" d="M 34.652344 25.742188 C 34.652344 25.292969 34.675781 24.847656 34.722656 24.402344 C 34.765625 23.957031 34.84375 23.53125 34.957031 23.125 C 35.070312 22.71875 35.226562 22.339844 35.421875 21.988281 C 35.621094 21.636719 35.871094 21.332031 36.171875 21.074219 C 36.476562 20.816406 36.839844 20.613281 37.261719 20.464844 C 37.683594 20.316406 38.179688 20.246094 38.75 20.246094 C 38.828125 20.246094 38.917969 20.246094 39.015625 20.25 C 39.117188 20.253906 39.214844 20.261719 39.316406 20.273438 C 39.417969 20.285156 39.511719 20.296875 39.605469 20.3125 C 39.695312 20.328125 39.777344 20.34375 39.851562 20.367188 L 39.851562 21.359375 C 39.703125 21.308594 39.53125 21.269531 39.34375 21.246094 C 39.15625 21.21875 38.96875 21.207031 38.789062 21.207031 C 38.402344 21.207031 38.066406 21.25 37.773438 21.34375 C 37.480469 21.433594 37.226562 21.5625 37.011719 21.730469 C 36.796875 21.898438 36.621094 22.097656 36.476562 22.328125 C 36.335938 22.558594 36.21875 22.8125 36.128906 23.09375 C 36.039062 23.371094 35.972656 23.671875 35.929688 23.988281 C 35.886719 24.304688 35.859375 24.632812 35.847656 24.972656 L 35.921875 24.972656 C 36.007812 24.820312 36.113281 24.675781 36.234375 24.539062 C 36.355469 24.40625 36.5 24.289062 36.660156 24.195312 C 36.820312 24.097656 37.003906 24.023438 37.207031 23.96875 C 37.410156 23.914062 37.640625 23.882812 37.890625 23.882812 C 38.296875 23.882812 38.664062 23.949219 38.992188 24.074219 C 39.320312 24.199219 39.601562 24.382812 39.832031 24.628906 C 40.0625 24.871094 40.242188 25.167969 40.367188 25.523438 C 40.492188 25.875 40.558594 26.277344 40.558594 26.730469 C 40.558594 27.214844 40.488281 27.65625 40.359375 28.042969 C 40.226562 28.433594 40.035156 28.761719 39.789062 29.035156 C 39.539062 29.304688 39.242188 29.511719 38.890625 29.660156 C 38.539062 29.804688 38.148438 29.878906 37.710938 29.878906 C 37.285156 29.878906 36.882812 29.792969 36.507812 29.625 C 36.136719 29.460938 35.8125 29.207031 35.539062 28.863281 C 35.265625 28.523438 35.050781 28.09375 34.890625 27.574219 C 34.734375 27.058594 34.652344 26.449219 34.652344 25.742188 Z M 37.699219 28.894531 C 37.953125 28.894531 38.1875 28.851562 38.398438 28.765625 C 38.609375 28.675781 38.792969 28.546875 38.945312 28.367188 C 39.101562 28.191406 39.21875 27.964844 39.304688 27.695312 C 39.386719 27.421875 39.429688 27.101562 39.429688 26.730469 C 39.429688 26.429688 39.394531 26.164062 39.320312 25.925781 C 39.25 25.6875 39.144531 25.484375 39.003906 25.320312 C 38.863281 25.152344 38.6875 25.023438 38.476562 24.933594 C 38.265625 24.84375 38.019531 24.800781 37.738281 24.800781 C 37.449219 24.800781 37.1875 24.851562 36.953125 24.949219 C 36.714844 25.050781 36.511719 25.183594 36.34375 25.34375 C 36.179688 25.503906 36.050781 25.683594 35.957031 25.890625 C 35.867188 26.09375 35.820312 26.300781 35.820312 26.503906 C 35.820312 26.792969 35.859375 27.078125 35.941406 27.359375 C 36.019531 27.644531 36.136719 27.898438 36.292969 28.125 C 36.445312 28.351562 36.644531 28.539062 36.878906 28.683594 C 37.113281 28.824219 37.386719 28.894531 37.699219 28.894531 Z M 37.699219 28.894531 "/>
<path style=" stroke:none;fill-rule:nonzero;fill:rgb(0%,0%,0%);fill-opacity:1;" d="M 26.046875 27.695312 L 24.742188 27.695312 L 24.742188 29.886719 L 23.660156 29.886719 L 23.660156 27.695312 L 19.519531 27.695312 L 19.519531 26.632812 L 23.589844 20.0625 L 24.742188 20.0625 L 24.742188 26.585938 L 26.046875 26.585938 Z M 23.660156 26.585938 L 23.660156 24.207031 C 23.660156 23.957031 23.664062 23.695312 23.671875 23.421875 C 23.675781 23.148438 23.683594 22.878906 23.691406 22.621094 C 23.699219 22.359375 23.707031 22.113281 23.71875 21.886719 C 23.730469 21.660156 23.734375 21.472656 23.742188 21.320312 L 23.6875 21.320312 C 23.65625 21.410156 23.621094 21.507812 23.578125 21.617188 C 23.535156 21.726562 23.488281 21.835938 23.4375 21.945312 C 23.386719 22.054688 23.332031 22.160156 23.28125 22.261719 C 23.226562 22.363281 23.179688 22.453125 23.132812 22.523438 L 20.613281 26.585938 Z M 23.660156 26.585938 "/>
<path style=" stroke:none;fill-rule:nonzero;fill:rgb(99.215686%,49.411765%,0%);fill-opacity:0.996078;" d="M 10.214844 15.550781 L 9.054688 15.550781 L 9.054688 9.535156 C 9.054688 9.34375 9.054688 9.144531 9.058594 8.929688 C 9.058594 8.710938 9.0625 8.5 9.070312 8.285156 C 9.078125 8.070312 9.082031 7.867188 9.089844 7.671875 C 9.09375 7.476562 9.101562 7.304688 9.105469 7.15625 C 9.03125 7.234375 8.964844 7.300781 8.90625 7.359375 C 8.851562 7.417969 8.792969 7.472656 8.734375 7.523438 C 8.675781 7.578125 8.613281 7.632812 8.546875 7.691406 C 8.480469 7.75 8.402344 7.820312 8.308594 7.898438 L 7.332031 8.695312 L 6.699219 7.886719 L 9.226562 5.914062 L 10.214844 5.914062 Z M 10.214844 15.550781 "/>
</g>
</svg>
