
<svg xmlns="http://www.w3.org/2000/svg" xmlns:xlink="http://www.w3.org/1999/xlink" width="48px" height="48px" viewBox="0 0 48 48" version="1.1">
<g id="surface1">
<path style="fill-rule:nonzero;fill:rgb(50.196078%,50.196078%,50.196078%);fill-opacity:1;stroke-width:7.115766;stroke-linecap:butt;stroke-linejoin:miter;stroke:rgb(86.27451%,86.27451%,86.27451%);stroke-opacity:1;stroke-miterlimit:4;" d="M 19.947917 5.71875 L 108.052083 5.71875 C 115.90625 5.71875 122.28125 12.09375 122.28125 19.947917 L 122.28125 108.052083 C 122.28125 115.90625 115.90625 122.28125 108.052083 122.28125 L 19.947917 122.28125 C 12.09375 122.28125 5.71875 115.90625 5.71875 108.052083 L 5.71875 19.947917 C 5.71875 12.09375 12.09375 5.71875 19.947917 5.71875 Z M 19.947917 5.71875 " transform="matrix(0.375,0,0,0.375,0,0)"/>
<path style=" stroke:none;fill-rule:nonzero;fill:rgb(100%,100%,100%);fill-opacity:1;" d="M 40.296875 22.4375 C 40.296875 31.585938 32.878906 39.003906 23.730469 39.003906 C 14.582031 39.003906 7.164062 31.585938 7.164062 22.4375 C 7.164062 13.285156 14.582031 5.871094 23.730469 5.871094 C 32.878906 5.871094 40.296875 13.285156 40.296875 22.4375 Z M 40.296875 22.4375 "/>
<path style=" stroke:none;fill-rule:nonzero;fill:rgb(50.196078%,50.196078%,50.196078%);fill-opacity:1;" d="M 24 3.742188 C 12.8125 3.742188 3.742188 12.8125 3.742188 24 C 3.742188 35.191406 12.8125 44.257812 24 44.257812 C 35.191406 44.257812 44.257812 35.191406 44.257812 24 C 44.257812 12.8125 35.191406 3.742188 24 3.742188 Z M 23.859375 8.03125 C 26.511719 8.019531 27.128906 8.09375 28.503906 8.523438 C 33.023438 9.9375 36.394531 12.84375 38.421875 17.035156 C 39.589844 19.449219 40.003906 21.402344 39.898438 24.210938 C 39.800781 26.757812 39.507812 27.625 38.492188 28.152344 C 37.816406 28.5 37.359375 28.542969 36.519531 28.289062 C 34.777344 27.761719 33.679688 26.703125 31.105469 23.296875 C 28.421875 19.75 24.96875 16.273438 22.734375 14.785156 C 21.113281 13.707031 18.652344 12.535156 17.316406 12.253906 C 16.636719 12.109375 16.558594 12.132812 16.683594 12.605469 C 16.757812 12.878906 16.890625 14.21875 16.964844 15.558594 C 17.191406 19.558594 16.53125 22.433594 14.925781 24.5625 C 13.148438 26.917969 10.316406 28.035156 8.945312 26.953125 C 7.925781 26.148438 7.6875 24.148438 8.242188 21.046875 C 8.820312 17.8125 10.257812 15.1875 12.746094 12.675781 C 14.675781 10.722656 16.597656 9.511719 19.074219 8.664062 C 20.601562 8.144531 21.089844 8.054688 23.859375 8.03125 Z M 23.859375 8.03125 "/>
</g>
</svg>
