
<svg xmlns="http://www.w3.org/2000/svg" xmlns:xlink="http://www.w3.org/1999/xlink" width="48px" height="48px" viewBox="0 0 48 48" version="1.1">
<g id="surface1">
<path style="fill-rule:evenodd;fill:rgb(16.078431%,50.196078%,72.54902%);fill-opacity:1;stroke-width:28.26631;stroke-linecap:butt;stroke-linejoin:miter;stroke:rgb(100%,100%,100%);stroke-opacity:1;stroke-miterlimit:4;" d="M 91.625 45.125 L 420.375 45.125 C 446.041667 45.125 466.875 65.958333 466.875 91.625 L 466.875 420.375 C 466.875 446.041667 446.041667 466.875 420.375 466.875 L 91.625 466.875 C 65.958333 466.875 45.125 446.041667 45.125 420.375 L 45.125 91.625 C 45.125 65.958333 65.958333 45.125 91.625 45.125 Z M 91.625 45.125 " transform="matrix(0.09375,0,0,0.09375,0,0)"/>
<path style=" stroke:none;fill-rule:nonzero;fill:rgb(13.333333%,21.176471%,33.72549%);fill-opacity:1;" d="M 12.601562 18.984375 L 12.601562 36.890625 L 15.683594 36.890625 L 15.683594 18.984375 Z M 12.601562 13.5 L 12.601562 16.582031 L 15.683594 16.582031 L 15.683594 13.5 Z M 12.601562 13.5 "/>
<path style=" stroke:none;fill-rule:nonzero;fill:rgb(13.333333%,21.176471%,33.72549%);fill-opacity:1;" d="M 32.183594 17.460938 C 32.25 21.113281 30.195312 21.84375 25.496094 21.84375 L 22.078125 21.84375 L 22.078125 13.855469 L 27.019531 13.855469 C 30.140625 13.855469 32.136719 14.785156 32.183594 17.460938 Z M 32.351562 29.386719 C 32.351562 32.84375 31.253906 34.179688 27.761719 34.179688 L 22.078125 34.179688 L 22.078125 24.445312 L 26.574219 24.445312 C 30.066406 24.445312 32.351562 25.152344 32.351562 29.386719 Z M 31.8125 22.738281 C 33.890625 21.734375 35.15625 19.429688 35.15625 17.3125 C 35.15625 15.417969 34.523438 13.855469 33.335938 12.78125 C 32.070312 11.664062 30.140625 11.109375 28.058594 11.109375 L 18.992188 11.109375 L 18.992188 36.890625 L 27.351562 36.890625 C 30.585938 36.890625 31.964844 36.53125 33.710938 34.96875 C 35.34375 33.484375 35.398438 30.949219 35.398438 29.089844 C 35.398438 25.710938 34.746094 24.089844 31.8125 22.738281 Z M 31.8125 22.738281 "/>
<path style=" stroke:none;fill-rule:nonzero;fill:rgb(80%,80%,80%);fill-opacity:1;" d="M 39.367188 31.859375 C 39.367188 30.296875 38.074219 29.035156 36.476562 29.035156 C 34.878906 29.035156 33.585938 30.296875 33.585938 31.859375 C 33.585938 33.417969 34.878906 34.679688 36.476562 34.679688 C 38.074219 34.679688 39.367188 33.417969 39.367188 31.859375 Z M 39.367188 31.859375 "/>
<path style=" stroke:none;fill-rule:nonzero;fill:rgb(80%,80%,80%);fill-opacity:1;" d="M 35.855469 36.285156 C 35.777344 36.25 35.695312 36.164062 35.660156 36.074219 C 35.640625 36.027344 35.621094 35.851562 35.605469 35.574219 C 35.589844 35.335938 35.574219 35.125 35.566406 35.101562 C 35.554688 35.070312 35.5 35.042969 35.363281 34.992188 C 35.261719 34.957031 35.109375 34.894531 35.023438 34.851562 C 34.9375 34.808594 34.847656 34.773438 34.824219 34.773438 C 34.796875 34.773438 34.660156 34.886719 34.457031 35.070312 C 34.28125 35.234375 34.105469 35.382812 34.070312 35.398438 C 33.996094 35.4375 33.835938 35.445312 33.75 35.414062 C 33.683594 35.386719 32.972656 34.6875 32.929688 34.601562 C 32.882812 34.515625 32.886719 34.359375 32.9375 34.261719 C 32.960938 34.21875 33.113281 34.039062 33.273438 33.867188 C 33.445312 33.679688 33.5625 33.53125 33.5625 33.507812 C 33.5625 33.488281 33.527344 33.398438 33.484375 33.3125 C 33.441406 33.226562 33.378906 33.074219 33.34375 32.972656 C 33.304688 32.871094 33.261719 32.78125 33.246094 32.773438 C 33.226562 32.761719 33.019531 32.742188 32.78125 32.730469 C 32.507812 32.714844 32.320312 32.695312 32.269531 32.675781 C 32.167969 32.640625 32.046875 32.515625 32.03125 32.425781 C 32.023438 32.390625 32.023438 32.117188 32.027344 31.824219 L 32.03125 31.292969 L 32.09375 31.214844 C 32.203125 31.078125 32.253906 31.066406 32.769531 31.03125 C 33.0625 31.015625 33.242188 30.996094 33.257812 30.980469 C 33.269531 30.96875 33.3125 30.867188 33.355469 30.757812 C 33.394531 30.648438 33.457031 30.496094 33.496094 30.421875 C 33.53125 30.347656 33.5625 30.269531 33.5625 30.25 C 33.5625 30.230469 33.441406 30.082031 33.292969 29.917969 C 33.140625 29.75 32.996094 29.589844 32.972656 29.554688 C 32.902344 29.460938 32.875 29.34375 32.90625 29.230469 C 32.925781 29.144531 32.964844 29.097656 33.292969 28.769531 C 33.492188 28.566406 33.6875 28.382812 33.726562 28.363281 C 33.824219 28.3125 33.972656 28.3125 34.066406 28.359375 C 34.109375 28.382812 34.28125 28.527344 34.453125 28.6875 C 34.628906 28.84375 34.78125 28.980469 34.792969 28.988281 C 34.808594 29 34.902344 28.964844 35.015625 28.910156 C 35.125 28.859375 35.285156 28.792969 35.375 28.765625 C 35.496094 28.722656 35.542969 28.699219 35.558594 28.664062 C 35.570312 28.636719 35.59375 28.421875 35.605469 28.183594 C 35.632812 27.726562 35.648438 27.65625 35.742188 27.558594 C 35.84375 27.449219 35.90625 27.441406 36.488281 27.445312 L 37.019531 27.453125 L 37.105469 27.507812 C 37.246094 27.601562 37.265625 27.660156 37.296875 28.167969 C 37.316406 28.414062 37.332031 28.632812 37.339844 28.65625 C 37.34375 28.691406 37.390625 28.714844 37.53125 28.765625 C 37.632812 28.796875 37.796875 28.867188 37.890625 28.917969 C 37.988281 28.964844 38.078125 29.003906 38.085938 29.003906 C 38.09375 29.003906 38.25 28.867188 38.429688 28.703125 C 38.613281 28.539062 38.792969 28.382812 38.835938 28.363281 C 38.929688 28.3125 39.074219 28.3125 39.179688 28.363281 C 39.230469 28.386719 39.402344 28.542969 39.617188 28.757812 C 39.984375 29.128906 40.011719 29.171875 40.011719 29.339844 C 40.011719 29.460938 39.960938 29.539062 39.644531 29.882812 C 39.472656 30.070312 39.332031 30.234375 39.332031 30.242188 C 39.332031 30.253906 39.375 30.355469 39.429688 30.46875 C 39.484375 30.582031 39.550781 30.742188 39.574219 30.824219 C 39.605469 30.925781 39.632812 30.976562 39.660156 30.988281 C 39.683594 31 39.90625 31.019531 40.152344 31.035156 C 40.648438 31.066406 40.726562 31.085938 40.808594 31.203125 C 40.886719 31.3125 40.894531 31.394531 40.890625 31.933594 L 40.882812 32.445312 L 40.824219 32.53125 C 40.714844 32.683594 40.6875 32.691406 40.140625 32.730469 C 39.875 32.746094 39.648438 32.765625 39.644531 32.769531 C 39.636719 32.777344 39.605469 32.863281 39.570312 32.960938 C 39.535156 33.058594 39.464844 33.21875 39.417969 33.316406 C 39.367188 33.414062 39.332031 33.507812 39.335938 33.519531 C 39.339844 33.535156 39.472656 33.691406 39.632812 33.863281 C 39.789062 34.039062 39.941406 34.21875 39.96875 34.269531 C 40.019531 34.375 40.023438 34.484375 39.980469 34.585938 C 39.941406 34.679688 39.292969 35.339844 39.1875 35.394531 C 39.097656 35.441406 38.9375 35.445312 38.84375 35.40625 C 38.808594 35.390625 38.632812 35.242188 38.449219 35.074219 C 38.269531 34.910156 38.105469 34.773438 38.085938 34.773438 C 38.070312 34.773438 37.96875 34.8125 37.859375 34.863281 C 37.753906 34.914062 37.59375 34.976562 37.507812 35.007812 C 37.386719 35.046875 37.34375 35.070312 37.335938 35.101562 C 37.332031 35.125 37.316406 35.34375 37.296875 35.589844 C 37.261719 36.128906 37.242188 36.1875 37.054688 36.28125 C 37 36.308594 36.910156 36.3125 36.453125 36.3125 C 36.050781 36.3125 35.902344 36.304688 35.855469 36.285156 Z M 36.648438 33.890625 C 37.132812 33.839844 37.535156 33.648438 37.878906 33.300781 C 38.144531 33.039062 38.3125 32.746094 38.414062 32.371094 C 38.476562 32.140625 38.476562 31.625 38.414062 31.390625 C 38.21875 30.671875 37.707031 30.148438 36.996094 29.933594 C 36.832031 29.882812 36.789062 29.878906 36.46875 29.878906 C 36.160156 29.875 36.097656 29.882812 35.945312 29.921875 C 35.203125 30.125 34.632812 30.726562 34.476562 31.46875 C 34.335938 32.136719 34.539062 32.816406 35.027344 33.308594 C 35.28125 33.5625 35.613281 33.75 35.972656 33.84375 C 36.074219 33.871094 36.21875 33.890625 36.425781 33.90625 C 36.445312 33.910156 36.542969 33.902344 36.648438 33.890625 Z M 36.152344 33.050781 C 35.640625 32.914062 35.28125 32.476562 35.25 31.957031 C 35.230469 31.59375 35.347656 31.285156 35.605469 31.027344 C 36.078125 30.558594 36.828125 30.554688 37.292969 31.015625 C 37.675781 31.398438 37.769531 31.941406 37.53125 32.417969 C 37.328125 32.824219 36.953125 33.066406 36.496094 33.082031 C 36.339844 33.089844 36.265625 33.082031 36.152344 33.050781 Z M 36.722656 32.546875 C 36.863281 32.492188 37.03125 32.335938 37.101562 32.191406 C 37.152344 32.089844 37.171875 31.957031 37.175781 31.847656 C 37.175781 31.765625 37.15625 31.671875 37.089844 31.550781 C 36.957031 31.308594 36.761719 31.1875 36.488281 31.171875 C 36.265625 31.160156 36.132812 31.207031 35.972656 31.355469 C 35.769531 31.539062 35.691406 31.796875 35.753906 32.050781 C 35.8125 32.269531 35.929688 32.421875 36.132812 32.523438 C 36.320312 32.617188 36.511719 32.625 36.722656 32.546875 Z M 36.722656 32.546875 "/>
<path style=" stroke:none;fill-rule:nonzero;fill:rgb(80%,80%,80%);fill-opacity:1;" d="M 31.925781 36.238281 C 31.925781 35.234375 31.09375 34.421875 30.0625 34.421875 C 29.035156 34.421875 28.199219 35.234375 28.199219 36.238281 C 28.199219 37.246094 29.035156 38.058594 30.0625 38.058594 C 31.09375 38.058594 31.925781 37.246094 31.925781 36.238281 Z M 31.925781 36.238281 "/>
<path style=" stroke:none;fill-rule:nonzero;fill:rgb(80%,80%,80%);fill-opacity:1;" d="M 29.664062 39.09375 C 29.613281 39.070312 29.558594 39.015625 29.535156 38.957031 C 29.523438 38.929688 29.511719 38.816406 29.5 38.632812 C 29.492188 38.480469 29.480469 38.34375 29.476562 38.332031 C 29.46875 38.308594 29.433594 38.292969 29.347656 38.261719 C 29.28125 38.238281 29.179688 38.195312 29.125 38.167969 C 29.070312 38.140625 29.011719 38.117188 29 38.117188 C 28.980469 38.117188 28.890625 38.191406 28.761719 38.308594 C 28.648438 38.414062 28.535156 38.511719 28.511719 38.523438 C 28.464844 38.546875 28.359375 38.550781 28.304688 38.53125 C 28.261719 38.515625 27.804688 38.0625 27.777344 38.007812 C 27.746094 37.953125 27.75 37.851562 27.78125 37.789062 C 27.796875 37.761719 27.894531 37.644531 27.996094 37.535156 C 28.109375 37.414062 28.1875 37.320312 28.1875 37.304688 C 28.1875 37.289062 28.164062 37.234375 28.136719 37.179688 C 28.109375 37.125 28.066406 37.023438 28.042969 36.957031 C 28.019531 36.894531 27.992188 36.835938 27.980469 36.828125 C 27.96875 36.824219 27.835938 36.8125 27.683594 36.804688 C 27.503906 36.792969 27.386719 36.78125 27.351562 36.769531 C 27.285156 36.746094 27.210938 36.664062 27.199219 36.605469 C 27.195312 36.582031 27.191406 36.410156 27.195312 36.21875 L 27.199219 35.875 L 27.238281 35.824219 C 27.308594 35.738281 27.339844 35.730469 27.675781 35.707031 C 27.863281 35.695312 27.976562 35.683594 27.988281 35.675781 C 27.996094 35.667969 28.023438 35.601562 28.050781 35.53125 C 28.078125 35.460938 28.117188 35.363281 28.140625 35.316406 C 28.164062 35.265625 28.1875 35.21875 28.1875 35.203125 C 28.1875 35.191406 28.105469 35.09375 28.011719 34.988281 C 27.914062 34.882812 27.820312 34.777344 27.804688 34.757812 C 27.757812 34.695312 27.742188 34.621094 27.761719 34.546875 C 27.773438 34.492188 27.800781 34.460938 28.011719 34.25 C 28.136719 34.117188 28.265625 34 28.292969 33.988281 C 28.351562 33.957031 28.449219 33.957031 28.511719 33.988281 C 28.535156 34 28.648438 34.09375 28.757812 34.195312 C 28.871094 34.296875 28.96875 34.386719 28.980469 34.390625 C 28.988281 34.398438 29.050781 34.375 29.121094 34.339844 C 29.191406 34.308594 29.296875 34.265625 29.351562 34.246094 C 29.429688 34.21875 29.460938 34.203125 29.472656 34.179688 C 29.480469 34.164062 29.492188 34.023438 29.5 33.871094 C 29.519531 33.578125 29.527344 33.53125 29.589844 33.46875 C 29.65625 33.398438 29.695312 33.394531 30.070312 33.398438 L 30.414062 33.402344 L 30.46875 33.4375 C 30.558594 33.5 30.570312 33.535156 30.59375 33.863281 C 30.601562 34.019531 30.613281 34.160156 30.617188 34.175781 C 30.625 34.199219 30.652344 34.214844 30.742188 34.246094 C 30.808594 34.269531 30.914062 34.3125 30.976562 34.34375 C 31.039062 34.375 31.09375 34.402344 31.101562 34.402344 C 31.105469 34.402344 31.207031 34.3125 31.324219 34.207031 C 31.441406 34.101562 31.554688 34 31.582031 33.988281 C 31.644531 33.953125 31.738281 33.957031 31.804688 33.988281 C 31.839844 34.003906 31.949219 34.105469 32.085938 34.242188 C 32.324219 34.484375 32.339844 34.511719 32.339844 34.617188 C 32.339844 34.695312 32.308594 34.746094 32.105469 34.96875 C 31.992188 35.089844 31.902344 35.195312 31.902344 35.199219 C 31.902344 35.207031 31.929688 35.273438 31.96875 35.34375 C 32.003906 35.417969 32.042969 35.523438 32.058594 35.574219 C 32.082031 35.640625 32.097656 35.671875 32.117188 35.679688 C 32.128906 35.6875 32.273438 35.699219 32.433594 35.710938 C 32.75 35.730469 32.800781 35.742188 32.855469 35.816406 C 32.90625 35.890625 32.910156 35.941406 32.90625 36.289062 L 32.902344 36.621094 L 32.863281 36.675781 C 32.792969 36.773438 32.777344 36.777344 32.425781 36.800781 C 32.25 36.8125 32.109375 36.824219 32.105469 36.828125 C 32.101562 36.832031 32.078125 36.886719 32.054688 36.949219 C 32.035156 37.015625 31.988281 37.117188 31.957031 37.179688 C 31.925781 37.242188 31.902344 37.300781 31.90625 37.3125 C 31.90625 37.320312 31.992188 37.421875 32.097656 37.535156 C 32.199219 37.644531 32.296875 37.761719 32.3125 37.792969 C 32.347656 37.863281 32.351562 37.933594 32.320312 38 C 32.296875 38.058594 31.878906 38.484375 31.808594 38.519531 C 31.753906 38.546875 31.648438 38.550781 31.589844 38.527344 C 31.566406 38.515625 31.453125 38.421875 31.335938 38.3125 C 31.21875 38.207031 31.113281 38.117188 31.101562 38.117188 C 31.089844 38.117188 31.023438 38.144531 30.953125 38.175781 C 30.886719 38.210938 30.78125 38.25 30.726562 38.269531 C 30.648438 38.296875 30.621094 38.308594 30.617188 38.332031 C 30.613281 38.34375 30.601562 38.488281 30.59375 38.644531 C 30.570312 38.992188 30.554688 39.03125 30.433594 39.089844 C 30.398438 39.109375 30.34375 39.113281 30.046875 39.113281 C 29.789062 39.109375 29.691406 39.105469 29.664062 39.09375 Z M 30.171875 37.550781 C 30.484375 37.515625 30.746094 37.394531 30.96875 37.171875 C 31.136719 37 31.246094 36.8125 31.3125 36.570312 C 31.351562 36.421875 31.351562 36.089844 31.3125 35.9375 C 31.1875 35.476562 30.855469 35.136719 30.398438 35 C 30.292969 34.96875 30.265625 34.964844 30.058594 34.964844 C 29.859375 34.960938 29.816406 34.964844 29.722656 34.992188 C 29.242188 35.125 28.875 35.511719 28.773438 35.988281 C 28.683594 36.417969 28.816406 36.859375 29.128906 37.175781 C 29.292969 37.339844 29.507812 37.460938 29.738281 37.519531 C 29.804688 37.539062 29.898438 37.550781 30.03125 37.5625 C 30.042969 37.5625 30.105469 37.558594 30.171875 37.550781 Z M 29.851562 37.007812 C 29.523438 36.921875 29.292969 36.640625 29.273438 36.304688 C 29.257812 36.070312 29.335938 35.871094 29.5 35.703125 C 29.804688 35.402344 30.289062 35.398438 30.589844 35.699219 C 30.835938 35.945312 30.894531 36.292969 30.742188 36.601562 C 30.613281 36.863281 30.371094 37.019531 30.078125 37.03125 C 29.976562 37.035156 29.925781 37.027344 29.851562 37.007812 Z M 30.222656 36.683594 C 30.3125 36.648438 30.421875 36.550781 30.464844 36.457031 C 30.5 36.390625 30.511719 36.304688 30.511719 36.234375 C 30.511719 36.179688 30.5 36.121094 30.457031 36.042969 C 30.375 35.886719 30.246094 35.808594 30.070312 35.796875 C 29.925781 35.792969 29.84375 35.820312 29.738281 35.914062 C 29.609375 36.035156 29.554688 36.199219 29.597656 36.363281 C 29.632812 36.507812 29.710938 36.601562 29.839844 36.667969 C 29.960938 36.730469 30.085938 36.734375 30.222656 36.683594 Z M 30.222656 36.683594 "/>
<path style=" stroke:none;fill-rule:nonzero;fill:rgb(50.196078%,50.196078%,50.196078%);fill-opacity:1;" d="M 38.21875 31.898438 C 38.21875 32.878906 37.421875 33.675781 36.4375 33.675781 C 35.453125 33.675781 34.65625 32.878906 34.65625 31.898438 C 34.65625 30.914062 35.453125 30.117188 36.4375 30.117188 C 37.421875 30.117188 38.21875 30.914062 38.21875 31.898438 Z M 38.21875 31.898438 "/>
<path style=" stroke:none;fill-rule:nonzero;fill:rgb(50.196078%,50.196078%,50.196078%);fill-opacity:1;" d="M 31.253906 36.253906 C 31.253906 36.929688 30.707031 37.476562 30.03125 37.476562 C 29.359375 37.476562 28.8125 36.929688 28.8125 36.253906 C 28.8125 35.582031 29.359375 35.035156 30.03125 35.035156 C 30.707031 35.035156 31.253906 35.582031 31.253906 36.253906 Z M 31.253906 36.253906 "/>
</g>
</svg>
