<!-- color: #266597 -->
<svg xmlns="http://www.w3.org/2000/svg" xmlns:xlink="http://www.w3.org/1999/xlink" width="48px" height="48px" viewBox="0 0 48 48" version="1.1">
<defs>
<clipPath id="clip1">
  <path d="M 18.375 17.25 L 33.84375 17.25 L 33.84375 27.75 L 18.375 27.75 Z M 18.375 17.25 "/>
</clipPath>
<clipPath id="clip2">
  <path d="M 5 0.996094 L 43 0.996094 C 45.210938 0.996094 47 2.789062 47 4.996094 L 47 42.996094 C 47 45.207031 45.210938 46.996094 43 46.996094 L 5 46.996094 C 2.789062 46.996094 1 45.207031 1 42.996094 L 1 4.996094 C 1 2.789062 2.789062 0.996094 5 0.996094 Z M 5 0.996094 "/>
</clipPath>
<clipPath id="clip3">
  <path d="M 24.5625 10.3125 L 30.09375 10.3125 L 30.09375 16.03125 L 24.5625 16.03125 Z M 24.5625 10.3125 "/>
</clipPath>
<clipPath id="clip4">
  <path d="M 5 0.996094 L 43 0.996094 C 45.210938 0.996094 47 2.789062 47 4.996094 L 47 42.996094 C 47 45.207031 45.210938 46.996094 43 46.996094 L 5 46.996094 C 2.789062 46.996094 1 45.207031 1 42.996094 L 1 4.996094 C 1 2.789062 2.789062 0.996094 5 0.996094 Z M 5 0.996094 "/>
</clipPath>
<clipPath id="clip5">
  <path d="M 13 28.6875 L 17.53125 28.6875 L 17.53125 38 L 13 38 Z M 13 28.6875 "/>
</clipPath>
<clipPath id="clip6">
  <path d="M 5 0.996094 L 43 0.996094 C 45.210938 0.996094 47 2.789062 47 4.996094 L 47 42.996094 C 47 45.207031 45.210938 46.996094 43 46.996094 L 5 46.996094 C 2.789062 46.996094 1 45.207031 1 42.996094 L 1 4.996094 C 1 2.789062 2.789062 0.996094 5 0.996094 Z M 5 0.996094 "/>
</clipPath>
<clipPath id="clip7">
  <path d="M 30 17.15625 L 35.0625 17.15625 L 35.0625 31 L 30 31 Z M 30 17.15625 "/>
</clipPath>
<clipPath id="clip8">
  <path d="M 5 0.996094 L 43 0.996094 C 45.210938 0.996094 47 2.789062 47 4.996094 L 47 42.996094 C 47 45.207031 45.210938 46.996094 43 46.996094 L 5 46.996094 C 2.789062 46.996094 1 45.207031 1 42.996094 L 1 4.996094 C 1 2.789062 2.789062 0.996094 5 0.996094 Z M 5 0.996094 "/>
</clipPath>
<clipPath id="clip9">
  <path d="M 20.8125 23.25 L 33 23.25 L 33 27.1875 L 20.8125 27.1875 Z M 20.8125 23.25 "/>
</clipPath>
<clipPath id="clip10">
  <path d="M 5 0.996094 L 43 0.996094 C 45.210938 0.996094 47 2.789062 47 4.996094 L 47 42.996094 C 47 45.207031 45.210938 46.996094 43 46.996094 L 5 46.996094 C 2.789062 46.996094 1 45.207031 1 42.996094 L 1 4.996094 C 1 2.789062 2.789062 0.996094 5 0.996094 Z M 5 0.996094 "/>
</clipPath>
<clipPath id="clip11">
  <path d="M 24.375 14.8125 L 30 14.8125 L 30 20.15625 L 24.375 20.15625 Z M 24.375 14.8125 "/>
</clipPath>
<clipPath id="clip12">
  <path d="M 5 0.996094 L 43 0.996094 C 45.210938 0.996094 47 2.789062 47 4.996094 L 47 42.996094 C 47 45.207031 45.210938 46.996094 43 46.996094 L 5 46.996094 C 2.789062 46.996094 1 45.207031 1 42.996094 L 1 4.996094 C 1 2.789062 2.789062 0.996094 5 0.996094 Z M 5 0.996094 "/>
</clipPath>
<clipPath id="clip13">
  <path d="M 28.3125 13.40625 L 30.9375 13.40625 L 30.9375 16.96875 L 28.3125 16.96875 Z M 28.3125 13.40625 "/>
</clipPath>
<clipPath id="clip14">
  <path d="M 5 0.996094 L 43 0.996094 C 45.210938 0.996094 47 2.789062 47 4.996094 L 47 42.996094 C 47 45.207031 45.210938 46.996094 43 46.996094 L 5 46.996094 C 2.789062 46.996094 1 45.207031 1 42.996094 L 1 4.996094 C 1 2.789062 2.789062 0.996094 5 0.996094 Z M 5 0.996094 "/>
</clipPath>
<clipPath id="clip15">
  <path d="M 29.0625 8 L 31.3125 8 L 31.3125 13.5 L 29.0625 13.5 Z M 29.0625 8 "/>
</clipPath>
<clipPath id="clip16">
  <path d="M 5 0.996094 L 43 0.996094 C 45.210938 0.996094 47 2.789062 47 4.996094 L 47 42.996094 C 47 45.207031 45.210938 46.996094 43 46.996094 L 5 46.996094 C 2.789062 46.996094 1 45.207031 1 42.996094 L 1 4.996094 C 1 2.789062 2.789062 0.996094 5 0.996094 Z M 5 0.996094 "/>
</clipPath>
<clipPath id="clip17">
  <path d="M 16.21875 28.96875 L 19.875 28.96875 L 19.875 32.4375 L 16.21875 32.4375 Z M 16.21875 28.96875 "/>
</clipPath>
<clipPath id="clip18">
  <path d="M 5 0.996094 L 43 0.996094 C 45.210938 0.996094 47 2.789062 47 4.996094 L 47 42.996094 C 47 45.207031 45.210938 46.996094 43 46.996094 L 5 46.996094 C 2.789062 46.996094 1 45.207031 1 42.996094 L 1 4.996094 C 1 2.789062 2.789062 0.996094 5 0.996094 Z M 5 0.996094 "/>
</clipPath>
<clipPath id="clip19">
  <path d="M 17.34375 26.4375 L 30.28125 26.4375 L 30.28125 34.59375 L 17.34375 34.59375 Z M 17.34375 26.4375 "/>
</clipPath>
<clipPath id="clip20">
  <path d="M 5 0.996094 L 43 0.996094 C 45.210938 0.996094 47 2.789062 47 4.996094 L 47 42.996094 C 47 45.207031 45.210938 46.996094 43 46.996094 L 5 46.996094 C 2.789062 46.996094 1 45.207031 1 42.996094 L 1 4.996094 C 1 2.789062 2.789062 0.996094 5 0.996094 Z M 5 0.996094 "/>
</clipPath>
</defs>
<g id="surface1">
<path style="fill-rule:nonzero;fill:rgb(33.333333%,60%,100%);fill-opacity:1;stroke-width:1.5;stroke-linecap:butt;stroke-linejoin:miter;stroke:rgb(0%,34.117647%,85.490196%);stroke-opacity:1;stroke-miterlimit:4;" d="M -42.998489 0.99902 L -5.001511 0.99902 C -2.792957 0.99902 -0.99902 2.792957 -0.99902 5.001511 L -0.99902 42.998489 C -0.99902 45.207043 -2.792957 47.00098 -5.001511 47.00098 L -42.998489 47.00098 C -45.207043 47.00098 -47.00098 45.207043 -47.00098 42.998489 L -47.00098 5.001511 C -47.00098 2.792957 -45.207043 0.99902 -42.998489 0.99902 Z M -42.998489 0.99902 " transform="matrix(0,-0.951556,0.951556,0,1.162658,1.162658)"/>
<g clip-path="url(#clip1)" clip-rule="nonzero">
<g clip-path="url(#clip2)" clip-rule="nonzero">
<path style=" stroke:none;fill-rule:nonzero;fill:rgb(97.647059%,97.647059%,97.647059%);fill-opacity:1;" d="M 31.941406 17.308594 C 31.296875 17.460938 30.691406 17.769531 30.160156 18.152344 C 29.289062 19.34375 28.082031 20.304688 26.476562 20.683594 C 25.867188 20.238281 25.125 19.722656 24.617188 19.136719 C 22.292969 19.402344 19.09375 19.917969 18.542969 22.15625 C 17.96875 24.480469 19.492188 27.515625 20.730469 27.691406 C 21.90625 27.855469 25.6875 26.804688 27.515625 26.3125 C 25.984375 25.117188 24.222656 24.59375 23.261719 24.53125 C 22.128906 24.441406 21.152344 24.644531 20.136719 24.90625 C 21.621094 23.949219 22.964844 23.234375 24.292969 22.96875 C 25.289062 22.78125 26.835938 22.773438 28.695312 23.46875 C 31 24.332031 31.550781 25.5625 33.167969 26.117188 C 34.238281 25.949219 33.695312 24.761719 33.472656 23.9375 C 33.324219 23.488281 33.207031 23.148438 33.160156 23 C 33.078125 22.75 31.921875 19.792969 31.753906 19.03125 C 31.640625 18.511719 31.738281 17.835938 31.941406 17.308594 M 31.941406 17.308594 "/>
</g>
</g>
<g clip-path="url(#clip3)" clip-rule="nonzero">
<g clip-path="url(#clip4)" clip-rule="nonzero">
<path style=" stroke:none;fill-rule:nonzero;fill:rgb(97.647059%,97.647059%,97.647059%);fill-opacity:1;" d="M 26.359375 12.65625 C 24.746094 13.335938 24.691406 14.621094 24.601562 16.015625 C 25.277344 15.402344 27.402344 14.953125 27.976562 14.457031 C 29.671875 12.988281 30.328125 9.953125 29.972656 10.402344 C 28.820312 11.859375 26.953125 12.328125 26.359375 12.65625 M 26.359375 12.65625 "/>
</g>
</g>
<g clip-path="url(#clip5)" clip-rule="nonzero">
<g clip-path="url(#clip6)" clip-rule="nonzero">
<path style=" stroke:none;fill-rule:nonzero;fill:rgb(97.647059%,97.647059%,97.647059%);fill-opacity:1;" d="M 17.476562 33.050781 C 17.476562 33.050781 15.875 31.988281 15.90625 31.648438 C 16.957031 25.949219 13.332031 30.003906 13.058594 32.554688 C 12.769531 35.003906 13.671875 37.828125 13.804688 38 C 14.019531 36 14.210938 34.890625 17.476562 33.046875 M 17.476562 33.050781 "/>
</g>
</g>
<g clip-path="url(#clip7)" clip-rule="nonzero">
<g clip-path="url(#clip8)" clip-rule="nonzero">
<path style=" stroke:none;fill-rule:nonzero;fill:rgb(97.647059%,97.647059%,97.647059%);fill-opacity:1;" d="M 34.988281 20.492188 C 34.90625 18.371094 33.574219 16.90625 32.667969 17.25 C 32.28125 17.394531 32.027344 18.382812 32.160156 18.996094 C 32.605469 21.175781 34.4375 23.695312 33.984375 25.851562 C 33.644531 26.882812 30.636719 27.523438 30.636719 27.523438 C 30.636719 27.523438 30.578125 28.40625 30.464844 29.007812 C 30.328125 29.738281 30.050781 30.316406 30.050781 30.316406 C 30.050781 30.316406 30.765625 30.957031 30.792969 30.957031 C 30.824219 30.957031 35.292969 28.636719 34.988281 20.492188 M 34.988281 20.492188 "/>
</g>
</g>
<g clip-path="url(#clip9)" clip-rule="nonzero">
<g clip-path="url(#clip10)" clip-rule="nonzero">
<path style=" stroke:none;fill-rule:nonzero;fill:rgb(97.647059%,97.647059%,97.647059%);fill-opacity:1;" d="M 33 26.332031 C 32.257812 26.03125 32 25.902344 31.03125 25.183594 C 25.675781 21.183594 20.746094 24.648438 20.84375 24.613281 C 21.730469 24.332031 22.734375 24.078125 24.035156 24.160156 C 25.085938 24.230469 26.484375 24.894531 28.210938 26.328125 C 29.371094 27.347656 31.128906 27.476562 32.996094 26.332031 M 33 26.332031 "/>
</g>
</g>
<g clip-path="url(#clip11)" clip-rule="nonzero">
<g clip-path="url(#clip12)" clip-rule="nonzero">
<path style=" stroke:none;fill-rule:nonzero;fill:rgb(97.647059%,97.647059%,97.647059%);fill-opacity:1;" d="M 27.972656 14.902344 C 25.992188 15.539062 24.921875 16.085938 24.601562 16.339844 C 23.945312 18.011719 25.269531 19.269531 26.476562 20.152344 C 28.0625 19.777344 29.382812 18.601562 29.972656 17.308594 C 29.664062 17.351562 29.335938 17.292969 28.972656 17.089844 C 28.265625 16.691406 27.835938 15.734375 27.972656 14.902344 M 27.972656 14.902344 "/>
</g>
</g>
<g clip-path="url(#clip13)" clip-rule="nonzero">
<g clip-path="url(#clip14)" clip-rule="nonzero">
<path style=" stroke:none;fill-rule:nonzero;fill:rgb(97.647059%,97.647059%,97.647059%);fill-opacity:1;" d="M 30.855469 14.585938 C 30.726562 14.078125 30.3125 13.425781 30.199219 13.425781 C 30.097656 13.425781 28.996094 14.246094 28.710938 14.527344 C 28.066406 15.171875 28.378906 16.347656 29.09375 16.746094 C 30.304688 17.425781 31.199219 15.933594 30.855469 14.585938 M 30.855469 14.585938 "/>
</g>
</g>
<g clip-path="url(#clip15)" clip-rule="nonzero">
<g clip-path="url(#clip16)" clip-rule="nonzero">
<path style=" stroke:none;fill-rule:nonzero;fill:rgb(97.647059%,97.647059%,97.647059%);fill-opacity:1;" d="M 29.914062 12.867188 C 30.398438 12.402344 31.042969 11.640625 31.210938 10.480469 C 31.308594 9.441406 31.054688 8.800781 30.742188 8.003906 C 30.589844 9.558594 30.363281 11.289062 29.304688 13.125 C 28.972656 13.703125 29.152344 13.597656 29.914062 12.867188 M 29.914062 12.867188 "/>
</g>
</g>
<g clip-path="url(#clip17)" clip-rule="nonzero">
<g clip-path="url(#clip18)" clip-rule="nonzero">
<path style=" stroke:none;fill-rule:nonzero;fill:rgb(97.647059%,97.647059%,97.647059%);fill-opacity:1;" d="M 16.328125 28.96875 C 16.496094 29.390625 16.484375 30.191406 16.234375 31.5625 C 16.230469 31.574219 16.234375 31.582031 16.234375 31.59375 C 16.410156 31.839844 16.773438 32.136719 17.136719 32.40625 C 18.386719 31.824219 19.957031 30.734375 19.855469 30.71875 C 19.1875 30.605469 17.121094 30.101562 16.328125 28.96875 M 16.328125 28.96875 "/>
</g>
</g>
<g clip-path="url(#clip19)" clip-rule="nonzero">
<g clip-path="url(#clip20)" clip-rule="nonzero">
<path style=" stroke:none;fill-rule:nonzero;fill:rgb(97.647059%,97.647059%,97.647059%);fill-opacity:1;" d="M 27.753906 26.527344 C 27.699219 26.527344 27.65625 26.527344 27.535156 26.558594 C 25.980469 26.992188 22.007812 28.007812 21.386719 28.683594 C 21.144531 29.199219 20.90625 31.257812 17.417969 32.5625 C 17.320312 32.597656 20.347656 34.554688 20.511719 34.5625 C 30.394531 34.976562 30.382812 27.886719 30.253906 27.5625 C 29.292969 27.578125 28.476562 27.242188 27.847656 26.625 C 27.816406 26.59375 27.789062 26.5625 27.753906 26.53125 M 27.753906 26.53125 "/>
</g>
</g>
</g>
</svg>
