
<svg xmlns="http://www.w3.org/2000/svg" xmlns:xlink="http://www.w3.org/1999/xlink" width="48px" height="48px" viewBox="0 0 48 48" version="1.1">
<defs>
<clipPath id="clip1">
  <path d="M 11.34375 12.84375 L 35.25 12.84375 L 35.25 36.84375 L 11.34375 36.84375 Z M 11.34375 12.84375 "/>
</clipPath>
<clipPath id="clip2">
  <path d="M 49.339844 23.730469 C 49.339844 37.523438 38.15625 48.695312 24.375 48.695312 C 10.59375 48.695312 -0.589844 37.523438 -0.589844 23.730469 C -0.589844 9.941406 10.59375 -1.230469 24.375 -1.230469 C 38.15625 -1.230469 49.339844 9.941406 49.339844 23.730469 Z M 49.339844 23.730469 "/>
</clipPath>
<clipPath id="clip3">
  <path d="M 11.34375 10.6875 L 37.5 10.6875 L 37.5 36.84375 L 11.34375 36.84375 Z M 11.34375 10.6875 "/>
</clipPath>
<clipPath id="clip4">
  <path d="M 49.339844 23.730469 C 49.339844 37.523438 38.15625 48.695312 24.375 48.695312 C 10.59375 48.695312 -0.589844 37.523438 -0.589844 23.730469 C -0.589844 9.941406 10.59375 -1.230469 24.375 -1.230469 C 38.15625 -1.230469 49.339844 9.941406 49.339844 23.730469 Z M 49.339844 23.730469 "/>
</clipPath>
</defs>
<g id="surface1">
<path style=" stroke:none;fill-rule:nonzero;fill:rgb(20.392157%,39.607843%,64.313725%);fill-opacity:1;" d="M 7.136719 3.328125 L 40.851562 3.328125 C 43.277344 3.328125 45.242188 5.296875 45.242188 7.71875 L 45.242188 40.488281 C 45.242188 42.914062 43.277344 44.878906 40.851562 44.878906 L 7.136719 44.878906 C 4.710938 44.878906 2.746094 42.914062 2.746094 40.488281 L 2.746094 7.71875 C 2.746094 5.296875 4.710938 3.328125 7.136719 3.328125 Z M 7.136719 3.328125 "/>
<g clip-path="url(#clip1)" clip-rule="nonzero">
<g clip-path="url(#clip2)" clip-rule="nonzero">
<path style=" stroke:none;fill-rule:nonzero;fill:rgb(0%,0%,0%);fill-opacity:0.196078;" d="M 11.351562 12.878906 L 11.351562 15.863281 L 32.246094 36.757812 L 35.226562 36.757812 L 35.226562 33.773438 L 14.335938 12.878906 Z M 11.351562 12.878906 "/>
</g>
</g>
<g clip-path="url(#clip3)" clip-rule="nonzero">
<g clip-path="url(#clip4)" clip-rule="nonzero">
<path style=" stroke:none;fill-rule:nonzero;fill:rgb(97.647059%,97.647059%,97.647059%);fill-opacity:1;" d="M 30.425781 10.707031 C 26.574219 10.707031 23.445312 13.832031 23.445312 17.6875 C 23.445312 18.890625 23.753906 20.027344 24.289062 21.015625 C 24.292969 21.019531 24.285156 21.027344 24.289062 21.03125 L 11.347656 33.96875 L 11.347656 36.761719 L 14.144531 36.761719 L 15.070312 35.828125 L 15.070312 33.96875 L 16.933594 33.96875 L 17.863281 33.039062 L 19.726562 33.039062 L 20.652344 32.105469 L 20.652344 30.246094 L 21.582031 29.316406 L 23.445312 29.316406 L 23.445312 27.457031 L 27.078125 23.824219 C 27.082031 23.824219 27.097656 23.820312 27.101562 23.824219 C 28.085938 24.359375 29.222656 24.660156 30.425781 24.660156 C 34.269531 24.660156 37.40625 21.542969 37.40625 17.6875 L 37.40625 17.65625 C 37.390625 13.808594 34.269531 10.703125 30.425781 10.703125 M 31.816406 14.433594 C 32.839844 14.433594 33.671875 15.269531 33.675781 16.292969 C 33.675781 17.324219 32.839844 18.15625 31.816406 18.15625 C 30.789062 18.15625 29.953125 17.324219 29.953125 16.292969 C 29.953125 15.269531 30.789062 14.433594 31.816406 14.433594 M 31.816406 14.433594 "/>
</g>
</g>
</g>
</svg>
