
<svg xmlns="http://www.w3.org/2000/svg" xmlns:xlink="http://www.w3.org/1999/xlink" width="48px" height="48px" viewBox="0 0 48 48" version="1.1">
<g id="surface1">
<path style=" stroke:none;fill-rule:evenodd;fill:rgb(16.470588%,49.803922%,100%);fill-opacity:1;" d="M 7.363281 3.003906 L 40.699219 3.003906 C 43.289062 3.003906 45.386719 5.101562 45.386719 7.691406 L 45.386719 40.417969 C 45.386719 43.007812 43.289062 45.105469 40.699219 45.105469 L 7.363281 45.105469 C 4.773438 45.105469 2.675781 43.007812 2.675781 40.417969 L 2.675781 7.691406 C 2.675781 5.101562 4.773438 3.003906 7.363281 3.003906 Z M 7.363281 3.003906 "/>
<path style="fill-rule:nonzero;fill:rgb(64.705882%,64.705882%,64.705882%);fill-opacity:1;stroke-width:15.330709;stroke-linecap:butt;stroke-linejoin:miter;stroke:rgb(100%,100%,100%);stroke-opacity:1;stroke-miterlimit:4;" d="M 427.875 256.916667 C 427.875 351.458333 351.208333 428.125 256.666667 428.125 C 162.125 428.125 85.5 351.458333 85.5 256.916667 C 85.5 162.375 162.125 85.708333 256.666667 85.708333 C 351.208333 85.708333 427.875 162.375 427.875 256.916667 Z M 427.875 256.916667 " transform="matrix(0.09375,0,0,0.09375,0,0)"/>
<path style=" stroke:none;fill-rule:nonzero;fill:rgb(100%,100%,100%);fill-opacity:1;" d="M 27.605469 15.792969 L 20.300781 15.792969 L 20.300781 24.3125 L 15.429688 24.3125 L 23.953125 32.835938 L 32.472656 24.3125 L 27.605469 24.3125 Z M 27.605469 15.792969 "/>
</g>
</svg>
