<!-- color: #6e90bb -->
<svg xmlns="http://www.w3.org/2000/svg" xmlns:xlink="http://www.w3.org/1999/xlink" width="48px" height="48px" viewBox="0 0 48 48" version="1.1">
<defs>
<clipPath id="clip1">
  <path d="M 3.28125 3.09375 L 44.625 3.09375 L 44.625 44.53125 L 3.28125 44.53125 Z M 3.28125 3.09375 "/>
</clipPath>
<clipPath id="clip2">
  <path d="M 10.449219 3.152344 L 37.449219 3.152344 C 41.367188 3.152344 44.542969 6.328125 44.542969 10.246094 L 44.542969 37.398438 C 44.542969 41.316406 41.367188 44.492188 37.449219 44.492188 L 10.449219 44.492188 C 6.53125 44.492188 3.355469 41.316406 3.355469 37.398438 L 3.355469 10.246094 C 3.355469 6.328125 6.53125 3.152344 10.449219 3.152344 Z M 10.449219 3.152344 "/>
</clipPath>
<clipPath id="clip3">
  <path d="M 63.875 23.953125 C 63.875 45.941406 46.042969 63.75 24.074219 63.75 C 2.105469 63.75 -15.722656 45.941406 -15.722656 23.953125 C -15.722656 1.964844 2.105469 -15.847656 24.074219 -15.847656 C 46.042969 -15.847656 63.875 1.964844 63.875 23.953125 Z M 63.875 23.953125 "/>
</clipPath>
</defs>
<g id="surface1">
<g clip-path="url(#clip1)" clip-rule="nonzero">
<g clip-path="url(#clip2)" clip-rule="nonzero">
<g clip-path="url(#clip3)" clip-rule="nonzero">
<path style=" stroke:none;fill-rule:nonzero;fill:rgb(45.098039%,82.352941%,8.627451%);fill-opacity:1;" d="M 6.839844 44.589844 C 6.839844 44.332031 15.511719 33.910156 15.695312 33.949219 C 15.796875 33.976562 19.675781 35.621094 24.300781 37.605469 C 32.207031 41 32.734375 41.203125 32.945312 40.917969 C 33.269531 40.480469 34.386719 38.152344 34.972656 36.679688 L 35.472656 35.429688 L 34.636719 34.96875 C 33.441406 34.320312 31.6875 32.867188 30.59375 31.617188 C 29.59375 30.472656 27.789062 27.722656 27.789062 27.335938 C 27.789062 27.207031 28.363281 27.789062 29.066406 28.628906 C 31.035156 30.96875 35.570312 34.644531 35.851562 34.121094 C 36.191406 33.5 36.414062 31.675781 36.398438 29.554688 C 36.386719 26.964844 36.046875 24.949219 35.15625 22.171875 L 34.65625 20.609375 L 32.195312 19.839844 C 30.835938 19.40625 29.476562 18.988281 29.171875 18.886719 C 28.105469 18.550781 28.773438 18.570312 30.328125 18.921875 C 32.195312 19.339844 34.09375 19.683594 35.265625 19.832031 C 36.304688 19.960938 36.527344 19.757812 36.636719 18.617188 C 36.777344 17.148438 35.839844 13.09375 34.878906 11.085938 C 34.5 10.28125 34.324219 10.101562 33.558594 9.753906 C 31.023438 8.570312 23.074219 7.488281 19.699219 7.84375 C 18.238281 7.992188 16.746094 8.347656 16.273438 8.648438 C 16.144531 8.75 17.085938 8.976562 18.699219 9.273438 C 20.152344 9.542969 21.214844 9.78125 21.058594 9.820312 C 20.882812 9.847656 18.609375 9.597656 15.96875 9.261719 C 11.34375 8.664062 11.175781 8.652344 10.839844 8.949219 C 10.160156 9.558594 9.203125 11.214844 9 12.105469 C 8.808594 12.964844 8.824219 13.066406 9.25 13.9375 C 9.980469 15.429688 11.34375 16.519531 14.433594 18.082031 C 15.894531 18.839844 17.058594 19.460938 17.015625 19.507812 C 16.96875 19.546875 15.71875 19.082031 14.242188 18.464844 L 11.546875 17.351562 L 7.59375 18.460938 C 5.421875 19.0625 3.570312 19.5625 3.480469 19.5625 C 3.375 19.5625 3.320312 16.9375 3.320312 12.492188 C 3.320312 5.683594 3.332031 5.402344 3.671875 4.703125 C 3.875 4.277344 4.273438 3.824219 4.632812 3.609375 L 5.253906 3.222656 L 23.355469 3.171875 C 33.304688 3.140625 41.867188 3.171875 42.347656 3.222656 C 43.457031 3.359375 44.457031 4.171875 44.71875 5.148438 C 44.835938 5.574219 44.875 12.015625 44.847656 24.269531 L 44.800781 42.730469 L 44.414062 43.34375 C 44.191406 43.710938 43.738281 44.105469 43.320312 44.3125 C 42.609375 44.65625 42.46875 44.664062 24.738281 44.664062 C 14.910156 44.664062 6.863281 44.601562 6.863281 44.535156 M 6.828125 44.570312 "/>
</g>
</g>
</g>
</g>
</svg>
