
<svg xmlns="http://www.w3.org/2000/svg" xmlns:xlink="http://www.w3.org/1999/xlink" width="48px" height="48px" viewBox="0 0 48 48" version="1.1">
<g id="surface1">
<path style="fill-rule:nonzero;fill:rgb(92.54902%,92.54902%,92.54902%);fill-opacity:1;stroke-width:54.403629;stroke-linecap:butt;stroke-linejoin:miter;stroke:rgb(0%,66.666667%,83.137255%);stroke-opacity:1;stroke-miterlimit:4;" d="M 175.25 66.416667 L 848.75 66.416667 C 908.833333 66.416667 957.583333 115.083333 957.583333 175.25 L 957.583333 848.75 C 957.583333 908.833333 908.833333 957.583333 848.75 957.583333 L 175.25 957.583333 C 115.083333 957.583333 66.416667 908.833333 66.416667 848.75 L 66.416667 175.25 C 66.416667 115.083333 115.083333 66.416667 175.25 66.416667 Z M 175.25 66.416667 " transform="matrix(0.046875,0,0,0.046875,0,0)"/>
<path style=" stroke:none;fill-rule:nonzero;fill:rgb(0%,0%,0%);fill-opacity:0.0980392;" d="M 37.792969 10.234375 C 37.785156 9.773438 37.617188 9.375 37.296875 9.046875 C 36.960938 8.707031 36.558594 8.539062 36.089844 8.539062 L 13.09375 8.539062 C 12.621094 8.539062 12.21875 8.707031 11.886719 9.046875 C 11.566406 9.375 11.398438 9.773438 11.386719 10.234375 L 11.386719 39.570312 C 11.386719 40.050781 11.554688 40.460938 11.886719 40.800781 C 12.21875 41.140625 12.621094 41.308594 13.09375 41.308594 L 36.089844 41.308594 C 36.558594 41.308594 36.960938 41.140625 37.296875 40.800781 C 37.628906 40.460938 37.792969 40.050781 37.792969 39.570312 Z M 37.792969 10.234375 "/>
<path style=" stroke:none;fill-rule:nonzero;fill:rgb(80%,80%,80%);fill-opacity:1;" d="M 37.570312 8.957031 C 37.230469 8.617188 36.820312 8.445312 36.339844 8.445312 L 12.882812 8.445312 C 12.40625 8.445312 11.996094 8.617188 11.65625 8.957031 C 11.328125 9.285156 11.15625 9.679688 11.144531 10.140625 L 11.144531 35.347656 C 11.15625 35.808594 11.324219 36.203125 11.65625 36.535156 C 11.996094 36.871094 12.40625 37.042969 12.882812 37.042969 L 36.339844 37.042969 C 36.820312 37.042969 37.230469 36.871094 37.570312 36.535156 C 37.898438 36.203125 38.070312 35.808594 38.078125 35.347656 L 38.078125 10.140625 C 38.070312 9.679688 37.898438 9.285156 37.570312 8.957031 Z M 37.570312 8.957031 "/>
<path style=" stroke:none;fill-rule:nonzero;fill:rgb(52.54902%,51.372549%,48.627451%);fill-opacity:0.988235;" d="M 11.65625 36.535156 C 11.324219 36.203125 11.15625 35.808594 11.144531 35.347656 L 11.144531 39.480469 C 11.144531 39.957031 11.316406 40.371094 11.65625 40.707031 C 11.996094 41.046875 12.40625 41.21875 12.882812 41.21875 L 36.339844 41.21875 C 36.820312 41.21875 37.230469 41.046875 37.570312 40.707031 C 37.910156 40.371094 38.078125 39.957031 38.078125 39.480469 L 38.078125 35.347656 C 38.070312 35.808594 37.898438 36.203125 37.570312 36.535156 C 37.230469 36.871094 36.820312 37.042969 36.339844 37.042969 L 12.882812 37.042969 C 12.40625 37.042969 11.996094 36.871094 11.65625 36.535156 Z M 11.65625 36.535156 "/>
<path style=" stroke:none;fill-rule:nonzero;fill:rgb(23.137255%,22.745098%,21.176471%);fill-opacity:1;" d="M 24.367188 38.351562 C 24.367188 38.160156 24.296875 37.996094 24.164062 37.859375 C 24.027344 37.722656 23.863281 37.65625 23.671875 37.65625 L 13.164062 37.65625 C 12.972656 37.65625 12.808594 37.722656 12.671875 37.859375 C 12.535156 37.996094 12.46875 38.15625 12.46875 38.351562 L 12.46875 38.636719 C 12.46875 38.828125 12.535156 38.992188 12.671875 39.128906 C 12.808594 39.265625 12.972656 39.332031 13.164062 39.332031 L 23.671875 39.332031 C 23.863281 39.332031 24.027344 39.265625 24.164062 39.128906 C 24.296875 38.992188 24.367188 38.828125 24.367188 38.636719 Z M 24.367188 38.351562 "/>
<path style=" stroke:none;fill-rule:nonzero;fill:rgb(0%,0%,0%);fill-opacity:0.2;" d="M 35.90625 38.148438 C 35.753906 37.996094 35.570312 37.917969 35.351562 37.917969 C 35.136719 37.917969 34.953125 37.996094 34.800781 38.148438 C 34.648438 38.300781 34.574219 38.484375 34.574219 38.699219 C 34.574219 38.917969 34.648438 39.101562 34.800781 39.253906 C 34.953125 39.40625 35.136719 39.480469 35.351562 39.480469 C 35.570312 39.480469 35.753906 39.40625 35.90625 39.253906 C 36.058594 39.101562 36.132812 38.917969 36.132812 38.699219 C 36.132812 38.484375 36.058594 38.300781 35.90625 38.148438 Z M 33.648438 38.699219 C 33.648438 38.484375 33.570312 38.300781 33.417969 38.148438 C 33.269531 37.996094 33.082031 37.917969 32.867188 37.917969 C 32.652344 37.917969 32.46875 37.996094 32.3125 38.148438 C 32.164062 38.300781 32.085938 38.484375 32.085938 38.699219 C 32.085938 38.917969 32.164062 39.101562 32.3125 39.253906 C 32.46875 39.40625 32.652344 39.480469 32.867188 39.480469 C 33.082031 39.480469 33.269531 39.40625 33.417969 39.253906 C 33.570312 39.101562 33.648438 38.917969 33.648438 38.699219 Z M 33.648438 38.699219 "/>
<path style=" stroke:none;fill-rule:nonzero;fill:rgb(100%,100%,100%);fill-opacity:0.0980392;" d="M 30.816406 28.75 C 32.65625 26.910156 33.574219 24.691406 33.574219 22.09375 C 33.574219 19.492188 32.65625 17.273438 30.816406 15.433594 C 28.976562 13.597656 26.761719 12.675781 24.160156 12.675781 C 21.558594 12.675781 19.339844 13.597656 17.503906 15.433594 C 15.664062 17.273438 14.746094 19.492188 14.746094 22.09375 C 14.746094 24.691406 15.664062 26.910156 17.503906 28.75 C 19.339844 30.585938 21.558594 31.507812 24.160156 31.507812 C 26.761719 31.507812 28.976562 30.585938 30.816406 28.75 Z M 30.816406 28.75 "/>
<path style=" stroke:none;fill-rule:nonzero;fill:rgb(80%,80%,0%);fill-opacity:1;" d="M 35.1875 39.132812 C 35.402344 39.132812 35.589844 39.058594 35.738281 38.90625 C 35.894531 38.753906 35.96875 38.570312 35.96875 38.351562 C 35.96875 38.136719 35.894531 37.953125 35.738281 37.800781 C 35.589844 37.648438 35.402344 37.570312 35.1875 37.570312 C 34.972656 37.570312 34.789062 37.648438 34.636719 37.800781 C 34.484375 37.953125 34.40625 38.136719 34.40625 38.351562 C 34.40625 38.570312 34.484375 38.753906 34.636719 38.90625 C 34.789062 39.058594 34.972656 39.132812 35.1875 39.132812 Z M 33.484375 38.351562 C 33.484375 38.136719 33.40625 37.953125 33.253906 37.800781 C 33.101562 37.648438 32.917969 37.570312 32.703125 37.570312 C 32.488281 37.570312 32.300781 37.648438 32.148438 37.800781 C 32 37.953125 31.921875 38.136719 31.921875 38.351562 C 31.921875 38.570312 32 38.753906 32.148438 38.90625 C 32.300781 39.058594 32.488281 39.132812 32.703125 39.132812 C 32.917969 39.132812 33.101562 39.058594 33.253906 38.90625 C 33.40625 38.753906 33.484375 38.570312 33.484375 38.351562 Z M 33.484375 38.351562 "/>
</g>
</svg>
