
<svg xmlns="http://www.w3.org/2000/svg" xmlns:xlink="http://www.w3.org/1999/xlink" width="48px" height="48px" viewBox="0 0 48 48" version="1.1">
<g id="surface1">
<path style="fill-rule:nonzero;fill:rgb(92.54902%,94.117647%,94.509804%);fill-opacity:1;stroke-width:2.526949;stroke-linecap:butt;stroke-linejoin:miter;stroke:rgb(47.843137%,27.058824%,13.333333%);stroke-opacity:1;stroke-miterlimit:4;" d="M 8.355468 3.304687 L 39.64453 3.304687 C 42.433592 3.304687 44.695311 5.566406 44.695311 8.355468 L 44.695311 39.64453 C 44.695311 42.433592 42.433592 44.695311 39.64453 44.695311 L 8.355468 44.695311 C 5.566406 44.695311 3.304687 42.433592 3.304687 39.64453 L 3.304687 8.355468 C 3.304687 5.566406 5.566406 3.304687 8.355468 3.304687 Z M 8.355468 3.304687 " transform="matrix(1,0,0,1,0,0)"/>
<path style=" stroke:none;fill-rule:nonzero;fill:rgb(17.254902%,53.72549%,76.862745%);fill-opacity:1;" d="M 33 4.40625 L 41 4.40625 L 41 15.40625 L 37 12.40625 L 33 15.40625 Z M 33 4.40625 "/>
<path style=" stroke:none;fill-rule:nonzero;fill:rgb(47.843137%,27.058824%,13.333333%);fill-opacity:1;" d="M 4.15625 3.699219 L 11.601562 3.699219 L 11.601562 43.824219 L 4.15625 43.824219 Z M 4.15625 3.699219 "/>
<path style=" stroke:none;fill-rule:nonzero;fill:rgb(17.254902%,53.72549%,76.862745%);fill-opacity:1;" d="M 35.605469 21.304688 C 35.847656 20.777344 35.984375 20.246094 35.984375 19.742188 C 35.984375 18.84375 35.605469 18.105469 34.847656 17.53125 C 34.042969 16.910156 32.910156 16.609375 31.4375 16.609375 C 31.148438 16.609375 30.835938 16.632812 30.546875 16.65625 C 28.074219 16.863281 25.648438 17.828125 23.261719 19.601562 C 21.125 21.191406 19.675781 22.847656 18.898438 24.621094 C 18.292969 26.003906 17.984375 27.246094 17.984375 28.375 C 17.984375 30.929688 19.585938 32.472656 21.925781 32.585938 C 22.261719 32.609375 22.570312 32.609375 22.863281 32.609375 C 26.492188 32.609375 29.769531 31.25 32.6875 28.558594 C 34.578125 26.808594 35.539062 24.96875 35.539062 23.054688 C 35.539062 22.617188 35.472656 22.179688 35.359375 21.789062 Z M 35.070312 21.097656 C 34.445312 19.925781 33.355469 19.140625 31.792969 18.75 C 30.949219 18.542969 30.234375 18.453125 29.65625 18.453125 C 29.011719 18.453125 28.34375 18.566406 27.652344 18.796875 C 27.628906 18.820312 27.605469 18.84375 27.605469 18.867188 C 27.605469 18.914062 28.007812 18.957031 28.789062 18.980469 C 29.722656 19.003906 30.414062 19.074219 30.835938 19.1875 C 31.660156 19.441406 32.375 19.832031 32.976562 20.386719 C 33.667969 21.007812 34.066406 21.742188 34.179688 22.597656 C 33.667969 23.242188 32.886719 24.023438 31.839844 24.96875 L 30.59375 26.027344 C 30.078125 26.464844 29.878906 26.671875 30.011719 26.671875 C 30.035156 26.671875 30.101562 26.648438 30.191406 26.625 C 32.085938 25.429688 33.421875 24.390625 34.199219 23.492188 C 34.042969 25.082031 33.019531 26.738281 31.125 28.488281 C 28.296875 31.089844 25.289062 32.3125 22.148438 32.125 C 20.167969 32.011719 19.1875 30.929688 19.1875 28.925781 C 19.1875 27.683594 19.585938 26.257812 20.410156 24.667969 C 21.523438 22.480469 23.039062 20.707031 24.957031 19.328125 C 27.027344 17.832031 29.167969 17.09375 31.417969 17.09375 C 33.042969 17.09375 34.15625 17.554688 34.800781 18.476562 C 35.136719 18.957031 35.292969 19.441406 35.292969 19.972656 C 35.292969 20.339844 35.226562 20.707031 35.070312 21.101562 Z M 35.070312 21.097656 "/>
</g>
</svg>
