
<svg xmlns="http://www.w3.org/2000/svg" xmlns:xlink="http://www.w3.org/1999/xlink" width="48px" height="48px" viewBox="0 0 48 48" version="1.1">
<g id="surface1">
<path style="fill-rule:nonzero;fill:rgb(92.156863%,92.156863%,92.156863%);fill-opacity:1;stroke-width:27.276072;stroke-linecap:butt;stroke-linejoin:miter;stroke:rgb(0%,65.882353%,83.137255%);stroke-opacity:1;stroke-miterlimit:4;" d="M 87.166667 32.583333 L 424.833333 32.583333 C 455 32.583333 479.416667 57 479.416667 87.166667 L 479.416667 424.833333 C 479.416667 455 455 479.416667 424.833333 479.416667 L 87.166667 479.416667 C 57 479.416667 32.583333 455 32.583333 424.833333 L 32.583333 87.166667 C 32.583333 57 57 32.583333 87.166667 32.583333 Z M 87.166667 32.583333 " transform="matrix(0.09375,0,0,0.09375,0,0)"/>
<path style=" stroke:none;fill-rule:nonzero;fill:rgb(100%,100%,0%);fill-opacity:1;" d="M 20.144531 11.496094 C 12.675781 11.871094 6.621094 17.546875 6.621094 25.015625 C 6.996094 32.484375 12.675781 38.539062 20.144531 38.539062 C 25.179688 38.535156 29.796875 35.734375 32.125 31.265625 L 21.570312 25.351562 L 32.957031 20.75 C 31.121094 15.230469 25.960938 11.503906 20.144531 11.496094 Z M 20.144531 11.496094 "/>
<path style=" stroke:none;fill-rule:nonzero;fill:rgb(0%,100%,100%);fill-opacity:1;" d="M 20.839844 18.714844 C 20.839844 19.851562 19.921875 20.773438 18.785156 20.773438 C 17.648438 20.773438 16.726562 19.851562 16.726562 18.714844 C 16.726562 17.582031 17.648438 16.660156 18.785156 16.660156 C 19.921875 16.660156 20.839844 17.582031 20.839844 18.714844 Z M 20.839844 18.714844 "/>
<path style=" stroke:none;fill-rule:evenodd;fill:rgb(40%,69.019608%,88.235294%);fill-opacity:1;" d="M 6.765625 5.035156 L 6.765625 6.789062 L 3.117188 6.789062 L 3.117188 7.074219 L 6.765625 7.074219 L 6.765625 12.472656 L 3.117188 12.472656 L 3.117188 12.757812 L 6.765625 12.757812 L 6.765625 18.152344 L 3.117188 18.152344 L 3.117188 18.4375 L 6.765625 18.4375 L 6.765625 23.839844 L 3.117188 23.839844 L 3.117188 24.121094 L 6.765625 24.121094 L 6.765625 29.519531 L 3.117188 29.519531 L 3.117188 29.804688 L 6.765625 29.804688 L 6.765625 35.203125 L 3.117188 35.203125 L 3.117188 35.488281 L 6.765625 35.488281 L 6.765625 40.886719 L 3.117188 40.886719 L 3.117188 41.171875 L 6.765625 41.171875 L 6.765625 42.925781 L 7.046875 42.925781 L 7.046875 41.171875 L 12.445312 41.171875 L 12.445312 42.925781 L 12.730469 42.925781 L 12.730469 41.171875 L 18.128906 41.171875 L 18.128906 42.925781 L 18.414062 42.925781 L 18.414062 41.171875 L 23.8125 41.171875 L 23.8125 42.925781 L 24.097656 42.925781 L 24.097656 41.171875 L 29.496094 41.171875 L 29.496094 42.925781 L 29.78125 42.925781 L 29.78125 41.171875 L 35.179688 41.171875 L 35.179688 42.925781 L 35.464844 42.925781 L 35.464844 41.171875 L 40.859375 41.171875 L 40.859375 42.925781 L 41.144531 42.925781 L 41.144531 41.171875 L 44.792969 41.171875 L 44.792969 40.886719 L 41.144531 40.886719 L 41.144531 35.488281 L 44.792969 35.488281 L 44.792969 35.203125 L 41.144531 35.203125 L 41.144531 29.804688 L 44.792969 29.804688 L 44.792969 29.519531 L 41.144531 29.519531 L 41.144531 24.121094 L 44.792969 24.121094 L 44.792969 23.839844 L 41.144531 23.839844 L 41.144531 18.4375 L 44.792969 18.4375 L 44.792969 18.152344 L 41.144531 18.152344 L 41.144531 12.757812 L 44.792969 12.757812 L 44.792969 12.472656 L 41.144531 12.472656 L 41.144531 7.074219 L 44.792969 7.074219 L 44.792969 6.789062 L 41.144531 6.789062 L 41.144531 5.035156 L 40.859375 5.035156 L 40.859375 6.789062 L 35.464844 6.789062 L 35.464844 5.035156 L 35.179688 5.035156 L 35.179688 6.789062 L 29.78125 6.789062 L 29.78125 5.035156 L 29.496094 5.035156 L 29.496094 6.789062 L 24.097656 6.789062 L 24.097656 5.035156 L 23.8125 5.035156 L 23.8125 6.789062 L 18.414062 6.789062 L 18.414062 5.035156 L 18.128906 5.035156 L 18.128906 6.789062 L 12.730469 6.789062 L 12.730469 5.035156 L 12.445312 5.035156 L 12.445312 6.789062 L 7.050781 6.789062 L 7.050781 5.035156 Z M 7.046875 7.074219 L 12.445312 7.074219 L 12.445312 12.472656 L 7.046875 12.472656 Z M 12.730469 7.074219 L 18.128906 7.074219 L 18.128906 12.472656 L 12.730469 12.472656 Z M 18.414062 7.074219 L 23.8125 7.074219 L 23.8125 12.472656 L 18.414062 12.472656 Z M 24.097656 7.074219 L 29.496094 7.074219 L 29.496094 12.472656 L 24.097656 12.472656 Z M 29.78125 7.074219 L 35.179688 7.074219 L 35.179688 12.472656 L 29.78125 12.472656 Z M 35.464844 7.074219 L 40.859375 7.074219 L 40.859375 12.472656 L 35.464844 12.472656 Z M 7.046875 12.757812 L 12.445312 12.757812 L 12.445312 18.152344 L 7.046875 18.152344 Z M 12.730469 12.757812 L 18.128906 12.757812 L 18.128906 18.152344 L 12.730469 18.152344 Z M 18.414062 12.757812 L 23.8125 12.757812 L 23.8125 18.152344 L 18.414062 18.152344 Z M 24.097656 12.757812 L 29.496094 12.757812 L 29.496094 18.152344 L 24.097656 18.152344 Z M 29.78125 12.757812 L 35.179688 12.757812 L 35.179688 18.152344 L 29.78125 18.152344 Z M 35.464844 12.757812 L 40.859375 12.757812 L 40.859375 18.152344 L 35.464844 18.152344 Z M 7.046875 18.4375 L 12.445312 18.4375 L 12.445312 23.839844 L 7.046875 23.839844 Z M 12.730469 18.4375 L 18.128906 18.4375 L 18.128906 23.839844 L 12.730469 23.839844 Z M 18.414062 18.4375 L 23.8125 18.4375 L 23.8125 23.839844 L 18.414062 23.839844 Z M 24.097656 18.4375 L 29.496094 18.4375 L 29.496094 23.839844 L 24.097656 23.839844 Z M 29.78125 18.4375 L 35.179688 18.4375 L 35.179688 23.839844 L 29.78125 23.839844 Z M 35.464844 18.4375 L 40.859375 18.4375 L 40.859375 23.839844 L 35.464844 23.839844 Z M 7.046875 24.121094 L 12.445312 24.121094 L 12.445312 29.519531 L 7.046875 29.519531 Z M 12.730469 24.121094 L 18.128906 24.121094 L 18.128906 29.519531 L 12.730469 29.519531 Z M 18.414062 24.121094 L 23.8125 24.121094 L 23.8125 29.519531 L 18.414062 29.519531 Z M 24.097656 24.121094 L 29.496094 24.121094 L 29.496094 29.519531 L 24.097656 29.519531 Z M 29.78125 24.121094 L 35.179688 24.121094 L 35.179688 29.519531 L 29.78125 29.519531 Z M 35.464844 24.121094 L 40.859375 24.121094 L 40.859375 29.519531 L 35.464844 29.519531 Z M 7.046875 29.804688 L 12.445312 29.804688 L 12.445312 35.203125 L 7.046875 35.203125 Z M 12.730469 29.804688 L 18.128906 29.804688 L 18.128906 35.203125 L 12.730469 35.203125 Z M 18.414062 29.804688 L 23.8125 29.804688 L 23.8125 35.203125 L 18.414062 35.203125 Z M 24.097656 29.804688 L 29.496094 29.804688 L 29.496094 35.203125 L 24.097656 35.203125 Z M 29.78125 29.804688 L 35.179688 29.804688 L 35.179688 35.203125 L 29.78125 35.203125 Z M 35.464844 29.804688 L 40.859375 29.804688 L 40.859375 35.203125 L 35.464844 35.203125 Z M 7.046875 35.488281 L 12.445312 35.488281 L 12.445312 40.886719 L 7.046875 40.886719 Z M 12.730469 35.488281 L 18.128906 35.488281 L 18.128906 40.886719 L 12.730469 40.886719 Z M 18.414062 35.488281 L 23.8125 35.488281 L 23.8125 40.886719 L 18.414062 40.886719 Z M 24.097656 35.488281 L 29.496094 35.488281 L 29.496094 40.886719 L 24.097656 40.886719 Z M 29.78125 35.488281 L 35.179688 35.488281 L 35.179688 40.886719 L 29.78125 40.886719 Z M 35.464844 35.488281 L 40.859375 35.488281 L 40.859375 40.886719 L 35.464844 40.886719 Z M 35.464844 35.488281 "/>
<path style=" stroke:none;fill-rule:nonzero;fill:rgb(100%,100%,0%);fill-opacity:1;" d="M 35.484375 26.039062 C 35.484375 27.175781 34.5625 28.097656 33.425781 28.097656 C 32.292969 28.097656 31.371094 27.175781 31.371094 26.039062 C 31.371094 24.902344 32.292969 23.980469 33.425781 23.980469 C 34.5625 23.980469 35.484375 24.902344 35.484375 26.039062 Z M 35.484375 26.039062 "/>
<path style=" stroke:none;fill-rule:nonzero;fill:rgb(100%,100%,0%);fill-opacity:1;" d="M 40.972656 26.039062 C 40.972656 27.175781 40.050781 28.097656 38.914062 28.097656 C 37.777344 28.097656 36.855469 27.175781 36.855469 26.039062 C 36.855469 24.902344 37.777344 23.980469 38.914062 23.980469 C 40.050781 23.980469 40.972656 24.902344 40.972656 26.039062 Z M 40.972656 26.039062 "/>
</g>
</svg>
