
<svg xmlns="http://www.w3.org/2000/svg" xmlns:xlink="http://www.w3.org/1999/xlink" width="48px" height="48px" viewBox="0 0 48 48" version="1.1">
<g id="surface1">
<path style="fill-rule:nonzero;fill:rgb(92.54902%,92.54902%,92.54902%);fill-opacity:1;stroke-width:6.841342;stroke-linecap:butt;stroke-linejoin:miter;stroke:rgb(0%,66.666667%,83.137255%);stroke-opacity:1;stroke-miterlimit:4;" d="M 21.645833 7.96875 L 106.354167 7.96875 C 113.90625 7.96875 120.03125 14.09375 120.03125 21.645833 L 120.03125 106.354167 C 120.03125 113.90625 113.90625 120.03125 106.354167 120.03125 L 21.645833 120.03125 C 14.09375 120.03125 7.96875 113.90625 7.96875 106.354167 L 7.96875 21.645833 C 7.96875 14.09375 14.09375 7.96875 21.645833 7.96875 Z M 21.645833 7.96875 " transform="matrix(0.375,0,0,0.375,0,0)"/>
<path style=" stroke:none;fill-rule:evenodd;fill:rgb(50.196078%,50.196078%,50.196078%);fill-opacity:1;" d="M 20.980469 38.308594 L 16.15625 41.472656 L 31.832031 41.472656 L 27.007812 38.308594 Z M 20.980469 38.308594 "/>
<path style=" stroke:none;fill-rule:evenodd;fill:rgb(50.196078%,50.196078%,50.196078%);fill-opacity:1;" d="M 20.980469 37.351562 L 16.15625 40.511719 L 31.832031 40.511719 L 27.007812 37.351562 Z M 20.980469 37.351562 "/>
<path style=" stroke:none;fill-rule:nonzero;fill:rgb(30.196078%,30.196078%,30.196078%);fill-opacity:1;" d="M 20.644531 31.542969 L 27.355469 31.542969 L 27.355469 39.007812 L 20.644531 39.007812 Z M 20.644531 31.542969 "/>
<path style=" stroke:none;fill-rule:nonzero;fill:rgb(50.196078%,50.196078%,50.196078%);fill-opacity:1;" d="M 7.355469 6.527344 L 40.644531 6.527344 C 41.8125 6.527344 42.757812 7.429688 42.757812 8.542969 L 42.757812 31.859375 C 42.757812 32.972656 41.8125 33.875 40.644531 33.875 L 7.355469 33.875 C 6.1875 33.875 5.242188 32.972656 5.242188 31.859375 L 5.242188 8.542969 C 5.242188 7.429688 6.1875 6.527344 7.355469 6.527344 Z M 7.355469 6.527344 "/>
<path style=" stroke:none;fill-rule:nonzero;fill:rgb(0%,66.666667%,83.137255%);fill-opacity:1;" d="M 8.753906 9.085938 L 39.246094 9.085938 L 39.246094 31.316406 L 8.753906 31.316406 Z M 8.753906 9.085938 "/>
<path style=" stroke:none;fill-rule:evenodd;fill:rgb(0%,0%,0%);fill-opacity:1;" d="M 16.15625 40.511719 L 16.15625 41.472656 L 31.84375 41.472656 L 31.84375 40.511719 Z M 16.15625 40.511719 "/>
<path style=" stroke:none;fill-rule:nonzero;fill:rgb(100%,100%,100%);fill-opacity:1;" d="M 19.347656 22.652344 C 19.347656 23.1875 18.914062 23.621094 18.378906 23.621094 C 17.84375 23.621094 17.40625 23.1875 17.40625 22.652344 C 17.40625 22.117188 17.84375 21.679688 18.378906 21.679688 C 18.914062 21.679688 19.347656 22.117188 19.347656 22.652344 Z M 19.347656 22.652344 "/>
<path style=" stroke:none;fill-rule:nonzero;fill:rgb(100%,100%,100%);fill-opacity:1;" d="M 22.160156 22.652344 C 22.160156 23.1875 21.726562 23.621094 21.191406 23.621094 C 20.65625 23.621094 20.21875 23.1875 20.21875 22.652344 C 20.21875 22.117188 20.65625 21.679688 21.191406 21.679688 C 21.726562 21.679688 22.160156 22.117188 22.160156 22.652344 Z M 22.160156 22.652344 "/>
<path style=" stroke:none;fill-rule:nonzero;fill:rgb(100%,100%,100%);fill-opacity:1;" d="M 24.972656 22.652344 C 24.972656 23.1875 24.539062 23.621094 24.003906 23.621094 C 23.46875 23.621094 23.03125 23.1875 23.03125 22.652344 C 23.03125 22.117188 23.46875 21.679688 24.003906 21.679688 C 24.539062 21.679688 24.972656 22.117188 24.972656 22.652344 Z M 24.972656 22.652344 "/>
<path style=" stroke:none;fill-rule:nonzero;fill:rgb(100%,100%,100%);fill-opacity:1;" d="M 27.785156 22.652344 C 27.785156 23.1875 27.351562 23.621094 26.816406 23.621094 C 26.28125 23.621094 25.84375 23.1875 25.84375 22.652344 C 25.84375 22.117188 26.28125 21.679688 26.816406 21.679688 C 27.351562 21.679688 27.785156 22.117188 27.785156 22.652344 Z M 27.785156 22.652344 "/>
<path style=" stroke:none;fill-rule:nonzero;fill:rgb(100%,100%,100%);fill-opacity:1;" d="M 30.597656 22.652344 C 30.597656 23.1875 30.164062 23.621094 29.628906 23.621094 C 29.09375 23.621094 28.65625 23.1875 28.65625 22.652344 C 28.65625 22.117188 29.09375 21.679688 29.628906 21.679688 C 30.164062 21.679688 30.597656 22.117188 30.597656 22.652344 Z M 30.597656 22.652344 "/>
</g>
</svg>
