
<svg xmlns="http://www.w3.org/2000/svg" xmlns:xlink="http://www.w3.org/1999/xlink" width="48px" height="48px" viewBox="0 0 48 48" version="1.1">
<g id="surface1">
<path style="fill-rule:nonzero;fill:rgb(92.54902%,92.54902%,92.54902%);fill-opacity:1;stroke-width:6.841342;stroke-linecap:butt;stroke-linejoin:miter;stroke:rgb(0%,66.666667%,83.137255%);stroke-opacity:1;stroke-miterlimit:4;" d="M 21.645833 7.96875 L 106.354167 7.96875 C 113.90625 7.96875 120.03125 14.09375 120.03125 21.645833 L 120.03125 106.354167 C 120.03125 113.90625 113.90625 120.03125 106.354167 120.03125 L 21.645833 120.03125 C 14.09375 120.03125 7.96875 113.90625 7.96875 106.354167 L 7.96875 21.645833 C 7.96875 14.09375 14.09375 7.96875 21.645833 7.96875 Z M 21.645833 7.96875 " transform="matrix(0.375,0,0,0.375,0,0)"/>
<path style=" stroke:none;fill-rule:evenodd;fill:rgb(50.196078%,50.196078%,50.196078%);fill-opacity:1;" d="M 20.980469 38.308594 L 16.15625 41.472656 L 31.832031 41.472656 L 27.007812 38.308594 Z M 20.980469 38.308594 "/>
<path style=" stroke:none;fill-rule:evenodd;fill:rgb(50.196078%,50.196078%,50.196078%);fill-opacity:1;" d="M 20.980469 37.351562 L 16.15625 40.511719 L 31.832031 40.511719 L 27.007812 37.351562 Z M 20.980469 37.351562 "/>
<path style=" stroke:none;fill-rule:nonzero;fill:rgb(30.196078%,30.196078%,30.196078%);fill-opacity:1;" d="M 20.644531 31.542969 L 27.355469 31.542969 L 27.355469 39.007812 L 20.644531 39.007812 Z M 20.644531 31.542969 "/>
<path style=" stroke:none;fill-rule:nonzero;fill:rgb(50.196078%,50.196078%,50.196078%);fill-opacity:1;" d="M 7.355469 6.527344 L 40.644531 6.527344 C 41.8125 6.527344 42.757812 7.429688 42.757812 8.542969 L 42.757812 31.859375 C 42.757812 32.972656 41.8125 33.875 40.644531 33.875 L 7.355469 33.875 C 6.1875 33.875 5.242188 32.972656 5.242188 31.859375 L 5.242188 8.542969 C 5.242188 7.429688 6.1875 6.527344 7.355469 6.527344 Z M 7.355469 6.527344 "/>
<path style=" stroke:none;fill-rule:nonzero;fill:rgb(0%,66.666667%,83.137255%);fill-opacity:1;" d="M 8.753906 9.085938 L 39.246094 9.085938 L 39.246094 31.316406 L 8.753906 31.316406 Z M 8.753906 9.085938 "/>
<path style=" stroke:none;fill-rule:evenodd;fill:rgb(0%,0%,0%);fill-opacity:1;" d="M 16.15625 40.511719 L 16.15625 41.472656 L 31.84375 41.472656 L 31.84375 40.511719 Z M 16.15625 40.511719 "/>
<path style=" stroke:none;fill-rule:nonzero;fill:rgb(100%,100%,100%);fill-opacity:1;" d="M 27.292969 27.328125 L 25.566406 27.328125 L 25.566406 29.160156 L 27.292969 29.160156 Z M 24.703125 27.328125 L 22.976562 27.328125 L 22.976562 29.160156 L 24.703125 29.160156 Z M 22.113281 27.328125 L 20.386719 27.328125 L 20.386719 29.160156 L 22.113281 29.160156 Z M 22.113281 27.328125 "/>
<path style=" stroke:none;fill-rule:evenodd;fill:rgb(20%,20%,20%);fill-opacity:1;" d="M 8.664062 9.140625 L 8.664062 10.886719 L 39.164062 10.886719 L 39.164062 9.140625 Z M 8.664062 9.140625 "/>
<path style=" stroke:none;fill-rule:evenodd;fill:rgb(20%,20%,20%);fill-opacity:1;" d="M 31.105469 12.429688 L 38.125 12.429688 L 38.125 17.789062 Z M 31.105469 12.429688 "/>
<path style=" stroke:none;fill-rule:evenodd;fill:rgb(20%,20%,20%);fill-opacity:1;" d="M 17.417969 30.339844 L 10.398438 30.339844 L 10.398438 24.976562 Z M 17.417969 30.339844 "/>
</g>
</svg>
