
<svg xmlns="http://www.w3.org/2000/svg" xmlns:xlink="http://www.w3.org/1999/xlink" width="48px" height="48px" viewBox="0 0 48 48" version="1.1">
<g id="surface1">
<path style="fill-rule:nonzero;fill:rgb(100%,100%,100%);fill-opacity:1;stroke-width:7.075311;stroke-linecap:butt;stroke-linejoin:miter;stroke:rgb(92.54902%,46.666667%,8.235294%);stroke-opacity:1;stroke-miterlimit:4;" d="M 20.197917 6.052083 L 107.802083 6.052083 C 115.614583 6.052083 121.947917 12.385417 121.947917 20.197917 L 121.947917 107.802083 C 121.947917 115.614583 115.614583 121.947917 107.802083 121.947917 L 20.197917 121.947917 C 12.385417 121.947917 6.052083 115.614583 6.052083 107.802083 L 6.052083 20.197917 C 6.052083 12.385417 12.385417 6.052083 20.197917 6.052083 Z M 20.197917 6.052083 " transform="matrix(0.375,0,0,0.375,0,0)"/>
<path style="fill-rule:nonzero;fill:rgb(45.490196%,57.254902%,50.196078%);fill-opacity:1;stroke-width:1.04972;stroke-linecap:butt;stroke-linejoin:miter;stroke:rgb(92.54902%,46.666667%,8.235294%);stroke-opacity:1;stroke-miterlimit:4;" d="M 44.203362 187.572114 C 43.893306 187.629532 43.594734 187.698433 43.296161 187.778818 C 42.733467 187.84772 42.19374 187.974039 41.665497 188.134808 C 27.862268 191.327236 16.321298 200.709298 10.372818 213.559392 C 10.154631 214.007251 9.936443 214.455109 9.729739 214.902968 C 9.477101 215.546047 9.235947 216.189125 9.017759 216.832204 C 8.707703 217.624569 8.420614 218.405451 8.156493 219.2093 C 7.869404 220.196885 7.605282 221.195954 7.387095 222.206507 C 7.260776 222.677332 7.134457 223.159641 7.019621 223.641951 C 6.571763 225.950144 6.296157 228.281305 6.204289 230.635434 C 6.158355 231.324447 6.123904 232.024943 6.100937 232.72544 C 6.100937 232.736924 6.100937 232.736924 6.100937 232.748407 C 6.100937 232.759891 6.100937 232.759891 6.100937 232.771374 C 6.11242 233.184782 6.135388 233.609674 6.169838 234.023081 C 10.223532 237.514081 14.897338 240.580189 18.88213 240.637607 C 22.56835 240.695025 26.897649 238.214578 30.802057 235.18292 C 30.767606 234.930282 30.733156 234.66616 30.698705 234.402039 C 30.664254 233.919729 30.641287 233.425937 30.629804 232.943628 C 30.629804 232.874726 30.629804 232.817308 30.61832 232.748407 C 30.629804 232.679506 30.629804 232.610605 30.629804 232.553187 C 30.641287 232.059394 30.664254 231.577085 30.698705 231.094776 C 30.744639 230.681368 30.802057 230.256476 30.870958 229.854552 C 30.893925 229.647848 30.928376 229.441144 30.962827 229.245924 C 31.054695 228.775098 31.158047 228.315756 31.284366 227.856414 C 31.318817 227.718611 31.353267 227.569325 31.387718 227.431523 C 31.548488 226.926246 31.709257 226.42097 31.904478 225.927177 C 31.938928 225.835309 31.973379 225.754924 32.00783 225.663056 C 34.166737 220.288753 38.656806 216.200609 44.203362 214.535494 L 44.203362 214.271372 C 44.398582 214.282856 44.582319 214.305823 44.789023 214.305823 L 65.4709 214.305823 C 70.271024 214.305823 74.359169 211.101912 76.081702 206.508491 C 73.406034 207.197504 68.686294 208.299925 65.769472 208.276958 C 63.817268 208.265475 61.669844 208.18509 60.016213 207.128603 C 58.925275 206.428106 57.719502 203.959143 57.719502 203.959143 C 57.719502 203.959143 65.884308 205.497939 69.800199 204.53332 C 72.028008 203.98211 75.266369 201.765784 76.965935 200.525561 L 76.965935 200.353308 C 76.965935 193.31389 71.844271 187.652499 65.4709 187.652499 L 44.789023 187.652499 C 44.582319 187.652499 44.398582 187.675466 44.203362 187.68695 Z M 61.026765 193.899551 C 62.69188 193.899551 64.046939 195.243127 64.046939 196.919726 C 64.046939 198.584841 62.69188 199.9399 61.026765 199.9399 C 59.36165 199.9399 58.006591 198.584841 58.006591 196.919726 C 58.006591 195.243127 59.36165 193.899551 61.026765 193.899551 Z M 61.026765 193.899551 " transform="matrix(0.34016,0,0,0.34016,14.491109,-56.718675)"/>
<path style="fill-rule:nonzero;fill:rgb(45.490196%,57.254902%,50.196078%);fill-opacity:1;stroke-width:1.04972;stroke-linecap:butt;stroke-linejoin:miter;stroke:rgb(92.54902%,46.666667%,8.235294%);stroke-opacity:1;stroke-miterlimit:4;" d="M 47.924033 260.148162 C 40.597526 268.956046 29.734087 274.054743 18.284985 274.066226 C 17.81416 274.043259 17.343334 274.020292 16.872509 273.985842 C 18.124216 275.283483 19.456308 276.500739 20.857301 277.626128 C 20.960653 277.695029 21.052521 277.76393 21.155873 277.844315 C 22.258294 278.705581 23.406649 279.532397 24.589455 280.290312 C 24.692807 280.347729 24.784676 280.405147 24.888028 280.462565 C 26.082317 281.220479 27.311057 281.920976 28.562764 282.575538 C 28.700567 282.632956 28.826886 282.690374 28.953205 282.747792 C 32.168599 284.332522 35.567731 285.526811 39.070214 286.33066 C 39.57549 286.479946 40.103734 286.594781 40.631977 286.675166 C 40.953517 286.755551 41.263573 286.824453 41.585112 286.893354 L 41.585112 286.767035 C 41.780332 286.778518 41.975553 286.801485 42.170773 286.801485 L 62.85265 286.801485 C 69.226021 286.801485 74.347685 281.140094 74.347685 274.112161 L 74.347685 272.837486 C 74.347685 265.809553 69.226021 260.148162 62.85265 260.148162 Z M 47.924033 260.148162 " transform="matrix(0.34016,0,0,0.34016,14.491109,-56.718675)"/>
<path style="fill-rule:nonzero;fill:rgb(92.54902%,46.666667%,8.235294%);fill-opacity:1;stroke-width:1;stroke-linecap:butt;stroke-linejoin:miter;stroke:rgb(92.54902%,46.666667%,8.235294%);stroke-opacity:1;stroke-miterlimit:4;" d="M 13.461894 195.392413 C -5.428549 196.12736 -18.232709 209.321961 -20.621288 228.132019 C -20.839476 229.004769 -20.965795 229.91197 -20.965795 230.853621 L -20.965795 246.850209 L -21.08063 246.850209 L -21.08063 283.90763 L 2.173562 283.90763 L 2.173562 267.623954 C 6.778466 269.553191 11.727877 270.55226 16.723222 270.55226 C 37.531418 270.55226 54.400756 253.682922 54.400756 232.874726 C 54.389272 226.650641 52.747124 221.643813 49.795851 216.166158 L 44.823474 217.130777 C 44.61677 217.165227 44.410066 217.10781 44.203362 217.096326 L 44.203362 217.371931 C 38.369717 219.117431 37.336198 221.551944 35.062455 227.201852 C 35.028004 227.29372 34.970586 227.557842 34.936135 227.64971 C 34.775366 228.074602 34.936135 228.488009 34.809816 228.935868 C 35.280642 230.359828 34.293057 231.714887 34.30454 233.219233 C 34.30454 241.085466 24.727258 247.252133 16.861025 247.252133 C 8.994792 247.252133 2.621421 240.878762 2.621421 233.012529 C 2.632904 230.566532 1.300812 227.948282 2.403233 225.754924 C 2.575487 225.398934 2.632904 224.83624 2.713289 224.445799 C 2.805158 223.940523 2.954444 223.44673 3.092246 222.941454 C 3.321917 221.884967 3.597523 220.82848 3.896095 219.783477 C 4.183184 218.945178 4.481756 218.118362 4.803296 217.30303 C 5.04445 216.614017 5.285605 215.936487 5.56121 215.258958 C 5.779397 214.788132 5.997585 214.317307 6.23874 213.857964 C 9.511552 206.60036 12.784364 200.261439 19.697462 195.185709 C 17.550038 194.806752 15.505966 195.036423 13.461894 195.392413 Z M 13.461894 195.392413 " transform="matrix(0.34016,0,0,0.34016,14.491109,-56.718675)"/>
</g>
</svg>
