
<svg xmlns="http://www.w3.org/2000/svg" xmlns:xlink="http://www.w3.org/1999/xlink" width="48px" height="48px" viewBox="0 0 48 48" version="1.1">
<g id="surface1">
<path style=" stroke:none;fill-rule:evenodd;fill:rgb(80.392157%,61.176471%,42.745098%);fill-opacity:1;" d="M 7.644531 2.90625 L 40.355469 2.90625 C 42.972656 2.90625 45.09375 5.027344 45.09375 7.644531 L 45.09375 40.355469 C 45.09375 42.972656 42.972656 45.09375 40.355469 45.09375 L 7.644531 45.09375 C 5.027344 45.09375 2.90625 42.972656 2.90625 40.355469 L 2.90625 7.644531 C 2.90625 5.027344 5.027344 2.90625 7.644531 2.90625 Z M 7.644531 2.90625 "/>
<path style=" stroke:none;fill-rule:nonzero;fill:rgb(41.568627%,30.196078%,21.960784%);fill-opacity:1;" d="M 22.050781 32.515625 C 20.265625 32.230469 18.257812 31.175781 16.957031 29.84375 C 15.007812 27.855469 14.003906 24.929688 14.320312 22.195312 C 14.835938 17.738281 18.171875 14.339844 22.535156 13.824219 C 25.335938 13.496094 28.195312 14.507812 30.167969 16.527344 C 32.140625 18.546875 33.148438 21.457031 32.828125 24.210938 C 32.40625 27.875 30.128906 30.796875 26.707031 32.078125 C 25.253906 32.621094 23.648438 32.773438 22.050781 32.515625 Z M 25.691406 30.359375 C 28.183594 29.519531 30.207031 27.300781 30.855469 24.6875 C 31.027344 23.992188 31.027344 22.414062 30.855469 21.707031 C 30.226562 19.109375 28.199219 16.890625 25.660156 16.023438 C 24.796875 15.730469 24.59375 15.699219 23.574219 15.699219 C 22.617188 15.703125 22.316406 15.742188 21.609375 15.972656 C 19.734375 16.582031 18.3125 17.722656 17.234375 19.472656 C 16.183594 21.179688 15.882812 23.042969 16.355469 24.902344 C 17.074219 27.734375 19.703125 30.175781 22.566406 30.667969 C 23.445312 30.816406 24.691406 30.695312 25.691406 30.359375 Z M 22.09375 26.71875 C 21.3125 25.859375 20.242188 24.679688 19.707031 24.101562 C 18.394531 22.671875 18.121094 22.316406 18.285156 22.253906 C 18.355469 22.226562 19.101562 22.195312 19.9375 22.179688 L 21.460938 22.152344 L 21.511719 20.113281 L 21.558594 18.070312 L 22.566406 18.019531 C 23.121094 17.992188 24.027344 17.992188 24.582031 18.019531 L 25.589844 18.070312 L 25.636719 20.113281 L 25.6875 22.152344 L 27.210938 22.179688 C 28.046875 22.195312 28.792969 22.226562 28.863281 22.253906 C 29.027344 22.316406 28.753906 22.671875 27.441406 24.101562 C 26.910156 24.679688 25.835938 25.859375 25.058594 26.71875 C 24.277344 27.574219 23.609375 28.277344 23.574219 28.277344 C 23.539062 28.277344 22.871094 27.574219 22.09375 26.71875 Z M 22.09375 26.71875 "/>
<path style=" stroke:none;fill-rule:evenodd;fill:rgb(89.019608%,76.862745%,66.27451%);fill-opacity:1;" d="M 20.195312 41.089844 L 26.988281 41.089844 C 27.097656 41.089844 27.1875 41.179688 27.1875 41.292969 L 27.1875 44.886719 C 27.1875 45 27.097656 45.089844 26.988281 45.089844 L 20.195312 45.089844 C 20.085938 45.089844 19.996094 45 19.996094 44.886719 L 19.996094 41.292969 C 19.996094 41.179688 20.085938 41.089844 20.195312 41.089844 Z M 20.195312 41.089844 "/>
<path style=" stroke:none;fill-rule:evenodd;fill:rgb(89.019608%,76.862745%,66.27451%);fill-opacity:1;" d="M 20.277344 2.90625 L 27.070312 2.90625 C 27.179688 2.90625 27.269531 2.996094 27.269531 3.105469 L 27.269531 6.703125 C 27.269531 6.8125 27.179688 6.902344 27.070312 6.902344 L 20.277344 6.902344 C 20.167969 6.902344 20.078125 6.8125 20.078125 6.703125 L 20.078125 3.105469 C 20.078125 2.996094 20.167969 2.90625 20.277344 2.90625 Z M 20.277344 2.90625 "/>
</g>
</svg>
