
<svg xmlns="http://www.w3.org/2000/svg" xmlns:xlink="http://www.w3.org/1999/xlink" width="48px" height="48px" viewBox="0 0 48 48" version="1.1">
<defs>
<linearGradient id="linear0" gradientUnits="userSpaceOnUse" x1="1" y1="0" x2="47" y2="0" gradientTransform="matrix(0,-1,1,0,0.00221467,48.000001)">
<stop offset="0" style="stop-color:rgb(22.352941%,79.607843%,76.078431%);stop-opacity:1;"/>
<stop offset="1" style="stop-color:rgb(28.235294%,81.176471%,78.039216%);stop-opacity:1;"/>
</linearGradient>
</defs>
<g id="surface1">
<path style=" stroke:none;fill-rule:nonzero;fill:url(#linear0);" d="M 1 43 L 1 5 C 1 2.789062 2.789062 1 5 1 L 43 1 C 45.210938 1 47 2.789062 47 5 L 47 43 C 47 45.210938 45.210938 47 43 47 L 5 47 C 2.789062 47 1 45.210938 1 43 Z M 1 43 "/>
<path style=" stroke:none;fill-rule:nonzero;fill:rgb(100%,100%,100%);fill-opacity:1;" d="M 19.011719 8.578125 C 18.589844 8.578125 18.257812 8.925781 18.257812 9.355469 L 18.257812 10.863281 C 17.503906 11.0625 16.789062 11.367188 16.128906 11.753906 L 15.046875 10.679688 C 14.894531 10.53125 14.71875 10.441406 14.523438 10.4375 C 14.328125 10.4375 14.125 10.507812 13.976562 10.65625 L 11.871094 12.761719 C 11.570312 13.058594 11.589844 13.53125 11.894531 13.832031 L 12.964844 14.914062 C 12.582031 15.574219 12.277344 16.292969 12.078125 17.046875 L 10.566406 17.046875 C 10.140625 17.046875 9.789062 17.378906 9.789062 17.800781 L 9.789062 20.769531 C 9.789062 21.191406 10.140625 21.523438 10.566406 21.523438 L 12.078125 21.523438 C 12.277344 22.277344 12.582031 22.992188 12.964844 23.652344 L 11.894531 24.734375 C 11.589844 25.039062 11.570312 25.507812 11.871094 25.804688 L 13.976562 27.910156 C 14.273438 28.207031 14.742188 28.1875 15.046875 27.886719 L 16.128906 26.816406 C 16.789062 27.199219 17.503906 27.503906 18.257812 27.703125 L 18.257812 29.210938 C 18.257812 29.640625 18.589844 29.992188 19.011719 29.992188 L 21.980469 29.992188 C 22.402344 29.992188 22.734375 29.640625 22.734375 29.210938 L 22.734375 27.703125 C 23.488281 27.503906 24.207031 27.199219 24.863281 26.816406 L 25.949219 27.886719 C 26.25 28.1875 26.71875 28.207031 27.019531 27.910156 L 29.125 25.804688 C 29.421875 25.507812 29.402344 25.039062 29.097656 24.734375 L 28.027344 23.652344 C 28.410156 22.992188 28.714844 22.277344 28.917969 21.523438 L 30.425781 21.523438 C 30.855469 21.523438 31.203125 21.191406 31.203125 20.769531 L 31.203125 17.800781 C 31.203125 17.378906 30.855469 17.046875 30.425781 17.046875 L 28.917969 17.046875 C 28.714844 16.292969 28.410156 15.574219 28.027344 14.914062 L 29.097656 13.832031 C 29.402344 13.53125 29.421875 13.058594 29.125 12.761719 L 27.019531 10.65625 C 26.71875 10.359375 26.25 10.378906 25.949219 10.679688 L 24.863281 11.753906 C 24.207031 11.367188 23.488281 11.0625 22.734375 10.863281 L 22.734375 9.355469 C 22.734375 8.925781 22.402344 8.578125 21.980469 8.578125 Z M 20.496094 13.832031 C 23.507812 13.832031 25.949219 16.273438 25.949219 19.285156 C 25.949219 22.292969 23.507812 24.734375 20.496094 24.734375 C 17.484375 24.734375 15.046875 22.292969 15.046875 19.285156 C 15.046875 16.273438 17.484375 13.832031 20.496094 13.832031 Z M 20.496094 13.832031 "/>
<path style=" stroke:none;fill-rule:nonzero;fill:rgb(100%,100%,100%);fill-opacity:1;" d="M 28.128906 27.285156 C 27.894531 27.265625 27.691406 27.445312 27.667969 27.683594 L 27.59375 28.527344 C 27.160156 28.601562 26.742188 28.738281 26.355469 28.917969 L 25.804688 28.265625 C 25.726562 28.171875 25.632812 28.113281 25.523438 28.101562 C 25.414062 28.089844 25.296875 28.121094 25.207031 28.195312 L 23.921875 29.269531 C 23.738281 29.421875 23.726562 29.683594 23.882812 29.871094 L 24.425781 30.527344 C 24.179688 30.878906 23.972656 31.265625 23.820312 31.675781 L 22.976562 31.601562 C 22.738281 31.578125 22.523438 31.746094 22.503906 31.984375 L 22.351562 33.644531 C 22.332031 33.878906 22.511719 34.085938 22.75 34.105469 L 23.59375 34.183594 C 23.671875 34.613281 23.804688 35.03125 23.984375 35.417969 L 23.332031 35.972656 C 23.144531 36.125 23.113281 36.386719 23.265625 36.570312 L 24.335938 37.855469 C 24.488281 38.035156 24.75 38.046875 24.9375 37.894531 L 25.597656 37.347656 C 25.945312 37.597656 26.332031 37.804688 26.742188 37.953125 L 26.667969 38.796875 C 26.644531 39.039062 26.816406 39.25 27.050781 39.273438 L 28.710938 39.421875 C 28.949219 39.445312 29.152344 39.265625 29.171875 39.023438 L 29.25 38.179688 C 29.683594 38.105469 30.097656 37.972656 30.488281 37.789062 L 31.039062 38.445312 C 31.191406 38.628906 31.453125 38.664062 31.636719 38.511719 L 32.921875 37.4375 C 33.101562 37.289062 33.117188 37.023438 32.960938 36.839844 L 32.417969 36.179688 C 32.664062 35.828125 32.871094 35.445312 33.019531 35.03125 L 33.867188 35.109375 C 34.105469 35.128906 34.320312 34.960938 34.339844 34.722656 L 34.488281 33.0625 C 34.511719 32.828125 34.332031 32.621094 34.089844 32.601562 L 33.246094 32.523438 C 33.171875 32.09375 33.039062 31.675781 32.855469 31.289062 L 33.511719 30.738281 C 33.695312 30.582031 33.730469 30.320312 33.578125 30.136719 L 32.507812 28.855469 C 32.355469 28.671875 32.089844 28.660156 31.90625 28.8125 L 31.246094 29.359375 C 30.898438 29.109375 30.511719 28.90625 30.097656 28.753906 L 30.175781 27.910156 C 30.195312 27.667969 30.027344 27.457031 29.792969 27.433594 Z M 28.695312 30.304688 C 30.382812 30.453125 31.625 31.945312 31.472656 33.628906 C 31.320312 35.3125 29.832031 36.558594 28.148438 36.40625 C 26.460938 36.253906 25.21875 34.765625 25.371094 33.078125 C 25.523438 31.394531 27.011719 30.152344 28.695312 30.304688 Z M 28.695312 30.304688 "/>
<path style=" stroke:none;fill-rule:nonzero;fill:rgb(100%,100%,100%);fill-opacity:1;" d="M 33.714844 20.167969 C 33.546875 20.15625 33.402344 20.28125 33.386719 20.449219 L 33.335938 21.046875 C 33.027344 21.101562 32.734375 21.195312 32.460938 21.324219 L 32.070312 20.859375 C 32.015625 20.796875 31.949219 20.753906 31.871094 20.746094 C 31.792969 20.738281 31.710938 20.757812 31.648438 20.8125 L 30.738281 21.570312 C 30.609375 21.679688 30.601562 21.863281 30.710938 21.996094 L 31.09375 22.460938 C 30.921875 22.710938 30.773438 22.980469 30.667969 23.273438 L 30.070312 23.21875 C 29.902344 23.203125 29.75 23.324219 29.734375 23.492188 L 29.628906 24.664062 C 29.617188 24.832031 29.742188 24.976562 29.910156 24.992188 L 30.507812 25.042969 C 30.5625 25.351562 30.65625 25.644531 30.785156 25.917969 L 30.320312 26.308594 C 30.191406 26.417969 30.167969 26.605469 30.273438 26.730469 L 31.03125 27.640625 C 31.140625 27.769531 31.324219 27.777344 31.457031 27.667969 L 31.921875 27.285156 C 32.171875 27.457031 32.441406 27.605469 32.734375 27.710938 L 32.679688 28.308594 C 32.664062 28.476562 32.785156 28.628906 32.949219 28.644531 L 34.125 28.75 C 34.292969 28.765625 34.4375 28.636719 34.453125 28.46875 L 34.507812 27.871094 C 34.8125 27.816406 35.105469 27.722656 35.378906 27.59375 L 35.769531 28.058594 C 35.878906 28.1875 36.0625 28.210938 36.191406 28.105469 L 37.101562 27.347656 C 37.230469 27.238281 37.238281 27.054688 37.128906 26.921875 L 36.746094 26.457031 C 36.917969 26.210938 37.066406 25.9375 37.171875 25.644531 L 37.769531 25.699219 C 37.9375 25.714844 38.089844 25.59375 38.105469 25.429688 L 38.210938 24.253906 C 38.226562 24.085938 38.097656 23.941406 37.929688 23.925781 L 37.332031 23.875 C 37.277344 23.566406 37.183594 23.273438 37.054688 23 L 37.519531 22.609375 C 37.648438 22.5 37.671875 22.3125 37.566406 22.1875 L 36.808594 21.277344 C 36.699219 21.148438 36.515625 21.140625 36.382812 21.25 L 35.917969 21.632812 C 35.667969 21.460938 35.398438 21.3125 35.105469 21.207031 L 35.160156 20.609375 C 35.175781 20.441406 35.054688 20.289062 34.890625 20.273438 Z M 34.113281 22.300781 C 35.304688 22.410156 36.183594 23.460938 36.078125 24.652344 C 35.96875 25.84375 34.917969 26.722656 33.726562 26.617188 C 32.535156 26.507812 31.65625 25.457031 31.761719 24.265625 C 31.871094 23.074219 32.921875 22.195312 34.113281 22.300781 Z M 34.113281 22.300781 "/>
<path style=" stroke:none;fill-rule:nonzero;fill:rgb(89.803922%,35.686275%,25.882353%);fill-opacity:1;" d="M 12.882812 24.964844 L 20.882812 24.964844 L 20.882812 34.964844 L 24.882812 34.964844 L 16.882812 42.964844 L 8.882812 34.964844 L 12.882812 34.964844 "/>
</g>
</svg>
