
<svg xmlns="http://www.w3.org/2000/svg" xmlns:xlink="http://www.w3.org/1999/xlink" width="48px" height="48px" viewBox="0 0 48 48" version="1.1">
<g id="surface1">
<path style=" stroke:none;fill-rule:evenodd;fill:rgb(65.882353%,69.803922%,72.156863%);fill-opacity:1;" d="M 11.164062 4 L 11.167969 44.695312 C 13.046875 46.863281 34.074219 47.234375 36.457031 44.578125 L 36.382812 4.117188 C 34.019531 1.285156 12.898438 1.355469 11.164062 4 Z M 11.164062 4 "/>
<path style=" stroke:none;fill-rule:evenodd;fill:rgb(20.392157%,28.627451%,36.862745%);fill-opacity:1;" d="M 11.15625 4.472656 L 11.160156 44.363281 C 13.039062 46.488281 34.078125 46.851562 36.464844 44.246094 L 36.390625 4.585938 C 34.027344 1.8125 12.890625 1.878906 11.15625 4.472656 Z M 11.15625 4.472656 "/>
<path style=" stroke:none;fill-rule:evenodd;fill:rgb(16.078431%,50.196078%,72.54902%);fill-opacity:1;" d="M 11.648438 6.949219 L 11.648438 40.433594 L 35.921875 40.34375 L 35.855469 7.042969 Z M 11.648438 6.949219 "/>
<path style=" stroke:none;fill-rule:evenodd;fill:rgb(0%,7.843137%,14.117647%);fill-opacity:1;" d="M 11.644531 37.296875 L 11.644531 40.441406 L 35.929688 40.378906 L 35.945312 37.359375 Z M 11.644531 37.296875 "/>
<path style=" stroke:none;fill-rule:evenodd;fill:rgb(0%,7.843137%,14.117647%);fill-opacity:1;" d="M 11.636719 6.933594 L 11.636719 8.335938 L 35.859375 8.324219 L 35.875 6.984375 Z M 11.636719 6.933594 "/>
<path style=" stroke:none;fill-rule:evenodd;fill:rgb(16.078431%,50.196078%,72.54902%);fill-opacity:1;" d="M 34.109375 4.761719 C 34.109375 5.097656 33.835938 5.371094 33.5 5.371094 C 33.160156 5.371094 32.886719 5.097656 32.886719 4.761719 C 32.886719 4.421875 33.160156 4.148438 33.5 4.148438 C 33.835938 4.148438 34.109375 4.421875 34.109375 4.761719 Z M 34.109375 4.761719 "/>
<path style=" stroke:none;fill-rule:evenodd;fill:rgb(0%,7.843137%,14.117647%);fill-opacity:1;" d="M 20.78125 2.570312 C 22.824219 2.507812 24.859375 2.492188 26.863281 2.601562 L 25.84375 3.378906 L 21.789062 3.363281 Z M 20.78125 2.570312 "/>
</g>
</svg>
