
<svg xmlns="http://www.w3.org/2000/svg" xmlns:xlink="http://www.w3.org/1999/xlink" width="48px" height="48px" viewBox="0 0 48 48" version="1.1">
<g id="surface1">
<path style=" stroke:none;fill-rule:nonzero;fill:rgb(0%,50.196078%,50.196078%);fill-opacity:1;" d="M 4.964844 2.945312 L 43.035156 2.945312 C 44.148438 2.945312 45.054688 3.851562 45.054688 4.964844 L 45.054688 43.035156 C 45.054688 44.148438 44.148438 45.054688 43.035156 45.054688 L 4.964844 45.054688 C 3.851562 45.054688 2.945312 44.148438 2.945312 43.035156 L 2.945312 4.964844 C 2.945312 3.851562 3.851562 2.945312 4.964844 2.945312 Z M 4.964844 2.945312 "/>
<path style=" stroke:none;fill-rule:nonzero;fill:rgb(100%,100%,100%);fill-opacity:1;" d="M 9.378906 9.441406 L 9.378906 13.210938 C 9.40625 13.226562 9.433594 13.242188 9.460938 13.257812 L 15.988281 17.515625 C 16.289062 17.714844 16.289062 18.03125 15.988281 18.226562 L 9.460938 22.488281 C 9.433594 22.503906 9.40625 22.519531 9.378906 22.53125 L 9.378906 26.304688 C 9.5625 26.257812 9.738281 26.191406 9.886719 26.09375 L 20.71875 19.027344 L 20.71875 16.824219 C 20.71875 16.789062 20.722656 16.753906 20.722656 16.722656 L 9.886719 9.652344 C 9.738281 9.554688 9.5625 9.484375 9.378906 9.441406 Z M 9.378906 9.441406 "/>
<path style=" stroke:none;fill-rule:nonzero;fill:rgb(100%,100%,100%);fill-opacity:1;" d="M 14.960938 27.363281 L 27.332031 27.363281 L 27.332031 30.863281 L 14.960938 30.863281 Z M 14.960938 27.363281 "/>
</g>
</svg>
