
<svg xmlns="http://www.w3.org/2000/svg" xmlns:xlink="http://www.w3.org/1999/xlink" width="32px" height="32px" viewBox="0 0 32 32" version="1.1">
<g id="surface1">
<path style="fill-rule:nonzero;fill:rgb(80%,80%,80%);fill-opacity:1;stroke-width:1;stroke-linecap:butt;stroke-linejoin:miter;stroke:rgb(23.137255%,20.392157%,20.392157%);stroke-opacity:1;stroke-miterlimit:4;" d="M 309.875 42.4375 C 287.1875 42.4375 268.4375 63.375 264.75 91 L 444.5625 91 C 440.875 63.375 422.1875 42.4375 399.4375 42.4375 Z M 309.875 42.4375 " transform="matrix(0.0625,0,0,0.0625,0,0)"/>
<path style=" stroke:none;fill-rule:nonzero;fill:#AB37C8;fill-opacity:1;" d="M 4.121094 6.171875 L 27.878906 6.171875 C 29.757812 6.171875 31.28125 7.699219 31.28125 9.582031 L 31.28125 21.550781 C 31.28125 23.433594 29.757812 24.960938 27.878906 24.960938 L 4.121094 24.960938 C 2.242188 24.960938 0.71875 23.433594 0.71875 21.550781 L 0.71875 9.582031 C 0.71875 7.699219 2.242188 6.171875 4.121094 6.171875 Z M 4.121094 6.171875 "/>
<path style=" stroke:none;fill-rule:nonzero;fill:#AB37C8;fill-opacity:1;" d="M 4.121094 10.558594 L 27.878906 10.558594 C 29.757812 10.558594 31.28125 12.085938 31.28125 13.96875 L 31.28125 25.9375 C 31.28125 27.820312 29.757812 29.347656 27.878906 29.347656 L 4.121094 29.347656 C 2.242188 29.347656 0.71875 27.820312 0.71875 25.9375 L 0.71875 13.96875 C 0.71875 12.085938 2.242188 10.558594 4.121094 10.558594 Z M 4.121094 10.558594 "/>
<path style=" stroke:none;fill-rule:nonzero;fill:rgb(100%,100%,100%);fill-opacity:1;" d="M 16.273438 11.046875 C 14.53125 11.046875 12.792969 11.765625 11.5625 13 C 10.328125 14.234375 9.609375 15.96875 9.609375 17.714844 C 9.609375 19.457031 10.328125 21.191406 11.5625 22.425781 C 12.792969 23.660156 14.53125 24.378906 16.273438 24.378906 C 18.019531 24.378906 19.753906 23.660156 20.988281 22.425781 C 22.222656 21.191406 22.945312 19.457031 22.945312 17.714844 C 22.945312 15.96875 22.222656 14.234375 20.988281 13 C 19.753906 11.765625 18.019531 11.046875 16.273438 11.046875 Z M 16.273438 12.378906 C 19.066406 12.378906 21.609375 14.921875 21.609375 17.714844 C 21.609375 20.507812 19.066406 23.046875 16.273438 23.046875 C 13.480469 23.046875 10.945312 20.503906 10.945312 17.714844 C 10.945312 14.921875 13.480469 12.378906 16.273438 12.378906 Z M 14.945312 13.714844 L 14.945312 17.046875 L 12.277344 17.046875 L 16.277344 21.714844 L 20.277344 17.046875 L 17.609375 17.046875 L 17.609375 13.714844 Z M 14.945312 13.714844 "/>
</g>
</svg>
