<?xml version="1.0" encoding="UTF-8" standalone="no"?>
<!-- Created with Inkscape (http://www.inkscape.org/) -->

<svg
   xmlns:dc="http://purl.org/dc/elements/1.1/"
   xmlns:cc="http://creativecommons.org/ns#"
   xmlns:rdf="http://www.w3.org/1999/02/22-rdf-syntax-ns#"
   xmlns:svg="http://www.w3.org/2000/svg"
   xmlns="http://www.w3.org/2000/svg"
   xmlns:sodipodi="http://sodipodi.sourceforge.net/DTD/sodipodi-0.dtd"
   xmlns:inkscape="http://www.inkscape.org/namespaces/inkscape"
   id="svg2"
   version="1.1"
   inkscape:version="0.91 r"
   width="480"
   height="480"
   viewBox="0 0 480 480"
   sodipodi:docname="amsn.svg">
  <metadata
     id="metadata8">
    <rdf:RDF>
      <cc:Work
         rdf:about="">
        <dc:format>image/svg+xml</dc:format>
        <dc:type
           rdf:resource="http://purl.org/dc/dcmitype/StillImage" />
        <dc:title />
      </cc:Work>
    </rdf:RDF>
  </metadata>
  <defs
     id="defs6" />
  <sodipodi:namedview
     pagecolor="#ffffff"
     bordercolor="#666666"
     borderopacity="1"
     objecttolerance="10"
     gridtolerance="10"
     guidetolerance="10"
     inkscape:pageopacity="0"
     inkscape:pageshadow="2"
     inkscape:window-width="1366"
     inkscape:window-height="714"
     id="namedview4"
     showgrid="false"
     inkscape:zoom="0.70710678"
     inkscape:cx="-106.26869"
     inkscape:cy="146.80014"
     inkscape:window-x="0"
     inkscape:window-y="0"
     inkscape:window-maximized="1"
     inkscape:current-layer="svg2" />
  <rect
     style="opacity:1;fill:#ffffff;fill-opacity:1;stroke:#2ba8eb;stroke-width:26.40173721;stroke-miterlimit:4;stroke-dasharray:none;stroke-opacity:1"
     id="rect4136"
     width="432.48557"
     height="432.48557"
     x="23.757212"
     y="23.757212"
     rx="52.803474"
     ry="52.803474" />
  <path
     inkscape:connector-curvature="0"
     id="path3346"
     d="m 65.703674,431.64414 c -2.621394,-3.71032 -6.987301,-12.95103 -9.083714,-19.22628 -3.599252,-10.77369 -4.143661,-14.67173 -4.087003,-29.26332 0.048,-12.36348 0.276507,-14.67117 2.14094,-21.62101 6.787589,-25.30135 23.603468,-46.22298 47.620113,-59.24703 9.6384,-5.22681 10.01032,-6.13729 4.41927,-10.81839 -7.875766,-6.59397 -15.109954,-17.31527 -18.592717,-27.55501 -10.539925,-30.98868 3.658559,-64.79735 32.973497,-78.51472 16.62208,-7.77798 37.52227,-7.77798 54.14435,0 29.33261,13.72564 43.64274,47.87209 32.96282,78.655 -3.55157,10.23674 -10.17133,20.0981 -18.16794,27.06449 -3.98258,3.46951 -4.41707,4.13058 -3.65308,5.55813 0.47693,0.89114 3.46286,2.97738 6.6354,4.63606 3.17253,1.6587 7.09584,3.84632 8.71842,4.86137 1.62259,1.01505 3.40212,1.82931 3.95451,1.80946 0.55239,-0.0199 2.78386,-2.40409 4.95883,-5.29829 9.03773,-12.02635 24.37817,-24.81561 38.75414,-32.30918 7.82213,-4.07733 10.68606,-6.27196 10.66012,-8.16881 -0.009,-0.68541 -2.32704,-3.12124 -5.15036,-5.41296 -10.79787,-8.76469 -21.31441,-25.37396 -24.90443,-39.33278 -11.45241,-44.52959 15.6663,-88.59792 60.37547,-98.11109 3.22554,-0.68632 9.7756,-1.14693 16.30978,-1.14693 9.03868,0 12.26518,0.3407 18.73218,1.97799 14.13069,3.57756 26.39762,10.55496 36.74067,20.89802 19.80216,21.43884 27.60421,51.36812 20.23006,77.17292 -4.55856,15.02344 -13.88296,29.7048 -24.20501,38.11101 -2.57087,2.09368 -4.88724,4.30692 -5.14749,4.91829 -0.79109,1.85835 2.66,4.66632 11.24583,9.15014 29.6726,15.4961 51.54564,42.94702 59.12757,74.20577 6.44447,26.56917 3.62998,52.3314 -8.39859,76.87622 -2.13177,4.34996 -4.49892,8.67102 -5.26036,9.60238 l -1.38444,1.69339 -170.54951,0.52854 -170.549504,0.52854 z"
     style="fill:#357cee"
     sodipodi:nodetypes="sssssssssssssscsscsssssccsssssscccs" />
  <path
     inkscape:connector-curvature="0"
     id="path3342"
     d="m 65.670249,431.59718 c -2.591353,-3.66841 -6.964581,-12.93613 -9.050289,-19.17934 -3.599252,-10.77369 -4.143661,-14.67173 -4.087003,-29.26332 0.048,-12.36349 0.276507,-14.67117 2.14094,-21.62101 6.787589,-25.30134 23.603468,-46.22298 47.620113,-59.24703 9.6384,-5.22682 10.01032,-6.13729 4.41927,-10.81838 -7.875766,-6.59398 -15.109954,-17.31526 -18.592717,-27.55502 -10.539925,-30.98868 3.658559,-64.79734 32.973497,-78.51472 16.62208,-7.77798 37.52227,-7.77798 54.14435,0 29.33261,13.72564 43.64274,47.87209 32.96282,78.65501 -3.55157,10.23673 -10.17133,20.09808 -18.16794,27.06448 -5.77107,5.02759 -5.42367,5.66098 5.24389,11.37026 4.41241,2.36153 8.33349,4.757 8.76265,5.2741 0.54212,0.65323 -0.3477,2.89578 -2.91527,7.34721 -10.40322,18.03609 -14.92892,35.18746 -14.92892,56.57704 0,20.92156 4.7521,39.26327 14.4901,55.92749 1.69239,2.89609 2.87621,5.46644 2.63074,5.71191 -0.24546,0.24546 -30.9706,0.44629 -68.27806,0.44629 l -67.831773,0 z"
     style="fill:#50b328"
     sodipodi:nodetypes="sssssssssssssssssscs" />
</svg>
