<?xml version="1.0" encoding="UTF-8" standalone="no"?>
<!-- Created with Inkscape (http://www.inkscape.org/) -->

<svg
   xmlns:dc="http://purl.org/dc/elements/1.1/"
   xmlns:cc="http://creativecommons.org/ns#"
   xmlns:rdf="http://www.w3.org/1999/02/22-rdf-syntax-ns#"
   xmlns:svg="http://www.w3.org/2000/svg"
   xmlns="http://www.w3.org/2000/svg"
   xmlns:sodipodi="http://sodipodi.sourceforge.net/DTD/sodipodi-0.dtd"
   xmlns:inkscape="http://www.inkscape.org/namespaces/inkscape"
   id="svg2"
   version="1.1"
   inkscape:version="0.91 r"
   width="512"
   height="512"
   sodipodi:docname="Azureus.svg">
  <metadata
     id="metadata8">
    <rdf:RDF>
      <cc:Work
         rdf:about="">
        <dc:format>image/svg+xml</dc:format>
        <dc:type
           rdf:resource="http://purl.org/dc/dcmitype/StillImage" />
        <dc:title />
      </cc:Work>
    </rdf:RDF>
  </metadata>
  <defs
     id="defs6" />
  <sodipodi:namedview
     pagecolor="#ffffff"
     bordercolor="#666666"
     borderopacity="1"
     objecttolerance="10"
     gridtolerance="10"
     guidetolerance="10"
     inkscape:pageopacity="0"
     inkscape:pageshadow="2"
     inkscape:window-width="1366"
     inkscape:window-height="714"
     id="namedview4"
     showgrid="false"
     inkscape:zoom="0.4609375"
     inkscape:cx="256"
     inkscape:cy="256"
     inkscape:window-x="0"
     inkscape:window-y="0"
     inkscape:window-maximized="1"
     inkscape:current-layer="svg2" />
  <rect
     style="opacity:1;fill:#ffffff;fill-opacity:1;stroke:#1068a1;stroke-width:28.191782;stroke-miterlimit:4;stroke-dasharray:none;stroke-opacity:1"
     id="rect4136"
     width="461.80823"
     height="461.80823"
     x="25.095886"
     y="25.095886"
     rx="56.383564"
     ry="56.383564" />
  <path
     style="fill:#0f5cd6"
     d="m 284.82682,446.79219 c -1.2069,-0.22812 -7.97865,-3.16871 -15.04833,-6.53464 -18.36018,-8.74145 -25.71663,-10.45274 -44.97049,-10.46122 -29.13339,-0.0129 -34.86298,-2.50183 -48.13374,-20.90957 -4.41166,-6.11938 -4.93596,-6.53598 -10.7429,-8.53617 -10.6296,-3.66136 -20.03185,-11.56407 -24.70561,-20.76538 -2.35292,-4.63224 -2.77669,-7.96217 -1.79146,-14.07728 0.61573,-3.82173 0.52365,-4.1693 -1.10462,-4.1693 -3.89786,0 -11.5669,-3.7351 -15.4823,-7.54043 -4.48505,-4.35897 -8.33004,-11.84693 -8.96193,-17.45298 l -0.41428,-3.67552 -8.89948,0.38398 c -13.239454,0.57124 -21.570478,-1.85844 -28.838976,-8.41067 -5.093358,-4.59143 -7.690309,-10.59822 -7.700983,-17.81248 -0.0073,-4.97799 0.34134,-6.27477 2.478324,-9.21635 1.367797,-1.88278 3.213376,-4.01573 4.101288,-4.73987 2.544302,-2.07502 8.100658,-11.12545 10.08289,-16.42345 0.99389,-2.6564 2.804457,-9.62627 4.023481,-15.48858 1.219024,-5.8623 3.226845,-12.76118 4.461839,-15.33082 3.976714,-8.27438 13.877797,-13.44386 25.862197,-13.50301 9.03051,-0.0446 14.36612,1.83777 19.21554,6.77897 2.12419,2.1644 4.36746,3.93527 4.98501,3.93527 0.86779,0 5.20008,-7.23401 8.0096,-13.37433 0.16281,-0.35583 -1.05524,-1.44425 -2.7068,-2.41868 -3.72105,-2.19547 -5.03564,-4.96503 -5.03564,-10.60891 0,-10.26272 5.41774,-15.13519 24.88585,-22.38113 6.21055,-2.31155 7.31052,-3.08995 11.12464,-7.87239 7.14537,-8.95943 15.92488,-23.5796 27.38439,-45.60217 6.02896,-11.58626 12.99375,-24.66019 15.47732,-29.05317 2.48357,-4.39298 6.28395,-12.687695 8.4453,-18.432703 5.40696,-14.37211 6.85912,-15.638489 23.01297,-20.068709 27.38102,-7.509289 35.24632,-8.765005 46.31551,-7.394391 18.97563,2.34961 29.24994,9.838249 37.79907,27.550605 7.15844,14.831098 8.61745,23.848338 6.10694,37.743148 -0.69779,3.86209 -1.28336,12.3543 -1.30124,18.87158 -0.0356,12.94034 -1.40408,21.35577 -4.44114,27.30892 -1.06508,2.08772 -6.72302,8.55483 -12.57322,14.37137 -5.8502,5.81653 -11.78018,12.25258 -13.17774,14.30234 l -2.54102,3.72684 1.54673,5.71407 c 2.11163,7.80099 6.68429,17.07094 10.509,21.30444 1.74623,1.93288 5.72759,5.38838 8.84743,7.67889 4.07994,2.99539 7.15657,6.33142 10.95878,11.8828 7.36118,10.7476 13.57273,14.78579 23.88188,15.52583 5.77738,0.41472 5.95752,0.3624 8.90643,-2.58652 3.20785,-3.20784 4.24524,-6.02 5.93878,-16.09883 0.99738,-5.93576 0.94392,-6.57077 -0.84149,-9.99618 -3.39598,-6.51532 -2.36872,-8.9835 4.91377,-11.80616 7.47035,-2.89546 16.00113,-1.22856 16.00113,3.12661 0,1.01563 -2.37447,5.11475 -5.27661,9.10916 -6.41799,8.83355 -10.52122,17.24635 -10.52216,21.57345 -0.002,6.1569 7.3397,11.39555 13.79095,9.84142 5.18786,-1.24978 11.34959,-5.15866 17.76481,-11.26967 7.50322,-7.14741 11.2357,-8.85726 17.67107,-8.09509 6.28938,0.74489 9.58158,2.72552 9.58158,5.76443 0,6.09148 -6.55131,9.88308 -20.62707,11.93804 -12.50806,1.8261 -17.34552,4.0669 -23.84579,11.04586 -9.95231,10.68524 -12.09542,12.49456 -18.23129,15.39178 -9.0514,4.27385 -20.15734,5.9986 -32.97035,5.12028 -14.69624,-1.00741 -20.01097,-0.82278 -25.90402,0.89991 -7.34325,2.14664 -16.55008,2.26015 -18.58921,0.22919 -2.08268,-2.07434 -0.88638,-3.97864 4.17244,-6.6418 3.61825,-1.9048 4.60074,-2.01559 13.86219,-1.56325 11.67586,0.57026 15.47912,-0.44626 16.47209,-4.40257 1.45092,-5.78091 -10.12511,-21.03041 -23.70232,-31.22393 -9.35158,-7.02097 -12.36887,-9.91744 -15.63848,-15.01227 -1.69564,-2.6422 -3.01791,-3.91111 -3.53584,-3.39317 -0.45504,0.45504 -1.59016,5.90913 -2.52248,12.12022 -3.06765,20.43652 -8.15496,34.96808 -16.72979,47.78762 -8.43074,12.60408 -17.00315,19.79569 -37.03209,31.06715 -2.34116,1.3175 -3.92111,2.68804 -3.51099,3.04563 0.41011,0.3576 3.51057,1.55033 6.8899,2.65051 6.3964,2.08243 28.69018,12.81529 35.54878,17.11418 14.10955,8.84371 26.61184,23.75166 28.54047,34.03216 0.77999,4.15767 -0.82539,8.90315 -3.8019,11.23839 l -2.356,1.84842 3.10988,-0.41603 c 5.32811,-0.71278 15.9177,-5.71489 22.68494,-10.71549 5.522,-4.08044 7.05268,-4.79158 10.31354,-4.79158 4.45741,0 7.34015,2.25716 7.34015,5.74727 0,3.47067 -3.70162,6.1849 -10.78796,7.91033 -3.48047,0.84744 -9.2957,2.80598 -12.92275,4.35229 -7.55527,3.22103 -18.22279,5.68153 -37.9436,8.75183 -14.74967,2.29634 -19.09848,3.80265 -19.09848,6.61523 0,2.71631 2.72959,4.79573 9.75047,7.42795 18.70139,7.01141 24.48169,10.21916 24.48169,13.58601 0,0.86349 -0.5927,2.06189 -1.31711,2.66308 -1.43744,1.19299 -7.48412,1.84849 -10.97136,1.18939 z"
     id="path2982"
     inkscape:connector-curvature="0" />
</svg>
