<?xml version="1.0" encoding="UTF-8" standalone="no"?>
<!-- Created with Inkscape (http://www.inkscape.org/) -->

<svg
   xmlns:dc="http://purl.org/dc/elements/1.1/"
   xmlns:cc="http://creativecommons.org/ns#"
   xmlns:rdf="http://www.w3.org/1999/02/22-rdf-syntax-ns#"
   xmlns:svg="http://www.w3.org/2000/svg"
   xmlns="http://www.w3.org/2000/svg"
   xmlns:sodipodi="http://sodipodi.sourceforge.net/DTD/sodipodi-0.dtd"
   xmlns:inkscape="http://www.inkscape.org/namespaces/inkscape"
   id="svg2"
   version="1.1"
   inkscape:version="0.91 r"
   width="128"
   height="128"
   sodipodi:docname="catfish.svg">
  <metadata
     id="metadata8">
    <rdf:RDF>
      <cc:Work
         rdf:about="">
        <dc:format>image/svg+xml</dc:format>
        <dc:type
           rdf:resource="http://purl.org/dc/dcmitype/StillImage" />
        <dc:title />
      </cc:Work>
    </rdf:RDF>
  </metadata>
  <defs
     id="defs6" />
  <sodipodi:namedview
     pagecolor="#ffffff"
     bordercolor="#666666"
     borderopacity="1"
     objecttolerance="10"
     gridtolerance="10"
     guidetolerance="10"
     inkscape:pageopacity="0"
     inkscape:pageshadow="2"
     inkscape:window-width="1260"
     inkscape:window-height="662"
     id="namedview4"
     showgrid="false"
     inkscape:zoom="0.9646081"
     inkscape:cx="-176.55973"
     inkscape:cy="224.42186"
     inkscape:window-x="15"
     inkscape:window-y="39"
     inkscape:window-maximized="0"
     inkscape:current-layer="svg2" />
  <rect
     style="opacity:1;fill:#ffe400;fill-opacity:1;stroke:#333333;stroke-width:6.77846384;stroke-miterlimit:4;stroke-dasharray:none;stroke-opacity:1"
     id="rect4136"
     width="111.03769"
     height="111.03769"
     x="8.4811554"
     y="8.4811554"
     rx="13.556929"
     ry="13.556929" />
  <path
     style="fill:#333333"
     d="M 55.662109 16.492188 C 54.972666 16.475549 54.255219 16.482579 53.505859 16.511719 C 46.571909 16.781348 41.45161 18.902804 37.09375 23.3125 C 32.63522 27.824064 30.927687 33.191552 31.779297 40.013672 C 32.210407 43.467258 32.750833 44.920579 34.601562 47.605469 C 36.186272 49.904428 36.18159 49.66828 34.71875 53.753906 C 32.60499 59.657549 32.668928 63.566292 35.148438 79.484375 C 35.977398 84.80612 38.898046 97.419699 40.847656 104.09766 C 42.329216 109.17243 42.739519 110.11996 43.761719 110.83594 C 44.732049 111.51559 45.684489 111.46795 46.511719 110.69727 C 47.855549 109.44529 48.298391 106.57535 48.994141 94.607422 C 49.770671 81.250034 50.983329 77.432555 53.855469 79.314453 C 55.176849 80.180251 55.549558 81.603255 56.580078 89.707031 C 58.533268 105.06633 59.413438 109.71421 60.585938 110.88672 C 61.955377 112.25616 63.282931 111.12377 64.394531 107.63867 C 64.676741 106.75387 65.420032 103.18185 66.044922 99.703125 C 66.669802 96.224399 67.638929 91.991004 68.199219 90.294922 C 69.665109 85.857389 70.629403 85.075938 72.595703 86.730469 C 73.240563 87.273079 73.646426 87.990036 73.822266 88.902344 C 73.966616 89.651335 74.086844 94.535564 74.089844 99.755859 C 74.096424 109.86861 74.195874 110.5924 75.677734 111.26758 C 76.769444 111.76499 78.28708 110.97105 79.03125 109.51172 C 80.93863 105.77129 81.870069 102.59183 85.199219 88.494141 C 88.977259 72.495601 88.737387 73.286169 90.023438 72.675781 C 95.063357 70.283713 96.312291 69.591562 97.144531 68.728516 C 97.667961 68.185692 98.585361 67.234585 99.181641 66.615234 C 100.52989 65.21484 101.71334 62.857132 102.42383 60.158203 C 102.86164 58.495217 102.9624 56.706198 102.9375 51.033203 C 102.9105 44.839439 102.51621 39.315287 102.04492 38.552734 C 101.64724 37.909267 100.78526 38.577653 97.345703 42.199219 L 93.644531 46.095703 L 91.591797 45.818359 C 89.372497 45.518052 85.513186 45.473498 82.509766 45.712891 L 80.626953 45.863281 L 78.302734 42.25 C 77.024144 40.262943 75.711679 38.343457 75.386719 37.984375 C 74.821019 37.359281 74.77001 37.354898 74.15625 37.896484 C 73.26728 38.680912 71.229644 43.154186 70.527344 45.863281 C 69.795934 48.684618 69.696556 55.930211 70.353516 58.572266 C 71.145116 61.7558 73.068989 65.417619 75.011719 67.439453 C 76.002699 68.470777 76.755847 69.371126 76.685547 69.441406 C 75.889727 70.237222 71.379259 65.97737 69.886719 63.019531 C 67.369349 58.030767 66.920044 53.598208 68.308594 47.476562 C 69.282894 43.181197 69.304322 42.176035 68.445312 41.083984 C 66.744603 38.921884 56.723535 37.565122 51.203125 38.75 C 50.113835 38.983802 48.262874 39.702877 47.089844 40.347656 C 45.916824 40.992432 44.73712 41.519531 44.46875 41.519531 C 42.96984 41.519531 42.434082 35.91375 43.638672 32.832031 C 44.941412 29.499232 48.065926 26.215203 50.697266 25.414062 C 54.578996 24.232229 60.760252 24.912468 63.482422 26.820312 C 64.286702 27.384002 65.70105 28.375159 66.625 29.023438 C 68.9511 30.655515 69.500849 30.764606 70.605469 29.814453 C 72.645289 28.05987 71.152722 24.196202 67.044922 20.601562 C 63.923429 17.870018 60.488212 16.608658 55.662109 16.492188 z M 94.376953 53.246094 A 3.0374174 3.0374174 0 0 1 97.478516 56.195312 L 97.478516 56.28125 A 3.0374174 3.0374174 0 0 1 94.462891 59.318359 A 3.0374174 3.0374174 0 0 1 91.404297 56.326172 A 3.0374174 3.0374174 0 0 1 94.376953 53.246094 z M 80.878906 54.09375 C 81.384966 54.130928 81.879703 54.408914 82.283203 54.921875 C 82.968093 55.792626 82.931687 56.746049 82.185547 57.492188 C 81.439407 58.238324 80.487948 58.274779 79.617188 57.589844 C 78.591268 56.782855 78.50576 55.611418 79.40625 54.710938 C 79.85649 54.260694 80.372846 54.056572 80.878906 54.09375 z "
     id="path2988" />
</svg>
