<?xml version="1.0" encoding="UTF-8" standalone="no"?>
<!-- Created with Inkscape (http://www.inkscape.org/) -->

<svg
   xmlns:dc="http://purl.org/dc/elements/1.1/"
   xmlns:cc="http://creativecommons.org/ns#"
   xmlns:rdf="http://www.w3.org/1999/02/22-rdf-syntax-ns#"
   xmlns:svg="http://www.w3.org/2000/svg"
   xmlns="http://www.w3.org/2000/svg"
   xmlns:sodipodi="http://sodipodi.sourceforge.net/DTD/sodipodi-0.dtd"
   xmlns:inkscape="http://www.inkscape.org/namespaces/inkscape"
   id="svg2"
   version="1.1"
   inkscape:version="0.91 r"
   width="512"
   height="512"
   sodipodi:docname="chess.svg"
   viewBox="0 0 512 512">
  <metadata
     id="metadata8">
    <rdf:RDF>
      <cc:Work
         rdf:about="">
        <dc:format>image/svg+xml</dc:format>
        <dc:type
           rdf:resource="http://purl.org/dc/dcmitype/StillImage" />
        <dc:title />
      </cc:Work>
    </rdf:RDF>
  </metadata>
  <defs
     id="defs6" />
  <sodipodi:namedview
     pagecolor="#ffffff"
     bordercolor="#666666"
     borderopacity="1"
     objecttolerance="10"
     gridtolerance="10"
     guidetolerance="10"
     inkscape:pageopacity="0"
     inkscape:pageshadow="2"
     inkscape:window-width="1366"
     inkscape:window-height="714"
     id="namedview4"
     showgrid="false"
     inkscape:zoom="0.7832031"
     inkscape:cx="57.378731"
     inkscape:cy="270.79037"
     inkscape:window-x="0"
     inkscape:window-y="0"
     inkscape:window-maximized="1"
     inkscape:current-layer="svg2"
     inkscape:document-units="px" />
  <rect
     style="opacity:1;fill:#51b9c3;fill-opacity:1;stroke:#5b5656;stroke-width:27.87094116;stroke-miterlimit:4;stroke-dasharray:none;stroke-opacity:1"
     id="rect4136"
     width="456.55252"
     height="456.55252"
     x="27.72374"
     y="27.72374"
     rx="55.741882"
     ry="55.741882" />
  <rect
     style="opacity:1;fill:#ffffff;fill-opacity:1;stroke:none;stroke-width:8.39999962;stroke-miterlimit:4;stroke-dasharray:none;stroke-opacity:1"
     id="rect4139"
     width="242.59352"
     height="375.38156"
     x="143.0025"
     y="70.224426"
     rx="47.070938"
     ry="54.44558" />
  <path
     style="fill:#51b9c3;fill-opacity:0.99607843;stroke:none;stroke-width:1.61751008;stroke-miterlimit:4;stroke-dasharray:none;stroke-dashoffset:0;stroke-opacity:1"
     d="M 256,42.491272 A 213.50873,213.50873 0 0 0 42.491274,256 213.50873,213.50873 0 0 0 256,469.50873 213.50873,213.50873 0 0 0 469.50873,256 213.50873,213.50873 0 0 0 256,42.491272 Z m -24.83522,31.44991 9.6357,12.804964 9.63569,12.80682 8.46992,4.051474 c 34.49425,16.50509 54.27174,43.55526 62.68669,85.73524 3.31514,16.61715 4.10017,27.97214 3.57701,51.68691 -0.63392,28.73472 -4.07777,53.77019 -11.41123,82.95889 -1.73223,6.89465 -2.9258,12.88453 -2.65404,13.31094 0.27177,0.42641 3.04253,0.93582 6.15877,1.13055 3.7751,0.2359 6.12865,0.81689 7.05209,1.74032 1.8176,1.8176 1.76915,6.04751 -0.0927,8.10481 -1.95593,2.16127 -1.03578,3.41391 2.50577,3.41391 3.5436,0 6.23475,2.46212 6.23475,5.70469 0,3.44326 -1.6649,5.17487 -5.88817,6.12355 -5.06308,1.13733 -7.51729,3.56792 -7.51729,7.44315 0,4.01372 2.80217,6.68414 7.66741,7.306 6.76467,0.86464 11.04958,4.39115 12.09326,9.95447 1.31548,7.01206 -2.07441,12.7397 -8.87765,14.99936 -3.66652,1.21782 -4.24693,1.74122 -4.98929,4.49814 -1.02205,3.79558 -4.60578,7.3948 -8.46436,8.50143 -3.57881,1.02639 -110.78171,0.98117 -114.22161,-0.0482 -3.49071,-1.04458 -7.10236,-4.83635 -8.08627,-8.4903 -0.72543,-2.69403 -1.32092,-3.28443 -4.06631,-4.02368 -8.70958,-2.34526 -12.92326,-11.78283 -8.49957,-19.03786 2.18157,-3.57789 4.68353,-5.09317 10.09718,-6.11985 5.75202,-1.09086 8.37355,-3.45089 8.37355,-7.53952 0,-3.87523 -2.45421,-6.30582 -7.51729,-7.44315 -4.22327,-0.94868 -5.88817,-2.68029 -5.88817,-6.12355 0,-3.24257 2.69115,-5.70468 6.23475,-5.70468 3.54155,0 4.45985,-1.25265 2.50391,-3.41392 -0.81316,-0.89854 -1.47714,-2.77907 -1.47714,-4.17751 0,-3.9913 1.98939,-5.29445 8.65896,-5.67132 5.53325,-0.31265 5.86223,-0.44361 5.86223,-2.33711 0,-1.9218 -6.54186,-28.11925 -9.96004,-39.88276 l -1.63653,-5.63241 6.59431,-4.62046 c 27.22468,-19.07683 42.03849,-47.06428 45.34466,-85.66667 1.19952,-14.00556 -0.0423,-34.34679 -2.19439,-35.93322 -0.91094,-0.67149 -4.31408,-0.51028 -12.75122,0.60605 -6.32921,0.83741 -12.03823,1.72627 -12.6882,1.9757 -0.81923,0.31436 -1.03015,1.21558 -0.68575,2.9376 0.38512,1.92563 0.12846,2.68225 -1.14168,3.36201 -2.77165,1.48334 -25.18834,9.20942 -26.7201,9.20942 -1.52044,0 -18.5115,-19.25525 -18.5115,-20.97834 0,-0.54704 10.06977,-14.52549 22.37764,-31.06256 l 22.37764,-30.06729 4.7502,0 c 2.90815,0 5.10457,-0.42841 5.66576,-1.104607 0.54353,-0.654902 1.01069,-6.02507 1.1491,-13.196025 l 0.23352,-12.091415 z m -5.69912,46.008158 c -0.42817,0.0348 -0.86074,0.19113 -1.36594,0.4615 -2.19043,1.17227 -2.3601,5.44632 -0.26503,6.66658 1.93652,1.12793 2.04537,1.11647 4.21087,-0.40032 2.44056,-1.70944 2.36607,-4.191 -0.17607,-5.85667 -0.99105,-0.64935 -1.69022,-0.9292 -2.40383,-0.87109 z"
     id="path3005"
     inkscape:connector-curvature="0" />
</svg>
