<?xml version="1.0" encoding="UTF-8" standalone="no"?>
<svg
   xmlns:dc="http://purl.org/dc/elements/1.1/"
   xmlns:cc="http://creativecommons.org/ns#"
   xmlns:rdf="http://www.w3.org/1999/02/22-rdf-syntax-ns#"
   xmlns:svg="http://www.w3.org/2000/svg"
   xmlns="http://www.w3.org/2000/svg"
   xmlns:sodipodi="http://sodipodi.sourceforge.net/DTD/sodipodi-0.dtd"
   xmlns:inkscape="http://www.inkscape.org/namespaces/inkscape"
   viewBox="0 0 128 128"
   id="svg2"
   version="1.1"
   inkscape:version="0.91 r"
   width="100%"
   height="100%"
   sodipodi:docname="cs-overview.svg">
  <metadata
     id="metadata69">
    <rdf:RDF>
      <cc:Work
         rdf:about="">
        <dc:format>image/svg+xml</dc:format>
        <dc:type
           rdf:resource="http://purl.org/dc/dcmitype/StillImage" />
        <dc:title />
      </cc:Work>
    </rdf:RDF>
  </metadata>
  <sodipodi:namedview
     pagecolor="#ffffff"
     bordercolor="#666666"
     borderopacity="1"
     objecttolerance="10"
     gridtolerance="10"
     guidetolerance="10"
     inkscape:pageopacity="0"
     inkscape:pageshadow="2"
     inkscape:window-width="1366"
     inkscape:window-height="714"
     id="namedview67"
     showgrid="false"
     inkscape:zoom="1.7383042"
     inkscape:cx="-119.27326"
     inkscape:cy="86.099817"
     inkscape:window-x="0"
     inkscape:window-y="0"
     inkscape:window-maximized="1"
     inkscape:current-layer="svg2" />
  <defs
     id="defs4">
    <linearGradient
       id="linearGradient3764"
       x1="1"
       x2="47"
       gradientUnits="userSpaceOnUse"
       gradientTransform="matrix(0,-1,1,0,-1.5e-6,47.999998)">
      <stop
         stop-color="#e4e4e4"
         stop-opacity="1"
         id="stop7" />
      <stop
         offset="1"
         stop-color="#eee"
         stop-opacity="1"
         id="stop9" />
    </linearGradient>
    <clipPath
       id="clipPath-365326813">
      <g
         transform="translate(0,-1004.3622)"
         id="g12">
        <path
           d="m -24,13 c 0,1.105 -0.672,2 -1.5,2 -0.828,0 -1.5,-0.895 -1.5,-2 0,-1.105 0.672,-2 1.5,-2 0.828,0 1.5,0.895 1.5,2 z"
           transform="matrix(15.333333,0,0,11.5,414.99999,878.8622)"
           id="path14"
           inkscape:connector-curvature="0"
           style="fill:#1890d0" />
      </g>
    </clipPath>
    <clipPath
       id="clipPath-370729992">
      <g
         transform="translate(0,-1004.3622)"
         id="g17">
        <path
           d="m -24,13 c 0,1.105 -0.672,2 -1.5,2 -0.828,0 -1.5,-0.895 -1.5,-2 0,-1.105 0.672,-2 1.5,-2 0.828,0 1.5,0.895 1.5,2 z"
           transform="matrix(15.333333,0,0,11.5,414.99999,878.8622)"
           id="path19"
           inkscape:connector-curvature="0"
           style="fill:#1890d0" />
      </g>
    </clipPath>
    <inkscape:perspective
       id="perspective3018"
       inkscape:persp3d-origin="256 : 170.66667 : 1"
       inkscape:vp_z="512 : 256 : 1"
       inkscape:vp_y="0 : 1000 : 0"
       inkscape:vp_x="0 : 256 : 1"
       sodipodi:type="inkscape:persp3d" />
  </defs>
  <rect
     style="opacity:1;fill:#00aad4;fill-opacity:1;stroke:#315863;stroke-width:6.92785835;stroke-miterlimit:4;stroke-dasharray:none;stroke-opacity:1"
     id="rect4136"
     width="113.48491"
     height="113.48491"
     x="7.2575455"
     y="7.2575455"
     rx="13.855717"
     ry="13.855717" />
  <path
     inkscape:connector-curvature="0"
     id="path4160"
     d="m -164.22759,75.664851 -15.37267,10.080459 49.96116,0 -15.37267,-10.080459 z"
     style="fill:#808080;fill-opacity:1;fill-rule:evenodd;stroke:none;stroke-width:1.38373864px;stroke-linecap:butt;stroke-linejoin:miter;stroke-opacity:1" />
  <path
     style="fill:#808080;fill-opacity:1;fill-rule:evenodd;stroke:none;stroke-width:1.38373864px;stroke-linecap:butt;stroke-linejoin:miter;stroke-opacity:1"
     d="m -164.22759,72.609734 -15.37267,10.080459 49.96116,0 -15.37267,-10.080459 z"
     id="path4158"
     inkscape:connector-curvature="0" />
  <rect
     style="opacity:1;fill:#4d4d4d;fill-opacity:1;stroke:none;stroke-width:21.72100067;stroke-miterlimit:4;stroke-dasharray:none;stroke-opacity:1"
     id="rect4154"
     width="21.383724"
     height="23.789234"
     x="-165.29572"
     y="54.097519"
     ry="0"
     rx="0" />
  <g
     id="g4150"
     transform="matrix(0.33533947,0,0,0.32015246,-232.05971,-62.158928)">
    <rect
       y="114.10615"
       x="52.704906"
       height="272.23883"
       width="356.54507"
       id="rect4477"
       style="opacity:1;fill:#808080;fill-opacity:1"
       ry="20.072674" />
    <rect
       style="opacity:1;fill:#00aad4;fill-opacity:1"
       id="rect4479"
       width="289.80264"
       height="221.27786"
       x="86.076118"
       y="139.58664" />
  </g>
  <path
     style="fill:#000000;fill-opacity:1;fill-rule:evenodd;stroke:none;stroke-width:1px;stroke-linecap:butt;stroke-linejoin:miter;stroke-opacity:1"
     d="m -179.60026,82.690193 0,3.055117 49.99281,0 0,-3.055117 z"
     id="path4162"
     inkscape:connector-curvature="0" />
  <path
     style="fill:#ffffff;fill-opacity:1;stroke:none;stroke-width:4.16897917"
     d="m -144.11449,40.661131 -5.50137,0 0,5.848895 5.50137,0 0,-5.848895 z m -8.25205,0 -5.50137,0 0,5.848895 5.50137,0 0,-5.848895 z m -8.25205,0 -5.50137,0 0,5.848895 5.50137,0 0,-5.848895 z"
     id="rect3369"
     inkscape:connector-curvature="0" />
  <path
     style="fill:#333333;fill-opacity:1;fill-rule:evenodd;stroke:none;stroke-width:1px;stroke-linecap:butt;stroke-linejoin:miter;stroke-opacity:1"
     d="m -203.48571,-17.295429 0,5.554757 97.20824,0 0,-5.554757 z"
     id="path4164"
     inkscape:connector-curvature="0" />
  <path
     inkscape:connector-curvature="0"
     id="path4176"
     d="m -131.95978,-6.822484 22.37288,0 0,17.084744 z"
     style="fill:#333333;fill-rule:evenodd;stroke:none;stroke-width:1px;stroke-linecap:butt;stroke-linejoin:miter;stroke-opacity:1" />
  <path
     style="fill:#333333;fill-rule:evenodd;stroke:none;stroke-width:1px;stroke-linecap:butt;stroke-linejoin:miter;stroke-opacity:1"
     d="m -175.5869,50.26226 -22.37289,0 0,-17.08474 z"
     id="path4178"
     inkscape:connector-curvature="0" />
  <path
     style="fill:#333333;fill-rule:evenodd;stroke:none;stroke-width:1px;stroke-linecap:butt;stroke-linejoin:miter;stroke-opacity:1"
     d="m 68.213482,17.338994 43.679848,0 0,50.707486 z"
     id="path4173"
     inkscape:connector-curvature="0" />
  <path
     inkscape:connector-curvature="0"
     id="path4175"
     d="m 59.146452,113.54233 -43.679848,0 0,-63.3635 z"
     style="fill:#333333;fill-rule:evenodd;stroke:none;stroke-width:1px;stroke-linecap:butt;stroke-linejoin:miter;stroke-opacity:1" />
  <path
     inkscape:connector-curvature="0"
     id="path4186"
     d="m 86.570103,88.343675 -12.117016,0 0,12.882455 12.117016,0 0,-12.882455 z m -18.175513,0 -12.117016,0 0,12.882455 12.117016,0 0,-12.882455 z m -18.175513,0 -12.117016,0 0,12.882455 12.117016,0 0,-12.882455 z"
     style="fill:#ffffff;fill-opacity:1;stroke:none;stroke-width:4.16897917" />
</svg>
