<?xml version="1.0" encoding="UTF-8" standalone="no"?>
<svg
   xmlns:dc="http://purl.org/dc/elements/1.1/"
   xmlns:cc="http://creativecommons.org/ns#"
   xmlns:rdf="http://www.w3.org/1999/02/22-rdf-syntax-ns#"
   xmlns:svg="http://www.w3.org/2000/svg"
   xmlns="http://www.w3.org/2000/svg"
   xmlns:sodipodi="http://sodipodi.sourceforge.net/DTD/sodipodi-0.dtd"
   xmlns:inkscape="http://www.inkscape.org/namespaces/inkscape"
   viewBox="0 0 48 48"
   id="svg3062"
   version="1.1"
   inkscape:version="0.91 r"
   width="100%"
   height="100%"
   sodipodi:docname="firefox-beta.svg">
  <metadata
     id="metadata3145">
    <rdf:RDF>
      <cc:Work
         rdf:about="">
        <dc:format>image/svg+xml</dc:format>
        <dc:type
           rdf:resource="http://purl.org/dc/dcmitype/StillImage" />
      </cc:Work>
    </rdf:RDF>
  </metadata>
  <sodipodi:namedview
     pagecolor="#ffffff"
     bordercolor="#666666"
     borderopacity="1"
     objecttolerance="10"
     gridtolerance="10"
     guidetolerance="10"
     inkscape:pageopacity="0"
     inkscape:pageshadow="2"
     inkscape:window-width="1366"
     inkscape:window-height="711"
     id="namedview3143"
     showgrid="false"
     inkscape:zoom="4.9166667"
     inkscape:cx="46.577083"
     inkscape:cy="33.559322"
     inkscape:window-x="0"
     inkscape:window-y="0"
     inkscape:window-maximized="1"
     inkscape:current-layer="svg3062" />
  <defs
     id="defs3064">
    <linearGradient
       id="linearGradient3764"
       x1="1"
       x2="47"
       gradientUnits="userSpaceOnUse"
       gradientTransform="translate(-46.372882,51.459842)">
      <stop
         stop-color="#60c3e0"
         stop-opacity="1"
         id="stop3067" />
      <stop
         offset="1"
         stop-color="#71cae3"
         stop-opacity="1"
         id="stop3069" />
    </linearGradient>
    <clipPath
       id="clipPath-768845224">
      <g
         transform="translate(0,-1004.3622)"
         id="g3072">
        <rect
           rx="4"
           y="1005.36"
           x="1"
           height="46"
           width="46"
           fill="#1890d0"
           id="rect3074" />
      </g>
    </clipPath>
    <clipPath
       id="clipPath-786983444">
      <g
         transform="translate(0,-1004.3622)"
         id="g3077">
        <rect
           rx="4"
           y="1005.36"
           x="1"
           height="46"
           width="46"
           fill="#1890d0"
           id="rect3079" />
      </g>
    </clipPath>
    <linearGradient
       id="linearGradient3764-4"
       x1="1"
       x2="47"
       gradientUnits="userSpaceOnUse"
       gradientTransform="translate(-48.000001,0.00221467)">
      <stop
         stop-color="#60c3e0"
         stop-opacity="1"
         id="stop7" />
      <stop
         offset="1"
         stop-color="#71cae3"
         stop-opacity="1"
         id="stop9" />
    </linearGradient>
    <linearGradient
       id="linearGradient3764-8"
       x1="1"
       x2="47"
       gradientUnits="userSpaceOnUse"
       gradientTransform="translate(-48.000001,0.00221467)">
      <stop
         stop-color="#60c3e0"
         stop-opacity="1"
         id="stop7-8" />
      <stop
         offset="1"
         stop-color="#71cae3"
         stop-opacity="1"
         id="stop9-7" />
    </linearGradient>
    <clipPath
       clipPathUnits="userSpaceOnUse"
       id="clipPath4556">
      <rect
         ry="5.2470274"
         rx="5.2470274"
         y="2.3506978"
         x="-8.8318624"
         height="42.975647"
         width="42.975647"
         id="rect4558"
         style="opacity:1;fill:#ffffff;fill-opacity:1;stroke:#2ba8eb;stroke-width:2.6235137;stroke-miterlimit:4;stroke-dasharray:none;stroke-opacity:1" />
    </clipPath>
  </defs>
  <g
     id="g35"
     transform="translate(57.762712,2.0338985)" />
  <g
     id="g4220">
    <rect
       ry="5.2470274"
       rx="5.2470274"
       y="2.5121763"
       x="3.3257382"
       height="42.975647"
       width="42.975647"
       id="rect4136"
       style="opacity:1;fill:#ffffff;fill-opacity:1;stroke:#4d4d4d;stroke-width:2.6235137;stroke-miterlimit:4;stroke-dasharray:none;stroke-opacity:1" />
    <g
       style="fill:#00ccff;fill-opacity:1"
       id="g29"
       transform="matrix(0.88240469,0,0,0.90451228,3.635873,2.3236052)">
      <rect
         id="rect31"
         transform="matrix(0,-1,1,0,0,0)"
         rx="4"
         y="1"
         x="-47"
         height="46"
         width="46"
         style="fill:#00ccff;fill-opacity:1" />
    </g>
    <path
       style="fill:#ec7f43;fill-opacity:1;fill-rule:nonzero;stroke:none"
       inkscape:connector-curvature="0"
       id="path67"
       d="m 41.055247,14.390353 c 0.05242,0.09341 0.09341,0.185864 0.141066,0.27546 -0.0038,0.01906 0.0038,0.04098 0,0.05242 -0.01144,-0.01525 -0.02955,-0.03717 -0.02955,-0.05242 -0.04098,-0.09341 -0.06672,-0.182052 -0.111518,-0.27546 m 0,0" />
    <path
       id="path52"
       d="m 30.825657,7.5644977 c 1.310763,0.2585657 2.432815,0.5575117 3.333687,0.9638279 1.387334,0.6094756 2.283427,1.4084885 2.706839,2.3365514 -1.288241,-0.235478 -2.420669,-0.163426 -3.447658,0.233657 7.360085,2.876532 10.829335,6.299274 10.428454,10.251622 -0.536016,-0.826485 -1.2556,-1.363169 -2.165472,-1.635586 1.126081,4.335579 1.251789,7.89319 0.341917,10.718933 -0.626108,-1.883829 -1.224581,-2.990919 -1.738076,-3.388 0.716183,5.813089 -0.266749,10.111411 -2.906291,12.909452 0.499983,-1.708375 0.715463,-3.102278 0.598355,-4.205794 -3.098986,4.598759 -6.616112,6.949524 -10.570919,7.097275 -1.563005,-0.01847 -3.057582,-0.223885 -4.444915,-0.671758 -2.040466,-0.674115 -3.888075,-1.836504 -5.527652,-3.475621 2.558458,0.207777 4.893821,-0.255461 6.952304,-1.285104 l 3.390672,-2.132102 c 0.427906,-0.313972 0.824311,-0.281538 1.225202,-0.08762 0.828795,-0.115435 1.060523,-0.37261 0.826298,-1.139068 -0.527008,-0.452488 -0.991823,-1.055534 -1.766569,-1.489554 -1.689132,-0.868038 -3.442453,-0.916248 -5.271213,0.408897 -1.75219,0.978852 -3.432186,0.92205 -5.071764,-0.116828 -1.076536,-0.729522 -2.134279,-1.721714 -3.134235,-2.949897 l -0.37041,-0.554932 0,-0.02921 c 0.04951,-1.21433 0.537193,-1.867524 1.510132,-2.015276 1.103561,0.09695 2.366198,0.353064 3.789577,0.759381 0.238731,-1.348232 -0.07541,-2.755984 -0.940272,-4.205794 l 0.02845,-0.175242 c 1.33779,-1.223566 2.434184,-1.968465 3.447661,-2.541 0.364847,-0.489426 0.532049,-0.64202 0.797805,-1.080656 -0.05854,-0.12928 0.06592,-0.210676 0.142465,-0.146035 0.08106,-0.369379 0.07687,-0.313011 -0.256437,-0.788587 C 21.75164,19.370523 20.6365,19.061496 19.884283,18.867564 19.496905,18.756751 18.973226,18.53007 18.37415,17.962152 l -1.538625,-1.489553 -0.398901,-0.525724 0.02845,-0.175242 c 0.171159,-1.168153 0.737264,-2.117185 1.196709,-3.008311 0.499982,-0.81725 1.458936,-1.715911 2.877799,-2.657828 -2.630539,0.323208 -5.006229,1.496339 -7.123267,3.504835 C 11.664122,12.977765 9.5681361,13.114244 7.1763346,14.01922 5.6899045,13.32664 5.7822675,12.39671 5.2957979,9.2292912 4.7873817,9.7866506 4.2933625,10.335409 3.8426527,10.923292 l 0,30.784076 c 0,2.071119 1.6266108,3.738483 3.6471096,3.738483 l 34.6475417,0 c 2.020499,0 3.64711,-1.667364 3.64711,-3.738483 l 0,-27.775765 C 44.248836,11.5137 41.786845,9.6001775 38.604167,8.6451532 36.424062,7.9987414 33.816443,7.652226 30.825566,7.5644977 Z"
       style="opacity:1;fill:#4d4d4d;fill-opacity:1"
       inkscape:connector-curvature="0" />
    <path
       id="path54"
       d="m 45.538974,17.180559 c 0.06596,0.117723 0.117723,0.235437 0.178925,0.348449 -0.0048,0.02354 0.0048,0.05179 0,0.06593 -0.01411,-0.01884 -0.03765,-0.04709 -0.03765,-0.06593 -0.05176,-0.117724 -0.08474,-0.23073 -0.141256,-0.348449 z m 0,0"
       inkscape:connector-curvature="0"
       style="opacity:0.1" />
    <path
       style="fill:#ed7f43"
       inkscape:connector-curvature="0"
       id="path76"
       d="m 45.539345,16.227458 c 0.06596,0.117723 0.117724,0.235437 0.178935,0.348447 -0.0048,0.02354 0.0048,0.05179 0,0.06593 -0.01411,-0.01884 -0.03765,-0.04708 -0.03765,-0.06593 -0.05176,-0.117724 -0.08473,-0.230729 -0.141267,-0.348447 z m 0,0" />
    <g
       id="g21"
       transform="matrix(0.95314889,0,0,0.95314889,1.9380144,0.64785212)">
      <path
         id="path23"
         d="m 1,43 0,0.25 c 0,2.216 1.784,4 4,4 l 38,0 c 2.216,0 4,-1.784 4,-4 L 47,43 c 0,2.216 -1.784,4 -4,4 L 5,47 C 2.784,47 1,45.216 1,43 Z m 0,0.5 0,0.5 c 0,2.216 1.784,4 4,4 l 38,0 c 2.216,0 4,-1.784 4,-4 l 0,-0.5 c 0,2.216 -1.784,4 -4,4 l -38,0 c -2.216,0 -4,-1.784 -4,-4 z"
         inkscape:connector-curvature="0"
         style="opacity:0.02000002" />
      <path
         id="path25"
         d="m 1,43.25 0,0.25 c 0,2.216 1.784,4 4,4 l 38,0 c 2.216,0 4,-1.784 4,-4 l 0,-0.25 c 0,2.216 -1.784,4 -4,4 l -38,0 c -2.216,0 -4,-1.784 -4,-4 z"
         inkscape:connector-curvature="0"
         style="opacity:0.05" />
      <path
         id="path27"
         d="m 1,43 0,0.25 c 0,2.216 1.784,4 4,4 l 38,0 c 2.216,0 4,-1.784 4,-4 L 47,43 c 0,2.216 -1.784,4 -4,4 L 5,47 C 2.784,47 1,45.216 1,43 Z"
         inkscape:connector-curvature="0"
         style="opacity:0.1" />
    </g>
  </g>
</svg>
