<?xml version="1.0" encoding="UTF-8" standalone="no"?>
<!-- Created with Inkscape (http://www.inkscape.org/) -->

<svg
   xmlns:dc="http://purl.org/dc/elements/1.1/"
   xmlns:cc="http://creativecommons.org/ns#"
   xmlns:rdf="http://www.w3.org/1999/02/22-rdf-syntax-ns#"
   xmlns:svg="http://www.w3.org/2000/svg"
   xmlns="http://www.w3.org/2000/svg"
   xmlns:sodipodi="http://sodipodi.sourceforge.net/DTD/sodipodi-0.dtd"
   xmlns:inkscape="http://www.inkscape.org/namespaces/inkscape"
   id="svg2"
   version="1.1"
   inkscape:version="0.91 r"
   width="513"
   height="512"
   sodipodi:docname="firefox-developer-icon.svg">
  <metadata
     id="metadata8">
    <rdf:RDF>
      <cc:Work
         rdf:about="">
        <dc:format>image/svg+xml</dc:format>
        <dc:type
           rdf:resource="http://purl.org/dc/dcmitype/StillImage" />
        <dc:title />
      </cc:Work>
    </rdf:RDF>
  </metadata>
  <defs
     id="defs6" />
  <sodipodi:namedview
     pagecolor="#ffffff"
     bordercolor="#666666"
     borderopacity="1"
     objecttolerance="10"
     gridtolerance="10"
     guidetolerance="10"
     inkscape:pageopacity="0"
     inkscape:pageshadow="2"
     inkscape:window-width="1366"
     inkscape:window-height="711"
     id="namedview4"
     showgrid="false"
     inkscape:zoom="0.921875"
     inkscape:cx="429.01509"
     inkscape:cy="283.19237"
     inkscape:window-x="0"
     inkscape:window-y="0"
     inkscape:window-maximized="1"
     inkscape:current-layer="svg2" />
  <g
     id="g4183"
     transform="matrix(1.0904683,0,0,1.0904683,-45.134614,7.5950171)">
    <rect
       ry="52.429016"
       rx="52.429016"
       y="13.08734"
       x="61.900894"
       height="429.41855"
       width="429.41855"
       id="rect4136"
       style="opacity:1;fill:#ffffff;fill-opacity:1;stroke:#0000cd;stroke-width:26.21450806;stroke-miterlimit:4;stroke-dasharray:none;stroke-opacity:1" />
    <g
       style="fill:#00ccff;fill-opacity:1"
       id="g29"
       transform="matrix(8.8171085,0,0,9.0380106,64.999805,11.203102)">
      <rect
         id="rect31"
         transform="matrix(0,-1,1,0,0,0)"
         rx="4"
         y="1"
         x="-47"
         height="46"
         width="46"
         style="fill:#00ccff;fill-opacity:1" />
    </g>
    <path
       style="fill:#ec7f43;fill-opacity:1;fill-rule:nonzero;stroke:none"
       inkscape:connector-curvature="0"
       id="path67"
       d="m 438.89937,131.77562 c 0.52359,0.93327 0.93327,1.85724 1.4095,2.75243 -0.04,0.19085 0.04,0.40968 0,0.52359 -0.11391,-0.15188 -0.29577,-0.3717 -0.29577,-0.52359 -0.40968,-0.93326 -0.66648,-1.81906 -1.11432,-2.75243 m 0,0" />
    <path
       id="path52"
       d="m 336.68391,63.570793 c 13.09729,2.583566 24.30897,5.570716 33.31059,9.630721 13.86249,6.089908 22.81634,14.073725 27.04711,23.347128 -12.87227,-2.352949 -24.18766,-1.633015 -34.44949,2.334662 73.54303,28.742786 108.20825,62.943266 104.2026,102.435696 -5.35598,-8.25841 -12.54612,-13.62099 -21.63767,-16.34304 11.25195,43.32171 12.50796,78.86983 3.41641,107.10501 -6.25617,-18.82348 -12.23617,-29.88568 -17.36703,-33.85336 7.15617,58.08519 -2.6654,101.0346 -29.04005,128.9931 4.99587,-17.07037 7.14898,-30.99841 5.9788,-42.02493 -30.96554,45.95144 -66.10908,69.44065 -105.62608,70.91699 -15.61771,-0.18486 -30.55176,-2.23714 -44.41415,-6.71232 -20.38866,-6.7359 -38.85023,-18.35066 -55.23314,-34.72887 25.56448,2.07607 48.89982,-2.55259 69.46843,-12.84099 l 33.88004,-21.30424 c 4.27574,-3.13723 8.23662,-2.81319 12.24237,-0.87531 8.28148,-1.15339 10.59696,-3.72317 8.2565,-11.38174 -5.26595,-4.52125 -9.9104,-10.547 -17.65181,-14.88379 -16.87802,-8.67358 -34.39743,-9.1553 -52.67065,4.08578 -17.50812,9.78081 -34.29491,9.21325 -50.67782,-1.16738 -10.75684,-7.28946 -21.32592,-17.20366 -31.31766,-29.4758 l -3.70118,-5.54494 0,-0.29177 c 0.49461,-12.13375 5.36767,-18.66052 15.08942,-20.13695 11.02693,0.96823 23.6434,3.52792 37.86601,7.58782 2.38542,-13.47169 -0.75341,-27.53813 -9.39531,-42.02483 l 0.28477,-1.75102 c 13.36739,-12.22608 24.32266,-19.66922 34.4495,-25.39002 3.64553,-4.89045 5.31631,-6.41515 7.97172,-10.7981 -0.58454,-1.29178 0.65848,-2.10504 1.42358,-1.45915 0.81036,-3.6909 0.7684,-3.12764 -2.56238,-7.8797 -9.81178,2.39901 -20.95441,-0.68846 -28.4707,-2.62663 -3.87075,-1.10723 -9.10343,-3.37225 -15.08942,-9.04698 l -15.3742,-14.88379 -3.98587,-5.25307 0.28478,-1.75112 c 1.71025,-11.67232 7.3669,-21.15515 11.95769,-30.05945 4.99587,-8.16607 14.57793,-17.145604 28.75537,-26.557398 -26.28472,3.229559 -50.02294,14.951638 -71.17669,35.020838 -17.50812,-6.32062 -38.45154,-4.957 -62.35073,4.08569 C 85.524953,121.14718 86.447927,111.8552 81.587052,80.205902 76.50685,85.775119 71.570534,91.258405 67.066978,97.132582 l 0,307.598748 c 0,20.69491 16.25331,37.3554 36.442422,37.3554 l 346.20297,0 c 20.18911,0 36.44242,-16.66049 36.44242,-37.3554 l 0,-277.5393 C 470.81106,103.03204 446.21052,83.911886 414.40885,74.369095 392.62489,67.910078 366.56919,64.447702 336.68391,63.571092 Z"
       style="opacity:1;fill:#0000cd;fill-opacity:1"
       inkscape:connector-curvature="0" />
    <path
       id="path54"
       d="m 483.70132,159.65578 c 0.65948,1.17628 1.17637,2.35255 1.78789,3.48176 -0.05,0.23482 0.05,0.51759 0,0.65848 -0.14089,-0.18785 -0.3757,-0.47063 -0.3757,-0.65848 -0.51759,-1.17637 -0.84634,-2.30548 -1.41149,-3.48176 z m 0,0"
       inkscape:connector-curvature="0"
       style="opacity:0.1" />
    <path
       style="fill:#ed7f43"
       inkscape:connector-curvature="0"
       id="path76"
       d="m 483.70502,150.13228 c 0.65948,1.17627 1.17637,2.35254 1.78799,3.48176 -0.05,0.23481 0.05,0.51759 0,0.65848 -0.14089,-0.18785 -0.3757,-0.47063 -0.3757,-0.65848 -0.5176,-1.17638 -0.84634,-2.30549 -1.41159,-3.48176 z m 0,0" />
    <g
       id="g21"
       transform="matrix(9.5239943,0,0,9.5239943,48.034555,-5.5413216)">
      <path
         id="path23"
         d="m 1,43 0,0.25 c 0,2.216 1.784,4 4,4 l 38,0 c 2.216,0 4,-1.784 4,-4 L 47,43 c 0,2.216 -1.784,4 -4,4 L 5,47 C 2.784,47 1,45.216 1,43 Z m 0,0.5 0,0.5 c 0,2.216 1.784,4 4,4 l 38,0 c 2.216,0 4,-1.784 4,-4 l 0,-0.5 c 0,2.216 -1.784,4 -4,4 l -38,0 c -2.216,0 -4,-1.784 -4,-4 z"
         inkscape:connector-curvature="0"
         style="opacity:0.02000002" />
      <path
         id="path25"
         d="m 1,43.25 0,0.25 c 0,2.216 1.784,4 4,4 l 38,0 c 2.216,0 4,-1.784 4,-4 l 0,-0.25 c 0,2.216 -1.784,4 -4,4 l -38,0 c -2.216,0 -4,-1.784 -4,-4 z"
         inkscape:connector-curvature="0"
         style="opacity:0.05" />
      <path
         id="path27"
         d="m 1,43 0,0.25 c 0,2.216 1.784,4 4,4 l 38,0 c 2.216,0 4,-1.784 4,-4 L 47,43 c 0,2.216 -1.784,4 -4,4 L 5,47 C 2.784,47 1,45.216 1,43 Z"
         inkscape:connector-curvature="0"
         style="opacity:0.1" />
    </g>
  </g>
</svg>
