<?xml version="1.0" encoding="UTF-8" standalone="no"?>
<!-- Created with Inkscape (http://www.inkscape.org/) -->

<svg
   xmlns:dc="http://purl.org/dc/elements/1.1/"
   xmlns:cc="http://creativecommons.org/ns#"
   xmlns:rdf="http://www.w3.org/1999/02/22-rdf-syntax-ns#"
   xmlns:svg="http://www.w3.org/2000/svg"
   xmlns="http://www.w3.org/2000/svg"
   xmlns:sodipodi="http://sodipodi.sourceforge.net/DTD/sodipodi-0.dtd"
   xmlns:inkscape="http://www.inkscape.org/namespaces/inkscape"
   id="svg2"
   version="1.1"
   inkscape:version="0.91 r"
   width="513"
   height="512"
   sodipodi:docname="firefox-nightly-icon.svg">
  <metadata
     id="metadata8">
    <rdf:RDF>
      <cc:Work
         rdf:about="">
        <dc:format>image/svg+xml</dc:format>
        <dc:type
           rdf:resource="http://purl.org/dc/dcmitype/StillImage" />
        <dc:title />
      </cc:Work>
    </rdf:RDF>
  </metadata>
  <defs
     id="defs6" />
  <sodipodi:namedview
     pagecolor="#ffffff"
     bordercolor="#666666"
     borderopacity="1"
     objecttolerance="10"
     gridtolerance="10"
     guidetolerance="10"
     inkscape:pageopacity="0"
     inkscape:pageshadow="2"
     inkscape:window-width="1366"
     inkscape:window-height="711"
     id="namedview4"
     showgrid="false"
     inkscape:zoom="0.35355339"
     inkscape:cx="-201.88289"
     inkscape:cy="496.40005"
     inkscape:window-x="0"
     inkscape:window-y="0"
     inkscape:window-maximized="1"
     inkscape:current-layer="svg2" />
  <rect
     style="opacity:1;fill:#ffffff;fill-opacity:1;stroke:#3e7cc5;stroke-width:28.00961876;stroke-miterlimit:4;stroke-dasharray:none;stroke-opacity:1"
     id="rect4136"
     width="458.82416"
     height="458.82416"
     x="27.087917"
     y="26.587917"
     rx="56.019238"
     ry="56.019238" />
  <g
     transform="matrix(9.4208843,0,0,9.6569132,30.399033,24.574661)"
     id="g29"
     style="fill:#353d3e;fill-opacity:1">
    <rect
       style="fill:#353d3e;fill-opacity:1"
       width="46"
       height="46"
       x="-47"
       y="1"
       rx="4"
       transform="matrix(0,-1,1,0,0,0)"
       id="rect31" />
  </g>
  <path
     d="m 429.90234,153.4038 c 0.55965,0.99728 0.99728,1.98435 1.50607,2.94091 -0.0406,0.20349 0.0406,0.43752 0,0.55966 -0.12213,-0.16282 -0.31548,-0.39684 -0.31548,-0.55966 -0.43752,-0.99728 -0.71233,-1.94365 -1.19061,-2.94091 m 0,0"
     id="path67"
     inkscape:connector-curvature="0"
     style="fill:#ec7f43;fill-opacity:1;fill-rule:nonzero;stroke:none" />
  <path
     inkscape:connector-curvature="0"
     style="opacity:1;fill:#3e7cc5;fill-opacity:1"
     d="m 320.68739,80.5284 c 13.9942,2.760545 25.97365,5.952205 35.5917,10.290189 14.8117,6.506991 24.37872,15.037551 28.89923,24.945901 -13.75375,-2.51405 -25.84398,-1.7448 -36.8085,2.49461 78.57904,30.71094 115.61806,67.25342 111.3381,109.45017 -5.72271,-8.82386 -13.40526,-14.5537 -23.11939,-17.46213 12.02246,46.28827 13.36457,84.27066 3.65043,114.43936 -6.68456,-20.11247 -13.07409,-31.93218 -18.55635,-36.17156 7.64624,62.06272 -2.84791,107.95322 -31.02866,137.82616 5.33801,-18.23925 7.63855,-33.12109 6.38827,-44.90264 -33.08594,49.09808 -70.6361,74.19573 -112.85911,75.77318 -16.68723,-0.19719 -32.6439,-2.39028 -47.45558,-7.17194 -21.78479,-7.19711 -41.51055,-19.60721 -59.0153,-37.10704 27.31506,2.21831 52.24828,-2.7274 74.22542,-13.72025 l 36.20009,-22.76312 c 4.56848,-3.35209 8.80065,-3.00581 13.08071,-0.93547 8.84853,-1.23243 11.32254,-3.97812 8.82187,-12.16112 -5.62653,-4.83093 -10.58907,-11.26927 -18.86055,-15.90304 -18.03381,-9.2675 -36.75293,-9.7822 -56.27746,4.36554 -18.70704,10.4506 -36.6433,9.84416 -54.14806,-1.2473 -11.4935,-7.78865 -22.78636,-18.38166 -33.46227,-31.49421 l -3.95463,-5.92466 0,-0.31186 c 0.52858,-12.96464 5.73527,-19.93838 16.12273,-21.51584 11.78204,1.03507 25.26242,3.76944 40.45895,8.10744 2.54878,-14.39423 -0.8051,-29.42392 -10.03869,-44.90264 l 0.30374,-1.87095 c 14.28275,-13.06325 25.98826,-21.01607 36.80852,-27.12867 3.89525,-5.2253 5.68036,-6.85445 8.51767,-11.53749 -0.625,-1.38024 0.70379,-2.24926 1.52101,-1.55913 0.86543,-3.94363 0.82069,-3.34182 -2.73782,-8.41925 -10.48369,2.56333 -22.38934,-0.73596 -30.42029,-2.80645 -4.1358,-1.18309 -9.72679,-3.60322 -16.12275,-9.66652 l -16.42694,-15.90303 -4.25882,-5.61283 0.30375,-1.87095 c 1.82735,-12.47164 7.8713,-22.60386 12.77651,-32.11786 5.338,-8.72527 15.57615,-18.31971 30.72447,-28.37597 -28.08463,3.45069 -53.44839,15.97548 -76.05068,37.41894 -18.70707,-6.75349 -41.084606,-5.29639 -66.620378,4.36547 C 52.328645,142.0472 53.314748,132.11892 48.121015,98.302362 42.692973,104.25294 37.418638,110.11169 32.606691,116.38815 l 0,328.66237 c 0,22.11205 17.366308,39.91345 38.937913,39.91345 l 369.910186,0 c 21.5716,0 38.93791,-17.8014 38.93791,-39.91345 l 0,-296.54451 C 463.9983,122.69157 437.71315,102.26208 403.73369,92.065885 380.45807,85.164549 352.61815,81.465021 320.68642,80.5284 Z"
     id="path52" />
  <path
     style="opacity:0.1"
     inkscape:connector-curvature="0"
     d="m 477.77229,183.19309 c 0.70422,1.25685 1.25686,2.51361 1.91028,3.72017 -0.0512,0.25132 0.0512,0.55293 0,0.70389 -0.15065,-0.20114 -0.40197,-0.50275 -0.40197,-0.70389 -0.55261,-1.25687 -0.90472,-2.46336 -1.5081,-3.72017 z m 0,0"
     id="path54" />
  <path
     d="m 477.77626,173.01742 c 0.70421,1.25686 1.25686,2.51362 1.91037,3.72015 -0.0512,0.25132 0.0513,0.55293 0,0.7039 -0.15064,-0.20115 -0.40196,-0.50265 -0.40196,-0.7039 -0.55261,-1.25686 -0.90461,-2.46335 -1.50822,-3.72015 z m 0,0"
     id="path76"
     inkscape:connector-curvature="0"
     style="fill:#ed7f43" />
  <g
     transform="matrix(10.176176,0,0,10.176176,12.272056,6.6836914)"
     id="g21">
    <path
       style="opacity:0.02000002"
       inkscape:connector-curvature="0"
       d="m 1,43 0,0.25 c 0,2.216 1.784,4 4,4 l 38,0 c 2.216,0 4,-1.784 4,-4 L 47,43 c 0,2.216 -1.784,4 -4,4 L 5,47 C 2.784,47 1,45.216 1,43 Z m 0,0.5 0,0.5 c 0,2.216 1.784,4 4,4 l 38,0 c 2.216,0 4,-1.784 4,-4 l 0,-0.5 c 0,2.216 -1.784,4 -4,4 l -38,0 c -2.216,0 -4,-1.784 -4,-4 z"
       id="path23" />
    <path
       style="opacity:0.05"
       inkscape:connector-curvature="0"
       d="m 1,43.25 0,0.25 c 0,2.216 1.784,4 4,4 l 38,0 c 2.216,0 4,-1.784 4,-4 l 0,-0.25 c 0,2.216 -1.784,4 -4,4 l -38,0 c -2.216,0 -4,-1.784 -4,-4 z"
       id="path25" />
    <path
       style="opacity:0.1"
       inkscape:connector-curvature="0"
       d="m 1,43 0,0.25 c 0,2.216 1.784,4 4,4 l 38,0 c 2.216,0 4,-1.784 4,-4 L 47,43 c 0,2.216 -1.784,4 -4,4 L 5,47 C 2.784,47 1,45.216 1,43 Z"
       id="path27" />
  </g>
</svg>
