<?xml version="1.0" encoding="UTF-8" standalone="no"?>
<svg
   xmlns:osb="http://www.openswatchbook.org/uri/2009/osb"
   xmlns:dc="http://purl.org/dc/elements/1.1/"
   xmlns:cc="http://creativecommons.org/ns#"
   xmlns:rdf="http://www.w3.org/1999/02/22-rdf-syntax-ns#"
   xmlns:svg="http://www.w3.org/2000/svg"
   xmlns="http://www.w3.org/2000/svg"
   xmlns:sodipodi="http://sodipodi.sourceforge.net/DTD/sodipodi-0.dtd"
   xmlns:inkscape="http://www.inkscape.org/namespaces/inkscape"
   height="512"
   viewBox="0 0 512 512"
   width="512"
   id="svg3149"
   version="1.1"
   inkscape:version="0.91 r"
   sodipodi:docname="gnome-boxes.svg">
  <metadata
     id="metadata3169">
    <rdf:RDF>
      <cc:Work
         rdf:about="">
        <dc:format>image/svg+xml</dc:format>
        <dc:type
           rdf:resource="http://purl.org/dc/dcmitype/StillImage" />
        <dc:title />
      </cc:Work>
    </rdf:RDF>
  </metadata>
  <defs
     id="defs3167">
    <linearGradient
       id="linearGradient4178"
       osb:paint="solid">
      <stop
         style="stop-color:#232323;stop-opacity:1;"
         offset="0"
         id="stop4180" />
    </linearGradient>
    <linearGradient
       id="linearGradient4156"
       osb:paint="gradient">
      <stop
         style="stop-color:#ffffff;stop-opacity:1;"
         offset="0"
         id="stop4158" />
      <stop
         style="stop-color:#2a2a2a;stop-opacity:1"
         offset="1"
         id="stop4160" />
    </linearGradient>
  </defs>
  <sodipodi:namedview
     pagecolor="#ffffff"
     bordercolor="#666666"
     borderopacity="1"
     objecttolerance="10"
     gridtolerance="10"
     guidetolerance="10"
     inkscape:pageopacity="0"
     inkscape:pageshadow="2"
     inkscape:window-width="1366"
     inkscape:window-height="711"
     id="namedview3165"
     showgrid="false"
     inkscape:zoom="0.4609375"
     inkscape:cx="-17.830993"
     inkscape:cy="332.66217"
     inkscape:window-x="0"
     inkscape:window-y="0"
     inkscape:window-maximized="1"
     inkscape:current-layer="svg3149"
     inkscape:snap-bbox="false"
     inkscape:bbox-paths="true"
     inkscape:bbox-nodes="true"
     inkscape:snap-bbox-edge-midpoints="true"
     inkscape:snap-bbox-midpoints="true" />
  <rect
     style="opacity:1;fill:#ffffff;fill-opacity:1;stroke:#5b6a74;stroke-width:28.284;stroke-miterlimit:4;stroke-dasharray:none;stroke-opacity:0.98823529"
     id="rect4136"
     width="463.3252"
     height="463.3252"
     x="24.337406"
     y="24.337406"
     rx="56.568768"
     ry="56.568768" />
  <g
     id="g4226"
     transform="matrix(0.83552344,0,0,0.83552344,39.381286,27.507242)">
    <g
       transform="translate(760.89484,141.13372)"
       style="fill:#333333"
       id="g4183">
      <g
         style="fill:#333333"
         id="g4165"
         transform="matrix(0.45972949,0,0,0.45972949,-271.01792,71.498788)">
        <path
           style="opacity:1;fill:#333333;fill-opacity:1;stroke:none;stroke-width:8.39999962;stroke-miterlimit:4;stroke-dasharray:none;stroke-opacity:1"
           d="m -349.28813,-78.101562 a 55.322033,55.322033 0 0 0 -55.32227,55.322265 55.322033,55.322033 0 0 0 24.94922,46.1875 l 0,217.843747 a 55.322033,55.322033 0 0 0 -24.94922,46.20508 55.322033,55.322033 0 0 0 55.32227,55.32227 55.322033,55.322033 0 0 0 55.32227,-55.32227 55.322033,55.322033 0 0 0 -24.94922,-46.1875 l 0,-217.843749 a 55.322033,55.322033 0 0 0 24.94922,-46.205078 55.322033,55.322033 0 0 0 -55.32227,-55.322265 z"
           id="path4167"
           inkscape:connector-curvature="0" />
        <path
           inkscape:connector-curvature="0"
           id="path4169"
           d="m -657.35593,-78.101562 a 55.322033,55.322033 0 0 0 -55.32227,55.322265 55.322033,55.322033 0 0 0 24.94922,46.1875 l 0,217.843747 a 55.322033,55.322033 0 0 0 -24.94922,46.20508 55.322033,55.322033 0 0 0 55.32227,55.32227 55.322033,55.322033 0 0 0 55.32227,-55.32227 55.322033,55.322033 0 0 0 -24.94922,-46.1875 l 0,-217.843749 a 55.322033,55.322033 0 0 0 24.94922,-46.205078 55.322033,55.322033 0 0 0 -55.32227,-55.322265 z"
           style="opacity:1;fill:#333333;fill-opacity:1;stroke:none;stroke-width:8.39999962;stroke-miterlimit:4;stroke-dasharray:none;stroke-opacity:1" />
        <path
           style="opacity:1;fill:#333333;fill-opacity:1;stroke:none;stroke-width:8.39999962;stroke-miterlimit:4;stroke-dasharray:none;stroke-opacity:1"
           d="m -290.58931,-19.881702 a 55.322033,55.322033 0 0 0 -55.32226,-55.322271 55.322033,55.322033 0 0 0 -46.1875,24.949221 l -217.84375,0 a 55.322033,55.322033 0 0 0 -46.20508,-24.949221 55.322033,55.322033 0 0 0 -55.32227,55.322271 55.322033,55.322033 0 0 0 55.32227,55.32227 55.322033,55.322033 0 0 0 46.1875,-24.94922 l 217.84375,0 a 55.322033,55.322033 0 0 0 46.20508,24.94922 55.322033,55.322033 0 0 0 55.32226,-55.32227 z"
           id="path4171"
           inkscape:connector-curvature="0" />
        <path
           inkscape:connector-curvature="0"
           id="path4173"
           d="m -291.79734,287.45703 a 55.322033,55.322033 0 0 0 -55.32226,-55.32227 55.322033,55.322033 0 0 0 -46.1875,24.94922 l -217.84375,0 a 55.322033,55.322033 0 0 0 -46.20508,-24.94922 55.322033,55.322033 0 0 0 -55.32227,55.32227 55.322033,55.322033 0 0 0 55.32227,55.32227 55.322033,55.322033 0 0 0 46.1875,-24.94922 l 217.84375,0 a 55.322033,55.322033 0 0 0 46.20508,24.94922 55.322033,55.322033 0 0 0 55.32226,-55.32227 z"
           style="opacity:1;fill:#333333;fill-opacity:1;stroke:none;stroke-width:8.39999962;stroke-miterlimit:4;stroke-dasharray:none;stroke-opacity:1" />
      </g>
      <rect
         style="opacity:1;fill:#333333;fill-opacity:1;stroke:none;stroke-width:8.39999962;stroke-miterlimit:4;stroke-dasharray:none;stroke-opacity:1"
         id="rect4175"
         width="151.86441"
         height="30.372881"
         x="-140.08571"
         y="434.53659"
         ry="1.39828"
         transform="matrix(0.70710678,0.70710678,-0.70710678,0.70710678,0,0)" />
      <rect
         transform="matrix(-0.70710678,0.70710678,0.70710678,0.70710678,0,0)"
         ry="1.39828"
         y="-273.0874"
         x="567.53711"
         height="30.372881"
         width="151.86441"
         id="rect4177"
         style="opacity:1;fill:#333333;fill-opacity:1;stroke:none;stroke-width:8.39999962;stroke-miterlimit:4;stroke-dasharray:none;stroke-opacity:1" />
      <rect
         transform="matrix(0.70710678,-0.70710678,-0.70710678,-0.70710678,0,0)"
         ry="1.39828"
         y="241.30089"
         x="-333.32169"
         height="30.372881"
         width="151.86441"
         id="rect4179"
         style="opacity:1;fill:#333333;fill-opacity:1;stroke:none;stroke-width:8.39999962;stroke-miterlimit:4;stroke-dasharray:none;stroke-opacity:1" />
      <rect
         style="opacity:1;fill:#333333;fill-opacity:1;stroke:none;stroke-width:8.39999962;stroke-miterlimit:4;stroke-dasharray:none;stroke-opacity:1"
         id="rect4181"
         width="151.86441"
         height="30.372881"
         x="374.30142"
         y="-466.3262"
         ry="1.39828"
         transform="matrix(-0.70710678,-0.70710678,0.70710678,-0.70710678,0,0)" />
    </g>
    <g
       transform="translate(760.89484,141.13372)"
       style="fill:#666666"
       id="g4159">
      <path
         style="opacity:1;fill:#666666;fill-opacity:1;stroke:none;stroke-width:8.39999962;stroke-miterlimit:4;stroke-dasharray:none;stroke-opacity:1"
         d="m -349.28813,-78.101562 a 55.322033,55.322033 0 0 0 -55.32227,55.322265 55.322033,55.322033 0 0 0 24.94922,46.1875 l 0,217.843747 a 55.322033,55.322033 0 0 0 -24.94922,46.20508 55.322033,55.322033 0 0 0 55.32227,55.32227 55.322033,55.322033 0 0 0 55.32227,-55.32227 55.322033,55.322033 0 0 0 -24.94922,-46.1875 l 0,-217.843749 a 55.322033,55.322033 0 0 0 24.94922,-46.205078 55.322033,55.322033 0 0 0 -55.32227,-55.322265 z"
         id="path4139"
         inkscape:connector-curvature="0" />
      <path
         inkscape:connector-curvature="0"
         id="path4150"
         d="m -657.35593,-78.101562 a 55.322033,55.322033 0 0 0 -55.32227,55.322265 55.322033,55.322033 0 0 0 24.94922,46.1875 l 0,217.843747 a 55.322033,55.322033 0 0 0 -24.94922,46.20508 55.322033,55.322033 0 0 0 55.32227,55.32227 55.322033,55.322033 0 0 0 55.32227,-55.32227 55.322033,55.322033 0 0 0 -24.94922,-46.1875 l 0,-217.843749 a 55.322033,55.322033 0 0 0 24.94922,-46.205078 55.322033,55.322033 0 0 0 -55.32227,-55.322265 z"
         style="opacity:1;fill:#666666;fill-opacity:1;stroke:none;stroke-width:8.39999962;stroke-miterlimit:4;stroke-dasharray:none;stroke-opacity:1" />
      <path
         style="opacity:1;fill:#666666;fill-opacity:1;stroke:none;stroke-width:8.39999962;stroke-miterlimit:4;stroke-dasharray:none;stroke-opacity:1"
         d="m -290.58931,-19.881702 a 55.322033,55.322033 0 0 0 -55.32226,-55.322271 55.322033,55.322033 0 0 0 -46.1875,24.949221 l -217.84375,0 a 55.322033,55.322033 0 0 0 -46.20508,-24.949221 55.322033,55.322033 0 0 0 -55.32227,55.322271 55.322033,55.322033 0 0 0 55.32227,55.32227 55.322033,55.322033 0 0 0 46.1875,-24.94922 l 217.84375,0 a 55.322033,55.322033 0 0 0 46.20508,24.94922 55.322033,55.322033 0 0 0 55.32226,-55.32227 z"
         id="path4152"
         inkscape:connector-curvature="0" />
      <path
         inkscape:connector-curvature="0"
         id="path4154"
         d="m -291.79734,287.45703 a 55.322033,55.322033 0 0 0 -55.32226,-55.32227 55.322033,55.322033 0 0 0 -46.1875,24.94922 l -217.84375,0 a 55.322033,55.322033 0 0 0 -46.20508,-24.94922 55.322033,55.322033 0 0 0 -55.32227,55.32227 55.322033,55.322033 0 0 0 55.32227,55.32227 55.322033,55.322033 0 0 0 46.1875,-24.94922 l 217.84375,0 a 55.322033,55.322033 0 0 0 46.20508,24.94922 55.322033,55.322033 0 0 0 55.32226,-55.32227 z"
         style="opacity:1;fill:#666666;fill-opacity:1;stroke:none;stroke-width:8.39999962;stroke-miterlimit:4;stroke-dasharray:none;stroke-opacity:1" />
    </g>
  </g>
</svg>
