<?xml version="1.0" encoding="UTF-8" standalone="no"?>
<svg
   xmlns:dc="http://purl.org/dc/elements/1.1/"
   xmlns:cc="http://creativecommons.org/ns#"
   xmlns:rdf="http://www.w3.org/1999/02/22-rdf-syntax-ns#"
   xmlns:svg="http://www.w3.org/2000/svg"
   xmlns="http://www.w3.org/2000/svg"
   xmlns:sodipodi="http://sodipodi.sourceforge.net/DTD/sodipodi-0.dtd"
   xmlns:inkscape="http://www.inkscape.org/namespaces/inkscape"
   width="128"
   height="128"
   version="1.1"
   id="svg2"
   inkscape:version="0.91 r"
   sodipodi:docname="gnome-xchat.svg">
  <sodipodi:namedview
     pagecolor="#ffffff"
     bordercolor="#666666"
     borderopacity="1"
     objecttolerance="10"
     gridtolerance="10"
     guidetolerance="10"
     inkscape:pageopacity="0"
     inkscape:pageshadow="2"
     inkscape:window-width="1366"
     inkscape:window-height="717"
     id="namedview17"
     showgrid="false"
     inkscape:zoom="2.6074563"
     inkscape:cx="42.660987"
     inkscape:cy="54.371297"
     inkscape:window-x="0"
     inkscape:window-y="0"
     inkscape:window-maximized="1"
     inkscape:current-layer="svg2" />
  <title
     id="title4">XChat Logo</title>
  <desc
     id="desc6">This icon is a part of Clarity icon theme for gtk</desc>
  <metadata
     id="metadata8">
    <rdf:RDF>
      <cc:Work
         rdf:about="">
        <dc:title>XChat Logo</dc:title>
        <dc:description>This icon is a part of Clarity icon theme for gtk</dc:description>
        <dc:creator>
          <cc:Agent>
            <dc:title>Jakub Jankiewicz</dc:title>
          </cc:Agent>
        </dc:creator>
        <dc:rights>
          <cc:Agent>
            <dc:title>Jakub Jankiewicz</dc:title>
          </cc:Agent>
        </dc:rights>
        <dc:date>2010</dc:date>
        <dc:format>image/svg+xml</dc:format>
        <dc:type
           rdf:resource="http://purl.org/dc/dcmitype/StillImage" />
        <cc:license
           rdf:resource="http://www.gnu.org/copyleft/gpl.html" />
      </cc:Work>
    </rdf:RDF>
  </metadata>
  <defs
     id="defs10">
    <linearGradient
       x1="0"
       y1="128"
       x2="128"
       y2="0"
       id="gradient"
       gradientUnits="userSpaceOnUse">
      <stop
         id="start"
         style="stop-color:#dbdbdb;stop-opacity:1"
         offset="0" />
      <stop
         id="stop"
         style="stop-color:#757575;stop-opacity:1"
         offset="1" />
    </linearGradient>
  </defs>
  <rect
     style="opacity:1;fill:#ffffff;fill-opacity:1;stroke:#dfe03c;stroke-width:7.16655064;stroke-miterlimit:4;stroke-dasharray:none;stroke-opacity:1"
     id="rect4136"
     width="117.39494"
     height="117.39494"
     x="5.3025317"
     y="5.3025317"
     rx="14.333101"
     ry="14.333101" />
  <path
     style="fill:#dfe03c;fill-opacity:1;stroke:none"
     d="M 33.608773,18.57447 18.574471,33.544246 43.352033,58.321808 c 0.717308,-0.54381 1.616333,-0.843487 2.516471,-0.838824 l 2.064798,0 c 1.453811,-0.01301 2.88644,0.805717 3.613393,2.064796 l 13.098555,0 c 1.963091,-0.02393 3.822817,1.545224 4.129594,3.484345 0.303534,-1.917775 2.12343,-3.477687 4.065068,-3.484345 l 10.582084,0 L 109.42554,33.544246 94.45575,18.57447 64.064526,48.965697 33.608773,18.57447 Z"
     id="path3357"
     inkscape:connector-curvature="0" />
  <path
     style="fill:#a7a7a7;fill-opacity:1;stroke:none"
     d="m 20.252118,60.063979 c -0.721424,0.121928 -1.300656,0.817014 -1.290497,1.548598 l 0,16.518375 c 8e-5,0.810821 0.737774,1.548518 1.548597,1.548597 l 17.615299,0 c 0.810818,-7.9e-5 1.548514,-0.737776 1.548596,-1.548597 l 0,-2.064797 c -8.2e-5,-0.810822 -0.737778,-1.548517 -1.548596,-1.548597 l -14.001905,0 0,-9.291586 14.066429,0 c 0.810819,-8.1e-5 1.548514,-0.737777 1.548597,-1.548598 l 0,-2.064797 c -8.3e-5,-0.810821 -0.737778,-1.548517 -1.548597,-1.548598 l -17.937923,0 z"
     id="path3355"
     inkscape:connector-curvature="0" />
  <path
     style="fill:#a7a7a7;fill-opacity:1;stroke:none"
     d="m 45.610405,60.063979 c -0.721427,0.121928 -1.300657,0.817014 -1.290499,1.548598 l 0,16.518375 c 8.1e-5,0.810821 0.737775,1.548518 1.548598,1.548597 l 2.064798,0 c 0.810818,-7.9e-5 1.548514,-0.737776 1.548596,-1.548597 l 0,-10.840183 11.549957,0 0,10.840183 c 8.2e-5,0.810821 0.737775,1.548518 1.548598,1.548597 l 2.064797,0 c 0.810819,-7.9e-5 1.548516,-0.737776 1.548598,-1.548597 l 0,-14.453578 c -8.2e-5,-0.810821 -0.737779,-1.548517 -1.548598,-1.548597 l -15.163352,0 0,-0.5162 c -8.2e-5,-0.810821 -0.737778,-1.548517 -1.548596,-1.548598 -0.774139,-4.89e-4 -1.549292,0 -2.322897,0 z"
     id="path3353"
     inkscape:connector-curvature="0" />
  <path
     style="fill:#a7a7a7;fill-opacity:1;stroke:none"
     d="m 99.811326,60.063979 c -0.698283,0.148625 -1.241542,0.834845 -1.225974,1.548598 l 0,0.5162 -1.290496,0 c -0.810828,8e-5 -1.548521,0.737776 -1.548602,1.548597 l 0,2.064797 c 8.1e-5,0.810821 0.737774,1.548518 1.548602,1.548598 l 1.290496,0 0,10.840183 c 8e-5,0.810821 0.737774,1.548518 1.548598,1.548597 l 5.35556,0 c 0.81083,-7.9e-5 1.54852,-0.737776 1.5486,-1.548597 l 0,-2.516471 c -8e-5,-0.810821 -0.73777,-1.548517 -1.5486,-1.548598 l -1.74217,0 0,-6.775114 1.74217,0 c 0.81083,-8e-5 1.54852,-0.737777 1.5486,-1.548598 l 0,-2.064797 c -8e-5,-0.810821 -0.73777,-1.548517 -1.5486,-1.548597 l -1.74217,0 0,-0.5162 c -8e-5,-0.810821 -0.73777,-1.548517 -1.54859,-1.548598 l -2.0648,0 c -0.10714,-0.01115 -0.215478,-0.01115 -0.322624,0 z"
     id="path3351"
     inkscape:connector-curvature="0" />
  <path
     style="fill:#a7a7a7;fill-opacity:1;stroke:none"
     d="m 72.581812,62.128777 c -0.721423,0.121926 -1.300656,0.817013 -1.290497,1.548597 l 0,14.453578 c 8e-5,0.810821 0.737777,1.548518 1.548597,1.548597 l 9.485161,0 c 0.810821,-7.9e-5 1.548515,-0.737776 1.548597,-1.548597 l 0,-2.064797 c -8.2e-5,-0.810822 -0.737776,-1.548517 -1.548597,-1.548597 l -5.871766,0 0,-7.226789 12.195206,0 0,10.840183 c 8e-5,0.810821 0.737777,1.548518 1.548597,1.548597 l 4.129596,0 c 0.810819,-7.9e-5 1.548513,-0.737776 1.548601,-1.548597 l 0,-6.194391 c -8.8e-5,-0.81082 -0.737782,-1.548517 -1.548601,-1.548598 l -0.516204,0 0,-6.710589 c -8e-5,-0.810821 -0.737774,-1.548517 -1.548595,-1.548597 l -19.421995,0 c -0.08583,-0.0072 -0.172265,-0.0072 -0.2581,0 z"
     id="path3349"
     inkscape:connector-curvature="0" />
  <path
     style="fill:#d1330e;fill-opacity:1;stroke:none"
     d="m 52.062894,69.871764 0,8.259188 c -2.16e-4,2.162191 -1.967404,4.129377 -4.129592,4.129593 l -2.064798,0 c -2.03902,0.0089 -3.938268,-1.712401 -4.129594,-3.742443 -0.191323,2.030042 -2.090575,3.751235 -4.129593,3.742443 l -6.904165,0 L 18.574471,94.391227 33.608773,109.42553 61.09638,82.002446 c -1.551075,-0.597429 -2.652559,-2.209355 -2.64552,-3.871494 l 0,-8.259188 -6.387966,0 z"
     id="path3347"
     inkscape:connector-curvature="0" />
  <path
     style="fill:#d1330e;fill-opacity:1;stroke:none"
     d="m 68.774844,78.518102 c -0.135348,1.300287 -0.928643,2.515023 -2.064796,3.161719 L 94.45575,109.42553 109.42554,94.391227 96.520555,81.421722 c -0.700154,0.530876 -1.573344,0.829598 -2.451947,0.838823 l -3.871498,0 c -1.744845,-0.0033 -3.417897,-1.237475 -3.936018,-2.903621 -0.518122,1.666146 -2.191175,2.900368 -3.936019,2.903621 l -9.485161,0 c -2.017467,-0.02283 -3.875865,-1.733737 -4.065068,-3.742443 z"
     id="path15"
     inkscape:connector-curvature="0" />
</svg>
