<?xml version="1.0" encoding="UTF-8" standalone="no"?>
<!-- Generator: flash2svg, http://dissentgraphics.com/tools/flash2svg -->

<svg
   xmlns:dc="http://purl.org/dc/elements/1.1/"
   xmlns:cc="http://creativecommons.org/ns#"
   xmlns:rdf="http://www.w3.org/1999/02/22-rdf-syntax-ns#"
   xmlns:svg="http://www.w3.org/2000/svg"
   xmlns="http://www.w3.org/2000/svg"
   xmlns:sodipodi="http://sodipodi.sourceforge.net/DTD/sodipodi-0.dtd"
   xmlns:inkscape="http://www.inkscape.org/namespaces/inkscape"
   id="JDownloader"
   version="1.1"
   style="image-rendering:optimizeSpeed"
   x="0px"
   y="0px"
   width="512"
   height="512"
   viewBox="0 0 512 512"
   enable-background="new 0 0 1024 1024"
   inkscape:version="0.91 r"
   sodipodi:docname="jdownloader.svg">
  <metadata
     id="metadata40">
    <rdf:RDF>
      <cc:Work
         rdf:about="">
        <dc:format>image/svg+xml</dc:format>
        <dc:type
           rdf:resource="http://purl.org/dc/dcmitype/StillImage" />
        <dc:title />
      </cc:Work>
    </rdf:RDF>
  </metadata>
  <sodipodi:namedview
     pagecolor="#ffffff"
     bordercolor="#666666"
     borderopacity="1"
     objecttolerance="10"
     gridtolerance="10"
     guidetolerance="10"
     inkscape:pageopacity="0"
     inkscape:pageshadow="2"
     inkscape:window-width="1366"
     inkscape:window-height="712"
     id="namedview38"
     showgrid="false"
     inkscape:zoom="0.59385921"
     inkscape:cx="431.09188"
     inkscape:cy="355.96058"
     inkscape:window-x="0"
     inkscape:window-y="29"
     inkscape:window-maximized="1"
     inkscape:current-layer="JDownloader" />
  <defs
     transform="matrix(1 0 0 1 0 0) "
     id="defs3" />
  <rect
     style="fill:#ffffff;fill-opacity:1;fill-rule:evenodd;stroke:#006642;stroke-width:30.80485153;stroke-linecap:butt;stroke-linejoin:miter;stroke-miterlimit:4;stroke-dasharray:none;stroke-opacity:1"
     id="rect3005"
     width="459.60873"
     height="459.60876"
     x="26.195627"
     y="26.195612"
     ry="50.682041" />
  <g
     id="shadow"
     transform="matrix(0.39595342,0,0,0.39650699,46.225298,46.240089)">
    <g
       id="shape">
      <path
         id="path"
         d="m 964.65,346.3 q -8.6,-20.85 -19.4,-40.85 C 941.2,297.9 936.9,290.4 932.35,283.05 912.8,251.35 888.95,221.4 860.8,193.25 768.65,101.1 657.35,55 527,55 396.65,55 285.4,101.1 193.25,193.25 101.1,285.4 55,396.65 55,527 55,657.35 101.1,768.65 193.25,860.8 285.4,952.95 396.65,999 527,999 657.35,999 768.65,952.95 860.8,860.8 911.55,810 948.35,753.4 971.15,691.05 989.7,640.2 999,585.55 999,527 c 0,-44.9 -5.45,-87.55 -16.4,-127.95 -1.25,-4.55 -2.55,-9.1 -3.9,-13.6 -4.1,-13.3 -8.8,-26.35 -14.05,-39.15 z"
         inkscape:connector-curvature="0"
         style="fill:#000000;fill-opacity:0.09803922" />
    </g>
  </g>
  <g
     id="circle"
     transform="matrix(0.39595342,0,0,0.39650699,53.831704,52.188932)"
     style="fill:#0fa15f;fill-opacity:1">
    <g
       id="shape2"
       style="fill:#0fa15f;fill-opacity:1">
      <path
         id="path1"
         d="M 742.1,98.5 C 713.45,82.25 683.3,69.35 651.7,59.8 608.1,46.65 561.45,40.05 512.05,40.05 c -2.6,0 -5.2,0 -8.05,0.05 -104.65,1.5 -196.95,33.15 -276.85,95.05 -3,2.35 -6,4.75 -8.9,7.1 -9.45,7.65 -18.7,15.75 -27.75,24.25 -4.1,3.8 -8.15,7.75 -12.2,11.8 -92.15,92.15 -138.25,203.4 -138.25,333.75 0,130.35 46.1,241.65 138.25,333.8 68.05,68.05 146.5,110.95 234.9,128.65 31.95,6.4 64.75,9.55 98.85,9.55 130.35,0 241.65,-46.05 333.8,-138.2 4.05,-4.05 8,-8.1 11.8,-12.2 8.5,-9.05 16.6,-18.3 24.3,-27.7 2.3,-2.95 4.7,-5.95 7.05,-8.95 27.3,-35.3 48.7,-72.9 64.2,-112.95 17,-43.95 27,-90.8 29.95,-140.75 0.6,-10.2 0.9,-20.65 0.9,-31.25 0,-41.75 -4.7,-81.6 -14.3,-120 -1.1,-4.35 -2.35,-9 -3.65,-13.6 -0.55,-1.9 -1.1,-3.85 -1.8,-6.05 -1.95,-6.6 -4.25,-13.45 -6.65,-20.3 -6.45,-18.25 -14.15,-36.05 -23.15,-53.65 -3.8,-7.4 -7.95,-14.95 -12.3,-22.4 q -30.65,-52 -76.35,-97.75 C 813.65,146.1 779.1,119.5 742.1,98.5 Z"
         inkscape:connector-curvature="0"
         style="fill:#0fa15f;fill-opacity:1" />
    </g>
  </g>
  <mask
     id="circle2">
    <g
       id="g">
      <g
         id="shape20">
        <path
           id="path17"
           d="M 742.1,98.5 C 713.45,82.25 683.3,69.35 651.7,59.8 608.1,46.65 561.45,40.05 512.05,40.05 c -2.6,0 -5.2,0 -8.05,0.05 -104.65,1.5 -196.95,33.15 -276.85,95.05 -3,2.35 -6,4.75 -8.9,7.1 -9.45,7.65 -18.7,15.75 -27.75,24.25 -4.1,3.8 -8.15,7.75 -12.2,11.8 -92.15,92.15 -138.25,203.4 -138.25,333.75 0,130.35 46.1,241.65 138.25,333.8 68.05,68.05 146.5,110.95 234.9,128.65 31.95,6.4 64.75,9.55 98.85,9.55 130.35,0 241.65,-46.05 333.8,-138.2 4.05,-4.05 8,-8.1 11.8,-12.2 8.5,-9.05 16.6,-18.3 24.3,-27.7 2.3,-2.95 4.7,-5.95 7.05,-8.95 27.3,-35.3 48.7,-72.9 64.2,-112.95 17,-43.95 27,-90.8 29.95,-140.75 0.6,-10.2 0.9,-20.65 0.9,-31.25 0,-41.75 -4.7,-81.6 -14.3,-120 -1.1,-4.35 -2.35,-9 -3.65,-13.6 -0.55,-1.9 -1.1,-3.85 -1.8,-6.05 -1.95,-6.6 -4.25,-13.45 -6.65,-20.3 -6.45,-18.25 -14.15,-36.05 -23.15,-53.65 -3.8,-7.4 -7.95,-14.95 -12.3,-22.4 q -30.65,-52 -76.35,-97.75 C 813.65,146.1 779.1,119.5 742.1,98.5 Z"
           inkscape:connector-curvature="0"
           style="fill:#ffffff;fill-opacity:1" />
      </g>
    </g>
  </mask>
  <path
     style="fill:none;stroke:#006642;stroke-width:13.47182274;stroke-linecap:round;stroke-linejoin:round;stroke-opacity:1"
     d="m 255.70477,74.808728 c -49.96932,0 -92.61367,17.684057 -127.9525,53.072312 -35.338851,35.38825 -52.998218,78.09221 -52.998218,128.13138 0,50.03919 17.659367,92.74238 52.998218,128.13062 35.33883,35.38825 77.98318,53.07308 127.9525,53.07308 49.96932,0 92.61288,-17.68483 127.95173,-53.07308 35.33884,-35.38824 52.99898,-78.09143 52.99898,-128.13062 0,-50.03917 -17.66674,-92.74974 -52.99898,-128.13138 C 348.31765,92.492785 305.67409,74.808728 255.70477,74.808728 Z"
     id="path3"
     inkscape:connector-curvature="0" />
  <path
     style="fill:#0fa15f;fill-opacity:1;stroke:#006642;stroke-width:12.90918827;stroke-linecap:round;stroke-linejoin:round;stroke-opacity:1"
     d="m 255.69928,77.449778 c -0.28295,0 -0.56455,0.0032 -0.84702,0.0044 C 133.28265,193.04946 131.80821,312.0664 250.43042,434.50448 c 1.74736,0.0449 3.50294,0.0697 5.26886,0.0697 l 0,-357.124505 z"
     id="path8"
     inkscape:connector-curvature="0" />
  <path
     style="fill:#0fa15f;fill-opacity:1;stroke:#006642;stroke-width:12.90918827;stroke-linecap:round;stroke-linejoin:round;stroke-opacity:1"
     d="m 255.69928,77.449778 0,357.124512 c 1.6992,0 3.38898,-0.0231 5.07099,-0.0646 C 379.3509,312.065 377.84558,193.04576 256.25284,77.45273 c -0.18472,-3.95e-4 -0.36864,-0.0028 -0.55356,-0.0028 z"
     id="path12"
     inkscape:connector-curvature="0" />
  <g
     style="fill:#ffc831;fill-opacity:1"
     id="shape16"
     transform="matrix(0.39595342,0,0,0.39650699,46.571066,47.033279)">
    <path
       id="path15"
       d="m 686.85,133.525 c -6.70333,7.81133 -9.67,16.828 -8.9,27.05 l 0,0.025 C 693,354.9 648.65,497.45 544.9,588.25 436.7,678.55 318.61864,720.10073 87.618641,705.85073 97.58533,730.92771 110.02231,754.16928 123.78855,776.4232 378.46536,772.16906 474.3,748.4 593.2,644.8 716.5,541.65 769.5,378.35 752.15,154.85 c -0.8,-10.2 -5.1,-18.65 -12.9,-25.35 -7.85,-6.7 -16.85,-9.65 -27.05,-8.85 -10.2,0.75 -18.65,5.05 -25.35,12.9"
       inkscape:connector-curvature="0"
       style="fill:#ffc831;fill-opacity:1"
       sodipodi:nodetypes="ccccccccccc" />
  </g>
  <path
     style="fill:#f9de69;fill-opacity:1;stroke-width:0.47432807"
     d="m 314.62217,77.194744 0,187.213246 -40.30759,-40.37401 c -2.87067,-2.87467 -6.35537,-4.32208 -10.41389,-4.32208 -4.05852,0 -7.54321,1.44741 -10.41388,4.32208 -2.87066,2.87468 -4.31528,6.36348 -4.31528,10.42767 0,4.0642 1.44462,7.55377 4.31528,10.42844 l 65.4514,65.56228 c 2.87067,2.87468 6.35538,4.32208 10.41389,4.32208 0.25737,0 0.53454,-3.1e-4 0.79191,-0.0201 3.72196,-0.17843 6.92872,-1.60571 9.6212,-4.30195 l 65.47075,-65.56227 c 2.87066,-2.91433 4.31605,-6.38361 4.31605,-10.4478 -0.0198,-4.0642 -1.46473,-7.53363 -4.33539,-10.40831 -2.89046,-2.87467 -6.35536,-4.32178 -10.41388,-4.30195 -4.05852,0 -7.52312,1.42728 -10.39378,4.30195 l -40.3277,40.38408 0,-175.121948 c -9.44575,-5.008776 -19.30122,-8.771353 -29.45909,-12.101369 z"
     id="path16"
     inkscape:connector-curvature="0"
     sodipodi:nodetypes="cccsssccscsccccsccc" />
</svg>
