<?xml version="1.0" encoding="UTF-8" standalone="no"?>
<!-- Created with Inkscape (http://www.inkscape.org/) -->

<svg
   xmlns:dc="http://purl.org/dc/elements/1.1/"
   xmlns:cc="http://creativecommons.org/ns#"
   xmlns:rdf="http://www.w3.org/1999/02/22-rdf-syntax-ns#"
   xmlns:svg="http://www.w3.org/2000/svg"
   xmlns="http://www.w3.org/2000/svg"
   xmlns:sodipodi="http://sodipodi.sourceforge.net/DTD/sodipodi-0.dtd"
   xmlns:inkscape="http://www.inkscape.org/namespaces/inkscape"
   version="1.1"
   width="100%"
   height="100%"
   viewBox="0 0 512 512"
   id="svg2"
   inkscape:version="0.91 r13725"
   sodipodi:docname="jokosher.svg">
  <sodipodi:namedview
     pagecolor="#ffffff"
     bordercolor="#666666"
     borderopacity="1"
     objecttolerance="10"
     gridtolerance="10"
     guidetolerance="10"
     inkscape:pageopacity="0"
     inkscape:pageshadow="2"
     inkscape:window-width="1366"
     inkscape:window-height="701"
     id="namedview41"
     showgrid="false"
     inkscape:zoom="0.4609375"
     inkscape:cx="-187.66102"
     inkscape:cy="256"
     inkscape:window-x="0"
     inkscape:window-y="27"
     inkscape:window-maximized="1"
     inkscape:current-layer="svg2" />
  <metadata
     id="metadata93">
    <rdf:RDF>
      <cc:Work
         rdf:about="">
        <dc:format>image/svg+xml</dc:format>
        <dc:type
           rdf:resource="http://purl.org/dc/dcmitype/StillImage" />
      </cc:Work>
    </rdf:RDF>
  </metadata>
  <defs
     id="defs4">
    <radialGradient
       cx="256"
       cy="256"
       r="226.38"
       id="0"
       gradientUnits="userSpaceOnUse"
       gradientTransform="matrix(1.6144464,0,0,1.6144464,-153.31004,-153.31618)">
      <stop
         id="stop21"
         style="stop-color:#d45500;stop-opacity:0.34400001"
         offset="0" />
      <stop
         id="stop23"
         style="stop-color:#e65c00;stop-opacity:1"
         offset="1" />
    </radialGradient>
    <clipPath
       clipPathUnits="userSpaceOnUse"
       id="clipPath4175">
      <rect
         style="fill:#2980b9;fill-opacity:1;fill-rule:evenodd;stroke:#ffffff;stroke-width:30.9917984;stroke-linecap:butt;stroke-linejoin:miter;stroke-miterlimit:4;stroke-dasharray:none;stroke-opacity:1"
         id="rect4177"
         width="462.39801"
         height="462.39804"
         x="24.800995"
         y="24.80098"
         ry="50.989616" />
    </clipPath>
  </defs>
  <rect
     style="fill:#bf640e;fill-opacity:1;fill-rule:evenodd;stroke:none;stroke-width:31.53689766;stroke-linecap:butt;stroke-linejoin:miter;stroke-miterlimit:4;stroke-dasharray:none;stroke-opacity:1"
     id="rect3005"
     width="479.2088"
     height="479.20886"
     x="16.395576"
     y="16.395561"
     ry="52.843384" />
  <g
     id="g4171"
     clip-path="url(#clipPath4175)"
     transform="matrix(0.94039644,0,0,0.94039644,15.25851,15.25851)">
    <path
       style="fill:#f68f1b;fill-rule:evenodd"
       id="path25"
       inkscape:connector-curvature="0"
       d="m 608.62796,255.21949 c 0,195.18657 -158.23188,353.41847 -353.41847,353.41847 -195.18657,0 -353.418473,-158.2319 -353.418473,-353.41847 0,-195.186585 158.231903,-353.418473 353.418473,-353.418473 195.18659,0 353.41847,158.231888 353.41847,353.418473" />
    <path
       style="opacity:0.5;fill:url(#0)"
       id="path27"
       inkscape:connector-curvature="0"
       d="m 186.88612,-91.563608 c -44.48446,8.711553 -85.93699,25.737507 -122.746366,49.442423 L 248.28352,248.28545 -40.896134,62.268917 C -64.860978,98.971744 -82.163,140.40813 -91.137708,184.86675 l 335.659568,75.12181 -334.141988,72.69852 c 9.783545,43.73536 27.623179,84.41941 51.969032,120.37313 L 248.3158,271.69331 66.642147,554.12457 c 36.205573,22.89607 76.815353,39.36342 120.324693,47.87802 l 73.05371,-326.52181 70.68207,325.05267 c 42.76992,-9.30406 82.65966,-26.34455 118.11291,-49.59419 l -177.08864,-279.2508 278.03997,178.8968 c 23.50797,-35.36606 40.79706,-75.18799 50.35459,-117.95145 l -324.6006,-72.6501 326.92541,-71.08408 C 594.18352,145.39838 577.9551,104.69011 555.32057,68.429651 L 271.72689,248.29512 454.8697,-36.396357 C 419.01285,-60.984376 378.40952,-79.177574 334.6903,-89.219431 L 260.02216,244.51894 186.92002,-91.544234" />
  </g>
  <text
     x="729.64001"
     y="231.36"
     id="text43"
     style="font-size:129.22999573px;line-height:125%;letter-spacing:0;word-spacing:0;font-family:Gentium Book Basic">
    <tspan
       x="729.64001"
       y="231.36"
       id="tspan45" />
  </text>
  <text
     x="378.91"
     y="579.26001"
     transform="scale(4.0128,0.2492)"
     id="text47"
     style="font-size:46.95399857px;text-anchor:middle;font-family:Arial" />
  <text
     x="1310.91"
     y="151.36"
     id="text49"
     style="font-size:129.22999573px;line-height:125%;letter-spacing:0;word-spacing:0;font-family:Gentium Book Basic">
    <tspan
       x="1310.91"
       y="151.36"
       id="tspan51" />
  </text>
  <text
     x="523.76001"
     y="258.22"
     transform="scale(4.0128,0.2492)"
     id="text53"
     style="font-size:46.95399857px;text-anchor:middle;font-family:Arial" />
  <text
     x="239.33"
     y="-29.9"
     id="text55"
     style="font-size:129.22999573px;line-height:125%;letter-spacing:0;word-spacing:0;font-family:Gentium Book Basic">
    <tspan
       x="239.33"
       y="-29.9"
       id="tspan57" />
  </text>
  <text
     x="256.72"
     y="-469.13"
     transform="scale(4.0128,0.2492)"
     id="text59"
     style="font-size:46.95399857px;text-anchor:middle;font-family:Arial" />
  <text
     x="1337.38"
     y="-246.37"
     id="text61"
     style="font-size:129.22999573px;line-height:125%;letter-spacing:0;word-spacing:0;font-family:Gentium Book Basic">
    <tspan
       x="1337.38"
       y="-246.37"
       id="tspan63" />
  </text>
  <text
     x="530.35999"
     y="-1337.8"
     transform="scale(4.0128,0.2492)"
     id="text65"
     style="font-size:46.95399857px;text-anchor:middle;font-family:Arial" />
  <text
     x="1918.65"
     y="-326.37"
     id="text67"
     style="font-size:129.22999573px;line-height:125%;letter-spacing:0;word-spacing:0;font-family:Gentium Book Basic">
    <tspan
       x="1918.65"
       y="-326.37"
       id="tspan69" />
  </text>
  <text
     x="675.21002"
     y="-1658.83"
     transform="scale(4.0128,0.2492)"
     id="text71"
     style="font-size:46.95399857px;text-anchor:middle;font-family:Arial" />
  <text
     x="1529.53"
     y="-798.77002"
     id="text73"
     style="font-size:129.22999573px;line-height:125%;letter-spacing:0;word-spacing:0;font-family:Gentium Book Basic">
    <tspan
       x="1529.53"
       y="-798.77002"
       id="tspan75" />
  </text>
  <text
     x="578.23999"
     y="-3554.48"
     transform="scale(4.0128,0.2492)"
     id="text77"
     style="font-size:46.95399857px;text-anchor:middle;font-family:Arial" />
  <text
     x="2110.79"
     y="-878.78003"
     id="text79"
     style="font-size:129.22999573px;line-height:125%;letter-spacing:0;word-spacing:0;font-family:Gentium Book Basic">
    <tspan
       x="2110.79"
       y="-878.78003"
       id="tspan81" />
  </text>
  <text
     x="723.09003"
     y="-3875.52"
     transform="scale(4.0128,0.2492)"
     id="text83"
     style="font-size:46.95399857px;text-anchor:middle;font-family:Arial" />
  <text
     x="277.98999"
     y="535.94"
     id="text85"
     style="font-size:208.33000183px;line-height:125%;letter-spacing:0;word-spacing:0;font-family:Gentium Book Basic">
    <tspan
       x="277.98999"
       y="535.94"
       id="tspan87" />
  </text>
  <path
     d="m 131.4766,416.54588 c -4.26963,0 -10.52055,-0.45722 -18.75499,-1.37277 -8.53924,-0.91444 -16.467742,-2.59203 -23.786631,-5.03167 l 9.148881,-55.35269 c 4.57443,1.52517 8.84627,2.59203 12.80776,3.20166 3.65999,0.60963 8.38685,0.91445 14.18054,0.91445 10.67407,0 18.14534,-3.20167 22.415,-9.60609 4.26958,-6.40445 6.40439,-15.70573 6.40439,-27.90828 l 0,-214.82855 68.15828,-15.263966 0,231.924726 c 0,31.71624 -7.77501,55.19807 -23.325,70.44545 -15.54999,15.24741 -37.96722,22.8722 -67.24381,22.8722"
     inkscape:connector-curvature="0"
     id="path89"
     style="fill:#ffffff" />
</svg>
