<?xml version="1.0" encoding="UTF-8" standalone="no"?>
<svg
   xmlns:dc="http://purl.org/dc/elements/1.1/"
   xmlns:cc="http://creativecommons.org/ns#"
   xmlns:rdf="http://www.w3.org/1999/02/22-rdf-syntax-ns#"
   xmlns:svg="http://www.w3.org/2000/svg"
   xmlns="http://www.w3.org/2000/svg"
   xmlns:sodipodi="http://sodipodi.sourceforge.net/DTD/sodipodi-0.dtd"
   xmlns:inkscape="http://www.inkscape.org/namespaces/inkscape"
   viewBox="0 0 128 128"
   id="svg2"
   version="1.1"
   inkscape:version="0.91 r13725"
   width="100%"
   height="100%"
   sodipodi:docname="preferences-system-hotcorners.svg">
  <metadata
     id="metadata69">
    <rdf:RDF>
      <cc:Work
         rdf:about="">
        <dc:format>image/svg+xml</dc:format>
        <dc:type
           rdf:resource="http://purl.org/dc/dcmitype/StillImage" />
        <dc:title />
      </cc:Work>
    </rdf:RDF>
  </metadata>
  <sodipodi:namedview
     pagecolor="#ffffff"
     bordercolor="#666666"
     borderopacity="1"
     objecttolerance="10"
     gridtolerance="10"
     guidetolerance="10"
     inkscape:pageopacity="0"
     inkscape:pageshadow="2"
     inkscape:window-width="1366"
     inkscape:window-height="701"
     id="namedview67"
     showgrid="false"
     inkscape:zoom="1.7383042"
     inkscape:cx="112.94657"
     inkscape:cy="123.86415"
     inkscape:window-x="0"
     inkscape:window-y="27"
     inkscape:window-maximized="1"
     inkscape:current-layer="svg2" />
  <defs
     id="defs4">
    <linearGradient
       id="linearGradient3764"
       x1="1"
       x2="47"
       gradientUnits="userSpaceOnUse"
       gradientTransform="matrix(0,-1,1,0,-1.5e-6,47.999998)">
      <stop
         stop-color="#e4e4e4"
         stop-opacity="1"
         id="stop7" />
      <stop
         offset="1"
         stop-color="#eee"
         stop-opacity="1"
         id="stop9" />
    </linearGradient>
    <clipPath
       id="clipPath-365326813">
      <g
         transform="translate(0,-1004.3622)"
         id="g12">
        <path
           d="m -24,13 c 0,1.105 -0.672,2 -1.5,2 -0.828,0 -1.5,-0.895 -1.5,-2 0,-1.105 0.672,-2 1.5,-2 0.828,0 1.5,0.895 1.5,2 z"
           transform="matrix(15.333333,0,0,11.5,414.99999,878.8622)"
           id="path14"
           inkscape:connector-curvature="0"
           style="fill:#1890d0" />
      </g>
    </clipPath>
    <clipPath
       id="clipPath-370729992">
      <g
         transform="translate(0,-1004.3622)"
         id="g17">
        <path
           d="m -24,13 c 0,1.105 -0.672,2 -1.5,2 -0.828,0 -1.5,-0.895 -1.5,-2 0,-1.105 0.672,-2 1.5,-2 0.828,0 1.5,0.895 1.5,2 z"
           transform="matrix(15.333333,0,0,11.5,414.99999,878.8622)"
           id="path19"
           inkscape:connector-curvature="0"
           style="fill:#1890d0" />
      </g>
    </clipPath>
    <inkscape:perspective
       id="perspective3018"
       inkscape:persp3d-origin="256 : 170.66667 : 1"
       inkscape:vp_z="512 : 256 : 1"
       inkscape:vp_y="0 : 1000 : 0"
       inkscape:vp_x="0 : 256 : 1"
       sodipodi:type="inkscape:persp3d" />
  </defs>
  <g
     id="g33"
     transform="translate(0,80)" />
  <path
     style="fill:#6d6c6d;fill-opacity:1;fill-rule:nonzero;stroke:none"
     d=""
     id="path3775"
     inkscape:connector-curvature="0" />
  <g
     id="g2996"
     transform="matrix(0.47571544,0,0,0.47571544,-274.08864,-7.111237)" />
  <g
     id="g4158">
    <rect
       ry="13.682682"
       rx="13.682682"
       y="7.966156"
       x="7.966156"
       height="112.06769"
       width="112.06769"
       id="rect4136"
       style="opacity:1;fill:#ececec;fill-opacity:1;stroke:#00aad4;stroke-width:6.8413415;stroke-miterlimit:4;stroke-dasharray:none;stroke-opacity:1" />
    <g
       id="g4168"
       transform="matrix(0.23238167,0,0,0.23238167,4.5102908,5.3236289)">
      <path
         inkscape:connector-curvature="0"
         id="path4160"
         d="M 221.34955,416.70513 166,453 l 179.88602,0 -55.34955,-36.29487 z"
         style="fill:#808080;fill-opacity:1;fill-rule:evenodd;stroke:none;stroke-width:1.38373864px;stroke-linecap:butt;stroke-linejoin:miter;stroke-opacity:1" />
      <path
         style="fill:#808080;fill-opacity:1;fill-rule:evenodd;stroke:none;stroke-width:1.38373864px;stroke-linecap:butt;stroke-linejoin:miter;stroke-opacity:1"
         d="M 221.34955,405.70513 166,442 l 179.88602,0 -55.34955,-36.29487 z"
         id="path4158"
         inkscape:connector-curvature="0" />
      <rect
         style="opacity:1;fill:#4d4d4d;fill-opacity:1;stroke:none;stroke-width:21.72100067;stroke-miterlimit:4;stroke-dasharray:none;stroke-opacity:1"
         id="rect4154"
         width="76.992477"
         height="85.653557"
         x="217.50375"
         y="339.05157"
         ry="0"
         rx="0" />
      <g
         id="g4150"
         transform="matrix(1.2073957,0,0,1.1527146,-22.881164,-79.531819)">
        <rect
           y="114.10615"
           x="52.704906"
           height="272.23883"
           width="356.54507"
           id="rect4477"
           style="opacity:1;fill:#808080;fill-opacity:1"
           ry="20.072674" />
        <rect
           style="opacity:1;fill:#00aad4;fill-opacity:1"
           id="rect4479"
           width="289.80264"
           height="221.27786"
           x="86.076118"
           y="139.58664" />
      </g>
      <path
         style="fill:#000000;fill-opacity:1;fill-rule:evenodd;stroke:none;stroke-width:1px;stroke-linecap:butt;stroke-linejoin:miter;stroke-opacity:1"
         d="m 166,442 0,11 180,0 0,-11 z"
         id="path4162"
         inkscape:connector-curvature="0" />
      <path
         style="fill:#ffffff;fill-opacity:1;stroke:none;stroke-width:4.16897917"
         d="m 293.76712,290.67362 -19.80777,0 0,21.05905 19.80777,0 0,-21.05905 z m -29.71164,0 -19.80777,0 0,21.05905 19.80777,0 0,-21.05905 z m -29.71164,0 -19.80778,0 0,21.05905 19.80778,0 0,-21.05905 z"
         id="rect3369"
         inkscape:connector-curvature="0" />
      <path
         style="fill:#333333;fill-opacity:1;fill-rule:evenodd;stroke:none;stroke-width:1px;stroke-linecap:butt;stroke-linejoin:miter;stroke-opacity:1"
         d="m 80,82 0,20 350,0 0,-20 z"
         id="path4164"
         inkscape:connector-curvature="0" />
    </g>
    <path
       inkscape:connector-curvature="0"
       id="path4174"
       d="m 82.946167,33.141576 18.719263,0 0,14.294713 z"
       style="fill:#333333;fill-opacity:1;fill-rule:evenodd;stroke:none;stroke-width:1px;stroke-linecap:butt;stroke-linejoin:miter;stroke-opacity:1" />
    <path
       inkscape:connector-curvature="0"
       id="path4178"
       d="m 46.443605,80.90406 -18.719264,0 0,-14.294713 z"
       style="fill:#333333;fill-rule:evenodd;stroke:none;stroke-width:1px;stroke-linecap:butt;stroke-linejoin:miter;stroke-opacity:1" />
  </g>
</svg>
