<?xml version="1.0" encoding="UTF-8" standalone="no"?>
<svg
   xmlns:dc="http://purl.org/dc/elements/1.1/"
   xmlns:cc="http://creativecommons.org/ns#"
   xmlns:rdf="http://www.w3.org/1999/02/22-rdf-syntax-ns#"
   xmlns:svg="http://www.w3.org/2000/svg"
   xmlns="http://www.w3.org/2000/svg"
   xmlns:sodipodi="http://sodipodi.sourceforge.net/DTD/sodipodi-0.dtd"
   xmlns:inkscape="http://www.inkscape.org/namespaces/inkscape"
   viewBox="0 0 128 128"
   id="svg2"
   version="1.1"
   inkscape:version="0.91 r13725"
   width="100%"
   height="100%"
   sodipodi:docname="putty.svg">
  <metadata
     id="metadata69">
    <rdf:RDF>
      <cc:Work
         rdf:about="">
        <dc:format>image/svg+xml</dc:format>
        <dc:type
           rdf:resource="http://purl.org/dc/dcmitype/StillImage" />
        <dc:title />
      </cc:Work>
    </rdf:RDF>
  </metadata>
  <sodipodi:namedview
     pagecolor="#ffffff"
     bordercolor="#666666"
     borderopacity="1"
     objecttolerance="10"
     gridtolerance="10"
     guidetolerance="10"
     inkscape:pageopacity="0"
     inkscape:pageshadow="2"
     inkscape:window-width="1066"
     inkscape:window-height="612"
     id="namedview67"
     showgrid="false"
     fit-margin-top="0"
     fit-margin-left="0"
     fit-margin-right="0"
     fit-margin-bottom="0"
     inkscape:zoom="1.7383041"
     inkscape:cx="40.356663"
     inkscape:cy="44.650069"
     inkscape:window-x="157"
     inkscape:window-y="87"
     inkscape:window-maximized="0"
     inkscape:current-layer="svg2" />
  <defs
     id="defs4">
    <linearGradient
       id="linearGradient3764"
       x1="1"
       x2="47"
       gradientUnits="userSpaceOnUse"
       gradientTransform="matrix(0,-1,1,0,-1.5e-6,47.999998)">
      <stop
         stop-color="#e4e4e4"
         stop-opacity="1"
         id="stop7" />
      <stop
         offset="1"
         stop-color="#eee"
         stop-opacity="1"
         id="stop9" />
    </linearGradient>
    <clipPath
       id="clipPath-439865942">
      <g
         transform="translate(0,-1004.3622)"
         id="g12">
        <path
           d="m -24,13 c 0,1.105 -0.672,2 -1.5,2 -0.828,0 -1.5,-0.895 -1.5,-2 0,-1.105 0.672,-2 1.5,-2 0.828,0 1.5,0.895 1.5,2 z"
           transform="matrix(15.333333,0,0,11.5,414.99999,878.8622)"
           id="path14"
           inkscape:connector-curvature="0"
           style="fill:#1890d0" />
      </g>
    </clipPath>
    <clipPath
       id="clipPath-445363359">
      <g
         transform="translate(0,-1004.3622)"
         id="g17">
        <path
           d="m -24,13 c 0,1.105 -0.672,2 -1.5,2 -0.828,0 -1.5,-0.895 -1.5,-2 0,-1.105 0.672,-2 1.5,-2 0.828,0 1.5,0.895 1.5,2 z"
           transform="matrix(15.333333,0,0,11.5,414.99999,878.8622)"
           id="path19"
           inkscape:connector-curvature="0"
           style="fill:#1890d0" />
      </g>
    </clipPath>
  </defs>
  <rect
     style="opacity:1;fill:#ececec;fill-opacity:1;stroke:#00aad4;stroke-width:7.10612488;stroke-miterlimit:4;stroke-dasharray:none;stroke-opacity:1"
     id="rect4136"
     width="116.40509"
     height="116.40509"
     x="5.7974544"
     y="5.7974544"
     rx="14.212249"
     ry="14.212249" />
  <g
     id="g33"
     transform="translate(-1.4406293,84.676971)" />
  <rect
     style="fill:#c0274b;fill-opacity:1;stroke:none"
     id="rect907"
     width="72.117142"
     height="54.627083"
     x="13.626138"
     y="28.711138" />
  <rect
     y="28.711138"
     x="13.626138"
     height="6.4267182"
     width="72.117119"
     id="rect920"
     style="fill:#37353a;fill-opacity:1;stroke:none" />
  <rect
     style="fill:none;stroke:none"
     id="rect914"
     width="7.9085541"
     height="5.7123504"
     x="20.182232"
     y="41.564526" />
  <rect
     style="fill:#ffffff;fill-opacity:1;stroke:none"
     id="rect825"
     width="3.924345"
     height="3.8468971"
     x="68.06041"
     y="30.000938" />
  <rect
     y="30.000938"
     x="75.262802"
     height="3.8468971"
     width="3.924345"
     id="rect827"
     style="fill:#ffffff;fill-opacity:1;stroke:none" />
  <ellipse
     style="fill:none;stroke:none"
     id="path3303"
     cx="82.462929"
     cy="31.924686"
     rx="3.2803235"
     ry="3.2134581" />
  <ellipse
     id="path3305"
     style="fill:none;stroke:none"
     cx="73.622643"
     cy="31.924686"
     rx="1.6401618"
     ry="1.606729" />
  <ellipse
     style="fill:none;stroke:none"
     id="path3307"
     cx="66.420242"
     cy="31.924686"
     rx="1.6401618"
     ry="1.606729" />
  <rect
     y="30.000938"
     x="60.858009"
     height="3.8468971"
     width="3.924345"
     id="rect3309"
     style="fill:#ffffff;fill-opacity:1;stroke:none" />
  <path
     d="m 27.500001,1007.8622 a 3.502425,3.5001078 0 1 1 -7.00485,0 3.502425,3.5001078 0 1 1 7.00485,0 z"
     sodipodi:ry="3.5001078"
     sodipodi:rx="3.502425"
     sodipodi:cy="1007.8622"
     sodipodi:cx="23.997576"
     id="path3313"
     style="fill:none;stroke:none"
     sodipodi:type="arc"
     transform="matrix(2.7062054,0,0,2.6527978,106.82784,-2668.8955)" />
  <ellipse
     style="fill:none;stroke:none"
     id="path3317"
     cx="87.381172"
     cy="56.024879"
     rx="1.6401618"
     ry="1.606729" />
  <rect
     style="fill:#2980b9;fill-opacity:1;stroke:none"
     id="rect907-7"
     width="72.117142"
     height="54.627083"
     x="39.836201"
     y="52.811108" />
  <rect
     y="52.811108"
     x="39.836201"
     height="6.4267182"
     width="72.117119"
     id="rect920-2"
     style="fill:#37353a;fill-opacity:1;stroke:none" />
  <rect
     style="fill:none;stroke:none"
     id="rect914-9"
     width="7.9085541"
     height="5.7123504"
     x="46.392307"
     y="65.664497" />
  <ellipse
     style="fill:none;stroke:none"
     id="path3290-8"
     cx="43.11198"
     cy="74.198463"
     rx="3.2803235"
     ry="3.2134581" />
  <ellipse
     id="path3292-9"
     style="fill:none;stroke:none"
     cx="43.11198"
     cy="62.451389"
     rx="3.2803235"
     ry="3.2134581" />
  <ellipse
     style="fill:none;stroke:none"
     id="path3294-5"
     cx="50.345448"
     cy="73.698143"
     rx="1.6401618"
     ry="1.606729" />
  <ellipse
     id="path3296-1"
     style="fill:none;stroke:none"
     cx="50.345448"
     cy="83.338219"
     rx="1.6401618"
     ry="1.606729" />
  <rect
     style="fill:#ffffff;fill-opacity:1;stroke:none"
     id="rect825-5"
     width="3.924345"
     height="3.8468971"
     x="94.270454"
     y="54.10091" />
  <rect
     y="54.10091"
     x="101.47285"
     height="3.8468971"
     width="3.924345"
     id="rect827-8"
     style="fill:#ffffff;fill-opacity:1;stroke:none" />
  <ellipse
     style="fill:none;stroke:none"
     id="path3303-0"
     cx="108.673"
     cy="56.02467"
     rx="3.2803235"
     ry="3.2134581" />
  <ellipse
     id="path3305-6"
     style="fill:none;stroke:none"
     cx="99.832703"
     cy="56.02467"
     rx="1.6401618"
     ry="1.606729" />
  <ellipse
     style="fill:none;stroke:none"
     id="path3307-6"
     cx="92.63031"
     cy="56.02467"
     rx="1.6401618"
     ry="1.606729" />
  <rect
     y="54.10091"
     x="87.068069"
     height="3.8468971"
     width="3.924345"
     id="rect3309-5"
     style="fill:#ffffff;fill-opacity:1;stroke:none" />
  <ellipse
     id="path3315-9"
     style="fill:none;stroke:none"
     cx="38.196037"
     cy="80.124863"
     rx="1.6401618"
     ry="1.606729" />
  <ellipse
     style="fill:none;stroke:none"
     id="path3317-2"
     cx="113.59123"
     cy="80.124863"
     rx="1.6401618"
     ry="1.606729" />
  <path
     style="fill:#ffcc00;fill-opacity:1;fill-rule:evenodd;stroke:none"
     inkscape:connector-curvature="0"
     id="path61"
     d="m 54.519782,32.161831 19.356331,40.577486 c -9.127821,-0.689462 -8.992085,-0.737109 -9.427524,-0.79633 -0.629862,-0.08566 -1.130915,-0.156642 -2.204339,-0.241949 L 70.029119,101.37762 45.993962,56.588 58.64851,57.937778 54.518597,32.178591"
     sodipodi:nodetypes="ccsccccc" />
</svg>
