<?xml version="1.0" encoding="UTF-8" standalone="no"?>
<!-- Generator: flash2svg, http://dissentgraphics.com/tools/flash2svg -->

<svg
   xmlns:dc="http://purl.org/dc/elements/1.1/"
   xmlns:cc="http://creativecommons.org/ns#"
   xmlns:rdf="http://www.w3.org/1999/02/22-rdf-syntax-ns#"
   xmlns:svg="http://www.w3.org/2000/svg"
   xmlns="http://www.w3.org/2000/svg"
   xmlns:sodipodi="http://sodipodi.sourceforge.net/DTD/sodipodi-0.dtd"
   xmlns:inkscape="http://www.inkscape.org/namespaces/inkscape"
   id="Byword"
   image-rendering="optimizeSpeed"
   version="1.1"
   style="background-color:#ffffff"
   x="0px"
   y="0px"
   width="1024px"
   height="1024px"
   viewBox="0 0 1024 1024"
   enable-background="new 0 0 1024 1024"
   inkscape:version="0.91 r"
   sodipodi:docname="scribus.svg">
  <metadata
     id="metadata37">
    <rdf:RDF>
      <cc:Work
         rdf:about="">
        <dc:format>image/svg+xml</dc:format>
        <dc:type
           rdf:resource="http://purl.org/dc/dcmitype/StillImage" />
      </cc:Work>
    </rdf:RDF>
  </metadata>
  <sodipodi:namedview
     pagecolor="#ffffff"
     bordercolor="#666666"
     borderopacity="1"
     objecttolerance="10"
     gridtolerance="10"
     guidetolerance="10"
     inkscape:pageopacity="0"
     inkscape:pageshadow="2"
     inkscape:window-width="1366"
     inkscape:window-height="712"
     id="namedview35"
     showgrid="false"
     inkscape:zoom="0.23046875"
     inkscape:cx="512"
     inkscape:cy="512"
     inkscape:window-x="0"
     inkscape:window-y="29"
     inkscape:window-maximized="1"
     inkscape:current-layer="Byword" />
  <defs
     transform="matrix(1 0 0 1 0 0) "
     id="defs3" />
  <rect
     style="opacity:1;fill:#999999;fill-opacity:1;stroke:#313647;stroke-width:55.859272;stroke-miterlimit:4;stroke-dasharray:none;stroke-opacity:1"
     id="rect4136"
     width="915.02802"
     height="915.02802"
     x="54.48597"
     y="54.48597"
     rx="111.71854"
     ry="111.71854" />
  <mask
     id="circle2">
    <g
       id="g">
      <g
         id="shape29">
        <path
           id="path20"
           fill="#FFFFFF"
           fill-opacity="1"
           d="M969.75,392.05 C968.65,387.7 967.4,383.05 966.1,378.45 963.6,369.7 960.75,360.85 957.65,352.1 951.2,333.85 943.5,316.05 934.5,298.45 930.7,291.05 926.55,283.5 922.2,276.05 901.9,241.55 876.4,208.85 845.85,178.3 773.25,105.7 688.7,61.65 592.2,46.25 575.95,43.65 559.4,41.85 542.15,40.9 532.45,40.35 522.3,40.05 512.05,40.05 502.7,40.05 493.45,40.3 484.15,40.8 365.8,46.9 263.85,92.75 178.3,178.3 Q40.05,316.55 40.05,512.05 C40.05,642.4 86.15,753.7 178.3,845.85 248.7,916.2 330.2,959.7 422.25,976.25 442.7,979.9 463.15,982.25 484.15,983.35 484.3,983.35 484.4,983.35 484.55,983.35 493.05,983.8 501.15,984.05 509.05,984.05 510.25,984.05 511.15,984.05 512.05,984.05 522.35,984.05 532.55,983.75 542.15,983.25 544.65,983.1 546.9,982.95 549.1,982.8 569.3,981.35 589,978.75 607.8,975.1 615.75,973.55 623.6,971.8 631.2,969.95 712,949.65 783.35,908.35 845.85,845.85 894.45,797.25 930.25,743.35 953.2,684.05 971.65,636.4 981.85,585.25 983.75,530.55 983.95,524.5 984.05,518.3 984.05,512.05 984.05,511.4 984.05,510.7 984.05,510.05 984.05,509.7 984.05,509.4 984.05,509.05 983.95,489.15 982.8,469.7 980.5,450.5 978.1,430.7 974.55,411.2 969.75,392.05z" />
      </g>
    </g>
  </mask>
  <g
     id="masked"
     mask="url(#circle2)"
     transform="matrix(0.86644739,0,0,0.86644739,91.565764,89.122428)">
    <g
       id="Calque.__208">
      <g
         id="shape12">
        <path
           id="path9"
           d="m 22.15,372.325 31.6,-32.175 -75.75,0 -64.375,65.525 0.025,0.025 c -4.7,4.75 -7.25,10.5 -7.7,17.15 -0.45,6.65 1.3,12.6 5.35,17.95 4,5.35 9.25,8.75 15.75,10.2 6.5,1.45 12.7,0.6 18.6,-2.55 58.3,-29.85 133.55,-28.7 225.75,3.35 l 0,-0.025 -103.025,109.45 0.025,0.025 c -4.8,5.1 -7.25,11.15 -7.35,18.1 -0.1,6.95 2.2,13.1 6.85,18.35 4.65,5.25 10.5,8.2 17.45,8.95 160.85,16.25 297.15,76.5 408.8,180.65 5.45,5.05 11.9,7.5 19.35,7.25 7.45,-0.25 13.7,-3.1 18.8,-8.55 5.1,-5.45 7.55,-11.9 7.3,-19.35 -0.25,-7.45 -3.1,-13.7 -8.55,-18.85 C 423.3,647.05 294.25,584.4 143.9,559.85 l 94.475,-100.375 0.025,0.025 c 4.1,-4.4 6.5,-9.6 7.15,-15.55 C 246.2,438 245.05,432.4 242,427.25 238.95,422.1 234.65,418.35 229.1,416 150.65,383.4 81.65,368.85 22.15,372.35"
           inkscape:connector-curvature="0"
           style="fill:#333333;fill-opacity:1" />
      </g>
    </g>
    <g
       id="Calque.__209">
      <g
         id="shape16">
        <path
           id="path11"
           d="m 808.05,-114.7 q -14.55,-6.7 -21.25,7.85 l -169.1,366.9 c -4.45,9.7 -1.85,16.8 7.85,21.25 l 192.5,88.75 c 5.9,2.7 10.85,2.8 14.85,0.3 l -108.5,-50.05 180,-390.6 -96.35,-44.4 z"
           inkscape:connector-curvature="0"
           style="fill:#333333;fill-opacity:1" />
        <path
           id="path12"
           d="m 1008.4,-4.7 c 4.45,-9.65 1.85,-16.8 -7.85,-21.25 l -96.15,-44.35 -180,390.6 108.5,50.05 c 2.5,-1.7 4.65,-4.35 6.4,-8.15 L 1008.4,-4.7 Z"
           inkscape:connector-curvature="0"
           style="fill:#000000;fill-opacity:1" />
      </g>
    </g>
    <g
       id="Calque.__210">
      <g
         id="shape20">
        <path
           id="path13"
           d="m 901.45,291.75 c 4.5,-9.65 1.85,-16.75 -7.8,-21.2 L 772.85,214.9 667.4,443.75 l 107.75,49.65 13.05,6 c 9.65,4.45 16.75,1.85 21.2,-7.8 l 92.05,-199.85 z"
           inkscape:connector-curvature="0"
           style="fill:#333333;fill-opacity:1" />
        <path
           id="path14"
           d="m 772.85,214.9 -120.8,-55.7 c -9.65,-4.45 -16.7,-1.85 -21.2,7.8 L 538.8,366.85 c -4.45,9.65 -1.85,16.75 7.8,21.2 l 13.1,6.05 107.7,49.65 105.45,-228.85 z"
           inkscape:connector-curvature="0"
           style="fill:#555555;fill-opacity:1" />
        <path
           id="path15"
           d="M 775.15,493.4 667.4,443.75 625.55,534.6 c 14.6,6.7 24.6,17.5 30.15,32.5 5.55,15.1 5,29.85 -1.7,44.4 -6.75,14.6 -17.6,24.65 -32.65,30.15 -15.05,5.55 -29.75,5 -44.35,-1.7 l -72.8,158 c 9.9,4.55 19.95,4.95 30.2,1.1 10.25,-3.7 17.6,-10.55 22.15,-20.45 4.55,-9.9 5,-19.95 1.2,-30.25 -0.55,-1.45 -1.1,-2.8 -1.9,-4.35 l 169.1,-140.45 c 1.75,-1.4 3.45,-2.85 5.1,-4.3 13.65,-11.95 24.45,-26.75 32.6,-44.45 q 14.05,-30.4 12.5,-61.4 z"
           inkscape:connector-curvature="0"
           style="fill:#c3c24b;fill-opacity:1" />
        <path
           id="path19"
           d="m 508.45,498.2 c 0,0.2 0,0.4 0.05,0.55 -0.05,0.6 0,1.15 0,1.8 l 1.05,223.6 c -0.8,0.25 -1.65,0.5 -2.55,0.85 -10.25,3.8 -17.6,10.65 -22.15,20.55 -4.55,9.9 -5,19.95 -1.2,30.15 3.8,10.3 10.65,17.65 20.55,22.25 l 72.8,-158 c -14.6,-6.75 -24.6,-17.6 -30.2,-32.65 -5.5,-15 -4.95,-29.75 1.8,-44.35 6.7,-14.55 17.55,-24.6 32.55,-30.2 15.1,-5.5 29.8,-4.9 44.4,1.85 L 667.4,443.75 559.7,394.1 c -16.45,12.65 -29.3,29.1 -38.65,49.35 -8.35,18.15 -12.55,36.35 -12.6,54.75 z"
           inkscape:connector-curvature="0"
           style="fill:#ede667;fill-opacity:1" />
      </g>
    </g>
  </g>
</svg>
