<?xml version="1.0" encoding="UTF-8" standalone="no"?>
<svg
   xmlns:dc="http://purl.org/dc/elements/1.1/"
   xmlns:cc="http://creativecommons.org/ns#"
   xmlns:rdf="http://www.w3.org/1999/02/22-rdf-syntax-ns#"
   xmlns:svg="http://www.w3.org/2000/svg"
   xmlns="http://www.w3.org/2000/svg"
   xmlns:sodipodi="http://sodipodi.sourceforge.net/DTD/sodipodi-0.dtd"
   xmlns:inkscape="http://www.inkscape.org/namespaces/inkscape"
   viewBox="0 0 48 48"
   id="svg2"
   version="1.1"
   inkscape:version="0.91 r13725"
   sodipodi:docname="yumex.svg">
  <metadata
     id="metadata67">
    <rdf:RDF>
      <cc:Work
         rdf:about="">
        <dc:format>image/svg+xml</dc:format>
        <dc:type
           rdf:resource="http://purl.org/dc/dcmitype/StillImage" />
      </cc:Work>
    </rdf:RDF>
  </metadata>
  <sodipodi:namedview
     pagecolor="#ffffff"
     bordercolor="#666666"
     borderopacity="1"
     objecttolerance="10"
     gridtolerance="10"
     guidetolerance="10"
     inkscape:pageopacity="0"
     inkscape:pageshadow="2"
     inkscape:window-width="1366"
     inkscape:window-height="677"
     id="namedview65"
     showgrid="false"
     inkscape:zoom="4.9166667"
     inkscape:cx="24"
     inkscape:cy="24"
     inkscape:window-x="0"
     inkscape:window-y="33"
     inkscape:window-maximized="1"
     inkscape:current-layer="svg2" />
  <defs
     id="defs4">
    <linearGradient
       id="linearGradient3764"
       x1="1"
       x2="47"
       gradientUnits="userSpaceOnUse"
       gradientTransform="translate(-48.000001,0.00221467)">
      <stop
         stop-color="#39cbc2"
         stop-opacity="1"
         id="stop7" />
      <stop
         offset="1"
         stop-color="#48cfc7"
         stop-opacity="1"
         id="stop9" />
    </linearGradient>
    <clipPath
       id="clipPath-131010295">
      <g
         transform="translate(0,-1004.3622)"
         id="g12">
        <rect
           rx="4"
           y="1005.36"
           x="1"
           height="46"
           width="46"
           fill="#1890d0"
           id="rect14" />
      </g>
    </clipPath>
    <clipPath
       id="clipPath-160003487">
      <g
         transform="translate(0,-1004.3622)"
         id="g17">
        <rect
           rx="4"
           y="1005.36"
           x="1"
           height="46"
           width="46"
           fill="#1890d0"
           id="rect19" />
      </g>
    </clipPath>
  </defs>
  <g
     id="g29">
    <rect
       width="46"
       height="46"
       x="-47"
       y="1"
       rx="4"
       transform="matrix(0,-1,1,0,0,0)"
       fill="url(#linearGradient3764)"
       fill-opacity="1"
       id="rect31" />
  </g>
  <g
     id="g33" />
  <g
     id="g4211"
     transform="matrix(0.79515189,0,0,0.79515189,6.4266062,4.7284867)">
    <path
       d="m 15.82802,4.8389837 c -0.529959,0 -0.948748,0.440339 -0.948748,0.979353 l 0,1.897496 c -0.947596,0.252475 -1.84948,0.635263 -2.677918,1.117074 l -1.361913,-1.34661 c -0.190572,-0.19057 -0.411385,-0.303958 -0.658002,-0.306048 -0.2466177,-0.0021 -0.5012427,0.08808 -0.6886077,0.275443 l -2.647313,2.6473133 c -0.374731,0.374735 -0.350494,0.96547 0.03061,1.34661 l 1.34661,1.361913 c -0.481809,0.828436 -0.864592,1.73032 -1.117075,2.677918 l -1.897496,0 c -0.539013,0 -0.979353,0.418792 -0.979353,0.948748 l 0,3.733782 c 0,0.529956 0.44034,0.948748 0.979353,0.948748 l 1.897496,0 c 0.252483,0.947599 0.635266,1.849482 1.117075,2.677918 l -1.34661,1.361913 c -0.381139,0.38114 -0.405376,0.971875 -0.03061,1.34661 l 2.647313,2.647313 c 0.374731,0.374735 0.9654717,0.350534 1.3466097,-0.0306 l 1.361913,-1.346611 c 0.828438,0.481812 1.730322,0.864599 2.677918,1.117075 l 0,1.897496 c 0,0.539013 0.41879,0.979353 0.948748,0.979353 l 3.733782,0 c 0.529954,0 0.948748,-0.44034 0.948748,-0.979353 l 0,-1.897496 c 0.947596,-0.252476 1.849478,-0.635263 2.677918,-1.117075 l 1.361913,1.346611 c 0.381139,0.381139 0.971874,0.40534 1.34661,0.0306 l 2.647313,-2.647313 c 0.374731,-0.374735 0.350494,-0.96547 -0.0306,-1.34661 l -1.346611,-1.361913 c 0.481809,-0.828436 0.864599,-1.730319 1.117075,-2.677918 l 1.897496,0 c 0.539008,0 0.979353,-0.418792 0.979353,-0.948748 l 0,-3.733782 c 0,-0.529955 -0.440345,-0.948748 -0.979353,-0.948748 l -1.897496,0 c -0.252475,-0.947598 -0.635266,-1.849482 -1.117075,-2.677918 l 1.346611,-1.361913 c 0.381139,-0.38114 0.405382,-0.971875 0.0306,-1.34661 L 25.896991,7.4556917 c -0.374736,-0.374735 -0.965471,-0.350534 -1.34661,0.0306 l -1.361913,1.34661 C 22.360029,8.3510907 21.458146,7.9683027 20.51055,7.7158277 l 0,-1.897496 c 0,-0.539014 -0.418794,-0.979353 -0.948748,-0.979353 l -3.733782,0 z m 1.86689,6.6106313 c 3.786171,0 6.85547,3.069299 6.85547,6.85547 0,3.786171 -3.069299,6.85547 -6.85547,6.85547 -3.786171,0 -6.85547,-3.069299 -6.85547,-6.85547 0,-3.786171 3.069299,-6.85547 6.85547,-6.85547 z"
       inkscape:connector-curvature="0"
       id="path4353"
       style="display:block;overflow:visible;visibility:visible;opacity:1;fill:#ffffff;fill-opacity:1;fill-rule:nonzero;stroke:none;stroke-width:1;marker:none;enable-background:accumulate" />
    <path
       style="display:block;overflow:visible;visibility:visible;opacity:1;fill:#ffffff;fill-opacity:1;fill-rule:nonzero;stroke:none;stroke-width:1;marker:none;enable-background:accumulate"
       id="path4207"
       inkscape:connector-curvature="0"
       d="m 27.294952,28.368597 c -0.296631,-0.02672 -0.553235,0.198637 -0.580409,0.500336 l -0.09566,1.062072 c -0.543121,0.09354 -1.067223,0.262332 -1.555208,0.490247 l -0.694407,-0.822387 c -0.09706,-0.116273 -0.214937,-0.190872 -0.352869,-0.204475 -0.137931,-0.01363 -0.284998,0.02403 -0.399316,0.119456 l -1.615223,1.348301 c -0.228638,0.190856 -0.244853,0.522726 -0.05076,0.755272 l 0.68507,0.830181 c -0.311443,0.439405 -0.571164,0.924912 -0.760256,1.442577 l -1.062073,-0.09566 c -0.301697,-0.02717 -0.569279,0.185034 -0.595995,0.481662 l -0.188235,2.089884 c -0.02672,0.296629 0.198638,0.553235 0.500336,0.580409 l 1.062073,0.09566 c 0.09355,0.543122 0.262333,1.067224 0.490247,1.555208 l -0.822388,0.694405 c -0.232546,0.19412 -0.275894,0.523545 -0.08502,0.752186 l 1.348301,1.615224 c 0.190853,0.228639 0.522724,0.244875 0.755271,0.05076 l 0.830182,-0.685069 c 0.439405,0.311445 0.924913,0.571168 1.442577,0.760256 l -0.09566,1.062073 c -0.02717,0.301697 0.185033,0.569278 0.481662,0.595995 l 2.089883,0.188235 c 0.296629,0.02671 0.553236,-0.198638 0.58041,-0.500336 l 0.09566,-1.062073 c 0.543119,-0.09354 1.067221,-0.262331 1.555208,-0.490247 l 0.694405,0.822388 c 0.194119,0.232547 0.523546,0.275873 0.752186,0.08502 l 1.615224,-1.348301 C 33.548805,40.947 33.56502,40.61513 33.370928,40.382584 l -0.68507,-0.83018 c 0.311444,-0.439405 0.571169,-0.924912 0.760257,-1.442577 l 1.062073,0.09566 c 0.301694,0.02717 0.569278,-0.185034 0.595995,-0.481662 l 0.188235,-2.089884 c 0.02671,-0.296628 -0.198641,-0.553235 -0.500336,-0.580409 l -1.062073,-0.09566 c -0.09354,-0.543122 -0.262333,-1.067224 -0.490247,-1.555208 l 0.822388,-0.694405 c 0.232547,-0.19412 0.275897,-0.523545 0.08502,-0.752186 l -1.348301,-1.615224 c -0.190857,-0.22864 -0.522725,-0.244875 -0.755272,-0.05076 l -0.830181,0.685065 C 30.774008,30.663709 30.2885,30.403986 29.770837,30.214898 l 0.09566,-1.062073 c 0.02717,-0.301697 -0.185035,-0.569279 -0.481663,-0.595995 l -2.089883,-0.188235 z m 0.711673,3.794239 c 2.119207,0.190876 3.682428,2.063567 3.491553,4.182774 -0.190876,2.119206 -2.063567,3.682427 -4.182775,3.491552 -2.119206,-0.190876 -3.682427,-2.063567 -3.491552,-4.182774 0.190876,-2.119206 2.063567,-3.682427 4.182774,-3.491552 z" />
    <path
       d="m 34.317494,19.418814 c -0.209692,-0.01889 -0.391089,0.140419 -0.410299,0.353695 l -0.06762,0.750793 c -0.38394,0.06612 -0.754435,0.185446 -1.099398,0.346563 l -0.490886,-0.581357 c -0.06861,-0.0822 -0.151942,-0.13493 -0.249448,-0.144547 -0.09751,-0.0096 -0.201469,0.01699 -0.282282,0.08445 l -1.141824,0.953132 c -0.161628,0.134919 -0.17309,0.369523 -0.03588,0.533913 l 0.484285,0.586866 c -0.220163,0.310622 -0.403763,0.653833 -0.537435,1.019778 L 29.73591,23.25448 c -0.213274,-0.01921 -0.402432,0.130803 -0.421318,0.340493 l -0.133065,1.477368 c -0.01889,0.209692 0.14042,0.39109 0.353694,0.4103 l 0.750794,0.06762 c 0.06613,0.383941 0.185447,0.754436 0.346563,1.099398 l -0.581358,0.490885 c -0.16439,0.137226 -0.195033,0.370101 -0.0601,0.531731 l 0.953133,1.141824 c 0.134917,0.161628 0.369521,0.173106 0.533912,0.03588 l 0.586867,-0.484285 c 0.310621,0.220165 0.653834,0.403767 1.019778,0.537436 l -0.06762,0.750794 c -0.01921,0.213274 0.130803,0.40243 0.340494,0.421317 l 1.477367,0.133066 c 0.209692,0.01888 0.391091,-0.14042 0.4103,-0.353694 l 0.06762,-0.750795 c 0.383938,-0.06612 0.754433,-0.185445 1.099398,-0.346562 l 0.490885,0.581357 c 0.137225,0.164391 0.370102,0.195019 0.53173,0.0601 l 1.141825,-0.953133 c 0.161626,-0.134918 0.173089,-0.369522 0.03588,-0.533912 l -0.484286,-0.586866 c 0.220164,-0.310621 0.403767,-0.653833 0.537436,-1.019777 l 0.750795,0.06762 c 0.213271,0.01921 0.40243,-0.130803 0.421317,-0.340494 l 0.133066,-1.477368 c 0.01888,-0.20969 -0.140422,-0.391089 -0.353695,-0.410299 l -0.750794,-0.06762 c -0.06612,-0.383941 -0.185447,-0.754436 -0.346562,-1.099399 l 0.581357,-0.490884 c 0.164391,-0.137226 0.195036,-0.370102 0.0601,-0.531731 L 38.20829,20.813026 c -0.134919,-0.161629 -0.369521,-0.173106 -0.533912,-0.03588 l -0.586867,0.484282 C 36.776888,21.041261 36.433675,20.857659 36.067732,20.72399 l 0.06762,-0.750794 c 0.01921,-0.213274 -0.1308,-0.402431 -0.340491,-0.421317 l -1.477367,-0.133066 z m 0.503092,2.682201 c 1.498097,0.134933 2.60316,1.458764 2.468228,2.956861 -0.134933,1.498096 -1.458765,2.603159 -2.956862,2.468227 -1.498097,-0.134933 -2.603159,-1.458765 -2.468227,-2.956862 0.134933,-1.498096 1.458764,-2.603159 2.956861,-2.468226 z"
       inkscape:connector-curvature="0"
       id="path4209"
       style="display:block;overflow:visible;visibility:visible;opacity:1;fill:#ffffff;fill-opacity:1;fill-rule:nonzero;stroke:none;stroke-width:1;marker:none;enable-background:accumulate" />
  </g>
  <path
     d="m 12.881356,24.966102 8,0 0,10 4,0 -8,8 -8.0000001,-8 4.0000001,0"
     id="path57"
     inkscape:connector-curvature="0"
     style="fill:#e55b42;fill-opacity:1;fill-rule:nonzero;stroke:none" />
</svg>
