<?xml version="1.0" encoding="UTF-8" standalone="no"?>
<!-- Created with Inkscape (http://www.inkscape.org/) -->

<svg
   xmlns:dc="http://purl.org/dc/elements/1.1/"
   xmlns:cc="http://creativecommons.org/ns#"
   xmlns:rdf="http://www.w3.org/1999/02/22-rdf-syntax-ns#"
   xmlns:svg="http://www.w3.org/2000/svg"
   xmlns="http://www.w3.org/2000/svg"
   xmlns:sodipodi="http://sodipodi.sourceforge.net/DTD/sodipodi-0.dtd"
   xmlns:inkscape="http://www.inkscape.org/namespaces/inkscape"
   id="svg2"
   version="1.1"
   inkscape:version="0.91 r"
   width="512"
   height="512"
   sodipodi:docname="twitter.svg">
  <metadata
     id="metadata8">
    <rdf:RDF>
      <cc:Work
         rdf:about="">
        <dc:format>image/svg+xml</dc:format>
        <dc:type
           rdf:resource="http://purl.org/dc/dcmitype/StillImage" />
        <dc:title />
      </cc:Work>
    </rdf:RDF>
  </metadata>
  <defs
     id="defs6" />
  <sodipodi:namedview
     pagecolor="#ffffff"
     bordercolor="#666666"
     borderopacity="1"
     objecttolerance="10"
     gridtolerance="10"
     guidetolerance="10"
     inkscape:pageopacity="0"
     inkscape:pageshadow="2"
     inkscape:window-width="1366"
     inkscape:window-height="712"
     id="namedview4"
     showgrid="false"
     inkscape:zoom="0.65186406"
     inkscape:cx="-12.007833"
     inkscape:cy="284.7045"
     inkscape:window-x="0"
     inkscape:window-y="29"
     inkscape:window-maximized="1"
     inkscape:current-layer="svg2" />
  <rect
     style="opacity:1;fill:#ffffff;fill-opacity:1;stroke:#548ff0;stroke-width:27.96504211;stroke-miterlimit:4;stroke-dasharray:none;stroke-opacity:1"
     id="rect4136"
     width="458.09402"
     height="458.09402"
     x="26.952986"
     y="26.952986"
     rx="55.93008"
     ry="55.93008" />
  <path
     inkscape:connector-curvature="0"
     id="path2988"
     d="m 175.93646,406.22627 c -13.70865,-0.87893 -31.3139,-3.77892 -46.85196,-7.71761 -18.46105,-4.67964 -44.728291,-15.51034 -50.31555,-20.7465 l -2.354915,-2.20693 14.601543,-0.87902 c 8.030848,-0.48347 16.557052,-1.13123 18.947122,-1.43947 27.30538,-3.52146 47.95645,-11.21187 65.91088,-24.54507 7.34815,-5.45683 8.5769,-7.94134 4.25999,-8.61364 -1.43929,-0.22415 -5.10573,-0.79961 -8.14763,-1.2788 -19.88304,-3.13217 -40.74975,-15.46741 -51.33644,-30.34727 -3.83899,-5.3958 -8.87146,-15.17108 -8.17096,-15.87158 0.25282,-0.25283 2.87166,-0.0397 5.81966,0.47373 6.46711,1.1262 14.86671,0.56331 21.29343,-1.42696 6.90738,-2.13911 6.54284,-3.73919 -1.5802,-6.93617 -29.81543,-11.73441 -45.486183,-32.14127 -48.99214,-63.79879 -0.276726,-2.49871 -0.277192,-4.54311 -7.87e-4,-4.54311 0.276143,0 4.81061,1.46628 10.076596,3.2584 7.332741,2.49548 10.876471,3.2817 15.135121,3.35795 7.80837,0.13979 7.79914,-1.02151 -0.0734,-9.22839 -21.964714,-22.89761 -28.569043,-47.6889 -20.306181,-76.22525 1.097124,-3.789 2.694156,-8.47198 3.548962,-10.40661 l 1.5542,-3.51752 9.652629,9.52388 c 23.37281,23.06109 44.18948,38.41571 67.33028,49.66362 23.78552,11.56129 47.32771,17.77613 68.34408,18.04195 l 9.87631,0.12493 -0.1649,-2.37032 c -0.0907,-1.30367 -0.40598,-5.78086 -0.70061,-9.94932 -1.34034,-18.96289 5.70386,-40.13963 18.59688,-55.90712 7.26319,-8.8825 23.15215,-18.15266 37.59454,-21.93394 15.4676,-4.0497 36.48362,-2.36122 49.95096,4.0132 7.5159,3.55747 11.88919,6.62976 18.85223,13.24397 l 5.7358,5.44844 5.78194,-1.69985 c 14.09207,-4.14299 26.13492,-9.2393 34.88354,-14.76205 l 3.13161,-1.9769 -0.47871,2.94987 c -0.26328,1.62244 -1.97441,5.96924 -3.80251,9.65956 -3.31744,6.6968 -6.18544,10.08308 -17.50735,20.67113 -2.51205,2.34923 -4.44018,4.65963 -4.28473,5.13423 0.86895,2.65293 13.50093,0.51229 27.27745,-4.62249 5.07558,-1.89176 9.3601,-3.31445 9.52116,-3.16151 0.60658,0.57596 -7.18077,10.67393 -13.01076,16.87123 -3.33236,3.54234 -9.92278,9.83812 -14.64535,13.99064 l -8.5865,7.55002 -0.0157,9.21571 c -0.093,54.55366 -23.28773,110.34387 -62.72908,150.8819 -26.05145,26.77582 -55.54081,44.63372 -90.21773,54.63323 -20.92211,6.03315 -49.62794,8.92889 -73.40256,7.4046 z"
     style="fill:#548ff0" />
  <path
     inkscape:connector-curvature="0"
     id="path2986"
     d="m 172.5956,405.96584 c -1.2983,-0.17684 -6.2524,-0.434 -10.36367,-0.89418 -17.00107,-1.90297 -40.5299,-7.85284 -56.27574,-13.89342 -6.27915,-2.40887 -14.583695,-5.76978 -20.638274,-9.03079 -8.123533,-4.37536 -12.528697,-8.20869 -5.723221,-5.86726 12.186679,4.19283 38.875465,10.479 54.857115,12.73349 14.8946,2.10115 46.18691,1.91587 60.89218,-0.36053 46.30782,-7.16854 82.44583,-25.44464 115.32412,-58.32292 17.28294,-17.28293 29.75934,-34.35869 40.67467,-55.66913 13.35741,-26.07824 20.36591,-50.77315 23.07129,-81.29327 2.72579,-30.75024 -5.68321,-62.53909 -20.75903,-78.47615 -1.32435,-1.4 -3.26459,-2.74496 -2.97465,-3.0349 0.8577,-0.8577 11.80168,3.65515 17.75536,7.6596 3.0373,2.04289 7.63576,5.86307 10.21881,8.48931 3.01689,3.06732 5.33679,4.77496 6.48702,4.77496 5.27992,0 30.94416,-9.99128 40.1165,-16.09124 l 2.47984,-1.64919 -0.27781,2.07961 c -1.50025,11.23064 -7.31279,18.0473 -17.47897,27.44234 -4.61255,4.26268 -8.52661,8.30104 -8.23558,8.799 0.86759,1.48442 2.20035,1.5298 8.58735,0.63708 5.64312,-0.78874 16.8808,-4.27842 24.13647,-7.3489 1.68932,-0.71489 4.03253,-1.09318 4.19286,-0.93284 0.16033,0.16033 -1.51579,2.74363 -3.54031,5.51015 -4.74989,6.49076 -14.72675,18.40433 -25.06865,26.00207 l -7.78492,6.86394 -0.11315,10.10186 c -0.49083,43.81483 -15.35392,89.94855 -43.23764,127.2365 -34.13736,45.65075 -80.81655,74.95373 -135.95147,82.86225 -7.81886,1.12153 -44.8627,2.4228 -50.3705,1.67256 z"
     style="fill:#3c81ef"
     sodipodi:nodetypes="sssssssssssssssscssssscsscssss" />
</svg>
