<?xml version="1.0" encoding="UTF-8" standalone="no"?>
<!-- Created with Inkscape (http://www.inkscape.org/) -->

<svg
   xmlns:dc="http://purl.org/dc/elements/1.1/"
   xmlns:cc="http://creativecommons.org/ns#"
   xmlns:rdf="http://www.w3.org/1999/02/22-rdf-syntax-ns#"
   xmlns:svg="http://www.w3.org/2000/svg"
   xmlns="http://www.w3.org/2000/svg"
   xmlns:sodipodi="http://sodipodi.sourceforge.net/DTD/sodipodi-0.dtd"
   xmlns:inkscape="http://www.inkscape.org/namespaces/inkscape"
   id="svg2"
   version="1.1"
   inkscape:version="0.91 r"
   width="512"
   height="512"
   sodipodi:docname="wicd.svg">
  <metadata
     id="metadata8">
    <rdf:RDF>
      <cc:Work
         rdf:about="">
        <dc:format>image/svg+xml</dc:format>
        <dc:type
           rdf:resource="http://purl.org/dc/dcmitype/StillImage" />
        <dc:title />
      </cc:Work>
    </rdf:RDF>
  </metadata>
  <defs
     id="defs6" />
  <sodipodi:namedview
     pagecolor="#ffffff"
     bordercolor="#666666"
     borderopacity="1"
     objecttolerance="10"
     gridtolerance="10"
     guidetolerance="10"
     inkscape:pageopacity="0"
     inkscape:pageshadow="2"
     inkscape:window-width="1189"
     inkscape:window-height="637"
     id="namedview4"
     showgrid="false"
     inkscape:zoom="0.65186406"
     inkscape:cx="74.415511"
     inkscape:cy="327.12163"
     inkscape:window-x="15"
     inkscape:window-y="39"
     inkscape:window-maximized="0"
     inkscape:current-layer="svg2" />
  <rect
     style="opacity:1;fill:#f5f5f5;fill-opacity:1;stroke:#999999;stroke-width:28.097435;stroke-miterlimit:4;stroke-dasharray:none;stroke-opacity:1"
     id="rect4136"
     width="460.26273"
     height="460.26273"
     x="25.868637"
     y="25.868637"
     rx="56.19487"
     ry="56.19487" />
  <path
     style="fill:#999999"
     d="m 195.29687,417.94596 c -4.20524,-2.43891 -6.4727,-6.61863 -6.4727,-11.93151 0,-5.99849 2.18578,-10.18326 6.51452,-12.47235 3.11495,-1.64723 3.54322,-1.67425 26.53589,-1.67425 17.20714,0 23.59993,-0.23007 24.24234,-0.87247 0.66168,-0.66169 0.87248,-12.9556 0.87248,-50.8841 l 0,-50.01163 -4.18063,-2.18001 c -11.53178,-6.01329 -17.59211,-16.94539 -16.69281,-30.1118 0.73467,-10.75614 6.65688,-19.5604 16.74307,-24.89106 4.7859,-2.52941 5.80337,-2.78378 12.2102,-3.05248 8.39222,-0.35196 13.13156,0.81448 18.87723,4.64609 8.20029,5.4685 12.9419,13.84206 13.57814,23.97862 0.73658,11.73538 -3.91609,21.05997 -13.81555,27.68829 l -4.90769,3.28602 0,50.32979 c 0,38.17597 0.21068,50.54048 0.87247,51.20227 0.64223,0.64222 7.0096,0.87247 24.12714,0.87247 21.66007,0 23.45778,0.0983 26.21699,1.43405 4.47493,2.16627 6.94862,6.45527 6.94862,12.04784 0,5.99849 -2.18578,10.18326 -6.51452,12.47235 l -3.16604,1.67424 -59.68676,-0.0167 c -59.17531,-0.0166 -59.70918,-0.0297 -62.30239,-1.53367 z"
     id="path3011"
     inkscape:connector-curvature="0" />
  <path
     inkscape:connector-curvature="0"
     id="path2986"
     d="m 365.86457,383.50034 c -0.79977,-0.20649 -2.35387,-1.22278 -3.45356,-2.25843 -1.58152,-1.48942 -1.99943,-2.5389 -1.99943,-5.02111 0,-2.9537 0.39055,-3.5546 6.64561,-10.22466 23.25345,-24.79625 37.39257,-54.97275 41.39922,-88.35657 1.07682,-8.97218 0.46827,-33.48981 -1.04167,-41.96752 -5.72693,-32.15448 -20.28624,-60.46338 -42.56798,-82.76856 -9.16352,-9.17316 -12.76958,-12.2042 -21.52121,-18.08952 -38.78914,-26.08501 -84.91934,-33.56294 -128.7801,-20.87588 -27.32562,7.90413 -53.59281,24.47584 -71.85941,45.33535 -20.2998,23.18133 -33.10385,51.45176 -37.22591,82.19215 -1.5414,11.49499 -0.94938,35.02311 1.15313,45.82809 5.94726,30.56351 18.54407,55.47659 39.84027,78.79333 3.94966,4.32439 4.56325,5.37381 4.56325,7.80448 0,4.85398 -3.60829,7.69805 -9.27008,7.30669 -2.07152,-0.14318 -8.29271,-6.34197 -15.81367,-15.75673 -7.17517,-8.98189 -8.10586,-10.30044 -12.91653,-18.29953 -7.96414,-13.24259 -12.10168,-22.6439 -16.899867,-38.39981 -10.112344,-33.2061 -9.152218,-71.50103 2.617849,-104.41433 5.627338,-15.73605 10.165728,-24.78771 19.098078,-38.09047 8.43021,-12.55492 24.12987,-29.17608 36.98653,-39.15747 6.59053,-5.11662 19.74518,-13.29305 28.5521,-17.74689 11.17566,-5.65176 30.00054,-11.574862 45.80511,-14.412214 7.63357,-1.370436 28.98888,-2.59151 36.35326,-2.078642 41.16939,2.867101 75.61369,17.319296 104.68047,43.922006 6.8437,6.26355 20.86796,22.1985 24.01955,27.29202 0.74227,1.19966 1.91865,2.83555 2.61416,3.63532 2.28543,2.62803 9.97685,16.81628 14.388,26.5413 4.24322,9.35485 9.30277,27.16026 11.36603,39.99904 1.88539,11.73198 2.22971,33.96037 0.72235,46.63297 -2.15351,18.1048 -8.34691,39.12456 -16.08714,54.59803 -6.85002,13.69386 -19.06844,30.82628 -30.07874,42.17577 -5.50246,5.67199 -7.6686,6.79669 -11.28967,5.86179 z m -196.8965,-35.26303 c -2.76573,-2.25875 -10.55368,-11.49311 -14.6795,-17.40583 -7.62661,-10.92973 -13.84402,-24.51693 -17.34847,-37.91247 -3.21316,-12.28206 -3.73691,-16.90567 -3.7258,-32.89027 0.0122,-17.56268 1.18802,-25.22348 6.08676,-39.65728 4.04617,-11.92173 6.45304,-16.84075 13.41439,-27.41551 22.79827,-34.63207 57.31189,-54.24966 99.3634,-56.47828 32.73567,-1.7349 67.35407,11.37671 90.69557,34.35068 17.69303,17.41443 27.8944,34.58321 34.64088,58.30011 4.00448,14.07753 4.86225,37.56148 1.95191,53.4393 -3.04611,16.61849 -10.43149,34.65475 -19.20257,46.89571 -8.79601,12.27573 -13.41714,17.35308 -16.56542,18.20083 -3.60224,0.96998 -5.16292,0.49216 -7.51239,-2.30004 -3.10523,-3.69035 -2.59733,-6.96854 1.86562,-12.04139 29.74964,-33.81524 36.48887,-80.13626 17.38058,-119.46278 -14.97836,-30.82679 -40.80924,-51.5458 -74.17156,-59.4932 -33.7163,-8.03172 -69.80361,1.22884 -96.81563,24.84438 -10.02595,8.76529 -20.27643,22.43963 -25.85441,34.49027 -3.97938,8.59703 -8.03518,21.77828 -9.24979,30.06154 -4.89292,33.36812 5.15028,66.28533 27.7874,91.07491 2.15158,2.35617 4.20521,5.05525 4.56364,5.99798 1.69664,4.46251 -2.21182,9.7334 -7.18383,9.68801 -1.88658,-0.0172 -3.48401,-0.68859 -5.44078,-2.28667 z m 29.17857,-29.8724 c -1.47076,-1.29368 -4.14481,-4.19789 -5.94232,-6.45379 -17.63706,-22.1347 -22.48614,-52.35045 -12.86504,-80.16498 5.30915,-15.34869 19.27471,-32.17698 34.57628,-41.66391 8.1398,-5.04664 13.66268,-7.33124 23.69575,-9.80201 5.8865,-1.44962 8.64677,-1.67985 19.92053,-1.66157 12.47267,0.0202 13.46468,0.12904 21.12673,2.31755 15.66964,4.47569 24.48902,9.72401 36.31143,21.60854 6.7238,6.75912 9.68359,10.38466 12.90541,15.80823 2.29934,3.87068 4.18063,7.34627 4.18063,7.72353 0,0.37726 0.69901,2.26616 1.55336,4.19757 0.85436,1.9314 2.37483,6.63531 3.37884,10.4531 1.59726,6.07369 1.83328,8.53207 1.88794,19.6651 0.0577,11.75563 -0.0928,13.30445 -1.97836,20.35783 -3.56832,13.34793 -9.23338,24.08243 -17.56207,33.27766 -2.43338,2.68656 -3.4552,3.27572 -6.2211,3.58692 -3.09496,0.34824 -3.4602,0.20072 -5.63475,-2.27597 -3.55066,-4.04397 -3.21137,-6.24759 2.03069,-13.18881 9.68494,-12.82419 14.54773,-26.68691 14.54773,-41.47228 0,-31.93747 -22.4053,-59.34378 -54.06407,-66.13153 -8.53023,-1.82892 -23.29385,-1.15846 -32.09317,1.45743 -18.5774,5.52276 -33.92377,18.91566 -42.48538,37.07737 -5.50123,11.6697 -7.27975,28.16631 -4.39968,40.80885 2.79116,12.25222 7.42476,21.46074 16.10581,32.00763 4.99255,6.06562 5.5145,8.85433 2.35908,12.60433 -1.60984,1.91319 -2.37285,2.23542 -5.27123,2.22617 -2.77589,-0.009 -3.87266,-0.43631 -6.06304,-2.36296 z m 53.6594,-43.77241 c -8.99195,-3.20517 -12.69987,-14.67213 -7.25118,-22.42467 3.00228,-4.27173 6.87483,-6.29007 12.09712,-6.30491 14.14849,-0.0402 20.39165,16.59375 9.73865,25.9472 -4.20509,3.69212 -9.30359,4.66479 -14.58459,2.78238 z"
     style="fill:#78bc8e" />
  <path
     style="fill:#ff0000;fill-opacity:0;fill-rule:nonzero;stroke:none"
     d="m 252.74936,274.57941 c -3.98665,-1.21268 -6.7888,-3.66805 -8.89284,-7.79229 -4.49147,-8.80402 1.43746,-19.49671 11.37958,-20.52284 10.92501,-1.12756 19.06279,9.31449 15.17649,19.47382 -1.23911,3.23922 -5.97806,7.74521 -9.14285,8.69341 -2.46392,0.73821 -6.35758,0.8058 -8.52038,0.1479 l 0,0 z"
     id="path3013"
     inkscape:connector-curvature="0" />
  <path
     style="fill:#ff0000;fill-opacity:1;fill-rule:nonzero;stroke:#ff0000;stroke-width:3.41720676;stroke-miterlimit:4;stroke-dasharray:none;stroke-opacity:1"
     d="m 252.74936,274.57941 c -3.98665,-1.21268 -6.7888,-3.66805 -8.89284,-7.79229 -4.49147,-8.80402 1.43746,-19.49671 11.37958,-20.52284 10.92501,-1.12756 19.06279,9.31449 15.17649,19.47382 -1.23911,3.23922 -5.97806,7.74521 -9.14285,8.69341 -2.46392,0.73821 -6.35758,0.8058 -8.52038,0.1479 l 0,0 z"
     id="path3015"
     inkscape:connector-curvature="0" />
</svg>
