<?xml version="1.0" encoding="UTF-8" standalone="no"?>
<svg
   xmlns:dc="http://purl.org/dc/elements/1.1/"
   xmlns:cc="http://creativecommons.org/ns#"
   xmlns:rdf="http://www.w3.org/1999/02/22-rdf-syntax-ns#"
   xmlns:svg="http://www.w3.org/2000/svg"
   xmlns="http://www.w3.org/2000/svg"
   xmlns:sodipodi="http://sodipodi.sourceforge.net/DTD/sodipodi-0.dtd"
   xmlns:inkscape="http://www.inkscape.org/namespaces/inkscape"
   viewBox="0 0 128 128"
   id="svg2"
   version="1.1"
   inkscape:version="0.91 r"
   width="100%"
   height="100%"
   sodipodi:docname="WormsReloaded.svg">
  <metadata
     id="metadata61">
    <rdf:RDF>
      <cc:Work
         rdf:about="">
        <dc:format>image/svg+xml</dc:format>
        <dc:type
           rdf:resource="http://purl.org/dc/dcmitype/StillImage" />
        <dc:title />
      </cc:Work>
    </rdf:RDF>
  </metadata>
  <sodipodi:namedview
     pagecolor="#ffffff"
     bordercolor="#666666"
     borderopacity="1"
     objecttolerance="10"
     gridtolerance="10"
     guidetolerance="10"
     inkscape:pageopacity="0"
     inkscape:pageshadow="2"
     inkscape:window-width="1366"
     inkscape:window-height="713"
     id="namedview59"
     showgrid="false"
     inkscape:zoom="1.7383042"
     inkscape:cx="-35.768697"
     inkscape:cy="47.58195"
     inkscape:window-x="0"
     inkscape:window-y="0"
     inkscape:window-maximized="1"
     inkscape:current-layer="svg2" />
  <defs
     id="defs4">
    <linearGradient
       id="linearGradient3764"
       y1="47"
       x2="0"
       y2="1"
       gradientUnits="userSpaceOnUse">
      <stop
         stop-color="#ffb81f"
         stop-opacity="1"
         id="stop7" />
      <stop
         offset="1"
         stop-color="#ffbe33"
         stop-opacity="1"
         id="stop9" />
    </linearGradient>
    <clipPath
       id="clipPath-118760921">
      <g
         transform="translate(0,-1004.3622)"
         id="g12">
        <path
           d="m -24,13 c 0,1.105 -0.672,2 -1.5,2 -0.828,0 -1.5,-0.895 -1.5,-2 0,-1.105 0.672,-2 1.5,-2 0.828,0 1.5,0.895 1.5,2 z"
           transform="matrix(15.333333,0,0,11.5,414.99999,878.8622)"
           id="path14"
           inkscape:connector-curvature="0"
           style="fill:#1890d0" />
      </g>
    </clipPath>
    <clipPath
       id="clipPath-137197553">
      <g
         transform="translate(0,-1004.3622)"
         id="g17">
        <path
           d="m -24,13 c 0,1.105 -0.672,2 -1.5,2 -0.828,0 -1.5,-0.895 -1.5,-2 0,-1.105 0.672,-2 1.5,-2 0.828,0 1.5,0.895 1.5,2 z"
           transform="matrix(15.333333,0,0,11.5,414.99999,878.8622)"
           id="path19"
           inkscape:connector-curvature="0"
           style="fill:#1890d0" />
      </g>
    </clipPath>
  </defs>
  <rect
     style="opacity:1;fill:#ffbb29;fill-opacity:1;stroke:#2d2d2d;stroke-width:7.05011129;stroke-miterlimit:4;stroke-dasharray:none;stroke-opacity:1"
     id="rect4136"
     width="115.48754"
     height="115.48754"
     x="6.2562346"
     y="6.2562346"
     rx="14.100223"
     ry="14.100223" />
  <path
     style="fill:#2d2d2d;fill-opacity:1"
     d="m 63.999174,13.888944 c -27.676665,0 -50.110229,22.433571 -50.110229,50.110232 0,27.676659 22.433564,50.111884 50.110229,50.111884 27.676659,0 50.111886,-22.435225 50.111886,-50.111884 0,-27.676661 -22.435227,-50.110232 -50.111886,-50.110232 z m 0,4.372621 c 25.260862,0 45.737606,20.47675 45.737606,45.737611 0,25.260862 -20.476744,45.737614 -45.737606,45.737614 -25.260859,0 -45.73761,-20.476752 -45.73761,-45.737614 0,-25.260861 20.476751,-45.737611 45.73761,-45.737611 z"
     id="path31"
     inkscape:connector-curvature="0" />
  <g
     id="g33"
     transform="translate(0,80)" />
  <g
     id="g47"
     transform="matrix(3.1666693,0,0,3.1666693,-12.574246,-13.722949)">
    <g
       clip-path="url(#clipPath-137197553)"
       id="g49">
      <!-- color: #ffbe33 -->
      <g
         id="g51">
        <path
           d="m 23.781,12 c -1.902,0.043 -3.977,0.633 -6.25,1.969 L 22,21.375 c 1.477,-0.844 2.82,-0.684 4.125,0 L 30.5,13.969 C 28.414,12.774 26.227,11.942 23.781,12 m 0.25,10.438 c -1.309,0 -2.375,1.094 -2.375,2.438 0,1.344 1.066,2.438 2.375,2.438 1.309,0 2.375,-1.094 2.375,-2.438 0,-1.344 -1.066,-2.438 -2.375,-2.438 M 11.5,24.282 c -0.051,5.09 1.914,8.914 5.906,11.469 l 4.531,-7.375 C 20.55,27.38 20.097,26.099 20.124,24.595 m 16.375,-0.219 -8.5,0.313 c -0.023,1.738 -0.805,2.836 -2.031,3.656 l 4.344,7.656 c 5.266,-3.395 6.207,-7.445 6.188,-11.625 m 0,0"
           id="path53"
           inkscape:connector-curvature="0"
           style="fill:#2d2d2d;fill-opacity:1;fill-rule:nonzero;stroke:none" />
      </g>
    </g>
  </g>
</svg>
