<?xml version="1.0" encoding="UTF-8"?>
<svg xmlns="http://www.w3.org/2000/svg" xmlns:xlink="http://www.w3.org/1999/xlink" width="24pt" height="24pt" viewBox="0 0 24 24" version="1.1">
<defs>
<clipPath id="clip1">
  <path d="M 12 11 L 24 11 L 24 23 L 12 23 Z M 12 11 "/>
</clipPath>
<clipPath id="clip2">
  <path d="M 17.703125 2.117188 C 12.246094 -1.03125 5.269531 0.839844 2.117188 6.296875 C -1.03125 11.753906 0.839844 18.730469 6.296875 21.882812 C 11.753906 25.03125 18.730469 23.160156 21.882812 17.703125 C 25.03125 12.246094 23.160156 5.269531 17.703125 2.117188 Z M 13.554688 9.304688 C 15.042969 10.164062 15.554688 12.066406 14.695312 13.554688 C 13.835938 15.042969 11.933594 15.554688 10.445312 14.695312 C 8.957031 13.835938 8.445312 11.933594 9.304688 10.445312 C 10.164062 8.957031 12.066406 8.445312 13.554688 9.304688 Z M 13.554688 9.304688 "/>
</clipPath>
<clipPath id="clip3">
  <path d="M 0 1 L 12 1 L 12 13 L 0 13 Z M 0 1 "/>
</clipPath>
<clipPath id="clip4">
  <path d="M 6.339844 21.988281 C 11.796875 25.140625 18.777344 23.269531 21.925781 17.8125 C 25.078125 12.355469 23.207031 5.378906 17.75 2.226562 C 12.292969 -0.925781 5.316406 0.945312 2.164062 6.402344 C -0.984375 11.859375 0.882812 18.839844 6.339844 21.988281 Z M 10.492188 14.800781 C 9.003906 13.941406 8.492188 12.039062 9.351562 10.550781 C 10.210938 9.0625 12.113281 8.554688 13.601562 9.414062 C 15.089844 10.273438 15.601562 12.175781 14.742188 13.664062 C 13.882812 15.152344 11.980469 15.660156 10.492188 14.800781 Z M 10.492188 14.800781 "/>
</clipPath>
</defs>
<g id="surface1">
<path style="fill-rule:nonzero;fill:rgb(50.196078%,50.196078%,50.196078%);fill-opacity:1;stroke-width:1.569832;stroke-linecap:butt;stroke-linejoin:miter;stroke:rgb(83.137255%,83.137255%,83.137255%);stroke-opacity:1;stroke-miterlimit:4;" d="M 255.974083 113.050918 C 186.628562 113.071707 130.423304 169.302969 130.406858 238.669988 C 130.427648 308.01551 186.65891 364.220768 256.025929 364.237213 C 325.37145 364.216424 381.576708 307.985162 381.593154 238.618143 C 381.572365 169.272621 325.341103 113.067363 255.974083 113.050918 Z M 255.986166 204.395297 C 274.90249 204.396398 290.249874 219.713902 290.248774 238.630225 C 290.247674 257.546549 274.93017 272.893934 256.013846 272.892833 C 237.097523 272.891733 221.750138 257.574229 221.751238 238.657905 C 221.752338 219.741582 237.069843 204.394197 255.986166 204.395297 Z M 255.986166 204.395297 " transform="matrix(0.0786797,0.0454258,-0.0454258,0.0786797,2.698578,-18.405446)"/>
<g clip-path="url(#clip1)" clip-rule="nonzero">
<g clip-path="url(#clip2)" clip-rule="nonzero">
<path style=" stroke:none;fill-rule:evenodd;fill:rgb(94.901961%,94.901961%,94.901961%);fill-opacity:1;" d="M 13.8125 11.753906 L 25.261719 13.6875 L 20.007812 22.792969 L 12.402344 12.96875 Z M 13.8125 11.753906 "/>
</g>
</g>
<g clip-path="url(#clip3)" clip-rule="nonzero">
<g clip-path="url(#clip4)" clip-rule="nonzero">
<path style=" stroke:none;fill-rule:evenodd;fill:rgb(94.901961%,94.901961%,94.901961%);fill-opacity:1;" d="M 10.230469 12.355469 L -1.21875 10.421875 L 4.039062 1.316406 L 11.644531 11.136719 Z M 10.230469 12.355469 "/>
</g>
</g>
<path style="fill-rule:nonzero;fill:rgb(100%,100%,100%);fill-opacity:1;stroke-width:2.780315;stroke-linecap:butt;stroke-linejoin:miter;stroke:rgb(90.588235%,90.588235%,90.588235%);stroke-opacity:1;stroke-miterlimit:4;" d="M 256.017198 185.014866 C 226.392233 185.040115 202.367054 209.039144 202.370806 238.626874 C 202.396056 268.251839 226.395085 292.277017 255.982814 292.273265 C 285.60778 292.248016 309.632958 268.248987 309.629206 238.661257 C 309.603956 209.036292 285.604928 185.011114 256.017198 185.014866 Z M 256.006645 210.192229 C 271.707229 210.212981 284.451097 222.912885 284.451843 238.650704 C 284.431091 254.351288 271.731187 267.095156 255.993367 267.095902 C 240.292784 267.07515 227.548916 254.375246 227.54817 238.637427 C 227.568921 222.936843 240.268826 210.192975 256.006645 210.192229 Z M 256.006645 210.192229 " transform="matrix(0.0786797,0.0454258,-0.0454258,0.0786797,2.698578,-18.405446)"/>
</g>
</svg>
