<?xml version="1.0" encoding="UTF-8"?>
<svg xmlns="http://www.w3.org/2000/svg" xmlns:xlink="http://www.w3.org/1999/xlink" width="128pt" height="128pt" viewBox="0 0 128 128" version="1.1">
<g id="surface1">
<path style="fill-rule:nonzero;fill:rgb(92.54902%,94.117647%,94.509804%);fill-opacity:1;stroke-width:7.956348;stroke-linecap:butt;stroke-linejoin:miter;stroke:rgb(58.431373%,64.705882%,65.098039%);stroke-opacity:1;stroke-miterlimit:4;" d="M -15.12246 273.975844 L 83.381924 273.975844 C 92.170501 273.975844 99.296613 281.101956 99.296613 289.890533 L 99.296613 388.394917 C 99.296613 397.183494 92.170501 404.309606 83.381924 404.309606 L -15.12246 404.309606 C -23.911037 404.309606 -31.037149 397.183494 -31.037149 388.394917 L -31.037149 289.890533 C -31.037149 281.101956 -23.911037 273.975844 -15.12246 273.975844 Z M -15.12246 273.975844 " transform="matrix(0.885827,0,0,0.885827,33.766972,-236.42168)"/>
<path style=" stroke:none;fill-rule:nonzero;fill:rgb(49.803922%,54.901961%,55.294118%);fill-opacity:1;" d="M 43.53125 49.539062 C 41.484375 49.539062 39.605469 49.910156 37.894531 50.664062 C 36.183594 51.390625 34.699219 52.417969 33.457031 53.738281 C 32.238281 55.0625 31.3125 56.601562 30.664062 58.363281 C 30.015625 60.125 29.6875 62.003906 29.6875 64 C 29.6875 65.996094 30.015625 67.875 30.664062 69.636719 C 31.3125 71.398438 32.238281 72.9375 33.457031 74.261719 C 34.699219 75.582031 36.183594 76.621094 37.894531 77.375 C 39.605469 78.097656 41.484375 78.460938 43.53125 78.460938 C 45.292969 78.460938 46.917969 78.203125 48.421875 77.6875 C 49.925781 77.167969 51.238281 76.425781 52.355469 75.46875 C 53.496094 74.484375 54.386719 73.292969 55.035156 71.894531 C 55.707031 70.46875 56.101562 68.875 56.203125 67.113281 L 48.972656 67.113281 C 48.84375 68.71875 48.292969 69.972656 47.335938 70.878906 C 46.375 71.789062 45.058594 72.242188 43.375 72.242188 C 42.257812 72.242188 41.285156 72.019531 40.453125 71.582031 C 39.625 71.113281 38.957031 70.496094 38.4375 69.71875 C 37.917969 68.941406 37.527344 68.0625 37.269531 67.074219 C 37.035156 66.089844 36.917969 65.0625 36.917969 64 C 36.917969 62.9375 37.035156 61.917969 37.269531 60.933594 C 37.527344 59.945312 37.917969 59.066406 38.4375 58.289062 C 38.957031 57.511719 39.625 56.898438 40.453125 56.457031 C 41.285156 55.992188 42.257812 55.757812 43.375 55.757812 C 44.929688 55.757812 46.195312 56.136719 47.179688 56.890625 C 48.191406 57.613281 48.792969 58.664062 48.972656 60.039062 L 56.203125 60.039062 L 56.203125 60.03125 C 56.152344 58.425781 55.75 56.980469 54.996094 55.683594 C 54.273438 54.359375 53.296875 53.246094 52.078125 52.339844 C 50.859375 51.40625 49.511719 50.707031 48.035156 50.238281 C 46.558594 49.773438 45.058594 49.539062 43.53125 49.539062 Z M 91.699219 50.121094 L 91.699219 77.878906 L 98.3125 77.878906 L 98.3125 50.121094 Z M 61.28125 51.601562 L 61.28125 57.699219 L 57.9375 57.699219 L 57.9375 61.980469 L 61.28125 61.980469 L 61.28125 70.960938 C 61.28125 72.386719 61.386719 73.546875 61.59375 74.453125 C 61.828125 75.335938 62.207031 76.054688 62.726562 76.597656 C 63.246094 77.117188 63.957031 77.492188 64.863281 77.722656 C 65.769531 77.957031 66.9375 78.074219 68.363281 78.074219 C 68.828125 78.074219 69.511719 78.035156 70.417969 77.953125 C 71.117188 77.898438 71.636719 77.871094 71.976562 77.871094 L 71.976562 73.011719 C 71.769531 73.011719 71.46875 73.027344 71.082031 73.054688 C 70.71875 73.082031 70.445312 73.09375 70.261719 73.09375 C 69.457031 73.09375 68.863281 72.964844 68.476562 72.703125 C 68.085938 72.417969 67.894531 71.898438 67.894531 71.148438 L 67.894531 61.976562 L 71.976562 61.976562 L 71.976562 57.699219 L 67.894531 57.699219 L 67.894531 51.601562 Z M 87.707031 57.3125 C 86.285156 57.3125 85.039062 57.652344 83.976562 58.324219 C 82.914062 59 82.132812 59.96875 81.640625 61.238281 L 81.566406 61.238281 L 81.566406 57.699219 L 75.148438 57.699219 L 75.148438 77.878906 L 81.757812 77.878906 L 81.757812 67.886719 C 81.757812 66.539062 82.203125 65.414062 83.085938 64.507812 C 83.964844 63.574219 85.179688 63.105469 86.734375 63.105469 C 87.460938 63.105469 88.304688 63.234375 89.265625 63.492188 L 89.265625 57.46875 C 88.824219 57.367188 88.304688 57.3125 87.707031 57.3125 Z M 87.707031 57.3125 "/>
</g>
</svg>
