<?xml version="1.0" encoding="UTF-8"?>
<svg xmlns="http://www.w3.org/2000/svg" xmlns:xlink="http://www.w3.org/1999/xlink" width="32pt" height="32pt" viewBox="0 0 32 32" version="1.1">
<g id="surface1">
<path style=" stroke:none;fill-rule:nonzero;fill:rgb(30.196078%,30.196078%,30.196078%);fill-opacity:1;" d="M 4.363281 4.363281 L 4.363281 10.183594 L 5.816406 10.183594 L 5.816406 5.816406 L 10.183594 5.816406 L 10.183594 4.363281 Z M 21.816406 4.363281 L 21.816406 5.816406 L 26.183594 5.816406 L 26.183594 10.183594 L 27.636719 10.183594 L 27.636719 4.363281 Z M 4.363281 21.816406 L 4.363281 27.636719 L 10.183594 27.636719 L 10.183594 26.183594 L 5.816406 26.183594 L 5.816406 21.816406 Z M 26.183594 21.816406 L 26.183594 26.183594 L 21.816406 26.183594 L 21.816406 27.636719 L 27.636719 27.636719 L 27.636719 21.816406 Z M 26.183594 21.816406 "/>
<path style=" stroke:none;fill-rule:evenodd;fill:rgb(30.196078%,30.196078%,30.196078%);fill-opacity:1;" d="M 14.546875 10.910156 C 14.546875 12.917969 12.917969 14.546875 10.910156 14.546875 C 8.902344 14.546875 7.273438 12.917969 7.273438 10.910156 C 7.273438 8.902344 8.902344 7.273438 10.910156 7.273438 C 12.917969 7.273438 14.546875 8.902344 14.546875 10.910156 Z M 14.546875 10.910156 "/>
<path style=" stroke:none;fill-rule:evenodd;fill:rgb(30.196078%,30.196078%,30.196078%);fill-opacity:1;" d="M 17.453125 7.273438 L 24.726562 7.273438 L 24.726562 14.546875 L 17.453125 14.546875 Z M 17.453125 7.273438 "/>
<path style=" stroke:none;fill-rule:evenodd;fill:rgb(30.196078%,30.196078%,30.196078%);fill-opacity:1;" d="M 8.726562 17.453125 L 13.089844 17.453125 L 13.089844 24.726562 L 8.726562 24.726562 Z M 8.726562 17.453125 "/>
<path style=" stroke:none;fill-rule:nonzero;fill:rgb(30.196078%,30.196078%,30.196078%);fill-opacity:1;" d="M 17.453125 24.726562 L 21.089844 17.453125 L 24.726562 24.726562 Z M 17.453125 24.726562 "/>
</g>
</svg>
