<?xml version="1.0" encoding="UTF-8"?>
<svg xmlns="http://www.w3.org/2000/svg" xmlns:xlink="http://www.w3.org/1999/xlink" width="22pt" height="22pt" viewBox="0 0 22 22" version="1.1">
<g id="surface1">
<path style=" stroke:none;fill-rule:nonzero;fill:rgb(20%,20%,20%);fill-opacity:1;" d="M 5.332031 3.21875 L 5.582031 3.21875 C 5.660156 3.21875 5.726562 3.230469 5.726562 3.242188 L 5.726562 4.121094 C 5.726562 4.132812 5.660156 4.144531 5.582031 4.144531 L 5.332031 4.144531 C 5.253906 4.144531 5.1875 4.132812 5.1875 4.121094 L 5.1875 3.242188 C 5.1875 3.230469 5.253906 3.21875 5.332031 3.21875 Z M 5.332031 3.21875 "/>
<path style=" stroke:none;fill-rule:nonzero;fill:rgb(20%,20%,20%);fill-opacity:1;" d="M 5.332031 7.542969 L 5.582031 7.542969 C 5.660156 7.542969 5.726562 7.554688 5.726562 7.570312 L 5.726562 8.730469 C 5.726562 8.746094 5.660156 8.757812 5.582031 8.757812 L 5.332031 8.757812 C 5.253906 8.757812 5.1875 8.746094 5.1875 8.730469 L 5.1875 7.570312 C 5.1875 7.554688 5.253906 7.542969 5.332031 7.542969 Z M 5.332031 7.542969 "/>
<path style=" stroke:none;fill-rule:nonzero;fill:rgb(20%,20%,20%);fill-opacity:1;" d="M 14.554688 1.152344 L 14.554688 1.40625 C 14.554688 1.484375 14.535156 1.546875 14.515625 1.546875 L 12.9375 1.546875 C 12.917969 1.546875 12.898438 1.484375 12.898438 1.40625 L 12.898438 1.152344 C 12.898438 1.074219 12.917969 1.011719 12.9375 1.011719 L 14.515625 1.011719 C 14.535156 1.011719 14.554688 1.074219 14.554688 1.152344 Z M 14.554688 1.152344 "/>
<path style=" stroke:none;fill-rule:nonzero;fill:rgb(20%,20%,20%);fill-opacity:1;" d="M 5.332031 5.480469 L 5.582031 5.480469 C 5.660156 5.480469 5.726562 5.492188 5.726562 5.507812 L 5.726562 6.667969 C 5.726562 6.683594 5.660156 6.695312 5.582031 6.695312 L 5.332031 6.695312 C 5.253906 6.695312 5.1875 6.683594 5.1875 6.667969 L 5.1875 5.507812 C 5.1875 5.492188 5.253906 5.480469 5.332031 5.480469 Z M 5.332031 5.480469 "/>
<path style=" stroke:none;fill-rule:nonzero;fill:rgb(20%,20%,20%);fill-opacity:1;" d="M 6.433594 1.1875 L 15.578125 1.1875 C 16.160156 1.1875 16.636719 1.691406 16.636719 2.316406 L 16.636719 19.683594 C 16.636719 20.308594 16.160156 20.8125 15.578125 20.8125 L 6.433594 20.8125 C 5.847656 20.8125 5.375 20.308594 5.375 19.683594 L 5.375 2.316406 C 5.375 1.691406 5.847656 1.1875 6.433594 1.1875 Z M 6.433594 1.1875 "/>
<path style=" stroke:none;fill-rule:nonzero;fill:rgb(70.196078%,70.196078%,70.196078%);fill-opacity:1;" d="M 6.476562 1.273438 L 15.535156 1.273438 C 16.117188 1.273438 16.585938 1.777344 16.585938 2.394531 L 16.585938 19.605469 C 16.585938 20.222656 16.117188 20.726562 15.535156 20.726562 L 6.476562 20.726562 C 5.894531 20.726562 5.425781 20.222656 5.425781 19.605469 L 5.425781 2.394531 C 5.425781 1.777344 5.894531 1.273438 6.476562 1.273438 Z M 6.476562 1.273438 "/>
<path style=" stroke:none;fill-rule:nonzero;fill:rgb(100%,100%,100%);fill-opacity:1;" d="M 6.691406 1.488281 L 15.320312 1.488281 C 15.871094 1.488281 16.316406 1.976562 16.316406 2.582031 L 16.316406 19.417969 C 16.316406 20.023438 15.871094 20.511719 15.320312 20.511719 L 6.691406 20.511719 C 6.140625 20.511719 5.695312 20.023438 5.695312 19.417969 L 5.695312 2.582031 C 5.695312 1.976562 6.140625 1.488281 6.691406 1.488281 Z M 6.691406 1.488281 "/>
<path style=" stroke:none;fill-rule:nonzero;fill:rgb(0%,0%,0%);fill-opacity:1;" d="M 6.078125 3.8125 L 15.933594 3.8125 L 15.933594 17.214844 L 6.078125 17.214844 Z M 6.078125 3.8125 "/>
<path style=" stroke:none;fill-rule:nonzero;fill:rgb(20%,20%,20%);fill-opacity:1;" d="M 9.675781 2.449219 L 12.335938 2.449219 C 12.40625 2.449219 12.46875 2.535156 12.46875 2.644531 L 12.46875 2.683594 C 12.46875 2.792969 12.40625 2.878906 12.335938 2.878906 L 9.675781 2.878906 C 9.601562 2.878906 9.542969 2.792969 9.542969 2.683594 L 9.542969 2.644531 C 9.542969 2.535156 9.601562 2.449219 9.675781 2.449219 Z M 9.675781 2.449219 "/>
<path style=" stroke:none;fill-rule:nonzero;fill:rgb(40%,40%,40%);fill-opacity:1;" d="M 9.183594 2.636719 C 9.183594 2.902344 8.972656 3.113281 8.710938 3.113281 C 8.445312 3.113281 8.234375 2.902344 8.234375 2.636719 C 8.234375 2.375 8.445312 2.164062 8.710938 2.164062 C 8.972656 2.164062 9.183594 2.375 9.183594 2.636719 Z M 9.183594 2.636719 "/>
<path style=" stroke:none;fill-rule:nonzero;fill:rgb(40%,40%,40%);fill-opacity:1;" d="M 9.183594 2.636719 C 9.183594 2.902344 8.972656 3.113281 8.710938 3.113281 C 8.445312 3.113281 8.234375 2.902344 8.234375 2.636719 C 8.234375 2.375 8.445312 2.164062 8.710938 2.164062 C 8.972656 2.164062 9.183594 2.375 9.183594 2.636719 Z M 9.183594 2.636719 "/>
<path style=" stroke:none;fill-rule:nonzero;fill:rgb(80%,80%,80%);fill-opacity:1;" d="M 9.046875 2.636719 C 9.046875 2.824219 8.894531 2.972656 8.710938 2.972656 C 8.523438 2.972656 8.375 2.824219 8.375 2.636719 C 8.375 2.453125 8.523438 2.300781 8.710938 2.300781 C 8.894531 2.300781 9.046875 2.453125 9.046875 2.636719 Z M 9.046875 2.636719 "/>
<path style=" stroke:none;fill-rule:nonzero;fill:rgb(100%,100%,100%);fill-opacity:1;" d="M 8.730469 2.546875 C 8.730469 2.609375 8.679688 2.660156 8.617188 2.660156 C 8.558594 2.660156 8.507812 2.609375 8.507812 2.546875 C 8.507812 2.484375 8.558594 2.433594 8.617188 2.433594 C 8.679688 2.433594 8.730469 2.484375 8.730469 2.546875 Z M 8.730469 2.546875 "/>
<path style=" stroke:none;fill-rule:nonzero;fill:rgb(0%,20%,50.196078%);fill-opacity:1;" d="M 6.238281 3.929688 L 15.773438 3.929688 L 15.773438 17.097656 L 6.238281 17.097656 Z M 6.238281 3.929688 "/>
<path style=" stroke:none;fill-rule:nonzero;fill:rgb(70.196078%,70.196078%,70.196078%);fill-opacity:1;" d="M 12.3125 18.757812 C 12.3125 19.484375 11.722656 20.070312 11 20.070312 C 10.277344 20.070312 9.6875 19.484375 9.6875 18.757812 C 9.6875 18.035156 10.277344 17.449219 11 17.449219 C 11.722656 17.449219 12.3125 18.035156 12.3125 18.757812 Z M 12.3125 18.757812 "/>
<path style=" stroke:none;fill-rule:nonzero;fill:rgb(20%,20%,20%);fill-opacity:1;" d="M 10.320312 2.035156 L 11.691406 2.035156 C 11.730469 2.035156 11.757812 2.082031 11.757812 2.136719 L 11.757812 2.15625 C 11.757812 2.214844 11.730469 2.257812 11.691406 2.257812 L 10.320312 2.257812 C 10.28125 2.257812 10.25 2.214844 10.25 2.15625 L 10.25 2.136719 C 10.25 2.082031 10.28125 2.035156 10.320312 2.035156 Z M 10.320312 2.035156 "/>
<path style=" stroke:none;fill-rule:nonzero;fill:rgb(20%,20%,20%);fill-opacity:1;" d="M 10.402344 18.128906 C 10.363281 18.128906 10.332031 18.171875 10.332031 18.230469 L 10.332031 19.359375 C 10.332031 19.414062 10.363281 19.460938 10.402344 19.460938 L 11.597656 19.460938 C 11.636719 19.460938 11.667969 19.414062 11.667969 19.359375 L 11.667969 18.230469 C 11.667969 18.171875 11.636719 18.128906 11.597656 18.128906 Z M 10.507812 18.246094 L 11.492188 18.246094 C 11.523438 18.246094 11.546875 18.28125 11.546875 18.328125 L 11.546875 19.257812 C 11.546875 19.304688 11.523438 19.34375 11.492188 19.34375 L 10.507812 19.34375 C 10.476562 19.34375 10.453125 19.304688 10.453125 19.257812 L 10.453125 18.328125 C 10.453125 18.28125 10.476562 18.246094 10.507812 18.246094 Z M 10.507812 18.246094 "/>
</g>
</svg>
