<?xml version="1.0" encoding="UTF-8"?>
<svg xmlns="http://www.w3.org/2000/svg" xmlns:xlink="http://www.w3.org/1999/xlink" width="256pt" height="256pt" viewBox="0 0 256 256" version="1.1">
<g id="surface1">
<path style="fill-rule:nonzero;fill:rgb(70.196078%,70.196078%,70.196078%);fill-opacity:1;stroke-width:2.611469;stroke-linecap:butt;stroke-linejoin:miter;stroke:rgb(35.294118%,35.294118%,35.294118%);stroke-opacity:1;stroke-miterlimit:4;" d="M 7.833984 2.611084 L 40.166016 2.611084 C 43.051025 2.611084 45.388916 4.948975 45.388916 7.833984 L 45.388916 40.166016 C 45.388916 43.051025 43.051025 45.388916 40.166016 45.388916 L 7.833984 45.388916 C 4.948975 45.388916 2.611084 43.051025 2.611084 40.166016 L 2.611084 7.833984 C 2.611084 4.948975 4.948975 2.611084 7.833984 2.611084 Z M 7.833984 2.611084 " transform="matrix(5.333333,0,0,5.333333,0,0)"/>
<path style=" stroke:none;fill-rule:evenodd;fill:rgb(30.196078%,30.196078%,30.196078%);fill-opacity:1;" d="M 129.328125 139.847656 C 137.84375 139.28125 144.335938 131.988281 143.910156 123.460938 C 143.484375 114.933594 136.300781 108.324219 127.765625 108.609375 C 119.234375 108.890625 112.507812 115.964844 112.648438 124.5 C 112.789062 133.039062 119.75 139.882812 128.289062 139.882812 "/>
<path style="fill:none;stroke-width:3.131226;stroke-linecap:square;stroke-linejoin:bevel;stroke:rgb(30.196078%,30.196078%,30.196078%);stroke-opacity:1;stroke-miterlimit:4;" d="M -0.000350081 0.000331222 L -0.000350081 23.270529 " transform="matrix(3.853843,0,0,3.853843,128.317755,124.014349)"/>
<path style="fill:none;stroke-width:3.131226;stroke-linecap:square;stroke-linejoin:miter;stroke:rgb(30.196078%,30.196078%,30.196078%);stroke-opacity:1;stroke-miterlimit:2.012602;" d="M 17.904297 16.144034 C 21.156935 11.958886 20.581211 5.964463 16.591687 2.474643 C 12.602162 -1.015177 6.584427 -0.788131 2.868575 2.992592 C -0.846264 6.772301 -0.967896 12.794091 2.589835 16.722799 " transform="matrix(3.853843,0,0,3.853843,89.749651,86.877176)"/>
<path style="fill:none;stroke-width:3.131226;stroke-linecap:square;stroke-linejoin:miter;stroke:rgb(30.196078%,30.196078%,30.196078%);stroke-opacity:1;stroke-miterlimit:2.012602;" d="M 28.70364 25.882042 C 33.953067 19.127421 32.977985 9.443499 26.488927 3.870734 C 19.998855 -1.702031 10.278444 -1.201313 4.395517 5.007992 C -1.487409 11.217297 -1.462069 20.950885 4.452279 27.129782 " transform="matrix(3.853843,0,0,3.853843,66.185367,64.184361)"/>
<path style="fill:none;stroke-width:3.131226;stroke-linecap:square;stroke-linejoin:miter;stroke:rgb(30.196078%,30.196078%,30.196078%);stroke-opacity:1;stroke-miterlimit:2.012602;" d="M 39.250671 35.391216 C 46.411746 26.177605 45.104203 12.969401 36.274746 5.33903 C 27.446301 -2.29134 14.188431 -1.673045 6.108023 6.745905 C -1.971372 15.165869 -2.044351 28.43793 5.942806 36.945063 " transform="matrix(3.853843,0,0,3.853843,43.472358,42.271872)"/>
</g>
</svg>
