
<svg xmlns="http://www.w3.org/2000/svg" xmlns:xlink="http://www.w3.org/1999/xlink" width="22px" height="22px" viewBox="0 0 22 22" version="1.1">
<defs>
<filter id="alpha" filterUnits="objectBoundingBox" x="0%" y="0%" width="100%" height="100%">
  <feColorMatrix type="matrix" in="SourceGraphic" values="0 0 0 0 1 0 0 0 0 1 0 0 0 0 1 0 0 0 1 0"/>
</filter>
<mask id="mask0">
  <g filter="url(#alpha)">
<rect x="0" y="0" width="22" height="22" style="fill:rgb(0%,0%,0%);fill-opacity:0.121569;stroke:none;"/>
  </g>
</mask>
<clipPath id="clip1">
  <rect width="22" height="22"/>
</clipPath>
<g id="surface6" clip-path="url(#clip1)">
<path style=" stroke:none;fill-rule:evenodd;fill:rgb(0%,0%,0%);fill-opacity:1;" d="M 9.953125 3 L 9.953125 10.175781 L 5.132812 7.175781 L 3.5 8.238281 L 9.496094 12 L 3.410156 15.761719 L 5.316406 16.9375 L 9.953125 13.882812 L 9.953125 21 L 18.589844 15.761719 L 12.867188 12.058594 L 18.40625 8.410156 Z M 12.320312 6.472656 L 15.140625 8.46875 L 12.320312 10.234375 Z M 12.226562 13.945312 L 15.230469 15.703125 L 12.410156 17.289062 Z M 12.226562 13.945312 "/>
</g>
<mask id="mask1">
  <g filter="url(#alpha)">
<rect x="0" y="0" width="22" height="22" style="fill:rgb(0%,0%,0%);fill-opacity:0.4;stroke:none;"/>
  </g>
</mask>
<clipPath id="clip2">
  <rect width="22" height="22"/>
</clipPath>
<g id="surface9" clip-path="url(#clip2)">
<path style=" stroke:none;fill-rule:evenodd;fill:#4D4D4D;fill-opacity:1;" d="M 9.953125 2 L 9.953125 9.175781 L 5.132812 6.175781 L 3.5 7.238281 L 9.496094 11 L 3.410156 14.761719 L 5.316406 15.9375 L 9.953125 12.882812 L 9.953125 20 L 18.589844 14.761719 L 12.867188 11.058594 L 18.40625 7.410156 Z M 12.320312 5.472656 L 15.140625 7.46875 L 12.320312 9.234375 Z M 12.226562 12.945312 L 15.230469 14.703125 L 12.410156 16.289062 Z M 12.226562 12.945312 "/>
</g>
</defs>
<g id="surface1">
<use xlink:href="#surface6" mask="url(#mask0)"/>
<use xlink:href="#surface9" mask="url(#mask1)"/>
</g>
</svg>
