
<svg xmlns="http://www.w3.org/2000/svg" xmlns:xlink="http://www.w3.org/1999/xlink" width="22px" height="22px" viewBox="0 0 22 22" version="1.1">
<g id="surface1">
<path style=" stroke:none;fill-rule:nonzero;fill:rgb(0%,0%,0%);fill-opacity:0.301961;" d="M 6.5 4.5 L 2 8 L 6.5 11 L 2 15 L 11 21 L 20 15 L 15.5 11 L 20 8 L 15.5 4.5 L 11 8 Z M 8.8125 9 L 11.6875 9.75 L 10.15625 12.3125 L 9.75 11.3125 C 8.675781 11.789062 8 12.832031 8 14 C 8 15.210938 8.757812 16.316406 9.90625 16.75 L 9.375 18.125 C 7.652344 17.472656 6.5 15.8125 6.5 14 C 6.5 12.226562 7.570312 10.640625 9.21875 9.9375 Z M 12.65625 9.875 C 14.378906 10.550781 15.5 12.179688 15.5 14 C 15.5 15.761719 14.421875 17.371094 12.78125 18.0625 L 13.125 19 L 10.375 18.21875 L 11.84375 15.6875 L 12.21875 16.6875 C 13.285156 16.214844 14 15.15625 14 14 C 14 12.785156 13.273438 11.699219 12.125 11.25 Z M 12.65625 9.875 "/>
<path style=" stroke:none;fill-rule:nonzero;fill:#4D4D4D;fill-opacity:1;" d="M 6.5 3.5 L 2 7 L 6.5 10 L 2 14 L 11 20 L 20 14 L 15.5 10 L 20 7 L 15.5 3.5 L 11 7 Z M 8.8125 8 L 11.6875 8.75 L 10.15625 11.3125 L 9.75 10.3125 C 8.675781 10.789062 8 11.832031 8 13 C 8 14.210938 8.757812 15.316406 9.90625 15.75 L 9.375 17.125 C 7.652344 16.472656 6.5 14.8125 6.5 13 C 6.5 11.226562 7.570312 9.640625 9.21875 8.9375 Z M 12.65625 8.875 C 14.378906 9.550781 15.5 11.179688 15.5 13 C 15.5 14.761719 14.421875 16.371094 12.78125 17.0625 L 13.125 18 L 10.375 17.21875 L 11.84375 14.6875 L 12.21875 15.6875 C 13.285156 15.214844 14 14.15625 14 13 C 14 11.785156 13.273438 10.699219 12.125 10.25 Z M 12.65625 8.875 "/>
</g>
</svg>
