
<svg xmlns="http://www.w3.org/2000/svg" xmlns:xlink="http://www.w3.org/1999/xlink" width="22px" height="22px" viewBox="0 0 22 22" version="1.1">
<g id="surface1">
<path style=" stroke:none;fill-rule:nonzero;fill:rgb(0%,0%,0%);fill-opacity:0.301961;" d="M 19 4 C 18.445312 4 18 4.445312 18 5 L 18 19 C 18 19.554688 18.445312 20 19 20 C 19.554688 20 20 19.554688 20 19 L 20 5 C 20 4.445312 19.554688 4 19 4 Z M 15 9 C 14.445312 9 14 9.445312 14 10 L 14 19 C 14 19.554688 14.445312 20 15 20 C 15.554688 20 16 19.554688 16 19 L 16 10 C 16 9.445312 15.554688 9 15 9 Z M 0.5 12 C 0.429688 12 0.371094 12.007812 0.3125 12.03125 C 0.253906 12.058594 0.199219 12.113281 0.15625 12.15625 L 0.125 12.1875 C 0.09375 12.226562 0.0507812 12.265625 0.03125 12.3125 C -0.0664062 12.496094 -0.03125 12.71875 0.125 12.875 L 3 15.75 L 3 19.5 C 3 19.777344 3.222656 20 3.5 20 C 3.777344 20 4 19.777344 4 19.5 L 4 15.75 L 6.875 12.875 C 7.03125 12.71875 7.066406 12.496094 6.96875 12.3125 C 6.949219 12.265625 6.90625 12.226562 6.875 12.1875 L 6.84375 12.15625 C 6.753906 12.066406 6.621094 12.007812 6.5 12 Z M 1.71875 13 L 3 13 L 3 14.25 Z M 4 13 L 5.28125 13 L 4 14.28125 Z M 11 13 C 10.445312 13 10 13.445312 10 14 L 10 19 C 10 19.554688 10.445312 20 11 20 C 11.554688 20 12 19.554688 12 19 L 12 14 C 12 13.445312 11.554688 13 11 13 Z M 7 17 C 6.445312 17 6 17.445312 6 18 L 6 19 C 6 19.554688 6.445312 20 7 20 C 7.554688 20 8 19.554688 8 19 L 8 18 C 8 17.445312 7.554688 17 7 17 Z M 7 17 "/>
<path style=" stroke:none;fill-rule:nonzero;fill:#4D4D4D;fill-opacity:1;" d="M 19 3 C 19.550781 3 20 3.449219 20 4 L 20 18 C 20 18.550781 19.550781 19 19 19 C 18.449219 19 18 18.550781 18 18 L 18 4 C 18 3.449219 18.449219 3 19 3 Z M 19 3 "/>
<path style=" stroke:none;fill-rule:nonzero;fill:#4D4D4D;fill-opacity:1;" d="M 15 8 C 15.550781 8 16 8.449219 16 9 L 16 18 C 16 18.550781 15.550781 19 15 19 C 14.449219 19 14 18.550781 14 18 L 14 9 C 14 8.449219 14.449219 8 15 8 Z M 15 8 "/>
<path style=" stroke:none;fill-rule:nonzero;fill:#4D4D4D;fill-opacity:1;" d="M 11 12 C 11.550781 12 12 12.449219 12 13 L 12 18 C 12 18.550781 11.550781 19 11 19 C 10.449219 19 10 18.550781 10 18 L 10 13 C 10 12.449219 10.449219 12 11 12 Z M 11 12 "/>
<path style=" stroke:none;fill-rule:nonzero;fill:#4D4D4D;fill-opacity:1;" d="M 7 16 C 7.550781 16 8 16.449219 8 17 L 8 18 C 8 18.550781 7.550781 19 7 19 C 6.449219 19 6 18.550781 6 18 L 6 17 C 6 16.449219 6.449219 16 7 16 Z M 7 16 "/>
<path style=" stroke:none;fill-rule:nonzero;fill:#4D4D4D;fill-opacity:1;" d="M 0.5 11 C 0.429688 11 0.371094 11.007812 0.3125 11.03125 C 0.253906 11.058594 0.199219 11.113281 0.15625 11.15625 L 0.125 11.1875 C 0.09375 11.226562 0.0507812 11.265625 0.03125 11.3125 C -0.0664062 11.496094 -0.03125 11.71875 0.125 11.875 L 3 14.75 L 3 18.5 C 3 18.777344 3.222656 19 3.5 19 C 3.777344 19 4 18.777344 4 18.5 L 4 14.75 L 6.875 11.875 C 7.03125 11.71875 7.066406 11.496094 6.96875 11.3125 C 6.949219 11.265625 6.90625 11.226562 6.875 11.1875 L 6.84375 11.15625 C 6.753906 11.066406 6.621094 11.007812 6.5 11 Z M 1.71875 12 L 3 12 L 3 13.25 Z M 4 12 L 5.28125 12 L 4 13.28125 Z M 4 12 "/>
<path style=" stroke:none;fill-rule:nonzero;fill:rgb(0%,0%,0%);fill-opacity:0.301961;" d="M 19 14 C 17.890625 14 17 14.910156 17 16.03125 L 17 17 C 16.445312 17 16 17.445312 16 18 L 16 21 C 16 21.554688 16.445312 22 17 22 L 21 22 C 21.554688 22 22 21.554688 22 21 L 22 18 C 22 17.445312 21.554688 17 21 17 L 21 16.03125 C 21 14.910156 20.109375 14 19 14 Z M 19 15 C 19.554688 15 20 15.441406 20 16 L 20 17 L 18 17 L 18 16 C 18 15.441406 18.445312 15 19 15 Z M 19 15 "/>
<path style=" stroke:none;fill-rule:nonzero;fill:#4D4D4D;fill-opacity:1;" d="M 19 13 C 17.890625 13 17 13.910156 17 15.03125 L 17 16 C 16.445312 16 16 16.445312 16 17 L 16 20 C 16 20.554688 16.445312 21 17 21 L 21 21 C 21.554688 21 22 20.554688 22 20 L 22 17 C 22 16.445312 21.554688 16 21 16 L 21 15.03125 C 21 13.910156 20.109375 13 19 13 Z M 19 14 C 19.554688 14 20 14.441406 20 15 L 20 16 L 18 16 L 18 15 C 18 14.441406 18.445312 14 19 14 Z M 19 14 "/>
</g>
</svg>
