
<svg xmlns="http://www.w3.org/2000/svg" xmlns:xlink="http://www.w3.org/1999/xlink" width="22px" height="22px" viewBox="0 0 22 22" version="1.1">
<g id="surface1">
<path style=" stroke:none;fill-rule:evenodd;fill:rgb(0%,0%,0%);fill-opacity:0.301961;" d="M 9.777344 3 C 7.070312 3 4.890625 4.785156 4.890625 7 L 4.890625 10 L 3.667969 10 C 2.988281 10 2.445312 10.445312 2.445312 11 L 2.445312 20 C 2.445312 20.554688 2.988281 21 3.667969 21 L 18.332031 21 C 19.011719 21 19.554688 20.554688 19.554688 20 L 19.554688 11 C 19.554688 10.445312 19.011719 10 18.332031 10 L 17.109375 10 L 17.109375 7 C 17.109375 4.785156 14.929688 3 12.222656 3 Z M 9.777344 5 L 12.222656 5 C 13.578125 5 14.667969 5.890625 14.667969 7 L 14.667969 10 L 7.332031 10 L 7.332031 7 C 7.332031 5.890625 8.421875 5 9.777344 5 Z M 9.777344 5 "/>
<path style=" stroke:none;fill-rule:evenodd;fill:#4D4D4D;fill-opacity:1;" d="M 9.777344 1.984375 C 7.070312 1.984375 4.890625 3.765625 4.890625 5.984375 L 4.890625 8.984375 L 3.667969 8.984375 C 2.988281 8.984375 2.445312 9.429688 2.445312 9.984375 L 2.445312 18.984375 C 2.445312 19.535156 2.988281 19.984375 3.667969 19.984375 L 18.332031 19.984375 C 19.011719 19.984375 19.554688 19.535156 19.554688 18.984375 L 19.554688 9.984375 C 19.554688 9.429688 19.011719 8.984375 18.332031 8.984375 L 17.109375 8.984375 L 17.109375 5.984375 C 17.109375 3.765625 14.929688 1.984375 12.222656 1.984375 Z M 9.777344 3.984375 L 12.222656 3.984375 C 13.578125 3.984375 14.667969 4.875 14.667969 5.984375 L 14.667969 8.984375 L 7.332031 8.984375 L 7.332031 5.984375 C 7.332031 4.875 8.421875 3.984375 9.777344 3.984375 Z M 9.777344 3.984375 "/>
</g>
</svg>
