
<svg xmlns="http://www.w3.org/2000/svg" xmlns:xlink="http://www.w3.org/1999/xlink" width="48px" height="48px" viewBox="0 0 48 48" version="1.1">
<g id="surface1">
<path style="fill-rule:nonzero;fill:rgb(92.54902%,92.54902%,92.54902%);fill-opacity:1;stroke-width:27.983692;stroke-linecap:butt;stroke-linejoin:miter;stroke:#A9A9A9;stroke-opacity:1;stroke-miterlimit:4;" d="M 82.75 26.791667 L 429.25 26.791667 C 460.125 26.791667 485.208333 51.875 485.208333 82.75 L 485.208333 429.25 C 485.208333 460.125 460.125 485.208333 429.25 485.208333 L 82.75 485.208333 C 51.875 485.208333 26.791667 460.125 26.791667 429.25 L 26.791667 82.75 C 26.791667 51.875 51.875 26.791667 82.75 26.791667 Z M 82.75 26.791667 " transform="matrix(0.09375,0,0,0.09375,0,0)"/>
<path style=" stroke:none;fill-rule:nonzero;fill:rgb(42.745098%,47.843137%,49.803922%);fill-opacity:1;" d="M 12.082031 14.816406 L 35.917969 14.816406 C 36.765625 14.816406 37.453125 15.367188 37.453125 16.046875 L 37.453125 39.753906 C 37.453125 40.433594 36.765625 40.984375 35.917969 40.984375 L 12.082031 40.984375 C 11.234375 40.984375 10.546875 40.433594 10.546875 39.753906 L 10.546875 16.046875 C 10.546875 15.367188 11.234375 14.816406 12.082031 14.816406 Z M 12.082031 14.816406 "/>
<path style=" stroke:none;fill-rule:nonzero;fill:rgb(8.235294%,28.627451%,36.470588%);fill-opacity:1;" d="M 12.550781 38.625 L 23.863281 38.625 C 24.097656 38.625 24.289062 38.777344 24.289062 38.964844 L 24.289062 39.632812 C 24.289062 39.820312 24.097656 39.96875 23.863281 39.96875 L 12.550781 39.96875 C 12.320312 39.96875 12.128906 39.820312 12.128906 39.632812 L 12.128906 38.964844 C 12.128906 38.777344 12.320312 38.625 12.550781 38.625 Z M 12.550781 38.625 "/>
<path style=" stroke:none;fill-rule:nonzero;fill:rgb(81.960784%,82.352941%,82.745098%);fill-opacity:1;" d="M 32.171875 39.296875 C 32.171875 39.628906 31.835938 39.898438 31.421875 39.898438 C 31.003906 39.898438 30.667969 39.628906 30.667969 39.296875 C 30.667969 38.964844 31.003906 38.691406 31.421875 38.691406 C 31.835938 38.691406 32.171875 38.964844 32.171875 39.296875 Z M 32.171875 39.296875 "/>
<path style=" stroke:none;fill-rule:nonzero;fill:rgb(81.960784%,82.352941%,82.745098%);fill-opacity:1;" d="M 34.496094 39.296875 C 34.496094 39.628906 34.160156 39.898438 33.746094 39.898438 C 33.328125 39.898438 32.992188 39.628906 32.992188 39.296875 C 32.992188 38.960938 33.328125 38.691406 33.746094 38.691406 C 34.160156 38.691406 34.496094 38.960938 34.496094 39.296875 Z M 34.496094 39.296875 "/>
<path style=" stroke:none;fill-rule:nonzero;fill:rgb(42.745098%,47.843137%,49.803922%);fill-opacity:1;" d="M 12.082031 12.226562 L 35.917969 12.226562 C 36.765625 12.226562 37.453125 12.777344 37.453125 13.457031 L 37.453125 37.164062 C 37.453125 37.84375 36.765625 38.394531 35.917969 38.394531 L 12.082031 38.394531 C 11.234375 38.394531 10.546875 37.84375 10.546875 37.164062 L 10.546875 13.457031 C 10.546875 12.777344 11.234375 12.226562 12.082031 12.226562 Z M 12.082031 12.226562 "/>
<path style=" stroke:none;fill-rule:nonzero;fill:rgb(8.235294%,28.627451%,36.470588%);fill-opacity:1;" d="M 12.550781 36.035156 L 23.863281 36.035156 C 24.097656 36.035156 24.289062 36.183594 24.289062 36.371094 L 24.289062 37.039062 C 24.289062 37.226562 24.097656 37.378906 23.863281 37.378906 L 12.550781 37.378906 C 12.320312 37.378906 12.128906 37.226562 12.128906 37.039062 L 12.128906 36.371094 C 12.128906 36.183594 12.320312 36.035156 12.550781 36.035156 Z M 12.550781 36.035156 "/>
<path style=" stroke:none;fill-rule:nonzero;fill:rgb(81.960784%,82.352941%,82.745098%);fill-opacity:1;" d="M 32.171875 36.703125 C 32.171875 37.039062 31.835938 37.308594 31.421875 37.308594 C 31.003906 37.308594 30.667969 37.039062 30.667969 36.703125 C 30.667969 36.371094 31.003906 36.101562 31.421875 36.101562 C 31.835938 36.101562 32.171875 36.371094 32.171875 36.703125 Z M 32.171875 36.703125 "/>
<path style=" stroke:none;fill-rule:nonzero;fill:rgb(81.960784%,82.352941%,82.745098%);fill-opacity:1;" d="M 34.496094 36.703125 C 34.496094 37.035156 34.160156 37.308594 33.746094 37.308594 C 33.328125 37.308594 32.992188 37.035156 32.992188 36.703125 C 32.992188 36.371094 33.328125 36.101562 33.746094 36.101562 C 34.160156 36.101562 34.496094 36.371094 34.496094 36.703125 Z M 34.496094 36.703125 "/>
<path style=" stroke:none;fill-rule:nonzero;fill:rgb(42.745098%,47.843137%,49.803922%);fill-opacity:1;" d="M 12.082031 9.675781 L 35.917969 9.675781 C 36.765625 9.675781 37.453125 10.226562 37.453125 10.90625 L 37.453125 34.613281 C 37.453125 35.292969 36.765625 35.84375 35.917969 35.84375 L 12.082031 35.84375 C 11.234375 35.84375 10.546875 35.292969 10.546875 34.613281 L 10.546875 10.90625 C 10.546875 10.226562 11.234375 9.675781 12.082031 9.675781 Z M 12.082031 9.675781 "/>
<path style=" stroke:none;fill-rule:nonzero;fill:rgb(8.235294%,28.627451%,36.470588%);fill-opacity:1;" d="M 12.550781 33.484375 L 23.863281 33.484375 C 24.097656 33.484375 24.289062 33.636719 24.289062 33.824219 L 24.289062 34.492188 C 24.289062 34.679688 24.097656 34.828125 23.863281 34.828125 L 12.550781 34.828125 C 12.316406 34.828125 12.128906 34.679688 12.128906 34.492188 L 12.128906 33.824219 C 12.128906 33.636719 12.316406 33.484375 12.550781 33.484375 Z M 12.550781 33.484375 "/>
<path style=" stroke:none;fill-rule:nonzero;fill:rgb(81.960784%,82.352941%,82.745098%);fill-opacity:1;" d="M 32.171875 34.15625 C 32.171875 34.488281 31.835938 34.757812 31.421875 34.757812 C 31.003906 34.757812 30.667969 34.488281 30.667969 34.15625 C 30.667969 33.824219 31.003906 33.550781 31.421875 33.550781 C 31.835938 33.550781 32.171875 33.824219 32.171875 34.15625 Z M 32.171875 34.15625 "/>
<path style=" stroke:none;fill-rule:nonzero;fill:rgb(81.960784%,82.352941%,82.745098%);fill-opacity:1;" d="M 34.496094 34.15625 C 34.496094 34.488281 34.160156 34.757812 33.746094 34.757812 C 33.328125 34.757812 32.992188 34.488281 32.992188 34.15625 C 32.992188 33.820312 33.328125 33.550781 33.746094 33.550781 C 34.160156 33.550781 34.496094 33.820312 34.496094 34.15625 Z M 34.496094 34.15625 "/>
<path style=" stroke:none;fill-rule:nonzero;fill:rgb(42.745098%,47.843137%,49.803922%);fill-opacity:1;" d="M 12.082031 7.085938 L 35.917969 7.085938 C 36.765625 7.085938 37.453125 7.636719 37.453125 8.316406 L 37.453125 32.023438 C 37.453125 32.703125 36.765625 33.253906 35.917969 33.253906 L 12.082031 33.253906 C 11.234375 33.253906 10.546875 32.703125 10.546875 32.023438 L 10.546875 8.316406 C 10.546875 7.636719 11.234375 7.085938 12.082031 7.085938 Z M 12.082031 7.085938 "/>
<path style=" stroke:none;fill-rule:nonzero;fill:rgb(8.235294%,28.627451%,36.470588%);fill-opacity:1;" d="M 12.550781 30.894531 L 23.863281 30.894531 C 24.097656 30.894531 24.289062 31.042969 24.289062 31.230469 L 24.289062 31.898438 C 24.289062 32.085938 24.097656 32.238281 23.863281 32.238281 L 12.550781 32.238281 C 12.316406 32.238281 12.128906 32.085938 12.128906 31.898438 L 12.128906 31.230469 C 12.128906 31.042969 12.316406 30.894531 12.550781 30.894531 Z M 12.550781 30.894531 "/>
<path style=" stroke:none;fill-rule:nonzero;fill:rgb(81.960784%,82.352941%,82.745098%);fill-opacity:1;" d="M 32.171875 31.5625 C 32.171875 31.898438 31.835938 32.167969 31.421875 32.167969 C 31.003906 32.167969 30.667969 31.898438 30.667969 31.5625 C 30.667969 31.230469 31.003906 30.960938 31.421875 30.960938 C 31.835938 30.960938 32.171875 31.230469 32.171875 31.5625 Z M 32.171875 31.5625 "/>
<path style=" stroke:none;fill-rule:nonzero;fill:rgb(81.960784%,82.352941%,82.745098%);fill-opacity:1;" d="M 34.496094 31.5625 C 34.496094 31.894531 34.160156 32.167969 33.746094 32.167969 C 33.328125 32.167969 32.992188 31.894531 32.992188 31.5625 C 32.992188 31.230469 33.328125 30.960938 33.746094 30.960938 C 34.160156 30.960938 34.496094 31.230469 34.496094 31.5625 Z M 34.496094 31.5625 "/>
<path style=" stroke:none;fill-rule:nonzero;fill:#A9A9A9;fill-opacity:1;" d="M 12.082031 7.015625 L 35.917969 7.015625 C 36.765625 7.015625 37.453125 7.496094 37.453125 8.09375 L 37.453125 28.871094 C 37.453125 29.46875 36.765625 29.949219 35.917969 29.949219 L 12.082031 29.949219 C 11.234375 29.949219 10.546875 29.46875 10.546875 28.871094 L 10.546875 8.09375 C 10.546875 7.496094 11.234375 7.015625 12.082031 7.015625 Z M 12.082031 7.015625 "/>
<path style=" stroke:none;fill-rule:nonzero;fill:rgb(92.156863%,92.156863%,92.156863%);fill-opacity:1;" d="M 30.945312 24.050781 C 32.863281 22.511719 33.820312 20.65625 33.820312 18.484375 C 33.820312 16.308594 32.863281 14.453125 30.945312 12.917969 C 29.027344 11.378906 26.714844 10.609375 24 10.609375 C 21.289062 10.609375 18.972656 11.378906 17.054688 12.917969 C 15.136719 14.453125 14.179688 16.308594 14.179688 18.484375 C 14.179688 20.65625 15.136719 22.511719 17.054688 24.050781 C 18.972656 25.585938 21.289062 26.355469 24 26.355469 C 26.714844 26.355469 29.027344 25.585938 30.945312 24.050781 Z M 30.945312 24.050781 "/>
</g>
</svg>
