<?xml version="1.0" encoding="UTF-8"?>
<svg xmlns="http://www.w3.org/2000/svg" xmlns:xlink="http://www.w3.org/1999/xlink" width="48pt" height="48pt" viewBox="0 0 48 48" version="1.1">
<g id="surface1">
<path style="fill-rule:nonzero;fill:rgb(92.54902%,92.54902%,92.54902%);fill-opacity:1;stroke-width:27.983692;stroke-linecap:butt;stroke-linejoin:miter;stroke:#A9A9A9;stroke-opacity:1;stroke-miterlimit:4;" d="M 82.75 26.791667 L 429.25 26.791667 C 460.125 26.791667 485.208333 51.875 485.208333 82.75 L 485.208333 429.25 C 485.208333 460.125 460.125 485.208333 429.25 485.208333 L 82.75 485.208333 C 51.875 485.208333 26.791667 460.125 26.791667 429.25 L 26.791667 82.75 C 26.791667 51.875 51.875 26.791667 82.75 26.791667 Z M 82.75 26.791667 " transform="matrix(0.09375,0,0,0.09375,0,0)"/>
<path style=" stroke:none;fill-rule:nonzero;fill:rgb(42.745098%,47.843137%,49.803922%);fill-opacity:1;" d="M 11.332031 6.695312 L 36.667969 6.695312 C 37.566406 6.695312 38.300781 7.425781 38.300781 8.328125 L 38.300781 39.765625 C 38.300781 40.667969 37.566406 41.398438 36.667969 41.398438 L 11.332031 41.398438 C 10.429688 41.398438 9.699219 40.667969 9.699219 39.765625 L 9.699219 8.328125 C 9.699219 7.425781 10.429688 6.695312 11.332031 6.695312 Z M 11.332031 6.695312 "/>
<path style=" stroke:none;fill-rule:nonzero;fill:rgb(8.235294%,28.627451%,36.470588%);fill-opacity:1;" d="M 11.832031 38.265625 L 23.855469 38.265625 C 24.105469 38.265625 24.304688 38.46875 24.304688 38.714844 L 24.304688 39.601562 C 24.304688 39.851562 24.105469 40.050781 23.855469 40.050781 L 11.832031 40.050781 C 11.585938 40.050781 11.382812 39.851562 11.382812 39.601562 L 11.382812 38.714844 C 11.382812 38.46875 11.585938 38.265625 11.832031 38.265625 Z M 11.832031 38.265625 "/>
<path style=" stroke:none;fill-rule:nonzero;fill:#A9A9A9;fill-opacity:1;" d="M 11.332031 6.601562 L 36.667969 6.601562 C 37.570312 6.601562 38.300781 7.242188 38.300781 8.035156 L 38.300781 35.585938 C 38.300781 36.378906 37.570312 37.019531 36.667969 37.019531 L 11.332031 37.019531 C 10.433594 37.019531 9.699219 36.378906 9.699219 35.585938 L 9.699219 8.035156 C 9.699219 7.242188 10.433594 6.601562 11.332031 6.601562 Z M 11.332031 6.601562 "/>
<path style=" stroke:none;fill-rule:nonzero;fill:rgb(81.960784%,82.352941%,82.745098%);fill-opacity:1;" d="M 32.6875 39.15625 C 32.6875 39.597656 32.328125 39.957031 31.886719 39.957031 C 31.445312 39.957031 31.085938 39.597656 31.085938 39.15625 C 31.085938 38.714844 31.445312 38.355469 31.886719 38.355469 C 32.328125 38.355469 32.6875 38.714844 32.6875 39.15625 Z M 32.6875 39.15625 "/>
<path style=" stroke:none;fill-rule:nonzero;fill:rgb(81.960784%,82.352941%,82.745098%);fill-opacity:1;" d="M 35.15625 39.15625 C 35.15625 39.597656 34.796875 39.957031 34.355469 39.957031 C 33.914062 39.957031 33.558594 39.597656 33.558594 39.15625 C 33.558594 38.714844 33.914062 38.355469 34.355469 38.355469 C 34.796875 38.355469 35.15625 38.714844 35.15625 39.15625 Z M 35.15625 39.15625 "/>
<path style=" stroke:none;fill-rule:nonzero;fill:rgb(92.156863%,92.156863%,92.156863%);fill-opacity:1;" d="M 31.382812 29.199219 C 33.417969 27.164062 34.4375 24.703125 34.4375 21.820312 C 34.4375 18.933594 33.421875 16.476562 31.382812 14.4375 C 29.34375 12.398438 26.882812 11.378906 24 11.378906 C 21.117188 11.378906 18.65625 12.398438 16.617188 14.4375 C 14.578125 16.476562 13.5625 18.933594 13.5625 21.820312 C 13.5625 24.703125 14.578125 27.160156 16.617188 29.199219 C 18.65625 31.238281 21.117188 32.257812 24 32.257812 C 26.882812 32.257812 29.34375 31.238281 31.382812 29.199219 Z M 31.382812 29.199219 "/>
<path style="fill-rule:nonzero;fill:rgb(21.176471%,48.235294%,94.117647%);fill-opacity:1;stroke-width:5.063694;stroke-linecap:butt;stroke-linejoin:miter;stroke:rgb(21.176471%,48.235294%,94.117647%);stroke-opacity:1;stroke-miterlimit:0;" d="M 272.022668 -857.075371 L 295.160981 -857.075371 L 295.160981 -833.836017 L 272.022668 -833.836017 Z M 272.022668 -857.075371 " transform="matrix(0,-0.0773204,0.0773204,0,91.44515,40.200857)"/>
<path style="fill-rule:nonzero;fill:rgb(21.176471%,48.235294%,94.117647%);fill-opacity:1;stroke-width:5.063694;stroke-linecap:butt;stroke-linejoin:miter;stroke:rgb(21.176471%,48.235294%,94.117647%);stroke-opacity:1;stroke-miterlimit:0;" d="M -874.706967 -184.521448 C -865.411226 -184.521448 -857.833176 -176.943398 -857.833176 -167.647656 C -857.833176 -158.351915 -865.411226 -150.824385 -874.706967 -150.824385 C -884.002709 -150.824385 -891.580759 -158.351915 -891.580759 -167.647656 C -891.580759 -176.943398 -884.002709 -184.521448 -874.706967 -184.521448 Z M -874.706967 -184.521448 " transform="matrix(0.0773204,0,0,0.0773204,91.44515,40.200857)"/>
<path style="fill-rule:nonzero;fill:rgb(21.176471%,48.235294%,94.117647%);fill-opacity:1;stroke-width:5.063694;stroke-linecap:butt;stroke-linejoin:miter;stroke:rgb(21.176471%,48.235294%,94.117647%);stroke-opacity:1;stroke-miterlimit:0;" d="M -903.8572 -268.334683 C -897.69372 -268.334683 -892.641686 -263.33317 -892.641686 -257.119169 C -892.641686 -250.955688 -897.69372 -245.903655 -903.8572 -245.903655 C -910.071202 -245.903655 -915.072715 -250.955688 -915.072715 -257.119169 C -915.072715 -263.33317 -910.071202 -268.334683 -903.8572 -268.334683 Z M -903.8572 -268.334683 " transform="matrix(0.0773204,0,0,0.0773204,91.44515,40.200857)"/>
<path style="fill-rule:evenodd;fill:rgb(21.176471%,48.235294%,94.117647%);fill-opacity:1;stroke-width:5.063694;stroke-linecap:butt;stroke-linejoin:miter;stroke:rgb(21.176471%,48.235294%,94.117647%);stroke-opacity:1;stroke-miterlimit:0;" d="M -885.366758 -309.155114 C -885.366758 -309.155114 -874.858528 -331.838744 -874.555406 -331.485101 C -874.302805 -331.131459 -864.097697 -309.155114 -864.097697 -309.155114 Z M -885.366758 -309.155114 " transform="matrix(0.0773204,0,0,0.0773204,91.44515,40.200857)"/>
<path style="fill:none;stroke-width:9.140923;stroke-linecap:butt;stroke-linejoin:miter;stroke:rgb(21.176471%,48.235294%,94.117647%);stroke-opacity:1;stroke-miterlimit:0;" d="M -875.11113 -189.522961 C -876.980382 -209.427973 -903.907721 -219.48152 -903.907721 -231.050676 C -903.907721 -238.881328 -903.554078 -242.316711 -903.554078 -252.269217 " transform="matrix(0.0773204,0,0,0.0773204,91.44515,40.200857)"/>
<path style="fill:none;stroke-width:9.140923;stroke-linecap:butt;stroke-linejoin:miter;stroke:rgb(21.176471%,48.235294%,94.117647%);stroke-opacity:1;stroke-miterlimit:0;" d="M -874.858528 -213.065437 C -874.858528 -233.677734 -855.45872 -238.527686 -845.809336 -253.835347 C -844.344246 -256.411884 -845.304133 -279.752279 -845.304133 -281.217369 " transform="matrix(0.0773204,0,0,0.0773204,91.44515,40.200857)"/>
<path style="fill:none;stroke-width:9.140923;stroke-linecap:butt;stroke-linejoin:miter;stroke:rgb(21.176471%,48.235294%,94.117647%);stroke-opacity:1;stroke-miterlimit:0;" d="M -874.959569 -168.20338 L -874.959569 -314.914432 " transform="matrix(0.0773204,0,0,0.0773204,91.44515,40.200857)"/>
</g>
</svg>
