
<svg xmlns="http://www.w3.org/2000/svg" xmlns:xlink="http://www.w3.org/1999/xlink" width="24px" height="24px" viewBox="0 0 24 24" version="1.1">
<g id="surface1">
<path style="fill-rule:nonzero;fill:rgb(80%,80%,80%);fill-opacity:1;stroke-width:1;stroke-linecap:butt;stroke-linejoin:miter;stroke:rgb(23.137255%,20.392157%,20.392157%);stroke-opacity:1;stroke-miterlimit:4;" d="M 309.916667 42.416667 C 287.166667 42.416667 268.416667 63.333333 264.75 91 L 444.583333 91 C 440.833333 63.333333 422.166667 42.416667 399.416667 42.416667 Z M 309.916667 42.416667 " transform="matrix(0.046875,0,0,0.046875,0,0)"/>
<path style=" stroke:none;fill-rule:nonzero;fill:#FF5555;fill-opacity:1;" d="M 3.089844 4.628906 L 20.910156 4.628906 C 22.320312 4.628906 23.460938 5.773438 23.460938 7.1875 L 23.460938 16.164062 C 23.460938 17.578125 22.320312 18.722656 20.910156 18.722656 L 3.089844 18.722656 C 1.679688 18.722656 0.539062 17.578125 0.539062 16.164062 L 0.539062 7.1875 C 0.539062 5.773438 1.679688 4.628906 3.089844 4.628906 Z M 3.089844 4.628906 "/>
<path style=" stroke:none;fill-rule:nonzero;fill:#FF5555;fill-opacity:1;" d="M 3.089844 7.917969 L 20.910156 7.917969 C 22.320312 7.917969 23.460938 9.0625 23.460938 10.476562 L 23.460938 19.453125 C 23.460938 20.863281 22.320312 22.011719 20.910156 22.011719 L 3.089844 22.011719 C 1.679688 22.011719 0.539062 20.863281 0.539062 19.453125 L 0.539062 10.476562 C 0.539062 9.0625 1.679688 7.917969 3.089844 7.917969 Z M 3.089844 7.917969 "/>
<path style=" stroke:none;fill-rule:nonzero;fill:rgb(100%,100%,100%);fill-opacity:1;" d="M 8.398438 7.964844 C 8.207031 7.964844 8.054688 8.117188 8.054688 8.308594 L 8.054688 17.875 C 8.054688 18.070312 8.207031 18.21875 8.398438 18.21875 L 15.601562 18.21875 C 15.792969 18.21875 15.945312 18.070312 15.945312 17.875 L 15.945312 11.019531 L 12.886719 11.019531 L 12.886719 7.964844 Z M 9.054688 9.363281 L 11.78125 9.363281 L 11.78125 9.957031 L 9.054688 9.957031 Z M 9.054688 10.941406 L 11.78125 10.941406 L 11.78125 11.535156 L 9.054688 11.535156 Z M 9.054688 12.519531 L 15.015625 12.519531 L 15.015625 13.113281 L 9.054688 13.113281 Z M 9.054688 14.09375 L 15.015625 14.09375 L 15.015625 14.691406 L 9.054688 14.691406 Z M 9.054688 15.671875 L 15.015625 15.671875 L 15.015625 16.269531 L 9.054688 16.269531 Z M 9.054688 15.671875 "/>
<path style=" stroke:none;fill-rule:nonzero;fill:rgb(100%,100%,100%);fill-opacity:1;" d="M 13.972656 7.964844 L 13.972656 9.9375 L 15.945312 9.9375 M 13.972656 7.964844 "/>
</g>
</svg>
