<?xml version="1.0" encoding="UTF-8"?>
<svg xmlns="http://www.w3.org/2000/svg" xmlns:xlink="http://www.w3.org/1999/xlink" width="32pt" height="32pt" viewBox="0 0 32 32" version="1.1">
<g id="surface1">
<path style=" stroke:none;fill-rule:nonzero;fill:rgb(30.196078%,30.196078%,30.196078%);fill-opacity:1;" d="M 6.546875 4.363281 C 5.335938 4.363281 4.363281 5.335938 4.363281 6.546875 C 4.363281 7.496094 4.972656 8.292969 5.816406 8.59375 L 5.816406 23.273438 L 4.363281 23.273438 L 4.363281 27.636719 L 8.726562 27.636719 L 8.726562 26.183594 L 18.910156 26.183594 L 18.910156 24.726562 L 8.726562 24.726562 L 8.726562 23.273438 L 7.273438 23.273438 L 7.273438 8.59375 C 7.890625 8.375 8.375 7.886719 8.59375 7.273438 L 23.273438 7.273438 L 23.273438 8.726562 L 24.726562 8.726562 L 24.726562 18.910156 L 26.183594 18.910156 L 26.183594 8.726562 L 27.636719 8.726562 L 27.636719 4.363281 L 23.273438 4.363281 L 23.273438 5.816406 L 8.59375 5.816406 C 8.292969 4.972656 7.496094 4.363281 6.546875 4.363281 Z M 6.546875 5.816406 C 6.949219 5.816406 7.273438 6.140625 7.273438 6.546875 C 7.273438 6.949219 6.949219 7.273438 6.546875 7.273438 C 6.140625 7.273438 5.816406 6.949219 5.816406 6.546875 C 5.816406 6.140625 6.140625 5.816406 6.546875 5.816406 Z M 24.726562 5.816406 L 26.183594 5.816406 L 26.183594 7.273438 L 24.726562 7.273438 Z M 23.273438 20.363281 L 23.273438 23.273438 L 20.363281 23.273438 L 20.363281 24.726562 L 23.273438 24.726562 L 23.273438 27.636719 L 24.726562 27.636719 L 24.726562 24.726562 L 27.636719 24.726562 L 27.636719 23.273438 L 24.726562 23.273438 L 24.726562 20.363281 Z M 5.816406 24.726562 L 7.273438 24.726562 L 7.273438 26.183594 L 5.816406 26.183594 Z M 5.816406 24.726562 "/>
</g>
</svg>
