<?xml version="1.0" encoding="UTF-8"?>
<svg xmlns="http://www.w3.org/2000/svg" xmlns:xlink="http://www.w3.org/1999/xlink" width="32pt" height="32pt" viewBox="0 0 32 32" version="1.1">
<g id="surface1">
<path style=" stroke:none;fill-rule:nonzero;fill:rgb(30.196078%,30.196078%,30.196078%);fill-opacity:1;" d="M 14.546875 4.363281 L 14.546875 7.402344 C 13.21875 7.625 11.992188 8.140625 10.941406 8.886719 L 8.800781 6.746094 L 6.746094 8.800781 L 8.886719 10.941406 C 8.140625 11.992188 7.625 13.21875 7.402344 14.546875 L 4.363281 14.546875 L 4.363281 17.453125 L 7.402344 17.453125 C 7.625 18.78125 8.140625 20.007812 8.886719 21.058594 L 6.746094 23.199219 L 8.800781 25.253906 L 10.941406 23.113281 C 11.992188 23.859375 13.21875 24.375 14.546875 24.597656 L 14.546875 27.636719 L 17.453125 27.636719 L 17.453125 24.597656 C 18.78125 24.375 20.007812 23.859375 21.058594 23.113281 L 23.199219 25.253906 L 25.253906 23.199219 L 23.113281 21.058594 C 23.859375 20.007812 24.375 18.78125 24.597656 17.453125 L 27.636719 17.453125 L 27.636719 14.546875 L 24.597656 14.546875 C 24.375 13.21875 23.859375 11.992188 23.113281 10.941406 L 25.253906 8.800781 L 23.199219 6.746094 L 21.058594 8.886719 C 20.007812 8.140625 18.78125 7.625 17.453125 7.402344 L 17.453125 4.363281 Z M 16 8.726562 C 17.984375 8.726562 19.773438 9.519531 21.082031 10.796875 L 21.203125 10.917969 C 22.480469 12.226562 23.273438 14.015625 23.273438 16 C 23.273438 17.984375 22.480469 19.773438 21.203125 21.082031 L 21.082031 21.203125 C 19.773438 22.480469 17.984375 23.273438 16 23.273438 C 14.015625 23.273438 12.226562 22.480469 10.917969 21.203125 L 10.796875 21.082031 C 9.519531 19.773438 8.726562 17.984375 8.726562 16 C 8.726562 14.015625 9.519531 12.226562 10.796875 10.917969 L 10.917969 10.796875 C 12.226562 9.519531 14.015625 8.726562 16 8.726562 Z M 13.089844 13.089844 C 12.285156 13.089844 11.636719 13.738281 11.636719 14.546875 C 11.636719 15.351562 12.285156 16 13.089844 16 C 13.898438 16 14.546875 15.351562 14.546875 14.546875 C 14.546875 13.738281 13.898438 13.089844 13.089844 13.089844 Z M 18.910156 13.089844 C 18.101562 13.089844 17.453125 13.738281 17.453125 14.546875 C 17.453125 15.351562 18.101562 16 18.910156 16 C 19.714844 16 20.363281 15.351562 20.363281 14.546875 C 20.363281 13.738281 19.714844 13.089844 18.910156 13.089844 Z M 11.769531 17.058594 L 10.363281 17.410156 C 11.007812 19.996094 13.332031 21.8125 16 21.816406 C 18.667969 21.816406 20.992188 20 21.640625 17.410156 L 20.226562 17.058594 C 19.742188 18.996094 18 20.359375 16 20.363281 C 14 20.363281 12.253906 19 11.769531 17.058594 Z M 11.769531 17.058594 "/>
</g>
</svg>
