<?xml version="1.0" encoding="UTF-8"?>
<svg xmlns="http://www.w3.org/2000/svg" xmlns:xlink="http://www.w3.org/1999/xlink" width="32pt" height="32pt" viewBox="0 0 32 32" version="1.1">
<g id="surface1">
<path style=" stroke:none;fill-rule:nonzero;fill:rgb(30.196078%,30.196078%,30.196078%);fill-opacity:1;" d="M 14.546875 4.363281 L 14.546875 5.816406 L 27.636719 5.816406 L 27.636719 4.363281 Z M 11.636719 8.726562 C 9.21875 8.726562 7.273438 10.671875 7.273438 13.089844 C 7.273438 15.507812 9.21875 17.453125 11.636719 17.453125 C 14.054688 17.453125 16 15.507812 16 13.089844 C 16 10.671875 14.054688 8.726562 11.636719 8.726562 Z M 17.453125 11.636719 L 17.453125 13.089844 L 27.636719 13.089844 L 27.636719 11.636719 Z M 11.636719 18.910156 C 7.605469 18.910156 4.363281 22.152344 4.363281 26.183594 L 4.363281 27.636719 L 18.910156 27.636719 L 18.910156 26.183594 C 18.910156 22.152344 15.664062 18.910156 11.636719 18.910156 Z M 18.910156 18.910156 L 18.910156 20.363281 L 27.636719 20.363281 L 27.636719 18.910156 Z M 11.636719 20.363281 C 14.859375 20.363281 17.453125 22.957031 17.453125 26.183594 L 5.816406 26.183594 C 5.816406 22.957031 8.414062 20.363281 11.636719 20.363281 Z M 11.636719 20.363281 "/>
</g>
</svg>
