
<svg xmlns="http://www.w3.org/2000/svg" xmlns:xlink="http://www.w3.org/1999/xlink" width="128px" height="128px" viewBox="0 0 128 128" version="1.1">
<g id="surface1">
<path style="fill-rule:nonzero;fill:rgb(80%,80%,80%);fill-opacity:1;stroke-width:1;stroke-linecap:butt;stroke-linejoin:miter;stroke:rgb(23.137255%,20.392157%,20.392157%);stroke-opacity:1;stroke-miterlimit:4;" d="M 309.890625 42.4375 C 287.15625 42.4375 268.4375 63.34375 264.71875 90.96875 L 444.59375 90.96875 C 440.875 63.34375 422.171875 42.4375 399.453125 42.4375 Z M 309.890625 42.4375 " transform="matrix(0.25,0,0,0.25,0,0)"/>
<path style=" stroke:none;fill-rule:nonzero;fill:#FF5555;fill-opacity:1;" d="M 16.484375 24.6875 L 111.515625 24.6875 C 119.03125 24.6875 125.125 30.796875 125.125 38.332031 L 125.125 86.207031 C 125.125 93.742188 119.03125 99.851562 111.515625 99.851562 L 16.484375 99.851562 C 8.96875 99.851562 2.875 93.742188 2.875 86.207031 L 2.875 38.332031 C 2.875 30.796875 8.96875 24.6875 16.484375 24.6875 Z M 16.484375 24.6875 "/>
<path style=" stroke:none;fill-rule:nonzero;fill:#FF5555;fill-opacity:1;" d="M 16.484375 42.226562 L 111.515625 42.226562 C 119.03125 42.226562 125.125 48.335938 125.125 55.871094 L 125.125 103.746094 C 125.125 111.28125 119.03125 117.390625 111.515625 117.390625 L 16.484375 117.390625 C 8.96875 117.390625 2.875 111.28125 2.875 103.746094 L 2.875 55.871094 C 2.875 48.335938 8.96875 42.226562 16.484375 42.226562 Z M 16.484375 42.226562 "/>
<path style="fill-rule:nonzero;fill:rgb(100%,100%,100%);fill-opacity:1;stroke-width:1.094694;stroke-linecap:butt;stroke-linejoin:miter;stroke:rgb(100%,100%,100%);stroke-opacity:1;stroke-miterlimit:4;" d="M 17.783203 17.159179 L 17.783203 18.550781 L 26.875487 18.550781 L 30.909667 23.475585 L 30.909667 33.158202 L 29.648437 33.158202 L 29.648437 34.353515 L 32.10205 34.353515 L 32.049315 23.187011 L 32.049315 22.898437 L 27.347167 17.159179 Z M 17.802246 19.458984 L 17.802246 22.239257 L 18.941894 22.239257 L 18.941894 19.458984 Z M 17.802246 25.02246 L 17.802246 27.805663 L 18.941894 27.805663 L 18.941894 25.02246 Z M 17.802246 30.827636 L 17.802246 33.158202 L 15.895019 33.158202 L 15.895019 34.350585 L 17.802246 34.350585 L 17.802246 36.4541 L 18.940429 36.4541 L 18.940429 34.350585 L 20.84912 34.350585 L 20.84912 33.158202 L 18.940429 33.158202 L 18.940429 30.827636 Z M 23.326171 33.158202 L 23.326171 34.353515 L 26.592773 34.353515 L 26.592773 33.158202 Z M 23.326171 33.158202 " transform="matrix(2.666667,0,0,2.666667,0,0)"/>
</g>
</svg>
