<?xml version="1.0" encoding="UTF-8"?>
<svg xmlns="http://www.w3.org/2000/svg" xmlns:xlink="http://www.w3.org/1999/xlink" width="64pt" height="64pt" viewBox="0 0 64 64" version="1.1">
<g id="surface1">
<path style="fill-rule:nonzero;fill:rgb(98.431373%,94.901961%,94.901961%);fill-opacity:1;stroke-width:25.1982;stroke-linecap:butt;stroke-linejoin:miter;stroke:rgb(0%,34.509804%,41.960784%);stroke-opacity:1;stroke-miterlimit:4;" d="M 78.123725 38.592229 L 433.876273 38.592229 C 452.976458 38.592229 468.454728 54.070498 468.454728 73.201639 L 468.454728 438.798367 C 468.454728 457.929508 452.976458 473.407778 433.876273 473.407778 L 78.123725 473.407778 C 59.02354 473.407778 43.545271 457.929508 43.545271 438.798367 L 43.545271 73.201639 C 43.545271 54.070498 59.02354 38.592229 78.123725 38.592229 Z M 78.123725 38.592229 " transform="matrix(0.126185,0,0,0.126185,-0.303352,-0.303353)"/>
<path style=" stroke:none;fill-rule:evenodd;fill:rgb(26.27451%,31.372549%,36.078431%);fill-opacity:1;" d="M 45.347656 9.078125 C 47.296875 9.078125 48.882812 10.878906 48.882812 13.097656 L 48.882812 52.355469 C 48.882812 54.574219 47.296875 56.375 45.347656 56.375 C 43.394531 56.375 41.808594 54.574219 41.808594 52.355469 L 41.808594 13.097656 C 41.808594 10.878906 43.394531 9.078125 45.347656 9.078125 Z M 45.347656 9.078125 "/>
<path style=" stroke:none;fill-rule:evenodd;fill:rgb(26.27451%,31.372549%,36.078431%);fill-opacity:1;" d="M 45.347656 10.339844 C 46.691406 10.339844 47.78125 11.714844 47.78125 13.410156 L 47.78125 52.070312 C 47.78125 53.769531 46.691406 55.144531 45.347656 55.144531 C 44 55.144531 42.910156 53.769531 42.910156 52.070312 L 42.910156 13.410156 C 42.910156 11.714844 44 10.339844 45.347656 10.339844 Z M 45.347656 10.339844 "/>
<path style=" stroke:none;fill-rule:nonzero;fill:rgb(16.470588%,16.470588%,100%);fill-opacity:1;" d="M 51.925781 22.648438 C 51.925781 26.128906 49.105469 28.953125 45.625 28.953125 C 42.144531 28.953125 39.324219 26.128906 39.324219 22.648438 C 39.324219 19.171875 42.144531 16.347656 45.625 16.347656 C 49.105469 16.347656 51.925781 19.171875 51.925781 22.648438 Z M 51.925781 22.648438 "/>
<path style=" stroke:none;fill-rule:evenodd;fill:rgb(26.27451%,31.372549%,36.078431%);fill-opacity:1;" d="M 32.230469 9.078125 C 34.183594 9.078125 35.765625 10.878906 35.765625 13.097656 L 35.765625 52.355469 C 35.765625 54.574219 34.183594 56.375 32.230469 56.375 C 30.277344 56.375 28.695312 54.574219 28.695312 52.355469 L 28.695312 13.097656 C 28.695312 10.878906 30.277344 9.078125 32.230469 9.078125 Z M 32.230469 9.078125 "/>
<path style=" stroke:none;fill-rule:evenodd;fill:rgb(26.27451%,31.372549%,36.078431%);fill-opacity:1;" d="M 32.230469 10.339844 C 33.574219 10.339844 34.664062 11.714844 34.664062 13.410156 L 34.664062 52.070312 C 34.664062 53.769531 33.574219 55.144531 32.230469 55.144531 C 30.886719 55.144531 29.792969 53.769531 29.792969 52.070312 L 29.792969 13.410156 C 29.792969 11.714844 30.886719 10.339844 32.230469 10.339844 Z M 32.230469 10.339844 "/>
<path style=" stroke:none;fill-rule:nonzero;fill:rgb(16.470588%,16.470588%,100%);fill-opacity:1;" d="M 38.433594 36.421875 C 38.433594 39.902344 35.613281 42.722656 32.132812 42.722656 C 28.652344 42.722656 25.832031 39.902344 25.832031 36.421875 C 25.832031 32.941406 28.652344 30.121094 32.132812 30.121094 C 35.613281 30.121094 38.433594 32.941406 38.433594 36.421875 Z M 38.433594 36.421875 "/>
<path style=" stroke:none;fill-rule:evenodd;fill:rgb(26.27451%,31.372549%,36.078431%);fill-opacity:1;" d="M 19.089844 9.078125 C 21.042969 9.078125 22.625 10.878906 22.625 13.097656 L 22.625 52.355469 C 22.625 54.574219 21.042969 56.375 19.089844 56.375 C 17.136719 56.375 15.554688 54.574219 15.554688 52.355469 L 15.554688 13.097656 C 15.554688 10.878906 17.136719 9.078125 19.089844 9.078125 Z M 19.089844 9.078125 "/>
<path style=" stroke:none;fill-rule:evenodd;fill:rgb(26.27451%,31.372549%,36.078431%);fill-opacity:1;" d="M 19.089844 10.339844 C 20.433594 10.339844 21.523438 11.714844 21.523438 13.410156 L 21.523438 52.070312 C 21.523438 53.769531 20.433594 55.144531 19.089844 55.144531 C 17.746094 55.144531 16.65625 53.769531 16.65625 52.070312 L 16.65625 13.410156 C 16.65625 11.714844 17.746094 10.339844 19.089844 10.339844 Z M 19.089844 10.339844 "/>
<path style=" stroke:none;fill-rule:nonzero;fill:rgb(16.470588%,16.470588%,100%);fill-opacity:1;" d="M 25.292969 18.6875 C 25.292969 22.167969 22.472656 24.988281 18.992188 24.988281 C 15.511719 24.988281 12.691406 22.167969 12.691406 18.6875 C 12.691406 15.207031 15.511719 12.386719 18.992188 12.386719 C 22.472656 12.386719 25.292969 15.207031 25.292969 18.6875 Z M 25.292969 18.6875 "/>
</g>
</svg>
