<?xml version="1.0" encoding="UTF-8"?>
<svg xmlns="http://www.w3.org/2000/svg" xmlns:xlink="http://www.w3.org/1999/xlink" width="64pt" height="64pt" viewBox="0 0 64 64" version="1.1">
<g id="surface1">
<path style="fill-rule:nonzero;fill:rgb(100%,100%,100%);fill-opacity:1;stroke-width:28.191782;stroke-linecap:butt;stroke-linejoin:miter;stroke:rgb(40%,40%,40%);stroke-opacity:1;stroke-miterlimit:4;" d="M 529.94333 -48.397775 L 879.00583 -48.397775 C 910.13083 -48.397775 935.38083 -23.147775 935.38083 7.977225 L 935.38083 357.039725 C 935.38083 388.164725 910.13083 413.414725 879.00583 413.414725 L 529.94333 413.414725 C 498.81833 413.414725 473.56833 388.164725 473.56833 357.039725 L 473.56833 7.977225 C 473.56833 -23.147775 498.81833 -48.397775 529.94333 -48.397775 Z M 529.94333 -48.397775 " transform="matrix(0.125,0,0,0.125,-56.059323,9.186441)"/>
<path style=" stroke:none;fill-rule:nonzero;fill:rgb(40%,40%,40%);fill-opacity:1;" d="M 7.34375 20.675781 L 7.34375 42.632812 L 20.773438 42.632812 L 20.773438 31.5 L 43.226562 31.5 L 43.226562 42.632812 L 56.65625 42.632812 L 56.65625 20.675781 Z M 7.34375 20.675781 "/>
<path style=" stroke:none;fill-rule:nonzero;fill:rgb(40%,40%,40%);fill-opacity:1;" d="M 21.652344 10.042969 L 42.347656 10.042969 L 42.347656 19.796875 L 21.652344 19.796875 Z M 21.652344 10.042969 "/>
<path style=" stroke:none;fill-rule:nonzero;fill:rgb(40%,40%,40%);fill-opacity:1;" d="M 23 33.976562 L 41 33.976562 L 41 53.957031 L 23 53.957031 Z M 23 33.976562 "/>
<path style=" stroke:none;fill-rule:nonzero;fill:rgb(80%,80%,80%);fill-opacity:1;" d="M 24.46875 49.796875 L 39.53125 49.796875 L 39.53125 50.207031 L 24.46875 50.207031 Z M 24.46875 49.796875 "/>
<path style=" stroke:none;fill-rule:nonzero;fill:rgb(80%,80%,80%);fill-opacity:1;" d="M 24.46875 47.832031 L 39.53125 47.832031 L 39.53125 48.242188 L 24.46875 48.242188 Z M 24.46875 47.832031 "/>
<path style=" stroke:none;fill-rule:nonzero;fill:rgb(80%,80%,80%);fill-opacity:1;" d="M 24.46875 45.867188 L 39.53125 45.867188 L 39.53125 46.277344 L 24.46875 46.277344 Z M 24.46875 45.867188 "/>
<path style=" stroke:none;fill-rule:nonzero;fill:rgb(80%,80%,80%);fill-opacity:1;" d="M 24.46875 43.902344 L 39.53125 43.902344 L 39.53125 44.3125 L 24.46875 44.3125 Z M 24.46875 43.902344 "/>
<path style=" stroke:none;fill-rule:nonzero;fill:rgb(80%,80%,80%);fill-opacity:1;" d="M 24.46875 41.941406 L 39.53125 41.941406 L 39.53125 42.347656 L 24.46875 42.347656 Z M 24.46875 41.941406 "/>
<path style=" stroke:none;fill-rule:nonzero;fill:rgb(80%,80%,80%);fill-opacity:1;" d="M 24.46875 39.976562 L 39.53125 39.976562 L 39.53125 40.382812 L 24.46875 40.382812 Z M 24.46875 39.976562 "/>
<path style=" stroke:none;fill-rule:nonzero;fill:rgb(80%,80%,80%);fill-opacity:1;" d="M 24.46875 38.011719 L 39.53125 38.011719 L 39.53125 38.417969 L 24.46875 38.417969 Z M 24.46875 38.011719 "/>
<path style=" stroke:none;fill-rule:nonzero;fill:rgb(80%,80%,80%);fill-opacity:1;" d="M 24.46875 36.046875 L 39.53125 36.046875 L 39.53125 36.453125 L 24.46875 36.453125 Z M 24.46875 36.046875 "/>
<path style=" stroke:none;fill-rule:nonzero;fill:rgb(80%,80%,80%);fill-opacity:1;" d="M 24.46875 51.761719 L 39.53125 51.761719 L 39.53125 52.167969 L 24.46875 52.167969 Z M 24.46875 51.761719 "/>
<path style=" stroke:none;fill-rule:nonzero;fill:rgb(80%,80%,80%);fill-opacity:1;" d="M 54.628906 24.226562 C 54.628906 23.355469 53.910156 22.652344 53.023438 22.652344 C 52.136719 22.652344 51.414062 23.355469 51.414062 24.226562 C 51.414062 25.09375 52.136719 25.800781 53.023438 25.800781 C 53.910156 25.800781 54.628906 25.09375 54.628906 24.226562 Z M 54.628906 24.226562 "/>
<path style=" stroke:none;fill-rule:nonzero;fill:rgb(100%,33.333333%,33.333333%);fill-opacity:1;" d="M 54.628906 28.375 C 54.628906 27.503906 53.910156 26.800781 53.023438 26.800781 C 52.136719 26.800781 51.414062 27.503906 51.414062 28.375 C 51.414062 29.246094 52.136719 29.949219 53.023438 29.949219 C 53.910156 29.949219 54.628906 29.246094 54.628906 28.375 Z M 54.628906 28.375 "/>
<path style=" stroke:none;fill-rule:nonzero;fill:rgb(0%,100%,0%);fill-opacity:1;" d="M 54.628906 32.523438 C 54.628906 31.65625 53.910156 30.949219 53.023438 30.949219 C 52.136719 30.949219 51.414062 31.65625 51.414062 32.523438 C 51.414062 33.394531 52.136719 34.097656 53.023438 34.097656 C 53.910156 34.097656 54.628906 33.394531 54.628906 32.523438 Z M 54.628906 32.523438 "/>
</g>
</svg>
