
<svg xmlns="http://www.w3.org/2000/svg" xmlns:xlink="http://www.w3.org/1999/xlink" width="22px" height="22px" viewBox="0 0 22 22" version="1.1">
<defs>
<clipPath id="clip1">
  <path d="M 11 12 L 17 12 L 17 18 L 11 18 Z M 11 12 "/>
</clipPath>
<clipPath id="clip2">
  <path d="M 13.488281 8.003906 C 10.972656 6.554688 7.757812 7.414062 6.304688 9.929688 C 4.855469 12.445312 5.714844 15.660156 8.230469 17.109375 C 10.746094 18.5625 13.960938 17.699219 15.410156 15.1875 C 16.863281 12.671875 16 9.457031 13.488281 8.003906 Z M 11.574219 11.316406 C 12.261719 11.710938 12.496094 12.589844 12.101562 13.273438 C 11.703125 13.960938 10.828125 14.195312 10.140625 13.800781 C 9.457031 13.402344 9.222656 12.527344 9.617188 11.839844 C 10.011719 11.15625 10.890625 10.921875 11.574219 11.316406 Z M 11.574219 11.316406 "/>
</clipPath>
<clipPath id="clip3">
  <path d="M 5 7 L 11 7 L 11 13 L 5 13 Z M 5 7 "/>
</clipPath>
<clipPath id="clip4">
  <path d="M 8.25 17.160156 C 10.765625 18.613281 13.980469 17.75 15.433594 15.234375 C 16.882812 12.722656 16.023438 9.507812 13.507812 8.054688 C 10.992188 6.601562 7.777344 7.464844 6.328125 9.980469 C 4.875 12.492188 5.738281 15.707031 8.25 17.160156 Z M 10.164062 13.847656 C 9.476562 13.453125 9.242188 12.574219 9.636719 11.890625 C 10.035156 11.203125 10.910156 10.96875 11.597656 11.367188 C 12.28125 11.761719 12.515625 12.636719 12.121094 13.324219 C 11.726562 14.011719 10.847656 14.246094 10.164062 13.847656 Z M 10.164062 13.847656 "/>
</clipPath>
</defs>
<g id="surface1">
<path style=" stroke:none;fill-rule:nonzero;fill:rgb(80%,80%,80%);fill-opacity:1;" d="M 5.898438 1.1875 C 4.410156 1.1875 3.214844 2.382812 3.214844 3.871094 L 3.214844 18.128906 C 3.214844 19.617188 4.410156 20.8125 5.898438 20.8125 L 16.101562 20.8125 C 17.589844 20.8125 18.785156 19.617188 18.785156 18.128906 L 18.785156 4.367188 L 11.386719 1.1875 Z M 16.378906 1.203125 C 16.558594 1.21875 16.734375 1.253906 16.902344 1.308594 C 16.734375 1.253906 16.558594 1.21875 16.378906 1.203125 Z M 16.902344 1.308594 C 17.152344 1.386719 17.390625 1.5 17.605469 1.644531 C 17.390625 1.5 17.152344 1.386719 16.902344 1.308594 Z M 17.8125 1.796875 C 17.875 1.851562 17.941406 1.910156 18 1.972656 C 17.941406 1.910156 17.875 1.851562 17.8125 1.796875 Z M 17.8125 1.796875 "/>
<path style=" stroke:none;fill-rule:nonzero;fill:rgb(100%,100%,100%);fill-opacity:0.682353;" d="M 18.785156 4.367188 L 11.386719 1.1875 L 11.386719 1.6875 C 11.386719 3.171875 12.582031 4.367188 14.066406 4.367188 Z M 18.785156 4.367188 "/>
<path style="fill-rule:nonzero;fill:rgb(50.196078%,50.196078%,50.196078%);fill-opacity:1;stroke-width:0.143376;stroke-linecap:butt;stroke-linejoin:miter;stroke:rgb(83.137255%,83.137255%,83.137255%);stroke-opacity:1;stroke-miterlimit:4;" d="M 29.428977 17.463068 C 23.940341 14.301136 16.926136 16.176136 13.755682 21.664773 C 10.59375 27.153409 12.46875 34.167614 17.957386 37.329545 C 23.446023 40.5 30.460227 38.616477 33.622159 33.136364 C 36.792614 27.647727 34.909091 20.633523 29.428977 17.463068 Z M 25.252841 24.690341 C 26.752841 25.551136 27.264205 27.46875 26.403409 28.960227 C 25.534091 30.460227 23.625 30.971591 22.125 30.110795 C 20.633523 29.241477 20.122159 27.332386 20.982955 25.832386 C 21.84375 24.340909 23.761364 23.829545 25.252841 24.690341 Z M 25.252841 24.690341 " transform="matrix(0.458333,0,0,0.458333,0,0)"/>
<g clip-path="url(#clip1)" clip-rule="nonzero">
<g clip-path="url(#clip2)" clip-rule="nonzero">
<path style=" stroke:none;fill-rule:evenodd;fill:rgb(94.901961%,94.901961%,94.901961%);fill-opacity:1;" d="M 11.695312 12.445312 L 16.96875 13.335938 L 14.546875 17.53125 L 11.042969 13.003906 Z M 11.695312 12.445312 "/>
</g>
</g>
<g clip-path="url(#clip3)" clip-rule="nonzero">
<g clip-path="url(#clip4)" clip-rule="nonzero">
<path style=" stroke:none;fill-rule:evenodd;fill:rgb(94.901961%,94.901961%,94.901961%);fill-opacity:1;" d="M 10.042969 12.722656 L 4.769531 11.828125 L 7.191406 7.632812 L 10.695312 12.160156 Z M 10.042969 12.722656 "/>
</g>
</g>
<path style="fill-rule:nonzero;fill:rgb(100%,100%,100%);fill-opacity:1;stroke-width:0.253932;stroke-linecap:butt;stroke-linejoin:miter;stroke:rgb(90.588235%,90.588235%,90.588235%);stroke-opacity:1;stroke-miterlimit:4;" d="M 26.139205 23.15625 C 23.795455 21.801136 20.803977 22.610795 19.448864 24.946023 C 18.09375 27.289773 18.903409 30.289773 21.238636 31.636364 C 23.582386 32.991477 26.582386 32.190341 27.928977 29.846591 C 29.284091 27.502841 28.482955 24.511364 26.139205 23.15625 Z M 24.988636 25.150568 C 26.232955 25.866477 26.659091 27.451705 25.943182 28.696023 C 25.227273 29.940341 23.633523 30.366477 22.389205 29.650568 C 21.144886 28.934659 20.727273 27.340909 21.443182 26.096591 C 22.159091 24.852273 23.744318 24.426136 24.988636 25.150568 Z M 24.988636 25.150568 " transform="matrix(0.458333,0,0,0.458333,0,0)"/>
</g>
</svg>
