
<svg xmlns="http://www.w3.org/2000/svg" xmlns:xlink="http://www.w3.org/1999/xlink" width="22px" height="22px" viewBox="0 0 22 22" version="1.1">
<g id="surface1">
<path style=" stroke:none;fill-rule:nonzero;fill:rgb(55.686275%,26.666667%,67.843137%);fill-opacity:1;" d="M 5.898438 1.1875 C 4.410156 1.1875 3.214844 2.382812 3.214844 3.871094 L 3.214844 18.128906 C 3.214844 19.617188 4.410156 20.8125 5.898438 20.8125 L 16.101562 20.8125 C 17.589844 20.8125 18.785156 19.617188 18.785156 18.128906 L 18.785156 4.367188 L 11.386719 1.1875 Z M 16.378906 1.203125 C 16.558594 1.21875 16.734375 1.253906 16.902344 1.308594 C 16.734375 1.253906 16.558594 1.21875 16.378906 1.203125 Z M 16.902344 1.308594 C 17.152344 1.386719 17.390625 1.5 17.605469 1.644531 C 17.390625 1.5 17.152344 1.386719 16.902344 1.308594 Z M 17.8125 1.796875 C 17.875 1.851562 17.941406 1.910156 18 1.972656 C 17.941406 1.910156 17.875 1.851562 17.8125 1.796875 Z M 17.8125 1.796875 "/>
<path style=" stroke:none;fill-rule:nonzero;fill:rgb(100%,100%,100%);fill-opacity:0.682353;" d="M 18.785156 4.367188 L 11.386719 1.1875 L 11.386719 1.6875 C 11.386719 3.171875 12.582031 4.367188 14.066406 4.367188 Z M 18.785156 4.367188 "/>
<path style=" stroke:none;fill-rule:nonzero;fill:rgb(100%,100%,100%);fill-opacity:1;" d="M 8.609375 8.609375 L 8.609375 12.59375 L 7.414062 12.59375 L 8.609375 14.585938 L 9.40625 14.585938 L 9.40625 9.40625 L 14.585938 9.40625 L 14.585938 8.609375 Z M 10.914062 9.910156 L 10.097656 10.761719 L 11.523438 12.25 L 10.097656 13.738281 L 10.914062 14.585938 L 12.339844 13.097656 L 13.765625 14.585938 L 14.582031 13.738281 L 13.15625 12.25 L 14.582031 10.761719 L 13.765625 9.910156 L 12.339844 11.398438 Z M 10.914062 9.910156 "/>
</g>
</svg>
