
<svg xmlns="http://www.w3.org/2000/svg" xmlns:xlink="http://www.w3.org/1999/xlink" width="22px" height="22px" viewBox="0 0 22 22" version="1.1">
<g id="surface1">
<path style=" stroke:none;fill-rule:nonzero;fill:rgb(9.019608%,24.705882%,49.411765%);fill-opacity:1;" d="M 5.898438 1.1875 C 4.410156 1.1875 3.214844 2.382812 3.214844 3.871094 L 3.214844 18.128906 C 3.214844 19.617188 4.410156 20.8125 5.898438 20.8125 L 16.101562 20.8125 C 17.589844 20.8125 18.785156 19.617188 18.785156 18.128906 L 18.785156 4.367188 L 11.386719 1.1875 Z M 16.378906 1.203125 C 16.558594 1.21875 16.734375 1.253906 16.902344 1.308594 C 16.734375 1.253906 16.558594 1.21875 16.378906 1.203125 Z M 16.902344 1.308594 C 17.152344 1.386719 17.390625 1.5 17.605469 1.644531 C 17.390625 1.5 17.152344 1.386719 16.902344 1.308594 Z M 17.8125 1.796875 C 17.875 1.851562 17.941406 1.910156 18 1.972656 C 17.941406 1.910156 17.875 1.851562 17.8125 1.796875 Z M 17.8125 1.796875 "/>
<path style=" stroke:none;fill-rule:nonzero;fill:rgb(100%,100%,100%);fill-opacity:0.682353;" d="M 18.785156 4.367188 L 11.386719 1.1875 L 11.386719 1.6875 C 11.386719 3.171875 12.582031 4.367188 14.066406 4.367188 Z M 18.785156 4.367188 "/>
<path style=" stroke:none;fill-rule:nonzero;fill:rgb(100%,100%,100%);fill-opacity:1;" d="M 7.8125 8.222656 L 7.8125 10.203125 C 7.8125 10.601562 7.8125 11 8.210938 11 C 8.609375 11 8.609375 10.601562 8.609375 10.203125 L 8.609375 9.007812 L 9.804688 9.007812 C 10.203125 9.007812 10.601562 9.007812 10.601562 8.609375 C 10.601562 8.210938 10.203125 8.210938 9.804688 8.210938 C 9.007812 8.214844 8.609375 8.222656 7.8125 8.222656 Z M 7.8125 8.222656 "/>
<path style=" stroke:none;fill-rule:nonzero;fill:rgb(100%,100%,100%);fill-opacity:1;" d="M 14.1875 8.222656 L 14.1875 10.203125 C 14.1875 10.601562 14.1875 11 13.789062 11 C 13.390625 11 13.390625 10.601562 13.390625 10.203125 L 13.390625 9.007812 L 12.195312 9.007812 C 11.796875 9.007812 11.398438 9.007812 11.398438 8.609375 C 11.398438 8.210938 11.796875 8.210938 12.195312 8.210938 C 12.992188 8.214844 13.390625 8.222656 14.1875 8.222656 Z M 14.1875 8.222656 "/>
<path style=" stroke:none;fill-rule:nonzero;fill:rgb(100%,100%,100%);fill-opacity:1;" d="M 14.175781 14.585938 L 12.195312 14.585938 C 11.796875 14.585938 11.398438 14.585938 11.398438 14.1875 C 11.398438 13.789062 11.796875 13.789062 12.195312 13.789062 L 13.390625 13.789062 L 13.390625 12.59375 C 13.390625 12.195312 13.390625 11.796875 13.789062 11.796875 C 14.1875 11.796875 14.1875 12.195312 14.1875 12.59375 C 14.183594 13.390625 14.175781 13.789062 14.175781 14.585938 Z M 14.175781 14.585938 "/>
<path style=" stroke:none;fill-rule:nonzero;fill:rgb(100%,100%,100%);fill-opacity:1;" d="M 7.824219 14.585938 L 9.804688 14.585938 C 10.203125 14.585938 10.601562 14.585938 10.601562 14.1875 C 10.601562 13.789062 10.203125 13.789062 9.804688 13.789062 L 8.609375 13.789062 L 8.609375 12.59375 C 8.609375 12.195312 8.609375 11.796875 8.210938 11.796875 C 7.8125 11.796875 7.8125 12.195312 7.8125 12.59375 C 7.816406 13.390625 7.824219 13.789062 7.824219 14.585938 Z M 7.824219 14.585938 "/>
</g>
</svg>
