<?xml version="1.0" encoding="UTF-8" standalone="no"?>
<!-- Created with Inkscape (http://www.inkscape.org/) -->

<svg
   xmlns:dc="http://purl.org/dc/elements/1.1/"
   xmlns:cc="http://creativecommons.org/ns#"
   xmlns:rdf="http://www.w3.org/1999/02/22-rdf-syntax-ns#"
   xmlns:svg="http://www.w3.org/2000/svg"
   xmlns="http://www.w3.org/2000/svg"
   xmlns:sodipodi="http://sodipodi.sourceforge.net/DTD/sodipodi-0.dtd"
   xmlns:inkscape="http://www.inkscape.org/namespaces/inkscape"
   width="48"
   height="48"
   id="svg865"
   version="1.1"
   inkscape:version="0.91 r"
   sodipodi:docname="folder-wine.svg">
  <defs
     id="defs867" />
  <sodipodi:namedview
     id="base"
     pagecolor="#ffffff"
     bordercolor="#666666"
     borderopacity="1.0"
     inkscape:pageopacity="0.0"
     inkscape:pageshadow="2"
     inkscape:zoom="5.5425381"
     inkscape:cx="-27.909094"
     inkscape:cy="9.6142109"
     inkscape:document-units="px"
     inkscape:current-layer="folderLayer"
     showgrid="false"
     inkscape:window-width="1366"
     inkscape:window-height="716"
     inkscape:window-x="0"
     inkscape:window-y="0"
     inkscape:window-maximized="1"
     borderlayer="true"
     inkscape:showpageshadow="false"
     showguides="false"
     inkscape:guide-bbox="true">
    <sodipodi:guide
       position="0,39.000017"
       orientation="30,0"
       id="guide4110" />
    <sodipodi:guide
       position="30,39.000017"
       orientation="0,-30"
       id="guide4116" />
    <sodipodi:guide
       position="30,9.0000174"
       orientation="0,18"
       id="guide4120" />
    <sodipodi:guide
       position="48,9.0000174"
       orientation="-30,0"
       id="guide4122" />
    <sodipodi:guide
       position="48,39.000017"
       orientation="0,-18"
       id="guide4124" />
    <sodipodi:guide
       position="4,41.000017"
       orientation="34,0"
       id="guide4164" />
    <sodipodi:guide
       position="22,41.000017"
       orientation="0,-18"
       id="guide4170" />
    <sodipodi:guide
       position="6,37.0002"
       orientation="27.999817,0"
       id="guide4174" />
    <sodipodi:guide
       position="6,9.0003836"
       orientation="0,35.999992"
       id="guide4176" />
    <sodipodi:guide
       position="41.999992,9.0003836"
       orientation="-27.999817,0"
       id="guide4178" />
    <sodipodi:guide
       position="41.999992,37.0002"
       orientation="0,-35.999992"
       id="guide4180" />
    <sodipodi:guide
       position="14,31.000017"
       orientation="20,0"
       id="guide4221" />
    <sodipodi:guide
       position="34,11.000017"
       orientation="-20,0"
       id="guide4225" />
    <sodipodi:guide
       position="34,31.000017"
       orientation="0,-20"
       id="guide4227" />
    <sodipodi:guide
       position="14,31.000017"
       orientation="11,0"
       id="guide4412" />
    <sodipodi:guide
       position="14,20.000017"
       orientation="6.123234e-17,1"
       id="guide4414" />
    <sodipodi:guide
       position="25,20.000017"
       orientation="-11,0"
       id="guide4416" />
    <sodipodi:guide
       position="25,31.000017"
       orientation="0,-11"
       id="guide4418" />
    <sodipodi:guide
       position="25,20.000017"
       orientation="9,0"
       id="guide4420" />
    <sodipodi:guide
       position="25,11.000017"
       orientation="0,9"
       id="guide4422" />
    <sodipodi:guide
       position="34,11.000017"
       orientation="-9,0"
       id="guide4424" />
    <sodipodi:guide
       position="34,20.000017"
       orientation="0,-9"
       id="guide4426" />
    <sodipodi:guide
       position="23.000001,35.000017"
       orientation="-1.9999999,0"
       id="guide4068" />
    <sodipodi:guide
       position="23.000001,37.000017"
       orientation="0,2"
       id="guide4070" />
    <sodipodi:guide
       position="25,37.000017"
       orientation="1.9999999,0"
       id="guide4072" />
    <sodipodi:guide
       position="25,35.000017"
       orientation="0,-2"
       id="guide4074" />
    <sodipodi:guide
       orientation="0,1"
       position="-5.0900019,45.012788"
       id="guide3049" />
    <sodipodi:guide
       orientation="0,1"
       position="14,5.0286766"
       id="guide3051" />
    <sodipodi:guide
       orientation="1,0"
       position="18.481902,18.990154"
       id="guide3071" />
  </sodipodi:namedview>
  <metadata
     id="metadata870">
    <rdf:RDF>
      <cc:Work
         rdf:about="">
        <dc:format>image/svg+xml</dc:format>
        <dc:type
           rdf:resource="http://purl.org/dc/dcmitype/StillImage" />
        <dc:title />
      </cc:Work>
    </rdf:RDF>
  </metadata>
  <g
     inkscape:groupmode="layer"
     id="folderLayer"
     inkscape:label="folder">
    <g
       transform="matrix(0.82006743,0,0,0.82212175,2404.0411,124.36193)"
       id="g4185">
      <path
         style="fill:#cccccc;fill-opacity:1"
         d="m -2896.0903,-146.42957 c -2.5974,0 -4.7375,2.38351 -5.1626,5.53446 l 20.5621,0 c -0.4251,-3.15092 -2.5632,-5.53446 -5.1606,-5.53446 l -10.2389,0 z"
         id="rect5716-1"
         inkscape:connector-curvature="0" />
      <g
         id="g4180">
        <rect
           style="opacity:1;fill:#25aedf;fill-opacity:1"
           id="rect4215"
           width="55.902325"
           height="34.283848"
           x="-2930.2017"
           y="-140.00774"
           rx="6.2235012"
           ry="6.2235012" />
        <rect
           ry="6.2235012"
           rx="6.2235012"
           y="-132.00774"
           x="-2930.2017"
           height="34.283848"
           width="55.902325"
           id="rect4218"
           style="opacity:1;fill:#25aedf;fill-opacity:1" />
      </g>
    </g>
    <path
       inkscape:connector-curvature="0"
       id="path2984"
       d="m 28.565729,37.08868 c -2.781282,-0.554716 -5.288466,-1.056744 -5.571517,-1.115617 l -0.514637,-0.107045 0,-3.959728 0,-3.959729 3.289208,0.02872 c 1.809064,0.0158 4.38673,0.05311 5.728145,0.08291 l 2.438937,0.05419 0,5.001944 c 0,4.707709 -0.0092,5.001383 -0.15663,4.992436 -0.08614,-0.0052 -2.432223,-0.463365 -5.213506,-1.018079 z m -11.008778,-2.193306 -3.445837,-0.675534 -0.02349,-3.183448 -0.02349,-3.183448 3.469328,0.04085 c 1.90813,0.02246 3.479833,0.04984 3.492674,0.06084 0.01284,0.011 0.01284,1.729157 0,3.818136 l -0.02335,3.798139 -3.445837,-0.675535 z M 14.066363,23.482645 c 0,-1.747532 0.01159,-3.17733 0.02576,-3.17733 0.01417,0 1.533065,-0.30207 3.375329,-0.671267 1.842265,-0.369197 3.401439,-0.671267 3.464832,-0.671267 0.0922,0 0.115259,0.758295 0.115259,3.78964 l 0,3.789641 -1.812421,0.05872 c -0.996831,0.0323 -2.567596,0.05883 -3.490588,0.05896 l -1.678168,2.87e-4 0,-3.177332 z m 8.413213,-0.86123 0,-3.977923 5.571516,-1.100224 c 3.064333,-0.605124 5.641999,-1.12 5.728143,-1.14417 0.147843,-0.04148 0.15663,0.240073 0.15663,5.018964 l 0,5.06291 -3.028498,0 c -1.665673,0 -4.243339,0.02663 -5.728144,0.05918 l -2.699647,0.05918 0,-3.977925 z"
       style="fill:#ffffff" />
  </g>
</svg>
