<?xml version="1.0" encoding="UTF-8" standalone="no"?>
<!-- Created with Inkscape (http://www.inkscape.org/) -->

<svg
   xmlns:dc="http://purl.org/dc/elements/1.1/"
   xmlns:cc="http://creativecommons.org/ns#"
   xmlns:rdf="http://www.w3.org/1999/02/22-rdf-syntax-ns#"
   xmlns:svg="http://www.w3.org/2000/svg"
   xmlns="http://www.w3.org/2000/svg"
   xmlns:sodipodi="http://sodipodi.sourceforge.net/DTD/sodipodi-0.dtd"
   xmlns:inkscape="http://www.inkscape.org/namespaces/inkscape"
   width="48"
   height="48"
   id="svg865"
   version="1.1"
   inkscape:version="0.91 r13725"
   sodipodi:docname="folder-younited.svg">
  <defs
     id="defs867" />
  <sodipodi:namedview
     id="base"
     pagecolor="#ffffff"
     bordercolor="#666666"
     borderopacity="1.0"
     inkscape:pageopacity="0.0"
     inkscape:pageshadow="2"
     inkscape:zoom="7.765625"
     inkscape:cx="32.938926"
     inkscape:cy="18.115038"
     inkscape:document-units="px"
     inkscape:current-layer="folderLayer"
     showgrid="false"
     inkscape:window-width="1366"
     inkscape:window-height="664"
     inkscape:window-x="0"
     inkscape:window-y="30"
     inkscape:window-maximized="1"
     borderlayer="true"
     inkscape:showpageshadow="false"
     showguides="true"
     inkscape:guide-bbox="true">
    <sodipodi:guide
       position="0,39.000017"
       orientation="30,0"
       id="guide4110" />
    <sodipodi:guide
       position="30,39.000017"
       orientation="0,-30"
       id="guide4116" />
    <sodipodi:guide
       position="64.25,-19.25"
       orientation="0,18"
       id="guide4120" />
    <sodipodi:guide
       position="48,9.0000174"
       orientation="-30,0"
       id="guide4122" />
    <sodipodi:guide
       position="48,39.000017"
       orientation="0,-18"
       id="guide4124" />
    <sodipodi:guide
       position="4,41.000017"
       orientation="34,0"
       id="guide4164" />
    <sodipodi:guide
       position="22,41.000017"
       orientation="0,-18"
       id="guide4170" />
    <sodipodi:guide
       position="6,37.0002"
       orientation="27.999817,0"
       id="guide4174" />
    <sodipodi:guide
       position="64.25,-11.125"
       orientation="0,35.999992"
       id="guide4176" />
    <sodipodi:guide
       position="41.999992,9.0003836"
       orientation="-27.999817,0"
       id="guide4178" />
    <sodipodi:guide
       position="14,31.000017"
       orientation="20,0"
       id="guide4221" />
    <sodipodi:guide
       position="34,11.000017"
       orientation="-20,0"
       id="guide4225" />
    <sodipodi:guide
       position="14,31.000017"
       orientation="11,0"
       id="guide4412" />
    <sodipodi:guide
       position="25,31.000017"
       orientation="-11,0"
       id="guide4416" />
    <sodipodi:guide
       position="25,20.000017"
       orientation="9,0"
       id="guide4420" />
    <sodipodi:guide
       position="25,11.000017"
       orientation="0,9"
       id="guide4422" />
    <sodipodi:guide
       position="34,11.000017"
       orientation="-9,0"
       id="guide4424" />
    <sodipodi:guide
       position="65.25,-32.125"
       orientation="0,-9"
       id="guide4426" />
    <sodipodi:guide
       position="23.000001,35.000017"
       orientation="-1.9999999,0"
       id="guide4068" />
    <sodipodi:guide
       position="25,37.000017"
       orientation="1.9999999,0"
       id="guide4072" />
    <sodipodi:guide
       position="25,35.000017"
       orientation="0,-2"
       id="guide4074" />
    <sodipodi:guide
       orientation="0,1"
       position="-5.0900019,45.012788"
       id="guide3049" />
    <sodipodi:guide
       orientation="0,1"
       position="14,5.0286766"
       id="guide3051" />
    <sodipodi:guide
       orientation="1,0"
       position="18.481902,18.990154"
       id="guide3071" />
  </sodipodi:namedview>
  <metadata
     id="metadata870">
    <rdf:RDF>
      <cc:Work
         rdf:about="">
        <dc:format>image/svg+xml</dc:format>
        <dc:type
           rdf:resource="http://purl.org/dc/dcmitype/StillImage" />
        <dc:title />
      </cc:Work>
    </rdf:RDF>
  </metadata>
  <g
     inkscape:groupmode="layer"
     id="folderLayer"
     inkscape:label="folder">
    <g
       transform="matrix(0.82006743,0,0,0.82212175,2404.0411,124.36193)"
       id="g4185">
      <path
         style="fill:#cccccc;fill-opacity:1"
         d="m -2896.0903,-146.42957 c -2.5974,0 -4.7375,2.38351 -5.1626,5.53446 l 20.5621,0 c -0.4251,-3.15092 -2.5632,-5.53446 -5.1606,-5.53446 l -10.2389,0 z"
         id="rect5716-1"
         inkscape:connector-curvature="0" />
      <g
         id="g4180">
        <rect
           style="opacity:1;fill:#25aedf;fill-opacity:1"
           id="rect4215"
           width="55.902325"
           height="34.283848"
           x="-2930.2017"
           y="-140.00774"
           rx="6.2235012"
           ry="6.2235012" />
        <rect
           ry="6.2235012"
           rx="6.2235012"
           y="-132.00774"
           x="-2930.2017"
           height="34.283848"
           width="55.902325"
           id="rect4218"
           style="opacity:1;fill:#25aedf;fill-opacity:1" />
      </g>
    </g>
    <path
       style="fill:#ffffff;fill-opacity:1"
       d="M 10.228434,35.513879 C 8.507406,34.618676 7.4522322,32.988546 7.2526879,30.916663 6.908179,27.339625 9.0407673,24.686917 12.263401,24.683869 l 1.67327,-0.0017 0.159562,-2.251841 c 0.09205,-1.299062 0.455337,-2.725969 0.858607,-3.37241 1.475718,-2.365583 4.458228,-3.088134 6.559052,-1.589011 1.959282,1.398119 2.278165,2.666919 2.278165,9.064618 0,5.580122 -0.02109,5.732443 -0.977778,7.063057 -0.537779,0.747966 -1.509133,1.619768 -2.158562,1.937333 -1.576599,0.770947 -8.933725,0.756724 -10.427283,-0.02015 z m 9.61182,-0.674074 c 0.711037,-0.231161 1.687618,-0.911593 2.170179,-1.512071 0.806681,-1.003796 0.887336,-1.489002 1.000912,-6.021181 0.151414,-6.041999 -0.217539,-7.733711 -1.961827,-8.995358 -3.023274,-2.186729 -6.299876,0.653057 -6.299876,5.460015 l 0,1.655926 -2.187559,0.185182 c -1.831613,0.155055 -2.36308,0.390601 -3.2662469,1.447594 -2.1682446,2.537549 -1.4002401,6.487816 1.4876689,7.651895 1.538082,0.61998 7.293269,0.701318 9.056749,0.127998 z"
       id="path2996"
       inkscape:connector-curvature="0"
       sodipodi:nodetypes="csccssssssccssssscssss" />
    <path
       sodipodi:nodetypes="csccssssssccssssscssss"
       inkscape:connector-curvature="0"
       id="path3830"
       d="m 37.256477,35.730664 c 1.721028,-0.895202 2.776201,-2.525332 2.975746,-4.597216 0.344509,-3.577037 -1.788079,-6.229746 -5.010713,-6.232793 l -1.67327,-0.0017 -0.159562,-2.251841 c -0.09205,-1.299062 -0.455337,-2.725969 -0.858607,-3.37241 -1.475719,-2.365583 -4.458229,-3.088133 -6.559052,-1.58901 -1.959282,1.398118 -2.278165,2.666918 -2.278165,9.064617 0,5.580122 0.02109,5.732443 0.977778,7.063058 0.537778,0.747965 1.509132,1.619768 2.158562,1.937333 1.576599,0.770946 8.933724,0.756723 10.427283,-0.02015 z m -9.61182,-0.674074 c -0.711038,-0.23116 -1.687618,-0.911592 -2.170179,-1.512071 -0.806681,-1.003796 -0.887336,-1.489001 -1.000912,-6.021181 -0.151414,-6.041999 0.217538,-7.733711 1.961827,-8.995357 3.023274,-2.18673 6.299876,0.653057 6.299876,5.460014 l 0,1.655926 2.187559,0.185182 c 1.831613,0.155056 2.36308,0.390602 3.266247,1.447594 2.168244,2.537549 1.40024,6.487816 -1.487669,7.651895 -1.538082,0.619981 -7.293269,0.701318 -9.056749,0.127998 z"
       style="fill:#ffffff;fill-opacity:1" />
  </g>
</svg>
