<?xml version="1.0" encoding="UTF-8" standalone="no"?>
<!-- Created with Inkscape (http://www.inkscape.org/) -->

<svg
   xmlns:dc="http://purl.org/dc/elements/1.1/"
   xmlns:cc="http://creativecommons.org/ns#"
   xmlns:rdf="http://www.w3.org/1999/02/22-rdf-syntax-ns#"
   xmlns:svg="http://www.w3.org/2000/svg"
   xmlns="http://www.w3.org/2000/svg"
   xmlns:sodipodi="http://sodipodi.sourceforge.net/DTD/sodipodi-0.dtd"
   xmlns:inkscape="http://www.inkscape.org/namespaces/inkscape"
   width="48"
   height="48"
   id="svg3022"
   version="1.1"
   inkscape:version="0.91 r13725"
   sodipodi:docname="network-server-database.svg">
  <defs
     id="defs3024" />
  <sodipodi:namedview
     id="base"
     pagecolor="#ffffff"
     bordercolor="#666666"
     borderopacity="1.0"
     inkscape:pageopacity="0.0"
     inkscape:pageshadow="2"
     inkscape:zoom="5.5147192"
     inkscape:cx="4.1089803"
     inkscape:cy="16.53037"
     inkscape:document-units="px"
     inkscape:current-layer="g3015"
     showgrid="false"
     inkscape:window-width="1366"
     inkscape:window-height="664"
     inkscape:window-x="0"
     inkscape:window-y="30"
     inkscape:window-maximized="1">
    <sodipodi:guide
       position="11,41.000017"
       orientation="34,0"
       id="guide3359" />
    <sodipodi:guide
       position="11,7.0000174"
       orientation="0,26"
       id="guide3361" />
    <sodipodi:guide
       position="37,7.0000174"
       orientation="-34,0"
       id="guide3363" />
    <sodipodi:guide
       position="37,41.000017"
       orientation="0,-26"
       id="guide3365" />
  </sodipodi:namedview>
  <metadata
     id="metadata3027">
    <rdf:RDF>
      <cc:Work
         rdf:about="">
        <dc:format>image/svg+xml</dc:format>
        <dc:type
           rdf:resource="http://purl.org/dc/dcmitype/StillImage" />
        <dc:title />
      </cc:Work>
    </rdf:RDF>
  </metadata>
  <g
     inkscape:label="Capa 1"
     inkscape:groupmode="layer"
     id="layer1"
     transform="translate(0,-1004.3622)">
    <g
       id="g3015"
       transform="matrix(1.686369,0,0,1.9525138,-7.7060693,972.74554)">
      <g
         id="g4265"
         transform="matrix(0.24781804,0,0,0.21874939,11.744904,19.842103)">
        <rect
           style="fill:#1a1a1a;fill-opacity:1;stroke:none"
           id="rect4267"
           width="13.91208"
           height="6.6248002"
           x="23.819481"
           y="88.411278"
           rx="0.25523275"
           ry="0.46853766" />
        <rect
           ry="0.46853766"
           rx="0.25523275"
           y="88.411278"
           x="58.26844"
           height="6.6248002"
           width="13.91208"
           id="rect4269"
           style="fill:#1a1a1a;fill-opacity:1;stroke:none" />
        <rect
           style="fill:#4d4d4d;fill-opacity:1;stroke:none"
           id="rect4271"
           width="50.34848"
           height="90.097282"
           x="22.82576"
           y="0.96392232"
           rx="0.38892612"
           ry="0.43054813" />
        <rect
           style="fill:#b3b3b3;fill-opacity:1;stroke:none"
           id="rect4273"
           width="5.29984"
           height="46.266171"
           x="25.475679"
           y="39.924908"
           rx="0.38892612"
           ry="0.43054813" />
        <rect
           ry="0.43054813"
           rx="0.38892612"
           y="39.924908"
           x="33.425442"
           height="46.266171"
           width="5.29984"
           id="rect4275"
           style="fill:#b3b3b3;fill-opacity:1;stroke:none" />
        <rect
           style="fill:#b3b3b3;fill-opacity:1;stroke:none"
           id="rect4277"
           width="5.29984"
           height="46.266171"
           x="41.375198"
           y="39.924908"
           rx="0.38892612"
           ry="0.43054813" />
        <rect
           ry="0.43054813"
           rx="0.38892612"
           y="39.924908"
           x="49.324959"
           height="46.266171"
           width="5.29984"
           id="rect4279"
           style="fill:#b3b3b3;fill-opacity:1;stroke:none" />
        <rect
           style="fill:#b3b3b3;fill-opacity:1;stroke:none"
           id="rect4281"
           width="5.29984"
           height="46.266171"
           x="57.274719"
           y="39.924908"
           rx="0.38892612"
           ry="0.43054813" />
        <rect
           ry="0.43054813"
           rx="0.38892612"
           y="39.924908"
           x="65.22448"
           height="46.266171"
           width="5.29984"
           id="rect4283"
           style="fill:#b3b3b3;fill-opacity:1;stroke:none" />
        <circle
           style="fill:#ff0000;fill-opacity:1;stroke:none"
           id="circle4285"
           cx="68.757698"
           cy="5.8221083"
           r="1.32496" />
        <circle
           r="1.7666134"
           cy="10.238641"
           cx="68.757698"
           id="circle4287"
           style="fill:#008000;fill-opacity:1;stroke:none" />
        <circle
           style="fill:#ffffff;fill-opacity:1;stroke:none"
           id="circle4289"
           cx="68.757698"
           cy="14.655174"
           r="1.7666134" />
        <text
           xml:space="preserve"
           style="font-style:normal;font-weight:normal;font-size:1.5782932px;line-height:125%;font-family:sans-serif;letter-spacing:0px;word-spacing:0px;fill:#000000;fill-opacity:1;stroke:none;stroke-width:1px;stroke-linecap:butt;stroke-linejoin:miter;stroke-opacity:1"
           x="63.831459"
           y="6.2651644"
           id="text4291"
           sodipodi:linespacing="125%"><tspan
             sodipodi:role="line"
             id="tspan4293"
             x="63.831459"
             y="6.2651644">on</tspan></text>
        <text
           xml:space="preserve"
           style="font-style:normal;font-weight:normal;font-size:1.5782932px;line-height:125%;font-family:sans-serif;letter-spacing:0px;word-spacing:0px;fill:#000000;fill-opacity:1;stroke:none;stroke-width:1px;stroke-linecap:butt;stroke-linejoin:miter;stroke-opacity:1"
           x="63.682339"
           y="15.42036"
           id="text4295"
           sodipodi:linespacing="125%"><tspan
             sodipodi:role="line"
             id="tspan4297"
             x="63.682339"
             y="15.42036">off</tspan></text>
        <text
           xml:space="preserve"
           style="font-style:normal;font-weight:normal;font-size:1.5782932px;line-height:125%;font-family:sans-serif;letter-spacing:0px;word-spacing:0px;fill:#000000;fill-opacity:1;stroke:none;stroke-width:1px;stroke-linecap:butt;stroke-linejoin:miter;stroke-opacity:1"
           x="62.727501"
           y="10.46353"
           id="text4299"
           sodipodi:linespacing="125%"><tspan
             sodipodi:role="line"
             id="tspan4301"
             x="62.727501"
             y="10.46353">reset</tspan></text>
        <path
           style="fill:#2a7fff;fill-opacity:1;stroke:none"
           d="m 25.47568,26.800641 0,11.456245 c 0,0.259571 0.173483,0.468395 0.388948,0.468395 l 4.521943,0 c 0.215465,0 0.388949,-0.208824 0.388949,-0.468395 l 0,-11.456245 -5.29984,0 z m 7.94976,0 0,11.456245 c 0,0.259571 0.173484,0.468395 0.388949,0.468395 l 4.521942,0 c 0.215465,0 0.388949,-0.208824 0.388949,-0.468395 l 0,-11.456245 -5.29984,0 z m 7.94976,0 0,11.456245 c 0,0.259571 0.173484,0.468395 0.388949,0.468395 l 4.521942,0 c 0.215465,0 0.388949,-0.208824 0.388949,-0.468395 l 0,-11.456245 -5.29984,0 z m 7.94976,0 0,11.456245 c 0,0.259571 0.173484,0.468395 0.388949,0.468395 l 4.521942,0 c 0.215465,0 0.388949,-0.208824 0.388949,-0.468395 l 0,-11.456245 -5.29984,0 z m 7.94976,0 0,11.456245 c 0,0.259571 0.173484,0.468395 0.388949,0.468395 l 4.521942,0 c 0.215465,0 0.388949,-0.208824 0.388949,-0.468395 l 0,-11.456245 -5.29984,0 z m 7.94976,0 0,11.456245 c 0,0.259571 0.173484,0.468395 0.388949,0.468395 l 4.521942,0 c 0.215465,0 0.388949,-0.208824 0.388949,-0.468395 l 0,-11.456245 -5.29984,0 z"
           id="path4303"
           inkscape:connector-curvature="0" />
        <path
           style="fill:#ffffff;fill-opacity:1;stroke:none"
           d="m 26.527108,27.463006 c -0.215465,0 -0.388948,0.209082 -0.388948,0.468653 l 0,1.712872 c 0,0.25957 0.173483,0.468395 0.388948,0.468395 l 3.196983,0 c 0.215465,0 0.388949,-0.208825 0.388949,-0.468395 l 0,-1.712872 c 0,-0.259571 -0.173484,-0.468653 -0.388949,-0.468653 l -3.196983,0 z m 7.949761,0 c -0.215465,0 -0.388949,0.209082 -0.388949,0.468653 l 0,1.712872 c 0,0.25957 0.173484,0.468395 0.388949,0.468395 l 3.196982,0 c 0.215465,0 0.388949,-0.208825 0.388949,-0.468395 l 0,-1.712872 c 0,-0.259571 -0.173484,-0.468653 -0.388949,-0.468653 l -3.196982,0 z m 7.94976,0 c -0.215465,0 -0.388949,0.209082 -0.388949,0.468653 l 0,1.712872 c 0,0.25957 0.173484,0.468395 0.388949,0.468395 l 3.196982,0 c 0.215465,0 0.388949,-0.208825 0.388949,-0.468395 l 0,-1.712872 c 0,-0.259571 -0.173484,-0.468653 -0.388949,-0.468653 l -3.196982,0 z m 7.94976,0 c -0.215465,0 -0.388949,0.209082 -0.388949,0.468653 l 0,1.712872 c 0,0.25957 0.173484,0.468395 0.388949,0.468395 l 3.196982,0 c 0.215465,0 0.388949,-0.208825 0.388949,-0.468395 l 0,-1.712872 c 0,-0.259571 -0.173484,-0.468653 -0.388949,-0.468653 l -3.196982,0 z m 7.94976,0 c -0.215465,0 -0.388949,0.209082 -0.388949,0.468653 l 0,1.712872 c 0,0.25957 0.173484,0.468395 0.388949,0.468395 l 3.196982,0 c 0.215465,0 0.388949,-0.208825 0.388949,-0.468395 l 0,-1.712872 c 0,-0.259571 -0.173484,-0.468653 -0.388949,-0.468653 l -3.196982,0 z m 7.94976,0 c -0.215465,0 -0.388949,0.209082 -0.388949,0.468653 l 0,1.712872 c 0,0.25957 0.173484,0.468395 0.388949,0.468395 l 3.196982,0 c 0.215465,0 0.388949,-0.208825 0.388949,-0.468395 l 0,-1.712872 c 0,-0.259571 -0.173484,-0.468653 -0.388949,-0.468653 l -3.196982,0 z"
           id="path4305"
           inkscape:connector-curvature="0" />
        <path
           id="path4307"
           d="m 26.527108,35.412881 c -0.215465,0 -0.388948,0.209083 -0.388948,0.468653 l 0,1.712872 c 0,0.259571 0.173483,0.468395 0.388948,0.468395 l 3.196983,0 c 0.215465,0 0.388949,-0.208824 0.388949,-0.468395 l 0,-1.712872 c 0,-0.25957 -0.173484,-0.468653 -0.388949,-0.468653 l -3.196983,0 z m 7.949761,0 c -0.215465,0 -0.388949,0.209083 -0.388949,0.468653 l 0,1.712872 c 0,0.259571 0.173484,0.468395 0.388949,0.468395 l 3.196982,0 c 0.215465,0 0.388949,-0.208824 0.388949,-0.468395 l 0,-1.712872 c 0,-0.25957 -0.173484,-0.468653 -0.388949,-0.468653 l -3.196982,0 z m 7.94976,0 c -0.215465,0 -0.388949,0.209083 -0.388949,0.468653 l 0,1.712872 c 0,0.259571 0.173484,0.468395 0.388949,0.468395 l 3.196982,0 c 0.215465,0 0.388949,-0.208824 0.388949,-0.468395 l 0,-1.712872 c 0,-0.25957 -0.173484,-0.468653 -0.388949,-0.468653 l -3.196982,0 z m 7.94976,0 c -0.215465,0 -0.388949,0.209083 -0.388949,0.468653 l 0,1.712872 c 0,0.259571 0.173484,0.468395 0.388949,0.468395 l 3.196982,0 c 0.215465,0 0.388949,-0.208824 0.388949,-0.468395 l 0,-1.712872 c 0,-0.25957 -0.173484,-0.468653 -0.388949,-0.468653 l -3.196982,0 z m 7.94976,0 c -0.215465,0 -0.388949,0.209083 -0.388949,0.468653 l 0,1.712872 c 0,0.259571 0.173484,0.468395 0.388949,0.468395 l 3.196982,0 c 0.215465,0 0.388949,-0.208824 0.388949,-0.468395 l 0,-1.712872 c 0,-0.25957 -0.173484,-0.468653 -0.388949,-0.468653 l -3.196982,0 z m 7.94976,0 c -0.215465,0 -0.388949,0.209083 -0.388949,0.468653 l 0,1.712872 c 0,0.259571 0.173484,0.468395 0.388949,0.468395 l 3.196982,0 c 0.215465,0 0.388949,-0.208824 0.388949,-0.468395 l 0,-1.712872 c 0,-0.25957 -0.173484,-0.468653 -0.388949,-0.468653 l -3.196982,0 z"
           style="fill:#ffffff;fill-opacity:1;stroke:none"
           inkscape:connector-curvature="0" />
        <path
           inkscape:connector-curvature="0"
           id="path4309"
           d="m 25.47568,47.337521 0,11.456246 c 0,0.25957 0.173484,0.468394 0.388949,0.468394 l 4.521942,0 c 0.215465,0 0.388949,-0.208824 0.388949,-0.468394 l 0,-11.456246 -5.29984,0 z m 7.94976,0 0,11.456246 c 0,0.25957 0.173484,0.468394 0.388949,0.468394 l 4.521942,0 c 0.215465,0 0.388949,-0.208824 0.388949,-0.468394 l 0,-11.456246 -5.29984,0 z m 7.94976,0 0,11.456246 c 0,0.25957 0.173484,0.468394 0.388949,0.468394 l 4.521942,0 c 0.215465,0 0.388949,-0.208824 0.388949,-0.468394 l 0,-11.456246 -5.29984,0 z m 7.94976,0 0,11.456246 c 0,0.25957 0.173484,0.468394 0.388949,0.468394 l 4.521942,0 c 0.215465,0 0.388949,-0.208824 0.388949,-0.468394 l 0,-11.456246 -5.29984,0 z m 7.94976,0 0,11.456246 c 0,0.25957 0.173484,0.468394 0.388949,0.468394 l 4.521942,0 c 0.215465,0 0.388949,-0.208824 0.388949,-0.468394 l 0,-11.456246 -5.29984,0 z m 7.94976,0 0,11.456246 c 0,0.25957 0.173484,0.468394 0.388949,0.468394 l 4.521942,0 c 0.215465,0 0.388949,-0.208824 0.388949,-0.468394 l 0,-11.456246 -5.29984,0 z"
           style="fill:#333333;fill-opacity:1;stroke:none" />
        <path
           inkscape:connector-curvature="0"
           id="path4311"
           d="m 26.527109,47.999886 c -0.215465,0 -0.388949,0.209083 -0.388949,0.468653 l 0,1.712873 c 0,0.25957 0.173484,0.468394 0.388949,0.468394 l 3.196982,0 c 0.215465,0 0.388949,-0.208824 0.388949,-0.468394 l 0,-1.712873 c 0,-0.25957 -0.173484,-0.468653 -0.388949,-0.468653 l -3.196982,0 z m 7.94976,0 c -0.215465,0 -0.388949,0.209083 -0.388949,0.468653 l 0,1.712873 c 0,0.25957 0.173484,0.468394 0.388949,0.468394 l 3.196982,0 c 0.215465,0 0.388949,-0.208824 0.388949,-0.468394 l 0,-1.712873 c 0,-0.25957 -0.173484,-0.468653 -0.388949,-0.468653 l -3.196982,0 z m 7.94976,0 c -0.215465,0 -0.388949,0.209083 -0.388949,0.468653 l 0,1.712873 c 0,0.25957 0.173484,0.468394 0.388949,0.468394 l 3.196982,0 c 0.215465,0 0.388949,-0.208824 0.388949,-0.468394 l 0,-1.712873 c 0,-0.25957 -0.173484,-0.468653 -0.388949,-0.468653 l -3.196982,0 z m 7.94976,0 c -0.215465,0 -0.388949,0.209083 -0.388949,0.468653 l 0,1.712873 c 0,0.25957 0.173484,0.468394 0.388949,0.468394 l 3.196982,0 c 0.215465,0 0.388949,-0.208824 0.388949,-0.468394 l 0,-1.712873 c 0,-0.25957 -0.173484,-0.468653 -0.388949,-0.468653 l -3.196982,0 z m 7.94976,0 c -0.215465,0 -0.388949,0.209083 -0.388949,0.468653 l 0,1.712873 c 0,0.25957 0.173484,0.468394 0.388949,0.468394 l 3.196982,0 c 0.215465,0 0.388949,-0.208824 0.388949,-0.468394 l 0,-1.712873 c 0,-0.25957 -0.173484,-0.468653 -0.388949,-0.468653 l -3.196982,0 z m 7.94976,0 c -0.215465,0 -0.388949,0.209083 -0.388949,0.468653 l 0,1.712873 c 0,0.25957 0.173484,0.468394 0.388949,0.468394 l 3.196982,0 c 0.215465,0 0.388949,-0.208824 0.388949,-0.468394 l 0,-1.712873 c 0,-0.25957 -0.173484,-0.468653 -0.388949,-0.468653 l -3.196982,0 z"
           style="fill:#ffffff;fill-opacity:1;stroke:none" />
        <path
           inkscape:connector-curvature="0"
           style="fill:#ffffff;fill-opacity:1;stroke:none"
           d="m 26.527109,55.949761 c -0.215465,0 -0.388949,0.209083 -0.388949,0.468653 l 0,1.712873 c 0,0.25957 0.173484,0.468394 0.388949,0.468394 l 3.196982,0 c 0.215465,0 0.388949,-0.208824 0.388949,-0.468394 l 0,-1.712873 c 0,-0.25957 -0.173484,-0.468653 -0.388949,-0.468653 l -3.196982,0 z m 7.94976,0 c -0.215465,0 -0.388949,0.209083 -0.388949,0.468653 l 0,1.712873 c 0,0.25957 0.173484,0.468394 0.388949,0.468394 l 3.196982,0 c 0.215465,0 0.388949,-0.208824 0.388949,-0.468394 l 0,-1.712873 c 0,-0.25957 -0.173484,-0.468653 -0.388949,-0.468653 l -3.196982,0 z m 7.94976,0 c -0.215465,0 -0.388949,0.209083 -0.388949,0.468653 l 0,1.712873 c 0,0.25957 0.173484,0.468394 0.388949,0.468394 l 3.196982,0 c 0.215465,0 0.388949,-0.208824 0.388949,-0.468394 l 0,-1.712873 c 0,-0.25957 -0.173484,-0.468653 -0.388949,-0.468653 l -3.196982,0 z m 7.94976,0 c -0.215465,0 -0.388949,0.209083 -0.388949,0.468653 l 0,1.712873 c 0,0.25957 0.173484,0.468394 0.388949,0.468394 l 3.196982,0 c 0.215465,0 0.388949,-0.208824 0.388949,-0.468394 l 0,-1.712873 c 0,-0.25957 -0.173484,-0.468653 -0.388949,-0.468653 l -3.196982,0 z m 7.94976,0 c -0.215465,0 -0.388949,0.209083 -0.388949,0.468653 l 0,1.712873 c 0,0.25957 0.173484,0.468394 0.388949,0.468394 l 3.196982,0 c 0.215465,0 0.388949,-0.208824 0.388949,-0.468394 l 0,-1.712873 c 0,-0.25957 -0.173484,-0.468653 -0.388949,-0.468653 l -3.196982,0 z m 7.94976,0 c -0.215465,0 -0.388949,0.209083 -0.388949,0.468653 l 0,1.712873 c 0,0.25957 0.173484,0.468394 0.388949,0.468394 l 3.196982,0 c 0.215465,0 0.388949,-0.208824 0.388949,-0.468394 l 0,-1.712873 c 0,-0.25957 -0.173484,-0.468653 -0.388949,-0.468653 l -3.196982,0 z"
           id="path4313" />
        <circle
           style="fill:#00ff00;fill-opacity:1;stroke:none"
           id="circle4315"
           cx="37.400318"
           cy="51.974884"
           r="0.66248" />
        <circle
           r="0.66248"
           cy="51.974884"
           cx="29.45056"
           id="circle4317"
           style="fill:#00ff00;fill-opacity:1;stroke:none" />
        <circle
           style="fill:#00ff00;fill-opacity:1;stroke:none"
           id="circle4319"
           cx="45.350079"
           cy="51.974884"
           r="0.66248"
           inkscape:transform-center-x="82.579971"
           inkscape:transform-center-y="-0.25253814" />
        <circle
           inkscape:transform-center-y="-0.25253814"
           inkscape:transform-center-x="82.579971"
           r="0.66248"
           cy="51.974884"
           cx="53.299839"
           id="circle4321"
           style="fill:#00ff00;fill-opacity:1;stroke:none" />
        <circle
           style="fill:#00ff00;fill-opacity:1;stroke:none"
           id="circle4323"
           cx="61.249599"
           cy="51.974884"
           r="0.66248"
           inkscape:transform-center-x="82.579971"
           inkscape:transform-center-y="-0.25253814" />
        <circle
           inkscape:transform-center-y="-0.25253814"
           inkscape:transform-center-x="82.579971"
           r="0.66248"
           cy="51.974884"
           cx="69.199364"
           id="circle4325"
           style="fill:#00ff00;fill-opacity:1;stroke:none" />
        <circle
           r="0.66248"
           cy="31.438002"
           cx="37.400318"
           id="circle4327"
           style="fill:#00ff00;fill-opacity:1;stroke:none" />
        <circle
           style="fill:#00ff00;fill-opacity:1;stroke:none"
           id="circle4329"
           cx="29.45056"
           cy="31.438002"
           r="0.66248" />
        <circle
           inkscape:transform-center-y="-0.25253814"
           inkscape:transform-center-x="82.579971"
           r="0.66248"
           cy="31.438002"
           cx="45.350079"
           id="circle4331"
           style="fill:#00ff00;fill-opacity:1;stroke:none" />
        <circle
           style="fill:#00ff00;fill-opacity:1;stroke:none"
           id="circle4333"
           cx="53.299839"
           cy="31.438002"
           r="0.66248"
           inkscape:transform-center-x="82.579971"
           inkscape:transform-center-y="-0.25253814" />
        <circle
           inkscape:transform-center-y="-0.25253814"
           inkscape:transform-center-x="82.579971"
           r="0.66248"
           cy="31.438002"
           cx="61.249599"
           id="circle4335"
           style="fill:#00ff00;fill-opacity:1;stroke:none" />
        <circle
           style="fill:#00ff00;fill-opacity:1;stroke:none"
           id="circle4337"
           cx="69.199364"
           cy="31.438002"
           r="0.66248"
           inkscape:transform-center-x="82.579971"
           inkscape:transform-center-y="-0.25253814" />
        <rect
           ry="0.54062039"
           rx="0.42133662"
           y="4.9388032"
           x="24.150721"
           height="19.874397"
           width="34.448959"
           id="rect4339"
           style="fill:#cccccc;fill-opacity:1;stroke:none" />
        <rect
           style="fill:#00ff00;fill-opacity:1;stroke:none"
           id="rect4341"
           width="31.79904"
           height="17.22448"
           x="25.475679"
           y="6.263761"
           rx="0.38892612"
           ry="0.46853766" />
        <text
           xml:space="preserve"
           style="font-style:normal;font-weight:normal;font-size:4.12365484px;line-height:125%;font-family:sans-serif;letter-spacing:0px;word-spacing:0px;fill:#000000;fill-opacity:1;stroke:none;stroke-width:1px;stroke-linecap:butt;stroke-linejoin:miter;stroke-opacity:1"
           x="41.29443"
           y="10.615369"
           id="text4343"
           sodipodi:linespacing="125%"><tspan
             sodipodi:role="line"
             id="tspan4345"
             x="42.051506"
             y="10.615369"
             style="font-style:normal;font-variant:normal;font-weight:900;font-stretch:normal;font-family:'SF Digital Readout';-inkscape-font-specification:'SF Digital Readout Heavy';text-align:center;text-anchor:middle;stroke:none">GNU/linux </tspan><tspan
             sodipodi:role="line"
             x="41.29443"
             y="15.769938"
             style="font-style:normal;font-variant:normal;font-weight:900;font-stretch:normal;font-family:'SF Digital Readout';-inkscape-font-specification:'SF Digital Readout Heavy';text-align:center;text-anchor:middle;stroke:none"
             id="tspan4347">serviers</tspan><tspan
             sodipodi:role="line"
             x="41.29443"
             y="20.924505"
             id="tspan4349"
             style="font-style:normal;font-variant:normal;font-weight:900;font-stretch:normal;font-family:'SF Digital Readout';-inkscape-font-specification:'SF Digital Readout Heavy';text-align:center;text-anchor:middle;stroke:none">running</tspan></text>
        <path
           style="fill:#333333;fill-opacity:1;stroke:none"
           d="m 25.47568,61.91208 0,11.456245 c 0,0.259571 0.173484,0.468395 0.388949,0.468395 l 4.521942,0 c 0.215465,0 0.388949,-0.208824 0.388949,-0.468395 l 0,-11.456245 -5.29984,0 z m 7.94976,0 0,11.456245 c 0,0.259571 0.173484,0.468395 0.388949,0.468395 l 4.521942,0 c 0.215465,0 0.388949,-0.208824 0.388949,-0.468395 l 0,-11.456245 -5.29984,0 z m 7.94976,0 0,11.456245 c 0,0.259571 0.173484,0.468395 0.388949,0.468395 l 4.521942,0 c 0.215465,0 0.388949,-0.208824 0.388949,-0.468395 l 0,-11.456245 -5.29984,0 z m 7.94976,0 0,11.456245 c 0,0.259571 0.173484,0.468395 0.388949,0.468395 l 4.521942,0 c 0.215465,0 0.388949,-0.208824 0.388949,-0.468395 l 0,-11.456245 -5.29984,0 z m 7.94976,0 0,11.456245 c 0,0.259571 0.173484,0.468395 0.388949,0.468395 l 4.521942,0 c 0.215465,0 0.388949,-0.208824 0.388949,-0.468395 l 0,-11.456245 -5.29984,0 z m 7.94976,0 0,11.456245 c 0,0.259571 0.173484,0.468395 0.388949,0.468395 l 4.521942,0 c 0.215465,0 0.388949,-0.208824 0.388949,-0.468395 l 0,-11.456245 -5.29984,0 z"
           id="path4351"
           inkscape:connector-curvature="0" />
        <path
           style="fill:#ffffff;fill-opacity:1;stroke:none"
           d="m 26.527109,62.574445 c -0.215465,0 -0.388949,0.209082 -0.388949,0.468653 l 0,1.712872 c 0,0.25957 0.173484,0.468395 0.388949,0.468395 l 3.196982,0 c 0.215465,0 0.388949,-0.208825 0.388949,-0.468395 l 0,-1.712872 c 0,-0.259571 -0.173484,-0.468653 -0.388949,-0.468653 l -3.196982,0 z m 7.94976,0 c -0.215465,0 -0.388949,0.209082 -0.388949,0.468653 l 0,1.712872 c 0,0.25957 0.173484,0.468395 0.388949,0.468395 l 3.196982,0 c 0.215465,0 0.388949,-0.208825 0.388949,-0.468395 l 0,-1.712872 c 0,-0.259571 -0.173484,-0.468653 -0.388949,-0.468653 l -3.196982,0 z m 7.94976,0 c -0.215465,0 -0.388949,0.209082 -0.388949,0.468653 l 0,1.712872 c 0,0.25957 0.173484,0.468395 0.388949,0.468395 l 3.196982,0 c 0.215465,0 0.388949,-0.208825 0.388949,-0.468395 l 0,-1.712872 c 0,-0.259571 -0.173484,-0.468653 -0.388949,-0.468653 l -3.196982,0 z m 7.94976,0 c -0.215465,0 -0.388949,0.209082 -0.388949,0.468653 l 0,1.712872 c 0,0.25957 0.173484,0.468395 0.388949,0.468395 l 3.196982,0 c 0.215465,0 0.388949,-0.208825 0.388949,-0.468395 l 0,-1.712872 c 0,-0.259571 -0.173484,-0.468653 -0.388949,-0.468653 l -3.196982,0 z m 7.94976,0 c -0.215465,0 -0.388949,0.209082 -0.388949,0.468653 l 0,1.712872 c 0,0.25957 0.173484,0.468395 0.388949,0.468395 l 3.196982,0 c 0.215465,0 0.388949,-0.208825 0.388949,-0.468395 l 0,-1.712872 c 0,-0.259571 -0.173484,-0.468653 -0.388949,-0.468653 l -3.196982,0 z m 7.94976,0 c -0.215465,0 -0.388949,0.209082 -0.388949,0.468653 l 0,1.712872 c 0,0.25957 0.173484,0.468395 0.388949,0.468395 l 3.196982,0 c 0.215465,0 0.388949,-0.208825 0.388949,-0.468395 l 0,-1.712872 c 0,-0.259571 -0.173484,-0.468653 -0.388949,-0.468653 l -3.196982,0 z"
           id="path4353"
           inkscape:connector-curvature="0" />
        <path
           id="path4355"
           d="m 26.527109,70.52432 c -0.215465,0 -0.388949,0.209083 -0.388949,0.468653 l 0,1.712872 c 0,0.259571 0.173484,0.468395 0.388949,0.468395 l 3.196982,0 c 0.215465,0 0.388949,-0.208824 0.388949,-0.468395 l 0,-1.712872 c 0,-0.25957 -0.173484,-0.468653 -0.388949,-0.468653 l -3.196982,0 z m 7.94976,0 c -0.215465,0 -0.388949,0.209083 -0.388949,0.468653 l 0,1.712872 c 0,0.259571 0.173484,0.468395 0.388949,0.468395 l 3.196982,0 c 0.215465,0 0.388949,-0.208824 0.388949,-0.468395 l 0,-1.712872 c 0,-0.25957 -0.173484,-0.468653 -0.388949,-0.468653 l -3.196982,0 z m 7.94976,0 c -0.215465,0 -0.388949,0.209083 -0.388949,0.468653 l 0,1.712872 c 0,0.259571 0.173484,0.468395 0.388949,0.468395 l 3.196982,0 c 0.215465,0 0.388949,-0.208824 0.388949,-0.468395 l 0,-1.712872 c 0,-0.25957 -0.173484,-0.468653 -0.388949,-0.468653 l -3.196982,0 z m 7.94976,0 c -0.215465,0 -0.388949,0.209083 -0.388949,0.468653 l 0,1.712872 c 0,0.259571 0.173484,0.468395 0.388949,0.468395 l 3.196982,0 c 0.215465,0 0.388949,-0.208824 0.388949,-0.468395 l 0,-1.712872 c 0,-0.25957 -0.173484,-0.468653 -0.388949,-0.468653 l -3.196982,0 z m 7.94976,0 c -0.215465,0 -0.388949,0.209083 -0.388949,0.468653 l 0,1.712872 c 0,0.259571 0.173484,0.468395 0.388949,0.468395 l 3.196982,0 c 0.215465,0 0.388949,-0.208824 0.388949,-0.468395 l 0,-1.712872 c 0,-0.25957 -0.173484,-0.468653 -0.388949,-0.468653 l -3.196982,0 z m 7.94976,0 c -0.215465,0 -0.388949,0.209083 -0.388949,0.468653 l 0,1.712872 c 0,0.259571 0.173484,0.468395 0.388949,0.468395 l 3.196982,0 c 0.215465,0 0.388949,-0.208824 0.388949,-0.468395 l 0,-1.712872 c 0,-0.25957 -0.173484,-0.468653 -0.388949,-0.468653 l -3.196982,0 z"
           style="fill:#ffffff;fill-opacity:1;stroke:none"
           inkscape:connector-curvature="0" />
        <circle
           r="0.66248"
           cy="66.549438"
           cx="37.400318"
           id="circle4357"
           style="fill:#00ff00;fill-opacity:1;stroke:none" />
        <circle
           style="fill:#00ff00;fill-opacity:1;stroke:none"
           id="circle4359"
           cx="29.45056"
           cy="66.549438"
           r="0.66248" />
        <circle
           inkscape:transform-center-y="-0.25253814"
           inkscape:transform-center-x="82.579971"
           r="0.66248"
           cy="66.549438"
           cx="45.350079"
           id="circle4361"
           style="fill:#00ff00;fill-opacity:1;stroke:none" />
        <circle
           style="fill:#00ff00;fill-opacity:1;stroke:none"
           id="circle4363"
           cx="53.299839"
           cy="66.549438"
           r="0.66248"
           inkscape:transform-center-x="82.579971"
           inkscape:transform-center-y="-0.25253814" />
        <circle
           inkscape:transform-center-y="-0.25253814"
           inkscape:transform-center-x="82.579971"
           r="0.66248"
           cy="66.549438"
           cx="61.249599"
           id="circle4365"
           style="fill:#00ff00;fill-opacity:1;stroke:none" />
        <circle
           style="fill:#00ff00;fill-opacity:1;stroke:none"
           id="circle4367"
           cx="69.199364"
           cy="66.549438"
           r="0.66248"
           inkscape:transform-center-x="82.579971"
           inkscape:transform-center-y="-0.25253814" />
      </g>
      <g
         transform="matrix(0.24781804,0,0,0.21874939,11.744904,19.842103)"
         id="g4371"
         style="opacity:0.51499999;fill:#ffffff;fill-opacity:1">
        <rect
           ry="0.46853766"
           rx="0.25523275"
           y="88.411278"
           x="23.819481"
           height="6.6248002"
           width="13.91208"
           id="rect4373"
           style="fill:#ffffff;fill-opacity:1;stroke:none" />
        <rect
           style="fill:#ffffff;fill-opacity:1;stroke:none"
           id="rect4375"
           width="13.91208"
           height="6.6248002"
           x="58.26844"
           y="88.411278"
           rx="0.25523275"
           ry="0.46853766" />
        <rect
           ry="0.43054813"
           rx="0.38892612"
           y="0.96392232"
           x="22.82576"
           height="90.097282"
           width="50.34848"
           id="rect4377"
           style="fill:#ffffff;fill-opacity:1;stroke:none" />
        <rect
           ry="0.43054813"
           rx="0.38892612"
           y="39.924908"
           x="25.475679"
           height="46.266171"
           width="5.29984"
           id="rect4379"
           style="fill:#ffffff;fill-opacity:1;stroke:none" />
        <rect
           style="fill:#ffffff;fill-opacity:1;stroke:none"
           id="rect4381"
           width="5.29984"
           height="46.266171"
           x="33.425442"
           y="39.924908"
           rx="0.38892612"
           ry="0.43054813" />
        <rect
           ry="0.43054813"
           rx="0.38892612"
           y="39.924908"
           x="41.375198"
           height="46.266171"
           width="5.29984"
           id="rect4383"
           style="fill:#ffffff;fill-opacity:1;stroke:none" />
        <rect
           style="fill:#ffffff;fill-opacity:1;stroke:none"
           id="rect4385"
           width="5.29984"
           height="46.266171"
           x="49.324959"
           y="39.924908"
           rx="0.38892612"
           ry="0.43054813" />
        <rect
           ry="0.43054813"
           rx="0.38892612"
           y="39.924908"
           x="57.274719"
           height="46.266171"
           width="5.29984"
           id="rect4387"
           style="fill:#ffffff;fill-opacity:1;stroke:none" />
        <rect
           style="fill:#ffffff;fill-opacity:1;stroke:none"
           id="rect4389"
           width="5.29984"
           height="46.266171"
           x="65.22448"
           y="39.924908"
           rx="0.38892612"
           ry="0.43054813" />
        <circle
           r="1.32496"
           cy="5.8221083"
           cx="68.757698"
           id="circle4391"
           style="fill:#ffffff;fill-opacity:1;stroke:none" />
        <circle
           style="fill:#ffffff;fill-opacity:1;stroke:none"
           id="circle4393"
           cx="68.757698"
           cy="10.238641"
           r="1.7666134" />
        <circle
           r="1.7666134"
           cy="14.655174"
           cx="68.757698"
           id="circle4395"
           style="fill:#ffffff;fill-opacity:1;stroke:none" />
        <text
           sodipodi:linespacing="125%"
           id="text4397"
           y="6.2651644"
           x="63.831459"
           style="font-style:normal;font-weight:normal;font-size:1.5782932px;line-height:125%;font-family:sans-serif;letter-spacing:0px;word-spacing:0px;fill:#ffffff;fill-opacity:1;stroke:none;stroke-width:1px;stroke-linecap:butt;stroke-linejoin:miter;stroke-opacity:1"
           xml:space="preserve"><tspan
             y="6.2651644"
             x="63.831459"
             id="tspan4399"
             sodipodi:role="line">on</tspan></text>
        <text
           sodipodi:linespacing="125%"
           id="text4401"
           y="15.42036"
           x="63.682339"
           style="font-style:normal;font-weight:normal;font-size:1.5782932px;line-height:125%;font-family:sans-serif;letter-spacing:0px;word-spacing:0px;fill:#ffffff;fill-opacity:1;stroke:none;stroke-width:1px;stroke-linecap:butt;stroke-linejoin:miter;stroke-opacity:1"
           xml:space="preserve"><tspan
             y="15.42036"
             x="63.682339"
             id="tspan4403"
             sodipodi:role="line">off</tspan></text>
        <text
           sodipodi:linespacing="125%"
           id="text4405"
           y="10.46353"
           x="62.727501"
           style="font-style:normal;font-weight:normal;font-size:1.5782932px;line-height:125%;font-family:sans-serif;letter-spacing:0px;word-spacing:0px;fill:#ffffff;fill-opacity:1;stroke:none;stroke-width:1px;stroke-linecap:butt;stroke-linejoin:miter;stroke-opacity:1"
           xml:space="preserve"><tspan
             y="10.46353"
             x="62.727501"
             id="tspan4407"
             sodipodi:role="line">reset</tspan></text>
        <path
           inkscape:connector-curvature="0"
           id="path4409"
           d="m 25.47568,26.800641 0,11.456245 c 0,0.259571 0.173483,0.468395 0.388948,0.468395 l 4.521943,0 c 0.215465,0 0.388949,-0.208824 0.388949,-0.468395 l 0,-11.456245 -5.29984,0 z m 7.94976,0 0,11.456245 c 0,0.259571 0.173484,0.468395 0.388949,0.468395 l 4.521942,0 c 0.215465,0 0.388949,-0.208824 0.388949,-0.468395 l 0,-11.456245 -5.29984,0 z m 7.94976,0 0,11.456245 c 0,0.259571 0.173484,0.468395 0.388949,0.468395 l 4.521942,0 c 0.215465,0 0.388949,-0.208824 0.388949,-0.468395 l 0,-11.456245 -5.29984,0 z m 7.94976,0 0,11.456245 c 0,0.259571 0.173484,0.468395 0.388949,0.468395 l 4.521942,0 c 0.215465,0 0.388949,-0.208824 0.388949,-0.468395 l 0,-11.456245 -5.29984,0 z m 7.94976,0 0,11.456245 c 0,0.259571 0.173484,0.468395 0.388949,0.468395 l 4.521942,0 c 0.215465,0 0.388949,-0.208824 0.388949,-0.468395 l 0,-11.456245 -5.29984,0 z m 7.94976,0 0,11.456245 c 0,0.259571 0.173484,0.468395 0.388949,0.468395 l 4.521942,0 c 0.215465,0 0.388949,-0.208824 0.388949,-0.468395 l 0,-11.456245 -5.29984,0 z"
           style="fill:#ffffff;fill-opacity:1;stroke:none" />
        <path
           inkscape:connector-curvature="0"
           id="path4411"
           d="m 26.527108,27.463006 c -0.215465,0 -0.388948,0.209082 -0.388948,0.468653 l 0,1.712872 c 0,0.25957 0.173483,0.468395 0.388948,0.468395 l 3.196983,0 c 0.215465,0 0.388949,-0.208825 0.388949,-0.468395 l 0,-1.712872 c 0,-0.259571 -0.173484,-0.468653 -0.388949,-0.468653 l -3.196983,0 z m 7.949761,0 c -0.215465,0 -0.388949,0.209082 -0.388949,0.468653 l 0,1.712872 c 0,0.25957 0.173484,0.468395 0.388949,0.468395 l 3.196982,0 c 0.215465,0 0.388949,-0.208825 0.388949,-0.468395 l 0,-1.712872 c 0,-0.259571 -0.173484,-0.468653 -0.388949,-0.468653 l -3.196982,0 z m 7.94976,0 c -0.215465,0 -0.388949,0.209082 -0.388949,0.468653 l 0,1.712872 c 0,0.25957 0.173484,0.468395 0.388949,0.468395 l 3.196982,0 c 0.215465,0 0.388949,-0.208825 0.388949,-0.468395 l 0,-1.712872 c 0,-0.259571 -0.173484,-0.468653 -0.388949,-0.468653 l -3.196982,0 z m 7.94976,0 c -0.215465,0 -0.388949,0.209082 -0.388949,0.468653 l 0,1.712872 c 0,0.25957 0.173484,0.468395 0.388949,0.468395 l 3.196982,0 c 0.215465,0 0.388949,-0.208825 0.388949,-0.468395 l 0,-1.712872 c 0,-0.259571 -0.173484,-0.468653 -0.388949,-0.468653 l -3.196982,0 z m 7.94976,0 c -0.215465,0 -0.388949,0.209082 -0.388949,0.468653 l 0,1.712872 c 0,0.25957 0.173484,0.468395 0.388949,0.468395 l 3.196982,0 c 0.215465,0 0.388949,-0.208825 0.388949,-0.468395 l 0,-1.712872 c 0,-0.259571 -0.173484,-0.468653 -0.388949,-0.468653 l -3.196982,0 z m 7.94976,0 c -0.215465,0 -0.388949,0.209082 -0.388949,0.468653 l 0,1.712872 c 0,0.25957 0.173484,0.468395 0.388949,0.468395 l 3.196982,0 c 0.215465,0 0.388949,-0.208825 0.388949,-0.468395 l 0,-1.712872 c 0,-0.259571 -0.173484,-0.468653 -0.388949,-0.468653 l -3.196982,0 z"
           style="fill:#ffffff;fill-opacity:1;stroke:none" />
        <path
           inkscape:connector-curvature="0"
           style="fill:#ffffff;fill-opacity:1;stroke:none"
           d="m 26.527108,35.412881 c -0.215465,0 -0.388948,0.209083 -0.388948,0.468653 l 0,1.712872 c 0,0.259571 0.173483,0.468395 0.388948,0.468395 l 3.196983,0 c 0.215465,0 0.388949,-0.208824 0.388949,-0.468395 l 0,-1.712872 c 0,-0.25957 -0.173484,-0.468653 -0.388949,-0.468653 l -3.196983,0 z m 7.949761,0 c -0.215465,0 -0.388949,0.209083 -0.388949,0.468653 l 0,1.712872 c 0,0.259571 0.173484,0.468395 0.388949,0.468395 l 3.196982,0 c 0.215465,0 0.388949,-0.208824 0.388949,-0.468395 l 0,-1.712872 c 0,-0.25957 -0.173484,-0.468653 -0.388949,-0.468653 l -3.196982,0 z m 7.94976,0 c -0.215465,0 -0.388949,0.209083 -0.388949,0.468653 l 0,1.712872 c 0,0.259571 0.173484,0.468395 0.388949,0.468395 l 3.196982,0 c 0.215465,0 0.388949,-0.208824 0.388949,-0.468395 l 0,-1.712872 c 0,-0.25957 -0.173484,-0.468653 -0.388949,-0.468653 l -3.196982,0 z m 7.94976,0 c -0.215465,0 -0.388949,0.209083 -0.388949,0.468653 l 0,1.712872 c 0,0.259571 0.173484,0.468395 0.388949,0.468395 l 3.196982,0 c 0.215465,0 0.388949,-0.208824 0.388949,-0.468395 l 0,-1.712872 c 0,-0.25957 -0.173484,-0.468653 -0.388949,-0.468653 l -3.196982,0 z m 7.94976,0 c -0.215465,0 -0.388949,0.209083 -0.388949,0.468653 l 0,1.712872 c 0,0.259571 0.173484,0.468395 0.388949,0.468395 l 3.196982,0 c 0.215465,0 0.388949,-0.208824 0.388949,-0.468395 l 0,-1.712872 c 0,-0.25957 -0.173484,-0.468653 -0.388949,-0.468653 l -3.196982,0 z m 7.94976,0 c -0.215465,0 -0.388949,0.209083 -0.388949,0.468653 l 0,1.712872 c 0,0.259571 0.173484,0.468395 0.388949,0.468395 l 3.196982,0 c 0.215465,0 0.388949,-0.208824 0.388949,-0.468395 l 0,-1.712872 c 0,-0.25957 -0.173484,-0.468653 -0.388949,-0.468653 l -3.196982,0 z"
           id="path4413" />
        <path
           style="fill:#ffffff;fill-opacity:1;stroke:none"
           d="m 25.47568,47.337521 0,11.456246 c 0,0.25957 0.173484,0.468394 0.388949,0.468394 l 4.521942,0 c 0.215465,0 0.388949,-0.208824 0.388949,-0.468394 l 0,-11.456246 -5.29984,0 z m 7.94976,0 0,11.456246 c 0,0.25957 0.173484,0.468394 0.388949,0.468394 l 4.521942,0 c 0.215465,0 0.388949,-0.208824 0.388949,-0.468394 l 0,-11.456246 -5.29984,0 z m 7.94976,0 0,11.456246 c 0,0.25957 0.173484,0.468394 0.388949,0.468394 l 4.521942,0 c 0.215465,0 0.388949,-0.208824 0.388949,-0.468394 l 0,-11.456246 -5.29984,0 z m 7.94976,0 0,11.456246 c 0,0.25957 0.173484,0.468394 0.388949,0.468394 l 4.521942,0 c 0.215465,0 0.388949,-0.208824 0.388949,-0.468394 l 0,-11.456246 -5.29984,0 z m 7.94976,0 0,11.456246 c 0,0.25957 0.173484,0.468394 0.388949,0.468394 l 4.521942,0 c 0.215465,0 0.388949,-0.208824 0.388949,-0.468394 l 0,-11.456246 -5.29984,0 z m 7.94976,0 0,11.456246 c 0,0.25957 0.173484,0.468394 0.388949,0.468394 l 4.521942,0 c 0.215465,0 0.388949,-0.208824 0.388949,-0.468394 l 0,-11.456246 -5.29984,0 z"
           id="path4415"
           inkscape:connector-curvature="0" />
        <path
           style="fill:#ffffff;fill-opacity:1;stroke:none"
           d="m 26.527109,47.999886 c -0.215465,0 -0.388949,0.209083 -0.388949,0.468653 l 0,1.712873 c 0,0.25957 0.173484,0.468394 0.388949,0.468394 l 3.196982,0 c 0.215465,0 0.388949,-0.208824 0.388949,-0.468394 l 0,-1.712873 c 0,-0.25957 -0.173484,-0.468653 -0.388949,-0.468653 l -3.196982,0 z m 7.94976,0 c -0.215465,0 -0.388949,0.209083 -0.388949,0.468653 l 0,1.712873 c 0,0.25957 0.173484,0.468394 0.388949,0.468394 l 3.196982,0 c 0.215465,0 0.388949,-0.208824 0.388949,-0.468394 l 0,-1.712873 c 0,-0.25957 -0.173484,-0.468653 -0.388949,-0.468653 l -3.196982,0 z m 7.94976,0 c -0.215465,0 -0.388949,0.209083 -0.388949,0.468653 l 0,1.712873 c 0,0.25957 0.173484,0.468394 0.388949,0.468394 l 3.196982,0 c 0.215465,0 0.388949,-0.208824 0.388949,-0.468394 l 0,-1.712873 c 0,-0.25957 -0.173484,-0.468653 -0.388949,-0.468653 l -3.196982,0 z m 7.94976,0 c -0.215465,0 -0.388949,0.209083 -0.388949,0.468653 l 0,1.712873 c 0,0.25957 0.173484,0.468394 0.388949,0.468394 l 3.196982,0 c 0.215465,0 0.388949,-0.208824 0.388949,-0.468394 l 0,-1.712873 c 0,-0.25957 -0.173484,-0.468653 -0.388949,-0.468653 l -3.196982,0 z m 7.94976,0 c -0.215465,0 -0.388949,0.209083 -0.388949,0.468653 l 0,1.712873 c 0,0.25957 0.173484,0.468394 0.388949,0.468394 l 3.196982,0 c 0.215465,0 0.388949,-0.208824 0.388949,-0.468394 l 0,-1.712873 c 0,-0.25957 -0.173484,-0.468653 -0.388949,-0.468653 l -3.196982,0 z m 7.94976,0 c -0.215465,0 -0.388949,0.209083 -0.388949,0.468653 l 0,1.712873 c 0,0.25957 0.173484,0.468394 0.388949,0.468394 l 3.196982,0 c 0.215465,0 0.388949,-0.208824 0.388949,-0.468394 l 0,-1.712873 c 0,-0.25957 -0.173484,-0.468653 -0.388949,-0.468653 l -3.196982,0 z"
           id="path4417"
           inkscape:connector-curvature="0" />
        <path
           id="path4419"
           d="m 26.527109,55.949761 c -0.215465,0 -0.388949,0.209083 -0.388949,0.468653 l 0,1.712873 c 0,0.25957 0.173484,0.468394 0.388949,0.468394 l 3.196982,0 c 0.215465,0 0.388949,-0.208824 0.388949,-0.468394 l 0,-1.712873 c 0,-0.25957 -0.173484,-0.468653 -0.388949,-0.468653 l -3.196982,0 z m 7.94976,0 c -0.215465,0 -0.388949,0.209083 -0.388949,0.468653 l 0,1.712873 c 0,0.25957 0.173484,0.468394 0.388949,0.468394 l 3.196982,0 c 0.215465,0 0.388949,-0.208824 0.388949,-0.468394 l 0,-1.712873 c 0,-0.25957 -0.173484,-0.468653 -0.388949,-0.468653 l -3.196982,0 z m 7.94976,0 c -0.215465,0 -0.388949,0.209083 -0.388949,0.468653 l 0,1.712873 c 0,0.25957 0.173484,0.468394 0.388949,0.468394 l 3.196982,0 c 0.215465,0 0.388949,-0.208824 0.388949,-0.468394 l 0,-1.712873 c 0,-0.25957 -0.173484,-0.468653 -0.388949,-0.468653 l -3.196982,0 z m 7.94976,0 c -0.215465,0 -0.388949,0.209083 -0.388949,0.468653 l 0,1.712873 c 0,0.25957 0.173484,0.468394 0.388949,0.468394 l 3.196982,0 c 0.215465,0 0.388949,-0.208824 0.388949,-0.468394 l 0,-1.712873 c 0,-0.25957 -0.173484,-0.468653 -0.388949,-0.468653 l -3.196982,0 z m 7.94976,0 c -0.215465,0 -0.388949,0.209083 -0.388949,0.468653 l 0,1.712873 c 0,0.25957 0.173484,0.468394 0.388949,0.468394 l 3.196982,0 c 0.215465,0 0.388949,-0.208824 0.388949,-0.468394 l 0,-1.712873 c 0,-0.25957 -0.173484,-0.468653 -0.388949,-0.468653 l -3.196982,0 z m 7.94976,0 c -0.215465,0 -0.388949,0.209083 -0.388949,0.468653 l 0,1.712873 c 0,0.25957 0.173484,0.468394 0.388949,0.468394 l 3.196982,0 c 0.215465,0 0.388949,-0.208824 0.388949,-0.468394 l 0,-1.712873 c 0,-0.25957 -0.173484,-0.468653 -0.388949,-0.468653 l -3.196982,0 z"
           style="fill:#ffffff;fill-opacity:1;stroke:none"
           inkscape:connector-curvature="0" />
        <circle
           r="0.66248"
           cy="51.974884"
           cx="37.400318"
           id="circle4421"
           style="fill:#ffffff;fill-opacity:1;stroke:none" />
        <circle
           style="fill:#ffffff;fill-opacity:1;stroke:none"
           id="circle4423"
           cx="29.45056"
           cy="51.974884"
           r="0.66248" />
        <circle
           inkscape:transform-center-y="-0.25253814"
           inkscape:transform-center-x="82.579971"
           r="0.66248"
           cy="51.974884"
           cx="45.350079"
           id="circle4425"
           style="fill:#ffffff;fill-opacity:1;stroke:none" />
        <circle
           style="fill:#ffffff;fill-opacity:1;stroke:none"
           id="circle4427"
           cx="53.299839"
           cy="51.974884"
           r="0.66248"
           inkscape:transform-center-x="82.579971"
           inkscape:transform-center-y="-0.25253814" />
        <circle
           inkscape:transform-center-y="-0.25253814"
           inkscape:transform-center-x="82.579971"
           r="0.66248"
           cy="51.974884"
           cx="61.249599"
           id="circle4429"
           style="fill:#ffffff;fill-opacity:1;stroke:none" />
        <circle
           style="fill:#ffffff;fill-opacity:1;stroke:none"
           id="circle4431"
           cx="69.199364"
           cy="51.974884"
           r="0.66248"
           inkscape:transform-center-x="82.579971"
           inkscape:transform-center-y="-0.25253814" />
        <circle
           style="fill:#ffffff;fill-opacity:1;stroke:none"
           id="circle4433"
           cx="37.400318"
           cy="31.438002"
           r="0.66248" />
        <circle
           r="0.66248"
           cy="31.438002"
           cx="29.45056"
           id="circle4435"
           style="fill:#ffffff;fill-opacity:1;stroke:none" />
        <circle
           style="fill:#ffffff;fill-opacity:1;stroke:none"
           id="circle4437"
           cx="45.350079"
           cy="31.438002"
           r="0.66248"
           inkscape:transform-center-x="82.579971"
           inkscape:transform-center-y="-0.25253814" />
        <circle
           inkscape:transform-center-y="-0.25253814"
           inkscape:transform-center-x="82.579971"
           r="0.66248"
           cy="31.438002"
           cx="53.299839"
           id="circle4439"
           style="fill:#ffffff;fill-opacity:1;stroke:none" />
        <circle
           style="fill:#ffffff;fill-opacity:1;stroke:none"
           id="circle4441"
           cx="61.249599"
           cy="31.438002"
           r="0.66248"
           inkscape:transform-center-x="82.579971"
           inkscape:transform-center-y="-0.25253814" />
        <circle
           inkscape:transform-center-y="-0.25253814"
           inkscape:transform-center-x="82.579971"
           r="0.66248"
           cy="31.438002"
           cx="69.199364"
           id="circle4443"
           style="fill:#ffffff;fill-opacity:1;stroke:none" />
        <rect
           style="fill:#ffffff;fill-opacity:1;stroke:none"
           id="rect4445"
           width="34.448959"
           height="19.874397"
           x="24.150721"
           y="4.9388032"
           rx="0.42133662"
           ry="0.54062039" />
        <rect
           ry="0.46853766"
           rx="0.38892612"
           y="6.263761"
           x="25.475679"
           height="17.22448"
           width="31.79904"
           id="rect4447"
           style="fill:#ffffff;fill-opacity:1;stroke:none" />
        <text
           sodipodi:linespacing="125%"
           id="text4449"
           y="10.615369"
           x="41.29443"
           style="font-style:normal;font-weight:normal;font-size:4.12365484px;line-height:125%;font-family:sans-serif;letter-spacing:0px;word-spacing:0px;fill:#ffffff;fill-opacity:1;stroke:none;stroke-width:1px;stroke-linecap:butt;stroke-linejoin:miter;stroke-opacity:1"
           xml:space="preserve"><tspan
             style="font-style:normal;font-variant:normal;font-weight:900;font-stretch:normal;font-family:'SF Digital Readout';-inkscape-font-specification:'SF Digital Readout Heavy';text-align:center;text-anchor:middle;fill:#ffffff;fill-opacity:1;stroke:none"
             y="10.615369"
             x="42.051506"
             id="tspan4451"
             sodipodi:role="line">GNU/linux </tspan><tspan
             id="tspan4453"
             style="font-style:normal;font-variant:normal;font-weight:900;font-stretch:normal;font-family:'SF Digital Readout';-inkscape-font-specification:'SF Digital Readout Heavy';text-align:center;text-anchor:middle;fill:#ffffff;fill-opacity:1;stroke:none"
             y="15.769938"
             x="41.29443"
             sodipodi:role="line">serviers</tspan><tspan
             style="font-style:normal;font-variant:normal;font-weight:900;font-stretch:normal;font-family:'SF Digital Readout';-inkscape-font-specification:'SF Digital Readout Heavy';text-align:center;text-anchor:middle;fill:#ffffff;fill-opacity:1;stroke:none"
             id="tspan4455"
             y="20.924505"
             x="41.29443"
             sodipodi:role="line">running</tspan></text>
        <path
           inkscape:connector-curvature="0"
           id="path4457"
           d="m 25.47568,61.91208 0,11.456245 c 0,0.259571 0.173484,0.468395 0.388949,0.468395 l 4.521942,0 c 0.215465,0 0.388949,-0.208824 0.388949,-0.468395 l 0,-11.456245 -5.29984,0 z m 7.94976,0 0,11.456245 c 0,0.259571 0.173484,0.468395 0.388949,0.468395 l 4.521942,0 c 0.215465,0 0.388949,-0.208824 0.388949,-0.468395 l 0,-11.456245 -5.29984,0 z m 7.94976,0 0,11.456245 c 0,0.259571 0.173484,0.468395 0.388949,0.468395 l 4.521942,0 c 0.215465,0 0.388949,-0.208824 0.388949,-0.468395 l 0,-11.456245 -5.29984,0 z m 7.94976,0 0,11.456245 c 0,0.259571 0.173484,0.468395 0.388949,0.468395 l 4.521942,0 c 0.215465,0 0.388949,-0.208824 0.388949,-0.468395 l 0,-11.456245 -5.29984,0 z m 7.94976,0 0,11.456245 c 0,0.259571 0.173484,0.468395 0.388949,0.468395 l 4.521942,0 c 0.215465,0 0.388949,-0.208824 0.388949,-0.468395 l 0,-11.456245 -5.29984,0 z m 7.94976,0 0,11.456245 c 0,0.259571 0.173484,0.468395 0.388949,0.468395 l 4.521942,0 c 0.215465,0 0.388949,-0.208824 0.388949,-0.468395 l 0,-11.456245 -5.29984,0 z"
           style="fill:#ffffff;fill-opacity:1;stroke:none" />
        <path
           inkscape:connector-curvature="0"
           id="path4459"
           d="m 26.527109,62.574445 c -0.215465,0 -0.388949,0.209082 -0.388949,0.468653 l 0,1.712872 c 0,0.25957 0.173484,0.468395 0.388949,0.468395 l 3.196982,0 c 0.215465,0 0.388949,-0.208825 0.388949,-0.468395 l 0,-1.712872 c 0,-0.259571 -0.173484,-0.468653 -0.388949,-0.468653 l -3.196982,0 z m 7.94976,0 c -0.215465,0 -0.388949,0.209082 -0.388949,0.468653 l 0,1.712872 c 0,0.25957 0.173484,0.468395 0.388949,0.468395 l 3.196982,0 c 0.215465,0 0.388949,-0.208825 0.388949,-0.468395 l 0,-1.712872 c 0,-0.259571 -0.173484,-0.468653 -0.388949,-0.468653 l -3.196982,0 z m 7.94976,0 c -0.215465,0 -0.388949,0.209082 -0.388949,0.468653 l 0,1.712872 c 0,0.25957 0.173484,0.468395 0.388949,0.468395 l 3.196982,0 c 0.215465,0 0.388949,-0.208825 0.388949,-0.468395 l 0,-1.712872 c 0,-0.259571 -0.173484,-0.468653 -0.388949,-0.468653 l -3.196982,0 z m 7.94976,0 c -0.215465,0 -0.388949,0.209082 -0.388949,0.468653 l 0,1.712872 c 0,0.25957 0.173484,0.468395 0.388949,0.468395 l 3.196982,0 c 0.215465,0 0.388949,-0.208825 0.388949,-0.468395 l 0,-1.712872 c 0,-0.259571 -0.173484,-0.468653 -0.388949,-0.468653 l -3.196982,0 z m 7.94976,0 c -0.215465,0 -0.388949,0.209082 -0.388949,0.468653 l 0,1.712872 c 0,0.25957 0.173484,0.468395 0.388949,0.468395 l 3.196982,0 c 0.215465,0 0.388949,-0.208825 0.388949,-0.468395 l 0,-1.712872 c 0,-0.259571 -0.173484,-0.468653 -0.388949,-0.468653 l -3.196982,0 z m 7.94976,0 c -0.215465,0 -0.388949,0.209082 -0.388949,0.468653 l 0,1.712872 c 0,0.25957 0.173484,0.468395 0.388949,0.468395 l 3.196982,0 c 0.215465,0 0.388949,-0.208825 0.388949,-0.468395 l 0,-1.712872 c 0,-0.259571 -0.173484,-0.468653 -0.388949,-0.468653 l -3.196982,0 z"
           style="fill:#ffffff;fill-opacity:1;stroke:none" />
        <path
           inkscape:connector-curvature="0"
           style="fill:#ffffff;fill-opacity:1;stroke:none"
           d="m 26.527109,70.52432 c -0.215465,0 -0.388949,0.209083 -0.388949,0.468653 l 0,1.712872 c 0,0.259571 0.173484,0.468395 0.388949,0.468395 l 3.196982,0 c 0.215465,0 0.388949,-0.208824 0.388949,-0.468395 l 0,-1.712872 c 0,-0.25957 -0.173484,-0.468653 -0.388949,-0.468653 l -3.196982,0 z m 7.94976,0 c -0.215465,0 -0.388949,0.209083 -0.388949,0.468653 l 0,1.712872 c 0,0.259571 0.173484,0.468395 0.388949,0.468395 l 3.196982,0 c 0.215465,0 0.388949,-0.208824 0.388949,-0.468395 l 0,-1.712872 c 0,-0.25957 -0.173484,-0.468653 -0.388949,-0.468653 l -3.196982,0 z m 7.94976,0 c -0.215465,0 -0.388949,0.209083 -0.388949,0.468653 l 0,1.712872 c 0,0.259571 0.173484,0.468395 0.388949,0.468395 l 3.196982,0 c 0.215465,0 0.388949,-0.208824 0.388949,-0.468395 l 0,-1.712872 c 0,-0.25957 -0.173484,-0.468653 -0.388949,-0.468653 l -3.196982,0 z m 7.94976,0 c -0.215465,0 -0.388949,0.209083 -0.388949,0.468653 l 0,1.712872 c 0,0.259571 0.173484,0.468395 0.388949,0.468395 l 3.196982,0 c 0.215465,0 0.388949,-0.208824 0.388949,-0.468395 l 0,-1.712872 c 0,-0.25957 -0.173484,-0.468653 -0.388949,-0.468653 l -3.196982,0 z m 7.94976,0 c -0.215465,0 -0.388949,0.209083 -0.388949,0.468653 l 0,1.712872 c 0,0.259571 0.173484,0.468395 0.388949,0.468395 l 3.196982,0 c 0.215465,0 0.388949,-0.208824 0.388949,-0.468395 l 0,-1.712872 c 0,-0.25957 -0.173484,-0.468653 -0.388949,-0.468653 l -3.196982,0 z m 7.94976,0 c -0.215465,0 -0.388949,0.209083 -0.388949,0.468653 l 0,1.712872 c 0,0.259571 0.173484,0.468395 0.388949,0.468395 l 3.196982,0 c 0.215465,0 0.388949,-0.208824 0.388949,-0.468395 l 0,-1.712872 c 0,-0.25957 -0.173484,-0.468653 -0.388949,-0.468653 l -3.196982,0 z"
           id="path4461" />
        <circle
           style="fill:#ffffff;fill-opacity:1;stroke:none"
           id="circle4463"
           cx="37.400318"
           cy="66.549438"
           r="0.66248" />
        <circle
           r="0.66248"
           cy="66.549438"
           cx="29.45056"
           id="circle4465"
           style="fill:#ffffff;fill-opacity:1;stroke:none" />
        <circle
           style="fill:#ffffff;fill-opacity:1;stroke:none"
           id="circle4467"
           cx="45.350079"
           cy="66.549438"
           r="0.66248"
           inkscape:transform-center-x="82.579971"
           inkscape:transform-center-y="-0.25253814" />
        <circle
           inkscape:transform-center-y="-0.25253814"
           inkscape:transform-center-x="82.579971"
           r="0.66248"
           cy="66.549438"
           cx="53.299839"
           id="circle4469"
           style="fill:#ffffff;fill-opacity:1;stroke:none" />
        <circle
           style="fill:#ffffff;fill-opacity:1;stroke:none"
           id="circle4471"
           cx="61.249599"
           cy="66.549438"
           r="0.66248"
           inkscape:transform-center-x="82.579971"
           inkscape:transform-center-y="-0.25253814" />
        <circle
           inkscape:transform-center-y="-0.25253814"
           inkscape:transform-center-x="82.579971"
           r="0.66248"
           cy="66.549438"
           cx="69.199364"
           id="circle4473"
           style="fill:#ffffff;fill-opacity:1;stroke:none" />
      </g>
      <g
         transform="matrix(0.28972246,0,0,0.25573848,-0.37419653,16.580683)"
         id="g4300">
        <rect
           ry="0.46853766"
           rx="0.25523275"
           y="88.411278"
           x="23.819481"
           height="6.6248002"
           width="13.91208"
           id="rect4314"
           style="fill:#1a1a1a;fill-opacity:1;stroke:none" />
        <rect
           style="fill:#1a1a1a;fill-opacity:1;stroke:none"
           id="rect4316"
           width="13.91208"
           height="6.6248002"
           x="58.26844"
           y="88.411278"
           rx="0.25523275"
           ry="0.46853766" />
        <rect
           ry="0.43054813"
           rx="0.38892612"
           y="0.96392232"
           x="22.82576"
           height="90.097282"
           width="50.34848"
           id="rect4138"
           style="fill:#4d4d4d;fill-opacity:1;stroke:none" />
        <rect
           ry="0.43054813"
           rx="0.38892612"
           y="39.924908"
           x="25.475679"
           height="46.266171"
           width="5.29984"
           id="rect4142"
           style="fill:#b3b3b3;fill-opacity:1;stroke:none" />
        <rect
           style="fill:#b3b3b3;fill-opacity:1;stroke:none"
           id="rect4144"
           width="5.29984"
           height="46.266171"
           x="33.425442"
           y="39.924908"
           rx="0.38892612"
           ry="0.43054813" />
        <rect
           ry="0.43054813"
           rx="0.38892612"
           y="39.924908"
           x="41.375198"
           height="46.266171"
           width="5.29984"
           id="rect4146"
           style="fill:#b3b3b3;fill-opacity:1;stroke:none" />
        <rect
           style="fill:#b3b3b3;fill-opacity:1;stroke:none"
           id="rect4148"
           width="5.29984"
           height="46.266171"
           x="49.324959"
           y="39.924908"
           rx="0.38892612"
           ry="0.43054813" />
        <rect
           ry="0.43054813"
           rx="0.38892612"
           y="39.924908"
           x="57.274719"
           height="46.266171"
           width="5.29984"
           id="rect4150"
           style="fill:#b3b3b3;fill-opacity:1;stroke:none" />
        <rect
           style="fill:#b3b3b3;fill-opacity:1;stroke:none"
           id="rect4152"
           width="5.29984"
           height="46.266171"
           x="65.22448"
           y="39.924908"
           rx="0.38892612"
           ry="0.43054813" />
        <circle
           r="1.32496"
           cy="5.8221083"
           cx="68.757698"
           id="path4170"
           style="fill:#ff0000;fill-opacity:1;stroke:none" />
        <circle
           style="fill:#008000;fill-opacity:1;stroke:none"
           id="circle4172"
           cx="68.757698"
           cy="10.238641"
           r="1.7666134" />
        <circle
           r="1.7666134"
           cy="14.655174"
           cx="68.757698"
           id="circle4174"
           style="fill:#ffffff;fill-opacity:1;stroke:none" />
        <text
           sodipodi:linespacing="125%"
           id="text4176"
           y="6.2651644"
           x="63.831459"
           style="font-style:normal;font-weight:normal;font-size:1.5782932px;line-height:125%;font-family:sans-serif;letter-spacing:0px;word-spacing:0px;fill:#000000;fill-opacity:1;stroke:none;stroke-width:1px;stroke-linecap:butt;stroke-linejoin:miter;stroke-opacity:1"
           xml:space="preserve"><tspan
             y="6.2651644"
             x="63.831459"
             id="tspan4178"
             sodipodi:role="line">on</tspan></text>
        <text
           sodipodi:linespacing="125%"
           id="text4180"
           y="15.42036"
           x="63.682339"
           style="font-style:normal;font-weight:normal;font-size:1.5782932px;line-height:125%;font-family:sans-serif;letter-spacing:0px;word-spacing:0px;fill:#000000;fill-opacity:1;stroke:none;stroke-width:1px;stroke-linecap:butt;stroke-linejoin:miter;stroke-opacity:1"
           xml:space="preserve"><tspan
             y="15.42036"
             x="63.682339"
             id="tspan4182"
             sodipodi:role="line">off</tspan></text>
        <text
           sodipodi:linespacing="125%"
           id="text4192"
           y="10.46353"
           x="62.727501"
           style="font-style:normal;font-weight:normal;font-size:1.5782932px;line-height:125%;font-family:sans-serif;letter-spacing:0px;word-spacing:0px;fill:#000000;fill-opacity:1;stroke:none;stroke-width:1px;stroke-linecap:butt;stroke-linejoin:miter;stroke-opacity:1"
           xml:space="preserve"><tspan
             y="10.46353"
             x="62.727501"
             id="tspan4194"
             sodipodi:role="line">reset</tspan></text>
        <path
           inkscape:connector-curvature="0"
           id="rect4154"
           d="m 25.47568,26.800641 0,11.456245 c 0,0.259571 0.173483,0.468395 0.388948,0.468395 l 4.521943,0 c 0.215465,0 0.388949,-0.208824 0.388949,-0.468395 l 0,-11.456245 -5.29984,0 z m 7.94976,0 0,11.456245 c 0,0.259571 0.173484,0.468395 0.388949,0.468395 l 4.521942,0 c 0.215465,0 0.388949,-0.208824 0.388949,-0.468395 l 0,-11.456245 -5.29984,0 z m 7.94976,0 0,11.456245 c 0,0.259571 0.173484,0.468395 0.388949,0.468395 l 4.521942,0 c 0.215465,0 0.388949,-0.208824 0.388949,-0.468395 l 0,-11.456245 -5.29984,0 z m 7.94976,0 0,11.456245 c 0,0.259571 0.173484,0.468395 0.388949,0.468395 l 4.521942,0 c 0.215465,0 0.388949,-0.208824 0.388949,-0.468395 l 0,-11.456245 -5.29984,0 z m 7.94976,0 0,11.456245 c 0,0.259571 0.173484,0.468395 0.388949,0.468395 l 4.521942,0 c 0.215465,0 0.388949,-0.208824 0.388949,-0.468395 l 0,-11.456245 -5.29984,0 z m 7.94976,0 0,11.456245 c 0,0.259571 0.173484,0.468395 0.388949,0.468395 l 4.521942,0 c 0.215465,0 0.388949,-0.208824 0.388949,-0.468395 l 0,-11.456245 -5.29984,0 z"
           style="fill:#2a7fff;fill-opacity:1;stroke:none" />
        <path
           inkscape:connector-curvature="0"
           id="rect4196"
           d="m 26.527108,27.463006 c -0.215465,0 -0.388948,0.209082 -0.388948,0.468653 l 0,1.712872 c 0,0.25957 0.173483,0.468395 0.388948,0.468395 l 3.196983,0 c 0.215465,0 0.388949,-0.208825 0.388949,-0.468395 l 0,-1.712872 c 0,-0.259571 -0.173484,-0.468653 -0.388949,-0.468653 l -3.196983,0 z m 7.949761,0 c -0.215465,0 -0.388949,0.209082 -0.388949,0.468653 l 0,1.712872 c 0,0.25957 0.173484,0.468395 0.388949,0.468395 l 3.196982,0 c 0.215465,0 0.388949,-0.208825 0.388949,-0.468395 l 0,-1.712872 c 0,-0.259571 -0.173484,-0.468653 -0.388949,-0.468653 l -3.196982,0 z m 7.94976,0 c -0.215465,0 -0.388949,0.209082 -0.388949,0.468653 l 0,1.712872 c 0,0.25957 0.173484,0.468395 0.388949,0.468395 l 3.196982,0 c 0.215465,0 0.388949,-0.208825 0.388949,-0.468395 l 0,-1.712872 c 0,-0.259571 -0.173484,-0.468653 -0.388949,-0.468653 l -3.196982,0 z m 7.94976,0 c -0.215465,0 -0.388949,0.209082 -0.388949,0.468653 l 0,1.712872 c 0,0.25957 0.173484,0.468395 0.388949,0.468395 l 3.196982,0 c 0.215465,0 0.388949,-0.208825 0.388949,-0.468395 l 0,-1.712872 c 0,-0.259571 -0.173484,-0.468653 -0.388949,-0.468653 l -3.196982,0 z m 7.94976,0 c -0.215465,0 -0.388949,0.209082 -0.388949,0.468653 l 0,1.712872 c 0,0.25957 0.173484,0.468395 0.388949,0.468395 l 3.196982,0 c 0.215465,0 0.388949,-0.208825 0.388949,-0.468395 l 0,-1.712872 c 0,-0.259571 -0.173484,-0.468653 -0.388949,-0.468653 l -3.196982,0 z m 7.94976,0 c -0.215465,0 -0.388949,0.209082 -0.388949,0.468653 l 0,1.712872 c 0,0.25957 0.173484,0.468395 0.388949,0.468395 l 3.196982,0 c 0.215465,0 0.388949,-0.208825 0.388949,-0.468395 l 0,-1.712872 c 0,-0.259571 -0.173484,-0.468653 -0.388949,-0.468653 l -3.196982,0 z"
           style="fill:#ffffff;fill-opacity:1;stroke:none" />
        <path
           inkscape:connector-curvature="0"
           style="fill:#ffffff;fill-opacity:1;stroke:none"
           d="m 26.527108,35.412881 c -0.215465,0 -0.388948,0.209083 -0.388948,0.468653 l 0,1.712872 c 0,0.259571 0.173483,0.468395 0.388948,0.468395 l 3.196983,0 c 0.215465,0 0.388949,-0.208824 0.388949,-0.468395 l 0,-1.712872 c 0,-0.25957 -0.173484,-0.468653 -0.388949,-0.468653 l -3.196983,0 z m 7.949761,0 c -0.215465,0 -0.388949,0.209083 -0.388949,0.468653 l 0,1.712872 c 0,0.259571 0.173484,0.468395 0.388949,0.468395 l 3.196982,0 c 0.215465,0 0.388949,-0.208824 0.388949,-0.468395 l 0,-1.712872 c 0,-0.25957 -0.173484,-0.468653 -0.388949,-0.468653 l -3.196982,0 z m 7.94976,0 c -0.215465,0 -0.388949,0.209083 -0.388949,0.468653 l 0,1.712872 c 0,0.259571 0.173484,0.468395 0.388949,0.468395 l 3.196982,0 c 0.215465,0 0.388949,-0.208824 0.388949,-0.468395 l 0,-1.712872 c 0,-0.25957 -0.173484,-0.468653 -0.388949,-0.468653 l -3.196982,0 z m 7.94976,0 c -0.215465,0 -0.388949,0.209083 -0.388949,0.468653 l 0,1.712872 c 0,0.259571 0.173484,0.468395 0.388949,0.468395 l 3.196982,0 c 0.215465,0 0.388949,-0.208824 0.388949,-0.468395 l 0,-1.712872 c 0,-0.25957 -0.173484,-0.468653 -0.388949,-0.468653 l -3.196982,0 z m 7.94976,0 c -0.215465,0 -0.388949,0.209083 -0.388949,0.468653 l 0,1.712872 c 0,0.259571 0.173484,0.468395 0.388949,0.468395 l 3.196982,0 c 0.215465,0 0.388949,-0.208824 0.388949,-0.468395 l 0,-1.712872 c 0,-0.25957 -0.173484,-0.468653 -0.388949,-0.468653 l -3.196982,0 z m 7.94976,0 c -0.215465,0 -0.388949,0.209083 -0.388949,0.468653 l 0,1.712872 c 0,0.259571 0.173484,0.468395 0.388949,0.468395 l 3.196982,0 c 0.215465,0 0.388949,-0.208824 0.388949,-0.468395 l 0,-1.712872 c 0,-0.25957 -0.173484,-0.468653 -0.388949,-0.468653 l -3.196982,0 z"
           id="path4209" />
        <path
           style="fill:#333333;fill-opacity:1;stroke:none"
           d="m 25.47568,47.337521 0,11.456246 c 0,0.25957 0.173484,0.468394 0.388949,0.468394 l 4.521942,0 c 0.215465,0 0.388949,-0.208824 0.388949,-0.468394 l 0,-11.456246 -5.29984,0 z m 7.94976,0 0,11.456246 c 0,0.25957 0.173484,0.468394 0.388949,0.468394 l 4.521942,0 c 0.215465,0 0.388949,-0.208824 0.388949,-0.468394 l 0,-11.456246 -5.29984,0 z m 7.94976,0 0,11.456246 c 0,0.25957 0.173484,0.468394 0.388949,0.468394 l 4.521942,0 c 0.215465,0 0.388949,-0.208824 0.388949,-0.468394 l 0,-11.456246 -5.29984,0 z m 7.94976,0 0,11.456246 c 0,0.25957 0.173484,0.468394 0.388949,0.468394 l 4.521942,0 c 0.215465,0 0.388949,-0.208824 0.388949,-0.468394 l 0,-11.456246 -5.29984,0 z m 7.94976,0 0,11.456246 c 0,0.25957 0.173484,0.468394 0.388949,0.468394 l 4.521942,0 c 0.215465,0 0.388949,-0.208824 0.388949,-0.468394 l 0,-11.456246 -5.29984,0 z m 7.94976,0 0,11.456246 c 0,0.25957 0.173484,0.468394 0.388949,0.468394 l 4.521942,0 c 0.215465,0 0.388949,-0.208824 0.388949,-0.468394 l 0,-11.456246 -5.29984,0 z"
           id="path4225"
           inkscape:connector-curvature="0" />
        <path
           style="fill:#ffffff;fill-opacity:1;stroke:none"
           d="m 26.527109,47.999886 c -0.215465,0 -0.388949,0.209083 -0.388949,0.468653 l 0,1.712873 c 0,0.25957 0.173484,0.468394 0.388949,0.468394 l 3.196982,0 c 0.215465,0 0.388949,-0.208824 0.388949,-0.468394 l 0,-1.712873 c 0,-0.25957 -0.173484,-0.468653 -0.388949,-0.468653 l -3.196982,0 z m 7.94976,0 c -0.215465,0 -0.388949,0.209083 -0.388949,0.468653 l 0,1.712873 c 0,0.25957 0.173484,0.468394 0.388949,0.468394 l 3.196982,0 c 0.215465,0 0.388949,-0.208824 0.388949,-0.468394 l 0,-1.712873 c 0,-0.25957 -0.173484,-0.468653 -0.388949,-0.468653 l -3.196982,0 z m 7.94976,0 c -0.215465,0 -0.388949,0.209083 -0.388949,0.468653 l 0,1.712873 c 0,0.25957 0.173484,0.468394 0.388949,0.468394 l 3.196982,0 c 0.215465,0 0.388949,-0.208824 0.388949,-0.468394 l 0,-1.712873 c 0,-0.25957 -0.173484,-0.468653 -0.388949,-0.468653 l -3.196982,0 z m 7.94976,0 c -0.215465,0 -0.388949,0.209083 -0.388949,0.468653 l 0,1.712873 c 0,0.25957 0.173484,0.468394 0.388949,0.468394 l 3.196982,0 c 0.215465,0 0.388949,-0.208824 0.388949,-0.468394 l 0,-1.712873 c 0,-0.25957 -0.173484,-0.468653 -0.388949,-0.468653 l -3.196982,0 z m 7.94976,0 c -0.215465,0 -0.388949,0.209083 -0.388949,0.468653 l 0,1.712873 c 0,0.25957 0.173484,0.468394 0.388949,0.468394 l 3.196982,0 c 0.215465,0 0.388949,-0.208824 0.388949,-0.468394 l 0,-1.712873 c 0,-0.25957 -0.173484,-0.468653 -0.388949,-0.468653 l -3.196982,0 z m 7.94976,0 c -0.215465,0 -0.388949,0.209083 -0.388949,0.468653 l 0,1.712873 c 0,0.25957 0.173484,0.468394 0.388949,0.468394 l 3.196982,0 c 0.215465,0 0.388949,-0.208824 0.388949,-0.468394 l 0,-1.712873 c 0,-0.25957 -0.173484,-0.468653 -0.388949,-0.468653 l -3.196982,0 z"
           id="path4227"
           inkscape:connector-curvature="0" />
        <path
           id="path4229"
           d="m 26.527109,55.949761 c -0.215465,0 -0.388949,0.209083 -0.388949,0.468653 l 0,1.712873 c 0,0.25957 0.173484,0.468394 0.388949,0.468394 l 3.196982,0 c 0.215465,0 0.388949,-0.208824 0.388949,-0.468394 l 0,-1.712873 c 0,-0.25957 -0.173484,-0.468653 -0.388949,-0.468653 l -3.196982,0 z m 7.94976,0 c -0.215465,0 -0.388949,0.209083 -0.388949,0.468653 l 0,1.712873 c 0,0.25957 0.173484,0.468394 0.388949,0.468394 l 3.196982,0 c 0.215465,0 0.388949,-0.208824 0.388949,-0.468394 l 0,-1.712873 c 0,-0.25957 -0.173484,-0.468653 -0.388949,-0.468653 l -3.196982,0 z m 7.94976,0 c -0.215465,0 -0.388949,0.209083 -0.388949,0.468653 l 0,1.712873 c 0,0.25957 0.173484,0.468394 0.388949,0.468394 l 3.196982,0 c 0.215465,0 0.388949,-0.208824 0.388949,-0.468394 l 0,-1.712873 c 0,-0.25957 -0.173484,-0.468653 -0.388949,-0.468653 l -3.196982,0 z m 7.94976,0 c -0.215465,0 -0.388949,0.209083 -0.388949,0.468653 l 0,1.712873 c 0,0.25957 0.173484,0.468394 0.388949,0.468394 l 3.196982,0 c 0.215465,0 0.388949,-0.208824 0.388949,-0.468394 l 0,-1.712873 c 0,-0.25957 -0.173484,-0.468653 -0.388949,-0.468653 l -3.196982,0 z m 7.94976,0 c -0.215465,0 -0.388949,0.209083 -0.388949,0.468653 l 0,1.712873 c 0,0.25957 0.173484,0.468394 0.388949,0.468394 l 3.196982,0 c 0.215465,0 0.388949,-0.208824 0.388949,-0.468394 l 0,-1.712873 c 0,-0.25957 -0.173484,-0.468653 -0.388949,-0.468653 l -3.196982,0 z m 7.94976,0 c -0.215465,0 -0.388949,0.209083 -0.388949,0.468653 l 0,1.712873 c 0,0.25957 0.173484,0.468394 0.388949,0.468394 l 3.196982,0 c 0.215465,0 0.388949,-0.208824 0.388949,-0.468394 l 0,-1.712873 c 0,-0.25957 -0.173484,-0.468653 -0.388949,-0.468653 l -3.196982,0 z"
           style="fill:#ffffff;fill-opacity:1;stroke:none"
           inkscape:connector-curvature="0" />
        <circle
           r="0.66248"
           cy="51.974884"
           cx="37.400318"
           id="path4236"
           style="fill:#00ff00;fill-opacity:1;stroke:none" />
        <circle
           style="fill:#00ff00;fill-opacity:1;stroke:none"
           id="circle4240"
           cx="29.45056"
           cy="51.974884"
           r="0.66248" />
        <circle
           inkscape:transform-center-y="-0.25253814"
           inkscape:transform-center-x="82.579971"
           r="0.66248"
           cy="51.974884"
           cx="45.350079"
           id="circle4242"
           style="fill:#00ff00;fill-opacity:1;stroke:none" />
        <circle
           style="fill:#00ff00;fill-opacity:1;stroke:none"
           id="circle4244"
           cx="53.299839"
           cy="51.974884"
           r="0.66248"
           inkscape:transform-center-x="82.579971"
           inkscape:transform-center-y="-0.25253814" />
        <circle
           inkscape:transform-center-y="-0.25253814"
           inkscape:transform-center-x="82.579971"
           r="0.66248"
           cy="51.974884"
           cx="61.249599"
           id="circle4246"
           style="fill:#00ff00;fill-opacity:1;stroke:none" />
        <circle
           style="fill:#00ff00;fill-opacity:1;stroke:none"
           id="circle4248"
           cx="69.199364"
           cy="51.974884"
           r="0.66248"
           inkscape:transform-center-x="82.579971"
           inkscape:transform-center-y="-0.25253814" />
        <circle
           style="fill:#00ff00;fill-opacity:1;stroke:none"
           id="circle4272"
           cx="37.400318"
           cy="31.438002"
           r="0.66248" />
        <circle
           r="0.66248"
           cy="31.438002"
           cx="29.45056"
           id="circle4274"
           style="fill:#00ff00;fill-opacity:1;stroke:none" />
        <circle
           style="fill:#00ff00;fill-opacity:1;stroke:none"
           id="circle4276"
           cx="45.350079"
           cy="31.438002"
           r="0.66248"
           inkscape:transform-center-x="82.579971"
           inkscape:transform-center-y="-0.25253814" />
        <circle
           inkscape:transform-center-y="-0.25253814"
           inkscape:transform-center-x="82.579971"
           r="0.66248"
           cy="31.438002"
           cx="53.299839"
           id="circle4278"
           style="fill:#00ff00;fill-opacity:1;stroke:none" />
        <circle
           style="fill:#00ff00;fill-opacity:1;stroke:none"
           id="circle4280"
           cx="61.249599"
           cy="31.438002"
           r="0.66248"
           inkscape:transform-center-x="82.579971"
           inkscape:transform-center-y="-0.25253814" />
        <circle
           inkscape:transform-center-y="-0.25253814"
           inkscape:transform-center-x="82.579971"
           r="0.66248"
           cy="31.438002"
           cx="69.199364"
           id="circle4282"
           style="fill:#00ff00;fill-opacity:1;stroke:none" />
        <rect
           style="fill:#cccccc;fill-opacity:1;stroke:none"
           id="rect4292"
           width="34.448959"
           height="19.874397"
           x="24.150721"
           y="4.9388032"
           rx="0.42133662"
           ry="0.54062039" />
        <rect
           ry="0.46853766"
           rx="0.38892612"
           y="6.263761"
           x="25.475679"
           height="17.22448"
           width="31.79904"
           id="rect4284"
           style="fill:#00ff00;fill-opacity:1;stroke:none" />
        <text
           sodipodi:linespacing="125%"
           id="text4286"
           y="10.615369"
           x="41.29443"
           style="font-style:normal;font-weight:normal;font-size:4.12365484px;line-height:125%;font-family:sans-serif;letter-spacing:0px;word-spacing:0px;fill:#000000;fill-opacity:1;stroke:none;stroke-width:1px;stroke-linecap:butt;stroke-linejoin:miter;stroke-opacity:1"
           xml:space="preserve"><tspan
             style="font-style:normal;font-variant:normal;font-weight:900;font-stretch:normal;font-family:'SF Digital Readout';-inkscape-font-specification:'SF Digital Readout Heavy';text-align:center;text-anchor:middle;stroke:none"
             y="10.615369"
             x="42.051506"
             id="tspan4288"
             sodipodi:role="line">GNU/linux </tspan><tspan
             id="tspan4428"
             style="font-style:normal;font-variant:normal;font-weight:900;font-stretch:normal;font-family:'SF Digital Readout';-inkscape-font-specification:'SF Digital Readout Heavy';text-align:center;text-anchor:middle;stroke:none"
             y="15.769938"
             x="41.29443"
             sodipodi:role="line">serviers</tspan><tspan
             style="font-style:normal;font-variant:normal;font-weight:900;font-stretch:normal;font-family:'SF Digital Readout';-inkscape-font-specification:'SF Digital Readout Heavy';text-align:center;text-anchor:middle;stroke:none"
             id="tspan4290"
             y="20.924505"
             x="41.29443"
             sodipodi:role="line">running</tspan></text>
        <path
           inkscape:connector-curvature="0"
           id="path4294"
           d="m 25.47568,61.91208 0,11.456245 c 0,0.259571 0.173484,0.468395 0.388949,0.468395 l 4.521942,0 c 0.215465,0 0.388949,-0.208824 0.388949,-0.468395 l 0,-11.456245 -5.29984,0 z m 7.94976,0 0,11.456245 c 0,0.259571 0.173484,0.468395 0.388949,0.468395 l 4.521942,0 c 0.215465,0 0.388949,-0.208824 0.388949,-0.468395 l 0,-11.456245 -5.29984,0 z m 7.94976,0 0,11.456245 c 0,0.259571 0.173484,0.468395 0.388949,0.468395 l 4.521942,0 c 0.215465,0 0.388949,-0.208824 0.388949,-0.468395 l 0,-11.456245 -5.29984,0 z m 7.94976,0 0,11.456245 c 0,0.259571 0.173484,0.468395 0.388949,0.468395 l 4.521942,0 c 0.215465,0 0.388949,-0.208824 0.388949,-0.468395 l 0,-11.456245 -5.29984,0 z m 7.94976,0 0,11.456245 c 0,0.259571 0.173484,0.468395 0.388949,0.468395 l 4.521942,0 c 0.215465,0 0.388949,-0.208824 0.388949,-0.468395 l 0,-11.456245 -5.29984,0 z m 7.94976,0 0,11.456245 c 0,0.259571 0.173484,0.468395 0.388949,0.468395 l 4.521942,0 c 0.215465,0 0.388949,-0.208824 0.388949,-0.468395 l 0,-11.456245 -5.29984,0 z"
           style="fill:#333333;fill-opacity:1;stroke:none" />
        <path
           inkscape:connector-curvature="0"
           id="path4296"
           d="m 26.527109,62.574445 c -0.215465,0 -0.388949,0.209082 -0.388949,0.468653 l 0,1.712872 c 0,0.25957 0.173484,0.468395 0.388949,0.468395 l 3.196982,0 c 0.215465,0 0.388949,-0.208825 0.388949,-0.468395 l 0,-1.712872 c 0,-0.259571 -0.173484,-0.468653 -0.388949,-0.468653 l -3.196982,0 z m 7.94976,0 c -0.215465,0 -0.388949,0.209082 -0.388949,0.468653 l 0,1.712872 c 0,0.25957 0.173484,0.468395 0.388949,0.468395 l 3.196982,0 c 0.215465,0 0.388949,-0.208825 0.388949,-0.468395 l 0,-1.712872 c 0,-0.259571 -0.173484,-0.468653 -0.388949,-0.468653 l -3.196982,0 z m 7.94976,0 c -0.215465,0 -0.388949,0.209082 -0.388949,0.468653 l 0,1.712872 c 0,0.25957 0.173484,0.468395 0.388949,0.468395 l 3.196982,0 c 0.215465,0 0.388949,-0.208825 0.388949,-0.468395 l 0,-1.712872 c 0,-0.259571 -0.173484,-0.468653 -0.388949,-0.468653 l -3.196982,0 z m 7.94976,0 c -0.215465,0 -0.388949,0.209082 -0.388949,0.468653 l 0,1.712872 c 0,0.25957 0.173484,0.468395 0.388949,0.468395 l 3.196982,0 c 0.215465,0 0.388949,-0.208825 0.388949,-0.468395 l 0,-1.712872 c 0,-0.259571 -0.173484,-0.468653 -0.388949,-0.468653 l -3.196982,0 z m 7.94976,0 c -0.215465,0 -0.388949,0.209082 -0.388949,0.468653 l 0,1.712872 c 0,0.25957 0.173484,0.468395 0.388949,0.468395 l 3.196982,0 c 0.215465,0 0.388949,-0.208825 0.388949,-0.468395 l 0,-1.712872 c 0,-0.259571 -0.173484,-0.468653 -0.388949,-0.468653 l -3.196982,0 z m 7.94976,0 c -0.215465,0 -0.388949,0.209082 -0.388949,0.468653 l 0,1.712872 c 0,0.25957 0.173484,0.468395 0.388949,0.468395 l 3.196982,0 c 0.215465,0 0.388949,-0.208825 0.388949,-0.468395 l 0,-1.712872 c 0,-0.259571 -0.173484,-0.468653 -0.388949,-0.468653 l -3.196982,0 z"
           style="fill:#ffffff;fill-opacity:1;stroke:none" />
        <path
           inkscape:connector-curvature="0"
           style="fill:#ffffff;fill-opacity:1;stroke:none"
           d="m 26.527109,70.52432 c -0.215465,0 -0.388949,0.209083 -0.388949,0.468653 l 0,1.712872 c 0,0.259571 0.173484,0.468395 0.388949,0.468395 l 3.196982,0 c 0.215465,0 0.388949,-0.208824 0.388949,-0.468395 l 0,-1.712872 c 0,-0.25957 -0.173484,-0.468653 -0.388949,-0.468653 l -3.196982,0 z m 7.94976,0 c -0.215465,0 -0.388949,0.209083 -0.388949,0.468653 l 0,1.712872 c 0,0.259571 0.173484,0.468395 0.388949,0.468395 l 3.196982,0 c 0.215465,0 0.388949,-0.208824 0.388949,-0.468395 l 0,-1.712872 c 0,-0.25957 -0.173484,-0.468653 -0.388949,-0.468653 l -3.196982,0 z m 7.94976,0 c -0.215465,0 -0.388949,0.209083 -0.388949,0.468653 l 0,1.712872 c 0,0.259571 0.173484,0.468395 0.388949,0.468395 l 3.196982,0 c 0.215465,0 0.388949,-0.208824 0.388949,-0.468395 l 0,-1.712872 c 0,-0.25957 -0.173484,-0.468653 -0.388949,-0.468653 l -3.196982,0 z m 7.94976,0 c -0.215465,0 -0.388949,0.209083 -0.388949,0.468653 l 0,1.712872 c 0,0.259571 0.173484,0.468395 0.388949,0.468395 l 3.196982,0 c 0.215465,0 0.388949,-0.208824 0.388949,-0.468395 l 0,-1.712872 c 0,-0.25957 -0.173484,-0.468653 -0.388949,-0.468653 l -3.196982,0 z m 7.94976,0 c -0.215465,0 -0.388949,0.209083 -0.388949,0.468653 l 0,1.712872 c 0,0.259571 0.173484,0.468395 0.388949,0.468395 l 3.196982,0 c 0.215465,0 0.388949,-0.208824 0.388949,-0.468395 l 0,-1.712872 c 0,-0.25957 -0.173484,-0.468653 -0.388949,-0.468653 l -3.196982,0 z m 7.94976,0 c -0.215465,0 -0.388949,0.209083 -0.388949,0.468653 l 0,1.712872 c 0,0.259571 0.173484,0.468395 0.388949,0.468395 l 3.196982,0 c 0.215465,0 0.388949,-0.208824 0.388949,-0.468395 l 0,-1.712872 c 0,-0.25957 -0.173484,-0.468653 -0.388949,-0.468653 l -3.196982,0 z"
           id="path4298" />
        <circle
           style="fill:#00ff00;fill-opacity:1;stroke:none"
           id="circle4302"
           cx="37.400318"
           cy="66.549438"
           r="0.66248" />
        <circle
           r="0.66248"
           cy="66.549438"
           cx="29.45056"
           id="circle4304"
           style="fill:#00ff00;fill-opacity:1;stroke:none" />
        <circle
           style="fill:#00ff00;fill-opacity:1;stroke:none"
           id="circle4306"
           cx="45.350079"
           cy="66.549438"
           r="0.66248"
           inkscape:transform-center-x="82.579971"
           inkscape:transform-center-y="-0.25253814" />
        <circle
           inkscape:transform-center-y="-0.25253814"
           inkscape:transform-center-x="82.579971"
           r="0.66248"
           cy="66.549438"
           cx="53.299839"
           id="circle4308"
           style="fill:#00ff00;fill-opacity:1;stroke:none" />
        <circle
           style="fill:#00ff00;fill-opacity:1;stroke:none"
           id="circle4310"
           cx="61.249599"
           cy="66.549438"
           r="0.66248"
           inkscape:transform-center-x="82.579971"
           inkscape:transform-center-y="-0.25253814" />
        <circle
           inkscape:transform-center-y="-0.25253814"
           inkscape:transform-center-x="82.579971"
           r="0.66248"
           cy="66.549438"
           cx="69.199364"
           id="circle4312"
           style="fill:#00ff00;fill-opacity:1;stroke:none" />
      </g>
    </g>
  </g>
</svg>
