<?xml version="1.0" encoding="UTF-8"?>
<svg xmlns="http://www.w3.org/2000/svg" xmlns:xlink="http://www.w3.org/1999/xlink" width="96pt" height="96pt" viewBox="0 0 96 96" version="1.1">
<g id="surface1">
<path style="fill-rule:nonzero;fill:rgb(100%,100%,100%);fill-opacity:1;stroke-width:28.191782;stroke-linecap:butt;stroke-linejoin:miter;stroke:rgb(13.333333%,21.176471%,33.72549%);stroke-opacity:1;stroke-miterlimit:4;" d="M 81.479165 25.104166 L 430.520825 25.104166 C 461.666658 25.104166 486.895824 50.333332 486.895824 81.479165 L 486.895824 430.520825 C 486.895824 461.666658 461.666658 486.895824 430.520825 486.895824 L 81.479165 486.895824 C 50.333332 486.895824 25.104166 461.666658 25.104166 430.520825 L 25.104166 81.479165 C 25.104166 50.333332 50.333332 25.104166 81.479165 25.104166 Z M 81.479165 25.104166 " transform="matrix(0.1875,0,0,0.1875,0,0)"/>
<path style=" stroke:none;fill-rule:evenodd;fill:rgb(13.333333%,21.176471%,33.72549%);fill-opacity:1;" d="M 48.019531 11.945312 C 53.492188 11.945312 57.925781 17.5625 57.925781 24.492188 L 57.925781 45.753906 C 57.925781 52.683594 53.492188 58.300781 48.019531 58.300781 C 42.550781 58.300781 38.117188 52.683594 38.117188 45.753906 L 38.117188 24.492188 C 38.117188 17.5625 42.550781 11.945312 48.019531 11.945312 Z M 48.019531 11.945312 "/>
<path style=" stroke:none;fill-rule:evenodd;fill:rgb(13.333333%,21.176471%,33.72549%);fill-opacity:1;" d="M 33.105469 48.1875 L 26.894531 48.214844 C 27.445312 61.074219 35.921875 68.28125 45.140625 69.539062 L 45.140625 77.808594 C 41.085938 78.492188 37.207031 80.550781 34.253906 83.964844 L 61.882812 84.054688 C 59.085938 80.65625 55.386719 78.601562 51.472656 77.867188 L 51.472656 69.464844 C 60.308594 68.050781 68.320312 61.058594 69.105469 48.222656 L 62.796875 48.1875 C 61.734375 68.246094 34.289062 68.390625 33.105469 48.1875 Z M 33.105469 48.1875 "/>
</g>
</svg>
