
<svg xmlns="http://www.w3.org/2000/svg" xmlns:xlink="http://www.w3.org/1999/xlink" width="64px" height="64px" viewBox="0 0 64 64" version="1.1">
<g id="surface1">
<path style=" stroke:none;fill-rule:nonzero;fill:rgb(92.54902%,91.372549%,84.705882%);fill-opacity:1;" d="M 17.15625 3.457031 C 12.832031 3.457031 9.355469 6.933594 9.355469 11.257812 L 9.355469 52.742188 C 9.355469 57.066406 12.832031 60.542969 17.15625 60.542969 L 46.84375 60.542969 C 51.167969 60.542969 54.644531 57.066406 54.644531 52.742188 L 54.644531 12.707031 L 33.121094 3.457031 Z M 47.644531 3.496094 C 48.167969 3.546875 48.679688 3.652344 49.167969 3.804688 C 48.679688 3.652344 48.167969 3.546875 47.644531 3.496094 Z M 49.167969 3.804688 C 49.902344 4.03125 50.589844 4.363281 51.210938 4.785156 C 50.589844 4.363281 49.902344 4.03125 49.167969 3.804688 Z M 51.8125 5.230469 C 52.003906 5.390625 52.1875 5.5625 52.363281 5.738281 C 52.1875 5.558594 52.003906 5.390625 51.8125 5.230469 Z M 51.8125 5.230469 "/>
<path style=" stroke:none;fill-rule:nonzero;fill:rgb(100%,100%,100%);fill-opacity:0.682353;" d="M 54.644531 12.707031 L 33.121094 3.457031 L 33.121094 4.90625 C 33.121094 9.230469 36.597656 12.707031 40.921875 12.707031 Z M 54.644531 12.707031 "/>
<path style=" stroke:none;fill-rule:nonzero;fill:rgb(0%,0%,0%);fill-opacity:0.556863;" d="M 24.589844 23.765625 L 23.207031 23.765625 L 23.207031 19.59375 C 22.699219 19.96875 22.105469 20.25 21.417969 20.429688 L 21.417969 19.425781 C 21.78125 19.332031 22.171875 19.152344 22.59375 18.890625 C 23.019531 18.625 23.308594 18.316406 23.46875 17.964844 L 24.589844 17.964844 L 24.589844 23.765625 "/>
<path style=" stroke:none;fill-rule:nonzero;fill:rgb(0%,0%,0%);fill-opacity:0.556863;" d="M 24.589844 31.796875 L 23.207031 31.796875 L 23.207031 27.621094 C 22.699219 28 22.105469 28.28125 21.417969 28.460938 L 21.417969 27.457031 C 21.78125 27.363281 22.171875 27.183594 22.59375 26.921875 C 23.019531 26.65625 23.308594 26.347656 23.46875 25.996094 L 24.589844 25.996094 L 24.589844 31.796875 "/>
<path style=" stroke:none;fill-rule:nonzero;fill:rgb(0%,0%,0%);fill-opacity:0.556863;" d="M 29.003906 25.992188 C 29.703125 25.992188 30.25 26.195312 30.644531 26.59375 C 31.113281 27.066406 31.347656 27.851562 31.347656 28.945312 C 31.347656 30.039062 31.113281 30.824219 30.640625 31.300781 C 30.25 31.695312 29.703125 31.894531 29.003906 31.894531 C 28.300781 31.894531 27.734375 31.679688 27.304688 31.246094 C 26.875 30.8125 26.660156 30.042969 26.660156 28.933594 C 26.660156 27.847656 26.894531 27.0625 27.367188 26.585938 C 27.761719 26.191406 28.304688 25.992188 29.003906 25.992188 M 29.003906 26.914062 C 28.835938 26.914062 28.6875 26.957031 28.554688 27.042969 C 28.425781 27.125 28.324219 27.277344 28.25 27.5 C 28.15625 27.785156 28.109375 28.269531 28.109375 28.945312 C 28.109375 29.625 28.152344 30.089844 28.234375 30.34375 C 28.320312 30.597656 28.429688 30.765625 28.554688 30.847656 C 28.6875 30.933594 28.835938 30.976562 29.003906 30.976562 C 29.171875 30.976562 29.320312 30.933594 29.453125 30.847656 C 29.585938 30.761719 29.6875 30.609375 29.757812 30.386719 C 29.851562 30.105469 29.902344 29.625 29.902344 28.945312 C 29.902344 28.269531 29.859375 27.804688 29.773438 27.550781 C 29.6875 27.296875 29.578125 27.125 29.449219 27.042969 C 29.320312 26.957031 29.171875 26.914062 29.003906 26.914062 "/>
<path style=" stroke:none;fill-rule:nonzero;fill:rgb(0%,0%,0%);fill-opacity:0.556863;" d="M 24.589844 41.210938 L 23.207031 41.210938 L 23.207031 37.039062 C 22.699219 37.414062 22.105469 37.695312 21.417969 37.878906 L 21.417969 36.871094 C 21.78125 36.777344 22.171875 36.597656 22.59375 36.335938 C 23.019531 36.070312 23.308594 35.761719 23.46875 35.410156 L 24.589844 35.410156 L 24.589844 41.210938 "/>
<path style=" stroke:none;fill-rule:nonzero;fill:rgb(0%,0%,0%);fill-opacity:0.556863;" d="M 29.003906 35.410156 C 29.703125 35.410156 30.25 35.609375 30.644531 36.007812 C 31.113281 36.480469 31.347656 37.265625 31.347656 38.363281 C 31.347656 39.453125 31.113281 40.238281 30.640625 40.71875 C 30.25 41.113281 29.703125 41.308594 29.003906 41.308594 C 28.300781 41.308594 27.734375 41.09375 27.304688 40.664062 C 26.875 40.230469 26.660156 39.457031 26.660156 38.351562 C 26.660156 37.261719 26.894531 36.480469 27.367188 36 C 27.761719 35.605469 28.304688 35.410156 29.003906 35.410156 M 29.003906 36.328125 C 28.835938 36.328125 28.6875 36.371094 28.554688 36.457031 C 28.425781 36.542969 28.324219 36.695312 28.25 36.914062 C 28.15625 37.203125 28.109375 37.683594 28.109375 38.363281 C 28.109375 39.039062 28.152344 39.503906 28.234375 39.761719 C 28.320312 40.011719 28.429688 40.179688 28.554688 40.265625 C 28.6875 40.347656 28.835938 40.390625 29.003906 40.390625 C 29.171875 40.390625 29.320312 40.347656 29.453125 40.265625 C 29.585938 40.179688 29.6875 40.023438 29.757812 39.804688 C 29.851562 39.519531 29.902344 39.039062 29.902344 38.363281 C 29.902344 37.683594 29.859375 37.21875 29.773438 36.964844 C 29.6875 36.710938 29.578125 36.542969 29.449219 36.457031 C 29.320312 36.371094 29.171875 36.328125 29.003906 36.328125 "/>
<path style=" stroke:none;fill-rule:nonzero;fill:rgb(0%,0%,0%);fill-opacity:0.556863;" d="M 35.824219 41.210938 L 34.4375 41.210938 L 34.4375 37.039062 C 33.933594 37.414062 33.335938 37.695312 32.652344 37.878906 L 32.652344 36.871094 C 33.011719 36.777344 33.402344 36.597656 33.828125 36.335938 C 34.25 36.070312 34.542969 35.761719 34.699219 35.410156 L 35.824219 35.410156 L 35.824219 41.210938 "/>
<path style=" stroke:none;fill-rule:nonzero;fill:rgb(0%,0%,0%);fill-opacity:0.556863;" d="M 24.589844 49.324219 L 23.207031 49.324219 L 23.207031 45.152344 C 22.699219 45.527344 22.105469 45.808594 21.417969 45.988281 L 21.417969 44.984375 C 21.78125 44.890625 22.171875 44.710938 22.59375 44.449219 C 23.019531 44.183594 23.308594 43.875 23.46875 43.523438 L 24.589844 43.523438 L 24.589844 49.324219 "/>
<path style=" stroke:none;fill-rule:nonzero;fill:rgb(0%,0%,0%);fill-opacity:0.556863;" d="M 29.003906 43.523438 C 29.703125 43.523438 30.25 43.722656 30.644531 44.125 C 31.113281 44.597656 31.347656 45.378906 31.347656 46.476562 C 31.347656 47.570312 31.113281 48.355469 30.640625 48.832031 C 30.25 49.226562 29.703125 49.425781 29.003906 49.425781 C 28.300781 49.425781 27.734375 49.207031 27.304688 48.777344 C 26.875 48.34375 26.660156 47.574219 26.660156 46.464844 C 26.660156 45.375 26.894531 44.59375 27.367188 44.117188 C 27.761719 43.722656 28.304688 43.523438 29.003906 43.523438 M 29.003906 44.441406 C 28.835938 44.441406 28.6875 44.484375 28.554688 44.574219 C 28.425781 44.65625 28.324219 44.808594 28.25 45.03125 C 28.15625 45.316406 28.109375 45.796875 28.109375 46.476562 C 28.109375 47.152344 28.152344 47.621094 28.234375 47.875 C 28.320312 48.128906 28.429688 48.296875 28.554688 48.378906 C 28.6875 48.464844 28.835938 48.503906 29.003906 48.503906 C 29.171875 48.503906 29.320312 48.464844 29.453125 48.378906 C 29.585938 48.292969 29.6875 48.140625 29.757812 47.917969 C 29.851562 47.632812 29.902344 47.152344 29.902344 46.476562 C 29.902344 45.796875 29.859375 45.332031 29.773438 45.082031 C 29.6875 44.824219 29.578125 44.65625 29.449219 44.574219 C 29.320312 44.484375 29.171875 44.441406 29.003906 44.441406 "/>
<path style=" stroke:none;fill-rule:nonzero;fill:rgb(0%,0%,0%);fill-opacity:0.556863;" d="M 35.824219 49.324219 L 34.4375 49.324219 L 34.4375 45.152344 C 33.933594 45.527344 33.335938 45.808594 32.652344 45.988281 L 32.652344 44.984375 C 33.011719 44.890625 33.402344 44.710938 33.828125 44.449219 C 34.25 44.183594 34.542969 43.875 34.699219 43.523438 L 35.824219 43.523438 L 35.824219 49.324219 "/>
<path style=" stroke:none;fill-rule:nonzero;fill:rgb(0%,0%,0%);fill-opacity:0.556863;" d="M 40.238281 43.523438 C 40.9375 43.523438 41.484375 43.722656 41.878906 44.125 C 42.347656 44.597656 42.582031 45.378906 42.582031 46.476562 C 42.582031 47.570312 42.34375 48.355469 41.871094 48.832031 C 41.480469 49.226562 40.9375 49.425781 40.238281 49.425781 C 39.535156 49.425781 38.96875 49.207031 38.539062 48.777344 C 38.105469 48.34375 37.890625 47.574219 37.890625 46.464844 C 37.890625 45.375 38.128906 44.59375 38.601562 44.117188 C 38.992188 43.722656 39.539062 43.523438 40.238281 43.523438 M 40.238281 44.441406 C 40.070312 44.441406 39.921875 44.484375 39.789062 44.574219 C 39.65625 44.65625 39.554688 44.808594 39.484375 45.03125 C 39.386719 45.316406 39.339844 45.796875 39.339844 46.476562 C 39.339844 47.152344 39.382812 47.621094 39.46875 47.875 C 39.554688 48.128906 39.660156 48.296875 39.789062 48.378906 C 39.921875 48.464844 40.070312 48.503906 40.238281 48.503906 C 40.40625 48.503906 40.554688 48.464844 40.683594 48.378906 C 40.816406 48.292969 40.917969 48.140625 40.992188 47.917969 C 41.085938 47.632812 41.132812 47.152344 41.132812 46.476562 C 41.132812 45.796875 41.089844 45.332031 41.003906 45.082031 C 40.921875 44.824219 40.8125 44.65625 40.679688 44.574219 C 40.550781 44.484375 40.40625 44.441406 40.238281 44.441406 "/>
</g>
</svg>
