
<svg xmlns="http://www.w3.org/2000/svg" xmlns:xlink="http://www.w3.org/1999/xlink" width="64px" height="64px" viewBox="0 0 64 64" version="1.1">
<g id="surface1">
<path style=" stroke:none;fill-rule:nonzero;fill:rgb(97.647059%,87.058824%,41.176471%);fill-opacity:1;" d="M 17.15625 3.457031 C 12.832031 3.457031 9.355469 6.933594 9.355469 11.257812 L 9.355469 52.742188 C 9.355469 57.066406 12.832031 60.542969 17.15625 60.542969 L 46.84375 60.542969 C 51.167969 60.542969 54.644531 57.066406 54.644531 52.742188 L 54.644531 12.707031 L 33.121094 3.457031 Z M 47.644531 3.496094 C 48.167969 3.546875 48.679688 3.652344 49.167969 3.804688 C 48.679688 3.652344 48.167969 3.546875 47.644531 3.496094 Z M 49.167969 3.804688 C 49.902344 4.03125 50.589844 4.363281 51.210938 4.785156 C 50.589844 4.363281 49.902344 4.03125 49.167969 3.804688 Z M 51.8125 5.230469 C 52.003906 5.390625 52.1875 5.5625 52.363281 5.738281 C 52.1875 5.558594 52.003906 5.390625 51.8125 5.230469 Z M 51.8125 5.230469 "/>
<path style=" stroke:none;fill-rule:nonzero;fill:rgb(100%,100%,100%);fill-opacity:0.682353;" d="M 54.644531 12.707031 L 33.121094 3.457031 L 33.121094 4.90625 C 33.121094 9.230469 36.597656 12.707031 40.921875 12.707031 Z M 54.644531 12.707031 "/>
<path style=" stroke:none;fill-rule:nonzero;fill:rgb(78.431373%,44.313725%,21.568627%);fill-opacity:1;" d="M 25.9375 29.582031 C 25.140625 30.066406 24.726562 30.945312 24.785156 31.796875 C 23.945312 31.738281 23.058594 32.171875 22.582031 32.980469 C 22.109375 33.78125 22.152344 34.75 22.617188 35.429688 C 21.84375 35.808594 21.277344 36.628906 21.246094 37.539062 C 21.21875 38.453125 21.753906 39.230469 22.515625 39.554688 C 21.996094 40.269531 21.875 41.21875 22.300781 41.996094 C 22.726562 42.773438 23.566406 43.136719 24.414062 43.019531 C 24.296875 43.878906 24.667969 44.753906 25.4375 45.1875 C 26.195312 45.617188 27.152344 45.507812 27.855469 44.992188 C 28.179688 45.753906 28.953125 46.277344 29.847656 46.246094 C 30.25 46.234375 30.625 46.097656 30.957031 45.890625 L 35.425781 54.050781 L 36.785156 49.394531 L 41.292969 50.476562 L 36.824219 42.320312 C 37.15625 42.121094 37.460938 41.847656 37.671875 41.484375 C 38.144531 40.683594 38.097656 39.71875 37.632812 39.039062 C 38.410156 38.65625 38.976562 37.835938 39.003906 36.929688 C 39.035156 36.011719 38.5 35.238281 37.738281 34.910156 C 38.257812 34.195312 38.375 33.25 37.949219 32.46875 C 37.523438 31.691406 36.683594 31.328125 35.839844 31.445312 C 35.953125 30.585938 35.582031 29.710938 34.816406 29.277344 C 34.054688 28.851562 33.097656 28.957031 32.398438 29.476562 C 32.070312 28.710938 31.300781 28.1875 30.402344 28.21875 C 29.5 28.25 28.703125 28.84375 28.328125 29.640625 C 27.660156 29.160156 26.730469 29.097656 25.9375 29.582031 Z M 27.492188 32.421875 C 30.191406 30.777344 33.554688 31.585938 35 34.226562 C 36.445312 36.867188 35.429688 40.339844 32.730469 41.984375 C 30.027344 43.628906 26.667969 42.820312 25.21875 40.179688 C 23.773438 37.539062 24.792969 34.066406 27.492188 32.421875 Z M 28.015625 33.378906 C 25.855469 34.691406 25.042969 37.472656 26.199219 39.582031 C 27.355469 41.695312 30.042969 42.34375 32.207031 41.027344 C 34.367188 39.714844 35.179688 36.933594 34.023438 34.820312 C 32.867188 32.710938 30.175781 32.0625 28.015625 33.378906 Z M 28.015625 33.378906 "/>
</g>
</svg>
