
<svg xmlns="http://www.w3.org/2000/svg" xmlns:xlink="http://www.w3.org/1999/xlink" width="64px" height="64px" viewBox="0 0 64 64" version="1.1">
<g id="surface1">
<path style=" stroke:none;fill-rule:nonzero;fill:rgb(70.196078%,70.196078%,70.196078%);fill-opacity:1;" d="M 17.15625 3.457031 C 12.832031 3.457031 9.355469 6.933594 9.355469 11.257812 L 9.355469 52.742188 C 9.355469 57.066406 12.832031 60.542969 17.15625 60.542969 L 46.84375 60.542969 C 51.167969 60.542969 54.644531 57.066406 54.644531 52.742188 L 54.644531 12.707031 L 33.121094 3.457031 Z M 47.644531 3.496094 C 48.167969 3.546875 48.679688 3.652344 49.167969 3.804688 C 48.679688 3.652344 48.167969 3.546875 47.644531 3.496094 Z M 49.167969 3.804688 C 49.902344 4.03125 50.589844 4.363281 51.210938 4.785156 C 50.589844 4.363281 49.902344 4.03125 49.167969 3.804688 Z M 51.8125 5.230469 C 52.003906 5.390625 52.1875 5.5625 52.363281 5.738281 C 52.1875 5.558594 52.003906 5.390625 51.8125 5.230469 Z M 51.8125 5.230469 "/>
<path style=" stroke:none;fill-rule:nonzero;fill:rgb(100%,100%,100%);fill-opacity:0.682353;" d="M 54.644531 12.707031 L 33.121094 3.457031 L 33.121094 4.90625 C 33.121094 9.230469 36.597656 12.707031 40.921875 12.707031 Z M 54.644531 12.707031 "/>
<path style=" stroke:none;fill-rule:nonzero;fill:rgb(0%,0%,0%);fill-opacity:0.635294;" d="M 20.429688 41.066406 L 20.042969 38.757812 L 17.84375 38.757812 L 17.472656 41.066406 L 15.769531 41.066406 C 16.160156 39.09375 16.554688 37.300781 16.953125 35.6875 C 17.351562 34.0625 17.738281 32.519531 18.113281 31.066406 L 19.894531 31.066406 C 20.285156 32.53125 20.671875 34.089844 21.054688 35.734375 C 21.445312 37.371094 21.820312 39.148438 22.1875 41.066406 L 20.429688 41.066406 M 18.964844 33.003906 C 18.875 33.382812 18.789062 33.742188 18.710938 34.089844 C 18.640625 34.421875 18.570312 34.753906 18.496094 35.089844 C 18.4375 35.414062 18.375 35.742188 18.3125 36.074219 C 18.257812 36.410156 18.203125 36.753906 18.152344 37.109375 L 19.761719 37.109375 C 19.710938 36.753906 19.65625 36.410156 19.601562 36.074219 C 19.550781 35.742188 19.488281 35.414062 19.417969 35.089844 C 19.355469 34.753906 19.285156 34.421875 19.203125 34.089844 C 19.132812 33.742188 19.050781 33.382812 18.964844 33.003906 "/>
<path style=" stroke:none;fill-rule:nonzero;fill:rgb(0%,0%,0%);fill-opacity:0.635294;" d="M 25.394531 39.613281 C 25.671875 39.613281 25.898438 39.582031 26.074219 39.515625 C 26.261719 39.441406 26.40625 39.34375 26.511719 39.226562 C 26.621094 39.097656 26.691406 38.957031 26.726562 38.804688 C 26.769531 38.644531 26.792969 38.480469 26.792969 38.320312 C 26.792969 38.117188 26.746094 37.933594 26.648438 37.769531 C 26.550781 37.609375 26.425781 37.46875 26.273438 37.351562 C 26.121094 37.222656 25.953125 37.109375 25.769531 37.011719 C 25.582031 36.90625 25.394531 36.808594 25.207031 36.722656 C 24.960938 36.613281 24.703125 36.488281 24.4375 36.351562 C 24.171875 36.210938 23.925781 36.03125 23.703125 35.816406 C 23.492188 35.601562 23.3125 35.335938 23.171875 35.023438 C 23.027344 34.703125 22.957031 34.304688 22.957031 33.828125 C 22.957031 32.894531 23.207031 32.160156 23.703125 31.632812 C 24.210938 31.105469 24.902344 30.839844 25.78125 30.839844 C 26.289062 30.839844 26.726562 30.910156 27.097656 31.050781 C 27.480469 31.191406 27.800781 31.347656 28.058594 31.519531 L 27.578125 33.054688 C 27.355469 32.902344 27.109375 32.773438 26.832031 32.667969 C 26.566406 32.558594 26.257812 32.503906 25.902344 32.503906 C 25.03125 32.503906 24.597656 32.886719 24.597656 33.652344 C 24.597656 33.847656 24.640625 34.019531 24.730469 34.167969 C 24.816406 34.308594 24.929688 34.4375 25.0625 34.558594 C 25.203125 34.664062 25.359375 34.761719 25.527344 34.847656 C 25.707031 34.933594 25.878906 35.015625 26.046875 35.089844 C 26.304688 35.207031 26.570312 35.34375 26.847656 35.492188 C 27.128906 35.632812 27.386719 35.828125 27.617188 36.074219 C 27.859375 36.3125 28.054688 36.613281 28.203125 36.980469 C 28.355469 37.335938 28.429688 37.789062 28.429688 38.335938 C 28.429688 39.273438 28.179688 40 27.671875 40.515625 C 27.175781 41.023438 26.414062 41.277344 25.394531 41.277344 C 24.710938 41.277344 24.164062 41.191406 23.757812 41.019531 C 23.347656 40.835938 23.042969 40.667969 22.839844 40.515625 L 23.316406 38.902344 C 23.558594 39.074219 23.839844 39.234375 24.171875 39.386719 C 24.507812 39.539062 24.914062 39.613281 25.394531 39.613281 "/>
<path style=" stroke:none;fill-rule:nonzero;fill:rgb(0%,0%,0%);fill-opacity:0.635294;" d="M 32.90625 41.277344 C 31.742188 41.277344 30.855469 40.824219 30.242188 39.917969 C 29.628906 39.015625 29.324219 37.726562 29.324219 36.058594 C 29.324219 35.230469 29.417969 34.492188 29.605469 33.84375 C 29.789062 33.199219 30.046875 32.65625 30.375 32.214844 C 30.714844 31.761719 31.109375 31.421875 31.5625 31.195312 C 32.023438 30.960938 32.523438 30.839844 33.066406 30.839844 C 33.359375 30.839844 33.621094 30.871094 33.851562 30.9375 C 34.089844 30.992188 34.300781 31.054688 34.476562 31.132812 C 34.65625 31.207031 34.800781 31.289062 34.917969 31.375 C 35.039062 31.460938 35.132812 31.523438 35.195312 31.566406 L 34.769531 33.152344 C 34.566406 32.988281 34.316406 32.855469 34.023438 32.746094 C 33.742188 32.628906 33.410156 32.570312 33.039062 32.570312 C 32.78125 32.570312 32.527344 32.628906 32.28125 32.746094 C 32.039062 32.855469 31.824219 33.042969 31.628906 33.3125 C 31.441406 33.570312 31.285156 33.921875 31.160156 34.363281 C 31.046875 34.804688 30.988281 35.351562 30.988281 36.007812 C 30.988281 37.152344 31.148438 38.027344 31.46875 38.640625 C 31.796875 39.246094 32.328125 39.546875 33.066406 39.546875 C 33.492188 39.546875 33.84375 39.488281 34.117188 39.371094 C 34.402344 39.25 34.628906 39.132812 34.796875 39.015625 L 35.210938 40.582031 C 34.980469 40.753906 34.664062 40.914062 34.265625 41.066406 C 33.875 41.207031 33.421875 41.273438 32.90625 41.273438 "/>
<path style=" stroke:none;fill-rule:nonzero;fill:rgb(0%,0%,0%);fill-opacity:0.635294;" d="M 36.339844 41.066406 L 36.339844 39.417969 L 38.136719 39.417969 L 38.136719 32.714844 L 36.339844 32.714844 L 36.339844 31.066406 L 41.574219 31.066406 L 41.574219 32.714844 L 39.789062 32.714844 L 39.789062 39.417969 L 41.574219 39.417969 L 41.574219 41.066406 L 36.339844 41.066406 "/>
<path style=" stroke:none;fill-rule:nonzero;fill:rgb(0%,0%,0%);fill-opacity:0.635294;" d="M 43 41.066406 L 43 39.417969 L 44.796875 39.417969 L 44.796875 32.714844 L 43 32.714844 L 43 31.066406 L 48.230469 31.066406 L 48.230469 32.714844 L 46.449219 32.714844 L 46.449219 39.417969 L 48.230469 39.417969 L 48.230469 41.066406 L 43 41.066406 "/>
</g>
</svg>
