
<svg xmlns="http://www.w3.org/2000/svg" xmlns:xlink="http://www.w3.org/1999/xlink" width="64px" height="64px" viewBox="0 0 64 64" version="1.1">
<defs>
<clipPath id="clip1">
  <path d="M 32 36 L 47 36 L 47 51 L 32 51 Z M 32 36 "/>
</clipPath>
<clipPath id="clip2">
  <path d="M 39.234375 23.285156 C 31.921875 19.0625 22.566406 21.570312 18.34375 28.882812 C 14.121094 36.199219 16.628906 45.550781 23.941406 49.777344 C 31.257812 54 40.609375 51.492188 44.832031 44.179688 C 49.054688 36.863281 46.550781 27.511719 39.234375 23.285156 Z M 33.675781 32.917969 C 35.667969 34.070312 36.351562 36.621094 35.199219 38.617188 C 34.046875 40.613281 31.5 41.296875 29.503906 40.144531 C 27.507812 38.992188 26.824219 36.441406 27.976562 34.445312 C 29.128906 32.449219 31.679688 31.765625 33.675781 32.917969 Z M 33.675781 32.917969 "/>
</clipPath>
<clipPath id="clip3">
  <path d="M 16 22 L 32 22 L 32 38 L 16 38 Z M 16 22 "/>
</clipPath>
<clipPath id="clip4">
  <path d="M 24.003906 49.917969 C 31.320312 54.144531 40.671875 51.636719 44.894531 44.320312 C 49.117188 37.007812 46.613281 27.652344 39.296875 23.429688 C 31.984375 19.207031 22.628906 21.714844 18.40625 29.027344 C 14.183594 36.34375 16.6875 45.695312 24.003906 49.917969 Z M 29.566406 40.289062 C 27.570312 39.136719 26.886719 36.585938 28.039062 34.589844 C 29.191406 32.59375 31.742188 31.910156 33.734375 33.0625 C 35.730469 34.214844 36.414062 36.765625 35.261719 38.761719 C 34.109375 40.757812 31.558594 41.4375 29.566406 40.289062 Z M 29.566406 40.289062 "/>
</clipPath>
</defs>
<g id="surface1">
<path style=" stroke:none;fill-rule:nonzero;fill:rgb(80%,80%,80%);fill-opacity:1;" d="M 17.15625 3.457031 C 12.832031 3.457031 9.355469 6.933594 9.355469 11.257812 L 9.355469 52.742188 C 9.355469 57.066406 12.832031 60.542969 17.15625 60.542969 L 46.84375 60.542969 C 51.167969 60.542969 54.644531 57.066406 54.644531 52.742188 L 54.644531 12.707031 L 33.121094 3.457031 Z M 47.644531 3.496094 C 48.167969 3.546875 48.679688 3.652344 49.167969 3.804688 C 48.679688 3.652344 48.167969 3.546875 47.644531 3.496094 Z M 49.167969 3.804688 C 49.902344 4.03125 50.589844 4.363281 51.210938 4.785156 C 50.589844 4.363281 49.902344 4.03125 49.167969 3.804688 Z M 51.8125 5.230469 C 52.003906 5.390625 52.1875 5.5625 52.363281 5.738281 C 52.1875 5.558594 52.003906 5.390625 51.8125 5.230469 Z M 51.8125 5.230469 "/>
<path style=" stroke:none;fill-rule:nonzero;fill:rgb(100%,100%,100%);fill-opacity:0.682353;" d="M 54.644531 12.707031 L 33.121094 3.457031 L 33.121094 4.90625 C 33.121094 9.230469 36.597656 12.707031 40.921875 12.707031 Z M 54.644531 12.707031 "/>
<path style="fill-rule:nonzero;fill:rgb(50.196078%,50.196078%,50.196078%);fill-opacity:1;stroke-width:0.143376;stroke-linecap:butt;stroke-linejoin:miter;stroke:rgb(83.137255%,83.137255%,83.137255%);stroke-opacity:1;stroke-miterlimit:4;" d="M 29.425781 17.463867 C 23.941406 14.296875 16.924805 16.177734 13.757812 21.662109 C 10.59082 27.149414 12.47168 34.163086 17.956055 37.333008 C 23.443359 40.5 30.457031 38.619141 33.624023 33.134766 C 36.791016 27.647461 34.913086 20.633789 29.425781 17.463867 Z M 25.256836 24.688477 C 26.750977 25.552734 27.263672 27.46582 26.399414 28.962891 C 25.535156 30.459961 23.625 30.972656 22.12793 30.108398 C 20.630859 29.244141 20.118164 27.331055 20.982422 25.833984 C 21.84668 24.336914 23.759766 23.824219 25.256836 24.688477 Z M 25.256836 24.688477 " transform="matrix(1.333333,0,0,1.333333,0,0)"/>
<g clip-path="url(#clip1)" clip-rule="nonzero">
<g clip-path="url(#clip2)" clip-rule="nonzero">
<path style=" stroke:none;fill-rule:evenodd;fill:rgb(94.901961%,94.901961%,94.901961%);fill-opacity:1;" d="M 34.019531 36.199219 L 49.367188 38.792969 L 42.320312 50.996094 L 32.128906 37.832031 Z M 34.019531 36.199219 "/>
</g>
</g>
<g clip-path="url(#clip3)" clip-rule="nonzero">
<g clip-path="url(#clip4)" clip-rule="nonzero">
<path style=" stroke:none;fill-rule:evenodd;fill:rgb(94.901961%,94.901961%,94.901961%);fill-opacity:1;" d="M 29.21875 37.003906 L 13.871094 34.414062 L 20.917969 22.210938 L 31.109375 35.375 Z M 29.21875 37.003906 "/>
</g>
</g>
<path style="fill-rule:nonzero;fill:rgb(100%,100%,100%);fill-opacity:1;stroke-width:0.253932;stroke-linecap:butt;stroke-linejoin:miter;stroke:rgb(90.588235%,90.588235%,90.588235%);stroke-opacity:1;stroke-miterlimit:4;" d="M 26.138672 23.15625 C 23.797852 21.805664 20.803711 22.608398 19.450195 24.949219 C 18.09668 27.292969 18.899414 30.287109 21.243164 31.640625 C 23.583984 32.991211 26.581055 32.188477 27.931641 29.847656 C 29.285156 27.503906 28.482422 24.509766 26.138672 23.15625 Z M 24.990234 25.148438 C 26.232422 25.866211 26.660156 27.454102 25.942383 28.699219 C 25.224609 29.941406 23.633789 30.366211 22.391602 29.648438 C 21.149414 28.930664 20.72168 27.342773 21.439453 26.097656 C 22.157227 24.855469 23.748047 24.430664 24.990234 25.148438 Z M 24.990234 25.148438 " transform="matrix(1.333333,0,0,1.333333,0,0)"/>
</g>
</svg>
