
<svg xmlns="http://www.w3.org/2000/svg" xmlns:xlink="http://www.w3.org/1999/xlink" width="64px" height="64px" viewBox="0 0 64 64" version="1.1">
<g id="surface1">
<path style=" stroke:none;fill-rule:nonzero;fill:rgb(20%,20%,20%);fill-opacity:1;" d="M 17.15625 3.457031 C 12.832031 3.457031 9.355469 6.933594 9.355469 11.257812 L 9.355469 52.742188 C 9.355469 57.066406 12.832031 60.542969 17.15625 60.542969 L 46.84375 60.542969 C 51.167969 60.542969 54.644531 57.066406 54.644531 52.742188 L 54.644531 12.707031 L 33.121094 3.457031 Z M 47.644531 3.496094 C 48.167969 3.546875 48.679688 3.652344 49.167969 3.804688 C 48.679688 3.652344 48.167969 3.546875 47.644531 3.496094 Z M 49.167969 3.804688 C 49.902344 4.03125 50.589844 4.363281 51.210938 4.785156 C 50.589844 4.363281 49.902344 4.03125 49.167969 3.804688 Z M 51.8125 5.230469 C 52.003906 5.390625 52.1875 5.5625 52.363281 5.738281 C 52.1875 5.558594 52.003906 5.390625 51.8125 5.230469 Z M 51.8125 5.230469 "/>
<path style=" stroke:none;fill-rule:nonzero;fill:rgb(100%,100%,100%);fill-opacity:0.682353;" d="M 54.644531 12.707031 L 33.121094 3.457031 L 33.121094 4.90625 C 33.121094 9.230469 36.597656 12.707031 40.921875 12.707031 Z M 54.644531 12.707031 "/>
<path style=" stroke:none;fill-rule:nonzero;fill:rgb(100%,100%,100%);fill-opacity:1;" d="M 48.992188 35.117188 L 45.773438 35.117188 L 45.042969 38.558594 L 47.949219 38.558594 L 47.949219 41.070312 L 44.507812 41.070312 L 43.488281 45.765625 L 41.09375 45.765625 L 42.136719 41.070312 L 39.472656 41.070312 L 38.472656 45.765625 L 36.078125 45.765625 L 37.097656 41.070312 L 34.613281 41.070312 L 34.613281 38.558594 L 37.628906 38.558594 L 38.363281 35.117188 L 35.65625 35.117188 L 35.65625 32.757812 L 38.875 32.757812 L 39.917969 27.9375 L 42.3125 27.9375 L 41.246094 32.757812 L 43.910156 32.757812 L 44.929688 27.9375 L 47.328125 27.9375 L 46.285156 32.757812 L 48.992188 32.757812 L 48.992188 35.117188 M 42.667969 38.558594 L 43.378906 35.117188 L 40.738281 35.117188 L 40.003906 38.558594 L 42.667969 38.558594 "/>
<path style=" stroke:none;fill-rule:nonzero;fill:rgb(100%,100%,100%);fill-opacity:1;" d="M 14.726562 36.484375 C 14.726562 35.367188 14.957031 34.265625 15.414062 33.183594 C 15.875 32.085938 16.535156 31.105469 17.398438 30.246094 C 18.277344 29.390625 19.347656 28.695312 20.609375 28.160156 C 21.867188 27.628906 23.308594 27.363281 24.929688 27.363281 C 26.832031 27.363281 28.472656 27.730469 29.855469 28.46875 C 31.253906 29.207031 32.285156 30.171875 32.945312 31.355469 L 29.761719 33.238281 C 29.523438 32.722656 29.210938 32.292969 28.832031 31.949219 C 28.453125 31.585938 28.03125 31.304688 27.570312 31.097656 C 27.128906 30.890625 26.671875 30.746094 26.191406 30.660156 C 25.710938 30.558594 25.25 30.507812 24.808594 30.507812 C 23.828125 30.507812 22.96875 30.6875 22.226562 31.046875 C 21.488281 31.40625 20.867188 31.878906 20.367188 32.464844 C 19.886719 33.03125 19.515625 33.683594 19.257812 34.421875 C 19.015625 35.144531 18.894531 35.863281 18.894531 36.585938 C 18.894531 37.394531 19.035156 38.175781 19.316406 38.929688 C 19.617188 39.667969 20.027344 40.324219 20.546875 40.890625 C 21.085938 41.457031 21.726562 41.910156 22.46875 42.253906 C 23.207031 42.597656 24.019531 42.769531 24.898438 42.769531 C 25.359375 42.769531 25.828125 42.71875 26.308594 42.617188 C 26.789062 42.511719 27.25 42.347656 27.691406 42.125 C 28.152344 41.902344 28.570312 41.621094 28.953125 41.277344 C 29.332031 40.914062 29.640625 40.484375 29.882812 39.988281 L 33.273438 41.664062 C 32.953125 42.347656 32.484375 42.960938 31.863281 43.492188 C 31.261719 44.007812 30.574219 44.445312 29.792969 44.804688 C 29.011719 45.167969 28.191406 45.441406 27.332031 45.628906 C 26.46875 45.820312 25.621094 45.914062 24.777344 45.914062 C 23.296875 45.914062 21.9375 45.636719 20.695312 45.089844 C 19.476562 44.539062 18.414062 43.828125 17.515625 42.949219 C 16.632812 42.058594 15.945312 41.050781 15.445312 39.9375 C 14.964844 38.800781 14.722656 37.652344 14.722656 36.484375 "/>
</g>
</svg>
