<?xml version="1.0" encoding="UTF-8"?>
<svg xmlns="http://www.w3.org/2000/svg" xmlns:xlink="http://www.w3.org/1999/xlink" width="48pt" height="48pt" viewBox="0 0 48 48" version="1.1">
<g id="surface1">
<path style="fill-rule:nonzero;fill:rgb(100%,100%,100%);fill-opacity:1;stroke-width:2.598408;stroke-linecap:butt;stroke-linejoin:miter;stroke:rgb(60.784314%,61.568627%,65.098039%);stroke-opacity:1;stroke-miterlimit:4;" d="M 7.914062 2.71875 L 40.085938 2.71875 C 42.957031 2.71875 45.28125 5.042969 45.28125 7.914062 L 45.28125 40.085938 C 45.28125 42.957031 42.957031 45.28125 40.085938 45.28125 L 7.914062 45.28125 C 5.042969 45.28125 2.71875 42.957031 2.71875 40.085938 L 2.71875 7.914062 C 2.71875 5.042969 5.042969 2.71875 7.914062 2.71875 Z M 7.914062 2.71875 "/>
<path style=" stroke:none;fill-rule:evenodd;fill:rgb(14.901961%,15.294118%,16.078431%);fill-opacity:1;" d="M 21 28 L 25 30 C 30.644531 26.710938 38.488281 20.640625 41.425781 11 L 31 4 C 24.964844 8.566406 22.882812 17.648438 21 28 Z M 21 28 "/>
<path style=" stroke:none;fill-rule:evenodd;fill:rgb(87.843137%,27.45098%,7.45098%);fill-opacity:1;" d="M 9 43 C 20 44 25.460938 41 24 32 L 20 30 C 12 32 17 39 9 43 Z M 9 43 "/>
</g>
</svg>
