<?xml version="1.0" encoding="UTF-8"?>
<svg xmlns="http://www.w3.org/2000/svg" xmlns:xlink="http://www.w3.org/1999/xlink" width="48pt" height="48pt" viewBox="0 0 48 48" version="1.1">
<g id="surface1">
<path style="fill-rule:nonzero;fill:rgb(100%,100%,100%);fill-opacity:1;stroke-width:26.827003;stroke-linecap:butt;stroke-linejoin:miter;stroke:rgb(16.470588%,49.803922%,100%);stroke-opacity:1;stroke-miterlimit:4;" d="M 37.677124 135.832744 L 369.84379 135.832744 C 399.46879 135.832744 423.46879 159.832744 423.46879 189.457744 L 423.46879 521.62441 C 423.46879 551.24941 399.46879 575.24941 369.84379 575.24941 L 37.677124 575.24941 C 8.052124 575.24941 -15.947876 551.24941 -15.947876 521.62441 L -15.947876 189.457744 C -15.947876 159.832744 8.052124 135.832744 37.677124 135.832744 Z M 37.677124 135.832744 " transform="matrix(0.09375,0,0,0.09375,4.897457,-9.331976)"/>
<path style=" stroke:none;fill-rule:nonzero;fill:rgb(0%,0%,100%);fill-opacity:1;" d="M 24 7.582031 C 22.488281 7.582031 21.265625 8.808594 21.265625 10.320312 C 21.265625 11.828125 22.488281 13.054688 24 13.054688 C 25.511719 13.054688 26.734375 11.828125 26.734375 10.320312 C 26.734375 8.808594 25.511719 7.582031 24 7.582031 Z M 10.320312 14.421875 L 10.320312 17.160156 L 19.894531 17.160156 L 19.894531 40.417969 L 22.632812 40.417969 L 22.632812 29.472656 L 25.367188 29.472656 L 25.367188 40.417969 L 28.105469 40.417969 L 28.105469 17.160156 L 37.679688 17.160156 L 37.679688 14.421875 Z M 10.320312 14.421875 "/>
</g>
</svg>
