
<svg xmlns="http://www.w3.org/2000/svg" xmlns:xlink="http://www.w3.org/1999/xlink" width="512px" height="512px" viewBox="0 0 512 512" version="1.1">
<g id="surface1">
<path style="fill-rule:nonzero;fill:rgb(100%,100%,100%);fill-opacity:1;stroke-width:18.73;stroke-linecap:butt;stroke-linejoin:miter;stroke:#FF5555;stroke-opacity:1;stroke-miterlimit:4;" d="M 83.010212 37.218277 L 437.721149 37.218277 C 464.033649 37.218277 485.365681 58.550308 485.365681 84.862808 L 485.365681 439.573746 C 485.365681 465.886246 464.033649 487.218277 437.721149 487.218277 L 83.010212 487.218277 C 56.697712 487.218277 35.365681 465.886246 35.365681 439.573746 L 35.365681 84.862808 C 35.365681 58.550308 56.697712 37.218277 83.010212 37.218277 Z M 83.010212 37.218277 " transform="matrix(1,0,0,1,-4.365681,-6.218277)"/>
<path style=" stroke:none;fill-rule:nonzero;fill:rgb(20%,20%,20%);fill-opacity:1;" d="M 256 97.546875 C 174.3125 97.546875 108.089844 163.761719 108.089844 245.433594 L 108.089844 298.25 C 108.089844 304.085938 112.816406 308.8125 118.65625 308.8125 C 124.488281 308.8125 129.214844 304.085938 129.21875 298.253906 L 129.21875 245.433594 C 129.21875 175.425781 185.980469 118.671875 256 118.671875 C 326.019531 118.671875 382.78125 175.425781 382.78125 245.433594 L 382.78125 298.25 C 382.78125 304.085938 387.507812 308.8125 393.34375 308.8125 C 399.175781 308.8125 403.90625 304.085938 403.910156 298.253906 L 403.910156 245.433594 C 403.910156 163.761719 337.6875 97.546875 256 97.546875 Z M 256 97.546875 "/>
<path style=" stroke:none;fill-rule:evenodd;fill:rgb(0%,80%,100%);fill-opacity:1;" d="M 123.9375 277.128906 C 91.847656 277.128906 86.960938 303.140625 86.960938 335.226562 C 86.960938 367.3125 91.847656 393.324219 123.9375 393.324219 C 156.027344 393.324219 139.785156 367.3125 139.785156 335.226562 C 139.785156 303.140625 156.027344 277.128906 123.9375 277.128906 Z M 391.253906 277.128906 C 360.921875 277.128906 376.273438 303.140625 376.273438 335.226562 C 376.273438 367.3125 360.921875 393.324219 391.253906 393.324219 C 421.578125 393.324219 425.039062 367.3125 425.039062 335.226562 C 425.039062 303.140625 421.578125 277.128906 391.253906 277.128906 Z M 391.253906 277.128906 "/>
<path style=" stroke:none;fill-rule:evenodd;fill:rgb(80%,80%,80%);fill-opacity:1;" d="M 117.191406 359.226562 L 122.738281 356.171875 C 146.25 395.757812 171.019531 427.164062 216.53125 412.9375 L 217.730469 418.449219 C 164.675781 432.855469 139.507812 398.671875 117.191406 359.226562 Z M 117.191406 359.226562 "/>
<path style=" stroke:none;fill-rule:evenodd;fill:rgb(0%,0%,0%);fill-opacity:1;" d="M 150.351562 256 C 132.84375 256 118.65625 270.195312 118.65625 287.691406 L 118.65625 382.765625 C 118.65625 400.265625 132.84375 414.453125 150.351562 414.453125 C 167.851562 414.453125 182.046875 400.265625 182.046875 382.765625 L 182.046875 287.691406 C 182.046875 270.195312 167.851562 256 150.351562 256 Z M 361.648438 256 C 344.144531 256 329.953125 270.195312 329.953125 287.691406 L 329.953125 382.765625 C 329.953125 400.265625 344.144531 414.453125 361.648438 414.453125 C 379.152344 414.453125 393.34375 400.265625 393.34375 382.765625 L 393.34375 287.691406 C 393.34375 270.195312 379.152344 256 361.648438 256 Z M 361.648438 256 "/>
<path style=" stroke:none;fill-rule:evenodd;fill:rgb(0%,0%,0%);fill-opacity:1;" d="M 214.347656 408.449219 L 250.898438 399.75 L 255.832031 415.191406 L 219.28125 423.886719 Z M 214.347656 408.449219 "/>
</g>
</svg>
