
<svg xmlns="http://www.w3.org/2000/svg" xmlns:xlink="http://www.w3.org/1999/xlink" width="16px" height="16px" viewBox="0 0 16 16" version="1.1">
<g id="surface1">
<path style="fill-rule:nonzero;fill:rgb(80%,80%,80%);fill-opacity:1;stroke-width:1;stroke-linecap:butt;stroke-linejoin:miter;stroke:rgb(23.137255%,20.392157%,20.392157%);stroke-opacity:1;stroke-miterlimit:4;" d="M 309.875 42.5 C 287.125 42.5 268.5 63.375 264.75 91 L 444.625 91 C 440.875 63.375 422.125 42.5 399.5 42.5 Z M 309.875 42.5 " transform="matrix(0.03125,0,0,0.03125,0,0)"/>
<path style=" stroke:none;fill-rule:nonzero;fill:#6B6B6B;fill-opacity:1;" d="M 2.0625 3.085938 L 13.9375 3.085938 C 14.878906 3.085938 15.640625 3.851562 15.640625 4.792969 L 15.640625 10.777344 C 15.640625 11.71875 14.878906 12.480469 13.9375 12.480469 L 2.0625 12.480469 C 1.121094 12.480469 0.359375 11.71875 0.359375 10.777344 L 0.359375 4.792969 C 0.359375 3.851562 1.121094 3.085938 2.0625 3.085938 Z M 2.0625 3.085938 "/>
<path style=" stroke:none;fill-rule:nonzero;fill:#6B6B6B;fill-opacity:1;" d="M 2.0625 5.277344 L 13.9375 5.277344 C 14.878906 5.277344 15.640625 6.042969 15.640625 6.984375 L 15.640625 12.96875 C 15.640625 13.910156 14.878906 14.671875 13.9375 14.671875 L 2.0625 14.671875 C 1.121094 14.671875 0.359375 13.910156 0.359375 12.96875 L 0.359375 6.984375 C 0.359375 6.042969 1.121094 5.277344 2.0625 5.277344 Z M 2.0625 5.277344 "/>
<path style=" stroke:none;fill-rule:evenodd;fill:rgb(100%,100%,100%);fill-opacity:1;" d="M 11.878906 6.25 L 11.878906 11.796875 L 4.480469 11.796875 L 4.480469 6.25 Z M 9.921875 6.804688 L 5.21875 6.804688 L 5.21875 10.132812 L 6.699219 7.914062 L 8.433594 10.515625 L 9.472656 9.300781 L 11.140625 11.242188 L 11.140625 8.085938 C 11.011719 8.152344 10.867188 8.1875 10.722656 8.1875 C 10.210938 8.1875 9.796875 7.773438 9.796875 7.261719 C 9.796875 7.101562 9.839844 6.945312 9.921875 6.804688 Z M 6.878906 7.183594 L 7.574219 7.761719 C 7.574219 7.761719 7.515625 7.742188 8.125 7.355469 L 7.632812 8.234375 Z M 8.9375 8.339844 L 8.507812 8.9375 L 8.226562 8.4375 C 8.574219 8.65625 8.542969 8.667969 8.542969 8.667969 Z M 8.9375 8.339844 "/>
</g>
</svg>
