<?xml version="1.0" encoding="UTF-8"?>
<svg xmlns="http://www.w3.org/2000/svg" xmlns:xlink="http://www.w3.org/1999/xlink" width="32pt" height="32pt" viewBox="0 0 32 32" version="1.1">
<g id="surface1">
<path style=" stroke:none;fill-rule:nonzero;fill:rgb(30.196078%,30.196078%,30.196078%);fill-opacity:1;" d="M 17.457031 4.363281 L 6.773438 15 L 4.730469 17.089844 L 4.367188 17.453125 L 4.367188 23.273438 L 10.183594 23.273438 L 10.546875 22.910156 L 11.09375 22.410156 L 12.09375 21.363281 L 12.636719 20.863281 L 21.820312 11.636719 L 23.273438 10.179688 Z M 16.59375 7.273438 L 20.363281 11.046875 L 14.136719 17.226562 L 10.410156 13.453125 Z M 9.367188 14.5 L 13.136719 18.273438 L 12.09375 19.316406 L 8.320312 15.546875 Z M 7.320312 16.546875 L 11.09375 20.316406 L 10.046875 21.363281 L 6.273438 17.589844 Z M 7.320312 16.546875 "/>
<path style=" stroke:none;fill-rule:nonzero;fill:rgb(30.196078%,30.196078%,30.196078%);fill-opacity:1;" d="M 24 20.363281 C 23.617188 20.363281 22.609375 20.429688 21 21.179688 C 20.496094 21.417969 20.074219 21.683594 19.5 22 C 19.191406 22.167969 18.089844 22.71875 17.679688 22.910156 C 16.480469 23.464844 16.082031 23.605469 15.042969 24 C 14.042969 24.378906 12.960938 24.726562 12.226562 25 C 9.140625 26.15625 4.363281 26.179688 4.363281 26.179688 L 4.363281 27.636719 C 4.363281 27.636719 9.203125 27.683594 12.726562 26.363281 C 13.195312 26.1875 14.007812 25.902344 14.773438 25.636719 C 15.945312 25.207031 17.214844 24.679688 18.269531 24.226562 C 18.714844 24.019531 19.746094 23.511719 20.179688 23.273438 C 20.820312 22.917969 21.246094 22.660156 21.589844 22.5 C 22.335938 22.058594 23.164062 21.796875 24 21.816406 C 23.933594 21.816406 24.25 21.832031 24.542969 21.953125 C 24.835938 22.078125 25.160156 22.292969 25.40625 22.5 C 25.882812 22.984375 26.082031 23.351562 26.179688 24 C 26.140625 24.992188 25.800781 25.300781 25.089844 25.863281 C 24.617188 26.175781 23.953125 26.230469 23.273438 26.1875 L 23.273438 27.597656 C 24.414062 27.597656 25.324219 27.371094 25.863281 27.089844 C 27.078125 26.398438 27.675781 25.148438 27.632812 23.953125 C 27.628906 23.535156 27.523438 23.191406 27.316406 22.726562 C 27.109375 22.261719 26.816406 21.742188 26.363281 21.363281 C 25.660156 20.746094 25.308594 20.476562 24 20.363281 Z M 24 20.363281 "/>
</g>
</svg>
