<?xml version="1.0" encoding="UTF-8"?>
<svg xmlns="http://www.w3.org/2000/svg" xmlns:xlink="http://www.w3.org/1999/xlink" width="32pt" height="32pt" viewBox="0 0 32 32" version="1.1">
<g id="surface1">
<path style=" stroke:none;fill-rule:nonzero;fill:rgb(30.196078%,30.196078%,30.196078%);fill-opacity:1;" d="M 15.273438 4.363281 C 14.320312 4.363281 13.523438 4.972656 13.222656 5.816406 L 5.816406 5.816406 L 5.816406 23.40625 C 4.972656 23.707031 4.363281 24.503906 4.363281 25.453125 C 4.363281 26.664062 5.335938 27.636719 6.546875 27.636719 C 7.753906 27.636719 8.726562 26.664062 8.726562 25.453125 C 8.726562 24.503906 8.121094 23.707031 7.273438 23.40625 L 7.273438 7.273438 L 13.222656 7.273438 C 13.441406 7.890625 13.925781 8.375 14.546875 8.59375 L 14.546875 18.910156 L 16.132812 18.910156 C 16.433594 19.753906 17.230469 20.363281 18.183594 20.363281 C 19.390625 20.363281 20.363281 19.390625 20.363281 18.183594 C 20.363281 16.972656 19.390625 16 18.183594 16 C 17.230469 16 16.433594 16.609375 16.132812 17.453125 L 16 17.453125 L 16 8.59375 C 16.847656 8.292969 17.453125 7.496094 17.453125 6.546875 C 17.453125 5.335938 16.480469 4.363281 15.273438 4.363281 Z M 15.273438 5.816406 C 15.675781 5.816406 16 6.140625 16 6.546875 C 16 6.949219 15.675781 7.273438 15.273438 7.273438 C 14.871094 7.273438 14.546875 6.949219 14.546875 6.546875 C 14.546875 6.140625 14.871094 5.816406 15.273438 5.816406 Z M 18.183594 17.453125 C 18.585938 17.453125 18.910156 17.777344 18.910156 18.183594 C 18.910156 18.585938 18.585938 18.910156 18.183594 18.910156 C 17.777344 18.910156 17.453125 18.585938 17.453125 18.183594 C 17.453125 17.777344 17.777344 17.453125 18.183594 17.453125 Z M 6.546875 24.726562 C 6.949219 24.726562 7.273438 25.050781 7.273438 25.453125 C 7.273438 25.859375 6.949219 26.183594 6.546875 26.183594 C 6.140625 26.183594 5.816406 25.859375 5.816406 25.453125 C 5.816406 25.050781 6.140625 24.726562 6.546875 24.726562 Z M 6.546875 24.726562 "/>
<path style=" stroke:none;fill-rule:nonzero;fill:rgb(30.196078%,30.196078%,30.196078%);fill-opacity:1;" d="M 24 27.9375 L 18.910156 22.847656 L 19.9375 21.816406 L 23.273438 25.152344 L 23.273438 18.910156 L 24.726562 18.910156 L 24.726562 25.152344 L 28.0625 21.816406 L 29.089844 22.847656 Z M 24 27.9375 "/>
</g>
</svg>
