<?xml version="1.0" encoding="UTF-8"?>
<svg xmlns="http://www.w3.org/2000/svg" xmlns:xlink="http://www.w3.org/1999/xlink" width="32pt" height="32pt" viewBox="0 0 32 32" version="1.1">
<g id="surface1">
<path style=" stroke:none;fill-rule:nonzero;fill:rgb(85.490196%,26.666667%,32.54902%);fill-opacity:1;" d="M 20.363281 21.574219 L 22.789062 24 L 20.363281 26.425781 L 21.574219 27.636719 L 24 25.210938 L 26.425781 27.636719 L 27.636719 26.425781 L 25.210938 24 L 27.636719 21.574219 L 26.425781 20.363281 L 24 22.789062 L 21.574219 20.363281 Z M 20.363281 21.574219 "/>
<path style=" stroke:none;fill-rule:evenodd;fill:rgb(30.196078%,30.196078%,30.196078%);fill-opacity:1;" d="M 13.089844 4.363281 L 4.363281 7.273438 L 7.273438 16 L 18.910156 21.816406 L 18.910156 18.910156 L 24 18.910156 L 27.636719 11.636719 Z M 4.363281 7.273438 L 4.363281 16 L 16 27.636719 L 19.933594 23.703125 L 5.816406 16 Z M 9.453125 7.273438 C 10.664062 7.273438 11.636719 8.246094 11.636719 9.453125 C 11.636719 10.664062 10.664062 11.636719 9.453125 11.636719 C 8.246094 11.636719 7.273438 10.664062 7.273438 9.453125 C 7.273438 8.246094 8.246094 7.273438 9.453125 7.273438 Z M 9.453125 7.273438 "/>
</g>
</svg>
