<?xml version="1.0" encoding="UTF-8"?>
<svg xmlns="http://www.w3.org/2000/svg" xmlns:xlink="http://www.w3.org/1999/xlink" width="32pt" height="32pt" viewBox="0 0 32 32" version="1.1">
<g id="surface1">
<path style=" stroke:none;fill-rule:nonzero;fill:rgb(30.196078%,30.196078%,30.196078%);fill-opacity:1;" d="M 4.363281 20.4375 L 8.476562 20.4375 L 11.5625 9.121094 L 14.648438 20.4375 L 18.761719 20.4375 L 11.5625 27.636719 Z M 4.363281 20.4375 "/>
<path style=" stroke:none;fill-rule:nonzero;fill:rgb(30.196078%,30.196078%,30.196078%);fill-opacity:1;" d="M 13.089844 5.816406 L 5.816406 5.816406 L 5.816406 13.089844 L 4.363281 13.089844 L 4.363281 4.363281 L 13.089844 4.363281 Z M 13.089844 5.816406 "/>
<path style=" stroke:none;fill-rule:nonzero;fill:rgb(30.196078%,30.196078%,30.196078%);fill-opacity:1;" d="M 27.636719 13.089844 L 18.910156 13.089844 L 18.910156 4.363281 L 27.636719 4.363281 Z M 26.183594 11.636719 L 26.183594 5.816406 L 20.363281 5.816406 L 20.363281 11.636719 Z M 26.183594 11.636719 "/>
<path style=" stroke:none;fill-rule:nonzero;fill:rgb(30.196078%,30.196078%,30.196078%);fill-opacity:1;" d="M 18.910156 26.183594 L 26.183594 26.183594 L 26.183594 18.910156 L 27.636719 18.910156 L 27.636719 27.636719 L 18.910156 27.636719 Z M 18.910156 26.183594 "/>
</g>
</svg>
