
<svg xmlns="http://www.w3.org/2000/svg" xmlns:xlink="http://www.w3.org/1999/xlink" width="48px" height="48px" viewBox="0 0 48 48" version="1.1">
<g id="surface1">
<path style="fill-rule:nonzero;fill:rgb(100%,100%,100%);fill-opacity:1;stroke-width:18.73;stroke-linecap:butt;stroke-linejoin:miter;stroke:#71C837;stroke-opacity:1;stroke-miterlimit:4;" d="M 78.625 31 L 433.375 31 C 459.666667 31 481 52.333333 481 78.625 L 481 433.375 C 481 459.666667 459.666667 481 433.375 481 L 78.625 481 C 52.333333 481 31 459.666667 31 433.375 L 31 78.625 C 31 52.333333 52.333333 31 78.625 31 Z M 78.625 31 " transform="matrix(0.09375,0,0,0.09375,0,0)"/>
<path style=" stroke:none;fill-rule:nonzero;fill:rgb(20%,20%,20%);fill-opacity:1;" d="M 24 9.144531 C 16.339844 9.144531 10.132812 15.351562 10.132812 23.007812 L 10.132812 27.960938 C 10.132812 28.507812 10.578125 28.953125 11.125 28.953125 C 11.671875 28.953125 12.113281 28.507812 12.113281 27.960938 L 12.113281 23.007812 C 12.113281 16.445312 17.4375 11.125 24 11.125 C 30.5625 11.125 35.886719 16.445312 35.886719 23.007812 L 35.886719 27.960938 C 35.886719 28.507812 36.328125 28.953125 36.875 28.953125 C 37.421875 28.953125 37.867188 28.507812 37.867188 27.960938 L 37.867188 23.007812 C 37.867188 15.351562 31.660156 9.144531 24 9.144531 Z M 24 9.144531 "/>
<path style=" stroke:none;fill-rule:evenodd;fill:rgb(0%,80%,100%);fill-opacity:1;" d="M 11.621094 25.980469 C 8.609375 25.980469 8.152344 28.417969 8.152344 31.425781 C 8.152344 34.4375 8.609375 36.875 11.621094 36.875 C 14.628906 36.875 13.105469 34.4375 13.105469 31.425781 C 13.105469 28.417969 14.628906 25.980469 11.621094 25.980469 Z M 36.679688 25.980469 C 33.835938 25.980469 35.277344 28.417969 35.277344 31.425781 C 35.277344 34.4375 33.835938 36.875 36.679688 36.875 C 39.523438 36.875 39.847656 34.4375 39.847656 31.425781 C 39.847656 28.417969 39.523438 25.980469 36.679688 25.980469 Z M 36.679688 25.980469 "/>
<path style=" stroke:none;fill-rule:evenodd;fill:rgb(0%,0%,0%);fill-opacity:1;" d="M 14.09375 24 C 12.453125 24 11.125 25.332031 11.125 26.972656 L 11.125 35.882812 C 11.125 37.523438 12.453125 38.855469 14.09375 38.855469 C 15.734375 38.855469 17.066406 37.523438 17.066406 35.882812 L 17.066406 26.972656 C 17.066406 25.332031 15.734375 24 14.09375 24 Z M 33.90625 24 C 32.261719 24 30.933594 25.332031 30.933594 26.972656 L 30.933594 35.882812 C 30.933594 37.523438 32.261719 38.855469 33.90625 38.855469 C 35.546875 38.855469 36.875 37.523438 36.875 35.882812 L 36.875 26.972656 C 36.875 25.332031 35.546875 24 33.90625 24 Z M 33.90625 24 "/>
</g>
</svg>
