
<svg xmlns="http://www.w3.org/2000/svg" xmlns:xlink="http://www.w3.org/1999/xlink" width="16px" height="16px" viewBox="0 0 16 16" version="1.1">
<g id="surface1">
<path style="fill-rule:nonzero;fill:rgb(100%,100%,100%);fill-opacity:1;stroke-width:2.611469;stroke-linecap:butt;stroke-linejoin:miter;stroke:rgb(60%,60%,60%);stroke-opacity:1;stroke-miterlimit:4;" d="M 7.828125 1006.97545 L 40.171874 1006.97545 C 43.054686 1006.97545 45.386717 1009.307481 45.386717 1012.190293 L 45.386717 1044.534042 C 45.386717 1047.416855 43.054686 1049.748886 40.171874 1049.748886 L 7.828125 1049.748886 C 4.945312 1049.748886 2.613281 1047.416855 2.613281 1044.534042 L 2.613281 1012.190293 C 2.613281 1009.307481 4.945312 1006.97545 7.828125 1006.97545 Z M 7.828125 1006.97545 " transform="matrix(0.333333,0,0,0.333333,0,-334.7874)"/>
<path style=" stroke:none;fill-rule:nonzero;fill:rgb(60%,60%,60%);fill-opacity:1;" d="M 11.089844 6.359375 C 11.089844 4.152344 9.691406 2.359375 7.96875 2.359375 C 6.242188 2.359375 4.84375 4.152344 4.84375 6.359375 C 4.84375 8.566406 6.242188 10.355469 7.96875 10.355469 C 9.691406 10.355469 11.089844 8.566406 11.089844 6.359375 Z M 11.089844 6.359375 "/>
<path style=" stroke:none;fill-rule:nonzero;fill:rgb(60%,60%,60%);fill-opacity:1;" d="M 10.703125 9.914062 C 10.15625 11.195312 9.105469 11.988281 7.96875 11.988281 C 6.828125 11.988281 5.78125 11.191406 5.234375 9.914062 C 2.800781 10.761719 1.191406 12.660156 1.089844 14.789062 L 14.839844 14.789062 C 14.742188 12.660156 13.132812 10.765625 10.703125 9.914062 Z M 10.703125 9.914062 "/>
</g>
</svg>
