<?xml version="1.0" encoding="UTF-8"?>
<svg xmlns="http://www.w3.org/2000/svg" xmlns:xlink="http://www.w3.org/1999/xlink" width="512pt" height="512pt" viewBox="0 0 512 512" version="1.1">
<g id="surface1">
<path style="fill-rule:nonzero;fill:rgb(90.196078%,90.196078%,90.196078%);fill-opacity:1;stroke-width:54.361431;stroke-linecap:butt;stroke-linejoin:miter;stroke:rgb(26.27451%,25.490196%,29.019608%);stroke-opacity:1;stroke-miterlimit:4;" d="M 175.476562 66.757812 L 848.523438 66.757812 C 908.570312 66.757812 957.242188 115.429688 957.242188 175.476562 L 957.242188 848.523438 C 957.242188 908.570312 908.570312 957.242188 848.523438 957.242188 L 175.476562 957.242188 C 115.429688 957.242188 66.757812 908.570312 66.757812 848.523438 L 66.757812 175.476562 C 66.757812 115.429688 115.429688 66.757812 175.476562 66.757812 Z M 175.476562 66.757812 " transform="matrix(0.5,0,0,0.5,0,0)"/>
<path style=" stroke:none;fill-rule:nonzero;fill:rgb(27.45098%,20%,10.588235%);fill-opacity:1;" d="M 177 120.050781 C 177 113.382812 173.667969 110.050781 167 110.050781 L 101.726562 110.050781 C 95.050781 110.050781 91.726562 113.375 91.726562 120.050781 L 91.726562 352.101562 C 91.726562 358.773438 95.050781 362.101562 101.726562 362.101562 L 167 362.101562 C 173.675781 362.101562 177 358.773438 177 352.101562 Z M 177 120.050781 "/>
<path style=" stroke:none;fill-rule:nonzero;fill:rgb(66.666667%,51.372549%,33.72549%);fill-opacity:1;" d="M 153.851562 161.699219 C 151.898438 159.75 149.550781 158.773438 146.773438 158.773438 L 137.773438 158.773438 C 135 158.773438 132.648438 159.75 130.699219 161.699219 C 128.75 163.648438 127.773438 166 127.773438 168.773438 L 127.773438 177.773438 C 127.773438 180.550781 128.75 182.898438 130.699219 184.851562 C 132.648438 186.800781 135 187.773438 137.773438 187.773438 L 146.773438 187.773438 C 149.550781 187.773438 151.898438 186.800781 153.851562 184.851562 C 155.800781 182.898438 156.773438 180.550781 156.773438 177.773438 L 156.773438 168.773438 C 156.773438 166 155.800781 163.648438 153.851562 161.699219 Z M 153.851562 219.699219 C 151.898438 217.75 149.550781 216.773438 146.773438 216.773438 L 137.773438 216.773438 C 135 216.773438 132.648438 217.75 130.699219 219.699219 C 128.75 221.648438 127.773438 224 127.773438 226.773438 L 127.773438 235.773438 C 127.773438 238.550781 128.75 240.898438 130.699219 242.851562 C 132.648438 244.800781 135 245.773438 137.773438 245.773438 L 146.773438 245.773438 C 149.550781 245.773438 151.898438 244.800781 153.851562 242.851562 C 155.800781 240.898438 156.773438 238.550781 156.773438 235.773438 L 156.773438 226.773438 C 156.773438 224 155.800781 221.648438 153.851562 219.699219 Z M 156.773438 284.773438 C 156.773438 282 155.800781 279.648438 153.851562 277.699219 C 151.898438 275.75 149.550781 274.773438 146.773438 274.773438 L 137.773438 274.773438 C 135 274.773438 132.648438 275.75 130.699219 277.699219 C 128.75 279.648438 127.773438 282 127.773438 284.773438 L 127.773438 293.773438 C 127.773438 296.550781 128.75 298.898438 130.699219 300.851562 C 132.648438 302.800781 135 303.773438 137.773438 303.773438 L 146.773438 303.773438 C 149.550781 303.773438 151.898438 302.800781 153.851562 300.851562 C 155.800781 298.898438 156.773438 296.550781 156.773438 293.773438 Z M 156.773438 342.773438 C 156.773438 340 155.800781 337.648438 153.851562 335.699219 C 151.898438 333.75 149.550781 332.773438 146.773438 332.773438 L 137.773438 332.773438 C 135 332.773438 132.648438 333.75 130.699219 335.699219 C 128.75 337.648438 127.773438 340 127.773438 342.773438 L 127.773438 351.773438 C 127.773438 354.550781 128.75 356.898438 130.699219 358.851562 C 132.648438 360.800781 135 361.773438 137.773438 361.773438 L 146.773438 361.773438 C 149.550781 361.773438 151.898438 360.800781 153.851562 358.851562 C 155.800781 356.898438 156.773438 354.550781 156.773438 351.773438 Z M 156.773438 342.773438 "/>
<path style=" stroke:none;fill-rule:nonzero;fill:rgb(28.235294%,31.372549%,32.156863%);fill-opacity:1;" d="M 265 166 C 265 159.324219 261.675781 156 255 156 L 192 156 C 185.332031 156 182 159.332031 182 166 L 182 352.101562 C 182 358.773438 185.324219 362.101562 192 362.101562 L 255 362.101562 C 261.675781 362.101562 265 358.773438 265 352.101562 Z M 265 166 "/>
<path style=" stroke:none;fill-rule:nonzero;fill:rgb(79.607843%,87.058824%,89.019608%);fill-opacity:1;" d="M 265.25 189.550781 L 265.25 176.550781 L 182.25 176.550781 L 182.25 189.550781 Z M 265.25 341.050781 L 265.25 328.050781 L 182.25 328.050781 L 182.25 341.050781 Z M 265.25 341.050781 "/>
<path style=" stroke:none;fill-rule:nonzero;fill:rgb(23.529412%,33.72549%,52.941176%);fill-opacity:1;" d="M 404.933594 195.664062 L 401.621094 187.242188 C 399.175781 181.03125 394.863281 179.15625 388.652344 181.597656 L 346.78125 198.082031 C 340.570312 200.527344 338.691406 204.839844 341.136719 211.050781 L 344.453125 219.46875 Z M 450.21875 338.019531 C 456.429688 335.574219 458.308594 331.261719 455.863281 325.050781 L 408.597656 204.96875 L 348.113281 228.773438 L 395.378906 348.859375 C 397.824219 355.070312 402.136719 356.945312 408.347656 354.5 Z M 427.019531 293.683594 C 433.148438 296.351562 437.453125 300.808594 439.910156 307.042969 C 442.363281 313.277344 442.25 319.472656 439.582031 325.601562 C 436.917969 331.730469 432.460938 336.035156 426.226562 338.488281 C 419.992188 340.945312 413.792969 340.832031 407.667969 338.164062 C 401.539062 335.5 397.234375 331.039062 394.777344 324.804688 C 392.324219 318.570312 392.4375 312.375 395.105469 306.246094 C 397.769531 300.121094 402.226562 295.8125 408.460938 293.359375 C 414.695312 290.90625 420.894531 291.019531 427.019531 293.683594 Z M 427.019531 293.683594 "/>
<path style=" stroke:none;fill-rule:nonzero;fill:rgb(32.54902%,46.666667%,73.333333%);fill-opacity:1;" d="M 408.597656 204.96875 L 404.933594 195.664062 L 344.453125 219.46875 L 348.113281 228.773438 Z M 408.597656 204.96875 "/>
<path style=" stroke:none;fill-rule:nonzero;fill:rgb(34.901961%,48.235294%,72.156863%);fill-opacity:1;" d="M 427.019531 293.683594 C 420.894531 291.019531 414.695312 290.90625 408.460938 293.359375 C 402.226562 295.8125 397.769531 300.121094 395.105469 306.246094 C 392.4375 312.375 392.324219 318.570312 394.777344 324.804688 C 397.234375 331.039062 401.539062 335.5 407.667969 338.164062 C 413.792969 340.832031 419.992188 340.945312 426.226562 338.488281 C 432.460938 336.035156 436.917969 331.730469 439.582031 325.601562 C 442.25 319.472656 442.363281 313.277344 439.910156 307.042969 C 437.453125 300.808594 433.148438 296.351562 427.019531 293.683594 Z M 427.019531 293.683594 "/>
<path style=" stroke:none;fill-rule:nonzero;fill:rgb(35.686275%,34.117647%,30.588235%);fill-opacity:1;" d="M 283.410156 126.832031 C 281.234375 125.140625 278.777344 124.46875 276.027344 124.820312 L 274.042969 125.070312 C 271.296875 125.417969 269.078125 126.683594 267.390625 128.863281 C 265.699219 131.039062 265.027344 133.496094 265.378906 136.246094 L 287.765625 312.910156 L 309.589844 310.144531 L 287.203125 133.484375 C 286.855469 130.730469 285.589844 128.519531 283.410156 126.832031 Z M 283.410156 126.832031 "/>
<path style=" stroke:none;fill-rule:nonzero;fill:rgb(55.686275%,53.333333%,48.235294%);fill-opacity:1;" d="M 305.957031 361.03125 C 308.710938 360.679688 310.921875 359.417969 312.609375 357.238281 C 314.300781 355.058594 314.972656 352.605469 314.621094 349.851562 L 309.589844 310.144531 L 287.765625 312.910156 L 292.796875 352.617188 C 293.144531 355.371094 294.410156 357.578125 296.589844 359.269531 C 298.765625 360.957031 301.222656 361.628906 303.972656 361.28125 Z M 305.957031 361.03125 "/>
<path style=" stroke:none;fill-rule:nonzero;fill:rgb(35.686275%,34.117647%,30.588235%);fill-opacity:1;" d="M 311.65625 127.675781 C 309.3125 126.222656 306.800781 125.804688 304.101562 126.4375 L 302.152344 126.890625 C 299.457031 127.519531 297.382812 129.003906 295.925781 131.347656 C 294.472656 133.6875 294.054688 136.199219 294.6875 138.902344 L 335.144531 312.320312 L 356.570312 307.320312 L 316.109375 133.902344 C 315.480469 131.199219 313.996094 129.132812 311.65625 127.675781 Z M 311.65625 127.675781 "/>
<path style=" stroke:none;fill-rule:nonzero;fill:rgb(55.686275%,53.333333%,48.235294%);fill-opacity:1;" d="M 358.199219 358.308594 C 360.898438 357.679688 362.96875 356.195312 364.421875 353.851562 C 365.878906 351.511719 366.292969 349 365.664062 346.296875 L 356.570312 307.320312 L 335.144531 312.320312 L 344.238281 351.296875 C 344.871094 354 346.351562 356.066406 348.695312 357.523438 C 351.035156 358.976562 353.546875 359.394531 356.25 358.761719 Z M 358.199219 358.308594 "/>
<path style=" stroke:none;fill-rule:nonzero;fill:rgb(82.745098%,59.607843%,27.843137%);fill-opacity:1;" d="M 71.59375 360.136719 L 453.421875 360.136719 L 453.421875 397.015625 L 71.59375 397.015625 Z M 71.59375 360.136719 "/>
</g>
</svg>
