<?xml version="1.0" encoding="UTF-8"?>
<svg xmlns="http://www.w3.org/2000/svg" xmlns:xlink="http://www.w3.org/1999/xlink" width="512pt" height="512pt" viewBox="0 0 512 512" version="1.1">
<g id="surface1">
<path style="fill-rule:nonzero;fill:rgb(62.745098%,17.254902%,17.254902%);fill-opacity:1;stroke-width:56.239723;stroke-linecap:butt;stroke-linejoin:miter;stroke:rgb(98.039216%,57.647059%,57.647059%);stroke-opacity:1;stroke-miterlimit:4;" d="M 173.724992 53.991941 L 870.025092 53.991941 C 932.146013 53.991941 982.508112 104.354041 982.508112 166.474962 L 982.508112 862.775062 C 982.508112 924.895983 932.146013 975.258083 870.025092 975.258083 L 173.724992 975.258083 C 111.60407 975.258083 61.241971 924.895983 61.241971 862.775062 L 61.241971 166.474962 C 61.241971 104.354041 111.60407 53.991941 173.724992 53.991941 Z M 173.724992 53.991941 " transform="matrix(0.509591,0,0,0.509591,-9.94272,-6.248171)"/>
<path style=" stroke:none;fill-rule:nonzero;fill:rgb(100%,100%,100%);fill-opacity:1;" d="M 282.421875 446.203125 C 293.992188 445.179688 300.53125 443.066406 315.738281 435.453125 C 339.730469 423.4375 358.714844 409.046875 369.261719 394.875 C 383.867188 375.25 392.808594 353.320312 395.914062 329.515625 C 397.011719 321.089844 396.710938 296.148438 395.417969 288.75 C 390.851562 262.570312 379.582031 238.605469 363.472656 220.804688 C 347.570312 203.234375 329.566406 192.078125 306.195312 185.3125 C 303.113281 184.417969 300.386719 183.492188 300.140625 183.253906 C 299.621094 182.757812 303.515625 181.566406 308.742188 180.617188 C 314.285156 179.617188 331.59375 179.773438 337.535156 180.878906 C 348.289062 182.878906 362.777344 189.15625 372.148438 195.871094 C 377.921875 200.011719 386.769531 208.355469 391.890625 214.496094 C 406.367188 231.84375 416.191406 254.820312 419.386719 278.796875 C 419.800781 281.886719 420.34375 291.296875 420.59375 299.707031 C 421.097656 316.542969 421.5 319.011719 424.226562 322.117188 C 428.09375 326.523438 434.347656 324.292969 439.535156 316.652344 C 445.292969 308.179688 450.40625 292.757812 452.167969 278.570312 C 452.96875 272.09375 452.832031 255.136719 451.917969 248.171875 C 446.675781 208.175781 421.773438 169.222656 387.730469 147.765625 C 372.804688 138.359375 357.632812 132.792969 339.0625 129.914062 C 331.695312 128.773438 308.585938 128.625 300.335938 129.667969 C 277.136719 132.597656 255.320312 140.40625 238.164062 151.921875 C 225.855469 160.179688 217.601562 168.65625 210.039062 180.792969 C 204.101562 190.328125 204.417969 190.179688 204.71875 183.265625 C 205.445312 166.453125 212.773438 150.417969 226.019531 136.640625 C 235.53125 126.742188 244.113281 120.527344 256.605469 114.488281 C 273.847656 106.148438 289.0625 102.695312 308.742188 102.65625 C 325.414062 102.621094 334.761719 104.394531 351.84375 110.828125 C 363.371094 115.171875 366.800781 116.097656 371.421875 116.125 C 375.808594 116.144531 378.429688 115.121094 379.816406 112.84375 C 382.652344 108.195312 379.515625 100.976562 370.695312 91.863281 C 355.941406 76.617188 338.300781 67.726562 314.347656 63.457031 C 306.714844 62.097656 287.105469 61.5625 277.402344 62.445312 C 242.445312 65.632812 214.191406 78.242188 191.753906 100.671875 C 174.730469 117.6875 162.640625 138.328125 155.828125 161.984375 C 147.875 189.625 148.925781 219.390625 158.726562 244.042969 C 162.695312 254.023438 167.242188 262.085938 175.171875 273.207031 C 177.570312 276.570312 179.539062 279.605469 179.546875 279.953125 C 179.566406 280.84375 174.105469 278.71875 167.34375 275.207031 C 125.867188 253.65625 112.273438 193.460938 137.050781 141.054688 C 140.785156 133.160156 145.582031 125.4375 152.421875 116.304688 C 159.625 106.695312 161.890625 102.347656 162.121094 97.703125 C 162.257812 95.015625 162.082031 94.011719 161.261719 92.703125 C 157.929688 87.394531 148.601562 87.722656 137.476562 93.539062 C 126.570312 99.238281 117.726562 106.792969 107.894531 118.800781 C 101.222656 126.953125 93.203125 141.597656 88.660156 153.929688 C 86.109375 160.855469 82.792969 173.070312 81.523438 180.207031 C 80.101562 188.175781 79.679688 194.34375 79.6875 207.066406 C 79.691406 220.828125 80.085938 225.679688 81.972656 234.988281 C 85.371094 251.78125 90.882812 265.449219 99.433594 278.304688 C 127.574219 320.609375 185.152344 347.191406 232.796875 339.875 C 239.582031 338.832031 246.441406 336.738281 254.277344 333.324219 C 257.832031 331.773438 260.953125 330.574219 261.210938 330.660156 C 262.128906 330.964844 255.300781 339.742188 250.628906 344.261719 C 237.792969 356.679688 222.117188 362.777344 201.199219 363.492188 C 187.566406 363.957031 177.1875 362.625 164.425781 358.769531 C 143.613281 352.484375 126.191406 342.019531 110.730469 326.515625 C 103.136719 318.898438 98.761719 313.453125 92.695312 304.074219 C 88.65625 297.820312 84.3125 293.054688 81.464844 291.746094 C 80.300781 291.210938 78.246094 290.804688 76.664062 290.800781 C 74.066406 290.789062 73.777344 290.917969 71.785156 292.996094 C 68.976562 295.925781 68.238281 298.679688 68.320312 305.878906 C 68.429688 315.210938 71.121094 324.613281 77.367188 337.449219 C 95.847656 375.445312 138.535156 404.558594 184.65625 410.625 C 187.375 410.984375 194.753906 411.257812 201.472656 411.253906 C 214.902344 411.242188 220.996094 410.457031 232.800781 407.222656 C 276.445312 395.261719 314.207031 360.773438 328.203125 320.089844 C 332.59375 307.335938 333.542969 301.402344 333.917969 284.417969 L 334.222656 270.660156 L 336.386719 273.507812 C 356.027344 299.34375 354.609375 335.515625 332.660156 368.804688 C 327.550781 376.558594 323.738281 381.125 315.671875 389.160156 C 304.898438 399.898438 293.445312 408.09375 280.714844 414.175781 C 273.855469 417.453125 267.222656 419.804688 256.257812 422.851562 C 244.988281 425.980469 242.753906 426.921875 240.402344 429.523438 C 238.667969 431.441406 238.570312 431.730469 238.785156 434.308594 C 239.324219 440.8125 246.421875 444.945312 259.167969 446.175781 C 265.363281 446.773438 275.820312 446.785156 282.421875 446.203125 Z M 282.421875 446.203125 "/>
</g>
</svg>
