<!-- color: #ec8430 -->
<svg xmlns="http://www.w3.org/2000/svg" xmlns:xlink="http://www.w3.org/1999/xlink" width="512px" height="512px" viewBox="0 0 512 512" version="1.1">
<defs>
<clipPath id="clip1">
  <path d="M 130 130 L 384 130 L 384 383 L 130 383 Z M 130 130 "/>
</clipPath>
<clipPath id="clip2">
  <path d="M 498.644531 256.679688 C 498.644531 390.214844 390.363281 498.371094 256.949219 498.371094 C 123.535156 498.371094 15.253906 390.214844 15.253906 256.679688 C 15.253906 123.140625 123.535156 14.984375 256.949219 14.984375 C 390.363281 14.984375 498.644531 123.140625 498.644531 256.679688 Z M 498.644531 256.679688 "/>
</clipPath>
</defs>
<g id="surface1">
<path style="fill-rule:nonzero;fill:rgb(92.156863%,49.803922%,15.686275%);fill-opacity:1;stroke-width:7.09618;stroke-linecap:butt;stroke-linejoin:miter;stroke:rgb(100%,100%,100%);stroke-opacity:1;stroke-miterlimit:4;" d="M 20.071289 5.878906 L 107.928711 5.878906 C 115.766602 5.878906 122.121094 12.233398 122.121094 20.071289 L 122.121094 107.928711 C 122.121094 115.766602 115.766602 122.121094 107.928711 122.121094 L 20.071289 122.121094 C 12.233398 122.121094 5.878906 115.766602 5.878906 107.928711 L 5.878906 20.071289 C 5.878906 12.233398 12.233398 5.878906 20.071289 5.878906 Z M 20.071289 5.878906 " transform="matrix(4,0,0,4,0,0)"/>
<g clip-path="url(#clip1)" clip-rule="nonzero">
<g clip-path="url(#clip2)" clip-rule="nonzero">
<path style=" stroke:none;fill-rule:nonzero;fill:rgb(97.647059%,97.647059%,97.647059%);fill-opacity:1;" d="M 131.476562 223.839844 C 126.140625 182.707031 154.503906 130.578125 199.414062 130.578125 C 330.320312 130.578125 214.558594 288.730469 225.320312 299.972656 C 235.828125 310.480469 254.585938 293.40625 267.109375 274.320312 C 277.828125 257.613281 286.605469 239.886719 306.277344 249.53125 C 328.195312 260.324219 328.324219 281.058594 339.15625 303.597656 C 349.992188 326.097656 361.035156 338.445312 372.039062 346.820312 C 409.636719 387.75 340.878906 395.253906 320.316406 361.679688 C 298.929688 331.675781 309.4375 310.535156 268.800781 357.117188 C 204.394531 437.527344 141.441406 310.480469 131.5625 223.828125 M 131.605469 223.828125 "/>
</g>
</g>
</g>
</svg>
