<?xml version="1.0" encoding="UTF-8"?>
<svg xmlns="http://www.w3.org/2000/svg" xmlns:xlink="http://www.w3.org/1999/xlink" width="512pt" height="512pt" viewBox="0 0 512 512" version="1.1">
<g id="surface1">
<path style="fill-rule:nonzero;fill:rgb(100%,100%,100%);fill-opacity:1;stroke-width:24.958755;stroke-linecap:butt;stroke-linejoin:miter;stroke:rgb(28.235294%,28.235294%,29.803922%);stroke-opacity:1;stroke-miterlimit:4;" d="M 121.876846 41.247431 L 430.892553 41.247431 C 458.460286 41.247431 480.809293 63.596437 480.809293 91.16417 L 480.809293 400.179877 C 480.809293 427.747611 458.460286 450.096617 430.892553 450.096617 L 121.876846 450.096617 C 94.309113 450.096617 71.960107 427.747611 71.960107 400.179877 L 71.960107 91.16417 C 71.960107 63.596437 94.309113 41.247431 121.876846 41.247431 Z M 121.876846 41.247431 " transform="matrix(1.118268,0,0,1.118268,-53.072276,-18.727261)"/>
<path style="fill-rule:evenodd;fill:rgb(27.058824%,91.372549%,20%);fill-opacity:1;stroke-width:9.541723;stroke-linecap:butt;stroke-linejoin:miter;stroke:rgb(100%,100%,100%);stroke-opacity:1;stroke-miterlimit:4;" d="M 88.752807 158.468202 L 366.213574 158.466887 L 366.213312 370.592532 L 88.752545 370.593847 Z M 88.752807 158.468202 " transform="matrix(1.102493,-0.187169,0.187169,1.102493,-53.072276,-18.727261)"/>
<path style=" stroke:none;fill-rule:nonzero;fill:rgb(28.235294%,28.235294%,29.803922%);fill-opacity:1;" d="M 179.101562 356.539062 C 178.777344 325.484375 178.636719 288.375 178.785156 274.078125 L 179.058594 248.085938 L 265.992188 247.816406 C 313.804688 247.671875 373.347656 247.8125 398.308594 248.132812 L 443.695312 248.714844 L 443.695312 413.003906 L 179.6875 413.003906 Z M 179.101562 356.539062 "/>
<path style="fill-rule:evenodd;fill:rgb(28.235294%,28.235294%,29.803922%);fill-opacity:1;stroke-width:17.992964;stroke-linecap:round;stroke-linejoin:miter;stroke:rgb(100%,100%,100%);stroke-opacity:1;stroke-miterlimit:4;" d="M 413.999806 314.028964 C 413.999806 336.839063 395.510702 355.328167 372.700603 355.328167 C 349.890505 355.328167 331.4014 336.839063 331.4014 314.028964 C 331.4014 291.218865 349.890505 272.729761 372.700603 272.729761 C 395.510702 272.729761 413.999806 291.218865 413.999806 314.028964 Z M 413.999806 314.028964 " transform="matrix(1.118268,0,0,1.118268,-53.072276,-18.727261)"/>
</g>
</svg>
