<?xml version="1.0" encoding="UTF-8"?>
<svg xmlns="http://www.w3.org/2000/svg" xmlns:xlink="http://www.w3.org/1999/xlink" width="512pt" height="512pt" viewBox="0 0 512 512" version="1.1">
<g id="surface1">
<path style="fill-rule:nonzero;fill:rgb(92.54902%,92.54902%,92.54902%);fill-opacity:1;stroke-width:2.540894;stroke-linecap:butt;stroke-linejoin:miter;stroke:rgb(0%,66.666667%,83.137255%);stroke-opacity:1;stroke-miterlimit:4;" d="M 8.315186 3.352295 L 39.773804 3.352295 C 42.580444 3.352295 44.855347 5.627563 44.855347 8.434204 L 44.855347 39.892822 C 44.855347 42.699463 42.580444 44.974731 39.773804 44.974731 L 8.315186 44.974731 C 5.508545 44.974731 3.233276 42.699463 3.233276 39.892822 L 3.233276 8.434204 C 3.233276 5.627563 5.508545 3.352295 8.315186 3.352295 Z M 8.315186 3.352295 " transform="matrix(10.666667,0,0,10.666667,0,0)"/>
<path style=" stroke:none;fill-rule:evenodd;fill:rgb(40.784314%,69.411765%,88.235294%);fill-opacity:1;" d="M 73.789062 56.742188 L 73.789062 75.324219 L 35.140625 75.324219 L 35.140625 78.347656 L 73.789062 78.347656 L 73.789062 135.554688 L 35.140625 135.554688 L 35.140625 138.574219 L 73.789062 138.574219 L 73.789062 195.785156 L 35.140625 195.785156 L 35.140625 198.804688 L 73.789062 198.804688 L 73.789062 256.035156 L 35.140625 256.035156 L 35.140625 259.035156 L 73.789062 259.035156 L 73.789062 316.261719 L 35.140625 316.261719 L 35.140625 319.285156 L 73.789062 319.285156 L 73.789062 376.492188 L 35.140625 376.492188 L 35.140625 379.511719 L 73.789062 379.511719 L 73.789062 436.722656 L 35.140625 436.722656 L 35.140625 439.742188 L 73.789062 439.742188 L 73.789062 458.324219 L 76.808594 458.324219 L 76.808594 439.742188 L 134.015625 439.742188 L 134.015625 458.324219 L 137.039062 458.324219 L 137.039062 439.742188 L 194.246094 439.742188 L 194.246094 458.324219 L 197.265625 458.324219 L 197.265625 439.742188 L 254.496094 439.742188 L 254.496094 458.324219 L 257.515625 458.324219 L 257.515625 439.742188 L 314.726562 439.742188 L 314.726562 458.324219 L 317.746094 458.324219 L 317.746094 439.742188 L 374.953125 439.742188 L 374.953125 458.324219 L 377.976562 458.324219 L 377.976562 439.742188 L 435.183594 439.742188 L 435.183594 458.324219 L 438.203125 458.324219 L 438.203125 439.742188 L 476.851562 439.742188 L 476.851562 436.722656 L 438.203125 436.722656 L 438.203125 379.511719 L 476.851562 379.511719 L 476.851562 376.492188 L 438.203125 376.492188 L 438.203125 319.285156 L 476.851562 319.285156 L 476.851562 316.261719 L 438.203125 316.261719 L 438.203125 259.035156 L 476.851562 259.035156 L 476.851562 256.035156 L 438.203125 256.035156 L 438.203125 198.804688 L 476.851562 198.804688 L 476.851562 195.785156 L 438.203125 195.785156 L 438.203125 138.574219 L 476.851562 138.574219 L 476.851562 135.554688 L 438.203125 135.554688 L 438.203125 78.347656 L 476.851562 78.347656 L 476.851562 75.324219 L 438.203125 75.324219 L 438.203125 56.742188 L 435.183594 56.742188 L 435.183594 75.324219 L 377.976562 75.324219 L 377.976562 56.742188 L 374.953125 56.742188 L 374.953125 75.324219 L 317.746094 75.324219 L 317.746094 56.742188 L 314.726562 56.742188 L 314.726562 75.324219 L 257.515625 75.324219 L 257.515625 56.742188 L 254.496094 56.742188 L 254.496094 75.324219 L 197.265625 75.324219 L 197.265625 56.742188 L 194.246094 56.742188 L 194.246094 75.324219 L 137.039062 75.324219 L 137.039062 56.742188 L 134.015625 56.742188 L 134.015625 75.324219 L 76.808594 75.324219 L 76.808594 56.742188 Z M 76.808594 78.347656 L 134.015625 78.347656 L 134.015625 135.554688 L 76.808594 135.554688 Z M 137.039062 78.347656 L 194.246094 78.347656 L 194.246094 135.554688 L 137.039062 135.554688 Z M 197.265625 78.347656 L 254.496094 78.347656 L 254.496094 135.554688 L 197.265625 135.554688 Z M 257.515625 78.347656 L 314.726562 78.347656 L 314.726562 135.554688 L 257.515625 135.554688 Z M 317.746094 78.347656 L 374.953125 78.347656 L 374.953125 135.554688 L 317.746094 135.554688 Z M 377.976562 78.347656 L 435.183594 78.347656 L 435.183594 135.554688 L 377.976562 135.554688 Z M 76.808594 138.574219 L 134.015625 138.574219 L 134.015625 195.785156 L 76.808594 195.785156 Z M 137.039062 138.574219 L 194.246094 138.574219 L 194.246094 195.785156 L 137.039062 195.785156 Z M 197.265625 138.574219 L 254.496094 138.574219 L 254.496094 195.785156 L 197.265625 195.785156 Z M 257.515625 138.574219 L 314.726562 138.574219 L 314.726562 195.785156 L 257.515625 195.785156 Z M 317.746094 138.574219 L 374.953125 138.574219 L 374.953125 195.785156 L 317.746094 195.785156 Z M 377.976562 138.574219 L 435.183594 138.574219 L 435.183594 195.785156 L 377.976562 195.785156 Z M 76.808594 198.804688 L 134.015625 198.804688 L 134.015625 256.035156 L 76.808594 256.035156 Z M 137.039062 198.804688 L 194.246094 198.804688 L 194.246094 256.035156 L 137.039062 256.035156 Z M 197.265625 198.804688 L 254.496094 198.804688 L 254.496094 256.035156 L 197.265625 256.035156 Z M 257.515625 198.804688 L 314.726562 198.804688 L 314.726562 256.035156 L 257.515625 256.035156 Z M 317.746094 198.804688 L 374.953125 198.804688 L 374.953125 256.035156 L 317.746094 256.035156 Z M 377.976562 198.804688 L 435.183594 198.804688 L 435.183594 256.035156 L 377.976562 256.035156 Z M 76.808594 259.035156 L 134.015625 259.035156 L 134.015625 316.261719 L 76.808594 316.261719 Z M 137.039062 259.035156 L 194.246094 259.035156 L 194.246094 316.261719 L 137.039062 316.261719 Z M 197.265625 259.035156 L 254.496094 259.035156 L 254.496094 316.261719 L 197.265625 316.261719 Z M 257.515625 259.035156 L 314.726562 259.035156 L 314.726562 316.261719 L 257.515625 316.261719 Z M 317.746094 259.035156 L 374.953125 259.035156 L 374.953125 316.261719 L 317.746094 316.261719 Z M 377.976562 259.035156 L 435.183594 259.035156 L 435.183594 316.261719 L 377.976562 316.261719 Z M 76.808594 319.285156 L 134.015625 319.285156 L 134.015625 376.492188 L 76.808594 376.492188 Z M 137.039062 319.285156 L 194.246094 319.285156 L 194.246094 376.492188 L 137.039062 376.492188 Z M 197.265625 319.285156 L 254.496094 319.285156 L 254.496094 376.492188 L 197.265625 376.492188 Z M 257.515625 319.285156 L 314.726562 319.285156 L 314.726562 376.492188 L 257.515625 376.492188 Z M 317.746094 319.285156 L 374.953125 319.285156 L 374.953125 376.492188 L 317.746094 376.492188 Z M 377.976562 319.285156 L 435.183594 319.285156 L 435.183594 376.492188 L 377.976562 376.492188 Z M 76.808594 379.511719 L 134.015625 379.511719 L 134.015625 436.722656 L 76.808594 436.722656 Z M 137.039062 379.511719 L 194.246094 379.511719 L 194.246094 436.722656 L 137.039062 436.722656 Z M 197.265625 379.511719 L 254.496094 379.511719 L 254.496094 436.722656 L 197.265625 436.722656 Z M 257.515625 379.511719 L 314.726562 379.511719 L 314.726562 436.722656 L 257.515625 436.722656 Z M 317.746094 379.511719 L 374.953125 379.511719 L 374.953125 436.722656 L 317.746094 436.722656 Z M 377.976562 379.511719 L 435.183594 379.511719 L 435.183594 436.722656 L 377.976562 436.722656 Z M 377.976562 379.511719 "/>
<path style=" stroke:none;fill-rule:nonzero;fill:rgb(17.254902%,24.313725%,31.372549%);fill-opacity:1;" d="M 124.863281 435.585938 L 68.890625 379.609375 L 376.753906 71.742188 L 432.730469 127.71875 Z M 124.863281 435.585938 "/>
<path style=" stroke:none;fill-rule:nonzero;fill:rgb(92.54902%,94.117647%,94.509804%);fill-opacity:1;" d="M 221.171875 227.324219 L 224.472656 224.027344 L 244.261719 243.816406 L 240.964844 247.113281 Z M 221.171875 227.324219 "/>
<path style=" stroke:none;fill-rule:nonzero;fill:rgb(92.54902%,94.117647%,94.509804%);fill-opacity:1;" d="M 207.980469 240.519531 L 211.277344 237.21875 L 221.171875 247.113281 L 217.875 250.414062 Z M 207.980469 240.519531 "/>
<path style=" stroke:none;fill-rule:nonzero;fill:rgb(92.54902%,94.117647%,94.509804%);fill-opacity:1;" d="M 194.785156 253.710938 L 198.085938 250.414062 L 207.980469 260.308594 L 204.679688 263.605469 Z M 194.785156 253.710938 "/>
<path style=" stroke:none;fill-rule:nonzero;fill:rgb(92.54902%,94.117647%,94.509804%);fill-opacity:1;" d="M 181.59375 266.90625 L 184.890625 263.605469 L 204.679688 283.398438 L 201.382812 286.695312 Z M 181.59375 266.90625 "/>
<path style=" stroke:none;fill-rule:nonzero;fill:rgb(92.54902%,94.117647%,94.509804%);fill-opacity:1;" d="M 168.398438 280.097656 L 171.695312 276.800781 L 181.59375 286.695312 L 178.292969 289.992188 Z M 168.398438 280.097656 "/>
<path style=" stroke:none;fill-rule:nonzero;fill:rgb(92.54902%,94.117647%,94.509804%);fill-opacity:1;" d="M 155.207031 293.292969 L 158.503906 289.992188 L 168.398438 299.890625 L 165.101562 303.1875 Z M 155.207031 293.292969 "/>
<path style=" stroke:none;fill-rule:nonzero;fill:rgb(92.54902%,94.117647%,94.509804%);fill-opacity:1;" d="M 128.816406 319.679688 L 132.117188 316.382812 L 142.011719 326.277344 L 138.714844 329.574219 Z M 128.816406 319.679688 "/>
<path style=" stroke:none;fill-rule:nonzero;fill:rgb(92.54902%,94.117647%,94.509804%);fill-opacity:1;" d="M 115.625 332.875 L 118.921875 329.574219 L 128.816406 339.46875 L 125.519531 342.769531 Z M 115.625 332.875 "/>
<path style=" stroke:none;fill-rule:nonzero;fill:rgb(92.54902%,94.117647%,94.509804%);fill-opacity:1;" d="M 89.238281 359.261719 L 92.535156 355.960938 L 102.429688 365.855469 L 99.132812 369.15625 Z M 89.238281 359.261719 "/>
<path style=" stroke:none;fill-rule:nonzero;fill:rgb(92.54902%,94.117647%,94.509804%);fill-opacity:1;" d="M 76.042969 372.453125 L 79.34375 369.15625 L 89.238281 379.050781 L 85.9375 382.347656 Z M 76.042969 372.453125 "/>
<path style=" stroke:none;fill-rule:nonzero;fill:rgb(92.54902%,94.117647%,94.509804%);fill-opacity:1;" d="M 142.011719 306.484375 L 145.308594 303.1875 L 165.101562 322.976562 L 161.800781 326.277344 Z M 142.011719 306.484375 "/>
<path style=" stroke:none;fill-rule:nonzero;fill:rgb(92.54902%,94.117647%,94.509804%);fill-opacity:1;" d="M 102.429688 346.066406 L 105.730469 342.769531 L 125.519531 362.558594 L 122.222656 365.855469 Z M 102.429688 346.066406 "/>
<path style=" stroke:none;fill-rule:nonzero;fill:rgb(92.54902%,94.117647%,94.509804%);fill-opacity:1;" d="M 366.300781 82.195312 L 369.601562 78.898438 L 379.496094 88.792969 L 376.199219 92.089844 Z M 366.300781 82.195312 "/>
<path style=" stroke:none;fill-rule:nonzero;fill:rgb(92.54902%,94.117647%,94.509804%);fill-opacity:1;" d="M 353.109375 95.386719 L 356.40625 92.089844 L 366.300781 101.984375 L 363.003906 105.285156 Z M 353.109375 95.386719 "/>
<path style=" stroke:none;fill-rule:nonzero;fill:rgb(92.54902%,94.117647%,94.509804%);fill-opacity:1;" d="M 339.914062 108.582031 L 343.214844 105.285156 L 363.003906 125.074219 L 359.707031 128.371094 Z M 339.914062 108.582031 "/>
<path style=" stroke:none;fill-rule:nonzero;fill:rgb(92.54902%,94.117647%,94.509804%);fill-opacity:1;" d="M 326.722656 121.777344 L 330.019531 118.476562 L 339.914062 128.371094 L 336.617188 131.671875 Z M 326.722656 121.777344 "/>
<path style=" stroke:none;fill-rule:nonzero;fill:rgb(92.54902%,94.117647%,94.509804%);fill-opacity:1;" d="M 313.527344 134.96875 L 316.828125 131.671875 L 326.722656 141.566406 L 323.421875 144.863281 Z M 313.527344 134.96875 "/>
<path style=" stroke:none;fill-rule:nonzero;fill:rgb(92.54902%,94.117647%,94.509804%);fill-opacity:1;" d="M 287.140625 161.355469 L 290.441406 158.058594 L 300.335938 167.953125 L 297.035156 171.25 Z M 287.140625 161.355469 "/>
<path style=" stroke:none;fill-rule:nonzero;fill:rgb(92.54902%,94.117647%,94.509804%);fill-opacity:1;" d="M 273.949219 174.550781 L 277.246094 171.25 L 287.140625 181.148438 L 283.84375 184.445312 Z M 273.949219 174.550781 "/>
<path style=" stroke:none;fill-rule:nonzero;fill:rgb(92.54902%,94.117647%,94.509804%);fill-opacity:1;" d="M 247.558594 200.9375 L 250.859375 197.640625 L 260.753906 207.535156 L 257.457031 210.832031 Z M 247.558594 200.9375 "/>
<path style=" stroke:none;fill-rule:nonzero;fill:rgb(92.54902%,94.117647%,94.509804%);fill-opacity:1;" d="M 234.367188 214.128906 L 237.664062 210.832031 L 247.558594 220.726562 L 244.261719 224.027344 Z M 234.367188 214.128906 "/>
<path style=" stroke:none;fill-rule:nonzero;fill:rgb(92.54902%,94.117647%,94.509804%);fill-opacity:1;" d="M 300.335938 148.164062 L 303.632812 144.863281 L 323.421875 164.65625 L 320.125 167.953125 Z M 300.335938 148.164062 "/>
<path style=" stroke:none;fill-rule:nonzero;fill:rgb(92.54902%,94.117647%,94.509804%);fill-opacity:1;" d="M 260.753906 187.742188 L 264.050781 184.445312 L 283.84375 204.234375 L 280.542969 207.535156 Z M 260.753906 187.742188 "/>
</g>
</svg>
