<?xml version="1.0" encoding="UTF-8"?>
<svg xmlns="http://www.w3.org/2000/svg" xmlns:xlink="http://www.w3.org/1999/xlink" width="512pt" height="512pt" viewBox="0 0 512 512" version="1.1">
<g id="surface1">
<path style="fill-rule:nonzero;fill:rgb(81.176471%,9.803922%,12.941176%);fill-opacity:1;stroke-width:28.191782;stroke-linecap:butt;stroke-linejoin:miter;stroke:rgb(95.686275%,38.039216%,40.784314%);stroke-opacity:1;stroke-miterlimit:4;" d="M 81.480469 25.097656 L 430.519531 25.097656 C 461.660156 25.097656 486.902344 50.339844 486.902344 81.480469 L 486.902344 430.519531 C 486.902344 461.660156 461.660156 486.902344 430.519531 486.902344 L 81.480469 486.902344 C 50.339844 486.902344 25.097656 461.660156 25.097656 430.519531 L 25.097656 81.480469 C 25.097656 50.339844 50.339844 25.097656 81.480469 25.097656 Z M 81.480469 25.097656 "/>
<path style=" stroke:none;fill-rule:nonzero;fill:rgb(100%,100%,100%);fill-opacity:1;" d="M 162.714844 114.0625 C 149.742188 114.0625 139.269531 124.492188 139.269531 137.464844 L 139.269531 381.441406 C 139.269531 394.414062 149.742188 404.886719 162.714844 404.886719 L 163.082031 404.886719 C 176.054688 404.886719 186.484375 394.414062 186.484375 381.441406 L 186.484375 137.464844 C 186.484375 124.492188 176.054688 114.0625 163.082031 114.0625 Z M 162.714844 114.0625 "/>
<path style=" stroke:none;fill-rule:nonzero;fill:rgb(100%,100%,100%);fill-opacity:1;" d="M 351.570312 114.0625 C 338.59375 114.0625 328.125 124.492188 328.125 137.464844 L 328.125 381.441406 C 328.125 394.414062 338.59375 404.886719 351.570312 404.886719 L 351.9375 404.886719 C 364.910156 404.886719 375.339844 394.414062 375.339844 381.441406 L 375.339844 137.464844 C 375.339844 124.492188 364.910156 114.0625 351.9375 114.0625 Z M 351.570312 114.0625 "/>
<path style=" stroke:none;fill-rule:nonzero;fill:rgb(72.54902%,72.54902%,72.54902%);fill-opacity:1;" d="M 257.304688 216.03125 C 244.226562 216.03125 233.699219 226.558594 233.699219 239.636719 L 233.699219 381.277344 C 233.699219 394.355469 244.226562 404.886719 257.304688 404.886719 C 270.382812 404.886719 280.910156 394.355469 280.910156 381.277344 L 280.910156 239.636719 C 280.910156 226.558594 270.382812 216.03125 257.304688 216.03125 Z M 257.304688 216.03125 "/>
</g>
</svg>
