<!-- color: #e5373b -->
<svg xmlns="http://www.w3.org/2000/svg" xmlns:xlink="http://www.w3.org/1999/xlink" width="512px" height="512px" viewBox="0 0 512 512" version="1.1">
<defs>
<clipPath id="clip1">
  <path d="M 118 128 L 394 128 L 394 404 L 118 404 Z M 118 128 "/>
</clipPath>
<clipPath id="clip2">
  <path d="M 519.65625 254.109375 C 519.65625 399.78125 401.539062 517.769531 256 517.769531 C 110.460938 517.769531 -7.65625 399.78125 -7.65625 254.109375 C -7.65625 108.441406 110.460938 -9.546875 256 -9.546875 C 401.539062 -9.546875 519.65625 108.441406 519.65625 254.109375 Z M 519.65625 254.109375 "/>
</clipPath>
</defs>
<g id="surface1">
<path style="fill-rule:nonzero;fill:rgb(83.137255%,10.196078%,10.196078%);fill-opacity:1;stroke-width:27.910587;stroke-linecap:butt;stroke-linejoin:miter;stroke:rgb(92.54902%,37.254902%,37.254902%);stroke-opacity:1;stroke-miterlimit:4;" d="M 83.21875 27.398438 L 428.78125 27.398438 C 459.609375 27.398438 484.601562 52.390625 484.601562 83.21875 L 484.601562 428.78125 C 484.601562 459.609375 459.609375 484.601562 428.78125 484.601562 L 83.21875 484.601562 C 52.390625 484.601562 27.398438 459.609375 27.398438 428.78125 L 27.398438 83.21875 C 27.398438 52.390625 52.390625 27.398438 83.21875 27.398438 Z M 83.21875 27.398438 "/>
<g clip-path="url(#clip1)" clip-rule="nonzero">
<g clip-path="url(#clip2)" clip-rule="nonzero">
<path style=" stroke:none;fill-rule:nonzero;fill:rgb(100%,100%,100%);fill-opacity:1;" d="M 135.097656 128.015625 C 125.820312 128.015625 118.441406 135.40625 118.441406 144.671875 L 118.441406 326.296875 C 118.441406 335.570312 125.832031 346.3125 135.097656 345.816406 L 187.21875 345.816406 L 187.21875 403.132812 L 256 345.816406 L 376.902344 345.816406 C 386.179688 345.816406 393.558594 335.558594 393.558594 326.296875 L 393.558594 144.671875 C 393.558594 135.398438 386.167969 128.015625 376.902344 128.015625 M 244.535156 173.867188 L 267.464844 173.867188 L 267.464844 219.722656 L 301.851562 196.792969 L 313.316406 213.988281 L 278.925781 236.917969 L 313.316406 259.84375 L 301.851562 277.039062 L 267.464844 254.109375 L 267.464844 299.964844 L 244.535156 299.964844 L 244.445312 253.765625 L 210.148438 277.050781 L 198.683594 259.855469 L 233.074219 236.925781 L 198.683594 214 L 210.148438 196.804688 L 244.535156 219.734375 M 244.535156 173.878906 "/>
</g>
</g>
</g>
</svg>
