<?xml version="1.0" encoding="UTF-8"?>
<svg xmlns="http://www.w3.org/2000/svg" xmlns:xlink="http://www.w3.org/1999/xlink" width="512pt" height="512pt" viewBox="0 0 512 512" version="1.1">
<g id="surface1">
<path style="fill-rule:nonzero;fill:rgb(92.54902%,92.54902%,92.54902%);fill-opacity:1;stroke-width:25.836231;stroke-linecap:butt;stroke-linejoin:miter;stroke:rgb(0%,66.666667%,83.137255%);stroke-opacity:1;stroke-miterlimit:4;" d="M -754.58136 77.164703 L -434.70636 77.164703 C -406.167298 77.164703 -383.034485 100.297516 -383.034485 128.836578 L -383.034485 448.711578 C -383.034485 477.250641 -406.167298 500.383453 -434.70636 500.383453 L -754.58136 500.383453 C -783.120423 500.383453 -806.253235 477.250641 -806.253235 448.711578 L -806.253235 128.836578 C -806.253235 100.297516 -783.120423 77.164703 -754.58136 77.164703 Z M -754.58136 77.164703 " transform="matrix(1,0,0,1,850.64386,-32.774078)"/>
<path style=" stroke:none;fill-rule:evenodd;fill:rgb(50.196078%,50.196078%,50.196078%);fill-opacity:1;" d="M 225.589844 400.105469 L 177.015625 431.957031 L 334.882812 431.957031 L 286.308594 400.105469 Z M 225.589844 400.105469 "/>
<path style=" stroke:none;fill-rule:evenodd;fill:rgb(50.196078%,50.196078%,50.196078%);fill-opacity:1;" d="M 225.589844 390.449219 L 177.015625 422.300781 L 334.882812 422.300781 L 286.308594 390.449219 Z M 225.589844 390.449219 "/>
<path style=" stroke:none;fill-rule:nonzero;fill:rgb(30.196078%,30.196078%,30.196078%);fill-opacity:1;" d="M 222.214844 331.957031 L 289.785156 331.957031 L 289.785156 407.125 L 222.214844 407.125 Z M 222.214844 331.957031 "/>
<path style=" stroke:none;fill-rule:nonzero;fill:rgb(50.196078%,50.196078%,50.196078%);fill-opacity:1;" d="M 88.371094 80.042969 L 423.628906 80.042969 C 435.375 80.042969 444.898438 89.136719 444.898438 100.351562 L 444.898438 335.136719 C 444.898438 346.351562 435.375 355.441406 423.628906 355.441406 L 88.371094 355.441406 C 76.625 355.441406 67.105469 346.351562 67.105469 335.136719 L 67.105469 100.351562 C 67.105469 89.136719 76.625 80.042969 88.371094 80.042969 Z M 88.371094 80.042969 "/>
<path style=" stroke:none;fill-rule:nonzero;fill:rgb(0%,66.666667%,83.137255%);fill-opacity:1;" d="M 102.464844 105.820312 L 409.535156 105.820312 L 409.535156 329.667969 L 102.464844 329.667969 Z M 102.464844 105.820312 "/>
<path style=" stroke:none;fill-rule:evenodd;fill:rgb(0%,0%,0%);fill-opacity:1;" d="M 177.015625 422.300781 L 177.015625 431.957031 L 334.984375 431.957031 L 334.984375 422.300781 Z M 177.015625 422.300781 "/>
<path style=" stroke:none;fill-rule:nonzero;fill:rgb(100%,100%,100%);fill-opacity:1;" d="M 289.144531 289.5 L 271.761719 289.5 L 271.761719 307.980469 L 289.144531 307.980469 Z M 263.070312 289.5 L 245.6875 289.5 L 245.6875 307.980469 L 263.070312 307.980469 Z M 236.996094 289.5 L 219.613281 289.5 L 219.613281 307.980469 L 236.996094 307.980469 Z M 236.996094 289.5 "/>
<path style=" stroke:none;fill-rule:evenodd;fill:rgb(20%,20%,20%);fill-opacity:1;" d="M 101.542969 106.371094 L 101.542969 123.921875 L 408.699219 123.921875 L 408.699219 106.371094 Z M 101.542969 106.371094 "/>
<path style=" stroke:none;fill-rule:nonzero;fill:rgb(100%,100%,100%);fill-opacity:1;" d="M 195.847656 134.214844 C 179.382812 134.011719 163.21875 141.207031 150.839844 154.976562 C 124.035156 184.789062 133.902344 230.125 170.949219 247.378906 C 186.566406 254.652344 186.828125 254.480469 180.105469 241.363281 C 173.914062 229.285156 172.46875 205.746094 177.164062 193.449219 C 185.171875 172.488281 202.550781 157.160156 223.179688 152.878906 C 233.128906 150.8125 234.160156 150.140625 231.78125 147.261719 C 230.296875 145.464844 224.164062 141.8125 218.15625 139.152344 C 210.875 135.925781 203.328125 134.308594 195.847656 134.214844 Z M 293.703125 155.980469 C 293.664062 155.976562 293.621094 155.984375 293.585938 156.007812 C 293.28125 156.195312 292.253906 159.207031 291.292969 162.730469 C 290.183594 166.789062 289.417969 168.644531 288.371094 169.800781 C 287.1875 171.109375 284.976562 172.03125 280.878906 172.921875 C 276.855469 173.796875 274.75 174.484375 274.75 174.929688 C 274.75 175.53125 277.421875 176.519531 282.179688 177.675781 C 286.367188 178.691406 287.375 179.046875 288.273438 179.8125 C 289.398438 180.777344 289.863281 181.886719 290.863281 185.984375 C 292.277344 191.761719 292.695312 193.085938 293.46875 194.207031 C 293.800781 194.691406 293.835938 194.703125 294.058594 194.386719 C 294.363281 193.953125 294.976562 191.882812 296.222656 187.078125 C 297.667969 181.519531 298.289062 180.40625 300.59375 179.269531 C 301.328125 178.902344 303.289062 178.226562 304.945312 177.765625 C 310.976562 176.085938 312.824219 175.402344 312.546875 174.953125 C 312.324219 174.59375 309.511719 173.59375 306.085938 172.652344 C 300.589844 171.148438 299.65625 170.78125 298.503906 169.675781 C 297.640625 168.847656 297.234375 167.796875 296.519531 164.507812 C 295.363281 159.1875 294.320312 156.046875 293.703125 155.980469 Z M 326.929688 221.109375 C 326.5625 221.066406 326.121094 222.507812 324.34375 229.082031 C 323.398438 232.582031 322.503906 235.582031 322.355469 235.742188 C 322.210938 235.90625 319.28125 236.753906 315.851562 237.632812 C 310.164062 239.085938 308.074219 239.777344 308.074219 240.207031 C 308.074219 240.59375 309.886719 241.230469 314.917969 242.613281 C 317.898438 243.429688 320.722656 244.347656 321.195312 244.652344 C 322.402344 245.4375 323.585938 248.261719 324.910156 253.539062 C 325.535156 256.039062 326.226562 258.414062 326.445312 258.820312 C 326.8125 259.507812 326.867188 259.511719 327.300781 258.917969 C 327.558594 258.566406 328.289062 256.355469 328.925781 254 C 329.566406 251.648438 330.417969 248.6875 330.824219 247.425781 C 331.683594 244.757812 331.527344 244.851562 338.527344 242.742188 C 341 241.996094 343.507812 241.140625 344.097656 240.84375 L 345.171875 240.300781 L 344.28125 239.800781 C 343.414062 239.3125 337.410156 237.351562 333.277344 236.207031 L 331.210938 235.632812 L 330.03125 230.808594 C 328.722656 225.453125 327.578125 221.714844 327.089844 221.207031 C 327.035156 221.152344 326.984375 221.117188 326.929688 221.109375 Z M 253.792969 237.929688 C 253.285156 238.097656 252.050781 241.683594 250.5 247.507812 L 249.335938 251.878906 L 245.128906 252.910156 C 239.144531 254.375 234.882812 255.722656 234.882812 256.148438 C 234.882812 256.667969 236.277344 257.152344 241.65625 258.488281 C 247.140625 259.847656 247.695312 260.09375 248.949219 261.738281 C 250.054688 263.1875 250.71875 264.992188 251.925781 269.851562 C 252.425781 271.863281 253.019531 273.972656 253.246094 274.535156 C 253.507812 275.195312 253.777344 275.4375 254.003906 275.210938 C 254.199219 275.015625 255.078125 272.410156 255.960938 269.425781 C 256.839844 266.4375 257.921875 263.207031 258.363281 262.246094 C 259.164062 260.511719 259.191406 260.492188 262.304688 259.578125 C 269.804688 257.375 272.574219 256.441406 272.574219 256.128906 C 272.574219 255.941406 271.382812 255.445312 269.921875 255.023438 C 261.566406 252.609375 259.023438 251.691406 258.523438 250.902344 C 258.238281 250.453125 257.476562 248.195312 256.832031 245.878906 C 255.273438 240.296875 254.300781 237.757812 253.792969 237.929688 Z M 253.792969 237.929688 "/>
</g>
</svg>
