<?xml version="1.0" encoding="UTF-8"?>
<svg xmlns="http://www.w3.org/2000/svg" xmlns:xlink="http://www.w3.org/1999/xlink" width="512pt" height="512pt" viewBox="0 0 512 512" version="1.1">
<defs>
<filter id="alpha" filterUnits="objectBoundingBox" x="0%" y="0%" width="100%" height="100%">
  <feColorMatrix type="matrix" in="SourceGraphic" values="0 0 0 0 1 0 0 0 0 1 0 0 0 0 1 0 0 0 1 0"/>
</filter>
<mask id="mask0">
  <g filter="url(#alpha)">
<rect x="0" y="0" width="512" height="512" style="fill:rgb(0%,0%,0%);fill-opacity:0.301961;stroke:none;"/>
  </g>
</mask>
<clipPath id="clip1">
  <rect width="512" height="512"/>
</clipPath>
<g id="surface6" clip-path="url(#clip1)">
<path style="fill:none;stroke-width:15;stroke-linecap:round;stroke-linejoin:miter;stroke:rgb(0%,0%,0%);stroke-opacity:1;stroke-miterlimit:4;" d="M 722.122366 354.194743 L 754.813773 534.74943 C 754.813773 534.74943 760.489554 570.175211 783.950491 582.933024 C 807.407523 595.690836 842.641898 610.768961 842.641898 610.768961 " transform="matrix(1,0,0,1,-639.99346,-255.31193)"/>
<path style=" stroke:none;fill-rule:nonzero;fill:rgb(0%,0%,0%);fill-opacity:0.996078;" d="M 145.300781 344.957031 L 158.34375 317.789062 L 197.972656 336.816406 L 184.925781 363.984375 Z M 145.300781 344.957031 "/>
<path style=" stroke:none;fill-rule:nonzero;fill:rgb(0%,0%,0%);fill-opacity:0.996078;" d="M 58.359375 83.257812 L 68.328125 133.925781 L 85.957031 168.707031 L 99.636719 166.214844 L 103.277344 126.507812 L 93.308594 75.839844 C 81.367188 72.625 64.261719 77.902344 58.359375 83.257812 Z M 58.359375 83.257812 "/>
</g>
<mask id="mask1">
  <g filter="url(#alpha)">
<rect x="0" y="0" width="512" height="512" style="fill:rgb(0%,0%,0%);fill-opacity:0.301961;stroke:none;"/>
  </g>
</mask>
<clipPath id="clip2">
  <rect width="512" height="512"/>
</clipPath>
<g id="surface9" clip-path="url(#clip2)">
<path style=" stroke:none;fill-rule:nonzero;fill:rgb(0%,0%,0%);fill-opacity:1;" d="M 141.054688 342.976562 L 154.101562 315.808594 L 193.726562 334.835938 L 180.679688 362.003906 Z M 141.054688 342.976562 "/>
</g>
<mask id="mask2">
  <g filter="url(#alpha)">
<rect x="0" y="0" width="512" height="512" style="fill:rgb(0%,0%,0%);fill-opacity:0.301961;stroke:none;"/>
  </g>
</mask>
<clipPath id="clip3">
  <rect width="512" height="512"/>
</clipPath>
<g id="surface12" clip-path="url(#clip3)">
<path style=" stroke:none;fill-rule:nonzero;fill:rgb(0%,0%,0%);fill-opacity:0.996078;" d="M 55.589844 85.003906 L 65.5625 135.671875 L 83.191406 170.453125 L 96.867188 167.960938 L 100.511719 128.253906 L 90.539062 77.585938 C 78.597656 74.371094 61.492188 79.648438 55.589844 85.003906 Z M 55.589844 85.003906 "/>
</g>
</defs>
<g id="surface1">
<path style=" stroke:none;fill-rule:nonzero;fill:rgb(80%,80%,80%);fill-opacity:1;" d="M 64.75 31 L 447.25 31 C 465.949219 31 481 46.050781 481 64.75 L 481 447.25 C 481 465.949219 465.949219 481 447.25 481 L 64.75 481 C 46.050781 481 31 465.949219 31 447.25 L 31 64.75 C 31 46.050781 46.050781 31 64.75 31 Z M 64.75 31 "/>
<path style=" stroke:none;fill-rule:nonzero;fill:rgb(20%,20%,20%);fill-opacity:1;" d="M 458.5 256 C 458.5 367.835938 367.835938 458.5 256 458.5 C 144.164062 458.5 53.5 367.835938 53.5 256 C 53.5 144.164062 144.164062 53.5 256 53.5 C 367.835938 53.5 458.5 144.164062 458.5 256 Z M 458.5 256 "/>
<path style=" stroke:none;fill-rule:nonzero;fill:rgb(30.196078%,30.196078%,30.196078%);fill-opacity:1;" d="M 340.375 256 C 340.375 302.597656 302.597656 340.375 256 340.375 C 209.402344 340.375 171.625 302.597656 171.625 256 C 171.625 209.402344 209.402344 171.625 256 171.625 C 302.597656 171.625 340.375 209.402344 340.375 256 Z M 340.375 256 "/>
<path style=" stroke:none;fill-rule:nonzero;fill:rgb(10.196078%,73.72549%,61.176471%);fill-opacity:1;" d="M 317.875 256 C 317.875 290.171875 290.171875 317.875 256 317.875 C 221.828125 317.875 194.125 290.171875 194.125 256 C 194.125 221.828125 221.828125 194.125 256 194.125 C 290.171875 194.125 317.875 221.828125 317.875 256 Z M 317.875 256 "/>
<path style=" stroke:none;fill-rule:nonzero;fill:rgb(20%,20%,20%);fill-opacity:1;" d="M 261.625 256 C 261.625 259.105469 259.105469 261.625 256 261.625 C 252.894531 261.625 250.375 259.105469 250.375 256 C 250.375 252.894531 252.894531 250.375 256 250.375 C 259.105469 250.375 261.625 252.894531 261.625 256 Z M 261.625 256 "/>
<path style="fill:none;stroke-width:1.124999;stroke-linecap:butt;stroke-linejoin:miter;stroke:rgb(30.196078%,30.196078%,30.196078%);stroke-opacity:1;stroke-miterlimit:4;" d="M 457.796875 796.3622 C 457.796875 907.811419 367.449219 998.159075 256 998.159075 C 144.550781 998.159075 54.203125 907.811419 54.203125 796.3622 C 54.203125 684.912981 144.550781 594.565325 256 594.565325 C 367.449219 594.565325 457.796875 684.912981 457.796875 796.3622 Z M 457.796875 796.3622 " transform="matrix(1,0,0,1,0,-540.3622)"/>
<path style="fill:none;stroke-width:1.125;stroke-linecap:butt;stroke-linejoin:miter;stroke:rgb(30.196078%,30.196078%,30.196078%);stroke-opacity:1;stroke-miterlimit:4;" d="M 446.550781 796.3622 C 446.550781 901.600481 361.238281 986.912981 256 986.912981 C 150.761719 986.912981 65.449219 901.600481 65.449219 796.3622 C 65.449219 691.123919 150.761719 605.811419 256 605.811419 C 361.238281 605.811419 446.550781 691.123919 446.550781 796.3622 Z M 446.550781 796.3622 " transform="matrix(1,0,0,1,0,-540.3622)"/>
<path style="fill:none;stroke-width:1.125;stroke-linecap:butt;stroke-linejoin:miter;stroke:rgb(30.196078%,30.196078%,30.196078%);stroke-opacity:1;stroke-miterlimit:4;" d="M 440.925781 796.3622 C 440.925781 898.495013 358.132812 981.287981 256 981.287981 C 153.867188 981.287981 71.074219 898.495013 71.074219 796.3622 C 71.074219 694.233294 153.867188 611.436419 256 611.436419 C 358.132812 611.436419 440.925781 694.233294 440.925781 796.3622 Z M 440.925781 796.3622 " transform="matrix(1,0,0,1,0,-540.3622)"/>
<path style="fill:none;stroke-width:1.125;stroke-linecap:butt;stroke-linejoin:miter;stroke:rgb(30.196078%,30.196078%,30.196078%);stroke-opacity:1;stroke-miterlimit:4;" d="M 435.300781 796.3622 C 435.300781 895.385638 355.023438 975.662981 256 975.662981 C 156.976562 975.662981 76.699219 895.385638 76.699219 796.3622 C 76.699219 697.338763 156.976562 617.061419 256 617.061419 C 355.023438 617.061419 435.300781 697.338763 435.300781 796.3622 Z M 435.300781 796.3622 " transform="matrix(1,0,0,1,0,-540.3622)"/>
<path style="fill:none;stroke-width:1.125;stroke-linecap:butt;stroke-linejoin:miter;stroke:rgb(30.196078%,30.196078%,30.196078%);stroke-opacity:1;stroke-miterlimit:4;" d="M 429.675781 796.3622 C 429.675781 892.280169 351.917969 970.037981 256 970.037981 C 160.082031 970.037981 82.324219 892.280169 82.324219 796.3622 C 82.324219 700.444231 160.082031 622.686419 256 622.686419 C 351.917969 622.686419 429.675781 700.444231 429.675781 796.3622 Z M 429.675781 796.3622 " transform="matrix(1,0,0,1,0,-540.3622)"/>
<path style="fill:none;stroke-width:1.125;stroke-linecap:butt;stroke-linejoin:miter;stroke:rgb(30.196078%,30.196078%,30.196078%);stroke-opacity:1;stroke-miterlimit:4;" d="M 424.050781 796.3622 C 424.050781 889.1747 348.8125 964.412981 256 964.412981 C 163.1875 964.412981 87.949219 889.1747 87.949219 796.3622 C 87.949219 703.5497 163.1875 628.311419 256 628.311419 C 348.8125 628.311419 424.050781 703.5497 424.050781 796.3622 Z M 424.050781 796.3622 " transform="matrix(1,0,0,1,0,-540.3622)"/>
<path style="fill:none;stroke-width:5.624997;stroke-linecap:butt;stroke-linejoin:miter;stroke:rgb(30.196078%,30.196078%,30.196078%);stroke-opacity:1;stroke-miterlimit:4;" d="M 418.425781 796.3622 C 418.425781 886.069231 345.707031 958.787981 256 958.787981 C 166.292969 958.787981 93.574219 886.069231 93.574219 796.3622 C 93.574219 706.655169 166.292969 633.936419 256 633.936419 C 345.707031 633.936419 418.425781 706.655169 418.425781 796.3622 Z M 418.425781 796.3622 " transform="matrix(1,0,0,1,0,-540.3622)"/>
<path style="fill:none;stroke-width:1.125;stroke-linecap:butt;stroke-linejoin:miter;stroke:rgb(30.196078%,30.196078%,30.196078%);stroke-opacity:1;stroke-miterlimit:4;" d="M 412.800781 796.3622 C 412.800781 882.963763 342.597656 953.166888 256 953.166888 C 169.402344 953.166888 99.199219 882.963763 99.199219 796.3622 C 99.199219 709.764544 169.402344 639.561419 256 639.561419 C 342.597656 639.561419 412.800781 709.764544 412.800781 796.3622 Z M 412.800781 796.3622 " transform="matrix(1,0,0,1,0,-540.3622)"/>
<path style="fill:none;stroke-width:1.125;stroke-linecap:butt;stroke-linejoin:miter;stroke:rgb(30.196078%,30.196078%,30.196078%);stroke-opacity:1;stroke-miterlimit:4;" d="M 407.175781 796.3622 C 407.175781 879.854388 339.492188 947.537981 256 947.537981 C 172.507812 947.537981 104.824219 879.854388 104.824219 796.3622 C 104.824219 712.870013 172.507812 645.186419 256 645.186419 C 339.492188 645.186419 407.175781 712.870013 407.175781 796.3622 Z M 407.175781 796.3622 " transform="matrix(1,0,0,1,0,-540.3622)"/>
<path style="fill:none;stroke-width:1.125;stroke-linecap:butt;stroke-linejoin:miter;stroke:rgb(30.196078%,30.196078%,30.196078%);stroke-opacity:1;stroke-miterlimit:4;" d="M 401.550781 796.3622 C 401.550781 876.748919 336.386719 941.912981 256 941.912981 C 175.613281 941.912981 110.449219 876.748919 110.449219 796.3622 C 110.449219 715.975481 175.613281 650.811419 256 650.811419 C 336.386719 650.811419 401.550781 715.975481 401.550781 796.3622 Z M 401.550781 796.3622 " transform="matrix(1,0,0,1,0,-540.3622)"/>
<path style="fill:none;stroke-width:1.125;stroke-linecap:butt;stroke-linejoin:miter;stroke:rgb(30.196078%,30.196078%,30.196078%);stroke-opacity:1;stroke-miterlimit:4;" d="M 395.925781 796.3622 C 395.925781 873.64345 333.28125 936.287981 256 936.287981 C 178.71875 936.287981 116.074219 873.64345 116.074219 796.3622 C 116.074219 719.08095 178.71875 656.436419 256 656.436419 C 333.28125 656.436419 395.925781 719.08095 395.925781 796.3622 Z M 395.925781 796.3622 " transform="matrix(1,0,0,1,0,-540.3622)"/>
<path style="fill:none;stroke-width:1.125;stroke-linecap:butt;stroke-linejoin:miter;stroke:rgb(30.196078%,30.196078%,30.196078%);stroke-opacity:1;stroke-miterlimit:4;" d="M 390.300781 796.3622 C 390.300781 870.534075 330.171875 930.662981 256 930.662981 C 181.828125 930.662981 121.699219 870.534075 121.699219 796.3622 C 121.699219 722.190325 181.828125 662.061419 256 662.061419 C 330.171875 662.061419 390.300781 722.190325 390.300781 796.3622 Z M 390.300781 796.3622 " transform="matrix(1,0,0,1,0,-540.3622)"/>
<path style="fill:none;stroke-width:1.124999;stroke-linecap:butt;stroke-linejoin:miter;stroke:rgb(30.196078%,30.196078%,30.196078%);stroke-opacity:1;stroke-miterlimit:4;" d="M 384.675781 796.3622 C 384.675781 867.428606 327.066406 925.037981 256 925.037981 C 184.933594 925.037981 127.324219 867.428606 127.324219 796.3622 C 127.324219 725.295794 184.933594 667.682513 256 667.682513 C 327.066406 667.682513 384.675781 725.295794 384.675781 796.3622 Z M 384.675781 796.3622 " transform="matrix(1,0,0,1,0,-540.3622)"/>
<path style="fill:none;stroke-width:5.624998;stroke-linecap:butt;stroke-linejoin:miter;stroke:rgb(30.196078%,30.196078%,30.196078%);stroke-opacity:1;stroke-miterlimit:4;" d="M 379.054688 796.3622 C 379.054688 864.323138 323.960938 919.416888 256 919.416888 C 188.039062 919.416888 132.945312 864.323138 132.945312 796.3622 C 132.945312 728.401263 188.039062 673.307513 256 673.307513 C 323.960938 673.307513 379.054688 728.401263 379.054688 796.3622 Z M 379.054688 796.3622 " transform="matrix(1,0,0,1,0,-540.3622)"/>
<path style="fill:none;stroke-width:1.125;stroke-linecap:butt;stroke-linejoin:miter;stroke:rgb(30.196078%,30.196078%,30.196078%);stroke-opacity:1;stroke-miterlimit:4;" d="M 373.429688 796.3622 C 373.429688 861.217669 320.855469 913.791888 256 913.791888 C 191.144531 913.791888 138.570312 861.217669 138.570312 796.3622 C 138.570312 731.506731 191.144531 678.932513 256 678.932513 C 320.855469 678.932513 373.429688 731.506731 373.429688 796.3622 Z M 373.429688 796.3622 " transform="matrix(1,0,0,1,0,-540.3622)"/>
<path style="fill:none;stroke-width:1.125;stroke-linecap:butt;stroke-linejoin:miter;stroke:rgb(30.196078%,30.196078%,30.196078%);stroke-opacity:1;stroke-miterlimit:4;" d="M 367.804688 796.3622 C 367.804688 858.108294 317.746094 908.166888 256 908.166888 C 194.253906 908.166888 144.195312 858.108294 144.195312 796.3622 C 144.195312 734.616106 194.253906 684.557513 256 684.557513 C 317.746094 684.557513 367.804688 734.616106 367.804688 796.3622 Z M 367.804688 796.3622 " transform="matrix(1,0,0,1,0,-540.3622)"/>
<path style="fill:none;stroke-width:1.125;stroke-linecap:butt;stroke-linejoin:miter;stroke:rgb(30.196078%,30.196078%,30.196078%);stroke-opacity:1;stroke-miterlimit:4;" d="M 362.179688 796.3622 C 362.179688 855.002825 314.640625 902.541888 256 902.541888 C 197.359375 902.541888 149.820312 855.002825 149.820312 796.3622 C 149.820312 737.721575 197.359375 690.186419 256 690.186419 C 314.640625 690.186419 362.179688 737.721575 362.179688 796.3622 Z M 362.179688 796.3622 " transform="matrix(1,0,0,1,0,-540.3622)"/>
<path style="fill:none;stroke-width:1.125;stroke-linecap:butt;stroke-linejoin:miter;stroke:rgb(30.196078%,30.196078%,30.196078%);stroke-opacity:1;stroke-miterlimit:4;" d="M 356.5625 796.3622 C 356.5625 851.901263 311.539062 896.9247 256 896.9247 C 200.460938 896.9247 155.4375 851.901263 155.4375 796.3622 C 155.4375 740.823138 200.460938 695.7997 256 695.7997 C 311.539062 695.7997 356.5625 740.823138 356.5625 796.3622 Z M 356.5625 796.3622 " transform="matrix(1,0,0,1,0,-540.3622)"/>
<path style="fill:none;stroke-width:1.125;stroke-linecap:butt;stroke-linejoin:miter;stroke:rgb(30.196078%,30.196078%,30.196078%);stroke-opacity:1;stroke-miterlimit:4;" d="M 350.929688 796.3622 C 350.929688 848.791888 308.429688 891.291888 256 891.291888 C 203.570312 891.291888 161.070312 848.791888 161.070312 796.3622 C 161.070312 743.932513 203.570312 701.432513 256 701.432513 C 308.429688 701.432513 350.929688 743.932513 350.929688 796.3622 Z M 350.929688 796.3622 " transform="matrix(1,0,0,1,0,-540.3622)"/>
<path style="fill:none;stroke-width:1.125;stroke-linecap:butt;stroke-linejoin:miter;stroke:rgb(30.196078%,30.196078%,30.196078%);stroke-opacity:1;stroke-miterlimit:4;" d="M 345.304688 796.3622 C 345.304688 845.682513 305.320312 885.666888 256 885.666888 C 206.679688 885.666888 166.695312 845.682513 166.695312 796.3622 C 166.695312 747.041888 206.679688 707.057513 256 707.057513 C 305.320312 707.057513 345.304688 747.041888 345.304688 796.3622 Z M 345.304688 796.3622 " transform="matrix(1,0,0,1,0,-540.3622)"/>
<path style="fill:none;stroke-width:5.624998;stroke-linecap:butt;stroke-linejoin:miter;stroke:rgb(30.196078%,30.196078%,30.196078%);stroke-opacity:1;stroke-miterlimit:4;" d="M 455.6875 796.3622 C 455.6875 906.647356 366.285156 996.0497 256 996.0497 C 145.714844 996.0497 56.3125 906.647356 56.3125 796.3622 C 56.3125 686.077044 145.714844 596.6747 256 596.6747 C 366.285156 596.6747 455.6875 686.077044 455.6875 796.3622 Z M 455.6875 796.3622 " transform="matrix(1,0,0,1,0,-540.3622)"/>
<path style=" stroke:none;fill-rule:nonzero;fill:rgb(100%,100%,100%);fill-opacity:0.301961;" d="M 64.75 31 L 447.25 31 C 465.949219 31 481 46.050781 481 64.75 C 481 53.5 464.074219 42.25 447.25 42.25 L 64.75 42.25 C 47.847656 42.25 31 53.5 31 64.75 C 31 46.050781 46.050781 31 64.75 31 Z M 64.75 31 "/>
<path style=" stroke:none;fill-rule:nonzero;fill:rgb(0%,0%,0%);fill-opacity:0.301961;" d="M 31 437.25 L 31 447.25 C 31 465.949219 46.050781 481 64.75 481 L 447.25 481 C 465.949219 481 481 465.949219 481 447.25 L 481 437.25 C 481 455.949219 465.949219 471 447.25 471 L 64.75 471 C 46.050781 471 31 455.949219 31 437.25 Z M 31 437.25 "/>
<path style=" stroke:none;fill-rule:nonzero;fill:rgb(29.019608%,68.235294%,90.980392%);fill-opacity:0.980392;" d="M 105.6875 88.816406 C 105.6875 106.03125 91.730469 119.988281 74.511719 119.988281 C 57.292969 119.988281 43.335938 106.03125 43.335938 88.816406 C 43.335938 71.597656 57.292969 57.640625 74.511719 57.640625 C 91.730469 57.640625 105.6875 71.597656 105.6875 88.816406 Z M 105.6875 88.816406 "/>
<path style=" stroke:none;fill-rule:nonzero;fill:rgb(0%,0%,0%);fill-opacity:0.301961;" d="M 43.496094 85.675781 C 43.390625 86.71875 43.335938 87.765625 43.339844 88.8125 C 43.335938 106.03125 57.292969 119.988281 74.511719 119.988281 C 91.730469 119.988281 105.6875 106.03125 105.6875 88.8125 C 105.675781 87.855469 105.625 86.898438 105.527344 85.941406 C 103.921875 101.867188 90.515625 113.988281 74.511719 113.988281 C 58.414062 113.976562 44.972656 101.707031 43.496094 85.675781 Z M 43.496094 85.675781 "/>
<use xlink:href="#surface6" mask="url(#mask0)"/>
<path style="fill:none;stroke-width:15;stroke-linecap:round;stroke-linejoin:miter;stroke:rgb(29.019608%,68.235294%,90.980392%);stroke-opacity:1;stroke-miterlimit:4;" d="M 75.886719 633.26845 L 108.574219 813.823138 C 108.574219 813.823138 114.25 849.245013 137.710938 862.006731 C 161.171875 874.764544 196.40625 889.838763 196.40625 889.838763 " transform="matrix(1,0,0,1,0,-540.3622)"/>
<use xlink:href="#surface9" mask="url(#mask1)"/>
<path style=" stroke:none;fill-rule:nonzero;fill:rgb(17.254902%,60%,84.705882%);fill-opacity:0.996078;" d="M 139.054688 338.976562 L 152.101562 311.808594 L 191.726562 330.835938 L 178.679688 358.003906 Z M 139.054688 338.976562 "/>
<use xlink:href="#surface12" mask="url(#mask2)"/>
<path style=" stroke:none;fill-rule:nonzero;fill:rgb(17.254902%,60%,84.705882%);fill-opacity:0.996078;" d="M 54.039062 77.78125 L 64.011719 128.449219 L 81.640625 163.234375 L 95.320312 160.738281 L 98.960938 121.03125 L 88.992188 70.363281 C 77.046875 67.148438 59.945312 72.429688 54.039062 77.78125 Z M 54.039062 77.78125 "/>
</g>
</svg>
