<?xml version="1.0" encoding="UTF-8"?>
<svg xmlns="http://www.w3.org/2000/svg" xmlns:xlink="http://www.w3.org/1999/xlink" width="512pt" height="512pt" viewBox="0 0 512 512" version="1.1">
<g id="surface1">
<path style=" stroke:none;fill-rule:nonzero;fill:rgb(23.529412%,58.823529%,83.921569%);fill-opacity:1;" d="M 75.6875 479.71875 C 55.960938 474.527344 39.871094 458.277344 34.820312 438.453125 C 33.480469 433.1875 33.289062 410.625 33.289062 257.726562 C 33.289062 65.144531 32.871094 77.996094 39.613281 64.421875 C 43.964844 55.667969 54.820312 44.8125 63.574219 40.464844 C 77.144531 33.71875 64.402344 34.140625 255.867188 34.140625 C 447.332031 34.140625 434.589844 33.71875 448.160156 40.464844 C 456.914062 44.8125 467.769531 55.667969 472.121094 64.421875 C 478.863281 77.996094 478.445312 65.144531 478.445312 257.726562 C 478.445312 410.625 478.253906 433.1875 476.910156 438.453125 C 471.804688 458.503906 455.636719 474.671875 435.582031 479.78125 C 426.730469 482.035156 84.265625 481.976562 75.6875 479.71875 Z M 75.6875 479.71875 "/>
<path style=" stroke:none;fill-rule:nonzero;fill:rgb(100%,100%,100%);fill-opacity:1;" d="M 302.234375 318.445312 C 329.085938 288.621094 348.066406 266.746094 347.546875 266.226562 C 347.054688 265.734375 335.535156 265.210938 321.953125 265.0625 L 297.253906 264.792969 L 296.75 211.292969 L 296.242188 157.792969 L 212.460938 157.792969 L 211.453125 264.792969 L 186.21875 265.296875 C 169.84375 265.625 160.980469 266.167969 160.980469 266.84375 C 160.980469 268.867188 252.808594 370.222656 254.433594 369.996094 C 255.308594 369.871094 276.820312 346.675781 302.234375 318.445312 Z M 302.234375 318.445312 "/>
</g>
</svg>
