<?xml version="1.0" encoding="UTF-8"?>
<svg xmlns="http://www.w3.org/2000/svg" xmlns:xlink="http://www.w3.org/1999/xlink" width="512pt" height="512pt" viewBox="0 0 512 512" version="1.1">
<defs>
<clipPath id="clip1">
  <path d="M 129 310 L 449 310 L 449 419 L 129 419 Z M 129 310 "/>
</clipPath>
<clipPath id="clip2">
  <path d="M 596.230469 256.746094 C 596.230469 443.929688 444.453125 595.539062 257.441406 595.539062 C 70.429688 595.539062 -81.347656 443.929688 -81.347656 256.746094 C -81.347656 69.566406 70.429688 -82.042969 257.441406 -82.042969 C 444.453125 -82.042969 596.230469 69.566406 596.230469 256.746094 Z M 596.230469 256.746094 "/>
</clipPath>
<clipPath id="clip3">
  <path d="M 193 94 L 449 94 L 449 311 L 193 311 Z M 193 94 "/>
</clipPath>
<clipPath id="clip4">
  <path d="M 596.230469 256.746094 C 596.230469 443.929688 444.453125 595.539062 257.441406 595.539062 C 70.429688 595.539062 -81.347656 443.929688 -81.347656 256.746094 C -81.347656 69.566406 70.429688 -82.042969 257.441406 -82.042969 C 444.453125 -82.042969 596.230469 69.566406 596.230469 256.746094 Z M 596.230469 256.746094 "/>
</clipPath>
<clipPath id="clip5">
  <path d="M 65 94 L 258 94 L 258 419 L 65 419 Z M 65 94 "/>
</clipPath>
<clipPath id="clip6">
  <path d="M 596.230469 256.746094 C 596.230469 443.929688 444.453125 595.539062 257.441406 595.539062 C 70.429688 595.539062 -81.347656 443.929688 -81.347656 256.746094 C -81.347656 69.566406 70.429688 -82.042969 257.441406 -82.042969 C 444.453125 -82.042969 596.230469 69.566406 596.230469 256.746094 Z M 596.230469 256.746094 "/>
</clipPath>
</defs>
<g id="surface1">
<path style="fill-rule:nonzero;fill:rgb(100%,100%,100%);fill-opacity:1;stroke-width:27.082432;stroke-linecap:butt;stroke-linejoin:miter;stroke:rgb(24.313725%,52.54902%,98.431373%);stroke-opacity:1;stroke-miterlimit:4;" d="M 88.347656 34.183594 L 423.652344 34.183594 C 453.566406 34.183594 477.816406 58.433594 477.816406 88.347656 L 477.816406 423.652344 C 477.816406 453.566406 453.566406 477.816406 423.652344 477.816406 L 88.347656 477.816406 C 58.433594 477.816406 34.183594 453.566406 34.183594 423.652344 L 34.183594 88.347656 C 34.183594 58.433594 58.433594 34.183594 88.347656 34.183594 Z M 88.347656 34.183594 "/>
<g clip-path="url(#clip1)" clip-rule="nonzero">
<g clip-path="url(#clip2)" clip-rule="nonzero">
<path style=" stroke:none;fill-rule:evenodd;fill:rgb(24.313725%,52.54902%,98.431373%);fill-opacity:1;" d="M 193.632812 310.71875 L 448.933594 310.71875 L 385.121094 418.71875 L 129.761719 418.71875 M 193.632812 310.71875 "/>
</g>
</g>
<g clip-path="url(#clip3)" clip-rule="nonzero">
<g clip-path="url(#clip4)" clip-rule="nonzero">
<path style=" stroke:none;fill-rule:evenodd;fill:rgb(98.431373%,81.176471%,29.411765%);fill-opacity:1;" d="M 448.933594 310.71875 L 321.253906 94.660156 L 193.632812 94.660156 L 321.253906 310.71875 M 448.933594 310.71875 "/>
</g>
</g>
<g clip-path="url(#clip5)" clip-rule="nonzero">
<g clip-path="url(#clip6)" clip-rule="nonzero">
<path style=" stroke:none;fill-rule:evenodd;fill:rgb(3.921569%,63.921569%,37.254902%);fill-opacity:1;" d="M 129.761719 418.71875 L 257.441406 202.660156 L 193.632812 94.660156 L 65.953125 310.71875 M 129.761719 418.71875 "/>
</g>
</g>
</g>
</svg>
