<?xml version="1.0" encoding="UTF-8"?>
<svg xmlns="http://www.w3.org/2000/svg" xmlns:xlink="http://www.w3.org/1999/xlink" width="512pt" height="512pt" viewBox="0 0 512 512" version="1.1">
<g id="surface1">
<path style=" stroke:none;fill-rule:nonzero;fill:rgb(60.784314%,82.352941%,12.156863%);fill-opacity:1;" d="M 80.351562 36.710938 L 432.460938 36.710938 C 459.164062 36.710938 480.808594 58.359375 480.808594 85.0625 L 480.808594 433.109375 C 480.808594 459.8125 459.164062 481.457031 432.460938 481.457031 L 80.351562 481.457031 C 53.648438 481.457031 32.003906 459.8125 32.003906 433.109375 L 32.003906 85.0625 C 32.003906 58.359375 53.648438 36.710938 80.351562 36.710938 Z M 80.351562 36.710938 "/>
<path style=" stroke:none;fill-rule:nonzero;fill:rgb(100%,100%,100%);fill-opacity:1;" d="M 383.261719 107.789062 C 354.851562 107.789062 340.429688 117.601562 329.113281 131.199219 C 317.796875 144.796875 311.011719 162.933594 303.238281 178.503906 C 298.019531 188.960938 286.375 227.828125 275.652344 264.511719 C 270.292969 282.851562 264.914062 301.082031 259.894531 316.273438 C 254.875 331.46875 251.066406 342.796875 245.265625 351.507812 C 235.695312 365.886719 220.320312 373.96875 204.863281 373.96875 C 199.414062 373.96875 194 372.953125 188.820312 371.023438 C 207.167969 396.554688 249.535156 437.992188 299.007812 368.984375 C 333.316406 321.128906 344.777344 218.050781 368.992188 179.25 C 399.785156 129.910156 415.257812 141.578125 418.925781 145.710938 C 419.617188 141.671875 420.015625 137.460938 419.835938 133.441406 C 419.496094 125.988281 417.59375 120.328125 413.183594 116.105469 C 408.777344 111.882812 400.503906 107.789062 383.261719 107.789062 Z M 151.925781 151.300781 C 159.238281 159.59375 165.117188 170.089844 168.648438 182.476562 C 176.550781 210.167969 178.074219 244.578125 179.855469 274.882812 C 180.746094 290.035156 181.640625 304.109375 183.097656 315.164062 C 184.558594 326.21875 187.371094 334.425781 188.195312 335.667969 C 192.898438 342.726562 198.914062 345.394531 204.863281 345.394531 C 210.808594 345.394531 216.847656 342.726562 221.546875 335.667969 C 222.78125 333.8125 227.265625 323.484375 231.722656 310.460938 C 224.195312 307.304688 213.289062 289.644531 204.863281 222.132812 C 200 183.164062 171.550781 161.660156 151.925781 151.300781 Z M 106.925781 158.222656 C 103.292969 158.25 100.265625 159.257812 97.839844 160.945312 C 94.601562 163.199219 91.789062 166.820312 90.523438 174.425781 L 89.71875 174.304688 C 90.234375 195.074219 103.945312 208.8125 103.945312 208.8125 C 103.945312 208.8125 103.941406 194.527344 118.210938 187.382812 C 125.910156 183.527344 135.503906 189.792969 142.734375 196.363281 C 142.25 194.289062 141.730469 192.246094 141.183594 190.328125 C 135.378906 169.984375 121.527344 160.222656 110.777344 158.523438 C 109.433594 158.3125 108.140625 158.210938 106.925781 158.21875 Z M 106.925781 158.222656 "/>
</g>
</svg>
