
<svg xmlns="http://www.w3.org/2000/svg" xmlns:xlink="http://www.w3.org/1999/xlink" width="64px" height="64px" viewBox="0 0 64 64" version="1.1">
<g id="surface1">
<path style=" stroke:none;fill-rule:nonzero;fill:rgb(72.941176%,9.019608%,30.588235%);fill-opacity:1;" d="M 17.15625 3.457031 C 12.832031 3.457031 9.355469 6.933594 9.355469 11.257812 L 9.355469 52.742188 C 9.355469 57.066406 12.832031 60.542969 17.15625 60.542969 L 46.84375 60.542969 C 51.167969 60.542969 54.644531 57.066406 54.644531 52.742188 L 54.644531 12.707031 L 33.121094 3.457031 Z M 47.644531 3.496094 C 48.167969 3.546875 48.679688 3.652344 49.167969 3.804688 C 48.679688 3.652344 48.167969 3.546875 47.644531 3.496094 Z M 49.167969 3.804688 C 49.902344 4.03125 50.589844 4.363281 51.210938 4.785156 C 50.589844 4.363281 49.902344 4.03125 49.167969 3.804688 Z M 51.8125 5.230469 C 52.003906 5.390625 52.1875 5.5625 52.363281 5.738281 C 52.1875 5.558594 52.003906 5.390625 51.8125 5.230469 Z M 51.8125 5.230469 "/>
<path style=" stroke:none;fill-rule:nonzero;fill:rgb(100%,100%,100%);fill-opacity:0.682353;" d="M 54.644531 12.707031 L 33.121094 3.457031 L 33.121094 4.90625 C 33.121094 9.230469 36.597656 12.707031 40.921875 12.707031 Z M 54.644531 12.707031 "/>
<path style=" stroke:none;fill-rule:nonzero;fill:rgb(100%,100%,100%);fill-opacity:1;" d="M 25.640625 23.722656 C 25.519531 23.722656 25.125 23.820312 25.125 23.941406 L 25.136719 40.511719 C 24.6875 40.167969 24.359375 40 23.730469 40 C 22.824219 40 21.941406 40.328125 21.144531 40.792969 C 20.109375 41.414062 18.871094 42.496094 18.871094 44.085938 C 18.871094 45.453125 20.042969 46.09375 21.277344 46.09375 C 22.183594 46.09375 23.066406 45.765625 23.863281 45.300781 C 24.902344 44.683594 26.136719 43.597656 26.136719 42.007812 C 26.136719 41.945312 26.121094 41.894531 26.117188 41.839844 C 26.121094 41.820312 26.140625 41.808594 26.140625 41.789062 L 26.140625 29.464844 C 27.730469 31.121094 29.828125 33.417969 29.828125 35.714844 C 29.828125 37.171875 29.472656 38.609375 28.898438 39.957031 C 28.832031 40.308594 29.121094 40.550781 29.40625 40.550781 C 29.5625 40.550781 29.714844 40.464844 29.828125 40.285156 C 30.402344 38.828125 30.753906 37.28125 30.753906 35.714844 C 30.753906 31.347656 26.15625 28.328125 26.140625 23.96875 L 26.140625 23.941406 C 26.140625 23.820312 26.039062 23.722656 25.917969 23.722656 Z M 25.640625 23.722656 "/>
<path style=" stroke:none;fill-rule:nonzero;fill:rgb(100%,100%,100%);fill-opacity:1;" d="M 32.292969 35.257812 L 32.292969 36.878906 L 45.625 36.878906 L 45.625 35.257812 Z M 32.292969 35.257812 "/>
<path style=" stroke:none;fill-rule:nonzero;fill:rgb(100%,100%,100%);fill-opacity:1;" d="M 32.378906 39.570312 L 32.378906 41.203125 L 45.710938 41.203125 L 45.710938 39.570312 Z M 32.378906 39.570312 "/>
<path style=" stroke:none;fill-rule:nonzero;fill:rgb(100%,100%,100%);fill-opacity:1;" d="M 32.351562 43.898438 L 32.351562 45.527344 L 45.683594 45.527344 L 45.683594 43.898438 Z M 32.351562 43.898438 "/>
<path style=" stroke:none;fill-rule:nonzero;fill:rgb(100%,100%,100%);fill-opacity:1;" d="M 32.292969 29.925781 L 32.292969 33.320312 L 40.308594 33.320312 L 40.308594 29.925781 Z M 32.292969 29.925781 "/>
</g>
</svg>
