
<svg xmlns="http://www.w3.org/2000/svg" xmlns:xlink="http://www.w3.org/1999/xlink" width="16px" height="16px" viewBox="0 0 16 16" version="1.1">
<g id="surface1">
<path style=" stroke:none;fill-rule:nonzero;fill:rgb(87.843137%,29.411765%,14.901961%);fill-opacity:1;" d="M 4.289062 0.863281 C 3.207031 0.863281 2.339844 1.734375 2.339844 2.816406 L 2.339844 13.1875 C 2.339844 14.265625 3.207031 15.136719 4.289062 15.136719 L 11.710938 15.136719 C 12.792969 15.136719 13.660156 14.265625 13.660156 13.1875 L 13.660156 3.175781 L 8.28125 0.863281 Z M 11.910156 0.875 C 12.042969 0.886719 12.171875 0.914062 12.292969 0.953125 C 12.171875 0.914062 12.042969 0.886719 11.910156 0.875 Z M 12.292969 0.953125 C 12.476562 1.007812 12.648438 1.089844 12.800781 1.195312 C 12.648438 1.089844 12.476562 1.007812 12.292969 0.953125 Z M 12.953125 1.308594 C 13 1.347656 13.046875 1.390625 13.089844 1.433594 C 13.046875 1.390625 13 1.347656 12.953125 1.308594 Z M 12.953125 1.308594 "/>
<path style=" stroke:none;fill-rule:nonzero;fill:rgb(100%,100%,100%);fill-opacity:0.682353;" d="M 13.660156 3.175781 L 8.28125 0.863281 L 8.28125 1.226562 C 8.28125 2.308594 9.148438 3.175781 10.230469 3.175781 Z M 13.660156 3.175781 "/>
<path style=" stroke:none;fill-rule:nonzero;fill:rgb(100%,100%,100%);fill-opacity:1;" d="M 5.136719 10.261719 C 5.136719 10.085938 5.199219 9.933594 5.324219 9.8125 C 5.445312 9.691406 5.597656 9.628906 5.773438 9.628906 C 5.945312 9.628906 6.09375 9.691406 6.214844 9.8125 C 6.335938 9.933594 6.398438 10.085938 6.398438 10.261719 C 6.398438 10.4375 6.335938 10.582031 6.214844 10.707031 C 6.09375 10.828125 5.945312 10.886719 5.773438 10.886719 C 5.597656 10.886719 5.445312 10.828125 5.324219 10.707031 C 5.199219 10.585938 5.136719 10.4375 5.136719 10.261719 M 5.101562 7.40625 L 5.101562 8.457031 C 6.445312 8.457031 7.539062 9.550781 7.539062 10.898438 L 8.59375 10.898438 C 8.59375 8.96875 7.027344 7.40625 5.101562 7.40625 Z M 5.101562 5.101562 L 5.101562 6.265625 C 7.65625 6.265625 9.730469 8.339844 9.730469 10.898438 L 10.898438 10.898438 C 10.898438 7.695312 8.300781 5.101562 5.101562 5.101562 Z M 5.101562 5.101562 "/>
</g>
</svg>
