
<svg xmlns="http://www.w3.org/2000/svg" xmlns:xlink="http://www.w3.org/1999/xlink" width="16px" height="16px" viewBox="0 0 16 16" version="1.1">
<g id="surface1">
<path style=" stroke:none;fill-rule:nonzero;fill:rgb(92.54902%,91.372549%,84.705882%);fill-opacity:1;" d="M 4.289062 0.863281 C 3.207031 0.863281 2.339844 1.734375 2.339844 2.816406 L 2.339844 13.1875 C 2.339844 14.265625 3.207031 15.136719 4.289062 15.136719 L 11.710938 15.136719 C 12.792969 15.136719 13.660156 14.265625 13.660156 13.1875 L 13.660156 3.175781 L 8.28125 0.863281 Z M 11.910156 0.875 C 12.042969 0.886719 12.171875 0.914062 12.292969 0.953125 C 12.171875 0.914062 12.042969 0.886719 11.910156 0.875 Z M 12.292969 0.953125 C 12.476562 1.007812 12.648438 1.089844 12.800781 1.195312 C 12.648438 1.089844 12.476562 1.007812 12.292969 0.953125 Z M 12.953125 1.308594 C 13 1.347656 13.046875 1.390625 13.089844 1.433594 C 13.046875 1.390625 13 1.347656 12.953125 1.308594 Z M 12.953125 1.308594 "/>
<path style=" stroke:none;fill-rule:nonzero;fill:rgb(100%,100%,100%);fill-opacity:0.682353;" d="M 13.660156 3.175781 L 8.28125 0.863281 L 8.28125 1.226562 C 8.28125 2.308594 9.148438 3.175781 10.230469 3.175781 Z M 13.660156 3.175781 "/>
<path style=" stroke:none;fill-rule:nonzero;fill:rgb(0%,0%,0%);fill-opacity:0.607843;" d="M 9.175781 5.835938 L 8.78125 10.550781 C 8.761719 10.769531 8.753906 10.914062 8.753906 10.984375 C 8.753906 11.097656 8.769531 11.183594 8.808594 11.242188 C 8.859375 11.320312 8.921875 11.382812 9.003906 11.421875 C 9.085938 11.460938 9.226562 11.480469 9.421875 11.480469 L 9.378906 11.632812 L 7.351562 11.632812 L 7.390625 11.480469 L 7.480469 11.480469 C 7.644531 11.480469 7.777344 11.441406 7.882812 11.363281 C 7.957031 11.308594 8.011719 11.222656 8.054688 11.097656 C 8.082031 11.011719 8.109375 10.808594 8.132812 10.488281 L 8.195312 9.769531 L 6.71875 9.769531 L 6.195312 10.550781 C 6.074219 10.726562 6 10.851562 5.96875 10.929688 C 5.9375 11.007812 5.925781 11.078125 5.925781 11.144531 C 5.925781 11.234375 5.957031 11.308594 6.023438 11.375 C 6.089844 11.4375 6.199219 11.472656 6.351562 11.480469 L 6.308594 11.632812 L 4.785156 11.632812 L 4.824219 11.480469 C 5.011719 11.46875 5.179688 11.402344 5.320312 11.273438 C 5.464844 11.144531 5.679688 10.867188 5.960938 10.441406 L 9.042969 5.835938 L 9.175781 5.835938 M 8.421875 7.226562 L 6.929688 9.464844 L 8.222656 9.464844 L 8.421875 7.226562 "/>
</g>
</svg>
