
<svg xmlns="http://www.w3.org/2000/svg" xmlns:xlink="http://www.w3.org/1999/xlink" width="16px" height="16px" viewBox="0 0 16 16" version="1.1">
<g id="surface1">
<path style=" stroke:none;fill-rule:nonzero;fill:rgb(20%,20%,20%);fill-opacity:1;" d="M 4.289062 0.863281 C 3.207031 0.863281 2.339844 1.734375 2.339844 2.816406 L 2.339844 13.1875 C 2.339844 14.265625 3.207031 15.136719 4.289062 15.136719 L 11.710938 15.136719 C 12.792969 15.136719 13.660156 14.265625 13.660156 13.1875 L 13.660156 3.175781 L 8.28125 0.863281 Z M 11.910156 0.875 C 12.042969 0.886719 12.171875 0.914062 12.292969 0.953125 C 12.171875 0.914062 12.042969 0.886719 11.910156 0.875 Z M 12.292969 0.953125 C 12.476562 1.007812 12.648438 1.089844 12.800781 1.195312 C 12.648438 1.089844 12.476562 1.007812 12.292969 0.953125 Z M 12.953125 1.308594 C 13 1.347656 13.046875 1.390625 13.089844 1.433594 C 13.046875 1.390625 13 1.347656 12.953125 1.308594 Z M 12.953125 1.308594 "/>
<path style=" stroke:none;fill-rule:nonzero;fill:rgb(100%,100%,100%);fill-opacity:0.682353;" d="M 13.660156 3.175781 L 8.28125 0.863281 L 8.28125 1.226562 C 8.28125 2.308594 9.148438 3.175781 10.230469 3.175781 Z M 13.660156 3.175781 "/>
<path style=" stroke:none;fill-rule:nonzero;fill:rgb(100%,100%,100%);fill-opacity:1;" d="M 5.679688 9.121094 C 5.679688 8.839844 5.738281 8.566406 5.855469 8.296875 C 5.96875 8.019531 6.132812 7.777344 6.347656 7.5625 C 6.570312 7.347656 6.835938 7.171875 7.152344 7.039062 C 7.46875 6.90625 7.828125 6.839844 8.234375 6.839844 C 8.707031 6.839844 9.117188 6.933594 9.464844 7.117188 C 9.8125 7.300781 10.070312 7.542969 10.234375 7.839844 L 9.441406 8.308594 C 9.378906 8.179688 9.304688 8.074219 9.207031 7.988281 C 9.113281 7.898438 9.007812 7.824219 8.894531 7.773438 C 8.78125 7.722656 8.667969 7.6875 8.546875 7.664062 C 8.425781 7.640625 8.3125 7.625 8.203125 7.625 C 7.957031 7.625 7.742188 7.671875 7.558594 7.761719 C 7.371094 7.851562 7.214844 7.96875 7.089844 8.117188 C 6.972656 8.257812 6.878906 8.421875 6.8125 8.605469 C 6.753906 8.785156 6.722656 8.964844 6.722656 9.148438 C 6.722656 9.347656 6.757812 9.542969 6.828125 9.734375 C 6.902344 9.917969 7.007812 10.082031 7.136719 10.222656 C 7.273438 10.363281 7.433594 10.476562 7.617188 10.5625 C 7.800781 10.648438 8.003906 10.691406 8.226562 10.691406 C 8.339844 10.691406 8.457031 10.679688 8.578125 10.652344 C 8.699219 10.628906 8.8125 10.585938 8.921875 10.53125 C 9.039062 10.476562 9.144531 10.40625 9.238281 10.320312 C 9.332031 10.230469 9.410156 10.121094 9.46875 9.996094 L 10.320312 10.414062 C 10.238281 10.585938 10.121094 10.738281 9.964844 10.871094 C 9.816406 11 9.644531 11.109375 9.449219 11.203125 C 9.253906 11.292969 9.046875 11.359375 8.832031 11.40625 C 8.617188 11.453125 8.40625 11.476562 8.195312 11.476562 C 7.824219 11.476562 7.484375 11.410156 7.175781 11.273438 C 6.867188 11.136719 6.605469 10.957031 6.378906 10.738281 C 6.160156 10.515625 5.984375 10.261719 5.859375 9.984375 C 5.742188 9.699219 5.679688 9.414062 5.679688 9.121094 "/>
</g>
</svg>
