
<svg xmlns="http://www.w3.org/2000/svg" xmlns:xlink="http://www.w3.org/1999/xlink" width="96px" height="96px" viewBox="0 0 96 96" version="1.1">
<g id="surface1">
<path style=" stroke:none;fill-rule:nonzero;fill:rgb(21.568627%,44.313725%,78.431373%);fill-opacity:1;" d="M 25.734375 5.183594 C 19.25 5.183594 14.03125 10.402344 14.03125 16.886719 L 14.03125 79.113281 C 14.03125 85.597656 19.25 90.816406 25.734375 90.816406 L 70.265625 90.816406 C 76.75 90.816406 81.96875 85.597656 81.96875 79.113281 L 81.96875 19.0625 L 49.679688 5.183594 Z M 71.464844 5.242188 C 72.253906 5.320312 73.019531 5.480469 73.753906 5.707031 C 73.019531 5.480469 72.253906 5.320312 71.464844 5.242188 Z M 73.753906 5.707031 C 74.855469 6.046875 75.882812 6.546875 76.816406 7.175781 C 75.882812 6.546875 74.855469 6.046875 73.753906 5.707031 Z M 77.71875 7.847656 C 78.007812 8.085938 78.28125 8.339844 78.546875 8.605469 C 78.28125 8.339844 78.007812 8.085938 77.71875 7.847656 Z M 77.71875 7.847656 "/>
<path style=" stroke:none;fill-rule:nonzero;fill:rgb(100%,100%,100%);fill-opacity:0.682353;" d="M 81.96875 19.0625 L 49.679688 5.183594 L 49.679688 7.359375 C 49.679688 13.84375 54.898438 19.0625 61.382812 19.0625 Z M 81.96875 19.0625 "/>
<path style=" stroke:none;fill-rule:nonzero;fill:rgb(100%,100%,100%);fill-opacity:0.996078;" d="M 36.324219 42.800781 L 36.324219 60.484375 C 35.644531 60.234375 34.929688 60.085938 34.164062 60.085938 C 30.585938 60.085938 27.683594 62.988281 27.683594 66.566406 C 27.683594 70.140625 30.585938 73.046875 34.164062 73.046875 C 37.738281 73.046875 40.644531 70.140625 40.644531 66.566406 L 40.644531 47.121094 L 55.765625 47.121094 L 55.765625 60.484375 C 55.085938 60.234375 54.375 60.085938 53.605469 60.085938 C 50.03125 60.085938 47.125 62.988281 47.125 66.566406 C 47.125 70.140625 50.03125 73.046875 53.605469 73.046875 C 57.183594 73.046875 60.089844 70.140625 60.089844 66.566406 L 60.089844 42.800781 Z M 36.324219 42.800781 "/>
</g>
</svg>
