
<svg xmlns="http://www.w3.org/2000/svg" xmlns:xlink="http://www.w3.org/1999/xlink" width="96px" height="96px" viewBox="0 0 96 96" version="1.1">
<g id="surface1">
<path style=" stroke:none;fill-rule:nonzero;fill:rgb(87.843137%,29.411765%,14.901961%);fill-opacity:1;" d="M 25.734375 5.183594 C 19.25 5.183594 14.03125 10.402344 14.03125 16.886719 L 14.03125 79.113281 C 14.03125 85.597656 19.25 90.816406 25.734375 90.816406 L 70.265625 90.816406 C 76.75 90.816406 81.96875 85.597656 81.96875 79.113281 L 81.96875 19.0625 L 49.679688 5.183594 Z M 71.464844 5.242188 C 72.253906 5.320312 73.019531 5.480469 73.753906 5.707031 C 73.019531 5.480469 72.253906 5.320312 71.464844 5.242188 Z M 73.753906 5.707031 C 74.855469 6.046875 75.882812 6.546875 76.816406 7.175781 C 75.882812 6.546875 74.855469 6.046875 73.753906 5.707031 Z M 77.71875 7.847656 C 78.007812 8.085938 78.28125 8.339844 78.546875 8.605469 C 78.28125 8.339844 78.007812 8.085938 77.71875 7.847656 Z M 77.71875 7.847656 "/>
<path style=" stroke:none;fill-rule:nonzero;fill:rgb(100%,100%,100%);fill-opacity:0.682353;" d="M 81.96875 19.0625 L 49.679688 5.183594 L 49.679688 7.359375 C 49.679688 13.84375 54.898438 19.0625 61.382812 19.0625 Z M 81.96875 19.0625 "/>
<path style=" stroke:none;fill-rule:nonzero;fill:rgb(100%,100%,100%);fill-opacity:1;" d="M 30.828125 61.570312 C 30.828125 60.503906 31.199219 59.609375 31.9375 58.882812 C 32.671875 58.144531 33.574219 57.777344 34.640625 57.777344 C 35.683594 57.777344 36.566406 58.144531 37.289062 58.882812 C 38.027344 59.609375 38.394531 60.503906 38.394531 61.570312 C 38.394531 62.613281 38.027344 63.503906 37.289062 64.242188 C 36.566406 64.964844 35.683594 65.328125 34.640625 65.328125 C 33.574219 65.328125 32.671875 64.964844 31.9375 64.242188 C 31.199219 63.515625 30.828125 62.625 30.828125 61.570312 M 30.609375 44.429688 L 30.609375 50.746094 C 38.679688 50.746094 45.234375 57.308594 45.234375 65.390625 L 51.574219 65.390625 C 51.574219 53.8125 42.167969 44.429688 30.609375 44.429688 Z M 30.621094 30.609375 L 30.621094 37.589844 C 45.941406 37.589844 58.382812 50.042969 58.382812 65.378906 L 65.390625 65.378906 C 65.390625 46.183594 49.800781 30.609375 30.621094 30.609375 Z M 30.621094 30.609375 "/>
</g>
</svg>
