
<svg xmlns="http://www.w3.org/2000/svg" xmlns:xlink="http://www.w3.org/1999/xlink" width="96px" height="96px" viewBox="0 0 96 96" version="1.1">
<g id="surface1">
<path style=" stroke:none;fill-rule:nonzero;fill:rgb(97.647059%,87.058824%,41.176471%);fill-opacity:1;" d="M 25.734375 5.183594 C 19.25 5.183594 14.03125 10.402344 14.03125 16.886719 L 14.03125 79.113281 C 14.03125 85.597656 19.25 90.816406 25.734375 90.816406 L 70.265625 90.816406 C 76.75 90.816406 81.96875 85.597656 81.96875 79.113281 L 81.96875 19.0625 L 49.679688 5.183594 Z M 71.464844 5.242188 C 72.253906 5.320312 73.019531 5.480469 73.753906 5.707031 C 73.019531 5.480469 72.253906 5.320312 71.464844 5.242188 Z M 73.753906 5.707031 C 74.855469 6.046875 75.882812 6.546875 76.816406 7.175781 C 75.882812 6.546875 74.855469 6.046875 73.753906 5.707031 Z M 77.71875 7.847656 C 78.007812 8.085938 78.28125 8.339844 78.546875 8.605469 C 78.28125 8.339844 78.007812 8.085938 77.71875 7.847656 Z M 77.71875 7.847656 "/>
<path style=" stroke:none;fill-rule:nonzero;fill:rgb(100%,100%,100%);fill-opacity:0.682353;" d="M 81.96875 19.0625 L 49.679688 5.183594 L 49.679688 7.359375 C 49.679688 13.84375 54.898438 19.0625 61.382812 19.0625 Z M 81.96875 19.0625 "/>
<path style=" stroke:none;fill-rule:nonzero;fill:rgb(78.431373%,44.313725%,21.568627%);fill-opacity:1;" d="M 38.90625 44.375 C 37.710938 45.101562 37.089844 46.417969 37.179688 47.695312 C 35.917969 47.609375 34.585938 48.257812 33.871094 49.472656 C 33.164062 50.675781 33.230469 52.125 33.925781 53.144531 C 32.765625 53.714844 31.914062 54.945312 31.871094 56.308594 C 31.828125 57.683594 32.628906 58.84375 33.773438 59.332031 C 32.992188 60.402344 32.8125 61.828125 33.453125 62.992188 C 34.089844 64.160156 35.351562 64.707031 36.617188 64.53125 C 36.449219 65.820312 37.003906 67.132812 38.152344 67.78125 C 39.296875 68.421875 40.730469 68.261719 41.78125 67.484375 C 42.269531 68.628906 43.429688 69.417969 44.769531 69.371094 C 45.371094 69.351562 45.9375 69.144531 46.433594 68.835938 L 53.136719 81.074219 L 55.179688 74.09375 L 61.9375 75.71875 L 55.234375 63.480469 C 55.738281 63.179688 56.1875 62.769531 56.507812 62.230469 C 57.214844 61.027344 57.148438 59.578125 56.453125 58.558594 C 57.613281 57.984375 58.464844 56.757812 58.507812 55.394531 C 58.550781 54.019531 57.75 52.855469 56.605469 52.367188 C 57.382812 51.296875 57.5625 49.875 56.925781 48.707031 C 56.285156 47.539062 55.027344 46.992188 53.757812 47.167969 C 53.929688 45.878906 53.375 44.566406 52.222656 43.917969 C 51.082031 43.273438 49.648438 43.4375 48.59375 44.210938 C 48.105469 43.066406 46.949219 42.28125 45.605469 42.328125 C 44.253906 42.371094 43.054688 43.265625 42.496094 44.460938 C 41.488281 43.738281 40.097656 43.648438 38.902344 44.375 Z M 41.238281 48.632812 C 45.289062 46.167969 50.332031 47.378906 52.5 51.339844 C 54.667969 55.300781 53.144531 60.511719 49.09375 62.976562 C 45.042969 65.441406 40 64.230469 37.832031 60.269531 C 35.660156 56.308594 37.1875 51.097656 41.238281 48.632812 Z M 42.023438 50.066406 C 38.78125 52.039062 37.5625 56.207031 39.296875 59.375 C 41.03125 62.542969 45.066406 63.515625 48.308594 61.542969 C 51.546875 59.570312 52.769531 55.402344 51.035156 52.234375 C 49.296875 49.066406 45.265625 48.09375 42.023438 50.066406 Z M 42.023438 50.066406 "/>
</g>
</svg>
