
<svg xmlns="http://www.w3.org/2000/svg" xmlns:xlink="http://www.w3.org/1999/xlink" width="96px" height="96px" viewBox="0 0 96 96" version="1.1">
<g id="surface1">
<path style=" stroke:none;fill-rule:nonzero;fill:rgb(92.54902%,91.372549%,84.705882%);fill-opacity:1;" d="M 25.734375 5.183594 C 19.25 5.183594 14.03125 10.402344 14.03125 16.886719 L 14.03125 79.113281 C 14.03125 85.597656 19.25 90.816406 25.734375 90.816406 L 70.265625 90.816406 C 76.75 90.816406 81.96875 85.597656 81.96875 79.113281 L 81.96875 19.0625 L 49.679688 5.183594 Z M 71.464844 5.242188 C 72.253906 5.320312 73.019531 5.480469 73.753906 5.707031 C 73.019531 5.480469 72.253906 5.320312 71.464844 5.242188 Z M 73.753906 5.707031 C 74.855469 6.046875 75.882812 6.546875 76.816406 7.175781 C 75.882812 6.546875 74.855469 6.046875 73.753906 5.707031 Z M 77.71875 7.847656 C 78.007812 8.085938 78.28125 8.339844 78.546875 8.605469 C 78.28125 8.339844 78.007812 8.085938 77.71875 7.847656 Z M 77.71875 7.847656 "/>
<path style=" stroke:none;fill-rule:nonzero;fill:rgb(100%,100%,100%);fill-opacity:0.682353;" d="M 81.96875 19.0625 L 49.679688 5.183594 L 49.679688 7.359375 C 49.679688 13.84375 54.898438 19.0625 61.382812 19.0625 Z M 81.96875 19.0625 "/>
<path style=" stroke:none;fill-rule:nonzero;fill:rgb(3.529412%,3.137255%,3.137255%);fill-opacity:0.352941;" d="M 48 34.085938 C 38.394531 34.085938 30.609375 41.871094 30.609375 51.476562 C 30.609375 61.082031 38.394531 68.871094 48 68.871094 C 57.605469 68.871094 65.390625 61.082031 65.390625 51.476562 C 65.390625 41.871094 57.605469 34.085938 48 34.085938 Z M 48 37.566406 C 55.683594 37.566406 61.914062 43.792969 61.914062 51.476562 C 61.914062 59.160156 55.683594 65.390625 48 65.390625 C 40.316406 65.390625 34.085938 59.160156 34.085938 51.476562 C 34.085938 43.792969 40.316406 37.566406 48 37.566406 Z M 48.277344 41.042969 C 46.101562 41.042969 44.203125 41.472656 42.578125 42.324219 C 40.964844 43.167969 39.726562 44.378906 38.863281 45.972656 C 38 47.554688 37.566406 49.40625 37.566406 51.515625 C 37.566406 54.867188 38.449219 57.4375 40.207031 59.234375 C 41.964844 61.019531 44.503906 61.914062 47.824219 61.914062 C 50.132812 61.914062 52.226562 61.570312 54.101562 60.875 L 54.101562 57.261719 C 51.824219 57.972656 49.878906 58.332031 48.277344 58.332031 C 44.457031 58.332031 42.546875 56.070312 42.546875 51.542969 C 42.546875 49.367188 43.046875 47.671875 44.046875 46.460938 C 45.046875 45.238281 46.457031 44.628906 48.277344 44.628906 C 49.109375 44.628906 49.957031 44.761719 50.820312 45.03125 C 51.683594 45.300781 52.546875 45.613281 53.398438 45.972656 L 54.960938 42.476562 C 52.722656 41.523438 50.496094 41.042969 48.277344 41.042969 Z M 48.277344 41.042969 "/>
</g>
</svg>
