
<svg xmlns="http://www.w3.org/2000/svg" xmlns:xlink="http://www.w3.org/1999/xlink" width="128px" height="128px" viewBox="0 0 128 128" version="1.1">
<g id="surface1">
<path style="fill-rule:nonzero;fill:rgb(100%,100%,100%);fill-opacity:1;stroke-width:28.191782;stroke-linecap:butt;stroke-linejoin:miter;stroke:rgb(66.666667%,83.137255%,0%);stroke-opacity:1;stroke-miterlimit:4;" d="M 81.484375 25.09375 L 430.515625 25.09375 C 461.65625 25.09375 486.90625 50.34375 486.90625 81.484375 L 486.90625 430.515625 C 486.90625 461.65625 461.65625 486.90625 430.515625 486.90625 L 81.484375 486.90625 C 50.34375 486.90625 25.09375 461.65625 25.09375 430.515625 L 25.09375 81.484375 C 25.09375 50.34375 50.34375 25.09375 81.484375 25.09375 Z M 81.484375 25.09375 " transform="matrix(0.25,0,0,0.25,0,0)"/>
<path style=" stroke:none;fill-rule:nonzero;fill:rgb(66.666667%,83.137255%,0%);fill-opacity:1;" d="M 92.796875 96.804688 C 92.796875 99.992188 90.203125 102.585938 87.015625 102.585938 L 42.1875 102.585938 C 38.996094 102.585938 36.40625 99.992188 36.40625 96.804688 C 36.40625 96.496094 36.460938 96.1875 36.574219 95.898438 L 52.101562 55.207031 C 52.105469 55.140625 52.117188 55.078125 52.125 55.015625 L 52.125 31.695312 L 50.289062 31.695312 C 48.882812 31.695312 47.75 30.558594 47.75 29.15625 C 47.75 27.75 48.882812 26.613281 50.289062 26.613281 L 54.664062 26.613281 C 56.070312 26.613281 57.207031 27.75 57.207031 29.15625 L 57.207031 55.207031 C 57.207031 55.355469 57.195312 55.5 57.171875 55.644531 C 57.171875 55.953125 57.09375 56.371094 56.984375 56.660156 L 47.632812 81.171875 L 81.351562 81.171875 L 71.691406 56.6875 C 71.585938 56.425781 71.527344 56.148438 71.515625 55.863281 L 71.496094 55.710938 C 71.484375 55.609375 71.476562 55.511719 71.476562 55.410156 L 71.476562 29.15625 C 71.476562 27.753906 72.617188 26.617188 74.019531 26.617188 L 78.507812 26.617188 C 79.914062 26.617188 81.050781 27.753906 81.050781 29.15625 C 81.050781 30.5625 79.914062 31.699219 78.507812 31.699219 L 76.558594 31.699219 L 76.558594 55.183594 L 92.617188 95.875 C 92.734375 96.171875 92.796875 96.484375 92.796875 96.804688 M 59.679688 75.511719 C 59.679688 74.460938 60.53125 73.601562 61.585938 73.601562 C 62.636719 73.601562 63.492188 74.457031 63.492188 75.511719 C 63.492188 76.5625 62.636719 77.417969 61.585938 77.417969 C 60.53125 77.417969 59.679688 76.5625 59.679688 75.511719 M 60.949219 75.511719 C 60.949219 75.859375 61.234375 76.144531 61.585938 76.144531 C 61.933594 76.144531 62.21875 75.859375 62.21875 75.511719 C 62.21875 75.160156 61.933594 74.875 61.585938 74.875 C 61.234375 74.875 60.949219 75.160156 60.949219 75.511719 M 69.527344 73.601562 C 69.527344 72.550781 70.382812 71.695312 71.433594 71.695312 C 72.484375 71.695312 73.339844 72.550781 73.339844 73.601562 C 73.339844 74.652344 72.484375 75.511719 71.433594 75.511719 C 70.382812 75.511719 69.527344 74.65625 69.527344 73.601562 M 70.796875 73.601562 C 70.796875 73.953125 71.082031 74.238281 71.433594 74.238281 C 71.78125 74.238281 72.070312 73.953125 72.070312 73.601562 C 72.070312 73.25 71.78125 72.96875 71.433594 72.96875 C 71.082031 72.96875 70.796875 73.253906 70.796875 73.601562 M 64.230469 67.25 C 64.230469 65.789062 65.417969 64.601562 66.878906 64.601562 C 68.335938 64.601562 69.527344 65.789062 69.527344 67.25 C 69.527344 68.710938 68.335938 69.898438 66.878906 69.898438 C 65.417969 69.898438 64.230469 68.710938 64.230469 67.25 M 65.5 67.25 C 65.5 68.007812 66.117188 68.625 66.878906 68.625 C 67.636719 68.625 68.257812 68.007812 68.257812 67.25 C 68.257812 66.488281 67.636719 65.871094 66.878906 65.871094 C 66.117188 65.871094 65.5 66.488281 65.5 67.25 "/>
</g>
</svg>
