
<svg xmlns="http://www.w3.org/2000/svg" xmlns:xlink="http://www.w3.org/1999/xlink" width="128px" height="128px" viewBox="0 0 128 128" version="1.1">
<g id="surface1">
<path style="fill-rule:nonzero;fill:rgb(100%,0%,0%);fill-opacity:1;stroke-width:28.191782;stroke-linecap:butt;stroke-linejoin:miter;stroke:rgb(83.137255%,16.470588%,3.921569%);stroke-opacity:1;stroke-miterlimit:4;" d="M 81.484375 565.45593 L 430.515625 565.45593 C 461.65625 565.45593 486.90625 590.70593 486.90625 621.846555 L 486.90625 970.877805 C 486.90625 1002.01843 461.65625 1027.26843 430.515625 1027.26843 L 81.484375 1027.26843 C 50.34375 1027.26843 25.09375 1002.01843 25.09375 970.877805 L 25.09375 621.846555 C 25.09375 590.70593 50.34375 565.45593 81.484375 565.45593 Z M 81.484375 565.45593 " transform="matrix(0.25,0,0,0.25,0,-135.090545)"/>
<path style=" stroke:none;fill-rule:nonzero;fill:rgb(97.254902%,97.254902%,97.254902%);fill-opacity:0.85098;" d="M 21.3125 107.851562 C 21.578125 108.03125 21.828125 108.226562 22.097656 108.394531 C 22.679688 108.757812 23.273438 109.097656 23.882812 109.40625 C 24.492188 109.71875 25.117188 110.003906 25.753906 110.257812 C 26.390625 110.511719 27.035156 110.730469 27.691406 110.921875 C 28.347656 111.117188 29.007812 111.28125 29.675781 111.410156 C 30.347656 111.539062 31.03125 111.632812 31.710938 111.695312 C 32.390625 111.753906 33.074219 111.777344 33.761719 111.765625 C 34.449219 111.753906 35.132812 111.707031 35.820312 111.621094 C 41.257812 111.582031 46.703125 111.585938 52.144531 111.601562 C 57.585938 111.625 63.019531 111.660156 68.457031 111.675781 C 73.898438 111.695312 79.34375 111.695312 84.78125 111.652344 C 90.21875 111.609375 95.660156 111.511719 101.097656 111.34375 C 101.773438 111.238281 102.4375 111.09375 103.089844 110.914062 C 103.742188 110.738281 104.382812 110.527344 105.011719 110.28125 C 105.640625 110.039062 106.25 109.769531 106.851562 109.464844 C 107.449219 109.160156 108.042969 108.828125 108.609375 108.46875 C 108.882812 108.296875 109.132812 108.09375 109.394531 107.90625 C 108.910156 86.992188 89.398438 70.15625 65.355469 70.15625 C 41.328125 70.15625 21.832031 86.960938 21.3125 107.851562 Z M 21.3125 107.851562 "/>
<path style=" stroke:none;fill-rule:nonzero;fill:rgb(89.803922%,79.215686%,67.843137%);fill-opacity:0.85098;" d="M 65.355469 70.632812 C 41.183594 70.632812 21.304688 87.980469 18.914062 110.214844 C 18.914062 110.214844 18.914062 110.222656 18.914062 110.222656 C 22.765625 113.03125 27.519531 114.6875 32.675781 114.6875 L 98.03125 114.6875 C 103.1875 114.6875 107.941406 113.03125 111.796875 110.222656 C 111.792969 110.21875 111.796875 110.21875 111.796875 110.214844 C 109.40625 87.980469 89.523438 70.632812 65.355469 70.632812 Z M 65.355469 70.632812 "/>
<path style=" stroke:none;fill-rule:nonzero;fill:rgb(0%,0%,0%);fill-opacity:1;" d="M 60.148438 53.390625 C 60.148438 50.746094 58.007812 48.605469 55.367188 48.605469 C 52.726562 48.605469 50.585938 50.746094 50.585938 53.390625 C 50.585938 56.03125 52.726562 58.171875 55.367188 58.171875 C 58.007812 58.171875 60.148438 56.03125 60.148438 53.390625 Z M 60.148438 53.390625 "/>
<path style=" stroke:none;fill-rule:nonzero;fill:rgb(0%,0%,0%);fill-opacity:1;" d="M 78.085938 53.457031 C 78.085938 50.945312 76.046875 48.90625 73.53125 48.90625 C 71.015625 48.90625 68.976562 50.945312 68.976562 53.457031 C 68.976562 55.972656 71.015625 58.011719 73.53125 58.011719 C 76.046875 58.011719 78.085938 55.972656 78.085938 53.457031 Z M 78.085938 53.457031 "/>
<path style=" stroke:none;fill-rule:nonzero;fill:rgb(0%,0%,0%);fill-opacity:1;" d="M 34.09375 43.976562 C 31.738281 43.257812 29.796875 42.65625 29.777344 42.640625 C 29.710938 42.578125 29.671875 41.289062 29.707031 40.5 C 29.828125 37.984375 30.5625 34.710938 31.554688 32.28125 C 31.769531 31.753906 32.367188 30.523438 32.421875 30.488281 C 32.460938 30.464844 34.273438 30.976562 34.894531 31.1875 C 35.332031 31.335938 39.316406 33 49.691406 37.363281 C 53.394531 38.921875 58.015625 40.867188 59.964844 41.6875 C 62.117188 42.589844 63.863281 43.296875 64.410156 43.484375 L 65.3125 43.789062 L 67.460938 42.90625 C 69.816406 41.941406 72.859375 40.675781 77.972656 38.535156 C 86.34375 35.03125 91.742188 32.859375 96.515625 31.070312 C 97.382812 30.742188 98.128906 30.460938 98.167969 30.445312 C 98.226562 30.421875 98.285156 30.535156 98.472656 31.035156 C 99.609375 34.019531 100.414062 37.207031 100.789062 40.207031 C 100.867188 40.851562 101.015625 42.292969 101.015625 42.445312 C 101.015625 42.566406 99.503906 43.195312 98.183594 43.632812 L 65.25 52.414062 Z M 34.09375 43.976562 "/>
<path style=" stroke:none;fill-rule:nonzero;fill:rgb(96.078431%,73.333333%,9.803922%);fill-opacity:1;" d="M 65.957031 94.925781 C 69.578125 93.0625 72.523438 90.964844 74.988281 88.5 C 76.691406 86.796875 77.992188 85.140625 79.199219 83.132812 C 79.558594 82.53125 80.246094 81.238281 80.246094 81.160156 C 80.246094 81.136719 80.078125 81.089844 79.875 81.0625 L 79.507812 81.007812 L 74.671875 81.988281 C 66.25 83.695312 65.835938 83.769531 65.023438 83.714844 C 64.546875 83.683594 63.195312 83.351562 58.09375 82.019531 C 52.304688 80.507812 52.515625 80.558594 50.539062 80.277344 C 49.207031 80.085938 49.199219 80.125 49.101562 80.007812 C 48.996094 79.886719 48.9375 80.023438 48.980469 80.140625 C 49.179688 80.464844 49.25 80.460938 49.3125 80.699219 C 49.507812 81.453125 49.578125 81.621094 50.007812 82.359375 C 52.953125 87.453125 57.558594 91.574219 64.066406 94.933594 C 64.570312 95.195312 64.988281 95.40625 65 95.40625 C 65.007812 95.40625 65.4375 95.191406 65.957031 94.921875 Z M 65.957031 94.925781 "/>
<path style=" stroke:none;fill-rule:nonzero;fill:rgb(96.078431%,73.333333%,9.803922%);fill-opacity:1;" d="M 67.960938 81.835938 C 68.273438 81.796875 68.867188 81.691406 69.273438 81.609375 C 70.648438 81.320312 71.347656 81.195312 73.023438 80.945312 C 73.945312 80.808594 75.046875 80.625 75.476562 80.539062 C 77.90625 80.058594 82.515625 78.761719 83.429688 78.304688 C 83.820312 78.109375 84.171875 77.777344 84.304688 77.476562 C 84.464844 77.125 84.449219 76.484375 84.265625 75.789062 C 83.851562 74.242188 83.164062 72.785156 82.054688 71.101562 C 80.375 68.550781 78.046875 66.070312 75.242188 63.835938 C 72.117188 61.347656 69.488281 59.90625 66.582031 59.089844 C 65.128906 58.679688 64.101562 58.734375 62.832031 59.285156 C 60.613281 60.25 57.851562 61.882812 55.597656 63.5625 C 52.375 65.964844 49.703125 68.492188 48.019531 70.738281 C 46.75 72.429688 46.0625 73.726562 45.878906 74.773438 C 45.8125 75.140625 45.820312 76.042969 45.890625 76.421875 L 45.949219 76.710938 L 46.859375 77.1875 C 49.101562 78.359375 52.082031 79.3125 56.734375 80.339844 C 64.289062 82.007812 63.964844 81.953125 66.140625 81.925781 C 66.976562 81.917969 67.574219 81.890625 67.960938 81.835938 Z M 67.960938 81.835938 "/>
<path style=" stroke:none;fill-rule:nonzero;fill:rgb(97.254902%,97.254902%,97.254902%);fill-opacity:1;" d="M 82.015625 65.71875 C 83.949219 65.066406 84.4375 64.875 85.304688 64.453125 C 87.257812 63.496094 88.734375 62.09375 89.863281 60.117188 C 90.53125 58.953125 91 57.578125 91.195312 56.234375 C 91.289062 55.550781 91.289062 54.269531 91.1875 53.6875 C 90.898438 50.96875 90.710938 48.257812 88.632812 46.277344 C 88.546875 46.195312 88.390625 46.234375 82.042969 47.871094 C 78.46875 48.792969 75.515625 49.554688 75.480469 49.570312 C 75.4375 49.585938 75.488281 49.664062 75.640625 49.824219 C 76.429688 50.664062 77.117188 51.757812 77.417969 52.664062 C 77.535156 53.015625 77.546875 53.09375 77.546875 53.734375 C 77.546875 54.40625 77.542969 54.4375 77.402344 54.796875 C 76.898438 56.125 75.785156 57.03125 74.386719 57.257812 C 73.914062 57.335938 73.132812 57.289062 72.734375 57.164062 C 71.859375 56.890625 71.003906 56.246094 70.53125 55.511719 C 70.335938 55.210938 70.128906 54.625 70.128906 54.378906 C 70.128906 54.230469 70.132812 54.226562 70.296875 54.222656 C 70.632812 54.21875 71.027344 53.9375 71.171875 53.589844 C 71.394531 53.058594 71.035156 52.335938 70.5 52.238281 C 70.375 52.214844 70.355469 52.195312 70.375 52.113281 C 70.429688 51.886719 70.648438 50.769531 70.640625 50.757812 C 70.628906 50.742188 66.429688 51.847656 66.398438 51.875 C 66.382812 51.890625 66.371094 52.652344 66.367188 53.566406 C 66.363281 55.007812 66.371094 55.28125 66.441406 55.628906 C 66.550781 56.164062 66.632812 56.445312 66.816406 56.90625 L 66.96875 57.292969 L 67.554688 57.480469 C 70.355469 58.367188 72.996094 59.882812 76.628906 62.683594 C 77.917969 63.675781 78.003906 63.753906 79.199219 65.03125 C 79.832031 65.707031 80.367188 66.257812 80.386719 66.257812 C 80.40625 66.257812 81.140625 66.015625 82.015625 65.71875 Z M 82.015625 65.71875 "/>
<path style=" stroke:none;fill-rule:nonzero;fill:rgb(97.254902%,97.254902%,97.254902%);fill-opacity:1;" d="M 52.152344 63.914062 C 53.136719 63 53.4375 62.746094 54.21875 62.195312 C 57.210938 60.078125 58.925781 59.011719 60.746094 58.144531 C 61.410156 57.828125 62.59375 57.347656 63.203125 57.148438 L 63.5625 57.03125 L 63.722656 56.507812 C 64.074219 55.367188 64.199219 54.710938 64.230469 53.84375 C 64.265625 52.859375 64.113281 51.855469 63.914062 51.769531 C 63.769531 51.710938 59.027344 50.601562 59.007812 50.621094 C 58.996094 50.632812 59.117188 50.945312 59.273438 51.3125 C 59.433594 51.679688 59.617188 52.179688 59.683594 52.421875 C 59.789062 52.8125 59.800781 52.949219 59.800781 53.578125 C 59.800781 54.203125 59.789062 54.34375 59.6875 54.726562 C 59.253906 56.339844 58.105469 57.488281 56.492188 57.910156 C 55.90625 58.066406 55.089844 58.074219 54.507812 57.929688 C 54.023438 57.8125 53.3125 57.476562 52.941406 57.199219 C 52.59375 56.929688 52.050781 56.367188 51.8125 56.007812 C 51.414062 55.425781 51.121094 54.644531 51.066406 54.023438 L 51.039062 53.710938 L 51.234375 53.660156 C 51.703125 53.535156 51.988281 53.164062 51.984375 52.683594 C 51.984375 52.347656 51.875 52.105469 51.636719 51.898438 L 51.453125 51.742188 L 51.671875 51.375 C 51.996094 50.835938 52.335938 50.445312 53.035156 49.796875 C 53.378906 49.480469 53.664062 49.210938 53.671875 49.195312 C 53.679688 49.167969 40.445312 45.664062 40.347656 45.667969 C 40.28125 45.667969 39.585938 46.78125 39.28125 47.382812 C 38.785156 48.367188 38.5 49.328125 38.414062 50.324219 C 38.398438 50.519531 38.335938 50.875 38.28125 51.117188 C 38.054688 52.050781 38.015625 52.445312 38.015625 53.601562 C 38.015625 54.828125 38.082031 55.351562 38.371094 56.351562 C 38.988281 58.496094 40.539062 60.890625 42.222656 62.300781 C 44.132812 63.898438 46.589844 64.734375 50.003906 64.960938 C 51.066406 65.03125 50.824219 65.148438 52.152344 63.914062 Z M 52.152344 63.914062 "/>
</g>
</svg>
