
<svg xmlns="http://www.w3.org/2000/svg" xmlns:xlink="http://www.w3.org/1999/xlink" width="128px" height="128px" viewBox="0 0 128 128" version="1.1">
<g id="surface1">
<path style="fill-rule:nonzero;fill:rgb(100%,100%,100%);fill-opacity:1;stroke-width:28.191782;stroke-linecap:butt;stroke-linejoin:miter;stroke:rgb(72.941176%,9.019608%,30.588235%);stroke-opacity:1;stroke-miterlimit:4;" d="M 81.484375 565.45593 L 430.515625 565.45593 C 461.65625 565.45593 486.90625 590.70593 486.90625 621.846555 L 486.90625 970.877805 C 486.90625 1002.01843 461.65625 1027.26843 430.515625 1027.26843 L 81.484375 1027.26843 C 50.34375 1027.26843 25.09375 1002.01843 25.09375 970.877805 L 25.09375 621.846555 C 25.09375 590.70593 50.34375 565.45593 81.484375 565.45593 Z M 81.484375 565.45593 " transform="matrix(0.25,0,0,0.25,0,-135.090545)"/>
<path style=" stroke:none;fill-rule:evenodd;fill:rgb(72.941176%,9.019608%,30.588235%);fill-opacity:1;" d="M 56.03125 121.773438 L 65.128906 93.039062 L 62.734375 69.097656 L 49.324219 68.140625 L 43.578125 76.757812 L 33.523438 77.71875 L 27.296875 69.578125 L 28.734375 59.039062 L 51.242188 40.363281 L 47.890625 30.785156 L 58.421875 34.136719 L 52.679688 19.773438 L 74.707031 32.222656 L 94.820312 57.125 L 110.144531 95.4375 L 120.679688 111.238281 L 114.453125 120.816406 L 96.734375 122.734375 Z M 56.03125 121.773438 "/>
</g>
</svg>
