<!-- color: #ef772a -->
<svg xmlns="http://www.w3.org/2000/svg" xmlns:xlink="http://www.w3.org/1999/xlink" width="128px" height="128px" viewBox="0 0 128 128" version="1.1">
<defs>
<clipPath id="clip1">
  <path d="M 41.75 41.5 L 66.25 41.5 L 66.25 68 L 41.75 68 Z M 41.75 41.5 "/>
</clipPath>
<clipPath id="clip2">
  <path d="M 125.066406 65.492188 C 125.066406 98.875 98 125.917969 64.644531 125.917969 C 31.289062 125.917969 4.21875 98.875 4.21875 65.492188 C 4.21875 32.109375 31.289062 5.070312 64.644531 5.070312 C 98 5.070312 125.066406 32.109375 125.066406 65.492188 Z M 125.066406 65.492188 "/>
</clipPath>
<clipPath id="clip3">
  <path d="M 80.5 81.5 L 99 81.5 L 99 99.75 L 80.5 99.75 Z M 80.5 81.5 "/>
</clipPath>
<clipPath id="clip4">
  <path d="M 125.066406 65.492188 C 125.066406 98.875 98 125.917969 64.644531 125.917969 C 31.289062 125.917969 4.21875 98.875 4.21875 65.492188 C 4.21875 32.109375 31.289062 5.070312 64.644531 5.070312 C 98 5.070312 125.066406 32.109375 125.066406 65.492188 Z M 125.066406 65.492188 "/>
</clipPath>
<clipPath id="clip5">
  <path d="M 68.75 69.5 L 85.25 69.5 L 85.25 86.25 L 68.75 86.25 Z M 68.75 69.5 "/>
</clipPath>
<clipPath id="clip6">
  <path d="M 125.066406 65.492188 C 125.066406 98.875 98 125.917969 64.644531 125.917969 C 31.289062 125.917969 4.21875 98.875 4.21875 65.492188 C 4.21875 32.109375 31.289062 5.070312 64.644531 5.070312 C 98 5.070312 125.066406 32.109375 125.066406 65.492188 Z M 125.066406 65.492188 "/>
</clipPath>
<clipPath id="clip7">
  <path d="M 30.5 31 L 77.5 31 L 77.5 78.5 L 30.5 78.5 Z M 30.5 31 "/>
</clipPath>
<clipPath id="clip8">
  <path d="M 125.066406 65.492188 C 125.066406 98.875 98 125.917969 64.644531 125.917969 C 31.289062 125.917969 4.21875 98.875 4.21875 65.492188 C 4.21875 32.109375 31.289062 5.070312 64.644531 5.070312 C 98 5.070312 125.066406 32.109375 125.066406 65.492188 Z M 125.066406 65.492188 "/>
</clipPath>
</defs>
<g id="surface1">
<path style="fill-rule:nonzero;fill:rgb(93.333333%,43.921569%,11.372549%);fill-opacity:1;stroke-width:6.941165;stroke-linecap:butt;stroke-linejoin:miter;stroke:rgb(88.627451%,82.352941%,80.392157%);stroke-opacity:1;stroke-miterlimit:4;" d="M 21.03125 7.148438 L 106.96875 7.148438 C 114.636719 7.148438 120.851562 13.363281 120.851562 21.03125 L 120.851562 106.96875 C 120.851562 114.636719 114.636719 120.851562 106.96875 120.851562 L 21.03125 120.851562 C 13.363281 120.851562 7.148438 114.636719 7.148438 106.96875 L 7.148438 21.03125 C 7.148438 13.363281 13.363281 7.148438 21.03125 7.148438 Z M 21.03125 7.148438 "/>
<g clip-path="url(#clip1)" clip-rule="nonzero">
<g clip-path="url(#clip2)" clip-rule="nonzero">
<path style=" stroke:none;fill-rule:nonzero;fill:rgb(97.647059%,97.647059%,97.647059%);fill-opacity:1;" d="M 51.980469 41.714844 L 56.003906 41.714844 L 66.019531 67.984375 L 62.328125 67.984375 L 59.945312 61.253906 L 48.125 61.253906 L 45.652344 67.984375 L 41.960938 67.984375 M 53.953125 45.246094 L 49.191406 58.300781 L 58.796875 58.300781 M 53.953125 45.246094 "/>
</g>
</g>
<g clip-path="url(#clip3)" clip-rule="nonzero">
<g clip-path="url(#clip4)" clip-rule="nonzero">
<path style=" stroke:none;fill-rule:nonzero;fill:rgb(97.647059%,97.647059%,97.647059%);fill-opacity:1;" d="M 80.722656 87.21875 L 86.359375 81.585938 L 98.804688 94.023438 L 93.167969 99.65625 M 80.722656 87.21875 "/>
</g>
</g>
<g clip-path="url(#clip5)" clip-rule="nonzero">
<g clip-path="url(#clip6)" clip-rule="nonzero">
<path style=" stroke:none;fill-rule:nonzero;fill:rgb(97.647059%,97.647059%,97.647059%);fill-opacity:1;" d="M 68.78125 73.585938 L 72.730469 69.632812 L 85.167969 82.070312 L 81.214844 86.023438 M 68.78125 73.585938 "/>
</g>
</g>
<g clip-path="url(#clip7)" clip-rule="nonzero">
<g clip-path="url(#clip8)" clip-rule="nonzero">
<path style=" stroke:none;fill-rule:nonzero;fill:rgb(97.647059%,97.647059%,97.647059%);fill-opacity:1;" d="M 53.953125 31.25 C 47.929688 31.25 41.957031 33.648438 37.375 38.226562 C 28.214844 47.378906 28.214844 62.21875 37.375 71.394531 C 46.53125 80.546875 61.371094 80.546875 70.546875 71.394531 C 79.695312 62.230469 79.695312 47.390625 70.546875 38.226562 C 65.96875 33.648438 59.984375 31.25 53.960938 31.25 M 53.949219 35.324219 C 58.96875 35.324219 64.070312 37.007812 67.914062 40.851562 C 75.601562 48.539062 75.601562 61.089844 67.914062 68.777344 C 60.226562 76.464844 47.679688 76.464844 39.992188 68.777344 C 32.292969 61.089844 32.292969 48.539062 39.992188 40.851562 C 43.828125 37.003906 48.929688 35.324219 53.945312 35.324219 M 53.945312 35.324219 "/>
</g>
</g>
</g>
</svg>
