
<svg xmlns="http://www.w3.org/2000/svg" xmlns:xlink="http://www.w3.org/1999/xlink" width="128px" height="128px" viewBox="0 0 128 128" version="1.1">
<g id="surface1">
<path style="fill-rule:nonzero;fill:rgb(29.411765%,42.352941%,69.019608%);fill-opacity:1;stroke-width:6.98308;stroke-linecap:butt;stroke-linejoin:miter;stroke:rgb(6.27451%,34.509804%,63.137255%);stroke-opacity:1;stroke-miterlimit:4;" d="M 21.460938 6 L 107.917969 6 C 115.632812 6 121.886719 12.25 121.886719 19.964844 L 121.886719 106.421875 C 121.886719 114.136719 115.632812 120.386719 107.917969 120.386719 L 21.460938 120.386719 C 13.75 120.386719 7.496094 114.136719 7.496094 106.421875 L 7.496094 19.964844 C 7.496094 12.25 13.75 6 21.460938 6 Z M 21.460938 6 "/>
<path style=" stroke:none;fill-rule:nonzero;fill:rgb(0%,0%,0%);fill-opacity:0.290196;" d="M 64.691406 24.453125 C 43.304688 24.453125 25.96875 41.808594 25.953125 63.191406 L 25.953125 93.171875 C 25.964844 98.03125 29.90625 101.929688 34.765625 101.929688 L 64.691406 101.929688 C 86.078125 101.921875 103.429688 84.585938 103.429688 63.191406 C 103.429688 41.796875 86.085938 24.453125 64.691406 24.453125 Z M 76.050781 33.65625 C 86.039062 33.65625 94.226562 41.789062 94.226562 51.777344 C 94.226562 61.761719 86.039062 69.953125 76.050781 69.953125 L 66.464844 69.953125 L 66.464844 79.597656 C 66.464844 89.582031 58.273438 97.773438 48.289062 97.773438 C 38.300781 97.773438 30.109375 89.582031 30.109375 79.597656 C 30.109375 69.609375 38.300781 61.417969 48.289062 61.417969 L 57.875 61.417969 L 57.875 51.777344 C 57.875 41.789062 66.066406 33.65625 76.050781 33.65625 Z M 76.050781 42.132812 C 70.664062 42.132812 66.40625 46.390625 66.40625 51.777344 L 66.40625 61.476562 L 76.050781 61.476562 C 81.4375 61.476562 85.75 57.164062 85.75 51.777344 C 85.75 46.390625 81.4375 42.132812 76.050781 42.132812 Z M 48.289062 69.953125 C 42.898438 69.953125 38.589844 74.210938 38.589844 79.597656 C 38.589844 84.984375 42.898438 89.296875 48.289062 89.296875 C 53.671875 89.296875 57.984375 84.984375 57.984375 79.597656 L 57.984375 69.953125 Z M 48.289062 69.953125 "/>
<path style=" stroke:none;fill-rule:nonzero;fill:rgb(97.647059%,97.647059%,97.647059%);fill-opacity:1;" d="M 76.066406 33.636719 C 66.027344 33.636719 57.878906 41.773438 57.878906 51.816406 L 57.878906 61.457031 L 50.265625 61.457031 C 47.890625 61.457031 45.972656 63.324219 45.976562 65.695312 C 45.976562 68.046875 47.875 69.921875 50.222656 69.921875 L 56.523438 69.921875 C 57.273438 69.921875 57.878906 70.53125 57.878906 71.277344 L 57.878906 79.617188 C 57.871094 84.910156 53.578125 89.191406 48.285156 89.191406 C 46.492188 89.191406 46.042969 88.957031 44.820312 88.957031 C 42.25 88.957031 40.527344 90.6875 40.527344 93.058594 C 40.527344 95.019531 42.210938 96.703125 44.265625 97.242188 C 45.675781 97.609375 46.761719 97.777344 48.285156 97.777344 C 58.328125 97.777344 66.464844 89.640625 66.464844 79.597656 L 66.464844 69.960938 L 74.085938 69.960938 C 76.460938 69.960938 78.378906 68.089844 78.375 65.71875 C 78.375 63.367188 76.480469 61.492188 74.132812 61.492188 L 67.820312 61.492188 C 67.070312 61.492188 66.464844 60.894531 66.464844 60.148438 L 66.464844 51.804688 C 66.472656 46.511719 70.773438 42.222656 76.066406 42.222656 C 77.859375 42.222656 78.296875 42.457031 79.523438 42.457031 C 82.09375 42.457031 83.816406 40.726562 83.816406 38.355469 C 83.816406 36.394531 82.132812 34.710938 80.078125 34.171875 C 78.667969 33.804688 77.589844 33.636719 76.066406 33.636719 Z M 76.066406 33.636719 "/>
<path style=" stroke:none;fill-rule:nonzero;fill:rgb(78.431373%,82.745098%,89.411765%);fill-opacity:1;" d="M 96.746094 95.226562 C 96.746094 95.226562 96.746094 93.617188 96.746094 93.617188 L 96.011719 95.304688 C 96.011719 95.304688 95.296875 93.617188 95.296875 93.617188 L 95.296875 95.226562 L 94.882812 95.226562 L 94.882812 92.6875 L 95.316406 92.6875 C 95.316406 92.6875 96.023438 94.3125 96.023438 94.3125 L 96.71875 92.6875 L 97.160156 92.6875 L 97.160156 95.226562 Z M 93.742188 93.113281 L 93.742188 95.226562 L 93.308594 95.226562 L 93.308594 93.113281 L 92.585938 93.113281 L 92.585938 92.6875 L 94.460938 92.6875 L 94.460938 93.113281 "/>
</g>
</svg>
