
<svg xmlns="http://www.w3.org/2000/svg" xmlns:xlink="http://www.w3.org/1999/xlink" width="128px" height="128px" viewBox="0 0 128 128" version="1.1">
<defs>
<clipPath id="clip1">
  <path d="M 46.75 19 L 82.25 19 L 82.25 109.25 L 46.75 109.25 Z M 46.75 19 "/>
</clipPath>
<clipPath id="clip2">
  <path d="M 22.71875 8.546875 L 105.867188 8.546875 C 113.773438 8.546875 120.179688 14.957031 120.179688 22.859375 L 120.179688 104.664062 C 120.179688 112.566406 113.773438 118.972656 105.867188 118.972656 L 22.71875 118.972656 C 14.8125 118.972656 8.40625 112.566406 8.40625 104.664062 L 8.40625 22.859375 C 8.40625 14.957031 14.8125 8.546875 22.71875 8.546875 Z M 22.71875 8.546875 "/>
</clipPath>
</defs>
<g id="surface1">
<path style="fill-rule:nonzero;fill:rgb(100%,27.058824%,0%);fill-opacity:1;stroke-width:28.191782;stroke-linecap:butt;stroke-linejoin:miter;stroke:rgb(35.294118%,9.803922%,0%);stroke-opacity:1;stroke-miterlimit:4;" d="M 81.484375 25.09375 L 430.515625 25.09375 C 461.65625 25.09375 486.90625 50.34375 486.90625 81.484375 L 486.90625 430.515625 C 486.90625 461.65625 461.65625 486.90625 430.515625 486.90625 L 81.484375 486.90625 C 50.34375 486.90625 25.09375 461.65625 25.09375 430.515625 L 25.09375 81.484375 C 25.09375 50.34375 50.34375 25.09375 81.484375 25.09375 Z M 81.484375 25.09375 " transform="matrix(0.25,0,0,0.25,0,0)"/>
<g clip-path="url(#clip1)" clip-rule="nonzero">
<g clip-path="url(#clip2)" clip-rule="nonzero">
<path style=" stroke:none;fill-rule:nonzero;fill:rgb(100%,98.039216%,98.039216%);fill-opacity:1;" d="M 65.53125 108.679688 C 65.671875 108.414062 65.792969 108.222656 65.933594 107.867188 C 65.96875 107.78125 66.34375 106.890625 66.820312 105.847656 C 67.296875 104.804688 67.953125 103.347656 68.28125 102.609375 C 68.605469 101.867188 68.976562 101.261719 69.097656 101.261719 C 69.867188 101.792969 71.367188 106.738281 71.863281 106.8125 C 72.078125 106.835938 72.253906 106.40625 72.382812 106.066406 C 72.472656 105.824219 72.894531 104.828125 73.539062 103.546875 C 74.839844 100.949219 74.855469 100.945312 76.085938 103.035156 C 76.519531 103.765625 77.015625 104.308594 77.222656 104.273438 C 77.664062 104.195312 78.816406 101.109375 79.824219 97.289062 C 82.164062 88.449219 82.710938 78.371094 81.246094 71.15625 C 79.957031 64.808594 76.953125 59.394531 72.640625 55.640625 C 71.789062 54.902344 71.09375 54.160156 71.09375 53.992188 C 71.09375 53.828125 71.363281 53.4375 71.695312 53.125 C 72.582031 52.292969 73.640625 50.046875 73.890625 48.457031 C 74.496094 44.679688 72.46875 40.617188 69.035156 38.726562 L 67.890625 38.09375 L 67.761719 29.359375 C 67.65625 22.109375 67.566406 20.550781 67.25 20.164062 C 66.746094 19.558594 65.414062 19.011719 64.445312 19.011719 C 63.5625 19.011719 61.625 19.722656 61.578125 20.066406 C 61.5625 20.191406 61.519531 20.410156 61.484375 20.550781 C 61.449219 20.691406 61.40625 24.71875 61.386719 29.5 L 61.355469 38.191406 L 59.839844 39.113281 C 57.078125 40.789062 55.476562 43.277344 55.265625 46.210938 C 55.0625 49.015625 55.570312 50.398438 58.152344 54.054688 C 58.347656 54.335938 57.984375 54.8125 56.570312 56.125 C 54.039062 58.476562 52.078125 61.164062 50.464844 64.492188 C 48.324219 68.910156 47.636719 71.371094 46.992188 76.921875 C 46.445312 81.605469 47.136719 89.585938 48.578125 95.242188 C 49.335938 98.222656 50.78125 102.609375 51.195312 103.171875 C 51.53125 103.636719 51.625 103.59375 52.96875 102.320312 C 53.824219 101.507812 54.457031 101.085938 54.558594 101.253906 C 54.652344 101.40625 55.117188 102.6875 55.585938 104.109375 C 56.058594 105.523438 56.628906 106.972656 56.71875 106.875 C 58.429688 105.554688 58.957031 102.335938 60.589844 101.390625 C 60.984375 101.390625 64.191406 107.269531 64.605469 108.242188 C 64.742188 108.570312 64.949219 108.839844 65.027344 108.984375 C 65.15625 109.21875 65.296875 109.117188 65.53125 108.679688 Z M 65.53125 108.679688 "/>
</g>
</g>
</g>
</svg>
