
<svg xmlns="http://www.w3.org/2000/svg" xmlns:xlink="http://www.w3.org/1999/xlink" width="128px" height="128px" viewBox="0 0 128 128" version="1.1">
<g id="surface1">
<path style="fill-rule:nonzero;fill:rgb(100%,100%,100%);fill-opacity:1;stroke-width:28.191782;stroke-linecap:butt;stroke-linejoin:miter;stroke:rgb(100%,40%,0%);stroke-opacity:1;stroke-miterlimit:4;" d="M 81.484375 25.09375 L 430.515625 25.09375 C 461.65625 25.09375 486.90625 50.34375 486.90625 81.484375 L 486.90625 430.515625 C 486.90625 461.65625 461.65625 486.90625 430.515625 486.90625 L 81.484375 486.90625 C 50.34375 486.90625 25.09375 461.65625 25.09375 430.515625 L 25.09375 81.484375 C 25.09375 50.34375 50.34375 25.09375 81.484375 25.09375 Z M 81.484375 25.09375 " transform="matrix(0.25,0,0,0.25,0,0)"/>
<path style=" stroke:none;fill-rule:nonzero;fill:rgb(100%,40%,0%);fill-opacity:1;" d="M 50.074219 22.546875 C 47.835938 22.511719 45.945312 23.371094 45.160156 25.003906 L 44.730469 25.902344 C 43.472656 28.515625 45.53125 32.09375 49.34375 33.929688 L 63.4375 40.703125 L 23.277344 46.257812 C 19.085938 46.835938 16.03125 49.617188 16.429688 52.488281 L 16.566406 53.476562 C 16.964844 56.347656 20.65625 58.195312 24.851562 57.617188 L 49.753906 54.171875 C 49.679688 54.25 49.597656 54.328125 49.523438 54.414062 L 20.167969 87.394531 C 17.351562 90.554688 16.832031 94.652344 19 96.578125 L 19.742188 97.242188 C 21.910156 99.171875 25.917969 98.179688 28.730469 95.015625 L 45.007812 76.730469 C 47.28125 93.175781 61.417969 105.4375 78.132812 105.453125 C 96.617188 105.453125 111.605469 90.570312 111.605469 72.210938 C 111.589844 61.28125 106.171875 51.0625 97.109375 44.867188 C 96.308594 44.039062 95.292969 43.300781 94.105469 42.730469 L 54.3125 23.59375 C 52.882812 22.90625 51.414062 22.566406 50.074219 22.546875 Z M 78.132812 50.769531 C 89.972656 50.769531 99.570312 60.367188 99.570312 72.210938 C 99.570312 84.050781 89.972656 93.648438 78.132812 93.648438 C 66.289062 93.648438 56.691406 84.050781 56.691406 72.210938 C 56.691406 60.367188 66.289062 50.769531 78.132812 50.769531 Z M 78.132812 58.410156 C 70.507812 58.410156 64.332031 64.589844 64.332031 72.210938 C 64.332031 79.828125 70.507812 86.007812 78.132812 86.007812 C 85.75 86.007812 91.929688 79.828125 91.929688 72.210938 C 91.929688 64.589844 85.75 58.410156 78.132812 58.410156 Z M 78.132812 58.410156 "/>
</g>
</svg>
