
<svg xmlns="http://www.w3.org/2000/svg" xmlns:xlink="http://www.w3.org/1999/xlink" width="128px" height="128px" viewBox="0 0 128 128" version="1.1">
<g id="surface1">
<path style="fill-rule:nonzero;fill:rgb(40.784314%,30.196078%,20.392157%);fill-opacity:1;stroke-width:54.645298;stroke-linecap:butt;stroke-linejoin:miter;stroke:rgb(76.862745%,47.843137%,20.392157%);stroke-opacity:1;stroke-miterlimit:4;" d="M 173.71875 64.4375 L 850.28125 64.4375 C 910.625 64.4375 959.5625 113.34375 959.5625 173.71875 L 959.5625 850.28125 C 959.5625 910.625 910.625 959.5625 850.28125 959.5625 L 173.71875 959.5625 C 113.34375 959.5625 64.4375 910.625 64.4375 850.28125 L 64.4375 173.71875 C 64.4375 113.34375 113.34375 64.4375 173.71875 64.4375 Z M 173.71875 64.4375 " transform="matrix(0.125,0,0,0.125,0,0)"/>
<path style=" stroke:none;fill-rule:nonzero;fill:rgb(100%,100%,100%);fill-opacity:0.298039;" d="M 97.011719 44.84375 L 97.015625 44.84375 C 96.972656 44.796875 96.921875 44.746094 96.878906 44.703125 C 96.847656 44.671875 96.808594 44.632812 96.773438 44.601562 C 96.058594 43.933594 95.210938 43.601562 94.226562 43.601562 L 33.023438 43.601562 C 31.992188 43.601562 31.199219 43.304688 30.234375 44.5 C 29.585938 45.304688 29.667969 45.070312 29.664062 45.699219 L 29.65625 49.957031 C 29.652344 50.730469 29.476562 63.3125 29.898438 63.921875 C 30.554688 72.0625 33.851562 79.113281 39.804688 85.0625 C 42.015625 87.277344 44.382812 89.125 46.847656 90.578125 C 46.796875 90.820312 46.773438 91.078125 46.773438 91.34375 L 46.773438 100.09375 C 46.773438 101.125 47.140625 102.015625 47.871094 102.746094 C 47.902344 102.777344 47.941406 102.8125 47.976562 102.84375 C 47.992188 102.859375 48.003906 102.871094 48.015625 102.882812 L 48.011719 102.878906 L 48.015625 102.882812 C 48.722656 103.527344 49.554688 103.84375 50.523438 103.84375 L 77.023438 103.84375 C 78.054688 103.84375 78.941406 103.476562 79.671875 102.746094 C 80.402344 102.015625 80.773438 101.125 80.773438 100.09375 L 80.773438 91.34375 C 80.773438 91.175781 80.757812 91.007812 80.742188 90.839844 C 83.421875 89.308594 85.914062 87.390625 88.242188 85.0625 C 94.929688 78.375 98.273438 70.300781 98.273438 60.84375 C 98.273438 60.171875 98.222656 57.71875 98.128906 53.488281 L 97.976562 47.351562 C 97.976562 46.382812 97.660156 45.550781 97.015625 44.84375 "/>
<path style=" stroke:none;fill-rule:nonzero;fill:rgb(100%,100%,100%);fill-opacity:1;" d="M 87.675781 33.855469 C 86.945312 33.125 86.054688 32.757812 85.023438 32.757812 L 58.144531 32.757812 C 62.625 31.34375 64.074219 27.511719 62.507812 21.261719 C 58.6875 27.773438 50.539062 27.851562 43.632812 30.007812 C 41.835938 30.570312 40.59375 31.324219 39.886719 32.28125 C 39.21875 33.1875 38.84375 34.542969 38.761719 36.351562 L 38.761719 43.769531 L 88.773438 43.769531 L 88.773438 36.507812 C 88.773438 35.476562 88.40625 34.585938 87.675781 33.855469 Z M 87.675781 33.855469 "/>
<path style=" stroke:none;fill-rule:nonzero;fill:rgb(25.098039%,19.215686%,13.72549%);fill-opacity:1;" d="M 88.90625 51.511719 L 88.773438 43.769531 L 38.761719 43.769531 L 38.761719 57.039062 C 38.824219 58.167969 38.886719 58.925781 38.960938 59.03125 C 39.445312 64.914062 41.855469 69.992188 46.210938 74.28125 C 51.105469 79.105469 57.019531 81.519531 63.945312 81.519531 C 70.863281 81.519531 76.773438 79.105469 81.667969 74.28125 C 86.5625 69.460938 89.011719 63.636719 89.011719 56.820312 C 89.011719 56.332031 88.976562 54.5625 88.90625 51.511719 Z M 88.90625 51.511719 "/>
</g>
</svg>
