
<svg xmlns="http://www.w3.org/2000/svg" xmlns:xlink="http://www.w3.org/1999/xlink" width="128px" height="128px" viewBox="0 0 128 128" version="1.1">
<g id="surface1">
<path style=" stroke:none;fill-rule:nonzero;fill:rgb(25.098039%,48.235294%,64.705882%);fill-opacity:1;" d="M 23.03125 114.570312 C 18.691406 113.632812 15.023438 110.339844 13.515625 106.035156 L 12.90625 104.285156 L 12.90625 24.1875 L 13.488281 22.601562 C 15.265625 17.796875 18.273438 15.167969 23.328125 14 C 25.148438 13.582031 26.191406 13.570312 63.890625 13.570312 C 101.878906 13.570312 102.617188 13.578125 104.234375 14.007812 C 108.335938 15.097656 110.503906 16.507812 112.332031 19.273438 C 113.25 20.65625 113.6875 21.707031 114.300781 23.96875 C 114.734375 25.570312 114.742188 26.300781 114.742188 64.378906 C 114.742188 87.410156 114.660156 103.433594 114.539062 103.832031 C 114.425781 104.203125 114.167969 105.09375 113.964844 105.816406 C 112.890625 109.621094 109.867188 112.757812 105.867188 114.199219 L 104.238281 114.789062 L 64.320312 114.828125 C 31.417969 114.859375 24.164062 114.816406 23.03125 114.570312 Z M 39.875 98.605469 C 45.585938 96.707031 53.722656 91.234375 62.664062 83.277344 C 68.074219 78.460938 75.863281 70.523438 80.921875 64.671875 C 95.359375 47.972656 101.941406 34.203125 97.742188 29.46875 C 96.425781 27.984375 93.328125 27.707031 89.972656 28.773438 C 85 30.351562 78.59375 34.320312 71.320312 40.328125 L 68.472656 42.679688 L 66.863281 42.679688 C 61.265625 42.679688 55.195312 45.363281 50.90625 49.738281 C 46.429688 54.304688 44.195312 59.679688 44.195312 65.898438 L 44.195312 68.28125 L 42.011719 71.179688 C 37.964844 76.5625 34.621094 81.941406 32.800781 86 C 31.230469 89.507812 30.648438 91.671875 30.625 94.109375 C 30.601562 96.234375 30.84375 97.066406 31.78125 98.125 C 33.109375 99.617188 36.265625 99.804688 39.875 98.605469 Z M 43.039062 84.792969 C 41.101562 83.753906 41.371094 80.425781 43.773438 75.6875 C 44.363281 74.523438 44.9375 73.515625 45.046875 73.449219 C 45.15625 73.382812 45.609375 74.203125 46.058594 75.277344 C 46.898438 77.273438 48.875 80.425781 49.550781 80.839844 C 50.617188 81.496094 57.699219 76.726562 63.320312 71.570312 C 70.375 65.101562 76.492188 57.378906 79.703125 50.882812 C 81.617188 47.019531 81.617188 47.007812 80.429688 46.265625 C 79.023438 45.386719 76.089844 44.0625 74.871094 43.761719 C 74.289062 43.617188 73.847656 43.390625 73.890625 43.265625 C 74.015625 42.898438 77.898438 40.8125 79.304688 40.355469 C 80.003906 40.128906 81.195312 39.945312 81.953125 39.945312 C 83.140625 39.941406 83.40625 40.019531 83.902344 40.511719 C 86.929688 43.503906 82.09375 53.570312 72.144531 64.992188 C 69.050781 68.546875 63.382812 74.109375 60.007812 76.898438 C 52.53125 83.085938 45.738281 86.242188 43.039062 84.792969 Z M 49.324219 67.621094 C 46.953125 66.191406 47.054688 60.601562 49.527344 56.316406 C 49.886719 55.695312 50.636719 54.683594 51.195312 54.070312 C 53.742188 51.265625 56.359375 51.011719 57.796875 53.425781 C 58.476562 54.5625 58.429688 58.417969 57.71875 60.515625 C 56.597656 63.792969 54.605469 66.488281 52.550781 67.5 C 51.175781 68.179688 50.304688 68.210938 49.324219 67.621094 Z M 70.402344 89.269531 C 79.527344 88.164062 87.292969 81.933594 90.15625 73.425781 C 90.960938 71.046875 91.300781 68.835938 91.296875 66.050781 C 91.292969 62.296875 90.289062 57.671875 89.472656 57.671875 C 89.285156 57.671875 88.539062 58.554688 87.820312 59.640625 C 82.179688 68.132812 72.785156 78.304688 64.257812 85.15625 C 60.539062 88.140625 60.71875 87.96875 60.984375 88.285156 C 61.257812 88.609375 63.058594 89.039062 65.167969 89.285156 C 67.363281 89.539062 68.210938 89.535156 70.402344 89.269531 Z M 70.402344 89.269531 "/>
<path style=" stroke:none;fill-rule:nonzero;fill:rgb(0%,80%,100%);fill-opacity:1;" d="M 23.140625 9.9375 C 15.828125 9.9375 9.9375 15.828125 9.9375 23.140625 L 9.9375 104.859375 C 9.9375 112.171875 15.828125 118.0625 23.140625 118.0625 L 104.859375 118.0625 C 112.171875 118.0625 118.0625 112.171875 118.0625 104.859375 L 118.0625 23.140625 C 118.0625 15.828125 112.171875 9.9375 104.859375 9.9375 Z M 26.230469 14.027344 L 101.769531 14.027344 C 108.53125 14.027344 113.972656 19.46875 113.972656 26.230469 L 113.972656 101.769531 C 113.972656 108.53125 108.53125 113.972656 101.769531 113.972656 L 26.230469 113.972656 C 19.46875 113.972656 14.027344 108.53125 14.027344 101.769531 L 14.027344 26.230469 C 14.027344 19.46875 19.46875 14.027344 26.230469 14.027344 Z M 26.230469 14.027344 "/>
</g>
</svg>
