
<svg xmlns="http://www.w3.org/2000/svg" xmlns:xlink="http://www.w3.org/1999/xlink" width="128px" height="128px" viewBox="0 0 128 128" version="1.1">
<defs>
<linearGradient id="linear0" gradientUnits="userSpaceOnUse" x1="1" y1="0" x2="47" y2="0" gradientTransform="matrix(1,0,0,1,-48.000001,0.00221467)">
<stop offset="0" style="stop-color:rgb(31.764706%,72.156863%,87.45098%);stop-opacity:1;"/>
<stop offset="1" style="stop-color:rgb(38.431373%,74.509804%,88.627451%);stop-opacity:1;"/>
</linearGradient>
</defs>
<g id="surface1">
<path style="fill-rule:nonzero;fill:url(#linear0);stroke-width:1.4;stroke-linecap:butt;stroke-linejoin:miter;stroke:rgb(10.980392%,45.490196%,58.823529%);stroke-opacity:1;stroke-miterlimit:4;" d="M -43.000487 1.000488 L -4.999512 1.000488 C -2.790527 1.000488 -1.000488 2.790527 -1.000488 4.999512 L -1.000488 43.000487 C -1.000488 45.209471 -2.790527 46.99951 -4.999512 46.99951 L -43.000487 46.99951 C -45.209471 46.99951 -46.99951 45.209471 -46.99951 43.000487 L -46.99951 4.999512 C -46.99951 2.790527 -45.209471 1.000488 -43.000487 1.000488 Z M -43.000487 1.000488 " transform="matrix(0,-2.666667,2.666667,0,0,0)"/>
<path style=" stroke:none;fill-rule:nonzero;fill:rgb(0%,0%,0%);fill-opacity:0.0196078;" d="M 39.621094 121.125 L 39.621094 121.789062 C 39.621094 127.699219 44.378906 132.457031 50.289062 132.457031 L 151.621094 132.457031 C 157.53125 132.457031 162.289062 127.699219 162.289062 121.789062 L 162.289062 121.125 C 162.289062 127.03125 157.53125 131.789062 151.621094 131.789062 L 50.289062 131.789062 C 44.378906 131.789062 39.621094 127.03125 39.621094 121.125 Z M 39.621094 122.457031 L 39.621094 123.789062 C 39.621094 129.699219 44.378906 134.457031 50.289062 134.457031 L 151.621094 134.457031 C 157.53125 134.457031 162.289062 129.699219 162.289062 123.789062 L 162.289062 122.457031 C 162.289062 128.367188 157.53125 133.125 151.621094 133.125 L 50.289062 133.125 C 44.378906 133.125 39.621094 128.367188 39.621094 122.457031 Z M 39.621094 122.457031 "/>
<path style=" stroke:none;fill-rule:nonzero;fill:rgb(0%,0%,0%);fill-opacity:0.0509804;" d="M 39.621094 121.789062 L 39.621094 122.457031 C 39.621094 128.367188 44.378906 133.125 50.289062 133.125 L 151.621094 133.125 C 157.53125 133.125 162.289062 128.367188 162.289062 122.457031 L 162.289062 121.789062 C 162.289062 127.699219 157.53125 132.457031 151.621094 132.457031 L 50.289062 132.457031 C 44.378906 132.457031 39.621094 127.699219 39.621094 121.789062 Z M 39.621094 121.789062 "/>
<path style=" stroke:none;fill-rule:nonzero;fill:rgb(0%,0%,0%);fill-opacity:0.101961;" d="M 39.621094 121.125 L 39.621094 121.789062 C 39.621094 127.699219 44.378906 132.457031 50.289062 132.457031 L 151.621094 132.457031 C 157.53125 132.457031 162.289062 127.699219 162.289062 121.789062 L 162.289062 121.125 C 162.289062 127.03125 157.53125 131.789062 151.621094 131.789062 L 50.289062 131.789062 C 44.378906 131.789062 39.621094 127.03125 39.621094 121.125 Z M 39.621094 121.125 "/>
<path style=" stroke:none;fill-rule:nonzero;fill:rgb(100%,100%,100%);fill-opacity:1;" d="M 73.210938 27.585938 C 69.328125 27.585938 66.125 31.148438 65.492188 35.859375 L 96.238281 35.859375 C 95.601562 31.148438 92.40625 27.585938 88.523438 27.585938 Z M 73.210938 27.585938 "/>
<path style=" stroke:none;fill-rule:nonzero;fill:rgb(90.196078%,90.196078%,90.196078%);fill-opacity:1;" d="M 31.511719 37.1875 C 26.355469 37.1875 22.203125 41.339844 22.203125 46.496094 L 22.203125 91.109375 C 22.203125 96.265625 26.355469 100.417969 31.511719 100.417969 L 96.488281 100.417969 C 101.644531 100.417969 105.796875 96.265625 105.796875 91.109375 L 105.796875 46.496094 C 105.796875 41.339844 101.644531 37.1875 96.488281 37.1875 Z M 31.511719 37.1875 "/>
</g>
</svg>
