
<svg xmlns="http://www.w3.org/2000/svg" xmlns:xlink="http://www.w3.org/1999/xlink" width="128px" height="128px" viewBox="0 0 128 128" version="1.1">
<defs>
<clipPath id="clip1">
  <path d="M 10 21.75 L 112.5 21.75 L 112.5 119.5 L 10 119.5 Z M 10 21.75 "/>
</clipPath>
<clipPath id="clip2">
  <path d="M 28.816406 9.675781 L 99.226562 9.675781 C 109.996094 9.675781 118.726562 18.40625 118.726562 29.171875 L 118.726562 99.984375 C 118.726562 110.75 109.996094 119.480469 99.226562 119.480469 L 28.816406 119.480469 C 18.046875 119.480469 9.316406 110.75 9.316406 99.984375 L 9.316406 29.171875 C 9.316406 18.40625 18.046875 9.675781 28.816406 9.675781 Z M 28.816406 9.675781 "/>
</clipPath>
<clipPath id="clip3">
  <path d="M 66.25 48 L 81.25 48 L 81.25 63 L 66.25 63 Z M 66.25 48 "/>
</clipPath>
<clipPath id="clip4">
  <path d="M 28.816406 9.675781 L 99.226562 9.675781 C 109.996094 9.675781 118.726562 18.40625 118.726562 29.171875 L 118.726562 99.984375 C 118.726562 110.75 109.996094 119.480469 99.226562 119.480469 L 28.816406 119.480469 C 18.046875 119.480469 9.316406 110.75 9.316406 99.984375 L 9.316406 29.171875 C 9.316406 18.40625 18.046875 9.675781 28.816406 9.675781 Z M 28.816406 9.675781 "/>
</clipPath>
<clipPath id="clip5">
  <path d="M 9.25 9.5 L 57 9.5 L 57 57.5 L 9.25 57.5 Z M 9.25 9.5 "/>
</clipPath>
<clipPath id="clip6">
  <path d="M 28.816406 9.675781 L 99.226562 9.675781 C 109.996094 9.675781 118.726562 18.40625 118.726562 29.171875 L 118.726562 99.984375 C 118.726562 110.75 109.996094 119.480469 99.226562 119.480469 L 28.816406 119.480469 C 18.046875 119.480469 9.316406 110.75 9.316406 99.984375 L 9.316406 29.171875 C 9.316406 18.40625 18.046875 9.675781 28.816406 9.675781 Z M 28.816406 9.675781 "/>
</clipPath>
<clipPath id="clip7">
  <path d="M 9.25 9.5 L 118.75 9.5 L 118.75 119.5 L 9.25 119.5 Z M 9.25 9.5 "/>
</clipPath>
<clipPath id="clip8">
  <path d="M 28.816406 9.675781 L 99.226562 9.675781 C 109.996094 9.675781 118.726562 18.40625 118.726562 29.171875 L 118.726562 99.984375 C 118.726562 110.75 109.996094 119.480469 99.226562 119.480469 L 28.816406 119.480469 C 18.046875 119.480469 9.316406 110.75 9.316406 99.984375 L 9.316406 29.171875 C 9.316406 18.40625 18.046875 9.675781 28.816406 9.675781 Z M 28.816406 9.675781 "/>
</clipPath>
<clipPath id="clip9">
  <path d="M 13 29 L 25 29 L 25 40 L 13 40 Z M 13 29 "/>
</clipPath>
<clipPath id="clip10">
  <path d="M 28.816406 9.675781 L 99.226562 9.675781 C 109.996094 9.675781 118.726562 18.40625 118.726562 29.171875 L 118.726562 99.984375 C 118.726562 110.75 109.996094 119.480469 99.226562 119.480469 L 28.816406 119.480469 C 18.046875 119.480469 9.316406 110.75 9.316406 99.984375 L 9.316406 29.171875 C 9.316406 18.40625 18.046875 9.675781 28.816406 9.675781 Z M 28.816406 9.675781 "/>
</clipPath>
<clipPath id="clip11">
  <path d="M 21 21 L 32 21 L 32 32 L 21 32 Z M 21 21 "/>
</clipPath>
<clipPath id="clip12">
  <path d="M 28.816406 9.675781 L 99.226562 9.675781 C 109.996094 9.675781 118.726562 18.40625 118.726562 29.171875 L 118.726562 99.984375 C 118.726562 110.75 109.996094 119.480469 99.226562 119.480469 L 28.816406 119.480469 C 18.046875 119.480469 9.316406 110.75 9.316406 99.984375 L 9.316406 29.171875 C 9.316406 18.40625 18.046875 9.675781 28.816406 9.675781 Z M 28.816406 9.675781 "/>
</clipPath>
<clipPath id="clip13">
  <path d="M 26 16 L 38.75 16 L 38.75 27 L 26 27 Z M 26 16 "/>
</clipPath>
<clipPath id="clip14">
  <path d="M 28.816406 9.675781 L 99.226562 9.675781 C 109.996094 9.675781 118.726562 18.40625 118.726562 29.171875 L 118.726562 99.984375 C 118.726562 110.75 109.996094 119.480469 99.226562 119.480469 L 28.816406 119.480469 C 18.046875 119.480469 9.316406 110.75 9.316406 99.984375 L 9.316406 29.171875 C 9.316406 18.40625 18.046875 9.675781 28.816406 9.675781 Z M 28.816406 9.675781 "/>
</clipPath>
<clipPath id="clip15">
  <path d="M 11.5 47.75 L 46.25 47.75 L 46.25 75.75 L 11.5 75.75 Z M 11.5 47.75 "/>
</clipPath>
<clipPath id="clip16">
  <path d="M 28.816406 9.675781 L 99.226562 9.675781 C 109.996094 9.675781 118.726562 18.40625 118.726562 29.171875 L 118.726562 99.984375 C 118.726562 110.75 109.996094 119.480469 99.226562 119.480469 L 28.816406 119.480469 C 18.046875 119.480469 9.316406 110.75 9.316406 99.984375 L 9.316406 29.171875 C 9.316406 18.40625 18.046875 9.675781 28.816406 9.675781 Z M 28.816406 9.675781 "/>
</clipPath>
</defs>
<g id="surface1">
<g clip-path="url(#clip1)" clip-rule="nonzero">
<g clip-path="url(#clip2)" clip-rule="nonzero">
<path style=" stroke:none;fill-rule:nonzero;fill:rgb(100%,100%,100%);fill-opacity:1;" d="M 35.957031 21.996094 L 86.632812 21.996094 C 100.863281 21.996094 112.398438 33.53125 112.398438 47.757812 L 112.398438 94.578125 C 112.398438 108.804688 100.863281 120.339844 86.632812 120.339844 L 35.957031 120.339844 C 21.730469 120.339844 10.195312 108.804688 10.195312 94.578125 L 10.195312 47.757812 C 10.195312 33.53125 21.730469 21.996094 35.957031 21.996094 Z M 35.957031 21.996094 "/>
</g>
</g>
<g clip-path="url(#clip3)" clip-rule="nonzero">
<g clip-path="url(#clip4)" clip-rule="nonzero">
<path style=" stroke:none;fill-rule:nonzero;fill:rgb(100%,57.254902%,0.784314%);fill-opacity:1;" d="M 66.355469 62.488281 C 66.34375 62.328125 66.355469 60.292969 66.378906 57.960938 C 66.566406 50.820312 69.515625 46.894531 76.109375 48.289062 C 79.238281 49.355469 81.054688 51.535156 81.152344 54.257812 C 81.257812 57.296875 79.335938 60.898438 77.03125 62.039062 C 75.773438 62.613281 74.5 62.765625 70.910156 62.769531 C 68.417969 62.773438 66.367188 62.648438 66.355469 62.488281 Z M 66.355469 62.488281 "/>
</g>
</g>
<g clip-path="url(#clip5)" clip-rule="nonzero">
<g clip-path="url(#clip6)" clip-rule="nonzero">
<path style=" stroke:none;fill-rule:nonzero;fill:rgb(29.411765%,90.980392%,81.176471%);fill-opacity:1;" d="M 42.4375 9.1875 C 26.589844 9.0625 25.007812 9.234375 19.914062 11.613281 C 16.65625 13.136719 12.484375 17.199219 10.988281 20.308594 C 8.832031 24.792969 8.703125 26.023438 8.703125 42.3125 L 8.703125 57.34375 L 56.753906 9.296875 Z M 42.4375 9.1875 "/>
</g>
</g>
<g clip-path="url(#clip7)" clip-rule="nonzero">
<g clip-path="url(#clip8)" clip-rule="nonzero">
<path style=" stroke:none;fill-rule:nonzero;fill:rgb(100%,57.254902%,0.784314%);fill-opacity:1;" d="M 56.015625 9.15625 L 8.671875 56.492188 L 8.695312 78.695312 C 8.703125 90.902344 8.859375 102.265625 9.035156 103.941406 C 9.449219 107.902344 11.136719 111.378906 14.113281 114.410156 C 16.6875 117.03125 21.046875 119.363281 24.386719 119.898438 C 25.574219 120.089844 28.890625 120.269531 31.753906 120.292969 L 36.960938 120.339844 L 36.960938 114.902344 C 36.960938 111.914062 36.84375 106.257812 36.703125 102.34375 L 36.441406 95.21875 L 28.546875 89.253906 C 17.566406 80.953125 11.082031 75.949219 11.59375 75.667969 C 12.035156 75.421875 16.144531 72.152344 26.363281 63.855469 C 36.207031 55.859375 37.351562 55.355469 37.351562 53.765625 C 37.351562 51.5625 39.167969 45.183594 40.605469 42.324219 C 55.25 14.769531 100.484375 17.332031 107.335938 47.011719 C 108.335938 51.835938 108.46875 52.777344 108.394531 56.546875 C 108.613281 76.195312 93.125 88.347656 74.675781 88.515625 C 73.054688 88.519531 70.535156 88.632812 69.078125 88.773438 L 66.425781 89.023438 L 66.425781 120.339844 L 82.828125 120.335938 C 91.851562 120.335938 100.734375 120.164062 102.570312 119.953125 C 106.839844 119.464844 110.628906 117.671875 113.542969 114.757812 C 115.960938 112.339844 117.085938 110.535156 118.464844 106.871094 L 119.460938 104.21875 L 119.460938 103.351562 C 119.460938 103.34375 119.460938 103.339844 119.460938 103.332031 L 119.441406 67.980469 C 119.429688 48.050781 119.285156 29.960938 119.125 27.78125 C 118.871094 24.414062 118.617188 23.382812 117.4375 20.90625 C 114.878906 15.546875 111.105469 12.296875 105.074219 10.273438 L 101.746094 9.15625 Z M 56.015625 9.15625 "/>
</g>
</g>
<g clip-path="url(#clip9)" clip-rule="nonzero">
<g clip-path="url(#clip10)" clip-rule="nonzero">
<path style=" stroke:none;fill-rule:nonzero;fill:rgb(100%,100%,100%);fill-opacity:1;" d="M 22.089844 31.273438 C 22.644531 31.808594 23.085938 32.359375 23.417969 32.929688 C 23.746094 33.496094 23.949219 34.070312 24.019531 34.648438 C 24.089844 35.226562 24.015625 35.804688 23.804688 36.382812 C 23.59375 36.957031 23.222656 37.523438 22.695312 38.074219 C 22.164062 38.625 21.613281 39.019531 21.046875 39.257812 C 20.476562 39.492188 19.902344 39.585938 19.324219 39.539062 C 18.746094 39.488281 18.164062 39.308594 17.582031 39 C 17 38.691406 16.425781 38.265625 15.867188 37.730469 C 15.308594 37.195312 14.863281 36.640625 14.535156 36.074219 C 14.203125 35.507812 14.003906 34.933594 13.9375 34.359375 C 13.871094 33.785156 13.945312 33.210938 14.160156 32.636719 C 14.375 32.0625 14.746094 31.496094 15.28125 30.9375 C 15.808594 30.386719 16.355469 29.992188 16.921875 29.757812 C 17.488281 29.519531 18.058594 29.425781 18.636719 29.472656 C 19.210938 29.519531 19.789062 29.695312 20.371094 30.003906 C 20.953125 30.3125 21.527344 30.734375 22.089844 31.273438 Z M 17.390625 36.164062 C 17.769531 36.527344 18.140625 36.824219 18.503906 37.046875 C 18.867188 37.269531 19.21875 37.410156 19.558594 37.476562 C 19.894531 37.542969 20.21875 37.523438 20.53125 37.425781 C 20.84375 37.324219 21.136719 37.128906 21.414062 36.84375 C 21.691406 36.550781 21.875 36.25 21.964844 35.933594 C 22.050781 35.617188 22.054688 35.289062 21.976562 34.957031 C 21.894531 34.625 21.734375 34.28125 21.496094 33.929688 C 21.257812 33.574219 20.949219 33.214844 20.574219 32.851562 C 20.195312 32.488281 19.824219 32.195312 19.460938 31.972656 C 19.097656 31.75 18.75 31.601562 18.410156 31.53125 C 18.070312 31.460938 17.746094 31.476562 17.4375 31.578125 C 17.125 31.675781 16.832031 31.871094 16.554688 32.160156 C 16.277344 32.445312 16.097656 32.75 16.007812 33.066406 C 15.917969 33.382812 15.910156 33.710938 15.992188 34.050781 C 16.074219 34.390625 16.230469 34.734375 16.46875 35.089844 C 16.707031 35.445312 17.011719 35.800781 17.390625 36.164062 Z M 17.390625 36.164062 "/>
</g>
</g>
<g clip-path="url(#clip11)" clip-rule="nonzero">
<g clip-path="url(#clip12)" clip-rule="nonzero">
<path style=" stroke:none;fill-rule:nonzero;fill:rgb(100%,100%,100%);fill-opacity:1;" d="M 24.023438 24.40625 C 23.742188 24.695312 23.550781 25.011719 23.449219 25.347656 C 23.34375 25.679688 23.324219 26.023438 23.390625 26.382812 C 23.453125 26.734375 23.601562 27.097656 23.832031 27.472656 C 24.058594 27.839844 24.359375 28.207031 24.742188 28.574219 C 25.125 28.941406 25.5 29.234375 25.867188 29.453125 C 26.234375 29.667969 26.589844 29.800781 26.9375 29.855469 C 27.28125 29.902344 27.617188 29.867188 27.945312 29.742188 C 28.269531 29.613281 28.582031 29.390625 28.886719 29.078125 C 29.167969 28.78125 29.414062 28.457031 29.632812 28.101562 C 29.851562 27.742188 30.066406 27.335938 30.277344 26.875 L 31.558594 28.109375 C 31.472656 28.328125 31.375 28.535156 31.273438 28.738281 C 31.171875 28.933594 31.058594 29.128906 30.933594 29.320312 C 30.808594 29.507812 30.671875 29.691406 30.523438 29.878906 C 30.375 30.058594 30.207031 30.246094 30.023438 30.441406 C 29.488281 30.996094 28.9375 31.394531 28.367188 31.632812 C 27.796875 31.867188 27.226562 31.964844 26.648438 31.925781 C 26.070312 31.878906 25.496094 31.703125 24.917969 31.398438 C 24.339844 31.089844 23.773438 30.667969 23.21875 30.136719 C 22.671875 29.613281 22.242188 29.058594 21.933594 28.472656 C 21.621094 27.886719 21.4375 27.292969 21.382812 26.695312 C 21.324219 26.09375 21.40625 25.496094 21.628906 24.902344 C 21.847656 24.304688 22.222656 23.734375 22.75 23.1875 C 23.09375 22.828125 23.484375 22.511719 23.921875 22.238281 C 24.355469 21.964844 24.808594 21.738281 25.285156 21.558594 L 26.050781 23.25 C 25.664062 23.398438 25.292969 23.5625 24.9375 23.742188 C 24.578125 23.921875 24.273438 24.140625 24.023438 24.40625 Z M 24.023438 24.40625 "/>
</g>
</g>
<g clip-path="url(#clip13)" clip-rule="nonzero">
<g clip-path="url(#clip14)" clip-rule="nonzero">
<path style=" stroke:none;fill-rule:nonzero;fill:rgb(100%,100%,100%);fill-opacity:1;" d="M 30.75 21.460938 L 31.148438 21.046875 C 31.554688 20.625 31.761719 20.242188 31.769531 19.894531 C 31.777344 19.546875 31.617188 19.21875 31.289062 18.902344 C 30.945312 18.570312 30.609375 18.4375 30.273438 18.496094 C 29.9375 18.554688 29.574219 18.792969 29.175781 19.207031 L 28.800781 19.59375 Z M 31.992188 22.65625 L 34.757812 25.3125 L 33.289062 26.84375 L 26.078125 19.921875 L 27.972656 17.949219 C 28.863281 17.023438 29.695312 16.515625 30.472656 16.417969 C 31.253906 16.320312 32.003906 16.617188 32.730469 17.316406 C 32.976562 17.554688 33.171875 17.800781 33.308594 18.058594 C 33.445312 18.316406 33.539062 18.574219 33.589844 18.835938 C 33.640625 19.097656 33.65625 19.355469 33.632812 19.609375 C 33.613281 19.863281 33.566406 20.109375 33.496094 20.34375 C 34.433594 20.539062 35.273438 20.714844 36.011719 20.867188 C 36.324219 20.929688 36.628906 20.992188 36.929688 21.058594 C 37.230469 21.121094 37.496094 21.179688 37.734375 21.230469 C 37.972656 21.28125 38.164062 21.316406 38.308594 21.339844 L 38.527344 21.386719 L 36.898438 23.085938 L 32.632812 21.992188 Z M 31.992188 22.65625 "/>
</g>
</g>
<g clip-path="url(#clip15)" clip-rule="nonzero">
<g clip-path="url(#clip16)" clip-rule="nonzero">
<path style=" stroke:none;fill-rule:nonzero;fill:rgb(90.196078%,90.196078%,90.196078%);fill-opacity:1;" d="M 11.539062 75.609375 L 45.996094 75.546875 L 46.0625 47.890625 Z M 11.539062 75.609375 "/>
</g>
</g>
</g>
</svg>
