
<svg xmlns="http://www.w3.org/2000/svg" xmlns:xlink="http://www.w3.org/1999/xlink" width="128px" height="128px" viewBox="0 0 128 128" version="1.1">
<g id="surface1">
<path style="fill-rule:nonzero;fill:rgb(100%,100%,100%);fill-opacity:1;stroke-width:5.408316;stroke-linecap:butt;stroke-linejoin:miter;stroke:rgb(13.72549%,11.764706%,11.764706%);stroke-opacity:1;stroke-miterlimit:4;" d="M 14.519532 3.703125 L 81.480474 3.703125 C 87.454107 3.703125 92.296881 8.545899 92.296881 14.519532 L 92.296881 81.480474 C 92.296881 87.454107 87.454107 92.296881 81.480474 92.296881 L 14.519532 92.296881 C 8.545899 92.296881 3.703125 87.454107 3.703125 81.480474 L 3.703125 14.519532 C 3.703125 8.545899 8.545899 3.703125 14.519532 3.703125 Z M 14.519532 3.703125 " transform="matrix(1.333333,0,0,1.333333,0,0)"/>
<path style=" stroke:none;fill-rule:nonzero;fill:rgb(18.823529%,18.823529%,18.823529%);fill-opacity:1;" d="M 35.867188 13.363281 C 27.621094 13.363281 20.910156 20.042969 20.910156 28.289062 C 20.910156 36.535156 27.621094 43.246094 35.867188 43.246094 C 44.113281 43.246094 50.792969 36.535156 50.792969 28.289062 C 50.792969 20.042969 44.113281 13.363281 35.867188 13.363281 Z M 35.867188 17.109375 C 42.054688 17.109375 47.078125 22.105469 47.078125 28.289062 C 47.078125 34.472656 42.054688 39.5 35.867188 39.5 C 29.683594 39.5 24.65625 34.472656 24.65625 28.289062 C 24.65625 22.105469 29.683594 17.109375 35.867188 17.109375 Z M 35.867188 17.109375 "/>
<path style=" stroke:none;fill-rule:nonzero;fill:rgb(18.823529%,18.823529%,18.823529%);fill-opacity:1;" d="M 26.992188 37.171875 L 25.125 43.242188 L 18.585938 50.242188 C 18.136719 50.726562 16.039062 51.425781 14.386719 49.777344 C 12.984375 48.375 13.421875 46.039062 13.921875 45.574219 L 20.921875 39.039062 Z M 26.992188 37.171875 "/>
<path style=" stroke:none;fill-rule:nonzero;fill:rgb(18.823529%,18.823529%,18.823529%);fill-opacity:1;" d="M 85.828125 25.976562 C 77.578125 25.976562 70.898438 32.65625 70.898438 40.902344 C 70.898438 49.148438 77.578125 55.859375 85.828125 55.859375 C 94.070312 55.859375 100.75 49.148438 100.75 40.902344 C 100.75 32.65625 94.070312 25.976562 85.828125 25.976562 Z M 85.828125 29.691406 C 92.011719 29.691406 97.035156 34.71875 97.035156 40.902344 C 97.035156 47.085938 92.011719 52.109375 85.828125 52.109375 C 79.640625 52.109375 74.617188 47.085938 74.617188 40.902344 C 74.617188 34.71875 79.640625 29.691406 85.828125 29.691406 Z M 85.828125 29.691406 "/>
<path style=" stroke:none;fill-rule:nonzero;fill:rgb(18.823529%,18.823529%,18.823529%);fill-opacity:1;" d="M 76.953125 49.78125 L 75.085938 55.847656 L 68.550781 62.851562 C 68.101562 63.332031 66 64.035156 64.351562 62.382812 C 62.949219 60.984375 63.386719 58.648438 63.882812 58.183594 L 70.886719 51.648438 Z M 76.953125 49.78125 "/>
<path style=" stroke:none;fill-rule:nonzero;fill:rgb(18.823529%,18.823529%,18.823529%);fill-opacity:1;" d="M 48.480469 76.03125 C 40.234375 76.03125 33.523438 82.710938 33.523438 90.957031 C 33.523438 99.203125 40.234375 105.914062 48.480469 105.914062 C 56.726562 105.914062 63.40625 99.203125 63.40625 90.957031 C 63.40625 82.710938 56.726562 76.03125 48.480469 76.03125 Z M 48.480469 79.78125 C 54.664062 79.78125 59.65625 84.773438 59.65625 90.957031 C 59.65625 97.140625 54.664062 102.167969 48.480469 102.167969 C 42.296875 102.167969 37.269531 97.140625 37.269531 90.957031 C 37.269531 84.773438 42.296875 79.78125 48.480469 79.78125 Z M 48.480469 79.78125 "/>
<path style=" stroke:none;fill-rule:nonzero;fill:rgb(18.823529%,18.823529%,18.823529%);fill-opacity:1;" d="M 39.597656 99.839844 L 37.730469 105.90625 L 31.195312 112.910156 C 30.742188 113.390625 28.644531 114.09375 26.992188 112.445312 C 25.59375 111.042969 26.027344 108.707031 26.523438 108.242188 L 33.527344 101.707031 Z M 39.597656 99.839844 "/>
<path style=" stroke:none;fill-rule:nonzero;fill:rgb(18.823529%,18.823529%,18.823529%);fill-opacity:1;" d="M 98.4375 63.421875 C 90.191406 63.421875 83.480469 70.097656 83.480469 78.34375 C 83.480469 86.589844 90.191406 93.304688 98.4375 93.304688 C 106.683594 93.304688 113.363281 86.589844 113.363281 78.34375 C 113.363281 70.097656 106.683594 63.421875 98.4375 63.421875 Z M 98.4375 67.167969 C 104.621094 67.167969 109.648438 72.160156 109.648438 78.34375 C 109.648438 84.53125 104.621094 89.554688 98.4375 89.554688 C 92.253906 89.554688 87.226562 84.53125 87.226562 78.34375 C 87.226562 72.160156 92.253906 67.167969 98.4375 67.167969 Z M 98.4375 67.167969 "/>
<path style=" stroke:none;fill-rule:nonzero;fill:rgb(18.823529%,18.823529%,18.823529%);fill-opacity:1;" d="M 89.5625 87.226562 L 87.695312 93.296875 L 81.15625 100.296875 C 80.707031 100.78125 78.605469 101.484375 76.957031 99.832031 C 75.554688 98.429688 75.992188 96.09375 76.488281 95.632812 L 83.492188 89.09375 Z M 89.5625 87.226562 "/>
</g>
</svg>
