
<svg xmlns="http://www.w3.org/2000/svg" xmlns:xlink="http://www.w3.org/1999/xlink" width="128px" height="128px" viewBox="0 0 128 128" version="1.1">
<g id="surface1">
<path style="fill-rule:nonzero;fill:rgb(100%,100%,100%);fill-opacity:1;stroke-width:27.746531;stroke-linecap:butt;stroke-linejoin:miter;stroke:rgb(29.019608%,68.235294%,90.980392%);stroke-opacity:1;stroke-miterlimit:4;" d="M 84.234375 28.75 L 427.765625 28.75 C 458.40625 28.75 483.25 53.59375 483.25 84.234375 L 483.25 427.765625 C 483.25 458.40625 458.40625 483.25 427.765625 483.25 L 84.234375 483.25 C 53.59375 483.25 28.75 458.40625 28.75 427.765625 L 28.75 84.234375 C 28.75 53.59375 53.59375 28.75 84.234375 28.75 Z M 84.234375 28.75 " transform="matrix(0.25,0,0,0.25,0,0)"/>
<path style="fill-rule:evenodd;fill:rgb(29.019608%,68.235294%,90.980392%);fill-opacity:0.529412;stroke-width:16.45529;stroke-linecap:butt;stroke-linejoin:round;stroke:rgb(29.019608%,68.235294%,90.980392%);stroke-opacity:1;stroke-miterlimit:4;" d="M 209.015625 146.421875 C 162.640625 146.421875 125.046875 178.3125 125.046875 217.671875 C 125.078125 223.296875 125.890625 228.890625 127.46875 234.34375 C 126.671875 234.296875 125.875 234.25 125.078125 234.21875 C 88.8125 234.21875 59.40625 263.625 59.40625 299.90625 C 59.40625 336.171875 88.8125 365.578125 125.078125 365.578125 L 386.921875 365.578125 C 423.1875 365.578125 452.59375 336.171875 452.59375 299.90625 C 452.59375 263.625 423.1875 234.21875 386.921875 234.21875 C 385.375 234.21875 383.8125 234.28125 382.28125 234.390625 C 384.359375 228.3125 385.4375 221.9375 385.46875 215.5 C 385.46875 183.125 359.21875 156.890625 326.84375 156.890625 C 308.5625 156.921875 291.328125 165.484375 280.265625 180.0625 C 264.953125 159.15625 238.015625 146.4375 209.015625 146.421875 Z M 209.015625 146.421875 " transform="matrix(0.25,0,0,0.25,0,0)"/>
</g>
</svg>
