
<svg xmlns="http://www.w3.org/2000/svg" xmlns:xlink="http://www.w3.org/1999/xlink" width="128px" height="128px" viewBox="0 0 128 128" version="1.1">
<g id="surface1">
<path style=" stroke:none;fill-rule:nonzero;fill:rgb(13.72549%,43.137255%,50.588235%);fill-opacity:1;" d="M 21.199219 3.371094 L 108.078125 3.371094 C 117.539062 3.371094 125.207031 11.039062 125.207031 20.5 L 125.207031 107.378906 C 125.207031 116.835938 117.539062 124.507812 108.078125 124.507812 L 21.199219 124.507812 C 11.738281 124.507812 4.070312 116.835938 4.070312 107.378906 L 4.070312 20.5 C 4.070312 11.039062 11.738281 3.371094 21.199219 3.371094 Z M 21.199219 3.371094 "/>
<path style=" stroke:none;fill-rule:nonzero;fill:rgb(21.568627%,67.058824%,78.431373%);fill-opacity:1;" d="M 24.152344 7.484375 L 105.125 7.484375 C 113.941406 7.484375 121.089844 14.632812 121.089844 23.453125 L 121.089844 104.425781 C 121.089844 113.242188 113.941406 120.390625 105.125 120.390625 L 24.152344 120.390625 C 15.335938 120.390625 8.1875 113.242188 8.1875 104.425781 L 8.1875 23.453125 C 8.1875 14.632812 15.335938 7.484375 24.152344 7.484375 Z M 24.152344 7.484375 "/>
<path style=" stroke:none;fill-rule:evenodd;fill:rgb(0%,0%,0%);fill-opacity:0.498039;" d="M 25.59375 25.660156 L 25.59375 104.128906 C 51.898438 97.078125 79.578125 96.855469 104.0625 104.128906 L 104.0625 25.660156 C 89.402344 29.589844 41.703125 29.976562 25.59375 25.660156 Z M 33.441406 33.507812 L 96.214844 33.507812 L 96.214844 80.585938 L 80.523438 49.203125 L 62.132812 85.984375 L 51.097656 68.820312 L 33.441406 96.28125 Z M 33.441406 33.507812 "/>
</g>
</svg>
