
<svg xmlns="http://www.w3.org/2000/svg" xmlns:xlink="http://www.w3.org/1999/xlink" width="128px" height="128px" viewBox="0 0 128 128" version="1.1">
<defs>
<clipPath id="clip1">
  <path d="M 14 14.75 L 114 14.75 L 114 113.25 L 14 113.25 Z M 14 14.75 "/>
</clipPath>
<clipPath id="clip2">
  <path d="M 113.78125 64 C 113.78125 91.070312 91.492188 113.015625 64 113.015625 C 36.507812 113.015625 14.21875 91.070312 14.21875 64 C 14.21875 36.929688 36.507812 14.984375 64 14.984375 C 91.492188 14.984375 113.78125 36.929688 113.78125 64 Z M 113.78125 64 "/>
</clipPath>
<clipPath id="clip3">
  <path d="M 52.5 14.75 L 114 14.75 L 114 111.5 L 52.5 111.5 Z M 52.5 14.75 "/>
</clipPath>
<clipPath id="clip4">
  <path d="M 113.78125 64 C 113.78125 91.070312 91.492188 113.015625 64 113.015625 C 36.507812 113.015625 14.21875 91.070312 14.21875 64 C 14.21875 36.929688 36.507812 14.984375 64 14.984375 C 91.492188 14.984375 113.78125 36.929688 113.78125 64 Z M 113.78125 64 "/>
</clipPath>
<clipPath id="clip5">
  <path d="M 35.75 51.25 L 76 51.25 L 76 101.25 L 35.75 101.25 Z M 35.75 51.25 "/>
</clipPath>
<clipPath id="clip6">
  <path d="M 113.78125 64 C 113.78125 91.070312 91.492188 113.015625 64 113.015625 C 36.507812 113.015625 14.21875 91.070312 14.21875 64 C 14.21875 36.929688 36.507812 14.984375 64 14.984375 C 91.492188 14.984375 113.78125 36.929688 113.78125 64 Z M 113.78125 64 "/>
</clipPath>
<clipPath id="clip7">
  <path d="M 38.25 91.5 L 55.5 91.5 L 55.5 96.75 L 38.25 96.75 Z M 38.25 91.5 "/>
</clipPath>
<clipPath id="clip8">
  <path d="M 113.78125 64 C 113.78125 91.070312 91.492188 113.015625 64 113.015625 C 36.507812 113.015625 14.21875 91.070312 14.21875 64 C 14.21875 36.929688 36.507812 14.984375 64 14.984375 C 91.492188 14.984375 113.78125 36.929688 113.78125 64 Z M 113.78125 64 "/>
</clipPath>
<clipPath id="clip9">
  <path d="M 38 79.25 L 54.75 79.25 L 54.75 83.75 L 38 83.75 Z M 38 79.25 "/>
</clipPath>
<clipPath id="clip10">
  <path d="M 113.78125 64 C 113.78125 91.070312 91.492188 113.015625 64 113.015625 C 36.507812 113.015625 14.21875 91.070312 14.21875 64 C 14.21875 36.929688 36.507812 14.984375 64 14.984375 C 91.492188 14.984375 113.78125 36.929688 113.78125 64 Z M 113.78125 64 "/>
</clipPath>
<clipPath id="clip11">
  <path d="M 14 20.25 L 41.25 20.25 L 41.25 86.25 L 14 86.25 Z M 14 20.25 "/>
</clipPath>
<clipPath id="clip12">
  <path d="M 113.78125 64 C 113.78125 91.070312 91.492188 113.015625 64 113.015625 C 36.507812 113.015625 14.21875 91.070312 14.21875 64 C 14.21875 36.929688 36.507812 14.984375 64 14.984375 C 91.492188 14.984375 113.78125 36.929688 113.78125 64 Z M 113.78125 64 "/>
</clipPath>
</defs>
<g id="surface1">
<path style="fill-rule:evenodd;fill:rgb(13.333333%,12.941176%,29.019608%);fill-opacity:1;stroke-width:31.050983;stroke-linecap:butt;stroke-linejoin:miter;stroke:rgb(91.372549%,10.588235%,0%);stroke-opacity:1;stroke-miterlimit:4;" d="M 83.906248 21.248797 L 428.093748 21.248797 C 457.171873 21.248797 480.749998 44.830349 480.749998 73.902626 L 480.749998 446.081727 C 480.749998 475.169873 457.171873 498.735556 428.093748 498.735556 L 83.906248 498.735556 C 54.828123 498.735556 31.249998 475.169873 31.249998 446.081727 L 31.249998 73.902626 C 31.249998 44.830349 54.828123 21.248797 83.906248 21.248797 Z M 83.906248 21.248797 " transform="matrix(0.25,0,0,0.246154,0.000000476838,-0.0000023475)"/>
<g clip-path="url(#clip1)" clip-rule="nonzero">
<g clip-path="url(#clip2)" clip-rule="nonzero">
<path style=" stroke:none;fill-rule:nonzero;fill:rgb(91.372549%,10.588235%,0%);fill-opacity:1;" d="M 58.140625 113.117188 C 51.964844 112.070312 49.324219 111.390625 45.253906 109.800781 C 36.179688 106.253906 27.8125 99.660156 22.332031 91.726562 C 20.929688 89.703125 19.320312 86.921875 19.320312 86.53125 C 19.320312 86.328125 19.007812 85.550781 18.628906 84.804688 C 16.796875 81.203125 15.332031 76.589844 14.457031 71.65625 C 13.953125 68.8125 13.898438 68.035156 13.90625 63.851562 C 13.914062 59.742188 13.980469 58.855469 14.464844 56.175781 C 16.875 42.828125 24.0625 31.5 34.914062 23.9375 C 36.8125 22.617188 40.488281 20.398438 42.53125 19.34375 C 44.929688 18.101562 50.789062 16.078125 51.988281 16.078125 C 52.304688 16.078125 53.242188 15.933594 54.070312 15.761719 C 58.074219 14.914062 65.015625 14.609375 69.390625 15.082031 C 80.535156 16.289062 91.410156 21.46875 99.429688 29.394531 C 106.851562 36.722656 111.53125 45.828125 113.429688 56.597656 C 114.09375 60.375 114.09375 67.53125 113.429688 71.304688 C 112.089844 78.921875 109.746094 84.867188 105.703125 90.921875 C 99.914062 99.578125 91.84375 105.960938 81.75 109.871094 C 80.441406 110.378906 78.917969 110.902344 78.359375 111.039062 C 77.800781 111.175781 77.019531 111.449219 76.625 111.648438 C 76.230469 111.84375 74.65625 112.253906 73.132812 112.554688 C 70.5625 113.0625 69.9375 113.105469 64.507812 113.152344 C 61.289062 113.179688 58.421875 113.164062 58.140625 113.117188 Z M 58.140625 113.117188 "/>
</g>
</g>
<g clip-path="url(#clip3)" clip-rule="nonzero">
<g clip-path="url(#clip4)" clip-rule="nonzero">
<path style=" stroke:none;fill-rule:nonzero;fill:rgb(13.333333%,12.941176%,29.019608%);fill-opacity:1;" d="M 78.21875 109.738281 C 79.210938 107.867188 80.128906 105.292969 80.453125 103.449219 C 80.84375 101.234375 80.59375 97.339844 79.925781 95.285156 C 78.75 91.667969 76.648438 88.109375 72.492188 82.707031 C 68.707031 77.78125 67.699219 75.34375 67.703125 71.125 C 67.703125 68.539062 68.085938 66.722656 69.324219 63.402344 C 70.4375 60.425781 70.753906 59.132812 70.90625 56.976562 C 71.339844 50.84375 68.421875 46.875 64.117188 47.757812 C 62.144531 48.160156 61.441406 49.023438 59.78125 53.089844 C 59.101562 54.757812 58.480469 55.523438 57.367188 56.082031 C 56.335938 56.601562 54.527344 56.777344 53.375 56.46875 L 52.5 56.238281 L 52.5 36.125 C 52.5 25.0625 52.539062 16.007812 52.589844 16.007812 C 52.640625 16.007812 53.355469 15.867188 54.179688 15.691406 C 58.1875 14.84375 65.132812 14.539062 69.503906 15.011719 C 80.648438 16.21875 91.523438 21.40625 99.542969 29.339844 C 106.960938 36.679688 111.648438 45.789062 113.539062 56.578125 C 114.207031 60.355469 114.207031 67.519531 113.539062 71.300781 C 112.203125 78.921875 109.859375 84.878906 105.8125 90.9375 C 102.023438 96.609375 97.605469 100.992188 91.765625 104.863281 C 88.15625 107.257812 80.746094 110.679688 78.128906 111.164062 L 77.386719 111.296875 Z M 78.21875 109.738281 "/>
</g>
</g>
<g clip-path="url(#clip5)" clip-rule="nonzero">
<g clip-path="url(#clip6)" clip-rule="nonzero">
<path style=" stroke:none;fill-rule:nonzero;fill:rgb(13.333333%,12.941176%,29.019608%);fill-opacity:1;" d="M 70.289062 100.929688 C 69.519531 100.601562 68.609375 99.503906 67.03125 97.011719 C 63.726562 91.789062 59.734375 88.257812 55.527344 86.828125 C 53.195312 86.035156 51.546875 85.859375 46.355469 85.851562 C 41.40625 85.847656 40.210938 85.695312 38.59375 84.886719 C 37.671875 84.425781 37.367188 84.128906 36.8125 83.140625 C 36.445312 82.484375 36.035156 81.382812 35.90625 80.695312 C 35.578125 79 35.984375 76.75 37.484375 71.894531 C 39.214844 66.28125 39.226562 64.265625 37.550781 60.601562 C 36.328125 57.921875 36.492188 56.496094 38.0625 56.207031 C 38.792969 56.070312 40.742188 56.425781 41.191406 56.777344 C 41.375 56.921875 41.449219 57.835938 41.449219 60.0625 C 41.449219 62.34375 41.515625 63.203125 41.714844 63.367188 C 42.480469 63.992188 49.554688 64.167969 51.5 63.609375 C 52.429688 63.34375 52.53125 63.136719 52.539062 61.523438 L 52.539062 60.152344 L 53.824219 60.28125 C 56.277344 60.523438 58.984375 59.730469 60.6875 58.265625 C 61.90625 57.21875 63.144531 55.300781 63.625 53.710938 C 64.117188 52.089844 65.027344 51.109375 65.777344 51.390625 C 67.414062 52.007812 67.007812 56.898438 64.765625 63.640625 C 63.179688 68.402344 63.105469 71.851562 64.492188 76.140625 C 65.160156 78.195312 65.957031 79.605469 68.660156 83.523438 C 71.609375 87.792969 73.808594 91.34375 74.976562 93.714844 C 75.992188 95.773438 76.25 97.8125 75.65625 99.046875 C 74.863281 100.691406 72.042969 101.679688 70.289062 100.929688 Z M 70.289062 100.929688 "/>
</g>
</g>
<g clip-path="url(#clip7)" clip-rule="nonzero">
<g clip-path="url(#clip8)" clip-rule="nonzero">
<path style=" stroke:none;fill-rule:nonzero;fill:rgb(13.333333%,12.941176%,29.019608%);fill-opacity:1;" d="M 53.976562 96.3125 C 55.296875 95.695312 55.746094 94.414062 55.097656 93.09375 C 54.367188 91.605469 54.222656 91.578125 46.890625 91.578125 C 39.957031 91.578125 39.777344 91.605469 38.890625 92.714844 C 38.367188 93.371094 38.316406 94.726562 38.792969 95.394531 C 38.976562 95.652344 39.414062 96.035156 39.769531 96.246094 C 40.367188 96.605469 40.875 96.632812 46.851562 96.632812 C 52.304688 96.632812 53.394531 96.585938 53.976562 96.3125 Z M 53.976562 96.3125 "/>
</g>
</g>
<g clip-path="url(#clip9)" clip-rule="nonzero">
<g clip-path="url(#clip10)" clip-rule="nonzero">
<path style=" stroke:none;fill-rule:nonzero;fill:rgb(91.372549%,10.588235%,0%);fill-opacity:1;" d="M 39.386719 83.335938 C 38.691406 83.058594 38.074219 82.132812 38.074219 81.363281 C 38.074219 80.835938 38.246094 80.492188 38.773438 79.976562 L 39.472656 79.289062 L 53.242188 79.289062 L 53.867188 79.804688 C 54.65625 80.457031 54.871094 81.433594 54.417969 82.292969 C 53.78125 83.5 53.558594 83.535156 46.351562 83.523438 C 42.757812 83.515625 39.625 83.429688 39.386719 83.335938 Z M 39.386719 83.335938 "/>
</g>
</g>
<g clip-path="url(#clip11)" clip-rule="nonzero">
<g clip-path="url(#clip12)" clip-rule="nonzero">
<path style=" stroke:none;fill-rule:nonzero;fill:rgb(13.333333%,12.941176%,29.019608%);fill-opacity:1;" d="M 18.234375 84.257812 C 16.40625 80.382812 15.144531 76.242188 14.296875 71.328125 C 13.898438 69.015625 13.828125 67.890625 13.835938 63.949219 C 13.84375 59.824219 13.90625 58.953125 14.390625 56.265625 C 16.785156 42.984375 23.871094 31.738281 34.648438 24.121094 C 36.632812 22.714844 40.585938 20.367188 40.960938 20.367188 C 41.171875 20.367188 41.214844 23.582031 41.171875 36.695312 L 41.121094 53.027344 L 40.136719 53.089844 C 38.257812 53.207031 35.839844 51.679688 34.855469 49.757812 C 34.417969 48.902344 34.335938 48.398438 34.214844 45.71875 C 34.132812 43.882812 33.941406 42.203125 33.738281 41.515625 C 33.152344 39.53125 31.277344 37.984375 29.066406 37.65625 C 26.46875 37.273438 23.890625 39.140625 22.109375 42.691406 C 19.917969 47.074219 19.546875 51.34375 20.898438 56.601562 C 21.121094 57.453125 21.8125 59.683594 22.4375 61.554688 C 25.074219 69.429688 25.328125 72.148438 23.863281 76.6875 C 23.355469 78.257812 19.496094 86.09375 19.230469 86.09375 C 19.160156 86.09375 18.710938 85.265625 18.234375 84.257812 Z M 18.234375 84.257812 "/>
</g>
</g>
<path style=" stroke:none;fill-rule:evenodd;fill:rgb(91.372549%,10.588235%,0%);fill-opacity:1;" d="M 41.023438 21.851562 L 41.023438 6.984375 L 52.277344 6.984375 L 52.515625 16.726562 L 45.757812 25.109375 Z M 41.023438 21.851562 "/>
<path style=" stroke:none;fill-rule:evenodd;fill:rgb(91.372549%,10.588235%,0%);fill-opacity:1;" d="M 19.429688 85.847656 L 13.199219 100.339844 C 8.757812 110.671875 24.34375 118.128906 37.050781 118.195312 C 37.050781 118.191406 62.3125 118.773438 72.457031 118.195312 C 75.359375 118.03125 77.460938 111.15625 77.460938 111.15625 C 56.421875 107.386719 35.671875 102.832031 19.429688 85.847656 Z M 19.429688 85.847656 "/>
</g>
</svg>
