
<svg xmlns="http://www.w3.org/2000/svg" xmlns:xlink="http://www.w3.org/1999/xlink" width="128px" height="128px" viewBox="0 0 128 128" version="1.1">
<g id="surface1">
<path style="fill-rule:nonzero;fill:rgb(89.411765%,87.843137%,72.156863%);fill-opacity:1;stroke-width:2.614551;stroke-linecap:butt;stroke-linejoin:miter;stroke:rgb(47.45098%,14.117647%,14.117647%);stroke-opacity:1;stroke-miterlimit:4;" d="M 7.814941 2.585449 L 40.185057 2.585449 C 43.073729 2.585449 45.414549 4.926269 45.414549 7.814941 L 45.414549 40.185057 C 45.414549 43.073729 43.073729 45.414549 40.185057 45.414549 L 7.814941 45.414549 C 4.926269 45.414549 2.585449 43.073729 2.585449 40.185057 L 2.585449 7.814941 C 2.585449 4.926269 4.926269 2.585449 7.814941 2.585449 Z M 7.814941 2.585449 " transform="matrix(2.666667,0,0,2.666667,0,0)"/>
<path style="fill:none;stroke-width:1;stroke-linecap:butt;stroke-linejoin:miter;stroke:rgb(0%,0%,0%);stroke-opacity:1;stroke-miterlimit:4;" d="M 27.555175 25.133788 L 17.847656 12.836425 L 5.550293 26.787597 C 5.477051 27.739745 10.841308 27.36621 11.591308 27.793944 C 12.902343 28.541015 8.085937 29.560546 8.427246 31.029784 C 8.99707 33.480468 14.750976 31.15869 15.546386 33.546386 C 15.955078 34.776854 13.013671 35.541503 13.388671 36.782225 C 13.892578 38.449218 18.206542 38.796386 18.206542 38.796386 L 18.062988 38.579589 " transform="matrix(2.666667,0,0,2.666667,0,0)"/>
<path style=" stroke:none;fill-rule:evenodd;fill:rgb(20%,20%,20%);fill-opacity:1;" d="M 51.460938 104.949219 C 60.90625 103.328125 57.957031 100.523438 66.210938 88.113281 C 69.21875 83.585938 75.808594 88.898438 73.375 92.5625 C 65.96875 103.695312 62.160156 105.207031 51.460938 104.949219 Z M 51.460938 104.949219 "/>
<path style=" stroke:none;fill-rule:evenodd;fill:rgb(49.019608%,15.294118%,15.294118%);fill-opacity:1;" d="M 112.5625 26.023438 C 114.117188 27.054688 91.699219 65.832031 82.671875 77.722656 C 73.640625 89.613281 68.972656 86.507812 76.445312 73.582031 C 83.917969 60.65625 111.007812 24.984375 112.5625 26.023438 Z M 112.5625 26.023438 "/>
<path style=" stroke:none;fill-rule:evenodd;fill:rgb(0%,0%,0%);fill-opacity:1;" d="M 46.871094 43.523438 L 26.9375 65.898438 C 47.992188 87.453125 39.578125 54.15625 65.039062 65.492188 Z M 46.871094 43.523438 "/>
</g>
</svg>
