
<svg xmlns="http://www.w3.org/2000/svg" xmlns:xlink="http://www.w3.org/1999/xlink" width="128px" height="128px" viewBox="0 0 128 128" version="1.1">
<g id="surface1">
<path style="fill-rule:nonzero;fill:rgb(100%,100%,100%);fill-opacity:1;stroke-width:7.075311;stroke-linecap:butt;stroke-linejoin:miter;stroke:rgb(27.058824%,52.54902%,72.54902%);stroke-opacity:1;stroke-miterlimit:4;" d="M 20.199219 6.050781 L 107.800781 6.050781 C 115.613281 6.050781 121.949219 12.386719 121.949219 20.199219 L 121.949219 107.800781 C 121.949219 115.613281 115.613281 121.949219 107.800781 121.949219 L 20.199219 121.949219 C 12.386719 121.949219 6.050781 115.613281 6.050781 107.800781 L 6.050781 20.199219 C 6.050781 12.386719 12.386719 6.050781 20.199219 6.050781 Z M 20.199219 6.050781 "/>
<path style=" stroke:none;fill-rule:nonzero;fill:rgb(97.647059%,97.647059%,97.647059%);fill-opacity:1;" d="M 54.980469 26.53125 C 54.980469 29.992188 52.167969 32.804688 48.703125 32.804688 C 45.242188 32.804688 42.429688 29.992188 42.429688 26.53125 C 42.429688 23.066406 45.242188 20.257812 48.703125 20.257812 C 52.167969 20.257812 54.980469 23.066406 54.980469 26.53125 M 54.980469 26.53125 "/>
<path style=" stroke:none;fill-rule:nonzero;fill:rgb(27.058824%,52.54902%,72.54902%);fill-opacity:1;" d="M 63.3125 14.046875 C 59.179688 16615.796875 55.222656 14.425781 51.742188 15.027344 C 41.5 16.828125 39.632812 20.566406 39.632812 27.480469 L 39.632812 36.617188 L 63.847656 36.617188 L 63.847656 39.65625 L 30.546875 39.65625 C 23.503906 39.65625 17.347656 43.839844 15.417969 51.792969 C 13.195312 60.914062 13.078125 66.613281 15.417969 76.121094 C 17.132812 83.210938 21.238281 88.257812 28.277344 88.257812 L 35.398438 88.257812 L 35.398438 76.140625 C 35.398438 68.246094 42.328125 61.320312 50.546875 61.320312 L 75.894531 61.320312 C 82.625 61.320312 89 55.828125 89 49.148438 L 89 27.53125 C 89 21.042969 82.476562 16.15625 75.894531 15.078125 C 71.742188 14.390625 67.429688 14.082031 63.304688 14.097656 M 50.214844 21.386719 C 52.71875 21.386719 54.757812 23.445312 54.757812 25.976562 C 54.757812 28.496094 52.71875 30.519531 50.214844 30.519531 C 47.695312 30.519531 45.65625 28.496094 45.65625 25.976562 C 45.65625 23.445312 47.679688 21.386719 50.214844 21.386719 M 50.214844 21.386719 "/>
<path style=" stroke:none;fill-rule:nonzero;fill:rgb(97.647059%,97.647059%,97.647059%);fill-opacity:1;" d="M 84.277344 101.820312 C 84.277344 105.285156 81.464844 108.09375 78 108.09375 C 74.523438 108.09375 71.710938 105.285156 71.710938 101.820312 C 71.710938 98.359375 74.523438 95.546875 78 95.546875 C 81.464844 95.546875 84.277344 98.359375 84.277344 101.820312 M 84.277344 101.820312 "/>
<path style=" stroke:none;fill-rule:nonzero;fill:rgb(100%,90.196078%,20.392157%);fill-opacity:1;" d="M 92.445312 39.648438 L 92.445312 50.285156 C 92.445312 58.519531 85.371094 64.484375 77.316406 64.484375 L 50.746094 64.484375 C 44.128906 64.484375 38.636719 71.085938 38.636719 77.640625 L 38.636719 100.449219 C 38.636719 106.9375 44.339844 110.742188 50.746094 112.605469 C 58.410156 114.824219 66.757812 115.25 75.925781 112.605469 C 82.023438 110.855469 88.035156 107.34375 88.035156 100.449219 L 88.035156 91.3125 L 63.855469 91.3125 L 63.855469 88.273438 L 100.164062 88.273438 C 107.1875 88.273438 109.820312 83.40625 112.273438 76.132812 C 114.804688 68.632812 114.671875 61.410156 112.273438 51.804688 C 110.523438 44.863281 107.207031 39.667969 100.164062 39.667969 M 77.46875 97.414062 C 79.96875 97.414062 82.007812 99.4375 82.007812 101.953125 C 82.007812 104.472656 79.984375 106.546875 77.46875 106.546875 C 74.949219 106.546875 72.90625 104.472656 72.90625 101.953125 C 72.90625 99.4375 74.949219 97.414062 77.46875 97.414062 M 77.46875 97.414062 "/>
</g>
</svg>
