
<svg xmlns="http://www.w3.org/2000/svg" xmlns:xlink="http://www.w3.org/1999/xlink" width="128px" height="128px" viewBox="0 0 128 128" version="1.1">
<g id="surface1">
<path style="fill-rule:nonzero;fill:rgb(100%,100%,100%);fill-opacity:1;stroke-width:7.141507;stroke-linecap:butt;stroke-linejoin:miter;stroke:rgb(20%,61.176471%,75.294118%);stroke-opacity:1;stroke-miterlimit:4;" d="M 19.792969 5.507812 L 108.207031 5.507812 C 116.097656 5.507812 122.492188 11.902344 122.492188 19.792969 L 122.492188 108.207031 C 122.492188 116.097656 116.097656 122.492188 108.207031 122.492188 L 19.792969 122.492188 C 11.902344 122.492188 5.507812 116.097656 5.507812 108.207031 L 5.507812 19.792969 C 5.507812 11.902344 11.902344 5.507812 19.792969 5.507812 Z M 19.792969 5.507812 "/>
<path style="fill-rule:nonzero;fill:rgb(100%,100%,100%);fill-opacity:1;stroke-width:9.8846;stroke-linecap:butt;stroke-linejoin:miter;stroke:rgb(20%,61.176471%,75.294118%);stroke-opacity:1;stroke-miterlimit:4;" d="M 64.238281 22 C 87.753906 22 106.8125 41.0625 106.8125 64.578125 C 106.8125 88.09375 87.753906 107.152344 64.238281 107.152344 C 40.722656 107.152344 21.660156 88.09375 21.660156 64.578125 C 21.660156 41.0625 40.722656 22 64.238281 22 Z M 64.238281 22 "/>
<path style="fill-rule:nonzero;fill:rgb(100%,100%,100%);fill-opacity:1;stroke-width:9.8846;stroke-linecap:butt;stroke-linejoin:miter;stroke:rgb(20%,61.176471%,75.294118%);stroke-opacity:1;stroke-miterlimit:4;" d="M 64.238281 41.953125 C 76.730469 41.953125 86.859375 52.082031 86.859375 64.578125 C 86.859375 77.070312 76.730469 87.199219 64.238281 87.199219 C 51.742188 87.199219 41.613281 77.070312 41.613281 64.578125 C 41.613281 52.082031 51.742188 41.953125 64.238281 41.953125 Z M 64.238281 41.953125 "/>
<path style="fill-rule:nonzero;fill:rgb(20%,61.176471%,75.294118%);fill-opacity:1;stroke-width:4.118584;stroke-linecap:round;stroke-linejoin:miter;stroke:rgb(20%,61.176471%,75.294118%);stroke-opacity:1;stroke-miterlimit:4;" d="M 68.378906 64.386719 C 68.378906 66.570312 66.609375 68.34375 64.425781 68.34375 C 62.242188 68.34375 60.472656 66.570312 60.472656 64.386719 C 60.472656 62.203125 62.242188 60.433594 64.425781 60.433594 C 66.609375 60.433594 68.378906 62.203125 68.378906 64.386719 Z M 68.378906 64.386719 "/>
<path style="fill-rule:nonzero;fill:rgb(97.647059%,97.647059%,97.647059%);fill-opacity:1;stroke-width:0.823717;stroke-linecap:butt;stroke-linejoin:miter;stroke:rgb(48.235294%,49.803922%,53.333333%);stroke-opacity:1;stroke-miterlimit:4;" d="M 101.578125 70.390625 L 97.316406 66.132812 C 92.894531 61.710938 85.722656 61.710938 81.300781 66.132812 L 62.5625 84.871094 C 58.140625 89.292969 58.140625 96.464844 62.5625 100.890625 L 66.820312 105.144531 C 71.242188 109.566406 78.417969 109.566406 82.839844 105.144531 L 101.578125 86.40625 C 106 81.984375 106 74.8125 101.578125 70.390625 M 101.578125 70.390625 "/>
<path style="fill-rule:nonzero;fill:rgb(20%,61.176471%,75.294118%);fill-opacity:1;stroke-width:0.823717;stroke-linecap:butt;stroke-linejoin:miter;stroke:rgb(48.235294%,49.803922%,53.333333%);stroke-opacity:1;stroke-miterlimit:4;" d="M 101.578125 70.382812 C 106.015625 74.820312 106.015625 81.964844 101.578125 86.402344 L 100.894531 87.082031 L 80.601562 66.785156 L 81.285156 66.109375 C 85.714844 61.671875 92.867188 61.671875 97.300781 66.109375 M 101.578125 70.382812 "/>
<path style=" stroke:none;fill-rule:nonzero;fill:rgb(97.647059%,97.647059%,97.647059%);fill-opacity:1;" d="M 94.042969 70.96875 C 93.296875 71.714844 93.296875 72.917969 94.042969 73.660156 C 94.785156 74.40625 95.988281 74.40625 96.734375 73.660156 C 97.476562 72.917969 97.476562 71.714844 96.734375 70.96875 C 95.988281 70.226562 94.785156 70.226562 94.042969 70.96875 M 94.042969 70.96875 "/>
<path style="fill:none;stroke-width:0.823068;stroke-linecap:butt;stroke-linejoin:round;stroke:rgb(52.54902%,52.54902%,52.54902%);stroke-opacity:1;stroke-miterlimit:4;" d="M 95.347656 72.46875 C 101.734375 74.339844 97.375 82.828125 101.734375 89.292969 C 102.117188 107.355469 75.695312 114.757812 98.535156 94.902344 C 107.558594 84.046875 99.0625 75.800781 95.347656 72.46875 M 95.347656 72.46875 "/>
<path style=" stroke:none;fill-rule:evenodd;fill:rgb(48.235294%,49.803922%,53.333333%);fill-opacity:1;" d="M 97.179688 65.886719 L 101.890625 70.574219 L 101.570312 70.941406 L 96.867188 66.253906 Z M 97.179688 65.886719 "/>
<path style=" stroke:none;fill-rule:nonzero;fill:rgb(52.54902%,52.54902%,52.54902%);fill-opacity:1;" d="M 66.558594 87.945312 L 68.269531 86.269531 L 70.644531 88.691406 L 70.742188 83.851562 L 72.726562 81.90625 L 72.609375 88.183594 L 79.5625 88.222656 L 77.417969 90.324219 L 72.210938 90.296875 L 74.773438 92.910156 L 73.0625 94.585938 Z M 66.558594 87.945312 "/>
<path style=" stroke:none;fill-rule:nonzero;fill:rgb(48.235294%,49.803922%,53.333333%);fill-opacity:1;" d="M 74.175781 95.722656 L 75.886719 94.046875 L 82.390625 100.6875 L 80.679688 102.363281 Z M 74.175781 95.722656 "/>
<path style=" stroke:none;fill-rule:nonzero;fill:rgb(48.235294%,49.803922%,53.333333%);fill-opacity:1;" d="M 80.566406 91.996094 L 84.535156 96.046875 L 85.148438 95.445312 C 85.847656 94.761719 86.210938 94.066406 86.242188 93.355469 C 86.273438 92.648438 85.964844 91.964844 85.320312 91.300781 C 84.671875 90.644531 83.996094 90.324219 83.292969 90.339844 C 82.589844 90.355469 81.886719 90.707031 81.179688 91.394531 Z M 77.589844 92.378906 L 79.398438 90.609375 C 80.40625 89.625 81.226562 88.960938 81.859375 88.621094 C 82.492188 88.28125 83.15625 88.109375 83.847656 88.109375 C 84.449219 88.109375 85.019531 88.226562 85.554688 88.46875 C 86.089844 88.710938 86.601562 89.082031 87.085938 89.574219 C 87.574219 90.078125 87.9375 90.601562 88.171875 91.140625 C 88.40625 91.683594 88.511719 92.253906 88.496094 92.855469 C 88.476562 93.546875 88.289062 94.207031 87.929688 94.839844 C 87.570312 95.472656 86.894531 96.277344 85.902344 97.25 L 84.09375 99.019531 Z M 77.589844 92.378906 "/>
<path style=" stroke:none;fill-rule:nonzero;fill:rgb(48.235294%,49.803922%,53.333333%);fill-opacity:1;" d="M 91.609375 84.640625 C 92.171875 84.320312 92.707031 84.191406 93.222656 84.25 C 93.734375 84.308594 94.207031 84.558594 94.640625 84.996094 C 95.285156 85.65625 95.523438 86.402344 95.355469 87.238281 C 95.183594 88.074219 94.617188 88.964844 93.652344 89.910156 C 93.308594 90.246094 92.941406 90.554688 92.542969 90.835938 C 92.144531 91.117188 91.726562 91.367188 91.289062 91.582031 L 89.996094 90.261719 C 90.472656 90.109375 90.90625 89.917969 91.304688 89.691406 C 91.699219 89.464844 92.050781 89.199219 92.355469 88.898438 C 92.808594 88.457031 93.078125 88.039062 93.167969 87.644531 C 93.253906 87.25 93.15625 86.90625 92.871094 86.609375 C 92.574219 86.308594 92.222656 86.203125 91.824219 86.289062 C 91.425781 86.375 90.984375 86.65625 90.5 87.128906 L 89.8125 87.800781 L 88.730469 86.695312 L 89.453125 85.988281 C 89.882812 85.566406 90.136719 85.1875 90.21875 84.847656 C 90.296875 84.507812 90.199219 84.199219 89.929688 83.921875 C 89.679688 83.664062 89.386719 83.566406 89.046875 83.628906 C 88.707031 83.691406 88.347656 83.90625 87.972656 84.273438 C 87.695312 84.542969 87.449219 84.847656 87.226562 85.183594 C 87.003906 85.523438 86.816406 85.890625 86.65625 86.28125 L 85.425781 85.027344 C 85.671875 84.601562 85.9375 84.203125 86.222656 83.828125 C 86.507812 83.457031 86.8125 83.113281 87.132812 82.800781 C 87.996094 81.957031 88.777344 81.464844 89.484375 81.328125 C 90.191406 81.191406 90.820312 81.40625 91.378906 81.972656 C 91.757812 82.363281 91.96875 82.785156 92.007812 83.230469 C 92.046875 83.679688 91.914062 84.148438 91.609375 84.640625 Z M 91.609375 84.640625 "/>
</g>
</svg>
