
<svg xmlns="http://www.w3.org/2000/svg" xmlns:xlink="http://www.w3.org/1999/xlink" width="128px" height="128px" viewBox="0 0 128 128" version="1.1">
<g id="surface1">
<path style="fill-rule:nonzero;fill:rgb(72.941176%,9.019608%,30.588235%);fill-opacity:1;stroke-width:27.878233;stroke-linecap:butt;stroke-linejoin:miter;stroke:rgb(79.215686%,35.686275%,50.588235%);stroke-opacity:1;stroke-miterlimit:4;" d="M 83.421875 27.65625 L 428.578125 27.65625 C 459.375 27.65625 484.34375 52.625 484.34375 83.421875 L 484.34375 428.578125 C 484.34375 459.375 459.375 484.34375 428.578125 484.34375 L 83.421875 484.34375 C 52.625 484.34375 27.65625 459.375 27.65625 428.578125 L 27.65625 83.421875 C 27.65625 52.625 52.625 27.65625 83.421875 27.65625 Z M 83.421875 27.65625 " transform="matrix(0.25,0,0,0.25,0,0)"/>
<path style=" stroke:none;fill-rule:evenodd;fill:rgb(100%,100%,100%);fill-opacity:1;" d="M 84.367188 34.320312 C 82.085938 36.476562 76.804688 41.007812 76.804688 41.007812 L 89.171875 53.464844 C 89.171875 53.464844 94.527344 47.964844 96.945312 45.683594 C 97.546875 45.117188 97.46875 43.84375 96.867188 43.277344 C 94.992188 41.507812 91.882812 38.632812 91.882812 38.632812 C 91.882812 38.632812 88.953125 35.851562 87.152344 34.148438 C 86.492188 33.527344 85.023438 33.703125 84.367188 34.320312 Z M 71.371094 45.457031 L 38.316406 76.597656 L 38.601562 88.914062 L 51.503906 88.839844 L 84.199219 57.984375 Z M 71.371094 45.457031 "/>
</g>
</svg>
