
<svg xmlns="http://www.w3.org/2000/svg" xmlns:xlink="http://www.w3.org/1999/xlink" width="128px" height="128px" viewBox="0 0 128 128" version="1.1">
<g id="surface1">
<path style="fill-rule:nonzero;fill:rgb(100%,100%,100%);fill-opacity:1;stroke-width:7.167403;stroke-linecap:butt;stroke-linejoin:miter;stroke:rgb(67.45098%,57.647059%,57.647059%);stroke-opacity:1;stroke-miterlimit:4;" d="M 19.628906 0.14633 L 108.371094 0.14633 C 116.285156 0.14633 122.703125 6.564299 122.703125 14.478361 L 122.703125 103.220549 C 122.703125 111.134611 116.285156 117.55258 108.371094 117.55258 L 19.628906 117.55258 C 11.714844 117.55258 5.296875 111.134611 5.296875 103.220549 L 5.296875 14.478361 C 5.296875 6.564299 11.714844 0.14633 19.628906 0.14633 Z M 19.628906 0.14633 " transform="matrix(1,0,0,1,0,5.150545)"/>
<path style="fill-rule:nonzero;fill:rgb(100%,100%,100%);fill-opacity:1;stroke-width:1.533927;stroke-linecap:round;stroke-linejoin:round;stroke:rgb(33.333333%,34.117647%,32.54902%);stroke-opacity:1;stroke-miterlimit:10;" d="M 12.876271 -0.248577 L 74.877477 -0.248577 C 75.983217 -0.248577 76.878685 0.646891 76.878685 1.749006 L 76.878685 37.749004 C 76.878685 38.854745 75.983217 39.750213 74.877477 39.750213 L 12.876271 39.750213 C 11.774156 39.750213 10.878688 38.854745 10.878688 37.749004 L 10.878688 1.749006 C 10.878688 0.646891 11.774156 -0.248577 12.876271 -0.248577 Z M 12.876271 -0.248577 " transform="matrix(1.077474,0,0,1.077474,20.973809,34.431898)"/>
<path style=" stroke:none;fill-rule:nonzero;fill:rgb(31.372549%,28.627451%,28.627451%);fill-opacity:1;" d="M 33.773438 42.78125 L 102.730469 42.78125 L 102.730469 52.480469 L 33.773438 52.480469 Z M 33.773438 42.78125 "/>
<path style=" stroke:none;fill-rule:nonzero;fill:rgb(0%,0%,0%);fill-opacity:1;" d="M 41.554688 57.804688 L 92.996094 57.804688 L 92.996094 76.476562 L 41.554688 76.476562 Z M 41.554688 57.804688 "/>
<path style="fill-rule:nonzero;fill:rgb(100%,100%,100%);fill-opacity:1;stroke-width:1.533925;stroke-linecap:round;stroke-linejoin:round;stroke:rgb(33.333333%,34.117647%,32.54902%);stroke-opacity:1;stroke-miterlimit:10;" d="M 1.066167 -50.059294 L 63.067623 -50.059426 C 64.169939 -50.059429 65.067176 -49.162196 65.067178 -48.05988 L 65.067255 -12.057711 C 65.064694 -10.952831 64.170025 -10.058159 63.065145 -10.06072 L 1.066253 -10.058024 C -0.0386273 -10.060585 -0.9333 -10.955254 -0.933302 -12.057571 L -0.933379 -48.059739 C -0.933381 -49.162055 -0.0387126 -50.056728 1.066167 -50.059294 Z M 1.066167 -50.059294 " transform="matrix(0.761888,0.761892,-0.761892,0.761888,14.860449,54.342909)"/>
<path style=" stroke:none;fill-rule:nonzero;fill:rgb(31.372549%,28.627451%,28.627451%);fill-opacity:1;" d="M 46.953125 22.347656 L 95.714844 71.109375 L 88.859375 77.96875 L 40.097656 29.207031 Z M 46.953125 22.347656 "/>
<path style=" stroke:none;fill-rule:evenodd;fill:rgb(67.45098%,57.647059%,57.647059%);fill-opacity:1;" d="M 25.597656 51.035156 L 107.109375 51.035156 C 109.882812 51.035156 112.132812 53.285156 112.132812 56.058594 L 112.132812 105.539062 C 112.132812 108.3125 109.882812 110.5625 107.109375 110.5625 L 25.597656 110.5625 C 22.824219 110.5625 20.574219 108.3125 20.574219 105.539062 L 20.574219 56.058594 C 20.574219 53.285156 22.824219 51.035156 25.597656 51.035156 Z M 25.597656 51.035156 "/>
<path style="fill-rule:evenodd;fill:rgb(65.490196%,57.647059%,57.647059%);fill-opacity:1;stroke-width:2.892341;stroke-linecap:butt;stroke-linejoin:miter;stroke:rgb(41.176471%,35.686275%,35.686275%);stroke-opacity:1;stroke-miterlimit:4;" d="M 15.503906 67.290861 L 37.953125 67.290861 C 38.675781 67.290861 39.265625 67.880705 39.265625 68.611174 L 39.265625 81.58383 C 39.265625 82.310393 38.675781 82.900236 37.953125 82.900236 L 15.503906 82.900236 C 14.777344 82.900236 14.1875 82.310393 14.1875 81.58383 L 14.1875 68.611174 C 14.1875 67.880705 14.777344 67.290861 15.503906 67.290861 Z M 15.503906 67.290861 " transform="matrix(1,0,0,1,0,5.150545)"/>
<path style=" stroke:none;fill-rule:nonzero;fill:rgb(78.431373%,76.862745%,71.764706%);fill-opacity:1;" d="M 34.476562 80.039062 C 34.476562 82.859375 32.0625 85.15625 29.074219 85.175781 C 26.085938 85.195312 23.640625 82.933594 23.597656 80.109375 C 23.554688 77.289062 25.929688 74.960938 28.917969 74.902344 C 31.90625 74.84375 34.386719 77.070312 34.472656 79.890625 "/>
<path style=" stroke:none;fill-rule:nonzero;fill:rgb(100%,96.470588%,83.529412%);fill-opacity:1;" d="M 29.851562 78.703125 C 29.851562 79.933594 28.800781 80.9375 27.496094 80.945312 C 26.195312 80.953125 25.125 79.96875 25.109375 78.734375 C 25.089844 77.503906 26.125 76.488281 27.429688 76.460938 C 28.734375 76.4375 29.8125 77.40625 29.851562 78.640625 "/>
</g>
</svg>
