
<svg xmlns="http://www.w3.org/2000/svg" xmlns:xlink="http://www.w3.org/1999/xlink" width="128px" height="128px" viewBox="0 0 128 128" version="1.1">
<g id="surface1">
<path style="fill-rule:nonzero;fill:rgb(100%,100%,100%);fill-opacity:1;stroke-width:27.910587;stroke-linecap:butt;stroke-linejoin:miter;stroke:rgb(99.215686%,41.568627%,0%);stroke-opacity:1;stroke-miterlimit:4;" d="M 83.21875 27.40625 L 428.78125 27.40625 C 459.609375 27.40625 484.59375 52.390625 484.59375 83.21875 L 484.59375 428.78125 C 484.59375 459.609375 459.609375 484.59375 428.78125 484.59375 L 83.21875 484.59375 C 52.390625 484.59375 27.40625 459.609375 27.40625 428.78125 L 27.40625 83.21875 C 27.40625 52.390625 52.390625 27.40625 83.21875 27.40625 Z M 83.21875 27.40625 " transform="matrix(0.25,0,0,0.25,0,0)"/>
<path style=" stroke:none;fill-rule:nonzero;fill:rgb(99.215686%,49.411765%,0%);fill-opacity:0.741176;" d="M 22.890625 10.347656 C 17.902344 10.390625 14.09375 15.609375 14.8125 20.710938 C 14.835938 50.382812 14.761719 80.054688 14.847656 109.726562 C 15.214844 114.746094 19.996094 118.328125 24.625 117.65625 C 53.160156 117.628906 81.695312 117.707031 110.226562 117.613281 C 115.007812 117.234375 118.375 112.164062 117.742188 107.289062 C 117.742188 89.101562 117.742188 70.910156 117.742188 52.71875 C 115.8125 48.179688 111.175781 45.421875 108.171875 41.601562 C 98.351562 31.398438 88.613281 21.105469 78.730469 10.976562 C 75.976562 9.730469 72.796875 10.613281 69.851562 10.347656 C 54.195312 10.347656 38.542969 10.347656 22.890625 10.347656 Z M 89.953125 10.347656 C 88.058594 10.5 87.96875 13.265625 89.523438 14.070312 C 98.097656 22.9375 106.550781 31.964844 115.203125 40.734375 C 116.875 41.675781 118.246094 39.546875 117.742188 37.925781 C 117.628906 31.089844 117.976562 24.21875 117.554688 17.410156 C 116.800781 12.617188 112.027344 9.6875 107.628906 10.347656 C 101.738281 10.347656 95.84375 10.347656 89.953125 10.347656 Z M 89.953125 10.347656 "/>
<path style=" stroke:none;fill-rule:nonzero;fill:rgb(99.215686%,41.568627%,0%);fill-opacity:1;" d="M 9.203125 7.941406 L 29.765625 7.941406 L 29.765625 118.742188 L 9.203125 118.742188 Z M 9.203125 7.941406 "/>
<path style=" stroke:none;fill-rule:nonzero;fill:rgb(100%,100%,100%);fill-opacity:1;" d="M 51.722656 95.527344 L 72.25 95.527344 L 72.25 92.199219 L 67.058594 91.792969 L 65.679688 90.660156 L 65.679688 45.949219 L 67.058594 44.8125 L 72.25 44.328125 L 72.25 41.082031 L 51.722656 41.082031 L 51.722656 44.328125 L 56.914062 44.8125 L 58.296875 45.949219 L 58.296875 90.660156 L 56.914062 91.792969 L 51.722656 92.199219 Z M 51.722656 95.527344 "/>
</g>
</svg>
