
<svg xmlns="http://www.w3.org/2000/svg" xmlns:xlink="http://www.w3.org/1999/xlink" width="128px" height="128px" viewBox="0 0 128 128" version="1.1">
<g id="surface1">
<path style="fill-rule:nonzero;fill:rgb(66.666667%,83.137255%,0%);fill-opacity:1;stroke-width:7.016501;stroke-linecap:butt;stroke-linejoin:miter;stroke:rgb(86.27451%,96.862745%,45.098039%);stroke-opacity:1;stroke-miterlimit:4;" d="M 20.5625 6.53125 L 107.4375 6.53125 C 115.1875 6.53125 121.46875 12.8125 121.46875 20.5625 L 121.46875 107.4375 C 121.46875 115.1875 115.1875 121.46875 107.4375 121.46875 L 20.5625 121.46875 C 12.8125 121.46875 6.53125 115.1875 6.53125 107.4375 L 6.53125 20.5625 C 6.53125 12.8125 12.8125 6.53125 20.5625 6.53125 Z M 20.5625 6.53125 "/>
<path style=" stroke:none;fill-rule:nonzero;fill:rgb(100%,100%,100%);fill-opacity:1;" d="M 111.585938 64.335938 C 111.585938 90.59375 90.304688 111.875 64.046875 111.875 C 37.792969 111.875 16.507812 90.59375 16.507812 64.335938 C 16.507812 38.082031 37.792969 16.796875 64.046875 16.796875 C 90.304688 16.796875 111.585938 38.082031 111.585938 64.335938 Z M 111.585938 64.335938 "/>
<path style=" stroke:none;fill-rule:nonzero;fill:rgb(66.666667%,83.137255%,0%);fill-opacity:1;" d="M 63.726562 14.800781 C 36.417969 14.800781 14.257812 36.960938 14.257812 64.273438 C 14.257812 91.582031 36.417969 113.742188 63.726562 113.742188 C 91.039062 113.742188 113.199219 91.582031 113.199219 64.273438 C 113.199219 36.960938 91.039062 14.800781 63.726562 14.800781 Z M 63.597656 17.203125 C 69.402344 17.203125 73.054688 17.960938 75.285156 19.410156 C 76.398438 20.132812 77.140625 21.085938 77.492188 22.136719 C 77.84375 23.1875 77.777344 24.257812 77.492188 25.320312 C 76.871094 27.640625 74.636719 36.351562 71.453125 46.15625 C 72.46875 44.265625 73.457031 42.40625 74.441406 40.640625 C 76.433594 37.054688 78.3125 33.835938 79.828125 31.355469 C 81.347656 28.875 82.34375 27.28125 83.140625 26.484375 C 83.667969 25.957031 84.269531 25.359375 85.023438 24.929688 C 85.777344 24.496094 86.738281 24.28125 87.8125 24.472656 C 89.96875 24.855469 92.488281 26.550781 96.578125 30.640625 C 100.683594 34.746094 102.710938 37.84375 103.265625 40.445312 C 103.542969 41.746094 103.4375 42.960938 102.941406 43.949219 C 102.445312 44.9375 101.617188 45.675781 100.667969 46.222656 C 98.578125 47.429688 90.765625 51.976562 81.515625 56.675781 C 83.601562 56.042969 85.648438 55.421875 87.621094 54.859375 C 91.566406 53.730469 95.179688 52.8125 98.007812 52.132812 C 100.835938 51.449219 102.726562 51.027344 103.851562 51.027344 C 104.597656 51.027344 105.347656 50.992188 106.1875 51.222656 C 107.027344 51.449219 107.898438 51.949219 108.523438 52.84375 C 109.777344 54.636719 110.34375 57.640625 110.34375 63.425781 C 110.34375 69.230469 109.582031 72.882812 108.136719 75.113281 C 107.414062 76.226562 106.457031 76.96875 105.410156 77.320312 C 104.359375 77.671875 103.289062 77.605469 102.226562 77.320312 C 99.957031 76.710938 91.570312 74.59375 82.039062 71.542969 C 83.675781 72.421875 85.300781 73.285156 86.839844 74.140625 C 90.425781 76.132812 93.644531 78.011719 96.125 79.527344 C 98.605469 81.046875 100.265625 82.109375 101.058594 82.902344 C 101.585938 83.433594 102.183594 83.96875 102.617188 84.722656 C 103.050781 85.476562 103.261719 86.5 103.070312 87.578125 C 102.691406 89.730469 100.929688 92.253906 96.839844 96.34375 C 92.734375 100.445312 89.636719 102.476562 87.035156 103.03125 C 85.734375 103.304688 84.585938 103.132812 83.59375 102.640625 C 82.605469 102.144531 81.804688 101.316406 81.257812 100.367188 C 80.210938 98.550781 76.625 92.40625 72.625 84.785156 C 75.1875 93.035156 77.015625 99.960938 77.558594 101.992188 C 77.839844 103.050781 77.84375 104.1875 77.492188 105.238281 C 77.140625 106.285156 76.398438 107.175781 75.285156 107.898438 C 73.054688 109.34375 69.46875 110.105469 63.664062 110.105469 C 57.878906 110.105469 54.875 109.605469 53.082031 108.351562 C 52.1875 107.726562 51.621094 106.855469 51.394531 106.015625 C 51.164062 105.175781 51.199219 104.359375 51.199219 103.613281 C 51.199219 102.488281 51.621094 100.597656 52.304688 97.769531 C 52.984375 94.945312 53.96875 91.328125 55.09375 87.382812 C 55.65625 85.410156 56.285156 83.363281 56.914062 81.28125 C 52.222656 90.503906 47.664062 98.28125 46.460938 100.367188 C 45.910156 101.316406 45.175781 102.144531 44.1875 102.640625 C 43.199219 103.132812 41.980469 103.242188 40.679688 102.964844 C 38.082031 102.410156 34.984375 100.382812 30.878906 96.277344 C 26.789062 92.1875 25.09375 89.664062 24.710938 87.515625 C 24.519531 86.4375 24.734375 85.476562 25.164062 84.722656 C 25.597656 83.96875 26.195312 83.367188 26.722656 82.839844 C 27.519531 82.042969 29.109375 81.046875 31.59375 79.527344 C 34.074219 78.011719 37.289062 76.132812 40.875 74.140625 C 42.480469 73.246094 44.164062 72.332031 45.875 71.414062 C 36.257812 74.515625 27.773438 76.707031 25.492188 77.320312 C 24.429688 77.605469 23.359375 77.671875 22.308594 77.320312 C 21.257812 76.96875 20.304688 76.164062 19.582031 75.046875 C 18.132812 72.816406 17.375 69.230469 17.375 63.425781 C 17.375 57.640625 17.9375 54.636719 19.191406 52.84375 C 19.820312 51.949219 20.6875 51.382812 21.53125 51.15625 C 22.367188 50.929688 23.183594 50.960938 23.929688 50.960938 C 25.054688 50.960938 26.882812 51.382812 29.710938 52.066406 C 32.535156 52.75 36.152344 53.730469 40.097656 54.859375 C 43.027344 55.695312 46.136719 56.683594 49.25 57.648438 C 46.378906 56.140625 43.53125 54.578125 40.875 53.105469 C 37.289062 51.109375 34.007812 49.234375 31.527344 47.714844 C 29.046875 46.199219 27.453125 45.203125 26.65625 44.40625 C 26.128906 43.875 25.53125 43.277344 25.101562 42.523438 C 24.667969 41.765625 24.453125 40.808594 24.644531 39.730469 C 25.027344 37.578125 26.722656 35.054688 30.8125 30.964844 C 34.917969 26.863281 38.015625 24.835938 40.617188 24.28125 C 41.917969 24 43.132812 24.171875 44.121094 24.667969 C 45.109375 25.164062 45.847656 25.925781 46.394531 26.875 C 47.589844 28.945312 52.113281 36.640625 56.78125 45.769531 C 56.179688 43.773438 55.570312 41.816406 55.03125 39.925781 C 53.902344 35.980469 52.984375 32.429688 52.304688 29.601562 C 51.621094 26.777344 51.199219 24.882812 51.199219 23.757812 C 51.199219 23.011719 51.164062 22.195312 51.394531 21.359375 C 51.621094 20.515625 52.121094 19.648438 53.015625 19.019531 C 54.808594 17.765625 57.8125 17.203125 63.597656 17.203125 Z M 63.597656 19.28125 C 57.964844 19.28125 55.308594 19.96875 54.25 20.710938 C 53.722656 21.078125 53.53125 21.40625 53.40625 21.875 C 53.28125 22.34375 53.277344 23.011719 53.277344 23.757812 C 53.277344 24.171875 53.644531 26.296875 54.316406 29.082031 C 54.988281 31.867188 55.921875 35.484375 57.042969 39.40625 C 59.015625 46.316406 61.5625 53.945312 63.921875 60.441406 C 69.78125 46.167969 74.523438 28.359375 75.480469 24.796875 C 75.6875 24.019531 75.734375 23.359375 75.546875 22.785156 C 75.351562 22.210938 74.921875 21.683594 74.117188 21.164062 C 72.507812 20.121094 69.210938 19.28125 63.597656 19.28125 Z M 41.71875 26.226562 C 41.515625 26.238281 41.304688 26.242188 41.070312 26.292969 C 39.199219 26.691406 36.277344 28.492188 32.304688 32.460938 C 28.324219 36.441406 26.882812 38.847656 26.65625 40.121094 C 26.546875 40.757812 26.675781 41.125 26.917969 41.546875 C 27.160156 41.96875 27.558594 42.382812 28.085938 42.914062 C 28.375 43.203125 30.1875 44.46875 32.632812 45.960938 C 35.078125 47.457031 38.285156 49.304688 41.851562 51.289062 C 48.132812 54.78125 55.324219 58.425781 61.585938 61.351562 C 55.636719 47.121094 46.417969 31.105469 44.578125 27.914062 C 44.171875 27.214844 43.753906 26.757812 43.214844 26.484375 C 42.808594 26.285156 42.328125 26.191406 41.71875 26.226562 Z M 86.648438 26.484375 C 86.421875 26.535156 86.207031 26.625 85.996094 26.746094 C 85.578125 26.988281 85.164062 27.386719 84.632812 27.914062 C 84.34375 28.203125 83.078125 30.015625 81.582031 32.460938 C 80.085938 34.90625 78.242188 38.113281 76.257812 41.679688 C 72.765625 47.960938 69.117188 55.152344 66.195312 61.414062 C 80.425781 55.464844 96.441406 46.246094 99.632812 44.40625 C 100.328125 44 100.789062 43.515625 101.058594 42.976562 C 101.328125 42.4375 101.453125 41.835938 101.253906 40.898438 C 100.855469 39.027344 99.054688 36.105469 95.085938 32.132812 C 91.101562 28.152344 88.695312 26.710938 87.425781 26.484375 C 87.109375 26.429688 86.871094 26.4375 86.648438 26.484375 Z M 22.890625 53.039062 C 22.574219 53.054688 22.28125 53.105469 22.046875 53.171875 C 21.578125 53.296875 21.25 53.484375 20.878906 54.015625 C 20.140625 55.070312 19.453125 57.792969 19.453125 63.425781 C 19.453125 69.039062 20.292969 72.335938 21.335938 73.945312 C 21.855469 74.75 22.382812 75.117188 22.957031 75.308594 C 23.53125 75.5 24.191406 75.515625 24.96875 75.308594 C 28.539062 74.351562 46.390625 69.5625 60.679688 63.6875 C 54.175781 61.320312 46.507812 58.78125 39.578125 56.804688 C 35.65625 55.6875 32.039062 54.75 29.253906 54.078125 C 26.46875 53.40625 24.34375 53.039062 23.929688 53.039062 C 23.558594 53.039062 23.210938 53.023438 22.890625 53.039062 Z M 103.851562 53.105469 C 103.4375 53.105469 101.25 53.472656 98.460938 54.144531 C 95.675781 54.816406 92.128906 55.75 88.203125 56.871094 C 81.3125 58.835938 73.65625 61.398438 67.171875 63.75 C 81.4375 69.601562 99.191406 74.421875 102.746094 75.375 C 103.527344 75.582031 104.1875 75.5625 104.757812 75.375 C 105.332031 75.179688 105.859375 74.8125 106.382812 74.007812 C 107.421875 72.402344 108.265625 69.039062 108.265625 63.425781 C 108.265625 57.792969 107.578125 55.136719 106.835938 54.078125 C 106.46875 53.550781 106.136719 53.359375 105.667969 53.234375 C 105.199219 53.109375 104.601562 53.105469 103.851562 53.105469 Z M 61.714844 65.894531 C 55.445312 68.820312 48.214844 72.453125 41.914062 75.957031 C 38.347656 77.9375 35.140625 79.785156 32.695312 81.28125 C 30.25 82.773438 28.441406 84.039062 28.152344 84.332031 C 27.621094 84.859375 27.226562 85.339844 26.984375 85.761719 C 26.742188 86.179688 26.609375 86.554688 26.722656 87.1875 C 26.949219 88.460938 28.390625 90.800781 32.371094 94.785156 C 36.339844 98.753906 39.265625 100.554688 41.136719 100.953125 C 42.070312 101.152344 42.671875 101.027344 43.214844 100.757812 C 43.753906 100.488281 44.238281 100.027344 44.640625 99.328125 C 46.484375 96.132812 55.765625 80.140625 61.714844 65.894531 Z M 66.132812 65.960938 C 72.082031 80.1875 81.234375 96.140625 83.074219 99.328125 C 83.476562 100.027344 83.960938 100.550781 84.503906 100.820312 C 85.046875 101.09375 85.710938 101.152344 86.648438 100.953125 C 88.519531 100.554688 91.441406 98.820312 95.410156 94.851562 C 99.394531 90.867188 100.769531 88.460938 100.992188 87.1875 C 101.105469 86.554688 101.039062 86.179688 100.796875 85.761719 C 100.558594 85.339844 100.09375 84.925781 99.566406 84.398438 C 99.273438 84.105469 97.53125 82.839844 95.085938 81.34375 C 92.640625 79.851562 89.433594 77.9375 85.867188 75.957031 C 79.597656 72.472656 72.382812 68.878906 66.132812 65.960938 Z M 63.921875 66.933594 C 61.5625 73.425781 59.015625 81.054688 57.042969 87.96875 C 55.921875 91.890625 54.988281 95.503906 54.316406 98.289062 C 53.644531 101.078125 53.277344 103.203125 53.277344 103.613281 C 53.277344 104.363281 53.28125 104.960938 53.40625 105.429688 C 53.53125 105.898438 53.722656 106.230469 54.25 106.601562 C 55.308594 107.339844 58.03125 108.027344 63.664062 108.027344 C 69.277344 108.027344 72.574219 107.25 74.179688 106.210938 C 74.984375 105.6875 75.351562 105.160156 75.546875 104.585938 C 75.734375 104.015625 75.753906 103.289062 75.546875 102.507812 C 74.59375 98.953125 69.773438 81.199219 63.921875 66.933594 Z M 63.921875 66.933594 "/>
</g>
</svg>
