
<svg xmlns="http://www.w3.org/2000/svg" xmlns:xlink="http://www.w3.org/1999/xlink" width="128px" height="128px" viewBox="0 0 128 128" version="1.1">
<g id="surface1">
<path style="fill-rule:nonzero;fill:rgb(100%,100%,100%);fill-opacity:1;stroke-width:28.191782;stroke-linecap:butt;stroke-linejoin:miter;stroke:rgb(18.039216%,18.039216%,78.431373%);stroke-opacity:1;stroke-miterlimit:4;" d="M 81.484375 25.09375 L 430.515625 25.09375 C 461.65625 25.09375 486.90625 50.34375 486.90625 81.484375 L 486.90625 430.515625 C 486.90625 461.65625 461.65625 486.90625 430.515625 486.90625 L 81.484375 486.90625 C 50.34375 486.90625 25.09375 461.65625 25.09375 430.515625 L 25.09375 81.484375 C 25.09375 50.34375 50.34375 25.09375 81.484375 25.09375 Z M 81.484375 25.09375 " transform="matrix(0.25,0,0,0.25,0,0)"/>
<path style=" stroke:none;fill-rule:nonzero;fill:rgb(18.039216%,18.039216%,78.431373%);fill-opacity:1;" d="M 59.8125 114.105469 C 50.382812 113.140625 42.125 109.945312 34.5 104.3125 C 31.707031 102.25 26.445312 96.996094 24.492188 94.320312 C 19.390625 87.324219 16.378906 80.148438 15.085938 71.898438 C 14.546875 68.460938 14.542969 60.5 15.078125 57.1875 C 16.519531 48.273438 20.179688 39.996094 25.703125 33.164062 C 27.683594 30.71875 32.035156 26.550781 34.613281 24.632812 C 47.804688 14.832031 64.472656 12.1875 80.199219 17.394531 C 96.339844 22.742188 108.691406 36.210938 112.761719 52.90625 C 114.578125 60.363281 114.519531 69.398438 112.597656 76.882812 C 107.917969 95.140625 92.914062 109.488281 74.597656 113.214844 C 73.058594 113.527344 70.820312 113.890625 69.625 114.019531 C 67.609375 114.238281 61.625 114.289062 59.8125 114.105469 Z M 67.191406 100.585938 C 75.816406 99.820312 83.28125 96.472656 89.335938 90.644531 C 95.902344 84.328125 99.578125 76.640625 100.40625 67.496094 C 101.1875 58.863281 98.527344 49.671875 93.230469 42.6875 C 91.71875 40.695312 88.382812 37.324219 86.46875 35.859375 C 79.214844 30.304688 70.257812 27.65625 61.421875 28.453125 C 44.253906 29.996094 30.703125 42.945312 28.4375 59.960938 C 28.054688 62.847656 28.28125 69.007812 28.875 71.773438 C 32.28125 87.640625 45.257812 99.144531 61.371094 100.582031 C 64.179688 100.835938 64.394531 100.835938 67.191406 100.585938 Z M 57.453125 85.308594 C 57.394531 85.152344 57.375 74.339844 57.40625 61.28125 L 57.460938 37.535156 L 70.679688 37.535156 L 70.679688 85.472656 L 64.121094 85.53125 C 58.996094 85.578125 57.539062 85.53125 57.453125 85.308594 Z M 37.964844 84.859375 C 37.90625 84.703125 37.882812 78.328125 37.914062 70.6875 L 37.972656 56.796875 L 51.863281 56.796875 L 51.863281 85.023438 L 44.96875 85.082031 C 39.574219 85.128906 38.050781 85.082031 37.964844 84.859375 Z M 76.273438 84.859375 C 76.210938 84.703125 76.1875 78.273438 76.21875 70.574219 L 76.28125 56.574219 L 89.71875 56.574219 L 89.71875 85.023438 L 83.050781 85.082031 C 77.835938 85.128906 76.355469 85.082031 76.273438 84.859375 Z M 76.273438 84.859375 "/>
</g>
</svg>
