
<svg xmlns="http://www.w3.org/2000/svg" xmlns:xlink="http://www.w3.org/1999/xlink" width="128px" height="128px" viewBox="0 0 128 128" version="1.1">
<g id="surface1">
<path style="fill-rule:nonzero;fill:rgb(95.294118%,97.254902%,97.647059%);fill-opacity:1;stroke-width:53.967125;stroke-linecap:butt;stroke-linejoin:miter;stroke:rgb(0%,41.568627%,72.54902%);stroke-opacity:1;stroke-miterlimit:4;" d="M 177.90625 70 L 846.09375 70 C 905.6875 70 954 118.3125 954 177.90625 L 954 846.09375 C 954 905.6875 905.6875 954 846.09375 954 L 177.90625 954 C 118.3125 954 70 905.6875 70 846.09375 L 70 177.90625 C 70 118.3125 118.3125 70 177.90625 70 Z M 177.90625 70 " transform="matrix(0.125,0,0,0.125,0,0)"/>
<path style="fill-rule:nonzero;fill:rgb(94.117647%,100%,100%);fill-opacity:1;stroke-width:7.766708;stroke-linecap:butt;stroke-linejoin:miter;stroke:rgb(25.490196%,41.176471%,88.235294%);stroke-opacity:1;stroke-miterlimit:4;" d="M 467.6875 872.15625 C 339.875 856.5 230.90625 774.84375 180.28125 656.71875 C 152.65625 592.3125 144.21875 520.4375 156.1875 451.5625 C 180.4375 311.9375 284.28125 198.71875 419.9375 163.9375 C 452.78125 155.53125 469.28125 153.59375 507.8125 153.59375 C 545.46875 153.59375 562.75 155.53125 593.3125 163.1875 C 694.5 188.5 778.84375 256.0625 826.25 349.78125 C 874.375 444.9375 878.4375 552.6875 837.625 653.03125 C 803.09375 737.96875 731.03125 810.75 646.375 846.1875 C 614.90625 859.375 579.25 868.71875 546.90625 872.21875 C 530.125 874.0625 482.8125 874 467.6875 872.15625 Z M 467.6875 872.15625 " transform="matrix(0.125,0,0,0.125,0,0)"/>
<path style=" stroke:none;fill-rule:nonzero;fill:rgb(25.490196%,41.176471%,88.235294%);fill-opacity:1;" d="M 58.042969 108.851562 C 47.679688 107.515625 37.851562 102.289062 30.832031 94.378906 C 23.328125 85.921875 19.164062 74.875 19.179688 63.457031 C 19.179688 61.367188 19.308594 60.484375 19.609375 60.484375 C 19.945312 60.484375 21.285156 62.457031 21.285156 62.945312 C 21.285156 63.59375 21.707031 63.828125 21.851562 63.265625 C 21.917969 63.019531 22.078125 62.820312 22.210938 62.820312 C 22.339844 62.816406 23.507812 63.257812 24.808594 63.796875 C 26.898438 64.664062 27.371094 64.960938 28.960938 66.429688 C 30.847656 68.167969 30.9375 68.21875 32.53125 68.4375 C 33.078125 68.511719 33.585938 68.667969 33.65625 68.78125 C 33.726562 68.898438 33.308594 70.0625 32.730469 71.375 C 31.5625 74.011719 31.003906 75.90625 31.003906 77.226562 C 31.003906 79.269531 32.828125 82.320312 35.796875 85.242188 C 36.882812 86.308594 37.910156 87.523438 38.082031 87.941406 C 38.269531 88.390625 38.398438 89.367188 38.398438 90.347656 C 38.398438 91.257812 38.582031 92.765625 38.804688 93.695312 C 39.210938 95.386719 39.210938 95.402344 38.773438 97.132812 C 38.398438 98.628906 38.375 98.960938 38.609375 99.535156 C 39.109375 100.75 43.003906 103.019531 44.359375 102.890625 C 45.03125 102.824219 45.054688 102.789062 45.0625 101.851562 C 45.070312 101.0625 45.226562 100.664062 45.882812 99.765625 C 46.328125 99.15625 47.199219 98.28125 47.820312 97.820312 C 49.023438 96.925781 48.917969 97.152344 50.121094 92.90625 C 50.484375 91.625 50.644531 91.449219 52.761719 90.019531 C 54.347656 88.945312 54.664062 88.246094 54.664062 85.804688 C 54.664062 83.988281 54.742188 83.632812 55.851562 80.433594 C 56.523438 78.5 56.960938 76.929688 56.855469 76.828125 C 56.753906 76.730469 55.789062 76.3125 54.710938 75.898438 C 52.65625 75.101562 50.078125 73.699219 49.585938 73.101562 C 49.425781 72.90625 49.089844 72.671875 48.839844 72.578125 C 48.519531 72.453125 48.34375 72.152344 48.25 71.554688 C 48.128906 70.796875 47.988281 70.628906 46.960938 70.039062 C 46.324219 69.671875 45.539062 69.351562 45.21875 69.328125 C 44.679688 69.289062 44.613281 69.179688 44.3125 67.804688 L 43.988281 66.320312 L 41.984375 66.101562 C 40.359375 65.925781 39.757812 65.757812 38.796875 65.203125 C 37.09375 64.222656 36.5 64.28125 35.21875 65.570312 C 34.644531 66.148438 34.171875 66.71875 34.171875 66.84375 C 34.171875 66.964844 33.832031 67.0625 33.414062 67.0625 C 32.839844 67.0625 32.628906 66.964844 32.546875 66.65625 C 32.488281 66.429688 32.082031 66.101562 31.644531 65.925781 C 30.777344 65.578125 30.589844 65.1875 30.585938 63.734375 C 30.582031 62.804688 30.0625 62.183594 29.292969 62.183594 C 28.617188 62.183594 28.394531 61.632812 28.671875 60.644531 C 29.214844 58.695312 29.226562 58.789062 28.417969 58.789062 C 28 58.789062 27.445312 58.972656 27.144531 59.210938 C 26.847656 59.445312 26.503906 59.636719 26.378906 59.636719 C 26.253906 59.636719 25.816406 58.96875 25.40625 58.152344 C 24.390625 56.125 24.03125 56.214844 24.03125 58.5 C 24.03125 59.140625 23.945312 59.609375 23.84375 59.546875 C 23.539062 59.355469 23.4375 57.707031 23.664062 56.582031 C 24.046875 54.652344 26.21875 53.105469 29.074219 52.722656 C 30.324219 52.554688 31.214844 52.734375 31.214844 53.148438 C 31.214844 53.519531 32.828125 54.828125 33.085938 54.667969 C 33.1875 54.605469 33.335938 54.085938 33.410156 53.511719 C 33.558594 52.390625 34.070312 51.511719 35.644531 49.664062 C 36.195312 49.019531 37.003906 47.839844 37.445312 47.039062 C 38.398438 45.3125 40.109375 43.925781 42.625 42.835938 C 44.617188 41.972656 46.636719 40.730469 46.636719 40.367188 C 46.636719 39.957031 45.3125 39.476562 44.160156 39.46875 C 43.242188 39.464844 43.1875 39.4375 43.546875 39.160156 C 43.765625 38.992188 44.480469 38.75 45.132812 38.621094 C 47.277344 38.191406 48.554688 37.703125 49.34375 37.007812 C 49.929688 36.492188 50.070312 36.253906 49.910156 36.027344 C 49.796875 35.859375 49.246094 35.039062 48.695312 34.199219 C 47.660156 32.632812 47.058594 32.203125 46.03125 32.308594 C 45.542969 32.359375 45.480469 32.296875 45.515625 31.78125 C 45.550781 31.273438 45.410156 31.121094 44.492188 30.652344 C 43.90625 30.351562 43.289062 30.164062 43.121094 30.226562 C 42.953125 30.289062 42.453125 31.132812 42.011719 32.097656 C 41.21875 33.824219 39.152344 36.6875 38.6875 36.707031 C 38.558594 36.710938 38.394531 36.441406 38.328125 36.101562 C 38.226562 35.585938 37.964844 35.375 36.703125 34.789062 C 35.261719 34.125 34.382812 33.359375 34.382812 32.78125 C 34.382812 32.25 35.492188 31.191406 37.371094 29.929688 C 39.378906 28.578125 39.664062 28.460938 39.664062 28.972656 C 39.664062 29.199219 39.898438 29.289062 40.492188 29.289062 C 41.21875 29.289062 41.429688 29.160156 42.296875 28.175781 C 44.101562 26.132812 45.351562 25.582031 45.824219 26.621094 C 46.105469 27.246094 48.234375 28.226562 49.304688 28.226562 C 50.109375 28.226562 50.859375 27.914062 50.859375 27.578125 C 50.859375 27.464844 50.632812 27.265625 50.355469 27.140625 C 50.078125 27.011719 49.679688 26.53125 49.46875 26.066406 C 49.054688 25.136719 48.457031 24.746094 47.113281 24.523438 C 46.617188 24.4375 46.214844 24.296875 46.214844 24.210938 C 46.214844 24.121094 47.40625 23.492188 48.859375 22.8125 L 51.5 21.578125 L 52.144531 22.234375 C 52.496094 22.597656 53.25 23.25 53.820312 23.6875 C 54.386719 24.125 54.96875 24.761719 55.113281 25.109375 C 55.34375 25.671875 55.3125 25.851562 54.808594 26.75 C 54.496094 27.304688 54.242188 27.902344 54.242188 28.078125 C 54.242188 28.652344 55.960938 31.863281 56.234375 31.796875 C 56.382812 31.757812 57.199219 30.96875 58.050781 30.03125 C 58.90625 29.097656 59.796875 28.21875 60.039062 28.078125 C 60.277344 27.9375 61.539062 27.476562 62.84375 27.050781 C 66.011719 26.019531 66.800781 25.339844 67.746094 22.824219 C 68.296875 21.367188 68.578125 20.90625 69.164062 20.503906 C 69.945312 19.972656 69.773438 19.695312 68.777344 19.890625 C 68.085938 20.019531 67.902344 19.726562 68.304688 19.144531 C 68.464844 18.917969 67.988281 19.019531 68.34375 19.019531 C 68.765625 19.015625 70.15625 18.960938 72.199219 19.355469 C 76.191406 20.125 83.222656 22.773438 84.839844 24.117188 L 85.335938 24.53125 L 84.3125 24.992188 C 83.75 25.25 82.894531 25.554688 82.414062 25.679688 C 81.707031 25.855469 81.371094 26.128906 80.644531 27.117188 C 80.148438 27.789062 79.175781 28.855469 78.480469 29.488281 L 77.21875 30.640625 L 77.335938 31.800781 C 77.5 33.375 77.6875 33.511719 78.875 32.933594 L 79.84375 32.457031 L 80.769531 33.3125 C 82.199219 34.636719 82.503906 34.476562 82.96875 32.15625 C 83.285156 30.570312 83.828125 29.304688 84.421875 28.777344 C 85.078125 28.191406 85.203125 28.507812 84.628906 29.296875 L 84.132812 29.976562 L 84.609375 30.296875 C 85.5625 30.9375 85.078125 33.171875 83.6875 34.570312 L 82.757812 35.5 L 81.570312 35.363281 C 80.117188 35.191406 80.015625 35.132812 80.015625 34.476562 C 80.015625 34.164062 79.890625 33.960938 79.703125 33.960938 C 79.316406 33.960938 78.957031 34.613281 78.957031 35.324219 C 78.957031 35.765625 78.859375 35.867188 78.414062 35.867188 C 78.117188 35.867188 77.679688 35.972656 77.445312 36.097656 C 77.097656 36.285156 76.921875 36.242188 76.523438 35.867188 C 76.257812 35.609375 75.914062 35.101562 75.765625 34.734375 C 75.617188 34.367188 75.273438 33.703125 75 33.257812 C 74.59375 32.597656 74.394531 32.460938 73.929688 32.515625 C 73.304688 32.585938 73.28125 32.703125 73.550781 34.464844 C 73.699219 35.421875 73.679688 35.488281 73.324219 35.335938 C 73.109375 35.242188 72.628906 35.125 72.253906 35.070312 C 71.394531 34.949219 71.261719 35.25 71.621094 36.488281 C 71.902344 37.464844 72.410156 37.914062 72.410156 37.1875 C 72.410156 36.957031 72.558594 36.644531 72.742188 36.492188 C 73.019531 36.261719 73.109375 36.265625 73.265625 36.519531 C 73.375 36.6875 73.460938 37 73.460938 37.214844 C 73.464844 37.429688 73.632812 37.890625 73.835938 38.234375 C 74.199219 38.851562 74.195312 38.871094 73.6875 39.257812 L 73.167969 39.648438 L 73.738281 40.707031 C 74.054688 41.289062 74.3125 41.84375 74.3125 41.949219 C 74.3125 42.050781 73.8125 42.253906 73.203125 42.398438 C 71.394531 42.832031 70.734375 43.867188 70.726562 46.316406 C 70.71875 47.273438 70.757812 47.335938 71.484375 47.644531 C 71.90625 47.820312 72.429688 47.964844 72.652344 47.964844 C 72.878906 47.964844 74.0625 46.992188 75.328125 45.765625 C 77.484375 43.675781 78.921875 42.660156 79.722656 42.660156 C 80.070312 42.660156 81.339844 43.972656 81.855469 44.867188 C 81.996094 45.113281 82.117188 45.527344 82.117188 45.789062 C 82.128906 46.457031 82.828125 46.414062 83.378906 45.707031 C 83.621094 45.398438 83.816406 44.867188 83.816406 44.523438 C 83.816406 43.609375 84.15625 43.863281 85.152344 45.515625 C 85.636719 46.320312 86.140625 47.015625 86.265625 47.054688 C 86.394531 47.097656 86.699219 46.648438 86.941406 46.0625 C 87.203125 45.429688 87.519531 44.992188 87.710938 44.992188 C 87.894531 44.992188 88.042969 45.082031 88.042969 45.1875 C 88.042969 45.578125 90.261719 47.007812 91.886719 47.664062 C 92.804688 48.035156 93.609375 48.394531 93.679688 48.464844 C 93.898438 48.6875 93.121094 49.648438 92.253906 50.226562 C 91.230469 50.90625 90.316406 50.929688 88.035156 50.332031 C 86.285156 49.875 85.507812 49.925781 84.960938 50.535156 C 84.757812 50.753906 84.492188 50.9375 84.367188 50.933594 C 84.238281 50.933594 83.46875 50.398438 82.65625 49.738281 C 80.121094 47.695312 80.296875 47.753906 76.914062 47.753906 C 74.472656 47.753906 73.855469 47.8125 73.585938 48.085938 C 73.402344 48.269531 73.253906 48.484375 73.253906 48.570312 C 73.253906 48.648438 72.914062 48.898438 72.503906 49.125 C 72.089844 49.347656 71.140625 50.179688 70.398438 50.972656 C 68.824219 52.648438 67.351562 55.464844 66.8125 57.832031 C 66.625 58.648438 66.273438 60.101562 66.035156 61.054688 C 65.753906 62.164062 65.648438 63.058594 65.734375 63.53125 C 66.035156 65.136719 68.054688 68.226562 69.945312 69.984375 C 71.015625 70.96875 71.285156 71.039062 72.195312 70.566406 C 72.53125 70.390625 73.265625 70.265625 73.824219 70.28125 C 74.382812 70.300781 75.410156 70.148438 76.105469 69.941406 C 77.957031 69.398438 79.074219 69.578125 79.976562 70.566406 C 80.671875 71.328125 80.6875 71.386719 80.554688 72.65625 C 80.429688 73.863281 80.5 74.191406 81.507812 77.039062 L 82.59375 80.117188 L 82.421875 82.980469 C 82.109375 88.121094 82.15625 88.675781 83.261719 92.105469 C 83.804688 93.796875 84.359375 95.828125 84.488281 96.617188 C 84.71875 98.027344 84.734375 98.046875 85.378906 98.042969 C 86.371094 98.035156 88.683594 97.144531 90.023438 96.25 C 91.519531 95.253906 92.375 94.21875 92.820312 92.875 C 93.011719 92.296875 93.4375 91.433594 93.765625 90.957031 C 94.328125 90.132812 94.347656 90.035156 94.128906 88.96875 C 93.859375 87.65625 94.015625 87.390625 95.753906 86.261719 C 97.492188 85.128906 97.800781 84.679688 97.828125 83.261719 C 97.835938 82.582031 97.769531 80.929688 97.675781 79.585938 C 97.460938 76.550781 97.652344 75.960938 100.121094 72.03125 C 101.992188 69.054688 102.746094 67.429688 102.859375 66.109375 L 102.9375 65.261719 L 101.695312 65.15625 L 100.453125 65.046875 L 100.851562 64.585938 C 101.066406 64.335938 102.007812 63.492188 102.9375 62.714844 C 104.816406 61.140625 105.65625 60.144531 106.007812 59.074219 C 106.273438 58.265625 106.113281 56.902344 105.679688 56.3125 C 105.410156 55.941406 105.367188 55.949219 104.789062 56.507812 C 104.453125 56.828125 104.089844 57.089844 103.980469 57.089844 C 103.714844 57.089844 101.839844 54.53125 101.554688 53.789062 C 101.238281 52.949219 101.59375 52.6875 102.335938 53.210938 C 102.664062 53.445312 103.707031 54.03125 104.648438 54.519531 C 105.59375 55.007812 106.527344 55.53125 106.730469 55.679688 C 107.542969 56.277344 107.980469 64.203125 107.460938 68.929688 C 106.582031 76.964844 103.558594 84.632812 98.632812 91.328125 C 96.785156 93.835938 92.625 98.085938 90.15625 99.980469 C 84 104.703125 76.921875 107.710938 69.484375 108.75 C 66.929688 109.109375 60.476562 109.164062 58.042969 108.851562 Z M 58.042969 108.851562 "/>
<path style=" stroke:none;fill-rule:nonzero;fill:rgb(47.843137%,63.921569%,15.686275%);fill-opacity:0.835294;" d="M 55.8125 19.132812 C 56.28125 19.054688 56.75 19.011719 57.210938 18.945312 C 61.101562 18.363281 64.621094 18.472656 68.023438 18.820312 C 75.574219 19.59375 81.988281 21.8125 88.082031 25.757812 C 94.140625 29.679688 98.765625 34.597656 102.523438 41.109375 C 107.96875 50.546875 109.953125 61.601562 108.140625 72.445312 C 106.839844 80.257812 103.457031 87.472656 98.171875 93.710938 C 92.484375 100.425781 83.554688 106.4375 73.492188 108.640625 C 70.015625 109.402344 65.859375 109.992188 62.113281 109 C 53.84375 106.804688 47.683594 99.25 46.792969 90.203125 C 46 82.195312 49.222656 74.484375 55.597656 69.117188 C 57.785156 67.273438 59.632812 66.132812 63.085938 64.476562 C 66.960938 62.621094 68.859375 61.453125 71.203125 59.476562 C 75.34375 55.988281 77.898438 52.109375 79.195312 47.34375 C 79.8125 45.089844 80.03125 43.09375 79.941406 40.5625 C 79.894531 39.25 79.054688 35.214844 78.566406 33.976562 C 76.460938 28.632812 72.601562 24.4375 67.570312 22.015625 C 64.203125 20.398438 59.539062 19.390625 56 19.523438 C 55.21875 19.554688 54.953125 19.582031 55.085938 19.328125 C 55.101562 19.292969 55.09375 19.292969 55.121094 19.28125 C 55.15625 19.261719 55.796875 19.132812 55.835938 19.128906 C 55.910156 19.117188 55.082031 19.335938 55.8125 19.132812 Z M 55.8125 19.132812 "/>
</g>
</svg>
