
<svg xmlns="http://www.w3.org/2000/svg" xmlns:xlink="http://www.w3.org/1999/xlink" width="128px" height="128px" viewBox="0 0 128 128" version="1.1">
<g id="surface1">
<path style="fill-rule:nonzero;fill:rgb(100%,100%,100%);fill-opacity:1;stroke-width:28.191782;stroke-linecap:butt;stroke-linejoin:miter;stroke:rgb(12.941176%,75.294118%,93.72549%);stroke-opacity:1;stroke-miterlimit:4;" d="M 81.484375 23.099366 L 430.515625 23.099366 C 461.65625 23.099366 486.90625 48.338136 486.90625 79.483522 L 486.90625 428.516486 C 486.90625 459.661872 461.65625 484.900642 430.515625 484.900642 L 81.484375 484.900642 C 50.34375 484.900642 25.09375 459.661872 25.09375 428.516486 L 25.09375 79.483522 C 25.09375 48.338136 50.34375 23.099366 81.484375 23.099366 Z M 81.484375 23.099366 " transform="matrix(0.25,0,0,0.251968,0,0)"/>
<path style=" stroke:none;fill-rule:nonzero;fill:rgb(12.941176%,75.294118%,93.72549%);fill-opacity:1;" d="M 61.183594 109.59375 C 60.929688 109.421875 60.929688 109.382812 61.183594 109.210938 C 61.34375 109.105469 61.59375 109.019531 61.738281 109.015625 C 62.265625 109.011719 65.539062 107.785156 67.503906 106.859375 C 68.609375 106.335938 69.585938 105.910156 69.679688 105.910156 C 69.769531 105.910156 69.84375 106.085938 69.84375 106.296875 C 69.84375 106.765625 69.078125 109.214844 68.828125 109.546875 C 68.597656 109.847656 61.632812 109.890625 61.183594 109.59375 Z M 70.910156 109.222656 C 70.804688 109.050781 72.28125 104.34375 72.597656 103.835938 C 72.679688 103.703125 73.585938 103.101562 74.613281 102.5 C 76.835938 101.191406 79.195312 99.570312 80.523438 98.445312 L 81.484375 97.625 L 84.855469 97.71875 C 87.890625 97.796875 93.632812 97.449219 95.484375 97.066406 C 96.359375 96.890625 96.125 97.40625 94.8125 98.566406 C 88.867188 103.820312 81.359375 107.523438 73.597656 109.03125 C 71.417969 109.453125 71.066406 109.476562 70.910156 109.222656 Z M 55.203125 108.828125 C 54.296875 108.636719 52.203125 108.023438 50.554688 107.460938 L 47.5625 106.445312 L 46.707031 105.257812 C 42.765625 99.765625 39.914062 91.058594 39.496094 83.246094 L 39.378906 81.039062 L 39.84375 81.183594 C 40.097656 81.265625 40.695312 81.527344 41.171875 81.765625 C 44.179688 83.289062 48.5 84.882812 50.957031 85.375 C 51.460938 85.476562 52.378906 85.953125 53.265625 86.578125 C 55.75 88.320312 58.453125 89.90625 61.496094 91.394531 C 65.445312 93.328125 66.46875 93.757812 69.265625 94.671875 C 70.589844 95.105469 71.75 95.539062 71.847656 95.632812 C 72.195312 95.984375 70.957031 103.167969 70.4375 103.792969 C 69.855469 104.496094 66.527344 106.476562 64.425781 107.371094 C 60.066406 109.226562 58.34375 109.496094 55.203125 108.828125 Z M 44.152344 104.8125 C 38.410156 101.753906 32.226562 96.121094 28.539062 90.589844 C 23.875 83.59375 21.320312 76.570312 20.300781 67.945312 C 20.226562 67.3125 20.253906 66.925781 20.375 66.925781 C 20.480469 66.925781 20.882812 67.429688 21.273438 68.042969 C 24.363281 72.933594 28.898438 77.117188 34.242188 80.015625 L 35.6875 80.796875 L 36.121094 83.414062 C 37.050781 89.03125 38.578125 93.734375 40.882812 98.085938 C 42.070312 100.324219 43.539062 102.625 44.667969 104 C 45.074219 104.492188 45.40625 104.953125 45.40625 105.015625 C 45.40625 105.234375 44.738281 105.125 44.152344 104.8125 Z M 73.617188 100.820312 C 73.695312 100.578125 73.945312 99.511719 74.171875 98.445312 L 74.585938 96.503906 L 76.113281 96.277344 C 78.445312 95.929688 78.503906 95.9375 78.503906 96.546875 C 78.503906 97.089844 77.871094 97.777344 75.15625 100.175781 C 73.839844 101.34375 73.382812 101.535156 73.617188 100.820312 Z M 89.085938 96.089844 C 88.71875 96.046875 87.203125 95.878906 85.71875 95.710938 C 84.238281 95.546875 82.957031 95.34375 82.871094 95.257812 C 82.785156 95.171875 83.351562 94.367188 84.132812 93.464844 C 84.910156 92.5625 85.804688 91.484375 86.117188 91.0625 C 86.425781 90.640625 87.1875 89.648438 87.804688 88.859375 C 89.472656 86.71875 90.699219 84.828125 91.914062 82.515625 C 92.6875 81.046875 93.164062 80.359375 93.566406 80.136719 C 96.40625 78.574219 99.660156 76.277344 102.015625 74.171875 C 102.53125 73.707031 103.03125 73.328125 103.117188 73.328125 C 103.765625 73.328125 104.085938 83.347656 103.546875 86.710938 C 103.3125 88.160156 103.15625 88.546875 102.25 89.929688 C 100.71875 92.273438 98.265625 95.289062 97.527344 95.726562 C 96.949219 96.078125 96.507812 96.117188 93.320312 96.140625 C 91.363281 96.15625 89.457031 96.132812 89.085938 96.089844 Z M 77.445312 94.34375 C 76.28125 94.074219 75.226562 93.753906 75.101562 93.628906 C 74.941406 93.46875 74.925781 93.148438 75.046875 92.527344 C 75.140625 92.046875 75.277344 89.976562 75.351562 87.921875 C 75.445312 85.304688 75.558594 84.125 75.726562 83.984375 C 75.859375 83.871094 77.078125 83.574219 78.4375 83.320312 C 82.015625 82.652344 84.898438 81.957031 86.863281 81.285156 C 87.8125 80.960938 88.65625 80.765625 88.742188 80.851562 C 89.015625 81.128906 85.601562 87.328125 83.058594 91.171875 C 81.1875 93.996094 80.464844 94.859375 79.972656 94.84375 C 79.746094 94.835938 78.609375 94.609375 77.445312 94.34375 Z M 70.421875 92.25 C 66.777344 90.824219 61.523438 88.164062 59.03125 86.484375 C 56.492188 84.773438 56.488281 84.5 59.003906 85.21875 C 62.8125 86.308594 63.398438 86.375 68.136719 86.285156 L 72.546875 86.203125 L 72.492188 89.496094 C 72.460938 91.484375 72.367188 92.808594 72.25 92.835938 C 72.144531 92.867188 71.320312 92.601562 70.421875 92.25 Z M 104.988281 84.808594 C 104.9375 84.722656 105.023438 83.304688 105.183594 81.65625 C 105.390625 79.546875 105.453125 77.339844 105.390625 74.199219 L 105.304688 69.738281 L 107.535156 67.414062 C 108.757812 66.132812 109.84375 65.050781 109.945312 65.007812 C 110.441406 64.804688 109.578125 72.230469 108.695312 75.746094 C 107.960938 78.679688 105.550781 84.964844 105.164062 84.964844 C 105.121094 84.964844 105.039062 84.894531 104.988281 84.808594 Z M 60.125 81.746094 C 57.835938 81.601562 54.503906 81.261719 52.429688 80.957031 C 50.5625 80.683594 50.21875 80.570312 49.542969 80.015625 C 46.207031 77.289062 40.015625 70.296875 40.015625 69.25 C 40.015625 68.351562 42.023438 60.246094 42.335938 59.882812 C 42.410156 59.792969 43.640625 59.46875 45.074219 59.164062 C 50.1875 58.070312 56.992188 55.996094 60.539062 54.449219 C 61.15625 54.179688 62.480469 53.601562 63.480469 53.164062 C 64.476562 52.726562 65.359375 52.4375 65.4375 52.523438 C 65.730469 52.828125 67.914062 58.582031 68.765625 61.300781 C 69.5625 63.84375 70.550781 67.835938 71.28125 71.484375 C 71.585938 72.992188 72.046875 76.371094 72.3125 79.046875 C 72.410156 80.007812 72.523438 80.925781 72.5625 81.085938 C 72.617188 81.3125 72.363281 81.402344 71.382812 81.5 C 69.734375 81.65625 61.59375 81.835938 60.125 81.746094 Z M 75.351562 80.929688 C 75.296875 80.84375 75.164062 79.683594 75.046875 78.359375 C 74.558594 72.601562 74.050781 69.546875 72.816406 64.914062 C 71.820312 61.179688 70.539062 57.574219 68.875 53.839844 C 68.242188 52.417969 67.726562 51.070312 67.726562 50.847656 C 67.726562 50.230469 68.21875 49.84375 70.722656 48.503906 C 76.855469 45.214844 81.289062 42.335938 83.636719 40.109375 C 84.09375 39.675781 84.367188 39.558594 84.710938 39.648438 C 84.96875 39.710938 86.117188 40.816406 87.3125 42.144531 C 90.597656 45.796875 92.359375 48.070312 94.636719 51.578125 L 95.472656 52.867188 L 95.347656 55.773438 C 95.226562 58.578125 94.710938 63.351562 94.289062 65.570312 C 93.851562 67.867188 92.65625 72.132812 91.632812 75.054688 L 91.132812 76.488281 L 89.945312 77.03125 C 88.589844 77.648438 84.199219 79.15625 82.375 79.628906 C 81.175781 79.9375 75.84375 81.082031 75.578125 81.085938 C 75.507812 81.085938 75.40625 81.015625 75.351562 80.929688 Z M 41.902344 78.65625 C 40.664062 78.304688 39.574219 77.96875 39.480469 77.910156 C 39.386719 77.851562 39.34375 76.863281 39.382812 75.710938 C 39.464844 73.449219 39.558594 72.742188 39.78125 72.753906 C 39.855469 72.757812 40.351562 73.335938 40.882812 74.042969 C 41.933594 75.445312 43.242188 76.988281 44.585938 78.417969 L 45.453125 79.339844 L 44.804688 79.320312 C 44.445312 79.304688 43.140625 79.007812 41.902344 78.65625 Z M 32.695312 75.117188 C 28.875 73.039062 26.015625 70.980469 23.453125 68.460938 C 21.523438 66.554688 20.230469 64.886719 20.082031 64.097656 C 19.921875 63.238281 20.085938 60.753906 20.3125 60.527344 C 20.40625 60.433594 21.167969 60.441406 22.023438 60.542969 C 22.871094 60.644531 25.46875 60.75 27.796875 60.777344 L 32.03125 60.824219 L 32.992188 62.757812 C 33.523438 63.824219 34.410156 65.5 34.964844 66.484375 L 35.972656 68.273438 L 35.785156 70.558594 C 35.679688 71.8125 35.59375 73.648438 35.59375 74.636719 C 35.589844 75.941406 35.523438 76.429688 35.351562 76.429688 C 35.21875 76.429688 34.023438 75.835938 32.695312 75.117188 Z M 95.246094 73.84375 C 95.246094 73.597656 95.46875 72.746094 95.734375 71.953125 C 96.5 69.710938 97.808594 63.0625 98.046875 60.1875 C 98.121094 59.304688 98.257812 58.585938 98.347656 58.585938 C 98.945312 58.585938 102.972656 68.589844 102.679688 69.351562 C 102.527344 69.757812 95.78125 74.296875 95.332031 74.296875 C 95.285156 74.296875 95.246094 74.09375 95.246094 73.84375 Z M 104.421875 67.363281 C 104.375 67.285156 104.109375 66.390625 103.832031 65.375 C 102.601562 60.890625 100.953125 56.542969 99.128906 52.960938 C 97.984375 50.71875 97.871094 50.386719 97.628906 48.5 C 96.882812 42.71875 95.402344 37.523438 93.210938 32.988281 C 91.960938 30.394531 91.960938 30.390625 92.34375 30.003906 C 92.890625 29.453125 93.257812 29.675781 95.710938 32.035156 C 101.253906 37.367188 105.085938 43.21875 107.632812 50.246094 C 108.546875 52.773438 109.070312 54.882812 109.589844 58.199219 C 110.023438 60.929688 110.023438 61.03125 109.691406 61.789062 C 109.078125 63.167969 104.6875 67.820312 104.421875 67.363281 Z M 35.523438 62.332031 C 34.238281 59.90625 34.328125 59.464844 35.992188 60.066406 C 36.523438 60.257812 37.039062 60.511719 37.132812 60.625 C 37.234375 60.75 37.195312 61.460938 37.03125 62.378906 C 36.882812 63.226562 36.753906 63.941406 36.75 63.96875 C 36.75 63.996094 36.671875 64.015625 36.582031 64.015625 C 36.492188 64.015625 36.015625 63.257812 35.523438 62.332031 Z M 22.890625 58.21875 L 20.675781 58.101562 L 20.613281 57.554688 C 20.378906 55.492188 22.765625 48.234375 25.03125 44.113281 C 26.25 41.902344 26.695312 41.273438 26.933594 41.421875 C 27.011719 41.472656 27.140625 42.101562 27.214844 42.824219 C 27.523438 45.785156 28.984375 51.71875 30.320312 55.433594 C 31.011719 57.363281 31.140625 57.898438 30.9375 58.03125 C 30.796875 58.117188 29.9375 58.195312 29.027344 58.195312 C 28.117188 58.195312 26.859375 58.230469 26.238281 58.269531 C 25.613281 58.304688 24.105469 58.285156 22.890625 58.21875 Z M 33.148438 57.570312 C 32.789062 56.996094 32.019531 54.96875 30.960938 51.796875 C 29.867188 48.523438 29.144531 45.609375 28.273438 40.976562 L 27.863281 38.78125 L 28.929688 37.351562 C 31.261719 34.230469 34.921875 30.796875 38.574219 28.296875 C 40.839844 26.75 43.308594 25.339844 43.703125 25.367188 C 44.386719 25.421875 48.855469 28.808594 51.742188 31.464844 L 53.144531 32.753906 L 52.015625 33.984375 C 46.175781 40.367188 41.839844 47.375 39.054688 54.941406 C 38.597656 56.191406 38.09375 57.261719 37.9375 57.320312 C 37.640625 57.4375 34.46875 57.800781 33.726562 57.808594 C 33.492188 57.808594 33.234375 57.703125 33.148438 57.570312 Z M 43.480469 55.777344 C 43.480469 55.289062 45.75 50.085938 46.992188 47.726562 C 49.265625 43.398438 54.363281 35.898438 55.027344 35.898438 C 55.421875 35.898438 58.535156 39.851562 60.585938 42.964844 C 62.109375 45.28125 64.226562 48.976562 64.125 49.148438 C 63.996094 49.363281 62.054688 50.25 59.15625 51.414062 C 54.820312 53.15625 50.753906 54.492188 46.699219 55.5 C 44.125 56.140625 43.480469 56.195312 43.480469 55.777344 Z M 66.242188 47.675781 C 66.140625 47.542969 65.726562 46.867188 65.320312 46.171875 C 63.242188 42.617188 60.496094 38.804688 57.960938 35.949219 C 57.085938 34.964844 56.375 33.992188 56.375 33.785156 C 56.375 33.28125 59.195312 30.625 61.894531 28.59375 C 64.824219 26.390625 64.714844 26.429688 66.296875 27.070312 C 71.21875 29.054688 76.394531 31.988281 80.304688 35.015625 C 81.136719 35.65625 82.066406 36.359375 82.371094 36.574219 C 82.675781 36.785156 82.898438 37.046875 82.863281 37.15625 C 82.609375 37.984375 73.769531 44.054688 68.6875 46.894531 C 66.734375 47.988281 66.527344 48.050781 66.242188 47.675781 Z M 94.5625 45.445312 C 94.453125 45.367188 93.675781 44.429688 92.832031 43.363281 C 91.992188 42.296875 90.28125 40.367188 89.039062 39.074219 C 87.613281 37.59375 86.777344 36.578125 86.777344 36.320312 C 86.777344 35.949219 87.578125 35.261719 90.851562 32.816406 C 91.179688 32.570312 91.25 32.644531 91.757812 33.785156 C 92.976562 36.515625 94.511719 41.898438 94.78125 44.378906 C 94.914062 45.628906 94.902344 45.683594 94.5625 45.445312 Z M 84.578125 34.941406 C 84.375 34.617188 80.691406 31.875 78.726562 30.589844 C 75.992188 28.800781 70.710938 26.097656 68.335938 25.273438 C 67.4375 24.960938 67.171875 24.601562 67.519531 24.179688 C 67.84375 23.78125 70.769531 22.550781 73.328125 21.734375 L 75.5625 21.019531 L 76.792969 21.34375 C 79.058594 21.9375 82.617188 23.3125 85 24.507812 L 87.355469 25.695312 L 88.894531 27.78125 C 89.742188 28.929688 90.433594 29.929688 90.433594 30 C 90.433594 30.179688 86.226562 34.367188 85.632812 34.777344 C 85.085938 35.152344 84.738281 35.207031 84.578125 34.941406 Z M 53.460938 31.304688 C 52.6875 30.367188 48.195312 26.726562 45.742188 25.054688 C 45.238281 24.710938 44.828125 24.359375 44.828125 24.273438 C 44.828125 23.929688 45.375 23.695312 47.136719 23.273438 C 48.898438 22.855469 49.078125 22.851562 52.140625 23.082031 C 56.777344 23.433594 62.167969 24.5 62.398438 25.109375 C 62.542969 25.484375 62.351562 25.6875 61.085938 26.492188 C 59.578125 27.453125 56.523438 29.742188 55.34375 30.792969 C 54.335938 31.6875 53.878906 31.8125 53.460938 31.304688 Z M 90.539062 28.1875 C 89.683594 26.917969 90.027344 26.5625 91.179688 27.523438 C 91.6875 27.949219 91.800781 28.160156 91.695312 28.492188 C 91.5 29.113281 91.089844 29.003906 90.539062 28.1875 Z M 63.300781 23.648438 C 61.976562 23.183594 56.566406 22.167969 54.640625 22.023438 C 52.101562 21.828125 51.5625 21.726562 51.5625 21.445312 C 51.5625 21.140625 53.164062 20.761719 56.664062 20.242188 C 58.554688 19.960938 60.316406 19.898438 66.417969 19.898438 C 71.550781 19.894531 73.929688 19.960938 74.078125 20.105469 C 74.382812 20.414062 74.007812 20.636719 72.546875 21.035156 C 71.25 21.386719 66.5625 23.335938 65.90625 23.796875 C 65.40625 24.148438 64.601562 24.101562 63.300781 23.648438 Z M 63.300781 23.648438 "/>
<path style=" stroke:none;fill-rule:nonzero;fill:rgb(86.27451%,19.607843%,18.431373%);fill-opacity:1;" d="M 75.03125 103.554688 L 69.988281 98.472656 L 100.253906 67.96875 L 105.296875 73.050781 Z M 75.03125 103.554688 "/>
<path style=" stroke:none;fill-rule:evenodd;fill:rgb(86.27451%,19.607843%,18.431373%);fill-opacity:1;" d="M 70.828125 102.710938 C 80.113281 112.070312 95.171875 112.070312 104.457031 102.710938 C 113.75 93.351562 113.75 78.171875 104.457031 68.816406 C 95.171875 59.453125 80.113281 59.453125 70.828125 68.816406 C 61.539062 78.171875 61.539062 93.351562 70.828125 102.710938 Z M 75.875 97.625 C 69.371094 91.078125 69.371094 80.449219 75.875 73.898438 C 82.371094 67.34375 92.914062 67.34375 99.414062 73.898438 C 105.914062 80.449219 105.914062 91.078125 99.414062 97.625 C 92.914062 104.179688 82.371094 104.179688 75.875 97.625 Z M 75.875 97.625 "/>
</g>
</svg>
