
<svg xmlns="http://www.w3.org/2000/svg" xmlns:xlink="http://www.w3.org/1999/xlink" width="128px" height="128px" viewBox="0 0 128 128" version="1.1">
<g id="surface1">
<path style=" stroke:none;fill-rule:evenodd;fill:rgb(80.392157%,61.176471%,42.745098%);fill-opacity:1;" d="M 20.082031 9.28125 L 108.296875 9.28125 C 115.230469 9.28125 120.851562 14.902344 120.851562 21.835938 L 120.851562 108.53125 C 120.851562 115.464844 115.230469 121.085938 108.296875 121.085938 L 20.082031 121.085938 C 13.148438 121.085938 7.527344 115.464844 7.527344 108.53125 L 7.527344 21.835938 C 7.527344 14.902344 13.148438 9.28125 20.082031 9.28125 Z M 20.082031 9.28125 "/>
<path style=" stroke:none;fill-rule:evenodd;fill:rgb(89.019608%,76.862745%,66.27451%);fill-opacity:1;" d="M 53.96875 110.476562 L 72.222656 110.476562 C 72.515625 110.476562 72.757812 110.71875 72.757812 111.011719 L 72.757812 120.539062 C 72.757812 120.835938 72.515625 121.074219 72.222656 121.074219 L 53.96875 121.074219 C 53.671875 121.074219 53.4375 120.835938 53.4375 120.539062 L 53.4375 111.011719 C 53.4375 110.71875 53.671875 110.476562 53.96875 110.476562 Z M 53.96875 110.476562 "/>
<path style=" stroke:none;fill-rule:evenodd;fill:rgb(89.019608%,76.862745%,66.27451%);fill-opacity:1;" d="M 54.1875 9.28125 L 72.441406 9.28125 C 72.734375 9.28125 72.972656 9.519531 72.972656 9.8125 L 72.972656 19.34375 C 72.972656 19.636719 72.734375 19.875 72.441406 19.875 L 54.1875 19.875 C 53.890625 19.875 53.65625 19.636719 53.65625 19.34375 L 53.65625 9.8125 C 53.65625 9.519531 53.890625 9.28125 54.1875 9.28125 Z M 54.1875 9.28125 "/>
<path style=" stroke:none;fill-rule:nonzero;fill:rgb(100%,100%,100%);fill-opacity:1;" d="M 56.988281 88.585938 C 51.222656 87.074219 47.039062 83.375 45.246094 78.203125 L 44.652344 76.5 L 44.515625 66.089844 C 44.367188 54.765625 44.359375 54.730469 43.238281 53.847656 C 42.785156 53.492188 42.4375 53.421875 41.101562 53.417969 C 40.226562 53.417969 39.046875 53.363281 38.476562 53.292969 L 37.445312 53.171875 L 37.445312 43.949219 L 56.054688 44.039062 C 76.355469 44.136719 75.703125 44.101562 78.734375 45.289062 C 82.558594 46.789062 85.90625 49.914062 87.535156 53.5 C 88.78125 56.25 88.757812 55.90625 88.851562 71.222656 C 88.929688 83.898438 88.90625 85.25 88.613281 85.816406 C 88.066406 86.875 86.886719 88.027344 85.859375 88.507812 L 84.875 88.964844 L 71.621094 88.957031 C 59.398438 88.949219 58.257812 88.917969 56.988281 88.585938 Z M 76.164062 82.5 C 80.382812 82.054688 83.640625 78.800781 84.214844 74.453125 C 84.355469 73.382812 84.402344 70.464844 84.34375 66.203125 C 84.230469 58.28125 84.195312 58.121094 82.046875 55.953125 C 80.453125 54.34375 79.214844 53.8125 77.046875 53.8125 C 75.332031 53.8125 74.109375 54.152344 72.820312 54.976562 L 71.867188 55.589844 L 70.25 54.75 C 68.644531 53.917969 68.625 53.914062 66.542969 53.914062 C 64.742188 53.914062 64.320312 53.976562 63.507812 54.375 C 62.113281 55.0625 60.707031 56.539062 59.976562 58.082031 L 59.34375 59.410156 L 59.289062 65.449219 L 59.230469 71.488281 L 63.765625 71.488281 L 63.765625 65.941406 C 63.765625 60.75 63.789062 60.351562 64.15625 59.753906 C 65.042969 58.300781 67.089844 57.851562 68.273438 58.84375 C 69.441406 59.828125 69.460938 59.945312 69.460938 65.980469 L 69.460938 71.488281 L 73.9375 71.488281 L 74.007812 65.808594 C 74.070312 60.398438 74.09375 60.101562 74.488281 59.574219 C 75.757812 57.871094 78.105469 57.863281 79.3125 59.554688 C 79.769531 60.195312 79.773438 60.226562 79.832031 67.21875 L 79.890625 74.242188 L 79.351562 75.238281 C 78.742188 76.355469 77.800781 77.179688 76.398438 77.828125 C 75.460938 78.261719 75.375 78.265625 66.667969 78.226562 C 56.914062 78.1875 57.226562 78.226562 55.800781 76.84375 C 55.402344 76.453125 54.867188 75.6875 54.609375 75.140625 L 54.144531 74.140625 L 54.140625 49.945312 L 52.640625 49.816406 C 51.8125 49.746094 50.839844 49.6875 50.476562 49.6875 L 49.820312 49.6875 L 49.835938 60.148438 C 49.84375 65.898438 49.914062 71.886719 49.992188 73.453125 C 50.132812 76.164062 50.167969 76.359375 50.785156 77.515625 C 51.53125 78.910156 53.234375 80.710938 54.527344 81.472656 C 56.417969 82.582031 57.195312 82.660156 66.21875 82.667969 C 70.757812 82.671875 75.230469 82.597656 76.164062 82.5 Z M 76.164062 82.5 "/>
<path style="fill-rule:nonzero;fill:rgb(58.823529%,85.098039%,32.54902%);fill-opacity:1;stroke-width:0.3;stroke-linecap:butt;stroke-linejoin:miter;stroke:rgb(58.823529%,85.098039%,32.54902%);stroke-opacity:1;stroke-miterlimit:4;" d="M 60.523438 82.578125 C 57.296875 82.503906 56.40625 82.363281 55.132812 81.734375 C 54.207031 81.28125 53.640625 80.855469 52.726562 79.9375 C 51.558594 78.769531 50.605469 77.339844 50.328125 76.34375 C 50.003906 75.1875 49.945312 72.921875 49.898438 60.5625 L 49.859375 49.699219 L 50.058594 49.699219 C 50.375 49.699219 53.328125 49.894531 53.726562 49.941406 L 54.082031 49.984375 L 54.082031 74.089844 L 54.390625 74.757812 C 54.5625 75.125 54.863281 75.671875 55.066406 75.972656 C 55.492188 76.617188 56.378906 77.488281 56.84375 77.726562 C 57.75 78.183594 59.46875 78.257812 68.488281 78.226562 C 76.1875 78.203125 75.664062 78.234375 76.675781 77.726562 C 78.09375 77.011719 78.894531 76.207031 79.707031 74.660156 L 79.9375 74.234375 L 79.855469 67.609375 C 79.808594 63.808594 79.742188 60.789062 79.703125 60.519531 C 79.609375 59.914062 79.441406 59.59375 78.96875 59.121094 C 77.828125 57.984375 76.109375 57.976562 74.886719 59.105469 C 74.414062 59.546875 74.253906 59.820312 74.152344 60.390625 C 74.066406 60.863281 73.949219 65.5625 73.949219 68.589844 C 73.945312 69.710938 73.925781 70.816406 73.902344 71.046875 L 73.859375 71.460938 L 69.480469 71.460938 L 69.449219 66.191406 C 69.417969 60.710938 69.40625 60.453125 69.121094 59.792969 C 68.949219 59.390625 68.28125 58.742188 67.804688 58.515625 C 67.359375 58.300781 66.464844 58.246094 65.933594 58.402344 C 65.144531 58.632812 64.3125 59.285156 64.046875 59.890625 C 63.796875 60.453125 63.769531 61.015625 63.730469 66.292969 L 63.6875 71.460938 L 59.230469 71.460938 L 59.265625 71.039062 C 59.28125 70.804688 59.316406 68.097656 59.335938 65.019531 L 59.375 59.425781 L 59.871094 58.410156 C 60.613281 56.890625 61.519531 55.765625 62.625 54.976562 C 63.109375 54.628906 63.859375 54.234375 64.285156 54.105469 C 64.648438 53.988281 67.871094 53.933594 68.421875 54.03125 C 68.707031 54.078125 69.265625 54.320312 70.328125 54.847656 C 71.152344 55.261719 71.851562 55.597656 71.878906 55.597656 C 71.910156 55.597656 72.21875 55.410156 72.574219 55.183594 C 73.859375 54.347656 74.773438 54.027344 76.238281 53.886719 C 77.691406 53.75 79.003906 53.953125 80.046875 54.480469 C 80.910156 54.914062 82.046875 55.886719 82.890625 56.921875 C 84.160156 58.464844 84.269531 59.355469 84.28125 68.140625 C 84.28125 72.191406 84.261719 73.769531 84.199219 74.269531 C 83.640625 78.625 80.574219 81.847656 76.453125 82.417969 C 75.128906 82.597656 65.6875 82.695312 60.523438 82.578125 Z M 60.523438 82.578125 "/>
</g>
</svg>
