
<svg xmlns="http://www.w3.org/2000/svg" xmlns:xlink="http://www.w3.org/1999/xlink" width="128px" height="128px" viewBox="0 0 128 128" version="1.1">
<g id="surface1">
<path style=" stroke:none;fill-rule:nonzero;fill:rgb(100%,75.294118%,13.333333%);fill-opacity:1;" d="M 13.765625 8.980469 L 57.585938 8.980469 C 60.132812 8.980469 62.195312 11.046875 62.195312 13.59375 L 62.195312 57.414062 C 62.195312 59.960938 60.132812 62.027344 57.585938 62.027344 L 13.765625 62.027344 C 11.214844 62.027344 9.148438 59.960938 9.148438 57.414062 L 9.148438 13.59375 C 9.148438 11.046875 11.214844 8.980469 13.765625 8.980469 Z M 13.765625 8.980469 "/>
<path style=" stroke:none;fill-rule:nonzero;fill:rgb(80%,80%,80%);fill-opacity:1;" d="M 13.765625 66.640625 L 57.585938 66.640625 C 60.132812 66.640625 62.195312 68.703125 62.195312 71.25 L 62.195312 115.074219 C 62.195312 117.621094 60.132812 119.6875 57.585938 119.6875 L 13.765625 119.6875 C 11.214844 119.6875 9.148438 117.621094 9.148438 115.074219 L 9.148438 71.25 C 9.148438 68.703125 11.214844 66.640625 13.765625 66.640625 Z M 13.765625 66.640625 "/>
<path style=" stroke:none;fill-rule:nonzero;fill:rgb(80%,80%,80%);fill-opacity:1;" d="M 71.421875 8.980469 L 115.242188 8.980469 C 117.789062 8.980469 119.855469 11.046875 119.855469 13.59375 L 119.855469 57.414062 C 119.855469 59.960938 117.789062 62.027344 115.242188 62.027344 L 71.421875 62.027344 C 68.875 62.027344 66.808594 59.960938 66.808594 57.414062 L 66.808594 13.59375 C 66.808594 11.046875 68.875 8.980469 71.421875 8.980469 Z M 71.421875 8.980469 "/>
<path style=" stroke:none;fill-rule:nonzero;fill:rgb(0%,51.764706%,78.431373%);fill-opacity:1;" d="M 71.421875 66.640625 L 115.242188 66.640625 C 117.789062 66.640625 119.855469 68.703125 119.855469 71.25 L 119.855469 115.074219 C 119.855469 117.621094 117.789062 119.6875 115.242188 119.6875 L 71.421875 119.6875 C 68.875 119.6875 66.808594 117.621094 66.808594 115.074219 L 66.808594 71.25 C 66.808594 68.703125 68.875 66.640625 71.421875 66.640625 Z M 71.421875 66.640625 "/>
<path style=" stroke:none;fill-rule:nonzero;fill:rgb(0%,0%,0%);fill-opacity:1;" d="M 27.480469 19.398438 C 25.628906 19.398438 24.195312 20.082031 23.175781 21.445312 C 22.15625 22.8125 21.648438 24.738281 21.648438 27.21875 C 21.648438 29.6875 22.15625 31.605469 23.175781 32.972656 C 24.195312 34.339844 25.628906 35.023438 27.480469 35.023438 C 29.339844 35.023438 30.78125 34.339844 31.800781 32.972656 C 32.820312 31.605469 33.328125 29.6875 33.328125 27.21875 C 33.328125 24.738281 32.820312 22.8125 31.800781 21.449219 C 30.78125 20.082031 29.339844 19.398438 27.480469 19.398438 M 27.480469 15 C 31.265625 15 34.226562 16.082031 36.371094 18.246094 C 38.515625 20.414062 39.585938 23.402344 39.585938 27.21875 C 39.585938 31.023438 38.515625 34.007812 36.371094 36.171875 C 34.226562 38.339844 31.265625 39.421875 27.480469 39.421875 C 23.707031 39.421875 20.742188 38.339844 18.585938 36.171875 C 16.445312 34.007812 15.371094 31.023438 15.371094 27.21875 C 15.371094 23.402344 16.445312 20.414062 18.585938 18.246094 C 20.742188 16.082031 23.707031 15 27.480469 15 "/>
<path style=" stroke:none;fill-rule:nonzero;fill:rgb(0%,0%,0%);fill-opacity:1;" d="M 83.8125 82.195312 C 84.769531 82.195312 85.496094 81.984375 85.988281 81.566406 C 86.484375 81.144531 86.730469 80.523438 86.730469 79.703125 C 86.730469 78.894531 86.484375 78.28125 85.988281 77.859375 C 85.496094 77.429688 84.769531 77.214844 83.8125 77.214844 L 80.457031 77.214844 L 80.457031 82.195312 L 83.8125 82.195312 M 84.019531 92.492188 C 85.238281 92.492188 86.152344 92.234375 86.761719 91.71875 C 87.382812 91.203125 87.691406 90.425781 87.691406 89.386719 C 87.691406 88.367188 87.386719 87.601562 86.777344 87.101562 C 86.167969 86.585938 85.25 86.328125 84.019531 86.328125 L 80.457031 86.328125 L 80.457031 92.492188 L 84.019531 92.492188 M 89.664062 84.023438 C 90.96875 84.402344 91.976562 85.101562 92.691406 86.121094 C 93.40625 87.140625 93.761719 88.390625 93.761719 89.875 C 93.761719 92.144531 92.996094 93.835938 91.460938 94.953125 C 89.925781 96.066406 87.59375 96.625 84.460938 96.625 L 74.386719 96.625 L 74.386719 73.085938 L 83.5 73.085938 C 86.765625 73.085938 89.132812 73.578125 90.59375 74.566406 C 92.066406 75.554688 92.800781 77.136719 92.800781 79.3125 C 92.800781 80.457031 92.53125 81.4375 91.996094 82.242188 C 91.460938 83.042969 90.683594 83.636719 89.664062 84.027344 "/>
</g>
</svg>
