
<svg xmlns="http://www.w3.org/2000/svg" xmlns:xlink="http://www.w3.org/1999/xlink" width="128px" height="128px" viewBox="0 0 128 128" version="1.1">
<g id="surface1">
<path style="fill-rule:nonzero;fill:rgb(83.529412%,90.588235%,92.156863%);fill-opacity:1;stroke-width:7.034781;stroke-linecap:butt;stroke-linejoin:miter;stroke:rgb(20.392157%,52.941176%,4.705882%);stroke-opacity:1;stroke-miterlimit:4;" d="M 20.453125 6.382812 L 107.546875 6.382812 C 115.320312 6.382812 121.617188 12.679688 121.617188 20.453125 L 121.617188 107.546875 C 121.617188 115.320312 115.320312 121.617188 107.546875 121.617188 L 20.453125 121.617188 C 12.679688 121.617188 6.382812 115.320312 6.382812 107.546875 L 6.382812 20.453125 C 6.382812 12.679688 12.679688 6.382812 20.453125 6.382812 Z M 20.453125 6.382812 "/>
<path style=" stroke:none;fill-rule:nonzero;fill:rgb(20.392157%,52.941176%,4.705882%);fill-opacity:1;" d="M 65.289062 28.847656 C 87.605469 28.847656 105.695312 46.9375 105.695312 69.253906 C 105.695312 91.570312 87.605469 109.660156 65.289062 109.660156 C 42.972656 109.660156 24.882812 91.570312 24.882812 69.253906 C 24.882812 46.9375 42.972656 28.847656 65.289062 28.847656 Z M 65.289062 28.847656 "/>
<path style=" stroke:none;fill-rule:nonzero;fill:rgb(100%,100%,100%);fill-opacity:1;" d="M 40.035156 18.746094 L 40.035156 69.253906 C 40.035156 83.203125 51.339844 94.507812 65.289062 94.507812 C 79.234375 94.507812 90.542969 83.203125 90.542969 69.253906 C 90.542969 55.304688 79.234375 44 65.289062 44 L 65.289062 56.625 C 72.261719 56.625 77.914062 62.28125 77.914062 69.253906 C 77.914062 76.226562 72.261719 81.882812 65.289062 81.882812 C 58.3125 81.882812 52.660156 76.226562 52.660156 69.253906 L 52.660156 18.746094 Z M 40.035156 18.746094 "/>
</g>
</svg>
