
<svg xmlns="http://www.w3.org/2000/svg" xmlns:xlink="http://www.w3.org/1999/xlink" width="128px" height="128px" viewBox="0 0 128 128" version="1.1">
<g id="surface1">
<path style="fill-rule:nonzero;fill:rgb(99.215686%,23.529412%,33.333333%);fill-opacity:1;stroke-width:27.115198;stroke-linecap:butt;stroke-linejoin:miter;stroke:rgb(0%,34.509804%,41.960784%);stroke-opacity:1;stroke-miterlimit:4;" d="M 64.609375 22.046875 L 447.390625 22.046875 C 467.96875 22.046875 484.625 38.71875 484.625 59.28125 L 484.625 452.71875 C 484.625 473.28125 467.96875 489.953125 447.390625 489.953125 L 64.609375 489.953125 C 44.03125 489.953125 27.375 473.28125 27.375 452.71875 L 27.375 59.28125 C 27.375 38.71875 44.03125 22.046875 64.609375 22.046875 Z M 64.609375 22.046875 " transform="matrix(0.25,0,0,0.25,0,0)"/>
<path style=" stroke:none;fill-rule:nonzero;fill:rgb(100%,98.039216%,98.039216%);fill-opacity:1;" d="M 45.199219 99.851562 C 50.25 98.417969 53.683594 94.777344 54.355469 90.136719 C 54.523438 88.992188 54.640625 80.265625 54.644531 69.238281 L 54.652344 50.308594 L 55.296875 49.898438 C 57.5 48.488281 69.527344 46.195312 81.066406 44.976562 C 84.929688 44.566406 85.640625 44.554688 85.855469 44.894531 C 85.996094 45.113281 86.078125 50.832031 86.039062 57.726562 L 85.972656 70.160156 L 83.515625 70.066406 C 80.351562 69.941406 78.175781 70.359375 75.609375 71.574219 C 72.90625 72.859375 70.910156 74.742188 69.738281 77.128906 C 68.910156 78.8125 68.8125 79.273438 68.816406 81.445312 C 68.820312 84.378906 69.410156 85.886719 71.367188 87.976562 C 75.089844 91.953125 81.664062 92.789062 87.242188 90 C 90.921875 88.160156 93.214844 85.164062 93.824219 81.410156 C 94.011719 80.25 94.121094 69.398438 94.121094 51.375 C 94.125 24.609375 94.097656 23.144531 93.613281 22.886719 C 92.546875 22.316406 82.164062 23.28125 73.816406 24.726562 C 65.425781 26.179688 48.304688 30.359375 47.289062 31.199219 C 47.007812 31.429688 46.914062 36.640625 46.859375 55.257812 L 46.785156 79.019531 L 43.640625 78.933594 C 41.417969 78.867188 39.996094 78.976562 38.796875 79.296875 C 35.0625 80.304688 31.8125 82.84375 30.273438 85.96875 C 29.4375 87.671875 29.339844 88.125 29.34375 90.304688 C 29.351562 93.253906 30.027344 94.875 32.121094 96.972656 C 35.28125 100.140625 40.285156 101.242188 45.199219 99.851562 Z M 45.199219 99.851562 "/>
</g>
</svg>
