
<svg xmlns="http://www.w3.org/2000/svg" xmlns:xlink="http://www.w3.org/1999/xlink" width="128px" height="128px" viewBox="0 0 128 128" version="1.1">
<g id="surface1">
<path style="fill-rule:nonzero;fill:rgb(92.156863%,92.156863%,92.156863%);fill-opacity:1;stroke-width:27.276072;stroke-linecap:butt;stroke-linejoin:miter;stroke:rgb(0%,65.882353%,83.137255%);stroke-opacity:1;stroke-miterlimit:4;" d="M 87.15625 32.59375 L 424.84375 32.59375 C 454.984375 32.59375 479.40625 57.015625 479.40625 87.15625 L 479.40625 424.859375 C 479.40625 454.984375 454.984375 479.40625 424.84375 479.40625 L 87.15625 479.40625 C 57.015625 479.40625 32.59375 454.984375 32.59375 424.859375 L 32.59375 87.15625 C 32.59375 57.015625 57.015625 32.59375 87.15625 32.59375 Z M 87.15625 32.59375 " transform="matrix(0.25,0,0,0.25,0,0)"/>
<path style=" stroke:none;fill-rule:nonzero;fill:rgb(100%,100%,0%);fill-opacity:1;" d="M 53.714844 30.652344 C 33.800781 30.652344 17.65625 46.796875 17.65625 66.710938 C 17.65625 86.625 33.800781 102.769531 53.714844 102.769531 C 67.144531 102.757812 79.453125 95.285156 85.660156 83.378906 L 57.523438 67.605469 L 87.882812 55.332031 C 82.988281 40.613281 69.226562 30.671875 53.714844 30.652344 Z M 53.714844 30.652344 "/>
<path style=" stroke:none;fill-rule:nonzero;fill:rgb(0%,100%,100%);fill-opacity:1;" d="M 55.578125 49.910156 C 55.578125 52.941406 53.121094 55.398438 50.089844 55.398438 C 47.058594 55.398438 44.601562 52.941406 44.601562 49.910156 C 44.601562 46.878906 47.058594 44.421875 50.089844 44.421875 C 53.121094 44.421875 55.578125 46.878906 55.578125 49.910156 Z M 55.578125 49.910156 "/>
<path style=" stroke:none;fill-rule:evenodd;fill:rgb(40%,69.019608%,88.235294%);fill-opacity:1;" d="M 18.039062 13.429688 L 18.039062 18.101562 L 8.3125 18.101562 L 8.3125 18.863281 L 18.039062 18.863281 L 18.039062 33.257812 L 8.3125 33.257812 L 8.3125 34.015625 L 18.039062 34.015625 L 18.039062 48.410156 L 8.3125 48.410156 L 8.3125 49.171875 L 18.039062 49.171875 L 18.039062 63.570312 L 8.3125 63.570312 L 8.3125 64.324219 L 18.039062 64.324219 L 18.039062 78.722656 L 8.3125 78.722656 L 8.3125 79.484375 L 18.039062 79.484375 L 18.039062 93.875 L 8.3125 93.875 L 8.3125 94.636719 L 18.039062 94.636719 L 18.039062 109.03125 L 8.3125 109.03125 L 8.3125 109.789062 L 18.039062 109.789062 L 18.039062 114.464844 L 18.796875 114.464844 L 18.796875 109.789062 L 33.191406 109.789062 L 33.191406 114.464844 L 33.949219 114.464844 L 33.949219 109.789062 L 48.34375 109.789062 L 48.34375 114.464844 L 49.101562 114.464844 L 49.101562 109.789062 L 63.503906 109.789062 L 63.503906 114.464844 L 64.261719 114.464844 L 64.261719 109.789062 L 78.65625 109.789062 L 78.65625 114.464844 L 79.414062 114.464844 L 79.414062 109.789062 L 93.808594 109.789062 L 93.808594 114.464844 L 94.570312 114.464844 L 94.570312 109.789062 L 108.960938 109.789062 L 108.960938 114.464844 L 109.722656 114.464844 L 109.722656 109.789062 L 119.445312 109.789062 L 119.445312 109.03125 L 109.722656 109.03125 L 109.722656 94.636719 L 119.445312 94.636719 L 119.445312 93.875 L 109.722656 93.875 L 109.722656 79.484375 L 119.445312 79.484375 L 119.445312 78.722656 L 109.722656 78.722656 L 109.722656 64.324219 L 119.445312 64.324219 L 119.445312 63.570312 L 109.722656 63.570312 L 109.722656 49.171875 L 119.445312 49.171875 L 119.445312 48.410156 L 109.722656 48.410156 L 109.722656 34.015625 L 119.445312 34.015625 L 119.445312 33.257812 L 109.722656 33.257812 L 109.722656 18.863281 L 119.445312 18.863281 L 119.445312 18.101562 L 109.722656 18.101562 L 109.722656 13.429688 L 108.960938 13.429688 L 108.960938 18.101562 L 94.570312 18.101562 L 94.570312 13.429688 L 93.808594 13.429688 L 93.808594 18.101562 L 79.414062 18.101562 L 79.414062 13.429688 L 78.65625 13.429688 L 78.65625 18.101562 L 64.261719 18.101562 L 64.261719 13.429688 L 63.503906 13.429688 L 63.503906 18.101562 L 49.101562 18.101562 L 49.101562 13.429688 L 48.34375 13.429688 L 48.34375 18.101562 L 33.949219 18.101562 L 33.949219 13.429688 L 33.191406 13.429688 L 33.191406 18.101562 L 18.796875 18.101562 L 18.796875 13.429688 Z M 18.796875 18.863281 L 33.191406 18.863281 L 33.191406 33.257812 L 18.796875 33.257812 Z M 33.949219 18.863281 L 48.34375 18.863281 L 48.34375 33.257812 L 33.949219 33.257812 Z M 49.101562 18.863281 L 63.503906 18.863281 L 63.503906 33.257812 L 49.101562 33.257812 Z M 64.261719 18.863281 L 78.65625 18.863281 L 78.65625 33.257812 L 64.261719 33.257812 Z M 79.414062 18.863281 L 93.808594 18.863281 L 93.808594 33.257812 L 79.414062 33.257812 Z M 94.570312 18.863281 L 108.960938 18.863281 L 108.960938 33.257812 L 94.570312 33.257812 Z M 18.796875 34.015625 L 33.191406 34.015625 L 33.191406 48.410156 L 18.796875 48.410156 Z M 33.949219 34.015625 L 48.34375 34.015625 L 48.34375 48.410156 L 33.949219 48.410156 Z M 49.101562 34.015625 L 63.503906 34.015625 L 63.503906 48.410156 L 49.101562 48.410156 Z M 64.261719 34.015625 L 78.65625 34.015625 L 78.65625 48.410156 L 64.261719 48.410156 Z M 79.414062 34.015625 L 93.808594 34.015625 L 93.808594 48.410156 L 79.414062 48.410156 Z M 94.570312 34.015625 L 108.960938 34.015625 L 108.960938 48.410156 L 94.570312 48.410156 Z M 18.796875 49.171875 L 33.191406 49.171875 L 33.191406 63.570312 L 18.796875 63.570312 Z M 33.949219 49.171875 L 48.34375 49.171875 L 48.34375 63.570312 L 33.949219 63.570312 Z M 49.101562 49.171875 L 63.503906 49.171875 L 63.503906 63.570312 L 49.101562 63.570312 Z M 64.261719 49.171875 L 78.65625 49.171875 L 78.65625 63.570312 L 64.261719 63.570312 Z M 79.414062 49.171875 L 93.808594 49.171875 L 93.808594 63.570312 L 79.414062 63.570312 Z M 94.570312 49.171875 L 108.960938 49.171875 L 108.960938 63.570312 L 94.570312 63.570312 Z M 18.796875 64.324219 L 33.191406 64.324219 L 33.191406 78.722656 L 18.796875 78.722656 Z M 33.949219 64.324219 L 48.34375 64.324219 L 48.34375 78.722656 L 33.949219 78.722656 Z M 49.101562 64.324219 L 63.503906 64.324219 L 63.503906 78.722656 L 49.101562 78.722656 Z M 64.261719 64.324219 L 78.65625 64.324219 L 78.65625 78.722656 L 64.261719 78.722656 Z M 79.414062 64.324219 L 93.808594 64.324219 L 93.808594 78.722656 L 79.414062 78.722656 Z M 94.570312 64.324219 L 108.960938 64.324219 L 108.960938 78.722656 L 94.570312 78.722656 Z M 18.796875 79.484375 L 33.191406 79.484375 L 33.191406 93.875 L 18.796875 93.875 Z M 33.949219 79.484375 L 48.34375 79.484375 L 48.34375 93.875 L 33.949219 93.875 Z M 49.101562 79.484375 L 63.503906 79.484375 L 63.503906 93.875 L 49.101562 93.875 Z M 64.261719 79.484375 L 78.65625 79.484375 L 78.65625 93.875 L 64.261719 93.875 Z M 79.414062 79.484375 L 93.808594 79.484375 L 93.808594 93.875 L 79.414062 93.875 Z M 94.570312 79.484375 L 108.960938 79.484375 L 108.960938 93.875 L 94.570312 93.875 Z M 18.796875 94.636719 L 33.191406 94.636719 L 33.191406 109.03125 L 18.796875 109.03125 Z M 33.949219 94.636719 L 48.34375 94.636719 L 48.34375 109.03125 L 33.949219 109.03125 Z M 49.101562 94.636719 L 63.503906 94.636719 L 63.503906 109.03125 L 49.101562 109.03125 Z M 64.261719 94.636719 L 78.65625 94.636719 L 78.65625 109.03125 L 64.261719 109.03125 Z M 79.414062 94.636719 L 93.808594 94.636719 L 93.808594 109.03125 L 79.414062 109.03125 Z M 94.570312 94.636719 L 108.960938 94.636719 L 108.960938 109.03125 L 94.570312 109.03125 Z M 94.570312 94.636719 "/>
<path style=" stroke:none;fill-rule:nonzero;fill:rgb(100%,100%,0%);fill-opacity:1;" d="M 94.628906 69.4375 C 94.628906 72.464844 92.171875 74.921875 89.140625 74.921875 C 86.109375 74.921875 83.652344 72.464844 83.652344 69.4375 C 83.652344 66.40625 86.109375 63.949219 89.140625 63.949219 C 92.171875 63.949219 94.628906 66.40625 94.628906 69.4375 Z M 94.628906 69.4375 "/>
<path style=" stroke:none;fill-rule:nonzero;fill:rgb(100%,100%,0%);fill-opacity:1;" d="M 109.261719 69.4375 C 109.261719 72.464844 106.804688 74.921875 103.773438 74.921875 C 100.742188 74.921875 98.285156 72.464844 98.285156 69.4375 C 98.285156 66.40625 100.742188 63.949219 103.773438 63.949219 C 106.804688 63.949219 109.261719 66.40625 109.261719 69.4375 Z M 109.261719 69.4375 "/>
</g>
</svg>
