
<svg xmlns="http://www.w3.org/2000/svg" xmlns:xlink="http://www.w3.org/1999/xlink" width="128px" height="128px" viewBox="0 0 128 128" version="1.1">
<g id="surface1">
<path style=" stroke:none;fill-rule:evenodd;fill:rgb(90.196078%,90.196078%,90.196078%);fill-opacity:1;" d="M 4.894531 13.804688 L 123.015625 13.804688 L 123.015625 114.285156 L 4.894531 114.285156 Z M 4.894531 13.804688 "/>
<path style=" stroke:none;fill-rule:evenodd;fill:rgb(13.72549%,13.72549%,13.72549%);fill-opacity:1;" d="M 12.449219 21.320312 L 115.617188 21.320312 L 115.617188 106.078125 L 12.449219 106.078125 Z M 12.449219 21.320312 "/>
<path style=" stroke:none;fill-rule:nonzero;fill:rgb(0%,100%,0%);fill-opacity:1;" d="M 68.617188 94.710938 C 67.792969 93.667969 66.808594 90.277344 60.632812 67.183594 C 53.976562 42.316406 54.445312 43.867188 53.882812 44.945312 C 53.648438 45.394531 52.171875 50.519531 50.597656 56.335938 C 48.976562 62.335938 47.371094 67.207031 46.886719 67.59375 C 46.265625 68.085938 42.863281 68.269531 34.246094 68.269531 C 23.894531 68.269531 22.34375 68.15625 21.539062 67.351562 C 20.675781 66.488281 20.695312 66.375 21.832031 65.453125 C 22.90625 64.582031 24.234375 64.472656 33.808594 64.472656 L 44.574219 64.472656 L 45.191406 62.167969 C 52.804688 33.632812 53.183594 32.597656 55.175781 34.703125 C 55.566406 35.117188 57.757812 42.414062 60.050781 50.914062 C 70.34375 89.132812 69.304688 85.523438 69.867188 84.960938 C 70.035156 84.796875 71.371094 80.179688 72.835938 74.703125 C 74.304688 69.226562 75.796875 64.195312 76.152344 63.523438 C 76.800781 62.304688 76.816406 62.304688 91.332031 62.304688 C 105.136719 62.304688 105.894531 62.355469 106.425781 63.351562 C 106.851562 64.140625 106.78125 64.605469 106.136719 65.25 C 105.410156 65.976562 103.351562 66.101562 92.035156 66.101562 C 84.75 66.101562 78.785156 66.210938 78.785156 66.347656 C 78.785156 66.992188 71.671875 93.097656 71.207031 94.167969 C 70.617188 95.515625 69.449219 95.757812 68.617188 94.710938 Z M 68.617188 94.710938 "/>
</g>
</svg>
