
<svg xmlns="http://www.w3.org/2000/svg" xmlns:xlink="http://www.w3.org/1999/xlink" width="128px" height="128px" viewBox="0 0 128 128" version="1.1">
<g id="surface1">
<path style=" stroke:none;fill-rule:nonzero;fill:rgb(100%,100%,100%);fill-opacity:1;" d="M 17.597656 7.75 L 110.402344 7.75 C 115.839844 7.75 120.25 12.160156 120.25 17.597656 L 120.25 110.402344 C 120.25 115.839844 115.839844 120.25 110.402344 120.25 L 17.597656 120.25 C 12.160156 120.25 7.75 115.839844 7.75 110.402344 L 7.75 17.597656 C 7.75 12.160156 12.160156 7.75 17.597656 7.75 Z M 17.597656 7.75 "/>
<path style=" stroke:none;fill-rule:evenodd;fill:rgb(13.333333%,21.176471%,33.72549%);fill-opacity:1;" d="M 34.832031 34.832031 C 34.832031 34.832031 93.167969 34.832031 93.167969 34.832031 L 93.167969 78.582031 L 80.667969 78.582031 L 80.667969 84.832031 L 74.417969 84.832031 L 74.417969 93.167969 L 53.582031 93.167969 L 53.582031 84.832031 L 47.332031 84.832031 L 47.332031 78.582031 L 34.832031 78.582031 Z M 34.832031 34.832031 "/>
<path style=" stroke:none;fill-rule:nonzero;fill:rgb(94.509804%,79.607843%,42.745098%);fill-opacity:1;" d="M 43.167969 34.832031 L 43.167969 45.25 L 47.332031 45.25 L 47.332031 34.832031 Z M 55.667969 34.832031 L 55.667969 45.25 L 59.832031 45.25 L 59.832031 34.832031 Z M 68.167969 34.832031 L 68.167969 45.25 L 72.332031 45.25 L 72.332031 34.832031 Z M 80.667969 34.832031 L 80.667969 45.25 L 84.832031 45.25 L 84.832031 34.832031 Z M 80.667969 34.832031 "/>
<path style=" stroke:none;fill-rule:nonzero;fill:rgb(58.431373%,64.705882%,65.098039%);fill-opacity:1;" d="M 28.582031 28.582031 L 28.582031 84.832031 L 43.167969 84.832031 L 43.167969 93.167969 L 49.417969 93.167969 L 49.417969 99.417969 L 78.582031 99.417969 L 78.582031 93.167969 L 84.832031 93.167969 L 84.832031 84.832031 L 99.417969 84.832031 L 99.417969 28.582031 Z M 34.832031 34.832031 L 93.167969 34.832031 L 93.167969 78.582031 L 80.667969 78.582031 L 80.667969 84.832031 L 74.417969 84.832031 L 74.417969 93.167969 L 53.582031 93.167969 L 53.582031 84.832031 L 47.332031 84.832031 L 47.332031 78.582031 L 34.832031 78.582031 Z M 34.832031 34.832031 "/>
<path style=" stroke:none;fill-rule:nonzero;fill:rgb(96.862745%,87.058824%,63.921569%);fill-opacity:1;" d="M 43.167969 34.832031 L 43.167969 36.917969 L 47.332031 36.917969 L 47.332031 34.832031 Z M 55.667969 34.832031 L 55.667969 36.917969 L 59.832031 36.917969 L 59.832031 34.832031 Z M 68.167969 34.832031 L 68.167969 36.917969 L 72.332031 36.917969 L 72.332031 34.832031 Z M 80.667969 34.832031 L 80.667969 36.917969 L 84.832031 36.917969 L 84.832031 34.832031 Z M 80.667969 34.832031 "/>
<path style=" stroke:none;fill-rule:nonzero;fill:rgb(92.941176%,73.72549%,26.666667%);fill-opacity:1;" d="M 43.167969 43.167969 L 43.167969 45.25 L 47.332031 45.25 L 47.332031 43.167969 Z M 55.667969 43.167969 L 55.667969 45.25 L 59.832031 45.25 L 59.832031 43.167969 Z M 68.167969 43.167969 L 68.167969 45.25 L 72.332031 45.25 L 72.332031 43.167969 Z M 80.667969 43.167969 L 80.667969 45.25 L 84.832031 45.25 L 84.832031 43.167969 Z M 80.667969 43.167969 "/>
<path style=" stroke:none;fill-rule:nonzero;fill:rgb(0%,0%,0%);fill-opacity:0.101961;" d="M 17.597656 7.75 C 12.140625 7.75 7.75 12.140625 7.75 17.597656 L 7.75 20.597656 C 7.75 15.140625 12.140625 10.75 17.597656 10.75 L 110.402344 10.75 C 115.859375 10.75 120.25 15.140625 120.25 20.597656 L 120.25 17.597656 C 120.25 12.140625 115.859375 7.75 110.402344 7.75 Z M 17.597656 7.75 "/>
<path style=" stroke:none;fill-rule:nonzero;fill:rgb(0%,0%,0%);fill-opacity:0.301961;" d="M 7.75 106.402344 L 7.75 110.402344 C 7.75 115.859375 12.140625 120.25 17.597656 120.25 L 110.402344 120.25 C 115.859375 120.25 120.25 115.859375 120.25 110.402344 L 120.25 106.402344 C 120.25 111.859375 115.859375 116.25 110.402344 116.25 L 17.597656 116.25 C 12.140625 116.25 7.75 111.859375 7.75 106.402344 Z M 7.75 106.402344 "/>
</g>
</svg>
