
<svg xmlns="http://www.w3.org/2000/svg" xmlns:xlink="http://www.w3.org/1999/xlink" width="128px" height="128px" viewBox="0 0 128 128" version="1.1">
<g id="surface1">
<path style="fill-rule:nonzero;fill:rgb(100%,100%,100%);fill-opacity:1;stroke-width:6.940816;stroke-linecap:butt;stroke-linejoin:miter;stroke:rgb(95.294118%,61.176471%,7.058824%);stroke-opacity:1;stroke-miterlimit:4;" d="M 21.03125 7.152344 L 106.96875 7.152344 C 114.632812 7.152344 120.847656 13.367188 120.847656 21.03125 L 120.847656 106.96875 C 120.847656 114.632812 114.632812 120.847656 106.96875 120.847656 L 21.03125 120.847656 C 13.367188 120.847656 7.152344 114.632812 7.152344 106.96875 L 7.152344 21.03125 C 7.152344 13.367188 13.367188 7.152344 21.03125 7.152344 Z M 21.03125 7.152344 "/>
<path style=" stroke:none;fill-rule:nonzero;fill:rgb(95.294118%,61.176471%,7.058824%);fill-opacity:1;" d="M 14.828125 16.90625 L 14.828125 36.476562 L 34.398438 36.476562 C 66.921875 36.476562 93.105469 62.660156 93.105469 95.183594 L 93.105469 114.75 L 112.675781 114.75 L 112.675781 95.183594 C 112.675781 51.820312 77.765625 16.90625 34.398438 16.90625 Z M 14.828125 56.046875 L 14.828125 75.613281 L 34.398438 75.613281 C 45.242188 75.613281 53.96875 84.34375 53.96875 95.183594 L 53.96875 114.75 L 73.539062 114.75 L 73.539062 95.183594 C 73.539062 73.5 56.082031 56.046875 34.398438 56.046875 Z M 26.246094 91.921875 C 19.921875 91.921875 14.828125 97.011719 14.828125 103.335938 C 14.828125 109.660156 19.921875 114.75 26.246094 114.75 C 32.570312 114.75 37.660156 109.660156 37.660156 103.335938 C 37.660156 97.011719 32.570312 91.921875 26.246094 91.921875 Z M 26.246094 91.921875 "/>
</g>
</svg>
