
<svg xmlns="http://www.w3.org/2000/svg" xmlns:xlink="http://www.w3.org/1999/xlink" width="128px" height="128px" viewBox="0 0 128 128" version="1.1">
<g id="surface1">
<path style="fill-rule:nonzero;fill:rgb(16.078431%,50.196078%,72.54902%);fill-opacity:1;stroke-width:0.738769;stroke-linecap:butt;stroke-linejoin:miter;stroke:rgb(19.215686%,21.176471%,27.843137%);stroke-opacity:1;stroke-miterlimit:4;" d="M -35.919391 398.567582 L -26.772248 398.567582 C -25.956588 398.567582 -25.295129 399.22904 -25.295129 400.045115 L -25.295129 409.191844 C -25.295129 410.007505 -25.956588 410.669377 -26.772248 410.669377 L -35.919391 410.669377 C -36.735052 410.669377 -37.396511 410.007505 -37.396511 409.191844 L -37.396511 400.045115 C -37.396511 399.22904 -36.735052 398.567582 -35.919391 398.567582 Z M -35.919391 398.567582 " transform="matrix(9.448818,0,0,9.448818,360.180947,-3759.164418)"/>
<path style=" stroke:none;fill-rule:nonzero;fill:rgb(92.54902%,94.117647%,94.509804%);fill-opacity:1;" d="M 75.421875 94.992188 L 62.445312 69.535156 C 61.648438 69.644531 60.824219 69.726562 59.972656 69.78125 C 59.148438 69.835938 58.296875 69.867188 57.421875 69.867188 C 56.402344 69.867188 55.359375 69.820312 54.289062 69.742188 C 53.246094 69.660156 52.160156 69.550781 51.035156 69.414062 L 51.035156 90.339844 L 60.34375 93.304688 L 60.34375 94.996094 L 35.875 94.996094 L 35.875 93.304688 L 43.453125 90.339844 L 43.453125 38.886719 L 35.875 35.921875 L 35.875 34.230469 L 59.066406 34.230469 C 62.636719 34.230469 65.808594 34.644531 68.582031 35.46875 C 71.359375 36.265625 73.691406 37.402344 75.585938 38.886719 C 77.507812 40.371094 78.964844 42.15625 79.953125 44.242188 C 80.941406 46.300781 81.4375 48.59375 81.4375 51.121094 C 81.4375 54.828125 80.476562 58.125 78.554688 61.007812 C 76.65625 63.863281 73.84375 66.046875 70.109375 67.558594 L 82.09375 90.957031 L 88.152344 93.304688 L 88.152344 94.996094 L 75.421875 94.996094 M 60.261719 38.554688 L 51.035156 38.554688 L 51.035156 65.046875 C 52.160156 65.183594 53.21875 65.292969 54.207031 65.375 C 55.222656 65.429688 56.210938 65.457031 57.171875 65.457031 C 67.773438 65.457031 73.074219 60.898438 73.074219 51.78125 C 73.074219 47.359375 71.976562 44.050781 69.777344 41.851562 C 67.582031 39.65625 64.410156 38.554688 60.261719 38.554688 "/>
</g>
</svg>
