
<svg xmlns="http://www.w3.org/2000/svg" xmlns:xlink="http://www.w3.org/1999/xlink" width="128px" height="128px" viewBox="0 0 128 128" version="1.1">
<g id="surface1">
<path style=" stroke:none;fill-rule:nonzero;fill:rgb(24.313725%,80.392157%,96.470588%);fill-opacity:1;" d="M 4.691406 12.632812 C 3.59375 12.632812 2.714844 13.515625 2.714844 14.609375 L 2.714844 113.457031 C 2.714844 114.554688 3.59375 115.433594 4.691406 115.433594 L 123.308594 115.433594 C 124.40625 115.433594 125.285156 114.554688 125.285156 113.457031 L 125.285156 14.609375 C 125.285156 13.515625 124.40625 12.632812 123.308594 12.632812 Z M 4.691406 12.632812 "/>
<path style=" stroke:none;fill-rule:nonzero;fill:rgb(0%,33.333333%,83.137255%);fill-opacity:1;" d="M 2.714844 13.035156 L 2.714844 21.648438 C 2.714844 23.238281 3.59375 24.519531 4.691406 24.519531 L 123.308594 24.519531 C 124.40625 24.519531 125.285156 23.238281 125.285156 21.648438 L 125.285156 13.035156 Z M 2.714844 13.035156 "/>
<path style=" stroke:none;fill-rule:nonzero;fill:rgb(100%,100%,100%);fill-opacity:1;" d="M 119.355469 17.507812 C 119.355469 16.960938 118.914062 16.519531 118.367188 16.519531 C 117.820312 16.519531 117.378906 16.960938 117.378906 17.507812 C 117.378906 18.054688 117.820312 18.496094 118.367188 18.496094 C 118.914062 18.496094 119.355469 18.054688 119.355469 17.507812 Z M 119.355469 17.507812 "/>
<path style=" stroke:none;fill-rule:nonzero;fill:rgb(100%,100%,100%);fill-opacity:1;" d="M 113.421875 17.507812 C 113.421875 16.960938 112.980469 16.519531 112.4375 16.519531 C 111.890625 16.519531 111.445312 16.960938 111.445312 17.507812 C 111.445312 18.054688 111.890625 18.496094 112.4375 18.496094 C 112.980469 18.496094 113.421875 18.054688 113.421875 17.507812 Z M 113.421875 17.507812 "/>
<path style=" stroke:none;fill-rule:nonzero;fill:rgb(100%,100%,100%);fill-opacity:1;" d="M 107.492188 17.507812 C 107.492188 16.960938 107.050781 16.519531 106.503906 16.519531 C 105.960938 16.519531 105.515625 16.960938 105.515625 17.507812 C 105.515625 18.054688 105.960938 18.496094 106.503906 18.496094 C 107.050781 18.496094 107.492188 18.054688 107.492188 17.507812 Z M 107.492188 17.507812 "/>
<path style=" stroke:none;fill-rule:nonzero;fill:rgb(65.098039%,90.588235%,95.294118%);fill-opacity:1;" d="M 2.714844 14.542969 C 2.714844 13.445312 3.59375 12.566406 4.691406 12.566406 L 123.308594 12.566406 C 124.40625 12.566406 125.285156 13.445312 125.285156 14.542969 Z M 2.714844 14.542969 "/>
<path style=" stroke:none;fill-rule:nonzero;fill:rgb(100%,100%,100%);fill-opacity:1;" d="M 6.667969 17.507812 C 6.667969 16.960938 6.226562 16.519531 5.679688 16.519531 C 5.132812 16.519531 4.691406 16.960938 4.691406 17.507812 C 4.691406 18.054688 5.132812 18.496094 5.679688 18.496094 C 6.226562 18.496094 6.667969 18.054688 6.667969 17.507812 Z M 6.667969 17.507812 "/>
<path style=" stroke:none;fill-rule:nonzero;fill:rgb(100%,100%,100%);fill-opacity:1;" d="M 10.621094 17.507812 C 10.621094 16.960938 10.179688 16.519531 9.632812 16.519531 C 9.085938 16.519531 8.644531 16.960938 8.644531 17.507812 C 8.644531 18.054688 9.085938 18.496094 9.632812 18.496094 C 10.179688 18.496094 10.621094 18.054688 10.621094 17.507812 Z M 10.621094 17.507812 "/>
<path style=" stroke:none;fill-rule:nonzero;fill:rgb(80%,80%,80%);fill-opacity:1;" d="M 23.339844 30.941406 C 22.589844 30.941406 21.972656 31.628906 21.847656 32.539062 L 27.785156 32.539062 C 27.664062 31.628906 27.046875 30.941406 26.296875 30.941406 Z M 23.339844 30.941406 "/>
<path style=" stroke:none;fill-rule:nonzero;fill:rgb(14.509804%,68.235294%,87.45098%);fill-opacity:1;" d="M 15.285156 32.796875 L 27.835938 32.796875 C 28.828125 32.796875 29.632812 33.601562 29.632812 34.59375 L 29.632812 40.898438 C 29.632812 41.890625 28.828125 42.695312 27.835938 42.695312 L 15.285156 42.695312 C 14.292969 42.695312 13.488281 41.890625 13.488281 40.898438 L 13.488281 34.59375 C 13.488281 33.601562 14.292969 32.796875 15.285156 32.796875 Z M 15.285156 32.796875 "/>
<path style=" stroke:none;fill-rule:nonzero;fill:rgb(14.509804%,68.235294%,87.45098%);fill-opacity:1;" d="M 15.285156 35.105469 L 27.835938 35.105469 C 28.828125 35.105469 29.632812 35.910156 29.632812 36.902344 L 29.632812 43.210938 C 29.632812 44.203125 28.828125 45.007812 27.835938 45.007812 L 15.285156 45.007812 C 14.292969 45.007812 13.488281 44.203125 13.488281 43.210938 L 13.488281 36.902344 C 13.488281 35.910156 14.292969 35.105469 15.285156 35.105469 Z M 15.285156 35.105469 "/>
<path style=" stroke:none;fill-rule:nonzero;fill:rgb(80%,80%,80%);fill-opacity:1;" d="M 23.339844 50.769531 C 22.589844 50.769531 21.972656 51.457031 21.847656 52.367188 L 27.785156 52.367188 C 27.664062 51.457031 27.046875 50.769531 26.296875 50.769531 Z M 23.339844 50.769531 "/>
<path style=" stroke:none;fill-rule:nonzero;fill:rgb(14.509804%,68.235294%,87.45098%);fill-opacity:1;" d="M 15.285156 52.625 L 27.835938 52.625 C 28.828125 52.625 29.632812 53.429688 29.632812 54.421875 L 29.632812 60.726562 C 29.632812 61.71875 28.828125 62.523438 27.835938 62.523438 L 15.285156 62.523438 C 14.292969 62.523438 13.488281 61.71875 13.488281 60.726562 L 13.488281 54.421875 C 13.488281 53.429688 14.292969 52.625 15.285156 52.625 Z M 15.285156 52.625 "/>
<path style=" stroke:none;fill-rule:nonzero;fill:rgb(14.509804%,68.235294%,87.45098%);fill-opacity:1;" d="M 15.285156 54.933594 L 27.835938 54.933594 C 28.828125 54.933594 29.632812 55.738281 29.632812 56.730469 L 29.632812 63.039062 C 29.632812 64.03125 28.828125 64.835938 27.835938 64.835938 L 15.285156 64.835938 C 14.292969 64.835938 13.488281 64.03125 13.488281 63.039062 L 13.488281 56.730469 C 13.488281 55.738281 14.292969 54.933594 15.285156 54.933594 Z M 15.285156 54.933594 "/>
</g>
</svg>
