<!-- color: #474747 -->
<svg xmlns="http://www.w3.org/2000/svg" xmlns:xlink="http://www.w3.org/1999/xlink" width="128px" height="128px" viewBox="0 0 128 128" version="1.1">
<defs>
<clipPath id="clip1">
  <path d="M 47.5 14.75 L 59.25 14.75 L 59.25 24.75 L 47.5 24.75 Z M 47.5 14.75 "/>
</clipPath>
<clipPath id="clip2">
  <path d="M 153.453125 63.59375 C 153.453125 113.269531 113.171875 153.503906 63.542969 153.503906 C 13.914062 153.503906 -26.363281 113.269531 -26.363281 63.59375 C -26.363281 13.921875 13.914062 -26.3125 63.542969 -26.3125 C 113.171875 -26.3125 153.453125 13.921875 153.453125 63.59375 Z M 153.453125 63.59375 "/>
</clipPath>
<clipPath id="clip3">
  <path d="M 40 12.75 L 110.5 12.75 L 110.5 67.75 L 40 67.75 Z M 40 12.75 "/>
</clipPath>
<clipPath id="clip4">
  <path d="M 153.453125 63.59375 C 153.453125 113.269531 113.171875 153.503906 63.542969 153.503906 C 13.914062 153.503906 -26.363281 113.269531 -26.363281 63.59375 C -26.363281 13.921875 13.914062 -26.3125 63.542969 -26.3125 C 113.171875 -26.3125 153.453125 13.921875 153.453125 63.59375 Z M 153.453125 63.59375 "/>
</clipPath>
<clipPath id="clip5">
  <path d="M 36 35.75 L 114.5 35.75 L 114.5 115 L 36 115 Z M 36 35.75 "/>
</clipPath>
<clipPath id="clip6">
  <path d="M 153.453125 63.59375 C 153.453125 113.269531 113.171875 153.503906 63.542969 153.503906 C 13.914062 153.503906 -26.363281 113.269531 -26.363281 63.59375 C -26.363281 13.921875 13.914062 -26.3125 63.542969 -26.3125 C 113.171875 -26.3125 153.453125 13.921875 153.453125 63.59375 Z M 153.453125 63.59375 "/>
</clipPath>
<clipPath id="clip7">
  <path d="M 12.5 36 L 91 36 L 91 59.75 L 12.5 59.75 Z M 12.5 36 "/>
</clipPath>
<clipPath id="clip8">
  <path d="M 153.453125 63.59375 C 153.453125 113.269531 113.171875 153.503906 63.542969 153.503906 C 13.914062 153.503906 -26.363281 113.269531 -26.363281 63.59375 C -26.363281 13.921875 13.914062 -26.3125 63.542969 -26.3125 C 113.171875 -26.3125 153.453125 13.921875 153.453125 63.59375 Z M 153.453125 63.59375 "/>
</clipPath>
<clipPath id="clip9">
  <path d="M 12.5 47.75 L 83.25 47.75 L 83.25 99 L 12.5 99 Z M 12.5 47.75 "/>
</clipPath>
<clipPath id="clip10">
  <path d="M 153.453125 63.59375 C 153.453125 113.269531 113.171875 153.503906 63.542969 153.503906 C 13.914062 153.503906 -26.363281 113.269531 -26.363281 63.59375 C -26.363281 13.921875 13.914062 -26.3125 63.542969 -26.3125 C 113.171875 -26.3125 153.453125 13.921875 153.453125 63.59375 Z M 153.453125 63.59375 "/>
</clipPath>
<clipPath id="clip11">
  <path d="M 55.5 55.5 L 95 55.5 L 95 95.25 L 55.5 95.25 Z M 55.5 55.5 "/>
</clipPath>
<clipPath id="clip12">
  <path d="M 153.453125 63.59375 C 153.453125 113.269531 113.171875 153.503906 63.542969 153.503906 C 13.914062 153.503906 -26.363281 113.269531 -26.363281 63.59375 C -26.363281 13.921875 13.914062 -26.3125 63.542969 -26.3125 C 113.171875 -26.3125 153.453125 13.921875 153.453125 63.59375 Z M 153.453125 63.59375 "/>
</clipPath>
</defs>
<g id="surface1">
<path style="fill-rule:nonzero;fill:rgb(100%,100%,100%);fill-opacity:1;stroke-width:7.039455;stroke-linecap:butt;stroke-linejoin:miter;stroke:rgb(86.27451%,61.568627%,0%);stroke-opacity:1;stroke-miterlimit:4;" d="M 20.421875 6.34375 L 107.578125 6.34375 C 115.355469 6.34375 121.65625 12.644531 121.65625 20.421875 L 121.65625 107.578125 C 121.65625 115.355469 115.355469 121.65625 107.578125 121.65625 L 20.421875 121.65625 C 12.644531 121.65625 6.34375 115.355469 6.34375 107.578125 L 6.34375 20.421875 C 6.34375 12.644531 12.644531 6.34375 20.421875 6.34375 Z M 20.421875 6.34375 "/>
<g clip-path="url(#clip1)" clip-rule="nonzero">
<g clip-path="url(#clip2)" clip-rule="nonzero">
<path style=" stroke:none;fill-rule:nonzero;fill:rgb(97.647059%,97.647059%,97.647059%);fill-opacity:1;" d="M 59.113281 19.679688 C 59.128906 21.4375 58.046875 23.070312 56.273438 23.957031 C 54.5 24.828125 52.300781 24.828125 50.53125 23.957031 C 48.757812 23.070312 47.675781 21.4375 47.6875 19.679688 C 47.671875 17.925781 48.753906 16.292969 50.53125 15.40625 C 52.300781 14.53125 54.5 14.53125 56.273438 15.40625 C 58.042969 16.292969 59.125 17.925781 59.113281 19.679688 M 59.113281 19.679688 "/>
</g>
</g>
<g clip-path="url(#clip3)" clip-rule="nonzero">
<g clip-path="url(#clip4)" clip-rule="nonzero">
<path style=" stroke:none;fill-rule:nonzero;fill:rgb(23.529412%,61.568627%,9.019608%);fill-opacity:1;" d="M 104.742188 65.855469 C 108.039062 63.820312 110.453125 59.398438 110.453125 55.378906 C 110.453125 51.726562 108.617188 45.820312 105.382812 38.949219 C 101.960938 31.695312 92.265625 21.695312 85.027344 17.9375 C 76.21875 13.371094 72.03125 12.546875 58.59375 12.835938 C 48.253906 13.066406 46.667969 13.261719 44.914062 14.621094 C 42.515625 16.488281 39.796875 22.03125 40.117188 24.378906 C 40.484375 27.039062 44.988281 28.351562 51.722656 27.769531 C 58.242188 27.203125 59.1875 27.921875 56.136719 31.171875 C 54.625 32.792969 53.035156 33.554688 50.457031 33.921875 C 48.5 34.195312 46.410156 34.5 45.8125 34.59375 C 45.066406 34.714844 45.292969 35.128906 46.53125 35.890625 C 47.765625 36.636719 51.648438 37.117188 58.882812 37.40625 C 68.230469 37.773438 69.863281 38.046875 73.40625 39.800781 C 77.683594 41.9375 82.976562 47.050781 84.8125 50.808594 C 85.421875 52.074219 86.550781 55.039062 87.320312 57.390625 C 89.546875 64.28125 93.320312 67.546875 99 67.515625 C 100.832031 67.5 103.210938 66.828125 104.757812 65.867188 M 50.304688 22.59375 C 48.164062 20.304688 50.242188 15.03125 53.296875 15.03125 C 56.75 15.03125 58.6875 19.75 56.277344 22.316406 C 54.914062 23.75 51.542969 23.902344 50.308594 22.605469 M 50.308594 22.589844 "/>
</g>
</g>
<g clip-path="url(#clip5)" clip-rule="nonzero">
<g clip-path="url(#clip6)" clip-rule="nonzero">
<path style=" stroke:none;fill-rule:nonzero;fill:rgb(86.27451%,61.568627%,0%);fill-opacity:1;" d="M 114.359375 75.320312 C 114.496094 89.371094 107.0625 102.410156 94.921875 109.480469 C 82.765625 116.535156 67.773438 116.535156 55.636719 109.480469 C 43.5 102.40625 36.089844 89.367188 36.195312 75.320312 C 36.074219 61.273438 43.492188 48.234375 55.636719 41.164062 C 67.789062 34.109375 82.78125 34.109375 94.921875 41.164062 C 107.058594 48.234375 114.503906 61.277344 114.359375 75.320312 M 114.359375 75.320312 "/>
</g>
</g>
<g clip-path="url(#clip7)" clip-rule="nonzero">
<g clip-path="url(#clip8)" clip-rule="nonzero">
<path style=" stroke:none;fill-rule:nonzero;fill:rgb(86.27451%,61.568627%,0%);fill-opacity:1;" d="M 25.261719 36.230469 L 78.339844 36.230469 C 85.269531 36.230469 90.890625 41.238281 90.890625 47.390625 L 90.890625 48.523438 C 90.890625 54.691406 85.269531 59.679688 78.339844 59.679688 L 25.261719 59.679688 C 18.34375 59.679688 12.726562 54.691406 12.726562 48.523438 L 12.726562 47.390625 C 12.726562 41.238281 18.347656 36.230469 25.261719 36.230469 M 25.261719 36.230469 "/>
</g>
</g>
<g clip-path="url(#clip9)" clip-rule="nonzero">
<g clip-path="url(#clip10)" clip-rule="nonzero">
<path style=" stroke:none;fill-rule:nonzero;fill:rgb(86.27451%,61.568627%,0%);fill-opacity:1;" d="M 19.367188 76.296875 L 64.976562 49.792969 C 70.945312 46.324219 78.21875 47.914062 81.222656 53.335938 L 81.773438 54.3125 C 84.796875 59.734375 82.398438 66.9375 76.445312 70.40625 L 30.835938 96.925781 C 24.882812 100.378906 17.597656 98.792969 14.589844 93.371094 L 14.039062 92.390625 C 11.03125 86.96875 13.414062 79.765625 19.367188 76.296875 M 19.367188 76.296875 "/>
</g>
</g>
<g clip-path="url(#clip11)" clip-rule="nonzero">
<g clip-path="url(#clip12)" clip-rule="nonzero">
<path style=" stroke:none;fill-rule:nonzero;fill:rgb(0%,43.921569%,72.54902%);fill-opacity:1;" d="M 94.816406 75.320312 C 94.878906 82.347656 91.164062 88.867188 85.089844 92.390625 C 79.027344 95.933594 71.515625 95.933594 65.46875 92.390625 C 59.386719 88.867188 55.679688 82.347656 55.742188 75.320312 C 55.679688 68.296875 59.390625 61.777344 65.46875 58.25 C 71.53125 54.710938 79.042969 54.710938 85.089844 58.25 C 91.167969 61.777344 94.878906 68.296875 94.816406 75.320312 M 94.816406 75.320312 "/>
</g>
</g>
</g>
</svg>
