
<svg xmlns="http://www.w3.org/2000/svg" xmlns:xlink="http://www.w3.org/1999/xlink" width="128px" height="128px" viewBox="0 0 128 128" version="1.1">
<g id="surface1">
<path style=" stroke:none;fill-rule:nonzero;fill:rgb(4.313725%,69.803922%,92.941176%);fill-opacity:1;" d="M 88.109375 115.453125 C 73.558594 112.546875 60.441406 109.921875 58.960938 109.617188 L 56.269531 109.054688 L 56.269531 67.625 L 73.476562 67.773438 C 82.941406 67.855469 96.425781 68.050781 103.445312 68.207031 L 116.203125 68.492188 L 116.203125 94.660156 C 116.203125 119.289062 116.15625 120.824219 115.382812 120.777344 C 114.933594 120.75 102.660156 118.351562 88.109375 115.453125 Z M 30.515625 103.976562 L 12.488281 100.441406 L 12.363281 83.789062 L 12.242188 67.132812 L 30.390625 67.347656 C 40.375 67.464844 48.597656 67.609375 48.664062 67.664062 C 48.730469 67.722656 48.730469 76.710938 48.664062 87.640625 L 48.542969 107.511719 Z M 12.253906 44.269531 C 12.253906 35.125 12.3125 27.648438 12.390625 27.648438 C 12.460938 27.648438 20.40625 26.066406 30.046875 24.132812 C 39.683594 22.203125 47.84375 20.625 48.171875 20.625 C 48.65625 20.625 48.777344 24.589844 48.777344 40.449219 L 48.777344 60.273438 L 39.296875 60.582031 C 34.078125 60.75 25.859375 60.890625 21.03125 60.890625 L 12.253906 60.890625 Z M 56.269531 39.765625 L 56.269531 18.953125 L 85.414062 13.195312 C 101.449219 10.03125 114.933594 7.335938 115.382812 7.210938 C 116.15625 6.992188 116.203125 8.46875 116.203125 33.46875 L 116.203125 59.957031 L 100.359375 59.957031 C 91.644531 59.957031 78.160156 60.09375 70.390625 60.265625 L 56.269531 60.574219 Z M 56.269531 39.765625 "/>
</g>
</svg>
