
<svg xmlns="http://www.w3.org/2000/svg" xmlns:xlink="http://www.w3.org/1999/xlink" width="128px" height="128px" viewBox="0 0 128 128" version="1.1">
<g id="surface1">
<path style="fill-rule:nonzero;fill:rgb(17.254902%,24.313725%,31.372549%);fill-opacity:1;stroke-width:2.597645;stroke-linecap:butt;stroke-linejoin:miter;stroke:rgb(83.137255%,10.196078%,10.196078%);stroke-opacity:1;stroke-miterlimit:4;" d="M 7.918945 1007.086778 L 40.081053 1007.086778 C 42.950682 1007.086778 45.276854 1009.41295 45.276854 1012.281114 L 45.276854 1044.443222 C 45.276854 1047.312851 42.950682 1049.637558 40.081053 1049.637558 L 7.918945 1049.637558 C 5.050781 1049.637558 2.724609 1047.312851 2.724609 1044.443222 L 2.724609 1012.281114 C 2.724609 1009.41295 5.050781 1007.086778 7.918945 1007.086778 Z M 7.918945 1007.086778 " transform="matrix(2.666667,0,0,2.666667,0,-2678.2992)"/>
<path style=" stroke:none;fill-rule:nonzero;fill:rgb(90.588235%,29.803922%,23.529412%);fill-opacity:1;" d="M 74.609375 36.605469 L 52.925781 36.605469 L 57.765625 20.34375 L 69.773438 20.34375 Z M 74.609375 36.605469 "/>
<path style=" stroke:none;fill-rule:nonzero;fill:rgb(90.588235%,29.803922%,23.529412%);fill-opacity:1;" d="M 52.925781 91.394531 L 74.609375 91.394531 L 69.773438 107.65625 L 57.765625 107.65625 Z M 52.925781 91.394531 "/>
<path style=" stroke:none;fill-rule:nonzero;fill:rgb(90.588235%,29.803922%,23.529412%);fill-opacity:1;" d="M 91.160156 74.464844 L 91.160156 52.78125 L 107.421875 57.617188 L 107.421875 69.625 Z M 91.160156 74.464844 "/>
<path style=" stroke:none;fill-rule:nonzero;fill:rgb(90.588235%,29.803922%,23.529412%);fill-opacity:1;" d="M 36.375 52.78125 L 36.375 74.464844 L 20.113281 69.625 L 20.113281 57.617188 Z M 36.375 52.78125 "/>
<path style=" stroke:none;fill-rule:nonzero;fill:rgb(90.588235%,29.803922%,23.529412%);fill-opacity:1;" d="M 52.230469 36.796875 L 36.898438 52.128906 L 28.820312 37.210938 L 37.3125 28.71875 Z M 52.230469 36.796875 "/>
<path style=" stroke:none;fill-rule:nonzero;fill:rgb(90.588235%,29.803922%,23.529412%);fill-opacity:1;" d="M 75.640625 90.867188 L 90.96875 75.539062 L 99.046875 90.453125 L 90.558594 98.949219 Z M 75.640625 90.867188 "/>
<path style=" stroke:none;fill-rule:nonzero;fill:rgb(90.588235%,29.803922%,23.529412%);fill-opacity:1;" d="M 90.636719 52.128906 L 75.304688 36.796875 L 90.222656 28.71875 L 98.714844 37.210938 Z M 90.636719 52.128906 "/>
<path style=" stroke:none;fill-rule:nonzero;fill:rgb(90.588235%,29.803922%,23.529412%);fill-opacity:1;" d="M 36.566406 75.539062 L 51.898438 90.867188 L 36.976562 98.945312 L 28.488281 90.457031 Z M 36.566406 75.539062 "/>
<path style=" stroke:none;fill-rule:nonzero;fill:rgb(90.588235%,29.803922%,23.529412%);fill-opacity:1;" d="M 64.121094 79.914062 C 55.117188 79.914062 47.8125 72.609375 47.8125 63.601562 C 47.8125 54.59375 55.117188 47.289062 64.121094 47.289062 C 73.128906 47.289062 80.429688 54.59375 80.429688 63.601562 C 80.429688 72.609375 73.128906 79.914062 64.121094 79.914062 M 63.765625 29.917969 C 44.96875 29.917969 29.726562 45.160156 29.726562 63.957031 C 29.726562 82.753906 44.96875 97.996094 63.765625 97.996094 C 82.5625 97.996094 97.804688 82.753906 97.804688 63.957031 C 97.804688 45.160156 82.5625 29.917969 63.765625 29.917969 "/>
</g>
</svg>
