<!-- Generator: Adobe Illustrator 16.0.4, SVG Export Plug-In . SVG Version: 6.00 Build 0)  -->
<svg xmlns="http://www.w3.org/2000/svg" xmlns:xlink="http://www.w3.org/1999/xlink" width="128px" height="128px" viewBox="0 0 128 128" version="1.1">
<g id="surface1">
<path style=" stroke:none;fill-rule:nonzero;fill:rgb(33.333333%,86.666667%,100%);fill-opacity:1;" d="M 120.890625 69.597656 C 120.894531 65.910156 120.492188 62.320312 119.75 58.84375 L 119.75 58.195312 L 119.601562 58.195312 C 115.519531 40.195312 101.945312 25.816406 84.425781 20.527344 C 97.132812 15.1875 108.015625 14.734375 113.808594 20.527344 C 118.65625 25.375 119.160156 33.789062 116.054688 43.84375 C 121.25 30.363281 121.304688 18.84375 114.96875 12.515625 C 106.527344 4.070312 88.882812 7.007812 69.652344 18.3125 C 69.636719 18.3125 69.621094 18.3125 69.609375 18.3125 C 41.320312 18.3125 18.363281 41.230469 18.324219 69.527344 C 6.890625 88.859375 3.890625 106.632812 12.371094 115.109375 C 18.710938 121.449219 30.222656 121.398438 43.699219 116.203125 C 33.644531 119.300781 25.242188 118.804688 20.390625 113.949219 C 14.558594 108.117188 15.058594 97.140625 20.492188 84.324219 C 26.824219 105.476562 46.410156 120.890625 69.609375 120.890625 C 92.359375 120.890625 111.636719 106.066406 118.347656 85.558594 L 88.171875 85.558594 C 83.675781 90.777344 77.027344 94.101562 69.597656 94.101562 C 58.25 94.101562 48.714844 86.359375 45.933594 75.875 L 120.496094 75.875 C 120.734375 73.8125 120.890625 71.722656 120.890625 69.597656 Z M 47.921875 58.203125 C 52.03125 50.421875 60.1875 45.105469 69.609375 45.105469 C 79.023438 45.105469 87.191406 50.425781 91.292969 58.203125 Z M 47.921875 58.203125 "/>
</g>
</svg>
