
<svg xmlns="http://www.w3.org/2000/svg" xmlns:xlink="http://www.w3.org/1999/xlink" width="16px" height="16px" viewBox="0 0 16 16" version="1.1">
<g id="surface1">
<path style="fill-rule:nonzero;fill:rgb(80%,80%,80%);fill-opacity:1;stroke-width:1;stroke-linecap:butt;stroke-linejoin:miter;stroke:rgb(23.137255%,20.392157%,20.392157%);stroke-opacity:1;stroke-miterlimit:4;" d="M 309.875 42.5 C 287.125 42.5 268.5 63.375 264.75 91 L 444.625 91 C 440.875 63.375 422.125 42.5 399.5 42.5 Z M 309.875 42.5 " transform="matrix(0.03125,0,0,0.03125,0,0)"/>
<path style=" stroke:none;fill-rule:nonzero;fill:#DCDC23;fill-opacity:1;" d="M 2.0625 3.085938 L 13.9375 3.085938 C 14.878906 3.085938 15.640625 3.851562 15.640625 4.792969 L 15.640625 10.777344 C 15.640625 11.71875 14.878906 12.480469 13.9375 12.480469 L 2.0625 12.480469 C 1.121094 12.480469 0.359375 11.71875 0.359375 10.777344 L 0.359375 4.792969 C 0.359375 3.851562 1.121094 3.085938 2.0625 3.085938 Z M 2.0625 3.085938 "/>
<path style=" stroke:none;fill-rule:nonzero;fill:#DCDC23;fill-opacity:1;" d="M 2.0625 5.277344 L 13.9375 5.277344 C 14.878906 5.277344 15.640625 6.042969 15.640625 6.984375 L 15.640625 12.96875 C 15.640625 13.910156 14.878906 14.671875 13.9375 14.671875 L 2.0625 14.671875 C 1.121094 14.671875 0.359375 13.910156 0.359375 12.96875 L 0.359375 6.984375 C 0.359375 6.042969 1.121094 5.277344 2.0625 5.277344 Z M 2.0625 5.277344 "/>
<path style=" stroke:none;fill-rule:nonzero;fill:rgb(100%,100%,100%);fill-opacity:1;" d="M 8.253906 6.363281 C 7.8125 6.363281 7.453125 6.695312 7.453125 7.109375 C 7.453125 7.15625 7.457031 7.210938 7.460938 7.269531 C 7.390625 7.308594 7.382812 7.453125 7.445312 7.597656 C 7.46875 7.65625 7.5 7.703125 7.535156 7.742188 C 7.535156 7.742188 7.535156 7.742188 7.539062 7.742188 C 7.546875 7.78125 7.550781 7.8125 7.558594 7.855469 C 7.589844 7.945312 7.714844 8.113281 7.820312 8.257812 C 7.832031 8.367188 7.832031 8.476562 7.8125 8.601562 C 7.636719 8.746094 7.3125 8.847656 7.0625 8.957031 C 6.96875 8.914062 6.886719 8.871094 6.828125 8.816406 C 6.820312 8.742188 6.820312 8.664062 6.824219 8.589844 C 6.898438 8.476562 6.992188 8.332031 7.019531 8.257812 C 7.027344 8.21875 7.03125 8.191406 7.039062 8.160156 C 7.058594 8.132812 7.078125 8.101562 7.097656 8.0625 C 7.140625 7.957031 7.132812 7.859375 7.089844 7.824219 C 7.09375 7.78125 7.097656 7.738281 7.097656 7.699219 C 7.097656 7.390625 6.832031 7.136719 6.5 7.136719 C 6.167969 7.136719 5.898438 7.390625 5.898438 7.699219 C 5.898438 7.734375 5.902344 7.773438 5.90625 7.816406 C 5.851562 7.847656 5.847656 7.953125 5.894531 8.0625 C 5.910156 8.105469 5.9375 8.140625 5.960938 8.167969 C 5.960938 8.171875 5.964844 8.171875 5.964844 8.171875 C 5.96875 8.203125 5.972656 8.222656 5.980469 8.257812 C 6.003906 8.324219 6.09375 8.449219 6.171875 8.558594 C 6.179688 8.640625 6.183594 8.722656 6.167969 8.816406 C 5.933594 9.011719 5.339844 9.09375 5.339844 9.296875 L 5.261719 9.816406 C 5.261719 9.925781 5.421875 10.019531 5.671875 10.085938 L 5.710938 10.226562 C 5.71875 10.253906 5.738281 10.277344 5.765625 10.285156 C 5.773438 10.289062 5.78125 10.300781 5.8125 10.308594 C 5.972656 10.355469 6.222656 10.390625 6.5 10.390625 C 6.761719 10.390625 6.996094 10.355469 7.15625 10.316406 L 7.199219 10.484375 C 7.210938 10.519531 7.234375 10.550781 7.269531 10.5625 C 7.285156 10.570312 7.296875 10.578125 7.335938 10.59375 C 7.554688 10.65625 7.882812 10.699219 8.253906 10.699219 C 8.625 10.699219 8.957031 10.65625 9.171875 10.59375 C 9.214844 10.578125 9.226562 10.570312 9.242188 10.5625 C 9.273438 10.550781 9.296875 10.523438 9.308594 10.488281 L 9.355469 10.316406 C 9.519531 10.359375 9.75 10.390625 10.007812 10.390625 C 10.285156 10.390625 10.535156 10.355469 10.699219 10.308594 C 10.730469 10.300781 10.734375 10.289062 10.746094 10.285156 C 10.773438 10.277344 10.789062 10.257812 10.796875 10.230469 L 10.84375 10.082031 C 11.089844 10.015625 11.246094 9.921875 11.246094 9.816406 L 11.167969 9.296875 C 11.164062 9.125 10.566406 9.019531 10.335938 8.816406 C 10.328125 8.742188 10.328125 8.664062 10.335938 8.589844 C 10.40625 8.476562 10.503906 8.332031 10.527344 8.257812 C 10.535156 8.21875 10.539062 8.191406 10.546875 8.160156 C 10.570312 8.132812 10.589844 8.101562 10.605469 8.0625 C 10.648438 7.957031 10.644531 7.859375 10.597656 7.824219 C 10.601562 7.78125 10.605469 7.738281 10.609375 7.699219 C 10.609375 7.390625 10.339844 7.136719 10.007812 7.136719 C 9.675781 7.136719 9.410156 7.390625 9.410156 7.699219 C 9.410156 7.734375 9.410156 7.773438 9.414062 7.816406 C 9.363281 7.847656 9.355469 7.953125 9.402344 8.0625 C 9.421875 8.105469 9.445312 8.140625 9.46875 8.167969 C 9.46875 8.171875 9.472656 8.171875 9.472656 8.171875 C 9.480469 8.203125 9.480469 8.222656 9.488281 8.257812 C 9.511719 8.324219 9.601562 8.449219 9.683594 8.558594 C 9.691406 8.640625 9.691406 8.722656 9.675781 8.816406 C 9.609375 8.875 9.515625 8.917969 9.410156 8.960938 C 9.164062 8.855469 8.855469 8.746094 8.691406 8.601562 C 8.679688 8.5 8.679688 8.398438 8.6875 8.296875 C 8.785156 8.148438 8.914062 7.957031 8.945312 7.855469 C 8.960938 7.804688 8.964844 7.773438 8.972656 7.726562 C 9.003906 7.691406 9.027344 7.648438 9.050781 7.597656 C 9.109375 7.460938 9.105469 7.324219 9.042969 7.28125 C 9.046875 7.21875 9.050781 7.160156 9.054688 7.109375 C 9.054688 6.695312 8.695312 6.363281 8.253906 6.363281 Z M 8.253906 6.363281 "/>
<path style="fill:none;stroke-width:1;stroke-linecap:butt;stroke-linejoin:miter;stroke:rgb(100%,100%,100%);stroke-opacity:1;stroke-miterlimit:4;" d="M 14.90625 15.84375 L 34.898436 15.84375 L 34.898436 35.835936 L 14.90625 35.835936 Z M 14.90625 15.84375 " transform="matrix(0.333333,0,0,0.333333,0,0)"/>
</g>
</svg>
