
<svg xmlns="http://www.w3.org/2000/svg" xmlns:xlink="http://www.w3.org/1999/xlink" width="24px" height="24px" viewBox="0 0 24 24" version="1.1">
<g id="surface1">
<path style=" stroke:none;fill-rule:nonzero;fill:rgb(92.54902%,91.372549%,84.705882%);fill-opacity:1;" d="M 6.433594 1.296875 C 4.8125 1.296875 3.507812 2.601562 3.507812 4.222656 L 3.507812 19.777344 C 3.507812 21.398438 4.8125 22.703125 6.433594 22.703125 L 13.5625 22.703125 L 13.5625 1.789062 L 12.421875 1.296875 Z M 6.433594 1.296875 "/>
<path style=" stroke:none;fill-rule:nonzero;fill:rgb(92.54902%,91.372549%,84.705882%);fill-opacity:1;" d="M 13.75 1.867188 L 13.75 3.03125 L 15.75 3.03125 L 15.75 2.726562 Z M 13.75 1.867188 "/>
<path style=" stroke:none;fill-rule:nonzero;fill:rgb(97.647059%,97.254902%,95.294118%);fill-opacity:0.682353;" d="M 13.75 1.867188 L 13.75 3.03125 L 15.75 3.03125 L 15.75 2.726562 Z M 13.75 1.867188 "/>
<path style=" stroke:none;fill-rule:nonzero;fill:rgb(10.588235%,63.921569%,61.176471%);fill-opacity:1;" d="M 19.429688 1.960938 C 19.5 2.019531 19.570312 2.085938 19.636719 2.152344 C 19.570312 2.085938 19.503906 2.023438 19.429688 1.960938 Z M 19.429688 1.960938 "/>
<path style=" stroke:none;fill-rule:nonzero;fill:rgb(92.54902%,91.372549%,84.705882%);fill-opacity:1;" d="M 15.9375 3.21875 L 15.9375 5.28125 L 17.9375 5.28125 L 17.9375 3.667969 L 16.894531 3.21875 Z M 15.9375 3.21875 "/>
<path style=" stroke:none;fill-rule:nonzero;fill:rgb(92.54902%,91.372549%,84.705882%);fill-opacity:1;" d="M 13.75 5.46875 L 13.75 7.28125 L 15.75 7.28125 L 15.75 5.46875 Z M 13.75 5.46875 "/>
<path style=" stroke:none;fill-rule:nonzero;fill:rgb(92.54902%,91.372549%,84.705882%);fill-opacity:1;" d="M 18.125 5.46875 L 18.125 7.28125 L 19.8125 7.28125 L 19.8125 5.46875 Z M 18.125 5.46875 "/>
<path style=" stroke:none;fill-rule:nonzero;fill:rgb(92.54902%,91.372549%,84.705882%);fill-opacity:1;" d="M 15.9375 7.46875 L 15.9375 10.40625 L 17.9375 10.40625 L 17.9375 7.46875 Z M 15.9375 7.46875 "/>
<path style=" stroke:none;fill-rule:nonzero;fill:rgb(92.54902%,91.372549%,84.705882%);fill-opacity:1;" d="M 21.285156 11.171875 L 21.285156 14.109375 L 22.972656 14.109375 L 22.972656 11.171875 Z M 21.285156 11.171875 "/>
<path style=" stroke:none;fill-rule:nonzero;fill:rgb(92.54902%,91.372549%,84.705882%);fill-opacity:1;" d="M 13.75 10.59375 L 13.75 13.15625 L 15.75 13.15625 L 15.75 10.59375 Z M 13.75 10.59375 "/>
<path style=" stroke:none;fill-rule:nonzero;fill:rgb(92.54902%,91.372549%,84.705882%);fill-opacity:1;" d="M 18.125 10.59375 L 18.125 13.15625 L 19.8125 13.15625 L 19.8125 10.59375 Z M 18.125 10.59375 "/>
<path style=" stroke:none;fill-rule:nonzero;fill:rgb(92.54902%,91.372549%,84.705882%);fill-opacity:1;" d="M 15.9375 13.34375 L 15.9375 15.90625 L 17.9375 15.90625 L 17.9375 13.34375 Z M 15.9375 13.34375 "/>
<path style=" stroke:none;fill-rule:nonzero;fill:rgb(92.54902%,91.372549%,84.705882%);fill-opacity:1;" d="M 13.75 16.09375 L 13.75 18.90625 L 15.75 18.90625 L 15.75 16.09375 Z M 13.75 16.09375 "/>
<path style=" stroke:none;fill-rule:nonzero;fill:rgb(92.54902%,91.372549%,84.705882%);fill-opacity:1;" d="M 18.125 16.09375 L 18.125 18.90625 L 19.8125 18.90625 L 19.8125 16.09375 Z M 18.125 16.09375 "/>
<path style=" stroke:none;fill-rule:nonzero;fill:rgb(92.54902%,91.372549%,84.705882%);fill-opacity:1;" d="M 15.9375 19.09375 L 15.9375 21.40625 L 17.9375 21.40625 L 17.9375 19.09375 Z M 15.9375 19.09375 "/>
<path style=" stroke:none;fill-rule:nonzero;fill:rgb(92.54902%,91.372549%,84.705882%);fill-opacity:1;" d="M 20.847656 17.5625 L 20.847656 19.875 L 22.535156 19.875 L 22.535156 17.5625 Z M 20.847656 17.5625 "/>
<path style=" stroke:none;fill-rule:nonzero;fill:rgb(92.54902%,91.372549%,84.705882%);fill-opacity:1;" d="M 13.75 21.59375 L 13.75 22.703125 L 15.75 22.703125 L 15.75 21.59375 Z M 13.75 21.59375 "/>
<path style=" stroke:none;fill-rule:nonzero;fill:rgb(100%,100%,100%);fill-opacity:0.682353;" d="M 12.421875 1.296875 L 12.421875 1.839844 C 12.421875 2.789062 12.867188 3.625 13.5625 4.160156 L 13.5625 1.789062 Z M 12.421875 1.296875 "/>
<path style=" stroke:none;fill-rule:nonzero;fill:rgb(100%,100%,100%);fill-opacity:0.682353;" d="M 15.9375 3.21875 L 15.9375 4.765625 L 17.9375 4.765625 L 17.9375 3.667969 L 16.894531 3.21875 Z M 15.9375 3.21875 "/>
<path style=" stroke:none;fill-rule:nonzero;fill:rgb(100%,100%,100%);fill-opacity:0.682353;" d="M 21.085938 5.164062 L 21.085938 6.179688 L 23.453125 6.179688 Z M 21.085938 5.164062 "/>
<path style=" stroke:none;fill-rule:nonzero;fill:rgb(0%,0%,0%);fill-opacity:0.352941;" d="M 7.652344 9.828125 L 7.652344 10.261719 L 12.84375 10.261719 L 12.84375 9.828125 Z M 7.652344 9.828125 "/>
<path style=" stroke:none;fill-rule:nonzero;fill:rgb(0%,0%,0%);fill-opacity:0.352941;" d="M 7.652344 11.566406 L 7.652344 12 L 14.699219 12 L 14.699219 11.566406 Z M 7.652344 11.566406 "/>
<path style=" stroke:none;fill-rule:nonzero;fill:rgb(0%,0%,0%);fill-opacity:0.352941;" d="M 7.652344 13.304688 L 7.652344 13.738281 L 12.84375 13.738281 L 12.84375 13.304688 Z M 7.652344 13.304688 "/>
<path style=" stroke:none;fill-rule:nonzero;fill:rgb(0%,0%,0%);fill-opacity:0.352941;" d="M 16.113281 13.4375 L 16.113281 13.871094 L 17.761719 13.871094 L 17.761719 13.4375 Z M 16.113281 13.4375 "/>
<path style=" stroke:none;fill-rule:nonzero;fill:rgb(0%,0%,0%);fill-opacity:0.352941;" d="M 7.652344 15.042969 L 7.652344 15.476562 L 13.636719 15.476562 L 13.636719 15.042969 Z M 7.652344 15.042969 "/>
<path style=" stroke:none;fill-rule:nonzero;fill:rgb(0%,0%,0%);fill-opacity:0.352941;" d="M 7.652344 16.78125 L 7.652344 17.21875 L 12.789062 17.21875 L 12.789062 16.78125 Z M 7.652344 16.78125 "/>
</g>
</svg>
