
<svg xmlns="http://www.w3.org/2000/svg" xmlns:xlink="http://www.w3.org/1999/xlink" width="24px" height="24px" viewBox="0 0 24 24" version="1.1">
<g id="surface1">
<path style=" stroke:none;fill-rule:nonzero;fill:rgb(83.137255%,10.196078%,10.196078%);fill-opacity:1;" d="M 6.433594 1.296875 C 4.8125 1.296875 3.507812 2.601562 3.507812 4.222656 L 3.507812 19.777344 C 3.507812 21.398438 4.8125 22.703125 6.433594 22.703125 L 17.566406 22.703125 C 19.1875 22.703125 20.492188 21.398438 20.492188 19.777344 L 20.492188 4.765625 L 12.421875 1.296875 Z M 17.867188 1.3125 C 18.0625 1.332031 18.253906 1.371094 18.4375 1.425781 C 18.253906 1.371094 18.0625 1.332031 17.867188 1.3125 Z M 18.4375 1.425781 C 18.714844 1.511719 18.96875 1.636719 19.203125 1.792969 C 18.96875 1.636719 18.714844 1.511719 18.4375 1.425781 Z M 19.429688 1.960938 C 19.5 2.019531 19.570312 2.085938 19.636719 2.152344 C 19.570312 2.085938 19.503906 2.023438 19.429688 1.960938 Z M 19.429688 1.960938 "/>
<path style=" stroke:none;fill-rule:nonzero;fill:rgb(100%,100%,100%);fill-opacity:0.682353;" d="M 20.492188 4.765625 L 12.421875 1.296875 L 12.421875 1.839844 C 12.421875 3.460938 13.726562 4.765625 15.347656 4.765625 Z M 20.492188 4.765625 "/>
<path style=" stroke:none;fill-rule:nonzero;fill:rgb(100%,100%,100%);fill-opacity:1;" d="M 8.277344 9.394531 C 8.09375 9.414062 8.085938 9.503906 8.085938 9.828125 L 8.085938 11.132812 L 15.914062 11.132812 L 15.914062 9.828125 C 15.914062 9.394531 15.914062 9.394531 15.476562 9.394531 L 8.523438 9.394531 C 8.414062 9.394531 8.339844 9.386719 8.277344 9.394531 Z M 8.085938 11.566406 L 8.085938 16.78125 C 8.085938 17.21875 8.085938 17.21875 8.523438 17.21875 L 15.476562 17.21875 C 15.914062 17.21875 15.914062 17.21875 15.914062 16.78125 L 15.914062 11.566406 Z M 13.414062 12.4375 C 13.699219 12.4375 13.949219 12.507812 14.160156 12.640625 C 14.375 12.773438 14.535156 12.957031 14.648438 13.210938 C 14.761719 13.460938 14.824219 13.757812 14.824219 14.105469 C 14.824219 14.859375 14.671875 15.421875 14.351562 15.792969 C 14.03125 16.160156 13.546875 16.347656 12.898438 16.347656 C 12.667969 16.347656 12.5 16.332031 12.378906 16.308594 L 12.378906 15.667969 C 12.527344 15.707031 12.679688 15.722656 12.84375 15.722656 C 13.113281 15.722656 13.332031 15.679688 13.507812 15.601562 C 13.683594 15.519531 13.824219 15.402344 13.914062 15.234375 C 14.007812 15.0625 14.066406 14.824219 14.078125 14.527344 L 14.039062 14.527344 C 13.9375 14.691406 13.816406 14.800781 13.683594 14.867188 C 13.550781 14.933594 13.394531 14.976562 13.195312 14.976562 C 12.859375 14.976562 12.585938 14.863281 12.394531 14.652344 C 12.199219 14.4375 12.109375 14.148438 12.109375 13.769531 C 12.109375 13.359375 12.226562 13.027344 12.460938 12.789062 C 12.699219 12.550781 13.007812 12.4375 13.414062 12.4375 Z M 10.410156 12.476562 L 11.089844 12.476562 L 11.089844 16.292969 L 10.273438 16.292969 L 10.273438 13.726562 L 10.289062 13.332031 C 10.152344 13.46875 10.054688 13.550781 10.003906 13.589844 L 9.566406 13.945312 L 9.175781 13.453125 Z M 13.316406 13.089844 C 13.207031 13.109375 13.105469 13.164062 13.03125 13.25 C 12.9375 13.367188 12.898438 13.539062 12.898438 13.753906 C 12.898438 13.9375 12.933594 14.082031 13.019531 14.1875 C 13.105469 14.296875 13.238281 14.351562 13.414062 14.351562 C 13.578125 14.351562 13.714844 14.292969 13.835938 14.1875 C 13.953125 14.082031 14.011719 13.960938 14.011719 13.820312 C 14.011719 13.613281 13.957031 13.433594 13.847656 13.292969 C 13.738281 13.148438 13.597656 13.089844 13.425781 13.089844 C 13.382812 13.089844 13.355469 13.082031 13.316406 13.089844 Z M 13.316406 13.089844 "/>
</g>
</svg>
