<?xml version="1.0" encoding="UTF-8"?>
<svg xmlns="http://www.w3.org/2000/svg" xmlns:xlink="http://www.w3.org/1999/xlink" width="24pt" height="24pt" viewBox="0 0 24 24" version="1.1">
<g id="surface1">
<path style="fill-rule:nonzero;fill:rgb(100%,100%,100%);fill-opacity:1;stroke-width:27.200571;stroke-linecap:butt;stroke-linejoin:miter;stroke:rgb(30.588235%,66.666667%,2.745098%);stroke-opacity:1;stroke-miterlimit:4;" d="M 81.704696 -39.37661 L 418.538029 -39.37661 C 448.538029 -39.37661 472.871363 -15.043277 472.871363 14.956723 L 472.871363 351.790057 C 472.871363 381.790057 448.538029 406.12339 418.538029 406.12339 L 81.704696 406.12339 C 51.704696 406.12339 27.371363 381.790057 27.371363 351.790057 L 27.371363 14.956723 C 27.371363 -15.043277 51.704696 -39.37661 81.704696 -39.37661 Z M 81.704696 -39.37661 " transform="matrix(0.046875,0,0,0.046875,0.275561,3.404372)"/>
<path style=" stroke:none;fill-rule:nonzero;fill:rgb(100%,100%,100%);fill-opacity:1;" d="M 8.8125 3.175781 C 8.457031 3.175781 8.167969 3.367188 8.167969 3.609375 L 8.167969 4.644531 L 5.800781 4.644531 C 5.292969 4.644531 4.878906 4.921875 4.878906 5.265625 L 4.878906 20.207031 C 4.878906 20.550781 5.292969 20.824219 5.800781 20.824219 L 18.199219 20.824219 C 18.707031 20.824219 19.121094 20.550781 19.121094 20.207031 L 19.121094 5.265625 C 19.121094 4.921875 18.707031 4.644531 18.199219 4.644531 L 15.832031 4.644531 L 15.832031 3.609375 C 15.832031 3.367188 15.542969 3.175781 15.1875 3.175781 Z M 8.8125 3.175781 "/>
<path style=" stroke:none;fill-rule:nonzero;fill:rgb(17.254902%,62.745098%,35.294118%);fill-opacity:1;" d="M 9.464844 3.695312 C 9.179688 3.695312 8.949219 3.847656 8.949219 4.039062 L 8.949219 5.105469 C 8.949219 5.109375 8.949219 5.113281 8.949219 5.117188 L 6.417969 5.117188 C 5.957031 5.117188 5.585938 5.375 5.585938 5.699219 L 5.585938 19.769531 C 5.585938 20.09375 5.957031 20.355469 6.417969 20.355469 L 17.582031 20.355469 C 18.042969 20.355469 18.414062 20.09375 18.414062 19.769531 L 18.414062 5.699219 C 18.414062 5.375 18.042969 5.117188 17.582031 5.117188 L 15.050781 5.117188 C 15.050781 5.113281 15.050781 5.109375 15.050781 5.105469 L 15.050781 4.039062 C 15.050781 3.847656 14.820312 3.695312 14.535156 3.695312 Z M 9.464844 3.695312 "/>
<path style=" stroke:none;fill-rule:evenodd;fill:rgb(100%,100%,100%);fill-opacity:1;" d="M 12.066406 7.539062 L 8.355469 13.765625 L 12.066406 13.765625 L 12.066406 17.917969 L 15.777344 11.691406 L 12.066406 11.691406 Z M 12.066406 7.539062 "/>
</g>
</svg>
