
<svg xmlns="http://www.w3.org/2000/svg" xmlns:xlink="http://www.w3.org/1999/xlink" width="22px" height="22px" viewBox="0 0 22 22" version="1.1">
<g id="surface1">
<path style="fill-rule:nonzero;fill:rgb(100%,100%,100%);fill-opacity:1;stroke-width:7.956348;stroke-linecap:butt;stroke-linejoin:miter;stroke:rgb(80.784314%,25.882353%,16.078431%);stroke-opacity:1;stroke-miterlimit:4;" d="M -15.130877 273.975016 L 83.390337 273.975016 C 92.164883 273.975016 99.297408 281.107542 99.297408 289.882087 L 99.297408 388.403302 C 99.297408 397.177848 92.164883 404.310373 83.390337 404.310373 L -15.130877 404.310373 C -23.905423 404.310373 -31.037948 397.177848 -31.037948 388.403302 L -31.037948 289.882087 C -31.037948 281.107542 -23.905423 273.975016 -15.130877 273.975016 Z M -15.130877 273.975016 " transform="matrix(0.152251,0,0,0.152251,5.803698,-40.634975)"/>
<path style=" stroke:none;fill-rule:nonzero;fill:rgb(20%,20%,20%);fill-opacity:1;" d="M 11 2.472656 C 8.390625 2.472656 6.257812 4.710938 6.007812 7.589844 L 15.992188 7.589844 C 15.742188 4.710938 13.609375 2.472656 11 2.472656 Z M 3.476562 8.386719 C 2.921875 8.386719 2.472656 8.890625 2.472656 9.523438 C 2.472656 10.152344 2.921875 10.660156 3.476562 10.660156 L 18.523438 10.660156 C 19.078125 10.660156 19.527344 10.152344 19.527344 9.523438 C 19.527344 8.890625 19.078125 8.386719 18.523438 8.386719 Z M 3.976562 12.707031 C 3.421875 12.707031 2.976562 13.210938 2.976562 13.84375 C 2.976562 14.472656 3.421875 14.980469 3.976562 14.980469 L 8.4375 14.980469 L 4.730469 17.402344 C 4.25 17.71875 4.085938 18.410156 4.363281 18.957031 C 4.640625 19.503906 5.253906 19.6875 5.734375 19.371094 L 10.246094 16.421875 L 10.246094 12.707031 Z M 11.753906 12.707031 L 11.753906 16.421875 L 16.265625 19.371094 C 16.746094 19.6875 17.359375 19.503906 17.636719 18.957031 C 17.914062 18.410156 17.75 17.71875 17.269531 17.402344 L 13.5625 14.980469 L 18.023438 14.980469 C 18.578125 14.980469 19.023438 14.472656 19.023438 13.84375 C 19.023438 13.210938 18.578125 12.707031 18.023438 12.707031 Z M 11.753906 12.707031 "/>
<path style=" stroke:none;fill-rule:nonzero;fill:rgb(83.137255%,10.196078%,10.196078%);fill-opacity:1;" d="M 4.980469 8.386719 L 4.980469 13.5 L 4.984375 13.5 C 4.984375 13.519531 4.980469 13.539062 4.980469 13.558594 C 4.980469 16.863281 7.148438 19.527344 9.84375 19.527344 L 10.246094 19.527344 L 10.246094 11.570312 L 11.753906 11.570312 L 11.753906 19.527344 L 12.15625 19.527344 C 14.851562 19.527344 17.019531 16.863281 17.019531 13.558594 C 17.019531 13.539062 17.015625 13.519531 17.015625 13.5 L 17.019531 13.5 L 17.019531 8.386719 Z M 4.980469 8.386719 "/>
<path style=" stroke:none;fill-rule:nonzero;fill:rgb(97.647059%,97.647059%,97.647059%);fill-opacity:1;" d="M 14.789062 10.792969 C 14.789062 11.195312 14.460938 11.519531 14.0625 11.519531 C 13.660156 11.519531 13.335938 11.195312 13.335938 10.792969 C 13.335938 10.390625 13.660156 10.066406 14.0625 10.066406 C 14.460938 10.066406 14.789062 10.390625 14.789062 10.792969 Z M 14.789062 10.792969 "/>
<path style=" stroke:none;fill-rule:nonzero;fill:rgb(97.647059%,97.647059%,97.647059%);fill-opacity:1;" d="M 8.871094 16.449219 C 8.871094 16.847656 8.546875 17.175781 8.144531 17.175781 C 7.746094 17.175781 7.417969 16.847656 7.417969 16.449219 C 7.417969 16.046875 7.746094 15.722656 8.144531 15.722656 C 8.546875 15.722656 8.871094 16.046875 8.871094 16.449219 Z M 8.871094 16.449219 "/>
<path style=" stroke:none;fill-rule:nonzero;fill:rgb(97.647059%,97.647059%,97.647059%);fill-opacity:1;" d="M 11.570312 9.652344 C 11.570312 10.050781 11.246094 10.378906 10.84375 10.378906 C 10.441406 10.378906 10.117188 10.050781 10.117188 9.652344 C 10.117188 9.25 10.441406 8.925781 10.84375 8.925781 C 11.246094 8.925781 11.570312 9.25 11.570312 9.652344 Z M 11.570312 9.652344 "/>
<path style=" stroke:none;fill-rule:nonzero;fill:rgb(97.647059%,97.647059%,97.647059%);fill-opacity:1;" d="M 14.996094 16.1875 C 14.996094 16.589844 14.671875 16.914062 14.269531 16.914062 C 13.867188 16.914062 13.542969 16.589844 13.542969 16.1875 C 13.542969 15.789062 13.867188 15.460938 14.269531 15.460938 C 14.671875 15.460938 14.996094 15.789062 14.996094 16.1875 Z M 14.996094 16.1875 "/>
<path style=" stroke:none;fill-rule:nonzero;fill:rgb(97.647059%,97.647059%,97.647059%);fill-opacity:1;" d="M 16.449219 12.765625 C 16.449219 13.164062 16.121094 13.492188 15.722656 13.492188 C 15.320312 13.492188 14.996094 13.164062 14.996094 12.765625 C 14.996094 12.363281 15.320312 12.039062 15.722656 12.039062 C 16.121094 12.039062 16.449219 12.363281 16.449219 12.765625 Z M 16.449219 12.765625 "/>
<path style=" stroke:none;fill-rule:nonzero;fill:rgb(97.647059%,97.647059%,97.647059%);fill-opacity:1;" d="M 13.75 14.007812 C 13.75 14.410156 13.425781 14.734375 13.023438 14.734375 C 12.621094 14.734375 12.296875 14.410156 12.296875 14.007812 C 12.296875 13.609375 12.621094 13.28125 13.023438 13.28125 C 13.425781 13.28125 13.75 13.609375 13.75 14.007812 Z M 13.75 14.007812 "/>
<path style=" stroke:none;fill-rule:nonzero;fill:rgb(97.647059%,97.647059%,97.647059%);fill-opacity:1;" d="M 8.042969 10.324219 C 8.042969 10.726562 7.71875 11.050781 7.316406 11.050781 C 6.914062 11.050781 6.589844 10.726562 6.589844 10.324219 C 6.589844 9.925781 6.914062 9.597656 7.316406 9.597656 C 7.71875 9.597656 8.042969 9.925781 8.042969 10.324219 Z M 8.042969 10.324219 "/>
<path style=" stroke:none;fill-rule:nonzero;fill:rgb(97.647059%,97.647059%,97.647059%);fill-opacity:1;" d="M 9.390625 13.128906 C 9.390625 13.527344 9.066406 13.855469 8.664062 13.855469 C 8.265625 13.855469 7.9375 13.527344 7.9375 13.128906 C 7.9375 12.726562 8.265625 12.402344 8.664062 12.402344 C 9.066406 12.402344 9.390625 12.726562 9.390625 13.128906 Z M 9.390625 13.128906 "/>
<path style=" stroke:none;fill-rule:nonzero;fill:rgb(97.647059%,97.647059%,97.647059%);fill-opacity:1;" d="M 14.789062 10.792969 C 14.789062 11.195312 14.460938 11.519531 14.0625 11.519531 C 13.660156 11.519531 13.335938 11.195312 13.335938 10.792969 C 13.335938 10.390625 13.660156 10.066406 14.0625 10.066406 C 14.460938 10.066406 14.789062 10.390625 14.789062 10.792969 Z M 14.789062 10.792969 "/>
<path style=" stroke:none;fill-rule:nonzero;fill:rgb(97.647059%,97.647059%,97.647059%);fill-opacity:1;" d="M 7.210938 14.21875 C 7.210938 14.617188 6.886719 14.945312 6.484375 14.945312 C 6.085938 14.945312 5.757812 14.617188 5.757812 14.21875 C 5.757812 13.816406 6.085938 13.492188 6.484375 13.492188 C 6.886719 13.492188 7.210938 13.816406 7.210938 14.21875 Z M 7.210938 14.21875 "/>
</g>
</svg>
