
<svg xmlns="http://www.w3.org/2000/svg" xmlns:xlink="http://www.w3.org/1999/xlink" width="22px" height="22px" viewBox="0 0 22 22" version="1.1">
<g id="surface1">
<path style="fill-rule:nonzero;fill:rgb(70.196078%,70.196078%,70.196078%);fill-opacity:1;stroke-width:7.019178;stroke-linecap:butt;stroke-linejoin:miter;stroke:rgb(100%,40%,0%);stroke-opacity:1;stroke-miterlimit:4;" d="M 20.545455 6.5 L 107.454545 6.5 C 115.204545 6.5 121.5 12.795455 121.5 20.545455 L 121.5 107.454545 C 121.5 115.204545 115.204545 121.5 107.454545 121.5 L 20.545455 121.5 C 12.795455 121.5 6.5 115.204545 6.5 107.454545 L 6.5 20.545455 C 6.5 12.795455 12.795455 6.5 20.545455 6.5 Z M 20.545455 6.5 " transform="matrix(0.171875,0,0,0.171875,0,0)"/>
<path style="fill-rule:nonzero;fill:rgb(100%,40%,0%);fill-opacity:1;stroke-width:1;stroke-linecap:round;stroke-linejoin:miter;stroke:rgb(100%,40%,0%);stroke-opacity:1;stroke-miterlimit:4;" d="M 59.227273 112.681818 C 57 111.181818 56.454545 109.954545 56.227273 105.863636 L 55.977273 102.068182 L 53.75 101.545455 C 52.5 101.25 50.545455 100.659091 49.386364 100.204545 L 47.25 99.386364 L 43.522727 103.045455 C 40.704545 105.795455 39.386364 106.75 38.136364 107 C 34.909091 107.590909 31.068182 104.431818 31.068182 101.159091 C 31.068182 99.522727 32.886364 96.545455 35.295455 94.204545 C 36.181818 93.363636 36.909091 92.477273 36.909091 92.272727 C 36.909091 92.045455 35.772727 90.590909 34.409091 89.045455 L 31.909091 86.204545 L 27.545455 87.522727 C 22.409091 89.068182 20.795455 88.954545 18.659091 86.818182 C 14.681818 82.840909 16.795455 78.113636 23.477273 76.068182 C 27.227273 74.909091 26.931818 75.659091 26.272727 69.045455 L 25.909091 65.227273 L 22.886364 64.681818 C 19.113636 64 17.340909 63.090909 16.227273 61.272727 C 15.159091 59.5 15.113636 57.772727 16.090909 55.704545 C 17.363636 53.045455 19 52.318182 23.227273 52.590909 C 25.227273 52.727273 27.136364 52.886364 27.454545 52.954545 C 27.818182 53.045455 28.727273 51.818182 29.727273 49.909091 C 30.636364 48.159091 32 45.818182 32.772727 44.704545 L 34.159091 42.681818 L 31.454545 40.045455 C 28.340909 36.977273 27.477273 35.545455 27.477273 33.477273 C 27.477273 30.659091 30.386364 27.727273 33.227273 27.727273 C 35.318182 27.727273 37.136364 28.795455 40.409091 31.931818 L 43.25 34.659091 L 45.522727 33.386364 C 46.772727 32.681818 49.431818 31.545455 51.431818 30.863636 L 55.090909 29.636364 L 55.340909 26.090909 C 55.477273 24.159091 55.795455 22.159091 56.068182 21.659091 C 57.727273 18.704545 61.363636 17.5 64.136364 18.977273 C 66.545455 20.272727 67.431818 22.136364 67.431818 25.886364 C 67.431818 28.090909 67.613636 29.159091 68 29.25 C 68.295455 29.340909 70.068182 29.75 71.931818 30.181818 C 73.772727 30.613636 76.886364 31.75 78.840909 32.704545 L 82.386364 34.431818 L 85.340909 31.590909 C 89.431818 27.704545 90.181818 27.272727 92.75 27.272727 C 94.75 27.272727 95.136364 27.454545 96.681818 29.090909 C 98.113636 30.590909 98.409091 31.227273 98.409091 32.704545 C 98.409091 35.181818 97.590909 36.590909 94.409091 39.522727 C 92.909091 40.909091 91.681818 42.159091 91.681818 42.295455 C 91.681818 42.409091 92.681818 44.045455 93.909091 45.931818 C 95.136364 47.795455 96.386364 50.045455 96.704545 50.886364 C 97.318182 52.636364 97.5 52.659091 102.022727 51.909091 C 104.409091 51.522727 105.409091 51.522727 106.431818 51.954545 C 110.022727 53.431818 111.590909 57.590909 109.681818 60.659091 C 108.568182 62.477273 106.545455 63.545455 103.5 63.931818 C 100.045455 64.386364 99.772727 64.659091 99.75 67.590909 C 99.727273 69 99.568182 71.022727 99.363636 72.068182 C 98.931818 74.295455 99.136364 74.568182 102 75.318182 C 106.704545 76.590909 109.181818 78.886364 109.181818 81.977273 C 109.204545 85.136364 106.5 87.886364 103.386364 87.886364 C 102.522727 87.886364 100.113636 87.363636 98 86.727273 L 94.181818 85.568182 L 93.5 86.613636 C 93.113636 87.181818 91.954545 88.613636 90.886364 89.818182 C 89.840909 91 89 92.068182 89 92.204545 C 89 92.318182 90.295455 93.818182 91.886364 95.5 C 93.818182 97.568182 94.863636 99.068182 95.045455 100.090909 C 95.568182 102.886364 93.75 105.863636 90.931818 106.772727 C 88.340909 107.636364 86.818182 106.931818 82.818182 103.022727 L 79.113636 99.409091 L 75.409091 100.613636 C 73.363636 101.272727 71 101.977273 70.136364 102.181818 L 68.568182 102.545455 L 68.318182 105.886364 C 68.045455 109.5 67.681818 110.454545 65.931818 112.090909 C 64.340909 113.568182 60.954545 113.863636 59.227273 112.681818 Z M 65.795455 110.840909 C 67 109.636364 67.159091 109.159091 67.340909 105.886364 C 67.454545 103.909091 67.772727 102.113636 68.045455 101.886364 C 68.340909 101.659091 69.659091 101.227273 71.022727 100.909091 C 72.386364 100.613636 74.772727 99.840909 76.340909 99.227273 L 79.181818 98.113636 L 82.068182 101.272727 C 85.590909 105.136364 88.068182 106.5 90.386364 105.840909 C 92.272727 105.340909 93.363636 104.25 93.863636 102.431818 C 94.454545 100.318182 93.613636 98.409091 90.772727 95.363636 C 89.295455 93.795455 88.090909 92.340909 88.090909 92.136364 C 88.090909 91.931818 88.863636 90.840909 89.795455 89.727273 C 90.727273 88.590909 91.954545 87.022727 92.522727 86.204545 C 93.090909 85.409091 93.886364 84.75 94.295455 84.772727 C 94.704545 84.772727 96.659091 85.272727 98.636364 85.886364 C 102.954545 87.227273 104.045455 87.272727 105.863636 86.159091 C 108.522727 84.522727 109 80.590909 106.772727 78.522727 C 106.204545 77.977273 104.022727 76.977273 101.954545 76.295455 C 98.318182 75.113636 98.204545 75.045455 98.25 73.75 C 98.409091 70.227273 99.022727 64.568182 99.295455 64.136364 C 99.454545 63.886364 101.136364 63.363636 103.022727 63.022727 C 107.181818 62.227273 108.090909 61.772727 108.954545 60.068182 C 110.090909 57.886364 109.840909 56.113636 108.113636 54.409091 C 106.75 53.045455 106.340909 52.886364 104.181818 52.909091 C 102.863636 52.909091 100.840909 53.090909 99.681818 53.272727 C 98.5 53.477273 97.363636 53.5 97.136364 53.363636 C 96.931818 53.227273 96.090909 51.795455 95.272727 50.181818 C 94.477273 48.568182 93.136364 46.295455 92.295455 45.136364 C 91.477273 43.954545 90.727273 42.795455 90.681818 42.522727 C 90.613636 42.272727 92.045455 40.590909 93.863636 38.795455 C 96.818182 35.840909 97.181818 35.295455 97.409091 33.431818 C 97.613636 31.5 97.522727 31.227273 96.045455 29.772727 C 94.795455 28.5 94.113636 28.181818 92.727273 28.181818 C 90.590909 28.181818 89.090909 29.113636 85.522727 32.613636 C 84 34.136364 82.613636 35.363636 82.477273 35.363636 C 82.318182 35.363636 80.545455 34.568182 78.522727 33.613636 C 75.363636 32.113636 72.909091 31.340909 67.545455 30.181818 C 66.613636 29.977273 66.545455 29.704545 66.545455 26.818182 C 66.545455 25.068182 66.25 22.977273 65.909091 22.136364 C 65.090909 20.181818 62.931818 19.022727 60.795455 19.363636 C 57.681818 19.863636 56.227273 22.431818 56.204545 27.340909 C 56.204545 30.204545 55.931818 30.568182 53.068182 31.318182 C 51.954545 31.590909 49.386364 32.636364 47.363636 33.590909 C 45.340909 34.568182 43.454545 35.363636 43.159091 35.363636 C 42.863636 35.363636 41.136364 33.954545 39.340909 32.25 C 36.954545 29.977273 35.613636 29.045455 34.409091 28.818182 C 32.068182 28.386364 29.863636 29.522727 28.977273 31.613636 C 27.886364 34.272727 28.454545 35.681818 31.954545 39.181818 C 33.704545 40.886364 35.113636 42.454545 35.113636 42.636364 C 35.113636 42.818182 34.204545 44.318182 33.113636 45.954545 C 32 47.590909 30.659091 50.022727 30.113636 51.340909 C 29.568182 52.659091 28.863636 53.840909 28.522727 53.954545 C 28.204545 54.090909 26.318182 53.954545 24.340909 53.659091 C 21.204545 53.204545 20.568182 53.227273 19.159091 53.909091 C 15.818182 55.5 15.477273 60.409091 18.590909 62.295455 C 19.363636 62.772727 21.363636 63.386364 23.022727 63.659091 C 24.704545 63.931818 26.25 64.409091 26.477273 64.704545 C 26.818182 65.136364 27.931818 73.295455 27.931818 75.204545 C 27.931818 75.5 26.227273 76.272727 24.159091 76.886364 C 18.75 78.545455 16.931818 80.704545 18.068182 84.113636 C 19.204545 87.590909 22.045455 88.227273 28.136364 86.318182 C 30.113636 85.704545 31.954545 85.204545 32.25 85.204545 C 32.522727 85.204545 33.227273 85.886364 33.818182 86.727273 C 34.409091 87.590909 35.659091 89.204545 36.613636 90.318182 L 38.363636 92.386364 L 35.431818 95.5 C 33.75 97.272727 32.363636 99.181818 32.204545 99.931818 C 31.636364 102.5 33.75 105.636364 36.227273 105.863636 C 38.704545 106.113636 39.363636 105.75 43.136364 102.068182 L 47.022727 98.272727 L 51.272727 99.636364 C 57.295455 101.590909 56.840909 101.136364 57.136364 105.454545 C 57.409091 109.795455 57.954545 111.068182 59.954545 111.954545 C 61.954545 112.863636 64.227273 112.431818 65.795455 110.840909 Z M 56.681818 94.840909 C 50.386364 93.477273 43.522727 89.136364 39.727273 84.113636 C 32.454545 74.5 31.363636 63.318182 36.681818 52.568182 C 43.068182 39.613636 58.454545 33.227273 72.159091 37.818182 C 81.386364 40.909091 88.454545 48.136364 91.318182 57.363636 C 92.159091 60.113636 92.363636 61.704545 92.340909 66.113636 C 92.318182 70.840909 92.159091 71.954545 91.068182 75.090909 C 88.363636 82.886364 83.340909 88.681818 76.295455 92.159091 C 69.75 95.386364 63.318182 96.272727 56.681818 94.840909 Z M 71.977273 93.022727 C 75.954545 91.772727 81.25 88.454545 83.795455 85.613636 C 90.068182 78.681818 92.795455 69.227273 91.045455 60.568182 C 88.909091 49.954545 81.863636 41.977273 71.727273 38.659091 C 68.659091 37.659091 67.318182 37.477273 62.954545 37.477273 C 56.477273 37.477273 52.090909 38.75 47.045455 42.136364 C 41.477273 45.863636 37.5 51.25 35.5 57.818182 C 34.045455 62.522727 34.045455 69.25 35.5 73.977273 C 38.704545 84.5 47.795455 92.5 58.431818 94.181818 C 62.181818 94.772727 68 94.272727 71.977273 93.022727 Z M 71.977273 93.022727 " transform="matrix(0.171875,0,0,0.171875,0,0)"/>
<path style=" stroke:none;fill-rule:evenodd;fill:rgb(100%,40%,0%);fill-opacity:1;" d="M 10.332031 19.1875 C 10.035156 19.054688 9.941406 18.832031 9.878906 18.128906 C 9.835938 17.613281 9.808594 17.507812 9.679688 17.398438 C 9.589844 17.324219 8.210938 16.84375 8.085938 16.84375 C 8.058594 16.84375 7.773438 17.097656 7.457031 17.40625 C 6.773438 18.070312 6.625 18.167969 6.304688 18.140625 C 5.972656 18.109375 5.707031 17.867188 5.613281 17.515625 C 5.53125 17.195312 5.632812 17.003906 6.277344 16.308594 L 6.675781 15.871094 L 6.496094 15.664062 C 6.394531 15.550781 6.203125 15.3125 6.070312 15.136719 C 5.714844 14.683594 5.636719 14.601562 5.53125 14.601562 C 5.484375 14.601562 5.203125 14.671875 4.90625 14.753906 C 4.09375 14.980469 3.726562 15.003906 3.457031 14.847656 C 3.171875 14.679688 3.035156 14.171875 3.191406 13.863281 C 3.3125 13.628906 3.539062 13.5 4.285156 13.230469 C 4.511719 13.148438 4.734375 13.054688 4.78125 13.015625 L 4.867188 12.945312 L 4.832031 12.578125 C 4.785156 12.128906 4.675781 11.355469 4.628906 11.1875 C 4.589844 11.039062 4.554688 11.023438 3.953125 10.875 C 3.34375 10.730469 3.214844 10.675781 3.078125 10.519531 C 2.714844 10.09375 2.917969 9.429688 3.457031 9.269531 C 3.609375 9.226562 3.675781 9.226562 4.039062 9.269531 C 4.617188 9.335938 4.941406 9.332031 5.003906 9.257812 C 5.035156 9.226562 5.148438 9.015625 5.265625 8.785156 C 5.378906 8.558594 5.570312 8.214844 5.691406 8.015625 C 6.003906 7.515625 6.101562 7.34375 6.101562 7.3125 C 6.101562 7.300781 5.882812 7.054688 5.617188 6.773438 C 4.945312 6.058594 4.859375 5.859375 5.050781 5.453125 C 5.191406 5.15625 5.433594 5.003906 5.773438 5.003906 C 6 5.003906 6.203125 5.132812 6.738281 5.605469 C 7.308594 6.105469 7.363281 6.148438 7.46875 6.121094 C 7.511719 6.113281 7.804688 5.988281 8.121094 5.851562 C 8.433594 5.710938 8.863281 5.539062 9.074219 5.46875 C 9.285156 5.398438 9.492188 5.316406 9.539062 5.285156 C 9.664062 5.203125 9.703125 5.054688 9.722656 4.613281 C 9.746094 4.148438 9.824219 3.859375 9.992188 3.652344 C 10.261719 3.3125 10.816406 3.296875 11.125 3.621094 C 11.28125 3.785156 11.324219 3.945312 11.359375 4.46875 C 11.375 4.734375 11.398438 5.003906 11.414062 5.070312 C 11.441406 5.207031 11.460938 5.214844 12.121094 5.371094 C 12.65625 5.5 13 5.621094 13.667969 5.917969 C 13.941406 6.039062 14.175781 6.140625 14.191406 6.140625 C 14.203125 6.140625 14.410156 5.957031 14.648438 5.734375 C 15.113281 5.304688 15.382812 5.078125 15.558594 4.992188 C 15.691406 4.921875 15.925781 4.886719 16.078125 4.917969 C 16.234375 4.945312 16.515625 5.171875 16.621094 5.355469 C 16.699219 5.484375 16.707031 5.523438 16.683594 5.699219 C 16.652344 5.980469 16.542969 6.15625 16.078125 6.640625 C 15.617188 7.125 15.535156 7.230469 15.535156 7.3125 C 15.535156 7.34375 15.640625 7.535156 15.773438 7.734375 C 15.902344 7.933594 16.125 8.300781 16.261719 8.546875 C 16.585938 9.136719 16.636719 9.210938 16.738281 9.234375 C 16.785156 9.242188 17.023438 9.230469 17.273438 9.203125 C 18.113281 9.105469 18.304688 9.140625 18.554688 9.417969 C 18.796875 9.6875 18.839844 9.945312 18.691406 10.246094 C 18.535156 10.558594 18.449219 10.601562 17.527344 10.816406 C 17.289062 10.875 17.074219 10.941406 17.050781 10.964844 C 16.988281 11.023438 16.945312 11.277344 16.886719 11.941406 C 16.816406 12.765625 16.820312 12.84375 16.921875 12.925781 C 16.96875 12.960938 17.078125 13.019531 17.164062 13.050781 C 17.726562 13.253906 18.175781 13.445312 18.269531 13.519531 C 18.703125 13.863281 18.558594 14.617188 18.019531 14.824219 C 17.816406 14.902344 17.554688 14.871094 16.988281 14.710938 C 16.25 14.5 16.214844 14.492188 16.109375 14.546875 C 16.058594 14.574219 15.980469 14.640625 15.929688 14.691406 C 15.824219 14.808594 15.199219 15.625 15.121094 15.75 L 15.0625 15.84375 L 15.222656 16.039062 C 15.308594 16.148438 15.507812 16.382812 15.660156 16.5625 C 15.808594 16.742188 15.964844 16.953125 16.003906 17.035156 C 16.207031 17.453125 16.046875 17.910156 15.640625 18.085938 C 15.195312 18.273438 14.761719 18.042969 14.015625 17.214844 C 13.8125 16.992188 13.632812 16.808594 13.609375 16.808594 C 13.589844 16.808594 13.445312 16.859375 13.289062 16.921875 C 13.136719 16.984375 12.828125 17.09375 12.605469 17.160156 C 12.386719 17.226562 12.082031 17.320312 11.933594 17.367188 C 11.710938 17.433594 11.652344 17.46875 11.621094 17.539062 C 11.597656 17.589844 11.558594 17.847656 11.53125 18.113281 C 11.503906 18.378906 11.46875 18.652344 11.449219 18.71875 C 11.410156 18.871094 11.191406 19.101562 11.007812 19.1875 C 10.824219 19.269531 10.511719 19.269531 10.332031 19.1875 Z M 11.722656 16.375 C 12.675781 16.183594 13.574219 15.742188 14.269531 15.128906 C 14.871094 14.597656 15.351562 13.871094 15.679688 12.988281 C 15.890625 12.425781 15.914062 12.273438 15.914062 11.359375 C 15.914062 10.46875 15.898438 10.320312 15.726562 9.785156 C 15.140625 7.945312 13.566406 6.585938 11.640625 6.257812 C 11.292969 6.199219 10.457031 6.191406 10.105469 6.242188 C 9.308594 6.363281 8.515625 6.675781 7.871094 7.128906 C 7.453125 7.417969 6.859375 8.027344 6.589844 8.4375 C 5.6875 9.816406 5.445312 11.40625 5.921875 12.859375 C 6.183594 13.667969 6.585938 14.316406 7.1875 14.921875 C 8.035156 15.773438 9.125 16.3125 10.257812 16.441406 C 10.636719 16.488281 11.332031 16.453125 11.722656 16.375 Z M 11.722656 16.375 "/>
<path style=" stroke:none;fill-rule:evenodd;fill:rgb(100%,100%,100%);fill-opacity:1;" d="M 7.554688 14.039062 C 7.492188 14 7.492188 13.957031 7.546875 13.742188 C 7.648438 13.355469 9.289062 8.894531 9.65625 8.015625 C 9.707031 7.902344 9.78125 7.8125 9.867188 7.78125 C 9.945312 7.753906 10.339844 7.738281 10.855469 7.75 C 11.539062 7.761719 11.726562 7.777344 11.78125 7.835938 C 11.949219 8.011719 14.042969 13.640625 14.042969 13.910156 C 14.042969 14 14.007812 14.03125 13.890625 14.054688 C 13.613281 14.109375 12.523438 14.085938 12.398438 14.023438 C 12.324219 13.984375 12.246094 13.867188 12.1875 13.722656 C 11.960938 13.132812 11.953125 13.117188 11.769531 13.066406 C 11.574219 13.015625 10.296875 13 9.839844 13.050781 L 9.546875 13.078125 L 9.394531 13.503906 C 9.308594 13.738281 9.207031 13.960938 9.164062 13.996094 C 9.070312 14.074219 7.664062 14.113281 7.554688 14.039062 Z M 11.402344 11.664062 C 11.480469 11.597656 11.429688 11.320312 11.183594 10.476562 C 10.796875 9.164062 10.71875 9.144531 10.382812 10.289062 C 10.152344 11.0625 10.054688 11.570312 10.117188 11.628906 C 10.238281 11.753906 11.261719 11.78125 11.402344 11.664062 Z M 11.402344 11.664062 "/>
</g>
</svg>
