
<svg xmlns="http://www.w3.org/2000/svg" xmlns:xlink="http://www.w3.org/1999/xlink" width="22px" height="22px" viewBox="0 0 22 22" version="1.1">
<g id="surface1">
<path style="fill-rule:nonzero;fill:rgb(100%,100%,100%);fill-opacity:1;stroke-width:28.191782;stroke-linecap:butt;stroke-linejoin:miter;stroke:rgb(6.27451%,60.784314%,63.137255%);stroke-opacity:1;stroke-miterlimit:4;" d="M 81.454545 25.090909 L 430.545455 25.090909 C 461.636364 25.090909 486.909091 50.363636 486.909091 81.454545 L 486.909091 430.545455 C 486.909091 461.636364 461.636364 486.909091 430.545455 486.909091 L 81.454545 486.909091 C 50.363636 486.909091 25.090909 461.636364 25.090909 430.545455 L 25.090909 81.454545 C 25.090909 50.363636 50.363636 25.090909 81.454545 25.090909 Z M 81.454545 25.090909 " transform="matrix(0.0429688,0,0,0.0429688,0,0)"/>
<path style=" stroke:none;fill-rule:nonzero;fill:rgb(20%,40%,60%);fill-opacity:1;" d="M 3.195312 12.199219 C 3.195312 10.949219 4.210938 9.933594 5.464844 9.933594 C 6.066406 9.933594 6.644531 10.171875 7.070312 10.597656 C 7.496094 11.023438 7.734375 11.601562 7.734375 12.199219 C 7.734375 13.453125 6.71875 14.464844 5.464844 14.464844 C 4.210938 14.464844 3.195312 13.449219 3.195312 12.199219 Z M 3.195312 12.199219 "/>
<path style=" stroke:none;fill-rule:nonzero;fill:rgb(0.392157%,41.176471%,78.823529%);fill-opacity:1;" d="M 13.898438 12.511719 C 13.898438 11.230469 14.9375 10.191406 16.21875 10.191406 C 16.835938 10.191406 17.425781 10.4375 17.863281 10.871094 C 18.296875 11.304688 18.542969 11.894531 18.542969 12.511719 C 18.542969 13.792969 17.5 14.828125 16.21875 14.828125 C 14.9375 14.828125 13.898438 13.789062 13.898438 12.511719 Z M 13.898438 12.511719 "/>
<path style="fill:none;stroke-width:22.816418;stroke-linecap:round;stroke-linejoin:round;stroke:rgb(26.27451%,26.27451%,26.27451%);stroke-opacity:1;stroke-miterlimit:10;" d="M 296.909091 274.272727 L 363.727273 288.181818 " transform="matrix(0.0429688,0,0,0.0429688,0,0)"/>
<path style="fill:none;stroke-width:22.816418;stroke-linecap:round;stroke-linejoin:round;stroke:rgb(26.27451%,26.27451%,26.27451%);stroke-opacity:1;stroke-miterlimit:10;" d="M 143.727273 281.636364 L 188 277.909091 " transform="matrix(0.0429688,0,0,0.0429688,0,0)"/>
<path style="fill:none;stroke-width:22.816418;stroke-linecap:round;stroke-linejoin:round;stroke:rgb(26.27451%,26.27451%,26.27451%);stroke-opacity:1;stroke-miterlimit:10;" d="M 248.818182 162.090909 L 251.727273 239.272727 " transform="matrix(0.0429688,0,0,0.0429688,0,0)"/>
<path style=" stroke:none;fill-rule:nonzero;fill:rgb(66.666667%,66.666667%,66.666667%);fill-opacity:1;" d="M 8.234375 11.996094 C 8.234375 10.546875 9.394531 9.371094 10.828125 9.371094 C 11.515625 9.371094 12.175781 9.648438 12.660156 10.140625 C 13.148438 10.632812 13.421875 11.300781 13.421875 11.996094 C 13.421875 13.445312 12.261719 14.621094 10.828125 14.621094 C 9.394531 14.621094 8.234375 13.445312 8.234375 11.996094 Z M 8.234375 11.996094 "/>
<path style=" stroke:none;fill-rule:nonzero;fill:rgb(83.137255%,0%,0%);fill-opacity:1;" d="M 8.417969 5.132812 C 8.417969 3.894531 9.421875 2.890625 10.660156 2.890625 C 11.253906 2.890625 11.824219 3.128906 12.246094 3.546875 C 12.667969 3.96875 12.902344 4.539062 12.902344 5.132812 C 12.902344 6.371094 11.898438 7.371094 10.660156 7.371094 C 9.421875 7.371094 8.417969 6.367188 8.417969 5.132812 Z M 8.417969 5.132812 "/>
<path style="fill:none;stroke-width:22.816418;stroke-linecap:round;stroke-linejoin:round;stroke:rgb(26.27451%,26.27451%,26.27451%);stroke-opacity:1;stroke-miterlimit:10;" d="M 264.545455 303.909091 L 303.454545 376.272727 " transform="matrix(0.0429688,0,0,0.0429688,0,0)"/>
<path style=" stroke:none;fill-rule:nonzero;fill:rgb(20%,60%,0%);fill-opacity:1;" d="M 10.902344 16.894531 C 10.902344 15.460938 12.066406 14.296875 13.503906 14.296875 C 14.195312 14.296875 14.855469 14.570312 15.34375 15.058594 C 15.832031 15.546875 16.105469 16.207031 16.105469 16.894531 C 16.105469 18.332031 14.941406 19.496094 13.503906 19.492188 C 12.066406 19.492188 10.902344 18.328125 10.902344 16.894531 Z M 10.902344 16.894531 "/>
</g>
</svg>
