
<svg xmlns="http://www.w3.org/2000/svg" xmlns:xlink="http://www.w3.org/1999/xlink" width="22px" height="22px" viewBox="0 0 22 22" version="1.1">
<g id="surface1">
<path style="fill-rule:nonzero;fill:rgb(100%,100%,100%);fill-opacity:1;stroke-width:26.401737;stroke-linecap:butt;stroke-linejoin:miter;stroke:rgb(16.862745%,65.882353%,92.156863%);stroke-opacity:1;stroke-miterlimit:4;" d="M 92.545455 39.727273 L 419.454545 39.727273 C 448.636364 39.727273 472.272727 63.363636 472.272727 92.545455 L 472.272727 419.454545 C 472.272727 448.636364 448.636364 472.272727 419.454545 472.272727 L 92.545455 472.272727 C 63.363636 472.272727 39.727273 448.636364 39.727273 419.454545 L 39.727273 92.545455 C 39.727273 63.363636 63.363636 39.727273 92.545455 39.727273 Z M 92.545455 39.727273 " transform="matrix(0.0429688,0,0,0.0429688,0,0)"/>
<path style=" stroke:none;fill-rule:nonzero;fill:rgb(10.588235%,37.647059%,63.137255%);fill-opacity:1;" d="M 10.648438 18.296875 C 8.640625 18.03125 6.832031 16.960938 5.644531 15.328125 C 5.148438 14.648438 4.761719 13.855469 4.523438 13.03125 C 4.15625 11.761719 4.15625 10.253906 4.523438 8.984375 C 5.230469 6.542969 7.121094 4.652344 9.5625 3.945312 C 10.832031 3.578125 12.339844 3.578125 13.609375 3.945312 C 14.734375 4.273438 15.683594 4.8125 16.605469 5.648438 C 16.957031 5.964844 17.125 6.183594 17.238281 6.472656 C 17.351562 6.757812 17.355469 6.910156 17.257812 7.121094 C 17.097656 7.46875 16.613281 7.707031 16.082031 7.707031 C 15.773438 7.707031 15.566406 7.65625 15.296875 7.511719 C 15.109375 7.410156 15.082031 7.382812 14.882812 7.066406 C 14.597656 6.609375 14.417969 6.375 14.09375 6.054688 C 13.410156 5.375 12.582031 5.007812 11.746094 5.007812 C 8.960938 5.007812 6.941406 8.925781 7.726562 12.800781 C 8.148438 14.882812 9.265625 16.449219 10.714844 16.996094 C 11.523438 17.300781 12.3125 17.25 13.125 16.84375 C 13.652344 16.578125 14.167969 16.132812 14.558594 15.597656 C 14.875 15.167969 15.019531 15.027344 15.300781 14.890625 C 15.527344 14.773438 15.546875 14.769531 15.886719 14.769531 C 16.21875 14.769531 16.25 14.777344 16.445312 14.875 C 16.703125 15 16.933594 15.199219 17.019531 15.367188 C 17.070312 15.464844 17.082031 15.539062 17.074219 15.675781 C 17.054688 15.910156 16.933594 16.082031 16.53125 16.441406 C 15.351562 17.492188 14.007812 18.105469 12.476562 18.296875 C 12.03125 18.355469 11.085938 18.351562 10.648438 18.296875 Z M 10.585938 13.054688 C 10.464844 12.992188 10.378906 12.886719 10.378906 12.792969 C 10.378906 12.691406 10.574219 12.691406 10.644531 12.796875 C 10.738281 12.945312 11.078125 12.925781 11.078125 12.773438 C 11.078125 12.691406 11.011719 12.65625 10.730469 12.59375 C 10.5 12.542969 10.410156 12.453125 10.410156 12.265625 C 10.410156 12.152344 10.429688 12.097656 10.5 12.019531 C 10.582031 11.929688 10.613281 11.914062 10.800781 11.902344 C 10.972656 11.894531 11.03125 11.902344 11.117188 11.957031 C 11.222656 12.019531 11.300781 12.140625 11.300781 12.234375 C 11.300781 12.316406 11.105469 12.289062 11.03125 12.195312 C 10.980469 12.132812 10.933594 12.113281 10.847656 12.113281 C 10.703125 12.113281 10.664062 12.136719 10.664062 12.230469 C 10.664062 12.308594 10.730469 12.34375 10.992188 12.410156 C 11.222656 12.464844 11.332031 12.570312 11.332031 12.734375 C 11.332031 12.976562 11.171875 13.105469 10.863281 13.105469 C 10.761719 13.105469 10.640625 13.082031 10.585938 13.054688 Z M 12.746094 13.054688 C 12.625 12.992188 12.539062 12.886719 12.539062 12.792969 C 12.539062 12.691406 12.734375 12.691406 12.800781 12.796875 C 12.898438 12.945312 13.238281 12.925781 13.238281 12.773438 C 13.238281 12.691406 13.171875 12.65625 12.890625 12.59375 C 12.65625 12.542969 12.570312 12.453125 12.570312 12.265625 C 12.570312 12.152344 12.589844 12.097656 12.660156 12.019531 C 12.742188 11.929688 12.773438 11.914062 12.960938 11.902344 C 13.132812 11.894531 13.1875 11.902344 13.277344 11.957031 C 13.382812 12.019531 13.460938 12.140625 13.460938 12.234375 C 13.460938 12.316406 13.265625 12.289062 13.1875 12.195312 C 13.140625 12.132812 13.09375 12.113281 13.007812 12.113281 C 12.859375 12.113281 12.824219 12.136719 12.824219 12.230469 C 12.824219 12.308594 12.890625 12.34375 13.152344 12.410156 C 13.382812 12.464844 13.492188 12.570312 13.492188 12.734375 C 13.492188 12.976562 13.332031 13.105469 13.023438 13.105469 C 12.921875 13.105469 12.796875 13.082031 12.746094 13.054688 Z M 11.800781 12.84375 C 11.789062 12.632812 11.773438 12.585938 11.609375 12.296875 C 11.511719 12.121094 11.4375 11.96875 11.445312 11.953125 C 11.457031 11.941406 11.519531 11.929688 11.589844 11.929688 C 11.714844 11.929688 11.71875 11.933594 11.8125 12.136719 C 11.867188 12.25 11.921875 12.34375 11.9375 12.34375 C 11.953125 12.34375 12.007812 12.25 12.058594 12.136719 C 12.152344 11.933594 12.15625 11.929688 12.28125 11.929688 C 12.351562 11.929688 12.414062 11.941406 12.421875 11.953125 C 12.433594 11.96875 12.359375 12.121094 12.261719 12.296875 C 12.097656 12.585938 12.078125 12.632812 12.066406 12.84375 L 12.054688 13.074219 L 11.816406 13.074219 Z M 13.933594 12.632812 C 13.933594 12.335938 13.921875 12.183594 13.898438 12.15625 C 13.875 12.136719 13.796875 12.121094 13.722656 12.121094 C 13.59375 12.121094 13.585938 12.117188 13.585938 12.023438 L 13.585938 11.929688 L 14.539062 11.929688 L 14.539062 12.023438 C 14.539062 12.117188 14.53125 12.121094 14.402344 12.121094 C 14.328125 12.121094 14.25 12.136719 14.226562 12.15625 C 14.203125 12.183594 14.1875 12.335938 14.1875 12.632812 L 14.1875 13.074219 L 13.933594 13.074219 Z M 14.699219 12.5 L 14.699219 11.929688 L 15.523438 11.929688 L 15.523438 12.117188 L 15.25 12.125 C 15.027344 12.132812 14.96875 12.148438 14.9375 12.191406 C 14.914062 12.230469 14.914062 12.261719 14.9375 12.300781 C 14.964844 12.34375 15.03125 12.363281 15.226562 12.375 C 15.464844 12.390625 15.476562 12.394531 15.476562 12.46875 C 15.476562 12.546875 15.46875 12.550781 15.238281 12.558594 C 14.976562 12.570312 14.917969 12.597656 14.917969 12.722656 C 14.917969 12.859375 14.972656 12.882812 15.273438 12.882812 L 15.554688 12.882812 L 15.554688 13.074219 L 14.699219 13.074219 Z M 15.746094 12.5 L 15.746094 11.925781 L 15.925781 11.9375 L 16.109375 11.945312 L 16.191406 12.289062 C 16.234375 12.476562 16.285156 12.632812 16.300781 12.636719 C 16.316406 12.640625 16.367188 12.488281 16.414062 12.292969 L 16.496094 11.945312 L 16.675781 11.9375 L 16.855469 11.925781 L 16.855469 13.074219 L 16.632812 13.074219 L 16.632812 12.792969 C 16.632812 12.390625 16.59375 12.375 16.503906 12.742188 L 16.429688 13.058594 L 16.175781 13.058594 L 16.097656 12.742188 C 16.007812 12.375 15.96875 12.390625 15.96875 12.792969 L 15.96875 13.074219 L 15.746094 13.074219 Z M 17.125 11.453125 C 17.039062 11.417969 16.898438 11.261719 16.859375 11.15625 C 16.839844 11.109375 16.824219 10.980469 16.824219 10.871094 C 16.824219 10.648438 16.90625 10.472656 17.054688 10.363281 C 17.179688 10.269531 17.5 10.253906 17.648438 10.332031 C 17.765625 10.390625 17.890625 10.570312 17.855469 10.625 C 17.816406 10.691406 17.632812 10.664062 17.5625 10.578125 C 17.480469 10.488281 17.324219 10.472656 17.214844 10.546875 C 17.128906 10.609375 17.074219 10.855469 17.109375 11.019531 C 17.160156 11.238281 17.300781 11.324219 17.484375 11.246094 C 17.578125 11.207031 17.632812 11.121094 17.601562 11.070312 C 17.589844 11.054688 17.542969 11.039062 17.488281 11.039062 C 17.40625 11.039062 17.394531 11.03125 17.394531 10.945312 L 17.394531 10.851562 L 17.871094 10.851562 L 17.871094 11.152344 C 17.871094 11.445312 17.871094 11.453125 17.800781 11.453125 C 17.757812 11.453125 17.710938 11.4375 17.691406 11.417969 C 17.667969 11.394531 17.628906 11.398438 17.558594 11.433594 C 17.457031 11.488281 17.230469 11.5 17.125 11.453125 Z M 10.441406 10.882812 L 10.441406 10.308594 L 10.777344 10.308594 C 11.105469 10.308594 11.117188 10.3125 11.207031 10.402344 C 11.289062 10.484375 11.300781 10.519531 11.300781 10.675781 C 11.300781 10.832031 11.289062 10.867188 11.207031 10.949219 C 11.128906 11.027344 11.089844 11.039062 10.945312 11.039062 C 10.851562 11.039062 10.753906 11.058594 10.734375 11.078125 C 10.714844 11.097656 10.695312 11.191406 10.695312 11.285156 L 10.695312 11.453125 L 10.441406 11.453125 Z M 10.992188 10.789062 C 11.042969 10.738281 11.023438 10.585938 10.964844 10.542969 C 10.890625 10.492188 10.785156 10.488281 10.734375 10.539062 C 10.683594 10.589844 10.6875 10.761719 10.734375 10.8125 C 10.777344 10.855469 10.941406 10.839844 10.992188 10.789062 Z M 11.492188 10.882812 L 11.492188 10.308594 L 11.875 10.308594 C 12.253906 10.308594 12.257812 10.308594 12.351562 10.402344 C 12.460938 10.511719 12.472656 10.675781 12.390625 10.820312 C 12.347656 10.890625 12.34375 10.925781 12.371094 10.984375 C 12.390625 11.023438 12.414062 11.144531 12.425781 11.257812 L 12.445312 11.457031 L 12.308594 11.445312 L 12.171875 11.4375 L 12.152344 11.265625 C 12.128906 11.066406 12.109375 11.042969 11.957031 11.019531 C 11.789062 10.992188 11.746094 11.042969 11.746094 11.265625 L 11.746094 11.453125 L 11.492188 11.453125 Z M 12.074219 10.789062 C 12.136719 10.761719 12.15625 10.734375 12.15625 10.660156 C 12.15625 10.554688 12.074219 10.5 11.90625 10.5 C 11.796875 10.5 11.746094 10.554688 11.746094 10.660156 C 11.746094 10.703125 11.761719 10.757812 11.78125 10.78125 C 11.828125 10.824219 11.964844 10.828125 12.074219 10.789062 Z M 12.632812 10.882812 L 12.632812 10.308594 L 12.886719 10.308594 L 12.886719 11.453125 L 12.632812 11.453125 Z M 13.109375 10.878906 L 13.109375 10.304688 L 13.378906 10.324219 L 13.566406 10.652344 C 13.667969 10.828125 13.765625 10.96875 13.78125 10.957031 C 13.796875 10.949219 13.808594 10.800781 13.808594 10.625 L 13.808594 10.308594 L 14.03125 10.308594 L 14.03125 11.457031 L 13.898438 11.445312 C 13.769531 11.4375 13.765625 11.4375 13.589844 11.125 C 13.492188 10.949219 13.398438 10.8125 13.378906 10.8125 C 13.363281 10.816406 13.34375 10.953125 13.339844 11.136719 L 13.328125 11.453125 L 13.109375 11.453125 Z M 14.507812 11.015625 C 14.507812 10.714844 14.496094 10.566406 14.46875 10.539062 C 14.449219 10.519531 14.371094 10.5 14.292969 10.5 C 14.164062 10.5 14.15625 10.496094 14.15625 10.40625 L 14.15625 10.308594 L 15.109375 10.308594 L 15.109375 10.40625 C 15.109375 10.496094 15.105469 10.5 14.972656 10.5 C 14.898438 10.5 14.820312 10.519531 14.800781 10.539062 C 14.773438 10.566406 14.761719 10.714844 14.761719 11.015625 L 14.761719 11.453125 L 14.507812 11.453125 Z M 15.269531 10.882812 L 15.269531 10.308594 L 15.523438 10.308594 L 15.523438 11.453125 L 15.269531 11.453125 Z M 15.746094 10.878906 L 15.746094 10.304688 L 16.015625 10.324219 L 16.203125 10.652344 C 16.304688 10.828125 16.402344 10.96875 16.414062 10.957031 C 16.429688 10.949219 16.445312 10.800781 16.445312 10.625 L 16.445312 10.308594 L 16.667969 10.308594 L 16.667969 11.457031 L 16.535156 11.445312 C 16.402344 11.4375 16.402344 11.4375 16.226562 11.125 C 16.128906 10.949219 16.03125 10.8125 16.015625 10.8125 C 15.996094 10.816406 15.980469 10.953125 15.972656 11.136719 L 15.964844 11.453125 L 15.746094 11.453125 Z M 10.625 9.816406 C 10.46875 9.730469 10.441406 9.628906 10.441406 9.136719 L 10.441406 8.691406 L 10.691406 8.691406 L 10.703125 9.113281 C 10.714844 9.585938 10.734375 9.644531 10.902344 9.644531 C 11.070312 9.644531 11.09375 9.585938 11.105469 9.113281 L 11.117188 8.691406 L 11.363281 8.691406 L 11.363281 9.136719 C 11.363281 9.632812 11.335938 9.734375 11.175781 9.816406 C 11.054688 9.878906 10.738281 9.878906 10.625 9.816406 Z M 11.585938 9.261719 L 11.585938 8.6875 L 11.71875 8.695312 L 11.855469 8.707031 L 12.042969 9.03125 C 12.144531 9.210938 12.242188 9.347656 12.257812 9.339844 C 12.273438 9.328125 12.285156 9.179688 12.285156 9.007812 L 12.285156 8.691406 L 12.507812 8.691406 L 12.507812 9.835938 L 12.375 9.828125 C 12.242188 9.816406 12.242188 9.816406 12.066406 9.503906 C 11.96875 9.332031 11.871094 9.191406 11.855469 9.195312 C 11.835938 9.195312 11.820312 9.335938 11.816406 9.515625 L 11.804688 9.832031 L 11.585938 9.832031 Z M 12.730469 9.261719 L 12.730469 8.691406 L 12.984375 8.691406 L 12.984375 9.832031 L 12.730469 9.832031 Z M 13.128906 9.808594 C 13.121094 9.792969 13.183594 9.671875 13.269531 9.535156 C 13.355469 9.402344 13.425781 9.273438 13.425781 9.253906 C 13.425781 9.230469 13.363281 9.105469 13.285156 8.976562 C 13.207031 8.84375 13.140625 8.726562 13.140625 8.714844 C 13.140625 8.703125 13.207031 8.691406 13.285156 8.691406 C 13.414062 8.691406 13.429688 8.699219 13.496094 8.816406 C 13.539062 8.886719 13.585938 8.945312 13.601562 8.945312 C 13.621094 8.945312 13.664062 8.890625 13.699219 8.824219 C 13.753906 8.714844 13.773438 8.707031 13.910156 8.695312 C 13.996094 8.691406 14.0625 8.699219 14.0625 8.714844 C 14.0625 8.726562 14 8.84375 13.917969 8.96875 C 13.839844 9.097656 13.777344 9.21875 13.777344 9.238281 C 13.777344 9.261719 13.847656 9.394531 13.933594 9.53125 C 14.023438 9.671875 14.082031 9.796875 14.066406 9.8125 C 14.050781 9.824219 13.984375 9.832031 13.917969 9.828125 C 13.808594 9.820312 13.785156 9.800781 13.71875 9.683594 C 13.679688 9.609375 13.628906 9.546875 13.609375 9.550781 C 13.585938 9.550781 13.53125 9.613281 13.484375 9.691406 C 13.40625 9.820312 13.386719 9.832031 13.273438 9.832031 C 13.203125 9.832031 13.136719 9.820312 13.128906 9.808594 Z M 13.128906 9.808594 "/>
<path style=" stroke:none;fill-rule:nonzero;fill:rgb(8.235294%,29.411765%,49.411765%);fill-opacity:1;" d="M 11.378906 17.726562 C 10.207031 17.597656 9.226562 17.113281 8.34375 16.222656 C 6.570312 14.4375 5.917969 11.492188 6.699219 8.828125 C 6.867188 8.265625 7.15625 7.601562 7.4375 7.144531 C 8.113281 6.054688 8.976562 5.28125 10.007812 4.839844 C 10.628906 4.574219 11.054688 4.492188 11.757812 4.492188 C 12.304688 4.492188 12.621094 4.539062 13.089844 4.683594 C 13.457031 4.796875 14.121094 5.136719 14.472656 5.386719 C 15.046875 5.800781 15.679688 6.496094 16.085938 7.175781 C 16.390625 7.6875 16.394531 7.722656 16.171875 7.722656 C 15.933594 7.722656 15.644531 7.703125 15.414062 7.589844 C 15.195312 7.480469 15.101562 7.476562 14.945312 7.210938 C 14.445312 6.367188 13.816406 5.695312 13.078125 5.347656 C 12.324219 4.992188 11.503906 4.902344 10.734375 5.191406 C 9.546875 5.640625 8.542969 6.8125 7.996094 8.394531 C 7.679688 9.3125 7.550781 10.125 7.550781 11.179688 C 7.550781 12.175781 7.785156 13.066406 8.082031 13.910156 C 8.203125 14.257812 8.578125 15.050781 8.757812 15.332031 C 9.925781 17.1875 11.558594 17.578125 13.203125 16.75 C 13.707031 16.496094 14.296875 15.957031 14.667969 15.433594 C 14.914062 15.078125 15.042969 14.984375 15.253906 14.859375 C 15.515625 14.699219 15.988281 14.734375 16.152344 14.777344 C 16.261719 14.808594 15.625 15.765625 15.152344 16.238281 C 14.378906 17.007812 13.511719 17.484375 12.535156 17.664062 C 12.261719 17.71875 11.609375 17.75 11.378906 17.726562 Z M 11.378906 17.726562 "/>
</g>
</svg>
