
<svg xmlns="http://www.w3.org/2000/svg" xmlns:xlink="http://www.w3.org/1999/xlink" width="22px" height="22px" viewBox="0 0 22 22" version="1.1">
<g id="surface1">
<path style="fill-rule:nonzero;fill:rgb(92.54902%,92.54902%,92.54902%);fill-opacity:1;stroke-width:2.67719;stroke-linecap:butt;stroke-linejoin:miter;stroke:rgb(43.921569%,5.490196%,38.823529%);stroke-opacity:1;stroke-miterlimit:4;" d="M 391.994713 501.869007 L 425.148121 501.869007 C 428.105507 501.869007 430.500394 504.263893 430.500394 507.22128 L 430.500394 540.374688 C 430.500394 543.332074 428.105507 545.72696 425.148121 545.72696 L 391.994713 545.72696 C 389.037327 545.72696 386.642441 543.332074 386.642441 540.374688 L 386.642441 507.22128 C 386.642441 504.263893 389.037327 501.869007 391.994713 501.869007 Z M 391.994713 501.869007 " transform="matrix(0.458333,0,0,0.458333,-176.261905,-229.074083)"/>
<path style=" stroke:none;fill-rule:nonzero;fill:rgb(61.568627%,22.352941%,43.529412%);fill-opacity:1;" d="M 3.964844 2.308594 L 3.964844 11.851562 C 3.964844 13.011719 4.097656 14.054688 4.34375 15.011719 C 4.589844 15.949219 4.992188 16.773438 5.550781 17.46875 C 6.105469 18.167969 6.820312 18.691406 7.738281 19.085938 C 8.65625 19.457031 9.792969 19.636719 11.132812 19.636719 C 12.675781 19.636719 14.042969 19.574219 15.207031 19.378906 C 16.390625 19.183594 17.316406 18.964844 18.035156 18.792969 L 18.035156 2.304688 L 15.21875 2.304688 L 15.21875 16.597656 C 15.109375 16.644531 14.605469 16.726562 14.339844 16.773438 C 14.089844 16.792969 13.824219 16.835938 13.507812 16.882812 C 13.195312 16.902344 12.882812 16.933594 12.527344 16.957031 C 12.171875 16.976562 11.808594 16.992188 11.472656 16.992188 C 9.886719 16.992188 8.746094 16.527344 8.078125 15.632812 C 7.40625 14.742188 6.777344 13.320312 6.777344 11.257812 L 6.777344 2.304688 M 3.964844 2.308594 "/>
</g>
</svg>
