
<svg xmlns="http://www.w3.org/2000/svg" xmlns:xlink="http://www.w3.org/1999/xlink" width="22px" height="22px" viewBox="0 0 22 22" version="1.1">
<g id="surface1">
<path style="fill-rule:nonzero;fill:rgb(92.54902%,92.54902%,92.54902%);fill-opacity:1;stroke-width:2.67719;stroke-linecap:butt;stroke-linejoin:miter;stroke:rgb(57.647059%,85.490196%,11.372549%);stroke-opacity:1;stroke-miterlimit:4;" d="M 391.994713 501.869007 L 425.148121 501.869007 C 428.105507 501.869007 430.500394 504.263893 430.500394 507.22128 L 430.500394 540.374688 C 430.500394 543.332074 428.105507 545.72696 425.148121 545.72696 L 391.994713 545.72696 C 389.037327 545.72696 386.642441 543.332074 386.642441 540.374688 L 386.642441 507.22128 C 386.642441 504.263893 389.037327 501.869007 391.994713 501.869007 Z M 391.994713 501.869007 " transform="matrix(0.458333,0,0,0.458333,-176.261905,-229.074083)"/>
<path style=" stroke:none;fill-rule:evenodd;fill:rgb(63.921569%,85.882353%,7.45098%);fill-opacity:1;" d="M 11.03125 1.832031 C 8.125 1.832031 5.546875 3.210938 3.878906 5.34375 L 5.019531 6.070312 C 6.445312 4.320312 8.621094 3.203125 11.050781 3.203125 C 15.339844 3.203125 18.824219 6.695312 18.824219 11 C 18.824219 15.304688 15.339844 18.796875 11.050781 18.796875 C 8.632812 18.796875 6.460938 17.6875 5.035156 15.945312 L 3.894531 16.671875 C 5.566406 18.796875 8.136719 20.167969 11.046875 20.167969 C 16.082031 20.167969 20.167969 16.0625 20.167969 11 C 20.167969 5.945312 16.078125 1.839844 11.046875 1.839844 M 1.832031 5.652344 L 1.832031 16.34375 L 11.101562 10.945312 M 11.03125 5.414062 C 9.390625 5.414062 7.917969 6.128906 6.894531 7.257812 L 8.078125 7.996094 C 8.839844 7.242188 9.882812 6.78125 11.035156 6.78125 C 13.363281 6.78125 15.253906 8.691406 15.253906 11.039062 C 15.253906 13.394531 13.367188 15.304688 11.035156 15.304688 C 9.863281 15.304688 8.804688 14.824219 8.042969 14.046875 L 6.898438 14.773438 C 7.921875 15.902344 9.390625 16.617188 11.035156 16.617188 C 14.117188 16.617188 16.617188 14.105469 16.617188 11.015625 C 16.617188 7.917969 14.117188 5.410156 11.035156 5.410156 M 11.03125 5.414062 "/>
</g>
</svg>
