<!-- color: #214152 -->
<svg xmlns="http://www.w3.org/2000/svg" xmlns:xlink="http://www.w3.org/1999/xlink" width="22px" height="22px" viewBox="0 0 22 22" version="1.1">
<defs>
<clipPath id="clip1">
  <path d="M 5.242188 5.113281 L 16.929688 5.113281 L 16.929688 16.800781 L 5.242188 16.800781 Z M 5.242188 5.113281 "/>
</clipPath>
<clipPath id="clip2">
  <path d="M 21.367188 10.957031 C 21.367188 16.632812 16.765625 21.234375 11.089844 21.234375 C 5.417969 21.234375 0.8125 16.632812 0.8125 10.957031 C 0.8125 5.277344 5.417969 0.675781 11.089844 0.675781 C 16.765625 0.675781 21.367188 5.277344 21.367188 10.957031 Z M 21.367188 10.957031 "/>
</clipPath>
</defs>
<g id="surface1">
<path style="fill-rule:nonzero;fill:rgb(43.921569%,50.196078%,56.470588%);fill-opacity:1;stroke-width:6.815335;stroke-linecap:butt;stroke-linejoin:miter;stroke:rgb(29.019608%,68.235294%,90.980392%);stroke-opacity:1;stroke-miterlimit:4;" d="M 21.818182 8.181818 L 106.181818 8.181818 C 113.727273 8.181818 119.818182 14.272727 119.818182 21.818182 L 119.818182 106.181818 C 119.818182 113.727273 113.727273 119.818182 106.181818 119.818182 L 21.818182 119.818182 C 14.272727 119.818182 8.181818 113.727273 8.181818 106.181818 L 8.181818 21.818182 C 8.181818 14.272727 14.272727 8.181818 21.818182 8.181818 Z M 21.818182 8.181818 " transform="matrix(0.171875,0,0,0.171875,0,0)"/>
<g clip-path="url(#clip1)" clip-rule="nonzero">
<g clip-path="url(#clip2)" clip-rule="nonzero">
<path style=" stroke:none;fill-rule:evenodd;fill:rgb(97.647059%,97.647059%,97.647059%);fill-opacity:1;" d="M 5.28125 5.144531 C 6.707031 6.648438 6.085938 7.609375 6.863281 9.378906 C 7.589844 11.023438 9.171875 9.792969 10.257812 10.953125 C 9.171875 12.117188 7.585938 10.878906 6.859375 12.523438 C 6.078125 14.292969 6.699219 15.261719 5.277344 16.761719 C 6.777344 15.335938 7.746094 15.960938 9.515625 15.179688 C 11.160156 14.453125 9.929688 12.871094 11.089844 11.789062 C 12.242188 12.871094 11.019531 14.460938 12.660156 15.183594 C 14.429688 15.96875 15.390625 15.335938 16.894531 16.765625 C 15.46875 15.261719 16.097656 14.300781 15.3125 12.53125 C 14.585938 10.890625 13.003906 12.109375 11.921875 10.957031 C 13.003906 9.804688 14.585938 11.023438 15.3125 9.382812 C 16.097656 7.613281 15.464844 6.652344 16.894531 5.148438 C 15.390625 6.574219 14.429688 5.945312 12.660156 6.730469 C 11.019531 7.453125 12.242188 9.042969 11.089844 10.125 C 9.925781 9.042969 11.15625 7.460938 9.515625 6.734375 C 7.746094 5.949219 6.777344 6.574219 5.277344 5.148438 M 5.28125 5.144531 "/>
</g>
</g>
</g>
</svg>
