
<svg xmlns="http://www.w3.org/2000/svg" xmlns:xlink="http://www.w3.org/1999/xlink" width="22px" height="22px" viewBox="0 0 22 22" version="1.1">
<g id="surface1">
<path style="fill-rule:nonzero;fill:rgb(28.235294%,33.333333%,43.921569%);fill-opacity:1;stroke-width:23.5;stroke-linecap:butt;stroke-linejoin:miter;stroke:rgb(0%,0%,0%);stroke-opacity:1;stroke-miterlimit:4;" d="M 87.090909 23.818182 L 427 23.818182 C 460.818182 23.818182 488.181818 51.181818 488.181818 85 L 488.181818 431.363636 C 488.181818 465.090909 460.818182 492.454545 427 492.454545 L 87.090909 492.454545 C 53.363636 492.454545 26 465.090909 26 431.363636 L 26 85 C 26 51.181818 53.363636 23.818182 87.090909 23.818182 Z M 87.090909 23.818182 " transform="matrix(0.0429688,0,0,0.0429688,0,0)"/>
<path style=" stroke:none;fill-rule:nonzero;fill:rgb(83.529412%,16.470588%,23.529412%);fill-opacity:1;" d="M 13.78125 17.851562 C 13.128906 17.550781 12.507812 16.777344 12.152344 15.824219 C 11.832031 14.964844 11.757812 13.53125 11.964844 12.335938 C 12.253906 10.699219 13.042969 8.820312 14.070312 7.34375 L 14.667969 6.484375 L 15.238281 7.367188 C 16.367188 9.113281 16.984375 10.617188 17.289062 12.359375 C 17.496094 13.535156 17.507812 14.316406 17.339844 15.136719 C 17.074219 16.4375 16.261719 17.570312 15.347656 17.917969 C 14.695312 18.167969 14.433594 18.15625 13.78125 17.851562 Z M 13.78125 17.851562 "/>
<path style=" stroke:none;fill-rule:nonzero;fill:rgb(21.568627%,67.45098%,94.509804%);fill-opacity:1;" d="M 10.199219 14.339844 C 9.546875 14.039062 8.929688 13.261719 8.574219 12.308594 C 8.253906 11.453125 8.175781 10.019531 8.386719 8.824219 C 8.671875 7.183594 9.464844 5.308594 10.492188 3.832031 L 11.089844 2.972656 L 11.660156 3.855469 C 12.789062 5.601562 13.402344 7.105469 13.710938 8.847656 C 13.914062 10.023438 13.929688 10.804688 13.761719 11.625 C 13.492188 12.921875 12.679688 14.058594 11.765625 14.40625 C 11.113281 14.652344 10.855469 14.640625 10.199219 14.339844 Z M 10.199219 14.339844 "/>
<path style=" stroke:none;fill-rule:nonzero;fill:rgb(94.117647%,72.941176%,21.568627%);fill-opacity:1;" d="M 7.003906 17.746094 C 6.351562 17.445312 5.730469 16.671875 5.375 15.71875 C 5.058594 14.859375 4.980469 13.425781 5.1875 12.234375 C 5.476562 10.59375 6.269531 8.714844 7.296875 7.238281 L 7.894531 6.378906 L 8.460938 7.261719 C 9.589844 9.011719 10.207031 10.511719 10.511719 12.257812 C 10.71875 13.429688 10.734375 14.210938 10.5625 15.035156 C 10.296875 16.332031 9.484375 17.464844 8.570312 17.8125 C 7.917969 18.0625 7.65625 18.050781 7.003906 17.746094 Z M 7.003906 17.746094 "/>
</g>
</svg>
