
<svg xmlns="http://www.w3.org/2000/svg" xmlns:xlink="http://www.w3.org/1999/xlink" width="22px" height="22px" viewBox="0 0 22 22" version="1.1">
<g id="surface1">
<path style=" stroke:none;fill-rule:evenodd;fill:rgb(0%,33.333333%,83.137255%);fill-opacity:1;" d="M 3.375 1.375 L 18.652344 1.375 C 19.839844 1.375 20.804688 2.339844 20.804688 3.523438 L 20.804688 18.523438 C 20.804688 19.710938 19.839844 20.671875 18.652344 20.671875 L 3.375 20.671875 C 2.1875 20.671875 1.226562 19.710938 1.226562 18.523438 L 1.226562 3.523438 C 1.226562 2.339844 2.1875 1.375 3.375 1.375 Z M 3.375 1.375 "/>
<path style="fill-rule:nonzero;fill:rgb(64.705882%,64.705882%,64.705882%);fill-opacity:1;stroke-width:18.134258;stroke-linecap:butt;stroke-linejoin:miter;stroke:rgb(100%,100%,100%);stroke-opacity:1;stroke-miterlimit:4;" d="M -84.659014 273.349784 C -84.659014 378.766947 -180.727627 464.252676 -299.424822 464.252676 C -418.019159 464.252676 -514.190629 378.766947 -514.190629 273.349784 C -514.190629 167.932622 -418.019159 82.446892 -299.424822 82.446892 C -180.727627 82.446892 -84.659014 167.932622 -84.659014 273.349784 Z M -84.659014 273.349784 " transform="matrix(0.0379774,0,0,0.0427246,22.394818,-0.639698)"/>
<path style=" stroke:none;fill-rule:nonzero;fill:rgb(100%,100%,100%);fill-opacity:1;" d="M 9.113281 10.160156 L 9.113281 14.492188 L 6.636719 14.492188 L 10.96875 18.820312 L 15.296875 14.492188 L 12.824219 14.492188 L 12.824219 10.160156 Z M 9.113281 10.160156 "/>
<path style=" stroke:none;fill-rule:nonzero;fill:rgb(100%,100%,100%);fill-opacity:1;" d="M 12.824219 11.902344 L 12.824219 7.570312 L 15.296875 7.570312 L 10.96875 3.238281 L 6.636719 7.570312 L 9.113281 7.570312 L 9.113281 11.902344 Z M 12.824219 11.902344 "/>
<path style=" stroke:none;fill-rule:evenodd;fill:rgb(0%,33.333333%,83.137255%);fill-opacity:1;" d="M 6.808594 8.121094 L 15.105469 8.121094 C 15.824219 8.121094 16.410156 8.707031 16.410156 9.425781 L 16.410156 11.195312 C 16.410156 11.917969 15.824219 12.503906 15.105469 12.503906 L 6.808594 12.503906 C 6.089844 12.503906 5.503906 11.917969 5.503906 11.195312 L 5.503906 9.425781 C 5.503906 8.707031 6.089844 8.121094 6.808594 8.121094 Z M 6.808594 8.121094 "/>
</g>
</svg>
