
<svg xmlns="http://www.w3.org/2000/svg" xmlns:xlink="http://www.w3.org/1999/xlink" width="22px" height="22px" viewBox="0 0 22 22" version="1.1">
<g id="surface1">
<path style="fill-rule:nonzero;fill:rgb(100%,100%,100%);fill-opacity:1;stroke-width:28.191782;stroke-linecap:butt;stroke-linejoin:miter;stroke:rgb(7.058824%,69.803922%,90.588235%);stroke-opacity:1;stroke-miterlimit:4;" d="M 81.454545 25.090909 L 430.545455 25.090909 C 461.636364 25.090909 486.909091 50.363636 486.909091 81.454545 L 486.909091 430.545455 C 486.909091 461.636364 461.636364 486.909091 430.545455 486.909091 L 81.454545 486.909091 C 50.363636 486.909091 25.090909 461.636364 25.090909 430.545455 L 25.090909 81.454545 C 25.090909 50.363636 50.363636 25.090909 81.454545 25.090909 Z M 81.454545 25.090909 " transform="matrix(0.0429688,0,0,0.0429688,0,0)"/>
<path style=" stroke:none;fill-rule:nonzero;fill:rgb(7.058824%,69.803922%,90.588235%);fill-opacity:1;" d="M 11.59375 13.058594 L 14.4375 15.902344 C 14.691406 16.15625 14.691406 16.570312 14.4375 16.824219 L 11.59375 19.667969 C 11.339844 19.921875 10.929688 19.921875 10.675781 19.667969 L 7.832031 16.824219 C 7.578125 16.570312 7.578125 16.15625 7.832031 15.902344 L 10.675781 13.058594 C 10.929688 12.804688 11.339844 12.804688 11.59375 13.058594 Z M 11.59375 13.058594 "/>
<path style=" stroke:none;fill-rule:nonzero;fill:rgb(7.058824%,69.803922%,90.588235%);fill-opacity:1;" d="M 16.859375 7.792969 L 19.703125 10.636719 C 19.957031 10.890625 19.957031 11.300781 19.703125 11.554688 L 16.859375 14.398438 C 16.605469 14.652344 16.195312 14.652344 15.941406 14.398438 L 13.097656 11.554688 C 12.84375 11.300781 12.84375 10.890625 13.097656 10.636719 L 15.941406 7.792969 C 16.195312 7.539062 16.605469 7.539062 16.859375 7.792969 Z M 16.859375 7.792969 "/>
<path style=" stroke:none;fill-rule:nonzero;fill:rgb(7.058824%,69.803922%,90.588235%);fill-opacity:1;" d="M 11.558594 2.332031 L 14.402344 5.175781 C 14.65625 5.429688 14.652344 5.835938 14.402344 6.097656 L 8.464844 12.285156 C 8.214844 12.546875 7.542969 12.644531 7.546875 12.285156 L 7.617188 6.097656 C 7.628906 5.882812 7.539062 5.429688 7.796875 5.175781 L 10.640625 2.332031 C 10.894531 2.078125 11.304688 2.078125 11.558594 2.332031 Z M 11.558594 2.332031 "/>
<path style=" stroke:none;fill-rule:nonzero;fill:rgb(7.058824%,69.803922%,90.588235%);fill-opacity:1;" d="M 6.058594 7.835938 L 6.089844 10.683594 C 6.097656 11.042969 6.097656 11.242188 6.089844 11.601562 L 6.058594 14.445312 C 6.054688 14.804688 5.394531 14.699219 5.140625 14.445312 L 2.296875 11.601562 C 2.039062 11.347656 2.039062 10.9375 2.296875 10.683594 L 5.140625 7.835938 C 5.394531 7.582031 6.054688 7.476562 6.058594 7.835938 Z M 6.058594 7.835938 "/>
</g>
</svg>
