<!-- Generator: Adobe Illustrator 9.0, SVG Export Plug-In  -->
<svg xmlns="http://www.w3.org/2000/svg" xmlns:xlink="http://www.w3.org/1999/xlink" width="22px" height="22px" viewBox="0 0 22 22" version="1.1">
<defs>
<linearGradient id="linear0" gradientUnits="userSpaceOnUse" x1="-28.083" y1="1.5566" x2="122.4775" y2="179.00301" gradientTransform="matrix(0.123504,0,0,0.123504,2.620023,2.588931)">
<stop offset="0" style="stop-color:rgb(100%,100%,100%);stop-opacity:1;"/>
<stop offset="1" style="stop-color:rgb(54.901961%,54.901961%,64.313725%);stop-opacity:1;"/>
</linearGradient>
<linearGradient id="linear1" gradientUnits="userSpaceOnUse" x1="-32.7295" y1="5.502" x2="117.8273" y2="182.94389" gradientTransform="matrix(0.123504,0,0,0.123504,2.620023,2.588931)">
<stop offset="0" style="stop-color:rgb(100%,100%,100%);stop-opacity:1;"/>
<stop offset="1" style="stop-color:rgb(54.901961%,54.901961%,64.313725%);stop-opacity:1;"/>
</linearGradient>
<linearGradient id="linear2" gradientUnits="userSpaceOnUse" x1="-45.7183" y1="16.5156" x2="104.8478" y2="193.9686" gradientTransform="matrix(0.123504,0,0,0.123504,2.620023,2.588931)">
<stop offset="0" style="stop-color:rgb(100%,100%,100%);stop-opacity:1;"/>
<stop offset="1" style="stop-color:rgb(54.901961%,54.901961%,64.313725%);stop-opacity:1;"/>
</linearGradient>
<linearGradient id="linear3" gradientUnits="userSpaceOnUse" x1="4.0088" y1="-25.6621" x2="154.5634" y2="151.7773" gradientTransform="matrix(0.123504,0,0,0.123504,2.620023,2.588931)">
<stop offset="0" style="stop-color:rgb(100%,100%,100%);stop-opacity:1;"/>
<stop offset="1" style="stop-color:rgb(54.901961%,54.901961%,64.313725%);stop-opacity:1;"/>
</linearGradient>
<linearGradient id="linear4" gradientUnits="userSpaceOnUse" x1="-2.0176" y1="-20.553699" x2="148.53819" y2="156.8871" gradientTransform="matrix(0.123504,0,0,0.123504,2.620023,2.588931)">
<stop offset="0" style="stop-color:rgb(100%,100%,100%);stop-opacity:1;"/>
<stop offset="1" style="stop-color:rgb(54.901961%,54.901961%,64.313725%);stop-opacity:1;"/>
</linearGradient>
<linearGradient id="linear5" gradientUnits="userSpaceOnUse" x1="-9.1904" y1="-14.3975" x2="141.2382" y2="162.8934" gradientTransform="matrix(0.123504,0,0,0.123504,2.620023,2.588931)">
<stop offset="0" style="stop-color:rgb(100%,100%,100%);stop-opacity:1;"/>
<stop offset="1" style="stop-color:rgb(54.901961%,54.901961%,64.313725%);stop-opacity:1;"/>
</linearGradient>
<linearGradient id="linear6" gradientUnits="userSpaceOnUse" x1="35.362301" y1="37.130901" x2="170.0874" y2="197.817" gradientTransform="matrix(0.123504,0,0,0.123504,2.620023,2.588931)">
<stop offset="0" style="stop-color:rgb(100%,100%,100%);stop-opacity:1;"/>
<stop offset="0.178" style="stop-color:rgb(98.431373%,98.431373%,98.823529%);stop-opacity:1;"/>
<stop offset="0.367" style="stop-color:rgb(93.333333%,93.333333%,94.901961%);stop-opacity:1;"/>
<stop offset="0.5612" style="stop-color:rgb(85.098039%,85.098039%,88.235294%);stop-opacity:1;"/>
<stop offset="0.7589" style="stop-color:rgb(73.333333%,73.333333%,78.823529%);stop-opacity:1;"/>
<stop offset="0.9575" style="stop-color:rgb(58.431373%,58.431373%,67.058824%);stop-opacity:1;"/>
<stop offset="1" style="stop-color:rgb(54.901961%,54.901961%,64.313725%);stop-opacity:1;"/>
</linearGradient>
<clipPath id="clip1">
  <path d="M 6.316406 5.027344 L 17.316406 5.027344 L 17.316406 16.027344 L 6.316406 16.027344 Z M 6.316406 5.027344 "/>
</clipPath>
<clipPath id="clip2">
  <path d="M 17.316406 10.53125 C 17.316406 13.554688 14.863281 16.007812 11.835938 16.007812 C 8.808594 16.007812 6.355469 13.554688 6.355469 10.53125 C 6.355469 7.503906 8.808594 5.050781 11.835938 5.050781 C 14.863281 5.050781 17.316406 7.503906 17.316406 10.53125 Z M 17.316406 10.53125 "/>
</clipPath>
</defs>
<g id="surface1">
<path style="fill-rule:nonzero;fill:rgb(100%,100%,100%);fill-opacity:1;stroke-width:7.874994;stroke-linecap:butt;stroke-linejoin:miter;stroke:rgb(12.156863%,58.039216%,72.156863%);stroke-opacity:1;stroke-miterlimit:4;" d="M 23.241474 7.491476 L 120.758508 7.491476 C 129.451688 7.491476 136.508506 14.548294 136.508506 23.241474 L 136.508506 120.758508 C 136.508506 129.451688 129.451688 136.508506 120.758508 136.508506 L 23.241474 136.508506 C 14.548294 136.508506 7.491476 129.451688 7.491476 120.758508 L 7.491476 23.241474 C 7.491476 14.548294 14.548294 7.491476 23.241474 7.491476 Z M 23.241474 7.491476 " transform="matrix(0.152778,0,0,0.152778,0,0)"/>
<path style=" stroke:none;fill-rule:nonzero;fill:rgb(53.72549%,57.647059%,60.784314%);fill-opacity:1;" d="M 19.5 17.46875 L 18.878906 18.089844 L 17.148438 16.359375 L 17.769531 15.738281 Z M 19.5 17.46875 "/>
<path style=" stroke:none;fill-rule:nonzero;fill:rgb(53.72549%,57.647059%,60.784314%);fill-opacity:1;" d="M 17.769531 15.65625 C 17.746094 15.65625 17.726562 15.664062 17.710938 15.679688 L 17.089844 16.300781 C 17.054688 16.335938 17.054688 16.386719 17.089844 16.417969 L 18.820312 18.148438 C 18.851562 18.179688 18.902344 18.179688 18.9375 18.148438 L 19.558594 17.527344 C 19.589844 17.496094 19.589844 17.441406 19.558594 17.410156 L 17.828125 15.679688 C 17.8125 15.664062 17.789062 15.65625 17.769531 15.65625 Z M 17.769531 15.855469 C 17.875 15.960938 19.277344 17.363281 19.382812 17.46875 C 19.296875 17.554688 18.964844 17.886719 18.878906 17.972656 C 18.773438 17.867188 17.371094 16.464844 17.265625 16.359375 C 17.351562 16.273438 17.683594 15.941406 17.769531 15.855469 Z M 17.769531 15.855469 "/>
<path style=" stroke:none;fill-rule:nonzero;fill:rgb(53.72549%,57.647059%,60.784314%);fill-opacity:1;" d="M 6.550781 4.519531 L 5.929688 5.140625 L 4.199219 3.410156 L 4.820312 2.789062 Z M 6.550781 4.519531 "/>
<path style=" stroke:none;fill-rule:nonzero;fill:rgb(53.72549%,57.647059%,60.784314%);fill-opacity:1;" d="M 4.820312 2.707031 C 4.796875 2.707031 4.777344 2.714844 4.761719 2.730469 L 4.140625 3.351562 C 4.105469 3.382812 4.105469 3.4375 4.140625 3.46875 L 5.871094 5.199219 C 5.902344 5.230469 5.953125 5.230469 5.988281 5.199219 L 6.609375 4.578125 C 6.640625 4.546875 6.640625 4.492188 6.609375 4.460938 L 4.878906 2.730469 C 4.863281 2.714844 4.839844 2.707031 4.820312 2.707031 Z M 4.820312 2.90625 C 4.925781 3.011719 6.324219 4.414062 6.429688 4.519531 C 6.34375 4.605469 6.015625 4.9375 5.929688 5.023438 C 5.824219 4.917969 4.421875 3.515625 4.316406 3.410156 C 4.402344 3.324219 4.734375 2.992188 4.820312 2.90625 Z M 4.820312 2.90625 "/>
<path style=" stroke:none;fill-rule:nonzero;fill:url(#linear0);" d="M 12.640625 19.449219 L 10.828125 19.449219 L 10.230469 16.582031 L 13.339844 16.597656 Z M 12.640625 19.449219 "/>
<path style=" stroke:none;fill-rule:nonzero;fill:rgb(53.72549%,57.647059%,60.784314%);fill-opacity:1;" d="M 10.105469 16.476562 C 10.070312 16.515625 10.058594 16.566406 10.070312 16.617188 L 10.664062 19.484375 C 10.679688 19.5625 10.75 19.617188 10.828125 19.617188 L 12.640625 19.617188 C 12.71875 19.617188 12.785156 19.5625 12.804688 19.488281 L 13.5 16.636719 C 13.511719 16.585938 13.503906 16.535156 13.472656 16.492188 C 13.441406 16.453125 13.390625 16.429688 13.339844 16.429688 L 10.234375 16.417969 C 10.183594 16.417969 10.136719 16.441406 10.101562 16.476562 Z M 10.4375 16.75 C 10.769531 16.75 12.789062 16.757812 13.128906 16.761719 C 13.046875 17.097656 12.5625 19.070312 12.511719 19.285156 C 12.304688 19.285156 11.175781 19.285156 10.964844 19.285156 C 10.917969 19.0625 10.503906 17.078125 10.4375 16.75 Z M 10.4375 16.75 "/>
<path style=" stroke:none;fill-rule:nonzero;fill:rgb(87.058824%,91.764706%,98.431373%);fill-opacity:1;" d="M 12.320312 19.285156 L 11.113281 19.285156 L 10.75 16.425781 L 12.785156 16.464844 Z M 12.320312 19.285156 "/>
<path style=" stroke:none;fill-rule:nonzero;fill:url(#linear1);" d="M 2.886719 11.238281 L 2.886719 9.425781 L 5.75 8.828125 L 5.738281 11.9375 Z M 2.886719 11.238281 "/>
<path style=" stroke:none;fill-rule:nonzero;fill:rgb(53.72549%,57.647059%,60.784314%);fill-opacity:1;" d="M 5.71875 8.667969 L 2.851562 9.261719 C 2.773438 9.277344 2.71875 9.347656 2.71875 9.425781 L 2.71875 11.238281 C 2.71875 11.316406 2.769531 11.382812 2.84375 11.402344 L 5.699219 12.097656 C 5.75 12.109375 5.800781 12.097656 5.839844 12.066406 C 5.882812 12.035156 5.90625 11.988281 5.90625 11.9375 L 5.917969 8.828125 C 5.917969 8.78125 5.894531 8.730469 5.855469 8.699219 C 5.820312 8.667969 5.765625 8.65625 5.71875 8.667969 Z M 5.585938 9.035156 C 5.582031 9.363281 5.574219 11.386719 5.574219 11.726562 C 5.238281 11.644531 3.265625 11.160156 3.050781 11.109375 C 3.050781 10.902344 3.050781 9.773438 3.050781 9.5625 C 3.273438 9.515625 5.253906 9.101562 5.585938 9.035156 Z M 5.585938 9.035156 "/>
<path style=" stroke:none;fill-rule:nonzero;fill:rgb(87.058824%,91.764706%,98.431373%);fill-opacity:1;" d="M 3.050781 10.917969 L 3.050781 9.710938 L 5.910156 9.347656 L 5.871094 11.382812 Z M 3.050781 10.917969 "/>
<path style=" stroke:none;fill-rule:nonzero;fill:url(#linear2);" d="M 6.050781 17.453125 L 4.765625 16.171875 L 6.375 13.722656 L 8.5625 15.929688 Z M 6.050781 17.453125 "/>
<path style=" stroke:none;fill-rule:nonzero;fill:rgb(53.72549%,57.647059%,60.784314%);fill-opacity:1;" d="M 6.355469 13.558594 C 6.308594 13.5625 6.261719 13.589844 6.234375 13.632812 L 4.628906 16.082031 C 4.585938 16.144531 4.59375 16.234375 4.648438 16.289062 L 5.933594 17.570312 C 5.988281 17.625 6.070312 17.636719 6.136719 17.597656 L 8.648438 16.070312 C 8.691406 16.046875 8.722656 16 8.726562 15.949219 C 8.734375 15.898438 8.714844 15.847656 8.679688 15.8125 L 6.492188 13.605469 C 6.457031 13.570312 6.40625 13.550781 6.355469 13.558594 Z M 6.398438 13.984375 C 6.632812 14.21875 8.054688 15.65625 8.296875 15.898438 C 8 16.074219 6.265625 17.128906 6.074219 17.246094 C 5.929688 17.097656 5.132812 16.300781 4.980469 16.148438 C 5.105469 15.960938 6.214844 14.265625 6.398438 13.984375 Z M 6.398438 13.984375 "/>
<path style=" stroke:none;fill-rule:nonzero;fill:rgb(87.058824%,91.764706%,98.431373%);fill-opacity:1;" d="M 5.941406 17.109375 L 5.085938 16.257812 L 6.851562 13.976562 L 8.261719 15.445312 Z M 5.941406 17.109375 "/>
<path style=" stroke:none;fill-rule:nonzero;fill:url(#linear3);" d="M 18.816406 16.242188 L 17.53125 17.527344 L 15.082031 15.921875 L 17.289062 13.730469 Z M 18.816406 16.242188 "/>
<path style=" stroke:none;fill-rule:nonzero;fill:rgb(53.72549%,57.647059%,60.784314%);fill-opacity:1;" d="M 17.171875 13.613281 L 14.96875 15.800781 C 14.929688 15.835938 14.914062 15.886719 14.917969 15.9375 C 14.925781 15.988281 14.949219 16.03125 14.992188 16.058594 L 17.441406 17.664062 C 17.507812 17.707031 17.59375 17.699219 17.652344 17.644531 L 18.933594 16.359375 C 18.988281 16.304688 18.996094 16.222656 18.957031 16.15625 L 17.433594 13.644531 C 17.40625 13.601562 17.363281 13.574219 17.3125 13.566406 C 17.261719 13.5625 17.210938 13.578125 17.171875 13.613281 Z M 17.257812 13.996094 C 17.4375 14.292969 18.492188 16.03125 18.605469 16.21875 C 18.460938 16.363281 17.660156 17.164062 17.511719 17.3125 C 17.320312 17.1875 15.628906 16.078125 15.347656 15.894531 C 15.582031 15.660156 17.015625 14.238281 17.257812 13.996094 Z M 17.257812 13.996094 "/>
<path style=" stroke:none;fill-rule:nonzero;fill:rgb(87.058824%,91.764706%,98.431373%);fill-opacity:1;" d="M 18.46875 16.355469 L 17.617188 17.207031 L 15.339844 15.441406 L 16.808594 14.03125 Z M 18.46875 16.355469 "/>
<path style=" stroke:none;fill-rule:nonzero;fill:url(#linear4);" d="M 4.882812 4.6875 L 6.164062 3.40625 L 8.613281 5.011719 L 6.40625 7.199219 Z M 4.882812 4.6875 "/>
<path style=" stroke:none;fill-rule:nonzero;fill:rgb(53.72549%,57.647059%,60.784314%);fill-opacity:1;" d="M 6.046875 3.289062 L 4.761719 4.570312 C 4.710938 4.625 4.699219 4.710938 4.738281 4.777344 L 6.265625 7.285156 C 6.289062 7.332031 6.335938 7.359375 6.386719 7.367188 C 6.4375 7.371094 6.488281 7.355469 6.523438 7.320312 L 8.730469 5.128906 C 8.765625 5.09375 8.78125 5.046875 8.777344 4.996094 C 8.773438 4.945312 8.746094 4.902344 8.703125 4.875 L 6.253906 3.265625 C 6.1875 3.222656 6.101562 3.234375 6.046875 3.289062 Z M 6.183594 3.621094 C 6.375 3.742188 8.066406 4.855469 8.351562 5.039062 C 8.113281 5.273438 6.679688 6.695312 6.4375 6.933594 C 6.257812 6.640625 5.203125 4.902344 5.089844 4.714844 C 5.238281 4.566406 6.035156 3.769531 6.183594 3.621094 Z M 6.183594 3.621094 "/>
<path style=" stroke:none;fill-rule:nonzero;fill:rgb(87.058824%,91.764706%,98.431373%);fill-opacity:1;" d="M 5.226562 4.578125 L 6.078125 3.726562 L 8.355469 5.492188 L 6.890625 6.902344 Z M 5.226562 4.578125 "/>
<path style=" stroke:none;fill-rule:nonzero;fill:url(#linear5);" d="M 11.835938 16.085938 C 8.765625 16.085938 6.277344 13.597656 6.277344 10.527344 C 6.277344 8.160156 7.757812 6.136719 9.847656 5.335938 L 9.671875 4.539062 C 7.222656 5.425781 5.46875 7.769531 5.46875 10.527344 C 5.46875 14.042969 8.320312 16.894531 11.835938 16.894531 C 14.578125 16.894531 16.914062 15.160156 17.8125 12.726562 L 17.027344 12.511719 C 16.230469 14.601562 14.207031 16.085938 11.835938 16.085938 Z M 11.835938 16.085938 "/>
<path style=" stroke:none;fill-rule:nonzero;fill:url(#linear6);" d="M 11.835938 16.167969 C 8.722656 16.167969 6.195312 13.636719 6.195312 10.527344 C 6.195312 8.230469 7.621094 6.136719 9.75 5.289062 C 9.738281 5.230469 9.703125 5.066406 9.667969 4.914062 C 7.40625 5.78125 5.800781 7.972656 5.800781 10.539062 C 5.800781 13.863281 8.5 16.5625 11.824219 16.5625 C 14.382812 16.5625 16.570312 14.964844 17.441406 12.710938 C 17.292969 12.671875 17.132812 12.625 17.074219 12.609375 C 16.226562 14.742188 14.132812 16.167969 11.835938 16.167969 Z M 11.835938 16.167969 "/>
<path style=" stroke:none;fill-rule:nonzero;fill:rgb(53.72549%,57.647059%,60.784314%);fill-opacity:1;" d="M 17.882812 12.6875 C 17.875 12.667969 17.855469 12.652344 17.832031 12.648438 L 17.050781 12.429688 C 17.011719 12.421875 16.972656 12.441406 16.953125 12.472656 L 17.476562 12.617188 C 17.46875 12.648438 17.453125 12.679688 17.441406 12.710938 C 17.546875 12.742188 17.644531 12.769531 17.699219 12.78125 C 16.769531 15.195312 14.425781 16.808594 11.835938 16.808594 C 8.371094 16.808594 5.550781 13.992188 5.550781 10.527344 C 5.550781 7.921875 7.179688 5.574219 9.613281 4.652344 C 9.625 4.707031 9.644531 4.808594 9.667969 4.914062 C 9.703125 4.898438 9.742188 4.886719 9.777344 4.871094 L 9.894531 5.402344 C 9.921875 5.382812 9.933594 5.351562 9.925781 5.320312 L 9.753906 4.519531 C 9.746094 4.5 9.734375 4.476562 9.710938 4.464844 C 9.691406 4.453125 9.664062 4.453125 9.644531 4.460938 C 7.097656 5.382812 5.386719 7.820312 5.386719 10.527344 C 5.386719 14.082031 8.277344 16.976562 11.835938 16.976562 C 14.527344 16.976562 16.957031 15.28125 17.886719 12.753906 C 17.894531 12.734375 17.894531 12.710938 17.882812 12.6875 Z M 17.882812 12.6875 "/>
<path style=" stroke:none;fill-rule:nonzero;fill:rgb(54.509804%,57.647059%,61.176471%);fill-opacity:1;" d="M 9.667969 4.914062 C 9.703125 5.066406 9.738281 5.230469 9.75 5.289062 C 7.621094 6.136719 6.195312 8.230469 6.195312 10.527344 C 6.195312 13.636719 8.722656 16.167969 11.835938 16.167969 C 14.132812 16.167969 16.226562 14.742188 17.074219 12.609375 C 17.136719 12.625 17.292969 12.671875 17.441406 12.710938 C 17.453125 12.679688 17.46875 12.648438 17.480469 12.617188 L 16.953125 12.472656 C 16.953125 12.476562 16.953125 12.480469 16.949219 12.480469 C 16.144531 14.585938 14.089844 16.003906 11.835938 16.003906 C 8.816406 16.003906 6.359375 13.546875 6.359375 10.527344 C 6.359375 8.277344 7.773438 6.222656 9.875 5.414062 C 9.882812 5.410156 9.890625 5.40625 9.894531 5.402344 L 9.777344 4.871094 C 9.742188 4.882812 9.703125 4.898438 9.667969 4.914062 Z M 9.667969 4.914062 "/>
<g clip-path="url(#clip1)" clip-rule="nonzero">
<g clip-path="url(#clip2)" clip-rule="nonzero">
<path style=" stroke:none;fill-rule:nonzero;fill:rgb(12.156863%,58.039216%,72.156863%);fill-opacity:1;" d="M 11.363281 16.042969 C 11.332031 16.023438 11.332031 16.019531 11.363281 15.996094 C 11.382812 15.984375 11.414062 15.972656 11.433594 15.972656 C 11.496094 15.972656 11.902344 15.824219 12.148438 15.707031 C 12.285156 15.644531 12.40625 15.589844 12.417969 15.589844 C 12.429688 15.589844 12.4375 15.613281 12.4375 15.640625 C 12.4375 15.695312 12.34375 16 12.3125 16.039062 C 12.285156 16.078125 11.417969 16.082031 11.363281 16.042969 Z M 12.570312 16 C 12.558594 15.976562 12.742188 15.398438 12.78125 15.335938 C 12.789062 15.320312 12.902344 15.246094 13.03125 15.171875 C 13.304688 15.011719 13.597656 14.8125 13.761719 14.671875 L 13.882812 14.574219 L 14.300781 14.582031 C 14.675781 14.59375 15.390625 14.550781 15.621094 14.503906 C 15.726562 14.480469 15.699219 14.546875 15.535156 14.6875 C 14.800781 15.335938 13.867188 15.789062 12.902344 15.976562 C 12.632812 16.027344 12.589844 16.03125 12.570312 16 Z M 10.621094 15.949219 C 10.507812 15.925781 10.25 15.851562 10.046875 15.78125 L 9.671875 15.65625 L 9.566406 15.511719 C 9.078125 14.835938 8.722656 13.765625 8.671875 12.800781 L 8.65625 12.53125 L 8.714844 12.550781 C 8.746094 12.558594 8.820312 12.589844 8.878906 12.621094 C 9.253906 12.808594 9.789062 13.003906 10.09375 13.066406 C 10.15625 13.078125 10.269531 13.136719 10.382812 13.210938 C 10.691406 13.425781 11.023438 13.621094 11.402344 13.804688 C 11.894531 14.042969 12.019531 14.097656 12.367188 14.207031 C 12.53125 14.261719 12.675781 14.316406 12.6875 14.328125 C 12.730469 14.371094 12.578125 15.253906 12.511719 15.332031 C 12.441406 15.417969 12.027344 15.660156 11.765625 15.769531 C 11.226562 16 11.011719 16.03125 10.621094 15.949219 Z M 9.25 15.457031 C 8.539062 15.082031 7.769531 14.386719 7.3125 13.707031 C 6.734375 12.84375 6.417969 11.980469 6.289062 10.921875 C 6.28125 10.84375 6.285156 10.792969 6.300781 10.792969 C 6.3125 10.792969 6.363281 10.855469 6.410156 10.933594 C 6.792969 11.535156 7.355469 12.050781 8.019531 12.40625 L 8.199219 12.5 L 8.253906 12.824219 C 8.371094 13.515625 8.558594 14.09375 8.84375 14.628906 C 8.992188 14.902344 9.175781 15.1875 9.3125 15.355469 C 9.363281 15.417969 9.40625 15.472656 9.40625 15.480469 C 9.40625 15.507812 9.324219 15.496094 9.25 15.457031 Z M 12.90625 14.964844 C 12.917969 14.9375 12.945312 14.804688 12.976562 14.671875 L 13.027344 14.433594 L 13.214844 14.40625 C 13.503906 14.363281 13.511719 14.363281 13.511719 14.4375 C 13.511719 14.507812 13.433594 14.589844 13.097656 14.886719 C 12.933594 15.03125 12.878906 15.054688 12.90625 14.964844 Z M 14.828125 14.382812 C 14.78125 14.378906 14.59375 14.355469 14.410156 14.335938 C 14.222656 14.316406 14.066406 14.292969 14.054688 14.28125 C 14.042969 14.269531 14.113281 14.171875 14.210938 14.058594 C 14.308594 13.949219 14.417969 13.816406 14.457031 13.765625 C 14.496094 13.714844 14.589844 13.589844 14.667969 13.492188 C 14.875 13.230469 15.027344 12.996094 15.175781 12.710938 C 15.273438 12.53125 15.332031 12.449219 15.382812 12.421875 C 15.734375 12.226562 16.136719 11.945312 16.429688 11.6875 C 16.496094 11.628906 16.554688 11.582031 16.566406 11.582031 C 16.648438 11.582031 16.6875 12.816406 16.621094 13.230469 C 16.589844 13.40625 16.570312 13.457031 16.460938 13.625 C 16.269531 13.914062 15.964844 14.285156 15.875 14.339844 C 15.800781 14.382812 15.746094 14.386719 15.351562 14.390625 C 15.109375 14.390625 14.871094 14.386719 14.828125 14.382812 Z M 13.382812 14.167969 C 13.238281 14.136719 13.105469 14.097656 13.089844 14.082031 C 13.070312 14.058594 13.070312 14.019531 13.082031 13.945312 C 13.09375 13.886719 13.113281 13.628906 13.121094 13.378906 C 13.132812 13.054688 13.148438 12.910156 13.167969 12.894531 C 13.183594 12.878906 13.335938 12.84375 13.503906 12.8125 C 13.949219 12.730469 14.304688 12.644531 14.550781 12.5625 C 14.667969 12.523438 14.773438 12.496094 14.785156 12.507812 C 14.816406 12.542969 14.394531 13.304688 14.078125 13.777344 C 13.847656 14.125 13.757812 14.230469 13.695312 14.230469 C 13.667969 14.230469 13.527344 14.199219 13.382812 14.167969 Z M 12.511719 13.910156 C 12.058594 13.734375 11.40625 13.410156 11.097656 13.203125 C 10.78125 12.992188 10.707031 12.921875 11.03125 12.933594 C 11.535156 12.949219 11.730469 12.953125 12.316406 12.921875 L 12.800781 12.894531 L 12.765625 13.570312 C 12.761719 13.816406 12.75 13.980469 12.738281 13.984375 C 12.722656 13.984375 12.621094 13.953125 12.511719 13.910156 Z M 16.800781 12.996094 C 16.792969 12.984375 16.804688 12.808594 16.824219 12.605469 C 16.847656 12.347656 16.855469 12.074219 16.847656 11.691406 L 16.839844 11.140625 L 17.113281 10.855469 C 17.265625 10.695312 17.402344 10.5625 17.414062 10.558594 C 17.476562 10.535156 17.367188 11.449219 17.257812 11.878906 C 17.167969 12.242188 16.871094 13.015625 16.820312 13.015625 C 16.816406 13.015625 16.804688 13.003906 16.800781 12.996094 Z M 11.234375 12.617188 C 10.949219 12.601562 10.535156 12.558594 10.277344 12.519531 C 10.046875 12.488281 10.003906 12.472656 9.917969 12.40625 C 9.503906 12.070312 8.738281 11.210938 8.738281 11.082031 C 8.738281 10.96875 8.984375 9.972656 9.023438 9.925781 C 9.035156 9.917969 9.1875 9.878906 9.363281 9.839844 C 10 9.703125 10.84375 9.449219 11.285156 9.257812 C 11.359375 9.226562 11.523438 9.15625 11.648438 9.101562 C 11.773438 9.046875 11.882812 9.011719 11.890625 9.023438 C 11.929688 9.058594 12.199219 9.769531 12.304688 10.101562 C 12.402344 10.414062 12.527344 10.90625 12.617188 11.355469 C 12.65625 11.539062 12.710938 11.957031 12.746094 12.285156 C 12.757812 12.40625 12.769531 12.515625 12.777344 12.535156 C 12.78125 12.566406 12.75 12.574219 12.628906 12.585938 C 12.425781 12.605469 11.414062 12.628906 11.234375 12.617188 Z M 13.121094 12.515625 C 13.113281 12.507812 13.097656 12.363281 13.085938 12.203125 C 13.023438 11.492188 12.960938 11.117188 12.808594 10.546875 C 12.683594 10.085938 12.523438 9.644531 12.316406 9.183594 C 12.238281 9.007812 12.175781 8.84375 12.175781 8.816406 C 12.175781 8.742188 12.238281 8.691406 12.546875 8.527344 C 13.308594 8.125 13.859375 7.769531 14.148438 7.496094 C 14.207031 7.441406 14.242188 7.425781 14.28125 7.4375 C 14.316406 7.445312 14.457031 7.582031 14.605469 7.746094 C 15.011719 8.195312 15.230469 8.472656 15.515625 8.90625 L 15.617188 9.0625 L 15.601562 9.421875 C 15.589844 9.765625 15.523438 10.355469 15.472656 10.628906 C 15.417969 10.910156 15.269531 11.4375 15.140625 11.792969 L 15.078125 11.972656 L 14.933594 12.039062 C 14.765625 12.113281 14.21875 12.300781 13.992188 12.359375 C 13.84375 12.394531 13.183594 12.535156 13.148438 12.535156 C 13.140625 12.535156 13.128906 12.527344 13.121094 12.515625 Z M 8.972656 12.238281 C 8.816406 12.195312 8.683594 12.152344 8.671875 12.144531 C 8.660156 12.140625 8.652344 12.015625 8.660156 11.875 C 8.667969 11.597656 8.679688 11.511719 8.707031 11.511719 C 8.71875 11.511719 8.777344 11.582031 8.84375 11.671875 C 8.976562 11.84375 9.136719 12.03125 9.304688 12.207031 L 9.410156 12.320312 L 9.332031 12.320312 C 9.285156 12.316406 9.125 12.28125 8.972656 12.238281 Z M 7.828125 11.800781 C 7.355469 11.546875 7 11.292969 6.683594 10.984375 C 6.441406 10.75 6.28125 10.542969 6.265625 10.445312 C 6.242188 10.339844 6.265625 10.035156 6.292969 10.007812 C 6.304688 9.996094 6.398438 9.996094 6.503906 10.007812 C 6.609375 10.023438 6.933594 10.035156 7.222656 10.039062 L 7.746094 10.042969 L 7.867188 10.28125 C 7.929688 10.414062 8.042969 10.621094 8.109375 10.738281 L 8.234375 10.960938 L 8.210938 11.242188 C 8.199219 11.394531 8.1875 11.621094 8.1875 11.742188 C 8.1875 11.902344 8.179688 11.964844 8.15625 11.964844 C 8.140625 11.964844 7.992188 11.890625 7.828125 11.800781 Z M 15.589844 11.644531 C 15.589844 11.617188 15.617188 11.511719 15.652344 11.414062 C 15.746094 11.136719 15.910156 10.320312 15.9375 9.964844 C 15.949219 9.855469 15.964844 9.769531 15.976562 9.769531 C 16.050781 9.769531 16.550781 11 16.511719 11.09375 C 16.492188 11.144531 15.65625 11.703125 15.601562 11.703125 C 15.59375 11.703125 15.589844 11.675781 15.589844 11.644531 Z M 16.730469 10.847656 C 16.722656 10.839844 16.691406 10.726562 16.65625 10.605469 C 16.503906 10.050781 16.296875 9.515625 16.070312 9.078125 C 15.929688 8.800781 15.917969 8.757812 15.886719 8.527344 C 15.792969 7.816406 15.609375 7.175781 15.339844 6.617188 C 15.183594 6.300781 15.183594 6.300781 15.230469 6.25 C 15.296875 6.183594 15.34375 6.210938 15.648438 6.5 C 16.335938 7.15625 16.8125 7.878906 17.128906 8.742188 C 17.242188 9.054688 17.304688 9.3125 17.371094 9.71875 C 17.421875 10.058594 17.425781 10.070312 17.382812 10.164062 C 17.308594 10.332031 16.761719 10.90625 16.730469 10.847656 Z M 8.179688 10.230469 C 8.019531 9.929688 8.03125 9.875 8.238281 9.949219 C 8.304688 9.972656 8.367188 10.003906 8.378906 10.019531 C 8.390625 10.035156 8.386719 10.121094 8.367188 10.234375 C 8.347656 10.339844 8.332031 10.425781 8.332031 10.429688 C 8.332031 10.433594 8.320312 10.4375 8.3125 10.4375 C 8.300781 10.4375 8.242188 10.34375 8.179688 10.230469 Z M 6.613281 9.722656 L 6.335938 9.707031 L 6.328125 9.640625 C 6.300781 9.386719 6.597656 8.496094 6.878906 7.988281 C 7.027344 7.714844 7.082031 7.636719 7.113281 7.65625 C 7.125 7.664062 7.140625 7.742188 7.148438 7.828125 C 7.1875 8.191406 7.367188 8.921875 7.535156 9.378906 C 7.621094 9.617188 7.636719 9.683594 7.609375 9.699219 C 7.59375 9.710938 7.488281 9.71875 7.375 9.71875 C 7.261719 9.71875 7.105469 9.722656 7.027344 9.730469 C 6.949219 9.734375 6.761719 9.730469 6.613281 9.722656 Z M 7.886719 9.644531 C 7.839844 9.574219 7.746094 9.324219 7.613281 8.933594 C 7.476562 8.53125 7.386719 8.171875 7.28125 7.601562 L 7.230469 7.332031 L 7.363281 7.15625 C 7.652344 6.769531 8.105469 6.347656 8.558594 6.042969 C 8.839844 5.851562 9.144531 5.675781 9.195312 5.679688 C 9.28125 5.6875 9.835938 6.105469 10.191406 6.429688 L 10.367188 6.589844 L 10.226562 6.742188 C 9.5 7.527344 8.964844 8.390625 8.617188 9.320312 C 8.5625 9.472656 8.5 9.605469 8.480469 9.613281 C 8.441406 9.625 8.046875 9.671875 7.957031 9.671875 C 7.929688 9.671875 7.894531 9.660156 7.886719 9.644531 Z M 9.167969 9.421875 C 9.167969 9.363281 9.449219 8.722656 9.601562 8.433594 C 9.886719 7.898438 10.515625 6.976562 10.601562 6.976562 C 10.648438 6.976562 11.035156 7.464844 11.289062 7.847656 C 11.480469 8.132812 11.742188 8.585938 11.726562 8.605469 C 11.710938 8.632812 11.472656 8.742188 11.113281 8.886719 C 10.574219 9.101562 10.070312 9.265625 9.566406 9.390625 C 9.246094 9.46875 9.167969 9.472656 9.167969 9.421875 Z M 11.992188 8.425781 C 11.980469 8.410156 11.925781 8.328125 11.878906 8.242188 C 11.617188 7.804688 11.277344 7.335938 10.964844 6.984375 C 10.855469 6.863281 10.765625 6.742188 10.765625 6.714844 C 10.765625 6.652344 11.117188 6.328125 11.453125 6.078125 C 11.816406 5.808594 11.800781 5.8125 12 5.890625 C 12.609375 6.132812 13.25 6.496094 13.738281 6.867188 C 13.839844 6.945312 13.953125 7.035156 13.992188 7.058594 C 14.03125 7.085938 14.058594 7.117188 14.054688 7.132812 C 14.023438 7.234375 12.925781 7.980469 12.296875 8.328125 C 12.050781 8.464844 12.027344 8.472656 11.992188 8.425781 Z M 15.503906 8.152344 C 15.492188 8.140625 15.394531 8.027344 15.289062 7.894531 C 15.1875 7.765625 14.976562 7.527344 14.820312 7.367188 C 14.644531 7.183594 14.539062 7.058594 14.539062 7.027344 C 14.539062 6.984375 14.640625 6.898438 15.046875 6.597656 C 15.085938 6.566406 15.09375 6.578125 15.15625 6.714844 C 15.308594 7.050781 15.5 7.714844 15.53125 8.019531 C 15.550781 8.175781 15.546875 8.179688 15.503906 8.152344 Z M 14.265625 6.859375 C 14.242188 6.820312 13.785156 6.480469 13.539062 6.324219 C 13.199219 6.101562 12.546875 5.769531 12.25 5.667969 C 12.140625 5.632812 12.105469 5.585938 12.148438 5.535156 C 12.191406 5.484375 12.554688 5.335938 12.871094 5.234375 L 13.148438 5.144531 L 13.300781 5.183594 C 13.582031 5.257812 14.023438 5.425781 14.320312 5.574219 L 14.613281 5.722656 L 14.800781 5.976562 C 14.90625 6.121094 14.992188 6.242188 14.992188 6.25 C 14.992188 6.273438 14.472656 6.789062 14.398438 6.839844 C 14.328125 6.886719 14.285156 6.890625 14.265625 6.859375 Z M 10.40625 6.410156 C 10.308594 6.296875 9.75 5.847656 9.449219 5.640625 C 9.386719 5.601562 9.335938 5.558594 9.335938 5.546875 C 9.335938 5.503906 9.402344 5.476562 9.621094 5.421875 C 9.839844 5.371094 9.863281 5.371094 10.242188 5.398438 C 10.816406 5.441406 11.484375 5.574219 11.515625 5.648438 C 11.53125 5.695312 11.507812 5.71875 11.351562 5.820312 C 11.164062 5.9375 10.785156 6.21875 10.640625 6.347656 C 10.515625 6.457031 10.457031 6.472656 10.40625 6.410156 Z M 15.007812 6.027344 C 14.898438 5.871094 14.941406 5.828125 15.085938 5.945312 C 15.148438 6 15.164062 6.023438 15.148438 6.066406 C 15.125 6.140625 15.074219 6.128906 15.007812 6.027344 Z M 11.625 5.46875 C 11.460938 5.410156 10.789062 5.289062 10.550781 5.269531 C 10.238281 5.246094 10.167969 5.234375 10.167969 5.199219 C 10.167969 5.160156 10.367188 5.113281 10.800781 5.050781 C 11.039062 5.015625 11.257812 5.007812 12.011719 5.007812 C 12.648438 5.007812 12.945312 5.015625 12.964844 5.035156 C 13 5.070312 12.953125 5.097656 12.773438 5.148438 C 12.613281 5.191406 12.03125 5.429688 11.949219 5.488281 C 11.886719 5.53125 11.789062 5.523438 11.625 5.46875 Z M 11.625 5.46875 "/>
</g>
</g>
</g>
</svg>
