
<svg xmlns="http://www.w3.org/2000/svg" xmlns:xlink="http://www.w3.org/1999/xlink" width="22px" height="22px" viewBox="0 0 22 22" version="1.1">
<g id="surface1">
<path style="fill-rule:nonzero;fill:rgb(92.54902%,92.54902%,92.54902%);fill-opacity:1;stroke-width:27.442497;stroke-linecap:butt;stroke-linejoin:miter;stroke:rgb(0%,66.666667%,83.137255%);stroke-opacity:1;stroke-miterlimit:4;" d="M 86.090909 571.634927 L 425.909091 571.634927 C 456.181818 571.634927 480.727273 596.180382 480.727273 626.453109 L 480.727273 966.271291 C 480.727273 996.544018 456.181818 1021.089473 425.909091 1021.089473 L 86.090909 1021.089473 C 55.818182 1021.089473 31.272727 996.544018 31.272727 966.271291 L 31.272727 626.453109 C 31.272727 596.180382 55.818182 571.634927 86.090909 571.634927 Z M 86.090909 571.634927 " transform="matrix(0.0429688,0,0,0.0429688,0,-23.218688)"/>
<path style=" stroke:none;fill-rule:nonzero;fill:rgb(80%,0%,100%);fill-opacity:1;" d="M 3.078125 5.332031 L 14.699219 5.332031 L 14.699219 14.132812 L 3.078125 14.132812 Z M 3.078125 5.332031 "/>
<path style=" stroke:none;fill-rule:nonzero;fill:rgb(21.568627%,20.784314%,22.745098%);fill-opacity:1;" d="M 3.078125 5.332031 L 14.699219 5.332031 L 14.699219 6.367188 L 3.078125 6.367188 Z M 3.078125 5.332031 "/>
<path style=" stroke:none;fill-rule:nonzero;fill:rgb(100%,100%,100%);fill-opacity:1;" d="M 11.847656 5.539062 L 12.480469 5.539062 L 12.480469 6.15625 L 11.847656 6.15625 Z M 11.847656 5.539062 "/>
<path style=" stroke:none;fill-rule:nonzero;fill:rgb(100%,100%,100%);fill-opacity:1;" d="M 13.011719 5.539062 L 13.640625 5.539062 L 13.640625 6.15625 L 13.011719 6.15625 Z M 13.011719 5.539062 "/>
<path style=" stroke:none;fill-rule:nonzero;fill:rgb(100%,100%,100%);fill-opacity:1;" d="M 10.6875 5.539062 L 11.320312 5.539062 L 11.320312 6.15625 L 10.6875 6.15625 Z M 10.6875 5.539062 "/>
<path style=" stroke:none;fill-rule:nonzero;fill:rgb(70.196078%,70.196078%,70.196078%);fill-opacity:1;" d="M 4.136719 7.402344 L 5.71875 7.402344 L 5.71875 8.4375 L 4.136719 8.4375 Z M 4.136719 7.402344 "/>
<path style=" stroke:none;fill-rule:nonzero;fill:rgb(70.196078%,70.196078%,70.196078%);fill-opacity:1;" d="M 4.136719 8.953125 L 5.71875 8.953125 L 5.71875 9.988281 L 4.136719 9.988281 Z M 4.136719 8.953125 "/>
<path style=" stroke:none;fill-rule:nonzero;fill:rgb(70.196078%,70.196078%,70.196078%);fill-opacity:1;" d="M 4.136719 10.507812 L 5.71875 10.507812 L 5.71875 11.542969 L 4.136719 11.542969 Z M 4.136719 10.507812 "/>
<path style=" stroke:none;fill-rule:nonzero;fill:rgb(16.078431%,50.196078%,72.54902%);fill-opacity:1;" d="M 7.300781 9.214844 L 18.921875 9.214844 L 18.921875 18.015625 L 7.300781 18.015625 Z M 7.300781 9.214844 "/>
<path style=" stroke:none;fill-rule:nonzero;fill:rgb(21.568627%,20.784314%,22.745098%);fill-opacity:1;" d="M 7.300781 9.214844 L 18.921875 9.214844 L 18.921875 10.25 L 7.300781 10.25 Z M 7.300781 9.214844 "/>
<path style=" stroke:none;fill-rule:nonzero;fill:rgb(100%,100%,100%);fill-opacity:1;" d="M 16.074219 9.421875 L 16.703125 9.421875 L 16.703125 10.039062 L 16.074219 10.039062 Z M 16.074219 9.421875 "/>
<path style=" stroke:none;fill-rule:nonzero;fill:rgb(100%,100%,100%);fill-opacity:1;" d="M 17.234375 9.421875 L 17.867188 9.421875 L 17.867188 10.039062 L 17.234375 10.039062 Z M 17.234375 9.421875 "/>
<path style=" stroke:none;fill-rule:nonzero;fill:rgb(100%,100%,100%);fill-opacity:1;" d="M 14.910156 9.421875 L 15.542969 9.421875 L 15.542969 10.039062 L 14.910156 10.039062 Z M 14.910156 9.421875 "/>
<path style=" stroke:none;fill-rule:nonzero;fill:rgb(10.196078%,73.72549%,61.176471%);fill-opacity:1;" d="M 8.359375 11.285156 L 9.941406 11.285156 L 9.941406 12.320312 L 8.359375 12.320312 Z M 8.359375 11.285156 "/>
<path style=" stroke:none;fill-rule:nonzero;fill:rgb(10.196078%,73.72549%,61.176471%);fill-opacity:1;" d="M 8.359375 12.835938 L 9.941406 12.835938 L 9.941406 13.871094 L 8.359375 13.871094 Z M 8.359375 12.835938 "/>
<path style=" stroke:none;fill-rule:nonzero;fill:rgb(10.196078%,73.72549%,61.176471%);fill-opacity:1;" d="M 8.359375 14.390625 L 9.941406 14.390625 L 9.941406 15.425781 L 8.359375 15.425781 Z M 8.359375 14.390625 "/>
<path style=" stroke:none;fill-rule:nonzero;fill:rgb(72.941176%,9.019608%,30.588235%);fill-opacity:1;" d="M 3.046875 5.265625 L 14.847656 5.265625 L 14.847656 14.386719 L 3.046875 14.386719 Z M 3.046875 5.265625 "/>
<path style=" stroke:none;fill-rule:nonzero;fill:rgb(10.196078%,10.196078%,10.196078%);fill-opacity:1;" d="M 3.046875 5.265625 L 14.847656 5.265625 L 14.847656 6.339844 L 3.046875 6.339844 Z M 3.046875 5.265625 "/>
<path style=" stroke:none;fill-rule:nonzero;fill:rgb(100%,100%,100%);fill-opacity:1;" d="M 10.777344 5.480469 L 10.777344 6.125 L 11.417969 6.125 L 11.417969 5.480469 Z M 11.953125 5.480469 L 11.953125 6.125 L 12.597656 6.125 L 12.597656 5.480469 Z M 13.132812 5.480469 L 13.132812 6.125 L 13.773438 6.125 L 13.773438 5.480469 Z M 13.132812 5.480469 "/>
<path style=" stroke:none;fill-rule:nonzero;fill:rgb(94.901961%,94.901961%,94.901961%);fill-opacity:1;" d="M 4.121094 7.414062 L 5.730469 7.414062 L 5.730469 8.484375 L 4.121094 8.484375 Z M 4.121094 7.414062 "/>
<path style=" stroke:none;fill-rule:nonzero;fill:rgb(94.901961%,94.901961%,94.901961%);fill-opacity:1;" d="M 4.121094 9.019531 L 5.730469 9.019531 L 5.730469 10.09375 L 4.121094 10.09375 Z M 4.121094 9.019531 "/>
<path style=" stroke:none;fill-rule:nonzero;fill:rgb(94.901961%,94.901961%,94.901961%);fill-opacity:1;" d="M 4.121094 10.628906 L 5.730469 10.628906 L 5.730469 11.703125 L 4.121094 11.703125 Z M 4.121094 10.628906 "/>
<path style=" stroke:none;fill-rule:nonzero;fill:rgb(16.078431%,50.196078%,72.54902%);fill-opacity:1;" d="M 7.117188 8.976562 L 18.917969 8.976562 L 18.917969 18.09375 L 7.117188 18.09375 Z M 7.117188 8.976562 "/>
<path style=" stroke:none;fill-rule:nonzero;fill:rgb(10.196078%,10.196078%,10.196078%);fill-opacity:1;" d="M 7.117188 8.976562 L 18.917969 8.976562 L 18.917969 10.050781 L 7.117188 10.050781 Z M 7.117188 8.976562 "/>
<path style=" stroke:none;fill-rule:nonzero;fill:rgb(100%,100%,100%);fill-opacity:1;" d="M 14.84375 9.191406 L 14.84375 9.835938 L 15.488281 9.835938 L 15.488281 9.191406 Z M 16.023438 9.191406 L 16.023438 9.835938 L 16.664062 9.835938 L 16.664062 9.191406 Z M 17.203125 9.191406 L 17.203125 9.835938 L 17.84375 9.835938 L 17.84375 9.191406 Z M 17.203125 9.191406 "/>
<path style=" stroke:none;fill-rule:nonzero;fill:rgb(94.901961%,94.901961%,94.901961%);fill-opacity:1;" d="M 8.191406 11.121094 L 9.800781 11.121094 L 9.800781 12.195312 L 8.191406 12.195312 Z M 8.191406 11.121094 "/>
<path style=" stroke:none;fill-rule:nonzero;fill:rgb(94.901961%,94.901961%,94.901961%);fill-opacity:1;" d="M 8.191406 12.730469 L 9.800781 12.730469 L 9.800781 13.804688 L 8.191406 13.804688 Z M 8.191406 12.730469 "/>
<path style=" stroke:none;fill-rule:nonzero;fill:rgb(94.901961%,94.901961%,94.901961%);fill-opacity:1;" d="M 8.191406 14.339844 L 9.800781 14.339844 L 9.800781 15.414062 L 8.191406 15.414062 Z M 8.191406 14.339844 "/>
</g>
</svg>
