
<svg xmlns="http://www.w3.org/2000/svg" xmlns:xlink="http://www.w3.org/1999/xlink" width="22px" height="22px" viewBox="0 0 22 22" version="1.1">
<g id="surface1">
<path style="fill-rule:nonzero;fill:rgb(100%,100%,100%);fill-opacity:1;stroke-width:30.5;stroke-linecap:butt;stroke-linejoin:miter;stroke:rgb(100%,100%,100%);stroke-opacity:1;stroke-miterlimit:4;" d="M 34.521828 70.59213 L 479.571048 70.59213 L 479.571048 449.148117 L 34.521828 449.148117 Z M 34.521828 70.59213 " transform="matrix(0.042885,0,0,0.042885,0,0)"/>
<path style=" stroke:none;fill-rule:evenodd;fill:rgb(13.72549%,13.72549%,13.72549%);fill-opacity:1;" d="M 1.90625 3.582031 L 20.214844 3.582031 L 20.214844 18.625 L 1.90625 18.625 Z M 1.90625 3.582031 "/>
<path style=" stroke:none;fill-rule:nonzero;fill:rgb(13.72549%,13.72549%,13.72549%);fill-opacity:1;" d="M 2.398438 5.226562 L 19.730469 5.226562 L 19.730469 10.105469 L 2.398438 10.105469 Z M 2.398438 5.226562 "/>
<path style=" stroke:none;fill-rule:nonzero;fill:rgb(12.54902%,18.823529%,22.745098%);fill-opacity:0.992157;" d="M 2.402344 5.136719 L 2.402344 10.355469 L 19.652344 10.355469 L 19.652344 5.136719 Z M 2.40625 11.746094 L 2.40625 16.964844 L 19.65625 16.964844 L 19.65625 11.746094 Z M 2.40625 11.746094 "/>
<path style="fill-rule:evenodd;fill:rgb(16.862745%,22.352941%,27.058824%);fill-opacity:1;stroke-width:1.875;stroke-linecap:butt;stroke-linejoin:miter;stroke:rgb(13.72549%,13.72549%,13.72549%);stroke-opacity:1;stroke-miterlimit:4;" d="M 55.016318 119.778904 L 55.016318 241.470626 M 72.504949 119.778904 L 72.504949 241.470626 M 89.993579 119.778904 L 89.993579 241.470626 M 107.48221 119.778904 L 107.48221 241.470626 M 124.970841 119.778904 L 124.970841 241.470626 M 142.459472 119.778904 L 142.459472 241.470626 M 159.948102 119.778904 L 159.948102 241.470626 M 177.436733 119.778904 L 177.436733 241.470626 M 195.016451 119.778904 L 195.016451 241.470626 M 212.505081 119.778904 L 212.505081 241.470626 M 229.993712 119.778904 L 229.993712 241.470626 M 247.482343 119.778904 L 247.482343 241.470626 M 264.970974 119.778904 L 264.970974 241.470626 M 282.459605 119.778904 L 282.459605 241.470626 M 299.948235 119.778904 L 299.948235 241.470626 M 317.436866 119.778904 L 317.436866 241.470626 M 335.016584 119.778904 L 335.016584 241.470626 M 352.505214 119.778904 L 352.505214 241.470626 M 369.993845 119.778904 L 369.993845 241.470626 M 387.482476 119.778904 L 387.482476 241.470626 M 404.971107 119.778904 L 404.971107 241.470626 M 422.459738 119.778904 L 422.459738 241.470626 M 439.948368 119.778904 L 439.948368 241.470626 M 457.436999 119.778904 L 457.436999 241.470626 M 55.016318 119.778904 L 459.076558 119.778904 M 55.016318 137.085361 L 459.076558 137.085361 M 55.016318 154.391819 L 459.076558 154.391819 M 55.016318 171.698276 L 459.076558 171.698276 M 55.016318 189.004734 L 459.076558 189.004734 M 55.016318 206.311191 L 459.076558 206.311191 M 55.016318 223.617649 L 459.076558 223.617649 M 55.016318 240.924107 L 459.076558 240.924107 " transform="matrix(0.042885,0,0,0.042885,0,0)"/>
<path style="fill-rule:evenodd;fill:rgb(43.921569%,45.098039%,45.882353%);fill-opacity:0.905882;stroke-width:1.875;stroke-linecap:butt;stroke-linejoin:miter;stroke:rgb(13.72549%,13.72549%,13.72549%);stroke-opacity:1;stroke-miterlimit:4;" d="M 55.016318 273.897463 L 55.016318 395.589185 M 72.596035 273.897463 L 72.596035 395.589185 M 90.084666 273.897463 L 90.084666 395.589185 M 107.573297 273.897463 L 107.573297 395.589185 M 125.061928 273.897463 L 125.061928 395.589185 M 142.550558 273.897463 L 142.550558 395.589185 M 160.039189 273.897463 L 160.039189 395.589185 M 177.52782 273.897463 L 177.52782 395.589185 M 195.016451 273.897463 L 195.016451 395.589185 M 212.596168 273.897463 L 212.596168 395.589185 M 230.084799 273.897463 L 230.084799 395.589185 M 247.57343 273.897463 L 247.57343 395.589185 M 265.062061 273.897463 L 265.062061 395.589185 M 282.550691 273.897463 L 282.550691 395.589185 M 300.039322 273.897463 L 300.039322 395.589185 M 317.527953 273.897463 L 317.527953 395.589185 M 335.016584 273.897463 L 335.016584 395.589185 M 352.596301 273.897463 L 352.596301 395.589185 M 370.084932 273.897463 L 370.084932 395.589185 M 387.573563 273.897463 L 387.573563 395.589185 M 405.062193 273.897463 L 405.062193 395.589185 M 422.550824 273.897463 L 422.550824 395.589185 M 440.039455 273.897463 L 440.039455 395.589185 M 457.528086 273.897463 L 457.528086 395.589185 M 55.016318 273.897463 L 459.167645 273.897463 M 55.016318 291.20392 L 459.167645 291.20392 M 55.016318 308.510378 L 459.167645 308.510378 M 55.016318 325.816835 L 459.167645 325.816835 M 55.016318 343.123293 L 459.167645 343.123293 M 55.016318 360.42975 L 459.167645 360.42975 M 55.016318 377.736208 L 459.167645 377.736208 M 55.016318 395.042665 L 459.167645 395.042665 " transform="matrix(0.042885,0,0,0.042885,0,0)"/>
<path style=" stroke:none;fill-rule:nonzero;fill:rgb(29.019608%,68.235294%,90.980392%);fill-opacity:0.992157;" d="M 3.152344 5.9375 L 3.152344 6.570312 L 3.789062 6.570312 L 3.789062 5.9375 Z M 3.921875 5.9375 L 3.921875 6.570312 L 4.558594 6.570312 L 4.558594 5.9375 Z M 6.167969 5.9375 L 6.167969 6.570312 L 6.804688 6.570312 L 6.804688 5.9375 Z M 6.902344 5.9375 L 6.902344 6.570312 L 7.539062 6.570312 L 7.539062 5.9375 Z M 7.675781 5.9375 L 7.675781 6.570312 L 8.3125 6.570312 L 8.3125 5.9375 Z M 9.917969 5.9375 L 9.917969 6.570312 L 10.554688 6.570312 L 10.554688 5.9375 Z M 10.65625 5.9375 L 10.65625 6.570312 L 11.292969 6.570312 L 11.292969 5.9375 Z M 11.425781 5.9375 L 11.425781 6.570312 L 12.0625 6.570312 L 12.0625 5.9375 Z M 12.933594 5.9375 L 12.933594 6.570312 L 13.570312 6.570312 L 13.570312 5.9375 Z M 15.179688 5.9375 L 15.179688 6.570312 L 15.816406 6.570312 L 15.816406 5.9375 Z M 17.425781 5.9375 L 17.425781 6.570312 L 18.0625 6.570312 L 18.0625 5.9375 Z M 18.160156 5.9375 L 18.160156 6.570312 L 18.796875 6.570312 L 18.796875 5.9375 Z M 2.414062 6.671875 L 2.414062 7.308594 L 3.050781 7.308594 L 3.050781 6.671875 Z M 4.660156 6.671875 L 4.660156 7.308594 L 5.296875 7.308594 L 5.296875 6.671875 Z M 6.167969 6.671875 L 6.167969 7.308594 L 6.804688 7.308594 L 6.804688 6.671875 Z M 8.410156 6.671875 L 8.410156 7.308594 L 9.046875 7.308594 L 9.046875 6.671875 Z M 10.65625 6.671875 L 10.65625 7.308594 L 11.292969 7.308594 L 11.292969 6.671875 Z M 12.933594 6.671875 L 12.933594 7.308594 L 13.570312 7.308594 L 13.570312 6.671875 Z M 15.179688 6.671875 L 15.179688 7.308594 L 15.816406 7.308594 L 15.816406 6.671875 Z M 16.6875 6.671875 L 16.6875 7.308594 L 17.324219 7.308594 L 17.324219 6.671875 Z M 18.933594 6.671875 L 18.933594 7.308594 L 19.570312 7.308594 L 19.570312 6.671875 Z M 2.414062 7.410156 L 2.414062 8.046875 L 3.050781 8.046875 L 3.050781 7.410156 Z M 4.660156 7.410156 L 4.660156 8.046875 L 5.296875 8.046875 L 5.296875 7.410156 Z M 6.167969 7.410156 L 6.167969 8.046875 L 6.804688 8.046875 L 6.804688 7.410156 Z M 8.410156 7.410156 L 8.410156 8.046875 L 9.046875 8.046875 L 9.046875 7.410156 Z M 10.65625 7.410156 L 10.65625 8.046875 L 11.292969 8.046875 L 11.292969 7.410156 Z M 12.933594 7.410156 L 12.933594 8.046875 L 13.570312 8.046875 L 13.570312 7.410156 Z M 15.179688 7.410156 L 15.179688 8.046875 L 15.816406 8.046875 L 15.816406 7.410156 Z M 16.6875 7.410156 L 16.6875 8.046875 L 17.324219 8.046875 L 17.324219 7.410156 Z M 18.933594 7.410156 L 18.933594 8.046875 L 19.570312 8.046875 L 19.570312 7.410156 Z M 2.414062 8.148438 L 2.414062 8.785156 L 3.050781 8.785156 L 3.050781 8.148438 Z M 3.152344 8.148438 L 3.152344 8.785156 L 3.789062 8.785156 L 3.789062 8.148438 Z M 3.921875 8.148438 L 3.921875 8.785156 L 4.558594 8.785156 L 4.558594 8.148438 Z M 4.660156 8.148438 L 4.660156 8.785156 L 5.296875 8.785156 L 5.296875 8.148438 Z M 6.167969 8.148438 L 6.167969 8.785156 L 6.804688 8.785156 L 6.804688 8.148438 Z M 6.902344 8.148438 L 6.902344 8.785156 L 7.539062 8.785156 L 7.539062 8.148438 Z M 7.675781 8.148438 L 7.675781 8.785156 L 8.3125 8.785156 L 8.3125 8.148438 Z M 10.65625 8.148438 L 10.65625 8.785156 L 11.292969 8.785156 L 11.292969 8.148438 Z M 12.933594 8.148438 L 12.933594 8.785156 L 13.570312 8.785156 L 13.570312 8.148438 Z M 15.179688 8.148438 L 15.179688 8.785156 L 15.816406 8.785156 L 15.816406 8.148438 Z M 16.6875 8.148438 L 16.6875 8.785156 L 17.324219 8.785156 L 17.324219 8.148438 Z M 17.425781 8.148438 L 17.425781 8.785156 L 18.0625 8.785156 L 18.0625 8.148438 Z M 18.160156 8.148438 L 18.160156 8.785156 L 18.796875 8.785156 L 18.796875 8.148438 Z M 18.933594 8.148438 L 18.933594 8.785156 L 19.570312 8.785156 L 19.570312 8.148438 Z M 2.414062 8.917969 L 2.414062 9.519531 L 3.050781 9.519531 L 3.050781 8.917969 Z M 4.660156 8.917969 L 4.660156 9.519531 L 5.296875 9.519531 L 5.296875 8.917969 Z M 6.167969 8.917969 L 6.167969 9.519531 L 6.804688 9.519531 L 6.804688 8.917969 Z M 8.410156 8.917969 L 8.410156 9.519531 L 9.046875 9.519531 L 9.046875 8.917969 Z M 10.65625 8.917969 L 10.65625 9.519531 L 11.292969 9.519531 L 11.292969 8.917969 Z M 13.671875 8.917969 L 13.671875 9.519531 L 14.308594 9.519531 L 14.308594 8.917969 Z M 14.410156 8.917969 L 14.410156 9.519531 L 15.046875 9.519531 L 15.046875 8.917969 Z M 16.6875 8.917969 L 16.6875 9.519531 L 17.324219 9.519531 L 17.324219 8.917969 Z M 18.933594 8.917969 L 18.933594 9.519531 L 19.570312 9.519531 L 19.570312 8.917969 Z M 2.421875 12.542969 L 2.421875 13.179688 L 3.058594 13.179688 L 3.058594 12.542969 Z M 3.160156 12.542969 L 3.160156 13.179688 L 3.796875 13.179688 L 3.796875 12.542969 Z M 5.40625 12.542969 L 5.40625 13.179688 L 6.042969 13.179688 L 6.042969 12.542969 Z M 7.683594 12.542969 L 7.683594 13.179688 L 8.320312 13.179688 L 8.320312 12.542969 Z M 9.929688 12.542969 L 9.929688 13.179688 L 10.566406 13.179688 L 10.566406 12.542969 Z M 10.664062 12.542969 L 10.664062 13.179688 L 11.300781 13.179688 L 11.300781 12.542969 Z M 14.417969 12.542969 L 14.417969 13.179688 L 15.054688 13.179688 L 15.054688 12.542969 Z M 15.1875 12.542969 L 15.1875 13.179688 L 15.824219 13.179688 L 15.824219 12.542969 Z M 16.664062 12.542969 L 16.664062 13.179688 L 17.300781 13.179688 L 17.300781 12.542969 Z M 17.433594 12.542969 L 17.433594 13.179688 L 18.070312 13.179688 L 18.070312 12.542969 Z M 18.171875 12.542969 L 18.171875 13.179688 L 18.808594 13.179688 L 18.808594 12.542969 Z M 18.941406 12.542969 L 18.941406 13.179688 L 19.578125 13.179688 L 19.578125 12.542969 Z M 3.929688 13.28125 L 3.929688 13.917969 L 4.566406 13.917969 L 4.566406 13.28125 Z M 5.40625 13.28125 L 5.40625 13.917969 L 6.042969 13.917969 L 6.042969 13.28125 Z M 7.683594 13.28125 L 7.683594 13.917969 L 8.320312 13.917969 L 8.320312 13.28125 Z M 9.15625 13.28125 L 9.15625 13.917969 L 9.792969 13.917969 L 9.792969 13.28125 Z M 11.4375 13.28125 L 11.4375 13.917969 L 12.074219 13.917969 L 12.074219 13.28125 Z M 12.910156 13.28125 L 12.910156 13.917969 L 13.546875 13.917969 L 13.546875 13.28125 Z M 15.1875 13.28125 L 15.1875 13.917969 L 15.824219 13.917969 L 15.824219 13.28125 Z M 18.941406 13.28125 L 18.941406 13.917969 L 19.578125 13.917969 L 19.578125 13.28125 Z M 3.929688 14.019531 L 3.929688 14.65625 L 4.566406 14.65625 L 4.566406 14.019531 Z M 6.175781 14.019531 L 6.175781 14.65625 L 6.8125 14.65625 L 6.8125 14.019531 Z M 6.914062 14.019531 L 6.914062 14.65625 L 7.550781 14.65625 L 7.550781 14.019531 Z M 9.929688 14.019531 L 9.929688 14.65625 L 10.566406 14.65625 L 10.566406 14.019531 Z M 10.664062 14.019531 L 10.664062 14.65625 L 11.300781 14.65625 L 11.300781 14.019531 Z M 15.1875 14.019531 L 15.1875 14.65625 L 15.824219 14.65625 L 15.824219 14.019531 Z M 18.171875 14.019531 L 18.171875 14.65625 L 18.808594 14.65625 L 18.808594 14.019531 Z M 2.421875 14.789062 L 2.421875 15.390625 L 3.058594 15.390625 L 3.058594 14.789062 Z M 3.160156 14.789062 L 3.160156 15.390625 L 3.796875 15.390625 L 3.796875 14.789062 Z M 3.929688 14.789062 L 3.929688 15.390625 L 4.566406 15.390625 L 4.566406 14.789062 Z M 6.914062 14.789062 L 6.914062 15.390625 L 7.550781 15.390625 L 7.550781 14.789062 Z M 9.15625 14.789062 L 9.15625 15.390625 L 9.792969 15.390625 L 9.792969 14.789062 Z M 11.4375 14.789062 L 11.4375 15.390625 L 12.074219 15.390625 L 12.074219 14.789062 Z M 12.910156 14.789062 L 12.910156 15.390625 L 13.546875 15.390625 L 13.546875 14.789062 Z M 15.1875 14.789062 L 15.1875 15.390625 L 15.824219 15.390625 L 15.824219 14.789062 Z M 17.433594 14.789062 L 17.433594 15.390625 L 18.070312 15.390625 L 18.070312 14.789062 Z M 3.929688 15.527344 L 3.929688 16.128906 L 4.566406 16.128906 L 4.566406 15.527344 Z M 6.175781 15.527344 L 6.175781 16.128906 L 6.8125 16.128906 L 6.8125 15.527344 Z M 9.929688 15.527344 L 9.929688 16.128906 L 10.566406 16.128906 L 10.566406 15.527344 Z M 10.664062 15.527344 L 10.664062 16.128906 L 11.300781 16.128906 L 11.300781 15.527344 Z M 15.1875 15.527344 L 15.1875 16.128906 L 15.824219 16.128906 L 15.824219 15.527344 Z M 17.433594 15.527344 L 17.433594 16.128906 L 18.070312 16.128906 L 18.070312 15.527344 Z M 17.433594 15.527344 "/>
<path style=" stroke:none;fill-rule:nonzero;fill:rgb(30.980392%,74.117647%,93.333333%);fill-opacity:1;" d="M 13.671875 9.21875 L 13.671875 8.917969 L 14.308594 8.917969 L 14.308594 9.519531 L 13.671875 9.519531 Z M 13.671875 9.21875 "/>
</g>
</svg>
