
<svg xmlns="http://www.w3.org/2000/svg" xmlns:xlink="http://www.w3.org/1999/xlink" width="22px" height="22px" viewBox="0 0 22 22" version="1.1">
<g id="surface1">
<path style="fill-rule:nonzero;fill:rgb(92.54902%,92.54902%,92.54902%);fill-opacity:1;stroke-width:27.442497;stroke-linecap:butt;stroke-linejoin:miter;stroke:rgb(59.215686%,85.490196%,32.941176%);stroke-opacity:1;stroke-miterlimit:4;" d="M 86.623374 31.698143 L 426.376462 31.698143 C 456.708306 31.698143 481.301693 56.29153 481.301693 86.623374 L 481.301693 426.376462 C 481.301693 456.708306 456.708306 481.301693 426.376462 481.301693 L 86.623374 481.301693 C 56.29153 481.301693 31.698143 456.708306 31.698143 426.376462 L 31.698143 86.623374 C 31.698143 56.29153 56.29153 31.698143 86.623374 31.698143 Z M 86.623374 31.698143 " transform="matrix(0.042885,0,0,0.042885,0,0)"/>
<path style=" stroke:none;fill-rule:nonzero;fill:rgb(100%,100%,100%);fill-opacity:1;" d="M 18.71875 11.0625 C 18.71875 15.324219 15.265625 18.777344 11.007812 18.777344 C 6.75 18.777344 3.296875 15.324219 3.296875 11.0625 C 3.296875 6.804688 6.75 3.351562 11.007812 3.351562 C 15.265625 3.351562 18.71875 6.804688 18.71875 11.0625 Z M 18.71875 11.0625 "/>
<path style=" stroke:none;fill-rule:nonzero;fill:rgb(59.215686%,85.490196%,32.941176%);fill-opacity:1;" d="M 10.277344 19.136719 C 9.144531 19.039062 7.902344 18.636719 6.90625 18.042969 C 4.71875 16.746094 3.304688 14.59375 2.972656 12.050781 C 2.859375 11.191406 2.914062 10.054688 3.113281 9.21875 C 3.320312 8.335938 3.757812 7.308594 4.222656 6.605469 C 5.585938 4.539062 7.773438 3.210938 10.238281 2.957031 C 10.789062 2.898438 11.8125 2.933594 12.359375 3.027344 C 15.386719 3.542969 17.808594 5.628906 18.765625 8.542969 C 19.027344 9.332031 19.144531 10.125 19.144531 11.050781 C 19.144531 12.035156 19.007812 12.847656 18.6875 13.769531 C 18.425781 14.527344 17.859375 15.539062 17.359375 16.152344 C 15.621094 18.273438 13.003906 19.378906 10.277344 19.136719 Z M 12.023438 16.046875 C 12.53125 15.945312 12.859375 15.832031 13.324219 15.601562 C 14.167969 15.179688 14.898438 14.507812 15.402344 13.683594 C 15.949219 12.789062 16.214844 11.636719 16.113281 10.605469 C 15.984375 9.320312 15.472656 8.25 14.5625 7.371094 C 13.84375 6.679688 12.976562 6.226562 11.996094 6.027344 C 11.550781 5.9375 10.484375 5.9375 10.066406 6.027344 C 9.023438 6.25 8.152344 6.71875 7.433594 7.4375 C 6.558594 8.316406 6.046875 9.410156 5.949219 10.625 L 5.921875 10.945312 L 5.476562 10.960938 C 5.078125 10.976562 5.03125 10.984375 5.019531 11.046875 C 5.003906 11.136719 6.457031 12.597656 6.5625 12.597656 C 6.65625 12.597656 8.160156 11.09375 8.136719 11.027344 C 8.125 10.992188 8 10.976562 7.617188 10.96875 L 7.113281 10.960938 L 7.113281 10.84375 C 7.113281 10.46875 7.320312 9.6875 7.53125 9.273438 C 7.921875 8.496094 8.707031 7.765625 9.492188 7.4375 C 10.023438 7.214844 10.378906 7.144531 10.988281 7.140625 C 11.570312 7.140625 11.765625 7.167969 12.253906 7.324219 C 12.851562 7.515625 13.332031 7.816406 13.800781 8.289062 C 14.574219 9.074219 14.9375 9.953125 14.9375 11.050781 C 14.9375 11.738281 14.8125 12.265625 14.503906 12.855469 C 14.109375 13.613281 13.507812 14.195312 12.730469 14.570312 C 11.226562 15.289062 9.507812 15.007812 8.289062 13.847656 C 8.164062 13.726562 8.050781 13.628906 8.035156 13.628906 C 8.019531 13.628906 7.828125 13.785156 7.613281 13.976562 C 7.367188 14.191406 7.21875 14.347656 7.21875 14.390625 C 7.21875 14.539062 8 15.195312 8.554688 15.507812 C 9.066406 15.792969 9.820312 16.042969 10.414062 16.117188 C 10.828125 16.167969 11.59375 16.136719 12.023438 16.046875 Z M 12.023438 16.046875 "/>
</g>
</svg>
