<!-- color: #6e90bb -->
<svg xmlns="http://www.w3.org/2000/svg" xmlns:xlink="http://www.w3.org/1999/xlink" width="22px" height="22px" viewBox="0 0 22 22" version="1.1">
<defs>
<clipPath id="clip1">
  <path d="M 1.503906 1.417969 L 20.453125 1.417969 L 20.453125 20.410156 L 1.503906 20.410156 Z M 1.503906 1.417969 "/>
</clipPath>
<clipPath id="clip2">
  <path d="M 4.789062 1.445312 L 17.164062 1.445312 C 18.960938 1.445312 20.414062 2.902344 20.414062 4.695312 L 20.414062 17.140625 C 20.414062 18.9375 18.960938 20.390625 17.164062 20.390625 L 4.789062 20.390625 C 2.992188 20.390625 1.539062 18.9375 1.539062 17.140625 L 1.539062 4.695312 C 1.539062 2.902344 2.992188 1.445312 4.789062 1.445312 Z M 4.789062 1.445312 "/>
</clipPath>
<clipPath id="clip3">
  <path d="M 29.277344 10.976562 C 29.277344 21.054688 21.105469 29.21875 11.035156 29.21875 C 0.964844 29.21875 -7.207031 21.054688 -7.207031 10.976562 C -7.207031 0.898438 0.964844 -7.261719 11.035156 -7.261719 C 21.105469 -7.261719 29.277344 0.898438 29.277344 10.976562 Z M 29.277344 10.976562 "/>
</clipPath>
</defs>
<g id="surface1">
<g clip-path="url(#clip1)" clip-rule="nonzero">
<g clip-path="url(#clip2)" clip-rule="nonzero">
<g clip-path="url(#clip3)" clip-rule="nonzero">
<path style=" stroke:none;fill-rule:nonzero;fill:rgb(45.098039%,82.352941%,8.627451%);fill-opacity:1;" d="M 3.136719 20.4375 C 3.136719 20.320312 7.109375 15.542969 7.195312 15.558594 C 7.242188 15.574219 9.019531 16.324219 11.136719 17.234375 C 14.761719 18.792969 15.003906 18.882812 15.101562 18.753906 C 15.25 18.554688 15.761719 17.488281 16.03125 16.8125 L 16.257812 16.238281 L 15.875 16.027344 C 15.328125 15.730469 14.523438 15.0625 14.023438 14.492188 C 13.5625 13.96875 12.738281 12.707031 12.738281 12.527344 C 12.738281 12.46875 13 12.738281 13.320312 13.121094 C 14.222656 14.191406 16.300781 15.878906 16.433594 15.640625 C 16.585938 15.355469 16.6875 14.519531 16.683594 13.546875 C 16.675781 12.359375 16.523438 11.4375 16.113281 10.160156 L 15.882812 9.445312 L 14.753906 9.09375 C 14.132812 8.894531 13.511719 8.703125 13.371094 8.65625 C 12.882812 8.5 13.1875 8.511719 13.902344 8.671875 C 14.753906 8.863281 15.625 9.023438 16.164062 9.089844 C 16.640625 9.148438 16.742188 9.054688 16.792969 8.53125 C 16.855469 7.859375 16.425781 6.003906 15.984375 5.082031 C 15.8125 4.710938 15.730469 4.628906 15.382812 4.46875 C 14.21875 3.929688 10.574219 3.433594 9.027344 3.59375 C 8.359375 3.664062 7.675781 3.828125 7.457031 3.964844 C 7.398438 4.011719 7.832031 4.113281 8.570312 4.25 C 9.238281 4.375 9.722656 4.484375 9.652344 4.5 C 9.570312 4.515625 8.53125 4.398438 7.320312 4.246094 C 5.199219 3.972656 5.121094 3.964844 4.96875 4.101562 C 4.65625 4.382812 4.21875 5.140625 4.125 5.546875 C 4.039062 5.941406 4.042969 5.988281 4.238281 6.386719 C 4.574219 7.074219 5.199219 7.570312 6.617188 8.289062 C 7.285156 8.636719 7.816406 8.917969 7.796875 8.941406 C 7.777344 8.960938 7.203125 8.746094 6.527344 8.464844 L 5.292969 7.953125 L 3.480469 8.460938 C 2.484375 8.738281 1.636719 8.964844 1.597656 8.964844 C 1.546875 8.964844 1.523438 7.761719 1.523438 5.726562 C 1.523438 2.605469 1.527344 2.476562 1.683594 2.15625 C 1.773438 1.960938 1.957031 1.753906 2.121094 1.65625 L 2.40625 1.476562 L 10.703125 1.453125 C 15.265625 1.441406 19.1875 1.453125 19.410156 1.476562 C 19.917969 1.539062 20.375 1.910156 20.496094 2.359375 C 20.550781 2.554688 20.566406 5.507812 20.554688 11.125 L 20.535156 19.585938 L 20.355469 19.867188 C 20.253906 20.035156 20.046875 20.214844 19.855469 20.308594 C 19.53125 20.46875 19.464844 20.46875 11.339844 20.46875 C 6.835938 20.46875 3.144531 20.441406 3.144531 20.410156 M 3.128906 20.425781 "/>
</g>
</g>
</g>
</g>
</svg>
