
<svg xmlns="http://www.w3.org/2000/svg" xmlns:xlink="http://www.w3.org/1999/xlink" width="22px" height="22px" viewBox="0 0 22 22" version="1.1">
<g id="surface1">
<path style="fill-rule:nonzero;fill:rgb(100%,100%,100%);fill-opacity:1;stroke-width:7.034204;stroke-linecap:butt;stroke-linejoin:miter;stroke:rgb(30.196078%,30.196078%,30.196078%);stroke-opacity:1;stroke-miterlimit:4;" d="M 20.454545 6.386364 L 107.545455 6.386364 C 115.318182 6.386364 121.613636 12.681818 121.613636 20.454545 L 121.613636 107.545455 C 121.613636 115.318182 115.318182 121.613636 107.545455 121.613636 L 20.454545 121.613636 C 12.681818 121.613636 6.386364 115.318182 6.386364 107.545455 L 6.386364 20.454545 C 6.386364 12.681818 12.681818 6.386364 20.454545 6.386364 Z M 20.454545 6.386364 " transform="matrix(0.171875,0,0,0.171875,0,0)"/>
<path style=" stroke:none;fill-rule:nonzero;fill:rgb(30.196078%,30.196078%,30.196078%);fill-opacity:1;" d="M 16.0625 15.90625 C 16.035156 15.328125 15.164062 13.601562 15.183594 12.933594 C 15.207031 12.175781 15.667969 11.238281 16.621094 13.066406 C 17.195312 14.164062 18.074219 13.480469 18.183594 12.949219 C 18.503906 11.335938 18.023438 9.402344 16.5 7.507812 C 13.867188 4.230469 9.230469 3.332031 6.15625 5.5 C 3.078125 7.664062 3.015625 12.542969 5.824219 15.371094 C 8.371094 17.933594 11.878906 19.0625 14.8125 17.824219 C 15.117188 17.699219 16.121094 17.304688 16.0625 15.90625 Z M 7.820312 6.410156 C 8.375 6.015625 9.140625 6.148438 9.53125 6.707031 C 9.921875 7.261719 9.789062 8.027344 9.234375 8.417969 C 8.679688 8.808594 7.914062 8.675781 7.519531 8.121094 C 7.128906 7.566406 7.261719 6.800781 7.820312 6.410156 Z M 5.421875 11.40625 C 5.03125 10.851562 5.164062 10.082031 5.71875 9.691406 C 6.273438 9.300781 7.042969 9.433594 7.433594 9.988281 C 7.824219 10.542969 7.691406 11.3125 7.136719 11.703125 C 6.578125 12.09375 5.8125 11.960938 5.421875 11.40625 Z M 11.390625 8.203125 C 11 7.648438 11.132812 6.882812 11.6875 6.492188 C 12.242188 6.101562 13.007812 6.234375 13.402344 6.789062 C 13.792969 7.34375 13.660156 8.109375 13.101562 8.503906 C 12.546875 8.894531 11.78125 8.761719 11.390625 8.203125 Z M 7.230469 14.542969 C 6.839844 13.988281 6.972656 13.222656 7.527344 12.828125 C 8.082031 12.4375 8.851562 12.570312 9.242188 13.128906 C 9.632812 13.683594 9.5 14.449219 8.945312 14.839844 C 8.386719 15.230469 7.621094 15.097656 7.230469 14.542969 Z M 7.230469 14.542969 "/>
<path style=" stroke:none;fill-rule:nonzero;fill:rgb(100%,80%,0%);fill-opacity:1;" d="M 8.148438 8.664062 C 7.519531 8.46875 7.09375 7.75 7.226562 7.121094 C 7.296875 6.804688 7.425781 6.574219 7.652344 6.363281 C 7.949219 6.082031 8.164062 6 8.582031 6 C 9.003906 6 9.21875 6.082031 9.519531 6.363281 C 10.265625 7.0625 10 8.320312 9.027344 8.664062 C 8.824219 8.734375 8.378906 8.734375 8.148438 8.664062 Z M 8.148438 8.664062 "/>
<path style=" stroke:none;fill-rule:nonzero;fill:rgb(0%,40%,100%);fill-opacity:1;" d="M 11.984375 8.738281 C 11.378906 8.546875 10.972656 7.859375 11.101562 7.253906 C 11.164062 6.953125 11.289062 6.730469 11.507812 6.527344 C 11.792969 6.257812 12 6.179688 12.402344 6.179688 C 12.804688 6.179688 13.011719 6.257812 13.300781 6.53125 C 14.015625 7.199219 13.761719 8.40625 12.828125 8.734375 C 12.632812 8.804688 12.203125 8.804688 11.984375 8.738281 Z M 11.984375 8.738281 "/>
<path style=" stroke:none;fill-rule:nonzero;fill:rgb(0%,100%,0%);fill-opacity:1;" d="M 6.101562 11.949219 C 5.496094 11.761719 5.089844 11.074219 5.21875 10.46875 C 5.28125 10.164062 5.40625 9.941406 5.625 9.738281 C 5.910156 9.472656 6.117188 9.390625 6.519531 9.390625 C 6.921875 9.390625 7.128906 9.472656 7.417969 9.742188 C 8.132812 10.414062 7.878906 11.621094 6.945312 11.949219 C 6.75 12.015625 6.320312 12.019531 6.101562 11.949219 Z M 6.101562 11.949219 "/>
<path style=" stroke:none;fill-rule:nonzero;fill:rgb(100%,0%,80%);fill-opacity:1;" d="M 7.832031 15.089844 C 7.230469 14.898438 6.820312 14.214844 6.949219 13.609375 C 7.015625 13.304688 7.140625 13.082031 7.355469 12.878906 C 7.640625 12.613281 7.847656 12.53125 8.25 12.53125 C 8.652344 12.53125 8.859375 12.613281 9.148438 12.882812 C 9.867188 13.554688 9.609375 14.757812 8.679688 15.085938 C 8.480469 15.15625 8.054688 15.15625 7.832031 15.089844 Z M 7.832031 15.089844 "/>
<path style=" stroke:none;fill-rule:nonzero;fill:rgb(80.392157%,68.627451%,47.843137%);fill-opacity:1;" d="M 18.050781 4.867188 C 18.003906 4.867188 17.96875 4.875 17.929688 4.894531 C 17.796875 4.957031 17.699219 5.042969 17.378906 5.390625 C 16.066406 6.828125 15.132812 8.023438 14.308594 9.328125 C 13.769531 10.1875 13.308594 11.003906 12.53125 12.488281 C 12.386719 12.761719 12.261719 12.992188 12.253906 13.003906 C 12.242188 13.011719 12.195312 13.085938 12.152344 13.164062 C 11.847656 13.699219 11.574219 14.28125 11.347656 14.855469 C 11.238281 15.125 11.257812 15.101562 11.132812 15.128906 C 10.765625 15.210938 10.375 15.425781 10.125 15.691406 C 9.914062 15.910156 9.816406 16.097656 9.554688 16.765625 C 9.402344 17.164062 9.371094 17.238281 9.292969 17.375 C 9.085938 17.761719 8.773438 18.050781 8.210938 18.386719 C 8.152344 18.421875 8.101562 18.453125 8.097656 18.460938 C 8.09375 18.464844 8.109375 18.472656 8.132812 18.480469 C 8.144531 18.472656 8.15625 18.464844 8.171875 18.457031 C 8.679688 18.160156 9.035156 17.839844 9.234375 17.503906 C 9.308594 17.382812 9.402344 17.167969 9.535156 16.828125 C 9.78125 16.183594 9.875 16.003906 10.066406 15.785156 C 10.242188 15.582031 10.527344 15.382812 10.808594 15.269531 C 10.925781 15.222656 11.101562 15.167969 11.175781 15.160156 C 11.207031 15.15625 11.234375 15.148438 11.238281 15.140625 C 11.246094 15.136719 11.285156 15.042969 11.324219 14.9375 C 11.484375 14.527344 11.648438 14.160156 11.855469 13.753906 C 11.972656 13.515625 12.210938 13.074219 12.230469 13.050781 C 12.238281 13.042969 13.351562 13.71875 13.351562 13.730469 C 13.351562 13.746094 13.144531 14.039062 13.003906 14.230469 C 12.882812 14.394531 12.742188 14.574219 12.589844 14.757812 C 12.648438 14.6875 12.714844 14.609375 12.757812 14.558594 C 12.964844 14.300781 13.347656 13.769531 13.378906 13.703125 C 13.386719 13.683594 13.492188 13.527344 13.617188 13.355469 C 14.046875 12.757812 14.648438 11.910156 14.886719 11.566406 C 16.136719 9.761719 16.902344 8.386719 17.699219 6.511719 C 17.875 6.101562 18.109375 5.515625 18.148438 5.398438 C 18.230469 5.148438 18.230469 4.984375 18.152344 4.90625 C 18.117188 4.871094 18.109375 4.867188 18.050781 4.867188 Z M 12.265625 13.183594 C 12.257812 13.183594 12.222656 13.242188 12.183594 13.3125 C 12.132812 13.410156 12.117188 13.441406 12.125 13.453125 C 12.136719 13.476562 12.964844 14.089844 12.980469 14.089844 C 12.988281 14.089844 13 14.082031 13.011719 14.066406 C 13.054688 14.019531 13.222656 13.773438 13.21875 13.761719 C 13.21875 13.761719 13.203125 13.753906 13.203125 13.75 C 13.199219 13.765625 13.175781 13.800781 13.082031 13.929688 C 13.039062 13.992188 12.996094 14.042969 12.992188 14.042969 C 12.976562 14.042969 12.167969 13.449219 12.15625 13.429688 C 12.148438 13.421875 12.164062 13.386719 12.207031 13.3125 C 12.238281 13.253906 12.269531 13.199219 12.277344 13.191406 C 12.277344 13.191406 12.28125 13.191406 12.28125 13.191406 C 12.28125 13.191406 12.265625 13.183594 12.265625 13.183594 Z M 12.085938 13.519531 C 12.066406 13.523438 12.039062 13.578125 11.898438 13.863281 C 11.816406 14.027344 11.761719 14.148438 11.761719 14.164062 C 11.765625 14.1875 11.832031 14.21875 12.4375 14.5 L 12.613281 14.582031 L 12.636719 14.558594 C 12.648438 14.546875 12.71875 14.460938 12.792969 14.363281 C 12.949219 14.160156 12.953125 14.15625 12.929688 14.132812 C 12.925781 14.148438 12.851562 14.25 12.71875 14.417969 C 12.667969 14.480469 12.625 14.53125 12.621094 14.53125 C 12.605469 14.53125 11.804688 14.152344 11.792969 14.140625 C 11.785156 14.132812 11.828125 14.039062 11.9375 13.820312 C 12.046875 13.605469 12.085938 13.535156 12.101562 13.523438 C 12.101562 13.523438 12.097656 13.519531 12.097656 13.519531 C 12.09375 13.519531 12.089844 13.519531 12.085938 13.519531 Z M 11.734375 14.234375 C 11.710938 14.234375 11.542969 14.613281 11.550781 14.648438 C 11.550781 14.671875 12.15625 15.09375 12.183594 15.09375 C 12.191406 15.089844 12.28125 14.992188 12.382812 14.871094 C 12.484375 14.75 12.566406 14.644531 12.566406 14.636719 C 12.566406 14.632812 12.546875 14.625 12.542969 14.625 C 12.53125 14.644531 12.46875 14.726562 12.378906 14.832031 C 12.28125 14.945312 12.195312 15.042969 12.1875 15.042969 C 12.171875 15.039062 11.582031 14.632812 11.578125 14.617188 C 11.570312 14.605469 11.71875 14.265625 11.742188 14.238281 C 11.742188 14.238281 11.734375 14.234375 11.734375 14.234375 Z M 11.527344 14.730469 C 11.503906 14.730469 11.496094 14.746094 11.421875 14.925781 C 11.378906 15.03125 11.34375 15.132812 11.34375 15.152344 C 11.34375 15.191406 11.398438 15.289062 11.457031 15.347656 C 11.550781 15.445312 11.722656 15.5 11.84375 15.46875 C 11.859375 15.464844 11.925781 15.398438 11.996094 15.320312 C 12.136719 15.160156 12.140625 15.15625 12.128906 15.140625 C 12.128906 15.136719 12.117188 15.128906 12.113281 15.128906 C 12.105469 15.148438 12.070312 15.1875 12 15.269531 C 11.925781 15.347656 11.859375 15.417969 11.851562 15.421875 C 11.839844 15.425781 11.816406 15.429688 11.796875 15.425781 C 11.621094 15.421875 11.480469 15.335938 11.398438 15.1875 L 11.367188 15.125 L 11.425781 14.96875 C 11.488281 14.808594 11.511719 14.753906 11.527344 14.730469 Z M 12.492188 14.875 C 12.476562 14.894531 12.460938 14.914062 12.445312 14.933594 C 12.464844 14.910156 12.476562 14.898438 12.492188 14.875 Z M 11.976562 15.480469 C 11.957031 15.503906 11.949219 15.519531 11.949219 15.523438 C 11.953125 15.535156 11.964844 15.574219 11.980469 15.613281 C 12.027344 15.75 12.042969 15.84375 12.042969 16.042969 C 12.042969 16.273438 12.019531 16.394531 11.941406 16.609375 C 11.933594 16.640625 11.917969 16.671875 11.90625 16.703125 C 11.933594 16.640625 11.960938 16.574219 11.980469 16.515625 C 12.042969 16.324219 12.0625 16.203125 12.0625 16 C 12.0625 15.804688 12.046875 15.699219 11.992188 15.554688 C 11.980469 15.523438 11.976562 15.492188 11.976562 15.480469 Z M 11.976562 15.480469 "/>
<path style=" stroke:none;fill-rule:nonzero;fill:rgb(80%,80%,80%);fill-opacity:1;" d="M 8.746094 18.621094 C 8.554688 18.601562 8.351562 18.558594 8.160156 18.503906 C 8.121094 18.492188 8.089844 18.480469 8.089844 18.476562 C 8.089844 18.46875 8.132812 18.441406 8.183594 18.410156 C 8.691406 18.113281 9.050781 17.792969 9.25 17.460938 C 9.324219 17.335938 9.421875 17.121094 9.554688 16.78125 C 9.800781 16.136719 9.894531 15.957031 10.085938 15.734375 C 10.261719 15.53125 10.546875 15.335938 10.828125 15.21875 C 10.945312 15.171875 11.117188 15.121094 11.191406 15.109375 C 11.253906 15.101562 11.25 15.105469 11.359375 14.835938 C 11.546875 14.355469 11.785156 13.835938 12.019531 13.402344 C 12.1875 13.089844 12.253906 12.976562 12.269531 12.980469 C 12.277344 12.980469 13.1875 13.53125 13.367188 13.644531 C 13.414062 13.675781 13.421875 13.65625 13.277344 13.867188 C 12.972656 14.304688 12.570312 14.804688 12.15625 15.269531 C 12.070312 15.367188 11.992188 15.453125 11.988281 15.460938 C 11.984375 15.472656 11.988281 15.507812 12.003906 15.558594 C 12.054688 15.710938 12.070312 15.796875 12.066406 15.996094 C 12.066406 16.226562 12.046875 16.347656 11.96875 16.5625 C 11.90625 16.738281 11.8125 16.898438 11.59375 17.222656 C 11.445312 17.433594 11.128906 17.765625 10.898438 17.953125 C 10.566406 18.222656 10.1875 18.421875 9.816406 18.53125 C 9.488281 18.625 9.09375 18.660156 8.746094 18.621094 Z M 11.863281 15.40625 C 11.871094 15.40625 11.941406 15.335938 12.011719 15.253906 C 12.121094 15.132812 12.144531 15.101562 12.132812 15.089844 C 12.105469 15.066406 11.578125 14.703125 11.558594 14.699219 C 11.539062 14.691406 11.53125 14.710938 11.4375 14.949219 L 11.378906 15.109375 L 11.410156 15.171875 C 11.488281 15.320312 11.632812 15.40625 11.808594 15.414062 C 11.832031 15.414062 11.855469 15.410156 11.863281 15.40625 Z M 12.394531 14.8125 C 12.496094 14.695312 12.574219 14.59375 12.574219 14.589844 C 12.566406 14.574219 11.777344 14.203125 11.761719 14.207031 C 11.746094 14.214844 11.582031 14.582031 11.589844 14.597656 C 11.59375 14.613281 12.1875 15.023438 12.203125 15.023438 C 12.210938 15.023438 12.296875 14.929688 12.394531 14.8125 Z M 12.738281 14.394531 C 12.878906 14.21875 12.953125 14.113281 12.953125 14.101562 C 12.953125 14.089844 12.148438 13.492188 12.125 13.488281 C 12.109375 13.484375 12.074219 13.546875 11.953125 13.792969 C 11.839844 14.015625 11.800781 14.109375 11.808594 14.117188 C 11.816406 14.125 12.625 14.507812 12.640625 14.511719 C 12.644531 14.511719 12.6875 14.460938 12.738281 14.394531 Z M 13.105469 13.902344 C 13.246094 13.707031 13.234375 13.722656 13.21875 13.707031 C 13.210938 13.699219 13.003906 13.570312 12.757812 13.417969 C 12.386719 13.191406 12.304688 13.148438 12.292969 13.160156 C 12.285156 13.164062 12.253906 13.21875 12.222656 13.277344 C 12.179688 13.355469 12.164062 13.386719 12.171875 13.398438 C 12.183594 13.417969 12.996094 14.019531 13.011719 14.019531 C 13.019531 14.019531 13.058594 13.964844 13.105469 13.902344 Z M 13.105469 13.902344 "/>
<path style=" stroke:none;fill-rule:nonzero;fill:rgb(99.215686%,8.235294%,8.235294%);fill-opacity:1;" d="M 8.773438 18.628906 C 8.652344 18.617188 8.5 18.59375 8.382812 18.570312 C 8.265625 18.542969 8.070312 18.488281 8.070312 18.480469 C 8.070312 18.476562 8.121094 18.433594 8.175781 18.398438 C 8.664062 18.105469 9.023438 17.820312 9.222656 17.496094 C 9.296875 17.375 9.378906 17.199219 9.457031 17.003906 C 9.71875 16.339844 9.804688 16.136719 9.824219 16.136719 C 9.835938 16.136719 9.851562 16.195312 9.917969 16.414062 C 9.972656 16.609375 10.042969 16.746094 10.117188 16.804688 C 10.175781 16.855469 10.253906 16.882812 10.332031 16.882812 C 10.433594 16.882812 10.519531 16.859375 10.734375 16.773438 C 10.953125 16.6875 11.019531 16.667969 11.121094 16.667969 C 11.222656 16.667969 11.28125 16.695312 11.367188 16.789062 C 11.464844 16.894531 11.542969 17.054688 11.566406 17.199219 C 11.570312 17.238281 11.570312 17.25 11.550781 17.28125 C 11.488281 17.386719 11.320312 17.566406 11.183594 17.707031 C 10.664062 18.230469 10.085938 18.515625 9.441406 18.613281 C 9.289062 18.636719 8.921875 18.644531 8.773438 18.628906 Z M 8.773438 18.628906 "/>
<path style="fill-rule:nonzero;fill:rgb(60%,60%,60%);fill-opacity:1;stroke-width:0.488254;stroke-linecap:butt;stroke-linejoin:miter;stroke:rgb(60%,60%,60%);stroke-opacity:1;stroke-miterlimit:4;" d="M 67.954545 89.727273 C 67.568182 89.613636 67.113636 89.340909 66.840909 89.068182 C 66.590909 88.818182 66.181818 88.204545 66.181818 88.068182 C 66.181818 87.931818 67.068182 85.772727 67.136364 85.75 C 67.25 85.704545 70.409091 87.840909 70.477273 88 C 70.5 88.090909 70.25 88.409091 69.477273 89.272727 L 68.977273 89.795455 L 68.613636 89.795455 C 68.386364 89.795455 68.113636 89.75 67.954545 89.727273 Z M 67.954545 89.727273 " transform="matrix(0.171875,0,0,0.171875,0,0)"/>
<path style="fill-rule:nonzero;fill:rgb(60%,60%,60%);fill-opacity:1;stroke-width:0.0517218;stroke-linecap:butt;stroke-linejoin:miter;stroke:rgb(60%,60%,60%);stroke-opacity:1;stroke-miterlimit:4;" d="M 69.909091 86.659091 C 68.545455 85.727273 67.590909 85.045455 67.5 84.954545 C 67.454545 84.886364 67.522727 84.681818 67.772727 84.113636 C 67.954545 83.704545 68.159091 83.204545 68.25 83.022727 C 68.409091 82.704545 68.431818 82.681818 68.568182 82.727273 C 68.886364 82.863636 70.704545 83.704545 71.886364 84.272727 L 73.136364 84.886364 L 72.818182 85.295455 C 72.340909 85.886364 71.340909 87.045455 71.136364 87.227273 L 70.977273 87.386364 Z M 69.909091 86.659091 " transform="matrix(0.171875,0,0,0.171875,0,0)"/>
<path style="fill-rule:nonzero;fill:rgb(60%,60%,60%);fill-opacity:1;stroke-width:0.0517218;stroke-linecap:butt;stroke-linejoin:miter;stroke:rgb(60%,60%,60%);stroke-opacity:1;stroke-miterlimit:4;" d="M 72.181818 83.772727 C 69.931818 82.704545 68.704545 82.113636 68.704545 82.068182 C 68.704545 82 69.590909 80.181818 69.954545 79.5 C 70.159091 79.113636 70.386364 78.727273 70.431818 78.636364 C 70.522727 78.431818 70.363636 78.340909 72.068182 79.590909 C 73.954545 80.977273 75.318182 82 75.318182 82.068182 C 75.318182 82.113636 74 83.863636 73.727273 84.181818 L 73.522727 84.409091 Z M 72.181818 83.772727 " transform="matrix(0.171875,0,0,0.171875,0,0)"/>
<path style="fill-rule:nonzero;fill:rgb(60%,60%,60%);fill-opacity:1;stroke-width:0.105788;stroke-linecap:butt;stroke-linejoin:miter;stroke:rgb(60%,60%,60%);stroke-opacity:1;stroke-miterlimit:4;" d="M 74.295455 80.522727 C 72.318182 79.090909 70.840909 77.977273 70.840909 77.909091 C 70.840909 77.75 71.522727 76.590909 71.613636 76.590909 C 71.75 76.590909 76.931818 79.727273 76.931818 79.818182 C 76.931818 79.863636 75.931818 81.272727 75.795455 81.431818 C 75.681818 81.522727 75.636364 81.5 74.295455 80.522727 Z M 74.295455 80.522727 " transform="matrix(0.171875,0,0,0.171875,0,0)"/>
</g>
</svg>
