<!-- Generator: Adobe Illustrator 16.0.0, SVG Export Plug-In . SVG Version: 6.00 Build 0)  -->
<svg xmlns="http://www.w3.org/2000/svg" xmlns:xlink="http://www.w3.org/1999/xlink" width="22px" height="22px" viewBox="0 0 22 22" version="1.1">
<g id="surface1">
<path style="fill-rule:nonzero;fill:rgb(0%,41.568627%,72.54902%);fill-opacity:1;stroke-width:28.191782;stroke-linecap:butt;stroke-linejoin:miter;stroke:rgb(38.039216%,64.705882%,84.313725%);stroke-opacity:1;stroke-miterlimit:4;" d="M 81.454545 25.090909 L 430.545455 25.090909 C 461.636364 25.090909 486.909091 50.363636 486.909091 81.454545 L 486.909091 430.545455 C 486.909091 461.636364 461.636364 486.909091 430.545455 486.909091 L 81.454545 486.909091 C 50.363636 486.909091 25.090909 461.636364 25.090909 430.545455 L 25.090909 81.454545 C 25.090909 50.363636 50.363636 25.090909 81.454545 25.090909 Z M 81.454545 25.090909 " transform="matrix(0.0429688,0,0,0.0429688,0,0)"/>
<path style=" stroke:none;fill-rule:evenodd;fill:rgb(100%,100%,100%);fill-opacity:1;" d="M 14.136719 5.875 C 13.703125 6.285156 12.703125 7.144531 12.703125 7.144531 L 15.046875 9.507812 C 15.046875 9.507812 16.0625 8.464844 16.519531 8.03125 C 16.636719 7.921875 16.621094 7.683594 16.507812 7.574219 C 16.152344 7.238281 15.5625 6.695312 15.5625 6.695312 C 15.5625 6.695312 15.003906 6.164062 14.664062 5.84375 C 14.539062 5.726562 14.261719 5.757812 14.136719 5.875 Z M 11.671875 7.988281 L 5.398438 13.894531 L 5.453125 16.230469 L 7.902344 16.21875 L 14.105469 10.363281 Z M 11.671875 7.988281 "/>
<path style=" stroke:none;fill-rule:nonzero;fill:rgb(100%,100%,100%);fill-opacity:1;" d="M 12.195312 15.507812 L 11.828125 15.507812 L 11.828125 17.609375 L 12.351562 17.609375 L 12.351562 16.015625 C 12.582031 15.917969 12.757812 15.898438 12.855469 15.898438 C 13.191406 15.898438 13.234375 16.167969 13.234375 16.324219 L 13.234375 17.609375 L 13.757812 17.609375 L 13.757812 16.414062 C 13.757812 16.050781 13.722656 15.46875 12.992188 15.46875 C 12.707031 15.46875 12.429688 15.582031 12.265625 15.652344 Z M 12.195312 15.507812 "/>
<path style=" stroke:none;fill-rule:nonzero;fill:rgb(100%,100%,100%);fill-opacity:1;" d="M 15.777344 15.640625 C 15.632812 15.5625 15.402344 15.464844 15.148438 15.464844 C 14.746094 15.464844 14.148438 15.710938 14.148438 16.558594 C 14.148438 17.234375 14.535156 17.652344 15.21875 17.652344 C 15.402344 17.652344 15.535156 17.621094 15.679688 17.546875 L 15.679688 18.738281 L 16.203125 18.738281 L 16.203125 15.507812 L 15.835938 15.507812 Z M 15.292969 15.886719 C 15.40625 15.886719 15.535156 15.90625 15.671875 15.957031 L 15.671875 17.148438 C 15.578125 17.203125 15.460938 17.253906 15.3125 17.253906 C 14.960938 17.253906 14.683594 17.082031 14.683594 16.589844 C 14.683594 16.046875 14.945312 15.886719 15.292969 15.886719 Z M 15.292969 15.886719 "/>
<path style=" stroke:none;fill-rule:nonzero;fill:rgb(100%,100%,100%);fill-opacity:1;" d="M 18.246094 15.640625 C 18.105469 15.5625 17.871094 15.464844 17.621094 15.464844 C 17.214844 15.464844 16.617188 15.710938 16.617188 16.558594 C 16.617188 17.234375 17.003906 17.652344 17.691406 17.652344 C 17.871094 17.652344 18.003906 17.621094 18.148438 17.546875 L 18.148438 18.738281 L 18.671875 18.738281 L 18.671875 15.507812 L 18.304688 15.507812 Z M 17.765625 15.886719 C 17.878906 15.886719 18.003906 15.90625 18.144531 15.957031 L 18.144531 17.148438 C 18.046875 17.203125 17.929688 17.253906 17.78125 17.253906 C 17.433594 17.253906 17.152344 17.082031 17.152344 16.589844 C 17.152344 16.046875 17.414062 15.886719 17.765625 15.886719 Z M 17.765625 15.886719 "/>
</g>
</svg>
