
<svg xmlns="http://www.w3.org/2000/svg" xmlns:xlink="http://www.w3.org/1999/xlink" width="22px" height="22px" viewBox="0 0 22 22" version="1.1">
<g id="surface1">
<path style="fill-rule:nonzero;fill:rgb(100%,100%,100%);fill-opacity:1;stroke-width:6.94235;stroke-linecap:butt;stroke-linejoin:miter;stroke:rgb(18.039216%,80%,44.313725%);stroke-opacity:1;stroke-miterlimit:4;" d="M 21.022727 931.498564 L 106.977273 931.498564 C 114.636364 931.498564 120.863636 937.725836 120.863636 945.384927 L 120.863636 1031.339473 C 120.863636 1038.998564 114.636364 1045.225836 106.977273 1045.225836 L 21.022727 1045.225836 C 13.363636 1045.225836 7.136364 1038.998564 7.136364 1031.339473 L 7.136364 945.384927 C 7.136364 937.725836 13.363636 931.498564 21.022727 931.498564 Z M 21.022727 931.498564 " transform="matrix(0.171875,0,0,0.171875,0,-158.874753)"/>
<path style=" stroke:none;fill-rule:nonzero;fill:rgb(18.039216%,80%,44.313725%);fill-opacity:1;" d="M 9.984375 2.953125 C 6.765625 2.953125 4.175781 5.535156 4.152344 8.746094 L 4.148438 8.746094 L 4.148438 17.4375 C 4.148438 18.328125 4.867188 19.046875 5.757812 19.046875 C 6.652344 19.046875 7.371094 18.328125 7.371094 17.4375 C 7.371094 18.328125 8.085938 19.046875 8.980469 19.046875 L 9.382812 19.046875 C 10.273438 19.046875 10.992188 18.328125 10.992188 17.4375 C 10.992188 18.328125 11.707031 19.046875 12.601562 19.046875 L 13.003906 19.046875 C 13.894531 19.046875 14.613281 18.328125 14.613281 17.4375 C 14.613281 18.328125 15.332031 19.046875 16.222656 19.046875 C 17.113281 19.046875 17.832031 18.328125 17.832031 17.4375 L 17.832031 8.746094 L 17.828125 8.746094 C 17.808594 5.535156 15.214844 2.953125 11.996094 2.953125 Z M 9.984375 2.953125 "/>
<path style=" stroke:none;fill-rule:nonzero;fill:rgb(92.54902%,94.117647%,94.509804%);fill-opacity:1;" d="M 8.828125 6.976562 C 9.828125 6.976562 10.636719 7.785156 10.636719 8.785156 C 10.636719 9.785156 9.828125 10.597656 8.828125 10.597656 C 7.828125 10.597656 7.015625 9.785156 7.015625 8.785156 C 7.015625 7.785156 7.828125 6.976562 8.828125 6.976562 Z M 8.828125 6.976562 "/>
<path style=" stroke:none;fill-rule:nonzero;fill:rgb(92.54902%,94.117647%,94.509804%);fill-opacity:1;" d="M 15.265625 6.976562 C 16.265625 6.976562 17.074219 7.785156 17.074219 8.785156 C 17.074219 9.785156 16.265625 10.597656 15.265625 10.597656 C 14.265625 10.597656 13.453125 9.785156 13.453125 8.785156 C 13.453125 7.785156 14.265625 6.976562 15.265625 6.976562 Z M 15.265625 6.976562 "/>
<path style=" stroke:none;fill-rule:nonzero;fill:rgb(20.392157%,28.627451%,36.862745%);fill-opacity:1;" d="M 10.132812 8.285156 C 10.414062 8.285156 10.636719 8.507812 10.636719 8.785156 C 10.636719 9.066406 10.414062 9.289062 10.132812 9.289062 C 9.855469 9.289062 9.632812 9.066406 9.632812 8.785156 C 9.632812 8.507812 9.855469 8.285156 10.132812 8.285156 Z M 10.132812 8.285156 "/>
<path style=" stroke:none;fill-rule:nonzero;fill:rgb(20.392157%,28.627451%,36.862745%);fill-opacity:1;" d="M 16.574219 8.285156 C 16.851562 8.285156 17.074219 8.507812 17.074219 8.785156 C 17.074219 9.066406 16.851562 9.289062 16.574219 9.289062 C 16.292969 9.289062 16.070312 9.066406 16.070312 8.785156 C 16.070312 8.507812 16.292969 8.285156 16.574219 8.285156 Z M 16.574219 8.285156 "/>
</g>
</svg>
