
<svg xmlns="http://www.w3.org/2000/svg" xmlns:xlink="http://www.w3.org/1999/xlink" width="22px" height="22px" viewBox="0 0 22 22" version="1.1">
<g id="surface1">
<path style="fill-rule:nonzero;fill:rgb(5.490196%,52.156863%,80.392157%);fill-opacity:1;stroke-width:28.191782;stroke-linecap:butt;stroke-linejoin:miter;stroke:rgb(2.745098%,20.392157%,31.372549%);stroke-opacity:1;stroke-miterlimit:4;" d="M 81.454545 25.090909 L 430.545455 25.090909 C 461.636364 25.090909 486.909091 50.363636 486.909091 81.454545 L 486.909091 430.545455 C 486.909091 461.636364 461.636364 486.909091 430.545455 486.909091 L 81.454545 486.909091 C 50.363636 486.909091 25.090909 461.636364 25.090909 430.545455 L 25.090909 81.454545 C 25.090909 50.363636 50.363636 25.090909 81.454545 25.090909 Z M 81.454545 25.090909 " transform="matrix(0.0429688,0,0,0.0429688,0,0)"/>
<path style=" stroke:none;fill-rule:nonzero;fill:rgb(2.745098%,20.392157%,31.372549%);fill-opacity:1;" d="M 1.535156 1.503906 L 6.433594 1.503906 L 6.433594 20.609375 L 1.535156 20.609375 Z M 1.535156 1.503906 "/>
<path style=" stroke:none;fill-rule:evenodd;fill:rgb(100%,100%,100%);fill-opacity:1;" d="M 9.53125 6.644531 C 10.875 5.90625 13.589844 5.761719 14.480469 6.929688 C 14.800781 5.542969 16.5 4.46875 18.753906 4.335938 C 17.679688 4.082031 15.894531 3.375 13.96875 5.5 C 10.949219 4.566406 9.800781 6.28125 9.53125 6.644531 Z M 9.53125 6.644531 "/>
<path style=" stroke:none;fill-rule:evenodd;fill:rgb(100%,100%,100%);fill-opacity:1;" d="M 4.292969 14 C 6.488281 12.628906 11.050781 12.121094 12.667969 14 C 13.074219 11.632812 15.832031 9.65625 19.617188 9.214844 C 17.785156 8.886719 14.707031 7.871094 11.667969 11.640625 C 6.480469 10.359375 4.714844 13.363281 4.292969 14 Z M 4.292969 14 "/>
</g>
</svg>
