
<svg xmlns="http://www.w3.org/2000/svg" xmlns:xlink="http://www.w3.org/1999/xlink" width="22px" height="22px" viewBox="0 0 22 22" version="1.1">
<g id="surface1">
<path style="fill-rule:nonzero;fill:rgb(100%,77.647059%,45.882353%);fill-opacity:0.639216;stroke-width:6.815335;stroke-linecap:butt;stroke-linejoin:miter;stroke:rgb(95.686275%,55.686275%,31.764706%);stroke-opacity:1;stroke-miterlimit:4;" d="M 21.818182 8.181818 L 106.181818 8.181818 C 113.727273 8.181818 119.818182 14.272727 119.818182 21.818182 L 119.818182 106.181818 C 119.818182 113.727273 113.727273 119.818182 106.181818 119.818182 L 21.818182 119.818182 C 14.272727 119.818182 8.181818 113.727273 8.181818 106.181818 L 8.181818 21.818182 C 8.181818 14.272727 14.272727 8.181818 21.818182 8.181818 Z M 21.818182 8.181818 " transform="matrix(0.171875,0,0,0.171875,0,0)"/>
<path style=" stroke:none;fill-rule:nonzero;fill:rgb(95.686275%,55.686275%,31.764706%);fill-opacity:1;" d="M 10.734375 3.300781 C 9.09375 5.542969 3.515625 11.859375 5.890625 15.507812 C 7.730469 18.335938 13.976562 18.347656 15.792969 15.507812 C 18.15625 11.816406 12.132812 5.539062 10.734375 3.300781 M 10.734375 3.300781 "/>
<path style=" stroke:none;fill-rule:nonzero;fill:rgb(100%,77.647059%,45.882353%);fill-opacity:1;" d="M 10.171875 7.9375 C 6.953125 8.144531 5.855469 12.820312 7.085938 14.953125 C 8.449219 17.042969 12.375 17.476562 14.804688 16.257812 C 14.378906 15.804688 13.785156 15.339844 13.015625 15.140625 C 11.277344 14.691406 8.679688 12.003906 9.984375 10.210938 C 11.285156 8.421875 13.445312 10.210938 13.445312 10.210938 C 13.445312 10.210938 13.015625 8.421875 10.84375 7.96875 C 10.710938 7.945312 10.554688 7.941406 10.414062 7.9375 C 10.324219 7.929688 10.261719 7.929688 10.175781 7.9375 M 10.171875 7.9375 "/>
</g>
</svg>
