
<svg xmlns="http://www.w3.org/2000/svg" xmlns:xlink="http://www.w3.org/1999/xlink" width="22px" height="22px" viewBox="0 0 22 22" version="1.1">
<g id="surface1">
<path style="fill-rule:nonzero;fill:rgb(100%,100%,100%);fill-opacity:1;stroke-width:2.627763;stroke-linecap:butt;stroke-linejoin:miter;stroke:rgb(16.862745%,65.882353%,92.156863%);stroke-opacity:1;stroke-miterlimit:4;" d="M 7.730113 1006.842282 L 40.269885 1006.842282 C 43.167612 1006.842282 45.519885 1009.194555 45.519885 1012.092282 L 45.519885 1044.632054 C 45.519885 1047.529781 43.167612 1049.882054 40.269885 1049.882054 L 7.730113 1049.882054 C 4.832386 1049.882054 2.480114 1047.529781 2.480114 1044.632054 L 2.480114 1012.092282 C 2.480114 1009.194555 4.832386 1006.842282 7.730113 1006.842282 Z M 7.730113 1006.842282 " transform="matrix(0.458333,0,0,0.458333,0,-460.332675)"/>
<path style=" stroke:none;fill-rule:nonzero;fill:rgb(0%,66.666667%,83.137255%);fill-opacity:1;" d="M 3.351562 8.648438 L 6.925781 8.648438 L 6.925781 5.074219 L 3.351562 5.074219 Z M 3.351562 8.648438 "/>
<path style=" stroke:none;fill-rule:nonzero;fill:rgb(100%,33.333333%,33.333333%);fill-opacity:1;" d="M 11.863281 15.382812 L 15.433594 15.382812 L 15.433594 18.957031 L 11.863281 18.957031 Z M 11.863281 15.382812 "/>
<path style=" stroke:none;fill-rule:nonzero;fill:rgb(0%,66.666667%,83.137255%);fill-opacity:1;" d="M 7.113281 8.648438 L 10.6875 8.648438 L 10.6875 5.074219 L 7.113281 5.074219 Z M 7.113281 8.648438 "/>
<path style=" stroke:none;fill-rule:nonzero;fill:rgb(0%,66.666667%,83.137255%);fill-opacity:1;" d="M 10.875 8.648438 L 14.449219 8.648438 L 14.449219 5.074219 L 10.875 5.074219 Z M 10.875 8.648438 "/>
<path style=" stroke:none;fill-rule:nonzero;fill:rgb(0%,66.666667%,83.137255%);fill-opacity:1;" d="M 14.636719 8.648438 L 18.207031 8.648438 L 18.207031 5.074219 L 14.636719 5.074219 Z M 14.636719 8.648438 "/>
<path style=" stroke:none;fill-rule:nonzero;fill:rgb(0%,66.666667%,83.137255%);fill-opacity:1;" d="M 14.636719 12.339844 L 18.207031 12.339844 L 18.207031 8.765625 L 14.636719 8.765625 Z M 14.636719 12.339844 "/>
<path style=" stroke:none;fill-rule:nonzero;fill:rgb(100%,33.333333%,33.333333%);fill-opacity:1;" d="M 8.105469 15.382812 L 11.679688 15.382812 L 11.679688 18.957031 L 8.105469 18.957031 Z M 8.105469 15.382812 "/>
<path style=" stroke:none;fill-rule:nonzero;fill:rgb(100%,33.333333%,33.333333%);fill-opacity:1;" d="M 4.28125 15.382812 L 7.855469 15.382812 L 7.855469 18.957031 L 4.28125 18.957031 Z M 4.28125 15.382812 "/>
<path style=" stroke:none;fill-rule:nonzero;fill:rgb(100%,33.333333%,33.333333%);fill-opacity:1;" d="M 8.105469 11.625 L 11.679688 11.625 L 11.679688 15.199219 L 8.105469 15.199219 Z M 8.105469 11.625 "/>
</g>
</svg>
