
<svg xmlns="http://www.w3.org/2000/svg" xmlns:xlink="http://www.w3.org/1999/xlink" width="22px" height="22px" viewBox="0 0 22 22" version="1.1">
<g id="surface1">
<path style="fill-rule:nonzero;fill:rgb(16.078431%,50.196078%,72.54902%);fill-opacity:1;stroke-width:0.738769;stroke-linecap:butt;stroke-linejoin:miter;stroke:rgb(19.215686%,21.176471%,27.843137%);stroke-opacity:1;stroke-miterlimit:4;" d="M -35.918301 398.56653 L -26.773338 398.56653 C -25.955535 398.56653 -25.294077 399.227988 -25.294077 400.045791 L -25.294077 409.190754 C -25.294077 410.008557 -25.955535 410.670016 -26.773338 410.670016 L -35.918301 410.670016 C -36.736104 410.670016 -37.397563 410.008557 -37.397563 409.190754 L -37.397563 400.045791 C -37.397563 399.227988 -36.736104 398.56653 -35.918301 398.56653 Z M -35.918301 398.56653 " transform="matrix(1.624016,0,0,1.624016,61.9061,-646.106384)"/>
<path style=" stroke:none;fill-rule:nonzero;fill:rgb(92.54902%,94.117647%,94.509804%);fill-opacity:1;" d="M 12.964844 16.328125 L 10.734375 11.953125 C 10.597656 11.96875 10.453125 11.984375 10.308594 11.992188 C 10.167969 12.003906 10.019531 12.007812 9.867188 12.007812 C 9.695312 12.007812 9.515625 12 9.332031 11.988281 C 9.152344 11.972656 8.964844 11.953125 8.773438 11.929688 L 8.773438 15.527344 L 10.371094 16.035156 L 10.371094 16.328125 L 6.164062 16.328125 L 6.164062 16.035156 L 7.46875 15.527344 L 7.46875 6.683594 L 6.164062 6.175781 L 6.164062 5.882812 L 10.152344 5.882812 C 10.765625 5.882812 11.3125 5.953125 11.789062 6.097656 C 12.265625 6.234375 12.664062 6.429688 12.992188 6.683594 C 13.320312 6.9375 13.570312 7.246094 13.742188 7.605469 C 13.910156 7.957031 13.996094 8.351562 13.996094 8.785156 C 13.996094 9.421875 13.832031 9.992188 13.5 10.484375 C 13.175781 10.976562 12.691406 11.351562 12.050781 11.613281 L 14.109375 15.632812 L 15.152344 16.035156 L 15.152344 16.328125 L 12.964844 16.328125 M 10.359375 6.625 L 8.773438 6.625 L 8.773438 11.179688 C 8.964844 11.203125 9.148438 11.222656 9.316406 11.234375 C 9.492188 11.246094 9.660156 11.25 9.828125 11.25 C 11.648438 11.25 12.558594 10.46875 12.558594 8.898438 C 12.558594 8.140625 12.371094 7.570312 11.992188 7.195312 C 11.617188 6.816406 11.070312 6.625 10.359375 6.625 "/>
</g>
</svg>
