
<svg xmlns="http://www.w3.org/2000/svg" xmlns:xlink="http://www.w3.org/1999/xlink" width="22px" height="22px" viewBox="0 0 22 22" version="1.1">
<g id="surface1">
<path style="fill-rule:nonzero;fill:rgb(100%,100%,100%);fill-opacity:1;stroke-width:27.460871;stroke-linecap:butt;stroke-linejoin:miter;stroke:rgb(29.019608%,80.392157%,20.784314%);stroke-opacity:1;stroke-miterlimit:4;" d="M 86 31.090909 L 426 31.090909 C 456.363636 31.090909 480.909091 55.636364 480.909091 86 L 480.909091 426 C 480.909091 456.363636 456.363636 480.909091 426 480.909091 L 86 480.909091 C 55.636364 480.909091 31.090909 456.363636 31.090909 426 L 31.090909 86 C 31.090909 55.636364 55.636364 31.090909 86 31.090909 Z M 86 31.090909 " transform="matrix(0.0429688,0,0,0.0429688,0,0)"/>
<path style=" stroke:none;fill-rule:nonzero;fill:rgb(29.019608%,80.392157%,20.784314%);fill-opacity:1;" d="M 9.789062 18.371094 C 9.609375 18.21875 9.601562 18.175781 9.601562 17.167969 L 9.601562 16.246094 L 9.367188 16.179688 C 8.886719 16.039062 8.722656 15.976562 8.308594 15.773438 C 8.078125 15.65625 7.878906 15.5625 7.863281 15.5625 C 7.851562 15.5625 7.539062 15.863281 7.171875 16.226562 C 6.472656 16.925781 6.484375 16.914062 6.21875 16.894531 C 6.058594 16.882812 5.953125 16.796875 5.355469 16.191406 C 4.507812 15.328125 4.503906 15.375 5.425781 14.445312 C 5.78125 14.089844 6.070312 13.789062 6.070312 13.777344 C 6.070312 13.765625 6.019531 13.664062 5.957031 13.554688 C 5.78125 13.257812 5.5625 12.742188 5.46875 12.410156 C 5.421875 12.25 5.367188 12.097656 5.351562 12.074219 C 5.328125 12.042969 5.101562 12.035156 4.429688 12.035156 C 3.445312 12.035156 3.386719 12.023438 3.246094 11.828125 C 3.175781 11.730469 3.175781 11.707031 3.175781 10.789062 C 3.175781 9.730469 3.175781 9.730469 3.421875 9.605469 C 3.535156 9.546875 3.617188 9.542969 4.433594 9.542969 C 5.101562 9.542969 5.328125 9.53125 5.351562 9.5 C 5.371094 9.480469 5.417969 9.34375 5.453125 9.203125 C 5.539062 8.894531 5.773438 8.339844 5.945312 8.042969 C 6.015625 7.917969 6.070312 7.8125 6.070312 7.800781 C 6.070312 7.789062 5.78125 7.484375 5.425781 7.128906 C 4.664062 6.363281 4.636719 6.308594 4.820312 5.960938 C 4.886719 5.832031 5.933594 4.800781 6.0625 4.738281 C 6.121094 4.707031 6.242188 4.683594 6.335938 4.683594 L 6.503906 4.683594 L 7.171875 5.347656 C 7.539062 5.714844 7.851562 6.011719 7.867188 6.011719 C 7.878906 6.011719 8.097656 5.910156 8.351562 5.785156 C 8.644531 5.644531 8.949219 5.519531 9.195312 5.449219 L 9.585938 5.339844 L 9.601562 4.390625 C 9.613281 3.578125 9.625 3.425781 9.671875 3.339844 C 9.785156 3.132812 9.789062 3.132812 10.855469 3.132812 C 11.917969 3.132812 11.898438 3.128906 12.027344 3.335938 C 12.089844 3.441406 12.09375 3.492188 12.09375 4.367188 C 12.09375 5.054688 12.105469 5.300781 12.132812 5.335938 C 12.15625 5.363281 12.292969 5.421875 12.433594 5.464844 C 12.785156 5.566406 13.082031 5.691406 13.449219 5.882812 C 13.617188 5.972656 13.769531 6.046875 13.789062 6.046875 C 13.808594 6.046875 14.128906 5.742188 14.496094 5.375 L 15.167969 4.707031 L 15.359375 4.691406 C 15.515625 4.679688 15.574219 4.691406 15.660156 4.746094 C 15.722656 4.78125 16.027344 5.070312 16.339844 5.386719 C 17.199219 6.253906 17.203125 6.199219 16.253906 7.144531 C 15.859375 7.539062 15.589844 7.832031 15.589844 7.871094 C 15.589844 7.902344 15.636719 8.007812 15.6875 8.101562 C 15.84375 8.375 16.058594 8.886719 16.140625 9.1875 C 16.183594 9.335938 16.230469 9.480469 16.246094 9.5 C 16.269531 9.53125 16.507812 9.542969 17.242188 9.542969 C 18.1875 9.542969 18.207031 9.542969 18.3125 9.613281 C 18.375 9.65625 18.453125 9.746094 18.488281 9.816406 C 18.546875 9.9375 18.554688 10.011719 18.554688 10.789062 C 18.554688 11.566406 18.546875 11.640625 18.488281 11.757812 C 18.453125 11.832031 18.375 11.921875 18.3125 11.960938 C 18.207031 12.035156 18.1875 12.035156 17.257812 12.035156 C 16.554688 12.035156 16.304688 12.046875 16.265625 12.074219 C 16.238281 12.097656 16.183594 12.234375 16.144531 12.378906 C 16.070312 12.660156 15.847656 13.199219 15.6875 13.484375 C 15.632812 13.578125 15.589844 13.679688 15.589844 13.710938 C 15.589844 13.738281 15.894531 14.070312 16.265625 14.445312 C 17.210938 15.394531 17.210938 15.332031 16.265625 16.265625 C 15.625 16.898438 15.5625 16.9375 15.300781 16.890625 C 15.175781 16.867188 15.097656 16.800781 14.492188 16.199219 C 14.125 15.832031 13.8125 15.53125 13.800781 15.53125 C 13.785156 15.53125 13.550781 15.640625 13.28125 15.773438 C 13.011719 15.90625 12.652344 16.054688 12.484375 16.101562 C 12.3125 16.148438 12.15625 16.210938 12.132812 16.238281 C 12.105469 16.277344 12.09375 16.519531 12.09375 17.210938 C 12.09375 18.085938 12.089844 18.136719 12.027344 18.238281 C 11.898438 18.449219 11.917969 18.445312 10.847656 18.445312 C 9.886719 18.445312 9.875 18.445312 9.789062 18.371094 Z M 11.46875 14.445312 C 11.726562 14.398438 12.085938 14.277344 12.417969 14.132812 C 13.066406 13.84375 13.851562 13.066406 14.140625 12.425781 C 14.453125 11.726562 14.507812 11.480469 14.503906 10.738281 C 14.5 10.238281 14.492188 10.136719 14.417969 9.859375 C 14.238281 9.195312 13.835938 8.523438 13.34375 8.0625 C 12.867188 7.617188 12.21875 7.273438 11.609375 7.140625 C 11.132812 7.039062 10.464844 7.039062 9.988281 7.140625 C 9.128906 7.328125 8.25 7.917969 7.730469 8.660156 C 7.511719 8.976562 7.257812 9.550781 7.167969 9.929688 C 7.0625 10.375 7.0625 11.207031 7.167969 11.636719 C 7.257812 12.003906 7.488281 12.527344 7.6875 12.828125 C 8.015625 13.324219 8.6875 13.914062 9.171875 14.128906 C 9.488281 14.269531 9.871094 14.398438 10.105469 14.445312 C 10.414062 14.507812 11.152344 14.507812 11.46875 14.445312 Z M 11.46875 14.445312 "/>
</g>
</svg>
