<!-- color: #20bef9 -->
<svg xmlns="http://www.w3.org/2000/svg" xmlns:xlink="http://www.w3.org/1999/xlink" width="22px" height="22px" viewBox="0 0 22 22" version="1.1">
<defs>
<clipPath id="clip1">
  <path d="M 2.707031 2.707031 L 19.292969 2.707031 L 19.292969 19.292969 L 2.707031 19.292969 Z M 2.707031 2.707031 "/>
</clipPath>
<clipPath id="clip2">
  <path d="M 25.644531 11 C 25.644531 19.09375 19.082031 25.648438 10.996094 25.648438 C 2.914062 25.648438 -3.648438 19.09375 -3.648438 11 C -3.648438 2.910156 2.914062 -3.644531 10.996094 -3.644531 C 19.082031 -3.644531 25.644531 2.910156 25.644531 11 Z M 25.644531 11 "/>
</clipPath>
</defs>
<g id="surface1">
<path style="fill-rule:nonzero;fill:rgb(100%,100%,100%);fill-opacity:1;stroke-width:27.278761;stroke-linecap:butt;stroke-linejoin:miter;stroke:rgb(21.176471%,48.235294%,94.117647%);stroke-opacity:1;stroke-miterlimit:4;" d="M 87.090909 32.545455 L 424.909091 32.545455 C 455 32.545455 479.454545 57 479.454545 87.090909 L 479.454545 424.909091 C 479.454545 455 455 479.454545 424.909091 479.454545 L 87.090909 479.454545 C 57 479.454545 32.545455 455 32.545455 424.909091 L 32.545455 87.090909 C 32.545455 57 57 32.545455 87.090909 32.545455 Z M 87.090909 32.545455 " transform="matrix(0.0429688,0,0,0.0429688,0,0)"/>
<path style=" stroke:none;fill-rule:nonzero;fill:rgb(100%,100%,100%);fill-opacity:1;" d="M 17.472656 10.765625 C 17.472656 7.09375 14.582031 4.121094 11.015625 4.121094 C 7.449219 4.121094 4.558594 7.09375 4.558594 10.765625 C 4.558594 14.433594 7.449219 17.410156 11.015625 17.410156 C 14.582031 17.410156 17.472656 14.433594 17.472656 10.765625 Z M 17.472656 10.765625 "/>
<g clip-path="url(#clip1)" clip-rule="nonzero">
<g clip-path="url(#clip2)" clip-rule="nonzero">
<path style=" stroke:none;fill-rule:nonzero;fill:rgb(21.176471%,48.235294%,94.117647%);fill-opacity:1;" d="M 7.214844 2.722656 C 4.734375 2.722656 2.726562 4.734375 2.726562 7.210938 C 2.726562 7.980469 2.921875 8.71875 3.257812 9.351562 C 3.144531 9.886719 3.085938 10.429688 3.085938 11 C 3.085938 15.367188 6.628906 18.914062 11.003906 18.914062 C 11.570312 18.914062 12.117188 18.851562 12.648438 18.742188 C 13.28125 19.085938 14.015625 19.277344 14.785156 19.277344 C 17.265625 19.277344 19.273438 17.265625 19.273438 14.789062 C 19.273438 14.015625 19.078125 13.28125 18.738281 12.644531 C 18.851562 12.113281 18.910156 11.566406 18.910156 11 C 18.910156 6.632812 15.367188 3.085938 10.996094 3.085938 C 10.429688 3.085938 9.882812 3.144531 9.347656 3.257812 C 8.71875 2.921875 7.976562 2.722656 7.210938 2.722656 M 10.84375 6.007812 C 13.316406 6.007812 14.589844 7.308594 14.589844 8.074219 C 14.589844 8.839844 14.222656 8.953125 13.617188 8.953125 C 12.4375 8.953125 12.917969 7.539062 10.710938 7.539062 C 9.980469 7.539062 9.066406 7.871094 9.066406 8.722656 C 9.066406 9.40625 9.875 9.65625 11.300781 10.007812 C 13.453125 10.582031 15.066406 11.15625 15.066406 13.125 C 15.066406 15.035156 13.507812 15.992188 11.035156 15.992188 C 8.5625 15.992188 6.980469 14.519531 6.980469 13.753906 C 6.980469 12.992188 7.273438 12.800781 7.878906 12.800781 C 9.0625 12.800781 8.902344 14.40625 11.109375 14.40625 C 11.84375 14.40625 12.925781 14.074219 12.925781 13.21875 C 12.925781 12.539062 12.871094 12.300781 11.300781 11.882812 C 9.628906 11.65625 6.925781 11.113281 6.925781 9.035156 C 6.925781 7.125 8.371094 6.011719 10.84375 6.011719 M 10.84375 6.011719 "/>
</g>
</g>
</g>
</svg>
