
<svg xmlns="http://www.w3.org/2000/svg" xmlns:xlink="http://www.w3.org/1999/xlink" width="22px" height="22px" viewBox="0 0 22 22" version="1.1">
<g id="surface1">
<path style="fill-rule:nonzero;fill:rgb(20.392157%,59.607843%,85.882353%);fill-opacity:1;stroke-width:2.680109;stroke-linecap:butt;stroke-linejoin:miter;stroke:rgb(6.666667%,20.392157%,31.372549%);stroke-opacity:1;stroke-miterlimit:4;" d="M 7.40625 2.045454 L 40.593749 2.045454 C 43.551135 2.045454 45.954544 4.448863 45.954544 7.40625 L 45.954544 40.593749 C 45.954544 43.551135 43.551135 45.954544 40.593749 45.954544 L 7.40625 45.954544 C 4.448863 45.954544 2.045454 43.551135 2.045454 40.593749 L 2.045454 7.40625 C 2.045454 4.448863 4.448863 2.045454 7.40625 2.045454 Z M 7.40625 2.045454 " transform="matrix(0.458333,0,0,0.458333,0,0)"/>
<path style=" stroke:none;fill-rule:nonzero;fill:rgb(20.392157%,59.607843%,85.882353%);fill-opacity:1;" d="M 11 1.808594 C 16.074219 1.808594 20.191406 5.925781 20.191406 11 C 20.191406 16.074219 16.074219 20.191406 11 20.191406 C 5.925781 20.191406 1.808594 16.074219 1.808594 11 C 1.808594 5.925781 5.925781 1.808594 11 1.808594 Z M 11 1.808594 "/>
<path style=" stroke:none;fill-rule:nonzero;fill:rgb(92.54902%,94.117647%,94.509804%);fill-opacity:1;" d="M 5.910156 6.300781 L 10.773438 6.300781 L 10.773438 10.085938 L 5.910156 10.085938 Z M 5.910156 6.300781 "/>
<path style=" stroke:none;fill-rule:nonzero;fill:rgb(92.54902%,94.117647%,94.509804%);fill-opacity:1;" d="M 8.003906 10.085938 L 8.546875 10.085938 L 8.546875 14.410156 L 8.003906 14.410156 Z M 8.003906 10.085938 "/>
<path style=" stroke:none;fill-rule:nonzero;fill:rgb(92.54902%,94.117647%,94.509804%);fill-opacity:1;" d="M 13.953125 13.871094 L 13.953125 14.410156 L 8.003906 14.410156 L 8.003906 13.871094 Z M 13.953125 13.871094 "/>
<path style=" stroke:none;fill-rule:nonzero;fill:rgb(60.784314%,34.901961%,71.372549%);fill-opacity:1;" d="M 12.398438 6.300781 L 15.101562 6.300781 L 15.101562 8.464844 L 12.398438 8.464844 Z M 12.398438 6.300781 "/>
<path style=" stroke:none;fill-rule:nonzero;fill:rgb(92.54902%,94.117647%,94.509804%);fill-opacity:1;" d="M 13.476562 8.464844 L 14.019531 8.464844 L 14.019531 12.789062 L 13.476562 12.789062 Z M 13.476562 8.464844 "/>
<path style=" stroke:none;fill-rule:nonzero;fill:rgb(20.392157%,28.627451%,36.862745%);fill-opacity:1;" d="M 13.75 12.25 C 14.792969 12.25 15.640625 13.09375 15.640625 14.140625 C 15.640625 15.183594 14.792969 16.03125 13.75 16.03125 C 12.703125 16.03125 11.855469 15.183594 11.855469 14.140625 C 11.855469 13.09375 12.703125 12.25 13.75 12.25 Z M 13.75 12.25 "/>
</g>
</svg>
