<?xml version="1.0" encoding="UTF-8"?>
<svg xmlns="http://www.w3.org/2000/svg" xmlns:xlink="http://www.w3.org/1999/xlink" width="22pt" height="22pt" viewBox="0 0 22 22" version="1.1">
<g id="surface1">
<path style="fill-rule:nonzero;fill:rgb(100%,100%,100%);fill-opacity:1;stroke-width:28.191782;stroke-linecap:butt;stroke-linejoin:miter;stroke:rgb(14.509804%,68.235294%,87.45098%);stroke-opacity:1;stroke-miterlimit:4;" d="M 81.454545 25.090909 L 430.545455 25.090909 C 461.636364 25.090909 486.909091 50.363636 486.909091 81.454545 L 486.909091 430.545455 C 486.909091 461.636364 461.636364 486.909091 430.545455 486.909091 L 81.454545 486.909091 C 50.363636 486.909091 25.090909 461.636364 25.090909 430.545455 L 25.090909 81.454545 C 25.090909 50.363636 50.363636 25.090909 81.454545 25.090909 Z M 81.454545 25.090909 " transform="matrix(0.0429688,0,0,0.0429688,0,0)"/>
<path style=" stroke:none;fill-rule:nonzero;fill:rgb(100%,100%,100%);fill-opacity:1;" d="M 17.898438 11.101562 C 17.898438 7.394531 14.820312 4.386719 11.023438 4.386719 C 7.226562 4.386719 4.148438 7.394531 4.148438 11.101562 C 4.148438 14.808594 7.226562 17.8125 11.023438 17.8125 C 14.820312 17.8125 17.898438 14.808594 17.898438 11.101562 Z M 17.898438 11.101562 "/>
<path style=" stroke:none;fill-rule:nonzero;fill:rgb(30.196078%,30.196078%,30.196078%);fill-opacity:1;" d="M 9.113281 18.378906 C 8.96875 18.3125 8.816406 18.148438 8.746094 17.984375 C 8.710938 17.898438 8.675781 17.574219 8.644531 17.050781 C 8.621094 16.609375 8.585938 16.214844 8.570312 16.171875 C 8.550781 16.113281 8.449219 16.0625 8.195312 15.972656 C 8.007812 15.90625 7.71875 15.785156 7.5625 15.707031 C 7.402344 15.625 7.234375 15.558594 7.191406 15.558594 C 7.144531 15.558594 6.882812 15.773438 6.511719 16.113281 C 6.179688 16.417969 5.855469 16.695312 5.789062 16.730469 C 5.652344 16.796875 5.351562 16.808594 5.191406 16.75 C 5.066406 16.703125 3.746094 15.402344 3.664062 15.242188 C 3.578125 15.085938 3.589844 14.789062 3.683594 14.609375 C 3.726562 14.527344 4.003906 14.195312 4.304688 13.871094 C 4.625 13.523438 4.84375 13.253906 4.84375 13.210938 C 4.84375 13.167969 4.78125 13.003906 4.699219 12.84375 C 4.617188 12.683594 4.5 12.398438 4.433594 12.210938 C 4.367188 12.019531 4.285156 11.851562 4.253906 11.835938 C 4.21875 11.816406 3.832031 11.785156 3.390625 11.757812 C 2.878906 11.730469 2.535156 11.695312 2.433594 11.660156 C 2.242188 11.589844 2.023438 11.359375 1.992188 11.191406 C 1.980469 11.121094 1.976562 10.621094 1.980469 10.074219 L 1.992188 9.078125 L 2.109375 8.9375 C 2.308594 8.683594 2.402344 8.65625 3.367188 8.597656 C 3.914062 8.566406 4.246094 8.53125 4.273438 8.5 C 4.296875 8.476562 4.378906 8.289062 4.457031 8.085938 C 4.53125 7.878906 4.648438 7.597656 4.71875 7.460938 C 4.789062 7.324219 4.84375 7.179688 4.84375 7.144531 C 4.84375 7.105469 4.617188 6.824219 4.339844 6.519531 C 4.058594 6.214844 3.792969 5.910156 3.746094 5.847656 C 3.613281 5.675781 3.566406 5.457031 3.621094 5.242188 C 3.660156 5.082031 3.730469 4.996094 4.339844 4.382812 C 4.710938 4.003906 5.074219 3.664062 5.152344 3.625 C 5.328125 3.535156 5.609375 3.535156 5.785156 3.625 C 5.859375 3.660156 6.183594 3.933594 6.503906 4.230469 C 6.824219 4.523438 7.109375 4.777344 7.136719 4.792969 C 7.164062 4.808594 7.339844 4.75 7.550781 4.648438 C 7.75 4.554688 8.050781 4.429688 8.214844 4.375 C 8.441406 4.300781 8.527344 4.25 8.558594 4.183594 C 8.582031 4.136719 8.621094 3.734375 8.648438 3.292969 C 8.695312 2.445312 8.722656 2.3125 8.898438 2.128906 C 9.09375 1.925781 9.207031 1.910156 10.292969 1.921875 L 11.28125 1.933594 L 11.4375 2.035156 C 11.703125 2.210938 11.734375 2.320312 11.796875 3.265625 C 11.828125 3.722656 11.863281 4.132812 11.871094 4.175781 C 11.886719 4.234375 11.96875 4.28125 12.234375 4.375 C 12.421875 4.4375 12.722656 4.566406 12.90625 4.65625 C 13.085938 4.75 13.246094 4.824219 13.265625 4.824219 C 13.28125 4.824219 13.570312 4.570312 13.910156 4.261719 C 14.246094 3.953125 14.582031 3.667969 14.660156 3.628906 C 14.839844 3.53125 15.105469 3.535156 15.304688 3.628906 C 15.394531 3.675781 15.714844 3.964844 16.113281 4.367188 C 16.796875 5.054688 16.851562 5.136719 16.851562 5.449219 C 16.851562 5.667969 16.753906 5.816406 16.164062 6.460938 C 15.84375 6.808594 15.582031 7.109375 15.582031 7.128906 C 15.582031 7.148438 15.667969 7.335938 15.769531 7.550781 C 15.871094 7.761719 15.992188 8.058594 16.039062 8.210938 C 16.097656 8.398438 16.148438 8.496094 16.199219 8.515625 C 16.238281 8.535156 16.652344 8.574219 17.113281 8.601562 C 18.03125 8.660156 18.179688 8.695312 18.335938 8.914062 C 18.480469 9.117188 18.496094 9.273438 18.484375 10.273438 L 18.472656 11.230469 L 18.359375 11.386719 C 18.160156 11.675781 18.109375 11.6875 17.089844 11.753906 C 16.589844 11.789062 16.175781 11.824219 16.164062 11.832031 C 16.15625 11.84375 16.09375 12.003906 16.027344 12.1875 C 15.960938 12.371094 15.835938 12.667969 15.746094 12.851562 C 15.652344 13.03125 15.582031 13.203125 15.589844 13.230469 C 15.597656 13.257812 15.84375 13.546875 16.140625 13.871094 C 16.4375 14.195312 16.71875 14.53125 16.765625 14.625 C 16.863281 14.816406 16.875 15.023438 16.792969 15.214844 C 16.722656 15.386719 15.511719 16.617188 15.3125 16.71875 C 15.148438 16.804688 14.851562 16.8125 14.675781 16.738281 C 14.613281 16.710938 14.28125 16.433594 13.941406 16.125 C 13.605469 15.8125 13.300781 15.558594 13.265625 15.558594 C 13.234375 15.558594 13.042969 15.636719 12.84375 15.730469 C 12.644531 15.824219 12.347656 15.945312 12.183594 15.996094 C 11.960938 16.070312 11.886719 16.113281 11.871094 16.171875 C 11.863281 16.214844 11.828125 16.625 11.796875 17.078125 C 11.730469 18.085938 11.695312 18.191406 11.34375 18.371094 C 11.242188 18.421875 11.074219 18.429688 10.226562 18.429688 C 9.472656 18.429688 9.199219 18.414062 9.113281 18.378906 Z M 10.585938 13.917969 C 11.488281 13.824219 12.242188 13.464844 12.882812 12.824219 C 13.371094 12.332031 13.6875 11.785156 13.875 11.09375 C 13.996094 10.660156 13.996094 9.699219 13.875 9.261719 C 13.511719 7.929688 12.558594 6.949219 11.238281 6.550781 C 10.933594 6.457031 10.847656 6.449219 10.25 6.445312 C 9.679688 6.445312 9.558594 6.453125 9.28125 6.53125 C 7.894531 6.910156 6.832031 8.023438 6.542969 9.410156 C 6.28125 10.652344 6.664062 11.921875 7.570312 12.832031 C 8.046875 13.308594 8.664062 13.660156 9.332031 13.832031 C 9.523438 13.882812 9.792969 13.917969 10.175781 13.949219 C 10.207031 13.953125 10.390625 13.9375 10.585938 13.917969 Z M 9.664062 12.355469 C 8.710938 12.097656 8.046875 11.289062 7.988281 10.320312 C 7.945312 9.640625 8.164062 9.066406 8.644531 8.585938 C 9.523438 7.714844 10.921875 7.707031 11.789062 8.570312 C 12.503906 9.28125 12.671875 10.292969 12.230469 11.179688 C 11.855469 11.933594 11.160156 12.382812 10.308594 12.414062 C 10.015625 12.425781 9.875 12.414062 9.664062 12.355469 Z M 10.726562 11.414062 C 10.988281 11.316406 11.300781 11.027344 11.433594 10.757812 C 11.527344 10.566406 11.539062 10.503906 11.539062 10.171875 C 11.539062 9.820312 11.53125 9.789062 11.410156 9.5625 C 11.164062 9.113281 10.800781 8.882812 10.289062 8.859375 C 9.875 8.835938 9.628906 8.925781 9.332031 9.195312 C 8.953125 9.542969 8.804688 10.019531 8.925781 10.492188 C 9.03125 10.902344 9.253906 11.179688 9.625 11.371094 C 9.976562 11.546875 10.335938 11.5625 10.726562 11.414062 Z M 10.726562 11.414062 "/>
<path style=" stroke:none;fill-rule:evenodd;fill:rgb(100%,49.803922%,16.470588%);fill-opacity:1;" d="M 17.773438 14.8125 C 17.820312 14.863281 17.625 15.132812 17.335938 15.421875 L 13.867188 18.890625 C 13.578125 19.179688 13.304688 19.375 13.257812 19.328125 C 13.210938 19.28125 13.40625 19.007812 13.695312 18.71875 L 17.164062 15.25 C 17.453125 14.960938 17.722656 14.765625 17.773438 14.8125 Z M 17.773438 14.8125 "/>
<path style=" stroke:none;fill-rule:evenodd;fill:rgb(100%,49.803922%,16.470588%);fill-opacity:1;" d="M 18.355469 15.398438 C 18.402344 15.445312 18.207031 15.714844 17.917969 16.003906 L 14.449219 19.472656 C 14.160156 19.761719 13.886719 19.957031 13.839844 19.910156 C 13.792969 19.863281 13.988281 19.589844 14.277344 19.300781 L 17.746094 15.832031 C 18.035156 15.542969 18.308594 15.347656 18.355469 15.398438 Z M 18.355469 15.398438 "/>
<path style=" stroke:none;fill-rule:evenodd;fill:rgb(100%,49.803922%,16.470588%);fill-opacity:1;" d="M 18.160156 15.203125 C 18.207031 15.25 18.011719 15.523438 17.722656 15.8125 L 14.253906 19.28125 C 13.964844 19.566406 13.695312 19.761719 13.648438 19.714844 C 13.597656 19.667969 13.792969 19.394531 14.082031 19.109375 L 17.550781 15.636719 C 17.839844 15.351562 18.113281 15.15625 18.160156 15.203125 Z M 18.160156 15.203125 "/>
<path style=" stroke:none;fill-rule:evenodd;fill:rgb(100%,49.803922%,16.470588%);fill-opacity:1;" d="M 17.964844 15.007812 C 18.015625 15.054688 17.820312 15.328125 17.53125 15.617188 L 14.0625 19.085938 C 13.773438 19.375 13.5 19.570312 13.453125 19.523438 C 13.40625 19.472656 13.601562 19.203125 13.886719 18.914062 L 17.359375 15.445312 C 17.644531 15.15625 17.917969 14.960938 17.964844 15.007812 Z M 17.964844 15.007812 "/>
<path style=" stroke:none;fill-rule:evenodd;fill:rgb(100%,49.803922%,16.470588%);fill-opacity:1;" d="M 17.578125 14.621094 C 17.625 14.667969 17.429688 14.941406 17.140625 15.226562 L 13.671875 18.695312 C 13.382812 18.984375 13.113281 19.179688 13.0625 19.132812 C 13.015625 19.085938 13.210938 18.8125 13.5 18.523438 L 16.96875 15.054688 C 17.257812 14.765625 17.53125 14.570312 17.578125 14.621094 Z M 17.578125 14.621094 "/>
<path style=" stroke:none;fill-rule:evenodd;fill:rgb(100%,49.803922%,16.470588%);fill-opacity:1;" d="M 17.382812 14.425781 C 17.429688 14.472656 17.234375 14.746094 16.949219 15.035156 L 13.476562 18.503906 C 13.191406 18.792969 12.917969 18.988281 12.871094 18.9375 C 12.820312 18.890625 13.015625 18.617188 13.304688 18.332031 L 16.773438 14.863281 C 17.0625 14.574219 17.335938 14.378906 17.382812 14.425781 Z M 17.382812 14.425781 "/>
<path style=" stroke:none;fill-rule:evenodd;fill:rgb(100%,49.803922%,16.470588%);fill-opacity:1;" d="M 16.996094 14.035156 C 17.042969 14.085938 16.847656 14.355469 16.558594 14.644531 L 13.089844 18.113281 C 12.800781 18.402344 12.527344 18.597656 12.480469 18.550781 C 12.433594 18.503906 12.628906 18.230469 12.917969 17.941406 L 16.386719 14.472656 C 16.675781 14.183594 16.949219 13.988281 16.996094 14.035156 Z M 16.996094 14.035156 "/>
<path style=" stroke:none;fill-rule:evenodd;fill:rgb(100%,49.803922%,16.470588%);fill-opacity:1;" d="M 16.605469 13.648438 C 16.652344 13.695312 16.457031 13.96875 16.171875 14.257812 L 12.699219 17.726562 C 12.414062 18.015625 12.140625 18.210938 12.09375 18.160156 C 12.046875 18.113281 12.242188 17.84375 12.527344 17.554688 L 16 14.085938 C 16.285156 13.796875 16.558594 13.601562 16.605469 13.648438 Z M 16.605469 13.648438 "/>
<path style=" stroke:none;fill-rule:evenodd;fill:rgb(100%,49.803922%,16.470588%);fill-opacity:1;" d="M 16.21875 13.261719 C 16.265625 13.308594 16.070312 13.578125 15.78125 13.867188 L 12.3125 17.335938 C 12.023438 17.625 11.75 17.820312 11.703125 17.773438 C 11.65625 17.726562 11.851562 17.453125 12.140625 17.164062 L 15.609375 13.695312 C 15.898438 13.40625 16.171875 13.210938 16.21875 13.261719 Z M 16.21875 13.261719 "/>
<path style=" stroke:none;fill-rule:evenodd;fill:rgb(100%,49.803922%,16.470588%);fill-opacity:1;" d="M 17.1875 14.230469 C 17.238281 14.277344 17.042969 14.550781 16.753906 14.839844 L 13.285156 18.308594 C 12.996094 18.597656 12.722656 18.792969 12.675781 18.746094 C 12.628906 18.695312 12.824219 18.425781 13.113281 18.136719 L 16.582031 14.667969 C 16.871094 14.378906 17.140625 14.183594 17.1875 14.230469 Z M 17.1875 14.230469 "/>
<path style=" stroke:none;fill-rule:evenodd;fill:rgb(100%,49.803922%,16.470588%);fill-opacity:1;" d="M 16.800781 13.84375 C 16.847656 13.890625 16.652344 14.164062 16.363281 14.449219 L 12.894531 17.921875 C 12.605469 18.207031 12.335938 18.402344 12.285156 18.355469 C 12.238281 18.308594 12.433594 18.035156 12.722656 17.746094 L 16.191406 14.277344 C 16.480469 13.992188 16.753906 13.796875 16.800781 13.84375 Z M 16.800781 13.84375 "/>
<path style=" stroke:none;fill-rule:evenodd;fill:rgb(100%,49.803922%,16.470588%);fill-opacity:1;" d="M 16.414062 13.453125 C 16.460938 13.5 16.265625 13.773438 15.976562 14.0625 L 12.507812 17.53125 C 12.21875 17.820312 11.945312 18.015625 11.898438 17.96875 C 11.851562 17.921875 12.046875 17.648438 12.335938 17.359375 L 15.804688 13.890625 C 16.09375 13.601562 16.363281 13.40625 16.414062 13.453125 Z M 16.414062 13.453125 "/>
<path style=" stroke:none;fill-rule:evenodd;fill:rgb(100%,49.803922%,16.470588%);fill-opacity:1;" d="M 16.023438 13.066406 C 16.070312 13.113281 15.875 13.386719 15.585938 13.675781 L 12.117188 17.144531 C 11.828125 17.429688 11.558594 17.625 11.511719 17.578125 C 11.460938 17.53125 11.65625 17.257812 11.945312 16.972656 L 15.414062 13.5 C 15.703125 13.214844 15.976562 13.019531 16.023438 13.066406 Z M 16.023438 13.066406 "/>
<path style=" stroke:none;fill-rule:evenodd;fill:rgb(100%,49.803922%,16.470588%);fill-opacity:1;" d="M 15.828125 12.871094 C 15.878906 12.917969 15.683594 13.191406 15.394531 13.480469 L 11.925781 16.949219 C 11.636719 17.238281 11.363281 17.433594 11.316406 17.386719 C 11.269531 17.335938 11.464844 17.066406 11.75 16.777344 L 15.222656 13.308594 C 15.507812 13.019531 15.78125 12.824219 15.828125 12.871094 Z M 15.828125 12.871094 "/>
<path style=" stroke:none;fill-rule:evenodd;fill:rgb(100%,49.803922%,16.470588%);fill-opacity:1;" d="M 15.441406 12.484375 C 15.488281 12.53125 15.292969 12.804688 15.003906 13.089844 L 11.535156 16.558594 C 11.246094 16.847656 10.976562 17.042969 10.925781 16.996094 C 10.878906 16.949219 11.074219 16.675781 11.363281 16.386719 L 14.832031 12.917969 C 15.121094 12.628906 15.394531 12.433594 15.441406 12.484375 Z M 15.441406 12.484375 "/>
<path style=" stroke:none;fill-rule:evenodd;fill:rgb(100%,49.803922%,16.470588%);fill-opacity:1;" d="M 14.859375 11.898438 C 14.90625 11.949219 14.710938 12.21875 14.421875 12.507812 L 10.953125 15.976562 C 10.664062 16.265625 10.390625 16.460938 10.34375 16.414062 C 10.296875 16.367188 10.492188 16.09375 10.78125 15.804688 L 14.25 12.335938 C 14.539062 12.046875 14.8125 11.851562 14.859375 11.898438 Z M 14.859375 11.898438 "/>
<path style=" stroke:none;fill-rule:evenodd;fill:rgb(100%,49.803922%,16.470588%);fill-opacity:1;" d="M 14.277344 11.316406 C 14.324219 11.363281 14.128906 11.636719 13.839844 11.925781 L 10.371094 15.394531 C 10.082031 15.683594 9.808594 15.878906 9.761719 15.832031 C 9.714844 15.785156 9.910156 15.511719 10.199219 15.222656 L 13.667969 11.753906 C 13.957031 11.464844 14.226562 11.269531 14.277344 11.316406 Z M 14.277344 11.316406 "/>
<path style=" stroke:none;fill-rule:evenodd;fill:rgb(100%,49.803922%,16.470588%);fill-opacity:1;" d="M 15.636719 12.675781 C 15.683594 12.726562 15.488281 12.996094 15.199219 13.285156 L 11.730469 16.753906 C 11.441406 17.042969 11.167969 17.238281 11.121094 17.191406 C 11.074219 17.144531 11.269531 16.871094 11.558594 16.582031 L 15.027344 13.113281 C 15.316406 12.824219 15.585938 12.628906 15.636719 12.675781 Z M 15.636719 12.675781 "/>
<path style=" stroke:none;fill-rule:evenodd;fill:rgb(100%,49.803922%,16.470588%);fill-opacity:1;" d="M 15.050781 12.09375 C 15.101562 12.140625 14.90625 12.414062 14.617188 12.703125 L 11.148438 16.171875 C 10.859375 16.460938 10.585938 16.65625 10.539062 16.609375 C 10.492188 16.558594 10.6875 16.289062 10.976562 16 L 14.445312 12.53125 C 14.734375 12.242188 15.003906 12.046875 15.050781 12.09375 Z M 15.050781 12.09375 "/>
<path style=" stroke:none;fill-rule:evenodd;fill:rgb(100%,49.803922%,16.470588%);fill-opacity:1;" d="M 14.46875 11.511719 C 14.515625 11.558594 14.320312 11.832031 14.035156 12.121094 L 10.5625 15.589844 C 10.277344 15.878906 10.003906 16.074219 9.957031 16.023438 C 9.910156 15.976562 10.105469 15.707031 10.390625 15.417969 L 13.863281 11.949219 C 14.148438 11.660156 14.421875 11.464844 14.46875 11.511719 Z M 14.46875 11.511719 "/>
<path style=" stroke:none;fill-rule:evenodd;fill:rgb(100%,49.803922%,16.470588%);fill-opacity:1;" d="M 13.886719 10.929688 C 13.933594 10.976562 13.738281 11.25 13.449219 11.539062 L 9.980469 15.007812 C 9.691406 15.296875 9.421875 15.488281 9.375 15.441406 C 9.324219 15.394531 9.519531 15.121094 9.808594 14.835938 L 13.277344 11.363281 C 13.566406 11.078125 13.839844 10.882812 13.886719 10.929688 Z M 13.886719 10.929688 "/>
<path style=" stroke:none;fill-rule:evenodd;fill:rgb(100%,49.803922%,16.470588%);fill-opacity:1;" d="M 15.246094 12.289062 C 15.292969 12.335938 15.097656 12.609375 14.8125 12.898438 L 11.339844 16.367188 C 11.054688 16.65625 10.78125 16.851562 10.734375 16.800781 C 10.683594 16.753906 10.878906 16.480469 11.167969 16.195312 L 14.636719 12.726562 C 14.925781 12.4375 15.199219 12.242188 15.246094 12.289062 Z M 15.246094 12.289062 "/>
<path style=" stroke:none;fill-rule:evenodd;fill:rgb(100%,49.803922%,16.470588%);fill-opacity:1;" d="M 14.664062 11.707031 C 14.710938 11.753906 14.515625 12.027344 14.226562 12.3125 L 10.757812 15.785156 C 10.46875 16.070312 10.199219 16.265625 10.148438 16.21875 C 10.101562 16.171875 10.296875 15.898438 10.585938 15.609375 L 14.054688 12.140625 C 14.34375 11.855469 14.617188 11.660156 14.664062 11.707031 Z M 14.664062 11.707031 "/>
<path style=" stroke:none;fill-rule:evenodd;fill:rgb(100%,49.803922%,16.470588%);fill-opacity:1;" d="M 14.082031 11.125 C 14.128906 11.171875 13.933594 11.441406 13.644531 11.730469 L 10.175781 15.199219 C 9.886719 15.488281 9.613281 15.683594 9.566406 15.636719 C 9.519531 15.589844 9.714844 15.316406 10.003906 15.027344 L 13.472656 11.558594 C 13.761719 11.269531 14.035156 11.074219 14.082031 11.125 Z M 14.082031 11.125 "/>
<path style=" stroke:none;fill-rule:evenodd;fill:rgb(100%,49.803922%,16.470588%);fill-opacity:1;" d="M 13.691406 10.734375 C 13.742188 10.78125 13.546875 11.054688 13.257812 11.34375 L 9.789062 14.8125 C 9.5 15.101562 9.226562 15.296875 9.179688 15.25 C 9.132812 15.199219 9.328125 14.929688 9.613281 14.640625 L 13.085938 11.171875 C 13.371094 10.882812 13.644531 10.6875 13.691406 10.734375 Z M 13.691406 10.734375 "/>
<path style=" stroke:none;fill-rule:evenodd;fill:rgb(100%,49.803922%,16.470588%);fill-opacity:1;" d="M 13.5 10.539062 C 13.546875 10.589844 13.351562 10.859375 13.0625 11.148438 L 9.59375 14.617188 C 9.304688 14.90625 9.03125 15.101562 8.984375 15.054688 C 8.9375 15.007812 9.132812 14.734375 9.421875 14.445312 L 12.890625 10.976562 C 13.179688 10.6875 13.449219 10.492188 13.5 10.539062 Z M 13.5 10.539062 "/>
<path style=" stroke:none;fill-rule:evenodd;fill:rgb(100%,49.803922%,16.470588%);fill-opacity:1;" d="M 13.304688 10.347656 C 13.351562 10.394531 13.15625 10.667969 12.867188 10.953125 L 9.398438 14.421875 C 9.109375 14.710938 8.839844 14.90625 8.789062 14.859375 C 8.742188 14.8125 8.9375 14.539062 9.226562 14.25 L 12.695312 10.78125 C 12.984375 10.492188 13.257812 10.296875 13.304688 10.347656 Z M 13.304688 10.347656 "/>
<path style=" stroke:none;fill-rule:evenodd;fill:rgb(100%,49.803922%,16.470588%);fill-opacity:1;" d="M 13.109375 10.152344 C 13.15625 10.199219 12.960938 10.472656 12.675781 10.761719 L 9.203125 14.230469 C 8.917969 14.519531 8.644531 14.714844 8.597656 14.664062 C 8.546875 14.617188 8.742188 14.34375 9.03125 14.058594 L 12.5 10.589844 C 12.789062 10.300781 13.0625 10.105469 13.109375 10.152344 Z M 13.109375 10.152344 "/>
<path style=" stroke:none;fill-rule:evenodd;fill:rgb(100%,49.803922%,16.470588%);fill-opacity:1;" d="M 12.914062 9.957031 C 12.964844 10.003906 12.769531 10.277344 12.480469 10.566406 L 9.011719 14.035156 C 8.722656 14.324219 8.449219 14.519531 8.402344 14.472656 C 8.355469 14.421875 8.550781 14.152344 8.839844 13.863281 L 12.308594 10.394531 C 12.597656 10.105469 12.867188 9.910156 12.914062 9.957031 Z M 12.914062 9.957031 "/>
<path style=" stroke:none;fill-rule:evenodd;fill:rgb(100%,49.803922%,16.470588%);fill-opacity:1;" d="M 12.722656 9.761719 C 12.769531 9.8125 12.574219 10.082031 12.285156 10.371094 L 8.816406 13.839844 C 8.527344 14.128906 8.253906 14.324219 8.207031 14.277344 C 8.160156 14.230469 8.355469 13.957031 8.644531 13.667969 L 12.113281 10.199219 C 12.402344 9.910156 12.675781 9.714844 12.722656 9.761719 Z M 12.722656 9.761719 "/>
<path style=" stroke:none;fill-rule:evenodd;fill:rgb(100%,49.803922%,16.470588%);fill-opacity:1;" d="M 12.527344 9.570312 C 12.574219 9.617188 12.378906 9.890625 12.089844 10.175781 L 8.621094 13.648438 C 8.332031 13.933594 8.0625 14.128906 8.011719 14.082031 C 7.964844 14.035156 8.160156 13.761719 8.449219 13.472656 L 11.917969 10.003906 C 12.207031 9.71875 12.480469 9.523438 12.527344 9.570312 Z M 12.527344 9.570312 "/>
<path style=" stroke:none;fill-rule:evenodd;fill:rgb(100%,49.803922%,16.470588%);fill-opacity:1;" d="M 12.332031 9.375 C 12.378906 9.421875 12.183594 9.695312 11.898438 9.984375 L 8.425781 13.453125 C 8.140625 13.742188 7.867188 13.9375 7.820312 13.886719 C 7.773438 13.839844 7.96875 13.570312 8.253906 13.28125 L 11.726562 9.8125 C 12.011719 9.523438 12.285156 9.328125 12.332031 9.375 Z M 12.332031 9.375 "/>
<path style=" stroke:none;fill-rule:evenodd;fill:rgb(100%,49.803922%,16.470588%);fill-opacity:1;" d="M 12.140625 9.179688 C 12.1875 9.226562 11.992188 9.5 11.703125 9.789062 L 8.234375 13.257812 C 7.945312 13.546875 7.671875 13.742188 7.625 13.695312 C 7.578125 13.648438 7.773438 13.375 8.0625 13.085938 L 11.53125 9.617188 C 11.820312 9.328125 12.089844 9.132812 12.140625 9.179688 Z M 12.140625 9.179688 "/>
<path style=" stroke:none;fill-rule:evenodd;fill:rgb(25.490196%,49.411765%,49.803922%);fill-opacity:1;" d="M 19.175781 8.125 C 18.6875 7.636719 18.058594 7.476562 17.769531 7.765625 L 15.261719 10.273438 L 14.636719 9.648438 C 13.753906 8.765625 12.457031 8.644531 11.722656 9.375 L 11.253906 9.84375 L 17.703125 16.289062 L 18.171875 15.820312 C 18.902344 15.089844 18.78125 13.789062 17.898438 12.90625 L 17.273438 12.28125 L 19.78125 9.773438 C 20.070312 9.484375 19.910156 8.859375 19.421875 8.371094 Z M 19.175781 8.125 "/>
</g>
</svg>
