
<svg xmlns="http://www.w3.org/2000/svg" xmlns:xlink="http://www.w3.org/1999/xlink" width="22px" height="22px" viewBox="0 0 22 22" version="1.1">
<g id="surface1">
<path style=" stroke:none;fill-rule:nonzero;fill:rgb(60%,60%,60%);fill-opacity:1;" d="M 14.957031 10.246094 C 14.957031 8.082031 13.164062 6.328125 10.949219 6.328125 C 8.734375 6.328125 6.9375 8.082031 6.9375 10.246094 C 6.9375 12.40625 8.734375 14.160156 10.949219 14.160156 C 13.164062 14.160156 14.957031 12.40625 14.957031 10.246094 Z M 14.957031 10.246094 "/>
<path style=" stroke:none;fill-rule:nonzero;fill:rgb(60%,60%,60%);fill-opacity:1;" d="M 10.085938 16.386719 C 9.980469 16.339844 9.863281 16.214844 9.8125 16.09375 C 9.789062 16.027344 9.761719 15.785156 9.738281 15.398438 C 9.71875 15.070312 9.695312 14.773438 9.683594 14.742188 C 9.667969 14.699219 9.59375 14.660156 9.40625 14.59375 C 9.261719 14.546875 9.050781 14.457031 8.929688 14.394531 C 8.8125 14.335938 8.6875 14.289062 8.65625 14.289062 C 8.621094 14.289062 8.425781 14.445312 8.148438 14.699219 C 7.902344 14.925781 7.660156 15.132812 7.609375 15.160156 C 7.511719 15.210938 7.285156 15.21875 7.167969 15.175781 C 7.074219 15.140625 6.089844 14.171875 6.027344 14.050781 C 5.964844 13.933594 5.972656 13.714844 6.042969 13.578125 C 6.074219 13.519531 6.28125 13.269531 6.503906 13.03125 C 6.742188 12.769531 6.910156 12.570312 6.910156 12.535156 C 6.910156 12.507812 6.859375 12.382812 6.800781 12.265625 C 6.738281 12.144531 6.652344 11.933594 6.601562 11.792969 C 6.550781 11.652344 6.492188 11.527344 6.46875 11.511719 C 6.441406 11.5 6.152344 11.476562 5.824219 11.457031 C 5.445312 11.4375 5.1875 11.410156 5.113281 11.382812 C 4.96875 11.332031 4.808594 11.15625 4.785156 11.035156 C 4.773438 10.984375 4.769531 10.609375 4.777344 10.199219 L 4.785156 9.460938 L 4.867188 9.355469 C 5.019531 9.164062 5.089844 9.148438 5.808594 9.101562 C 6.214844 9.078125 6.460938 9.050781 6.480469 9.03125 C 6.5 9.011719 6.5625 8.871094 6.617188 8.71875 C 6.675781 8.566406 6.761719 8.359375 6.8125 8.253906 C 6.867188 8.152344 6.910156 8.046875 6.910156 8.019531 C 6.910156 7.992188 6.738281 7.78125 6.53125 7.554688 C 6.324219 7.324219 6.125 7.101562 6.089844 7.054688 C 5.988281 6.925781 5.957031 6.761719 5.996094 6.605469 C 6.023438 6.484375 6.078125 6.417969 6.53125 5.960938 C 6.808594 5.679688 7.078125 5.429688 7.136719 5.398438 C 7.269531 5.332031 7.476562 5.332031 7.605469 5.398438 C 7.664062 5.425781 7.902344 5.628906 8.144531 5.847656 C 8.382812 6.070312 8.59375 6.257812 8.617188 6.269531 C 8.636719 6.28125 8.765625 6.234375 8.921875 6.160156 C 9.070312 6.089844 9.296875 6 9.417969 5.957031 C 9.585938 5.902344 9.652344 5.863281 9.675781 5.816406 C 9.691406 5.777344 9.71875 5.480469 9.738281 5.152344 C 9.773438 4.519531 9.796875 4.421875 9.925781 4.285156 C 10.070312 4.132812 10.15625 4.121094 10.964844 4.128906 L 11.703125 4.136719 L 11.816406 4.214844 C 12.015625 4.347656 12.039062 4.429688 12.085938 5.128906 C 12.109375 5.46875 12.132812 5.773438 12.140625 5.808594 C 12.152344 5.851562 12.214844 5.886719 12.410156 5.957031 C 12.550781 6.003906 12.777344 6.101562 12.910156 6.167969 C 13.042969 6.234375 13.164062 6.289062 13.179688 6.289062 C 13.191406 6.289062 13.40625 6.101562 13.660156 5.871094 C 13.910156 5.640625 14.160156 5.429688 14.21875 5.398438 C 14.351562 5.328125 14.550781 5.332031 14.695312 5.402344 C 14.765625 5.433594 15.003906 5.648438 15.300781 5.949219 C 15.808594 6.464844 15.847656 6.523438 15.847656 6.757812 C 15.847656 6.921875 15.777344 7.027344 15.339844 7.507812 C 15.101562 7.769531 14.90625 7.996094 14.90625 8.007812 C 14.90625 8.023438 14.96875 8.164062 15.042969 8.320312 C 15.121094 8.480469 15.210938 8.699219 15.246094 8.8125 C 15.289062 8.953125 15.324219 9.027344 15.363281 9.042969 C 15.394531 9.054688 15.703125 9.082031 16.046875 9.105469 C 16.730469 9.148438 16.839844 9.175781 16.953125 9.335938 C 17.0625 9.488281 17.074219 9.605469 17.066406 10.347656 L 17.058594 11.0625 L 16.972656 11.179688 C 16.824219 11.394531 16.785156 11.402344 16.027344 11.453125 C 15.65625 11.476562 15.347656 11.503906 15.339844 11.511719 C 15.332031 11.519531 15.285156 11.636719 15.238281 11.777344 C 15.1875 11.914062 15.09375 12.136719 15.027344 12.269531 C 14.957031 12.40625 14.90625 12.53125 14.910156 12.550781 C 14.914062 12.574219 15.101562 12.785156 15.320312 13.027344 C 15.542969 13.269531 15.753906 13.523438 15.785156 13.589844 C 15.859375 13.734375 15.867188 13.886719 15.804688 14.03125 C 15.753906 14.15625 14.851562 15.074219 14.707031 15.152344 C 14.582031 15.214844 14.359375 15.21875 14.230469 15.164062 C 14.183594 15.144531 13.9375 14.9375 13.683594 14.707031 C 13.429688 14.476562 13.207031 14.289062 13.179688 14.289062 C 13.15625 14.289062 13.015625 14.34375 12.867188 14.414062 C 12.714844 14.484375 12.496094 14.574219 12.375 14.613281 C 12.207031 14.667969 12.152344 14.699219 12.140625 14.742188 C 12.132812 14.773438 12.109375 15.078125 12.085938 15.417969 C 12.039062 16.167969 12.007812 16.25 11.75 16.378906 C 11.671875 16.417969 11.546875 16.425781 10.914062 16.425781 C 10.355469 16.421875 10.148438 16.414062 10.085938 16.386719 Z M 11.183594 13.066406 C 11.855469 12.996094 12.417969 12.726562 12.894531 12.25 C 13.257812 11.882812 13.492188 11.476562 13.632812 10.960938 C 13.722656 10.636719 13.722656 9.921875 13.632812 9.597656 C 13.363281 8.605469 12.652344 7.875 11.671875 7.578125 C 11.441406 7.507812 11.378906 7.503906 10.933594 7.5 C 10.507812 7.5 10.417969 7.507812 10.210938 7.5625 C 9.179688 7.84375 8.386719 8.675781 8.171875 9.707031 C 7.980469 10.632812 8.261719 11.578125 8.9375 12.257812 C 9.292969 12.613281 9.75 12.871094 10.25 13 C 10.390625 13.039062 10.59375 13.066406 10.878906 13.089844 C 10.902344 13.089844 11.039062 13.078125 11.183594 13.066406 Z M 10.496094 11.902344 C 9.789062 11.707031 9.292969 11.105469 9.25 10.382812 C 9.21875 9.878906 9.378906 9.453125 9.738281 9.09375 C 10.390625 8.445312 11.433594 8.4375 12.078125 9.082031 C 12.609375 9.609375 12.738281 10.363281 12.410156 11.023438 C 12.128906 11.585938 11.609375 11.917969 10.976562 11.945312 C 10.761719 11.953125 10.652344 11.945312 10.496094 11.902344 Z M 11.289062 11.199219 C 11.484375 11.128906 11.71875 10.910156 11.816406 10.710938 C 11.882812 10.570312 11.914062 10.382812 11.914062 10.234375 C 11.914062 10.117188 11.886719 9.988281 11.796875 9.820312 C 11.613281 9.484375 11.34375 9.316406 10.960938 9.296875 C 10.65625 9.28125 10.472656 9.34375 10.25 9.546875 C 9.96875 9.804688 9.855469 10.160156 9.949219 10.515625 C 10.027344 10.820312 10.191406 11.027344 10.46875 11.167969 C 10.730469 11.296875 10.996094 11.308594 11.289062 11.199219 Z M 11.289062 11.199219 "/>
<path style=" stroke:none;fill-rule:evenodd;fill:rgb(36.078431%,44.313725%,48.627451%);fill-opacity:1;" d="M 12.875 6.902344 C 13.164062 6.902344 13.398438 7.171875 13.398438 7.5 L 13.398438 13.304688 C 13.398438 13.632812 13.164062 13.898438 12.875 13.898438 C 12.585938 13.898438 12.355469 13.632812 12.355469 13.304688 L 12.355469 7.5 C 12.355469 7.171875 12.585938 6.902344 12.875 6.902344 Z M 12.875 6.902344 "/>
<path style=" stroke:none;fill-rule:evenodd;fill:rgb(17.647059%,26.666667%,32.54902%);fill-opacity:1;" d="M 12.875 7.089844 C 13.074219 7.089844 13.238281 7.292969 13.238281 7.542969 L 13.238281 13.261719 C 13.238281 13.515625 13.074219 13.71875 12.875 13.71875 C 12.675781 13.71875 12.515625 13.515625 12.515625 13.261719 L 12.515625 7.542969 C 12.515625 7.292969 12.675781 7.089844 12.875 7.089844 Z M 12.875 7.089844 "/>
<path style=" stroke:none;fill-rule:nonzero;fill:rgb(90.196078%,90.588235%,90.980392%);fill-opacity:1;" d="M 13.851562 8.910156 C 13.851562 8.398438 13.433594 7.980469 12.917969 7.980469 C 12.402344 7.980469 11.984375 8.398438 11.984375 8.910156 C 11.984375 9.425781 12.402344 9.84375 12.917969 9.84375 C 13.433594 9.84375 13.851562 9.425781 13.851562 8.910156 Z M 13.851562 8.910156 "/>
<path style=" stroke:none;fill-rule:evenodd;fill:rgb(36.078431%,44.313725%,48.627451%);fill-opacity:1;" d="M 10.9375 6.902344 C 11.226562 6.902344 11.460938 7.171875 11.460938 7.5 L 11.460938 13.304688 C 11.460938 13.632812 11.226562 13.898438 10.9375 13.898438 C 10.648438 13.898438 10.414062 13.632812 10.414062 13.304688 L 10.414062 7.5 C 10.414062 7.171875 10.648438 6.902344 10.9375 6.902344 Z M 10.9375 6.902344 "/>
<path style=" stroke:none;fill-rule:evenodd;fill:rgb(17.647059%,26.666667%,32.54902%);fill-opacity:1;" d="M 10.9375 7.089844 C 11.136719 7.089844 11.296875 7.292969 11.296875 7.542969 L 11.296875 13.261719 C 11.296875 13.515625 11.136719 13.71875 10.9375 13.71875 C 10.738281 13.71875 10.578125 13.515625 10.578125 13.261719 L 10.578125 7.542969 C 10.578125 7.292969 10.738281 7.089844 10.9375 7.089844 Z M 10.9375 7.089844 "/>
<path style=" stroke:none;fill-rule:nonzero;fill:rgb(90.196078%,90.588235%,90.980392%);fill-opacity:1;" d="M 11.855469 10.949219 C 11.855469 10.433594 11.4375 10.015625 10.921875 10.015625 C 10.40625 10.015625 9.992188 10.433594 9.992188 10.949219 C 9.992188 11.464844 10.40625 11.878906 10.921875 11.878906 C 11.4375 11.878906 11.855469 11.464844 11.855469 10.949219 Z M 11.855469 10.949219 "/>
<path style=" stroke:none;fill-rule:evenodd;fill:rgb(36.078431%,44.313725%,48.627451%);fill-opacity:1;" d="M 8.992188 6.902344 C 9.28125 6.902344 9.515625 7.171875 9.515625 7.5 L 9.515625 13.304688 C 9.515625 13.632812 9.28125 13.898438 8.992188 13.898438 C 8.703125 13.898438 8.46875 13.632812 8.46875 13.304688 L 8.46875 7.5 C 8.46875 7.171875 8.703125 6.902344 8.992188 6.902344 Z M 8.992188 6.902344 "/>
<path style=" stroke:none;fill-rule:evenodd;fill:rgb(17.647059%,26.666667%,32.54902%);fill-opacity:1;" d="M 8.992188 7.089844 C 9.191406 7.089844 9.351562 7.292969 9.351562 7.542969 L 9.351562 13.261719 C 9.351562 13.515625 9.191406 13.71875 8.992188 13.71875 C 8.792969 13.71875 8.632812 13.515625 8.632812 13.261719 L 8.632812 7.542969 C 8.632812 7.292969 8.792969 7.089844 8.992188 7.089844 Z M 8.992188 7.089844 "/>
<path style=" stroke:none;fill-rule:nonzero;fill:rgb(90.196078%,90.588235%,90.980392%);fill-opacity:1;" d="M 9.910156 8.324219 C 9.910156 7.8125 9.492188 7.394531 8.980469 7.394531 C 8.464844 7.394531 8.046875 7.8125 8.046875 8.324219 C 8.046875 8.839844 8.464844 9.257812 8.980469 9.257812 C 9.492188 9.257812 9.910156 8.839844 9.910156 8.324219 Z M 9.910156 8.324219 "/>
<path style=" stroke:none;fill-rule:nonzero;fill:rgb(26.666667%,70.196078%,61.568627%);fill-opacity:1;" d="M 9.691406 8.328125 C 9.691406 7.933594 9.371094 7.613281 8.976562 7.613281 C 8.582031 7.613281 8.261719 7.933594 8.261719 8.328125 C 8.261719 8.722656 8.582031 9.042969 8.976562 9.042969 C 9.371094 9.042969 9.691406 8.722656 9.691406 8.328125 Z M 9.691406 8.328125 "/>
<path style=" stroke:none;fill-rule:nonzero;fill:rgb(26.666667%,70.196078%,61.568627%);fill-opacity:1;" d="M 11.636719 10.953125 C 11.636719 10.558594 11.316406 10.238281 10.921875 10.238281 C 10.527344 10.238281 10.207031 10.558594 10.207031 10.953125 C 10.207031 11.347656 10.527344 11.664062 10.921875 11.664062 C 11.316406 11.664062 11.636719 11.347656 11.636719 10.953125 Z M 11.636719 10.953125 "/>
<path style=" stroke:none;fill-rule:nonzero;fill:rgb(26.666667%,70.196078%,61.568627%);fill-opacity:1;" d="M 13.625 8.917969 C 13.625 8.523438 13.304688 8.203125 12.910156 8.203125 C 12.515625 8.203125 12.199219 8.523438 12.199219 8.917969 C 12.199219 9.3125 12.515625 9.632812 12.910156 9.632812 C 13.304688 9.632812 13.625 9.3125 13.625 8.917969 Z M 13.625 8.917969 "/>
<path style=" stroke:none;fill-rule:nonzero;fill:rgb(67.058824%,21.568627%,78.431373%);fill-opacity:1;" d="M 2.425781 1.6875 L 5.496094 1.6875 L 5.496094 12.820312 C 5.496094 14.785156 5.933594 16.199219 6.808594 17.0625 C 7.683594 17.925781 9.105469 18.355469 11.066406 18.355469 C 13.023438 18.355469 14.4375 17.925781 15.3125 17.0625 C 16.1875 16.199219 16.628906 14.785156 16.628906 12.820312 L 16.628906 1.6875 L 19.695312 1.6875 L 19.695312 13.128906 C 19.695312 15.515625 18.964844 17.320312 17.511719 18.539062 C 16.054688 19.757812 13.910156 20.367188 11.066406 20.367188 C 8.21875 20.367188 6.066406 19.757812 4.609375 18.539062 C 3.15625 17.320312 2.425781 15.515625 2.425781 13.128906 Z M 2.425781 1.6875 "/>
</g>
</svg>
