
<svg xmlns="http://www.w3.org/2000/svg" xmlns:xlink="http://www.w3.org/1999/xlink" width="22px" height="22px" viewBox="0 0 22 22" version="1.1">
<g id="surface1">
<path style="fill-rule:nonzero;fill:rgb(100%,100%,100%);fill-opacity:1;stroke-width:11.089861;stroke-linecap:butt;stroke-linejoin:miter;stroke:rgb(6.666667%,20.392157%,31.372549%);stroke-opacity:1;stroke-miterlimit:4;" d="M 31.356534 9.161932 L 168.643466 9.161932 C 180.894886 9.161932 190.838068 19.105114 190.838068 31.356534 L 190.838068 168.643466 C 190.838068 180.894886 180.894886 190.838068 168.643466 190.838068 L 31.356534 190.838068 C 19.105114 190.838068 9.161932 180.894886 9.161932 168.643466 L 9.161932 31.356534 C 9.161932 19.105114 19.105114 9.161932 31.356534 9.161932 Z M 31.356534 9.161932 " transform="matrix(0.11,0,0,0.11,0,0)"/>
<path style=" stroke:none;fill-rule:nonzero;fill:rgb(0.392157%,50.196078%,70.980392%);fill-opacity:1;" d="M 5.585938 18.351562 C 5.558594 18.265625 4.894531 15.0625 4.113281 11.230469 C 3.328125 7.398438 2.65625 4.136719 2.621094 3.984375 C 2.558594 3.710938 2.5625 3.710938 4.152344 3.710938 C 5.03125 3.710938 5.777344 3.757812 5.816406 3.820312 C 5.851562 3.878906 6.128906 5.207031 6.429688 6.773438 C 6.730469 8.335938 7.03125 9.671875 7.097656 9.738281 C 7.28125 9.921875 7.375 9.59375 8.019531 6.582031 C 8.335938 5.105469 8.636719 3.851562 8.6875 3.796875 C 8.738281 3.746094 9.378906 3.71875 10.109375 3.738281 L 11.441406 3.773438 L 12.054688 6.828125 C 12.300781 8.054688 12.316406 8.914062 12.5 9.574219 C 12.878906 10.898438 13.445312 11.402344 14.421875 12.417969 C 15.375 13.410156 15.292969 13.652344 15.339844 14.1875 C 15.410156 14.964844 15.300781 15.339844 13.78125 17.105469 L 12.566406 18.515625 L 11.898438 18.476562 L 11.230469 18.441406 L 10.65625 15.539062 C 10.339844 13.941406 10.042969 12.597656 10 12.550781 C 9.8125 12.367188 9.671875 12.8125 9.121094 15.324219 C 8.800781 16.769531 8.496094 18.078125 8.4375 18.226562 C 8.339844 18.492188 8.273438 18.503906 6.984375 18.503906 C 6.011719 18.503906 5.621094 18.460938 5.585938 18.351562 Z M 5.585938 18.351562 "/>
<path style=" stroke:none;fill-rule:nonzero;fill:rgb(94.901961%,56.078431%,4.313725%);fill-opacity:1;" d="M 13.335938 18.398438 C 13.300781 18.339844 13.414062 18.164062 13.585938 18 C 14.148438 17.476562 15.375 15.886719 15.605469 15.386719 C 15.851562 14.839844 15.898438 13.808594 15.703125 13.285156 C 15.628906 13.09375 15.171875 12.527344 14.679688 12.023438 C 13.097656 10.390625 12.703125 9.492188 12.804688 7.734375 C 12.875 6.511719 13.277344 5.484375 14.132812 4.355469 L 14.617188 3.710938 L 16.691406 3.710938 C 17.832031 3.710938 18.765625 3.757812 18.765625 3.816406 C 18.765625 3.871094 18.386719 4.347656 17.921875 4.875 C 17.460938 5.402344 16.898438 6.132812 16.675781 6.5 C 16.324219 7.078125 16.269531 7.273438 16.273438 7.976562 C 16.273438 8.421875 16.347656 8.917969 16.4375 9.085938 C 16.527344 9.25 17.082031 9.890625 17.667969 10.507812 C 18.804688 11.699219 19.199219 12.433594 19.339844 13.628906 C 19.484375 14.828125 18.949219 16.515625 17.941406 18.035156 L 17.632812 18.503906 L 15.515625 18.503906 C 14.355469 18.503906 13.371094 18.457031 13.335938 18.398438 Z M 13.335938 18.398438 "/>
</g>
</svg>
