
<svg xmlns="http://www.w3.org/2000/svg" xmlns:xlink="http://www.w3.org/1999/xlink" width="22px" height="22px" viewBox="0 0 22 22" version="1.1">
<g id="surface1">
<path style="fill-rule:nonzero;fill:rgb(96.078431%,96.078431%,96.078431%);fill-opacity:1;stroke-width:28.097435;stroke-linecap:butt;stroke-linejoin:miter;stroke:rgb(60%,60%,60%);stroke-opacity:1;stroke-miterlimit:4;" d="M 82.090909 25.909091 L 429.909091 25.909091 C 461 25.909091 486.090909 51 486.090909 82.090909 L 486.090909 429.909091 C 486.090909 461 461 486.090909 429.909091 486.090909 L 82.090909 486.090909 C 51 486.090909 25.909091 461 25.909091 429.909091 L 25.909091 82.090909 C 25.909091 51 51 25.909091 82.090909 25.909091 Z M 82.090909 25.909091 " transform="matrix(0.0429688,0,0,0.0429688,0,0)"/>
<path style=" stroke:none;fill-rule:nonzero;fill:rgb(60%,60%,60%);fill-opacity:1;" d="M 8.390625 17.957031 C 8.210938 17.855469 8.113281 17.675781 8.113281 17.445312 C 8.113281 17.1875 8.207031 17.007812 8.394531 16.910156 C 8.527344 16.839844 8.546875 16.839844 9.535156 16.839844 C 10.273438 16.839844 10.546875 16.828125 10.574219 16.800781 C 10.605469 16.773438 10.613281 16.242188 10.613281 14.613281 L 10.613281 12.464844 L 10.433594 12.371094 C 9.9375 12.113281 9.675781 11.644531 9.714844 11.078125 C 9.746094 10.617188 10.003906 10.238281 10.433594 10.007812 C 10.640625 9.898438 10.683594 9.886719 10.960938 9.875 C 11.320312 9.863281 11.523438 9.910156 11.769531 10.078125 C 12.125 10.3125 12.328125 10.671875 12.355469 11.105469 C 12.386719 11.609375 12.1875 12.011719 11.761719 12.296875 L 11.550781 12.4375 L 11.550781 14.601562 C 11.550781 16.242188 11.558594 16.773438 11.585938 16.800781 C 11.613281 16.828125 11.890625 16.839844 12.625 16.839844 C 13.554688 16.839844 13.632812 16.84375 13.75 16.898438 C 13.941406 16.992188 14.050781 17.175781 14.050781 17.417969 C 14.050781 17.675781 13.957031 17.855469 13.769531 17.953125 L 13.632812 18.023438 L 11.070312 18.023438 C 8.527344 18.023438 8.503906 18.023438 8.390625 17.957031 Z M 8.390625 17.957031 "/>
<path style=" stroke:none;fill-rule:nonzero;fill:rgb(47.058824%,73.72549%,55.686275%);fill-opacity:1;" d="M 15.71875 16.476562 C 15.6875 16.46875 15.621094 16.425781 15.574219 16.382812 C 15.503906 16.316406 15.488281 16.273438 15.488281 16.164062 C 15.488281 16.039062 15.503906 16.011719 15.773438 15.726562 C 16.769531 14.660156 17.378906 13.363281 17.550781 11.929688 C 17.597656 11.542969 17.570312 10.492188 17.507812 10.125 C 17.261719 8.746094 16.632812 7.527344 15.675781 6.570312 C 15.285156 6.175781 15.128906 6.046875 14.753906 5.792969 C 13.085938 4.671875 11.101562 4.351562 9.21875 4.894531 C 8.042969 5.234375 6.914062 5.949219 6.132812 6.84375 C 5.257812 7.839844 4.707031 9.054688 4.53125 10.375 C 4.464844 10.871094 4.492188 11.878906 4.582031 12.34375 C 4.835938 13.65625 5.378906 14.726562 6.292969 15.730469 C 6.460938 15.917969 6.488281 15.960938 6.488281 16.066406 C 6.488281 16.273438 6.335938 16.394531 6.089844 16.378906 C 6 16.375 5.734375 16.105469 5.410156 15.703125 C 5.101562 15.316406 5.0625 15.261719 4.855469 14.917969 C 4.515625 14.347656 4.335938 13.941406 4.128906 13.265625 C 3.695312 11.839844 3.738281 10.195312 4.242188 8.78125 C 4.484375 8.101562 4.679688 7.714844 5.0625 7.144531 C 5.425781 6.605469 6.101562 5.890625 6.652344 5.460938 C 6.9375 5.242188 7.5 4.890625 7.878906 4.699219 C 8.359375 4.453125 9.167969 4.199219 9.847656 4.078125 C 10.175781 4.019531 11.09375 3.96875 11.410156 3.988281 C 13.179688 4.113281 14.660156 4.734375 15.90625 5.875 C 16.203125 6.144531 16.804688 6.832031 16.941406 7.050781 C 16.972656 7.101562 17.023438 7.171875 17.050781 7.207031 C 17.148438 7.320312 17.480469 7.929688 17.671875 8.347656 C 17.851562 8.746094 18.070312 9.511719 18.160156 10.066406 C 18.238281 10.570312 18.253906 11.523438 18.191406 12.066406 C 18.097656 12.847656 17.832031 13.75 17.5 14.414062 C 17.203125 15.003906 16.679688 15.738281 16.207031 16.226562 C 15.96875 16.46875 15.875 16.519531 15.71875 16.476562 Z M 7.261719 14.964844 C 7.140625 14.867188 6.808594 14.46875 6.628906 14.214844 C 6.300781 13.746094 6.035156 13.160156 5.882812 12.585938 C 5.746094 12.058594 5.722656 11.859375 5.722656 11.171875 C 5.722656 10.417969 5.773438 10.089844 5.984375 9.46875 C 6.160156 8.957031 6.261719 8.746094 6.5625 8.292969 C 7.542969 6.804688 9.023438 5.960938 10.832031 5.863281 C 12.238281 5.789062 13.726562 6.351562 14.730469 7.339844 C 15.488281 8.089844 15.925781 8.828125 16.21875 9.84375 C 16.390625 10.449219 16.425781 11.460938 16.300781 12.140625 C 16.171875 12.855469 15.851562 13.628906 15.476562 14.15625 C 15.097656 14.683594 14.898438 14.902344 14.765625 14.9375 C 14.609375 14.980469 14.542969 14.960938 14.441406 14.839844 C 14.308594 14.679688 14.328125 14.539062 14.519531 14.324219 C 15.800781 12.871094 16.089844 10.878906 15.269531 9.1875 C 14.625 7.863281 13.515625 6.972656 12.082031 6.632812 C 10.632812 6.289062 9.082031 6.6875 7.921875 7.699219 C 7.492188 8.078125 7.050781 8.664062 6.808594 9.183594 C 6.640625 9.550781 6.464844 10.117188 6.414062 10.472656 C 6.203125 11.90625 6.632812 13.324219 7.605469 14.386719 C 7.699219 14.488281 7.789062 14.605469 7.804688 14.644531 C 7.875 14.835938 7.707031 15.0625 7.496094 15.0625 C 7.414062 15.0625 7.34375 15.03125 7.261719 14.964844 Z M 8.515625 13.679688 C 8.449219 13.625 8.335938 13.5 8.257812 13.402344 C 7.5 12.453125 7.292969 11.152344 7.707031 9.957031 C 7.933594 9.296875 8.535156 8.574219 9.191406 8.167969 C 9.542969 7.949219 9.777344 7.851562 10.210938 7.746094 C 10.460938 7.683594 10.582031 7.675781 11.066406 7.675781 C 11.601562 7.675781 11.644531 7.679688 11.972656 7.773438 C 12.648438 7.96875 13.027344 8.191406 13.535156 8.703125 C 13.824219 8.992188 13.949219 9.148438 14.089844 9.382812 C 14.1875 9.546875 14.269531 9.699219 14.269531 9.714844 C 14.269531 9.730469 14.296875 9.8125 14.335938 9.894531 C 14.371094 9.976562 14.4375 10.179688 14.480469 10.34375 C 14.546875 10.605469 14.558594 10.710938 14.5625 11.1875 C 14.5625 11.695312 14.558594 11.761719 14.476562 12.0625 C 14.324219 12.636719 14.078125 13.097656 13.722656 13.492188 C 13.617188 13.609375 13.574219 13.632812 13.453125 13.648438 C 13.320312 13.664062 13.304688 13.65625 13.210938 13.550781 C 13.058594 13.375 13.074219 13.28125 13.300781 12.984375 C 13.714844 12.433594 13.925781 11.835938 13.925781 11.199219 C 13.925781 9.828125 12.960938 8.652344 11.601562 8.359375 C 11.234375 8.28125 10.601562 8.308594 10.222656 8.421875 C 9.425781 8.660156 8.765625 9.234375 8.398438 10.015625 C 8.160156 10.515625 8.085938 11.226562 8.207031 11.769531 C 8.328125 12.296875 8.527344 12.691406 8.898438 13.144531 C 9.113281 13.40625 9.136719 13.523438 9 13.6875 C 8.933594 13.769531 8.898438 13.78125 8.773438 13.78125 C 8.65625 13.78125 8.609375 13.761719 8.515625 13.679688 Z M 10.820312 11.800781 C 10.433594 11.660156 10.273438 11.167969 10.507812 10.835938 C 10.636719 10.652344 10.804688 10.566406 11.027344 10.5625 C 11.636719 10.5625 11.902344 11.277344 11.445312 11.679688 C 11.265625 11.839844 11.046875 11.878906 10.820312 11.800781 Z M 10.820312 11.800781 "/>
<path style="fill-rule:nonzero;fill:rgb(100%,0%,0%);fill-opacity:1;stroke-width:3.417207;stroke-linecap:butt;stroke-linejoin:miter;stroke:rgb(100%,0%,0%);stroke-opacity:1;stroke-miterlimit:4;" d="M 252.727273 274.545455 C 248.727273 273.363636 246 270.909091 243.818182 266.818182 C 239.363636 258 245.272727 247.272727 255.272727 246.272727 C 266.181818 245.181818 274.272727 255.545455 270.454545 265.727273 C 269.181818 269 264.454545 273.454545 261.272727 274.454545 C 258.818182 275.181818 254.909091 275.272727 252.727273 274.545455 Z M 252.727273 274.545455 " transform="matrix(0.0429688,0,0,0.0429688,0,0)"/>
</g>
</svg>
