
<svg xmlns="http://www.w3.org/2000/svg" xmlns:xlink="http://www.w3.org/1999/xlink" width="22px" height="22px" viewBox="0 0 22 22" version="1.1">
<g id="surface1">
<path style="fill-rule:nonzero;fill:rgb(100%,100%,100%);fill-opacity:1;stroke-width:28.097435;stroke-linecap:butt;stroke-linejoin:miter;stroke:rgb(63.921569%,65.098039%,60.784314%);stroke-opacity:1;stroke-miterlimit:4;" d="M 82.524477 26.324033 L 430.47536 26.324033 C 461.44481 26.324033 486.675804 51.555026 486.675804 82.524477 L 486.675804 430.47536 C 486.675804 461.44481 461.44481 486.675804 430.47536 486.675804 L 82.524477 486.675804 C 51.555026 486.675804 26.324033 461.44481 26.324033 430.47536 L 26.324033 82.524477 C 26.324033 51.555026 51.555026 26.324033 82.524477 26.324033 Z M 82.524477 26.324033 " transform="matrix(0.042885,0,0,0.042885,0,0)"/>
<path style=" stroke:none;fill-rule:nonzero;fill:rgb(0.392157%,0.392157%,0.392157%);fill-opacity:1;" d="M 6.597656 17.046875 C 6.511719 17 6.398438 16.894531 6.347656 16.8125 C 6.265625 16.683594 6.253906 16.609375 6.269531 16.332031 L 6.28125 16.003906 L 6.097656 15.949219 C 5.894531 15.886719 5.707031 15.757812 5.628906 15.617188 C 5.558594 15.488281 5.5625 15.09375 5.636719 14.949219 C 5.757812 14.71875 5.898438 14.644531 6.222656 14.644531 L 6.515625 14.644531 L 6.75 14.882812 L 6.980469 15.117188 L 7.148438 15.058594 C 7.304688 15 7.828125 14.773438 8.984375 14.257812 C 9.265625 14.132812 9.523438 14.011719 9.550781 13.988281 C 9.648438 13.917969 9.609375 13.832031 9.445312 13.761719 C 9.285156 13.695312 8.71875 13.457031 7.773438 13.0625 C 7.496094 12.949219 7 12.738281 6.667969 12.59375 C 6.339844 12.449219 6.046875 12.332031 6.015625 12.332031 C 5.988281 12.332031 5.902344 12.40625 5.828125 12.5 C 5.664062 12.703125 5.464844 12.78125 5.195312 12.742188 C 4.9375 12.707031 4.8125 12.617188 4.714844 12.402344 C 4.605469 12.164062 4.613281 11.960938 4.730469 11.75 C 4.804688 11.617188 4.875 11.558594 5.0625 11.488281 C 5.191406 11.4375 5.316406 11.375 5.34375 11.351562 C 5.375 11.324219 5.382812 11.191406 5.375 10.996094 C 5.359375 10.730469 5.371094 10.65625 5.445312 10.539062 C 5.664062 10.1875 6.308594 10.175781 6.554688 10.519531 C 6.691406 10.710938 6.707031 10.910156 6.613281 11.183594 C 6.546875 11.371094 6.539062 11.4375 6.578125 11.488281 C 6.625 11.550781 6.761719 11.609375 8.148438 12.179688 C 9.179688 12.601562 9.714844 12.824219 10.410156 13.117188 L 10.976562 13.359375 L 11.351562 13.203125 C 11.558594 13.117188 11.863281 12.996094 12.027344 12.929688 C 12.195312 12.863281 12.445312 12.761719 12.585938 12.703125 C 12.726562 12.644531 13.007812 12.53125 13.207031 12.445312 C 15.019531 11.703125 15.390625 11.535156 15.421875 11.457031 C 15.433594 11.421875 15.414062 11.335938 15.378906 11.265625 C 15.199219 10.917969 15.304688 10.5 15.609375 10.347656 C 15.917969 10.191406 16.351562 10.285156 16.511719 10.539062 C 16.585938 10.65625 16.597656 10.730469 16.582031 10.992188 C 16.566406 11.320312 16.609375 11.429688 16.753906 11.429688 C 16.890625 11.429688 17.164062 11.625 17.246094 11.78125 C 17.476562 12.242188 17.160156 12.757812 16.648438 12.757812 C 16.417969 12.757812 16.246094 12.671875 16.101562 12.480469 C 16.039062 12.398438 15.960938 12.332031 15.933594 12.332031 C 15.886719 12.332031 15.621094 12.4375 14.667969 12.84375 C 14.558594 12.890625 14.125 13.078125 13.703125 13.265625 C 13.277344 13.449219 12.800781 13.65625 12.640625 13.726562 C 12.480469 13.792969 12.351562 13.875 12.351562 13.902344 C 12.351562 13.933594 12.398438 13.988281 12.453125 14.023438 C 12.578125 14.105469 14.050781 14.75 14.769531 15.039062 L 14.976562 15.121094 L 15.15625 14.933594 C 15.386719 14.683594 15.46875 14.644531 15.773438 14.644531 C 16.054688 14.644531 16.207031 14.730469 16.320312 14.949219 C 16.40625 15.121094 16.398438 15.496094 16.304688 15.652344 C 16.234375 15.769531 16.160156 15.816406 15.78125 15.992188 C 15.679688 16.039062 15.675781 16.0625 15.675781 16.386719 C 15.675781 16.789062 15.613281 16.914062 15.355469 17.046875 C 15.144531 17.15625 14.953125 17.15625 14.722656 17.050781 C 14.421875 16.914062 14.328125 16.671875 14.410156 16.230469 C 14.46875 15.90625 14.441406 15.871094 14.023438 15.699219 C 13.871094 15.636719 13.125 15.335938 12.363281 15.027344 L 10.984375 14.472656 L 10.070312 14.84375 C 8.867188 15.332031 8.742188 15.382812 8.363281 15.542969 C 8.1875 15.617188 7.941406 15.71875 7.820312 15.765625 C 7.503906 15.886719 7.480469 15.925781 7.546875 16.230469 C 7.636719 16.644531 7.542969 16.898438 7.242188 17.050781 C 7.039062 17.15625 6.800781 17.152344 6.597656 17.046875 Z M 9.425781 12.007812 C 9.242188 11.90625 9.207031 11.789062 9.179688 11.179688 C 9.15625 10.632812 9.152344 10.601562 9.046875 10.523438 C 8.800781 10.328125 8.347656 9.851562 8.210938 9.644531 C 7.835938 9.082031 7.667969 8.496094 7.667969 7.785156 C 7.671875 7.21875 7.761719 6.785156 7.972656 6.347656 C 8.453125 5.339844 9.28125 4.710938 10.398438 4.5 C 11.480469 4.296875 12.5625 4.644531 13.363281 5.453125 C 13.96875 6.058594 14.296875 6.859375 14.300781 7.742188 C 14.304688 8.855469 13.910156 9.671875 12.960938 10.492188 L 12.78125 10.652344 L 12.78125 11.117188 C 12.777344 11.660156 12.730469 11.867188 12.578125 11.984375 C 12.472656 12.070312 12.414062 12.074219 11.003906 12.070312 C 9.796875 12.070312 9.519531 12.058594 9.425781 12.007812 Z M 9.832031 9.304688 C 10.183594 9.183594 10.550781 8.667969 10.550781 8.300781 C 10.550781 8.121094 10.410156 7.785156 10.261719 7.617188 C 9.84375 7.125 9.164062 7.097656 8.695312 7.5625 C 8.488281 7.765625 8.363281 8.042969 8.363281 8.300781 C 8.363281 8.550781 8.488281 8.839844 8.679688 9.03125 C 9.003906 9.351562 9.410156 9.449219 9.832031 9.304688 Z M 12.789062 9.328125 C 13.035156 9.257812 13.296875 9.03125 13.433594 8.777344 C 13.894531 7.890625 12.941406 6.902344 12.027344 7.328125 C 11.796875 7.4375 11.558594 7.675781 11.464844 7.898438 C 11.390625 8.078125 11.390625 8.519531 11.464844 8.699219 C 11.675781 9.203125 12.253906 9.476562 12.789062 9.328125 Z M 12.789062 9.328125 "/>
</g>
</svg>
