
<svg xmlns="http://www.w3.org/2000/svg" xmlns:xlink="http://www.w3.org/1999/xlink" width="22px" height="22px" viewBox="0 0 22 22" version="1.1">
<g id="surface1">
<path style=" stroke:none;fill-rule:nonzero;fill:rgb(0%,50.196078%,50.196078%);fill-opacity:1;" d="M 2.277344 1.351562 L 19.722656 1.351562 C 20.234375 1.351562 20.648438 1.765625 20.648438 2.277344 L 20.648438 19.722656 C 20.648438 20.234375 20.234375 20.648438 19.722656 20.648438 L 2.277344 20.648438 C 1.765625 20.648438 1.351562 20.234375 1.351562 19.722656 L 1.351562 2.277344 C 1.351562 1.765625 1.765625 1.351562 2.277344 1.351562 Z M 2.277344 1.351562 "/>
<path style=" stroke:none;fill-rule:nonzero;fill:rgb(100%,100%,100%);fill-opacity:1;" d="M 4.296875 4.328125 L 4.296875 6.054688 C 4.3125 6.0625 4.324219 6.070312 4.335938 6.078125 L 7.328125 8.027344 C 7.464844 8.117188 7.464844 8.265625 7.328125 8.355469 L 4.335938 10.304688 C 4.324219 10.3125 4.3125 10.320312 4.296875 10.328125 L 4.296875 12.054688 C 4.382812 12.035156 4.460938 12.003906 4.53125 11.960938 L 9.496094 8.722656 L 9.496094 7.710938 C 9.496094 7.695312 9.496094 7.679688 9.5 7.664062 L 4.53125 4.421875 C 4.460938 4.378906 4.382812 4.347656 4.296875 4.328125 Z M 4.296875 4.328125 "/>
<path style=" stroke:none;fill-rule:nonzero;fill:rgb(100%,100%,100%);fill-opacity:1;" d="M 6.859375 12.542969 L 12.527344 12.542969 L 12.527344 14.144531 L 6.859375 14.144531 Z M 6.859375 12.542969 "/>
</g>
</svg>
