<?xml version="1.0" encoding="UTF-8"?>
<svg xmlns="http://www.w3.org/2000/svg" xmlns:xlink="http://www.w3.org/1999/xlink" width="64pt" height="64pt" viewBox="0 0 64 64" version="1.1">
<g id="surface1">
<path style="fill-rule:nonzero;fill:rgb(100%,100%,100%);fill-opacity:1;stroke-width:2.611469;stroke-linecap:butt;stroke-linejoin:miter;stroke:rgb(56.470588%,56.470588%,56.470588%);stroke-opacity:1;stroke-miterlimit:4;" d="M 7.833984 2.610352 L 40.166016 2.610352 C 43.051758 2.610352 45.389648 4.948242 45.389648 7.833984 L 45.389648 40.166016 C 45.389648 43.051758 43.051758 45.389648 40.166016 45.389648 L 7.833984 45.389648 C 4.948242 45.389648 2.610352 43.051758 2.610352 40.166016 L 2.610352 7.833984 C 2.610352 4.948242 4.948242 2.610352 7.833984 2.610352 Z M 7.833984 2.610352 " transform="matrix(1.333333,0,0,1.333333,0,0)"/>
<path style=" stroke:none;fill-rule:evenodd;fill:rgb(30.196078%,30.196078%,30.196078%);fill-opacity:1;" d="M 32.332031 34.960938 C 34.460938 34.820312 36.082031 32.996094 35.976562 30.867188 C 35.871094 28.734375 34.074219 27.082031 31.941406 27.152344 C 29.808594 27.222656 28.125 28.992188 28.160156 31.125 C 28.199219 33.257812 29.9375 34.96875 32.070312 34.96875 "/>
<path style="fill:none;stroke-width:2.26261;stroke-linecap:square;stroke-linejoin:bevel;stroke:rgb(30.196078%,30.196078%,30.196078%);stroke-opacity:1;stroke-miterlimit:4;" d="M 24.058594 23.25293 L 24.058594 40.069336 " transform="matrix(1.333333,0,0,1.333333,0,0)"/>
<path style="fill-rule:evenodd;fill:rgb(87.058824%,38.039216%,26.27451%);fill-opacity:1;stroke-width:1.164577;stroke-linecap:square;stroke-linejoin:miter;stroke:rgb(87.058824%,38.039216%,26.27451%);stroke-opacity:1;stroke-miterlimit:2.012602;" d="M 21.152344 12.032227 L 21.369141 11.8125 L 24 14.443359 L 26.616211 11.827148 L 26.833008 12.046875 L 24.219727 14.663086 L 26.847656 17.293945 L 26.630859 17.510742 L 24 14.879883 L 21.383789 17.496094 L 21.166992 17.276367 L 23.780273 14.660156 Z M 21.152344 12.032227 " transform="matrix(1.333333,0,0,1.333333,0,0)"/>
</g>
</svg>
