<?xml version="1.0" encoding="UTF-8"?>
<svg xmlns="http://www.w3.org/2000/svg" xmlns:xlink="http://www.w3.org/1999/xlink" width="16pt" height="16pt" viewBox="0 0 16 16" version="1.1">
<g id="surface1">
<path style="fill-rule:nonzero;fill:rgb(20%,20%,20%);fill-opacity:1;stroke-width:2.513725;stroke-linecap:butt;stroke-linejoin:miter;stroke:rgb(0%,34.509804%,41.960784%);stroke-opacity:1;stroke-miterlimit:4;" d="M 370.113814 436.631391 L 405.707513 436.631391 C 407.619376 436.631391 409.153588 438.170149 409.153588 440.073041 L 409.153588 476.462908 C 409.153588 478.3658 407.619376 479.904558 405.707513 479.904558 L 370.113814 479.904558 C 368.201951 479.904558 366.66774 478.3658 366.66774 476.462908 L 366.66774 440.073041 C 366.66774 438.170149 368.201951 436.631391 370.113814 436.631391 Z M 370.113814 436.631391 " transform="matrix(0.330993,0,0,0.332553,-120.395547,-144.398426)"/>
<path style="fill:none;stroke-width:0.0799806;stroke-linecap:butt;stroke-linejoin:miter;stroke:rgb(15.294118%,68.235294%,37.647059%);stroke-opacity:1;stroke-miterlimit:4;" d="M 496.398593 372.419086 L 496.398593 371.229023 " transform="matrix(0.249462,0,0,0.249462,-112.871453,-81.267547)"/>
<path style="fill:none;stroke-width:0.0799806;stroke-linecap:butt;stroke-linejoin:miter;stroke:rgb(15.294118%,68.235294%,37.647059%);stroke-opacity:1;stroke-miterlimit:4;" d="M 497.948806 372.419086 L 497.948806 371.229023 " transform="matrix(0.249462,0,0,0.249462,-112.871453,-81.267547)"/>
<path style="fill:none;stroke-width:0.0799806;stroke-linecap:butt;stroke-linejoin:miter;stroke:rgb(15.294118%,68.235294%,37.647059%);stroke-opacity:1;stroke-miterlimit:4;" d="M 499.483361 372.419086 L 499.483361 371.229023 " transform="matrix(0.249462,0,0,0.249462,-112.871453,-81.267547)"/>
<path style="fill:none;stroke-width:0.0799806;stroke-linecap:butt;stroke-linejoin:miter;stroke:rgb(15.294118%,68.235294%,37.647059%);stroke-opacity:1;stroke-miterlimit:4;" d="M 501.033575 372.419086 L 501.033575 371.229023 " transform="matrix(0.249462,0,0,0.249462,-112.871453,-81.267547)"/>
<path style="fill:none;stroke-width:0.0799806;stroke-linecap:butt;stroke-linejoin:miter;stroke:rgb(15.294118%,68.235294%,37.647059%);stroke-opacity:1;stroke-miterlimit:4;" d="M 482.46233 372.419086 L 482.46233 371.229023 " transform="matrix(0.249462,0,0,0.249462,-112.871453,-81.267547)"/>
<path style="fill:none;stroke-width:0.0799806;stroke-linecap:butt;stroke-linejoin:miter;stroke:rgb(15.294118%,68.235294%,37.647059%);stroke-opacity:1;stroke-miterlimit:4;" d="M 480.912117 372.419086 L 480.912117 371.229023 " transform="matrix(0.249462,0,0,0.249462,-112.871453,-81.267547)"/>
<path style="fill:none;stroke-width:0.0799806;stroke-linecap:butt;stroke-linejoin:miter;stroke:rgb(15.294118%,68.235294%,37.647059%);stroke-opacity:1;stroke-miterlimit:4;" d="M 479.361903 372.419086 L 479.361903 371.229023 " transform="matrix(0.249462,0,0,0.249462,-112.871453,-81.267547)"/>
<path style=" stroke:none;fill-rule:nonzero;fill:rgb(18.039216%,80%,44.313725%);fill-opacity:1;" d="M 2.511719 5.199219 L 2.511719 11.652344 L 13.488281 11.652344 Z M 4.175781 8.164062 L 7.148438 9.914062 L 4.175781 9.9375 Z M 4.175781 8.164062 "/>
<path style=" stroke:none;fill-rule:nonzero;fill:rgb(92.54902%,94.117647%,94.509804%);fill-opacity:1;" d="M 8.90625 7.488281 C 8.90625 7.488281 10.730469 11.796875 11.660156 13.40625 C 12 13.992188 12.503906 11.285156 12.089844 9.746094 C 11.777344 8.578125 10.027344 6.761719 10.027344 6.761719 Z M 8.90625 7.488281 "/>
<path style="fill:none;stroke-width:0.0799806;stroke-linecap:butt;stroke-linejoin:miter;stroke:rgb(15.294118%,68.235294%,37.647059%);stroke-opacity:1;stroke-miterlimit:4;" d="M 477.827348 372.419086 L 477.827348 371.229023 " transform="matrix(0.249462,0,0,0.249462,-112.871453,-81.267547)"/>
<path style=" stroke:none;fill-rule:nonzero;fill:rgb(92.54902%,94.117647%,94.509804%);fill-opacity:1;" d="M 9.488281 7.4375 C 9.488281 7.4375 7.660156 11.75 6.734375 13.355469 C 6.394531 13.945312 5.890625 11.238281 6.304688 9.695312 C 6.617188 8.527344 8.367188 6.710938 8.367188 6.710938 Z M 9.488281 7.4375 "/>
<path style=" stroke:none;fill-rule:nonzero;fill:rgb(92.54902%,94.117647%,94.509804%);fill-opacity:1;" d="M 10.019531 6.648438 C 10.019531 7.121094 9.632812 7.507812 9.160156 7.507812 C 8.6875 7.507812 8.304688 7.121094 8.304688 6.648438 C 8.304688 6.175781 8.6875 5.792969 9.160156 5.792969 C 9.632812 5.792969 10.019531 6.175781 10.019531 6.648438 Z M 10.019531 6.648438 "/>
<path style=" stroke:none;fill-rule:nonzero;fill:rgb(16.078431%,50.196078%,72.54902%);fill-opacity:1;" d="M 6.492188 2.511719 C 6.09375 2.511719 5.683594 2.671875 5.316406 3.074219 C 4.457031 4.019531 5.207031 5.921875 6.175781 6.699219 C 6.726562 7.144531 8.3125 6.8125 8.308594 6.742188 C 8.242188 5.949219 9.007812 5.835938 9.109375 5.746094 C 9.167969 5.699219 8.570312 4.824219 8.421875 4.011719 C 8.308594 3.390625 7.433594 2.507812 6.492188 2.511719 Z M 6.535156 3.507812 C 7.007812 3.523438 7.632812 3.941406 7.816406 4.347656 C 7.929688 4.609375 8.132812 5.4375 7.792969 5.765625 C 7.527344 6.019531 6.984375 5.964844 6.695312 5.738281 C 6.128906 5.289062 5.703125 4.078125 6.136719 3.644531 C 6.238281 3.542969 6.378906 3.503906 6.535156 3.507812 Z M 6.535156 3.507812 "/>
<path style=" stroke:none;fill-rule:nonzero;fill:rgb(16.078431%,50.196078%,72.54902%);fill-opacity:1;" d="M 11.824219 2.511719 C 10.882812 2.507812 10.007812 3.390625 9.894531 4.011719 C 9.746094 4.824219 9.148438 5.699219 9.207031 5.746094 C 9.308594 5.835938 10.074219 5.949219 10.007812 6.742188 C 10.003906 6.8125 11.589844 7.144531 12.140625 6.699219 C 13.109375 5.921875 13.859375 4.019531 13 3.074219 C 12.628906 2.671875 12.222656 2.511719 11.824219 2.511719 Z M 11.910156 3.507812 C 12.066406 3.503906 12.207031 3.542969 12.304688 3.644531 C 12.738281 4.078125 12.316406 5.289062 11.746094 5.738281 C 11.460938 5.964844 10.917969 6.019531 10.652344 5.765625 C 10.3125 5.4375 10.511719 4.609375 10.628906 4.347656 C 10.8125 3.941406 11.4375 3.523438 11.910156 3.507812 Z M 11.910156 3.507812 "/>
<path style="fill:none;stroke-width:0.0799806;stroke-linecap:butt;stroke-linejoin:miter;stroke:rgb(15.294118%,68.235294%,37.647059%);stroke-opacity:1;stroke-miterlimit:4;" d="M 493.298166 372.419086 L 493.298166 371.229023 " transform="matrix(0.249462,0,0,0.249462,-112.871453,-81.267547)"/>
<path style="fill:none;stroke-width:0.0799806;stroke-linecap:butt;stroke-linejoin:miter;stroke:rgb(15.294118%,68.235294%,37.647059%);stroke-opacity:1;stroke-miterlimit:4;" d="M 491.747952 372.419086 L 491.747952 371.229023 " transform="matrix(0.249462,0,0,0.249462,-112.871453,-81.267547)"/>
<path style="fill:none;stroke-width:0.0799806;stroke-linecap:butt;stroke-linejoin:miter;stroke:rgb(15.294118%,68.235294%,37.647059%);stroke-opacity:1;stroke-miterlimit:4;" d="M 494.848379 372.419086 L 494.848379 371.229023 " transform="matrix(0.249462,0,0,0.249462,-112.871453,-81.267547)"/>
<path style="fill:none;stroke-width:0.0799806;stroke-linecap:butt;stroke-linejoin:miter;stroke:rgb(15.294118%,68.235294%,37.647059%);stroke-opacity:1;stroke-miterlimit:4;" d="M 490.197739 372.419086 L 490.197739 371.229023 " transform="matrix(0.249462,0,0,0.249462,-112.871453,-81.267547)"/>
<path style="fill:none;stroke-width:0.0799806;stroke-linecap:butt;stroke-linejoin:miter;stroke:rgb(15.294118%,68.235294%,37.647059%);stroke-opacity:1;stroke-miterlimit:4;" d="M 488.663184 372.419086 L 488.663184 371.229023 " transform="matrix(0.249462,0,0,0.249462,-112.871453,-81.267547)"/>
<path style="fill:none;stroke-width:0.0799806;stroke-linecap:butt;stroke-linejoin:miter;stroke:rgb(15.294118%,68.235294%,37.647059%);stroke-opacity:1;stroke-miterlimit:4;" d="M 487.112971 372.419086 L 487.112971 371.229023 " transform="matrix(0.249462,0,0,0.249462,-112.871453,-81.267547)"/>
<path style="fill:none;stroke-width:0.0799806;stroke-linecap:butt;stroke-linejoin:miter;stroke:rgb(15.294118%,68.235294%,37.647059%);stroke-opacity:1;stroke-miterlimit:4;" d="M 485.562757 372.419086 L 485.562757 371.229023 " transform="matrix(0.249462,0,0,0.249462,-112.871453,-81.267547)"/>
<path style="fill:none;stroke-width:0.0799806;stroke-linecap:butt;stroke-linejoin:miter;stroke:rgb(15.294118%,68.235294%,37.647059%);stroke-opacity:1;stroke-miterlimit:4;" d="M 476.277135 372.419086 L 476.277135 371.229023 " transform="matrix(0.249462,0,0,0.249462,-112.871453,-81.267547)"/>
<path style="fill:none;stroke-width:0.0799806;stroke-linecap:butt;stroke-linejoin:miter;stroke:rgb(15.294118%,68.235294%,37.647059%);stroke-opacity:1;stroke-miterlimit:4;" d="M 474.726921 372.419086 L 474.726921 371.229023 " transform="matrix(0.249462,0,0,0.249462,-112.871453,-81.267547)"/>
<path style="fill:none;stroke-width:0.0799806;stroke-linecap:butt;stroke-linejoin:miter;stroke:rgb(15.294118%,68.235294%,37.647059%);stroke-opacity:1;stroke-miterlimit:4;" d="M 473.176708 372.419086 L 473.176708 371.229023 " transform="matrix(0.249462,0,0,0.249462,-112.871453,-81.267547)"/>
<path style="fill:none;stroke-width:0.0799806;stroke-linecap:butt;stroke-linejoin:miter;stroke:rgb(15.294118%,68.235294%,37.647059%);stroke-opacity:1;stroke-miterlimit:4;" d="M 471.626494 372.419086 L 471.626494 371.229023 " transform="matrix(0.249462,0,0,0.249462,-112.871453,-81.267547)"/>
<path style="fill:none;stroke-width:0.0799806;stroke-linecap:butt;stroke-linejoin:miter;stroke:rgb(15.294118%,68.235294%,37.647059%);stroke-opacity:1;stroke-miterlimit:4;" d="M 470.076281 372.419086 L 470.076281 371.229023 " transform="matrix(0.249462,0,0,0.249462,-112.871453,-81.267547)"/>
<path style="fill:none;stroke-width:0.0799806;stroke-linecap:butt;stroke-linejoin:miter;stroke:rgb(15.294118%,68.235294%,37.647059%);stroke-opacity:1;stroke-miterlimit:4;" d="M 468.541726 372.419086 L 468.541726 371.229023 " transform="matrix(0.249462,0,0,0.249462,-112.871453,-81.267547)"/>
<path style="fill:none;stroke-width:0.0799806;stroke-linecap:butt;stroke-linejoin:miter;stroke:rgb(15.294118%,68.235294%,37.647059%);stroke-opacity:1;stroke-miterlimit:4;" d="M 466.991512 372.419086 L 466.991512 371.229023 " transform="matrix(0.249462,0,0,0.249462,-112.871453,-81.267547)"/>
<path style="fill:none;stroke-width:0.0799806;stroke-linecap:butt;stroke-linejoin:miter;stroke:rgb(15.294118%,68.235294%,37.647059%);stroke-opacity:1;stroke-miterlimit:4;" d="M 465.441299 372.419086 L 465.441299 371.229023 " transform="matrix(0.249462,0,0,0.249462,-112.871453,-81.267547)"/>
<path style="fill:none;stroke-width:0.0799806;stroke-linecap:butt;stroke-linejoin:miter;stroke:rgb(15.294118%,68.235294%,37.647059%);stroke-opacity:1;stroke-miterlimit:4;" d="M 463.891085 372.419086 L 463.891085 371.229023 " transform="matrix(0.249462,0,0,0.249462,-112.871453,-81.267547)"/>
<path style="fill:none;stroke-width:0.0799806;stroke-linecap:butt;stroke-linejoin:miter;stroke:rgb(15.294118%,68.235294%,37.647059%);stroke-opacity:1;stroke-miterlimit:4;" d="M 502.583788 372.419086 L 502.583788 371.229023 " transform="matrix(0.249462,0,0,0.249462,-112.871453,-81.267547)"/>
<path style="fill:none;stroke-width:0.0799806;stroke-linecap:butt;stroke-linejoin:miter;stroke:rgb(15.294118%,68.235294%,37.647059%);stroke-opacity:1;stroke-miterlimit:4;" d="M 484.012544 372.419086 L 484.012544 371.229023 " transform="matrix(0.249462,0,0,0.249462,-112.871453,-81.267547)"/>
</g>
</svg>
