<?xml version="1.0" encoding="UTF-8"?>
<svg xmlns="http://www.w3.org/2000/svg" xmlns:xlink="http://www.w3.org/1999/xlink" width="16pt" height="16pt" viewBox="0 0 16 16" version="1.1">
<g id="surface1">
<path style="fill-rule:nonzero;fill:rgb(98.431373%,94.901961%,94.901961%);fill-opacity:1;stroke-width:2.445688;stroke-linecap:butt;stroke-linejoin:miter;stroke:rgb(87.843137%,27.45098%,7.45098%);stroke-opacity:1;stroke-miterlimit:4;" d="M 6.738281 2.894531 L 41.261719 2.894531 C 43.113281 2.894531 44.625 4.40625 44.625 6.257812 L 44.625 41.742188 C 44.625 43.59375 43.113281 45.105469 41.261719 45.105469 L 6.738281 45.105469 C 4.886719 45.105469 3.375 43.59375 3.375 41.742188 L 3.375 6.257812 C 3.375 4.40625 4.886719 2.894531 6.738281 2.894531 Z M 6.738281 2.894531 " transform="matrix(0.333333,0,0,0.333333,0,0)"/>
<path style=" stroke:none;fill-rule:evenodd;fill:rgb(87.843137%,27.45098%,7.45098%);fill-opacity:1;" d="M 8 4.851562 C 10.472656 2.378906 13.347656 4.105469 13.324219 6.449219 C 13.304688 8.589844 12.105469 9.027344 8 12.835938 C 3.703125 9.292969 2.652344 8.992188 2.675781 6.449219 C 2.699219 3.816406 5.234375 2.46875 8 4.851562 Z M 8 4.851562 "/>
</g>
</svg>
