<!-- color: #686868 -->
<svg xmlns="http://www.w3.org/2000/svg" xmlns:xlink="http://www.w3.org/1999/xlink" width="16px" height="16px" viewBox="0 0 16 16" version="1.1">
<defs>
<clipPath id="clip1">
  <path d="M 5 4 L 11 4 L 11 12 L 5 12 Z M 5 4 "/>
</clipPath>
<clipPath id="clip2">
  <path d="M 15.667969 8 C 15.667969 12.234375 12.230469 15.667969 8 15.667969 C 3.769531 15.667969 0.332031 12.234375 0.332031 8 C 0.332031 3.765625 3.769531 0.332031 8 0.332031 C 12.230469 0.332031 15.667969 3.765625 15.667969 8 Z M 15.667969 8 "/>
</clipPath>
</defs>
<g id="surface1">
<path style="fill-rule:nonzero;fill:rgb(39.607843%,39.607843%,39.607843%);fill-opacity:1;stroke-width:2.492126;stroke-linecap:butt;stroke-linejoin:miter;stroke:rgb(0%,34.509804%,41.960784%);stroke-opacity:1;stroke-miterlimit:4;" d="M 6.410156 2.496094 L 41.589844 2.496094 C 43.476562 2.496094 45.011719 4.03125 45.011719 5.917969 L 45.011719 42.082031 C 45.011719 43.96875 43.476562 45.503906 41.589844 45.503906 L 6.410156 45.503906 C 4.523438 45.503906 2.988281 43.96875 2.988281 42.082031 L 2.988281 5.917969 C 2.988281 4.03125 4.523438 2.496094 6.410156 2.496094 Z M 6.410156 2.496094 " transform="matrix(0.333333,0,0,0.333333,0,0)"/>
<g clip-path="url(#clip1)" clip-rule="nonzero">
<g clip-path="url(#clip2)" clip-rule="nonzero">
<path style=" stroke:none;fill-rule:nonzero;fill:rgb(95.686275%,69.019608%,0%);fill-opacity:1;" d="M 8 4.332031 C 8 4.332031 10.332031 4.378906 10.332031 6 L 10.332031 7.332031 C 10.332031 7.332031 11 7.300781 11 7.667969 L 11 11.082031 C 11 11.390625 10.695312 11.667969 10.355469 11.667969 L 5.644531 11.667969 C 5.308594 11.667969 5 11.390625 5 11.082031 L 5 7.667969 C 5 7.300781 5.667969 7.332031 5.667969 7.332031 L 5.667969 6 C 5.683594 4.375 8 4.332031 8 4.332031 M 8 5.332031 C 8 5.332031 6.667969 5.28125 6.667969 6.5 L 6.667969 7.332031 L 9.332031 7.332031 L 9.332031 6.5 C 9.332031 5.28125 8 5.332031 8 5.332031 M 8 5.332031 "/>
</g>
</g>
</g>
</svg>
