
<svg xmlns="http://www.w3.org/2000/svg" xmlns:xlink="http://www.w3.org/1999/xlink" width="48px" height="48px" viewBox="0 0 48 48" version="1.1">
<g id="surface1">
<path style=" stroke:none;fill-rule:nonzero;fill:#6B6B6B;fill-opacity:1;" d="M 9.535156 40.578125 L 38.441406 40.578125 L 38.441406 43.070312 L 9.535156 43.070312 Z M 9.535156 40.578125 "/>
<path style=" stroke:none;fill-rule:nonzero;fill:#6B6B6B;fill-opacity:1;" d="M 43.992188 6.695312 L 4.003906 6.695312 L 18.476562 42.855469 L 38.601562 42.988281 Z M 43.992188 6.695312 "/>
<path style=" stroke:none;fill-rule:nonzero;fill:#6B6B6B;fill-opacity:1;" d="M 12.5625 42.964844 L 9.421875 42.988281 C 10.855469 45.03125 16.941406 46.496094 24 46.5 C 31.085938 46.496094 37.1875 45.019531 38.59375 42.964844 Z M 12.5625 42.964844 "/>
<path style=" stroke:none;fill-rule:nonzero;fill:rgb(20%,20%,20%);fill-opacity:1;" d="M 44 6.824219 C 44 3.882812 35.046875 1.5 24 1.5 C 12.953125 1.5 4 3.882812 4 6.824219 C 4 9.765625 12.953125 12.152344 24 12.152344 C 35.046875 12.152344 44 9.765625 44 6.824219 Z M 44 6.824219 "/>
<path style=" stroke:none;fill-rule:nonzero;fill:#6B6B6B;fill-opacity:1;" d="M 4.003906 6.695312 L 4.011719 6.753906 C 4.015625 6.734375 4.019531 6.714844 4.023438 6.695312 Z M 43.984375 6.695312 C 43.984375 6.703125 43.984375 6.710938 43.984375 6.714844 L 43.992188 6.695312 Z M 4.09375 7.300781 L 9.398438 42.984375 L 29.519531 42.851562 L 43.457031 8.035156 C 43.304688 8.207031 43.125 8.375 42.910156 8.542969 C 42.910156 8.542969 42.910156 8.542969 42.90625 8.546875 C 42.902344 8.546875 42.898438 8.550781 42.894531 8.550781 C 42.6875 8.714844 42.445312 8.875 42.175781 9.035156 C 42.164062 9.039062 42.152344 9.046875 42.140625 9.054688 C 41.878906 9.207031 41.585938 9.355469 41.269531 9.5 C 41.242188 9.515625 41.210938 9.527344 41.183594 9.539062 C 40.875 9.679688 40.542969 9.8125 40.1875 9.945312 C 40.144531 9.960938 40.101562 9.972656 40.0625 9.988281 C 39.707031 10.117188 39.328125 10.242188 38.929688 10.359375 C 38.890625 10.371094 38.847656 10.386719 38.804688 10.398438 C 38.40625 10.515625 37.988281 10.628906 37.550781 10.734375 C 37.480469 10.753906 37.410156 10.769531 37.339844 10.785156 C 36.921875 10.886719 36.488281 10.980469 36.039062 11.074219 C 35.933594 11.09375 35.832031 11.113281 35.726562 11.132812 C 35.296875 11.214844 34.859375 11.292969 34.410156 11.367188 C 34.273438 11.390625 34.132812 11.410156 33.992188 11.429688 C 33.5625 11.5 33.125 11.5625 32.675781 11.621094 C 32.507812 11.640625 32.339844 11.660156 32.167969 11.679688 C 31.734375 11.730469 31.296875 11.78125 30.847656 11.824219 C 30.644531 11.84375 30.441406 11.863281 30.238281 11.878906 C 29.832031 11.914062 29.425781 11.949219 29.011719 11.976562 C 28.734375 11.996094 28.453125 12.011719 28.171875 12.027344 C 27.804688 12.050781 27.433594 12.070312 27.058594 12.085938 C 26.777344 12.09375 26.496094 12.105469 26.210938 12.113281 C 25.804688 12.125 25.398438 12.136719 24.992188 12.140625 C 24.660156 12.148438 24.332031 12.152344 24 12.152344 C 23.332031 12.152344 22.667969 12.140625 22.003906 12.125 C 12.472656 11.867188 4.964844 9.847656 4.097656 7.308594 C 4.097656 7.304688 4.09375 7.304688 4.09375 7.300781 Z M 4.09375 7.300781 "/>
<path style=" stroke:none;fill-rule:nonzero;fill:rgb(60%,60%,60%);fill-opacity:1;" d="M 4.113281 6.273438 C 4.039062 6.457031 4 6.640625 4 6.824219 C 4 9.765625 12.953125 12.152344 24 12.152344 C 35.046875 12.152344 44 9.765625 44 6.824219 C 43.992188 6.652344 43.957031 6.484375 43.886719 6.3125 C 42.824219 9.027344 34.242188 11.085938 24 11.085938 C 13.707031 11.085938 5.101562 9 4.113281 6.273438 Z M 4.113281 6.273438 "/>
<path style=" stroke:none;fill-rule:nonzero;fill:rgb(100%,100%,100%);fill-opacity:1;" d="M 20.503906 19.058594 L 17.984375 23.769531 L 22.015625 26.1875 L 24.214844 22.210938 L 24.980469 23.59375 L 24.269531 24.859375 L 28.375 24.859375 L 30.613281 20.828125 L 29.625 21.414062 L 28.339844 19.058594 Z M 31.453125 26.339844 L 27.425781 28.773438 L 29.625 32.769531 L 28.097656 32.769531 L 27.386719 31.484375 L 25.335938 35.183594 L 27.574219 39.234375 L 27.574219 38.066406 L 30.1875 38.066406 L 33.691406 31.734375 L 34.027344 31.132812 L 34.101562 30.976562 Z M 14.644531 27.78125 L 15.632812 28.367188 L 14.328125 30.722656 L 17.835938 37.050781 L 18.152344 37.65625 L 18.246094 37.8125 L 23.414062 37.734375 L 23.414062 32.867188 L 18.992188 32.867188 L 19.757812 31.484375 L 21.175781 31.484375 L 19.121094 27.78125 Z M 14.644531 27.78125 "/>
</g>
</svg>
