<?xml version="1.0" encoding="UTF-8"?>
<svg xmlns="http://www.w3.org/2000/svg" xmlns:xlink="http://www.w3.org/1999/xlink" width="32pt" height="32pt" viewBox="0 0 32 32" version="1.1">
<g id="surface1">
<path style=" stroke:none;fill-rule:nonzero;fill:rgb(30.196078%,30.196078%,30.196078%);fill-opacity:1;" d="M 7.273438 4.363281 C 5.660156 4.363281 4.363281 5.660156 4.363281 7.273438 C 4.363281 8.882812 5.660156 10.183594 7.273438 10.183594 L 7.273438 14.546875 L 4.363281 14.546875 L 4.363281 26.183594 L 7.273438 26.183594 L 7.273438 27.636719 L 27.636719 27.636719 L 27.636719 23.273438 L 7.273438 23.273438 L 7.273438 24.726562 L 5.816406 24.726562 L 5.816406 16 L 7.273438 16 L 7.273438 20.363281 L 27.636719 20.363281 L 27.636719 7.273438 L 10.183594 7.273438 C 10.183594 5.660156 8.882812 4.363281 7.273438 4.363281 Z M 7.273438 5.816406 C 8.078125 5.816406 8.726562 6.46875 8.726562 7.273438 C 8.726562 8.078125 8.078125 8.726562 7.273438 8.726562 C 6.46875 8.726562 5.816406 8.078125 5.816406 7.273438 C 5.816406 6.46875 6.46875 5.816406 7.273438 5.816406 Z M 8.726562 8.726562 L 26.183594 8.726562 L 26.183594 18.910156 L 8.726562 18.910156 Z M 8.726562 8.726562 "/>
</g>
</svg>
