<?xml version="1.0" encoding="UTF-8"?>
<svg xmlns="http://www.w3.org/2000/svg" xmlns:xlink="http://www.w3.org/1999/xlink" width="32pt" height="32pt" viewBox="0 0 32 32" version="1.1">
<g id="surface1">
<path style=" stroke:none;fill-rule:nonzero;fill:rgb(30.196078%,30.196078%,30.196078%);fill-opacity:1;" d="M 4.363281 4.363281 L 4.363281 27.636719 L 14.546875 27.636719 L 14.546875 26.183594 L 5.816406 26.183594 L 5.816406 10.183594 L 26.183594 10.183594 L 26.183594 17.453125 L 27.636719 17.453125 L 27.636719 4.363281 L 24.726562 4.363281 L 24.726562 7.273438 L 21.816406 7.273438 L 21.816406 4.363281 L 17.453125 4.363281 L 17.453125 7.273438 L 14.546875 7.273438 L 14.546875 4.363281 L 10.183594 4.363281 L 10.183594 7.273438 L 7.273438 7.273438 L 7.273438 4.363281 Z M 10.910156 11.636719 C 8.894531 11.636719 7.273438 13.257812 7.273438 15.273438 C 7.273438 15.902344 7.445312 16.488281 7.722656 17.003906 L 8.828125 15.898438 C 8.769531 15.699219 8.726562 15.492188 8.726562 15.273438 C 8.726562 14.0625 9.699219 13.089844 10.910156 13.089844 C 11.128906 13.089844 11.335938 13.132812 11.535156 13.191406 L 12.640625 12.089844 C 12.125 11.808594 11.539062 11.636719 10.910156 11.636719 Z M 14.09375 13.542969 L 12.988281 14.648438 C 13.046875 14.847656 13.089844 15.054688 13.089844 15.273438 C 13.089844 16.480469 12.117188 17.453125 10.910156 17.453125 C 10.691406 17.453125 10.484375 17.410156 10.285156 17.351562 L 9.179688 18.457031 C 9.695312 18.738281 10.277344 18.910156 10.910156 18.910156 C 12.921875 18.910156 14.546875 17.285156 14.546875 15.273438 C 14.546875 14.640625 14.375 14.058594 14.09375 13.542969 Z M 16 18.910156 L 16 27.636719 L 27.636719 27.636719 L 27.636719 18.910156 Z M 17.453125 20.363281 L 26.183594 20.363281 L 26.183594 21.816406 L 24.726562 21.816406 L 24.726562 24.726562 L 26.183594 24.726562 L 26.183594 26.183594 L 17.453125 26.183594 L 17.453125 24.726562 L 18.910156 24.726562 L 18.910156 21.816406 L 17.453125 21.816406 Z M 21.816406 21.816406 C 21.011719 21.816406 20.363281 22.46875 20.363281 23.273438 C 20.363281 24.078125 21.011719 24.726562 21.816406 24.726562 C 22.625 24.726562 23.273438 24.078125 23.273438 23.273438 C 23.273438 22.46875 22.625 21.816406 21.816406 21.816406 Z M 21.816406 21.816406 "/>
</g>
</svg>
