<?xml version="1.0" encoding="UTF-8"?>
<svg xmlns="http://www.w3.org/2000/svg" xmlns:xlink="http://www.w3.org/1999/xlink" width="48pt" height="48pt" viewBox="0 0 48 48" version="1.1">
<g id="surface1">
<path style="fill-rule:nonzero;fill:rgb(100%,100%,100%);fill-opacity:1;stroke-width:7.717832;stroke-linecap:butt;stroke-linejoin:miter;stroke:rgb(56.470588%,56.470588%,56.470588%);stroke-opacity:1;stroke-miterlimit:4;" d="M -13.648142 275.924942 L 81.907606 275.924942 C 90.43307 275.924942 97.347515 282.839387 97.347515 291.364851 L 97.347515 386.920599 C 97.347515 395.446063 90.43307 402.360508 81.907606 402.360508 L -13.648142 402.360508 C -22.173606 402.360508 -29.088051 395.446063 -29.088051 386.920599 L -29.088051 291.364851 C -29.088051 282.839387 -22.173606 275.924942 -13.648142 275.924942 Z M -13.648142 275.924942 " transform="matrix(0.332185,0,0,0.332185,12.662615,-88.65813)"/>
<path style=" stroke:none;fill-rule:nonzero;fill:rgb(90.196078%,90.196078%,90.196078%);fill-opacity:1;" d="M 24 10.707031 C 19.027344 10.707031 15.027344 14.707031 15.027344 19.679688 L 15.027344 37.292969 L 17.019531 37.292969 L 17.019531 19.679688 C 17.019531 15.8125 20.132812 12.699219 24 12.699219 C 27.867188 12.699219 30.980469 15.8125 30.980469 19.679688 L 30.980469 37.292969 L 32.972656 37.292969 L 32.972656 19.679688 C 32.972656 14.707031 28.972656 10.707031 24 10.707031 Z M 24 10.707031 "/>
<path style=" stroke:none;fill-rule:nonzero;fill:rgb(97.647059%,87.058824%,41.176471%);fill-opacity:1;" d="M 12.699219 37.292969 L 35.300781 37.292969 L 35.300781 24 L 12.699219 24 Z M 12.699219 37.292969 "/>
<path style=" stroke:none;fill-rule:nonzero;fill:rgb(13.333333%,21.176471%,33.72549%);fill-opacity:1;" d="M 24 26.660156 C 23.082031 26.660156 22.339844 27.402344 22.339844 28.320312 C 22.339844 28.980469 22.730469 29.578125 23.335938 29.84375 L 23.335938 34.636719 L 24.664062 34.636719 L 24.664062 29.84375 C 25.269531 29.578125 25.660156 28.980469 25.660156 28.320312 C 25.660156 27.402344 24.917969 26.660156 24 26.660156 Z M 24 26.660156 "/>
</g>
</svg>
