
<svg xmlns="http://www.w3.org/2000/svg" xmlns:xlink="http://www.w3.org/1999/xlink" width="16px" height="16px" viewBox="0 0 16 16" version="1.1">
<g id="surface1">
<path style="fill-rule:nonzero;fill:rgb(30.196078%,30.196078%,30.196078%);fill-opacity:1;stroke-width:33.073723;stroke-linecap:butt;stroke-linejoin:miter;stroke:rgb(83.137255%,33.333333%,0%);stroke-opacity:1;stroke-miterlimit:4;" d="M 95.214881 29.150402 L 504.785353 29.150402 C 541.259977 29.150402 570.849832 58.740257 570.849832 95.214881 L 570.849832 504.785353 C 570.849832 541.259977 541.259977 570.849832 504.785353 570.849832 L 95.214881 570.849832 C 58.740257 570.849832 29.150402 541.259977 29.150402 504.785353 L 29.150402 95.214881 C 29.150402 58.740257 58.740257 29.150402 95.214881 29.150402 Z M 95.214881 29.150402 " transform="matrix(0.0266667,0,0,0.0266667,0,0)"/>
<path style=" stroke:none;fill-rule:nonzero;fill:rgb(83.137255%,33.333333%,0%);fill-opacity:1;" d="M 4.328125 3.289062 L 14.265625 3.289062 C 14.757812 3.289062 15.160156 3.691406 15.160156 4.1875 L 15.160156 11.785156 C 15.160156 12.28125 14.757812 12.679688 14.265625 12.679688 L 4.328125 12.679688 C 3.832031 12.679688 3.433594 12.28125 3.433594 11.785156 L 3.433594 4.1875 C 3.433594 3.691406 3.832031 3.289062 4.328125 3.289062 Z M 4.328125 3.289062 "/>
<path style=" stroke:none;fill-rule:evenodd;fill:rgb(100%,100%,100%);fill-opacity:1;" d="M 5.027344 6.328125 L 8.488281 6.328125 C 8.671875 6.328125 8.820312 6.476562 8.820312 6.660156 C 8.820312 6.84375 8.671875 6.992188 8.488281 6.992188 L 5.027344 6.992188 C 4.84375 6.992188 4.695312 6.84375 4.695312 6.660156 C 4.695312 6.476562 4.84375 6.328125 5.027344 6.328125 Z M 5.027344 6.328125 "/>
<path style=" stroke:none;fill-rule:evenodd;fill:rgb(100%,100%,100%);fill-opacity:1;" d="M 5.023438 7.476562 L 8.488281 7.476562 C 8.667969 7.476562 8.816406 7.625 8.816406 7.808594 C 8.816406 7.992188 8.667969 8.140625 8.488281 8.140625 L 5.023438 8.140625 C 4.84375 8.140625 4.695312 7.992188 4.695312 7.808594 C 4.695312 7.625 4.84375 7.476562 5.023438 7.476562 Z M 5.023438 7.476562 "/>
<path style=" stroke:none;fill-rule:evenodd;fill:rgb(100%,100%,100%);fill-opacity:1;" d="M 5.023438 8.640625 L 8.488281 8.640625 C 8.667969 8.640625 8.816406 8.789062 8.816406 8.972656 C 8.816406 9.152344 8.667969 9.300781 8.488281 9.300781 L 5.023438 9.300781 C 4.84375 9.300781 4.695312 9.152344 4.695312 8.972656 C 4.695312 8.789062 4.84375 8.640625 5.023438 8.640625 Z M 5.023438 8.640625 "/>
</g>
</svg>
