<!-- color: #ef772a -->
<svg xmlns="http://www.w3.org/2000/svg" xmlns:xlink="http://www.w3.org/1999/xlink" width="16px" height="16px" viewBox="0 0 16 16" version="1.1">
<defs>
<clipPath id="clip1">
  <path d="M 5.21875 5.1875 L 8.28125 5.1875 L 8.28125 8.5 L 5.21875 8.5 Z M 5.21875 5.1875 "/>
</clipPath>
<clipPath id="clip2">
  <path d="M 15.632812 8.1875 C 15.632812 12.359375 12.25 15.738281 8.082031 15.738281 C 3.910156 15.738281 0.527344 12.359375 0.527344 8.1875 C 0.527344 4.015625 3.910156 0.632812 8.082031 0.632812 C 12.25 0.632812 15.632812 4.015625 15.632812 8.1875 Z M 15.632812 8.1875 "/>
</clipPath>
<clipPath id="clip3">
  <path d="M 10.0625 10.1875 L 12.375 10.1875 L 12.375 12.46875 L 10.0625 12.46875 Z M 10.0625 10.1875 "/>
</clipPath>
<clipPath id="clip4">
  <path d="M 15.632812 8.1875 C 15.632812 12.359375 12.25 15.738281 8.082031 15.738281 C 3.910156 15.738281 0.527344 12.359375 0.527344 8.1875 C 0.527344 4.015625 3.910156 0.632812 8.082031 0.632812 C 12.25 0.632812 15.632812 4.015625 15.632812 8.1875 Z M 15.632812 8.1875 "/>
</clipPath>
<clipPath id="clip5">
  <path d="M 8.59375 8.6875 L 10.65625 8.6875 L 10.65625 10.78125 L 8.59375 10.78125 Z M 8.59375 8.6875 "/>
</clipPath>
<clipPath id="clip6">
  <path d="M 15.632812 8.1875 C 15.632812 12.359375 12.25 15.738281 8.082031 15.738281 C 3.910156 15.738281 0.527344 12.359375 0.527344 8.1875 C 0.527344 4.015625 3.910156 0.632812 8.082031 0.632812 C 12.25 0.632812 15.632812 4.015625 15.632812 8.1875 Z M 15.632812 8.1875 "/>
</clipPath>
<clipPath id="clip7">
  <path d="M 3.8125 3.875 L 9.6875 3.875 L 9.6875 9.8125 L 3.8125 9.8125 Z M 3.8125 3.875 "/>
</clipPath>
<clipPath id="clip8">
  <path d="M 15.632812 8.1875 C 15.632812 12.359375 12.25 15.738281 8.082031 15.738281 C 3.910156 15.738281 0.527344 12.359375 0.527344 8.1875 C 0.527344 4.015625 3.910156 0.632812 8.082031 0.632812 C 12.25 0.632812 15.632812 4.015625 15.632812 8.1875 Z M 15.632812 8.1875 "/>
</clipPath>
</defs>
<g id="surface1">
<path style="fill-rule:nonzero;fill:rgb(93.333333%,43.921569%,11.372549%);fill-opacity:1;stroke-width:6.941165;stroke-linecap:butt;stroke-linejoin:miter;stroke:rgb(88.627451%,82.352941%,80.392157%);stroke-opacity:1;stroke-miterlimit:4;" d="M 21.03125 7.15625 L 106.96875 7.15625 C 114.625 7.15625 120.84375 13.375 120.84375 21.03125 L 120.84375 106.96875 C 120.84375 114.625 114.625 120.84375 106.96875 120.84375 L 21.03125 120.84375 C 13.375 120.84375 7.15625 114.625 7.15625 106.96875 L 7.15625 21.03125 C 7.15625 13.375 13.375 7.15625 21.03125 7.15625 Z M 21.03125 7.15625 " transform="matrix(0.125,0,0,0.125,0,0)"/>
<g clip-path="url(#clip1)" clip-rule="nonzero">
<g clip-path="url(#clip2)" clip-rule="nonzero">
<path style=" stroke:none;fill-rule:nonzero;fill:rgb(97.647059%,97.647059%,97.647059%);fill-opacity:1;" d="M 6.496094 5.214844 L 7 5.214844 L 8.253906 8.5 L 7.789062 8.5 L 7.492188 7.65625 L 6.015625 7.65625 L 5.707031 8.5 L 5.246094 8.5 M 6.746094 5.65625 L 6.148438 7.289062 L 7.347656 7.289062 M 6.742188 5.65625 "/>
</g>
</g>
<g clip-path="url(#clip3)" clip-rule="nonzero">
<g clip-path="url(#clip4)" clip-rule="nonzero">
<path style=" stroke:none;fill-rule:nonzero;fill:rgb(97.647059%,97.647059%,97.647059%);fill-opacity:1;" d="M 10.089844 10.902344 L 10.792969 10.199219 L 12.351562 11.753906 L 11.644531 12.457031 M 10.089844 10.902344 "/>
</g>
</g>
<g clip-path="url(#clip5)" clip-rule="nonzero">
<g clip-path="url(#clip6)" clip-rule="nonzero">
<path style=" stroke:none;fill-rule:nonzero;fill:rgb(97.647059%,97.647059%,97.647059%);fill-opacity:1;" d="M 8.597656 9.199219 L 9.089844 8.703125 L 10.644531 10.257812 L 10.152344 10.753906 M 8.597656 9.199219 "/>
</g>
</g>
<g clip-path="url(#clip7)" clip-rule="nonzero">
<g clip-path="url(#clip8)" clip-rule="nonzero">
<path style=" stroke:none;fill-rule:nonzero;fill:rgb(97.647059%,97.647059%,97.647059%);fill-opacity:1;" d="M 6.742188 3.90625 C 5.992188 3.90625 5.246094 4.207031 4.671875 4.777344 C 3.527344 5.921875 3.527344 7.777344 4.671875 8.925781 C 5.816406 10.070312 7.671875 10.070312 8.816406 8.925781 C 9.960938 7.777344 9.960938 5.921875 8.816406 4.777344 C 8.246094 4.207031 7.496094 3.90625 6.746094 3.90625 M 6.742188 4.414062 C 7.371094 4.414062 8.007812 4.625 8.488281 5.105469 C 9.449219 6.066406 9.449219 7.636719 8.488281 8.597656 C 7.527344 9.558594 5.960938 9.558594 5 8.597656 C 4.035156 7.636719 4.035156 6.066406 5 5.105469 C 5.480469 4.625 6.117188 4.414062 6.742188 4.414062 M 6.742188 4.414062 "/>
</g>
</g>
</g>
</svg>
