
<svg xmlns="http://www.w3.org/2000/svg" xmlns:xlink="http://www.w3.org/1999/xlink" width="16px" height="16px" viewBox="0 0 16 16" version="1.1">
<g id="surface1">
<path style="fill-rule:nonzero;fill:rgb(100%,100%,0%);fill-opacity:1;stroke-width:26.850443;stroke-linecap:butt;stroke-linejoin:miter;stroke:rgb(20%,20%,20%);stroke-opacity:1;stroke-miterlimit:4;" d="M 89.75 36.125 L 422.25 36.125 C 451.875 36.125 475.875 60.125 475.875 89.75 L 475.875 422.25 C 475.875 451.875 451.875 475.875 422.25 475.875 L 89.75 475.875 C 60.125 475.875 36.125 451.875 36.125 422.25 L 36.125 89.75 C 36.125 60.125 60.125 36.125 89.75 36.125 Z M 89.75 36.125 " transform="matrix(0.03125,0,0,0.03125,0,0)"/>
<path style=" stroke:none;fill-rule:nonzero;fill:rgb(30.196078%,30.196078%,30.196078%);fill-opacity:1;" d="M 8.871094 12.089844 C 8.75 12.066406 8.542969 11.960938 8.457031 11.886719 C 8.4375 11.867188 8.417969 11.855469 8.414062 11.855469 C 8.40625 11.855469 8.253906 11.71875 8.152344 11.621094 C 8.101562 11.574219 8.035156 11.511719 8.003906 11.480469 C 7.972656 11.453125 7.941406 11.421875 7.933594 11.417969 C 7.898438 11.378906 7.722656 11.261719 7.664062 11.234375 C 7.574219 11.195312 7.4375 11.171875 7.363281 11.183594 C 7.199219 11.207031 6.980469 11.332031 6.832031 11.488281 C 6.800781 11.519531 6.777344 11.523438 6.769531 11.492188 C 6.757812 11.457031 6.796875 11.390625 6.894531 11.285156 C 7.101562 11.054688 7.316406 10.941406 7.527344 10.9375 C 7.59375 10.9375 7.730469 10.96875 7.835938 11.003906 C 7.90625 11.03125 8.289062 11.246094 8.300781 11.265625 C 8.308594 11.28125 8.617188 11.457031 8.6875 11.484375 C 8.90625 11.574219 9.078125 11.550781 9.242188 11.402344 C 9.300781 11.355469 9.390625 11.222656 9.421875 11.140625 C 9.453125 11.050781 9.46875 11.046875 9.589844 11.109375 C 9.6875 11.160156 9.917969 11.238281 9.96875 11.238281 C 9.996094 11.238281 10.023438 11.296875 10.015625 11.339844 C 10.011719 11.359375 9.980469 11.425781 9.949219 11.488281 C 9.71875 11.917969 9.269531 12.167969 8.871094 12.089844 Z M 9.964844 11 C 9.925781 10.992188 9.871094 10.972656 9.84375 10.960938 C 9.8125 10.949219 9.78125 10.9375 9.769531 10.9375 C 9.738281 10.9375 9.460938 10.765625 9.375 10.691406 C 9.125 10.46875 8.824219 10.089844 8.523438 9.613281 C 8.503906 9.582031 8.265625 9.230469 8.207031 9.148438 C 8.195312 9.128906 8.117188 9.035156 8.039062 8.941406 C 7.777344 8.632812 7.519531 8.460938 7.15625 8.351562 C 6.9375 8.285156 6.539062 8.28125 6.152344 8.335938 C 6.101562 8.34375 5.960938 8.363281 5.839844 8.382812 C 5.082031 8.492188 4.660156 8.476562 4.199219 8.308594 C 3.910156 8.207031 3.582031 8.007812 3.335938 7.789062 C 3.289062 7.746094 3.238281 7.703125 3.222656 7.691406 C 3.195312 7.671875 3.15625 7.636719 3.128906 7.605469 C 3.109375 7.582031 3.109375 7.546875 3.132812 7.523438 C 3.148438 7.507812 3.167969 7.515625 3.273438 7.554688 C 3.824219 7.773438 4.359375 7.703125 5.1875 7.296875 C 5.296875 7.242188 5.40625 7.191406 5.421875 7.183594 C 5.441406 7.175781 5.460938 7.164062 5.464844 7.15625 C 5.472656 7.152344 5.515625 7.128906 5.558594 7.109375 C 5.6875 7.050781 5.78125 7 5.832031 6.96875 C 5.859375 6.953125 5.925781 6.917969 5.976562 6.894531 C 6.027344 6.867188 6.085938 6.839844 6.109375 6.828125 C 6.242188 6.757812 6.414062 6.675781 6.425781 6.675781 C 6.4375 6.675781 6.464844 6.664062 6.488281 6.648438 C 6.515625 6.632812 6.539062 6.621094 6.546875 6.621094 C 6.558594 6.621094 6.570312 6.617188 6.574219 6.609375 C 6.582031 6.601562 6.820312 6.5 6.871094 6.484375 C 6.882812 6.480469 6.945312 6.457031 7.011719 6.433594 C 7.078125 6.410156 7.144531 6.386719 7.160156 6.382812 C 7.175781 6.375 7.230469 6.359375 7.285156 6.339844 C 7.46875 6.28125 7.582031 6.257812 8 6.191406 C 8.128906 6.167969 8.609375 6.160156 8.761719 6.175781 C 9.058594 6.207031 9.304688 6.253906 9.496094 6.316406 C 9.632812 6.359375 9.828125 6.4375 9.890625 6.46875 C 9.996094 6.523438 10.007812 6.53125 10.015625 6.53125 C 10.046875 6.53125 10.375 6.742188 10.550781 6.875 C 10.722656 7.003906 10.984375 7.265625 11.148438 7.46875 C 11.515625 7.921875 11.765625 8.488281 11.824219 8.992188 C 11.851562 9.21875 11.847656 9.339844 11.804688 9.597656 C 11.792969 9.683594 11.726562 9.898438 11.703125 9.933594 C 11.695312 9.941406 11.679688 9.972656 11.671875 10 C 11.652344 10.058594 11.5625 10.210938 11.5 10.289062 C 11.261719 10.609375 10.875 10.875 10.523438 10.964844 C 10.492188 10.972656 10.441406 10.984375 10.414062 10.992188 C 10.339844 11.015625 10.050781 11.019531 9.964844 11 Z M 9.957031 10.195312 C 9.980469 10.164062 9.988281 10.140625 9.988281 10.09375 C 9.988281 10.011719 9.941406 9.957031 9.875 9.957031 C 9.765625 9.957031 9.714844 10.085938 9.78125 10.1875 C 9.828125 10.257812 9.90625 10.261719 9.957031 10.195312 Z M 11.289062 9.175781 C 11.390625 9.101562 11.34375 8.910156 11.222656 8.910156 C 11.167969 8.910156 11.105469 8.980469 11.105469 9.039062 C 11.105469 9.171875 11.199219 9.238281 11.289062 9.175781 Z M 6.308594 10.378906 C 5.988281 10.355469 5.691406 10.183594 5.472656 9.894531 C 5.339844 9.71875 5.347656 9.695312 5.535156 9.679688 C 5.667969 9.671875 5.871094 9.621094 5.964844 9.578125 C 6.160156 9.484375 6.34375 9.308594 6.476562 9.085938 C 6.503906 9.042969 6.566406 8.9375 6.617188 8.851562 C 6.773438 8.585938 6.804688 8.546875 6.851562 8.546875 C 6.921875 8.546875 7.085938 8.574219 7.183594 8.605469 C 7.289062 8.640625 7.4375 8.707031 7.46875 8.734375 C 7.476562 8.742188 7.496094 8.757812 7.515625 8.765625 C 7.5625 8.789062 7.6875 8.890625 7.757812 8.960938 C 7.871094 9.070312 8.101562 9.359375 8.175781 9.476562 C 8.1875 9.496094 8.230469 9.558594 8.269531 9.621094 C 8.519531 9.988281 8.523438 10 8.46875 10.042969 C 8.449219 10.058594 8.4375 10.0625 8.402344 10.050781 C 8.347656 10.03125 8.085938 10.03125 7.996094 10.050781 C 7.960938 10.058594 7.914062 10.066406 7.898438 10.066406 C 7.867188 10.070312 7.734375 10.101562 7.609375 10.128906 C 7.578125 10.136719 7.539062 10.148438 7.527344 10.15625 C 7.515625 10.160156 7.445312 10.179688 7.375 10.199219 C 7.300781 10.21875 7.199219 10.246094 7.148438 10.261719 C 6.996094 10.304688 6.972656 10.308594 6.847656 10.335938 C 6.75 10.359375 6.390625 10.394531 6.371094 10.386719 C 6.367188 10.386719 6.339844 10.382812 6.308594 10.378906 Z M 11.949219 10.058594 L 11.925781 10.023438 L 11.976562 9.84375 C 12.023438 9.667969 12.058594 9.492188 12.058594 9.429688 C 12.058594 9.371094 12.089844 9.355469 12.195312 9.355469 C 12.414062 9.355469 12.605469 9.230469 12.691406 9.027344 C 12.761719 8.859375 12.78125 8.71875 12.789062 8.316406 C 12.796875 7.859375 12.804688 7.742188 12.832031 7.582031 C 12.878906 7.3125 12.976562 7.121094 13.144531 6.972656 C 13.207031 6.914062 13.21875 6.90625 13.320312 6.84375 C 13.40625 6.792969 13.578125 6.726562 13.636719 6.722656 C 13.683594 6.71875 13.6875 6.722656 13.6875 6.75 C 13.6875 6.777344 13.671875 6.789062 13.59375 6.832031 C 13.503906 6.878906 13.410156 6.945312 13.3125 7.035156 C 13.199219 7.136719 13.09375 7.359375 13.070312 7.542969 C 13.050781 7.6875 13.070312 7.980469 13.113281 8.199219 C 13.195312 8.609375 13.195312 9.101562 13.113281 9.273438 C 13.101562 9.292969 13.089844 9.328125 13.085938 9.347656 C 13.070312 9.429688 12.914062 9.660156 12.8125 9.757812 C 12.703125 9.863281 12.691406 9.875 12.601562 9.929688 C 12.441406 10.027344 12.234375 10.089844 12.070312 10.089844 C 11.984375 10.089844 11.972656 10.085938 11.949219 10.058594 Z M 11.65625 7.847656 C 11.558594 7.675781 11.527344 7.625 11.429688 7.488281 C 11.203125 7.171875 10.933594 6.886719 10.667969 6.679688 C 10.476562 6.53125 10.480469 6.535156 10.484375 6.496094 C 10.492188 6.414062 10.707031 6.339844 11.132812 6.269531 C 11.441406 6.21875 11.636719 6.132812 11.773438 5.988281 C 11.863281 5.894531 11.910156 5.820312 11.964844 5.675781 C 11.984375 5.617188 12.015625 5.5625 12.027344 5.550781 C 12.046875 5.535156 12.054688 5.535156 12.097656 5.558594 C 12.25 5.648438 12.421875 5.824219 12.496094 5.972656 C 12.5625 6.109375 12.582031 6.324219 12.535156 6.503906 C 12.5 6.644531 12.375 6.925781 12.289062 7.054688 C 12.269531 7.089844 12.230469 7.152344 12.207031 7.191406 C 12.183594 7.234375 12.136719 7.308594 12.101562 7.359375 C 11.984375 7.542969 11.847656 7.777344 11.816406 7.855469 C 11.792969 7.910156 11.761719 7.945312 11.726562 7.945312 C 11.714844 7.945312 11.6875 7.902344 11.65625 7.847656 Z M 3.757812 7.4375 C 3.320312 7.394531 2.957031 7.191406 2.726562 6.855469 C 2.609375 6.6875 2.558594 6.585938 2.457031 6.308594 C 2.421875 6.21875 2.363281 5.925781 2.34375 5.757812 C 2.324219 5.589844 2.328125 5.277344 2.347656 5.1875 C 2.371094 5.085938 2.433594 5.070312 2.472656 5.152344 C 2.496094 5.203125 2.628906 5.332031 2.707031 5.378906 C 2.773438 5.417969 2.785156 5.421875 2.890625 5.421875 C 2.980469 5.421875 3.011719 5.417969 3.074219 5.386719 C 3.214844 5.324219 3.285156 5.277344 3.613281 5.019531 C 3.78125 4.890625 3.980469 4.769531 4.117188 4.714844 C 4.222656 4.671875 4.238281 4.667969 4.433594 4.664062 C 4.621094 4.65625 4.644531 4.660156 4.714844 4.683594 C 4.8125 4.71875 4.964844 4.8125 5.015625 4.867188 C 5.039062 4.890625 5.058594 4.910156 5.066406 4.910156 C 5.070312 4.910156 5.082031 4.925781 5.085938 4.945312 C 5.109375 5.007812 5.089844 5.035156 5.003906 5.054688 C 4.847656 5.085938 4.652344 5.1875 4.453125 5.332031 C 4.277344 5.460938 4.027344 5.742188 3.921875 5.9375 C 3.839844 6.085938 3.757812 6.289062 3.734375 6.414062 C 3.707031 6.539062 3.707031 6.769531 3.734375 6.871094 C 3.773438 7.027344 3.859375 7.207031 3.9375 7.308594 C 3.976562 7.355469 3.980469 7.394531 3.949219 7.425781 C 3.929688 7.445312 3.878906 7.449219 3.757812 7.4375 Z M 3.757812 7.4375 "/>
</g>
</svg>
