
<svg xmlns="http://www.w3.org/2000/svg" xmlns:xlink="http://www.w3.org/1999/xlink" width="16px" height="16px" viewBox="0 0 16 16" version="1.1">
<g id="surface1">
<path style="fill-rule:nonzero;fill:rgb(82.352941%,21.176471%,21.960784%);fill-opacity:1;stroke-width:28.034744;stroke-linecap:butt;stroke-linejoin:miter;stroke:rgb(56.862745%,29.019608%,29.019608%);stroke-opacity:1;stroke-miterlimit:4;" d="M 82.5 26.375 L 429.5 26.375 C 460.5 26.375 485.625 51.5 485.625 82.5 L 485.625 429.5 C 485.625 460.5 460.5 485.625 429.5 485.625 L 82.5 485.625 C 51.5 485.625 26.375 460.5 26.375 429.5 L 26.375 82.5 C 26.375 51.5 51.5 26.375 82.5 26.375 Z M 82.5 26.375 " transform="matrix(0.03125,0,0,0.03125,0,0)"/>
<path style=" stroke:none;fill-rule:nonzero;fill:rgb(100%,100%,100%);fill-opacity:1;" d="M 12.242188 6.808594 C 11.722656 7.367188 10.832031 7.964844 9.570312 8.601562 C 8.792969 11.339844 7.648438 12.710938 6.140625 12.710938 C 5.125 12.710938 4.664062 12.25 4.746094 11.332031 C 4.796875 10.800781 5.144531 10.296875 5.800781 9.824219 C 6.265625 9.492188 7.003906 9.097656 8.019531 8.644531 C 8.132812 8.300781 8.222656 7.984375 8.289062 7.691406 C 7.53125 8.496094 6.742188 8.894531 5.929688 8.882812 C 5.367188 8.875 4.980469 8.652344 4.761719 8.214844 C 4.609375 7.894531 4.554688 7.5 4.589844 7.035156 C 4.675781 6.039062 5.074219 5.207031 5.785156 4.53125 C 6.496094 3.851562 7.351562 3.507812 8.347656 3.507812 C 8.800781 3.507812 9.238281 3.570312 9.65625 3.691406 C 10.070312 3.808594 10.324219 3.941406 10.410156 4.089844 C 10.277344 4.984375 10.058594 6.238281 9.753906 7.859375 C 10.824219 7.347656 11.578125 6.875 12.015625 6.4375 Z M 8.359375 5.355469 C 8.371094 5.1875 8.335938 5.054688 8.261719 4.960938 C 8.195312 4.855469 8.070312 4.808594 7.890625 4.816406 C 7.511719 4.835938 7.152344 5.109375 6.808594 5.640625 C 6.523438 6.097656 6.375 6.496094 6.355469 6.835938 C 6.335938 7.1875 6.492188 7.363281 6.824219 7.363281 C 7.15625 7.363281 7.492188 7.113281 7.832031 6.609375 C 8.15625 6.144531 8.332031 5.726562 8.359375 5.355469 Z M 7.59375 9.554688 C 6.757812 9.960938 6.332031 10.289062 6.3125 10.535156 C 6.300781 10.667969 6.375 10.734375 6.523438 10.734375 C 6.800781 10.734375 7.15625 10.339844 7.59375 9.554688 Z M 7.59375 9.554688 "/>
</g>
</svg>
