
<svg xmlns="http://www.w3.org/2000/svg" xmlns:xlink="http://www.w3.org/1999/xlink" width="16px" height="16px" viewBox="0 0 16 16" version="1.1">
<defs>
<clipPath id="clip1">
  <path d="M 1 1 L 15 1 L 15 15 L 1 15 Z M 1 1 "/>
</clipPath>
<clipPath id="clip2">
  <path d="M 2.554688 1.015625 L 13.445312 1.015625 C 14.296875 1.015625 14.984375 1.703125 14.984375 2.554688 L 14.984375 13.445312 C 14.984375 14.296875 14.296875 14.984375 13.445312 14.984375 L 2.554688 14.984375 C 1.703125 14.984375 1.015625 14.296875 1.015625 13.445312 L 1.015625 2.554688 C 1.015625 1.703125 1.703125 1.015625 2.554688 1.015625 Z M 2.554688 1.015625 "/>
</clipPath>
<clipPath id="clip3">
  <path d="M 3.84375 1.59375 L 12.15625 1.59375 L 12.15625 7.4375 L 3.84375 7.4375 Z M 3.84375 1.59375 "/>
</clipPath>
<clipPath id="clip4">
  <path d="M 2.554688 1.015625 L 13.445312 1.015625 C 14.296875 1.015625 14.984375 1.703125 14.984375 2.554688 L 14.984375 13.445312 C 14.984375 14.296875 14.296875 14.984375 13.445312 14.984375 L 2.554688 14.984375 C 1.703125 14.984375 1.015625 14.296875 1.015625 13.445312 L 1.015625 2.554688 C 1.015625 1.703125 1.703125 1.015625 2.554688 1.015625 Z M 2.554688 1.015625 "/>
</clipPath>
<clipPath id="clip5">
  <path d="M 3.84375 8.5625 L 12.15625 8.5625 L 12.15625 14.40625 L 3.84375 14.40625 Z M 3.84375 8.5625 "/>
</clipPath>
<clipPath id="clip6">
  <path d="M 2.554688 1.015625 L 13.445312 1.015625 C 14.296875 1.015625 14.984375 1.703125 14.984375 2.554688 L 14.984375 13.445312 C 14.984375 14.296875 14.296875 14.984375 13.445312 14.984375 L 2.554688 14.984375 C 1.703125 14.984375 1.015625 14.296875 1.015625 13.445312 L 1.015625 2.554688 C 1.015625 1.703125 1.703125 1.015625 2.554688 1.015625 Z M 2.554688 1.015625 "/>
</clipPath>
</defs>
<g id="surface1">
<path style="fill-rule:evenodd;fill:rgb(16.078431%,50.196078%,72.54902%);fill-opacity:1;stroke-width:2.931121;stroke-linecap:butt;stroke-linejoin:miter;stroke:rgb(32.156863%,32.156863%,32.156863%);stroke-opacity:1;stroke-miterlimit:4;" d="M 6.960937 2.132812 L 41.039061 2.132812 C 43.710936 2.132812 45.867186 4.289062 45.867186 6.960937 L 45.867186 41.039061 C 45.867186 43.710936 43.710936 45.867186 41.039061 45.867186 L 6.960937 45.867186 C 4.289062 45.867186 2.132812 43.710936 2.132812 41.039061 L 2.132812 6.960937 C 2.132812 4.289062 4.289062 2.132812 6.960937 2.132812 Z M 6.960937 2.132812 " transform="matrix(0.333333,0,0,0.333333,0,0)"/>
<g clip-path="url(#clip1)" clip-rule="nonzero">
<g clip-path="url(#clip2)" clip-rule="nonzero">
<path style=" stroke:none;fill-rule:nonzero;fill:rgb(17.254902%,24.313725%,31.372549%);fill-opacity:1;" d="M 0.46875 0.46875 L 0.46875 15.53125 L 15.53125 15.53125 L 15.53125 0.46875 Z M 1.601562 1.601562 L 2.730469 1.601562 L 2.730469 2.730469 L 1.601562 2.730469 Z M 13.269531 1.601562 L 14.398438 1.601562 L 14.398438 2.730469 L 13.269531 2.730469 Z M 1.601562 4.421875 L 2.730469 4.421875 L 2.730469 5.554688 L 1.601562 5.554688 Z M 13.269531 4.421875 L 14.398438 4.421875 L 14.398438 5.554688 L 13.269531 5.554688 Z M 1.601562 7.433594 L 2.730469 7.433594 L 2.730469 8.566406 L 1.601562 8.566406 Z M 13.269531 7.433594 L 14.398438 7.433594 L 14.398438 8.566406 L 13.269531 8.566406 Z M 1.601562 10.445312 L 2.730469 10.445312 L 2.730469 11.578125 L 1.601562 11.578125 Z M 13.269531 10.445312 L 14.398438 10.445312 L 14.398438 11.578125 L 13.269531 11.578125 Z M 1.601562 13.269531 L 2.730469 13.269531 L 2.730469 14.398438 L 1.601562 14.398438 Z M 13.269531 13.269531 L 14.398438 13.269531 L 14.398438 14.398438 L 13.269531 14.398438 Z M 13.269531 13.269531 "/>
</g>
</g>
<g clip-path="url(#clip3)" clip-rule="nonzero">
<g clip-path="url(#clip4)" clip-rule="nonzero">
<path style=" stroke:none;fill-rule:nonzero;fill:rgb(100%,28.627451%,27.45098%);fill-opacity:1;" d="M 3.859375 1.601562 L 12.140625 1.601562 L 12.140625 7.433594 L 3.859375 7.433594 Z M 3.859375 1.601562 "/>
</g>
</g>
<g clip-path="url(#clip5)" clip-rule="nonzero">
<g clip-path="url(#clip6)" clip-rule="nonzero">
<path style=" stroke:none;fill-rule:nonzero;fill:rgb(32.156863%,74.509804%,91.764706%);fill-opacity:1;" d="M 3.859375 8.566406 L 12.140625 8.566406 L 12.140625 14.398438 L 3.859375 14.398438 Z M 3.859375 8.566406 "/>
</g>
</g>
</g>
</svg>
