
<svg xmlns="http://www.w3.org/2000/svg" xmlns:xlink="http://www.w3.org/1999/xlink" width="16px" height="16px" viewBox="0 0 16 16" version="1.1">
<g id="surface1">
<path style="fill-rule:nonzero;fill:rgb(16.078431%,50.196078%,72.54902%);fill-opacity:1;stroke-width:35.076149;stroke-linecap:butt;stroke-linejoin:miter;stroke:rgb(0%,41.568627%,72.54902%);stroke-opacity:1;stroke-miterlimit:4;" d="M 102.8125 32.65625 L 537.1875 32.65625 C 575.9375 32.65625 607.34375 64.0625 607.34375 102.8125 L 607.34375 537.1875 C 607.34375 575.9375 575.9375 607.34375 537.1875 607.34375 L 102.8125 607.34375 C 64.0625 607.34375 32.65625 575.9375 32.65625 537.1875 L 32.65625 102.8125 C 32.65625 64.0625 64.0625 32.65625 102.8125 32.65625 Z M 102.8125 32.65625 " transform="matrix(0.025,0,0,0.025,0,0)"/>
<path style=" stroke:none;fill-rule:nonzero;fill:rgb(29.803922%,29.803922%,29.803922%);fill-opacity:1;" d="M 9.34375 12.636719 L 13.820312 4.878906 L 14.757812 5.417969 L 10.28125 13.179688 Z M 9.34375 12.636719 "/>
<path style=" stroke:none;fill-rule:nonzero;fill:rgb(29.803922%,29.803922%,29.803922%);fill-opacity:1;" d="M 8.964844 14.3125 L 9.023438 14.34375 L 10.28125 13.179688 L 9.34375 12.636719 Z M 8.964844 14.3125 "/>
<path style=" stroke:none;fill-rule:nonzero;fill:rgb(94.901961%,94.901961%,94.901961%);fill-opacity:1;" d="M 7.210938 9.476562 L 6.070312 9.476562 L 3.554688 5.800781 L 6.070312 2.542969 L 7.210938 2.542969 L 4.695312 5.800781 L 7.210938 9.476562 M 3.597656 9.476562 L 2.546875 9.476562 L 2.546875 2.542969 L 3.597656 2.542969 L 3.597656 9.476562 "/>
<path style=" stroke:none;fill-rule:nonzero;fill:rgb(94.901961%,94.901961%,94.901961%);fill-opacity:1;" d="M 7.785156 9.496094 C 7.609375 9.496094 7.523438 9.398438 7.523438 9.203125 C 7.523438 9.003906 7.609375 8.90625 7.785156 8.90625 C 7.871094 8.90625 7.9375 8.933594 7.984375 8.980469 C 8.03125 9.03125 8.054688 9.105469 8.054688 9.203125 C 8.054688 9.398438 7.964844 9.496094 7.785156 9.496094 M 10.285156 8.933594 L 10.285156 9.472656 L 8.300781 9.472656 L 8.300781 8.933594 L 10.285156 8.933594 "/>
<path style=" stroke:none;fill-rule:nonzero;fill:rgb(94.901961%,94.901961%,94.901961%);fill-opacity:1;" d="M 10.285156 7.824219 L 10.285156 8.367188 L 7.523438 8.367188 L 7.523438 7.824219 L 10.285156 7.824219 "/>
<path style=" stroke:none;fill-rule:nonzero;fill:rgb(94.901961%,94.901961%,94.901961%);fill-opacity:1;" d="M 8.648438 6.433594 C 8.648438 6.550781 8.683594 6.640625 8.757812 6.703125 C 8.828125 6.769531 8.933594 6.808594 9.066406 6.816406 L 9.066406 6.054688 C 8.933594 6.058594 8.828125 6.09375 8.757812 6.160156 C 8.683594 6.230469 8.648438 6.320312 8.648438 6.433594 M 10.320312 6.359375 C 10.320312 6.679688 10.230469 6.929688 10.054688 7.109375 C 9.878906 7.289062 9.628906 7.378906 9.304688 7.378906 C 8.972656 7.378906 8.71875 7.296875 8.535156 7.128906 C 8.355469 6.960938 8.261719 6.730469 8.261719 6.4375 C 8.261719 6.15625 8.34375 5.9375 8.503906 5.78125 C 8.664062 5.625 8.882812 5.546875 9.164062 5.546875 L 9.425781 5.546875 L 9.425781 6.828125 C 9.582031 6.824219 9.703125 6.777344 9.789062 6.691406 C 9.875 6.605469 9.917969 6.488281 9.917969 6.332031 C 9.917969 6.214844 9.90625 6.101562 9.878906 5.996094 C 9.855469 5.886719 9.816406 5.777344 9.761719 5.660156 L 10.179688 5.660156 C 10.226562 5.753906 10.261719 5.855469 10.285156 5.964844 C 10.308594 6.070312 10.320312 6.203125 10.320312 6.359375 "/>
</g>
</svg>
