
<svg xmlns="http://www.w3.org/2000/svg" xmlns:xlink="http://www.w3.org/1999/xlink" width="16px" height="16px" viewBox="0 0 16 16" version="1.1">
<g id="surface1">
<path style=" stroke:none;fill-rule:evenodd;fill:rgb(16.470588%,49.803922%,100%);fill-opacity:1;" d="M 2.453125 1 L 13.566406 1 C 14.429688 1 15.128906 1.699219 15.128906 2.5625 L 15.128906 13.472656 C 15.128906 14.335938 14.429688 15.035156 13.566406 15.035156 L 2.453125 15.035156 C 1.589844 15.035156 0.890625 14.335938 0.890625 13.472656 L 0.890625 2.5625 C 0.890625 1.699219 1.589844 1 2.453125 1 Z M 2.453125 1 "/>
<path style="fill-rule:nonzero;fill:rgb(64.705882%,64.705882%,64.705882%);fill-opacity:1;stroke-width:15.330709;stroke-linecap:butt;stroke-linejoin:miter;stroke:rgb(100%,100%,100%);stroke-opacity:1;stroke-miterlimit:4;" d="M 427.875 256.875 C 427.875 351.5 351.25 428.125 256.625 428.125 C 162.125 428.125 85.5 351.5 85.5 256.875 C 85.5 162.375 162.125 85.75 256.625 85.75 C 351.25 85.75 427.875 162.375 427.875 256.875 Z M 427.875 256.875 " transform="matrix(0.03125,0,0,0.03125,0,0)"/>
<path style=" stroke:none;fill-rule:nonzero;fill:rgb(100%,100%,100%);fill-opacity:1;" d="M 9.203125 5.265625 L 6.765625 5.265625 L 6.765625 8.105469 L 5.144531 8.105469 L 7.984375 10.945312 L 10.824219 8.105469 L 9.203125 8.105469 Z M 9.203125 5.265625 "/>
</g>
</svg>
