
<svg xmlns="http://www.w3.org/2000/svg" xmlns:xlink="http://www.w3.org/1999/xlink" width="16px" height="16px" viewBox="0 0 16 16" version="1.1">
<g id="surface1">
<path style="fill-rule:nonzero;fill:rgb(80.392157%,11.372549%,19.215686%);fill-opacity:1;stroke-width:27.910587;stroke-linecap:butt;stroke-linejoin:miter;stroke:rgb(54.117647%,4.313725%,10.196078%);stroke-opacity:1;stroke-miterlimit:4;" d="M 83.25 27.375 L 428.75 27.375 C 459.625 27.375 484.625 52.375 484.625 83.25 L 484.625 428.75 C 484.625 459.625 459.625 484.625 428.75 484.625 L 83.25 484.625 C 52.375 484.625 27.375 459.625 27.375 428.75 L 27.375 83.25 C 27.375 52.375 52.375 27.375 83.25 27.375 Z M 83.25 27.375 " transform="matrix(0.03125,0,0,0.03125,0,0)"/>
<path style=" stroke:none;fill-rule:nonzero;fill:rgb(100%,100%,100%);fill-opacity:1;" d="M 6.628906 3.242188 C 6.585938 3.242188 4.898438 4.242188 4.835938 4.308594 C 4.800781 4.339844 4.804688 4.367188 4.886719 4.5 C 5.777344 5.96875 6.375 6.984375 6.351562 7.003906 C 6.339844 7.015625 5.800781 7.007812 5.160156 6.988281 C 4.515625 6.96875 3.84375 6.949219 3.660156 6.949219 L 3.332031 6.949219 L 3.3125 8.023438 C 3.304688 8.652344 3.308594 9.105469 3.324219 9.121094 C 3.347656 9.148438 5.222656 9.105469 5.992188 9.058594 C 6.257812 9.046875 6.316406 9.050781 6.328125 9.085938 C 6.335938 9.109375 6.214844 9.339844 6.046875 9.621094 C 5.886719 9.894531 5.539062 10.472656 5.277344 10.914062 C 5.011719 11.351562 4.804688 11.726562 4.8125 11.746094 C 4.832031 11.792969 6.542969 12.796875 6.609375 12.796875 C 6.664062 12.796875 7.054688 12.09375 7.945312 10.378906 C 8.011719 10.25 8.085938 10.144531 8.105469 10.144531 C 8.132812 10.144531 8.394531 10.617188 8.78125 11.355469 C 9.585938 12.886719 9.5625 12.84375 9.578125 12.84375 C 9.585938 12.84375 9.773438 12.734375 9.996094 12.601562 C 10.21875 12.46875 10.628906 12.222656 10.90625 12.058594 C 11.183594 11.894531 11.414062 11.746094 11.414062 11.730469 C 11.414062 11.714844 11.148438 11.261719 10.824219 10.71875 C 10.5 10.179688 10.148438 9.589844 10.042969 9.414062 C 9.933594 9.234375 9.859375 9.082031 9.875 9.070312 C 9.886719 9.054688 10.542969 9.0625 11.375 9.085938 C 12.1875 9.109375 12.863281 9.121094 12.875 9.109375 C 12.910156 9.078125 12.925781 6.953125 12.894531 6.933594 C 12.882812 6.925781 12.265625 6.9375 11.523438 6.960938 C 9.910156 7.015625 9.875 7.015625 9.875 6.976562 C 9.875 6.960938 10.132812 6.515625 10.449219 5.992188 C 11.394531 4.421875 11.441406 4.34375 11.425781 4.320312 C 11.417969 4.308594 11.257812 4.207031 11.0625 4.097656 C 10.871094 3.984375 10.46875 3.746094 10.167969 3.566406 C 9.867188 3.386719 9.609375 3.242188 9.59375 3.242188 C 9.570312 3.242188 8.996094 4.304688 8.375 5.496094 C 8.226562 5.777344 8.136719 5.921875 8.109375 5.917969 C 8.085938 5.914062 7.753906 5.3125 7.367188 4.578125 C 6.96875 3.816406 6.652344 3.242188 6.628906 3.242188 Z M 6.628906 3.242188 "/>
</g>
</svg>
