
<svg xmlns="http://www.w3.org/2000/svg" xmlns:xlink="http://www.w3.org/1999/xlink" width="16px" height="16px" viewBox="0 0 16 16" version="1.1">
<g id="surface1">
<path style="fill-rule:nonzero;fill:rgb(100%,100%,100%);fill-opacity:1;stroke-width:27.910587;stroke-linecap:butt;stroke-linejoin:miter;stroke:rgb(85.882353%,69.019608%,20.784314%);stroke-opacity:1;stroke-miterlimit:4;" d="M 83.25 27.375 L 428.75 27.375 C 459.625 27.375 484.625 52.375 484.625 83.25 L 484.625 428.75 C 484.625 459.625 459.625 484.625 428.75 484.625 L 83.25 484.625 C 52.375 484.625 27.375 459.625 27.375 428.75 L 27.375 83.25 C 27.375 52.375 52.375 27.375 83.25 27.375 Z M 83.25 27.375 " transform="matrix(0.03125,0,0,0.03125,0,0)"/>
<path style=" stroke:none;fill-rule:nonzero;fill:rgb(100%,78.431373%,19.215686%);fill-opacity:1;" d="M 2.859375 1.292969 C 2.238281 1.300781 1.761719 1.953125 1.851562 2.589844 C 1.855469 6.296875 1.84375 10.007812 1.855469 13.714844 C 1.902344 14.34375 2.5 14.789062 3.078125 14.707031 C 6.644531 14.703125 10.210938 14.714844 13.777344 14.703125 C 14.375 14.65625 14.796875 14.019531 14.71875 13.410156 C 14.71875 11.136719 14.71875 8.863281 14.71875 6.589844 C 14.476562 6.023438 13.898438 5.679688 13.523438 5.199219 C 12.292969 3.925781 11.078125 2.636719 9.839844 1.371094 C 9.496094 1.214844 9.097656 1.328125 8.730469 1.292969 C 6.773438 1.292969 4.816406 1.292969 2.859375 1.292969 Z M 11.246094 1.292969 C 11.007812 1.3125 10.996094 1.65625 11.191406 1.757812 C 12.261719 2.867188 13.320312 3.996094 14.398438 5.089844 C 14.609375 5.210938 14.78125 4.945312 14.71875 4.742188 C 14.703125 3.886719 14.746094 3.027344 14.695312 2.175781 C 14.601562 1.578125 14.003906 1.210938 13.453125 1.292969 C 12.71875 1.292969 11.980469 1.292969 11.246094 1.292969 Z M 11.246094 1.292969 "/>
<path style=" stroke:none;fill-rule:nonzero;fill:rgb(85.882353%,69.019608%,20.784314%);fill-opacity:1;" d="M 1.152344 0.992188 L 3.71875 0.992188 L 3.71875 14.84375 L 1.152344 14.84375 Z M 1.152344 0.992188 "/>
<path style=" stroke:none;fill-rule:nonzero;fill:rgb(100%,100%,100%);fill-opacity:1;" d="M 7.613281 5.914062 L 5.644531 5.914062 L 5.644531 6.230469 L 6.101562 6.28125 L 6.234375 6.390625 L 6.234375 10.78125 L 6.101562 10.890625 L 5.644531 10.929688 L 5.644531 11.257812 L 7.613281 11.257812 C 8.410156 11.257812 9.015625 11.171875 9.558594 10.765625 C 10.210938 10.269531 10.554688 9.53125 10.554688 8.582031 C 10.554688 6.910156 9.5 5.914062 7.613281 5.914062 Z M 6.953125 6.28125 L 7.582031 6.28125 C 9.039062 6.28125 9.75 7.027344 9.75 8.582031 C 9.75 10.128906 9.039062 10.890625 7.582031 10.890625 L 6.953125 10.890625 Z M 6.953125 6.28125 "/>
</g>
</svg>
