
<svg xmlns="http://www.w3.org/2000/svg" xmlns:xlink="http://www.w3.org/1999/xlink" width="16px" height="16px" viewBox="0 0 16 16" version="1.1">
<g id="surface1">
<path style="fill-rule:nonzero;fill:rgb(100%,100%,100%);fill-opacity:1;stroke-width:5.627363;stroke-linecap:butt;stroke-linejoin:miter;stroke:rgb(46.27451%,18.039216%,20%);stroke-opacity:1;stroke-miterlimit:4;" d="M 16.375 -97.299976 L 86.025 -97.299976 C 92.25 -97.299976 97.3 -92.249976 97.3 -86.024976 L 97.3 -16.374976 C 97.3 -10.149976 92.25 -5.099976 86.025 -5.099976 L 16.375 -5.099976 C 10.15 -5.099976 5.1 -10.149976 5.1 -16.374976 L 5.1 -86.024976 C 5.1 -92.249976 10.15 -97.299976 16.375 -97.299976 Z M 16.375 -97.299976 " transform="matrix(0.15625,0,0,0.15625,0,15.999996)"/>
<path style=" stroke:none;fill-rule:nonzero;fill:rgb(98.431373%,79.215686%,59.215686%);fill-opacity:1;" d="M 13.863281 8.171875 C 13.863281 9.027344 13.171875 9.71875 12.316406 9.71875 C 11.460938 9.71875 10.765625 9.027344 10.765625 8.171875 C 10.765625 7.316406 11.460938 6.625 12.316406 6.625 C 13.171875 6.625 13.863281 7.316406 13.863281 8.171875 "/>
<path style=" stroke:none;fill-rule:nonzero;fill:rgb(98.431373%,79.215686%,59.215686%);fill-opacity:1;" d="M 5.332031 8.171875 C 5.332031 9.027344 4.636719 9.71875 3.78125 9.71875 C 2.929688 9.71875 2.234375 9.027344 2.234375 8.171875 C 2.234375 7.316406 2.929688 6.625 3.78125 6.625 C 4.636719 6.625 5.332031 7.316406 5.332031 8.171875 "/>
<path style=" stroke:none;fill-rule:nonzero;fill:rgb(84.705882%,30.980392%,31.764706%);fill-opacity:1;" d="M 4.667969 8.171875 C 4.667969 8.660156 4.273438 9.054688 3.78125 9.054688 C 3.292969 9.054688 2.898438 8.660156 2.898438 8.171875 C 2.898438 7.683594 3.292969 7.285156 3.78125 7.285156 C 4.273438 7.285156 4.667969 7.683594 4.667969 8.171875 "/>
<path style=" stroke:none;fill-rule:nonzero;fill:rgb(84.705882%,30.980392%,31.764706%);fill-opacity:1;" d="M 13.199219 8.171875 C 13.199219 8.660156 12.804688 9.054688 12.316406 9.054688 C 11.824219 9.054688 11.429688 8.660156 11.429688 8.171875 C 11.429688 7.683594 11.824219 7.285156 12.316406 7.285156 C 12.804688 7.285156 13.199219 7.683594 13.199219 8.171875 "/>
<path style=" stroke:none;fill-rule:nonzero;fill:rgb(46.27451%,18.039216%,20%);fill-opacity:1;" d="M 12.523438 8.171875 C 12.523438 10.644531 10.515625 12.652344 8.042969 12.652344 C 5.566406 12.652344 3.5625 10.644531 3.5625 8.171875 C 3.5625 5.699219 5.566406 3.691406 8.042969 3.691406 C 10.515625 3.691406 12.523438 5.699219 12.523438 8.171875 "/>
<path style=" stroke:none;fill-rule:nonzero;fill:rgb(98.431373%,79.215686%,59.215686%);fill-opacity:1;" d="M 11.734375 7.5625 C 11.734375 6.554688 10.917969 5.738281 9.910156 5.738281 C 9.089844 5.738281 8.398438 6.277344 8.167969 7.019531 C 7.933594 6.277344 7.242188 5.738281 6.425781 5.738281 C 5.417969 5.738281 4.597656 6.554688 4.597656 7.5625 C 4.597656 8.425781 5.195312 9.144531 6 9.335938 C 5.726562 9.746094 5.566406 10.242188 5.566406 10.769531 C 5.566406 12.207031 6.730469 13.371094 8.167969 13.371094 C 9.601562 13.371094 10.765625 12.207031 10.765625 10.769531 C 10.765625 10.242188 10.605469 9.746094 10.335938 9.335938 C 11.136719 9.144531 11.734375 8.425781 11.734375 7.5625 "/>
<path style=" stroke:none;fill-rule:nonzero;fill:rgb(46.27451%,18.039216%,20%);fill-opacity:1;" d="M 6.015625 4.175781 C 6.015625 4.175781 7.597656 3.25 9.867188 2.476562 L 8.664062 3.734375 L 10.363281 3.324219 L 10.070312 4.175781 L 10.765625 4.175781 L 10.765625 4.851562 Z M 6.015625 4.175781 "/>
<path style=" stroke:none;fill-rule:nonzero;fill:rgb(84.705882%,30.980392%,31.764706%);fill-opacity:1;" d="M 8.375 11.546875 C 8.375 11.75 8.261719 11.914062 8.125 11.914062 C 7.988281 11.914062 7.875 11.75 7.875 11.546875 C 7.875 11.34375 7.988281 11.179688 8.125 11.179688 C 8.261719 11.179688 8.375 11.34375 8.375 11.546875 "/>
<path style=" stroke:none;fill-rule:nonzero;fill:rgb(94.901961%,56.470588%,41.568627%);fill-opacity:1;" d="M 7.703125 7.5625 C 7.703125 8.269531 7.132812 8.839844 6.425781 8.839844 C 5.722656 8.839844 5.148438 8.269531 5.148438 7.5625 C 5.148438 6.859375 5.722656 6.285156 6.425781 6.285156 C 7.132812 6.285156 7.703125 6.859375 7.703125 7.5625 "/>
<path style=" stroke:none;fill-rule:nonzero;fill:rgb(24.313725%,11.372549%,8.235294%);fill-opacity:1;" d="M 7.175781 7.5625 C 7.175781 7.976562 6.84375 8.3125 6.425781 8.3125 C 6.011719 8.3125 5.675781 7.976562 5.675781 7.5625 C 5.675781 7.148438 6.011719 6.8125 6.425781 6.8125 C 6.84375 6.8125 7.175781 7.148438 7.175781 7.5625 "/>
<path style=" stroke:none;fill-rule:nonzero;fill:rgb(46.27451%,18.039216%,20%);fill-opacity:1;" d="M 7.003906 7.5625 C 7.003906 7.882812 6.746094 8.136719 6.425781 8.136719 C 6.109375 8.136719 5.851562 7.882812 5.851562 7.5625 C 5.851562 7.246094 6.109375 6.988281 6.425781 6.988281 C 6.746094 6.988281 7.003906 7.246094 7.003906 7.5625 "/>
<path style=" stroke:none;fill-rule:nonzero;fill:rgb(24.313725%,11.372549%,8.235294%);fill-opacity:1;" d="M 6.914062 7.363281 C 6.914062 7.613281 6.710938 7.816406 6.460938 7.816406 C 6.210938 7.816406 6.007812 7.613281 6.007812 7.363281 C 6.007812 7.113281 6.210938 6.910156 6.460938 6.910156 C 6.710938 6.910156 6.914062 7.113281 6.914062 7.363281 "/>
<path style=" stroke:none;fill-rule:nonzero;fill:rgb(97.647059%,96.470588%,91.764706%);fill-opacity:1;" d="M 7.003906 7.335938 C 7.003906 7.492188 6.875 7.617188 6.722656 7.617188 C 6.566406 7.617188 6.441406 7.492188 6.441406 7.335938 C 6.441406 7.183594 6.566406 7.058594 6.722656 7.058594 C 6.875 7.058594 7.003906 7.183594 7.003906 7.335938 "/>
<path style=" stroke:none;fill-rule:nonzero;fill:rgb(94.901961%,56.470588%,41.568627%);fill-opacity:1;" d="M 11.265625 7.5625 C 11.265625 8.269531 10.695312 8.839844 9.988281 8.839844 C 9.285156 8.839844 8.710938 8.269531 8.710938 7.5625 C 8.710938 6.859375 9.285156 6.285156 9.988281 6.285156 C 10.695312 6.285156 11.265625 6.859375 11.265625 7.5625 "/>
<path style=" stroke:none;fill-rule:nonzero;fill:rgb(24.313725%,11.372549%,8.235294%);fill-opacity:1;" d="M 10.738281 7.5625 C 10.738281 7.976562 10.402344 8.3125 9.988281 8.3125 C 9.574219 8.3125 9.238281 7.976562 9.238281 7.5625 C 9.238281 7.148438 9.574219 6.8125 9.988281 6.8125 C 10.402344 6.8125 10.738281 7.148438 10.738281 7.5625 "/>
<path style=" stroke:none;fill-rule:nonzero;fill:rgb(46.27451%,18.039216%,20%);fill-opacity:1;" d="M 10.5625 7.5625 C 10.5625 7.882812 10.304688 8.136719 9.988281 8.136719 C 9.671875 8.136719 9.414062 7.882812 9.414062 7.5625 C 9.414062 7.246094 9.671875 6.988281 9.988281 6.988281 C 10.304688 6.988281 10.5625 7.246094 10.5625 7.5625 "/>
<path style=" stroke:none;fill-rule:nonzero;fill:rgb(24.313725%,11.372549%,8.235294%);fill-opacity:1;" d="M 10.476562 7.363281 C 10.476562 7.613281 10.273438 7.816406 10.023438 7.816406 C 9.773438 7.816406 9.570312 7.613281 9.570312 7.363281 C 9.570312 7.113281 9.773438 6.910156 10.023438 6.910156 C 10.273438 6.910156 10.476562 7.113281 10.476562 7.363281 "/>
<path style=" stroke:none;fill-rule:nonzero;fill:rgb(97.647059%,96.470588%,91.764706%);fill-opacity:1;" d="M 10.5625 7.335938 C 10.5625 7.492188 10.4375 7.617188 10.285156 7.617188 C 10.128906 7.617188 10.003906 7.492188 10.003906 7.335938 C 10.003906 7.183594 10.128906 7.058594 10.285156 7.058594 C 10.4375 7.058594 10.5625 7.183594 10.5625 7.335938 "/>
<path style=" stroke:none;fill-rule:nonzero;fill:rgb(94.901961%,56.470588%,41.568627%);fill-opacity:1;" d="M 8.5625 9.546875 C 8.5625 9.609375 8.355469 9.660156 8.101562 9.660156 C 7.847656 9.660156 7.640625 9.609375 7.640625 9.546875 C 7.640625 9.484375 7.847656 9.429688 8.101562 9.429688 C 8.355469 9.429688 8.5625 9.484375 8.5625 9.546875 "/>
</g>
</svg>
