
<svg xmlns="http://www.w3.org/2000/svg" xmlns:xlink="http://www.w3.org/1999/xlink" width="16px" height="16px" viewBox="0 0 16 16" version="1.1">
<g id="surface1">
<path style="fill-rule:nonzero;fill:rgb(100%,100%,100%);fill-opacity:1;stroke-width:13.891505;stroke-linecap:butt;stroke-linejoin:miter;stroke:rgb(0%,47.843137%,76.470588%);stroke-opacity:1;stroke-miterlimit:4;" d="M 42 14.25 L 214 14.25 C 229.3125 14.25 241.75 26.6875 241.75 42 L 241.75 214 C 241.75 229.3125 229.3125 241.75 214 241.75 L 42 241.75 C 26.6875 241.75 14.25 229.3125 14.25 214 L 14.25 42 C 14.25 26.6875 26.6875 14.25 42 14.25 Z M 42 14.25 " transform="matrix(0.0625,0,0,0.0625,0,0)"/>
<path style=" stroke:none;fill-rule:nonzero;fill:rgb(0%,47.843137%,76.470588%);fill-opacity:1;" d="M 6.636719 13.511719 C 6.046875 13.425781 5.386719 13.277344 4.976562 13.128906 C 4.117188 12.824219 3.414062 12.328125 3.183594 11.863281 C 3.070312 11.632812 3.066406 11.59375 3.066406 10.804688 C 3.066406 10.34375 3.082031 9.984375 3.105469 9.984375 C 3.128906 9.984375 3.203125 10.074219 3.265625 10.1875 C 3.871094 11.21875 6.019531 11.902344 8.367188 11.8125 C 10.535156 11.726562 12.257812 11.074219 12.726562 10.15625 C 12.789062 10.035156 12.859375 9.9375 12.882812 9.9375 C 12.960938 9.9375 12.988281 10.253906 12.964844 10.941406 C 12.949219 11.558594 12.933594 11.640625 12.828125 11.851562 C 12.453125 12.582031 11.375 13.144531 9.773438 13.445312 C 9.105469 13.574219 7.339844 13.609375 6.636719 13.511719 Z M 6.890625 11.269531 C 5.46875 11.125 4.148438 10.640625 3.527344 10.027344 C 3.117188 9.625 3.089844 9.546875 3.074219 8.589844 C 3.0625 8.039062 3.074219 7.769531 3.105469 7.769531 C 3.132812 7.769531 3.207031 7.851562 3.269531 7.953125 C 3.671875 8.585938 4.714844 9.117188 6.078125 9.382812 C 8.800781 9.90625 11.984375 9.207031 12.707031 7.925781 C 12.785156 7.789062 12.863281 7.679688 12.886719 7.679688 C 12.957031 7.679688 12.988281 8.089844 12.964844 8.714844 C 12.949219 9.261719 12.933594 9.351562 12.820312 9.582031 C 12.242188 10.769531 9.542969 11.535156 6.890625 11.269531 Z M 7.027344 9.011719 C 5.203125 8.847656 3.648438 8.167969 3.214844 7.339844 C 3.097656 7.117188 3.089844 7.058594 3.074219 6.378906 C 3.054688 5.496094 3.082031 5.410156 3.296875 5.742188 C 3.683594 6.347656 4.597656 6.8125 5.917969 7.078125 C 8.820312 7.664062 12.0625 6.945312 12.765625 5.570312 C 12.804688 5.488281 12.855469 5.417969 12.878906 5.417969 C 12.9375 5.417969 12.980469 6.664062 12.929688 6.960938 C 12.710938 8.316406 9.964844 9.269531 7.027344 9.011719 Z M 7.253906 6.75 C 5.355469 6.628906 3.621094 5.890625 3.21875 5.027344 C 2.667969 3.847656 4.332031 2.695312 6.976562 2.417969 C 7.722656 2.339844 9.167969 2.386719 9.820312 2.511719 C 10.589844 2.652344 11.101562 2.816406 11.671875 3.09375 C 12.511719 3.5 12.929688 3.988281 12.929688 4.558594 C 12.929688 5.917969 10.277344 6.945312 7.253906 6.75 Z M 7.253906 6.75 "/>
</g>
</svg>
