
<svg xmlns="http://www.w3.org/2000/svg" xmlns:xlink="http://www.w3.org/1999/xlink" width="16px" height="16px" viewBox="0 0 16 16" version="1.1">
<g id="surface1">
<path style="fill-rule:nonzero;fill:rgb(99.215686%,23.529412%,33.333333%);fill-opacity:1;stroke-width:27.115198;stroke-linecap:butt;stroke-linejoin:miter;stroke:rgb(0%,34.509804%,41.960784%);stroke-opacity:1;stroke-miterlimit:4;" d="M 64.625 22 L 447.375 22 C 468 22 484.625 38.75 484.625 59.25 L 484.625 452.75 C 484.625 473.25 468 490 447.375 490 L 64.625 490 C 44 490 27.375 473.25 27.375 452.75 L 27.375 59.25 C 27.375 38.75 44 22 64.625 22 Z M 64.625 22 " transform="matrix(0.03125,0,0,0.03125,0,0)"/>
<path style=" stroke:none;fill-rule:nonzero;fill:rgb(100%,98.039216%,98.039216%);fill-opacity:1;" d="M 5.648438 12.480469 C 6.28125 12.300781 6.710938 11.847656 6.792969 11.265625 C 6.816406 11.125 6.832031 10.03125 6.832031 8.65625 L 6.832031 6.289062 L 6.910156 6.238281 C 7.1875 6.0625 8.691406 5.773438 10.132812 5.621094 C 10.617188 5.570312 10.703125 5.570312 10.730469 5.613281 C 10.75 5.640625 10.757812 6.355469 10.753906 7.214844 L 10.746094 8.769531 L 10.441406 8.757812 C 10.042969 8.742188 9.773438 8.792969 9.449219 8.945312 C 9.113281 9.105469 8.863281 9.34375 8.71875 9.640625 C 8.613281 9.851562 8.601562 9.910156 8.601562 10.179688 C 8.601562 10.546875 8.675781 10.734375 8.921875 10.996094 C 9.386719 11.496094 10.207031 11.597656 10.90625 11.25 C 11.363281 11.019531 11.652344 10.644531 11.726562 10.175781 C 11.75 10.03125 11.765625 8.675781 11.765625 6.421875 C 11.765625 3.078125 11.761719 2.894531 11.703125 2.859375 C 11.570312 2.789062 10.269531 2.910156 9.226562 3.089844 C 8.179688 3.273438 6.039062 3.792969 5.910156 3.898438 C 5.875 3.929688 5.863281 4.582031 5.859375 6.90625 L 5.847656 9.878906 L 5.453125 9.867188 C 5.175781 9.859375 5 9.871094 4.851562 9.914062 C 4.382812 10.039062 3.976562 10.355469 3.785156 10.746094 C 3.679688 10.960938 3.667969 11.015625 3.667969 11.289062 C 3.667969 11.65625 3.753906 11.859375 4.015625 12.121094 C 4.410156 12.519531 5.035156 12.65625 5.648438 12.480469 Z M 5.648438 12.480469 "/>
</g>
</svg>
