
<svg xmlns="http://www.w3.org/2000/svg" xmlns:xlink="http://www.w3.org/1999/xlink" width="16px" height="16px" viewBox="0 0 16 16" version="1.1">
<g id="surface1">
<path style="fill-rule:nonzero;fill:rgb(83.137255%,10.196078%,10.196078%);fill-opacity:1;stroke-width:27.746531;stroke-linecap:butt;stroke-linejoin:miter;stroke:rgb(88.627451%,53.72549%,53.72549%);stroke-opacity:1;stroke-miterlimit:4;" d="M 84.25 28.75 L 427.75 28.75 C 458.375 28.75 483.25 53.625 483.25 84.25 L 483.25 427.75 C 483.25 458.375 458.375 483.25 427.75 483.25 L 84.25 483.25 C 53.625 483.25 28.75 458.375 28.75 427.75 L 28.75 84.25 C 28.75 53.625 53.625 28.75 84.25 28.75 Z M 84.25 28.75 " transform="matrix(0.03125,0,0,0.03125,0,0)"/>
<path style=" stroke:none;fill-rule:nonzero;fill:rgb(100%,100%,100%);fill-opacity:1;" d="M 8.726562 3.664062 C 8.496094 3.664062 8.453125 3.667969 8.308594 3.707031 C 7.699219 3.867188 7.277344 4.230469 6.921875 4.902344 C 6.875 4.984375 6.835938 5.054688 6.832031 5.054688 C 6.832031 5.054688 6.761719 4.988281 6.683594 4.910156 C 6.457031 4.683594 6.257812 4.585938 6.007812 4.570312 C 5.835938 4.5625 5.726562 4.585938 5.566406 4.664062 C 5.328125 4.785156 5.136719 5.03125 5.070312 5.300781 C 5.003906 5.589844 5.089844 5.921875 5.304688 6.179688 L 5.367188 6.253906 L 5.324219 6.285156 C 5.210938 6.363281 5.054688 6.539062 5.003906 6.648438 C 4.898438 6.867188 4.925781 7.128906 5.070312 7.328125 C 5.148438 7.433594 5.265625 7.515625 5.351562 7.53125 C 5.386719 7.535156 5.414062 7.542969 5.417969 7.550781 C 5.421875 7.554688 5.417969 7.605469 5.410156 7.664062 C 5.390625 7.800781 5.414062 7.847656 5.527344 7.914062 C 5.910156 8.136719 7.265625 8.261719 8.726562 8.210938 C 9.980469 8.167969 10.742188 8.035156 10.808594 7.84375 C 10.824219 7.804688 10.820312 7.796875 10.777344 7.761719 L 10.734375 7.71875 L 10.769531 7.695312 C 10.792969 7.679688 10.84375 7.636719 10.886719 7.597656 C 11.164062 7.34375 11.101562 6.878906 10.757812 6.660156 C 10.710938 6.632812 10.679688 6.597656 10.683594 6.589844 C 10.835938 6.234375 10.867188 6.105469 10.875 5.777344 C 10.886719 5.492188 10.867188 5.347656 10.792969 5.125 C 10.589844 4.5 10.039062 3.96875 9.378906 3.761719 C 9.128906 3.683594 9.003906 3.664062 8.726562 3.664062 Z M 9.597656 5.929688 C 9.660156 5.929688 9.726562 5.941406 9.789062 5.972656 C 10.097656 6.125 10.054688 6.582031 9.722656 6.679688 C 9.628906 6.710938 9.585938 6.707031 9.480469 6.671875 C 9.269531 6.601562 9.171875 6.351562 9.269531 6.144531 C 9.328125 6.011719 9.457031 5.933594 9.597656 5.929688 Z M 6.953125 5.933594 C 7.046875 5.933594 7.132812 5.96875 7.203125 6.039062 C 7.316406 6.144531 7.355469 6.289062 7.3125 6.4375 C 7.269531 6.582031 7.097656 6.703125 6.945312 6.703125 C 6.894531 6.703125 6.835938 6.6875 6.785156 6.667969 C 6.605469 6.582031 6.519531 6.390625 6.578125 6.195312 C 6.605469 6.105469 6.734375 5.972656 6.816406 5.949219 C 6.867188 5.9375 6.910156 5.933594 6.953125 5.933594 Z M 7.058594 6.027344 C 7.019531 6.03125 6.980469 6.050781 6.949219 6.09375 C 6.871094 6.226562 7.03125 6.359375 7.148438 6.257812 C 7.179688 6.234375 7.191406 6.207031 7.191406 6.171875 C 7.191406 6.082031 7.128906 6.027344 7.058594 6.027344 Z M 9.742188 6.035156 C 9.707031 6.035156 9.675781 6.050781 9.644531 6.085938 C 9.582031 6.152344 9.609375 6.261719 9.691406 6.296875 C 9.742188 6.316406 9.753906 6.3125 9.808594 6.28125 C 9.898438 6.226562 9.898438 6.113281 9.808594 6.058594 C 9.785156 6.042969 9.761719 6.035156 9.742188 6.035156 Z M 8.242188 6.726562 C 8.773438 6.726562 8.792969 6.726562 8.816406 6.757812 C 8.835938 6.785156 8.839844 6.828125 8.835938 6.976562 C 8.828125 7.136719 8.824219 7.179688 8.792969 7.242188 C 8.734375 7.359375 8.644531 7.453125 8.527344 7.507812 C 8.4375 7.550781 8.402344 7.558594 8.273438 7.5625 C 8.175781 7.566406 8.101562 7.558594 8.054688 7.546875 C 7.898438 7.492188 7.769531 7.386719 7.695312 7.238281 C 7.652344 7.15625 7.652344 7.140625 7.652344 6.960938 C 7.652344 6.824219 7.65625 6.761719 7.671875 6.746094 C 7.6875 6.730469 7.8125 6.726562 8.242188 6.726562 Z M 10.878906 7.871094 C 10.867188 7.867188 10.847656 7.882812 10.835938 7.902344 C 10.757812 8.050781 10.292969 8.164062 9.460938 8.238281 C 9.082031 8.269531 7.835938 8.285156 7.359375 8.257812 C 6.363281 8.210938 5.71875 8.105469 5.484375 7.957031 C 5.445312 7.929688 5.40625 7.914062 5.402344 7.917969 C 5.394531 7.925781 5.492188 8.75 5.613281 9.753906 L 5.835938 11.582031 L 5.894531 11.640625 C 5.96875 11.71875 6.199219 11.871094 6.363281 11.953125 C 6.734375 12.140625 7.273438 12.28125 7.816406 12.328125 C 8.039062 12.347656 8.566406 12.332031 8.796875 12.304688 C 9.316406 12.234375 9.78125 12.089844 10.117188 11.882812 C 10.234375 11.8125 10.453125 11.640625 10.472656 11.601562 C 10.480469 11.585938 10.589844 10.773438 10.710938 9.792969 C 10.9375 7.953125 10.945312 7.882812 10.878906 7.871094 Z M 10.078125 8.277344 C 10.085938 8.277344 10.089844 8.277344 10.089844 8.28125 C 10.105469 8.292969 9.890625 11.839844 9.875 11.882812 C 9.859375 11.917969 9.640625 12.007812 9.414062 12.070312 C 9.261719 12.109375 9.222656 12.113281 9.210938 12.09375 C 9.203125 12.082031 9.308594 8.367188 9.316406 8.355469 C 9.320312 8.351562 9.4375 8.339844 9.578125 8.328125 C 9.71875 8.316406 9.890625 8.296875 9.957031 8.289062 C 10.007812 8.28125 10.054688 8.277344 10.078125 8.277344 Z M 6.261719 8.277344 C 6.300781 8.28125 6.375 8.285156 6.460938 8.296875 C 6.570312 8.308594 6.730469 8.324219 6.816406 8.332031 C 6.898438 8.335938 6.972656 8.347656 6.976562 8.359375 C 6.992188 8.378906 7.234375 12.09375 7.226562 12.109375 C 7.214844 12.125 7.199219 12.125 7.117188 12.105469 C 6.976562 12.074219 6.550781 11.929688 6.542969 11.914062 C 6.539062 11.914062 6.46875 11.09375 6.378906 10.097656 C 6.261719 8.742188 6.226562 8.285156 6.238281 8.277344 C 6.242188 8.277344 6.25 8.277344 6.261719 8.277344 Z M 7.753906 8.382812 L 8.132812 8.386719 L 8.515625 8.390625 L 8.527344 10.289062 C 8.539062 11.371094 8.539062 12.195312 8.527344 12.203125 C 8.511719 12.21875 8.152344 12.230469 8 12.222656 C 7.9375 12.21875 7.890625 12.207031 7.886719 12.195312 C 7.878906 12.175781 7.753906 8.667969 7.753906 8.488281 Z M 7.753906 8.382812 "/>
</g>
</svg>
