
<svg xmlns="http://www.w3.org/2000/svg" xmlns:xlink="http://www.w3.org/1999/xlink" width="16px" height="16px" viewBox="0 0 16 16" version="1.1">
<g id="surface1">
<path style=" stroke:none;fill-rule:evenodd;fill:rgb(17.254902%,24.313725%,31.372549%);fill-opacity:1;" d="M 2.875 1.015625 L 13.328125 1.015625 C 14.390625 1.015625 15.253906 1.878906 15.253906 2.941406 L 15.253906 13.398438 C 15.253906 14.460938 14.390625 15.320312 13.328125 15.320312 L 2.875 15.320312 C 1.8125 15.320312 0.949219 14.460938 0.949219 13.398438 L 0.949219 2.941406 C 0.949219 1.878906 1.8125 1.015625 2.875 1.015625 Z M 2.875 1.015625 "/>
<path style=" stroke:none;fill-rule:nonzero;fill:rgb(53.333333%,78.823529%,25.490196%);fill-opacity:1;" d="M 13.535156 3.300781 L 2.328125 7.011719 L 6.902344 8.921875 L 7.742188 13.570312 Z M 13.535156 3.300781 "/>
<path style=" stroke:none;fill-rule:nonzero;fill:rgb(92.54902%,94.117647%,94.509804%);fill-opacity:1;" d="M 8.191406 2.523438 C 5.300781 2.523438 2.957031 4.730469 2.957031 7.449219 C 2.957031 9.347656 4.101562 10.984375 5.773438 11.804688 L 4.703125 12.472656 L 5.035156 12.789062 C 5.035156 12.789062 5.582031 12.421875 5.898438 12.359375 C 6.234375 12.292969 6.921875 12.421875 6.921875 12.421875 C 7.410156 12.550781 6.839844 12.367188 7.785156 12.726562 C 7.785156 12.726562 9.738281 13.515625 10.777344 13.679688 C 11.105469 13.730469 11.457031 13.757812 11.78125 13.679688 C 12.390625 13.53125 13.441406 12.828125 13.441406 12.828125 L 13.441406 12.445312 C 13.441406 12.445312 12.699219 12.65625 12.3125 12.675781 C 12.0625 12.691406 11.800781 12.667969 11.558594 12.613281 C 11.027344 12.496094 10.113281 12.09375 10.019531 12.050781 C 12.007812 11.351562 13.433594 9.5625 13.433594 7.449219 C 13.433594 4.730469 11.082031 2.523438 8.191406 2.523438 Z M 8.199219 3.9375 C 9.9375 3.9375 11.347656 5.496094 11.347656 7.425781 C 11.347656 9.351562 9.9375 10.921875 8.199219 10.921875 C 6.460938 10.921875 5.050781 9.351562 5.050781 7.425781 C 5.050781 5.496094 6.460938 3.9375 8.199219 3.9375 Z M 8.199219 3.9375 "/>
</g>
</svg>
