
<svg xmlns="http://www.w3.org/2000/svg" xmlns:xlink="http://www.w3.org/1999/xlink" width="16px" height="16px" viewBox="0 0 16 16" version="1.1">
<g id="surface1">
<path style=" stroke:none;fill-rule:nonzero;fill:rgb(80%,80%,80%);fill-opacity:1;" d="M 9.609375 1.644531 C 8.929688 1.644531 8.371094 2.265625 8.261719 3.089844 L 13.636719 3.089844 C 13.527344 2.265625 12.96875 1.644531 12.289062 1.644531 Z M 9.609375 1.644531 "/>
<path style=" stroke:none;fill-rule:nonzero;fill:rgb(14.509804%,68.235294%,87.45098%);fill-opacity:1;" d="M 2.320312 3.320312 L 13.679688 3.320312 C 14.578125 3.320312 15.308594 4.046875 15.308594 4.945312 L 15.308594 10.644531 C 15.308594 11.539062 14.578125 12.265625 13.679688 12.265625 L 2.320312 12.265625 C 1.421875 12.265625 0.691406 11.539062 0.691406 10.644531 L 0.691406 4.945312 C 0.691406 4.046875 1.421875 3.320312 2.320312 3.320312 Z M 2.320312 3.320312 "/>
<path style=" stroke:none;fill-rule:nonzero;fill:rgb(14.509804%,68.235294%,87.45098%);fill-opacity:1;" d="M 2.320312 5.410156 L 13.679688 5.410156 C 14.578125 5.410156 15.308594 6.136719 15.308594 7.03125 L 15.308594 12.730469 C 15.308594 13.628906 14.578125 14.355469 13.679688 14.355469 L 2.320312 14.355469 C 1.421875 14.355469 0.691406 13.628906 0.691406 12.730469 L 0.691406 7.03125 C 0.691406 6.136719 1.421875 5.410156 2.320312 5.410156 Z M 2.320312 5.410156 "/>
</g>
</svg>
