<!-- color: #5b92d9 -->
<svg xmlns="http://www.w3.org/2000/svg" xmlns:xlink="http://www.w3.org/1999/xlink" width="16px" height="16px" viewBox="0 0 16 16" version="1.1">
<defs>
<clipPath id="clip1">
  <path d="M 3.0625 3.21875 L 12.84375 3.21875 L 12.84375 12.96875 L 3.0625 12.96875 Z M 3.0625 3.21875 "/>
</clipPath>
<clipPath id="clip2">
  <path d="M 15.417969 8.097656 C 15.417969 12.222656 12.074219 15.5625 7.953125 15.5625 C 3.835938 15.5625 0.492188 12.222656 0.492188 8.097656 C 0.492188 3.976562 3.835938 0.632812 7.953125 0.632812 C 12.074219 0.632812 15.417969 3.976562 15.417969 8.097656 Z M 15.417969 8.097656 "/>
</clipPath>
<clipPath id="clip3">
  <path d="M 4.03125 6.46875 L 11.875 6.46875 L 11.875 9.75 L 4.03125 9.75 Z M 4.03125 6.46875 "/>
</clipPath>
<clipPath id="clip4">
  <path d="M 15.417969 8.097656 C 15.417969 12.222656 12.074219 15.5625 7.953125 15.5625 C 3.835938 15.5625 0.492188 12.222656 0.492188 8.097656 C 0.492188 3.976562 3.835938 0.632812 7.953125 0.632812 C 12.074219 0.632812 15.417969 3.976562 15.417969 8.097656 Z M 15.417969 8.097656 "/>
</clipPath>
</defs>
<g id="surface1">
<path style="fill-rule:nonzero;fill:rgb(21.568627%,44.313725%,78.431373%);fill-opacity:1;stroke-width:6.815335;stroke-linecap:butt;stroke-linejoin:miter;stroke:rgb(29.019608%,68.235294%,90.980392%);stroke-opacity:1;stroke-miterlimit:4;" d="M 21.8125 8.1875 L 106.1875 8.1875 C 113.71875 8.1875 119.8125 14.28125 119.8125 21.8125 L 119.8125 106.1875 C 119.8125 113.71875 113.71875 119.8125 106.1875 119.8125 L 21.8125 119.8125 C 14.28125 119.8125 8.1875 113.71875 8.1875 106.1875 L 8.1875 21.8125 C 8.1875 14.28125 14.28125 8.1875 21.8125 8.1875 Z M 21.8125 8.1875 " transform="matrix(0.125,0,0,0.125,0,0)"/>
<g clip-path="url(#clip1)" clip-rule="nonzero">
<g clip-path="url(#clip2)" clip-rule="nonzero">
<path style=" stroke:none;fill-rule:nonzero;fill:rgb(97.647059%,97.647059%,97.647059%);fill-opacity:1;" d="M 7.953125 3.230469 C 5.261719 3.230469 3.085938 5.40625 3.085938 8.097656 C 3.085938 10.789062 5.261719 12.964844 7.953125 12.964844 C 10.644531 12.964844 12.820312 10.789062 12.820312 8.097656 C 12.820312 5.40625 10.644531 3.230469 7.953125 3.230469 M 7.953125 3.230469 "/>
</g>
</g>
<g clip-path="url(#clip3)" clip-rule="nonzero">
<g clip-path="url(#clip4)" clip-rule="nonzero">
<path style=" stroke:none;fill-rule:nonzero;fill:rgb(29.019608%,52.54902%,83.921569%);fill-opacity:1;" d="M 6.65625 6.476562 L 6.65625 7.449219 L 9.253906 7.449219 L 9.253906 6.476562 L 10.515625 7.289062 L 11.847656 8.101562 L 10.515625 8.910156 L 9.253906 9.722656 L 9.253906 8.75 L 6.65625 8.75 L 6.65625 9.722656 L 5.394531 8.910156 L 4.058594 8.101562 L 5.394531 7.289062 M 6.65625 6.476562 "/>
</g>
</g>
</g>
</svg>
