
<svg xmlns="http://www.w3.org/2000/svg" xmlns:xlink="http://www.w3.org/1999/xlink" width="16px" height="16px" viewBox="0 0 16 16" version="1.1">
<g id="surface1">
<path style="fill-rule:nonzero;fill:rgb(40%,40%,40%);fill-opacity:1;stroke-width:1.199;stroke-linecap:butt;stroke-linejoin:miter;stroke:rgb(0%,0%,0%);stroke-opacity:1;stroke-miterlimit:4;" d="M 68.375 -436.125 L 443.625 -436.125 C 474.75 -436.125 500.125 -410.75 500.125 -379.625 L 500.125 -4.375 C 500.125 26.75 474.75 52.125 443.625 52.125 L 68.375 52.125 C 37.25 52.125 11.875 26.75 11.875 -4.375 L 11.875 -379.625 C 11.875 -410.75 37.25 -436.125 68.375 -436.125 Z M 68.375 -436.125 " transform="matrix(0.03125,0,0,0.03125,0,14)"/>
<path style="fill-rule:nonzero;fill:rgb(20%,20%,20%);fill-opacity:1;stroke-width:1.000025;stroke-linecap:butt;stroke-linejoin:miter;stroke:rgb(0%,0%,0%);stroke-opacity:1;stroke-miterlimit:4;" d="M 86.344236 -379.620694 L 425.655918 -379.620694 C 435.64818 -379.620694 443.620729 -371.648145 443.620729 -361.655884 L 443.620729 -22.344202 C 443.620729 -12.35194 435.64818 -4.379391 425.655918 -4.379391 L 86.344236 -4.379391 C 76.351975 -4.379391 68.379426 -12.35194 68.379426 -22.344202 L 68.379426 -361.655884 C 68.379426 -371.648145 76.351975 -379.620694 86.344236 -379.620694 Z M 86.344236 -379.620694 " transform="matrix(0.0367472,0,0,0.0367472,-1.407283,15.055462)"/>
<path style="fill-rule:nonzero;fill:rgb(100%,100%,100%);fill-opacity:1;stroke-width:1.373076;stroke-linecap:butt;stroke-linejoin:miter;stroke:rgb(0%,0%,0%);stroke-opacity:1;stroke-miterlimit:4;" d="M 122.976327 -315.078331 L 122.976327 -268.956478 C 123.268238 -268.664568 123.560148 -268.518613 123.998014 -268.372658 L 203.835525 -216.26664 C 207.630361 -213.785401 207.630361 -209.84461 203.835525 -207.509327 L 123.998014 -155.403309 C 123.560148 -155.111399 123.268238 -154.965444 122.976327 -154.819488 L 122.976327 -108.697636 C 125.165656 -109.135501 127.354984 -110.011233 129.106447 -111.178875 L 261.779751 -197.730326 L 261.779751 -224.732044 C 261.779751 -225.169909 261.779751 -225.607775 261.779751 -225.899686 L 129.106447 -312.451137 C 127.354984 -313.618779 125.165656 -314.49451 122.976327 -315.078331 Z M 122.976327 -315.078331 " transform="matrix(0.0267633,0,0,0.0267633,-0.0803202,11.663018)"/>
<path style="fill-rule:nonzero;fill:rgb(100%,100%,100%);fill-opacity:1;stroke-width:1.373076;stroke-linecap:butt;stroke-linejoin:miter;stroke:rgb(0%,0%,0%);stroke-opacity:1;stroke-miterlimit:4;" d="M 191.283375 -95.70762 L 342.638949 -95.70762 L 342.638949 -52.796782 L 191.283375 -52.796782 Z M 191.283375 -95.70762 " transform="matrix(0.0267633,0,0,0.0267633,-0.0803202,11.663018)"/>
</g>
</svg>
