
<svg xmlns="http://www.w3.org/2000/svg" xmlns:xlink="http://www.w3.org/1999/xlink" width="16px" height="16px" viewBox="0 0 16 16" version="1.1">
<g id="surface1">
<path style="fill-rule:nonzero;fill:rgb(36.862745%,64.705882%,83.137255%);fill-opacity:1;stroke-width:2.444939;stroke-linecap:butt;stroke-linejoin:miter;stroke:rgb(0%,23.921569%,29.019608%);stroke-opacity:1;stroke-miterlimit:4;" d="M 6.738281 1007.268419 L 41.261717 1007.268419 C 43.11328 1007.268419 44.61328 1008.768418 44.61328 1010.619981 L 44.61328 1046.104355 C 44.61328 1047.955917 43.11328 1049.455917 41.261717 1049.455917 L 6.738281 1049.455917 C 4.886719 1049.455917 3.386719 1047.955917 3.386719 1046.104355 L 3.386719 1010.619981 C 3.386719 1008.768418 4.886719 1007.268419 6.738281 1007.268419 Z M 6.738281 1007.268419 " transform="matrix(0.333333,0,0,0.333333,0,-334.7874)"/>
<path style=" stroke:none;fill-rule:evenodd;fill:rgb(88.235294%,32.156863%,32.156863%);fill-opacity:1;" d="M 9.296875 1.421875 L 13.484375 1.421875 C 14.023438 1.371094 14.332031 1.566406 14.441406 1.976562 L 14.441406 13.960938 C 14.34375 14.507812 14.070312 14.554688 13.800781 14.601562 L 5.441406 14.601562 Z M 9.296875 1.421875 "/>
<path style=" stroke:none;fill-rule:nonzero;fill:rgb(100%,100%,100%);fill-opacity:1;" d="M 6.492188 3.335938 C 6.363281 3.335938 6.261719 3.441406 6.261719 3.570312 L 6.261719 4.027344 C 6.035156 4.089844 5.820312 4.179688 5.621094 4.296875 L 5.292969 3.972656 C 5.246094 3.925781 5.191406 3.898438 5.132812 3.898438 C 5.074219 3.898438 5.011719 3.921875 4.96875 3.964844 L 4.332031 4.601562 C 4.242188 4.691406 4.246094 4.832031 4.339844 4.925781 L 4.664062 5.253906 C 4.546875 5.453125 4.453125 5.667969 4.394531 5.898438 L 3.9375 5.898438 C 3.808594 5.898438 3.703125 5.996094 3.703125 6.125 L 3.703125 7.023438 C 3.703125 7.148438 3.808594 7.25 3.9375 7.25 L 4.394531 7.25 C 4.453125 7.480469 4.546875 7.695312 4.664062 7.894531 L 4.339844 8.222656 C 4.246094 8.3125 4.242188 8.457031 4.332031 8.546875 L 4.96875 9.183594 C 5.058594 9.273438 5.199219 9.265625 5.292969 9.175781 L 5.621094 8.851562 C 5.820312 8.96875 6.035156 9.058594 6.261719 9.121094 L 6.261719 9.578125 C 6.261719 9.707031 6.363281 9.8125 6.492188 9.8125 L 7.390625 9.8125 C 7.515625 9.8125 7.617188 9.707031 7.617188 9.578125 L 7.617188 9.121094 C 7.84375 9.058594 8.0625 8.96875 8.261719 8.851562 L 8.589844 9.175781 C 8.679688 9.265625 8.824219 9.273438 8.914062 9.183594 L 9.550781 8.546875 C 9.640625 8.457031 9.632812 8.3125 9.542969 8.222656 L 9.21875 7.894531 C 9.335938 7.695312 9.425781 7.480469 9.488281 7.25 L 9.941406 7.25 C 10.074219 7.25 10.179688 7.148438 10.179688 7.023438 L 10.179688 6.125 C 10.179688 5.996094 10.074219 5.898438 9.941406 5.898438 L 9.488281 5.898438 C 9.425781 5.667969 9.335938 5.453125 9.21875 5.253906 L 9.542969 4.925781 C 9.632812 4.832031 9.640625 4.691406 9.550781 4.601562 L 8.914062 3.964844 C 8.824219 3.875 8.679688 3.878906 8.589844 3.972656 L 8.261719 4.296875 C 8.0625 4.179688 7.84375 4.089844 7.617188 4.027344 L 7.617188 3.570312 C 7.617188 3.441406 7.515625 3.335938 7.390625 3.335938 Z M 6.941406 4.925781 C 7.851562 4.925781 8.589844 5.664062 8.589844 6.574219 C 8.589844 7.484375 7.851562 8.222656 6.941406 8.222656 C 6.03125 8.222656 5.292969 7.484375 5.292969 6.574219 C 5.292969 5.664062 6.03125 4.925781 6.941406 4.925781 Z M 6.941406 4.925781 "/>
<path style=" stroke:none;fill-rule:nonzero;fill:rgb(100%,100%,100%);fill-opacity:1;" d="M 9.25 8.992188 C 9.175781 8.988281 9.117188 9.042969 9.109375 9.113281 L 9.085938 9.371094 C 8.957031 9.390625 8.828125 9.433594 8.710938 9.488281 L 8.546875 9.289062 C 8.523438 9.261719 8.492188 9.242188 8.460938 9.242188 C 8.425781 9.238281 8.390625 9.246094 8.363281 9.269531 L 7.976562 9.59375 C 7.921875 9.640625 7.917969 9.71875 7.964844 9.773438 L 8.128906 9.972656 C 8.054688 10.078125 7.992188 10.195312 7.945312 10.320312 L 7.691406 10.296875 C 7.617188 10.292969 7.554688 10.34375 7.546875 10.414062 L 7.5 10.917969 C 7.496094 10.988281 7.550781 11.050781 7.621094 11.054688 L 7.878906 11.078125 C 7.898438 11.210938 7.941406 11.335938 7.996094 11.453125 L 7.796875 11.621094 C 7.742188 11.667969 7.730469 11.746094 7.777344 11.800781 L 8.101562 12.1875 C 8.148438 12.246094 8.226562 12.25 8.28125 12.203125 L 8.484375 12.035156 C 8.589844 12.113281 8.707031 12.175781 8.828125 12.21875 L 8.804688 12.476562 C 8.800781 12.546875 8.851562 12.613281 8.921875 12.617188 L 9.425781 12.664062 C 9.496094 12.671875 9.558594 12.617188 9.566406 12.542969 L 9.585938 12.289062 C 9.71875 12.265625 9.84375 12.226562 9.960938 12.171875 L 10.128906 12.367188 C 10.175781 12.421875 10.253906 12.433594 10.308594 12.386719 L 10.699219 12.0625 C 10.753906 12.019531 10.757812 11.9375 10.710938 11.882812 L 10.546875 11.683594 C 10.621094 11.578125 10.683594 11.460938 10.726562 11.335938 L 10.984375 11.359375 C 11.054688 11.367188 11.121094 11.3125 11.125 11.242188 L 11.171875 10.742188 C 11.179688 10.667969 11.125 10.609375 11.050781 10.601562 L 10.796875 10.578125 C 10.773438 10.449219 10.734375 10.320312 10.679688 10.203125 L 10.875 10.039062 C 10.933594 9.992188 10.941406 9.910156 10.898438 9.855469 L 10.574219 9.46875 C 10.527344 9.414062 10.445312 9.410156 10.390625 9.457031 L 10.191406 9.621094 C 10.085938 9.546875 9.96875 9.484375 9.84375 9.4375 L 9.867188 9.183594 C 9.875 9.109375 9.824219 9.046875 9.75 9.039062 Z M 9.421875 9.90625 C 9.929688 9.953125 10.304688 10.402344 10.257812 10.910156 C 10.214844 11.421875 9.761719 11.796875 9.253906 11.75 C 8.746094 11.707031 8.367188 11.253906 8.414062 10.746094 C 8.460938 10.234375 8.910156 9.859375 9.421875 9.90625 Z M 9.421875 9.90625 "/>
<path style=" stroke:none;fill-rule:nonzero;fill:rgb(100%,100%,100%);fill-opacity:1;" d="M 10.9375 6.839844 C 10.886719 6.835938 10.84375 6.875 10.839844 6.925781 L 10.824219 7.105469 C 10.730469 7.125 10.640625 7.152344 10.558594 7.191406 L 10.441406 7.050781 C 10.421875 7.03125 10.402344 7.019531 10.378906 7.015625 C 10.355469 7.011719 10.332031 7.019531 10.3125 7.035156 L 10.039062 7.265625 C 10 7.296875 9.996094 7.355469 10.027344 7.394531 L 10.144531 7.535156 C 10.09375 7.609375 10.046875 7.691406 10.015625 7.78125 L 9.835938 7.765625 C 9.785156 7.757812 9.738281 7.796875 9.734375 7.847656 L 9.703125 8.199219 C 9.699219 8.25 9.734375 8.296875 9.789062 8.300781 L 9.96875 8.316406 C 9.984375 8.40625 10.011719 8.496094 10.050781 8.582031 L 9.910156 8.699219 C 9.871094 8.730469 9.863281 8.789062 9.898438 8.824219 L 10.125 9.101562 C 10.160156 9.140625 10.214844 9.140625 10.253906 9.109375 L 10.394531 8.992188 C 10.46875 9.046875 10.554688 9.089844 10.640625 9.121094 L 10.625 9.300781 C 10.621094 9.355469 10.65625 9.398438 10.707031 9.402344 L 11.0625 9.4375 C 11.113281 9.441406 11.15625 9.402344 11.160156 9.351562 L 11.175781 9.171875 C 11.269531 9.15625 11.359375 9.125 11.441406 9.085938 L 11.558594 9.226562 C 11.59375 9.265625 11.648438 9.273438 11.6875 9.242188 L 11.960938 9.011719 C 12 8.980469 12.003906 8.921875 11.96875 8.882812 L 11.855469 8.742188 C 11.90625 8.667969 11.949219 8.585938 11.984375 8.496094 L 12.164062 8.511719 C 12.214844 8.519531 12.261719 8.480469 12.265625 8.433594 L 12.296875 8.078125 C 12.300781 8.027344 12.261719 7.984375 12.210938 7.976562 L 12.03125 7.960938 C 12.015625 7.871094 11.988281 7.78125 11.949219 7.695312 L 12.085938 7.578125 C 12.128906 7.546875 12.132812 7.492188 12.101562 7.453125 L 11.875 7.175781 C 11.839844 7.136719 11.785156 7.136719 11.746094 7.167969 L 11.605469 7.285156 C 11.527344 7.230469 11.445312 7.1875 11.359375 7.15625 L 11.375 6.976562 C 11.378906 6.921875 11.34375 6.878906 11.292969 6.875 Z M 11.058594 7.488281 C 11.417969 7.519531 11.683594 7.835938 11.652344 8.199219 C 11.621094 8.558594 11.300781 8.824219 10.941406 8.789062 C 10.582031 8.757812 10.316406 8.441406 10.347656 8.078125 C 10.378906 7.71875 10.699219 7.453125 11.058594 7.488281 Z M 11.058594 7.488281 "/>
</g>
</svg>
