
<svg xmlns="http://www.w3.org/2000/svg" xmlns:xlink="http://www.w3.org/1999/xlink" width="128px" height="128px" viewBox="0 0 128 128" version="1.1">
<g id="surface1">
<path style=" stroke:none;fill-rule:nonzero;fill:rgb(20%,20%,20%);fill-opacity:1;" d="M 34.3125 6.910156 C 25.667969 6.910156 18.707031 13.871094 18.707031 22.515625 L 18.707031 105.484375 C 18.707031 114.128906 25.667969 121.089844 34.3125 121.089844 L 93.6875 121.089844 C 102.332031 121.089844 109.292969 114.128906 109.292969 105.484375 L 109.292969 25.417969 L 66.238281 6.910156 Z M 95.285156 6.988281 C 96.339844 7.097656 97.359375 7.304688 98.339844 7.609375 C 97.359375 7.304688 96.339844 7.097656 95.285156 6.988281 Z M 98.339844 7.609375 C 99.804688 8.0625 101.175781 8.726562 102.421875 9.566406 C 101.175781 8.726562 99.804688 8.0625 98.339844 7.609375 Z M 103.625 10.464844 C 104.011719 10.78125 104.375 11.121094 104.730469 11.472656 C 104.375 11.121094 104.011719 10.78125 103.625 10.464844 Z M 103.625 10.464844 "/>
<path style=" stroke:none;fill-rule:nonzero;fill:rgb(100%,100%,100%);fill-opacity:0.682353;" d="M 109.292969 25.417969 L 66.238281 6.910156 L 66.238281 9.8125 C 66.238281 18.457031 73.199219 25.417969 81.84375 25.417969 Z M 109.292969 25.417969 "/>
<path style=" stroke:none;fill-rule:nonzero;fill:rgb(100%,100%,100%);fill-opacity:1;" d="M 80.878906 70.84375 L 80.878906 76.191406 L 75.910156 76.191406 L 75.910156 81.789062 L 70.117188 81.789062 L 70.117188 76.191406 L 65.101562 76.191406 L 65.101562 70.84375 L 70.117188 70.84375 L 70.117188 65.246094 L 75.910156 65.246094 L 75.910156 70.84375 L 80.878906 70.84375 "/>
<path style=" stroke:none;fill-rule:nonzero;fill:rgb(100%,100%,100%);fill-opacity:1;" d="M 101.332031 70.84375 L 101.332031 76.191406 L 96.359375 76.191406 L 96.359375 81.789062 L 90.570312 81.789062 L 90.570312 76.191406 L 85.550781 76.191406 L 85.550781 70.84375 L 90.570312 70.84375 L 90.570312 65.246094 L 96.359375 65.246094 L 96.359375 70.84375 L 101.332031 70.84375 "/>
<path style=" stroke:none;fill-rule:nonzero;fill:rgb(100%,100%,100%);fill-opacity:1;" d="M 28.476562 72.964844 C 28.476562 70.734375 28.9375 68.535156 29.855469 66.371094 C 30.777344 64.171875 32.097656 62.214844 33.820312 60.496094 C 35.582031 58.777344 37.722656 57.386719 40.242188 56.320312 C 42.765625 55.257812 45.644531 54.726562 48.886719 54.726562 C 52.691406 54.726562 55.972656 55.464844 58.734375 56.941406 C 61.535156 58.417969 63.597656 60.339844 64.917969 62.710938 L 58.554688 66.472656 C 58.070312 65.441406 57.449219 64.585938 56.691406 63.898438 C 55.929688 63.175781 55.089844 62.609375 54.167969 62.195312 C 53.289062 61.785156 52.367188 61.492188 51.40625 61.320312 C 50.445312 61.113281 49.527344 61.011719 48.644531 61.011719 C 46.683594 61.011719 44.960938 61.371094 43.480469 62.09375 C 42 62.816406 40.761719 63.761719 39.757812 64.929688 C 38.800781 66.0625 38.058594 67.367188 37.539062 68.84375 C 37.058594 70.289062 36.816406 71.730469 36.816406 73.171875 C 36.816406 74.789062 37.097656 76.351562 37.660156 77.863281 C 38.257812 79.339844 39.078125 80.644531 40.121094 81.777344 C 41.199219 82.914062 42.480469 83.824219 43.960938 84.507812 C 45.441406 85.195312 47.0625 85.539062 48.824219 85.539062 C 49.746094 85.539062 50.6875 85.4375 51.644531 85.230469 C 52.605469 85.023438 53.527344 84.699219 54.40625 84.253906 C 55.328125 83.804688 56.167969 83.238281 56.929688 82.550781 C 57.691406 81.832031 58.308594 80.972656 58.789062 79.976562 L 65.574219 83.324219 C 64.933594 84.699219 63.992188 85.917969 62.753906 86.984375 C 61.550781 88.015625 60.171875 88.890625 58.609375 89.609375 C 57.050781 90.332031 55.410156 90.882812 53.6875 91.261719 C 51.964844 91.636719 50.265625 91.828125 48.585938 91.828125 C 45.621094 91.828125 42.902344 91.277344 40.417969 90.179688 C 37.976562 89.078125 35.855469 87.652344 34.054688 85.902344 C 32.292969 84.113281 30.914062 82.105469 29.914062 79.871094 C 28.953125 77.605469 28.472656 75.304688 28.472656 72.96875 "/>
</g>
</svg>
