<?xml version="1.0" encoding="UTF-8"?>
<svg xmlns="http://www.w3.org/2000/svg" xmlns:xlink="http://www.w3.org/1999/xlink" width="32pt" height="32pt" viewBox="0 0 32 32" version="1.1">
<g id="surface1">
<path style=" stroke:none;fill-rule:nonzero;fill:rgb(30.196078%,30.196078%,30.196078%);fill-opacity:1;" d="M 4.363281 4.363281 L 4.363281 5.816406 L 27.636719 5.816406 L 27.636719 4.363281 Z M 7.273438 7.273438 L 7.273438 8.726562 L 24.871094 8.726562 L 24.871094 7.273438 Z M 4.363281 13.089844 L 4.363281 14.546875 L 27.636719 14.546875 L 27.636719 13.089844 Z M 10.183594 16 L 10.183594 17.453125 L 21.816406 17.453125 L 21.816406 16 Z M 4.363281 20.363281 L 4.363281 21.816406 L 27.636719 21.816406 L 27.636719 20.363281 Z M 7.273438 23.273438 L 7.273438 24.726562 L 24.726562 24.726562 L 24.726562 23.273438 Z M 14.546875 26.183594 L 14.546875 27.636719 L 17.453125 27.636719 L 17.453125 26.183594 Z M 14.546875 26.183594 "/>
</g>
</svg>
