<?xml version="1.0" encoding="UTF-8"?>
<svg xmlns="http://www.w3.org/2000/svg" xmlns:xlink="http://www.w3.org/1999/xlink" width="32pt" height="32pt" viewBox="0 0 32 32" version="1.1">
<g id="surface1">
<path style=" stroke:none;fill-rule:nonzero;fill:rgb(30.196078%,30.196078%,30.196078%);fill-opacity:1;" d="M 2.910156 4.363281 L 2.910156 27.636719 L 23.273438 27.636719 L 29.089844 16 L 23.273438 4.363281 Z M 10.804688 10.183594 L 10.804688 11.042969 C 9.769531 11.042969 9.753906 11.390625 9.753906 12.652344 L 9.753906 14.128906 C 9.753906 14.734375 9.574219 15.632812 8.703125 16.003906 C 9.574219 16.378906 9.753906 17.277344 9.753906 17.882812 L 9.753906 19.347656 C 9.753906 20.609375 9.769531 20.957031 10.804688 20.957031 L 10.804688 21.816406 C 9.253906 21.816406 8.601562 21.304688 8.601562 19.996094 L 8.601562 18.214844 C 8.601562 17.40625 8.574219 16.46875 7.714844 16.46875 L 7.273438 16.46875 L 7.273438 15.53125 L 7.714844 15.53125 C 8.574219 15.53125 8.601562 14.59375 8.601562 13.785156 L 8.601562 12.003906 C 8.601562 10.695312 9.253906 10.183594 10.804688 10.183594 Z M 15.367188 10.183594 C 16.917969 10.183594 17.578125 10.695312 17.578125 12.003906 L 17.578125 13.785156 C 17.578125 14.59375 17.636719 15.53125 18.480469 15.53125 L 18.910156 15.53125 L 18.910156 16.46875 L 18.480469 16.46875 C 17.636719 16.46875 17.578125 17.40625 17.578125 18.214844 L 17.578125 19.996094 C 17.578125 21.304688 16.917969 21.816406 15.367188 21.816406 L 15.367188 20.957031 C 16.402344 20.957031 16.425781 20.609375 16.425781 19.347656 L 16.425781 17.882812 C 16.425781 17.277344 16.605469 16.378906 17.476562 16.003906 C 16.605469 15.632812 16.425781 14.734375 16.425781 14.128906 L 16.425781 12.652344 C 16.425781 11.390625 16.398438 11.042969 15.367188 11.042969 Z M 15.367188 10.183594 "/>
</g>
</svg>
