<?xml version="1.0" encoding="UTF-8"?>
<svg xmlns="http://www.w3.org/2000/svg" xmlns:xlink="http://www.w3.org/1999/xlink" width="32pt" height="32pt" viewBox="0 0 32 32" version="1.1">
<g id="surface1">
<path style=" stroke:none;fill-rule:nonzero;fill:rgb(30.196078%,30.196078%,30.196078%);fill-opacity:1;" d="M 4.363281 4.363281 L 4.363281 8.726562 L 8.726562 8.726562 L 8.726562 4.363281 Z M 10.183594 4.363281 L 10.183594 5.816406 L 23.273438 5.816406 L 24.726562 4.363281 Z M 10.183594 7.273438 L 10.183594 8.726562 L 19.15625 8.726562 L 20.609375 7.273438 Z M 4.363281 14.546875 L 4.363281 18.910156 L 8.726562 18.910156 L 8.726562 14.546875 Z M 10.183594 14.546875 L 10.183594 16 L 13.089844 16 L 14.546875 14.546875 Z M 20.363281 14.546875 L 18.910156 16 L 24.726562 16 L 24.726562 14.546875 Z M 17.453125 17.453125 L 16 18.910156 L 18.910156 18.910156 L 18.910156 17.453125 Z M 12.84375 21.816406 L 11.390625 23.273438 L 24.726562 23.273438 L 24.726562 21.816406 Z M 10.183594 24.726562 L 8.726562 26.183594 L 20.363281 26.183594 L 20.363281 24.726562 Z M 24.726562 26.183594 L 24.726562 27.636719 L 27.636719 27.636719 L 27.636719 26.183594 Z M 24.726562 26.183594 "/>
<path style=" stroke:none;fill-rule:nonzero;fill:rgb(30.196078%,30.196078%,30.196078%);fill-opacity:1;" d="M 26.609375 4.363281 L 27.636719 5.390625 L 5.390625 27.636719 L 4.363281 26.609375 Z M 26.609375 4.363281 "/>
</g>
</svg>
