<?xml version="1.0" encoding="UTF-8"?>
<svg xmlns="http://www.w3.org/2000/svg" xmlns:xlink="http://www.w3.org/1999/xlink" width="32pt" height="32pt" viewBox="0 0 32 32" version="1.1">
<g id="surface1">
<path style=" stroke:none;fill-rule:nonzero;fill:rgb(30.196078%,30.196078%,30.196078%);fill-opacity:1;" d="M 4.363281 8.726562 L 4.363281 23.273438 L 5.816406 23.273438 L 5.816406 8.726562 Z M 7.273438 8.726562 L 7.273438 18.910156 L 8.726562 18.910156 L 8.726562 8.726562 Z M 10.183594 8.726562 L 10.183594 23.273438 L 11.636719 23.273438 L 11.636719 8.726562 Z M 13.089844 8.726562 L 13.089844 23.273438 L 16 23.273438 L 16 8.726562 Z M 17.453125 8.726562 L 17.453125 23.273438 L 20.363281 23.273438 L 20.363281 8.726562 Z M 21.816406 8.726562 L 21.816406 16 L 23.273438 16 L 23.273438 8.726562 Z M 24.726562 8.726562 L 24.726562 23.273438 L 27.636719 23.273438 L 27.636719 8.726562 Z M 24.726562 8.726562 "/>
</g>
</svg>
