
<svg xmlns="http://www.w3.org/2000/svg" xmlns:xlink="http://www.w3.org/1999/xlink" width="512px" height="512px" viewBox="0 0 512 512" version="1.1">
<g id="surface1">
<path style="fill-rule:nonzero;fill:rgb(17.254902%,24.313725%,31.372549%);fill-opacity:1;stroke-width:7.207702;stroke-linecap:butt;stroke-linejoin:miter;stroke:rgb(20.392157%,59.607843%,85.882353%);stroke-opacity:1;stroke-miterlimit:4;" d="M 19.380859 4.96582 L 108.619141 4.96582 C 116.580078 4.96582 123.03418 11.419922 123.03418 19.380859 L 123.03418 108.619141 C 123.03418 116.580078 116.580078 123.03418 108.619141 123.03418 L 19.380859 123.03418 C 11.419922 123.03418 4.96582 116.580078 4.96582 108.619141 L 4.96582 19.380859 C 4.96582 11.419922 11.419922 4.96582 19.380859 4.96582 Z M 19.380859 4.96582 " transform="matrix(4,0,0,4,0,0)"/>
<path style=" stroke:none;fill-rule:nonzero;fill:rgb(20.392157%,59.607843%,85.882353%);fill-opacity:1;" d="M 29.589844 24.371094 L 114.542969 24.371094 L 114.542969 482.195312 L 29.589844 482.195312 Z M 29.589844 24.371094 "/>
<path style=" stroke:none;fill-rule:nonzero;fill:rgb(92.54902%,94.117647%,94.509804%);fill-opacity:1;" d="M 296.785156 144.066406 C 236.277344 144.066406 187.5625 192.777344 187.5625 253.289062 C 187.5625 253.960938 187.644531 254.609375 187.65625 255.277344 C 187.636719 256.027344 187.5625 256.753906 187.5625 257.507812 C 187.5625 267.347656 189.316406 276.753906 192.375 285.523438 C 206.070312 330.195312 247.511719 362.511719 296.785156 362.511719 C 357.292969 362.511719 406.007812 313.796875 406.007812 253.289062 C 406.007812 192.777344 357.292969 144.066406 296.785156 144.066406 Z M 296.785156 168.335938 C 343.847656 168.335938 381.734375 206.226562 381.734375 253.289062 C 381.734375 299.980469 344.425781 337.605469 297.875 338.191406 C 326.621094 329.113281 348.660156 305.230469 355.023438 275.355469 C 339.519531 293.230469 316.675781 304.558594 291.050781 304.558594 C 254.804688 304.558594 224.128906 281.972656 212 250.089844 C 213.6875 204.535156 250.804688 168.335938 296.785156 168.335938 Z M 296.785156 168.335938 "/>
</g>
</svg>
