
<svg xmlns="http://www.w3.org/2000/svg" xmlns:xlink="http://www.w3.org/1999/xlink" width="512px" height="512px" viewBox="0 0 512 512" version="1.1">
<g id="surface1">
<path style="fill-rule:nonzero;fill:rgb(100%,100%,100%);fill-opacity:1;stroke-width:7.956348;stroke-linecap:butt;stroke-linejoin:miter;stroke:rgb(80.784314%,25.882353%,16.078431%);stroke-opacity:1;stroke-miterlimit:4;" d="M -15.123561 273.976921 L 83.383021 273.976921 C 92.171598 273.976921 99.295504 281.100827 99.295504 289.889404 L 99.295504 388.395986 C 99.295504 397.184562 92.171598 404.308469 83.383021 404.308469 L -15.123561 404.308469 C -23.912138 404.308469 -31.036044 397.184562 -31.036044 388.395986 L -31.036044 289.889404 C -31.036044 281.100827 -23.912138 273.976921 -15.123561 273.976921 Z M -15.123561 273.976921 " transform="matrix(3.543307,0,0,3.543307,135.067889,-945.686684)"/>
<path style=" stroke:none;fill-rule:nonzero;fill:rgb(20%,20%,20%);fill-opacity:1;" d="M 256 57.566406 C 195.277344 57.566406 145.664062 109.597656 139.84375 176.625 L 372.15625 176.625 C 366.335938 109.597656 316.726562 57.566406 256 57.566406 Z M 80.910156 195.144531 C 67.976562 195.144531 57.566406 206.945312 57.566406 221.601562 C 57.566406 236.261719 67.976562 248.0625 80.910156 248.0625 L 431.089844 248.0625 C 444.023438 248.0625 454.433594 236.261719 454.433594 221.601562 C 454.433594 206.945312 444.023438 195.144531 431.089844 195.144531 Z M 92.582031 295.683594 C 79.648438 295.683594 69.238281 307.484375 69.238281 322.140625 C 69.238281 336.796875 79.648438 348.597656 92.582031 348.597656 L 196.355469 348.597656 L 110.113281 405.027344 C 98.914062 412.359375 95.097656 428.480469 101.566406 441.175781 C 108.03125 453.867188 122.261719 458.191406 133.460938 450.863281 L 238.492188 382.136719 L 238.492188 295.683594 Z M 273.507812 295.683594 L 273.507812 382.136719 L 378.539062 450.863281 C 389.742188 458.191406 403.96875 453.867188 410.433594 441.175781 C 416.902344 428.480469 413.085938 412.359375 401.886719 405.027344 L 315.644531 348.597656 L 419.417969 348.597656 C 432.347656 348.597656 442.761719 336.796875 442.761719 322.140625 C 442.761719 307.484375 432.347656 295.683594 419.417969 295.683594 Z M 273.507812 295.683594 "/>
<path style=" stroke:none;fill-rule:nonzero;fill:rgb(83.137255%,10.196078%,10.196078%);fill-opacity:1;" d="M 115.929688 195.148438 L 115.929688 314.210938 L 116 314.210938 C 115.996094 314.660156 115.929688 315.082031 115.929688 315.53125 C 115.929688 392.484375 166.375 454.433594 229.054688 454.433594 L 238.492188 454.433594 L 238.492188 269.230469 L 273.507812 269.230469 L 273.507812 454.433594 L 282.945312 454.433594 C 345.625 454.433594 396.070312 392.484375 396.070312 315.53125 C 396.070312 315.082031 396 314.660156 396 314.210938 L 396.070312 314.210938 L 396.070312 195.148438 Z M 115.929688 195.148438 "/>
<path style=" stroke:none;fill-rule:nonzero;fill:rgb(97.647059%,97.647059%,97.647059%);fill-opacity:1;" d="M 344.152344 251.167969 C 344.152344 260.507812 336.582031 268.074219 327.246094 268.074219 C 317.910156 268.074219 310.339844 260.507812 310.339844 251.167969 C 310.339844 241.832031 317.910156 234.265625 327.246094 234.265625 C 336.582031 234.265625 344.152344 241.832031 344.152344 251.167969 Z M 344.152344 251.167969 "/>
<path style=" stroke:none;fill-rule:nonzero;fill:rgb(97.647059%,97.647059%,97.647059%);fill-opacity:1;" d="M 206.492188 382.792969 C 206.492188 392.128906 198.921875 399.699219 189.585938 399.699219 C 180.25 399.699219 172.679688 392.128906 172.679688 382.792969 C 172.679688 373.457031 180.25 365.886719 189.585938 365.886719 C 198.921875 365.886719 206.492188 373.457031 206.492188 382.792969 Z M 206.492188 382.792969 "/>
<path style=" stroke:none;fill-rule:nonzero;fill:rgb(97.647059%,97.647059%,97.647059%);fill-opacity:1;" d="M 269.28125 224.605469 C 269.28125 233.941406 261.714844 241.507812 252.378906 241.507812 C 243.039062 241.507812 235.472656 233.941406 235.472656 224.605469 C 235.472656 215.265625 243.039062 207.699219 252.378906 207.699219 C 261.714844 207.699219 269.28125 215.265625 269.28125 224.605469 Z M 269.28125 224.605469 "/>
<path style=" stroke:none;fill-rule:nonzero;fill:rgb(97.647059%,97.647059%,97.647059%);fill-opacity:1;" d="M 348.980469 376.753906 C 348.980469 386.089844 341.414062 393.660156 332.074219 393.660156 C 322.738281 393.660156 315.167969 386.089844 315.167969 376.753906 C 315.167969 367.417969 322.738281 359.847656 332.074219 359.847656 C 341.414062 359.847656 348.980469 367.417969 348.980469 376.753906 Z M 348.980469 376.753906 "/>
<path style=" stroke:none;fill-rule:nonzero;fill:rgb(97.647059%,97.647059%,97.647059%);fill-opacity:1;" d="M 382.792969 297.054688 C 382.792969 306.394531 375.222656 313.960938 365.886719 313.960938 C 356.550781 313.960938 348.980469 306.394531 348.980469 297.054688 C 348.980469 287.71875 356.550781 280.152344 365.886719 280.152344 C 375.222656 280.152344 382.792969 287.71875 382.792969 297.054688 Z M 382.792969 297.054688 "/>
<path style=" stroke:none;fill-rule:nonzero;fill:rgb(97.647059%,97.647059%,97.647059%);fill-opacity:1;" d="M 320 326.039062 C 320 335.375 312.429688 342.941406 303.09375 342.941406 C 293.757812 342.941406 286.1875 335.375 286.1875 326.039062 C 286.1875 316.699219 293.757812 309.132812 303.09375 309.132812 C 312.429688 309.132812 320 316.699219 320 326.039062 Z M 320 326.039062 "/>
<path style=" stroke:none;fill-rule:nonzero;fill:rgb(97.647059%,97.647059%,97.647059%);fill-opacity:1;" d="M 187.167969 240.300781 C 187.167969 249.636719 179.601562 257.207031 170.265625 257.207031 C 160.925781 257.207031 153.359375 249.636719 153.359375 240.300781 C 153.359375 230.964844 160.925781 223.394531 170.265625 223.394531 C 179.601562 223.394531 187.167969 230.964844 187.167969 240.300781 Z M 187.167969 240.300781 "/>
<path style=" stroke:none;fill-rule:nonzero;fill:rgb(97.647059%,97.647059%,97.647059%);fill-opacity:1;" d="M 218.566406 305.507812 C 218.566406 314.847656 210.996094 322.414062 201.660156 322.414062 C 192.324219 322.414062 184.753906 314.847656 184.753906 305.507812 C 184.753906 296.171875 192.324219 288.605469 201.660156 288.605469 C 210.996094 288.605469 218.566406 296.171875 218.566406 305.507812 Z M 218.566406 305.507812 "/>
<path style=" stroke:none;fill-rule:nonzero;fill:rgb(97.647059%,97.647059%,97.647059%);fill-opacity:1;" d="M 344.152344 251.167969 C 344.152344 260.507812 336.582031 268.074219 327.246094 268.074219 C 317.910156 268.074219 310.339844 260.507812 310.339844 251.167969 C 310.339844 241.832031 317.910156 234.265625 327.246094 234.265625 C 336.582031 234.265625 344.152344 241.832031 344.152344 251.167969 Z M 344.152344 251.167969 "/>
<path style=" stroke:none;fill-rule:nonzero;fill:rgb(97.647059%,97.647059%,97.647059%);fill-opacity:1;" d="M 167.847656 330.867188 C 167.847656 340.203125 160.28125 347.773438 150.945312 347.773438 C 141.605469 347.773438 134.039062 340.203125 134.039062 330.867188 C 134.039062 321.53125 141.605469 313.960938 150.945312 313.960938 C 160.28125 313.960938 167.847656 321.53125 167.847656 330.867188 Z M 167.847656 330.867188 "/>
</g>
</svg>
