
<svg xmlns="http://www.w3.org/2000/svg" xmlns:xlink="http://www.w3.org/1999/xlink" width="512px" height="512px" viewBox="0 0 512 512" version="1.1">
<g id="surface1">
<path style="fill-rule:nonzero;fill:rgb(100%,100%,100%);fill-opacity:1;stroke-width:28.191782;stroke-linecap:butt;stroke-linejoin:miter;stroke:rgb(6.27451%,63.137255%,52.941176%);stroke-opacity:1;stroke-miterlimit:4;" d="M 81.480459 635.617232 L 430.519521 635.617232 C 461.660146 635.617232 486.902334 660.85942 486.902334 692.000045 L 486.902334 1041.039107 C 486.902334 1072.179732 461.660146 1097.42192 430.519521 1097.42192 L 81.480459 1097.42192 C 50.339834 1097.42192 25.097646 1072.179732 25.097646 1041.039107 L 25.097646 692.000045 C 25.097646 660.85942 50.339834 635.617232 81.480459 635.617232 Z M 81.480459 635.617232 " transform="matrix(1,0,0,1,0.00001,-610.519576)"/>
<path style=" stroke:none;fill-rule:nonzero;fill:rgb(96.470588%,27.843137%,27.843137%);fill-opacity:1;" d="M 373.449219 256.335938 C 373.449219 325.523438 317.363281 381.609375 248.179688 381.609375 C 178.992188 381.609375 122.90625 325.523438 122.90625 256.335938 C 122.90625 187.152344 178.992188 131.066406 248.179688 131.066406 C 317.363281 131.066406 373.449219 187.152344 373.449219 256.335938 Z M 373.449219 256.335938 "/>
<path style=" stroke:none;fill-rule:nonzero;fill:rgb(10.588235%,63.921569%,61.176471%);fill-opacity:1;" d="M 248.179688 57.375 L 248.179688 263.707031 L 387.710938 398.074219 C 425.707031 360.695312 447.113281 309.636719 447.140625 256.335938 C 447.140625 146.453125 358.0625 57.375 248.179688 57.375 Z M 248.179688 57.375 "/>
<path style=" stroke:none;fill-rule:nonzero;fill:rgb(55.686275%,26.666667%,67.843137%);fill-opacity:1;" d="M 248.179688 263.707031 L 108.714844 398 C 145.886719 434.65625 195.972656 455.234375 248.179688 455.296875 Z M 248.179688 263.707031 "/>
<path style=" stroke:none;fill-rule:nonzero;fill:rgb(97.647059%,87.058824%,41.176471%);fill-opacity:1;" d="M 71.582031 263.707031 C 73.496094 308.664062 92.472656 351.203125 124.648438 382.660156 L 248.179688 263.707031 Z M 71.582031 263.707031 "/>
<path style=" stroke:none;fill-rule:nonzero;fill:rgb(32.156863%,70.196078%,85.098039%);fill-opacity:1;" d="M 248.179688 263.707031 L 248.179688 433.191406 C 294.394531 433.179688 338.769531 415.078125 371.808594 382.757812 Z M 248.179688 263.707031 "/>
</g>
</svg>
