
<svg xmlns="http://www.w3.org/2000/svg" xmlns:xlink="http://www.w3.org/1999/xlink" width="512px" height="512px" viewBox="0 0 512 512" version="1.1">
<g id="surface1">
<path style="fill-rule:nonzero;fill:rgb(87.45098%,82.352941%,1.176471%);fill-opacity:1;stroke-width:22.636312;stroke-linecap:butt;stroke-linejoin:miter;stroke:rgb(6.27451%,27.45098%,63.137255%);stroke-opacity:1;stroke-miterlimit:4;" d="M 69.870736 24.59655 L 350.129133 24.59655 C 375.132634 24.59655 395.403319 44.867235 395.403319 69.870736 L 395.403319 350.129133 C 395.403319 375.132634 375.132634 395.403319 350.129133 395.403319 L 69.870736 395.403319 C 44.867235 395.403319 24.59655 375.132634 24.59655 350.129133 L 24.59655 69.870736 C 24.59655 44.867235 44.867235 24.59655 69.870736 24.59655 Z M 69.870736 24.59655 " transform="matrix(1.219048,0,0,1.219048,0,0)"/>
<path style=" stroke:none;fill-rule:nonzero;fill:rgb(100%,100%,100%);fill-opacity:1;" d="M 247.464844 398.554688 L 248.078125 376.613281 L 268.800781 376.613281 L 269.410156 398.554688 L 270.019531 420.5 L 290.742188 420.5 L 291.351562 398.554688 L 291.960938 376.613281 L 313.296875 375.867188 C 325.027344 375.453125 336.28125 374.570312 338.296875 373.902344 C 351.820312 369.417969 368.265625 355.722656 373.882812 344.269531 C 382.585938 326.519531 382.355469 304.554688 373.292969 287.761719 C 369.15625 280.097656 358.410156 269.070312 350.769531 264.652344 C 347.578125 262.808594 341.109375 260.316406 336.394531 259.121094 C 331.679688 257.921875 327.800781 256.53125 327.777344 256.027344 C 327.753906 255.523438 331.171875 252.003906 335.367188 248.207031 C 344.546875 239.898438 351.179688 229.988281 354.933594 218.980469 C 359.136719 206.644531 358.898438 188.410156 354.367188 176.039062 C 345.148438 150.878906 323.640625 134.886719 295.007812 131.902344 L 291.960938 131.585938 L 291.351562 109.640625 L 290.742188 87.699219 L 270.019531 87.699219 L 269.410156 109.640625 L 268.800781 131.585938 L 248.078125 131.585938 L 247.464844 109.640625 L 246.855469 87.699219 L 226.132812 87.699219 L 225.523438 109.640625 L 224.914062 131.585938 L 181.027344 132.195312 L 137.144531 132.804688 L 137.144531 152.308594 L 179.808594 153.527344 L 179.808594 354.671875 L 137.144531 355.890625 L 137.144531 375.394531 L 181.027344 376.003906 L 224.914062 376.613281 L 225.230469 397.335938 C 225.402344 408.734375 225.804688 418.769531 226.125 419.632812 C 226.550781 420.785156 229.402344 421.113281 236.78125 420.851562 L 246.855469 420.5 Z M 247.464844 398.554688 "/>
<path style=" stroke:none;fill-rule:nonzero;fill:rgb(87.45098%,82.352941%,1.176471%);fill-opacity:1;" d="M 248.347656 355.753906 C 247.863281 355.269531 247.464844 337.46875 247.464844 316.199219 C 247.464844 282.054688 247.691406 277.433594 249.394531 276.78125 C 251.972656 275.792969 307.757812 275.832031 315.023438 276.828125 C 323.667969 278.011719 334.9375 285.3125 340.347656 293.226562 C 346.511719 302.246094 349.359375 313.886719 347.515625 322.492188 C 344.46875 336.699219 336.828125 346.953125 324.875 352.871094 C 318.882812 355.839844 318.191406 355.894531 284.003906 356.261719 C 264.875 356.464844 248.832031 356.238281 248.347656 355.753906 Z M 248.347656 355.753906 "/>
<path style=" stroke:none;fill-rule:nonzero;fill:rgb(87.45098%,82.352941%,1.176471%);fill-opacity:1;" d="M 248.972656 239.675781 C 247.773438 238.910156 247.503906 229.734375 247.753906 197.941406 L 248.078125 157.183594 L 271.238281 157.183594 C 294.316406 157.183594 294.425781 157.199219 301.585938 160.710938 C 310.699219 165.1875 316.871094 171.359375 321.347656 180.476562 C 324.453125 186.796875 324.875 188.980469 324.859375 198.632812 C 324.84375 211.113281 322.335938 217.917969 314.59375 226.484375 C 304.28125 237.902344 295.394531 240.695312 269.492188 240.671875 C 259.054688 240.660156 249.820312 240.210938 248.972656 239.675781 Z M 248.972656 239.675781 "/>
</g>
</svg>
