
<svg xmlns="http://www.w3.org/2000/svg" xmlns:xlink="http://www.w3.org/1999/xlink" width="512px" height="512px" viewBox="0 0 512 512" version="1.1">
<g id="surface1">
<path style="fill-rule:nonzero;fill:rgb(0%,66.666667%,83.137255%);fill-opacity:1;stroke-width:6.927858;stroke-linecap:butt;stroke-linejoin:miter;stroke:rgb(19.215686%,34.509804%,38.823529%);stroke-opacity:1;stroke-miterlimit:4;" d="M 21.113281 7.257812 L 106.886719 7.257812 C 114.539062 7.257812 120.742188 13.460938 120.742188 21.113281 L 120.742188 106.886719 C 120.742188 114.539062 114.539062 120.742188 106.886719 120.742188 L 21.113281 120.742188 C 13.460938 120.742188 7.257812 114.539062 7.257812 106.886719 L 7.257812 21.113281 C 7.257812 13.460938 13.460938 7.257812 21.113281 7.257812 Z M 21.113281 7.257812 " transform="matrix(4,0,0,4,0,0)"/>
<path style=" stroke:none;fill-rule:evenodd;fill:rgb(20%,20%,20%);fill-opacity:1;" d="M 272.855469 69.355469 L 447.574219 69.355469 L 447.574219 272.1875 Z M 272.855469 69.355469 "/>
<path style=" stroke:none;fill-rule:evenodd;fill:rgb(20%,20%,20%);fill-opacity:1;" d="M 236.585938 454.167969 L 61.867188 454.167969 L 61.867188 200.714844 Z M 236.585938 454.167969 "/>
<path style=" stroke:none;fill-rule:nonzero;fill:rgb(100%,100%,100%);fill-opacity:1;" d="M 346.28125 353.375 L 297.8125 353.375 L 297.8125 404.90625 L 346.28125 404.90625 Z M 273.578125 353.375 L 225.109375 353.375 L 225.109375 404.90625 L 273.578125 404.90625 Z M 200.875 353.375 L 152.410156 353.375 L 152.410156 404.90625 L 200.875 404.90625 Z M 200.875 353.375 "/>
</g>
</svg>
