
<svg xmlns="http://www.w3.org/2000/svg" xmlns:xlink="http://www.w3.org/1999/xlink" width="512px" height="512px" viewBox="0 0 512 512" version="1.1">
<g id="surface1">
<path style="fill-rule:nonzero;fill:rgb(16.862745%,23.529412%,30.588235%);fill-opacity:1;stroke-width:2.541277;stroke-linecap:butt;stroke-linejoin:miter;stroke:rgb(16.862745%,65.882353%,92.156863%);stroke-opacity:1;stroke-miterlimit:4;" d="M 188.504915 692.998147 L 219.968293 692.998147 C 222.775299 692.998147 225.050934 695.273782 225.050934 698.080789 L 225.050934 729.544167 C 225.050934 732.351173 222.775299 734.626808 219.968293 734.626808 L 188.504915 734.626808 C 185.697908 734.626808 183.422273 732.351173 183.422273 729.544167 L 183.422273 698.080789 C 183.422273 695.273782 185.697908 692.998147 188.504915 692.998147 Z M 188.504915 692.998147 " transform="matrix(10.666667,0,0,10.666667,-1922.52384,-7358)"/>
<path style=" stroke:none;fill-rule:nonzero;fill:rgb(92.54902%,94.117647%,94.509804%);fill-opacity:1;" d="M 326.003906 330.65625 L 326.003906 466.546875 L 464.742188 330.65625 Z M 326.003906 330.65625 "/>
<path style=" stroke:none;fill-rule:evenodd;fill:rgb(100%,50.196078%,50.196078%);fill-opacity:1;" d="M 125.34375 132.984375 L 133.320312 125.007812 L 150.722656 142.410156 L 142.746094 150.386719 Z M 125.34375 132.984375 "/>
<path style=" stroke:none;fill-rule:nonzero;fill:rgb(17.254902%,24.313725%,31.372549%);fill-opacity:1;" d="M 87.277344 81.300781 L 200.066406 81.300781 L 200.066406 194.09375 L 87.277344 194.09375 Z M 87.277344 81.300781 "/>
<path style=" stroke:none;fill-rule:evenodd;fill:rgb(18.039216%,80%,44.313725%);fill-opacity:1;" d="M 138.015625 95.402344 C 126.941406 95.402344 115.941406 99.960938 108.117188 107.792969 C 100.292969 115.621094 95.734375 126.625 95.734375 137.699219 C 95.734375 148.769531 100.292969 159.773438 108.117188 167.601562 C 115.941406 175.433594 126.941406 179.992188 138.015625 179.992188 C 149.089844 179.996094 160.097656 175.4375 167.933594 167.609375 C 175.765625 159.777344 180.328125 148.769531 180.328125 137.699219 L 169.050781 137.699219 C 169.050781 145.816406 165.703125 153.890625 159.957031 159.632812 C 154.210938 165.375 146.136719 168.714844 138.015625 168.714844 C 129.894531 168.714844 121.828125 165.371094 116.089844 159.628906 C 110.351562 153.886719 107.015625 145.816406 107.015625 137.699219 C 107.015625 129.578125 110.351562 121.507812 116.089844 115.765625 C 121.828125 110.023438 129.894531 106.679688 138.015625 106.679688 C 138.023438 106.679688 138.027344 106.679688 138.03125 106.679688 L 138.03125 95.402344 C 138.027344 95.402344 138.023438 95.402344 138.015625 95.402344 Z M 138.015625 95.402344 "/>
<path style=" stroke:none;fill-rule:evenodd;fill:rgb(92.54902%,94.117647%,94.509804%);fill-opacity:1;" d="M 183.632812 95.402344 L 143.671875 135.363281 L 133.320312 125.007812 L 125.34375 132.984375 L 135.699219 143.335938 L 142.746094 150.386719 L 143.671875 151.3125 L 191.609375 103.375 Z M 183.632812 95.402344 "/>
<path style=" stroke:none;fill-rule:evenodd;fill:rgb(100%,50.196078%,50.196078%);fill-opacity:1;" d="M 125.34375 358.566406 L 133.320312 350.589844 L 150.722656 367.992188 L 142.746094 375.96875 Z M 125.34375 358.566406 "/>
<path style=" stroke:none;fill-rule:nonzero;fill:rgb(17.254902%,24.313725%,31.372549%);fill-opacity:1;" d="M 87.277344 306.882812 L 200.066406 306.882812 L 200.066406 419.675781 L 87.277344 419.675781 Z M 87.277344 306.882812 "/>
<path style=" stroke:none;fill-rule:evenodd;fill:rgb(18.039216%,80%,44.313725%);fill-opacity:1;" d="M 138.015625 320.984375 C 126.941406 320.984375 115.941406 325.542969 108.117188 333.375 C 100.292969 341.203125 95.734375 352.207031 95.734375 363.277344 C 95.734375 374.351562 100.292969 385.355469 108.117188 393.183594 C 115.941406 401.015625 126.941406 405.574219 138.015625 405.574219 C 149.089844 405.578125 160.097656 401.019531 167.933594 393.191406 C 175.765625 385.359375 180.328125 374.351562 180.328125 363.277344 L 169.050781 363.277344 C 169.050781 371.398438 165.703125 379.472656 159.957031 385.214844 C 154.210938 390.957031 146.136719 394.296875 138.015625 394.296875 C 129.894531 394.296875 121.828125 390.953125 116.089844 385.210938 C 110.351562 379.46875 107.015625 371.398438 107.015625 363.277344 C 107.015625 355.160156 110.351562 347.089844 116.089844 341.347656 C 121.828125 335.605469 129.894531 332.261719 138.015625 332.261719 C 138.023438 332.261719 138.027344 332.261719 138.03125 332.261719 L 138.03125 320.984375 C 138.027344 320.984375 138.023438 320.984375 138.015625 320.984375 Z M 138.015625 320.984375 "/>
<path style=" stroke:none;fill-rule:evenodd;fill:rgb(92.54902%,94.117647%,94.509804%);fill-opacity:1;" d="M 183.632812 320.984375 L 143.671875 360.945312 L 133.320312 350.589844 L 125.34375 358.566406 L 135.699219 368.917969 L 142.746094 375.96875 L 143.671875 376.894531 L 191.609375 328.957031 Z M 183.632812 320.984375 "/>
<path style=" stroke:none;fill-rule:evenodd;fill:rgb(100%,50.196078%,50.196078%);fill-opacity:1;" d="M 125.34375 245.773438 L 133.320312 237.800781 L 150.722656 255.203125 L 142.746094 263.175781 Z M 125.34375 245.773438 "/>
<path style=" stroke:none;fill-rule:nonzero;fill:rgb(17.254902%,24.313725%,31.372549%);fill-opacity:1;" d="M 87.277344 194.09375 L 200.066406 194.09375 L 200.066406 306.882812 L 87.277344 306.882812 Z M 87.277344 194.09375 "/>
<path style=" stroke:none;fill-rule:evenodd;fill:rgb(18.039216%,80%,44.313725%);fill-opacity:1;" d="M 138.015625 208.191406 C 126.941406 208.191406 115.941406 212.753906 108.117188 220.582031 C 100.292969 228.414062 95.734375 239.414062 95.734375 250.488281 C 95.734375 261.5625 100.292969 272.5625 108.117188 280.394531 C 115.941406 288.222656 126.941406 292.785156 138.015625 292.785156 C 149.089844 292.785156 160.097656 288.230469 167.933594 280.398438 C 175.765625 272.570312 180.328125 261.5625 180.328125 250.488281 L 169.050781 250.488281 C 169.050781 258.609375 165.703125 266.683594 159.957031 272.425781 C 154.210938 278.167969 146.136719 281.507812 138.015625 281.503906 C 129.894531 281.503906 121.828125 278.160156 116.089844 272.417969 C 110.351562 266.675781 107.015625 258.609375 107.015625 250.488281 C 107.015625 242.367188 110.351562 234.300781 116.089844 228.558594 C 121.828125 222.816406 129.894531 219.472656 138.015625 219.472656 C 138.023438 219.472656 138.027344 219.46875 138.03125 219.472656 L 138.03125 208.191406 C 138.027344 208.191406 138.023438 208.191406 138.015625 208.191406 Z M 138.015625 208.191406 "/>
<path style=" stroke:none;fill-rule:evenodd;fill:rgb(92.54902%,94.117647%,94.509804%);fill-opacity:1;" d="M 183.632812 208.191406 L 143.671875 248.152344 L 133.320312 237.800781 L 125.34375 245.773438 L 143.671875 264.101562 L 191.609375 216.167969 Z M 183.632812 208.191406 "/>
<path style=" stroke:none;fill-rule:nonzero;fill:rgb(100%,100%,100%);fill-opacity:1;" d="M 454.195312 448.488281 C 455.882812 445.859375 459.703125 442.851562 460.773438 438.867188 C 461.601562 435.769531 462.605469 432.480469 463.285156 428.910156 C 466.246094 413.367188 464.730469 392.675781 464.621094 375.527344 C 464.460938 350.125 463.929688 329.199219 464.742188 328.589844 L 326.003906 464.480469 C 332.070312 463.132812 365.378906 464.988281 397.382812 464.175781 C 410.628906 463.839844 423.949219 464.875 434.621094 462.214844 C 443.144531 460.09375 449.894531 455.191406 454.195312 448.488281 Z M 454.195312 448.488281 "/>
</g>
</svg>
