
<svg xmlns="http://www.w3.org/2000/svg" xmlns:xlink="http://www.w3.org/1999/xlink" width="512px" height="512px" viewBox="0 0 512 512" version="1.1">
<g id="surface1">
<path style=" stroke:none;fill-rule:nonzero;fill:rgb(85.882353%,42.745098%,13.72549%);fill-opacity:1;" d="M 89.230469 37.171875 L 425.113281 37.171875 C 453.863281 37.171875 477.171875 60.480469 477.171875 89.230469 L 477.171875 425.113281 C 477.171875 453.863281 453.863281 477.171875 425.113281 477.171875 L 89.230469 477.171875 C 60.480469 477.171875 37.171875 453.863281 37.171875 425.113281 L 37.171875 89.230469 C 37.171875 60.480469 60.480469 37.171875 89.230469 37.171875 Z M 89.230469 37.171875 "/>
<path style=" stroke:none;fill-rule:nonzero;fill:rgb(97.647059%,97.647059%,97.647059%);fill-opacity:1;" d="M 356.335938 68.898438 C 344.585938 69.277344 333.308594 75.636719 327 86.5625 C 317.390625 103.222656 322.957031 123.957031 339.617188 133.566406 C 356.277344 143.175781 378.273438 137.601562 387.882812 120.949219 C 397.492188 104.289062 391.605469 83.238281 374.949219 73.628906 C 369.238281 70.324219 362.488281 68.898438 356.335938 68.898438 Z M 268.011719 106.121094 C 243.925781 106.121094 221.675781 111.878906 201.449219 121.894531 L 226.054688 165.113281 C 239.089844 159.039062 252.703125 155.015625 268.011719 155.015625 C 321.148438 155.015625 365.671875 196.433594 370.21875 248.390625 L 419.113281 247.445312 C 416.707031 209.066406 399.785156 174.65625 374.003906 149.339844 C 360.796875 154.335938 346.226562 153.832031 332.996094 146.183594 C 319.785156 138.558594 311.597656 124.839844 309.335938 110.855469 C 296.476562 107.296875 282.015625 106.121094 268.011719 106.121094 Z M 184.730469 131.671875 C 154.261719 152.042969 131.335938 182.601562 121.957031 219.054688 C 132.949219 228 140.566406 241.917969 140.566406 257.222656 C 140.566406 272.53125 132.980469 286.414062 121.957031 295.394531 C 131.363281 331.875 154.261719 362.433594 184.730469 382.773438 L 210.28125 340.503906 C 184.132812 322.121094 167.066406 291.664062 167.066406 257.222656 C 167.066406 222.8125 184.132812 192.386719 210.28125 173.945312 Z M 91.355469 222.839844 C 72.140625 222.839844 56.027344 237.980469 56.027344 257.222656 C 56.027344 276.445312 72.140625 292.554688 91.355469 292.554688 C 110.605469 292.554688 125.769531 276.414062 125.742188 257.222656 C 125.742188 238.007812 110.578125 222.839844 91.355469 222.839844 Z M 370.21875 266.058594 C 365.671875 317.988281 321.148438 359.429688 268.011719 359.429688 C 252.703125 359.429688 239.089844 355.398438 226.054688 349.335938 L 201.449219 392.554688 C 221.675781 402.566406 243.925781 408.328125 268.011719 408.328125 C 282.015625 408.328125 296.476562 407.183594 309.335938 403.59375 C 311.582031 389.605469 319.789062 375.914062 332.996094 368.265625 C 346.230469 360.628906 360.769531 360.097656 374.003906 365.109375 C 399.785156 339.761719 416.695312 305.378906 419.113281 267.003906 Z M 356.335938 375.835938 C 350.726562 375.835938 344.824219 377.867188 339.617188 380.882812 C 322.957031 390.492188 317.390625 411.253906 327 427.886719 C 336.605469 444.570312 358.320312 450.425781 374.949219 440.820312 C 391.605469 431.207031 397.492188 410.097656 387.882812 393.5 C 381.277344 382.027344 368.6875 375.519531 356.335938 375.835938 Z M 356.335938 375.835938 "/>
</g>
</svg>
