<!-- color: #474747 -->
<svg xmlns="http://www.w3.org/2000/svg" xmlns:xlink="http://www.w3.org/1999/xlink" width="512px" height="512px" viewBox="0 0 512 512" version="1.1">
<defs>
<clipPath id="clip1">
  <path d="M 174 177 L 338 177 L 338 442 L 174 442 Z M 174 177 "/>
</clipPath>
<clipPath id="clip2">
  <path d="M 617.3125 263.039062 C 617.3125 489.875 455.492188 673.601562 256.105469 673.601562 C 56.71875 673.601562 -105.105469 489.875 -105.105469 263.039062 C -105.105469 36.199219 56.71875 -147.527344 256.105469 -147.527344 C 455.492188 -147.527344 617.3125 36.199219 617.3125 263.039062 Z M 617.3125 263.039062 "/>
</clipPath>
<clipPath id="clip3">
  <path d="M 174 231 L 338 231 L 338 312 L 174 312 Z M 174 231 "/>
</clipPath>
<clipPath id="clip4">
  <path d="M 617.3125 263.039062 C 617.3125 489.875 455.492188 673.601562 256.105469 673.601562 C 56.71875 673.601562 -105.105469 489.875 -105.105469 263.039062 C -105.105469 36.199219 56.71875 -147.527344 256.105469 -147.527344 C 455.492188 -147.527344 617.3125 36.199219 617.3125 263.039062 Z M 617.3125 263.039062 "/>
</clipPath>
<clipPath id="clip5">
  <path d="M 188 353 L 325 353 L 325 404 L 188 404 Z M 188 353 "/>
</clipPath>
<clipPath id="clip6">
  <path d="M 617.3125 263.039062 C 617.3125 489.875 455.492188 673.601562 256.105469 673.601562 C 56.71875 673.601562 -105.105469 489.875 -105.105469 263.039062 C -105.105469 36.199219 56.71875 -147.527344 256.105469 -147.527344 C 455.492188 -147.527344 617.3125 36.199219 617.3125 263.039062 Z M 617.3125 263.039062 "/>
</clipPath>
<clipPath id="clip7">
  <path d="M 180 291 L 332 291 L 332 358 L 180 358 Z M 180 291 "/>
</clipPath>
<clipPath id="clip8">
  <path d="M 617.3125 263.039062 C 617.3125 489.875 455.492188 673.601562 256.105469 673.601562 C 56.71875 673.601562 -105.105469 489.875 -105.105469 263.039062 C -105.105469 36.199219 56.71875 -147.527344 256.105469 -147.527344 C 455.492188 -147.527344 617.3125 36.199219 617.3125 263.039062 Z M 617.3125 263.039062 "/>
</clipPath>
<clipPath id="clip9">
  <path d="M 184 84 L 329 84 L 329 214 L 184 214 Z M 184 84 "/>
</clipPath>
<clipPath id="clip10">
  <path d="M 617.3125 263.039062 C 617.3125 489.875 455.492188 673.601562 256.105469 673.601562 C 56.71875 673.601562 -105.105469 489.875 -105.105469 263.039062 C -105.105469 36.199219 56.71875 -147.527344 256.105469 -147.527344 C 455.492188 -147.527344 617.3125 36.199219 617.3125 263.039062 Z M 617.3125 263.039062 "/>
</clipPath>
<clipPath id="clip11">
  <path d="M 51 125 L 217 125 L 217 299 L 51 299 Z M 51 125 "/>
</clipPath>
<clipPath id="clip12">
  <path d="M 617.3125 263.039062 C 617.3125 489.875 455.492188 673.601562 256.105469 673.601562 C 56.71875 673.601562 -105.105469 489.875 -105.105469 263.039062 C -105.105469 36.199219 56.71875 -147.527344 256.105469 -147.527344 C 455.492188 -147.527344 617.3125 36.199219 617.3125 263.039062 Z M 617.3125 263.039062 "/>
</clipPath>
<clipPath id="clip13">
  <path d="M 79 262 L 211 262 L 211 386 L 79 386 Z M 79 262 "/>
</clipPath>
<clipPath id="clip14">
  <path d="M 617.3125 263.039062 C 617.3125 489.875 455.492188 673.601562 256.105469 673.601562 C 56.71875 673.601562 -105.105469 489.875 -105.105469 263.039062 C -105.105469 36.199219 56.71875 -147.527344 256.105469 -147.527344 C 455.492188 -147.527344 617.3125 36.199219 617.3125 263.039062 Z M 617.3125 263.039062 "/>
</clipPath>
<clipPath id="clip15">
  <path d="M 295 125 L 461 125 L 461 299 L 295 299 Z M 295 125 "/>
</clipPath>
<clipPath id="clip16">
  <path d="M 617.3125 263.039062 C 617.3125 489.875 455.492188 673.601562 256.105469 673.601562 C 56.71875 673.601562 -105.105469 489.875 -105.105469 263.039062 C -105.105469 36.199219 56.71875 -147.527344 256.105469 -147.527344 C 455.492188 -147.527344 617.3125 36.199219 617.3125 263.039062 Z M 617.3125 263.039062 "/>
</clipPath>
<clipPath id="clip17">
  <path d="M 301 262 L 433 262 L 433 386 L 301 386 Z M 301 262 "/>
</clipPath>
<clipPath id="clip18">
  <path d="M 617.3125 263.039062 C 617.3125 489.875 455.492188 673.601562 256.105469 673.601562 C 56.71875 673.601562 -105.105469 489.875 -105.105469 263.039062 C -105.105469 36.199219 56.71875 -147.527344 256.105469 -147.527344 C 455.492188 -147.527344 617.3125 36.199219 617.3125 263.039062 Z M 617.3125 263.039062 "/>
</clipPath>
</defs>
<g id="surface1">
<path style="fill-rule:nonzero;fill:rgb(100%,100%,100%);fill-opacity:1;stroke-width:7.117036;stroke-linecap:butt;stroke-linejoin:miter;stroke:rgb(92.54902%,89.019608%,20%);stroke-opacity:1;stroke-miterlimit:4;" d="M 19.942383 5.708008 L 108.057617 5.708008 C 115.918945 5.708008 122.291992 12.081055 122.291992 19.942383 L 122.291992 108.057617 C 122.291992 115.918945 115.918945 122.291992 108.057617 122.291992 L 19.942383 122.291992 C 12.081055 122.291992 5.708008 115.918945 5.708008 108.057617 L 5.708008 19.942383 C 5.708008 12.081055 12.081055 5.708008 19.942383 5.708008 Z M 19.942383 5.708008 " transform="matrix(4,0,0,4,0,0)"/>
<path style=" stroke:none;fill-rule:nonzero;fill:rgb(20%,20%,20%);fill-opacity:1;" d="M 336.042969 308.808594 C 336.042969 246.570312 300.875 196.113281 257.496094 196.113281 C 214.117188 196.113281 178.949219 246.570312 178.949219 308.808594 C 178.949219 371.050781 214.117188 421.503906 257.496094 421.503906 C 300.875 421.503906 336.042969 371.050781 336.042969 308.808594 Z M 336.042969 308.808594 "/>
<g clip-path="url(#clip1)" clip-rule="nonzero">
<g clip-path="url(#clip2)" clip-rule="nonzero">
<path style=" stroke:none;fill-rule:nonzero;fill:rgb(92.54902%,89.019608%,20%);fill-opacity:1;" d="M 256.105469 177.550781 C 228.558594 177.550781 207.578125 198.402344 194.699219 222.589844 C 181.882812 246.777344 174.519531 276.496094 174.519531 309.128906 C 174.519531 341.832031 181.882812 372.445312 194.699219 396.558594 C 207.578125 420.746094 228.558594 441.597656 256.105469 441.597656 C 283.652344 441.597656 305.433594 420.746094 318.25 396.558594 C 331.0625 372.371094 337.691406 341.832031 337.691406 309.128906 C 337.691406 276.496094 331.0625 246.792969 318.25 222.589844 C 305.433594 198.402344 283.652344 177.550781 256.105469 177.550781 M 256.105469 208.71875 C 290.828125 208.71875 319.082031 256.699219 319.082031 315.199219 C 319.082031 373.765625 290.859375 420.835938 256.105469 420.835938 C 221.382812 420.835938 193.128906 373.765625 193.128906 315.199219 C 193.128906 256.699219 221.351562 208.71875 256.105469 208.71875 M 256.105469 208.71875 "/>
</g>
</g>
<g clip-path="url(#clip3)" clip-rule="nonzero">
<g clip-path="url(#clip4)" clip-rule="nonzero">
<path style=" stroke:none;fill-rule:nonzero;fill:rgb(92.54902%,89.019608%,20%);fill-opacity:1;" d="M 256.417969 231.261719 C 223.46875 231.261719 194.273438 250.988281 176.417969 281.960938 C 175.429688 291.652344 175.003906 301.753906 174.816406 311.949219 C 192.484375 283.566406 222.246094 265.019531 256.402344 265.019531 C 290.199219 265.019531 319.960938 283.085938 337.4375 311.039062 C 337.3125 301.417969 336.703125 292.007812 335.898438 282.871094 C 318.234375 251.773438 289.460938 231.261719 256.386719 231.261719 M 256.386719 231.261719 "/>
</g>
</g>
<g clip-path="url(#clip5)" clip-rule="nonzero">
<g clip-path="url(#clip6)" clip-rule="nonzero">
<path style=" stroke:none;fill-rule:nonzero;fill:rgb(92.54902%,89.019608%,20%);fill-opacity:1;" d="M 242.441406 354.074219 C 222.007812 357.074219 203.605469 367.535156 188.277344 381.621094 C 190.175781 385.796875 191.714844 390.472656 193.976562 394.3125 C 195.875 397.597656 198.328125 400.789062 200.605469 403.859375 C 216.859375 394.453125 235.578125 389.007812 255.757812 389.007812 C 275.941406 389.007812 294.660156 394.453125 310.914062 403.859375 C 313.238281 400.789062 315.828125 397.523438 317.605469 394.3125 C 319.929688 390.332031 322.457031 385.9375 324.355469 381.621094 C 305.652344 364.25 281.90625 354.074219 255.964844 354.074219 C 251.300781 354.074219 247.183594 353.449219 242.644531 354.074219 M 242.582031 354.074219 "/>
</g>
</g>
<g clip-path="url(#clip7)" clip-rule="nonzero">
<g clip-path="url(#clip8)" clip-rule="nonzero">
<path style=" stroke:none;fill-rule:nonzero;fill:rgb(92.54902%,89.019608%,20%);fill-opacity:1;" d="M 255.851562 291.132812 C 224.695312 291.132812 201.625 307.523438 180.769531 331.226562 C 181.929688 340.992188 179.058594 348.933594 181.804688 357.859375 C 201.984375 340.707031 227.695312 330.316406 255.980469 330.316406 C 284.199219 330.316406 310.019531 340.707031 330.089844 357.859375 C 332.726562 348.933594 330.765625 341.0625 331.925781 331.226562 C 311.070312 307.378906 287.261719 291.132812 255.980469 291.132812 M 255.851562 291.132812 "/>
</g>
</g>
<g clip-path="url(#clip9)" clip-rule="nonzero">
<g clip-path="url(#clip10)" clip-rule="nonzero">
<path style=" stroke:none;fill-rule:nonzero;fill:rgb(92.54902%,89.019608%,20%);fill-opacity:1;" d="M 256.417969 84.460938 C 216.667969 84.460938 184.207031 115.214844 184.207031 153.773438 C 184.207031 177.335938 196.410156 198.542969 214.941406 211.164062 C 218.742188 201.183594 234.511719 193.382812 254.078125 193.382812 C 274.996094 193.382812 292.242188 202.097656 294.328125 213.109375 C 314.574219 200.773438 328.0625 178.800781 328.0625 153.773438 C 328.0625 115.214844 296.105469 84.460938 256.402344 84.460938 M 210.828125 124.765625 C 217.582031 124.765625 222.667969 135.085938 222.667969 147.847656 C 222.667969 160.609375 217.519531 170.929688 210.828125 170.929688 C 204.074219 170.929688 198.375 160.609375 198.375 147.847656 C 198.375 135.085938 204.074219 124.765625 210.828125 124.765625 M 301.445312 124.765625 C 308.132812 124.765625 313.835938 135.085938 313.835938 147.847656 C 313.835938 160.609375 308.132812 170.929688 301.445312 170.929688 C 294.691406 170.929688 289.601562 160.609375 289.601562 147.847656 C 289.601562 135.085938 294.691406 124.765625 301.445312 124.765625 M 301.445312 124.765625 "/>
</g>
</g>
<g clip-path="url(#clip11)" clip-rule="nonzero">
<g clip-path="url(#clip12)" clip-rule="nonzero">
<path style=" stroke:none;fill-rule:nonzero;fill:rgb(92.54902%,89.019608%,20%);fill-opacity:1;" d="M 103.109375 126.160156 C 127.46875 128.105469 164.277344 139.476562 206.117188 166.394531 C 210.042969 168.910156 213.105469 171.765625 216.796875 174.339844 C 212.742188 178.175781 209.367188 182.496094 206.117188 186.886719 C 203.730469 185.136719 201.578125 183.191406 199.003906 181.585938 C 174.09375 165.554688 148.761719 156.414062 127.96875 154.523438 C 107.175781 152.648438 90.984375 157.878906 84.167969 171.054688 C 70.554688 197.277344 106.078125 235.40625 155.828125 267.484375 C 159.207031 269.640625 165.332031 273.960938 168.644531 275.855469 C 168.222656 276.40625 158.515625 283.796875 158.152344 284.496094 C 154.777344 282.40625 151.589844 280.800781 148.085938 278.566406 C 106.1875 251.648438 78.28125 221.945312 64.648438 199.417969 C 50.96875 176.820312 48.582031 158.414062 55.757812 144.617188 C 62.875 130.871094 78.765625 124.179688 103.1875 126.140625 M 182.023438 294.402344 C 182.386719 295.652344 182.386719 296.988281 182.574219 298.3125 C 182.261719 298.097656 181.773438 297.898438 181.414062 297.6875 C 181.835938 296.5625 181.835938 295.667969 181.960938 294.402344 M 182.023438 294.402344 "/>
</g>
</g>
<g clip-path="url(#clip13)" clip-rule="nonzero">
<g clip-path="url(#clip14)" clip-rule="nonzero">
<path style=" stroke:none;fill-rule:nonzero;fill:rgb(92.54902%,89.019608%,20%);fill-opacity:1;" d="M 187.332031 262.414062 C 186.59375 265.484375 185.246094 268.339844 184.695312 271.480469 C 184.507812 271.550781 184.757812 272.25 184.507812 272.320312 C 131.441406 295.8125 99.417969 328.316406 111.511719 351.183594 C 121.640625 370.214844 158.9375 377.121094 205.316406 372.105469 C 206.117188 373.230469 206.117188 374.550781 206.917969 375.65625 C 208.015625 377.191406 209.304688 378.65625 210.480469 380.261719 C 185.824219 384.367188 163.210938 386.117188 145.023438 385.207031 C 112.453125 383.601562 90.246094 375.515625 82.457031 360.804688 C 74.667969 346.097656 83.007812 327.691406 104.726562 308.933594 C 122.519531 293.527344 150.679688 276.710938 187.363281 262.484375 M 187.363281 262.414062 "/>
</g>
</g>
<g clip-path="url(#clip15)" clip-rule="nonzero">
<g clip-path="url(#clip16)" clip-rule="nonzero">
<path style=" stroke:none;fill-rule:nonzero;fill:rgb(92.54902%,89.019608%,20%);fill-opacity:1;" d="M 409.101562 126.160156 C 384.742188 128.105469 347.929688 139.476562 306.09375 166.394531 C 302.167969 168.910156 299.105469 171.765625 295.414062 174.339844 C 299.464844 178.175781 302.84375 182.496094 306.09375 186.886719 C 308.480469 185.136719 310.632812 183.191406 313.207031 181.585938 C 338.113281 165.554688 363.445312 156.414062 384.238281 154.523438 C 405.03125 152.648438 421.222656 157.878906 428.039062 171.054688 C 441.65625 197.277344 406.132812 235.40625 356.378906 267.484375 C 353.003906 269.640625 346.878906 273.960938 343.5625 275.855469 C 343.988281 276.40625 353.695312 283.796875 354.054688 284.496094 C 357.429688 282.40625 360.621094 280.800781 364.121094 278.566406 C 406.023438 251.648438 433.929688 221.945312 447.5625 199.417969 C 461.238281 176.820312 463.628906 158.414062 456.449219 144.617188 C 449.335938 130.871094 433.441406 124.179688 409.023438 126.140625 M 330.183594 294.402344 C 329.824219 295.652344 329.824219 296.988281 329.632812 298.3125 C 329.949219 298.097656 330.433594 297.898438 330.796875 297.6875 C 330.371094 296.5625 330.371094 295.667969 330.246094 294.402344 M 330.183594 294.402344 "/>
</g>
</g>
<g clip-path="url(#clip17)" clip-rule="nonzero">
<g clip-path="url(#clip18)" clip-rule="nonzero">
<path style=" stroke:none;fill-rule:nonzero;fill:rgb(92.54902%,89.019608%,20%);fill-opacity:1;" d="M 324.875 262.414062 C 325.613281 265.484375 326.964844 268.339844 327.515625 271.480469 C 327.703125 271.550781 327.449219 272.25 327.703125 272.320312 C 380.769531 295.8125 412.789062 328.316406 400.699219 351.183594 C 390.570312 370.214844 353.269531 377.121094 306.894531 372.105469 C 306.09375 373.230469 306.09375 374.550781 305.292969 375.65625 C 304.191406 377.191406 302.90625 378.65625 301.726562 380.261719 C 326.382812 384.367188 349 386.117188 367.183594 385.207031 C 399.753906 383.601562 421.960938 375.515625 429.75 360.804688 C 437.542969 346.097656 429.203125 327.691406 407.484375 308.933594 C 389.6875 293.527344 361.53125 276.710938 324.84375 262.484375 M 324.84375 262.414062 "/>
</g>
</g>
</g>
</svg>
