<!-- color: #685180 -->
<svg xmlns="http://www.w3.org/2000/svg" xmlns:xlink="http://www.w3.org/1999/xlink" width="512px" height="512px" viewBox="0 0 512 512" version="1.1">
<defs>
<clipPath id="clip1">
  <path d="M 100 74 L 411 74 L 411 437 L 100 437 Z M 100 74 "/>
</clipPath>
<clipPath id="clip2">
  <path d="M 552.457031 255.25 C 552.457031 419.476562 419.292969 552.492188 255.214844 552.492188 C 91.136719 552.492188 -42.027344 419.476562 -42.027344 255.25 C -42.027344 91.023438 91.136719 -41.992188 255.214844 -41.992188 C 419.292969 -41.992188 552.457031 91.023438 552.457031 255.25 Z M 552.457031 255.25 "/>
</clipPath>
<clipPath id="clip3">
  <path d="M 100 242 L 411 242 L 411 437 L 100 437 Z M 100 242 "/>
</clipPath>
<clipPath id="clip4">
  <path d="M 552.457031 255.25 C 552.457031 419.476562 419.292969 552.492188 255.214844 552.492188 C 91.136719 552.492188 -42.027344 419.476562 -42.027344 255.25 C -42.027344 91.023438 91.136719 -41.992188 255.214844 -41.992188 C 419.292969 -41.992188 552.457031 91.023438 552.457031 255.25 Z M 552.457031 255.25 "/>
</clipPath>
<clipPath id="clip5">
  <path d="M 281 397 L 294 397 L 294 411 L 281 411 Z M 281 397 "/>
</clipPath>
<clipPath id="clip6">
  <path d="M 552.457031 255.25 C 552.457031 419.476562 419.292969 552.492188 255.214844 552.492188 C 91.136719 552.492188 -42.027344 419.476562 -42.027344 255.25 C -42.027344 91.023438 91.136719 -41.992188 255.214844 -41.992188 C 419.292969 -41.992188 552.457031 91.023438 552.457031 255.25 Z M 552.457031 255.25 "/>
</clipPath>
<clipPath id="clip7">
  <path d="M 255 365 L 275 365 L 275 385 L 255 385 Z M 255 365 "/>
</clipPath>
<clipPath id="clip8">
  <path d="M 552.457031 255.25 C 552.457031 419.476562 419.292969 552.492188 255.214844 552.492188 C 91.136719 552.492188 -42.027344 419.476562 -42.027344 255.25 C -42.027344 91.023438 91.136719 -41.992188 255.214844 -41.992188 C 419.292969 -41.992188 552.457031 91.023438 552.457031 255.25 Z M 552.457031 255.25 "/>
</clipPath>
<clipPath id="clip9">
  <path d="M 268 319 L 294 319 L 294 346 L 268 346 Z M 268 319 "/>
</clipPath>
<clipPath id="clip10">
  <path d="M 552.457031 255.25 C 552.457031 419.476562 419.292969 552.492188 255.214844 552.492188 C 91.136719 552.492188 -42.027344 419.476562 -42.027344 255.25 C -42.027344 91.023438 91.136719 -41.992188 255.214844 -41.992188 C 419.292969 -41.992188 552.457031 91.023438 552.457031 255.25 Z M 552.457031 255.25 "/>
</clipPath>
<clipPath id="clip11">
  <path d="M 255 216 L 294 216 L 294 256 L 255 256 Z M 255 216 "/>
</clipPath>
<clipPath id="clip12">
  <path d="M 552.457031 255.25 C 552.457031 419.476562 419.292969 552.492188 255.214844 552.492188 C 91.136719 552.492188 -42.027344 419.476562 -42.027344 255.25 C -42.027344 91.023438 91.136719 -41.992188 255.214844 -41.992188 C 419.292969 -41.992188 552.457031 91.023438 552.457031 255.25 Z M 552.457031 255.25 "/>
</clipPath>
<clipPath id="clip13">
  <path d="M 229 274 L 262 274 L 262 307 L 229 307 Z M 229 274 "/>
</clipPath>
<clipPath id="clip14">
  <path d="M 552.457031 255.25 C 552.457031 419.476562 419.292969 552.492188 255.214844 552.492188 C 91.136719 552.492188 -42.027344 419.476562 -42.027344 255.25 C -42.027344 91.023438 91.136719 -41.992188 255.214844 -41.992188 C 419.292969 -41.992188 552.457031 91.023438 552.457031 255.25 Z M 552.457031 255.25 "/>
</clipPath>
</defs>
<g id="surface1">
<path style="fill-rule:nonzero;fill:rgb(100%,100%,100%);fill-opacity:1;stroke-width:6.815335;stroke-linecap:butt;stroke-linejoin:miter;stroke:rgb(29.019608%,68.235294%,90.980392%);stroke-opacity:1;stroke-miterlimit:4;" d="M 21.80957 8.178711 L 106.19043 8.178711 C 113.717773 8.178711 119.821289 14.282227 119.821289 21.80957 L 119.821289 106.19043 C 119.821289 113.717773 113.717773 119.821289 106.19043 119.821289 L 21.80957 119.821289 C 14.282227 119.821289 8.178711 113.717773 8.178711 106.19043 L 8.178711 21.80957 C 8.178711 14.282227 14.282227 8.178711 21.80957 8.178711 Z M 21.80957 8.178711 " transform="matrix(4,0,0,4,0,0)"/>
<g clip-path="url(#clip1)" clip-rule="nonzero">
<g clip-path="url(#clip2)" clip-rule="nonzero">
<path style=" stroke:none;fill-rule:nonzero;fill:rgb(78.431373%,58.431373%,89.411765%);fill-opacity:1;" d="M 186.253906 74.320312 C 203.46875 91.636719 203.363281 105.414062 203.363281 126.273438 L 203.363281 169.386719 C 143.140625 189.585938 100.082031 243.957031 100.082031 308.109375 C 100.082031 363.136719 131.988281 411.148438 179.132812 436.386719 L 331.242188 436.386719 C 378.390625 411.148438 410.296875 363.136719 410.296875 308.109375 C 410.296875 244.097656 367.082031 189.78125 306.910156 169.386719 L 306.910156 126.273438 C 306.910156 105.53125 306.804688 91.691406 324.019531 74.320312 L 186.203125 74.320312 M 186.304688 74.320312 "/>
</g>
</g>
<g clip-path="url(#clip3)" clip-rule="nonzero">
<g clip-path="url(#clip4)" clip-rule="nonzero">
<path style=" stroke:none;fill-rule:nonzero;fill:rgb(100%,57.254902%,15.686275%);fill-opacity:1;" d="M 116.285156 242.328125 C 105.933594 262.007812 100.132812 284.226562 100.132812 307.757812 C 100.132812 362.734375 132.144531 410.941406 179.289062 436.191406 L 331.140625 436.191406 C 378.285156 410.953125 410.296875 362.734375 410.296875 307.757812 C 410.296875 284.238281 404.496094 262.023438 394.144531 242.328125 M 116.285156 242.328125 "/>
</g>
</g>
<g clip-path="url(#clip5)" clip-rule="nonzero">
<g clip-path="url(#clip6)" clip-rule="nonzero">
<path style=" stroke:none;fill-rule:nonzero;fill:rgb(97.647059%,97.647059%,97.647059%);fill-opacity:1;" d="M 293.984375 403.871094 C 293.984375 407.453125 291.101562 410.332031 287.523438 410.332031 C 283.945312 410.332031 281.0625 407.398438 281.0625 403.871094 C 281.0625 400.292969 283.945312 397.410156 287.523438 397.410156 C 291.101562 397.410156 293.984375 400.292969 293.984375 403.871094 M 293.984375 403.871094 "/>
</g>
</g>
<g clip-path="url(#clip7)" clip-rule="nonzero">
<g clip-path="url(#clip8)" clip-rule="nonzero">
<path style=" stroke:none;fill-rule:nonzero;fill:rgb(97.647059%,97.647059%,97.647059%);fill-opacity:1;" d="M 274.601562 374.792969 C 274.601562 380.144531 270.257812 384.484375 264.90625 384.484375 C 259.558594 384.484375 255.214844 380.144531 255.214844 374.792969 C 255.214844 369.441406 259.558594 365.101562 264.90625 365.101562 C 270.257812 365.101562 274.601562 369.441406 274.601562 374.792969 M 274.601562 374.792969 "/>
</g>
</g>
<g clip-path="url(#clip9)" clip-rule="nonzero">
<g clip-path="url(#clip10)" clip-rule="nonzero">
<path style=" stroke:none;fill-rule:nonzero;fill:rgb(97.647059%,97.647059%,97.647059%);fill-opacity:1;" d="M 293.984375 332.792969 C 293.984375 339.914062 288.183594 345.714844 281.0625 345.714844 C 273.941406 345.714844 268.136719 339.914062 268.136719 332.792969 C 268.136719 325.621094 273.941406 319.867188 281.0625 319.867188 C 288.183594 319.867188 293.984375 325.671875 293.984375 332.792969 M 293.984375 332.792969 "/>
</g>
</g>
<g clip-path="url(#clip11)" clip-rule="nonzero">
<g clip-path="url(#clip12)" clip-rule="nonzero">
<path style=" stroke:none;fill-rule:nonzero;fill:rgb(97.647059%,97.647059%,97.647059%);fill-opacity:1;" d="M 293.984375 235.867188 C 293.984375 246.566406 285.300781 255.25 274.601562 255.25 C 263.898438 255.25 255.214844 246.515625 255.214844 235.867188 C 255.214844 225.164062 263.898438 216.480469 274.601562 216.480469 C 285.300781 216.480469 293.984375 225.164062 293.984375 235.867188 M 293.984375 235.867188 "/>
</g>
</g>
<g clip-path="url(#clip13)" clip-rule="nonzero">
<g clip-path="url(#clip14)" clip-rule="nonzero">
<path style=" stroke:none;fill-rule:nonzero;fill:rgb(97.647059%,97.647059%,97.647059%);fill-opacity:1;" d="M 261.675781 290.789062 C 261.675781 299.71875 254.453125 306.945312 245.523438 306.945312 C 236.589844 306.945312 229.367188 299.667969 229.367188 290.789062 C 229.367188 281.859375 236.589844 274.636719 245.523438 274.636719 C 254.453125 274.636719 261.675781 281.910156 261.675781 290.789062 M 261.675781 290.789062 "/>
</g>
</g>
</g>
</svg>
