
<svg xmlns="http://www.w3.org/2000/svg" xmlns:xlink="http://www.w3.org/1999/xlink" width="512px" height="512px" viewBox="0 0 512 512" version="1.1">
<g id="surface1">
<path style="fill-rule:nonzero;fill:rgb(25.098039%,87.843137%,81.568627%);fill-opacity:1;stroke-width:56.239723;stroke-linecap:butt;stroke-linejoin:miter;stroke:rgb(50.588235%,100%,95.294118%);stroke-opacity:1;stroke-miterlimit:4;" d="M 163.851562 51.367188 L 860.148438 51.367188 C 922.273438 51.367188 972.632812 101.726562 972.632812 163.851562 L 972.632812 860.148438 C 972.632812 922.273438 922.273438 972.632812 860.148438 972.632812 L 163.851562 972.632812 C 101.726562 972.632812 51.367188 922.273438 51.367188 860.148438 L 51.367188 163.851562 C 51.367188 101.726562 101.726562 51.367188 163.851562 51.367188 Z M 163.851562 51.367188 " transform="matrix(0.5,0,0,0.5,0,0)"/>
<path style=" stroke:none;fill-rule:nonzero;fill:rgb(100%,100%,100%);fill-opacity:1;" d="M 455.710938 255.539062 C 455.710938 364.375 367.480469 452.605469 258.644531 452.605469 C 149.808594 452.605469 61.582031 364.375 61.582031 255.539062 C 61.582031 146.703125 149.808594 58.476562 258.644531 58.476562 C 367.480469 58.476562 455.710938 146.703125 455.710938 255.539062 Z M 455.710938 255.539062 "/>
<path style=" stroke:none;fill-rule:nonzero;fill:rgb(25.098039%,87.843137%,81.568627%);fill-opacity:1;" d="M 241.691406 453.625 C 171.648438 447.597656 109.910156 405.007812 79.453125 341.703125 C 69.878906 321.796875 63.890625 301.019531 61.046875 277.804688 C 59.96875 269.015625 59.96875 242.726562 61.046875 233.9375 C 66.6875 187.921875 86.046875 147.691406 117.875 115.835938 C 150.039062 83.644531 190.167969 64.269531 236.417969 58.601562 C 245.207031 57.523438 271.503906 57.523438 280.292969 58.601562 C 326.398438 64.253906 366.660156 83.65625 398.625 115.632812 C 430.65625 147.675781 449.882812 187.566406 455.652344 233.9375 C 456.75 242.75 456.75 268.992188 455.652344 277.804688 C 453.851562 292.28125 451.1875 304.503906 447.078125 317.132812 C 433.089844 360.140625 405.117188 396.710938 366.984375 421.832031 C 339.46875 439.960938 307.753906 450.84375 274.175781 453.671875 C 268.203125 454.171875 247.722656 454.144531 241.691406 453.625 Z M 268.554688 438.5 C 284.9375 437.636719 295.304688 435.296875 303.183594 430.6875 C 310.863281 426.191406 314.546875 419.535156 313.90625 411.292969 C 313.605469 407.417969 306.988281 383.132812 298.128906 353.402344 C 295.902344 345.921875 294.191406 339.6875 294.328125 339.546875 C 294.828125 339.046875 295.472656 339.902344 297.632812 343.925781 C 304.917969 357.519531 313.578125 373.191406 321.34375 386.832031 C 328.894531 400.101562 330.609375 402.820312 332.785156 404.996094 C 337.429688 409.636719 343.507812 411.703125 349.679688 410.746094 C 361.332031 408.933594 374.3125 400.203125 391.898438 382.34375 C 402.65625 371.421875 407.207031 366 411.226562 359.316406 C 413.203125 356.03125 415.109375 350.878906 415.496094 347.769531 C 416.304688 341.3125 412.957031 335.054688 405.480469 329.058594 C 398.128906 323.15625 370.035156 306.320312 342.949219 291.585938 C 330.542969 284.832031 329.933594 283.890625 340.070312 287.109375 C 363.703125 294.617188 411.960938 307.925781 417.398438 308.4375 C 425.121094 309.164062 432.441406 304.910156 436.730469 297.203125 C 439.984375 291.359375 442.410156 282.234375 443.625 271.265625 C 444.367188 264.558594 444.367188 238.40625 443.625 232.039062 C 442.164062 219.523438 439.441406 212.007812 434.84375 207.808594 C 431.300781 204.570312 428.992188 203.859375 421.398438 203.664062 C 415.582031 203.511719 414.535156 203.609375 408.53125 204.832031 C 394.507812 207.695312 357.097656 217.546875 337.949219 223.421875 C 327.546875 226.613281 328.476562 225.605469 342.871094 218.070312 C 357.644531 210.339844 377.042969 199.734375 393.945312 190.144531 C 411.375 180.257812 413.9375 178.085938 415.875 171.542969 C 416.8125 168.371094 416.742188 163.109375 415.703125 159.035156 C 413.046875 148.632812 402.621094 134.109375 386.972656 119.023438 C 366.574219 99.359375 354.628906 93.59375 344.5625 98.550781 C 341.277344 100.164062 335.691406 105.285156 332.863281 109.269531 C 326.289062 118.542969 310.238281 145.773438 296.433594 171.066406 C 289.007812 184.675781 288.109375 185.386719 291.433594 175.003906 C 299.25 150.605469 313.167969 101.003906 313.773438 95.386719 C 314.394531 89.625 312.0625 83.453125 307.761719 79.472656 C 301.589844 73.757812 291.015625 70.265625 275.386719 68.773438 C 266.300781 67.90625 241.769531 68.152344 234.570312 69.183594 C 225.097656 70.539062 218.109375 73.011719 214.175781 76.394531 C 210.285156 79.742188 208.226562 86.566406 208.734375 94.425781 C 209.328125 103.605469 217.429688 136.40625 226.964844 168.242188 C 230.03125 178.476562 230.460938 180.375 229.71875 180.375 C 229.515625 180.375 227.777344 177.382812 225.851562 173.730469 C 208.253906 140.320312 188.78125 105.945312 185.304688 102.136719 C 181.507812 97.988281 176.785156 96.019531 170.628906 96.019531 C 162.296875 96.019531 153.097656 100.394531 140.710938 110.25 C 135.71875 114.21875 118.78125 131.046875 114.273438 136.507812 C 109.800781 141.929688 105.5 148.625 103.851562 152.730469 C 102.625 155.792969 102.492188 156.550781 102.484375 160.558594 C 102.476562 164.738281 102.558594 165.160156 103.875 167.835938 C 105.914062 171.976562 110.894531 177.039062 116.984375 181.167969 C 128.667969 189.085938 162.5625 208.597656 192.738281 224.78125 C 198.460938 227.847656 199.8125 228.878906 198.125 228.878906 C 197.675781 228.878906 190.859375 226.898438 182.976562 224.476562 C 156.328125 216.296875 127.371094 208.457031 109.4375 204.566406 C 103.488281 203.273438 95.023438 202.804688 91.210938 203.554688 C 83.046875 205.160156 77.929688 211.5625 75.511719 223.203125 C 73 235.28125 72.664062 261.691406 74.835938 276.476562 C 75.980469 284.28125 77.464844 289.46875 80.101562 294.886719 C 84.828125 304.59375 91.5625 309.15625 100.113281 308.433594 C 105.628906 307.96875 146.503906 296.609375 176.902344 287.09375 C 181.550781 285.636719 185.253906 284.6875 185.464844 284.894531 C 185.980469 285.414062 185.601562 285.660156 177.570312 290.03125 C 155.648438 301.960938 130.839844 316.453125 118.507812 324.53125 C 112.050781 328.757812 106.578125 333.988281 104.507812 337.910156 C 102.496094 341.71875 101.988281 345.160156 102.828125 349.28125 C 104.570312 357.816406 110.859375 366.851562 125.25 381.5 C 141.898438 398.4375 152.804688 406.316406 164.222656 409.636719 C 168.378906 410.84375 173.90625 411.015625 177.207031 410.035156 C 180.296875 409.117188 184.214844 406.40625 186.292969 403.75 C 190 399.019531 215.1875 353.824219 227.75 329.363281 C 228.898438 327.128906 230.019531 325.464844 230.371094 325.464844 C 230.757812 325.464844 230.914062 325.742188 230.785156 326.203125 C 230.671875 326.609375 228.964844 332.445312 226.988281 339.171875 C 216.269531 375.667969 209.316406 403.65625 208.734375 412.675781 C 207.582031 430.542969 217.101562 437.226562 245.488281 438.484375 C 255.859375 438.945312 260.007812 438.949219 268.554688 438.5 Z M 243.800781 431.03125 C 235.546875 430.464844 226.601562 428.738281 222.714844 426.957031 C 214.316406 423.113281 214.09375 417.101562 221.257812 387.886719 C 227.800781 361.195312 234.976562 336.339844 244.515625 307.328125 C 250.332031 289.644531 257.933594 268.011719 258.582031 267.3125 C 258.875 266.996094 259.3125 266.859375 259.554688 267.007812 C 260.082031 267.332031 265.425781 280.84375 270.15625 293.824219 C 281.878906 325.957031 293.757812 363.710938 304.800781 403.914062 C 307.644531 414.261719 307.199219 417.964844 302.59375 422.273438 C 297.804688 426.753906 287.785156 429.667969 272.992188 430.882812 C 268.082031 431.289062 248.945312 431.386719 243.800781 431.03125 Z M 166.8125 402.863281 C 158.410156 400.597656 146.300781 391.855469 132.636719 378.191406 C 120.011719 365.566406 112.503906 355.957031 110.433594 349.769531 C 107.59375 341.28125 112.433594 336.429688 140.445312 319.675781 C 163.820312 305.691406 188.320312 292.359375 216.925781 278.058594 C 239.671875 266.683594 249.542969 262.074219 250.054688 262.585938 C 251.292969 263.824219 229.070312 310.855469 212.570312 341.914062 C 204.992188 356.179688 197.285156 370.179688 188.183594 386.199219 C 181.605469 397.777344 179.425781 400.742188 176.3125 402.328125 C 174.121094 403.449219 169.871094 403.6875 166.8125 402.863281 Z M 342.457031 403.03125 C 339.957031 402.308594 337.078125 399.152344 333.742188 393.46875 C 315.953125 363.171875 287.867188 308.855469 274.695312 279.28125 C 267.933594 264.09375 267.394531 262.621094 268.632812 262.621094 C 269.507812 262.621094 295.515625 275.207031 312.140625 283.679688 C 346.941406 301.40625 383.625 322.511719 398.464844 333.34375 C 402.878906 336.5625 407.003906 340.875 407.703125 342.996094 C 409.378906 348.070312 405.304688 356.3125 395.527344 367.640625 C 389.941406 374.113281 377.328125 386.460938 371.835938 390.832031 C 359.242188 400.855469 349.257812 405.003906 342.457031 403.03125 Z M 415.921875 301.121094 C 415.457031 301.007812 411.28125 299.882812 406.640625 298.613281 C 362.984375 286.695312 317.613281 272.039062 284.089844 259.027344 C 272.894531 254.683594 272.230469 254.371094 272.53125 253.589844 C 272.792969 252.90625 284.34375 248.753906 307.289062 241.089844 C 337.660156 230.949219 361.074219 224.039062 389.378906 216.855469 C 415.75 210.160156 425.238281 209.234375 429.460938 212.941406 C 433.824219 216.773438 435.941406 225.511719 436.863281 243.511719 C 437.871094 263.144531 435.515625 282.792969 431.042969 292.09375 C 428.964844 296.414062 425.570312 299.847656 422.488281 300.75 C 420.277344 301.398438 417.679688 301.546875 415.921875 301.121094 Z M 95.515625 300.632812 C 91.820312 299.421875 88.9375 296.476562 86.636719 291.566406 C 82.277344 282.265625 80.449219 268.332031 80.882812 247.65625 C 81.367188 224.296875 84.121094 214.074219 90.65625 211.347656 C 94.980469 209.546875 101.21875 210.199219 118.941406 214.308594 C 145.527344 220.476562 176.011719 229.28125 211.105469 240.933594 C 237.617188 249.730469 245.488281 252.617188 245.488281 253.542969 C 245.488281 254.125 243.601562 255.039062 237.050781 257.628906 C 203.921875 270.734375 162.390625 284.1875 111.546875 298.285156 C 102.828125 300.703125 97.921875 301.421875 95.515625 300.632812 Z M 268.289062 244.09375 C 267.753906 243.226562 288.804688 200.789062 300.441406 179.273438 C 315.40625 151.605469 330.058594 126.558594 337.914062 115.210938 C 341.105469 110.597656 345.757812 106.007812 348.460938 104.816406 C 351.273438 103.570312 353.78125 103.945312 358.546875 106.316406 C 365.394531 109.726562 374.3125 117.074219 385.554688 128.5625 C 396.507812 139.753906 402.746094 147.851562 406.449219 155.699219 C 409.476562 162.121094 410.046875 165.613281 408.707031 169.546875 C 407.449219 173.238281 404.730469 175.453125 393.984375 181.523438 C 349.371094 206.738281 308.742188 227.449219 277.175781 241.078125 C 272.835938 242.949219 269.113281 244.484375 268.90625 244.484375 C 268.699219 244.484375 268.421875 244.308594 268.289062 244.09375 Z M 231.355469 235.871094 C 179.015625 210.320312 123.03125 178.472656 114.035156 169.132812 C 108.867188 163.773438 108.269531 160.703125 111.203125 154.617188 C 116.667969 143.296875 137.742188 121.082031 152.890625 110.679688 C 165.242188 102.195312 173.875 100.894531 179.351562 106.695312 C 184.949219 112.625 221.976562 181.917969 237.769531 216.011719 C 243.300781 227.957031 249.917969 243.003906 249.917969 243.636719 C 249.917969 244.722656 246.878906 243.449219 231.355469 235.871094 Z M 258.34375 239.398438 C 258.074219 238.894531 256.335938 234.1875 254.484375 228.933594 C 240.484375 189.257812 229.925781 154.429688 221.417969 119.847656 C 217.125 102.394531 216.035156 96.222656 216.25 90.5625 C 216.457031 85.199219 217.28125 83.25 220.1875 81.25 C 226.171875 77.132812 241.835938 74.980469 262.152344 75.476562 C 284.164062 76.019531 298.15625 79.613281 303.949219 86.210938 C 307.46875 90.21875 307.378906 92.441406 303.054688 108.273438 C 295.308594 136.621094 288.238281 160.011719 279.46875 186.277344 C 271.003906 211.644531 260.484375 239.765625 259.320312 240.15625 C 259.050781 240.242188 258.613281 239.902344 258.34375 239.398438 Z M 258.34375 239.398438 "/>
<path style=" stroke:none;fill-rule:nonzero;fill:rgb(25.098039%,87.843137%,81.568627%);fill-opacity:1;" d="M 246.792969 453.253906 C 214.542969 451.238281 183.765625 441.691406 156.300781 425.1875 C 127.960938 408.15625 103.289062 382.921875 86.636719 353.933594 C 83.179688 347.914062 77.175781 335.476562 74.628906 329.050781 C 59.253906 290.28125 56.488281 247.183594 66.789062 206.847656 C 78.234375 162.039062 105.472656 122.261719 143.308594 95.101562 C 168.53125 77 198.644531 64.8125 229.089844 60.390625 C 240.359375 58.753906 246.386719 58.328125 258.355469 58.328125 C 270.324219 58.328125 276.351562 58.753906 287.617188 60.390625 C 340.96875 68.144531 389.5625 98.363281 420.800781 143.210938 C 428.863281 154.789062 437.097656 170.121094 442.222656 183.113281 C 462.46875 234.414062 460.429688 291.882812 436.613281 341.28125 C 406.148438 404.460938 345.414062 446.546875 275.652344 452.8125 C 268.585938 453.449219 253.566406 453.679688 246.792969 453.253906 Z M 276.574219 438.679688 C 290.691406 437.289062 300.675781 434.070312 307.136719 428.828125 C 313.015625 424.0625 315.808594 416.710938 314.484375 409.492188 C 313.59375 404.628906 304.570312 372.144531 298.472656 351.839844 C 297.082031 347.207031 296.023438 343.335938 296.121094 343.242188 C 296.214844 343.144531 296.597656 343.613281 296.96875 344.28125 C 297.339844 344.949219 300.785156 351.285156 304.625 358.363281 C 308.46875 365.4375 315.609375 378.25 320.492188 386.832031 C 328.546875 400.984375 329.652344 402.714844 332.359375 405.421875 C 335.820312 408.882812 338.609375 410.394531 343.304688 411.351562 C 346.230469 411.945312 346.953125 411.953125 350.238281 411.390625 C 361.46875 409.480469 374.304688 400.996094 390.597656 384.710938 C 413.71875 361.597656 419.980469 349.429688 414.460938 338.328125 C 411.949219 333.277344 406.382812 328.210938 396.304688 321.796875 C 384.359375 314.199219 360.242188 300.140625 343.253906 290.875 C 339.714844 288.945312 336.898438 287.285156 336.996094 287.1875 C 337.09375 287.089844 341.222656 288.253906 346.171875 289.777344 C 368.167969 296.527344 410.324219 308.140625 416.09375 309.039062 C 426.480469 310.648438 435.570312 304 440.148438 291.441406 C 441.785156 286.953125 443.371094 279.597656 444.183594 272.742188 C 445.636719 260.410156 445.429688 238.773438 443.746094 227.46875 C 441.5625 212.777344 436.289062 205.082031 427.054688 203.101562 C 422.878906 202.203125 413.839844 202.839844 406.007812 204.582031 C 388.523438 208.464844 359.804688 216.050781 340.234375 221.949219 C 332.5625 224.265625 332.824219 224.070312 348.527344 215.863281 C 364.753906 207.382812 390.402344 193.195312 404.46875 184.917969 C 413.859375 179.394531 417.355469 174.210938 417.386719 165.785156 C 417.417969 156.949219 412.269531 146.542969 401.332031 133.34375 C 396.910156 128.007812 382.230469 113.34375 376.6875 108.726562 C 364.589844 98.648438 355.378906 94.753906 347.96875 96.582031 C 346.371094 96.976562 344.050781 97.910156 342.8125 98.660156 C 340.039062 100.339844 335.019531 105.125 332.703125 108.296875 C 326.726562 116.480469 310.175781 144.378906 297.136719 168.246094 C 294.253906 173.523438 291.832031 177.664062 291.757812 177.441406 C 291.683594 177.21875 293.265625 171.699219 295.273438 165.171875 C 302.859375 140.496094 313.78125 101.066406 314.425781 96.019531 C 316.054688 83.277344 306.40625 73.664062 288.171875 69.863281 C 278.558594 67.859375 274.589844 67.566406 257.089844 67.566406 C 243.617188 67.566406 239.449219 67.707031 235.332031 68.292969 C 224.6875 69.800781 217.914062 72.21875 213.6875 76.019531 C 209.449219 79.828125 207.292969 86.761719 207.925781 94.542969 C 208.660156 103.570312 216.742188 136.492188 225.269531 165.1875 C 226.816406 170.410156 228.183594 175.058594 228.300781 175.523438 C 228.785156 177.421875 227.410156 175.121094 222.488281 165.820312 C 214.289062 150.332031 204.441406 132.550781 194.105469 114.578125 C 187.882812 103.753906 184.96875 100.007812 181 97.738281 C 175.671875 94.691406 168.523438 94.363281 161.539062 96.851562 C 151.113281 100.558594 140.375 108.53125 125.382812 123.6875 C 116.265625 132.90625 112.019531 137.828125 107.957031 143.890625 C 101.320312 153.789062 99.820312 161.316406 103.140625 168.058594 C 105.105469 172.046875 110.921875 177.90625 116.96875 181.988281 C 128.621094 189.855469 165.59375 211.191406 190.199219 224.25 C 192.972656 225.722656 195.050781 226.988281 194.820312 227.0625 C 194.589844 227.140625 189.097656 225.574219 182.609375 223.582031 C 153.28125 214.574219 116.785156 204.902344 104.792969 202.957031 C 100.234375 202.21875 95.171875 202.125 91.585938 202.710938 C 83.648438 204.011719 77.847656 210.484375 75.304688 220.863281 C 73.484375 228.300781 73.082031 232.742188 72.855469 247.828125 C 72.488281 272.328125 74.195312 284.589844 79.472656 295.339844 C 81.878906 300.25 85.597656 304.597656 89.277344 306.808594 C 92.203125 308.5625 96.925781 309.601562 100.367188 309.246094 C 105.625 308.699219 150.324219 296.242188 176.058594 288.152344 C 178.707031 287.320312 181.0625 286.699219 181.289062 286.777344 C 181.515625 286.851562 177.261719 289.359375 171.832031 292.347656 C 151.953125 303.292969 129.175781 316.675781 118.507812 323.675781 C 111.605469 328.203125 105.632812 333.992188 103.601562 338.117188 C 98.152344 349.207031 104.136719 361.246094 126.152344 383.457031 C 141.210938 398.652344 153.179688 407.1875 164.070312 410.496094 C 167.894531 411.65625 175.519531 411.570312 178.625 410.328125 C 181.660156 409.117188 184.683594 406.785156 187.050781 403.832031 C 190.074219 400.054688 210.28125 364.179688 223.539062 339.046875 C 226.269531 333.871094 228.589844 329.726562 228.695312 329.835938 C 228.804688 329.941406 227.269531 335.597656 225.285156 342.402344 C 215.207031 377.003906 208.667969 403.433594 207.925781 412.558594 C 207.542969 417.25 208.3125 422.496094 209.847656 425.667969 C 212.347656 430.832031 218.007812 434.828125 225.605469 436.785156 C 236.246094 439.527344 259.308594 440.382812 276.574219 438.679688 Z M 241.058594 430.0625 C 228.25 428.78125 220.746094 426.378906 218.375 422.800781 C 217.308594 421.1875 217.210938 420.683594 217.078125 415.964844 C 216.949219 411.4375 217.101562 410.050781 218.449219 403.441406 C 222.066406 385.722656 230.289062 355.066406 238.703125 327.933594 C 244.261719 310.007812 258.183594 268.976562 258.976562 268.183594 C 259.097656 268.0625 259.285156 268.046875 259.390625 268.152344 C 259.761719 268.523438 266.75 286.601562 270.378906 296.570312 C 275.078125 309.480469 284.667969 338.25 289.367188 353.511719 C 296.871094 377.90625 305.539062 408.617188 305.898438 412.089844 C 306.847656 421.292969 298.609375 426.769531 279.761719 429.464844 C 274.292969 430.246094 247.109375 430.664062 241.058594 430.0625 Z M 166.691406 402.019531 C 157.332031 399.445312 143.027344 388.550781 128.058594 372.59375 C 119.175781 363.125 114.550781 357.035156 111.820312 351.226562 C 109.332031 345.9375 110.191406 342.480469 115.265625 337.339844 C 120.925781 331.605469 152 312.988281 188.535156 293.4375 C 205.820312 284.1875 248.242188 263.246094 249.09375 263.546875 C 249.480469 263.683594 245.238281 273.671875 239.1875 286.871094 C 233.992188 298.203125 218.148438 329.941406 211.082031 343.179688 C 197.535156 368.542969 181.671875 396.589844 179.511719 398.984375 C 176.496094 402.328125 171.835938 403.433594 166.691406 402.019531 Z M 342.316406 402.179688 C 338.980469 400.847656 337.613281 398.960938 329.347656 384.300781 C 306.980469 344.628906 286.484375 304.332031 272.851562 273.21875 C 269.179688 264.839844 268.644531 263.460938 269.058594 263.460938 C 269.605469 263.460938 298.257812 277.460938 311.691406 284.289062 C 335.292969 296.285156 354.289062 306.757812 375.519531 319.476562 C 396.621094 332.117188 404.273438 337.757812 406.714844 342.480469 C 408.339844 345.621094 406.535156 351.542969 401.816406 358.53125 C 394.910156 368.765625 377.820312 385.933594 366.425781 394.09375 C 361.8125 397.394531 354.691406 401.113281 351.3125 401.980469 C 348.441406 402.722656 343.925781 402.820312 342.316406 402.179688 Z M 406.640625 297.863281 C 366.003906 286.664062 324.359375 273.40625 294.214844 262.066406 C 277.46875 255.765625 273.445312 254.113281 273.855469 253.703125 C 274.585938 252.96875 301.15625 243.730469 320.566406 237.457031 C 349.996094 227.949219 387.226562 217.640625 408.117188 213.222656 C 413.59375 212.0625 415.578125 211.835938 420.347656 211.816406 C 425.226562 211.796875 426.285156 211.917969 427.730469 212.640625 C 433.5 215.523438 436.121094 227.921875 436.113281 252.285156 C 436.109375 269.539062 434.847656 279.839844 431.65625 288.652344 C 428.707031 296.800781 424.492188 300.617188 418.503906 300.558594 C 417.210938 300.542969 412.445312 299.460938 406.640625 297.863281 Z M 94.035156 299.164062 C 88.453125 296.566406 84.757812 288.167969 82.59375 273.164062 C 81.703125 266.988281 81.339844 245.15625 81.992188 237.066406 C 83.070312 223.714844 85.371094 215.761719 88.976562 212.925781 C 91.785156 210.71875 98.382812 210.691406 109.015625 212.851562 C 135.972656 218.324219 184.558594 232.375 225.03125 246.398438 C 233.496094 249.332031 241.28125 252.023438 242.324219 252.382812 C 243.367188 252.738281 244.378906 253.171875 244.570312 253.34375 C 244.953125 253.6875 241.902344 255.019531 231.886719 258.871094 C 199.175781 271.449219 152.902344 286.269531 110.234375 297.839844 C 100.273438 300.539062 97.480469 300.769531 94.035156 299.164062 Z M 269.324219 243.191406 C 269.324219 241.949219 287.738281 204.78125 297.417969 186.488281 C 312.085938 158.761719 331.308594 125.695312 339.226562 114.578125 C 344.1875 107.613281 348.457031 104.566406 352.648438 104.996094 C 358.390625 105.589844 368.324219 112.578125 381.246094 125.109375 C 394.378906 137.847656 403.355469 149.492188 407.101562 158.652344 C 408.121094 161.140625 408.3125 162.199219 408.316406 165.398438 C 408.328125 172.074219 407.308594 173.097656 392.03125 181.746094 C 348.941406 206.140625 304.175781 228.894531 274.808594 241.328125 C 273.300781 241.96875 271.449219 242.75 270.695312 243.070312 C 269.773438 243.460938 269.324219 243.5 269.324219 243.191406 Z M 231.777344 235.257812 C 191.570312 215.667969 146.957031 191.113281 123.992188 175.929688 C 113.847656 169.21875 110.269531 165.234375 110.292969 160.671875 C 110.324219 154.394531 118.492188 142.933594 133.605469 127.980469 C 149.359375 112.386719 162.34375 104.027344 170.789062 104.035156 C 177.191406 104.039062 178.621094 105.398438 186.085938 118.582031 C 210.992188 162.574219 232.011719 203.742188 245.457031 234.878906 C 248.589844 242.132812 248.972656 243.242188 248.335938 243.195312 C 248.160156 243.179688 240.710938 239.609375 231.777344 235.257812 Z M 256.25 231.722656 C 252.34375 220.886719 240.683594 185.769531 237.308594 174.679688 C 229.273438 148.261719 221.425781 118.609375 218.292969 102.851562 C 217.34375 98.066406 217.011719 95.21875 217.011719 91.84375 C 217.011719 86.632812 217.4375 84.984375 219.277344 83.03125 C 223.492188 78.558594 236.703125 76.199219 257.53125 76.195312 C 280.769531 76.191406 296.59375 79.679688 302.933594 86.203125 C 306.722656 90.101562 306.582031 92.820312 301.667969 110.570312 C 288.632812 157.671875 275.472656 198.21875 262.347656 231.722656 C 260.78125 235.726562 259.355469 239 259.1875 239 C 259.015625 239 257.695312 235.726562 256.25 231.722656 Z M 256.25 231.722656 "/>
</g>
</svg>
