
<svg xmlns="http://www.w3.org/2000/svg" xmlns:xlink="http://www.w3.org/1999/xlink" width="512px" height="512px" viewBox="0 0 512 512" version="1.1">
<defs>
<linearGradient id="linear0" gradientUnits="userSpaceOnUse" x1="-644.89142" y1="-262.48706" x2="-560.57697" y2="-260.20828" gradientTransform="matrix(0.232295,0.100679,-0.100679,0.232295,476.255294,351.909953)">
<stop offset="0" style="stop-color:rgb(0%,0%,0%);stop-opacity:1;"/>
<stop offset="1" style="stop-color:rgb(0%,0%,0%);stop-opacity:0;"/>
</linearGradient>
<linearGradient id="linear1" gradientUnits="userSpaceOnUse" x1="-644.89142" y1="-262.48706" x2="-560.57697" y2="-260.20828" gradientTransform="matrix(0.232295,0.100679,-0.100679,0.232295,476.255294,351.909953)">
<stop offset="0" style="stop-color:rgb(0%,0%,0%);stop-opacity:1;"/>
<stop offset="1" style="stop-color:rgb(0%,0%,0%);stop-opacity:0;"/>
</linearGradient>
<linearGradient id="linear2" gradientUnits="userSpaceOnUse" x1="-644.89142" y1="-262.48706" x2="-560.57697" y2="-260.20828" gradientTransform="matrix(0.232295,0.100679,-0.100679,0.232295,476.255294,351.909953)">
<stop offset="0" style="stop-color:rgb(0%,0%,0%);stop-opacity:1;"/>
<stop offset="1" style="stop-color:rgb(0%,0%,0%);stop-opacity:0;"/>
</linearGradient>
<linearGradient id="linear3" gradientUnits="userSpaceOnUse" x1="-644.89142" y1="-262.48706" x2="-560.57697" y2="-260.20828" gradientTransform="matrix(0.232295,0.100679,-0.100679,0.232295,476.255294,351.909953)">
<stop offset="0" style="stop-color:rgb(0%,0%,0%);stop-opacity:1;"/>
<stop offset="1" style="stop-color:rgb(0%,0%,0%);stop-opacity:0;"/>
</linearGradient>
<linearGradient id="linear4" gradientUnits="userSpaceOnUse" x1="-644.89142" y1="-262.48706" x2="-560.57697" y2="-260.20828" gradientTransform="matrix(0.174306,0.0755458,-0.100679,0.232295,373.01549,213.319757)">
<stop offset="0" style="stop-color:rgb(0%,0%,0%);stop-opacity:1;"/>
<stop offset="1" style="stop-color:rgb(0%,0%,0%);stop-opacity:0;"/>
</linearGradient>
<linearGradient id="linear5" gradientUnits="userSpaceOnUse" x1="-644.89142" y1="-262.48706" x2="-560.57697" y2="-260.20828" gradientTransform="matrix(0.0502719,-0.157973,0.0897168,0.00293809,419.22545,280.03277)">
<stop offset="0" style="stop-color:rgb(0%,0%,0%);stop-opacity:1;"/>
<stop offset="1" style="stop-color:rgb(0%,0%,0%);stop-opacity:0;"/>
</linearGradient>
<linearGradient id="linear6" gradientUnits="userSpaceOnUse" x1="-644.89142" y1="-262.48706" x2="-560.57697" y2="-260.20828" gradientTransform="matrix(0.100679,-0.232295,-0.232295,-0.100679,476.255294,351.909953)">
<stop offset="0" style="stop-color:rgb(0%,0%,0%);stop-opacity:1;"/>
<stop offset="1" style="stop-color:rgb(0%,0%,0%);stop-opacity:0;"/>
</linearGradient>
</defs>
<g id="surface1">
<path style="fill-rule:evenodd;fill:rgb(16.078431%,50.196078%,72.54902%);fill-opacity:1;stroke-width:4.588;stroke-linecap:butt;stroke-linejoin:miter;stroke:rgb(41.960784%,75.686275%,100%);stroke-opacity:1;stroke-miterlimit:4;" d="M 18.71582 930.26552 L 109.28418 930.26552 C 116.360352 930.26552 122.09668 936.001848 122.09668 943.07802 L 122.09668 1033.64638 C 122.09668 1040.722552 116.360352 1046.459856 109.28418 1046.459856 L 18.71582 1046.459856 C 11.639648 1046.459856 5.90332 1040.722552 5.90332 1033.64638 L 5.90332 943.07802 C 5.90332 936.001848 11.639648 930.26552 18.71582 930.26552 Z M 18.71582 930.26552 " transform="matrix(4,0,0,4,0,-3697.4488)"/>
<path style=" stroke:none;fill-rule:nonzero;fill:rgb(0%,50.196078%,86.27451%);fill-opacity:1;" d="M 256.351562 67.394531 C 152.378906 67.394531 68.09375 151.679688 68.09375 255.648438 C 68.09375 359.621094 152.378906 443.90625 256.351562 443.90625 C 360.324219 443.90625 444.609375 359.621094 444.609375 255.648438 C 444.609375 151.679688 360.324219 67.394531 256.351562 67.394531 Z M 256.351562 235.421875 C 267.492188 235.421875 276.574219 244.507812 276.574219 255.648438 C 276.574219 266.792969 267.492188 275.875 256.351562 275.875 C 245.210938 275.875 236.128906 266.792969 236.128906 255.648438 C 236.128906 244.507812 245.210938 235.421875 256.351562 235.421875 Z M 256.351562 235.421875 "/>
<path style=" stroke:none;fill-rule:nonzero;fill:rgb(18.823529%,66.27451%,100%);fill-opacity:1;" d="M 256.351562 73.277344 C 155.628906 73.277344 73.976562 154.925781 73.976562 255.648438 C 73.976562 356.375 155.628906 438.023438 256.351562 438.023438 C 357.074219 438.023438 438.726562 356.375 438.726562 255.648438 C 438.726562 154.925781 357.074219 73.277344 256.351562 73.277344 Z M 256.351562 235.421875 C 267.492188 235.421875 276.574219 244.507812 276.574219 255.648438 C 276.574219 266.792969 267.492188 275.875 256.351562 275.875 C 245.210938 275.875 236.128906 266.792969 236.128906 255.648438 C 236.128906 244.507812 245.210938 235.421875 256.351562 235.421875 Z M 256.351562 235.421875 "/>
<path style=" stroke:none;fill-rule:nonzero;fill:rgb(41.960784%,75.686275%,100%);fill-opacity:1;" d="M 256.351562 82.46875 C 160.734375 82.46875 83.167969 160.035156 83.167969 255.648438 C 83.167969 351.265625 160.734375 428.832031 256.351562 428.832031 C 351.96875 428.832031 429.535156 351.265625 429.535156 255.648438 C 429.535156 160.035156 351.96875 82.46875 256.351562 82.46875 Z M 256.351562 235.421875 C 267.492188 235.421875 276.574219 244.507812 276.574219 255.648438 C 276.574219 266.792969 267.492188 275.875 256.351562 275.875 C 245.210938 275.875 236.128906 266.792969 236.128906 255.648438 C 236.128906 244.507812 245.210938 235.421875 256.351562 235.421875 Z M 256.351562 235.421875 "/>
<path style="fill-rule:nonzero;fill:rgb(82.745098%,83.529412%,84.313725%);fill-opacity:1;stroke-width:0.774153;stroke-linecap:butt;stroke-linejoin:miter;stroke:rgb(100%,100%,100%);stroke-opacity:1;stroke-miterlimit:4;" d="M 64.087891 974.394427 C 56.429688 974.394427 50.208008 980.616106 50.208008 988.274309 C 50.208008 995.932513 56.429688 1002.155169 64.087891 1002.155169 C 71.746094 1002.155169 77.967773 995.932513 77.967773 988.274309 C 77.967773 980.616106 71.746094 974.394427 64.087891 974.394427 Z M 64.087891 983.218645 C 66.873047 983.218645 69.143555 985.489153 69.143555 988.274309 C 69.143555 991.060442 66.873047 993.33095 64.087891 993.33095 C 61.302734 993.33095 59.032227 991.060442 59.032227 988.274309 C 59.032227 985.489153 61.302734 983.218645 64.087891 983.218645 Z M 64.087891 983.218645 " transform="matrix(4,0,0,4,0,-3697.4488)"/>
<path style=" stroke:none;fill-rule:nonzero;fill:rgb(87.843137%,87.843137%,88.627451%);fill-opacity:1;" d="M 256.351562 211.898438 C 232.214844 211.898438 212.597656 231.511719 212.597656 255.648438 C 212.597656 279.789062 232.214844 299.402344 256.351562 299.402344 C 280.488281 299.402344 300.105469 279.789062 300.105469 255.648438 C 300.105469 231.511719 280.488281 211.898438 256.351562 211.898438 Z M 256.351562 235.421875 C 267.492188 235.421875 276.574219 244.507812 276.574219 255.648438 C 276.574219 266.792969 267.492188 275.875 256.351562 275.875 C 245.210938 275.875 236.128906 266.792969 236.128906 255.648438 C 236.128906 244.507812 245.210938 235.421875 256.351562 235.421875 Z M 256.351562 235.421875 "/>
<path style=" stroke:none;fill-rule:nonzero;fill:rgb(10.196078%,10.196078%,10.196078%);fill-opacity:1;" d="M 396.175781 136.917969 L 422.0625 148.132812 L 347.273438 320.695312 L 321.386719 309.476562 Z M 396.175781 136.917969 "/>
<path style=" stroke:none;fill-rule:nonzero;fill:rgb(10.196078%,10.196078%,10.196078%);fill-opacity:1;" d="M 320.929688 310.53125 L 346.816406 321.75 L 324.910156 359.558594 L 308.980469 352.65625 Z M 320.929688 310.53125 "/>
<path style=" stroke:none;fill-rule:nonzero;fill:rgb(10.196078%,10.196078%,10.196078%);fill-opacity:1;" d="M 311.511719 355.003906 L 320.804688 359.03125 L 306.5625 381.238281 C 306.5625 381.238281 310.589844 361.320312 311.511719 355.003906 Z M 311.511719 355.003906 "/>
<path style=" stroke:none;fill-rule:nonzero;fill:rgb(10.196078%,10.196078%,10.196078%);fill-opacity:1;" d="M 428.5 111.292969 C 426.265625 106.46875 422.714844 105.929688 418.660156 107.027344 L 404.773438 139.070312 L 414.613281 143.335938 Z M 428.5 111.292969 "/>
<path style=" stroke:none;fill-rule:nonzero;fill:rgb(10.196078%,10.196078%,10.196078%);fill-opacity:1;" d="M 430.011719 151.835938 L 434.980469 153.988281 L 406.273438 220.226562 L 401.304688 218.074219 Z M 430.011719 151.835938 "/>
<path style=" stroke:none;fill-rule:nonzero;fill:rgb(10.196078%,10.196078%,10.196078%);fill-opacity:1;" d="M 406.558594 204.191406 L 400.835938 217.289062 L 397.976562 208.183594 Z M 406.558594 204.191406 "/>
<path style=" stroke:none;fill-rule:nonzero;fill:rgb(10.196078%,10.196078%,10.196078%);fill-opacity:1;" d="M 425.738281 157.839844 L 428.609375 151.21875 L 423.15625 148.855469 L 420.285156 155.476562 Z M 425.738281 157.839844 "/>
<path style=" stroke:none;fill-rule:nonzero;fill:url(#linear0);" d="M 396.175781 136.917969 L 422.0625 148.132812 L 347.273438 320.695312 L 321.386719 309.476562 Z M 396.175781 136.917969 "/>
<path style=" stroke:none;fill-rule:nonzero;fill:url(#linear1);" d="M 320.929688 310.53125 L 346.816406 321.75 L 324.910156 359.558594 L 308.980469 352.65625 Z M 320.929688 310.53125 "/>
<path style=" stroke:none;fill-rule:nonzero;fill:url(#linear2);" d="M 311.511719 355.003906 L 320.804688 359.03125 L 306.5625 381.238281 C 306.5625 381.238281 310.589844 361.320312 311.511719 355.003906 Z M 311.511719 355.003906 "/>
<path style=" stroke:none;fill-rule:nonzero;fill:url(#linear3);" d="M 428.5 111.292969 C 426.265625 106.46875 422.714844 105.929688 418.660156 107.027344 L 404.773438 139.070312 L 414.613281 143.335938 Z M 428.5 111.292969 "/>
<path style=" stroke:none;fill-rule:nonzero;fill:url(#linear4);" d="M 430.011719 151.835938 L 434.980469 153.988281 L 406.273438 220.226562 L 401.304688 218.074219 Z M 430.011719 151.835938 "/>
<path style=" stroke:none;fill-rule:nonzero;fill:url(#linear5);" d="M 406.558594 204.191406 L 400.835938 217.289062 L 397.976562 208.183594 Z M 406.558594 204.191406 "/>
<path style=" stroke:none;fill-rule:nonzero;fill:url(#linear6);" d="M 425.738281 157.839844 L 428.609375 151.21875 L 423.15625 148.855469 L 420.285156 155.476562 Z M 425.738281 157.839844 "/>
</g>
</svg>
