
<svg xmlns="http://www.w3.org/2000/svg" xmlns:xlink="http://www.w3.org/1999/xlink" width="512px" height="512px" viewBox="0 0 512 512" version="1.1">
<g id="surface1">
<path style="fill-rule:nonzero;fill:rgb(100%,100%,100%);fill-opacity:1;stroke-width:4.278389;stroke-linecap:butt;stroke-linejoin:miter;stroke:rgb(0%,50.196078%,50.196078%);stroke-opacity:1;stroke-miterlimit:4;" d="M 64.516845 330.18055 L 117.487291 330.18055 C 122.213198 330.18055 126.044046 334.011398 126.044046 338.737305 L 126.044046 391.707751 C 126.044046 396.433657 122.213198 400.264506 117.487291 400.264506 L 64.516845 400.264506 C 59.790938 400.264506 55.96009 396.433657 55.96009 391.707751 L 55.96009 338.737305 C 55.96009 334.011398 59.790938 330.18055 64.516845 330.18055 Z M 64.516845 330.18055 " transform="matrix(6.437257,0,0,6.437257,-329.803699,-2095.031274)"/>
<path style=" stroke:none;fill-rule:nonzero;fill:rgb(20%,20%,20%);fill-opacity:1;" d="M 256 62.144531 C 196.675781 62.144531 148.210938 112.976562 142.523438 178.457031 L 369.476562 178.457031 C 363.789062 112.976562 315.324219 62.144531 256 62.144531 Z M 84.953125 196.550781 C 72.316406 196.550781 62.144531 208.078125 62.144531 222.398438 C 62.144531 236.714844 72.316406 248.246094 84.953125 248.246094 L 427.046875 248.246094 C 439.683594 248.246094 449.855469 236.714844 449.855469 222.398438 C 449.855469 208.078125 439.683594 196.550781 427.046875 196.550781 Z M 96.355469 294.765625 C 83.71875 294.765625 73.546875 306.296875 73.546875 320.613281 C 73.546875 334.933594 83.71875 346.460938 96.355469 346.460938 L 197.734375 346.460938 L 113.480469 401.589844 C 102.539062 408.75 98.8125 424.5 105.128906 436.898438 C 111.449219 449.300781 125.347656 453.523438 136.289062 446.367188 L 238.894531 379.226562 L 238.894531 294.765625 Z M 273.105469 294.765625 L 273.105469 379.226562 L 375.710938 446.367188 C 386.652344 453.523438 400.550781 449.300781 406.871094 436.898438 C 413.1875 424.5 409.460938 408.75 398.519531 401.589844 L 314.265625 346.460938 L 415.644531 346.460938 C 428.28125 346.460938 438.449219 334.933594 438.449219 320.613281 C 438.449219 306.296875 428.28125 294.765625 415.644531 294.765625 Z M 273.105469 294.765625 "/>
<path style=" stroke:none;fill-rule:nonzero;fill:rgb(0%,50.196078%,50.196078%);fill-opacity:1;" d="M 119.160156 196.554688 L 119.160156 312.867188 L 119.230469 312.867188 C 119.226562 313.304688 119.160156 313.71875 119.160156 314.160156 C 119.160156 389.335938 168.445312 449.855469 229.675781 449.855469 L 238.894531 449.855469 L 238.894531 268.925781 L 273.105469 268.925781 L 273.105469 449.855469 L 282.324219 449.855469 C 343.554688 449.855469 392.835938 389.335938 392.835938 314.160156 C 392.835938 313.71875 392.769531 313.304688 392.769531 312.867188 L 392.835938 312.867188 L 392.835938 196.554688 Z M 119.160156 196.554688 "/>
</g>
</svg>
