
<svg xmlns="http://www.w3.org/2000/svg" xmlns:xlink="http://www.w3.org/1999/xlink" width="512px" height="512px" viewBox="0 0 512 512" version="1.1">
<g id="surface1">
<path style="fill-rule:nonzero;fill:rgb(92.156863%,93.72549%,94.117647%);fill-opacity:1;stroke-width:18.73;stroke-linecap:butt;stroke-linejoin:miter;stroke:rgb(58.039216%,64.313725%,64.705882%);stroke-opacity:1;stroke-miterlimit:4;" d="M 78.644531 31 L 433.355469 31 C 459.667969 31 481 52.332031 481 78.644531 L 481 433.355469 C 481 459.667969 459.667969 481 433.355469 481 L 78.644531 481 C 52.332031 481 31 459.667969 31 433.355469 L 31 78.644531 C 31 52.332031 52.332031 31 78.644531 31 Z M 78.644531 31 "/>
<path style=" stroke:none;fill-rule:nonzero;fill:rgb(70.196078%,70.196078%,70.196078%);fill-opacity:1;" d="M 294.113281 382.558594 L 277.269531 323.933594 L 192.363281 323.933594 L 175.363281 382.558594 L 122.628906 382.558594 L 202.644531 135.261719 L 266.488281 135.261719 L 346.847656 382.558594 Z M 265.144531 280.136719 L 249.316406 226.230469 C 248.636719 224.210938 247.621094 220.898438 246.269531 216.292969 C 244.925781 211.691406 243.492188 206.613281 241.972656 201.058594 C 240.460938 195.496094 239.027344 189.910156 237.675781 184.292969 C 236.332031 178.667969 235.378906 173.894531 234.816406 169.964844 C 234.367188 172.433594 233.777344 175.355469 233.050781 178.730469 C 232.320312 182.097656 231.476562 185.660156 230.519531 189.417969 C 229.570312 193.179688 228.589844 196.972656 227.582031 200.792969 C 226.570312 204.617188 225.613281 208.210938 224.707031 211.574219 C 223.808594 214.941406 222.996094 217.914062 222.269531 220.496094 C 221.539062 223.082031 221.007812 224.992188 220.675781 226.230469 L 205.003906 280.136719 Z M 265.144531 280.136719 "/>
</g>
</svg>
