
<svg xmlns="http://www.w3.org/2000/svg" xmlns:xlink="http://www.w3.org/1999/xlink" width="512px" height="512px" viewBox="0 0 512 512" version="1.1">
<g id="surface1">
<path style="fill-rule:nonzero;fill:rgb(100%,100%,100%);fill-opacity:1;stroke-width:28.191782;stroke-linecap:butt;stroke-linejoin:miter;stroke:rgb(38.039216%,78.039216%,5.098039%);stroke-opacity:1;stroke-miterlimit:4;" d="M 81.480469 25.097656 L 430.519531 25.097656 C 461.660156 25.097656 486.902344 50.339844 486.902344 81.480469 L 486.902344 430.519531 C 486.902344 461.660156 461.660156 486.902344 430.519531 486.902344 L 81.480469 486.902344 C 50.339844 486.902344 25.097656 461.660156 25.097656 430.519531 L 25.097656 81.480469 C 25.097656 50.339844 50.339844 25.097656 81.480469 25.097656 Z M 81.480469 25.097656 "/>
<path style=" stroke:none;fill-rule:nonzero;fill:rgb(38.039216%,78.039216%,5.098039%);fill-opacity:1;" d="M 242.449219 446.089844 C 237.984375 444.0625 151.359375 358.738281 148.511719 353.558594 C 146.339844 349.613281 146.15625 345.824219 147.929688 341.558594 C 149.4375 337.933594 198.582031 288.117188 204.328125 284.390625 C 208.667969 281.574219 214.363281 281.195312 219.042969 283.417969 C 220.792969 284.246094 240.558594 303.296875 267.167969 329.796875 C 308.441406 370.898438 312.410156 375.085938 313.261719 378.449219 C 315.136719 385.84375 315.023438 385.996094 284.488281 416.707031 C 252.042969 449.335938 251.082031 450.007812 242.449219 446.089844 Z M 339.597656 362.882812 C 338.007812 362 329.214844 353.738281 320.050781 344.523438 C 305.351562 329.746094 303.273438 327.324219 302.390625 323.96875 C 301.503906 320.609375 301.570312 319.828125 302.972656 317.222656 C 304.878906 313.671875 398.425781 218.023438 401.601562 216.378906 C 404.621094 214.8125 408.742188 214.925781 411.980469 216.667969 C 416.082031 218.871094 446.621094 248.769531 448.46875 252.386719 C 450.289062 255.964844 450.511719 260.113281 449.023438 262.777344 C 448.097656 264.441406 431.332031 281.726562 373.289062 340.867188 L 350.726562 363.855469 L 346.605469 364.171875 C 343.609375 364.398438 341.695312 364.046875 339.597656 362.882812 Z M 103.492188 301.214844 C 89.382812 287.976562 64.816406 263.273438 63.734375 261.230469 C 62.152344 258.253906 62.238281 253.164062 63.910156 250.65625 C 65.320312 248.539062 78.195312 235.238281 113.128906 199.800781 C 134.789062 177.824219 136.425781 176.589844 142.378906 177.695312 C 144.964844 178.179688 148.714844 181.542969 167.496094 200.234375 C 192.183594 224.804688 192.628906 225.441406 189.640625 231.929688 C 188.53125 234.335938 177.601562 246.0625 154.5 269.628906 C 136.054688 288.4375 119.976562 304.484375 118.761719 305.28125 C 117.515625 306.105469 115.007812 306.738281 112.976562 306.742188 C 109.683594 306.746094 108.90625 306.292969 103.492188 301.214844 Z M 290.125 264.214844 C 286.003906 262.445312 179.984375 156.554688 177.917969 152.144531 C 175.890625 147.8125 175.90625 141.601562 177.960938 137.359375 C 179.023438 135.171875 191.132812 122.496094 212.800781 100.890625 C 242.675781 71.101562 246.382812 67.675781 249.714844 66.792969 C 253.972656 65.664062 259.289062 66.1875 263.136719 68.113281 C 267.320312 70.210938 372.449219 175.414062 374.296875 179.355469 C 376.179688 183.382812 376.3125 189.488281 374.601562 193.605469 C 372.847656 197.832031 309.148438 261.792969 304.554688 263.941406 C 300.578125 265.800781 294.101562 265.925781 290.125 264.214844 Z M 290.125 264.214844 "/>
</g>
</svg>
