
<svg xmlns="http://www.w3.org/2000/svg" xmlns:xlink="http://www.w3.org/1999/xlink" width="512px" height="512px" viewBox="0 0 512 512" version="1.1">
<g id="surface1">
<path style="fill-rule:nonzero;fill:rgb(94.901961%,45.098039%,5.882353%);fill-opacity:1;stroke-width:28.191782;stroke-linecap:butt;stroke-linejoin:miter;stroke:rgb(2.745098%,20.392157%,31.372549%);stroke-opacity:1;stroke-miterlimit:4;" d="M 81.480469 25.097656 L 430.519531 25.097656 C 461.660156 25.097656 486.902344 50.339844 486.902344 81.480469 L 486.902344 430.519531 C 486.902344 461.660156 461.660156 486.902344 430.519531 486.902344 L 81.480469 486.902344 C 50.339844 486.902344 25.097656 461.660156 25.097656 430.519531 L 25.097656 81.480469 C 25.097656 50.339844 50.339844 25.097656 81.480469 25.097656 Z M 81.480469 25.097656 "/>
<path style=" stroke:none;fill-rule:nonzero;fill:rgb(2.745098%,20.392157%,31.372549%);fill-opacity:1;" d="M 35.707031 35.03125 L 149.734375 35.03125 L 149.734375 479.664062 L 35.707031 479.664062 Z M 35.707031 35.03125 "/>
<path style=" stroke:none;fill-rule:evenodd;fill:rgb(100%,100%,100%);fill-opacity:1;" d="M 207.164062 107.273438 C 231.765625 93.816406 281.488281 91.152344 297.808594 112.5 C 303.6875 87.144531 334.757812 67.441406 376 65.042969 C 356.371094 60.367188 323.679688 47.4375 288.453125 86.359375 C 233.113281 69.238281 212.121094 100.652344 207.164062 107.273438 Z M 207.164062 107.273438 "/>
<path style=" stroke:none;fill-rule:evenodd;fill:rgb(100%,100%,100%);fill-opacity:1;" d="M 111.273438 241.941406 C 151.449219 216.867188 235.019531 207.554688 264.609375 241.964844 C 272.0625 198.644531 322.535156 162.410156 391.835938 154.367188 C 358.289062 148.386719 301.917969 129.761719 246.296875 198.796875 C 151.335938 175.296875 118.992188 230.300781 111.273438 241.941406 Z M 111.273438 241.941406 "/>
<path style="fill-rule:nonzero;fill:rgb(94.901961%,45.098039%,5.882353%);fill-opacity:1;stroke-width:13.445017;stroke-linecap:butt;stroke-linejoin:miter;stroke:rgb(100%,100%,100%);stroke-opacity:1;stroke-miterlimit:4;" d="M 233.683594 299.640625 L 385.589844 299.640625 C 413.230469 299.640625 435.636719 322.046875 435.636719 349.6875 L 435.636719 386.589844 C 435.636719 414.226562 413.230469 436.632812 385.589844 436.632812 L 233.683594 436.632812 C 206.046875 436.632812 183.640625 414.226562 183.640625 386.589844 L 183.640625 349.6875 C 183.640625 322.046875 206.046875 299.640625 233.683594 299.640625 Z M 233.683594 299.640625 "/>
<path style=" stroke:none;fill-rule:nonzero;fill:rgb(100%,100%,100%);fill-opacity:1;" d="M 209.792969 319.875 L 369.851562 319.875 L 369.851562 332.960938 L 209.792969 332.960938 Z M 209.792969 319.875 "/>
<path style=" stroke:none;fill-rule:nonzero;fill:rgb(100%,100%,100%);fill-opacity:1;" d="M 209.792969 387.242188 L 369.851562 387.242188 L 369.851562 400.332031 L 209.792969 400.332031 Z M 209.792969 387.242188 "/>
<path style=" stroke:none;fill-rule:nonzero;fill:rgb(100%,100%,100%);fill-opacity:1;" d="M 209.792969 354.234375 L 276.210938 354.234375 L 276.210938 367.320312 L 209.792969 367.320312 Z M 209.792969 354.234375 "/>
</g>
</svg>
