
<svg xmlns="http://www.w3.org/2000/svg" xmlns:xlink="http://www.w3.org/1999/xlink" width="512px" height="512px" viewBox="0 0 512 512" version="1.1">
<g id="surface1">
<path style=" stroke:none;fill-rule:nonzero;fill:rgb(2.352941%,64.313725%,100%);fill-opacity:1;" d="M 132.050781 30.0625 L 381.507812 30.0625 C 436.765625 30.0625 481.558594 74.855469 481.558594 130.113281 L 481.558594 379.570312 C 481.558594 434.828125 436.765625 479.621094 381.507812 479.621094 L 132.050781 479.621094 C 76.792969 479.621094 32 434.828125 32 379.570312 L 32 130.113281 C 32 74.855469 76.792969 30.0625 132.050781 30.0625 Z M 132.050781 30.0625 "/>
<path style=" stroke:none;fill-rule:nonzero;fill:rgb(100%,100%,100%);fill-opacity:1;" d="M 119.75 125.3125 L 394.824219 125.546875 L 394.824219 275.976562 L 163.507812 275.976562 L 163.507812 315.949219 L 394.117188 315.949219 L 394.117188 371.53125 L 121.40625 371.765625 L 121.167969 234.109375 L 344.445312 234.109375 L 344.683594 181.601562 L 119.515625 181.601562 Z M 119.75 125.3125 "/>
</g>
</svg>
