
<svg xmlns="http://www.w3.org/2000/svg" xmlns:xlink="http://www.w3.org/1999/xlink" width="512px" height="512px" viewBox="0 0 512 512" version="1.1">
<g id="surface1">
<path style=" stroke:none;fill-rule:nonzero;fill:rgb(100%,100%,100%);fill-opacity:1;" d="M 70.394531 31 L 441.605469 31 C 463.363281 31 481 48.636719 481 70.394531 L 481 441.605469 C 481 463.363281 463.363281 481 441.605469 481 L 70.394531 481 C 48.636719 481 31 463.363281 31 441.605469 L 31 70.394531 C 31 48.636719 48.636719 31 70.394531 31 Z M 70.394531 31 "/>
<path style=" stroke:none;fill-rule:evenodd;fill:rgb(13.333333%,21.176471%,33.72549%);fill-opacity:1;" d="M 139.332031 139.332031 C 139.332031 139.332031 372.667969 139.332031 372.667969 139.332031 L 372.667969 314.332031 L 322.667969 314.332031 L 322.667969 339.332031 L 297.667969 339.332031 L 297.667969 372.667969 L 214.332031 372.667969 L 214.332031 339.332031 L 189.332031 339.332031 L 189.332031 314.332031 L 139.332031 314.332031 Z M 139.332031 139.332031 "/>
<path style=" stroke:none;fill-rule:nonzero;fill:rgb(94.509804%,79.607843%,42.745098%);fill-opacity:1;" d="M 172.667969 139.332031 L 172.667969 181 L 189.332031 181 L 189.332031 139.332031 Z M 222.667969 139.332031 L 222.667969 181 L 239.332031 181 L 239.332031 139.332031 Z M 272.667969 139.332031 L 272.667969 181 L 289.332031 181 L 289.332031 139.332031 Z M 322.667969 139.332031 L 322.667969 181 L 339.332031 181 L 339.332031 139.332031 Z M 322.667969 139.332031 "/>
<path style=" stroke:none;fill-rule:nonzero;fill:rgb(58.431373%,64.705882%,65.098039%);fill-opacity:1;" d="M 114.332031 114.332031 L 114.332031 339.332031 L 172.667969 339.332031 L 172.667969 372.667969 L 197.667969 372.667969 L 197.667969 397.667969 L 314.332031 397.667969 L 314.332031 372.667969 L 339.332031 372.667969 L 339.332031 339.332031 L 397.667969 339.332031 L 397.667969 114.332031 Z M 139.332031 139.332031 L 372.667969 139.332031 L 372.667969 314.332031 L 322.667969 314.332031 L 322.667969 339.332031 L 297.667969 339.332031 L 297.667969 372.667969 L 214.332031 372.667969 L 214.332031 339.332031 L 189.332031 339.332031 L 189.332031 314.332031 L 139.332031 314.332031 Z M 139.332031 139.332031 "/>
<path style=" stroke:none;fill-rule:nonzero;fill:rgb(96.862745%,87.058824%,63.921569%);fill-opacity:1;" d="M 172.667969 139.332031 L 172.667969 147.667969 L 189.332031 147.667969 L 189.332031 139.332031 Z M 222.667969 139.332031 L 222.667969 147.667969 L 239.332031 147.667969 L 239.332031 139.332031 Z M 272.667969 139.332031 L 272.667969 147.667969 L 289.332031 147.667969 L 289.332031 139.332031 Z M 322.667969 139.332031 L 322.667969 147.667969 L 339.332031 147.667969 L 339.332031 139.332031 Z M 322.667969 139.332031 "/>
<path style=" stroke:none;fill-rule:nonzero;fill:rgb(92.941176%,73.72549%,26.666667%);fill-opacity:1;" d="M 172.667969 172.667969 L 172.667969 181 L 189.332031 181 L 189.332031 172.667969 Z M 222.667969 172.667969 L 222.667969 181 L 239.332031 181 L 239.332031 172.667969 Z M 272.667969 172.667969 L 272.667969 181 L 289.332031 181 L 289.332031 172.667969 Z M 322.667969 172.667969 L 322.667969 181 L 339.332031 181 L 339.332031 172.667969 Z M 322.667969 172.667969 "/>
<path style=" stroke:none;fill-rule:nonzero;fill:rgb(0%,0%,0%);fill-opacity:0.101961;" d="M 70.394531 31 C 48.570312 31 31 48.570312 31 70.390625 L 31 82.390625 C 31 60.570312 48.570312 43 70.394531 43 L 441.605469 43 C 463.429688 43 481 60.570312 481 82.390625 L 481 70.390625 C 481 48.570312 463.429688 31 441.605469 31 Z M 70.394531 31 "/>
<path style=" stroke:none;fill-rule:nonzero;fill:rgb(0%,0%,0%);fill-opacity:0.301961;" d="M 31 425.605469 L 31 441.605469 C 31 463.429688 48.570312 481 70.394531 481 L 441.605469 481 C 463.429688 481 481 463.429688 481 441.605469 L 481 425.605469 C 481 447.429688 463.429688 465 441.605469 465 L 70.394531 465 C 48.570312 465 31 447.429688 31 425.605469 Z M 31 425.605469 "/>
</g>
</svg>
