
<svg xmlns="http://www.w3.org/2000/svg" xmlns:xlink="http://www.w3.org/1999/xlink" width="512px" height="512px" viewBox="0 0 512 512" version="1.1">
<g id="surface1">
<path style="fill-rule:nonzero;fill:rgb(100%,100%,100%);fill-opacity:1;stroke-width:0.740509;stroke-linecap:butt;stroke-linejoin:miter;stroke:rgb(94.509804%,76.862745%,5.882353%);stroke-opacity:1;stroke-miterlimit:4;" d="M -35.929933 398.553113 L -26.761707 398.553113 C -25.943772 398.553113 -25.28066 399.216225 -25.28066 400.034159 L -25.28066 409.202386 C -25.28066 410.020321 -25.943772 410.683433 -26.761707 410.683433 L -35.929933 410.683433 C -36.747868 410.683433 -37.41098 410.020321 -37.41098 409.202386 L -37.41098 400.034159 C -37.41098 399.216225 -36.747868 398.553113 -35.929933 398.553113 Z M -35.929933 398.553113 " transform="matrix(37.795272,0,0,37.795272,1440.723789,-15036.65767)"/>
<path style=" stroke:none;fill-rule:nonzero;fill:rgb(74.117647%,76.470588%,78.039216%);fill-opacity:1;" d="M 256 80.3125 C 190.300781 80.3125 137.410156 133.203125 137.410156 198.902344 L 137.410156 431.6875 L 163.765625 431.6875 L 163.765625 198.902344 C 163.765625 147.800781 204.902344 106.667969 256 106.667969 C 307.097656 106.667969 348.234375 147.800781 348.234375 198.902344 L 348.234375 431.6875 L 374.589844 431.6875 L 374.589844 198.902344 C 374.589844 133.203125 321.699219 80.3125 256 80.3125 Z M 256 80.3125 "/>
<path style=" stroke:none;fill-rule:nonzero;fill:rgb(94.509804%,76.862745%,5.882353%);fill-opacity:1;" d="M 106.667969 431.6875 L 405.332031 431.6875 L 405.332031 256 L 106.667969 256 Z M 106.667969 431.6875 "/>
<path style=" stroke:none;fill-rule:nonzero;fill:rgb(17.254902%,24.313725%,31.372549%);fill-opacity:1;" d="M 256 291.136719 C 243.871094 291.136719 234.039062 300.96875 234.039062 313.097656 C 234.046875 321.824219 239.21875 329.714844 247.214844 333.207031 L 247.214844 396.550781 L 264.785156 396.550781 L 264.785156 333.207031 C 272.78125 329.714844 277.953125 321.824219 277.960938 313.097656 C 277.960938 300.96875 268.128906 291.136719 256 291.136719 Z M 256 291.136719 "/>
</g>
</svg>
