
<svg xmlns="http://www.w3.org/2000/svg" xmlns:xlink="http://www.w3.org/1999/xlink" width="512px" height="512px" viewBox="0 0 512 512" version="1.1">
<g id="surface1">
<path style="fill-rule:nonzero;fill:rgb(100%,100%,100%);fill-opacity:1;stroke-width:26.827003;stroke-linecap:butt;stroke-linejoin:miter;stroke:rgb(16.470588%,49.803922%,100%);stroke-opacity:1;stroke-miterlimit:4;" d="M 89.929688 36.273438 L 422.070312 36.273438 C 451.703125 36.273438 475.726562 60.296875 475.726562 89.929688 L 475.726562 422.070312 C 475.726562 451.703125 451.703125 475.726562 422.070312 475.726562 L 89.929688 475.726562 C 60.296875 475.726562 36.273438 451.703125 36.273438 422.070312 L 36.273438 89.929688 C 36.273438 60.296875 60.296875 36.273438 89.929688 36.273438 Z M 89.929688 36.273438 "/>
<path style=" stroke:none;fill-rule:nonzero;fill:rgb(0%,0%,100%);fill-opacity:1;" d="M 256 80.878906 C 239.878906 80.878906 226.8125 93.945312 226.8125 110.0625 C 226.8125 126.183594 239.878906 139.25 256 139.25 C 272.121094 139.25 285.1875 126.183594 285.1875 110.0625 C 285.1875 93.945312 272.121094 80.878906 256 80.878906 Z M 110.066406 153.84375 L 110.066406 183.03125 L 212.21875 183.03125 L 212.21875 431.121094 L 241.40625 431.121094 L 241.40625 314.375 L 270.59375 314.375 L 270.59375 431.121094 L 299.78125 431.121094 L 299.78125 183.03125 L 401.933594 183.03125 L 401.933594 153.84375 Z M 110.066406 153.84375 "/>
</g>
</svg>
