<!-- color: #eeeeee -->
<svg xmlns="http://www.w3.org/2000/svg" xmlns:xlink="http://www.w3.org/1999/xlink" width="512px" height="512px" viewBox="0 0 512 512" version="1.1">
<defs>
<linearGradient id="linear0" gradientUnits="userSpaceOnUse" x1="1" y1="0" x2="47" y2="0" gradientTransform="matrix(0,-8.265526,8.265526,0,57.627367,454.372604)">
<stop offset="0" style="stop-color:rgb(89.411765%,89.411765%,89.411765%);stop-opacity:1;"/>
<stop offset="1" style="stop-color:rgb(93.333333%,93.333333%,93.333333%);stop-opacity:1;"/>
</linearGradient>
<clipPath id="clip1">
  <path d="M 132 132 L 380 132 L 380 380 L 132 380 Z M 132 132 "/>
</clipPath>
<clipPath id="clip2">
  <path d="M 446.105469 256 C 446.105469 361.035156 360.9375 446.105469 256 446.105469 C 151.0625 446.105469 65.894531 361.035156 65.894531 256 C 65.894531 150.964844 151.0625 65.894531 256 65.894531 C 360.9375 65.894531 446.105469 150.964844 446.105469 256 Z M 446.105469 256 "/>
</clipPath>
<clipPath id="clip3">
  <path d="M 189 198 L 223 198 L 223 216 L 189 216 Z M 189 198 "/>
</clipPath>
<clipPath id="clip4">
  <path d="M 446.105469 256 C 446.105469 361.035156 360.9375 446.105469 256 446.105469 C 151.0625 446.105469 65.894531 361.035156 65.894531 256 C 65.894531 150.964844 151.0625 65.894531 256 65.894531 C 360.9375 65.894531 446.105469 150.964844 446.105469 256 Z M 446.105469 256 "/>
</clipPath>
<clipPath id="clip5">
  <path d="M 271 157 L 297 157 L 297 175 L 271 175 Z M 271 157 "/>
</clipPath>
<clipPath id="clip6">
  <path d="M 446.105469 256 C 446.105469 361.035156 360.9375 446.105469 256 446.105469 C 151.0625 446.105469 65.894531 361.035156 65.894531 256 C 65.894531 150.964844 151.0625 65.894531 256 65.894531 C 360.9375 65.894531 446.105469 150.964844 446.105469 256 Z M 446.105469 256 "/>
</clipPath>
<clipPath id="clip7">
  <path d="M 255 207 L 281 207 L 281 232 L 255 232 Z M 255 207 "/>
</clipPath>
<clipPath id="clip8">
  <path d="M 446.105469 256 C 446.105469 361.035156 360.9375 446.105469 256 446.105469 C 151.0625 446.105469 65.894531 361.035156 65.894531 256 C 65.894531 150.964844 151.0625 65.894531 256 65.894531 C 360.9375 65.894531 446.105469 150.964844 446.105469 256 Z M 446.105469 256 "/>
</clipPath>
<clipPath id="clip9">
  <path d="M 321 198 L 347 198 L 347 232 L 321 232 Z M 321 198 "/>
</clipPath>
<clipPath id="clip10">
  <path d="M 446.105469 256 C 446.105469 361.035156 360.9375 446.105469 256 446.105469 C 151.0625 446.105469 65.894531 361.035156 65.894531 256 C 65.894531 150.964844 151.0625 65.894531 256 65.894531 C 360.9375 65.894531 446.105469 150.964844 446.105469 256 Z M 446.105469 256 "/>
</clipPath>
<clipPath id="clip11">
  <path d="M 197 240 L 214 240 L 214 274 L 197 274 Z M 197 240 "/>
</clipPath>
<clipPath id="clip12">
  <path d="M 446.105469 256 C 446.105469 361.035156 360.9375 446.105469 256 446.105469 C 151.0625 446.105469 65.894531 361.035156 65.894531 256 C 65.894531 150.964844 151.0625 65.894531 256 65.894531 C 360.9375 65.894531 446.105469 150.964844 446.105469 256 Z M 446.105469 256 "/>
</clipPath>
<clipPath id="clip13">
  <path d="M 238 273 L 264 273 L 264 307 L 238 307 Z M 238 273 "/>
</clipPath>
<clipPath id="clip14">
  <path d="M 446.105469 256 C 446.105469 361.035156 360.9375 446.105469 256 446.105469 C 151.0625 446.105469 65.894531 361.035156 65.894531 256 C 65.894531 150.964844 151.0625 65.894531 256 65.894531 C 360.9375 65.894531 446.105469 150.964844 446.105469 256 Z M 446.105469 256 "/>
</clipPath>
<clipPath id="clip15">
  <path d="M 222 165 L 231 165 L 231 183 L 222 183 Z M 222 165 "/>
</clipPath>
<clipPath id="clip16">
  <path d="M 446.105469 256 C 446.105469 361.035156 360.9375 446.105469 256 446.105469 C 151.0625 446.105469 65.894531 361.035156 65.894531 256 C 65.894531 150.964844 151.0625 65.894531 256 65.894531 C 360.9375 65.894531 446.105469 150.964844 446.105469 256 Z M 446.105469 256 "/>
</clipPath>
<clipPath id="clip17">
  <path d="M 280 256 L 305 256 L 305 282 L 280 282 Z M 280 256 "/>
</clipPath>
<clipPath id="clip18">
  <path d="M 446.105469 256 C 446.105469 361.035156 360.9375 446.105469 256 446.105469 C 151.0625 446.105469 65.894531 361.035156 65.894531 256 C 65.894531 150.964844 151.0625 65.894531 256 65.894531 C 360.9375 65.894531 446.105469 150.964844 446.105469 256 Z M 446.105469 256 "/>
</clipPath>
<clipPath id="clip19">
  <path d="M 321 256 L 355 256 L 355 298 L 321 298 Z M 321 256 "/>
</clipPath>
<clipPath id="clip20">
  <path d="M 446.105469 256 C 446.105469 361.035156 360.9375 446.105469 256 446.105469 C 151.0625 446.105469 65.894531 361.035156 65.894531 256 C 65.894531 150.964844 151.0625 65.894531 256 65.894531 C 360.9375 65.894531 446.105469 150.964844 446.105469 256 Z M 446.105469 256 "/>
</clipPath>
<clipPath id="clip21">
  <path d="M 280 314 L 322 314 L 322 348 L 280 348 Z M 280 314 "/>
</clipPath>
<clipPath id="clip22">
  <path d="M 446.105469 256 C 446.105469 361.035156 360.9375 446.105469 256 446.105469 C 151.0625 446.105469 65.894531 361.035156 65.894531 256 C 65.894531 150.964844 151.0625 65.894531 256 65.894531 C 360.9375 65.894531 446.105469 150.964844 446.105469 256 Z M 446.105469 256 "/>
</clipPath>
<clipPath id="clip23">
  <path d="M 213 331 L 248 331 L 248 348 L 213 348 Z M 213 331 "/>
</clipPath>
<clipPath id="clip24">
  <path d="M 446.105469 256 C 446.105469 361.035156 360.9375 446.105469 256 446.105469 C 151.0625 446.105469 65.894531 361.035156 65.894531 256 C 65.894531 150.964844 151.0625 65.894531 256 65.894531 C 360.9375 65.894531 446.105469 150.964844 446.105469 256 Z M 446.105469 256 "/>
</clipPath>
<clipPath id="clip25">
  <path d="M 180 289 L 214 289 L 214 307 L 180 307 Z M 180 289 "/>
</clipPath>
<clipPath id="clip26">
  <path d="M 446.105469 256 C 446.105469 361.035156 360.9375 446.105469 256 446.105469 C 151.0625 446.105469 65.894531 361.035156 65.894531 256 C 65.894531 150.964844 151.0625 65.894531 256 65.894531 C 360.9375 65.894531 446.105469 150.964844 446.105469 256 Z M 446.105469 256 "/>
</clipPath>
<clipPath id="clip27">
  <path d="M 156 240 L 165 240 L 165 274 L 156 274 Z M 156 240 "/>
</clipPath>
<clipPath id="clip28">
  <path d="M 446.105469 256 C 446.105469 361.035156 360.9375 446.105469 256 446.105469 C 151.0625 446.105469 65.894531 361.035156 65.894531 256 C 65.894531 150.964844 151.0625 65.894531 256 65.894531 C 360.9375 65.894531 446.105469 150.964844 446.105469 256 Z M 446.105469 256 "/>
</clipPath>
</defs>
<g id="surface1">
<path style="fill-rule:nonzero;fill:rgb(100%,100%,100%);fill-opacity:1;stroke-width:2.648788;stroke-linecap:butt;stroke-linejoin:miter;stroke:rgb(82.745098%,66.27451%,41.568627%);stroke-opacity:1;stroke-miterlimit:4;" d="M 7.602905 2.305298 L 40.397093 2.305298 C 43.323119 2.305298 45.694701 4.67688 45.694701 7.602905 L 45.694701 40.397093 C 45.694701 43.323119 43.323119 45.694701 40.397093 45.694701 L 7.602905 45.694701 C 4.67688 45.694701 2.305298 43.323119 2.305298 40.397093 L 2.305298 7.602905 C 2.305298 4.67688 4.67688 2.305298 7.602905 2.305298 Z M 7.602905 2.305298 " transform="matrix(10.666667,0,0,10.666667,0,0)"/>
<path style=" stroke:none;fill-rule:nonzero;fill:url(#linear0);" d="M 256 65.894531 C 360.996094 65.894531 446.105469 151.003906 446.105469 256 C 446.105469 360.996094 360.996094 446.105469 256 446.105469 C 151.003906 446.105469 65.894531 360.996094 65.894531 256 C 65.894531 151.003906 151.003906 65.894531 256 65.894531 Z M 256 65.894531 "/>
<g clip-path="url(#clip1)" clip-rule="nonzero">
<g clip-path="url(#clip2)" clip-rule="nonzero">
<path style=" stroke:none;fill-rule:nonzero;fill:rgb(81.568627%,63.137255%,35.686275%);fill-opacity:0.886275;" d="M 379.984375 256 C 379.984375 324.480469 324.480469 379.984375 256 379.984375 C 187.519531 379.984375 132.015625 324.480469 132.015625 256 C 132.015625 187.519531 187.519531 132.015625 256 132.015625 C 324.480469 132.015625 379.984375 187.519531 379.984375 256 M 379.984375 256 "/>
</g>
</g>
<g clip-path="url(#clip3)" clip-rule="nonzero">
<g clip-path="url(#clip4)" clip-rule="nonzero">
<path style=" stroke:none;fill-rule:nonzero;fill:rgb(52.54902%,35.686275%,12.941176%);fill-opacity:1;" d="M 189.199219 198.886719 L 189.199219 215.417969 L 222.261719 207.152344 M 189.199219 198.886719 "/>
</g>
</g>
<g clip-path="url(#clip5)" clip-rule="nonzero">
<g clip-path="url(#clip6)" clip-rule="nonzero">
<path style=" stroke:none;fill-rule:nonzero;fill:rgb(52.54902%,35.686275%,12.941176%);fill-opacity:1;" d="M 271.820312 157.558594 L 271.820312 174.089844 L 296.617188 165.824219 M 271.820312 157.558594 "/>
</g>
</g>
<g clip-path="url(#clip7)" clip-rule="nonzero">
<g clip-path="url(#clip8)" clip-rule="nonzero">
<path style=" stroke:none;fill-rule:nonzero;fill:rgb(52.54902%,35.686275%,12.941176%);fill-opacity:1;" d="M 255.289062 207.152344 L 263.554688 231.949219 L 280.050781 215.417969 M 255.289062 207.152344 "/>
</g>
</g>
<g clip-path="url(#clip9)" clip-rule="nonzero">
<g clip-path="url(#clip10)" clip-rule="nonzero">
<path style=" stroke:none;fill-rule:nonzero;fill:rgb(52.54902%,35.686275%,12.941176%);fill-opacity:1;" d="M 329.679688 198.886719 L 321.414062 231.949219 L 346.210938 223.683594 M 329.679688 198.886719 "/>
</g>
</g>
<g clip-path="url(#clip11)" clip-rule="nonzero">
<g clip-path="url(#clip12)" clip-rule="nonzero">
<path style=" stroke:none;fill-rule:nonzero;fill:rgb(52.54902%,35.686275%,12.941176%);fill-opacity:1;" d="M 197.429688 240.210938 L 197.429688 273.273438 L 213.960938 248.476562 M 197.429688 240.210938 "/>
</g>
</g>
<g clip-path="url(#clip13)" clip-rule="nonzero">
<g clip-path="url(#clip14)" clip-rule="nonzero">
<path style=" stroke:none;fill-rule:nonzero;fill:rgb(52.54902%,35.686275%,12.941176%);fill-opacity:1;" d="M 238.757812 289.804688 L 238.757812 306.304688 L 263.554688 298.039062 L 247.023438 273.242188 M 238.757812 289.773438 "/>
</g>
</g>
<g clip-path="url(#clip15)" clip-rule="nonzero">
<g clip-path="url(#clip16)" clip-rule="nonzero">
<path style=" stroke:none;fill-rule:nonzero;fill:rgb(52.54902%,35.686275%,12.941176%);fill-opacity:1;" d="M 222.261719 165.824219 L 222.261719 174.089844 L 230.527344 182.320312 M 222.261719 165.824219 "/>
</g>
</g>
<g clip-path="url(#clip17)" clip-rule="nonzero">
<g clip-path="url(#clip18)" clip-rule="nonzero">
<path style=" stroke:none;fill-rule:nonzero;fill:rgb(52.54902%,35.686275%,12.941176%);fill-opacity:1;" d="M 304.914062 256.660156 L 280.117188 264.925781 L 296.648438 281.457031 L 304.914062 264.925781 L 304.914062 256.660156 M 304.949219 256.660156 "/>
</g>
</g>
<g clip-path="url(#clip19)" clip-rule="nonzero">
<g clip-path="url(#clip20)" clip-rule="nonzero">
<path style=" stroke:none;fill-rule:nonzero;fill:rgb(52.54902%,35.686275%,12.941176%);fill-opacity:1;" d="M 337.976562 256.660156 L 321.445312 297.988281 L 329.710938 281.558594 L 354.507812 273.292969 M 337.976562 256.761719 "/>
</g>
</g>
<g clip-path="url(#clip21)" clip-rule="nonzero">
<g clip-path="url(#clip22)" clip-rule="nonzero">
<path style=" stroke:none;fill-rule:nonzero;fill:rgb(52.54902%,35.686275%,12.941176%);fill-opacity:1;" d="M 296.648438 314.601562 L 280.117188 331.101562 L 304.914062 347.632812 L 321.445312 331.101562 M 296.648438 314.601562 "/>
</g>
</g>
<g clip-path="url(#clip23)" clip-rule="nonzero">
<g clip-path="url(#clip24)" clip-rule="nonzero">
<path style=" stroke:none;fill-rule:nonzero;fill:rgb(52.54902%,35.686275%,12.941176%);fill-opacity:1;" d="M 230.527344 331.050781 L 213.996094 331.050781 L 238.792969 347.582031 L 247.058594 339.316406 M 230.527344 331.050781 "/>
</g>
</g>
<g clip-path="url(#clip25)" clip-rule="nonzero">
<g clip-path="url(#clip26)" clip-rule="nonzero">
<path style=" stroke:none;fill-rule:nonzero;fill:rgb(52.54902%,35.686275%,12.941176%);fill-opacity:1;" d="M 180.898438 297.988281 L 213.960938 289.824219 L 213.960938 306.253906 L 189.164062 306.253906 M 180.898438 297.988281 "/>
</g>
</g>
<g clip-path="url(#clip27)" clip-rule="nonzero">
<g clip-path="url(#clip28)" clip-rule="nonzero">
<path style=" stroke:none;fill-rule:nonzero;fill:rgb(52.54902%,35.686275%,12.941176%);fill-opacity:1;" d="M 156.136719 240.210938 L 164.367188 273.273438 L 164.367188 240.210938 M 156.136719 240.210938 "/>
</g>
</g>
</g>
</svg>
