
<svg xmlns="http://www.w3.org/2000/svg" xmlns:xlink="http://www.w3.org/1999/xlink" width="512px" height="512px" viewBox="0 0 512 512" version="1.1">
<g id="surface1">
<path style="fill-rule:nonzero;fill:rgb(100%,100%,100%);fill-opacity:1;stroke-width:2.627763;stroke-linecap:butt;stroke-linejoin:miter;stroke:rgb(16.862745%,65.882353%,92.156863%);stroke-opacity:1;stroke-miterlimit:4;" d="M 7.73291 1006.839586 L 40.267089 1006.839586 C 43.169676 1006.839586 45.522582 1009.192491 45.522582 1012.095079 L 45.522582 1044.629257 C 45.522582 1047.531845 43.169676 1049.88475 40.267089 1049.88475 L 7.73291 1049.88475 C 4.830322 1049.88475 2.477417 1047.531845 2.477417 1044.629257 L 2.477417 1012.095079 C 2.477417 1009.192491 4.830322 1006.839586 7.73291 1006.839586 Z M 7.73291 1006.839586 " transform="matrix(10.666667,0,0,10.666667,0,-10713.1968)"/>
<path style=" stroke:none;fill-rule:nonzero;fill:rgb(0%,66.666667%,83.137255%);fill-opacity:1;" d="M 78.035156 201.265625 L 161.183594 201.265625 L 161.183594 118.121094 L 78.035156 118.121094 Z M 78.035156 201.265625 "/>
<path style=" stroke:none;fill-rule:nonzero;fill:rgb(100%,33.333333%,33.333333%);fill-opacity:1;" d="M 276.074219 358.015625 L 359.222656 358.015625 L 359.222656 441.164062 L 276.074219 441.164062 Z M 276.074219 358.015625 "/>
<path style=" stroke:none;fill-rule:nonzero;fill:rgb(0%,66.666667%,83.137255%);fill-opacity:1;" d="M 165.542969 201.265625 L 248.691406 201.265625 L 248.691406 118.121094 L 165.542969 118.121094 Z M 165.542969 201.265625 "/>
<path style=" stroke:none;fill-rule:nonzero;fill:rgb(0%,66.666667%,83.137255%);fill-opacity:1;" d="M 253.117188 201.265625 L 336.265625 201.265625 L 336.265625 118.121094 L 253.117188 118.121094 Z M 253.117188 201.265625 "/>
<path style=" stroke:none;fill-rule:nonzero;fill:rgb(0%,66.666667%,83.137255%);fill-opacity:1;" d="M 340.625 201.265625 L 423.773438 201.265625 L 423.773438 118.121094 L 340.625 118.121094 Z M 340.625 201.265625 "/>
<path style=" stroke:none;fill-rule:nonzero;fill:rgb(0%,66.666667%,83.137255%);fill-opacity:1;" d="M 340.625 287.175781 L 423.773438 287.175781 L 423.773438 204.027344 L 340.625 204.027344 Z M 340.625 287.175781 "/>
<path style=" stroke:none;fill-rule:nonzero;fill:rgb(100%,33.333333%,33.333333%);fill-opacity:1;" d="M 188.632812 358.015625 L 271.78125 358.015625 L 271.78125 441.164062 L 188.632812 441.164062 Z M 188.632812 358.015625 "/>
<path style=" stroke:none;fill-rule:nonzero;fill:rgb(100%,33.333333%,33.333333%);fill-opacity:1;" d="M 99.660156 358.015625 L 182.804688 358.015625 L 182.804688 441.164062 L 99.660156 441.164062 Z M 99.660156 358.015625 "/>
<path style=" stroke:none;fill-rule:nonzero;fill:rgb(100%,33.333333%,33.333333%);fill-opacity:1;" d="M 188.632812 270.574219 L 271.78125 270.574219 L 271.78125 353.722656 L 188.632812 353.722656 Z M 188.632812 270.574219 "/>
</g>
</svg>
