
<svg xmlns="http://www.w3.org/2000/svg" xmlns:xlink="http://www.w3.org/1999/xlink" width="512px" height="512px" viewBox="0 0 512 512" version="1.1">
<g id="surface1">
<path style="fill-rule:nonzero;fill:rgb(82.352941%,85.882353%,90.980392%);fill-opacity:1;stroke-width:7.118063;stroke-linecap:butt;stroke-linejoin:miter;stroke:rgb(19.215686%,21.176471%,27.843137%);stroke-opacity:1;stroke-miterlimit:4;" d="M 19.935542 1000.218741 L 108.064448 1000.218741 C 115.926753 1000.218741 122.300776 1006.592764 122.300776 1014.455069 L 122.300776 1102.583975 C 122.300776 1110.44628 115.926753 1116.820304 108.064448 1116.820304 L 19.935542 1116.820304 C 12.073237 1116.820304 5.699214 1110.44628 5.699214 1102.583975 L 5.699214 1014.455069 C 5.699214 1006.592764 12.073237 1000.218741 19.935542 1000.218741 Z M 19.935542 1000.218741 " transform="matrix(4,0,0,4,0.00002,-3978.078089)"/>
<path style=" stroke:none;fill-rule:nonzero;fill:rgb(50.980392%,52.941176%,54.901961%);fill-opacity:1;" d="M 255 67.964844 C 359.402344 67.964844 444.035156 152.597656 444.035156 257 C 444.035156 361.402344 359.402344 446.039062 255 446.039062 C 150.597656 446.039062 65.964844 361.402344 65.964844 257 C 65.964844 152.597656 150.597656 67.964844 255 67.964844 Z M 255 67.964844 "/>
<path style=" stroke:none;fill-rule:nonzero;fill:rgb(81.960784%,81.960784%,80.392157%);fill-opacity:1;" d="M 284.742188 149.132812 L 285.535156 149.925781 C 302.105469 166.496094 302.105469 193.179688 285.535156 209.753906 L 207.753906 287.535156 C 191.179688 304.105469 164.496094 304.105469 147.925781 287.535156 L 147.132812 286.742188 C 130.558594 270.167969 130.558594 243.484375 147.132812 226.914062 L 224.914062 149.132812 C 241.484375 132.5625 268.167969 132.5625 284.742188 149.132812 Z M 284.742188 149.132812 "/>
<path style=" stroke:none;fill-rule:nonzero;fill:rgb(0%,48.235294%,78.823529%);fill-opacity:1;" d="M 255 145.296875 C 273.980469 145.296875 289.371094 160.683594 289.371094 179.667969 C 289.371094 198.648438 273.980469 214.039062 255 214.039062 C 236.019531 214.039062 220.628906 198.648438 220.628906 179.667969 C 220.628906 160.683594 236.019531 145.296875 255 145.296875 Z M 255 145.296875 "/>
<path style=" stroke:none;fill-rule:nonzero;fill:rgb(81.960784%,81.960784%,80.392157%);fill-opacity:1;" d="M 362.074219 225.609375 L 362.867188 226.398438 C 379.441406 242.972656 379.441406 269.65625 362.867188 286.226562 L 285.085938 364.007812 C 268.515625 380.578125 241.832031 380.578125 225.257812 364.007812 L 224.464844 363.21875 C 207.894531 346.644531 207.894531 319.960938 224.464844 303.386719 L 302.246094 225.609375 C 318.820312 209.035156 345.503906 209.035156 362.074219 225.609375 Z M 362.074219 225.609375 "/>
<path style=" stroke:none;fill-rule:nonzero;fill:rgb(98.039216%,76.078431%,22.745098%);fill-opacity:1;" d="M 255 299.964844 C 273.980469 299.964844 289.371094 315.351562 289.371094 334.332031 C 289.371094 353.316406 273.980469 368.703125 255 368.703125 C 236.019531 368.703125 220.628906 353.316406 220.628906 334.332031 C 220.628906 315.351562 236.019531 299.964844 255 299.964844 Z M 255 299.964844 "/>
<path style=" stroke:none;fill-rule:nonzero;fill:rgb(89.803922%,17.647059%,23.137255%);fill-opacity:1;" d="M 366.703125 257 C 366.703125 275.980469 351.316406 291.371094 332.332031 291.371094 C 313.351562 291.371094 297.964844 275.980469 297.964844 257 C 297.964844 238.019531 313.351562 222.628906 332.332031 222.628906 C 351.316406 222.628906 366.703125 238.019531 366.703125 257 Z M 366.703125 257 "/>
<path style=" stroke:none;fill-rule:nonzero;fill:rgb(1.176471%,64.705882%,43.137255%);fill-opacity:1;" d="M 212.035156 257 C 212.035156 275.980469 196.648438 291.371094 177.667969 291.371094 C 158.683594 291.371094 143.296875 275.980469 143.296875 257 C 143.296875 238.019531 158.683594 222.628906 177.667969 222.628906 C 196.648438 222.628906 212.035156 238.019531 212.035156 257 Z M 212.035156 257 "/>
</g>
</svg>
