
<svg xmlns="http://www.w3.org/2000/svg" xmlns:xlink="http://www.w3.org/1999/xlink" width="512px" height="512px" viewBox="0 0 512 512" version="1.1">
<g id="surface1">
<path style="fill-rule:nonzero;fill:rgb(39.607843%,59.607843%,0%);fill-opacity:1;stroke-width:55.679031;stroke-linecap:butt;stroke-linejoin:miter;stroke:rgb(94.901961%,94.901961%,94.901961%);stroke-opacity:1;stroke-miterlimit:4;" d="M 167.320312 55.960938 L 856.679688 55.960938 C 918.179688 55.960938 968.039062 105.820312 968.039062 167.320312 L 968.039062 856.679688 C 968.039062 918.179688 918.179688 968.039062 856.679688 968.039062 L 167.320312 968.039062 C 105.820312 968.039062 55.960938 918.179688 55.960938 856.679688 L 55.960938 167.320312 C 55.960938 105.820312 105.820312 55.960938 167.320312 55.960938 Z M 167.320312 55.960938 " transform="matrix(0.5,0,0,0.5,0,0)"/>
<path style=" stroke:none;fill-rule:evenodd;fill:rgb(94.901961%,94.901961%,94.901961%);fill-opacity:1;" d="M 444.207031 255.484375 C 444.207031 152.121094 360.414062 68.332031 257.050781 68.332031 C 153.6875 68.332031 69.898438 152.121094 69.898438 255.484375 C 69.898438 358.847656 153.6875 442.636719 257.050781 442.636719 C 360.414062 442.636719 444.207031 358.847656 444.207031 255.484375 Z M 444.207031 255.484375 "/>
<path style=" stroke:none;fill-rule:nonzero;fill:rgb(39.607843%,59.607843%,0%);fill-opacity:1;" d="M 242.316406 456.417969 C 232.703125 455.5 228.390625 455.007812 224.339844 454.375 C 190.15625 449.011719 160.246094 435.941406 133.585938 414.714844 C 97.539062 386.015625 72.757812 348.925781 62.269531 307.972656 C 57.535156 289.484375 56.082031 277.21875 56.082031 255.667969 C 56.082031 237.886719 56.609375 231.371094 59.175781 217.398438 C 67.425781 172.464844 90.558594 133.175781 127.246094 101.792969 C 163.902344 70.433594 207.253906 54.632812 256.65625 54.617188 C 312.46875 54.605469 359.625 74.113281 399.011719 113.515625 C 434.613281 149.128906 453.65625 190.308594 457.441406 239.851562 C 458.1875 249.632812 457.785156 271.296875 456.6875 280.164062 C 450.398438 331.085938 427.886719 373.222656 388.511719 407.773438 C 357.585938 434.910156 322.875 450.402344 281.609375 455.480469 C 275.359375 456.25 247.503906 456.914062 242.316406 456.417969 Z M 340.5 267.722656 C 379.460938 137.855469 381.011719 132.535156 380.078125 131.851562 C 379.265625 131.253906 373.074219 131.160156 342.007812 131.277344 C 321.605469 131.351562 304.761719 131.5625 304.578125 131.746094 C 304.398438 131.925781 293.597656 172.199219 280.578125 221.234375 C 267.554688 270.273438 256.789062 310.507812 256.652344 310.648438 C 256.511719 310.785156 256.234375 310.242188 256.03125 309.4375 C 255.828125 308.632812 245.984375 268.421875 234.15625 220.082031 C 222.324219 171.742188 212.472656 132.015625 212.257812 131.804688 C 211.800781 131.347656 140.023438 130.972656 137.578125 131.417969 C 136.320312 131.644531 135.921875 131.976562 135.921875 132.804688 C 135.921875 134.007812 211.292969 400.820312 212.039062 402.25 C 212.476562 403.097656 214.972656 403.140625 256.226562 403.015625 L 299.953125 402.886719 Z M 340.5 267.722656 "/>
</g>
</svg>
