<!-- color: #eeeeee -->
<svg xmlns="http://www.w3.org/2000/svg" xmlns:xlink="http://www.w3.org/1999/xlink" width="512px" height="512px" viewBox="0 0 512 512" version="1.1">
<defs>
<clipPath id="clip1">
  <path d="M 56 68 L 456 68 L 456 437 L 56 437 Z M 56 68 "/>
</clipPath>
<clipPath id="clip2">
  <path d="M 608.484375 252.886719 C 608.484375 447.742188 450.484375 605.5625 255.808594 605.5625 C 61.132812 605.5625 -96.867188 447.742188 -96.867188 252.886719 C -96.867188 58.035156 61.132812 -99.789062 255.808594 -99.789062 C 450.484375 -99.789062 608.484375 58.035156 608.484375 252.886719 Z M 608.484375 252.886719 "/>
</clipPath>
<clipPath id="clip3">
  <path d="M 331 127 L 354 127 L 354 150 L 331 150 Z M 331 127 "/>
</clipPath>
<clipPath id="clip4">
  <path d="M 608.484375 252.886719 C 608.484375 447.742188 450.484375 605.5625 255.808594 605.5625 C 61.132812 605.5625 -96.867188 447.742188 -96.867188 252.886719 C -96.867188 58.035156 61.132812 -99.789062 255.808594 -99.789062 C 450.484375 -99.789062 608.484375 58.035156 608.484375 252.886719 Z M 608.484375 252.886719 "/>
</clipPath>
<clipPath id="clip5">
  <path d="M 315 90 L 332 90 L 332 107 L 315 107 Z M 315 90 "/>
</clipPath>
<clipPath id="clip6">
  <path d="M 608.484375 252.886719 C 608.484375 447.742188 450.484375 605.5625 255.808594 605.5625 C 61.132812 605.5625 -96.867188 447.742188 -96.867188 252.886719 C -96.867188 58.035156 61.132812 -99.789062 255.808594 -99.789062 C 450.484375 -99.789062 608.484375 58.035156 608.484375 252.886719 Z M 608.484375 252.886719 "/>
</clipPath>
</defs>
<g id="surface1">
<path style="fill-rule:nonzero;fill:rgb(97.254902%,98.431373%,99.215686%);fill-opacity:1;stroke-width:6.958898;stroke-linecap:butt;stroke-linejoin:miter;stroke:rgb(28.627451%,29.803922%,52.54902%);stroke-opacity:1;stroke-miterlimit:4;" d="M 20.920898 7.00293 L 107.079102 7.00293 C 114.765625 7.00293 120.99707 13.234375 120.99707 20.920898 L 120.99707 107.079102 C 120.99707 114.765625 114.765625 120.99707 107.079102 120.99707 L 20.920898 120.99707 C 13.234375 120.99707 7.00293 114.765625 7.00293 107.079102 L 7.00293 20.920898 C 7.00293 13.234375 13.234375 7.00293 20.920898 7.00293 Z M 20.920898 7.00293 " transform="matrix(4,0,0,4,0,0)"/>
<g clip-path="url(#clip1)" clip-rule="nonzero">
<g clip-path="url(#clip2)" clip-rule="nonzero">
<path style=" stroke:none;fill-rule:nonzero;fill:rgb(28.627451%,29.803922%,52.54902%);fill-opacity:1;" d="M 384.703125 68.882812 C 369.96875 69.128906 355.417969 78.941406 353.070312 97.160156 C 349.359375 126.324219 377.265625 115.375 399.53125 115.375 C 421.871094 115.375 429.25 162.695312 423.542969 188.210938 C 420.1875 203.421875 397.554688 231.039062 351.613281 238.042969 L 351.613281 254.34375 C 367.253906 257.335938 378.449219 265.660156 378.449219 275.902344 C 378.449219 286.207031 367.253906 294.535156 351.613281 297.460938 L 351.613281 405.257812 C 413.253906 363.03125 455.117188 285.105469 455.117188 211.195312 C 455.117188 198.789062 453.550781 186.585938 451.28125 174.777344 C 449.242188 168.84375 447.695312 162.433594 446.007812 157.050781 C 443.308594 147.347656 440.011719 139.265625 437.375 131.660156 C 437.3125 131.414062 437.496094 131 437.375 130.695312 C 426.824219 107.691406 412.105469 87.085938 393.765625 69.835938 C 393.703125 69.710938 393.414062 69.957031 393.289062 69.835938 C 390.40625 69.113281 387.664062 68.820312 384.65625 68.867188 M 137.480469 195.371094 C 85.191406 198.851562 58.539062 230.410156 56.625 231.3125 C 63.449219 296.835938 103.636719 366.265625 160.125 405.257812 L 160.125 297.460938 C 144.546875 294.535156 133.292969 286.207031 133.292969 275.964844 C 133.292969 265.660156 144.546875 257.335938 160.125 254.40625 L 160.125 195.890625 C 152.105469 195.234375 144.484375 194.988281 137.480469 195.585938 M 183.128906 199.726562 L 183.128906 254.40625 C 198.644531 257.289062 209.960938 265.722656 209.960938 275.964844 C 209.960938 286.207031 198.582031 294.59375 183.128906 297.460938 L 183.128906 419.226562 C 202.292969 428.871094 223.023438 434.4375 244.460938 436.003906 L 244.460938 404.859375 C 228.882812 401.929688 217.628906 393.605469 217.628906 383.300781 C 217.628906 373.058594 228.882812 364.730469 244.460938 361.742188 L 244.460938 221.820312 C 238.113281 219.429688 231.457031 216.730469 224.820312 213.679688 C 209.792969 206.964844 196.070312 202.714844 183.128906 199.789062 M 267.460938 229.550781 L 267.460938 361.804688 C 282.980469 364.6875 294.296875 373.121094 294.296875 383.363281 C 294.296875 393.605469 282.917969 401.992188 267.460938 404.859375 L 267.460938 436.003906 C 288.960938 434.394531 309.445312 428.398438 328.796875 418.753906 L 328.796875 297.523438 C 313.21875 294.640625 301.964844 286.269531 301.964844 276.027344 C 301.964844 265.785156 313.21875 257.335938 328.796875 254.46875 L 328.796875 239.609375 C 311.070312 239.546875 290.707031 236.496094 267.460938 229.550781 M 267.460938 229.550781 "/>
</g>
</g>
<g clip-path="url(#clip3)" clip-rule="nonzero">
<g clip-path="url(#clip4)" clip-rule="nonzero">
<path style=" stroke:none;fill-rule:nonzero;fill:rgb(26.27451%,29.019608%,55.686275%);fill-opacity:1;" d="M 353.867188 138.128906 C 353.867188 144.1875 348.898438 149.03125 342.71875 149.03125 C 336.617188 149.03125 331.574219 144.1875 331.574219 138.128906 C 331.574219 132.074219 336.601562 127.226562 342.71875 127.226562 C 348.882812 127.226562 353.867188 132.074219 353.867188 138.128906 M 353.867188 138.128906 "/>
</g>
</g>
<g clip-path="url(#clip5)" clip-rule="nonzero">
<g clip-path="url(#clip6)" clip-rule="nonzero">
<path style=" stroke:none;fill-rule:nonzero;fill:rgb(26.27451%,29.019608%,55.686275%);fill-opacity:1;" d="M 331.527344 98.539062 C 331.527344 102.785156 328 106.265625 323.675781 106.265625 C 319.304688 106.265625 315.761719 102.785156 315.761719 98.539062 C 315.761719 94.230469 319.289062 90.75 323.675781 90.75 C 327.984375 90.75 331.527344 94.230469 331.527344 98.539062 M 331.527344 98.539062 "/>
</g>
</g>
</g>
</svg>
