<?xml version="1.0" encoding="UTF-8"?>
<svg xmlns="http://www.w3.org/2000/svg" xmlns:xlink="http://www.w3.org/1999/xlink" width="32pt" height="32pt" viewBox="0 0 32 32" version="1.1">
<g id="surface1">
<path style="fill-rule:nonzero;fill:rgb(100%,100%,100%);fill-opacity:1;stroke-width:25.317125;stroke-linecap:butt;stroke-linejoin:miter;stroke:rgb(60.784314%,61.568627%,65.098039%);stroke-opacity:1;stroke-miterlimit:4;" d="M 119.669192 38.320193 L 433.100207 38.320193 C 461.101088 38.320193 483.736531 60.955636 483.736531 88.956516 L 483.736531 402.387531 C 483.736531 430.388412 461.101088 453.023855 433.100207 453.023855 L 119.669192 453.023855 C 91.668311 453.023855 69.032869 430.388412 69.032869 402.387531 L 69.032869 88.956516 C 69.032869 60.955636 91.668311 38.320193 119.669192 38.320193 Z M 119.669192 38.320193 " transform="matrix(0.0698918,0,0,0.0698918,-3.317017,-1.170454)"/>
<path style="fill-rule:evenodd;fill:rgb(37.254902%,87.45098%,88.235294%);fill-opacity:1;stroke-width:10.423985;stroke-linecap:butt;stroke-linejoin:miter;stroke:rgb(100%,100%,100%);stroke-opacity:1;stroke-miterlimit:4;" d="M 75.426628 147.139023 L 378.539271 147.180645 L 378.538385 378.9279 L 75.425742 378.886277 Z M 75.426628 147.139023 " transform="matrix(0.0689058,-0.0116981,0.0116981,0.0689058,-3.317017,-1.170454)"/>
<path style=" stroke:none;fill-rule:nonzero;fill:rgb(28.235294%,28.235294%,29.803922%);fill-opacity:1;" d="M 10.75 22.914062 C 10.726562 20.796875 10.71875 18.261719 10.726562 17.285156 L 10.746094 15.511719 L 16.683594 15.492188 C 19.945312 15.484375 24.011719 15.492188 25.71875 15.515625 L 28.816406 15.554688 L 28.816406 26.769531 L 10.789062 26.769531 Z M 10.75 22.914062 "/>
<path style="fill-rule:evenodd;fill:rgb(28.235294%,28.235294%,29.803922%);fill-opacity:1;stroke-width:19.656656;stroke-linecap:round;stroke-linejoin:miter;stroke:rgb(100%,100%,100%);stroke-opacity:1;stroke-miterlimit:4;" d="M 426.72875 321.067609 C 426.72875 345.99454 406.552466 366.226714 381.625535 366.226714 C 356.698603 366.226714 336.46643 345.99454 336.46643 321.067609 C 336.46643 296.140677 356.698603 275.964394 381.625535 275.964394 C 406.552466 275.964394 426.72875 296.140677 426.72875 321.067609 Z M 426.72875 321.067609 " transform="matrix(0.0698918,0,0,0.0698918,-3.317017,-1.170454)"/>
</g>
</svg>
