
<svg xmlns="http://www.w3.org/2000/svg" xmlns:xlink="http://www.w3.org/1999/xlink" width="24px" height="24px" viewBox="0 0 24 24" version="1.1">
<defs>
<filter id="alpha" filterUnits="objectBoundingBox" x="0%" y="0%" width="100%" height="100%">
  <feColorMatrix type="matrix" in="SourceGraphic" values="0 0 0 0 1 0 0 0 0 1 0 0 0 0 1 0 0 0 1 0"/>
</filter>
<mask id="mask0">
  <g filter="url(#alpha)">
<rect x="0" y="0" width="24" height="24" style="fill:rgb(0%,0%,0%);fill-opacity:0.301961;stroke:none;"/>
  </g>
</mask>
<clipPath id="clip1">
  <rect width="24" height="24"/>
</clipPath>
<g id="surface6" clip-path="url(#clip1)">
<path style=" stroke:none;fill-rule:nonzero;fill:rgb(0%,0%,0%);fill-opacity:0.4;" d="M 12 4.117188 C 8.320312 4.117188 4.890625 5.394531 2 7.605469 L 2.195312 7.929688 L 4.066406 10.597656 C 6.398438 8.914062 9.238281 7.925781 12.023438 7.929688 C 14.8125 7.929688 17.628906 8.917969 19.957031 10.597656 L 21.804688 7.929688 L 22 7.605469 C 19.109375 5.394531 15.679688 4.117188 12 4.117188 Z M 12 4.117188 "/>
<path style=" stroke:none;fill-rule:nonzero;fill:rgb(0%,0%,0%);fill-opacity:0.4;" d="M 12.023438 9.160156 C 9.363281 9.160156 6.871094 10.03125 4.726562 11.535156 L 6.5 14.085938 C 8.148438 13.027344 10.039062 12.414062 12.023438 12.414062 C 14.011719 12.414062 15.882812 13.027344 17.523438 14.085938 L 19.300781 11.535156 C 17.160156 10.03125 14.6875 9.160156 12.023438 9.160156 Z M 12.023438 9.160156 "/>
<path style=" stroke:none;fill-rule:nonzero;fill:rgb(0%,0%,0%);fill-opacity:0.4;" d="M 12.023438 13.644531 C 10.277344 13.644531 8.617188 14.164062 7.15625 15.050781 L 8.984375 17.660156 C 9.917969 17.199219 10.933594 16.929688 12 16.929688 C 13.074219 16.929688 14.105469 17.195312 15.042969 17.660156 L 16.839844 15.050781 C 15.390625 14.171875 13.761719 13.644531 12.023438 13.644531 Z M 12.023438 13.644531 "/>
<path style=" stroke:none;fill-rule:nonzero;fill:rgb(0%,0%,0%);fill-opacity:0.4;" d="M 12 18.1875 C 11.1875 18.1875 10.414062 18.382812 9.6875 18.6875 L 12 22 L 14.3125 18.65625 C 13.589844 18.355469 12.808594 18.1875 12 18.1875 Z M 12 18.1875 "/>
</g>
</defs>
<g id="surface1">
<use xlink:href="#surface6" mask="url(#mask0)"/>
<path style=" stroke:none;fill-rule:nonzero;fill:#4D4D4D;fill-opacity:0.4;" d="M 12 3 C 8.320312 3 4.890625 4.277344 2 6.488281 L 2.195312 6.8125 L 4.066406 9.480469 C 6.398438 7.796875 9.238281 6.808594 12.023438 6.8125 C 14.8125 6.8125 17.628906 7.800781 19.957031 9.480469 L 21.804688 6.8125 L 22 6.488281 C 19.109375 4.277344 15.679688 3 12 3 Z M 12 3 "/>
<path style=" stroke:none;fill-rule:nonzero;fill:#4D4D4D;fill-opacity:0.4;" d="M 12.023438 8.042969 C 9.363281 8.042969 6.871094 8.914062 4.726562 10.417969 L 6.5 12.96875 C 8.148438 11.910156 10.039062 11.296875 12.023438 11.296875 C 14.011719 11.296875 15.882812 11.910156 17.523438 12.96875 L 19.300781 10.417969 C 17.160156 8.914062 14.6875 8.042969 12.023438 8.042969 Z M 12.023438 8.042969 "/>
<path style=" stroke:none;fill-rule:nonzero;fill:#4D4D4D;fill-opacity:0.4;" d="M 12.023438 12.527344 C 10.277344 12.527344 8.617188 13.046875 7.15625 13.933594 L 8.984375 16.542969 C 9.917969 16.082031 10.933594 15.8125 12 15.8125 C 13.074219 15.8125 14.105469 16.074219 15.042969 16.542969 L 16.839844 13.933594 C 15.390625 13.054688 13.761719 12.527344 12.023438 12.527344 Z M 12.023438 12.527344 "/>
<path style=" stroke:none;fill-rule:nonzero;fill:#4D4D4D;fill-opacity:0.4;" d="M 12 17.070312 C 11.1875 17.070312 10.414062 17.265625 9.6875 17.570312 L 12 20.882812 L 14.3125 17.539062 C 13.589844 17.238281 12.808594 17.070312 12 17.070312 Z M 12 17.070312 "/>
</g>
</svg>
