
<svg xmlns="http://www.w3.org/2000/svg" xmlns:xlink="http://www.w3.org/1999/xlink" width="24px" height="24px" viewBox="0 0 24 24" version="1.1">
<g id="surface1">
<path style=" stroke:none;fill-rule:nonzero;fill:rgb(0%,0%,0%);fill-opacity:0.290196;" d="M 20 6.957031 C 20.804688 6.957031 21.488281 7.21875 22.058594 7.746094 C 22.625 8.269531 22.910156 8.902344 22.910156 9.644531 L 22.910156 19.042969 C 22.910156 19.78125 22.625 20.414062 22.058594 20.941406 C 21.488281 21.464844 20.804688 21.726562 20 21.726562 L 4 21.726562 C 3.195312 21.726562 2.511719 21.464844 1.941406 20.941406 C 1.375 20.414062 1.089844 19.78125 1.089844 19.042969 L 1.089844 9.644531 C 1.089844 8.902344 1.375 8.269531 1.941406 7.746094 C 2.511719 7.21875 3.195312 6.957031 4 6.957031 L 6.546875 6.957031 L 7.125 5.53125 C 7.269531 5.1875 7.53125 4.894531 7.914062 4.644531 C 8.296875 4.398438 8.6875 4.273438 9.089844 4.273438 L 14.910156 4.273438 C 15.3125 4.273438 15.703125 4.398438 16.085938 4.644531 C 16.46875 4.894531 16.730469 5.1875 16.875 5.53125 L 17.453125 6.957031 Z M 12 19.042969 C 13.402344 19.042969 14.601562 18.582031 15.597656 17.664062 C 16.59375 16.742188 17.089844 15.636719 17.089844 14.34375 C 17.089844 13.050781 16.59375 11.941406 15.597656 11.023438 C 14.601562 10.101562 13.402344 9.644531 12 9.644531 C 10.597656 9.644531 9.398438 10.101562 8.402344 11.023438 C 7.40625 11.941406 6.910156 13.050781 6.910156 14.34375 C 6.910156 15.636719 7.40625 16.742188 8.402344 17.664062 C 9.398438 18.582031 10.597656 19.042969 12 19.042969 Z M 12 19.042969 "/>
<path style=" stroke:none;fill-rule:evenodd;fill:rgb(0%,0%,0%);fill-opacity:0.290196;" d="M 9.714844 12 L 10.285156 12 C 10.679688 12 11 12.320312 11 12.714844 L 11 16.285156 C 11 16.679688 10.679688 17 10.285156 17 L 9.714844 17 C 9.320312 17 9 16.679688 9 16.285156 L 9 12.714844 C 9 12.320312 9.320312 12 9.714844 12 Z M 9.714844 12 "/>
<path style=" stroke:none;fill-rule:evenodd;fill:rgb(0%,0%,0%);fill-opacity:0.290196;" d="M 13.714844 12 L 14.285156 12 C 14.679688 12 15 12.320312 15 12.714844 L 15 16.285156 C 15 16.679688 14.679688 17 14.285156 17 L 13.714844 17 C 13.320312 17 13 16.679688 13 16.285156 L 13 12.714844 C 13 12.320312 13.320312 12 13.714844 12 Z M 13.714844 12 "/>
<path style=" stroke:none;fill-rule:nonzero;fill:#4D4D4D;fill-opacity:1;" d="M 20 5.957031 C 20.804688 5.957031 21.488281 6.21875 22.058594 6.746094 C 22.625 7.269531 22.910156 7.902344 22.910156 8.644531 L 22.910156 18.042969 C 22.910156 18.78125 22.625 19.414062 22.058594 19.941406 C 21.488281 20.464844 20.804688 20.726562 20 20.726562 L 4 20.726562 C 3.195312 20.726562 2.511719 20.464844 1.941406 19.941406 C 1.375 19.414062 1.089844 18.78125 1.089844 18.042969 L 1.089844 8.644531 C 1.089844 7.902344 1.375 7.269531 1.941406 6.746094 C 2.511719 6.21875 3.195312 5.957031 4 5.957031 L 6.546875 5.957031 L 7.125 4.53125 C 7.269531 4.1875 7.53125 3.894531 7.914062 3.644531 C 8.296875 3.398438 8.6875 3.273438 9.089844 3.273438 L 14.910156 3.273438 C 15.3125 3.273438 15.703125 3.398438 16.085938 3.644531 C 16.46875 3.894531 16.730469 4.1875 16.875 4.53125 L 17.453125 5.957031 Z M 12 18.042969 C 13.402344 18.042969 14.601562 17.582031 15.597656 16.664062 C 16.59375 15.742188 17.089844 14.636719 17.089844 13.34375 C 17.089844 12.050781 16.59375 10.941406 15.597656 10.023438 C 14.601562 9.101562 13.402344 8.644531 12 8.644531 C 10.597656 8.644531 9.398438 9.101562 8.402344 10.023438 C 7.40625 10.941406 6.910156 12.050781 6.910156 13.34375 C 6.910156 14.636719 7.40625 15.742188 8.402344 16.664062 C 9.398438 17.582031 10.597656 18.042969 12 18.042969 Z M 12 18.042969 "/>
<path style=" stroke:none;fill-rule:evenodd;fill:#4D4D4D;fill-opacity:1;" d="M 9.714844 11 L 10.285156 11 C 10.679688 11 11 11.320312 11 11.714844 L 11 15.285156 C 11 15.679688 10.679688 16 10.285156 16 L 9.714844 16 C 9.320312 16 9 15.679688 9 15.285156 L 9 11.714844 C 9 11.320312 9.320312 11 9.714844 11 Z M 9.714844 11 "/>
<path style=" stroke:none;fill-rule:evenodd;fill:#4D4D4D;fill-opacity:1;" d="M 13.714844 11 L 14.285156 11 C 14.679688 11 15 11.320312 15 11.714844 L 15 15.285156 C 15 15.679688 14.679688 16 14.285156 16 L 13.714844 16 C 13.320312 16 13 15.679688 13 15.285156 L 13 11.714844 C 13 11.320312 13.320312 11 13.714844 11 Z M 13.714844 11 "/>
</g>
</svg>
