<?xml version="1.0" encoding="UTF-8" standalone="no"?>
<!-- Created with Inkscape (http://www.inkscape.org/) -->

<svg
   xmlns:dc="http://purl.org/dc/elements/1.1/"
   xmlns:cc="http://creativecommons.org/ns#"
   xmlns:rdf="http://www.w3.org/1999/02/22-rdf-syntax-ns#"
   xmlns:svg="http://www.w3.org/2000/svg"
   xmlns="http://www.w3.org/2000/svg"
   xmlns:sodipodi="http://sodipodi.sourceforge.net/DTD/sodipodi-0.dtd"
   xmlns:inkscape="http://www.inkscape.org/namespaces/inkscape"
   id="svg2"
   version="1.1"
   inkscape:version="0.91 r"
   width="512"
   height="512"
   sodipodi:docname="applications-system.svg"
   viewBox="0 0 512 512">
  <metadata
     id="metadata8">
    <rdf:RDF>
      <cc:Work
         rdf:about="">
        <dc:format>image/svg+xml</dc:format>
        <dc:type
           rdf:resource="http://purl.org/dc/dcmitype/StillImage" />
        <dc:title />
      </cc:Work>
    </rdf:RDF>
  </metadata>
  <defs
     id="defs6" />
  <sodipodi:namedview
     pagecolor="#ffffff"
     bordercolor="#666666"
     borderopacity="1"
     objecttolerance="10"
     gridtolerance="10"
     guidetolerance="10"
     inkscape:pageopacity="0"
     inkscape:pageshadow="2"
     inkscape:window-width="1366"
     inkscape:window-height="711"
     id="namedview4"
     showgrid="false"
     inkscape:zoom="0.46093751"
     inkscape:cx="-616.56768"
     inkscape:cy="257.43616"
     inkscape:window-x="0"
     inkscape:window-y="0"
     inkscape:window-maximized="1"
     inkscape:current-layer="svg2"
     inkscape:document-units="px" />
  <g
     id="g4143"
     transform="translate(266.84746,19.525419)">
    <rect
       ry="56.383564"
       rx="56.383564"
       y="5.5704675"
       x="-241.75157"
       height="461.80823"
       width="461.80823"
       id="rect4136"
       style="opacity:1;fill:#ffffff;fill-opacity:1;stroke:#9b9da6;stroke-width:28.191782;stroke-miterlimit:4;stroke-dasharray:none;stroke-opacity:1" />
    <ellipse
       id="path3012"
       style="fill:#ffffff;fill-opacity:1;fill-rule:nonzero;stroke:#4169e1;stroke-width:0;stroke-linecap:round;stroke-linejoin:miter;stroke-miterlimit:4;stroke-dasharray:none;stroke-opacity:1"
       cx="-10.287602"
       cy="238.81355"
       rx="159.9825"
       ry="156.20338" />
    <path
       style="fill:#869094"
       d="m -38.702432,438.49615 c -3.53998,-1.58009 -7.30529,-5.62355 -8.98545,-9.6492 -0.86594,-2.07475 -1.73011,-10.04998 -2.47,-22.79488 -0.62591,-10.78199 -1.45013,-20.4634 -1.83159,-21.51426 -0.50595,-1.39389 -2.9795,-2.70891 -9.1455,-4.86206 -4.64859,-1.62328 -11.64898,-4.55884 -15.55642,-6.52347 -3.90745,-1.96461 -7.95573,-3.57204 -8.9962,-3.57204 -1.16697,0 -7.55007,5.19066 -16.660508,13.54811 -8.1228,7.45146 -16.08187,14.22154 -17.6868,15.04462 -3.3036,1.69425 -10.73639,1.96999 -14.57465,0.54069 -3.0519,-1.13645 -35.33671,-32.95145 -37.40671,-36.86234 -2.0531,-3.87896 -1.83353,-11.13495 0.46998,-15.5308 1.04858,-2.00104 7.87727,-10.11064 15.17488,-18.02135 7.85559,-8.51555 13.26838,-15.12618 13.26838,-16.2046 0,-1.00182 -1.60742,-5.0185 -3.57204,-8.92595 -1.96463,-3.90744 -4.89383,-10.88967 -6.50936,-15.51606 -1.61553,-4.62639 -3.5983,-8.75423 -4.40617,-9.17297 -0.80787,-0.41874 -10.29047,-1.24767 -21.07245,-1.84205 -12.53943,-0.69126 -20.97912,-1.57319 -23.42076,-2.44742 -4.65304,-1.66602 -10.01377,-7.37133 -10.77115,-11.4635 -0.30719,-1.65975 -0.43296,-13.95625 -0.27947,-27.32554 l 0.27905,-24.30781 2.79396,-3.50195 c 4.93749,-6.18867 7.25842,-6.81032 30.84151,-8.26086 13.34803,-0.82102 21.4623,-1.69038 22.1363,-2.37169 0.58523,-0.59156 2.58545,-5.17864 4.44493,-10.19352 1.85947,-5.01487 4.76569,-11.87729 6.45826,-15.24981 1.69257,-3.37252 3.07739,-6.8731 3.07739,-7.77907 0,-0.90597 -5.58307,-7.77125 -12.40682,-15.25616 -6.82375,-7.48491 -13.35085,-14.85749 -14.50467,-16.38351 -3.24521,-4.292 -4.34261,-9.60684 -3.0587,-14.8136 0.96944,-3.93144 2.74519,-6.06269 17.57583,-21.094433 9.07359,-9.196625 18.01975,-17.505365 19.88035,-18.463854 4.31766,-2.224251 11.18302,-2.255043 15.47005,-0.06939 1.80517,0.92033 9.72479,7.587839 17.59914,14.816674 7.874358,7.22884 14.850548,13.446333 15.502668,13.816653 0.68722,0.39026 4.92888,-1.09989 10.09018,-3.54483 4.89749,-2.31995 12.22537,-5.337333 16.28419,-6.705283 5.50334,-1.85479 7.63868,-3.03995 8.39851,-4.661325 0.56038,-1.19579 1.52143,-10.995803 2.13566,-21.777784 1.1813,-20.735636 1.89111,-24.013417 6.16687,-28.477415 4.75618,-4.965565 7.49152,-5.372922 34.0758798,-5.074722 L 14.319868,36.319 l 3.78804,2.508454 c 6.51732,4.315807 7.30623,6.999058 8.84112,30.070566 0.74296,11.167808 1.55371,21.174932 1.80167,22.238032 0.34896,1.496155 2.34475,2.594255 8.83299,4.859935 4.61019,1.60987 11.99312,4.740553 16.4065,6.957093 4.41338,2.21654 8.37796,4.03006 8.81016,4.03006 0.43221,0 7.51822,-6.1795 15.7467,-13.732213 8.22847,-7.552715 16.48316,-14.527956 18.34376,-15.500522 4.398212,-2.299019 10.944722,-2.278075 15.754722,0.05042 2.28381,1.105569 10.04243,8.166717 19.78671,18.007952 16.72661,16.893033 18.0448,18.825753 18.05779,26.476243 0.009,5.41103 -2.39969,8.96065 -16.77977,24.72576 -7.8189,8.57198 -14.21618,15.94889 -14.21618,16.39312 0,0.44423 2.04079,5.06165 4.53511,10.26094 2.49431,5.19928 5.46905,12.48077 6.61052,16.18108 1.41806,4.59692 2.65299,6.97317 3.89899,7.50241 1.00298,0.42602 11.08418,1.35295 22.40267,2.05985 22.46174,1.40283 26.07984,2.32704 29.84584,7.62389 3.56017,5.00733 3.97424,8.76013 3.66593,33.2251 l -0.29492,23.40267 -2.748,3.90746 c -4.90695,6.97732 -6.14623,7.33479 -31.06526,8.96087 -12.176,0.79454 -22.35174,1.65819 -22.61278,1.91924 -0.26105,0.26105 -1.77264,4.15268 -3.35909,8.64807 -1.58645,4.4954 -4.70612,11.80101 -6.93259,16.23471 -2.22649,4.4337 -3.92268,8.60818 -3.76934,9.27664 0.15335,0.66846 6.22828,7.70161 13.49985,15.62921 7.27157,7.92761 14.14423,16.23448 15.27257,18.4597 2.39674,4.72663 2.61904,9.73152 0.64238,14.46234 -1.74439,4.17491 -31.35344,34.27115 -36.16608,36.76115 -4.02404,2.08199 -11.35416,2.30569 -15.566132,0.47505 -1.61373,-0.70137 -9.70413,-7.46957 -17.97868,-15.04043 -8.27454,-7.57088 -15.70272,-13.76711 -16.50708,-13.76941 -0.80435,-0.002 -5.46542,1.86642 -10.35793,4.1527 -4.89253,2.28629 -12.14212,5.22653 -16.11022,6.53388 -5.48456,1.80696 -7.32087,2.83268 -7.65734,4.27722 -0.24344,1.04513 -1.05051,11.03753 -1.79347,22.20535 -1.63413,24.56319 -2.57296,27.22597 -11.1264,31.55726 -2.48022,1.25594 -6.5845502,1.4723 -27.35387,1.44197 -18.38164,-0.0268 -25.11352,-0.3382 -27.17119,-1.25666 z M -2.6865222,329.43362 c 22.0431402,-2.31021 40.4600302,-11.10153 56.1394502,-26.79821 11.95038,-11.96353 19.66136,-25.38728 24.30442,-42.31066 2.91078,-10.60941 2.89362,-34.0366 -0.0328,-44.77551 -8.88085,-32.58948 -32.21005,-56.58399 -64.45464,-66.29273 -7.5132902,-2.26223 -9.5534002,-2.47674 -24.16258,-2.54055 -13.99296,-0.0611 -16.91011,0.19064 -23.70668,2.04607 -33.93572,9.26425 -59.89016,36.53215 -66.982248,70.37197 -6.37183,30.40312 2.944828,61.43532 25.141498,83.74204 11.62199,11.67962 26.70162,20.24941 43.03861,24.45894 4.65855,1.20036 11.26954,2.12552 20.68523,2.89473 0.75224,0.0615 5.2656198,-0.29679 10.0297498,-0.79609 z M -25.297492,291.20701 c -23.24964,-6.30546 -39.52088,-26.09221 -40.96155,-49.81157 -1.00731,-16.58428 4.32967,-30.61584 16.10663,-42.34626 21.44766,-21.36291 55.6951698,-21.56313 76.87111,-0.4494 17.44165,17.3904 21.62664,42.12385 10.80098,63.83423 -9.22065,18.49162 -26.20715,29.40408 -47.0415002,30.22038 -7.0928298,0.2779 -10.6009098,-0.0439 -15.7756698,-1.44738 z M 0.7136478,268.21449 c 6.42158,-2.40262 14.0811602,-9.52208 17.3026002,-16.08248 2.27322,-4.62938 2.54767,-6.17044 2.54784,-14.30621 1.7e-4,-8.65476 -0.15856,-9.41073 -3.12466,-14.88135 -5.98737,-11.04298 -14.8711602,-16.63871 -27.4203002,-17.2715 -10.0808498,-0.50834 -16.1147298,1.62696 -23.3921498,8.27811 -9.22686,8.43283 -12.89816,20.15616 -9.93469,31.72375 2.56506,10.01237 7.99936,16.81079 17.14028,21.44285 8.52764,4.32128 17.3056598,4.67945 26.8810798,1.09683 z"
       id="path2986-8"
       inkscape:connector-curvature="0" />
  </g>
</svg>
