<?xml version="1.0" encoding="UTF-8" standalone="no"?>
<!-- Created with Inkscape (http://www.inkscape.org/) -->

<svg
   xmlns:dc="http://purl.org/dc/elements/1.1/"
   xmlns:cc="http://creativecommons.org/ns#"
   xmlns:rdf="http://www.w3.org/1999/02/22-rdf-syntax-ns#"
   xmlns:svg="http://www.w3.org/2000/svg"
   xmlns="http://www.w3.org/2000/svg"
   xmlns:sodipodi="http://sodipodi.sourceforge.net/DTD/sodipodi-0.dtd"
   xmlns:inkscape="http://www.inkscape.org/namespaces/inkscape"
   width="48px"
   height="48px"
   id="svg1306"
   sodipodi:version="0.32"
   inkscape:version="0.91 r"
   sodipodi:docname="applications-graphics-drawing.svg"
   version="1.1">
  <defs
     id="defs1308">
    <inkscape:perspective
       id="perspective9"
       inkscape:persp3d-origin="24 : 16 : 1"
       inkscape:vp_z="48 : 24 : 1"
       inkscape:vp_y="0 : 1000 : 0"
       inkscape:vp_x="0 : 24 : 1"
       sodipodi:type="inkscape:persp3d" />
  </defs>
  <sodipodi:namedview
     id="base"
     pagecolor="#ffffff"
     bordercolor="#666666"
     borderopacity="1.0"
     inkscape:pageopacity="0.0"
     inkscape:pageshadow="2"
     inkscape:zoom="5.6200257"
     inkscape:cx="14.136524"
     inkscape:cy="41.129664"
     inkscape:current-layer="layer1"
     showgrid="true"
     inkscape:grid-bbox="true"
     inkscape:document-units="px"
     inkscape:grid-points="true"
     inkscape:window-width="1280"
     inkscape:window-height="711"
     inkscape:window-x="15"
     inkscape:window-y="0"
     inkscape:window-maximized="0" />
  <metadata
     id="metadata1311">
    <rdf:RDF>
      <cc:Work
         rdf:about="">
        <dc:format>image/svg+xml</dc:format>
        <dc:type
           rdf:resource="http://purl.org/dc/dcmitype/StillImage" />
        <dc:title />
      </cc:Work>
    </rdf:RDF>
  </metadata>
  <g
     id="layer1"
     inkscape:label="Layer 1"
     inkscape:groupmode="layer">
    <rect
       style="opacity:1;fill:#ffffff;fill-opacity:1;stroke:#9b9da6;stroke-width:2.59840775;stroke-miterlimit:4;stroke-dasharray:none;stroke-opacity:1"
       id="rect4136"
       width="42.564396"
       height="42.564396"
       x="2.717802"
       y="2.717802"
       rx="5.1968155"
       ry="5.1968155" />
    <rect
       style="fill:none;fill-opacity:0.44534412;fill-rule:evenodd;stroke:none;stroke-width:1.0000000px;stroke-linecap:butt;stroke-linejoin:miter;stroke-opacity:1.0000000"
       id="rect2290"
       width="48.000000"
       height="48.000000"
       x="0.0000000"
       y="0.0000000"
       ry="0.0000000" />
    <path
       inkscape:connector-curvature="0"
       style="fill:#303030;fill-opacity:1;fill-rule:nonzero;stroke:none"
       d="M 28.555147,5.8729674 C 28.141039,5.9907107 27.774405,6.2615259 27.545556,6.6574008 L 15.203501,28.201919 c -0.117741,0.225474 -0.180194,0.471425 -0.183785,0.722633 l -0.418023,11.83964 c -0.01765,0.480848 0.183716,0.932284 0.549838,1.249295 0.366122,0.317014 0.855333,0.46797 1.345228,0.396013 0.281428,-0.04991 0.542803,-0.171318 0.76617,-0.347596 l 8.865654,-6.543032 c 0.172767,-0.137852 0.311734,-0.317005 0.417798,-0.508043 L 39.331932,12.972586 c 0.458216,-0.791471 0.174632,-1.788847 -0.631451,-2.220841 L 29.846427,6.0031939 C 29.443534,5.7869426 28.969253,5.7552242 28.555147,5.8729674 Z m -11.950112,23.3793346 3.589405,-0.609701 3.928791,2.105063 1.227769,2.873042 -5.643074,4.567128 -3.306198,-1.892833 0.203307,-7.042699 z"
       id="path16" />
    <g
       id="Layer_x0020_4"
       style="fill:#ffffff;fill-opacity:1;fill-rule:nonzero;stroke:none"
       transform="matrix(1.2202274,0,0,-1.1815771,-7.1864798,51.26503)">
      <path
         inkscape:connector-curvature="0"
         style="fill:#ffffff;fill-opacity:1;stroke:none"
         d="M 22.6,21.9 25,19.5"
         id="path22"
         sodipodi:nodetypes="cc" />
    </g>
    <path
       style="fill:#ffffff;fill-opacity:1;stroke:#ffffff;stroke-width:0.16793481;stroke-miterlimit:4;stroke-dasharray:none;stroke-dashoffset:0;stroke-opacity:1"
       d="m 17.964526,37.135911 -1.561832,-0.903984 0.05269,-0.445215 c 0.02898,-0.244868 0.08177,-1.806132 0.117305,-3.469477 l 0.06462,-3.024261 1.772796,-0.294257 1.772793,-0.294255 1.945122,1.039208 1.945121,1.039209 0.604513,1.410065 0.604512,1.410066 -2.751984,2.22754 c -1.513592,1.225147 -2.808647,2.223447 -2.8779,2.218443 -0.06926,-0.005 -0.828741,-0.41589 -1.687748,-0.913082 l 0,0 z"
       id="path3006"
       inkscape:connector-curvature="0" />
  </g>
</svg>
