<?xml version="1.0" encoding="UTF-8" standalone="no"?>
<!-- Created with Inkscape (http://www.inkscape.org/) -->

<svg
   xmlns:dc="http://purl.org/dc/elements/1.1/"
   xmlns:cc="http://creativecommons.org/ns#"
   xmlns:rdf="http://www.w3.org/1999/02/22-rdf-syntax-ns#"
   xmlns:svg="http://www.w3.org/2000/svg"
   xmlns="http://www.w3.org/2000/svg"
   xmlns:sodipodi="http://sodipodi.sourceforge.net/DTD/sodipodi-0.dtd"
   xmlns:inkscape="http://www.inkscape.org/namespaces/inkscape"
   width="128"
   height="128"
   id="svg2"
   version="1.1"
   inkscape:version="0.91 r"
   sodipodi:docname="applications-internet-chat.svg">
  <defs
     id="defs4">
    <linearGradient
       id="linearGradient4115">
      <stop
         id="stop4117"
         offset="0"
         style="stop-color:#dcbff9;stop-opacity:1" />
      <stop
         id="stop4119"
         offset="1"
         style="stop-color:#fdf7fd;stop-opacity:1" />
    </linearGradient>
    <linearGradient
       id="linearGradient857">
      <stop
         style="stop-color:#933aeb;stop-opacity:1"
         offset="0"
         id="stop859" />
      <stop
         style="stop-color:#df55e1;stop-opacity:1"
         offset="1"
         id="stop861" />
    </linearGradient>
  </defs>
  <sodipodi:namedview
     id="base"
     pagecolor="#ffffff"
     bordercolor="#666666"
     borderopacity="1.0"
     inkscape:pageopacity="0.0"
     inkscape:pageshadow="2"
     inkscape:zoom="1.4142136"
     inkscape:cx="120.64561"
     inkscape:cy="67.840789"
     inkscape:document-units="px"
     inkscape:current-layer="layer1"
     showgrid="false"
     inkscape:window-width="976"
     inkscape:window-height="638"
     inkscape:window-x="388"
     inkscape:window-y="73"
     inkscape:window-maximized="0"
     showguides="false">
    <inkscape:grid
       type="xygrid"
       id="grid3850"
       empspacing="5"
       visible="true"
       enabled="true"
       snapvisiblegridlinesonly="true" />
    <sodipodi:guide
       position="4,44.000017"
       orientation="40,0"
       id="guide4082" />
    <sodipodi:guide
       position="4,4.0000174"
       orientation="0,40"
       id="guide4084" />
    <sodipodi:guide
       position="44,4.0000174"
       orientation="-40,0"
       id="guide4086" />
    <sodipodi:guide
       position="44,44.000017"
       orientation="0,-40"
       id="guide4088" />
    <sodipodi:guide
       position="9,39.000017"
       orientation="30,0"
       id="guide4094" />
    <sodipodi:guide
       position="9,9.0000174"
       orientation="0,30"
       id="guide4096" />
    <sodipodi:guide
       position="39,9.0000174"
       orientation="-30,0"
       id="guide4098" />
    <sodipodi:guide
       position="39,39.000017"
       orientation="0,-30"
       id="guide4100" />
    <sodipodi:guide
       position="15,33.000017"
       orientation="18,0"
       id="guide4102" />
    <sodipodi:guide
       position="15,15.000017"
       orientation="0,18"
       id="guide4104" />
    <sodipodi:guide
       position="33,15.000017"
       orientation="-18,0"
       id="guide4106" />
    <sodipodi:guide
       position="33,33.000017"
       orientation="0,-18"
       id="guide4108" />
    <sodipodi:guide
       position="9,36.750017"
       orientation="14.5,0"
       id="guide4118" />
    <sodipodi:guide
       position="9,22.250017"
       orientation="0,30"
       id="guide4120" />
    <sodipodi:guide
       position="39,22.250017"
       orientation="-14.5,0"
       id="guide4122" />
    <sodipodi:guide
       position="39,36.750017"
       orientation="0,-30"
       id="guide4124" />
  </sodipodi:namedview>
  <metadata
     id="metadata7">
    <rdf:RDF>
      <cc:Work
         rdf:about="">
        <dc:format>image/svg+xml</dc:format>
        <dc:type
           rdf:resource="http://purl.org/dc/dcmitype/StillImage" />
        <dc:title />
      </cc:Work>
    </rdf:RDF>
  </metadata>
  <g
     inkscape:label="Capa 1"
     inkscape:groupmode="layer"
     id="layer1"
     transform="translate(0,-924.3622)">
    <g
       id="g4177"
       transform="translate(1.0674963,-2.4817789)">
      <rect
         ry="13.630671"
         rx="13.630671"
         y="935.02313"
         x="7.1116571"
         height="111.64169"
         width="111.64169"
         id="rect4136"
         style="opacity:1;fill:#ffffff;fill-opacity:1;stroke:#9b59b6;stroke-width:6.81533527;stroke-miterlimit:4;stroke-dasharray:none;stroke-opacity:1" />
      <path
         style="fill:#9b59b6;fill-opacity:1"
         id="path3013"
         d="m 84.794949,980.11236 c 0,-13.2904 -14.701697,-24.0798 -32.85513,-24.0798 -18.172151,0 -32.877592,10.7894 -32.877592,24.0798 0,8.1838 5.60439,15.3755 14.117673,19.7332 l -8.16137,15.51414 17.700439,-12.2383 c 2.942585,0.6327 6.004971,1.082 9.22085,1.082 18.157177,0 32.85513,-10.78584 32.85513,-24.09104 z m -43.180386,2.6131 -6.940908,0 0,-6.9447 6.940908,0 0,6.9447 z m 21.062325,-6.9447 6.940908,0 0,6.9447 -6.940908,0 0,-6.9447 z m -14.001616,0 6.937164,0 0,6.9447 -6.937164,0 0,-6.9447 z"
         inkscape:connector-curvature="0" />
      <path
         style="fill:#441650"
         id="path3015"
         d="m 106.30278,995.26326 c 0,-8.7342 -6.727516,-16.3115 -16.592289,-20.1226 0.486689,1.7932 0.748751,3.6538 0.748751,5.5706 0,15.7537 -17.408429,28.53494 -38.920004,28.53494 -0.265806,0 -0.512893,-0.056 -0.774956,-0.056 5.671778,5.3573 14.525742,8.8165 24.495342,8.8165 3.039923,0 5.926352,-0.4231 8.704213,-1.0146 l 16.727063,11.5495 -7.715859,-14.6418 c 8.041559,-4.1219 13.327739,-10.913 13.327739,-18.63644 z"
         inkscape:connector-curvature="0" />
      <path
         inkscape:connector-curvature="0"
         id="path3007"
         d="m 34.689549,979.33606 0,-3.377 3.37702,0 3.377019,0 0,3.377 0,3.3771 -3.377019,0 -3.37702,0 0,-3.3771 z"
         style="fill:#ffffff;fill-opacity:1;fill-rule:nonzero;stroke:none" />
      <path
         inkscape:connector-curvature="0"
         id="path3009"
         d="m 48.697926,979.33606 0,-3.377 3.377019,0 3.377019,0 0,3.377 0,3.3771 -3.377019,0 -3.377019,0 0,-3.3771 z"
         style="fill:#ffffff;fill-opacity:1;fill-rule:nonzero;stroke:none" />
      <path
         inkscape:connector-curvature="0"
         id="path3011"
         d="m 62.706302,979.33606 0,-3.377 3.37702,0 3.377019,0 0,3.377 0,3.3771 -3.377019,0 -3.37702,0 0,-3.3771 z"
         style="fill:#ffffff;fill-opacity:1;fill-rule:nonzero;stroke:none" />
    </g>
  </g>
</svg>
