<?xml version="1.0" encoding="UTF-8"?>
<svg xmlns="http://www.w3.org/2000/svg" xmlns:xlink="http://www.w3.org/1999/xlink" width="22pt" height="22pt" viewBox="0 0 22 22" version="1.1">
<g id="surface1">
<path style="fill-rule:nonzero;fill:rgb(100%,100%,100%);fill-opacity:1;stroke-width:7.717832;stroke-linecap:butt;stroke-linejoin:miter;stroke:rgb(56.470588%,56.470588%,56.470588%);stroke-opacity:1;stroke-miterlimit:4;" d="M -13.642797 275.924942 L 81.902261 275.924942 C 90.420242 275.924942 97.347515 282.852215 97.347515 291.370196 L 97.347515 386.915254 C 97.347515 395.433235 90.420242 402.360508 81.902261 402.360508 L -13.642797 402.360508 C -22.160778 402.360508 -29.088051 395.433235 -29.088051 386.915254 L -29.088051 291.370196 C -29.088051 282.852215 -22.160778 275.924942 -13.642797 275.924942 Z M -13.642797 275.924942 " transform="matrix(0.152251,0,0,0.152251,5.803698,-40.634976)"/>
<path style=" stroke:none;fill-rule:nonzero;fill:rgb(90.196078%,90.196078%,90.196078%);fill-opacity:1;" d="M 11 4.90625 C 8.722656 4.90625 6.886719 6.742188 6.886719 9.019531 L 6.886719 17.09375 L 7.800781 17.09375 L 7.800781 9.019531 C 7.800781 7.246094 9.226562 5.820312 11 5.820312 C 12.773438 5.820312 14.199219 7.246094 14.199219 9.019531 L 14.199219 17.09375 L 15.113281 17.09375 L 15.113281 9.019531 C 15.113281 6.742188 13.277344 4.90625 11 4.90625 Z M 11 4.90625 "/>
<path style=" stroke:none;fill-rule:nonzero;fill:rgb(97.647059%,87.058824%,41.176471%);fill-opacity:1;" d="M 5.820312 17.09375 L 16.179688 17.09375 L 16.179688 11 L 5.820312 11 Z M 5.820312 17.09375 "/>
<path style=" stroke:none;fill-rule:nonzero;fill:rgb(13.333333%,21.176471%,33.72549%);fill-opacity:1;" d="M 11 12.21875 C 10.578125 12.21875 10.238281 12.558594 10.238281 12.980469 C 10.238281 13.28125 10.417969 13.558594 10.695312 13.679688 L 10.695312 15.875 L 11.304688 15.875 L 11.304688 13.679688 C 11.582031 13.558594 11.761719 13.28125 11.761719 12.980469 C 11.761719 12.558594 11.421875 12.21875 11 12.21875 Z M 11 12.21875 "/>
</g>
</svg>
