
<svg xmlns="http://www.w3.org/2000/svg" xmlns:xlink="http://www.w3.org/1999/xlink" width="256px" height="256px" viewBox="0 0 256 256" version="1.1">
<g id="surface1">
<path style=" stroke:none;fill-rule:nonzero;fill:rgb(20%,20%,20%);fill-opacity:1;" d="M 68.625 13.824219 C 51.335938 13.824219 37.417969 27.742188 37.417969 45.03125 L 37.417969 210.96875 C 37.417969 228.257812 51.335938 242.175781 68.625 242.175781 L 187.375 242.175781 C 204.664062 242.175781 218.582031 228.257812 218.582031 210.96875 L 218.582031 50.832031 L 132.480469 13.824219 Z M 190.574219 13.980469 C 192.675781 14.191406 194.71875 14.613281 196.675781 15.21875 C 194.71875 14.613281 192.675781 14.191406 190.574219 13.980469 Z M 196.675781 15.21875 C 199.613281 16.128906 202.355469 17.457031 204.84375 19.136719 C 202.355469 17.457031 199.613281 16.128906 196.675781 15.21875 Z M 207.25 20.925781 C 208.019531 21.5625 208.753906 22.242188 209.457031 22.949219 C 208.75 22.242188 208.023438 21.5625 207.25 20.925781 Z M 207.25 20.925781 "/>
<path style=" stroke:none;fill-rule:nonzero;fill:rgb(100%,100%,100%);fill-opacity:0.682353;" d="M 218.582031 50.832031 L 132.480469 13.824219 L 132.480469 19.625 C 132.480469 36.914062 146.398438 50.832031 163.6875 50.832031 Z M 218.582031 50.832031 "/>
<path style=" stroke:none;fill-rule:nonzero;fill:rgb(100%,100%,100%);fill-opacity:1;" d="M 90.898438 145.933594 C 90.898438 141.464844 91.820312 137.070312 93.660156 132.742188 C 95.503906 128.34375 98.144531 124.425781 101.585938 120.992188 C 105.109375 117.558594 109.390625 114.773438 114.433594 112.644531 C 119.476562 110.515625 125.238281 109.449219 131.722656 109.449219 C 139.328125 109.449219 145.890625 110.925781 151.414062 113.882812 C 157.015625 116.835938 161.140625 120.683594 163.78125 125.425781 L 151.054688 132.949219 C 150.085938 130.886719 148.847656 129.167969 147.328125 127.796875 C 145.808594 126.351562 144.128906 125.214844 142.28125 124.394531 C 140.523438 123.566406 138.683594 122.984375 136.761719 122.640625 C 134.839844 122.226562 133 122.023438 131.238281 122.023438 C 127.316406 122.023438 123.871094 122.746094 120.910156 124.1875 C 117.949219 125.632812 115.46875 127.519531 113.464844 129.855469 C 111.546875 132.125 110.066406 134.734375 109.023438 137.6875 C 108.0625 140.574219 107.582031 143.460938 107.582031 146.347656 C 107.582031 149.574219 108.144531 152.703125 109.265625 155.726562 C 110.464844 158.679688 112.105469 161.289062 114.1875 163.558594 C 116.347656 165.824219 118.910156 167.644531 121.871094 169.019531 C 124.832031 170.394531 128.074219 171.082031 131.597656 171.082031 C 133.4375 171.082031 135.320312 170.875 137.238281 170.460938 C 139.160156 170.050781 141.003906 169.398438 142.761719 168.503906 C 144.605469 167.609375 146.285156 166.476562 147.804688 165.101562 C 149.328125 163.660156 150.566406 161.941406 151.527344 159.949219 L 165.097656 166.648438 C 163.816406 169.398438 161.933594 171.835938 159.453125 173.964844 C 157.050781 176.027344 154.289062 177.78125 151.167969 179.222656 C 148.046875 180.664062 144.765625 181.765625 141.320312 182.519531 C 137.878906 183.277344 134.476562 183.652344 131.117188 183.652344 C 125.191406 183.652344 119.75 182.554688 114.785156 180.355469 C 109.902344 178.15625 105.660156 175.304688 102.058594 171.800781 C 98.535156 168.230469 95.777344 164.210938 93.773438 159.742188 C 91.851562 155.210938 90.894531 150.605469 90.894531 145.933594 "/>
</g>
</svg>
