<?xml version="1.0" encoding="UTF-8"?>
<svg xmlns="http://www.w3.org/2000/svg" xmlns:xlink="http://www.w3.org/1999/xlink" width="128pt" height="128pt" viewBox="0 0 128 128" version="1.1">
<defs>
<clipPath id="clip1">
  <path d="M 66 62 L 125 62 L 125 122 L 66 122 Z M 66 62 "/>
</clipPath>
<clipPath id="clip2">
  <path d="M 94.425781 11.300781 C 65.320312 -5.503906 28.105469 4.46875 11.300781 33.574219 C -5.503906 62.679688 4.46875 99.894531 33.574219 116.699219 C 62.679688 133.503906 99.894531 123.53125 116.699219 94.425781 C 133.503906 65.320312 123.53125 28.105469 94.425781 11.300781 Z M 72.296875 49.628906 C 80.238281 54.210938 82.957031 64.359375 78.371094 72.296875 C 73.789062 80.238281 63.640625 82.957031 55.703125 78.371094 C 47.761719 73.789062 45.042969 63.640625 49.628906 55.703125 C 54.210938 47.761719 64.359375 45.042969 72.296875 49.628906 Z M 72.296875 49.628906 "/>
</clipPath>
<clipPath id="clip3">
  <path d="M 3 7 L 63 7 L 63 66 L 3 66 Z M 3 7 "/>
</clipPath>
<clipPath id="clip4">
  <path d="M 33.820312 117.273438 C 62.925781 134.074219 100.144531 124.101562 116.945312 95 C 133.75 65.894531 123.777344 28.675781 94.671875 11.875 C 65.570312 -4.929688 28.351562 5.042969 11.546875 34.148438 C -5.253906 63.25 4.71875 100.46875 33.820312 117.273438 Z M 55.949219 78.945312 C 48.011719 74.363281 45.292969 64.214844 49.875 56.273438 C 54.457031 48.335938 64.605469 45.617188 72.546875 50.199219 C 80.484375 54.785156 83.203125 64.933594 78.621094 72.871094 C 74.035156 80.808594 63.886719 83.527344 55.949219 78.945312 Z M 55.949219 78.945312 "/>
</clipPath>
</defs>
<g id="surface1">
<path style="fill-rule:nonzero;fill:rgb(50.196078%,50.196078%,50.196078%);fill-opacity:1;stroke-width:1.569832;stroke-linecap:butt;stroke-linejoin:miter;stroke:rgb(83.137255%,83.137255%,83.137255%);stroke-opacity:1;stroke-miterlimit:4;" d="M 255.999779 113.057803 C 186.638495 113.056664 130.414882 169.283008 130.413744 238.644292 C 130.412605 308.005577 186.638949 364.229189 256.000233 364.230328 C 325.361518 364.231467 381.58513 308.005123 381.586269 238.643839 C 381.587408 169.282554 325.361064 113.058942 255.999779 113.057803 Z M 255.999506 204.396905 C 274.921468 204.391647 290.252922 219.724554 290.247167 238.643565 C 290.252425 257.565527 274.919517 272.896981 256.000507 272.891226 C 237.078545 272.896484 221.747091 257.563577 221.752845 238.644566 C 221.747588 219.722604 237.080495 204.39115 255.999506 204.396905 Z M 255.999506 204.396905 " transform="matrix(0.419625,0.242271,-0.242271,0.419625,14.392413,-98.16238)"/>
<g clip-path="url(#clip1)" clip-rule="nonzero">
<g clip-path="url(#clip2)" clip-rule="nonzero">
<path style=" stroke:none;fill-rule:evenodd;fill:rgb(94.901961%,94.901961%,94.901961%);fill-opacity:1;" d="M 73.675781 62.683594 L 134.738281 72.996094 L 106.703125 121.558594 L 66.152344 69.171875 Z M 73.675781 62.683594 "/>
</g>
</g>
<g clip-path="url(#clip3)" clip-rule="nonzero">
<g clip-path="url(#clip4)" clip-rule="nonzero">
<path style=" stroke:none;fill-rule:evenodd;fill:rgb(94.901961%,94.901961%,94.901961%);fill-opacity:1;" d="M 54.570312 65.886719 L -6.492188 55.574219 L 21.546875 7.015625 L 62.09375 59.398438 Z M 54.570312 65.886719 "/>
</g>
</g>
<path style="fill-rule:nonzero;fill:rgb(100%,100%,100%);fill-opacity:1;stroke-width:2.780315;stroke-linecap:butt;stroke-linejoin:miter;stroke:rgb(90.588235%,90.588235%,90.588235%);stroke-opacity:1;stroke-miterlimit:4;" d="M 256.003235 185.022927 C 226.382828 185.023825 202.382001 209.027411 202.378868 238.640837 C 202.379766 268.261244 226.383352 292.26207 255.996778 292.265204 C 285.617185 292.264306 309.618011 268.26072 309.621145 238.647294 C 309.620247 209.026887 285.61666 185.026061 256.003235 185.022927 Z M 256.000287 210.186591 C 271.715458 210.189612 284.453521 222.933207 284.457481 238.644346 C 284.45446 254.359517 271.710865 267.09758 255.999725 267.10154 C 240.284555 267.098519 227.546492 254.354924 227.542531 238.643785 C 227.545553 222.928614 240.289147 210.190551 256.000287 210.186591 Z M 256.000287 210.186591 " transform="matrix(0.419625,0.242271,-0.242271,0.419625,14.392413,-98.16238)"/>
</g>
</svg>
