
<svg xmlns="http://www.w3.org/2000/svg" xmlns:xlink="http://www.w3.org/1999/xlink" width="48px" height="48px" viewBox="0 0 48 48" version="1.1">
<g id="surface1">
<path style="fill-rule:nonzero;fill:rgb(100%,100%,100%);fill-opacity:1;stroke-width:28.191782;stroke-linecap:butt;stroke-linejoin:miter;stroke:rgb(20%,20%,20%);stroke-opacity:1;stroke-miterlimit:4;" d="M 81.5 25.083333 L 430.5 25.083333 C 461.666667 25.083333 486.916667 50.333333 486.916667 81.5 L 486.916667 430.5 C 486.916667 461.666667 461.666667 486.916667 430.5 486.916667 L 81.5 486.916667 C 50.333333 486.916667 25.083333 461.666667 25.083333 430.5 L 25.083333 81.5 C 25.083333 50.333333 50.333333 25.083333 81.5 25.083333 Z M 81.5 25.083333 " transform="matrix(0.09375,0,0,0.09375,0,0)"/>
<path style=" stroke:none;fill-rule:nonzero;fill:rgb(20%,20%,20%);fill-opacity:1;" d="M 18.925781 18.257812 C 20.628906 17.292969 22.320312 16.304688 24.019531 15.328125 C 25.726562 16.304688 27.429688 17.292969 29.140625 18.265625 C 27.429688 19.242188 25.726562 20.222656 24.019531 21.203125 C 22.324219 20.21875 20.613281 19.25 18.925781 18.257812 Z M 11.523438 16.816406 C 11.527344 17.796875 11.523438 18.773438 11.523438 19.753906 C 15.695312 22.128906 19.851562 24.527344 24.019531 26.898438 C 26.53125 25.449219 29.042969 23.996094 31.550781 22.542969 C 31.558594 24.460938 31.539062 26.378906 31.5625 28.300781 C 29.066406 29.789062 26.527344 31.203125 24.019531 32.671875 C 21.507812 31.210938 18.984375 29.769531 16.464844 28.320312 C 14.800781 29.261719 13.140625 30.207031 11.480469 31.15625 C 15.644531 33.585938 19.84375 35.957031 24.019531 38.367188 C 28.183594 35.976562 32.359375 33.609375 36.519531 31.203125 C 36.511719 26.40625 36.511719 21.609375 36.519531 16.8125 C 32.359375 14.410156 28.1875 12.023438 24.019531 9.632812 C 19.855469 12.023438 15.6875 14.417969 11.523438 16.816406 Z M 11.523438 16.816406 "/>
</g>
</svg>
