
<svg xmlns="http://www.w3.org/2000/svg" xmlns:xlink="http://www.w3.org/1999/xlink" width="48px" height="48px" viewBox="0 0 48 48" version="1.1">
<g id="surface1">
<path style="fill-rule:nonzero;fill:rgb(100%,100%,100%);fill-opacity:1;stroke-width:28.191782;stroke-linecap:butt;stroke-linejoin:miter;stroke:rgb(72.941176%,9.019608%,30.588235%);stroke-opacity:1;stroke-miterlimit:4;" d="M 81.5 25.083333 L 430.5 25.083333 C 461.666667 25.083333 486.916667 50.333333 486.916667 81.5 L 486.916667 430.5 C 486.916667 461.666667 461.666667 486.916667 430.5 486.916667 L 81.5 486.916667 C 50.333333 486.916667 25.083333 461.666667 25.083333 430.5 L 25.083333 81.5 C 25.083333 50.333333 50.333333 25.083333 81.5 25.083333 Z M 81.5 25.083333 " transform="matrix(0.09375,0,0,0.09375,0,0)"/>
<path style=" stroke:none;fill-rule:evenodd;fill:rgb(72.941176%,9.019608%,30.588235%);fill-opacity:1;" d="M 11.097656 2.761719 C 10.476562 2.761719 9.972656 3.195312 9.972656 3.730469 L 9.972656 38.007812 C 9.972656 38.027344 9.976562 38.046875 9.976562 38.0625 L 14.390625 34.25 L 18.820312 38.0625 C 18.820312 38.046875 18.824219 38.027344 18.824219 38.007812 L 18.824219 3.730469 C 18.824219 3.195312 18.324219 2.761719 17.703125 2.761719 Z M 11.097656 2.761719 "/>
<path style=" stroke:none;fill-rule:nonzero;fill:rgb(72.941176%,9.019608%,30.588235%);fill-opacity:1;" d="M 36.867188 33.664062 L 34.570312 27.152344 L 26.734375 27.152344 L 24.40625 33.664062 L 21.703125 33.664062 L 29.421875 12.5625 L 31.867188 12.5625 L 39.601562 33.664062 Z M 33.722656 24.78125 L 31.59375 18.6875 C 31.535156 18.515625 31.464844 18.304688 31.382812 18.054688 C 31.304688 17.804688 31.21875 17.535156 31.132812 17.25 C 31.046875 16.960938 30.960938 16.664062 30.875 16.351562 C 30.789062 16.039062 30.707031 15.734375 30.632812 15.4375 C 30.5625 15.734375 30.488281 16.042969 30.398438 16.359375 C 30.3125 16.675781 30.226562 16.980469 30.140625 17.269531 C 30.054688 17.5625 29.972656 17.832031 29.890625 18.078125 C 29.808594 18.320312 29.738281 18.523438 29.683594 18.6875 L 27.597656 24.78125 Z M 33.722656 24.78125 "/>
</g>
</svg>
