<!-- color: #ef772a -->
<svg xmlns="http://www.w3.org/2000/svg" xmlns:xlink="http://www.w3.org/1999/xlink" width="48px" height="48px" viewBox="0 0 48 48" version="1.1">
<defs>
<clipPath id="clip1">
  <path d="M 15.65625 15.5625 L 24.84375 15.5625 L 24.84375 25.5 L 15.65625 25.5 Z M 15.65625 15.5625 "/>
</clipPath>
<clipPath id="clip2">
  <path d="M 46.898438 24.558594 C 46.898438 37.078125 36.75 47.21875 24.242188 47.21875 C 11.734375 47.21875 1.582031 37.078125 1.582031 24.558594 C 1.582031 12.039062 11.734375 1.902344 24.242188 1.902344 C 36.75 1.902344 46.898438 12.039062 46.898438 24.558594 Z M 46.898438 24.558594 "/>
</clipPath>
<clipPath id="clip3">
  <path d="M 30.1875 30.5625 L 37.125 30.5625 L 37.125 37.40625 L 30.1875 37.40625 Z M 30.1875 30.5625 "/>
</clipPath>
<clipPath id="clip4">
  <path d="M 46.898438 24.558594 C 46.898438 37.078125 36.75 47.21875 24.242188 47.21875 C 11.734375 47.21875 1.582031 37.078125 1.582031 24.558594 C 1.582031 12.039062 11.734375 1.902344 24.242188 1.902344 C 36.75 1.902344 46.898438 12.039062 46.898438 24.558594 Z M 46.898438 24.558594 "/>
</clipPath>
<clipPath id="clip5">
  <path d="M 25.78125 26.0625 L 31.96875 26.0625 L 31.96875 32.34375 L 25.78125 32.34375 Z M 25.78125 26.0625 "/>
</clipPath>
<clipPath id="clip6">
  <path d="M 46.898438 24.558594 C 46.898438 37.078125 36.75 47.21875 24.242188 47.21875 C 11.734375 47.21875 1.582031 37.078125 1.582031 24.558594 C 1.582031 12.039062 11.734375 1.902344 24.242188 1.902344 C 36.75 1.902344 46.898438 12.039062 46.898438 24.558594 Z M 46.898438 24.558594 "/>
</clipPath>
<clipPath id="clip7">
  <path d="M 11.4375 11.625 L 29.0625 11.625 L 29.0625 29.4375 L 11.4375 29.4375 Z M 11.4375 11.625 "/>
</clipPath>
<clipPath id="clip8">
  <path d="M 46.898438 24.558594 C 46.898438 37.078125 36.75 47.21875 24.242188 47.21875 C 11.734375 47.21875 1.582031 37.078125 1.582031 24.558594 C 1.582031 12.039062 11.734375 1.902344 24.242188 1.902344 C 36.75 1.902344 46.898438 12.039062 46.898438 24.558594 Z M 46.898438 24.558594 "/>
</clipPath>
</defs>
<g id="surface1">
<path style="fill-rule:nonzero;fill:rgb(93.333333%,43.921569%,11.372549%);fill-opacity:1;stroke-width:6.941165;stroke-linecap:butt;stroke-linejoin:miter;stroke:rgb(88.627451%,82.352941%,80.392157%);stroke-opacity:1;stroke-miterlimit:4;" d="M 21.03125 7.145833 L 106.96875 7.145833 C 114.635417 7.145833 120.854167 13.364583 120.854167 21.03125 L 120.854167 106.96875 C 120.854167 114.635417 114.635417 120.854167 106.96875 120.854167 L 21.03125 120.854167 C 13.364583 120.854167 7.145833 114.635417 7.145833 106.96875 L 7.145833 21.03125 C 7.145833 13.364583 13.364583 7.145833 21.03125 7.145833 Z M 21.03125 7.145833 " transform="matrix(0.375,0,0,0.375,0,0)"/>
<g clip-path="url(#clip1)" clip-rule="nonzero">
<g clip-path="url(#clip2)" clip-rule="nonzero">
<path style=" stroke:none;fill-rule:nonzero;fill:rgb(97.647059%,97.647059%,97.647059%);fill-opacity:1;" d="M 19.492188 15.644531 L 21 15.644531 L 24.757812 25.496094 L 23.371094 25.496094 L 22.480469 22.96875 L 18.046875 22.96875 L 17.121094 25.496094 L 15.734375 25.496094 M 20.234375 16.96875 L 18.445312 21.863281 L 22.046875 21.863281 M 20.230469 16.96875 "/>
</g>
</g>
<g clip-path="url(#clip3)" clip-rule="nonzero">
<g clip-path="url(#clip4)" clip-rule="nonzero">
<path style=" stroke:none;fill-rule:nonzero;fill:rgb(97.647059%,97.647059%,97.647059%);fill-opacity:1;" d="M 30.269531 32.707031 L 32.382812 30.59375 L 37.050781 35.257812 L 34.9375 37.371094 M 30.269531 32.707031 "/>
</g>
</g>
<g clip-path="url(#clip5)" clip-rule="nonzero">
<g clip-path="url(#clip6)" clip-rule="nonzero">
<path style=" stroke:none;fill-rule:nonzero;fill:rgb(97.647059%,97.647059%,97.647059%);fill-opacity:1;" d="M 25.792969 27.59375 L 27.273438 26.113281 L 31.9375 30.777344 L 30.457031 32.257812 M 25.792969 27.59375 "/>
</g>
</g>
<g clip-path="url(#clip7)" clip-rule="nonzero">
<g clip-path="url(#clip8)" clip-rule="nonzero">
<path style=" stroke:none;fill-rule:nonzero;fill:rgb(97.647059%,97.647059%,97.647059%);fill-opacity:1;" d="M 20.230469 11.71875 C 17.972656 11.71875 15.734375 12.617188 14.015625 14.335938 C 10.582031 17.765625 10.582031 23.332031 14.015625 26.773438 C 17.449219 30.203125 23.015625 30.203125 26.453125 26.773438 C 29.886719 23.335938 29.886719 17.769531 26.453125 14.335938 C 24.738281 12.617188 22.492188 11.71875 20.234375 11.71875 M 20.230469 13.246094 C 22.113281 13.246094 24.027344 13.878906 25.46875 15.320312 C 28.351562 18.203125 28.351562 22.910156 25.46875 25.792969 C 22.585938 28.675781 17.878906 28.675781 14.996094 25.792969 C 12.109375 22.910156 12.109375 18.203125 14.996094 15.320312 C 16.4375 13.875 18.347656 13.246094 20.230469 13.246094 M 20.230469 13.246094 "/>
</g>
</g>
</g>
</svg>
