
<svg xmlns="http://www.w3.org/2000/svg" xmlns:xlink="http://www.w3.org/1999/xlink" width="48px" height="48px" viewBox="0 0 48 48" version="1.1">
<g id="surface1">
<path style="fill-rule:nonzero;fill:rgb(100%,100%,100%);fill-opacity:1;stroke-width:28.191782;stroke-linecap:butt;stroke-linejoin:miter;stroke:rgb(82.745098%,34.901961%,30.196078%);stroke-opacity:1;stroke-miterlimit:4;" d="M 81.5 25.083333 L 430.5 25.083333 C 461.666667 25.083333 486.916667 50.333333 486.916667 81.5 L 486.916667 430.5 C 486.916667 461.666667 461.666667 486.916667 430.5 486.916667 L 81.5 486.916667 C 50.333333 486.916667 25.083333 461.666667 25.083333 430.5 L 25.083333 81.5 C 25.083333 50.333333 50.333333 25.083333 81.5 25.083333 Z M 81.5 25.083333 " transform="matrix(0.09375,0,0,0.09375,0,0)"/>
<path style=" stroke:none;fill-rule:nonzero;fill:rgb(96.470588%,27.843137%,27.843137%);fill-opacity:0.996078;" d="M 24 5.96875 C 24 5.96875 6.835938 40.296875 5.96875 42.03125 C 24 25.804688 23.980469 42.03125 42.03125 42.03125 C 41.5625 41.117188 24 5.96875 24 5.96875 Z M 24 5.96875 "/>
<path style=" stroke:none;fill-rule:nonzero;fill:rgb(0%,0%,0%);fill-opacity:0.301961;" d="M 20.765625 29.410156 C 15.808594 29.410156 6.402344 41.164062 5.96875 42.03125 C 24 25.804688 23.980469 42.03125 42.03125 42.03125 C 41.796875 41.574219 41.125 40.246094 41.125 40.246094 C 31.398438 40.179688 27.324219 29.410156 20.765625 29.410156 Z M 20.765625 29.410156 "/>
<path style=" stroke:none;fill-rule:nonzero;fill:rgb(0%,0%,0%);fill-opacity:0.301961;" d="M 19.632812 33.921875 C 16.382812 33.8125 12.515625 35.421875 6.769531 40.433594 C 6.667969 40.632812 6.007812 41.953125 5.96875 42.03125 C 24 25.804688 23.980469 42.03125 42.03125 42.03125 C 42.019531 42.007812 41.605469 41.183594 41.570312 41.117188 C 30.085938 40.933594 26.035156 34.136719 19.632812 33.921875 Z M 19.632812 33.921875 "/>
</g>
</svg>
