
<svg xmlns="http://www.w3.org/2000/svg" xmlns:xlink="http://www.w3.org/1999/xlink" width="48px" height="48px" viewBox="0 0 48 48" version="1.1">
<g id="surface1">
<path style="fill-rule:nonzero;fill:rgb(100%,100%,100%);fill-opacity:1;stroke-width:28.191782;stroke-linecap:butt;stroke-linejoin:miter;stroke:rgb(6.27451%,63.137255%,61.960784%);stroke-opacity:1;stroke-miterlimit:4;" d="M 81.5 25.083333 L 430.5 25.083333 C 461.666667 25.083333 486.916667 50.333333 486.916667 81.5 L 486.916667 430.5 C 486.916667 461.666667 461.666667 486.916667 430.5 486.916667 L 81.5 486.916667 C 50.333333 486.916667 25.083333 461.666667 25.083333 430.5 L 25.083333 81.5 C 25.083333 50.333333 50.333333 25.083333 81.5 25.083333 Z M 81.5 25.083333 " transform="matrix(0.09375,0,0,0.09375,0,0)"/>
<path style=" stroke:none;fill-rule:nonzero;fill:rgb(92.54902%,20.784314%,50.196078%);fill-opacity:1;" d="M 30.5625 12.878906 C 30.5625 16.574219 27.5625 19.574219 23.867188 19.574219 C 20.167969 19.574219 17.171875 16.574219 17.171875 12.878906 C 17.171875 9.179688 20.167969 6.183594 23.867188 6.183594 C 27.5625 6.183594 30.5625 9.179688 30.5625 12.878906 Z M 30.5625 12.878906 "/>
<path style=" stroke:none;fill-rule:nonzero;fill:rgb(95.686275%,53.333333%,20.784314%);fill-opacity:1;" d="M 18.660156 21.433594 C 18.660156 25.128906 15.660156 28.128906 11.964844 28.128906 C 8.265625 28.128906 5.269531 25.128906 5.269531 21.433594 C 5.269531 17.734375 8.265625 14.734375 11.964844 14.734375 C 15.660156 14.734375 18.660156 17.734375 18.660156 21.433594 Z M 18.660156 21.433594 "/>
<path style=" stroke:none;fill-rule:nonzero;fill:rgb(50.980392%,79.607843%,30.196078%);fill-opacity:1;" d="M 23.121094 35.441406 C 23.121094 39.140625 20.125 42.136719 16.425781 42.136719 C 12.730469 42.136719 9.730469 39.140625 9.730469 35.441406 C 9.730469 31.742188 12.730469 28.746094 16.425781 28.746094 C 20.125 28.746094 23.121094 31.742188 23.121094 35.441406 Z M 23.121094 35.441406 "/>
<path style=" stroke:none;fill-rule:nonzero;fill:rgb(0%,74.117647%,89.803922%);fill-opacity:1;" d="M 37.875 35.316406 C 37.875 39.015625 34.878906 42.011719 31.179688 42.011719 C 27.480469 42.011719 24.484375 39.015625 24.484375 35.316406 C 24.484375 31.621094 27.480469 28.621094 31.179688 28.621094 C 34.878906 28.621094 37.875 31.621094 37.875 35.316406 Z M 37.875 35.316406 "/>
<path style=" stroke:none;fill-rule:nonzero;fill:rgb(50.196078%,29.803922%,68.235294%);fill-opacity:1;" d="M 42.339844 21.433594 C 42.339844 25.128906 39.339844 28.128906 35.644531 28.128906 C 31.945312 28.128906 28.949219 25.128906 28.949219 21.433594 C 28.949219 17.734375 31.945312 14.734375 35.644531 14.734375 C 39.339844 14.734375 42.339844 17.734375 42.339844 21.433594 Z M 42.339844 21.433594 "/>
</g>
</svg>
