
<svg xmlns="http://www.w3.org/2000/svg" xmlns:xlink="http://www.w3.org/1999/xlink" width="48px" height="48px" viewBox="0 0 48 48" version="1.1">
<g id="surface1">
<path style="fill-rule:nonzero;fill:rgb(20%,20%,20%);fill-opacity:1;stroke-width:26.401737;stroke-linecap:butt;stroke-linejoin:miter;stroke:rgb(16.862745%,65.882353%,92.156863%);stroke-opacity:1;stroke-miterlimit:4;" d="M 92.583333 39.75 L 419.416667 39.75 C 448.583333 39.75 472.25 63.416667 472.25 92.583333 L 472.25 419.416667 C 472.25 448.583333 448.583333 472.25 419.416667 472.25 L 92.583333 472.25 C 63.416667 472.25 39.75 448.583333 39.75 419.416667 L 39.75 92.583333 C 39.75 63.416667 63.416667 39.75 92.583333 39.75 Z M 92.583333 39.75 " transform="matrix(0.09375,0,0,0.09375,0,0)"/>
<path style=" stroke:none;fill-rule:nonzero;fill:rgb(83.529412%,18.431373%,25.490196%);fill-opacity:1;" d="M 13.53125 38.441406 C 10.828125 35.738281 9.160156 32.007812 9.160156 27.886719 C 9.160156 19.644531 15.839844 12.964844 24.082031 12.964844 C 32.324219 12.964844 39.003906 19.644531 39.003906 27.886719 C 39.003906 32.007812 37.335938 35.738281 34.632812 38.441406 C 34.632812 38.441406 36.71875 40.507812 38.539062 38.453125 C 40.707031 35.492188 41.988281 31.839844 41.988281 27.886719 C 41.988281 17.996094 33.972656 9.980469 24.082031 9.980469 C 14.191406 9.980469 6.175781 17.996094 6.175781 27.886719 C 6.175781 31.84375 7.460938 35.496094 9.632812 38.460938 C 9.8125 38.660156 11.535156 40.4375 13.53125 38.441406 "/>
<path style=" stroke:none;fill-rule:nonzero;fill:rgb(93.333333%,46.27451%,8.627451%);fill-opacity:1;" d="M 24.082031 12.964844 C 15.839844 12.964844 9.160156 19.644531 9.160156 27.886719 C 9.160156 32.007812 10.828125 35.738281 13.53125 38.441406 L 15.640625 36.328125 C 13.480469 34.167969 12.144531 31.183594 12.144531 27.886719 C 12.144531 21.292969 17.488281 15.949219 24.082031 15.949219 C 30.675781 15.949219 36.019531 21.292969 36.019531 27.886719 C 36.019531 31.183594 34.683594 34.167969 32.523438 36.328125 L 33.847656 37.652344 C 34.085938 37.890625 34.285156 38.089844 34.421875 38.226562 L 34.632812 38.441406 C 37.335938 35.738281 39.003906 32.007812 39.003906 27.886719 C 39.003906 19.644531 32.324219 12.964844 24.082031 12.964844 "/>
<path style=" stroke:none;fill-rule:nonzero;fill:rgb(97.647059%,76.862745%,27.843137%);fill-opacity:1;" d="M 24.082031 15.949219 C 17.488281 15.949219 12.144531 21.292969 12.144531 27.886719 C 12.144531 31.183594 13.480469 34.167969 15.640625 36.328125 L 17.75 34.21875 C 16.132812 32.597656 15.128906 30.359375 15.128906 27.886719 C 15.128906 22.941406 19.136719 18.933594 24.082031 18.933594 C 29.027344 18.933594 33.035156 22.941406 33.035156 27.886719 C 33.035156 30.359375 32.035156 32.597656 30.414062 34.21875 C 30.933594 34.738281 31.480469 35.285156 32.003906 35.8125 L 32.523438 36.328125 C 34.683594 34.167969 36.019531 31.183594 36.019531 27.886719 C 36.019531 21.292969 30.675781 15.949219 24.082031 15.949219 "/>
<path style=" stroke:none;fill-rule:nonzero;fill:rgb(37.647059%,69.019608%,87.843137%);fill-opacity:1;" d="M 24.082031 18.933594 C 19.136719 18.933594 15.128906 22.941406 15.128906 27.886719 C 15.128906 30.359375 16.132812 32.597656 17.75 34.21875 L 19.863281 32.109375 C 18.78125 31.027344 18.113281 29.535156 18.113281 27.886719 C 18.113281 24.589844 20.785156 21.917969 24.082031 21.917969 C 27.378906 21.917969 30.050781 24.589844 30.050781 27.886719 C 30.050781 29.535156 29.382812 31.027344 28.304688 32.109375 L 29.894531 33.703125 C 30.0625 33.867188 30.238281 34.042969 30.414062 34.21875 C 32.035156 32.597656 33.035156 30.359375 33.035156 27.886719 C 33.035156 22.941406 29.027344 18.933594 24.082031 18.933594 "/>
<path style=" stroke:none;fill-rule:nonzero;fill:rgb(22.745098%,30.980392%,47.843137%);fill-opacity:1;" d="M 24.082031 21.917969 C 20.785156 21.917969 18.113281 24.589844 18.113281 27.886719 C 18.113281 29.535156 18.78125 31.027344 19.863281 32.109375 C 19.863281 32.109375 21.097656 30.886719 21.097656 27.886719 C 21.097656 26.238281 22.433594 24.902344 24.082031 24.902344 C 25.730469 24.902344 27.066406 26.238281 27.066406 27.886719 C 27.066406 27.886719 26.875 30.679688 28.304688 32.109375 C 29.382812 31.027344 30.050781 29.535156 30.050781 27.886719 C 30.050781 24.589844 27.378906 21.917969 24.082031 21.917969 "/>
<path style=" stroke:none;fill-rule:nonzero;fill:rgb(73.72549%,37.254902%,82.745098%);fill-opacity:1;" d="M 35.792969 21.554688 L 24.25 24.566406 C 22.777344 24.949219 21.332031 25.535156 21.054688 27.117188 C 20.757812 28.792969 21.832031 30.382812 23.449219 30.667969 C 24.613281 30.871094 25.519531 30.152344 26.390625 29.421875 Z M 35.792969 21.554688 "/>
</g>
</svg>
