
<svg xmlns="http://www.w3.org/2000/svg" xmlns:xlink="http://www.w3.org/1999/xlink" width="48px" height="48px" viewBox="0 0 48 48" version="1.1">
<g id="surface1">
<path style=" stroke:none;fill-rule:nonzero;fill:rgb(26.666667%,36.470588%,65.490196%);fill-opacity:1;" d="M 8.367188 3.484375 L 39.855469 3.484375 C 42.550781 3.484375 44.734375 5.671875 44.734375 8.367188 L 44.734375 39.855469 C 44.734375 42.550781 42.550781 44.734375 39.855469 44.734375 L 8.367188 44.734375 C 5.671875 44.734375 3.484375 42.550781 3.484375 39.855469 L 3.484375 8.367188 C 3.484375 5.671875 5.671875 3.484375 8.367188 3.484375 Z M 8.367188 3.484375 "/>
<path style=" stroke:none;fill-rule:nonzero;fill:rgb(97.647059%,97.647059%,97.647059%);fill-opacity:1;" d="M 32.539062 8.6875 C 32.453125 8.734375 32.445312 8.769531 32.46875 8.734375 C 31.671875 10.074219 31.65625 11.851562 31.300781 13.433594 C 31.300781 13.441406 31.300781 13.445312 31.300781 13.453125 C 31.292969 13.476562 31.304688 13.5 31.300781 13.523438 C 31.125 15.222656 30.554688 16.957031 30.957031 18.589844 C 30.976562 18.625 30.992188 18.664062 31 18.703125 C 31.003906 18.714844 31 18.738281 31 18.75 C 31.007812 18.757812 30.996094 18.761719 31 18.773438 C 31.007812 18.78125 31.039062 18.761719 31.046875 18.773438 C 31.132812 18.890625 31.234375 18.988281 31.300781 19 C 31.347656 19.011719 31.433594 19 31.597656 18.886719 C 31.773438 18.761719 31.867188 18.523438 31.917969 18.199219 C 31.9375 18.160156 31.960938 18.121094 31.988281 18.085938 C 31.984375 18.070312 31.984375 18.054688 31.988281 18.039062 C 32 18 32.011719 17.960938 32.03125 17.925781 C 32.039062 17.917969 32.046875 17.910156 32.054688 17.902344 C 32.757812 15.101562 33.25 12.160156 33.0625 9.28125 C 33.039062 9.140625 33.015625 9.03125 32.882812 8.871094 C 32.792969 8.765625 32.71875 8.703125 32.699219 8.6875 C 32.675781 8.671875 32.6875 8.683594 32.605469 8.6875 C 32.597656 8.6875 32.589844 8.6875 32.582031 8.6875 C 32.554688 8.691406 32.554688 8.6875 32.539062 8.6875 Z M 39 10.0625 C 37.785156 10.652344 37.15625 12.074219 36.320312 13.226562 C 36.316406 13.265625 36.308594 13.304688 36.296875 13.339844 C 36.28125 13.363281 36.269531 13.386719 36.25 13.410156 C 35.1875 15.292969 33.832031 17.167969 33.683594 19.347656 C 33.683594 19.359375 33.683594 19.378906 33.683594 19.390625 C 33.699219 19.71875 33.898438 19.898438 34.097656 19.941406 C 34.292969 19.984375 34.644531 19.867188 34.785156 19.644531 C 34.796875 19.628906 34.8125 19.613281 34.828125 19.597656 C 34.828125 19.589844 34.828125 19.582031 34.828125 19.574219 C 34.828125 19.558594 34.828125 19.542969 34.828125 19.527344 C 36.761719 16.875 38.214844 13.738281 39.414062 10.679688 C 39.414062 10.671875 39.414062 10.664062 39.414062 10.65625 C 39.496094 10.457031 39.511719 10.398438 39.4375 10.246094 C 39.414062 10.199219 39.1875 10.046875 39.070312 10.0625 C 39.050781 10.070312 39.019531 10.054688 39 10.0625 Z M 20.367188 10.910156 C 20.265625 10.910156 20.167969 10.914062 20.066406 10.933594 C 19.871094 10.96875 19.589844 11.148438 19.378906 11.230469 C 18.640625 11.511719 18.226562 12.144531 18.050781 12.882812 C 17.871094 13.636719 17.929688 14.472656 18.050781 15.335938 C 18.171875 16.191406 18.34375 17.089844 18.53125 17.765625 C 18.691406 18.347656 18.820312 18.625 18.875 18.820312 L 18.875 18.980469 C 18.875 19.042969 18.828125 19.042969 18.785156 19.09375 C 18.761719 19.105469 18.808594 19.164062 18.785156 19.164062 C 18.730469 19.203125 18.667969 19.230469 18.601562 19.230469 C 18.46875 19.238281 18.367188 19.195312 18.234375 19.164062 C 18.140625 19.140625 18.023438 19.070312 18.050781 19.09375 C 18.007812 19.066406 17.941406 19.046875 17.914062 19 C 17.914062 18.996094 17.917969 18.992188 17.914062 18.980469 C 17.882812 18.921875 17.84375 18.777344 17.796875 18.679688 C 17.695312 18.457031 17.621094 18.207031 17.476562 17.878906 C 17.191406 17.226562 16.808594 16.429688 16.398438 15.679688 C 15.988281 14.925781 15.515625 14.246094 14.980469 13.777344 C 14.710938 13.539062 14.378906 13.304688 14.0625 13.226562 C 13.753906 13.148438 13.394531 13.203125 13.078125 13.363281 C 12.253906 13.820312 11.789062 14.554688 11.609375 15.335938 C 11.429688 16.125 11.5 17.039062 11.632812 17.832031 C 11.765625 18.625 11.980469 19.289062 12.113281 19.828125 C 12.171875 20.054688 12.253906 20.265625 12.273438 20.378906 C 12.273438 20.488281 12.210938 20.773438 12.183594 20.882812 C 12.042969 21.363281 11.726562 22.164062 11.722656 22.164062 C 11.722656 22.164062 5.324219 39.171875 19.058594 37.980469 C 19.171875 37.972656 19.410156 37.890625 19.515625 37.890625 C 22.214844 37.347656 24.765625 36.535156 27.035156 35.621094 C 27.480469 35.40625 28.074219 35.195312 28.730469 34.886719 C 30.046875 34.273438 31.6875 33.488281 33.269531 32.617188 C 34.855469 31.746094 36.339844 30.808594 37.464844 29.820312 C 38.589844 28.832031 39.40625 27.761719 39.253906 26.679688 C 39.015625 24.941406 37.859375 23.644531 36.320312 22.648438 C 34.773438 21.644531 32.851562 20.949219 30.933594 20.445312 C 29.011719 19.941406 27.152344 19.519531 25.730469 19.300781 C 25.015625 19.1875 24.335938 19.171875 23.917969 19.09375 C 23.792969 19.070312 23.734375 19.023438 23.667969 19 C 23.628906 18.996094 23.632812 19 23.597656 18.980469 C 23.554688 18.953125 23.484375 18.953125 23.460938 18.910156 C 23.4375 18.867188 23.460938 18.796875 23.460938 18.75 C 23.460938 18.730469 23.460938 18.707031 23.460938 18.679688 L 23.460938 17.625 C 23.4375 16.75 23.367188 15.589844 23.183594 14.507812 C 23 13.425781 22.726562 12.367188 22.128906 11.667969 C 21.777344 11.25 21.273438 10.976562 20.664062 10.933594 C 20.570312 10.921875 20.464844 10.914062 20.367188 10.910156 Z M 20.367188 10.910156 "/>
</g>
</svg>
