<!-- color: #616161 -->
<svg xmlns="http://www.w3.org/2000/svg" xmlns:xlink="http://www.w3.org/1999/xlink" width="48px" height="48px" viewBox="0 0 48 48" version="1.1">
<defs>
<clipPath id="clip1">
  <path d="M 9.375 9.375 L 38.625 9.375 L 38.625 30.09375 L 9.375 30.09375 Z M 9.375 9.375 "/>
</clipPath>
<clipPath id="clip2">
  <path d="M 0.933594 -0.28125 L 47.066406 -0.28125 C 49.746094 -0.28125 51.921875 1.894531 51.921875 4.578125 L 51.921875 50.707031 C 51.921875 53.390625 49.746094 55.5625 47.066406 55.5625 L 0.933594 55.5625 C -1.746094 55.5625 -3.921875 53.390625 -3.921875 50.707031 L -3.921875 4.578125 C -3.921875 1.894531 -1.746094 -0.28125 0.933594 -0.28125 Z M 0.933594 -0.28125 "/>
</clipPath>
<clipPath id="clip3">
  <path d="M 9.375 32.4375 L 38.53125 32.4375 L 38.53125 38.625 L 9.375 38.625 Z M 9.375 32.4375 "/>
</clipPath>
<clipPath id="clip4">
  <path d="M 0.933594 -0.28125 L 47.066406 -0.28125 C 49.746094 -0.28125 51.921875 1.894531 51.921875 4.578125 L 51.921875 50.707031 C 51.921875 53.390625 49.746094 55.5625 47.066406 55.5625 L 0.933594 55.5625 C -1.746094 55.5625 -3.921875 53.390625 -3.921875 50.707031 L -3.921875 4.578125 C -3.921875 1.894531 -1.746094 -0.28125 0.933594 -0.28125 Z M 0.933594 -0.28125 "/>
</clipPath>
</defs>
<g id="surface1">
<path style="fill-rule:nonzero;fill:rgb(50.196078%,50.196078%,50.196078%);fill-opacity:1;stroke-width:4.4;stroke-linecap:butt;stroke-linejoin:miter;stroke:rgb(0%,0%,0%);stroke-opacity:1;stroke-miterlimit:4;" d="M 18.739583 6.239583 L 109.260417 6.239583 C 116.166667 6.239583 121.760417 11.833333 121.760417 18.739583 L 121.760417 109.260417 C 121.760417 116.166667 116.166667 121.760417 109.260417 121.760417 L 18.739583 121.760417 C 11.833333 121.760417 6.239583 116.166667 6.239583 109.260417 L 6.239583 18.739583 C 6.239583 11.833333 11.833333 6.239583 18.739583 6.239583 Z M 18.739583 6.239583 " transform="matrix(0.375,0,0,0.375,0,0)"/>
<g clip-path="url(#clip1)" clip-rule="nonzero">
<g clip-path="url(#clip2)" clip-rule="nonzero">
<path style=" stroke:none;fill-rule:nonzero;fill:rgb(100%,100%,100%);fill-opacity:1;" d="M 38.566406 30.074219 L 9.433594 30.074219 L 24 9.433594 M 38.5625 30.074219 "/>
</g>
</g>
<g clip-path="url(#clip3)" clip-rule="nonzero">
<g clip-path="url(#clip4)" clip-rule="nonzero">
<path style=" stroke:none;fill-rule:evenodd;fill:rgb(100%,100%,100%);fill-opacity:1;" d="M 9.433594 32.5 L 38.53125 32.5 L 38.53125 38.566406 L 9.433594 38.566406 M 9.433594 32.5 "/>
</g>
</g>
</g>
</svg>
