
<svg xmlns="http://www.w3.org/2000/svg" xmlns:xlink="http://www.w3.org/1999/xlink" width="48px" height="48px" viewBox="0 0 48 48" version="1.1">
<g id="surface1">
<path style="fill-rule:nonzero;fill:rgb(100%,100%,100%);fill-opacity:1;stroke-width:28.191782;stroke-linecap:butt;stroke-linejoin:miter;stroke:rgb(60.784314%,61.568627%,65.098039%);stroke-opacity:1;stroke-miterlimit:4;" d="M 81.5 25.083333 L 430.5 25.083333 C 461.666667 25.083333 486.916667 50.333333 486.916667 81.5 L 486.916667 430.5 C 486.916667 461.666667 461.666667 486.916667 430.5 486.916667 L 81.5 486.916667 C 50.333333 486.916667 25.083333 461.666667 25.083333 430.5 L 25.083333 81.5 C 25.083333 50.333333 50.333333 25.083333 81.5 25.083333 Z M 81.5 25.083333 " transform="matrix(0.09375,0,0,0.09375,0,0)"/>
<path style=" stroke:none;fill-rule:nonzero;fill:rgb(100%,100%,100%);fill-opacity:1;" d="M 39.050781 24.21875 C 39.050781 32.308594 32.335938 38.863281 24.050781 38.863281 C 15.769531 38.863281 9.054688 32.308594 9.054688 24.21875 C 9.054688 16.132812 15.769531 9.574219 24.050781 9.574219 C 32.335938 9.574219 39.050781 16.132812 39.050781 24.21875 Z M 39.050781 24.21875 "/>
<path style=" stroke:none;fill-rule:nonzero;fill:rgb(100%,33.333333%,33.333333%);fill-opacity:1;" d="M 10.09375 6.515625 L 29.730469 6.515625 L 29.730469 10.40625 L 14.714844 10.40625 L 14.714844 20.476562 L 28.265625 20.476562 L 28.265625 24.367188 L 14.714844 24.367188 L 14.714844 40.6875 L 10.09375 40.6875 Z M 10.09375 6.515625 "/>
<path style=" stroke:none;fill-rule:nonzero;fill:rgb(16.470588%,49.803922%,100%);fill-opacity:1;" d="M 29.203125 42.988281 C 29.015625 42.90625 28.8125 42.6875 28.722656 42.472656 C 28.675781 42.363281 28.628906 41.9375 28.589844 41.253906 C 28.558594 40.679688 28.515625 40.160156 28.492188 40.105469 C 28.464844 40.03125 28.335938 39.960938 28.003906 39.84375 C 27.757812 39.757812 27.382812 39.601562 27.171875 39.496094 C 26.964844 39.390625 26.746094 39.304688 26.691406 39.304688 C 26.628906 39.304688 26.289062 39.582031 25.800781 40.03125 C 25.367188 40.429688 24.941406 40.789062 24.855469 40.835938 C 24.679688 40.925781 24.28125 40.9375 24.078125 40.863281 C 23.914062 40.800781 22.1875 39.101562 22.078125 38.894531 C 21.96875 38.683594 21.980469 38.296875 22.101562 38.0625 C 22.160156 37.957031 22.523438 37.523438 22.914062 37.097656 C 23.335938 36.644531 23.625 36.292969 23.625 36.234375 C 23.625 36.179688 23.539062 35.964844 23.433594 35.757812 C 23.328125 35.546875 23.171875 35.175781 23.085938 34.925781 C 23 34.679688 22.890625 34.460938 22.847656 34.4375 C 22.804688 34.414062 22.300781 34.371094 21.722656 34.339844 C 21.054688 34.300781 20.601562 34.253906 20.472656 34.207031 C 20.222656 34.117188 19.9375 33.8125 19.894531 33.59375 C 19.878906 33.507812 19.871094 32.847656 19.878906 32.132812 L 19.894531 30.835938 L 20.042969 30.648438 C 20.308594 30.316406 20.433594 30.285156 21.691406 30.207031 C 22.40625 30.164062 22.839844 30.117188 22.875 30.078125 C 22.90625 30.046875 23.015625 29.800781 23.113281 29.535156 C 23.214844 29.265625 23.367188 28.898438 23.460938 28.71875 C 23.550781 28.539062 23.625 28.351562 23.625 28.304688 C 23.625 28.253906 23.324219 27.886719 22.960938 27.488281 C 22.59375 27.089844 22.246094 26.695312 22.183594 26.613281 C 22.011719 26.382812 21.953125 26.097656 22.023438 25.820312 C 22.074219 25.609375 22.167969 25.496094 22.960938 24.695312 C 23.445312 24.203125 23.925781 23.757812 24.023438 23.707031 C 24.253906 23.585938 24.621094 23.585938 24.851562 23.703125 C 24.945312 23.753906 25.371094 24.109375 25.792969 24.496094 C 26.210938 24.882812 26.585938 25.214844 26.621094 25.234375 C 26.65625 25.253906 26.882812 25.175781 27.160156 25.042969 C 27.421875 24.921875 27.8125 24.757812 28.03125 24.6875 C 28.324219 24.585938 28.4375 24.523438 28.476562 24.4375 C 28.507812 24.371094 28.558594 23.847656 28.59375 23.273438 C 28.65625 22.164062 28.695312 21.988281 28.921875 21.75 C 29.175781 21.484375 29.324219 21.464844 30.742188 21.480469 L 32.039062 21.492188 L 32.238281 21.628906 C 32.589844 21.859375 32.628906 22 32.710938 23.234375 C 32.753906 23.832031 32.796875 24.367188 32.808594 24.421875 C 32.828125 24.503906 32.933594 24.5625 33.28125 24.683594 C 33.527344 24.769531 33.921875 24.9375 34.15625 25.054688 C 34.394531 25.171875 34.605469 25.269531 34.628906 25.269531 C 34.652344 25.269531 35.03125 24.941406 35.46875 24.535156 C 35.910156 24.132812 36.351562 23.761719 36.449219 23.707031 C 36.6875 23.585938 37.035156 23.585938 37.292969 23.710938 C 37.414062 23.769531 37.828125 24.148438 38.351562 24.671875 C 39.246094 25.578125 39.316406 25.679688 39.316406 26.089844 C 39.316406 26.378906 39.1875 26.566406 38.417969 27.410156 C 38 27.867188 37.660156 28.261719 37.660156 28.285156 C 37.660156 28.308594 37.769531 28.558594 37.902344 28.835938 C 38.035156 29.113281 38.195312 29.5 38.253906 29.699219 C 38.332031 29.945312 38.398438 30.070312 38.464844 30.101562 C 38.515625 30.125 39.054688 30.171875 39.660156 30.210938 C 40.859375 30.285156 41.054688 30.335938 41.253906 30.617188 C 41.445312 30.886719 41.46875 31.085938 41.453125 32.394531 L 41.4375 33.644531 L 41.289062 33.855469 C 41.027344 34.226562 40.960938 34.246094 39.628906 34.332031 C 38.976562 34.375 38.433594 34.421875 38.421875 34.433594 C 38.40625 34.449219 38.324219 34.65625 38.242188 34.898438 C 38.15625 35.136719 37.988281 35.527344 37.871094 35.765625 C 37.75 36 37.660156 36.226562 37.667969 36.261719 C 37.675781 36.296875 38 36.671875 38.390625 37.097656 C 38.777344 37.519531 39.144531 37.964844 39.207031 38.082031 C 39.335938 38.335938 39.347656 38.601562 39.242188 38.855469 C 39.148438 39.078125 37.566406 40.6875 37.308594 40.820312 C 37.09375 40.933594 36.699219 40.945312 36.476562 40.847656 C 36.390625 40.808594 35.957031 40.445312 35.515625 40.042969 C 35.074219 39.636719 34.675781 39.304688 34.632812 39.304688 C 34.589844 39.304688 34.339844 39.40625 34.078125 39.527344 C 33.816406 39.648438 33.429688 39.808594 33.21875 39.878906 C 32.925781 39.972656 32.828125 40.027344 32.808594 40.105469 C 32.796875 40.160156 32.753906 40.695312 32.710938 41.292969 C 32.625 42.605469 32.574219 42.746094 32.117188 42.980469 C 31.984375 43.046875 31.765625 43.058594 30.65625 43.054688 C 29.671875 43.054688 29.3125 43.039062 29.203125 42.988281 Z M 31.128906 37.160156 C 32.308594 37.035156 33.292969 36.566406 34.128906 35.726562 C 34.769531 35.089844 35.179688 34.371094 35.429688 33.464844 C 35.582031 32.898438 35.582031 31.648438 35.425781 31.074219 C 34.953125 29.332031 33.703125 28.046875 31.980469 27.53125 C 31.578125 27.410156 31.46875 27.398438 30.691406 27.394531 C 29.941406 27.390625 29.785156 27.40625 29.421875 27.503906 C 27.609375 28 26.222656 29.457031 25.84375 31.265625 C 25.503906 32.890625 26 34.546875 27.1875 35.742188 C 27.808594 36.363281 28.613281 36.824219 29.488281 37.046875 C 29.734375 37.113281 30.089844 37.160156 30.59375 37.203125 C 30.632812 37.207031 30.875 37.1875 31.128906 37.160156 Z M 29.921875 35.117188 C 28.675781 34.78125 27.808594 33.722656 27.730469 32.453125 C 27.675781 31.566406 27.960938 30.816406 28.589844 30.191406 C 29.738281 29.050781 31.570312 29.039062 32.699219 30.167969 C 33.632812 31.097656 33.855469 32.417969 33.277344 33.578125 C 32.785156 34.566406 31.875 35.152344 30.761719 35.195312 C 30.382812 35.210938 30.195312 35.191406 29.921875 35.117188 Z M 31.308594 33.886719 C 31.652344 33.757812 32.0625 33.378906 32.234375 33.027344 C 32.355469 32.78125 32.371094 32.699219 32.371094 32.265625 C 32.371094 31.800781 32.363281 31.761719 32.203125 31.46875 C 31.882812 30.878906 31.410156 30.578125 30.738281 30.546875 C 30.199219 30.519531 29.878906 30.632812 29.488281 30.988281 C 28.996094 31.4375 28.796875 32.066406 28.957031 32.683594 C 29.09375 33.21875 29.382812 33.582031 29.875 33.828125 C 30.328125 34.0625 30.796875 34.078125 31.308594 33.886719 Z M 31.308594 33.886719 "/>
</g>
</svg>
