<!-- color: #474747 -->
<svg xmlns="http://www.w3.org/2000/svg" xmlns:xlink="http://www.w3.org/1999/xlink" width="48px" height="48px" viewBox="0 0 48 48" version="1.1">
<defs>
<clipPath id="clip1">
  <path d="M 16.3125 16.59375 L 31.6875 16.59375 L 31.6875 41.4375 L 16.3125 41.4375 Z M 16.3125 16.59375 "/>
</clipPath>
<clipPath id="clip2">
  <path d="M 57.871094 24.660156 C 57.871094 45.925781 42.703125 63.148438 24.011719 63.148438 C 5.316406 63.148438 -9.855469 45.925781 -9.855469 24.660156 C -9.855469 3.394531 5.316406 -13.832031 24.011719 -13.832031 C 42.703125 -13.832031 57.871094 3.394531 57.871094 24.660156 Z M 57.871094 24.660156 "/>
</clipPath>
<clipPath id="clip3">
  <path d="M 16.3125 21.65625 L 31.6875 21.65625 L 31.6875 29.25 L 16.3125 29.25 Z M 16.3125 21.65625 "/>
</clipPath>
<clipPath id="clip4">
  <path d="M 57.871094 24.660156 C 57.871094 45.925781 42.703125 63.148438 24.011719 63.148438 C 5.316406 63.148438 -9.855469 45.925781 -9.855469 24.660156 C -9.855469 3.394531 5.316406 -13.832031 24.011719 -13.832031 C 42.703125 -13.832031 57.871094 3.394531 57.871094 24.660156 Z M 57.871094 24.660156 "/>
</clipPath>
<clipPath id="clip5">
  <path d="M 17.625 33.09375 L 30.46875 33.09375 L 30.46875 37.875 L 17.625 37.875 Z M 17.625 33.09375 "/>
</clipPath>
<clipPath id="clip6">
  <path d="M 57.871094 24.660156 C 57.871094 45.925781 42.703125 63.148438 24.011719 63.148438 C 5.316406 63.148438 -9.855469 45.925781 -9.855469 24.660156 C -9.855469 3.394531 5.316406 -13.832031 24.011719 -13.832031 C 42.703125 -13.832031 57.871094 3.394531 57.871094 24.660156 Z M 57.871094 24.660156 "/>
</clipPath>
<clipPath id="clip7">
  <path d="M 16.875 27.28125 L 31.125 27.28125 L 31.125 33.5625 L 16.875 33.5625 Z M 16.875 27.28125 "/>
</clipPath>
<clipPath id="clip8">
  <path d="M 57.871094 24.660156 C 57.871094 45.925781 42.703125 63.148438 24.011719 63.148438 C 5.316406 63.148438 -9.855469 45.925781 -9.855469 24.660156 C -9.855469 3.394531 5.316406 -13.832031 24.011719 -13.832031 C 42.703125 -13.832031 57.871094 3.394531 57.871094 24.660156 Z M 57.871094 24.660156 "/>
</clipPath>
<clipPath id="clip9">
  <path d="M 17.25 7.875 L 30.84375 7.875 L 30.84375 20 L 17.25 20 Z M 17.25 7.875 "/>
</clipPath>
<clipPath id="clip10">
  <path d="M 57.871094 24.660156 C 57.871094 45.925781 42.703125 63.148438 24.011719 63.148438 C 5.316406 63.148438 -9.855469 45.925781 -9.855469 24.660156 C -9.855469 3.394531 5.316406 -13.832031 24.011719 -13.832031 C 42.703125 -13.832031 57.871094 3.394531 57.871094 24.660156 Z M 57.871094 24.660156 "/>
</clipPath>
<clipPath id="clip11">
  <path d="M 4.78125 11.71875 L 20.34375 11.71875 L 20.34375 28 L 4.78125 28 Z M 4.78125 11.71875 "/>
</clipPath>
<clipPath id="clip12">
  <path d="M 57.871094 24.660156 C 57.871094 45.925781 42.703125 63.148438 24.011719 63.148438 C 5.316406 63.148438 -9.855469 45.925781 -9.855469 24.660156 C -9.855469 3.394531 5.316406 -13.832031 24.011719 -13.832031 C 42.703125 -13.832031 57.871094 3.394531 57.871094 24.660156 Z M 57.871094 24.660156 "/>
</clipPath>
<clipPath id="clip13">
  <path d="M 7.40625 24.5625 L 19.78125 24.5625 L 19.78125 36.1875 L 7.40625 36.1875 Z M 7.40625 24.5625 "/>
</clipPath>
<clipPath id="clip14">
  <path d="M 57.871094 24.660156 C 57.871094 45.925781 42.703125 63.148438 24.011719 63.148438 C 5.316406 63.148438 -9.855469 45.925781 -9.855469 24.660156 C -9.855469 3.394531 5.316406 -13.832031 24.011719 -13.832031 C 42.703125 -13.832031 57.871094 3.394531 57.871094 24.660156 Z M 57.871094 24.660156 "/>
</clipPath>
<clipPath id="clip15">
  <path d="M 27.65625 11.71875 L 43.21875 11.71875 L 43.21875 28 L 27.65625 28 Z M 27.65625 11.71875 "/>
</clipPath>
<clipPath id="clip16">
  <path d="M 57.871094 24.660156 C 57.871094 45.925781 42.703125 63.148438 24.011719 63.148438 C 5.316406 63.148438 -9.855469 45.925781 -9.855469 24.660156 C -9.855469 3.394531 5.316406 -13.832031 24.011719 -13.832031 C 42.703125 -13.832031 57.871094 3.394531 57.871094 24.660156 Z M 57.871094 24.660156 "/>
</clipPath>
<clipPath id="clip17">
  <path d="M 28.21875 24.5625 L 40.59375 24.5625 L 40.59375 36.1875 L 28.21875 36.1875 Z M 28.21875 24.5625 "/>
</clipPath>
<clipPath id="clip18">
  <path d="M 57.871094 24.660156 C 57.871094 45.925781 42.703125 63.148438 24.011719 63.148438 C 5.316406 63.148438 -9.855469 45.925781 -9.855469 24.660156 C -9.855469 3.394531 5.316406 -13.832031 24.011719 -13.832031 C 42.703125 -13.832031 57.871094 3.394531 57.871094 24.660156 Z M 57.871094 24.660156 "/>
</clipPath>
</defs>
<g id="surface1">
<path style="fill-rule:nonzero;fill:rgb(100%,100%,100%);fill-opacity:1;stroke-width:7.117036;stroke-linecap:butt;stroke-linejoin:miter;stroke:rgb(92.54902%,89.019608%,20%);stroke-opacity:1;stroke-miterlimit:4;" d="M 19.9375 5.708333 L 108.0625 5.708333 C 115.916667 5.708333 122.291667 12.083333 122.291667 19.9375 L 122.291667 108.0625 C 122.291667 115.916667 115.916667 122.291667 108.0625 122.291667 L 19.9375 122.291667 C 12.083333 122.291667 5.708333 115.916667 5.708333 108.0625 L 5.708333 19.9375 C 5.708333 12.083333 12.083333 5.708333 19.9375 5.708333 Z M 19.9375 5.708333 " transform="matrix(0.375,0,0,0.375,0,0)"/>
<path style=" stroke:none;fill-rule:nonzero;fill:rgb(20%,20%,20%);fill-opacity:1;" d="M 31.503906 28.949219 C 31.503906 23.117188 28.207031 18.386719 24.140625 18.386719 C 20.074219 18.386719 16.777344 23.117188 16.777344 28.949219 C 16.777344 34.785156 20.074219 39.515625 24.140625 39.515625 C 28.207031 39.515625 31.503906 34.785156 31.503906 28.949219 Z M 31.503906 28.949219 "/>
<g clip-path="url(#clip1)" clip-rule="nonzero">
<g clip-path="url(#clip2)" clip-rule="nonzero">
<path style=" stroke:none;fill-rule:nonzero;fill:rgb(92.54902%,89.019608%,20%);fill-opacity:1;" d="M 24.011719 16.644531 C 21.425781 16.644531 19.460938 18.601562 18.253906 20.867188 C 17.050781 23.136719 16.359375 25.921875 16.359375 28.980469 C 16.359375 32.046875 17.050781 34.917969 18.253906 37.175781 C 19.460938 39.445312 21.425781 41.398438 24.011719 41.398438 C 26.59375 41.398438 28.632812 39.445312 29.835938 37.175781 C 31.039062 34.910156 31.660156 32.046875 31.660156 28.980469 C 31.660156 25.921875 31.039062 23.136719 29.835938 20.867188 C 28.632812 18.601562 26.59375 16.644531 24.011719 16.644531 M 24.011719 19.566406 C 27.265625 19.566406 29.914062 24.066406 29.914062 29.550781 C 29.914062 35.039062 27.269531 39.453125 24.011719 39.453125 C 20.753906 39.453125 18.105469 35.039062 18.105469 29.550781 C 18.105469 24.066406 20.75 19.566406 24.011719 19.566406 M 24.011719 19.566406 "/>
</g>
</g>
<g clip-path="url(#clip3)" clip-rule="nonzero">
<g clip-path="url(#clip4)" clip-rule="nonzero">
<path style=" stroke:none;fill-rule:nonzero;fill:rgb(92.54902%,89.019608%,20%);fill-opacity:1;" d="M 24.039062 21.679688 C 20.949219 21.679688 18.214844 23.53125 16.539062 26.433594 C 16.445312 27.34375 16.40625 28.289062 16.390625 29.246094 C 18.046875 26.585938 20.835938 24.84375 24.039062 24.84375 C 27.207031 24.84375 29.996094 26.539062 31.632812 29.160156 C 31.625 28.257812 31.566406 27.375 31.492188 26.519531 C 29.835938 23.605469 27.136719 21.679688 24.035156 21.679688 M 24.035156 21.679688 "/>
</g>
</g>
<g clip-path="url(#clip5)" clip-rule="nonzero">
<g clip-path="url(#clip6)" clip-rule="nonzero">
<path style=" stroke:none;fill-rule:nonzero;fill:rgb(92.54902%,89.019608%,20%);fill-opacity:1;" d="M 22.730469 33.195312 C 20.8125 33.476562 19.089844 34.457031 17.652344 35.777344 C 17.828125 36.167969 17.972656 36.605469 18.183594 36.96875 C 18.363281 37.273438 18.59375 37.574219 18.808594 37.863281 C 20.332031 36.980469 22.085938 36.46875 23.976562 36.46875 C 25.871094 36.46875 27.625 36.980469 29.148438 37.863281 C 29.367188 37.574219 29.609375 37.269531 29.777344 36.96875 C 29.992188 36.59375 30.230469 36.179688 30.410156 35.777344 C 28.65625 34.148438 26.429688 33.195312 23.996094 33.195312 C 23.558594 33.195312 23.171875 33.136719 22.746094 33.195312 M 22.742188 33.195312 "/>
</g>
</g>
<g clip-path="url(#clip7)" clip-rule="nonzero">
<g clip-path="url(#clip8)" clip-rule="nonzero">
<path style=" stroke:none;fill-rule:nonzero;fill:rgb(92.54902%,89.019608%,20%);fill-opacity:1;" d="M 23.984375 27.292969 C 21.066406 27.292969 18.902344 28.832031 16.945312 31.050781 C 17.054688 31.96875 16.785156 32.710938 17.042969 33.550781 C 18.9375 31.941406 21.347656 30.96875 24 30.96875 C 26.644531 30.96875 29.0625 31.941406 30.945312 33.550781 C 31.191406 32.710938 31.007812 31.976562 31.117188 31.050781 C 29.164062 28.816406 26.929688 27.292969 24 27.292969 M 23.984375 27.292969 "/>
</g>
</g>
<g clip-path="url(#clip9)" clip-rule="nonzero">
<g clip-path="url(#clip10)" clip-rule="nonzero">
<path style=" stroke:none;fill-rule:nonzero;fill:rgb(92.54902%,89.019608%,20%);fill-opacity:1;" d="M 24.039062 7.917969 C 20.3125 7.917969 17.269531 10.800781 17.269531 14.417969 C 17.269531 16.625 18.414062 18.613281 20.152344 19.796875 C 20.507812 18.859375 21.984375 18.128906 23.820312 18.128906 C 25.78125 18.128906 27.398438 18.945312 27.59375 19.980469 C 29.492188 18.824219 30.757812 16.761719 30.757812 14.417969 C 30.757812 10.800781 27.761719 7.917969 24.039062 7.917969 M 19.765625 11.695312 C 20.398438 11.695312 20.875 12.664062 20.875 13.859375 C 20.875 15.058594 20.390625 16.023438 19.765625 16.023438 C 19.132812 16.023438 18.597656 15.058594 18.597656 13.859375 C 18.597656 12.664062 19.132812 11.695312 19.765625 11.695312 M 28.261719 11.695312 C 28.886719 11.695312 29.421875 12.664062 29.421875 13.859375 C 29.421875 15.058594 28.886719 16.023438 28.261719 16.023438 C 27.628906 16.023438 27.148438 15.058594 27.148438 13.859375 C 27.148438 12.664062 27.628906 11.695312 28.261719 11.695312 M 28.261719 11.695312 "/>
</g>
</g>
<g clip-path="url(#clip11)" clip-rule="nonzero">
<g clip-path="url(#clip12)" clip-rule="nonzero">
<path style=" stroke:none;fill-rule:nonzero;fill:rgb(92.54902%,89.019608%,20%);fill-opacity:1;" d="M 9.667969 11.828125 C 11.949219 12.011719 15.402344 13.074219 19.324219 15.597656 C 19.691406 15.835938 19.980469 16.101562 20.324219 16.34375 C 19.945312 16.703125 19.628906 17.109375 19.324219 17.519531 C 19.101562 17.355469 18.898438 17.175781 18.65625 17.023438 C 16.320312 15.519531 13.945312 14.664062 11.996094 14.488281 C 10.046875 14.3125 8.53125 14.800781 7.890625 16.035156 C 6.613281 18.496094 9.945312 22.070312 14.609375 25.078125 C 14.925781 25.277344 15.5 25.683594 15.808594 25.863281 C 15.769531 25.914062 14.859375 26.605469 14.828125 26.671875 C 14.511719 26.476562 14.210938 26.324219 13.882812 26.117188 C 9.953125 23.59375 7.339844 20.808594 6.0625 18.695312 C 4.777344 16.578125 4.554688 14.851562 5.226562 13.558594 C 5.894531 12.269531 7.382812 11.640625 9.671875 11.824219 M 17.066406 27.601562 C 17.097656 27.71875 17.097656 27.84375 17.117188 27.96875 C 17.085938 27.945312 17.042969 27.929688 17.007812 27.90625 C 17.046875 27.804688 17.046875 27.71875 17.058594 27.601562 M 17.066406 27.601562 "/>
</g>
</g>
<g clip-path="url(#clip13)" clip-rule="nonzero">
<g clip-path="url(#clip14)" clip-rule="nonzero">
<path style=" stroke:none;fill-rule:nonzero;fill:rgb(92.54902%,89.019608%,20%);fill-opacity:1;" d="M 17.5625 24.601562 C 17.492188 24.890625 17.367188 25.15625 17.316406 25.453125 C 17.296875 25.457031 17.320312 25.523438 17.296875 25.53125 C 12.324219 27.734375 9.320312 30.78125 10.453125 32.921875 C 11.402344 34.707031 14.898438 35.355469 19.25 34.886719 C 19.324219 34.992188 19.324219 35.113281 19.398438 35.21875 C 19.5 35.363281 19.621094 35.5 19.734375 35.648438 C 17.421875 36.035156 15.300781 36.199219 13.597656 36.113281 C 10.542969 35.960938 8.460938 35.203125 7.730469 33.824219 C 7 32.445312 7.78125 30.722656 9.816406 28.960938 C 11.484375 27.519531 14.125 25.941406 17.566406 24.609375 M 17.566406 24.601562 "/>
</g>
</g>
<g clip-path="url(#clip15)" clip-rule="nonzero">
<g clip-path="url(#clip16)" clip-rule="nonzero">
<path style=" stroke:none;fill-rule:nonzero;fill:rgb(92.54902%,89.019608%,20%);fill-opacity:1;" d="M 38.351562 11.828125 C 36.070312 12.011719 32.617188 13.074219 28.695312 15.597656 C 28.328125 15.835938 28.042969 16.101562 27.695312 16.34375 C 28.074219 16.703125 28.390625 17.109375 28.695312 17.519531 C 28.921875 17.355469 29.121094 17.175781 29.363281 17.023438 C 31.699219 15.519531 34.074219 14.664062 36.023438 14.488281 C 37.972656 14.3125 39.488281 14.800781 40.128906 16.035156 C 41.40625 18.496094 38.074219 22.070312 33.410156 25.078125 C 33.09375 25.277344 32.519531 25.683594 32.210938 25.863281 C 32.25 25.914062 33.160156 26.605469 33.191406 26.671875 C 33.507812 26.476562 33.808594 26.324219 34.136719 26.117188 C 38.066406 23.59375 40.679688 20.808594 41.960938 18.695312 C 43.242188 16.578125 43.464844 14.851562 42.792969 13.558594 C 42.125 12.269531 40.636719 11.640625 38.347656 11.824219 M 30.953125 27.601562 C 30.921875 27.71875 30.921875 27.84375 30.902344 27.96875 C 30.933594 27.945312 30.976562 27.929688 31.011719 27.90625 C 30.972656 27.804688 30.972656 27.71875 30.960938 27.601562 M 30.953125 27.601562 "/>
</g>
</g>
<g clip-path="url(#clip17)" clip-rule="nonzero">
<g clip-path="url(#clip18)" clip-rule="nonzero">
<path style=" stroke:none;fill-rule:nonzero;fill:rgb(92.54902%,89.019608%,20%);fill-opacity:1;" d="M 30.457031 24.601562 C 30.527344 24.890625 30.652344 25.15625 30.703125 25.453125 C 30.722656 25.457031 30.699219 25.523438 30.722656 25.53125 C 35.695312 27.734375 38.699219 30.78125 37.566406 32.921875 C 36.617188 34.707031 33.117188 35.355469 28.769531 34.886719 C 28.695312 34.992188 28.695312 35.113281 28.621094 35.21875 C 28.519531 35.363281 28.398438 35.5 28.285156 35.648438 C 30.597656 36.035156 32.71875 36.199219 34.421875 36.113281 C 37.476562 35.960938 39.558594 35.203125 40.289062 33.824219 C 41.019531 32.445312 40.238281 30.722656 38.203125 28.960938 C 36.53125 27.519531 33.894531 25.941406 30.453125 24.609375 M 30.453125 24.601562 "/>
</g>
</g>
</g>
</svg>
