
<svg xmlns="http://www.w3.org/2000/svg" xmlns:xlink="http://www.w3.org/1999/xlink" width="48px" height="48px" viewBox="0 0 48 48" version="1.1">
<g id="surface1">
<path style="fill-rule:nonzero;fill:rgb(100%,100%,100%);fill-opacity:1;stroke-width:7.074133;stroke-linecap:butt;stroke-linejoin:miter;stroke:rgb(0%,52.941176%,97.254902%);stroke-opacity:1;stroke-miterlimit:4;" d="M 17.725452 3.15625 L 110.25456 3.15625 C 118.509859 3.15625 125.207115 9.15625 125.207115 16.552083 L 125.207115 99.447917 C 125.207115 106.84375 118.509859 112.84375 110.25456 112.84375 L 17.725452 112.84375 C 9.470153 112.84375 2.772897 106.84375 2.772897 99.447917 L 2.772897 16.552083 C 2.772897 9.15625 9.470153 3.15625 17.725452 3.15625 Z M 17.725452 3.15625 " transform="matrix(0.335958,0,0,0.375,2.502016,2.25)"/>
<path style=" stroke:none;fill-rule:nonzero;fill:rgb(0%,52.941176%,97.254902%);fill-opacity:1;" d="M 3.917969 9.167969 C 3.007812 9.167969 2.25 9.988281 2.25 10.972656 L 2.25 12.785156 L 24.035156 28.476562 L 24.035156 22.46875 L 5.601562 9.15625 L 3.925781 9.15625 M 3.917969 9.164062 "/>
<path style=" stroke:none;fill-rule:nonzero;fill:rgb(0%,52.941176%,97.254902%);fill-opacity:1;" d="M 44.070312 9.222656 C 44.984375 9.222656 45.738281 10.042969 45.738281 11.023438 L 45.738281 12.832031 L 24.027344 28.476562 L 24.027344 22.488281 L 42.394531 9.214844 L 44.0625 9.214844 M 44.070312 9.222656 "/>
</g>
</svg>
