
<svg xmlns="http://www.w3.org/2000/svg" xmlns:xlink="http://www.w3.org/1999/xlink" width="48px" height="48px" viewBox="0 0 48 48" version="1.1">
<g id="surface1">
<path style="fill-rule:nonzero;fill:rgb(21.568627%,44.313725%,78.431373%);fill-opacity:1;stroke-width:13.887347;stroke-linecap:butt;stroke-linejoin:miter;stroke:rgb(29.019608%,68.235294%,90.980392%);stroke-opacity:1;stroke-miterlimit:4;" d="M 42.041667 14.25 L 213.958333 14.25 C 229.3125 14.25 241.75 26.6875 241.75 42.041667 L 241.75 213.958333 C 241.75 229.3125 229.3125 241.75 213.958333 241.75 L 42.041667 241.75 C 26.6875 241.75 14.25 229.3125 14.25 213.958333 L 14.25 42.041667 C 14.25 26.6875 26.6875 14.25 42.041667 14.25 Z M 42.041667 14.25 " transform="matrix(0.1875,0,0,0.1875,0,0)"/>
<path style=" stroke:none;fill-rule:evenodd;fill:rgb(29.019608%,68.235294%,90.980392%);fill-opacity:1;" d="M 25.511719 8.53125 C 24.675781 8.53125 24.003906 9.203125 24.003906 10.039062 L 24.003906 36.894531 C 24.003906 37.726562 24.675781 38.402344 25.511719 38.402344 L 39.019531 38.402344 C 39.855469 38.402344 40.527344 37.726562 40.527344 36.894531 L 40.527344 10.039062 C 40.527344 9.203125 39.855469 8.53125 39.019531 8.53125 Z M 18.796875 9.894531 C 18.210938 9.910156 17.660156 10.265625 17.433594 10.851562 L 7.679688 35.542969 C 7.375 36.320312 7.753906 37.191406 8.53125 37.5 L 11.28125 38.585938 C 12.058594 38.890625 12.929688 38.515625 13.238281 37.738281 L 22.988281 13.042969 C 23.296875 12.265625 22.917969 11.394531 22.140625 11.089844 L 19.386719 10 C 19.195312 9.925781 18.992188 9.890625 18.796875 9.894531 Z M 18.796875 9.894531 "/>
<path style=" stroke:none;fill-rule:evenodd;fill:rgb(100%,100%,100%);fill-opacity:1;" d="M 25.503906 9.574219 C 24.667969 9.574219 23.996094 10.246094 23.996094 11.082031 L 23.996094 37.9375 C 23.996094 38.773438 24.667969 39.445312 25.503906 39.445312 L 39.03125 39.445312 C 39.867188 39.445312 40.539062 38.773438 40.539062 37.9375 L 40.539062 11.082031 C 40.539062 10.246094 39.867188 9.574219 39.03125 9.574219 Z M 18.726562 9.867188 C 18.140625 9.878906 17.589844 10.238281 17.359375 10.820312 L 7.609375 35.515625 C 7.304688 36.292969 7.683594 37.164062 8.457031 37.46875 L 9.222656 37.769531 C 9.234375 37.777344 9.246094 37.78125 9.257812 37.785156 L 10.722656 38.363281 L 21.582031 10.863281 L 19.839844 10.175781 L 19.835938 10.179688 L 19.316406 9.972656 C 19.121094 9.898438 18.921875 9.863281 18.726562 9.867188 Z M 18.726562 9.867188 "/>
<path style=" stroke:none;fill-rule:nonzero;fill:rgb(29.019608%,68.235294%,90.980392%);fill-opacity:1;" d="M 36.222656 15.242188 C 34.40625 15.242188 32.929688 16.644531 32.929688 18.378906 C 32.929688 20.113281 34.40625 21.519531 36.222656 21.519531 C 38.042969 21.519531 39.515625 20.113281 39.515625 18.378906 C 39.515625 16.644531 38.042969 15.242188 36.222656 15.242188 Z M 28.515625 15.242188 C 26.695312 15.242188 25.222656 16.648438 25.222656 18.382812 C 25.222656 20.117188 26.695312 21.523438 28.515625 21.523438 C 30.335938 21.523438 31.808594 20.117188 31.808594 18.382812 C 31.808594 16.648438 30.335938 15.242188 28.515625 15.242188 Z M 28.546875 28.03125 C 26.730469 28.03125 25.253906 29.4375 25.253906 31.171875 C 25.253906 32.90625 26.730469 34.3125 28.546875 34.3125 C 30.367188 34.3125 31.839844 32.90625 31.839844 31.171875 C 31.839844 29.4375 30.367188 28.03125 28.546875 28.03125 Z M 36.207031 28.054688 C 34.390625 28.054688 32.914062 29.460938 32.914062 31.195312 C 32.914062 32.929688 34.390625 34.335938 36.207031 34.335938 C 38.027344 34.335938 39.5 32.929688 39.5 31.195312 C 39.5 29.460938 38.027344 28.054688 36.207031 28.054688 Z M 36.207031 28.054688 "/>
</g>
</svg>
