
<svg xmlns="http://www.w3.org/2000/svg" xmlns:xlink="http://www.w3.org/1999/xlink" width="48px" height="48px" viewBox="0 0 48 48" version="1.1">
<g id="surface1">
<path style=" stroke:none;fill-rule:nonzero;fill:rgb(13.72549%,43.137255%,50.588235%);fill-opacity:1;" d="M 7.949219 1.265625 L 40.527344 1.265625 C 44.078125 1.265625 46.953125 4.140625 46.953125 7.6875 L 46.953125 40.265625 C 46.953125 43.8125 44.078125 46.691406 40.527344 46.691406 L 7.949219 46.691406 C 4.402344 46.691406 1.527344 43.8125 1.527344 40.265625 L 1.527344 7.6875 C 1.527344 4.140625 4.402344 1.265625 7.949219 1.265625 Z M 7.949219 1.265625 "/>
<path style=" stroke:none;fill-rule:nonzero;fill:rgb(21.568627%,67.058824%,78.431373%);fill-opacity:1;" d="M 9.058594 2.808594 L 39.421875 2.808594 C 42.726562 2.808594 45.410156 5.488281 45.410156 8.796875 L 45.410156 39.160156 C 45.410156 42.464844 42.726562 45.148438 39.421875 45.148438 L 9.058594 45.148438 C 5.75 45.148438 3.070312 42.464844 3.070312 39.160156 L 3.070312 8.796875 C 3.070312 5.488281 5.75 2.808594 9.058594 2.808594 Z M 9.058594 2.808594 "/>
<path style=" stroke:none;fill-rule:evenodd;fill:rgb(0%,0%,0%);fill-opacity:0.498039;" d="M 9.597656 9.621094 L 9.597656 39.046875 C 19.460938 36.40625 29.839844 36.320312 39.023438 39.046875 L 39.023438 9.621094 C 33.527344 11.097656 15.636719 11.242188 9.597656 9.621094 Z M 12.539062 12.566406 L 36.082031 12.566406 L 36.082031 30.21875 L 30.195312 18.449219 L 23.300781 32.242188 L 19.160156 25.808594 L 12.539062 36.105469 Z M 12.539062 12.566406 "/>
</g>
</svg>
