
<svg xmlns="http://www.w3.org/2000/svg" xmlns:xlink="http://www.w3.org/1999/xlink" width="48px" height="48px" viewBox="0 0 48 48" version="1.1">
<g id="surface1">
<path style="fill-rule:nonzero;fill:rgb(0%,100%,100%);fill-opacity:1;stroke-width:27.58753;stroke-linecap:butt;stroke-linejoin:miter;stroke:rgb(18.823529%,57.647059%,56.078431%);stroke-opacity:1;stroke-miterlimit:4;" d="M 85.711912 30.05339 L 427.2882 30.05339 C 457.747233 30.05339 482.444834 54.743056 482.444834 85.223132 L 482.444834 426.776918 C 482.444834 457.256994 457.747233 481.946661 427.2882 481.946661 L 85.711912 481.946661 C 55.25288 481.946661 30.555278 457.256994 30.555278 426.776918 L 30.555278 85.223132 C 30.555278 54.743056 55.25288 30.05339 85.711912 30.05339 Z M 85.711912 30.05339 " transform="matrix(0.096954,0,0,0.0971434,-0.868706,-0.868706)"/>
<path style=" stroke:none;fill-rule:nonzero;fill:rgb(92.54902%,49.803922%,26.27451%);fill-opacity:1;" d="M 40.21875 12.886719 C 40.269531 12.984375 40.3125 13.078125 40.363281 13.171875 C 40.359375 13.191406 40.367188 13.214844 40.363281 13.226562 C 40.351562 13.210938 40.332031 13.1875 40.332031 13.171875 C 40.289062 13.074219 40.261719 12.984375 40.21875 12.886719 M 40.21875 12.886719 "/>
<path style=" stroke:none;fill-rule:nonzero;fill:rgb(18.823529%,57.647059%,56.078431%);fill-opacity:1;" d="M 29.742188 5.039062 C 31.121094 5.3125 32.296875 5.628906 33.246094 6.054688 C 34.703125 6.699219 35.644531 7.542969 36.089844 8.523438 C 34.734375 8.277344 33.546875 8.351562 32.464844 8.773438 C 40.199219 11.808594 43.84375 15.425781 43.421875 19.601562 C 42.859375 18.726562 42.105469 18.160156 41.148438 17.875 C 42.332031 22.453125 42.464844 26.210938 41.507812 29.195312 C 40.847656 27.207031 40.21875 26.039062 39.679688 25.617188 C 40.433594 31.757812 39.402344 36.300781 36.628906 39.253906 C 37.152344 37.449219 37.378906 35.976562 37.257812 34.8125 C 34 39.671875 30.304688 42.152344 26.148438 42.308594 C 24.507812 42.289062 22.9375 42.074219 21.480469 41.601562 C 19.335938 40.886719 17.394531 39.660156 15.671875 37.929688 C 18.359375 38.148438 20.8125 37.660156 22.976562 36.570312 L 26.539062 34.320312 C 26.988281 33.988281 27.40625 34.019531 27.828125 34.226562 C 28.695312 34.105469 28.941406 33.832031 28.695312 33.023438 C 28.140625 32.542969 27.652344 31.90625 26.839844 31.449219 C 25.0625 30.53125 23.222656 30.480469 21.300781 31.882812 C 19.460938 32.914062 17.695312 32.855469 15.972656 31.757812 C 14.839844 30.988281 13.730469 29.9375 12.679688 28.640625 L 12.289062 28.054688 L 12.289062 28.023438 C 12.339844 26.742188 12.855469 26.050781 13.875 25.894531 C 15.035156 25.996094 16.363281 26.269531 17.859375 26.699219 C 18.109375 25.273438 17.777344 23.785156 16.871094 22.253906 L 16.898438 22.070312 C 18.304688 20.777344 19.457031 19.988281 20.523438 19.386719 C 20.90625 18.867188 21.082031 18.707031 21.359375 18.242188 C 21.296875 18.105469 21.429688 18.019531 21.507812 18.089844 C 21.59375 17.699219 21.589844 17.757812 21.242188 17.257812 C 20.207031 17.511719 19.039062 17.183594 18.246094 16.980469 C 17.839844 16.863281 17.289062 16.621094 16.660156 16.023438 L 15.042969 14.449219 L 14.625 13.894531 L 14.65625 13.707031 C 14.835938 12.472656 15.429688 11.472656 15.910156 10.53125 C 16.4375 9.667969 17.445312 8.71875 18.933594 7.722656 C 16.171875 8.0625 13.675781 9.304688 11.449219 11.425781 C 9.609375 10.757812 7.40625 10.902344 4.894531 11.855469 C 3.332031 11.125 3.429688 10.144531 2.917969 6.796875 C 2.386719 7.386719 1.867188 7.964844 1.390625 8.585938 L 1.390625 41.105469 C 1.390625 43.292969 3.101562 45.054688 5.222656 45.054688 L 41.625 45.054688 C 43.75 45.054688 45.457031 43.292969 45.457031 41.105469 L 45.457031 11.765625 C 43.84375 9.210938 41.257812 7.1875 37.914062 6.179688 C 35.625 5.496094 32.882812 5.132812 29.742188 5.039062 Z M 29.742188 5.039062 "/>
<path style=" stroke:none;fill-rule:nonzero;fill:rgb(0%,0%,0%);fill-opacity:0.101961;" d="M 44.851562 15.777344 C 44.921875 15.898438 44.972656 16.019531 45.039062 16.136719 C 45.03125 16.164062 45.042969 16.191406 45.039062 16.207031 C 45.023438 16.1875 45 16.15625 45 16.136719 C 44.945312 16.015625 44.910156 15.898438 44.851562 15.777344 Z M 44.851562 15.777344 "/>
<path style=" stroke:none;fill-rule:nonzero;fill:rgb(92.941176%,49.803922%,26.27451%);fill-opacity:1;" d="M 44.851562 14.789062 C 44.921875 14.910156 44.972656 15.035156 45.039062 15.152344 C 45.03125 15.175781 45.042969 15.203125 45.039062 15.21875 C 45.023438 15.199219 45 15.171875 45 15.152344 C 44.945312 15.027344 44.910156 14.910156 44.851562 14.789062 Z M 44.851562 14.789062 "/>
</g>
</svg>
