
<svg xmlns="http://www.w3.org/2000/svg" xmlns:xlink="http://www.w3.org/1999/xlink" width="48px" height="48px" viewBox="0 0 48 48" version="1.1">
<defs>
<linearGradient id="linear0" gradientUnits="userSpaceOnUse" x1="-644.89142" y1="-262.48706" x2="-560.57697" y2="-260.20828" gradientTransform="matrix(0.0217777,0.00943866,-0.00943866,0.0217777,44.648934,32.991558)">
<stop offset="0" style="stop-color:rgb(0%,0%,0%);stop-opacity:1;"/>
<stop offset="1" style="stop-color:rgb(0%,0%,0%);stop-opacity:0;"/>
</linearGradient>
<linearGradient id="linear1" gradientUnits="userSpaceOnUse" x1="-644.89142" y1="-262.48706" x2="-560.57697" y2="-260.20828" gradientTransform="matrix(0.0217777,0.00943866,-0.00943866,0.0217777,44.648934,32.991558)">
<stop offset="0" style="stop-color:rgb(0%,0%,0%);stop-opacity:1;"/>
<stop offset="1" style="stop-color:rgb(0%,0%,0%);stop-opacity:0;"/>
</linearGradient>
<linearGradient id="linear2" gradientUnits="userSpaceOnUse" x1="-644.89142" y1="-262.48706" x2="-560.57697" y2="-260.20828" gradientTransform="matrix(0.0217777,0.00943866,-0.00943866,0.0217777,44.648934,32.991558)">
<stop offset="0" style="stop-color:rgb(0%,0%,0%);stop-opacity:1;"/>
<stop offset="1" style="stop-color:rgb(0%,0%,0%);stop-opacity:0;"/>
</linearGradient>
<linearGradient id="linear3" gradientUnits="userSpaceOnUse" x1="-644.89142" y1="-262.48706" x2="-560.57697" y2="-260.20828" gradientTransform="matrix(0.0217777,0.00943866,-0.00943866,0.0217777,44.648934,32.991558)">
<stop offset="0" style="stop-color:rgb(0%,0%,0%);stop-opacity:1;"/>
<stop offset="1" style="stop-color:rgb(0%,0%,0%);stop-opacity:0;"/>
</linearGradient>
<linearGradient id="linear4" gradientUnits="userSpaceOnUse" x1="-644.89142" y1="-262.48706" x2="-560.57697" y2="-260.20828" gradientTransform="matrix(0.0163412,0.00708242,-0.00943866,0.0217777,34.970202,19.998727)">
<stop offset="0" style="stop-color:rgb(0%,0%,0%);stop-opacity:1;"/>
<stop offset="1" style="stop-color:rgb(0%,0%,0%);stop-opacity:0;"/>
</linearGradient>
<linearGradient id="linear5" gradientUnits="userSpaceOnUse" x1="-644.89142" y1="-262.48706" x2="-560.57697" y2="-260.20828" gradientTransform="matrix(0.00471299,-0.01481,0.00841095,0.000275446,39.302386,26.253072)">
<stop offset="0" style="stop-color:rgb(0%,0%,0%);stop-opacity:1;"/>
<stop offset="1" style="stop-color:rgb(0%,0%,0%);stop-opacity:0;"/>
</linearGradient>
<linearGradient id="linear6" gradientUnits="userSpaceOnUse" x1="-644.89142" y1="-262.48706" x2="-560.57697" y2="-260.20828" gradientTransform="matrix(0.00943866,-0.0217777,-0.0217777,-0.00943866,44.648934,32.991558)">
<stop offset="0" style="stop-color:rgb(0%,0%,0%);stop-opacity:1;"/>
<stop offset="1" style="stop-color:rgb(0%,0%,0%);stop-opacity:0;"/>
</linearGradient>
</defs>
<g id="surface1">
<path style="fill-rule:evenodd;fill:rgb(16.078431%,50.196078%,72.54902%);fill-opacity:1;stroke-width:4.588;stroke-linecap:butt;stroke-linejoin:miter;stroke:rgb(41.960784%,75.686275%,100%);stroke-opacity:1;stroke-miterlimit:4;" d="M 18.71875 930.26845 L 109.28125 930.26845 C 116.364583 930.26845 122.09375 935.997617 122.09375 943.08095 L 122.09375 1033.64345 C 122.09375 1040.726783 116.364583 1046.45595 109.28125 1046.45595 L 18.71875 1046.45595 C 11.635417 1046.45595 5.90625 1040.726783 5.90625 1033.64345 L 5.90625 943.08095 C 5.90625 935.997617 11.635417 930.26845 18.71875 930.26845 Z M 18.71875 930.26845 " transform="matrix(0.375,0,0,0.375,0,-346.635825)"/>
<path style=" stroke:none;fill-rule:nonzero;fill:rgb(0%,50.196078%,86.27451%);fill-opacity:1;" d="M 24.03125 6.316406 C 14.285156 6.316406 6.382812 14.21875 6.382812 23.96875 C 6.382812 33.714844 14.285156 41.617188 24.03125 41.617188 C 33.78125 41.617188 41.683594 33.714844 41.683594 23.96875 C 41.683594 14.21875 33.78125 6.316406 24.03125 6.316406 Z M 24.03125 22.070312 C 25.078125 22.070312 25.929688 22.921875 25.929688 23.96875 C 25.929688 25.011719 25.078125 25.863281 24.03125 25.863281 C 22.988281 25.863281 22.136719 25.011719 22.136719 23.96875 C 22.136719 22.921875 22.988281 22.070312 24.03125 22.070312 Z M 24.03125 22.070312 "/>
<path style=" stroke:none;fill-rule:nonzero;fill:rgb(18.823529%,66.27451%,100%);fill-opacity:1;" d="M 24.03125 6.871094 C 14.589844 6.871094 6.933594 14.523438 6.933594 23.96875 C 6.933594 33.410156 14.589844 41.066406 24.03125 41.066406 C 33.476562 41.066406 41.128906 33.410156 41.128906 23.96875 C 41.128906 14.523438 33.476562 6.871094 24.03125 6.871094 Z M 24.03125 22.070312 C 25.078125 22.070312 25.929688 22.921875 25.929688 23.96875 C 25.929688 25.011719 25.078125 25.863281 24.03125 25.863281 C 22.988281 25.863281 22.136719 25.011719 22.136719 23.96875 C 22.136719 22.921875 22.988281 22.070312 24.03125 22.070312 Z M 24.03125 22.070312 "/>
<path style=" stroke:none;fill-rule:nonzero;fill:rgb(41.960784%,75.686275%,100%);fill-opacity:1;" d="M 24.03125 7.730469 C 15.070312 7.730469 7.796875 15.003906 7.796875 23.96875 C 7.796875 32.929688 15.070312 40.203125 24.03125 40.203125 C 32.996094 40.203125 40.269531 32.929688 40.269531 23.96875 C 40.269531 15.003906 32.996094 7.730469 24.03125 7.730469 Z M 24.03125 22.070312 C 25.078125 22.070312 25.929688 22.921875 25.929688 23.96875 C 25.929688 25.011719 25.078125 25.863281 24.03125 25.863281 C 22.988281 25.863281 22.136719 25.011719 22.136719 23.96875 C 22.136719 22.921875 22.988281 22.070312 24.03125 22.070312 Z M 24.03125 22.070312 "/>
<path style="fill-rule:nonzero;fill:rgb(82.745098%,83.529412%,84.313725%);fill-opacity:1;stroke-width:0.774153;stroke-linecap:butt;stroke-linejoin:miter;stroke:rgb(100%,100%,100%);stroke-opacity:1;stroke-miterlimit:4;" d="M 64.083333 974.39345 C 56.427083 974.39345 50.208333 980.6122 50.208333 988.278867 C 50.208333 995.935117 56.427083 1002.153867 64.083333 1002.153867 C 71.75 1002.153867 77.96875 995.935117 77.96875 988.278867 C 77.96875 980.6122 71.75 974.39345 64.083333 974.39345 Z M 64.083333 983.216367 C 66.875 983.216367 69.145833 985.4872 69.145833 988.278867 C 69.145833 991.060117 66.875 993.33095 64.083333 993.33095 C 61.302083 993.33095 59.03125 991.060117 59.03125 988.278867 C 59.03125 985.4872 61.302083 983.216367 64.083333 983.216367 Z M 64.083333 983.216367 " transform="matrix(0.375,0,0,0.375,0,-346.635825)"/>
<path style=" stroke:none;fill-rule:nonzero;fill:rgb(87.843137%,87.843137%,88.627451%);fill-opacity:1;" d="M 24.03125 19.867188 C 21.769531 19.867188 19.929688 21.703125 19.929688 23.96875 C 19.929688 26.230469 21.769531 28.070312 24.03125 28.070312 C 26.296875 28.070312 28.136719 26.230469 28.136719 23.96875 C 28.136719 21.703125 26.296875 19.867188 24.03125 19.867188 Z M 24.03125 22.070312 C 25.078125 22.070312 25.929688 22.921875 25.929688 23.96875 C 25.929688 25.011719 25.078125 25.863281 24.03125 25.863281 C 22.988281 25.863281 22.136719 25.011719 22.136719 23.96875 C 22.136719 22.921875 22.988281 22.070312 24.03125 22.070312 Z M 24.03125 22.070312 "/>
<path style=" stroke:none;fill-rule:nonzero;fill:rgb(10.196078%,10.196078%,10.196078%);fill-opacity:1;" d="M 37.140625 12.835938 L 39.570312 13.886719 L 32.558594 30.066406 L 30.128906 29.011719 Z M 37.140625 12.835938 "/>
<path style=" stroke:none;fill-rule:nonzero;fill:rgb(10.196078%,10.196078%,10.196078%);fill-opacity:1;" d="M 30.085938 29.113281 L 32.515625 30.164062 L 30.460938 33.707031 L 28.96875 33.0625 Z M 30.085938 29.113281 "/>
<path style=" stroke:none;fill-rule:nonzero;fill:rgb(10.196078%,10.196078%,10.196078%);fill-opacity:1;" d="M 29.203125 33.28125 L 30.074219 33.660156 L 28.742188 35.742188 C 28.742188 35.742188 29.117188 33.875 29.203125 33.28125 Z M 29.203125 33.28125 "/>
<path style=" stroke:none;fill-rule:nonzero;fill:rgb(10.196078%,10.196078%,10.196078%);fill-opacity:1;" d="M 40.171875 10.433594 C 39.960938 9.980469 39.628906 9.929688 39.25 10.035156 L 37.949219 13.039062 L 38.871094 13.4375 Z M 40.171875 10.433594 "/>
<path style=" stroke:none;fill-rule:nonzero;fill:rgb(10.196078%,10.196078%,10.196078%);fill-opacity:1;" d="M 40.3125 14.234375 L 40.78125 14.4375 L 38.089844 20.644531 L 37.621094 20.445312 Z M 40.3125 14.234375 "/>
<path style=" stroke:none;fill-rule:nonzero;fill:rgb(10.196078%,10.196078%,10.196078%);fill-opacity:1;" d="M 38.113281 19.144531 L 37.578125 20.371094 L 37.308594 19.515625 Z M 38.113281 19.144531 "/>
<path style=" stroke:none;fill-rule:nonzero;fill:rgb(10.196078%,10.196078%,10.196078%);fill-opacity:1;" d="M 39.914062 14.796875 L 40.183594 14.175781 L 39.671875 13.957031 L 39.402344 14.574219 Z M 39.914062 14.796875 "/>
<path style=" stroke:none;fill-rule:nonzero;fill:url(#linear0);" d="M 37.140625 12.835938 L 39.570312 13.886719 L 32.558594 30.066406 L 30.128906 29.011719 Z M 37.140625 12.835938 "/>
<path style=" stroke:none;fill-rule:nonzero;fill:url(#linear1);" d="M 30.085938 29.113281 L 32.515625 30.164062 L 30.460938 33.707031 L 28.96875 33.0625 Z M 30.085938 29.113281 "/>
<path style=" stroke:none;fill-rule:nonzero;fill:url(#linear2);" d="M 29.203125 33.28125 L 30.074219 33.660156 L 28.742188 35.742188 C 28.742188 35.742188 29.117188 33.875 29.203125 33.28125 Z M 29.203125 33.28125 "/>
<path style=" stroke:none;fill-rule:nonzero;fill:url(#linear3);" d="M 40.171875 10.433594 C 39.960938 9.980469 39.628906 9.929688 39.25 10.035156 L 37.949219 13.039062 L 38.871094 13.4375 Z M 40.171875 10.433594 "/>
<path style=" stroke:none;fill-rule:nonzero;fill:url(#linear4);" d="M 40.3125 14.234375 L 40.78125 14.4375 L 38.089844 20.644531 L 37.621094 20.445312 Z M 40.3125 14.234375 "/>
<path style=" stroke:none;fill-rule:nonzero;fill:url(#linear5);" d="M 38.113281 19.144531 L 37.578125 20.371094 L 37.308594 19.515625 Z M 38.113281 19.144531 "/>
<path style=" stroke:none;fill-rule:nonzero;fill:url(#linear6);" d="M 39.914062 14.796875 L 40.183594 14.175781 L 39.671875 13.957031 L 39.402344 14.574219 Z M 39.914062 14.796875 "/>
</g>
</svg>
