
<svg xmlns="http://www.w3.org/2000/svg" xmlns:xlink="http://www.w3.org/1999/xlink" width="48px" height="48px" viewBox="0 0 48 48" version="1.1">
<g id="surface1">
<path style=" stroke:none;fill-rule:evenodd;fill:rgb(0%,33.333333%,83.137255%);fill-opacity:1;" d="M 7.363281 3.003906 L 40.699219 3.003906 C 43.289062 3.003906 45.386719 5.101562 45.386719 7.691406 L 45.386719 40.417969 C 45.386719 43.007812 43.289062 45.105469 40.699219 45.105469 L 7.363281 45.105469 C 4.773438 45.105469 2.675781 43.007812 2.675781 40.417969 L 2.675781 7.691406 C 2.675781 5.101562 4.773438 3.003906 7.363281 3.003906 Z M 7.363281 3.003906 "/>
<path style="fill-rule:nonzero;fill:rgb(64.705882%,64.705882%,64.705882%);fill-opacity:1;stroke-width:18.134258;stroke-linecap:butt;stroke-linejoin:miter;stroke:rgb(100%,100%,100%);stroke-opacity:1;stroke-miterlimit:4;" d="M -84.599014 273.357403 C -84.599014 378.789804 -180.770484 464.275534 -299.381964 464.275534 C -417.993445 464.275534 -514.164915 378.789804 -514.164915 273.357403 C -514.164915 167.925003 -417.993445 82.439273 -299.381964 82.439273 C -180.770484 82.439273 -84.599014 167.925003 -84.599014 273.357403 Z M -84.599014 273.357403 " transform="matrix(0.0828598,0,0,0.0932173,48.861421,-1.395705)"/>
<path style=" stroke:none;fill-rule:nonzero;fill:rgb(100%,100%,100%);fill-opacity:1;" d="M 19.882812 22.167969 L 19.882812 31.617188 L 14.480469 31.617188 L 23.929688 41.0625 L 33.378906 31.617188 L 27.980469 31.617188 L 27.980469 22.167969 Z M 19.882812 22.167969 "/>
<path style=" stroke:none;fill-rule:nonzero;fill:rgb(100%,100%,100%);fill-opacity:1;" d="M 27.980469 25.964844 L 27.980469 16.515625 L 33.378906 16.515625 L 23.929688 7.066406 L 14.480469 16.515625 L 19.878906 16.515625 L 19.878906 25.964844 Z M 27.980469 25.964844 "/>
<path style=" stroke:none;fill-rule:evenodd;fill:rgb(0%,33.333333%,83.137255%);fill-opacity:1;" d="M 14.859375 17.71875 L 32.953125 17.71875 C 34.527344 17.71875 35.804688 18.996094 35.804688 20.570312 L 35.804688 24.425781 C 35.804688 26 34.527344 27.277344 32.953125 27.277344 L 14.859375 27.277344 C 13.285156 27.277344 12.007812 26 12.007812 24.425781 L 12.007812 20.570312 C 12.007812 18.996094 13.285156 17.71875 14.859375 17.71875 Z M 14.859375 17.71875 "/>
</g>
</svg>
