
<svg xmlns="http://www.w3.org/2000/svg" xmlns:xlink="http://www.w3.org/1999/xlink" width="48px" height="48px" viewBox="0 0 48 48" version="1.1">
<g id="surface1">
<path style="fill-rule:nonzero;fill:rgb(72.941176%,9.019608%,30.588235%);fill-opacity:1;stroke-width:27.878233;stroke-linecap:butt;stroke-linejoin:miter;stroke:rgb(79.215686%,35.686275%,50.588235%);stroke-opacity:1;stroke-miterlimit:4;" d="M 83.416667 27.666667 L 428.583333 27.666667 C 459.375 27.666667 484.333333 52.625 484.333333 83.416667 L 484.333333 428.583333 C 484.333333 459.375 459.375 484.333333 428.583333 484.333333 L 83.416667 484.333333 C 52.625 484.333333 27.666667 459.375 27.666667 428.583333 L 27.666667 83.416667 C 27.666667 52.625 52.625 27.666667 83.416667 27.666667 Z M 83.416667 27.666667 " transform="matrix(0.09375,0,0,0.09375,0,0)"/>
<path style=" stroke:none;fill-rule:evenodd;fill:rgb(100%,100%,100%);fill-opacity:1;" d="M 31.636719 12.871094 C 30.78125 13.679688 28.800781 15.378906 28.800781 15.378906 L 33.441406 20.050781 C 33.441406 20.050781 35.449219 17.988281 36.355469 17.132812 C 36.578125 16.917969 36.550781 16.441406 36.324219 16.230469 C 35.621094 15.566406 34.457031 14.488281 34.457031 14.488281 C 34.457031 14.488281 33.359375 13.445312 32.683594 12.804688 C 32.433594 12.574219 31.882812 12.636719 31.636719 12.871094 Z M 26.765625 17.046875 L 14.367188 28.722656 L 14.476562 33.34375 L 19.3125 33.316406 L 31.574219 21.746094 Z M 26.765625 17.046875 "/>
</g>
</svg>
