
<svg xmlns="http://www.w3.org/2000/svg" xmlns:xlink="http://www.w3.org/1999/xlink" width="48px" height="48px" viewBox="0 0 48 48" version="1.1">
<g id="surface1">
<path style="fill-rule:nonzero;fill:rgb(99.215686%,23.529412%,33.333333%);fill-opacity:1;stroke-width:28.191782;stroke-linecap:butt;stroke-linejoin:miter;stroke:rgb(96.862745%,80%,81.960784%);stroke-opacity:1;stroke-miterlimit:4;" d="M 81.5 25.083333 L 430.5 25.083333 C 461.666667 25.083333 486.916667 50.333333 486.916667 81.5 L 486.916667 430.5 C 486.916667 461.666667 461.666667 486.916667 430.5 486.916667 L 81.5 486.916667 C 50.333333 486.916667 25.083333 461.666667 25.083333 430.5 L 25.083333 81.5 C 25.083333 50.333333 50.333333 25.083333 81.5 25.083333 Z M 81.5 25.083333 " transform="matrix(0.09375,0,0,0.09375,0,0)"/>
<path style=" stroke:none;fill-rule:nonzero;fill:rgb(100%,98.039216%,98.039216%);fill-opacity:1;" d="M 16.949219 37.445312 C 18.84375 36.90625 20.132812 35.542969 20.382812 33.800781 C 20.445312 33.371094 20.492188 30.097656 20.492188 25.964844 L 20.496094 18.867188 L 20.734375 18.710938 C 21.5625 18.183594 26.074219 17.324219 30.398438 16.867188 C 31.847656 16.710938 32.113281 16.707031 32.195312 16.835938 C 32.25 16.917969 32.28125 19.0625 32.265625 21.648438 L 32.238281 26.308594 L 31.320312 26.273438 C 30.132812 26.226562 29.316406 26.382812 28.351562 26.839844 C 27.339844 27.320312 26.589844 28.027344 26.152344 28.921875 C 25.839844 29.554688 25.804688 29.726562 25.804688 30.542969 C 25.808594 31.640625 26.027344 32.207031 26.761719 32.992188 C 28.160156 34.484375 30.625 34.796875 32.714844 33.75 C 34.09375 33.058594 34.957031 31.9375 35.183594 30.527344 C 35.253906 30.09375 35.296875 26.023438 35.296875 19.265625 C 35.296875 9.230469 35.285156 8.679688 35.105469 8.582031 C 34.707031 8.367188 30.8125 8.730469 27.679688 9.273438 C 24.535156 9.816406 18.113281 11.382812 17.734375 11.699219 C 17.628906 11.785156 17.59375 13.742188 17.570312 20.722656 L 17.542969 29.632812 L 16.363281 29.601562 C 15.53125 29.574219 15 29.617188 14.550781 29.738281 C 13.148438 30.113281 11.929688 31.066406 11.351562 32.238281 C 11.039062 32.875 11.003906 33.046875 11.003906 33.863281 C 11.007812 34.96875 11.261719 35.578125 12.046875 36.363281 C 13.230469 37.554688 15.105469 37.964844 16.949219 37.445312 Z M 16.949219 37.445312 "/>
</g>
</svg>
