
<svg xmlns="http://www.w3.org/2000/svg" xmlns:xlink="http://www.w3.org/1999/xlink" width="48px" height="48px" viewBox="0 0 48 48" version="1.1">
<g id="surface1">
<path style="fill-rule:nonzero;fill:rgb(92.54902%,92.54902%,92.54902%);fill-opacity:1;stroke-width:53.405071;stroke-linecap:butt;stroke-linejoin:miter;stroke:rgb(0%,66.666667%,83.137255%);stroke-opacity:1;stroke-miterlimit:4;" d="M 181.416667 74.583333 L 842.583333 74.583333 C 901.583333 74.583333 949.416667 122.416667 949.416667 181.416667 L 949.416667 842.583333 C 949.416667 901.583333 901.583333 949.416667 842.583333 949.416667 L 181.416667 949.416667 C 122.416667 949.416667 74.583333 901.583333 74.583333 842.583333 L 74.583333 181.416667 C 74.583333 122.416667 122.416667 74.583333 181.416667 74.583333 Z M 181.416667 74.583333 " transform="matrix(0.046875,0,0,0.046875,0,0)"/>
<path style=" stroke:none;fill-rule:nonzero;fill:rgb(0%,0%,0%);fill-opacity:0.0980392;" d="M 37.394531 10.675781 C 37.386719 10.226562 37.226562 9.84375 36.910156 9.527344 C 36.589844 9.195312 36.199219 9.03125 35.742188 9.03125 L 13.441406 9.03125 C 12.984375 9.03125 12.59375 9.195312 12.273438 9.527344 C 11.960938 9.84375 11.796875 10.230469 11.789062 10.675781 L 11.789062 39.125 C 11.789062 39.59375 11.949219 39.992188 12.273438 40.320312 C 12.59375 40.648438 12.984375 40.8125 13.441406 40.8125 L 35.742188 40.8125 C 36.199219 40.8125 36.589844 40.648438 36.910156 40.320312 C 37.234375 39.992188 37.394531 39.59375 37.394531 39.125 Z M 37.394531 10.675781 "/>
<path style=" stroke:none;fill-rule:nonzero;fill:rgb(80%,80%,80%);fill-opacity:1;" d="M 37.179688 9.4375 C 36.851562 9.105469 36.453125 8.941406 35.984375 8.941406 L 13.238281 8.941406 C 12.773438 8.941406 12.375 9.105469 12.046875 9.4375 C 11.726562 9.753906 11.5625 10.140625 11.550781 10.585938 L 11.550781 35.03125 C 11.5625 35.480469 11.726562 35.863281 12.046875 36.179688 C 12.375 36.511719 12.773438 36.675781 13.238281 36.675781 L 35.984375 36.675781 C 36.453125 36.675781 36.851562 36.511719 37.179688 36.179688 C 37.496094 35.863281 37.664062 35.480469 37.671875 35.03125 L 37.671875 10.585938 C 37.664062 10.140625 37.496094 9.753906 37.179688 9.4375 Z M 37.179688 9.4375 "/>
<path style=" stroke:none;fill-rule:nonzero;fill:rgb(52.54902%,51.372549%,48.627451%);fill-opacity:0.988235;" d="M 12.046875 36.179688 C 11.726562 35.863281 11.5625 35.480469 11.550781 35.03125 L 11.550781 39.039062 C 11.550781 39.503906 11.71875 39.902344 12.046875 40.230469 C 12.375 40.558594 12.773438 40.722656 13.238281 40.722656 L 35.984375 40.722656 C 36.453125 40.722656 36.851562 40.558594 37.179688 40.230469 C 37.507812 39.902344 37.671875 39.503906 37.671875 39.039062 L 37.671875 35.03125 C 37.664062 35.480469 37.496094 35.863281 37.179688 36.179688 C 36.851562 36.511719 36.453125 36.675781 35.984375 36.675781 L 13.238281 36.675781 C 12.773438 36.675781 12.375 36.511719 12.046875 36.179688 Z M 12.046875 36.179688 "/>
<path style=" stroke:none;fill-rule:nonzero;fill:rgb(23.137255%,22.745098%,21.176471%);fill-opacity:1;" d="M 24.375 37.945312 C 24.375 37.757812 24.308594 37.597656 24.175781 37.464844 C 24.046875 37.335938 23.886719 37.269531 23.699219 37.269531 L 13.511719 37.269531 C 13.324219 37.269531 13.164062 37.335938 13.03125 37.464844 C 12.902344 37.597656 12.835938 37.757812 12.835938 37.945312 L 12.835938 38.222656 C 12.835938 38.40625 12.902344 38.566406 13.03125 38.699219 C 13.164062 38.828125 13.324219 38.894531 13.511719 38.894531 L 23.699219 38.894531 C 23.886719 38.894531 24.046875 38.828125 24.175781 38.699219 C 24.308594 38.566406 24.375 38.40625 24.375 38.222656 Z M 24.375 37.945312 "/>
<path style=" stroke:none;fill-rule:nonzero;fill:rgb(0%,0%,0%);fill-opacity:0.2;" d="M 35.5625 37.746094 C 35.417969 37.601562 35.238281 37.527344 35.027344 37.527344 C 34.820312 37.527344 34.640625 37.601562 34.492188 37.746094 C 34.347656 37.894531 34.273438 38.074219 34.273438 38.285156 C 34.273438 38.492188 34.347656 38.671875 34.492188 38.816406 C 34.640625 38.964844 34.820312 39.039062 35.027344 39.039062 C 35.238281 39.039062 35.417969 38.964844 35.5625 38.816406 C 35.710938 38.671875 35.785156 38.492188 35.785156 38.285156 C 35.785156 38.074219 35.710938 37.894531 35.5625 37.746094 Z M 33.375 38.285156 C 33.375 38.074219 33.300781 37.894531 33.152344 37.746094 C 33.007812 37.601562 32.828125 37.527344 32.617188 37.527344 C 32.410156 37.527344 32.230469 37.601562 32.082031 37.746094 C 31.933594 37.894531 31.859375 38.074219 31.859375 38.285156 C 31.859375 38.492188 31.933594 38.671875 32.082031 38.816406 C 32.230469 38.964844 32.410156 39.039062 32.617188 39.039062 C 32.828125 39.039062 33.007812 38.964844 33.152344 38.816406 C 33.300781 38.671875 33.375 38.492188 33.375 38.285156 Z M 33.375 38.285156 "/>
<path style=" stroke:none;fill-rule:nonzero;fill:rgb(100%,100%,100%);fill-opacity:0.0980392;" d="M 30.628906 28.632812 C 32.410156 26.847656 33.304688 24.699219 33.304688 22.175781 C 33.304688 19.652344 32.414062 17.503906 30.628906 15.71875 C 28.847656 13.9375 26.695312 13.046875 24.171875 13.046875 C 21.652344 13.046875 19.5 13.9375 17.71875 15.71875 C 15.933594 17.503906 15.042969 19.652344 15.042969 22.175781 C 15.042969 24.699219 15.933594 26.847656 17.71875 28.632812 C 19.5 30.414062 21.652344 31.304688 24.171875 31.304688 C 26.695312 31.304688 28.847656 30.414062 30.628906 28.632812 Z M 30.628906 28.632812 "/>
<path style=" stroke:none;fill-rule:nonzero;fill:rgb(80%,80%,0%);fill-opacity:1;" d="M 34.867188 38.703125 C 35.078125 38.703125 35.257812 38.628906 35.402344 38.480469 C 35.550781 38.332031 35.625 38.15625 35.625 37.945312 C 35.625 37.738281 35.550781 37.558594 35.402344 37.410156 C 35.257812 37.261719 35.078125 37.1875 34.867188 37.1875 C 34.660156 37.1875 34.480469 37.261719 34.332031 37.410156 C 34.183594 37.558594 34.113281 37.738281 34.113281 37.945312 C 34.113281 38.15625 34.183594 38.332031 34.332031 38.480469 C 34.480469 38.628906 34.660156 38.703125 34.867188 38.703125 Z M 33.214844 37.945312 C 33.214844 37.738281 33.140625 37.558594 32.992188 37.410156 C 32.847656 37.261719 32.667969 37.1875 32.457031 37.1875 C 32.25 37.1875 32.070312 37.261719 31.921875 37.410156 C 31.773438 37.558594 31.699219 37.738281 31.699219 37.945312 C 31.699219 38.15625 31.773438 38.332031 31.921875 38.480469 C 32.070312 38.628906 32.25 38.703125 32.457031 38.703125 C 32.667969 38.703125 32.847656 38.628906 32.992188 38.480469 C 33.140625 38.332031 33.214844 38.15625 33.214844 37.945312 Z M 33.214844 37.945312 "/>
<path style=" stroke:none;fill-rule:nonzero;fill:rgb(100%,100%,100%);fill-opacity:1;" d="M 29.605469 22.15625 C 29.605469 19.246094 27.1875 16.886719 24.207031 16.886719 C 21.226562 16.886719 18.808594 19.246094 18.808594 22.15625 C 18.808594 25.066406 21.226562 27.425781 24.207031 27.425781 C 27.1875 27.425781 29.605469 25.066406 29.605469 22.15625 Z M 29.605469 22.15625 "/>
<path style=" stroke:none;fill-rule:nonzero;fill:rgb(52.54902%,56.470588%,58.039216%);fill-opacity:1;" d="M 23.050781 30.421875 C 22.90625 30.355469 22.75 30.191406 22.679688 30.023438 C 22.644531 29.941406 22.609375 29.613281 22.582031 29.089844 C 22.554688 28.648438 22.519531 28.253906 22.503906 28.207031 C 22.484375 28.152344 22.382812 28.097656 22.128906 28.007812 C 21.941406 27.941406 21.652344 27.824219 21.492188 27.742188 C 21.332031 27.660156 21.167969 27.597656 21.125 27.597656 C 21.074219 27.597656 20.8125 27.808594 20.441406 28.152344 C 20.109375 28.457031 19.78125 28.734375 19.714844 28.769531 C 19.582031 28.835938 19.277344 28.847656 19.117188 28.789062 C 18.992188 28.742188 17.667969 27.4375 17.585938 27.277344 C 17.5 27.121094 17.507812 26.824219 17.605469 26.640625 C 17.648438 26.558594 17.925781 26.226562 18.226562 25.902344 C 18.546875 25.554688 18.769531 25.285156 18.769531 25.238281 C 18.769531 25.199219 18.703125 25.035156 18.625 24.875 C 18.542969 24.714844 18.421875 24.425781 18.355469 24.238281 C 18.289062 24.046875 18.210938 23.878906 18.175781 23.859375 C 18.144531 23.84375 17.753906 23.808594 17.3125 23.785156 C 16.796875 23.757812 16.453125 23.722656 16.351562 23.683594 C 16.160156 23.617188 15.941406 23.382812 15.910156 23.214844 C 15.898438 23.148438 15.894531 22.644531 15.898438 22.09375 L 15.910156 21.097656 L 16.023438 20.957031 C 16.226562 20.703125 16.324219 20.675781 17.289062 20.617188 C 17.835938 20.582031 18.167969 20.546875 18.195312 20.519531 C 18.222656 20.496094 18.304688 20.308594 18.378906 20.101562 C 18.457031 19.894531 18.574219 19.613281 18.644531 19.476562 C 18.714844 19.339844 18.769531 19.195312 18.769531 19.15625 C 18.769531 19.121094 18.542969 18.839844 18.261719 18.53125 C 17.980469 18.226562 17.714844 17.921875 17.667969 17.859375 C 17.535156 17.683594 17.488281 17.46875 17.542969 17.253906 C 17.582031 17.09375 17.65625 17.003906 18.261719 16.390625 C 18.632812 16.011719 19 15.671875 19.078125 15.632812 C 19.253906 15.539062 19.535156 15.539062 19.710938 15.628906 C 19.785156 15.667969 20.109375 15.941406 20.433594 16.238281 C 20.753906 16.53125 21.042969 16.789062 21.066406 16.804688 C 21.097656 16.820312 21.269531 16.757812 21.480469 16.65625 C 21.683594 16.5625 21.984375 16.4375 22.148438 16.382812 C 22.375 16.304688 22.460938 16.257812 22.492188 16.191406 C 22.515625 16.140625 22.554688 15.742188 22.582031 15.300781 C 22.628906 14.449219 22.660156 14.316406 22.832031 14.132812 C 23.027344 13.929688 23.140625 13.910156 24.230469 13.921875 L 25.222656 13.933594 L 25.378906 14.039062 C 25.644531 14.214844 25.679688 14.324219 25.742188 15.269531 C 25.769531 15.726562 25.804688 16.136719 25.816406 16.183594 C 25.828125 16.242188 25.910156 16.289062 26.175781 16.382812 C 26.367188 16.445312 26.667969 16.574219 26.847656 16.667969 C 27.03125 16.757812 27.191406 16.832031 27.210938 16.832031 C 27.226562 16.832031 27.519531 16.578125 27.855469 16.269531 C 28.191406 15.960938 28.53125 15.671875 28.609375 15.632812 C 28.789062 15.539062 29.054688 15.539062 29.253906 15.636719 C 29.347656 15.679688 29.664062 15.96875 30.066406 16.375 C 30.75 17.066406 30.804688 17.144531 30.804688 17.457031 C 30.804688 17.679688 30.707031 17.824219 30.117188 18.472656 C 29.796875 18.824219 29.535156 19.125 29.535156 19.144531 C 29.535156 19.164062 29.617188 19.351562 29.71875 19.566406 C 29.824219 19.777344 29.945312 20.078125 29.992188 20.226562 C 30.050781 20.417969 30.101562 20.515625 30.152344 20.535156 C 30.191406 20.554688 30.605469 20.589844 31.070312 20.621094 C 31.988281 20.679688 32.136719 20.714844 32.292969 20.933594 C 32.4375 21.136719 32.457031 21.292969 32.441406 22.292969 L 32.429688 23.253906 L 32.320312 23.414062 C 32.117188 23.699219 32.066406 23.714844 31.042969 23.78125 C 30.546875 23.8125 30.128906 23.847656 30.117188 23.859375 C 30.105469 23.871094 30.046875 24.03125 29.980469 24.214844 C 29.914062 24.398438 29.789062 24.699219 29.695312 24.878906 C 29.605469 25.0625 29.535156 25.234375 29.542969 25.261719 C 29.546875 25.289062 29.796875 25.574219 30.09375 25.902344 C 30.394531 26.226562 30.675781 26.566406 30.722656 26.65625 C 30.820312 26.851562 30.828125 27.054688 30.746094 27.25 C 30.675781 27.421875 29.460938 28.65625 29.265625 28.757812 C 29.101562 28.84375 28.800781 28.851562 28.625 28.777344 C 28.5625 28.746094 28.230469 28.46875 27.890625 28.160156 C 27.550781 27.851562 27.246094 27.597656 27.214844 27.597656 C 27.179688 27.597656 26.988281 27.671875 26.789062 27.765625 C 26.589844 27.859375 26.289062 27.980469 26.128906 28.035156 C 25.902344 28.109375 25.828125 28.148438 25.8125 28.210938 C 25.804688 28.253906 25.769531 28.660156 25.742188 29.121094 C 25.675781 30.125 25.636719 30.234375 25.285156 30.414062 C 25.183594 30.464844 25.015625 30.472656 24.164062 30.472656 C 23.410156 30.472656 23.132812 30.457031 23.050781 30.421875 Z M 24.527344 25.949219 C 25.429688 25.855469 26.183594 25.496094 26.828125 24.851562 C 27.316406 24.359375 27.632812 23.8125 27.824219 23.117188 C 27.941406 22.683594 27.941406 21.722656 27.820312 21.28125 C 27.457031 19.945312 26.5 18.960938 25.179688 18.5625 C 24.871094 18.472656 24.789062 18.460938 24.191406 18.460938 C 23.617188 18.457031 23.496094 18.46875 23.21875 18.542969 C 21.828125 18.925781 20.761719 20.042969 20.472656 21.429688 C 20.210938 22.675781 20.59375 23.945312 21.503906 24.859375 C 21.980469 25.339844 22.597656 25.691406 23.265625 25.863281 C 23.457031 25.914062 23.730469 25.953125 24.113281 25.984375 C 24.144531 25.984375 24.332031 25.96875 24.527344 25.949219 Z M 23.597656 24.382812 C 22.644531 24.125 21.980469 23.3125 21.921875 22.339844 C 21.878906 21.660156 22.097656 21.085938 22.582031 20.605469 C 23.460938 19.730469 24.863281 19.722656 25.730469 20.585938 C 26.445312 21.300781 26.617188 22.3125 26.175781 23.203125 C 25.796875 23.960938 25.101562 24.410156 24.246094 24.441406 C 23.953125 24.453125 23.8125 24.441406 23.597656 24.382812 Z M 24.664062 23.441406 C 24.929688 23.34375 25.242188 23.050781 25.375 22.78125 C 25.46875 22.589844 25.480469 22.527344 25.480469 22.195312 C 25.480469 21.839844 25.472656 21.808594 25.351562 21.585938 C 25.105469 21.132812 24.742188 20.902344 24.226562 20.875 C 23.8125 20.855469 23.566406 20.945312 23.269531 21.214844 C 22.890625 21.5625 22.738281 22.042969 22.859375 22.515625 C 22.964844 22.925781 23.1875 23.207031 23.5625 23.394531 C 23.914062 23.574219 24.273438 23.585938 24.664062 23.441406 Z M 24.664062 23.441406 "/>
</g>
</svg>
