
<svg xmlns="http://www.w3.org/2000/svg" xmlns:xlink="http://www.w3.org/1999/xlink" width="48px" height="48px" viewBox="0 0 48 48" version="1.1">
<g id="surface1">
<path style="fill-rule:nonzero;fill:rgb(80%,80%,80%);fill-opacity:1;stroke-width:26.147526;stroke-linecap:butt;stroke-linejoin:miter;stroke:rgb(32.941176%,32.941176%,32.941176%);stroke-opacity:1;stroke-miterlimit:4;" d="M 98.916667 49.333333 L 422.666667 49.333333 C 451.541667 49.333333 474.958333 72.75 474.958333 101.625 L 474.958333 425.333333 C 474.958333 454.25 451.541667 477.625 422.666667 477.625 L 98.916667 477.625 C 70.041667 477.625 46.625 454.25 46.625 425.333333 L 46.625 101.625 C 46.625 72.75 70.041667 49.333333 98.916667 49.333333 Z M 98.916667 49.333333 " transform="matrix(0.09375,0,0,0.09375,0,0)"/>
<path style=" stroke:none;fill-rule:nonzero;fill:rgb(16.470588%,49.803922%,100%);fill-opacity:1;" d="M 41.242188 23.128906 C 40.886719 22.632812 40.496094 22.160156 40.101562 21.699219 C 37.980469 19.214844 35.542969 17.003906 32.875 15.394531 C 31.171875 14.367188 29.347656 13.539062 27.460938 13.140625 C 26.5 12.941406 25.558594 12.839844 24.566406 12.835938 C 23.605469 12.835938 22.644531 12.941406 21.683594 13.140625 C 19.792969 13.539062 17.972656 14.367188 16.269531 15.394531 C 13.601562 17.003906 11.164062 19.21875 9.035156 21.699219 C 8.644531 22.160156 8.261719 22.628906 7.90625 23.128906 C 7.421875 23.792969 7.421875 24.578125 7.90625 25.242188 C 8.988281 26.761719 10.28125 28.109375 11.589844 29.347656 C 14.421875 32.003906 17.660156 34.230469 21.234375 35.125 C 22.339844 35.402344 23.445312 35.539062 24.558594 35.539062 C 25.6875 35.539062 26.785156 35.402344 27.890625 35.125 C 31.464844 34.230469 34.707031 32.003906 37.542969 29.347656 C 38.859375 28.113281 40.148438 26.761719 41.234375 25.242188 C 41.710938 24.578125 41.710938 23.792969 41.234375 23.128906 M 41.234375 23.128906 "/>
<path style=" stroke:none;fill-rule:nonzero;fill:rgb(100%,100%,100%);fill-opacity:1;" d="M 39.339844 23.25 C 39.027344 22.808594 38.679688 22.394531 38.328125 21.984375 C 36.449219 19.78125 34.292969 17.820312 31.929688 16.398438 C 30.421875 15.488281 28.804688 14.753906 27.128906 14.402344 C 26.277344 14.222656 25.445312 14.132812 24.566406 14.128906 C 23.714844 14.128906 22.863281 14.222656 22.011719 14.402344 C 20.335938 14.753906 18.726562 15.488281 17.214844 16.398438 C 14.851562 17.820312 12.691406 19.785156 10.804688 21.984375 C 10.460938 22.390625 10.121094 22.808594 9.804688 23.25 C 9.375 23.839844 9.375 24.53125 9.804688 25.121094 C 10.765625 26.46875 11.910156 27.660156 13.070312 28.757812 C 15.578125 31.113281 18.449219 33.085938 21.613281 33.878906 C 22.59375 34.125 23.574219 34.242188 24.558594 34.242188 C 25.558594 34.242188 26.535156 34.125 27.511719 33.878906 C 30.679688 33.085938 33.554688 31.113281 36.0625 28.757812 C 37.230469 27.664062 38.371094 26.46875 39.335938 25.121094 C 39.757812 24.53125 39.757812 23.839844 39.335938 23.25 M 39.335938 23.25 "/>
<path style=" stroke:none;fill-rule:nonzero;fill:rgb(83.137255%,0%,0%);fill-opacity:1;" d="M 32.117188 24.1875 C 32.117188 28.351562 28.738281 31.730469 24.574219 31.730469 C 20.410156 31.730469 17.03125 28.351562 17.03125 24.1875 C 17.03125 20.023438 20.40625 16.644531 24.574219 16.644531 C 28.738281 16.644531 32.117188 20.019531 32.117188 24.1875 M 32.117188 24.1875 "/>
<path style=" stroke:none;fill-rule:nonzero;fill:rgb(0%,0%,0%);fill-opacity:1;" d="M 28.765625 24.1875 C 28.765625 26.496094 26.886719 28.375 24.574219 28.375 C 22.257812 28.375 20.382812 26.496094 20.382812 24.1875 C 20.382812 21.871094 22.257812 19.996094 24.574219 19.996094 C 26.886719 19.996094 28.765625 21.871094 28.765625 24.1875 M 28.765625 24.1875 "/>
</g>
</svg>
