
<svg xmlns="http://www.w3.org/2000/svg" xmlns:xlink="http://www.w3.org/1999/xlink" width="48px" height="48px" viewBox="0 0 48 48" version="1.1">
<g id="surface1">
<path style="fill-rule:nonzero;fill:rgb(98.431373%,94.901961%,94.901961%);fill-opacity:1;stroke-width:25.1982;stroke-linecap:butt;stroke-linejoin:miter;stroke:rgb(0%,34.509804%,41.960784%);stroke-opacity:1;stroke-miterlimit:4;" d="M 78.125 38.583333 L 433.875 38.583333 C 452.958333 38.583333 468.458333 54.083333 468.458333 73.208333 L 468.458333 438.791667 C 468.458333 457.916667 452.958333 473.416667 433.875 473.416667 L 78.125 473.416667 C 59.041667 473.416667 43.541667 457.916667 43.541667 438.791667 L 43.541667 73.208333 C 43.541667 54.083333 59.041667 38.583333 78.125 38.583333 Z M 78.125 38.583333 " transform="matrix(0.09375,0,0,0.09375,0,0)"/>
<path style=" stroke:none;fill-rule:evenodd;fill:rgb(26.27451%,31.372549%,36.078431%);fill-opacity:1;" d="M 33.914062 6.96875 C 35.367188 6.96875 36.542969 8.308594 36.542969 9.957031 L 36.542969 39.125 C 36.542969 40.773438 35.367188 42.109375 33.914062 42.109375 C 32.464844 42.109375 31.289062 40.773438 31.289062 39.125 L 31.289062 9.957031 C 31.289062 8.308594 32.464844 6.96875 33.914062 6.96875 Z M 33.914062 6.96875 "/>
<path style=" stroke:none;fill-rule:evenodd;fill:rgb(26.27451%,31.372549%,36.078431%);fill-opacity:1;" d="M 33.914062 7.90625 C 34.914062 7.90625 35.722656 8.929688 35.722656 10.1875 L 35.722656 38.914062 C 35.722656 40.171875 34.914062 41.195312 33.914062 41.195312 C 32.917969 41.195312 32.105469 40.171875 32.105469 38.914062 L 32.105469 10.1875 C 32.105469 8.929688 32.917969 7.90625 33.914062 7.90625 Z M 33.914062 7.90625 "/>
<path style=" stroke:none;fill-rule:nonzero;fill:rgb(16.470588%,16.470588%,100%);fill-opacity:1;" d="M 38.804688 17.054688 C 38.804688 19.640625 36.710938 21.734375 34.125 21.734375 C 31.539062 21.734375 29.441406 19.640625 29.441406 17.054688 C 29.441406 14.46875 31.539062 12.371094 34.125 12.371094 C 36.710938 12.371094 38.804688 14.46875 38.804688 17.054688 Z M 38.804688 17.054688 "/>
<path style=" stroke:none;fill-rule:evenodd;fill:rgb(26.27451%,31.372549%,36.078431%);fill-opacity:1;" d="M 24.171875 6.96875 C 25.621094 6.96875 26.796875 8.308594 26.796875 9.957031 L 26.796875 39.125 C 26.796875 40.773438 25.621094 42.109375 24.171875 42.109375 C 22.71875 42.109375 21.542969 40.773438 21.542969 39.125 L 21.542969 9.957031 C 21.542969 8.308594 22.71875 6.96875 24.171875 6.96875 Z M 24.171875 6.96875 "/>
<path style=" stroke:none;fill-rule:evenodd;fill:rgb(26.27451%,31.372549%,36.078431%);fill-opacity:1;" d="M 24.171875 7.90625 C 25.167969 7.90625 25.980469 8.929688 25.980469 10.1875 L 25.980469 38.914062 C 25.980469 40.171875 25.167969 41.195312 24.171875 41.195312 C 23.171875 41.195312 22.363281 40.171875 22.363281 38.914062 L 22.363281 10.1875 C 22.363281 8.929688 23.171875 7.90625 24.171875 7.90625 Z M 24.171875 7.90625 "/>
<path style=" stroke:none;fill-rule:nonzero;fill:rgb(16.470588%,16.470588%,100%);fill-opacity:1;" d="M 28.78125 27.285156 C 28.78125 29.871094 26.683594 31.964844 24.097656 31.964844 C 21.511719 31.964844 19.417969 29.871094 19.417969 27.285156 C 19.417969 24.699219 21.511719 22.601562 24.097656 22.601562 C 26.683594 22.601562 28.78125 24.699219 28.78125 27.285156 Z M 28.78125 27.285156 "/>
<path style=" stroke:none;fill-rule:evenodd;fill:rgb(26.27451%,31.372549%,36.078431%);fill-opacity:1;" d="M 14.40625 6.96875 C 15.859375 6.96875 17.035156 8.308594 17.035156 9.957031 L 17.035156 39.125 C 17.035156 40.773438 15.859375 42.109375 14.40625 42.109375 C 12.957031 42.109375 11.78125 40.773438 11.78125 39.125 L 11.78125 9.957031 C 11.78125 8.308594 12.957031 6.96875 14.40625 6.96875 Z M 14.40625 6.96875 "/>
<path style=" stroke:none;fill-rule:evenodd;fill:rgb(26.27451%,31.372549%,36.078431%);fill-opacity:1;" d="M 14.40625 7.90625 C 15.40625 7.90625 16.214844 8.929688 16.214844 10.1875 L 16.214844 38.914062 C 16.214844 40.171875 15.40625 41.195312 14.40625 41.195312 C 13.410156 41.195312 12.597656 40.171875 12.597656 38.914062 L 12.597656 10.1875 C 12.597656 8.929688 13.410156 7.90625 14.40625 7.90625 Z M 14.40625 7.90625 "/>
<path style=" stroke:none;fill-rule:nonzero;fill:rgb(16.470588%,16.470588%,100%);fill-opacity:1;" d="M 19.015625 14.109375 C 19.015625 16.695312 16.921875 18.792969 14.335938 18.792969 C 11.75 18.792969 9.652344 16.695312 9.652344 14.109375 C 9.652344 11.523438 11.75 9.429688 14.335938 9.429688 C 16.921875 9.429688 19.015625 11.523438 19.015625 14.109375 Z M 19.015625 14.109375 "/>
</g>
</svg>
