
<svg xmlns="http://www.w3.org/2000/svg" xmlns:xlink="http://www.w3.org/1999/xlink" width="48px" height="48px" viewBox="0 0 48 48" version="1.1">
<g id="surface1">
<path style="fill-rule:nonzero;fill:rgb(31.764706%,72.54902%,76.470588%);fill-opacity:1;stroke-width:27.910587;stroke-linecap:butt;stroke-linejoin:miter;stroke:rgb(12.54902%,58.823529%,63.529412%);stroke-opacity:1;stroke-miterlimit:4;" d="M 83.208333 27.416667 L 428.791667 27.416667 C 459.625 27.416667 484.583333 52.375 484.583333 83.208333 L 484.583333 428.791667 C 484.583333 459.625 459.625 484.583333 428.791667 484.583333 L 83.208333 484.583333 C 52.375 484.583333 27.416667 459.625 27.416667 428.791667 L 27.416667 83.208333 C 27.416667 52.375 52.375 27.416667 83.208333 27.416667 Z M 83.208333 27.416667 " transform="matrix(0.09375,0,0,0.09375,0,0)"/>
<path style=" stroke:none;fill-rule:nonzero;fill:rgb(0%,0%,0%);fill-opacity:0.2;" d="M 11.535156 19.902344 L 11.535156 28.101562 L 17.074219 28.101562 L 24 34.933594 L 24 13.066406 L 17.074219 19.902344 Z M 30.230469 24 C 30.230469 21.582031 28.820312 19.503906 26.769531 18.492188 L 26.769531 29.492188 C 28.820312 28.496094 30.230469 26.417969 30.230469 24 Z M 26.769531 12.015625 L 26.769531 14.828125 C 30.773438 16.003906 33.695312 19.667969 33.695312 24 C 33.695312 28.332031 30.773438 31.996094 26.769531 33.171875 L 26.769531 35.984375 C 32.324219 34.742188 36.464844 29.847656 36.464844 24 C 36.464844 18.152344 32.324219 13.257812 26.769531 12.015625 Z M 26.769531 12.015625 "/>
<path style=" stroke:none;fill-rule:nonzero;fill:rgb(96.078431%,96.078431%,96.078431%);fill-opacity:1;" d="M 11.535156 19.902344 L 11.535156 28.101562 L 17.074219 28.101562 L 24 34.933594 L 24 13.066406 L 17.074219 19.902344 Z M 30.230469 24 C 30.230469 21.582031 28.820312 19.503906 26.769531 18.492188 L 26.769531 29.492188 C 28.820312 28.496094 30.230469 26.417969 30.230469 24 Z M 26.769531 12.015625 L 26.769531 14.828125 C 30.773438 16.003906 33.695312 19.667969 33.695312 24 C 33.695312 28.332031 30.773438 31.996094 26.769531 33.171875 L 26.769531 35.984375 C 32.324219 34.742188 36.464844 29.847656 36.464844 24 C 36.464844 18.152344 32.324219 13.257812 26.769531 12.015625 Z M 26.769531 12.015625 "/>
</g>
</svg>
