
<svg xmlns="http://www.w3.org/2000/svg" xmlns:xlink="http://www.w3.org/1999/xlink" width="48px" height="48px" viewBox="0 0 48 48" version="1.1">
<g id="surface1">
<path style="fill-rule:nonzero;fill:rgb(100%,77.647059%,45.882353%);fill-opacity:0.639216;stroke-width:6.815335;stroke-linecap:butt;stroke-linejoin:miter;stroke:rgb(95.686275%,55.686275%,31.764706%);stroke-opacity:1;stroke-miterlimit:4;" d="M 21.8125 8.177083 L 106.1875 8.177083 C 113.71875 8.177083 119.822917 14.28125 119.822917 21.8125 L 119.822917 106.1875 C 119.822917 113.71875 113.71875 119.822917 106.1875 119.822917 L 21.8125 119.822917 C 14.28125 119.822917 8.177083 113.71875 8.177083 106.1875 L 8.177083 21.8125 C 8.177083 14.28125 14.28125 8.177083 21.8125 8.177083 Z M 21.8125 8.177083 " transform="matrix(0.375,0,0,0.375,0,0)"/>
<path style=" stroke:none;fill-rule:nonzero;fill:rgb(95.686275%,55.686275%,31.764706%);fill-opacity:1;" d="M 23.417969 7.203125 C 19.835938 12.089844 7.671875 25.875 12.851562 33.835938 C 16.863281 40.003906 30.496094 40.035156 34.457031 33.835938 C 39.617188 25.777344 26.46875 12.085938 23.417969 7.203125 M 23.417969 7.203125 "/>
<path style=" stroke:none;fill-rule:nonzero;fill:rgb(100%,77.647059%,45.882353%);fill-opacity:1;" d="M 22.195312 17.316406 C 15.171875 17.765625 12.773438 27.972656 15.460938 32.621094 C 18.433594 37.183594 27 38.128906 32.304688 35.472656 C 31.375 34.480469 30.082031 33.464844 28.394531 33.035156 C 24.605469 32.054688 18.9375 26.191406 21.78125 22.28125 C 24.625 18.371094 29.339844 22.28125 29.339844 22.28125 C 29.339844 22.28125 28.394531 18.371094 23.660156 17.390625 C 23.367188 17.332031 23.027344 17.328125 22.722656 17.316406 C 22.53125 17.304688 22.390625 17.304688 22.199219 17.316406 M 22.195312 17.316406 "/>
</g>
</svg>
