
<svg xmlns="http://www.w3.org/2000/svg" xmlns:xlink="http://www.w3.org/1999/xlink" width="48px" height="48px" viewBox="0 0 48 48" version="1.1">
<g id="surface1">
<path style="fill-rule:evenodd;fill:rgb(0%,0%,0%);fill-opacity:1;stroke-width:21.5;stroke-linecap:butt;stroke-linejoin:miter;stroke:rgb(78.039216%,17.647059%,17.647059%);stroke-opacity:1;stroke-miterlimit:4;" d="M 78.625 28.916667 L 435.541667 28.916667 C 461.958333 28.916667 483.375 50.333333 483.375 76.75 L 483.375 436.708333 C 483.375 463.125 461.958333 484.541667 435.541667 484.541667 L 78.625 484.541667 C 52.25 484.541667 30.833333 463.125 30.833333 436.708333 L 30.833333 76.75 C 30.833333 50.333333 52.25 28.916667 78.625 28.916667 Z M 78.625 28.916667 " transform="matrix(0.09375,0,0,0.09375,0,0)"/>
<path style=" stroke:none;fill-rule:nonzero;fill:rgb(98.431373%,16.078431%,16.078431%);fill-opacity:1;" d="M 15.3125 25.894531 C 15.3125 27.757812 13.800781 29.273438 11.933594 29.273438 C 10.066406 29.273438 8.554688 27.757812 8.554688 25.894531 C 8.554688 24.027344 10.066406 22.511719 11.933594 22.511719 C 13.800781 22.511719 15.3125 24.027344 15.3125 25.894531 Z M 15.3125 25.894531 "/>
<path style=" stroke:none;fill-rule:nonzero;fill:rgb(98.431373%,16.078431%,16.078431%);fill-opacity:1;" d="M 21.023438 32.058594 C 21.023438 33.925781 19.511719 35.441406 17.644531 35.441406 C 15.777344 35.441406 14.265625 33.925781 14.265625 32.058594 C 14.265625 30.195312 15.777344 28.679688 17.644531 28.679688 C 19.511719 28.679688 21.023438 30.195312 21.023438 32.058594 Z M 21.023438 32.058594 "/>
<path style=" stroke:none;fill-rule:nonzero;fill:rgb(98.431373%,16.078431%,16.078431%);fill-opacity:1;" d="M 23.195312 17.152344 C 23.195312 18.738281 21.90625 20.027344 20.320312 20.027344 C 18.730469 20.027344 17.441406 18.738281 17.441406 17.152344 C 17.441406 15.5625 18.730469 14.273438 20.320312 14.273438 C 21.90625 14.273438 23.195312 15.5625 23.195312 17.152344 Z M 23.195312 17.152344 "/>
<path style=" stroke:none;fill-rule:nonzero;fill:rgb(90.196078%,38.823529%,38.823529%);fill-opacity:1;" d="M 28.230469 22.832031 C 28.230469 24.699219 26.714844 26.210938 24.851562 26.210938 C 22.984375 26.210938 21.46875 24.699219 21.46875 22.832031 C 21.46875 20.964844 22.984375 19.453125 24.851562 19.453125 C 26.714844 19.453125 28.230469 20.964844 28.230469 22.832031 Z M 28.230469 22.832031 "/>
<path style=" stroke:none;fill-rule:nonzero;fill:rgb(90.196078%,38.823529%,38.823529%);fill-opacity:1;" d="M 31.539062 31.390625 C 31.539062 32.898438 30.3125 34.121094 28.804688 34.121094 C 27.296875 34.121094 26.070312 32.898438 26.070312 31.390625 C 26.070312 29.878906 27.296875 28.65625 28.804688 28.65625 C 30.3125 28.65625 31.539062 29.878906 31.539062 31.390625 Z M 31.539062 31.390625 "/>
<path style=" stroke:none;fill-rule:nonzero;fill:rgb(90.196078%,38.823529%,38.823529%);fill-opacity:1;" d="M 35.234375 16.933594 C 35.234375 18.445312 34.011719 19.667969 32.503906 19.667969 C 30.992188 19.667969 29.769531 18.445312 29.769531 16.933594 C 29.769531 15.425781 30.992188 14.203125 32.503906 14.203125 C 34.011719 14.203125 35.234375 15.425781 35.234375 16.933594 Z M 35.234375 16.933594 "/>
<path style=" stroke:none;fill-rule:nonzero;fill:rgb(100%,40%,0%);fill-opacity:1;" d="M 31.351562 10.175781 C 31.351562 11.527344 30.257812 12.621094 28.90625 12.621094 C 27.558594 12.621094 26.460938 11.527344 26.460938 10.175781 C 26.460938 8.824219 27.558594 7.730469 28.90625 7.730469 C 30.257812 7.730469 31.351562 8.824219 31.351562 10.175781 Z M 31.351562 10.175781 "/>
<path style=" stroke:none;fill-rule:nonzero;fill:rgb(95.686275%,84.313725%,84.313725%);fill-opacity:1;" d="M 38.554688 24.371094 C 38.554688 25.878906 37.332031 27.101562 35.824219 27.101562 C 34.3125 27.101562 33.089844 25.878906 33.089844 24.371094 C 33.089844 22.859375 34.3125 21.636719 35.824219 21.636719 C 37.332031 21.636719 38.554688 22.859375 38.554688 24.371094 Z M 38.554688 24.371094 "/>
<path style=" stroke:none;fill-rule:nonzero;fill:rgb(95.686275%,84.313725%,84.313725%);fill-opacity:1;" d="M 41.851562 32.109375 C 41.851562 33.816406 40.464844 35.199219 38.757812 35.199219 C 37.050781 35.199219 35.667969 33.816406 35.667969 32.109375 C 35.667969 30.398438 37.050781 29.015625 38.757812 29.015625 C 40.464844 29.015625 41.851562 30.398438 41.851562 32.109375 Z M 41.851562 32.109375 "/>
</g>
</svg>
