
<svg xmlns="http://www.w3.org/2000/svg" xmlns:xlink="http://www.w3.org/1999/xlink" width="48px" height="48px" viewBox="0 0 48 48" version="1.1">
<g id="surface1">
<path style="fill-rule:nonzero;fill:rgb(82.352941%,85.882353%,90.980392%);fill-opacity:1;stroke-width:26.401737;stroke-linecap:butt;stroke-linejoin:miter;stroke:rgb(0%,40%,100%);stroke-opacity:1;stroke-miterlimit:4;" d="M 92.583333 39.75 L 419.416667 39.75 C 448.583333 39.75 472.25 63.416667 472.25 92.583333 L 472.25 419.416667 C 472.25 448.583333 448.583333 472.25 419.416667 472.25 L 92.583333 472.25 C 63.416667 472.25 39.75 448.583333 39.75 419.416667 L 39.75 92.583333 C 39.75 63.416667 63.416667 39.75 92.583333 39.75 Z M 92.583333 39.75 " transform="matrix(0.09375,0,0,0.09375,0,0)"/>
<path style=" stroke:none;fill-rule:nonzero;fill:rgb(0%,40%,100%);fill-opacity:1;" d="M 22.1875 41.773438 C 22.050781 41.710938 21.9375 41.601562 21.9375 41.53125 C 21.9375 41.457031 22.226562 40.941406 22.582031 40.382812 C 23.5625 38.839844 24.195312 37.710938 24.871094 36.300781 C 26.199219 33.535156 26.96875 31.351562 28.34375 26.46875 C 28.5 25.914062 28.664062 25.925781 29.0625 26.507812 C 29.394531 27 30.179688 28.519531 30.511719 29.320312 C 31.515625 31.734375 31.988281 33.667969 31.929688 35.15625 C 31.898438 35.933594 31.890625 35.972656 31.496094 36.765625 C 30.300781 39.179688 28.128906 40.921875 25.445312 41.628906 C 24.492188 41.878906 22.605469 41.964844 22.1875 41.773438 Z M 22.1875 41.773438 "/>
<path style=" stroke:none;fill-rule:nonzero;fill:rgb(0%,40%,100%);fill-opacity:1;" d="M 16.855469 39.675781 C 15.3125 39.460938 13.921875 38.914062 12.65625 38.019531 C 11.484375 37.191406 10.453125 36.027344 10.429688 35.503906 L 10.417969 35.253906 L 11.078125 35.15625 C 16.660156 34.324219 19.878906 33.347656 25.414062 30.800781 C 25.980469 30.542969 26.515625 30.328125 26.605469 30.328125 C 26.753906 30.328125 26.761719 30.359375 26.71875 30.6875 C 26.613281 31.460938 25.640625 33.605469 24.628906 35.300781 C 23.230469 37.648438 21.960938 38.960938 20.710938 39.355469 C 19.578125 39.710938 18.015625 39.839844 16.855469 39.675781 Z M 16.855469 39.675781 "/>
<path style=" stroke:none;fill-rule:nonzero;fill:rgb(65.490196%,64.313725%,65.882353%);fill-opacity:1;" d="M 12.871094 33.382812 C 12.183594 33.246094 11.835938 33.078125 11.109375 32.535156 C 9.25 31.148438 7.988281 29.113281 7.578125 26.835938 C 7.28125 25.195312 7.59375 22.648438 8.09375 22.648438 C 8.15625 22.648438 8.546875 22.957031 8.964844 23.332031 C 12.25 26.296875 15.714844 28.511719 20.625 30.789062 C 21.535156 31.214844 22.296875 31.597656 22.308594 31.640625 C 22.355469 31.777344 21.859375 32.023438 20.890625 32.339844 C 17.972656 33.304688 14.664062 33.734375 12.871094 33.382812 Z M 12.871094 33.382812 "/>
<path style=" stroke:none;fill-rule:nonzero;fill:rgb(65.490196%,64.313725%,65.882353%);fill-opacity:1;" d="M 18.078125 29.042969 C 15.875 27.890625 13.066406 25.632812 11.90625 24.082031 C 11.324219 23.304688 11.109375 22.828125 11.003906 22.070312 C 10.609375 19.230469 11.675781 16.296875 13.839844 14.277344 C 14.867188 13.316406 16.214844 12.550781 16.457031 12.792969 C 16.519531 12.855469 16.550781 13.480469 16.558594 14.875 C 16.582031 19.273438 17.144531 22.699219 18.722656 28.0625 C 18.914062 28.714844 19.050781 29.28125 19.027344 29.320312 C 18.945312 29.453125 18.773438 29.402344 18.078125 29.042969 Z M 18.078125 29.042969 "/>
<path style=" stroke:none;fill-rule:nonzero;fill:rgb(0%,40%,100%);fill-opacity:1;" d="M 17.996094 23.753906 C 17.96875 23.679688 17.945312 22.605469 17.949219 21.367188 C 17.964844 17.765625 18.421875 14.285156 19.160156 12.183594 C 19.59375 10.9375 20 10.425781 21.144531 9.671875 C 23.699219 7.988281 28.765625 6.753906 34.078125 6.519531 C 37.125 6.386719 39.308594 6.710938 39.546875 7.332031 C 39.730469 7.816406 39.335938 8.15625 37.488281 9.089844 C 30.519531 12.605469 22.679688 18.492188 18.890625 23.054688 C 18.507812 23.515625 18.164062 23.890625 18.125 23.890625 C 18.085938 23.890625 18.027344 23.828125 17.996094 23.753906 Z M 17.996094 23.753906 "/>
<path style=" stroke:none;fill-rule:nonzero;fill:rgb(0%,40%,100%);fill-opacity:1;" d="M 34.867188 36.863281 C 34.726562 36.929688 34.570312 36.949219 34.515625 36.902344 C 34.460938 36.855469 34.25 36.300781 34.050781 35.667969 C 33.496094 33.925781 33.039062 32.71875 32.390625 31.292969 C 31.121094 28.5 29.945312 26.507812 27.082031 22.320312 C 26.757812 21.84375 26.871094 21.722656 27.574219 21.792969 C 28.164062 21.855469 29.832031 22.230469 30.660156 22.488281 C 33.15625 23.265625 34.941406 24.148438 36.046875 25.148438 C 36.621094 25.667969 36.644531 25.703125 37 26.515625 C 38.082031 28.980469 38.027344 31.761719 36.84375 34.273438 C 36.421875 35.167969 35.277344 36.667969 34.867188 36.863281 Z M 34.867188 36.863281 "/>
<path style=" stroke:none;fill-rule:nonzero;fill:rgb(0%,40%,100%);fill-opacity:1;" d="M 38.777344 23.007812 C 38.753906 23.160156 38.679688 23.296875 38.609375 23.316406 C 38.539062 23.335938 37.964844 23.195312 37.328125 23.007812 C 35.578125 22.484375 34.320312 22.183594 32.777344 21.914062 C 29.757812 21.390625 27.449219 21.242188 22.375 21.246094 C 21.796875 21.246094 21.761719 21.085938 22.21875 20.542969 C 22.597656 20.089844 23.847656 18.921875 24.527344 18.382812 C 26.578125 16.761719 28.3125 15.78125 29.761719 15.433594 C 30.515625 15.25 30.554688 15.25 31.425781 15.414062 C 34.070312 15.90625 36.339844 17.523438 37.75 19.910156 C 38.25 20.761719 38.84375 22.554688 38.777344 23.007812 Z M 38.777344 23.007812 "/>
</g>
</svg>
