
<svg xmlns="http://www.w3.org/2000/svg" xmlns:xlink="http://www.w3.org/1999/xlink" width="48px" height="48px" viewBox="0 0 48 48" version="1.1">
<g id="surface1">
<path style="fill-rule:nonzero;fill:rgb(20.392157%,28.627451%,36.862745%);fill-opacity:1;stroke-width:1.959286;stroke-linecap:butt;stroke-linejoin:miter;stroke:rgb(92.54902%,94.117647%,94.509804%);stroke-opacity:1;stroke-miterlimit:4;" d="M -32.186609 377.280932 L -7.927254 377.280932 C -5.76355 377.280932 -4.008481 379.036002 -4.008481 381.199706 L -4.008481 405.45906 C -4.008481 407.622764 -5.76355 409.377833 -7.927254 409.377833 L -32.186609 409.377833 C -34.350312 409.377833 -36.105382 407.622764 -36.105382 405.45906 L -36.105382 381.199706 C -36.105382 379.036002 -34.350312 377.280932 -32.186609 377.280932 Z M -32.186609 377.280932 " transform="matrix(1.32874,0,0,1.32874,50.650448,-498.632496)"/>
<path style=" stroke:none;fill-rule:nonzero;fill:rgb(90.196078%,49.411765%,13.333333%);fill-opacity:1;" d="M 30.59375 19.296875 L 27.820312 19.40625 C 27.632812 18.59375 27.152344 17.972656 26.375 17.546875 C 25.617188 17.121094 24.777344 16.917969 23.851562 16.9375 C 22.242188 16.972656 21.070312 17.464844 20.328125 18.40625 C 19.960938 18.886719 19.804688 19.488281 19.859375 20.210938 C 19.875 20.597656 19.988281 20.929688 20.191406 21.207031 C 20.394531 21.484375 20.617188 21.707031 20.855469 21.875 C 21.097656 22.039062 21.4375 22.179688 21.882812 22.289062 C 22.328125 22.402344 22.695312 22.476562 22.992188 22.511719 C 23.308594 22.550781 23.730469 22.59375 24.269531 22.652344 C 25.0625 22.742188 25.757812 22.863281 26.347656 23.011719 C 26.960938 23.160156 27.605469 23.382812 28.289062 23.675781 C 28.992188 23.953125 29.566406 24.363281 30.011719 24.898438 C 30.472656 25.414062 30.796875 26.042969 30.980469 26.785156 C 31.074219 27.246094 31.121094 27.671875 31.121094 28.058594 C 31.121094 29.835938 30.390625 31.269531 28.929688 32.359375 C 27.46875 33.429688 25.792969 33.96875 23.90625 33.96875 C 22.871094 33.96875 21.855469 33.78125 20.855469 33.414062 C 19.859375 33.023438 18.980469 32.421875 18.222656 31.609375 C 17.464844 30.777344 17.027344 29.816406 16.917969 28.726562 L 16.890625 28.199219 L 19.71875 28.144531 L 19.746094 28.558594 L 19.746094 28.449219 C 19.839844 29.296875 20.3125 29.972656 21.160156 30.472656 C 22.011719 30.953125 22.9375 31.195312 23.9375 31.195312 C 25.0625 31.195312 26.070312 30.90625 26.960938 30.335938 C 27.847656 29.742188 28.289062 28.976562 28.289062 28.03125 C 28.289062 27.847656 28.261719 27.625 28.207031 27.367188 C 28.132812 27.015625 27.96875 26.71875 27.707031 26.480469 C 27.449219 26.238281 27.089844 26.054688 26.625 25.925781 C 26.183594 25.792969 25.777344 25.703125 25.40625 25.648438 C 25.035156 25.574219 24.546875 25.507812 23.9375 25.453125 C 23.214844 25.378906 22.585938 25.296875 22.050781 25.203125 C 21.53125 25.109375 20.949219 24.953125 20.300781 24.730469 C 19.671875 24.492188 19.144531 24.203125 18.722656 23.871094 C 18.296875 23.519531 17.925781 23.058594 17.613281 22.484375 C 17.296875 21.894531 17.113281 21.207031 17.058594 20.433594 L 17.058594 20.460938 C 16.945312 19.074219 17.296875 17.84375 18.109375 16.769531 C 18.738281 15.957031 19.582031 15.328125 20.636719 14.882812 C 21.707031 14.421875 22.828125 14.191406 23.992188 14.191406 C 25.636719 14.191406 27.089844 14.625 28.347656 15.496094 C 29.601562 16.363281 30.351562 17.632812 30.59375 19.296875 Z M 30.59375 19.296875 "/>
</g>
</svg>
