
<svg xmlns="http://www.w3.org/2000/svg" xmlns:xlink="http://www.w3.org/1999/xlink" width="48px" height="48px" viewBox="0 0 48 48" version="1.1">
<defs>
<clipPath id="clip1">
  <path d="M 3.1875 3.09375 L 45.1875 3.09375 L 45.1875 44.90625 L 3.1875 44.90625 Z M 3.1875 3.09375 "/>
</clipPath>
<clipPath id="clip2">
  <path d="M 9.121094 3.128906 L 39.34375 3.128906 C 42.636719 3.128906 45.304688 5.796875 45.304688 9.085938 L 45.304688 38.878906 C 45.304688 42.167969 42.636719 44.835938 39.34375 44.835938 L 9.121094 44.835938 C 5.832031 44.835938 3.164062 42.167969 3.164062 38.878906 L 3.164062 9.085938 C 3.164062 5.796875 5.832031 3.128906 9.121094 3.128906 Z M 9.121094 3.128906 "/>
</clipPath>
<clipPath id="clip3">
  <path d="M 3.09375 3.09375 L 45.1875 3.09375 L 45.1875 44.90625 L 3.09375 44.90625 Z M 3.09375 3.09375 "/>
</clipPath>
<clipPath id="clip4">
  <path d="M 9.121094 3.128906 L 39.34375 3.128906 C 42.636719 3.128906 45.304688 5.796875 45.304688 9.085938 L 45.304688 38.878906 C 45.304688 42.167969 42.636719 44.835938 39.34375 44.835938 L 9.121094 44.835938 C 5.832031 44.835938 3.164062 42.167969 3.164062 38.878906 L 3.164062 9.085938 C 3.164062 5.796875 5.832031 3.128906 9.121094 3.128906 Z M 9.121094 3.128906 "/>
</clipPath>
<clipPath id="clip5">
  <path d="M 7.59375 10.5 L 40.40625 10.5 L 40.40625 38.25 L 7.59375 38.25 Z M 7.59375 10.5 "/>
</clipPath>
<clipPath id="clip6">
  <path d="M 9.121094 3.128906 L 39.34375 3.128906 C 42.636719 3.128906 45.304688 5.796875 45.304688 9.085938 L 45.304688 38.878906 C 45.304688 42.167969 42.636719 44.835938 39.34375 44.835938 L 9.121094 44.835938 C 5.832031 44.835938 3.164062 42.167969 3.164062 38.878906 L 3.164062 9.085938 C 3.164062 5.796875 5.832031 3.128906 9.121094 3.128906 Z M 9.121094 3.128906 "/>
</clipPath>
</defs>
<g id="surface1">
<g clip-path="url(#clip1)" clip-rule="nonzero">
<g clip-path="url(#clip2)" clip-rule="nonzero">
<path style=" stroke:none;fill-rule:nonzero;fill:rgb(47.45098%,78.039216%,16.078431%);fill-opacity:1;" d="M 7.027344 44.652344 C 6.15625 44.417969 5.546875 44.050781 4.800781 43.308594 C 4.082031 42.597656 3.664062 41.890625 3.421875 40.992188 C 3.230469 40.261719 3.230469 7.738281 3.421875 7.007812 C 3.890625 5.257812 5.371094 3.773438 7.121094 3.308594 C 7.851562 3.113281 40.554688 3.113281 41.285156 3.308594 C 43.117188 3.796875 44.6875 5.445312 45.023438 7.226562 C 45.09375 7.613281 45.113281 12.328125 45.097656 24.222656 L 45.070312 40.683594 L 44.859375 41.085938 C 43.835938 43.039062 43.140625 43.898438 42.25 44.316406 C 41.121094 44.847656 42.125 44.820312 24.113281 44.816406 C 8.617188 44.8125 7.574219 44.800781 7.027344 44.652344 Z M 31.011719 35.476562 C 33.445312 35.351562 34.339844 35.101562 35.523438 34.210938 C 35.925781 33.90625 36.40625 33.441406 36.621094 33.148438 C 37.214844 32.34375 37.355469 31.863281 37.457031 30.296875 C 37.578125 28.460938 37.75 21.539062 37.683594 21.324219 C 37.628906 21.15625 37.511719 21.152344 34.039062 21.152344 C 30.96875 21.152344 30.4375 21.171875 30.34375 21.285156 C 30.1875 21.476562 30.253906 24.277344 30.421875 24.476562 C 30.519531 24.59375 30.789062 24.621094 31.988281 24.644531 L 33.4375 24.667969 L 30.097656 28.671875 C 28.261719 30.875 26.726562 32.675781 26.683594 32.675781 C 26.613281 32.675781 20.289062 24.753906 20.289062 24.664062 C 20.289062 24.640625 20.980469 24.621094 21.828125 24.621094 C 22.90625 24.621094 23.398438 24.589844 23.472656 24.515625 C 23.554688 24.4375 23.582031 23.226562 23.582031 19.621094 L 23.582031 14.835938 L 30.253906 14.835938 L 30.253906 17.039062 C 30.257812 18.269531 30.292969 19.296875 30.339844 19.371094 C 30.414062 19.488281 30.921875 19.511719 33.855469 19.53125 C 36.164062 19.546875 37.34375 19.527344 37.460938 19.460938 C 37.636719 19.371094 37.640625 19.273438 37.640625 16 C 37.640625 13.335938 37.617188 12.613281 37.523438 12.535156 C 37.386719 12.421875 26.488281 12.546875 23.046875 12.703125 C 20.597656 12.8125 20.273438 12.863281 19.4375 13.273438 C 18.148438 13.90625 17.179688 15.101562 16.867188 16.445312 C 16.679688 17.253906 16.554688 20.46875 16.550781 24.378906 L 16.550781 27.738281 L 14.949219 27.738281 L 14.949219 23.75 C 14.949219 20.769531 14.921875 19.738281 14.84375 19.65625 C 14.691406 19.507812 10.9375 19.507812 10.785156 19.65625 C 10.65625 19.785156 10.640625 26.160156 10.761719 28.375 C 10.832031 29.667969 10.859375 29.808594 11.117188 30.351562 C 11.425781 30.996094 11.890625 31.441406 12.578125 31.746094 C 13.082031 31.96875 14.425781 32.128906 15.171875 32.054688 C 15.464844 32.027344 15.921875 32.042969 16.183594 32.09375 C 16.644531 32.183594 16.714844 32.238281 17.832031 33.375 C 19.339844 34.914062 19.761719 35.175781 20.964844 35.308594 C 22.863281 35.519531 28.433594 35.613281 31.011719 35.476562 Z M 31.011719 35.476562 "/>
</g>
</g>
<g clip-path="url(#clip3)" clip-rule="nonzero">
<g clip-path="url(#clip4)" clip-rule="nonzero">
<path style=" stroke:none;fill-rule:evenodd;fill:rgb(52.156863%,79.607843%,23.921569%);fill-opacity:1;" d="M 5.015625 2.914062 L 43.1875 2.914062 C 44.273438 2.914062 45.152344 3.792969 45.152344 4.878906 L 45.152344 43.046875 C 45.152344 44.128906 44.273438 45.007812 43.1875 45.007812 L 5.015625 45.007812 C 3.929688 45.007812 3.050781 44.128906 3.050781 43.046875 L 3.050781 4.878906 C 3.050781 3.792969 3.929688 2.914062 5.015625 2.914062 Z M 5.015625 2.914062 "/>
</g>
</g>
<g clip-path="url(#clip5)" clip-rule="nonzero">
<g clip-path="url(#clip6)" clip-rule="nonzero">
<path style=" stroke:none;fill-rule:nonzero;fill:rgb(100%,100%,100%);fill-opacity:1;" d="M 20.402344 38.066406 C 18.804688 37.867188 18.417969 37.65625 16.839844 36.136719 C 14.949219 34.3125 14.359375 34.035156 12.351562 34.035156 C 9.710938 34.035156 8.351562 33.050781 7.929688 30.839844 C 7.792969 30.113281 7.679688 27.203125 7.679688 24.367188 L 7.679688 19.214844 L 12.621094 19.214844 L 12.621094 29.09375 L 14.777344 29.09375 L 14.898438 22.363281 C 15.035156 14.96875 15.09375 14.636719 16.605469 12.917969 C 18.125 11.1875 18.832031 11.023438 25.820312 10.792969 C 29.226562 10.683594 33.808594 10.585938 36 10.578125 L 39.984375 10.566406 L 40.160156 12.6875 C 40.257812 13.855469 40.257812 15.679688 40.164062 16.746094 L 39.992188 18.683594 L 38.453125 18.851562 C 36.546875 19.054688 32 18.914062 31.730469 18.644531 C 31.621094 18.53125 31.488281 17.28125 31.433594 15.863281 L 31.339844 13.285156 L 23.003906 13.285156 L 22.9375 19.152344 L 22.875 25.019531 L 20.957031 25.140625 L 19.042969 25.265625 L 22.898438 30.082031 C 25.015625 32.730469 26.875 34.898438 27.023438 34.898438 C 27.175781 34.898438 29.117188 32.730469 31.34375 30.082031 L 35.386719 25.265625 L 33.628906 25.191406 C 31.984375 25.125 31.851562 25.078125 31.621094 24.46875 C 31.484375 24.109375 31.40625 23.253906 31.445312 22.5625 L 31.519531 21.3125 L 40.347656 21.179688 L 40.175781 26.433594 C 39.964844 32.929688 39.769531 34.3125 38.90625 35.445312 C 38.03125 36.59375 36.324219 37.648438 34.816406 37.972656 C 33.691406 38.214844 22.183594 38.289062 20.402344 38.066406 Z M 20.402344 38.066406 "/>
</g>
</g>
</g>
</svg>
