
<svg xmlns="http://www.w3.org/2000/svg" xmlns:xlink="http://www.w3.org/1999/xlink" width="48px" height="48px" viewBox="0 0 48 48" version="1.1">
<g id="surface1">
<path style=" stroke:none;fill-rule:nonzero;fill:rgb(12.54902%,16.862745%,20%);fill-opacity:1;" d="M 3.488281 3.488281 L 44.511719 3.488281 L 44.511719 44.511719 L 3.488281 44.511719 Z M 3.488281 3.488281 "/>
<path style=" stroke:none;fill-rule:nonzero;fill:rgb(16.078431%,21.960784%,25.882353%);fill-opacity:1;" d="M 13.363281 3.488281 L 13.363281 13.363281 L 3.488281 13.363281 L 3.488281 14.125 L 13.363281 14.125 L 13.363281 17.921875 L 3.488281 17.921875 L 3.488281 18.683594 L 13.363281 18.683594 L 13.363281 24 L 3.488281 24 L 3.488281 24.761719 L 13.363281 24.761719 L 13.363281 29.316406 L 3.488281 29.316406 L 3.488281 30.078125 L 13.363281 30.078125 L 13.363281 33.875 L 3.488281 33.875 L 3.488281 34.636719 L 13.363281 34.636719 L 13.363281 44.511719 L 14.125 44.511719 L 14.125 34.636719 L 17.921875 34.636719 L 17.921875 44.511719 L 18.683594 44.511719 L 18.683594 34.636719 L 24 34.636719 L 24 44.511719 L 24.757812 44.511719 L 24.757812 34.636719 L 29.316406 34.636719 L 29.316406 44.511719 L 30.078125 44.511719 L 30.078125 34.636719 L 33.875 34.636719 L 33.875 44.511719 L 34.636719 44.511719 L 34.636719 34.636719 L 44.511719 34.636719 L 44.511719 33.875 L 34.636719 33.875 L 34.636719 30.078125 L 44.511719 30.078125 L 44.511719 29.316406 L 34.636719 29.316406 L 34.636719 24.761719 L 44.511719 24.761719 L 44.511719 24 L 34.636719 24 L 34.636719 18.683594 L 44.511719 18.683594 L 44.511719 17.921875 L 34.636719 17.921875 L 34.636719 14.125 L 44.511719 14.125 L 44.511719 13.363281 L 34.636719 13.363281 L 34.636719 3.488281 L 33.875 3.488281 L 33.875 13.363281 L 30.078125 13.363281 L 30.078125 3.488281 L 29.316406 3.488281 L 29.316406 13.363281 L 24.757812 13.363281 L 24.757812 3.488281 L 24 3.488281 L 24 13.363281 L 18.683594 13.363281 L 18.683594 3.488281 L 17.921875 3.488281 L 17.921875 13.363281 L 14.125 13.363281 L 14.125 3.488281 Z M 14.125 14.125 L 17.921875 14.125 L 17.921875 17.921875 L 14.125 17.921875 Z M 18.683594 14.125 L 24 14.125 L 24 17.921875 L 18.683594 17.921875 Z M 24.757812 14.125 L 29.316406 14.125 L 29.316406 17.921875 L 24.757812 17.921875 Z M 30.078125 14.125 L 33.875 14.125 L 33.875 17.921875 L 30.078125 17.921875 Z M 14.125 18.683594 L 17.921875 18.683594 L 17.921875 24 L 14.125 24 Z M 18.683594 18.683594 L 24 18.683594 L 24 24 L 18.683594 24 Z M 24.757812 18.683594 L 29.316406 18.683594 L 29.316406 24 L 24.757812 24 Z M 30.078125 18.683594 L 33.875 18.683594 L 33.875 24 L 30.078125 24 Z M 14.125 24.761719 L 17.921875 24.761719 L 17.921875 29.316406 L 14.125 29.316406 Z M 18.683594 24.761719 L 24 24.761719 L 24 29.316406 L 18.683594 29.316406 Z M 24.757812 24.761719 L 29.316406 24.761719 L 29.316406 29.316406 L 24.757812 29.316406 Z M 30.078125 24.761719 L 33.875 24.761719 L 33.875 29.316406 L 30.078125 29.316406 Z M 14.125 30.078125 L 17.921875 30.078125 L 17.921875 33.875 L 14.125 33.875 Z M 18.683594 30.078125 L 24 30.078125 L 24 33.875 L 18.683594 33.875 Z M 24.757812 30.078125 L 29.316406 30.078125 L 29.316406 33.875 L 24.757812 33.875 Z M 30.078125 30.078125 L 33.875 30.078125 L 33.875 33.875 L 30.078125 33.875 Z M 30.078125 30.078125 "/>
<path style=" stroke:none;fill-rule:evenodd;fill:rgb(97.647059%,87.058824%,41.176471%);fill-opacity:1;" d="M 38.433594 17.164062 L 33.117188 20.203125 L 28.558594 19.441406 L 24.757812 22.480469 L 20.960938 21.722656 L 18.683594 22.480469 L 17.164062 23.242188 L 14.882812 23.242188 L 14.125 24 L 10.324219 23.242188 L 8.804688 24 L 7.285156 24.761719 L 6.527344 24 L 3.488281 31.089844 L 3.488281 44.511719 L 44.511719 44.511719 L 44.511719 17.921875 L 41.472656 17.921875 Z M 38.433594 17.164062 "/>
<path style=" stroke:none;fill-rule:evenodd;fill:rgb(10.588235%,63.921569%,53.72549%);fill-opacity:1;" d="M 30.835938 26.277344 L 27.796875 27.039062 L 25.519531 29.316406 L 20.203125 29.316406 L 17.921875 30.078125 L 16.402344 30.078125 L 13.363281 34.636719 L 12.605469 33.875 L 9.566406 39.953125 L 5.765625 38.433594 L 3.488281 40.144531 L 3.488281 44.511719 L 44.511719 44.511719 L 44.511719 26.277344 Z M 30.835938 26.277344 "/>
<path style=" stroke:none;fill-rule:evenodd;fill:rgb(31.764706%,72.54902%,76.470588%);fill-opacity:1;" d="M 36.15625 24 L 30.835938 27.796875 L 28.558594 30.078125 L 25.519531 30.835938 L 22.480469 30.078125 L 19.441406 30.078125 L 14.125 36.914062 L 12.605469 36.15625 L 9.566406 39.953125 L 8.046875 39.953125 L 7.285156 40.714844 L 5.765625 39.953125 L 3.488281 41.664062 L 3.488281 44.511719 L 44.511719 44.511719 L 44.511719 24.761719 L 43.753906 24.761719 L 42.234375 25.519531 L 39.195312 26.277344 Z M 36.15625 24 "/>
<path style=" stroke:none;fill-rule:nonzero;fill:rgb(13.333333%,21.176471%,33.72549%);fill-opacity:1;" d="M 1.96875 3.488281 L 1.96875 44.511719 L 46.03125 44.511719 L 46.03125 3.488281 Z M 3.488281 6.527344 L 44.511719 6.527344 L 44.511719 42.992188 L 3.488281 42.992188 Z M 3.488281 6.527344 "/>
<path style=" stroke:none;fill-rule:nonzero;fill:rgb(100%,100%,100%);fill-opacity:1;" d="M 44.511719 5.007812 C 44.511719 5.425781 44.171875 5.765625 43.75 5.765625 C 43.332031 5.765625 42.992188 5.425781 42.992188 5.007812 C 42.992188 4.585938 43.332031 4.25 43.75 4.25 C 44.171875 4.25 44.511719 4.585938 44.511719 5.007812 Z M 44.511719 5.007812 "/>
<path style=" stroke:none;fill-rule:nonzero;fill:rgb(31.764706%,72.54902%,76.470588%);fill-opacity:1;" d="M 3.488281 6.527344 L 44.511719 6.527344 L 44.511719 7.300781 L 3.488281 7.300781 Z M 3.488281 6.527344 "/>
</g>
</svg>
