
<svg xmlns="http://www.w3.org/2000/svg" xmlns:xlink="http://www.w3.org/1999/xlink" width="48px" height="48px" viewBox="0 0 48 48" version="1.1">
<g id="surface1">
<path style=" stroke:none;fill-rule:nonzero;fill:rgb(38.823529%,47.843137%,50.980392%);fill-opacity:1;" d="M 17.132812 10.664062 L 30.867188 10.664062 L 30.867188 2.082031 L 17.132812 2.082031 Z M 17.132812 10.664062 "/>
<path style=" stroke:none;fill-rule:nonzero;fill:rgb(100%,100%,100%);fill-opacity:0.654902;" d="M 19.121094 7.5 L 22.554688 7.5 L 22.554688 4.066406 L 19.121094 4.066406 Z M 19.121094 7.5 "/>
<path style=" stroke:none;fill-rule:nonzero;fill:rgb(1.960784%,20.784314%,24.705882%);fill-opacity:0.654902;" d="M 18.847656 7.230469 L 22.28125 7.230469 L 22.28125 3.796875 L 18.847656 3.796875 Z M 18.847656 7.230469 "/>
<path style=" stroke:none;fill-rule:nonzero;fill:rgb(100%,100%,100%);fill-opacity:0.654902;" d="M 25.988281 7.5 L 29.421875 7.5 L 29.421875 4.066406 L 25.988281 4.066406 Z M 25.988281 7.5 "/>
<path style=" stroke:none;fill-rule:nonzero;fill:rgb(1.960784%,20.784314%,24.705882%);fill-opacity:0.654902;" d="M 25.71875 7.230469 L 29.152344 7.230469 L 29.152344 3.796875 L 25.71875 3.796875 Z M 25.71875 7.230469 "/>
<path style="fill-rule:nonzero;fill:rgb(14.509804%,68.235294%,87.45098%);fill-opacity:1;stroke-width:2.44179;stroke-linecap:butt;stroke-linejoin:miter;stroke:rgb(14.509804%,68.235294%,87.45098%);stroke-opacity:1;stroke-miterlimit:4;" d="M 423.38393 449.45425 L 473.75893 449.45425 C 475.831847 449.45425 477.519347 451.14175 477.519347 453.214667 L 477.519347 537.26675 C 477.519347 539.350083 475.831847 541.027167 473.75893 541.027167 L 423.38393 541.027167 C 421.311013 541.027167 419.623513 539.350083 419.623513 537.26675 L 419.623513 453.214667 C 419.623513 451.14175 421.311013 449.45425 423.38393 449.45425 Z M 423.38393 449.45425 " transform="matrix(0.375,0,0,0.375,-144.214286,-157.42425)"/>
<path style=" stroke:none;fill-rule:nonzero;fill:rgb(92.54902%,94.117647%,94.509804%);fill-opacity:1;" d="M 27.046875 24.382812 L 27.046875 20.996094 L 30.449219 20.996094 L 30.449219 24.382812 Z M 27.046875 24.382812 "/>
<path style=" stroke:none;fill-rule:nonzero;fill:rgb(92.54902%,94.117647%,94.509804%);fill-opacity:1;" d="M 23.929688 37.1875 C 25.203125 37.1875 26.238281 38.222656 26.238281 39.496094 C 26.238281 40.769531 25.203125 41.800781 23.929688 41.800781 C 22.652344 41.800781 21.617188 40.769531 21.617188 39.496094 C 21.617188 38.222656 22.652344 37.1875 23.929688 37.1875 Z M 23.929688 37.1875 "/>
<path style=" stroke:none;fill-rule:nonzero;fill:rgb(92.54902%,94.117647%,94.509804%);fill-opacity:1;" d="M 19.597656 23.976562 C 20.726562 23.976562 21.644531 24.890625 21.644531 26.019531 C 21.644531 27.148438 20.726562 28.0625 19.597656 28.0625 C 18.46875 28.0625 17.550781 27.148438 17.550781 26.019531 C 17.550781 24.890625 18.46875 23.976562 19.597656 23.976562 Z M 19.597656 23.976562 "/>
<path style=" stroke:none;fill-rule:evenodd;fill:rgb(92.54902%,94.117647%,94.509804%);fill-opacity:1;" d="M 22.109375 18.949219 C 22.109375 18.949219 23.929688 14.835938 23.976562 14.894531 C 24.019531 14.957031 25.78125 18.949219 25.78125 18.949219 Z M 22.109375 18.949219 "/>
<path style="fill:none;stroke-width:6.079651;stroke-linecap:butt;stroke-linejoin:miter;stroke:rgb(92.54902%,94.117647%,94.509804%);stroke-opacity:1;stroke-miterlimit:2.012602;" d="M 256.758892 269.505566 C 253.748343 241.507466 213.105941 227.658943 212.993045 211.401982 C 212.917781 200.413481 213.444627 195.596603 213.331732 181.597554 " transform="matrix(0.103802,0,0,0.103802,-2.730131,8.091274)"/>
<path style="fill:none;stroke-width:6.079651;stroke-linecap:butt;stroke-linejoin:miter;stroke:rgb(92.54902%,94.117647%,94.509804%);stroke-opacity:1;stroke-miterlimit:2.012602;" d="M 256.758892 239.738769 C 256.758892 212.154619 287.052535 205.68194 302.067645 185.285475 C 304.363188 181.823345 302.857914 150.664169 302.857914 148.669681 " transform="matrix(0.103802,0,0,0.103802,-2.730131,8.091274)"/>
<path style="fill:none;stroke-width:6.079651;stroke-linecap:butt;stroke-linejoin:miter;stroke:rgb(92.54902%,94.117647%,94.509804%);stroke-opacity:1;stroke-miterlimit:2.012602;" d="M 256.683628 302.922652 L 256.683628 96.135612 " transform="matrix(0.103802,0,0,0.103802,-2.730131,8.091274)"/>
</g>
</svg>
