
<svg xmlns="http://www.w3.org/2000/svg" xmlns:xlink="http://www.w3.org/1999/xlink" width="48px" height="48px" viewBox="0 0 48 48" version="1.1">
<g id="surface1">
<path style="fill-rule:nonzero;fill:rgb(80%,0%,100%);fill-opacity:1;stroke-width:28.097435;stroke-linecap:butt;stroke-linejoin:miter;stroke:rgb(47.45098%,19.215686%,54.509804%);stroke-opacity:1;stroke-miterlimit:4;" d="M 82.083333 25.875 L 429.916667 25.875 C 460.958333 25.875 486.125 51.041667 486.125 82.083333 L 486.125 429.916667 C 486.125 460.958333 460.958333 486.125 429.916667 486.125 L 82.083333 486.125 C 51.041667 486.125 25.875 460.958333 25.875 429.916667 L 25.875 82.083333 C 25.875 51.041667 51.041667 25.875 82.083333 25.875 Z M 82.083333 25.875 " transform="matrix(0.09375,0,0,0.09375,0,0)"/>
<path style=" stroke:none;fill-rule:nonzero;fill:rgb(100%,100%,100%);fill-opacity:1;" d="M 16.550781 33.8125 C 16.554688 33.566406 16.609375 33.285156 16.675781 33.1875 C 16.738281 33.089844 17.59375 32.929688 18.578125 32.832031 C 19.945312 32.695312 20.40625 32.585938 20.566406 32.367188 C 20.714844 32.164062 20.777344 31.363281 20.777344 29.601562 L 20.777344 27.117188 L 19.496094 25.417969 C 17.902344 23.296875 14.542969 19.289062 13.585938 18.363281 L 12.871094 17.667969 L 8.664062 17.433594 L 8.613281 16.636719 C 8.582031 16.109375 8.636719 15.792969 8.777344 15.703125 C 8.894531 15.628906 12.035156 15.566406 15.757812 15.566406 L 22.527344 15.5625 L 22.609375 16.003906 C 22.65625 16.25 22.65625 16.6875 22.609375 16.980469 L 22.523438 17.515625 L 20.875 17.527344 C 18.445312 17.542969 18.460938 17.523438 19.566406 19.066406 C 20.828125 20.828125 23.597656 24.375 23.917969 24.644531 C 24.238281 24.910156 24.261719 24.890625 27.160156 22.289062 C 28.304688 21.261719 29.195312 20.355469 29.140625 20.269531 C 29.089844 20.183594 28.523438 20.113281 27.878906 20.113281 C 27.234375 20.113281 26.628906 20.058594 26.53125 19.992188 C 26.324219 19.851562 25.976562 18.898438 25.976562 18.464844 C 25.976562 18.179688 26.25 18.164062 31.992188 18.164062 C 35.300781 18.164062 38.007812 18.21875 38.007812 18.285156 C 38.007812 18.355469 37.730469 18.773438 37.390625 19.222656 L 36.777344 20.035156 L 35.320312 20.128906 C 33.992188 20.214844 33.777344 20.277344 32.914062 20.832031 C 31.417969 21.796875 28.121094 24.511719 26.832031 25.851562 L 25.652344 27.070312 L 25.652344 29.34375 C 25.652344 30.59375 25.695312 31.835938 25.75 32.101562 L 25.847656 32.585938 L 27.878906 32.675781 C 28.996094 32.722656 29.984375 32.835938 30.074219 32.925781 C 30.164062 33.015625 30.191406 33.304688 30.132812 33.566406 L 30.027344 34.046875 L 27.328125 34.152344 C 25.839844 34.210938 22.808594 34.257812 20.585938 34.257812 L 16.550781 34.257812 Z M 16.550781 33.8125 "/>
<path style=" stroke:none;fill-rule:nonzero;fill:rgb(100%,100%,100%);fill-opacity:1;" d="M 36.074219 30.695312 C 35.894531 30.582031 35.847656 29.753906 35.832031 26.40625 C 35.820312 24.125 35.859375 22.214844 35.914062 22.15625 C 36.027344 22.042969 39.652344 22.355469 39.789062 22.492188 C 39.871094 22.574219 38.128906 29.664062 37.828125 30.480469 C 37.714844 30.78125 37.570312 30.84375 36.996094 30.84375 C 36.613281 30.839844 36.199219 30.773438 36.074219 30.695312 Z M 36.074219 30.695312 "/>
<path style=" stroke:none;fill-rule:nonzero;fill:rgb(100%,100%,100%);fill-opacity:1;" d="M 35.773438 34.152344 C 35.640625 34.097656 35.570312 33.722656 35.570312 33.105469 L 35.570312 32.144531 L 36.390625 32.144531 C 37.367188 32.144531 37.890625 32.378906 37.785156 32.765625 C 37.746094 32.914062 37.664062 33.3125 37.609375 33.648438 C 37.507812 34.253906 37.5 34.257812 36.742188 34.246094 C 36.320312 34.238281 35.882812 34.195312 35.773438 34.152344 Z M 35.773438 34.152344 "/>
</g>
</svg>
