
<svg xmlns="http://www.w3.org/2000/svg" xmlns:xlink="http://www.w3.org/1999/xlink" width="32px" height="32px" viewBox="0 0 32 32" version="1.1">
<g id="surface1">
<path style="fill-rule:nonzero;fill:rgb(80%,80%,80%);fill-opacity:1;stroke-width:1;stroke-linecap:butt;stroke-linejoin:miter;stroke:rgb(23.137255%,20.392157%,20.392157%);stroke-opacity:1;stroke-miterlimit:4;" d="M 309.875 42.4375 C 287.1875 42.4375 268.4375 63.375 264.75 91 L 444.5625 91 C 440.875 63.375 422.1875 42.4375 399.4375 42.4375 Z M 309.875 42.4375 " transform="matrix(0.0625,0,0,0.0625,0,0)"/>
<path style=" stroke:none;fill-rule:nonzero;fill:#6B6B6B;fill-opacity:1;" d="M 4.121094 6.171875 L 27.878906 6.171875 C 29.757812 6.171875 31.28125 7.699219 31.28125 9.582031 L 31.28125 21.550781 C 31.28125 23.433594 29.757812 24.960938 27.878906 24.960938 L 4.121094 24.960938 C 2.242188 24.960938 0.71875 23.433594 0.71875 21.550781 L 0.71875 9.582031 C 0.71875 7.699219 2.242188 6.171875 4.121094 6.171875 Z M 4.121094 6.171875 "/>
<path style=" stroke:none;fill-rule:nonzero;fill:#6B6B6B;fill-opacity:1;" d="M 4.121094 10.558594 L 27.878906 10.558594 C 29.757812 10.558594 31.28125 12.085938 31.28125 13.96875 L 31.28125 25.9375 C 31.28125 27.820312 29.757812 29.347656 27.878906 29.347656 L 4.121094 29.347656 C 2.242188 29.347656 0.71875 27.820312 0.71875 25.9375 L 0.71875 13.96875 C 0.71875 12.085938 2.242188 10.558594 4.121094 10.558594 Z M 4.121094 10.558594 "/>
<path style=" stroke:none;fill-rule:nonzero;fill:rgb(100%,100%,100%);fill-opacity:1;" d="M 20.503906 10.511719 L 8.644531 10.511719 L 8.644531 22.566406 L 8.65625 22.566406 L 11.492188 25.167969 L 11.492188 25.253906 L 23.347656 25.253906 L 23.347656 13.203125 L 23.355469 13.195312 Z M 9.367188 10.96875 L 20.050781 10.96875 L 20.050781 13.199219 L 11.761719 13.199219 Z M 20.5 11.015625 L 22.820312 13.199219 L 20.5 13.199219 Z M 9.09375 11.207031 L 11.492188 13.433594 L 11.492188 22.109375 L 9.09375 22.109375 Z M 11.964844 13.679688 L 20.050781 13.679688 L 20.050781 22.109375 L 11.964844 22.109375 Z M 20.5 13.679688 L 22.875 13.679688 L 22.875 24.539062 L 20.5 22.183594 Z M 9.1875 22.566406 L 11.492188 22.566406 L 11.492188 24.679688 Z M 11.964844 22.566406 L 20.378906 22.566406 L 22.601562 24.773438 L 11.964844 24.773438 Z M 11.964844 22.566406 "/>
<path style=" stroke:none;fill-rule:nonzero;fill:rgb(100%,100%,100%);fill-opacity:1;" d="M 14.402344 17.359375 C 14.402344 17.847656 14.003906 18.242188 13.515625 18.242188 C 13.027344 18.242188 12.632812 17.847656 12.632812 17.359375 C 12.632812 16.871094 13.027344 16.472656 13.515625 16.472656 C 14.003906 16.472656 14.402344 16.871094 14.402344 17.359375 Z M 14.402344 17.359375 "/>
<path style=" stroke:none;fill-rule:nonzero;fill:rgb(100%,100%,100%);fill-opacity:1;" d="M 17.054688 17.359375 C 17.054688 17.847656 16.660156 18.242188 16.171875 18.242188 C 15.683594 18.242188 15.285156 17.847656 15.285156 17.359375 C 15.285156 16.871094 15.683594 16.472656 16.171875 16.472656 C 16.660156 16.472656 17.054688 16.871094 17.054688 17.359375 Z M 17.054688 17.359375 "/>
<path style=" stroke:none;fill-rule:nonzero;fill:rgb(100%,100%,100%);fill-opacity:1;" d="M 19.710938 17.359375 C 19.710938 17.847656 19.3125 18.242188 18.824219 18.242188 C 18.335938 18.242188 17.941406 17.847656 17.941406 17.359375 C 17.941406 16.871094 18.335938 16.472656 18.824219 16.472656 C 19.3125 16.472656 19.710938 16.871094 19.710938 17.359375 Z M 19.710938 17.359375 "/>
</g>
</svg>
