<?xml version="1.0" encoding="UTF-8"?>
<svg xmlns="http://www.w3.org/2000/svg" xmlns:xlink="http://www.w3.org/1999/xlink" width="32pt" height="32pt" viewBox="0 0 32 32" version="1.1">
<g id="surface1">
<path style=" stroke:none;fill-rule:nonzero;fill:rgb(30.196078%,30.196078%,30.196078%);fill-opacity:1;" d="M 4.363281 5.816406 L 4.363281 27.636719 L 27.636719 27.636719 L 27.636719 5.816406 Z M 5.816406 7.273438 L 7.273438 7.273438 L 7.273438 8.726562 L 5.816406 8.726562 Z M 8.726562 7.273438 L 23.273438 7.273438 L 23.273438 15.273438 L 8.726562 15.273438 Z M 24.726562 7.273438 L 26.183594 7.273438 L 26.183594 8.726562 L 24.726562 8.726562 Z M 5.816406 11.636719 L 7.273438 11.636719 L 7.273438 13.089844 L 5.816406 13.089844 Z M 24.726562 11.636719 L 26.183594 11.636719 L 26.183594 13.089844 L 24.726562 13.089844 Z M 5.816406 16 L 7.273438 16 L 7.273438 17.453125 L 5.816406 17.453125 Z M 24.726562 16 L 26.183594 16 L 26.183594 17.453125 L 24.726562 17.453125 Z M 8.726562 18.183594 L 23.273438 18.183594 L 23.273438 26.183594 L 8.726562 26.183594 Z M 5.816406 20.363281 L 7.273438 20.363281 L 7.273438 21.816406 L 5.816406 21.816406 Z M 24.726562 20.363281 L 26.183594 20.363281 L 26.183594 21.816406 L 24.726562 21.816406 Z M 5.816406 24.726562 L 7.273438 24.726562 L 7.273438 26.183594 L 5.816406 26.183594 Z M 24.726562 24.726562 L 26.183594 24.726562 L 26.183594 26.183594 L 24.726562 26.183594 Z M 24.726562 24.726562 "/>
</g>
</svg>
