<?xml version="1.0" encoding="UTF-8"?>
<svg xmlns="http://www.w3.org/2000/svg" xmlns:xlink="http://www.w3.org/1999/xlink" width="32pt" height="32pt" viewBox="0 0 32 32" version="1.1">
<g id="surface1">
<path style=" stroke:none;fill-rule:nonzero;fill:rgb(30.196078%,30.196078%,30.196078%);fill-opacity:1;" d="M 2.910156 4.363281 L 2.910156 27.636719 L 23.273438 27.636719 L 23.273438 4.363281 Z M 17.453125 5.816406 L 20.363281 5.816406 L 20.363281 26.183594 L 17.453125 26.183594 Z M 24.726562 13.089844 L 24.726562 25.328125 L 26.777344 27.378906 L 26.777344 27.628906 L 26.785156 27.636719 L 26.910156 27.511719 L 27.035156 27.636719 L 27.039062 27.628906 L 27.039062 27.378906 L 29.089844 25.328125 L 29.089844 13.089844 Z M 26.183594 14.546875 L 27.636719 14.546875 L 27.636719 16 L 26.183594 16 Z M 26.183594 17.453125 L 27.636719 17.453125 L 27.636719 24.726562 L 26.910156 25.453125 L 26.183594 24.726562 Z M 26.183594 17.453125 "/>
</g>
</svg>
