<!-- color: #d6e4eb -->
<svg xmlns="http://www.w3.org/2000/svg" xmlns:xlink="http://www.w3.org/1999/xlink" width="64px" height="64px" viewBox="0 0 64 64" version="1.1">
<defs>
<clipPath id="clip1">
  <path d="M 13.25 18.625 L 50.75 18.625 L 50.75 45.375 L 13.25 45.375 Z M 13.25 18.625 "/>
</clipPath>
<clipPath id="clip2">
  <path d="M 6.667969 2.671875 L 57.332031 2.671875 C 60.277344 2.671875 62.664062 5.058594 62.664062 8.003906 L 62.664062 58.671875 C 62.664062 61.613281 60.277344 64.003906 57.332031 64.003906 L 6.667969 64.003906 C 3.71875 64.003906 1.332031 61.613281 1.332031 58.671875 L 1.332031 8.003906 C 1.332031 5.058594 3.71875 2.671875 6.667969 2.671875 Z M 6.667969 2.671875 "/>
</clipPath>
</defs>
<g id="surface1">
<path style="fill-rule:nonzero;fill:rgb(92.54902%,92.54902%,92.54902%);fill-opacity:1;stroke-width:2.628025;stroke-linecap:butt;stroke-linejoin:miter;stroke:rgb(91.764706%,14.901961%,14.901961%);stroke-opacity:1;stroke-miterlimit:4;" d="M 7.731445 2.475586 L 40.268553 2.475586 C 43.171874 2.475586 45.524413 4.828125 45.524413 7.731445 L 45.524413 40.268553 C 45.524413 43.171874 43.171874 45.524413 40.268553 45.524413 L 7.731445 45.524413 C 4.828125 45.524413 2.475586 43.171874 2.475586 40.268553 L 2.475586 7.731445 C 2.475586 4.828125 4.828125 2.475586 7.731445 2.475586 Z M 7.731445 2.475586 " transform="matrix(1.333333,0,0,1.333333,0,0)"/>
<g clip-path="url(#clip1)" clip-rule="nonzero">
<g clip-path="url(#clip2)" clip-rule="nonzero">
<path style=" stroke:none;fill-rule:nonzero;fill:rgb(91.764706%,14.901961%,14.901961%);fill-opacity:1;" d="M 50.664062 22.222656 C 46.09375 26.292969 32.421875 41.632812 30.105469 41.632812 C 28.582031 41.632812 27.300781 40.570312 26.875 38.9375 C 26.628906 37.9375 27.003906 39.203125 13.332031 45.335938 C 14.703125 44.460938 24.292969 37.09375 25.539062 36.199219 C 26.785156 35.308594 32.9375 30.992188 34.734375 29.613281 C 38.027344 27.050781 39.308594 24.984375 39.308594 22.171875 C 39.308594 19.976562 37.960938 18.667969 35.835938 18.667969 C 34.5 18.667969 33.515625 18.976562 32.113281 19.792969 C 29.804688 21.171875 27.730469 22.859375 26.449219 24.359375 C 24.136719 27.238281 22.0625 34.117188 22.0625 39.1875 C 22.0625 42.878906 23.953125 45.191406 27.058594 45.191406 C 30.652344 45.191406 43.292969 32.890625 48.105469 27.945312 L 50.667969 22.214844 M 26.753906 33.1875 C 27.792969 26.492188 30.59375 21.296875 33.214844 21.296875 C 34.25 21.296875 34.921875 22.363281 34.921875 23.863281 C 34.921875 26.992188 33.277344 28.867188 26.753906 33.1875 "/>
</g>
</g>
</g>
</svg>
