
<svg xmlns="http://www.w3.org/2000/svg" xmlns:xlink="http://www.w3.org/1999/xlink" width="64px" height="64px" viewBox="0 0 64 64" version="1.1">
<g id="surface1">
<path style="fill-rule:nonzero;fill:rgb(100%,100%,100%);fill-opacity:1;stroke-width:56.650757;stroke-linecap:butt;stroke-linejoin:miter;stroke:rgb(45.882353%,49.803922%,59.215686%);stroke-opacity:1;stroke-miterlimit:4;" d="M 161.3125 48 L 862.6875 48 C 925.25 48 976 98.75 976 161.3125 L 976 862.6875 C 976 925.25 925.25 976 862.6875 976 L 161.3125 976 C 98.75 976 48 925.25 48 862.6875 L 48 161.3125 C 48 98.75 98.75 48 161.3125 48 Z M 161.3125 48 " transform="matrix(0.0625,0,0,0.0625,0,0)"/>
<path style=" stroke:none;fill-rule:nonzero;fill:rgb(85.882353%,42.352941%,42.352941%);fill-opacity:1;" d="M 38.933594 37.960938 C 38.886719 37.847656 38.171875 36.007812 37.34375 33.875 C 36.230469 30.992188 35.867188 29.960938 35.9375 29.878906 C 36.1875 29.570312 42.5 24.507812 42.5625 24.570312 C 42.660156 24.671875 45.660156 32.480469 45.660156 32.640625 C 45.660156 32.710938 44.234375 33.929688 42.492188 35.34375 C 40.746094 36.757812 39.253906 37.972656 39.171875 38.039062 C 39.039062 38.152344 39.015625 38.144531 38.933594 37.960938 Z M 38.933594 37.960938 "/>
<path style=" stroke:none;fill-rule:nonzero;fill:rgb(70.196078%,70.196078%,70.196078%);fill-opacity:1;" d="M 22.0625 50.25 C 25.542969 49.609375 29.726562 48.839844 31.355469 48.542969 L 34.320312 48 L 39.253906 49.371094 C 41.96875 50.128906 44.730469 50.894531 45.394531 51.078125 C 46.683594 51.433594 47.023438 51.445312 47.511719 51.148438 C 47.652344 51.0625 47.871094 50.859375 48 50.695312 C 48.242188 50.371094 48.171875 50.644531 52.03125 35.703125 C 52.984375 32.003906 54.421875 26.457031 55.21875 23.378906 C 56.023438 20.269531 56.667969 17.605469 56.671875 17.382812 C 56.675781 16.890625 56.335938 16.269531 55.921875 16.011719 C 55.535156 15.773438 36.367188 10.445312 35.898438 10.445312 C 35.445312 10.445312 35.054688 10.628906 34.6875 11.007812 C 34.351562 11.351562 34.285156 11.578125 33.121094 16.246094 C 32.679688 18.027344 32.285156 19.453125 32.25 19.414062 C 32.199219 19.355469 31.355469 14.480469 31.164062 13.136719 C 31.035156 12.234375 30.316406 11.550781 29.496094 11.558594 C 29.128906 11.5625 26.203125 12.082031 13.34375 14.445312 C 11.269531 14.824219 9.445312 15.199219 9.285156 15.277344 C 8.757812 15.527344 8.300781 16.226562 8.300781 16.78125 C 8.300781 17.09375 13.808594 49.652344 13.9375 50.117188 C 14.136719 50.824219 14.828125 51.414062 15.457031 51.414062 C 15.609375 51.414062 18.582031 50.890625 22.0625 50.25 Z M 22.0625 50.25 "/>
<path style=" stroke:none;fill-rule:evenodd;fill:rgb(90.196078%,90.196078%,90.196078%);fill-opacity:1;" d="M 9.191406 15.304688 L 29.984375 11.289062 C 30.617188 11.167969 31.214844 11.585938 31.320312 12.222656 L 37.003906 46.355469 C 37.109375 46.992188 36.683594 47.605469 36.050781 47.726562 L 15.261719 51.742188 C 14.628906 51.863281 14.03125 51.445312 13.921875 50.8125 L 8.238281 16.675781 C 8.132812 16.042969 8.558594 15.425781 9.191406 15.304688 Z M 9.191406 15.304688 "/>
<path style=" stroke:none;fill-rule:nonzero;fill:rgb(84.313725%,31.764706%,31.764706%);fill-opacity:1;" d="M 39.199219 37.398438 C 38.726562 36.316406 36.164062 29.550781 36.191406 29.449219 C 36.226562 29.289062 42.90625 23.859375 43.019531 23.898438 C 43.128906 23.933594 46.28125 32.070312 46.25 32.238281 C 46.222656 32.390625 39.628906 37.765625 39.46875 37.765625 C 39.40625 37.765625 39.285156 37.601562 39.199219 37.398438 Z M 39.199219 37.398438 "/>
<path style=" stroke:none;fill-rule:nonzero;fill:rgb(84.313725%,31.764706%,31.764706%);fill-opacity:1;" d="M 23.195312 36.992188 C 19.914062 35 18.804688 34.027344 17.976562 32.429688 C 16.925781 30.394531 16.785156 28.523438 17.628906 27.785156 C 18.179688 27.300781 18.992188 27.164062 20.199219 27.351562 C 20.839844 27.449219 21.289062 27.6875 21.722656 28.152344 C 21.835938 28.273438 21.980469 28.375 22.042969 28.375 C 22.105469 28.375 22.269531 28.152344 22.410156 27.875 C 22.84375 27.019531 23.78125 26.363281 24.914062 26.125 C 26.417969 25.8125 27.332031 27.03125 27.335938 29.351562 C 27.339844 31.367188 26.964844 32.492188 25.632812 34.503906 C 25.015625 35.4375 23.660156 37.179688 23.554688 37.175781 C 23.523438 37.175781 23.359375 37.09375 23.195312 36.992188 Z M 23.195312 36.992188 "/>
</g>
</svg>
