
<svg xmlns="http://www.w3.org/2000/svg" xmlns:xlink="http://www.w3.org/1999/xlink" width="64px" height="64px" viewBox="0 0 64 64" version="1.1">
<g id="surface1">
<path style="fill-rule:nonzero;fill:rgb(100%,100%,100%);fill-opacity:1;stroke-width:28.191782;stroke-linecap:butt;stroke-linejoin:miter;stroke:rgb(60.784314%,61.568627%,65.098039%);stroke-opacity:1;stroke-miterlimit:4;" d="M 81.46875 25.09375 L 430.53125 25.09375 C 461.65625 25.09375 486.90625 50.34375 486.90625 81.46875 L 486.90625 430.53125 C 486.90625 461.65625 461.65625 486.90625 430.53125 486.90625 L 81.46875 486.90625 C 50.34375 486.90625 25.09375 461.65625 25.09375 430.53125 L 25.09375 81.46875 C 25.09375 50.34375 50.34375 25.09375 81.46875 25.09375 Z M 81.46875 25.09375 " transform="matrix(0.125,0,0,0.125,0,0)"/>
<path style=" stroke:none;fill-rule:nonzero;fill:rgb(100%,100%,100%);fill-opacity:1;" d="M 52.066406 32.292969 C 52.066406 43.078125 43.113281 51.816406 32.070312 51.816406 C 21.023438 51.816406 12.070312 43.078125 12.070312 32.292969 C 12.070312 21.507812 21.023438 12.765625 32.070312 12.765625 C 43.113281 12.765625 52.066406 21.507812 52.066406 32.292969 Z M 52.066406 32.292969 "/>
<path style=" stroke:none;fill-rule:nonzero;fill:rgb(52.54902%,56.470588%,58.039216%);fill-opacity:1;" d="M 28.519531 57.253906 C 28.074219 57.054688 27.605469 56.550781 27.394531 56.046875 C 27.285156 55.785156 27.179688 54.789062 27.085938 53.195312 C 27.007812 51.847656 26.90625 50.640625 26.859375 50.507812 C 26.792969 50.332031 26.484375 50.167969 25.714844 49.898438 C 25.132812 49.695312 24.257812 49.332031 23.769531 49.085938 C 23.28125 48.839844 22.773438 48.636719 22.644531 48.636719 C 22.5 48.636719 21.699219 49.285156 20.5625 50.332031 C 19.546875 51.261719 18.550781 52.109375 18.351562 52.210938 C 17.9375 52.425781 17.007812 52.457031 16.53125 52.28125 C 16.148438 52.136719 12.113281 48.160156 11.855469 47.671875 C 11.597656 47.1875 11.625 46.28125 11.914062 45.730469 C 12.042969 45.480469 12.898438 44.464844 13.808594 43.476562 C 14.792969 42.414062 15.46875 41.585938 15.46875 41.453125 C 15.46875 41.328125 15.265625 40.824219 15.019531 40.335938 C 14.777344 39.847656 14.410156 38.976562 14.207031 38.398438 C 14.007812 37.820312 13.757812 37.300781 13.65625 37.25 C 13.554688 37.199219 12.371094 37.09375 11.023438 37.019531 C 9.457031 36.933594 8.402344 36.824219 8.09375 36.714844 C 7.515625 36.507812 6.84375 35.792969 6.75 35.28125 C 6.710938 35.074219 6.695312 33.535156 6.714844 31.867188 L 6.75 28.828125 L 7.097656 28.390625 C 7.714844 27.617188 8.003906 27.539062 10.953125 27.355469 C 12.621094 27.253906 13.636719 27.144531 13.722656 27.0625 C 13.792969 26.988281 14.042969 26.414062 14.277344 25.785156 C 14.507812 25.160156 14.871094 24.300781 15.082031 23.878906 C 15.292969 23.457031 15.46875 23.019531 15.46875 22.90625 C 15.46875 22.792969 14.769531 21.9375 13.917969 21 C 13.066406 20.066406 12.25 19.144531 12.105469 18.953125 C 11.699219 18.417969 11.5625 17.75 11.722656 17.101562 C 11.84375 16.609375 12.066406 16.34375 13.917969 14.464844 C 15.054688 13.316406 16.171875 12.277344 16.402344 12.15625 C 16.941406 11.878906 17.800781 11.875 18.335938 12.148438 C 18.5625 12.261719 19.554688 13.097656 20.539062 14 C 21.523438 14.902344 22.394531 15.679688 22.476562 15.726562 C 22.5625 15.777344 23.089844 15.589844 23.734375 15.285156 C 24.347656 14.992188 25.265625 14.617188 25.773438 14.445312 C 26.460938 14.214844 26.726562 14.066406 26.820312 13.863281 C 26.890625 13.714844 27.011719 12.488281 27.089844 11.140625 C 27.234375 8.550781 27.324219 8.140625 27.859375 7.582031 C 28.453125 6.960938 28.796875 6.910156 32.117188 6.945312 L 35.144531 6.980469 L 35.621094 7.292969 C 36.433594 7.832031 36.53125 8.167969 36.722656 11.054688 C 36.816406 12.449219 36.917969 13.699219 36.949219 13.832031 C 36.992188 14.019531 37.242188 14.15625 38.054688 14.441406 C 38.628906 14.640625 39.554688 15.03125 40.105469 15.308594 C 40.65625 15.585938 41.152344 15.8125 41.207031 15.8125 C 41.257812 15.8125 42.144531 15.039062 43.175781 14.097656 C 44.203125 13.152344 45.234375 12.28125 45.46875 12.160156 C 46.015625 11.871094 46.835938 11.875 47.4375 12.164062 C 47.722656 12.304688 48.691406 13.1875 49.910156 14.417969 C 52 16.527344 52.164062 16.769531 52.167969 17.726562 C 52.167969 18.402344 51.867188 18.847656 50.070312 20.816406 C 49.09375 21.886719 48.292969 22.8125 48.292969 22.867188 C 48.292969 22.921875 48.546875 23.5 48.859375 24.148438 C 49.171875 24.796875 49.542969 25.707031 49.6875 26.171875 C 49.863281 26.746094 50.019531 27.042969 50.171875 27.109375 C 50.296875 27.164062 51.558594 27.277344 52.972656 27.367188 C 55.78125 27.542969 56.234375 27.65625 56.703125 28.320312 C 57.148438 28.945312 57.203125 29.414062 57.164062 32.472656 L 57.125 35.398438 L 56.78125 35.886719 C 56.167969 36.757812 56.015625 36.804688 52.898438 37.007812 C 51.375 37.105469 50.105469 37.214844 50.070312 37.246094 C 50.039062 37.277344 49.851562 37.765625 49.652344 38.328125 C 49.453125 38.890625 49.0625 39.800781 48.785156 40.355469 C 48.507812 40.910156 48.296875 41.433594 48.316406 41.515625 C 48.335938 41.601562 49.09375 42.480469 50.003906 43.46875 C 50.910156 44.460938 51.769531 45.5 51.910156 45.777344 C 52.210938 46.367188 52.238281 46.992188 51.992188 47.585938 C 51.773438 48.109375 48.070312 51.867188 47.46875 52.179688 C 46.96875 52.441406 46.050781 52.46875 45.523438 52.238281 C 45.324219 52.152344 44.3125 51.304688 43.277344 50.359375 C 42.242188 49.414062 41.316406 48.640625 41.214844 48.640625 C 41.113281 48.640625 40.53125 48.871094 39.921875 49.15625 C 39.308594 49.445312 38.402344 49.8125 37.90625 49.972656 C 37.21875 50.199219 36.992188 50.328125 36.949219 50.507812 C 36.917969 50.640625 36.816406 51.890625 36.722656 53.285156 C 36.519531 56.355469 36.402344 56.6875 35.335938 57.230469 C 35.023438 57.386719 34.511719 57.414062 31.914062 57.410156 C 29.617188 57.40625 28.773438 57.367188 28.519531 57.253906 Z M 33.019531 43.621094 C 35.773438 43.332031 38.078125 42.234375 40.039062 40.269531 C 41.53125 38.773438 42.496094 37.097656 43.074219 34.980469 C 43.4375 33.65625 43.4375 30.726562 43.070312 29.382812 C 41.960938 25.3125 39.046875 22.3125 35.015625 21.097656 C 34.074219 20.816406 33.820312 20.789062 31.992188 20.78125 C 30.246094 20.773438 29.878906 20.804688 29.03125 21.035156 C 24.789062 22.195312 21.546875 25.601562 20.65625 29.832031 C 19.863281 33.632812 21.027344 37.511719 23.800781 40.300781 C 25.253906 41.761719 27.136719 42.832031 29.179688 43.359375 C 29.761719 43.507812 30.589844 43.621094 31.765625 43.71875 C 31.859375 43.726562 32.425781 43.683594 33.019531 43.621094 Z M 30.195312 38.839844 C 27.289062 38.054688 25.253906 35.582031 25.074219 32.613281 C 24.949219 30.542969 25.613281 28.789062 27.085938 27.320312 C 29.769531 24.652344 34.046875 24.625 36.695312 27.265625 C 38.875 29.4375 39.398438 32.53125 38.046875 35.246094 C 36.894531 37.554688 34.769531 38.921875 32.164062 39.023438 C 31.277344 39.058594 30.839844 39.015625 30.195312 38.839844 Z M 33.445312 35.96875 C 34.246094 35.667969 35.207031 34.777344 35.609375 33.957031 C 35.890625 33.378906 35.925781 33.1875 35.925781 32.167969 C 35.925781 31.085938 35.90625 30.992188 35.535156 30.308594 C 34.789062 28.929688 33.675781 28.230469 32.109375 28.148438 C 30.847656 28.085938 30.09375 28.351562 29.183594 29.183594 C 28.03125 30.238281 27.570312 31.703125 27.941406 33.148438 C 28.261719 34.402344 28.941406 35.25 30.085938 35.832031 C 31.152344 36.371094 32.246094 36.414062 33.445312 35.96875 Z M 33.445312 35.96875 "/>
</g>
</svg>
