
<svg xmlns="http://www.w3.org/2000/svg" xmlns:xlink="http://www.w3.org/1999/xlink" width="64px" height="64px" viewBox="0 0 64 64" version="1.1">
<g id="surface1">
<path style="fill-rule:nonzero;fill:rgb(100%,100%,100%);fill-opacity:1;stroke-width:28.191782;stroke-linecap:butt;stroke-linejoin:miter;stroke:rgb(11.764706%,72.54902%,85.098039%);stroke-opacity:1;stroke-miterlimit:4;" d="M 81.46875 25.09375 L 430.53125 25.09375 C 461.65625 25.09375 486.90625 50.34375 486.90625 81.46875 L 486.90625 430.53125 C 486.90625 461.65625 461.65625 486.90625 430.53125 486.90625 L 81.46875 486.90625 C 50.34375 486.90625 25.09375 461.65625 25.09375 430.53125 L 25.09375 81.46875 C 25.09375 50.34375 50.34375 25.09375 81.46875 25.09375 Z M 81.46875 25.09375 " transform="matrix(0.125,0,0,0.125,0,0)"/>
<path style=" stroke:none;fill-rule:nonzero;fill:rgb(25.882353%,74.901961%,98.039216%);fill-opacity:1;" d="M 32.328125 48.820312 C 32.136719 48.628906 32.183594 48.414062 32.6875 47.109375 C 33.421875 45.207031 33.515625 44.824219 33.519531 43.75 C 33.523438 42.859375 33.507812 42.78125 33.292969 42.609375 C 33.167969 42.503906 32.957031 42.421875 32.824219 42.421875 C 32.257812 42.421875 29.769531 41.699219 27.992188 41.019531 C 24.992188 39.867188 20.84375 37.226562 18.179688 34.777344 C 17.871094 34.488281 17.578125 34.257812 17.53125 34.257812 C 17.488281 34.257812 17.394531 34.421875 17.332031 34.621094 C 17.175781 35.09375 16.429688 36.609375 16.15625 37.007812 C 14.929688 38.789062 13.378906 40.019531 11.601562 40.625 C 10.636719 40.953125 9.488281 41.15625 8.632812 41.15625 C 7.476562 41.15625 7.351562 40.847656 8.050781 39.726562 C 9.257812 37.789062 10.21875 35.351562 10.628906 33.1875 C 10.804688 32.277344 10.78125 30.65625 10.582031 29.691406 C 10.253906 28.097656 9.558594 26.351562 8.445312 24.347656 C 7.683594 22.972656 7.625 22.777344 7.902344 22.5 C 8.089844 22.3125 8.175781 22.296875 8.859375 22.359375 C 11.820312 22.617188 14.644531 24.566406 16.816406 27.863281 C 17.160156 28.386719 17.476562 28.8125 17.515625 28.8125 C 17.558594 28.8125 18.015625 28.445312 18.535156 28 C 20.597656 26.214844 23.429688 24.183594 25.246094 23.179688 C 26.332031 22.582031 26.851562 21.777344 26.9375 20.550781 C 27.027344 19.316406 26.554688 18.160156 25.1875 16.257812 C 24.789062 15.707031 24.410156 15.148438 24.34375 15.027344 C 24.066406 14.5 23.78125 14.523438 31.089844 14.523438 L 37.851562 14.523438 L 38.4375 14.757812 C 40.339844 15.535156 42.445312 17.648438 43.410156 19.75 L 43.828125 20.65625 L 44.507812 20.859375 C 46.324219 21.40625 48.519531 22.433594 50 23.429688 C 52.707031 25.242188 55.113281 27.96875 56.542969 30.847656 C 56.90625 31.578125 56.949219 31.738281 56.949219 32.351562 C 56.949219 33.164062 56.710938 33.671875 55.695312 35.046875 C 53.003906 38.679688 48.996094 41.042969 43.777344 42.066406 C 43.109375 42.199219 42.394531 42.335938 42.1875 42.371094 C 41.914062 42.417969 41.796875 42.492188 41.757812 42.648438 C 41.632812 43.144531 40.929688 44.328125 40.28125 45.140625 C 39.207031 46.488281 37.328125 48.15625 36.246094 48.730469 C 35.894531 48.914062 35.699219 48.933594 34.152344 48.933594 C 32.953125 48.933594 32.410156 48.898438 32.328125 48.820312 Z M 47.785156 34.042969 C 48.273438 33.878906 49.042969 33.332031 49.363281 32.929688 C 49.519531 32.730469 49.753906 32.304688 49.882812 31.984375 C 50.085938 31.488281 50.113281 31.28125 50.078125 30.605469 C 50.023438 29.585938 49.710938 28.917969 48.972656 28.242188 C 48.222656 27.554688 47.566406 27.324219 46.5 27.375 C 45.789062 27.40625 45.585938 27.457031 45.058594 27.742188 C 44.347656 28.121094 43.859375 28.640625 43.5 29.394531 C 43.289062 29.839844 43.246094 30.066406 43.246094 30.757812 C 43.246094 31.445312 43.289062 31.675781 43.503906 32.132812 C 43.976562 33.148438 44.941406 33.949219 45.9375 34.15625 C 46.414062 34.257812 47.320312 34.199219 47.785156 34.042969 Z M 46.019531 32.050781 C 45.554688 31.804688 45.3125 31.433594 45.265625 30.886719 C 45.210938 30.25 45.460938 29.808594 46.046875 29.503906 C 46.371094 29.335938 46.578125 29.292969 46.8125 29.335938 C 47.597656 29.484375 48.089844 30.070312 48.078125 30.84375 C 48.0625 31.835938 46.902344 32.515625 46.019531 32.050781 Z M 46.019531 32.050781 "/>
</g>
</svg>
