<!-- color: #41afd2 -->
<svg xmlns="http://www.w3.org/2000/svg" xmlns:xlink="http://www.w3.org/1999/xlink" width="64px" height="64px" viewBox="0 0 64 64" version="1.1">
<defs>
<clipPath id="clip1">
  <path d="M 26.75 22.375 L 54.5 22.375 L 54.5 55.875 L 26.75 55.875 Z M 26.75 22.375 "/>
</clipPath>
<clipPath id="clip2">
  <path d="M 67.042969 39.070312 C 67.042969 56.746094 55.214844 71.0625 40.644531 71.0625 C 26.070312 71.0625 14.246094 56.746094 14.246094 39.070312 C 14.246094 21.394531 26.070312 7.078125 40.644531 7.078125 C 55.214844 7.078125 67.042969 21.394531 67.042969 39.070312 Z M 67.042969 39.070312 "/>
</clipPath>
<clipPath id="clip3">
  <path d="M 26.75 22.375 L 40.75 22.375 L 40.75 55.875 L 26.75 55.875 Z M 26.75 22.375 "/>
</clipPath>
<clipPath id="clip4">
  <path d="M 67.042969 39.070312 C 67.042969 56.746094 55.214844 71.0625 40.644531 71.0625 C 26.070312 71.0625 14.246094 56.746094 14.246094 39.070312 C 14.246094 21.394531 26.070312 7.078125 40.644531 7.078125 C 55.214844 7.078125 67.042969 21.394531 67.042969 39.070312 Z M 67.042969 39.070312 "/>
</clipPath>
<clipPath id="clip5">
  <path d="M 26.75 22.375 L 30.375 22.375 L 30.375 55.875 L 26.75 55.875 Z M 26.75 22.375 "/>
</clipPath>
<clipPath id="clip6">
  <path d="M 67.042969 39.070312 C 67.042969 56.746094 55.214844 71.0625 40.644531 71.0625 C 26.070312 71.0625 14.246094 56.746094 14.246094 39.070312 C 14.246094 21.394531 26.070312 7.078125 40.644531 7.078125 C 55.214844 7.078125 67.042969 21.394531 67.042969 39.070312 Z M 67.042969 39.070312 "/>
</clipPath>
<clipPath id="clip7">
  <path d="M 50.875 22.375 L 54.5 22.375 L 54.5 55.875 L 50.875 55.875 Z M 50.875 22.375 "/>
</clipPath>
<clipPath id="clip8">
  <path d="M 67.042969 39.070312 C 67.042969 56.746094 55.214844 71.0625 40.644531 71.0625 C 26.070312 71.0625 14.246094 56.746094 14.246094 39.070312 C 14.246094 21.394531 26.070312 7.078125 40.644531 7.078125 C 55.214844 7.078125 67.042969 21.394531 67.042969 39.070312 Z M 67.042969 39.070312 "/>
</clipPath>
<clipPath id="clip9">
  <path d="M 30.25 25.125 L 38.375 25.125 L 38.375 28 L 30.25 28 Z M 30.25 25.125 "/>
</clipPath>
<clipPath id="clip10">
  <path d="M 67.042969 39.070312 C 67.042969 56.746094 55.214844 71.0625 40.644531 71.0625 C 26.070312 71.0625 14.246094 56.746094 14.246094 39.070312 C 14.246094 21.394531 26.070312 7.078125 40.644531 7.078125 C 55.214844 7.078125 67.042969 21.394531 67.042969 39.070312 Z M 67.042969 39.070312 "/>
</clipPath>
<clipPath id="clip11">
  <path d="M 42.875 50.125 L 51 50.125 L 51 53 L 42.875 53 Z M 42.875 50.125 "/>
</clipPath>
<clipPath id="clip12">
  <path d="M 67.042969 39.070312 C 67.042969 56.746094 55.214844 71.0625 40.644531 71.0625 C 26.070312 71.0625 14.246094 56.746094 14.246094 39.070312 C 14.246094 21.394531 26.070312 7.078125 40.644531 7.078125 C 55.214844 7.078125 67.042969 21.394531 67.042969 39.070312 Z M 67.042969 39.070312 "/>
</clipPath>
<clipPath id="clip13">
  <path d="M 30.25 32 L 51 32 L 51 33.625 L 30.25 33.625 Z M 30.25 32 "/>
</clipPath>
<clipPath id="clip14">
  <path d="M 67.042969 39.070312 C 67.042969 56.746094 55.214844 71.0625 40.644531 71.0625 C 26.070312 71.0625 14.246094 56.746094 14.246094 39.070312 C 14.246094 21.394531 26.070312 7.078125 40.644531 7.078125 C 55.214844 7.078125 67.042969 21.394531 67.042969 39.070312 Z M 67.042969 39.070312 "/>
</clipPath>
<clipPath id="clip15">
  <path d="M 30.25 36.25 L 51 36.25 L 51 37.75 L 30.25 37.75 Z M 30.25 36.25 "/>
</clipPath>
<clipPath id="clip16">
  <path d="M 67.042969 39.070312 C 67.042969 56.746094 55.214844 71.0625 40.644531 71.0625 C 26.070312 71.0625 14.246094 56.746094 14.246094 39.070312 C 14.246094 21.394531 26.070312 7.078125 40.644531 7.078125 C 55.214844 7.078125 67.042969 21.394531 67.042969 39.070312 Z M 67.042969 39.070312 "/>
</clipPath>
<clipPath id="clip17">
  <path d="M 30.25 40.375 L 51 40.375 L 51 41.875 L 30.25 41.875 Z M 30.25 40.375 "/>
</clipPath>
<clipPath id="clip18">
  <path d="M 67.042969 39.070312 C 67.042969 56.746094 55.214844 71.0625 40.644531 71.0625 C 26.070312 71.0625 14.246094 56.746094 14.246094 39.070312 C 14.246094 21.394531 26.070312 7.078125 40.644531 7.078125 C 55.214844 7.078125 67.042969 21.394531 67.042969 39.070312 Z M 67.042969 39.070312 "/>
</clipPath>
<clipPath id="clip19">
  <path d="M 30.25 44.625 L 51 44.625 L 51 46.125 L 30.25 46.125 Z M 30.25 44.625 "/>
</clipPath>
<clipPath id="clip20">
  <path d="M 67.042969 39.070312 C 67.042969 56.746094 55.214844 71.0625 40.644531 71.0625 C 26.070312 71.0625 14.246094 56.746094 14.246094 39.070312 C 14.246094 21.394531 26.070312 7.078125 40.644531 7.078125 C 55.214844 7.078125 67.042969 21.394531 67.042969 39.070312 Z M 67.042969 39.070312 "/>
</clipPath>
</defs>
<g id="surface1">
<path style="fill-rule:nonzero;fill:rgb(20%,20%,20%);fill-opacity:1;stroke-width:7.006356;stroke-linecap:butt;stroke-linejoin:miter;stroke:rgb(16.862745%,65.882353%,92.156863%);stroke-opacity:1;stroke-miterlimit:4;" d="M 20.625 6.617188 L 107.375 6.617188 C 115.109375 6.617188 121.382812 12.890625 121.382812 20.625 L 121.382812 107.375 C 121.382812 115.109375 115.109375 121.382812 107.375 121.382812 L 20.625 121.382812 C 12.890625 121.382812 6.617188 115.109375 6.617188 107.375 L 6.617188 20.625 C 6.617188 12.890625 12.890625 6.617188 20.625 6.617188 Z M 20.625 6.617188 " transform="matrix(0.5,0,0,0.5,0,0)"/>
<path style=" stroke:none;fill-rule:nonzero;fill:rgb(78.431373%,44.313725%,21.568627%);fill-opacity:1;" d="M 14.445312 9.304688 L 41.164062 9.304688 C 43.199219 9.304688 44.847656 10.953125 44.847656 12.988281 L 44.847656 46.710938 C 44.847656 48.742188 43.199219 50.390625 41.164062 50.390625 L 14.445312 50.390625 C 12.410156 50.390625 10.761719 48.742188 10.761719 46.710938 L 10.761719 12.988281 C 10.761719 10.953125 12.410156 9.304688 14.445312 9.304688 Z M 14.445312 9.304688 "/>
<g clip-path="url(#clip1)" clip-rule="nonzero">
<g clip-path="url(#clip2)" clip-rule="nonzero">
<path style=" stroke:none;fill-rule:nonzero;fill:rgb(100%,100%,100%);fill-opacity:1;" d="M 29.167969 22.375 L 52.121094 22.375 C 53.390625 22.375 54.417969 23.621094 54.417969 25.160156 L 54.417969 52.980469 C 54.417969 54.515625 53.390625 55.761719 52.121094 55.761719 L 29.167969 55.761719 C 27.898438 55.761719 26.871094 54.515625 26.871094 52.980469 L 26.871094 25.160156 C 26.871094 23.621094 27.898438 22.375 29.167969 22.375 M 29.167969 22.375 "/>
</g>
</g>
<g clip-path="url(#clip3)" clip-rule="nonzero">
<g clip-path="url(#clip4)" clip-rule="nonzero">
<path style=" stroke:none;fill-rule:nonzero;fill:rgb(98.431373%,92.156863%,81.176471%);fill-opacity:1;" d="M 29.167969 22.375 C 27.894531 22.375 26.871094 23.617188 26.871094 25.160156 L 26.871094 52.980469 C 26.871094 54.523438 27.894531 55.761719 29.167969 55.761719 L 40.644531 55.761719 L 40.644531 22.375 M 29.167969 22.375 "/>
</g>
</g>
<g clip-path="url(#clip5)" clip-rule="nonzero">
<g clip-path="url(#clip6)" clip-rule="nonzero">
<path style=" stroke:none;fill-rule:nonzero;fill:rgb(100%,100%,100%);fill-opacity:1;" d="M 29.167969 22.375 C 27.894531 22.375 26.871094 23.617188 26.871094 25.160156 L 26.871094 52.980469 C 26.871094 54.523438 27.894531 55.761719 29.167969 55.761719 L 30.3125 55.761719 C 29.042969 55.761719 28.019531 54.523438 28.019531 52.980469 L 28.019531 25.160156 C 28.019531 23.617188 29.042969 22.375 30.3125 22.375 M 29.167969 22.375 "/>
</g>
</g>
<g clip-path="url(#clip7)" clip-rule="nonzero">
<g clip-path="url(#clip8)" clip-rule="nonzero">
<path style=" stroke:none;fill-rule:nonzero;fill:rgb(98.431373%,92.156863%,81.176471%);fill-opacity:1;" d="M 50.972656 22.375 C 52.246094 22.375 53.269531 23.617188 53.269531 25.160156 L 53.269531 52.980469 C 53.269531 54.523438 52.246094 55.761719 50.972656 55.761719 L 52.121094 55.761719 C 53.394531 55.761719 54.417969 54.523438 54.417969 52.980469 L 54.417969 25.160156 C 54.417969 23.617188 53.394531 22.375 52.121094 22.375 M 50.972656 22.375 "/>
</g>
</g>
<g clip-path="url(#clip9)" clip-rule="nonzero">
<g clip-path="url(#clip10)" clip-rule="nonzero">
<path style=" stroke:none;fill-rule:nonzero;fill:rgb(17.647059%,17.647059%,17.647059%);fill-opacity:0.4;" d="M 30.3125 25.160156 L 38.347656 25.160156 L 38.347656 27.941406 L 30.3125 27.941406 M 30.3125 25.160156 "/>
</g>
</g>
<g clip-path="url(#clip11)" clip-rule="nonzero">
<g clip-path="url(#clip12)" clip-rule="nonzero">
<path style=" stroke:none;fill-rule:nonzero;fill:rgb(17.647059%,17.647059%,17.647059%);fill-opacity:0.4;" d="M 42.941406 50.195312 L 50.972656 50.195312 L 50.972656 52.980469 L 42.941406 52.980469 M 42.941406 50.195312 "/>
</g>
</g>
<g clip-path="url(#clip13)" clip-rule="nonzero">
<g clip-path="url(#clip14)" clip-rule="nonzero">
<path style=" stroke:none;fill-rule:nonzero;fill:rgb(17.647059%,17.647059%,17.647059%);fill-opacity:0.4;" d="M 30.3125 32.113281 L 50.972656 32.113281 L 50.972656 33.503906 L 30.3125 33.503906 M 30.3125 32.113281 "/>
</g>
</g>
<g clip-path="url(#clip15)" clip-rule="nonzero">
<g clip-path="url(#clip16)" clip-rule="nonzero">
<path style=" stroke:none;fill-rule:nonzero;fill:rgb(17.647059%,17.647059%,17.647059%);fill-opacity:0.4;" d="M 30.3125 36.285156 L 50.972656 36.285156 L 50.972656 37.679688 L 30.3125 37.679688 M 30.3125 36.285156 "/>
</g>
</g>
<g clip-path="url(#clip17)" clip-rule="nonzero">
<g clip-path="url(#clip18)" clip-rule="nonzero">
<path style=" stroke:none;fill-rule:nonzero;fill:rgb(17.647059%,17.647059%,17.647059%);fill-opacity:0.4;" d="M 30.3125 40.460938 L 50.972656 40.460938 L 50.972656 41.851562 L 30.3125 41.851562 M 30.3125 40.460938 "/>
</g>
</g>
<g clip-path="url(#clip19)" clip-rule="nonzero">
<g clip-path="url(#clip20)" clip-rule="nonzero">
<path style=" stroke:none;fill-rule:nonzero;fill:rgb(17.647059%,17.647059%,17.647059%);fill-opacity:0.4;" d="M 30.3125 44.632812 L 50.972656 44.632812 L 50.972656 46.023438 L 30.3125 46.023438 M 30.3125 44.632812 "/>
</g>
</g>
<path style=" stroke:none;fill-rule:nonzero;fill:rgb(28.235294%,21.568627%,21.568627%);fill-opacity:1;" d="M 21.65625 10.710938 L 33.140625 10.710938 L 33.140625 12.558594 L 21.65625 12.558594 Z M 21.65625 10.710938 "/>
<path style=" stroke:none;fill-rule:nonzero;fill:rgb(66.27451%,62.352941%,55.686275%);fill-opacity:1;" d="M 24.507812 7.648438 L 30.699219 7.648438 L 30.699219 11.632812 L 24.507812 11.632812 Z M 24.507812 7.648438 "/>
</g>
</svg>
