
<svg xmlns="http://www.w3.org/2000/svg" xmlns:xlink="http://www.w3.org/1999/xlink" width="64px" height="64px" viewBox="0 0 64 64" version="1.1">
<g id="surface1">
<path style="fill-rule:nonzero;fill:rgb(92.54902%,92.54902%,92.54902%);fill-opacity:1;stroke-width:7.034782;stroke-linecap:butt;stroke-linejoin:miter;stroke:rgb(3.529412%,55.294118%,92.156863%);stroke-opacity:1;stroke-miterlimit:4;" d="M 20.453125 6.382812 L 107.546875 6.382812 C 115.320312 6.382812 121.617188 12.679688 121.617188 20.453125 L 121.617188 107.546875 C 121.617188 115.320312 115.320312 121.617188 107.546875 121.617188 L 20.453125 121.617188 C 12.679688 121.617188 6.382812 115.320312 6.382812 107.546875 L 6.382812 20.453125 C 6.382812 12.679688 12.679688 6.382812 20.453125 6.382812 Z M 20.453125 6.382812 " transform="matrix(0.5,0,0,0.5,0,0)"/>
<path style=" stroke:none;fill-rule:nonzero;fill:rgb(0%,0%,0%);fill-opacity:0.101961;" d="M 27.375 20.574219 L 27.375 45.707031 L 46.222656 33.140625 M 33.660156 28.117188 C 36.710938 28.128906 38.679688 30.84375 38.683594 33.140625 C 38.683594 36.910156 34.914062 38.167969 33.660156 38.167969 L 33.660156 35.65625 C 37.875 35.234375 36.496094 29.535156 32.402344 30.628906 L 32.402344 38.167969 L 29.886719 38.167969 L 29.886719 30.078125 C 29.886719 29.390625 31.144531 28.113281 33.660156 28.113281 M 33.660156 28.113281 "/>
<path style=" stroke:none;fill-rule:evenodd;fill:rgb(92.941176%,92.941176%,92.941176%);fill-opacity:1;" d="M 32.402344 13.035156 L 32.40625 13.035156 C 42.8125 13.035156 51.25 21.472656 51.25 31.886719 L 51.25 31.890625 C 51.25 42.296875 42.8125 50.734375 32.40625 50.734375 L 32.402344 50.734375 C 21.992188 50.734375 13.554688 42.296875 13.554688 31.890625 L 13.554688 31.886719 C 13.554688 21.472656 21.992188 13.035156 32.402344 13.035156 M 32.402344 13.035156 "/>
<path style=" stroke:none;fill-rule:nonzero;fill:rgb(3.529412%,55.294118%,92.156863%);fill-opacity:1;" d="M 17.269531 7.523438 L 17.269531 56.25 L 53.816406 31.886719 M 29.453125 22.140625 C 35.371094 22.171875 39.1875 27.433594 39.199219 31.886719 C 39.199219 39.195312 31.890625 41.632812 29.453125 41.632812 L 29.453125 36.757812 C 37.625 35.9375 34.953125 24.890625 27.015625 27.011719 L 27.015625 41.632812 L 22.144531 41.632812 L 22.144531 25.945312 C 22.144531 24.613281 24.582031 22.136719 29.453125 22.136719 M 29.453125 22.136719 "/>
</g>
</svg>
