
<svg xmlns="http://www.w3.org/2000/svg" xmlns:xlink="http://www.w3.org/1999/xlink" width="64px" height="64px" viewBox="0 0 64 64" version="1.1">
<g id="surface1">
<path style="fill-rule:nonzero;fill:rgb(100%,100%,100%);fill-opacity:1;stroke-width:7.083912;stroke-linecap:butt;stroke-linejoin:miter;stroke:rgb(29.019608%,68.235294%,90.980392%);stroke-opacity:1;stroke-miterlimit:4;" d="M 20.148438 5.976562 L 107.851562 5.976562 C 115.679688 5.976562 122.023438 12.320312 122.023438 20.148438 L 122.023438 107.851562 C 122.023438 115.679688 115.679688 122.023438 107.851562 122.023438 L 20.148438 122.023438 C 12.320312 122.023438 5.976562 115.679688 5.976562 107.851562 L 5.976562 20.148438 C 5.976562 12.320312 12.320312 5.976562 20.148438 5.976562 Z M 20.148438 5.976562 " transform="matrix(0.5,0,0,0.5,0,0)"/>
<path style=" stroke:none;fill-rule:evenodd;fill:rgb(20.392157%,28.627451%,36.862745%);fill-opacity:1;" d="M 32.117188 7.3125 C 45.800781 7.3125 56.894531 18.402344 56.894531 32.085938 C 56.894531 45.765625 45.800781 56.859375 32.117188 56.859375 C 18.4375 56.859375 7.34375 45.765625 7.34375 32.085938 C 7.34375 18.402344 18.4375 7.3125 32.117188 7.3125 Z M 32.117188 7.3125 "/>
<path style=" stroke:none;fill-rule:evenodd;fill:rgb(0%,66.666667%,83.137255%);fill-opacity:1;" d="M 32.117188 12.265625 C 43.0625 12.265625 51.9375 21.136719 51.9375 32.085938 C 51.9375 43.03125 43.0625 51.902344 32.117188 51.902344 C 21.171875 51.902344 12.300781 43.03125 12.300781 32.085938 C 12.300781 21.136719 21.171875 12.265625 32.117188 12.265625 Z M 32.117188 12.265625 "/>
<path style=" stroke:none;fill-rule:evenodd;fill:rgb(0%,40%,50.196078%);fill-opacity:1;" d="M 32.117188 17.21875 C 40.328125 17.21875 46.984375 23.875 46.984375 32.085938 C 46.984375 40.292969 40.328125 46.949219 32.117188 46.949219 C 23.910156 46.949219 17.253906 40.292969 17.253906 32.085938 C 17.253906 23.875 23.910156 17.21875 32.117188 17.21875 Z M 32.117188 17.21875 "/>
<path style=" stroke:none;fill-rule:evenodd;fill:rgb(12.54902%,13.72549%,19.607843%);fill-opacity:1;" d="M 32.117188 22.175781 C 37.589844 22.175781 42.027344 26.613281 42.027344 32.085938 C 42.027344 37.558594 37.589844 41.992188 32.117188 41.992188 C 26.644531 41.992188 22.207031 37.558594 22.207031 32.085938 C 22.207031 26.613281 26.644531 22.175781 32.117188 22.175781 Z M 32.117188 22.175781 "/>
<path style=" stroke:none;fill-rule:evenodd;fill:rgb(55.686275%,65.098039%,73.333333%);fill-opacity:1;" d="M 37.074219 22.175781 C 39.808594 22.175781 42.027344 24.394531 42.027344 27.128906 C 42.027344 29.867188 39.808594 32.085938 37.074219 32.085938 C 34.335938 32.085938 32.117188 29.867188 32.117188 27.128906 C 32.117188 24.394531 34.335938 22.175781 37.074219 22.175781 Z M 37.074219 22.175781 "/>
<path style=" stroke:none;fill-rule:evenodd;fill:rgb(55.686275%,65.098039%,73.333333%);fill-opacity:1;" d="M 24.6875 37.039062 C 26.054688 37.039062 27.164062 38.148438 27.164062 39.515625 C 27.164062 40.886719 26.054688 41.992188 24.6875 41.992188 C 23.316406 41.992188 22.207031 40.886719 22.207031 39.515625 C 22.207031 38.148438 23.316406 37.039062 24.6875 37.039062 Z M 24.6875 37.039062 "/>
</g>
</svg>
