
<svg xmlns="http://www.w3.org/2000/svg" xmlns:xlink="http://www.w3.org/1999/xlink" width="64px" height="64px" viewBox="0 0 64 64" version="1.1">
<g id="surface1">
<path style=" stroke:none;fill-rule:nonzero;fill:rgb(40.784314%,61.960784%,25.882353%);fill-opacity:1;" d="M 11.152344 4.648438 L 53.140625 4.648438 C 56.734375 4.648438 59.648438 7.558594 59.648438 11.152344 L 59.648438 53.140625 C 59.648438 56.734375 56.734375 59.648438 53.140625 59.648438 L 11.152344 59.648438 C 7.558594 59.648438 4.648438 56.734375 4.648438 53.140625 L 4.648438 11.152344 C 4.648438 7.558594 7.558594 4.648438 11.152344 4.648438 Z M 11.152344 4.648438 "/>
<path style=" stroke:none;fill-rule:evenodd;fill:rgb(81.960784%,100%,32.941176%);fill-opacity:0.152941;" d="M 49.984375 44.65625 C 49.984375 39.511719 49.984375 27.382812 49.984375 27.382812 C 49.984375 21.613281 44.925781 16.9375 38.679688 16.9375 L 32.203125 16.9375 L 32.203125 16.921875 L 14.675781 16.847656 L 14.675781 23.148438 C 14.675781 23.148438 16.105469 23.148438 17.367188 23.148438 C 19.242188 23.148438 19.574219 24.445312 19.574219 26.238281 L 19.589844 37.378906 C 19.589844 43.148438 24.648438 47.828125 30.886719 47.828125 L 46.285156 47.828125 C 48.257812 47.828125 49.984375 46.578125 49.984375 44.65625 Z M 49.984375 44.65625 "/>
<path style=" stroke:none;fill-rule:evenodd;fill:rgb(97.647059%,97.647059%,97.647059%);fill-opacity:1;" d="M 12.179688 14.378906 L 12.179688 25.835938 L 16.886719 25.835938 L 16.886719 37.140625 C 16.886719 44.570312 23.339844 50.226562 30.773438 50.226562 L 52.164062 50.226562 L 52.164062 27.542969 C 52.164062 20.105469 45.71875 14.480469 38.277344 14.480469 L 32.042969 14.457031 Z M 15.207031 17.402344 L 32.042969 17.480469 L 32.042969 17.507812 L 38.277344 17.507812 C 44.273438 17.507812 49.140625 22 49.140625 27.542969 L 49.140625 44.121094 C 49.140625 45.96875 47.464844 47.175781 45.570312 47.175781 L 30.773438 47.175781 C 24.78125 47.175781 19.9375 42.683594 19.9375 37.140625 L 19.910156 25.757812 C 19.910156 23.992188 18.375 22.808594 17.09375 22.808594 L 15.207031 22.808594 Z M 22.835938 20.792969 L 22.835938 37.269531 C 22.835938 39.015625 23.476562 40.554688 24.722656 41.792969 C 25.785156 42.84375 27.0625 43.527344 28.5 43.683594 L 32.558594 43.683594 L 32.558594 40.449219 L 29.066406 40.421875 C 27.371094 40.421875 25.9375 38.769531 25.9375 36.648438 L 25.9375 20.792969 Z M 34.5 23.507812 C 33.09375 23.507812 31.832031 24.019531 30.828125 25.035156 C 29.824219 26.046875 29.300781 27.304688 29.300781 28.734375 L 29.300781 35.949219 L 32.585938 35.949219 L 32.585938 28.734375 C 32.585938 28.1875 32.765625 27.757812 33.15625 27.363281 C 33.546875 26.964844 33.960938 26.792969 34.5 26.792969 C 35.050781 26.792969 35.453125 26.964844 35.84375 27.363281 C 36.234375 27.757812 36.414062 28.1875 36.414062 28.734375 L 36.414062 35.949219 L 39.671875 35.949219 L 39.671875 28.734375 C 39.671875 28.1875 39.851562 27.757812 40.242188 27.363281 C 40.632812 26.964844 41.0625 26.792969 41.613281 26.792969 C 42.152344 26.792969 42.566406 26.964844 42.957031 27.363281 C 43.347656 27.757812 43.527344 28.1875 43.527344 28.734375 L 43.527344 35.898438 L 46.8125 35.898438 L 46.785156 28.734375 C 46.785156 27.304688 46.261719 26.046875 45.257812 25.035156 C 44.257812 24.019531 43.019531 23.507812 41.613281 23.507812 C 40.234375 23.507812 39.019531 24.015625 38.042969 24.957031 C 37.070312 24.019531 35.878906 23.507812 34.5 23.507812 Z M 46.8125 37.734375 C 46.777344 38.074219 46.714844 38.421875 46.628906 38.742188 C 46.71875 38.414062 46.777344 38.082031 46.8125 37.734375 Z M 43.449219 37.8125 C 43.347656 38.238281 43.15625 38.648438 42.878906 39 C 43.15625 38.648438 43.347656 38.238281 43.449219 37.8125 Z M 43.449219 37.8125 "/>
<path style=" stroke:none;fill-rule:evenodd;fill:rgb(82.352941%,88.627451%,79.607843%);fill-opacity:0.4;" d="M 32.566406 40.445312 L 32.566406 43.675781 L 40.253906 43.675781 C 42.058594 43.675781 43.632812 43.003906 44.914062 41.703125 L 44.921875 41.703125 C 46.011719 40.582031 46.648438 39.246094 46.800781 37.738281 L 46.800781 35.90625 L 43.539062 35.90625 L 43.539062 37.160156 C 43.539062 38.957031 41.828125 40.46875 39.628906 40.46875 Z M 32.566406 40.445312 "/>
</g>
</svg>
