
<svg xmlns="http://www.w3.org/2000/svg" xmlns:xlink="http://www.w3.org/1999/xlink" width="64px" height="64px" viewBox="0 0 64 64" version="1.1">
<g id="surface1">
<path style="fill-rule:nonzero;fill:rgb(25.098039%,32.54902%,40.784314%);fill-opacity:1;stroke-width:2.646595;stroke-linecap:butt;stroke-linejoin:miter;stroke:rgb(29.019608%,68.235294%,90.980392%);stroke-opacity:1;stroke-miterlimit:4;" d="M 91.50326 42.703509 L 124.268884 42.703509 C 127.192712 42.703509 129.562829 45.073626 129.562829 47.997454 L 129.562829 80.763078 C 129.562829 83.686906 127.192712 86.057023 124.268884 86.057023 L 91.50326 86.057023 C 88.579432 86.057023 86.209315 83.686906 86.209315 80.763078 L 86.209315 47.997454 C 86.209315 45.073626 88.579432 42.703509 91.50326 42.703509 Z M 91.50326 42.703509 " transform="matrix(1.333333,0,0,1.333333,-111.848101,-53.840357)"/>
<path style=" stroke:none;fill-rule:nonzero;fill:rgb(10.196078%,73.72549%,62.352941%);fill-opacity:0.941176;" d="M 30.878906 15.742188 C 29.582031 15.75 28.339844 15.859375 27.25 16.054688 C 24.035156 16.628906 23.453125 17.828125 23.453125 20.042969 L 23.453125 22.964844 L 31.046875 22.964844 L 31.046875 23.941406 L 20.601562 23.941406 C 18.394531 23.941406 16.460938 25.28125 15.855469 27.828125 C 15.15625 30.75 15.128906 32.574219 15.855469 35.625 C 16.394531 37.894531 17.683594 39.511719 19.890625 39.511719 L 22.503906 39.511719 L 22.503906 36.007812 C 22.503906 33.476562 24.671875 31.242188 27.25 31.242188 L 34.835938 31.242188 C 36.949219 31.242188 38.636719 29.488281 38.636719 27.347656 L 38.636719 20.042969 C 38.636719 17.964844 36.898438 16.402344 34.835938 16.054688 C 33.53125 15.835938 32.179688 15.738281 30.878906 15.742188 Z M 26.769531 18.09375 C 27.554688 18.09375 28.195312 18.75 28.195312 19.558594 C 28.195312 20.367188 27.554688 21.015625 26.769531 21.015625 C 25.984375 21.015625 25.347656 20.367188 25.347656 19.558594 C 25.347656 18.75 25.984375 18.09375 26.769531 18.09375 Z M 26.769531 18.09375 "/>
<path style=" stroke:none;fill-rule:nonzero;fill:rgb(10.196078%,73.72549%,62.352941%);fill-opacity:0.941176;" d="M 39.636719 23.882812 L 39.636719 27.261719 C 39.636719 29.882812 37.414062 32.089844 34.882812 32.089844 L 27.277344 32.089844 C 25.195312 32.089844 23.472656 33.871094 23.472656 35.960938 L 23.472656 43.207031 C 23.472656 45.273438 25.265625 46.484375 27.277344 47.078125 C 29.6875 47.785156 32 47.914062 34.882812 47.078125 C 36.796875 46.523438 38.6875 45.40625 38.6875 43.207031 L 38.6875 40.308594 L 31.082031 40.308594 L 31.082031 39.339844 L 42.492188 39.339844 C 44.703125 39.339844 45.527344 37.796875 46.296875 35.480469 C 47.09375 33.09375 47.058594 30.800781 46.296875 27.742188 C 45.75 25.539062 44.707031 23.882812 42.492188 23.882812 Z M 35.359375 42.242188 C 36.148438 42.242188 36.789062 42.886719 36.789062 43.6875 C 36.789062 44.488281 36.148438 45.144531 35.359375 45.144531 C 34.574219 45.144531 33.929688 44.488281 33.929688 43.6875 C 33.929688 42.886719 34.574219 42.242188 35.359375 42.242188 Z M 35.359375 42.242188 "/>
</g>
</svg>
