
<svg xmlns="http://www.w3.org/2000/svg" xmlns:xlink="http://www.w3.org/1999/xlink" width="64px" height="64px" viewBox="0 0 64 64" version="1.1">
<g id="surface1">
<path style="fill-rule:nonzero;fill:rgb(96.470588%,76.078431%,61.960784%);fill-opacity:1;stroke-width:27.07575;stroke-linecap:butt;stroke-linejoin:miter;stroke:rgb(55.686275%,50.980392%,47.843137%);stroke-opacity:1;stroke-miterlimit:4;" d="M 88.375 34.25 L 423.625 34.25 C 453.53125 34.25 477.75 58.46875 477.75 88.375 L 477.75 423.625 C 477.75 453.53125 453.53125 477.75 423.625 477.75 L 88.375 477.75 C 58.46875 477.75 34.25 453.53125 34.25 423.625 L 34.25 88.375 C 34.25 58.46875 58.46875 34.25 88.375 34.25 Z M 88.375 34.25 " transform="matrix(0.125,0,0,0.125,0,0)"/>
<path style=" stroke:none;fill-rule:evenodd;fill:rgb(0%,0%,0%);fill-opacity:0.196078;" d="M 21.421875 6.113281 C 29.078125 17.265625 30.785156 27.425781 30.796875 36.996094 L 33.585938 36.917969 C 34.117188 20.132812 37.578125 13.820312 42.816406 5.789062 Z M 21.421875 6.113281 "/>
<path style=" stroke:none;fill-rule:nonzero;fill:rgb(100%,100%,100%);fill-opacity:1;" d="M 32.121094 35.960938 C 31.730469 35.960938 30.929688 35.964844 30.339844 35.972656 L 29.273438 35.988281 L 29.273438 37.148438 C 29.273438 37.148438 28.929688 37.535156 28.847656 37.773438 C 28.164062 39.824219 28.066406 42.140625 28.539062 44.246094 C 28.613281 44.570312 29.007812 45.125 29.007812 45.125 L 29.09375 43.597656 C 29.28125 42.507812 29.179688 41.324219 30.167969 41.324219 L 30.425781 41.324219 L 30.425781 40.261719 C 30.425781 39.382812 31.101562 38.679688 31.941406 38.679688 L 32.105469 38.679688 C 32.945312 38.679688 33.621094 39.382812 33.621094 40.261719 L 33.621094 41.324219 L 33.894531 41.324219 C 34.953125 41.34375 34.941406 43.136719 34.964844 43.597656 L 35.054688 45.125 C 35.054688 45.125 35.496094 44.515625 35.578125 44.160156 C 36.046875 42.132812 35.980469 39.890625 35.304688 37.921875 C 35.242188 37.734375 34.964844 37.445312 34.964844 37.445312 L 34.964844 35.988281 L 33.898438 35.972656 C 33.3125 35.964844 32.511719 35.960938 32.121094 35.960938 Z M 31.949219 39.070312 C 31.214844 39.070312 30.625 39.683594 30.625 40.449219 L 30.625 43.636719 C 30.625 44.402344 31.214844 45.015625 31.949219 45.015625 L 32.09375 45.015625 C 32.828125 45.015625 33.417969 44.402344 33.417969 43.636719 L 33.417969 40.449219 C 33.417969 39.683594 32.828125 39.070312 32.09375 39.070312 Z M 30.417969 41.679688 C 30.363281 41.679688 30.164062 41.761719 29.972656 41.863281 L 29.628906 42.046875 L 29.628906 52.117188 L 29.734375 52.277344 L 29.875 52.363281 L 34.1875 52.28125 L 34.351562 52.144531 L 34.390625 47.195312 L 34.4375 42.125 L 34.132812 41.902344 C 33.96875 41.777344 33.765625 41.679688 33.6875 41.679688 L 33.621094 41.679688 L 33.621094 43.914062 C 33.621094 44.792969 32.945312 45.496094 32.105469 45.496094 L 31.941406 45.496094 C 31.101562 45.496094 30.425781 44.792969 30.425781 43.914062 L 30.425781 41.679688 Z M 31.949219 48.445312 C 32.769531 48.445312 33.433594 49.109375 33.433594 49.929688 C 33.433594 50.75 32.769531 51.414062 31.949219 51.414062 C 31.128906 51.414062 30.464844 50.75 30.464844 49.929688 C 30.464844 49.109375 31.128906 48.445312 31.949219 48.445312 Z M 31.949219 48.445312 "/>
<path style="fill:none;stroke-width:10.673623;stroke-linecap:butt;stroke-linejoin:miter;stroke:rgb(100%,100%,100%);stroke-opacity:1;stroke-dasharray:10.673624,10.673624;stroke-miterlimit:0;" d="M 188.980831 49.998949 C 269.855831 177.373949 255.387081 222.467699 262.793331 286.436449 " transform="matrix(0.125,0,0,0.125,-1.884323,-0.273306)"/>
<path style="fill:none;stroke-width:10.673623;stroke-linecap:butt;stroke-linejoin:miter;stroke:rgb(100%,100%,100%);stroke-opacity:1;stroke-dasharray:10.673624,10.673624;stroke-dashoffset:11;stroke-miterlimit:4;" d="M 283.230831 290.530199 C 289.918331 130.811449 324.293331 103.623949 352.949581 48.842699 " transform="matrix(0.125,0,0,0.125,-1.884323,-0.273306)"/>
</g>
</svg>
