
<svg xmlns="http://www.w3.org/2000/svg" xmlns:xlink="http://www.w3.org/1999/xlink" width="64px" height="64px" viewBox="0 0 64 64" version="1.1">
<g id="surface1">
<path style=" stroke:none;fill-rule:nonzero;fill:rgb(80%,80%,80%);fill-opacity:1;" d="M 38.648438 5.714844 C 35.84375 5.714844 33.535156 8.289062 33.078125 11.6875 L 55.269531 11.6875 C 54.8125 8.289062 52.503906 5.714844 49.699219 5.714844 Z M 38.648438 5.714844 "/>
<path style=" stroke:none;fill-rule:nonzero;fill:rgb(14.509804%,68.235294%,87.45098%);fill-opacity:1;" d="M 8.546875 12.644531 L 55.453125 12.644531 C 59.160156 12.644531 62.167969 15.652344 62.167969 19.363281 L 62.167969 42.933594 C 62.167969 46.644531 59.160156 49.648438 55.453125 49.648438 L 8.546875 49.648438 C 4.839844 49.648438 1.832031 46.644531 1.832031 42.933594 L 1.832031 19.363281 C 1.832031 15.652344 4.839844 12.644531 8.546875 12.644531 Z M 8.546875 12.644531 "/>
<path style=" stroke:none;fill-rule:nonzero;fill:rgb(14.509804%,68.235294%,87.45098%);fill-opacity:1;" d="M 8.546875 21.28125 L 55.453125 21.28125 C 59.160156 21.28125 62.167969 24.289062 62.167969 28 L 62.167969 51.566406 C 62.167969 55.277344 59.160156 58.285156 55.453125 58.285156 L 8.546875 58.285156 C 4.839844 58.285156 1.832031 55.277344 1.832031 51.566406 L 1.832031 28 C 1.832031 24.289062 4.839844 21.28125 8.546875 21.28125 Z M 8.546875 21.28125 "/>
<path style="fill-rule:nonzero;fill:rgb(100%,100%,100%);fill-opacity:1;stroke-width:11.742473;stroke-linecap:butt;stroke-linejoin:miter;stroke:rgb(100%,100%,100%);stroke-opacity:1;stroke-miterlimit:4;" d="M 189.312501 191.562501 L 189.312501 206.500001 L 286.843751 206.500001 L 330.093751 259.312501 L 330.093751 363.187501 L 316.562501 363.187501 L 316.562501 376.000001 L 342.906251 376.000001 L 342.343751 256.218751 L 342.343751 253.125001 L 291.906251 191.562501 Z M 189.500001 216.250001 L 189.500001 246.062501 L 201.750001 246.062501 L 201.750001 216.250001 Z M 189.500001 275.937501 L 189.500001 305.781251 L 201.750001 305.781251 L 201.750001 275.937501 Z M 189.500001 338.187501 L 189.500001 363.187501 L 169.062501 363.187501 L 169.062501 375.968751 L 189.500001 375.968751 L 189.500001 398.531251 L 201.718751 398.531251 L 201.718751 375.968751 L 222.187501 375.968751 L 222.187501 363.187501 L 201.718751 363.187501 L 201.718751 338.187501 Z M 248.781251 363.187501 L 248.781251 376.000001 L 283.812501 376.000001 L 283.812501 363.187501 Z M 248.781251 363.187501 " transform="matrix(0.125,0,0,0.125,-0.000000125644,-0.000000114152)"/>
</g>
</svg>
