<!-- color: #474747 -->
<svg xmlns="http://www.w3.org/2000/svg" xmlns:xlink="http://www.w3.org/1999/xlink" width="64px" height="64px" viewBox="0 0 64 64" version="1.1">
<defs>
<clipPath id="clip1">
  <path d="M 21.75 22.125 L 42.25 22.125 L 42.25 55.25 L 21.75 55.25 Z M 21.75 22.125 "/>
</clipPath>
<clipPath id="clip2">
  <path d="M 77.164062 32.878906 C 77.164062 61.234375 56.9375 84.199219 32.011719 84.199219 C 7.089844 84.199219 -13.136719 61.234375 -13.136719 32.878906 C -13.136719 4.523438 7.089844 -18.441406 32.011719 -18.441406 C 56.9375 -18.441406 77.164062 4.523438 77.164062 32.878906 Z M 77.164062 32.878906 "/>
</clipPath>
<clipPath id="clip3">
  <path d="M 21.75 28.875 L 42.25 28.875 L 42.25 39 L 21.75 39 Z M 21.75 28.875 "/>
</clipPath>
<clipPath id="clip4">
  <path d="M 77.164062 32.878906 C 77.164062 61.234375 56.9375 84.199219 32.011719 84.199219 C 7.089844 84.199219 -13.136719 61.234375 -13.136719 32.878906 C -13.136719 4.523438 7.089844 -18.441406 32.011719 -18.441406 C 56.9375 -18.441406 77.164062 4.523438 77.164062 32.878906 Z M 77.164062 32.878906 "/>
</clipPath>
<clipPath id="clip5">
  <path d="M 23.5 44.125 L 40.625 44.125 L 40.625 50.5 L 23.5 50.5 Z M 23.5 44.125 "/>
</clipPath>
<clipPath id="clip6">
  <path d="M 77.164062 32.878906 C 77.164062 61.234375 56.9375 84.199219 32.011719 84.199219 C 7.089844 84.199219 -13.136719 61.234375 -13.136719 32.878906 C -13.136719 4.523438 7.089844 -18.441406 32.011719 -18.441406 C 56.9375 -18.441406 77.164062 4.523438 77.164062 32.878906 Z M 77.164062 32.878906 "/>
</clipPath>
<clipPath id="clip7">
  <path d="M 22.5 36.375 L 41.5 36.375 L 41.5 44.75 L 22.5 44.75 Z M 22.5 36.375 "/>
</clipPath>
<clipPath id="clip8">
  <path d="M 77.164062 32.878906 C 77.164062 61.234375 56.9375 84.199219 32.011719 84.199219 C 7.089844 84.199219 -13.136719 61.234375 -13.136719 32.878906 C -13.136719 4.523438 7.089844 -18.441406 32.011719 -18.441406 C 56.9375 -18.441406 77.164062 4.523438 77.164062 32.878906 Z M 77.164062 32.878906 "/>
</clipPath>
<clipPath id="clip9">
  <path d="M 23 10.5 L 41.125 10.5 L 41.125 26.75 L 23 26.75 Z M 23 10.5 "/>
</clipPath>
<clipPath id="clip10">
  <path d="M 77.164062 32.878906 C 77.164062 61.234375 56.9375 84.199219 32.011719 84.199219 C 7.089844 84.199219 -13.136719 61.234375 -13.136719 32.878906 C -13.136719 4.523438 7.089844 -18.441406 32.011719 -18.441406 C 56.9375 -18.441406 77.164062 4.523438 77.164062 32.878906 Z M 77.164062 32.878906 "/>
</clipPath>
<clipPath id="clip11">
  <path d="M 6.375 15.625 L 27.125 15.625 L 27.125 37.375 L 6.375 37.375 Z M 6.375 15.625 "/>
</clipPath>
<clipPath id="clip12">
  <path d="M 77.164062 32.878906 C 77.164062 61.234375 56.9375 84.199219 32.011719 84.199219 C 7.089844 84.199219 -13.136719 61.234375 -13.136719 32.878906 C -13.136719 4.523438 7.089844 -18.441406 32.011719 -18.441406 C 56.9375 -18.441406 77.164062 4.523438 77.164062 32.878906 Z M 77.164062 32.878906 "/>
</clipPath>
<clipPath id="clip13">
  <path d="M 9.875 32.75 L 26.375 32.75 L 26.375 48.25 L 9.875 48.25 Z M 9.875 32.75 "/>
</clipPath>
<clipPath id="clip14">
  <path d="M 77.164062 32.878906 C 77.164062 61.234375 56.9375 84.199219 32.011719 84.199219 C 7.089844 84.199219 -13.136719 61.234375 -13.136719 32.878906 C -13.136719 4.523438 7.089844 -18.441406 32.011719 -18.441406 C 56.9375 -18.441406 77.164062 4.523438 77.164062 32.878906 Z M 77.164062 32.878906 "/>
</clipPath>
<clipPath id="clip15">
  <path d="M 36.875 15.625 L 57.625 15.625 L 57.625 37.375 L 36.875 37.375 Z M 36.875 15.625 "/>
</clipPath>
<clipPath id="clip16">
  <path d="M 77.164062 32.878906 C 77.164062 61.234375 56.9375 84.199219 32.011719 84.199219 C 7.089844 84.199219 -13.136719 61.234375 -13.136719 32.878906 C -13.136719 4.523438 7.089844 -18.441406 32.011719 -18.441406 C 56.9375 -18.441406 77.164062 4.523438 77.164062 32.878906 Z M 77.164062 32.878906 "/>
</clipPath>
<clipPath id="clip17">
  <path d="M 37.625 32.75 L 54.125 32.75 L 54.125 48.25 L 37.625 48.25 Z M 37.625 32.75 "/>
</clipPath>
<clipPath id="clip18">
  <path d="M 77.164062 32.878906 C 77.164062 61.234375 56.9375 84.199219 32.011719 84.199219 C 7.089844 84.199219 -13.136719 61.234375 -13.136719 32.878906 C -13.136719 4.523438 7.089844 -18.441406 32.011719 -18.441406 C 56.9375 -18.441406 77.164062 4.523438 77.164062 32.878906 Z M 77.164062 32.878906 "/>
</clipPath>
</defs>
<g id="surface1">
<path style="fill-rule:nonzero;fill:rgb(100%,100%,100%);fill-opacity:1;stroke-width:7.117036;stroke-linecap:butt;stroke-linejoin:miter;stroke:rgb(92.54902%,89.019608%,20%);stroke-opacity:1;stroke-miterlimit:4;" d="M 19.945312 5.710938 L 108.054688 5.710938 C 115.921875 5.710938 122.289062 12.078125 122.289062 19.945312 L 122.289062 108.054688 C 122.289062 115.921875 115.921875 122.289062 108.054688 122.289062 L 19.945312 122.289062 C 12.078125 122.289062 5.710938 115.921875 5.710938 108.054688 L 5.710938 19.945312 C 5.710938 12.078125 12.078125 5.710938 19.945312 5.710938 Z M 19.945312 5.710938 " transform="matrix(0.5,0,0,0.5,0,0)"/>
<path style=" stroke:none;fill-rule:nonzero;fill:rgb(20%,20%,20%);fill-opacity:1;" d="M 42.003906 38.601562 C 42.003906 30.820312 37.609375 24.515625 32.1875 24.515625 C 26.765625 24.515625 22.367188 30.820312 22.367188 38.601562 C 22.367188 46.382812 26.765625 52.6875 32.1875 52.6875 C 37.609375 52.6875 42.003906 46.382812 42.003906 38.601562 Z M 42.003906 38.601562 "/>
<g clip-path="url(#clip1)" clip-rule="nonzero">
<g clip-path="url(#clip2)" clip-rule="nonzero">
<path style=" stroke:none;fill-rule:nonzero;fill:rgb(92.54902%,89.019608%,20%);fill-opacity:1;" d="M 32.011719 22.195312 C 28.570312 22.195312 25.945312 24.800781 24.335938 27.824219 C 22.734375 30.847656 21.816406 34.5625 21.816406 38.640625 C 21.816406 42.730469 22.734375 46.554688 24.335938 49.570312 C 25.945312 52.59375 28.570312 55.199219 32.011719 55.199219 C 35.457031 55.199219 38.179688 52.59375 39.78125 49.570312 C 41.382812 46.546875 42.210938 42.730469 42.210938 38.640625 C 42.210938 34.5625 41.382812 30.847656 39.78125 27.824219 C 38.179688 24.800781 35.457031 22.195312 32.011719 22.195312 M 32.011719 26.089844 C 36.351562 26.089844 39.886719 32.085938 39.886719 39.398438 C 39.886719 46.71875 36.359375 52.605469 32.011719 52.605469 C 27.671875 52.605469 24.140625 46.71875 24.140625 39.398438 C 24.140625 32.085938 27.667969 26.089844 32.011719 26.089844 M 32.011719 26.089844 "/>
</g>
</g>
<g clip-path="url(#clip3)" clip-rule="nonzero">
<g clip-path="url(#clip4)" clip-rule="nonzero">
<path style=" stroke:none;fill-rule:nonzero;fill:rgb(92.54902%,89.019608%,20%);fill-opacity:1;" d="M 32.050781 28.90625 C 27.933594 28.90625 24.285156 31.375 22.050781 35.246094 C 21.929688 36.457031 21.875 37.71875 21.851562 38.992188 C 24.0625 35.445312 27.78125 33.128906 32.050781 33.128906 C 36.273438 33.128906 39.996094 35.386719 42.179688 38.878906 C 42.164062 37.675781 42.085938 36.5 41.988281 35.359375 C 39.777344 31.472656 36.183594 28.90625 32.046875 28.90625 M 32.046875 28.90625 "/>
</g>
</g>
<g clip-path="url(#clip5)" clip-rule="nonzero">
<g clip-path="url(#clip6)" clip-rule="nonzero">
<path style=" stroke:none;fill-rule:nonzero;fill:rgb(92.54902%,89.019608%,20%);fill-opacity:1;" d="M 30.304688 44.257812 C 27.75 44.632812 25.449219 45.941406 23.535156 47.703125 C 23.773438 48.222656 23.964844 48.808594 24.246094 49.289062 C 24.484375 49.699219 24.792969 50.097656 25.074219 50.484375 C 27.109375 49.304688 29.445312 48.625 31.96875 48.625 C 34.492188 48.625 36.832031 49.304688 38.863281 50.484375 C 39.15625 50.097656 39.476562 49.691406 39.699219 49.289062 C 39.992188 48.792969 40.308594 48.242188 40.542969 47.703125 C 38.207031 45.53125 35.238281 44.257812 31.996094 44.257812 C 31.414062 44.257812 30.898438 44.179688 30.332031 44.257812 M 30.324219 44.257812 "/>
</g>
</g>
<g clip-path="url(#clip7)" clip-rule="nonzero">
<g clip-path="url(#clip8)" clip-rule="nonzero">
<path style=" stroke:none;fill-rule:nonzero;fill:rgb(92.54902%,89.019608%,20%);fill-opacity:1;" d="M 31.980469 36.390625 C 28.085938 36.390625 25.203125 38.441406 22.597656 41.402344 C 22.742188 42.625 22.382812 43.617188 22.726562 44.734375 C 25.25 42.589844 28.460938 41.289062 31.996094 41.289062 C 35.523438 41.289062 38.753906 42.589844 41.261719 44.734375 C 41.589844 43.617188 41.34375 42.632812 41.492188 41.402344 C 38.882812 38.421875 35.90625 36.390625 31.996094 36.390625 M 31.980469 36.390625 "/>
</g>
</g>
<g clip-path="url(#clip9)" clip-rule="nonzero">
<g clip-path="url(#clip10)" clip-rule="nonzero">
<path style=" stroke:none;fill-rule:nonzero;fill:rgb(92.54902%,89.019608%,20%);fill-opacity:1;" d="M 32.050781 10.558594 C 27.082031 10.558594 23.027344 14.402344 23.027344 19.222656 C 23.027344 22.167969 24.550781 24.816406 26.867188 26.394531 C 27.34375 25.148438 29.3125 24.171875 31.757812 24.171875 C 34.375 24.171875 36.53125 25.261719 36.789062 26.636719 C 39.320312 25.097656 41.007812 22.351562 41.007812 19.222656 C 41.007812 14.402344 37.011719 10.558594 32.050781 10.558594 M 26.355469 15.597656 C 27.199219 15.597656 27.832031 16.886719 27.832031 18.480469 C 27.832031 20.074219 27.191406 21.367188 26.355469 21.367188 C 25.507812 21.367188 24.796875 20.074219 24.796875 18.480469 C 24.796875 16.886719 25.507812 15.597656 26.355469 15.597656 M 37.679688 15.597656 C 38.515625 15.597656 39.230469 16.886719 39.230469 18.480469 C 39.230469 20.074219 38.515625 21.367188 37.679688 21.367188 C 36.835938 21.367188 36.199219 20.074219 36.199219 18.480469 C 36.199219 16.886719 36.835938 15.597656 37.679688 15.597656 M 37.679688 15.597656 "/>
</g>
</g>
<g clip-path="url(#clip11)" clip-rule="nonzero">
<g clip-path="url(#clip12)" clip-rule="nonzero">
<path style=" stroke:none;fill-rule:nonzero;fill:rgb(92.54902%,89.019608%,20%);fill-opacity:1;" d="M 12.886719 15.769531 C 15.933594 16.011719 20.535156 17.433594 25.765625 20.800781 C 26.253906 21.113281 26.636719 21.46875 27.097656 21.792969 C 26.59375 22.273438 26.171875 22.8125 25.765625 23.359375 C 25.464844 23.140625 25.195312 22.898438 24.875 22.699219 C 21.761719 20.695312 18.59375 19.550781 15.996094 19.316406 C 13.398438 19.082031 11.375 19.734375 10.519531 21.382812 C 8.820312 24.660156 13.257812 29.425781 19.480469 33.433594 C 19.902344 33.707031 20.667969 34.246094 21.082031 34.480469 C 21.027344 34.550781 19.8125 35.472656 19.769531 35.5625 C 19.347656 35.300781 18.949219 35.101562 18.511719 34.820312 C 13.273438 31.457031 9.785156 27.742188 8.082031 24.925781 C 6.371094 22.101562 6.074219 19.800781 6.96875 18.078125 C 7.859375 16.359375 9.847656 15.523438 12.898438 15.769531 M 22.753906 36.800781 C 22.796875 36.957031 22.796875 37.125 22.820312 37.289062 C 22.78125 37.261719 22.722656 37.238281 22.675781 37.210938 C 22.730469 37.070312 22.730469 36.957031 22.746094 36.800781 M 22.753906 36.800781 "/>
</g>
</g>
<g clip-path="url(#clip13)" clip-rule="nonzero">
<g clip-path="url(#clip14)" clip-rule="nonzero">
<path style=" stroke:none;fill-rule:nonzero;fill:rgb(92.54902%,89.019608%,20%);fill-opacity:1;" d="M 23.417969 32.800781 C 23.324219 33.183594 23.15625 33.542969 23.085938 33.933594 C 23.0625 33.945312 23.09375 34.03125 23.0625 34.039062 C 16.429688 36.976562 12.425781 41.039062 13.9375 43.898438 C 15.207031 46.277344 19.867188 47.140625 25.664062 46.511719 C 25.765625 46.652344 25.765625 46.820312 25.863281 46.957031 C 26 47.148438 26.164062 47.332031 26.308594 47.53125 C 23.226562 48.046875 20.402344 48.265625 18.128906 48.152344 C 14.058594 47.949219 11.28125 46.9375 10.308594 45.101562 C 9.332031 43.261719 10.375 40.960938 13.089844 38.617188 C 15.316406 36.691406 18.835938 34.589844 23.421875 32.808594 M 23.421875 32.800781 "/>
</g>
</g>
<g clip-path="url(#clip15)" clip-rule="nonzero">
<g clip-path="url(#clip16)" clip-rule="nonzero">
<path style=" stroke:none;fill-rule:nonzero;fill:rgb(92.54902%,89.019608%,20%);fill-opacity:1;" d="M 51.136719 15.769531 C 48.09375 16.011719 43.492188 17.433594 38.261719 20.800781 C 37.769531 21.113281 37.386719 21.46875 36.925781 21.792969 C 37.433594 22.273438 37.855469 22.8125 38.261719 23.359375 C 38.558594 23.140625 38.828125 22.898438 39.152344 22.699219 C 42.265625 20.695312 45.429688 19.550781 48.03125 19.316406 C 50.628906 19.082031 52.652344 19.734375 53.503906 21.382812 C 55.207031 24.660156 50.765625 29.425781 44.546875 33.433594 C 44.125 33.707031 43.359375 34.246094 42.945312 34.480469 C 43 34.550781 44.210938 35.472656 44.257812 35.5625 C 44.679688 35.300781 45.078125 35.101562 45.515625 34.820312 C 50.753906 31.457031 54.242188 27.742188 55.945312 24.925781 C 57.65625 22.101562 57.953125 19.800781 57.054688 18.078125 C 56.167969 16.359375 54.179688 15.523438 51.128906 15.769531 M 41.273438 36.800781 C 41.226562 36.957031 41.226562 37.125 41.203125 37.289062 C 41.242188 37.261719 41.304688 37.238281 41.347656 37.210938 C 41.296875 37.070312 41.296875 36.957031 41.28125 36.800781 M 41.273438 36.800781 "/>
</g>
</g>
<g clip-path="url(#clip17)" clip-rule="nonzero">
<g clip-path="url(#clip18)" clip-rule="nonzero">
<path style=" stroke:none;fill-rule:nonzero;fill:rgb(92.54902%,89.019608%,20%);fill-opacity:1;" d="M 40.609375 32.800781 C 40.703125 33.183594 40.871094 33.542969 40.9375 33.933594 C 40.960938 33.945312 40.929688 34.03125 40.960938 34.039062 C 47.597656 36.976562 51.597656 41.039062 50.085938 43.898438 C 48.820312 46.277344 44.160156 47.140625 38.363281 46.511719 C 38.261719 46.652344 38.261719 46.820312 38.160156 46.957031 C 38.023438 47.148438 37.863281 47.332031 37.714844 47.53125 C 40.796875 48.046875 43.625 48.265625 45.898438 48.152344 C 49.96875 47.949219 52.746094 46.9375 53.71875 45.101562 C 54.691406 43.261719 53.648438 40.960938 50.933594 38.617188 C 48.710938 36.691406 45.191406 34.589844 40.605469 32.808594 M 40.605469 32.800781 "/>
</g>
</g>
</g>
</svg>
