
<svg xmlns="http://www.w3.org/2000/svg" xmlns:xlink="http://www.w3.org/1999/xlink" width="64px" height="64px" viewBox="0 0 64 64" version="1.1">
<g id="surface1">
<path style="fill-rule:evenodd;fill:rgb(17.254902%,24.313725%,31.372549%);fill-opacity:1;stroke-width:40.8;stroke-linecap:butt;stroke-linejoin:miter;stroke:rgb(18.039216%,80%,44.313725%);stroke-opacity:1;stroke-miterlimit:4;" d="M 170.6875 61.6875 L 855.9375 61.6875 C 920.75 61.6875 973.25 114.1875 973.25 179 L 973.25 859.9375 C 973.25 924.75 920.75 977.3125 855.9375 977.3125 L 170.6875 977.3125 C 105.9375 977.3125 53.375 924.75 53.375 859.9375 L 53.375 179 C 53.375 114.1875 105.9375 61.6875 170.6875 61.6875 Z M 170.6875 61.6875 " transform="matrix(0.0625,0,0,0.0625,0,0)"/>
<path style=" stroke:none;fill-rule:evenodd;fill:rgb(18.039216%,80%,44.313725%);fill-opacity:1;" d="M 29.269531 10.90625 C 23.488281 10.90625 17.746094 13.289062 13.660156 17.375 C 9.574219 21.460938 7.199219 27.207031 7.199219 32.988281 C 7.199219 38.769531 9.574219 44.511719 13.660156 48.597656 C 17.746094 52.6875 23.488281 55.070312 29.269531 55.070312 C 35.050781 55.070312 40.796875 52.691406 44.886719 48.601562 C 48.976562 44.515625 51.359375 38.769531 51.359375 32.988281 L 45.472656 32.988281 C 45.472656 37.226562 43.722656 41.441406 40.726562 44.4375 C 37.726562 47.4375 33.507812 49.179688 29.269531 49.179688 C 25.03125 49.179688 20.820312 47.433594 17.824219 44.4375 C 14.828125 41.4375 13.085938 37.226562 13.085938 32.988281 C 13.085938 28.75 14.828125 24.535156 17.824219 21.539062 C 20.820312 18.539062 25.03125 16.792969 29.269531 16.792969 C 29.273438 16.792969 29.273438 16.792969 29.28125 16.792969 L 29.28125 10.90625 C 29.277344 10.90625 29.273438 10.90625 29.269531 10.90625 Z M 29.269531 10.90625 "/>
<path style=" stroke:none;fill-rule:evenodd;fill:rgb(92.54902%,94.117647%,94.509804%);fill-opacity:1;" d="M 22.03125 30.671875 L 26.195312 26.507812 L 35.28125 35.59375 L 31.117188 39.757812 Z M 22.03125 30.671875 "/>
<path style=" stroke:none;fill-rule:evenodd;fill:rgb(92.54902%,94.117647%,94.509804%);fill-opacity:1;" d="M 52.191406 10.78125 L 27.164062 35.804688 L 31.328125 39.96875 L 56.355469 14.945312 Z M 52.191406 10.78125 "/>
</g>
</svg>
