
<svg xmlns="http://www.w3.org/2000/svg" xmlns:xlink="http://www.w3.org/1999/xlink" width="64px" height="64px" viewBox="0 0 64 64" version="1.1">
<g id="surface1">
<path style="fill-rule:nonzero;fill:rgb(28.235294%,33.333333%,43.921569%);fill-opacity:1;stroke-width:23.5;stroke-linecap:butt;stroke-linejoin:miter;stroke:rgb(0%,0%,0%);stroke-opacity:1;stroke-miterlimit:4;" d="M 87.125 23.875 L 427.03125 23.875 C 460.78125 23.875 488.125 51.21875 488.125 84.96875 L 488.125 431.375 C 488.125 465.125 460.78125 492.46875 427.03125 492.46875 L 87.125 492.46875 C 53.375 492.46875 26.03125 465.125 26.03125 431.375 L 26.03125 84.96875 C 26.03125 51.21875 53.375 23.875 87.125 23.875 Z M 87.125 23.875 " transform="matrix(0.125,0,0,0.125,0,0)"/>
<path style=" stroke:none;fill-rule:nonzero;fill:rgb(83.529412%,16.470588%,23.529412%);fill-opacity:1;" d="M 40.085938 51.933594 C 38.191406 51.058594 36.386719 48.804688 35.351562 46.027344 C 34.421875 43.535156 34.199219 39.363281 34.808594 35.890625 C 35.644531 31.125 37.949219 25.660156 40.9375 21.363281 L 42.675781 18.867188 L 44.332031 21.429688 C 47.613281 26.515625 49.410156 30.886719 50.296875 35.960938 C 50.894531 39.375 50.933594 41.648438 50.445312 44.039062 C 49.664062 47.816406 47.300781 51.113281 44.648438 52.125 C 42.746094 52.847656 41.988281 52.816406 40.085938 51.933594 Z M 40.085938 51.933594 "/>
<path style=" stroke:none;fill-rule:nonzero;fill:rgb(21.568627%,67.45098%,94.509804%);fill-opacity:1;" d="M 29.671875 41.714844 C 27.777344 40.835938 25.972656 38.585938 24.9375 35.808594 C 24.007812 33.316406 23.785156 29.144531 24.394531 25.671875 C 25.230469 20.902344 27.535156 15.441406 30.523438 11.144531 L 32.261719 8.644531 L 33.917969 11.210938 C 37.199219 16.296875 38.992188 20.667969 39.882812 25.738281 C 40.480469 29.15625 40.519531 31.425781 40.027344 33.820312 C 39.25 37.59375 36.886719 40.894531 34.234375 41.902344 C 32.332031 42.628906 31.574219 42.59375 29.671875 41.714844 Z M 29.671875 41.714844 "/>
<path style=" stroke:none;fill-rule:nonzero;fill:rgb(94.117647%,72.941176%,21.568627%);fill-opacity:1;" d="M 20.371094 51.628906 C 18.480469 50.753906 16.671875 48.5 15.640625 45.726562 C 14.710938 43.230469 14.488281 39.058594 15.097656 35.585938 C 15.933594 30.820312 18.234375 25.359375 21.222656 21.058594 L 22.960938 18.5625 L 24.617188 21.125 C 27.902344 26.210938 29.695312 30.582031 30.582031 35.65625 C 31.179688 39.070312 31.222656 41.339844 30.730469 43.734375 C 29.953125 47.511719 27.585938 50.808594 24.933594 51.820312 C 23.035156 52.542969 22.277344 52.511719 20.371094 51.628906 Z M 20.371094 51.628906 "/>
</g>
</svg>
