
<svg xmlns="http://www.w3.org/2000/svg" xmlns:xlink="http://www.w3.org/1999/xlink" width="64px" height="64px" viewBox="0 0 64 64" version="1.1">
<defs>
<clipPath id="clip1">
  <path d="M 21.5 21.5 L 42.5 21.5 L 42.5 42.5 L 21.5 42.5 Z M 21.5 21.5 "/>
</clipPath>
<clipPath id="clip2">
  <path d="M 12.488281 6.183594 L 51.515625 6.183594 C 54.996094 6.183594 57.816406 9.003906 57.816406 12.488281 L 57.816406 51.515625 C 57.816406 54.996094 54.996094 57.816406 51.515625 57.816406 L 12.488281 57.816406 C 9.003906 57.816406 6.183594 54.996094 6.183594 51.515625 L 6.183594 12.488281 C 6.183594 9.003906 9.003906 6.183594 12.488281 6.183594 Z M 12.488281 6.183594 "/>
</clipPath>
<clipPath id="clip3">
  <path d="M 18.875 18.875 L 45.125 18.875 L 45.125 45.125 L 18.875 45.125 Z M 18.875 18.875 "/>
</clipPath>
<clipPath id="clip4">
  <path d="M 12.488281 6.183594 L 51.515625 6.183594 C 54.996094 6.183594 57.816406 9.003906 57.816406 12.488281 L 57.816406 51.515625 C 57.816406 54.996094 54.996094 57.816406 51.515625 57.816406 L 12.488281 57.816406 C 9.003906 57.816406 6.183594 54.996094 6.183594 51.515625 L 6.183594 12.488281 C 6.183594 9.003906 9.003906 6.183594 12.488281 6.183594 Z M 12.488281 6.183594 "/>
</clipPath>
<clipPath id="clip5">
  <path d="M 21.5 21.5 L 42.5 21.5 L 42.5 42.5 L 21.5 42.5 Z M 21.5 21.5 "/>
</clipPath>
<clipPath id="clip6">
  <path d="M 12.488281 6.183594 L 51.515625 6.183594 C 54.996094 6.183594 57.816406 9.003906 57.816406 12.488281 L 57.816406 51.515625 C 57.816406 54.996094 54.996094 57.816406 51.515625 57.816406 L 12.488281 57.816406 C 9.003906 57.816406 6.183594 54.996094 6.183594 51.515625 L 6.183594 12.488281 C 6.183594 9.003906 9.003906 6.183594 12.488281 6.183594 Z M 12.488281 6.183594 "/>
</clipPath>
<clipPath id="clip7">
  <path d="M 6.125 6.125 L 57.875 6.125 L 57.875 30.25 L 6.125 30.25 Z M 6.125 6.125 "/>
</clipPath>
<clipPath id="clip8">
  <path d="M 12.488281 6.183594 L 51.515625 6.183594 C 54.996094 6.183594 57.816406 9.003906 57.816406 12.488281 L 57.816406 51.515625 C 57.816406 54.996094 54.996094 57.816406 51.515625 57.816406 L 12.488281 57.816406 C 9.003906 57.816406 6.183594 54.996094 6.183594 51.515625 L 6.183594 12.488281 C 6.183594 9.003906 9.003906 6.183594 12.488281 6.183594 Z M 12.488281 6.183594 "/>
</clipPath>
<clipPath id="clip9">
  <path d="M 21.5 22.75 L 57.875 22.75 L 57.875 57.875 L 21.5 57.875 Z M 21.5 22.75 "/>
</clipPath>
<clipPath id="clip10">
  <path d="M 12.488281 6.183594 L 51.515625 6.183594 C 54.996094 6.183594 57.816406 9.003906 57.816406 12.488281 L 57.816406 51.515625 C 57.816406 54.996094 54.996094 57.816406 51.515625 57.816406 L 12.488281 57.816406 C 9.003906 57.816406 6.183594 54.996094 6.183594 51.515625 L 6.183594 12.488281 C 6.183594 9.003906 9.003906 6.183594 12.488281 6.183594 Z M 12.488281 6.183594 "/>
</clipPath>
<clipPath id="clip11">
  <path d="M 6.125 6.125 L 36.375 6.125 L 36.375 57.875 L 6.125 57.875 Z M 6.125 6.125 "/>
</clipPath>
<clipPath id="clip12">
  <path d="M 12.488281 6.183594 L 51.515625 6.183594 C 54.996094 6.183594 57.816406 9.003906 57.816406 12.488281 L 57.816406 51.515625 C 57.816406 54.996094 54.996094 57.816406 51.515625 57.816406 L 12.488281 57.816406 C 9.003906 57.816406 6.183594 54.996094 6.183594 51.515625 L 6.183594 12.488281 C 6.183594 9.003906 9.003906 6.183594 12.488281 6.183594 Z M 12.488281 6.183594 "/>
</clipPath>
<clipPath id="clip13">
  <path d="M 20.125 20.125 L 43.875 20.125 L 43.875 43.875 L 20.125 43.875 Z M 20.125 20.125 "/>
</clipPath>
<clipPath id="clip14">
  <path d="M 12.488281 6.183594 L 51.515625 6.183594 C 54.996094 6.183594 57.816406 9.003906 57.816406 12.488281 L 57.816406 51.515625 C 57.816406 54.996094 54.996094 57.816406 51.515625 57.816406 L 12.488281 57.816406 C 9.003906 57.816406 6.183594 54.996094 6.183594 51.515625 L 6.183594 12.488281 C 6.183594 9.003906 9.003906 6.183594 12.488281 6.183594 Z M 12.488281 6.183594 "/>
</clipPath>
<clipPath id="clip15">
  <path d="M 22.75 22.75 L 41.25 22.75 L 41.25 41.25 L 22.75 41.25 Z M 22.75 22.75 "/>
</clipPath>
<clipPath id="clip16">
  <path d="M 12.488281 6.183594 L 51.515625 6.183594 C 54.996094 6.183594 57.816406 9.003906 57.816406 12.488281 L 57.816406 51.515625 C 57.816406 54.996094 54.996094 57.816406 51.515625 57.816406 L 12.488281 57.816406 C 9.003906 57.816406 6.183594 54.996094 6.183594 51.515625 L 6.183594 12.488281 C 6.183594 9.003906 9.003906 6.183594 12.488281 6.183594 Z M 12.488281 6.183594 "/>
</clipPath>
</defs>
<g id="surface1">
<path style="fill-rule:nonzero;fill:rgb(100%,16.470588%,16.470588%);fill-opacity:1;stroke-width:26.401737;stroke-linecap:butt;stroke-linejoin:miter;stroke:rgb(100%,16.470588%,16.470588%);stroke-opacity:1;stroke-miterlimit:4;" d="M 92.54941 39.747028 L 419.450591 39.747028 C 448.604149 39.747028 472.252974 63.395853 472.252974 92.54941 L 472.252974 419.450591 C 472.252974 448.604149 448.604149 472.252974 419.450591 472.252974 L 92.54941 472.252974 C 63.395853 472.252974 39.747028 448.604149 39.747028 419.450591 L 39.747028 92.54941 C 39.747028 63.395853 63.395853 39.747028 92.54941 39.747028 Z M 92.54941 39.747028 " transform="matrix(0.127021,0,0,0.127021,-0.517472,-0.517472)"/>
<g clip-path="url(#clip1)" clip-rule="nonzero">
<g clip-path="url(#clip2)" clip-rule="nonzero">
<path style=" stroke:none;fill-rule:nonzero;fill:rgb(12.54902%,61.176471%,78.431373%);fill-opacity:1;" d="M 42.492188 32 C 42.492188 37.792969 37.792969 42.492188 32 42.492188 C 26.207031 42.492188 21.507812 37.792969 21.507812 32 C 21.507812 26.207031 26.207031 21.507812 32 21.507812 C 37.792969 21.507812 42.492188 26.207031 42.492188 32 M 42.492188 32 "/>
</g>
</g>
<g clip-path="url(#clip3)" clip-rule="nonzero">
<g clip-path="url(#clip4)" clip-rule="nonzero">
<path style=" stroke:none;fill-rule:nonzero;fill:rgb(97.647059%,97.647059%,97.647059%);fill-opacity:1;" d="M 45.074219 32 C 45.074219 39.21875 39.21875 45.074219 32 45.074219 C 24.78125 45.074219 18.925781 39.21875 18.925781 32 C 18.925781 24.78125 24.78125 18.925781 32 18.925781 C 39.21875 18.925781 45.074219 24.78125 45.074219 32 M 45.074219 32 "/>
</g>
</g>
<g clip-path="url(#clip5)" clip-rule="nonzero">
<g clip-path="url(#clip6)" clip-rule="nonzero">
<path style=" stroke:none;fill-rule:nonzero;fill:rgb(12.54902%,61.176471%,78.431373%);fill-opacity:1;" d="M 42.457031 32 C 42.457031 37.773438 37.773438 42.457031 32 42.457031 C 26.226562 42.457031 21.542969 37.773438 21.542969 32 C 21.542969 26.226562 26.226562 21.542969 32 21.542969 C 37.773438 21.542969 42.457031 26.226562 42.457031 32 M 42.457031 32 "/>
</g>
</g>
<g clip-path="url(#clip7)" clip-rule="nonzero">
<g clip-path="url(#clip8)" clip-rule="nonzero">
<path style=" stroke:none;fill-rule:nonzero;fill:rgb(83.137255%,10.196078%,10.196078%);fill-opacity:1;" d="M 41.652344 25.496094 L 63.476562 25.445312 C 63.476562 17.574219 63.476562 8.394531 63.476562 0.527344 C 43.367188 0.527344 23.253906 0.527344 3.148438 0.527344 L 20.378906 30.25 C 20.644531 28.542969 21.261719 26.898438 22.222656 25.453125 C 23.191406 24.003906 24.507812 22.773438 26.117188 21.847656 C 27.53125 21.027344 29.023438 20.515625 30.542969 20.332031 C 32.066406 20.140625 33.632812 20.265625 35.09375 20.660156 C 36.554688 21.050781 37.925781 21.699219 39.152344 22.625 C 40.152344 23.375 40.917969 24.414062 41.652344 25.496094 M 41.652344 25.496094 "/>
</g>
</g>
<g clip-path="url(#clip9)" clip-rule="nonzero">
<g clip-path="url(#clip10)" clip-rule="nonzero">
<path style=" stroke:none;fill-rule:nonzero;fill:rgb(100%,78.431373%,19.215686%);fill-opacity:1;" d="M 32.886719 43.667969 L 21.507812 63.472656 C 33.3125 63.472656 59.539062 63.472656 63.476562 63.472656 C 63.476562 58.226562 63.476562 30.6875 63.476562 22.816406 L 39.285156 22.816406 C 40.632812 23.898438 41.863281 25.304688 42.636719 26.890625 C 43.402344 28.445312 43.808594 30.195312 43.808594 32.054688 C 43.808594 33.683594 43.507812 35.253906 42.914062 36.644531 C 42.3125 38.058594 41.421875 39.351562 40.351562 40.445312 C 39.285156 41.515625 38.03125 42.382812 36.621094 42.988281 C 35.46875 43.472656 34.1875 43.617188 32.886719 43.722656 M 32.886719 43.722656 "/>
</g>
</g>
<g clip-path="url(#clip11)" clip-rule="nonzero">
<g clip-path="url(#clip12)" clip-rule="nonzero">
<path style=" stroke:none;fill-rule:nonzero;fill:rgb(5.882353%,63.137255%,37.254902%);fill-opacity:1;" d="M 21.535156 26.992188 L 5.769531 0.523438 C 3.148438 0.523438 1.835938 0.523438 0.523438 0.523438 C 0.523438 11.015625 0.523438 54.296875 0.523438 63.476562 C 9.707031 63.476562 16.261719 63.476562 24.132812 63.476562 L 36.277344 43.027344 C 34.667969 43.65625 32.941406 43.941406 31.207031 43.828125 C 29.46875 43.714844 27.742188 43.195312 26.136719 42.261719 C 24.726562 41.445312 23.53125 40.410156 22.609375 39.1875 C 21.683594 37.960938 21.003906 36.539062 20.617188 35.082031 C 20.226562 33.625 20.105469 32.105469 20.292969 30.585938 C 20.445312 29.34375 20.960938 28.160156 21.527344 26.984375 M 21.527344 26.984375 "/>
</g>
</g>
<g clip-path="url(#clip13)" clip-rule="nonzero">
<g clip-path="url(#clip14)" clip-rule="nonzero">
<path style=" stroke:none;fill-rule:nonzero;fill:rgb(97.647059%,97.647059%,97.647059%);fill-opacity:1;" d="M 43.804688 32 C 43.804688 38.523438 38.519531 43.804688 32 43.804688 C 25.484375 43.804688 20.195312 38.519531 20.195312 32 C 20.195312 25.484375 25.480469 20.195312 32 20.195312 C 38.523438 20.195312 43.804688 25.480469 43.804688 32 M 43.804688 32 "/>
</g>
</g>
<g clip-path="url(#clip15)" clip-rule="nonzero">
<g clip-path="url(#clip16)" clip-rule="nonzero">
<path style=" stroke:none;fill-rule:nonzero;fill:rgb(23.921569%,49.019608%,89.803922%);fill-opacity:1;" d="M 41.179688 32 C 41.179688 37.070312 37.070312 41.179688 32 41.179688 C 26.929688 41.179688 22.820312 37.070312 22.820312 32 C 22.820312 26.929688 26.929688 22.820312 32 22.820312 C 37.070312 22.820312 41.179688 26.929688 41.179688 32 M 41.179688 32 "/>
</g>
</g>
</g>
</svg>
