
<svg xmlns="http://www.w3.org/2000/svg" xmlns:xlink="http://www.w3.org/1999/xlink" width="64px" height="64px" viewBox="0 0 64 64" version="1.1">
<g id="surface1">
<path style="fill-rule:nonzero;fill:rgb(20.392157%,28.627451%,36.862745%);fill-opacity:1;stroke-width:1.935101;stroke-linecap:butt;stroke-linejoin:miter;stroke:rgb(9.019608%,36.862745%,60%);stroke-opacity:1;stroke-miterlimit:4;" d="M 6.083212 263.089243 L 30.041233 263.089243 C 32.177744 263.089243 33.910765 264.820059 33.910765 266.958774 L 33.910765 290.916796 C 33.910765 293.053306 32.177744 294.786327 30.041233 294.786327 L 6.083212 294.786327 C 3.944497 294.786327 2.213681 293.053306 2.213681 290.916796 L 2.213681 266.958774 C 2.213681 264.820059 3.944497 263.089243 6.083212 263.089243 Z M 6.083212 263.089243 " transform="matrix(1.771653,0,0,1.771653,0,-462.181103)"/>
<path style=" stroke:none;fill-rule:nonzero;fill:rgb(17.254902%,24.313725%,31.372549%);fill-opacity:1;" d="M 19.589844 27.09375 C 22.378906 27.09375 24.640625 29.355469 24.640625 32.144531 C 24.640625 34.933594 22.378906 37.195312 19.589844 37.195312 C 16.804688 37.195312 14.542969 34.933594 14.542969 32.144531 C 14.542969 29.355469 16.804688 27.09375 19.589844 27.09375 Z M 19.589844 27.09375 "/>
<path style=" stroke:none;fill-rule:nonzero;fill:rgb(17.254902%,24.313725%,31.372549%);fill-opacity:1;" d="M 44.117188 27.09375 C 46.90625 27.09375 49.167969 29.355469 49.167969 32.144531 C 49.167969 34.933594 46.90625 37.195312 44.117188 37.195312 C 41.332031 37.195312 39.070312 34.933594 39.070312 32.144531 C 39.070312 29.355469 41.332031 27.09375 44.117188 27.09375 Z M 44.117188 27.09375 "/>
<path style=" stroke:none;fill-rule:nonzero;fill:rgb(95.294118%,61.176471%,7.058824%);fill-opacity:1;" d="M 19.589844 28.539062 C 21.582031 28.539062 23.199219 30.152344 23.199219 32.144531 C 23.199219 34.136719 21.582031 35.75 19.589844 35.75 C 17.601562 35.75 15.984375 34.136719 15.984375 32.144531 C 15.984375 30.152344 17.601562 28.539062 19.589844 28.539062 Z M 19.589844 28.539062 "/>
<path style=" stroke:none;fill-rule:nonzero;fill:rgb(96.078431%,78.823529%,45.098039%);fill-opacity:1;" d="M 44.117188 28.539062 C 46.109375 28.539062 47.726562 30.152344 47.726562 32.144531 C 47.726562 34.136719 46.109375 35.75 44.117188 35.75 C 42.125 35.75 40.511719 34.136719 40.511719 32.144531 C 40.511719 30.152344 42.125 28.539062 44.117188 28.539062 Z M 44.117188 28.539062 "/>
<path style=" stroke:none;fill-rule:nonzero;fill:rgb(17.254902%,24.313725%,31.372549%);fill-opacity:1;" d="M 31.855469 27.09375 C 34.644531 27.09375 36.90625 29.355469 36.90625 32.144531 C 36.90625 34.933594 34.644531 37.195312 31.855469 37.195312 C 29.066406 37.195312 26.804688 34.933594 26.804688 32.144531 C 26.804688 29.355469 29.066406 27.09375 31.855469 27.09375 Z M 31.855469 27.09375 "/>
<path style=" stroke:none;fill-rule:nonzero;fill:rgb(96.862745%,73.72549%,36.862745%);fill-opacity:1;" d="M 31.855469 28.539062 C 33.847656 28.539062 35.460938 30.152344 35.460938 32.144531 C 35.460938 34.136719 33.847656 35.75 31.855469 35.75 C 29.863281 35.75 28.25 34.136719 28.25 32.144531 C 28.25 30.152344 29.863281 28.539062 31.855469 28.539062 Z M 31.855469 28.539062 "/>
</g>
</svg>
