
<svg xmlns="http://www.w3.org/2000/svg" xmlns:xlink="http://www.w3.org/1999/xlink" width="64px" height="64px" viewBox="0 0 64 64" version="1.1">
<g id="surface1">
<path style="fill-rule:evenodd;fill:rgb(16.078431%,50.196078%,72.54902%);fill-opacity:1;stroke-width:28.26631;stroke-linecap:butt;stroke-linejoin:miter;stroke:rgb(100%,100%,100%);stroke-opacity:1;stroke-miterlimit:4;" d="M 91.625 45.125 L 420.375 45.125 C 446.0625 45.125 466.875 65.96875 466.875 91.625 L 466.875 420.375 C 466.875 446.0625 446.0625 466.875 420.375 466.875 L 91.625 466.875 C 65.96875 466.875 45.125 446.0625 45.125 420.375 L 45.125 91.625 C 45.125 65.96875 65.96875 45.125 91.625 45.125 Z M 91.625 45.125 " transform="matrix(0.125,0,0,0.125,0,0)"/>
<path style=" stroke:none;fill-rule:nonzero;fill:rgb(13.333333%,21.176471%,33.72549%);fill-opacity:1;" d="M 16.800781 25.3125 L 16.800781 49.191406 L 20.914062 49.191406 L 20.914062 25.3125 Z M 16.800781 18 L 16.800781 22.109375 L 20.914062 22.109375 L 20.914062 18 Z M 16.800781 18 "/>
<path style=" stroke:none;fill-rule:nonzero;fill:rgb(13.333333%,21.176471%,33.72549%);fill-opacity:1;" d="M 42.910156 23.28125 C 42.996094 28.152344 40.257812 29.125 33.992188 29.125 L 29.4375 29.125 L 29.4375 18.476562 L 36.023438 18.476562 C 40.1875 18.476562 42.847656 19.714844 42.910156 23.28125 Z M 43.136719 39.183594 C 43.136719 43.789062 41.671875 45.574219 37.015625 45.574219 L 29.4375 45.574219 L 29.4375 32.59375 L 35.429688 32.59375 C 40.085938 32.59375 43.136719 33.535156 43.136719 39.183594 Z M 42.414062 30.316406 C 45.191406 28.976562 46.875 25.90625 46.875 23.082031 C 46.875 20.554688 46.03125 18.476562 44.445312 17.039062 C 42.761719 15.554688 40.1875 14.808594 37.414062 14.808594 L 25.324219 14.808594 L 25.324219 49.191406 L 36.472656 49.191406 C 40.78125 49.191406 42.617188 48.707031 44.945312 46.625 C 47.125 44.644531 47.199219 41.265625 47.199219 38.785156 C 47.199219 34.277344 46.328125 32.121094 42.414062 30.316406 Z M 42.414062 30.316406 "/>
</g>
</svg>
