
<svg xmlns="http://www.w3.org/2000/svg" xmlns:xlink="http://www.w3.org/1999/xlink" width="64px" height="64px" viewBox="0 0 64 64" version="1.1">
<defs>
<clipPath id="clip1">
  <path d="M 7 7.375 L 57 7.375 L 57 56.625 L 7 56.625 Z M 7 7.375 "/>
</clipPath>
<clipPath id="clip2">
  <path d="M 56.890625 32 C 56.890625 45.535156 45.746094 56.507812 32 56.507812 C 18.253906 56.507812 7.109375 45.535156 7.109375 32 C 7.109375 18.464844 18.253906 7.492188 32 7.492188 C 45.746094 7.492188 56.890625 18.464844 56.890625 32 Z M 56.890625 32 "/>
</clipPath>
<clipPath id="clip3">
  <path d="M 26.25 7.375 L 57 7.375 L 57 55.75 L 26.25 55.75 Z M 26.25 7.375 "/>
</clipPath>
<clipPath id="clip4">
  <path d="M 56.890625 32 C 56.890625 45.535156 45.746094 56.507812 32 56.507812 C 18.253906 56.507812 7.109375 45.535156 7.109375 32 C 7.109375 18.464844 18.253906 7.492188 32 7.492188 C 45.746094 7.492188 56.890625 18.464844 56.890625 32 Z M 56.890625 32 "/>
</clipPath>
<clipPath id="clip5">
  <path d="M 17.875 25.625 L 38 25.625 L 38 50.625 L 17.875 50.625 Z M 17.875 25.625 "/>
</clipPath>
<clipPath id="clip6">
  <path d="M 56.890625 32 C 56.890625 45.535156 45.746094 56.507812 32 56.507812 C 18.253906 56.507812 7.109375 45.535156 7.109375 32 C 7.109375 18.464844 18.253906 7.492188 32 7.492188 C 45.746094 7.492188 56.890625 18.464844 56.890625 32 Z M 56.890625 32 "/>
</clipPath>
<clipPath id="clip7">
  <path d="M 19.125 45.75 L 27.75 45.75 L 27.75 48.375 L 19.125 48.375 Z M 19.125 45.75 "/>
</clipPath>
<clipPath id="clip8">
  <path d="M 56.890625 32 C 56.890625 45.535156 45.746094 56.507812 32 56.507812 C 18.253906 56.507812 7.109375 45.535156 7.109375 32 C 7.109375 18.464844 18.253906 7.492188 32 7.492188 C 45.746094 7.492188 56.890625 18.464844 56.890625 32 Z M 56.890625 32 "/>
</clipPath>
<clipPath id="clip9">
  <path d="M 19 39.625 L 27.375 39.625 L 27.375 41.875 L 19 41.875 Z M 19 39.625 "/>
</clipPath>
<clipPath id="clip10">
  <path d="M 56.890625 32 C 56.890625 45.535156 45.746094 56.507812 32 56.507812 C 18.253906 56.507812 7.109375 45.535156 7.109375 32 C 7.109375 18.464844 18.253906 7.492188 32 7.492188 C 45.746094 7.492188 56.890625 18.464844 56.890625 32 Z M 56.890625 32 "/>
</clipPath>
<clipPath id="clip11">
  <path d="M 7 10.125 L 20.625 10.125 L 20.625 43.125 L 7 43.125 Z M 7 10.125 "/>
</clipPath>
<clipPath id="clip12">
  <path d="M 56.890625 32 C 56.890625 45.535156 45.746094 56.507812 32 56.507812 C 18.253906 56.507812 7.109375 45.535156 7.109375 32 C 7.109375 18.464844 18.253906 7.492188 32 7.492188 C 45.746094 7.492188 56.890625 18.464844 56.890625 32 Z M 56.890625 32 "/>
</clipPath>
</defs>
<g id="surface1">
<path style="fill-rule:evenodd;fill:rgb(13.333333%,12.941176%,29.019608%);fill-opacity:1;stroke-width:31.050983;stroke-linecap:butt;stroke-linejoin:miter;stroke:rgb(91.372549%,10.588235%,0%);stroke-opacity:1;stroke-miterlimit:4;" d="M 83.906248 21.264666 L 428.093748 21.264666 C 457.187498 21.264666 480.749998 44.81448 480.749998 73.918495 L 480.749998 446.081727 C 480.749998 475.154004 457.187498 498.735556 428.093748 498.735556 L 83.906248 498.735556 C 54.812498 498.735556 31.249998 475.154004 31.249998 446.081727 L 31.249998 73.918495 C 31.249998 44.81448 54.812498 21.264666 83.906248 21.264666 Z M 83.906248 21.264666 " transform="matrix(0.125,0,0,0.123077,0.000000238419,-0.00000117375)"/>
<g clip-path="url(#clip1)" clip-rule="nonzero">
<g clip-path="url(#clip2)" clip-rule="nonzero">
<path style=" stroke:none;fill-rule:nonzero;fill:rgb(91.372549%,10.588235%,0%);fill-opacity:1;" d="M 29.070312 56.558594 C 25.980469 56.035156 24.660156 55.695312 22.625 54.902344 C 18.089844 53.128906 13.90625 49.828125 11.164062 45.863281 C 10.464844 44.851562 9.660156 43.460938 9.660156 43.265625 C 9.660156 43.164062 9.503906 42.777344 9.316406 42.402344 C 8.398438 40.601562 7.667969 38.292969 7.226562 35.828125 C 6.976562 34.40625 6.949219 34.019531 6.953125 31.925781 C 6.957031 29.871094 6.992188 29.429688 7.230469 28.089844 C 8.4375 21.414062 12.03125 15.75 17.457031 11.96875 C 18.40625 11.308594 20.246094 10.199219 21.265625 9.671875 C 22.464844 9.050781 25.394531 8.039062 25.996094 8.039062 C 26.152344 8.039062 26.621094 7.96875 27.035156 7.878906 C 29.035156 7.457031 32.507812 7.304688 34.695312 7.542969 C 40.269531 8.144531 45.707031 10.734375 49.714844 14.695312 C 53.425781 18.359375 55.765625 22.914062 56.714844 28.300781 C 57.046875 30.1875 57.046875 33.765625 56.714844 35.652344 C 56.042969 39.460938 54.871094 42.433594 52.851562 45.460938 C 49.957031 49.789062 45.921875 52.980469 40.875 54.9375 C 40.222656 55.1875 39.460938 55.453125 39.179688 55.519531 C 38.898438 55.589844 38.507812 55.722656 38.3125 55.824219 C 38.113281 55.921875 37.328125 56.125 36.566406 56.277344 C 35.28125 56.53125 34.96875 56.550781 32.253906 56.578125 C 30.644531 56.589844 29.210938 56.582031 29.070312 56.558594 Z M 29.070312 56.558594 "/>
</g>
</g>
<g clip-path="url(#clip3)" clip-rule="nonzero">
<g clip-path="url(#clip4)" clip-rule="nonzero">
<path style=" stroke:none;fill-rule:nonzero;fill:rgb(13.333333%,12.941176%,29.019608%);fill-opacity:1;" d="M 39.109375 54.867188 C 39.605469 53.933594 40.0625 52.648438 40.226562 51.722656 C 40.421875 50.617188 40.296875 48.671875 39.960938 47.640625 C 39.375 45.835938 38.324219 44.054688 36.246094 41.351562 C 34.351562 38.890625 33.847656 37.671875 33.851562 35.5625 C 33.851562 34.269531 34.042969 33.359375 34.664062 31.699219 C 35.21875 30.210938 35.378906 29.566406 35.453125 28.488281 C 35.671875 25.421875 34.210938 23.4375 32.058594 23.878906 C 31.070312 24.078125 30.71875 24.511719 29.890625 26.546875 C 29.550781 27.378906 29.242188 27.761719 28.683594 28.042969 C 28.167969 28.300781 27.261719 28.386719 26.6875 28.234375 L 26.25 28.117188 L 26.25 18.0625 C 26.25 12.53125 26.269531 8.003906 26.296875 8.003906 C 26.320312 8.003906 26.679688 7.933594 27.089844 7.847656 C 29.09375 7.421875 32.566406 7.269531 34.753906 7.507812 C 40.324219 8.109375 45.761719 10.703125 49.773438 14.667969 C 53.480469 18.339844 55.824219 22.894531 56.769531 28.289062 C 57.101562 30.179688 57.101562 33.757812 56.769531 35.648438 C 56.101562 39.460938 54.929688 42.4375 52.90625 45.46875 C 51.011719 48.304688 48.800781 50.496094 45.882812 52.429688 C 44.078125 53.628906 40.375 55.339844 39.0625 55.582031 L 38.691406 55.648438 Z M 39.109375 54.867188 "/>
</g>
</g>
<g clip-path="url(#clip5)" clip-rule="nonzero">
<g clip-path="url(#clip6)" clip-rule="nonzero">
<path style=" stroke:none;fill-rule:nonzero;fill:rgb(13.333333%,12.941176%,29.019608%);fill-opacity:1;" d="M 35.144531 50.464844 C 34.757812 50.300781 34.304688 49.75 33.515625 48.503906 C 31.863281 45.894531 29.867188 44.128906 27.761719 43.414062 C 26.597656 43.019531 25.773438 42.929688 23.175781 42.925781 C 20.703125 42.921875 20.105469 42.847656 19.296875 42.445312 C 18.835938 42.210938 18.683594 42.0625 18.40625 41.570312 C 18.222656 41.242188 18.019531 40.691406 17.953125 40.347656 C 17.789062 39.5 17.992188 38.375 18.742188 35.945312 C 19.605469 33.140625 19.613281 32.132812 18.773438 30.300781 C 18.164062 28.960938 18.246094 28.25 19.03125 28.105469 C 19.398438 28.035156 20.371094 28.214844 20.597656 28.386719 C 20.6875 28.460938 20.722656 28.917969 20.722656 30.03125 C 20.722656 31.171875 20.757812 31.601562 20.859375 31.683594 C 21.242188 31.996094 24.777344 32.085938 25.75 31.804688 C 26.214844 31.671875 26.265625 31.570312 26.269531 30.761719 L 26.269531 30.078125 L 26.910156 30.140625 C 28.136719 30.261719 29.492188 29.863281 30.34375 29.132812 C 30.953125 28.609375 31.570312 27.648438 31.8125 26.855469 C 32.058594 26.046875 32.515625 25.554688 32.886719 25.695312 C 33.707031 26.003906 33.503906 28.449219 32.382812 31.820312 C 31.589844 34.203125 31.550781 35.925781 32.246094 38.070312 C 32.582031 39.097656 32.976562 39.800781 34.332031 41.761719 C 35.804688 43.894531 36.902344 45.671875 37.488281 46.859375 C 37.996094 47.886719 38.125 48.90625 37.828125 49.523438 C 37.429688 50.347656 36.023438 50.839844 35.144531 50.464844 Z M 35.144531 50.464844 "/>
</g>
</g>
<g clip-path="url(#clip7)" clip-rule="nonzero">
<g clip-path="url(#clip8)" clip-rule="nonzero">
<path style=" stroke:none;fill-rule:nonzero;fill:rgb(13.333333%,12.941176%,29.019608%);fill-opacity:1;" d="M 26.988281 48.15625 C 27.648438 47.847656 27.875 47.207031 27.546875 46.546875 C 27.183594 45.804688 27.109375 45.789062 23.445312 45.789062 C 19.976562 45.789062 19.886719 45.800781 19.445312 46.359375 C 19.183594 46.683594 19.160156 47.363281 19.398438 47.695312 C 19.488281 47.824219 19.707031 48.019531 19.882812 48.125 C 20.183594 48.304688 20.4375 48.316406 23.425781 48.316406 C 26.152344 48.316406 26.699219 48.292969 26.988281 48.15625 Z M 26.988281 48.15625 "/>
</g>
</g>
<g clip-path="url(#clip9)" clip-rule="nonzero">
<g clip-path="url(#clip10)" clip-rule="nonzero">
<path style=" stroke:none;fill-rule:nonzero;fill:rgb(91.372549%,10.588235%,0%);fill-opacity:1;" d="M 19.691406 41.667969 C 19.34375 41.53125 19.035156 41.066406 19.035156 40.679688 C 19.035156 40.417969 19.125 40.246094 19.386719 39.988281 L 19.734375 39.644531 L 26.621094 39.644531 L 26.933594 39.902344 C 27.328125 40.230469 27.433594 40.714844 27.207031 41.148438 C 26.890625 41.75 26.777344 41.769531 23.175781 41.761719 C 21.378906 41.757812 19.8125 41.714844 19.691406 41.667969 Z M 19.691406 41.667969 "/>
</g>
</g>
<g clip-path="url(#clip11)" clip-rule="nonzero">
<g clip-path="url(#clip12)" clip-rule="nonzero">
<path style=" stroke:none;fill-rule:nonzero;fill:rgb(13.333333%,12.941176%,29.019608%);fill-opacity:1;" d="M 9.117188 42.128906 C 8.203125 40.191406 7.574219 38.121094 7.148438 35.664062 C 6.949219 34.507812 6.914062 33.945312 6.917969 31.972656 C 6.921875 29.914062 6.953125 29.476562 7.195312 28.132812 C 8.394531 21.492188 11.9375 15.871094 17.324219 12.058594 C 18.316406 11.355469 20.292969 10.183594 20.480469 10.183594 C 20.585938 10.183594 20.609375 11.789062 20.585938 18.347656 L 20.558594 26.511719 L 20.066406 26.546875 C 19.128906 26.605469 17.921875 25.839844 17.429688 24.878906 C 17.210938 24.453125 17.167969 24.199219 17.109375 22.859375 C 17.066406 21.941406 16.96875 21.101562 16.867188 20.757812 C 16.578125 19.765625 15.636719 18.992188 14.535156 18.828125 C 13.234375 18.636719 11.945312 19.570312 11.054688 21.347656 C 9.960938 23.535156 9.773438 25.671875 10.449219 28.300781 C 10.558594 28.726562 10.90625 29.84375 11.21875 30.777344 C 12.539062 34.714844 12.664062 36.074219 11.929688 38.34375 C 11.679688 39.128906 9.75 43.046875 9.617188 43.046875 C 9.578125 43.046875 9.355469 42.632812 9.117188 42.128906 Z M 9.117188 42.128906 "/>
</g>
</g>
<path style=" stroke:none;fill-rule:evenodd;fill:rgb(91.372549%,10.588235%,0%);fill-opacity:1;" d="M 20.511719 10.925781 L 20.511719 3.492188 L 26.136719 3.492188 L 26.257812 8.363281 L 22.878906 12.554688 Z M 20.511719 10.925781 "/>
<path style=" stroke:none;fill-rule:evenodd;fill:rgb(91.372549%,10.588235%,0%);fill-opacity:1;" d="M 9.714844 42.921875 L 6.601562 50.171875 C 4.378906 55.335938 12.171875 59.066406 18.523438 59.097656 C 18.523438 59.09375 31.15625 59.386719 36.226562 59.097656 C 37.679688 59.015625 38.730469 55.578125 38.730469 55.578125 C 28.210938 53.695312 17.835938 51.417969 9.714844 42.921875 Z M 9.714844 42.921875 "/>
</g>
</svg>
