
<svg xmlns="http://www.w3.org/2000/svg" xmlns:xlink="http://www.w3.org/1999/xlink" width="64px" height="64px" viewBox="0 0 64 64" version="1.1">
<g id="surface1">
<path style="fill-rule:evenodd;fill:rgb(16.078431%,50.196078%,72.54902%);fill-opacity:1;stroke-width:31.171715;stroke-linecap:butt;stroke-linejoin:miter;stroke:rgb(77.647059%,75.294118%,75.294118%);stroke-opacity:1;stroke-miterlimit:4;" d="M 74.75 23.46875 L 437.25 23.46875 C 465.5625 23.46875 488.53125 46.4375 488.53125 74.75 L 488.53125 437.25 C 488.53125 465.5625 465.5625 488.53125 437.25 488.53125 L 74.75 488.53125 C 46.4375 488.53125 23.46875 465.5625 23.46875 437.25 L 23.46875 74.75 C 23.46875 46.4375 46.4375 23.46875 74.75 23.46875 Z M 74.75 23.46875 " transform="matrix(0.125,0,0,0.125,0,0)"/>
<path style=" stroke:none;fill-rule:nonzero;fill:rgb(86.27451%,86.27451%,86.27451%);fill-opacity:1;" d="M 19.300781 32.226562 C 16.492188 34.894531 14.816406 38.484375 14.816406 42.4375 C 14.816406 50.746094 22.34375 57.40625 31.628906 57.40625 C 40.933594 57.40625 48.445312 50.703125 48.445312 42.4375 C 48.445312 38.488281 46.75 34.902344 43.960938 32.226562 L 40.59375 35.222656 C 42.539062 37.128906 43.640625 39.65625 43.640625 42.441406 C 43.640625 48.367188 38.277344 53.164062 31.628906 53.164062 C 24.980469 53.164062 19.609375 48.367188 19.609375 42.441406 C 19.609375 39.675781 20.792969 37.1875 22.734375 35.296875 M 19.285156 32.226562 "/>
<path style=" stroke:none;fill-rule:nonzero;fill:rgb(86.27451%,86.27451%,86.27451%);fill-opacity:1;" d="M 31.417969 12.605469 L 31.851562 12.605469 C 32.894531 12.605469 33.730469 13.449219 33.730469 14.492188 L 33.730469 47.148438 C 33.730469 48.191406 32.894531 49.039062 31.851562 49.039062 L 31.417969 49.039062 C 30.382812 49.039062 29.535156 48.191406 29.535156 47.148438 L 29.535156 14.492188 C 29.535156 13.449219 30.378906 12.605469 31.417969 12.605469 M 31.417969 12.605469 "/>
<path style=" stroke:none;fill-rule:nonzero;fill:rgb(86.27451%,86.27451%,86.27451%);fill-opacity:1;" d="M 12.722656 29.117188 L 12.722656 29.035156 C 12.722656 28.472656 13.171875 28.023438 13.730469 28.023438 L 49.542969 28.023438 C 50.101562 28.023438 50.558594 28.476562 50.558594 29.035156 L 50.558594 29.117188 C 50.558594 29.675781 50.101562 30.125 49.542969 30.125 L 13.730469 30.125 C 13.171875 30.125 12.722656 29.671875 12.722656 29.117188 M 12.722656 29.117188 "/>
<path style=" stroke:none;fill-rule:nonzero;fill:rgb(86.27451%,86.27451%,86.27451%);fill-opacity:1;" d="M 49.386719 15.414062 L 49.601562 15.414062 C 50.117188 15.414062 50.542969 15.839844 50.542969 16.363281 L 50.542969 28.472656 C 50.542969 29 50.117188 29.425781 49.601562 29.425781 L 49.386719 29.425781 C 48.867188 29.425781 48.441406 29 48.441406 28.472656 L 48.441406 16.363281 C 48.441406 15.839844 48.867188 15.414062 49.386719 15.414062 M 49.386719 15.414062 "/>
<path style=" stroke:none;fill-rule:nonzero;fill:rgb(86.27451%,86.27451%,86.27451%);fill-opacity:1;" d="M 13.664062 15.414062 L 13.871094 15.414062 C 14.394531 15.414062 14.816406 15.839844 14.816406 16.363281 L 14.816406 28.472656 C 14.816406 29 14.394531 29.425781 13.871094 29.425781 L 13.664062 29.425781 C 13.140625 29.425781 12.722656 29 12.722656 28.472656 L 12.722656 16.363281 C 12.722656 15.839844 13.140625 15.414062 13.664062 15.414062 M 13.664062 15.414062 "/>
<path style=" stroke:none;fill-rule:nonzero;fill:rgb(86.27451%,86.27451%,86.27451%);fill-opacity:1;" d="M 31.175781 7.007812 C 31.0625 7.015625 30.957031 7.089844 30.839844 7.113281 C 30.527344 7.171875 30.207031 7.171875 29.917969 7.328125 C 29.335938 7.636719 28.925781 8.1875 28.664062 8.730469 C 28.554688 8.9375 28.367188 9.148438 28.316406 9.382812 L 23.734375 16.6875 C 22.726562 18.347656 23.277344 20.449219 24.886719 21.316406 C 26.496094 22.1875 28.5625 21.574219 29.574219 19.914062 L 31.640625 16.582031 L 33.695312 19.914062 C 34.703125 21.574219 36.773438 22.1875 38.382812 21.316406 C 39.992188 20.449219 40.53125 18.347656 39.53125 16.6875 L 34.941406 9.382812 C 34.90625 9.234375 34.769531 9.09375 34.71875 8.945312 L 34.59375 8.730469 C 34.332031 8.1875 33.929688 7.648438 33.339844 7.328125 C 33.050781 7.171875 32.738281 7.179688 32.425781 7.113281 C 32.148438 7.0625 31.902344 6.988281 31.621094 7.007812 C 31.464844 6.996094 31.316406 6.988281 31.160156 7.007812 M 31.152344 7.007812 "/>
<path style=" stroke:none;fill-rule:nonzero;fill:rgb(86.27451%,86.27451%,86.27451%);fill-opacity:1;" d="M 13.484375 11.207031 C 13.410156 11.21875 13.347656 11.25 13.269531 11.265625 C 13.070312 11.308594 12.882812 11.300781 12.695312 11.390625 C 12.335938 11.570312 12.082031 11.875 11.910156 12.195312 C 11.84375 12.3125 11.726562 12.433594 11.695312 12.566406 L 8.828125 16.742188 C 8.195312 17.6875 8.539062 18.886719 9.542969 19.386719 C 10.550781 19.886719 11.851562 19.523438 12.480469 18.589844 L 13.769531 16.6875 L 15.058594 18.589844 C 15.691406 19.535156 16.980469 19.886719 17.992188 19.386719 C 18.992188 18.886719 19.335938 17.6875 18.703125 16.742188 L 15.847656 12.566406 C 15.824219 12.476562 15.742188 12.402344 15.703125 12.320312 L 15.628906 12.195312 C 15.464844 11.875 15.210938 11.570312 14.839844 11.390625 C 14.660156 11.308594 14.46875 11.308594 14.265625 11.265625 C 14.101562 11.230469 13.9375 11.199219 13.773438 11.207031 C 13.675781 11.199219 13.585938 11.199219 13.488281 11.207031 M 13.488281 11.207031 "/>
<path style=" stroke:none;fill-rule:nonzero;fill:rgb(86.27451%,86.27451%,86.27451%);fill-opacity:1;" d="M 31.292969 49.03125 C 31.203125 49.023438 31.128906 48.972656 31.027344 48.957031 C 30.792969 48.910156 30.5625 48.910156 30.347656 48.800781 C 29.90625 48.582031 29.601562 48.1875 29.40625 47.800781 C 29.332031 47.652344 29.183594 47.503906 29.140625 47.339844 L 25.710938 42.109375 C 24.945312 40.933594 25.355469 39.433594 26.5625 38.8125 C 27.769531 38.179688 29.324219 38.628906 30.078125 39.804688 L 31.621094 42.1875 L 33.164062 39.804688 C 33.917969 38.628906 35.476562 38.179688 36.675781 38.8125 C 37.882812 39.433594 38.296875 40.9375 37.53125 42.109375 L 34.097656 47.339844 C 34.0625 47.457031 33.972656 47.546875 33.925781 47.644531 L 33.835938 47.800781 C 33.636719 48.1875 33.335938 48.578125 32.890625 48.800781 C 32.675781 48.910156 32.4375 48.910156 32.210938 48.957031 C 31.996094 48.992188 31.816406 49.046875 31.601562 49.03125 C 31.488281 49.039062 31.382812 49.039062 31.257812 49.03125 M 31.292969 49.03125 "/>
<path style=" stroke:none;fill-rule:nonzero;fill:rgb(86.27451%,86.27451%,86.27451%);fill-opacity:1;" d="M 49.214844 11.207031 C 49.140625 11.21875 49.074219 11.25 49 11.265625 C 48.800781 11.308594 48.613281 11.300781 48.425781 11.390625 C 48.0625 11.570312 47.808594 11.875 47.636719 12.195312 C 47.570312 12.3125 47.457031 12.433594 47.421875 12.566406 L 44.558594 16.742188 C 43.925781 17.6875 44.269531 18.886719 45.273438 19.386719 C 46.28125 19.886719 47.582031 19.523438 48.210938 18.589844 L 49.5 16.6875 L 50.789062 18.589844 C 51.421875 19.535156 52.714844 19.886719 53.71875 19.386719 C 54.726562 18.886719 55.066406 17.6875 54.433594 16.742188 L 51.578125 12.566406 C 51.550781 12.476562 51.46875 12.402344 51.4375 12.320312 L 51.363281 12.195312 C 51.191406 11.875 50.9375 11.570312 50.570312 11.390625 C 50.398438 11.308594 50.199219 11.308594 50 11.265625 C 49.828125 11.230469 49.671875 11.199219 49.5 11.207031 C 49.402344 11.199219 49.3125 11.199219 49.214844 11.207031 M 49.214844 11.207031 "/>
</g>
</svg>
