<!-- color: #266597 -->
<svg xmlns="http://www.w3.org/2000/svg" xmlns:xlink="http://www.w3.org/1999/xlink" width="64px" height="64px" viewBox="0 0 64 64" version="1.1">
<defs>
<clipPath id="clip1">
  <path d="M 24.5 23 L 45.125 23 L 45.125 37 L 24.5 37 Z M 24.5 23 "/>
</clipPath>
<clipPath id="clip2">
  <path d="M 6.667969 1.332031 L 57.332031 1.332031 C 60.277344 1.332031 62.667969 3.71875 62.667969 6.664062 L 62.667969 57.332031 C 62.667969 60.277344 60.277344 62.664062 57.332031 62.664062 L 6.667969 62.664062 C 3.722656 62.664062 1.332031 60.277344 1.332031 57.332031 L 1.332031 6.664062 C 1.332031 3.71875 3.722656 1.332031 6.667969 1.332031 Z M 6.667969 1.332031 "/>
</clipPath>
<clipPath id="clip3">
  <path d="M 32.75 13.75 L 40.125 13.75 L 40.125 21.375 L 32.75 21.375 Z M 32.75 13.75 "/>
</clipPath>
<clipPath id="clip4">
  <path d="M 6.667969 1.332031 L 57.332031 1.332031 C 60.277344 1.332031 62.667969 3.71875 62.667969 6.664062 L 62.667969 57.332031 C 62.667969 60.277344 60.277344 62.664062 57.332031 62.664062 L 6.667969 62.664062 C 3.722656 62.664062 1.332031 60.277344 1.332031 57.332031 L 1.332031 6.664062 C 1.332031 3.71875 3.722656 1.332031 6.667969 1.332031 Z M 6.667969 1.332031 "/>
</clipPath>
<clipPath id="clip5">
  <path d="M 17.25 38.25 L 23.375 38.25 L 23.375 50.75 L 17.25 50.75 Z M 17.25 38.25 "/>
</clipPath>
<clipPath id="clip6">
  <path d="M 6.667969 1.332031 L 57.332031 1.332031 C 60.277344 1.332031 62.667969 3.71875 62.667969 6.664062 L 62.667969 57.332031 C 62.667969 60.277344 60.277344 62.664062 57.332031 62.664062 L 6.667969 62.664062 C 3.722656 62.664062 1.332031 60.277344 1.332031 57.332031 L 1.332031 6.664062 C 1.332031 3.71875 3.722656 1.332031 6.667969 1.332031 Z M 6.667969 1.332031 "/>
</clipPath>
<clipPath id="clip7">
  <path d="M 40 22.875 L 46.75 22.875 L 46.75 41.375 L 40 41.375 Z M 40 22.875 "/>
</clipPath>
<clipPath id="clip8">
  <path d="M 6.667969 1.332031 L 57.332031 1.332031 C 60.277344 1.332031 62.667969 3.71875 62.667969 6.664062 L 62.667969 57.332031 C 62.667969 60.277344 60.277344 62.664062 57.332031 62.664062 L 6.667969 62.664062 C 3.722656 62.664062 1.332031 60.277344 1.332031 57.332031 L 1.332031 6.664062 C 1.332031 3.71875 3.722656 1.332031 6.667969 1.332031 Z M 6.667969 1.332031 "/>
</clipPath>
<clipPath id="clip9">
  <path d="M 27.75 31 L 44 31 L 44 36.25 L 27.75 36.25 Z M 27.75 31 "/>
</clipPath>
<clipPath id="clip10">
  <path d="M 6.667969 1.332031 L 57.332031 1.332031 C 60.277344 1.332031 62.667969 3.71875 62.667969 6.664062 L 62.667969 57.332031 C 62.667969 60.277344 60.277344 62.664062 57.332031 62.664062 L 6.667969 62.664062 C 3.722656 62.664062 1.332031 60.277344 1.332031 57.332031 L 1.332031 6.664062 C 1.332031 3.71875 3.722656 1.332031 6.667969 1.332031 Z M 6.667969 1.332031 "/>
</clipPath>
<clipPath id="clip11">
  <path d="M 32.5 19.75 L 40 19.75 L 40 26.875 L 32.5 26.875 Z M 32.5 19.75 "/>
</clipPath>
<clipPath id="clip12">
  <path d="M 6.667969 1.332031 L 57.332031 1.332031 C 60.277344 1.332031 62.667969 3.71875 62.667969 6.664062 L 62.667969 57.332031 C 62.667969 60.277344 60.277344 62.664062 57.332031 62.664062 L 6.667969 62.664062 C 3.722656 62.664062 1.332031 60.277344 1.332031 57.332031 L 1.332031 6.664062 C 1.332031 3.71875 3.722656 1.332031 6.667969 1.332031 Z M 6.667969 1.332031 "/>
</clipPath>
<clipPath id="clip13">
  <path d="M 37.75 17.875 L 41.25 17.875 L 41.25 22.625 L 37.75 22.625 Z M 37.75 17.875 "/>
</clipPath>
<clipPath id="clip14">
  <path d="M 6.667969 1.332031 L 57.332031 1.332031 C 60.277344 1.332031 62.667969 3.71875 62.667969 6.664062 L 62.667969 57.332031 C 62.667969 60.277344 60.277344 62.664062 57.332031 62.664062 L 6.667969 62.664062 C 3.722656 62.664062 1.332031 60.277344 1.332031 57.332031 L 1.332031 6.664062 C 1.332031 3.71875 3.722656 1.332031 6.667969 1.332031 Z M 6.667969 1.332031 "/>
</clipPath>
<clipPath id="clip15">
  <path d="M 38.75 10.625 L 41.75 10.625 L 41.75 18 L 38.75 18 Z M 38.75 10.625 "/>
</clipPath>
<clipPath id="clip16">
  <path d="M 6.667969 1.332031 L 57.332031 1.332031 C 60.277344 1.332031 62.667969 3.71875 62.667969 6.664062 L 62.667969 57.332031 C 62.667969 60.277344 60.277344 62.664062 57.332031 62.664062 L 6.667969 62.664062 C 3.722656 62.664062 1.332031 60.277344 1.332031 57.332031 L 1.332031 6.664062 C 1.332031 3.71875 3.722656 1.332031 6.667969 1.332031 Z M 6.667969 1.332031 "/>
</clipPath>
<clipPath id="clip17">
  <path d="M 21.625 38.625 L 26.5 38.625 L 26.5 43.25 L 21.625 43.25 Z M 21.625 38.625 "/>
</clipPath>
<clipPath id="clip18">
  <path d="M 6.667969 1.332031 L 57.332031 1.332031 C 60.277344 1.332031 62.667969 3.71875 62.667969 6.664062 L 62.667969 57.332031 C 62.667969 60.277344 60.277344 62.664062 57.332031 62.664062 L 6.667969 62.664062 C 3.722656 62.664062 1.332031 60.277344 1.332031 57.332031 L 1.332031 6.664062 C 1.332031 3.71875 3.722656 1.332031 6.667969 1.332031 Z M 6.667969 1.332031 "/>
</clipPath>
<clipPath id="clip19">
  <path d="M 23.125 35.25 L 40.375 35.25 L 40.375 46.125 L 23.125 46.125 Z M 23.125 35.25 "/>
</clipPath>
<clipPath id="clip20">
  <path d="M 6.667969 1.332031 L 57.332031 1.332031 C 60.277344 1.332031 62.667969 3.71875 62.667969 6.664062 L 62.667969 57.332031 C 62.667969 60.277344 60.277344 62.664062 57.332031 62.664062 L 6.667969 62.664062 C 3.722656 62.664062 1.332031 60.277344 1.332031 57.332031 L 1.332031 6.664062 C 1.332031 3.71875 3.722656 1.332031 6.667969 1.332031 Z M 6.667969 1.332031 "/>
</clipPath>
</defs>
<g id="surface1">
<path style="fill-rule:nonzero;fill:rgb(33.333333%,60%,100%);fill-opacity:1;stroke-width:1.5;stroke-linecap:butt;stroke-linejoin:miter;stroke:rgb(0%,34.117647%,85.490196%);stroke-opacity:1;stroke-miterlimit:4;" d="M -42.999515 1.001073 L -5.000485 1.001073 C -2.789878 1.001073 -1.001073 2.789878 -1.001073 5.000485 L -1.001073 42.999515 C -1.001073 45.210122 -2.789878 46.998927 -5.000485 46.998927 L -42.999515 46.998927 C -45.210122 46.998927 -46.998927 45.210122 -46.998927 42.999515 L -46.998927 5.000485 C -46.998927 2.789878 -45.210122 1.001073 -42.999515 1.001073 Z M -42.999515 1.001073 " transform="matrix(0,-1.268741,1.268741,0,1.55021,1.55021)"/>
<g clip-path="url(#clip1)" clip-rule="nonzero">
<g clip-path="url(#clip2)" clip-rule="nonzero">
<path style=" stroke:none;fill-rule:nonzero;fill:rgb(97.647059%,97.647059%,97.647059%);fill-opacity:1;" d="M 42.585938 23.078125 C 41.726562 23.28125 40.921875 23.691406 40.214844 24.203125 C 39.050781 25.792969 37.441406 27.074219 35.300781 27.578125 C 34.488281 26.984375 33.5 26.296875 32.824219 25.515625 C 29.722656 25.871094 25.457031 26.558594 24.722656 29.542969 C 23.957031 32.640625 25.988281 36.6875 27.640625 36.921875 C 29.210938 37.140625 34.25 35.738281 36.6875 35.085938 C 34.648438 33.492188 32.296875 32.792969 31.015625 32.710938 C 29.503906 32.589844 28.203125 32.859375 26.847656 33.210938 C 28.828125 31.933594 30.621094 30.980469 32.390625 30.625 C 33.71875 30.375 35.78125 30.367188 38.257812 31.292969 C 41.332031 32.441406 42.066406 34.085938 44.222656 34.824219 C 45.652344 34.597656 44.925781 33.015625 44.632812 31.917969 C 44.433594 31.316406 44.277344 30.863281 44.214844 30.664062 C 44.105469 30.332031 42.5625 26.390625 42.339844 25.375 C 42.1875 24.679688 42.316406 23.78125 42.589844 23.074219 M 42.589844 23.074219 "/>
</g>
</g>
<g clip-path="url(#clip3)" clip-rule="nonzero">
<g clip-path="url(#clip4)" clip-rule="nonzero">
<path style=" stroke:none;fill-rule:nonzero;fill:rgb(97.647059%,97.647059%,97.647059%);fill-opacity:1;" d="M 35.144531 16.875 C 32.996094 17.78125 32.921875 19.496094 32.800781 21.355469 C 33.703125 20.535156 36.535156 19.9375 37.300781 19.273438 C 39.5625 17.316406 40.4375 13.269531 39.960938 13.867188 C 38.425781 15.8125 35.9375 16.4375 35.144531 16.875 M 35.144531 16.875 "/>
</g>
</g>
<g clip-path="url(#clip5)" clip-rule="nonzero">
<g clip-path="url(#clip6)" clip-rule="nonzero">
<path style=" stroke:none;fill-rule:nonzero;fill:rgb(97.647059%,97.647059%,97.647059%);fill-opacity:1;" d="M 23.304688 44.066406 C 23.304688 44.066406 21.167969 42.648438 21.210938 42.195312 C 22.609375 34.597656 17.777344 40.003906 17.410156 43.40625 C 17.027344 46.671875 18.230469 50.4375 18.40625 50.664062 C 18.691406 48 18.949219 46.519531 23.304688 44.0625 M 23.304688 44.066406 "/>
</g>
</g>
<g clip-path="url(#clip7)" clip-rule="nonzero">
<g clip-path="url(#clip8)" clip-rule="nonzero">
<path style=" stroke:none;fill-rule:nonzero;fill:rgb(97.647059%,97.647059%,97.647059%);fill-opacity:1;" d="M 46.652344 27.324219 C 46.542969 24.496094 44.765625 22.542969 43.558594 23 C 43.042969 23.191406 42.703125 24.511719 42.878906 25.328125 C 43.472656 28.234375 45.914062 31.59375 45.3125 34.46875 C 44.859375 35.84375 40.847656 36.695312 40.847656 36.695312 C 40.847656 36.695312 40.769531 37.875 40.617188 38.675781 C 40.4375 39.648438 40.066406 40.421875 40.066406 40.421875 C 40.066406 40.421875 41.019531 41.277344 41.054688 41.277344 C 41.097656 41.277344 47.054688 38.183594 46.648438 27.324219 M 46.648438 27.324219 "/>
</g>
</g>
<g clip-path="url(#clip9)" clip-rule="nonzero">
<g clip-path="url(#clip10)" clip-rule="nonzero">
<path style=" stroke:none;fill-rule:nonzero;fill:rgb(97.647059%,97.647059%,97.647059%);fill-opacity:1;" d="M 44 35.109375 C 43.011719 34.707031 42.667969 34.535156 41.375 33.578125 C 34.234375 28.246094 27.660156 32.863281 27.789062 32.820312 C 28.972656 32.445312 30.3125 32.105469 32.046875 32.214844 C 33.445312 32.308594 35.308594 33.195312 37.613281 35.105469 C 39.160156 36.464844 41.503906 36.636719 43.992188 35.109375 M 44 35.109375 "/>
</g>
</g>
<g clip-path="url(#clip11)" clip-rule="nonzero">
<g clip-path="url(#clip12)" clip-rule="nonzero">
<path style=" stroke:none;fill-rule:nonzero;fill:rgb(97.647059%,97.647059%,97.647059%);fill-opacity:1;" d="M 37.296875 19.867188 C 34.65625 20.71875 33.230469 21.449219 32.800781 21.785156 C 31.929688 24.015625 33.695312 25.691406 35.300781 26.871094 C 37.417969 26.371094 39.175781 24.804688 39.964844 23.078125 C 39.550781 23.136719 39.113281 23.058594 38.632812 22.785156 C 37.6875 22.253906 37.113281 20.980469 37.296875 19.867188 M 37.296875 19.867188 "/>
</g>
</g>
<g clip-path="url(#clip13)" clip-rule="nonzero">
<g clip-path="url(#clip14)" clip-rule="nonzero">
<path style=" stroke:none;fill-rule:nonzero;fill:rgb(97.647059%,97.647059%,97.647059%);fill-opacity:1;" d="M 41.140625 19.449219 C 40.96875 18.769531 40.414062 17.902344 40.265625 17.902344 C 40.128906 17.902344 38.660156 18.996094 38.28125 19.371094 C 37.421875 20.230469 37.839844 21.796875 38.792969 22.328125 C 40.40625 23.234375 41.597656 21.246094 41.140625 19.449219 M 41.140625 19.449219 "/>
</g>
</g>
<g clip-path="url(#clip15)" clip-rule="nonzero">
<g clip-path="url(#clip16)" clip-rule="nonzero">
<path style=" stroke:none;fill-rule:nonzero;fill:rgb(97.647059%,97.647059%,97.647059%);fill-opacity:1;" d="M 39.886719 17.15625 C 40.53125 16.535156 41.390625 15.519531 41.613281 13.972656 C 41.746094 12.589844 41.40625 11.734375 40.988281 10.671875 C 40.785156 12.746094 40.484375 15.050781 39.070312 17.5 C 38.628906 18.269531 38.867188 18.128906 39.882812 17.15625 M 39.882812 17.15625 "/>
</g>
</g>
<g clip-path="url(#clip17)" clip-rule="nonzero">
<g clip-path="url(#clip18)" clip-rule="nonzero">
<path style=" stroke:none;fill-rule:nonzero;fill:rgb(97.647059%,97.647059%,97.647059%);fill-opacity:1;" d="M 21.769531 38.625 C 21.996094 39.1875 21.980469 40.257812 21.644531 42.085938 C 21.640625 42.101562 21.644531 42.109375 21.644531 42.125 C 21.878906 42.453125 22.363281 42.847656 22.847656 43.210938 C 24.515625 42.433594 26.609375 40.980469 26.472656 40.957031 C 25.582031 40.808594 22.828125 40.136719 21.769531 38.625 M 21.769531 38.625 "/>
</g>
</g>
<g clip-path="url(#clip19)" clip-rule="nonzero">
<g clip-path="url(#clip20)" clip-rule="nonzero">
<path style=" stroke:none;fill-rule:nonzero;fill:rgb(97.647059%,97.647059%,97.647059%);fill-opacity:1;" d="M 37.003906 35.367188 C 36.933594 35.367188 36.875 35.367188 36.714844 35.410156 C 34.640625 35.988281 29.34375 37.34375 28.515625 38.242188 C 28.191406 38.933594 27.875 41.675781 23.222656 43.414062 C 23.09375 43.460938 27.128906 46.070312 27.347656 46.082031 C 40.527344 46.632812 40.511719 37.179688 40.339844 36.75 C 39.058594 36.769531 37.96875 36.324219 37.132812 35.5 C 37.089844 35.457031 37.050781 35.414062 37.003906 35.375 M 37.003906 35.375 "/>
</g>
</g>
</g>
</svg>
