
<svg xmlns="http://www.w3.org/2000/svg" xmlns:xlink="http://www.w3.org/1999/xlink" width="64px" height="64px" viewBox="0 0 64 64" version="1.1">
<g id="surface1">
<path style="fill-rule:nonzero;fill:rgb(100%,100%,100%);fill-opacity:1;stroke-width:55.283993;stroke-linecap:butt;stroke-linejoin:miter;stroke:rgb(0%,50.196078%,50.196078%);stroke-opacity:1;stroke-miterlimit:4;" d="M 169.75 59.1875 L 854.25 59.1875 C 915.3125 59.1875 964.8125 108.6875 964.8125 169.75 L 964.8125 854.25 C 964.8125 915.3125 915.3125 964.8125 854.25 964.8125 L 169.75 964.8125 C 108.6875 964.8125 59.1875 915.3125 59.1875 854.25 L 59.1875 169.75 C 59.1875 108.6875 108.6875 59.1875 169.75 59.1875 Z M 169.75 59.1875 " transform="matrix(0.0625,0,0,0.0625,0,0)"/>
<path style=" stroke:none;fill-rule:nonzero;fill:rgb(7.058824%,9.019608%,0%);fill-opacity:1;" d="M 16.96875 11.628906 C 15.613281 11.628906 14.933594 12.308594 14.933594 13.664062 L 14.933594 48.738281 C 14.933594 50.09375 15.613281 50.769531 16.96875 50.773438 L 45.742188 50.855469 C 47.070312 50.859375 47.484375 50.6875 47.511719 49.382812 L 47.40625 41.941406 L 43.925781 48.90625 L 43.925781 48.890625 L 18.261719 48.890625 C 17.890625 48.890625 17.578125 48.761719 17.3125 48.496094 C 17.054688 48.238281 17.152344 47.847656 16.925781 47.558594 L 16.851562 47.46875 C 16.621094 47.179688 16.980469 46.78125 17.242188 46.519531 C 17.503906 46.257812 17.820312 46.128906 18.1875 46.128906 L 21.347656 46.128906 L 21.347656 11.628906 Z M 16.96875 11.628906 "/>
<path style=" stroke:none;fill-rule:nonzero;fill:rgb(0%,50.196078%,50.196078%);fill-opacity:1;" d="M 39.515625 22.4375 L 47.546875 30.410156 L 47.546875 13.792969 C 47.546875 12.441406 46.867188 11.765625 45.511719 11.765625 L 21.191406 11.765625 L 21.191406 46.128906 L 39.613281 46.128906 L 31.457031 38.085938 L 32.933594 25.785156 Z M 39.515625 22.4375 "/>
<path style=" stroke:none;fill-rule:nonzero;fill:rgb(0%,50.196078%,50.196078%);fill-opacity:1;" d="M 47.546875 30.410156 L 39.515625 22.4375 L 32.933594 25.785156 L 31.457031 38.085938 L 39.613281 46.128906 L 45.722656 46.128906 L 45.722656 46.136719 L 45.789062 46.136719 C 46.269531 46.125 46.679688 45.949219 47.019531 45.613281 C 47.355469 45.273438 47.53125 44.867188 47.546875 44.390625 Z M 47.546875 30.410156 "/>
<path style=" stroke:none;fill-rule:nonzero;fill:rgb(90.196078%,90.196078%,90.196078%);fill-opacity:1;" d="M 16.691406 47.609375 C 16.691406 47.980469 16.820312 48.289062 17.082031 48.546875 C 17.34375 48.8125 17.660156 48.945312 18.03125 48.945312 L 45.722656 48.945312 L 45.722656 46.265625 L 18.03125 46.265625 C 17.660156 46.265625 17.34375 46.394531 17.082031 46.65625 C 16.820312 46.917969 16.691406 47.234375 16.691406 47.601562 Z M 16.691406 47.609375 "/>
<path style=" stroke:none;fill-rule:nonzero;fill:rgb(74.117647%,80.392157%,83.137255%);fill-opacity:1;" d="M 39.519531 22.480469 L 27.632812 22.480469 L 27.632812 25.9375 L 31.460938 25.9375 L 31.460938 38.164062 L 35.703125 38.164062 L 35.703125 25.9375 L 39.519531 25.9375 Z M 39.519531 22.480469 "/>
</g>
</svg>
