<!-- Generator: Adobe Illustrator 9.0, SVG Export Plug-In  -->
<svg xmlns="http://www.w3.org/2000/svg" xmlns:xlink="http://www.w3.org/1999/xlink" width="64px" height="64px" viewBox="0 0 64 64" version="1.1">
<defs>
<linearGradient id="linear0" gradientUnits="userSpaceOnUse" x1="-28.083" y1="1.5566" x2="122.4775" y2="179.00301" gradientTransform="matrix(0.359285,0,0,0.359285,7.621885,7.531436)">
<stop offset="0" style="stop-color:rgb(100%,100%,100%);stop-opacity:1;"/>
<stop offset="1" style="stop-color:rgb(54.901961%,54.901961%,64.313725%);stop-opacity:1;"/>
</linearGradient>
<linearGradient id="linear1" gradientUnits="userSpaceOnUse" x1="-32.7295" y1="5.502" x2="117.8273" y2="182.94389" gradientTransform="matrix(0.359285,0,0,0.359285,7.621885,7.531436)">
<stop offset="0" style="stop-color:rgb(100%,100%,100%);stop-opacity:1;"/>
<stop offset="1" style="stop-color:rgb(54.901961%,54.901961%,64.313725%);stop-opacity:1;"/>
</linearGradient>
<linearGradient id="linear2" gradientUnits="userSpaceOnUse" x1="-45.7183" y1="16.5156" x2="104.8478" y2="193.9686" gradientTransform="matrix(0.359285,0,0,0.359285,7.621885,7.531436)">
<stop offset="0" style="stop-color:rgb(100%,100%,100%);stop-opacity:1;"/>
<stop offset="1" style="stop-color:rgb(54.901961%,54.901961%,64.313725%);stop-opacity:1;"/>
</linearGradient>
<linearGradient id="linear3" gradientUnits="userSpaceOnUse" x1="4.0088" y1="-25.6621" x2="154.5634" y2="151.7773" gradientTransform="matrix(0.359285,0,0,0.359285,7.621885,7.531436)">
<stop offset="0" style="stop-color:rgb(100%,100%,100%);stop-opacity:1;"/>
<stop offset="1" style="stop-color:rgb(54.901961%,54.901961%,64.313725%);stop-opacity:1;"/>
</linearGradient>
<linearGradient id="linear4" gradientUnits="userSpaceOnUse" x1="-2.0176" y1="-20.553699" x2="148.53819" y2="156.8871" gradientTransform="matrix(0.359285,0,0,0.359285,7.621885,7.531436)">
<stop offset="0" style="stop-color:rgb(100%,100%,100%);stop-opacity:1;"/>
<stop offset="1" style="stop-color:rgb(54.901961%,54.901961%,64.313725%);stop-opacity:1;"/>
</linearGradient>
<linearGradient id="linear5" gradientUnits="userSpaceOnUse" x1="-9.1904" y1="-14.3975" x2="141.2382" y2="162.8934" gradientTransform="matrix(0.359285,0,0,0.359285,7.621885,7.531436)">
<stop offset="0" style="stop-color:rgb(100%,100%,100%);stop-opacity:1;"/>
<stop offset="1" style="stop-color:rgb(54.901961%,54.901961%,64.313725%);stop-opacity:1;"/>
</linearGradient>
<linearGradient id="linear6" gradientUnits="userSpaceOnUse" x1="35.362301" y1="37.130901" x2="170.0874" y2="197.817" gradientTransform="matrix(0.359285,0,0,0.359285,7.621885,7.531436)">
<stop offset="0" style="stop-color:rgb(100%,100%,100%);stop-opacity:1;"/>
<stop offset="0.178" style="stop-color:rgb(98.431373%,98.431373%,98.823529%);stop-opacity:1;"/>
<stop offset="0.367" style="stop-color:rgb(93.333333%,93.333333%,94.901961%);stop-opacity:1;"/>
<stop offset="0.5612" style="stop-color:rgb(85.098039%,85.098039%,88.235294%);stop-opacity:1;"/>
<stop offset="0.7589" style="stop-color:rgb(73.333333%,73.333333%,78.823529%);stop-opacity:1;"/>
<stop offset="0.9575" style="stop-color:rgb(58.431373%,58.431373%,67.058824%);stop-opacity:1;"/>
<stop offset="1" style="stop-color:rgb(54.901961%,54.901961%,64.313725%);stop-opacity:1;"/>
</linearGradient>
<clipPath id="clip1">
  <path d="M 18.375 14.625 L 50.375 14.625 L 50.375 46.625 L 18.375 46.625 Z M 18.375 14.625 "/>
</clipPath>
<clipPath id="clip2">
  <path d="M 50.375 30.632812 C 50.375 39.429688 43.238281 46.5625 34.433594 46.5625 C 25.628906 46.5625 18.492188 39.429688 18.492188 30.632812 C 18.492188 21.832031 25.628906 14.699219 34.433594 14.699219 C 43.238281 14.699219 50.375 21.832031 50.375 30.632812 Z M 50.375 30.632812 "/>
</clipPath>
</defs>
<g id="surface1">
<path style="fill-rule:nonzero;fill:rgb(100%,100%,100%);fill-opacity:1;stroke-width:7.874994;stroke-linecap:butt;stroke-linejoin:miter;stroke:rgb(12.156863%,58.039216%,72.156863%);stroke-opacity:1;stroke-miterlimit:4;" d="M 23.247067 7.497069 L 120.752915 7.497069 C 129.445296 7.497069 136.502913 14.554686 136.502913 23.247067 L 136.502913 120.752915 C 136.502913 129.445296 129.445296 136.502913 120.752915 136.502913 L 23.247067 136.502913 C 14.554686 136.502913 7.497069 129.445296 7.497069 120.752915 L 7.497069 23.247067 C 7.497069 14.554686 14.554686 7.497069 23.247067 7.497069 Z M 23.247067 7.497069 " transform="matrix(0.444445,0,0,0.444445,0,0)"/>
<path style=" stroke:none;fill-rule:nonzero;fill:rgb(53.72549%,57.647059%,60.784314%);fill-opacity:1;" d="M 56.722656 50.820312 L 54.917969 52.625 L 49.882812 47.59375 L 51.691406 45.785156 Z M 56.722656 50.820312 "/>
<path style=" stroke:none;fill-rule:nonzero;fill:rgb(53.72549%,57.647059%,60.784314%);fill-opacity:1;" d="M 51.691406 45.546875 C 51.625 45.546875 51.566406 45.570312 51.519531 45.617188 L 49.714844 47.425781 C 49.617188 47.519531 49.617188 47.671875 49.714844 47.765625 L 54.746094 52.796875 C 54.839844 52.890625 54.992188 52.890625 55.085938 52.796875 L 56.894531 50.992188 C 56.988281 50.898438 56.988281 50.742188 56.894531 50.648438 L 51.863281 45.617188 C 51.816406 45.570312 51.753906 45.546875 51.691406 45.546875 Z M 51.691406 46.128906 C 51.996094 46.4375 56.074219 50.511719 56.382812 50.820312 C 56.132812 51.070312 55.167969 52.035156 54.917969 52.285156 C 54.609375 51.976562 50.535156 47.902344 50.226562 47.59375 C 50.476562 47.34375 51.441406 46.378906 51.691406 46.128906 Z M 51.691406 46.128906 "/>
<path style=" stroke:none;fill-rule:nonzero;fill:rgb(53.72549%,57.647059%,60.784314%);fill-opacity:1;" d="M 19.050781 13.148438 L 17.246094 14.953125 L 12.210938 9.921875 L 14.019531 8.117188 Z M 19.050781 13.148438 "/>
<path style=" stroke:none;fill-rule:nonzero;fill:rgb(53.72549%,57.647059%,60.784314%);fill-opacity:1;" d="M 14.019531 7.875 C 13.957031 7.875 13.894531 7.898438 13.847656 7.945312 L 12.042969 9.753906 C 11.949219 9.847656 11.949219 10 12.042969 10.09375 L 17.074219 15.125 C 17.167969 15.21875 17.320312 15.21875 17.414062 15.125 L 19.222656 13.320312 C 19.316406 13.226562 19.316406 13.070312 19.222656 12.976562 L 14.191406 7.945312 C 14.144531 7.898438 14.082031 7.875 14.019531 7.875 Z M 14.019531 8.457031 C 14.328125 8.765625 18.402344 12.839844 18.710938 13.148438 C 18.460938 13.398438 17.496094 14.363281 17.246094 14.613281 C 16.9375 14.304688 12.863281 10.230469 12.554688 9.921875 C 12.804688 9.671875 13.769531 8.707031 14.019531 8.457031 Z M 14.019531 8.457031 "/>
<path style=" stroke:none;fill-rule:nonzero;fill:url(#linear0);" d="M 36.777344 56.582031 L 31.5 56.582031 L 29.765625 48.242188 L 38.808594 48.277344 Z M 36.777344 56.582031 "/>
<path style=" stroke:none;fill-rule:nonzero;fill:rgb(53.72549%,57.647059%,60.784314%);fill-opacity:1;" d="M 29.390625 47.9375 C 29.300781 48.046875 29.261719 48.199219 29.292969 48.339844 L 31.027344 56.679688 C 31.074219 56.90625 31.273438 57.066406 31.5 57.066406 L 36.777344 57.066406 C 37 57.066406 37.195312 56.914062 37.246094 56.699219 L 39.277344 48.394531 C 39.3125 48.25 39.277344 48.097656 39.1875 47.984375 C 39.097656 47.867188 38.957031 47.796875 38.808594 47.796875 L 29.765625 47.757812 C 29.621094 47.757812 29.484375 47.824219 29.390625 47.9375 Z M 30.359375 48.726562 C 31.324219 48.730469 37.203125 48.753906 38.191406 48.757812 C 37.953125 49.734375 36.550781 55.476562 36.398438 56.101562 C 35.796875 56.101562 32.515625 56.101562 31.894531 56.101562 C 31.757812 55.453125 30.558594 49.6875 30.359375 48.726562 Z M 30.359375 48.726562 "/>
<path style=" stroke:none;fill-rule:nonzero;fill:rgb(87.058824%,91.764706%,98.431373%);fill-opacity:1;" d="M 35.839844 56.101562 L 32.332031 56.101562 L 31.277344 47.777344 L 37.195312 47.898438 Z M 35.839844 56.101562 "/>
<path style=" stroke:none;fill-rule:nonzero;fill:url(#linear1);" d="M 8.394531 32.695312 L 8.394531 27.417969 L 16.734375 25.6875 L 16.695312 34.726562 Z M 8.394531 32.695312 "/>
<path style=" stroke:none;fill-rule:nonzero;fill:rgb(53.72549%,57.647059%,60.784314%);fill-opacity:1;" d="M 16.632812 25.210938 L 8.292969 26.945312 C 8.070312 26.992188 7.910156 27.191406 7.910156 27.417969 L 7.910156 32.695312 C 7.910156 32.917969 8.0625 33.113281 8.277344 33.164062 L 16.582031 35.195312 C 16.726562 35.230469 16.875 35.199219 16.992188 35.105469 C 17.109375 35.015625 17.179688 34.875 17.179688 34.726562 L 17.214844 25.6875 C 17.214844 25.542969 17.152344 25.402344 17.039062 25.3125 C 16.925781 25.21875 16.777344 25.183594 16.632812 25.210938 Z M 16.25 26.277344 C 16.242188 27.242188 16.21875 33.121094 16.214844 34.113281 C 15.238281 33.871094 9.5 32.46875 8.875 32.316406 C 8.875 31.714844 8.875 28.433594 8.875 27.8125 C 9.523438 27.679688 15.289062 26.480469 16.25 26.277344 Z M 16.25 26.277344 "/>
<path style=" stroke:none;fill-rule:nonzero;fill:rgb(87.058824%,91.764706%,98.431373%);fill-opacity:1;" d="M 8.875 31.757812 L 8.871094 28.25 L 17.195312 27.195312 L 17.074219 33.113281 Z M 8.875 31.757812 "/>
<path style=" stroke:none;fill-rule:nonzero;fill:url(#linear2);" d="M 17.601562 50.777344 L 13.871094 47.046875 L 18.539062 39.921875 L 24.90625 46.339844 Z M 17.601562 50.777344 "/>
<path style=" stroke:none;fill-rule:nonzero;fill:rgb(53.72549%,57.647059%,60.784314%);fill-opacity:1;" d="M 18.492188 39.441406 C 18.347656 39.453125 18.214844 39.535156 18.136719 39.65625 L 13.464844 46.78125 C 13.339844 46.96875 13.367188 47.222656 13.527344 47.386719 L 17.261719 51.117188 C 17.417969 51.273438 17.660156 51.304688 17.851562 51.1875 L 25.160156 46.753906 C 25.285156 46.675781 25.371094 46.546875 25.386719 46.398438 C 25.40625 46.253906 25.355469 46.105469 25.25 46 L 18.882812 39.582031 C 18.78125 39.476562 18.636719 39.425781 18.492188 39.4375 Z M 18.617188 40.683594 C 19.296875 41.367188 23.4375 45.542969 24.132812 46.246094 C 23.273438 46.765625 18.222656 49.832031 17.675781 50.167969 C 17.25 49.742188 14.929688 47.417969 14.488281 46.980469 C 14.851562 46.425781 18.078125 41.503906 18.617188 40.683594 Z M 18.617188 40.683594 "/>
<path style=" stroke:none;fill-rule:nonzero;fill:rgb(87.058824%,91.764706%,98.431373%);fill-opacity:1;" d="M 17.28125 49.773438 L 14.796875 47.292969 L 19.9375 40.664062 L 24.035156 44.929688 Z M 17.28125 49.773438 "/>
<path style=" stroke:none;fill-rule:nonzero;fill:url(#linear3);" d="M 54.738281 47.253906 L 51.003906 50.984375 L 43.878906 46.3125 L 50.300781 39.945312 Z M 54.738281 47.253906 "/>
<path style=" stroke:none;fill-rule:nonzero;fill:rgb(53.72549%,57.647059%,60.784314%);fill-opacity:1;" d="M 49.960938 39.601562 L 43.539062 45.972656 C 43.4375 46.074219 43.386719 46.214844 43.398438 46.363281 C 43.414062 46.507812 43.492188 46.636719 43.617188 46.71875 L 50.738281 51.390625 C 50.929688 51.515625 51.183594 51.488281 51.347656 51.328125 L 55.078125 47.59375 C 55.234375 47.4375 55.265625 47.191406 55.148438 47.003906 L 50.710938 39.695312 C 50.636719 39.570312 50.507812 39.484375 50.359375 39.464844 C 50.210938 39.449219 50.066406 39.5 49.960938 39.601562 Z M 50.207031 40.722656 C 50.726562 41.582031 53.792969 46.632812 54.125 47.179688 C 53.703125 47.605469 51.378906 49.925781 50.941406 50.367188 C 50.386719 50 45.464844 46.773438 44.644531 46.238281 C 45.328125 45.558594 49.5 41.417969 50.207031 40.722656 Z M 50.207031 40.722656 "/>
<path style=" stroke:none;fill-rule:nonzero;fill:rgb(87.058824%,91.764706%,98.431373%);fill-opacity:1;" d="M 53.734375 47.574219 L 51.253906 50.058594 L 44.625 44.917969 L 48.894531 40.820312 Z M 53.734375 47.574219 "/>
<path style=" stroke:none;fill-rule:nonzero;fill:url(#linear4);" d="M 14.199219 13.640625 L 17.929688 9.910156 L 25.054688 14.582031 L 18.636719 20.949219 Z M 14.199219 13.640625 "/>
<path style=" stroke:none;fill-rule:nonzero;fill:rgb(53.72549%,57.647059%,60.784314%);fill-opacity:1;" d="M 17.589844 9.566406 L 13.855469 13.300781 C 13.699219 13.457031 13.671875 13.699219 13.785156 13.890625 L 18.222656 21.199219 C 18.300781 21.324219 18.429688 21.410156 18.578125 21.425781 C 18.722656 21.445312 18.871094 21.394531 18.976562 21.292969 L 25.394531 14.921875 C 25.5 14.820312 25.550781 14.675781 25.535156 14.53125 C 25.519531 14.386719 25.441406 14.257812 25.320312 14.175781 L 18.195312 9.503906 C 18.003906 9.378906 17.75 9.40625 17.589844 9.566406 Z M 17.992188 10.527344 C 18.546875 10.890625 23.472656 14.121094 24.292969 14.65625 C 23.605469 15.335938 19.433594 19.476562 18.730469 20.171875 C 18.207031 19.3125 15.140625 14.261719 14.808594 13.714844 C 15.234375 13.289062 17.554688 10.96875 17.992188 10.527344 Z M 17.992188 10.527344 "/>
<path style=" stroke:none;fill-rule:nonzero;fill:rgb(87.058824%,91.764706%,98.431373%);fill-opacity:1;" d="M 15.203125 13.320312 L 17.683594 10.835938 L 24.3125 15.976562 L 20.042969 20.074219 Z M 15.203125 13.320312 "/>
<path style=" stroke:none;fill-rule:nonzero;fill:url(#linear5);" d="M 34.429688 46.796875 C 25.5 46.796875 18.257812 39.554688 18.257812 30.625 C 18.257812 23.734375 22.570312 17.851562 28.644531 15.527344 L 28.136719 13.207031 C 21.007812 15.78125 15.910156 22.609375 15.910156 30.625 C 15.910156 40.851562 24.203125 49.144531 34.429688 49.144531 C 42.410156 49.144531 49.207031 44.097656 51.8125 37.023438 L 49.535156 36.398438 C 47.210938 42.476562 41.328125 46.796875 34.429688 46.796875 Z M 34.429688 46.796875 "/>
<path style=" stroke:none;fill-rule:nonzero;fill:url(#linear6);" d="M 34.429688 47.035156 C 25.378906 47.035156 18.015625 39.675781 18.015625 30.625 C 18.015625 23.945312 22.167969 17.851562 28.367188 15.382812 C 28.328125 15.214844 28.222656 14.738281 28.125 14.292969 C 21.546875 16.816406 16.875 23.1875 16.875 30.65625 C 16.875 40.332031 24.722656 48.175781 34.398438 48.175781 C 41.84375 48.175781 48.203125 43.53125 50.742188 36.980469 C 50.3125 36.859375 49.847656 36.734375 49.671875 36.683594 C 47.207031 42.882812 41.113281 47.035156 34.429688 47.035156 Z M 34.429688 47.035156 "/>
<path style=" stroke:none;fill-rule:nonzero;fill:rgb(53.72549%,57.647059%,60.784314%);fill-opacity:1;" d="M 52.027344 36.914062 C 51.996094 36.851562 51.941406 36.808594 51.875 36.789062 L 49.597656 36.164062 C 49.488281 36.132812 49.375 36.1875 49.324219 36.289062 L 50.847656 36.710938 C 50.8125 36.800781 50.777344 36.890625 50.742188 36.980469 C 51.046875 37.0625 51.332031 37.140625 51.484375 37.183594 C 48.785156 44.203125 41.96875 48.902344 34.429688 48.902344 C 24.351562 48.902344 16.152344 40.703125 16.152344 30.625 C 16.152344 23.042969 20.886719 16.214844 27.960938 13.535156 C 27.996094 13.695312 28.058594 13.988281 28.125 14.292969 C 28.230469 14.253906 28.335938 14.210938 28.441406 14.171875 L 28.78125 15.71875 C 28.859375 15.664062 28.902344 15.570312 28.878906 15.472656 L 28.371094 13.152344 C 28.355469 13.085938 28.3125 13.027344 28.253906 12.992188 C 28.191406 12.960938 28.117188 12.953125 28.054688 12.976562 C 20.644531 15.65625 15.667969 22.746094 15.667969 30.625 C 15.667969 40.96875 24.085938 49.386719 34.429688 49.386719 C 42.257812 49.386719 49.335938 44.449219 52.039062 37.105469 C 52.0625 37.042969 52.058594 36.972656 52.027344 36.914062 Z M 52.027344 36.914062 "/>
<path style=" stroke:none;fill-rule:nonzero;fill:rgb(54.509804%,57.647059%,61.176471%);fill-opacity:1;" d="M 28.125 14.292969 C 28.222656 14.738281 28.328125 15.214844 28.367188 15.382812 C 22.167969 17.851562 18.015625 23.945312 18.015625 30.625 C 18.015625 39.675781 25.378906 47.035156 34.429688 47.035156 C 41.113281 47.035156 47.207031 42.882812 49.675781 36.683594 C 49.847656 36.734375 50.3125 36.859375 50.742188 36.980469 C 50.777344 36.890625 50.8125 36.800781 50.847656 36.710938 L 49.324219 36.289062 C 49.320312 36.296875 49.3125 36.300781 49.308594 36.308594 C 46.964844 42.4375 40.988281 46.554688 34.429688 46.554688 C 25.648438 46.554688 18.5 39.410156 18.5 30.625 C 18.5 24.074219 22.613281 18.097656 28.730469 15.75 C 28.75 15.742188 28.765625 15.730469 28.785156 15.71875 L 28.445312 14.171875 C 28.335938 14.210938 28.234375 14.253906 28.128906 14.292969 Z M 28.125 14.292969 "/>
<g clip-path="url(#clip1)" clip-rule="nonzero">
<g clip-path="url(#clip2)" clip-rule="nonzero">
<path style=" stroke:none;fill-rule:nonzero;fill:rgb(12.156863%,58.039216%,72.156863%);fill-opacity:1;" d="M 33.058594 46.675781 C 32.964844 46.613281 32.964844 46.601562 33.058594 46.539062 C 33.117188 46.5 33.207031 46.46875 33.257812 46.46875 C 33.449219 46.46875 34.628906 46.027344 35.339844 45.695312 C 35.738281 45.511719 36.089844 45.359375 36.125 45.359375 C 36.15625 45.359375 36.183594 45.421875 36.183594 45.496094 C 36.183594 45.664062 35.90625 46.539062 35.816406 46.660156 C 35.734375 46.765625 33.21875 46.78125 33.058594 46.675781 Z M 36.570312 46.542969 C 36.53125 46.480469 37.0625 44.796875 37.179688 44.613281 C 37.207031 44.566406 37.535156 44.351562 37.90625 44.136719 C 38.707031 43.667969 39.558594 43.089844 40.039062 42.683594 L 40.386719 42.394531 L 41.601562 42.425781 C 42.699219 42.453125 44.773438 42.328125 45.441406 42.191406 C 45.753906 42.128906 45.671875 42.3125 45.199219 42.726562 C 43.050781 44.609375 40.339844 45.933594 37.539062 46.472656 C 36.753906 46.625 36.625 46.632812 36.570312 46.542969 Z M 30.898438 46.402344 C 30.570312 46.332031 29.816406 46.113281 29.222656 45.914062 L 28.140625 45.546875 L 27.832031 45.125 C 26.410156 43.15625 25.378906 40.039062 25.230469 37.242188 L 25.1875 36.457031 L 25.355469 36.507812 C 25.445312 36.535156 25.660156 36.628906 25.832031 36.714844 C 26.917969 37.261719 28.480469 37.832031 29.367188 38.007812 C 29.546875 38.042969 29.878906 38.214844 30.199219 38.4375 C 31.097656 39.0625 32.074219 39.628906 33.171875 40.160156 C 34.597656 40.851562 34.964844 41.007812 35.976562 41.335938 C 36.453125 41.488281 36.871094 41.644531 36.90625 41.679688 C 37.035156 41.804688 36.585938 44.375 36.398438 44.597656 C 36.1875 44.851562 34.984375 45.558594 34.226562 45.878906 C 32.65625 46.542969 32.03125 46.640625 30.898438 46.402344 Z M 26.910156 44.964844 C 24.835938 43.871094 22.605469 41.851562 21.273438 39.871094 C 19.589844 37.367188 18.667969 34.855469 18.300781 31.765625 C 18.273438 31.539062 18.285156 31.402344 18.328125 31.402344 C 18.367188 31.402344 18.511719 31.582031 18.652344 31.800781 C 19.765625 33.550781 21.402344 35.050781 23.332031 36.085938 L 23.855469 36.367188 L 24.011719 37.304688 C 24.347656 39.316406 24.898438 41 25.730469 42.554688 C 26.160156 43.359375 26.6875 44.179688 27.097656 44.671875 C 27.242188 44.851562 27.363281 45.015625 27.363281 45.039062 C 27.363281 45.113281 27.121094 45.078125 26.910156 44.964844 Z M 37.546875 43.535156 C 37.574219 43.449219 37.664062 43.066406 37.746094 42.683594 L 37.898438 41.992188 L 38.445312 41.910156 C 39.289062 41.785156 39.308594 41.785156 39.308594 42.003906 C 39.308594 42.199219 39.082031 42.445312 38.101562 43.304688 C 37.625 43.722656 37.460938 43.789062 37.546875 43.535156 Z M 43.132812 41.84375 C 42.996094 41.828125 42.449219 41.765625 41.914062 41.707031 C 41.378906 41.648438 40.917969 41.574219 40.886719 41.546875 C 40.855469 41.515625 41.058594 41.226562 41.339844 40.902344 C 41.621094 40.578125 41.945312 40.191406 42.058594 40.042969 C 42.171875 39.890625 42.445312 39.535156 42.667969 39.253906 C 43.269531 38.488281 43.710938 37.808594 44.152344 36.984375 C 44.429688 36.457031 44.601562 36.210938 44.746094 36.132812 C 45.773438 35.570312 46.949219 34.75 47.796875 33.996094 C 47.984375 33.828125 48.164062 33.695312 48.195312 33.695312 C 48.429688 33.695312 48.542969 37.28125 48.347656 38.484375 C 48.265625 39.003906 48.210938 39.140625 47.882812 39.636719 C 47.332031 40.476562 46.445312 41.554688 46.175781 41.710938 C 45.96875 41.835938 45.808594 41.851562 44.660156 41.859375 C 43.953125 41.867188 43.265625 41.859375 43.132812 41.84375 Z M 38.929688 41.214844 C 38.507812 41.121094 38.125 41.007812 38.082031 40.960938 C 38.023438 40.902344 38.019531 40.789062 38.0625 40.566406 C 38.097656 40.394531 38.144531 39.652344 38.171875 38.917969 C 38.207031 37.980469 38.246094 37.558594 38.308594 37.507812 C 38.355469 37.46875 38.796875 37.363281 39.285156 37.269531 C 40.578125 37.03125 41.617188 36.78125 42.328125 36.542969 C 42.671875 36.425781 42.976562 36.355469 43.007812 36.386719 C 43.105469 36.488281 41.871094 38.707031 40.953125 40.082031 C 40.28125 41.09375 40.019531 41.402344 39.839844 41.394531 C 39.757812 41.394531 39.347656 41.3125 38.929688 41.214844 Z M 36.394531 40.464844 C 35.078125 39.957031 33.179688 39.007812 32.28125 38.402344 C 31.363281 37.792969 31.148438 37.59375 32.09375 37.625 C 33.558594 37.675781 34.125 37.683594 35.832031 37.589844 L 37.238281 37.511719 L 37.140625 39.480469 C 37.128906 40.191406 37.09375 40.667969 37.050781 40.675781 C 37.015625 40.6875 36.71875 40.59375 36.394531 40.464844 Z M 48.871094 37.804688 C 48.851562 37.773438 48.882812 37.265625 48.941406 36.675781 C 49.015625 35.921875 49.039062 35.128906 49.015625 34.007812 L 48.984375 32.410156 L 49.789062 31.574219 C 50.230469 31.117188 50.625 30.730469 50.660156 30.714844 C 50.839844 30.640625 50.527344 33.300781 50.210938 34.558594 C 49.945312 35.609375 49.074219 37.859375 48.933594 37.859375 C 48.917969 37.859375 48.890625 37.835938 48.871094 37.804688 Z M 32.675781 36.707031 C 31.847656 36.65625 30.644531 36.535156 29.898438 36.425781 C 29.222656 36.328125 29.101562 36.289062 28.855469 36.089844 C 27.652344 35.113281 25.417969 32.609375 25.417969 32.234375 C 25.417969 31.914062 26.140625 29.011719 26.253906 28.878906 C 26.28125 28.847656 26.726562 28.734375 27.242188 28.625 C 29.089844 28.234375 31.546875 27.492188 32.824219 26.9375 C 33.046875 26.839844 33.527344 26.632812 33.886719 26.476562 C 34.246094 26.320312 34.566406 26.214844 34.59375 26.246094 C 34.699219 26.355469 35.488281 28.414062 35.796875 29.390625 C 36.082031 30.296875 36.4375 31.726562 36.703125 33.035156 C 36.8125 33.574219 36.980469 34.785156 37.074219 35.742188 C 37.109375 36.085938 37.152344 36.414062 37.164062 36.472656 C 37.1875 36.550781 37.09375 36.585938 36.738281 36.617188 C 36.144531 36.675781 33.207031 36.738281 32.675781 36.707031 Z M 38.171875 36.414062 C 38.152344 36.382812 38.105469 35.96875 38.0625 35.496094 C 37.886719 33.433594 37.703125 32.339844 37.257812 30.683594 C 36.898438 29.34375 36.433594 28.054688 35.835938 26.71875 C 35.605469 26.207031 35.421875 25.726562 35.421875 25.648438 C 35.421875 25.425781 35.597656 25.289062 36.5 24.808594 C 38.714844 23.628906 40.316406 22.601562 41.164062 21.804688 C 41.328125 21.648438 41.425781 21.605469 41.550781 21.636719 C 41.644531 21.660156 42.058594 22.054688 42.488281 22.53125 C 43.675781 23.839844 44.3125 24.652344 45.132812 25.910156 L 45.433594 26.367188 L 45.390625 27.410156 C 45.347656 28.414062 45.160156 30.125 45.007812 30.917969 C 44.851562 31.738281 44.417969 33.265625 44.050781 34.3125 L 43.867188 34.824219 L 43.441406 35.019531 C 42.953125 35.242188 41.367188 35.78125 40.707031 35.949219 C 40.273438 36.058594 38.347656 36.46875 38.253906 36.46875 C 38.226562 36.46875 38.191406 36.445312 38.171875 36.414062 Z M 26.097656 35.601562 C 25.648438 35.476562 25.257812 35.355469 25.222656 35.335938 C 25.1875 35.3125 25.171875 34.960938 25.1875 34.546875 C 25.21875 33.738281 25.25 33.484375 25.332031 33.488281 C 25.359375 33.488281 25.539062 33.695312 25.730469 33.949219 C 26.109375 34.453125 26.582031 35.003906 27.066406 35.515625 L 27.378906 35.847656 L 27.144531 35.839844 C 27.015625 35.835938 26.542969 35.726562 26.097656 35.601562 Z M 22.773438 34.335938 C 21.394531 33.589844 20.363281 32.855469 19.4375 31.953125 C 18.742188 31.269531 18.273438 30.671875 18.222656 30.390625 C 18.164062 30.082031 18.222656 29.191406 18.304688 29.109375 C 18.339844 29.078125 18.613281 29.082031 18.921875 29.117188 C 19.226562 29.152344 20.164062 29.191406 21.003906 29.199219 L 22.535156 29.21875 L 22.882812 29.910156 C 23.074219 30.292969 23.394531 30.890625 23.59375 31.242188 L 23.957031 31.882812 L 23.890625 32.703125 C 23.851562 33.152344 23.820312 33.808594 23.820312 34.164062 C 23.820312 34.628906 23.796875 34.804688 23.734375 34.804688 C 23.683594 34.804688 23.253906 34.59375 22.773438 34.335938 Z M 45.355469 33.878906 C 45.355469 33.789062 45.433594 33.484375 45.53125 33.203125 C 45.808594 32.398438 46.277344 30.019531 46.367188 28.992188 C 46.390625 28.675781 46.441406 28.417969 46.472656 28.417969 C 46.6875 28.417969 48.144531 32 48.039062 32.269531 C 47.980469 32.414062 45.546875 34.039062 45.382812 34.039062 C 45.367188 34.039062 45.355469 33.96875 45.355469 33.878906 Z M 48.667969 31.558594 C 48.648438 31.53125 48.554688 31.210938 48.453125 30.847656 C 48.007812 29.242188 47.414062 27.6875 46.753906 26.402344 C 46.339844 25.601562 46.300781 25.480469 46.214844 24.808594 C 45.945312 22.734375 45.410156 20.875 44.621094 19.253906 C 44.167969 18.324219 44.167969 18.324219 44.304688 18.1875 C 44.503906 17.988281 44.636719 18.066406 45.523438 18.914062 C 47.523438 20.820312 48.90625 22.917969 49.824219 25.429688 C 50.15625 26.335938 50.34375 27.09375 50.53125 28.277344 C 50.6875 29.257812 50.6875 29.292969 50.566406 29.5625 C 50.347656 30.058594 48.761719 31.722656 48.667969 31.558594 Z M 23.796875 29.757812 C 23.332031 28.890625 23.363281 28.730469 23.964844 28.945312 C 24.15625 29.015625 24.339844 29.105469 24.375 29.148438 C 24.414062 29.191406 24.398438 29.445312 24.339844 29.773438 C 24.285156 30.078125 24.238281 30.335938 24.238281 30.34375 C 24.238281 30.355469 24.210938 30.359375 24.175781 30.359375 C 24.144531 30.359375 23.972656 30.089844 23.796875 29.757812 Z M 19.234375 28.285156 L 18.4375 28.242188 L 18.414062 28.046875 C 18.328125 27.308594 19.191406 24.710938 20.007812 23.238281 C 20.449219 22.445312 20.609375 22.21875 20.695312 22.273438 C 20.722656 22.292969 20.769531 22.515625 20.796875 22.773438 C 20.90625 23.835938 21.433594 25.957031 21.917969 27.289062 C 22.167969 27.980469 22.210938 28.171875 22.140625 28.21875 C 22.089844 28.25 21.777344 28.277344 21.449219 28.277344 C 21.121094 28.277344 20.667969 28.289062 20.441406 28.304688 C 20.21875 28.316406 19.671875 28.308594 19.234375 28.285156 Z M 22.9375 28.054688 C 22.808594 27.847656 22.53125 27.121094 22.148438 25.988281 C 21.753906 24.816406 21.492188 23.773438 21.179688 22.113281 L 21.03125 21.328125 L 21.414062 20.816406 C 22.257812 19.699219 23.578125 18.46875 24.894531 17.574219 C 25.714844 17.019531 26.605469 16.515625 26.746094 16.527344 C 26.996094 16.546875 28.609375 17.757812 29.648438 18.707031 L 30.15625 19.171875 L 29.75 19.609375 C 27.640625 21.894531 26.074219 24.402344 25.070312 27.113281 C 24.90625 27.558594 24.722656 27.941406 24.667969 27.964844 C 24.558594 28.003906 23.414062 28.136719 23.144531 28.136719 C 23.0625 28.140625 22.96875 28.101562 22.9375 28.054688 Z M 26.667969 27.410156 C 26.667969 27.238281 27.488281 25.375 27.933594 24.527344 C 28.757812 22.980469 30.597656 20.296875 30.835938 20.296875 C 30.980469 20.296875 32.101562 21.710938 32.839844 22.824219 C 33.390625 23.652344 34.15625 24.976562 34.117188 25.039062 C 34.074219 25.117188 33.371094 25.433594 32.324219 25.851562 C 30.761719 26.472656 29.292969 26.949219 27.828125 27.3125 C 26.898438 27.542969 26.667969 27.5625 26.667969 27.410156 Z M 34.882812 24.511719 C 34.847656 24.464844 34.699219 24.222656 34.550781 23.972656 C 33.800781 22.699219 32.808594 21.335938 31.894531 20.3125 C 31.578125 19.960938 31.320312 19.613281 31.320312 19.539062 C 31.320312 19.359375 32.339844 18.40625 33.316406 17.679688 C 34.371094 16.890625 34.332031 16.90625 34.902344 17.132812 C 36.679688 17.84375 38.550781 18.894531 39.960938 19.980469 C 40.261719 20.210938 40.597656 20.460938 40.707031 20.535156 C 40.816406 20.613281 40.898438 20.707031 40.882812 20.746094 C 40.792969 21.042969 37.601562 23.214844 35.769531 24.230469 C 35.0625 24.625 34.988281 24.644531 34.882812 24.511719 Z M 45.109375 23.710938 C 45.066406 23.683594 44.785156 23.347656 44.484375 22.96875 C 44.179688 22.585938 43.5625 21.894531 43.113281 21.433594 C 42.597656 20.902344 42.296875 20.539062 42.296875 20.445312 C 42.296875 20.3125 42.585938 20.066406 43.765625 19.191406 C 43.886719 19.105469 43.910156 19.128906 44.09375 19.539062 C 44.535156 20.515625 45.089844 22.441406 45.183594 23.332031 C 45.234375 23.777344 45.230469 23.796875 45.109375 23.710938 Z M 41.503906 19.953125 C 41.429688 19.835938 40.101562 18.855469 39.390625 18.394531 C 38.402344 17.753906 36.496094 16.789062 35.640625 16.492188 C 35.316406 16.382812 35.21875 16.25 35.34375 16.101562 C 35.460938 15.957031 36.519531 15.519531 37.441406 15.226562 L 38.246094 14.96875 L 38.691406 15.085938 C 39.511719 15.296875 40.796875 15.789062 41.65625 16.21875 L 42.507812 16.644531 L 43.0625 17.390625 C 43.367188 17.800781 43.617188 18.15625 43.617188 18.183594 C 43.617188 18.25 42.097656 19.746094 41.882812 19.894531 C 41.6875 20.027344 41.5625 20.046875 41.503906 19.953125 Z M 30.269531 18.652344 C 29.992188 18.316406 28.367188 17.011719 27.484375 16.414062 C 27.300781 16.292969 27.152344 16.164062 27.152344 16.132812 C 27.152344 16.011719 27.351562 15.925781 27.988281 15.777344 C 28.625 15.628906 28.6875 15.625 29.792969 15.707031 C 31.46875 15.832031 33.414062 16.214844 33.496094 16.433594 C 33.546875 16.566406 33.480469 16.640625 33.023438 16.929688 C 32.476562 17.273438 31.375 18.089844 30.949219 18.46875 C 30.585938 18.789062 30.421875 18.832031 30.269531 18.652344 Z M 43.652344 17.535156 C 43.34375 17.082031 43.46875 16.953125 43.886719 17.296875 C 44.070312 17.449219 44.109375 17.523438 44.074219 17.644531 C 44 17.867188 43.851562 17.828125 43.652344 17.535156 Z M 33.820312 15.910156 C 33.34375 15.746094 31.390625 15.382812 30.695312 15.328125 C 29.777344 15.257812 29.585938 15.222656 29.585938 15.121094 C 29.585938 15.011719 30.164062 14.878906 31.425781 14.691406 C 32.109375 14.589844 32.746094 14.570312 34.949219 14.566406 C 36.800781 14.566406 37.660156 14.589844 37.710938 14.640625 C 37.820312 14.753906 37.6875 14.832031 37.160156 14.976562 C 36.691406 15.101562 35 15.800781 34.761719 15.964844 C 34.582031 16.089844 34.289062 16.070312 33.820312 15.910156 Z M 33.820312 15.910156 "/>
</g>
</g>
</g>
</svg>
