
<svg xmlns="http://www.w3.org/2000/svg" xmlns:xlink="http://www.w3.org/1999/xlink" width="64px" height="64px" viewBox="0 0 64 64" version="1.1">
<g id="surface1">
<path style=" stroke:none;fill-rule:nonzero;fill:rgb(0%,40%,50.196078%);fill-opacity:1;" d="M 12.449219 5.050781 L 51.71875 5.050781 C 55.863281 5.050781 59.21875 8.410156 59.21875 12.550781 L 59.21875 51.820312 C 59.21875 55.964844 55.863281 59.320312 51.71875 59.320312 L 12.449219 59.320312 C 8.308594 59.320312 4.949219 55.964844 4.949219 51.820312 L 4.949219 12.550781 C 4.949219 8.410156 8.308594 5.050781 12.449219 5.050781 Z M 12.449219 5.050781 "/>
<path style="fill:none;stroke-width:1.680285;stroke-linecap:butt;stroke-linejoin:round;stroke:rgb(33.333333%,86.666667%,100%);stroke-opacity:1;stroke-miterlimit:4;" d="M 9.898438 66.53125 L 31.953125 66.53125 L 35.539062 28.609375 L 37.335938 80.46875 L 39.132812 46.617188 L 42.71875 110.34375 L 46.3125 19.101562 L 48.40625 98.390625 L 49.90625 46.617188 L 51.914062 60.5625 L 55.289062 32.679688 L 57.085938 102.375 L 58.882812 50.601562 L 62.414062 80.46875 L 64.265625 54.585938 L 66.0625 66.53125 L 66.0625 29.96875 L 69.65625 84.453125 L 73.25 54.585938 L 75.046875 66.53125 L 118.429688 66.53125 " transform="matrix(0.5,0,0,0.5,0,0)"/>
</g>
</svg>
