
<svg xmlns="http://www.w3.org/2000/svg" xmlns:xlink="http://www.w3.org/1999/xlink" width="64px" height="64px" viewBox="0 0 64 64" version="1.1">
<g id="surface1">
<path style="fill-rule:nonzero;fill:rgb(100%,100%,100%);fill-opacity:1;stroke-width:3.6;stroke-linecap:butt;stroke-linejoin:miter;stroke:rgb(58.823529%,85.098039%,32.54902%);stroke-opacity:1;stroke-miterlimit:4;" d="M 50.851562 112.03125 C 38.46875 108.78125 29.484375 100.828125 25.632812 89.710938 L 24.765625 86.039062 L 24.0625 63.664062 C 23.296875 39.335938 23.734375 39.242188 21.320312 37.34375 C 20.34375 36.578125 19.609375 36.429688 16.734375 36.429688 C 14.851562 36.421875 12.320312 36.304688 11.101562 36.15625 L 8.882812 35.890625 L 8.882812 16.070312 L 48.851562 16.265625 C 92.453125 16.46875 91.054688 16.390625 97.5625 18.945312 C 105.773438 22.171875 112.96875 28.890625 116.460938 36.601562 C 119.140625 42.515625 119.085938 41.773438 119.289062 74.695312 C 119.453125 101.945312 119.40625 104.859375 118.78125 106.070312 C 117.601562 108.351562 115.070312 110.828125 112.859375 111.859375 L 110.75 112.84375 L 82.28125 112.820312 C 56.03125 112.804688 53.578125 112.742188 50.851562 112.03125 Z M 92.039062 98.9375 C 101.101562 97.984375 108.09375 90.992188 109.328125 81.640625 C 109.632812 79.34375 109.726562 73.070312 109.601562 63.90625 C 109.359375 46.882812 109.289062 46.539062 104.679688 41.875 C 101.25 38.414062 98.59375 37.273438 93.929688 37.273438 C 90.25 37.273438 87.625 38 84.859375 39.78125 L 82.8125 41.09375 L 79.335938 39.289062 C 75.890625 37.5 75.84375 37.484375 71.375 37.484375 C 67.507812 37.484375 66.601562 37.625 64.859375 38.484375 C 61.859375 39.960938 58.84375 43.132812 57.273438 46.445312 L 55.914062 49.3125 L 55.796875 62.289062 L 55.671875 75.273438 L 65.40625 75.273438 L 65.40625 63.34375 C 65.414062 52.1875 65.46875 51.328125 66.25 50.046875 C 68.148438 46.921875 72.554688 45.953125 75.09375 48.09375 C 77.59375 50.203125 77.640625 50.460938 77.640625 63.429688 L 77.640625 75.273438 L 87.257812 75.273438 L 87.40625 63.0625 C 87.546875 51.429688 87.59375 50.789062 88.4375 49.65625 C 91.164062 46 96.210938 45.976562 98.804688 49.617188 C 99.78125 50.992188 99.789062 51.0625 99.914062 66.09375 L 100.046875 81.195312 L 98.882812 83.328125 C 97.578125 85.734375 95.554688 87.507812 92.546875 88.898438 C 90.523438 89.835938 90.34375 89.84375 71.640625 89.757812 C 50.695312 89.671875 51.367188 89.757812 48.304688 86.78125 C 47.445312 85.945312 46.296875 84.296875 45.742188 83.117188 L 44.75 80.976562 L 44.742188 28.953125 L 41.515625 28.679688 C 39.734375 28.53125 37.648438 28.40625 36.875 28.40625 L 35.460938 28.40625 L 35.484375 50.890625 C 35.507812 63.257812 35.65625 76.132812 35.828125 79.5 C 36.125 85.328125 36.203125 85.742188 37.53125 88.226562 C 39.125 91.226562 42.789062 95.101562 45.5625 96.734375 C 49.632812 99.117188 51.296875 99.289062 70.679688 99.3125 C 80.421875 99.320312 90.03125 99.15625 92.039062 98.9375 Z M 92.039062 98.9375 " transform="matrix(0.5,0,0,0.5,0,0)"/>
<path style="fill-rule:nonzero;fill:rgb(58.823529%,85.098039%,32.54902%);fill-opacity:1;stroke-width:0.3;stroke-linecap:butt;stroke-linejoin:miter;stroke:rgb(58.823529%,85.098039%,32.54902%);stroke-opacity:1;stroke-miterlimit:4;" d="M 58.445312 99.109375 C 51.515625 98.953125 49.601562 98.648438 46.867188 97.296875 C 44.882812 96.320312 43.664062 95.40625 41.695312 93.4375 C 39.1875 90.921875 37.148438 87.851562 36.546875 85.710938 C 35.859375 83.226562 35.726562 78.351562 35.625 51.789062 L 35.539062 28.429688 L 35.96875 28.429688 C 36.648438 28.429688 43 28.851562 43.84375 28.953125 L 44.609375 29.046875 L 44.609375 80.859375 L 45.28125 82.304688 C 45.640625 83.09375 46.296875 84.265625 46.71875 84.914062 C 47.640625 86.296875 49.539062 88.171875 50.546875 88.679688 C 52.492188 89.664062 56.1875 89.828125 75.554688 89.757812 C 92.09375 89.703125 90.960938 89.773438 93.132812 88.679688 C 96.1875 87.148438 97.898438 85.414062 99.65625 82.09375 L 100.140625 81.171875 L 99.96875 66.9375 C 99.867188 58.757812 99.726562 52.265625 99.640625 51.6875 C 99.445312 50.390625 99.078125 49.695312 98.070312 48.6875 C 95.617188 46.234375 91.921875 46.226562 89.296875 48.65625 C 88.28125 49.601562 87.9375 50.1875 87.71875 51.414062 C 87.53125 52.429688 87.28125 62.53125 87.28125 69.039062 C 87.273438 71.453125 87.234375 73.828125 87.179688 74.320312 L 87.085938 75.21875 L 77.679688 75.21875 L 77.617188 63.882812 C 77.554688 52.101562 77.523438 51.546875 76.914062 50.125 C 76.546875 49.265625 75.101562 47.867188 74.085938 47.382812 C 73.125 46.921875 71.203125 46.804688 70.0625 47.140625 C 68.367188 47.632812 66.585938 49.046875 66.007812 50.34375 C 65.476562 51.546875 65.421875 52.75 65.328125 64.101562 L 65.242188 75.21875 L 55.671875 75.21875 L 55.742188 74.304688 C 55.78125 73.804688 55.851562 67.984375 55.898438 61.367188 L 55.984375 49.34375 L 57.046875 47.15625 C 58.640625 43.890625 60.585938 41.46875 62.953125 39.773438 C 64 39.03125 65.617188 38.179688 66.523438 37.898438 C 67.304688 37.65625 74.226562 37.53125 75.40625 37.734375 C 76.023438 37.84375 77.21875 38.359375 79.5 39.5 C 81.273438 40.382812 82.78125 41.109375 82.84375 41.109375 C 82.898438 41.109375 83.570312 40.710938 84.320312 40.21875 C 87.09375 38.421875 89.054688 37.734375 92.203125 37.4375 C 95.320312 37.140625 98.140625 37.578125 100.375 38.703125 C 102.234375 39.640625 104.671875 41.734375 106.492188 43.953125 C 109.21875 47.273438 109.453125 49.1875 109.46875 68.070312 C 109.476562 76.78125 109.429688 80.179688 109.296875 81.25 C 108.09375 90.609375 101.515625 97.539062 92.664062 98.765625 C 89.820312 99.15625 69.539062 99.359375 58.445312 99.109375 Z M 58.445312 99.109375 " transform="matrix(0.5,0,0,0.5,0,0)"/>
</g>
</svg>
