
<svg xmlns="http://www.w3.org/2000/svg" xmlns:xlink="http://www.w3.org/1999/xlink" width="64px" height="64px" viewBox="0 0 64 64" version="1.1">
<defs>
<clipPath id="clip1">
  <path d="M 3.875 17.875 L 60.125 17.875 L 60.125 46.125 L 3.875 46.125 Z M 3.875 17.875 "/>
</clipPath>
<clipPath id="clip2">
  <path d="M 10.765625 3.902344 L 53.234375 3.902344 C 57.023438 3.902344 60.097656 6.976562 60.097656 10.765625 L 60.097656 53.234375 C 60.097656 57.023438 57.023438 60.097656 53.234375 60.097656 L 10.765625 60.097656 C 6.976562 60.097656 3.902344 57.023438 3.902344 53.234375 L 3.902344 10.765625 C 3.902344 6.976562 6.976562 3.902344 10.765625 3.902344 Z M 10.765625 3.902344 "/>
</clipPath>
<clipPath id="clip3">
  <path d="M 4.125 17.875 L 60.125 17.875 L 60.125 60.125 L 4.125 60.125 Z M 4.125 17.875 "/>
</clipPath>
<clipPath id="clip4">
  <path d="M 10.765625 3.902344 L 53.234375 3.902344 C 57.023438 3.902344 60.097656 6.976562 60.097656 10.765625 L 60.097656 53.234375 C 60.097656 57.023438 57.023438 60.097656 53.234375 60.097656 L 10.765625 60.097656 C 6.976562 60.097656 3.902344 57.023438 3.902344 53.234375 L 3.902344 10.765625 C 3.902344 6.976562 6.976562 3.902344 10.765625 3.902344 Z M 10.765625 3.902344 "/>
</clipPath>
<clipPath id="clip5">
  <path d="M 3.875 5.875 L 60.125 5.875 L 60.125 60.125 L 3.875 60.125 Z M 3.875 5.875 "/>
</clipPath>
<clipPath id="clip6">
  <path d="M 10.765625 3.902344 L 53.234375 3.902344 C 57.023438 3.902344 60.097656 6.976562 60.097656 10.765625 L 60.097656 53.234375 C 60.097656 57.023438 57.023438 60.097656 53.234375 60.097656 L 10.765625 60.097656 C 6.976562 60.097656 3.902344 57.023438 3.902344 53.234375 L 3.902344 10.765625 C 3.902344 6.976562 6.976562 3.902344 10.765625 3.902344 Z M 10.765625 3.902344 "/>
</clipPath>
<clipPath id="clip7">
  <path d="M 3.875 17.875 L 46.375 17.875 L 46.375 46.125 L 3.875 46.125 Z M 3.875 17.875 "/>
</clipPath>
<clipPath id="clip8">
  <path d="M 10.765625 3.902344 L 53.234375 3.902344 C 57.023438 3.902344 60.097656 6.976562 60.097656 10.765625 L 60.097656 53.234375 C 60.097656 57.023438 57.023438 60.097656 53.234375 60.097656 L 10.765625 60.097656 C 6.976562 60.097656 3.902344 57.023438 3.902344 53.234375 L 3.902344 10.765625 C 3.902344 6.976562 6.976562 3.902344 10.765625 3.902344 Z M 10.765625 3.902344 "/>
</clipPath>
<clipPath id="clip9">
  <path d="M 18.125 32 L 60.125 32 L 60.125 60.125 L 18.125 60.125 Z M 18.125 32 "/>
</clipPath>
<clipPath id="clip10">
  <path d="M 10.765625 3.902344 L 53.234375 3.902344 C 57.023438 3.902344 60.097656 6.976562 60.097656 10.765625 L 60.097656 53.234375 C 60.097656 57.023438 57.023438 60.097656 53.234375 60.097656 L 10.765625 60.097656 C 6.976562 60.097656 3.902344 57.023438 3.902344 53.234375 L 3.902344 10.765625 C 3.902344 6.976562 6.976562 3.902344 10.765625 3.902344 Z M 10.765625 3.902344 "/>
</clipPath>
<clipPath id="clip11">
  <path d="M 32.125 3.875 L 46.375 3.875 L 46.375 18 L 32.125 18 Z M 32.125 3.875 "/>
</clipPath>
<clipPath id="clip12">
  <path d="M 10.765625 3.902344 L 53.234375 3.902344 C 57.023438 3.902344 60.097656 6.976562 60.097656 10.765625 L 60.097656 53.234375 C 60.097656 57.023438 57.023438 60.097656 53.234375 60.097656 L 10.765625 60.097656 C 6.976562 60.097656 3.902344 57.023438 3.902344 53.234375 L 3.902344 10.765625 C 3.902344 6.976562 6.976562 3.902344 10.765625 3.902344 Z M 10.765625 3.902344 "/>
</clipPath>
<clipPath id="clip13">
  <path d="M 18.125 3.875 L 32.25 3.875 L 32.25 18 L 18.125 18 Z M 18.125 3.875 "/>
</clipPath>
<clipPath id="clip14">
  <path d="M 10.765625 3.902344 L 53.234375 3.902344 C 57.023438 3.902344 60.097656 6.976562 60.097656 10.765625 L 60.097656 53.234375 C 60.097656 57.023438 57.023438 60.097656 53.234375 60.097656 L 10.765625 60.097656 C 6.976562 60.097656 3.902344 57.023438 3.902344 53.234375 L 3.902344 10.765625 C 3.902344 6.976562 6.976562 3.902344 10.765625 3.902344 Z M 10.765625 3.902344 "/>
</clipPath>
<clipPath id="clip15">
  <path d="M 46.25 3.875 L 58.375 3.875 L 58.375 4 L 46.25 4 Z M 46.25 3.875 "/>
</clipPath>
<clipPath id="clip16">
  <path d="M 10.765625 3.902344 L 53.234375 3.902344 C 57.023438 3.902344 60.097656 6.976562 60.097656 10.765625 L 60.097656 53.234375 C 60.097656 57.023438 57.023438 60.097656 53.234375 60.097656 L 10.765625 60.097656 C 6.976562 60.097656 3.902344 57.023438 3.902344 53.234375 L 3.902344 10.765625 C 3.902344 6.976562 6.976562 3.902344 10.765625 3.902344 Z M 10.765625 3.902344 "/>
</clipPath>
<clipPath id="clip17">
  <path d="M 46.25 3.875 L 60.125 3.875 L 60.125 18 L 46.25 18 Z M 46.25 3.875 "/>
</clipPath>
<clipPath id="clip18">
  <path d="M 10.765625 3.902344 L 53.234375 3.902344 C 57.023438 3.902344 60.097656 6.976562 60.097656 10.765625 L 60.097656 53.234375 C 60.097656 57.023438 57.023438 60.097656 53.234375 60.097656 L 10.765625 60.097656 C 6.976562 60.097656 3.902344 57.023438 3.902344 53.234375 L 3.902344 10.765625 C 3.902344 6.976562 6.976562 3.902344 10.765625 3.902344 Z M 10.765625 3.902344 "/>
</clipPath>
<clipPath id="clip19">
  <path d="M 32.125 3.875 L 46.375 3.875 L 46.375 4 L 32.125 4 Z M 32.125 3.875 "/>
</clipPath>
<clipPath id="clip20">
  <path d="M 10.765625 3.902344 L 53.234375 3.902344 C 57.023438 3.902344 60.097656 6.976562 60.097656 10.765625 L 60.097656 53.234375 C 60.097656 57.023438 57.023438 60.097656 53.234375 60.097656 L 10.765625 60.097656 C 6.976562 60.097656 3.902344 57.023438 3.902344 53.234375 L 3.902344 10.765625 C 3.902344 6.976562 6.976562 3.902344 10.765625 3.902344 Z M 10.765625 3.902344 "/>
</clipPath>
<clipPath id="clip21">
  <path d="M 18.125 3.875 L 32.25 3.875 L 32.25 4 L 18.125 4 Z M 18.125 3.875 "/>
</clipPath>
<clipPath id="clip22">
  <path d="M 10.765625 3.902344 L 53.234375 3.902344 C 57.023438 3.902344 60.097656 6.976562 60.097656 10.765625 L 60.097656 53.234375 C 60.097656 57.023438 57.023438 60.097656 53.234375 60.097656 L 10.765625 60.097656 C 6.976562 60.097656 3.902344 57.023438 3.902344 53.234375 L 3.902344 10.765625 C 3.902344 6.976562 6.976562 3.902344 10.765625 3.902344 Z M 10.765625 3.902344 "/>
</clipPath>
<clipPath id="clip23">
  <path d="M 5.625 3.875 L 18.25 3.875 L 18.25 4 L 5.625 4 Z M 5.625 3.875 "/>
</clipPath>
<clipPath id="clip24">
  <path d="M 10.765625 3.902344 L 53.234375 3.902344 C 57.023438 3.902344 60.097656 6.976562 60.097656 10.765625 L 60.097656 53.234375 C 60.097656 57.023438 57.023438 60.097656 53.234375 60.097656 L 10.765625 60.097656 C 6.976562 60.097656 3.902344 57.023438 3.902344 53.234375 L 3.902344 10.765625 C 3.902344 6.976562 6.976562 3.902344 10.765625 3.902344 Z M 10.765625 3.902344 "/>
</clipPath>
<clipPath id="clip25">
  <path d="M 4.125 3.875 L 18.25 3.875 L 18.25 18 L 4.125 18 Z M 4.125 3.875 "/>
</clipPath>
<clipPath id="clip26">
  <path d="M 10.765625 3.902344 L 53.234375 3.902344 C 57.023438 3.902344 60.097656 6.976562 60.097656 10.765625 L 60.097656 53.234375 C 60.097656 57.023438 57.023438 60.097656 53.234375 60.097656 L 10.765625 60.097656 C 6.976562 60.097656 3.902344 57.023438 3.902344 53.234375 L 3.902344 10.765625 C 3.902344 6.976562 6.976562 3.902344 10.765625 3.902344 Z M 10.765625 3.902344 "/>
</clipPath>
<clipPath id="clip27">
  <path d="M 3.875 5.375 L 4.25 5.375 L 4.25 18 L 3.875 18 Z M 3.875 5.375 "/>
</clipPath>
<clipPath id="clip28">
  <path d="M 10.765625 3.902344 L 53.234375 3.902344 C 57.023438 3.902344 60.097656 6.976562 60.097656 10.765625 L 60.097656 53.234375 C 60.097656 57.023438 57.023438 60.097656 53.234375 60.097656 L 10.765625 60.097656 C 6.976562 60.097656 3.902344 57.023438 3.902344 53.234375 L 3.902344 10.765625 C 3.902344 6.976562 6.976562 3.902344 10.765625 3.902344 Z M 10.765625 3.902344 "/>
</clipPath>
</defs>
<g id="surface1">
<path style="fill-rule:nonzero;fill:rgb(52.941176%,80.392157%,87.058824%);fill-opacity:1;stroke-width:56.900398;stroke-linecap:butt;stroke-linejoin:miter;stroke:rgb(83.137255%,36.862745%,30.980392%);stroke-opacity:1;stroke-miterlimit:4;" d="M 159.75 45.9375 L 864.25 45.9375 C 927.125 45.9375 978.0625 96.9375 978.0625 159.75 L 978.0625 864.25 C 978.0625 927.125 927.125 978.0625 864.25 978.0625 L 159.75 978.0625 C 96.9375 978.0625 45.9375 927.125 45.9375 864.25 L 45.9375 159.75 C 45.9375 96.9375 96.9375 45.9375 159.75 45.9375 Z M 159.75 45.9375 " transform="matrix(0.0625,0,0,0.0625,0,0)"/>
<g clip-path="url(#clip1)" clip-rule="nonzero">
<g clip-path="url(#clip2)" clip-rule="nonzero">
<path style=" stroke:none;fill-rule:nonzero;fill:rgb(71.372549%,19.215686%,17.254902%);fill-opacity:1;" d="M 60.308594 17.957031 L 46.265625 17.957031 L 46.265625 32 L 60.308594 32 Z M 32.21875 32 L 18.175781 32 L 18.175781 46.042969 L 32.21875 46.042969 Z M 18.175781 17.957031 L 4.132812 17.957031 L 4.132812 32 L 18.175781 32 Z M -6.507812 32 L -6.507812 32.003906 C -6.507812 34.753906 -6.1875 37.464844 -5.558594 40.179688 C -5.417969 40.792969 -5.261719 41.402344 -5.101562 41.980469 C -4.722656 43.335938 -4.265625 44.6875 -3.734375 46.042969 L 4.132812 46.042969 L 4.132812 32 Z M -6.507812 32 "/>
</g>
</g>
<g clip-path="url(#clip3)" clip-rule="nonzero">
<g clip-path="url(#clip4)" clip-rule="nonzero">
<path style=" stroke:none;fill-rule:nonzero;fill:rgb(50.980392%,17.647059%,21.568627%);fill-opacity:1;" d="M 46.265625 46.042969 L 46.265625 32 L 32.21875 32 L 32.21875 46.042969 Z M 32.21875 17.957031 L 18.175781 17.957031 L 18.175781 32 L 32.21875 32 Z M 69.109375 22.027344 C 68.730469 20.671875 68.269531 19.3125 67.738281 17.957031 L 60.308594 17.957031 L 60.308594 32 L 70.523438 32 C 70.519531 31.246094 70.496094 30.496094 70.445312 29.742188 C 70.410156 29.222656 70.367188 28.691406 70.308594 28.148438 C 70.292969 28 70.273438 27.835938 70.25 27.671875 C 70.089844 26.339844 69.847656 25 69.523438 23.628906 C 69.398438 23.101562 69.257812 22.566406 69.109375 22.027344 Z M 60.308594 46.042969 L 46.265625 46.042969 L 46.265625 60.085938 L 58.367188 60.085938 C 58.707031 59.773438 59.035156 59.453125 59.355469 59.125 C 59.675781 58.792969 59.992188 58.460938 60.308594 58.125 Z M 18.175781 46.042969 L 4.132812 46.042969 L 4.132812 58.585938 C 4.625 59.101562 5.128906 59.601562 5.652344 60.085938 L 18.175781 60.085938 Z M 18.175781 46.042969 "/>
</g>
</g>
<g clip-path="url(#clip5)" clip-rule="nonzero">
<g clip-path="url(#clip6)" clip-rule="nonzero">
<path style=" stroke:none;fill-rule:nonzero;fill:rgb(62.352941%,19.215686%,20.784314%);fill-opacity:1;" d="M 46.265625 32 L 46.265625 46.042969 L 60.308594 46.042969 L 60.308594 32 Z M 32.21875 46.042969 L 18.175781 46.042969 L 18.175781 60.085938 L 32.21875 60.085938 Z M 67.738281 17.957031 C 67.734375 17.941406 67.726562 17.921875 67.71875 17.902344 C 66.898438 15.835938 65.957031 13.894531 64.871094 12.050781 C 64.03125 10.636719 63.105469 9.277344 62.09375 7.988281 C 61.523438 7.265625 60.929688 6.5625 60.308594 5.890625 L 60.308594 5.886719 L 60.308594 17.957031 Z M 66.601562 48.65625 C 66.816406 48.207031 67.023438 47.75 67.226562 47.285156 C 67.246094 47.234375 67.269531 47.183594 67.289062 47.132812 C 67.304688 47.109375 67.3125 47.085938 67.324219 47.058594 C 67.46875 46.722656 67.613281 46.382812 67.746094 46.042969 L 60.308594 46.042969 L 60.308594 58.125 C 60.324219 58.105469 60.339844 58.089844 60.351562 58.074219 C 60.949219 57.414062 61.53125 56.726562 62.09375 56.007812 C 62.171875 55.910156 62.246094 55.808594 62.324219 55.707031 C 63.226562 54.527344 64.070312 53.277344 64.851562 51.957031 C 65.472656 50.898438 66.058594 49.796875 66.601562 48.65625 Z M 46.105469 67.71875 C 46.15625 67.695312 46.210938 67.675781 46.265625 67.65625 L 46.265625 60.085938 L 32.21875 60.085938 L 32.21875 70.519531 C 34.363281 70.507812 36.507812 70.296875 38.65625 69.894531 C 39.824219 69.671875 40.988281 69.394531 42.140625 69.066406 C 43.46875 68.6875 44.785156 68.238281 46.105469 67.71875 Z M -3.734375 46.042969 C -3.726562 46.0625 -3.71875 46.085938 -3.710938 46.105469 C -2.878906 48.191406 -1.925781 50.15625 -0.859375 51.957031 C 0.0898438 53.5625 1.113281 55.042969 2.234375 56.421875 C 2.839844 57.171875 3.46875 57.890625 4.132812 58.585938 L 4.132812 46.042969 Z M 16.722656 67.226562 C 17.207031 67.433594 17.691406 67.636719 18.175781 67.828125 L 18.175781 60.085938 L 5.652344 60.085938 C 5.746094 60.171875 5.839844 60.261719 5.933594 60.347656 C 6.542969 60.902344 7.175781 61.4375 7.800781 61.933594 C 9.199219 63.042969 10.664062 64.039062 12.210938 64.949219 C 13.015625 65.414062 13.828125 65.855469 14.660156 66.269531 C 14.675781 66.273438 14.683594 66.277344 14.691406 66.28125 C 14.941406 66.40625 15.1875 66.527344 15.394531 66.621094 C 15.792969 66.8125 16.144531 66.972656 16.5 67.128906 C 16.574219 67.160156 16.648438 67.191406 16.722656 67.226562 Z M 16.722656 67.226562 "/>
</g>
</g>
<g clip-path="url(#clip7)" clip-rule="nonzero">
<g clip-path="url(#clip8)" clip-rule="nonzero">
<path style=" stroke:none;fill-rule:nonzero;fill:rgb(83.137255%,36.862745%,30.980392%);fill-opacity:1;" d="M 46.265625 32 L 46.265625 17.957031 L 32.21875 17.957031 L 32.21875 32 Z M 4.132812 32 L 4.132812 46.042969 L 18.175781 46.042969 L 18.175781 32 Z M -3.730469 17.957031 C -4.269531 19.3125 -4.734375 20.667969 -5.113281 22.027344 C -5.691406 24.074219 -6.082031 26.082031 -6.296875 28.078125 C -6.332031 28.441406 -6.367188 28.777344 -6.394531 29.117188 C -6.472656 30.078125 -6.511719 31.039062 -6.507812 32 L 4.132812 32 L 4.132812 17.957031 Z M -3.730469 17.957031 "/>
</g>
</g>
<g clip-path="url(#clip9)" clip-rule="nonzero">
<g clip-path="url(#clip10)" clip-rule="nonzero">
<path style=" stroke:none;fill-rule:nonzero;fill:rgb(42.352941%,16.862745%,36.862745%);fill-opacity:1;" d="M 46.265625 60.085938 L 46.265625 46.042969 L 32.21875 46.042969 L 32.21875 60.085938 Z M 67.746094 46.042969 C 67.828125 45.839844 67.90625 45.636719 67.980469 45.433594 C 68.414062 44.296875 68.796875 43.148438 69.128906 41.980469 C 69.507812 40.628906 69.816406 39.25 70.042969 37.863281 C 70.101562 37.507812 70.15625 37.121094 70.214844 36.734375 C 70.289062 36.136719 70.359375 35.527344 70.40625 34.894531 C 70.414062 34.777344 70.425781 34.640625 70.4375 34.492188 C 70.488281 33.765625 70.515625 33.03125 70.523438 32.292969 C 70.523438 32.199219 70.523438 32.105469 70.523438 32.003906 L 70.523438 32 L 60.308594 32 L 60.308594 46.042969 Z M 51.703125 65.019531 C 51.839844 64.941406 51.976562 64.859375 52.117188 64.777344 C 53.570312 63.90625 54.945312 62.960938 56.226562 61.933594 C 56.96875 61.34375 57.679688 60.730469 58.367188 60.085938 L 46.265625 60.085938 L 46.265625 67.65625 C 48.183594 66.886719 49.996094 66.007812 51.703125 65.019531 Z M 32.164062 70.519531 C 32.183594 70.519531 32.199219 70.519531 32.21875 70.519531 L 32.21875 60.085938 L 18.175781 60.085938 L 18.175781 67.828125 C 18.449219 67.933594 18.71875 68.035156 18.992188 68.136719 C 19.183594 68.207031 19.359375 68.269531 19.53125 68.332031 C 20.433594 68.648438 21.335938 68.929688 22.1875 69.171875 C 22.882812 69.355469 23.523438 69.515625 24.160156 69.65625 C 24.800781 69.796875 25.445312 69.921875 26.070312 70.027344 C 26.148438 70.042969 26.230469 70.050781 26.289062 70.0625 C 27.238281 70.214844 28.175781 70.328125 29.117188 70.40625 C 30.136719 70.488281 31.15625 70.523438 32.164062 70.519531 Z M 32.164062 70.519531 "/>
</g>
</g>
<g clip-path="url(#clip11)" clip-rule="nonzero">
<g clip-path="url(#clip12)" clip-rule="nonzero">
<path style=" stroke:none;fill-rule:nonzero;fill:rgb(75.686275%,23.137255%,21.568627%);fill-opacity:1;" d="M 46.265625 17.957031 L 46.265625 3.914062 L 32.21875 3.914062 L 32.21875 17.957031 Z M 46.265625 17.957031 "/>
</g>
</g>
<g clip-path="url(#clip13)" clip-rule="nonzero">
<g clip-path="url(#clip14)" clip-rule="nonzero">
<path style=" stroke:none;fill-rule:nonzero;fill:rgb(91.372549%,57.647059%,38.039216%);fill-opacity:1;" d="M 18.175781 17.957031 L 32.21875 17.957031 L 32.21875 3.914062 L 18.175781 3.914062 Z M 18.175781 17.957031 "/>
</g>
</g>
<g clip-path="url(#clip15)" clip-rule="nonzero">
<g clip-path="url(#clip16)" clip-rule="nonzero">
<path style=" stroke:none;fill-rule:nonzero;fill:rgb(79.215686%,39.607843%,35.686275%);fill-opacity:1;" d="M 58.347656 3.914062 C 58.253906 3.828125 58.164062 3.746094 58.070312 3.660156 C 57.480469 3.125 56.871094 2.601562 56.207031 2.074219 C 55.230469 1.300781 54.171875 0.546875 53.0625 -0.160156 C 52.753906 -0.359375 52.441406 -0.554688 52.117188 -0.746094 C 51.285156 -1.246094 50.414062 -1.722656 49.503906 -2.183594 C 48.796875 -2.539062 48.054688 -2.886719 47.289062 -3.21875 C 46.945312 -3.363281 46.605469 -3.507812 46.265625 -3.644531 L 46.265625 3.914062 L 58.34375 3.914062 "/>
</g>
</g>
<g clip-path="url(#clip17)" clip-rule="nonzero">
<g clip-path="url(#clip18)" clip-rule="nonzero">
<path style=" stroke:none;fill-rule:nonzero;fill:rgb(81.176471%,27.058824%,26.666667%);fill-opacity:1;" d="M 60.308594 5.890625 C 59.675781 5.203125 59.027344 4.542969 58.347656 3.914062 L 46.265625 3.914062 L 46.265625 17.957031 L 60.308594 17.957031 L 60.308594 5.886719 "/>
</g>
</g>
<g clip-path="url(#clip19)" clip-rule="nonzero">
<g clip-path="url(#clip20)" clip-rule="nonzero">
<path style=" stroke:none;fill-rule:nonzero;fill:rgb(89.411765%,41.960784%,38.431373%);fill-opacity:1;" d="M 46.265625 -3.644531 C 45.902344 -3.789062 45.542969 -3.929688 45.179688 -4.0625 C 44.171875 -4.441406 43.160156 -4.777344 42.140625 -5.066406 C 39.730469 -5.757812 37.316406 -6.203125 34.894531 -6.394531 C 34.003906 -6.464844 33.109375 -6.503906 32.21875 -6.507812 L 32.21875 3.914062 L 46.265625 3.914062 Z M 46.265625 -3.644531 "/>
</g>
</g>
<g clip-path="url(#clip21)" clip-rule="nonzero">
<g clip-path="url(#clip22)" clip-rule="nonzero">
<path style=" stroke:none;fill-rule:nonzero;fill:rgb(87.45098%,52.941176%,45.490196%);fill-opacity:1;" d="M 32.21875 -6.507812 C 32.199219 -6.507812 32.183594 -6.507812 32.164062 -6.507812 C 28.855469 -6.519531 25.542969 -6.074219 22.1875 -5.144531 C 20.847656 -4.777344 19.511719 -4.332031 18.175781 -3.816406 L 18.175781 3.914062 L 32.21875 3.914062 Z M 32.21875 -6.507812 "/>
</g>
</g>
<g clip-path="url(#clip23)" clip-rule="nonzero">
<g clip-path="url(#clip24)" clip-rule="nonzero">
<path style=" stroke:none;fill-rule:nonzero;fill:rgb(92.941176%,63.921569%,44.705882%);fill-opacity:1;" d="M 18.175781 -3.816406 C 18.085938 -3.777344 17.996094 -3.746094 17.902344 -3.710938 C 15.996094 -2.953125 14.191406 -2.089844 12.484375 -1.113281 C 12.390625 -1.0625 12.300781 -1.007812 12.210938 -0.953125 C 10.644531 -0.0390625 9.167969 0.972656 7.785156 2.074219 C 7.046875 2.660156 6.339844 3.273438 5.65625 3.914062 L 18.175781 3.914062 Z M 18.175781 -3.816406 "/>
</g>
</g>
<g clip-path="url(#clip25)" clip-rule="nonzero">
<g clip-path="url(#clip26)" clip-rule="nonzero">
<path style=" stroke:none;fill-rule:nonzero;fill:rgb(82.745098%,33.333333%,30.588235%);fill-opacity:1;" d="M 18.175781 17.957031 L 18.175781 3.914062 L 5.65625 3.914062 C 5.132812 4.40625 4.625 4.910156 4.132812 5.429688 L 4.132812 17.957031 Z M 18.175781 17.957031 "/>
</g>
</g>
<g clip-path="url(#clip27)" clip-rule="nonzero">
<g clip-path="url(#clip28)" clip-rule="nonzero">
<path style=" stroke:none;fill-rule:nonzero;fill:rgb(85.882353%,52.54902%,39.215686%);fill-opacity:1;" d="M 4.132812 5.429688 C 3.972656 5.597656 3.8125 5.765625 3.660156 5.9375 C 3.167969 6.480469 2.691406 7.035156 2.234375 7.605469 C 1.109375 9 0.0820312 10.484375 -0.84375 12.050781 C -1.71875 13.535156 -2.507812 15.089844 -3.21875 16.71875 C -3.398438 17.128906 -3.566406 17.546875 -3.730469 17.957031 L 4.132812 17.957031 Z M 4.132812 5.429688 "/>
</g>
</g>
<path style=" stroke:none;fill-rule:nonzero;fill:rgb(100%,100%,100%);fill-opacity:1;" d="M 40.890625 26.125 C 41.246094 26.421875 41.421875 26.882812 41.421875 27.511719 L 41.421875 43.976562 L 51.109375 43.976562 L 51.109375 25.609375 C 51.109375 23.660156 50.53125 22.207031 49.375 21.253906 C 48.851562 20.820312 48.210938 20.484375 47.445312 20.25 C 47.257812 20.183594 47.113281 20.136719 47.015625 20.109375 C 46.84375 20.054688 46.6875 20.027344 46.542969 20.023438 L 12.890625 20.023438 L 12.890625 43.976562 L 22.328125 43.976562 L 22.328125 28.46875 C 22.328125 27.410156 22.527344 26.675781 22.917969 26.265625 C 23.3125 25.855469 23.957031 25.652344 24.859375 25.652344 C 25.582031 25.652344 26.132812 25.8125 26.503906 26.125 C 26.859375 26.421875 27.035156 26.882812 27.035156 27.511719 L 27.035156 43.976562 L 36.71875 43.976562 L 36.71875 28.46875 C 36.71875 27.410156 36.917969 26.675781 37.308594 26.265625 C 37.699219 25.855469 38.34375 25.652344 39.25 25.652344 C 39.992188 25.652344 40.539062 25.8125 40.890625 26.125 Z M 40.890625 26.125 "/>
</g>
</svg>
