
<svg xmlns="http://www.w3.org/2000/svg" xmlns:xlink="http://www.w3.org/1999/xlink" width="64px" height="64px" viewBox="0 0 64 64" version="1.1">
<g id="surface1">
<path style=" stroke:none;fill-rule:evenodd;fill:rgb(100%,100%,100%);fill-opacity:1;" d="M 11.214844 5.945312 L 52.953125 5.945312 C 55.65625 5.945312 57.847656 8.136719 57.847656 10.839844 L 57.847656 53.121094 C 57.847656 55.820312 55.65625 58.011719 52.953125 58.011719 L 11.214844 58.011719 C 8.511719 58.011719 6.324219 55.820312 6.324219 53.121094 L 6.324219 10.839844 C 6.324219 8.136719 8.511719 5.945312 11.214844 5.945312 Z M 11.214844 5.945312 "/>
<path style=" stroke:none;fill-rule:nonzero;fill:rgb(78.039216%,15.294118%,15.294118%);fill-opacity:1;" d="M 8.222656 61.207031 C 5.695312 60.65625 3.414062 58.351562 2.871094 55.804688 C 2.605469 54.539062 2.605469 9.628906 2.871094 8.363281 C 3.417969 5.785156 5.699219 3.5 8.28125 2.953125 C 9.546875 2.6875 54.457031 2.6875 55.71875 2.953125 C 58.300781 3.5 60.582031 5.785156 61.128906 8.363281 C 61.398438 9.628906 61.398438 54.539062 61.128906 55.804688 C 60.582031 58.382812 58.300781 60.664062 55.71875 61.210938 C 54.496094 61.472656 9.417969 61.464844 8.222656 61.207031 Z M 19.746094 51.203125 C 21.449219 50.761719 22.914062 49.597656 23.734375 48.035156 C 24.421875 46.726562 25.238281 46.144531 26.386719 46.144531 C 27.4375 46.144531 27.933594 46.378906 28.8125 47.28125 C 30.191406 48.699219 31.410156 49.476562 33.210938 50.089844 C 35.796875 50.96875 38.8125 50.773438 41.226562 49.566406 C 43.320312 48.523438 44.882812 46.976562 45.871094 44.964844 C 46.632812 43.417969 46.945312 42.238281 47.027344 40.578125 C 47.136719 38.378906 46.691406 36.640625 45.53125 34.714844 C 45.042969 33.90625 45 33.773438 45 32.960938 C 45 32.308594 45.070312 31.941406 45.277344 31.519531 C 45.671875 30.722656 46.605469 29.820312 47.296875 29.570312 C 49.382812 28.816406 49.996094 28.367188 50.65625 27.109375 C 50.953125 26.546875 51 26.316406 50.996094 25.394531 C 50.992188 24.519531 50.9375 24.210938 50.667969 23.632812 C 49.9375 22.054688 48.792969 21.265625 47.101562 21.171875 C 46.164062 21.121094 46.011719 21.148438 45.285156 21.488281 C 44.183594 22 43.644531 22.519531 43.128906 23.546875 C 42.707031 24.398438 42.6875 24.480469 42.6875 25.820312 C 42.683594 27.378906 42.53125 27.871094 41.796875 28.707031 C 41.117188 29.488281 40.371094 29.894531 39.632812 29.894531 C 38.671875 29.894531 36.980469 29.675781 36.226562 29.457031 C 35.425781 29.222656 34.621094 28.546875 34.296875 27.832031 C 34.042969 27.277344 33.992188 26.101562 34.1875 25.394531 C 34.253906 25.148438 34.585938 24.625 34.925781 24.222656 C 36.132812 22.796875 36.726562 21.121094 36.726562 19.144531 C 36.726562 15.429688 34.546875 12.464844 30.960938 11.304688 C 29.617188 10.867188 27.5 10.847656 26.324219 11.257812 C 23.316406 12.308594 21.242188 14.570312 20.628906 17.460938 C 20.160156 19.675781 20.714844 22.101562 22.136719 24.035156 C 23.226562 25.523438 25.25 26.75 27.273438 27.15625 C 28.667969 27.4375 28.761719 27.480469 29.359375 28.144531 C 29.890625 28.734375 30.054688 29.082031 30.199219 29.945312 C 30.386719 31.054688 30.160156 31.65625 29.144531 32.746094 C 28.648438 33.277344 28.125 33.878906 27.980469 34.082031 C 27.363281 34.960938 26.65625 36.601562 26.300781 37.988281 C 25.878906 39.632812 25.605469 40.089844 24.730469 40.601562 C 24.265625 40.875 23.988281 40.941406 23.316406 40.949219 C 22.546875 40.957031 22.382812 40.90625 21.179688 40.292969 C 20.042969 39.714844 19.753906 39.621094 18.9375 39.5625 C 16.84375 39.414062 14.71875 40.375 13.558594 41.992188 C 12.949219 42.847656 12.4375 44.382812 12.4375 45.375 C 12.4375 46.886719 13.132812 48.554688 14.210938 49.632812 C 14.863281 50.285156 16.21875 51.070312 17.015625 51.257812 C 17.777344 51.4375 18.945312 51.414062 19.746094 51.203125 Z M 17 48.40625 C 16.371094 48.113281 15.636719 47.355469 15.371094 46.71875 C 14.9375 45.675781 15.199219 44.242188 15.996094 43.300781 C 16.617188 42.5625 17.347656 42.230469 18.363281 42.222656 C 19.117188 42.214844 19.347656 42.269531 19.832031 42.550781 C 20.886719 43.167969 21.507812 44.070312 21.636719 45.167969 C 21.792969 46.5 21.148438 47.691406 19.945312 48.300781 C 19.097656 48.730469 17.796875 48.777344 17 48.40625 Z M 35.628906 47.132812 C 33.632812 46.84375 32.0625 45.878906 30.867188 44.203125 C 30.015625 43.007812 29.664062 41.960938 29.59375 40.394531 C 29.542969 39.214844 29.570312 38.984375 29.867188 38.082031 C 30.910156 34.957031 33.746094 33.007812 37 33.179688 C 39.3125 33.300781 41.210938 34.445312 42.558594 36.527344 C 43.34375 37.742188 43.5 38.347656 43.5 40.144531 C 43.5 41.984375 43.324219 42.636719 42.480469 43.921875 C 40.9375 46.261719 38.273438 47.511719 35.628906 47.132812 Z M 45.804688 26.988281 C 45.078125 26.5 44.78125 25.9375 44.84375 25.171875 C 44.933594 24.050781 45.75 23.269531 46.839844 23.269531 C 47.589844 23.269531 48.070312 23.507812 48.523438 24.101562 C 48.820312 24.492188 48.871094 24.679688 48.875 25.359375 C 48.875 26.15625 48.871094 26.167969 48.289062 26.714844 C 47.730469 27.242188 47.667969 27.269531 46.964844 27.269531 C 46.402344 27.269531 46.125 27.203125 45.804688 26.988281 Z M 27.125 23.972656 C 25.804688 23.554688 24.550781 22.460938 23.984375 21.234375 C 23.65625 20.523438 23.625 20.339844 23.625 19.019531 C 23.625 17.703125 23.65625 17.523438 23.972656 16.875 C 24.441406 15.925781 25.6875 14.765625 26.648438 14.382812 C 27.242188 14.144531 27.617188 14.089844 28.6875 14.089844 C 29.875 14.082031 30.070312 14.117188 30.707031 14.429688 C 31.691406 14.914062 32.949219 16.261719 33.3125 17.226562 C 34.378906 20.039062 32.9375 23.019531 30.089844 23.898438 C 29.175781 24.179688 27.886719 24.210938 27.125 23.972656 Z M 27.125 23.972656 "/>
</g>
</svg>
