
<svg xmlns="http://www.w3.org/2000/svg" xmlns:xlink="http://www.w3.org/1999/xlink" width="64px" height="64px" viewBox="0 0 64 64" version="1.1">
<g id="surface1">
<path style="fill-rule:nonzero;fill:rgb(82.352941%,16.862745%,15.294118%);fill-opacity:1;stroke-width:28.097435;stroke-linecap:butt;stroke-linejoin:miter;stroke:rgb(27.843137%,27.45098%,27.45098%);stroke-opacity:1;stroke-miterlimit:4;" d="M 82.0625 25.875 L 429.9375 25.875 C 460.96875 25.875 486.125 51.03125 486.125 82.0625 L 486.125 429.9375 C 486.125 460.96875 460.96875 486.125 429.9375 486.125 L 82.0625 486.125 C 51.03125 486.125 25.875 460.96875 25.875 429.9375 L 25.875 82.0625 C 25.875 51.03125 51.03125 25.875 82.0625 25.875 Z M 82.0625 25.875 " transform="matrix(0.125,0,0,0.125,0,0)"/>
<path style=" stroke:none;fill-rule:nonzero;fill:rgb(0%,0%,0%);fill-opacity:1;" d="M 8.429688 26.007812 L 8.429688 39.492188 L 8.582031 39.46875 C 8.582031 39.46875 9.003906 39.410156 9.90625 39.308594 L 10.023438 39.292969 L 10.023438 39.171875 L 9.941406 30.367188 L 11.28125 39.039062 L 11.304688 39.167969 L 11.433594 39.152344 C 11.433594 39.152344 11.949219 39.089844 13.722656 38.914062 L 13.847656 38.898438 L 13.847656 26.011719 L 12.214844 26.011719 L 12.214844 26.148438 L 12.253906 35.445312 L 10.832031 26.125 L 10.8125 26.011719 L 10.699219 26.011719 L 8.5625 26.007812 L 8.429688 26.007812 M 21.148438 26.007812 L 18.101562 26.011719 L 17.964844 26.011719 L 17.964844 38.566406 L 18.109375 38.554688 C 18.109375 38.554688 18.890625 38.503906 21.148438 38.359375 L 21.273438 38.351562 L 21.273438 36.875 L 21.128906 36.882812 L 19.566406 36.992188 L 19.566406 33.042969 L 21.273438 33.042969 L 21.273438 31.542969 L 19.5625 31.542969 L 19.5625 27.5 L 21.28125 27.5 L 21.28125 26.007812 L 21.148438 26.007812 M 35.710938 26.007812 L 32.667969 26.011719 L 32.535156 26.011719 L 32.535156 37.992188 L 34.132812 37.992188 L 34.132812 33.042969 L 35.839844 33.042969 L 35.839844 31.546875 L 34.128906 31.546875 L 34.128906 27.5 L 35.84375 27.5 L 35.84375 26.011719 L 35.710938 26.011719 M 39.761719 26.011719 L 39.761719 38.085938 L 39.890625 38.089844 C 39.890625 38.089844 40.789062 38.113281 42.949219 38.210938 L 43.089844 38.214844 L 43.089844 36.753906 L 42.964844 36.742188 C 42.964844 36.742188 42.566406 36.714844 41.351562 36.671875 L 41.351562 26.011719 L 39.761719 26.011719 M 47.984375 26.011719 L 46.667969 26.015625 L 46.535156 26.015625 L 46.535156 38.402344 L 46.660156 38.414062 C 46.660156 38.414062 47.148438 38.441406 47.976562 38.5 L 48.121094 38.507812 L 48.121094 26.011719 L 47.984375 26.011719 M 52.195312 26.011719 L 52.230469 26.171875 L 53.359375 31.96875 L 52.261719 38.769531 L 52.242188 38.914062 L 52.382812 38.925781 L 53.796875 39.0625 L 53.929688 39.078125 L 53.945312 38.945312 L 54.582031 34.039062 L 55.203125 39.101562 L 55.21875 39.207031 L 55.320312 39.21875 L 56.875 39.394531 L 57.050781 39.417969 L 57.027344 39.238281 L 55.917969 32.136719 L 57.039062 26.171875 L 57.070312 26.011719 L 55.308594 26.011719 L 55.289062 26.125 L 54.632812 30.28125 L 53.949219 26.125 L 53.929688 26.011719 L 52.195312 26.011719 M 24.355469 26.015625 L 24.355469 27.5 L 25.792969 27.5 L 25.792969 38.144531 L 25.9375 38.132812 C 25.9375 38.132812 26.238281 38.105469 27.242188 38.082031 L 27.375 38.078125 L 27.375 37.945312 L 27.382812 27.5 L 28.832031 27.5 L 28.832031 26.015625 L 24.355469 26.015625 "/>
<path style=" stroke:none;fill-rule:nonzero;fill:rgb(100%,100%,100%);fill-opacity:1;" d="M 7.679688 25.257812 L 7.679688 38.742188 L 7.832031 38.71875 C 7.832031 38.71875 8.253906 38.660156 9.15625 38.558594 L 9.273438 38.542969 L 9.273438 38.421875 L 9.191406 29.617188 L 10.53125 38.289062 L 10.554688 38.417969 L 10.683594 38.402344 C 10.683594 38.402344 11.199219 38.339844 12.972656 38.164062 L 13.097656 38.148438 L 13.097656 25.261719 L 11.464844 25.261719 L 11.464844 25.398438 L 11.503906 34.695312 L 10.082031 25.375 L 10.0625 25.261719 L 9.949219 25.261719 L 7.8125 25.257812 L 7.679688 25.257812 M 20.398438 25.257812 L 17.351562 25.261719 L 17.214844 25.261719 L 17.214844 37.816406 L 17.359375 37.804688 C 17.359375 37.804688 18.140625 37.753906 20.398438 37.609375 L 20.523438 37.601562 L 20.523438 36.125 L 20.378906 36.132812 L 18.816406 36.242188 L 18.816406 32.292969 L 20.523438 32.292969 L 20.523438 30.792969 L 18.8125 30.792969 L 18.8125 26.75 L 20.53125 26.75 L 20.53125 25.257812 L 20.398438 25.257812 M 34.960938 25.257812 L 31.917969 25.261719 L 31.785156 25.261719 L 31.785156 37.242188 L 33.382812 37.242188 L 33.382812 32.292969 L 35.089844 32.292969 L 35.089844 30.796875 L 33.378906 30.796875 L 33.378906 26.75 L 35.09375 26.75 L 35.09375 25.261719 L 34.960938 25.261719 M 39.011719 25.261719 L 39.011719 37.335938 L 39.140625 37.339844 C 39.140625 37.339844 40.039062 37.363281 42.199219 37.460938 L 42.339844 37.464844 L 42.339844 36.003906 L 42.214844 35.992188 C 42.214844 35.992188 41.816406 35.964844 40.601562 35.921875 L 40.601562 25.261719 L 39.011719 25.261719 M 47.234375 25.261719 L 45.917969 25.265625 L 45.785156 25.265625 L 45.785156 37.652344 L 45.910156 37.664062 C 45.910156 37.664062 46.398438 37.691406 47.226562 37.75 L 47.371094 37.757812 L 47.371094 25.261719 L 47.234375 25.261719 M 51.445312 25.261719 L 51.480469 25.421875 L 52.609375 31.21875 L 51.511719 38.019531 L 51.492188 38.164062 L 51.632812 38.175781 L 53.046875 38.3125 L 53.179688 38.328125 L 53.195312 38.195312 L 53.832031 33.289062 L 54.453125 38.351562 L 54.46875 38.457031 L 54.570312 38.46875 L 56.125 38.644531 L 56.300781 38.667969 L 56.277344 38.488281 L 55.167969 31.386719 L 56.289062 25.421875 L 56.320312 25.261719 L 54.558594 25.261719 L 54.539062 25.375 L 53.882812 29.53125 L 53.199219 25.375 L 53.179688 25.261719 L 51.445312 25.261719 M 23.605469 25.265625 L 23.605469 26.75 L 25.042969 26.75 L 25.042969 37.394531 L 25.1875 37.382812 C 25.1875 37.382812 25.488281 37.355469 26.492188 37.332031 L 26.625 37.328125 L 26.625 37.195312 L 26.632812 26.75 L 28.082031 26.75 L 28.082031 25.265625 L 23.605469 25.265625 "/>
</g>
</svg>
