
<svg xmlns="http://www.w3.org/2000/svg" xmlns:xlink="http://www.w3.org/1999/xlink" width="64px" height="64px" viewBox="0 0 64 64" version="1.1">
<g id="surface1">
<path style="fill-rule:nonzero;fill:rgb(92.54902%,92.54902%,92.54902%);fill-opacity:1;stroke-width:53.405071;stroke-linecap:butt;stroke-linejoin:miter;stroke:rgb(0%,66.666667%,83.137255%);stroke-opacity:1;stroke-miterlimit:4;" d="M 181.375 74.5625 L 842.625 74.5625 C 901.625 74.5625 949.4375 122.4375 949.4375 181.375 L 949.4375 842.625 C 949.4375 901.625 901.625 949.4375 842.625 949.4375 L 181.375 949.4375 C 122.4375 949.4375 74.5625 901.625 74.5625 842.625 L 74.5625 181.375 C 74.5625 122.4375 122.4375 74.5625 181.375 74.5625 Z M 181.375 74.5625 " transform="matrix(0.0625,0,0,0.0625,0,0)"/>
<path style=" stroke:none;fill-rule:nonzero;fill:rgb(0%,0%,0%);fill-opacity:0.0980392;" d="M 49.863281 14.234375 C 49.847656 13.636719 49.632812 13.125 49.214844 12.699219 C 48.785156 12.261719 48.265625 12.042969 47.65625 12.042969 L 17.921875 12.042969 C 17.3125 12.042969 16.792969 12.261719 16.363281 12.699219 C 15.945312 13.125 15.730469 13.636719 15.71875 14.234375 L 15.71875 52.167969 C 15.71875 52.789062 15.933594 53.320312 16.363281 53.757812 C 16.792969 54.199219 17.3125 54.417969 17.921875 54.417969 L 47.65625 54.417969 C 48.265625 54.417969 48.785156 54.199219 49.214844 53.757812 C 49.644531 53.320312 49.863281 52.789062 49.863281 52.167969 Z M 49.863281 14.234375 "/>
<path style=" stroke:none;fill-rule:nonzero;fill:rgb(80%,80%,80%);fill-opacity:1;" d="M 49.570312 12.582031 C 49.132812 12.144531 48.601562 11.921875 47.980469 11.921875 L 17.652344 11.921875 C 17.03125 11.921875 16.5 12.144531 16.0625 12.582031 C 15.636719 13.007812 15.414062 13.519531 15.402344 14.117188 L 15.402344 14.113281 L 15.402344 46.710938 C 15.417969 47.304688 15.636719 47.816406 16.0625 48.242188 C 16.5 48.679688 17.03125 48.902344 17.652344 48.902344 L 47.980469 48.902344 C 48.601562 48.902344 49.132812 48.679688 49.570312 48.242188 C 49.996094 47.816406 50.21875 47.304688 50.230469 46.710938 L 50.230469 14.113281 L 50.230469 14.117188 C 50.21875 13.519531 49.996094 13.007812 49.570312 12.582031 Z M 49.570312 12.582031 "/>
<path style=" stroke:none;fill-rule:nonzero;fill:rgb(52.54902%,51.372549%,48.627451%);fill-opacity:0.988235;" d="M 16.0625 48.242188 C 15.636719 47.816406 15.417969 47.304688 15.402344 46.710938 L 15.402344 52.050781 C 15.402344 52.671875 15.625 53.203125 16.0625 53.640625 C 16.5 54.078125 17.03125 54.300781 17.652344 54.300781 L 47.980469 54.300781 C 48.601562 54.300781 49.132812 54.078125 49.570312 53.640625 C 50.011719 53.203125 50.230469 52.671875 50.230469 52.050781 L 50.230469 46.710938 C 50.21875 47.304688 49.996094 47.816406 49.570312 48.242188 C 49.132812 48.679688 48.601562 48.902344 47.980469 48.902344 L 17.652344 48.902344 C 17.03125 48.902344 16.5 48.679688 16.0625 48.242188 Z M 16.0625 48.242188 "/>
<path style=" stroke:none;fill-rule:nonzero;fill:rgb(23.137255%,22.745098%,21.176471%);fill-opacity:1;" d="M 32.5 50.59375 C 32.5 50.34375 32.410156 50.132812 32.234375 49.957031 C 32.058594 49.78125 31.847656 49.691406 31.597656 49.691406 L 18.011719 49.691406 C 17.761719 49.691406 17.550781 49.78125 17.375 49.957031 C 17.199219 50.132812 17.113281 50.34375 17.113281 50.59375 L 17.113281 50.960938 C 17.113281 51.210938 17.199219 51.421875 17.375 51.597656 C 17.550781 51.773438 17.761719 51.859375 18.011719 51.859375 L 31.597656 51.859375 C 31.847656 51.859375 32.058594 51.773438 32.234375 51.597656 C 32.410156 51.421875 32.5 51.210938 32.5 50.960938 Z M 32.5 50.59375 "/>
<path style=" stroke:none;fill-rule:nonzero;fill:rgb(0%,0%,0%);fill-opacity:0.2;" d="M 47.417969 50.328125 C 47.222656 50.132812 46.984375 50.035156 46.707031 50.035156 C 46.425781 50.035156 46.1875 50.132812 45.988281 50.328125 C 45.792969 50.527344 45.695312 50.765625 45.695312 51.042969 C 45.695312 51.324219 45.792969 51.5625 45.988281 51.757812 C 46.1875 51.957031 46.425781 52.054688 46.707031 52.054688 C 46.984375 52.054688 47.222656 51.957031 47.417969 51.757812 C 47.617188 51.5625 47.714844 51.324219 47.714844 51.042969 C 47.714844 50.765625 47.617188 50.527344 47.417969 50.328125 Z M 44.5 51.042969 C 44.5 50.765625 44.402344 50.527344 44.203125 50.328125 C 44.007812 50.132812 43.769531 50.035156 43.492188 50.035156 C 43.210938 50.035156 42.972656 50.132812 42.777344 50.328125 C 42.582031 50.527344 42.480469 50.765625 42.480469 51.042969 C 42.480469 51.324219 42.582031 51.5625 42.777344 51.757812 C 42.972656 51.957031 43.210938 52.054688 43.492188 52.054688 C 43.769531 52.054688 44.007812 51.957031 44.203125 51.757812 C 44.402344 51.5625 44.5 51.324219 44.5 51.042969 Z M 44.5 51.042969 "/>
<path style=" stroke:none;fill-rule:nonzero;fill:rgb(100%,100%,100%);fill-opacity:0.0980392;" d="M 40.839844 38.175781 C 43.214844 35.800781 44.402344 32.929688 44.402344 29.566406 C 44.402344 26.207031 43.214844 23.335938 40.839844 20.960938 C 38.460938 18.582031 35.59375 17.394531 32.230469 17.394531 C 28.867188 17.394531 26 18.582031 23.625 20.960938 C 21.246094 23.335938 20.058594 26.207031 20.058594 29.566406 C 20.058594 32.929688 21.246094 35.796875 23.625 38.175781 C 26 40.554688 28.867188 41.742188 32.230469 41.742188 C 35.59375 41.742188 38.460938 40.554688 40.839844 38.175781 Z M 40.839844 38.175781 "/>
<path style=" stroke:none;fill-rule:nonzero;fill:rgb(80%,80%,0%);fill-opacity:1;" d="M 46.492188 51.605469 C 46.769531 51.605469 47.007812 51.503906 47.203125 51.308594 C 47.402344 51.113281 47.5 50.875 47.5 50.59375 C 47.5 50.316406 47.402344 50.078125 47.203125 49.878906 C 47.007812 49.683594 46.769531 49.585938 46.492188 49.585938 C 46.210938 49.585938 45.972656 49.683594 45.777344 49.878906 C 45.582031 50.078125 45.480469 50.316406 45.480469 50.59375 C 45.480469 50.875 45.582031 51.113281 45.777344 51.308594 C 45.972656 51.503906 46.210938 51.605469 46.492188 51.605469 Z M 44.289062 50.59375 C 44.289062 50.316406 44.1875 50.078125 43.988281 49.878906 C 43.796875 49.683594 43.554688 49.585938 43.277344 49.585938 C 43 49.585938 42.761719 49.683594 42.5625 49.878906 C 42.367188 50.078125 42.269531 50.316406 42.269531 50.59375 C 42.269531 50.875 42.367188 51.113281 42.5625 51.308594 C 42.761719 51.503906 43 51.605469 43.277344 51.605469 C 43.554688 51.605469 43.796875 51.503906 43.988281 51.308594 C 44.1875 51.113281 44.289062 50.875 44.289062 50.59375 Z M 44.289062 50.59375 "/>
<path style=" stroke:none;fill-rule:nonzero;fill:rgb(100%,100%,100%);fill-opacity:1;" d="M 39.472656 29.539062 C 39.472656 25.660156 36.25 22.511719 32.277344 22.511719 C 28.300781 22.511719 25.078125 25.660156 25.078125 29.539062 C 25.078125 33.421875 28.300781 36.566406 32.277344 36.566406 C 36.25 36.566406 39.472656 33.421875 39.472656 29.539062 Z M 39.472656 29.539062 "/>
<path style=" stroke:none;fill-rule:nonzero;fill:rgb(52.54902%,56.470588%,58.039216%);fill-opacity:1;" d="M 30.734375 40.5625 C 30.539062 40.472656 30.332031 40.253906 30.242188 40.035156 C 30.195312 39.921875 30.148438 39.484375 30.105469 38.789062 C 30.074219 38.199219 30.027344 37.667969 30.007812 37.613281 C 29.980469 37.535156 29.84375 37.464844 29.507812 37.347656 C 29.253906 37.257812 28.871094 37.097656 28.65625 36.988281 C 28.441406 36.882812 28.222656 36.792969 28.164062 36.792969 C 28.101562 36.792969 27.753906 37.078125 27.253906 37.535156 C 26.8125 37.941406 26.375 38.3125 26.289062 38.355469 C 26.105469 38.449219 25.699219 38.464844 25.492188 38.386719 C 25.324219 38.324219 23.558594 36.585938 23.445312 36.371094 C 23.335938 36.160156 23.347656 35.761719 23.472656 35.523438 C 23.53125 35.414062 23.902344 34.96875 24.300781 34.539062 C 24.730469 34.074219 25.027344 33.710938 25.027344 33.652344 C 25.027344 33.597656 24.9375 33.378906 24.832031 33.164062 C 24.722656 32.953125 24.5625 32.570312 24.476562 32.316406 C 24.386719 32.0625 24.277344 31.835938 24.234375 31.816406 C 24.191406 31.792969 23.671875 31.746094 23.082031 31.714844 C 22.398438 31.675781 21.9375 31.628906 21.804688 31.582031 C 21.546875 31.488281 21.253906 31.179688 21.214844 30.953125 C 21.199219 30.863281 21.191406 30.191406 21.199219 29.460938 L 21.214844 28.132812 L 21.367188 27.941406 C 21.636719 27.601562 21.765625 27.566406 23.054688 27.488281 C 23.78125 27.445312 24.226562 27.398438 24.261719 27.359375 C 24.296875 27.328125 24.402344 27.078125 24.503906 26.800781 C 24.609375 26.527344 24.765625 26.152344 24.859375 25.96875 C 24.949219 25.785156 25.027344 25.59375 25.027344 25.542969 C 25.027344 25.492188 24.722656 25.117188 24.347656 24.710938 C 23.976562 24.300781 23.617188 23.898438 23.554688 23.8125 C 23.378906 23.578125 23.320312 23.289062 23.386719 23.003906 C 23.441406 22.789062 23.539062 22.671875 24.347656 21.851562 C 24.84375 21.347656 25.335938 20.894531 25.4375 20.84375 C 25.671875 20.722656 26.046875 20.71875 26.28125 20.839844 C 26.378906 20.890625 26.8125 21.253906 27.242188 21.648438 C 27.671875 22.042969 28.054688 22.382812 28.089844 22.402344 C 28.128906 22.425781 28.359375 22.34375 28.640625 22.210938 C 28.910156 22.082031 29.3125 21.917969 29.53125 21.84375 C 29.832031 21.742188 29.949219 21.679688 29.992188 21.589844 C 30.023438 21.523438 30.074219 20.988281 30.109375 20.398438 C 30.171875 19.265625 30.210938 19.085938 30.445312 18.84375 C 30.703125 18.570312 30.855469 18.546875 32.308594 18.566406 L 33.632812 18.578125 L 33.835938 18.714844 C 34.195312 18.953125 34.238281 19.097656 34.320312 20.359375 C 34.363281 20.96875 34.40625 21.515625 34.417969 21.574219 C 34.4375 21.65625 34.546875 21.71875 34.902344 21.839844 C 35.152344 21.929688 35.558594 22.101562 35.796875 22.222656 C 36.039062 22.34375 36.257812 22.441406 36.28125 22.441406 C 36.304688 22.441406 36.691406 22.105469 37.140625 21.691406 C 37.589844 21.277344 38.042969 20.898438 38.144531 20.84375 C 38.382812 20.71875 38.742188 20.71875 39.003906 20.847656 C 39.128906 20.90625 39.554688 21.292969 40.085938 21.832031 C 41 22.753906 41.074219 22.859375 41.074219 23.277344 C 41.074219 23.574219 40.941406 23.769531 40.15625 24.628906 C 39.730469 25.097656 39.378906 25.5 39.378906 25.523438 C 39.378906 25.550781 39.492188 25.800781 39.625 26.085938 C 39.761719 26.371094 39.925781 26.769531 39.988281 26.96875 C 40.066406 27.222656 40.132812 27.351562 40.203125 27.378906 C 40.257812 27.402344 40.808594 27.453125 41.425781 27.492188 C 42.652344 27.570312 42.851562 27.621094 43.058594 27.910156 C 43.25 28.183594 43.273438 28.386719 43.257812 29.726562 L 43.242188 31.003906 L 43.089844 31.21875 C 42.824219 31.601562 42.753906 31.621094 41.394531 31.707031 C 40.726562 31.75 40.171875 31.800781 40.15625 31.8125 C 40.144531 31.828125 40.058594 32.039062 39.972656 32.285156 C 39.886719 32.53125 39.714844 32.929688 39.59375 33.171875 C 39.472656 33.414062 39.378906 33.644531 39.390625 33.679688 C 39.398438 33.714844 39.730469 34.101562 40.125 34.535156 C 40.523438 34.96875 40.898438 35.421875 40.960938 35.542969 C 41.09375 35.800781 41.105469 36.074219 40.996094 36.335938 C 40.902344 36.5625 39.28125 38.207031 39.019531 38.34375 C 38.800781 38.457031 38.398438 38.46875 38.167969 38.367188 C 38.082031 38.332031 37.640625 37.960938 37.1875 37.546875 C 36.734375 37.132812 36.328125 36.792969 36.285156 36.792969 C 36.238281 36.792969 35.984375 36.898438 35.71875 37.023438 C 35.449219 37.148438 35.054688 37.308594 34.835938 37.378906 C 34.539062 37.476562 34.4375 37.53125 34.417969 37.613281 C 34.40625 37.667969 34.363281 38.214844 34.320312 38.828125 C 34.230469 40.167969 34.179688 40.3125 33.710938 40.550781 C 33.578125 40.621094 33.351562 40.632812 32.21875 40.628906 C 31.214844 40.628906 30.84375 40.609375 30.734375 40.5625 Z M 32.703125 34.601562 C 33.90625 34.472656 34.914062 33.992188 35.769531 33.136719 C 36.421875 32.480469 36.84375 31.75 37.097656 30.824219 C 37.257812 30.242188 37.257812 28.960938 37.097656 28.375 C 36.609375 26.59375 35.335938 25.28125 33.574219 24.753906 C 33.164062 24.628906 33.050781 24.617188 32.253906 24.613281 C 31.488281 24.609375 31.328125 24.625 30.957031 24.726562 C 29.101562 25.230469 27.683594 26.722656 27.296875 28.570312 C 26.949219 30.234375 27.457031 31.929688 28.671875 33.148438 C 29.304688 33.785156 30.128906 34.253906 31.023438 34.484375 C 31.277344 34.550781 31.636719 34.601562 32.152344 34.644531 C 32.195312 34.648438 32.441406 34.628906 32.703125 34.601562 Z M 31.464844 32.511719 C 30.195312 32.164062 29.304688 31.085938 29.226562 29.789062 C 29.171875 28.882812 29.464844 28.113281 30.105469 27.472656 C 31.277344 26.304688 33.152344 26.296875 34.308594 27.449219 C 35.261719 28.398438 35.492188 29.75 34.898438 30.9375 C 34.394531 31.949219 33.464844 32.546875 32.328125 32.589844 C 31.941406 32.605469 31.75 32.585938 31.464844 32.511719 Z M 32.886719 31.253906 C 33.238281 31.121094 33.65625 30.734375 33.832031 30.375 C 33.957031 30.121094 33.972656 30.039062 33.972656 29.59375 C 33.972656 29.121094 33.964844 29.078125 33.800781 28.78125 C 33.472656 28.175781 32.988281 27.871094 32.300781 27.835938 C 31.75 27.808594 31.421875 27.925781 31.023438 28.289062 C 30.519531 28.75 30.320312 29.390625 30.480469 30.023438 C 30.621094 30.570312 30.917969 30.941406 31.417969 31.195312 C 31.882812 31.429688 32.363281 31.449219 32.886719 31.253906 Z M 32.886719 31.253906 "/>
</g>
</svg>
