
<svg xmlns="http://www.w3.org/2000/svg" xmlns:xlink="http://www.w3.org/1999/xlink" width="64px" height="64px" viewBox="0 0 64 64" version="1.1">
<g id="surface1">
<path style=" stroke:none;fill-rule:nonzero;fill:rgb(0%,20%,50.196078%);fill-opacity:1;" d="M 11.375 2 L 52.625 2 C 57.800781 2 62 6.199219 62 11.375 L 62 52.625 C 62 57.800781 57.800781 62 52.625 62 L 11.375 62 C 6.199219 62 2 57.800781 2 52.625 L 2 11.375 C 2 6.199219 6.199219 2 11.375 2 Z M 11.375 2 "/>
<path style=" stroke:none;fill-rule:nonzero;fill:rgb(90.196078%,90.196078%,90.196078%);fill-opacity:1;" d="M 30.808594 9.683594 C 29.269531 9.757812 27.710938 10.0625 26.183594 10.601562 C 25.011719 11.019531 23.925781 11.546875 22.917969 12.1875 C 23.03125 12.363281 23.160156 12.515625 23.285156 12.652344 C 23.132812 12.746094 22.839844 12.769531 22.71875 12.78125 C 22.574219 12.792969 22.480469 12.742188 22.351562 12.566406 C 19.578125 14.5 17.515625 17.234375 16.382812 20.332031 C 16.757812 20.734375 16.652344 20.867188 16.371094 21.195312 C 16.078125 21.53125 16.894531 21.773438 17.21875 21.972656 C 17.542969 22.171875 17.914062 22.851562 18.082031 23.203125 C 18.25 23.554688 18.753906 23.734375 18.902344 23.894531 C 19.050781 24.054688 20.007812 24.003906 20.726562 23.953125 C 21.445312 23.898438 21.257812 24.222656 21.191406 24.515625 C 21.125 24.8125 21.746094 24.628906 22.011719 24.8125 C 22.277344 25 22.40625 24.875 22.820312 24.8125 C 23.234375 24.753906 23.082031 24.746094 23.355469 25.027344 C 23.632812 25.308594 23.59375 25.070312 23.824219 25.28125 C 24.054688 25.488281 24.011719 25.363281 24.460938 25.28125 C 24.910156 25.199219 24.753906 25.34375 24.941406 25.480469 C 25.042969 25.554688 25.019531 25.835938 25.097656 26.042969 C 25.035156 26.019531 24.984375 25.949219 24.925781 25.859375 C 24.777344 25.800781 24.65625 25.746094 24.65625 25.746094 L 24.53125 25.550781 C 24.304688 25.628906 25.066406 26.160156 24.730469 26.410156 C 24.371094 26.679688 24.253906 26.074219 24.261719 26.484375 C 24.269531 26.890625 24.785156 27.019531 24.785156 27.019531 C 24.785156 27.019531 24.382812 27.359375 24.628906 27.542969 C 24.875 27.730469 24.308594 28.160156 24.105469 28.09375 C 23.902344 28.03125 23.605469 28.308594 23.640625 28.660156 C 23.671875 29.011719 24.1875 28.835938 24.078125 28.644531 C 23.964844 28.457031 24.710938 28.546875 24.769531 28.84375 C 24.832031 29.140625 25.222656 29.085938 25.222656 29.085938 C 25.222656 29.085938 24.820312 29.332031 24.644531 29.210938 C 24.464844 29.09375 24.507812 30.742188 24.714844 31.078125 C 24.921875 31.414062 25.496094 31.761719 25.804688 31.742188 C 26.109375 31.722656 26.421875 32.238281 26.679688 32.464844 C 26.9375 32.691406 28.417969 32.515625 28.25 32.804688 C 28.082031 33.09375 28.746094 33.171875 28.746094 33.171875 C 28.746094 33.171875 28.863281 33.632812 29.011719 33.808594 C 29.164062 33.980469 29.761719 34.039062 29.238281 34.089844 C 28.71875 34.144531 28.984375 34.769531 28.984375 34.769531 C 28.984375 34.769531 29.09375 34.824219 29.226562 34.683594 C 29.355469 34.546875 29.566406 34.503906 29.535156 34.925781 C 29.503906 35.347656 29.363281 35.457031 30.058594 36.027344 C 30.753906 36.597656 30.742188 36.6875 30.851562 36.875 C 30.960938 37.066406 30.894531 37.269531 31.203125 37.386719 C 31.515625 37.5 32.011719 36.355469 31.6875 36.199219 C 31.359375 36.042969 31.621094 35.769531 31.757812 35.902344 C 31.894531 36.035156 32.707031 35.160156 32.492188 34.417969 C 32.296875 33.75 32.484375 33.367188 32.902344 33.398438 C 33.320312 33.429688 34.183594 31.972656 33.949219 32.195312 C 33.710938 32.417969 32.851562 30.867188 33.636719 31.179688 C 34.421875 31.488281 35.132812 30.445312 34.371094 30.582031 C 33.609375 30.722656 34.839844 29.867188 34.585938 29.777344 C 34.328125 29.6875 32.660156 29.074219 33.296875 28.84375 C 33.9375 28.613281 33.152344 26.234375 32.789062 26.230469 C 32.425781 26.222656 31.949219 25.523438 31.96875 25.195312 C 31.96875 25.175781 31.972656 25.160156 31.96875 25.140625 C 31.792969 24.949219 31.570312 24.894531 31.472656 25.054688 C 31.320312 25.308594 30.625 25.25 30.414062 25.140625 C 30.203125 25.027344 30.171875 24.800781 30.015625 24.914062 C 29.863281 25.027344 29.867188 25.277344 29.75 25.054688 C 29.707031 24.972656 29.628906 24.855469 29.550781 24.730469 C 27.269531 24.035156 28.140625 25.460938 27.175781 24.914062 C 27.144531 24.929688 27.070312 24.914062 26.992188 24.882812 C 26.859375 24.980469 26.734375 25.074219 26.679688 24.957031 C 26.65625 24.90625 26.660156 24.875 26.636719 24.84375 C 26.546875 24.839844 26.460938 24.820312 26.398438 24.785156 C 26.371094 24.792969 26.34375 24.789062 26.3125 24.800781 C 26.285156 24.808594 26.257812 24.828125 26.242188 24.84375 C 26.296875 25.054688 26.339844 25.308594 26.226562 25.40625 C 26.144531 25.484375 25.996094 25.453125 25.832031 25.480469 C 25.757812 25.558594 25.769531 25.667969 25.746094 25.71875 C 25.71875 25.792969 25.570312 25.839844 25.476562 25.917969 C 25.453125 25.714844 25.464844 25.507812 25.464844 25.507812 L 24.882812 24.914062 L 24.53125 24.828125 C 24.453125 24.8125 24.386719 24.789062 24.332031 24.773438 C 24.328125 24.777344 24.335938 24.78125 24.332031 24.785156 C 24.3125 24.804688 24.28125 24.832031 24.261719 24.84375 C 24.105469 24.9375 23.734375 24.832031 23.46875 24.871094 C 23.207031 24.910156 23.507812 24.894531 23.171875 24.445312 C 22.835938 24 22.421875 23.582031 22.421875 23.582031 L 22.4375 23.316406 C 22.363281 23.25 22.289062 23.121094 22.351562 22.917969 C 22.457031 22.601562 21.917969 22.375 22.082031 21.914062 C 22.25 21.453125 21.980469 21.523438 22.507812 21.644531 C 23.035156 21.769531 23.355469 21.0625 23.414062 20.671875 C 23.464844 20.328125 23.5625 20.5 23.878906 20.527344 C 23.867188 20.488281 23.863281 20.4375 23.851562 20.359375 C 23.792969 19.925781 23.984375 19.867188 24.164062 19.964844 C 24.183594 19.972656 24.21875 19.96875 24.246094 19.976562 C 24.230469 19.820312 24.207031 19.660156 24.246094 19.523438 C 24.332031 19.25 24.835938 19.257812 25.292969 19.3125 C 25.144531 19.140625 24.976562 18.765625 25.210938 18.703125 C 25.265625 18.691406 25.316406 18.683594 25.363281 18.675781 C 25.222656 18.582031 25.460938 18.316406 25.773438 18.367188 C 25.777344 18.203125 25.789062 18.011719 25.859375 17.855469 C 25.917969 17.726562 26.015625 17.644531 26.140625 17.601562 C 26.105469 17.460938 26.0625 17.402344 26.042969 17.488281 C 25.976562 17.785156 25.609375 17.195312 25.394531 17.332031 C 25.179688 17.46875 25.089844 16.597656 24.925781 16.5 C 24.765625 16.398438 25.265625 15.527344 25.464844 15.199219 C 25.652344 14.882812 25.375 15.054688 25.125 14.984375 C 25.199219 14.914062 25.277344 14.828125 25.320312 14.71875 C 25.625 13.96875 26.113281 15.574219 25.804688 15.59375 C 25.492188 15.617188 27.078125 15.960938 27.332031 15.652344 C 27.582031 15.339844 27.960938 15.453125 28.292969 16.019531 C 28.660156 16.652344 29.808594 16.636719 29.804688 16.457031 C 29.804688 16.273438 30.167969 16.285156 30.058594 16.613281 C 29.953125 16.941406 31.066406 17.34375 31.191406 17.050781 C 31.316406 16.757812 31.132812 16.671875 31.078125 16.46875 C 31.019531 16.269531 30.941406 16.222656 31.007812 15.367188 C 31.070312 14.511719 30.910156 14.542969 30.597656 14.292969 C 30.285156 14.039062 30.457031 13.914062 30.640625 13.910156 C 30.820312 13.910156 30.851562 13.8125 30.851562 13.8125 C 30.851562 13.8125 30.59375 13.210938 30.214844 13.542969 C 29.835938 13.875 30.191406 13.421875 30.171875 13.203125 C 30.152344 12.984375 29.902344 12.597656 29.902344 12.597656 C 29.902344 12.597656 30.285156 12.070312 29.976562 12.003906 C 29.664062 11.933594 30.75 11.027344 30.765625 10.699219 C 30.78125 10.402344 30.664062 9.917969 30.808594 9.683594 Z M 34.332031 9.894531 C 34.308594 9.914062 34.296875 9.933594 34.273438 9.953125 C 34.144531 10.039062 34.039062 10.121094 33.976562 10.234375 C 33.964844 10.269531 33.9375 10.3125 33.933594 10.347656 C 33.90625 10.589844 34.085938 10.824219 34.203125 11.027344 C 34.207031 11.121094 34.054688 11.144531 33.890625 11.308594 C 34.355469 11.816406 34.566406 12.34375 33.75 12.597656 C 33.667969 12.597656 33.597656 12.625 33.582031 12.695312 C 33.566406 12.765625 33.589844 12.878906 33.707031 13.019531 C 33.945312 13.304688 34.492188 13.972656 34.628906 14.195312 C 34.234375 15.28125 34.265625 15.226562 34.117188 15.691406 L 34.203125 15.863281 C 34.203125 15.863281 34.140625 16.140625 34.5 16.316406 C 34.484375 16.261719 34.855469 16.152344 34.882812 16.132812 C 34.914062 16.109375 35.421875 16.617188 35.503906 16.667969 C 36.085938 16.503906 35.917969 16.742188 36.480469 16.429688 C 36.910156 16.359375 36.625 15.570312 37.089844 15.46875 C 37.550781 15.363281 37.578125 15.488281 37.683594 15.804688 C 38.15625 15.824219 38.746094 14.890625 39.25 15.015625 C 39.238281 15.023438 39.21875 15.027344 39.210938 15.042969 C 39.167969 15.101562 39.160156 16.125 39.210938 16.300781 C 39.304688 16.648438 39.503906 16.542969 39.535156 16.796875 C 38.730469 17.621094 38.785156 17.578125 38.460938 17.941406 L 38.460938 18.140625 C 38.460938 18.140625 38.296875 18.324219 38.546875 18.621094 C 38.550781 18.566406 38.9375 18.640625 38.96875 18.632812 C 39.007812 18.625 39.242188 19.277344 39.292969 19.355469 C 39.886719 19.433594 40.027344 18.753906 40.664062 18.691406 C 41.082031 18.796875 41.152344 17.980469 41.613281 18.070312 C 42.070312 18.15625 42.046875 18.261719 42.007812 18.589844 C 42.578125 18.863281 43.339844 19.152344 43.71875 19.667969 C 43.882812 19.929688 44.644531 20.6875 44.867188 20.742188 C 44.949219 20.753906 45.035156 20.761719 45.105469 20.753906 C 45.089844 20.792969 45.082031 20.828125 45.0625 20.867188 C 45.019531 20.976562 45.019531 20.992188 45.007812 21.023438 C 44.835938 21.011719 44.640625 21.039062 44.625 21.25 C 44.597656 21.621094 43.789062 21.328125 43.71875 21.082031 C 43.652344 20.832031 43.167969 20.714844 42.828125 20.980469 C 42.492188 21.25 43.023438 21.671875 43.140625 21.433594 C 43.257812 21.195312 43.660156 21.996094 43.394531 22.253906 C 43.132812 22.511719 43.4375 22.863281 43.4375 22.863281 C 43.4375 22.863281 42.925781 22.625 42.929688 22.367188 C 42.933594 22.109375 41.28125 23.25 41.078125 23.683594 C 40.871094 24.117188 40.882812 24.921875 41.105469 25.222656 C 41.328125 25.523438 41.007812 26.183594 40.949219 26.597656 C 40.890625 27.007812 42.046875 28.402344 41.640625 28.421875 C 41.234375 28.4375 41.613281 29.171875 41.613281 29.171875 C 41.613281 29.171875 41.210938 29.578125 41.132812 29.847656 C 41.054688 30.117188 41.386719 30.769531 40.992188 30.273438 C 40.59375 29.773438 40.128906 30.457031 40.128906 30.457031 C 40.128906 30.457031 40.140625 30.597656 40.367188 30.640625 C 40.597656 30.683594 40.792969 30.875 40.339844 31.121094 C 39.890625 31.367188 39.671875 31.296875 39.546875 32.378906 C 39.425781 33.464844 39.328125 33.515625 39.210938 33.75 C 39.089844 33.988281 38.839844 34.050781 38.925781 34.445312 C 39.015625 34.835938 40.507812 34.582031 40.453125 34.148438 C 40.398438 33.714844 40.851562 33.792969 40.808594 34.019531 C 40.761719 34.246094 42.199219 34.519531 42.816406 33.808594 C 43.363281 33.171875 43.875 33.09375 44.117188 33.539062 C 44.300781 33.878906 45.519531 33.921875 45.925781 33.878906 C 45.945312 33.84375 45.964844 33.8125 45.984375 33.78125 C 45.820312 33.59375 46.234375 32.710938 46.5625 32.5625 C 47.023438 31.5 47.367188 30.386719 47.59375 29.242188 C 47.59375 29.234375 47.597656 29.230469 47.59375 29.226562 C 47.597656 29.207031 47.605469 29.1875 47.609375 29.171875 C 47.699219 28.699219 47.773438 28.21875 47.820312 27.742188 C 47.847656 27.5 47.878906 27.261719 47.890625 27.019531 C 47.921875 26.539062 47.921875 26.0625 47.90625 25.578125 C 47.898438 25.332031 47.882812 25.085938 47.863281 24.84375 C 47.859375 24.773438 47.855469 24.699219 47.851562 24.628906 C 47.835938 24.457031 47.8125 24.28125 47.792969 24.105469 C 47.78125 24.023438 47.777344 23.9375 47.765625 23.851562 C 47.742188 23.691406 47.722656 23.53125 47.695312 23.371094 C 47.652344 23.132812 47.605469 22.890625 47.550781 22.648438 C 47.550781 22.644531 47.554688 22.640625 47.550781 22.636719 C 47.464844 22.226562 47.363281 21.828125 47.242188 21.421875 C 47.21875 21.339844 47.195312 21.257812 47.171875 21.179688 C 47.167969 21.179688 47.160156 21.179688 47.15625 21.179688 C 47.125 21.078125 47.105469 20.972656 47.070312 20.867188 C 47.039062 20.769531 47.007812 20.671875 46.972656 20.570312 C 46.945312 20.492188 46.902344 20.410156 46.875 20.332031 C 46.738281 19.964844 46.59375 19.605469 46.433594 19.257812 C 46.425781 19.25 46.425781 19.238281 46.421875 19.230469 C 46.414062 19.207031 46.402344 19.191406 46.394531 19.171875 C 44.082031 14.15625 39.488281 10.785156 34.332031 9.894531 Z M 34.671875 40.015625 C 34.472656 40.03125 34.375 40.054688 34.484375 40.085938 C 34.867188 40.203125 33.996094 40.472656 34.132812 40.710938 C 34.265625 40.945312 33.085938 40.890625 32.917969 41.035156 C 32.746094 41.175781 31.699219 40.535156 31.304688 40.285156 C 30.910156 40.035156 31.117188 40.371094 30.9375 40.609375 C 30.757812 40.847656 30.511719 40.554688 30.046875 40.511719 C 29.582031 40.46875 29.773438 40.644531 29.707031 41.078125 C 29.640625 41.511719 28.578125 41.324219 27.980469 40.722656 C 27.386719 40.121094 27.851562 41.074219 27.1875 41.460938 C 27.09375 41.515625 27.015625 41.566406 26.949219 41.613281 C 30.011719 42.5625 33.363281 42.613281 36.621094 41.570312 C 36.652344 41.429688 36.707031 41.277344 36.761719 41.132812 C 36.496094 41.25 35.953125 41.359375 35.929688 41.121094 C 35.921875 41.0625 35.925781 41.011719 35.929688 40.964844 C 35.769531 41.089844 35.46875 40.796875 35.601562 40.496094 C 35.386719 40.464844 35.132812 40.4375 34.9375 40.339844 C 34.78125 40.261719 34.695312 40.148438 34.671875 40.015625 Z M 20.117188 43.539062 C 20.164062 43.636719 20.203125 43.734375 20.246094 43.835938 C 20.242188 43.796875 20.234375 43.757812 20.230469 43.722656 C 20.1875 43.664062 20.160156 43.597656 20.117188 43.539062 Z M 20.117188 43.539062 "/>
<path style=" stroke:none;fill-rule:nonzero;fill:rgb(90.196078%,90.196078%,90.196078%);fill-opacity:1;" d="M 31.6875 8.5 C 22.054688 8.5 14.230469 16.320312 14.230469 25.957031 C 14.230469 35.589844 22.054688 43.414062 31.6875 43.414062 C 41.320312 43.414062 49.144531 35.589844 49.144531 25.957031 C 49.144531 16.320312 41.320312 8.5 31.6875 8.5 Z M 31.6875 9.238281 C 40.925781 9.238281 48.40625 16.71875 48.40625 25.957031 C 48.40625 35.195312 40.925781 42.675781 31.6875 42.675781 C 22.449219 42.675781 14.96875 35.195312 14.96875 25.957031 C 14.96875 16.71875 22.449219 9.238281 31.6875 9.238281 Z M 31.6875 9.238281 "/>
<path style=" stroke:none;fill-rule:nonzero;fill:rgb(90.196078%,90.196078%,90.196078%);fill-opacity:1;" d="M 6 35.988281 C 9.65625 37.773438 12.402344 37.957031 14.300781 40.699219 C 10.5 40.40625 8.589844 37.898438 6 35.988281 Z M 6 35.988281 "/>
<path style=" stroke:none;fill-rule:nonzero;fill:rgb(90.196078%,90.196078%,90.196078%);fill-opacity:1;" d="M 14.273438 33.085938 C 14.175781 36.1875 12.757812 37.832031 14.808594 40.519531 C 16.726562 38.222656 14.953125 35.667969 14.273438 33.085938 Z M 14.273438 33.085938 "/>
<path style=" stroke:none;fill-rule:nonzero;fill:rgb(90.196078%,90.196078%,90.196078%);fill-opacity:1;" d="M 8.402344 39.601562 C 12.285156 41.140625 15.042969 41.144531 17.304688 43.75 C 13.484375 43.707031 11.242188 41.335938 8.402344 39.601562 Z M 8.402344 39.601562 "/>
<path style=" stroke:none;fill-rule:nonzero;fill:rgb(90.196078%,90.196078%,90.196078%);fill-opacity:1;" d="M 16.257812 36.179688 C 16.578125 39.273438 15.390625 41.003906 17.796875 43.546875 C 19.394531 41.132812 17.28125 38.707031 16.257812 36.179688 Z M 16.257812 36.179688 "/>
<path style=" stroke:none;fill-rule:nonzero;fill:rgb(90.196078%,90.196078%,90.196078%);fill-opacity:1;" d="M 11.113281 42.789062 C 15.171875 44.089844 17.921875 43.929688 20.496094 46.390625 C 16.683594 46.578125 14.15625 44.34375 11.113281 42.789062 Z M 11.113281 42.789062 "/>
<path style=" stroke:none;fill-rule:nonzero;fill:rgb(90.196078%,90.196078%,90.196078%);fill-opacity:1;" d="M 18.585938 38.894531 C 19.289062 41.960938 18.320312 43.753906 21.03125 46.144531 C 22.324219 43.644531 19.917969 41.351562 18.585938 38.894531 Z M 18.585938 38.894531 "/>
<path style=" stroke:none;fill-rule:nonzero;fill:rgb(90.196078%,90.196078%,90.196078%);fill-opacity:1;" d="M 7.378906 28.574219 C 10.054688 32.5 13.261719 34.019531 12.769531 38.292969 C 8.363281 36.144531 8.605469 32.152344 7.378906 28.574219 Z M 7.378906 28.574219 "/>
<path style=" stroke:none;fill-rule:nonzero;fill:rgb(90.196078%,90.196078%,90.196078%);fill-opacity:1;" d="M 14.664062 46.796875 C 18.910156 47.082031 21.503906 46.261719 24.636719 48.035156 C 21.027344 49.140625 18.003906 47.578125 14.664062 46.796875 Z M 14.664062 46.796875 "/>
<path style=" stroke:none;fill-rule:nonzero;fill:rgb(90.196078%,90.196078%,90.196078%);fill-opacity:1;" d="M 20.722656 41.230469 C 22.222656 44.046875 21.773438 46.027344 25.019531 47.699219 C 25.589844 44.953125 22.664062 43.300781 20.722656 41.230469 Z M 20.722656 41.230469 "/>
<path style=" stroke:none;fill-rule:nonzero;fill:rgb(90.196078%,90.196078%,90.196078%);fill-opacity:1;" d="M 18.445312 48.980469 C 22.761719 48.992188 25.285156 48.019531 28.660156 49.566406 C 25.144531 50.882812 21.90625 49.539062 18.445312 48.980469 Z M 18.445312 48.980469 "/>
<path style=" stroke:none;fill-rule:nonzero;fill:rgb(90.196078%,90.196078%,90.196078%);fill-opacity:1;" d="M 23.964844 43.085938 C 25.8125 45.761719 25.59375 47.738281 29.066406 49.175781 C 29.316406 46.4375 26.167969 45 23.964844 43.085938 Z M 23.964844 43.085938 "/>
<path style=" stroke:none;fill-rule:nonzero;fill:rgb(90.196078%,90.196078%,90.196078%);fill-opacity:1;" d="M 57.375 35.988281 C 53.71875 37.773438 50.972656 37.957031 49.074219 40.699219 C 52.875 40.40625 54.785156 37.898438 57.375 35.988281 Z M 57.375 35.988281 "/>
<path style=" stroke:none;fill-rule:nonzero;fill:rgb(90.196078%,90.196078%,90.196078%);fill-opacity:1;" d="M 49.101562 33.085938 C 49.199219 36.1875 50.617188 37.832031 48.566406 40.519531 C 46.648438 38.222656 48.421875 35.667969 49.101562 33.085938 Z M 49.101562 33.085938 "/>
<path style=" stroke:none;fill-rule:nonzero;fill:rgb(90.196078%,90.196078%,90.196078%);fill-opacity:1;" d="M 54.972656 39.601562 C 51.089844 41.140625 48.332031 41.144531 46.070312 43.75 C 49.890625 43.707031 52.132812 41.335938 54.972656 39.601562 Z M 54.972656 39.601562 "/>
<path style=" stroke:none;fill-rule:nonzero;fill:rgb(90.196078%,90.196078%,90.196078%);fill-opacity:1;" d="M 47.117188 36.179688 C 46.796875 39.273438 47.984375 41.003906 45.578125 43.546875 C 43.980469 41.132812 46.09375 38.707031 47.117188 36.179688 Z M 47.117188 36.179688 "/>
<path style=" stroke:none;fill-rule:nonzero;fill:rgb(90.196078%,90.196078%,90.196078%);fill-opacity:1;" d="M 52.261719 42.789062 C 48.203125 44.089844 45.453125 43.929688 42.878906 46.390625 C 46.691406 46.578125 49.21875 44.34375 52.261719 42.789062 Z M 52.261719 42.789062 "/>
<path style=" stroke:none;fill-rule:nonzero;fill:rgb(90.196078%,90.196078%,90.196078%);fill-opacity:1;" d="M 44.785156 38.894531 C 44.085938 41.960938 45.054688 43.753906 42.34375 46.144531 C 41.050781 43.644531 43.457031 41.351562 44.785156 38.894531 Z M 44.785156 38.894531 "/>
<path style=" stroke:none;fill-rule:nonzero;fill:rgb(90.196078%,90.196078%,90.196078%);fill-opacity:1;" d="M 55.996094 28.574219 C 53.320312 32.5 50.109375 34.019531 50.609375 38.292969 C 55.011719 36.144531 54.769531 32.152344 55.996094 28.574219 Z M 55.996094 28.574219 "/>
<path style=" stroke:none;fill-rule:nonzero;fill:rgb(90.196078%,90.196078%,90.196078%);fill-opacity:1;" d="M 48.710938 46.796875 C 44.464844 47.082031 41.871094 46.261719 38.734375 48.035156 C 42.347656 49.140625 45.371094 47.578125 48.710938 46.796875 Z M 48.710938 46.796875 "/>
<path style=" stroke:none;fill-rule:nonzero;fill:rgb(90.196078%,90.196078%,90.196078%);fill-opacity:1;" d="M 42.652344 41.230469 C 41.152344 44.046875 41.601562 46.027344 38.355469 47.699219 C 37.785156 44.953125 40.710938 43.300781 42.652344 41.230469 Z M 42.652344 41.230469 "/>
<path style=" stroke:none;fill-rule:nonzero;fill:rgb(90.196078%,90.196078%,90.196078%);fill-opacity:1;" d="M 44.929688 48.980469 C 40.613281 48.992188 38.089844 48.019531 34.714844 49.566406 C 38.230469 50.882812 41.46875 49.539062 44.929688 48.980469 Z M 44.929688 48.980469 "/>
<path style=" stroke:none;fill-rule:nonzero;fill:rgb(90.196078%,90.196078%,90.196078%);fill-opacity:1;" d="M 39.410156 43.085938 C 37.5625 45.761719 37.78125 47.738281 34.308594 49.175781 C 34.058594 46.4375 37.207031 45 39.410156 43.085938 Z M 39.410156 43.085938 "/>
<path style=" stroke:none;fill-rule:nonzero;fill:rgb(90.196078%,90.196078%,90.196078%);fill-opacity:1;" d="M 29.125 49.519531 C 32.804688 51.476562 35.722656 51.332031 37.394531 54.875 C 35.039062 52.546875 30.320312 51.53125 29.125 49.519531 Z M 29.125 49.519531 "/>
<path style=" stroke:none;fill-rule:nonzero;fill:rgb(90.196078%,90.196078%,90.196078%);fill-opacity:1;" d="M 34.25 49.519531 C 30.570312 51.476562 27.652344 51.332031 25.980469 54.875 C 28.335938 52.546875 33.054688 51.53125 34.25 49.519531 Z M 34.25 49.519531 "/>
</g>
</svg>
