
<svg xmlns="http://www.w3.org/2000/svg" xmlns:xlink="http://www.w3.org/1999/xlink" width="64px" height="64px" viewBox="0 0 64 64" version="1.1">
<g id="surface1">
<path style="fill-rule:nonzero;fill:rgb(100%,100%,100%);fill-opacity:1;stroke-width:26.827003;stroke-linecap:butt;stroke-linejoin:miter;stroke:rgb(16.470588%,49.803922%,100%);stroke-opacity:1;stroke-miterlimit:4;" d="M 89.9375 36.28125 L 422.0625 36.28125 C 451.6875 36.28125 475.71875 60.3125 475.71875 89.9375 L 475.71875 422.0625 C 475.71875 451.6875 451.6875 475.71875 422.0625 475.71875 L 89.9375 475.71875 C 60.3125 475.71875 36.28125 451.6875 36.28125 422.0625 L 36.28125 89.9375 C 36.28125 60.3125 60.3125 36.28125 89.9375 36.28125 Z M 89.9375 36.28125 " transform="matrix(0.125,0,0,0.125,0,0)"/>
<path style=" stroke:none;fill-rule:nonzero;fill:rgb(0%,0%,100%);fill-opacity:1;" d="M 32 10.109375 C 29.984375 10.109375 28.351562 11.742188 28.351562 13.757812 C 28.351562 15.773438 29.984375 17.40625 32 17.40625 C 34.015625 17.40625 35.648438 15.773438 35.648438 13.757812 C 35.648438 11.742188 34.015625 10.109375 32 10.109375 Z M 13.757812 19.230469 L 13.757812 22.878906 L 26.527344 22.878906 L 26.527344 53.890625 L 30.175781 53.890625 L 30.175781 39.296875 L 33.824219 39.296875 L 33.824219 53.890625 L 37.472656 53.890625 L 37.472656 22.878906 L 50.242188 22.878906 L 50.242188 19.230469 Z M 13.757812 19.230469 "/>
</g>
</svg>
