
<svg xmlns="http://www.w3.org/2000/svg" xmlns:xlink="http://www.w3.org/1999/xlink" width="64px" height="64px" viewBox="0 0 64 64" version="1.1">
<g id="surface1">
<path style="fill-rule:nonzero;fill:rgb(80%,80%,80%);fill-opacity:1;stroke-width:26.147526;stroke-linecap:butt;stroke-linejoin:miter;stroke:rgb(32.941176%,32.941176%,32.941176%);stroke-opacity:1;stroke-miterlimit:4;" d="M 98.9375 49.3125 L 422.65625 49.3125 C 451.53125 49.3125 474.9375 72.75 474.9375 101.625 L 474.9375 425.34375 C 474.9375 454.21875 451.53125 477.65625 422.65625 477.65625 L 98.9375 477.65625 C 70.03125 477.65625 46.625 454.21875 46.625 425.34375 L 46.625 101.625 C 46.625 72.75 70.03125 49.3125 98.9375 49.3125 Z M 98.9375 49.3125 " transform="matrix(0.125,0,0,0.125,0,0)"/>
<path style=" stroke:none;fill-rule:nonzero;fill:rgb(16.470588%,49.803922%,100%);fill-opacity:1;" d="M 54.988281 30.839844 C 54.515625 30.175781 53.996094 29.550781 53.46875 28.933594 C 50.640625 25.621094 47.394531 22.671875 43.835938 20.527344 C 41.5625 19.15625 39.132812 18.054688 36.613281 17.523438 C 35.332031 17.257812 34.078125 17.117188 32.753906 17.113281 C 31.472656 17.113281 30.191406 17.257812 28.910156 17.523438 C 26.390625 18.054688 23.964844 19.15625 21.695312 20.527344 C 18.136719 22.671875 14.886719 25.625 12.046875 28.933594 C 11.527344 29.546875 11.015625 30.171875 10.539062 30.839844 C 9.894531 31.726562 9.894531 32.769531 10.539062 33.65625 C 11.984375 35.679688 13.707031 37.476562 15.453125 39.128906 C 19.226562 42.671875 23.546875 45.636719 28.3125 46.835938 C 29.785156 47.203125 31.261719 47.382812 32.746094 47.382812 C 34.246094 47.382812 35.714844 47.203125 37.1875 46.835938 C 41.953125 45.636719 46.277344 42.671875 50.058594 39.128906 C 51.8125 37.484375 53.53125 35.683594 54.976562 33.65625 C 55.613281 32.769531 55.613281 31.726562 54.976562 30.839844 M 54.976562 30.839844 "/>
<path style=" stroke:none;fill-rule:nonzero;fill:rgb(100%,100%,100%);fill-opacity:1;" d="M 52.457031 31 C 52.035156 30.410156 51.574219 29.855469 51.105469 29.3125 C 48.601562 26.375 45.726562 23.761719 42.574219 21.863281 C 40.558594 20.648438 38.402344 19.671875 36.171875 19.199219 C 35.039062 18.964844 33.925781 18.84375 32.753906 18.839844 C 31.621094 18.839844 30.484375 18.964844 29.351562 19.199219 C 27.113281 19.671875 24.96875 20.648438 22.953125 21.863281 C 19.804688 23.761719 16.921875 26.378906 14.410156 29.3125 C 13.945312 29.855469 13.492188 30.410156 13.074219 31 C 12.5 31.785156 12.5 32.710938 13.074219 33.496094 C 14.351562 35.289062 15.878906 36.882812 17.425781 38.347656 C 20.769531 41.484375 24.597656 44.113281 28.816406 45.171875 C 30.125 45.5 31.433594 45.65625 32.746094 45.65625 C 34.078125 45.65625 35.378906 45.5 36.683594 45.171875 C 40.902344 44.113281 44.738281 41.484375 48.085938 38.347656 C 49.640625 36.886719 51.164062 35.289062 52.445312 33.496094 C 53.007812 32.710938 53.007812 31.785156 52.445312 31 M 52.445312 31 "/>
<path style=" stroke:none;fill-rule:nonzero;fill:rgb(83.137255%,0%,0%);fill-opacity:1;" d="M 42.820312 32.246094 C 42.820312 37.800781 38.320312 42.304688 32.765625 42.304688 C 27.210938 42.304688 22.707031 37.800781 22.707031 32.246094 C 22.707031 26.695312 27.210938 22.191406 32.765625 22.191406 C 38.316406 22.191406 42.820312 26.695312 42.820312 32.246094 M 42.820312 32.246094 "/>
<path style=" stroke:none;fill-rule:nonzero;fill:rgb(0%,0%,0%);fill-opacity:1;" d="M 38.351562 32.246094 C 38.351562 35.332031 35.851562 37.832031 32.765625 37.832031 C 29.679688 37.832031 27.179688 35.332031 27.179688 32.246094 C 27.179688 29.160156 29.679688 26.660156 32.765625 26.660156 C 35.851562 26.660156 38.351562 29.160156 38.351562 32.246094 M 38.351562 32.246094 "/>
</g>
</svg>
