
<svg xmlns="http://www.w3.org/2000/svg" xmlns:xlink="http://www.w3.org/1999/xlink" width="64px" height="64px" viewBox="0 0 64 64" version="1.1">
<g id="surface1">
<path style="fill-rule:nonzero;fill:rgb(100%,100%,100%);fill-opacity:1;stroke-width:7.075311;stroke-linecap:butt;stroke-linejoin:miter;stroke:rgb(92.54902%,46.666667%,8.235294%);stroke-opacity:1;stroke-miterlimit:4;" d="M 20.203125 6.046875 L 107.796875 6.046875 C 115.617188 6.046875 121.953125 12.382812 121.953125 20.203125 L 121.953125 107.796875 C 121.953125 115.617188 115.617188 121.953125 107.796875 121.953125 L 20.203125 121.953125 C 12.382812 121.953125 6.046875 115.617188 6.046875 107.796875 L 6.046875 20.203125 C 6.046875 12.382812 12.382812 6.046875 20.203125 6.046875 Z M 20.203125 6.046875 " transform="matrix(0.5,0,0,0.5,0,0)"/>
<path style="fill-rule:nonzero;fill:rgb(45.490196%,57.254902%,50.196078%);fill-opacity:1;stroke-width:1.04972;stroke-linecap:butt;stroke-linejoin:miter;stroke:rgb(92.54902%,46.666667%,8.235294%);stroke-opacity:1;stroke-miterlimit:4;" d="M 44.19762 187.566373 C 43.896177 187.635274 43.594734 187.704175 43.29329 187.773077 C 42.733467 187.850591 42.190869 187.971168 41.665497 188.134808 C 27.868009 191.330107 16.318427 200.71791 10.375689 213.568005 C 10.15176 214.007251 9.936443 214.455109 9.729739 214.902968 C 9.479972 215.540305 9.238817 216.186255 9.014888 216.840817 C 8.713445 217.615957 8.420614 218.408322 8.153622 219.2093 C 7.869404 220.199756 7.611024 221.198825 7.387095 222.206507 C 7.257905 222.680203 7.137327 223.162512 7.025363 223.636209 C 6.568892 225.944403 6.301899 228.287047 6.20716 230.629692 C 6.155484 231.327318 6.121033 232.024943 6.103808 232.722569 C 6.103808 232.731182 6.103808 232.739794 6.103808 232.748407 C 6.103808 232.75702 6.103808 232.765632 6.103808 232.765632 C 6.121033 233.187653 6.138258 233.609674 6.164096 234.023081 C 10.220661 237.51121 14.897338 240.577319 18.885001 240.637607 C 22.562608 240.689283 26.894778 238.208836 30.804928 235.185791 C 30.770477 234.927411 30.736026 234.660419 30.701576 234.402039 C 30.658512 233.919729 30.641287 233.428808 30.632674 232.946498 C 30.624062 232.877597 30.624062 232.808696 30.624062 232.748407 C 30.624062 232.679506 30.624062 232.610605 30.632674 232.550316 C 30.641287 232.059394 30.658512 231.577085 30.701576 231.094776 C 30.744639 230.681368 30.796315 230.259347 30.865216 229.845939 C 30.891054 229.647848 30.925505 229.441144 30.959956 229.243053 C 31.046082 228.777969 31.158047 228.312885 31.278624 227.856414 C 31.321688 227.718611 31.356138 227.572196 31.390589 227.425781 C 31.545617 226.926246 31.71787 226.418099 31.907349 225.927177 C 31.941799 225.841051 31.967637 225.754924 32.002088 225.660185 C 34.163867 220.294495 38.651064 216.194867 44.19762 214.532623 L 44.19762 214.274243 C 44.395711 214.291469 44.58519 214.308694 44.783281 214.308694 L 65.4709 214.308694 C 70.268153 214.308694 74.350556 211.09617 76.081702 206.514233 C 73.403163 207.194634 68.692036 208.297054 65.772343 208.279829 C 63.817268 208.262604 61.664102 208.18509 60.019083 207.125732 C 58.925275 206.419494 57.719502 203.964885 57.719502 203.964885 C 57.719502 203.964885 65.884308 205.497939 69.80307 204.53332 C 72.03375 203.990723 75.263498 201.768655 76.968806 200.519819 L 76.968806 200.347566 C 76.968806 193.319632 71.844271 187.652499 65.4709 187.652499 L 44.783281 187.652499 C 44.58519 187.652499 44.395711 187.678337 44.19762 187.68695 Z M 61.026765 193.896681 C 62.697622 193.896681 64.04981 195.248869 64.04981 196.919726 C 64.04981 198.58197 62.697622 199.934158 61.026765 199.934158 C 59.355908 199.934158 58.00372 198.58197 58.00372 196.919726 C 58.00372 195.248869 59.355908 193.896681 61.026765 193.896681 Z M 61.026765 193.896681 " transform="matrix(0.453547,0,0,0.453547,19.321479,-75.6249)"/>
<path style="fill-rule:nonzero;fill:rgb(45.490196%,57.254902%,50.196078%);fill-opacity:1;stroke-width:1.04972;stroke-linecap:butt;stroke-linejoin:miter;stroke:rgb(92.54902%,46.666667%,8.235294%);stroke-opacity:1;stroke-miterlimit:4;" d="M 47.918291 260.145291 L 47.918291 260.153903 C 40.597526 268.956046 29.736957 274.054743 18.282114 274.063356 C 17.808418 274.04613 17.343334 274.020292 16.869638 273.994454 C 18.127087 275.277741 19.462049 276.492127 20.857301 277.628998 C 20.960653 277.6979 21.055392 277.766801 21.158744 277.835702 C 22.261165 278.705581 23.406649 279.523784 24.586584 280.290312 C 24.689936 280.3506 24.784676 280.402276 24.888028 280.462565 C 26.076575 281.220479 27.308186 281.926718 28.565635 282.572667 C 28.694825 282.632956 28.824015 282.684632 28.953205 282.744921 C 32.174341 284.329651 35.567731 285.535424 39.064472 286.327789 C 39.57262 286.482817 40.097992 286.594781 40.631977 286.680908 C 40.950646 286.749809 41.269314 286.818711 41.57937 286.887612 L 41.57937 286.767035 C 41.777461 286.775647 41.96694 286.801485 42.165031 286.801485 L 62.85265 286.801485 C 69.226021 286.801485 74.350556 281.142965 74.350556 274.106419 L 74.350556 272.840357 C 74.350556 265.812424 69.226021 260.145291 62.85265 260.145291 Z M 47.918291 260.145291 " transform="matrix(0.453547,0,0,0.453547,19.321479,-75.6249)"/>
<path style="fill-rule:nonzero;fill:rgb(92.54902%,46.666667%,8.235294%);fill-opacity:1;stroke-width:1;stroke-linecap:butt;stroke-linejoin:miter;stroke:rgb(92.54902%,46.666667%,8.235294%);stroke-opacity:1;stroke-miterlimit:4;" d="M 13.467635 195.395284 C -5.428549 196.135973 -18.23558 209.313349 -20.621288 228.132019 C -20.836605 229.001898 -20.965795 229.914841 -20.965795 230.862234 L -20.965795 246.847338 L -21.086372 246.847338 L -21.086372 283.90763 L 2.16782 283.90763 L 2.16782 267.621083 C 6.775596 269.558932 11.719265 270.549389 16.723222 270.558001 C 37.531418 270.549389 54.403627 253.685793 54.395014 232.868984 C 54.395014 226.650641 52.749995 221.646683 49.795851 216.160417 L 44.826344 217.133648 C 44.619641 217.168098 44.412937 217.10781 44.206233 217.099197 L 44.206233 217.36619 C 38.375459 219.11456 37.34194 221.551944 35.068196 227.201852 C 35.033746 227.296591 34.973457 227.554971 34.939006 227.64971 C 34.775366 228.080343 34.939006 228.493751 34.809816 228.932997 C 35.283513 230.362699 34.301669 231.706275 34.301669 233.222104 C 34.301669 241.085466 24.724387 247.252133 16.861025 247.252133 C 8.997663 247.252133 2.624292 240.878762 2.624292 233.0154 C 2.624292 230.560791 1.306554 227.951153 2.400362 225.754924 C 2.572616 225.401805 2.632904 224.833369 2.710418 224.454412 C 2.81377 223.946265 2.951573 223.44673 3.089375 222.947196 C 3.321917 221.887838 3.597523 220.82848 3.898966 219.786348 C 4.183184 218.95092 4.484627 218.115491 4.811908 217.297288 C 5.04445 216.608275 5.294217 215.936487 5.552597 215.256087 C 5.776527 214.78239 6.000456 214.317307 6.232998 213.852223 C 9.514423 206.608972 12.787235 200.261439 19.703204 195.179967 C 17.550038 194.80101 15.508837 195.042165 13.467635 195.395284 Z M 13.467635 195.395284 " transform="matrix(0.453547,0,0,0.453547,19.321479,-75.6249)"/>
</g>
</svg>
