
<svg xmlns="http://www.w3.org/2000/svg" xmlns:xlink="http://www.w3.org/1999/xlink" width="64px" height="64px" viewBox="0 0 64 64" version="1.1">
<g id="surface1">
<path style=" stroke:none;fill-rule:evenodd;fill:rgb(15.686275%,49.411765%,71.764706%);fill-opacity:1;" d="M 10.324219 4.359375 L 53.859375 4.359375 C 57.339844 4.359375 60.160156 7.179688 60.160156 10.660156 L 60.160156 54.195312 C 60.160156 57.675781 57.339844 60.496094 53.859375 60.496094 L 10.324219 60.496094 C 6.847656 60.496094 4.027344 57.675781 4.027344 54.195312 L 4.027344 10.660156 C 4.027344 7.179688 6.847656 4.359375 10.324219 4.359375 Z M 10.324219 4.359375 "/>
<path style=" stroke:none;fill-rule:nonzero;fill:rgb(17.254902%,24.313725%,31.372549%);fill-opacity:1;" d="M 32.148438 54.820312 C 44.3125 54.820312 54.175781 44.960938 54.175781 32.792969 C 54.175781 20.628906 44.3125 10.769531 32.148438 10.769531 L 32.148438 14.898438 C 42.03125 14.898438 50.042969 22.910156 50.042969 32.792969 C 50.042969 42.679688 42.03125 50.691406 32.148438 50.691406 Z M 32.148438 54.820312 "/>
<path style=" stroke:none;fill-rule:nonzero;fill:rgb(10.196078%,73.72549%,61.176471%);fill-opacity:1;" d="M 10.121094 32.792969 C 10.121094 44.960938 19.984375 54.820312 32.148438 54.820312 L 32.148438 50.691406 C 22.265625 50.691406 14.253906 42.679688 14.253906 32.792969 C 14.253906 22.910156 22.265625 14.898438 32.148438 14.898438 L 32.148438 10.769531 C 19.984375 10.769531 10.121094 20.628906 10.121094 32.792969 Z M 10.121094 32.792969 "/>
<path style=" stroke:none;fill-rule:nonzero;fill:rgb(92.54902%,94.117647%,94.509804%);fill-opacity:1;" d="M 28.8125 22.78125 L 28.8125 31.363281 L 25.472656 31.363281 L 32.15625 38.992188 L 38.824219 31.363281 L 35.484375 31.363281 L 35.484375 22.78125 Z M 32.15625 38.992188 L 22.136719 38.992188 L 22.136719 42.804688 L 42.160156 42.804688 L 42.160156 38.992188 Z M 32.15625 38.992188 "/>
</g>
</svg>
