
<svg xmlns="http://www.w3.org/2000/svg" xmlns:xlink="http://www.w3.org/1999/xlink" width="64px" height="64px" viewBox="0 0 64 64" version="1.1">
<g id="surface1">
<path style=" stroke:none;fill-rule:evenodd;fill:rgb(98.823529%,67.058824%,0%);fill-opacity:1;" d="M 8.695312 2.757812 L 55.515625 2.757812 C 58.886719 2.757812 61.617188 5.488281 61.617188 8.855469 L 61.617188 55.679688 C 61.617188 59.046875 58.886719 61.777344 55.515625 61.777344 L 8.695312 61.777344 C 5.324219 61.777344 2.59375 59.046875 2.59375 55.679688 L 2.59375 8.855469 C 2.59375 5.488281 5.324219 2.757812 8.695312 2.757812 Z M 8.695312 2.757812 "/>
<path style=" stroke:none;fill-rule:evenodd;fill:rgb(100%,100%,100%);fill-opacity:1;" d="M 13.316406 27.660156 L 50.867188 27.660156 C 51.503906 27.660156 52.023438 28.179688 52.023438 28.816406 L 52.023438 38.367188 C 52.023438 39.007812 51.503906 39.523438 50.867188 39.523438 L 13.316406 39.523438 C 12.675781 39.523438 12.160156 39.007812 12.160156 38.367188 L 12.160156 28.816406 C 12.160156 28.179688 12.675781 27.660156 13.316406 27.660156 Z M 13.316406 27.660156 "/>
<path style=" stroke:none;fill-rule:evenodd;fill:rgb(100%,100%,100%);fill-opacity:1;" d="M 39.644531 23.292969 L 45.230469 23.292969 L 45.230469 28.734375 L 39.644531 28.734375 Z M 39.644531 23.292969 "/>
<path style=" stroke:none;fill-rule:nonzero;fill:rgb(16.862745%,14.901961%,10.588235%);fill-opacity:1;" d="M 12.195312 39.664062 C 11.84375 39.3125 11.808594 38.625 11.882812 33.492188 C 11.949219 28.671875 12.019531 27.675781 12.316406 27.488281 C 12.53125 27.355469 17.980469 27.261719 25.886719 27.257812 L 39.101562 27.257812 L 39.101562 25.289062 C 39.101562 24.074219 39.210938 23.210938 39.386719 23.035156 C 39.777344 22.644531 45.0625 22.644531 45.453125 23.035156 C 45.628906 23.210938 45.738281 24.074219 45.738281 25.289062 L 45.738281 27.257812 L 48.804688 27.257812 C 51.273438 27.257812 51.941406 27.328125 52.242188 27.628906 C 52.796875 28.1875 52.796875 39.125 52.242188 39.683594 C 51.90625 40.015625 49.765625 40.054688 32.226562 40.054688 C 14.242188 40.054688 12.554688 40.023438 12.195312 39.664062 Z M 24.289062 36.144531 L 24.289062 33.0625 L 21.222656 32.996094 C 19.382812 32.957031 18.023438 32.824219 17.832031 32.660156 C 17.636719 32.5 17.535156 32.050781 17.578125 31.542969 L 17.648438 30.691406 L 20.496094 30.636719 C 24.433594 30.554688 24.449219 30.550781 24.359375 29.320312 L 24.289062 28.324219 L 13.039062 28.195312 L 12.90625 28.734375 C 12.832031 29.027344 12.804688 30.550781 12.839844 32.117188 L 12.910156 34.960938 L 16.226562 35.078125 L 19.546875 35.195312 L 19.546875 37.09375 L 16.226562 37.210938 L 12.910156 37.332031 L 12.832031 38 C 12.671875 39.394531 12.511719 39.359375 18.652344 39.289062 L 24.289062 39.226562 Z M 37.863281 33.835938 L 37.796875 28.324219 L 26.65625 28.324219 L 26.582031 29.246094 C 26.535156 29.824219 26.625 30.246094 26.820312 30.367188 C 26.992188 30.480469 28.496094 30.570312 30.167969 30.570312 L 33.203125 30.574219 L 33.058594 32.828125 L 26.539062 32.957031 L 26.539062 39.34375 L 37.925781 39.34375 Z M 31.378906 36.890625 C 31.304688 36.699219 31.277344 36.238281 31.320312 35.867188 C 31.390625 35.273438 31.492188 35.195312 32.226562 35.195312 C 33.039062 35.195312 33.058594 35.21875 33.058594 36.144531 C 33.058594 37.042969 33.015625 37.097656 32.285156 37.167969 C 31.769531 37.21875 31.46875 37.125 31.378906 36.890625 Z M 51.546875 33.773438 L 51.546875 28.324219 L 48.226562 28.203125 L 44.910156 28.085938 L 44.839844 25.960938 C 44.796875 24.628906 44.664062 23.765625 44.484375 23.652344 C 44.015625 23.355469 40.652344 23.429688 40.335938 23.75 C 40.125 23.957031 40.050781 26.015625 40.050781 31.53125 C 40.050781 35.65625 40.125 39.101562 40.210938 39.191406 C 40.300781 39.28125 42.890625 39.324219 45.960938 39.289062 L 51.546875 39.226562 Z M 44.898438 36.917969 C 44.832031 36.738281 44.804688 35.265625 44.84375 33.644531 L 44.910156 30.691406 L 46.804688 30.691406 L 46.804688 37.09375 L 45.914062 37.167969 C 45.324219 37.214844 44.984375 37.132812 44.898438 36.917969 Z M 44.898438 36.917969 "/>
</g>
</svg>
