
<svg xmlns="http://www.w3.org/2000/svg" xmlns:xlink="http://www.w3.org/1999/xlink" width="64px" height="64px" viewBox="0 0 64 64" version="1.1">
<g id="surface1">
<path style="fill-rule:nonzero;fill:rgb(70.196078%,43.529412%,11.764706%);fill-opacity:1;stroke-width:7.117036;stroke-linecap:butt;stroke-linejoin:miter;stroke:rgb(20%,20%,20%);stroke-opacity:1;stroke-miterlimit:4;" d="M 19.945312 5.710938 L 108.054688 5.710938 C 115.921875 5.710938 122.289062 12.078125 122.289062 19.945312 L 122.289062 108.054688 C 122.289062 115.921875 115.921875 122.289062 108.054688 122.289062 L 19.945312 122.289062 C 12.078125 122.289062 5.710938 115.921875 5.710938 108.054688 L 5.710938 19.945312 C 5.710938 12.078125 12.078125 5.710938 19.945312 5.710938 Z M 19.945312 5.710938 " transform="matrix(0.5,0,0,0.5,0,0)"/>
<path style=" stroke:none;fill-rule:evenodd;fill:rgb(20%,20%,20%);fill-opacity:1;" d="M 55.644531 31.949219 C 55.433594 18.8125 44.640625 8.316406 31.503906 8.472656 C 18.363281 8.632812 7.824219 19.382812 7.929688 32.523438 C 8.035156 45.660156 18.746094 56.242188 31.882812 56.191406 C 45.023438 56.136719 55.648438 45.472656 55.648438 32.332031 "/>
<path style=" stroke:none;fill-rule:evenodd;fill:rgb(99.607843%,82.352941%,42.352941%);fill-opacity:0.4;" d="M 51.679688 32.375 C 51.679688 21.394531 42.777344 12.492188 31.796875 12.492188 C 20.8125 12.492188 11.914062 21.394531 11.914062 32.375 C 11.914062 43.355469 20.8125 52.257812 31.796875 52.257812 C 42.777344 52.257812 51.679688 43.355469 51.679688 32.375 "/>
<path style=" stroke:none;fill-rule:evenodd;fill:rgb(46.27451%,32.54902%,12.941176%);fill-opacity:0.686275;" d="M 44.738281 32.355469 C 44.738281 25.21875 38.953125 19.433594 31.8125 19.433594 C 24.675781 19.433594 18.890625 25.21875 18.890625 32.355469 C 18.890625 39.492188 24.675781 45.28125 31.8125 45.28125 C 38.953125 45.28125 44.738281 39.492188 44.738281 32.355469 "/>
<path style=" stroke:none;fill-rule:evenodd;fill:rgb(32.54902%,18.039216%,0%);fill-opacity:1;" d="M 40.171875 32.324219 C 40.171875 27.699219 36.421875 23.953125 31.796875 23.953125 C 27.171875 23.953125 23.421875 27.699219 23.421875 32.324219 C 23.421875 36.949219 27.171875 40.699219 31.796875 40.699219 C 36.421875 40.699219 40.171875 36.949219 40.171875 32.324219 "/>
<path style=" stroke:none;fill-rule:evenodd;fill:rgb(100%,100%,100%);fill-opacity:0.643137;" d="M 39.9375 27.550781 C 40.757812 25.796875 39.96875 23.691406 38.175781 22.851562 C 36.378906 22.015625 34.261719 22.757812 33.4375 24.515625 C 32.617188 26.273438 33.40625 28.375 35.203125 29.214844 C 36.996094 30.054688 39.117188 29.308594 39.9375 27.550781 "/>
<path style=" stroke:none;fill-rule:evenodd;fill:rgb(100%,100%,100%);fill-opacity:0.364706;" d="M 27.957031 38.609375 C 28.65625 37.757812 28.601562 36.5 27.835938 35.804688 C 27.070312 35.105469 25.882812 35.230469 25.183594 36.082031 C 24.484375 36.933594 24.539062 38.191406 25.304688 38.890625 C 26.070312 39.585938 27.257812 39.460938 27.957031 38.609375 "/>
</g>
</svg>
