
<svg xmlns="http://www.w3.org/2000/svg" xmlns:xlink="http://www.w3.org/1999/xlink" width="64px" height="64px" viewBox="0 0 64 64" version="1.1">
<g id="surface1">
<path style=" stroke:none;fill-rule:evenodd;fill:rgb(80.392157%,61.176471%,42.745098%);fill-opacity:1;" d="M 9.140625 2.523438 L 54.859375 2.523438 C 58.515625 2.523438 61.476562 5.484375 61.476562 9.140625 L 61.476562 54.859375 C 61.476562 58.515625 58.515625 61.476562 54.859375 61.476562 L 9.140625 61.476562 C 5.484375 61.476562 2.523438 58.515625 2.523438 54.859375 L 2.523438 9.140625 C 2.523438 5.484375 5.484375 2.523438 9.140625 2.523438 Z M 9.140625 2.523438 "/>
<path style=" stroke:none;fill-rule:nonzero;fill:rgb(83.921569%,1.176471%,31.764706%);fill-opacity:1;" d="M 60.625 45.800781 C 60.625 53.597656 54.304688 59.921875 46.507812 59.921875 C 38.714844 59.921875 32.390625 53.597656 32.390625 45.800781 C 32.390625 38.007812 38.710938 31.683594 46.507812 31.683594 C 54.304688 31.683594 60.625 38.007812 60.625 45.800781 M 60.625 45.800781 "/>
<path style=" stroke:none;fill-rule:nonzero;fill:rgb(97.647059%,97.647059%,97.647059%);fill-opacity:1;" d="M 54.882812 43.847656 C 54.90625 44.578125 54.667969 44.929688 54.445312 45.5625 L 54.054688 45.757812 C 53.734375 46.382812 54.085938 46.152344 53.859375 46.648438 C 53.355469 47.09375 52.339844 48.039062 52.015625 48.121094 C 51.773438 48.117188 52.171875 47.847656 52.230469 47.738281 C 51.558594 48.195312 51.6875 48.429688 50.667969 48.707031 L 50.636719 48.636719 C 48.109375 49.828125 44.605469 47.472656 44.648438 44.261719 C 44.625 44.464844 44.574219 44.417969 44.519531 44.496094 C 44.386719 42.839844 45.28125 41.179688 46.785156 40.507812 C 48.261719 39.777344 49.992188 40.078125 51.046875 41.058594 C 50.46875 40.296875 49.3125 39.496094 47.945312 39.570312 C 46.601562 39.59375 45.347656 40.445312 44.929688 41.367188 C 44.242188 41.800781 44.164062 43.03125 43.863281 43.257812 C 43.457031 46.21875 44.621094 47.492188 46.582031 49 C 46.890625 49.207031 46.667969 49.238281 46.710938 49.398438 C 46.0625 49.09375 45.460938 48.632812 44.972656 48.070312 C 45.234375 48.449219 45.511719 48.816406 45.878906 49.109375 C 45.257812 48.902344 44.4375 47.621094 44.199219 47.566406 C 45.261719 49.464844 48.5 50.894531 50.191406 50.183594 C 49.40625 50.214844 48.414062 50.203125 47.535156 49.875 C 47.160156 49.6875 46.65625 49.289062 46.75 49.214844 C 49.058594 50.078125 51.457031 49.871094 53.453125 48.265625 C 53.960938 47.867188 54.519531 47.191406 54.683594 47.1875 C 54.4375 47.546875 54.71875 47.359375 54.535156 47.683594 C 55.042969 46.863281 54.316406 47.351562 55.0625 46.269531 L 55.339844 46.648438 C 55.234375 45.964844 56.179688 45.140625 56.085938 44.066406 C 56.300781 43.734375 56.328125 44.421875 56.101562 45.175781 C 56.417969 44.335938 56.179688 44.203125 56.265625 43.507812 C 56.351562 43.738281 56.46875 43.992188 56.527344 44.238281 C 56.320312 43.421875 56.742188 42.871094 56.847656 42.398438 C 56.742188 42.355469 56.523438 42.753906 56.472656 41.796875 C 56.480469 41.371094 56.589844 41.582031 56.632812 41.480469 C 56.554688 41.429688 56.339844 41.113281 56.207031 40.5 C 56.304688 40.359375 56.460938 40.871094 56.589844 40.898438 C 56.503906 40.40625 56.363281 40.039062 56.359375 39.667969 C 55.980469 38.882812 56.222656 39.769531 55.917969 39.328125 C 55.519531 38.085938 56.25 39.039062 56.304688 38.472656 C 56.90625 39.355469 57.253906 40.714844 57.414062 41.277344 C 57.289062 40.585938 57.09375 39.921875 56.855469 39.28125 C 57.039062 39.355469 56.5625 37.867188 57.09375 38.851562 C 56.523438 36.75 54.648438 34.785156 52.921875 33.859375 C 53.132812 34.046875 53.398438 34.292969 53.300781 34.332031 C 52.445312 33.820312 52.597656 33.777344 52.476562 33.5625 C 51.769531 33.28125 51.726562 33.589844 51.261719 33.5625 C 49.945312 32.867188 49.695312 32.941406 48.484375 32.503906 L 48.539062 32.761719 C 47.65625 32.464844 47.523438 32.871094 46.582031 32.761719 C 46.519531 32.71875 46.875 32.601562 47.175781 32.558594 C 46.335938 32.667969 46.371094 32.386719 45.546875 32.589844 C 45.746094 32.441406 45.96875 32.351562 46.179688 32.230469 C 45.488281 32.273438 44.53125 32.628906 44.835938 32.304688 C 43.710938 32.804688 41.714844 33.511719 40.59375 34.558594 L 40.5625 34.328125 C 40.046875 34.941406 38.320312 36.164062 38.179688 36.960938 L 38.042969 36.992188 C 37.773438 37.445312 37.601562 37.957031 37.386719 38.421875 C 37.039062 39.015625 36.878906 38.652344 36.929688 38.746094 C 36.242188 40.136719 35.898438 41.308594 35.605469 42.269531 C 35.820312 42.582031 35.609375 44.15625 35.691406 45.421875 C 35.347656 51.648438 40.058594 57.695312 45.210938 59.085938 C 45.972656 59.363281 47.09375 59.351562 48.050781 59.375 C 46.921875 59.054688 46.773438 59.210938 45.679688 58.824219 C 44.886719 58.449219 44.714844 58.027344 44.152344 57.535156 L 44.371094 57.929688 C 43.277344 57.542969 43.734375 57.445312 42.839844 57.164062 L 43.074219 56.859375 C 42.714844 56.828125 42.128906 56.257812 41.96875 55.9375 L 41.578125 55.949219 C 41.113281 55.375 40.859375 54.957031 40.878906 54.632812 L 40.75 54.859375 C 40.609375 54.617188 39.027344 52.691406 39.851562 53.136719 C 39.695312 52.996094 39.496094 52.910156 39.273438 52.507812 L 39.441406 52.316406 C 39.046875 51.808594 38.714844 51.160156 38.742188 50.945312 C 38.949219 51.226562 39.097656 51.28125 39.242188 51.332031 C 38.246094 48.855469 38.1875 51.191406 37.429688 48.8125 L 37.59375 48.792969 C 37.472656 48.609375 37.398438 48.414062 37.296875 48.21875 L 37.367188 47.519531 C 36.652344 46.707031 37.167969 43.992188 37.269531 42.519531 C 37.335938 41.90625 37.871094 41.277344 38.269531 40.265625 L 38.023438 40.226562 C 38.492188 39.40625 40.695312 36.957031 41.714844 37.074219 C 42.210938 36.457031 41.613281 37.074219 41.519531 36.914062 C 42.601562 35.792969 42.945312 36.125 43.675781 35.921875 C 44.464844 35.449219 43 36.105469 43.378906 35.746094 C 44.738281 35.394531 44.347656 34.949219 46.125 34.777344 C 46.316406 34.882812 45.691406 34.941406 45.53125 35.078125 C 46.671875 34.519531 49.132812 34.648438 50.726562 35.390625 C 52.585938 36.253906 54.660156 38.816406 54.753906 41.230469 L 54.84375 41.253906 C 54.796875 42.210938 54.992188 43.320312 54.65625 44.335938 L 54.886719 43.859375 "/>
<path style=" stroke:none;fill-rule:nonzero;fill:rgb(0%,0%,0%);fill-opacity:0.25098;" d="M 17.179688 12.914062 C 17.179688 14.53125 15.867188 15.847656 14.25 15.847656 C 12.628906 15.847656 11.316406 14.53125 11.316406 12.914062 C 11.316406 11.296875 12.628906 9.980469 14.25 9.980469 C 15.867188 9.980469 17.179688 11.296875 17.179688 12.914062 M 17.179688 12.914062 "/>
<path style=" stroke:none;fill-rule:nonzero;fill:rgb(0%,0%,0%);fill-opacity:0.25098;" d="M 52.683594 13.121094 C 52.683594 14.738281 51.371094 16.050781 49.75 16.050781 C 48.132812 16.050781 46.820312 14.738281 46.820312 13.121094 C 46.820312 11.5 48.132812 10.1875 49.75 10.1875 C 51.371094 10.1875 52.683594 11.5 52.683594 13.121094 M 52.683594 13.121094 "/>
<path style=" stroke:none;fill-rule:nonzero;fill:rgb(100%,100%,100%);fill-opacity:1;" d="M 13.789062 14.804688 C 19.652344 46.082031 45.0625 46.082031 50.917969 14.804688 C 51.332031 12.175781 49.527344 12.125 48.972656 14.804688 C 45.0625 43.300781 19.652344 43.148438 15.742188 14.804688 C 15.382812 12.230469 13.4375 12.339844 13.796875 14.804688 M 13.796875 14.804688 "/>
</g>
</svg>
