
<svg xmlns="http://www.w3.org/2000/svg" xmlns:xlink="http://www.w3.org/1999/xlink" width="64px" height="64px" viewBox="0 0 64 64" version="1.1">
<g id="surface1">
<path style=" stroke:none;fill-rule:evenodd;fill:rgb(80.392157%,61.176471%,42.745098%);fill-opacity:1;" d="M 10.191406 3.875 L 53.808594 3.875 C 57.296875 3.875 60.125 6.703125 60.125 10.191406 L 60.125 53.808594 C 60.125 57.296875 57.296875 60.125 53.808594 60.125 L 10.191406 60.125 C 6.703125 60.125 3.875 57.296875 3.875 53.808594 L 3.875 10.191406 C 3.875 6.703125 6.703125 3.875 10.191406 3.875 Z M 10.191406 3.875 "/>
<path style=" stroke:none;fill-rule:nonzero;fill:rgb(41.568627%,30.196078%,21.960784%);fill-opacity:1;" d="M 29.402344 43.355469 C 27.019531 42.972656 24.34375 41.570312 22.609375 39.792969 C 20.011719 37.140625 18.667969 33.242188 19.09375 29.589844 C 19.78125 23.652344 24.230469 19.117188 30.046875 18.433594 C 33.78125 17.992188 37.59375 19.34375 40.226562 22.035156 C 42.851562 24.730469 44.199219 28.609375 43.773438 32.28125 C 43.207031 37.167969 40.175781 41.0625 35.609375 42.769531 C 33.671875 43.496094 31.53125 43.695312 29.402344 43.355469 Z M 34.253906 40.480469 C 37.582031 39.359375 40.273438 36.402344 41.140625 32.914062 C 41.367188 31.992188 41.371094 29.882812 41.140625 28.941406 C 40.300781 25.476562 37.597656 22.523438 34.214844 21.367188 C 33.0625 20.972656 32.792969 20.929688 31.433594 20.933594 C 30.15625 20.9375 29.753906 20.992188 28.8125 21.296875 C 26.3125 22.109375 24.414062 23.628906 22.980469 25.964844 C 21.578125 28.242188 21.175781 30.726562 21.804688 33.203125 C 22.765625 36.980469 26.269531 40.230469 30.089844 40.890625 C 31.261719 41.089844 32.917969 40.925781 34.253906 40.480469 Z M 29.457031 35.621094 C 28.417969 34.476562 26.988281 32.910156 26.277344 32.136719 C 24.527344 30.230469 24.160156 29.753906 24.378906 29.671875 C 24.476562 29.636719 25.46875 29.589844 26.585938 29.574219 L 28.617188 29.539062 L 28.679688 26.816406 L 28.746094 24.09375 L 30.089844 24.027344 C 30.828125 23.992188 32.035156 23.992188 32.777344 24.027344 L 34.117188 24.09375 L 34.25 29.539062 L 36.28125 29.574219 C 37.398438 29.589844 38.390625 29.636719 38.484375 29.671875 C 38.707031 29.753906 38.335938 30.230469 36.585938 32.136719 C 35.878906 32.910156 34.449219 34.476562 33.410156 35.621094 C 32.371094 36.769531 31.480469 37.707031 31.433594 37.707031 C 31.382812 37.707031 30.496094 36.769531 29.457031 35.621094 Z M 29.457031 35.621094 "/>
<path style=" stroke:none;fill-rule:evenodd;fill:rgb(89.019608%,76.862745%,66.27451%);fill-opacity:1;" d="M 26.929688 54.789062 L 35.984375 54.789062 C 36.132812 54.789062 36.25 54.90625 36.25 55.054688 L 36.25 59.851562 C 36.25 60 36.132812 60.117188 35.984375 60.117188 L 26.929688 60.117188 C 26.78125 60.117188 26.660156 60 26.660156 59.851562 L 26.660156 55.054688 C 26.660156 54.90625 26.78125 54.789062 26.929688 54.789062 Z M 26.929688 54.789062 "/>
<path style=" stroke:none;fill-rule:evenodd;fill:rgb(89.019608%,76.862745%,66.27451%);fill-opacity:1;" d="M 27.039062 3.875 L 36.09375 3.875 C 36.238281 3.875 36.359375 3.996094 36.359375 4.140625 L 36.359375 8.9375 C 36.359375 9.085938 36.238281 9.207031 36.09375 9.207031 L 27.039062 9.207031 C 26.890625 9.207031 26.769531 9.085938 26.769531 8.9375 L 26.769531 4.140625 C 26.769531 3.996094 26.890625 3.875 27.039062 3.875 Z M 27.039062 3.875 "/>
</g>
</svg>
