
<svg xmlns="http://www.w3.org/2000/svg" xmlns:xlink="http://www.w3.org/1999/xlink" width="64px" height="64px" viewBox="0 0 64 64" version="1.1">
<g id="surface1">
<path style="fill-rule:nonzero;fill:rgb(20.392157%,59.607843%,85.882353%);fill-opacity:1;stroke-width:2.680109;stroke-linecap:butt;stroke-linejoin:miter;stroke:rgb(6.666667%,20.392157%,31.372549%);stroke-opacity:1;stroke-miterlimit:4;" d="M 7.409179 2.047851 L 40.590819 2.047851 C 43.552733 2.047851 45.952147 4.447265 45.952147 7.409179 L 45.952147 40.590819 C 45.952147 43.552733 43.552733 45.952147 40.590819 45.952147 L 7.409179 45.952147 C 4.447265 45.952147 2.047851 43.552733 2.047851 40.590819 L 2.047851 7.409179 C 2.047851 4.447265 4.447265 2.047851 7.409179 2.047851 Z M 7.409179 2.047851 " transform="matrix(1.333333,0,0,1.333333,0,0)"/>
<path style=" stroke:none;fill-rule:nonzero;fill:rgb(20.392157%,59.607843%,85.882353%);fill-opacity:1;" d="M 32 5.265625 C 46.765625 5.265625 58.734375 17.234375 58.734375 32 C 58.734375 46.765625 46.765625 58.734375 32 58.734375 C 17.234375 58.734375 5.265625 46.765625 5.265625 32 C 5.265625 17.234375 17.234375 5.265625 32 5.265625 Z M 32 5.265625 "/>
<path style=" stroke:none;fill-rule:nonzero;fill:rgb(92.54902%,94.117647%,94.509804%);fill-opacity:1;" d="M 17.191406 18.332031 L 31.347656 18.332031 L 31.347656 29.339844 L 17.191406 29.339844 Z M 17.191406 18.332031 "/>
<path style=" stroke:none;fill-rule:nonzero;fill:rgb(92.54902%,94.117647%,94.509804%);fill-opacity:1;" d="M 23.289062 29.339844 L 24.859375 29.339844 L 24.859375 41.921875 L 23.289062 41.921875 Z M 23.289062 29.339844 "/>
<path style=" stroke:none;fill-rule:nonzero;fill:rgb(92.54902%,94.117647%,94.509804%);fill-opacity:1;" d="M 40.585938 40.347656 L 40.585938 41.921875 L 23.289062 41.921875 L 23.289062 40.347656 Z M 40.585938 40.347656 "/>
<path style=" stroke:none;fill-rule:nonzero;fill:rgb(60.784314%,34.901961%,71.372549%);fill-opacity:1;" d="M 36.0625 18.332031 L 43.925781 18.332031 L 43.925781 24.625 L 36.0625 24.625 Z M 36.0625 18.332031 "/>
<path style=" stroke:none;fill-rule:nonzero;fill:rgb(92.54902%,94.117647%,94.509804%);fill-opacity:1;" d="M 39.210938 24.625 L 40.78125 24.625 L 40.78125 37.203125 L 39.210938 37.203125 Z M 39.210938 24.625 "/>
<path style=" stroke:none;fill-rule:nonzero;fill:rgb(20.392157%,28.627451%,36.862745%);fill-opacity:1;" d="M 39.996094 35.632812 C 43.035156 35.632812 45.5 38.09375 45.5 41.136719 C 45.5 44.175781 43.035156 46.640625 39.996094 46.640625 C 36.957031 46.640625 34.492188 44.175781 34.492188 41.136719 C 34.492188 38.09375 36.957031 35.632812 39.996094 35.632812 Z M 39.996094 35.632812 "/>
</g>
</svg>
