
<svg xmlns="http://www.w3.org/2000/svg" xmlns:xlink="http://www.w3.org/1999/xlink" width="64px" height="64px" viewBox="0 0 64 64" version="1.1">
<g id="surface1">
<path style="fill-rule:nonzero;fill:rgb(72.156863%,0%,0%);fill-opacity:1;stroke-width:1.199;stroke-linecap:butt;stroke-linejoin:miter;stroke:rgb(0%,0%,0%);stroke-opacity:1;stroke-miterlimit:4;" d="M 68.375 11.9375 L 443.625 11.9375 C 474.8125 11.9375 500.0625 37.1875 500.0625 68.375 L 500.0625 443.625 C 500.0625 474.8125 474.8125 500.0625 443.625 500.0625 L 68.375 500.0625 C 37.1875 500.0625 11.9375 474.8125 11.9375 443.625 L 11.9375 68.375 C 11.9375 37.1875 37.1875 11.9375 68.375 11.9375 Z M 68.375 11.9375 " transform="matrix(0.125,0,0,0.125,0,0)"/>
<path style=" stroke:none;fill-rule:nonzero;fill:rgb(100%,33.333333%,33.333333%);fill-opacity:1;" d="M 7.554688 4.960938 L 56.445312 4.960938 C 57.878906 4.960938 59.039062 6.121094 59.039062 7.554688 L 59.039062 56.445312 C 59.039062 57.878906 57.878906 59.039062 56.445312 59.039062 L 7.554688 59.039062 C 6.121094 59.039062 4.960938 57.878906 4.960938 56.445312 L 4.960938 7.554688 C 4.960938 6.121094 6.121094 4.960938 7.554688 4.960938 Z M 7.554688 4.960938 "/>
<path style=" stroke:none;fill-rule:nonzero;fill:rgb(100%,100%,100%);fill-opacity:1;" d="M 13.21875 13.304688 L 13.21875 18.144531 C 13.257812 18.164062 13.292969 18.183594 13.324219 18.203125 L 21.710938 23.671875 C 22.097656 23.925781 22.097656 24.335938 21.710938 24.585938 L 13.324219 30.058594 C 13.292969 30.078125 13.257812 30.097656 13.21875 30.117188 L 13.21875 34.957031 C 13.457031 34.902344 13.683594 34.8125 13.871094 34.6875 L 27.785156 25.613281 L 27.785156 22.78125 C 27.785156 22.738281 27.789062 22.695312 27.792969 22.652344 L 13.871094 13.570312 C 13.683594 13.449219 13.457031 13.359375 13.21875 13.304688 Z M 13.21875 13.304688 "/>
<path style=" stroke:none;fill-rule:nonzero;fill:rgb(100%,100%,100%);fill-opacity:1;" d="M 20.390625 36.320312 L 36.277344 36.320312 L 36.277344 40.816406 L 20.390625 40.816406 Z M 20.390625 36.320312 "/>
</g>
</svg>
