
<svg xmlns="http://www.w3.org/2000/svg" xmlns:xlink="http://www.w3.org/1999/xlink" width="64px" height="64px" viewBox="0 0 64 64" version="1.1">
<g id="surface1">
<path style="fill-rule:nonzero;fill:rgb(60.784314%,34.901961%,71.372549%);fill-opacity:1;stroke-width:1.980376;stroke-linecap:butt;stroke-linejoin:miter;stroke:rgb(6.666667%,20.392157%,31.372549%);stroke-opacity:1;stroke-miterlimit:4;" d="M -32.31596 377.108238 L -7.797902 377.108238 C -5.61068 377.108238 -3.835766 378.883152 -3.835766 381.070374 L -3.835766 405.588432 C -3.835766 407.775654 -5.61068 409.550568 -7.797902 409.550568 L -32.31596 409.550568 C -34.503182 409.550568 -36.278096 407.775654 -36.278096 405.588432 L -36.278096 381.070374 C -36.278096 378.883152 -34.503182 377.108238 -32.31596 377.108238 Z M -32.31596 377.108238 " transform="matrix(1.771653,0,0,1.771653,67.533929,-664.843364)"/>
<path style=" stroke:none;fill-rule:nonzero;fill:rgb(92.54902%,94.117647%,94.509804%);fill-opacity:1;" d="M 20.445312 13.171875 L 20.445312 20.546875 L 13.144531 20.546875 L 13.144531 27.261719 L 20.445312 27.261719 L 20.445312 34.550781 L 27.21875 34.550781 L 27.21875 27.261719 L 34.519531 27.261719 L 34.519531 20.546875 L 27.21875 20.546875 L 27.21875 13.171875 Z M 20.445312 13.171875 "/>
<path style=" stroke:none;fill-rule:nonzero;fill:rgb(92.54902%,94.117647%,94.509804%);fill-opacity:1;" d="M 51.734375 33.546875 C 51.734375 37.085938 48.863281 39.957031 45.324219 39.957031 C 41.78125 39.957031 38.910156 37.085938 38.910156 33.546875 C 38.910156 30.003906 41.78125 27.132812 45.324219 27.132812 C 48.863281 27.132812 51.734375 30.003906 51.734375 33.546875 Z M 51.734375 33.546875 "/>
<path style=" stroke:none;fill-rule:nonzero;fill:rgb(49.803922%,54.901961%,55.294118%);fill-opacity:1;" d="M 47.492188 37.820312 L 46.875 35.792969 L 43.769531 35.792969 L 43.152344 37.820312 L 41.207031 37.820312 L 44.214844 29.269531 L 46.421875 29.269531 L 49.4375 37.820312 L 47.492188 37.820312 M 46.445312 34.277344 C 45.875 32.441406 45.550781 31.402344 45.476562 31.160156 C 45.40625 30.921875 45.355469 30.730469 45.328125 30.589844 C 45.199219 31.089844 44.832031 32.316406 44.226562 34.277344 L 46.445312 34.277344 "/>
<path style=" stroke:none;fill-rule:nonzero;fill:rgb(92.54902%,94.117647%,94.509804%);fill-opacity:1;" d="M 37.371094 45.238281 C 37.371094 48.78125 34.5 51.652344 30.957031 51.652344 C 27.414062 51.652344 24.542969 48.78125 24.542969 45.238281 C 24.542969 41.695312 27.414062 38.828125 30.957031 38.828125 C 34.5 38.828125 37.371094 41.695312 37.371094 45.238281 Z M 37.371094 45.238281 "/>
<path style=" stroke:none;fill-rule:nonzero;fill:rgb(49.803922%,54.901961%,55.294118%);fill-opacity:1;" d="M 27.789062 40.964844 L 30.449219 40.964844 C 31.660156 40.964844 32.539062 41.136719 33.085938 41.484375 C 33.636719 41.828125 33.910156 42.375 33.910156 43.128906 C 33.910156 43.640625 33.789062 44.058594 33.546875 44.386719 C 33.3125 44.710938 32.992188 44.910156 32.59375 44.976562 L 32.59375 45.035156 C 33.136719 45.15625 33.527344 45.382812 33.765625 45.714844 C 34.007812 46.042969 34.128906 46.484375 34.128906 47.035156 C 34.128906 47.816406 33.84375 48.421875 33.28125 48.859375 C 32.71875 49.296875 31.953125 49.515625 30.988281 49.515625 L 27.789062 49.515625 L 27.789062 40.964844 M 29.601562 44.351562 L 30.652344 44.351562 C 31.144531 44.351562 31.5 44.273438 31.71875 44.121094 C 31.941406 43.96875 32.050781 43.71875 32.050781 43.367188 C 32.050781 43.039062 31.929688 42.804688 31.6875 42.664062 C 31.449219 42.523438 31.074219 42.449219 30.554688 42.449219 L 29.601562 42.449219 L 29.601562 44.351562 M 29.601562 45.789062 L 29.601562 48.019531 L 30.78125 48.019531 C 31.28125 48.019531 31.648438 47.921875 31.886719 47.730469 C 32.125 47.539062 32.246094 47.246094 32.246094 46.851562 C 32.246094 46.144531 31.738281 45.789062 30.722656 45.789062 L 29.601562 45.789062 "/>
</g>
</svg>
