
<svg xmlns="http://www.w3.org/2000/svg" xmlns:xlink="http://www.w3.org/1999/xlink" width="64px" height="64px" viewBox="0 0 64 64" version="1.1">
<g id="surface1">
<path style="fill-rule:nonzero;fill:rgb(39.607843%,59.607843%,0%);fill-opacity:1;stroke-width:55.679031;stroke-linecap:butt;stroke-linejoin:miter;stroke:rgb(94.901961%,94.901961%,94.901961%);stroke-opacity:1;stroke-miterlimit:4;" d="M 167.3125 55.9375 L 856.6875 55.9375 C 918.1875 55.9375 968.0625 105.8125 968.0625 167.3125 L 968.0625 856.6875 C 968.0625 918.1875 918.1875 968.0625 856.6875 968.0625 L 167.3125 968.0625 C 105.8125 968.0625 55.9375 918.1875 55.9375 856.6875 L 55.9375 167.3125 C 55.9375 105.8125 105.8125 55.9375 167.3125 55.9375 Z M 167.3125 55.9375 " transform="matrix(0.0625,0,0,0.0625,0,0)"/>
<path style=" stroke:none;fill-rule:evenodd;fill:rgb(94.901961%,94.901961%,94.901961%);fill-opacity:1;" d="M 55.527344 31.9375 C 55.527344 19.015625 45.050781 8.542969 32.132812 8.542969 C 19.210938 8.542969 8.738281 19.015625 8.738281 31.9375 C 8.738281 44.855469 19.210938 55.328125 32.132812 55.328125 C 45.050781 55.328125 55.527344 44.855469 55.527344 31.9375 Z M 55.527344 31.9375 "/>
<path style=" stroke:none;fill-rule:nonzero;fill:rgb(39.607843%,59.607843%,0%);fill-opacity:1;" d="M 30.289062 57.050781 C 29.085938 56.9375 28.546875 56.875 28.042969 56.796875 C 23.769531 56.125 20.03125 54.492188 16.699219 51.839844 C 12.191406 48.25 9.09375 43.617188 7.785156 38.496094 C 7.191406 36.183594 7.011719 34.652344 7.011719 31.957031 C 7.011719 29.734375 7.078125 28.921875 7.398438 27.175781 C 8.429688 21.558594 11.320312 16.648438 15.90625 12.722656 C 20.488281 8.804688 25.90625 6.828125 32.082031 6.828125 C 39.058594 6.824219 44.953125 9.265625 49.875 14.191406 C 54.328125 18.640625 56.707031 23.789062 57.179688 29.980469 C 57.273438 31.203125 57.222656 33.910156 57.085938 35.019531 C 56.300781 41.386719 53.484375 46.652344 48.5625 50.972656 C 44.699219 54.363281 40.359375 56.300781 35.203125 56.933594 C 34.421875 57.03125 30.9375 57.113281 30.289062 57.050781 Z M 42.5625 33.464844 C 47.433594 17.230469 47.625 16.566406 47.507812 16.480469 C 47.40625 16.40625 46.632812 16.394531 42.75 16.410156 C 40.199219 16.417969 38.09375 16.445312 38.070312 16.46875 C 38.050781 16.492188 36.699219 21.523438 35.070312 27.652344 C 33.445312 33.785156 32.097656 38.8125 32.082031 38.832031 C 32.0625 38.847656 32.027344 38.78125 32.003906 38.679688 C 31.980469 38.578125 30.75 33.550781 29.269531 27.511719 C 27.789062 21.46875 26.558594 16.5 26.53125 16.476562 C 26.476562 16.417969 17.503906 16.371094 17.195312 16.425781 C 17.039062 16.457031 16.992188 16.496094 16.992188 16.601562 C 16.992188 16.75 26.410156 50.101562 26.503906 50.28125 C 26.558594 50.386719 26.871094 50.394531 32.027344 50.375 L 37.492188 50.359375 Z M 42.5625 33.464844 "/>
</g>
</svg>
