
<svg xmlns="http://www.w3.org/2000/svg" xmlns:xlink="http://www.w3.org/1999/xlink" width="64px" height="64px" viewBox="0 0 64 64" version="1.1">
<g id="surface1">
<path style="fill-rule:nonzero;fill:rgb(96.078431%,96.078431%,96.078431%);fill-opacity:1;stroke-width:28.097435;stroke-linecap:butt;stroke-linejoin:miter;stroke:rgb(60%,60%,60%);stroke-opacity:1;stroke-miterlimit:4;" d="M 82.0625 25.875 L 429.9375 25.875 C 460.96875 25.875 486.125 51.03125 486.125 82.0625 L 486.125 429.9375 C 486.125 460.96875 460.96875 486.125 429.9375 486.125 L 82.0625 486.125 C 51.03125 486.125 25.875 460.96875 25.875 429.9375 L 25.875 82.0625 C 25.875 51.03125 51.03125 25.875 82.0625 25.875 Z M 82.0625 25.875 " transform="matrix(0.125,0,0,0.125,0,0)"/>
<path style=" stroke:none;fill-rule:nonzero;fill:rgb(60%,60%,60%);fill-opacity:1;" d="M 24.410156 52.242188 C 23.886719 51.9375 23.601562 51.414062 23.601562 50.75 C 23.601562 50 23.875 49.480469 24.417969 49.191406 C 24.804688 48.988281 24.859375 48.984375 27.734375 48.984375 C 29.886719 48.984375 30.683594 48.953125 30.765625 48.875 C 30.847656 48.792969 30.875 47.253906 30.875 42.515625 L 30.875 36.261719 L 30.351562 35.988281 C 28.910156 35.238281 28.152344 33.871094 28.265625 32.226562 C 28.355469 30.882812 29.097656 29.78125 30.359375 29.113281 C 30.957031 28.796875 31.082031 28.765625 31.882812 28.734375 C 32.933594 28.6875 33.523438 28.835938 34.242188 29.3125 C 35.269531 29.996094 35.859375 31.042969 35.941406 32.3125 C 36.03125 33.777344 35.453125 34.945312 34.214844 35.773438 L 33.601562 36.183594 L 33.601562 42.472656 C 33.601562 47.246094 33.625 48.792969 33.710938 48.875 C 33.789062 48.953125 34.585938 48.984375 36.726562 48.984375 C 39.433594 48.984375 39.65625 48.996094 40.003906 49.164062 C 40.5625 49.433594 40.871094 49.96875 40.871094 50.667969 C 40.871094 51.417969 40.597656 51.941406 40.054688 52.226562 L 39.660156 52.4375 L 32.199219 52.433594 C 24.804688 52.433594 24.734375 52.429688 24.410156 52.242188 Z M 24.410156 52.242188 "/>
<path style=" stroke:none;fill-rule:nonzero;fill:rgb(47.058824%,73.72549%,55.686275%);fill-opacity:1;" d="M 45.734375 47.9375 C 45.632812 47.910156 45.4375 47.785156 45.300781 47.65625 C 45.101562 47.46875 45.050781 47.335938 45.050781 47.027344 C 45.050781 46.65625 45.101562 46.582031 45.882812 45.75 C 48.789062 42.648438 50.554688 38.878906 51.058594 34.707031 C 51.191406 33.582031 51.117188 30.519531 50.925781 29.457031 C 50.210938 25.4375 48.390625 21.902344 45.605469 19.113281 C 44.460938 17.964844 44.007812 17.585938 42.914062 16.851562 C 38.066406 13.589844 32.300781 12.65625 26.816406 14.242188 C 23.402344 15.230469 20.117188 17.300781 17.835938 19.910156 C 15.296875 22.804688 13.699219 26.339844 13.183594 30.183594 C 12.988281 31.621094 13.0625 34.5625 13.328125 35.910156 C 14.070312 39.730469 15.644531 42.847656 18.304688 45.761719 C 18.800781 46.300781 18.875 46.433594 18.875 46.734375 C 18.875 47.34375 18.425781 47.699219 17.71875 47.648438 C 17.460938 47.632812 16.679688 46.855469 15.742188 45.679688 C 14.84375 44.558594 14.726562 44.394531 14.128906 43.394531 C 13.132812 41.738281 12.613281 40.5625 12.015625 38.59375 C 10.75 34.441406 10.871094 29.65625 12.34375 25.542969 C 13.046875 23.574219 13.613281 22.441406 14.730469 20.78125 C 15.78125 19.210938 17.746094 17.132812 19.351562 15.882812 C 20.175781 15.246094 21.820312 14.222656 22.921875 13.667969 C 24.316406 12.960938 26.671875 12.21875 28.648438 11.867188 C 29.601562 11.695312 32.269531 11.539062 33.191406 11.605469 C 38.335938 11.964844 42.644531 13.769531 46.277344 17.09375 C 47.132812 17.878906 48.882812 19.871094 49.277344 20.507812 C 49.371094 20.65625 49.519531 20.859375 49.605469 20.960938 C 49.890625 21.289062 50.851562 23.0625 51.402344 24.277344 C 51.933594 25.449219 52.566406 27.675781 52.824219 29.277344 C 53.058594 30.746094 53.101562 33.523438 52.914062 35.109375 C 52.644531 37.371094 51.871094 40 50.902344 41.933594 C 50.046875 43.644531 48.519531 45.785156 47.144531 47.203125 C 46.457031 47.914062 46.183594 48.054688 45.734375 47.9375 Z M 21.121094 43.53125 C 20.773438 43.246094 19.800781 42.09375 19.285156 41.355469 C 18.332031 39.988281 17.554688 38.289062 17.117188 36.613281 C 16.714844 35.078125 16.648438 34.5 16.652344 32.503906 C 16.652344 30.308594 16.800781 29.351562 17.414062 27.546875 C 17.917969 26.054688 18.21875 25.441406 19.089844 24.121094 C 21.9375 19.789062 26.253906 17.339844 31.507812 17.058594 C 35.601562 16.84375 39.929688 18.480469 42.847656 21.355469 C 45.058594 23.53125 46.332031 25.675781 47.175781 28.640625 C 47.675781 30.402344 47.785156 33.335938 47.421875 35.320312 C 47.039062 37.398438 46.117188 39.652344 45.019531 41.183594 C 43.921875 42.71875 43.34375 43.351562 42.949219 43.457031 C 42.5 43.578125 42.304688 43.519531 42.011719 43.171875 C 41.621094 42.710938 41.6875 42.300781 42.242188 41.664062 C 45.960938 37.4375 46.804688 31.648438 44.417969 26.734375 C 42.542969 22.878906 39.316406 20.289062 35.144531 19.296875 C 30.929688 18.292969 26.421875 19.449219 23.042969 22.402344 C 21.789062 23.496094 20.507812 25.207031 19.8125 26.710938 C 19.3125 27.785156 18.808594 29.433594 18.65625 30.46875 C 18.042969 34.640625 19.296875 38.757812 22.128906 41.855469 C 22.398438 42.148438 22.652344 42.488281 22.699219 42.605469 C 22.910156 43.160156 22.421875 43.820312 21.800781 43.816406 C 21.566406 43.8125 21.367188 43.730469 21.121094 43.53125 Z M 24.769531 39.796875 C 24.585938 39.632812 24.25 39.269531 24.023438 38.988281 C 21.820312 36.222656 21.214844 32.445312 22.417969 28.96875 C 23.082031 27.050781 24.828125 24.945312 26.738281 23.761719 C 27.757812 23.128906 28.445312 22.84375 29.699219 22.535156 C 30.4375 22.355469 30.78125 22.324219 32.191406 22.328125 C 33.75 22.328125 33.875 22.34375 34.832031 22.617188 C 36.789062 23.175781 37.894531 23.832031 39.371094 25.316406 C 40.210938 26.164062 40.582031 26.617188 40.984375 27.292969 C 41.273438 27.777344 41.507812 28.210938 41.507812 28.257812 C 41.507812 28.304688 41.59375 28.542969 41.703125 28.785156 C 41.808594 29.027344 41.996094 29.613281 42.125 30.089844 C 42.324219 30.851562 42.351562 31.15625 42.359375 32.546875 C 42.367188 34.019531 42.347656 34.210938 42.113281 35.09375 C 41.664062 36.761719 40.957031 38.105469 39.917969 39.253906 C 39.613281 39.589844 39.484375 39.664062 39.140625 39.703125 C 38.753906 39.746094 38.707031 39.726562 38.433594 39.417969 C 37.992188 38.910156 38.035156 38.636719 38.6875 37.769531 C 39.898438 36.164062 40.507812 34.433594 40.507812 32.585938 C 40.507812 28.59375 37.707031 25.167969 33.75 24.316406 C 32.683594 24.089844 30.835938 24.171875 29.738281 24.5 C 27.414062 25.191406 25.496094 26.863281 24.425781 29.136719 C 23.738281 30.59375 23.515625 32.65625 23.875 34.234375 C 24.226562 35.769531 24.804688 36.917969 25.890625 38.238281 C 26.515625 38.996094 26.578125 39.34375 26.183594 39.8125 C 25.984375 40.050781 25.886719 40.09375 25.527344 40.089844 C 25.179688 40.089844 25.042969 40.035156 24.769531 39.796875 Z M 31.476562 34.324219 C 30.351562 33.921875 29.886719 32.488281 30.570312 31.519531 C 30.945312 30.988281 31.429688 30.734375 32.082031 30.734375 C 33.851562 30.726562 34.628906 32.808594 33.296875 33.976562 C 32.773438 34.4375 32.136719 34.558594 31.476562 34.324219 Z M 31.476562 34.324219 "/>
<path style="fill-rule:nonzero;fill:rgb(100%,0%,0%);fill-opacity:1;stroke-width:3.417207;stroke-linecap:butt;stroke-linejoin:miter;stroke:rgb(100%,0%,0%);stroke-opacity:1;stroke-miterlimit:4;" d="M 252.75 274.5625 C 248.75 273.375 245.96875 270.90625 243.84375 266.78125 C 239.375 257.96875 245.28125 247.28125 255.21875 246.25 C 266.15625 245.125 274.3125 255.5625 270.40625 265.75 C 269.1875 268.96875 264.4375 273.46875 261.28125 274.4375 C 258.8125 275.15625 254.90625 275.25 252.75 274.5625 Z M 252.75 274.5625 " transform="matrix(0.125,0,0,0.125,0,0)"/>
</g>
</svg>
