
<svg xmlns="http://www.w3.org/2000/svg" xmlns:xlink="http://www.w3.org/1999/xlink" width="64px" height="64px" viewBox="0 0 64 64" version="1.1">
<g id="surface1">
<path style=" stroke:none;fill-rule:nonzero;fill:rgb(0%,50.196078%,50.196078%);fill-opacity:1;" d="M 6.621094 3.929688 L 57.378906 3.929688 C 58.867188 3.929688 60.070312 5.132812 60.070312 6.621094 L 60.070312 57.378906 C 60.070312 58.867188 58.867188 60.070312 57.378906 60.070312 L 6.621094 60.070312 C 5.132812 60.070312 3.929688 58.867188 3.929688 57.378906 L 3.929688 6.621094 C 3.929688 5.132812 5.132812 3.929688 6.621094 3.929688 Z M 6.621094 3.929688 "/>
<path style=" stroke:none;fill-rule:nonzero;fill:rgb(100%,100%,100%);fill-opacity:1;" d="M 12.503906 12.589844 L 12.503906 17.617188 C 12.539062 17.632812 12.578125 17.65625 12.613281 17.675781 L 21.316406 23.355469 C 21.722656 23.617188 21.722656 24.042969 21.316406 24.304688 L 12.613281 29.984375 C 12.578125 30.003906 12.539062 30.023438 12.503906 30.042969 L 12.503906 35.070312 C 12.75 35.011719 12.980469 34.921875 13.179688 34.789062 L 27.625 25.371094 L 27.625 22.429688 C 27.625 22.382812 27.628906 22.339844 27.632812 22.296875 L 13.179688 12.871094 C 12.980469 12.738281 12.75 12.648438 12.503906 12.589844 Z M 12.503906 12.589844 "/>
<path style=" stroke:none;fill-rule:nonzero;fill:rgb(100%,100%,100%);fill-opacity:1;" d="M 19.949219 36.484375 L 36.441406 36.484375 L 36.441406 41.152344 L 19.949219 41.152344 Z M 19.949219 36.484375 "/>
</g>
</svg>
