
<svg xmlns="http://www.w3.org/2000/svg" xmlns:xlink="http://www.w3.org/1999/xlink" width="48px" height="48px" viewBox="0 0 48 48" version="1.1">
<g id="surface2">
<path style=" stroke:none;fill-rule:nonzero;fill:rgb(83.137255%,10.196078%,10.196078%);fill-opacity:1;" d="M 12.867188 2.59375 C 9.625 2.59375 7.015625 5.203125 7.015625 8.445312 L 7.015625 39.558594 C 7.015625 42.796875 9.625 45.40625 12.867188 45.40625 L 35.132812 45.40625 C 38.375 45.40625 40.984375 42.796875 40.984375 39.558594 L 40.984375 9.53125 L 24.839844 2.59375 Z M 35.734375 2.621094 C 36.125 2.660156 36.511719 2.738281 36.875 2.855469 C 36.511719 2.738281 36.125 2.660156 35.734375 2.621094 Z M 36.875 2.855469 C 37.425781 3.023438 37.941406 3.273438 38.40625 3.589844 C 37.941406 3.273438 37.425781 3.023438 36.875 2.855469 Z M 38.859375 3.925781 C 39.003906 4.042969 39.140625 4.171875 39.273438 4.304688 C 39.140625 4.171875 39.003906 4.042969 38.859375 3.921875 Z M 38.859375 3.925781 "/>
<path style=" stroke:none;fill-rule:nonzero;fill:rgb(100%,100%,100%);fill-opacity:0.682353;" d="M 40.984375 9.53125 L 24.839844 2.59375 L 24.839844 3.679688 C 24.839844 6.921875 27.449219 9.53125 30.691406 9.53125 Z M 40.984375 9.53125 "/>
<path style=" stroke:none;fill-rule:nonzero;fill:rgb(100%,100%,100%);fill-opacity:1;" d="M 22.363281 17.0625 C 19.203125 17.0625 14.40625 20.433594 14.40625 24.210938 C 14.40625 27.363281 15.5 30.222656 17.695312 31.085938 C 15.535156 32.535156 13.574219 33.679688 11.109375 34.59375 C 14.019531 33.988281 16.597656 32.71875 19.242188 31.582031 C 24.023438 34.613281 29.992188 35.101562 38.527344 30.054688 L 38.589844 24.832031 C 30.992188 32.0625 25.988281 32.125 21.527344 30.695312 C 24.648438 29.222656 28.332031 25.542969 28.332031 22.59375 C 28.332031 18.816406 25.523438 17.0625 22.363281 17.0625 Z M 22.148438 18.59375 C 24.632812 18.59375 26.839844 19.972656 26.839844 22.941406 C 26.839844 25.90625 22.09375 29.828125 19.609375 29.828125 C 17.128906 29.828125 15.898438 27.179688 15.898438 24.210938 C 15.898438 21.242188 19.667969 18.59375 22.148438 18.59375 Z M 22.148438 18.59375 "/>
</g>
</svg>
