<?xml version="1.0" encoding="UTF-8"?>
<svg xmlns="http://www.w3.org/2000/svg" xmlns:xlink="http://www.w3.org/1999/xlink" width="48pt" height="48pt" viewBox="0 0 48 48" version="1.1">
<g id="surface1">
<path style=" stroke:none;fill-rule:nonzero;fill:rgb(94.901961%,94.901961%,94.901961%);fill-opacity:1;" d="M 12.867188 2.59375 C 9.625 2.59375 7.015625 5.203125 7.015625 8.445312 L 7.015625 39.558594 C 7.015625 42.796875 9.625 45.410156 12.867188 45.410156 L 35.132812 45.410156 C 38.375 45.410156 40.984375 42.796875 40.984375 39.558594 L 40.984375 9.53125 L 24.839844 2.59375 Z M 35.734375 2.621094 C 36.125 2.660156 36.511719 2.738281 36.878906 2.855469 C 36.511719 2.738281 36.125 2.660156 35.734375 2.621094 Z M 36.878906 2.855469 C 37.425781 3.023438 37.941406 3.273438 38.410156 3.589844 C 37.941406 3.273438 37.425781 3.023438 36.878906 2.855469 Z M 38.859375 3.925781 C 39.003906 4.042969 39.140625 4.171875 39.273438 4.304688 C 39.140625 4.171875 39.003906 4.042969 38.859375 3.921875 Z M 38.859375 3.925781 "/>
<path style=" stroke:none;fill-rule:nonzero;fill:rgb(100%,100%,100%);fill-opacity:0.682353;" d="M 40.984375 9.53125 L 24.839844 2.59375 L 24.839844 3.679688 C 24.839844 6.921875 27.449219 9.53125 30.691406 9.53125 Z M 40.984375 9.53125 "/>
</g>
</svg>
