
<svg xmlns="http://www.w3.org/2000/svg" xmlns:xlink="http://www.w3.org/1999/xlink" width="48px" height="48px" viewBox="0 0 48 48" version="1.1">
<g id="surface1">
<path style=" stroke:none;fill-rule:nonzero;fill:rgb(97.647059%,87.058824%,41.176471%);fill-opacity:1;" d="M 12.867188 2.59375 C 9.625 2.59375 7.015625 5.203125 7.015625 8.445312 L 7.015625 39.558594 C 7.015625 42.796875 9.625 45.40625 12.867188 45.40625 L 35.132812 45.40625 C 38.375 45.40625 40.984375 42.796875 40.984375 39.558594 L 40.984375 9.53125 L 24.839844 2.59375 Z M 35.734375 2.621094 C 36.125 2.660156 36.511719 2.738281 36.875 2.855469 C 36.511719 2.738281 36.125 2.660156 35.734375 2.621094 Z M 36.875 2.855469 C 37.425781 3.023438 37.941406 3.273438 38.40625 3.589844 C 37.941406 3.273438 37.425781 3.023438 36.875 2.855469 Z M 38.859375 3.925781 C 39.003906 4.042969 39.140625 4.171875 39.273438 4.304688 C 39.140625 4.171875 39.003906 4.042969 38.859375 3.921875 Z M 38.859375 3.925781 "/>
<path style=" stroke:none;fill-rule:nonzero;fill:rgb(100%,100%,100%);fill-opacity:0.682353;" d="M 40.984375 9.53125 L 24.839844 2.59375 L 24.839844 3.679688 C 24.839844 6.921875 27.449219 9.53125 30.691406 9.53125 Z M 40.984375 9.53125 "/>
<path style=" stroke:none;fill-rule:nonzero;fill:rgb(78.431373%,44.313725%,21.568627%);fill-opacity:1;" d="M 19.453125 22.1875 C 18.855469 22.550781 18.546875 23.207031 18.589844 23.847656 C 17.960938 23.804688 17.292969 24.128906 16.9375 24.734375 C 16.582031 25.335938 16.617188 26.0625 16.964844 26.570312 C 16.382812 26.859375 15.957031 27.472656 15.933594 28.152344 C 15.914062 28.839844 16.3125 29.421875 16.886719 29.667969 C 16.496094 30.203125 16.40625 30.914062 16.726562 31.496094 C 17.046875 32.078125 17.675781 32.351562 18.308594 32.265625 C 18.222656 32.910156 18.5 33.566406 19.078125 33.890625 C 19.648438 34.210938 20.367188 34.128906 20.890625 33.742188 C 21.136719 34.316406 21.714844 34.707031 22.386719 34.6875 C 22.6875 34.675781 22.96875 34.574219 23.21875 34.417969 L 26.566406 40.535156 L 27.589844 37.046875 L 30.96875 37.859375 L 27.617188 31.742188 C 27.867188 31.589844 28.09375 31.382812 28.253906 31.113281 C 28.609375 30.511719 28.574219 29.789062 28.226562 29.277344 C 28.808594 28.992188 29.234375 28.378906 29.253906 27.695312 C 29.277344 27.007812 28.875 26.429688 28.304688 26.183594 C 28.691406 25.648438 28.78125 24.9375 28.460938 24.351562 C 28.144531 23.769531 27.511719 23.496094 26.878906 23.582031 C 26.964844 22.9375 26.6875 22.28125 26.113281 21.957031 C 25.542969 21.636719 24.824219 21.71875 24.296875 22.105469 C 24.054688 21.535156 23.472656 21.140625 22.804688 21.164062 C 22.125 21.1875 21.527344 21.632812 21.246094 22.230469 C 20.746094 21.871094 20.046875 21.824219 19.453125 22.1875 Z M 20.617188 24.316406 C 22.644531 23.082031 25.164062 23.691406 26.25 25.671875 C 27.335938 27.652344 26.570312 30.253906 24.546875 31.488281 C 22.519531 32.722656 20 32.113281 18.914062 30.132812 C 17.832031 28.152344 18.59375 25.550781 20.617188 24.316406 Z M 21.011719 25.035156 C 19.390625 26.019531 18.78125 28.105469 19.648438 29.6875 C 20.515625 31.273438 22.535156 31.757812 24.152344 30.769531 C 25.773438 29.785156 26.382812 27.699219 25.515625 26.117188 C 24.648438 24.53125 22.632812 24.046875 21.011719 25.035156 Z M 21.011719 25.035156 "/>
</g>
</svg>
