
<svg xmlns="http://www.w3.org/2000/svg" xmlns:xlink="http://www.w3.org/1999/xlink" width="48px" height="48px" viewBox="0 0 48 48" version="1.1">
<g id="surface1">
<path style=" stroke:none;fill-rule:nonzero;fill:rgb(5.882353%,63.137255%,36.862745%);fill-opacity:0.996078;" d="M 12.867188 2.59375 C 9.625 2.59375 7.015625 5.203125 7.015625 8.445312 L 7.015625 39.558594 C 7.015625 42.796875 9.625 45.40625 12.867188 45.40625 L 35.132812 45.40625 C 38.375 45.40625 40.984375 42.796875 40.984375 39.558594 L 40.984375 9.53125 L 24.839844 2.59375 Z M 35.734375 2.621094 C 36.125 2.660156 36.511719 2.738281 36.875 2.855469 C 36.511719 2.738281 36.125 2.660156 35.734375 2.621094 Z M 36.875 2.855469 C 37.425781 3.023438 37.941406 3.273438 38.40625 3.589844 C 37.941406 3.273438 37.425781 3.023438 36.875 2.855469 Z M 38.859375 3.925781 C 39.003906 4.042969 39.140625 4.171875 39.273438 4.304688 C 39.140625 4.171875 39.003906 4.042969 38.859375 3.921875 Z M 38.859375 3.925781 "/>
<path style=" stroke:none;fill-rule:nonzero;fill:rgb(100%,100%,100%);fill-opacity:0.682353;" d="M 40.984375 9.53125 L 24.839844 2.59375 L 24.839844 3.679688 C 24.839844 6.921875 27.449219 9.53125 30.691406 9.53125 Z M 40.984375 9.53125 "/>
<path style=" stroke:none;fill-rule:nonzero;fill:rgb(100%,100%,100%);fill-opacity:1;" d="M 21.390625 18.78125 L 26.609375 18.78125 L 26.609375 25.738281 L 28.347656 25.738281 L 24 29.21875 L 19.652344 25.738281 L 21.390625 25.738281 Z M 21.390625 18.78125 "/>
<path style=" stroke:none;fill-rule:nonzero;fill:rgb(100%,100%,100%);fill-opacity:0.996078;" d="M 12.8125 30.339844 L 12.8125 35.84375 L 35.1875 35.84375 L 35.1875 30.339844 Z M 13.257812 30.703125 L 34.742188 30.703125 L 34.742188 35.480469 L 13.257812 35.480469 Z M 13.257812 30.703125 "/>
<path style=" stroke:none;fill-rule:nonzero;fill:rgb(100%,100%,100%);fill-opacity:0.996078;" d="M 13.125 30.398438 L 15.242188 30.398438 L 15.242188 35.78125 L 13.125 35.78125 Z M 13.125 30.398438 "/>
<path style=" stroke:none;fill-rule:nonzero;fill:rgb(100%,100%,100%);fill-opacity:0.996078;" d="M 15.847656 30.398438 L 17.964844 30.398438 L 17.964844 35.78125 L 15.847656 35.78125 Z M 15.847656 30.398438 "/>
<path style=" stroke:none;fill-rule:nonzero;fill:rgb(100%,100%,100%);fill-opacity:0.996078;" d="M 18.628906 30.398438 L 20.746094 30.398438 L 20.746094 35.78125 L 18.628906 35.78125 Z M 18.628906 30.398438 "/>
<path style=" stroke:none;fill-rule:nonzero;fill:rgb(100%,100%,100%);fill-opacity:0.996078;" d="M 21.289062 30.398438 L 23.40625 30.398438 L 23.40625 35.78125 L 21.289062 35.78125 Z M 21.289062 30.398438 "/>
<path style=" stroke:none;fill-rule:nonzero;fill:rgb(100%,100%,100%);fill-opacity:0.996078;" d="M 23.953125 30.398438 L 26.070312 30.398438 L 26.070312 35.78125 L 23.953125 35.78125 Z M 23.953125 30.398438 "/>
</g>
</svg>
