<?xml version="1.0" encoding="UTF-8"?>
<svg xmlns="http://www.w3.org/2000/svg" xmlns:xlink="http://www.w3.org/1999/xlink" width="512pt" height="512pt" viewBox="0 0 512 512" version="1.1">
<g id="surface1">
<path style=" stroke:#3B3434;fill-rule:nonzero;fill:rgb(80%,80%,80%);fill-opacity:1;" d="M 309.886719 42.441406 C 287.164062 42.441406 268.445312 63.34375 264.726562 90.976562 L 444.589844 90.976562 C 440.871094 63.34375 422.167969 42.441406 399.449219 42.441406 Z M 309.886719 42.441406 "/>
<path style=" stroke:none;fill-rule:nonzero;fill:#DCDC23;fill-opacity:1;" d="M 65.9375 98.757812 L 446.058594 98.757812 C 476.125 98.757812 500.5 123.191406 500.5 153.332031 L 500.5 344.828125 C 500.5 374.96875 476.125 399.402344 446.058594 399.402344 L 65.9375 399.402344 C 35.875 399.402344 11.5 374.96875 11.5 344.828125 L 11.5 153.332031 C 11.5 123.191406 35.875 98.757812 65.9375 98.757812 Z M 65.9375 98.757812 "/>
<path style=" stroke:none;fill-rule:nonzero;fill:#DCDC23;fill-opacity:1;" d="M 65.9375 168.910156 L 446.058594 168.910156 C 476.125 168.910156 500.5 193.347656 500.5 223.488281 L 500.5 414.980469 C 500.5 445.121094 476.125 469.558594 446.058594 469.558594 L 65.9375 469.558594 C 35.875 469.558594 11.5 445.121094 11.5 414.980469 L 11.5 223.488281 C 11.5 193.347656 35.875 168.910156 65.9375 168.910156 Z M 65.9375 168.910156 "/>
<path style=" stroke:none;fill-rule:nonzero;fill:rgb(100%,100%,100%);fill-opacity:1;" d="M 256 350.554688 C 248.265625 350.554688 241.367188 353.800781 236.296875 358.871094 L 256 378.578125 L 275.703125 358.871094 C 270.632812 353.800781 263.734375 350.554688 256 350.554688 Z M 256 350.554688 "/>
<path style=" stroke:none;fill-rule:nonzero;fill:rgb(100%,100%,100%);fill-opacity:1;" d="M 256 294.507812 C 232.796875 294.507812 211.886719 304.03125 196.667969 319.246094 L 216.375 338.949219 C 226.519531 328.804688 240.53125 322.53125 256 322.53125 C 271.46875 322.53125 285.480469 328.804688 295.625 338.949219 L 315.332031 319.246094 C 300.113281 304.03125 279.203125 294.507812 256 294.507812 Z M 256 294.507812 "/>
<path style=" stroke:none;fill-rule:nonzero;fill:rgb(100%,100%,100%);fill-opacity:1;" d="M 256 238.460938 C 217.328125 238.460938 182.402344 254.257812 157.042969 279.621094 L 176.746094 299.324219 C 197.035156 279.035156 225.0625 266.484375 256 266.484375 C 286.9375 266.484375 314.964844 279.035156 335.253906 299.324219 L 354.957031 279.621094 C 329.597656 254.257812 294.671875 238.460938 256 238.460938 Z M 256 238.460938 "/>
<path style=" stroke:none;fill-rule:nonzero;fill:rgb(100%,100%,100%);fill-opacity:1;" d="M 256 182.414062 C 201.859375 182.414062 152.921875 204.488281 117.414062 239.992188 L 137.121094 259.695312 C 167.554688 229.261719 209.59375 210.4375 256 210.4375 C 302.40625 210.4375 344.445312 229.261719 374.878906 259.695312 L 394.585938 239.992188 C 359.078125 204.488281 310.140625 182.414062 256 182.414062 Z M 256 182.414062 "/>
</g>
</svg>
