<!-- color: #eeeeee -->
<svg xmlns="http://www.w3.org/2000/svg" xmlns:xlink="http://www.w3.org/1999/xlink" width="22px" height="22px" viewBox="0 0 22 22" version="1.1">
<defs>
<clipPath id="clip1">
  <path d="M 4 4.984375 L 9.625 4.984375 L 9.625 10.226562 L 4 10.226562 Z M 4 4.984375 "/>
</clipPath>
<clipPath id="clip2">
  <path d="M 22.453125 11.058594 C 22.453125 17.523438 17.210938 22.761719 10.75 22.761719 C 4.289062 22.761719 -0.953125 17.523438 -0.953125 11.058594 C -0.953125 4.59375 4.289062 -0.644531 10.75 -0.644531 C 17.210938 -0.644531 22.453125 4.59375 22.453125 11.058594 Z M 22.453125 11.058594 "/>
</clipPath>
<clipPath id="clip3">
  <path d="M 11.644531 4.984375 L 17.316406 4.984375 L 17.316406 10.226562 L 11.644531 10.226562 Z M 11.644531 4.984375 "/>
</clipPath>
<clipPath id="clip4">
  <path d="M 22.453125 11.058594 C 22.453125 17.523438 17.210938 22.761719 10.75 22.761719 C 4.289062 22.761719 -0.953125 17.523438 -0.953125 11.058594 C -0.953125 4.59375 4.289062 -0.644531 10.75 -0.644531 C 17.210938 -0.644531 22.453125 4.59375 22.453125 11.058594 Z M 22.453125 11.058594 "/>
</clipPath>
<clipPath id="clip5">
  <path d="M 12.246094 5.5 L 16.714844 5.5 L 16.714844 9.667969 L 12.246094 9.667969 Z M 12.246094 5.5 "/>
</clipPath>
<clipPath id="clip6">
  <path d="M 22.453125 11.058594 C 22.453125 17.523438 17.210938 22.761719 10.75 22.761719 C 4.289062 22.761719 -0.953125 17.523438 -0.953125 11.058594 C -0.953125 4.59375 4.289062 -0.644531 10.75 -0.644531 C 17.210938 -0.644531 22.453125 4.59375 22.453125 11.058594 Z M 22.453125 11.058594 "/>
</clipPath>
<clipPath id="clip7">
  <path d="M 4.511719 5.5 L 9 5.5 L 9 9.625 L 4.511719 9.625 Z M 4.511719 5.5 "/>
</clipPath>
<clipPath id="clip8">
  <path d="M 22.453125 11.058594 C 22.453125 17.523438 17.210938 22.761719 10.75 22.761719 C 4.289062 22.761719 -0.953125 17.523438 -0.953125 11.058594 C -0.953125 4.59375 4.289062 -0.644531 10.75 -0.644531 C 17.210938 -0.644531 22.453125 4.59375 22.453125 11.058594 Z M 22.453125 11.058594 "/>
</clipPath>
<clipPath id="clip9">
  <path d="M 3.824219 4.941406 L 17.660156 4.941406 L 17.660156 17.1875 L 3.824219 17.1875 Z M 3.824219 4.941406 "/>
</clipPath>
<clipPath id="clip10">
  <path d="M 22.453125 11.058594 C 22.453125 17.523438 17.210938 22.761719 10.75 22.761719 C 4.289062 22.761719 -0.953125 17.523438 -0.953125 11.058594 C -0.953125 4.59375 4.289062 -0.644531 10.75 -0.644531 C 17.210938 -0.644531 22.453125 4.59375 22.453125 11.058594 Z M 22.453125 11.058594 "/>
</clipPath>
<clipPath id="clip11">
  <path d="M 2.363281 8.9375 L 9.96875 8.9375 L 9.96875 15.8125 L 2.363281 15.8125 Z M 2.363281 8.9375 "/>
</clipPath>
<clipPath id="clip12">
  <path d="M 22.453125 11.058594 C 22.453125 17.523438 17.210938 22.761719 10.75 22.761719 C 4.289062 22.761719 -0.953125 17.523438 -0.953125 11.058594 C -0.953125 4.59375 4.289062 -0.644531 10.75 -0.644531 C 17.210938 -0.644531 22.453125 4.59375 22.453125 11.058594 Z M 22.453125 11.058594 "/>
</clipPath>
<clipPath id="clip13">
  <path d="M 8.765625 15.125 L 12.589844 15.125 L 12.589844 16.929688 L 8.765625 16.929688 Z M 8.765625 15.125 "/>
</clipPath>
<clipPath id="clip14">
  <path d="M 22.453125 11.058594 C 22.453125 17.523438 17.210938 22.761719 10.75 22.761719 C 4.289062 22.761719 -0.953125 17.523438 -0.953125 11.058594 C -0.953125 4.59375 4.289062 -0.644531 10.75 -0.644531 C 17.210938 -0.644531 22.453125 4.59375 22.453125 11.058594 Z M 22.453125 11.058594 "/>
</clipPath>
<clipPath id="clip15">
  <path d="M 11.429688 8.851562 L 19.035156 8.851562 L 19.035156 15.769531 L 11.429688 15.769531 Z M 11.429688 8.851562 "/>
</clipPath>
<clipPath id="clip16">
  <path d="M 22.453125 11.058594 C 22.453125 17.523438 17.210938 22.761719 10.75 22.761719 C 4.289062 22.761719 -0.953125 17.523438 -0.953125 11.058594 C -0.953125 4.59375 4.289062 -0.644531 10.75 -0.644531 C 17.210938 -0.644531 22.453125 4.59375 22.453125 11.058594 Z M 22.453125 11.058594 "/>
</clipPath>
<clipPath id="clip17">
  <path d="M 6.230469 7.90625 L 15.296875 7.90625 L 15.296875 16.113281 L 6.230469 16.113281 Z M 6.230469 7.90625 "/>
</clipPath>
<clipPath id="clip18">
  <path d="M 22.453125 11.058594 C 22.453125 17.523438 17.210938 22.761719 10.75 22.761719 C 4.289062 22.761719 -0.953125 17.523438 -0.953125 11.058594 C -0.953125 4.59375 4.289062 -0.644531 10.75 -0.644531 C 17.210938 -0.644531 22.453125 4.59375 22.453125 11.058594 Z M 22.453125 11.058594 "/>
</clipPath>
<clipPath id="clip19">
  <path d="M 7.648438 10.65625 L 9.324219 10.65625 L 9.324219 12.289062 L 7.648438 12.289062 Z M 7.648438 10.65625 "/>
</clipPath>
<clipPath id="clip20">
  <path d="M 22.453125 11.058594 C 22.453125 17.523438 17.210938 22.761719 10.75 22.761719 C 4.289062 22.761719 -0.953125 17.523438 -0.953125 11.058594 C -0.953125 4.59375 4.289062 -0.644531 10.75 -0.644531 C 17.210938 -0.644531 22.453125 4.59375 22.453125 11.058594 Z M 22.453125 11.058594 "/>
</clipPath>
<clipPath id="clip21">
  <path d="M 12.246094 10.613281 L 13.878906 10.613281 L 13.878906 12.289062 L 12.246094 12.289062 Z M 12.246094 10.613281 "/>
</clipPath>
<clipPath id="clip22">
  <path d="M 22.453125 11.058594 C 22.453125 17.523438 17.210938 22.761719 10.75 22.761719 C 4.289062 22.761719 -0.953125 17.523438 -0.953125 11.058594 C -0.953125 4.59375 4.289062 -0.644531 10.75 -0.644531 C 17.210938 -0.644531 22.453125 4.59375 22.453125 11.058594 Z M 22.453125 11.058594 "/>
</clipPath>
<clipPath id="clip23">
  <path d="M 7.132812 11.085938 L 14.394531 11.085938 L 14.394531 15.855469 L 7.132812 15.855469 Z M 7.132812 11.085938 "/>
</clipPath>
<clipPath id="clip24">
  <path d="M 22.453125 11.058594 C 22.453125 17.523438 17.210938 22.761719 10.75 22.761719 C 4.289062 22.761719 -0.953125 17.523438 -0.953125 11.058594 C -0.953125 4.59375 4.289062 -0.644531 10.75 -0.644531 C 17.210938 -0.644531 22.453125 4.59375 22.453125 11.058594 Z M 22.453125 11.058594 "/>
</clipPath>
<clipPath id="clip25">
  <path d="M 9.625 12.675781 L 11.902344 12.675781 L 11.902344 14.953125 L 9.625 14.953125 Z M 9.625 12.675781 "/>
</clipPath>
<clipPath id="clip26">
  <path d="M 22.453125 11.058594 C 22.453125 17.523438 17.210938 22.761719 10.75 22.761719 C 4.289062 22.761719 -0.953125 17.523438 -0.953125 11.058594 C -0.953125 4.59375 4.289062 -0.644531 10.75 -0.644531 C 17.210938 -0.644531 22.453125 4.59375 22.453125 11.058594 Z M 22.453125 11.058594 "/>
</clipPath>
<clipPath id="clip27">
  <path d="M 11 13.105469 L 11.472656 13.105469 L 11.472656 13.621094 L 11 13.621094 Z M 11 13.105469 "/>
</clipPath>
<clipPath id="clip28">
  <path d="M 22.453125 11.058594 C 22.453125 17.523438 17.210938 22.761719 10.75 22.761719 C 4.289062 22.761719 -0.953125 17.523438 -0.953125 11.058594 C -0.953125 4.59375 4.289062 -0.644531 10.75 -0.644531 C 17.210938 -0.644531 22.453125 4.59375 22.453125 11.058594 Z M 22.453125 11.058594 "/>
</clipPath>
<clipPath id="clip29">
  <path d="M 7.820312 10.785156 L 9.109375 10.785156 L 9.109375 12.074219 L 7.820312 12.074219 Z M 7.820312 10.785156 "/>
</clipPath>
<clipPath id="clip30">
  <path d="M 22.453125 11.058594 C 22.453125 17.523438 17.210938 22.761719 10.75 22.761719 C 4.289062 22.761719 -0.953125 17.523438 -0.953125 11.058594 C -0.953125 4.59375 4.289062 -0.644531 10.75 -0.644531 C 17.210938 -0.644531 22.453125 4.59375 22.453125 11.058594 Z M 22.453125 11.058594 "/>
</clipPath>
<clipPath id="clip31">
  <path d="M 12.417969 10.785156 L 13.707031 10.785156 L 13.707031 12.074219 L 12.417969 12.074219 Z M 12.417969 10.785156 "/>
</clipPath>
<clipPath id="clip32">
  <path d="M 22.453125 11.058594 C 22.453125 17.523438 17.210938 22.761719 10.75 22.761719 C 4.289062 22.761719 -0.953125 17.523438 -0.953125 11.058594 C -0.953125 4.59375 4.289062 -0.644531 10.75 -0.644531 C 17.210938 -0.644531 22.453125 4.59375 22.453125 11.058594 Z M 22.453125 11.058594 "/>
</clipPath>
<clipPath id="clip33">
  <path d="M 8.035156 11 L 8.765625 11 L 8.765625 11.730469 L 8.035156 11.730469 Z M 8.035156 11 "/>
</clipPath>
<clipPath id="clip34">
  <path d="M 22.453125 11.058594 C 22.453125 17.523438 17.210938 22.761719 10.75 22.761719 C 4.289062 22.761719 -0.953125 17.523438 -0.953125 11.058594 C -0.953125 4.59375 4.289062 -0.644531 10.75 -0.644531 C 17.210938 -0.644531 22.453125 4.59375 22.453125 11.058594 Z M 22.453125 11.058594 "/>
</clipPath>
<clipPath id="clip35">
  <path d="M 8.121094 11.085938 L 8.421875 11.085938 L 8.421875 11.429688 L 8.121094 11.429688 Z M 8.121094 11.085938 "/>
</clipPath>
<clipPath id="clip36">
  <path d="M 22.453125 11.058594 C 22.453125 17.523438 17.210938 22.761719 10.75 22.761719 C 4.289062 22.761719 -0.953125 17.523438 -0.953125 11.058594 C -0.953125 4.59375 4.289062 -0.644531 10.75 -0.644531 C 17.210938 -0.644531 22.453125 4.59375 22.453125 11.058594 Z M 22.453125 11.058594 "/>
</clipPath>
<clipPath id="clip37">
  <path d="M 12.632812 11.042969 L 13.363281 11.042969 L 13.363281 11.773438 L 12.632812 11.773438 Z M 12.632812 11.042969 "/>
</clipPath>
<clipPath id="clip38">
  <path d="M 22.453125 11.058594 C 22.453125 17.523438 17.210938 22.761719 10.75 22.761719 C 4.289062 22.761719 -0.953125 17.523438 -0.953125 11.058594 C -0.953125 4.59375 4.289062 -0.644531 10.75 -0.644531 C 17.210938 -0.644531 22.453125 4.59375 22.453125 11.058594 Z M 22.453125 11.058594 "/>
</clipPath>
<clipPath id="clip39">
  <path d="M 12.71875 11.128906 L 13.0625 11.128906 L 13.0625 11.472656 L 12.71875 11.472656 Z M 12.71875 11.128906 "/>
</clipPath>
<clipPath id="clip40">
  <path d="M 22.453125 11.058594 C 22.453125 17.523438 17.210938 22.761719 10.75 22.761719 C 4.289062 22.761719 -0.953125 17.523438 -0.953125 11.058594 C -0.953125 4.59375 4.289062 -0.644531 10.75 -0.644531 C 17.210938 -0.644531 22.453125 4.59375 22.453125 11.058594 Z M 22.453125 11.058594 "/>
</clipPath>
<clipPath id="clip41">
  <path d="M 10.484375 14.738281 L 12.417969 14.738281 L 12.417969 16.070312 L 10.484375 16.070312 Z M 10.484375 14.738281 "/>
</clipPath>
<clipPath id="clip42">
  <path d="M 22.453125 11.058594 C 22.453125 17.523438 17.210938 22.761719 10.75 22.761719 C 4.289062 22.761719 -0.953125 17.523438 -0.953125 11.058594 C -0.953125 4.59375 4.289062 -0.644531 10.75 -0.644531 C 17.210938 -0.644531 22.453125 4.59375 22.453125 11.058594 Z M 22.453125 11.058594 "/>
</clipPath>
</defs>
<g id="surface1">
<path style="fill-rule:nonzero;fill:rgb(100%,49.803922%,16.470588%);fill-opacity:1;stroke-width:6.83146;stroke-linecap:butt;stroke-linejoin:miter;stroke:rgb(24.705882%,24.705882%,24.705882%);stroke-opacity:1;stroke-miterlimit:4;" d="M 21.704545 8.045455 L 106.295455 8.045455 C 113.840909 8.045455 119.954545 14.159091 119.954545 21.704545 L 119.954545 106.295455 C 119.954545 113.840909 113.840909 119.954545 106.295455 119.954545 L 21.704545 119.954545 C 14.159091 119.954545 8.045455 113.840909 8.045455 106.295455 L 8.045455 21.704545 C 8.045455 14.159091 14.159091 8.045455 21.704545 8.045455 Z M 21.704545 8.045455 " transform="matrix(0.171875,0,0,0.171875,0,0)"/>
<g clip-path="url(#clip1)" clip-rule="nonzero">
<g clip-path="url(#clip2)" clip-rule="nonzero">
<path style=" stroke:none;fill-rule:nonzero;fill:rgb(97.647059%,97.647059%,97.647059%);fill-opacity:1;" d="M 4.195312 5.238281 C 3.441406 6.210938 5.082031 8.539062 5.777344 10.203125 L 9.613281 5.914062 C 8.03125 5.464844 4.871094 4.5625 4.203125 5.238281 M 4.195312 5.238281 "/>
</g>
</g>
<g clip-path="url(#clip3)" clip-rule="nonzero">
<g clip-path="url(#clip4)" clip-rule="nonzero">
<path style=" stroke:none;fill-rule:nonzero;fill:rgb(97.647059%,97.647059%,97.647059%);fill-opacity:1;" d="M 17.089844 5.238281 C 17.851562 6.210938 16.207031 8.539062 15.511719 10.203125 L 11.675781 5.914062 C 13.253906 5.464844 16.414062 4.5625 17.082031 5.238281 M 17.09375 5.238281 "/>
</g>
</g>
<g clip-path="url(#clip5)" clip-rule="nonzero">
<g clip-path="url(#clip6)" clip-rule="nonzero">
<path style=" stroke:none;fill-rule:nonzero;fill:rgb(72.54902%,47.058824%,12.54902%);fill-opacity:1;" d="M 16.546875 5.734375 C 17.144531 6.5 15.84375 8.34375 15.292969 9.660156 L 12.265625 6.269531 C 13.511719 5.914062 16.011719 5.199219 16.546875 5.734375 M 16.546875 5.734375 "/>
</g>
</g>
<g clip-path="url(#clip7)" clip-rule="nonzero">
<g clip-path="url(#clip8)" clip-rule="nonzero">
<path style=" stroke:none;fill-rule:nonzero;fill:rgb(72.54902%,47.058824%,12.54902%);fill-opacity:1;" d="M 4.699219 5.695312 C 4.097656 6.464844 5.398438 8.304688 5.949219 9.621094 L 8.984375 6.230469 C 7.734375 5.871094 5.238281 5.160156 4.699219 5.695312 M 4.699219 5.695312 "/>
</g>
</g>
<g clip-path="url(#clip9)" clip-rule="nonzero">
<g clip-path="url(#clip10)" clip-rule="nonzero">
<path style=" stroke:none;fill-rule:nonzero;fill:rgb(100%,70.196078%,32.941176%);fill-opacity:1;" d="M 9.464844 4.957031 C 6.871094 5 4.554688 8.476562 3.976562 11.445312 C 3.683594 12.945312 3.835938 14.316406 4.625 15.050781 C 5.832031 15.992188 6.402344 15.488281 7.644531 15.800781 C 8.609375 16.046875 9.035156 17.242188 10.699219 17.15625 L 10.746094 17.144531 L 10.796875 17.15625 C 12.460938 17.242188 12.886719 16.046875 13.847656 15.800781 C 15.09375 15.488281 15.652344 15.988281 16.867188 15.050781 C 19.210938 12.871094 15.933594 5.019531 12.03125 4.957031 C 11.367188 4.914062 11.132812 5.21875 10.746094 5.398438 C 10.359375 5.21875 10.125 4.914062 9.460938 4.957031 M 9.460938 4.957031 "/>
</g>
</g>
<g clip-path="url(#clip11)" clip-rule="nonzero">
<g clip-path="url(#clip12)" clip-rule="nonzero">
<path style=" stroke:none;fill-rule:nonzero;fill:rgb(97.647059%,97.647059%,97.647059%);fill-opacity:1;" d="M 8.476562 9.566406 C 8.710938 10.121094 6.84375 10.652344 6.546875 10.667969 C 6.152344 10.664062 6.191406 10.238281 5.460938 10.121094 C 4.398438 10.003906 2.988281 10.597656 2.371094 11.785156 C 3.175781 11.269531 3.617188 11.449219 4.273438 11.96875 C 3.585938 12.304688 3.058594 12.628906 2.539062 13.46875 C 3.195312 12.902344 3.90625 13.246094 4.339844 13.8125 C 3.105469 14.234375 3.15625 14.9375 3.261719 15.332031 C 3.738281 14.691406 4.175781 14.285156 5.222656 14.554688 C 5.042969 15.007812 5.035156 15.378906 5.136719 15.78125 C 7.703125 14.734375 8.289062 15.214844 9.945312 15.160156 C 9.609375 13.355469 9.976562 11.207031 9.402344 9.683594 C 9.167969 9.28125 9.132812 8.949219 8.5 8.9375 C 7.6875 8.972656 7.65625 9.195312 7.628906 9.414062 C 7.765625 9.296875 8.289062 9.070312 8.476562 9.566406 M 8.476562 9.566406 "/>
</g>
</g>
<g clip-path="url(#clip13)" clip-rule="nonzero">
<g clip-path="url(#clip14)" clip-rule="nonzero">
<path style=" stroke:none;fill-rule:nonzero;fill:rgb(87.058824%,15.686275%,9.803922%);fill-opacity:1;" d="M 12.582031 16.019531 C 12.582031 16.507812 11.730469 16.910156 10.675781 16.910156 C 9.621094 16.910156 8.769531 16.507812 8.769531 16.019531 C 8.769531 15.527344 9.621094 15.128906 10.675781 15.128906 C 11.730469 15.128906 12.582031 15.527344 12.582031 16.019531 M 12.582031 16.019531 "/>
</g>
</g>
<g clip-path="url(#clip15)" clip-rule="nonzero">
<g clip-path="url(#clip16)" clip-rule="nonzero">
<path style=" stroke:none;fill-rule:nonzero;fill:rgb(97.647059%,97.647059%,97.647059%);fill-opacity:1;" d="M 12.925781 9.527344 C 12.691406 10.078125 14.5625 10.609375 14.855469 10.625 C 15.253906 10.617188 15.214844 10.195312 15.945312 10.078125 C 17.007812 9.960938 18.417969 10.558594 19.03125 11.742188 C 18.226562 11.222656 17.785156 11.402344 17.132812 11.925781 C 17.820312 12.261719 18.34375 12.585938 18.867188 13.429688 C 18.207031 12.859375 17.496094 13.203125 17.066406 13.773438 C 18.296875 14.191406 18.246094 14.898438 18.144531 15.289062 C 17.664062 14.648438 17.230469 14.242188 16.179688 14.511719 C 16.363281 14.964844 16.371094 15.335938 16.265625 15.738281 C 13.703125 14.691406 13.117188 15.171875 11.457031 15.117188 C 11.792969 13.3125 11.429688 11.164062 12.003906 9.640625 C 12.234375 9.238281 12.273438 8.910156 12.902344 8.890625 C 13.714844 8.929688 13.75 9.152344 13.777344 9.371094 C 13.644531 9.253906 13.113281 9.023438 12.929688 9.519531 M 12.925781 9.523438 "/>
</g>
</g>
<g clip-path="url(#clip17)" clip-rule="nonzero">
<g clip-path="url(#clip18)" clip-rule="nonzero">
<path style=" stroke:none;fill-rule:nonzero;fill:rgb(44.313725%,26.27451%,9.803922%);fill-opacity:1;" d="M 10.769531 7.953125 C 10.5 7.988281 9.984375 10.351562 9.542969 11.558594 C 9.09375 10.714844 8.90625 10.425781 8.515625 10.429688 C 7.769531 10.433594 6.257812 12.230469 6.25 13.652344 C 6.261719 15.847656 8.515625 16.070312 10.769531 16.070312 L 10.769531 16.066406 C 13.03125 16.066406 15.285156 15.851562 15.296875 13.65625 C 15.285156 12.242188 13.777344 10.4375 13.03125 10.433594 C 12.640625 10.433594 12.453125 10.71875 12.003906 11.5625 C 11.5625 10.351562 11.046875 7.980469 10.773438 7.9375 M 10.773438 7.953125 "/>
</g>
</g>
<g clip-path="url(#clip19)" clip-rule="nonzero">
<g clip-path="url(#clip20)" clip-rule="nonzero">
<path style=" stroke:none;fill-rule:nonzero;fill:rgb(97.647059%,97.647059%,97.647059%);fill-opacity:1;" d="M 9.308594 11.472656 C 9.308594 11.921875 8.941406 12.289062 8.492188 12.289062 C 8.042969 12.289062 7.679688 11.921875 7.679688 11.472656 C 7.679688 11.023438 8.042969 10.65625 8.492188 10.65625 C 8.945312 10.65625 9.308594 11.023438 9.308594 11.472656 M 9.308594 11.472656 "/>
</g>
</g>
<g clip-path="url(#clip21)" clip-rule="nonzero">
<g clip-path="url(#clip22)" clip-rule="nonzero">
<path style=" stroke:none;fill-rule:nonzero;fill:rgb(97.647059%,97.647059%,97.647059%);fill-opacity:1;" d="M 13.878906 11.441406 C 13.878906 11.890625 13.511719 12.257812 13.0625 12.257812 C 12.613281 12.257812 12.246094 11.890625 12.246094 11.441406 C 12.246094 10.988281 12.613281 10.625 13.0625 10.625 C 13.511719 10.625 13.878906 10.988281 13.878906 11.441406 M 13.878906 11.441406 "/>
</g>
</g>
<g clip-path="url(#clip23)" clip-rule="nonzero">
<g clip-path="url(#clip24)" clip-rule="nonzero">
<path style=" stroke:none;fill-rule:nonzero;fill:rgb(97.647059%,97.647059%,97.647059%);fill-opacity:1;" d="M 10.769531 11.109375 C 9.191406 11.109375 7.164062 13.140625 7.164062 14.496094 C 7.15625 15.777344 8.519531 15.84375 9.199219 15.84375 C 9.847656 15.855469 10.539062 15.894531 10.777344 15.621094 C 11.015625 15.894531 11.703125 15.859375 12.355469 15.84375 C 13.035156 15.84375 14.394531 15.777344 14.386719 14.496094 C 14.386719 13.140625 12.355469 11.109375 10.78125 11.109375 M 10.769531 11.109375 "/>
</g>
</g>
<g clip-path="url(#clip25)" clip-rule="nonzero">
<g clip-path="url(#clip26)" clip-rule="nonzero">
<path style=" stroke:none;fill-rule:nonzero;fill:rgb(17.647059%,17.647059%,17.647059%);fill-opacity:1;" d="M 11.898438 13.816406 C 11.898438 14.4375 11.394531 14.945312 10.765625 14.945312 C 10.140625 14.945312 9.636719 14.4375 9.636719 13.816406 C 9.636719 13.191406 10.140625 12.6875 10.765625 12.6875 C 11.390625 12.6875 11.898438 13.191406 11.898438 13.816406 M 11.898438 13.816406 "/>
</g>
</g>
<g clip-path="url(#clip27)" clip-rule="nonzero">
<g clip-path="url(#clip28)" clip-rule="nonzero">
<path style=" stroke:none;fill-rule:nonzero;fill:rgb(97.647059%,97.647059%,97.647059%);fill-opacity:1;" d="M 11.449219 13.363281 C 11.449219 13.488281 11.347656 13.589844 11.222656 13.589844 C 11.097656 13.589844 11 13.488281 11 13.363281 C 11 13.242188 11.097656 13.140625 11.222656 13.140625 C 11.347656 13.140625 11.449219 13.242188 11.449219 13.363281 M 11.449219 13.363281 "/>
</g>
</g>
<g clip-path="url(#clip29)" clip-rule="nonzero">
<g clip-path="url(#clip30)" clip-rule="nonzero">
<path style=" stroke:none;fill-rule:nonzero;fill:rgb(60%,80%,100%);fill-opacity:1;" d="M 9.078125 11.429688 C 9.078125 11.765625 8.804688 12.039062 8.46875 12.039062 C 8.132812 12.039062 7.863281 11.765625 7.863281 11.429688 C 7.863281 11.09375 8.132812 10.824219 8.46875 10.824219 C 8.804688 10.824219 9.078125 11.09375 9.078125 11.429688 M 9.078125 11.429688 "/>
</g>
</g>
<g clip-path="url(#clip31)" clip-rule="nonzero">
<g clip-path="url(#clip32)" clip-rule="nonzero">
<path style=" stroke:none;fill-rule:nonzero;fill:rgb(60%,80%,100%);fill-opacity:1;" d="M 13.671875 11.429688 C 13.671875 11.765625 13.398438 12.039062 13.0625 12.039062 C 12.726562 12.039062 12.453125 11.765625 12.453125 11.429688 C 12.453125 11.09375 12.726562 10.824219 13.0625 10.824219 C 13.398438 10.824219 13.671875 11.09375 13.671875 11.429688 M 13.671875 11.429688 "/>
</g>
</g>
<g clip-path="url(#clip33)" clip-rule="nonzero">
<g clip-path="url(#clip34)" clip-rule="nonzero">
<path style=" stroke:none;fill-rule:nonzero;fill:rgb(17.647059%,17.647059%,17.647059%);fill-opacity:1;" d="M 8.761719 11.371094 C 8.761719 11.566406 8.601562 11.71875 8.410156 11.71875 C 8.21875 11.71875 8.058594 11.566406 8.058594 11.371094 C 8.058594 11.175781 8.21875 11.023438 8.410156 11.023438 C 8.601562 11.023438 8.761719 11.175781 8.761719 11.371094 M 8.761719 11.371094 "/>
</g>
</g>
<g clip-path="url(#clip35)" clip-rule="nonzero">
<g clip-path="url(#clip36)" clip-rule="nonzero">
<path style=" stroke:none;fill-rule:nonzero;fill:rgb(97.647059%,97.647059%,97.647059%);fill-opacity:1;" d="M 8.421875 11.253906 C 8.421875 11.335938 8.351562 11.402344 8.269531 11.402344 C 8.1875 11.402344 8.121094 11.335938 8.121094 11.253906 C 8.121094 11.167969 8.1875 11.101562 8.269531 11.101562 C 8.351562 11.101562 8.421875 11.167969 8.421875 11.253906 M 8.421875 11.253906 "/>
</g>
</g>
<g clip-path="url(#clip37)" clip-rule="nonzero">
<g clip-path="url(#clip38)" clip-rule="nonzero">
<path style=" stroke:none;fill-rule:nonzero;fill:rgb(17.647059%,17.647059%,17.647059%);fill-opacity:1;" d="M 13.328125 11.402344 C 13.328125 11.589844 13.179688 11.742188 12.988281 11.742188 C 12.800781 11.742188 12.652344 11.589844 12.652344 11.402344 C 12.652344 11.214844 12.800781 11.0625 12.988281 11.0625 C 13.179688 11.0625 13.328125 11.214844 13.328125 11.402344 M 13.328125 11.402344 "/>
</g>
</g>
<g clip-path="url(#clip39)" clip-rule="nonzero">
<g clip-path="url(#clip40)" clip-rule="nonzero">
<path style=" stroke:none;fill-rule:nonzero;fill:rgb(97.647059%,97.647059%,97.647059%);fill-opacity:1;" d="M 13.042969 11.292969 C 13.042969 11.375 12.976562 11.445312 12.894531 11.445312 C 12.8125 11.445312 12.742188 11.375 12.742188 11.292969 C 12.742188 11.210938 12.8125 11.144531 12.894531 11.144531 C 12.976562 11.144531 13.042969 11.210938 13.042969 11.292969 M 13.042969 11.292969 "/>
</g>
</g>
<g clip-path="url(#clip41)" clip-rule="nonzero">
<g clip-path="url(#clip42)" clip-rule="nonzero">
<path style=" stroke:none;fill-rule:nonzero;fill:rgb(78.431373%,27.058824%,27.058824%);fill-opacity:1;" d="M 11.210938 15.253906 L 10.488281 16.066406 C 10.925781 16.066406 11.355469 16.066406 11.78125 16.046875 L 12.21875 15.445312 C 12.398438 15.175781 12.496094 14.917969 12.214844 14.816406 C 11.621094 14.621094 11.425781 15.011719 11.210938 15.253906 M 11.210938 15.253906 "/>
</g>
</g>
</g>
</svg>
