
<svg xmlns="http://www.w3.org/2000/svg" xmlns:xlink="http://www.w3.org/1999/xlink" width="22px" height="22px" viewBox="0 0 22 22" version="1.1">
<g id="surface1">
<path style="fill-rule:nonzero;fill:rgb(100%,100%,100%);fill-opacity:1;stroke-width:28.191782;stroke-linecap:butt;stroke-linejoin:miter;stroke:rgb(11.764706%,72.54902%,85.098039%);stroke-opacity:1;stroke-miterlimit:4;" d="M 81.454545 25.090909 L 430.545455 25.090909 C 461.636364 25.090909 486.909091 50.363636 486.909091 81.454545 L 486.909091 430.545455 C 486.909091 461.636364 461.636364 486.909091 430.545455 486.909091 L 81.454545 486.909091 C 50.363636 486.909091 25.090909 461.636364 25.090909 430.545455 L 25.090909 81.454545 C 25.090909 50.363636 50.363636 25.090909 81.454545 25.090909 Z M 81.454545 25.090909 " transform="matrix(0.0429688,0,0,0.0429688,0,0)"/>
<path style=" stroke:none;fill-rule:nonzero;fill:rgb(25.882353%,74.901961%,98.039216%);fill-opacity:1;" d="M 11.113281 16.78125 C 11.046875 16.714844 11.0625 16.640625 11.234375 16.195312 C 11.488281 15.539062 11.519531 15.410156 11.523438 15.039062 C 11.523438 14.734375 11.519531 14.707031 11.445312 14.644531 C 11.402344 14.609375 11.328125 14.582031 11.285156 14.582031 C 11.089844 14.582031 10.234375 14.335938 9.621094 14.101562 C 8.589844 13.703125 7.164062 12.796875 6.25 11.953125 C 6.144531 11.855469 6.042969 11.777344 6.027344 11.777344 C 6.011719 11.777344 5.980469 11.832031 5.957031 11.902344 C 5.90625 12.0625 5.648438 12.585938 5.554688 12.722656 C 5.132812 13.332031 4.597656 13.757812 3.988281 13.964844 C 3.65625 14.078125 3.261719 14.148438 2.96875 14.148438 C 2.570312 14.148438 2.527344 14.042969 2.765625 13.65625 C 3.183594 12.988281 3.511719 12.152344 3.652344 11.40625 C 3.714844 11.09375 3.707031 10.539062 3.636719 10.207031 C 3.523438 9.660156 3.285156 9.058594 2.902344 8.371094 C 2.640625 7.898438 2.621094 7.828125 2.714844 7.734375 C 2.78125 7.667969 2.8125 7.664062 3.046875 7.683594 C 4.0625 7.773438 5.035156 8.445312 5.78125 9.578125 C 5.898438 9.757812 6.007812 9.90625 6.023438 9.90625 C 6.035156 9.90625 6.191406 9.777344 6.371094 9.625 C 7.082031 9.011719 8.054688 8.3125 8.679688 7.96875 C 9.050781 7.761719 9.230469 7.484375 9.261719 7.0625 C 9.289062 6.640625 9.128906 6.242188 8.65625 5.589844 C 8.519531 5.398438 8.390625 5.207031 8.367188 5.164062 C 8.273438 4.984375 8.175781 4.992188 10.6875 4.992188 L 13.011719 4.992188 L 13.210938 5.074219 C 13.867188 5.339844 14.589844 6.066406 14.921875 6.789062 L 15.066406 7.101562 L 15.300781 7.171875 C 15.921875 7.359375 16.679688 7.710938 17.1875 8.054688 C 18.117188 8.675781 18.945312 9.613281 19.4375 10.605469 C 19.5625 10.855469 19.578125 10.910156 19.578125 11.121094 C 19.574219 11.398438 19.496094 11.574219 19.144531 12.046875 C 18.21875 13.296875 16.84375 14.109375 15.046875 14.460938 C 14.820312 14.507812 14.574219 14.554688 14.5 14.566406 C 14.40625 14.582031 14.367188 14.605469 14.355469 14.660156 C 14.3125 14.832031 14.070312 15.238281 13.847656 15.515625 C 13.476562 15.980469 12.832031 16.554688 12.460938 16.75 C 12.339844 16.816406 12.273438 16.820312 11.738281 16.820312 C 11.328125 16.820312 11.140625 16.808594 11.113281 16.78125 Z M 16.425781 11.703125 C 16.59375 11.644531 16.859375 11.457031 16.96875 11.320312 C 17.023438 11.25 17.101562 11.105469 17.148438 10.996094 C 17.214844 10.824219 17.226562 10.753906 17.214844 10.519531 C 17.195312 10.167969 17.089844 9.941406 16.835938 9.707031 C 16.578125 9.472656 16.351562 9.394531 15.984375 9.410156 C 15.738281 9.421875 15.671875 9.4375 15.488281 9.535156 C 15.246094 9.667969 15.078125 9.84375 14.953125 10.105469 C 14.878906 10.257812 14.867188 10.335938 14.867188 10.574219 C 14.867188 10.808594 14.882812 10.886719 14.953125 11.046875 C 15.117188 11.394531 15.449219 11.671875 15.792969 11.742188 C 15.953125 11.777344 16.265625 11.757812 16.425781 11.703125 Z M 15.820312 11.015625 C 15.660156 10.933594 15.578125 10.804688 15.558594 10.617188 C 15.539062 10.398438 15.625 10.246094 15.828125 10.144531 C 15.941406 10.085938 16.011719 10.070312 16.09375 10.085938 C 16.363281 10.136719 16.53125 10.335938 16.527344 10.601562 C 16.523438 10.945312 16.125 11.175781 15.820312 11.015625 Z M 15.820312 11.015625 "/>
</g>
</svg>
