
<svg xmlns="http://www.w3.org/2000/svg" xmlns:xlink="http://www.w3.org/1999/xlink" width="22px" height="22px" viewBox="0 0 22 22" version="1.1">
<g id="surface1">
<path style="fill-rule:nonzero;fill:rgb(20.392157%,28.627451%,36.862745%);fill-opacity:1;stroke-width:2.611181;stroke-linecap:butt;stroke-linejoin:miter;stroke:rgb(16.078431%,50.196078%,72.54902%);stroke-opacity:1;stroke-miterlimit:4;" d="M 7.849432 2.880682 L 40.184658 2.880682 C 43.06534 2.880682 45.400567 5.224432 45.400567 8.105113 L 45.400567 40.431817 C 45.400567 43.321021 43.06534 45.656249 40.184658 45.656249 L 7.849432 45.656249 C 4.96875 45.656249 2.633523 43.321021 2.633523 40.431817 L 2.633523 8.105113 C 2.633523 5.224432 4.96875 2.880682 7.849432 2.880682 Z M 7.849432 2.880682 " transform="matrix(0.458333,0,0,0.458333,0,0)"/>
<path style=" stroke:none;fill-rule:nonzero;fill:rgb(90.588235%,29.803922%,23.529412%);fill-opacity:1;" d="M 13.75 1.832031 L 18.792969 1.832031 L 18.792969 6.875 L 16.269531 5.042969 L 13.75 6.875 Z M 13.75 1.832031 "/>
<path style=" stroke:none;fill-rule:nonzero;fill:rgb(16.078431%,50.196078%,72.54902%);fill-opacity:1;" d="M 1.558594 1.832031 L 6.417969 1.832031 L 6.417969 20.496094 L 1.558594 20.496094 Z M 1.558594 1.832031 "/>
<path style=" stroke:none;fill-rule:nonzero;fill:rgb(92.54902%,94.117647%,94.509804%);fill-opacity:1;" d="M 16.730469 6.875 C 16.730469 6.875 14.539062 7.214844 12.414062 8.496094 C 12.800781 8.808594 13.136719 9.191406 13.398438 9.648438 C 13.476562 9.785156 13.546875 9.921875 13.609375 10.0625 C 13.183594 9.484375 12.625 9.042969 12.007812 8.753906 C 11.765625 8.914062 11.53125 9.089844 11.296875 9.277344 C 11.382812 9.394531 11.464844 9.519531 11.539062 9.648438 C 11.617188 9.785156 11.6875 9.921875 11.75 10.0625 C 11.570312 9.820312 11.367188 9.605469 11.148438 9.410156 C 9.671875 10.65625 8.480469 12.46875 8.480469 15.125 C 8.480469 15.125 10.203125 12.640625 13.152344 11.71875 C 12.222656 11.433594 11.199219 11.472656 10.257812 11.886719 C 10.378906 11.796875 10.507812 11.710938 10.644531 11.632812 C 11.773438 10.980469 13.074219 10.910156 14.199219 11.332031 C 16.601562 10.121094 16.730469 6.875 16.730469 6.875 Z M 16.730469 6.875 "/>
</g>
</svg>
