
<svg xmlns="http://www.w3.org/2000/svg" xmlns:xlink="http://www.w3.org/1999/xlink" width="22px" height="22px" viewBox="0 0 22 22" version="1.1">
<g id="surface1">
<path style="fill-rule:nonzero;fill:rgb(80.392157%,61.176471%,42.745098%);fill-opacity:1;stroke-width:28.191782;stroke-linecap:butt;stroke-linejoin:miter;stroke:rgb(41.568627%,30.196078%,21.960784%);stroke-opacity:1;stroke-miterlimit:4;" d="M -274.43071 352.799916 L 74.613213 352.799916 C 105.764837 352.799916 130.99583 378.030909 130.99583 409.182533 L 130.99583 758.226456 C 130.99583 789.378079 105.764837 814.609073 74.613213 814.609073 L -274.43071 814.609073 C -305.582333 814.609073 -330.813327 789.378079 -330.813327 758.226456 L -330.813327 409.182533 C -330.813327 378.030909 -305.582333 352.799916 -274.43071 352.799916 Z M -274.43071 352.799916 " transform="matrix(0.042885,0,0,0.042885,15.284587,-14.03217)"/>
<path style=" stroke:none;fill-rule:nonzero;fill:rgb(41.568627%,30.196078%,21.960784%);fill-opacity:1;" d="M 12.285156 5.484375 C 12.054688 5.484375 11.820312 5.492188 11.6875 5.507812 C 11.394531 5.539062 10.964844 5.625 10.675781 5.710938 C 8.570312 6.351562 7.023438 8.21875 6.792969 10.402344 C 6.761719 10.671875 6.761719 11.332031 6.792969 11.601562 C 6.824219 11.890625 6.910156 12.324219 6.996094 12.609375 C 7.367188 13.835938 8.160156 14.894531 9.246094 15.617188 C 9.945312 16.082031 10.757812 16.382812 11.597656 16.484375 C 11.875 16.519531 12.601562 16.527344 12.882812 16.496094 C 13.175781 16.464844 13.609375 16.375 13.894531 16.289062 C 15.832031 15.703125 17.3125 14.070312 17.703125 12.089844 C 17.777344 11.699219 17.800781 11.453125 17.800781 11 C 17.800781 10.402344 17.734375 9.917969 17.574219 9.390625 C 17.316406 8.546875 16.875 7.800781 16.25 7.15625 C 15.34375 6.222656 14.160156 5.640625 12.882812 5.507812 C 12.75 5.492188 12.515625 5.484375 12.285156 5.484375 Z M 12.285156 5.945312 C 12.554688 5.945312 12.824219 5.960938 12.996094 5.988281 C 14.683594 6.25 16.070312 7.257812 16.820312 8.761719 C 17.054688 9.234375 17.210938 9.738281 17.296875 10.289062 C 17.351562 10.632812 17.351562 11.367188 17.296875 11.710938 C 17.167969 12.566406 16.839844 13.351562 16.347656 14.015625 C 16.152344 14.273438 15.808594 14.65625 15.753906 14.675781 C 15.726562 14.683594 15.652344 14.652344 15.527344 14.578125 C 15.351562 14.46875 15.078125 14.347656 14.367188 14.050781 C 13.820312 13.828125 13.570312 13.652344 13.4375 13.410156 C 13.375 13.296875 13.375 13.292969 13.367188 12.859375 L 13.355469 12.421875 L 13.433594 12.339844 C 13.585938 12.183594 13.757812 11.816406 13.824219 11.511719 C 13.859375 11.351562 13.867188 11.34375 13.945312 11.300781 C 14.125 11.210938 14.234375 10.957031 14.234375 10.632812 C 14.234375 10.429688 14.234375 10.417969 14.160156 10.320312 C 14.09375 10.21875 14.089844 10.210938 14.113281 10.128906 C 14.285156 9.539062 14.339844 8.902344 14.257812 8.46875 C 14.183594 8.066406 13.96875 7.757812 13.660156 7.609375 C 13.574219 7.566406 13.460938 7.527344 13.40625 7.519531 C 13.332031 7.507812 13.289062 7.484375 13.222656 7.410156 C 13.019531 7.199219 12.753906 7.113281 12.273438 7.117188 C 11.339844 7.117188 10.71875 7.460938 10.460938 8.121094 C 10.273438 8.601562 10.269531 9.242188 10.457031 10.097656 C 10.480469 10.214844 10.480469 10.214844 10.410156 10.320312 C 10.335938 10.417969 10.335938 10.429688 10.335938 10.632812 C 10.335938 10.957031 10.445312 11.210938 10.625 11.300781 C 10.703125 11.339844 10.710938 11.355469 10.734375 11.46875 C 10.792969 11.761719 10.925781 12.050781 11.101562 12.285156 L 11.214844 12.433594 L 11.210938 12.871094 C 11.210938 13.347656 11.207031 13.363281 11.0625 13.539062 C 10.902344 13.738281 10.644531 13.878906 9.890625 14.1875 C 9.484375 14.351562 9.066406 14.550781 8.933594 14.640625 C 8.898438 14.664062 8.855469 14.6875 8.839844 14.6875 C 8.820312 14.6875 8.734375 14.609375 8.648438 14.519531 C 7.898438 13.726562 7.441406 12.792969 7.273438 11.710938 C 7.21875 11.367188 7.21875 10.632812 7.273438 10.289062 C 7.535156 8.601562 8.542969 7.214844 10.046875 6.46875 C 10.519531 6.230469 11.023438 6.074219 11.574219 5.988281 C 11.746094 5.960938 12.015625 5.945312 12.285156 5.945312 Z M 12.285156 5.945312 "/>
<path style=" stroke:none;fill-rule:nonzero;fill:rgb(41.568627%,30.196078%,21.960784%);fill-opacity:1;" d="M 1.484375 1.234375 L 1.484375 20.515625 L 4.242188 20.515625 L 4.242188 1.234375 Z M 1.484375 1.234375 "/>
<path style="fill-rule:nonzero;fill:rgb(26.666667%,66.666667%,0%);fill-opacity:1;stroke-width:44.807911;stroke-linecap:butt;stroke-linejoin:miter;stroke:rgb(26.666667%,66.666667%,0%);stroke-opacity:1;stroke-miterlimit:4;" d="M 739.356172 294.648946 L 739.356172 79.595967 L 800.745069 79.595967 L 800.745069 509.893766 L 739.356172 509.893766 Z M 739.356172 294.648946 " transform="matrix(0.020362,0,0,0.020362,1.296801,10.758174)"/>
<path style="fill-rule:nonzero;fill:rgb(26.666667%,66.666667%,0%);fill-opacity:1;stroke-width:44.807911;stroke-linecap:butt;stroke-linejoin:miter;stroke:rgb(26.666667%,66.666667%,0%);stroke-opacity:1;stroke-miterlimit:4;" d="M 773.120066 260.885053 L 988.173045 260.885053 L 988.173045 322.46579 L 558.067086 322.46579 L 558.067086 260.885053 Z M 773.120066 260.885053 " transform="matrix(0.020362,0,0,0.020362,1.296801,10.758174)"/>
</g>
</svg>
