
<svg xmlns="http://www.w3.org/2000/svg" xmlns:xlink="http://www.w3.org/1999/xlink" width="22px" height="22px" viewBox="0 0 22 22" version="1.1">
<g id="surface1">
<path style="fill-rule:nonzero;fill:rgb(100%,100%,100%);fill-opacity:1;stroke-width:26.401737;stroke-linecap:butt;stroke-linejoin:miter;stroke:rgb(21.568627%,48.235294%,94.117647%);stroke-opacity:1;stroke-miterlimit:4;" d="M 92.545455 580.089453 L 419.454545 580.089453 C 448.636364 580.089453 472.272727 603.725816 472.272727 632.907635 L 472.272727 959.816725 C 472.272727 988.998544 448.636364 1012.634907 419.454545 1012.634907 L 92.545455 1012.634907 C 63.363636 1012.634907 39.727273 988.998544 39.727273 959.816725 L 39.727273 632.907635 C 39.727273 603.725816 63.363636 580.089453 92.545455 580.089453 Z M 92.545455 580.089453 " transform="matrix(0.0429688,0,0,0.0429688,0,-23.218687)"/>
<path style=" stroke:none;fill-rule:evenodd;fill:rgb(21.176471%,48.235294%,94.117647%);fill-opacity:0.996078;" d="M 11.59375 3.195312 C 13.515625 4.855469 13.992188 6.535156 13.992188 9.175781 L 14.78125 7.136719 C 15.613281 7.953125 16.175781 9.03125 16.34375 10.242188 C 16.402344 11.171875 16.25 11.996094 16.011719 12.71875 C 16.992188 12.09375 18.230469 11.382812 18.757812 10.242188 C 18.40625 6.476562 15.378906 3.484375 11.59375 3.195312 Z M 10.242188 3.242188 C 6.476562 3.59375 3.484375 6.621094 3.195312 10.40625 C 4.855469 8.484375 6.535156 8.007812 9.175781 8.007812 L 7.136719 7.21875 C 7.953125 6.386719 9.03125 5.824219 10.242188 5.65625 C 11.171875 5.597656 11.996094 5.75 12.71875 5.988281 C 12.09375 5.007812 11.382812 3.769531 10.242188 3.242188 Z M 5.988281 9.28125 C 5.007812 9.90625 3.769531 10.617188 3.242188 11.757812 C 3.59375 15.523438 6.621094 18.515625 10.40625 18.804688 C 8.484375 17.144531 8.007812 15.464844 8.007812 12.824219 L 7.21875 14.863281 C 6.386719 14.046875 5.824219 12.96875 5.65625 11.757812 C 5.597656 10.828125 5.75 10.003906 5.988281 9.28125 Z M 18.804688 11.59375 C 17.144531 13.515625 15.464844 13.992188 12.824219 13.992188 L 14.863281 14.78125 C 14.046875 15.613281 12.96875 16.175781 11.757812 16.34375 C 10.828125 16.402344 10.003906 16.25 9.28125 16.011719 C 9.90625 16.992188 10.617188 18.230469 11.757812 18.757812 C 15.523438 18.40625 18.515625 15.378906 18.804688 11.59375 Z M 18.804688 11.59375 "/>
</g>
</svg>
