<!-- color: #eeeeee -->
<svg xmlns="http://www.w3.org/2000/svg" xmlns:xlink="http://www.w3.org/1999/xlink" width="22px" height="22px" viewBox="0 0 22 22" version="1.1">
<defs>
<clipPath id="clip1">
  <path d="M 3.222656 2.0625 L 17.144531 2.0625 L 17.144531 16.800781 L 3.222656 16.800781 Z M 3.222656 2.0625 "/>
</clipPath>
<clipPath id="clip2">
  <path d="M 23.007812 10.996094 C 23.007812 17.855469 17.441406 23.414062 10.585938 23.414062 C 3.730469 23.414062 -1.835938 17.855469 -1.835938 10.996094 C -1.835938 4.132812 3.730469 -1.425781 10.585938 -1.425781 C 17.441406 -1.425781 23.007812 4.132812 23.007812 10.996094 Z M 23.007812 10.996094 "/>
</clipPath>
<clipPath id="clip3">
  <path d="M 4.039062 5.199219 L 17.917969 5.199219 L 17.917969 19.9375 L 4.039062 19.9375 Z M 4.039062 5.199219 "/>
</clipPath>
<clipPath id="clip4">
  <path d="M 23.007812 10.996094 C 23.007812 17.855469 17.441406 23.414062 10.585938 23.414062 C 3.730469 23.414062 -1.835938 17.855469 -1.835938 10.996094 C -1.835938 4.132812 3.730469 -1.425781 10.585938 -1.425781 C 17.441406 -1.425781 23.007812 4.132812 23.007812 10.996094 Z M 23.007812 10.996094 "/>
</clipPath>
</defs>
<g id="surface1">
<path style="fill-rule:nonzero;fill:rgb(100%,100%,100%);fill-opacity:1;stroke-width:6.873965;stroke-linecap:butt;stroke-linejoin:miter;stroke:rgb(16.862745%,65.882353%,92.156863%);stroke-opacity:1;stroke-miterlimit:4;" d="M 21.454545 7.704545 L 106.545455 7.704545 C 114.136364 7.704545 120.295455 13.863636 120.295455 21.454545 L 120.295455 106.545455 C 120.295455 114.136364 114.136364 120.295455 106.545455 120.295455 L 21.454545 120.295455 C 13.863636 120.295455 7.704545 114.136364 7.704545 106.545455 L 7.704545 21.454545 C 7.704545 13.863636 13.863636 7.704545 21.454545 7.704545 Z M 21.454545 7.704545 " transform="matrix(0.171875,0,0,0.171875,0,0)"/>
<g clip-path="url(#clip1)" clip-rule="nonzero">
<g clip-path="url(#clip2)" clip-rule="nonzero">
<path style=" stroke:none;fill-rule:nonzero;fill:rgb(100%,72.54902%,6.666667%);fill-opacity:1;" d="M 11.363281 2.089844 C 21.132812 13.964844 18.429688 18.640625 3.261719 16.117188 C 13.445312 15.761719 16.144531 11.085938 11.363281 2.089844 M 11.363281 2.089844 "/>
</g>
</g>
<g clip-path="url(#clip3)" clip-rule="nonzero">
<g clip-path="url(#clip4)" clip-rule="nonzero">
<path style=" stroke:none;fill-rule:nonzero;fill:rgb(0%,66.666667%,86.666667%);fill-opacity:1;" d="M 10.6875 5.207031 C 3.476562 5.328125 2.175781 8.851562 6.738281 15.769531 C 7.167969 15.695312 7.582031 15.613281 7.96875 15.519531 C 6.222656 9.382812 9.535156 6.160156 17.90625 5.875 C 15.058594 5.402344 12.652344 5.183594 10.683594 5.214844 M 7.324219 16.648438 C 8.039062 17.664062 8.855469 18.75 9.804688 19.902344 C 9.207031 18.777344 8.71875 17.722656 8.355469 16.730469 C 8.019531 16.710938 7.675781 16.679688 7.324219 16.648438 M 7.324219 16.648438 "/>
</g>
</g>
</g>
</svg>
