
<svg xmlns="http://www.w3.org/2000/svg" xmlns:xlink="http://www.w3.org/1999/xlink" width="22px" height="22px" viewBox="0 0 22 22" version="1.1">
<g id="surface1">
<path style="fill-rule:nonzero;fill:rgb(20%,20%,20%);fill-opacity:1;stroke-width:26.401737;stroke-linecap:butt;stroke-linejoin:miter;stroke:rgb(16.862745%,65.882353%,92.156863%);stroke-opacity:1;stroke-miterlimit:4;" d="M 92.545455 39.727273 L 419.454545 39.727273 C 448.636364 39.727273 472.272727 63.363636 472.272727 92.545455 L 472.272727 419.454545 C 472.272727 448.636364 448.636364 472.272727 419.454545 472.272727 L 92.545455 472.272727 C 63.363636 472.272727 39.727273 448.636364 39.727273 419.454545 L 39.727273 92.545455 C 39.727273 63.363636 63.363636 39.727273 92.545455 39.727273 Z M 92.545455 39.727273 " transform="matrix(0.0429688,0,0,0.0429688,0,0)"/>
<path style=" stroke:none;fill-rule:nonzero;fill:rgb(83.529412%,18.431373%,25.490196%);fill-opacity:1;" d="M 6.203125 17.617188 C 4.964844 16.378906 4.199219 14.671875 4.199219 12.78125 C 4.199219 9.003906 7.261719 5.941406 11.039062 5.941406 C 14.816406 5.941406 17.878906 9.003906 17.878906 12.78125 C 17.878906 14.671875 17.113281 16.378906 15.875 17.617188 C 15.875 17.617188 16.828125 18.566406 17.664062 17.625 C 18.65625 16.265625 19.246094 14.59375 19.246094 12.78125 C 19.246094 8.25 15.570312 4.574219 11.039062 4.574219 C 6.503906 4.574219 2.832031 8.25 2.832031 12.78125 C 2.832031 14.59375 3.417969 16.269531 4.414062 17.628906 C 4.496094 17.71875 5.285156 18.53125 6.203125 17.617188 "/>
<path style=" stroke:none;fill-rule:nonzero;fill:rgb(93.333333%,46.27451%,8.627451%);fill-opacity:1;" d="M 11.039062 5.941406 C 7.261719 5.941406 4.199219 9.003906 4.199219 12.78125 C 4.199219 14.671875 4.964844 16.378906 6.203125 17.617188 L 7.167969 16.652344 C 6.179688 15.660156 5.566406 14.292969 5.566406 12.78125 C 5.566406 9.761719 8.015625 7.308594 11.039062 7.308594 C 14.058594 7.308594 16.507812 9.761719 16.507812 12.78125 C 16.507812 14.292969 15.898438 15.660156 14.90625 16.652344 L 15.511719 17.257812 C 15.625 17.367188 15.714844 17.457031 15.777344 17.519531 L 15.875 17.617188 C 17.113281 16.378906 17.878906 14.671875 17.878906 12.78125 C 17.878906 9.003906 14.816406 5.941406 11.039062 5.941406 "/>
<path style=" stroke:none;fill-rule:nonzero;fill:rgb(97.647059%,76.862745%,27.843137%);fill-opacity:1;" d="M 11.039062 7.308594 C 8.015625 7.308594 5.566406 9.761719 5.566406 12.78125 C 5.566406 14.292969 6.179688 15.660156 7.167969 16.652344 L 8.136719 15.683594 C 7.394531 14.941406 6.933594 13.914062 6.933594 12.78125 C 6.933594 10.515625 8.769531 8.679688 11.039062 8.679688 C 13.304688 8.679688 15.140625 10.515625 15.140625 12.78125 C 15.140625 13.914062 14.683594 14.941406 13.941406 15.683594 C 14.175781 15.921875 14.429688 16.171875 14.667969 16.414062 L 14.90625 16.652344 C 15.898438 15.660156 16.507812 14.292969 16.507812 12.78125 C 16.507812 9.761719 14.058594 7.308594 11.039062 7.308594 "/>
<path style=" stroke:none;fill-rule:nonzero;fill:rgb(37.647059%,69.019608%,87.843137%);fill-opacity:1;" d="M 11.039062 8.679688 C 8.769531 8.679688 6.933594 10.515625 6.933594 12.78125 C 6.933594 13.914062 7.394531 14.941406 8.136719 15.683594 L 9.101562 14.714844 C 8.609375 14.222656 8.300781 13.539062 8.300781 12.78125 C 8.300781 11.269531 9.527344 10.046875 11.039062 10.046875 C 12.550781 10.046875 13.773438 11.269531 13.773438 12.78125 C 13.773438 13.539062 13.46875 14.222656 12.972656 14.714844 L 13.703125 15.445312 C 13.777344 15.523438 13.859375 15.601562 13.941406 15.683594 C 14.683594 14.941406 15.140625 13.914062 15.140625 12.78125 C 15.140625 10.515625 13.304688 8.679688 11.039062 8.679688 "/>
<path style=" stroke:none;fill-rule:nonzero;fill:rgb(22.745098%,30.980392%,47.843137%);fill-opacity:1;" d="M 11.039062 10.046875 C 9.527344 10.046875 8.300781 11.269531 8.300781 12.78125 C 8.300781 13.539062 8.609375 14.222656 9.101562 14.714844 C 9.101562 14.714844 9.671875 14.15625 9.671875 12.78125 C 9.671875 12.027344 10.28125 11.414062 11.039062 11.414062 C 11.792969 11.414062 12.40625 12.027344 12.40625 12.78125 C 12.40625 12.78125 12.316406 14.0625 12.972656 14.714844 C 13.46875 14.222656 13.773438 13.539062 13.773438 12.78125 C 13.773438 11.269531 12.550781 10.046875 11.039062 10.046875 "/>
<path style=" stroke:none;fill-rule:nonzero;fill:rgb(73.72549%,37.254902%,82.745098%);fill-opacity:1;" d="M 16.40625 9.878906 L 11.117188 11.257812 C 10.441406 11.433594 9.777344 11.703125 9.648438 12.429688 C 9.515625 13.195312 10.007812 13.925781 10.75 14.054688 C 11.28125 14.148438 11.695312 13.820312 12.09375 13.484375 Z M 16.40625 9.878906 "/>
</g>
</svg>
