
<svg xmlns="http://www.w3.org/2000/svg" xmlns:xlink="http://www.w3.org/1999/xlink" width="22px" height="22px" viewBox="0 0 22 22" version="1.1">
<g id="surface1">
<path style="fill-rule:nonzero;fill:rgb(80%,80%,80%);fill-opacity:1;stroke-width:6.789384;stroke-linecap:butt;stroke-linejoin:miter;stroke:rgb(92.156863%,16.862745%,17.647059%);stroke-opacity:1;stroke-miterlimit:4;" d="M 21.977273 8.386364 L 106.022727 8.386364 C 113.522727 8.386364 119.613636 14.477273 119.613636 21.977273 L 119.613636 106.022727 C 119.613636 113.522727 113.522727 119.613636 106.022727 119.613636 L 21.977273 119.613636 C 14.477273 119.613636 8.386364 113.522727 8.386364 106.022727 L 8.386364 21.977273 C 8.386364 14.477273 14.477273 8.386364 21.977273 8.386364 Z M 21.977273 8.386364 " transform="matrix(0.171875,0,0,0.171875,0,0)"/>
<path style=" stroke:none;fill-rule:nonzero;fill:rgb(100%,16.470588%,16.470588%);fill-opacity:1;" d="M 5.660156 14.542969 L 16.394531 14.542969 L 16.394531 16.273438 L 5.660156 16.273438 M 5.660156 14.542969 "/>
<path style=" stroke:none;fill-rule:nonzero;fill:rgb(100%,16.470588%,16.470588%);fill-opacity:1;" d="M 5.433594 13.699219 L 16.582031 13.699219 L 16.582031 14.550781 L 5.433594 14.550781 M 5.433594 13.699219 "/>
<path style=" stroke:none;fill-rule:nonzero;fill:rgb(30.196078%,30.196078%,30.196078%);fill-opacity:1;" d="M 15.585938 6.917969 C 16.269531 6.007812 16.464844 5.171875 17.796875 2.757812 C 18.347656 3.355469 18.484375 5.867188 17.191406 6.917969 M 15.585938 6.917969 "/>
<path style=" stroke:none;fill-rule:nonzero;fill:rgb(30.196078%,30.196078%,30.196078%);fill-opacity:1;" d="M 6.378906 6.917969 C 5.691406 6.007812 5.5 5.171875 4.167969 2.757812 C 3.617188 3.355469 3.476562 5.867188 4.769531 6.917969 M 6.378906 6.917969 "/>
<path style=" stroke:none;fill-rule:nonzero;fill:rgb(100%,16.470588%,16.470588%);fill-opacity:1;" d="M 10.980469 3.636719 C 10.753906 3.636719 10.542969 3.652344 10.324219 3.675781 C 10.152344 3.691406 9.972656 3.714844 9.800781 3.742188 L 9.800781 3.757812 C 9.246094 3.855469 8.703125 4.003906 8.195312 4.222656 C 7.308594 4.597656 6.640625 4.980469 5.960938 5.652344 C 6.164062 6.058594 6.5625 6.773438 6.820312 7.113281 L 4.835938 7.113281 C 4.410156 7.734375 4.128906 8.230469 3.898438 8.964844 C 3.667969 9.707031 3.535156 10.496094 3.535156 11.308594 C 3.535156 15.105469 6.25 18.257812 9.804688 18.875 L 9.804688 18.890625 C 9.96875 18.917969 10.144531 18.929688 10.3125 18.945312 C 10.535156 18.964844 10.753906 18.984375 10.984375 18.984375 C 11.015625 18.984375 11.046875 18.984375 11.078125 18.984375 C 11.304688 18.984375 11.535156 18.96875 11.761719 18.945312 C 11.929688 18.929688 12.089844 18.917969 12.253906 18.890625 L 12.253906 18.875 C 15.808594 18.257812 18.523438 15.105469 18.523438 11.308594 C 18.523438 10.496094 18.390625 9.703125 18.160156 8.964844 C 17.929688 8.226562 17.652344 7.734375 17.222656 7.113281 L 15.242188 7.113281 C 15.5 6.773438 15.894531 6.058594 16.097656 5.652344 C 15.417969 4.980469 14.746094 4.597656 13.863281 4.222656 C 13.355469 4.003906 12.8125 3.855469 12.257812 3.757812 L 12.257812 3.742188 C 12.082031 3.714844 11.914062 3.695312 11.734375 3.675781 C 11.519531 3.652344 11.300781 3.636719 11.078125 3.636719 C 11.046875 3.636719 11.015625 3.636719 10.984375 3.636719 M 6.925781 10.480469 C 7.53125 10.480469 8.023438 10.980469 8.023438 11.601562 C 8.023438 12.21875 7.53125 12.71875 6.925781 12.71875 C 6.320312 12.71875 5.828125 12.21875 5.828125 11.601562 C 5.828125 10.984375 6.320312 10.480469 6.925781 10.480469 M 15.132812 10.480469 C 15.738281 10.480469 16.230469 10.980469 16.230469 11.601562 C 16.230469 12.21875 15.738281 12.71875 15.132812 12.71875 C 14.527344 12.71875 14.035156 12.21875 14.035156 11.601562 C 14.035156 10.984375 14.527344 10.480469 15.132812 10.480469 M 5.574219 14.3125 L 16.484375 14.3125 L 16.484375 14.542969 L 15.550781 14.542969 C 15.53125 15.351562 14.988281 15.785156 14.492188 16.261719 C 13.984375 15.714844 13.714844 15.121094 13.886719 14.542969 L 8.175781 14.542969 C 8.351562 15.121094 8.078125 15.714844 7.574219 16.261719 C 7.074219 15.785156 6.53125 15.351562 6.515625 14.542969 L 5.578125 14.542969 L 5.578125 14.3125 M 5.574219 14.3125 "/>
<path style=" stroke:none;fill-rule:evenodd;fill:rgb(100%,16.470588%,16.470588%);fill-opacity:1;" d="M 6.515625 12.800781 C 6.308594 12.726562 5.980469 12.402344 5.84375 12.136719 C 5.546875 11.566406 5.824219 10.835938 6.457031 10.527344 C 6.894531 10.308594 7.320312 10.390625 7.734375 10.769531 C 8.34375 11.328125 8.195312 12.371094 7.457031 12.722656 C 7.160156 12.863281 6.773438 12.894531 6.515625 12.800781 Z M 6.515625 12.800781 "/>
<path style=" stroke:none;fill-rule:evenodd;fill:rgb(100%,16.470588%,16.470588%);fill-opacity:1;" d="M 14.492188 12.726562 C 13.429688 12.015625 13.753906 10.472656 15.011719 10.269531 C 15.722656 10.152344 16.464844 10.820312 16.464844 11.578125 C 16.464844 12.648438 15.347656 13.296875 14.492188 12.726562 Z M 14.492188 12.726562 "/>
<path style=" stroke:none;fill-rule:nonzero;fill:rgb(82.352941%,89.803922%,95.294118%);fill-opacity:1;" d="M 11.808594 11.128906 L 12.632812 9.542969 L 13.53125 8.605469 L 14.484375 8.378906 L 15.480469 8.550781 L 16.320312 9.027344 L 16.589844 9.488281 L 16.28125 10.75 L 15.671875 11.589844 L 15.289062 12.007812 L 14.257812 12.296875 L 13.339844 12.144531 L 12.480469 11.722656 Z M 11.808594 11.128906 "/>
<path style=" stroke:none;fill-rule:nonzero;fill:rgb(58.823529%,65.098039%,69.411765%);fill-opacity:1;" d="M 12.117188 10.421875 C 12.117188 10.421875 13.269531 8.984375 14.441406 9.09375 C 15.441406 9.1875 16.625 9.585938 16.625 9.585938 L 16.359375 9.257812 L 15.480469 8.472656 L 13.949219 8.472656 L 13.1875 8.894531 L 12.613281 9.5625 Z M 12.117188 10.421875 "/>
<path style=" stroke:none;fill-rule:nonzero;fill:rgb(0%,0%,0%);fill-opacity:1;" d="M 12.195312 10.347656 C 12.195312 10.347656 13.203125 8.867188 14.40625 8.789062 C 15.40625 8.726562 16.625 9.46875 16.625 9.46875 L 16.359375 9.203125 L 15.480469 8.472656 L 13.949219 8.472656 L 13.1875 8.863281 L 12.382812 9.890625 Z M 12.195312 10.347656 "/>
<path style=" stroke:none;fill-rule:evenodd;fill:rgb(0%,0%,0%);fill-opacity:1;" d="M 14.300781 8.222656 C 15.863281 8.042969 16.882812 9.261719 16.882812 9.261719 L 16.695312 9.367188 C 16.730469 10.589844 16.078125 11.726562 15.113281 12.164062 C 14.148438 12.601562 12.710938 12.351562 11.816406 11.175781 L 11.753906 11.105469 C 12.203125 9.855469 12.929688 8.378906 14.300781 8.222656 Z M 14.332031 8.566406 C 13.636719 8.585938 13.003906 9.214844 12.554688 9.855469 C 12.132812 10.453125 11.898438 11.003906 11.863281 11.082031 C 12.925781 12.230469 14.066406 12.386719 14.945312 11.988281 C 15.828125 11.585938 16.457031 10.613281 16.433594 9.46875 C 16.394531 9.414062 15.78125 8.519531 14.332031 8.566406 Z M 14.332031 8.566406 "/>
<path style=" stroke:none;fill-rule:evenodd;fill:rgb(100%,80%,0%);fill-opacity:1;" d="M 15.464844 10.507812 C 15.464844 9.796875 14.90625 9.21875 14.21875 9.21875 C 13.53125 9.21875 12.972656 9.796875 12.972656 10.507812 C 12.972656 11.222656 13.53125 11.800781 14.21875 11.800781 C 14.90625 11.800781 15.464844 11.222656 15.464844 10.507812 Z M 15.464844 10.507812 "/>
<path style=" stroke:none;fill-rule:evenodd;fill:rgb(8.627451%,0.784314%,0%);fill-opacity:1;" d="M 14.65625 10.519531 C 14.65625 10.804688 14.425781 11.035156 14.140625 11.035156 C 13.855469 11.035156 13.625 10.804688 13.625 10.519531 C 13.625 10.234375 13.855469 10.003906 14.140625 10.003906 C 14.425781 10.003906 14.65625 10.234375 14.65625 10.519531 Z M 14.65625 10.519531 "/>
<path style=" stroke:none;fill-rule:evenodd;fill:rgb(100%,100%,100%);fill-opacity:1;" d="M 13.949219 10.316406 C 13.949219 10.441406 13.851562 10.539062 13.730469 10.539062 C 13.609375 10.539062 13.511719 10.441406 13.511719 10.316406 C 13.511719 10.195312 13.609375 10.097656 13.730469 10.097656 C 13.851562 10.097656 13.949219 10.195312 13.949219 10.316406 Z M 13.949219 10.316406 "/>
<path style=" stroke:none;fill-rule:nonzero;fill:rgb(82.352941%,89.803922%,95.294118%);fill-opacity:1;" d="M 9.808594 11.121094 L 9.105469 10.230469 L 8.332031 9.707031 L 7.511719 9.578125 L 6.65625 9.675781 L 5.933594 9.941406 L 5.703125 10.199219 L 5.96875 10.90625 L 6.492188 11.378906 L 6.820312 11.617188 L 7.707031 11.777344 L 8.496094 11.691406 L 9.234375 11.453125 Z M 9.808594 11.121094 "/>
<path style=" stroke:none;fill-rule:nonzero;fill:rgb(58.823529%,65.098039%,69.411765%);fill-opacity:1;" d="M 9.542969 10.726562 C 9.542969 10.726562 8.558594 9.917969 7.546875 9.980469 C 6.6875 10.03125 5.675781 10.253906 5.675781 10.253906 L 5.902344 10.070312 L 6.65625 9.632812 L 7.972656 9.632812 L 8.628906 9.867188 L 9.121094 10.242188 Z M 9.542969 10.726562 "/>
<path style=" stroke:none;fill-rule:nonzero;fill:rgb(0%,0%,0%);fill-opacity:1;" d="M 9.480469 10.683594 C 9.480469 10.683594 8.613281 9.851562 7.582031 9.808594 C 6.71875 9.773438 5.675781 10.1875 5.675781 10.1875 L 5.902344 10.039062 L 6.65625 9.632812 L 7.972656 9.632812 L 8.628906 9.851562 L 9.316406 10.425781 Z M 9.480469 10.683594 "/>
<path style=" stroke:none;fill-rule:evenodd;fill:rgb(0%,0%,0%);fill-opacity:1;" d="M 7.667969 9.488281 C 6.328125 9.390625 5.453125 10.074219 5.453125 10.074219 L 5.613281 10.132812 C 5.582031 10.820312 6.144531 11.457031 6.972656 11.703125 C 7.800781 11.949219 9.035156 11.808594 9.804688 11.148438 L 9.859375 11.105469 C 9.472656 10.40625 8.847656 9.578125 7.667969 9.488281 Z M 7.644531 9.683594 C 8.242188 9.695312 8.785156 10.046875 9.171875 10.40625 C 9.53125 10.742188 9.734375 11.050781 9.761719 11.09375 C 8.851562 11.738281 7.871094 11.828125 7.117188 11.605469 C 6.355469 11.378906 5.820312 10.832031 5.835938 10.191406 C 5.871094 10.160156 6.398438 9.65625 7.644531 9.683594 Z M 7.644531 9.683594 "/>
<path style=" stroke:none;fill-rule:evenodd;fill:rgb(100%,80%,0%);fill-opacity:1;" d="M 6.671875 10.773438 C 6.671875 10.375 7.148438 10.050781 7.742188 10.050781 C 8.332031 10.050781 8.8125 10.375 8.8125 10.773438 C 8.8125 11.171875 8.332031 11.496094 7.742188 11.496094 C 7.148438 11.496094 6.671875 11.171875 6.671875 10.773438 Z M 6.671875 10.773438 "/>
<path style=" stroke:none;fill-rule:evenodd;fill:rgb(8.627451%,0.784314%,0%);fill-opacity:1;" d="M 7.363281 10.777344 C 7.363281 10.9375 7.5625 11.070312 7.808594 11.070312 C 8.050781 11.070312 8.25 10.9375 8.25 10.777344 C 8.25 10.621094 8.050781 10.488281 7.808594 10.488281 C 7.5625 10.488281 7.363281 10.621094 7.363281 10.777344 Z M 7.363281 10.777344 "/>
<path style=" stroke:none;fill-rule:evenodd;fill:rgb(100%,100%,100%);fill-opacity:1;" d="M 7.972656 10.667969 C 7.972656 10.734375 8.054688 10.789062 8.160156 10.789062 C 8.265625 10.789062 8.347656 10.734375 8.347656 10.667969 C 8.347656 10.597656 8.265625 10.542969 8.160156 10.542969 C 8.054688 10.542969 7.972656 10.597656 7.972656 10.667969 Z M 7.972656 10.667969 "/>
<path style=" stroke:none;fill-rule:evenodd;fill:rgb(0%,0%,0%);fill-opacity:1;" d="M 5.917969 14.375 C 7.230469 15.804688 9.40625 16.621094 11.777344 16.382812 C 13.867188 16.175781 15.648438 15.1875 16.730469 13.820312 C 15.363281 14.578125 13.742188 15.09375 11.976562 15.273438 C 9.753906 15.496094 7.648438 15.144531 5.917969 14.375 Z M 5.917969 14.375 "/>
<path style=" stroke:none;fill-rule:nonzero;fill:rgb(100%,83.529412%,83.529412%);fill-opacity:1;" d="M 8.167969 16.566406 L 7.90625 15.738281 L 7.585938 14.933594 L 8.429688 15.121094 L 9.289062 15.246094 L 8.703125 15.882812 Z M 8.167969 16.566406 "/>
<path style=" stroke:none;fill-rule:nonzero;fill:rgb(100%,83.529412%,83.529412%);fill-opacity:1;" d="M 13.171875 15.074219 L 13.804688 15.664062 L 14.390625 16.300781 L 14.585938 15.457031 L 14.84375 14.628906 L 14.015625 14.882812 Z M 13.171875 15.074219 "/>
</g>
</svg>
