
<svg xmlns="http://www.w3.org/2000/svg" xmlns:xlink="http://www.w3.org/1999/xlink" width="22px" height="22px" viewBox="0 0 22 22" version="1.1">
<defs>
<clipPath id="clip1">
  <path d="M 3.824219 4.125 L 17.960938 4.125 L 17.960938 18.089844 L 3.824219 18.089844 Z M 3.824219 4.125 "/>
</clipPath>
<clipPath id="clip2">
  <path d="M 6.117188 4.160156 L 15.648438 4.160156 C 16.910156 4.160156 17.933594 5.121094 17.933594 6.308594 L 17.933594 15.929688 C 17.933594 17.113281 16.910156 18.078125 15.648438 18.078125 L 6.117188 18.078125 C 4.851562 18.078125 3.828125 17.113281 3.828125 15.929688 L 3.828125 6.308594 C 3.828125 5.121094 4.851562 4.160156 6.117188 4.160156 Z M 6.117188 4.160156 "/>
</clipPath>
</defs>
<g id="surface1">
<path style="fill-rule:nonzero;fill:rgb(20%,20%,20%);fill-opacity:1;stroke-width:28.191782;stroke-linecap:butt;stroke-linejoin:miter;stroke:rgb(29.019608%,68.235294%,90.980392%);stroke-opacity:1;stroke-miterlimit:4;" d="M 81.454545 25.090909 L 430.545455 25.090909 C 461.636364 25.090909 486.909091 50.363636 486.909091 81.454545 L 486.909091 430.545455 C 486.909091 461.636364 461.636364 486.909091 430.545455 486.909091 L 81.454545 486.909091 C 50.363636 486.909091 25.090909 461.636364 25.090909 430.545455 L 25.090909 81.454545 C 25.090909 50.363636 50.363636 25.090909 81.454545 25.090909 Z M 81.454545 25.090909 " transform="matrix(0.0429688,0,0,0.0429688,0,0)"/>
<g clip-path="url(#clip1)" clip-rule="nonzero">
<g clip-path="url(#clip2)" clip-rule="nonzero">
<path style=" stroke:none;fill-rule:nonzero;fill:rgb(100%,100%,100%);fill-opacity:1;" d="M 20.074219 11.015625 C 20.074219 5.992188 16.003906 1.925781 10.980469 1.925781 C 5.957031 1.925781 1.882812 5.992188 1.882812 11.015625 C 1.882812 16.035156 5.957031 20.105469 10.980469 20.105469 C 16.003906 20.105469 20.074219 16.035156 20.074219 11.015625 Z M 20.074219 11.015625 "/>
<path style="fill-rule:nonzero;fill:rgb(20%,20%,20%);fill-opacity:1;stroke-width:10.00063;stroke-linecap:butt;stroke-linejoin:round;stroke:rgb(35.686275%,35.686275%,35.686275%);stroke-opacity:1;stroke-miterlimit:4;" d="M 235.181818 480.090909 C 203.727273 477.363636 169.272727 466.181818 141.636364 449.818182 C 81 413.818182 41.818182 354.181818 32.545455 283.818182 C 29.454545 260 31.090909 228.454545 36.545455 205.272727 C 42.272727 180.818182 54.363636 152.363636 67.272727 132.818182 C 105 75.636364 165.727273 38.818182 234.090909 31.727273 C 249.363636 30.181818 277.636364 31.181818 292.818182 33.727273 C 376.727273 48.090909 443.909091 105.818182 470.454545 186.545455 C 477.636364 208.363636 481 230.454545 481 256 C 481 283.272727 477.181818 305.909091 468.363636 331.454545 C 461.090909 352.363636 445.363636 380.454545 431.454545 397.454545 C 383.272727 456.181818 310.636364 486.727273 235.181818 480.090909 Z M 283.545455 394.454545 C 297.636364 391.636364 306.636364 388.545455 319.545455 382.090909 C 343 370.454545 363.181818 351.818182 377.181818 329 C 392.363636 304.181818 399.727273 272.272727 396.909091 243.727273 C 393.363636 208.090909 379.181818 178.454545 353.909091 154.090909 C 334 134.909091 310 122.363636 282.727273 116.909091 C 270.454545 114.454545 240.909091 114.454545 229.272727 116.909091 C 200.363636 123.090909 176.181818 136 156.272727 156 C 132 180.272727 117.909091 210.636364 115.090909 244.181818 L 114.363636 253.090909 L 102.090909 253.545455 C 91 254 89.727273 254.272727 89.363636 255.909091 C 88.909091 258.454545 129.181818 298.909091 132.181818 298.909091 C 134.727273 298.909091 176.454545 257.272727 175.818182 255.363636 C 175.454545 254.363636 172 254 161.363636 253.818182 L 147.454545 253.545455 L 147.454545 250.272727 C 147.454545 239.909091 153.181818 218.272727 159 206.727273 C 169.909091 185.272727 191.545455 165 213.363636 155.909091 C 228.090909 149.818182 238 147.818182 254.909091 147.727273 C 271 147.636364 276.454545 148.454545 289.909091 152.818182 C 306.545455 158.090909 319.818182 166.454545 332.818182 179.545455 C 354.272727 201.272727 364.363636 225.636364 364.363636 256 C 364.363636 275.090909 360.818182 289.727273 352.363636 306 C 341.363636 327.090909 324.636364 343.181818 303.181818 353.545455 C 261.454545 373.454545 213.727273 365.727273 180 333.545455 C 176.545455 330.181818 173.363636 327.454545 172.909091 327.454545 C 172.545455 327.454545 167.272727 331.818182 161.272727 337.090909 C 154.454545 343.090909 150.363636 347.363636 150.363636 348.545455 C 150.363636 352.727273 172 370.818182 187.363636 379.454545 C 201.545455 387.454545 222.545455 394.363636 238.909091 396.363636 C 250.454545 397.818182 271.545455 396.909091 283.545455 394.454545 Z M 283.545455 394.454545 " transform="matrix(0.0429688,0,0,0.0429688,0,0)"/>
</g>
</g>
</g>
</svg>
