<!-- color: #616161 -->
<svg xmlns="http://www.w3.org/2000/svg" xmlns:xlink="http://www.w3.org/1999/xlink" width="22px" height="22px" viewBox="0 0 22 22" version="1.1">
<defs>
<clipPath id="clip1">
  <path d="M 4.296875 4.296875 L 17.703125 4.296875 L 17.703125 13.792969 L 4.296875 13.792969 Z M 4.296875 4.296875 "/>
</clipPath>
<clipPath id="clip2">
  <path d="M 0.429688 -0.128906 L 21.570312 -0.128906 C 22.800781 -0.128906 23.796875 0.867188 23.796875 2.097656 L 23.796875 23.242188 C 23.796875 24.46875 22.800781 25.464844 21.570312 25.464844 L 0.429688 25.464844 C -0.800781 25.464844 -1.796875 24.46875 -1.796875 23.242188 L -1.796875 2.097656 C -1.796875 0.867188 -0.800781 -0.128906 0.429688 -0.128906 Z M 0.429688 -0.128906 "/>
</clipPath>
<clipPath id="clip3">
  <path d="M 4.296875 14.867188 L 17.660156 14.867188 L 17.660156 17.703125 L 4.296875 17.703125 Z M 4.296875 14.867188 "/>
</clipPath>
<clipPath id="clip4">
  <path d="M 0.429688 -0.128906 L 21.570312 -0.128906 C 22.800781 -0.128906 23.796875 0.867188 23.796875 2.097656 L 23.796875 23.242188 C 23.796875 24.46875 22.800781 25.464844 21.570312 25.464844 L 0.429688 25.464844 C -0.800781 25.464844 -1.796875 24.46875 -1.796875 23.242188 L -1.796875 2.097656 C -1.796875 0.867188 -0.800781 -0.128906 0.429688 -0.128906 Z M 0.429688 -0.128906 "/>
</clipPath>
</defs>
<g id="surface1">
<path style="fill-rule:nonzero;fill:rgb(50.196078%,50.196078%,50.196078%);fill-opacity:1;stroke-width:4.4;stroke-linecap:butt;stroke-linejoin:miter;stroke:rgb(0%,0%,0%);stroke-opacity:1;stroke-miterlimit:4;" d="M 18.727273 6.227273 L 109.272727 6.227273 C 116.159091 6.227273 121.772727 11.840909 121.772727 18.727273 L 121.772727 109.272727 C 121.772727 116.159091 116.159091 121.772727 109.272727 121.772727 L 18.727273 121.772727 C 11.840909 121.772727 6.227273 116.159091 6.227273 109.272727 L 6.227273 18.727273 C 6.227273 11.840909 11.840909 6.227273 18.727273 6.227273 Z M 18.727273 6.227273 " transform="matrix(0.171875,0,0,0.171875,0,0)"/>
<g clip-path="url(#clip1)" clip-rule="nonzero">
<g clip-path="url(#clip2)" clip-rule="nonzero">
<path style=" stroke:none;fill-rule:nonzero;fill:rgb(100%,100%,100%);fill-opacity:1;" d="M 17.675781 13.785156 L 4.324219 13.785156 L 11 4.324219 M 17.675781 13.785156 "/>
</g>
</g>
<g clip-path="url(#clip3)" clip-rule="nonzero">
<g clip-path="url(#clip4)" clip-rule="nonzero">
<path style=" stroke:none;fill-rule:evenodd;fill:rgb(100%,100%,100%);fill-opacity:1;" d="M 4.324219 14.894531 L 17.660156 14.894531 L 17.660156 17.675781 L 4.324219 17.675781 M 4.324219 14.894531 "/>
</g>
</g>
</g>
</svg>
