
<svg xmlns="http://www.w3.org/2000/svg" xmlns:xlink="http://www.w3.org/1999/xlink" width="22px" height="22px" viewBox="0 0 22 22" version="1.1">
<g id="surface1">
<path style="fill-rule:nonzero;fill:rgb(100%,100%,100%);fill-opacity:1;stroke-width:28.009619;stroke-linecap:butt;stroke-linejoin:miter;stroke:rgb(24.313725%,48.627451%,77.254902%);stroke-opacity:1;stroke-miterlimit:4;" d="M 83.070996 26.545455 L 429.92884 26.545455 C 460.807204 26.545455 485.947111 51.636364 485.947111 82.636364 L 485.947111 429.363636 C 485.947111 460.363636 460.807204 485.454545 429.92884 485.454545 L 83.070996 485.454545 C 52.192633 485.454545 27.052726 460.363636 27.052726 429.363636 L 27.052726 82.636364 C 27.052726 51.636364 52.192633 26.545455 83.070996 26.545455 Z M 83.070996 26.545455 " transform="matrix(0.042885,0,0,0.0429688,0,0)"/>
<path style=" stroke:none;fill-rule:nonzero;fill:rgb(20.784314%,23.921569%,24.313725%);fill-opacity:1;" d="M 1.707031 18.898438 L 1.707031 3.128906 C 1.707031 2.214844 2.429688 1.472656 3.324219 1.472656 L 18.675781 1.472656 C 19.570312 1.472656 20.292969 2.214844 20.292969 3.128906 L 20.292969 18.898438 C 20.292969 19.816406 19.570312 20.558594 18.675781 20.558594 L 3.324219 20.558594 C 2.429688 20.558594 1.707031 19.816406 1.707031 18.898438 Z M 1.707031 18.898438 "/>
<path style=" stroke:none;fill-rule:nonzero;fill:rgb(92.54902%,49.803922%,26.27451%);fill-opacity:1;" d="M 18.4375 6.589844 C 18.460938 6.632812 18.480469 6.675781 18.5 6.71875 C 18.5 6.726562 18.503906 6.738281 18.5 6.742188 C 18.496094 6.734375 18.488281 6.726562 18.488281 6.71875 C 18.46875 6.675781 18.457031 6.632812 18.4375 6.589844 M 18.4375 6.589844 "/>
<path style=" stroke:none;fill-rule:nonzero;fill:rgb(24.313725%,48.627451%,77.254902%);fill-opacity:1;" d="M 13.753906 3.460938 C 14.351562 3.578125 14.867188 3.714844 15.277344 3.902344 C 15.914062 4.183594 16.324219 4.546875 16.519531 4.972656 C 15.929688 4.867188 15.410156 4.898438 14.941406 5.082031 C 18.308594 6.402344 19.898438 7.972656 19.714844 9.785156 C 19.46875 9.40625 19.140625 9.160156 18.722656 9.035156 C 19.238281 11.023438 19.296875 12.65625 18.878906 13.953125 C 18.59375 13.085938 18.320312 12.578125 18.082031 12.398438 C 18.410156 15.0625 17.960938 17.035156 16.753906 18.320312 C 16.980469 17.535156 17.082031 16.894531 17.027344 16.390625 C 15.609375 18.5 13.996094 19.578125 12.1875 19.644531 C 11.472656 19.636719 10.789062 19.542969 10.152344 19.335938 C 9.21875 19.027344 8.371094 18.496094 7.621094 17.742188 C 8.792969 17.839844 9.863281 17.625 10.804688 17.152344 L 12.355469 16.175781 C 12.554688 16.03125 12.734375 16.046875 12.917969 16.136719 C 13.296875 16.082031 13.402344 15.964844 13.296875 15.613281 C 13.054688 15.40625 12.84375 15.128906 12.488281 14.929688 C 11.714844 14.53125 10.910156 14.507812 10.074219 15.117188 C 9.273438 15.566406 8.503906 15.539062 7.75 15.0625 C 7.257812 14.730469 6.773438 14.273438 6.316406 13.710938 L 6.148438 13.457031 L 6.148438 13.441406 C 6.167969 12.886719 6.394531 12.585938 6.839844 12.519531 C 7.34375 12.5625 7.921875 12.679688 8.574219 12.867188 C 8.683594 12.246094 8.539062 11.601562 8.144531 10.9375 L 8.15625 10.855469 C 8.769531 10.296875 9.269531 9.953125 9.734375 9.691406 C 9.902344 9.464844 9.976562 9.394531 10.101562 9.195312 C 10.074219 9.136719 10.128906 9.097656 10.164062 9.128906 C 10.203125 8.957031 10.199219 8.984375 10.046875 8.765625 C 9.597656 8.875 9.085938 8.734375 8.742188 8.644531 C 8.566406 8.59375 8.324219 8.492188 8.050781 8.230469 L 7.347656 7.546875 L 7.164062 7.304688 L 7.175781 7.226562 C 7.257812 6.6875 7.515625 6.253906 7.726562 5.84375 C 7.953125 5.46875 8.394531 5.058594 9.042969 4.625 C 7.839844 4.773438 6.75 5.3125 5.78125 6.234375 C 4.980469 5.945312 4.019531 6.007812 2.925781 6.421875 C 2.242188 6.105469 2.285156 5.675781 2.0625 4.222656 C 1.832031 4.480469 1.605469 4.730469 1.398438 5 L 1.398438 19.125 C 1.398438 20.074219 2.144531 20.839844 3.066406 20.839844 L 18.933594 20.839844 C 19.855469 20.839844 20.601562 20.074219 20.601562 19.125 L 20.601562 6.382812 C 19.898438 5.273438 18.769531 4.394531 17.3125 3.957031 C 16.316406 3.660156 15.121094 3.5 13.753906 3.460938 Z M 13.753906 3.460938 "/>
<path style=" stroke:none;fill-rule:nonzero;fill:rgb(0%,0%,0%);fill-opacity:0.101961;" d="M 20.488281 7.871094 C 20.519531 7.925781 20.542969 7.980469 20.570312 8.03125 C 20.570312 8.042969 20.574219 8.054688 20.570312 8.0625 C 20.566406 8.054688 20.554688 8.039062 20.554688 8.03125 C 20.53125 7.976562 20.515625 7.925781 20.488281 7.871094 Z M 20.488281 7.871094 "/>
<path style=" stroke:none;fill-rule:nonzero;fill:rgb(92.941176%,49.803922%,26.27451%);fill-opacity:1;" d="M 20.488281 7.433594 C 20.519531 7.488281 20.542969 7.542969 20.570312 7.59375 C 20.570312 7.605469 20.574219 7.617188 20.570312 7.625 C 20.566406 7.617188 20.554688 7.601562 20.554688 7.59375 C 20.53125 7.539062 20.515625 7.488281 20.488281 7.433594 Z M 20.488281 7.433594 "/>
<path style=" stroke:none;fill-rule:nonzero;fill:rgb(0%,0%,0%);fill-opacity:0.0196078;" d="M 0.960938 19.089844 L 0.960938 19.199219 C 0.960938 20.167969 1.742188 20.949219 2.707031 20.949219 L 19.292969 20.949219 C 20.257812 20.949219 21.039062 20.167969 21.039062 19.199219 L 21.039062 19.089844 C 21.039062 20.058594 20.257812 20.839844 19.292969 20.839844 L 2.707031 20.839844 C 1.742188 20.839844 0.960938 20.058594 0.960938 19.089844 Z M 0.960938 19.308594 L 0.960938 19.527344 C 0.960938 20.496094 1.742188 21.277344 2.707031 21.277344 L 19.292969 21.277344 C 20.257812 21.277344 21.039062 20.496094 21.039062 19.527344 L 21.039062 19.308594 C 21.039062 20.277344 20.257812 21.058594 19.292969 21.058594 L 2.707031 21.058594 C 1.742188 21.058594 0.960938 20.277344 0.960938 19.308594 Z M 0.960938 19.308594 "/>
<path style=" stroke:none;fill-rule:nonzero;fill:rgb(0%,0%,0%);fill-opacity:0.0509804;" d="M 0.960938 19.199219 L 0.960938 19.308594 C 0.960938 20.277344 1.742188 21.058594 2.707031 21.058594 L 19.292969 21.058594 C 20.257812 21.058594 21.039062 20.277344 21.039062 19.308594 L 21.039062 19.199219 C 21.039062 20.167969 20.257812 20.949219 19.292969 20.949219 L 2.707031 20.949219 C 1.742188 20.949219 0.960938 20.167969 0.960938 19.199219 Z M 0.960938 19.199219 "/>
<path style=" stroke:none;fill-rule:nonzero;fill:rgb(0%,0%,0%);fill-opacity:0.101961;" d="M 0.960938 19.089844 L 0.960938 19.199219 C 0.960938 20.167969 1.742188 20.949219 2.707031 20.949219 L 19.292969 20.949219 C 20.257812 20.949219 21.039062 20.167969 21.039062 19.199219 L 21.039062 19.089844 C 21.039062 20.058594 20.257812 20.839844 19.292969 20.839844 L 2.707031 20.839844 C 1.742188 20.839844 0.960938 20.058594 0.960938 19.089844 Z M 0.960938 19.089844 "/>
</g>
</svg>
