
<svg xmlns="http://www.w3.org/2000/svg" xmlns:xlink="http://www.w3.org/1999/xlink" width="22px" height="22px" viewBox="0 0 22 22" version="1.1">
<g id="surface1">
<path style="fill-rule:nonzero;fill:rgb(100%,100%,100%);fill-opacity:1;stroke-width:28.191782;stroke-linecap:butt;stroke-linejoin:miter;stroke:rgb(6.27451%,63.137255%,61.960784%);stroke-opacity:1;stroke-miterlimit:4;" d="M 81.454545 25.090909 L 430.545455 25.090909 C 461.636364 25.090909 486.909091 50.363636 486.909091 81.454545 L 486.909091 430.545455 C 486.909091 461.636364 461.636364 486.909091 430.545455 486.909091 L 81.454545 486.909091 C 50.363636 486.909091 25.090909 461.636364 25.090909 430.545455 L 25.090909 81.454545 C 25.090909 50.363636 50.363636 25.090909 81.454545 25.090909 Z M 81.454545 25.090909 " transform="matrix(0.0429688,0,0,0.0429688,0,0)"/>
<path style=" stroke:none;fill-rule:nonzero;fill:rgb(100%,16.470588%,16.470588%);fill-opacity:1;" d="M 10.859375 5.457031 C 10.859375 6.390625 10.101562 7.148438 9.164062 7.148438 C 8.230469 7.148438 7.472656 6.390625 7.472656 5.457031 C 7.472656 4.519531 8.230469 3.761719 9.164062 3.761719 C 10.101562 3.761719 10.859375 4.519531 10.859375 5.457031 Z M 10.859375 5.457031 "/>
<path style=" stroke:none;fill-rule:nonzero;fill:rgb(0%,50.196078%,0%);fill-opacity:1;" d="M 18.207031 11.875 C 18.207031 12.808594 17.449219 13.566406 16.515625 13.566406 C 15.582031 13.566406 14.824219 12.808594 14.824219 11.875 C 14.824219 10.941406 15.582031 10.183594 16.515625 10.183594 C 17.449219 10.183594 18.207031 10.941406 18.207031 11.875 Z M 18.207031 11.875 "/>
<path style=" stroke:none;fill-rule:nonzero;fill:rgb(0%,74.117647%,89.803922%);fill-opacity:1;" d="M 17.996094 5.5 C 17.996094 6.433594 17.238281 7.191406 16.304688 7.191406 C 15.371094 7.191406 14.613281 6.433594 14.613281 5.5 C 14.613281 4.5625 15.371094 3.804688 16.304688 3.804688 C 17.238281 3.804688 17.996094 4.5625 17.996094 5.5 Z M 17.996094 5.5 "/>
<path style=" stroke:none;fill-rule:nonzero;fill:rgb(100%,16.470588%,16.470588%);fill-opacity:1;" d="M 6.039062 4.367188 C 6.039062 5.304688 5.28125 6.0625 4.34375 6.0625 C 3.410156 6.0625 2.652344 5.304688 2.652344 4.367188 C 2.652344 3.433594 3.410156 2.675781 4.34375 2.675781 C 5.28125 2.675781 6.039062 3.433594 6.039062 4.367188 Z M 6.039062 4.367188 "/>
<path style=" stroke:none;fill-rule:nonzero;fill:rgb(0%,50.196078%,0%);fill-opacity:1;" d="M 8.894531 9.164062 C 8.894531 10.097656 8.136719 10.855469 7.203125 10.855469 C 6.269531 10.855469 5.511719 10.097656 5.511719 9.164062 C 5.511719 8.226562 6.269531 7.46875 7.203125 7.46875 C 8.136719 7.46875 8.894531 8.226562 8.894531 9.164062 Z M 8.894531 9.164062 "/>
<path style=" stroke:none;fill-rule:nonzero;fill:rgb(0%,74.117647%,89.803922%);fill-opacity:1;" d="M 14.625 8.488281 C 14.625 9.421875 13.867188 10.179688 12.933594 10.179688 C 12 10.179688 11.242188 9.421875 11.242188 8.488281 C 11.242188 7.550781 12 6.792969 12.933594 6.792969 C 13.867188 6.792969 14.625 7.550781 14.625 8.488281 Z M 14.625 8.488281 "/>
<path style=" stroke:none;fill-rule:nonzero;fill:rgb(0%,74.117647%,89.803922%);fill-opacity:1;" d="M 9.84375 13.503906 C 9.84375 14.4375 9.085938 15.195312 8.152344 15.195312 C 7.21875 15.195312 6.460938 14.4375 6.460938 13.503906 C 6.460938 12.570312 7.21875 11.8125 8.152344 11.8125 C 9.085938 11.8125 9.84375 12.570312 9.84375 13.503906 Z M 9.84375 13.503906 "/>
<path style=" stroke:none;fill-rule:nonzero;fill:rgb(0%,74.117647%,89.803922%);fill-opacity:1;" d="M 6.082031 17.480469 C 6.082031 18.414062 5.324219 19.171875 4.390625 19.171875 C 3.457031 19.171875 2.699219 18.414062 2.699219 17.480469 C 2.699219 16.546875 3.457031 15.789062 4.390625 15.789062 C 5.324219 15.789062 6.082031 16.546875 6.082031 17.480469 Z M 6.082031 17.480469 "/>
<path style=" stroke:none;fill-rule:nonzero;fill:rgb(0%,74.117647%,89.803922%);fill-opacity:1;" d="M 13.558594 16.488281 C 13.558594 17.421875 12.800781 18.179688 11.867188 18.179688 C 10.929688 18.179688 10.175781 17.421875 10.175781 16.488281 C 10.175781 15.550781 10.929688 14.796875 11.867188 14.796875 C 12.800781 14.796875 13.558594 15.550781 13.558594 16.488281 Z M 13.558594 16.488281 "/>
<path style=" stroke:none;fill-rule:nonzero;fill:rgb(100%,16.470588%,16.470588%);fill-opacity:1;" d="M 18.792969 16.722656 C 18.792969 17.65625 18.035156 18.414062 17.097656 18.414062 C 16.164062 18.414062 15.40625 17.65625 15.40625 16.722656 C 15.40625 15.789062 16.164062 15.03125 17.097656 15.03125 C 18.035156 15.03125 18.792969 15.789062 18.792969 16.722656 Z M 18.792969 16.722656 "/>
</g>
</svg>
