
<svg xmlns="http://www.w3.org/2000/svg" xmlns:xlink="http://www.w3.org/1999/xlink" width="22px" height="22px" viewBox="0 0 22 22" version="1.1">
<g id="surface1">
<path style="fill-rule:nonzero;fill:rgb(62.745098%,17.254902%,17.254902%);fill-opacity:1;stroke-width:56.239723;stroke-linecap:butt;stroke-linejoin:miter;stroke:rgb(98.039216%,57.647059%,57.647059%);stroke-opacity:1;stroke-miterlimit:4;" d="M 173.645481 54.005856 L 870.104192 54.005856 C 932.186065 54.005856 982.49379 104.313581 982.49379 166.395454 L 982.49379 862.854164 C 982.49379 924.936037 932.186065 975.243762 870.104192 975.243762 L 173.645481 975.243762 C 111.563609 975.243762 61.255884 924.936037 61.255884 862.854164 L 61.255884 166.395454 C 61.255884 104.313581 111.563609 54.005856 173.645481 54.005856 Z M 173.645481 54.005856 " transform="matrix(0.0218965,0,0,0.0218965,-0.427226,-0.268476)"/>
<path style=" stroke:none;fill-rule:nonzero;fill:rgb(100%,100%,100%);fill-opacity:1;" d="M 12.136719 19.171875 C 12.632812 19.128906 12.914062 19.039062 13.566406 18.710938 C 14.597656 18.195312 15.414062 17.578125 15.867188 16.96875 C 16.496094 16.125 16.878906 15.183594 17.011719 14.160156 C 17.058594 13.796875 17.046875 12.726562 16.992188 12.40625 C 16.792969 11.28125 16.308594 10.253906 15.617188 9.488281 C 14.933594 8.734375 14.160156 8.253906 13.15625 7.960938 C 13.023438 7.925781 12.90625 7.882812 12.898438 7.875 C 12.875 7.851562 13.042969 7.800781 13.265625 7.761719 C 13.503906 7.71875 14.25 7.726562 14.503906 7.773438 C 14.964844 7.859375 15.589844 8.128906 15.992188 8.417969 C 16.238281 8.59375 16.617188 8.953125 16.839844 9.214844 C 17.460938 9.960938 17.882812 10.949219 18.019531 11.980469 C 18.039062 12.113281 18.0625 12.515625 18.074219 12.878906 C 18.09375 13.601562 18.109375 13.707031 18.226562 13.839844 C 18.394531 14.03125 18.664062 13.933594 18.886719 13.605469 C 19.132812 13.242188 19.351562 12.578125 19.429688 11.96875 C 19.464844 11.691406 19.457031 10.964844 19.417969 10.664062 C 19.191406 8.945312 18.125 7.269531 16.660156 6.347656 C 16.019531 5.945312 15.367188 5.707031 14.570312 5.582031 C 14.253906 5.535156 13.257812 5.527344 12.90625 5.570312 C 11.910156 5.699219 10.972656 6.03125 10.234375 6.527344 C 9.703125 6.882812 9.351562 7.246094 9.023438 7.769531 C 8.769531 8.179688 8.785156 8.171875 8.796875 7.875 C 8.828125 7.152344 9.144531 6.464844 9.710938 5.871094 C 10.121094 5.445312 10.488281 5.179688 11.027344 4.917969 C 11.765625 4.5625 12.421875 4.414062 13.265625 4.410156 C 13.984375 4.410156 14.382812 4.484375 15.117188 4.761719 C 15.613281 4.949219 15.761719 4.988281 15.960938 4.988281 C 16.148438 4.992188 16.261719 4.945312 16.320312 4.847656 C 16.441406 4.648438 16.308594 4.339844 15.929688 3.945312 C 15.292969 3.292969 14.535156 2.910156 13.507812 2.726562 C 13.179688 2.667969 12.335938 2.644531 11.917969 2.683594 C 10.417969 2.820312 9.203125 3.363281 8.238281 4.324219 C 7.507812 5.058594 6.988281 5.945312 6.695312 6.960938 C 6.355469 8.148438 6.398438 9.425781 6.820312 10.484375 C 6.992188 10.914062 7.1875 11.261719 7.527344 11.738281 C 7.628906 11.882812 7.714844 12.015625 7.714844 12.027344 C 7.714844 12.066406 7.480469 11.976562 7.191406 11.824219 C 5.410156 10.898438 4.824219 8.3125 5.890625 6.0625 C 6.050781 5.722656 6.253906 5.390625 6.550781 4.996094 C 6.859375 4.585938 6.957031 4.398438 6.964844 4.199219 C 6.972656 4.082031 6.964844 4.039062 6.929688 3.984375 C 6.785156 3.753906 6.386719 3.769531 5.90625 4.019531 C 5.4375 4.265625 5.058594 4.589844 4.636719 5.105469 C 4.347656 5.453125 4.003906 6.085938 3.808594 6.613281 C 3.699219 6.910156 3.558594 7.4375 3.503906 7.742188 C 3.441406 8.085938 3.421875 8.351562 3.425781 8.898438 C 3.425781 9.488281 3.441406 9.695312 3.523438 10.097656 C 3.667969 10.820312 3.90625 11.40625 4.273438 11.957031 C 5.480469 13.777344 7.957031 14.917969 10.003906 14.605469 C 10.292969 14.558594 10.589844 14.46875 10.925781 14.324219 C 11.078125 14.257812 11.210938 14.203125 11.222656 14.207031 C 11.261719 14.222656 10.96875 14.597656 10.769531 14.792969 C 10.21875 15.324219 9.542969 15.589844 8.644531 15.617188 C 8.058594 15.640625 7.613281 15.582031 7.066406 15.414062 C 6.171875 15.144531 5.421875 14.695312 4.757812 14.03125 C 4.433594 13.703125 4.242188 13.46875 3.984375 13.066406 C 3.808594 12.796875 3.621094 12.59375 3.5 12.535156 C 3.449219 12.511719 3.363281 12.496094 3.292969 12.496094 C 3.183594 12.496094 3.171875 12.5 3.085938 12.589844 C 2.964844 12.714844 2.933594 12.832031 2.9375 13.144531 C 2.941406 13.542969 3.054688 13.949219 3.324219 14.5 C 4.117188 16.132812 5.953125 17.382812 7.933594 17.644531 C 8.050781 17.660156 8.367188 17.671875 8.65625 17.671875 C 9.234375 17.671875 9.496094 17.636719 10.003906 17.496094 C 11.878906 16.984375 13.5 15.503906 14.101562 13.753906 C 14.292969 13.207031 14.332031 12.949219 14.347656 12.222656 L 14.359375 11.628906 L 14.453125 11.753906 C 15.296875 12.863281 15.238281 14.417969 14.292969 15.847656 C 14.074219 16.179688 13.910156 16.375 13.5625 16.722656 C 13.101562 17.183594 12.609375 17.535156 12.0625 17.796875 C 11.765625 17.9375 11.480469 18.039062 11.011719 18.167969 C 10.527344 18.304688 10.429688 18.34375 10.328125 18.457031 C 10.253906 18.539062 10.25 18.550781 10.261719 18.660156 C 10.285156 18.941406 10.589844 19.117188 11.136719 19.171875 C 11.402344 19.199219 11.851562 19.199219 12.136719 19.171875 Z M 12.136719 19.171875 "/>
</g>
</svg>
