
<svg xmlns="http://www.w3.org/2000/svg" xmlns:xlink="http://www.w3.org/1999/xlink" width="22px" height="22px" viewBox="0 0 22 22" version="1.1">
<g id="surface1">
<path style="fill-rule:nonzero;fill:rgb(100%,100%,100%);fill-opacity:1;stroke-width:5.452268;stroke-linecap:butt;stroke-linejoin:miter;stroke:rgb(29.019608%,68.235294%,90.980392%);stroke-opacity:1;stroke-miterlimit:4;" d="M 17.454545 -95.854545 L 84.945455 -95.854545 C 90.981818 -95.854545 95.854545 -90.981818 95.854545 -84.945455 L 95.854545 -17.454545 C 95.854545 -11.418182 90.981818 -6.545455 84.945455 -6.545455 L 17.454545 -6.545455 C 11.418182 -6.545455 6.545455 -11.418182 6.545455 -17.454545 L 6.545455 -84.945455 C 6.545455 -90.981818 11.418182 -95.854545 17.454545 -95.854545 Z M 17.454545 -95.854545 " transform="matrix(0.214844,0,0,0.214844,0,22)"/>
<path style=" stroke:none;fill-rule:evenodd;fill:rgb(34.117647%,68.627451%,78.823529%);fill-opacity:1;" d="M 16.75 13.386719 C 16.917969 13.640625 17.054688 13.910156 17.125 14.207031 C 17.445312 15.546875 16.632812 16.820312 15.34375 17.117188 C 14.667969 17.273438 14.039062 17.148438 13.457031 16.769531 C 13.445312 16.761719 13.429688 16.75 13.410156 16.742188 C 13.375 16.785156 13.378906 16.839844 13.371094 16.886719 C 13.140625 17.84375 12.382812 18.550781 11.417969 18.707031 C 10.140625 18.914062 8.941406 18.078125 8.6875 16.804688 C 8.683594 16.78125 8.675781 16.757812 8.671875 16.734375 C 8.671875 16.730469 8.671875 16.722656 8.675781 16.71875 C 8.699219 16.714844 8.714844 16.695312 8.734375 16.679688 C 8.980469 16.492188 9.1875 16.261719 9.40625 16.039062 C 9.902344 15.539062 10.414062 15.054688 10.894531 14.539062 C 10.949219 14.480469 10.980469 14.40625 11.046875 14.359375 C 11.121094 14.464844 11.199219 14.570312 11.289062 14.664062 C 11.898438 15.273438 12.507812 15.886719 13.121094 16.492188 C 13.203125 16.574219 13.285156 16.65625 13.394531 16.710938 C 13.425781 16.585938 13.433594 16.46875 13.433594 16.351562 C 13.4375 15.507812 13.4375 14.664062 13.433594 13.824219 C 13.433594 13.675781 13.417969 13.527344 13.382812 13.382812 C 13.503906 13.394531 13.621094 13.417969 13.738281 13.417969 C 14.644531 13.417969 15.550781 13.417969 16.457031 13.417969 C 16.546875 13.417969 16.640625 13.402344 16.730469 13.382812 C 16.738281 13.382812 16.742188 13.386719 16.75 13.386719 "/>
<path style=" stroke:none;fill-rule:evenodd;fill:rgb(97.254902%,66.27451%,19.215686%);fill-opacity:1;" d="M 8.671875 5.320312 C 8.765625 4.796875 8.992188 4.339844 9.382812 3.980469 C 10.066406 3.351562 10.867188 3.152344 11.753906 3.429688 C 12.640625 3.710938 13.179688 4.335938 13.382812 5.242188 C 13.390625 5.269531 13.394531 5.292969 13.402344 5.320312 C 13.414062 5.441406 13.433594 5.5625 13.433594 5.683594 C 13.4375 6.539062 13.4375 7.398438 13.433594 8.257812 C 13.433594 8.394531 13.417969 8.535156 13.386719 8.671875 C 13.371094 8.675781 13.359375 8.683594 13.34375 8.6875 C 12.855469 8.796875 12.4375 9.03125 12.09375 9.398438 C 11.785156 9.730469 11.582031 10.117188 11.5 10.566406 C 11.496094 10.566406 11.492188 10.570312 11.488281 10.574219 C 11.398438 10.585938 11.316406 10.617188 11.222656 10.628906 C 11.109375 10.632812 10.984375 10.628906 10.871094 10.605469 C 10.949219 10.5 11.035156 10.394531 11.101562 10.28125 C 11.375 9.824219 11.488281 9.328125 11.433594 8.792969 C 11.375 8.242188 11.152344 7.769531 10.769531 7.378906 C 10.167969 6.769531 9.558594 6.167969 8.953125 5.5625 C 8.867188 5.476562 8.777344 5.398438 8.675781 5.339844 C 8.671875 5.332031 8.671875 5.328125 8.671875 5.320312 "/>
<path style=" stroke:none;fill-rule:evenodd;fill:rgb(64.705882%,82.352941%,49.019608%);fill-opacity:1;" d="M 16.75 13.386719 C 16.742188 13.386719 16.738281 13.382812 16.730469 13.382812 C 16.726562 13.375 16.722656 13.367188 16.71875 13.359375 C 16.636719 13.242188 16.535156 13.136719 16.429688 13.035156 C 15.738281 12.371094 15.105469 11.648438 14.375 11.027344 C 14.46875 10.933594 14.582031 10.867188 14.679688 10.769531 C 15.277344 10.171875 15.878906 9.570312 16.480469 8.972656 C 16.570312 8.878906 16.65625 8.78125 16.730469 8.671875 C 16.738281 8.671875 16.746094 8.671875 16.753906 8.671875 C 17.210938 8.742188 17.609375 8.9375 17.953125 9.242188 C 18.390625 9.632812 18.65625 10.121094 18.734375 10.699219 C 18.910156 11.964844 18.070312 13.109375 16.859375 13.367188 C 16.824219 13.375 16.789062 13.378906 16.75 13.386719 "/>
<path style=" stroke:none;fill-rule:evenodd;fill:rgb(75.686275%,86.27451%,45.098039%);fill-opacity:1;" d="M 16.753906 8.671875 C 16.746094 8.671875 16.738281 8.671875 16.730469 8.671875 C 16.636719 8.652344 16.539062 8.636719 16.4375 8.636719 C 15.542969 8.636719 14.648438 8.636719 13.753906 8.636719 C 13.632812 8.640625 13.507812 8.660156 13.386719 8.671875 C 13.417969 8.535156 13.433594 8.394531 13.433594 8.257812 C 13.4375 7.398438 13.4375 6.539062 13.433594 5.683594 C 13.433594 5.5625 13.414062 5.441406 13.402344 5.320312 C 13.722656 5.101562 14.070312 4.953125 14.460938 4.898438 C 15.089844 4.8125 15.671875 4.949219 16.191406 5.316406 C 16.722656 5.695312 17.050781 6.214844 17.164062 6.859375 C 17.269531 7.488281 17.136719 8.074219 16.785156 8.609375 C 16.773438 8.628906 16.75 8.644531 16.753906 8.671875 "/>
<path style=" stroke:none;fill-rule:evenodd;fill:rgb(66.666667%,50.588235%,72.156863%);fill-opacity:1;" d="M 5.320312 13.386719 C 5.328125 13.386719 5.335938 13.382812 5.339844 13.382812 C 5.425781 13.40625 5.511719 13.417969 5.597656 13.417969 C 6.628906 13.398438 7.65625 13.464844 8.6875 13.382812 C 8.65625 13.546875 8.636719 13.714844 8.636719 13.882812 C 8.636719 14.617188 8.636719 15.355469 8.636719 16.09375 C 8.636719 16.300781 8.640625 16.511719 8.675781 16.71875 C 8.671875 16.722656 8.671875 16.730469 8.671875 16.734375 C 8.375 16.933594 8.054688 17.082031 7.699219 17.140625 C 6.945312 17.265625 6.273438 17.085938 5.695312 16.589844 C 5.230469 16.1875 4.960938 15.671875 4.890625 15.0625 C 4.824219 14.476562 4.960938 13.9375 5.285156 13.445312 C 5.300781 13.429688 5.308594 13.40625 5.320312 13.386719 "/>
<path style=" stroke:none;fill-rule:evenodd;fill:rgb(92.941176%,47.45098%,52.156863%);fill-opacity:1;" d="M 5.34375 8.671875 C 5.335938 8.671875 5.328125 8.671875 5.320312 8.671875 C 5.277344 8.601562 5.238281 8.53125 5.195312 8.460938 C 4.980469 8.089844 4.871094 7.6875 4.875 7.265625 C 4.882812 6.066406 5.730469 5.101562 6.867188 4.90625 C 7.496094 4.800781 8.078125 4.933594 8.609375 5.285156 C 8.628906 5.296875 8.652344 5.308594 8.671875 5.320312 C 8.671875 5.328125 8.671875 5.332031 8.675781 5.339844 C 8.664062 5.453125 8.640625 5.5625 8.640625 5.675781 C 8.636719 6.539062 8.636719 7.398438 8.640625 8.261719 C 8.640625 8.398438 8.652344 8.539062 8.691406 8.671875 C 8.574219 8.660156 8.457031 8.640625 8.335938 8.640625 C 7.429688 8.636719 6.523438 8.636719 5.617188 8.636719 C 5.523438 8.636719 5.433594 8.648438 5.34375 8.671875 "/>
<path style=" stroke:none;fill-rule:evenodd;fill:rgb(36.862745%,32.156863%,61.176471%);fill-opacity:1;" d="M 8.675781 16.71875 C 8.640625 16.511719 8.636719 16.300781 8.636719 16.09375 C 8.636719 15.355469 8.636719 14.617188 8.636719 13.882812 C 8.636719 13.714844 8.65625 13.546875 8.6875 13.382812 C 8.6875 13.375 8.691406 13.371094 8.691406 13.367188 C 8.71875 13.367188 8.746094 13.363281 8.777344 13.355469 C 9.460938 13.1875 9.976562 12.796875 10.324219 12.183594 C 10.445312 11.96875 10.539062 11.738281 10.570312 11.484375 C 10.574219 11.484375 10.578125 11.480469 10.582031 11.480469 C 10.671875 11.46875 10.765625 11.457031 10.855469 11.441406 C 10.863281 11.445312 10.867188 11.445312 10.871094 11.449219 C 10.914062 11.53125 10.992188 11.589844 11.027344 11.675781 C 11.023438 11.6875 11.023438 11.699219 11.015625 11.707031 C 10.632812 12.308594 10.535156 12.957031 10.714844 13.644531 C 10.78125 13.894531 10.882812 14.132812 11.042969 14.339844 C 11.042969 14.347656 11.042969 14.351562 11.046875 14.359375 C 10.980469 14.40625 10.949219 14.480469 10.894531 14.539062 C 10.414062 15.054688 9.902344 15.539062 9.40625 16.039062 C 9.1875 16.261719 8.980469 16.492188 8.734375 16.679688 C 8.714844 16.695312 8.699219 16.714844 8.675781 16.71875 "/>
<path style=" stroke:none;fill-rule:evenodd;fill:rgb(16.470588%,43.529412%,63.137255%);fill-opacity:1;" d="M 11.046875 14.359375 C 11.042969 14.351562 11.042969 14.347656 11.042969 14.339844 C 11.050781 14.328125 11.058594 14.3125 11.0625 14.300781 C 11.492188 13.601562 11.558594 12.871094 11.265625 12.105469 C 11.210938 11.953125 11.121094 11.816406 11.042969 11.675781 C 11.078125 11.589844 11.160156 11.53125 11.203125 11.449219 C 11.207031 11.445312 11.210938 11.445312 11.214844 11.445312 C 11.304688 11.46875 11.398438 11.464844 11.492188 11.480469 C 11.496094 11.480469 11.496094 11.484375 11.5 11.488281 C 11.5 11.5 11.496094 11.511719 11.5 11.519531 C 11.675781 12.429688 12.449219 13.195312 13.363281 13.371094 C 13.371094 13.375 13.378906 13.378906 13.382812 13.382812 C 13.417969 13.527344 13.433594 13.675781 13.433594 13.824219 C 13.4375 14.664062 13.4375 15.507812 13.433594 16.351562 C 13.433594 16.46875 13.425781 16.585938 13.394531 16.710938 C 13.285156 16.65625 13.203125 16.574219 13.121094 16.492188 C 12.507812 15.886719 11.898438 15.273438 11.289062 14.664062 C 11.199219 14.570312 11.121094 14.464844 11.046875 14.359375 "/>
<path style=" stroke:none;fill-rule:evenodd;fill:rgb(21.960784%,59.607843%,41.960784%);fill-opacity:1;" d="M 13.382812 13.382812 C 13.378906 13.378906 13.371094 13.375 13.363281 13.371094 C 13.386719 13.355469 13.378906 13.335938 13.375 13.316406 C 13.277344 12.890625 13.082031 12.519531 12.785156 12.199219 C 12.433594 11.824219 12.003906 11.589844 11.5 11.488281 C 11.496094 11.484375 11.496094 11.480469 11.492188 11.480469 C 11.476562 11.394531 11.476562 11.304688 11.445312 11.21875 C 11.449219 11.210938 11.453125 11.199219 11.460938 11.191406 C 11.53125 11.136719 11.601562 11.082031 11.675781 11.027344 C 11.679688 11.027344 11.6875 11.027344 11.695312 11.03125 C 11.757812 11.070312 11.820312 11.113281 11.886719 11.148438 C 12.375 11.40625 12.890625 11.484375 13.433594 11.394531 C 13.765625 11.335938 14.070312 11.21875 14.34375 11.027344 L 14.371094 11.027344 C 15.105469 11.648438 15.738281 12.371094 16.429688 13.035156 C 16.535156 13.136719 16.636719 13.242188 16.71875 13.359375 C 16.722656 13.367188 16.726562 13.375 16.730469 13.382812 C 16.640625 13.402344 16.546875 13.417969 16.457031 13.417969 C 15.550781 13.417969 14.644531 13.417969 13.738281 13.417969 C 13.621094 13.417969 13.503906 13.394531 13.382812 13.382812 "/>
<path style=" stroke:none;fill-rule:evenodd;fill:rgb(86.27451%,29.019608%,7.45098%);fill-opacity:1;" d="M 8.691406 8.671875 C 8.652344 8.539062 8.640625 8.398438 8.640625 8.261719 C 8.636719 7.398438 8.636719 6.539062 8.640625 5.675781 C 8.640625 5.5625 8.664062 5.453125 8.675781 5.339844 C 8.777344 5.398438 8.867188 5.476562 8.953125 5.5625 C 9.558594 6.167969 10.167969 6.769531 10.769531 7.378906 C 11.152344 7.769531 11.375 8.242188 11.433594 8.792969 C 11.488281 9.328125 11.375 9.824219 11.101562 10.28125 C 11.035156 10.394531 10.949219 10.5 10.871094 10.605469 C 10.867188 10.609375 10.859375 10.609375 10.855469 10.613281 C 10.761719 10.597656 10.667969 10.585938 10.578125 10.574219 C 10.570312 10.542969 10.570312 10.511719 10.5625 10.480469 C 10.476562 10.097656 10.300781 9.761719 10.046875 9.46875 C 9.820312 9.203125 9.546875 8.996094 9.226562 8.851562 C 9.054688 8.773438 8.871094 8.722656 8.691406 8.671875 "/>
<path style=" stroke:none;fill-rule:evenodd;fill:rgb(50.980392%,72.941176%,21.568627%);fill-opacity:1;" d="M 11.695312 11.03125 C 11.6875 11.027344 11.679688 11.027344 11.675781 11.027344 C 11.609375 10.96875 11.542969 10.914062 11.46875 10.867188 C 11.449219 10.765625 11.488281 10.671875 11.488281 10.574219 C 11.492188 10.570312 11.496094 10.566406 11.5 10.566406 C 11.902344 10.480469 12.261719 10.3125 12.578125 10.046875 C 12.984375 9.699219 13.25 9.269531 13.367188 8.746094 C 13.375 8.71875 13.386719 8.695312 13.34375 8.6875 C 13.359375 8.683594 13.371094 8.675781 13.386719 8.671875 C 13.507812 8.660156 13.632812 8.640625 13.753906 8.636719 C 14.648438 8.636719 15.542969 8.636719 16.4375 8.636719 C 16.539062 8.636719 16.636719 8.652344 16.730469 8.671875 C 16.65625 8.78125 16.570312 8.878906 16.480469 8.972656 C 15.878906 9.570312 15.277344 10.171875 14.679688 10.773438 C 14.582031 10.867188 14.46875 10.933594 14.375 11.027344 C 14.363281 11.027344 14.355469 11.027344 14.34375 11.027344 C 14.257812 10.953125 14.15625 10.90625 14.054688 10.855469 C 13.582031 10.628906 13.082031 10.574219 12.570312 10.664062 C 12.253906 10.722656 11.957031 10.839844 11.695312 11.03125 "/>
<path style=" stroke:none;fill-rule:evenodd;fill:rgb(18.431373%,1.176471%,7.843137%);fill-opacity:1;" d="M 13.335938 8.667969 C 13.375 8.671875 13.394531 8.65625 13.386719 8.683594 C 13.308594 9.214844 12.984375 9.699219 12.578125 10.046875 C 12.261719 10.3125 11.902344 10.480469 11.5 10.566406 C 11.582031 10.117188 11.785156 9.730469 12.09375 9.398438 C 12.4375 9.03125 12.878906 8.734375 13.367188 8.625 "/>
<path style=" stroke:none;fill-rule:evenodd;fill:rgb(75.686275%,86.27451%,45.098039%);fill-opacity:1;" d="M 11.453125 10.871094 C 11.382812 10.777344 11.277344 10.710938 11.214844 10.613281 C 11.304688 10.597656 11.398438 10.585938 11.488281 10.574219 C 11.488281 10.671875 11.449219 10.765625 11.46875 10.867188 C 11.464844 10.871094 11.457031 10.871094 11.453125 10.871094 "/>
<path style=" stroke:none;fill-rule:evenodd;fill:rgb(92.941176%,36.862745%,53.333333%);fill-opacity:1;" d="M 5.320312 13.386719 C 4.367188 13.25 3.558594 12.472656 3.367188 11.507812 C 3.121094 10.289062 3.824219 9.105469 5.011719 8.738281 C 5.113281 8.707031 5.214844 8.683594 5.320312 8.671875 C 5.328125 8.671875 5.335938 8.671875 5.34375 8.671875 C 5.398438 8.757812 5.460938 8.835938 5.53125 8.910156 C 6.160156 9.535156 6.789062 10.164062 7.417969 10.792969 C 7.5 10.875 7.59375 10.949219 7.695312 11.011719 C 7.695312 11.050781 7.664062 11.0625 7.636719 11.082031 C 7.5625 11.140625 7.484375 11.195312 7.417969 11.261719 C 6.785156 11.894531 6.152344 12.527344 5.519531 13.160156 C 5.453125 13.226562 5.394531 13.300781 5.339844 13.382812 C 5.335938 13.382812 5.328125 13.386719 5.320312 13.386719 "/>
<path style=" stroke:none;fill-rule:evenodd;fill:rgb(80.784314%,11.372549%,17.647059%);fill-opacity:1;" d="M 8.691406 8.671875 C 8.871094 8.722656 9.054688 8.773438 9.226562 8.851562 C 9.546875 8.996094 9.820312 9.207031 10.046875 9.472656 C 10.300781 9.769531 10.476562 10.109375 10.5625 10.492188 C 10.570312 10.523438 10.570312 10.558594 10.578125 10.589844 C 10.589844 10.691406 10.625 10.792969 10.597656 10.898438 C 10.523438 10.941406 10.445312 10.984375 10.398438 11.0625 C 10.386719 11.0625 10.375 11.0625 10.367188 11.0625 C 10.351562 11 10.292969 10.992188 10.253906 10.964844 C 9.9375 10.773438 9.589844 10.679688 9.230469 10.640625 C 9.109375 10.613281 8.988281 10.613281 8.867188 10.640625 C 8.738281 10.664062 8.613281 10.675781 8.488281 10.707031 C 8.21875 10.769531 7.972656 10.886719 7.734375 11.03125 C 7.722656 11.03125 7.710938 11.03125 7.695312 11.03125 C 7.59375 10.96875 7.5 10.894531 7.417969 10.808594 C 6.789062 10.175781 6.160156 9.542969 5.53125 8.910156 C 5.460938 8.835938 5.398438 8.757812 5.34375 8.671875 C 5.433594 8.648438 5.523438 8.636719 5.617188 8.636719 C 6.523438 8.636719 7.429688 8.632812 8.335938 8.636719 C 8.457031 8.636719 8.574219 8.660156 8.691406 8.671875 "/>
<path style=" stroke:none;fill-rule:evenodd;fill:rgb(71.372549%,17.647059%,34.509804%);fill-opacity:1;" d="M 10.367188 11.042969 C 10.375 11.042969 10.386719 11.042969 10.398438 11.042969 C 10.476562 11.074219 10.53125 11.148438 10.605469 11.1875 C 10.621094 11.289062 10.589844 11.382812 10.582031 11.480469 C 10.578125 11.480469 10.574219 11.484375 10.570312 11.484375 C 10.050781 11.589844 9.613281 11.839844 9.257812 12.230469 C 8.964844 12.554688 8.769531 12.933594 8.691406 13.367188 C 8.691406 13.371094 8.6875 13.375 8.6875 13.382812 C 7.65625 13.464844 6.628906 13.398438 5.597656 13.417969 C 5.511719 13.417969 5.425781 13.40625 5.339844 13.382812 C 5.394531 13.300781 5.453125 13.226562 5.519531 13.160156 C 6.152344 12.527344 6.785156 11.894531 7.417969 11.261719 C 7.484375 11.195312 7.5625 11.140625 7.636719 11.082031 C 7.664062 11.0625 7.695312 11.050781 7.695312 11.011719 C 7.710938 11.011719 7.722656 11.011719 7.734375 11.011719 C 7.726562 11.039062 7.746094 11.046875 7.765625 11.058594 C 8.226562 11.351562 8.738281 11.46875 9.28125 11.421875 C 9.671875 11.390625 10.035156 11.257812 10.367188 11.042969 "/>
<path style=" stroke:none;fill-rule:evenodd;fill:rgb(18.431373%,1.176471%,7.843137%);fill-opacity:1;" d="M 8.691406 13.367188 C 8.753906 12.917969 8.953125 12.53125 9.246094 12.207031 C 9.601562 11.8125 10.0625 11.582031 10.582031 11.480469 C 10.550781 11.730469 10.445312 11.96875 10.324219 12.183594 C 9.960938 12.855469 9.335938 13.324219 8.683594 13.382812 "/>
<path style=" stroke:none;fill-rule:evenodd;fill:rgb(18.431373%,1.176471%,7.843137%);fill-opacity:1;" d="M 11.042969 11.675781 C 11.121094 11.816406 11.210938 11.953125 11.265625 12.105469 C 11.558594 12.871094 11.53125 13.613281 11.101562 14.3125 C 11.09375 14.324219 11.050781 14.363281 11.042969 14.375 C 10.882812 14.171875 10.78125 13.894531 10.714844 13.644531 C 10.535156 12.957031 10.632812 12.308594 11.015625 11.707031 C 11.023438 11.699219 11.023438 11.6875 11.027344 11.675781 C 11.027344 11.675781 11.035156 11.675781 11.035156 11.675781 Z M 11.042969 11.675781 "/>
<path style=" stroke:none;fill-rule:evenodd;fill:rgb(66.666667%,50.588235%,72.156863%);fill-opacity:1;" d="M 10.582031 11.480469 C 10.589844 11.382812 10.621094 11.289062 10.605469 11.1875 C 10.605469 11.1875 10.613281 11.1875 10.613281 11.1875 L 10.617188 11.1875 C 10.691406 11.277344 10.792969 11.339844 10.855469 11.441406 C 10.765625 11.457031 10.671875 11.46875 10.582031 11.480469 "/>
<path style=" stroke:none;fill-rule:evenodd;fill:rgb(34.117647%,68.627451%,78.823529%);fill-opacity:1;" d="M 11.042969 11.675781 L 11.035156 11.675781 C 11.035156 11.675781 11.027344 11.675781 11.027344 11.675781 C 10.992188 11.589844 10.914062 11.53125 10.871094 11.449219 C 10.980469 11.429688 11.09375 11.433594 11.203125 11.449219 C 11.160156 11.53125 11.078125 11.589844 11.042969 11.675781 "/>
<path style=" stroke:none;fill-rule:evenodd;fill:rgb(18.431373%,1.176471%,7.843137%);fill-opacity:1;" d="M 11.5 11.488281 C 12.003906 11.589844 12.433594 11.824219 12.785156 12.199219 C 13.082031 12.519531 13.292969 12.886719 13.386719 13.3125 C 13.390625 13.332031 13.40625 13.371094 13.382812 13.386719 C 12.46875 13.210938 11.675781 12.429688 11.5 11.519531 C 11.496094 11.511719 11.5 11.5 11.5 11.488281 "/>
<path style=" stroke:none;fill-rule:evenodd;fill:rgb(34.117647%,68.627451%,78.823529%);fill-opacity:1;" d="M 11.214844 11.445312 C 11.28125 11.355469 11.351562 11.273438 11.445312 11.21875 C 11.476562 11.304688 11.476562 11.394531 11.492188 11.480469 C 11.398438 11.464844 11.304688 11.46875 11.214844 11.445312 "/>
<path style=" stroke:none;fill-rule:evenodd;fill:rgb(18.431373%,1.176471%,7.843137%);fill-opacity:1;" d="M 11.699219 11.003906 C 11.960938 10.8125 12.253906 10.722656 12.570312 10.664062 C 13.082031 10.574219 13.589844 10.628906 14.0625 10.855469 C 14.164062 10.90625 14.289062 10.949219 14.375 11.027344 C 14.097656 11.214844 13.765625 11.335938 13.433594 11.394531 C 12.890625 11.484375 12.375 11.40625 11.886719 11.148438 C 11.820312 11.113281 11.738281 11.066406 11.671875 11.027344 "/>
<path style=" stroke:none;fill-rule:evenodd;fill:rgb(64.705882%,82.352941%,49.019608%);fill-opacity:1;" d="M 11.453125 10.871094 C 11.457031 10.871094 11.464844 10.871094 11.46875 10.867188 C 11.542969 10.914062 11.609375 10.96875 11.675781 11.027344 C 11.601562 11.082031 11.53125 11.136719 11.460938 11.191406 C 11.4375 11.082031 11.445312 10.976562 11.453125 10.871094 "/>
<path style=" stroke:none;fill-rule:evenodd;fill:rgb(92.941176%,47.45098%,52.156863%);fill-opacity:1;" d="M 10.597656 10.882812 C 10.625 10.777344 10.578125 10.621094 10.5625 10.519531 C 10.65625 10.53125 10.761719 10.597656 10.855469 10.613281 C 10.804688 10.691406 10.738281 10.75 10.667969 10.8125 C 10.644531 10.832031 10.621094 10.851562 10.617188 10.886719 C 10.613281 10.886719 10.605469 10.882812 10.597656 10.882812 "/>
<path style=" stroke:none;fill-rule:evenodd;fill:rgb(92.941176%,36.862745%,53.333333%);fill-opacity:1;" d="M 10.597656 10.882812 C 10.605469 10.882812 10.613281 10.886719 10.617188 10.886719 C 10.632812 10.988281 10.628906 11.085938 10.617188 11.1875 C 10.617188 11.1875 10.613281 11.1875 10.613281 11.1875 C 10.613281 11.1875 10.605469 11.1875 10.605469 11.1875 C 10.53125 11.148438 10.476562 11.074219 10.398438 11.042969 C 10.449219 10.96875 10.523438 10.925781 10.597656 10.882812 "/>
<path style=" stroke:none;fill-rule:evenodd;fill:rgb(18.431373%,1.176471%,7.843137%);fill-opacity:1;" d="M 10.367188 11.066406 C 10.039062 11.28125 9.671875 11.410156 9.28125 11.441406 C 8.664062 11.503906 8.0625 11.335938 7.6875 11.015625 C 8.496094 10.492188 9.808594 10.460938 10.394531 11.042969 "/>
<path style=" stroke:none;fill-rule:evenodd;fill:rgb(18.431373%,1.176471%,7.843137%);fill-opacity:1;" d="M 10.542969 10.535156 C 10.582031 10.53125 10.570312 10.503906 10.5625 10.476562 C 10.445312 9.957031 10.179688 9.523438 9.773438 9.179688 C 9.460938 8.910156 9.089844 8.753906 8.6875 8.671875 C 8.769531 9.117188 8.980469 9.496094 9.289062 9.828125 C 9.632812 10.195312 10.050781 10.425781 10.542969 10.535156 "/>
<path style=" stroke:none;fill-rule:evenodd;fill:rgb(18.431373%,1.176471%,7.843137%);fill-opacity:1;" d="M 11.085938 7.746094 C 11.164062 7.882812 11.253906 8.015625 11.3125 8.164062 C 11.601562 8.898438 11.539062 9.601562 11.109375 10.277344 C 11.101562 10.289062 11.09375 10.300781 11.085938 10.3125 C 10.925781 10.113281 10.824219 9.886719 10.761719 9.644531 C 10.578125 8.980469 10.671875 8.355469 11.054688 7.773438 C 11.0625 7.765625 11.066406 7.757812 11.074219 7.746094 C 11.074219 7.746094 11.082031 7.746094 11.082031 7.746094 Z M 11.085938 7.746094 "/>
<path style=" stroke:none;fill-rule:evenodd;fill:rgb(85.098039%,67.058824%,9.019608%);fill-opacity:1;" d="M 13.390625 5.292969 C 13.421875 5.5 13.425781 5.714844 13.425781 5.925781 C 13.425781 6.675781 13.425781 7.421875 13.425781 8.171875 C 13.425781 8.34375 13.460938 8.503906 13.390625 8.667969 C 12.703125 8.792969 12.03125 9.417969 11.757812 9.894531 C 11.636719 10.113281 11.535156 10.3125 11.5 10.566406 C 11.496094 10.570312 11.503906 10.566406 11.5 10.566406 C 11.410156 10.585938 11.421875 10.582031 11.390625 10.589844 C 11.371094 10.589844 11.222656 10.625 11.226562 10.632812 C 11.15625 10.507812 11.132812 10.449219 11.082031 10.308594 C 11.460938 9.699219 11.550781 9.109375 11.371094 8.410156 C 11.292969 8.160156 11.175781 7.90625 11.070312 7.75 C 11.09375 7.699219 11.109375 7.683594 11.199219 7.523438 C 11.574219 6.9375 12.171875 6.488281 12.664062 5.980469 C 12.878906 5.757812 13.085938 5.519531 13.332031 5.328125 C 13.351562 5.3125 13.363281 5.296875 13.390625 5.292969 "/>
</g>
</svg>
