
<svg xmlns="http://www.w3.org/2000/svg" xmlns:xlink="http://www.w3.org/1999/xlink" width="22px" height="22px" viewBox="0 0 22 22" version="1.1">
<g id="surface1">
<path style=" stroke:none;fill-rule:evenodd;fill:rgb(92.54902%,94.117647%,94.509804%);fill-opacity:1;" d="M 0.917969 18.148438 L 21.082031 18.148438 C 21.082031 14.285156 21.082031 14.453125 21.082031 10.585938 L 15.539062 5.042969 L 0.917969 5.042969 L 0.917969 6.050781 C 0.917969 11.429688 0.917969 12.773438 0.917969 18.148438 Z M 0.917969 18.148438 "/>
<path style=" stroke:none;fill-rule:nonzero;fill:rgb(74.117647%,76.470588%,78.039216%);fill-opacity:1;" d="M 15.539062 10.585938 L 21.082031 10.585938 L 15.539062 5.042969 Z M 15.539062 10.585938 "/>
<path style=" stroke:none;fill-rule:nonzero;fill:rgb(49.803922%,54.901961%,55.294118%);fill-opacity:1;" d="M 13.289062 10.585938 L 17.429688 10.585938 L 17.429688 11.597656 L 13.289062 11.597656 Z M 13.289062 10.585938 "/>
<path style=" stroke:none;fill-rule:nonzero;fill:rgb(49.803922%,54.901961%,55.294118%);fill-opacity:1;" d="M 2.933594 7.5625 L 13.015625 7.5625 L 13.015625 9.074219 L 2.933594 9.074219 Z M 2.933594 7.5625 "/>
<path style=" stroke:none;fill-rule:nonzero;fill:rgb(49.803922%,54.901961%,55.294118%);fill-opacity:1;" d="M 2.429688 10.585938 L 12.511719 10.585938 L 12.511719 11.597656 L 2.429688 11.597656 Z M 2.429688 10.585938 "/>
<path style=" stroke:none;fill-rule:nonzero;fill:rgb(49.803922%,54.901961%,55.294118%);fill-opacity:1;" d="M 8.433594 12.605469 L 18.625 12.605469 L 18.625 13.613281 L 8.433594 13.613281 Z M 8.433594 12.605469 "/>
<path style=" stroke:none;fill-rule:nonzero;fill:rgb(49.803922%,54.901961%,55.294118%);fill-opacity:1;" d="M 2.429688 12.605469 L 7.253906 12.605469 L 7.253906 13.613281 L 2.429688 13.613281 Z M 2.429688 12.605469 "/>
<path style=" stroke:none;fill-rule:nonzero;fill:rgb(49.803922%,54.901961%,55.294118%);fill-opacity:1;" d="M 9.992188 14.621094 L 18.625 14.621094 L 18.625 15.628906 L 9.992188 15.628906 Z M 9.992188 14.621094 "/>
<path style=" stroke:none;fill-rule:nonzero;fill:rgb(49.803922%,54.901961%,55.294118%);fill-opacity:1;" d="M 2.429688 14.621094 L 9.25 14.621094 L 9.25 15.628906 L 2.429688 15.628906 Z M 2.429688 14.621094 "/>
</g>
</svg>
