
<svg xmlns="http://www.w3.org/2000/svg" xmlns:xlink="http://www.w3.org/1999/xlink" width="22px" height="22px" viewBox="0 0 22 22" version="1.1">
<g id="surface1">
<path style="fill-rule:nonzero;fill:rgb(82.352941%,21.176471%,21.960784%);fill-opacity:1;stroke-width:28.034744;stroke-linecap:butt;stroke-linejoin:miter;stroke:rgb(56.862745%,29.019608%,29.019608%);stroke-opacity:1;stroke-miterlimit:4;" d="M 82.454545 26.363636 L 429.545455 26.363636 C 460.545455 26.363636 485.636364 51.454545 485.636364 82.454545 L 485.636364 429.545455 C 485.636364 460.545455 460.545455 485.636364 429.545455 485.636364 L 82.454545 485.636364 C 51.454545 485.636364 26.363636 460.545455 26.363636 429.545455 L 26.363636 82.454545 C 26.363636 51.454545 51.454545 26.363636 82.454545 26.363636 Z M 82.454545 26.363636 " transform="matrix(0.0429688,0,0,0.0429688,0,0)"/>
<path style=" stroke:none;fill-rule:nonzero;fill:rgb(100%,100%,100%);fill-opacity:1;" d="M 16.835938 9.359375 C 16.117188 10.128906 14.890625 10.953125 13.15625 11.824219 C 12.089844 15.59375 10.515625 17.476562 8.445312 17.476562 C 7.050781 17.476562 6.410156 16.84375 6.527344 15.582031 C 6.59375 14.851562 7.074219 14.160156 7.976562 13.507812 C 8.613281 13.050781 9.632812 12.507812 11.027344 11.882812 C 11.183594 11.414062 11.304688 10.976562 11.398438 10.574219 C 10.355469 11.683594 9.273438 12.230469 8.152344 12.214844 C 7.382812 12.203125 6.847656 11.898438 6.546875 11.296875 C 6.339844 10.855469 6.261719 10.3125 6.3125 9.675781 C 6.429688 8.304688 6.976562 7.15625 7.957031 6.230469 C 8.933594 5.292969 10.105469 4.824219 11.476562 4.824219 C 12.101562 4.824219 12.703125 4.910156 13.273438 5.078125 C 13.847656 5.234375 14.195312 5.417969 14.3125 5.625 C 14.128906 6.851562 13.828125 8.578125 13.410156 10.808594 C 14.886719 10.105469 15.921875 9.453125 16.523438 8.851562 Z M 11.496094 7.367188 C 11.507812 7.132812 11.460938 6.949219 11.359375 6.820312 C 11.265625 6.675781 11.097656 6.609375 10.851562 6.625 C 10.328125 6.648438 9.832031 7.027344 9.363281 7.757812 C 8.972656 8.382812 8.765625 8.929688 8.738281 9.398438 C 8.710938 9.882812 8.925781 10.125 9.382812 10.125 C 9.839844 10.125 10.300781 9.777344 10.773438 9.085938 C 11.214844 8.449219 11.457031 7.875 11.496094 7.367188 Z M 10.4375 13.136719 C 9.292969 13.695312 8.703125 14.144531 8.679688 14.484375 C 8.664062 14.667969 8.765625 14.757812 8.972656 14.757812 C 9.351562 14.757812 9.839844 14.21875 10.4375 13.136719 Z M 10.4375 13.136719 "/>
</g>
</svg>
