
<svg xmlns="http://www.w3.org/2000/svg" xmlns:xlink="http://www.w3.org/1999/xlink" width="22px" height="22px" viewBox="0 0 22 22" version="1.1">
<g id="surface1">
<path style="fill-rule:nonzero;fill:rgb(50.196078%,50.196078%,50.196078%);fill-opacity:1;stroke-width:6.392664;stroke-linecap:butt;stroke-linejoin:miter;stroke:rgb(21.568627%,20.784314%,22.745098%);stroke-opacity:1;stroke-miterlimit:4;" d="M 26.58383 935.924886 L 105.75175 935.924886 C 112.79719 935.924886 118.525725 941.653421 118.525725 948.72081 L 118.525725 1027.866781 C 118.525725 1034.93417 112.79719 1040.640757 105.75175 1040.640757 L 26.58383 1040.640757 C 19.53839 1040.640757 13.809854 1034.93417 13.809854 1027.866781 L 13.809854 948.72081 C 13.809854 941.653421 19.53839 935.924886 26.58383 935.924886 Z M 26.58383 935.924886 " transform="matrix(0.177974,0,0,0.177974,-0.414828,-164.902473)"/>
<path style=" stroke:none;fill-rule:nonzero;fill:rgb(21.568627%,20.784314%,22.745098%);fill-opacity:1;" d="M 2.394531 2.078125 L 20.1875 2.078125 L 20.1875 5.167969 L 2.394531 5.167969 Z M 2.394531 2.078125 "/>
<path style=" stroke:none;fill-rule:nonzero;fill:rgb(100%,100%,100%);fill-opacity:1;" d="M 14.929688 3.300781 L 16.082031 3.300781 L 16.082031 4.433594 L 14.929688 4.433594 Z M 14.929688 3.300781 "/>
<path style=" stroke:none;fill-rule:nonzero;fill:rgb(100%,100%,100%);fill-opacity:1;" d="M 17.046875 3.300781 L 18.199219 3.300781 L 18.199219 4.433594 L 17.046875 4.433594 Z M 17.046875 3.300781 "/>
<path style=" stroke:none;fill-rule:nonzero;fill:rgb(100%,100%,100%);fill-opacity:1;" d="M 12.8125 3.300781 L 13.96875 3.300781 L 13.96875 4.433594 L 12.8125 4.433594 Z M 12.8125 3.300781 "/>
<path style=" stroke:none;fill-rule:nonzero;fill:rgb(82.352941%,82.352941%,82.352941%);fill-opacity:1;" d="M 14.578125 12.035156 C 14.578125 10.390625 13.210938 9.058594 11.527344 9.058594 C 9.84375 9.058594 8.480469 10.390625 8.480469 12.035156 C 8.480469 13.679688 9.84375 15.011719 11.527344 15.011719 C 13.210938 15.011719 14.578125 13.679688 14.578125 12.035156 Z M 14.578125 12.035156 "/>
<path style=" stroke:none;fill-rule:nonzero;fill:rgb(82.352941%,82.352941%,82.352941%);fill-opacity:1;" d="M 10.875 16.660156 C 10.792969 16.625 10.707031 16.53125 10.667969 16.4375 C 10.648438 16.390625 10.625 16.203125 10.609375 15.910156 C 10.59375 15.660156 10.574219 15.4375 10.566406 15.410156 C 10.554688 15.378906 10.5 15.347656 10.355469 15.300781 C 10.246094 15.261719 10.085938 15.195312 9.996094 15.148438 C 9.90625 15.101562 9.8125 15.066406 9.789062 15.066406 C 9.761719 15.066406 9.613281 15.1875 9.402344 15.378906 C 9.214844 15.550781 9.027344 15.707031 8.992188 15.726562 C 8.914062 15.765625 8.742188 15.773438 8.65625 15.738281 C 8.585938 15.714844 7.835938 14.976562 7.789062 14.886719 C 7.742188 14.796875 7.746094 14.628906 7.800781 14.527344 C 7.824219 14.480469 7.980469 14.292969 8.152344 14.109375 C 8.332031 13.914062 8.457031 13.757812 8.457031 13.734375 C 8.457031 13.710938 8.421875 13.617188 8.375 13.527344 C 8.328125 13.4375 8.261719 13.277344 8.226562 13.167969 C 8.1875 13.0625 8.140625 12.964844 8.121094 12.957031 C 8.105469 12.945312 7.882812 12.925781 7.636719 12.914062 C 7.34375 12.898438 7.148438 12.878906 7.09375 12.855469 C 6.984375 12.820312 6.859375 12.6875 6.84375 12.59375 C 6.835938 12.554688 6.832031 12.269531 6.835938 11.960938 L 6.84375 11.398438 L 6.90625 11.316406 C 7.023438 11.171875 7.074219 11.15625 7.621094 11.125 C 7.929688 11.105469 8.117188 11.085938 8.132812 11.070312 C 8.148438 11.054688 8.195312 10.949219 8.238281 10.832031 C 8.28125 10.71875 8.347656 10.558594 8.386719 10.480469 C 8.425781 10.402344 8.457031 10.320312 8.457031 10.300781 C 8.457031 10.28125 8.328125 10.121094 8.171875 9.949219 C 8.011719 9.773438 7.863281 9.601562 7.835938 9.566406 C 7.761719 9.46875 7.734375 9.347656 7.765625 9.226562 C 7.785156 9.132812 7.828125 9.085938 8.171875 8.738281 C 8.382812 8.523438 8.589844 8.332031 8.632812 8.308594 C 8.730469 8.257812 8.890625 8.257812 8.988281 8.308594 C 9.03125 8.328125 9.214844 8.484375 9.398438 8.652344 C 9.578125 8.816406 9.742188 8.960938 9.753906 8.972656 C 9.773438 8.980469 9.871094 8.945312 9.988281 8.886719 C 10.101562 8.835938 10.273438 8.765625 10.367188 8.734375 C 10.492188 8.691406 10.542969 8.664062 10.5625 8.625 C 10.574219 8.597656 10.597656 8.371094 10.609375 8.121094 C 10.636719 7.640625 10.652344 7.566406 10.753906 7.460938 C 10.863281 7.347656 10.925781 7.339844 11.542969 7.34375 L 12.101562 7.351562 L 12.191406 7.410156 C 12.339844 7.507812 12.359375 7.570312 12.394531 8.105469 C 12.410156 8.363281 12.429688 8.59375 12.4375 8.621094 C 12.445312 8.65625 12.492188 8.679688 12.640625 8.734375 C 12.746094 8.769531 12.917969 8.84375 13.019531 8.894531 C 13.121094 8.945312 13.214844 8.988281 13.222656 8.988281 C 13.234375 8.988281 13.398438 8.84375 13.589844 8.667969 C 13.777344 8.496094 13.96875 8.332031 14.011719 8.308594 C 14.117188 8.257812 14.265625 8.257812 14.378906 8.3125 C 14.429688 8.335938 14.609375 8.5 14.835938 8.726562 C 15.222656 9.121094 15.253906 9.164062 15.253906 9.339844 C 15.253906 9.464844 15.199219 9.546875 14.867188 9.914062 C 14.683594 10.113281 14.535156 10.28125 14.535156 10.292969 C 14.535156 10.304688 14.582031 10.410156 14.640625 10.53125 C 14.699219 10.652344 14.769531 10.820312 14.792969 10.90625 C 14.828125 11.011719 14.855469 11.066406 14.886719 11.078125 C 14.90625 11.089844 15.140625 11.109375 15.402344 11.125 C 15.921875 11.160156 16.007812 11.179688 16.09375 11.304688 C 16.175781 11.417969 16.1875 11.503906 16.179688 12.070312 L 16.171875 12.613281 L 16.109375 12.703125 C 15.996094 12.867188 15.964844 12.875 15.390625 12.910156 C 15.109375 12.929688 14.871094 12.949219 14.867188 12.957031 C 14.859375 12.960938 14.824219 13.050781 14.789062 13.15625 C 14.75 13.261719 14.679688 13.429688 14.628906 13.53125 C 14.578125 13.632812 14.539062 13.730469 14.539062 13.746094 C 14.542969 13.761719 14.683594 13.925781 14.851562 14.109375 C 15.023438 14.292969 15.179688 14.484375 15.207031 14.535156 C 15.261719 14.644531 15.265625 14.761719 15.222656 14.871094 C 15.179688 14.96875 14.496094 15.664062 14.382812 15.722656 C 14.292969 15.769531 14.121094 15.773438 14.023438 15.734375 C 13.988281 15.714844 13.800781 15.558594 13.609375 15.382812 C 13.417969 15.210938 13.246094 15.066406 13.226562 15.066406 C 13.207031 15.066406 13.097656 15.109375 12.984375 15.160156 C 12.871094 15.214844 12.703125 15.28125 12.613281 15.3125 C 12.484375 15.355469 12.445312 15.378906 12.4375 15.410156 C 12.429688 15.4375 12.410156 15.667969 12.394531 15.925781 C 12.355469 16.496094 12.335938 16.554688 12.136719 16.65625 C 12.078125 16.6875 11.984375 16.691406 11.503906 16.691406 C 11.078125 16.6875 10.921875 16.683594 10.875 16.660156 Z M 11.707031 14.136719 C 12.21875 14.082031 12.644531 13.878906 13.007812 13.515625 C 13.285156 13.238281 13.464844 12.929688 13.570312 12.535156 C 13.636719 12.289062 13.636719 11.75 13.570312 11.5 C 13.363281 10.746094 12.824219 10.191406 12.078125 9.964844 C 11.902344 9.914062 11.855469 9.90625 11.519531 9.90625 C 11.195312 9.90625 11.128906 9.910156 10.96875 9.953125 C 10.183594 10.167969 9.582031 10.800781 9.417969 11.582031 C 9.273438 12.285156 9.488281 13.003906 10 13.519531 C 10.269531 13.792969 10.621094 13.988281 10.996094 14.085938 C 11.105469 14.117188 11.257812 14.136719 11.476562 14.15625 C 11.492188 14.15625 11.597656 14.148438 11.707031 14.136719 Z M 11.183594 13.25 C 10.648438 13.105469 10.269531 12.648438 10.238281 12.097656 C 10.214844 11.714844 10.335938 11.390625 10.609375 11.117188 C 11.105469 10.625 11.898438 10.617188 12.390625 11.109375 C 12.792969 11.511719 12.890625 12.082031 12.640625 12.585938 C 12.425781 13.011719 12.03125 13.265625 11.550781 13.285156 C 11.386719 13.292969 11.304688 13.285156 11.183594 13.25 Z M 11.785156 12.71875 C 11.9375 12.664062 12.113281 12.5 12.1875 12.347656 C 12.238281 12.238281 12.246094 12.203125 12.246094 12.015625 C 12.246094 11.816406 12.242188 11.796875 12.175781 11.671875 C 12.035156 11.414062 11.828125 11.285156 11.539062 11.269531 C 11.304688 11.257812 11.167969 11.308594 10.996094 11.464844 C 10.785156 11.65625 10.699219 11.929688 10.769531 12.195312 C 10.828125 12.429688 10.953125 12.585938 11.164062 12.695312 C 11.363281 12.792969 11.566406 12.800781 11.785156 12.71875 Z M 11.785156 12.71875 "/>
<path style=" stroke:none;fill-rule:nonzero;fill:rgb(50.196078%,50.196078%,50.196078%);fill-opacity:1;" d="M 13.660156 12.058594 C 13.660156 13.246094 12.695312 14.207031 11.511719 14.207031 C 10.324219 14.207031 9.363281 13.246094 9.363281 12.058594 C 9.363281 10.871094 10.324219 9.910156 11.511719 9.910156 C 12.695312 9.910156 13.660156 10.871094 13.660156 12.058594 Z M 13.660156 12.058594 "/>
</g>
</svg>
