
<svg xmlns="http://www.w3.org/2000/svg" xmlns:xlink="http://www.w3.org/1999/xlink" width="22px" height="22px" viewBox="0 0 22 22" version="1.1">
<g id="surface1">
<path style="fill-rule:nonzero;fill:rgb(21.568627%,44.313725%,78.431373%);fill-opacity:1;stroke-width:13.887347;stroke-linecap:butt;stroke-linejoin:miter;stroke:rgb(29.019608%,68.235294%,90.980392%);stroke-opacity:1;stroke-miterlimit:4;" d="M 42.045455 14.272727 L 213.954545 14.272727 C 229.318182 14.272727 241.727273 26.681818 241.727273 42.045455 L 241.727273 213.954545 C 241.727273 229.318182 229.318182 241.727273 213.954545 241.727273 L 42.045455 241.727273 C 26.681818 241.727273 14.272727 229.318182 14.272727 213.954545 L 14.272727 42.045455 C 14.272727 26.681818 26.681818 14.272727 42.045455 14.272727 Z M 42.045455 14.272727 " transform="matrix(0.0859375,0,0,0.0859375,0,0)"/>
<path style=" stroke:none;fill-rule:evenodd;fill:rgb(29.019608%,68.235294%,90.980392%);fill-opacity:1;" d="M 11.691406 3.910156 C 11.308594 3.910156 11.003906 4.21875 11.003906 4.601562 L 11.003906 16.910156 C 11.003906 17.292969 11.308594 17.601562 11.691406 17.601562 L 17.882812 17.601562 C 18.265625 17.601562 18.574219 17.292969 18.574219 16.910156 L 18.574219 4.601562 C 18.574219 4.21875 18.265625 3.910156 17.882812 3.910156 Z M 8.617188 4.535156 C 8.347656 4.542969 8.09375 4.707031 7.988281 4.972656 L 3.519531 16.289062 C 3.378906 16.644531 3.554688 17.046875 3.910156 17.1875 L 5.171875 17.683594 C 5.527344 17.824219 5.925781 17.652344 6.066406 17.296875 L 10.535156 5.980469 C 10.675781 5.621094 10.503906 5.222656 10.148438 5.082031 L 8.886719 4.582031 C 8.796875 4.546875 8.707031 4.535156 8.617188 4.535156 Z M 8.617188 4.535156 "/>
<path style=" stroke:none;fill-rule:evenodd;fill:rgb(100%,100%,100%);fill-opacity:1;" d="M 11.691406 4.386719 C 11.308594 4.386719 11 4.695312 11 5.078125 L 11 17.386719 C 11 17.769531 11.308594 18.078125 11.691406 18.078125 L 17.890625 18.078125 C 18.273438 18.078125 18.582031 17.769531 18.582031 17.386719 L 18.582031 5.078125 C 18.582031 4.695312 18.273438 4.386719 17.890625 4.386719 Z M 8.582031 4.523438 C 8.3125 4.527344 8.0625 4.691406 7.957031 4.960938 L 3.488281 16.277344 C 3.347656 16.632812 3.519531 17.035156 3.875 17.175781 L 4.226562 17.3125 C 4.230469 17.3125 4.238281 17.316406 4.242188 17.316406 L 4.914062 17.582031 L 9.890625 4.980469 L 9.09375 4.664062 L 8.851562 4.570312 C 8.765625 4.535156 8.671875 4.519531 8.582031 4.523438 Z M 8.582031 4.523438 "/>
<path style=" stroke:none;fill-rule:nonzero;fill:rgb(29.019608%,68.235294%,90.980392%);fill-opacity:1;" d="M 16.601562 6.984375 C 15.769531 6.984375 15.09375 7.628906 15.09375 8.425781 C 15.09375 9.21875 15.769531 9.863281 16.601562 9.863281 C 17.4375 9.863281 18.113281 9.21875 18.113281 8.425781 C 18.113281 7.628906 17.4375 6.984375 16.601562 6.984375 Z M 13.070312 6.984375 C 12.234375 6.984375 11.558594 7.628906 11.558594 8.425781 C 11.558594 9.21875 12.234375 9.863281 13.070312 9.863281 C 13.902344 9.863281 14.578125 9.21875 14.578125 8.425781 C 14.578125 7.628906 13.902344 6.984375 13.070312 6.984375 Z M 13.085938 12.847656 C 12.25 12.847656 11.574219 13.492188 11.574219 14.289062 C 11.574219 15.082031 12.25 15.726562 13.085938 15.726562 C 13.917969 15.726562 14.59375 15.082031 14.59375 14.289062 C 14.59375 13.492188 13.917969 12.847656 13.085938 12.847656 Z M 16.59375 12.859375 C 15.761719 12.859375 15.085938 13.503906 15.085938 14.296875 C 15.085938 15.09375 15.761719 15.738281 16.59375 15.738281 C 17.429688 15.738281 18.105469 15.09375 18.105469 14.296875 C 18.105469 13.503906 17.429688 12.859375 16.59375 12.859375 Z M 16.59375 12.859375 "/>
</g>
</svg>
