
<svg xmlns="http://www.w3.org/2000/svg" xmlns:xlink="http://www.w3.org/1999/xlink" width="22px" height="22px" viewBox="0 0 22 22" version="1.1">
<g id="surface1">
<path style="fill-rule:nonzero;fill:rgb(92.54902%,92.54902%,92.54902%);fill-opacity:1;stroke-width:26.921061;stroke-linecap:butt;stroke-linejoin:miter;stroke:rgb(66.27451%,66.27451%,66.27451%);stroke-opacity:1;stroke-miterlimit:4;" d="M 83.264435 -432.727273 L 410.291603 -432.727273 C 439.424842 -432.727273 463.046387 -408.181818 463.046387 -377.909091 L 463.046387 -38.090909 C 463.046387 -7.818182 439.424842 16.727273 410.291603 16.727273 L 83.264435 16.727273 C 54.131196 16.727273 30.509651 -7.818182 30.509651 -38.090909 L 30.509651 -377.909091 C 30.509651 -408.181818 54.131196 -432.727273 83.264435 -432.727273 Z M 83.264435 -432.727273 " transform="matrix(0.0446494,0,0,0.0429688,-0.0184872,19.9375)"/>
<path style=" stroke:none;fill-rule:nonzero;fill:rgb(30.196078%,30.196078%,30.196078%);fill-opacity:1;" d="M 3.742188 4.613281 L 17.53125 4.613281 C 18.175781 4.613281 18.699219 5.136719 18.699219 5.78125 L 18.699219 15.835938 C 18.699219 16.476562 18.175781 17 17.53125 17 L 3.742188 17 C 3.097656 17 2.574219 16.476562 2.574219 15.835938 L 2.574219 5.78125 C 2.574219 5.136719 3.097656 4.613281 3.742188 4.613281 Z M 3.742188 4.613281 "/>
<path style=" stroke:none;fill-rule:nonzero;fill:rgb(90.196078%,90.196078%,90.196078%);fill-opacity:1;" d="M 5.761719 5.394531 L 16.90625 5.394531 C 17.425781 5.394531 17.851562 5.851562 17.851562 6.414062 L 17.851562 15.199219 C 17.851562 15.761719 17.425781 16.21875 16.90625 16.21875 L 5.761719 16.21875 C 5.242188 16.21875 4.820312 15.761719 4.820312 15.199219 L 4.820312 6.414062 C 4.820312 5.851562 5.242188 5.394531 5.761719 5.394531 Z M 5.761719 5.394531 "/>
<path style=" stroke:none;fill-rule:nonzero;fill:rgb(100%,100%,100%);fill-opacity:1;" d="M 4.136719 10.808594 C 4.136719 11.128906 3.875 11.390625 3.554688 11.390625 C 3.234375 11.390625 2.972656 11.128906 2.972656 10.808594 C 2.972656 10.484375 3.234375 10.222656 3.554688 10.222656 C 3.875 10.222656 4.136719 10.484375 4.136719 10.808594 Z M 4.136719 10.808594 "/>
<path style=" stroke:none;fill-rule:nonzero;fill:rgb(20%,20%,20%);fill-opacity:1;" d="M 19.332031 7.929688 C 19.222656 7.820312 18.953125 7.921875 18.714844 8.160156 L 10.335938 16.539062 L 9.726562 18.175781 L 11.363281 17.566406 L 18.566406 10.363281 L 19.746094 9.191406 C 19.980469 8.953125 20.085938 8.679688 19.976562 8.570312 L 19.332031 7.925781 Z M 19.332031 7.929688 "/>
</g>
</svg>
