
<svg xmlns="http://www.w3.org/2000/svg" xmlns:xlink="http://www.w3.org/1999/xlink" width="22px" height="22px" viewBox="0 0 22 22" version="1.1">
<g id="surface1">
<path style="fill-rule:nonzero;fill:rgb(44.313725%,78.431373%,21.568627%);fill-opacity:1;stroke-width:19.465595;stroke-linecap:butt;stroke-linejoin:miter;stroke:rgb(35.686275%,62.745098%,17.254902%);stroke-opacity:1;stroke-miterlimit:4;" d="M 71.636364 22.181818 L 440.363636 22.181818 C 467.636364 22.181818 489.818182 44.363636 489.818182 71.636364 L 489.818182 440.363636 C 489.818182 467.636364 467.636364 489.818182 440.363636 489.818182 L 71.636364 489.818182 C 44.363636 489.818182 22.181818 467.636364 22.181818 440.363636 L 22.181818 71.636364 C 22.181818 44.363636 44.363636 22.181818 71.636364 22.181818 Z M 71.636364 22.181818 " transform="matrix(0.0429688,0,0,0.0429688,0,0)"/>
<path style=" stroke:none;fill-rule:evenodd;fill:rgb(100%,100%,100%);fill-opacity:1;" d="M 2.785156 3.816406 L 18.90625 3.816406 C 18.949219 3.816406 18.984375 3.851562 18.984375 3.894531 L 18.984375 18.214844 C 18.984375 18.257812 18.949219 18.289062 18.90625 18.289062 L 2.785156 18.289062 C 2.742188 18.289062 2.707031 18.257812 2.707031 18.214844 L 2.707031 3.894531 C 2.707031 3.851562 2.742188 3.816406 2.785156 3.816406 Z M 2.785156 3.816406 "/>
<path style=" stroke:none;fill-rule:nonzero;fill:rgb(61.960784%,81.960784%,20.392157%);fill-opacity:1;" d="M 3.039062 20.601562 C 2.1875 20.375 1.5 19.679688 1.296875 18.84375 C 1.242188 18.609375 1.234375 17.632812 1.234375 11.003906 C 1.234375 2.65625 1.21875 3.1875 1.496094 2.625 C 1.679688 2.257812 2.164062 1.78125 2.535156 1.601562 C 3.113281 1.320312 2.503906 1.339844 11.109375 1.339844 C 19.65625 1.339844 19.074219 1.324219 19.632812 1.59375 C 20.015625 1.78125 20.5 2.25 20.683594 2.625 C 20.960938 3.1875 20.945312 2.65625 20.945312 11.003906 C 20.945312 19.351562 20.960938 18.820312 20.683594 19.382812 C 20.5 19.753906 20.015625 20.234375 19.648438 20.40625 C 19.058594 20.683594 19.667969 20.667969 11.0625 20.664062 C 4.367188 20.660156 3.234375 20.652344 3.039062 20.601562 Z M 12.496094 16.34375 C 14.6875 16.027344 16.484375 14.84375 17.347656 13.140625 C 17.707031 12.4375 17.855469 11.816406 17.855469 11.023438 C 17.855469 10.738281 17.832031 10.386719 17.804688 10.238281 C 17.449219 8.371094 16.046875 6.832031 14.027344 6.085938 C 13.195312 5.78125 12.417969 5.644531 11.488281 5.644531 C 8.609375 5.644531 6.128906 7.242188 5.351562 9.597656 C 5.171875 10.136719 5.121094 10.507812 5.117188 11.25 C 5.117188 12.082031 5.167969 12.308594 5.546875 13.105469 L 5.738281 13.507812 L 5.613281 13.761719 C 5.445312 14.117188 5.210938 14.382812 4.75 14.75 C 4.417969 15.015625 4.359375 15.082031 4.359375 15.183594 C 4.359375 15.285156 4.390625 15.324219 4.53125 15.398438 C 5.140625 15.730469 6.722656 15.8125 7.515625 15.554688 L 7.847656 15.445312 L 8.234375 15.636719 C 9.046875 16.039062 9.796875 16.257812 10.777344 16.375 C 11.105469 16.417969 12.121094 16.394531 12.496094 16.34375 Z M 9.378906 13.847656 C 9.390625 13.808594 9.472656 13.496094 9.558594 13.15625 C 9.648438 12.8125 9.710938 12.5 9.695312 12.460938 C 9.671875 12.398438 9.601562 12.390625 9.140625 12.390625 L 8.617188 12.390625 L 8.617188 11.644531 L 9.238281 11.644531 C 9.71875 11.644531 9.875 11.632812 9.910156 11.589844 C 9.980469 11.503906 10.226562 10.546875 10.195312 10.46875 C 10.175781 10.414062 10.082031 10.402344 9.621094 10.402344 L 9.074219 10.402344 L 9.085938 10.042969 L 9.097656 9.679688 L 9.757812 9.667969 C 10.332031 9.65625 10.421875 9.648438 10.453125 9.585938 C 10.476562 9.546875 10.574219 9.203125 10.671875 8.820312 L 10.851562 8.128906 L 11.222656 8.128906 C 11.425781 8.128906 11.59375 8.136719 11.59375 8.148438 C 11.59375 8.160156 11.519531 8.480469 11.425781 8.859375 C 11.332031 9.242188 11.265625 9.578125 11.277344 9.605469 C 11.292969 9.644531 11.441406 9.660156 11.863281 9.660156 L 12.429688 9.660156 L 12.476562 9.503906 C 12.5 9.417969 12.59375 9.078125 12.679688 8.75 L 12.839844 8.148438 L 13.203125 8.136719 C 13.511719 8.125 13.566406 8.132812 13.566406 8.191406 C 13.566406 8.226562 13.488281 8.554688 13.394531 8.921875 C 13.300781 9.289062 13.242188 9.601562 13.257812 9.621094 C 13.277344 9.640625 13.53125 9.660156 13.816406 9.667969 L 14.339844 9.679688 L 14.351562 10.042969 L 14.363281 10.402344 L 13.714844 10.402344 C 13.128906 10.402344 13.058594 10.410156 13.023438 10.480469 C 12.953125 10.609375 12.761719 11.402344 12.777344 11.515625 L 12.789062 11.625 L 13.347656 11.636719 L 13.902344 11.648438 L 13.878906 12.371094 L 13.21875 12.378906 C 12.636719 12.390625 12.550781 12.402344 12.527344 12.464844 C 12.511719 12.503906 12.421875 12.84375 12.328125 13.21875 L 12.15625 13.898438 L 11.769531 13.914062 C 11.421875 13.921875 11.382812 13.917969 11.382812 13.851562 C 11.382812 13.808594 11.460938 13.488281 11.554688 13.136719 C 11.648438 12.785156 11.714844 12.472656 11.703125 12.445312 C 11.683594 12.402344 11.546875 12.390625 11.132812 12.390625 C 10.488281 12.390625 10.570312 12.316406 10.375 13.09375 C 10.304688 13.378906 10.226562 13.679688 10.207031 13.765625 L 10.164062 13.921875 L 9.761719 13.921875 C 9.402344 13.921875 9.363281 13.914062 9.378906 13.847656 Z M 11.878906 11.609375 C 11.945312 11.570312 12.1875 10.671875 12.171875 10.527344 C 12.160156 10.425781 12.160156 10.425781 11.640625 10.414062 C 11.320312 10.40625 11.101562 10.417969 11.070312 10.445312 C 11.039062 10.46875 10.953125 10.734375 10.878906 11.03125 C 10.765625 11.480469 10.753906 11.578125 10.800781 11.605469 C 10.875 11.652344 11.804688 11.65625 11.878906 11.609375 Z M 11.878906 11.609375 "/>
</g>
</svg>
