
<svg xmlns="http://www.w3.org/2000/svg" xmlns:xlink="http://www.w3.org/1999/xlink" width="22px" height="22px" viewBox="0 0 22 22" version="1.1">
<defs>
<clipPath id="clip1">
  <path d="M 1.375 1.375 L 20.625 1.375 L 20.625 20.625 L 1.375 20.625 Z M 1.375 1.375 "/>
</clipPath>
<clipPath id="clip2">
  <path d="M 3.515625 1.394531 L 18.484375 1.394531 C 19.65625 1.394531 20.605469 2.34375 20.605469 3.515625 L 20.605469 18.484375 C 20.605469 19.65625 19.65625 20.605469 18.484375 20.605469 L 3.515625 20.605469 C 2.34375 20.605469 1.394531 19.65625 1.394531 18.484375 L 1.394531 3.515625 C 1.394531 2.34375 2.34375 1.394531 3.515625 1.394531 Z M 3.515625 1.394531 "/>
</clipPath>
<clipPath id="clip3">
  <path d="M 5.285156 2.191406 L 16.714844 2.191406 L 16.714844 10.226562 L 5.285156 10.226562 Z M 5.285156 2.191406 "/>
</clipPath>
<clipPath id="clip4">
  <path d="M 3.515625 1.394531 L 18.484375 1.394531 C 19.65625 1.394531 20.605469 2.34375 20.605469 3.515625 L 20.605469 18.484375 C 20.605469 19.65625 19.65625 20.605469 18.484375 20.605469 L 3.515625 20.605469 C 2.34375 20.605469 1.394531 19.65625 1.394531 18.484375 L 1.394531 3.515625 C 1.394531 2.34375 2.34375 1.394531 3.515625 1.394531 Z M 3.515625 1.394531 "/>
</clipPath>
<clipPath id="clip5">
  <path d="M 5.285156 11.773438 L 16.714844 11.773438 L 16.714844 19.808594 L 5.285156 19.808594 Z M 5.285156 11.773438 "/>
</clipPath>
<clipPath id="clip6">
  <path d="M 3.515625 1.394531 L 18.484375 1.394531 C 19.65625 1.394531 20.605469 2.34375 20.605469 3.515625 L 20.605469 18.484375 C 20.605469 19.65625 19.65625 20.605469 18.484375 20.605469 L 3.515625 20.605469 C 2.34375 20.605469 1.394531 19.65625 1.394531 18.484375 L 1.394531 3.515625 C 1.394531 2.34375 2.34375 1.394531 3.515625 1.394531 Z M 3.515625 1.394531 "/>
</clipPath>
</defs>
<g id="surface1">
<path style="fill-rule:evenodd;fill:rgb(16.078431%,50.196078%,72.54902%);fill-opacity:1;stroke-width:2.931121;stroke-linecap:butt;stroke-linejoin:miter;stroke:rgb(32.156863%,32.156863%,32.156863%);stroke-opacity:1;stroke-miterlimit:4;" d="M 6.954545 2.130682 L 41.045453 2.130682 C 43.704544 2.130682 45.869317 4.295454 45.869317 6.954545 L 45.869317 41.045453 C 45.869317 43.704544 43.704544 45.869317 41.045453 45.869317 L 6.954545 45.869317 C 4.295454 45.869317 2.130682 43.704544 2.130682 41.045453 L 2.130682 6.954545 C 2.130682 4.295454 4.295454 2.130682 6.954545 2.130682 Z M 6.954545 2.130682 " transform="matrix(0.458333,0,0,0.458333,0,0)"/>
<g clip-path="url(#clip1)" clip-rule="nonzero">
<g clip-path="url(#clip2)" clip-rule="nonzero">
<path style=" stroke:none;fill-rule:nonzero;fill:rgb(17.254902%,24.313725%,31.372549%);fill-opacity:1;" d="M 0.648438 0.648438 L 0.648438 21.351562 L 21.351562 21.351562 L 21.351562 0.648438 Z M 2.199219 2.199219 L 3.753906 2.199219 L 3.753906 3.753906 L 2.199219 3.753906 Z M 18.246094 2.199219 L 19.800781 2.199219 L 19.800781 3.753906 L 18.246094 3.753906 Z M 2.199219 6.082031 L 3.753906 6.082031 L 3.753906 7.636719 L 2.199219 7.636719 Z M 18.246094 6.082031 L 19.800781 6.082031 L 19.800781 7.636719 L 18.246094 7.636719 Z M 2.199219 10.222656 L 3.753906 10.222656 L 3.753906 11.777344 L 2.199219 11.777344 Z M 18.246094 10.222656 L 19.800781 10.222656 L 19.800781 11.777344 L 18.246094 11.777344 Z M 2.199219 14.363281 L 3.753906 14.363281 L 3.753906 15.917969 L 2.199219 15.917969 Z M 18.246094 14.363281 L 19.800781 14.363281 L 19.800781 15.917969 L 18.246094 15.917969 Z M 2.199219 18.246094 L 3.753906 18.246094 L 3.753906 19.800781 L 2.199219 19.800781 Z M 18.246094 18.246094 L 19.800781 18.246094 L 19.800781 19.800781 L 18.246094 19.800781 Z M 18.246094 18.246094 "/>
</g>
</g>
<g clip-path="url(#clip3)" clip-rule="nonzero">
<g clip-path="url(#clip4)" clip-rule="nonzero">
<path style=" stroke:none;fill-rule:nonzero;fill:rgb(100%,28.627451%,27.45098%);fill-opacity:1;" d="M 5.304688 2.199219 L 16.695312 2.199219 L 16.695312 10.222656 L 5.304688 10.222656 Z M 5.304688 2.199219 "/>
</g>
</g>
<g clip-path="url(#clip5)" clip-rule="nonzero">
<g clip-path="url(#clip6)" clip-rule="nonzero">
<path style=" stroke:none;fill-rule:nonzero;fill:rgb(32.156863%,74.509804%,91.764706%);fill-opacity:1;" d="M 5.304688 11.777344 L 16.695312 11.777344 L 16.695312 19.800781 L 5.304688 19.800781 Z M 5.304688 11.777344 "/>
</g>
</g>
</g>
</svg>
