
<svg xmlns="http://www.w3.org/2000/svg" xmlns:xlink="http://www.w3.org/1999/xlink" width="22px" height="22px" viewBox="0 0 22 22" version="1.1">
<g id="surface1">
<path style="fill-rule:nonzero;fill:rgb(100%,100%,100%);fill-opacity:1;stroke-width:62.625244;stroke-linecap:butt;stroke-linejoin:miter;stroke:rgb(63.921569%,12.156863%,12.156863%);stroke-opacity:1;stroke-miterlimit:4;" d="M 130.208542 -2.085999 L 905.741359 -2.085999 C 974.890655 -2.085999 1030.985217 54.008563 1030.985217 123.157859 L 1030.985217 898.690676 C 1030.985217 967.839973 974.890655 1023.934535 905.741359 1023.934535 L 130.208542 1023.934535 C 61.059246 1023.934535 4.964684 967.839973 4.964684 898.690676 L 4.964684 123.157859 C 4.964684 54.008563 61.059246 -2.085999 130.208542 -2.085999 Z M 130.208542 -2.085999 " transform="matrix(0.0191501,0,0,0.0191501,1.080707,1.215728)"/>
<path style=" stroke:none;fill-rule:nonzero;fill:rgb(83.137255%,10.196078%,10.196078%);fill-opacity:1;" d="M 3.933594 1.777344 C 3.078125 1.785156 2.421875 2.683594 2.546875 3.558594 C 2.550781 8.660156 2.535156 13.757812 2.550781 18.859375 C 2.613281 19.722656 3.4375 20.335938 4.234375 20.222656 C 9.136719 20.21875 14.042969 20.230469 18.945312 20.214844 C 19.765625 20.148438 20.347656 19.277344 20.238281 18.441406 C 20.238281 15.3125 20.238281 12.1875 20.238281 9.0625 C 19.90625 8.28125 19.109375 7.808594 18.59375 7.152344 C 16.90625 5.398438 15.230469 3.628906 13.53125 1.886719 C 13.058594 1.671875 12.511719 1.824219 12.003906 1.777344 C 9.316406 1.777344 6.625 1.777344 3.933594 1.777344 Z M 15.460938 1.777344 C 15.136719 1.804688 15.121094 2.28125 15.386719 2.417969 C 16.859375 3.941406 18.3125 5.492188 19.800781 7 C 20.089844 7.164062 20.324219 6.796875 20.238281 6.519531 C 20.21875 5.34375 20.277344 4.164062 20.203125 2.992188 C 20.074219 2.167969 19.253906 1.664062 18.5 1.777344 C 17.484375 1.777344 16.472656 1.777344 15.460938 1.777344 Z M 15.460938 1.777344 "/>
<path style=" stroke:none;fill-rule:nonzero;fill:rgb(63.921569%,12.156863%,12.156863%);fill-opacity:1;" d="M 1.582031 1.363281 L 5.117188 1.363281 L 5.117188 20.410156 L 1.582031 20.410156 Z M 1.582031 1.363281 "/>
<path style=" stroke:none;fill-rule:nonzero;fill:rgb(100%,100%,100%);fill-opacity:1;" d="M 7.9375 8.324219 L 7.9375 8.785156 L 8.597656 8.855469 L 8.792969 9.019531 L 8.792969 15.40625 L 8.597656 15.570312 L 7.9375 15.625 L 7.9375 16.101562 L 10.996094 16.101562 C 12.96875 16.101562 14.023438 15.289062 14.023438 13.828125 C 14.023438 12.695312 13.246094 11.984375 11.867188 11.976562 C 12.980469 11.671875 13.546875 11.082031 13.546875 10.199219 C 13.546875 8.925781 12.667969 8.324219 10.894531 8.324219 Z M 9.839844 11.847656 L 9.839844 8.867188 C 10.128906 8.855469 10.347656 8.832031 10.5 8.832031 C 11.773438 8.832031 12.398438 9.308594 12.398438 10.246094 C 12.398438 11.371094 11.726562 11.859375 10.277344 11.859375 C 10.140625 11.859375 9.988281 11.859375 9.839844 11.847656 Z M 9.839844 15.523438 L 9.839844 12.425781 C 10.289062 12.378906 10.671875 12.355469 10.972656 12.355469 C 12.261719 12.355469 12.886719 12.855469 12.886719 13.910156 C 12.886719 15.082031 12.167969 15.554688 10.613281 15.554688 C 10.371094 15.554688 10.117188 15.546875 9.839844 15.523438 Z M 9.839844 15.523438 "/>
</g>
</svg>
