
<svg xmlns="http://www.w3.org/2000/svg" xmlns:xlink="http://www.w3.org/1999/xlink" width="22px" height="22px" viewBox="0 0 22 22" version="1.1">
<g id="surface1">
<path style="fill-rule:nonzero;fill:rgb(100%,100%,100%);fill-opacity:1;stroke-width:27.910587;stroke-linecap:butt;stroke-linejoin:miter;stroke:rgb(25.490196%,44.313725%,43.921569%);stroke-opacity:1;stroke-miterlimit:4;" d="M -448.707902 -10.490992 L -103.071538 -10.490992 C -72.253356 -10.490992 -47.253356 14.509008 -47.253356 45.32719 L -47.253356 390.963554 C -47.253356 421.781736 -72.253356 446.781736 -103.071538 446.781736 L -448.707902 446.781736 C -479.526084 446.781736 -504.526084 421.781736 -504.526084 390.963554 L -504.526084 45.32719 C -504.526084 14.509008 -479.526084 -10.490992 -448.707902 -10.490992 Z M -448.707902 -10.490992 " transform="matrix(0.0429688,0,0,0.0429688,22.854636,1.626566)"/>
<path style=" stroke:none;fill-rule:nonzero;fill:rgb(10.588235%,63.921569%,53.72549%);fill-opacity:1;" d="M 3.933594 1.777344 C 3.078125 1.785156 2.421875 2.683594 2.546875 3.558594 C 2.550781 8.660156 2.535156 13.757812 2.550781 18.859375 C 2.613281 19.722656 3.4375 20.335938 4.234375 20.222656 C 9.136719 20.21875 14.042969 20.230469 18.945312 20.214844 C 19.765625 20.148438 20.347656 19.277344 20.238281 18.441406 C 20.238281 15.3125 20.238281 12.1875 20.238281 9.0625 C 19.90625 8.28125 19.109375 7.808594 18.59375 7.152344 C 16.90625 5.398438 15.230469 3.628906 13.53125 1.886719 C 13.058594 1.671875 12.511719 1.824219 12.003906 1.777344 C 9.316406 1.777344 6.625 1.777344 3.933594 1.777344 Z M 15.460938 1.777344 C 15.136719 1.804688 15.121094 2.28125 15.386719 2.417969 C 16.859375 3.941406 18.3125 5.492188 19.800781 7 C 20.089844 7.164062 20.324219 6.796875 20.238281 6.519531 C 20.21875 5.34375 20.277344 4.164062 20.203125 2.992188 C 20.074219 2.167969 19.253906 1.664062 18.5 1.777344 C 17.484375 1.777344 16.472656 1.777344 15.460938 1.777344 Z M 15.460938 1.777344 "/>
<path style=" stroke:none;fill-rule:nonzero;fill:rgb(25.490196%,44.313725%,43.921569%);fill-opacity:1;" d="M 1.582031 1.363281 L 5.117188 1.363281 L 5.117188 20.410156 L 1.582031 20.410156 Z M 1.582031 1.363281 "/>
<path style=" stroke:none;fill-rule:nonzero;fill:rgb(100%,100%,100%);fill-opacity:1;" d="M 14.175781 15.703125 L 14.175781 13.875 L 13.527344 13.875 L 13.273438 15.160156 L 13.085938 15.347656 C 12.738281 15.449219 12.402344 15.496094 12.078125 15.496094 C 10.199219 15.496094 9.050781 14.199219 9.050781 11.996094 C 9.050781 9.921875 10.175781 8.667969 11.902344 8.667969 C 12.355469 8.667969 12.773438 8.773438 13.203125 8.96875 L 13.351562 9.179688 L 13.527344 10.234375 L 14.175781 10.234375 L 14.175781 8.449219 C 13.332031 8.179688 12.566406 8.054688 11.878906 8.054688 C 9.46875 8.054688 7.859375 9.664062 7.859375 12.078125 C 7.859375 13.59375 8.625 14.941406 9.863281 15.648438 C 10.398438 15.949219 11.070312 16.109375 11.835938 16.109375 C 12.609375 16.109375 13.410156 15.972656 14.175781 15.703125 Z M 14.175781 15.703125 "/>
</g>
</svg>
