
<svg xmlns="http://www.w3.org/2000/svg" xmlns:xlink="http://www.w3.org/1999/xlink" width="22px" height="22px" viewBox="0 0 22 22" version="1.1">
<g id="surface1">
<path style="fill-rule:nonzero;fill:rgb(66.666667%,83.137255%,0%);fill-opacity:1;stroke-width:7.016501;stroke-linecap:butt;stroke-linejoin:miter;stroke:rgb(86.27451%,96.862745%,45.098039%);stroke-opacity:1;stroke-miterlimit:4;" d="M 20.568182 6.522727 L 107.431818 6.522727 C 115.181818 6.522727 121.477273 12.818182 121.477273 20.568182 L 121.477273 107.431818 C 121.477273 115.181818 115.181818 121.477273 107.431818 121.477273 L 20.568182 121.477273 C 12.818182 121.477273 6.522727 115.181818 6.522727 107.431818 L 6.522727 20.568182 C 6.522727 12.818182 12.818182 6.522727 20.568182 6.522727 Z M 20.568182 6.522727 " transform="matrix(0.171875,0,0,0.171875,0,0)"/>
<path style=" stroke:none;fill-rule:nonzero;fill:rgb(100%,100%,100%);fill-opacity:1;" d="M 19.179688 11.058594 C 19.179688 15.570312 15.519531 19.230469 11.007812 19.230469 C 6.496094 19.230469 2.835938 15.570312 2.835938 11.058594 C 2.835938 6.546875 6.496094 2.886719 11.007812 2.886719 C 15.519531 2.886719 19.179688 6.546875 19.179688 11.058594 Z M 19.179688 11.058594 "/>
<path style=" stroke:none;fill-rule:nonzero;fill:rgb(66.666667%,83.137255%,0%);fill-opacity:1;" d="M 10.953125 2.542969 C 6.257812 2.542969 2.449219 6.351562 2.449219 11.046875 C 2.449219 15.742188 6.257812 19.550781 10.953125 19.550781 C 15.648438 19.550781 19.457031 15.742188 19.457031 11.046875 C 19.457031 6.351562 15.648438 2.542969 10.953125 2.542969 Z M 10.929688 2.957031 C 11.929688 2.957031 12.554688 3.085938 12.941406 3.335938 C 13.132812 3.460938 13.257812 3.625 13.320312 3.804688 C 13.378906 3.984375 13.367188 4.167969 13.320312 4.351562 C 13.210938 4.75 12.828125 6.246094 12.28125 7.933594 C 12.457031 7.609375 12.625 7.289062 12.792969 6.984375 C 13.136719 6.367188 13.460938 5.816406 13.71875 5.390625 C 13.980469 4.960938 14.152344 4.6875 14.289062 4.550781 C 14.378906 4.460938 14.484375 4.359375 14.613281 4.285156 C 14.742188 4.210938 14.90625 4.171875 15.09375 4.207031 C 15.464844 4.273438 15.898438 4.5625 16.597656 5.265625 C 17.304688 5.972656 17.652344 6.503906 17.75 6.953125 C 17.796875 7.175781 17.777344 7.382812 17.691406 7.554688 C 17.609375 7.722656 17.464844 7.851562 17.300781 7.945312 C 16.941406 8.152344 15.601562 8.933594 14.011719 9.742188 C 14.367188 9.632812 14.71875 9.527344 15.058594 9.429688 C 15.738281 9.234375 16.359375 9.078125 16.84375 8.960938 C 17.332031 8.84375 17.65625 8.769531 17.847656 8.769531 C 17.976562 8.769531 18.105469 8.765625 18.25 8.804688 C 18.394531 8.84375 18.546875 8.929688 18.652344 9.082031 C 18.867188 9.390625 18.964844 9.90625 18.964844 10.902344 C 18.964844 11.898438 18.835938 12.527344 18.585938 12.910156 C 18.460938 13.101562 18.296875 13.230469 18.117188 13.289062 C 17.9375 13.347656 17.753906 13.339844 17.570312 13.289062 C 17.179688 13.183594 15.738281 12.820312 14.101562 12.296875 C 14.382812 12.449219 14.660156 12.597656 14.925781 12.742188 C 15.542969 13.085938 16.09375 13.40625 16.523438 13.667969 C 16.949219 13.929688 17.234375 14.113281 17.371094 14.25 C 17.460938 14.339844 17.5625 14.433594 17.636719 14.5625 C 17.710938 14.691406 17.75 14.867188 17.714844 15.050781 C 17.648438 15.421875 17.347656 15.855469 16.644531 16.558594 C 15.9375 17.265625 15.40625 17.613281 14.960938 17.707031 C 14.734375 17.753906 14.539062 17.726562 14.367188 17.640625 C 14.199219 17.554688 14.058594 17.414062 13.964844 17.25 C 13.785156 16.9375 13.167969 15.882812 12.480469 14.574219 C 12.921875 15.992188 13.238281 17.179688 13.332031 17.53125 C 13.378906 17.710938 13.378906 17.90625 13.320312 18.085938 C 13.257812 18.269531 13.132812 18.421875 12.941406 18.546875 C 12.554688 18.792969 11.941406 18.925781 10.941406 18.925781 C 9.949219 18.925781 9.429688 18.839844 9.125 18.625 C 8.96875 18.515625 8.871094 18.367188 8.832031 18.222656 C 8.792969 18.078125 8.800781 17.9375 8.800781 17.808594 C 8.800781 17.613281 8.871094 17.289062 8.988281 16.804688 C 9.105469 16.320312 9.277344 15.695312 9.46875 15.019531 C 9.566406 14.679688 9.675781 14.328125 9.78125 13.96875 C 8.976562 15.554688 8.191406 16.890625 7.984375 17.25 C 7.890625 17.414062 7.765625 17.554688 7.59375 17.640625 C 7.425781 17.726562 7.214844 17.746094 6.992188 17.695312 C 6.546875 17.601562 6.011719 17.253906 5.308594 16.546875 C 4.605469 15.84375 4.3125 15.410156 4.246094 15.042969 C 4.214844 14.855469 4.25 14.691406 4.324219 14.5625 C 4.398438 14.433594 4.503906 14.328125 4.59375 14.238281 C 4.730469 14.101562 5.003906 13.929688 5.429688 13.667969 C 5.855469 13.40625 6.410156 13.085938 7.027344 12.742188 C 7.300781 12.589844 7.589844 12.433594 7.882812 12.273438 C 6.230469 12.808594 4.773438 13.183594 4.382812 13.289062 C 4.199219 13.339844 4.015625 13.347656 3.835938 13.289062 C 3.652344 13.230469 3.488281 13.089844 3.367188 12.898438 C 3.117188 12.515625 2.984375 11.898438 2.984375 10.902344 C 2.984375 9.90625 3.082031 9.390625 3.296875 9.082031 C 3.40625 8.929688 3.554688 8.832031 3.699219 8.792969 C 3.84375 8.753906 3.984375 8.757812 4.113281 8.757812 C 4.304688 8.757812 4.621094 8.832031 5.105469 8.949219 C 5.59375 9.066406 6.214844 9.234375 6.890625 9.429688 C 7.394531 9.574219 7.929688 9.742188 8.464844 9.910156 C 7.972656 9.648438 7.480469 9.382812 7.027344 9.128906 C 6.410156 8.785156 5.84375 8.460938 5.417969 8.199219 C 4.992188 7.941406 4.71875 7.769531 4.582031 7.632812 C 4.492188 7.542969 4.386719 7.4375 4.3125 7.308594 C 4.238281 7.179688 4.203125 7.015625 4.234375 6.828125 C 4.300781 6.457031 4.59375 6.023438 5.296875 5.320312 C 6 4.617188 6.535156 4.269531 6.980469 4.171875 C 7.203125 4.125 7.414062 4.15625 7.582031 4.238281 C 7.753906 4.324219 7.878906 4.457031 7.972656 4.621094 C 8.179688 4.976562 8.957031 6.296875 9.757812 7.867188 C 9.65625 7.523438 9.550781 7.1875 9.457031 6.863281 C 9.265625 6.183594 9.105469 5.574219 8.988281 5.089844 C 8.871094 4.601562 8.800781 4.277344 8.800781 4.082031 C 8.800781 3.957031 8.792969 3.816406 8.832031 3.671875 C 8.871094 3.527344 8.957031 3.375 9.113281 3.269531 C 9.421875 3.054688 9.9375 2.957031 10.929688 2.957031 Z M 10.929688 3.3125 C 9.960938 3.3125 9.507812 3.433594 9.324219 3.558594 C 9.234375 3.621094 9.199219 3.679688 9.179688 3.761719 C 9.15625 3.839844 9.15625 3.953125 9.15625 4.082031 C 9.15625 4.15625 9.21875 4.519531 9.335938 5 C 9.449219 5.476562 9.613281 6.097656 9.804688 6.773438 C 10.144531 7.960938 10.582031 9.273438 10.988281 10.386719 C 11.992188 7.933594 12.808594 4.875 12.972656 4.261719 C 13.007812 4.128906 13.015625 4.015625 12.984375 3.917969 C 12.953125 3.816406 12.875 3.726562 12.738281 3.636719 C 12.460938 3.457031 11.894531 3.3125 10.929688 3.3125 Z M 7.171875 4.507812 C 7.136719 4.511719 7.097656 4.511719 7.058594 4.519531 C 6.738281 4.585938 6.234375 4.898438 5.550781 5.578125 C 4.867188 6.261719 4.621094 6.675781 4.582031 6.894531 C 4.5625 7.003906 4.585938 7.070312 4.625 7.140625 C 4.667969 7.214844 4.738281 7.285156 4.828125 7.375 C 4.878906 7.425781 5.1875 7.644531 5.609375 7.898438 C 6.027344 8.15625 6.582031 8.472656 7.191406 8.816406 C 8.273438 9.414062 9.507812 10.042969 10.585938 10.542969 C 9.5625 8.097656 7.976562 5.347656 7.660156 4.796875 C 7.59375 4.675781 7.519531 4.597656 7.425781 4.550781 C 7.359375 4.519531 7.273438 4.5 7.171875 4.507812 Z M 14.890625 4.550781 C 14.855469 4.5625 14.816406 4.578125 14.78125 4.597656 C 14.707031 4.636719 14.636719 4.707031 14.546875 4.796875 C 14.496094 4.847656 14.277344 5.160156 14.023438 5.578125 C 13.765625 6 13.449219 6.550781 13.105469 7.164062 C 12.507812 8.242188 11.878906 9.480469 11.378906 10.554688 C 13.824219 9.53125 16.574219 7.949219 17.125 7.632812 C 17.242188 7.5625 17.324219 7.480469 17.371094 7.386719 C 17.414062 7.292969 17.4375 7.191406 17.402344 7.03125 C 17.335938 6.707031 17.023438 6.207031 16.34375 5.523438 C 15.660156 4.839844 15.246094 4.589844 15.027344 4.550781 C 14.972656 4.542969 14.929688 4.542969 14.890625 4.550781 Z M 3.933594 9.117188 C 3.878906 9.117188 3.828125 9.128906 3.789062 9.136719 C 3.710938 9.160156 3.652344 9.191406 3.589844 9.285156 C 3.460938 9.464844 3.34375 9.933594 3.34375 10.902344 C 3.34375 11.867188 3.488281 12.433594 3.667969 12.710938 C 3.757812 12.847656 3.847656 12.910156 3.945312 12.945312 C 4.042969 12.976562 4.15625 12.980469 4.292969 12.945312 C 4.90625 12.78125 7.972656 11.957031 10.429688 10.945312 C 9.3125 10.539062 7.992188 10.101562 6.800781 9.761719 C 6.128906 9.570312 5.507812 9.410156 5.027344 9.292969 C 4.550781 9.179688 4.183594 9.117188 4.113281 9.117188 C 4.050781 9.117188 3.988281 9.113281 3.933594 9.117188 Z M 17.847656 9.128906 C 17.777344 9.128906 17.402344 9.191406 16.921875 9.304688 C 16.445312 9.421875 15.835938 9.582031 15.160156 9.773438 C 13.976562 10.113281 12.660156 10.550781 11.542969 10.957031 C 13.996094 11.960938 17.046875 12.789062 17.660156 12.953125 C 17.792969 12.992188 17.90625 12.988281 18.003906 12.953125 C 18.105469 12.921875 18.195312 12.859375 18.285156 12.71875 C 18.464844 12.445312 18.609375 11.867188 18.609375 10.902344 C 18.609375 9.933594 18.488281 9.476562 18.363281 9.292969 C 18.300781 9.203125 18.242188 9.171875 18.160156 9.148438 C 18.082031 9.128906 17.976562 9.128906 17.847656 9.128906 Z M 10.605469 11.324219 C 9.53125 11.828125 8.285156 12.453125 7.203125 13.054688 C 6.589844 13.394531 6.039062 13.714844 5.621094 13.96875 C 5.199219 14.226562 4.886719 14.445312 4.839844 14.496094 C 4.746094 14.585938 4.679688 14.667969 4.636719 14.738281 C 4.597656 14.8125 4.574219 14.875 4.59375 14.984375 C 4.632812 15.203125 4.878906 15.605469 5.5625 16.292969 C 6.246094 16.972656 6.75 17.28125 7.070312 17.351562 C 7.230469 17.386719 7.335938 17.363281 7.425781 17.316406 C 7.519531 17.269531 7.601562 17.191406 7.671875 17.070312 C 7.988281 16.523438 9.585938 13.773438 10.605469 11.324219 Z M 11.367188 11.335938 C 12.390625 13.78125 13.960938 16.523438 14.277344 17.070312 C 14.347656 17.191406 14.429688 17.28125 14.523438 17.328125 C 14.617188 17.375 14.730469 17.386719 14.890625 17.351562 C 15.214844 17.28125 15.714844 16.984375 16.398438 16.300781 C 17.082031 15.617188 17.320312 15.203125 17.359375 14.984375 C 17.378906 14.875 17.367188 14.8125 17.324219 14.738281 C 17.285156 14.667969 17.203125 14.597656 17.113281 14.503906 C 17.0625 14.457031 16.761719 14.238281 16.34375 13.980469 C 15.921875 13.722656 15.371094 13.394531 14.757812 13.054688 C 13.679688 12.457031 12.441406 11.839844 11.367188 11.335938 Z M 10.988281 11.503906 C 10.582031 12.621094 10.144531 13.929688 9.804688 15.121094 C 9.613281 15.792969 9.449219 16.414062 9.335938 16.894531 C 9.21875 17.371094 9.15625 17.738281 9.15625 17.808594 C 9.15625 17.9375 9.15625 18.039062 9.179688 18.121094 C 9.199219 18.203125 9.234375 18.257812 9.324219 18.320312 C 9.507812 18.449219 9.972656 18.566406 10.941406 18.566406 C 11.90625 18.566406 12.472656 18.433594 12.75 18.253906 C 12.886719 18.164062 12.953125 18.074219 12.984375 17.976562 C 13.015625 17.878906 13.019531 17.753906 12.984375 17.617188 C 12.820312 17.007812 11.992188 13.957031 10.988281 11.503906 Z M 10.988281 11.503906 "/>
</g>
</svg>
