
<svg xmlns="http://www.w3.org/2000/svg" xmlns:xlink="http://www.w3.org/1999/xlink" width="22px" height="22px" viewBox="0 0 22 22" version="1.1">
<g id="surface1">
<path style="fill-rule:nonzero;fill:rgb(100%,100%,100%);fill-opacity:1;stroke-width:5.627363;stroke-linecap:butt;stroke-linejoin:miter;stroke:rgb(46.27451%,18.039216%,20%);stroke-opacity:1;stroke-miterlimit:4;" d="M 16.363636 -97.290885 L 86.036364 -97.290885 C 92.254545 -97.290885 97.290909 -92.254521 97.290909 -86.03634 L 97.290909 -16.363612 C 97.290909 -10.145431 92.254545 -5.109067 86.036364 -5.109067 L 16.363636 -5.109067 C 10.145455 -5.109067 5.109091 -10.145431 5.109091 -16.363612 L 5.109091 -86.03634 C 5.109091 -92.254521 10.145455 -97.290885 16.363636 -97.290885 Z M 16.363636 -97.290885 " transform="matrix(0.214844,0,0,0.214844,0,21.999995)"/>
<path style=" stroke:none;fill-rule:nonzero;fill:rgb(98.431373%,79.215686%,59.215686%);fill-opacity:1;" d="M 19.0625 11.234375 C 19.0625 12.414062 18.109375 13.367188 16.933594 13.367188 C 15.757812 13.367188 14.804688 12.414062 14.804688 11.234375 C 14.804688 10.058594 15.757812 9.105469 16.933594 9.105469 C 18.109375 9.105469 19.0625 10.058594 19.0625 11.234375 "/>
<path style=" stroke:none;fill-rule:nonzero;fill:rgb(98.431373%,79.215686%,59.215686%);fill-opacity:1;" d="M 7.332031 11.234375 C 7.332031 12.414062 6.378906 13.367188 5.203125 13.367188 C 4.027344 13.367188 3.070312 12.414062 3.070312 11.234375 C 3.070312 10.058594 4.027344 9.105469 5.203125 9.105469 C 6.378906 9.105469 7.332031 10.058594 7.332031 11.234375 "/>
<path style=" stroke:none;fill-rule:nonzero;fill:rgb(84.705882%,30.980392%,31.764706%);fill-opacity:1;" d="M 6.417969 11.234375 C 6.417969 11.910156 5.875 12.453125 5.203125 12.453125 C 4.53125 12.453125 3.984375 11.910156 3.984375 11.234375 C 3.984375 10.5625 4.53125 10.019531 5.203125 10.019531 C 5.875 10.019531 6.417969 10.5625 6.417969 11.234375 "/>
<path style=" stroke:none;fill-rule:nonzero;fill:rgb(84.705882%,30.980392%,31.764706%);fill-opacity:1;" d="M 18.148438 11.234375 C 18.148438 11.910156 17.605469 12.453125 16.933594 12.453125 C 16.261719 12.453125 15.714844 11.910156 15.714844 11.234375 C 15.714844 10.5625 16.261719 10.019531 16.933594 10.019531 C 17.605469 10.019531 18.148438 10.5625 18.148438 11.234375 "/>
<path style=" stroke:none;fill-rule:nonzero;fill:rgb(46.27451%,18.039216%,20%);fill-opacity:1;" d="M 17.21875 11.234375 C 17.21875 14.636719 14.460938 17.394531 11.058594 17.394531 C 7.65625 17.394531 4.898438 14.636719 4.898438 11.234375 C 4.898438 7.832031 7.65625 5.074219 11.058594 5.074219 C 14.460938 5.074219 17.21875 7.832031 17.21875 11.234375 "/>
<path style=" stroke:none;fill-rule:nonzero;fill:rgb(98.431373%,79.215686%,59.215686%);fill-opacity:1;" d="M 16.132812 10.398438 C 16.132812 9.011719 15.011719 7.890625 13.625 7.890625 C 12.5 7.890625 11.546875 8.628906 11.230469 9.648438 C 10.910156 8.628906 9.957031 7.890625 8.832031 7.890625 C 7.445312 7.890625 6.324219 9.011719 6.324219 10.398438 C 6.324219 11.582031 7.144531 12.574219 8.25 12.839844 C 7.875 13.402344 7.65625 14.082031 7.65625 14.8125 C 7.65625 16.785156 9.253906 18.386719 11.230469 18.386719 C 13.203125 18.386719 14.804688 16.785156 14.804688 14.8125 C 14.804688 14.082031 14.585938 13.402344 14.210938 12.839844 C 15.3125 12.574219 16.132812 11.582031 16.132812 10.398438 "/>
<path style=" stroke:none;fill-rule:nonzero;fill:rgb(46.27451%,18.039216%,20%);fill-opacity:1;" d="M 8.273438 5.742188 C 8.273438 5.742188 10.449219 4.46875 13.566406 3.402344 L 11.914062 5.136719 L 14.25 4.570312 L 13.84375 5.742188 L 14.804688 5.742188 L 14.804688 6.671875 Z M 8.273438 5.742188 "/>
<path style=" stroke:none;fill-rule:nonzero;fill:rgb(84.705882%,30.980392%,31.764706%);fill-opacity:1;" d="M 11.515625 15.875 C 11.515625 16.15625 11.363281 16.382812 11.171875 16.382812 C 10.980469 16.382812 10.828125 16.15625 10.828125 15.875 C 10.828125 15.597656 10.980469 15.371094 11.171875 15.371094 C 11.363281 15.371094 11.515625 15.597656 11.515625 15.875 "/>
<path style=" stroke:none;fill-rule:nonzero;fill:rgb(94.901961%,56.470588%,41.568627%);fill-opacity:1;" d="M 10.59375 10.398438 C 10.59375 11.371094 9.808594 12.15625 8.835938 12.15625 C 7.867188 12.15625 7.082031 11.371094 7.082031 10.398438 C 7.082031 9.429688 7.867188 8.644531 8.835938 8.644531 C 9.808594 8.644531 10.59375 9.429688 10.59375 10.398438 "/>
<path style=" stroke:none;fill-rule:nonzero;fill:rgb(24.313725%,11.372549%,8.235294%);fill-opacity:1;" d="M 9.871094 10.398438 C 9.871094 10.96875 9.40625 11.429688 8.835938 11.429688 C 8.269531 11.429688 7.804688 10.96875 7.804688 10.398438 C 7.804688 9.828125 8.269531 9.367188 8.835938 9.367188 C 9.40625 9.367188 9.871094 9.828125 9.871094 10.398438 "/>
<path style=" stroke:none;fill-rule:nonzero;fill:rgb(46.27451%,18.039216%,20%);fill-opacity:1;" d="M 9.628906 10.398438 C 9.628906 10.835938 9.273438 11.191406 8.835938 11.191406 C 8.402344 11.191406 8.046875 10.835938 8.046875 10.398438 C 8.046875 9.960938 8.402344 9.609375 8.835938 9.609375 C 9.273438 9.609375 9.628906 9.960938 9.628906 10.398438 "/>
<path style=" stroke:none;fill-rule:nonzero;fill:rgb(24.313725%,11.372549%,8.235294%);fill-opacity:1;" d="M 9.507812 10.125 C 9.507812 10.46875 9.230469 10.746094 8.886719 10.746094 C 8.542969 10.746094 8.261719 10.46875 8.261719 10.125 C 8.261719 9.777344 8.542969 9.5 8.886719 9.5 C 9.230469 9.5 9.507812 9.777344 9.507812 10.125 "/>
<path style=" stroke:none;fill-rule:nonzero;fill:rgb(97.647059%,96.470588%,91.764706%);fill-opacity:1;" d="M 9.628906 10.089844 C 9.628906 10.300781 9.457031 10.476562 9.242188 10.476562 C 9.03125 10.476562 8.855469 10.300781 8.855469 10.089844 C 8.855469 9.875 9.03125 9.703125 9.242188 9.703125 C 9.457031 9.703125 9.628906 9.875 9.628906 10.089844 "/>
<path style=" stroke:none;fill-rule:nonzero;fill:rgb(94.901961%,56.470588%,41.568627%);fill-opacity:1;" d="M 15.492188 10.398438 C 15.492188 11.371094 14.707031 12.15625 13.734375 12.15625 C 12.765625 12.15625 11.976562 11.371094 11.976562 10.398438 C 11.976562 9.429688 12.765625 8.644531 13.734375 8.644531 C 14.707031 8.644531 15.492188 9.429688 15.492188 10.398438 "/>
<path style=" stroke:none;fill-rule:nonzero;fill:rgb(24.313725%,11.372549%,8.235294%);fill-opacity:1;" d="M 14.765625 10.398438 C 14.765625 10.96875 14.304688 11.429688 13.734375 11.429688 C 13.164062 11.429688 12.703125 10.96875 12.703125 10.398438 C 12.703125 9.828125 13.164062 9.367188 13.734375 9.367188 C 14.304688 9.367188 14.765625 9.828125 14.765625 10.398438 "/>
<path style=" stroke:none;fill-rule:nonzero;fill:rgb(46.27451%,18.039216%,20%);fill-opacity:1;" d="M 14.527344 10.398438 C 14.527344 10.835938 14.171875 11.191406 13.734375 11.191406 C 13.296875 11.191406 12.945312 10.835938 12.945312 10.398438 C 12.945312 9.960938 13.296875 9.609375 13.734375 9.609375 C 14.171875 9.609375 14.527344 9.960938 14.527344 10.398438 "/>
<path style=" stroke:none;fill-rule:nonzero;fill:rgb(24.313725%,11.372549%,8.235294%);fill-opacity:1;" d="M 14.40625 10.125 C 14.40625 10.46875 14.128906 10.746094 13.78125 10.746094 C 13.4375 10.746094 13.160156 10.46875 13.160156 10.125 C 13.160156 9.777344 13.4375 9.5 13.78125 9.5 C 14.128906 9.5 14.40625 9.777344 14.40625 10.125 "/>
<path style=" stroke:none;fill-rule:nonzero;fill:rgb(97.647059%,96.470588%,91.764706%);fill-opacity:1;" d="M 14.527344 10.089844 C 14.527344 10.300781 14.351562 10.476562 14.140625 10.476562 C 13.925781 10.476562 13.753906 10.300781 13.753906 10.089844 C 13.753906 9.875 13.925781 9.703125 14.140625 9.703125 C 14.351562 9.703125 14.527344 9.875 14.527344 10.089844 "/>
<path style=" stroke:none;fill-rule:nonzero;fill:rgb(94.901961%,56.470588%,41.568627%);fill-opacity:1;" d="M 11.777344 13.125 C 11.777344 13.210938 11.492188 13.285156 11.140625 13.285156 C 10.789062 13.285156 10.503906 13.210938 10.503906 13.125 C 10.503906 13.039062 10.789062 12.96875 11.140625 12.96875 C 11.492188 12.96875 11.777344 13.039062 11.777344 13.125 "/>
</g>
</svg>
