
<svg xmlns="http://www.w3.org/2000/svg" xmlns:xlink="http://www.w3.org/1999/xlink" width="22px" height="22px" viewBox="0 0 22 22" version="1.1">
<g id="surface1">
<path style=" stroke:none;fill-rule:evenodd;fill:rgb(40%,69.803922%,27.058824%);fill-opacity:1;" d="M 3.902344 0.609375 L 18.257812 0.609375 C 20.121094 0.609375 21.628906 2.117188 21.628906 3.980469 L 21.628906 18.195312 C 21.628906 20.058594 20.121094 21.570312 18.257812 21.570312 L 3.902344 21.570312 C 2.039062 21.570312 0.53125 20.058594 0.53125 18.195312 L 0.53125 3.980469 C 0.53125 2.117188 2.039062 0.609375 3.902344 0.609375 Z M 3.902344 0.609375 "/>
<path style=" stroke:none;fill-rule:evenodd;fill:rgb(0%,54.901961%,75.686275%);fill-opacity:1;" d="M 4.535156 1.53125 L 17.625 1.53125 C 19.324219 1.53125 20.703125 2.90625 20.703125 4.605469 L 20.703125 17.570312 C 20.703125 19.269531 19.324219 20.644531 17.625 20.644531 L 4.535156 20.644531 C 2.835938 20.644531 1.460938 19.269531 1.460938 17.570312 L 1.460938 4.605469 C 1.460938 2.90625 2.835938 1.53125 4.535156 1.53125 Z M 4.535156 1.53125 "/>
<path style=" stroke:none;fill-rule:nonzero;fill:rgb(100%,100%,100%);fill-opacity:1;" d="M 6.800781 8.140625 C 6.800781 8.46875 6.535156 8.734375 6.207031 8.734375 C 5.882812 8.734375 5.617188 8.46875 5.617188 8.140625 C 5.617188 7.816406 5.882812 7.550781 6.207031 7.550781 C 6.539062 7.550781 6.800781 7.816406 6.800781 8.140625 "/>
<path style=" stroke:none;fill-rule:nonzero;fill:rgb(100%,100%,100%);fill-opacity:1;" d="M 6.902344 9.769531 C 6.902344 10.097656 6.636719 10.363281 6.308594 10.363281 C 5.980469 10.363281 5.714844 10.097656 5.714844 9.769531 C 5.714844 9.441406 5.980469 9.175781 6.308594 9.175781 C 6.636719 9.175781 6.902344 9.4375 6.902344 9.769531 "/>
<path style=" stroke:none;fill-rule:nonzero;fill:rgb(100%,100%,100%);fill-opacity:1;" d="M 7.265625 11.492188 C 7.265625 11.820312 7 12.085938 6.671875 12.085938 C 6.34375 12.085938 6.078125 11.820312 6.078125 11.492188 C 6.078125 11.167969 6.34375 10.902344 6.671875 10.902344 C 7 10.898438 7.265625 11.164062 7.265625 11.492188 "/>
<path style=" stroke:none;fill-rule:nonzero;fill:rgb(100%,100%,100%);fill-opacity:1;" d="M 8.078125 13.039062 C 8.078125 13.363281 7.808594 13.628906 7.484375 13.628906 C 7.15625 13.628906 6.890625 13.363281 6.890625 13.039062 C 6.890625 12.710938 7.15625 12.445312 7.484375 12.445312 C 7.808594 12.441406 8.078125 12.707031 8.078125 13.039062 "/>
<path style=" stroke:none;fill-rule:nonzero;fill:rgb(100%,100%,100%);fill-opacity:1;" d="M 14.421875 15.195312 C 14.421875 15.523438 14.15625 15.789062 13.832031 15.789062 C 13.503906 15.789062 13.238281 15.523438 13.238281 15.195312 C 13.238281 14.871094 13.503906 14.605469 13.832031 14.605469 C 14.15625 14.605469 14.421875 14.871094 14.421875 15.195312 "/>
<path style=" stroke:none;fill-rule:nonzero;fill:rgb(100%,100%,100%);fill-opacity:1;" d="M 15.5 13.921875 C 15.5 14.25 15.234375 14.515625 14.90625 14.515625 C 14.582031 14.515625 14.316406 14.25 14.316406 13.921875 C 14.316406 13.59375 14.582031 13.328125 14.90625 13.328125 C 15.234375 13.328125 15.5 13.59375 15.5 13.921875 "/>
<path style=" stroke:none;fill-rule:nonzero;fill:rgb(100%,100%,100%);fill-opacity:1;" d="M 12.375 4.90625 C 12.375 5.234375 12.109375 5.5 11.78125 5.5 C 11.457031 5.5 11.191406 5.234375 11.191406 4.90625 C 11.191406 4.578125 11.457031 4.3125 11.78125 4.3125 C 12.109375 4.3125 12.375 4.578125 12.375 4.90625 "/>
<path style=" stroke:none;fill-rule:nonzero;fill:rgb(100%,100%,100%);fill-opacity:1;" d="M 10.816406 4.359375 C 10.816406 4.6875 10.550781 4.953125 10.222656 4.953125 C 9.898438 4.953125 9.632812 4.6875 9.632812 4.359375 C 9.632812 4.035156 9.898438 3.765625 10.222656 3.765625 C 10.550781 3.765625 10.816406 4.035156 10.816406 4.359375 "/>
<path style=" stroke:none;fill-rule:nonzero;fill:rgb(40%,69.803922%,27.058824%);fill-opacity:1;" d="M 15.019531 4.855469 C 17.199219 4.855469 18.96875 6.625 18.96875 8.808594 C 18.96875 10.988281 17.199219 12.757812 15.019531 12.757812 C 12.835938 12.757812 11.066406 10.988281 11.066406 8.808594 C 11.066406 6.625 12.835938 4.855469 15.019531 4.855469 "/>
<path style=" stroke:none;fill-rule:nonzero;fill:rgb(100%,100%,100%);fill-opacity:1;" d="M 15.019531 12.863281 C 12.78125 12.863281 10.960938 11.042969 10.960938 8.808594 C 10.960938 6.570312 12.78125 4.75 15.019531 4.75 C 17.257812 4.75 19.074219 6.570312 19.074219 8.808594 C 19.074219 11.042969 17.257812 12.863281 15.019531 12.863281 Z M 15.019531 4.960938 C 12.898438 4.960938 11.175781 6.6875 11.175781 8.808594 C 11.175781 10.925781 12.898438 12.652344 15.019531 12.652344 C 17.140625 12.652344 18.863281 10.925781 18.863281 8.808594 C 18.863281 6.6875 17.140625 4.960938 15.019531 4.960938 Z M 15.019531 4.960938 "/>
<path style=" stroke:none;fill-rule:nonzero;fill:rgb(40%,69.803922%,27.058824%);fill-opacity:1;" d="M 9.605469 13.628906 C 11.390625 13.628906 12.839844 15.078125 12.839844 16.863281 C 12.839844 18.648438 11.390625 20.09375 9.605469 20.09375 C 7.820312 20.09375 6.375 18.648438 6.375 16.863281 C 6.375 15.078125 7.820312 13.628906 9.605469 13.628906 "/>
<path style=" stroke:none;fill-rule:nonzero;fill:rgb(100%,100%,100%);fill-opacity:1;" d="M 9.605469 20.203125 C 7.765625 20.203125 6.269531 18.703125 6.269531 16.863281 C 6.269531 15.023438 7.765625 13.523438 9.605469 13.523438 C 11.445312 13.523438 12.945312 15.023438 12.945312 16.863281 C 12.945312 18.703125 11.445312 20.203125 9.605469 20.203125 Z M 9.605469 13.734375 C 7.882812 13.734375 6.480469 15.140625 6.480469 16.863281 C 6.480469 18.585938 7.882812 19.988281 9.605469 19.988281 C 11.332031 19.988281 12.734375 18.585938 12.734375 16.863281 C 12.734375 15.140625 11.332031 13.734375 9.605469 13.734375 Z M 9.605469 13.734375 "/>
<path style=" stroke:none;fill-rule:nonzero;fill:rgb(40%,69.803922%,27.058824%);fill-opacity:1;" d="M 6.945312 2.679688 C 8.136719 2.679688 9.101562 3.644531 9.101562 4.835938 C 9.101562 6.023438 8.136719 6.988281 6.945312 6.988281 C 5.753906 6.988281 4.789062 6.023438 4.789062 4.835938 C 4.789062 3.644531 5.753906 2.679688 6.945312 2.679688 "/>
<path style=" stroke:none;fill-rule:nonzero;fill:rgb(100%,100%,100%);fill-opacity:1;" d="M 6.945312 7.09375 C 5.699219 7.09375 4.683594 6.082031 4.683594 4.835938 C 4.683594 3.585938 5.699219 2.574219 6.945312 2.574219 C 8.191406 2.574219 9.207031 3.585938 9.207031 4.835938 C 9.207031 6.082031 8.191406 7.09375 6.945312 7.09375 Z M 6.945312 2.785156 C 5.816406 2.785156 4.894531 3.703125 4.894531 4.835938 C 4.894531 5.964844 5.816406 6.882812 6.945312 6.882812 C 8.074219 6.882812 8.992188 5.964844 8.992188 4.835938 C 8.992188 3.703125 8.074219 2.785156 6.945312 2.785156 Z M 6.945312 2.785156 "/>
</g>
</svg>
