
<svg xmlns="http://www.w3.org/2000/svg" xmlns:xlink="http://www.w3.org/1999/xlink" width="22px" height="22px" viewBox="0 0 22 22" version="1.1">
<g id="surface1">
<path style="fill-rule:nonzero;fill:rgb(82.352941%,16.862745%,15.294118%);fill-opacity:1;stroke-width:28.097435;stroke-linecap:butt;stroke-linejoin:miter;stroke:rgb(27.843137%,27.45098%,27.45098%);stroke-opacity:1;stroke-miterlimit:4;" d="M 82.090909 25.909091 L 429.909091 25.909091 C 461 25.909091 486.090909 51 486.090909 82.090909 L 486.090909 429.909091 C 486.090909 461 461 486.090909 429.909091 486.090909 L 82.090909 486.090909 C 51 486.090909 25.909091 461 25.909091 429.909091 L 25.909091 82.090909 C 25.909091 51 51 25.909091 82.090909 25.909091 Z M 82.090909 25.909091 " transform="matrix(0.0429688,0,0,0.0429688,0,0)"/>
<path style=" stroke:none;fill-rule:nonzero;fill:rgb(0%,0%,0%);fill-opacity:1;" d="M 2.898438 8.941406 L 2.898438 13.574219 L 2.949219 13.566406 C 2.949219 13.566406 3.09375 13.546875 3.40625 13.511719 L 3.445312 13.507812 L 3.445312 13.464844 L 3.417969 10.4375 L 3.878906 13.417969 L 3.886719 13.464844 L 3.929688 13.457031 C 3.929688 13.457031 4.109375 13.4375 4.71875 13.375 L 4.757812 13.371094 L 4.757812 8.941406 L 4.199219 8.941406 L 4.199219 8.988281 L 4.210938 12.183594 L 3.722656 8.980469 L 3.714844 8.941406 L 2.898438 8.941406 M 7.269531 8.941406 L 6.175781 8.941406 L 6.175781 13.257812 L 6.226562 13.253906 C 6.226562 13.253906 6.492188 13.234375 7.269531 13.1875 L 7.3125 13.183594 L 7.3125 12.675781 L 7.265625 12.679688 L 6.726562 12.714844 L 6.726562 11.359375 L 7.3125 11.359375 L 7.3125 10.84375 L 6.722656 10.84375 L 6.722656 9.453125 L 7.316406 9.453125 L 7.316406 8.941406 L 7.269531 8.941406 M 12.277344 8.941406 L 11.183594 8.941406 L 11.183594 13.058594 L 11.734375 13.058594 L 11.734375 11.359375 L 12.320312 11.359375 L 12.320312 10.84375 L 11.730469 10.84375 L 11.730469 9.453125 L 12.320312 9.453125 L 12.320312 8.941406 L 12.277344 8.941406 M 13.667969 8.941406 L 13.667969 13.089844 L 13.710938 13.09375 C 13.710938 13.09375 14.019531 13.101562 14.765625 13.136719 L 14.8125 13.136719 L 14.8125 12.632812 L 14.769531 12.628906 C 14.769531 12.628906 14.632812 12.621094 14.214844 12.605469 L 14.214844 8.941406 L 13.667969 8.941406 M 16.496094 8.941406 L 15.996094 8.941406 L 15.996094 13.203125 L 16.039062 13.203125 C 16.039062 13.203125 16.207031 13.214844 16.492188 13.234375 L 16.542969 13.238281 L 16.542969 8.941406 L 16.496094 8.941406 M 17.941406 8.941406 L 17.953125 8.996094 L 18.339844 10.988281 L 17.964844 13.328125 L 17.957031 13.375 L 18.007812 13.378906 L 18.492188 13.429688 L 18.539062 13.433594 L 18.542969 13.386719 L 18.761719 11.703125 L 18.976562 13.441406 L 18.980469 13.476562 L 19.015625 13.480469 L 19.550781 13.542969 L 19.613281 13.550781 L 19.601562 13.488281 L 19.222656 11.046875 L 19.605469 8.996094 L 19.617188 8.941406 L 19.011719 8.941406 L 19.003906 8.980469 L 18.78125 10.410156 L 18.546875 8.980469 L 18.539062 8.941406 L 17.941406 8.941406 M 8.371094 8.941406 L 8.371094 9.453125 L 8.867188 9.453125 L 8.867188 13.113281 L 8.917969 13.109375 C 8.917969 13.109375 9.019531 13.097656 9.363281 13.089844 L 9.410156 13.089844 L 9.410156 13.042969 L 9.414062 9.453125 L 9.910156 9.453125 L 9.910156 8.945312 L 8.371094 8.945312 "/>
<path style=" stroke:none;fill-rule:nonzero;fill:rgb(100%,100%,100%);fill-opacity:1;" d="M 2.640625 8.683594 L 2.640625 13.316406 L 2.691406 13.308594 C 2.691406 13.308594 2.835938 13.289062 3.148438 13.253906 L 3.1875 13.25 L 3.1875 13.207031 L 3.160156 10.179688 L 3.621094 13.160156 L 3.628906 13.207031 L 3.671875 13.199219 C 3.671875 13.199219 3.851562 13.179688 4.460938 13.117188 L 4.5 13.113281 L 4.5 8.683594 L 3.941406 8.683594 L 3.941406 8.730469 L 3.953125 11.925781 L 3.464844 8.722656 L 3.457031 8.683594 L 2.640625 8.683594 M 7.011719 8.683594 L 5.917969 8.683594 L 5.917969 13 L 5.96875 12.996094 C 5.96875 12.996094 6.234375 12.976562 7.011719 12.929688 L 7.054688 12.925781 L 7.054688 12.417969 L 7.007812 12.421875 L 6.46875 12.457031 L 6.46875 11.101562 L 7.054688 11.101562 L 7.054688 10.585938 L 6.464844 10.585938 L 6.464844 9.195312 L 7.058594 9.195312 L 7.058594 8.683594 L 7.011719 8.683594 M 12.019531 8.683594 L 10.925781 8.683594 L 10.925781 12.800781 L 11.476562 12.800781 L 11.476562 11.101562 L 12.0625 11.101562 L 12.0625 10.585938 L 11.472656 10.585938 L 11.472656 9.195312 L 12.0625 9.195312 L 12.0625 8.683594 L 12.019531 8.683594 M 13.410156 8.683594 L 13.410156 12.832031 L 13.453125 12.835938 C 13.453125 12.835938 13.761719 12.84375 14.507812 12.878906 L 14.554688 12.878906 L 14.554688 12.375 L 14.511719 12.371094 C 14.511719 12.371094 14.375 12.363281 13.957031 12.347656 L 13.957031 8.683594 L 13.410156 8.683594 M 16.238281 8.683594 L 15.738281 8.683594 L 15.738281 12.945312 L 15.78125 12.945312 C 15.78125 12.945312 15.949219 12.957031 16.234375 12.976562 L 16.285156 12.980469 L 16.285156 8.683594 L 16.238281 8.683594 M 17.683594 8.683594 L 17.695312 8.738281 L 18.082031 10.730469 L 17.707031 13.070312 L 17.699219 13.117188 L 17.75 13.121094 L 18.234375 13.171875 L 18.28125 13.175781 L 18.285156 13.128906 L 18.503906 11.445312 L 18.71875 13.183594 L 18.722656 13.21875 L 18.757812 13.222656 L 19.292969 13.285156 L 19.355469 13.292969 L 19.34375 13.230469 L 18.964844 10.789062 L 19.347656 8.738281 L 19.359375 8.683594 L 18.753906 8.683594 L 18.746094 8.722656 L 18.523438 10.152344 L 18.289062 8.722656 L 18.28125 8.683594 L 17.683594 8.683594 M 8.113281 8.683594 L 8.113281 9.195312 L 8.609375 9.195312 L 8.609375 12.855469 L 8.660156 12.851562 C 8.660156 12.851562 8.761719 12.839844 9.105469 12.832031 L 9.152344 12.832031 L 9.152344 12.785156 L 9.15625 9.195312 L 9.652344 9.195312 L 9.652344 8.6875 L 8.113281 8.6875 "/>
</g>
</svg>
