
<svg xmlns="http://www.w3.org/2000/svg" xmlns:xlink="http://www.w3.org/1999/xlink" width="22px" height="22px" viewBox="0 0 22 22" version="1.1">
<defs>
<linearGradient id="linear0" gradientUnits="userSpaceOnUse" x1="-47.000001" y1="0.00221467" x2="-1.000001" y2="0.00221467" >
<stop offset="0" style="stop-color:rgb(40.392157%,40.392157%,60%);stop-opacity:1;"/>
<stop offset="1" style="stop-color:rgb(45.098039%,45.098039%,63.137255%);stop-opacity:1;"/>
</linearGradient>
</defs>
<g id="surface1">
<path style="fill-rule:nonzero;fill:url(#linear0);stroke-width:1.4;stroke-linecap:butt;stroke-linejoin:miter;stroke:rgb(23.921569%,23.921569%,35.294118%);stroke-opacity:1;stroke-miterlimit:4;" d="M -42.997158 0.997159 L -5.002841 0.997159 C -2.786932 0.997159 -0.997159 2.786932 -0.997159 5.002841 L -0.997159 42.997158 C -0.997159 45.213067 -2.786932 47.002839 -5.002841 47.002839 L -42.997158 47.002839 C -45.213067 47.002839 -47.002839 45.213067 -47.002839 42.997158 L -47.002839 5.002841 C -47.002839 2.786932 -45.213067 0.997159 -42.997158 0.997159 Z M -42.997158 0.997159 " transform="matrix(0,-0.458333,0.458333,0,0,0)"/>
<path style=" stroke:none;fill-rule:nonzero;fill:rgb(80%,80%,80%);fill-opacity:1;" d="M 12.582031 4.742188 C 11.914062 4.742188 11.367188 5.355469 11.257812 6.164062 L 16.542969 6.164062 C 16.433594 5.355469 15.882812 4.742188 15.214844 4.742188 Z M 12.582031 4.742188 "/>
<path style=" stroke:none;fill-rule:nonzero;fill:rgb(14.509804%,68.235294%,87.45098%);fill-opacity:1;" d="M 5.414062 6.390625 L 16.585938 6.390625 C 17.46875 6.390625 18.183594 7.109375 18.183594 7.992188 L 18.183594 13.601562 C 18.183594 14.488281 17.46875 15.203125 16.585938 15.203125 L 5.414062 15.203125 C 4.53125 15.203125 3.816406 14.488281 3.816406 13.601562 L 3.816406 7.992188 C 3.816406 7.109375 4.53125 6.390625 5.414062 6.390625 Z M 5.414062 6.390625 "/>
<path style=" stroke:none;fill-rule:nonzero;fill:rgb(14.509804%,68.235294%,87.45098%);fill-opacity:1;" d="M 5.414062 8.449219 L 16.585938 8.449219 C 17.46875 8.449219 18.183594 9.164062 18.183594 10.046875 L 18.183594 15.660156 C 18.183594 16.542969 17.46875 17.257812 16.585938 17.257812 L 5.414062 17.257812 C 4.53125 17.257812 3.816406 16.542969 3.816406 15.660156 L 3.816406 10.046875 C 3.816406 9.164062 4.53125 8.449219 5.414062 8.449219 Z M 5.414062 8.449219 "/>
</g>
</svg>
