
<svg xmlns="http://www.w3.org/2000/svg" xmlns:xlink="http://www.w3.org/1999/xlink" width="22px" height="22px" viewBox="0 0 22 22" version="1.1">
<g id="surface1">
<path style="fill-rule:nonzero;fill:rgb(100%,100%,100%);fill-opacity:1;stroke-width:0.740509;stroke-linecap:butt;stroke-linejoin:miter;stroke:rgb(94.509804%,76.862745%,5.882353%);stroke-opacity:1;stroke-miterlimit:4;" d="M -35.930328 398.552098 L -26.761312 398.552098 C -25.943509 398.552098 -25.279645 399.215962 -25.279645 400.033765 L -25.279645 409.202781 C -25.279645 410.020584 -25.943509 410.684447 -26.761312 410.684447 L -35.930328 410.684447 C -36.748131 410.684447 -37.411995 410.020584 -37.411995 409.202781 L -37.411995 400.033765 C -37.411995 399.215962 -36.748131 398.552098 -35.930328 398.552098 Z M -35.930328 398.552098 " transform="matrix(1.624016,0,0,1.624016,61.9061,-646.106384)"/>
<path style=" stroke:none;fill-rule:nonzero;fill:rgb(74.117647%,76.470588%,78.039216%);fill-opacity:1;" d="M 11 3.449219 C 8.175781 3.449219 5.90625 5.722656 5.90625 8.546875 L 5.90625 18.550781 L 7.035156 18.550781 L 7.035156 8.546875 C 7.035156 6.351562 8.804688 4.582031 11 4.582031 C 13.195312 4.582031 14.964844 6.351562 14.964844 8.546875 L 14.964844 18.550781 L 16.09375 18.550781 L 16.09375 8.546875 C 16.09375 5.722656 13.824219 3.449219 11 3.449219 Z M 11 3.449219 "/>
<path style=" stroke:none;fill-rule:nonzero;fill:rgb(94.509804%,76.862745%,5.882353%);fill-opacity:1;" d="M 4.582031 18.550781 L 17.417969 18.550781 L 17.417969 11 L 4.582031 11 Z M 4.582031 18.550781 "/>
<path style=" stroke:none;fill-rule:nonzero;fill:rgb(17.254902%,24.313725%,31.372549%);fill-opacity:1;" d="M 11 12.511719 C 10.480469 12.511719 10.054688 12.933594 10.054688 13.453125 C 10.058594 13.828125 10.277344 14.167969 10.621094 14.316406 L 10.621094 17.039062 L 11.378906 17.039062 L 11.378906 14.316406 C 11.722656 14.167969 11.941406 13.828125 11.945312 13.453125 C 11.945312 12.933594 11.519531 12.511719 11 12.511719 Z M 11 12.511719 "/>
</g>
</svg>
