
<svg xmlns="http://www.w3.org/2000/svg" xmlns:xlink="http://www.w3.org/1999/xlink" width="22px" height="22px" viewBox="0 0 22 22" version="1.1">
<g id="surface1">
<path style="fill-rule:nonzero;fill:rgb(82.352941%,85.882353%,90.980392%);fill-opacity:1;stroke-width:7.118063;stroke-linecap:butt;stroke-linejoin:miter;stroke:rgb(19.215686%,21.176471%,27.843137%);stroke-opacity:1;stroke-miterlimit:4;" d="M 19.931813 1000.224068 L 108.068177 1000.224068 C 115.931813 1000.224068 122.29545 1006.587704 122.29545 1014.45134 L 122.29545 1102.587704 C 122.29545 1110.45134 115.931813 1116.814977 108.068177 1116.814977 L 19.931813 1116.814977 C 12.068177 1116.814977 5.70454 1110.45134 5.70454 1102.587704 L 5.70454 1014.45134 C 5.70454 1006.587704 12.068177 1000.224068 19.931813 1000.224068 Z M 19.931813 1000.224068 " transform="matrix(0.171875,0,0,0.171875,0.000000859375,-170.933043)"/>
<path style=" stroke:none;fill-rule:nonzero;fill:rgb(50.980392%,52.941176%,54.901961%);fill-opacity:1;" d="M 10.957031 2.921875 C 15.441406 2.921875 19.078125 6.558594 19.078125 11.042969 C 19.078125 15.527344 15.441406 19.164062 10.957031 19.164062 C 6.472656 19.164062 2.835938 15.527344 2.835938 11.042969 C 2.835938 6.558594 6.472656 2.921875 10.957031 2.921875 Z M 10.957031 2.921875 "/>
<path style=" stroke:none;fill-rule:nonzero;fill:rgb(81.960784%,81.960784%,80.392157%);fill-opacity:1;" d="M 12.234375 6.40625 L 12.269531 6.441406 C 12.980469 7.152344 12.980469 8.300781 12.269531 9.011719 L 8.925781 12.355469 C 8.214844 13.066406 7.066406 13.066406 6.355469 12.355469 L 6.320312 12.320312 C 5.609375 11.609375 5.609375 10.460938 6.320312 9.75 L 9.664062 6.40625 C 10.375 5.695312 11.523438 5.695312 12.234375 6.40625 Z M 12.234375 6.40625 "/>
<path style=" stroke:none;fill-rule:nonzero;fill:rgb(0%,48.235294%,78.823529%);fill-opacity:1;" d="M 10.957031 6.242188 C 11.773438 6.242188 12.433594 6.90625 12.433594 7.71875 C 12.433594 8.535156 11.773438 9.195312 10.957031 9.195312 C 10.140625 9.195312 9.480469 8.535156 9.480469 7.71875 C 9.480469 6.90625 10.140625 6.242188 10.957031 6.242188 Z M 10.957031 6.242188 "/>
<path style=" stroke:none;fill-rule:nonzero;fill:rgb(81.960784%,81.960784%,80.392157%);fill-opacity:1;" d="M 15.558594 9.695312 L 15.59375 9.726562 C 16.304688 10.441406 16.304688 11.585938 15.59375 12.296875 L 12.25 15.640625 C 11.539062 16.351562 10.390625 16.351562 9.679688 15.640625 L 9.644531 15.605469 C 8.933594 14.894531 8.933594 13.75 9.644531 13.035156 L 12.988281 9.695312 C 13.699219 8.980469 14.847656 8.980469 15.558594 9.695312 Z M 15.558594 9.695312 "/>
<path style=" stroke:none;fill-rule:nonzero;fill:rgb(98.039216%,76.078431%,22.745098%);fill-opacity:1;" d="M 10.957031 12.890625 C 11.773438 12.890625 12.433594 13.550781 12.433594 14.367188 C 12.433594 15.179688 11.773438 15.84375 10.957031 15.84375 C 10.140625 15.84375 9.480469 15.179688 9.480469 14.367188 C 9.480469 13.550781 10.140625 12.890625 10.957031 12.890625 Z M 10.957031 12.890625 "/>
<path style=" stroke:none;fill-rule:nonzero;fill:rgb(89.803922%,17.647059%,23.137255%);fill-opacity:1;" d="M 15.757812 11.042969 C 15.757812 11.859375 15.09375 12.519531 14.28125 12.519531 C 13.464844 12.519531 12.804688 11.859375 12.804688 11.042969 C 12.804688 10.226562 13.464844 9.566406 14.28125 9.566406 C 15.09375 9.566406 15.757812 10.226562 15.757812 11.042969 Z M 15.757812 11.042969 "/>
<path style=" stroke:none;fill-rule:nonzero;fill:rgb(1.176471%,64.705882%,43.137255%);fill-opacity:1;" d="M 9.109375 11.042969 C 9.109375 11.859375 8.449219 12.519531 7.632812 12.519531 C 6.820312 12.519531 6.15625 11.859375 6.15625 11.042969 C 6.15625 10.226562 6.820312 9.566406 7.632812 9.566406 C 8.449219 9.566406 9.109375 10.226562 9.109375 11.042969 Z M 9.109375 11.042969 "/>
</g>
</svg>
