
<svg xmlns="http://www.w3.org/2000/svg" xmlns:xlink="http://www.w3.org/1999/xlink" width="22px" height="22px" viewBox="0 0 22 22" version="1.1">
<g id="surface1">
<path style=" stroke:none;fill-rule:evenodd;fill:rgb(83.137255%,10.196078%,10.196078%);fill-opacity:1;" d="M 3.484375 1.332031 L 18.515625 1.332031 C 19.703125 1.332031 20.667969 2.296875 20.667969 3.484375 L 20.667969 18.515625 C 20.667969 19.703125 19.703125 20.667969 18.515625 20.667969 L 3.484375 20.667969 C 2.296875 20.667969 1.332031 19.703125 1.332031 18.515625 L 1.332031 3.484375 C 1.332031 2.296875 2.296875 1.332031 3.484375 1.332031 Z M 3.484375 1.332031 "/>
<path style="fill-rule:nonzero;fill:rgb(83.529412%,83.529412%,83.529412%);fill-opacity:1;stroke-width:16.912533;stroke-linecap:butt;stroke-linejoin:miter;stroke:rgb(100%,100%,100%);stroke-opacity:1;stroke-miterlimit:4;" d="M 443.454545 256.363636 C 443.454545 151.272727 359.545455 66.090909 256 66.090909 C 152.454545 66.090909 68.545455 151.272727 68.545455 256.363636 C 68.545455 361.363636 152.454545 446.545455 256 446.545455 C 359.545455 446.545455 443.454545 361.363636 443.454545 256.363636 Z M 443.454545 256.363636 " transform="matrix(0.0429688,0,0,0.0429688,0,0)"/>
<path style=" stroke:none;fill-rule:nonzero;fill:rgb(40%,40%,40%);fill-opacity:1;" d="M 12.832031 10.132812 L 9.167969 10.132812 L 9.167969 14.472656 L 6.722656 14.472656 L 11 18.8125 L 15.277344 14.472656 L 12.832031 14.472656 Z M 12.832031 10.132812 "/>
<path style=" stroke:none;fill-rule:nonzero;fill:rgb(40%,40%,40%);fill-opacity:1;" d="M 9.167969 11.878906 L 12.832031 11.878906 L 12.832031 7.539062 L 15.277344 7.539062 L 11 3.199219 L 6.722656 7.539062 L 9.167969 7.539062 Z M 9.167969 11.878906 "/>
<path style=" stroke:none;fill-rule:evenodd;fill:rgb(83.137255%,10.196078%,10.196078%);fill-opacity:1;" d="M 6.921875 8.804688 L 15.078125 8.804688 C 15.800781 8.804688 16.386719 9.390625 16.386719 10.113281 L 16.386719 11.886719 C 16.386719 12.609375 15.800781 13.195312 15.078125 13.195312 L 6.921875 13.195312 C 6.199219 13.195312 5.613281 12.609375 5.613281 11.886719 L 5.613281 10.113281 C 5.613281 9.390625 6.199219 8.804688 6.921875 8.804688 Z M 6.921875 8.804688 "/>
</g>
</svg>
