
<svg xmlns="http://www.w3.org/2000/svg" xmlns:xlink="http://www.w3.org/1999/xlink" width="22px" height="22px" viewBox="0 0 22 22" version="1.1">
<g id="surface1">
<path style="fill-rule:nonzero;fill:rgb(100%,100%,100%);fill-opacity:1;stroke-width:14.942825;stroke-linecap:butt;stroke-linejoin:miter;stroke:rgb(0%,65.490196%,92.156863%);stroke-opacity:1;stroke-miterlimit:4;" d="M 39.818182 13.272727 L 216.181818 13.272727 C 230.863636 13.272727 242.727273 25.136364 242.727273 39.818182 L 242.727273 216.181818 C 242.727273 230.863636 230.863636 242.727273 216.181818 242.727273 L 39.818182 242.727273 C 25.136364 242.727273 13.272727 230.863636 13.272727 216.181818 L 13.272727 39.818182 C 13.272727 25.136364 25.136364 13.272727 39.818182 13.272727 Z M 39.818182 13.272727 " transform="matrix(0.0859375,0,0,0.0859375,0,0)"/>
<path style=" stroke:none;fill-rule:nonzero;fill:rgb(0%,65.490196%,92.156863%);fill-opacity:1;" d="M 3.28125 16.671875 C 3.652344 16.296875 9.082031 11.695312 9.15625 11.695312 C 9.199219 11.695312 9.570312 11.992188 9.988281 12.355469 C 10.441406 12.75 10.8125 13.011719 10.917969 13.011719 C 11.023438 13.011719 11.421875 12.730469 11.910156 12.3125 C 12.410156 11.890625 12.757812 11.644531 12.808594 11.6875 C 12.855469 11.722656 13.429688 12.214844 14.085938 12.773438 C 17.417969 15.617188 18.796875 16.804688 18.796875 16.835938 C 18.796875 16.851562 15.261719 16.867188 10.945312 16.867188 L 3.089844 16.867188 Z M 2.199219 11.089844 C 2.199219 8.175781 2.226562 5.789062 2.257812 5.789062 C 2.347656 5.792969 8.398438 10.988281 8.421875 11.082031 C 8.441406 11.164062 2.527344 16.257812 2.3125 16.347656 C 2.214844 16.386719 2.199219 15.714844 2.199219 11.089844 Z M 16.46875 13.722656 C 14.824219 12.3125 13.460938 11.136719 13.433594 11.109375 C 13.386719 11.0625 19.394531 5.867188 19.570312 5.800781 C 19.617188 5.785156 19.644531 7.683594 19.644531 11.035156 C 19.644531 15.1875 19.625 16.292969 19.550781 16.289062 C 19.496094 16.285156 18.109375 15.128906 16.46875 13.722656 Z M 7.796875 9.386719 C 6.097656 7.933594 4.335938 6.429688 3.882812 6.042969 L 3.054688 5.335938 L 6.988281 5.316406 C 9.152344 5.304688 12.691406 5.304688 14.855469 5.316406 L 18.789062 5.335938 L 16.390625 7.386719 C 15.074219 8.515625 13.3125 10.023438 12.484375 10.734375 C 11.652344 11.445312 10.953125 12.023438 10.929688 12.023438 C 10.902344 12.023438 9.496094 10.835938 7.796875 9.386719 Z M 7.796875 9.386719 "/>
</g>
</svg>
