
<svg xmlns="http://www.w3.org/2000/svg" xmlns:xlink="http://www.w3.org/1999/xlink" width="22px" height="22px" viewBox="0 0 22 22" version="1.1">
<g id="surface1">
<path style="fill-rule:nonzero;fill:rgb(0%,41.568627%,72.54902%);fill-opacity:1;stroke-width:27.878233;stroke-linecap:butt;stroke-linejoin:miter;stroke:rgb(0%,25.098039%,43.921569%);stroke-opacity:1;stroke-miterlimit:4;" d="M 83.454545 27.636364 L 428.545455 27.636364 C 459.363636 27.636364 484.363636 52.636364 484.363636 83.454545 L 484.363636 428.545455 C 484.363636 459.363636 459.363636 484.363636 428.545455 484.363636 L 83.454545 484.363636 C 52.636364 484.363636 27.636364 459.363636 27.636364 428.545455 L 27.636364 83.454545 C 27.636364 52.636364 52.636364 27.636364 83.454545 27.636364 Z M 83.454545 27.636364 " transform="matrix(0.0429688,0,0,0.0429688,0,0)"/>
<path style=" stroke:none;fill-rule:evenodd;fill:rgb(100%,100%,100%);fill-opacity:1;" d="M 14.425781 3.445312 C 13.890625 3.953125 12.648438 5.019531 12.648438 5.019531 L 15.554688 7.945312 C 15.554688 7.945312 16.8125 6.652344 17.382812 6.117188 C 17.523438 5.984375 17.503906 5.683594 17.363281 5.550781 C 16.921875 5.136719 16.191406 4.460938 16.191406 4.460938 C 16.191406 4.460938 15.503906 3.804688 15.082031 3.40625 C 14.925781 3.261719 14.582031 3.300781 14.425781 3.445312 Z M 11.371094 6.0625 L 3.601562 13.382812 L 3.667969 16.277344 L 6.703125 16.261719 L 14.386719 9.007812 Z M 11.371094 6.0625 "/>
<path style=" stroke:none;fill-rule:nonzero;fill:rgb(10.196078%,10.196078%,10.196078%);fill-opacity:1;" d="M 17.828125 21.328125 C 16.335938 21.03125 14.996094 20.761719 14.84375 20.730469 L 14.566406 20.675781 L 14.566406 16.433594 L 16.328125 16.445312 C 17.296875 16.457031 18.679688 16.476562 19.398438 16.492188 L 20.703125 16.519531 L 20.703125 19.199219 C 20.703125 21.722656 20.699219 21.878906 20.621094 21.875 C 20.574219 21.871094 19.316406 21.628906 17.828125 21.328125 Z M 11.929688 20.15625 L 10.082031 19.792969 L 10.070312 18.085938 L 10.058594 16.382812 L 11.917969 16.402344 C 12.941406 16.414062 13.78125 16.429688 13.789062 16.4375 C 13.796875 16.441406 13.796875 17.363281 13.789062 18.480469 L 13.777344 20.515625 Z M 10.058594 14.039062 C 10.058594 13.105469 10.066406 12.339844 10.074219 12.339844 C 10.082031 12.339844 10.894531 12.175781 11.882812 11.976562 C 12.867188 11.78125 13.703125 11.617188 13.738281 11.617188 C 13.789062 11.617188 13.800781 12.023438 13.800781 13.648438 L 13.800781 15.679688 L 12.828125 15.710938 C 12.292969 15.726562 11.453125 15.742188 10.957031 15.742188 L 10.058594 15.742188 Z M 14.566406 13.578125 L 14.566406 11.449219 L 17.550781 10.859375 C 19.195312 10.535156 20.574219 10.257812 20.621094 10.246094 C 20.699219 10.222656 20.703125 10.375 20.703125 12.933594 L 20.703125 15.648438 L 19.082031 15.648438 C 18.191406 15.648438 16.808594 15.660156 16.011719 15.679688 L 14.566406 15.710938 Z M 14.566406 13.578125 "/>
<path style=" stroke:none;fill-rule:nonzero;fill:rgb(83.137255%,10.196078%,10.196078%);fill-opacity:1;" d="M 17.398438 20.984375 C 15.90625 20.6875 14.566406 20.417969 14.414062 20.386719 L 14.136719 20.332031 L 14.136719 16.089844 L 15.898438 16.101562 C 16.867188 16.113281 18.25 16.132812 18.96875 16.148438 L 20.273438 16.175781 L 20.273438 18.855469 C 20.273438 21.378906 20.269531 21.535156 20.191406 21.53125 C 20.144531 21.527344 18.886719 21.285156 17.398438 20.984375 Z M 11.5 19.8125 L 9.652344 19.449219 L 9.640625 17.742188 L 9.628906 16.039062 L 11.488281 16.058594 C 12.511719 16.070312 13.351562 16.085938 13.359375 16.09375 C 13.367188 16.097656 13.367188 17.019531 13.359375 18.136719 L 13.347656 20.171875 Z M 9.628906 13.695312 C 9.628906 12.761719 9.636719 11.996094 9.644531 11.996094 C 9.652344 11.996094 10.464844 11.832031 11.453125 11.632812 C 12.4375 11.4375 13.273438 11.273438 13.308594 11.273438 C 13.359375 11.273438 13.371094 11.679688 13.371094 13.304688 L 13.371094 15.335938 L 12.398438 15.367188 C 11.863281 15.382812 11.023438 15.398438 10.527344 15.398438 L 9.628906 15.398438 Z M 14.136719 13.234375 L 14.136719 11.105469 L 17.121094 10.515625 C 18.765625 10.191406 20.144531 9.914062 20.191406 9.902344 C 20.269531 9.878906 20.273438 10.03125 20.273438 12.589844 L 20.273438 15.304688 L 18.652344 15.304688 C 17.761719 15.304688 16.378906 15.316406 15.582031 15.335938 L 14.136719 15.367188 Z M 14.136719 13.234375 "/>
</g>
</svg>
