
<svg xmlns="http://www.w3.org/2000/svg" xmlns:xlink="http://www.w3.org/1999/xlink" width="22px" height="22px" viewBox="0 0 22 22" version="1.1">
<g id="surface1">
<path style="fill-rule:nonzero;fill:rgb(100%,100%,100%);fill-opacity:1;stroke-width:57.047081;stroke-linecap:butt;stroke-linejoin:miter;stroke:rgb(20%,20%,20%);stroke-opacity:1;stroke-miterlimit:4;" d="M 158.909091 44.727273 L 865.090909 44.727273 C 928.181818 44.727273 979.272727 95.818182 979.272727 158.909091 L 979.272727 865.090909 C 979.272727 928.181818 928.181818 979.272727 865.090909 979.272727 L 158.909091 979.272727 C 95.818182 979.272727 44.727273 928.181818 44.727273 865.090909 L 44.727273 158.909091 C 44.727273 95.818182 95.818182 44.727273 158.909091 44.727273 Z M 158.909091 44.727273 " transform="matrix(0.0214844,0,0,0.0214844,0,0)"/>
<path style=" stroke:none;fill-rule:nonzero;fill:rgb(0%,0%,0%);fill-opacity:0.0980392;" d="M 18.84375 8.402344 C 18.75 8.171875 18.640625 7.941406 18.519531 7.71875 C 18.449219 7.589844 18.378906 7.464844 18.300781 7.339844 C 17.972656 6.808594 17.574219 6.304688 17.101562 5.832031 C 15.554688 4.285156 13.683594 3.511719 11.496094 3.511719 C 9.308594 3.511719 7.4375 4.285156 5.890625 5.832031 C 4.34375 7.382812 3.570312 9.25 3.570312 11.4375 C 3.570312 13.625 4.34375 15.496094 5.890625 17.042969 C 7.4375 18.589844 9.308594 19.363281 11.496094 19.363281 C 13.683594 19.363281 15.554688 18.589844 17.101562 17.042969 C 17.953125 16.191406 18.570312 15.238281 18.953125 14.191406 C 19.265625 13.339844 19.421875 12.421875 19.421875 11.4375 C 19.421875 10.683594 19.328125 9.96875 19.144531 9.289062 C 19.125 9.214844 19.101562 9.136719 19.082031 9.0625 C 19.011719 8.835938 18.933594 8.617188 18.84375 8.402344 Z M 18.84375 8.402344 "/>
<path style=" stroke:none;fill-rule:nonzero;fill:rgb(20%,20%,20%);fill-opacity:1;" d="M 14.773438 4.046875 C 14.628906 3.972656 14.472656 3.898438 14.316406 3.832031 C 14.171875 3.769531 14.027344 3.710938 13.882812 3.65625 C 13.175781 3.394531 12.464844 3.230469 11.757812 3.175781 C 10.59375 3.082031 9.425781 3.265625 8.25 3.730469 C 7.855469 3.886719 7.484375 4.066406 7.132812 4.265625 C 6.4375 4.664062 5.828125 5.148438 5.308594 5.722656 C 4.734375 6.355469 4.257812 7.097656 3.890625 7.949219 C 3.550781 8.730469 3.339844 9.515625 3.253906 10.292969 C 3.246094 10.367188 3.242188 10.4375 3.234375 10.507812 C 3.171875 11.273438 3.230469 12.03125 3.40625 12.789062 C 3.503906 13.203125 3.628906 13.609375 3.789062 14.015625 C 4.253906 15.1875 4.917969 16.167969 5.78125 16.953125 C 6.308594 17.433594 6.90625 17.839844 7.582031 18.175781 C 7.582031 18.175781 7.585938 18.179688 7.585938 18.179688 C 7.640625 18.203125 7.691406 18.230469 7.730469 18.25 C 7.816406 18.289062 7.886719 18.320312 7.960938 18.351562 C 7.980469 18.359375 7.992188 18.367188 8.007812 18.375 C 8.164062 18.441406 8.324219 18.503906 8.476562 18.5625 C 8.515625 18.574219 8.550781 18.589844 8.585938 18.601562 C 8.90625 18.714844 9.226562 18.804688 9.542969 18.875 C 9.675781 18.902344 9.808594 18.929688 9.9375 18.953125 C 9.953125 18.957031 9.96875 18.957031 9.980469 18.960938 C 10.175781 18.992188 10.371094 19.015625 10.566406 19.03125 C 11.738281 19.121094 12.902344 18.9375 14.070312 18.476562 C 14.480469 18.3125 14.867188 18.128906 15.226562 17.917969 C 15.816406 17.578125 16.34375 17.171875 16.808594 16.699219 C 16.875 16.628906 16.945312 16.558594 17.011719 16.484375 C 17.152344 16.328125 17.289062 16.167969 17.421875 15.996094 C 17.757812 15.558594 18.050781 15.070312 18.304688 14.539062 C 18.347656 14.449219 18.390625 14.355469 18.433594 14.257812 C 18.4375 14.246094 18.441406 14.234375 18.445312 14.226562 C 18.449219 14.222656 18.449219 14.214844 18.453125 14.210938 C 18.5 14.101562 18.542969 13.988281 18.585938 13.875 C 18.785156 13.359375 18.925781 12.839844 19.011719 12.3125 C 19.023438 12.238281 19.035156 12.160156 19.046875 12.078125 C 19.0625 11.957031 19.078125 11.828125 19.089844 11.699219 C 19.089844 11.675781 19.09375 11.648438 19.09375 11.617188 C 19.117188 11.292969 19.117188 10.96875 19.097656 10.636719 C 19.089844 10.527344 19.078125 10.417969 19.066406 10.308594 C 19.066406 10.277344 19.058594 10.242188 19.054688 10.207031 C 19.023438 9.933594 18.972656 9.65625 18.90625 9.375 C 18.816406 8.984375 18.691406 8.589844 18.535156 8.191406 C 18.070312 7.019531 17.410156 6.042969 16.542969 5.25 C 16.226562 4.964844 15.882812 4.703125 15.507812 4.464844 C 15.277344 4.3125 15.03125 4.175781 14.773438 4.046875 Z M 14.773438 4.046875 "/>
<path style=" stroke:none;fill-rule:nonzero;fill:rgb(0%,0%,0%);fill-opacity:0.298039;" d="M 14.652344 11.4375 C 14.652344 10.566406 14.34375 9.824219 13.730469 9.207031 C 13.113281 8.589844 12.371094 8.28125 11.496094 8.28125 C 10.625 8.28125 9.878906 8.589844 9.265625 9.207031 C 8.648438 9.824219 8.339844 10.566406 8.339844 11.4375 C 8.339844 12.3125 8.648438 13.054688 9.265625 13.671875 C 9.878906 14.289062 10.625 14.59375 11.496094 14.59375 C 12.371094 14.59375 13.113281 14.289062 13.730469 13.671875 C 14.34375 13.054688 14.652344 12.3125 14.652344 11.4375 Z M 14.652344 11.4375 "/>
<path style=" stroke:none;fill-rule:nonzero;fill:rgb(12.156863%,12.156863%,12.156863%);fill-opacity:1;" d="M 13.394531 8.871094 C 12.777344 8.253906 12.03125 7.945312 11.160156 7.945312 C 10.289062 7.945312 9.546875 8.253906 8.929688 8.871094 C 8.3125 9.488281 8.003906 10.230469 8.003906 11.101562 C 8.003906 11.976562 8.3125 12.71875 8.929688 13.335938 C 9.546875 13.953125 10.289062 14.257812 11.160156 14.257812 C 12.035156 14.257812 12.777344 13.953125 13.394531 13.335938 C 14.011719 12.71875 14.316406 11.976562 14.316406 11.101562 C 14.316406 10.230469 14.011719 9.488281 13.394531 8.871094 Z M 13.394531 8.871094 "/>
<path style=" stroke:none;fill-rule:nonzero;fill:rgb(0%,0%,0%);fill-opacity:0.2;" d="M 12.855469 10.015625 L 11.054688 10.539062 L 9.859375 10.246094 L 10.878906 11.265625 L 10.574219 12.226562 L 9.164062 11.921875 L 11.484375 14.246094 C 12.21875 14.175781 12.855469 13.875 13.394531 13.335938 C 13.921875 12.804688 14.226562 12.179688 14.300781 11.460938 Z M 12.855469 10.015625 "/>
<path style=" stroke:none;fill-rule:nonzero;fill:rgb(20%,100%,40%);fill-opacity:1;" d="M 12.179688 10.355469 C 12.386719 10.355469 12.5625 10.429688 12.707031 10.574219 C 12.734375 10.597656 12.757812 10.625 12.777344 10.652344 C 12.820312 10.710938 12.878906 10.742188 12.953125 10.75 C 13.027344 10.761719 13.089844 10.742188 13.148438 10.699219 C 13.207031 10.652344 13.238281 10.59375 13.25 10.523438 C 13.257812 10.449219 13.238281 10.382812 13.195312 10.328125 C 13.160156 10.28125 13.125 10.242188 13.082031 10.199219 C 12.832031 9.949219 12.53125 9.824219 12.179688 9.824219 C 11.828125 9.824219 11.527344 9.949219 11.277344 10.199219 C 11.234375 10.242188 11.195312 10.285156 11.160156 10.328125 C 11.125 10.285156 11.089844 10.242188 11.046875 10.199219 C 10.796875 9.949219 10.496094 9.824219 10.144531 9.824219 C 10.113281 9.824219 10.085938 9.824219 10.058594 9.828125 C 9.984375 9.832031 9.925781 9.863281 9.878906 9.917969 C 9.828125 9.972656 9.808594 10.035156 9.8125 10.109375 C 9.816406 10.179688 9.847656 10.242188 9.902344 10.289062 C 9.957031 10.339844 10.019531 10.359375 10.09375 10.355469 C 10.109375 10.355469 10.125 10.355469 10.144531 10.355469 C 10.351562 10.355469 10.527344 10.429688 10.671875 10.574219 C 10.820312 10.71875 10.890625 10.894531 10.890625 11.101562 C 10.890625 11.308594 10.820312 11.484375 10.671875 11.632812 C 10.527344 11.777344 10.351562 11.851562 10.144531 11.851562 C 9.9375 11.851562 9.761719 11.777344 9.613281 11.632812 C 9.589844 11.605469 9.566406 11.582031 9.546875 11.554688 C 9.5 11.496094 9.441406 11.464844 9.371094 11.453125 C 9.296875 11.445312 9.234375 11.464844 9.175781 11.507812 C 9.117188 11.554688 9.085938 11.613281 9.074219 11.683594 C 9.066406 11.757812 9.085938 11.820312 9.128906 11.878906 C 9.160156 11.921875 9.199219 11.964844 9.238281 12.007812 C 9.488281 12.253906 9.789062 12.378906 10.144531 12.378906 C 10.496094 12.378906 10.796875 12.253906 11.046875 12.007812 C 11.089844 11.964844 11.125 11.921875 11.160156 11.878906 C 11.195312 11.921875 11.234375 11.964844 11.277344 12.007812 C 11.527344 12.253906 11.828125 12.378906 12.179688 12.378906 C 12.207031 12.378906 12.238281 12.378906 12.265625 12.378906 C 12.335938 12.375 12.398438 12.34375 12.445312 12.289062 C 12.496094 12.234375 12.515625 12.167969 12.511719 12.097656 C 12.507812 12.023438 12.476562 11.964844 12.421875 11.914062 C 12.367188 11.867188 12.304688 11.84375 12.230469 11.847656 C 12.214844 11.851562 12.195312 11.851562 12.179688 11.851562 C 11.972656 11.851562 11.796875 11.777344 11.652344 11.632812 C 11.503906 11.484375 11.429688 11.308594 11.429688 11.101562 C 11.429688 10.894531 11.503906 10.71875 11.652344 10.574219 C 11.796875 10.429688 11.972656 10.355469 12.179688 10.355469 Z M 12.179688 10.355469 "/>
<path style=" stroke:none;fill-rule:nonzero;fill:rgb(0%,0%,0%);fill-opacity:0.0980392;" d="M 11.808594 4.789062 C 11.628906 4.609375 11.414062 4.519531 11.160156 4.519531 C 10.90625 4.519531 10.691406 4.609375 10.511719 4.789062 L 9.683594 5.617188 C 9.582031 5.71875 9.527344 5.847656 9.527344 5.992188 C 9.53125 6.140625 9.582031 6.265625 9.683594 6.371094 C 9.789062 6.472656 9.914062 6.523438 10.0625 6.527344 C 10.210938 6.527344 10.335938 6.472656 10.441406 6.371094 L 11.160156 5.648438 L 11.878906 6.371094 C 11.984375 6.472656 12.109375 6.527344 12.257812 6.527344 L 12.261719 6.527344 C 12.40625 6.527344 12.53125 6.472656 12.636719 6.371094 C 12.738281 6.265625 12.792969 6.140625 12.792969 5.996094 L 12.792969 5.992188 C 12.792969 5.847656 12.742188 5.722656 12.636719 5.617188 Z M 15.894531 9.625 C 15.789062 9.730469 15.738281 9.855469 15.738281 10.003906 C 15.738281 10.152344 15.789062 10.277344 15.890625 10.382812 L 16.613281 11.101562 L 15.890625 11.824219 C 15.789062 11.925781 15.738281 12.050781 15.738281 12.199219 L 15.738281 12.203125 C 15.738281 12.347656 15.789062 12.472656 15.894531 12.578125 C 15.996094 12.679688 16.121094 12.734375 16.269531 12.734375 L 16.273438 12.734375 C 16.417969 12.734375 16.542969 12.683594 16.644531 12.582031 L 17.476562 11.75 C 17.652344 11.570312 17.742188 11.355469 17.742188 11.101562 C 17.742188 10.847656 17.652344 10.632812 17.472656 10.453125 L 16.648438 9.625 C 16.542969 9.523438 16.417969 9.472656 16.269531 9.472656 C 16.125 9.472656 15.996094 9.523438 15.894531 9.625 Z M 6.054688 9.472656 L 6.046875 9.472656 C 5.902344 9.472656 5.78125 9.523438 5.675781 9.625 L 4.847656 10.453125 C 4.667969 10.632812 4.578125 10.851562 4.578125 11.101562 L 4.578125 11.105469 C 4.578125 11.355469 4.667969 11.574219 4.847656 11.75 L 5.675781 12.578125 C 5.777344 12.683594 5.902344 12.734375 6.050781 12.734375 C 6.199219 12.734375 6.324219 12.679688 6.429688 12.578125 C 6.53125 12.476562 6.582031 12.347656 6.582031 12.203125 L 6.582031 12.199219 C 6.585938 12.050781 6.53125 11.925781 6.429688 11.824219 L 5.707031 11.101562 L 6.429688 10.382812 C 6.53125 10.277344 6.585938 10.152344 6.585938 10.003906 C 6.582031 9.855469 6.53125 9.730469 6.429688 9.628906 C 6.324219 9.523438 6.199219 9.472656 6.054688 9.472656 Z M 9.6875 15.835938 C 9.582031 15.9375 9.53125 16.0625 9.527344 16.210938 L 9.527344 16.214844 C 9.53125 16.359375 9.582031 16.484375 9.683594 16.585938 L 10.511719 17.417969 C 10.691406 17.59375 10.90625 17.683594 11.160156 17.683594 C 11.414062 17.683594 11.628906 17.59375 11.808594 17.414062 L 12.636719 16.589844 C 12.742188 16.484375 12.792969 16.359375 12.792969 16.210938 C 12.792969 16.066406 12.738281 15.9375 12.636719 15.835938 C 12.53125 15.730469 12.40625 15.679688 12.261719 15.679688 L 12.257812 15.679688 C 12.109375 15.679688 11.984375 15.730469 11.882812 15.835938 L 11.160156 16.554688 L 10.441406 15.835938 C 10.335938 15.730469 10.210938 15.679688 10.0625 15.679688 C 9.914062 15.679688 9.789062 15.730469 9.6875 15.835938 Z M 9.6875 15.835938 "/>
<path style=" stroke:none;fill-rule:nonzero;fill:rgb(60%,60%,60%);fill-opacity:1;" d="M 11.59375 5.003906 C 11.472656 4.886719 11.328125 4.828125 11.160156 4.824219 C 10.992188 4.828125 10.847656 4.886719 10.726562 5.003906 L 9.902344 5.832031 C 9.855469 5.875 9.835938 5.929688 9.835938 5.992188 C 9.835938 6.054688 9.855469 6.109375 9.902344 6.152344 C 9.945312 6.199219 10 6.21875 10.0625 6.21875 C 10.125 6.21875 10.179688 6.199219 10.222656 6.152344 L 11.050781 5.328125 C 11.082031 5.296875 11.117188 5.28125 11.160156 5.28125 C 11.203125 5.28125 11.242188 5.296875 11.269531 5.328125 L 12.097656 6.152344 C 12.140625 6.199219 12.195312 6.21875 12.257812 6.21875 C 12.320312 6.21875 12.375 6.199219 12.417969 6.152344 C 12.464844 6.109375 12.484375 6.054688 12.484375 5.992188 C 12.484375 5.929688 12.464844 5.875 12.417969 5.832031 Z M 16.042969 10.003906 C 16.042969 10.066406 16.066406 10.121094 16.109375 10.164062 L 16.9375 10.992188 C 16.964844 11.023438 16.980469 11.058594 16.980469 11.101562 C 16.980469 11.144531 16.964844 11.183594 16.9375 11.210938 L 16.109375 12.039062 C 16.066406 12.082031 16.042969 12.136719 16.042969 12.199219 C 16.042969 12.261719 16.066406 12.316406 16.109375 12.359375 C 16.152344 12.40625 16.207031 12.425781 16.269531 12.429688 C 16.332031 12.425781 16.386719 12.40625 16.433594 12.363281 L 17.257812 11.535156 C 17.378906 11.414062 17.4375 11.269531 17.4375 11.101562 C 17.4375 10.933594 17.378906 10.789062 17.257812 10.671875 L 16.429688 9.84375 C 16.386719 9.800781 16.332031 9.777344 16.269531 9.777344 C 16.207031 9.777344 16.152344 9.800781 16.109375 9.84375 C 16.066406 9.886719 16.042969 9.941406 16.042969 10.003906 Z M 6.050781 9.777344 C 5.988281 9.777344 5.933594 9.800781 5.890625 9.84375 L 5.0625 10.671875 C 4.945312 10.789062 4.882812 10.933594 4.882812 11.101562 C 4.882812 11.273438 4.945312 11.414062 5.0625 11.535156 L 5.890625 12.363281 C 5.933594 12.40625 5.988281 12.429688 6.050781 12.429688 C 6.113281 12.429688 6.167969 12.40625 6.210938 12.363281 C 6.257812 12.316406 6.277344 12.265625 6.277344 12.199219 C 6.277344 12.136719 6.257812 12.082031 6.210938 12.039062 L 5.386719 11.214844 C 5.355469 11.183594 5.339844 11.144531 5.339844 11.101562 C 5.339844 11.058594 5.355469 11.023438 5.386719 10.992188 L 6.210938 10.164062 C 6.257812 10.121094 6.277344 10.066406 6.277344 10.003906 C 6.277344 9.941406 6.257812 9.886719 6.210938 9.84375 C 6.167969 9.800781 6.113281 9.777344 6.050781 9.777344 Z M 9.902344 16.050781 C 9.859375 16.097656 9.835938 16.148438 9.835938 16.210938 C 9.835938 16.273438 9.859375 16.328125 9.902344 16.375 L 10.726562 17.199219 C 10.847656 17.320312 10.992188 17.378906 11.160156 17.378906 C 11.328125 17.378906 11.472656 17.320312 11.59375 17.199219 L 12.417969 16.371094 C 12.464844 16.328125 12.484375 16.273438 12.484375 16.210938 C 12.484375 16.148438 12.464844 16.097656 12.417969 16.050781 C 12.375 16.007812 12.320312 15.984375 12.257812 15.984375 C 12.195312 15.984375 12.140625 16.007812 12.097656 16.050781 L 11.269531 16.878906 C 11.242188 16.90625 11.203125 16.921875 11.160156 16.921875 C 11.117188 16.921875 11.082031 16.90625 11.050781 16.878906 L 10.222656 16.050781 C 10.179688 16.007812 10.125 15.984375 10.0625 15.984375 C 10 15.984375 9.945312 16.007812 9.902344 16.050781 Z M 9.902344 16.050781 "/>
</g>
</svg>
