
<svg xmlns="http://www.w3.org/2000/svg" xmlns:xlink="http://www.w3.org/1999/xlink" width="128px" height="128px" viewBox="0 0 128 128" version="1.1">
<g id="surface1">
<path style="fill-rule:nonzero;fill:rgb(80%,80%,80%);fill-opacity:1;stroke-width:1;stroke-linecap:butt;stroke-linejoin:miter;stroke:rgb(23.137255%,20.392157%,20.392157%);stroke-opacity:1;stroke-miterlimit:4;" d="M 309.890625 42.4375 C 287.15625 42.4375 268.4375 63.34375 264.71875 90.96875 L 444.59375 90.96875 C 440.875 63.34375 422.171875 42.4375 399.453125 42.4375 Z M 309.890625 42.4375 " transform="matrix(0.25,0,0,0.25,0,0)"/>
<path style=" stroke:none;fill-rule:nonzero;fill:#A9A9A9;fill-opacity:1;" d="M 16.484375 24.6875 L 111.515625 24.6875 C 119.03125 24.6875 125.125 30.796875 125.125 38.332031 L 125.125 86.207031 C 125.125 93.742188 119.03125 99.851562 111.515625 99.851562 L 16.484375 99.851562 C 8.96875 99.851562 2.875 93.742188 2.875 86.207031 L 2.875 38.332031 C 2.875 30.796875 8.96875 24.6875 16.484375 24.6875 Z M 16.484375 24.6875 "/>
<path style=" stroke:none;fill-rule:nonzero;fill:#A9A9A9;fill-opacity:1;" d="M 16.484375 42.226562 L 111.515625 42.226562 C 119.03125 42.226562 125.125 48.335938 125.125 55.871094 L 125.125 103.746094 C 125.125 111.28125 119.03125 117.390625 111.515625 117.390625 L 16.484375 117.390625 C 8.96875 117.390625 2.875 111.28125 2.875 103.746094 L 2.875 55.871094 C 2.875 48.335938 8.96875 42.226562 16.484375 42.226562 Z M 16.484375 42.226562 "/>
<path style=" stroke:none;fill-rule:nonzero;fill:rgb(100%,100%,100%);fill-opacity:1;" d="M 76.175781 98.902344 C 68.757812 97.421875 62.070312 96.085938 61.320312 95.929688 L 59.945312 95.640625 L 59.945312 74.523438 L 68.71875 74.601562 C 73.539062 74.640625 80.414062 74.742188 83.992188 74.820312 L 90.496094 74.96875 L 90.496094 88.304688 C 90.496094 100.859375 90.46875 101.640625 90.078125 101.617188 C 89.847656 101.605469 83.59375 100.382812 76.175781 98.902344 Z M 46.820312 93.054688 L 37.628906 91.253906 L 37.566406 82.765625 L 37.503906 74.273438 L 46.757812 74.382812 C 51.84375 74.445312 56.035156 74.515625 56.070312 74.546875 C 56.101562 74.574219 56.101562 79.15625 56.070312 84.726562 L 56.007812 94.855469 Z M 37.511719 62.621094 C 37.511719 57.960938 37.539062 54.148438 37.578125 54.148438 C 37.617188 54.148438 41.667969 53.34375 46.578125 52.359375 C 51.492188 51.375 55.648438 50.566406 55.820312 50.566406 C 56.066406 50.566406 56.125 52.589844 56.125 60.671875 L 56.125 70.78125 L 51.292969 70.9375 C 48.636719 71.023438 44.445312 71.09375 41.984375 71.09375 L 37.511719 71.09375 Z M 59.945312 60.324219 L 59.945312 49.714844 L 74.804688 46.78125 C 82.976562 45.167969 89.847656 43.796875 90.078125 43.730469 C 90.472656 43.621094 90.496094 44.371094 90.496094 57.117188 L 90.496094 70.617188 L 82.421875 70.617188 C 77.976562 70.617188 71.105469 70.6875 67.144531 70.773438 L 59.945312 70.929688 Z M 59.945312 60.324219 "/>
</g>
</svg>
