<?xml version="1.0" encoding="UTF-8"?>
<svg xmlns="http://www.w3.org/2000/svg" xmlns:xlink="http://www.w3.org/1999/xlink" width="32pt" height="32pt" viewBox="0 0 32 32" version="1.1">
<g id="surface1">
<path style=" stroke:none;fill-rule:nonzero;fill:rgb(30.196078%,30.196078%,30.196078%);fill-opacity:1;" d="M 15.273438 4.363281 L 15.273438 5.816406 L 11.636719 5.816406 L 11.636719 13.089844 L 15.273438 13.089844 L 15.273438 18.910156 L 7.273438 18.910156 L 7.273438 26.183594 L 15.273438 26.183594 L 15.273438 27.636719 L 16.726562 27.636719 L 16.726562 26.183594 L 24.726562 26.183594 L 24.726562 18.910156 L 16.726562 18.910156 L 16.726562 13.089844 L 20.363281 13.089844 L 20.363281 5.816406 L 16.726562 5.816406 L 16.726562 4.363281 Z M 13.089844 7.273438 L 18.910156 7.273438 L 18.910156 11.636719 L 13.089844 11.636719 Z M 8.726562 20.363281 L 23.273438 20.363281 L 23.273438 24.726562 L 8.726562 24.726562 Z M 8.726562 20.363281 "/>
</g>
</svg>
