<?xml version="1.0" encoding="UTF-8"?>
<svg xmlns="http://www.w3.org/2000/svg" xmlns:xlink="http://www.w3.org/1999/xlink" width="32pt" height="32pt" viewBox="0 0 32 32" version="1.1">
<g id="surface1">
<path style=" stroke:none;fill-rule:nonzero;fill:rgb(30.196078%,30.196078%,30.196078%);fill-opacity:1;" d="M 23.273438 4.363281 L 23.273438 7.273438 L 20.363281 7.273438 L 20.363281 8.726562 L 23.273438 8.726562 L 23.273438 11.636719 L 24.726562 11.636719 L 24.726562 8.726562 L 27.636719 8.726562 L 27.636719 7.273438 L 24.726562 7.273438 L 24.726562 4.363281 Z M 23.273438 4.363281 "/>
<path style=" stroke:none;fill-rule:nonzero;fill:rgb(30.196078%,30.196078%,30.196078%);fill-opacity:1;" d="M 11.507812 7.273438 L 6.683594 21.226562 L 6.507812 21.816406 L 4.363281 27.636719 L 6.773438 27.636719 L 9.140625 21.183594 L 17.042969 21.183594 L 19.40625 27.636719 L 21.816406 27.636719 L 19.675781 21.816406 L 19.496094 21.226562 L 14.675781 7.273438 Z M 13.113281 10.089844 L 16.28125 19.316406 L 9.898438 19.316406 Z M 13.113281 10.089844 "/>
</g>
</svg>
