<?xml version="1.0" encoding="UTF-8"?>
<svg xmlns="http://www.w3.org/2000/svg" xmlns:xlink="http://www.w3.org/1999/xlink" width="32pt" height="32pt" viewBox="0 0 32 32" version="1.1">
<g id="surface1">
<path style=" stroke:none;fill-rule:nonzero;fill:rgb(30.196078%,30.196078%,30.196078%);fill-opacity:1;" d="M 5.816406 4.363281 L 5.816406 27.636719 L 13.089844 27.636719 L 13.089844 26.183594 L 7.273438 26.183594 L 7.273438 5.816406 L 24.726562 5.816406 L 24.726562 16 L 26.183594 16 L 26.183594 4.363281 Z M 23.273438 16 L 21.824219 17.445312 L 21.816406 17.445312 L 14.546875 24.710938 L 14.558594 24.726562 L 14.550781 26.183594 L 14.546875 26.183594 L 14.546875 27.636719 L 17.453125 27.636719 L 17.464844 27.621094 L 17.484375 27.621094 L 17.472656 27.609375 L 18.910156 26.171875 L 24.726562 20.367188 L 23.703125 19.335938 L 16.441406 26.582031 L 15.578125 25.722656 L 22.839844 18.472656 L 24.726562 20.359375 L 26.183594 18.902344 Z M 23.273438 16 "/>
</g>
</svg>
