<?xml version="1.0" encoding="UTF-8"?>
<svg xmlns="http://www.w3.org/2000/svg" xmlns:xlink="http://www.w3.org/1999/xlink" width="32pt" height="32pt" viewBox="0 0 32 32" version="1.1">
<g id="surface1">
<path style=" stroke:none;fill-rule:nonzero;fill:rgb(30.196078%,30.196078%,30.196078%);fill-opacity:1;" d="M 4.363281 4.363281 L 4.363281 27.636719 L 27.636719 27.636719 L 27.636719 4.363281 Z M 5.816406 5.816406 L 8.726562 5.816406 L 8.726562 11.636719 L 5.816406 11.636719 Z M 10.183594 5.816406 L 21.816406 5.816406 L 21.816406 11.636719 L 20.363281 11.636719 L 20.363281 13.089844 L 21.816406 13.089844 L 21.816406 18.910156 L 20.363281 18.910156 L 20.363281 20.363281 L 21.816406 20.363281 L 21.816406 26.183594 L 10.183594 26.183594 L 10.183594 20.363281 L 11.636719 20.363281 L 11.636719 18.910156 L 10.183594 18.910156 L 10.183594 13.089844 L 11.636719 13.089844 L 11.636719 11.636719 L 10.183594 11.636719 Z M 23.273438 5.816406 L 26.183594 5.816406 L 26.183594 11.636719 L 23.273438 11.636719 Z M 5.816406 13.089844 L 8.726562 13.089844 L 8.726562 18.910156 L 5.816406 18.910156 Z M 23.273438 13.089844 L 26.183594 13.089844 L 26.183594 18.910156 L 23.273438 18.910156 Z M 5.816406 20.363281 L 8.726562 20.363281 L 8.726562 26.183594 L 5.816406 26.183594 Z M 23.273438 20.363281 L 26.183594 20.363281 L 26.183594 26.183594 L 23.273438 26.183594 Z M 23.273438 20.363281 "/>
<path style=" stroke:none;fill-rule:nonzero;fill:rgb(85.490196%,26.666667%,32.54902%);fill-opacity:1;" d="M 20.363281 26.183594 L 20.363281 5.816406 L 18.910156 5.816406 L 18.910156 6.246094 L 13.089844 12.0625 L 13.089844 5.816406 L 11.636719 5.816406 L 11.636719 26.183594 L 13.089844 26.183594 L 13.089844 25.753906 L 18.910156 19.9375 L 18.910156 26.183594 Z M 13.089844 23.699219 L 13.089844 19.9375 L 18.910156 14.121094 L 18.910156 17.878906 Z M 13.089844 17.878906 L 13.089844 14.121094 L 18.910156 8.300781 L 18.910156 12.0625 Z M 13.089844 17.878906 "/>
</g>
</svg>
