<?xml version="1.0" encoding="UTF-8"?>
<svg xmlns="http://www.w3.org/2000/svg" xmlns:xlink="http://www.w3.org/1999/xlink" width="32pt" height="32pt" viewBox="0 0 32 32" version="1.1">
<g id="surface1">
<path style=" stroke:none;fill-rule:nonzero;fill:rgb(30.196078%,30.196078%,30.196078%);fill-opacity:1;" d="M 23.273438 27.636719 L 23.273438 17.316406 L 26.589844 20.546875 L 27.636719 19.5 L 22.863281 14.863281 L 22.546875 14.546875 L 22.226562 14.863281 L 17.453125 19.5 L 18.5 20.546875 L 21.816406 17.316406 L 21.816406 27.636719 Z M 23.273438 27.636719 "/>
<path style=" stroke:none;fill-rule:nonzero;fill:rgb(30.196078%,30.196078%,30.196078%);fill-opacity:1;" d="M 16 5.816406 L 4.363281 5.816406 L 4.363281 4.363281 L 16 4.363281 Z M 16 5.816406 "/>
<path style=" stroke:none;fill-rule:nonzero;fill:rgb(30.196078%,30.196078%,30.196078%);fill-opacity:1;" d="M 18.910156 27.636719 L 4.363281 27.636719 L 4.363281 26.183594 L 18.910156 26.183594 Z M 18.910156 27.636719 "/>
<path style=" stroke:none;fill-rule:nonzero;fill:rgb(30.196078%,30.196078%,30.196078%);fill-opacity:1;" d="M 16 20.363281 L 4.363281 20.363281 L 4.363281 18.910156 L 16 18.910156 Z M 16 20.363281 "/>
<path style=" stroke:none;fill-rule:nonzero;fill:rgb(30.196078%,30.196078%,30.196078%);fill-opacity:1;" d="M 27.636719 13.089844 L 4.363281 13.089844 L 4.363281 11.636719 L 27.636719 11.636719 Z M 27.636719 13.089844 "/>
</g>
</svg>
