<?xml version="1.0" encoding="UTF-8"?>
<svg xmlns="http://www.w3.org/2000/svg" xmlns:xlink="http://www.w3.org/1999/xlink" width="32pt" height="32pt" viewBox="0 0 32 32" version="1.1">
<g id="surface1">
<path style=" stroke:none;fill-rule:nonzero;fill:rgb(30.196078%,30.196078%,30.196078%);fill-opacity:1;" d="M 27.636719 5.816406 L 4.363281 5.816406 L 4.363281 4.363281 L 27.636719 4.363281 Z M 27.636719 5.816406 "/>
<path style=" stroke:none;fill-rule:nonzero;fill:rgb(30.196078%,30.196078%,30.196078%);fill-opacity:1;" d="M 16 13.089844 L 4.363281 13.089844 L 4.363281 11.636719 L 16 11.636719 Z M 16 13.089844 "/>
<path style=" stroke:none;fill-rule:nonzero;fill:rgb(30.196078%,30.196078%,30.196078%);fill-opacity:1;" d="M 16 20.363281 L 4.363281 20.363281 L 4.363281 18.910156 L 16 18.910156 Z M 16 20.363281 "/>
<path style=" stroke:none;fill-rule:nonzero;fill:rgb(30.196078%,30.196078%,30.196078%);fill-opacity:1;" d="M 16 27.636719 L 4.363281 27.636719 L 4.363281 26.183594 L 16 26.183594 Z M 16 27.636719 "/>
<path style=" stroke:none;fill-rule:nonzero;fill:rgb(30.196078%,30.196078%,30.196078%);fill-opacity:1;" d="M 23.273438 27.636719 L 23.273438 10.046875 L 26.589844 13.316406 L 27.636719 12.285156 L 22.863281 7.585938 L 22.546875 7.273438 L 22.226562 7.585938 L 17.453125 12.285156 L 18.5 13.316406 L 21.816406 10.046875 L 21.816406 27.636719 Z M 23.273438 27.636719 "/>
</g>
</svg>
