<?xml version="1.0" encoding="UTF-8"?>
<svg xmlns="http://www.w3.org/2000/svg" xmlns:xlink="http://www.w3.org/1999/xlink" width="32pt" height="32pt" viewBox="0 0 32 32" version="1.1">
<g id="surface1">
<path style=" stroke:none;fill-rule:nonzero;fill:rgb(30.196078%,30.196078%,30.196078%);fill-opacity:1;" d="M 4.363281 4.363281 L 4.363281 5.816406 L 27.636719 5.816406 L 27.636719 4.363281 Z M 4.363281 7.273438 L 4.363281 8.726562 L 17.453125 8.726562 L 17.453125 7.273438 Z M 4.363281 13.089844 L 4.363281 14.546875 L 27.636719 14.546875 L 27.636719 13.089844 Z M 4.363281 16 L 4.363281 17.453125 L 18.910156 17.453125 L 18.910156 16 Z M 4.363281 21.816406 L 4.363281 23.273438 L 27.636719 23.273438 L 27.636719 21.816406 Z M 4.363281 24.726562 L 4.363281 26.183594 L 23.273438 26.183594 L 23.273438 24.726562 Z M 24.726562 26.183594 L 24.726562 27.636719 L 27.636719 27.636719 L 27.636719 26.183594 Z M 24.726562 26.183594 "/>
</g>
</svg>
