<?xml version="1.0" encoding="UTF-8"?>
<svg xmlns="http://www.w3.org/2000/svg" xmlns:xlink="http://www.w3.org/1999/xlink" width="32pt" height="32pt" viewBox="0 0 32 32" version="1.1">
<g id="surface1">
<path style=" stroke:none;fill-rule:nonzero;fill:rgb(30.196078%,30.196078%,30.196078%);fill-opacity:1;" d="M 4.363281 4.363281 L 4.363281 27.636719 L 27.636719 27.636719 L 27.636719 4.363281 Z M 5.816406 10.183594 L 26.183594 10.183594 L 26.183594 26.183594 L 5.816406 26.183594 Z M 5.816406 10.183594 "/>
<path style=" stroke:none;fill-rule:nonzero;fill:rgb(30.196078%,30.196078%,30.196078%);fill-opacity:1;" d="M 8.726562 11.636719 L 8.726562 17.453125 L 14.546875 17.453125 L 14.546875 11.636719 Z M 10.183594 13.089844 L 13.089844 13.089844 L 13.089844 16 L 10.183594 16 Z M 10.183594 13.089844 "/>
<path style=" stroke:none;fill-rule:nonzero;fill:rgb(30.196078%,30.196078%,30.196078%);fill-opacity:1;" d="M 17.453125 11.636719 L 17.453125 17.453125 L 23.273438 17.453125 L 23.273438 11.636719 Z M 18.910156 13.089844 L 21.816406 13.089844 L 21.816406 16 L 18.910156 16 Z M 18.910156 13.089844 "/>
<path style=" stroke:none;fill-rule:nonzero;fill:rgb(30.196078%,30.196078%,30.196078%);fill-opacity:1;" d="M 8.726562 18.910156 L 8.726562 24.726562 L 14.546875 24.726562 L 14.546875 18.910156 Z M 10.183594 20.363281 L 13.089844 20.363281 L 13.089844 23.273438 L 10.183594 23.273438 Z M 10.183594 20.363281 "/>
<path style=" stroke:none;fill-rule:nonzero;fill:rgb(30.196078%,30.196078%,30.196078%);fill-opacity:1;" d="M 17.453125 18.910156 L 17.453125 24.726562 L 23.273438 24.726562 L 23.273438 18.910156 Z M 18.910156 20.363281 L 21.816406 20.363281 L 21.816406 23.273438 L 18.910156 23.273438 Z M 18.910156 20.363281 "/>
</g>
</svg>
