
<svg xmlns="http://www.w3.org/2000/svg" xmlns:xlink="http://www.w3.org/1999/xlink" width="48px" height="48px" viewBox="0 0 48 48" version="1.1">
<g id="surface1">
<path style="fill-rule:nonzero;fill:rgb(80%,80%,80%);fill-opacity:1;stroke-width:1;stroke-linecap:butt;stroke-linejoin:miter;stroke:rgb(23.137255%,20.392157%,20.392157%);stroke-opacity:1;stroke-miterlimit:4;" d="M 309.875 42.458333 C 287.166667 42.458333 268.458333 63.333333 264.708333 90.958333 L 444.583333 90.958333 C 440.875 63.333333 422.166667 42.458333 399.458333 42.458333 Z M 309.875 42.458333 " transform="matrix(0.09375,0,0,0.09375,0,0)"/>
<path style=" stroke:none;fill-rule:nonzero;fill:#71C837;fill-opacity:1;" d="M 6.183594 9.257812 L 41.816406 9.257812 C 44.636719 9.257812 46.921875 11.550781 46.921875 14.375 L 46.921875 32.328125 C 46.921875 35.152344 44.636719 37.445312 41.816406 37.445312 L 6.183594 37.445312 C 3.363281 37.445312 1.078125 35.152344 1.078125 32.328125 L 1.078125 14.375 C 1.078125 11.550781 3.363281 9.257812 6.183594 9.257812 Z M 6.183594 9.257812 "/>
<path style=" stroke:none;fill-rule:nonzero;fill:#71C837;fill-opacity:1;" d="M 6.183594 15.835938 L 41.816406 15.835938 C 44.636719 15.835938 46.921875 18.125 46.921875 20.953125 L 46.921875 38.90625 C 46.921875 41.730469 44.636719 44.019531 41.816406 44.019531 L 6.183594 44.019531 C 3.363281 44.019531 1.078125 41.730469 1.078125 38.90625 L 1.078125 20.953125 C 1.078125 18.125 3.363281 15.835938 6.183594 15.835938 Z M 6.183594 15.835938 "/>
<path style=" stroke:none;fill-rule:evenodd;fill:rgb(100%,100%,100%);fill-opacity:1;" d="M 19.5 14 C 16.617188 14 14 16.621094 14 19.5 C 14 22.378906 16.617188 25 19.5 25 C 22.378906 25 25 22.378906 25 19.5 C 25 16.621094 22.378906 14 19.5 14 Z M 19.5 16 C 21.332031 16 23 17.667969 23 19.5 C 23 21.332031 21.332031 23 19.5 23 C 17.664062 23 16 21.332031 16 19.5 C 16 17.667969 17.664062 16 19.5 16 Z M 26.414062 25 L 25 26.414062 L 32.585938 34 L 34 32.585938 Z M 26.414062 25 "/>
</g>
</svg>
