<?xml version="1.0" encoding="UTF-8"?>
<svg xmlns="http://www.w3.org/2000/svg" xmlns:xlink="http://www.w3.org/1999/xlink" width="22pt" height="22pt" viewBox="0 0 22 22" version="1.1">
<g id="surface1">
<path style="fill-rule:nonzero;fill:rgb(10.588235%,63.921569%,53.72549%);fill-opacity:0.984314;stroke-width:27.910587;stroke-linecap:butt;stroke-linejoin:miter;stroke:rgb(16.470588%,43.921569%,38.823529%);stroke-opacity:0.984314;stroke-miterlimit:4;" d="M 83.181818 27.363636 L 428.818182 27.363636 C 459.636364 27.363636 484.636364 52.363636 484.636364 83.181818 L 484.636364 428.818182 C 484.636364 459.636364 459.636364 484.636364 428.818182 484.636364 L 83.181818 484.636364 C 52.363636 484.636364 27.363636 459.636364 27.363636 428.818182 L 27.363636 83.181818 C 27.363636 52.363636 52.363636 27.363636 83.181818 27.363636 Z M 83.181818 27.363636 " transform="matrix(0.0429688,0,0,0.0429688,0,0)"/>
<path style=" stroke:none;fill-rule:nonzero;fill:rgb(70.196078%,70.196078%,70.196078%);fill-opacity:1;" d="M 10.953125 5.777344 L 10.953125 10.292969 L 7.566406 10.292969 L 7.566406 8.9375 C 7.566406 7.582031 9.261719 5.777344 10.953125 5.777344 "/>
<path style=" stroke:none;fill-rule:nonzero;fill:rgb(97.647059%,97.647059%,97.647059%);fill-opacity:1;" d="M 10.9375 5.777344 L 10.9375 9.222656 L 7.566406 9.222656 L 7.566406 13.40625 C 7.566406 15.238281 8.835938 16.617188 10.953125 16.617188 C 13.070312 16.617188 14.335938 15.238281 14.335938 13.40625 L 14.335938 9.0625 C 14.335938 7.652344 12.636719 5.777344 10.9375 5.777344 Z M 10.9375 5.777344 "/>
<path style=" stroke:none;fill-rule:nonzero;fill:rgb(30.196078%,30.196078%,30.196078%);fill-opacity:1;" d="M 10.953125 8.035156 C 11.1875 8.035156 11.375 8.261719 11.375 8.539062 L 11.375 9.878906 C 11.375 10.160156 11.1875 10.382812 10.953125 10.382812 C 10.71875 10.382812 10.53125 10.160156 10.53125 9.878906 L 10.53125 8.539062 C 10.53125 8.261719 10.71875 8.035156 10.953125 8.035156 M 10.953125 8.035156 "/>
</g>
</svg>
