
<svg xmlns="http://www.w3.org/2000/svg" xmlns:xlink="http://www.w3.org/1999/xlink" width="512px" height="512px" viewBox="0 0 512 512" version="1.1">
<g id="surface1">
<path style=" stroke:none;fill-rule:nonzero;fill:rgb(60.392157%,46.666667%,23.529412%);fill-opacity:1;" d="M 137.25 27.644531 C 102.671875 27.644531 74.832031 55.484375 74.832031 90.0625 L 74.832031 421.9375 C 74.832031 456.515625 102.671875 484.355469 137.25 484.355469 L 374.75 484.355469 C 409.328125 484.355469 437.167969 456.515625 437.167969 421.9375 L 437.167969 101.667969 L 264.957031 27.644531 Z M 381.144531 27.957031 C 385.351562 28.382812 389.441406 29.226562 393.355469 30.4375 C 389.441406 29.226562 385.351562 28.382812 381.144531 27.957031 Z M 393.355469 30.4375 C 399.226562 32.253906 404.707031 34.914062 409.6875 38.269531 C 404.707031 34.914062 399.226562 32.253906 393.355469 30.4375 Z M 414.5 41.855469 C 416.039062 43.125 417.507812 44.484375 418.917969 45.894531 C 417.503906 44.480469 416.042969 43.128906 414.5 41.855469 Z M 414.5 41.855469 "/>
<path style=" stroke:none;fill-rule:nonzero;fill:rgb(100%,100%,100%);fill-opacity:0.682353;" d="M 437.167969 101.667969 L 264.957031 27.644531 L 264.957031 39.25 C 264.957031 73.828125 292.796875 101.667969 327.375 101.667969 Z M 437.167969 101.667969 "/>
<path style=" stroke:none;fill-rule:nonzero;fill:rgb(100%,100%,100%);fill-opacity:1;" d="M 336.414062 192.148438 C 335.609375 192.546875 334.898438 193.847656 334.207031 195.957031 C 332.359375 201.585938 319.359375 240.464844 245.714844 242.34375 C 210.574219 243.226562 195.621094 211.867188 195.621094 211.867188 L 194.738281 252.203125 C 194.738281 252.203125 198.515625 261.191406 190.984375 270.578125 C 190.578125 269.929688 190.332031 269.191406 189.882812 268.558594 C 187.171875 264.746094 183.996094 261.535156 180.613281 259.148438 C 176.726562 256.40625 172.6875 254.589844 168.699219 253.996094 C 164.097656 253.308594 159.652344 254.320312 156.117188 256.90625 C 152.585938 259.496094 150.527344 263.460938 149.71875 268.113281 C 149.019531 272.140625 149.261719 276.5 150.601562 281.109375 C 151.769531 285.121094 153.632812 289.171875 156.339844 292.984375 C 159.199219 297.011719 162.765625 300.582031 166.492188 303.066406 C 170.691406 305.875 175.144531 307.519531 179.511719 307.773438 C 180.863281 307.851562 182.242188 307.515625 183.484375 307.324219 C 211.757812 330.085938 267.875 351.324219 305.078125 327.042969 C 305.882812 327.324219 306.695312 327.65625 307.503906 327.941406 C 307.527344 328.328125 307.40625 328.714844 307.503906 329.0625 L 309.269531 328.390625 C 309.585938 328.492188 309.832031 328.742188 310.152344 328.835938 C 310.222656 328.859375 310.304688 328.816406 310.375 328.835938 L 311.035156 329.507812 L 327.808594 335.558594 C 327.121094 341.472656 330 348.1875 337.296875 351.019531 C 350.4375 356.125 362.675781 362.671875 362.675781 362.671875 C 356.40625 341.066406 354.121094 323.726562 337.738281 325.25 C 334.691406 325.535156 332.386719 326.804688 330.675781 328.613281 L 315.890625 318.976562 L 315.230469 318.976562 L 315.007812 318.753906 C 334.917969 298.855469 346.5625 261.460938 339.503906 196.40625 C 339.09375 193.15625 337.75 191.484375 336.414062 192.152344 Z M 336.414062 192.148438 "/>
</g>
</svg>
