
<svg xmlns="http://www.w3.org/2000/svg" xmlns:xlink="http://www.w3.org/1999/xlink" width="256px" height="256px" viewBox="0 0 256 256" version="1.1">
<g id="surface1">
<path style="fill-rule:nonzero;fill:rgb(80%,80%,80%);fill-opacity:1;stroke-width:1;stroke-linecap:butt;stroke-linejoin:miter;stroke:rgb(23.137255%,20.392157%,20.392157%);stroke-opacity:1;stroke-miterlimit:4;" d="M 309.890625 42.4375 C 287.164062 42.4375 268.445312 63.34375 264.726562 90.976562 L 444.59375 90.976562 C 440.875 63.34375 422.171875 42.4375 399.453125 42.4375 Z M 309.890625 42.4375 " transform="matrix(0.5,0,0,0.5,0,0)"/>
<path style=" stroke:none;fill-rule:nonzero;fill:#A9A9A9;fill-opacity:1;" d="M 32.96875 49.378906 L 223.03125 49.378906 C 238.0625 49.378906 250.25 61.59375 250.25 76.664062 L 250.25 172.414062 C 250.25 187.484375 238.0625 199.703125 223.03125 199.703125 L 32.96875 199.703125 C 17.9375 199.703125 5.75 187.484375 5.75 172.414062 L 5.75 76.664062 C 5.75 61.59375 17.9375 49.378906 32.96875 49.378906 Z M 32.96875 49.378906 "/>
<path style=" stroke:none;fill-rule:nonzero;fill:#A9A9A9;fill-opacity:1;" d="M 32.96875 84.453125 L 223.03125 84.453125 C 238.0625 84.453125 250.25 96.671875 250.25 111.742188 L 250.25 207.492188 C 250.25 222.5625 238.0625 234.78125 223.03125 234.78125 L 32.96875 234.78125 C 17.9375 234.78125 5.75 222.5625 5.75 207.492188 L 5.75 111.742188 C 5.75 96.671875 17.9375 84.453125 32.96875 84.453125 Z M 32.96875 84.453125 "/>
<path style=" stroke:none;fill-rule:nonzero;fill:rgb(100%,100%,100%);fill-opacity:1;" d="M 179.246094 118.414062 C 179.246094 127.578125 171.378906 135.007812 161.675781 135.007812 C 151.96875 135.007812 144.105469 127.578125 144.105469 118.414062 C 144.105469 109.25 151.96875 101.824219 161.675781 101.824219 C 171.378906 101.824219 179.246094 109.25 179.246094 118.414062 Z M 179.246094 118.414062 "/>
<path style=" stroke:none;fill-rule:nonzero;fill:rgb(100%,100%,100%);fill-opacity:1;" d="M 161.902344 87.472656 C 144.304688 87.472656 129.980469 101.59375 129.980469 119.078125 C 129.980469 136.554688 144.304688 150.78125 161.902344 150.78125 C 179.5 150.78125 193.71875 136.554688 193.71875 119.078125 C 193.71875 101.59375 179.5 87.472656 161.902344 87.472656 Z M 161.902344 98.144531 C 173.582031 98.144531 182.976562 107.476562 182.976562 119.078125 C 182.976562 130.679688 173.582031 140.109375 161.902344 140.109375 C 150.222656 140.109375 140.726562 130.679688 140.726562 119.078125 C 140.726562 107.476562 150.222656 98.144531 161.902344 98.144531 Z M 161.902344 98.144531 "/>
<path style=" stroke:none;fill-rule:nonzero;fill:rgb(100%,100%,100%);fill-opacity:1;" d="M 130.101562 119.492188 L 109.859375 149.335938 L 116.539062 155.964844 C 119.828125 157.664062 122.53125 160.273438 124.257812 163.53125 L 130.828125 170.054688 L 161.082031 149.953125 Z M 130.101562 119.492188 "/>
<path style=" stroke:none;fill-rule:nonzero;fill:rgb(100%,100%,100%);fill-opacity:1;" d="M 124.210938 172.515625 C 124.210938 180.5625 118.265625 187.085938 110.933594 187.085938 C 103.601562 187.085938 97.660156 180.5625 97.660156 172.515625 C 97.660156 164.46875 103.601562 157.945312 110.933594 157.945312 C 118.265625 157.945312 124.210938 164.46875 124.210938 172.515625 Z M 124.210938 172.515625 "/>
<path style=" stroke:none;fill-rule:nonzero;fill:rgb(100%,100%,100%);fill-opacity:1;" d="M 108.195312 149.335938 C 95.632812 149.335938 85.453125 159.445312 85.453125 171.921875 C 85.453125 184.398438 95.632812 194.511719 108.195312 194.511719 C 120.75 194.511719 130.933594 184.398438 130.933594 171.921875 C 130.933594 159.445312 120.75 149.335938 108.195312 149.335938 Z M 108.195312 153.890625 C 118.21875 153.890625 126.34375 161.964844 126.34375 171.921875 C 126.34375 181.882812 118.21875 189.953125 108.195312 189.953125 C 98.167969 189.953125 90.039062 181.882812 90.039062 171.921875 C 90.039062 161.964844 98.167969 153.890625 108.195312 153.890625 Z M 108.195312 153.890625 "/>
<path style=" stroke:none;fill-rule:nonzero;fill:rgb(100%,100%,100%);fill-opacity:1;" d="M 69.585938 137.296875 L 69.585938 165.273438 L 107.113281 184.757812 C 107.285156 184.835938 107.484375 184.75 107.550781 184.546875 L 115.507812 161.132812 C 115.578125 160.929688 115.421875 160.695312 115.25 160.613281 Z M 69.585938 137.296875 "/>
</g>
</svg>
