
<svg xmlns="http://www.w3.org/2000/svg" xmlns:xlink="http://www.w3.org/1999/xlink" width="24px" height="24px" viewBox="0 0 24 24" version="1.1">
<g id="surface1">
<path style="fill-rule:nonzero;fill:rgb(31.764706%,72.54902%,76.470588%);fill-opacity:1;stroke-width:27.870941;stroke-linecap:butt;stroke-linejoin:miter;stroke:rgb(35.686275%,33.72549%,33.72549%);stroke-opacity:1;stroke-miterlimit:4;" d="M 83.5 27.75 L 428.5 27.75 C 459.333333 27.75 484.25 52.666667 484.25 83.5 L 484.25 428.5 C 484.25 459.333333 459.333333 484.25 428.5 484.25 L 83.5 484.25 C 52.666667 484.25 27.75 459.333333 27.75 428.5 L 27.75 83.5 C 27.75 52.666667 52.666667 27.75 83.5 27.75 Z M 83.5 27.75 " transform="matrix(0.046875,0,0,0.046875,0,0)"/>
<path style=" stroke:none;fill-rule:nonzero;fill:rgb(100%,100%,100%);fill-opacity:1;" d="M 8.910156 3.292969 L 15.867188 3.292969 C 17.085938 3.292969 18.074219 4.433594 18.074219 5.84375 L 18.074219 18.335938 C 18.074219 19.746094 17.085938 20.886719 15.867188 20.886719 L 8.910156 20.886719 C 7.691406 20.886719 6.703125 19.746094 6.703125 18.335938 L 6.703125 5.84375 C 6.703125 4.433594 7.691406 3.292969 8.910156 3.292969 Z M 8.910156 3.292969 "/>
<path style=" stroke:none;fill-rule:nonzero;fill:rgb(31.764706%,72.54902%,76.470588%);fill-opacity:0.996078;" d="M 12 1.992188 C 6.472656 1.992188 1.992188 6.472656 1.992188 12 C 1.992188 17.527344 6.472656 22.007812 12 22.007812 C 17.527344 22.007812 22.007812 17.527344 22.007812 12 C 22.007812 6.472656 17.527344 1.992188 12 1.992188 Z M 10.835938 3.464844 L 11.289062 4.066406 L 11.738281 4.667969 L 12.136719 4.855469 C 13.753906 5.628906 14.679688 6.898438 15.074219 8.875 C 15.230469 9.652344 15.265625 10.1875 15.242188 11.296875 C 15.210938 12.644531 15.050781 13.820312 14.707031 15.1875 C 14.625 15.511719 14.570312 15.789062 14.582031 15.8125 C 14.59375 15.832031 14.726562 15.855469 14.871094 15.863281 C 15.046875 15.875 15.160156 15.902344 15.203125 15.945312 C 15.289062 16.03125 15.285156 16.230469 15.199219 16.324219 C 15.105469 16.425781 15.148438 16.484375 15.316406 16.484375 C 15.480469 16.484375 15.609375 16.601562 15.609375 16.753906 C 15.609375 16.914062 15.53125 16.996094 15.332031 17.039062 C 15.09375 17.09375 14.980469 17.207031 14.980469 17.386719 C 14.980469 17.578125 15.109375 17.703125 15.339844 17.730469 C 15.65625 17.773438 15.855469 17.9375 15.90625 18.199219 C 15.96875 18.527344 15.808594 18.792969 15.488281 18.902344 C 15.316406 18.957031 15.289062 18.980469 15.253906 19.113281 C 15.207031 19.289062 15.039062 19.457031 14.859375 19.511719 C 14.691406 19.558594 9.664062 19.554688 9.503906 19.507812 C 9.339844 19.460938 9.171875 19.28125 9.125 19.109375 C 9.089844 18.984375 9.0625 18.957031 8.933594 18.921875 C 8.527344 18.8125 8.328125 18.367188 8.535156 18.027344 C 8.640625 17.859375 8.757812 17.789062 9.011719 17.742188 C 9.28125 17.691406 9.402344 17.582031 9.402344 17.386719 C 9.402344 17.207031 9.289062 17.09375 9.050781 17.039062 C 8.851562 16.996094 8.773438 16.914062 8.773438 16.753906 C 8.773438 16.601562 8.898438 16.484375 9.066406 16.484375 C 9.230469 16.484375 9.273438 16.425781 9.183594 16.324219 C 9.144531 16.28125 9.113281 16.195312 9.113281 16.128906 C 9.113281 15.941406 9.207031 15.882812 9.519531 15.863281 C 9.78125 15.847656 9.796875 15.84375 9.796875 15.753906 C 9.796875 15.664062 9.488281 14.4375 9.328125 13.882812 L 9.25 13.621094 L 9.5625 13.402344 C 10.835938 12.507812 11.53125 11.199219 11.6875 9.386719 C 11.742188 8.730469 11.683594 7.777344 11.582031 7.703125 C 11.539062 7.671875 11.382812 7.679688 10.984375 7.730469 C 10.6875 7.773438 10.421875 7.8125 10.390625 7.824219 C 10.351562 7.839844 10.34375 7.882812 10.359375 7.960938 C 10.375 8.054688 10.363281 8.089844 10.304688 8.121094 C 10.175781 8.191406 9.125 8.550781 9.050781 8.550781 C 8.980469 8.550781 8.183594 7.648438 8.183594 7.570312 C 8.183594 7.542969 8.65625 6.886719 9.234375 6.113281 L 10.28125 4.703125 L 10.503906 4.703125 C 10.640625 4.703125 10.746094 4.683594 10.769531 4.652344 C 10.796875 4.621094 10.820312 4.367188 10.824219 4.03125 Z M 10.570312 5.621094 C 10.546875 5.625 10.527344 5.632812 10.503906 5.644531 C 10.402344 5.699219 10.394531 5.898438 10.492188 5.957031 C 10.582031 6.007812 10.589844 6.007812 10.691406 5.9375 C 10.804688 5.859375 10.800781 5.742188 10.679688 5.664062 C 10.636719 5.632812 10.601562 5.621094 10.570312 5.621094 Z M 10.570312 5.621094 "/>
</g>
</svg>
