
<svg xmlns="http://www.w3.org/2000/svg" xmlns:xlink="http://www.w3.org/1999/xlink" width="24px" height="24px" viewBox="0 0 24 24" version="1.1">
<g id="surface1">
<path style="fill-rule:nonzero;fill:rgb(97.647059%,97.647059%,97.647059%);fill-opacity:1;stroke-width:2.623514;stroke-linecap:butt;stroke-linejoin:miter;stroke:rgb(16.862745%,65.882353%,92.156863%);stroke-opacity:1;stroke-miterlimit:4;" d="M 7.757812 2.515625 L 40.242186 2.515625 C 43.140624 2.515625 45.484374 4.859375 45.484374 7.757812 L 45.484374 40.242186 C 45.484374 43.140624 43.140624 45.484374 40.242186 45.484374 L 7.757812 45.484374 C 4.859375 45.484374 2.515625 43.140624 2.515625 40.242186 L 2.515625 7.757812 C 2.515625 4.859375 4.859375 2.515625 7.757812 2.515625 Z M 7.757812 2.515625 " transform="matrix(0.5,0,0,0.5,0,0)"/>
<path style=" stroke:none;fill-rule:nonzero;fill:rgb(30.196078%,30.196078%,30.196078%);fill-opacity:1;" d="M 10.296875 13.179688 C 10.296875 11.292969 9.179688 9.761719 7.800781 9.761719 C 6.425781 9.761719 5.308594 11.292969 5.308594 13.179688 C 5.308594 15.066406 6.425781 16.59375 7.800781 16.59375 C 9.179688 16.59375 10.296875 15.066406 10.296875 13.179688 Z M 10.296875 13.179688 "/>
<path style=" stroke:none;fill-rule:nonzero;fill:rgb(30.196078%,30.196078%,30.196078%);fill-opacity:1;" d="M 9.988281 16.21875 C 9.550781 17.3125 8.710938 17.992188 7.800781 17.992188 C 6.894531 17.988281 6.058594 17.3125 5.621094 16.21875 C 3.679688 16.945312 2.390625 18.5625 2.3125 20.386719 L 13.289062 20.386719 C 13.210938 18.566406 11.925781 16.945312 9.988281 16.21875 Z M 9.988281 16.21875 "/>
<path style=" stroke:none;fill-rule:nonzero;fill:rgb(60%,60%,60%);fill-opacity:1;" d="M 17.367188 10.371094 C 17.367188 7.734375 15.679688 5.59375 13.597656 5.59375 C 11.515625 5.59375 9.828125 7.734375 9.828125 10.371094 C 9.828125 13.011719 11.515625 15.148438 13.597656 15.148438 C 15.679688 15.148438 17.367188 13.011719 17.367188 10.371094 Z M 17.367188 10.371094 "/>
<path style=" stroke:none;fill-rule:nonzero;fill:rgb(60%,60%,60%);fill-opacity:1;" d="M 16.902344 14.621094 C 16.238281 16.152344 14.972656 17.101562 13.597656 17.101562 C 12.222656 17.097656 10.960938 16.148438 10.300781 14.621094 C 7.367188 15.636719 5.421875 17.902344 5.300781 20.449219 L 21.890625 20.449219 C 21.773438 17.902344 19.832031 15.636719 16.902344 14.621094 Z M 16.902344 14.621094 "/>
</g>
</svg>
