
<svg xmlns="http://www.w3.org/2000/svg" xmlns:xlink="http://www.w3.org/1999/xlink" width="24px" height="24px" viewBox="0 0 24 24" version="1.1">
<g id="surface1">
<path style="fill-rule:nonzero;fill:rgb(100%,100%,100%);fill-opacity:1;stroke-width:26.401737;stroke-linecap:butt;stroke-linejoin:miter;stroke:rgb(16.862745%,65.882353%,92.156863%);stroke-opacity:1;stroke-miterlimit:4;" d="M 92.583333 39.75 L 419.416667 39.75 C 448.583333 39.75 472.25 63.416667 472.25 92.583333 L 472.25 419.416667 C 472.25 448.583333 448.583333 472.25 419.416667 472.25 L 92.583333 472.25 C 63.416667 472.25 39.75 448.583333 39.75 419.416667 L 39.75 92.583333 C 39.75 63.416667 63.416667 39.75 92.583333 39.75 Z M 92.583333 39.75 " transform="matrix(0.046875,0,0,0.046875,0,0)"/>
<path style=" stroke:none;fill-rule:nonzero;fill:rgb(10.588235%,37.647059%,63.137255%);fill-opacity:1;" d="M 11.617188 19.957031 C 9.425781 19.671875 7.453125 18.503906 6.15625 16.71875 C 5.617188 15.976562 5.195312 15.113281 4.933594 14.21875 C 4.53125 12.832031 4.53125 11.1875 4.933594 9.800781 C 5.707031 7.140625 7.769531 5.078125 10.429688 4.304688 C 11.816406 3.902344 13.460938 3.902344 14.847656 4.304688 C 16.074219 4.660156 17.105469 5.25 18.117188 6.160156 C 18.5 6.507812 18.683594 6.746094 18.804688 7.0625 C 18.929688 7.371094 18.933594 7.539062 18.828125 7.765625 C 18.652344 8.144531 18.125 8.40625 17.542969 8.40625 C 17.207031 8.40625 16.980469 8.351562 16.6875 8.195312 C 16.484375 8.085938 16.453125 8.054688 16.238281 7.707031 C 15.925781 7.207031 15.726562 6.957031 15.375 6.605469 C 14.628906 5.867188 13.726562 5.464844 12.8125 5.464844 C 9.777344 5.464844 7.570312 9.734375 8.429688 13.964844 C 8.890625 16.234375 10.109375 17.945312 11.691406 18.542969 C 12.574219 18.875 13.433594 18.820312 14.320312 18.375 C 14.894531 18.085938 15.457031 17.597656 15.882812 17.015625 C 16.226562 16.546875 16.386719 16.394531 16.691406 16.242188 C 16.941406 16.117188 16.957031 16.113281 17.332031 16.113281 C 17.691406 16.113281 17.726562 16.121094 17.941406 16.226562 C 18.222656 16.363281 18.472656 16.578125 18.566406 16.765625 C 18.621094 16.871094 18.636719 16.953125 18.625 17.101562 C 18.605469 17.355469 18.472656 17.542969 18.03125 17.9375 C 16.746094 19.082031 15.285156 19.753906 13.609375 19.960938 C 13.125 20.023438 12.09375 20.019531 11.617188 19.957031 Z M 11.546875 14.242188 C 11.414062 14.175781 11.324219 14.058594 11.324219 13.957031 C 11.320312 13.84375 11.535156 13.847656 11.609375 13.960938 C 11.714844 14.121094 12.085938 14.097656 12.085938 13.933594 C 12.085938 13.84375 12.011719 13.808594 11.707031 13.738281 C 11.453125 13.683594 11.355469 13.582031 11.355469 13.378906 C 11.355469 13.257812 11.378906 13.199219 11.457031 13.113281 C 11.546875 13.011719 11.578125 13 11.785156 12.984375 C 11.972656 12.972656 12.03125 12.984375 12.128906 13.042969 C 12.242188 13.113281 12.328125 13.242188 12.328125 13.34375 C 12.328125 13.4375 12.113281 13.40625 12.03125 13.304688 C 11.980469 13.238281 11.929688 13.214844 11.835938 13.214844 C 11.675781 13.214844 11.632812 13.242188 11.632812 13.339844 C 11.632812 13.429688 11.703125 13.46875 11.992188 13.539062 C 12.242188 13.597656 12.363281 13.714844 12.363281 13.894531 C 12.363281 14.15625 12.1875 14.296875 11.851562 14.296875 C 11.738281 14.296875 11.605469 14.273438 11.546875 14.242188 Z M 13.902344 14.242188 C 13.769531 14.175781 13.679688 14.058594 13.679688 13.957031 C 13.675781 13.84375 13.890625 13.847656 13.964844 13.960938 C 14.070312 14.121094 14.441406 14.097656 14.441406 13.933594 C 14.441406 13.84375 14.367188 13.808594 14.0625 13.738281 C 13.808594 13.683594 13.710938 13.582031 13.710938 13.378906 C 13.710938 13.257812 13.734375 13.199219 13.8125 13.113281 C 13.902344 13.011719 13.933594 13 14.140625 12.984375 C 14.328125 12.972656 14.386719 12.984375 14.484375 13.042969 C 14.597656 13.113281 14.683594 13.242188 14.683594 13.34375 C 14.683594 13.4375 14.46875 13.40625 14.386719 13.304688 C 14.335938 13.238281 14.285156 13.214844 14.191406 13.214844 C 14.03125 13.214844 13.988281 13.242188 13.988281 13.339844 C 13.988281 13.429688 14.0625 13.46875 14.347656 13.539062 C 14.597656 13.597656 14.71875 13.714844 14.71875 13.894531 C 14.71875 14.15625 14.542969 14.296875 14.207031 14.296875 C 14.09375 14.296875 13.960938 14.273438 13.902344 14.242188 Z M 12.875 14.011719 C 12.863281 13.78125 12.84375 13.726562 12.664062 13.414062 C 12.558594 13.226562 12.476562 13.058594 12.488281 13.042969 C 12.496094 13.027344 12.566406 13.015625 12.644531 13.015625 C 12.777344 13.015625 12.78125 13.015625 12.886719 13.238281 C 12.945312 13.363281 13.003906 13.464844 13.023438 13.464844 C 13.039062 13.464844 13.101562 13.363281 13.15625 13.238281 C 13.257812 13.015625 13.257812 13.015625 13.398438 13.015625 C 13.472656 13.015625 13.542969 13.027344 13.550781 13.042969 C 13.5625 13.058594 13.480469 13.226562 13.375 13.414062 C 13.195312 13.726562 13.179688 13.78125 13.164062 14.011719 L 13.152344 14.261719 L 12.890625 14.261719 Z M 15.203125 13.78125 C 15.203125 13.457031 15.1875 13.292969 15.160156 13.261719 C 15.136719 13.242188 15.050781 13.222656 14.96875 13.222656 C 14.828125 13.222656 14.820312 13.21875 14.820312 13.117188 L 14.820312 13.015625 L 15.859375 13.015625 L 15.859375 13.117188 C 15.859375 13.21875 15.855469 13.222656 15.710938 13.222656 C 15.628906 13.222656 15.542969 13.242188 15.519531 13.261719 C 15.492188 13.292969 15.480469 13.457031 15.480469 13.78125 L 15.480469 14.261719 L 15.203125 14.261719 Z M 16.035156 13.636719 L 16.035156 13.015625 L 16.933594 13.015625 L 16.933594 13.21875 L 16.632812 13.230469 C 16.394531 13.238281 16.328125 13.25 16.296875 13.300781 C 16.269531 13.34375 16.269531 13.375 16.296875 13.421875 C 16.328125 13.46875 16.398438 13.484375 16.609375 13.5 C 16.871094 13.515625 16.882812 13.519531 16.882812 13.601562 C 16.882812 13.6875 16.875 13.691406 16.625 13.699219 C 16.335938 13.710938 16.277344 13.742188 16.277344 13.878906 C 16.277344 14.027344 16.332031 14.054688 16.664062 14.054688 L 16.96875 14.054688 L 16.96875 14.261719 L 16.035156 14.261719 Z M 17.175781 13.636719 L 17.175781 13.011719 L 17.375 13.019531 L 17.574219 13.03125 L 17.660156 13.40625 C 17.710938 13.613281 17.765625 13.78125 17.78125 13.785156 C 17.800781 13.789062 17.855469 13.621094 17.90625 13.414062 L 17.996094 13.03125 L 18.191406 13.019531 L 18.390625 13.011719 L 18.390625 14.261719 L 18.148438 14.261719 L 18.144531 13.957031 C 18.144531 13.515625 18.101562 13.5 18.003906 13.902344 L 17.921875 14.242188 L 17.644531 14.242188 L 17.5625 13.902344 C 17.464844 13.5 17.421875 13.515625 17.417969 13.957031 L 17.417969 14.261719 L 17.175781 14.261719 Z M 18.683594 12.496094 C 18.585938 12.457031 18.433594 12.289062 18.390625 12.171875 C 18.371094 12.117188 18.355469 11.976562 18.355469 11.859375 C 18.355469 11.617188 18.441406 11.425781 18.605469 11.304688 C 18.742188 11.203125 19.089844 11.1875 19.253906 11.269531 C 19.378906 11.335938 19.519531 11.53125 19.480469 11.59375 C 19.4375 11.664062 19.234375 11.632812 19.15625 11.542969 C 19.070312 11.441406 18.898438 11.425781 18.78125 11.507812 C 18.6875 11.574219 18.625 11.84375 18.664062 12.023438 C 18.71875 12.257812 18.875 12.351562 19.074219 12.269531 C 19.175781 12.222656 19.238281 12.132812 19.203125 12.074219 C 19.191406 12.058594 19.136719 12.042969 19.078125 12.042969 C 18.988281 12.042969 18.976562 12.03125 18.976562 11.941406 L 18.976562 11.835938 L 19.496094 11.835938 L 19.496094 12.164062 C 19.496094 12.484375 19.496094 12.496094 19.417969 12.496094 C 19.375 12.496094 19.320312 12.476562 19.300781 12.457031 C 19.273438 12.429688 19.234375 12.433594 19.15625 12.472656 C 19.042969 12.53125 18.796875 12.542969 18.683594 12.496094 Z M 11.390625 11.871094 L 11.390625 11.246094 L 11.757812 11.246094 C 12.117188 11.246094 12.125 11.25 12.226562 11.347656 C 12.3125 11.4375 12.328125 11.476562 12.328125 11.644531 C 12.328125 11.816406 12.3125 11.855469 12.226562 11.941406 C 12.140625 12.03125 12.097656 12.042969 11.9375 12.042969 C 11.835938 12.042969 11.734375 12.0625 11.710938 12.085938 C 11.6875 12.109375 11.667969 12.210938 11.667969 12.3125 L 11.667969 12.496094 L 11.390625 12.496094 Z M 11.992188 11.769531 C 12.046875 11.714844 12.027344 11.550781 11.960938 11.5 C 11.882812 11.445312 11.765625 11.441406 11.710938 11.496094 C 11.65625 11.550781 11.65625 11.742188 11.710938 11.796875 C 11.757812 11.84375 11.9375 11.824219 11.992188 11.769531 Z M 12.535156 11.871094 L 12.535156 11.246094 L 12.953125 11.246094 C 13.371094 11.246094 13.371094 11.246094 13.472656 11.347656 C 13.589844 11.46875 13.609375 11.644531 13.515625 11.804688 C 13.46875 11.882812 13.464844 11.917969 13.496094 11.980469 C 13.515625 12.027344 13.542969 12.160156 13.554688 12.28125 L 13.578125 12.5 L 13.28125 12.476562 L 13.257812 12.292969 C 13.230469 12.074219 13.210938 12.046875 13.042969 12.019531 C 12.859375 11.992188 12.8125 12.046875 12.8125 12.289062 L 12.8125 12.496094 L 12.535156 12.496094 Z M 13.171875 11.769531 C 13.242188 11.742188 13.261719 11.710938 13.261719 11.628906 C 13.261719 11.511719 13.171875 11.457031 12.988281 11.457031 C 12.871094 11.457031 12.8125 11.511719 12.8125 11.628906 C 12.8125 11.679688 12.832031 11.738281 12.855469 11.761719 C 12.902344 11.808594 13.050781 11.8125 13.171875 11.769531 Z M 13.78125 11.871094 L 13.78125 11.246094 L 14.058594 11.246094 L 14.058594 12.496094 L 13.78125 12.496094 Z M 14.300781 11.867188 L 14.300781 11.242188 L 14.597656 11.265625 L 14.800781 11.617188 C 14.910156 11.8125 15.015625 11.964844 15.03125 11.953125 C 15.050781 11.945312 15.0625 11.78125 15.0625 11.589844 L 15.0625 11.246094 L 15.304688 11.246094 L 15.304688 12.5 L 15.164062 12.488281 C 15.019531 12.476562 15.019531 12.476562 14.824219 12.132812 C 14.71875 11.945312 14.613281 11.792969 14.597656 11.796875 C 14.578125 11.800781 14.558594 11.949219 14.550781 12.148438 L 14.542969 12.496094 L 14.300781 12.496094 Z M 15.824219 12.015625 C 15.824219 11.691406 15.8125 11.523438 15.785156 11.496094 C 15.761719 11.472656 15.675781 11.457031 15.59375 11.457031 C 15.453125 11.457031 15.445312 11.449219 15.445312 11.351562 L 15.445312 11.246094 L 16.484375 11.246094 L 16.484375 11.351562 C 16.484375 11.449219 16.476562 11.457031 16.335938 11.457031 C 16.253906 11.457031 16.167969 11.472656 16.144531 11.496094 C 16.117188 11.523438 16.101562 11.691406 16.101562 12.015625 L 16.101562 12.496094 L 15.824219 12.496094 Z M 16.65625 11.871094 L 16.65625 11.246094 L 16.933594 11.246094 L 16.933594 12.496094 L 16.65625 12.496094 Z M 17.175781 11.867188 L 17.175781 11.242188 L 17.472656 11.265625 L 17.675781 11.617188 C 17.785156 11.8125 17.890625 11.964844 17.910156 11.953125 C 17.925781 11.945312 17.9375 11.78125 17.9375 11.589844 L 17.9375 11.246094 L 18.179688 11.246094 L 18.179688 12.5 L 18.039062 12.488281 C 17.894531 12.476562 17.894531 12.476562 17.699219 12.132812 C 17.59375 11.945312 17.492188 11.792969 17.472656 11.796875 C 17.453125 11.800781 17.433594 11.949219 17.425781 12.148438 L 17.417969 12.496094 L 17.175781 12.496094 Z M 11.589844 10.707031 C 11.421875 10.617188 11.390625 10.503906 11.390625 9.96875 L 11.390625 9.480469 L 11.664062 9.480469 L 11.675781 9.941406 C 11.6875 10.457031 11.710938 10.519531 11.894531 10.519531 C 12.078125 10.519531 12.101562 10.457031 12.113281 9.941406 L 12.125 9.480469 L 12.394531 9.480469 L 12.394531 9.96875 C 12.394531 10.507812 12.367188 10.617188 12.191406 10.710938 C 12.058594 10.777344 11.714844 10.777344 11.589844 10.707031 Z M 12.640625 10.101562 L 12.640625 9.476562 L 12.785156 9.488281 L 12.933594 9.5 L 13.136719 9.851562 C 13.25 10.046875 13.355469 10.199219 13.371094 10.1875 C 13.386719 10.179688 13.402344 10.015625 13.402344 9.824219 L 13.402344 9.480469 L 13.644531 9.480469 L 13.644531 10.730469 L 13.5 10.722656 C 13.355469 10.710938 13.355469 10.707031 13.160156 10.367188 C 13.054688 10.179688 12.953125 10.027344 12.933594 10.03125 C 12.914062 10.03125 12.894531 10.183594 12.890625 10.382812 L 12.878906 10.726562 L 12.640625 10.726562 Z M 13.886719 10.105469 L 13.886719 9.480469 L 14.164062 9.480469 L 14.164062 10.726562 L 13.886719 10.726562 Z M 14.324219 10.699219 C 14.3125 10.683594 14.382812 10.550781 14.476562 10.402344 C 14.570312 10.253906 14.648438 10.117188 14.648438 10.09375 C 14.648438 10.070312 14.578125 9.933594 14.492188 9.792969 C 14.40625 9.648438 14.335938 9.519531 14.335938 9.507812 C 14.335938 9.492188 14.40625 9.480469 14.492188 9.480469 C 14.636719 9.480469 14.652344 9.488281 14.726562 9.617188 C 14.769531 9.695312 14.820312 9.757812 14.839844 9.757812 C 14.859375 9.757812 14.902344 9.699219 14.941406 9.628906 C 15.007812 9.507812 15.027344 9.496094 15.175781 9.488281 C 15.265625 9.480469 15.339844 9.488281 15.339844 9.503906 C 15.339844 9.523438 15.269531 9.648438 15.183594 9.785156 C 15.097656 9.921875 15.027344 10.054688 15.027344 10.078125 C 15.027344 10.105469 15.105469 10.246094 15.203125 10.398438 C 15.300781 10.550781 15.363281 10.6875 15.34375 10.703125 C 15.328125 10.71875 15.253906 10.726562 15.179688 10.722656 C 15.0625 10.710938 15.039062 10.691406 14.964844 10.5625 C 14.921875 10.480469 14.867188 10.417969 14.84375 10.417969 C 14.820312 10.417969 14.761719 10.488281 14.710938 10.574219 C 14.625 10.714844 14.605469 10.726562 14.476562 10.726562 C 14.402344 10.726562 14.332031 10.714844 14.324219 10.699219 Z M 14.324219 10.699219 "/>
<path style=" stroke:none;fill-rule:nonzero;fill:rgb(8.235294%,29.411765%,49.411765%);fill-opacity:1;" d="M 12.410156 19.335938 C 11.136719 19.199219 10.066406 18.667969 9.101562 17.699219 C 7.167969 15.75 6.453125 12.535156 7.308594 9.628906 C 7.488281 9.015625 7.808594 8.289062 8.117188 7.792969 C 8.851562 6.605469 9.792969 5.761719 10.917969 5.28125 C 11.597656 4.992188 12.0625 4.898438 12.828125 4.898438 C 13.425781 4.902344 13.769531 4.949219 14.277344 5.109375 C 14.679688 5.234375 15.40625 5.601562 15.785156 5.875 C 16.417969 6.328125 17.101562 7.089844 17.546875 7.828125 C 17.882812 8.386719 17.882812 8.425781 17.644531 8.425781 C 17.382812 8.425781 17.070312 8.402344 16.816406 8.277344 C 16.578125 8.160156 16.476562 8.15625 16.304688 7.867188 C 15.757812 6.945312 15.074219 6.210938 14.265625 5.832031 C 13.441406 5.445312 12.550781 5.347656 11.710938 5.664062 C 10.414062 6.152344 9.320312 7.429688 8.722656 9.15625 C 8.378906 10.15625 8.238281 11.046875 8.238281 12.195312 C 8.238281 13.28125 8.496094 14.253906 8.816406 15.175781 C 8.949219 15.554688 9.359375 16.417969 9.554688 16.726562 C 10.824219 18.75 12.609375 19.175781 14.402344 18.273438 C 14.953125 17.996094 15.597656 17.40625 16 16.835938 C 16.269531 16.449219 16.414062 16.347656 16.640625 16.207031 C 16.925781 16.035156 17.441406 16.074219 17.621094 16.121094 C 17.742188 16.15625 17.046875 17.199219 16.527344 17.714844 C 15.6875 18.554688 14.742188 19.070312 13.675781 19.273438 C 13.375 19.328125 12.664062 19.363281 12.410156 19.335938 Z M 12.410156 19.335938 "/>
</g>
</svg>
