
<svg xmlns="http://www.w3.org/2000/svg" xmlns:xlink="http://www.w3.org/1999/xlink" width="24px" height="24px" viewBox="0 0 24 24" version="1.1">
<g id="surface1">
<path style="fill-rule:nonzero;fill:rgb(80%,80%,80%);fill-opacity:1;stroke-width:6.789384;stroke-linecap:butt;stroke-linejoin:miter;stroke:rgb(92.156863%,16.862745%,17.647059%);stroke-opacity:1;stroke-miterlimit:4;" d="M 21.979167 8.395833 L 106.020833 8.395833 C 113.520833 8.395833 119.604167 14.479167 119.604167 21.979167 L 119.604167 106.020833 C 119.604167 113.520833 113.520833 119.604167 106.020833 119.604167 L 21.979167 119.604167 C 14.479167 119.604167 8.395833 113.520833 8.395833 106.020833 L 8.395833 21.979167 C 8.395833 14.479167 14.479167 8.395833 21.979167 8.395833 Z M 21.979167 8.395833 " transform="matrix(0.1875,0,0,0.1875,0,0)"/>
<path style=" stroke:none;fill-rule:nonzero;fill:rgb(100%,16.470588%,16.470588%);fill-opacity:1;" d="M 6.175781 15.867188 L 17.886719 15.867188 L 17.886719 17.753906 L 6.175781 17.753906 M 6.175781 15.867188 "/>
<path style=" stroke:none;fill-rule:nonzero;fill:rgb(100%,16.470588%,16.470588%);fill-opacity:1;" d="M 5.929688 14.941406 L 18.089844 14.941406 L 18.089844 15.875 L 5.929688 15.875 M 5.929688 14.941406 "/>
<path style=" stroke:none;fill-rule:nonzero;fill:rgb(30.196078%,30.196078%,30.196078%);fill-opacity:1;" d="M 17.003906 7.542969 C 17.75 6.550781 17.960938 5.644531 19.414062 3.007812 C 20.011719 3.660156 20.164062 6.398438 18.753906 7.542969 M 17.003906 7.542969 "/>
<path style=" stroke:none;fill-rule:nonzero;fill:rgb(30.196078%,30.196078%,30.196078%);fill-opacity:1;" d="M 6.957031 7.542969 C 6.210938 6.550781 6 5.644531 4.546875 3.007812 C 3.945312 3.660156 3.792969 6.398438 5.203125 7.542969 M 6.957031 7.542969 "/>
<path style=" stroke:none;fill-rule:nonzero;fill:rgb(100%,16.470588%,16.470588%);fill-opacity:1;" d="M 11.980469 3.964844 C 11.734375 3.964844 11.5 3.984375 11.261719 4.007812 C 11.074219 4.027344 10.878906 4.050781 10.691406 4.082031 L 10.691406 4.097656 C 10.085938 4.207031 9.492188 4.367188 8.941406 4.605469 C 7.972656 5.015625 7.242188 5.433594 6.503906 6.167969 C 6.726562 6.609375 7.15625 7.386719 7.4375 7.761719 L 5.277344 7.761719 C 4.808594 8.4375 4.503906 8.976562 4.253906 9.78125 C 4 10.589844 3.859375 11.449219 3.859375 12.339844 C 3.859375 16.476562 6.820312 19.917969 10.695312 20.59375 L 10.695312 20.609375 C 10.878906 20.636719 11.070312 20.652344 11.25 20.667969 C 11.492188 20.691406 11.730469 20.710938 11.984375 20.710938 C 12.015625 20.710938 12.050781 20.710938 12.082031 20.710938 C 12.332031 20.710938 12.582031 20.691406 12.828125 20.667969 C 13.011719 20.652344 13.1875 20.636719 13.367188 20.609375 L 13.367188 20.59375 C 17.246094 19.917969 20.207031 16.480469 20.207031 12.339844 C 20.207031 11.449219 20.0625 10.585938 19.8125 9.78125 C 19.558594 8.976562 19.257812 8.4375 18.789062 7.761719 L 16.628906 7.761719 C 16.90625 7.386719 17.339844 6.609375 17.5625 6.167969 C 16.820312 5.433594 16.089844 5.015625 15.125 4.605469 C 14.570312 4.367188 13.976562 4.207031 13.371094 4.097656 L 13.371094 4.082031 C 13.179688 4.050781 12.996094 4.03125 12.804688 4.007812 C 12.570312 3.984375 12.328125 3.964844 12.085938 3.964844 C 12.050781 3.964844 12.019531 3.964844 11.984375 3.964844 M 7.554688 11.433594 C 8.21875 11.433594 8.75 11.980469 8.75 12.65625 C 8.75 13.328125 8.21875 13.875 7.554688 13.875 C 6.894531 13.875 6.355469 13.332031 6.355469 12.65625 C 6.355469 11.980469 6.894531 11.433594 7.554688 11.433594 M 16.507812 11.433594 C 17.171875 11.433594 17.707031 11.980469 17.707031 12.65625 C 17.707031 13.328125 17.171875 13.875 16.507812 13.875 C 15.847656 13.875 15.3125 13.332031 15.3125 12.65625 C 15.3125 11.980469 15.847656 11.433594 16.507812 11.433594 M 6.078125 15.613281 L 17.984375 15.613281 L 17.984375 15.867188 L 16.960938 15.867188 C 16.945312 16.746094 16.351562 17.21875 15.808594 17.742188 C 15.257812 17.144531 14.960938 16.496094 15.152344 15.867188 L 8.917969 15.867188 C 9.109375 16.496094 8.8125 17.144531 8.261719 17.742188 C 7.714844 17.21875 7.125 16.746094 7.105469 15.867188 L 6.085938 15.867188 L 6.085938 15.613281 M 6.078125 15.613281 "/>
<path style=" stroke:none;fill-rule:evenodd;fill:rgb(100%,16.470588%,16.470588%);fill-opacity:1;" d="M 7.109375 13.964844 C 6.882812 13.882812 6.523438 13.527344 6.375 13.238281 C 6.050781 12.617188 6.355469 11.820312 7.042969 11.484375 C 7.523438 11.246094 7.988281 11.335938 8.4375 11.746094 C 9.101562 12.359375 8.941406 13.496094 8.132812 13.878906 C 7.808594 14.03125 7.390625 14.066406 7.109375 13.964844 Z M 7.109375 13.964844 "/>
<path style=" stroke:none;fill-rule:evenodd;fill:rgb(100%,16.470588%,16.470588%);fill-opacity:1;" d="M 15.808594 13.882812 C 14.648438 13.105469 15.003906 11.425781 16.375 11.203125 C 17.152344 11.078125 17.960938 11.804688 17.960938 12.632812 C 17.960938 13.796875 16.742188 14.503906 15.808594 13.882812 Z M 15.808594 13.882812 "/>
<path style=" stroke:none;fill-rule:nonzero;fill:rgb(82.352941%,89.803922%,95.294118%);fill-opacity:1;" d="M 12.882812 12.140625 L 13.78125 10.410156 L 14.757812 9.390625 L 15.800781 9.140625 L 16.886719 9.328125 L 17.804688 9.847656 L 18.097656 10.347656 L 17.761719 11.726562 L 17.09375 12.644531 L 16.679688 13.101562 L 15.550781 13.414062 L 14.550781 13.246094 L 13.613281 12.789062 Z M 12.882812 12.140625 "/>
<path style=" stroke:none;fill-rule:nonzero;fill:rgb(58.823529%,65.098039%,69.411765%);fill-opacity:1;" d="M 13.21875 11.371094 C 13.21875 11.371094 14.472656 9.800781 15.753906 9.921875 C 16.847656 10.023438 18.132812 10.457031 18.132812 10.457031 L 17.847656 10.097656 L 16.886719 9.242188 L 15.21875 9.242188 L 14.382812 9.703125 L 13.757812 10.433594 Z M 13.21875 11.371094 "/>
<path style=" stroke:none;fill-rule:nonzero;fill:rgb(0%,0%,0%);fill-opacity:1;" d="M 13.304688 11.289062 C 13.304688 11.289062 14.40625 9.671875 15.714844 9.589844 C 16.808594 9.523438 18.132812 10.328125 18.132812 10.328125 L 17.847656 10.039062 L 16.886719 9.242188 L 15.21875 9.242188 L 14.382812 9.667969 L 13.507812 10.789062 Z M 13.304688 11.289062 "/>
<path style=" stroke:none;fill-rule:evenodd;fill:rgb(0%,0%,0%);fill-opacity:1;" d="M 15.601562 8.96875 C 17.304688 8.773438 18.417969 10.105469 18.417969 10.105469 L 18.210938 10.21875 C 18.25 11.554688 17.539062 12.792969 16.488281 13.269531 C 15.4375 13.746094 13.867188 13.476562 12.886719 12.191406 L 12.820312 12.113281 C 13.3125 10.753906 14.105469 9.140625 15.601562 8.96875 Z M 15.632812 9.34375 C 14.875 9.367188 14.1875 10.050781 13.695312 10.75 C 13.238281 11.402344 12.980469 12.003906 12.941406 12.085938 C 14.101562 13.34375 15.34375 13.515625 16.304688 13.078125 C 17.269531 12.640625 17.949219 11.578125 17.925781 10.332031 C 17.886719 10.269531 17.214844 9.296875 15.632812 9.34375 Z M 15.632812 9.34375 "/>
<path style=" stroke:none;fill-rule:evenodd;fill:rgb(100%,80%,0%);fill-opacity:1;" d="M 16.871094 11.464844 C 16.871094 10.6875 16.261719 10.058594 15.511719 10.058594 C 14.757812 10.058594 14.152344 10.6875 14.152344 11.464844 C 14.152344 12.242188 14.757812 12.871094 15.511719 12.871094 C 16.261719 12.871094 16.871094 12.242188 16.871094 11.464844 Z M 16.871094 11.464844 "/>
<path style=" stroke:none;fill-rule:evenodd;fill:rgb(8.627451%,0.784314%,0%);fill-opacity:1;" d="M 15.988281 11.476562 C 15.988281 11.785156 15.738281 12.039062 15.425781 12.039062 C 15.117188 12.039062 14.863281 11.785156 14.863281 11.476562 C 14.863281 11.164062 15.117188 10.914062 15.425781 10.914062 C 15.738281 10.914062 15.988281 11.164062 15.988281 11.476562 Z M 15.988281 11.476562 "/>
<path style=" stroke:none;fill-rule:evenodd;fill:rgb(100%,100%,100%);fill-opacity:1;" d="M 15.21875 11.257812 C 15.21875 11.386719 15.109375 11.496094 14.980469 11.496094 C 14.847656 11.496094 14.738281 11.386719 14.738281 11.257812 C 14.738281 11.125 14.847656 11.015625 14.980469 11.015625 C 15.109375 11.015625 15.21875 11.125 15.21875 11.257812 Z M 15.21875 11.257812 "/>
<path style=" stroke:none;fill-rule:nonzero;fill:rgb(82.352941%,89.803922%,95.294118%);fill-opacity:1;" d="M 10.703125 12.132812 L 9.933594 11.164062 L 9.089844 10.589844 L 8.195312 10.449219 L 7.261719 10.554688 L 6.472656 10.847656 L 6.222656 11.125 L 6.507812 11.898438 L 7.082031 12.414062 L 7.441406 12.671875 L 8.410156 12.847656 L 9.269531 12.753906 L 10.074219 12.496094 Z M 10.703125 12.132812 "/>
<path style=" stroke:none;fill-rule:nonzero;fill:rgb(58.823529%,65.098039%,69.411765%);fill-opacity:1;" d="M 10.414062 11.699219 C 10.414062 11.699219 9.335938 10.820312 8.234375 10.886719 C 7.296875 10.945312 6.191406 11.1875 6.191406 11.1875 L 6.4375 10.988281 L 7.261719 10.507812 L 8.695312 10.507812 L 9.414062 10.765625 L 9.949219 11.171875 Z M 10.414062 11.699219 "/>
<path style=" stroke:none;fill-rule:nonzero;fill:rgb(0%,0%,0%);fill-opacity:1;" d="M 10.339844 11.652344 C 10.339844 11.652344 9.394531 10.746094 8.269531 10.699219 C 7.328125 10.664062 6.191406 11.113281 6.191406 11.113281 L 6.4375 10.953125 L 7.261719 10.507812 L 8.695312 10.507812 L 9.414062 10.746094 L 10.164062 11.375 Z M 10.339844 11.652344 "/>
<path style=" stroke:none;fill-rule:evenodd;fill:rgb(0%,0%,0%);fill-opacity:1;" d="M 8.367188 10.351562 C 6.902344 10.242188 5.949219 10.988281 5.949219 10.988281 L 6.125 11.054688 C 6.089844 11.804688 6.703125 12.5 7.605469 12.765625 C 8.507812 13.035156 9.859375 12.882812 10.699219 12.160156 L 10.753906 12.117188 C 10.335938 11.355469 9.652344 10.449219 8.367188 10.351562 Z M 8.339844 10.5625 C 8.992188 10.574219 9.582031 10.960938 10.003906 11.351562 C 10.398438 11.71875 10.621094 12.054688 10.652344 12.101562 C 9.65625 12.808594 8.585938 12.902344 7.761719 12.660156 C 6.933594 12.414062 6.347656 11.816406 6.367188 11.117188 C 6.402344 11.082031 6.980469 10.535156 8.339844 10.5625 Z M 8.339844 10.5625 "/>
<path style=" stroke:none;fill-rule:evenodd;fill:rgb(100%,80%,0%);fill-opacity:1;" d="M 7.277344 11.753906 C 7.277344 11.316406 7.800781 10.964844 8.445312 10.964844 C 9.089844 10.964844 9.613281 11.316406 9.613281 11.753906 C 9.613281 12.1875 9.089844 12.542969 8.445312 12.542969 C 7.800781 12.542969 7.277344 12.1875 7.277344 11.753906 Z M 7.277344 11.753906 "/>
<path style=" stroke:none;fill-rule:evenodd;fill:rgb(8.627451%,0.784314%,0%);fill-opacity:1;" d="M 8.03125 11.757812 C 8.03125 11.933594 8.25 12.074219 8.515625 12.074219 C 8.785156 12.074219 9 11.933594 9 11.757812 C 9 11.585938 8.785156 11.441406 8.515625 11.441406 C 8.25 11.441406 8.03125 11.585938 8.03125 11.757812 Z M 8.03125 11.757812 "/>
<path style=" stroke:none;fill-rule:evenodd;fill:rgb(100%,100%,100%);fill-opacity:1;" d="M 8.695312 11.636719 C 8.695312 11.710938 8.789062 11.769531 8.902344 11.769531 C 9.015625 11.769531 9.109375 11.710938 9.109375 11.636719 C 9.109375 11.5625 9.015625 11.5 8.902344 11.5 C 8.789062 11.5 8.695312 11.5625 8.695312 11.636719 Z M 8.695312 11.636719 "/>
<path style=" stroke:none;fill-rule:evenodd;fill:rgb(0%,0%,0%);fill-opacity:1;" d="M 6.457031 15.683594 C 7.886719 17.242188 10.261719 18.132812 12.847656 17.875 C 15.125 17.644531 17.070312 16.570312 18.25 15.078125 C 16.757812 15.902344 14.992188 16.46875 13.066406 16.660156 C 10.640625 16.90625 8.34375 16.523438 6.457031 15.683594 Z M 6.457031 15.683594 "/>
<path style=" stroke:none;fill-rule:nonzero;fill:rgb(100%,83.529412%,83.529412%);fill-opacity:1;" d="M 8.910156 18.070312 L 8.625 17.171875 L 8.273438 16.292969 L 9.199219 16.496094 L 10.132812 16.628906 L 9.496094 17.328125 Z M 8.910156 18.070312 "/>
<path style=" stroke:none;fill-rule:nonzero;fill:rgb(100%,83.529412%,83.529412%);fill-opacity:1;" d="M 14.367188 16.445312 L 15.058594 17.089844 L 15.699219 17.785156 L 15.910156 16.863281 L 16.195312 15.960938 L 15.289062 16.238281 Z M 14.367188 16.445312 "/>
</g>
</svg>
