
<svg xmlns="http://www.w3.org/2000/svg" xmlns:xlink="http://www.w3.org/1999/xlink" width="24px" height="24px" viewBox="0 0 24 24" version="1.1">
<g id="surface1">
<path style="fill-rule:nonzero;fill:rgb(0%,26.666667%,66.666667%);fill-opacity:1;stroke-width:27.7826;stroke-linecap:butt;stroke-linejoin:miter;stroke:rgb(29.019608%,68.235294%,90.980392%);stroke-opacity:1;stroke-miterlimit:4;" d="M 84 28.416667 L 428 28.416667 C 458.666667 28.416667 483.583333 53.333333 483.583333 84 L 483.583333 428 C 483.583333 458.666667 458.666667 483.583333 428 483.583333 L 84 483.583333 C 53.333333 483.583333 28.416667 458.666667 28.416667 428 L 28.416667 84 C 28.416667 53.333333 53.333333 28.416667 84 28.416667 Z M 84 28.416667 " transform="matrix(0.046875,0,0,0.046875,0,0)"/>
<path style=" stroke:none;fill-rule:nonzero;fill:rgb(24.313725%,80.392157%,96.470588%);fill-opacity:1;" d="M 16.152344 4.800781 C 16.152344 4.582031 16.074219 4.398438 15.921875 4.242188 C 15.769531 4.089844 15.582031 4.011719 15.367188 4.011719 L 4.523438 4.011719 C 4.308594 4.011719 4.121094 4.089844 3.96875 4.242188 C 3.8125 4.398438 3.738281 4.582031 3.738281 4.800781 L 3.738281 14.203125 C 3.738281 14.421875 3.8125 14.609375 3.96875 14.761719 C 4.121094 14.914062 4.308594 14.992188 4.523438 14.992188 L 5.378906 14.992188 L 5.378906 17.199219 C 5.378906 17.375 5.441406 17.523438 5.566406 17.648438 C 5.6875 17.769531 5.839844 17.832031 6.011719 17.832031 C 6.1875 17.832031 6.335938 17.769531 6.460938 17.648438 L 9.117188 14.992188 L 9.949219 14.992188 L 9.949219 9.058594 C 9.949219 8.839844 10.027344 8.652344 10.179688 8.5 C 10.332031 8.347656 10.519531 8.269531 10.738281 8.269531 L 16.152344 8.269531 Z M 16.152344 4.800781 "/>
<path style=" stroke:none;fill-rule:nonzero;fill:rgb(100%,100%,100%);fill-opacity:1;" d="M 20.261719 9.058594 C 20.261719 8.839844 20.1875 8.652344 20.03125 8.5 C 19.878906 8.347656 19.691406 8.269531 19.476562 8.269531 L 10.738281 8.269531 C 10.519531 8.269531 10.332031 8.347656 10.179688 8.5 C 10.027344 8.652344 9.949219 8.839844 9.949219 9.058594 L 9.949219 16.359375 C 9.949219 16.578125 10.027344 16.765625 10.179688 16.917969 C 10.332031 17.070312 10.519531 17.148438 10.738281 17.148438 L 14.882812 17.148438 L 17.539062 19.804688 C 17.664062 19.925781 17.8125 19.988281 17.988281 19.988281 C 18.160156 19.988281 18.3125 19.925781 18.433594 19.804688 C 18.558594 19.679688 18.621094 19.53125 18.621094 19.355469 L 18.621094 17.148438 L 19.476562 17.148438 C 19.691406 17.148438 19.878906 17.070312 20.03125 16.917969 C 20.1875 16.765625 20.261719 16.578125 20.261719 16.359375 Z M 12.542969 13.492188 C 12.289062 13.492188 12.078125 13.402344 11.898438 13.222656 C 11.722656 13.046875 11.636719 12.832031 11.636719 12.582031 C 11.636719 12.332031 11.722656 12.117188 11.898438 11.941406 C 12.078125 11.765625 12.289062 11.675781 12.542969 11.675781 C 12.792969 11.675781 13.003906 11.765625 13.183594 11.941406 C 13.359375 12.117188 13.449219 12.332031 13.449219 12.582031 C 13.449219 12.832031 13.359375 13.046875 13.183594 13.222656 C 13.003906 13.402344 12.792969 13.492188 12.542969 13.492188 Z M 16.023438 12.582031 C 16.023438 12.832031 15.933594 13.046875 15.753906 13.222656 C 15.578125 13.402344 15.367188 13.492188 15.117188 13.492188 C 14.863281 13.492188 14.652344 13.402344 14.472656 13.222656 C 14.296875 13.046875 14.207031 12.832031 14.207031 12.582031 C 14.207031 12.332031 14.296875 12.117188 14.472656 11.941406 C 14.652344 11.765625 14.863281 11.675781 15.117188 11.675781 C 15.367188 11.675781 15.578125 11.765625 15.753906 11.941406 C 15.933594 12.117188 16.023438 12.332031 16.023438 12.582031 Z M 18.597656 12.582031 C 18.597656 12.832031 18.507812 13.046875 18.328125 13.222656 C 18.152344 13.402344 17.941406 13.492188 17.6875 13.492188 C 17.441406 13.492188 17.226562 13.402344 17.046875 13.222656 C 16.871094 13.046875 16.78125 12.832031 16.78125 12.582031 C 16.78125 12.332031 16.871094 12.117188 17.046875 11.941406 C 17.226562 11.765625 17.441406 11.675781 17.6875 11.675781 C 17.941406 11.675781 18.152344 11.765625 18.328125 11.941406 C 18.507812 12.117188 18.597656 12.332031 18.597656 12.582031 Z M 18.597656 12.582031 "/>
<path style=" stroke:none;fill-rule:nonzero;fill:rgb(84.313725%,84.313725%,84.313725%);fill-opacity:1;" d="M 12.542969 11.675781 C 12.289062 11.675781 12.078125 11.765625 11.898438 11.941406 C 11.722656 12.117188 11.636719 12.332031 11.636719 12.582031 C 11.636719 12.832031 11.722656 13.046875 11.898438 13.222656 C 12.078125 13.402344 12.289062 13.488281 12.542969 13.488281 C 12.792969 13.488281 13.003906 13.402344 13.183594 13.222656 C 13.359375 13.046875 13.449219 12.832031 13.449219 12.582031 C 13.449219 12.332031 13.359375 12.117188 13.183594 11.941406 C 13.003906 11.765625 12.792969 11.675781 12.542969 11.675781 Z M 15.117188 11.675781 C 14.863281 11.675781 14.652344 11.765625 14.472656 11.941406 C 14.296875 12.117188 14.207031 12.332031 14.207031 12.582031 C 14.207031 12.832031 14.296875 13.046875 14.472656 13.222656 C 14.652344 13.402344 14.863281 13.488281 15.117188 13.488281 C 15.367188 13.488281 15.578125 13.402344 15.753906 13.222656 C 15.933594 13.046875 16.023438 12.832031 16.023438 12.582031 C 16.023438 12.332031 15.933594 12.117188 15.753906 11.941406 C 15.578125 11.765625 15.367188 11.675781 15.117188 11.675781 Z M 17.6875 11.675781 C 17.441406 11.675781 17.226562 11.765625 17.046875 11.941406 C 16.871094 12.117188 16.78125 12.332031 16.78125 12.582031 C 16.78125 12.832031 16.871094 13.046875 17.046875 13.222656 C 17.226562 13.402344 17.441406 13.488281 17.6875 13.488281 C 17.941406 13.488281 18.152344 13.402344 18.328125 13.222656 C 18.507812 13.046875 18.597656 12.832031 18.597656 12.582031 C 18.597656 12.332031 18.507812 12.117188 18.328125 11.941406 C 18.152344 11.765625 17.941406 11.675781 17.6875 11.675781 Z M 17.6875 11.675781 "/>
</g>
</svg>
