
<svg xmlns="http://www.w3.org/2000/svg" xmlns:xlink="http://www.w3.org/1999/xlink" width="24px" height="24px" viewBox="0 0 24 24" version="1.1">
<g id="surface1">
<path style="fill-rule:nonzero;fill:rgb(100%,100%,100%);fill-opacity:1;stroke-width:2.623514;stroke-linecap:butt;stroke-linejoin:miter;stroke:rgb(30.196078%,30.196078%,30.196078%);stroke-opacity:1;stroke-miterlimit:4;" d="M 8.570312 2.515625 L 41.054686 2.515625 C 43.953124 2.515625 46.304686 4.859375 46.304686 7.757812 L 46.304686 40.242186 C 46.304686 43.140624 43.953124 45.484374 41.054686 45.484374 L 8.570312 45.484374 C 5.671875 45.484374 3.328125 43.140624 3.328125 40.242186 L 3.328125 7.757812 C 3.328125 4.859375 5.671875 2.515625 8.570312 2.515625 Z M 8.570312 2.515625 " transform="matrix(0.5,0,0,0.5,0,0)"/>
<path style=" stroke:none;fill-rule:nonzero;fill:rgb(0%,80%,100%);fill-opacity:1;" d="M 2.257812 20.609375 L 2.257812 3.421875 C 2.257812 2.425781 3.050781 1.613281 4.023438 1.613281 L 20.789062 1.613281 C 21.765625 1.613281 22.554688 2.425781 22.554688 3.421875 L 22.554688 20.609375 C 22.554688 21.609375 21.765625 22.417969 20.789062 22.417969 L 4.023438 22.417969 C 3.050781 22.417969 2.257812 21.609375 2.257812 20.609375 Z M 2.257812 20.609375 "/>
<path style=" stroke:none;fill-rule:nonzero;fill:rgb(92.54902%,49.803922%,26.27451%);fill-opacity:1;" d="M 20.527344 7.195312 C 20.554688 7.242188 20.574219 7.289062 20.597656 7.332031 C 20.597656 7.34375 20.601562 7.351562 20.597656 7.359375 C 20.59375 7.351562 20.582031 7.339844 20.582031 7.332031 C 20.5625 7.285156 20.550781 7.242188 20.527344 7.195312 M 20.527344 7.195312 "/>
<path style=" stroke:none;fill-rule:nonzero;fill:rgb(30.196078%,30.196078%,30.196078%);fill-opacity:1;" d="M 15.414062 3.78125 C 16.066406 3.910156 16.628906 4.0625 17.078125 4.265625 C 17.773438 4.570312 18.222656 4.96875 18.433594 5.433594 C 17.789062 5.316406 17.222656 5.351562 16.710938 5.550781 C 20.390625 6.988281 22.125 8.699219 21.921875 10.675781 C 21.65625 10.261719 21.296875 9.992188 20.839844 9.855469 C 21.402344 12.023438 21.464844 13.804688 21.011719 15.21875 C 20.699219 14.273438 20.398438 13.722656 20.144531 13.523438 C 20.5 16.429688 20.007812 18.578125 18.691406 19.976562 C 18.941406 19.125 19.046875 18.425781 18.988281 17.875 C 17.4375 20.175781 15.679688 21.347656 13.703125 21.421875 C 12.921875 21.414062 12.175781 21.3125 11.480469 21.085938 C 10.460938 20.75 9.535156 20.167969 8.71875 19.347656 C 9.996094 19.453125 11.164062 19.222656 12.191406 18.707031 L 13.886719 17.640625 C 14.101562 17.484375 14.300781 17.5 14.5 17.597656 C 14.914062 17.539062 15.03125 17.410156 14.914062 17.027344 C 14.652344 16.800781 14.417969 16.5 14.03125 16.28125 C 13.1875 15.847656 12.308594 15.824219 11.394531 16.488281 C 10.519531 16.976562 9.679688 16.949219 8.859375 16.429688 C 8.320312 16.0625 7.792969 15.566406 7.292969 14.953125 L 7.105469 14.675781 L 7.105469 14.660156 C 7.132812 14.054688 7.375 13.726562 7.863281 13.652344 C 8.414062 13.703125 9.046875 13.832031 9.757812 14.035156 C 9.875 13.359375 9.71875 12.65625 9.285156 11.929688 L 9.300781 11.84375 C 9.96875 11.230469 10.519531 10.859375 11.023438 10.574219 C 11.207031 10.328125 11.289062 10.25 11.421875 10.03125 C 11.394531 9.96875 11.457031 9.925781 11.496094 9.960938 C 11.535156 9.773438 11.535156 9.804688 11.367188 9.566406 C 10.875 9.683594 10.316406 9.53125 9.941406 9.433594 C 9.75 9.378906 9.488281 9.265625 9.1875 8.980469 L 8.417969 8.234375 L 8.21875 7.972656 L 8.234375 7.886719 C 8.316406 7.300781 8.601562 6.828125 8.832031 6.382812 C 9.082031 5.972656 9.558594 5.523438 10.269531 5.054688 C 8.953125 5.214844 7.765625 5.800781 6.707031 6.804688 C 5.832031 6.488281 4.785156 6.558594 3.589844 7.007812 C 2.84375 6.664062 2.890625 6.199219 2.648438 4.613281 C 2.394531 4.894531 2.148438 5.167969 1.921875 5.460938 L 1.921875 20.855469 C 1.921875 21.890625 2.734375 22.722656 3.746094 22.722656 L 21.070312 22.722656 C 22.078125 22.722656 22.890625 21.890625 22.890625 20.855469 L 22.890625 6.964844 C 22.125 5.757812 20.894531 4.800781 19.300781 4.324219 C 18.210938 4 16.90625 3.824219 15.414062 3.78125 Z M 15.414062 3.78125 "/>
<path style=" stroke:none;fill-rule:nonzero;fill:rgb(0%,0%,0%);fill-opacity:0.101961;" d="M 22.769531 8.589844 C 22.800781 8.648438 22.828125 8.707031 22.859375 8.765625 C 22.855469 8.777344 22.859375 8.789062 22.859375 8.796875 C 22.851562 8.789062 22.839844 8.773438 22.839844 8.765625 C 22.8125 8.707031 22.796875 8.648438 22.769531 8.589844 Z M 22.769531 8.589844 "/>
<path style=" stroke:none;fill-rule:nonzero;fill:rgb(92.941176%,49.803922%,26.27451%);fill-opacity:1;" d="M 22.769531 8.113281 C 22.800781 8.171875 22.828125 8.230469 22.859375 8.289062 C 22.855469 8.300781 22.863281 8.3125 22.859375 8.320312 C 22.851562 8.3125 22.839844 8.296875 22.839844 8.289062 C 22.8125 8.230469 22.796875 8.171875 22.769531 8.113281 Z M 22.769531 8.113281 "/>
<path style=" stroke:none;fill-rule:nonzero;fill:rgb(0%,0%,0%);fill-opacity:0.0196078;" d="M 1.445312 20.816406 L 1.445312 20.9375 C 1.445312 21.992188 2.296875 22.84375 3.351562 22.84375 L 21.460938 22.84375 C 22.519531 22.84375 23.367188 21.992188 23.367188 20.9375 L 23.367188 20.816406 C 23.367188 21.871094 22.519531 22.722656 21.460938 22.722656 L 3.351562 22.722656 C 2.296875 22.722656 1.445312 21.871094 1.445312 20.816406 Z M 1.445312 21.054688 L 1.445312 21.292969 C 1.445312 22.347656 2.296875 23.199219 3.351562 23.199219 L 21.460938 23.199219 C 22.519531 23.199219 23.367188 22.347656 23.367188 21.292969 L 23.367188 21.054688 C 23.367188 22.109375 22.519531 22.960938 21.460938 22.960938 L 3.351562 22.960938 C 2.296875 22.960938 1.445312 22.109375 1.445312 21.054688 Z M 1.445312 21.054688 "/>
<path style=" stroke:none;fill-rule:nonzero;fill:rgb(0%,0%,0%);fill-opacity:0.0509804;" d="M 1.445312 20.9375 L 1.445312 21.054688 C 1.445312 22.109375 2.296875 22.960938 3.351562 22.960938 L 21.460938 22.960938 C 22.519531 22.960938 23.367188 22.109375 23.367188 21.054688 L 23.367188 20.9375 C 23.367188 21.992188 22.519531 22.84375 21.460938 22.84375 L 3.351562 22.84375 C 2.296875 22.84375 1.445312 21.992188 1.445312 20.9375 Z M 1.445312 20.9375 "/>
<path style=" stroke:none;fill-rule:nonzero;fill:rgb(0%,0%,0%);fill-opacity:0.101961;" d="M 1.445312 20.816406 L 1.445312 20.9375 C 1.445312 21.992188 2.296875 22.84375 3.351562 22.84375 L 21.460938 22.84375 C 22.519531 22.84375 23.367188 21.992188 23.367188 20.9375 L 23.367188 20.816406 C 23.367188 21.871094 22.519531 22.722656 21.460938 22.722656 L 3.351562 22.722656 C 2.296875 22.722656 1.445312 21.871094 1.445312 20.816406 Z M 1.445312 20.816406 "/>
</g>
</svg>
