
<svg xmlns="http://www.w3.org/2000/svg" xmlns:xlink="http://www.w3.org/1999/xlink" width="24px" height="24px" viewBox="0 0 24 24" version="1.1">
<g id="surface1">
<path style="fill-rule:nonzero;fill:rgb(100%,100%,100%);fill-opacity:1;stroke-width:28.191782;stroke-linecap:butt;stroke-linejoin:miter;stroke:rgb(6.27451%,63.137255%,61.960784%);stroke-opacity:1;stroke-miterlimit:4;" d="M 81.5 25.083333 L 430.5 25.083333 C 461.666667 25.083333 486.916667 50.333333 486.916667 81.5 L 486.916667 430.5 C 486.916667 461.666667 461.666667 486.916667 430.5 486.916667 L 81.5 486.916667 C 50.333333 486.916667 25.083333 461.666667 25.083333 430.5 L 25.083333 81.5 C 25.083333 50.333333 50.333333 25.083333 81.5 25.083333 Z M 81.5 25.083333 " transform="matrix(0.046875,0,0,0.046875,0,0)"/>
<path style=" stroke:none;fill-rule:nonzero;fill:rgb(100%,16.470588%,16.470588%);fill-opacity:1;" d="M 11.84375 5.953125 C 11.84375 6.972656 11.019531 7.796875 10 7.796875 C 8.980469 7.796875 8.152344 6.972656 8.152344 5.953125 C 8.152344 4.933594 8.980469 4.105469 10 4.105469 C 11.019531 4.105469 11.84375 4.933594 11.84375 5.953125 Z M 11.84375 5.953125 "/>
<path style=" stroke:none;fill-rule:nonzero;fill:rgb(0%,50.196078%,0%);fill-opacity:1;" d="M 19.863281 12.953125 C 19.863281 13.972656 19.039062 14.800781 18.019531 14.800781 C 16.996094 14.800781 16.171875 13.972656 16.171875 12.953125 C 16.171875 11.933594 16.996094 11.109375 18.019531 11.109375 C 19.039062 11.109375 19.863281 11.933594 19.863281 12.953125 Z M 19.863281 12.953125 "/>
<path style=" stroke:none;fill-rule:nonzero;fill:rgb(0%,74.117647%,89.803922%);fill-opacity:1;" d="M 19.632812 6 C 19.632812 7.019531 18.808594 7.84375 17.789062 7.84375 C 16.769531 7.84375 15.941406 7.019531 15.941406 6 C 15.941406 4.976562 16.769531 4.152344 17.789062 4.152344 C 18.808594 4.152344 19.632812 4.976562 19.632812 6 Z M 19.632812 6 "/>
<path style=" stroke:none;fill-rule:nonzero;fill:rgb(100%,16.470588%,16.470588%);fill-opacity:1;" d="M 6.585938 4.765625 C 6.585938 5.785156 5.757812 6.613281 4.738281 6.613281 C 3.71875 6.613281 2.894531 5.785156 2.894531 4.765625 C 2.894531 3.746094 3.71875 2.917969 4.738281 2.917969 C 5.757812 2.917969 6.585938 3.746094 6.585938 4.765625 Z M 6.585938 4.765625 "/>
<path style=" stroke:none;fill-rule:nonzero;fill:rgb(0%,50.196078%,0%);fill-opacity:1;" d="M 9.703125 9.996094 C 9.703125 11.015625 8.878906 11.84375 7.859375 11.84375 C 6.835938 11.84375 6.011719 11.015625 6.011719 9.996094 C 6.011719 8.976562 6.835938 8.148438 7.859375 8.148438 C 8.878906 8.148438 9.703125 8.976562 9.703125 9.996094 Z M 9.703125 9.996094 "/>
<path style=" stroke:none;fill-rule:nonzero;fill:rgb(0%,74.117647%,89.803922%);fill-opacity:1;" d="M 15.957031 9.257812 C 15.957031 10.277344 15.128906 11.105469 14.109375 11.105469 C 13.089844 11.105469 12.261719 10.277344 12.261719 9.257812 C 12.261719 8.238281 13.089844 7.414062 14.109375 7.414062 C 15.128906 7.414062 15.957031 8.238281 15.957031 9.257812 Z M 15.957031 9.257812 "/>
<path style=" stroke:none;fill-rule:nonzero;fill:rgb(0%,74.117647%,89.803922%);fill-opacity:1;" d="M 10.738281 14.730469 C 10.738281 15.753906 9.914062 16.578125 8.894531 16.578125 C 7.875 16.578125 7.046875 15.753906 7.046875 14.730469 C 7.046875 13.710938 7.875 12.886719 8.894531 12.886719 C 9.914062 12.886719 10.738281 13.710938 10.738281 14.730469 Z M 10.738281 14.730469 "/>
<path style=" stroke:none;fill-rule:nonzero;fill:rgb(0%,74.117647%,89.803922%);fill-opacity:1;" d="M 6.636719 19.070312 C 6.636719 20.089844 5.808594 20.914062 4.789062 20.914062 C 3.769531 20.914062 2.941406 20.089844 2.941406 19.070312 C 2.941406 18.050781 3.769531 17.222656 4.789062 17.222656 C 5.808594 17.222656 6.636719 18.050781 6.636719 19.070312 Z M 6.636719 19.070312 "/>
<path style=" stroke:none;fill-rule:nonzero;fill:rgb(0%,74.117647%,89.803922%);fill-opacity:1;" d="M 14.792969 17.984375 C 14.792969 19.007812 13.964844 19.832031 12.945312 19.832031 C 11.925781 19.832031 11.097656 19.007812 11.097656 17.984375 C 11.097656 16.964844 11.925781 16.140625 12.945312 16.140625 C 13.964844 16.140625 14.792969 16.964844 14.792969 17.984375 Z M 14.792969 17.984375 "/>
<path style=" stroke:none;fill-rule:nonzero;fill:rgb(100%,16.470588%,16.470588%);fill-opacity:1;" d="M 20.5 18.242188 C 20.5 19.261719 19.671875 20.089844 18.652344 20.089844 C 17.632812 20.089844 16.808594 19.261719 16.808594 18.242188 C 16.808594 17.222656 17.632812 16.398438 18.652344 16.398438 C 19.671875 16.398438 20.5 17.222656 20.5 18.242188 Z M 20.5 18.242188 "/>
</g>
</svg>
