
<svg xmlns="http://www.w3.org/2000/svg" xmlns:xlink="http://www.w3.org/1999/xlink" width="24px" height="24px" viewBox="0 0 24 24" version="1.1">
<g id="surface1">
<path style="fill-rule:nonzero;fill:rgb(100%,100%,100%);fill-opacity:1;stroke-width:2.590806;stroke-linecap:butt;stroke-linejoin:miter;stroke:rgb(52.54902%,62.352941%,79.607843%);stroke-opacity:1;stroke-miterlimit:4;" d="M 7.960937 1007.143419 L 40.039061 1007.143419 C 42.898436 1007.143419 45.218749 1009.463731 45.218749 1012.323106 L 45.218749 1044.40123 C 45.218749 1047.260605 42.898436 1049.580917 40.039061 1049.580917 L 7.960937 1049.580917 C 5.101562 1049.580917 2.78125 1047.260605 2.78125 1044.40123 L 2.78125 1012.323106 C 2.78125 1009.463731 5.101562 1007.143419 7.960937 1007.143419 Z M 7.960937 1007.143419 " transform="matrix(0.5,0,0,0.5,0,-502.1811)"/>
<path style=" stroke:none;fill-rule:nonzero;fill:rgb(100%,80.784314%,48.235294%);fill-opacity:1;" d="M 12 2.371094 C 6.683594 2.371094 2.371094 6.683594 2.371094 12 C 2.371094 17.316406 6.683594 21.628906 12 21.628906 C 17.316406 21.628906 21.628906 17.316406 21.628906 12 C 21.628906 6.683594 17.316406 2.371094 12 2.371094 Z M 12 2.371094 "/>
<path style=" stroke:none;fill-rule:nonzero;fill:rgb(100%,62.352941%,18.823529%);fill-opacity:1;" d="M 20.976562 13.445312 C 20.976562 15.902344 18.984375 17.898438 16.523438 17.898438 C 14.066406 17.898438 12.070312 15.902344 12.070312 13.445312 C 12.070312 10.984375 14.066406 8.992188 16.523438 8.992188 C 18.984375 8.992188 20.976562 10.984375 20.976562 13.445312 Z M 20.976562 13.445312 "/>
<path style=" stroke:none;fill-rule:nonzero;fill:rgb(52.54902%,62.352941%,79.607843%);fill-opacity:1;" d="M 8.75 10.058594 C 6.132812 10.058594 4.035156 11.140625 2.394531 12.59375 C 2.707031 17.667969 6.914062 21.625 12 21.628906 C 15.722656 21.621094 19.109375 19.472656 20.695312 16.105469 C 15.878906 11.667969 11.929688 10.058594 8.75 10.058594 Z M 8.75 10.058594 "/>
</g>
</svg>
