
<svg xmlns="http://www.w3.org/2000/svg" xmlns:xlink="http://www.w3.org/1999/xlink" width="24px" height="24px" viewBox="0 0 24 24" version="1.1">
<g id="surface1">
<path style=" stroke:none;fill-rule:nonzero;fill:rgb(80%,80%,80%);fill-opacity:1;" d="M 14.492188 2.144531 C 13.441406 2.144531 12.574219 3.109375 12.402344 4.382812 L 20.726562 4.382812 C 20.554688 3.109375 19.6875 2.144531 18.636719 2.144531 Z M 14.492188 2.144531 "/>
<path style=" stroke:none;fill-rule:nonzero;fill:rgb(14.509804%,68.235294%,87.45098%);fill-opacity:1;" d="M 3.207031 4.742188 L 20.792969 4.742188 C 22.1875 4.742188 23.3125 5.871094 23.3125 7.261719 L 23.3125 16.101562 C 23.3125 17.492188 22.1875 18.617188 20.792969 18.617188 L 3.207031 18.617188 C 1.8125 18.617188 0.6875 17.492188 0.6875 16.101562 L 0.6875 7.261719 C 0.6875 5.871094 1.8125 4.742188 3.207031 4.742188 Z M 3.207031 4.742188 "/>
<path style=" stroke:none;fill-rule:nonzero;fill:rgb(14.509804%,68.235294%,87.45098%);fill-opacity:1;" d="M 3.207031 7.980469 L 20.792969 7.980469 C 22.1875 7.980469 23.3125 9.109375 23.3125 10.5 L 23.3125 19.339844 C 23.3125 20.730469 22.1875 21.855469 20.792969 21.855469 L 3.207031 21.855469 C 1.8125 21.855469 0.6875 20.730469 0.6875 19.339844 L 0.6875 10.5 C 0.6875 9.109375 1.8125 7.980469 3.207031 7.980469 Z M 3.207031 7.980469 "/>
<path style="fill-rule:nonzero;fill:rgb(100%,100%,100%);fill-opacity:1;stroke-width:11.742473;stroke-linecap:butt;stroke-linejoin:miter;stroke:rgb(100%,100%,100%);stroke-opacity:1;stroke-miterlimit:4;" d="M 189.333333 191.583333 L 189.333333 206.5 L 286.833333 206.5 L 330.083333 259.333333 L 330.083333 363.166667 L 316.583333 363.166667 L 316.583333 376 L 342.916667 376 L 342.333333 256.25 L 342.333333 253.166667 L 291.916667 191.583333 Z M 189.5 216.25 L 189.5 246.083333 L 201.75 246.083333 L 201.75 216.25 Z M 189.5 275.916667 L 189.5 305.75 L 201.75 305.75 L 201.75 275.916667 Z M 189.5 338.166667 L 189.5 363.166667 L 169.083333 363.166667 L 169.083333 376 L 189.5 376 L 189.5 398.5 L 201.75 398.5 L 201.75 376 L 222.166667 376 L 222.166667 363.166667 L 201.75 363.166667 L 201.75 338.166667 Z M 248.75 363.166667 L 248.75 376 L 283.833333 376 L 283.833333 363.166667 Z M 248.75 363.166667 " transform="matrix(0.046875,0,0,0.046875,0,0)"/>
</g>
</svg>
