
<svg xmlns="http://www.w3.org/2000/svg" xmlns:xlink="http://www.w3.org/1999/xlink" width="24px" height="24px" viewBox="0 0 24 24" version="1.1">
<g id="surface1">
<path style=" stroke:none;fill-rule:evenodd;fill:rgb(73.72549%,71.764706%,69.803922%);fill-opacity:1;" d="M 3.070312 1.417969 L 20.980469 1.417969 C 21.972656 1.417969 22.78125 2.222656 22.78125 3.21875 L 22.78125 20.929688 C 22.78125 21.921875 21.972656 22.730469 20.980469 22.730469 L 3.070312 22.730469 C 2.078125 22.730469 1.269531 21.921875 1.269531 20.929688 L 1.269531 3.21875 C 1.269531 2.222656 2.078125 1.417969 3.070312 1.417969 Z M 3.070312 1.417969 "/>
<path style=" stroke:none;fill-rule:evenodd;fill:rgb(29.411765%,27.45098%,25.490196%);fill-opacity:1;" d="M 2.117188 12.691406 L 21.929688 12.691406 C 22.398438 12.691406 22.78125 13.070312 22.78125 13.539062 L 22.78125 21.878906 C 22.78125 22.347656 22.398438 22.726562 21.929688 22.726562 L 2.117188 22.726562 C 1.648438 22.726562 1.269531 22.347656 1.269531 21.878906 L 1.269531 13.539062 C 1.269531 13.070312 1.648438 12.691406 2.117188 12.691406 Z M 2.117188 12.691406 "/>
<path style=" stroke:none;fill-rule:evenodd;fill:rgb(29.411765%,27.45098%,25.490196%);fill-opacity:1;" d="M 1.269531 12.648438 L 22.78125 12.648438 L 22.78125 16.636719 L 1.269531 16.636719 Z M 1.269531 12.648438 "/>
<path style=" stroke:none;fill-rule:evenodd;fill:rgb(20.392157%,20.392157%,20.392157%);fill-opacity:1;" d="M 14.960938 1.417969 L 20.347656 1.417969 L 20.347656 22.726562 L 14.960938 22.726562 Z M 14.960938 1.417969 "/>
<path style=" stroke:none;fill-rule:nonzero;fill:rgb(10.196078%,10.196078%,10.196078%);fill-opacity:1;" d="M 2.992188 9.351562 L 21.085938 9.351562 L 21.085938 15.425781 L 2.992188 15.425781 Z M 2.992188 9.351562 "/>
<path style=" stroke:none;fill-rule:nonzero;fill:rgb(50.196078%,50.196078%,50.196078%);fill-opacity:1;" d="M 8.902344 9.136719 L 13.667969 9.136719 C 13.835938 9.136719 13.96875 9.269531 13.96875 9.4375 L 13.96875 9.765625 C 13.96875 9.933594 13.835938 10.070312 13.667969 10.070312 L 8.902344 10.070312 C 8.734375 10.070312 8.601562 9.933594 8.601562 9.765625 L 8.601562 9.4375 C 8.601562 9.269531 8.734375 9.136719 8.902344 9.136719 Z M 8.902344 9.136719 "/>
<path style=" stroke:none;fill-rule:nonzero;fill:rgb(50.196078%,50.196078%,50.196078%);fill-opacity:1;" d="M 8.902344 14.828125 L 13.667969 14.828125 C 13.835938 14.828125 13.96875 14.960938 13.96875 15.128906 L 13.96875 15.457031 C 13.96875 15.625 13.835938 15.757812 13.667969 15.757812 L 8.902344 15.757812 C 8.734375 15.757812 8.601562 15.625 8.601562 15.457031 L 8.601562 15.128906 C 8.601562 14.960938 8.734375 14.828125 8.902344 14.828125 Z M 8.902344 14.828125 "/>
<path style=" stroke:none;fill-rule:nonzero;fill:rgb(86.27451%,86.27451%,86.27451%);fill-opacity:1;" d="M 2.75 8.046875 C 2.609375 8.046875 2.496094 8.160156 2.496094 8.300781 L 2.496094 15.628906 C 2.496094 15.765625 2.609375 15.878906 2.75 15.878906 L 21.28125 15.878906 C 21.421875 15.878906 21.527344 15.765625 21.527344 15.628906 L 21.527344 8.300781 C 21.527344 8.160156 21.421875 8.046875 21.28125 8.046875 Z M 2.992188 9.351562 L 21.089844 9.351562 L 21.089844 15.421875 L 2.992188 15.421875 Z M 2.992188 9.351562 "/>
<path style="fill-rule:nonzero;fill:rgb(0%,0%,0%);fill-opacity:1;stroke-width:1.932277;stroke-linecap:round;stroke-linejoin:miter;stroke:rgb(100%,100%,100%);stroke-opacity:1;stroke-miterlimit:4;" d="M 87.519631 361.986446 C 84.881522 361.986446 82.871535 364.247682 82.871535 366.88579 L 82.871535 400.678707 L 49.078618 400.678707 C 46.440509 400.678707 44.179273 402.814319 44.179273 405.578052 L 44.179273 432.712885 C 44.179273 435.350994 46.440509 437.61223 49.078618 437.61223 L 82.871535 437.61223 L 82.871535 471.405147 C 82.871535 474.043256 84.881522 476.053244 87.519631 476.053244 L 114.905712 476.053244 C 117.543821 476.053244 119.553809 474.043256 119.553809 471.405147 L 119.553809 437.61223 L 153.346726 437.61223 C 155.984835 437.61223 158.246071 435.350994 158.246071 432.712885 L 158.246071 405.578052 C 158.246071 402.814319 155.984835 400.678707 153.346726 400.678707 L 119.553809 400.678707 L 119.553809 366.88579 C 119.553809 364.247682 117.543821 361.986446 114.905712 361.986446 Z M 87.519631 361.986446 " transform="matrix(0.0310947,0,0,0.0310947,2.497352,-0.349617)"/>
<path style=" stroke:none;fill-rule:nonzero;fill:rgb(10.196078%,10.196078%,10.196078%);fill-opacity:1;" d="M 5.25 11.039062 C 5.222656 11.039062 5.203125 11.058594 5.203125 11.085938 L 5.203125 12.230469 L 4.058594 12.230469 C 4.03125 12.230469 4.011719 12.25 4.011719 12.277344 L 4.011719 13.085938 C 4.011719 13.109375 4.03125 13.132812 4.058594 13.132812 L 5.203125 13.132812 L 5.203125 14.277344 C 5.203125 14.304688 5.222656 14.324219 5.25 14.324219 L 6.058594 14.324219 C 6.085938 14.324219 6.105469 14.304688 6.105469 14.277344 L 6.105469 13.132812 L 7.25 13.132812 C 7.277344 13.132812 7.296875 13.109375 7.296875 13.085938 L 7.296875 12.277344 C 7.296875 12.25 7.277344 12.230469 7.25 12.230469 L 6.105469 12.230469 L 6.105469 11.085938 C 6.105469 11.058594 6.085938 11.039062 6.058594 11.039062 Z M 5.25 11.039062 "/>
<path style=" stroke:none;fill-rule:nonzero;fill:rgb(50.196078%,50.196078%,50.196078%);fill-opacity:1;" d="M 8.902344 10.335938 L 13.667969 10.335938 C 13.835938 10.335938 13.96875 10.472656 13.96875 10.636719 L 13.96875 10.96875 C 13.96875 11.132812 13.835938 11.269531 13.667969 11.269531 L 8.902344 11.269531 C 8.734375 11.269531 8.601562 11.132812 8.601562 10.96875 L 8.601562 10.636719 C 8.601562 10.472656 8.734375 10.335938 8.902344 10.335938 Z M 8.902344 10.335938 "/>
<path style=" stroke:none;fill-rule:nonzero;fill:rgb(86.666667%,86.666667%,86.666667%);fill-opacity:1;" d="M 14.941406 12.515625 L 16.800781 12.515625 C 16.882812 12.515625 16.949219 12.582031 16.949219 12.664062 L 16.949219 14.523438 C 16.949219 14.601562 16.882812 14.667969 16.800781 14.667969 L 14.941406 14.667969 C 14.859375 14.667969 14.792969 14.601562 14.792969 14.523438 L 14.792969 12.664062 C 14.792969 12.582031 14.859375 12.515625 14.941406 12.515625 Z M 14.941406 12.515625 "/>
<path style=" stroke:none;fill-rule:nonzero;fill:rgb(100%,0%,0%);fill-opacity:1;" d="M 16.753906 13.601562 C 16.753906 14.089844 16.359375 14.484375 15.871094 14.484375 C 15.382812 14.484375 14.988281 14.089844 14.988281 13.601562 C 14.988281 13.113281 15.382812 12.71875 15.871094 12.71875 C 16.359375 12.71875 16.753906 13.113281 16.753906 13.601562 Z M 16.753906 13.601562 "/>
<path style=" stroke:none;fill-rule:nonzero;fill:rgb(86.666667%,86.666667%,86.666667%);fill-opacity:1;" d="M 17.390625 12.515625 L 19.246094 12.515625 C 19.328125 12.515625 19.394531 12.582031 19.394531 12.664062 L 19.394531 14.523438 C 19.394531 14.601562 19.328125 14.667969 19.246094 14.667969 L 17.390625 14.667969 C 17.308594 14.667969 17.242188 14.601562 17.242188 14.523438 L 17.242188 12.664062 C 17.242188 12.582031 17.308594 12.515625 17.390625 12.515625 Z M 17.390625 12.515625 "/>
<path style=" stroke:none;fill-rule:nonzero;fill:rgb(100%,0%,0%);fill-opacity:1;" d="M 19.203125 13.601562 C 19.203125 14.089844 18.808594 14.484375 18.320312 14.484375 C 17.832031 14.484375 17.4375 14.089844 17.4375 13.601562 C 17.4375 13.113281 17.832031 12.71875 18.320312 12.71875 C 18.808594 12.71875 19.203125 13.113281 19.203125 13.601562 Z M 19.203125 13.601562 "/>
<path style=" stroke:none;fill-rule:nonzero;fill:rgb(50.196078%,50.196078%,50.196078%);fill-opacity:1;" d="M 8.902344 11.539062 L 13.667969 11.539062 C 13.835938 11.539062 13.96875 11.671875 13.96875 11.839844 L 13.96875 12.167969 C 13.96875 12.335938 13.835938 12.472656 13.667969 12.472656 L 8.902344 12.472656 C 8.734375 12.472656 8.601562 12.335938 8.601562 12.167969 L 8.601562 11.839844 C 8.601562 11.671875 8.734375 11.539062 8.902344 11.539062 Z M 8.902344 11.539062 "/>
<path style=" stroke:none;fill-rule:nonzero;fill:rgb(86.666667%,86.666667%,86.666667%);fill-opacity:1;" d="M 8.9375 12.722656 L 13.632812 12.722656 C 13.820312 12.722656 13.96875 12.875 13.96875 13.0625 L 13.96875 14.160156 C 13.96875 14.34375 13.820312 14.496094 13.632812 14.496094 L 8.9375 14.496094 C 8.75 14.496094 8.601562 14.34375 8.601562 14.160156 L 8.601562 13.0625 C 8.601562 12.875 8.75 12.722656 8.9375 12.722656 Z M 8.9375 12.722656 "/>
<path style="fill:none;stroke-width:1.705521;stroke-linecap:round;stroke-linejoin:miter;stroke:rgb(50.196078%,50.196078%,50.196078%);stroke-opacity:1;stroke-miterlimit:4;" d="M 212.138864 425.929177 L 353.089246 425.929177 C 357.988591 425.929177 361.882942 429.823528 361.882942 434.722873 L 361.882942 463.742069 C 361.882942 468.641414 357.988591 472.535765 353.089246 472.535765 L 212.138864 472.535765 C 207.239519 472.535765 203.345168 468.641414 203.345168 463.742069 L 203.345168 434.722873 C 203.345168 429.823528 207.239519 425.929177 212.138864 425.929177 Z M 212.138864 425.929177 " transform="matrix(0.0310947,0,0,0.0310947,2.497352,-0.349617)"/>
<path style=" stroke:none;fill-rule:nonzero;fill:rgb(0%,0%,0%);fill-opacity:1;" d="M 9.515625 13.34375 L 10.429688 13.34375 C 10.59375 13.34375 10.726562 13.476562 10.726562 13.640625 C 10.726562 13.804688 10.59375 13.9375 10.429688 13.9375 L 9.515625 13.9375 C 9.351562 13.9375 9.21875 13.804688 9.21875 13.640625 C 9.21875 13.476562 9.351562 13.34375 9.515625 13.34375 Z M 9.515625 13.34375 "/>
<path style=" stroke:none;fill-rule:nonzero;fill:rgb(0%,0%,0%);fill-opacity:1;" d="M 12.125 13.34375 L 13.039062 13.34375 C 13.203125 13.34375 13.339844 13.476562 13.339844 13.640625 C 13.339844 13.804688 13.203125 13.9375 13.039062 13.9375 L 12.125 13.9375 C 11.960938 13.9375 11.828125 13.804688 11.828125 13.640625 C 11.828125 13.476562 11.960938 13.34375 12.125 13.34375 Z M 12.125 13.34375 "/>
<path style=" stroke:none;fill-rule:nonzero;fill:rgb(99.607843%,0%,8.627451%);fill-opacity:1;" d="M 15.855469 10.4375 L 15.855469 10.925781 L 15.699219 10.925781 L 15.5 10.59375 C 15.488281 10.574219 15.488281 10.59375 15.488281 10.59375 L 15.488281 10.925781 L 15.328125 10.925781 L 15.328125 10.4375 L 15.488281 10.4375 C 15.488281 10.4375 15.679688 10.75 15.6875 10.765625 C 15.699219 10.78125 15.699219 10.765625 15.699219 10.765625 L 15.699219 10.4375 L 15.855469 10.4375 "/>
<path style=" stroke:none;fill-rule:nonzero;fill:rgb(99.607843%,0%,8.627451%);fill-opacity:1;" d="M 15.933594 10.527344 L 16.082031 10.527344 L 16.082031 10.4375 L 15.933594 10.4375 Z M 15.933594 10.527344 "/>
<path style=" stroke:none;fill-rule:nonzero;fill:rgb(99.607843%,0%,8.627451%);fill-opacity:1;" d="M 16.855469 10.507812 L 16.855469 10.5625 L 16.921875 10.5625 L 16.921875 10.59375 L 16.855469 10.59375 L 16.855469 10.925781 L 16.703125 10.925781 L 16.703125 10.59375 L 16.636719 10.59375 L 16.636719 10.5625 L 16.703125 10.5625 L 16.703125 10.507812 L 16.855469 10.507812 "/>
<path style=" stroke:none;fill-rule:nonzero;fill:rgb(99.607843%,0%,8.627451%);fill-opacity:1;" d="M 16.566406 10.609375 C 16.601562 10.640625 16.617188 10.695312 16.617188 10.695312 L 16.617188 10.925781 L 16.464844 10.925781 L 16.464844 10.699219 C 16.464844 10.699219 16.453125 10.644531 16.390625 10.648438 C 16.332031 10.648438 16.320312 10.695312 16.320312 10.695312 L 16.320312 10.925781 L 16.171875 10.925781 L 16.171875 10.59375 L 16.320312 10.59375 C 16.335938 10.621094 16.371094 10.589844 16.402344 10.582031 C 16.460938 10.566406 16.523438 10.582031 16.566406 10.609375 "/>
<path style=" stroke:none;fill-rule:nonzero;fill:rgb(99.607843%,0%,8.627451%);fill-opacity:1;" d="M 15.933594 10.925781 L 16.082031 10.925781 L 16.082031 10.59375 L 15.933594 10.59375 Z M 15.933594 10.925781 "/>
<path style=" stroke:none;fill-rule:nonzero;fill:rgb(99.607843%,0%,8.627451%);fill-opacity:1;" d="M 17.207031 10.871094 C 17.207031 10.871094 17.195312 10.917969 17.144531 10.917969 C 17.097656 10.917969 17.085938 10.863281 17.085938 10.863281 L 17.089844 10.765625 L 17.367188 10.765625 C 17.367188 10.671875 17.328125 10.636719 17.296875 10.613281 C 17.203125 10.5625 17.070312 10.5625 16.976562 10.636719 C 16.945312 10.664062 16.925781 10.710938 16.925781 10.761719 C 16.925781 10.804688 16.945312 10.847656 16.972656 10.875 C 17.035156 10.925781 17.121094 10.949219 17.207031 10.929688 C 17.265625 10.914062 17.339844 10.886719 17.355469 10.820312 L 17.207031 10.820312 Z M 17.09375 10.660156 C 17.09375 10.660156 17.101562 10.617188 17.152344 10.617188 C 17.199219 10.617188 17.207031 10.664062 17.207031 10.664062 L 17.207031 10.710938 L 17.09375 10.710938 L 17.09375 10.660156 "/>
<path style=" stroke:none;fill-rule:nonzero;fill:rgb(99.607843%,0%,8.627451%);fill-opacity:1;" d="M 18.195312 10.4375 L 18.195312 10.605469 C 18.148438 10.578125 18.0625 10.5625 18.011719 10.597656 C 17.945312 10.628906 17.921875 10.703125 17.917969 10.769531 C 17.921875 10.820312 17.953125 10.875 17.996094 10.90625 C 18.050781 10.9375 18.121094 10.945312 18.183594 10.917969 C 18.1875 10.917969 18.195312 10.914062 18.199219 10.910156 C 18.203125 10.914062 18.210938 10.917969 18.21875 10.917969 C 18.261719 10.933594 18.335938 10.925781 18.335938 10.925781 L 18.335938 10.4375 Z M 18.195312 10.867188 C 18.195312 10.867188 18.183594 10.898438 18.136719 10.898438 C 18.105469 10.898438 18.082031 10.875 18.082031 10.875 L 18.082031 10.65625 C 18.082031 10.65625 18.089844 10.625 18.132812 10.625 C 18.179688 10.625 18.195312 10.65625 18.195312 10.65625 L 18.195312 10.867188 "/>
<path style=" stroke:none;fill-rule:nonzero;fill:rgb(99.607843%,0%,8.627451%);fill-opacity:1;" d="M 17.824219 10.613281 C 17.859375 10.640625 17.875 10.695312 17.875 10.695312 L 17.875 10.925781 L 17.71875 10.925781 L 17.71875 10.699219 C 17.71875 10.699219 17.707031 10.648438 17.648438 10.648438 C 17.589844 10.648438 17.578125 10.695312 17.578125 10.695312 L 17.578125 10.925781 L 17.429688 10.925781 L 17.429688 10.59375 L 17.578125 10.59375 C 17.59375 10.625 17.628906 10.589844 17.660156 10.585938 C 17.71875 10.566406 17.777344 10.585938 17.824219 10.613281 "/>
<path style=" stroke:none;fill-rule:nonzero;fill:rgb(99.607843%,0%,8.627451%);fill-opacity:1;" d="M 18.625 10.574219 C 18.5 10.574219 18.402344 10.652344 18.402344 10.753906 C 18.402344 10.855469 18.5 10.933594 18.625 10.933594 C 18.746094 10.933594 18.847656 10.855469 18.847656 10.753906 C 18.847656 10.652344 18.746094 10.574219 18.625 10.574219 Z M 18.683594 10.863281 C 18.683594 10.863281 18.667969 10.894531 18.625 10.894531 C 18.589844 10.894531 18.566406 10.871094 18.566406 10.871094 L 18.566406 10.652344 C 18.566406 10.652344 18.578125 10.621094 18.621094 10.621094 C 18.664062 10.621094 18.683594 10.652344 18.683594 10.652344 L 18.683594 10.863281 "/>
<path style=" stroke:none;fill-rule:nonzero;fill:rgb(99.607843%,0%,8.627451%);fill-opacity:1;" d="M 18.910156 10.601562 C 18.945312 10.601562 18.972656 10.589844 18.996094 10.566406 C 19.019531 10.542969 19.03125 10.511719 19.03125 10.480469 C 19.03125 10.449219 19.019531 10.417969 18.996094 10.394531 C 18.972656 10.371094 18.945312 10.359375 18.910156 10.359375 C 18.84375 10.359375 18.789062 10.414062 18.789062 10.480469 C 18.789062 10.511719 18.800781 10.542969 18.824219 10.566406 C 18.847656 10.589844 18.878906 10.601562 18.910156 10.601562 Z M 18.8125 10.480469 C 18.8125 10.453125 18.824219 10.429688 18.839844 10.410156 C 18.859375 10.394531 18.886719 10.382812 18.910156 10.382812 C 18.9375 10.382812 18.960938 10.394531 18.980469 10.410156 C 18.996094 10.429688 19.007812 10.453125 19.007812 10.480469 C 19.007812 10.535156 18.964844 10.578125 18.910156 10.578125 C 18.886719 10.578125 18.859375 10.566406 18.839844 10.550781 C 18.824219 10.53125 18.8125 10.507812 18.8125 10.480469 "/>
<path style=" stroke:none;fill-rule:nonzero;fill:rgb(99.607843%,0%,8.627451%);fill-opacity:1;" d="M 18.886719 10.429688 L 18.925781 10.429688 C 18.933594 10.429688 18.9375 10.433594 18.941406 10.433594 C 18.945312 10.4375 18.949219 10.441406 18.949219 10.453125 C 18.949219 10.460938 18.945312 10.464844 18.941406 10.46875 C 18.9375 10.472656 18.933594 10.472656 18.921875 10.472656 L 18.886719 10.472656 Z M 18.886719 10.539062 L 18.886719 10.488281 L 18.921875 10.488281 C 18.929688 10.488281 18.9375 10.488281 18.9375 10.488281 C 18.945312 10.492188 18.945312 10.496094 18.949219 10.503906 L 18.949219 10.527344 C 18.949219 10.53125 18.949219 10.535156 18.949219 10.535156 C 18.949219 10.539062 18.949219 10.539062 18.949219 10.539062 L 18.972656 10.539062 L 18.972656 10.535156 C 18.96875 10.535156 18.96875 10.535156 18.964844 10.53125 C 18.964844 10.527344 18.964844 10.523438 18.964844 10.519531 L 18.964844 10.503906 C 18.964844 10.496094 18.960938 10.488281 18.960938 10.488281 C 18.957031 10.484375 18.953125 10.480469 18.949219 10.480469 C 18.953125 10.476562 18.957031 10.472656 18.960938 10.46875 C 18.964844 10.464844 18.964844 10.457031 18.964844 10.449219 C 18.964844 10.4375 18.960938 10.425781 18.949219 10.421875 C 18.945312 10.417969 18.933594 10.417969 18.925781 10.417969 L 18.867188 10.417969 L 18.867188 10.539062 L 18.886719 10.539062 "/>
<path style=" stroke:none;fill-rule:nonzero;fill:rgb(100%,0%,0%);fill-opacity:1;" d="M 8.898438 12.183594 L 9.140625 12.183594 C 9.210938 12.183594 9.246094 12.152344 9.246094 12.085938 C 9.246094 12.023438 9.210938 11.992188 9.140625 11.992188 L 8.96875 11.992188 L 8.96875 11.9375 L 9.246094 11.9375 L 9.246094 11.871094 L 9.003906 11.871094 C 8.933594 11.871094 8.898438 11.902344 8.898438 11.964844 C 8.898438 12.03125 8.933594 12.0625 9.003906 12.0625 L 9.175781 12.0625 L 9.175781 12.113281 L 8.898438 12.113281 Z M 8.898438 12.183594 "/>
<path style=" stroke:none;fill-rule:nonzero;fill:rgb(100%,0%,0%);fill-opacity:1;" d="M 9.628906 12.183594 L 9.386719 12.183594 C 9.316406 12.183594 9.28125 12.148438 9.28125 12.078125 L 9.28125 11.871094 L 9.628906 11.871094 L 9.628906 11.9375 L 9.351562 11.9375 L 9.351562 11.992188 L 9.628906 11.992188 L 9.628906 12.0625 L 9.351562 12.0625 L 9.351562 12.078125 C 9.351562 12.101562 9.363281 12.113281 9.386719 12.113281 L 9.628906 12.113281 Z M 9.628906 12.183594 "/>
<path style=" stroke:none;fill-rule:nonzero;fill:rgb(100%,0%,0%);fill-opacity:1;" d="M 9.664062 11.871094 L 9.664062 12.078125 C 9.664062 12.148438 9.695312 12.183594 9.765625 12.183594 L 10.011719 12.183594 L 10.011719 12.113281 L 9.765625 12.113281 C 9.742188 12.113281 9.730469 12.101562 9.730469 12.078125 L 9.730469 11.871094 Z M 9.664062 11.871094 "/>
<path style=" stroke:none;fill-rule:nonzero;fill:rgb(100%,0%,0%);fill-opacity:1;" d="M 10.390625 12.183594 L 10.148438 12.183594 C 10.078125 12.183594 10.042969 12.148438 10.042969 12.078125 L 10.042969 11.871094 L 10.390625 11.871094 L 10.390625 11.9375 L 10.113281 11.9375 L 10.113281 11.992188 L 10.390625 11.992188 L 10.390625 12.0625 L 10.113281 12.0625 L 10.113281 12.078125 C 10.113281 12.101562 10.125 12.113281 10.148438 12.113281 L 10.390625 12.113281 Z M 10.390625 12.183594 "/>
<path style=" stroke:none;fill-rule:nonzero;fill:rgb(100%,0%,0%);fill-opacity:1;" d="M 10.773438 12.183594 L 10.53125 12.183594 C 10.460938 12.183594 10.425781 12.148438 10.425781 12.078125 L 10.425781 11.972656 C 10.425781 11.90625 10.460938 11.871094 10.53125 11.871094 L 10.773438 11.871094 L 10.773438 11.9375 L 10.53125 11.9375 C 10.507812 11.9375 10.496094 11.949219 10.496094 11.972656 L 10.496094 12.078125 C 10.496094 12.101562 10.507812 12.113281 10.53125 12.113281 L 10.773438 12.113281 Z M 10.773438 12.183594 "/>
<path style=" stroke:none;fill-rule:nonzero;fill:rgb(100%,0%,0%);fill-opacity:1;" d="M 10.808594 11.871094 L 11.15625 11.871094 L 11.15625 11.9375 L 11.019531 11.9375 L 11.019531 12.183594 L 10.949219 12.183594 L 10.949219 11.9375 L 10.808594 11.9375 Z M 10.808594 11.871094 "/>
<path style=" stroke:none;fill-rule:nonzero;fill:rgb(100%,0%,0%);fill-opacity:1;" d="M 11.785156 12.183594 L 12.027344 12.183594 C 12.097656 12.183594 12.132812 12.152344 12.132812 12.085938 C 12.132812 12.023438 12.097656 11.992188 12.027344 11.992188 L 11.851562 11.992188 L 11.851562 11.9375 L 12.132812 11.9375 L 12.132812 11.871094 L 11.886719 11.871094 C 11.820312 11.871094 11.785156 11.902344 11.785156 11.964844 C 11.785156 12.03125 11.820312 12.0625 11.886719 12.0625 L 12.0625 12.0625 L 12.0625 12.113281 L 11.785156 12.113281 Z M 11.785156 12.183594 "/>
<path style=" stroke:none;fill-rule:nonzero;fill:rgb(100%,0%,0%);fill-opacity:1;" d="M 12.164062 11.871094 L 12.511719 11.871094 L 12.511719 11.9375 L 12.375 11.9375 L 12.375 12.183594 L 12.304688 12.183594 L 12.304688 11.9375 L 12.164062 11.9375 Z M 12.164062 11.871094 "/>
<path style=" stroke:none;fill-rule:nonzero;fill:rgb(100%,0%,0%);fill-opacity:1;" d="M 12.828125 12.027344 L 12.828125 11.972656 C 12.828125 11.949219 12.816406 11.9375 12.792969 11.9375 L 12.652344 11.9375 C 12.628906 11.9375 12.617188 11.949219 12.617188 11.972656 L 12.617188 12.027344 Z M 12.617188 12.09375 L 12.617188 12.183594 L 12.546875 12.183594 L 12.546875 11.972656 C 12.546875 11.902344 12.582031 11.871094 12.652344 11.871094 L 12.792969 11.871094 C 12.859375 11.871094 12.894531 11.902344 12.894531 11.972656 L 12.894531 12.183594 L 12.828125 12.183594 L 12.828125 12.09375 Z M 12.617188 12.09375 "/>
<path style=" stroke:none;fill-rule:nonzero;fill:rgb(100%,0%,0%);fill-opacity:1;" d="M 13 11.992188 L 13.207031 11.992188 L 13.207031 11.9375 L 13 11.9375 Z M 13 12.058594 L 13 12.183594 L 12.929688 12.183594 L 12.929688 11.871094 L 13.175781 11.871094 C 13.242188 11.871094 13.277344 11.902344 13.277344 11.964844 C 13.277344 11.996094 13.273438 12.015625 13.261719 12.03125 C 13.273438 12.046875 13.277344 12.070312 13.277344 12.09375 L 13.277344 12.183594 L 13.207031 12.183594 L 13.207031 12.09375 C 13.207031 12.070312 13.195312 12.058594 13.175781 12.058594 Z M 13 12.058594 "/>
<path style=" stroke:none;fill-rule:nonzero;fill:rgb(100%,0%,0%);fill-opacity:1;" d="M 13.3125 11.871094 L 13.660156 11.871094 L 13.660156 11.9375 L 13.523438 11.9375 L 13.523438 12.183594 L 13.453125 12.183594 L 13.453125 11.9375 L 13.3125 11.9375 Z M 13.3125 11.871094 "/>
<path style=" stroke:none;fill-rule:nonzero;fill:rgb(100%,0%,0%);fill-opacity:1;" d="M 16.710938 14.984375 L 16.960938 14.984375 L 16.960938 14.921875 L 16.710938 14.921875 Z M 16.710938 15.128906 L 16.960938 15.128906 L 16.960938 15.066406 L 16.710938 15.066406 Z M 16.625 15.214844 L 16.625 14.839844 L 16.917969 14.839844 C 17 14.839844 17.042969 14.875 17.042969 14.953125 C 17.042969 14.984375 17.035156 15.007812 17.023438 15.027344 C 17.035156 15.042969 17.042969 15.070312 17.042969 15.101562 C 17.042969 15.175781 17 15.214844 16.917969 15.214844 Z M 16.625 15.214844 "/>
<path style=" stroke:none;fill-rule:nonzero;fill:rgb(100%,0%,0%);fill-opacity:1;" d="M 19.40625 15.042969 L 19.40625 14.980469 C 19.40625 14.953125 19.394531 14.9375 19.367188 14.9375 L 19.199219 14.9375 C 19.171875 14.9375 19.15625 14.953125 19.15625 14.980469 L 19.15625 15.042969 Z M 19.15625 15.125 L 19.15625 15.230469 L 19.074219 15.230469 L 19.074219 14.980469 C 19.074219 14.894531 19.117188 14.855469 19.199219 14.855469 L 19.367188 14.855469 C 19.449219 14.855469 19.492188 14.894531 19.492188 14.980469 L 19.492188 15.230469 L 19.40625 15.230469 L 19.40625 15.125 Z M 19.15625 15.125 "/>
<path style="fill:none;stroke-width:0.584723;stroke-linecap:butt;stroke-linejoin:miter;stroke:rgb(0%,0%,0%);stroke-opacity:1;stroke-miterlimit:4;" d="M 63.148531 408.341785 L 57.746689 413.869251 L 52.219223 419.271093 L 63.148531 430.200401 L 63.148531 426.934171 L 74.077839 426.934171 L 74.077839 411.608015 L 63.148531 411.608015 Z M 63.148531 408.341785 " transform="matrix(0.0310947,0,0,0.0310947,2.497352,-0.349617)"/>
<path style="fill:none;stroke-width:0.584723;stroke-linecap:butt;stroke-linejoin:miter;stroke:rgb(0%,0%,0%);stroke-opacity:1;stroke-miterlimit:4;" d="M 139.653685 408.341785 L 150.582993 419.271093 L 139.653685 430.200401 L 139.653685 426.934171 L 128.724377 426.934171 L 128.724377 411.608015 L 139.653685 411.608015 Z M 139.653685 408.341785 " transform="matrix(0.0310947,0,0,0.0310947,2.497352,-0.349617)"/>
<path style="fill:none;stroke-width:0.584723;stroke-linecap:butt;stroke-linejoin:miter;stroke:rgb(0%,0%,0%);stroke-opacity:1;stroke-miterlimit:4;" d="M 112.267604 380.704455 L 101.338296 369.775148 L 90.408988 380.704455 L 93.675218 380.704455 L 93.675218 391.633763 L 109.001374 391.633763 L 109.001374 380.704455 Z M 112.267604 380.704455 " transform="matrix(0.0310947,0,0,0.0310947,2.497352,-0.349617)"/>
<path style="fill:none;stroke-width:0.584723;stroke-linecap:butt;stroke-linejoin:miter;stroke:rgb(0%,0%,0%);stroke-opacity:1;stroke-miterlimit:4;" d="M 112.267604 458.340228 L 101.338296 469.269535 L 90.408988 458.340228 L 93.675218 458.340228 L 93.675218 447.41092 L 109.001374 447.41092 L 109.001374 458.340228 Z M 112.267604 458.340228 " transform="matrix(0.0310947,0,0,0.0310947,2.497352,-0.349617)"/>
<path style="fill:none;stroke-width:0.861415;stroke-linecap:butt;stroke-linejoin:miter;stroke:rgb(0%,0%,0%);stroke-opacity:1;stroke-miterlimit:4;" d="M 114.654464 419.145469 C 114.654464 426.30605 108.750125 432.210388 101.46392 432.210388 C 94.303339 432.210388 88.399001 426.431674 88.399001 419.145469 C 88.399001 411.859264 94.177715 405.954925 101.46392 405.954925 C 108.750125 405.954925 114.654464 411.859264 114.654464 419.145469 Z M 114.654464 419.145469 " transform="matrix(0.0310947,0,0,0.0310947,2.497352,-0.349617)"/>
<path style=" stroke:none;fill-rule:nonzero;fill:rgb(10.196078%,10.196078%,10.196078%);fill-opacity:1;" d="M 9.59375 13.402344 L 10.351562 13.402344 C 10.515625 13.402344 10.648438 13.511719 10.648438 13.640625 C 10.648438 13.773438 10.515625 13.882812 10.351562 13.882812 L 9.59375 13.882812 C 9.429688 13.882812 9.296875 13.773438 9.296875 13.640625 C 9.296875 13.511719 9.429688 13.402344 9.59375 13.402344 Z M 9.59375 13.402344 "/>
<path style=" stroke:none;fill-rule:nonzero;fill:rgb(10.196078%,10.196078%,10.196078%);fill-opacity:1;" d="M 12.203125 13.402344 L 12.960938 13.402344 C 13.125 13.402344 13.261719 13.511719 13.261719 13.640625 C 13.261719 13.773438 13.128906 13.882812 12.960938 13.882812 L 12.203125 13.882812 C 12.039062 13.882812 11.90625 13.773438 11.90625 13.640625 C 11.90625 13.511719 12.039062 13.402344 12.203125 13.402344 Z M 12.203125 13.402344 "/>
</g>
</svg>
