
<svg xmlns="http://www.w3.org/2000/svg" xmlns:xlink="http://www.w3.org/1999/xlink" width="24px" height="24px" viewBox="0 0 24 24" version="1.1">
<g id="surface1">
<path style="fill-rule:nonzero;fill:rgb(100%,100%,100%);fill-opacity:1;stroke-width:5.408316;stroke-linecap:butt;stroke-linejoin:miter;stroke:rgb(13.72549%,11.764706%,11.764706%);stroke-opacity:1;stroke-miterlimit:4;" d="M 14.515626 3.703125 L 81.48438 3.703125 C 87.45313 3.703125 92.296881 8.546876 92.296881 14.515626 L 92.296881 81.48438 C 92.296881 87.45313 87.45313 92.296881 81.48438 92.296881 L 14.515626 92.296881 C 8.546876 92.296881 3.703125 87.45313 3.703125 81.48438 L 3.703125 14.515626 C 3.703125 8.546876 8.546876 3.703125 14.515626 3.703125 Z M 14.515626 3.703125 " transform="matrix(0.25,0,0,0.25,0,0)"/>
<path style=" stroke:none;fill-rule:nonzero;fill:rgb(18.823529%,18.823529%,18.823529%);fill-opacity:1;" d="M 6.726562 2.503906 C 5.179688 2.503906 3.921875 3.757812 3.921875 5.304688 C 3.921875 6.851562 5.179688 8.109375 6.726562 8.109375 C 8.269531 8.109375 9.523438 6.851562 9.523438 5.304688 C 9.523438 3.757812 8.269531 2.503906 6.726562 2.503906 Z M 6.726562 3.207031 C 7.886719 3.207031 8.828125 4.144531 8.828125 5.304688 C 8.828125 6.464844 7.886719 7.40625 6.726562 7.40625 C 5.566406 7.40625 4.625 6.464844 4.625 5.304688 C 4.625 4.144531 5.566406 3.207031 6.726562 3.207031 Z M 6.726562 3.207031 "/>
<path style=" stroke:none;fill-rule:nonzero;fill:rgb(18.823529%,18.823529%,18.823529%);fill-opacity:1;" d="M 5.0625 6.96875 L 4.710938 8.109375 L 3.484375 9.421875 C 3.402344 9.511719 3.007812 9.640625 2.699219 9.332031 C 2.433594 9.070312 2.515625 8.632812 2.609375 8.546875 L 3.921875 7.320312 Z M 5.0625 6.96875 "/>
<path style=" stroke:none;fill-rule:nonzero;fill:rgb(18.823529%,18.823529%,18.823529%);fill-opacity:1;" d="M 16.09375 4.871094 C 14.546875 4.871094 13.292969 6.121094 13.292969 7.667969 C 13.292969 9.214844 14.546875 10.472656 16.09375 10.472656 C 17.636719 10.472656 18.890625 9.214844 18.890625 7.667969 C 18.890625 6.121094 17.636719 4.871094 16.09375 4.871094 Z M 16.09375 5.566406 C 17.253906 5.566406 18.195312 6.507812 18.195312 7.667969 C 18.195312 8.828125 17.253906 9.769531 16.09375 9.769531 C 14.933594 9.769531 13.992188 8.828125 13.992188 7.667969 C 13.992188 6.507812 14.933594 5.566406 16.09375 5.566406 Z M 16.09375 5.566406 "/>
<path style=" stroke:none;fill-rule:nonzero;fill:rgb(18.823529%,18.823529%,18.823529%);fill-opacity:1;" d="M 14.429688 9.332031 L 14.078125 10.472656 L 12.851562 11.785156 C 12.769531 11.875 12.375 12.007812 12.066406 11.695312 C 11.804688 11.433594 11.886719 10.996094 11.976562 10.910156 L 13.292969 9.683594 Z M 14.429688 9.332031 "/>
<path style=" stroke:none;fill-rule:nonzero;fill:rgb(18.823529%,18.823529%,18.823529%);fill-opacity:1;" d="M 9.089844 14.257812 C 7.542969 14.257812 6.285156 15.507812 6.285156 17.054688 C 6.285156 18.601562 7.542969 19.859375 9.089844 19.859375 C 10.636719 19.859375 11.886719 18.601562 11.886719 17.054688 C 11.886719 15.507812 10.636719 14.257812 9.089844 14.257812 Z M 9.089844 14.957031 C 10.25 14.957031 11.1875 15.894531 11.1875 17.054688 C 11.1875 18.214844 10.25 19.15625 9.089844 19.15625 C 7.929688 19.15625 6.988281 18.214844 6.988281 17.054688 C 6.988281 15.894531 7.929688 14.957031 9.089844 14.957031 Z M 9.089844 14.957031 "/>
<path style=" stroke:none;fill-rule:nonzero;fill:rgb(18.823529%,18.823529%,18.823529%);fill-opacity:1;" d="M 7.425781 18.71875 L 7.074219 19.859375 L 5.847656 21.171875 C 5.765625 21.261719 5.371094 21.390625 5.0625 21.082031 C 4.796875 20.820312 4.878906 20.382812 4.972656 20.296875 L 6.285156 19.070312 Z M 7.425781 18.71875 "/>
<path style=" stroke:none;fill-rule:nonzero;fill:rgb(18.823529%,18.823529%,18.823529%);fill-opacity:1;" d="M 18.457031 11.890625 C 16.910156 11.890625 15.652344 13.144531 15.652344 14.691406 C 15.652344 16.234375 16.910156 17.496094 18.457031 17.496094 C 20.003906 17.496094 21.253906 16.234375 21.253906 14.691406 C 21.253906 13.144531 20.003906 11.890625 18.457031 11.890625 Z M 18.457031 12.59375 C 19.617188 12.59375 20.558594 13.53125 20.558594 14.691406 C 20.558594 15.847656 19.617188 16.792969 18.457031 16.792969 C 17.296875 16.792969 16.355469 15.847656 16.355469 14.691406 C 16.355469 13.53125 17.296875 12.59375 18.457031 12.59375 Z M 18.457031 12.59375 "/>
<path style=" stroke:none;fill-rule:nonzero;fill:rgb(18.823529%,18.823529%,18.823529%);fill-opacity:1;" d="M 16.792969 16.355469 L 16.441406 17.492188 L 15.21875 18.804688 C 15.132812 18.898438 14.738281 19.027344 14.429688 18.71875 C 14.167969 18.457031 14.25 18.019531 14.339844 17.929688 L 15.65625 16.707031 Z M 16.792969 16.355469 "/>
</g>
</svg>
