
<svg xmlns="http://www.w3.org/2000/svg" xmlns:xlink="http://www.w3.org/1999/xlink" width="24px" height="24px" viewBox="0 0 24 24" version="1.1">
<g id="surface1">
<path style="fill-rule:nonzero;fill:rgb(100%,100%,100%);fill-opacity:1;stroke-width:28.030392;stroke-linecap:butt;stroke-linejoin:miter;stroke:rgb(29.019608%,68.235294%,90.980392%);stroke-opacity:1;stroke-miterlimit:4;" d="M 82.5 26.416667 L 429.5 26.416667 C 460.5 26.416667 485.583333 51.5 485.583333 82.5 L 485.583333 429.5 C 485.583333 460.5 460.5 485.583333 429.5 485.583333 L 82.5 485.583333 C 51.5 485.583333 26.416667 460.5 26.416667 429.5 L 26.416667 82.5 C 26.416667 51.5 51.5 26.416667 82.5 26.416667 Z M 82.5 26.416667 " transform="matrix(0.046875,0,0,0.046875,0,0)"/>
<path style=" stroke:none;fill-rule:nonzero;fill:rgb(100%,100%,100%);fill-opacity:1;" d="M 17.988281 12.121094 C 17.988281 8.898438 15.316406 6.289062 12.015625 6.289062 C 8.71875 6.289062 6.042969 8.898438 6.042969 12.121094 C 6.042969 15.34375 8.71875 17.953125 12.015625 17.953125 C 15.316406 17.953125 17.988281 15.34375 17.988281 12.121094 Z M 17.988281 12.121094 "/>
<path style=" stroke:none;fill-rule:nonzero;fill:rgb(52.54902%,56.470588%,58.039216%);fill-opacity:1;" d="M 10.734375 21.269531 C 10.574219 21.195312 10.402344 21.011719 10.328125 20.832031 C 10.289062 20.734375 10.25 20.375 10.214844 19.796875 C 10.1875 19.308594 10.148438 18.867188 10.132812 18.820312 C 10.109375 18.757812 9.996094 18.699219 9.71875 18.601562 C 9.507812 18.527344 9.191406 18.394531 9.011719 18.304688 C 8.835938 18.214844 8.652344 18.140625 8.605469 18.140625 C 8.550781 18.140625 8.261719 18.378906 7.847656 18.757812 C 7.480469 19.09375 7.117188 19.402344 7.046875 19.4375 C 6.894531 19.515625 6.558594 19.527344 6.386719 19.464844 C 6.246094 19.410156 4.78125 17.96875 4.6875 17.792969 C 4.59375 17.617188 4.605469 17.285156 4.710938 17.085938 C 4.757812 16.996094 5.066406 16.628906 5.398438 16.269531 C 5.753906 15.882812 6 15.582031 6 15.535156 C 6 15.488281 5.925781 15.304688 5.835938 15.128906 C 5.75 14.953125 5.617188 14.636719 5.542969 14.425781 C 5.46875 14.214844 5.378906 14.027344 5.34375 14.007812 C 5.304688 13.992188 4.875 13.953125 4.386719 13.925781 C 3.816406 13.894531 3.433594 13.855469 3.324219 13.816406 C 3.113281 13.738281 2.871094 13.480469 2.835938 13.292969 C 2.820312 13.21875 2.816406 12.660156 2.824219 12.054688 L 2.835938 10.953125 L 2.960938 10.792969 C 3.1875 10.511719 3.292969 10.484375 4.359375 10.417969 C 4.964844 10.382812 5.335938 10.34375 5.367188 10.3125 C 5.390625 10.285156 5.484375 10.078125 5.566406 9.847656 C 5.652344 9.621094 5.78125 9.308594 5.859375 9.15625 C 5.9375 9.003906 6 8.84375 6 8.804688 C 6 8.761719 5.746094 8.453125 5.4375 8.113281 C 5.128906 7.773438 4.832031 7.4375 4.777344 7.367188 C 4.632812 7.175781 4.582031 6.933594 4.640625 6.695312 C 4.683594 6.519531 4.765625 6.421875 5.4375 5.738281 C 5.847656 5.324219 6.253906 4.945312 6.339844 4.902344 C 6.535156 4.800781 6.847656 4.800781 7.039062 4.898438 C 7.121094 4.941406 7.480469 5.242188 7.839844 5.570312 C 8.195312 5.898438 8.511719 6.179688 8.542969 6.199219 C 8.574219 6.214844 8.765625 6.148438 9 6.039062 C 9.222656 5.933594 9.554688 5.796875 9.738281 5.734375 C 9.988281 5.648438 10.085938 5.59375 10.121094 5.523438 C 10.144531 5.46875 10.1875 5.023438 10.21875 4.535156 C 10.269531 3.59375 10.304688 3.445312 10.496094 3.242188 C 10.710938 3.015625 10.835938 3 12.042969 3.011719 L 13.140625 3.023438 L 13.3125 3.136719 C 13.609375 3.332031 13.644531 3.457031 13.714844 4.5 C 13.746094 5.007812 13.785156 5.460938 13.796875 5.511719 C 13.8125 5.578125 13.902344 5.628906 14.195312 5.730469 C 14.40625 5.804688 14.742188 5.945312 14.941406 6.046875 C 15.140625 6.148438 15.320312 6.230469 15.339844 6.230469 C 15.359375 6.230469 15.679688 5.949219 16.054688 5.605469 C 16.429688 5.265625 16.800781 4.949219 16.886719 4.902344 C 17.085938 4.800781 17.382812 4.800781 17.601562 4.90625 C 17.703125 4.957031 18.058594 5.277344 18.5 5.722656 C 19.257812 6.488281 19.316406 6.578125 19.316406 6.921875 C 19.320312 7.167969 19.210938 7.332031 18.558594 8.046875 C 18.203125 8.433594 17.914062 8.769531 17.914062 8.789062 C 17.914062 8.808594 18.003906 9.019531 18.117188 9.253906 C 18.230469 9.492188 18.367188 9.820312 18.417969 9.988281 C 18.480469 10.195312 18.539062 10.304688 18.59375 10.328125 C 18.640625 10.347656 19.097656 10.390625 19.609375 10.421875 C 20.628906 10.484375 20.792969 10.527344 20.964844 10.769531 C 21.125 10.996094 21.144531 11.164062 21.132812 12.273438 L 21.117188 13.335938 L 20.992188 13.515625 C 20.769531 13.832031 20.714844 13.847656 19.582031 13.921875 C 19.03125 13.957031 18.570312 13.996094 18.558594 14.007812 C 18.546875 14.019531 18.476562 14.195312 18.40625 14.398438 C 18.332031 14.605469 18.191406 14.9375 18.089844 15.136719 C 17.988281 15.335938 17.914062 15.527344 17.921875 15.558594 C 17.925781 15.585938 18.203125 15.90625 18.53125 16.265625 C 18.863281 16.625 19.175781 17.003906 19.226562 17.105469 C 19.335938 17.316406 19.34375 17.546875 19.253906 17.761719 C 19.175781 17.949219 17.832031 19.316406 17.613281 19.425781 C 17.429688 19.523438 17.097656 19.53125 16.90625 19.449219 C 16.835938 19.417969 16.46875 19.109375 16.09375 18.765625 C 15.714844 18.421875 15.378906 18.140625 15.34375 18.140625 C 15.308594 18.140625 15.09375 18.226562 14.875 18.332031 C 14.652344 18.433594 14.324219 18.566406 14.140625 18.625 C 13.894531 18.710938 13.8125 18.753906 13.796875 18.820312 C 13.785156 18.867188 13.746094 19.320312 13.714844 19.828125 C 13.640625 20.941406 13.597656 21.0625 13.210938 21.261719 C 13.097656 21.316406 12.910156 21.328125 11.96875 21.324219 C 11.132812 21.324219 10.828125 21.308594 10.734375 21.269531 Z M 12.371094 16.320312 C 13.371094 16.214844 14.203125 15.816406 14.917969 15.105469 C 15.457031 14.5625 15.808594 13.953125 16.019531 13.1875 C 16.152344 12.703125 16.148438 11.640625 16.015625 11.15625 C 15.613281 9.675781 14.554688 8.585938 13.09375 8.148438 C 12.753906 8.042969 12.660156 8.035156 11.996094 8.03125 C 11.363281 8.027344 11.230469 8.039062 10.921875 8.125 C 9.382812 8.546875 8.203125 9.78125 7.882812 11.316406 C 7.59375 12.695312 8.015625 14.105469 9.023438 15.117188 C 9.550781 15.644531 10.234375 16.035156 10.976562 16.226562 C 11.1875 16.28125 11.488281 16.320312 11.914062 16.355469 C 11.949219 16.359375 12.152344 16.34375 12.371094 16.320312 Z M 11.34375 14.585938 C 10.289062 14.300781 9.550781 13.402344 9.484375 12.328125 C 9.441406 11.574219 9.683594 10.9375 10.214844 10.40625 C 11.1875 9.4375 12.742188 9.429688 13.703125 10.386719 C 14.496094 11.175781 14.683594 12.296875 14.195312 13.28125 C 13.773438 14.121094 13.003906 14.617188 12.058594 14.652344 C 11.738281 14.664062 11.578125 14.648438 11.34375 14.585938 Z M 12.523438 13.542969 C 12.816406 13.433594 13.164062 13.113281 13.308594 12.8125 C 13.410156 12.605469 13.425781 12.535156 13.425781 12.164062 C 13.425781 11.773438 13.417969 11.738281 13.28125 11.488281 C 13.011719 10.988281 12.609375 10.734375 12.039062 10.707031 C 11.582031 10.683594 11.308594 10.78125 10.976562 11.082031 C 10.558594 11.464844 10.390625 11.996094 10.527344 12.519531 C 10.644531 12.976562 10.890625 13.285156 11.304688 13.492188 C 11.691406 13.691406 12.089844 13.707031 12.523438 13.542969 Z M 12.523438 13.542969 "/>
<path style=" stroke:none;fill-rule:nonzero;fill:rgb(100%,100%,100%);fill-opacity:1;" d="M 18.175781 12.148438 C 18.175781 15.550781 15.417969 18.3125 12.015625 18.3125 C 8.613281 18.3125 5.855469 15.550781 5.855469 12.148438 C 5.855469 8.746094 8.613281 5.988281 12.015625 5.988281 C 15.417969 5.988281 18.175781 8.746094 18.175781 12.148438 Z M 18.175781 12.148438 "/>
<path style=" stroke:none;fill-rule:nonzero;fill:rgb(21.176471%,48.235294%,94.117647%);fill-opacity:1;" d="M 11.160156 18.398438 C 9.816406 18.222656 8.574219 17.597656 7.570312 16.597656 C 6.695312 15.71875 6.128906 14.6875 5.835938 13.429688 C 5.769531 13.148438 5.65625 12.699219 5.660156 11.972656 C 5.660156 11.113281 5.753906 10.902344 5.882812 10.492188 C 6.460938 8.660156 7.519531 7.378906 9.160156 6.542969 C 10.632812 5.792969 12.4375 5.660156 14.023438 6.191406 C 15.539062 6.703125 16.917969 7.90625 17.640625 9.351562 C 18.84375 11.761719 18.359375 14.667969 16.433594 16.597656 C 15.050781 17.988281 13.101562 18.652344 11.160156 18.398438 Z M 9.390625 17.496094 C 9.378906 17.457031 9.359375 17.316406 9.34375 17.1875 C 9.320312 16.972656 9.332031 16.9375 9.46875 16.796875 C 9.667969 16.597656 9.847656 16.597656 10.6875 16.796875 C 11.042969 16.878906 11.5625 16.984375 11.847656 17.027344 C 12.488281 17.128906 14.050781 17.144531 14.617188 17.050781 C 15.078125 16.976562 15.851562 16.769531 16.050781 16.667969 C 16.265625 16.554688 17 15.675781 16.933594 15.609375 C 16.917969 15.59375 16.671875 15.640625 16.386719 15.710938 C 15.410156 15.953125 14.949219 15.722656 13.992188 15.695312 C 12.335938 15.644531 10.972656 15.296875 8.742188 14.351562 C 7.410156 13.785156 7.078125 14.023438 6.742188 14.359375 C 6.488281 14.613281 6.480469 14.734375 6.699219 15.128906 C 7.191406 16.027344 8.019531 16.875 8.917969 17.402344 C 9.253906 17.597656 9.417969 17.632812 9.390625 17.496094 Z M 17.800781 13.925781 C 17.828125 13.863281 17.882812 13.65625 17.925781 13.460938 C 17.992188 13.140625 17.988281 13.105469 17.914062 13.046875 C 17.871094 13.011719 17.800781 12.984375 17.765625 12.984375 C 17.625 12.984375 16.828125 12.625 16.402344 12.367188 C 15.582031 11.871094 14.546875 11.03125 13.089844 9.679688 C 11.65625 8.347656 11.226562 8.003906 10.675781 7.75 C 10.019531 7.449219 9.148438 7.394531 8.277344 7.605469 C 7.953125 7.683594 7.867188 7.726562 7.671875 7.921875 C 7.230469 8.363281 6.8125 8.949219 6.542969 9.5 C 6.113281 10.394531 6.132812 11.03125 6.675781 10.570312 C 7.085938 10.21875 7.5 10.179688 7.914062 10.109375 C 8.183594 10.0625 8.585938 10.125 8.90625 10.195312 C 9.570312 10.34375 10.042969 10.824219 11.761719 12.042969 C 13.703125 13.421875 14.050781 13.421875 15.375 13.949219 C 15.945312 14.175781 17.421875 14.03125 17.640625 14.035156 C 17.710938 14.039062 17.773438 13.996094 17.800781 13.925781 Z M 17.628906 10.769531 C 17.789062 10.628906 17.808594 10.589844 17.789062 10.425781 C 17.75 10.136719 17.429688 9.402344 17.140625 8.9375 C 16.796875 8.386719 15.957031 7.527344 15.421875 7.175781 C 14.628906 6.65625 13.875 6.355469 12.972656 6.191406 C 12.171875 6.050781 10.511719 6.15625 10.445312 6.359375 C 10.429688 6.402344 10.515625 6.417969 10.730469 6.417969 C 12.070312 6.417969 13.214844 6.792969 14.082031 7.511719 C 14.597656 7.9375 14.957031 8.34375 15.546875 9.160156 C 16.539062 10.53125 16.929688 10.914062 17.335938 10.925781 C 17.398438 10.929688 17.527344 10.859375 17.628906 10.769531 Z M 17.628906 10.769531 "/>
</g>
</svg>
