
<svg xmlns="http://www.w3.org/2000/svg" xmlns:xlink="http://www.w3.org/1999/xlink" width="24px" height="24px" viewBox="0 0 24 24" version="1.1">
<defs>
<clipPath id="clip1">
  <path d="M 6.140625 6.9375 L 17.015625 6.9375 L 17.015625 20.953125 L 6.140625 20.953125 Z M 6.140625 6.9375 "/>
</clipPath>
<clipPath id="clip2">
  <path d="M 27.175781 12.105469 C 27.175781 20.71875 20.191406 27.695312 11.585938 27.695312 C 2.980469 27.695312 -4.003906 20.71875 -4.003906 12.105469 C -4.003906 3.492188 2.980469 -3.484375 11.585938 -3.484375 C 20.191406 -3.484375 27.175781 3.492188 27.175781 12.105469 Z M 27.175781 12.105469 "/>
</clipPath>
<clipPath id="clip3">
  <path d="M 8.71875 3.28125 L 16.734375 3.28125 L 16.734375 14.53125 L 8.71875 14.53125 Z M 8.71875 3.28125 "/>
</clipPath>
<clipPath id="clip4">
  <path d="M 27.175781 12.105469 C 27.175781 20.71875 20.191406 27.695312 11.585938 27.695312 C 2.980469 27.695312 -4.003906 20.71875 -4.003906 12.105469 C -4.003906 3.492188 2.980469 -3.484375 11.585938 -3.484375 C 20.191406 -3.484375 27.175781 3.492188 27.175781 12.105469 Z M 27.175781 12.105469 "/>
</clipPath>
</defs>
<g id="surface1">
<path style="fill-rule:nonzero;fill:rgb(0.392157%,59.215686%,99.215686%);fill-opacity:1;stroke-width:19.4;stroke-linecap:butt;stroke-linejoin:miter;stroke:rgb(0.392157%,39.607843%,66.666667%);stroke-opacity:1;stroke-miterlimit:4;" d="M 76.083333 35.5 L 435.75 35.5 C 461.666667 35.5 482.583333 56.5 482.583333 82.333333 L 482.583333 431.916667 C 482.583333 457.75 461.666667 478.666667 435.75 478.666667 L 76.083333 478.666667 C 50.25 478.666667 29.333333 457.75 29.333333 431.916667 L 29.333333 82.333333 C 29.333333 56.5 50.25 35.5 76.083333 35.5 Z M 76.083333 35.5 " transform="matrix(0.046875,0,0,0.046875,0,0)"/>
<g clip-path="url(#clip1)" clip-rule="nonzero">
<g clip-path="url(#clip2)" clip-rule="nonzero">
<path style=" stroke:none;fill-rule:nonzero;fill:rgb(65.882353%,81.176471%,20%);fill-opacity:1;" d="M 11.550781 6.960938 C 8.578125 6.976562 6.164062 9.183594 6.164062 11.914062 C 6.164062 14.65625 8.59375 16.890625 11.585938 16.890625 C 12.628906 16.890625 13.59375 16.601562 14.421875 16.132812 C 14.351562 17.152344 13.691406 18.019531 12.730469 18.4375 L 12.730469 20.914062 C 15.136719 20.394531 16.929688 18.441406 16.992188 16.097656 L 17.007812 16.097656 L 17.007812 6.960938 L 14.4375 6.960938 L 14.4375 11.914062 C 14.4375 13.355469 13.160156 14.53125 11.589844 14.53125 C 10.015625 14.53125 8.738281 13.355469 8.738281 11.914062 C 8.738281 10.472656 10.015625 9.300781 11.589844 9.300781 C 11.683594 9.300781 11.777344 9.316406 11.871094 9.316406 L 11.871094 6.960938 M 11.550781 6.960938 "/>
</g>
</g>
<g clip-path="url(#clip3)" clip-rule="nonzero">
<g clip-path="url(#clip4)" clip-rule="nonzero">
<path style=" stroke:none;fill-rule:nonzero;fill:rgb(17.647059%,17.647059%,17.647059%);fill-opacity:1;" d="M 11.871094 3.292969 L 11.871094 9.320312 C 11.78125 9.3125 11.683594 9.304688 11.585938 9.304688 C 10.011719 9.304688 8.738281 10.472656 8.738281 11.914062 C 8.738281 13.355469 10.015625 14.527344 11.585938 14.527344 C 13.160156 14.527344 14.4375 13.355469 14.4375 11.914062 L 14.4375 6.949219 L 16.691406 6.949219 C 16.691406 4.957031 14.988281 3.292969 12.726562 3.292969 L 11.871094 3.292969 M 11.871094 3.300781 "/>
</g>
</g>
</g>
</svg>
