
<svg xmlns="http://www.w3.org/2000/svg" xmlns:xlink="http://www.w3.org/1999/xlink" width="24px" height="24px" viewBox="0 0 24 24" version="1.1">
<defs>
<clipPath id="clip1">
  <path d="M 1.78125 1.78125 L 22.21875 1.78125 L 22.21875 22.21875 L 1.78125 22.21875 Z M 1.78125 1.78125 "/>
</clipPath>
<clipPath id="clip2">
  <path d="M 4.054688 1.808594 L 19.945312 1.808594 C 21.183594 1.808594 22.191406 2.816406 22.191406 4.054688 L 22.191406 19.945312 C 22.191406 21.183594 21.183594 22.191406 19.945312 22.191406 L 4.054688 22.191406 C 2.816406 22.191406 1.808594 21.183594 1.808594 19.945312 L 1.808594 4.054688 C 1.808594 2.816406 2.816406 1.808594 4.054688 1.808594 Z M 4.054688 1.808594 "/>
</clipPath>
<radialGradient id="radial0" gradientUnits="userSpaceOnUse" cx="256" cy="256" fx="256" fy="256" r="226.38" gradientTransform="matrix(0.0711666,0,0,0.0711666,-6.04283,-6.043101)">
<stop offset="0" style="stop-color:rgb(83.137255%,33.333333%,0%);stop-opacity:0.172549;"/>
<stop offset="1" style="stop-color:rgb(90.196078%,36.078431%,0%);stop-opacity:0.501961;"/>
</radialGradient>
</defs>
<g id="surface1">
<path style=" stroke:none;fill-rule:evenodd;fill:rgb(74.901961%,39.215686%,5.490196%);fill-opacity:1;" d="M 3.246094 0.769531 L 20.753906 0.769531 C 22.121094 0.769531 23.230469 1.878906 23.230469 3.246094 L 23.230469 20.753906 C 23.230469 22.121094 22.121094 23.230469 20.753906 23.230469 L 3.246094 23.230469 C 1.878906 23.230469 0.769531 22.121094 0.769531 20.753906 L 0.769531 3.246094 C 0.769531 1.878906 1.878906 0.769531 3.246094 0.769531 Z M 3.246094 0.769531 "/>
<g clip-path="url(#clip1)" clip-rule="nonzero">
<g clip-path="url(#clip2)" clip-rule="nonzero">
<path style=" stroke:none;fill-rule:evenodd;fill:rgb(96.470588%,56.078431%,10.588235%);fill-opacity:1;" d="M 27.542969 11.964844 C 27.542969 20.570312 20.570312 27.542969 11.964844 27.542969 C 3.359375 27.542969 -3.613281 20.570312 -3.613281 11.964844 C -3.613281 3.363281 3.359375 -3.613281 11.964844 -3.613281 C 20.570312 -3.613281 27.542969 3.363281 27.542969 11.964844 "/>
<path style=" stroke:none;fill-rule:nonzero;fill:url(#radial0);" d="M 8.953125 -3.320312 C 6.992188 -2.9375 5.164062 -2.1875 3.542969 -1.140625 L 11.660156 11.660156 L -1.085938 3.460938 C -2.144531 5.078125 -2.90625 6.90625 -3.300781 8.863281 L 11.492188 12.175781 L -3.234375 15.378906 C -2.804688 17.308594 -2.019531 19.101562 -0.945312 20.6875 L 11.660156 12.691406 L 3.652344 25.140625 C 5.25 26.152344 7.039062 26.875 8.957031 27.253906 L 12.175781 12.859375 L 15.292969 27.1875 C 17.179688 26.777344 18.9375 26.027344 20.5 25 L 12.691406 12.691406 L 24.949219 20.578125 C 25.984375 19.019531 26.746094 17.261719 27.167969 15.378906 L 12.859375 12.175781 L 27.273438 9.042969 C 26.90625 7.125 26.191406 5.328125 25.195312 3.730469 L 12.691406 11.660156 L 20.765625 -0.890625 C 19.1875 -1.972656 17.394531 -2.773438 15.46875 -3.21875 L 12.175781 11.492188 L 8.953125 -3.320312 "/>
</g>
</g>
<path style=" stroke:none;fill-rule:nonzero;fill:rgb(100%,100%,100%);fill-opacity:1;" d="M 6.164062 19.527344 C 5.960938 19.527344 5.667969 19.503906 5.285156 19.460938 C 4.882812 19.417969 4.511719 19.339844 4.167969 19.226562 L 4.597656 16.628906 C 4.8125 16.703125 5.011719 16.753906 5.199219 16.78125 C 5.371094 16.808594 5.589844 16.824219 5.863281 16.824219 C 6.363281 16.824219 6.714844 16.671875 6.914062 16.375 C 7.113281 16.074219 7.214844 15.636719 7.214844 15.066406 L 7.214844 4.996094 L 10.410156 4.28125 L 10.410156 15.152344 C 10.410156 16.636719 10.042969 17.738281 9.316406 18.453125 C 8.585938 19.167969 7.535156 19.523438 6.164062 19.523438 "/>
</g>
</svg>
