<!-- color: #474747 -->
<svg xmlns="http://www.w3.org/2000/svg" xmlns:xlink="http://www.w3.org/1999/xlink" width="24px" height="24px" viewBox="0 0 24 24" version="1.1">
<defs>
<clipPath id="clip1">
  <path d="M 6.1875 5.0625 L 17.953125 5.0625 L 17.953125 17.8125 L 6.1875 17.8125 Z M 6.1875 5.0625 "/>
</clipPath>
<clipPath id="clip2">
  <path d="M 23.285156 11.910156 C 23.285156 18.113281 18.253906 23.136719 12.058594 23.136719 C 5.859375 23.136719 0.828125 18.113281 0.828125 11.910156 C 0.828125 5.707031 5.859375 0.683594 12.058594 0.683594 C 18.253906 0.683594 23.285156 5.707031 23.285156 11.910156 Z M 23.285156 11.910156 "/>
</clipPath>
</defs>
<g id="surface1">
<path style="fill-rule:nonzero;fill:rgb(30.588235%,60.392157%,2.352941%);fill-opacity:1;stroke-width:7.199297;stroke-linecap:butt;stroke-linejoin:miter;stroke:rgb(92.54902%,75.686275%,18.431373%);stroke-opacity:1;stroke-miterlimit:4;" d="M 19.4375 5.041667 L 108.5625 5.041667 C 116.520833 5.041667 122.958333 11.479167 122.958333 19.4375 L 122.958333 108.5625 C 122.958333 116.520833 116.520833 122.958333 108.5625 122.958333 L 19.4375 122.958333 C 11.479167 122.958333 5.041667 116.520833 5.041667 108.5625 L 5.041667 19.4375 C 5.041667 11.479167 11.479167 5.041667 19.4375 5.041667 Z M 19.4375 5.041667 " transform="matrix(0.1875,0,0,0.1875,0,0)"/>
<g clip-path="url(#clip1)" clip-rule="nonzero">
<g clip-path="url(#clip2)" clip-rule="nonzero">
<path style=" stroke:none;fill-rule:nonzero;fill:rgb(92.54902%,75.686275%,18.431373%);fill-opacity:1;" d="M 12.058594 5.074219 C 12.058594 5.074219 16.449219 5.074219 16.449219 7.929688 L 16.449219 10.445312 C 16.449219 10.445312 17.914062 10.445312 17.914062 11.421875 L 17.914062 16.496094 C 17.914062 17.765625 16.449219 17.765625 16.449219 17.765625 L 7.664062 17.765625 C 7.664062 17.765625 6.199219 17.765625 6.199219 16.496094 L 6.199219 11.421875 C 6.199219 10.445312 7.664062 10.445312 7.664062 10.445312 L 7.664062 7.929688 C 7.664062 5.074219 12.058594 5.074219 12.058594 5.074219 M 12.058594 6.664062 C 12.058594 6.664062 9.617188 6.589844 9.617188 8.492188 L 9.617188 10.445312 L 14.496094 10.445312 L 14.496094 8.492188 C 14.496094 6.589844 12.058594 6.664062 12.058594 6.664062 M 12.058594 6.664062 "/>
</g>
</g>
</g>
</svg>
