
<svg xmlns="http://www.w3.org/2000/svg" xmlns:xlink="http://www.w3.org/1999/xlink" width="24px" height="24px" viewBox="0 0 24 24" version="1.1">
<g id="surface1">
<path style="fill-rule:nonzero;fill:rgb(100%,100%,100%);fill-opacity:1;stroke-width:27.910587;stroke-linecap:butt;stroke-linejoin:miter;stroke:rgb(9.019608%,36.862745%,60%);stroke-opacity:1;stroke-miterlimit:4;" d="M 84.941668 32.983893 L 430.441668 32.983893 C 461.275001 32.983893 486.275001 57.983893 486.275001 88.817226 L 486.275001 434.317226 C 486.275001 465.150559 461.275001 490.150559 430.441668 490.150559 L 84.941668 490.150559 C 54.108335 490.150559 29.108335 465.150559 29.108335 434.317226 L 29.108335 88.817226 C 29.108335 57.983893 54.108335 32.983893 84.941668 32.983893 Z M 84.941668 32.983893 " transform="matrix(0.046875,0,0,0.046875,-0.0792969,-0.260964)"/>
<path style=" stroke:none;fill-rule:nonzero;fill:rgb(29.019608%,68.235294%,90.980392%);fill-opacity:1;" d="M 4.292969 1.941406 C 3.355469 1.949219 2.640625 2.925781 2.777344 3.882812 C 2.78125 9.445312 2.769531 15.011719 2.785156 20.574219 C 2.851562 21.515625 3.75 22.1875 4.617188 22.058594 C 9.96875 22.054688 15.316406 22.070312 20.667969 22.050781 C 21.5625 21.980469 22.195312 21.03125 22.078125 20.117188 C 22.078125 16.707031 22.078125 13.296875 22.078125 9.882812 C 21.714844 9.035156 20.84375 8.515625 20.28125 7.800781 C 18.441406 5.886719 16.613281 3.957031 14.761719 2.058594 C 14.246094 1.824219 13.648438 1.988281 13.097656 1.941406 C 10.160156 1.941406 7.226562 1.941406 4.292969 1.941406 Z M 16.867188 1.941406 C 16.511719 1.96875 16.492188 2.488281 16.785156 2.636719 C 18.394531 4.300781 19.976562 5.992188 21.601562 7.636719 C 21.914062 7.8125 22.171875 7.414062 22.078125 7.109375 C 22.054688 5.828125 22.121094 4.539062 22.042969 3.265625 C 21.898438 2.367188 21.003906 1.816406 20.179688 1.941406 C 19.074219 1.941406 17.972656 1.941406 16.867188 1.941406 Z M 16.867188 1.941406 "/>
<path style=" stroke:none;fill-rule:nonzero;fill:rgb(9.019608%,36.862745%,60%);fill-opacity:1;" d="M 1.726562 1.488281 L 5.582031 1.488281 L 5.582031 22.265625 L 1.726562 22.265625 Z M 1.726562 1.488281 "/>
<path style=" stroke:none;fill-rule:nonzero;fill:rgb(100%,100%,100%);fill-opacity:1;" d="M 9.546875 18 L 10.367188 18 L 12.398438 11.308594 L 14.464844 18 L 15.296875 18 L 17.242188 10.453125 L 18.0625 10.285156 L 18.0625 9.792969 L 15.53125 9.792969 L 15.53125 10.285156 L 16.347656 10.429688 L 16.484375 10.601562 L 15.003906 16.335938 L 12.996094 9.792969 L 12.140625 9.792969 L 10.171875 16.203125 L 8.59375 10.550781 L 8.691406 10.382812 L 9.464844 10.285156 L 9.464844 9.792969 L 6.722656 9.792969 L 6.722656 10.285156 L 7.496094 10.453125 Z M 9.546875 18 "/>
</g>
</svg>
