
<svg xmlns="http://www.w3.org/2000/svg" xmlns:xlink="http://www.w3.org/1999/xlink" width="24px" height="24px" viewBox="0 0 24 24" version="1.1">
<g id="surface1">
<path style="fill-rule:nonzero;fill:rgb(30.196078%,30.196078%,30.196078%);fill-opacity:1;stroke-width:54.653637;stroke-linecap:butt;stroke-linejoin:miter;stroke:rgb(16.862745%,30.980392%,51.372549%);stroke-opacity:1;stroke-miterlimit:4;" d="M 173.666667 64.333333 L 850.333333 64.333333 C 910.666667 64.333333 959.666667 113.333333 959.666667 173.666667 L 959.666667 850.333333 C 959.666667 910.666667 910.666667 959.666667 850.333333 959.666667 L 173.666667 959.666667 C 113.333333 959.666667 64.333333 910.666667 64.333333 850.333333 L 64.333333 173.666667 C 64.333333 113.333333 113.333333 64.333333 173.666667 64.333333 Z M 173.666667 64.333333 " transform="matrix(0.0234375,0,0,0.0234375,0,0)"/>
<path style=" stroke:none;fill-rule:nonzero;fill:rgb(25.098039%,30.980392%,52.54902%);fill-opacity:1;" d="M 16.847656 3.609375 C 16.644531 3.492188 16.429688 3.464844 16.203125 3.527344 L 6.707031 6.070312 L 17.957031 6.800781 L 17.238281 4.121094 C 17.179688 3.894531 17.046875 3.726562 16.847656 3.609375 Z M 6.761719 19.878906 C 6.824219 20.105469 6.953125 20.277344 7.15625 20.394531 C 7.359375 20.511719 7.574219 20.539062 7.796875 20.476562 L 17.441406 17.894531 L 6.050781 17.214844 Z M 6.761719 19.878906 "/>
<path style=" stroke:none;fill-rule:nonzero;fill:rgb(34.901961%,71.764706%,89.803922%);fill-opacity:1;" d="M 19.882812 17.242188 C 20.105469 17.179688 20.277344 17.050781 20.394531 16.847656 C 20.507812 16.644531 20.539062 16.429688 20.476562 16.203125 L 17.957031 6.800781 L 6.707031 6.070312 L 4.121094 6.761719 C 3.898438 6.824219 3.726562 6.953125 3.609375 7.15625 C 3.492188 7.359375 3.464844 7.574219 3.523438 7.796875 L 6.050781 17.214844 L 17.441406 17.894531 Z M 19.882812 17.242188 "/>
<path style=" stroke:none;fill-rule:nonzero;fill:rgb(100%,100%,100%);fill-opacity:1;" d="M 17.90625 6.796875 C 17.90625 6.605469 17.839844 6.4375 17.703125 6.300781 C 17.5625 6.164062 17.398438 6.09375 17.203125 6.09375 L 6.796875 6.09375 C 6.605469 6.09375 6.4375 6.164062 6.300781 6.300781 C 6.164062 6.4375 6.09375 6.605469 6.09375 6.796875 L 6.09375 17.203125 C 6.09375 17.398438 6.164062 17.5625 6.300781 17.703125 C 6.4375 17.839844 6.605469 17.90625 6.796875 17.90625 L 17.203125 17.90625 C 17.398438 17.90625 17.5625 17.839844 17.703125 17.703125 C 17.839844 17.5625 17.90625 17.398438 17.90625 17.203125 Z M 17.90625 6.796875 "/>
<path style=" stroke:none;fill-rule:nonzero;fill:rgb(25.882353%,32.54902%,51.764706%);fill-opacity:1;" d="M 10.683594 9.28125 C 10.566406 9.199219 10.4375 9.167969 10.296875 9.183594 C 10.15625 9.203125 10.039062 9.265625 9.941406 9.371094 C 9.847656 9.476562 9.800781 9.601562 9.800781 9.746094 L 9.800781 14.257812 C 9.800781 14.398438 9.847656 14.523438 9.941406 14.632812 C 10.039062 14.738281 10.15625 14.800781 10.296875 14.820312 C 10.4375 14.835938 10.566406 14.804688 10.683594 14.722656 L 13.957031 12.464844 C 14.0625 12.394531 14.132812 12.296875 14.171875 12.179688 C 14.214844 12.0625 14.214844 11.941406 14.171875 11.824219 C 14.132812 11.703125 14.0625 11.609375 13.960938 11.535156 Z M 10.683594 9.28125 "/>
</g>
</svg>
