<!-- color: #9ac9e8 -->
<svg xmlns="http://www.w3.org/2000/svg" xmlns:xlink="http://www.w3.org/1999/xlink" width="24px" height="24px" viewBox="0 0 24 24" version="1.1">
<defs>
<clipPath id="clip1">
  <path d="M 14.0625 16.921875 L 17.578125 16.921875 L 17.578125 21.421875 L 14.0625 21.421875 Z M 14.0625 16.921875 "/>
</clipPath>
<clipPath id="clip2">
  <path d="M 26.929688 12.40625 C 26.929688 20.578125 20.304688 27.195312 12.140625 27.195312 C 3.972656 27.195312 -2.652344 20.578125 -2.652344 12.40625 C -2.652344 4.234375 3.972656 -2.386719 12.140625 -2.386719 C 20.304688 -2.386719 26.929688 4.234375 26.929688 12.40625 Z M 26.929688 12.40625 "/>
</clipPath>
<clipPath id="clip3">
  <path d="M 6.328125 16.921875 L 9.890625 16.921875 L 9.890625 21.421875 L 6.328125 21.421875 Z M 6.328125 16.921875 "/>
</clipPath>
<clipPath id="clip4">
  <path d="M 26.929688 12.40625 C 26.929688 20.578125 20.304688 27.195312 12.140625 27.195312 C 3.972656 27.195312 -2.652344 20.578125 -2.652344 12.40625 C -2.652344 4.234375 3.972656 -2.386719 12.140625 -2.386719 C 20.304688 -2.386719 26.929688 4.234375 26.929688 12.40625 Z M 26.929688 12.40625 "/>
</clipPath>
<clipPath id="clip5">
  <path d="M 14.90625 4.171875 L 19.875 4.171875 L 19.875 9.234375 L 14.90625 9.234375 Z M 14.90625 4.171875 "/>
</clipPath>
<clipPath id="clip6">
  <path d="M 26.929688 12.40625 C 26.929688 20.578125 20.304688 27.195312 12.140625 27.195312 C 3.972656 27.195312 -2.652344 20.578125 -2.652344 12.40625 C -2.652344 4.234375 3.972656 -2.386719 12.140625 -2.386719 C 20.304688 -2.386719 26.929688 4.234375 26.929688 12.40625 Z M 26.929688 12.40625 "/>
</clipPath>
<clipPath id="clip7">
  <path d="M 4.40625 4.21875 L 9.375 4.21875 L 9.375 9.234375 L 4.40625 9.234375 Z M 4.40625 4.21875 "/>
</clipPath>
<clipPath id="clip8">
  <path d="M 26.929688 12.40625 C 26.929688 20.578125 20.304688 27.195312 12.140625 27.195312 C 3.972656 27.195312 -2.652344 20.578125 -2.652344 12.40625 C -2.652344 4.234375 3.972656 -2.386719 12.140625 -2.386719 C 20.304688 -2.386719 26.929688 4.234375 26.929688 12.40625 Z M 26.929688 12.40625 "/>
</clipPath>
<clipPath id="clip9">
  <path d="M 10.171875 2.71875 L 14.109375 2.71875 L 14.109375 6.65625 L 10.171875 6.65625 Z M 10.171875 2.71875 "/>
</clipPath>
<clipPath id="clip10">
  <path d="M 26.929688 12.40625 C 26.929688 20.578125 20.304688 27.195312 12.140625 27.195312 C 3.972656 27.195312 -2.652344 20.578125 -2.652344 12.40625 C -2.652344 4.234375 3.972656 -2.386719 12.140625 -2.386719 C 20.304688 -2.386719 26.929688 4.234375 26.929688 12.40625 Z M 26.929688 12.40625 "/>
</clipPath>
<clipPath id="clip11">
  <path d="M 4.40625 4.03125 L 19.875 4.03125 L 19.875 19.5 L 4.40625 19.5 Z M 4.40625 4.03125 "/>
</clipPath>
<clipPath id="clip12">
  <path d="M 26.929688 12.40625 C 26.929688 20.578125 20.304688 27.195312 12.140625 27.195312 C 3.972656 27.195312 -2.652344 20.578125 -2.652344 12.40625 C -2.652344 4.234375 3.972656 -2.386719 12.140625 -2.386719 C 20.304688 -2.386719 26.929688 4.234375 26.929688 12.40625 Z M 26.929688 12.40625 "/>
</clipPath>
<clipPath id="clip13">
  <path d="M 5.671875 5.296875 L 18.609375 5.296875 L 18.609375 18.234375 L 5.671875 18.234375 Z M 5.671875 5.296875 "/>
</clipPath>
<clipPath id="clip14">
  <path d="M 26.929688 12.40625 C 26.929688 20.578125 20.304688 27.195312 12.140625 27.195312 C 3.972656 27.195312 -2.652344 20.578125 -2.652344 12.40625 C -2.652344 4.234375 3.972656 -2.386719 12.140625 -2.386719 C 20.304688 -2.386719 26.929688 4.234375 26.929688 12.40625 Z M 26.929688 12.40625 "/>
</clipPath>
<clipPath id="clip15">
  <path d="M 11.484375 6.609375 L 12.796875 6.609375 L 12.796875 11.15625 L 11.484375 11.15625 Z M 11.484375 6.609375 "/>
</clipPath>
<clipPath id="clip16">
  <path d="M 26.929688 12.40625 C 26.929688 20.578125 20.304688 27.195312 12.140625 27.195312 C 3.972656 27.195312 -2.652344 20.578125 -2.652344 12.40625 C -2.652344 4.234375 3.972656 -2.386719 12.140625 -2.386719 C 20.304688 -2.386719 26.929688 4.234375 26.929688 12.40625 Z M 26.929688 12.40625 "/>
</clipPath>
<clipPath id="clip17">
  <path d="M 11.484375 12.046875 L 15.09375 12.046875 L 15.09375 15.65625 L 11.484375 15.65625 Z M 11.484375 12.046875 "/>
</clipPath>
<clipPath id="clip18">
  <path d="M 26.929688 12.40625 C 26.929688 20.578125 20.304688 27.195312 12.140625 27.195312 C 3.972656 27.195312 -2.652344 20.578125 -2.652344 12.40625 C -2.652344 4.234375 3.972656 -2.386719 12.140625 -2.386719 C 20.304688 -2.386719 26.929688 4.234375 26.929688 12.40625 Z M 26.929688 12.40625 "/>
</clipPath>
<clipPath id="clip19">
  <path d="M 10.828125 10.453125 L 13.453125 10.453125 L 13.453125 13.078125 L 10.828125 13.078125 Z M 10.828125 10.453125 "/>
</clipPath>
<clipPath id="clip20">
  <path d="M 26.929688 12.40625 C 26.929688 20.578125 20.304688 27.195312 12.140625 27.195312 C 3.972656 27.195312 -2.652344 20.578125 -2.652344 12.40625 C -2.652344 4.234375 3.972656 -2.386719 12.140625 -2.386719 C 20.304688 -2.386719 26.929688 4.234375 26.929688 12.40625 Z M 26.929688 12.40625 "/>
</clipPath>
</defs>
<g id="surface1">
<path style="fill-rule:nonzero;fill:rgb(100%,100%,100%);fill-opacity:1;stroke-width:7.175771;stroke-linecap:butt;stroke-linejoin:miter;stroke:rgb(19.215686%,21.176471%,27.843137%);stroke-opacity:1;stroke-miterlimit:4;" d="M 19.583333 5.229167 L 108.416667 5.229167 C 116.354167 5.229167 122.770833 11.645833 122.770833 19.583333 L 122.770833 108.416667 C 122.770833 116.354167 116.354167 122.770833 108.416667 122.770833 L 19.583333 122.770833 C 11.645833 122.770833 5.229167 116.354167 5.229167 108.416667 L 5.229167 19.583333 C 5.229167 11.645833 11.645833 5.229167 19.583333 5.229167 Z M 19.583333 5.229167 " transform="matrix(0.1875,0,0,0.1875,0,0)"/>
<g clip-path="url(#clip1)" clip-rule="nonzero">
<g clip-path="url(#clip2)" clip-rule="nonzero">
<path style=" stroke:none;fill-rule:nonzero;fill:rgb(92.941176%,85.098039%,21.568627%);fill-opacity:1;" d="M 14.339844 17.078125 C 14.054688 17.28125 13.980469 17.683594 14.1875 17.972656 L 16.398438 21.136719 C 16.601562 21.425781 17.003906 21.5 17.292969 21.292969 C 17.585938 21.089844 17.65625 20.6875 17.453125 20.398438 L 15.238281 17.238281 C 15.035156 16.945312 14.632812 16.875 14.339844 17.078125 M 14.339844 17.078125 "/>
</g>
</g>
<g clip-path="url(#clip3)" clip-rule="nonzero">
<g clip-path="url(#clip4)" clip-rule="nonzero">
<path style=" stroke:none;fill-rule:nonzero;fill:rgb(92.941176%,85.098039%,21.568627%);fill-opacity:1;" d="M 9.578125 17.078125 C 9.871094 17.28125 9.941406 17.683594 9.738281 17.972656 L 7.523438 21.136719 C 7.320312 21.425781 6.917969 21.5 6.628906 21.292969 C 6.339844 21.089844 6.265625 20.6875 6.472656 20.398438 L 8.683594 17.238281 C 8.886719 16.945312 9.289062 16.875 9.578125 17.078125 M 9.578125 17.078125 "/>
</g>
</g>
<g clip-path="url(#clip5)" clip-rule="nonzero">
<g clip-path="url(#clip6)" clip-rule="nonzero">
<path style=" stroke:none;fill-rule:nonzero;fill:rgb(100%,89.803922%,9.803922%);fill-opacity:1;" d="M 15.082031 7.605469 L 17.753906 9.148438 C 17.9375 9.25 18.199219 9.152344 18.332031 8.921875 L 19.777344 6.414062 C 19.910156 6.183594 19.867188 5.910156 19.683594 5.804688 L 17.011719 4.261719 C 16.824219 4.15625 16.570312 4.253906 16.4375 4.488281 L 14.988281 6.992188 C 14.855469 7.222656 14.894531 7.496094 15.082031 7.605469 M 15.082031 7.605469 "/>
</g>
</g>
<g clip-path="url(#clip7)" clip-rule="nonzero">
<g clip-path="url(#clip8)" clip-rule="nonzero">
<path style=" stroke:none;fill-rule:nonzero;fill:rgb(100%,89.803922%,9.803922%);fill-opacity:1;" d="M 4.59375 5.804688 L 7.265625 4.261719 C 7.453125 4.15625 7.707031 4.257812 7.839844 4.488281 L 9.289062 6.992188 C 9.421875 7.222656 9.382812 7.496094 9.195312 7.605469 L 6.523438 9.148438 C 6.339844 9.253906 6.078125 9.152344 5.945312 8.921875 L 4.5 6.414062 C 4.367188 6.183594 4.410156 5.910156 4.59375 5.804688 M 4.59375 5.804688 "/>
</g>
</g>
<g clip-path="url(#clip9)" clip-rule="nonzero">
<g clip-path="url(#clip10)" clip-rule="nonzero">
<path style=" stroke:none;fill-rule:nonzero;fill:rgb(95.686275%,34.901961%,51.764706%);fill-opacity:1;" d="M 14.066406 4.6875 C 14.066406 5.753906 13.203125 6.617188 12.140625 6.617188 C 11.074219 6.617188 10.210938 5.753906 10.210938 4.6875 C 10.210938 3.625 11.074219 2.757812 12.140625 2.757812 C 13.203125 2.757812 14.066406 3.625 14.066406 4.6875 M 14.066406 4.6875 "/>
</g>
</g>
<g clip-path="url(#clip11)" clip-rule="nonzero">
<g clip-path="url(#clip12)" clip-rule="nonzero">
<path style=" stroke:none;fill-rule:nonzero;fill:rgb(23.529412%,31.764706%,35.686275%);fill-opacity:1;" d="M 19.855469 11.761719 C 19.855469 16.023438 16.402344 19.476562 12.140625 19.476562 C 7.875 19.476562 4.421875 16.023438 4.421875 11.761719 C 4.421875 7.5 7.875 4.046875 12.140625 4.046875 C 16.402344 4.046875 19.855469 7.5 19.855469 11.761719 M 19.855469 11.761719 "/>
</g>
</g>
<g clip-path="url(#clip13)" clip-rule="nonzero">
<g clip-path="url(#clip14)" clip-rule="nonzero">
<path style=" stroke:none;fill-rule:nonzero;fill:rgb(94.901961%,94.901961%,86.666667%);fill-opacity:1;" d="M 18.570312 11.761719 C 18.570312 15.3125 15.691406 18.191406 12.140625 18.191406 C 8.585938 18.191406 5.707031 15.3125 5.707031 11.761719 C 5.707031 8.210938 8.585938 5.332031 12.140625 5.332031 C 15.691406 5.332031 18.570312 8.210938 18.570312 11.761719 M 18.570312 11.761719 "/>
</g>
</g>
<g clip-path="url(#clip15)" clip-rule="nonzero">
<g clip-path="url(#clip16)" clip-rule="nonzero">
<path style=" stroke:none;fill-rule:nonzero;fill:rgb(12.54902%,78.431373%,48.627451%);fill-opacity:1;" d="M 12.140625 6.617188 C 12.492188 6.617188 12.78125 6.90625 12.78125 7.261719 L 12.78125 10.476562 C 12.78125 10.828125 12.492188 11.117188 12.140625 11.117188 C 11.785156 11.117188 11.496094 10.828125 11.496094 10.476562 L 11.496094 7.261719 C 11.496094 6.90625 11.785156 6.617188 12.140625 6.617188 M 12.140625 6.617188 "/>
</g>
</g>
<g clip-path="url(#clip17)" clip-rule="nonzero">
<g clip-path="url(#clip18)" clip-rule="nonzero">
<path style=" stroke:none;fill-rule:nonzero;fill:rgb(12.54902%,78.431373%,48.627451%);fill-opacity:1;" d="M 11.683594 12.25 C 11.9375 11.996094 12.34375 11.996094 12.59375 12.25 L 14.867188 14.523438 C 15.117188 14.773438 15.117188 15.179688 14.867188 15.433594 C 14.613281 15.683594 14.207031 15.683594 13.957031 15.433594 L 11.683594 13.160156 C 11.433594 12.90625 11.433594 12.5 11.683594 12.25 M 11.683594 12.25 "/>
</g>
</g>
<g clip-path="url(#clip19)" clip-rule="nonzero">
<g clip-path="url(#clip20)" clip-rule="nonzero">
<path style=" stroke:none;fill-rule:nonzero;fill:rgb(33.72549%,40.392157%,57.254902%);fill-opacity:1;" d="M 13.425781 11.761719 C 13.425781 12.472656 12.847656 13.046875 12.140625 13.046875 C 11.429688 13.046875 10.851562 12.472656 10.851562 11.761719 C 10.851562 11.050781 11.429688 10.476562 12.140625 10.476562 C 12.847656 10.476562 13.425781 11.050781 13.425781 11.761719 M 13.425781 11.761719 "/>
</g>
</g>
</g>
</svg>
