
<svg xmlns="http://www.w3.org/2000/svg" xmlns:xlink="http://www.w3.org/1999/xlink" width="24px" height="24px" viewBox="0 0 24 24" version="1.1">
<g id="surface1">
<path style="fill-rule:nonzero;fill:rgb(100%,100%,100%);fill-opacity:1;stroke-width:27.460871;stroke-linecap:butt;stroke-linejoin:miter;stroke:rgb(29.019608%,80.392157%,20.784314%);stroke-opacity:1;stroke-miterlimit:4;" d="M 86 31.083333 L 426 31.083333 C 456.333333 31.083333 480.916667 55.666667 480.916667 86 L 480.916667 426 C 480.916667 456.333333 456.333333 480.916667 426 480.916667 L 86 480.916667 C 55.666667 480.916667 31.083333 456.333333 31.083333 426 L 31.083333 86 C 31.083333 55.666667 55.666667 31.083333 86 31.083333 Z M 86 31.083333 " transform="matrix(0.046875,0,0,0.046875,0,0)"/>
<path style=" stroke:none;fill-rule:nonzero;fill:rgb(29.019608%,80.392157%,20.784314%);fill-opacity:1;" d="M 10.679688 20.042969 C 10.480469 19.875 10.472656 19.828125 10.472656 18.730469 L 10.472656 17.722656 L 10.21875 17.648438 C 9.695312 17.496094 9.515625 17.429688 9.066406 17.207031 C 8.8125 17.082031 8.59375 16.980469 8.578125 16.980469 C 8.566406 16.980469 8.226562 17.304688 7.824219 17.703125 C 7.058594 18.464844 7.074219 18.453125 6.78125 18.429688 C 6.609375 18.414062 6.496094 18.324219 5.84375 17.660156 C 4.914062 16.722656 4.914062 16.769531 5.921875 15.761719 C 6.308594 15.371094 6.625 15.042969 6.625 15.027344 C 6.625 15.015625 6.566406 14.90625 6.496094 14.789062 C 6.304688 14.464844 6.066406 13.898438 5.964844 13.539062 C 5.914062 13.363281 5.855469 13.199219 5.835938 13.171875 C 5.8125 13.140625 5.566406 13.128906 4.832031 13.128906 C 3.757812 13.128906 3.695312 13.117188 3.542969 12.902344 C 3.464844 12.796875 3.460938 12.773438 3.460938 11.769531 C 3.460938 10.617188 3.464844 10.613281 3.730469 10.476562 C 3.855469 10.414062 3.945312 10.410156 4.835938 10.410156 C 5.566406 10.410156 5.8125 10.398438 5.839844 10.367188 C 5.859375 10.339844 5.910156 10.195312 5.949219 10.042969 C 6.042969 9.703125 6.296875 9.101562 6.484375 8.773438 C 6.5625 8.640625 6.625 8.519531 6.625 8.507812 C 6.625 8.496094 6.308594 8.167969 5.921875 7.777344 C 5.085938 6.941406 5.054688 6.882812 5.257812 6.503906 C 5.332031 6.363281 6.472656 5.238281 6.613281 5.167969 C 6.675781 5.136719 6.808594 5.109375 6.910156 5.109375 L 7.09375 5.109375 L 7.824219 5.835938 C 8.226562 6.234375 8.566406 6.558594 8.582031 6.558594 C 8.597656 6.558594 8.832031 6.449219 9.109375 6.3125 C 9.429688 6.15625 9.761719 6.023438 10.03125 5.945312 L 10.457031 5.824219 L 10.472656 4.789062 C 10.488281 3.902344 10.5 3.734375 10.550781 3.640625 C 10.675781 3.417969 10.679688 3.414062 11.84375 3.414062 C 13 3.414062 12.976562 3.410156 13.121094 3.640625 C 13.191406 3.753906 13.195312 3.808594 13.195312 4.765625 C 13.195312 5.515625 13.203125 5.78125 13.238281 5.820312 C 13.261719 5.851562 13.410156 5.914062 13.5625 5.960938 C 13.949219 6.074219 14.273438 6.207031 14.671875 6.417969 C 14.855469 6.515625 15.023438 6.59375 15.042969 6.59375 C 15.066406 6.59375 15.410156 6.265625 15.8125 5.863281 L 16.542969 5.132812 L 16.757812 5.117188 C 16.925781 5.105469 16.992188 5.117188 17.085938 5.175781 C 17.148438 5.214844 17.484375 5.53125 17.828125 5.878906 C 18.761719 6.820312 18.765625 6.765625 17.734375 7.796875 C 17.300781 8.226562 17.007812 8.546875 17.007812 8.585938 C 17.007812 8.621094 17.054688 8.738281 17.117188 8.839844 C 17.285156 9.132812 17.515625 9.691406 17.609375 10.019531 C 17.652344 10.1875 17.707031 10.339844 17.726562 10.367188 C 17.75 10.398438 18.011719 10.410156 18.808594 10.410156 C 19.839844 10.410156 19.859375 10.410156 19.980469 10.488281 C 20.042969 10.53125 20.128906 10.632812 20.167969 10.710938 C 20.234375 10.839844 20.238281 10.921875 20.238281 11.769531 C 20.238281 12.617188 20.234375 12.699219 20.167969 12.828125 C 20.128906 12.90625 20.042969 13.003906 19.980469 13.050781 C 19.859375 13.128906 19.839844 13.128906 18.828125 13.128906 C 18.058594 13.128906 17.785156 13.140625 17.742188 13.171875 C 17.714844 13.199219 17.652344 13.347656 17.613281 13.503906 C 17.53125 13.808594 17.289062 14.398438 17.113281 14.710938 C 17.054688 14.8125 17.007812 14.921875 17.007812 14.957031 C 17.007812 14.988281 17.339844 15.351562 17.746094 15.757812 C 18.773438 16.792969 18.773438 16.726562 17.746094 17.742188 C 17.046875 18.433594 16.976562 18.480469 16.691406 18.425781 C 16.554688 18.402344 16.46875 18.328125 15.8125 17.671875 C 15.410156 17.269531 15.070312 16.945312 15.054688 16.945312 C 15.039062 16.945312 14.78125 17.0625 14.488281 17.207031 C 14.195312 17.351562 13.800781 17.511719 13.617188 17.566406 C 13.433594 17.617188 13.261719 17.6875 13.238281 17.714844 C 13.203125 17.757812 13.195312 18.023438 13.195312 18.773438 C 13.195312 19.730469 13.191406 19.785156 13.121094 19.898438 C 12.976562 20.125 13.003906 20.121094 11.835938 20.121094 C 10.789062 20.121094 10.773438 20.121094 10.679688 20.042969 Z M 12.511719 15.761719 C 12.792969 15.707031 13.183594 15.578125 13.546875 15.417969 C 14.253906 15.101562 15.113281 14.253906 15.425781 13.554688 C 15.765625 12.792969 15.824219 12.523438 15.820312 11.714844 C 15.820312 11.167969 15.808594 11.058594 15.726562 10.757812 C 15.535156 10.03125 15.09375 9.296875 14.558594 8.796875 C 14.035156 8.308594 13.332031 7.933594 12.664062 7.789062 C 12.144531 7.679688 11.417969 7.679688 10.898438 7.789062 C 9.960938 7.992188 9 8.640625 8.433594 9.449219 C 8.195312 9.792969 7.917969 10.417969 7.820312 10.832031 C 7.703125 11.316406 7.703125 12.226562 7.820312 12.695312 C 7.917969 13.09375 8.167969 13.667969 8.386719 13.996094 C 8.746094 14.539062 9.480469 15.179688 10.007812 15.414062 C 10.351562 15.566406 10.769531 15.707031 11.023438 15.757812 C 11.359375 15.824219 12.164062 15.828125 12.511719 15.761719 Z M 12.511719 15.761719 "/>
</g>
</svg>
