
<svg xmlns="http://www.w3.org/2000/svg" xmlns:xlink="http://www.w3.org/1999/xlink" width="24px" height="24px" viewBox="0 0 24 24" version="1.1">
<g id="surface1">
<path style="fill-rule:nonzero;fill:rgb(100%,100%,100%);fill-opacity:1;stroke-width:28.330631;stroke-linecap:butt;stroke-linejoin:miter;stroke:rgb(29.019608%,30.980392%,32.941176%);stroke-opacity:1;stroke-miterlimit:4;" d="M 80.583333 23.916667 L 431.416667 23.916667 C 462.666667 23.916667 488.083333 49.333333 488.083333 80.583333 L 488.083333 431.416667 C 488.083333 462.666667 462.666667 488.083333 431.416667 488.083333 L 80.583333 488.083333 C 49.333333 488.083333 23.916667 462.666667 23.916667 431.416667 L 23.916667 80.583333 C 23.916667 49.333333 49.333333 23.916667 80.583333 23.916667 Z M 80.583333 23.916667 " transform="matrix(0.046875,0,0,0.046875,0,0)"/>
<path style=" stroke:none;fill-rule:nonzero;fill:rgb(29.019608%,30.980392%,32.941176%);fill-opacity:1;" d="M 11.382812 18.367188 C 10.53125 18.132812 9.835938 17.585938 9.449219 16.808594 C 9.273438 16.449219 9.046875 15.53125 9.105469 15.46875 C 9.121094 15.453125 9.449219 15.765625 9.632812 15.890625 C 9.816406 16.015625 9.980469 16.132812 9.980469 16.132812 C 10.003906 16.152344 10.28125 16.351562 10.65625 16.625 C 11.445312 17.210938 11.671875 17.273438 12.144531 17.277344 C 12.789062 17.28125 13.328125 17 13.671875 16.476562 C 13.980469 16.007812 14.070312 15.410156 13.914062 14.898438 C 13.75 14.351562 13.507812 14.089844 12.6875 13.566406 C 12.375 13.367188 12.058594 13.183594 11.976562 13.140625 C 11.90625 13.101562 11.453125 12.882812 11.28125 12.765625 C 11.175781 12.695312 11.042969 12.605469 11.054688 12.597656 C 11.148438 12.550781 11.335938 12.546875 11.617188 12.460938 L 11.785156 12.40625 L 12.234375 11.710938 C 12.476562 11.332031 12.722656 10.929688 12.789062 10.808594 C 12.917969 10.5625 13.078125 10.292969 13.105469 10.261719 C 13.121094 10.257812 13.148438 10.484375 13.160156 10.632812 C 13.222656 11.308594 13.589844 12.175781 14.058594 12.769531 C 14.699219 13.578125 15.765625 14.1875 16.734375 14.304688 C 16.863281 14.320312 16.984375 14.316406 16.984375 14.332031 C 16.984375 14.375 16.652344 14.601562 16.542969 14.664062 C 16.503906 14.6875 16.15625 14.910156 15.78125 15.171875 L 15.101562 15.648438 L 15.035156 15.996094 C 14.820312 17.09375 14.082031 17.953125 13.046875 18.308594 C 12.601562 18.464844 11.828125 18.488281 11.382812 18.367188 Z M 11.382812 18.367188 "/>
<path style=" stroke:none;fill-rule:nonzero;fill:rgb(29.019608%,30.980392%,32.941176%);fill-opacity:1;" d="M 4.828125 13.910156 C 3.460938 13.671875 2.488281 12.546875 2.335938 11.1875 C 2.171875 9.710938 3.042969 8.40625 4.472656 7.953125 C 4.863281 7.828125 5.636719 7.820312 6.039062 7.929688 C 6.574219 8.078125 7.078125 8.390625 7.464844 8.796875 C 7.6875 9.03125 7.84375 9.308594 8.015625 9.578125 C 8.203125 9.875 8.382812 10.789062 8.335938 10.832031 C 8.328125 10.84375 8.050781 10.523438 7.886719 10.394531 C 7.730469 10.273438 7.578125 10.140625 7.550781 10.125 C 7.527344 10.109375 7.226562 9.882812 6.863281 9.628906 C 6.09375 9.097656 5.804688 9.011719 5.347656 9.011719 C 4.847656 9.011719 4.4375 9.167969 4.101562 9.488281 C 3.425781 10.132812 3.304688 11.125 3.8125 11.898438 C 3.960938 12.128906 4.207031 12.367188 4.40625 12.472656 C 4.679688 12.617188 6.457031 13.683594 6.460938 13.734375 C 6.464844 13.785156 6.183594 13.878906 5.84375 13.917969 C 5.476562 13.960938 5.039062 13.945312 4.828125 13.910156 Z M 4.828125 13.910156 "/>
<path style=" stroke:none;fill-rule:nonzero;fill:rgb(56.862745%,69.019608%,90.980392%);fill-opacity:1;" d="M 17.214844 6.226562 C 16.578125 6.222656 16.1875 6.289062 15.671875 6.496094 C 14.253906 7.058594 13.238281 8.433594 13.144531 9.910156 C 13.132812 10.082031 13.128906 10.179688 13.101562 10.261719 C 13.101562 10.261719 13.105469 10.261719 13.105469 10.261719 C 13.121094 10.257812 13.148438 10.484375 13.160156 10.632812 C 13.222656 11.308594 13.589844 12.175781 14.058594 12.769531 C 14.699219 13.578125 15.765625 14.1875 16.734375 14.304688 C 16.855469 14.316406 16.96875 14.316406 16.980469 14.332031 C 17.058594 14.300781 17.179688 14.289062 17.4375 14.277344 C 18.402344 14.226562 19.304688 13.820312 20.011719 13.117188 C 21.222656 11.914062 21.546875 10.089844 20.824219 8.546875 C 20.308594 7.445312 19.351562 6.652344 18.160156 6.335938 C 17.828125 6.246094 17.675781 6.230469 17.214844 6.226562 Z M 5.347656 9.011719 C 4.847656 9.011719 4.4375 9.167969 4.101562 9.488281 C 3.425781 10.132812 3.304688 11.125 3.8125 11.898438 C 3.960938 12.128906 4.207031 12.367188 4.40625 12.472656 C 4.679688 12.617188 6.457031 13.683594 6.460938 13.734375 C 6.460938 13.734375 6.460938 13.734375 6.460938 13.738281 L 6.476562 13.730469 L 6.972656 14.058594 C 7.25 14.234375 7.839844 14.625 8.285156 14.921875 L 9.097656 15.464844 L 9.101562 15.484375 C 9.101562 15.476562 9.105469 15.472656 9.105469 15.46875 C 9.121094 15.453125 9.449219 15.765625 9.632812 15.890625 C 9.816406 16.015625 9.980469 16.132812 9.980469 16.132812 C 10.003906 16.152344 10.28125 16.351562 10.65625 16.625 C 11.445312 17.210938 11.671875 17.273438 12.144531 17.277344 C 12.789062 17.28125 13.328125 17 13.671875 16.476562 C 13.980469 16.007812 14.070312 15.410156 13.914062 14.898438 C 13.75 14.351562 13.507812 14.089844 12.6875 13.566406 C 12.375 13.367188 12.058594 13.183594 11.976562 13.140625 C 11.90625 13.101562 11.453125 12.882812 11.28125 12.765625 C 11.179688 12.695312 11.046875 12.609375 11.054688 12.597656 C 10.925781 12.550781 10.53125 12.300781 9.679688 11.734375 L 8.339844 10.835938 L 8.339844 10.832031 C 8.339844 10.832031 8.339844 10.832031 8.335938 10.832031 C 8.328125 10.84375 8.050781 10.523438 7.886719 10.394531 C 7.730469 10.273438 7.578125 10.140625 7.550781 10.125 C 7.527344 10.109375 7.226562 9.882812 6.863281 9.628906 C 6.09375 9.097656 5.804688 9.011719 5.347656 9.011719 Z M 8.214844 10.105469 C 8.242188 10.199219 8.265625 10.292969 8.28125 10.386719 C 8.265625 10.289062 8.242188 10.195312 8.214844 10.105469 Z M 12.601562 11.121094 C 12.558594 11.195312 12.527344 11.242188 12.480469 11.320312 C 12.523438 11.25 12.566406 11.183594 12.601562 11.121094 Z M 9.144531 15.832031 C 9.179688 16.078125 9.25 16.316406 9.34375 16.542969 C 9.265625 16.320312 9.1875 16.046875 9.144531 15.832031 Z M 9.144531 15.832031 "/>
<path style=" stroke:none;fill-rule:nonzero;fill:rgb(29.019608%,30.980392%,32.941176%);fill-opacity:1;" d="M 16.617188 12.871094 C 16.023438 12.738281 15.398438 12.335938 15.046875 11.859375 C 14.625 11.296875 14.445312 10.710938 14.476562 10.011719 C 14.527344 8.871094 15.253906 7.886719 16.320312 7.515625 C 16.628906 7.40625 16.703125 7.398438 17.21875 7.402344 C 17.75 7.402344 17.800781 7.410156 18.113281 7.53125 C 18.808594 7.796875 19.320312 8.261719 19.632812 8.910156 C 19.867188 9.390625 19.945312 9.769531 19.917969 10.300781 C 19.859375 11.46875 19.121094 12.441406 18.023438 12.796875 C 17.609375 12.929688 17.023438 12.960938 16.617188 12.871094 Z M 16.617188 12.871094 "/>
</g>
</svg>
