
<svg xmlns="http://www.w3.org/2000/svg" xmlns:xlink="http://www.w3.org/1999/xlink" width="24px" height="24px" viewBox="0 0 24 24" version="1.1">
<g id="surface1">
<path style="fill-rule:nonzero;fill:rgb(100%,100%,100%);fill-opacity:1;stroke-width:2.650535;stroke-linecap:butt;stroke-linejoin:miter;stroke:rgb(46.666667%,67.843137%,100%);stroke-opacity:1;stroke-miterlimit:4;" d="M 371.467075 436.607881 L 404.35427 436.607881 C 407.28894 436.607881 409.672868 438.980622 409.672868 441.901522 L 409.672868 474.63439 C 409.672868 477.55529 407.28894 479.928031 404.35427 479.928031 L 371.467075 479.928031 C 368.532405 479.928031 366.148477 477.55529 366.148477 474.63439 L 366.148477 441.901522 C 366.148477 438.980622 368.532405 436.607881 371.467075 436.607881 Z M 371.467075 436.607881 " transform="matrix(0.496489,0,0,0.49883,-180.593321,-216.59764)"/>
<path style=" stroke:none;fill-rule:nonzero;fill:rgb(46.666667%,67.843137%,100%);fill-opacity:1;" d="M 12.003906 3 C 7.042969 3.027344 3.027344 7.042969 3 12.003906 L 7.214844 12.003906 C 7.242188 9.371094 9.371094 7.242188 12.003906 7.214844 Z M 12.003906 3 "/>
<path style=" stroke:none;fill-rule:nonzero;fill:rgb(20.392157%,28.627451%,36.862745%);fill-opacity:1;" d="M 11.996094 3 L 11.996094 7.214844 C 14.628906 7.242188 16.757812 9.371094 16.785156 12.003906 L 21 12.003906 C 20.972656 7.042969 16.957031 3.027344 11.996094 3 Z M 11.996094 3 "/>
<path style=" stroke:none;fill-rule:nonzero;fill:rgb(53.333333%,78.823529%,25.490196%);fill-opacity:1;" d="M 3 11.996094 C 3.027344 16.957031 7.042969 20.972656 12.003906 21 L 12.003906 16.785156 C 9.371094 16.757812 7.242188 14.628906 7.214844 11.996094 Z M 3 11.996094 "/>
<path style=" stroke:none;fill-rule:nonzero;fill:rgb(24.313725%,66.666667%,83.921569%);fill-opacity:1;" d="M 16.785156 11.996094 C 16.757812 14.628906 14.628906 16.757812 11.996094 16.785156 L 11.996094 21 C 16.957031 20.972656 20.972656 16.957031 21 11.996094 Z M 16.785156 11.996094 "/>
</g>
</svg>
