
<svg xmlns="http://www.w3.org/2000/svg" xmlns:xlink="http://www.w3.org/1999/xlink" width="24px" height="24px" viewBox="0 0 24 24" version="1.1">
<g id="surface1">
<path style=" stroke:none;fill-rule:nonzero;fill:rgb(60.784314%,82.352941%,12.156863%);fill-opacity:1;" d="M 3.765625 1.722656 L 20.273438 1.722656 C 21.523438 1.722656 22.539062 2.734375 22.539062 3.988281 L 22.539062 20.300781 C 22.539062 21.554688 21.523438 22.566406 20.273438 22.566406 L 3.765625 22.566406 C 2.515625 22.566406 1.5 21.554688 1.5 20.300781 L 1.5 3.988281 C 1.5 2.734375 2.515625 1.722656 3.765625 1.722656 Z M 3.765625 1.722656 "/>
<path style=" stroke:none;fill-rule:nonzero;fill:rgb(100%,100%,100%);fill-opacity:1;" d="M 17.964844 5.050781 C 16.632812 5.050781 15.957031 5.511719 15.425781 6.148438 C 14.898438 6.789062 14.578125 7.636719 14.214844 8.367188 C 13.96875 8.859375 13.421875 10.679688 12.921875 12.398438 C 12.671875 13.257812 12.417969 14.113281 12.183594 14.824219 C 11.945312 15.539062 11.769531 16.070312 11.496094 16.476562 C 11.046875 17.152344 10.328125 17.53125 9.601562 17.53125 C 9.347656 17.53125 9.09375 17.480469 8.851562 17.390625 C 9.710938 18.589844 11.695312 20.53125 14.015625 17.296875 C 15.625 15.054688 16.160156 10.222656 17.296875 8.402344 C 18.738281 6.089844 19.464844 6.636719 19.636719 6.832031 C 19.667969 6.640625 19.6875 6.445312 19.679688 6.253906 C 19.664062 5.90625 19.574219 5.640625 19.367188 5.441406 C 19.160156 5.246094 18.773438 5.050781 17.964844 5.050781 Z M 7.121094 7.09375 C 7.464844 7.480469 7.738281 7.972656 7.90625 8.554688 C 8.277344 9.851562 8.347656 11.464844 8.429688 12.886719 C 8.472656 13.59375 8.515625 14.253906 8.582031 14.773438 C 8.652344 15.292969 8.78125 15.675781 8.820312 15.734375 C 9.042969 16.066406 9.324219 16.191406 9.601562 16.191406 C 9.882812 16.191406 10.164062 16.066406 10.386719 15.734375 C 10.441406 15.648438 10.652344 15.164062 10.863281 14.554688 C 10.507812 14.40625 9.996094 13.578125 9.601562 10.414062 C 9.375 8.585938 8.042969 7.578125 7.121094 7.09375 Z M 5.011719 7.417969 C 4.84375 7.417969 4.699219 7.464844 4.585938 7.542969 C 4.433594 7.648438 4.300781 7.820312 4.242188 8.175781 L 4.207031 8.171875 C 4.230469 9.144531 4.871094 9.789062 4.871094 9.789062 C 4.871094 9.789062 4.871094 9.117188 5.542969 8.785156 C 5.902344 8.601562 6.351562 8.898438 6.691406 9.203125 C 6.667969 9.105469 6.644531 9.011719 6.617188 8.921875 C 6.347656 7.96875 5.695312 7.511719 5.191406 7.429688 C 5.128906 7.421875 5.070312 7.417969 5.011719 7.417969 Z M 5.011719 7.417969 "/>
</g>
</svg>
