
<svg xmlns="http://www.w3.org/2000/svg" xmlns:xlink="http://www.w3.org/1999/xlink" width="24px" height="24px" viewBox="0 0 24 24" version="1.1">
<defs>
<linearGradient id="linear0" gradientUnits="userSpaceOnUse" x1="1" y1="0" x2="47" y2="0" gradientTransform="matrix(0,-0.5,0.5,0,0.00110733,24.000001)">
<stop offset="0" style="stop-color:rgb(26.27451%,40.392157%,41.176471%);stop-opacity:1;"/>
<stop offset="1" style="stop-color:rgb(29.411765%,45.098039%,46.27451%);stop-opacity:1;"/>
</linearGradient>
</defs>
<g id="surface1">
<path style=" stroke:none;fill-rule:nonzero;fill:url(#linear0);" d="M 0.5 21.5 L 0.5 2.5 C 0.5 1.394531 1.394531 0.5 2.5 0.5 L 21.5 0.5 C 22.605469 0.5 23.5 1.394531 23.5 2.5 L 23.5 21.5 C 23.5 22.605469 22.605469 23.5 21.5 23.5 L 2.5 23.5 C 1.394531 23.5 0.5 22.605469 0.5 21.5 Z M 0.5 21.5 "/>
<path style="fill-rule:nonzero;fill:rgb(100%,100%,100%);fill-opacity:1;stroke-width:0.4;stroke-linecap:butt;stroke-linejoin:miter;stroke:rgb(100%,100%,100%);stroke-opacity:1;stroke-miterlimit:4;" d="M 23.593062 4.67767 L 24.406939 4.67767 C 25.751604 4.67767 26.844145 5.770211 26.848569 7.1193 L 26.848569 30.509407 C 26.848569 31.854073 25.756028 32.946614 24.406939 32.951037 L 23.593062 32.951037 C 22.243973 32.946614 21.151432 31.854073 21.151432 30.509407 L 21.151432 7.1193 C 21.155855 5.770211 22.248396 4.67767 23.593062 4.67767 Z M 23.593062 4.67767 " transform="matrix(0.44156,0.44156,-0.44156,0.44156,11.151635,-8.346493)"/>
<path style="fill-rule:nonzero;fill:rgb(100%,33.333333%,33.333333%);fill-opacity:1;stroke-width:0.383166;stroke-linecap:butt;stroke-linejoin:miter;stroke:rgb(100%,100%,100%);stroke-opacity:1;stroke-miterlimit:4;" d="M 27.10954 36.325971 C 27.113963 34.463786 25.716218 32.959884 24 32.959884 C 22.283782 32.959884 20.886037 34.463786 20.890461 36.325971 C 20.886037 38.188156 22.283782 39.692059 24 39.692059 C 25.716218 39.692059 27.113963 38.188156 27.10954 36.325971 Z M 27.10954 36.325971 " transform="matrix(0.44156,0.44156,-0.44156,0.44156,11.151635,-8.346493)"/>
<path style="fill-rule:nonzero;fill:rgb(100%,33.333333%,33.333333%);fill-opacity:1;stroke-width:0.271515;stroke-linecap:butt;stroke-linejoin:miter;stroke:rgb(100%,100%,100%);stroke-opacity:1;stroke-miterlimit:4;" d="M 23.584215 20.274024 L 24.415785 20.274024 C 25.795837 20.274024 26.910494 20.769427 26.914917 21.375411 L 26.910494 31.915998 C 26.914917 32.521983 25.795837 33.012962 24.415785 33.012962 L 23.584215 33.012962 C 22.204164 33.012962 21.085083 32.521983 21.089507 31.915998 L 21.085083 21.375411 C 21.089507 20.769427 22.204164 20.274024 23.584215 20.274024 Z M 23.584215 20.274024 " transform="matrix(0.44156,0.44156,-0.44156,0.44156,11.151635,-8.346493)"/>
<path style=" stroke:none;fill-rule:nonzero;fill:rgb(100%,33.333333%,33.333333%);fill-opacity:1;" d="M 8.253906 15.746094 C 8.472656 15.960938 8.164062 16.621094 7.570312 17.214844 L 7.367188 17.417969 C 6.773438 18.011719 6.113281 18.320312 5.898438 18.101562 C 5.679688 17.886719 5.988281 17.226562 6.582031 16.632812 L 6.785156 16.429688 C 7.378906 15.835938 8.039062 15.527344 8.253906 15.746094 Z M 8.253906 15.746094 "/>
<path style=" stroke:none;fill-rule:nonzero;fill:rgb(20%,20%,20%);fill-opacity:1;" d="M 18.378906 5.707031 L 19.417969 6.746094 C 19.445312 6.777344 19.445312 6.824219 19.417969 6.851562 L 19.378906 6.890625 C 19.351562 6.917969 19.304688 6.917969 19.273438 6.890625 L 18.238281 5.851562 C 18.207031 5.824219 18.207031 5.777344 18.238281 5.746094 L 18.273438 5.707031 C 18.304688 5.679688 18.351562 5.679688 18.378906 5.707031 Z M 18.378906 5.707031 "/>
<path style=" stroke:none;fill-rule:nonzero;fill:rgb(20%,20%,20%);fill-opacity:1;" d="M 17.890625 6.984375 L 18.554688 7.648438 C 18.574219 7.667969 18.5625 7.707031 18.535156 7.734375 L 18.496094 7.773438 C 18.46875 7.800781 18.429688 7.8125 18.410156 7.792969 L 17.746094 7.128906 C 17.726562 7.109375 17.734375 7.070312 17.765625 7.042969 L 17.804688 7.003906 C 17.832031 6.976562 17.871094 6.964844 17.890625 6.984375 Z M 17.890625 6.984375 "/>
<path style=" stroke:none;fill-rule:nonzero;fill:rgb(20%,20%,20%);fill-opacity:1;" d="M 16.613281 7.476562 L 17.652344 8.511719 C 17.679688 8.542969 17.679688 8.589844 17.652344 8.617188 L 17.613281 8.65625 C 17.585938 8.683594 17.539062 8.683594 17.507812 8.65625 L 16.46875 7.617188 C 16.441406 7.589844 16.441406 7.542969 16.46875 7.511719 L 16.507812 7.476562 C 16.539062 7.445312 16.585938 7.445312 16.613281 7.476562 Z M 16.613281 7.476562 "/>
<path style=" stroke:none;fill-rule:nonzero;fill:rgb(20%,20%,20%);fill-opacity:1;" d="M 16.121094 8.75 L 16.789062 9.414062 C 16.804688 9.433594 16.796875 9.472656 16.769531 9.5 L 16.730469 9.539062 C 16.703125 9.570312 16.664062 9.578125 16.644531 9.558594 L 15.980469 8.894531 C 15.960938 8.875 15.96875 8.835938 16 8.808594 L 16.039062 8.769531 C 16.066406 8.742188 16.105469 8.730469 16.121094 8.75 Z M 16.121094 8.75 "/>
<path style=" stroke:none;fill-rule:nonzero;fill:rgb(20%,20%,20%);fill-opacity:1;" d="M 14.847656 9.242188 L 15.886719 10.28125 C 15.914062 10.308594 15.914062 10.355469 15.886719 10.382812 L 15.847656 10.421875 C 15.820312 10.453125 15.773438 10.453125 15.742188 10.421875 L 14.703125 9.382812 C 14.675781 9.355469 14.675781 9.308594 14.703125 9.28125 L 14.742188 9.242188 C 14.773438 9.210938 14.820312 9.210938 14.847656 9.242188 Z M 14.847656 9.242188 "/>
<path style=" stroke:none;fill-rule:nonzero;fill:rgb(20%,20%,20%);fill-opacity:1;" d="M 14.355469 10.515625 L 15.019531 11.183594 C 15.039062 11.199219 15.03125 11.238281 15.003906 11.265625 L 14.964844 11.304688 C 14.933594 11.335938 14.898438 11.34375 14.878906 11.324219 L 14.214844 10.660156 C 14.195312 10.640625 14.203125 10.601562 14.234375 10.574219 L 14.269531 10.535156 C 14.300781 10.507812 14.339844 10.5 14.355469 10.515625 Z M 14.355469 10.515625 "/>
<path style=" stroke:none;fill-rule:nonzero;fill:rgb(20%,20%,20%);fill-opacity:1;" d="M 13.082031 11.007812 L 14.121094 12.046875 C 14.148438 12.074219 14.148438 12.121094 14.121094 12.152344 L 14.082031 12.1875 C 14.050781 12.21875 14.003906 12.21875 13.976562 12.1875 L 12.9375 11.148438 C 12.910156 11.121094 12.910156 11.074219 12.9375 11.046875 L 12.976562 11.007812 C 13.003906 10.980469 13.050781 10.980469 13.082031 11.007812 Z M 13.082031 11.007812 "/>
<path style=" stroke:none;fill-rule:nonzero;fill:rgb(20%,20%,20%);fill-opacity:1;" d="M 12.589844 12.285156 L 13.253906 12.949219 C 13.273438 12.964844 13.265625 13.003906 13.234375 13.035156 L 13.199219 13.070312 C 13.167969 13.101562 13.128906 13.109375 13.113281 13.089844 L 12.449219 12.425781 C 12.429688 12.40625 12.4375 12.371094 12.464844 12.339844 L 12.503906 12.300781 C 12.535156 12.273438 12.570312 12.265625 12.589844 12.285156 Z M 12.589844 12.285156 "/>
<path style=" stroke:none;fill-rule:nonzero;fill:rgb(20%,20%,20%);fill-opacity:1;" d="M 11.316406 12.773438 L 12.351562 13.8125 C 12.382812 13.839844 12.382812 13.886719 12.351562 13.917969 L 12.316406 13.953125 C 12.285156 13.984375 12.238281 13.984375 12.210938 13.953125 L 11.171875 12.917969 C 11.144531 12.886719 11.144531 12.839844 11.171875 12.8125 L 11.210938 12.773438 C 11.238281 12.746094 11.285156 12.746094 11.316406 12.773438 Z M 11.316406 12.773438 "/>
<path style=" stroke:none;fill-rule:nonzero;fill:rgb(20%,20%,20%);fill-opacity:1;" d="M 10.824219 14.050781 L 11.488281 14.714844 C 11.507812 14.734375 11.5 14.769531 11.46875 14.800781 L 11.433594 14.839844 C 11.402344 14.867188 11.363281 14.875 11.347656 14.855469 L 10.679688 14.191406 C 10.664062 14.175781 10.671875 14.136719 10.699219 14.105469 L 10.738281 14.070312 C 10.765625 14.039062 10.804688 14.03125 10.824219 14.050781 Z M 10.824219 14.050781 "/>
<path style=" stroke:none;fill-rule:nonzero;fill:rgb(20%,20%,20%);fill-opacity:1;" d="M 9.546875 14.539062 L 10.585938 15.578125 C 10.617188 15.605469 10.617188 15.652344 10.585938 15.683594 L 10.546875 15.722656 C 10.519531 15.75 10.472656 15.75 10.445312 15.722656 L 9.40625 14.683594 C 9.375 14.652344 9.375 14.605469 9.40625 14.578125 L 9.445312 14.539062 C 9.472656 14.511719 9.519531 14.511719 9.546875 14.539062 Z M 9.546875 14.539062 "/>
<path style=" stroke:none;fill-rule:nonzero;fill:rgb(20%,20%,20%);fill-opacity:1;" d="M 9.058594 15.816406 L 9.722656 16.480469 C 9.742188 16.5 9.734375 16.539062 9.703125 16.566406 L 9.664062 16.605469 C 9.636719 16.632812 9.597656 16.640625 9.578125 16.625 L 8.914062 15.957031 C 8.898438 15.941406 8.90625 15.902344 8.933594 15.871094 L 8.972656 15.835938 C 9 15.804688 9.039062 15.796875 9.058594 15.816406 Z M 9.058594 15.816406 "/>
</g>
</svg>
