
<svg xmlns="http://www.w3.org/2000/svg" xmlns:xlink="http://www.w3.org/1999/xlink" width="24px" height="24px" viewBox="0 0 24 24" version="1.1">
<g id="surface1">
<path style="fill-rule:nonzero;fill:rgb(80%,0%,100%);fill-opacity:1;stroke-width:28.097435;stroke-linecap:butt;stroke-linejoin:miter;stroke:rgb(47.45098%,19.215686%,54.509804%);stroke-opacity:1;stroke-miterlimit:4;" d="M 82.083333 25.833333 L 429.916667 25.833333 C 461 25.833333 486.166667 51 486.166667 82.083333 L 486.166667 429.916667 C 486.166667 461 461 486.166667 429.916667 486.166667 L 82.083333 486.166667 C 51 486.166667 25.833333 461 25.833333 429.916667 L 25.833333 82.083333 C 25.833333 51 51 25.833333 82.083333 25.833333 Z M 82.083333 25.833333 " transform="matrix(0.046875,0,0,0.046875,0,0)"/>
<path style=" stroke:none;fill-rule:nonzero;fill:rgb(100%,100%,100%);fill-opacity:1;" d="M 8.277344 16.90625 C 8.277344 16.78125 8.304688 16.640625 8.335938 16.59375 C 8.371094 16.542969 8.796875 16.464844 9.289062 16.414062 C 9.972656 16.347656 10.203125 16.292969 10.285156 16.183594 C 10.359375 16.082031 10.386719 15.679688 10.386719 14.800781 L 10.386719 13.558594 L 9.75 12.710938 C 8.949219 11.648438 7.273438 9.644531 6.792969 9.179688 L 6.433594 8.832031 L 4.332031 8.714844 L 4.308594 8.316406 C 4.289062 8.054688 4.316406 7.898438 4.386719 7.851562 C 4.445312 7.816406 6.019531 7.785156 7.878906 7.785156 L 11.261719 7.78125 L 11.304688 8.003906 C 11.328125 8.125 11.328125 8.34375 11.304688 8.492188 L 11.261719 8.757812 L 10.4375 8.761719 C 9.222656 8.773438 9.230469 8.761719 9.78125 9.53125 C 10.414062 10.414062 11.796875 12.1875 11.960938 12.320312 C 12.117188 12.453125 12.132812 12.445312 13.582031 11.144531 C 14.152344 10.632812 14.597656 10.175781 14.570312 10.132812 C 14.546875 10.09375 14.261719 10.058594 13.9375 10.054688 C 13.617188 10.054688 13.316406 10.027344 13.265625 9.996094 C 13.164062 9.925781 12.988281 9.449219 12.988281 9.234375 C 12.988281 9.089844 13.125 9.082031 15.996094 9.082031 C 17.652344 9.082031 19.003906 9.109375 19.003906 9.144531 C 19.003906 9.175781 18.863281 9.386719 18.695312 9.609375 L 18.386719 10.015625 L 17.660156 10.066406 C 16.996094 10.109375 16.890625 10.140625 16.457031 10.417969 C 15.707031 10.898438 14.0625 12.257812 13.414062 12.925781 L 12.828125 13.535156 L 12.828125 14.671875 C 12.828125 15.296875 12.847656 15.917969 12.875 16.050781 L 12.921875 16.292969 L 13.941406 16.335938 C 14.5 16.363281 14.992188 16.417969 15.039062 16.460938 C 15.082031 16.507812 15.09375 16.652344 15.066406 16.785156 L 15.015625 17.023438 L 13.664062 17.074219 C 12.921875 17.105469 11.402344 17.128906 10.292969 17.128906 L 8.273438 17.128906 Z M 8.277344 16.90625 "/>
<path style=" stroke:none;fill-rule:nonzero;fill:rgb(100%,100%,100%);fill-opacity:1;" d="M 18.039062 15.347656 C 17.945312 15.289062 17.921875 14.875 17.914062 13.203125 C 17.910156 12.0625 17.929688 11.105469 17.957031 11.078125 C 18.011719 11.023438 19.824219 11.179688 19.894531 11.246094 C 19.933594 11.289062 19.0625 14.832031 18.914062 15.238281 C 18.855469 15.390625 18.785156 15.421875 18.496094 15.421875 C 18.308594 15.421875 18.101562 15.386719 18.039062 15.347656 Z M 18.039062 15.347656 "/>
<path style=" stroke:none;fill-rule:nonzero;fill:rgb(100%,100%,100%);fill-opacity:1;" d="M 17.886719 17.074219 C 17.820312 17.050781 17.785156 16.863281 17.785156 16.554688 L 17.785156 16.074219 L 18.195312 16.074219 C 18.683594 16.074219 18.945312 16.1875 18.894531 16.382812 C 18.871094 16.457031 18.832031 16.65625 18.804688 16.824219 C 18.753906 17.128906 18.75 17.128906 18.371094 17.121094 C 18.160156 17.121094 17.941406 17.097656 17.886719 17.074219 Z M 17.886719 17.074219 "/>
</g>
</svg>
