<?xml version="1.0" encoding="UTF-8"?>
<svg xmlns="http://www.w3.org/2000/svg" xmlns:xlink="http://www.w3.org/1999/xlink" width="24pt" height="24pt" viewBox="0 0 24 24" version="1.1">
<g id="surface1">
<path style="fill-rule:nonzero;fill:rgb(100%,100%,100%);fill-opacity:1;stroke-width:7.717832;stroke-linecap:butt;stroke-linejoin:miter;stroke:rgb(56.470588%,56.470588%,56.470588%);stroke-opacity:1;stroke-miterlimit:4;" d="M -13.636383 275.924942 L 81.895847 275.924942 C 90.43307 275.924942 97.347515 282.839387 97.347515 291.37661 L 97.347515 386.90884 C 97.347515 395.446063 90.43307 402.360508 81.895847 402.360508 L -13.636383 402.360508 C -22.173606 402.360508 -29.088051 395.446063 -29.088051 386.90884 L -29.088051 291.37661 C -29.088051 282.839387 -22.173606 275.924942 -13.636383 275.924942 Z M -13.636383 275.924942 " transform="matrix(0.166093,0,0,0.166093,6.331307,-44.329065)"/>
<path style=" stroke:none;fill-rule:nonzero;fill:rgb(90.196078%,90.196078%,90.196078%);fill-opacity:1;" d="M 12 5.351562 C 9.515625 5.351562 7.511719 7.355469 7.511719 9.839844 L 7.511719 18.648438 L 8.511719 18.648438 L 8.511719 9.839844 C 8.511719 7.90625 10.066406 6.351562 12 6.351562 C 13.933594 6.351562 15.488281 7.90625 15.488281 9.839844 L 15.488281 18.648438 L 16.488281 18.648438 L 16.488281 9.839844 C 16.488281 7.355469 14.484375 5.351562 12 5.351562 Z M 12 5.351562 "/>
<path style=" stroke:none;fill-rule:nonzero;fill:rgb(97.647059%,87.058824%,41.176471%);fill-opacity:1;" d="M 6.351562 18.648438 L 17.648438 18.648438 L 17.648438 12 L 6.351562 12 Z M 6.351562 18.648438 "/>
<path style=" stroke:none;fill-rule:nonzero;fill:rgb(13.333333%,21.176471%,33.72549%);fill-opacity:1;" d="M 12 13.328125 C 11.542969 13.328125 11.167969 13.703125 11.167969 14.160156 C 11.167969 14.492188 11.363281 14.789062 11.667969 14.921875 L 11.667969 17.316406 L 12.332031 17.316406 L 12.332031 14.921875 C 12.636719 14.789062 12.832031 14.492188 12.832031 14.160156 C 12.832031 13.703125 12.457031 13.328125 12 13.328125 Z M 12 13.328125 "/>
</g>
</svg>
