<?xml version="1.0" encoding="UTF-8"?>
<svg xmlns="http://www.w3.org/2000/svg" xmlns:xlink="http://www.w3.org/1999/xlink" width="32pt" height="32pt" viewBox="0 0 32 32" version="1.1">
<g id="surface1">
<path style=" stroke:none;fill-rule:nonzero;fill:rgb(30.196078%,30.196078%,30.196078%);fill-opacity:1;" d="M 16 5.332031 C 13.296875 5.332031 10.839844 6.34375 8.957031 8 C 8.789062 8.148438 8.617188 8.300781 8.457031 8.457031 L 8 8.957031 C 6.34375 10.839844 5.332031 13.296875 5.332031 16 C 5.332031 21.890625 10.109375 26.667969 16 26.667969 C 18.703125 26.667969 21.160156 25.65625 23.042969 24 L 23.542969 23.542969 C 23.699219 23.382812 23.851562 23.210938 24 23.042969 C 25.65625 21.160156 26.667969 18.703125 26.667969 16 C 26.667969 10.109375 21.890625 5.332031 16 5.332031 Z M 16 6.667969 C 21.15625 6.667969 25.332031 10.84375 25.332031 16 C 25.332031 18.339844 24.460938 20.445312 23.042969 22.082031 L 9.917969 8.957031 C 11.554688 7.539062 13.660156 6.667969 16 6.667969 Z M 8.957031 9.917969 L 22.082031 23.042969 C 20.445312 24.460938 18.339844 25.332031 16 25.332031 C 10.84375 25.332031 6.667969 21.15625 6.667969 16 C 6.667969 13.660156 7.539062 11.554688 8.957031 9.917969 Z M 8.957031 9.917969 "/>
</g>
</svg>
