<?xml version="1.0" encoding="UTF-8"?>
<svg xmlns="http://www.w3.org/2000/svg" xmlns:xlink="http://www.w3.org/1999/xlink" width="32pt" height="32pt" viewBox="0 0 32 32" version="1.1">
<g id="surface1">
<path style=" stroke:none;fill-rule:nonzero;fill:rgb(30.196078%,30.196078%,30.196078%);fill-opacity:1;" d="M 27.636719 10.183594 L 24.726562 5.816406 L 21.816406 10.183594 Z M 27.636719 13.089844 L 21.816406 13.089844 L 24.726562 17.453125 Z M 23.273438 4.363281 L 4.363281 4.363281 L 4.363281 5.816406 L 10.183594 5.816406 L 10.183594 14.546875 L 20.363281 14.546875 L 20.363281 5.816406 L 23.273438 5.816406 Z M 23.273438 17.453125 L 4.363281 17.453125 L 4.363281 18.910156 L 7.273438 18.910156 L 7.273438 27.636719 L 20.363281 27.636719 L 20.363281 18.910156 L 23.273438 18.910156 Z M 18.910156 5.816406 L 18.910156 13.089844 L 11.636719 13.089844 L 11.636719 5.816406 Z M 18.910156 18.910156 L 18.910156 26.183594 L 8.726562 26.183594 L 8.726562 18.910156 Z M 18.910156 18.910156 "/>
</g>
</svg>
