<?xml version="1.0" encoding="UTF-8"?>
<svg xmlns="http://www.w3.org/2000/svg" xmlns:xlink="http://www.w3.org/1999/xlink" width="32pt" height="32pt" viewBox="0 0 32 32" version="1.1">
<g id="surface1">
<path style=" stroke:none;fill-rule:nonzero;fill:rgb(30.196078%,30.196078%,30.196078%);fill-opacity:1;" d="M 5.816406 4.363281 L 5.816406 24.726562 L 4.363281 24.726562 L 4.363281 26.183594 L 5.816406 26.183594 L 5.816406 27.636719 L 7.273438 27.636719 L 7.273438 26.183594 L 27.636719 26.183594 L 27.636719 24.726562 L 7.273438 24.726562 L 7.273438 23.273438 L 11.636719 23.273438 L 11.636719 23.261719 L 11.648438 23.273438 L 14.558594 20.363281 L 16.871094 20.363281 L 19.78125 23.273438 L 27.636719 23.273438 L 27.636719 21.816406 L 20.382812 21.816406 L 17.472656 18.910156 L 13.953125 18.910156 L 11.046875 21.816406 L 7.273438 21.816406 L 7.273438 14.546875 L 12.910156 14.546875 L 15.816406 11.636719 L 17.023438 10.433594 L 18.90625 8.546875 L 21.996094 11.636719 L 22.003906 11.628906 L 22.007812 11.636719 L 27.636719 6.007812 L 26.609375 4.980469 L 22.003906 9.585938 L 18.910156 6.496094 L 18.902344 6.496094 L 16.683594 8.714844 L 7.273438 8.714844 L 7.273438 4.363281 Z M 7.273438 8.726562 L 16.671875 8.726562 L 12.308594 13.089844 L 7.273438 13.089844 Z M 7.273438 8.726562 "/>
<path style=" stroke:none;fill-rule:evenodd;fill:rgb(30.196078%,30.196078%,30.196078%);fill-opacity:0.458824;" d="M 7.273438 23.273438 L 7.273438 24.726562 L 27.636719 24.726562 L 27.636719 23.273438 L 19.78125 23.273438 L 16.871094 20.363281 L 14.546875 20.363281 L 11.636719 23.273438 Z M 7.273438 23.273438 "/>
<path style=" stroke:none;fill-rule:evenodd;fill:rgb(30.196078%,30.196078%,30.196078%);fill-opacity:0.458824;" d="M 27.539062 5.910156 L 27.636719 6.007812 L 27.636719 6.003906 Z M 27.636719 6.007812 L 22.007812 11.636719 L 22.003906 11.628906 L 21.996094 11.636719 L 18.90625 8.546875 L 17.023438 10.433594 L 15.816406 11.636719 L 12.910156 14.546875 L 7.273438 14.546875 L 7.273438 21.816406 L 11.046875 21.816406 L 13.953125 18.910156 L 14.546875 18.910156 L 17.453125 18.898438 L 17.464844 18.910156 L 17.472656 18.910156 L 20.371094 21.808594 L 27.636719 21.816406 Z M 27.636719 6.007812 "/>
</g>
</svg>
