<?xml version="1.0" encoding="UTF-8"?>
<svg xmlns="http://www.w3.org/2000/svg" xmlns:xlink="http://www.w3.org/1999/xlink" width="32pt" height="32pt" viewBox="0 0 32 32" version="1.1">
<g id="surface1">
<path style=" stroke:none;fill-rule:nonzero;fill:rgb(30.196078%,30.196078%,30.196078%);fill-opacity:1;" d="M 16 4.363281 C 9.554688 4.363281 4.363281 9.554688 4.363281 16 C 4.363281 22.445312 9.554688 27.636719 16 27.636719 C 17.007812 27.636719 17.980469 27.496094 18.910156 27.257812 L 18.910156 25.753906 C 17.988281 26.027344 17.011719 26.183594 16 26.183594 C 10.359375 26.183594 5.816406 21.640625 5.816406 16 C 5.816406 10.359375 10.359375 5.816406 16 5.816406 C 21.640625 5.816406 26.183594 10.359375 26.183594 16 C 26.183594 17.011719 26.027344 17.988281 25.753906 18.910156 L 27.257812 18.910156 C 27.496094 17.980469 27.636719 17.007812 27.636719 16 C 27.636719 9.554688 22.445312 4.363281 16 4.363281 Z M 16 7.273438 C 11.164062 7.273438 7.273438 11.164062 7.273438 16 L 11.636719 16 C 11.636719 13.582031 13.582031 11.636719 16 11.636719 Z M 16 13.089844 C 14.386719 13.089844 13.089844 14.386719 13.089844 16 C 13.089844 17.613281 14.386719 18.910156 16 18.910156 C 17.613281 18.910156 18.910156 17.613281 18.910156 16 C 18.910156 14.386719 17.613281 13.089844 16 13.089844 Z M 16 14.546875 C 16.804688 14.546875 17.453125 15.195312 17.453125 16 C 17.453125 16.804688 16.804688 17.453125 16 17.453125 C 15.195312 17.453125 14.546875 16.804688 14.546875 16 C 14.546875 15.195312 15.195312 14.546875 16 14.546875 Z M 20.363281 16 C 20.363281 17.125 19.929688 18.136719 19.234375 18.910156 L 24.222656 18.910156 C 24.542969 18 24.726562 17.023438 24.726562 16 Z M 18.910156 19.234375 C 18.136719 19.929688 17.125 20.363281 16 20.363281 L 16 24.726562 C 17.023438 24.726562 18 24.542969 18.910156 24.222656 Z M 24 20.363281 C 21.984375 20.363281 20.363281 21.984375 20.363281 24 C 20.363281 26.015625 21.984375 27.636719 24 27.636719 C 26.015625 27.636719 27.636719 26.015625 27.636719 24 C 27.636719 21.984375 26.015625 20.363281 24 20.363281 Z M 24 21.816406 C 25.207031 21.816406 26.183594 22.792969 26.183594 24 C 26.183594 25.207031 25.207031 26.183594 24 26.183594 C 22.792969 26.183594 21.816406 25.207031 21.816406 24 C 21.816406 22.792969 22.792969 21.816406 24 21.816406 Z M 24 23.273438 C 23.597656 23.273438 23.273438 23.597656 23.273438 24 C 23.273438 24.402344 23.597656 24.726562 24 24.726562 C 24.402344 24.726562 24.726562 24.402344 24.726562 24 C 24.726562 23.597656 24.402344 23.273438 24 23.273438 Z M 24 23.273438 "/>
</g>
</svg>
