<?xml version="1.0" encoding="UTF-8"?>
<svg xmlns="http://www.w3.org/2000/svg" xmlns:xlink="http://www.w3.org/1999/xlink" width="32pt" height="32pt" viewBox="0 0 32 32" version="1.1">
<g id="surface1">
<path style=" stroke:none;fill-rule:nonzero;fill:rgb(30.196078%,30.196078%,30.196078%);fill-opacity:1;" d="M 10.320312 4.363281 C 9.183594 4.390625 8.304688 4.589844 7.671875 4.878906 L 8.027344 6.191406 C 8.332031 6.085938 9.484375 5.714844 10.160156 5.714844 L 10.253906 5.714844 C 11.195312 5.753906 11.261719 6.097656 11.261719 6.90625 L 11.261719 7.222656 L 10.769531 7.304688 C 8.492188 7.636719 7.273438 7.914062 7.273438 9.660156 C 7.273438 10.878906 8.160156 11.636719 9.445312 11.636719 C 10.332031 11.636719 10.914062 11.265625 11.511719 10.761719 L 11.695312 11.503906 L 13.101562 11.503906 L 13.101562 6.601562 C 13.101562 5.105469 12.066406 4.363281 10.476562 4.363281 Z M 11.261719 8.257812 L 11.261719 9.886719 C 10.769531 10.21875 10.398438 10.457031 9.765625 10.457031 C 9.195312 10.457031 8.914062 10.101562 8.914062 9.597656 C 8.914062 8.644531 9.75 8.484375 10.769531 8.339844 Z M 19.636719 12.789062 L 14.546875 17.878906 L 15.574219 18.910156 L 18.910156 15.574219 L 18.910156 27.636719 L 20.363281 27.636719 L 20.363281 15.574219 L 23.699219 18.910156 L 24.726562 17.878906 Z M 7.433594 13.378906 L 7.433594 14.566406 L 10.449219 14.566406 L 7.273438 19.300781 L 7.273438 20.363281 L 12.839844 20.363281 L 12.839844 19.125 L 9.574219 19.125 L 12.734375 14.339844 L 12.734375 13.378906 Z M 7.433594 13.378906 "/>
</g>
</svg>
