<?xml version="1.0" encoding="UTF-8"?>
<svg xmlns="http://www.w3.org/2000/svg" xmlns:xlink="http://www.w3.org/1999/xlink" width="32pt" height="32pt" viewBox="0 0 32 32" version="1.1">
<g id="surface1">
<path style="fill-rule:nonzero;fill:rgb(100%,100%,100%);fill-opacity:1;stroke-width:2.611469;stroke-linecap:butt;stroke-linejoin:miter;stroke:rgb(56.470588%,56.470588%,56.470588%);stroke-opacity:1;stroke-miterlimit:4;" d="M 7.833984 2.613281 L 40.166016 2.613281 C 43.048828 2.613281 45.386719 4.951172 45.386719 7.833984 L 45.386719 40.166016 C 45.386719 43.048828 43.048828 45.386719 40.166016 45.386719 L 7.833984 45.386719 C 4.951172 45.386719 2.613281 43.048828 2.613281 40.166016 L 2.613281 7.833984 C 2.613281 4.951172 4.951172 2.613281 7.833984 2.613281 Z M 7.833984 2.613281 " transform="matrix(0.666667,0,0,0.666667,0,0)"/>
<path style="fill:none;stroke-width:2.26261;stroke-linecap:square;stroke-linejoin:miter;stroke:rgb(30.196078%,30.196078%,30.196078%);stroke-opacity:1;stroke-miterlimit:2.012602;" d="M 29.765625 27.955078 C 32.115234 24.931641 31.699219 20.601562 28.816406 18.076172 C 25.933594 15.556641 21.585938 15.720703 18.902344 18.451172 C 16.21875 21.181641 16.130859 25.535156 18.697266 28.371094 " transform="matrix(0.666667,0,0,0.666667,0,0)"/>
<path style="fill:none;stroke-width:2.26261;stroke-linecap:square;stroke-linejoin:miter;stroke:rgb(30.196078%,30.196078%,30.196078%);stroke-opacity:1;stroke-miterlimit:2.012602;" d="M 33.152344 30.738281 C 36.943359 25.857422 36.240234 18.855469 31.552734 14.830078 C 26.859375 10.804688 19.839844 11.167969 15.585938 15.65625 C 11.337891 20.138672 11.355469 27.175781 15.626953 31.640625 " transform="matrix(0.666667,0,0,0.666667,0,0)"/>
<path style="fill:none;stroke-width:2.26261;stroke-linecap:square;stroke-linejoin:miter;stroke:rgb(30.196078%,30.196078%,30.196078%);stroke-opacity:1;stroke-miterlimit:2.012602;" d="M 36.515625 33.498047 C 41.689453 26.841797 40.740234 17.296875 34.365234 11.783203 C 27.984375 6.269531 18.404297 6.714844 12.5625 12.802734 C 6.726562 18.884766 6.673828 28.476562 12.445312 34.623047 " transform="matrix(0.666667,0,0,0.666667,0,0)"/>
<path style=" stroke:none;fill-rule:evenodd;fill:rgb(90.196078%,90.196078%,90.196078%);fill-opacity:1;" d="M 16.164062 17.480469 C 17.230469 17.410156 18.042969 16.5 17.988281 15.433594 C 17.933594 14.367188 17.039062 13.539062 15.972656 13.574219 C 14.90625 13.613281 14.0625 14.496094 14.082031 15.5625 C 14.097656 16.628906 14.96875 17.484375 16.035156 17.484375 "/>
<path style="fill:none;stroke-width:2.26261;stroke-linecap:square;stroke-linejoin:bevel;stroke:rgb(90.196078%,90.196078%,90.196078%);stroke-opacity:1;stroke-miterlimit:4;" d="M 24.058594 23.25 L 24.058594 40.066406 " transform="matrix(0.666667,0,0,0.666667,0,0)"/>
</g>
</svg>
