<?xml version="1.0" encoding="UTF-8"?>
<svg xmlns="http://www.w3.org/2000/svg" xmlns:xlink="http://www.w3.org/1999/xlink" width="24pt" height="24pt" viewBox="0 0 24 24" version="1.1">
<g id="surface1">
<path style="fill-rule:nonzero;fill:rgb(100%,100%,100%);fill-opacity:1;stroke-width:28.191782;stroke-linecap:butt;stroke-linejoin:miter;stroke:rgb(29.019608%,68.235294%,90.980392%);stroke-opacity:1;stroke-miterlimit:4;" d="M -371.964699 104.28061 L -22.882781 104.28061 C 8.238935 104.28061 33.482105 129.52378 33.482105 160.645496 L 33.482105 509.727414 C 33.482105 540.84913 8.238935 566.0923 -22.882781 566.0923 L -371.964699 566.0923 C -403.086415 566.0923 -428.329585 540.84913 -428.329585 509.727414 L -428.329585 160.645496 C -428.329585 129.52378 -403.086415 104.28061 -371.964699 104.28061 Z M -371.964699 104.28061 " transform="matrix(0.0451855,0,0,0.0451855,20.920688,-3.145564)"/>
<path style=" stroke:none;fill-rule:nonzero;fill:rgb(0%,65.490196%,92.156863%);fill-opacity:1;" d="M 4.179688 18.144531 C 4.550781 17.765625 10.003906 13.148438 10.078125 13.148438 C 10.117188 13.148438 10.492188 13.445312 10.910156 13.808594 C 11.367188 14.203125 11.738281 14.464844 11.84375 14.464844 C 11.949219 14.464844 12.347656 14.1875 12.839844 13.765625 C 13.339844 13.339844 13.691406 13.09375 13.742188 13.136719 C 13.789062 13.175781 14.367188 13.667969 15.027344 14.230469 C 18.371094 17.085938 19.753906 18.277344 19.753906 18.304688 C 19.753906 18.324219 16.207031 18.339844 11.871094 18.339844 L 3.984375 18.339844 Z M 3.089844 12.539062 C 3.089844 9.609375 3.117188 7.214844 3.148438 7.21875 C 3.238281 7.21875 9.316406 12.4375 9.339844 12.53125 C 9.359375 12.613281 3.421875 17.726562 3.203125 17.816406 C 3.105469 17.855469 3.089844 17.183594 3.089844 12.539062 Z M 17.414062 15.179688 C 15.765625 13.765625 14.394531 12.585938 14.367188 12.558594 C 14.324219 12.507812 20.355469 7.292969 20.53125 7.230469 C 20.578125 7.210938 20.605469 9.117188 20.605469 12.480469 C 20.605469 16.652344 20.585938 17.761719 20.511719 17.757812 C 20.457031 17.753906 19.066406 16.59375 17.414062 15.179688 Z M 8.710938 10.828125 C 7.003906 9.371094 5.238281 7.859375 4.78125 7.46875 L 3.949219 6.761719 L 7.898438 6.742188 C 10.070312 6.730469 13.625 6.730469 15.796875 6.742188 L 19.746094 6.761719 L 17.339844 8.820312 C 16.015625 9.953125 14.25 11.464844 13.414062 12.179688 C 12.582031 12.894531 11.878906 13.476562 11.855469 13.476562 C 11.832031 13.476562 10.414062 12.285156 8.710938 10.828125 Z M 8.710938 10.828125 "/>
</g>
</svg>
