
<svg xmlns="http://www.w3.org/2000/svg" xmlns:xlink="http://www.w3.org/1999/xlink" width="64px" height="64px" viewBox="0 0 64 64" version="1.1">
<g id="surface1">
<path style="fill-rule:nonzero;fill:rgb(80%,80%,80%);fill-opacity:1;stroke-width:1;stroke-linecap:butt;stroke-linejoin:miter;stroke:rgb(23.137255%,20.392157%,20.392157%);stroke-opacity:1;stroke-miterlimit:4;" d="M 309.875 42.4375 C 287.15625 42.4375 268.4375 63.34375 264.71875 90.96875 L 444.59375 90.96875 C 440.875 63.34375 422.15625 42.4375 399.4375 42.4375 Z M 309.875 42.4375 " transform="matrix(0.125,0,0,0.125,0,0)"/>
<path style=" stroke:none;fill-rule:nonzero;fill:#FF5555;fill-opacity:1;" d="M 8.242188 12.34375 L 55.757812 12.34375 C 59.515625 12.34375 62.5625 15.398438 62.5625 19.167969 L 62.5625 43.101562 C 62.5625 46.871094 59.515625 49.925781 55.757812 49.925781 L 8.242188 49.925781 C 4.484375 49.925781 1.4375 46.871094 1.4375 43.101562 L 1.4375 19.167969 C 1.4375 15.398438 4.484375 12.34375 8.242188 12.34375 Z M 8.242188 12.34375 "/>
<path style=" stroke:none;fill-rule:nonzero;fill:#FF5555;fill-opacity:1;" d="M 8.242188 21.113281 L 55.757812 21.113281 C 59.515625 21.113281 62.5625 24.167969 62.5625 27.9375 L 62.5625 51.871094 C 62.5625 55.640625 59.515625 58.695312 55.757812 58.695312 L 8.242188 58.695312 C 4.484375 58.695312 1.4375 55.640625 1.4375 51.871094 L 1.4375 27.9375 C 1.4375 24.167969 4.484375 21.113281 8.242188 21.113281 Z M 8.242188 21.113281 "/>
<path style=" stroke:none;fill-rule:nonzero;fill:rgb(100%,100%,100%);fill-opacity:1;" d="M 31 20.292969 C 22.511719 20.292969 15.613281 27.191406 15.613281 35.679688 C 15.613281 44.171875 22.511719 51.066406 31 51.066406 C 39.492188 51.066406 46.34375 44.171875 46.34375 35.679688 C 46.34375 32.046875 45.097656 28.703125 42.992188 26.070312 C 42.664062 26.203125 42.332031 26.335938 41.980469 26.511719 C 44.050781 28.988281 45.285156 32.191406 45.285156 35.679688 C 45.285156 43.578125 38.898438 49.964844 31 49.964844 C 23.105469 49.964844 16.671875 43.578125 16.671875 35.679688 C 16.671875 27.785156 23.105469 21.394531 31 21.394531 C 35.140625 21.394531 38.835938 23.164062 41.445312 25.96875 C 41.945312 25.886719 42.308594 25.824219 42.746094 25.765625 C 39.933594 22.398438 35.734375 20.292969 31 20.292969 Z M 31 20.292969 "/>
<path style=" stroke:none;fill-rule:nonzero;fill:rgb(100%,100%,100%);fill-opacity:1;" d="M 30.824219 23.996094 C 30.511719 24.011719 30.339844 24.042969 30.339844 24.042969 C 20.640625 24.902344 16.453125 35.59375 16.453125 35.59375 L 16.742188 38.640625 C 18.683594 33.828125 30.121094 40.046875 30.121094 40.046875 C 26.023438 35.878906 23.308594 34.851562 23.308594 34.851562 C 21.550781 33.847656 19.632812 33.476562 19.632812 33.476562 C 21.230469 29.832031 22.933594 28.140625 22.933594 28.140625 L 23.5 31.625 C 27.605469 35.152344 31.484375 34.800781 31.484375 34.800781 C 37.519531 39.253906 38.1875 48.027344 38.1875 48.027344 L 40.59375 46.730469 C 41.597656 44.359375 37.613281 37.046875 37.613281 37.046875 C 36.425781 34.816406 36.070312 32.816406 36.070312 32.816406 C 36.359375 32.527344 38.011719 29.554688 38.011719 29.554688 C 39.449219 27.253906 46.300781 25.277344 46.300781 25.277344 C 41.199219 24.703125 37.527344 25.980469 37.527344 25.980469 C 34.078125 24.09375 31.769531 23.953125 30.824219 23.996094 Z M 44.402344 25.585938 C 44.820312 25.554688 44.894531 25.574219 44.402344 25.628906 C 43.097656 25.769531 41.210938 26.59375 39.773438 27.464844 C 38.335938 28.335938 37.949219 29.0625 37.949219 28.796875 C 37.9375 27.445312 36.804688 27.394531 36.804688 27.394531 C 38.273438 26.378906 43.15625 25.679688 44.402344 25.585938 Z M 30.207031 26.070312 C 30.320312 26.046875 30.441406 26.070312 30.5625 26.070312 C 31.511719 26.070312 32.28125 26.835938 32.28125 27.789062 C 32.28125 28.742188 31.511719 29.507812 30.5625 29.507812 C 29.609375 29.507812 28.839844 28.742188 28.839844 27.789062 C 28.839844 26.957031 29.421875 26.230469 30.207031 26.070312 Z M 30.207031 26.070312 "/>
<path style=" stroke:none;fill-rule:nonzero;fill:rgb(100%,100%,100%);fill-opacity:1;" d="M 31 19.828125 C 22.253906 19.828125 15.148438 26.933594 15.148438 35.679688 C 15.148438 44.429688 22.253906 51.535156 31 51.535156 C 39.75 51.535156 46.8125 44.429688 46.8125 35.679688 C 46.8125 31.933594 45.597656 28.566406 43.433594 25.851562 C 43.089844 25.988281 42.675781 26.050781 42.3125 26.230469 C 44.449219 28.785156 45.71875 32.085938 45.71875 35.679688 C 45.71875 43.816406 39.136719 50.398438 31 50.398438 C 22.867188 50.398438 16.238281 43.816406 16.238281 35.679688 C 16.238281 27.546875 22.867188 20.960938 31 20.960938 C 35.265625 20.960938 39.078125 22.78125 41.761719 25.675781 C 42.277344 25.585938 42.652344 25.523438 43.101562 25.464844 C 40.207031 21.996094 35.878906 19.828125 31 19.828125 Z M 31 19.828125 "/>
</g>
</svg>
