
<svg xmlns="http://www.w3.org/2000/svg" xmlns:xlink="http://www.w3.org/1999/xlink" width="64px" height="64px" viewBox="0 0 64 64" version="1.1">
<g id="surface1">
<path style="fill-rule:nonzero;fill:rgb(80%,80%,80%);fill-opacity:1;stroke-width:1;stroke-linecap:butt;stroke-linejoin:miter;stroke:rgb(23.137255%,20.392157%,20.392157%);stroke-opacity:1;stroke-miterlimit:4;" d="M 309.875 42.4375 C 287.15625 42.4375 268.4375 63.34375 264.71875 90.96875 L 444.59375 90.96875 C 440.875 63.34375 422.15625 42.4375 399.4375 42.4375 Z M 309.875 42.4375 " transform="matrix(0.125,0,0,0.125,0,0)"/>
<path style=" stroke:none;fill-rule:nonzero;fill:#71C837;fill-opacity:1;" d="M 8.242188 12.34375 L 55.757812 12.34375 C 59.515625 12.34375 62.5625 15.398438 62.5625 19.167969 L 62.5625 43.101562 C 62.5625 46.871094 59.515625 49.925781 55.757812 49.925781 L 8.242188 49.925781 C 4.484375 49.925781 1.4375 46.871094 1.4375 43.101562 L 1.4375 19.167969 C 1.4375 15.398438 4.484375 12.34375 8.242188 12.34375 Z M 8.242188 12.34375 "/>
<path style=" stroke:none;fill-rule:nonzero;fill:#71C837;fill-opacity:1;" d="M 8.242188 21.113281 L 55.757812 21.113281 C 59.515625 21.113281 62.5625 24.167969 62.5625 27.9375 L 62.5625 51.871094 C 62.5625 55.640625 59.515625 58.695312 55.757812 58.695312 L 8.242188 58.695312 C 4.484375 58.695312 1.4375 55.640625 1.4375 51.871094 L 1.4375 27.9375 C 1.4375 24.167969 4.484375 21.113281 8.242188 21.113281 Z M 8.242188 21.113281 "/>
<path style=" stroke:none;fill-rule:evenodd;fill:rgb(100%,100%,100%);fill-opacity:1;" d="M 31.445312 19.992188 L 16.78125 38.328125 L 20.445312 38.328125 L 31.445312 23.660156 L 42.445312 38.328125 L 39.148438 38.328125 L 39.148438 49.328125 L 42.8125 49.328125 L 42.8125 38.328125 L 46.113281 38.328125 Z M 20.445312 38.328125 L 20.445312 49.328125 L 24.113281 49.328125 L 24.113281 38.328125 Z M 38.78125 19.992188 L 38.78125 27.324219 L 42.445312 31.726562 L 42.445312 19.992188 Z M 31.445312 30.625 C 30.03125 30.625 28.878906 31.773438 28.878906 33.191406 C 28.878906 34.609375 30.03125 35.757812 31.445312 35.757812 C 32.863281 35.757812 34.015625 34.609375 34.015625 33.191406 C 34.015625 31.773438 32.863281 30.625 31.445312 30.625 Z M 25.945312 45.660156 L 25.945312 49.328125 L 36.945312 49.328125 L 36.945312 45.660156 Z M 25.945312 45.660156 "/>
</g>
</svg>
