<?xml version="1.0" encoding="UTF-8"?>
<svg xmlns="http://www.w3.org/2000/svg" xmlns:xlink="http://www.w3.org/1999/xlink" width="16pt" height="16pt" viewBox="0 0 16 16" version="1.1">
<g id="surface1">
<path style="fill-rule:nonzero;fill:rgb(92.54902%,94.117647%,94.509804%);fill-opacity:1;stroke-width:7.956348;stroke-linecap:butt;stroke-linejoin:miter;stroke:rgb(58.431373%,64.705882%,65.098039%);stroke-opacity:1;stroke-miterlimit:4;" d="M -15.11805 273.984664 L 83.377514 273.984664 C 92.161681 273.984664 99.287793 281.110776 99.287793 289.894943 L 99.287793 388.390507 C 99.287793 397.174674 92.161681 404.300786 83.377514 404.300786 L -15.11805 404.300786 C -23.902217 404.300786 -31.028329 397.174674 -31.028329 388.390507 L -31.028329 289.894943 C -31.028329 281.110776 -23.902217 273.984664 -15.11805 273.984664 Z M -15.11805 273.984664 " transform="matrix(0.110728,0,0,0.110728,4.220872,-29.55271)"/>
<path style=" stroke:none;fill-rule:nonzero;fill:rgb(49.803922%,54.901961%,55.294118%);fill-opacity:1;" d="M 5.441406 6.191406 C 5.183594 6.191406 4.949219 6.238281 4.738281 6.332031 C 4.523438 6.421875 4.335938 6.550781 4.183594 6.71875 C 4.03125 6.882812 3.914062 7.074219 3.832031 7.296875 C 3.75 7.515625 3.710938 7.75 3.710938 8 C 3.710938 8.25 3.75 8.484375 3.832031 8.703125 C 3.914062 8.925781 4.03125 9.117188 4.183594 9.28125 C 4.335938 9.449219 4.523438 9.578125 4.738281 9.671875 C 4.949219 9.761719 5.183594 9.808594 5.441406 9.808594 C 5.660156 9.808594 5.863281 9.777344 6.054688 9.710938 C 6.242188 9.644531 6.40625 9.554688 6.542969 9.433594 C 6.6875 9.308594 6.796875 9.160156 6.878906 8.988281 C 6.964844 8.808594 7.011719 8.609375 7.027344 8.390625 L 6.121094 8.390625 C 6.105469 8.589844 6.035156 8.746094 5.917969 8.859375 C 5.796875 8.972656 5.632812 9.03125 5.421875 9.03125 C 5.28125 9.03125 5.160156 9.003906 5.058594 8.949219 C 4.953125 8.890625 4.871094 8.8125 4.804688 8.714844 C 4.738281 8.617188 4.691406 8.507812 4.660156 8.382812 C 4.628906 8.261719 4.613281 8.132812 4.613281 8 C 4.613281 7.867188 4.628906 7.738281 4.660156 7.617188 C 4.691406 7.492188 4.738281 7.382812 4.804688 7.285156 C 4.871094 7.1875 4.953125 7.113281 5.058594 7.058594 C 5.160156 7 5.28125 6.96875 5.421875 6.96875 C 5.617188 6.96875 5.773438 7.015625 5.898438 7.109375 C 6.023438 7.203125 6.097656 7.332031 6.121094 7.503906 L 7.027344 7.503906 C 7.019531 7.304688 6.96875 7.121094 6.875 6.960938 C 6.785156 6.796875 6.660156 6.65625 6.511719 6.542969 C 6.359375 6.425781 6.1875 6.339844 6.003906 6.28125 C 5.820312 6.222656 5.632812 6.191406 5.441406 6.191406 Z M 11.460938 6.265625 L 11.460938 9.734375 L 12.289062 9.734375 L 12.289062 6.265625 Z M 7.660156 6.449219 L 7.660156 7.210938 L 7.242188 7.210938 L 7.242188 7.746094 L 7.660156 7.746094 L 7.660156 8.871094 C 7.660156 9.046875 7.671875 9.195312 7.699219 9.308594 C 7.726562 9.417969 7.777344 9.507812 7.839844 9.574219 C 7.90625 9.640625 7.996094 9.6875 8.109375 9.714844 C 8.222656 9.746094 8.367188 9.757812 8.546875 9.757812 C 8.605469 9.757812 8.6875 9.753906 8.800781 9.746094 C 8.890625 9.738281 8.953125 9.734375 8.996094 9.734375 L 8.996094 9.125 C 8.972656 9.125 8.933594 9.128906 8.886719 9.132812 C 8.839844 9.136719 8.804688 9.136719 8.78125 9.136719 C 8.683594 9.136719 8.609375 9.121094 8.558594 9.089844 C 8.511719 9.050781 8.488281 8.988281 8.488281 8.894531 L 8.488281 7.746094 L 8.996094 7.746094 L 8.996094 7.210938 L 8.488281 7.210938 L 8.488281 6.449219 Z M 10.964844 7.164062 C 10.785156 7.164062 10.628906 7.207031 10.496094 7.289062 C 10.363281 7.375 10.265625 7.496094 10.203125 7.65625 L 10.195312 7.65625 L 10.195312 7.210938 L 9.394531 7.210938 L 9.394531 9.734375 L 10.21875 9.734375 L 10.21875 8.484375 C 10.21875 8.316406 10.277344 8.175781 10.386719 8.0625 C 10.496094 7.945312 10.648438 7.886719 10.839844 7.886719 C 10.933594 7.886719 11.039062 7.902344 11.15625 7.9375 L 11.15625 7.183594 C 11.101562 7.171875 11.039062 7.164062 10.964844 7.164062 Z M 10.964844 7.164062 "/>
</g>
</svg>
