<?xml version="1.0" encoding="UTF-8"?>
<svg xmlns="http://www.w3.org/2000/svg" xmlns:xlink="http://www.w3.org/1999/xlink" width="16pt" height="16pt" viewBox="0 0 16 16" version="1.1">
<g id="surface1">
<path style="fill-rule:nonzero;fill:rgb(100%,100%,100%);fill-opacity:1;stroke-width:2.611469;stroke-linecap:butt;stroke-linejoin:miter;stroke:rgb(56.470588%,56.470588%,56.470588%);stroke-opacity:1;stroke-miterlimit:4;" d="M 7.828125 2.613281 L 40.171875 2.613281 C 43.054688 2.613281 45.386719 4.945312 45.386719 7.828125 L 45.386719 40.171875 C 45.386719 43.054688 43.054688 45.386719 40.171875 45.386719 L 7.828125 45.386719 C 4.945312 45.386719 2.613281 43.054688 2.613281 40.171875 L 2.613281 7.828125 C 2.613281 4.945312 4.945312 2.613281 7.828125 2.613281 Z M 7.828125 2.613281 " transform="matrix(0.333333,0,0,0.333333,0,0)"/>
<path style=" stroke:none;fill-rule:evenodd;fill:rgb(30.196078%,30.196078%,30.196078%);fill-opacity:1;" d="M 8.105469 8.820312 C 8.636719 8.785156 9.042969 8.332031 9.015625 7.796875 C 8.988281 7.265625 8.539062 6.851562 8.007812 6.871094 C 7.472656 6.886719 7.050781 7.328125 7.0625 7.863281 C 7.070312 8.394531 7.503906 8.824219 8.039062 8.824219 "/>
<path style="fill:none;stroke-width:3.131226;stroke-linecap:square;stroke-linejoin:bevel;stroke:rgb(30.196078%,30.196078%,30.196078%);stroke-opacity:1;stroke-miterlimit:4;" d="M -0.00600659 -0.00110532 L -0.00600659 23.271119 " transform="matrix(0.240865,0,0,0.240865,8.040509,7.832297)"/>
<path style="fill:none;stroke-width:3.131226;stroke-linecap:square;stroke-linejoin:miter;stroke:rgb(30.196078%,30.196078%,30.196078%);stroke-opacity:1;stroke-miterlimit:2.012602;" d="M 17.899654 16.138544 C 21.159387 11.954408 20.575554 5.970122 16.58603 2.467125 C 12.596506 -1.019654 6.579784 -0.792608 2.865959 2.986088 C -0.847866 6.764783 -0.961389 12.797722 2.59026 16.722376 " transform="matrix(0.240865,0,0,0.240865,5.630003,5.511224)"/>
<path style="fill:none;stroke-width:3.131226;stroke-linecap:square;stroke-linejoin:miter;stroke:rgb(30.196078%,30.196078%,30.196078%);stroke-opacity:1;stroke-miterlimit:2.012602;" d="M 28.701024 25.886687 C 33.955519 19.123957 32.982465 9.442063 26.495433 3.863216 C 19.992185 -1.699413 10.277855 -1.196668 4.390874 5.014664 C -1.479889 11.209779 -1.463671 20.956543 4.455745 27.135441 " transform="matrix(0.240865,0,0,0.240865,4.157235,4.092923)"/>
<path style="fill:none;stroke-width:3.131226;stroke-linecap:square;stroke-linejoin:miter;stroke:rgb(30.196078%,30.196078%,30.196078%);stroke-opacity:1;stroke-miterlimit:2.012602;" d="M 39.249069 35.383698 C 46.417239 26.172114 45.103615 12.971005 36.281252 5.332526 C 27.442672 -2.289736 14.192911 -1.673468 6.100339 6.743455 C -1.976015 15.160378 -2.040885 28.442575 5.938163 36.940586 " transform="matrix(0.240865,0,0,0.240865,2.737672,2.723393)"/>
</g>
</svg>
