<?xml version="1.0" encoding="UTF-8"?>
<svg xmlns="http://www.w3.org/2000/svg" xmlns:xlink="http://www.w3.org/1999/xlink" width="96pt" height="96pt" viewBox="0 0 96 96" version="1.1">
<g id="surface1">
<path style="fill-rule:nonzero;fill:rgb(34.509804%,47.058824%,35.686275%);fill-opacity:1;stroke-width:18.73;stroke-linecap:butt;stroke-linejoin:miter;stroke:rgb(24.705882%,33.72549%,25.490196%);stroke-opacity:1;stroke-miterlimit:4;" d="M 78.645833 31 L 433.354167 31 C 459.666667 31 481 52.333333 481 78.645833 L 481 433.354167 C 481 459.666667 459.666667 481 433.354167 481 L 78.645833 481 C 52.333333 481 31 459.666667 31 433.354167 L 31 78.645833 C 31 52.333333 52.333333 31 78.645833 31 Z M 78.645833 31 " transform="matrix(0.1875,0,0,0.1875,0,0)"/>
<path style=" stroke:none;fill-rule:nonzero;fill:rgb(100%,100%,100%);fill-opacity:1;" d="M 63.378906 21.558594 L 67.121094 21.558594 C 68.789062 21.558594 70.140625 22.859375 70.140625 24.464844 L 70.140625 26.128906 C 70.140625 27.734375 68.789062 29.035156 67.121094 29.035156 L 63.378906 29.035156 C 61.710938 29.035156 60.359375 27.734375 60.359375 26.128906 L 60.359375 24.464844 C 60.359375 22.859375 61.710938 21.558594 63.378906 21.558594 Z M 63.378906 21.558594 "/>
<path style=" stroke:none;fill-rule:nonzero;fill:rgb(100%,100%,100%);fill-opacity:1;" d="M 63.378906 32.433594 L 67.121094 32.433594 C 68.789062 32.433594 70.140625 33.734375 70.140625 35.339844 L 70.140625 37.003906 C 70.140625 38.609375 68.789062 39.910156 67.121094 39.910156 L 63.378906 39.910156 C 61.710938 39.910156 60.359375 38.609375 60.359375 37.003906 L 60.359375 35.339844 C 60.359375 33.734375 61.710938 32.433594 63.378906 32.433594 Z M 63.378906 32.433594 "/>
<path style=" stroke:none;fill-rule:nonzero;fill:rgb(100%,100%,100%);fill-opacity:1;" d="M 63.378906 44.058594 L 67.121094 44.058594 C 68.789062 44.058594 70.140625 45.359375 70.140625 46.964844 L 70.140625 48.628906 C 70.140625 50.234375 68.789062 51.535156 67.121094 51.535156 L 63.378906 51.535156 C 61.710938 51.535156 60.359375 50.234375 60.359375 48.628906 L 60.359375 46.964844 C 60.359375 45.359375 61.710938 44.058594 63.378906 44.058594 Z M 63.378906 44.058594 "/>
<path style=" stroke:none;fill-rule:nonzero;fill:rgb(100%,100%,100%);fill-opacity:1;" d="M 63.378906 54.933594 L 67.121094 54.933594 C 68.789062 54.933594 70.140625 56.234375 70.140625 57.839844 L 70.140625 59.503906 C 70.140625 61.109375 68.789062 62.410156 67.121094 62.410156 L 63.378906 62.410156 C 61.710938 62.410156 60.359375 61.109375 60.359375 59.503906 L 60.359375 57.839844 C 60.359375 56.234375 61.710938 54.933594 63.378906 54.933594 Z M 63.378906 54.933594 "/>
<path style=" stroke:none;fill-rule:nonzero;fill:rgb(100%,100%,100%);fill-opacity:1;" d="M 63.378906 66.183594 L 67.121094 66.183594 C 68.789062 66.183594 70.140625 67.484375 70.140625 69.089844 L 70.140625 70.753906 C 70.140625 72.359375 68.789062 73.660156 67.121094 73.660156 L 63.378906 73.660156 C 61.710938 73.660156 60.359375 72.359375 60.359375 70.753906 L 60.359375 69.089844 C 60.359375 67.484375 61.710938 66.183594 63.378906 66.183594 Z M 63.378906 66.183594 "/>
<path style=" stroke:none;fill-rule:nonzero;fill:rgb(100%,100%,100%);fill-opacity:1;" d="M 28.878906 21.558594 L 32.621094 21.558594 C 34.289062 21.558594 35.640625 22.859375 35.640625 24.464844 L 35.640625 26.128906 C 35.640625 27.734375 34.289062 29.035156 32.621094 29.035156 L 28.878906 29.035156 C 27.210938 29.035156 25.859375 27.734375 25.859375 26.128906 L 25.859375 24.464844 C 25.859375 22.859375 27.210938 21.558594 28.878906 21.558594 Z M 28.878906 21.558594 "/>
<path style=" stroke:none;fill-rule:nonzero;fill:rgb(100%,100%,100%);fill-opacity:1;" d="M 28.878906 32.433594 L 32.621094 32.433594 C 34.289062 32.433594 35.640625 33.734375 35.640625 35.339844 L 35.640625 37.003906 C 35.640625 38.609375 34.289062 39.910156 32.621094 39.910156 L 28.878906 39.910156 C 27.210938 39.910156 25.859375 38.609375 25.859375 37.003906 L 25.859375 35.339844 C 25.859375 33.734375 27.210938 32.433594 28.878906 32.433594 Z M 28.878906 32.433594 "/>
<path style=" stroke:none;fill-rule:nonzero;fill:rgb(100%,100%,100%);fill-opacity:1;" d="M 28.878906 44.058594 L 32.621094 44.058594 C 34.289062 44.058594 35.640625 45.359375 35.640625 46.964844 L 35.640625 48.628906 C 35.640625 50.234375 34.289062 51.535156 32.621094 51.535156 L 28.878906 51.535156 C 27.210938 51.535156 25.859375 50.234375 25.859375 48.628906 L 25.859375 46.964844 C 25.859375 45.359375 27.210938 44.058594 28.878906 44.058594 Z M 28.878906 44.058594 "/>
<path style=" stroke:none;fill-rule:nonzero;fill:rgb(100%,100%,100%);fill-opacity:1;" d="M 28.878906 54.933594 L 32.621094 54.933594 C 34.289062 54.933594 35.640625 56.234375 35.640625 57.839844 L 35.640625 59.503906 C 35.640625 61.109375 34.289062 62.410156 32.621094 62.410156 L 28.878906 62.410156 C 27.210938 62.410156 25.859375 61.109375 25.859375 59.503906 L 25.859375 57.839844 C 25.859375 56.234375 27.210938 54.933594 28.878906 54.933594 Z M 28.878906 54.933594 "/>
<path style=" stroke:none;fill-rule:nonzero;fill:rgb(100%,100%,100%);fill-opacity:1;" d="M 28.878906 66.183594 L 32.621094 66.183594 C 34.289062 66.183594 35.640625 67.484375 35.640625 69.089844 L 35.640625 70.753906 C 35.640625 72.359375 34.289062 73.660156 32.621094 73.660156 L 28.878906 73.660156 C 27.210938 73.660156 25.859375 72.359375 25.859375 70.753906 L 25.859375 69.089844 C 25.859375 67.484375 27.210938 66.183594 28.878906 66.183594 Z M 28.878906 66.183594 "/>
<path style=" stroke:none;fill-rule:nonzero;fill:rgb(28.627451%,28.627451%,29.803922%);fill-opacity:1;" d="M 60.613281 81.054688 C 60.1875 81.292969 59.492188 81.570312 59.070312 81.667969 C 58.035156 81.914062 36.007812 81.703125 35.191406 81.4375 C 34.15625 81.105469 32.917969 80 32.277344 78.832031 C 31.78125 77.929688 31.730469 77.582031 31.777344 75.503906 C 31.808594 74.230469 31.828125 71.824219 31.816406 70.15625 C 31.808594 68.488281 31.804688 66.058594 31.8125 64.757812 C 31.816406 63.457031 31.824219 60.960938 31.824219 59.210938 C 31.824219 57.460938 31.824219 54.957031 31.824219 53.644531 C 31.824219 52.332031 31.824219 49.8125 31.824219 48.042969 C 31.824219 46.273438 31.820312 43.753906 31.820312 42.441406 C 31.820312 41.128906 31.855469 38.65625 31.894531 36.945312 C 31.933594 35.234375 31.902344 33.769531 31.820312 33.6875 C 31.742188 33.605469 31.710938 32.5 31.753906 31.226562 C 31.859375 28.144531 31.859375 22.824219 31.753906 20.820312 C 31.605469 17.976562 32.535156 16.097656 34.664062 14.925781 C 35.636719 14.390625 35.925781 14.375 47.277344 14.269531 C 60.214844 14.148438 60.089844 14.136719 61.769531 15.808594 C 62.976562 17.015625 63.363281 18.144531 63.375 20.5 C 63.378906 21.554688 63.320312 22.476562 63.242188 22.558594 C 63.109375 22.691406 63.132812 25.585938 63.320312 31.226562 C 63.359375 32.5 63.328125 33.609375 63.246094 33.6875 C 63.164062 33.769531 63.132812 35.265625 63.175781 37.007812 C 63.214844 38.753906 63.25 41.183594 63.246094 42.40625 C 63.246094 43.628906 63.246094 46.121094 63.246094 47.941406 C 63.246094 49.765625 63.246094 52.273438 63.246094 53.511719 C 63.246094 54.75 63.246094 57.257812 63.246094 59.078125 C 63.246094 60.902344 63.246094 63.410156 63.246094 64.648438 C 63.242188 72.058594 63.25 74.027344 63.285156 75.5 C 63.339844 78.050781 62.371094 80.0625 60.613281 81.054688 Z M 60.613281 81.054688 "/>
<path style=" stroke:none;fill-rule:nonzero;fill:rgb(80%,80%,80%);fill-opacity:1;" d="M 59.640625 77.359375 C 59.640625 78.628906 58.609375 79.660156 57.339844 79.660156 C 56.070312 79.660156 55.039062 78.628906 55.039062 77.359375 C 55.039062 76.089844 56.070312 75.058594 57.339844 75.058594 C 58.609375 75.058594 59.640625 76.089844 59.640625 77.359375 Z M 59.640625 77.359375 "/>
<path style=" stroke:none;fill-rule:nonzero;fill:rgb(80%,80%,80%);fill-opacity:1;" d="M 46.265625 14.605469 L 48.855469 14.605469 L 48.855469 19.800781 L 46.265625 19.800781 Z M 46.265625 14.605469 "/>
<path style=" stroke:none;fill-rule:nonzero;fill:rgb(100%,100%,100%);fill-opacity:1;" d="M 39.425781 57.914062 C 39.261719 57.753906 39.21875 57.410156 39.21875 56.382812 C 39.21875 55.246094 39.257812 55 39.496094 54.664062 C 39.738281 54.320312 39.84375 54.277344 40.324219 54.3125 C 40.835938 54.347656 40.875 54.378906 40.914062 54.78125 C 40.9375 55.023438 40.890625 55.210938 40.8125 55.210938 C 40.734375 55.210938 40.554688 55.332031 40.40625 55.476562 C 40.191406 55.695312 40.144531 55.917969 40.144531 56.722656 C 40.144531 57.261719 40.105469 57.800781 40.0625 57.914062 C 39.960938 58.179688 39.691406 58.183594 39.425781 57.914062 Z M 39.425781 57.914062 "/>
<path style=" stroke:none;fill-rule:nonzero;fill:rgb(100%,100%,100%);fill-opacity:1;" d="M 55.925781 58.039062 C 55.8125 57.992188 55.761719 57.621094 55.761719 56.84375 C 55.761719 55.761719 55.746094 55.699219 55.363281 55.34375 C 54.9375 54.945312 54.871094 54.699219 55.125 54.445312 C 55.40625 54.164062 55.984375 54.257812 56.285156 54.640625 C 56.535156 54.960938 56.558594 55.136719 56.523438 56.523438 C 56.488281 58.09375 56.425781 58.246094 55.925781 58.039062 Z M 55.925781 58.039062 "/>
<path style=" stroke:none;fill-rule:nonzero;fill:rgb(100%,100%,100%);fill-opacity:1;" d="M 37.984375 56.980469 C 37.933594 56.929688 37.894531 56.257812 37.894531 55.488281 L 37.898438 54.085938 L 38.480469 53.46875 L 39.0625 52.847656 L 39.835938 52.914062 C 40.875 53.007812 40.960938 53.046875 40.914062 53.390625 C 40.878906 53.640625 40.769531 53.703125 40.246094 53.761719 C 39.804688 53.8125 39.492188 53.949219 39.1875 54.226562 C 38.949219 54.441406 38.726562 54.636719 38.6875 54.660156 C 38.652344 54.683594 38.589844 55.21875 38.554688 55.851562 C 38.503906 56.746094 38.445312 57.003906 38.285156 57.035156 C 38.171875 57.054688 38.039062 57.03125 37.984375 56.980469 Z M 37.984375 56.980469 "/>
<path style=" stroke:none;fill-rule:nonzero;fill:rgb(100%,100%,100%);fill-opacity:1;" d="M 57.378906 56.863281 C 57.3125 56.742188 57.285156 56.378906 57.316406 56.054688 C 57.417969 55.039062 57.261719 54.585938 56.660156 54.148438 C 56.324219 53.90625 55.953125 53.757812 55.691406 53.757812 C 55.21875 53.757812 54.894531 53.472656 55.011719 53.164062 C 55.070312 53.011719 55.3125 52.960938 56.007812 52.960938 L 56.929688 52.960938 L 57.472656 53.578125 C 58.128906 54.328125 58.164062 54.449219 58.117188 55.875 C 58.078125 56.914062 58.054688 57 57.789062 57.039062 C 57.625 57.0625 57.449219 56.984375 57.378906 56.863281 Z M 57.378906 56.863281 "/>
<path style=" stroke:none;fill-rule:nonzero;fill:rgb(100%,100%,100%);fill-opacity:1;" d="M 36.601562 55.984375 C 36.492188 55.875 36.4375 55.375 36.4375 54.492188 L 36.441406 53.160156 L 37.316406 52.195312 L 38.1875 51.234375 L 39.464844 51.269531 L 40.738281 51.308594 L 40.738281 51.703125 C 40.738281 52.101562 40.738281 52.101562 39.882812 52.140625 C 38.941406 52.1875 38.855469 52.238281 37.992188 53.265625 C 37.488281 53.867188 37.453125 53.964844 37.378906 54.988281 C 37.308594 55.941406 37.265625 56.078125 37.03125 56.109375 C 36.886719 56.132812 36.691406 56.074219 36.601562 55.984375 Z M 36.601562 55.984375 "/>
<path style=" stroke:none;fill-rule:nonzero;fill:rgb(100%,100%,100%);fill-opacity:1;" d="M 41.632812 55.984375 C 41.507812 55.863281 41.464844 55.03125 41.464844 52.792969 C 41.464844 49.960938 41.449219 49.738281 41.203125 49.425781 C 41 49.167969 40.9375 48.886719 40.9375 48.234375 L 40.9375 47.378906 L 39.679688 46.082031 L 38.421875 44.78125 L 38.421875 43.546875 C 38.417969 42.863281 38.367188 42.226562 38.304688 42.128906 C 38.242188 42.03125 37.992188 41.910156 37.746094 41.859375 L 37.296875 41.769531 L 37.296875 37.941406 L 37.890625 37.941406 C 38.464844 37.941406 38.484375 37.957031 38.625 38.460938 C 38.710938 38.757812 38.878906 39.015625 39.019531 39.066406 C 39.160156 39.113281 39.328125 39.375 39.410156 39.671875 C 39.585938 40.296875 39.925781 40.371094 39.988281 39.792969 C 40.046875 39.304688 40.210938 39.09375 40.582031 39.039062 C 40.808594 39.007812 40.886719 38.886719 40.9375 38.46875 C 41.003906 37.941406 41.003906 37.941406 41.597656 37.941406 C 42.183594 37.941406 42.191406 37.945312 42.285156 38.46875 C 42.335938 38.761719 42.382812 39.574219 42.386719 40.28125 C 42.394531 41.671875 42.265625 41.976562 41.671875 41.976562 C 41.324219 41.976562 41.207031 42.261719 41.203125 43.125 C 41.203125 43.746094 41.644531 44.386719 42.972656 45.679688 L 43.714844 46.402344 L 43.71875 47.53125 C 43.71875 48.152344 43.769531 48.742188 43.832031 48.835938 C 43.902344 48.949219 44.339844 49.042969 45.03125 49.089844 L 46.117188 49.164062 L 47.058594 50.203125 C 47.578125 50.773438 48.089844 51.242188 48.191406 51.242188 C 48.296875 51.242188 48.84375 50.75 49.40625 50.148438 L 50.429688 49.058594 L 51.363281 49.09375 C 52.636719 49.144531 52.714844 49.050781 52.714844 47.5 L 52.714844 46.292969 L 53.972656 45.015625 C 55.179688 43.789062 55.230469 43.710938 55.230469 43.152344 C 55.226562 42.273438 55.109375 41.984375 54.71875 41.890625 C 54.066406 41.734375 54.039062 41.65625 54.039062 39.859375 C 54.039062 37.980469 54.101562 37.824219 54.855469 37.898438 C 55.238281 37.9375 55.308594 38.003906 55.4375 38.46875 C 55.542969 38.851562 55.667969 39.011719 55.902344 39.066406 C 56.148438 39.125 56.238281 39.257812 56.300781 39.636719 C 56.394531 40.214844 56.472656 40.316406 56.746094 40.210938 C 56.875 40.160156 56.953125 39.964844 56.953125 39.679688 C 56.953125 39.292969 57.011719 39.203125 57.339844 39.089844 C 57.664062 38.976562 57.734375 38.871094 57.769531 38.445312 C 57.808594 37.976562 57.84375 37.9375 58.269531 37.898438 C 58.980469 37.828125 59.070312 38.0625 59.070312 39.992188 C 59.070312 41.75 59 41.976562 58.460938 41.976562 C 58.085938 41.976562 58.015625 42.269531 58.011719 43.765625 L 58.011719 44.957031 L 56.796875 46.097656 L 55.585938 47.242188 L 55.507812 48.140625 C 55.429688 49.019531 55.417969 49.042969 55.007812 49.152344 C 54.613281 49.253906 54.582031 49.300781 54.503906 50.019531 C 54.457031 50.4375 54.410156 50.867188 54.394531 50.976562 C 54.371094 51.136719 54.101562 51.183594 53.046875 51.214844 C 52.320312 51.234375 51.683594 51.292969 51.632812 51.347656 C 51.503906 51.480469 51.449219 54.652344 51.574219 54.777344 C 51.632812 54.835938 52.253906 54.910156 52.957031 54.949219 L 54.238281 55.011719 L 54.277344 55.574219 L 54.320312 56.136719 L 52.277344 56.136719 C 50.800781 56.136719 50.195312 56.09375 50.101562 55.972656 C 50.027344 55.882812 49.941406 55.140625 49.917969 54.328125 C 49.890625 53.515625 49.824219 52.804688 49.773438 52.753906 C 49.722656 52.703125 49.40625 52.96875 49.066406 53.339844 C 48.730469 53.714844 48.363281 54.019531 48.246094 54.019531 C 48.128906 54.019531 47.757812 53.722656 47.421875 53.359375 C 47.085938 52.996094 46.742188 52.699219 46.65625 52.699219 C 46.550781 52.699219 46.492188 53.214844 46.46875 54.386719 L 46.429688 56.074219 L 45.523438 56.113281 C 44.988281 56.136719 44.546875 56.089844 44.441406 56.003906 C 44.339844 55.921875 44.242188 55.605469 44.21875 55.300781 C 44.1875 54.851562 44.113281 54.71875 43.816406 54.578125 C 43.527344 54.4375 43.453125 54.3125 43.453125 53.964844 C 43.453125 53.425781 43.148438 53.117188 42.859375 53.355469 C 42.722656 53.472656 42.65625 53.871094 42.628906 54.792969 L 42.589844 56.074219 L 42.195312 56.113281 C 41.976562 56.132812 41.722656 56.078125 41.632812 55.984375 Z M 41.632812 55.984375 "/>
<path style=" stroke:none;fill-rule:nonzero;fill:rgb(100%,100%,100%);fill-opacity:1;" d="M 44.089844 51.539062 C 44.039062 51.265625 43.109375 51.136719 42.875 51.371094 C 42.660156 51.582031 43.007812 51.765625 43.628906 51.769531 C 44.039062 51.769531 44.125 51.726562 44.089844 51.539062 Z M 44.089844 51.539062 "/>
<path style=" stroke:none;fill-rule:nonzero;fill:rgb(100%,100%,100%);fill-opacity:1;" d="M 58.703125 56.050781 C 58.59375 56.003906 58.539062 55.65625 58.539062 54.96875 C 58.539062 53.976562 58.527344 53.933594 58.003906 53.289062 C 57.207031 52.308594 56.996094 52.167969 56.308594 52.15625 C 55.34375 52.132812 55.03125 52.007812 55.03125 51.632812 C 55.03125 51.3125 55.050781 51.308594 56.308594 51.269531 L 57.585938 51.234375 L 58.460938 52.234375 C 58.941406 52.785156 59.335938 53.308594 59.335938 53.398438 C 59.339844 53.484375 59.375 54.050781 59.417969 54.648438 C 59.515625 55.964844 59.339844 56.308594 58.703125 56.050781 Z M 58.703125 56.050781 "/>
<path style=" stroke:none;fill-rule:nonzero;fill:rgb(100%,100%,100%);fill-opacity:1;" d="M 35.203125 55.125 C 35.152344 55.074219 35.113281 54.394531 35.113281 53.609375 L 35.113281 52.179688 L 36.140625 50.980469 L 37.164062 49.777344 L 39.019531 49.816406 L 40.871094 49.851562 L 40.871094 50.183594 C 40.871094 50.511719 40.867188 50.515625 39.328125 50.578125 C 38.476562 50.617188 37.753906 50.675781 37.722656 50.710938 C 36.578125 51.996094 36.039062 52.777344 36.039062 53.15625 C 36.039062 53.394531 36.003906 53.953125 35.957031 54.398438 C 35.878906 55.121094 35.839844 55.210938 35.582031 55.210938 C 35.421875 55.210938 35.25 55.171875 35.203125 55.125 Z M 35.203125 55.125 "/>
<path style=" stroke:none;fill-rule:nonzero;fill:rgb(100%,100%,100%);fill-opacity:1;" d="M 59.949219 55.125 C 59.902344 55.074219 59.863281 54.484375 59.863281 53.808594 L 59.863281 52.582031 L 59.070312 51.660156 C 58.632812 51.15625 58.179688 50.703125 58.066406 50.660156 C 57.949219 50.617188 57.339844 50.578125 56.707031 50.578125 C 55.175781 50.574219 54.941406 50.503906 54.992188 50.066406 C 55.035156 49.679688 54.820312 49.707031 57.335938 49.757812 L 58.644531 49.785156 L 59.71875 51.050781 C 60.308594 51.746094 60.796875 52.445312 60.804688 52.605469 C 60.8125 52.765625 60.839844 53.253906 60.863281 53.691406 C 60.9375 54.898438 60.839844 55.210938 60.402344 55.210938 C 60.203125 55.210938 60 55.171875 59.949219 55.125 Z M 59.949219 55.125 "/>
<path style=" stroke:none;fill-rule:nonzero;fill:rgb(100%,100%,100%);fill-opacity:1;" d="M 46.207031 48.058594 C 45.917969 47.992188 45.898438 47.917969 45.863281 46.804688 C 45.828125 45.757812 45.785156 45.582031 45.5 45.28125 C 45.324219 45.097656 45.140625 44.757812 45.09375 44.527344 C 45.023438 44.175781 45.074219 44.039062 45.410156 43.703125 C 45.632812 43.480469 45.910156 43.300781 46.027344 43.300781 C 46.433594 43.300781 46.988281 43.683594 47.152344 44.078125 C 47.347656 44.550781 47.242188 44.96875 46.804688 45.433594 C 46.523438 45.734375 46.488281 45.882812 46.523438 46.558594 L 46.5625 47.335938 L 49.871094 47.335938 L 49.910156 46.503906 C 49.945312 45.773438 49.910156 45.621094 49.613281 45.269531 C 49.105469 44.667969 49.113281 44.054688 49.636719 43.585938 C 50.066406 43.199219 50.660156 43.277344 51.09375 43.769531 C 51.484375 44.214844 51.472656 44.773438 51.0625 45.261719 C 50.769531 45.609375 50.730469 45.78125 50.730469 46.695312 C 50.726562 47.265625 50.675781 47.816406 50.613281 47.914062 C 50.527344 48.050781 50.027344 48.097656 48.503906 48.113281 C 47.40625 48.125 46.375 48.097656 46.207031 48.058594 Z M 46.207031 48.058594 "/>
</g>
</svg>
