
<svg xmlns="http://www.w3.org/2000/svg" xmlns:xlink="http://www.w3.org/1999/xlink" width="96px" height="96px" viewBox="0 0 96 96" version="1.1">
<g id="surface1">
<path style="fill-rule:nonzero;fill:rgb(100%,100%,100%);fill-opacity:1;stroke-width:28.191782;stroke-linecap:butt;stroke-linejoin:miter;stroke:rgb(60.784314%,61.568627%,65.098039%);stroke-opacity:1;stroke-miterlimit:4;" d="M 81.479167 25.104167 L 430.520833 25.104167 C 461.666667 25.104167 486.895833 50.333333 486.895833 81.479167 L 486.895833 430.520833 C 486.895833 461.666667 461.666667 486.895833 430.520833 486.895833 L 81.479167 486.895833 C 50.333333 486.895833 25.104167 461.666667 25.104167 430.520833 L 25.104167 81.479167 C 25.104167 50.333333 50.333333 25.104167 81.479167 25.104167 Z M 81.479167 25.104167 " transform="matrix(0.1875,0,0,0.1875,0,0)"/>
<path style=" stroke:none;fill-rule:nonzero;fill:rgb(100%,100%,100%);fill-opacity:1;" d="M 78.101562 48.4375 C 78.101562 64.613281 64.671875 77.726562 48.105469 77.726562 C 31.539062 77.726562 18.109375 64.613281 18.109375 48.4375 C 18.109375 32.261719 31.539062 19.152344 48.105469 19.152344 C 64.671875 19.152344 78.101562 32.261719 78.101562 48.4375 Z M 78.101562 48.4375 "/>
<path style=" stroke:none;fill-rule:nonzero;fill:rgb(52.54902%,56.470588%,58.039216%);fill-opacity:1;" d="M 42.777344 85.878906 C 42.113281 85.582031 41.40625 84.824219 41.09375 84.070312 C 40.929688 83.679688 40.769531 82.1875 40.628906 79.796875 C 40.511719 77.773438 40.355469 75.957031 40.285156 75.761719 C 40.191406 75.5 39.726562 75.253906 38.570312 74.851562 C 37.699219 74.546875 36.386719 73.996094 35.65625 73.625 C 34.921875 73.257812 34.164062 72.957031 33.96875 72.957031 C 33.75 72.957031 32.550781 73.929688 30.84375 75.496094 C 29.320312 76.894531 27.828125 78.164062 27.527344 78.320312 C 26.90625 78.636719 25.515625 78.6875 24.792969 78.417969 C 24.222656 78.207031 18.167969 72.242188 17.78125 71.507812 C 17.394531 70.78125 17.4375 69.421875 17.867188 68.597656 C 18.066406 68.21875 19.347656 66.699219 20.714844 65.21875 C 22.1875 63.621094 23.203125 62.382812 23.203125 62.179688 C 23.203125 61.992188 22.902344 61.238281 22.53125 60.503906 C 22.164062 59.773438 21.613281 58.464844 21.3125 57.597656 C 21.007812 56.726562 20.636719 55.953125 20.484375 55.875 C 20.335938 55.796875 18.554688 55.640625 16.535156 55.53125 C 14.183594 55.402344 12.601562 55.234375 12.144531 55.070312 C 11.269531 54.757812 10.265625 53.6875 10.125 52.921875 C 10.066406 52.609375 10.042969 50.304688 10.070312 47.796875 L 10.125 43.242188 L 10.648438 42.585938 C 11.574219 41.425781 12.007812 41.308594 16.429688 41.035156 C 18.933594 40.882812 20.453125 40.71875 20.582031 40.589844 C 20.691406 40.480469 21.066406 39.621094 21.414062 38.679688 C 21.761719 37.738281 22.308594 36.453125 22.625 35.820312 C 22.941406 35.1875 23.203125 34.53125 23.203125 34.363281 C 23.203125 34.191406 22.15625 32.90625 20.875 31.5 C 19.597656 30.097656 18.371094 28.714844 18.15625 28.429688 C 17.546875 27.625 17.34375 26.628906 17.582031 25.652344 C 17.765625 24.914062 18.097656 24.515625 20.878906 21.695312 C 22.578125 19.972656 24.257812 18.414062 24.605469 18.234375 C 25.414062 17.816406 26.703125 17.8125 27.507812 18.222656 C 27.84375 18.394531 29.328125 19.644531 30.804688 21 C 32.28125 22.355469 33.589844 23.519531 33.710938 23.589844 C 33.839844 23.664062 34.636719 23.382812 35.605469 22.925781 C 36.523438 22.492188 37.898438 21.925781 38.65625 21.667969 C 39.691406 21.320312 40.089844 21.097656 40.234375 20.792969 C 40.339844 20.570312 40.519531 18.734375 40.632812 16.710938 C 40.855469 12.824219 40.988281 12.207031 41.789062 11.371094 C 42.679688 10.441406 43.195312 10.363281 48.179688 10.421875 L 52.71875 10.46875 L 53.429688 10.941406 C 54.652344 11.75 54.800781 12.253906 55.085938 16.578125 C 55.226562 18.671875 55.378906 20.550781 55.425781 20.75 C 55.488281 21.03125 55.863281 21.234375 57.082031 21.660156 C 57.945312 21.960938 59.328125 22.550781 60.15625 22.964844 C 60.984375 23.378906 61.726562 23.71875 61.808594 23.71875 C 61.890625 23.71875 63.21875 22.5625 64.761719 21.144531 C 66.304688 19.730469 67.851562 18.421875 68.199219 18.238281 C 69.027344 17.808594 70.253906 17.8125 71.15625 18.25 C 71.582031 18.457031 73.039062 19.78125 74.863281 21.625 C 78 24.792969 78.25 25.15625 78.25 26.589844 C 78.253906 27.605469 77.800781 28.269531 75.105469 31.226562 C 73.636719 32.832031 72.4375 34.214844 72.4375 34.300781 C 72.4375 34.382812 72.820312 35.25 73.289062 36.222656 C 73.757812 37.199219 74.3125 38.5625 74.527344 39.257812 C 74.792969 40.117188 75.027344 40.5625 75.261719 40.664062 C 75.449219 40.742188 77.335938 40.917969 79.460938 41.050781 C 83.671875 41.3125 84.351562 41.488281 85.054688 42.480469 C 85.722656 43.417969 85.800781 44.121094 85.742188 48.707031 L 85.6875 53.097656 L 85.171875 53.828125 C 84.253906 55.136719 84.019531 55.203125 79.347656 55.511719 C 77.066406 55.660156 75.15625 55.820312 75.109375 55.871094 C 75.058594 55.917969 74.777344 56.648438 74.476562 57.492188 C 74.179688 58.335938 73.597656 59.703125 73.179688 60.535156 C 72.761719 61.367188 72.445312 62.148438 72.472656 62.273438 C 72.5 62.398438 73.640625 63.71875 75.003906 65.207031 C 76.367188 66.691406 77.65625 68.25 77.867188 68.667969 C 78.316406 69.554688 78.359375 70.492188 77.988281 71.378906 C 77.660156 72.160156 72.109375 77.804688 71.207031 78.269531 C 70.453125 78.660156 69.078125 78.703125 68.289062 78.359375 C 67.984375 78.226562 66.46875 76.960938 64.917969 75.539062 C 63.367188 74.121094 61.972656 72.957031 61.820312 72.957031 C 61.671875 72.957031 60.796875 73.308594 59.878906 73.738281 C 58.960938 74.164062 57.601562 74.714844 56.859375 74.960938 C 55.832031 75.300781 55.484375 75.492188 55.421875 75.765625 C 55.378906 75.960938 55.226562 77.832031 55.085938 79.925781 C 54.78125 84.53125 54.605469 85.03125 53 85.84375 C 52.535156 86.078125 51.765625 86.121094 47.871094 86.113281 C 44.425781 86.109375 43.164062 86.050781 42.777344 85.878906 Z M 49.53125 65.429688 C 53.664062 64.996094 57.117188 63.347656 60.054688 60.40625 C 62.296875 58.164062 63.742188 55.644531 64.613281 52.472656 C 65.160156 50.484375 65.15625 46.089844 64.605469 44.078125 C 62.941406 37.964844 58.566406 33.46875 52.523438 31.648438 C 51.113281 31.222656 50.730469 31.183594 47.992188 31.171875 C 45.367188 31.160156 44.820312 31.207031 43.546875 31.554688 C 37.183594 33.289062 32.316406 38.402344 30.988281 44.75 C 29.792969 50.449219 31.539062 56.265625 35.703125 60.449219 C 37.882812 62.640625 40.707031 64.246094 43.769531 65.035156 C 44.644531 65.261719 45.882812 65.433594 47.648438 65.578125 C 47.789062 65.589844 48.636719 65.523438 49.53125 65.429688 Z M 45.289062 58.261719 C 40.929688 57.078125 37.878906 53.371094 37.609375 48.921875 C 37.421875 45.8125 38.421875 43.183594 40.628906 40.984375 C 44.652344 36.976562 51.074219 36.941406 55.042969 40.898438 C 58.3125 44.160156 59.097656 48.796875 57.070312 52.867188 C 55.339844 56.335938 52.15625 58.378906 48.25 58.535156 C 46.917969 58.585938 46.261719 58.527344 45.289062 58.261719 Z M 50.167969 53.949219 C 51.371094 53.5 52.808594 52.164062 53.410156 50.9375 C 53.839844 50.066406 53.890625 49.777344 53.890625 48.253906 C 53.890625 46.628906 53.859375 46.488281 53.304688 45.460938 C 52.179688 43.390625 50.515625 42.34375 48.164062 42.226562 C 46.273438 42.128906 45.140625 42.53125 43.777344 43.777344 C 42.046875 45.359375 41.359375 47.554688 41.914062 49.726562 C 42.394531 51.601562 43.414062 52.878906 45.128906 53.746094 C 46.726562 54.554688 48.371094 54.625 50.167969 53.949219 Z M 50.167969 53.949219 "/>
</g>
</svg>
