
<svg xmlns="http://www.w3.org/2000/svg" xmlns:xlink="http://www.w3.org/1999/xlink" width="96px" height="96px" viewBox="0 0 96 96" version="1.1">
<g id="surface1">
<path style="fill-rule:nonzero;fill:rgb(100%,100%,100%);fill-opacity:1;stroke-width:28.191782;stroke-linecap:butt;stroke-linejoin:miter;stroke:rgb(6.27451%,63.137255%,52.941176%);stroke-opacity:1;stroke-miterlimit:4;" d="M 81.479157 635.623743 L 430.520823 635.623743 C 461.666657 635.623743 486.895823 660.852909 486.895823 691.998743 L 486.895823 1041.040409 C 486.895823 1072.186243 461.666657 1097.415409 430.520823 1097.415409 L 81.479157 1097.415409 C 50.333323 1097.415409 25.104157 1072.186243 25.104157 1041.040409 L 25.104157 691.998743 C 25.104157 660.852909 50.333323 635.623743 81.479157 635.623743 Z M 81.479157 635.623743 " transform="matrix(0.1875,0,0,0.1875,0.000001875,-114.47242)"/>
<path style=" stroke:none;fill-rule:nonzero;fill:rgb(96.470588%,27.843137%,27.843137%);fill-opacity:1;" d="M 70.023438 48.0625 C 70.023438 61.035156 59.503906 71.550781 46.535156 71.550781 C 33.5625 71.550781 23.046875 61.035156 23.046875 48.0625 C 23.046875 35.089844 33.5625 24.574219 46.535156 24.574219 C 59.503906 24.574219 70.023438 35.089844 70.023438 48.0625 Z M 70.023438 48.0625 "/>
<path style=" stroke:none;fill-rule:nonzero;fill:rgb(10.588235%,63.921569%,61.176471%);fill-opacity:1;" d="M 46.535156 10.757812 L 46.535156 49.445312 L 72.695312 74.640625 C 79.820312 67.628906 83.832031 58.058594 83.839844 48.0625 C 83.839844 27.460938 67.136719 10.757812 46.535156 10.757812 Z M 46.535156 10.757812 "/>
<path style=" stroke:none;fill-rule:nonzero;fill:rgb(55.686275%,26.666667%,67.843137%);fill-opacity:1;" d="M 46.535156 49.445312 L 20.382812 74.625 C 27.355469 81.5 36.746094 85.355469 46.535156 85.367188 Z M 46.535156 49.445312 "/>
<path style=" stroke:none;fill-rule:nonzero;fill:rgb(97.647059%,87.058824%,41.176471%);fill-opacity:1;" d="M 13.421875 49.445312 C 13.78125 57.875 17.339844 65.851562 23.371094 71.75 L 46.535156 49.445312 Z M 13.421875 49.445312 "/>
<path style=" stroke:none;fill-rule:nonzero;fill:rgb(32.156863%,70.196078%,85.098039%);fill-opacity:1;" d="M 46.535156 49.445312 L 46.535156 81.222656 C 55.199219 81.222656 63.519531 77.828125 69.714844 71.765625 Z M 46.535156 49.445312 "/>
</g>
</svg>
