
<svg xmlns="http://www.w3.org/2000/svg" xmlns:xlink="http://www.w3.org/1999/xlink" width="96px" height="96px" viewBox="0 0 96 96" version="1.1">
<g id="surface1">
<path style="fill-rule:nonzero;fill:rgb(100%,100%,100%);fill-opacity:1;stroke-width:26.401737;stroke-linecap:butt;stroke-linejoin:miter;stroke:rgb(21.568627%,48.235294%,94.117647%);stroke-opacity:1;stroke-miterlimit:4;" d="M 92.5625 580.11218 L 419.4375 580.11218 C 448.604167 580.11218 472.25 603.758013 472.25 632.92468 L 472.25 959.79968 C 472.25 988.966347 448.604167 1012.61218 419.4375 1012.61218 L 92.5625 1012.61218 C 63.395833 1012.61218 39.75 988.966347 39.75 959.79968 L 39.75 632.92468 C 39.75 603.758013 63.395833 580.11218 92.5625 580.11218 Z M 92.5625 580.11218 " transform="matrix(0.1875,0,0,0.1875,0,-101.317909)"/>
<path style=" stroke:none;fill-rule:evenodd;fill:rgb(21.176471%,48.235294%,94.117647%);fill-opacity:0.996078;" d="M 50.585938 13.949219 C 58.96875 21.183594 61.066406 28.519531 61.066406 40.046875 L 64.503906 31.140625 C 68.125 34.699219 70.589844 39.414062 71.3125 44.695312 C 71.582031 48.757812 70.917969 52.351562 69.871094 55.496094 C 74.144531 52.773438 79.546875 49.664062 81.859375 44.695312 C 80.316406 28.257812 67.105469 15.203125 50.585938 13.949219 Z M 44.695312 14.140625 C 28.257812 15.683594 15.203125 28.894531 13.949219 45.414062 C 21.183594 37.03125 28.519531 34.933594 40.046875 34.933594 L 31.140625 31.496094 C 34.699219 27.875 39.414062 25.410156 44.695312 24.6875 C 48.757812 24.417969 52.351562 25.082031 55.496094 26.128906 C 52.773438 21.855469 49.664062 16.453125 44.695312 14.140625 Z M 26.128906 40.503906 C 21.855469 43.226562 16.453125 46.335938 14.140625 51.304688 C 15.683594 67.738281 28.894531 80.792969 45.414062 82.050781 C 37.03125 74.816406 34.933594 67.480469 34.933594 55.953125 L 31.496094 64.859375 C 27.875 61.300781 25.410156 56.585938 24.6875 51.304688 C 24.417969 47.242188 25.082031 43.648438 26.128906 40.503906 Z M 82.050781 50.585938 C 74.816406 58.96875 67.480469 61.066406 55.953125 61.066406 L 64.859375 64.503906 C 61.300781 68.125 56.585938 70.589844 51.304688 71.3125 C 47.242188 71.582031 43.648438 70.917969 40.503906 69.871094 C 43.226562 74.144531 46.335938 79.546875 51.304688 81.859375 C 67.738281 80.316406 80.792969 67.105469 82.050781 50.585938 Z M 82.050781 50.585938 "/>
</g>
</svg>
