
<svg xmlns="http://www.w3.org/2000/svg" xmlns:xlink="http://www.w3.org/1999/xlink" width="96px" height="96px" viewBox="0 0 96 96" version="1.1">
<g id="surface1">
<path style="fill-rule:nonzero;fill:rgb(20%,20%,20%);fill-opacity:1;stroke-width:26.401737;stroke-linecap:butt;stroke-linejoin:miter;stroke:rgb(16.862745%,65.882353%,92.156863%);stroke-opacity:1;stroke-miterlimit:4;" d="M 92.5625 39.75 L 419.4375 39.75 C 448.604167 39.75 472.25 63.395833 472.25 92.5625 L 472.25 419.4375 C 472.25 448.604167 448.604167 472.25 419.4375 472.25 L 92.5625 472.25 C 63.395833 472.25 39.75 448.604167 39.75 419.4375 L 39.75 92.5625 C 39.75 63.395833 63.395833 39.75 92.5625 39.75 Z M 92.5625 39.75 " transform="matrix(0.1875,0,0,0.1875,0,0)"/>
<path style=" stroke:none;fill-rule:nonzero;fill:rgb(83.529412%,18.431373%,25.490196%);fill-opacity:1;" d="M 27.0625 76.878906 C 21.660156 71.476562 18.320312 64.015625 18.320312 55.777344 C 18.320312 39.292969 31.679688 25.929688 48.164062 25.929688 C 64.648438 25.929688 78.011719 39.292969 78.011719 55.777344 C 78.011719 64.015625 74.671875 71.476562 69.269531 76.878906 C 69.269531 76.878906 73.4375 81.015625 77.074219 76.910156 C 81.414062 70.984375 83.980469 63.683594 83.980469 55.777344 C 83.980469 35.996094 67.945312 19.960938 48.164062 19.960938 C 28.386719 19.960938 12.351562 35.996094 12.351562 55.777344 C 12.351562 63.6875 14.921875 70.992188 19.261719 76.921875 C 19.625 77.320312 23.070312 80.871094 27.0625 76.878906 "/>
<path style=" stroke:none;fill-rule:nonzero;fill:rgb(93.333333%,46.27451%,8.627451%);fill-opacity:1;" d="M 48.164062 25.929688 C 31.679688 25.929688 18.320312 39.292969 18.320312 55.777344 C 18.320312 64.015625 21.660156 71.476562 27.0625 76.878906 L 31.28125 72.660156 C 26.960938 68.339844 24.289062 62.371094 24.289062 55.777344 C 24.289062 42.589844 34.980469 31.898438 48.164062 31.898438 C 61.351562 31.898438 72.042969 42.589844 72.042969 55.777344 C 72.042969 62.371094 69.371094 68.339844 65.046875 72.660156 L 67.691406 75.304688 C 68.175781 75.785156 68.570312 76.179688 68.84375 76.453125 L 69.269531 76.878906 C 74.671875 71.476562 78.011719 64.015625 78.011719 55.777344 C 78.011719 39.292969 64.648438 25.929688 48.164062 25.929688 "/>
<path style=" stroke:none;fill-rule:nonzero;fill:rgb(97.647059%,76.862745%,27.843137%);fill-opacity:1;" d="M 48.164062 31.898438 C 34.980469 31.898438 24.289062 42.589844 24.289062 55.777344 C 24.289062 62.371094 26.960938 68.339844 31.28125 72.660156 L 35.503906 68.4375 C 32.261719 65.199219 30.257812 60.71875 30.257812 55.777344 C 30.257812 45.886719 38.273438 37.867188 48.164062 37.867188 C 58.054688 37.867188 66.074219 45.886719 66.074219 55.777344 C 66.074219 60.71875 64.070312 65.199219 60.828125 68.4375 C 61.867188 69.476562 62.960938 70.574219 64.011719 71.621094 L 65.046875 72.660156 C 69.371094 68.339844 72.042969 62.371094 72.042969 55.777344 C 72.042969 42.589844 61.351562 31.898438 48.164062 31.898438 "/>
<path style=" stroke:none;fill-rule:nonzero;fill:rgb(37.647059%,69.019608%,87.843137%);fill-opacity:1;" d="M 48.164062 37.867188 C 38.273438 37.867188 30.257812 45.886719 30.257812 55.777344 C 30.257812 60.71875 32.261719 65.199219 35.503906 68.4375 L 39.722656 64.21875 C 37.5625 62.058594 36.226562 59.070312 36.226562 55.777344 C 36.226562 49.183594 41.570312 43.835938 48.164062 43.835938 C 54.757812 43.835938 60.101562 49.183594 60.101562 55.777344 C 60.101562 59.070312 58.765625 62.058594 56.605469 64.21875 L 59.792969 67.402344 C 60.128906 67.738281 60.472656 68.085938 60.828125 68.4375 C 64.070312 65.199219 66.074219 60.71875 66.074219 55.777344 C 66.074219 45.886719 58.054688 37.867188 48.164062 37.867188 "/>
<path style=" stroke:none;fill-rule:nonzero;fill:rgb(22.745098%,30.980392%,47.843137%);fill-opacity:1;" d="M 48.164062 43.835938 C 41.570312 43.835938 36.226562 49.183594 36.226562 55.777344 C 36.226562 59.070312 37.5625 62.058594 39.722656 64.21875 C 39.722656 64.21875 42.195312 61.777344 42.195312 55.777344 C 42.195312 52.480469 44.867188 49.808594 48.164062 49.808594 C 51.460938 49.808594 54.132812 52.480469 54.132812 55.777344 C 54.132812 55.777344 53.746094 61.359375 56.605469 64.21875 C 58.765625 62.058594 60.101562 59.070312 60.101562 55.777344 C 60.101562 49.183594 54.757812 43.835938 48.164062 43.835938 "/>
<path style=" stroke:none;fill-rule:nonzero;fill:rgb(73.72549%,37.254902%,82.745098%);fill-opacity:1;" d="M 71.582031 43.109375 L 48.503906 49.128906 C 45.554688 49.898438 42.664062 51.066406 42.105469 54.238281 C 41.515625 57.585938 43.664062 60.765625 46.902344 61.335938 C 49.222656 61.746094 51.039062 60.300781 52.78125 58.84375 Z M 71.582031 43.109375 "/>
</g>
</svg>
