
<svg xmlns="http://www.w3.org/2000/svg" xmlns:xlink="http://www.w3.org/1999/xlink" width="96px" height="96px" viewBox="0 0 96 96" version="1.1">
<g id="surface1">
<path style="fill-rule:nonzero;fill:rgb(80%,80%,80%);fill-opacity:1;stroke-width:6.789384;stroke-linecap:butt;stroke-linejoin:miter;stroke:rgb(92.156863%,16.862745%,17.647059%);stroke-opacity:1;stroke-miterlimit:4;" d="M 21.96875 8.390625 L 106.03125 8.390625 C 113.53125 8.390625 119.609375 14.46875 119.609375 21.96875 L 119.609375 106.03125 C 119.609375 113.53125 113.53125 119.609375 106.03125 119.609375 L 21.96875 119.609375 C 14.46875 119.609375 8.390625 113.53125 8.390625 106.03125 L 8.390625 21.96875 C 8.390625 14.46875 14.46875 8.390625 21.96875 8.390625 Z M 21.96875 8.390625 " transform="matrix(0.75,0,0,0.75,0,0)"/>
<path style=" stroke:none;fill-rule:nonzero;fill:rgb(100%,16.470588%,16.470588%);fill-opacity:1;" d="M 24.703125 63.464844 L 71.542969 63.464844 L 71.542969 71.011719 L 24.703125 71.011719 M 24.703125 63.464844 "/>
<path style=" stroke:none;fill-rule:nonzero;fill:rgb(100%,16.470588%,16.470588%);fill-opacity:1;" d="M 23.714844 59.769531 L 72.355469 59.769531 L 72.355469 63.496094 L 23.714844 63.496094 M 23.714844 59.769531 "/>
<path style=" stroke:none;fill-rule:nonzero;fill:rgb(30.196078%,30.196078%,30.196078%);fill-opacity:1;" d="M 68.007812 30.179688 C 71 26.210938 71.839844 22.570312 77.660156 12.035156 C 80.054688 14.644531 80.660156 25.59375 75.019531 30.179688 M 68.007812 30.179688 "/>
<path style=" stroke:none;fill-rule:nonzero;fill:rgb(30.196078%,30.196078%,30.196078%);fill-opacity:1;" d="M 27.832031 30.179688 C 24.839844 26.210938 24 22.570312 18.179688 12.035156 C 15.785156 14.644531 15.179688 25.59375 20.820312 30.179688 M 27.832031 30.179688 "/>
<path style=" stroke:none;fill-rule:nonzero;fill:rgb(100%,16.470588%,16.470588%);fill-opacity:1;" d="M 47.921875 15.867188 C 46.933594 15.867188 46.007812 15.941406 45.046875 16.039062 C 44.292969 16.113281 43.515625 16.210938 42.769531 16.335938 L 42.769531 16.398438 C 40.34375 16.824219 37.96875 17.472656 35.769531 18.417969 C 31.894531 20.066406 28.96875 21.730469 26.011719 24.664062 C 26.90625 26.429688 28.628906 29.550781 29.757812 31.039062 L 21.105469 31.039062 C 19.242188 33.753906 18.019531 35.914062 17.007812 39.128906 C 16 42.351562 15.433594 45.800781 15.433594 49.355469 C 15.433594 65.910156 27.277344 79.667969 42.785156 82.371094 L 42.785156 82.433594 C 43.507812 82.550781 44.273438 82.605469 45.007812 82.675781 C 45.972656 82.761719 46.921875 82.847656 47.933594 82.847656 C 48.058594 82.847656 48.199219 82.847656 48.335938 82.847656 C 49.335938 82.847656 50.335938 82.765625 51.316406 82.675781 C 52.050781 82.605469 52.75 82.550781 53.476562 82.433594 L 53.476562 82.371094 C 68.988281 79.679688 80.824219 65.917969 80.824219 49.355469 C 80.824219 45.800781 80.25 42.34375 79.25 39.128906 C 78.238281 35.902344 77.027344 33.753906 75.152344 31.039062 L 66.511719 31.039062 C 67.628906 29.550781 69.355469 26.441406 70.25 24.664062 C 67.277344 21.730469 64.351562 20.058594 60.5 18.417969 C 58.277344 17.472656 55.914062 16.824219 53.488281 16.398438 L 53.488281 16.335938 C 52.722656 16.207031 51.988281 16.121094 51.210938 16.039062 C 50.273438 15.945312 49.308594 15.867188 48.347656 15.867188 C 48.210938 15.867188 48.070312 15.867188 47.933594 15.867188 M 30.21875 45.734375 C 32.867188 45.734375 35.007812 47.917969 35.007812 50.621094 C 35.007812 53.3125 32.867188 55.503906 30.21875 55.503906 C 27.578125 55.503906 25.429688 53.324219 25.429688 50.621094 C 25.429688 47.929688 27.578125 45.734375 30.21875 45.734375 M 66.035156 45.734375 C 68.683594 45.734375 70.820312 47.917969 70.820312 50.621094 C 70.820312 53.3125 68.683594 55.503906 66.035156 55.503906 C 63.394531 55.503906 61.246094 53.324219 61.246094 50.621094 C 61.246094 47.929688 63.394531 45.734375 66.035156 45.734375 M 24.320312 62.453125 L 71.9375 62.453125 L 71.9375 63.464844 L 67.851562 63.464844 C 67.777344 66.988281 65.40625 68.878906 63.234375 70.964844 C 61.03125 68.570312 59.839844 65.988281 60.605469 63.464844 L 35.675781 63.464844 C 36.4375 65.988281 35.25 68.570312 33.046875 70.964844 C 30.863281 68.878906 28.5 66.988281 28.429688 63.464844 L 24.34375 63.464844 L 24.34375 62.453125 M 24.320312 62.453125 "/>
<path style=" stroke:none;fill-rule:evenodd;fill:rgb(100%,16.470588%,16.470588%);fill-opacity:1;" d="M 28.4375 55.859375 C 27.535156 55.53125 26.097656 54.113281 25.496094 52.960938 C 24.203125 50.472656 25.414062 47.28125 28.167969 45.929688 C 30.09375 44.988281 31.945312 45.339844 33.746094 46.988281 C 36.410156 49.429688 35.765625 53.980469 32.535156 55.511719 C 31.234375 56.128906 29.558594 56.269531 28.4375 55.859375 Z M 28.4375 55.859375 "/>
<path style=" stroke:none;fill-rule:evenodd;fill:rgb(100%,16.470588%,16.470588%);fill-opacity:1;" d="M 63.238281 55.53125 C 58.597656 52.429688 60.015625 45.703125 65.503906 44.8125 C 68.609375 44.308594 71.84375 47.21875 71.84375 50.523438 C 71.84375 55.1875 66.96875 58.023438 63.238281 55.53125 Z M 63.238281 55.53125 "/>
<path style=" stroke:none;fill-rule:nonzero;fill:rgb(82.352941%,89.803922%,95.294118%);fill-opacity:1;" d="M 51.53125 48.570312 L 55.117188 41.648438 L 59.039062 37.558594 L 63.210938 36.558594 L 67.546875 37.308594 L 71.21875 39.394531 L 72.386719 41.398438 L 71.050781 46.902344 L 68.382812 50.570312 L 66.714844 52.40625 L 62.207031 53.65625 L 58.207031 52.992188 L 54.453125 51.15625 Z M 51.53125 48.570312 "/>
<path style=" stroke:none;fill-rule:nonzero;fill:rgb(58.823529%,65.098039%,69.411765%);fill-opacity:1;" d="M 52.882812 45.480469 C 52.882812 45.480469 57.894531 39.199219 63.023438 39.6875 C 67.386719 40.097656 72.539062 41.824219 72.539062 41.824219 L 71.382812 40.394531 L 67.546875 36.976562 L 60.875 36.976562 L 57.539062 38.8125 L 55.035156 41.730469 Z M 52.882812 45.480469 "/>
<path style=" stroke:none;fill-rule:nonzero;fill:rgb(0%,0%,0%);fill-opacity:1;" d="M 53.214844 45.148438 C 53.214844 45.148438 57.617188 38.683594 62.855469 38.359375 C 67.230469 38.085938 72.539062 41.3125 72.539062 41.3125 L 71.382812 40.152344 L 67.546875 36.976562 L 60.875 36.976562 L 57.539062 38.679688 L 54.039062 43.164062 Z M 53.214844 45.148438 "/>
<path style=" stroke:none;fill-rule:evenodd;fill:rgb(0%,0%,0%);fill-opacity:1;" d="M 62.40625 35.878906 C 69.222656 35.097656 73.667969 40.414062 73.667969 40.414062 L 72.851562 40.878906 C 73 46.214844 70.152344 51.171875 65.949219 53.078125 C 61.746094 54.988281 55.460938 53.90625 51.554688 48.765625 L 51.285156 48.453125 C 53.246094 43.011719 56.417969 36.566406 62.40625 35.878906 Z M 62.539062 37.375 C 59.5 37.464844 56.75 40.207031 54.785156 43.003906 C 52.949219 45.613281 51.917969 48.011719 51.769531 48.351562 C 56.40625 53.367188 61.375 54.058594 65.21875 52.3125 C 69.074219 50.5625 71.804688 46.308594 71.710938 41.324219 C 71.546875 41.078125 68.867188 37.183594 62.539062 37.375 Z M 62.539062 37.375 "/>
<path style=" stroke:none;fill-rule:evenodd;fill:rgb(100%,80%,0%);fill-opacity:1;" d="M 67.480469 45.859375 C 67.480469 42.75 65.042969 40.230469 62.042969 40.230469 C 59.039062 40.230469 56.605469 42.75 56.605469 45.859375 C 56.605469 48.96875 59.039062 51.488281 62.042969 51.488281 C 65.042969 51.488281 67.480469 48.96875 67.480469 45.859375 Z M 67.480469 45.859375 "/>
<path style=" stroke:none;fill-rule:evenodd;fill:rgb(8.627451%,0.784314%,0%);fill-opacity:1;" d="M 63.960938 45.902344 C 63.960938 47.144531 62.953125 48.152344 61.707031 48.152344 C 60.464844 48.152344 59.457031 47.144531 59.457031 45.902344 C 59.457031 44.65625 60.464844 43.648438 61.707031 43.648438 C 62.953125 43.648438 63.960938 44.65625 63.960938 45.902344 Z M 63.960938 45.902344 "/>
<path style=" stroke:none;fill-rule:evenodd;fill:rgb(100%,100%,100%);fill-opacity:1;" d="M 60.875 45.023438 C 60.875 45.554688 60.445312 45.984375 59.914062 45.984375 C 59.386719 45.984375 58.957031 45.554688 58.957031 45.023438 C 58.957031 44.496094 59.386719 44.066406 59.914062 44.066406 C 60.445312 44.066406 60.875 44.496094 60.875 45.023438 Z M 60.875 45.023438 "/>
<path style=" stroke:none;fill-rule:nonzero;fill:rgb(82.352941%,89.803922%,95.294118%);fill-opacity:1;" d="M 42.808594 48.535156 L 39.726562 44.648438 L 36.359375 42.355469 L 32.777344 41.792969 L 29.046875 42.214844 L 25.894531 43.382812 L 24.890625 44.507812 L 26.039062 47.597656 L 28.332031 49.65625 L 29.765625 50.6875 L 33.636719 51.390625 L 37.074219 51.015625 L 40.300781 49.984375 Z M 42.808594 48.535156 "/>
<path style=" stroke:none;fill-rule:nonzero;fill:rgb(58.823529%,65.098039%,69.411765%);fill-opacity:1;" d="M 41.648438 46.800781 C 41.648438 46.800781 37.34375 43.273438 32.9375 43.546875 C 29.1875 43.78125 24.761719 44.75 24.761719 44.75 L 25.75 43.945312 L 29.046875 42.027344 L 34.78125 42.027344 L 37.648438 43.058594 L 39.800781 44.695312 Z M 41.648438 46.800781 "/>
<path style=" stroke:none;fill-rule:nonzero;fill:rgb(0%,0%,0%);fill-opacity:1;" d="M 41.363281 46.613281 C 41.363281 46.613281 37.578125 42.988281 33.078125 42.804688 C 29.320312 42.648438 24.761719 44.460938 24.761719 44.460938 L 25.75 43.808594 L 29.046875 42.027344 L 34.78125 42.027344 L 37.648438 42.984375 L 40.65625 45.5 Z M 41.363281 46.613281 "/>
<path style=" stroke:none;fill-rule:evenodd;fill:rgb(0%,0%,0%);fill-opacity:1;" d="M 33.464844 41.410156 C 27.609375 40.972656 23.789062 43.957031 23.789062 43.957031 L 24.492188 44.21875 C 24.363281 47.210938 26.808594 49.992188 30.421875 51.066406 C 34.035156 52.136719 39.433594 51.527344 42.789062 48.644531 L 43.023438 48.46875 C 41.335938 45.414062 38.609375 41.796875 33.464844 41.410156 Z M 33.351562 42.25 C 35.964844 42.300781 38.328125 43.839844 40.015625 45.410156 C 41.589844 46.875 42.480469 48.222656 42.605469 48.410156 C 38.621094 51.226562 34.351562 51.613281 31.050781 50.636719 C 27.734375 49.652344 25.390625 47.265625 25.472656 44.46875 C 25.613281 44.328125 27.914062 42.144531 33.351562 42.25 Z M 33.351562 42.25 "/>
<path style=" stroke:none;fill-rule:evenodd;fill:rgb(100%,80%,0%);fill-opacity:1;" d="M 29.105469 47.011719 C 29.105469 45.265625 31.199219 43.851562 33.78125 43.851562 C 36.359375 43.851562 38.453125 45.265625 38.453125 47.011719 C 38.453125 48.757812 36.359375 50.171875 33.78125 50.171875 C 31.199219 50.171875 29.105469 48.757812 29.105469 47.011719 Z M 29.105469 47.011719 "/>
<path style=" stroke:none;fill-rule:evenodd;fill:rgb(8.627451%,0.784314%,0%);fill-opacity:1;" d="M 32.128906 47.035156 C 32.128906 47.734375 32.996094 48.300781 34.066406 48.300781 C 35.132812 48.300781 36 47.734375 36 47.035156 C 36 46.339844 35.132812 45.773438 34.066406 45.773438 C 32.996094 45.773438 32.128906 46.339844 32.128906 47.035156 Z M 32.128906 47.035156 "/>
<path style=" stroke:none;fill-rule:evenodd;fill:rgb(100%,100%,100%);fill-opacity:1;" d="M 34.78125 46.542969 C 34.78125 46.839844 35.152344 47.082031 35.605469 47.082031 C 36.0625 47.082031 36.429688 46.839844 36.429688 46.542969 C 36.429688 46.246094 36.0625 46.007812 35.605469 46.007812 C 35.152344 46.007812 34.78125 46.246094 34.78125 46.542969 Z M 34.78125 46.542969 "/>
<path style=" stroke:none;fill-rule:evenodd;fill:rgb(0%,0%,0%);fill-opacity:1;" d="M 25.824219 62.730469 C 31.550781 68.964844 41.054688 72.535156 51.394531 71.496094 C 60.503906 70.578125 68.277344 66.277344 73 60.308594 C 67.039062 63.609375 59.964844 65.867188 52.257812 66.644531 C 42.554688 67.621094 33.375 66.089844 25.824219 62.730469 Z M 25.824219 62.730469 "/>
<path style=" stroke:none;fill-rule:nonzero;fill:rgb(100%,83.529412%,83.529412%);fill-opacity:1;" d="M 35.644531 72.285156 L 34.507812 68.679688 L 33.097656 65.171875 L 36.789062 65.988281 L 40.535156 66.523438 L 37.980469 69.3125 Z M 35.644531 72.285156 "/>
<path style=" stroke:none;fill-rule:nonzero;fill:rgb(100%,83.529412%,83.529412%);fill-opacity:1;" d="M 57.46875 65.773438 L 60.238281 68.355469 L 62.796875 71.136719 L 63.648438 67.453125 L 64.777344 63.839844 L 61.160156 64.949219 Z M 57.46875 65.773438 "/>
</g>
</svg>
