
<svg xmlns="http://www.w3.org/2000/svg" xmlns:xlink="http://www.w3.org/1999/xlink" width="96px" height="96px" viewBox="0 0 96 96" version="1.1">
<g id="surface1">
<path style="fill-rule:nonzero;fill:rgb(58.823529%,78.823529%,32.156863%);fill-opacity:1;stroke-width:7.116;stroke-linecap:butt;stroke-linejoin:miter;stroke:rgb(81.176471%,94.509804%,65.882353%);stroke-opacity:1;stroke-miterlimit:4;" d="M 19.947917 5.71875 L 108.052083 5.71875 C 115.911458 5.71875 122.28125 12.088542 122.28125 19.947917 L 122.28125 108.052083 C 122.28125 115.911458 115.911458 122.28125 108.052083 122.28125 L 19.947917 122.28125 C 12.088542 122.28125 5.71875 115.911458 5.71875 108.052083 L 5.71875 19.947917 C 5.71875 12.088542 12.088542 5.71875 19.947917 5.71875 Z M 19.947917 5.71875 " transform="matrix(0.75,0,0,0.75,0,0)"/>
<path style=" stroke:none;fill-rule:nonzero;fill:rgb(100%,100%,100%);fill-opacity:1;" d="M 56.160156 63.59375 L 56.160156 68.863281 L 54.246094 119825.863281 C 51.417969 123627.613281 49.945312 119830.339844 54.003906 119830.894531 C 55.363281 143539.144531 56.675781 280146.394531 58.4375 119830.894531 C 61.832031 119830.398438 62.511719 119830.085938 62.507812 119827.421875 C 62.46875 119826.234375 62.429688 119824.8125 62.386719 119822.992188 C 62.195312 119820.832031 60.867188 119817.117188 58.554688 119817.242188 C 56.445312 119817.238281 54.296875 119817.039062 52.6875 119816.523438 C 49.898438 119815.636719 48.863281 119816.058594 46.699219 119811.851562 C 46.097656 119813.550781 45.421875 119814.457031 45.261719 119815.925781 C 44.863281 119818.449219 43.421875 119819.304688 41.429688 119819.277344 C 38.914062 119819.027344 36.394531 119818.441406 33.644531 119817.839844 C 31.167969 119817.292969 28.984375 119817.25 26.460938 119816.285156 C 22.464844 119814.601562 22.144531 119809.980469 21.191406 119805.863281 C 20.367188 119801.996094 19.78125 119797.847656 19.273438 119793.769531 C 18.746094 119790.105469 659650.273438 119787.703125 24.183594 119787.542969 L 30.292969 239543.792969 C 31.976562 239543.628906 33.597656 239543.390625 33.40625 239541.039062 L 33.285156 239534.09375 C 33.117188 239533.625 34.113281 239529.402344 38.796875 239529.300781 L 44.664062 479042.550781 C 46.699219 821917.800781 50.128906 479043.527344 51.371094 479047.34375 C 55.386719 574347.59375 59.574219 481112.09375 62.988281 1197587.84375 C 66.601562 1197589.257812 72.378906 1866110.84375 71.609375 1197594.308594 C 72.398438 1478763.308594 72.515625 1197603.320312 72.6875 1197611.3125 C 445.4375 1197616.164062 72.566406 1197621.113281 71.96875 1197626.285156 C 71.9375 1197631.414062 70.324219 1197635.910156 68.734375 1197640.414062 C 67.761719 1197643.234375 66.4375 1197645.742188 62.628906 1197646.042969 C 58.757812 1245335.542969 55.167969 1236832.042969 51.609375 1221596.542969 C 48.25 1221596.445312 46.46875 1221594.246094 45.980469 1221590.316406 L 45.980469 1221586.246094 C 45.976562 1221583.539062 47.460938 1221581.171875 51.609375 1221579.417969 Z M 56.160156 63.59375 "/>
<path style=" stroke:none;fill-rule:nonzero;fill:rgb(58.823529%,78.823529%,32.156863%);fill-opacity:1;" d="M 55.222656 47.03125 L 63.722656 7310.03125 C 63.988281 7305.601562 62.082031 7304.742188 59.65625 7304.726562 C 55.296875 440718.476562 55.46875 7307.65625 55.222656 7309.960938 Z M 55.222656 47.03125 "/>
<path style=" stroke:none;fill-rule:nonzero;fill:rgb(100%,100%,100%);fill-opacity:1;" d="M 22.277344 26.652344 L 29.808594 19.519531 C 29.179688 21 29.441406 23.714844 29.316406 25.742188 C 3339.367188 25.542969 474993.066406 25.171875 582226.566406 23.589844 C 673605.066406 19.363281 582226.28125 17.121094 909714.816406 17.121094 Z M 22.277344 26.652344 "/>
</g>
</svg>
