
<svg xmlns="http://www.w3.org/2000/svg" xmlns:xlink="http://www.w3.org/1999/xlink" width="96px" height="96px" viewBox="0 0 96 96" version="1.1">
<g id="surface1">
<path style="fill-rule:nonzero;fill:rgb(100%,100%,100%);fill-opacity:1;stroke-width:2.577888;stroke-linecap:butt;stroke-linejoin:miter;stroke:rgb(100%,86.666667%,33.333333%);stroke-opacity:1;stroke-miterlimit:4;" d="M 8.323002 4.26129 L 40.238233 4.26129 C 43.08599 4.26129 45.394727 6.570028 45.394727 9.417784 L 45.394727 41.333016 C 45.394727 44.180772 43.08599 46.48951 40.238233 46.48951 L 8.323002 46.48951 C 5.475245 46.48951 3.166508 44.180772 3.166508 41.333016 L 3.166508 9.417784 C 3.166508 6.570028 5.475245 4.26129 8.323002 4.26129 Z M 8.323002 4.26129 " transform="matrix(2.072629,0,0,2.072629,-2.324714,-4.593793)"/>
<path style=" stroke:none;fill-rule:nonzero;fill:rgb(100%,40%,0%);fill-opacity:1;" d="M 6.667969 83.066406 L 6.667969 13.066406 C 6.667969 8.996094 9.886719 5.695312 13.855469 5.695312 L 82.144531 5.695312 C 86.113281 5.695312 89.332031 8.996094 89.332031 13.066406 L 89.332031 83.066406 C 89.332031 87.132812 86.113281 90.433594 82.144531 90.433594 L 13.855469 90.433594 C 9.886719 90.433594 6.667969 87.132812 6.667969 83.066406 Z M 6.667969 83.066406 "/>
<path style=" stroke:none;fill-rule:nonzero;fill:rgb(92.54902%,49.803922%,26.27451%);fill-opacity:1;" d="M 81.078125 28.429688 C 81.183594 28.621094 81.269531 28.808594 81.363281 28.988281 C 81.355469 29.027344 81.371094 29.074219 81.363281 29.097656 C 81.339844 29.066406 81.304688 29.019531 81.304688 28.988281 C 81.222656 28.800781 81.167969 28.621094 81.078125 28.429688 M 81.078125 28.429688 "/>
<path style=" stroke:none;fill-rule:nonzero;fill:rgb(100%,86.666667%,33.333333%);fill-opacity:1;" d="M 60.242188 14.527344 C 62.914062 15.054688 65.199219 15.664062 67.035156 16.492188 C 69.859375 17.730469 71.683594 19.359375 72.546875 21.25 C 69.921875 20.769531 67.617188 20.917969 65.523438 21.726562 C 80.515625 27.582031 87.578125 34.554688 86.761719 42.601562 C 85.671875 40.921875 84.207031 39.828125 82.351562 39.273438 C 84.644531 48.101562 84.902344 55.347656 83.050781 61.101562 C 81.773438 57.265625 80.554688 55.011719 79.507812 54.203125 C 80.96875 66.039062 78.964844 74.792969 73.589844 80.492188 C 74.609375 77.015625 75.046875 74.175781 74.808594 71.929688 C 68.5 81.292969 61.335938 86.082031 53.28125 86.382812 C 50.097656 86.34375 47.054688 85.925781 44.226562 85.015625 C 40.074219 83.640625 36.308594 81.273438 32.96875 77.9375 C 38.179688 78.359375 42.9375 77.414062 47.128906 75.320312 L 54.035156 70.976562 C 54.90625 70.335938 55.714844 70.402344 56.53125 70.796875 C 58.21875 70.5625 58.691406 70.039062 58.210938 68.476562 C 57.140625 67.554688 56.191406 66.328125 54.613281 65.445312 C 51.175781 63.675781 47.605469 63.578125 43.878906 66.277344 C 40.3125 68.269531 36.890625 68.15625 33.550781 66.039062 C 31.359375 64.554688 29.203125 62.53125 27.167969 60.03125 L 26.414062 58.902344 L 26.414062 58.84375 C 26.515625 56.367188 27.507812 55.039062 29.488281 54.738281 C 31.738281 54.933594 34.308594 55.457031 37.207031 56.285156 C 37.695312 53.539062 37.054688 50.671875 35.292969 47.71875 L 35.351562 47.363281 C 38.074219 44.871094 40.308594 43.351562 42.371094 42.1875 C 43.113281 41.191406 43.457031 40.878906 43.996094 39.984375 C 43.878906 39.722656 44.128906 39.558594 44.285156 39.6875 C 44.453125 38.9375 44.441406 39.050781 43.765625 38.082031 C 41.765625 38.570312 39.492188 37.941406 37.960938 37.546875 C 37.171875 37.320312 36.105469 36.859375 34.886719 35.703125 L 31.75 32.667969 L 30.941406 31.597656 L 30.996094 31.242188 C 31.347656 28.863281 32.5 26.929688 33.433594 25.117188 C 34.453125 23.453125 36.40625 21.621094 39.296875 19.703125 C 33.9375 20.359375 29.101562 22.75 24.789062 26.839844 C 21.21875 25.550781 16.953125 25.832031 12.082031 27.671875 C 9.054688 26.261719 9.242188 24.367188 8.25 17.917969 C 7.214844 19.054688 6.207031 20.171875 5.289062 21.367188 L 5.289062 84.0625 C 5.289062 88.28125 8.605469 91.675781 12.71875 91.675781 L 83.28125 91.675781 C 87.394531 91.675781 90.707031 88.28125 90.707031 84.0625 L 90.707031 27.496094 C 87.582031 22.570312 82.566406 18.671875 76.085938 16.726562 C 71.644531 15.414062 66.335938 14.707031 60.242188 14.527344 Z M 60.242188 14.527344 "/>
<path style=" stroke:none;fill-rule:nonzero;fill:rgb(0%,0%,0%);fill-opacity:0.101961;" d="M 90.207031 34.113281 C 90.34375 34.351562 90.449219 34.589844 90.574219 34.820312 C 90.5625 34.867188 90.582031 34.925781 90.574219 34.957031 C 90.542969 34.917969 90.496094 34.859375 90.496094 34.820312 C 90.390625 34.582031 90.324219 34.351562 90.210938 34.113281 Z M 90.207031 34.113281 "/>
<path style=" stroke:none;fill-rule:nonzero;fill:rgb(92.941176%,49.803922%,26.27451%);fill-opacity:1;" d="M 90.210938 32.171875 C 90.34375 32.410156 90.449219 32.648438 90.574219 32.878906 C 90.5625 32.929688 90.585938 32.984375 90.574219 33.015625 C 90.546875 32.976562 90.496094 32.917969 90.496094 32.878906 C 90.390625 32.640625 90.324219 32.410156 90.210938 32.171875 Z M 90.210938 32.171875 "/>
<path style=" stroke:none;fill-rule:nonzero;fill:rgb(0%,0%,0%);fill-opacity:0.0196078;" d="M 3.351562 83.910156 L 3.351562 84.398438 C 3.351562 88.699219 6.816406 92.160156 11.117188 92.160156 L 84.882812 92.160156 C 89.183594 92.160156 92.648438 88.699219 92.648438 84.398438 L 92.648438 83.910156 C 92.648438 88.210938 89.183594 91.675781 84.882812 91.675781 L 11.117188 91.675781 C 6.816406 91.675781 3.351562 88.210938 3.351562 83.910156 Z M 3.351562 84.882812 L 3.351562 85.851562 C 3.351562 90.15625 6.816406 93.617188 11.117188 93.617188 L 84.882812 93.617188 C 89.183594 93.617188 92.648438 90.15625 92.648438 85.851562 L 92.648438 84.882812 C 92.648438 89.183594 89.183594 92.648438 84.882812 92.648438 L 11.117188 92.648438 C 6.816406 92.648438 3.351562 89.183594 3.351562 84.882812 Z M 3.351562 84.882812 "/>
<path style=" stroke:none;fill-rule:nonzero;fill:rgb(0%,0%,0%);fill-opacity:0.0509804;" d="M 3.351562 84.398438 L 3.351562 84.882812 C 3.351562 89.183594 6.816406 92.648438 11.117188 92.648438 L 84.882812 92.648438 C 89.183594 92.648438 92.648438 89.183594 92.648438 84.882812 L 92.648438 84.398438 C 92.648438 88.699219 89.183594 92.160156 84.882812 92.160156 L 11.117188 92.160156 C 6.816406 92.160156 3.351562 88.699219 3.351562 84.398438 Z M 3.351562 84.398438 "/>
<path style=" stroke:none;fill-rule:nonzero;fill:rgb(0%,0%,0%);fill-opacity:0.101961;" d="M 3.351562 83.910156 L 3.351562 84.398438 C 3.351562 88.699219 6.816406 92.160156 11.117188 92.160156 L 84.882812 92.160156 C 89.183594 92.160156 92.648438 88.699219 92.648438 84.398438 L 92.648438 83.910156 C 92.648438 88.210938 89.183594 91.675781 84.882812 91.675781 L 11.117188 91.675781 C 6.816406 91.675781 3.351562 88.210938 3.351562 83.910156 Z M 3.351562 83.910156 "/>
</g>
</svg>
