
<svg xmlns="http://www.w3.org/2000/svg" xmlns:xlink="http://www.w3.org/1999/xlink" width="96px" height="96px" viewBox="0 0 96 96" version="1.1">
<defs>
<clipPath id="clip1">
  <path d="M 6.375 6.375 L 89.625 6.375 L 89.625 89.625 L 6.375 89.625 Z M 6.375 6.375 "/>
</clipPath>
<clipPath id="clip2">
  <path d="M 16.605469 6.464844 L 79.394531 6.464844 C 84.996094 6.464844 89.535156 11.003906 89.535156 16.605469 L 89.535156 79.394531 C 89.535156 84.996094 84.996094 89.535156 79.394531 89.535156 L 16.605469 89.535156 C 11.003906 89.535156 6.464844 84.996094 6.464844 79.394531 L 6.464844 16.605469 C 6.464844 11.003906 11.003906 6.464844 16.605469 6.464844 Z M 16.605469 6.464844 "/>
</clipPath>
<clipPath id="clip3">
  <path d="M 80.8125 28.5 L 81.375 28.5 L 81.375 29.25 L 80.8125 29.25 Z M 80.8125 28.5 "/>
</clipPath>
<clipPath id="clip4">
  <path d="M 16.605469 6.464844 L 79.394531 6.464844 C 84.996094 6.464844 89.535156 11.003906 89.535156 16.605469 L 89.535156 79.394531 C 89.535156 84.996094 84.996094 89.535156 79.394531 89.535156 L 16.605469 89.535156 C 11.003906 89.535156 6.464844 84.996094 6.464844 79.394531 L 6.464844 16.605469 C 6.464844 11.003906 11.003906 6.464844 16.605469 6.464844 Z M 16.605469 6.464844 "/>
</clipPath>
<clipPath id="clip5">
  <path d="M 6.375 13.125 L 89.625 13.125 L 89.625 89.625 L 6.375 89.625 Z M 6.375 13.125 "/>
</clipPath>
<clipPath id="clip6">
  <path d="M 16.605469 6.464844 L 79.394531 6.464844 C 84.996094 6.464844 89.535156 11.003906 89.535156 16.605469 L 89.535156 79.394531 C 89.535156 84.996094 84.996094 89.535156 79.394531 89.535156 L 16.605469 89.535156 C 11.003906 89.535156 6.464844 84.996094 6.464844 79.394531 L 6.464844 16.605469 C 6.464844 11.003906 11.003906 6.464844 16.605469 6.464844 Z M 16.605469 6.464844 "/>
</clipPath>
<clipPath id="clip7">
  <path d="M 6.375 83.625 L 89.625 83.625 L 89.625 89.625 L 6.375 89.625 Z M 6.375 83.625 "/>
</clipPath>
<clipPath id="clip8">
  <path d="M 16.605469 6.464844 L 79.394531 6.464844 C 84.996094 6.464844 89.535156 11.003906 89.535156 16.605469 L 89.535156 79.394531 C 89.535156 84.996094 84.996094 89.535156 79.394531 89.535156 L 16.605469 89.535156 C 11.003906 89.535156 6.464844 84.996094 6.464844 79.394531 L 6.464844 16.605469 C 6.464844 11.003906 11.003906 6.464844 16.605469 6.464844 Z M 16.605469 6.464844 "/>
</clipPath>
<clipPath id="clip9">
  <path d="M 6.375 84.1875 L 89.625 84.1875 L 89.625 89.625 L 6.375 89.625 Z M 6.375 84.1875 "/>
</clipPath>
<clipPath id="clip10">
  <path d="M 16.605469 6.464844 L 79.394531 6.464844 C 84.996094 6.464844 89.535156 11.003906 89.535156 16.605469 L 89.535156 79.394531 C 89.535156 84.996094 84.996094 89.535156 79.394531 89.535156 L 16.605469 89.535156 C 11.003906 89.535156 6.464844 84.996094 6.464844 79.394531 L 6.464844 16.605469 C 6.464844 11.003906 11.003906 6.464844 16.605469 6.464844 Z M 16.605469 6.464844 "/>
</clipPath>
<clipPath id="clip11">
  <path d="M 6.375 83.625 L 89.625 83.625 L 89.625 89.625 L 6.375 89.625 Z M 6.375 83.625 "/>
</clipPath>
<clipPath id="clip12">
  <path d="M 16.605469 6.464844 L 79.394531 6.464844 C 84.996094 6.464844 89.535156 11.003906 89.535156 16.605469 L 89.535156 79.394531 C 89.535156 84.996094 84.996094 89.535156 79.394531 89.535156 L 16.605469 89.535156 C 11.003906 89.535156 6.464844 84.996094 6.464844 79.394531 L 6.464844 16.605469 C 6.464844 11.003906 11.003906 6.464844 16.605469 6.464844 Z M 16.605469 6.464844 "/>
</clipPath>
</defs>
<g id="surface1">
<path style="fill-rule:nonzero;fill:rgb(100%,100%,100%);fill-opacity:1;stroke-width:2.623514;stroke-linecap:butt;stroke-linejoin:miter;stroke:rgb(0%,80%,100%);stroke-opacity:1;stroke-miterlimit:4;" d="M 7.759765 2.511719 L 40.240233 2.511719 C 43.138671 2.511719 45.48828 4.861328 45.48828 7.759765 L 45.48828 40.240233 C 45.48828 43.138671 43.138671 45.48828 40.240233 45.48828 L 7.759765 45.48828 C 4.861328 45.48828 2.511719 43.138671 2.511719 40.240233 L 2.511719 7.759765 C 2.511719 4.861328 4.861328 2.511719 7.759765 2.511719 Z M 7.759765 2.511719 " transform="matrix(2,0,0,2,0,0)"/>
<g clip-path="url(#clip1)" clip-rule="nonzero">
<g clip-path="url(#clip2)" clip-rule="nonzero">
<path style=" stroke:none;fill-rule:nonzero;fill:rgb(100%,40%,0%);fill-opacity:1;" d="M 3.539062 83.761719 L 3.539062 10.304688 C 3.539062 6.035156 7 2.574219 11.273438 2.574219 L 84.726562 2.574219 C 89 2.574219 92.460938 6.035156 92.460938 10.304688 L 92.460938 83.761719 C 92.460938 88.03125 89 91.492188 84.726562 91.492188 L 11.273438 91.492188 C 7 91.492188 3.539062 88.03125 3.539062 83.761719 Z M 3.539062 83.761719 "/>
</g>
</g>
<g clip-path="url(#clip3)" clip-rule="nonzero">
<g clip-path="url(#clip4)" clip-rule="nonzero">
<path style=" stroke:none;fill-rule:nonzero;fill:rgb(92.54902%,49.803922%,26.27451%);fill-opacity:1;" d="M 80.9375 28.511719 C 81.046875 28.699219 81.128906 28.886719 81.226562 29.070312 C 81.21875 29.109375 81.234375 29.152344 81.226562 29.175781 C 81.203125 29.144531 81.164062 29.101562 81.164062 29.070312 C 81.082031 28.878906 81.03125 28.699219 80.9375 28.511719 M 80.9375 28.511719 "/>
</g>
</g>
<g clip-path="url(#clip5)" clip-rule="nonzero">
<g clip-path="url(#clip6)" clip-rule="nonzero">
<path style=" stroke:none;fill-rule:nonzero;fill:rgb(0%,80%,100%);fill-opacity:1;" d="M 60.746094 13.144531 C 63.523438 13.679688 65.902344 14.296875 67.8125 15.136719 C 70.753906 16.398438 72.65625 18.050781 73.550781 19.96875 C 70.820312 19.484375 68.421875 19.632812 66.242188 20.453125 C 81.847656 26.402344 89.203125 33.484375 88.351562 41.65625 C 87.21875 39.949219 85.691406 38.835938 83.761719 38.273438 C 86.148438 47.242188 86.414062 54.601562 84.488281 60.445312 C 83.160156 56.546875 81.890625 54.257812 80.800781 53.4375 C 82.320312 65.460938 80.234375 74.351562 74.640625 80.136719 C 75.699219 76.605469 76.15625 73.722656 75.910156 71.4375 C 69.339844 80.949219 61.882812 85.8125 53.496094 86.117188 C 50.183594 86.078125 47.015625 85.65625 44.074219 84.726562 C 39.746094 83.335938 35.828125 80.929688 32.355469 77.539062 C 37.777344 77.96875 42.730469 77.011719 47.09375 74.882812 L 54.28125 70.472656 C 55.191406 69.824219 56.03125 69.890625 56.878906 70.289062 C 58.636719 70.050781 59.128906 69.519531 58.632812 67.933594 C 57.515625 67 56.527344 65.75 54.886719 64.855469 C 51.304688 63.058594 47.589844 62.957031 43.710938 65.699219 C 39.996094 67.722656 36.433594 67.605469 32.957031 65.457031 C 30.675781 63.949219 28.433594 61.898438 26.3125 59.355469 L 25.527344 58.210938 L 25.527344 58.148438 C 25.632812 55.636719 26.667969 54.285156 28.730469 53.980469 C 31.070312 54.179688 33.746094 54.710938 36.765625 55.550781 C 37.269531 52.761719 36.605469 49.851562 34.769531 46.851562 L 34.832031 46.488281 C 37.667969 43.960938 39.992188 42.417969 42.140625 41.234375 C 42.914062 40.222656 43.269531 39.90625 43.832031 39 C 43.707031 38.730469 43.972656 38.5625 44.132812 38.695312 C 44.304688 37.933594 44.296875 38.050781 43.589844 37.066406 C 41.507812 37.5625 39.144531 36.921875 37.550781 36.523438 C 36.726562 36.292969 35.617188 35.824219 34.347656 34.648438 L 31.085938 31.570312 L 30.242188 30.480469 L 30.300781 30.121094 C 30.664062 27.703125 31.863281 25.742188 32.835938 23.898438 C 33.898438 22.207031 35.929688 20.347656 38.9375 18.398438 C 33.363281 19.070312 28.324219 21.496094 23.835938 25.648438 C 20.121094 24.339844 15.679688 24.621094 10.605469 26.496094 C 7.457031 25.0625 7.652344 23.140625 6.621094 16.585938 C 5.542969 17.742188 4.496094 18.875 3.539062 20.089844 L 3.539062 83.761719 C 3.539062 88.046875 6.988281 91.492188 11.273438 91.492188 L 84.726562 91.492188 C 89.011719 91.492188 92.460938 88.046875 92.460938 83.761719 L 92.460938 26.3125 C 89.203125 21.3125 83.984375 17.355469 77.238281 15.378906 C 72.613281 14.042969 67.085938 13.324219 60.746094 13.144531 Z M 60.746094 13.144531 "/>
</g>
</g>
<g clip-path="url(#clip7)" clip-rule="nonzero">
<g clip-path="url(#clip8)" clip-rule="nonzero">
<path style=" stroke:none;fill-rule:nonzero;fill:rgb(0%,0%,0%);fill-opacity:0.0196078;" d="M 3.539062 83.761719 L 3.539062 84.246094 C 3.539062 88.527344 6.988281 91.976562 11.273438 91.976562 L 84.726562 91.976562 C 89.011719 91.976562 92.460938 88.527344 92.460938 84.246094 L 92.460938 83.761719 C 92.460938 88.046875 89.011719 91.492188 84.726562 91.492188 L 11.273438 91.492188 C 6.988281 91.492188 3.539062 88.046875 3.539062 83.761719 Z M 3.539062 84.726562 L 3.539062 85.695312 C 3.539062 89.980469 6.988281 93.425781 11.273438 93.425781 L 84.726562 93.425781 C 89.011719 93.425781 92.460938 89.980469 92.460938 85.695312 L 92.460938 84.726562 C 92.460938 89.011719 89.011719 92.460938 84.726562 92.460938 L 11.273438 92.460938 C 6.988281 92.460938 3.539062 89.011719 3.539062 84.726562 Z M 3.539062 84.726562 "/>
</g>
</g>
<g clip-path="url(#clip9)" clip-rule="nonzero">
<g clip-path="url(#clip10)" clip-rule="nonzero">
<path style=" stroke:none;fill-rule:nonzero;fill:rgb(0%,0%,0%);fill-opacity:0.0509804;" d="M 3.539062 84.246094 L 3.539062 84.726562 C 3.539062 89.011719 6.988281 92.460938 11.273438 92.460938 L 84.726562 92.460938 C 89.011719 92.460938 92.460938 89.011719 92.460938 84.726562 L 92.460938 84.246094 C 92.460938 88.527344 89.011719 91.976562 84.726562 91.976562 L 11.273438 91.976562 C 6.988281 91.976562 3.539062 88.527344 3.539062 84.246094 Z M 3.539062 84.246094 "/>
</g>
</g>
<g clip-path="url(#clip11)" clip-rule="nonzero">
<g clip-path="url(#clip12)" clip-rule="nonzero">
<path style=" stroke:none;fill-rule:nonzero;fill:rgb(0%,0%,0%);fill-opacity:0.101961;" d="M 3.539062 83.761719 L 3.539062 84.246094 C 3.539062 88.527344 6.988281 91.976562 11.273438 91.976562 L 84.726562 91.976562 C 89.011719 91.976562 92.460938 88.527344 92.460938 84.246094 L 92.460938 83.761719 C 92.460938 88.046875 89.011719 91.492188 84.726562 91.492188 L 11.273438 91.492188 C 6.988281 91.492188 3.539062 88.046875 3.539062 83.761719 Z M 3.539062 83.761719 "/>
</g>
</g>
</g>
</svg>
