
<svg xmlns="http://www.w3.org/2000/svg" xmlns:xlink="http://www.w3.org/1999/xlink" width="96px" height="96px" viewBox="0 0 96 96" version="1.1">
<g id="surface1">
<path style="fill-rule:nonzero;fill:rgb(21.568627%,67.058824%,78.431373%);fill-opacity:1;stroke-width:2.623514;stroke-linecap:butt;stroke-linejoin:miter;stroke:rgb(21.568627%,67.058824%,78.431373%);stroke-opacity:1;stroke-miterlimit:4;" d="M 7.759765 2.511719 L 40.240233 2.511719 C 43.138671 2.511719 45.48828 4.861328 45.48828 7.759765 L 45.48828 40.240233 C 45.48828 43.138671 43.138671 45.48828 40.240233 45.48828 L 7.759765 45.48828 C 4.861328 45.48828 2.511719 43.138671 2.511719 40.240233 L 2.511719 7.759765 C 2.511719 4.861328 4.861328 2.511719 7.759765 2.511719 Z M 7.759765 2.511719 " transform="matrix(2,0,0,2,0,0)"/>
<path style=" stroke:none;fill-rule:nonzero;fill:rgb(0%,33.333333%,83.137255%);fill-opacity:1;" d="M 7.410156 82.4375 L 7.410156 13.691406 C 7.410156 9.695312 10.570312 6.457031 14.46875 6.457031 L 81.53125 6.457031 C 85.429688 6.457031 88.589844 9.695312 88.589844 13.691406 L 88.589844 82.4375 C 88.589844 86.429688 85.429688 89.671875 81.53125 89.671875 L 14.46875 89.671875 C 10.570312 89.671875 7.410156 86.429688 7.410156 82.4375 Z M 7.410156 82.4375 "/>
<path style=" stroke:none;fill-rule:nonzero;fill:rgb(92.54902%,49.803922%,26.27451%);fill-opacity:1;" d="M 80.484375 28.78125 C 80.589844 28.96875 80.671875 29.152344 80.765625 29.332031 C 80.757812 29.371094 80.773438 29.414062 80.765625 29.4375 C 80.742188 29.40625 80.707031 29.363281 80.707031 29.332031 C 80.625 29.144531 80.574219 28.96875 80.484375 28.78125 M 80.484375 28.78125 "/>
<path style=" stroke:none;fill-rule:nonzero;fill:rgb(21.568627%,67.058824%,78.431373%);fill-opacity:1;" d="M 60.023438 15.128906 C 62.644531 15.644531 64.890625 16.246094 66.691406 17.054688 C 69.464844 18.273438 71.257812 19.875 72.105469 21.730469 C 69.527344 21.257812 67.265625 21.402344 65.210938 22.195312 C 79.929688 27.949219 86.867188 34.796875 86.066406 42.699219 C 84.996094 41.046875 83.554688 39.972656 81.734375 39.429688 C 83.988281 48.101562 84.238281 55.214844 82.417969 60.867188 C 81.167969 57.097656 79.96875 54.886719 78.941406 54.089844 C 80.375 65.71875 78.410156 74.3125 73.128906 79.910156 C 74.128906 76.492188 74.5625 73.703125 74.328125 71.5 C 68.128906 80.695312 61.09375 85.398438 53.1875 85.691406 C 50.058594 85.65625 47.070312 85.246094 44.296875 84.347656 C 40.214844 83 36.519531 80.675781 33.242188 77.398438 C 38.359375 77.8125 43.027344 76.886719 47.144531 74.828125 L 53.925781 70.5625 C 54.78125 69.9375 55.574219 70 56.378906 70.386719 C 58.035156 70.15625 58.496094 69.644531 58.03125 68.109375 C 56.976562 67.207031 56.046875 66 54.496094 65.132812 C 51.117188 63.394531 47.613281 63.296875 43.953125 65.949219 C 40.449219 67.90625 37.089844 67.792969 33.8125 65.714844 C 31.65625 64.257812 29.542969 62.273438 27.542969 59.816406 L 26.800781 58.707031 L 26.800781 58.648438 C 26.898438 56.21875 27.875 54.910156 29.820312 54.617188 C 32.027344 54.8125 34.554688 55.324219 37.398438 56.136719 C 37.878906 53.4375 37.25 50.625 35.519531 47.722656 L 35.578125 47.375 C 38.253906 44.925781 40.445312 43.4375 42.472656 42.292969 C 43.203125 41.3125 43.535156 41.007812 44.070312 40.128906 C 43.953125 39.871094 44.199219 39.710938 44.351562 39.835938 C 44.515625 39.101562 44.507812 39.210938 43.839844 38.261719 C 41.875 38.742188 39.644531 38.125 38.140625 37.734375 C 37.367188 37.511719 36.320312 37.058594 35.121094 35.925781 L 32.042969 32.945312 L 31.246094 31.894531 L 31.304688 31.542969 C 31.644531 29.207031 32.777344 27.308594 33.695312 25.527344 C 34.695312 23.890625 36.613281 22.09375 39.453125 20.210938 C 34.191406 20.855469 29.441406 23.203125 25.207031 27.21875 C 21.699219 25.957031 17.507812 26.230469 12.726562 28.039062 C 9.753906 26.652344 9.9375 24.792969 8.964844 18.457031 C 7.949219 19.574219 6.960938 20.671875 6.058594 21.847656 L 6.058594 83.414062 C 6.058594 87.554688 9.3125 90.890625 13.351562 90.890625 L 82.648438 90.890625 C 86.6875 90.890625 89.941406 87.554688 89.941406 83.414062 L 89.941406 27.863281 C 86.871094 23.027344 81.945312 19.199219 75.582031 17.289062 C 71.21875 15.996094 66.003906 15.304688 60.023438 15.128906 Z M 60.023438 15.128906 "/>
<path style=" stroke:none;fill-rule:nonzero;fill:rgb(0%,0%,0%);fill-opacity:0.101961;" d="M 89.449219 34.359375 C 89.582031 34.597656 89.6875 34.832031 89.808594 35.058594 C 89.800781 35.105469 89.816406 35.160156 89.808594 35.191406 C 89.78125 35.152344 89.734375 35.09375 89.734375 35.058594 C 89.628906 34.820312 89.5625 34.597656 89.449219 34.359375 Z M 89.449219 34.359375 "/>
<path style=" stroke:none;fill-rule:nonzero;fill:rgb(92.941176%,49.803922%,26.27451%);fill-opacity:1;" d="M 89.453125 32.453125 C 89.582031 32.691406 89.6875 32.925781 89.808594 33.152344 C 89.800781 33.199219 89.820312 33.253906 89.808594 33.285156 C 89.78125 33.246094 89.734375 33.191406 89.734375 33.152344 C 89.628906 32.917969 89.566406 32.691406 89.453125 32.453125 Z M 89.453125 32.453125 "/>
<path style=" stroke:none;fill-rule:nonzero;fill:rgb(0%,0%,0%);fill-opacity:0.0196078;" d="M 4.15625 83.265625 L 4.15625 83.742188 C 4.15625 87.96875 7.554688 91.367188 11.78125 91.367188 L 84.21875 91.367188 C 88.445312 91.367188 91.84375 87.96875 91.84375 83.742188 L 91.84375 83.265625 C 91.84375 87.492188 88.445312 90.890625 84.21875 90.890625 L 11.78125 90.890625 C 7.554688 90.890625 4.15625 87.492188 4.15625 83.265625 Z M 4.15625 84.21875 L 4.15625 85.171875 C 4.15625 89.398438 7.554688 92.796875 11.78125 92.796875 L 84.21875 92.796875 C 88.445312 92.796875 91.84375 89.398438 91.84375 85.171875 L 91.84375 84.21875 C 91.84375 88.445312 88.445312 91.84375 84.21875 91.84375 L 11.78125 91.84375 C 7.554688 91.84375 4.15625 88.445312 4.15625 84.21875 Z M 4.15625 84.21875 "/>
<path style=" stroke:none;fill-rule:nonzero;fill:rgb(0%,0%,0%);fill-opacity:0.0509804;" d="M 4.15625 83.742188 L 4.15625 84.21875 C 4.15625 88.445312 7.554688 91.84375 11.78125 91.84375 L 84.21875 91.84375 C 88.445312 91.84375 91.84375 88.445312 91.84375 84.21875 L 91.84375 83.742188 C 91.84375 87.96875 88.445312 91.367188 84.21875 91.367188 L 11.78125 91.367188 C 7.554688 91.367188 4.15625 87.96875 4.15625 83.742188 Z M 4.15625 83.742188 "/>
<path style=" stroke:none;fill-rule:nonzero;fill:rgb(0%,0%,0%);fill-opacity:0.101961;" d="M 4.15625 83.265625 L 4.15625 83.742188 C 4.15625 87.96875 7.554688 91.367188 11.78125 91.367188 L 84.21875 91.367188 C 88.445312 91.367188 91.84375 87.96875 91.84375 83.742188 L 91.84375 83.265625 C 91.84375 87.492188 88.445312 90.890625 84.21875 90.890625 L 11.78125 90.890625 C 7.554688 90.890625 4.15625 87.492188 4.15625 83.265625 Z M 4.15625 83.265625 "/>
</g>
</svg>
