
<svg xmlns="http://www.w3.org/2000/svg" xmlns:xlink="http://www.w3.org/1999/xlink" width="96px" height="96px" viewBox="0 0 96 96" version="1.1">
<g id="surface1">
<path style=" stroke:none;fill-rule:nonzero;fill:rgb(13.333333%,21.176471%,33.72549%);fill-opacity:1;" d="M 16 5.8125 L 80 5.8125 C 85.625 5.8125 90.1875 11.394531 90.1875 18.277344 L 90.1875 77.722656 C 90.1875 84.605469 85.625 90.1875 80 90.1875 L 16 90.1875 C 10.375 90.1875 5.8125 84.605469 5.8125 77.722656 L 5.8125 18.277344 C 5.8125 11.394531 10.375 5.8125 16 5.8125 Z M 16 5.8125 "/>
<path style=" stroke:none;fill-rule:nonzero;fill:rgb(100%,100%,100%);fill-opacity:1;" d="M 52.074219 63.433594 L 39.128906 31.960938 L 35.582031 31.960938 L 22.546875 63.433594 L 27.007812 63.433594 L 31.035156 53.085938 L 43.460938 53.085938 L 47.574219 63.433594 Z M 41.902344 49.582031 L 32.550781 49.582031 L 37.355469 36.679688 Z M 41.902344 49.582031 "/>
<path style=" stroke:none;fill-rule:nonzero;fill:rgb(100%,100%,100%);fill-opacity:1;" d="M 61.503906 64.039062 C 64.273438 64.039062 66.785156 63.042969 68.992188 61.140625 L 69.640625 64.039062 L 73.453125 63.21875 C 72.84375 61.054688 72.542969 59.148438 72.542969 57.503906 L 72.542969 50.144531 C 72.542969 43.820312 69.511719 40.660156 63.320312 40.660156 C 60.679688 40.660156 57.867188 41.09375 54.921875 41.960938 L 55.355469 45.640625 C 58.167969 44.558594 60.765625 44.039062 63.105469 44.039062 C 66.265625 44.039062 68.039062 45.683594 68.472656 48.929688 C 58.601562 49.0625 53.664062 51.875 53.664062 57.375 C 53.664062 61.53125 57.171875 64.039062 61.503906 64.039062 Z M 68.472656 56.421875 C 68.472656 58.800781 64.359375 60.449219 61.675781 60.449219 C 59.121094 60.449219 57.820312 59.277344 57.820312 56.984375 C 57.820312 54.125 61.414062 52.609375 68.472656 52.480469 Z M 68.472656 56.421875 "/>
</g>
</svg>
