
<svg xmlns="http://www.w3.org/2000/svg" xmlns:xlink="http://www.w3.org/1999/xlink" width="96px" height="96px" viewBox="0 0 96 96" version="1.1">
<g id="surface1">
<path style="fill-rule:nonzero;fill:rgb(100%,90.196078%,81.176471%);fill-opacity:0.980392;stroke-width:28.191782;stroke-linecap:butt;stroke-linejoin:miter;stroke:rgb(65.098039%,44.705882%,25.098039%);stroke-opacity:0.980392;stroke-miterlimit:4;" d="M 81.479167 25.104167 L 430.520833 25.104167 C 461.666667 25.104167 486.895833 50.333333 486.895833 81.479167 L 486.895833 430.520833 C 486.895833 461.666667 461.666667 486.895833 430.520833 486.895833 L 81.479167 486.895833 C 50.333333 486.895833 25.104167 461.666667 25.104167 430.520833 L 25.104167 81.479167 C 25.104167 50.333333 50.333333 25.104167 81.479167 25.104167 Z M 81.479167 25.104167 " transform="matrix(0.1875,0,0,0.1875,0,0)"/>
<path style=" stroke:none;fill-rule:nonzero;fill:rgb(65.098039%,44.705882%,25.098039%);fill-opacity:0.980392;" d="M 76.054688 23.296875 C 69.824219 42.625 41.207031 46.585938 24.246094 25.195312 C 24.414062 32.570312 23.820312 38.082031 27.144531 44.132812 C 24.921875 44.832031 23.308594 46.90625 23.304688 49.359375 C 22.175781 49.421875 21.070312 49.472656 19.835938 49.515625 C 17.886719 47.308594 15.449219 45.964844 13.140625 46.9375 C 9.773438 48.363281 8.6875 53.253906 10.339844 57.972656 C 11.632812 61.691406 14.296875 64.300781 16.972656 64.457031 C 28.171875 72.3125 53.0625 77.96875 62.5 64.984375 C 65.683594 60.621094 67.585938 57.242188 67.765625 50.410156 C 75.195312 42.78125 81.570312 37.019531 76.054688 23.296875 Z M 24.246094 25.195312 C 24.246094 25.191406 24.246094 25.1875 24.246094 25.183594 L 24.238281 25.183594 C 24.238281 25.1875 24.242188 25.191406 24.246094 25.195312 Z M 24.246094 25.195312 "/>
<path style=" stroke:none;fill-rule:nonzero;fill:rgb(65.098039%,44.705882%,25.098039%);fill-opacity:0.980392;" d="M 13.695312 50.421875 C 12.949219 50.421875 12.324219 51.144531 12.324219 51.976562 C 12.324219 52.8125 12.949219 53.488281 13.695312 53.488281 C 14.445312 53.488281 15.070312 52.8125 15.070312 51.976562 C 15.070312 51.140625 14.445312 50.421875 13.695312 50.421875 M 13.695312 50.421875 "/>
<path style=" stroke:none;fill-rule:nonzero;fill:rgb(41.960784%,29.411765%,15.686275%);fill-opacity:1;" d="M 47.09375 63.203125 L 63.078125 63.867188 L 62.007812 68.292969 L 45.28125 64.5625 C 45.894531 64.125 46.460938 63.640625 47.09375 63.203125 M 47.09375 63.203125 "/>
<path style=" stroke:none;fill-rule:nonzero;fill:rgb(66.666667%,66.666667%,66.666667%);fill-opacity:1;" d="M 71.765625 64.796875 L 63.078125 63.640625 C 63.078125 63.640625 61.191406 64.035156 60.9375 65.613281 C 60.6875 67.199219 61.976562 68.292969 61.976562 68.292969 L 71.507812 68.25 M 71.765625 64.796875 "/>
<path style=" stroke:none;fill-rule:nonzero;fill:rgb(72.941176%,12.941176%,12.941176%);fill-opacity:1;" d="M 73.203125 63.640625 C 71.378906 64.019531 70.660156 66.234375 70.875 67.695312 C 71.066406 69.125 75.761719 73.828125 86.421875 66.570312 C 81.769531 65.839844 75.183594 63.183594 73.203125 63.644531 M 73.203125 63.644531 "/>
<path style=" stroke:none;fill-rule:nonzero;fill:rgb(27.45098%,25.098039%,23.921569%);fill-opacity:1;" d="M 62.738281 63.578125 C 62.738281 63.578125 60.839844 63.976562 60.59375 65.550781 C 60.347656 67.140625 61.601562 68.253906 61.601562 68.253906 L 61.910156 68.253906 C 61.609375 67.683594 61.308594 66.882812 61.4375 65.90625 C 61.621094 64.5 62.714844 63.871094 63.261719 63.644531 M 62.738281 63.582031 "/>
</g>
</svg>
