
<svg xmlns="http://www.w3.org/2000/svg" xmlns:xlink="http://www.w3.org/1999/xlink" width="96px" height="96px" viewBox="0 0 96 96" version="1.1">
<g id="surface1">
<path style=" stroke:none;fill-rule:evenodd;fill:rgb(92.54902%,94.117647%,94.509804%);fill-opacity:1;" d="M 4 79.199219 L 92 79.199219 C 92 62.332031 92 63.066406 92 46.199219 L 67.800781 22 L 4 22 L 4 26.398438 C 4 49.867188 4 55.734375 4 79.199219 Z M 4 79.199219 "/>
<path style=" stroke:none;fill-rule:nonzero;fill:rgb(74.117647%,76.470588%,78.039216%);fill-opacity:1;" d="M 67.800781 46.199219 L 92 46.199219 L 67.800781 22 Z M 67.800781 46.199219 "/>
<path style=" stroke:none;fill-rule:nonzero;fill:rgb(49.803922%,54.901961%,55.294118%);fill-opacity:1;" d="M 57.996094 46.199219 L 76.050781 46.199219 L 76.050781 50.601562 L 57.996094 50.601562 Z M 57.996094 46.199219 "/>
<path style=" stroke:none;fill-rule:nonzero;fill:rgb(49.803922%,54.901961%,55.294118%);fill-opacity:1;" d="M 12.800781 33 L 56.800781 33 L 56.800781 39.601562 L 12.800781 39.601562 Z M 12.800781 33 "/>
<path style=" stroke:none;fill-rule:nonzero;fill:rgb(49.803922%,54.901961%,55.294118%);fill-opacity:1;" d="M 10.601562 46.199219 L 54.601562 46.199219 L 54.601562 50.601562 L 10.601562 50.601562 Z M 10.601562 46.199219 "/>
<path style=" stroke:none;fill-rule:nonzero;fill:rgb(49.803922%,54.901961%,55.294118%);fill-opacity:1;" d="M 36.796875 55 L 81.269531 55 L 81.269531 59.398438 L 36.796875 59.398438 Z M 36.796875 55 "/>
<path style=" stroke:none;fill-rule:nonzero;fill:rgb(49.803922%,54.901961%,55.294118%);fill-opacity:1;" d="M 10.601562 55 L 31.660156 55 L 31.660156 59.398438 L 10.601562 59.398438 Z M 10.601562 55 "/>
<path style=" stroke:none;fill-rule:nonzero;fill:rgb(49.803922%,54.901961%,55.294118%);fill-opacity:1;" d="M 43.597656 63.800781 L 81.269531 63.800781 L 81.269531 68.199219 L 43.597656 68.199219 Z M 43.597656 63.800781 "/>
<path style=" stroke:none;fill-rule:nonzero;fill:rgb(49.803922%,54.901961%,55.294118%);fill-opacity:1;" d="M 10.601562 63.800781 L 40.363281 63.800781 L 40.363281 68.199219 L 10.601562 68.199219 Z M 10.601562 63.800781 "/>
</g>
</svg>
