
<svg xmlns="http://www.w3.org/2000/svg" xmlns:xlink="http://www.w3.org/1999/xlink" width="96px" height="96px" viewBox="0 0 96 96" version="1.1">
<g id="surface1">
<path style="fill-rule:nonzero;fill:rgb(100%,100%,100%);fill-opacity:1;stroke-width:7.166551;stroke-linecap:butt;stroke-linejoin:miter;stroke:rgb(87.45098%,87.843137%,23.529412%);stroke-opacity:1;stroke-miterlimit:4;" d="M 19.635417 5.302083 L 108.364583 5.302083 C 116.28125 5.302083 122.697917 11.71875 122.697917 19.635417 L 122.697917 108.364583 C 122.697917 116.28125 116.28125 122.697917 108.364583 122.697917 L 19.635417 122.697917 C 11.71875 122.697917 5.302083 116.28125 5.302083 108.364583 L 5.302083 19.635417 C 5.302083 11.71875 11.71875 5.302083 19.635417 5.302083 Z M 19.635417 5.302083 " transform="matrix(0.75,0,0,0.75,0,0)"/>
<path style=" stroke:none;fill-rule:nonzero;fill:rgb(87.45098%,87.843137%,23.529412%);fill-opacity:1;" d="M 25.207031 13.929688 L 13.929688 25.15625 L 32.515625 43.742188 C 33.050781 43.332031 33.726562 43.109375 34.402344 43.113281 L 35.949219 43.113281 C 37.039062 43.101562 38.113281 43.71875 38.660156 44.660156 L 48.484375 44.660156 C 49.957031 44.640625 51.351562 45.820312 51.582031 47.273438 C 51.808594 45.835938 53.171875 44.664062 54.628906 44.660156 L 62.566406 44.660156 L 82.070312 25.15625 L 70.84375 13.929688 L 48.046875 36.722656 Z M 25.207031 13.929688 "/>
<path style=" stroke:none;fill-rule:nonzero;fill:rgb(65.490196%,65.490196%,65.490196%);fill-opacity:1;" d="M 15.1875 45.046875 C 14.648438 45.140625 14.214844 45.660156 14.222656 46.210938 L 14.222656 58.597656 C 14.222656 59.207031 14.773438 59.757812 15.382812 59.757812 L 28.59375 59.757812 C 29.203125 59.757812 29.753906 59.207031 29.753906 58.597656 L 29.753906 57.050781 C 29.753906 56.441406 29.203125 55.886719 28.59375 55.886719 L 18.09375 55.886719 L 18.09375 48.917969 L 28.644531 48.917969 C 29.25 48.917969 29.804688 48.367188 29.804688 47.757812 L 29.804688 46.210938 C 29.804688 45.601562 29.25 45.046875 28.644531 45.046875 Z M 15.1875 45.046875 "/>
<path style=" stroke:none;fill-rule:nonzero;fill:rgb(65.490196%,65.490196%,65.490196%);fill-opacity:1;" d="M 34.207031 45.046875 C 33.667969 45.140625 33.230469 45.660156 33.242188 46.210938 L 33.242188 58.597656 C 33.242188 59.207031 33.792969 59.757812 34.402344 59.757812 L 35.949219 59.757812 C 36.558594 59.757812 37.109375 59.207031 37.109375 58.597656 L 37.109375 50.46875 L 45.773438 50.46875 L 45.773438 58.597656 C 45.773438 59.207031 46.328125 59.757812 46.933594 59.757812 L 48.484375 59.757812 C 49.09375 59.757812 49.644531 59.207031 49.644531 58.597656 L 49.644531 47.757812 C 49.644531 47.148438 49.09375 46.597656 48.484375 46.597656 L 37.109375 46.597656 L 37.109375 46.210938 C 37.109375 45.601562 36.558594 45.046875 35.949219 45.046875 C 35.371094 45.046875 34.789062 45.046875 34.207031 45.046875 Z M 34.207031 45.046875 "/>
<path style=" stroke:none;fill-rule:nonzero;fill:rgb(65.490196%,65.490196%,65.490196%);fill-opacity:1;" d="M 74.859375 45.046875 C 74.335938 45.160156 73.925781 45.671875 73.9375 46.210938 L 73.9375 46.597656 L 72.972656 46.597656 C 72.363281 46.597656 71.808594 47.148438 71.808594 47.757812 L 71.808594 49.304688 C 71.808594 49.914062 72.363281 50.46875 72.972656 50.46875 L 73.9375 50.46875 L 73.9375 58.597656 C 73.9375 59.207031 74.492188 59.757812 75.101562 59.757812 L 79.117188 59.757812 C 79.726562 59.757812 80.277344 59.207031 80.277344 58.597656 L 80.277344 56.710938 C 80.277344 56.101562 79.726562 55.550781 79.117188 55.550781 L 77.808594 55.550781 L 77.808594 50.46875 L 79.117188 50.46875 C 79.726562 50.46875 80.277344 49.914062 80.277344 49.304688 L 80.277344 47.757812 C 80.277344 47.148438 79.726562 46.597656 79.117188 46.597656 L 77.808594 46.597656 L 77.808594 46.210938 C 77.808594 45.601562 77.257812 45.046875 76.648438 45.046875 L 75.101562 45.046875 C 75.019531 45.039062 74.9375 45.039062 74.859375 45.046875 Z M 74.859375 45.046875 "/>
<path style=" stroke:none;fill-rule:nonzero;fill:rgb(65.490196%,65.490196%,65.490196%);fill-opacity:1;" d="M 54.4375 46.597656 C 53.894531 46.6875 53.460938 47.210938 53.46875 47.757812 L 53.46875 58.597656 C 53.46875 59.207031 54.023438 59.757812 54.628906 59.757812 L 61.742188 59.757812 C 62.351562 59.757812 62.90625 59.207031 62.90625 58.597656 L 62.90625 57.050781 C 62.90625 56.441406 62.351562 55.886719 61.742188 55.886719 L 57.339844 55.886719 L 57.339844 50.46875 L 66.484375 50.46875 L 66.484375 58.597656 C 66.484375 59.207031 67.039062 59.757812 67.648438 59.757812 L 70.746094 59.757812 C 71.351562 59.757812 71.90625 59.207031 71.90625 58.597656 L 71.90625 53.953125 C 71.90625 53.34375 71.351562 52.789062 70.746094 52.789062 L 70.359375 52.789062 L 70.359375 47.757812 C 70.359375 47.148438 69.804688 46.597656 69.195312 46.597656 L 54.628906 46.597656 C 54.566406 46.589844 54.5 46.589844 54.4375 46.597656 Z M 54.4375 46.597656 "/>
<path style=" stroke:none;fill-rule:nonzero;fill:rgb(81.960784%,20%,5.490196%);fill-opacity:1;" d="M 39.046875 52.402344 L 39.046875 58.597656 C 39.046875 60.21875 37.570312 61.695312 35.949219 61.695312 L 34.402344 61.695312 C 32.871094 61.703125 31.449219 60.410156 31.304688 58.890625 C 31.160156 60.410156 29.734375 61.703125 28.207031 61.695312 L 23.027344 61.695312 L 13.929688 70.792969 L 25.207031 82.070312 L 45.824219 61.503906 C 44.660156 61.054688 43.832031 59.84375 43.839844 58.597656 L 43.839844 52.402344 Z M 39.046875 52.402344 "/>
<path style=" stroke:none;fill-rule:nonzero;fill:rgb(81.960784%,20%,5.490196%);fill-opacity:1;" d="M 51.582031 58.890625 C 51.480469 59.863281 50.886719 60.773438 50.03125 61.257812 L 70.84375 82.070312 L 82.070312 70.792969 L 72.390625 61.066406 C 71.863281 61.464844 71.210938 61.6875 70.550781 61.695312 L 67.648438 61.695312 C 66.339844 61.691406 65.085938 60.765625 64.695312 59.515625 C 64.308594 60.765625 63.050781 61.691406 61.742188 61.695312 L 54.628906 61.695312 C 53.117188 61.679688 51.722656 60.394531 51.582031 58.890625 Z M 51.582031 58.890625 "/>
</g>
</svg>
