
<svg xmlns="http://www.w3.org/2000/svg" xmlns:xlink="http://www.w3.org/1999/xlink" width="96px" height="96px" viewBox="0 0 96 96" version="1.1">
<g id="surface1">
<path style="fill-rule:nonzero;fill:rgb(100%,100%,100%);fill-opacity:1;stroke-width:28.624428;stroke-linecap:butt;stroke-linejoin:miter;stroke:rgb(83.137255%,10.196078%,10.196078%);stroke-opacity:1;stroke-miterlimit:4;" d="M 78.791667 21.541667 L 433.208333 21.541667 C 464.8125 21.541667 490.458333 47.1875 490.458333 78.791667 L 490.458333 433.208333 C 490.458333 464.8125 464.8125 490.458333 433.208333 490.458333 L 78.791667 490.458333 C 47.1875 490.458333 21.541667 464.8125 21.541667 433.208333 L 21.541667 78.791667 C 21.541667 47.1875 47.1875 21.541667 78.791667 21.541667 Z M 78.791667 21.541667 " transform="matrix(0.1875,0,0,0.1875,0,0)"/>
<path style=" stroke:none;fill-rule:evenodd;fill:rgb(83.137255%,10.196078%,10.196078%);fill-opacity:1;" d="M 47.75 22.25 C 51.917969 22.25 55.296875 26.527344 55.296875 31.804688 L 55.296875 47.992188 C 55.296875 53.273438 51.917969 57.550781 47.75 57.550781 C 43.585938 57.550781 40.207031 53.273438 40.207031 47.992188 L 40.207031 31.804688 C 40.207031 26.527344 43.585938 22.25 47.75 22.25 Z M 47.75 22.25 "/>
<path style=" stroke:none;fill-rule:evenodd;fill:rgb(83.137255%,10.196078%,10.196078%);fill-opacity:1;" d="M 37.269531 77.09375 L 58.304688 77.164062 C 52.855469 70.53125 42.867188 70.625 37.269531 77.09375 Z M 37.269531 77.09375 "/>
<path style=" stroke:none;fill-rule:evenodd;fill:rgb(83.137255%,10.196078%,10.196078%);fill-opacity:1;" d="M 45.558594 64.722656 L 50.078125 64.722656 L 50.078125 72.457031 L 45.558594 72.457031 Z M 45.558594 64.722656 "/>
<path style=" stroke:none;fill-rule:evenodd;fill:rgb(83.137255%,10.196078%,10.196078%);fill-opacity:1;" d="M 31.664062 49.867188 L 36.394531 49.847656 C 37.292969 65.234375 58.195312 65.125 59.003906 49.847656 L 63.808594 49.875 C 62.445312 72.125 32.582031 71.3125 31.664062 49.867188 Z M 31.664062 49.867188 "/>
</g>
</svg>
