
<svg xmlns="http://www.w3.org/2000/svg" xmlns:xlink="http://www.w3.org/1999/xlink" width="96px" height="96px" viewBox="0 0 96 96" version="1.1">
<g id="surface1">
<path style=" stroke:none;fill-rule:evenodd;fill:rgb(32.941176%,59.607843%,99.215686%);fill-opacity:1;" d="M 18.410156 4.664062 L 78.292969 4.664062 C 86.0625 4.664062 92.359375 10.964844 92.359375 18.730469 L 92.359375 78.039062 C 92.359375 85.808594 86.0625 92.105469 78.292969 92.105469 L 18.410156 92.105469 C 10.640625 92.105469 4.34375 85.808594 4.34375 78.039062 L 4.34375 18.730469 C 4.34375 10.964844 10.640625 4.664062 18.410156 4.664062 Z M 18.410156 4.664062 "/>
<path style="fill-rule:nonzero;fill:rgb(0%,26.27451%,32.941176%);fill-opacity:1;stroke-width:12.658824;stroke-linecap:round;stroke-linejoin:miter;stroke:rgb(0%,26.27451%,32.941176%);stroke-opacity:1;stroke-miterlimit:4;" d="M 530.783842 316.415753 C 530.783842 430.367189 438.413951 522.73708 324.462515 522.73708 C 210.489102 522.73708 118.119211 430.367189 118.119211 316.415753 C 118.119211 202.44234 210.489102 110.072449 324.462515 110.072449 C 438.413951 110.072449 530.783842 202.44234 530.783842 316.415753 Z M 530.783842 316.415753 " transform="matrix(0.177742,0,0,0.177742,-9.373599,-7.70898)"/>
<path style="fill-rule:nonzero;fill:rgb(100%,100%,100%);fill-opacity:1;stroke-width:2;stroke-linecap:butt;stroke-linejoin:miter;stroke:rgb(100%,100%,100%);stroke-opacity:1;stroke-miterlimit:4;" d="M -261.81548 247.393311 L -359.75298 389.997478 L -217.31548 293.226645 Z M -261.81548 247.393311 " transform="matrix(0.1875,0,0,0.1875,93.223215,-2.167496)"/>
<path style="fill-rule:nonzero;fill:rgb(87.058824%,24.313725%,24.313725%);fill-opacity:1;stroke-width:2;stroke-linecap:butt;stroke-linejoin:miter;stroke:rgb(87.058824%,24.313725%,24.313725%);stroke-opacity:1;stroke-miterlimit:4;" d="M -215.919647 291.789145 L -117.982147 149.205811 L -260.419647 245.976645 Z M -215.919647 291.789145 " transform="matrix(0.1875,0,0,0.1875,93.223215,-2.167496)"/>
</g>
</svg>
