
<svg xmlns="http://www.w3.org/2000/svg" xmlns:xlink="http://www.w3.org/1999/xlink" width="96px" height="96px" viewBox="0 0 96 96" version="1.1">
<g id="surface1">
<path style="fill-rule:nonzero;fill:rgb(92.54902%,92.54902%,92.54902%);fill-opacity:1;stroke-width:26.921061;stroke-linecap:butt;stroke-linejoin:miter;stroke:rgb(66.27451%,66.27451%,66.27451%);stroke-opacity:1;stroke-miterlimit:4;" d="M 83.297243 -432.770833 L 410.258796 -432.770833 C 439.43031 -432.770833 463.088308 -408.1875 463.088308 -377.875 L 463.088308 -38.125 C 463.088308 -7.8125 439.43031 16.770833 410.258796 16.770833 L 83.297243 16.770833 C 54.125728 16.770833 30.46773 -7.8125 30.46773 -38.125 L 30.46773 -377.875 C 30.46773 -408.1875 54.125728 -432.770833 83.297243 -432.770833 Z M 83.297243 -432.770833 " transform="matrix(0.194834,0,0,0.1875,-0.0806715,87)"/>
<path style=" stroke:none;fill-rule:nonzero;fill:rgb(30.196078%,30.196078%,30.196078%);fill-opacity:1;" d="M 16.324219 20.132812 L 76.503906 20.132812 C 79.316406 20.132812 81.597656 22.414062 81.597656 25.226562 L 81.597656 69.09375 C 81.597656 71.90625 79.316406 74.1875 76.503906 74.1875 L 16.324219 74.1875 C 13.511719 74.1875 11.234375 71.90625 11.234375 69.09375 L 11.234375 25.226562 C 11.234375 22.414062 13.511719 20.132812 16.324219 20.132812 Z M 16.324219 20.132812 "/>
<path style=" stroke:none;fill-rule:nonzero;fill:rgb(90.196078%,90.196078%,90.196078%);fill-opacity:1;" d="M 25.140625 23.542969 L 73.773438 23.542969 C 76.046875 23.542969 77.890625 25.535156 77.890625 27.992188 L 77.890625 66.328125 C 77.890625 68.785156 76.046875 70.777344 73.773438 70.777344 L 25.140625 70.777344 C 22.867188 70.777344 21.027344 68.785156 21.027344 66.328125 L 21.027344 27.992188 C 21.027344 25.535156 22.867188 23.542969 25.140625 23.542969 Z M 25.140625 23.542969 "/>
<path style=" stroke:none;fill-rule:nonzero;fill:rgb(100%,100%,100%);fill-opacity:1;" d="M 18.054688 47.160156 C 18.054688 48.5625 16.917969 49.703125 15.511719 49.703125 C 14.109375 49.703125 12.96875 48.5625 12.96875 47.160156 C 12.96875 45.753906 14.109375 44.617188 15.511719 44.617188 C 16.917969 44.617188 18.054688 45.753906 18.054688 47.160156 Z M 18.054688 47.160156 "/>
<path style=" stroke:none;fill-rule:nonzero;fill:rgb(20%,20%,20%);fill-opacity:1;" d="M 84.363281 34.59375 C 83.886719 34.121094 82.695312 34.566406 81.660156 35.601562 L 76.53125 40.742188 L 63.78125 53.492188 L 45.105469 72.171875 L 42.441406 79.316406 L 49.589844 76.65625 L 68.269531 57.976562 L 77.492188 48.75 L 81.015625 45.230469 L 86.160156 40.101562 C 87.195312 39.0625 87.640625 37.871094 87.167969 37.398438 Z M 84.363281 34.59375 "/>
</g>
</svg>
