
<svg xmlns="http://www.w3.org/2000/svg" xmlns:xlink="http://www.w3.org/1999/xlink" width="96px" height="96px" viewBox="0 0 96 96" version="1.1">
<g id="surface1">
<path style=" stroke:none;fill-rule:nonzero;fill:rgb(0%,47.058824%,67.843137%);fill-opacity:1;" d="M 14.800781 5.476562 L 81.203125 5.476562 C 86.480469 5.476562 90.761719 9.757812 90.761719 15.035156 L 90.761719 81.4375 C 90.761719 86.714844 86.480469 90.996094 81.203125 90.996094 L 14.800781 90.996094 C 9.523438 90.996094 5.242188 86.714844 5.242188 81.4375 L 5.242188 15.035156 C 5.242188 9.757812 9.523438 5.476562 14.800781 5.476562 Z M 14.800781 5.476562 "/>
<path style=" stroke:none;fill-rule:nonzero;fill:rgb(100%,97.254902%,92.156863%);fill-opacity:1;" d="M 52.726562 19.5 L 42.722656 20.492188 L 42.722656 61.515625 L 52.617188 60.082031 L 52.617188 42.546875 L 65.804688 61.957031 L 76.136719 58.648438 L 62.617188 40.011719 L 76.246094 22.367188 L 65.695312 19.941406 L 52.617188 37.585938 Z M 30.195312 29.535156 C 30.082031 29.535156 29.949219 29.597656 29.867188 29.648438 L 26.019531 33.617188 C 25.855469 33.789062 25.789062 34.082031 25.90625 34.28125 L 30.414062 41.78125 C 29.605469 43.144531 29.007812 44.640625 28.546875 46.191406 L 20.191406 47.957031 C 19.960938 48.019531 19.753906 48.15625 19.753906 48.398438 L 19.753906 53.910156 C 19.753906 54.144531 19.96875 54.40625 20.191406 54.460938 L 28.324219 56.445312 C 28.757812 58.246094 29.417969 59.953125 30.304688 61.519531 L 25.578125 68.6875 C 25.445312 68.890625 25.515625 69.179688 25.6875 69.351562 L 29.535156 73.210938 C 29.699219 73.367188 29.996094 73.449219 30.195312 73.324219 L 37.558594 68.800781 C 39.007812 69.640625 40.523438 70.339844 42.175781 70.785156 L 43.933594 79.058594 C 43.984375 79.296875 44.136719 79.5 44.375 79.5 L 49.867188 79.5 C 50.101562 79.5 50.363281 79.285156 50.417969 79.058594 L 52.394531 70.785156 C 54.097656 70.324219 55.75 69.566406 57.230469 68.691406 L 64.484375 73.542969 C 64.6875 73.671875 64.976562 73.609375 65.144531 73.429688 L 68.992188 69.570312 C 69.15625 69.398438 69.222656 69.109375 69.101562 68.910156 L 66.464844 64.5 L 65.585938 64.828125 C 65.460938 64.890625 65.328125 64.828125 65.253906 64.714844 C 65.253906 64.714844 63.59375 62.1875 61.410156 58.976562 C 58.796875 64.105469 53.476562 67.582031 47.339844 67.582031 C 38.625 67.582031 31.515625 60.554688 31.515625 51.808594 C 31.515625 45.375 35.363281 39.84375 40.855469 37.363281 L 40.855469 33.28125 C 39.855469 33.636719 38.914062 33.992188 38 34.496094 C 38 34.496094 37.890625 34.496094 37.886719 34.496094 L 30.523438 29.644531 C 30.425781 29.582031 30.304688 29.523438 30.195312 29.535156 Z M 30.195312 29.535156 "/>
</g>
</svg>
