
<svg xmlns="http://www.w3.org/2000/svg" xmlns:xlink="http://www.w3.org/1999/xlink" width="96px" height="96px" viewBox="0 0 96 96" version="1.1">
<g id="surface1">
<path style="fill-rule:nonzero;fill:rgb(17.254902%,24.313725%,31.372549%);fill-opacity:1;stroke-width:2.632158;stroke-linecap:butt;stroke-linejoin:miter;stroke:rgb(10.196078%,73.72549%,61.176471%);stroke-opacity:1;stroke-miterlimit:4;" d="M 7.705078 2.441406 L 40.294921 2.441406 C 43.201171 2.441406 45.558592 4.798828 45.558592 7.705078 L 45.558592 40.294921 C 45.558592 43.201171 43.201171 45.558592 40.294921 45.558592 L 7.705078 45.558592 C 4.798828 45.558592 2.441406 43.201171 2.441406 40.294921 L 2.441406 7.705078 C 2.441406 4.798828 4.798828 2.441406 7.705078 2.441406 Z M 7.705078 2.441406 " transform="matrix(2,0,0,2,0,0)"/>
<path style=" stroke:none;fill-rule:nonzero;fill:rgb(10.196078%,73.72549%,61.176471%);fill-opacity:1;" d="M 75.171875 45.46875 C 75.8125 44.832031 80.976562 32.582031 81.027344 31.570312 C 81.089844 30.367188 76.375 27.082031 70.605469 24.308594 C 57.535156 18.027344 39.992188 17.960938 26.488281 24.148438 C 22.578125 25.941406 15.710938 30.144531 15.125 31.101562 C 14.953125 31.386719 16.15625 34.808594 17.800781 38.710938 L 17.796875 38.714844 C 19.441406 42.617188 20.84375 45.867188 20.914062 45.9375 C 20.984375 46.007812 24.835938 44.785156 29.476562 43.222656 L 37.914062 40.378906 L 37.96875 35.015625 L 38.019531 29.65625 L 40.890625 29.121094 C 44.125 28.519531 53.050781 28.542969 56.058594 29.164062 L 58.035156 29.574219 L 58.035156 34.925781 L 58.03125 40.273438 L 66.441406 43.027344 C 71.066406 44.546875 74.992188 45.644531 75.171875 45.46875 Z M 75.171875 45.46875 "/>
<path style=" stroke:none;fill-rule:evenodd;fill:rgb(10.196078%,73.72549%,61.176471%);fill-opacity:1;" d="M 32.542969 47.386719 L 38.011719 47.386719 C 39.445312 47.386719 40.609375 48.824219 40.609375 50.59375 L 40.609375 52.28125 C 40.609375 54.054688 39.445312 55.488281 38.011719 55.488281 L 32.542969 55.488281 C 31.109375 55.488281 29.945312 54.054688 29.945312 52.28125 L 29.945312 50.59375 C 29.945312 48.824219 31.109375 47.386719 32.542969 47.386719 Z M 32.542969 47.386719 "/>
<path style=" stroke:none;fill-rule:evenodd;fill:rgb(10.196078%,73.72549%,61.176471%);fill-opacity:1;" d="M 44.90625 47.328125 L 50.371094 47.328125 C 51.804688 47.328125 52.96875 48.761719 52.96875 50.535156 L 52.96875 52.222656 C 52.96875 53.992188 51.804688 55.429688 50.371094 55.429688 L 44.90625 55.429688 C 43.46875 55.429688 42.308594 53.992188 42.308594 52.222656 L 42.308594 50.535156 C 42.308594 48.761719 43.46875 47.328125 44.90625 47.328125 Z M 44.90625 47.328125 "/>
<path style=" stroke:none;fill-rule:evenodd;fill:rgb(10.196078%,73.72549%,61.176471%);fill-opacity:1;" d="M 57.183594 47.1875 L 62.652344 47.1875 C 64.085938 47.1875 65.25 48.625 65.25 50.394531 L 65.25 52.085938 C 65.25 53.855469 64.085938 55.292969 62.652344 55.292969 L 57.183594 55.292969 C 55.75 55.292969 54.585938 53.855469 54.585938 52.085938 L 54.585938 50.394531 C 54.585938 48.625 55.75 47.1875 57.183594 47.1875 Z M 57.183594 47.1875 "/>
<path style=" stroke:none;fill-rule:evenodd;fill:rgb(10.196078%,73.72549%,61.176471%);fill-opacity:1;" d="M 32.609375 57.683594 L 38.078125 57.683594 C 39.511719 57.683594 40.675781 59.121094 40.675781 60.890625 L 40.675781 62.578125 C 40.675781 64.351562 39.511719 65.785156 38.078125 65.785156 L 32.609375 65.785156 C 31.175781 65.785156 30.011719 64.351562 30.011719 62.578125 L 30.011719 60.890625 C 30.011719 59.121094 31.175781 57.683594 32.609375 57.683594 Z M 32.609375 57.683594 "/>
<path style=" stroke:none;fill-rule:evenodd;fill:rgb(10.196078%,73.72549%,61.176471%);fill-opacity:1;" d="M 44.972656 57.625 L 50.441406 57.625 C 51.875 57.625 53.035156 59.058594 53.035156 60.832031 L 53.035156 62.519531 C 53.035156 64.292969 51.875 65.726562 50.441406 65.726562 L 44.972656 65.726562 C 43.539062 65.726562 42.375 64.292969 42.375 62.519531 L 42.375 60.832031 C 42.375 59.058594 43.539062 57.625 44.972656 57.625 Z M 44.972656 57.625 "/>
<path style=" stroke:none;fill-rule:evenodd;fill:rgb(10.196078%,73.72549%,61.176471%);fill-opacity:1;" d="M 57.25 57.488281 L 62.71875 57.488281 C 64.152344 57.488281 65.316406 58.921875 65.316406 60.695312 L 65.316406 62.382812 C 65.316406 64.15625 64.152344 65.589844 62.71875 65.589844 L 57.25 65.589844 C 55.816406 65.589844 54.65625 64.15625 54.65625 62.382812 L 54.65625 60.695312 C 54.65625 58.921875 55.816406 57.488281 57.25 57.488281 Z M 57.25 57.488281 "/>
<path style=" stroke:none;fill-rule:evenodd;fill:rgb(10.196078%,73.72549%,61.176471%);fill-opacity:1;" d="M 32.558594 67.984375 L 38.027344 67.984375 C 39.460938 67.984375 40.625 69.417969 40.625 71.191406 L 40.625 72.878906 C 40.625 74.652344 39.460938 76.085938 38.027344 76.085938 L 32.558594 76.085938 C 31.125 76.085938 29.960938 74.652344 29.960938 72.878906 L 29.960938 71.191406 C 29.960938 69.417969 31.125 67.984375 32.558594 67.984375 Z M 32.558594 67.984375 "/>
<path style=" stroke:none;fill-rule:evenodd;fill:rgb(10.196078%,73.72549%,61.176471%);fill-opacity:1;" d="M 44.921875 67.921875 L 50.386719 67.921875 C 51.824219 67.921875 52.984375 69.359375 52.984375 71.132812 L 52.984375 72.820312 C 52.984375 74.589844 51.824219 76.027344 50.386719 76.027344 L 44.921875 76.027344 C 43.484375 76.027344 42.324219 74.589844 42.324219 72.820312 L 42.324219 71.132812 C 42.324219 69.359375 43.484375 67.921875 44.921875 67.921875 Z M 44.921875 67.921875 "/>
<path style=" stroke:none;fill-rule:evenodd;fill:rgb(10.196078%,73.72549%,61.176471%);fill-opacity:1;" d="M 57.199219 67.785156 L 62.667969 67.785156 C 64.101562 67.785156 65.265625 69.222656 65.265625 70.992188 L 65.265625 72.683594 C 65.265625 74.453125 64.101562 75.890625 62.667969 75.890625 L 57.199219 75.890625 C 55.765625 75.890625 54.601562 74.453125 54.601562 72.683594 L 54.601562 70.992188 C 54.601562 69.222656 55.765625 67.785156 57.199219 67.785156 Z M 57.199219 67.785156 "/>
</g>
</svg>
