
<svg xmlns="http://www.w3.org/2000/svg" xmlns:xlink="http://www.w3.org/1999/xlink" width="96px" height="96px" viewBox="0 0 96 96" version="1.1">
<g id="surface1">
<path style="fill-rule:nonzero;fill:rgb(92.54902%,92.54902%,92.54902%);fill-opacity:1;stroke-width:27.616438;stroke-linecap:butt;stroke-linejoin:miter;stroke:rgb(0%,66.666667%,83.137255%);stroke-opacity:1;stroke-miterlimit:4;" d="M 88.520833 25.270833 L 430.416667 25.270833 C 460.9375 25.270833 485.666667 50 485.666667 80.520833 L 485.666667 422.416667 C 485.666667 452.9375 460.9375 477.666667 430.416667 477.666667 L 88.520833 477.666667 C 58 477.666667 33.270833 452.9375 33.270833 422.416667 L 33.270833 80.520833 C 33.270833 50 58 25.270833 88.520833 25.270833 Z M 88.520833 25.270833 " transform="matrix(0.1875,0,0,0.1875,0,0)"/>
<path style=" stroke:none;fill-rule:evenodd;fill:rgb(50.196078%,50.196078%,50.196078%);fill-opacity:1;" d="M 42.554688 76.03125 L 32.820312 82.414062 L 64.460938 82.414062 L 54.726562 76.03125 Z M 42.554688 76.03125 "/>
<path style=" stroke:none;fill-rule:evenodd;fill:rgb(50.196078%,50.196078%,50.196078%);fill-opacity:1;" d="M 42.554688 74.097656 L 32.820312 80.480469 L 64.460938 80.480469 L 54.726562 74.097656 Z M 42.554688 74.097656 "/>
<path style=" stroke:none;fill-rule:nonzero;fill:rgb(30.196078%,30.196078%,30.196078%);fill-opacity:1;" d="M 41.878906 62.375 L 55.421875 62.375 L 55.421875 77.4375 L 41.878906 77.4375 Z M 41.878906 62.375 "/>
<path style=" stroke:none;fill-rule:nonzero;fill:rgb(50.196078%,50.196078%,50.196078%);fill-opacity:1;" d="M 15.054688 11.886719 L 82.246094 11.886719 C 84.601562 11.886719 86.507812 13.707031 86.507812 15.953125 L 86.507812 63.011719 C 86.507812 65.257812 84.601562 67.082031 82.246094 67.082031 L 15.054688 67.082031 C 12.699219 67.082031 10.792969 65.257812 10.792969 63.011719 L 10.792969 15.953125 C 10.792969 13.707031 12.699219 11.886719 15.054688 11.886719 Z M 15.054688 11.886719 "/>
<path style=" stroke:none;fill-rule:nonzero;fill:rgb(0%,66.666667%,83.137255%);fill-opacity:1;" d="M 17.878906 17.050781 L 79.421875 17.050781 L 79.421875 61.914062 L 17.878906 61.914062 Z M 17.878906 17.050781 "/>
<path style=" stroke:none;fill-rule:evenodd;fill:rgb(0%,0%,0%);fill-opacity:1;" d="M 32.820312 80.480469 L 32.820312 82.414062 L 64.480469 82.414062 L 64.480469 80.480469 Z M 32.820312 80.480469 "/>
<path style=" stroke:none;fill-rule:nonzero;fill:rgb(100%,100%,100%);fill-opacity:1;" d="M 55.292969 53.863281 L 51.808594 53.863281 L 51.808594 57.566406 L 55.292969 57.566406 Z M 50.066406 53.863281 L 46.582031 53.863281 L 46.582031 57.566406 L 50.066406 57.566406 Z M 44.839844 53.863281 L 41.359375 53.863281 L 41.359375 57.566406 L 44.839844 57.566406 Z M 44.839844 53.863281 "/>
<path style=" stroke:none;fill-rule:evenodd;fill:rgb(20%,20%,20%);fill-opacity:1;" d="M 17.695312 17.164062 L 17.695312 20.679688 L 79.253906 20.679688 L 79.253906 17.164062 Z M 17.695312 17.164062 "/>
</g>
</svg>
