
<svg xmlns="http://www.w3.org/2000/svg" xmlns:xlink="http://www.w3.org/1999/xlink" width="96px" height="96px" viewBox="0 0 96 96" version="1.1">
<g id="surface1">
<path style="fill-rule:nonzero;fill:rgb(92.54902%,92.54902%,92.54902%);fill-opacity:1;stroke-width:6.841342;stroke-linecap:butt;stroke-linejoin:miter;stroke:rgb(0%,66.666667%,83.137255%);stroke-opacity:1;stroke-miterlimit:4;" d="M 21.651042 7.963542 L 106.348958 7.963542 C 113.90625 7.963542 120.036458 14.09375 120.036458 21.651042 L 120.036458 106.348958 C 120.036458 113.90625 113.90625 120.036458 106.348958 120.036458 L 21.651042 120.036458 C 14.09375 120.036458 7.963542 113.90625 7.963542 106.348958 L 7.963542 21.651042 C 7.963542 14.09375 14.09375 7.963542 21.651042 7.963542 Z M 21.651042 7.963542 " transform="matrix(0.75,0,0,0.75,0,0)"/>
<path style=" stroke:none;fill-rule:evenodd;fill:rgb(50.196078%,50.196078%,50.196078%);fill-opacity:1;" d="M 41.960938 76.617188 L 32.3125 82.945312 L 63.664062 82.945312 L 54.019531 76.617188 Z M 41.960938 76.617188 "/>
<path style=" stroke:none;fill-rule:evenodd;fill:rgb(50.196078%,50.196078%,50.196078%);fill-opacity:1;" d="M 41.960938 74.703125 L 32.3125 81.027344 L 63.664062 81.027344 L 54.019531 74.703125 Z M 41.960938 74.703125 "/>
<path style=" stroke:none;fill-rule:nonzero;fill:rgb(30.196078%,30.196078%,30.196078%);fill-opacity:1;" d="M 41.289062 63.085938 L 54.710938 63.085938 L 54.710938 78.011719 L 41.289062 78.011719 Z M 41.289062 63.085938 "/>
<path style=" stroke:none;fill-rule:nonzero;fill:rgb(50.196078%,50.196078%,50.196078%);fill-opacity:1;" d="M 14.710938 13.054688 L 81.289062 13.054688 C 83.625 13.054688 85.515625 14.859375 85.515625 17.089844 L 85.515625 63.714844 C 85.515625 65.945312 83.625 67.75 81.289062 67.75 L 14.710938 67.75 C 12.375 67.75 10.484375 65.945312 10.484375 63.714844 L 10.484375 17.089844 C 10.484375 14.859375 12.375 13.054688 14.710938 13.054688 Z M 14.710938 13.054688 "/>
<path style=" stroke:none;fill-rule:nonzero;fill:rgb(0%,66.666667%,83.137255%);fill-opacity:1;" d="M 17.507812 18.175781 L 78.492188 18.175781 L 78.492188 62.628906 L 17.507812 62.628906 Z M 17.507812 18.175781 "/>
<path style=" stroke:none;fill-rule:evenodd;fill:rgb(0%,0%,0%);fill-opacity:1;" d="M 32.3125 81.027344 L 32.3125 82.945312 L 63.6875 82.945312 L 63.6875 81.027344 Z M 32.3125 81.027344 "/>
<path style=" stroke:none;fill-rule:nonzero;fill:rgb(100%,100%,100%);fill-opacity:1;" d="M 54.582031 54.652344 L 51.128906 54.652344 L 51.128906 58.324219 L 54.582031 58.324219 Z M 49.402344 54.652344 L 45.953125 54.652344 L 45.953125 58.324219 L 49.402344 58.324219 Z M 44.226562 54.652344 L 40.773438 54.652344 L 40.773438 58.324219 L 44.226562 58.324219 Z M 44.226562 54.652344 "/>
<path style=" stroke:none;fill-rule:evenodd;fill:rgb(20%,20%,20%);fill-opacity:1;" d="M 17.324219 18.285156 L 17.324219 21.769531 L 78.324219 21.769531 L 78.324219 18.285156 Z M 17.324219 18.285156 "/>
<path style=" stroke:none;fill-rule:evenodd;fill:rgb(20%,20%,20%);fill-opacity:1;" d="M 62.210938 24.855469 L 76.25 24.855469 L 76.25 35.578125 Z M 62.210938 24.855469 "/>
<path style=" stroke:none;fill-rule:evenodd;fill:rgb(20%,20%,20%);fill-opacity:1;" d="M 34.832031 60.679688 L 20.792969 60.679688 L 20.792969 49.957031 Z M 34.832031 60.679688 "/>
</g>
</svg>
