
<svg xmlns="http://www.w3.org/2000/svg" xmlns:xlink="http://www.w3.org/1999/xlink" width="96px" height="96px" viewBox="0 0 96 96" version="1.1">
<g id="surface1">
<path style="fill-rule:nonzero;fill:rgb(100%,100%,100%);fill-opacity:1;stroke-width:27.200571;stroke-linecap:butt;stroke-linejoin:miter;stroke:rgb(30.588235%,66.666667%,2.745098%);stroke-opacity:1;stroke-miterlimit:4;" d="M 87.625 33.208333 L 424.375 33.208333 C 454.4375 33.208333 478.791667 57.5625 478.791667 87.625 L 478.791667 424.375 C 478.791667 454.4375 454.4375 478.791667 424.375 478.791667 L 87.625 478.791667 C 57.5625 478.791667 33.208333 454.4375 33.208333 424.375 L 33.208333 87.625 C 33.208333 57.5625 57.5625 33.208333 87.625 33.208333 Z M 87.625 33.208333 " transform="matrix(0.1875,0,0,0.1875,0,0)"/>
<path style=" stroke:none;fill-rule:nonzero;fill:rgb(100%,100%,100%);fill-opacity:1;" d="M 35.257812 12.699219 C 33.820312 12.699219 32.664062 13.476562 32.664062 14.4375 L 32.664062 18.582031 L 23.210938 18.582031 C 21.167969 18.582031 19.523438 19.6875 19.523438 21.058594 L 19.523438 80.824219 C 19.523438 82.195312 21.167969 83.300781 23.210938 83.300781 L 72.789062 83.300781 C 74.832031 83.300781 76.476562 82.195312 76.476562 80.824219 L 76.476562 21.058594 C 76.476562 19.6875 74.832031 18.582031 72.789062 18.582031 L 63.332031 18.582031 L 63.332031 14.4375 C 63.332031 13.476562 62.179688 12.699219 60.742188 12.699219 Z M 35.257812 12.699219 "/>
<path style=" stroke:none;fill-rule:nonzero;fill:rgb(17.254902%,62.745098%,35.294118%);fill-opacity:1;" d="M 37.859375 14.777344 C 36.71875 14.777344 35.800781 15.394531 35.800781 16.160156 L 35.800781 20.414062 C 35.800781 20.433594 35.804688 20.449219 35.804688 20.46875 L 25.671875 20.46875 C 23.832031 20.46875 22.351562 21.507812 22.351562 22.796875 L 22.351562 79.085938 C 22.351562 80.378906 23.832031 81.417969 25.671875 81.417969 L 70.328125 81.417969 C 72.167969 81.417969 73.648438 80.378906 73.648438 79.085938 L 73.648438 22.796875 C 73.648438 21.507812 72.167969 20.46875 70.328125 20.46875 L 60.195312 20.46875 C 60.195312 20.449219 60.199219 20.433594 60.199219 20.414062 L 60.199219 16.160156 C 60.199219 15.394531 59.28125 14.777344 58.140625 14.777344 Z M 37.859375 14.777344 "/>
<path style=" stroke:none;fill-rule:evenodd;fill:rgb(100%,100%,100%);fill-opacity:1;" d="M 48.265625 30.148438 L 33.425781 55.066406 L 48.265625 55.066406 L 48.265625 71.675781 L 63.109375 46.761719 L 48.265625 46.761719 Z M 48.265625 30.148438 "/>
</g>
</svg>
