
<svg xmlns="http://www.w3.org/2000/svg" xmlns:xlink="http://www.w3.org/1999/xlink" width="96px" height="96px" viewBox="0 0 96 96" version="1.1">
<g id="surface1">
<path style="fill-rule:nonzero;fill:rgb(100%,100%,100%);fill-opacity:1;stroke-width:6.988541;stroke-linecap:butt;stroke-linejoin:miter;stroke:rgb(29.019608%,54.901961%,61.568627%);stroke-opacity:1;stroke-miterlimit:4;" d="M 20.739583 6.760417 L 107.260417 6.760417 C 114.979167 6.760417 121.239583 13.020833 121.239583 20.739583 L 121.239583 107.260417 C 121.239583 114.979167 114.979167 121.239583 107.260417 121.239583 L 20.739583 121.239583 C 13.020833 121.239583 6.760417 114.979167 6.760417 107.260417 L 6.760417 20.739583 C 6.760417 13.020833 13.020833 6.760417 20.739583 6.760417 Z M 20.739583 6.760417 " transform="matrix(0.75,0,0,0.75,0,0)"/>
<path style=" stroke:none;fill-rule:nonzero;fill:rgb(29.019608%,54.901961%,61.568627%);fill-opacity:1;" d="M 46.375 34.976562 L 50.28125 34.976562 C 56.132812 34.976562 56.015625 40.914062 56.015625 40.914062 L 56.015625 46.007812 C 56.015625 47.945312 52.597656 51.945312 52.597656 51.945312 L 52.597656 54.496094 L 60.28125 58.738281 L 60.28125 62.132812 L 36.375 62.132812 L 36.375 58.738281 L 44.0625 54.496094 L 44.0625 51.945312 C 44.0625 51.945312 40.628906 47.945312 40.644531 46.007812 L 40.644531 40.914062 C 40.644531 40.914062 40.527344 34.976562 46.375 34.976562 Z M 46.375 34.976562 "/>
<path style="fill:none;stroke-width:1.850622;stroke-linecap:round;stroke-linejoin:round;stroke:rgb(29.019608%,54.901961%,61.568627%);stroke-opacity:1;stroke-miterlimit:4;" d="M 224.879286 113.27022 C 224.879286 142.365017 190.706647 165.942598 148.519221 165.942598 C 106.340944 165.942598 72.159155 142.365017 72.159155 113.27022 C 72.159155 84.188047 106.340944 60.610467 148.519221 60.610467 C 190.706647 60.610467 224.879286 84.188047 224.879286 113.27022 Z M 224.879286 113.27022 " transform="matrix(0.426945,0,0,0.618802,-15.081442,-21.541008)"/>
<path style="fill:none;stroke-width:2.691718;stroke-linecap:round;stroke-linejoin:round;stroke:rgb(29.019608%,54.901961%,61.568627%);stroke-opacity:1;stroke-miterlimit:4;" d="M 224.890211 113.265874 C 224.890211 142.353475 190.702169 165.941243 148.516067 165.941243 C 106.343274 165.941243 72.155231 142.353475 72.155231 113.265874 C 72.155231 84.178273 106.343274 60.599687 148.516067 60.599687 C 190.702169 60.599687 224.890211 84.178273 224.890211 113.265874 Z M 224.890211 113.265874 " transform="matrix(0.293528,0,0,0.425439,4.734464,0.363061)"/>
<path style=" stroke:none;fill-rule:nonzero;fill:rgb(29.019608%,54.901961%,61.568627%);fill-opacity:1;" d="M 30.253906 42.304688 C 30.253906 44.175781 28.734375 45.699219 26.855469 45.699219 C 24.984375 45.699219 23.457031 44.175781 23.457031 42.304688 C 23.457031 40.425781 24.984375 38.910156 26.855469 38.910156 C 28.734375 38.910156 30.253906 40.425781 30.253906 42.304688 Z M 30.253906 42.304688 "/>
<path style=" stroke:none;fill-rule:nonzero;fill:rgb(29.019608%,54.901961%,61.568627%);fill-opacity:1;" d="M 70.855469 37.832031 C 70.855469 39.703125 69.339844 41.230469 67.460938 41.230469 C 65.589844 41.230469 64.0625 39.703125 64.0625 37.832031 C 64.0625 35.953125 65.589844 34.4375 67.460938 34.4375 C 69.339844 34.4375 70.855469 35.953125 70.855469 37.832031 Z M 70.855469 37.832031 "/>
<path style=" stroke:none;fill-rule:nonzero;fill:rgb(29.019608%,54.901961%,61.568627%);fill-opacity:1;" d="M 52.609375 16.375 C 52.609375 18.253906 51.09375 19.773438 49.214844 19.773438 C 47.34375 19.773438 45.824219 18.253906 45.824219 16.375 C 45.824219 14.496094 47.34375 12.980469 49.214844 12.980469 C 51.09375 12.980469 52.609375 14.496094 52.609375 16.375 Z M 52.609375 16.375 "/>
<path style=" stroke:none;fill-rule:nonzero;fill:rgb(29.019608%,54.901961%,61.568627%);fill-opacity:1;" d="M 32.40625 74.839844 C 32.40625 76.71875 30.878906 78.238281 29.007812 78.238281 C 27.128906 78.238281 25.609375 76.71875 25.609375 74.839844 C 25.609375 72.96875 27.128906 71.445312 29.007812 71.445312 C 30.878906 71.445312 32.40625 72.96875 32.40625 74.839844 Z M 32.40625 74.839844 "/>
<path style=" stroke:none;fill-rule:nonzero;fill:rgb(29.019608%,54.901961%,61.568627%);fill-opacity:1;" d="M 69.25 76.269531 C 69.25 78.148438 67.726562 79.664062 65.855469 79.664062 C 63.976562 79.664062 62.457031 78.148438 62.457031 76.269531 C 62.457031 74.398438 63.976562 72.882812 65.855469 72.882812 C 67.726562 72.882812 69.25 74.398438 69.25 76.269531 Z M 69.25 76.269531 "/>
</g>
</svg>
