
<svg xmlns="http://www.w3.org/2000/svg" xmlns:xlink="http://www.w3.org/1999/xlink" width="96px" height="96px" viewBox="0 0 96 96" version="1.1">
<g id="surface1">
<path style=" stroke:none;fill-rule:nonzero;fill:rgb(24.313725%,80.392157%,96.470588%);fill-opacity:1;" d="M 3.519531 9.472656 C 2.695312 9.472656 2.035156 10.136719 2.035156 10.957031 L 2.035156 85.09375 C 2.035156 85.914062 2.695312 86.574219 3.519531 86.574219 L 92.480469 86.574219 C 93.304688 86.574219 93.964844 85.914062 93.964844 85.09375 L 93.964844 10.957031 C 93.964844 10.136719 93.304688 9.472656 92.480469 9.472656 Z M 3.519531 9.472656 "/>
<path style=" stroke:none;fill-rule:nonzero;fill:rgb(0%,33.333333%,83.137255%);fill-opacity:1;" d="M 2.035156 9.777344 L 2.035156 16.238281 C 2.035156 17.429688 2.695312 18.390625 3.519531 18.390625 L 92.480469 18.390625 C 93.304688 18.390625 93.964844 17.429688 93.964844 16.238281 L 93.964844 9.777344 Z M 2.035156 9.777344 "/>
<path style=" stroke:none;fill-rule:nonzero;fill:rgb(100%,100%,100%);fill-opacity:1;" d="M 89.515625 13.128906 C 89.515625 12.71875 89.183594 12.390625 88.773438 12.390625 C 88.363281 12.390625 88.035156 12.71875 88.035156 13.128906 C 88.035156 13.539062 88.363281 13.871094 88.773438 13.871094 C 89.183594 13.871094 89.515625 13.539062 89.515625 13.128906 Z M 89.515625 13.128906 "/>
<path style=" stroke:none;fill-rule:nonzero;fill:rgb(100%,100%,100%);fill-opacity:1;" d="M 85.066406 13.128906 C 85.066406 12.71875 84.734375 12.390625 84.328125 12.390625 C 83.917969 12.390625 83.585938 12.71875 83.585938 13.128906 C 83.585938 13.539062 83.917969 13.871094 84.328125 13.871094 C 84.734375 13.871094 85.066406 13.539062 85.066406 13.128906 Z M 85.066406 13.128906 "/>
<path style=" stroke:none;fill-rule:nonzero;fill:rgb(100%,100%,100%);fill-opacity:1;" d="M 80.621094 13.128906 C 80.621094 12.71875 80.289062 12.390625 79.878906 12.390625 C 79.46875 12.390625 79.136719 12.71875 79.136719 13.128906 C 79.136719 13.539062 79.46875 13.871094 79.878906 13.871094 C 80.289062 13.871094 80.621094 13.539062 80.621094 13.128906 Z M 80.621094 13.128906 "/>
<path style=" stroke:none;fill-rule:nonzero;fill:rgb(65.098039%,90.588235%,95.294118%);fill-opacity:1;" d="M 2.035156 10.90625 C 2.035156 10.085938 2.695312 9.425781 3.519531 9.425781 L 92.480469 9.425781 C 93.304688 9.425781 93.964844 10.085938 93.964844 10.90625 Z M 2.035156 10.90625 "/>
<path style=" stroke:none;fill-rule:nonzero;fill:rgb(100%,100%,100%);fill-opacity:1;" d="M 5 13.128906 C 5 12.71875 4.667969 12.390625 4.257812 12.390625 C 3.851562 12.390625 3.519531 12.71875 3.519531 13.128906 C 3.519531 13.539062 3.851562 13.871094 4.257812 13.871094 C 4.667969 13.871094 5 13.539062 5 13.128906 Z M 5 13.128906 "/>
<path style=" stroke:none;fill-rule:nonzero;fill:rgb(100%,100%,100%);fill-opacity:1;" d="M 7.964844 13.128906 C 7.964844 12.71875 7.636719 12.390625 7.226562 12.390625 C 6.816406 12.390625 6.484375 12.71875 6.484375 13.128906 C 6.484375 13.539062 6.816406 13.871094 7.226562 13.871094 C 7.636719 13.871094 7.964844 13.539062 7.964844 13.128906 Z M 7.964844 13.128906 "/>
<path style=" stroke:none;fill-rule:nonzero;fill:rgb(80%,80%,80%);fill-opacity:1;" d="M 17.503906 23.207031 C 16.941406 23.207031 16.480469 23.722656 16.386719 24.40625 L 20.839844 24.40625 C 20.75 23.722656 20.285156 23.207031 19.722656 23.207031 Z M 17.503906 23.207031 "/>
<path style=" stroke:none;fill-rule:nonzero;fill:rgb(14.509804%,68.235294%,87.45098%);fill-opacity:1;" d="M 11.464844 24.597656 L 20.875 24.597656 C 21.621094 24.597656 22.226562 25.199219 22.226562 25.945312 L 22.226562 30.671875 C 22.226562 31.417969 21.621094 32.023438 20.875 32.023438 L 11.464844 32.023438 C 10.71875 32.023438 10.117188 31.417969 10.117188 30.671875 L 10.117188 25.945312 C 10.117188 25.199219 10.71875 24.597656 11.464844 24.597656 Z M 11.464844 24.597656 "/>
<path style=" stroke:none;fill-rule:nonzero;fill:rgb(14.509804%,68.235294%,87.45098%);fill-opacity:1;" d="M 11.464844 26.328125 L 20.875 26.328125 C 21.621094 26.328125 22.226562 26.933594 22.226562 27.675781 L 22.226562 32.40625 C 22.226562 33.152344 21.621094 33.753906 20.875 33.753906 L 11.464844 33.753906 C 10.71875 33.753906 10.117188 33.152344 10.117188 32.40625 L 10.117188 27.675781 C 10.117188 26.933594 10.71875 26.328125 11.464844 26.328125 Z M 11.464844 26.328125 "/>
<path style=" stroke:none;fill-rule:nonzero;fill:rgb(80%,80%,80%);fill-opacity:1;" d="M 17.503906 38.078125 C 16.941406 38.078125 16.480469 38.59375 16.386719 39.273438 L 20.839844 39.273438 C 20.75 38.59375 20.285156 38.078125 19.722656 38.078125 Z M 17.503906 38.078125 "/>
<path style=" stroke:none;fill-rule:nonzero;fill:rgb(14.509804%,68.235294%,87.45098%);fill-opacity:1;" d="M 11.464844 39.46875 L 20.875 39.46875 C 21.621094 39.46875 22.226562 40.070312 22.226562 40.816406 L 22.226562 45.546875 C 22.226562 46.289062 21.621094 46.894531 20.875 46.894531 L 11.464844 46.894531 C 10.71875 46.894531 10.117188 46.289062 10.117188 45.546875 L 10.117188 40.816406 C 10.117188 40.070312 10.71875 39.46875 11.464844 39.46875 Z M 11.464844 39.46875 "/>
<path style=" stroke:none;fill-rule:nonzero;fill:rgb(14.509804%,68.235294%,87.45098%);fill-opacity:1;" d="M 11.464844 41.199219 L 20.875 41.199219 C 21.621094 41.199219 22.226562 41.804688 22.226562 42.546875 L 22.226562 47.277344 C 22.226562 48.023438 21.621094 48.625 20.875 48.625 L 11.464844 48.625 C 10.71875 48.625 10.117188 48.023438 10.117188 47.277344 L 10.117188 42.546875 C 10.117188 41.804688 10.71875 41.199219 11.464844 41.199219 Z M 11.464844 41.199219 "/>
</g>
</svg>
