
<svg xmlns="http://www.w3.org/2000/svg" xmlns:xlink="http://www.w3.org/1999/xlink" width="96px" height="96px" viewBox="0 0 96 96" version="1.1">
<g id="surface1">
<path style="fill-rule:nonzero;fill:rgb(5.490196%,39.607843%,66.666667%);fill-opacity:1;stroke-width:6.998944;stroke-linecap:butt;stroke-linejoin:miter;stroke:rgb(6.666667%,20.392157%,31.372549%);stroke-opacity:1;stroke-miterlimit:4;" d="M 20.671875 6.677083 L 107.328125 6.677083 C 115.057292 6.677083 121.322917 12.942708 121.322917 20.671875 L 121.322917 107.328125 C 121.322917 115.057292 115.057292 121.322917 107.328125 121.322917 L 20.671875 121.322917 C 12.942708 121.322917 6.677083 115.057292 6.677083 107.328125 L 6.677083 20.671875 C 6.677083 12.942708 12.942708 6.677083 20.671875 6.677083 Z M 20.671875 6.677083 " transform="matrix(0.75,0,0,0.75,0,0)"/>
<path style=" stroke:none;fill-rule:nonzero;fill:rgb(100%,100%,100%);fill-opacity:1;" d="M 85.957031 44.554688 C 87.644531 91.238281 28.972656 83.863281 29.234375 59.578125 L 17.234375 59.578125 L 35.902344 40.160156 L 55.480469 59.578125 C 55.480469 59.578125 43.105469 59.578125 43.105469 59.578125 C 42.355469 75.980469 85.617188 80.78125 85.957031 44.554688 Z M 85.957031 44.554688 "/>
<path style=" stroke:none;fill-rule:nonzero;fill:rgb(100%,100%,100%);fill-opacity:1;" d="M 9.855469 51.445312 C 8.164062 4.761719 67.011719 12.136719 66.75 36.421875 L 78.75 36.421875 L 60.082031 55.839844 L 40.507812 36.421875 C 40.507812 36.421875 52.878906 36.421875 52.878906 36.421875 C 53.628906 20.019531 10.191406 15.21875 9.855469 51.445312 Z M 9.855469 51.445312 "/>
</g>
</svg>
