
<svg xmlns="http://www.w3.org/2000/svg" xmlns:xlink="http://www.w3.org/1999/xlink" width="96px" height="96px" viewBox="0 0 96 96" version="1.1">
<g id="surface1">
<path style="fill-rule:nonzero;fill:rgb(20%,20%,20%);fill-opacity:1;stroke-width:35.663811;stroke-linecap:butt;stroke-linejoin:miter;stroke:rgb(6.666667%,20.392157%,31.372549%);stroke-opacity:1;stroke-miterlimit:4;" d="M 99.21875 27.890625 L 540.78125 27.890625 C 580.182292 27.890625 612.109375 59.817708 612.109375 99.21875 L 612.109375 540.78125 C 612.109375 580.182292 580.182292 612.109375 540.78125 612.109375 L 99.21875 612.109375 C 59.817708 612.109375 27.890625 580.182292 27.890625 540.78125 L 27.890625 99.21875 C 27.890625 59.817708 59.817708 27.890625 99.21875 27.890625 Z M 99.21875 27.890625 " transform="matrix(0.15,0,0,0.15,0,0)"/>
<path style=" stroke:none;fill-rule:nonzero;fill:rgb(66.666667%,80%,100%);fill-opacity:1;" d="M 47.855469 48.808594 C 46.03125 48.808594 44.003906 48.617188 41.878906 48.207031 L 26.816406 79.90625 L 68.769531 80.40625 L 54.269531 48.171875 C 51.988281 48.671875 49.808594 48.808594 47.855469 48.808594 Z M 47.855469 48.808594 "/>
<path style=" stroke:none;fill-rule:nonzero;fill:rgb(20%,20%,20%);fill-opacity:1;" d="M 46.503906 67.125 C 45.363281 67.921875 45.082031 69.492188 45.878906 70.636719 C 46.675781 71.777344 48.25 72.058594 49.390625 71.261719 C 50.53125 70.464844 50.8125 68.894531 50.015625 67.75 C 49.21875 66.609375 47.648438 66.328125 46.503906 67.125 Z M 50.578125 61.207031 L 48.921875 62.363281 C 48.695312 62.523438 48.328125 62.515625 48.105469 62.351562 L 46.78125 61.363281 C 46.558594 61.199219 46.191406 61.195312 45.964844 61.351562 L 41.277344 64.621094 C 41.046875 64.78125 40.925781 65.128906 41.003906 65.394531 L 41.472656 66.976562 C 41.550781 67.242188 41.429688 67.589844 41.203125 67.75 L 39.546875 68.902344 C 38.789062 69.433594 38.601562 70.484375 39.128906 71.242188 L 43.457031 77.449219 C 43.984375 78.207031 45.039062 78.394531 45.796875 77.867188 L 56.828125 70.171875 C 57.589844 69.644531 57.777344 68.589844 57.246094 67.832031 L 52.917969 61.625 C 52.390625 60.867188 51.335938 60.679688 50.578125 61.207031 Z M 50.351562 72.640625 C 48.449219 73.96875 45.828125 73.5 44.5 71.597656 C 43.171875 69.695312 43.640625 67.074219 45.542969 65.746094 C 47.445312 64.417969 50.066406 64.882812 51.394531 66.789062 C 52.722656 68.691406 52.257812 71.3125 50.351562 72.640625 Z M 51.730469 63.886719 C 51.464844 64.074219 51.097656 64.007812 50.910156 63.742188 C 50.726562 63.476562 50.789062 63.109375 51.058594 62.921875 C 51.324219 62.738281 51.691406 62.804688 51.875 63.070312 C 52.0625 63.335938 51.996094 63.703125 51.730469 63.886719 Z M 51.730469 63.886719 "/>
<path style=" stroke:none;fill-rule:nonzero;fill:rgb(82.745098%,73.72549%,37.254902%);fill-opacity:1;" d="M 46.839844 45.566406 C 44.136719 45.445312 40.832031 44.8125 38.734375 44.019531 C 37.304688 43.480469 35.597656 42.546875 34.597656 41.765625 C 34.09375 41.375 33.710938 41.027344 33.738281 41 C 33.769531 40.96875 34.933594 41.0625 36.328125 41.203125 C 40.855469 41.664062 43.742188 41.773438 49.703125 41.695312 C 55.019531 41.625 57.433594 41.492188 60.867188 41.066406 C 61.535156 40.984375 62.113281 40.949219 62.152344 40.988281 C 62.296875 41.132812 60.515625 42.402344 59.195312 43.089844 C 55.875 44.816406 51.152344 45.765625 46.839844 45.566406 Z M 43.769531 39.242188 C 40.675781 39.148438 36.589844 38.863281 34.421875 38.589844 C 33.84375 38.515625 32.890625 38.398438 32.296875 38.328125 C 30.601562 38.128906 27.648438 37.597656 25.792969 37.15625 C 18.746094 35.488281 15.625 33.25 17.234375 31.027344 C 18.425781 29.382812 22.941406 27.632812 28.601562 26.628906 C 29.75 26.421875 30.300781 26.183594 30.300781 25.886719 C 30.300781 25.59375 31.28125 23.691406 31.9375 22.703125 C 34.582031 18.734375 39.253906 15.816406 44.417969 14.917969 C 46.480469 14.558594 49.421875 14.558594 51.484375 14.917969 C 57.851562 16.027344 63.144531 20.007812 65.410156 25.390625 L 65.824219 26.375 L 67.378906 26.652344 C 73.078125 27.671875 77.472656 29.375 78.667969 31.027344 C 80.007812 32.878906 78.109375 34.730469 73.246094 36.308594 C 69.511719 37.515625 63.695312 38.496094 57.296875 38.988281 C 55.640625 39.117188 47.863281 39.402344 47.234375 39.359375 C 47.089844 39.347656 45.53125 39.296875 43.769531 39.242188 Z M 49.644531 30.980469 C 50.523438 30.652344 51.5 29.710938 51.941406 28.757812 C 52.367188 27.847656 52.390625 26.386719 51.992188 25.324219 C 51.613281 24.3125 50.609375 23.304688 49.613281 22.929688 C 47.921875 22.296875 46.105469 22.667969 44.882812 23.890625 C 43.199219 25.574219 43.164062 28.273438 44.800781 29.957031 C 46.152344 31.339844 47.757812 31.679688 49.644531 30.980469 Z M 39.125 31.003906 C 39.972656 30.6875 40.980469 29.769531 41.425781 28.910156 C 41.871094 28.046875 41.929688 26.371094 41.546875 25.359375 C 41.21875 24.480469 40.3125 23.480469 39.441406 23.03125 C 38.574219 22.582031 36.902344 22.523438 35.878906 22.910156 C 34.242188 23.527344 33.179688 25.125 33.179688 26.960938 C 33.179688 28.707031 34.148438 30.246094 35.691406 30.949219 C 36.617188 31.367188 38.085938 31.390625 39.125 31.003906 Z M 60.210938 30.953125 C 61.152344 30.515625 62.113281 29.5 62.453125 28.59375 C 62.847656 27.53125 62.828125 26.074219 62.398438 25.160156 C 61.960938 24.21875 60.949219 23.257812 60.039062 22.917969 C 58.421875 22.3125 56.582031 22.675781 55.394531 23.832031 C 53.988281 25.203125 53.640625 27.25 54.515625 28.976562 C 54.90625 29.746094 55.953125 30.695312 56.742188 30.996094 C 57.769531 31.394531 59.308594 31.371094 60.210938 30.953125 Z M 60.210938 30.953125 "/>
</g>
</svg>
