
<svg xmlns="http://www.w3.org/2000/svg" xmlns:xlink="http://www.w3.org/1999/xlink" width="96px" height="96px" viewBox="0 0 96 96" version="1.1">
<g id="surface1">
<path style="fill-rule:nonzero;fill:rgb(98.431373%,94.901961%,94.901961%);fill-opacity:1;stroke-width:28.5;stroke-linecap:butt;stroke-linejoin:miter;stroke:rgb(11.372549%,81.176471%,96.078431%);stroke-opacity:1;stroke-miterlimit:4;" d="M 91.899375 45.619284 L 494.236441 45.619284 C 515.854271 45.619284 533.389256 63.130669 533.389256 84.748499 L 533.389256 498.272084 C 533.389256 519.889913 515.854271 537.401299 494.236441 537.401299 L 91.899375 537.401299 C 70.281545 537.401299 52.746559 519.889913 52.746559 498.272084 L 52.746559 84.748499 C 52.746559 63.130669 70.281545 45.619284 91.899375 45.619284 Z M 91.899375 45.619284 " transform="matrix(0.165517,0,0,0.165517,0,0)"/>
<path style=" stroke:none;fill-rule:evenodd;fill:rgb(26.27451%,31.372549%,36.078431%);fill-opacity:1;" d="M 68.308594 14.242188 C 71.203125 14.242188 73.550781 16.914062 73.550781 20.207031 L 73.550781 78.449219 C 73.550781 81.742188 71.203125 84.410156 68.308594 84.410156 C 65.410156 84.410156 63.0625 81.742188 63.0625 78.449219 L 63.0625 20.207031 C 63.0625 16.914062 65.410156 14.242188 68.308594 14.242188 Z M 68.308594 14.242188 "/>
<path style=" stroke:none;fill-rule:evenodd;fill:rgb(26.27451%,31.372549%,36.078431%);fill-opacity:1;" d="M 68.308594 16.113281 C 70.300781 16.113281 71.917969 18.152344 71.917969 20.671875 L 71.917969 78.027344 C 71.917969 80.542969 70.300781 82.585938 68.308594 82.585938 C 66.3125 82.585938 64.695312 80.542969 64.695312 78.027344 L 64.695312 20.671875 C 64.695312 18.152344 66.3125 16.113281 68.308594 16.113281 Z M 68.308594 16.113281 "/>
<path style=" stroke:none;fill-rule:nonzero;fill:rgb(100%,33.333333%,33.333333%);fill-opacity:1;" d="M 78.070312 34.378906 C 78.070312 39.542969 73.886719 43.726562 68.722656 43.726562 C 63.558594 43.726562 59.375 39.542969 59.375 34.378906 C 59.375 29.214844 63.558594 25.03125 68.722656 25.03125 C 73.886719 25.03125 78.070312 29.214844 78.070312 34.378906 Z M 78.070312 34.378906 "/>
<path style=" stroke:none;fill-rule:evenodd;fill:rgb(26.27451%,31.372549%,36.078431%);fill-opacity:1;" d="M 48.847656 14.242188 C 51.746094 14.242188 54.09375 16.914062 54.09375 20.207031 L 54.09375 78.449219 C 54.09375 81.742188 51.746094 84.410156 48.847656 84.410156 C 45.949219 84.410156 43.601562 81.742188 43.601562 78.449219 L 43.601562 20.207031 C 43.601562 16.914062 45.949219 14.242188 48.847656 14.242188 Z M 48.847656 14.242188 "/>
<path style=" stroke:none;fill-rule:evenodd;fill:rgb(26.27451%,31.372549%,36.078431%);fill-opacity:1;" d="M 48.847656 16.113281 C 50.84375 16.113281 52.460938 18.152344 52.460938 20.671875 L 52.460938 78.027344 C 52.460938 80.542969 50.84375 82.585938 48.847656 82.585938 C 46.851562 82.585938 45.234375 80.542969 45.234375 78.027344 L 45.234375 20.671875 C 45.234375 18.152344 46.851562 16.113281 48.847656 16.113281 Z M 48.847656 16.113281 "/>
<path style=" stroke:none;fill-rule:nonzero;fill:rgb(100%,33.333333%,33.333333%);fill-opacity:1;" d="M 58.050781 54.808594 C 58.050781 59.972656 53.867188 64.15625 48.703125 64.15625 C 43.539062 64.15625 39.355469 59.972656 39.355469 54.808594 C 39.355469 49.644531 43.539062 45.460938 48.703125 45.460938 C 53.867188 45.460938 58.050781 49.644531 58.050781 54.808594 Z M 58.050781 54.808594 "/>
<path style=" stroke:none;fill-rule:evenodd;fill:rgb(26.27451%,31.372549%,36.078431%);fill-opacity:1;" d="M 29.351562 14.242188 C 32.25 14.242188 34.597656 16.914062 34.597656 20.207031 L 34.597656 78.449219 C 34.597656 81.742188 32.25 84.410156 29.351562 84.410156 C 26.457031 84.410156 24.109375 81.742188 24.109375 78.449219 L 24.109375 20.207031 C 24.109375 16.914062 26.457031 14.242188 29.351562 14.242188 Z M 29.351562 14.242188 "/>
<path style=" stroke:none;fill-rule:evenodd;fill:rgb(26.27451%,31.372549%,36.078431%);fill-opacity:1;" d="M 29.351562 16.113281 C 31.347656 16.113281 32.964844 18.152344 32.964844 20.671875 L 32.964844 78.027344 C 32.964844 80.542969 31.347656 82.585938 29.351562 82.585938 C 27.359375 82.585938 25.742188 80.542969 25.742188 78.027344 L 25.742188 20.671875 C 25.742188 18.152344 27.359375 16.113281 29.351562 16.113281 Z M 29.351562 16.113281 "/>
<path style=" stroke:none;fill-rule:nonzero;fill:rgb(100%,33.333333%,33.333333%);fill-opacity:1;" d="M 38.558594 28.5 C 38.558594 33.664062 34.371094 37.847656 29.210938 37.847656 C 24.046875 37.847656 19.859375 33.664062 19.859375 28.5 C 19.859375 23.335938 24.046875 19.152344 29.210938 19.152344 C 34.371094 19.152344 38.558594 23.335938 38.558594 28.5 Z M 38.558594 28.5 "/>
</g>
</svg>
