
<svg xmlns="http://www.w3.org/2000/svg" xmlns:xlink="http://www.w3.org/1999/xlink" width="96px" height="96px" viewBox="0 0 96 96" version="1.1">
<g id="surface1">
<path style=" stroke:none;fill-rule:evenodd;fill:rgb(98.431373%,67.058824%,6.27451%);fill-opacity:1;" d="M 15.480469 5.289062 L 80.925781 5.289062 C 86.105469 5.289062 90.304688 9.488281 90.304688 14.667969 L 90.304688 81.738281 C 90.304688 86.917969 86.105469 91.117188 80.925781 91.117188 L 15.480469 91.117188 C 10.300781 91.117188 6.101562 86.917969 6.101562 81.738281 L 6.101562 14.667969 C 6.101562 9.488281 10.300781 5.289062 15.480469 5.289062 Z M 15.480469 5.289062 "/>
<path style=" stroke:none;fill-rule:nonzero;fill:rgb(0%,0%,0%);fill-opacity:1;" d="M 35.632812 38.726562 C 35.292969 39.433594 35.246094 40.25 35.503906 40.988281 C 35.765625 41.730469 36.3125 42.339844 37.019531 42.679688 L 39.652344 43.941406 C 41.117188 44.644531 42.882812 44.03125 43.59375 42.5625 L 43.855469 42.019531 L 44.1875 42.179688 C 45.652344 42.882812 47.414062 42.261719 48.125 40.796875 L 52.082031 32.628906 C 54.246094 33.84375 56.515625 35.492188 58.128906 37.660156 C 60.355469 35.628906 63.3125 34.398438 66.5625 34.398438 C 66.886719 34.398438 67.203125 34.414062 67.515625 34.4375 C 64.808594 29.492188 60.285156 26.132812 56.273438 23.96875 L 58.027344 20.34375 C 58.367188 19.632812 58.414062 18.816406 58.15625 18.078125 C 57.898438 17.335938 57.351562 16.726562 56.640625 16.382812 L 56.332031 16.234375 C 56.554688 15.773438 56.582031 15.242188 56.414062 14.757812 C 56.25 14.273438 55.890625 13.878906 55.429688 13.65625 L 50.949219 11.507812 C 49.984375 11.050781 48.832031 11.453125 48.367188 12.414062 L 48.03125 12.253906 C 46.5625 11.550781 44.800781 12.167969 44.089844 13.632812 L 34.195312 34.09375 C 33.855469 34.804688 33.804688 35.621094 34.066406 36.359375 C 34.324219 37.101562 34.871094 37.710938 35.578125 38.050781 L 35.890625 38.199219 Z M 35.632812 38.726562 "/>
<path style=" stroke:none;fill-rule:nonzero;fill:rgb(0%,0%,0%);fill-opacity:1;" d="M 58.144531 56.113281 C 57.636719 57.039062 57.039062 57.9375 56.300781 58.765625 C 54.503906 60.777344 52.101562 62.1875 49.070312 62.996094 L 49.070312 60.09375 L 51.53125 60.09375 L 51.53125 57.472656 C 51.53125 56.410156 50.667969 55.550781 49.601562 55.550781 L 28.839844 55.550781 C 27.773438 55.550781 26.914062 56.410156 26.914062 57.472656 L 26.914062 60.09375 L 31.269531 60.09375 L 31.269531 75.171875 C 31.238281 75.1875 31.207031 75.199219 31.179688 75.210938 C 26.441406 77.113281 22.53125 80.542969 20.136719 85.085938 L 58.375 85.085938 C 56.273438 81.113281 53.011719 78.003906 49.058594 76 C 48.96875 75.949219 48.878906 75.910156 48.789062 75.863281 C 48.882812 75.910156 48.976562 75.949219 49.070312 76 L 49.070312 72.847656 C 54.945312 71.773438 59.859375 69.203125 63.46875 65.15625 C 65.101562 63.328125 66.332031 61.34375 67.265625 59.339844 C 67.035156 59.351562 66.800781 59.359375 66.566406 59.359375 C 63.324219 59.359375 60.367188 58.128906 58.144531 56.113281 Z M 58.144531 56.113281 "/>
<path style=" stroke:none;fill-rule:nonzero;fill:rgb(0%,0%,0%);fill-opacity:1;" d="M 66.558594 36.796875 C 60.980469 36.796875 56.4375 41.320312 56.4375 46.878906 C 56.4375 52.441406 60.980469 56.957031 66.558594 56.957031 C 72.148438 56.957031 76.691406 52.441406 76.691406 46.878906 C 76.691406 41.320312 72.152344 36.796875 66.558594 36.796875 Z M 66.558594 36.796875 "/>
</g>
</svg>
