<?xml version="1.0" encoding="UTF-8"?>
<svg xmlns="http://www.w3.org/2000/svg" xmlns:xlink="http://www.w3.org/1999/xlink" width="512pt" height="512pt" viewBox="0 0 512 512" version="1.1">
<g id="surface1">
<path style="fill-rule:nonzero;fill:rgb(100%,100%,100%);fill-opacity:1;stroke-width:28.191782;stroke-linecap:butt;stroke-linejoin:miter;stroke:rgb(0.392157%,59.215686%,99.215686%);stroke-opacity:1;stroke-miterlimit:4;" d="M 81.480469 25.097656 L 430.519531 25.097656 C 461.660156 25.097656 486.902344 50.339844 486.902344 81.480469 L 486.902344 430.519531 C 486.902344 461.660156 461.660156 486.902344 430.519531 486.902344 L 81.480469 486.902344 C 50.339844 486.902344 25.097656 461.660156 25.097656 430.519531 L 25.097656 81.480469 C 25.097656 50.339844 50.339844 25.097656 81.480469 25.097656 Z M 81.480469 25.097656 "/>
<path style=" stroke:none;fill-rule:nonzero;fill:rgb(43.529412%,48.627451%,56.862745%);fill-opacity:1;" d="M 396.761719 315.457031 L 396.761719 304.101562 L 403.566406 298.921875 C 429.207031 275.941406 447.820312 246.652344 439.414062 212.011719 C 431.164062 180.632812 406.980469 158.574219 368.171875 147.035156 C 330.703125 135.894531 280.050781 135.195312 229.105469 145.109375 C 193.296875 152.082031 155.507812 164.582031 125.28125 179.460938 C 113.496094 185.261719 102.453125 190.765625 103.613281 185.964844 C 104.292969 183.164062 116.6875 175.566406 132.113281 167.265625 C 206.574219 127.207031 301.710938 113.191406 372.625 131.835938 C 415.4375 143.957031 452.4375 169.375 462.039062 214.660156 C 462.554688 217.347656 461.40625 213.433594 461.96875 214.613281 C 469.921875 254.886719 446.703125 289.40625 418.648438 315.238281 C 413.082031 320.347656 399.015625 331.316406 397.128906 331.316406 C 396.28125 331.316406 396.761719 324.0625 396.761719 315.457031 Z M 396.761719 315.457031 "/>
<path style=" stroke:none;fill-rule:nonzero;fill:rgb(0.392157%,59.215686%,99.215686%);fill-opacity:1;" d="M 391.050781 153.804688 C 391.050781 130.300781 371.820312 111.246094 348.101562 111.246094 C 324.378906 111.246094 305.152344 130.300781 305.152344 153.804688 C 305.152344 177.3125 324.378906 196.363281 348.101562 196.363281 C 371.820312 196.363281 391.050781 177.3125 391.050781 153.804688 Z M 391.050781 153.804688 "/>
<path style=" stroke:none;fill-rule:evenodd;fill:rgb(32.54902%,40.392157%,42.352941%);fill-opacity:1;" d="M 347.808594 152.101562 L 349.164062 153.285156 C 353.472656 157.058594 353.953125 164.308594 350.234375 169.480469 L 297.214844 243.195312 C 293.496094 248.363281 286.988281 249.496094 282.679688 245.722656 L 281.324219 244.535156 C 277.015625 240.761719 276.535156 233.511719 280.253906 228.339844 L 333.273438 154.628906 C 336.992188 149.457031 343.5 148.324219 347.808594 152.101562 Z M 347.808594 152.101562 "/>
<path style=" stroke:none;fill-rule:nonzero;fill:rgb(0.392157%,59.215686%,99.215686%);fill-opacity:1;" d="M 205.460938 144.527344 C 205.460938 115.277344 181.53125 91.566406 152.011719 91.566406 C 122.496094 91.566406 98.566406 115.277344 98.566406 144.527344 C 98.566406 173.773438 122.496094 197.484375 152.011719 197.484375 C 181.53125 197.484375 205.460938 173.773438 205.460938 144.527344 Z M 205.460938 144.527344 "/>
<path style=" stroke:none;fill-rule:evenodd;fill:rgb(32.54902%,40.392157%,42.352941%);fill-opacity:1;" d="M 156.375 148.996094 L 156.769531 148.5 C 160.71875 143.539062 167.464844 143.089844 171.84375 147.492188 L 239.5625 215.691406 C 243.9375 220.097656 244.285156 227.691406 240.335938 232.652344 L 239.941406 233.148438 C 235.992188 238.109375 229.246094 238.558594 224.871094 234.152344 L 157.148438 165.957031 C 152.773438 161.550781 152.429688 153.957031 156.375 148.996094 Z M 156.375 148.996094 "/>
<path style=" stroke:none;fill-rule:nonzero;fill:rgb(0.392157%,59.215686%,99.215686%);fill-opacity:1;" d="M 327.054688 265.796875 C 327.054688 233.898438 300.960938 208.035156 268.765625 208.035156 C 236.574219 208.035156 210.476562 233.898438 210.476562 265.796875 C 210.476562 297.695312 236.574219 323.554688 268.765625 323.554688 C 300.960938 323.554688 327.054688 297.695312 327.054688 265.796875 Z M 327.054688 265.796875 "/>
<path style=" stroke:none;fill-rule:evenodd;fill:rgb(32.54902%,40.392157%,42.352941%);fill-opacity:1;" d="M 249.945312 268.148438 C 252.996094 274.058594 250.675781 281.324219 244.765625 284.375 L 180.542969 317.523438 C 174.632812 320.574219 167.367188 318.257812 164.316406 312.347656 C 161.265625 306.433594 163.582031 299.167969 169.492188 296.117188 L 233.714844 262.96875 C 239.628906 259.917969 246.894531 262.234375 249.945312 268.148438 Z M 249.945312 268.148438 "/>
<path style=" stroke:none;fill-rule:evenodd;fill:rgb(32.54902%,40.392157%,42.352941%);fill-opacity:1;" d="M 284.480469 286.527344 L 285.925781 285.667969 C 291.5 282.355469 298.761719 284.195312 302.144531 289.78125 L 358.769531 383.25 C 362.152344 388.835938 360.378906 396.050781 354.804688 399.367188 L 353.359375 400.226562 C 347.785156 403.539062 340.523438 401.699219 337.140625 396.113281 L 280.515625 302.644531 C 277.132812 297.058594 278.90625 289.84375 284.480469 286.527344 Z M 284.480469 286.527344 "/>
<path style=" stroke:none;fill-rule:nonzero;fill:rgb(0.392157%,59.215686%,99.215686%);fill-opacity:1;" d="M 386.738281 369.304688 C 386.738281 342.019531 364.414062 319.898438 336.878906 319.898438 C 309.339844 319.898438 287.015625 342.019531 287.015625 369.304688 C 287.015625 396.59375 309.339844 418.714844 336.878906 418.714844 C 364.414062 418.714844 386.738281 396.59375 386.738281 369.304688 Z M 386.738281 369.304688 "/>
<path style=" stroke:none;fill-rule:nonzero;fill:rgb(43.529412%,48.627451%,56.862745%);fill-opacity:1;" d="M 57.992188 311.90625 C 52.535156 298.820312 49.46875 279.945312 50.757812 267.355469 C 52.671875 248.65625 59.890625 230.417969 72.132812 213.34375 C 76.832031 206.796875 91.851562 190.417969 93.164062 190.417969 C 93.554688 190.417969 93.875 192.246094 93.875 194.484375 C 93.875 198.039062 93.488281 199.011719 90.796875 202.238281 C 86.957031 206.839844 79.667969 218.042969 76.789062 223.761719 C 68.101562 241.035156 63.996094 261.542969 65.976562 277.757812 C 68.015625 294.425781 74.433594 307.832031 85.832031 319.246094 C 162.398438 376.898438 291.40625 354.230469 372.890625 315.589844 C 380.488281 311.910156 386.839844 308.902344 387.003906 308.902344 C 387.167969 308.902344 387.304688 315.339844 387.304688 323.207031 L 387.304688 337.511719 L 380.742188 340.816406 C 297.261719 378.890625 104.667969 415.109375 57.992188 311.90625 Z M 57.992188 311.90625 "/>
<path style=" stroke:none;fill-rule:nonzero;fill:rgb(0.392157%,59.215686%,99.215686%);fill-opacity:1;" d="M 199.890625 315.015625 C 199.890625 289.757812 179.230469 269.285156 153.738281 269.285156 C 128.25 269.285156 107.585938 289.757812 107.585938 315.015625 C 107.585938 340.273438 128.25 360.75 153.738281 360.75 C 179.230469 360.75 199.890625 340.273438 199.890625 315.015625 Z M 199.890625 315.015625 "/>
</g>
</svg>
