<?xml version="1.0" encoding="UTF-8"?>
<svg xmlns="http://www.w3.org/2000/svg" xmlns:xlink="http://www.w3.org/1999/xlink" width="512pt" height="512pt" viewBox="0 0 512 512" version="1.1">
<g id="surface1">
<path style="fill-rule:nonzero;fill:rgb(91.372549%,55.686275%,74.901961%);fill-opacity:1;stroke-width:28.191782;stroke-linecap:butt;stroke-linejoin:miter;stroke:rgb(59.607843%,4.705882%,34.117647%);stroke-opacity:1;stroke-miterlimit:4;" d="M 81.480469 25.097656 L 430.519531 25.097656 C 461.660156 25.097656 486.902344 50.339844 486.902344 81.480469 L 486.902344 430.519531 C 486.902344 461.660156 461.660156 486.902344 430.519531 486.902344 L 81.480469 486.902344 C 50.339844 486.902344 25.097656 461.660156 25.097656 430.519531 L 25.097656 81.480469 C 25.097656 50.339844 50.339844 25.097656 81.480469 25.097656 Z M 81.480469 25.097656 "/>
<path style=" stroke:none;fill-rule:nonzero;fill:rgb(77.647059%,21.568627%,42.745098%);fill-opacity:1;" d="M 254.765625 94.421875 C 165.105469 94.421875 92.421875 167.105469 92.421875 256.765625 C 92.421875 346.425781 165.105469 419.109375 254.765625 419.109375 C 344.425781 419.109375 417.109375 346.425781 417.109375 256.765625 C 417.109375 167.105469 344.425781 94.421875 254.765625 94.421875 Z M 254.765625 119.785156 C 289.410156 119.785156 321.011719 132.664062 345.132812 153.871094 C 327.382812 175.527344 302.679688 191.257812 273.632812 202.542969 C 257.933594 172.992188 240.625 146.386719 222.898438 123.589844 C 233.128906 121.152344 243.785156 119.785156 254.765625 119.785156 Z M 196.421875 132.785156 C 213.1875 155.457031 230.628906 181.441406 246.996094 211.265625 C 208.867188 221.949219 165.316406 226.867188 120.800781 228.386719 C 129.738281 185.984375 158.191406 150.796875 196.421875 132.785156 Z M 360.828125 169.886719 C 379.851562 193.089844 391.335938 222.773438 391.746094 255.023438 C 358.449219 248.871094 326.554688 246.773438 296.460938 250.898438 C 292.566406 241.617188 288.65625 232.621094 284.414062 223.789062 C 313.171875 211.660156 339.363281 194.375 360.828125 169.886719 Z M 258.410156 233.144531 C 262.160156 240.691406 265.808594 248.4375 269.351562 256.449219 C 225.515625 268.742188 186.246094 296.859375 152.664062 348.085938 C 130.964844 323.847656 117.785156 291.859375 117.785156 256.765625 C 117.785156 255.367188 117.902344 254.03125 117.945312 252.644531 C 162.972656 251.332031 212.644531 247.378906 258.410156 233.144531 Z M 326.902344 270.558594 C 346.652344 269.773438 367.757812 272.1875 390 278.644531 C 383.9375 316.503906 362.34375 349.03125 331.972656 369.804688 C 325.761719 335.792969 316.570312 303.253906 305.179688 272.777344 C 312.226562 271.660156 319.464844 270.855469 326.902344 270.558594 Z M 278.703125 278.960938 C 290.949219 310.179688 301.316406 344.613281 308.511719 382.804688 C 292 389.859375 273.851562 393.746094 254.765625 393.746094 C 222.890625 393.746094 193.535156 382.832031 170.261719 364.574219 C 189.25 332.3125 227.164062 295.273438 278.703125 278.960938 Z M 278.703125 278.960938 "/>
</g>
</svg>
