<?xml version="1.0" encoding="UTF-8"?>
<svg xmlns="http://www.w3.org/2000/svg" xmlns:xlink="http://www.w3.org/1999/xlink" width="512pt" height="512pt" viewBox="0 0 512 512" version="1.1">
<g id="surface1">
<path style="fill-rule:nonzero;fill:rgb(20%,20%,20%);fill-opacity:1;stroke-width:2.657871;stroke-linecap:butt;stroke-linejoin:miter;stroke:rgb(58.039216%,21.568627%,76.078431%);stroke-opacity:1;stroke-miterlimit:4;" d="M 187.783119 692.043091 L 220.690101 692.043091 C 223.626014 692.043091 226.005653 694.423096 226.005653 697.359009 L 226.005653 730.265991 C 226.005653 733.201904 223.626014 735.581543 220.690101 735.581543 L 187.783119 735.581543 C 184.847206 735.581543 182.467201 733.201904 182.467201 730.265991 L 182.467201 697.359009 C 182.467201 694.423096 184.847206 692.043091 187.783119 692.043091 Z M 187.783119 692.043091 " transform="matrix(10.666667,0,0,10.666667,-1922.52384,-7358)"/>
<path style=" stroke:none;fill-rule:evenodd;fill:rgb(83.529412%,50.196078%,100%);fill-opacity:1;" d="M 212.835938 82.183594 C 168.988281 93.933594 130.269531 123.664062 107.59375 162.96875 C 84.917969 202.273438 78.554688 250.671875 90.300781 294.515625 C 102.050781 338.355469 131.761719 377.085938 171.050781 399.789062 C 175.824219 402.546875 180.722656 405.054688 185.738281 407.328125 C 153.253906 384.101562 128.960938 349.472656 118.613281 310.859375 C 106.867188 267.019531 113.234375 218.621094 135.90625 179.316406 C 158.585938 140.015625 197.300781 110.28125 241.148438 98.53125 C 279.722656 88.191406 321.820312 91.894531 358.171875 108.378906 C 353.734375 105.203125 349.160156 102.214844 344.429688 99.488281 C 305.101562 76.792969 256.683594 70.433594 212.835938 82.183594 Z M 212.835938 82.183594 "/>
<path style="fill-rule:nonzero;fill:rgb(100%,100%,100%);fill-opacity:1;stroke-width:0.399275;stroke-linecap:butt;stroke-linejoin:miter;stroke:rgb(58.039216%,21.568627%,76.078431%);stroke-opacity:1;stroke-miterlimit:4;" d="M 201.308021 704.623169 L 200.273475 703.05542 L 199.345497 704.688354 L 199.322792 702.810059 L 197.659095 703.682373 L 198.655555 702.090088 L 196.784584 701.924194 L 198.483436 701.123291 L 196.999183 699.97229 L 198.861366 700.217285 L 198.235145 698.446655 L 199.669227 699.65918 L 200.099891 697.831055 L 200.650673 699.626587 L 202.001258 698.321411 L 201.49369 700.129761 L 203.335731 699.761719 L 201.930946 701.008667 L 203.679603 701.694946 L 201.823646 701.984619 L 202.923744 703.507324 L 201.205848 702.747437 Z M 201.308021 704.623169 " transform="matrix(10.666667,0,0,10.666667,-1922.52384,-7358)"/>
</g>
</svg>
