<!-- color: #214152 -->
<svg xmlns="http://www.w3.org/2000/svg" xmlns:xlink="http://www.w3.org/1999/xlink" width="512px" height="512px" viewBox="0 0 512 512" version="1.1">
<defs>
<clipPath id="clip1">
  <path d="M 122 119 L 394 119 L 394 391 L 122 391 Z M 122 119 "/>
</clipPath>
<clipPath id="clip2">
  <path d="M 497.3125 254.96875 C 497.3125 387.128906 390.148438 494.171875 258.109375 494.171875 C 126.066406 494.171875 18.902344 387.128906 18.902344 254.96875 C 18.902344 122.808594 126.066406 15.765625 258.109375 15.765625 C 390.148438 15.765625 497.3125 122.808594 497.3125 254.96875 Z M 497.3125 254.96875 "/>
</clipPath>
</defs>
<g id="surface1">
<path style="fill-rule:nonzero;fill:rgb(43.921569%,50.196078%,56.470588%);fill-opacity:1;stroke-width:6.815335;stroke-linecap:butt;stroke-linejoin:miter;stroke:rgb(29.019608%,68.235294%,90.980392%);stroke-opacity:1;stroke-miterlimit:4;" d="M 21.80957 8.178711 L 106.19043 8.178711 C 113.717773 8.178711 119.821289 14.282227 119.821289 21.80957 L 119.821289 106.19043 C 119.821289 113.717773 113.717773 119.821289 106.19043 119.821289 L 21.80957 119.821289 C 14.282227 119.821289 8.178711 113.717773 8.178711 106.19043 L 8.178711 21.80957 C 8.178711 14.282227 14.282227 8.178711 21.80957 8.178711 Z M 21.80957 8.178711 " transform="matrix(4,0,0,4,0,0)"/>
<g clip-path="url(#clip1)" clip-rule="nonzero">
<g clip-path="url(#clip2)" clip-rule="nonzero">
<path style=" stroke:none;fill-rule:evenodd;fill:rgb(97.647059%,97.647059%,97.647059%);fill-opacity:1;" d="M 122.90625 119.765625 C 156.09375 154.703125 141.675781 177.09375 159.753906 218.289062 C 176.652344 256.5625 213.460938 227.917969 238.691406 254.929688 C 213.460938 281.988281 176.527344 253.222656 159.628906 291.453125 C 141.429688 332.648438 155.9375 355.15625 122.78125 390.128906 C 157.757812 356.941406 180.261719 371.441406 221.457031 353.28125 C 259.730469 336.339844 231.089844 299.535156 258.097656 274.34375 C 284.910156 299.535156 256.433594 336.507812 294.621094 353.40625 C 335.816406 371.648438 358.15625 356.941406 393.144531 390.171875 C 359.957031 355.195312 374.621094 332.804688 356.378906 291.609375 C 339.480469 253.460938 302.632812 281.824219 277.441406 255 C 302.632812 228.148438 339.480469 256.539062 356.378906 218.359375 C 374.621094 177.164062 359.914062 154.785156 393.144531 119.796875 C 358.167969 153.027344 335.816406 138.363281 294.621094 156.605469 C 256.433594 173.464844 284.910156 210.4375 258.097656 235.625 C 231.035156 210.4375 259.679688 173.628906 221.457031 156.6875 C 180.261719 138.488281 157.757812 153.027344 122.78125 119.839844 M 122.90625 119.757812 "/>
</g>
</g>
</g>
</svg>
