<?xml version="1.0" encoding="UTF-8"?>
<svg xmlns="http://www.w3.org/2000/svg" xmlns:xlink="http://www.w3.org/1999/xlink" width="512pt" height="512pt" viewBox="0 0 512 512" version="1.1">
<g id="surface1">
<path style="fill-rule:nonzero;fill:rgb(96.470588%,76.078431%,61.960784%);fill-opacity:1;stroke-width:27.07575;stroke-linecap:butt;stroke-linejoin:miter;stroke:rgb(55.686275%,50.980392%,47.843137%);stroke-opacity:1;stroke-miterlimit:4;" d="M 88.386719 34.238281 L 423.613281 34.238281 C 453.519531 34.238281 477.761719 58.480469 477.761719 88.386719 L 477.761719 423.613281 C 477.761719 453.519531 453.519531 477.761719 423.613281 477.761719 L 88.386719 477.761719 C 58.480469 477.761719 34.238281 453.519531 34.238281 423.613281 L 34.238281 88.386719 C 34.238281 58.480469 58.480469 34.238281 88.386719 34.238281 Z M 88.386719 34.238281 "/>
<path style=" stroke:none;fill-rule:evenodd;fill:rgb(0%,0%,0%);fill-opacity:0.196078;" d="M 171.371094 48.917969 C 232.636719 138.132812 246.269531 219.417969 246.386719 295.960938 L 268.679688 295.351562 C 272.953125 161.070312 300.621094 110.566406 342.519531 46.308594 Z M 171.371094 48.917969 "/>
<path style=" stroke:none;fill-rule:nonzero;fill:rgb(100%,100%,100%);fill-opacity:1;" d="M 256.957031 287.675781 C 253.828125 287.675781 247.425781 287.726562 242.726562 287.785156 L 234.1875 287.894531 L 234.1875 297.195312 C 234.1875 297.195312 231.433594 300.28125 230.796875 302.191406 C 225.320312 318.582031 224.539062 337.113281 228.320312 353.976562 C 228.902344 356.566406 232.054688 361 232.054688 361 L 232.765625 348.785156 C 234.238281 340.074219 233.441406 330.589844 241.34375 330.589844 L 243.394531 330.589844 L 243.394531 322.082031 C 243.394531 315.074219 248.800781 309.433594 255.519531 309.433594 L 256.855469 309.433594 C 263.574219 309.433594 268.980469 315.074219 268.980469 322.082031 L 268.980469 330.589844 L 271.152344 330.589844 C 279.628906 330.753906 279.527344 345.089844 279.730469 348.785156 L 280.441406 361 C 280.441406 361 283.96875 356.136719 284.628906 353.285156 C 288.375 337.050781 287.855469 319.109375 282.4375 303.359375 C 281.933594 301.886719 279.730469 299.550781 279.730469 299.550781 L 279.730469 287.894531 L 271.191406 287.785156 C 266.492188 287.726562 260.089844 287.675781 256.957031 287.675781 Z M 255.59375 312.554688 C 249.734375 312.554688 245.015625 317.476562 245.015625 323.589844 L 245.015625 349.101562 C 245.015625 355.214844 249.734375 360.132812 255.59375 360.132812 L 256.761719 360.132812 C 262.621094 360.132812 267.335938 355.214844 267.335938 349.101562 L 267.335938 323.589844 C 267.335938 317.476562 262.621094 312.554688 256.761719 312.554688 Z M 243.34375 333.4375 C 242.902344 333.4375 241.300781 334.097656 239.785156 334.90625 L 237.035156 336.382812 L 237.035156 416.925781 L 237.863281 418.230469 L 239.011719 418.902344 L 273.515625 418.253906 L 274.828125 417.152344 L 275.128906 377.550781 L 275.507812 336.992188 L 273.078125 335.214844 C 271.742188 334.234375 270.128906 333.4375 269.496094 333.4375 L 268.980469 333.4375 L 268.980469 351.324219 C 268.980469 358.332031 263.574219 363.972656 256.855469 363.972656 L 255.519531 363.972656 C 248.800781 363.972656 243.394531 358.332031 243.394531 351.324219 L 243.394531 333.4375 Z M 255.597656 387.546875 C 262.160156 387.550781 267.480469 392.871094 267.480469 399.433594 C 267.480469 406 262.160156 411.320312 255.597656 411.320312 C 249.03125 411.320312 243.710938 406 243.710938 399.433594 C 243.710938 392.871094 249.03125 387.546875 255.597656 387.546875 Z M 255.597656 387.546875 "/>
<path style="fill:none;stroke-width:10.673623;stroke-linecap:butt;stroke-linejoin:miter;stroke:rgb(100%,100%,100%);stroke-opacity:1;stroke-dasharray:10.673624,10.673624;stroke-miterlimit:0;" d="M 188.976925 49.998949 C 269.86755 177.381762 255.3988 222.471605 262.789425 286.42473 " transform="matrix(1,0,0,1,-15.074581,-2.186449)"/>
<path style="fill:none;stroke-width:10.673623;stroke-linecap:butt;stroke-linejoin:miter;stroke:rgb(100%,100%,100%);stroke-opacity:1;stroke-dasharray:10.673624,10.673624;stroke-dashoffset:11;stroke-miterlimit:4;" d="M 283.226925 290.522386 C 289.906612 130.811449 324.308956 103.608324 352.949581 48.858324 " transform="matrix(1,0,0,1,-15.074581,-2.186449)"/>
</g>
</svg>
