
<svg xmlns="http://www.w3.org/2000/svg" xmlns:xlink="http://www.w3.org/1999/xlink" width="512px" height="512px" viewBox="0 0 512 512" version="1.1">
<g id="surface1">
<path style="fill-rule:nonzero;fill:rgb(70.196078%,70.196078%,70.196078%);fill-opacity:1;stroke-width:28.191782;stroke-linecap:butt;stroke-linejoin:miter;stroke:rgb(20%,20%,20%);stroke-opacity:1;stroke-miterlimit:4;" d="M 81.480469 25.097656 L 430.519531 25.097656 C 461.660156 25.097656 486.902344 50.339844 486.902344 81.480469 L 486.902344 430.519531 C 486.902344 461.660156 461.660156 486.902344 430.519531 486.902344 L 81.480469 486.902344 C 50.339844 486.902344 25.097656 461.660156 25.097656 430.519531 L 25.097656 81.480469 C 25.097656 50.339844 50.339844 25.097656 81.480469 25.097656 Z M 81.480469 25.097656 "/>
<path style="fill-rule:nonzero;fill:rgb(20%,20%,20%);fill-opacity:1;stroke-width:20;stroke-linecap:butt;stroke-linejoin:round;stroke:rgb(0%,0%,0%);stroke-opacity:1;stroke-miterlimit:6.8;" d="M 6.96278 266.752263 C 29.553059 261.113591 60.268314 253.430964 114.082294 252.002229 C 112.592546 249.027817 111.250247 245.946631 110.060482 242.773925 C 89.122654 242.590884 24.631297 245.565296 2.539296 251.020927 C 2.417268 251.061603 2.279988 251.071772 2.147792 251.071772 C 1.40546 251.071772 0.729226 250.563326 0.546185 249.815909 C 0.332638 248.941381 0.871591 248.041431 1.751203 247.817714 C 23.644911 242.407843 86.580422 239.408009 108.870717 239.463938 C 103.85235 224.70882 101.635523 207.808057 101.635523 188.939607 C 101.635523 155.422812 112.07393 142.782831 126.096886 124.921105 C 115.373748 86.721517 129.945826 60.612788 129.945826 60.612788 C 129.945826 60.612788 152.480176 55.945249 195.077826 86.446956 C 218.166382 76.557671 279.724003 75.733988 308.84782 84.250467 C 326.7248 72.43417 359.417912 55.665604 372.617183 60.35348 C 376.186478 66.109095 383.879274 82.867493 377.279638 119.704443 C 381.769221 127.778574 405.040818 144.989489 405.137423 193.632568 C 404.751004 211.570562 402.890089 226.717184 399.437738 239.530036 C 454.975351 239.062265 487.648125 243.643368 510.151968 247.787208 C 511.036665 247.970248 511.631548 248.824438 511.473929 249.719304 C 511.321395 250.502312 510.629908 251.071772 509.867238 251.071772 C 509.750296 251.071772 509.653691 251.061603 509.536748 251.051434 C 487.073581 246.887257 454.344878 242.321407 398.476774 242.829854 C 397.500556 246.083912 396.407396 249.170182 395.217631 252.114087 C 414.228447 252.749646 466.45099 254.783432 509.038471 267.809832 C 509.923167 268.079308 510.401107 268.999597 510.131631 269.879209 C 509.923167 270.580865 509.272356 271.038467 508.560531 271.038467 C 508.407997 271.038467 508.235125 271.023214 508.082591 270.967285 C 464.895143 257.768013 411.543849 255.952859 393.799066 255.368145 C 378.35246 289.296782 346.681326 301.9571 295.475677 307.224606 C 312.071371 317.668098 316.830431 330.770765 316.830431 366.224741 C 316.830431 401.678717 316.352491 406.437777 316.464349 414.588175 C 316.637221 427.970487 336.242919 434.376913 335.51584 438.683455 C 334.788762 442.984913 319.113355 442.293426 311.786641 439.730855 C 291.026769 432.500746 293.096147 415.233902 293.096147 415.233902 L 292.409744 367.826348 C 292.409744 367.826348 293.82831 342.312501 284.406796 342.312501 C 284.406796 347.442726 284.406796 401.551606 284.406796 419.906525 C 284.406796 436.766612 296.20784 441.891753 296.20784 448.125307 C 296.20784 458.838276 274.644622 447.108414 268.004311 440.422343 C 257.870972 430.253412 259.025145 408.690195 259.274284 391.636898 C 259.503085 375.168315 259.116666 339.144879 259.116666 339.144879 L 252.242468 339.292329 C 252.242468 339.292329 255.064347 417.979513 248.617245 432.317705 C 240.278722 450.723469 215.141126 457.058713 215.141126 448.67443 C 215.141126 443.030673 221.334004 444.825489 224.760934 432.185509 C 227.684501 421.431865 226.687946 341.209172 226.687946 341.209172 C 226.687946 341.209172 218.629069 345.9784 218.629069 360.997911 C 218.629069 367.877192 218.440944 407.154686 218.440944 418.848956 C 218.440944 433.55323 197.55396 441.927344 187.52231 441.927344 C 182.437845 441.927344 176.117855 441.678205 176.117855 438.983439 C 176.117855 432.185509 195.215106 428.194204 195.215106 414.044137 C 195.215106 401.775322 194.94563 370.216046 194.94563 370.216046 C 194.94563 370.216046 185.315652 371.868498 171.582512 371.868498 C 136.952219 371.868498 125.995196 349.766327 120.788704 337.400908 C 114.006027 321.298406 105.209902 313.727637 95.864655 307.682208 C 90.129378 303.970549 88.807417 299.58774 95.442645 298.342046 C 126.10197 292.566093 133.937131 333.104534 154.407188 339.556721 C 169.019941 344.173415 187.801956 342.180305 197.142119 336.134876 C 198.382728 323.749118 207.30088 313.046319 214.734368 307.407647 C 162.669444 302.409618 131.801656 284.329259 115.800843 255.261371 C 61.336052 256.568079 30.427587 264.296466 7.77121 269.955476 C 6.118759 270.367318 4.512068 270.76899 2.956222 271.165579 C 2.824026 271.191001 2.686745 271.20117 2.554549 271.20117 C 1.812217 271.20117 1.141068 270.702892 0.952942 269.955476 C 0.729226 269.075864 1.278348 268.170829 2.157961 267.952197 C 3.718891 267.565777 5.320498 267.174274 6.96278 266.752263 Z M 6.96278 266.752263 " transform="matrix(0.768272,0,0,0.768272,59.322569,59.288388)"/>
</g>
</svg>
