<?xml version="1.0" encoding="UTF-8"?>
<svg xmlns="http://www.w3.org/2000/svg" xmlns:xlink="http://www.w3.org/1999/xlink" width="512pt" height="512pt" viewBox="0 0 512 512" version="1.1">
<g id="surface1">
<path style="fill-rule:nonzero;fill:rgb(92.54902%,92.54902%,92.54902%);fill-opacity:1;stroke-width:27.276072;stroke-linecap:butt;stroke-linejoin:miter;stroke:rgb(0%,66.666667%,83.137255%);stroke-opacity:1;stroke-miterlimit:4;" d="M 91.363728 34.03923 L 429.066853 34.03923 C 459.195759 34.03923 483.617634 58.461105 483.617634 88.590012 L 483.617634 426.293137 C 483.617634 456.422043 459.195759 480.843918 429.066853 480.843918 L 91.363728 480.843918 C 61.234821 480.843918 36.812946 456.422043 36.812946 426.293137 L 36.812946 88.590012 C 36.812946 58.461105 61.234821 34.03923 91.363728 34.03923 Z M 91.363728 34.03923 " transform="matrix(1,0,0,1,-4.21529,-1.441574)"/>
<path style=" stroke:none;fill-rule:evenodd;fill:rgb(40.784314%,69.411765%,88.235294%);fill-opacity:1;" d="M 72.148438 53.714844 L 72.148438 72.414062 L 33.253906 72.414062 L 33.253906 75.457031 L 72.148438 75.457031 L 72.148438 133.03125 L 33.253906 133.03125 L 33.253906 136.070312 L 72.148438 136.070312 L 72.148438 193.644531 L 33.253906 193.644531 L 33.253906 196.683594 L 72.148438 196.683594 L 72.148438 254.277344 L 33.253906 254.277344 L 33.253906 257.296875 L 72.148438 257.296875 L 72.148438 314.894531 L 33.253906 314.894531 L 33.253906 317.933594 L 72.148438 317.933594 L 72.148438 375.507812 L 33.253906 375.507812 L 33.253906 378.546875 L 72.148438 378.546875 L 72.148438 436.121094 L 33.253906 436.121094 L 33.253906 439.160156 L 72.148438 439.160156 L 72.148438 457.863281 L 75.1875 457.863281 L 75.1875 439.160156 L 132.761719 439.160156 L 132.761719 457.863281 L 135.800781 457.863281 L 135.800781 439.160156 L 193.375 439.160156 L 193.375 457.863281 L 196.414062 457.863281 L 196.414062 439.160156 L 254.011719 439.160156 L 254.011719 457.863281 L 257.050781 457.863281 L 257.050781 439.160156 L 314.625 439.160156 L 314.625 457.863281 L 317.664062 457.863281 L 317.664062 439.160156 L 375.238281 439.160156 L 375.238281 457.863281 L 378.277344 457.863281 L 378.277344 439.160156 L 435.851562 439.160156 L 435.851562 457.863281 L 438.894531 457.863281 L 438.894531 439.160156 L 477.785156 439.160156 L 477.785156 436.121094 L 438.894531 436.121094 L 438.894531 378.546875 L 477.785156 378.546875 L 477.785156 375.507812 L 438.894531 375.507812 L 438.894531 317.933594 L 477.785156 317.933594 L 477.785156 314.894531 L 438.894531 314.894531 L 438.894531 257.296875 L 477.785156 257.296875 L 477.785156 254.277344 L 438.894531 254.277344 L 438.894531 196.683594 L 477.785156 196.683594 L 477.785156 193.644531 L 438.894531 193.644531 L 438.894531 136.070312 L 477.785156 136.070312 L 477.785156 133.03125 L 438.894531 133.03125 L 438.894531 75.457031 L 477.785156 75.457031 L 477.785156 72.414062 L 438.894531 72.414062 L 438.894531 53.714844 L 435.851562 53.714844 L 435.851562 72.414062 L 378.277344 72.414062 L 378.277344 53.714844 L 375.238281 53.714844 L 375.238281 72.414062 L 317.664062 72.414062 L 317.664062 53.714844 L 314.625 53.714844 L 314.625 72.414062 L 257.050781 72.414062 L 257.050781 53.714844 L 254.011719 53.714844 L 254.011719 72.414062 L 196.414062 72.414062 L 196.414062 53.714844 L 193.375 53.714844 L 193.375 72.414062 L 135.800781 72.414062 L 135.800781 53.714844 L 132.761719 53.714844 L 132.761719 72.414062 L 75.1875 72.414062 L 75.1875 53.714844 Z M 75.1875 75.457031 L 132.761719 75.457031 L 132.761719 133.03125 L 75.1875 133.03125 Z M 135.800781 75.457031 L 193.375 75.457031 L 193.375 133.03125 L 135.800781 133.03125 Z M 196.414062 75.457031 L 254.011719 75.457031 L 254.011719 133.03125 L 196.414062 133.03125 Z M 257.050781 75.457031 L 314.625 75.457031 L 314.625 133.03125 L 257.050781 133.03125 Z M 317.664062 75.457031 L 375.238281 75.457031 L 375.238281 133.03125 L 317.664062 133.03125 Z M 378.277344 75.457031 L 435.851562 75.457031 L 435.851562 133.03125 L 378.277344 133.03125 Z M 75.1875 136.070312 L 132.761719 136.070312 L 132.761719 193.644531 L 75.1875 193.644531 Z M 135.800781 136.070312 L 193.375 136.070312 L 193.375 193.644531 L 135.800781 193.644531 Z M 196.414062 136.070312 L 254.011719 136.070312 L 254.011719 193.644531 L 196.414062 193.644531 Z M 257.050781 136.070312 L 314.625 136.070312 L 314.625 193.644531 L 257.050781 193.644531 Z M 317.664062 136.070312 L 375.238281 136.070312 L 375.238281 193.644531 L 317.664062 193.644531 Z M 378.277344 136.070312 L 435.851562 136.070312 L 435.851562 193.644531 L 378.277344 193.644531 Z M 75.1875 196.683594 L 132.761719 196.683594 L 132.761719 254.277344 L 75.1875 254.277344 Z M 135.800781 196.683594 L 193.375 196.683594 L 193.375 254.277344 L 135.800781 254.277344 Z M 196.414062 196.683594 L 254.011719 196.683594 L 254.011719 254.277344 L 196.414062 254.277344 Z M 257.050781 196.683594 L 314.625 196.683594 L 314.625 254.277344 L 257.050781 254.277344 Z M 317.664062 196.683594 L 375.238281 196.683594 L 375.238281 254.277344 L 317.664062 254.277344 Z M 378.277344 196.683594 L 435.851562 196.683594 L 435.851562 254.277344 L 378.277344 254.277344 Z M 75.1875 257.296875 L 132.761719 257.296875 L 132.761719 314.894531 L 75.1875 314.894531 Z M 135.800781 257.296875 L 193.375 257.296875 L 193.375 314.894531 L 135.800781 314.894531 Z M 196.414062 257.296875 L 254.011719 257.296875 L 254.011719 314.894531 L 196.414062 314.894531 Z M 257.050781 257.296875 L 314.625 257.296875 L 314.625 314.894531 L 257.050781 314.894531 Z M 317.664062 257.296875 L 375.238281 257.296875 L 375.238281 314.894531 L 317.664062 314.894531 Z M 378.277344 257.296875 L 435.851562 257.296875 L 435.851562 314.894531 L 378.277344 314.894531 Z M 75.1875 317.933594 L 132.761719 317.933594 L 132.761719 375.507812 L 75.1875 375.507812 Z M 135.800781 317.933594 L 193.375 317.933594 L 193.375 375.507812 L 135.800781 375.507812 Z M 196.414062 317.933594 L 254.011719 317.933594 L 254.011719 375.507812 L 196.414062 375.507812 Z M 257.050781 317.933594 L 314.625 317.933594 L 314.625 375.507812 L 257.050781 375.507812 Z M 317.664062 317.933594 L 375.238281 317.933594 L 375.238281 375.507812 L 317.664062 375.507812 Z M 378.277344 317.933594 L 435.851562 317.933594 L 435.851562 375.507812 L 378.277344 375.507812 Z M 75.1875 378.546875 L 132.761719 378.546875 L 132.761719 436.121094 L 75.1875 436.121094 Z M 135.800781 378.546875 L 193.375 378.546875 L 193.375 436.121094 L 135.800781 436.121094 Z M 196.414062 378.546875 L 254.011719 378.546875 L 254.011719 436.121094 L 196.414062 436.121094 Z M 257.050781 378.546875 L 314.625 378.546875 L 314.625 436.121094 L 257.050781 436.121094 Z M 317.664062 378.546875 L 375.238281 378.546875 L 375.238281 436.121094 L 317.664062 436.121094 Z M 378.277344 378.546875 L 435.851562 378.546875 L 435.851562 436.121094 L 378.277344 436.121094 Z M 378.277344 378.546875 "/>
<path style=" stroke:none;fill-rule:nonzero;fill:rgb(13.333333%,21.176471%,33.72549%);fill-opacity:1;" d="M 443.34375 174.835938 C 311.140625 251.386719 179.984375 328.792969 66.851562 394.453125 C 199.421875 394.453125 329.644531 394.453125 443.34375 394.453125 C 443.34375 317.621094 443.34375 241.035156 443.34375 174.835938 Z M 389.75 276.140625 L 389.75 354.558594 L 255.09375 354.558594 Z M 389.75 276.140625 "/>
<path style=" stroke:none;fill-rule:nonzero;fill:rgb(100%,100%,100%);fill-opacity:1;" d="M 422.113281 187.160156 L 418.457031 189.292969 L 424.863281 200.261719 L 428.515625 198.128906 Z M 407.488281 195.699219 L 403.828125 197.835938 L 410.234375 208.804688 L 413.890625 206.667969 Z M 392.859375 204.238281 L 389.203125 206.375 L 402.015625 228.3125 L 405.671875 226.179688 Z M 378.234375 212.777344 L 374.578125 214.914062 L 380.984375 225.882812 L 384.640625 223.75 Z M 363.609375 221.316406 L 359.953125 223.453125 L 366.355469 234.421875 L 370.015625 232.289062 Z M 348.984375 229.859375 L 345.328125 231.992188 L 358.136719 253.933594 L 361.792969 251.796875 Z M 334.355469 238.398438 L 330.699219 240.53125 L 337.105469 251.5 L 340.761719 249.367188 Z M 319.730469 246.9375 L 316.074219 249.074219 L 322.480469 260.042969 L 326.136719 257.90625 Z M 305.105469 255.476562 L 301.449219 257.613281 L 314.257812 279.550781 L 317.914062 277.417969 Z M 290.480469 264.015625 L 286.824219 266.152344 L 293.226562 277.121094 L 296.882812 274.988281 Z M 275.855469 272.554688 L 272.195312 274.691406 L 278.601562 285.660156 L 282.257812 283.527344 Z M 261.226562 281.097656 L 257.570312 283.230469 L 270.382812 305.171875 L 274.035156 303.035156 Z M 246.601562 289.636719 L 242.945312 291.769531 L 249.351562 302.738281 L 253.007812 300.605469 Z M 231.976562 298.175781 L 228.320312 300.3125 L 234.722656 311.28125 L 238.378906 309.144531 Z M 217.347656 306.714844 L 213.695312 308.851562 L 226.503906 330.789062 L 230.160156 328.65625 Z M 202.726562 315.253906 L 199.066406 317.390625 L 205.472656 328.359375 L 209.128906 326.226562 Z M 188.097656 323.792969 L 184.441406 325.929688 L 190.847656 336.898438 L 194.503906 334.765625 Z M 173.472656 332.335938 L 169.816406 334.46875 L 182.625 356.410156 L 186.28125 354.273438 Z M 158.847656 340.875 L 155.1875 343.007812 L 161.59375 353.976562 L 165.25 351.84375 Z M 144.21875 349.414062 L 140.5625 351.550781 L 146.96875 362.519531 L 150.625 360.382812 Z M 129.59375 357.953125 L 125.9375 360.089844 L 138.75 382.027344 L 142.402344 379.894531 Z M 114.96875 366.492188 L 111.3125 368.628906 L 117.714844 379.597656 L 121.375 377.464844 Z M 100.34375 375.03125 L 96.6875 377.167969 L 103.089844 388.136719 L 106.746094 386 Z M 100.34375 375.03125 "/>
</g>
</svg>
