<?xml version="1.0" encoding="UTF-8"?>
<svg xmlns="http://www.w3.org/2000/svg" xmlns:xlink="http://www.w3.org/1999/xlink" width="512pt" height="512pt" viewBox="0 0 512 512" version="1.1">
<g id="surface1">
<path style="fill-rule:evenodd;fill:rgb(16.078431%,50.196078%,72.54902%);fill-opacity:1;stroke-width:8.114148;stroke-linecap:butt;stroke-linejoin:miter;stroke:rgb(72.941176%,9.019608%,30.588235%);stroke-opacity:1;stroke-miterlimit:4;" d="M 20.551716 168.734967 L 114.914944 168.734967 C 122.288137 168.734967 128.265033 174.711863 128.265033 182.085056 L 128.265033 276.448284 C 128.265033 283.821477 122.288137 289.798373 114.914944 289.798373 L 20.551716 289.798373 C 13.178523 289.798373 7.201627 283.821477 7.201627 276.448284 L 7.201627 182.085056 C 7.201627 174.711863 13.178523 168.734967 20.551716 168.734967 Z M 20.551716 168.734967 " transform="matrix(3.779528,0,0,3.779528,0,-610.51974)"/>
<path style=" stroke:none;fill-rule:nonzero;fill:rgb(9.019608%,24.705882%,49.411765%);fill-opacity:1;" d="M 108.726562 71.246094 C 108.726562 64.929688 116.246094 58.296875 122.5625 58.296875 L 334.269531 58.296875 L 424.636719 148.136719 C 424.636719 148.136719 424.636719 331.769531 424.636719 409.097656 C 424.636719 415.195312 417.847656 422.085938 411.75 422.085938 C 326.441406 422.085938 108.726562 422.085938 108.726562 422.085938 Z M 108.726562 71.246094 "/>
<path style=" stroke:none;fill-rule:nonzero;fill:rgb(72.941176%,9.019608%,30.588235%);fill-opacity:1;" d="M 87.148438 103.867188 C 87.148438 96.90625 95.738281 89.925781 102.699219 89.925781 L 312.691406 89.925781 L 403.058594 179.761719 C 403.058594 179.761719 403.160156 353.421875 403.160156 437.402344 C 403.160156 443.542969 392.488281 453.710938 386.351562 453.710938 C 295.238281 453.710938 103.460938 453.710938 103.460938 453.710938 C 96.386719 453.710938 87.152344 447.210938 87.152344 440.136719 Z M 87.148438 103.867188 "/>
<path style=" stroke:none;fill-rule:nonzero;fill:rgb(100%,100%,100%);fill-opacity:1;" d="M 135.480469 366.429688 C 131.601562 366.429688 131.601562 354.789062 135.480469 354.789062 L 260.257812 354.789062 C 264.136719 354.789062 264.136719 366.429688 260.257812 366.429688 Z M 135.53125 319.882812 C 131.652344 319.882812 131.652344 308.238281 135.53125 308.238281 L 360.992188 308.238281 C 364.875 308.238281 364.875 319.882812 360.992188 319.882812 Z M 135.53125 273.335938 C 131.652344 273.335938 131.652344 261.691406 135.53125 261.691406 L 360.992188 261.691406 C 364.875 261.691406 364.875 273.335938 360.992188 273.335938 Z M 135.53125 226.761719 C 131.660156 226.761719 131.660156 215.144531 135.53125 215.144531 L 360.992188 215.144531 C 364.867188 215.144531 364.867188 226.761719 360.992188 226.761719 Z M 135.53125 226.761719 "/>
<path style=" stroke:none;fill-rule:nonzero;fill:rgb(86.666667%,40%,55.686275%);fill-opacity:1;" d="M 312.316406 89.941406 L 403.335938 180.121094 C 403.335938 180.121094 351.683594 180.457031 324.796875 180.121094 C 318.503906 180.011719 312.527344 172.253906 312.316406 165.964844 C 311.421875 139.328125 312.316406 89.941406 312.316406 89.941406 Z M 312.316406 89.941406 "/>
<path style=" stroke:none;fill-rule:nonzero;fill:rgb(28.235294%,40.784314%,60.784314%);fill-opacity:1;" d="M 334.242188 58.398438 L 424.914062 148.496094 C 424.914062 148.496094 373.261719 148.832031 346.375 148.496094 C 340.082031 148.382812 334.105469 140.625 333.894531 134.339844 C 333 107.699219 334.242188 58.398438 334.242188 58.398438 Z M 334.242188 58.398438 "/>
</g>
</svg>
