<svg height="512pt" viewBox="0 0 512 512" width="512pt" xmlns="http://www.w3.org/2000/svg"><path d="m26.593863 935.932092h79.147437c7.060959 0 12.784608 5.723649 12.784608 12.784608v79.147437c0 7.060959-5.723649 12.785551-12.784608 12.785551h-79.147437c-7.060959 0-12.785551-5.724592-12.785551-12.785551v-79.147437c0-7.060959 5.724592-12.784608 12.785551-12.784608zm0 0" fill="#808080" stroke="#37353a" stroke-width="6.392664" transform="matrix(4.141944 0 0 4.141944 -9.654188 -3837.730284)"/><path d="m55.710938 48.390625h414.082031v71.871094h-414.082031zm0 0" fill="#37353a"/><path d="m347.464844 76.847656h26.839844v26.308594h-26.839844zm0 0" fill="#fff"/><path d="m396.722656 76.847656h26.835938v26.308594h-26.835938zm0 0" fill="#fff"/><path d="m298.210938 76.847656h26.835937v26.308594h-26.835937zm0 0" fill="#fff"/><path d="m339.230469 280.078125c0-38.253906-31.761719-69.261719-70.9375-69.261719-39.179688 0-70.941407 31.007813-70.941407 69.261719 0 38.253906 31.761719 69.261719 70.941407 69.261719 39.175781 0 70.9375-31.007813 70.9375-69.261719zm0 0" fill="#d2d2d2"/><path d="m253.082031 387.742188c-1.90625-.851563-3.933593-3.03125-4.839843-5.199219-.464844-1.117188-.929688-5.414063-1.328126-12.28125-.339843-5.808594-.78125-11.023438-.988281-11.589844-.273437-.75-1.605469-1.457031-4.925781-2.617187-2.503906-.875-6.277344-2.457032-8.382812-3.515626-2.105469-1.058593-4.285157-1.925781-4.84375-1.925781-.628907 0-4.070313 2.796875-8.976563 7.300781-4.375 4.015626-8.664063 7.660157-9.527344 8.105469-1.78125.910157-5.785156 1.058594-7.851562.289063-1.644531-.609375-19.039063-17.75-20.152344-19.855469-1.105469-2.089844-.988281-6 .253906-8.367187.5625-1.078126 4.242188-5.449219 8.171875-9.710938 4.234375-4.585938 7.148438-8.148438 7.148438-8.730469 0-.539062-.863282-2.703125-1.921875-4.808593-1.058594-2.101563-2.636719-5.863282-3.507813-8.355469-.871094-2.492188-1.9375-4.71875-2.375-4.941407-.433594-.226562-5.542968-.675781-11.351562-.992187-6.753906-.375-11.300782-.847656-12.617188-1.320313-2.507812-.898437-5.394531-3.972656-5.800781-6.175781-.167969-.894531-.234375-7.519531-.152344-14.722656l.148438-13.09375 1.507812-1.886719c2.660157-3.332031 3.910157-3.667968 16.613281-4.449218 7.191407-.441407 11.5625-.910157 11.925782-1.277344.316406-.320313 1.394531-2.789063 2.394531-5.492188 1.003906-2.703125 2.566406-6.398437 3.480469-8.214844.910156-1.816406 1.65625-3.703124 1.65625-4.191406 0-.488281-3.007813-4.1875-6.683594-8.21875-3.675781-4.03125-7.191406-8.003906-7.8125-8.828125-1.75-2.308593-2.339844-5.171875-1.648438-7.976562.523438-2.121094 1.480469-3.269531 9.46875-11.367188 4.886719-4.953125 9.707032-9.429687 10.710938-9.945312 2.324219-1.199219 6.023438-1.214844 8.332031-.039063.972657.496094 5.238281 4.089844 9.480469 7.984375 4.242188 3.894531 8 7.242188 8.351562 7.441407.371094.210937 2.65625-.589844 5.4375-1.910157 2.636719-1.25 6.585938-2.875 8.773438-3.609375 2.964844-1 4.113281-1.640625 4.523438-2.511718.300781-.644532.820312-5.925782 1.148437-11.734376.636719-11.167968 1.019531-12.933593 3.324219-15.339843 2.5625-2.675781 4.035156-2.894531 18.355468-2.734375l13.046876.148437 2.039062 1.347657c3.511719 2.328124 3.9375 3.773437 4.765625 16.203124.398437 6.015626.835937 11.40625.96875 11.976563.1875.808594 1.261719 1.398437 4.757813 2.621094 2.484374.867187 6.460937 2.554687 8.839843 3.746093 2.378907 1.195313 4.511719 2.171876 4.746094 2.171876.234375 0 4.050781-3.328126 8.484375-7.398438 4.429688-4.066406 8.878906-7.824219 9.878906-8.351562 2.371094-1.238282 5.898438-1.226563 8.488282.027343 1.230468.597657 5.410156 4.402344 10.660156 9.703125 9.011718 9.101563 9.722656 10.140625 9.726562 14.261719.007813 2.917969-1.292968 4.828125-9.039062 13.320313-4.210938 4.621093-7.65625 8.59375-7.65625 8.832031 0 .238281 1.097656 2.726562 2.441406 5.527343 1.34375 2.800782 2.945312 6.726563 3.5625 8.71875.761719 2.476563 1.429688 3.757813 2.101562 4.042969.539063.226563 5.96875.726563 12.066407 1.109375 12.101562.753906 14.050781 1.253906 16.078125 4.105469 1.917968 2.699219 2.140625 4.71875 1.976562 17.898437l-.160156 12.609376-1.480469 2.105468c-2.644531 3.757813-3.308593 3.949219-16.734375 4.824219-6.558594.429687-12.042968.894531-12.183594 1.035156-.140624.140625-.953124 2.238281-1.808593 4.660157-.855469 2.421874-2.535157 6.355468-3.734375 8.746093-1.199219 2.386719-2.113282 4.636719-2.03125 4.996094.082031.359375 3.355468 4.148437 7.273437 8.421875 3.917969 4.269531 7.621094 8.746094 8.226563 9.941406 1.292968 2.546875 1.410156 5.246094.347656 7.792969-.941406 2.25-16.890625 18.460937-19.484375 19.804687-2.167969 1.121094-6.117187 1.242188-8.386719.253907-.867187-.375-5.226562-4.023438-9.683594-8.101563-4.457031-4.078125-8.460937-7.417968-8.894531-7.417968-.433593 0-2.945312 1.003906-5.578125 2.238281-2.636718 1.230469-6.542968 2.816406-8.679687 3.519531-2.953125.972656-3.945313 1.527344-4.125 2.304688-.132813.5625-.566407 5.945312-.964844 11.960937-.882813 13.234375-1.386719 14.667969-5.996094 17-1.335937.679687-3.546875.792969-14.734375.777344-9.902344-.015625-13.53125-.179688-14.640625-.675781zm19.402344-58.753907c11.875-1.246093 21.796875-5.980469 30.246094-14.4375 6.4375-6.445312 10.589843-13.675781 13.09375-22.792969 1.566406-5.714843 1.558593-18.335937-.019531-24.121093-4.785157-17.558594-17.351563-30.484375-34.722657-35.714844-4.046875-1.21875-5.148437-1.335937-13.015625-1.367187-7.539062-.035157-9.109375.101562-12.773437 1.101562-18.28125 4.992188-32.261719 19.679688-36.082031 37.910156-3.433594 16.378906 1.585937 33.097656 13.542968 45.113282 6.261719 6.292968 14.382813 10.910156 23.183594 13.175781 2.511719.648437 6.074219 1.144531 11.144531 1.5625.40625.03125 2.835938-.160157 5.402344-.429688zm-12.179687-20.59375c-12.523438-3.398437-21.289063-14.058593-22.066407-26.835937-.542969-8.933594 2.332031-16.492188 8.675781-22.8125 11.554688-11.507813 30.003907-11.617188 41.414063-.242188 9.394531 9.367188 11.648437 22.695313 5.816406 34.390625-4.964843 9.960938-14.117187 15.839844-25.339843 16.277344-3.820313.152344-5.710938-.023437-8.5-.777344zm14.011718-12.386719c3.460938-1.292968 7.585938-5.128906 9.324219-8.664062 1.222656-2.496094 1.371094-3.324219 1.371094-7.707031 0-4.664063-.085938-5.070313-1.683594-8.015625-3.226563-5.949219-8.011719-8.964844-14.773437-9.304688-5.429688-.277344-8.679688.875-12.601563 4.457032-4.96875 4.542968-6.945313 10.859374-5.351563 17.089843 1.382813 5.394531 4.308594 9.058594 9.234376 11.554688 4.59375 2.328125 9.324218 2.519531 14.480468.589843zm0 0" fill="#d2d2d2"/><path d="m317.882812 280.621094c0 27.613281-22.386718 50-50 50-27.617187 0-50-22.386719-50-50 0-27.613282 22.382813-50 50-50 27.613282 0 50 22.386718 50 50zm0 0" fill="#808080"/></svg>