<?xml version="1.0" encoding="UTF-8"?>
<svg xmlns="http://www.w3.org/2000/svg" xmlns:xlink="http://www.w3.org/1999/xlink" width="512pt" height="512pt" viewBox="0 0 512 512" version="1.1">
<g id="surface1">
<path style="fill-rule:nonzero;fill:rgb(20%,20%,20%);fill-opacity:1;stroke-width:18.73;stroke-linecap:butt;stroke-linejoin:miter;stroke:rgb(90.196078%,90.196078%,90.196078%);stroke-opacity:1;stroke-miterlimit:4;" d="M 79.142555 31.498901 L 433.857445 31.498901 C 460.170456 31.498901 481.501099 52.829544 481.501099 79.142555 L 481.501099 433.857445 C 481.501099 460.170456 460.170456 481.501099 433.857445 481.501099 L 79.142555 481.501099 C 52.829544 481.501099 31.498901 460.170456 31.498901 433.857445 L 31.498901 79.142555 C 31.498901 52.829544 52.829544 31.498901 79.142555 31.498901 Z M 79.142555 31.498901 " transform="matrix(0.998051,0,0,0.998051,0,0)"/>
<path style=" stroke:none;fill-rule:nonzero;fill:rgb(0%,80%,100%);fill-opacity:1;" d="M 271.410156 377.308594 C 268.105469 373.136719 264.171875 359.582031 239.453125 267.207031 C 212.839844 167.734375 214.71875 173.925781 212.460938 178.257812 C 211.527344 180.046875 205.617188 200.546875 199.328125 223.816406 C 192.839844 247.808594 186.414062 267.292969 184.484375 268.832031 C 181.996094 270.8125 168.382812 271.542969 133.917969 271.542969 C 92.507812 271.542969 86.3125 271.097656 83.085938 267.871094 C 79.636719 264.421875 79.707031 263.960938 84.257812 260.277344 C 88.566406 256.792969 93.863281 256.359375 132.167969 256.359375 L 175.230469 256.359375 L 177.691406 247.136719 C 208.152344 133 209.660156 128.851562 217.628906 137.28125 C 219.195312 138.9375 227.96875 168.113281 237.132812 202.121094 C 278.316406 354.996094 274.15625 340.5625 276.40625 338.3125 C 277.070312 337.648438 282.414062 319.179688 288.277344 297.273438 C 294.144531 275.367188 300.113281 255.246094 301.539062 252.5625 C 304.128906 247.683594 304.195312 247.679688 362.265625 247.679688 C 417.480469 247.679688 420.511719 247.890625 422.640625 251.867188 C 424.332031 255.03125 424.046875 256.890625 421.476562 259.460938 C 418.570312 262.367188 410.332031 262.867188 365.074219 262.867188 C 335.925781 262.867188 312.078125 263.3125 312.078125 263.859375 C 312.078125 266.4375 283.625 370.851562 281.757812 375.136719 C 279.40625 380.523438 274.734375 381.503906 271.410156 377.308594 Z M 271.410156 377.308594 "/>
</g>
</svg>
