<?xml version="1.0" encoding="UTF-8"?>
<svg xmlns="http://www.w3.org/2000/svg" xmlns:xlink="http://www.w3.org/1999/xlink" width="512pt" height="512pt" viewBox="0 0 512 512" version="1.1">
<g id="surface1">
<path style="fill-rule:evenodd;fill:rgb(100%,100%,100%);fill-opacity:1;stroke-width:30.804852;stroke-linecap:butt;stroke-linejoin:miter;stroke:rgb(0%,40%,25.882353%);stroke-opacity:1;stroke-miterlimit:4;" d="M 76.878906 26.195312 L 435.121094 26.195312 C 463.113281 26.195312 485.804688 48.886719 485.804688 76.878906 L 485.804688 435.121094 C 485.804688 463.113281 463.113281 485.804688 435.121094 485.804688 L 76.878906 485.804688 C 48.886719 485.804688 26.195312 463.113281 26.195312 435.121094 L 26.195312 76.878906 C 26.195312 48.886719 48.886719 26.195312 76.878906 26.195312 Z M 76.878906 26.195312 "/>
<path style=" stroke:none;fill-rule:nonzero;fill:rgb(0%,0%,0%);fill-opacity:0.0980392;" d="M 428.183594 183.550781 C 425.910156 178.039062 423.351562 172.640625 420.5 167.351562 C 418.898438 164.359375 417.195312 161.386719 415.390625 158.472656 C 407.652344 145.902344 398.207031 134.027344 387.0625 122.863281 C 350.574219 86.328125 306.503906 68.046875 254.894531 68.046875 C 203.28125 68.046875 159.230469 86.328125 122.742188 122.863281 C 86.257812 159.402344 68.003906 203.515625 68.003906 255.199219 C 68.003906 306.882812 86.257812 351.015625 122.742188 387.554688 C 159.230469 424.089844 203.28125 442.351562 254.894531 442.351562 C 306.503906 442.351562 350.574219 424.089844 387.0625 387.554688 C 407.15625 367.410156 421.726562 344.96875 430.753906 320.246094 C 438.101562 300.082031 441.78125 278.414062 441.78125 255.199219 C 441.78125 237.394531 439.625 220.484375 435.289062 204.464844 C 434.792969 202.660156 434.28125 200.859375 433.746094 199.074219 C 432.121094 193.800781 430.261719 188.625 428.183594 183.550781 Z M 428.183594 183.550781 "/>
<path style=" stroke:none;fill-rule:nonzero;fill:rgb(5.882353%,63.137255%,37.254902%);fill-opacity:1;" d="M 347.667969 91.246094 C 336.324219 84.800781 324.386719 79.6875 311.875 75.898438 C 294.609375 70.6875 276.140625 68.070312 256.578125 68.070312 C 255.550781 68.070312 254.519531 68.070312 253.390625 68.089844 C 211.957031 68.683594 175.410156 81.234375 143.773438 105.777344 C 142.585938 106.707031 141.398438 107.660156 140.25 108.59375 C 136.507812 111.625 132.84375 114.835938 129.261719 118.207031 C 127.636719 119.714844 126.035156 121.28125 124.429688 122.886719 C 87.941406 159.425781 69.691406 203.535156 69.691406 255.21875 C 69.691406 306.90625 87.941406 351.035156 124.429688 387.574219 C 151.375 414.558594 182.4375 431.566406 217.441406 438.585938 C 230.089844 441.121094 243.078125 442.371094 256.578125 442.371094 C 308.191406 442.371094 352.261719 424.113281 388.75 387.574219 C 390.351562 385.96875 391.917969 384.363281 393.421875 382.738281 C 396.785156 379.148438 399.992188 375.480469 403.042969 371.753906 C 403.953125 370.585938 404.902344 369.394531 405.835938 368.203125 C 416.644531 354.207031 425.117188 339.300781 431.253906 323.417969 C 437.984375 305.992188 441.945312 287.417969 443.113281 267.609375 C 443.351562 263.566406 443.46875 259.421875 443.46875 255.21875 C 443.46875 238.667969 441.609375 222.867188 437.808594 207.640625 C 437.371094 205.914062 436.878906 204.070312 436.363281 202.246094 C 436.144531 201.492188 435.925781 200.71875 435.648438 199.847656 C 434.878906 197.230469 433.964844 194.515625 433.015625 191.800781 C 430.460938 184.5625 427.414062 177.503906 423.851562 170.527344 C 422.34375 167.59375 420.703125 164.597656 418.980469 161.644531 C 410.890625 147.898438 400.8125 134.980469 388.75 122.886719 C 376 110.117188 362.320312 99.570312 347.667969 91.246094 Z M 347.667969 91.246094 "/>
<path style="fill:none;stroke-width:13.471823;stroke-linecap:round;stroke-linejoin:round;stroke:rgb(0%,40%,25.882353%);stroke-opacity:1;stroke-miterlimit:4;" d="M 255.703125 74.808594 C 205.734375 74.808594 163.089844 92.492188 127.753906 127.882812 C 92.414062 163.269531 74.753906 205.972656 74.753906 256.011719 C 74.753906 306.050781 92.414062 348.753906 127.753906 384.144531 C 163.089844 419.53125 205.734375 437.214844 255.703125 437.214844 C 305.675781 437.214844 348.316406 419.53125 383.65625 384.144531 C 418.996094 348.753906 436.65625 306.050781 436.65625 256.011719 C 436.65625 205.972656 418.988281 163.261719 383.65625 127.882812 C 348.316406 92.492188 305.675781 74.808594 255.703125 74.808594 Z M 255.703125 74.808594 "/>
<path style="fill-rule:nonzero;fill:rgb(5.882353%,63.137255%,37.254902%);fill-opacity:1;stroke-width:12.909188;stroke-linecap:round;stroke-linejoin:round;stroke:rgb(0%,40%,25.882353%);stroke-opacity:1;stroke-miterlimit:4;" d="M 255.699219 77.449219 C 255.417969 77.449219 255.132812 77.453125 254.851562 77.453125 C 133.28125 193.050781 131.808594 312.066406 250.429688 434.503906 C 252.179688 434.550781 253.933594 434.574219 255.699219 434.574219 Z M 255.699219 77.449219 "/>
<path style="fill-rule:nonzero;fill:rgb(5.882353%,63.137255%,37.254902%);fill-opacity:1;stroke-width:12.909188;stroke-linecap:round;stroke-linejoin:round;stroke:rgb(0%,40%,25.882353%);stroke-opacity:1;stroke-miterlimit:4;" d="M 255.699219 77.449219 L 255.699219 434.574219 C 257.398438 434.574219 259.089844 434.550781 260.769531 434.507812 C 379.351562 312.066406 377.84375 193.046875 256.253906 77.453125 C 256.066406 77.453125 255.882812 77.449219 255.699219 77.449219 Z M 255.699219 77.449219 "/>
<path style=" stroke:none;fill-rule:nonzero;fill:rgb(100%,78.431373%,19.215686%);fill-opacity:1;" d="M 318.53125 99.976562 C 315.878906 103.074219 314.703125 106.648438 315.007812 110.703125 L 315.007812 110.710938 C 320.964844 187.753906 303.40625 244.277344 262.324219 280.277344 C 219.484375 316.082031 172.730469 332.558594 81.265625 326.90625 C 85.210938 336.851562 90.136719 346.066406 95.585938 354.890625 C 196.425781 353.203125 234.371094 343.777344 281.449219 302.699219 C 330.273438 261.800781 351.257812 197.050781 344.386719 108.433594 C 344.070312 104.386719 342.367188 101.039062 339.28125 98.382812 C 336.171875 95.722656 332.609375 94.554688 328.570312 94.871094 C 324.53125 95.167969 321.183594 96.875 318.53125 99.988281 "/>
<path style=" stroke:none;fill-rule:nonzero;fill:rgb(97.647059%,87.058824%,41.176471%);fill-opacity:1;" d="M 314.621094 77.195312 L 314.621094 264.40625 L 274.316406 224.035156 C 271.445312 221.160156 267.960938 219.710938 263.902344 219.710938 C 259.84375 219.710938 256.359375 221.160156 253.488281 224.035156 C 250.617188 226.910156 249.171875 230.398438 249.171875 234.460938 C 249.171875 238.527344 250.617188 242.015625 253.488281 244.890625 L 318.9375 310.453125 C 321.808594 313.328125 325.292969 314.773438 329.351562 314.773438 C 329.609375 314.773438 329.886719 314.773438 330.144531 314.753906 C 333.867188 314.574219 337.074219 313.148438 339.765625 310.453125 L 405.234375 244.890625 C 408.105469 241.976562 409.550781 238.507812 409.550781 234.441406 C 409.53125 230.378906 408.085938 226.910156 405.214844 224.035156 C 402.324219 221.160156 398.859375 219.710938 394.804688 219.730469 C 390.746094 219.730469 387.28125 221.160156 384.410156 224.035156 L 344.082031 264.417969 L 344.082031 89.296875 C 334.636719 84.289062 324.78125 80.523438 314.621094 77.195312 Z M 314.621094 77.195312 "/>
</g>
</svg>
