<?xml version="1.0" encoding="UTF-8"?>
<svg xmlns="http://www.w3.org/2000/svg" xmlns:xlink="http://www.w3.org/1999/xlink" width="512pt" height="512pt" viewBox="0 0 512 512" version="1.1">
<g id="surface1">
<path style="fill-rule:nonzero;fill:rgb(80.392157%,11.372549%,19.215686%);fill-opacity:1;stroke-width:27.910587;stroke-linecap:butt;stroke-linejoin:miter;stroke:rgb(54.117647%,4.313725%,10.196078%);stroke-opacity:1;stroke-miterlimit:4;" d="M 83.21875 27.398438 L 428.78125 27.398438 C 459.609375 27.398438 484.601562 52.390625 484.601562 83.21875 L 484.601562 428.78125 C 484.601562 459.609375 459.609375 484.601562 428.78125 484.601562 L 83.21875 484.601562 C 52.390625 484.601562 27.398438 459.609375 27.398438 428.78125 L 27.398438 83.21875 C 27.398438 52.390625 52.390625 27.398438 83.21875 27.398438 Z M 83.21875 27.398438 "/>
<path style=" stroke:none;fill-rule:nonzero;fill:rgb(100%,100%,100%);fill-opacity:1;" d="M 193.316406 162.175781 C 159.839844 162.933594 126.910156 181.675781 110.640625 215.242188 C 86.6875 264.667969 106.5625 323.324219 155.195312 346.664062 C 162.652344 350.242188 173.875 353.902344 180.144531 354.765625 C 202.480469 357.84375 223.304688 353.621094 241.445312 342.375 C 253.378906 334.980469 266.394531 322.992188 266.394531 319.40625 C 266.394531 318.1875 263.820312 311.28125 260.640625 304.058594 L 254.855469 290.921875 L 251.925781 295.6875 C 246.304688 304.878906 232.511719 317.199219 222.246094 322.167969 C 213.335938 326.480469 209.433594 327.171875 194.335938 327.171875 C 178.667969 327.171875 175.570312 326.570312 165.746094 321.589844 C 152.109375 314.679688 139.757812 301.855469 133.476562 288.0625 C 129.332031 278.964844 128.710938 275.03125 128.710938 258.480469 C 128.710938 241.167969 129.210938 238.367188 134.125 228.359375 C 140.125 216.132812 152.914062 202.722656 164.214844 196.773438 C 175.929688 190.601562 193.851562 188.085938 206.660156 190.816406 C 232.027344 196.226562 247.285156 209.980469 259.148438 238.164062 C 287.75 306.140625 296.679688 324.765625 305.472656 334.699219 C 318.550781 349.476562 329.0625 353.753906 352.371094 353.792969 C 368.765625 353.820312 372.109375 353.214844 382.15625 348.449219 C 404.21875 337.980469 415.253906 320.257812 415.003906 295.6875 C 414.714844 267.195312 402.871094 254.941406 362.515625 241.332031 C 333.289062 231.472656 327.390625 226.566406 327.390625 212.195312 C 327.390625 197.785156 336.613281 188.84375 351.449219 188.84375 C 360.03125 188.84375 364.917969 190.976562 372.113281 197.898438 C 375.652344 201.300781 378.285156 202.363281 381.335938 201.542969 C 387.160156 199.972656 397.640625 193.148438 397.640625 190.921875 C 397.640625 186.324219 379.550781 170.253906 370.953125 167.230469 C 350.664062 160.09375 327.707031 164.898438 314.417969 179.042969 C 305.1875 188.867188 301.539062 198.511719 301.550781 212.90625 C 301.582031 239.742188 314.894531 253.21875 356.046875 267.980469 C 383.070312 277.675781 388.382812 282.53125 388.382812 297.5625 C 388.382812 315.390625 373.667969 328.125 353.015625 328.125 C 340.394531 328.125 333.839844 325.824219 326.777344 318.933594 C 320.148438 312.46875 316.347656 304.730469 295.9375 256.136719 C 276.425781 209.679688 270.625 199.160156 257.640625 186.875 C 239.390625 169.578125 216.21875 161.679688 193.3125 162.195312 "/>
</g>
</svg>
