
<svg xmlns="http://www.w3.org/2000/svg" xmlns:xlink="http://www.w3.org/1999/xlink" width="512px" height="512px" viewBox="0 0 512 512" version="1.1">
<defs>
<filter id="alpha" filterUnits="objectBoundingBox" x="0%" y="0%" width="100%" height="100%">
  <feColorMatrix type="matrix" in="SourceGraphic" values="0 0 0 0 1 0 0 0 0 1 0 0 0 0 1 0 0 0 1 0"/>
</filter>
<mask id="mask0">
  <g filter="url(#alpha)">
<rect x="0" y="0" width="512" height="512" style="fill:rgb(0%,0%,0%);fill-opacity:0.901961;stroke:none;"/>
  </g>
</mask>
<clipPath id="clip1">
  <rect width="512" height="512"/>
</clipPath>
<g id="surface6" clip-path="url(#clip1)">
<path style=" stroke:none;fill-rule:nonzero;fill:rgb(100%,86.27451%,66.27451%);fill-opacity:1;" d="M 257.34375 370.144531 C 255.578125 383.019531 255.453125 410.871094 252.234375 419.007812 C 249.023438 427.132812 240.316406 450.664062 236.230469 458.730469 C 234.792969 461.5625 233.4375 464.96875 232.046875 468.527344 L 224 467.46875 C 224.605469 466.148438 225.273438 464.847656 226.140625 463.582031 C 231.054688 456.511719 230.9375 445.351562 230.9375 445.351562 C 230.9375 445.351562 241.589844 419.175781 243.914062 410.984375 C 246.25 402.792969 243.421875 379.363281 244.742188 372.949219 C 246.074219 366.550781 248.964844 363.03125 254.257812 350.410156 C 259.550781 337.78125 254.441406 321.632812 253.945312 316.015625 C 253.441406 310.414062 253.066406 289.949219 251.671875 284.277344 C 250.292969 278.59375 240.84375 261.203125 240.441406 257.226562 C 240.046875 253.25 223.257812 247.164062 223.257812 247.164062 C 222.996094 237.859375 218.089844 230.785156 218.089844 230.785156 C 218.722656 221.542969 189.605469 193.453125 189.605469 193.453125 C 180.410156 185.367188 137.363281 166.511719 126.089844 162.914062 C 114.796875 159.328125 108.121094 166.285156 108.121094 166.285156 C 93.617188 157.820312 79.882812 164.269531 70.6875 169.1875 C 61.488281 174.105469 59.972656 183.285156 59.972656 183.285156 C 54.234375 189.386719 56.128906 174.65625 56.128906 174.65625 C 56.128906 174.65625 60.910156 156.421875 74.464844 152.746094 C 88.011719 149.058594 109.886719 153.40625 109.886719 153.40625 C 140.328125 149.085938 186.332031 176.511719 199.699219 188.609375 C 213.054688 200.710938 241.214844 242.652344 241.214844 242.652344 C 241.214844 242.652344 250.359375 251.667969 257.847656 271.707031 C 265.351562 291.753906 264.28125 333.476562 262.828125 341.734375 C 261.378906 349.992188 259.105469 357.257812 257.34375 370.144531 Z M 257.34375 370.144531 "/>
<path style=" stroke:none;fill-rule:nonzero;fill:rgb(100%,86.27451%,66.27451%);fill-opacity:1;" d="M 138.601562 178.882812 C 136.347656 174.222656 125.515625 182.4375 117.847656 181.890625 C 110.179688 181.34375 96.484375 174.972656 87.410156 176.128906 C 78.339844 177.285156 66.34375 183.625 63.367188 189.703125 C 60.378906 195.777344 65.1875 219.503906 72.738281 221.839844 C 72.738281 221.839844 58.96875 235.246094 64.992188 241.074219 C 71.027344 246.898438 73.945312 241.710938 74.128906 239.027344 C 74.3125 236.34375 73.519531 229.089844 78.757812 227.664062 C 83.992188 226.242188 90.816406 220.433594 90.816406 220.433594 C 90.816406 220.433594 80.585938 219.703125 75.839844 213.96875 C 71.085938 208.234375 74.316406 198.574219 77.183594 194.28125 C 80.042969 189.984375 86.980469 182.386719 93.382812 182.84375 C 99.769531 183.300781 112.1875 189.582031 121.207031 189.324219 C 130.199219 189.070312 140.859375 183.539062 138.601562 178.882812 Z M 138.601562 178.882812 "/>
<path style=" stroke:none;fill-rule:nonzero;fill:rgb(100%,86.27451%,66.27451%);fill-opacity:1;" d="M 157.285156 206.289062 C 157.285156 206.289062 170.242188 223.394531 154.90625 241.179688 C 139.566406 258.976562 141.386719 251.011719 141.386719 251.011719 L 146.011719 258.539062 C 146.011719 258.539062 157.273438 244.054688 166.167969 245.585938 C 175.054688 247.117188 186.011719 255.988281 188.929688 269.691406 C 191.847656 283.390625 182.167969 293.496094 170.539062 294.460938 C 158.910156 295.433594 115.75 287.859375 115.75 287.859375 C 115.75 287.859375 119.410156 290.816406 117.820312 295.199219 C 116.242188 299.578125 113.320312 304.773438 113.320312 304.773438 C 113.320312 304.773438 124.15625 296.550781 149.660156 299.265625 C 175.164062 301.988281 183.816406 307.097656 192.878906 324.832031 C 201.941406 342.566406 193.835938 367.160156 188.300781 373.066406 C 182.761719 378.96875 159.621094 379.121094 156.644531 385.199219 C 153.671875 391.273438 160.90625 398.089844 161.882812 402.652344 C 162.851562 407.21875 157.496094 410.4375 157.496094 410.4375 C 157.496094 410.4375 171.980469 405.175781 182.144531 406.800781 C 192.3125 408.421875 210.820312 419.632812 210.820312 419.632812 C 210.820312 419.632812 206.855469 421.152344 207.953125 423.925781 C 209.054688 426.699219 211.421875 429.570312 209.964844 432.160156 C 208.507812 434.753906 204.546875 436.265625 204.546875 436.265625 C 204.546875 436.265625 210.871094 437.621094 215.074219 432.527344 C 219.277344 427.429688 211.667969 425.984375 214.410156 423.480469 C 217.148438 420.980469 222.203125 422.242188 222.203125 422.242188 C 222.203125 422.242188 218.421875 421.066406 212.582031 412.558594 C 206.746094 404.050781 204.488281 399.390625 195.542969 398.753906 C 186.585938 398.117188 176.300781 398.28125 176.300781 398.28125 C 176.300781 398.28125 167.597656 394.066406 171.800781 388.96875 C 176 383.871094 205.644531 382.386719 205.644531 382.386719 C 205.644531 382.386719 197.066406 376.378906 197.371094 371.910156 C 197.675781 367.429688 204.671875 358.933594 216.609375 353.496094 C 228.546875 348.046875 238.160156 338.839844 239.445312 320.050781 C 240.726562 301.261719 245.894531 297.328125 254.042969 290.710938 L 252.199219 278.171875 C 252.199219 278.171875 243.773438 294.28125 235.734375 299.105469 L 217.167969 288.78125 C 217.167969 288.78125 220.207031 300.691406 230.132812 305.898438 C 230.132812 305.898438 236.757812 321.65625 229.636719 331.941406 C 222.507812 342.222656 205.339844 349.089844 205.339844 349.089844 C 205.339844 349.089844 202 322.773438 199.808594 317.226562 C 197.621094 311.671875 192.871094 305.941406 191.835938 302.269531 C 190.808594 298.601562 201.285156 276.863281 200.492188 269.613281 C 199.699219 262.367188 190.9375 240.15625 171.886719 236.996094 C 171.890625 237 171.46875 205.5 157.285156 206.289062 Z M 157.285156 206.289062 "/>
<path style=" stroke:none;fill-rule:nonzero;fill:rgb(100%,86.27451%,66.27451%);fill-opacity:1;" d="M 126.109375 249.023438 C 126.109375 249.023438 136.523438 247.078125 145.167969 252.183594 C 153.808594 257.300781 159.289062 271.175781 151.125 277.789062 C 151.125 277.789062 147.109375 280.199219 143.578125 275.449219 C 143.578125 275.449219 146.136719 256.75 138.585938 254.410156 C 131.039062 252.070312 126.109375 249.023438 126.109375 249.023438 Z M 126.109375 249.023438 "/>
<path style=" stroke:none;fill-rule:nonzero;fill:rgb(100%,86.27451%,66.27451%);fill-opacity:1;" d="M 137.988281 225.59375 C 137.988281 225.59375 124.359375 218.332031 111.328125 220.996094 C 98.300781 223.660156 89.53125 239.21875 89.53125 239.21875 C 89.53125 239.21875 83.929688 227.136719 96.046875 219.011719 C 108.167969 210.878906 126.972656 217.613281 135.859375 219.152344 C 144.742188 220.683594 145.964844 221.664062 137.988281 225.59375 Z M 137.988281 225.59375 "/>
<path style=" stroke:none;fill-rule:nonzero;fill:rgb(100%,86.27451%,66.27451%);fill-opacity:1;" d="M 121.859375 217.25 C 121.859375 217.25 118.511719 209.816406 123.742188 208.394531 C 128.980469 206.964844 135.496094 205.632812 133.121094 202.765625 C 130.75 199.902344 117.601562 204.355469 113.210938 212.132812 C 108.828125 219.921875 108.828125 219.921875 108.828125 219.921875 Z M 121.859375 217.25 "/>
<path style=" stroke:none;fill-rule:nonzero;fill:rgb(100%,86.27451%,66.27451%);fill-opacity:1;" d="M 109.128906 253.214844 C 109.128906 253.214844 83.3125 273.851562 81.726562 297.117188 C 80.136719 320.390625 90.363281 340.003906 99.308594 340.640625 C 108.261719 341.28125 108.820312 333.226562 115.078125 335.46875 C 121.351562 337.71875 129.75 346.417969 120.679688 347.5625 C 111.601562 348.71875 102.414062 351.65625 94.984375 347.53125 C 87.558594 343.402344 78.917969 338.289062 74.347656 329.871094 C 69.789062 321.453125 72.226562 304.546875 71.5625 295.5 C 70.890625 286.457031 89.636719 256.320312 96.34375 252.308594 C 103.039062 248.285156 109.679688 245.15625 109.128906 253.214844 Z M 109.128906 253.214844 "/>
<path style=" stroke:none;fill-rule:nonzero;fill:rgb(100%,86.27451%,66.27451%);fill-opacity:1;" d="M 159.214844 328.726562 C 159.214844 328.726562 149.105469 326.203125 145.578125 321.457031 C 142.046875 316.714844 140.410156 321.992188 142.351562 331.121094 C 144.296875 340.246094 144.601562 354.660156 141.613281 360.746094 C 138.625 366.824219 125.957031 383.011719 110.746094 380.125 C 95.519531 377.238281 90.714844 372.410156 87.246094 366.765625 C 83.777344 361.113281 76.171875 359.679688 74.523438 364.953125 C 72.882812 370.234375 77.558594 376.863281 79.882812 380.621094 C 82.191406 384.378906 80.914062 384.289062 88.402344 387.519531 C 95.890625 390.757812 110.984375 395.425781 124.074219 391.863281 C 137.164062 388.304688 150.011719 369.4375 150.4375 363.167969 C 150.867188 356.902344 154.765625 337.398438 159.214844 328.726562 Z M 159.214844 328.726562 "/>
<path style=" stroke:none;fill-rule:nonzero;fill:rgb(100%,86.27451%,66.27451%);fill-opacity:1;" d="M 245.625 414.15625 C 245.625 414.15625 246.550781 380.136719 237.609375 372.609375 C 228.664062 365.085938 225.875 365.910156 225.789062 362.929688 C 225.722656 360.632812 225.558594 359.824219 232.253906 360.527344 C 237.613281 361.09375 251.21875 371.828125 251.21875 371.828125 Z M 245.625 414.15625 "/>
<path style=" stroke:none;fill-rule:nonzero;fill:rgb(100%,86.27451%,66.27451%);fill-opacity:1;" d="M 150.160156 170.285156 C 150.160156 170.285156 161.976562 175.261719 158.820312 181.925781 C 155.660156 188.597656 155.480469 191.339844 160.851562 191.722656 C 166.230469 192.105469 169.480469 184.066406 176.011719 187.285156 C 182.550781 190.515625 176.421875 201.101562 183.046875 202.953125 C 189.679688 204.800781 192.457031 203.617188 196.398438 205.28125 C 200.335938 206.941406 214.371094 218.964844 212.65625 224.359375 C 210.9375 229.742188 198.425781 215.074219 194.207031 217.527344 C 189.988281 219.988281 182.988281 223.617188 188.179688 226.75 C 193.367188 229.871094 209.496094 231.023438 215.753906 238.367188 C 222.003906 245.699219 223.457031 249.71875 227.382812 246.082031 C 231.488281 242.265625 221.285156 216.703125 213.6875 209.273438 C 206.089844 201.835938 163.789062 168.496094 150.160156 170.285156 Z M 150.160156 170.285156 "/>
<path style=" stroke:none;fill-rule:nonzero;fill:rgb(100%,86.27451%,66.27451%);fill-opacity:1;" d="M 227.445312 294.457031 C 227.445312 294.457031 234.058594 297.84375 236.191406 297.222656 C 238.332031 296.59375 243.953125 292.148438 246.964844 287.121094 C 249.964844 282.089844 249.109375 277.953125 248.160156 275.171875 L 253.441406 281.371094 L 255.039062 302.632812 L 253.433594 300.96875 C 253.433594 300.96875 253.222656 295.710938 251.320312 295.769531 C 249.421875 295.828125 245 299.203125 245 299.203125 L 232.769531 300.074219 L 227.136719 296.175781 Z M 227.445312 294.457031 "/>
<path style=" stroke:none;fill-rule:nonzero;fill:rgb(100%,86.27451%,66.27451%);fill-opacity:1;" d="M 240 363.945312 C 240 363.945312 244.097656 366.53125 246.054688 365.757812 C 248.023438 364.976562 249.019531 361.835938 249.019531 361.835938 L 246.75 370.394531 L 242.277344 370.074219 Z M 240 363.945312 "/>
<path style=" stroke:none;fill-rule:nonzero;fill:rgb(100%,86.27451%,66.27451%);fill-opacity:1;" d="M 81.613281 363.183594 C 77.964844 365.078125 74.527344 366.523438 75.0625 368.632812 C 75.59375 370.734375 77.355469 425.589844 101.460938 428.691406 C 125.5625 431.78125 146.910156 425.726562 158.445312 434.820312 C 169.984375 443.910156 156.023438 450.492188 156.023438 450.492188 C 156.023438 450.492188 154.023438 460 165.296875 453.21875 C 165.296875 453.21875 168.511719 455.515625 169.328125 453.507812 C 170.136719 451.496094 171.796875 437.152344 165.984375 433.289062 C 160.167969 429.425781 151.613281 426.0625 147.769531 423.027344 C 143.921875 420 115.957031 423.902344 108.652344 422.023438 C 93.347656 418.078125 95.351562 404.417969 90.003906 393.699219 C 84.65625 382.980469 85.109375 361.367188 81.613281 363.183594 Z M 81.613281 363.183594 "/>
<path style=" stroke:none;fill-rule:nonzero;fill:rgb(100%,86.27451%,66.27451%);fill-opacity:1;" d="M 236.34375 431.410156 C 236.34375 431.410156 229.941406 446.117188 221.875 445.542969 C 221.875 445.542969 232.347656 450.425781 230.625 455.808594 C 228.914062 461.203125 236.34375 431.410156 236.34375 431.410156 Z M 236.34375 431.410156 "/>
<path style=" stroke:none;fill-rule:nonzero;fill:rgb(100%,86.27451%,66.27451%);fill-opacity:1;" d="M 164.273438 448.375 C 164.273438 448.375 176.304688 445.542969 185.683594 446.605469 C 195.070312 447.664062 198.558594 456.148438 198.558594 456.148438 C 198.558594 456.148438 189.027344 451.394531 183.675781 451.089844 C 178.316406 450.789062 168.566406 454.242188 168.566406 454.242188 Z M 164.273438 448.375 "/>
<path style=" stroke:none;fill-rule:nonzero;fill:rgb(100%,86.27451%,66.27451%);fill-opacity:1;" d="M 102.527344 446.625 C 102.527344 446.625 97.175781 433.117188 85.132812 431.488281 C 73.085938 429.855469 74.871094 429.898438 70.890625 428.839844 C 66.910156 427.777344 61.429688 414.03125 57.21875 412.699219 C 53.003906 411.363281 51.59375 409.710938 49.78125 410.355469 C 47.964844 411 48.828125 413.132812 49.804688 413.71875 C 50.78125 414.304688 54.527344 415.089844 56.21875 416.242188 C 57.910156 417.398438 60.453125 428.433594 67.28125 432.28125 C 74.109375 436.128906 79.574219 436.859375 82.296875 437.828125 C 85.019531 438.792969 93.570312 444.398438 97.46875 450.359375 C 97.464844 450.355469 103.679688 453.246094 102.527344 446.625 Z M 102.527344 446.625 "/>
</g>
</defs>
<g id="surface1">
<path style="fill-rule:nonzero;fill:rgb(39.215686%,36.078431%,71.764706%);fill-opacity:1;stroke-width:28.191782;stroke-linecap:butt;stroke-linejoin:miter;stroke:rgb(100%,49.803922%,16.470588%);stroke-opacity:1;stroke-miterlimit:4;" d="M 81.480467 25.097656 L 430.519523 25.097656 C 461.660147 25.097656 486.902334 50.339843 486.902334 81.480467 L 486.902334 430.519523 C 486.902334 461.660147 461.660147 486.902334 430.519523 486.902334 L 81.480467 486.902334 C 50.339843 486.902334 25.097656 461.660147 25.097656 430.519523 L 25.097656 81.480467 C 25.097656 50.339843 50.339843 25.097656 81.480467 25.097656 Z M 81.480467 25.097656 " transform="matrix(1,0,0,1,0,0)"/>
<use xlink:href="#surface6" mask="url(#mask0)"/>
<path style=" stroke:none;fill-rule:evenodd;fill:rgb(40%,40%,40%);fill-opacity:1;" d="M 431.742188 73.046875 C 431.246094 73.066406 430.757812 73.179688 430.304688 73.382812 L 235.699219 159.566406 C 234.28125 160.195312 233.375 161.605469 233.394531 163.152344 L 235.453125 327.828125 C 227.644531 326.441406 218.917969 326.976562 210.113281 329.742188 C 198.554688 333.375 188.9375 340.144531 182.644531 348.378906 C 176.347656 356.617188 173.324219 366.527344 175.710938 375.992188 C 178.101562 385.453125 185.484375 392.363281 194.84375 395.769531 C 204.207031 399.175781 215.644531 399.316406 227.199219 395.683594 C 238.671875 392.078125 248.226562 385.390625 254.527344 377.238281 C 260.683594 369.273438 263.734375 359.722656 261.8125 350.507812 C 261.851562 310.625 262.707031 209.195312 262.742188 204.839844 L 410.144531 138.859375 L 410.59375 278.242188 C 402.972656 277.011719 394.515625 277.609375 385.980469 280.296875 C 374.421875 283.929688 364.804688 290.6875 358.507812 298.921875 C 352.214844 307.160156 349.191406 317.070312 351.578125 326.53125 C 353.964844 335.996094 361.339844 342.90625 370.699219 346.3125 C 380.058594 349.71875 391.511719 349.859375 403.0625 346.226562 C 414.625 342.59375 424.242188 335.835938 430.535156 327.601562 C 436.832031 319.363281 439.851562 309.453125 437.464844 299.988281 C 437.464844 299.984375 437.464844 299.980469 437.464844 299.976562 L 435.738281 76.894531 C 435.734375 75.847656 435.304688 74.847656 434.550781 74.125 C 433.800781 73.398438 432.785156 73.011719 431.742188 73.046875 Z M 431.742188 73.046875 "/>
<path style=" stroke:none;fill-rule:evenodd;fill:rgb(80%,80%,80%);fill-opacity:1;" d="M 437.742188 65.046875 C 437.246094 65.066406 436.757812 65.179688 436.304688 65.382812 L 241.699219 151.566406 C 240.28125 152.195312 239.375 153.605469 239.394531 155.152344 L 241.453125 319.828125 C 233.644531 318.441406 224.917969 318.976562 216.113281 321.742188 C 204.554688 325.375 194.9375 332.144531 188.644531 340.378906 C 182.347656 348.617188 179.324219 358.527344 181.710938 367.992188 C 184.101562 377.453125 191.484375 384.363281 200.84375 387.769531 C 210.207031 391.175781 221.644531 391.316406 233.199219 387.683594 C 244.671875 384.078125 254.226562 377.390625 260.527344 369.238281 C 266.683594 361.273438 269.734375 351.722656 267.8125 342.507812 C 267.851562 302.625 268.707031 201.195312 268.742188 196.839844 L 416.144531 130.859375 L 416.59375 270.242188 C 408.972656 269.011719 400.515625 269.609375 391.980469 272.296875 C 380.421875 275.929688 370.804688 282.6875 364.507812 290.921875 C 358.214844 299.160156 355.191406 309.070312 357.578125 318.53125 C 359.964844 327.996094 367.339844 334.90625 376.699219 338.3125 C 386.058594 341.71875 397.511719 341.859375 409.0625 338.226562 C 420.625 334.59375 430.242188 327.835938 436.535156 319.601562 C 442.832031 311.363281 445.851562 301.453125 443.464844 291.988281 C 443.464844 291.984375 443.464844 291.980469 443.464844 291.976562 L 441.738281 68.894531 C 441.734375 67.847656 441.304688 66.847656 440.550781 66.125 C 439.800781 65.398438 438.785156 65.011719 437.742188 65.046875 Z M 437.742188 65.046875 "/>
</g>
</svg>
