
<svg xmlns="http://www.w3.org/2000/svg" xmlns:xlink="http://www.w3.org/1999/xlink" width="512px" height="512px" viewBox="0 0 512 512" version="1.1">
<g id="surface1">
<path style="fill-rule:nonzero;fill:rgb(92.54902%,92.54902%,92.54902%);fill-opacity:1;stroke-width:27.616438;stroke-linecap:butt;stroke-linejoin:miter;stroke:rgb(0%,66.666667%,83.137255%);stroke-opacity:1;stroke-miterlimit:4;" d="M 88.511719 25.277344 L 430.425781 25.277344 C 460.933594 25.277344 485.660156 50.003906 485.660156 80.511719 L 485.660156 422.425781 C 485.660156 452.933594 460.933594 477.660156 430.425781 477.660156 L 88.511719 477.660156 C 58.003906 477.660156 33.277344 452.933594 33.277344 422.425781 L 33.277344 80.511719 C 33.277344 50.003906 58.003906 25.277344 88.511719 25.277344 Z M 88.511719 25.277344 "/>
<path style=" stroke:none;fill-rule:evenodd;fill:rgb(50.196078%,50.196078%,50.196078%);fill-opacity:1;" d="M 226.964844 405.503906 L 175.042969 439.546875 L 343.785156 439.546875 L 291.867188 405.503906 Z M 226.964844 405.503906 "/>
<path style=" stroke:none;fill-rule:evenodd;fill:rgb(50.196078%,50.196078%,50.196078%);fill-opacity:1;" d="M 226.964844 395.183594 L 175.042969 429.230469 L 343.785156 429.230469 L 291.867188 395.183594 Z M 226.964844 395.183594 "/>
<path style=" stroke:none;fill-rule:nonzero;fill:rgb(30.196078%,30.196078%,30.196078%);fill-opacity:1;" d="M 223.355469 332.660156 L 295.582031 332.660156 L 295.582031 413.007812 L 223.355469 413.007812 Z M 223.355469 332.660156 "/>
<path style=" stroke:none;fill-rule:nonzero;fill:rgb(50.196078%,50.196078%,50.196078%);fill-opacity:1;" d="M 80.289062 63.386719 L 438.644531 63.386719 C 451.203125 63.386719 461.378906 73.105469 461.378906 85.09375 L 461.378906 336.058594 C 461.378906 348.046875 451.203125 357.761719 438.644531 357.761719 L 80.289062 357.761719 C 67.734375 357.761719 57.554688 348.046875 57.554688 336.058594 L 57.554688 85.09375 C 57.554688 73.105469 67.734375 63.386719 80.289062 63.386719 Z M 80.289062 63.386719 "/>
<path style=" stroke:none;fill-rule:nonzero;fill:rgb(0%,66.666667%,83.137255%);fill-opacity:1;" d="M 95.351562 90.941406 L 423.585938 90.941406 L 423.585938 330.210938 L 95.351562 330.210938 Z M 95.351562 90.941406 "/>
<path style=" stroke:none;fill-rule:evenodd;fill:rgb(0%,0%,0%);fill-opacity:1;" d="M 175.042969 429.230469 L 175.042969 439.546875 L 343.894531 439.546875 L 343.894531 429.230469 Z M 175.042969 429.230469 "/>
<path style=" stroke:none;fill-rule:nonzero;fill:rgb(100%,100%,100%);fill-opacity:1;" d="M 294.894531 287.277344 L 276.316406 287.277344 L 276.316406 307.03125 L 294.894531 307.03125 Z M 267.023438 287.277344 L 248.445312 287.277344 L 248.445312 307.03125 L 267.023438 307.03125 Z M 239.152344 287.277344 L 220.574219 287.277344 L 220.574219 307.03125 L 239.152344 307.03125 Z M 239.152344 287.277344 "/>
<path style=" stroke:none;fill-rule:evenodd;fill:rgb(20%,20%,20%);fill-opacity:1;" d="M 94.371094 91.53125 L 94.371094 110.292969 L 422.691406 110.292969 L 422.691406 91.53125 Z M 94.371094 91.53125 "/>
</g>
</svg>
