<?xml version="1.0" encoding="UTF-8"?>
<svg xmlns="http://www.w3.org/2000/svg" xmlns:xlink="http://www.w3.org/1999/xlink" width="512pt" height="512pt" viewBox="0 0 512 512" version="1.1">
<g id="surface1">
<path style="fill-rule:evenodd;fill:rgb(0%,0%,0%);fill-opacity:1;stroke-width:21.5;stroke-linecap:butt;stroke-linejoin:miter;stroke:rgb(78.039216%,17.647059%,17.647059%);stroke-opacity:1;stroke-miterlimit:4;" d="M 78.644531 28.90625 L 435.539062 28.90625 C 461.953125 28.90625 483.367188 50.320312 483.367188 76.734375 L 483.367188 436.695312 C 483.367188 463.109375 461.953125 484.523438 435.539062 484.523438 L 78.644531 484.523438 C 52.230469 484.523438 30.816406 463.109375 30.816406 436.695312 L 30.816406 76.734375 C 30.816406 50.320312 52.230469 28.90625 78.644531 28.90625 Z M 78.644531 28.90625 "/>
<path style=" stroke:none;fill-rule:nonzero;fill:rgb(98.431373%,16.078431%,16.078431%);fill-opacity:1;" d="M 163.347656 276.191406 C 163.347656 296.101562 147.207031 312.242188 127.296875 312.242188 C 107.386719 312.242188 91.246094 296.101562 91.246094 276.191406 C 91.246094 256.28125 107.386719 240.140625 127.296875 240.140625 C 147.207031 240.140625 163.347656 256.28125 163.347656 276.191406 Z M 163.347656 276.191406 "/>
<path style=" stroke:none;fill-rule:nonzero;fill:rgb(98.431373%,16.078431%,16.078431%);fill-opacity:1;" d="M 224.246094 341.972656 C 224.246094 361.882812 208.105469 378.023438 188.195312 378.023438 C 168.285156 378.023438 152.148438 361.882812 152.148438 341.972656 C 152.148438 322.0625 168.285156 305.921875 188.195312 305.921875 C 208.105469 305.921875 224.246094 322.0625 224.246094 341.972656 Z M 224.246094 341.972656 "/>
<path style=" stroke:none;fill-rule:nonzero;fill:rgb(98.431373%,16.078431%,16.078431%);fill-opacity:1;" d="M 247.421875 182.945312 C 247.421875 199.886719 233.683594 213.625 216.738281 213.625 C 199.796875 213.625 186.058594 199.886719 186.058594 182.945312 C 186.058594 166 199.796875 152.261719 216.738281 152.261719 C 233.683594 152.261719 247.421875 166 247.421875 182.945312 Z M 247.421875 182.945312 "/>
<path style=" stroke:none;fill-rule:nonzero;fill:rgb(90.196078%,38.823529%,38.823529%);fill-opacity:1;" d="M 301.113281 243.539062 C 301.113281 263.449219 284.972656 279.589844 265.0625 279.589844 C 245.152344 279.589844 229.011719 263.449219 229.011719 243.539062 C 229.011719 223.628906 245.152344 207.488281 265.0625 207.488281 C 284.972656 207.488281 301.113281 223.628906 301.113281 243.539062 Z M 301.113281 243.539062 "/>
<path style=" stroke:none;fill-rule:nonzero;fill:rgb(90.196078%,38.823529%,38.823529%);fill-opacity:1;" d="M 336.398438 334.816406 C 336.398438 350.914062 323.347656 363.964844 307.25 363.964844 C 291.152344 363.964844 278.101562 350.914062 278.101562 334.816406 C 278.101562 318.71875 291.152344 305.667969 307.25 305.667969 C 323.347656 305.667969 336.398438 318.71875 336.398438 334.816406 Z M 336.398438 334.816406 "/>
<path style=" stroke:none;fill-rule:nonzero;fill:rgb(90.196078%,38.823529%,38.823529%);fill-opacity:1;" d="M 375.84375 180.640625 C 375.84375 196.738281 362.796875 209.789062 346.699219 209.789062 C 330.601562 209.789062 317.550781 196.738281 317.550781 180.640625 C 317.550781 164.546875 330.601562 151.496094 346.699219 151.496094 C 362.796875 151.496094 375.84375 164.546875 375.84375 180.640625 Z M 375.84375 180.640625 "/>
<path style=" stroke:none;fill-rule:nonzero;fill:rgb(100%,40%,0%);fill-opacity:1;" d="M 334.425781 108.542969 C 334.425781 122.945312 322.75 134.621094 308.347656 134.621094 C 293.945312 134.621094 282.265625 122.945312 282.265625 108.542969 C 282.265625 94.136719 293.945312 82.460938 308.347656 82.460938 C 322.75 82.460938 334.425781 94.136719 334.425781 108.542969 Z M 334.425781 108.542969 "/>
<path style=" stroke:none;fill-rule:nonzero;fill:rgb(95.686275%,84.313725%,84.313725%);fill-opacity:1;" d="M 411.265625 259.949219 C 411.265625 276.046875 398.214844 289.09375 382.117188 289.09375 C 366.019531 289.09375 352.96875 276.046875 352.96875 259.949219 C 352.96875 243.851562 366.019531 230.800781 382.117188 230.800781 C 398.214844 230.800781 411.265625 243.851562 411.265625 259.949219 Z M 411.265625 259.949219 "/>
<path style=" stroke:none;fill-rule:nonzero;fill:rgb(95.686275%,84.313725%,84.313725%);fill-opacity:1;" d="M 446.414062 342.484375 C 446.414062 360.703125 431.644531 375.46875 413.429688 375.46875 C 395.214844 375.46875 380.449219 360.703125 380.449219 342.484375 C 380.449219 324.269531 395.214844 309.503906 413.429688 309.503906 C 431.644531 309.503906 446.414062 324.269531 446.414062 342.484375 Z M 446.414062 342.484375 "/>
</g>
</svg>
