<!-- color: #20bef9 -->
<svg xmlns="http://www.w3.org/2000/svg" xmlns:xlink="http://www.w3.org/1999/xlink" width="512px" height="512px" viewBox="0 0 512 512" version="1.1">
<defs>
<clipPath id="clip1">
  <path d="M 56 56 L 456 56 L 456 456 L 56 456 Z M 56 56 "/>
</clipPath>
<clipPath id="clip2">
  <path d="M 608.675781 256.039062 C 608.675781 450.925781 450.648438 608.777344 255.9375 608.777344 C 61.226562 608.777344 -96.800781 450.925781 -96.800781 256.039062 C -96.800781 61.148438 61.226562 -96.699219 255.9375 -96.699219 C 450.648438 -96.699219 608.675781 61.148438 608.675781 256.039062 Z M 608.675781 256.039062 "/>
</clipPath>
</defs>
<g id="surface1">
<path style="fill-rule:nonzero;fill:rgb(100%,100%,100%);fill-opacity:1;stroke-width:1.651844;stroke-linecap:butt;stroke-linejoin:miter;stroke:rgb(71.372549%,8.627451%,8.627451%);stroke-opacity:1;stroke-miterlimit:4;" d="M 14.040101 10.74563 L 34.491304 10.74563 C 36.315867 10.74563 37.795082 12.224845 37.795082 14.049409 L 37.795082 34.500611 C 37.795082 36.325175 36.315867 37.80439 34.491304 37.80439 L 14.040101 37.80439 C 12.215537 37.80439 10.736322 36.325175 10.736322 34.500611 L 10.736322 14.049409 C 10.736322 12.224845 12.215537 10.74563 14.040101 10.74563 Z M 14.040101 10.74563 " transform="matrix(17.090988,0,0,17.090988,-158.724816,-158.883897)"/>
<path style=" stroke:none;fill-rule:nonzero;fill:rgb(100%,100%,100%);fill-opacity:1;" d="M 411.917969 250.324219 C 411.917969 161.941406 342.277344 90.296875 256.367188 90.296875 C 170.460938 90.296875 100.816406 161.941406 100.816406 250.324219 C 100.816406 338.703125 170.460938 410.351562 256.367188 410.351562 C 342.277344 410.351562 411.917969 338.703125 411.917969 250.324219 Z M 411.917969 250.324219 "/>
<g clip-path="url(#clip1)" clip-rule="nonzero">
<g clip-path="url(#clip2)" clip-rule="nonzero">
<path style=" stroke:none;fill-rule:nonzero;fill:rgb(71.372549%,8.627451%,8.627451%);fill-opacity:1;" d="M 164.839844 56.664062 C 105.058594 56.664062 56.71875 105.066406 56.71875 164.785156 C 56.71875 183.234375 61.394531 201.085938 69.539062 216.300781 C 66.839844 229.183594 65.351562 242.296875 65.351562 255.960938 C 65.351562 361.214844 150.714844 446.59375 256.105469 446.59375 C 269.710938 446.59375 282.886719 445.152344 295.707031 442.453125 C 310.980469 450.71875 328.601562 455.335938 347.160156 455.335938 C 406.941406 455.335938 455.28125 406.933594 455.28125 347.214844 C 455.28125 328.640625 450.605469 310.914062 442.398438 295.636719 C 445.097656 282.816406 446.539062 269.640625 446.539062 256.039062 C 446.539062 150.84375 361.175781 65.40625 255.90625 65.40625 C 242.242188 65.40625 229.070312 66.785156 216.246094 69.546875 C 201.035156 61.402344 183.183594 56.664062 164.734375 56.664062 M 252.195312 135.800781 C 311.746094 135.800781 342.480469 167.132812 342.480469 185.519531 C 342.480469 203.972656 333.617188 206.730469 319.003906 206.730469 C 290.597656 206.730469 302.222656 172.636719 249.023438 172.636719 C 231.414062 172.636719 209.421875 180.660156 209.421875 201.148438 C 209.421875 217.621094 228.902344 223.679688 263.285156 232.128906 C 315.105469 245.960938 353.984375 259.75 353.984375 307.140625 C 353.984375 353.148438 316.363281 376.214844 256.8125 376.214844 C 197.261719 376.214844 159.226562 340.742188 159.226562 322.351562 C 159.226562 303.964844 166.234375 299.347656 180.851562 299.347656 C 209.300781 299.347656 205.464844 338.042969 258.667969 338.042969 C 276.335938 338.042969 302.40625 330.019531 302.40625 309.46875 C 302.40625 293.058594 301.027344 287.371094 263.285156 277.234375 C 222.964844 271.789062 157.847656 258.722656 157.847656 208.632812 C 157.847656 162.625 192.707031 135.847656 252.257812 135.847656 M 252.257812 135.847656 "/>
</g>
</g>
</g>
</svg>
