
<svg xmlns="http://www.w3.org/2000/svg" xmlns:xlink="http://www.w3.org/1999/xlink" width="512px" height="512px" viewBox="0 0 512 512" version="1.1">
<defs>
<linearGradient id="linear0" gradientUnits="userSpaceOnUse" x1="1" y1="0" x2="47" y2="0" gradientTransform="matrix(0,-10.666667,10.666667,0,0.0236231,512.000011)">
<stop offset="0" style="stop-color:rgb(22.352941%,79.607843%,76.078431%);stop-opacity:1;"/>
<stop offset="1" style="stop-color:rgb(28.235294%,81.176471%,78.039216%);stop-opacity:1;"/>
</linearGradient>
</defs>
<g id="surface1">
<path style=" stroke:none;fill-rule:nonzero;fill:url(#linear0);" d="M 10.667969 458.667969 L 10.667969 53.332031 C 10.667969 29.769531 29.769531 10.667969 53.332031 10.667969 L 458.667969 10.667969 C 482.230469 10.667969 501.332031 29.769531 501.332031 53.332031 L 501.332031 458.667969 C 501.332031 482.230469 482.230469 501.332031 458.667969 501.332031 L 53.332031 501.332031 C 29.769531 501.332031 10.667969 482.230469 10.667969 458.667969 Z M 10.667969 458.667969 "/>
<path style=" stroke:none;fill-rule:nonzero;fill:rgb(100%,100%,100%);fill-opacity:1;" d="M 202.796875 91.480469 C 198.304688 91.480469 194.75 95.214844 194.75 99.785156 L 194.75 115.878906 C 186.714844 118.019531 179.0625 121.269531 172.039062 125.355469 L 160.488281 113.933594 C 158.871094 112.316406 156.996094 111.355469 154.90625 111.335938 C 152.8125 111.320312 150.652344 112.085938 149.066406 113.671875 L 126.613281 136.128906 C 123.433594 139.304688 123.640625 144.316406 126.871094 147.546875 L 138.292969 159.101562 C 134.207031 166.125 130.960938 173.777344 128.816406 181.8125 L 112.722656 181.8125 C 108.152344 181.8125 104.417969 185.363281 104.417969 189.859375 L 104.417969 221.527344 C 104.417969 226.023438 108.152344 229.574219 112.722656 229.574219 L 128.816406 229.574219 C 130.960938 237.613281 134.207031 245.261719 138.292969 252.289062 L 126.871094 263.839844 C 123.636719 267.070312 123.433594 272.082031 126.613281 275.261719 L 149.066406 297.714844 C 152.242188 300.894531 157.253906 300.6875 160.488281 297.453125 L 172.039062 286.035156 C 179.0625 290.121094 186.714844 293.367188 194.75 295.507812 L 194.75 311.601562 C 194.75 316.171875 198.304688 319.910156 202.796875 319.910156 L 234.464844 319.910156 C 238.960938 319.910156 242.511719 316.171875 242.511719 311.601562 L 242.511719 295.507812 C 250.550781 293.367188 258.199219 290.121094 265.226562 286.035156 L 276.777344 297.453125 C 280.011719 300.6875 285.019531 300.894531 288.199219 297.714844 L 310.652344 275.261719 C 313.832031 272.082031 313.625 267.070312 310.394531 263.839844 L 298.972656 252.289062 C 303.058594 245.261719 306.304688 237.613281 308.445312 229.574219 L 324.539062 229.574219 C 329.113281 229.574219 332.847656 226.023438 332.847656 221.527344 L 332.847656 189.859375 C 332.847656 185.363281 329.113281 181.8125 324.539062 181.8125 L 308.445312 181.8125 C 306.304688 173.777344 303.058594 166.125 298.972656 159.101562 L 310.394531 147.546875 C 313.625 144.316406 313.832031 139.304688 310.652344 136.128906 L 288.199219 113.671875 C 285.019531 110.496094 280.011719 110.699219 276.777344 113.933594 L 265.226562 125.355469 C 258.199219 121.269531 250.550781 118.019531 242.511719 115.878906 L 242.511719 99.785156 C 242.511719 95.214844 238.960938 91.480469 234.464844 91.480469 Z M 218.632812 147.546875 C 250.746094 147.546875 276.777344 173.582031 276.777344 205.695312 C 276.777344 237.808594 250.746094 263.839844 218.632812 263.839844 C 186.519531 263.839844 160.488281 237.808594 160.488281 205.695312 C 160.488281 173.582031 186.519531 147.546875 218.632812 147.546875 Z M 218.632812 147.546875 "/>
<path style=" stroke:none;fill-rule:nonzero;fill:rgb(100%,100%,100%);fill-opacity:1;" d="M 300.054688 291.050781 C 297.539062 290.820312 295.363281 292.734375 295.132812 295.292969 L 294.320312 304.300781 C 289.714844 305.09375 285.269531 306.527344 281.132812 308.457031 L 275.242188 301.484375 C 274.417969 300.496094 273.417969 299.863281 272.25 299.75 C 271.078125 299.632812 269.832031 299.953125 268.863281 300.761719 L 255.160156 312.199219 C 253.222656 313.816406 253.085938 316.632812 254.730469 318.605469 L 260.542969 325.644531 C 257.898438 329.371094 255.699219 333.488281 254.09375 337.878906 L 245.085938 337.070312 C 242.527344 336.839844 240.257812 338.640625 240.03125 341.15625 L 238.433594 358.878906 C 238.207031 361.394531 240.117188 363.574219 242.675781 363.804688 L 251.6875 364.613281 C 252.480469 369.222656 253.910156 373.667969 255.84375 377.804688 L 248.867188 383.695312 C 246.894531 385.339844 246.527344 388.136719 248.148438 390.074219 L 259.582031 403.773438 C 261.203125 405.714844 264.015625 405.851562 265.988281 404.203125 L 273.03125 398.394531 C 276.757812 401.035156 280.875 403.238281 285.265625 404.84375 L 284.453125 413.851562 C 284.222656 416.410156 286.023438 418.679688 288.539062 418.90625 L 306.265625 420.503906 C 308.78125 420.730469 310.957031 418.816406 311.1875 416.257812 L 312 407.25 C 316.605469 406.457031 321.050781 405.027344 325.191406 403.09375 L 331.078125 410.066406 C 332.726562 412.039062 335.519531 412.40625 337.460938 410.789062 L 351.160156 399.351562 C 353.097656 397.734375 353.234375 394.917969 351.589844 392.945312 L 345.78125 385.90625 C 348.421875 382.179688 350.625 378.0625 352.226562 373.671875 L 361.234375 374.480469 C 363.792969 374.710938 366.0625 372.914062 366.289062 370.394531 L 367.886719 352.671875 C 368.113281 350.15625 366.203125 347.976562 363.644531 347.746094 L 354.636719 346.9375 C 353.84375 342.328125 352.410156 337.886719 350.476562 333.746094 L 357.453125 327.855469 C 359.425781 326.210938 359.792969 323.414062 358.171875 321.476562 L 346.738281 307.777344 C 345.121094 305.835938 342.304688 305.699219 340.332031 307.347656 L 333.289062 313.15625 C 329.5625 310.515625 325.445312 308.3125 321.054688 306.707031 L 321.867188 297.699219 C 322.097656 295.140625 320.296875 292.871094 317.78125 292.644531 Z M 306.09375 323.230469 C 324.066406 324.847656 337.324219 340.734375 335.707031 358.707031 C 334.085938 376.679688 318.203125 389.941406 300.230469 388.320312 C 282.253906 386.703125 268.996094 370.820312 270.617188 352.84375 C 272.234375 334.871094 288.117188 321.609375 306.09375 323.230469 Z M 306.09375 323.230469 "/>
<path style=" stroke:none;fill-rule:nonzero;fill:rgb(100%,100%,100%);fill-opacity:1;" d="M 359.617188 215.140625 C 357.839844 214.980469 356.300781 216.332031 356.136719 218.140625 L 355.566406 224.507812 C 352.308594 225.070312 349.167969 226.082031 346.238281 227.449219 L 342.078125 222.515625 C 341.496094 221.820312 340.789062 221.371094 339.960938 221.289062 C 339.132812 221.210938 338.253906 221.433594 337.566406 222.007812 L 327.882812 230.089844 C 326.511719 231.234375 326.414062 233.226562 327.578125 234.621094 L 331.683594 239.597656 C 329.816406 242.230469 328.261719 245.144531 327.128906 248.246094 L 320.757812 247.671875 C 318.949219 247.511719 317.347656 248.78125 317.1875 250.5625 L 316.058594 263.089844 C 315.898438 264.871094 317.25 266.410156 319.058594 266.570312 L 325.425781 267.144531 C 325.984375 270.402344 326.996094 273.542969 328.363281 276.46875 L 323.433594 280.632812 C 322.039062 281.796875 321.78125 283.773438 322.921875 285.144531 L 331.007812 294.828125 C 332.152344 296.199219 334.140625 296.296875 335.535156 295.132812 L 340.515625 291.023438 C 343.148438 292.890625 346.058594 294.449219 349.164062 295.582031 L 348.589844 301.949219 C 348.425781 303.757812 349.699219 305.363281 351.476562 305.523438 L 364.007812 306.652344 C 365.785156 306.8125 367.324219 305.460938 367.488281 303.652344 L 368.0625 297.285156 C 371.316406 296.722656 374.460938 295.710938 377.386719 294.34375 L 381.550781 299.277344 C 382.714844 300.671875 384.6875 300.929688 386.058594 299.785156 L 395.746094 291.703125 C 397.113281 290.558594 397.210938 288.566406 396.046875 287.171875 L 391.941406 282.195312 C 393.808594 279.5625 395.367188 276.648438 396.5 273.546875 L 402.867188 274.121094 C 404.675781 274.28125 406.28125 273.011719 406.441406 271.230469 L 407.570312 258.703125 C 407.730469 256.921875 406.378906 255.382812 404.570312 255.222656 L 398.203125 254.648438 C 397.640625 251.390625 396.628906 248.25 395.261719 245.324219 L 400.191406 241.160156 C 401.585938 239.996094 401.847656 238.019531 400.703125 236.648438 L 392.617188 226.964844 C 391.472656 225.59375 389.484375 225.496094 388.089844 226.660156 L 383.113281 230.769531 C 380.476562 228.902344 377.566406 227.34375 374.464844 226.210938 L 375.035156 219.84375 C 375.199219 218.035156 373.925781 216.429688 372.148438 216.269531 Z M 363.886719 237.890625 C 376.589844 239.035156 385.964844 250.261719 384.820312 262.96875 C 383.675781 275.675781 372.449219 285.046875 359.742188 283.902344 C 347.035156 282.757812 337.660156 271.53125 338.804688 258.824219 C 339.949219 246.117188 351.179688 236.746094 363.886719 237.890625 Z M 363.886719 237.890625 "/>
<path style=" stroke:none;fill-rule:nonzero;fill:rgb(89.803922%,35.686275%,25.882353%);fill-opacity:1;" d="M 137.402344 266.304688 L 222.734375 266.304688 L 222.734375 372.972656 L 265.402344 372.972656 L 180.066406 458.304688 L 94.734375 372.972656 L 137.402344 372.972656 "/>
</g>
</svg>
