<?xml version="1.0" encoding="UTF-8"?>
<svg xmlns="http://www.w3.org/2000/svg" xmlns:xlink="http://www.w3.org/1999/xlink" width="512pt" height="512pt" viewBox="0 0 512 512" version="1.1">
<defs>
<clipPath id="clip1">
  <path d="M 234 281 L 278 281 L 278 412 L 234 412 Z M 234 281 "/>
</clipPath>
<clipPath id="clip2">
  <path d="M 219.574219 281.789062 L 290.4375 281.789062 C 290.441406 281.789062 290.445312 281.796875 290.445312 281.804688 L 290.445312 411.433594 C 290.445312 411.441406 290.441406 411.449219 290.4375 411.449219 L 219.574219 411.449219 C 219.574219 411.449219 219.570312 411.441406 219.570312 411.433594 L 219.570312 281.804688 C 219.570312 281.796875 219.574219 281.789062 219.574219 281.789062 Z M 219.574219 281.789062 "/>
</clipPath>
<clipPath id="clip3">
  <path d="M 222 407 L 289 407 L 289 412 L 222 412 Z M 222 407 "/>
</clipPath>
<clipPath id="clip4">
  <path d="M 219.574219 281.789062 L 290.4375 281.789062 C 290.441406 281.789062 290.445312 281.796875 290.445312 281.804688 L 290.445312 411.433594 C 290.445312 411.441406 290.441406 411.449219 290.4375 411.449219 L 219.574219 411.449219 C 219.574219 411.449219 219.570312 411.441406 219.570312 411.433594 L 219.570312 281.804688 C 219.570312 281.796875 219.574219 281.789062 219.574219 281.789062 Z M 219.574219 281.789062 "/>
</clipPath>
<clipPath id="clip5">
  <path d="M 216.835938 280.570312 L 293.425781 280.570312 C 293.429688 280.570312 293.433594 280.636719 293.433594 280.714844 L 293.433594 670.394531 C 293.433594 670.472656 293.429688 670.535156 293.425781 670.535156 L 216.835938 670.535156 C 216.832031 670.535156 216.828125 670.472656 216.828125 670.394531 L 216.828125 280.714844 C 216.828125 280.636719 216.832031 280.570312 216.835938 280.570312 Z M 216.835938 280.570312 "/>
</clipPath>
<clipPath id="clip6">
  <path d="M 222 353 L 289 353 L 289 398 L 222 398 Z M 222 353 "/>
</clipPath>
<clipPath id="clip7">
  <path d="M 219.574219 281.789062 L 290.4375 281.789062 C 290.441406 281.789062 290.445312 281.796875 290.445312 281.804688 L 290.445312 411.433594 C 290.445312 411.441406 290.441406 411.449219 290.4375 411.449219 L 219.574219 411.449219 C 219.574219 411.449219 219.570312 411.441406 219.570312 411.433594 L 219.570312 281.804688 C 219.570312 281.796875 219.574219 281.789062 219.574219 281.789062 Z M 219.574219 281.789062 "/>
</clipPath>
<clipPath id="clip8">
  <path d="M 216.835938 280.570312 L 293.425781 280.570312 C 293.429688 280.570312 293.433594 280.636719 293.433594 280.714844 L 293.433594 670.394531 C 293.433594 670.472656 293.429688 670.535156 293.425781 670.535156 L 216.835938 670.535156 C 216.832031 670.535156 216.828125 670.472656 216.828125 670.394531 L 216.828125 280.714844 C 216.828125 280.636719 216.832031 280.570312 216.835938 280.570312 Z M 216.835938 280.570312 "/>
</clipPath>
<clipPath id="clip9">
  <path d="M 222 389 L 289 389 L 289 412 L 222 412 Z M 222 389 "/>
</clipPath>
<clipPath id="clip10">
  <path d="M 219.574219 281.789062 L 290.4375 281.789062 C 290.441406 281.789062 290.445312 281.796875 290.445312 281.804688 L 290.445312 411.433594 C 290.445312 411.441406 290.441406 411.449219 290.4375 411.449219 L 219.574219 411.449219 C 219.574219 411.449219 219.570312 411.441406 219.570312 411.433594 L 219.570312 281.804688 C 219.570312 281.796875 219.574219 281.789062 219.574219 281.789062 Z M 219.574219 281.789062 "/>
</clipPath>
<clipPath id="clip11">
  <path d="M 216.835938 280.570312 L 293.425781 280.570312 C 293.429688 280.570312 293.433594 280.636719 293.433594 280.714844 L 293.433594 670.394531 C 293.433594 670.472656 293.429688 670.535156 293.425781 670.535156 L 216.835938 670.535156 C 216.832031 670.535156 216.828125 670.472656 216.828125 670.394531 L 216.828125 280.714844 C 216.828125 280.636719 216.832031 280.570312 216.835938 280.570312 Z M 216.835938 280.570312 "/>
</clipPath>
<clipPath id="clip12">
  <path d="M 222 300 L 289 300 L 289 344 L 222 344 Z M 222 300 "/>
</clipPath>
<clipPath id="clip13">
  <path d="M 219.574219 281.789062 L 290.4375 281.789062 C 290.441406 281.789062 290.445312 281.796875 290.445312 281.804688 L 290.445312 411.433594 C 290.445312 411.441406 290.441406 411.449219 290.4375 411.449219 L 219.574219 411.449219 C 219.574219 411.449219 219.570312 411.441406 219.570312 411.433594 L 219.570312 281.804688 C 219.570312 281.796875 219.574219 281.789062 219.574219 281.789062 Z M 219.574219 281.789062 "/>
</clipPath>
<clipPath id="clip14">
  <path d="M 216.835938 280.570312 L 293.425781 280.570312 C 293.429688 280.570312 293.433594 280.636719 293.433594 280.714844 L 293.433594 670.394531 C 293.433594 670.472656 293.429688 670.535156 293.425781 670.535156 L 216.835938 670.535156 C 216.832031 670.535156 216.828125 670.472656 216.828125 670.394531 L 216.828125 280.714844 C 216.828125 280.636719 216.832031 280.570312 216.835938 280.570312 Z M 216.835938 280.570312 "/>
</clipPath>
<clipPath id="clip15">
  <path d="M 222 317 L 289 317 L 289 362 L 222 362 Z M 222 317 "/>
</clipPath>
<clipPath id="clip16">
  <path d="M 219.574219 281.789062 L 290.4375 281.789062 C 290.441406 281.789062 290.445312 281.796875 290.445312 281.804688 L 290.445312 411.433594 C 290.445312 411.441406 290.441406 411.449219 290.4375 411.449219 L 219.574219 411.449219 C 219.574219 411.449219 219.570312 411.441406 219.570312 411.433594 L 219.570312 281.804688 C 219.570312 281.796875 219.574219 281.789062 219.574219 281.789062 Z M 219.574219 281.789062 "/>
</clipPath>
<clipPath id="clip17">
  <path d="M 216.835938 280.570312 L 293.425781 280.570312 C 293.429688 280.570312 293.433594 280.636719 293.433594 280.714844 L 293.433594 670.394531 C 293.433594 670.472656 293.429688 670.535156 293.425781 670.535156 L 216.835938 670.535156 C 216.832031 670.535156 216.828125 670.472656 216.828125 670.394531 L 216.828125 280.714844 C 216.828125 280.636719 216.832031 280.570312 216.835938 280.570312 Z M 216.835938 280.570312 "/>
</clipPath>
<clipPath id="clip18">
  <path d="M 222 371 L 289 371 L 289 412 L 222 412 Z M 222 371 "/>
</clipPath>
<clipPath id="clip19">
  <path d="M 219.574219 281.789062 L 290.4375 281.789062 C 290.441406 281.789062 290.445312 281.796875 290.445312 281.804688 L 290.445312 411.433594 C 290.445312 411.441406 290.441406 411.449219 290.4375 411.449219 L 219.574219 411.449219 C 219.574219 411.449219 219.570312 411.441406 219.570312 411.433594 L 219.570312 281.804688 C 219.570312 281.796875 219.574219 281.789062 219.574219 281.789062 Z M 219.574219 281.789062 "/>
</clipPath>
<clipPath id="clip20">
  <path d="M 216.835938 280.570312 L 293.425781 280.570312 C 293.429688 280.570312 293.433594 280.636719 293.433594 280.714844 L 293.433594 670.394531 C 293.433594 670.472656 293.429688 670.535156 293.425781 670.535156 L 216.835938 670.535156 C 216.832031 670.535156 216.828125 670.472656 216.828125 670.394531 L 216.828125 280.714844 C 216.828125 280.636719 216.832031 280.570312 216.835938 280.570312 Z M 216.835938 280.570312 "/>
</clipPath>
<clipPath id="clip21">
  <path d="M 222 282 L 289 282 L 289 326 L 222 326 Z M 222 282 "/>
</clipPath>
<clipPath id="clip22">
  <path d="M 219.574219 281.789062 L 290.4375 281.789062 C 290.441406 281.789062 290.445312 281.796875 290.445312 281.804688 L 290.445312 411.433594 C 290.445312 411.441406 290.441406 411.449219 290.4375 411.449219 L 219.574219 411.449219 C 219.574219 411.449219 219.570312 411.441406 219.570312 411.433594 L 219.570312 281.804688 C 219.570312 281.796875 219.574219 281.789062 219.574219 281.789062 Z M 219.574219 281.789062 "/>
</clipPath>
<clipPath id="clip23">
  <path d="M 216.835938 280.570312 L 293.425781 280.570312 C 293.429688 280.570312 293.433594 280.636719 293.433594 280.714844 L 293.433594 670.394531 C 293.433594 670.472656 293.429688 670.535156 293.425781 670.535156 L 216.835938 670.535156 C 216.832031 670.535156 216.828125 670.472656 216.828125 670.394531 L 216.828125 280.714844 C 216.828125 280.636719 216.832031 280.570312 216.835938 280.570312 Z M 216.835938 280.570312 "/>
</clipPath>
<clipPath id="clip24">
  <path d="M 222 335 L 289 335 L 289 380 L 222 380 Z M 222 335 "/>
</clipPath>
<clipPath id="clip25">
  <path d="M 219.574219 281.789062 L 290.4375 281.789062 C 290.441406 281.789062 290.445312 281.796875 290.445312 281.804688 L 290.445312 411.433594 C 290.445312 411.441406 290.441406 411.449219 290.4375 411.449219 L 219.574219 411.449219 C 219.574219 411.449219 219.570312 411.441406 219.570312 411.433594 L 219.570312 281.804688 C 219.570312 281.796875 219.574219 281.789062 219.574219 281.789062 Z M 219.574219 281.789062 "/>
</clipPath>
<clipPath id="clip26">
  <path d="M 216.835938 280.570312 L 293.425781 280.570312 C 293.429688 280.570312 293.433594 280.636719 293.433594 280.714844 L 293.433594 670.394531 C 293.433594 670.472656 293.429688 670.535156 293.425781 670.535156 L 216.835938 670.535156 C 216.832031 670.535156 216.828125 670.472656 216.828125 670.394531 L 216.828125 280.714844 C 216.828125 280.636719 216.832031 280.570312 216.835938 280.570312 Z M 216.835938 280.570312 "/>
</clipPath>
<clipPath id="clip27">
  <path d="M 222 281 L 289 281 L 289 309 L 222 309 Z M 222 281 "/>
</clipPath>
<clipPath id="clip28">
  <path d="M 219.574219 281.789062 L 290.4375 281.789062 C 290.441406 281.789062 290.445312 281.796875 290.445312 281.804688 L 290.445312 411.433594 C 290.445312 411.441406 290.441406 411.449219 290.4375 411.449219 L 219.574219 411.449219 C 219.574219 411.449219 219.570312 411.441406 219.570312 411.433594 L 219.570312 281.804688 C 219.570312 281.796875 219.574219 281.789062 219.574219 281.789062 Z M 219.574219 281.789062 "/>
</clipPath>
<clipPath id="clip29">
  <path d="M 216.835938 280.570312 L 293.425781 280.570312 C 293.429688 280.570312 293.433594 280.636719 293.433594 280.714844 L 293.433594 670.394531 C 293.433594 670.472656 293.429688 670.535156 293.425781 670.535156 L 216.835938 670.535156 C 216.832031 670.535156 216.828125 670.472656 216.828125 670.394531 L 216.828125 280.714844 C 216.828125 280.636719 216.832031 280.570312 216.835938 280.570312 Z M 216.835938 280.570312 "/>
</clipPath>
<clipPath id="clip30">
  <path d="M 222 407 L 289 407 L 289 412 L 222 412 Z M 222 407 "/>
</clipPath>
<clipPath id="clip31">
  <path d="M 219.574219 281.789062 L 290.4375 281.789062 C 290.441406 281.789062 290.445312 281.796875 290.445312 281.804688 L 290.445312 411.433594 C 290.445312 411.441406 290.441406 411.449219 290.4375 411.449219 L 219.574219 411.449219 C 219.574219 411.449219 219.570312 411.441406 219.570312 411.433594 L 219.570312 281.804688 C 219.570312 281.796875 219.574219 281.789062 219.574219 281.789062 Z M 219.574219 281.789062 "/>
</clipPath>
<clipPath id="clip32">
  <path d="M 216.835938 280.570312 L 293.425781 280.570312 C 293.429688 280.570312 293.433594 280.636719 293.433594 280.714844 L 293.433594 670.394531 C 293.433594 670.472656 293.429688 670.535156 293.425781 670.535156 L 216.835938 670.535156 C 216.832031 670.535156 216.828125 670.472656 216.828125 670.394531 L 216.828125 280.714844 C 216.828125 280.636719 216.832031 280.570312 216.835938 280.570312 Z M 216.835938 280.570312 "/>
</clipPath>
<clipPath id="clip33">
  <path d="M 222 353 L 289 353 L 289 398 L 222 398 Z M 222 353 "/>
</clipPath>
<clipPath id="clip34">
  <path d="M 219.574219 281.789062 L 290.4375 281.789062 C 290.441406 281.789062 290.445312 281.796875 290.445312 281.804688 L 290.445312 411.433594 C 290.445312 411.441406 290.441406 411.449219 290.4375 411.449219 L 219.574219 411.449219 C 219.574219 411.449219 219.570312 411.441406 219.570312 411.433594 L 219.570312 281.804688 C 219.570312 281.796875 219.574219 281.789062 219.574219 281.789062 Z M 219.574219 281.789062 "/>
</clipPath>
<clipPath id="clip35">
  <path d="M 216.835938 280.570312 L 293.425781 280.570312 C 293.429688 280.570312 293.433594 280.636719 293.433594 280.714844 L 293.433594 670.394531 C 293.433594 670.472656 293.429688 670.535156 293.425781 670.535156 L 216.835938 670.535156 C 216.832031 670.535156 216.828125 670.472656 216.828125 670.394531 L 216.828125 280.714844 C 216.828125 280.636719 216.832031 280.570312 216.835938 280.570312 Z M 216.835938 280.570312 "/>
</clipPath>
<clipPath id="clip36">
  <path d="M 222 389 L 289 389 L 289 412 L 222 412 Z M 222 389 "/>
</clipPath>
<clipPath id="clip37">
  <path d="M 219.574219 281.789062 L 290.4375 281.789062 C 290.441406 281.789062 290.445312 281.796875 290.445312 281.804688 L 290.445312 411.433594 C 290.445312 411.441406 290.441406 411.449219 290.4375 411.449219 L 219.574219 411.449219 C 219.574219 411.449219 219.570312 411.441406 219.570312 411.433594 L 219.570312 281.804688 C 219.570312 281.796875 219.574219 281.789062 219.574219 281.789062 Z M 219.574219 281.789062 "/>
</clipPath>
<clipPath id="clip38">
  <path d="M 216.835938 280.570312 L 293.425781 280.570312 C 293.429688 280.570312 293.433594 280.636719 293.433594 280.714844 L 293.433594 670.394531 C 293.433594 670.472656 293.429688 670.535156 293.425781 670.535156 L 216.835938 670.535156 C 216.832031 670.535156 216.828125 670.472656 216.828125 670.394531 L 216.828125 280.714844 C 216.828125 280.636719 216.832031 280.570312 216.835938 280.570312 Z M 216.835938 280.570312 "/>
</clipPath>
<clipPath id="clip39">
  <path d="M 222 300 L 289 300 L 289 344 L 222 344 Z M 222 300 "/>
</clipPath>
<clipPath id="clip40">
  <path d="M 219.574219 281.789062 L 290.4375 281.789062 C 290.441406 281.789062 290.445312 281.796875 290.445312 281.804688 L 290.445312 411.433594 C 290.445312 411.441406 290.441406 411.449219 290.4375 411.449219 L 219.574219 411.449219 C 219.574219 411.449219 219.570312 411.441406 219.570312 411.433594 L 219.570312 281.804688 C 219.570312 281.796875 219.574219 281.789062 219.574219 281.789062 Z M 219.574219 281.789062 "/>
</clipPath>
<clipPath id="clip41">
  <path d="M 216.835938 280.570312 L 293.425781 280.570312 C 293.429688 280.570312 293.433594 280.636719 293.433594 280.714844 L 293.433594 670.394531 C 293.433594 670.472656 293.429688 670.535156 293.425781 670.535156 L 216.835938 670.535156 C 216.832031 670.535156 216.828125 670.472656 216.828125 670.394531 L 216.828125 280.714844 C 216.828125 280.636719 216.832031 280.570312 216.835938 280.570312 Z M 216.835938 280.570312 "/>
</clipPath>
<clipPath id="clip42">
  <path d="M 222 317 L 289 317 L 289 362 L 222 362 Z M 222 317 "/>
</clipPath>
<clipPath id="clip43">
  <path d="M 219.574219 281.789062 L 290.4375 281.789062 C 290.441406 281.789062 290.445312 281.796875 290.445312 281.804688 L 290.445312 411.433594 C 290.445312 411.441406 290.441406 411.449219 290.4375 411.449219 L 219.574219 411.449219 C 219.574219 411.449219 219.570312 411.441406 219.570312 411.433594 L 219.570312 281.804688 C 219.570312 281.796875 219.574219 281.789062 219.574219 281.789062 Z M 219.574219 281.789062 "/>
</clipPath>
<clipPath id="clip44">
  <path d="M 216.835938 280.570312 L 293.425781 280.570312 C 293.429688 280.570312 293.433594 280.636719 293.433594 280.714844 L 293.433594 670.394531 C 293.433594 670.472656 293.429688 670.535156 293.425781 670.535156 L 216.835938 670.535156 C 216.832031 670.535156 216.828125 670.472656 216.828125 670.394531 L 216.828125 280.714844 C 216.828125 280.636719 216.832031 280.570312 216.835938 280.570312 Z M 216.835938 280.570312 "/>
</clipPath>
<clipPath id="clip45">
  <path d="M 222 371 L 289 371 L 289 412 L 222 412 Z M 222 371 "/>
</clipPath>
<clipPath id="clip46">
  <path d="M 219.574219 281.789062 L 290.4375 281.789062 C 290.441406 281.789062 290.445312 281.796875 290.445312 281.804688 L 290.445312 411.433594 C 290.445312 411.441406 290.441406 411.449219 290.4375 411.449219 L 219.574219 411.449219 C 219.574219 411.449219 219.570312 411.441406 219.570312 411.433594 L 219.570312 281.804688 C 219.570312 281.796875 219.574219 281.789062 219.574219 281.789062 Z M 219.574219 281.789062 "/>
</clipPath>
<clipPath id="clip47">
  <path d="M 216.835938 280.570312 L 293.425781 280.570312 C 293.429688 280.570312 293.433594 280.636719 293.433594 280.714844 L 293.433594 670.394531 C 293.433594 670.472656 293.429688 670.535156 293.425781 670.535156 L 216.835938 670.535156 C 216.832031 670.535156 216.828125 670.472656 216.828125 670.394531 L 216.828125 280.714844 C 216.828125 280.636719 216.832031 280.570312 216.835938 280.570312 Z M 216.835938 280.570312 "/>
</clipPath>
<clipPath id="clip48">
  <path d="M 222 282 L 289 282 L 289 326 L 222 326 Z M 222 282 "/>
</clipPath>
<clipPath id="clip49">
  <path d="M 219.574219 281.789062 L 290.4375 281.789062 C 290.441406 281.789062 290.445312 281.796875 290.445312 281.804688 L 290.445312 411.433594 C 290.445312 411.441406 290.441406 411.449219 290.4375 411.449219 L 219.574219 411.449219 C 219.574219 411.449219 219.570312 411.441406 219.570312 411.433594 L 219.570312 281.804688 C 219.570312 281.796875 219.574219 281.789062 219.574219 281.789062 Z M 219.574219 281.789062 "/>
</clipPath>
<clipPath id="clip50">
  <path d="M 216.835938 280.570312 L 293.425781 280.570312 C 293.429688 280.570312 293.433594 280.636719 293.433594 280.714844 L 293.433594 670.394531 C 293.433594 670.472656 293.429688 670.535156 293.425781 670.535156 L 216.835938 670.535156 C 216.832031 670.535156 216.828125 670.472656 216.828125 670.394531 L 216.828125 280.714844 C 216.828125 280.636719 216.832031 280.570312 216.835938 280.570312 Z M 216.835938 280.570312 "/>
</clipPath>
<clipPath id="clip51">
  <path d="M 222 335 L 289 335 L 289 380 L 222 380 Z M 222 335 "/>
</clipPath>
<clipPath id="clip52">
  <path d="M 219.574219 281.789062 L 290.4375 281.789062 C 290.441406 281.789062 290.445312 281.796875 290.445312 281.804688 L 290.445312 411.433594 C 290.445312 411.441406 290.441406 411.449219 290.4375 411.449219 L 219.574219 411.449219 C 219.574219 411.449219 219.570312 411.441406 219.570312 411.433594 L 219.570312 281.804688 C 219.570312 281.796875 219.574219 281.789062 219.574219 281.789062 Z M 219.574219 281.789062 "/>
</clipPath>
<clipPath id="clip53">
  <path d="M 216.835938 280.570312 L 293.425781 280.570312 C 293.429688 280.570312 293.433594 280.636719 293.433594 280.714844 L 293.433594 670.394531 C 293.433594 670.472656 293.429688 670.535156 293.425781 670.535156 L 216.835938 670.535156 C 216.832031 670.535156 216.828125 670.472656 216.828125 670.394531 L 216.828125 280.714844 C 216.828125 280.636719 216.832031 280.570312 216.835938 280.570312 Z M 216.835938 280.570312 "/>
</clipPath>
<clipPath id="clip54">
  <path d="M 222 281 L 289 281 L 289 309 L 222 309 Z M 222 281 "/>
</clipPath>
<clipPath id="clip55">
  <path d="M 219.574219 281.789062 L 290.4375 281.789062 C 290.441406 281.789062 290.445312 281.796875 290.445312 281.804688 L 290.445312 411.433594 C 290.445312 411.441406 290.441406 411.449219 290.4375 411.449219 L 219.574219 411.449219 C 219.574219 411.449219 219.570312 411.441406 219.570312 411.433594 L 219.570312 281.804688 C 219.570312 281.796875 219.574219 281.789062 219.574219 281.789062 Z M 219.574219 281.789062 "/>
</clipPath>
<clipPath id="clip56">
  <path d="M 216.835938 280.570312 L 293.425781 280.570312 C 293.429688 280.570312 293.433594 280.636719 293.433594 280.714844 L 293.433594 670.394531 C 293.433594 670.472656 293.429688 670.535156 293.425781 670.535156 L 216.835938 670.535156 C 216.832031 670.535156 216.828125 670.472656 216.828125 670.394531 L 216.828125 280.714844 C 216.828125 280.636719 216.832031 280.570312 216.835938 280.570312 Z M 216.835938 280.570312 "/>
</clipPath>
<clipPath id="clip57">
  <path d="M 222 407 L 289 407 L 289 412 L 222 412 Z M 222 407 "/>
</clipPath>
<clipPath id="clip58">
  <path d="M 219.574219 281.789062 L 290.4375 281.789062 C 290.441406 281.789062 290.445312 281.796875 290.445312 281.804688 L 290.445312 411.433594 C 290.445312 411.441406 290.441406 411.449219 290.4375 411.449219 L 219.574219 411.449219 C 219.574219 411.449219 219.570312 411.441406 219.570312 411.433594 L 219.570312 281.804688 C 219.570312 281.796875 219.574219 281.789062 219.574219 281.789062 Z M 219.574219 281.789062 "/>
</clipPath>
<clipPath id="clip59">
  <path d="M 216.835938 280.570312 L 293.425781 280.570312 C 293.429688 280.570312 293.433594 280.636719 293.433594 280.714844 L 293.433594 670.394531 C 293.433594 670.472656 293.429688 670.535156 293.425781 670.535156 L 216.835938 670.535156 C 216.832031 670.535156 216.828125 670.472656 216.828125 670.394531 L 216.828125 280.714844 C 216.828125 280.636719 216.832031 280.570312 216.835938 280.570312 Z M 216.835938 280.570312 "/>
</clipPath>
<clipPath id="clip60">
  <path d="M 222 353 L 289 353 L 289 398 L 222 398 Z M 222 353 "/>
</clipPath>
<clipPath id="clip61">
  <path d="M 219.574219 281.789062 L 290.4375 281.789062 C 290.441406 281.789062 290.445312 281.796875 290.445312 281.804688 L 290.445312 411.433594 C 290.445312 411.441406 290.441406 411.449219 290.4375 411.449219 L 219.574219 411.449219 C 219.574219 411.449219 219.570312 411.441406 219.570312 411.433594 L 219.570312 281.804688 C 219.570312 281.796875 219.574219 281.789062 219.574219 281.789062 Z M 219.574219 281.789062 "/>
</clipPath>
<clipPath id="clip62">
  <path d="M 216.835938 280.570312 L 293.425781 280.570312 C 293.429688 280.570312 293.433594 280.636719 293.433594 280.714844 L 293.433594 670.394531 C 293.433594 670.472656 293.429688 670.535156 293.425781 670.535156 L 216.835938 670.535156 C 216.832031 670.535156 216.828125 670.472656 216.828125 670.394531 L 216.828125 280.714844 C 216.828125 280.636719 216.832031 280.570312 216.835938 280.570312 Z M 216.835938 280.570312 "/>
</clipPath>
<clipPath id="clip63">
  <path d="M 222 389 L 289 389 L 289 412 L 222 412 Z M 222 389 "/>
</clipPath>
<clipPath id="clip64">
  <path d="M 219.574219 281.789062 L 290.4375 281.789062 C 290.441406 281.789062 290.445312 281.796875 290.445312 281.804688 L 290.445312 411.433594 C 290.445312 411.441406 290.441406 411.449219 290.4375 411.449219 L 219.574219 411.449219 C 219.574219 411.449219 219.570312 411.441406 219.570312 411.433594 L 219.570312 281.804688 C 219.570312 281.796875 219.574219 281.789062 219.574219 281.789062 Z M 219.574219 281.789062 "/>
</clipPath>
<clipPath id="clip65">
  <path d="M 216.835938 280.570312 L 293.425781 280.570312 C 293.429688 280.570312 293.433594 280.636719 293.433594 280.714844 L 293.433594 670.394531 C 293.433594 670.472656 293.429688 670.535156 293.425781 670.535156 L 216.835938 670.535156 C 216.832031 670.535156 216.828125 670.472656 216.828125 670.394531 L 216.828125 280.714844 C 216.828125 280.636719 216.832031 280.570312 216.835938 280.570312 Z M 216.835938 280.570312 "/>
</clipPath>
<clipPath id="clip66">
  <path d="M 222 300 L 289 300 L 289 344 L 222 344 Z M 222 300 "/>
</clipPath>
<clipPath id="clip67">
  <path d="M 219.574219 281.789062 L 290.4375 281.789062 C 290.441406 281.789062 290.445312 281.796875 290.445312 281.804688 L 290.445312 411.433594 C 290.445312 411.441406 290.441406 411.449219 290.4375 411.449219 L 219.574219 411.449219 C 219.574219 411.449219 219.570312 411.441406 219.570312 411.433594 L 219.570312 281.804688 C 219.570312 281.796875 219.574219 281.789062 219.574219 281.789062 Z M 219.574219 281.789062 "/>
</clipPath>
<clipPath id="clip68">
  <path d="M 216.835938 280.570312 L 293.425781 280.570312 C 293.429688 280.570312 293.433594 280.636719 293.433594 280.714844 L 293.433594 670.394531 C 293.433594 670.472656 293.429688 670.535156 293.425781 670.535156 L 216.835938 670.535156 C 216.832031 670.535156 216.828125 670.472656 216.828125 670.394531 L 216.828125 280.714844 C 216.828125 280.636719 216.832031 280.570312 216.835938 280.570312 Z M 216.835938 280.570312 "/>
</clipPath>
<clipPath id="clip69">
  <path d="M 222 317 L 289 317 L 289 362 L 222 362 Z M 222 317 "/>
</clipPath>
<clipPath id="clip70">
  <path d="M 219.574219 281.789062 L 290.4375 281.789062 C 290.441406 281.789062 290.445312 281.796875 290.445312 281.804688 L 290.445312 411.433594 C 290.445312 411.441406 290.441406 411.449219 290.4375 411.449219 L 219.574219 411.449219 C 219.574219 411.449219 219.570312 411.441406 219.570312 411.433594 L 219.570312 281.804688 C 219.570312 281.796875 219.574219 281.789062 219.574219 281.789062 Z M 219.574219 281.789062 "/>
</clipPath>
<clipPath id="clip71">
  <path d="M 216.835938 280.570312 L 293.425781 280.570312 C 293.429688 280.570312 293.433594 280.636719 293.433594 280.714844 L 293.433594 670.394531 C 293.433594 670.472656 293.429688 670.535156 293.425781 670.535156 L 216.835938 670.535156 C 216.832031 670.535156 216.828125 670.472656 216.828125 670.394531 L 216.828125 280.714844 C 216.828125 280.636719 216.832031 280.570312 216.835938 280.570312 Z M 216.835938 280.570312 "/>
</clipPath>
<clipPath id="clip72">
  <path d="M 222 371 L 289 371 L 289 412 L 222 412 Z M 222 371 "/>
</clipPath>
<clipPath id="clip73">
  <path d="M 219.574219 281.789062 L 290.4375 281.789062 C 290.441406 281.789062 290.445312 281.796875 290.445312 281.804688 L 290.445312 411.433594 C 290.445312 411.441406 290.441406 411.449219 290.4375 411.449219 L 219.574219 411.449219 C 219.574219 411.449219 219.570312 411.441406 219.570312 411.433594 L 219.570312 281.804688 C 219.570312 281.796875 219.574219 281.789062 219.574219 281.789062 Z M 219.574219 281.789062 "/>
</clipPath>
<clipPath id="clip74">
  <path d="M 216.835938 280.570312 L 293.425781 280.570312 C 293.429688 280.570312 293.433594 280.636719 293.433594 280.714844 L 293.433594 670.394531 C 293.433594 670.472656 293.429688 670.535156 293.425781 670.535156 L 216.835938 670.535156 C 216.832031 670.535156 216.828125 670.472656 216.828125 670.394531 L 216.828125 280.714844 C 216.828125 280.636719 216.832031 280.570312 216.835938 280.570312 Z M 216.835938 280.570312 "/>
</clipPath>
<clipPath id="clip75">
  <path d="M 222 282 L 289 282 L 289 326 L 222 326 Z M 222 282 "/>
</clipPath>
<clipPath id="clip76">
  <path d="M 219.574219 281.789062 L 290.4375 281.789062 C 290.441406 281.789062 290.445312 281.796875 290.445312 281.804688 L 290.445312 411.433594 C 290.445312 411.441406 290.441406 411.449219 290.4375 411.449219 L 219.574219 411.449219 C 219.574219 411.449219 219.570312 411.441406 219.570312 411.433594 L 219.570312 281.804688 C 219.570312 281.796875 219.574219 281.789062 219.574219 281.789062 Z M 219.574219 281.789062 "/>
</clipPath>
<clipPath id="clip77">
  <path d="M 216.835938 280.570312 L 293.425781 280.570312 C 293.429688 280.570312 293.433594 280.636719 293.433594 280.714844 L 293.433594 670.394531 C 293.433594 670.472656 293.429688 670.535156 293.425781 670.535156 L 216.835938 670.535156 C 216.832031 670.535156 216.828125 670.472656 216.828125 670.394531 L 216.828125 280.714844 C 216.828125 280.636719 216.832031 280.570312 216.835938 280.570312 Z M 216.835938 280.570312 "/>
</clipPath>
<clipPath id="clip78">
  <path d="M 222 335 L 289 335 L 289 380 L 222 380 Z M 222 335 "/>
</clipPath>
<clipPath id="clip79">
  <path d="M 219.574219 281.789062 L 290.4375 281.789062 C 290.441406 281.789062 290.445312 281.796875 290.445312 281.804688 L 290.445312 411.433594 C 290.445312 411.441406 290.441406 411.449219 290.4375 411.449219 L 219.574219 411.449219 C 219.574219 411.449219 219.570312 411.441406 219.570312 411.433594 L 219.570312 281.804688 C 219.570312 281.796875 219.574219 281.789062 219.574219 281.789062 Z M 219.574219 281.789062 "/>
</clipPath>
<clipPath id="clip80">
  <path d="M 216.835938 280.570312 L 293.425781 280.570312 C 293.429688 280.570312 293.433594 280.636719 293.433594 280.714844 L 293.433594 670.394531 C 293.433594 670.472656 293.429688 670.535156 293.425781 670.535156 L 216.835938 670.535156 C 216.832031 670.535156 216.828125 670.472656 216.828125 670.394531 L 216.828125 280.714844 C 216.828125 280.636719 216.832031 280.570312 216.835938 280.570312 Z M 216.835938 280.570312 "/>
</clipPath>
<clipPath id="clip81">
  <path d="M 222 281 L 289 281 L 289 309 L 222 309 Z M 222 281 "/>
</clipPath>
<clipPath id="clip82">
  <path d="M 219.574219 281.789062 L 290.4375 281.789062 C 290.441406 281.789062 290.445312 281.796875 290.445312 281.804688 L 290.445312 411.433594 C 290.445312 411.441406 290.441406 411.449219 290.4375 411.449219 L 219.574219 411.449219 C 219.574219 411.449219 219.570312 411.441406 219.570312 411.433594 L 219.570312 281.804688 C 219.570312 281.796875 219.574219 281.789062 219.574219 281.789062 Z M 219.574219 281.789062 "/>
</clipPath>
<clipPath id="clip83">
  <path d="M 216.835938 280.570312 L 293.425781 280.570312 C 293.429688 280.570312 293.433594 280.636719 293.433594 280.714844 L 293.433594 670.394531 C 293.433594 670.472656 293.429688 670.535156 293.425781 670.535156 L 216.835938 670.535156 C 216.832031 670.535156 216.828125 670.472656 216.828125 670.394531 L 216.828125 280.714844 C 216.828125 280.636719 216.832031 280.570312 216.835938 280.570312 Z M 216.835938 280.570312 "/>
</clipPath>
<clipPath id="clip84">
  <path d="M 222 407 L 289 407 L 289 412 L 222 412 Z M 222 407 "/>
</clipPath>
<clipPath id="clip85">
  <path d="M 219.574219 281.789062 L 290.4375 281.789062 C 290.441406 281.789062 290.445312 281.796875 290.445312 281.804688 L 290.445312 411.433594 C 290.445312 411.441406 290.441406 411.449219 290.4375 411.449219 L 219.574219 411.449219 C 219.574219 411.449219 219.570312 411.441406 219.570312 411.433594 L 219.570312 281.804688 C 219.570312 281.796875 219.574219 281.789062 219.574219 281.789062 Z M 219.574219 281.789062 "/>
</clipPath>
<clipPath id="clip86">
  <path d="M 216.835938 280.570312 L 293.425781 280.570312 C 293.429688 280.570312 293.433594 280.636719 293.433594 280.714844 L 293.433594 670.394531 C 293.433594 670.472656 293.429688 670.535156 293.425781 670.535156 L 216.835938 670.535156 C 216.832031 670.535156 216.828125 670.472656 216.828125 670.394531 L 216.828125 280.714844 C 216.828125 280.636719 216.832031 280.570312 216.835938 280.570312 Z M 216.835938 280.570312 "/>
</clipPath>
<clipPath id="clip87">
  <path d="M 222 353 L 289 353 L 289 398 L 222 398 Z M 222 353 "/>
</clipPath>
<clipPath id="clip88">
  <path d="M 219.574219 281.789062 L 290.4375 281.789062 C 290.441406 281.789062 290.445312 281.796875 290.445312 281.804688 L 290.445312 411.433594 C 290.445312 411.441406 290.441406 411.449219 290.4375 411.449219 L 219.574219 411.449219 C 219.574219 411.449219 219.570312 411.441406 219.570312 411.433594 L 219.570312 281.804688 C 219.570312 281.796875 219.574219 281.789062 219.574219 281.789062 Z M 219.574219 281.789062 "/>
</clipPath>
<clipPath id="clip89">
  <path d="M 216.835938 280.570312 L 293.425781 280.570312 C 293.429688 280.570312 293.433594 280.636719 293.433594 280.714844 L 293.433594 670.394531 C 293.433594 670.472656 293.429688 670.535156 293.425781 670.535156 L 216.835938 670.535156 C 216.832031 670.535156 216.828125 670.472656 216.828125 670.394531 L 216.828125 280.714844 C 216.828125 280.636719 216.832031 280.570312 216.835938 280.570312 Z M 216.835938 280.570312 "/>
</clipPath>
<clipPath id="clip90">
  <path d="M 222 389 L 289 389 L 289 412 L 222 412 Z M 222 389 "/>
</clipPath>
<clipPath id="clip91">
  <path d="M 219.574219 281.789062 L 290.4375 281.789062 C 290.441406 281.789062 290.445312 281.796875 290.445312 281.804688 L 290.445312 411.433594 C 290.445312 411.441406 290.441406 411.449219 290.4375 411.449219 L 219.574219 411.449219 C 219.574219 411.449219 219.570312 411.441406 219.570312 411.433594 L 219.570312 281.804688 C 219.570312 281.796875 219.574219 281.789062 219.574219 281.789062 Z M 219.574219 281.789062 "/>
</clipPath>
<clipPath id="clip92">
  <path d="M 216.835938 280.570312 L 293.425781 280.570312 C 293.429688 280.570312 293.433594 280.636719 293.433594 280.714844 L 293.433594 670.394531 C 293.433594 670.472656 293.429688 670.535156 293.425781 670.535156 L 216.835938 670.535156 C 216.832031 670.535156 216.828125 670.472656 216.828125 670.394531 L 216.828125 280.714844 C 216.828125 280.636719 216.832031 280.570312 216.835938 280.570312 Z M 216.835938 280.570312 "/>
</clipPath>
<clipPath id="clip93">
  <path d="M 222 300 L 289 300 L 289 344 L 222 344 Z M 222 300 "/>
</clipPath>
<clipPath id="clip94">
  <path d="M 219.574219 281.789062 L 290.4375 281.789062 C 290.441406 281.789062 290.445312 281.796875 290.445312 281.804688 L 290.445312 411.433594 C 290.445312 411.441406 290.441406 411.449219 290.4375 411.449219 L 219.574219 411.449219 C 219.574219 411.449219 219.570312 411.441406 219.570312 411.433594 L 219.570312 281.804688 C 219.570312 281.796875 219.574219 281.789062 219.574219 281.789062 Z M 219.574219 281.789062 "/>
</clipPath>
<clipPath id="clip95">
  <path d="M 216.835938 280.570312 L 293.425781 280.570312 C 293.429688 280.570312 293.433594 280.636719 293.433594 280.714844 L 293.433594 670.394531 C 293.433594 670.472656 293.429688 670.535156 293.425781 670.535156 L 216.835938 670.535156 C 216.832031 670.535156 216.828125 670.472656 216.828125 670.394531 L 216.828125 280.714844 C 216.828125 280.636719 216.832031 280.570312 216.835938 280.570312 Z M 216.835938 280.570312 "/>
</clipPath>
<clipPath id="clip96">
  <path d="M 222 317 L 289 317 L 289 362 L 222 362 Z M 222 317 "/>
</clipPath>
<clipPath id="clip97">
  <path d="M 219.574219 281.789062 L 290.4375 281.789062 C 290.441406 281.789062 290.445312 281.796875 290.445312 281.804688 L 290.445312 411.433594 C 290.445312 411.441406 290.441406 411.449219 290.4375 411.449219 L 219.574219 411.449219 C 219.574219 411.449219 219.570312 411.441406 219.570312 411.433594 L 219.570312 281.804688 C 219.570312 281.796875 219.574219 281.789062 219.574219 281.789062 Z M 219.574219 281.789062 "/>
</clipPath>
<clipPath id="clip98">
  <path d="M 216.835938 280.570312 L 293.425781 280.570312 C 293.429688 280.570312 293.433594 280.636719 293.433594 280.714844 L 293.433594 670.394531 C 293.433594 670.472656 293.429688 670.535156 293.425781 670.535156 L 216.835938 670.535156 C 216.832031 670.535156 216.828125 670.472656 216.828125 670.394531 L 216.828125 280.714844 C 216.828125 280.636719 216.832031 280.570312 216.835938 280.570312 Z M 216.835938 280.570312 "/>
</clipPath>
<clipPath id="clip99">
  <path d="M 222 371 L 289 371 L 289 412 L 222 412 Z M 222 371 "/>
</clipPath>
<clipPath id="clip100">
  <path d="M 219.574219 281.789062 L 290.4375 281.789062 C 290.441406 281.789062 290.445312 281.796875 290.445312 281.804688 L 290.445312 411.433594 C 290.445312 411.441406 290.441406 411.449219 290.4375 411.449219 L 219.574219 411.449219 C 219.574219 411.449219 219.570312 411.441406 219.570312 411.433594 L 219.570312 281.804688 C 219.570312 281.796875 219.574219 281.789062 219.574219 281.789062 Z M 219.574219 281.789062 "/>
</clipPath>
<clipPath id="clip101">
  <path d="M 216.835938 280.570312 L 293.425781 280.570312 C 293.429688 280.570312 293.433594 280.636719 293.433594 280.714844 L 293.433594 670.394531 C 293.433594 670.472656 293.429688 670.535156 293.425781 670.535156 L 216.835938 670.535156 C 216.832031 670.535156 216.828125 670.472656 216.828125 670.394531 L 216.828125 280.714844 C 216.828125 280.636719 216.832031 280.570312 216.835938 280.570312 Z M 216.835938 280.570312 "/>
</clipPath>
<clipPath id="clip102">
  <path d="M 222 282 L 289 282 L 289 326 L 222 326 Z M 222 282 "/>
</clipPath>
<clipPath id="clip103">
  <path d="M 219.574219 281.789062 L 290.4375 281.789062 C 290.441406 281.789062 290.445312 281.796875 290.445312 281.804688 L 290.445312 411.433594 C 290.445312 411.441406 290.441406 411.449219 290.4375 411.449219 L 219.574219 411.449219 C 219.574219 411.449219 219.570312 411.441406 219.570312 411.433594 L 219.570312 281.804688 C 219.570312 281.796875 219.574219 281.789062 219.574219 281.789062 Z M 219.574219 281.789062 "/>
</clipPath>
<clipPath id="clip104">
  <path d="M 216.835938 280.570312 L 293.425781 280.570312 C 293.429688 280.570312 293.433594 280.636719 293.433594 280.714844 L 293.433594 670.394531 C 293.433594 670.472656 293.429688 670.535156 293.425781 670.535156 L 216.835938 670.535156 C 216.832031 670.535156 216.828125 670.472656 216.828125 670.394531 L 216.828125 280.714844 C 216.828125 280.636719 216.832031 280.570312 216.835938 280.570312 Z M 216.835938 280.570312 "/>
</clipPath>
<clipPath id="clip105">
  <path d="M 222 335 L 289 335 L 289 380 L 222 380 Z M 222 335 "/>
</clipPath>
<clipPath id="clip106">
  <path d="M 219.574219 281.789062 L 290.4375 281.789062 C 290.441406 281.789062 290.445312 281.796875 290.445312 281.804688 L 290.445312 411.433594 C 290.445312 411.441406 290.441406 411.449219 290.4375 411.449219 L 219.574219 411.449219 C 219.574219 411.449219 219.570312 411.441406 219.570312 411.433594 L 219.570312 281.804688 C 219.570312 281.796875 219.574219 281.789062 219.574219 281.789062 Z M 219.574219 281.789062 "/>
</clipPath>
<clipPath id="clip107">
  <path d="M 216.835938 280.570312 L 293.425781 280.570312 C 293.429688 280.570312 293.433594 280.636719 293.433594 280.714844 L 293.433594 670.394531 C 293.433594 670.472656 293.429688 670.535156 293.425781 670.535156 L 216.835938 670.535156 C 216.832031 670.535156 216.828125 670.472656 216.828125 670.394531 L 216.828125 280.714844 C 216.828125 280.636719 216.832031 280.570312 216.835938 280.570312 Z M 216.835938 280.570312 "/>
</clipPath>
<clipPath id="clip108">
  <path d="M 222 281 L 289 281 L 289 309 L 222 309 Z M 222 281 "/>
</clipPath>
<clipPath id="clip109">
  <path d="M 219.574219 281.789062 L 290.4375 281.789062 C 290.441406 281.789062 290.445312 281.796875 290.445312 281.804688 L 290.445312 411.433594 C 290.445312 411.441406 290.441406 411.449219 290.4375 411.449219 L 219.574219 411.449219 C 219.574219 411.449219 219.570312 411.441406 219.570312 411.433594 L 219.570312 281.804688 C 219.570312 281.796875 219.574219 281.789062 219.574219 281.789062 Z M 219.574219 281.789062 "/>
</clipPath>
<clipPath id="clip110">
  <path d="M 216.835938 280.570312 L 293.425781 280.570312 C 293.429688 280.570312 293.433594 280.636719 293.433594 280.714844 L 293.433594 670.394531 C 293.433594 670.472656 293.429688 670.535156 293.425781 670.535156 L 216.835938 670.535156 C 216.832031 670.535156 216.828125 670.472656 216.828125 670.394531 L 216.828125 280.714844 C 216.828125 280.636719 216.832031 280.570312 216.835938 280.570312 Z M 216.835938 280.570312 "/>
</clipPath>
</defs>
<g id="surface1">
<g clip-path="url(#clip1)" clip-rule="nonzero">
<g clip-path="url(#clip2)" clip-rule="nonzero">
<path style=" stroke:none;fill-rule:evenodd;fill:rgb(21.568627%,78.431373%,44.313725%);fill-opacity:1;" d="M 234.121094 277.246094 L 277.621094 277.246094 C 277.652344 277.246094 277.675781 277.277344 277.675781 277.3125 L 277.675781 665.398438 C 277.675781 665.433594 277.652344 665.460938 277.621094 665.460938 L 234.121094 665.460938 C 234.089844 665.460938 234.066406 665.433594 234.066406 665.398438 L 234.066406 277.3125 C 234.066406 277.277344 234.089844 277.246094 234.121094 277.246094 Z M 234.121094 277.246094 "/>
</g>
</g>
<g clip-path="url(#clip3)" clip-rule="nonzero">
<g clip-path="url(#clip4)" clip-rule="nonzero">
<g clip-path="url(#clip5)" clip-rule="nonzero">
<path style=" stroke:none;fill-rule:evenodd;fill:rgb(21.568627%,78.431373%,44.313725%);fill-opacity:1;" d="M 222.957031 439.992188 L 281.484375 407.457031 C 281.5 407.449219 281.515625 407.453125 281.523438 407.46875 L 288.257812 418.699219 C 288.265625 418.710938 288.261719 418.726562 288.25 418.734375 L 229.722656 451.269531 C 229.710938 451.277344 229.691406 451.273438 229.683594 451.257812 L 222.949219 440.027344 C 222.941406 440.015625 222.945312 440 222.957031 439.992188 Z M 222.957031 439.992188 "/>
</g>
</g>
</g>
<g clip-path="url(#clip6)" clip-rule="nonzero">
<g clip-path="url(#clip7)" clip-rule="nonzero">
<g clip-path="url(#clip8)" clip-rule="nonzero">
<path style=" stroke:none;fill-rule:evenodd;fill:rgb(21.568627%,78.431373%,44.313725%);fill-opacity:1;" d="M 222.957031 386.269531 L 281.484375 353.734375 C 281.5 353.726562 281.515625 353.730469 281.523438 353.746094 L 288.257812 364.976562 C 288.265625 364.988281 288.261719 365.003906 288.25 365.011719 L 229.722656 397.546875 C 229.710938 397.554688 229.691406 397.550781 229.683594 397.535156 L 222.949219 386.304688 C 222.941406 386.292969 222.945312 386.277344 222.957031 386.269531 Z M 222.957031 386.269531 "/>
</g>
</g>
</g>
<g clip-path="url(#clip9)" clip-rule="nonzero">
<g clip-path="url(#clip10)" clip-rule="nonzero">
<g clip-path="url(#clip11)" clip-rule="nonzero">
<path style=" stroke:none;fill-rule:evenodd;fill:rgb(21.568627%,78.431373%,44.313725%);fill-opacity:1;" d="M 222.957031 422.082031 L 281.484375 389.546875 C 281.5 389.542969 281.515625 389.546875 281.523438 389.558594 L 288.257812 400.789062 C 288.265625 400.804688 288.261719 400.820312 288.25 400.828125 L 229.722656 433.363281 C 229.710938 433.371094 229.691406 433.363281 229.683594 433.351562 L 222.949219 422.121094 C 222.941406 422.105469 222.945312 422.089844 222.957031 422.082031 Z M 222.957031 422.082031 "/>
</g>
</g>
</g>
<g clip-path="url(#clip12)" clip-rule="nonzero">
<g clip-path="url(#clip13)" clip-rule="nonzero">
<g clip-path="url(#clip14)" clip-rule="nonzero">
<path style=" stroke:none;fill-rule:evenodd;fill:rgb(21.568627%,78.431373%,44.313725%);fill-opacity:1;" d="M 222.957031 332.546875 L 281.484375 300.011719 C 281.5 300.003906 281.515625 300.007812 281.523438 300.023438 L 288.257812 311.253906 C 288.265625 311.265625 288.261719 311.28125 288.25 311.289062 L 229.722656 343.824219 C 229.710938 343.832031 229.691406 343.828125 229.683594 343.8125 L 222.949219 332.582031 C 222.941406 332.570312 222.945312 332.554688 222.957031 332.546875 Z M 222.957031 332.546875 "/>
</g>
</g>
</g>
<g clip-path="url(#clip15)" clip-rule="nonzero">
<g clip-path="url(#clip16)" clip-rule="nonzero">
<g clip-path="url(#clip17)" clip-rule="nonzero">
<path style=" stroke:none;fill-rule:evenodd;fill:rgb(21.568627%,78.431373%,44.313725%);fill-opacity:1;" d="M 222.957031 350.453125 L 281.484375 317.917969 C 281.5 317.910156 281.515625 317.917969 281.523438 317.929688 L 288.257812 329.160156 C 288.265625 329.175781 288.261719 329.191406 288.25 329.199219 L 229.722656 361.734375 C 229.710938 361.738281 229.691406 361.734375 229.683594 361.722656 L 222.949219 350.492188 C 222.941406 350.476562 222.945312 350.460938 222.957031 350.453125 Z M 222.957031 350.453125 "/>
</g>
</g>
</g>
<g clip-path="url(#clip18)" clip-rule="nonzero">
<g clip-path="url(#clip19)" clip-rule="nonzero">
<g clip-path="url(#clip20)" clip-rule="nonzero">
<path style=" stroke:none;fill-rule:evenodd;fill:rgb(21.568627%,78.431373%,44.313725%);fill-opacity:1;" d="M 222.957031 404.175781 L 281.484375 371.640625 C 281.5 371.632812 281.515625 371.640625 281.523438 371.652344 L 288.257812 382.882812 C 288.265625 382.898438 288.261719 382.914062 288.25 382.921875 L 229.722656 415.457031 C 229.710938 415.460938 229.691406 415.457031 229.683594 415.445312 L 222.949219 404.214844 C 222.941406 404.199219 222.945312 404.183594 222.957031 404.175781 Z M 222.957031 404.175781 "/>
</g>
</g>
</g>
<g clip-path="url(#clip21)" clip-rule="nonzero">
<g clip-path="url(#clip22)" clip-rule="nonzero">
<g clip-path="url(#clip23)" clip-rule="nonzero">
<path style=" stroke:none;fill-rule:evenodd;fill:rgb(21.568627%,78.431373%,44.313725%);fill-opacity:1;" d="M 222.957031 314.636719 L 281.484375 282.101562 C 281.5 282.097656 281.515625 282.101562 281.523438 282.113281 L 288.257812 293.34375 C 288.265625 293.359375 288.261719 293.375 288.25 293.382812 L 229.722656 325.917969 C 229.710938 325.925781 229.691406 325.917969 229.683594 325.90625 L 222.949219 314.675781 C 222.941406 314.660156 222.945312 314.644531 222.957031 314.636719 Z M 222.957031 314.636719 "/>
</g>
</g>
</g>
<g clip-path="url(#clip24)" clip-rule="nonzero">
<g clip-path="url(#clip25)" clip-rule="nonzero">
<g clip-path="url(#clip26)" clip-rule="nonzero">
<path style=" stroke:none;fill-rule:evenodd;fill:rgb(21.568627%,78.431373%,44.313725%);fill-opacity:1;" d="M 222.957031 368.359375 L 281.484375 335.824219 C 281.5 335.820312 281.515625 335.824219 281.523438 335.835938 L 288.257812 347.066406 C 288.265625 347.082031 288.261719 347.097656 288.25 347.105469 L 229.722656 379.640625 C 229.710938 379.648438 229.691406 379.640625 229.683594 379.628906 L 222.949219 368.398438 C 222.941406 368.382812 222.945312 368.367188 222.957031 368.359375 Z M 222.957031 368.359375 "/>
</g>
</g>
</g>
<g clip-path="url(#clip27)" clip-rule="nonzero">
<g clip-path="url(#clip28)" clip-rule="nonzero">
<g clip-path="url(#clip29)" clip-rule="nonzero">
<path style=" stroke:none;fill-rule:evenodd;fill:rgb(21.568627%,78.431373%,44.313725%);fill-opacity:1;" d="M 222.957031 296.730469 L 281.484375 264.195312 C 281.5 264.1875 281.515625 264.195312 281.523438 264.207031 L 288.257812 275.4375 C 288.265625 275.453125 288.261719 275.46875 288.25 275.476562 L 229.722656 308.011719 C 229.710938 308.015625 229.691406 308.011719 229.683594 308 L 222.949219 296.769531 C 222.941406 296.753906 222.945312 296.738281 222.957031 296.730469 Z M 222.957031 296.730469 "/>
</g>
</g>
</g>
<g clip-path="url(#clip30)" clip-rule="nonzero">
<g clip-path="url(#clip31)" clip-rule="nonzero">
<g clip-path="url(#clip32)" clip-rule="nonzero">
<path style=" stroke:none;fill-rule:evenodd;fill:rgb(21.568627%,78.431373%,44.313725%);fill-opacity:1;" d="M 288.25 439.992188 L 229.722656 407.457031 C 229.710938 407.449219 229.691406 407.453125 229.683594 407.46875 L 222.949219 418.699219 C 222.941406 418.710938 222.945312 418.726562 222.957031 418.734375 L 281.484375 451.269531 C 281.5 451.277344 281.515625 451.273438 281.523438 451.257812 L 288.257812 440.027344 C 288.265625 440.015625 288.261719 440 288.25 439.992188 Z M 288.25 439.992188 "/>
</g>
</g>
</g>
<g clip-path="url(#clip33)" clip-rule="nonzero">
<g clip-path="url(#clip34)" clip-rule="nonzero">
<g clip-path="url(#clip35)" clip-rule="nonzero">
<path style=" stroke:none;fill-rule:evenodd;fill:rgb(21.568627%,78.431373%,44.313725%);fill-opacity:1;" d="M 288.25 386.269531 L 229.722656 353.734375 C 229.710938 353.726562 229.691406 353.730469 229.683594 353.746094 L 222.949219 364.976562 C 222.941406 364.988281 222.945312 365.003906 222.957031 365.011719 L 281.484375 397.546875 C 281.5 397.554688 281.515625 397.550781 281.523438 397.535156 L 288.257812 386.304688 C 288.265625 386.292969 288.261719 386.277344 288.25 386.269531 Z M 288.25 386.269531 "/>
</g>
</g>
</g>
<g clip-path="url(#clip36)" clip-rule="nonzero">
<g clip-path="url(#clip37)" clip-rule="nonzero">
<g clip-path="url(#clip38)" clip-rule="nonzero">
<path style=" stroke:none;fill-rule:evenodd;fill:rgb(21.568627%,78.431373%,44.313725%);fill-opacity:1;" d="M 288.25 422.082031 L 229.722656 389.546875 C 229.710938 389.542969 229.691406 389.546875 229.683594 389.558594 L 222.949219 400.789062 C 222.941406 400.804688 222.945312 400.820312 222.957031 400.828125 L 281.484375 433.363281 C 281.5 433.371094 281.515625 433.363281 281.523438 433.351562 L 288.257812 422.121094 C 288.265625 422.105469 288.261719 422.089844 288.25 422.082031 Z M 288.25 422.082031 "/>
</g>
</g>
</g>
<g clip-path="url(#clip39)" clip-rule="nonzero">
<g clip-path="url(#clip40)" clip-rule="nonzero">
<g clip-path="url(#clip41)" clip-rule="nonzero">
<path style=" stroke:none;fill-rule:evenodd;fill:rgb(21.568627%,78.431373%,44.313725%);fill-opacity:1;" d="M 288.25 332.546875 L 229.722656 300.011719 C 229.710938 300.003906 229.691406 300.007812 229.683594 300.023438 L 222.949219 311.253906 C 222.941406 311.265625 222.945312 311.28125 222.957031 311.289062 L 281.484375 343.824219 C 281.5 343.832031 281.515625 343.828125 281.523438 343.8125 L 288.257812 332.582031 C 288.265625 332.570312 288.261719 332.554688 288.25 332.546875 Z M 288.25 332.546875 "/>
</g>
</g>
</g>
<g clip-path="url(#clip42)" clip-rule="nonzero">
<g clip-path="url(#clip43)" clip-rule="nonzero">
<g clip-path="url(#clip44)" clip-rule="nonzero">
<path style=" stroke:none;fill-rule:evenodd;fill:rgb(21.568627%,78.431373%,44.313725%);fill-opacity:1;" d="M 288.25 350.453125 L 229.722656 317.917969 C 229.710938 317.910156 229.691406 317.917969 229.683594 317.929688 L 222.949219 329.160156 C 222.941406 329.175781 222.945312 329.191406 222.957031 329.199219 L 281.484375 361.734375 C 281.5 361.738281 281.515625 361.734375 281.523438 361.722656 L 288.257812 350.492188 C 288.265625 350.476562 288.261719 350.460938 288.25 350.453125 Z M 288.25 350.453125 "/>
</g>
</g>
</g>
<g clip-path="url(#clip45)" clip-rule="nonzero">
<g clip-path="url(#clip46)" clip-rule="nonzero">
<g clip-path="url(#clip47)" clip-rule="nonzero">
<path style=" stroke:none;fill-rule:evenodd;fill:rgb(21.568627%,78.431373%,44.313725%);fill-opacity:1;" d="M 288.25 404.175781 L 229.722656 371.640625 C 229.710938 371.632812 229.691406 371.640625 229.683594 371.652344 L 222.949219 382.882812 C 222.941406 382.898438 222.945312 382.914062 222.957031 382.921875 L 281.484375 415.457031 C 281.5 415.460938 281.515625 415.457031 281.523438 415.445312 L 288.257812 404.214844 C 288.265625 404.199219 288.261719 404.183594 288.25 404.175781 Z M 288.25 404.175781 "/>
</g>
</g>
</g>
<g clip-path="url(#clip48)" clip-rule="nonzero">
<g clip-path="url(#clip49)" clip-rule="nonzero">
<g clip-path="url(#clip50)" clip-rule="nonzero">
<path style=" stroke:none;fill-rule:evenodd;fill:rgb(21.568627%,78.431373%,44.313725%);fill-opacity:1;" d="M 288.25 314.636719 L 229.722656 282.101562 C 229.710938 282.097656 229.691406 282.101562 229.683594 282.113281 L 222.949219 293.34375 C 222.941406 293.359375 222.945312 293.375 222.957031 293.382812 L 281.484375 325.917969 C 281.5 325.925781 281.515625 325.917969 281.523438 325.90625 L 288.257812 314.675781 C 288.265625 314.660156 288.261719 314.644531 288.25 314.636719 Z M 288.25 314.636719 "/>
</g>
</g>
</g>
<g clip-path="url(#clip51)" clip-rule="nonzero">
<g clip-path="url(#clip52)" clip-rule="nonzero">
<g clip-path="url(#clip53)" clip-rule="nonzero">
<path style=" stroke:none;fill-rule:evenodd;fill:rgb(21.568627%,78.431373%,44.313725%);fill-opacity:1;" d="M 288.25 368.359375 L 229.722656 335.824219 C 229.710938 335.820312 229.691406 335.824219 229.683594 335.835938 L 222.949219 347.066406 C 222.941406 347.082031 222.945312 347.097656 222.957031 347.105469 L 281.484375 379.640625 C 281.5 379.648438 281.515625 379.640625 281.523438 379.628906 L 288.257812 368.398438 C 288.265625 368.382812 288.261719 368.367188 288.25 368.359375 Z M 288.25 368.359375 "/>
</g>
</g>
</g>
<g clip-path="url(#clip54)" clip-rule="nonzero">
<g clip-path="url(#clip55)" clip-rule="nonzero">
<g clip-path="url(#clip56)" clip-rule="nonzero">
<path style=" stroke:none;fill-rule:evenodd;fill:rgb(21.568627%,78.431373%,44.313725%);fill-opacity:1;" d="M 288.25 296.730469 L 229.722656 264.195312 C 229.710938 264.1875 229.691406 264.195312 229.683594 264.207031 L 222.949219 275.4375 C 222.941406 275.453125 222.945312 275.46875 222.957031 275.476562 L 281.484375 308.011719 C 281.5 308.015625 281.515625 308.011719 281.523438 308 L 288.257812 296.769531 C 288.265625 296.753906 288.261719 296.738281 288.25 296.730469 Z M 288.25 296.730469 "/>
</g>
</g>
</g>
<g clip-path="url(#clip57)" clip-rule="nonzero">
<g clip-path="url(#clip58)" clip-rule="nonzero">
<g clip-path="url(#clip59)" clip-rule="nonzero">
<path style=" stroke:none;fill-rule:evenodd;fill:rgb(21.568627%,78.431373%,44.313725%);fill-opacity:1;" d="M 222.957031 439.992188 L 281.484375 407.457031 C 281.5 407.449219 281.515625 407.453125 281.523438 407.46875 L 288.257812 418.699219 C 288.265625 418.710938 288.261719 418.726562 288.25 418.734375 L 229.722656 451.269531 C 229.710938 451.277344 229.691406 451.273438 229.683594 451.257812 L 222.949219 440.027344 C 222.941406 440.015625 222.945312 440 222.957031 439.992188 Z M 222.957031 439.992188 "/>
</g>
</g>
</g>
<g clip-path="url(#clip60)" clip-rule="nonzero">
<g clip-path="url(#clip61)" clip-rule="nonzero">
<g clip-path="url(#clip62)" clip-rule="nonzero">
<path style=" stroke:none;fill-rule:evenodd;fill:rgb(21.568627%,78.431373%,44.313725%);fill-opacity:1;" d="M 222.957031 386.269531 L 281.484375 353.734375 C 281.5 353.726562 281.515625 353.730469 281.523438 353.746094 L 288.257812 364.976562 C 288.265625 364.988281 288.261719 365.003906 288.25 365.011719 L 229.722656 397.546875 C 229.710938 397.554688 229.691406 397.550781 229.683594 397.535156 L 222.949219 386.304688 C 222.941406 386.292969 222.945312 386.277344 222.957031 386.269531 Z M 222.957031 386.269531 "/>
</g>
</g>
</g>
<g clip-path="url(#clip63)" clip-rule="nonzero">
<g clip-path="url(#clip64)" clip-rule="nonzero">
<g clip-path="url(#clip65)" clip-rule="nonzero">
<path style=" stroke:none;fill-rule:evenodd;fill:rgb(21.568627%,78.431373%,44.313725%);fill-opacity:1;" d="M 222.957031 422.082031 L 281.484375 389.546875 C 281.5 389.542969 281.515625 389.546875 281.523438 389.558594 L 288.257812 400.789062 C 288.265625 400.804688 288.261719 400.820312 288.25 400.828125 L 229.722656 433.363281 C 229.710938 433.371094 229.691406 433.363281 229.683594 433.351562 L 222.949219 422.121094 C 222.941406 422.105469 222.945312 422.089844 222.957031 422.082031 Z M 222.957031 422.082031 "/>
</g>
</g>
</g>
<g clip-path="url(#clip66)" clip-rule="nonzero">
<g clip-path="url(#clip67)" clip-rule="nonzero">
<g clip-path="url(#clip68)" clip-rule="nonzero">
<path style=" stroke:none;fill-rule:evenodd;fill:rgb(21.568627%,78.431373%,44.313725%);fill-opacity:1;" d="M 222.957031 332.546875 L 281.484375 300.011719 C 281.5 300.003906 281.515625 300.007812 281.523438 300.023438 L 288.257812 311.253906 C 288.265625 311.265625 288.261719 311.28125 288.25 311.289062 L 229.722656 343.824219 C 229.710938 343.832031 229.691406 343.828125 229.683594 343.8125 L 222.949219 332.582031 C 222.941406 332.570312 222.945312 332.554688 222.957031 332.546875 Z M 222.957031 332.546875 "/>
</g>
</g>
</g>
<g clip-path="url(#clip69)" clip-rule="nonzero">
<g clip-path="url(#clip70)" clip-rule="nonzero">
<g clip-path="url(#clip71)" clip-rule="nonzero">
<path style=" stroke:none;fill-rule:evenodd;fill:rgb(21.568627%,78.431373%,44.313725%);fill-opacity:1;" d="M 222.957031 350.453125 L 281.484375 317.917969 C 281.5 317.910156 281.515625 317.917969 281.523438 317.929688 L 288.257812 329.160156 C 288.265625 329.175781 288.261719 329.191406 288.25 329.199219 L 229.722656 361.734375 C 229.710938 361.738281 229.691406 361.734375 229.683594 361.722656 L 222.949219 350.492188 C 222.941406 350.476562 222.945312 350.460938 222.957031 350.453125 Z M 222.957031 350.453125 "/>
</g>
</g>
</g>
<g clip-path="url(#clip72)" clip-rule="nonzero">
<g clip-path="url(#clip73)" clip-rule="nonzero">
<g clip-path="url(#clip74)" clip-rule="nonzero">
<path style=" stroke:none;fill-rule:evenodd;fill:rgb(21.568627%,78.431373%,44.313725%);fill-opacity:1;" d="M 222.957031 404.175781 L 281.484375 371.640625 C 281.5 371.632812 281.515625 371.640625 281.523438 371.652344 L 288.257812 382.882812 C 288.265625 382.898438 288.261719 382.914062 288.25 382.921875 L 229.722656 415.457031 C 229.710938 415.460938 229.691406 415.457031 229.683594 415.445312 L 222.949219 404.214844 C 222.941406 404.199219 222.945312 404.183594 222.957031 404.175781 Z M 222.957031 404.175781 "/>
</g>
</g>
</g>
<g clip-path="url(#clip75)" clip-rule="nonzero">
<g clip-path="url(#clip76)" clip-rule="nonzero">
<g clip-path="url(#clip77)" clip-rule="nonzero">
<path style=" stroke:none;fill-rule:evenodd;fill:rgb(21.568627%,78.431373%,44.313725%);fill-opacity:1;" d="M 222.957031 314.636719 L 281.484375 282.101562 C 281.5 282.097656 281.515625 282.101562 281.523438 282.113281 L 288.257812 293.34375 C 288.265625 293.359375 288.261719 293.375 288.25 293.382812 L 229.722656 325.917969 C 229.710938 325.925781 229.691406 325.917969 229.683594 325.90625 L 222.949219 314.675781 C 222.941406 314.660156 222.945312 314.644531 222.957031 314.636719 Z M 222.957031 314.636719 "/>
</g>
</g>
</g>
<g clip-path="url(#clip78)" clip-rule="nonzero">
<g clip-path="url(#clip79)" clip-rule="nonzero">
<g clip-path="url(#clip80)" clip-rule="nonzero">
<path style=" stroke:none;fill-rule:evenodd;fill:rgb(21.568627%,78.431373%,44.313725%);fill-opacity:1;" d="M 222.957031 368.359375 L 281.484375 335.824219 C 281.5 335.820312 281.515625 335.824219 281.523438 335.835938 L 288.257812 347.066406 C 288.265625 347.082031 288.261719 347.097656 288.25 347.105469 L 229.722656 379.640625 C 229.710938 379.648438 229.691406 379.640625 229.683594 379.628906 L 222.949219 368.398438 C 222.941406 368.382812 222.945312 368.367188 222.957031 368.359375 Z M 222.957031 368.359375 "/>
</g>
</g>
</g>
<g clip-path="url(#clip81)" clip-rule="nonzero">
<g clip-path="url(#clip82)" clip-rule="nonzero">
<g clip-path="url(#clip83)" clip-rule="nonzero">
<path style=" stroke:none;fill-rule:evenodd;fill:rgb(21.568627%,78.431373%,44.313725%);fill-opacity:1;" d="M 222.957031 296.730469 L 281.484375 264.195312 C 281.5 264.1875 281.515625 264.195312 281.523438 264.207031 L 288.257812 275.4375 C 288.265625 275.453125 288.261719 275.46875 288.25 275.476562 L 229.722656 308.011719 C 229.710938 308.015625 229.691406 308.011719 229.683594 308 L 222.949219 296.769531 C 222.941406 296.753906 222.945312 296.738281 222.957031 296.730469 Z M 222.957031 296.730469 "/>
</g>
</g>
</g>
<g clip-path="url(#clip84)" clip-rule="nonzero">
<g clip-path="url(#clip85)" clip-rule="nonzero">
<g clip-path="url(#clip86)" clip-rule="nonzero">
<path style=" stroke:none;fill-rule:evenodd;fill:rgb(21.568627%,78.431373%,44.313725%);fill-opacity:1;" d="M 288.25 439.992188 L 229.722656 407.457031 C 229.710938 407.449219 229.691406 407.453125 229.683594 407.46875 L 222.949219 418.699219 C 222.941406 418.710938 222.945312 418.726562 222.957031 418.734375 L 281.484375 451.269531 C 281.5 451.277344 281.515625 451.273438 281.523438 451.257812 L 288.257812 440.027344 C 288.265625 440.015625 288.261719 440 288.25 439.992188 Z M 288.25 439.992188 "/>
</g>
</g>
</g>
<g clip-path="url(#clip87)" clip-rule="nonzero">
<g clip-path="url(#clip88)" clip-rule="nonzero">
<g clip-path="url(#clip89)" clip-rule="nonzero">
<path style=" stroke:none;fill-rule:evenodd;fill:rgb(21.568627%,78.431373%,44.313725%);fill-opacity:1;" d="M 288.25 386.269531 L 229.722656 353.734375 C 229.710938 353.726562 229.691406 353.730469 229.683594 353.746094 L 222.949219 364.976562 C 222.941406 364.988281 222.945312 365.003906 222.957031 365.011719 L 281.484375 397.546875 C 281.5 397.554688 281.515625 397.550781 281.523438 397.535156 L 288.257812 386.304688 C 288.265625 386.292969 288.261719 386.277344 288.25 386.269531 Z M 288.25 386.269531 "/>
</g>
</g>
</g>
<g clip-path="url(#clip90)" clip-rule="nonzero">
<g clip-path="url(#clip91)" clip-rule="nonzero">
<g clip-path="url(#clip92)" clip-rule="nonzero">
<path style=" stroke:none;fill-rule:evenodd;fill:rgb(21.568627%,78.431373%,44.313725%);fill-opacity:1;" d="M 288.25 422.082031 L 229.722656 389.546875 C 229.710938 389.542969 229.691406 389.546875 229.683594 389.558594 L 222.949219 400.789062 C 222.941406 400.804688 222.945312 400.820312 222.957031 400.828125 L 281.484375 433.363281 C 281.5 433.371094 281.515625 433.363281 281.523438 433.351562 L 288.257812 422.121094 C 288.265625 422.105469 288.261719 422.089844 288.25 422.082031 Z M 288.25 422.082031 "/>
</g>
</g>
</g>
<g clip-path="url(#clip93)" clip-rule="nonzero">
<g clip-path="url(#clip94)" clip-rule="nonzero">
<g clip-path="url(#clip95)" clip-rule="nonzero">
<path style=" stroke:none;fill-rule:evenodd;fill:rgb(21.568627%,78.431373%,44.313725%);fill-opacity:1;" d="M 288.25 332.546875 L 229.722656 300.011719 C 229.710938 300.003906 229.691406 300.007812 229.683594 300.023438 L 222.949219 311.253906 C 222.941406 311.265625 222.945312 311.28125 222.957031 311.289062 L 281.484375 343.824219 C 281.5 343.832031 281.515625 343.828125 281.523438 343.8125 L 288.257812 332.582031 C 288.265625 332.570312 288.261719 332.554688 288.25 332.546875 Z M 288.25 332.546875 "/>
</g>
</g>
</g>
<g clip-path="url(#clip96)" clip-rule="nonzero">
<g clip-path="url(#clip97)" clip-rule="nonzero">
<g clip-path="url(#clip98)" clip-rule="nonzero">
<path style=" stroke:none;fill-rule:evenodd;fill:rgb(21.568627%,78.431373%,44.313725%);fill-opacity:1;" d="M 288.25 350.453125 L 229.722656 317.917969 C 229.710938 317.910156 229.691406 317.917969 229.683594 317.929688 L 222.949219 329.160156 C 222.941406 329.175781 222.945312 329.191406 222.957031 329.199219 L 281.484375 361.734375 C 281.5 361.738281 281.515625 361.734375 281.523438 361.722656 L 288.257812 350.492188 C 288.265625 350.476562 288.261719 350.460938 288.25 350.453125 Z M 288.25 350.453125 "/>
</g>
</g>
</g>
<g clip-path="url(#clip99)" clip-rule="nonzero">
<g clip-path="url(#clip100)" clip-rule="nonzero">
<g clip-path="url(#clip101)" clip-rule="nonzero">
<path style=" stroke:none;fill-rule:evenodd;fill:rgb(21.568627%,78.431373%,44.313725%);fill-opacity:1;" d="M 288.25 404.175781 L 229.722656 371.640625 C 229.710938 371.632812 229.691406 371.640625 229.683594 371.652344 L 222.949219 382.882812 C 222.941406 382.898438 222.945312 382.914062 222.957031 382.921875 L 281.484375 415.457031 C 281.5 415.460938 281.515625 415.457031 281.523438 415.445312 L 288.257812 404.214844 C 288.265625 404.199219 288.261719 404.183594 288.25 404.175781 Z M 288.25 404.175781 "/>
</g>
</g>
</g>
<g clip-path="url(#clip102)" clip-rule="nonzero">
<g clip-path="url(#clip103)" clip-rule="nonzero">
<g clip-path="url(#clip104)" clip-rule="nonzero">
<path style=" stroke:none;fill-rule:evenodd;fill:rgb(21.568627%,78.431373%,44.313725%);fill-opacity:1;" d="M 288.25 314.636719 L 229.722656 282.101562 C 229.710938 282.097656 229.691406 282.101562 229.683594 282.113281 L 222.949219 293.34375 C 222.941406 293.359375 222.945312 293.375 222.957031 293.382812 L 281.484375 325.917969 C 281.5 325.925781 281.515625 325.917969 281.523438 325.90625 L 288.257812 314.675781 C 288.265625 314.660156 288.261719 314.644531 288.25 314.636719 Z M 288.25 314.636719 "/>
</g>
</g>
</g>
<g clip-path="url(#clip105)" clip-rule="nonzero">
<g clip-path="url(#clip106)" clip-rule="nonzero">
<g clip-path="url(#clip107)" clip-rule="nonzero">
<path style=" stroke:none;fill-rule:evenodd;fill:rgb(21.568627%,78.431373%,44.313725%);fill-opacity:1;" d="M 288.25 368.359375 L 229.722656 335.824219 C 229.710938 335.820312 229.691406 335.824219 229.683594 335.835938 L 222.949219 347.066406 C 222.941406 347.082031 222.945312 347.097656 222.957031 347.105469 L 281.484375 379.640625 C 281.5 379.648438 281.515625 379.640625 281.523438 379.628906 L 288.257812 368.398438 C 288.265625 368.382812 288.261719 368.367188 288.25 368.359375 Z M 288.25 368.359375 "/>
</g>
</g>
</g>
<g clip-path="url(#clip108)" clip-rule="nonzero">
<g clip-path="url(#clip109)" clip-rule="nonzero">
<g clip-path="url(#clip110)" clip-rule="nonzero">
<path style=" stroke:none;fill-rule:evenodd;fill:rgb(21.568627%,78.431373%,44.313725%);fill-opacity:1;" d="M 288.25 296.730469 L 229.722656 264.195312 C 229.710938 264.1875 229.691406 264.195312 229.683594 264.207031 L 222.949219 275.4375 C 222.941406 275.453125 222.945312 275.46875 222.957031 275.476562 L 281.484375 308.011719 C 281.5 308.015625 281.515625 308.011719 281.523438 308 L 288.257812 296.769531 C 288.265625 296.753906 288.261719 296.738281 288.25 296.730469 Z M 288.25 296.730469 "/>
</g>
</g>
</g>
<path style=" stroke:none;fill-rule:evenodd;fill:rgb(21.568627%,78.431373%,44.313725%);fill-opacity:1;" d="M 181.691406 266.453125 C 163.851562 266.410156 148.117188 271.136719 141.179688 285.460938 C 133.058594 302.234375 150.960938 317.171875 170.660156 306.996094 C 198.863281 292.433594 242.863281 291.980469 256 291.492188 C 269.136719 291.980469 313.136719 292.433594 341.339844 306.996094 C 361.039062 317.171875 378.941406 302.234375 370.820312 285.460938 C 352.796875 248.242188 275.398438 275.820312 256 283.4375 C 244.066406 278.753906 210.199219 266.519531 181.691406 266.453125 Z M 181.691406 266.453125 "/>
<path style=" stroke:none;fill-rule:evenodd;fill:rgb(21.568627%,78.431373%,44.313725%);fill-opacity:1;" d="M 256.257812 85.503906 C 255.371094 85.496094 254.476562 85.527344 253.570312 85.597656 C 221.761719 88.066406 206.105469 132.539062 229.742188 175.527344 C 251.542969 215.175781 250.90625 270.984375 249.800781 292.421875 L 270.414062 292.421875 C 268.539062 278.121094 263.535156 225.03125 283.683594 172.539062 C 302.671875 123.0625 283.734375 85.746094 256.257812 85.503906 Z M 256.257812 85.503906 "/>
<path style=" stroke:none;fill-rule:evenodd;fill:rgb(21.568627%,78.431373%,44.313725%);fill-opacity:1;" d="M 257.855469 292.464844 L 254.386719 103.628906 "/>
<path style=" stroke:none;fill-rule:evenodd;fill:rgb(21.568627%,78.431373%,44.313725%);fill-opacity:1;" d="M 261.089844 292.464844 L 257.621094 103.628906 "/>
<path style=" stroke:none;fill-rule:evenodd;fill:rgb(21.568627%,78.431373%,44.313725%);fill-opacity:1;" d="M 166.773438 116.40625 C 164.914062 116.417969 163.023438 116.550781 161.097656 116.808594 C 133.433594 120.507812 129.554688 155.210938 158.53125 171.425781 C 207.828125 199.011719 250.796875 271.144531 252.09375 269.875 L 256 267.742188 L 259.90625 269.875 C 261.203125 271.144531 304.171875 199.011719 353.46875 171.425781 C 382.445312 155.210938 378.566406 120.507812 350.902344 116.808594 C 295.261719 109.363281 265.859375 206.808594 256 247.867188 C 246.480469 208.230469 218.746094 116.035156 166.773438 116.40625 Z M 166.773438 116.40625 "/>
<path style=" stroke:none;fill-rule:evenodd;fill:rgb(21.568627%,78.431373%,44.313725%);fill-opacity:1;" d="M 146.757812 174.746094 C 140.019531 174.746094 133.4375 176.367188 127.164062 180.035156 C 106.113281 192.355469 114.699219 221.636719 143.527344 224.929688 C 192.578125 230.53125 251.554688 274.171875 252.171875 272.710938 L 256 267.925781 L 259.828125 272.710938 C 260.445312 274.171875 319.421875 230.53125 368.472656 224.929688 C 397.300781 221.636719 405.886719 192.355469 384.835938 180.035156 C 334.859375 150.789062 265.035156 251.679688 256 265.175781 C 248.101562 253.371094 193.714844 174.742188 146.757812 174.746094 Z M 146.757812 174.746094 "/>
<path style=" stroke:none;fill-rule:evenodd;fill:rgb(21.568627%,78.431373%,44.313725%);fill-opacity:1;" d="M 151.191406 222.863281 C 139.695312 222.914062 129.320312 226.359375 121.289062 234.847656 C 105.109375 251.9375 120.960938 276.75 148.558594 272.019531 C 182.480469 266.210938 226.550781 277.398438 248.464844 283.480469 L 249.910156 286.980469 C 249.941406 287.253906 252.15625 286.671875 256 285.59375 C 259.84375 286.671875 262.058594 287.253906 262.089844 286.980469 L 263.535156 283.480469 C 285.449219 277.398438 329.519531 266.210938 363.441406 272.019531 C 391.039062 276.75 406.890625 251.9375 390.710938 234.847656 C 356.933594 199.160156 281.796875 252.574219 256 272.820312 C 236.339844 257.390625 188.03125 222.703125 151.191406 222.863281 Z M 151.191406 222.863281 "/>
<path style=" stroke:none;fill-rule:evenodd;fill:rgb(21.568627%,78.431373%,44.313725%);fill-opacity:1;" d="M 255.542969 263.167969 C 255.542969 263.167969 307.269531 137.488281 353.585938 134.867188 "/>
<path style=" stroke:none;fill-rule:evenodd;fill:rgb(21.568627%,78.431373%,44.313725%);fill-opacity:1;" d="M 250.601562 280.269531 C 250.601562 280.269531 351.140625 225.277344 382.898438 248.113281 "/>
<path style=" stroke:none;fill-rule:evenodd;fill:rgb(21.568627%,78.431373%,44.313725%);fill-opacity:1;" d="M 258.574219 265.835938 C 258.574219 265.835938 342.683594 181.980469 380.90625 195.5 "/>
<path style=" stroke:none;fill-rule:evenodd;fill:rgb(21.568627%,78.431373%,44.313725%);fill-opacity:1;" d="M 254.191406 286.222656 C 254.191406 286.222656 343.238281 268.769531 361.75 293.605469 "/>
<path style=" stroke:none;fill-rule:evenodd;fill:rgb(21.568627%,78.431373%,44.313725%);fill-opacity:1;" d="M 256.457031 263.167969 C 256.457031 263.167969 204.730469 137.488281 158.414062 134.867188 "/>
<path style=" stroke:none;fill-rule:evenodd;fill:rgb(21.568627%,78.431373%,44.313725%);fill-opacity:1;" d="M 261.398438 280.269531 C 261.398438 280.269531 160.859375 225.277344 129.101562 248.113281 "/>
<path style=" stroke:none;fill-rule:evenodd;fill:rgb(21.568627%,78.431373%,44.313725%);fill-opacity:1;" d="M 253.425781 265.835938 C 253.425781 265.835938 169.316406 181.980469 131.09375 195.5 "/>
<path style=" stroke:none;fill-rule:evenodd;fill:rgb(21.568627%,78.431373%,44.313725%);fill-opacity:1;" d="M 257.808594 286.222656 C 257.808594 286.222656 168.761719 268.769531 150.25 293.605469 "/>
<path style=" stroke:none;fill-rule:evenodd;fill:rgb(21.568627%,78.431373%,44.313725%);fill-opacity:1;" d="M 257.207031 264.511719 C 257.207031 264.511719 308.929688 138.832031 355.25 136.214844 "/>
<path style=" stroke:none;fill-rule:evenodd;fill:rgb(21.568627%,78.431373%,44.313725%);fill-opacity:1;" d="M 250.980469 282.035156 C 250.980469 282.035156 351.515625 227.042969 383.277344 249.878906 "/>
<path style=" stroke:none;fill-rule:evenodd;fill:rgb(21.568627%,78.431373%,44.313725%);fill-opacity:1;" d="M 259.460938 267.480469 C 259.460938 267.480469 343.570312 183.625 381.792969 197.148438 "/>
<path style=" stroke:none;fill-rule:evenodd;fill:rgb(21.568627%,78.431373%,44.313725%);fill-opacity:1;" d="M 254.792969 264.511719 C 254.792969 264.511719 203.070312 138.832031 156.75 136.214844 "/>
<path style=" stroke:none;fill-rule:evenodd;fill:rgb(21.568627%,78.431373%,44.313725%);fill-opacity:1;" d="M 261.019531 282.035156 C 261.019531 282.035156 160.484375 227.042969 128.722656 249.878906 "/>
<path style=" stroke:none;fill-rule:evenodd;fill:rgb(21.568627%,78.431373%,44.313725%);fill-opacity:1;" d="M 252.539062 267.480469 C 252.539062 267.480469 168.429688 183.625 130.207031 197.148438 "/>
<path style=" stroke:none;fill-rule:evenodd;fill:rgb(21.568627%,78.431373%,44.313725%);fill-opacity:1;" d="M 254.054688 287.644531 C 254.054688 287.644531 343.101562 270.191406 361.613281 295.027344 "/>
<path style=" stroke:none;fill-rule:evenodd;fill:rgb(21.568627%,78.431373%,44.313725%);fill-opacity:1;" d="M 257.945312 287.644531 C 257.945312 287.644531 168.898438 270.191406 150.386719 295.027344 "/>
<path style=" stroke:none;fill-rule:evenodd;fill:rgb(23.921569%,77.254902%,90.588235%);fill-opacity:1;" d="M 168.304688 36.425781 C 82.851562 71.871094 27.136719 155.265625 27.105469 247.777344 C 27.21875 365.59375 116.742188 464.078125 234.011719 475.394531 L 234.011719 431.335938 C 141.054688 420.207031 71.058594 341.398438 70.988281 247.777344 C 71.054688 179.773438 108.425781 117.289062 168.304688 85.058594 Z M 343.695312 36.566406 L 343.695312 84.929688 C 403.613281 117.183594 440.992188 179.730469 441.011719 247.777344 C 440.894531 341.363281 370.910156 420.125 277.988281 431.246094 L 277.988281 475.574219 C 395.324219 464.25 484.875 365.660156 484.894531 247.777344 C 484.808594 155.316406 429.101562 71.988281 343.695312 36.566406 Z M 343.695312 36.566406 "/>
</g>
</svg>
