<?xml version="1.0" encoding="UTF-8"?>
<svg xmlns="http://www.w3.org/2000/svg" xmlns:xlink="http://www.w3.org/1999/xlink" width="512pt" height="512pt" viewBox="0 0 512 512" version="1.1">
<g id="surface1">
<path style="fill-rule:nonzero;fill:rgb(80%,0%,100%);fill-opacity:1;stroke-width:28.097435;stroke-linecap:butt;stroke-linejoin:miter;stroke:rgb(47.45098%,19.215686%,54.509804%);stroke-opacity:1;stroke-miterlimit:4;" d="M 82.0625 25.867188 L 429.9375 25.867188 C 460.972656 25.867188 486.132812 51.027344 486.132812 82.0625 L 486.132812 429.9375 C 486.132812 460.972656 460.972656 486.132812 429.9375 486.132812 L 82.0625 486.132812 C 51.027344 486.132812 25.867188 460.972656 25.867188 429.9375 L 25.867188 82.0625 C 25.867188 51.027344 51.027344 25.867188 82.0625 25.867188 Z M 82.0625 25.867188 "/>
<path style=" stroke:none;fill-rule:nonzero;fill:rgb(100%,100%,100%);fill-opacity:1;" d="M 176.554688 360.65625 C 176.570312 358.03125 177.15625 355.03125 177.855469 353.988281 C 178.554688 352.941406 187.6875 351.234375 198.148438 350.191406 C 212.769531 348.734375 217.679688 347.59375 219.390625 345.257812 C 220.96875 343.101562 221.613281 334.53125 221.613281 315.730469 L 221.613281 289.242188 L 207.972656 271.125 C 190.953125 248.515625 155.125 205.746094 144.933594 195.871094 L 137.273438 188.449219 L 92.429688 185.957031 L 91.890625 177.453125 C 91.535156 171.828125 92.121094 168.464844 93.625 167.511719 C 94.875 166.71875 128.386719 166.058594 168.089844 166.042969 L 240.28125 166.015625 L 241.179688 170.722656 C 241.675781 173.3125 241.664062 177.992188 241.15625 181.125 L 240.230469 186.824219 L 222.6875 186.945312 C 196.75 187.125 196.921875 186.925781 208.691406 203.363281 C 222.15625 222.167969 251.691406 260.019531 255.125 262.871094 C 258.523438 265.691406 258.800781 265.492188 289.714844 237.734375 C 301.898438 226.792969 311.410156 217.105469 310.851562 216.207031 C 310.296875 215.304688 304.230469 214.554688 297.371094 214.539062 C 290.511719 214.527344 284.054688 213.941406 283.019531 213.242188 C 280.800781 211.738281 277.097656 201.566406 277.097656 196.96875 C 277.097656 193.902344 279.980469 193.757812 341.257812 193.757812 C 376.542969 193.757812 405.410156 194.34375 405.40625 195.058594 C 405.398438 195.773438 402.445312 200.261719 398.839844 205.03125 L 392.28125 213.699219 L 376.738281 214.710938 C 362.578125 215.636719 360.296875 216.300781 351.082031 222.226562 C 335.121094 232.488281 299.976562 261.476562 286.203125 275.738281 L 273.632812 288.757812 L 273.632812 313.003906 C 273.632812 326.335938 274.097656 339.574219 274.667969 342.417969 L 275.699219 347.59375 L 297.378906 348.53125 C 309.300781 349.042969 319.839844 350.25 320.796875 351.203125 C 321.75 352.160156 322.027344 355.238281 321.414062 358.046875 L 320.292969 363.152344 L 291.484375 364.289062 C 275.636719 364.910156 243.289062 365.421875 219.601562 365.421875 L 176.527344 365.421875 Z M 176.554688 360.65625 "/>
<path style=" stroke:none;fill-rule:nonzero;fill:rgb(100%,100%,100%);fill-opacity:1;" d="M 384.800781 327.433594 C 382.859375 326.203125 382.355469 317.359375 382.199219 281.667969 C 382.09375 257.335938 382.484375 236.941406 383.070312 236.347656 C 384.277344 235.125 422.949219 238.460938 424.40625 239.917969 C 425.28125 240.792969 406.703125 316.421875 403.480469 325.109375 C 402.285156 328.328125 400.734375 329.003906 394.621094 328.984375 C 390.542969 328.96875 386.125 328.269531 384.800781 327.433594 Z M 384.800781 327.433594 "/>
<path style=" stroke:none;fill-rule:nonzero;fill:rgb(100%,100%,100%);fill-opacity:1;" d="M 381.570312 364.273438 C 380.179688 363.714844 379.402344 359.726562 379.402344 353.140625 L 379.402344 342.882812 L 388.1875 342.882812 C 398.585938 342.882812 404.171875 345.367188 403.046875 349.488281 C 402.609375 351.101562 401.753906 355.34375 401.152344 358.921875 C 400.0625 365.382812 400.003906 365.421875 391.898438 365.285156 C 387.410156 365.210938 382.761719 364.757812 381.570312 364.273438 Z M 381.570312 364.273438 "/>
</g>
</svg>
