<?xml version="1.0" encoding="UTF-8" standalone="no"?>
<svg
   xmlns:dc="http://purl.org/dc/elements/1.1/"
   xmlns:cc="http://creativecommons.org/ns#"
   xmlns:rdf="http://www.w3.org/1999/02/22-rdf-syntax-ns#"
   xmlns:svg="http://www.w3.org/2000/svg"
   xmlns="http://www.w3.org/2000/svg"
   xmlns:sodipodi="http://sodipodi.sourceforge.net/DTD/sodipodi-0.dtd"
   xmlns:inkscape="http://www.inkscape.org/namespaces/inkscape"
   width="256"
   height="256"
   viewBox="0 0 256 256"
   id="svg2"
   version="1.1"
   inkscape:version="0.91 r"
   sodipodi:docname="package-purge.svg">
  <metadata
     id="metadata18">
    <rdf:RDF>
      <cc:Work
         rdf:about="">
        <dc:format>image/svg+xml</dc:format>
        <dc:type
           rdf:resource="http://purl.org/dc/dcmitype/StillImage" />
      </cc:Work>
    </rdf:RDF>
  </metadata>
  <defs
     id="defs16" />
  <sodipodi:namedview
     pagecolor="#ffffff"
     bordercolor="#666666"
     borderopacity="1"
     objecttolerance="10"
     gridtolerance="10"
     guidetolerance="10"
     inkscape:pageopacity="0"
     inkscape:pageshadow="2"
     inkscape:window-width="1366"
     inkscape:window-height="714"
     id="namedview14"
     showgrid="true"
     inkscape:zoom="0.921875"
     inkscape:cx="191.89347"
     inkscape:cy="174.94053"
     inkscape:window-x="0"
     inkscape:window-y="0"
     inkscape:window-maximized="1"
     inkscape:current-layer="svg2">
    <inkscape:grid
       type="xygrid"
       id="grid3043" />
  </sodipodi:namedview>
  <path
     style="fill:#c19553"
     inkscape:connector-curvature="0"
     id="path6"
     d="M 16,0 C 9.03125,0 0,9.03125 0,16 l 0,208 c 0,6.59375 9.40625,16 16,16 l 208,0 c 6.59375,0 16,-9.40625 16,-16 L 240,16 C 240,9.40625 230.59375,0 224,0 z" />
  <path
     style="fill:#ffffff;fill-opacity:0.19599998"
     inkscape:connector-curvature="0"
     id="path8"
     d="M 16,0 C 9.03125,0 0,9.03125 0,16 l 0,64 c 27.09375,0 212.90625,0 240,0 l 0,-64 C 240,9.40625 230.59375,0 224,0 z" />
  <path
     style="fill:#ffffff;fill-opacity:0.39200003"
     inkscape:connector-curvature="0"
     id="path10"
     d="m 96,32 0,96 48,0 0,-96 z" />
  <g
     transform="matrix(0.5,0,0,0.5,142,142)"
     id="g4134">
    <path
       style="fill:#dc322f;fill-rule:evenodd"
       d="M 228,128.0122 C 227.9939,183.23681 183.22461,228 128,228 72.775391,228 28.006104,183.23681 28,128.0122 27.993896,72.778442 72.766235,28 128,28 c 55.23377,0 100.0061,44.778442 100,100.0122 z"
       id="path6-8"
       inkscape:connector-curvature="0" />
    <path
       inkscape:connector-curvature="0"
       id="rect4142"
       d="m 83.735275,65.780505 -17.954771,17.956486 44.263866,44.263869 -44.263866,44.26387 17.954771,17.95476 44.263865,-44.26386 44.26387,44.26386 17.95648,-17.95476 L 145.95563,128.00086 190.21949,83.736991 172.26301,65.780506 127.99914,110.04437 83.735275,65.780506 Z"
       style="opacity:1;fill:#ffffff;fill-opacity:1;stroke:none" />
  </g>
</svg>
