<?xml version="1.0" encoding="UTF-8"?>
<svg xmlns="http://www.w3.org/2000/svg" xmlns:xlink="http://www.w3.org/1999/xlink" width="256pt" height="256pt" viewBox="0 0 256 256" version="1.1">
<g id="surface1">
<path style="fill-rule:nonzero;fill:rgb(100%,100%,100%);fill-opacity:1;stroke-width:27.583374;stroke-linecap:butt;stroke-linejoin:miter;stroke:rgb(56.470588%,56.470588%,56.470588%);stroke-opacity:1;stroke-miterlimit:4;" d="M 85.242188 30.078125 L 426.757812 30.078125 C 457.21875 30.078125 481.921875 54.78125 481.921875 85.242188 L 481.921875 426.757812 C 481.921875 457.21875 457.21875 481.921875 426.757812 481.921875 L 85.242188 481.921875 C 54.78125 481.921875 30.078125 457.21875 30.078125 426.757812 L 30.078125 85.242188 C 30.078125 54.78125 54.78125 30.078125 85.242188 30.078125 Z M 85.242188 30.078125 " transform="matrix(0.5,0,0,0.5,0,0)"/>
<path style=" stroke:none;fill-rule:nonzero;fill:#FF5555;fill-opacity:1;" d="M 104.878906 220.632812 C 95.007812 219.246094 83.980469 216.722656 77.109375 214.277344 C 62.742188 209.167969 50.964844 200.851562 47.09375 193.089844 C 45.171875 189.234375 45.101562 188.578125 45.101562 175.351562 C 45.101562 167.671875 45.40625 161.621094 45.796875 161.621094 C 46.183594 161.621094 47.390625 163.148438 48.484375 165.015625 C 58.597656 182.265625 94.5625 193.730469 133.804688 192.207031 C 170.117188 190.800781 198.910156 179.871094 206.777344 164.511719 C 207.808594 162.496094 208.980469 160.847656 209.375 160.847656 C 210.6875 160.847656 211.132812 166.175781 210.785156 177.667969 C 210.476562 187.949219 210.257812 189.359375 208.460938 192.859375 C 202.1875 205.078125 184.128906 214.519531 157.382812 219.574219 C 146.191406 221.6875 116.613281 222.285156 104.878906 220.632812 Z M 109.121094 183.125 C 85.296875 180.730469 63.222656 172.601562 52.820312 162.390625 C 45.953125 155.652344 45.527344 154.292969 45.242188 138.285156 C 45.082031 129.082031 45.269531 124.59375 45.8125 124.59375 C 46.257812 124.59375 47.488281 125.964844 48.542969 127.636719 C 55.242188 138.25 72.714844 147.136719 95.546875 151.542969 C 141.070312 160.328125 194.339844 148.628906 206.441406 127.1875 C 207.722656 124.914062 209.066406 123.050781 209.425781 123.050781 C 210.597656 123.050781 211.144531 129.960938 210.789062 140.386719 C 210.476562 149.578125 210.226562 151.074219 208.34375 154.921875 C 198.636719 174.765625 153.53125 187.585938 109.121094 183.125 Z M 111.4375 145.332031 C 80.871094 142.632812 54.859375 131.238281 47.582031 117.363281 C 45.636719 113.652344 45.492188 112.671875 45.238281 101.3125 C 44.90625 86.527344 45.402344 85.113281 48.972656 90.679688 C 55.46875 100.800781 70.742188 108.582031 92.863281 113.03125 C 141.394531 122.796875 195.6875 110.820312 207.394531 87.761719 C 208.09375 86.382812 208.949219 85.253906 209.296875 85.253906 C 210.28125 85.253906 210.988281 106.066406 210.175781 111.054688 C 206.488281 133.71875 160.535156 149.671875 111.4375 145.332031 Z M 115.210938 107.546875 C 83.410156 105.523438 54.40625 93.140625 47.691406 78.714844 C 38.488281 58.953125 66.277344 39.65625 110.574219 35.050781 C 123.039062 33.757812 147.207031 34.53125 158.152344 36.574219 C 171.007812 38.976562 179.550781 41.667969 189.132812 46.332031 C 203.175781 53.167969 210.167969 61.328125 210.167969 70.867188 C 210.167969 93.617188 165.785156 110.761719 115.210938 107.546875 Z M 115.210938 107.546875 "/>
</g>
</svg>
