<?xml version="1.0" encoding="UTF-8"?>
<svg xmlns="http://www.w3.org/2000/svg" xmlns:xlink="http://www.w3.org/1999/xlink" width="96pt" height="96pt" viewBox="0 0 96 96" version="1.1">
<defs>
<clipPath id="clip1">
  <path d="M 49 47 L 94 47 L 94 92 L 49 92 Z M 49 47 "/>
</clipPath>
<clipPath id="clip2">
  <path d="M 70.820312 8.476562 C 48.992188 -4.128906 21.078125 3.351562 8.476562 25.179688 C -4.128906 47.007812 3.351562 74.921875 25.179688 87.523438 C 47.007812 100.128906 74.921875 92.648438 87.523438 70.820312 C 100.128906 48.992188 92.648438 21.078125 70.820312 8.476562 Z M 54.222656 37.21875 C 60.175781 40.65625 62.21875 48.269531 58.78125 54.222656 C 55.34375 60.175781 47.730469 62.21875 41.777344 58.78125 C 35.824219 55.34375 33.78125 47.730469 37.21875 41.777344 C 40.65625 35.824219 48.269531 33.78125 54.222656 37.21875 Z M 54.222656 37.21875 "/>
</clipPath>
<clipPath id="clip3">
  <path d="M 2 5 L 47 5 L 47 50 L 2 50 Z M 2 5 "/>
</clipPath>
<clipPath id="clip4">
  <path d="M 25.367188 87.953125 C 47.195312 100.558594 75.105469 93.078125 87.710938 71.25 C 100.3125 49.421875 92.832031 21.507812 71.003906 8.90625 C 49.175781 -3.695312 21.261719 3.78125 8.660156 25.609375 C -3.941406 47.4375 3.539062 75.351562 25.367188 87.953125 Z M 41.960938 59.210938 C 36.007812 55.773438 33.96875 48.160156 37.40625 42.207031 C 40.84375 36.253906 48.457031 34.214844 54.410156 37.652344 C 60.363281 41.089844 62.402344 48.699219 58.964844 54.652344 C 55.527344 60.605469 47.914062 62.648438 41.960938 59.210938 Z M 41.960938 59.210938 "/>
</clipPath>
</defs>
<g id="surface1">
<path style="fill-rule:nonzero;fill:rgb(50.196078%,50.196078%,50.196078%);fill-opacity:1;stroke-width:1.569832;stroke-linecap:butt;stroke-linejoin:miter;stroke:rgb(83.137255%,83.137255%,83.137255%);stroke-opacity:1;stroke-miterlimit:4;" d="M 256.00345 113.058786 C 186.641806 113.051649 130.412555 169.284351 130.414727 238.640622 C 130.40759 308.002266 186.640292 364.231517 255.996562 364.229345 C 325.358207 364.236482 381.587457 308.00378 381.585285 238.647509 C 381.592422 169.285865 325.35972 113.056614 256.00345 113.058786 Z M 255.995475 204.389923 C 274.911799 204.391023 290.255249 219.723211 290.254149 238.639534 C 290.253049 257.555858 274.920861 272.899308 256.004537 272.898208 C 237.088214 272.897108 221.744764 257.56492 221.745864 238.648597 C 221.746964 219.732273 237.079152 204.388823 255.995475 204.389923 Z M 255.995475 204.389923 " transform="matrix(0.314719,0.181703,-0.181703,0.314719,10.79431,-73.621785)"/>
<g clip-path="url(#clip1)" clip-rule="nonzero">
<g clip-path="url(#clip2)" clip-rule="nonzero">
<path style=" stroke:none;fill-rule:evenodd;fill:rgb(94.901961%,94.901961%,94.901961%);fill-opacity:1;" d="M 55.257812 47.011719 L 101.054688 54.746094 L 80.027344 91.167969 L 49.613281 51.878906 Z M 55.257812 47.011719 "/>
</g>
</g>
<g clip-path="url(#clip3)" clip-rule="nonzero">
<g clip-path="url(#clip4)" clip-rule="nonzero">
<path style=" stroke:none;fill-rule:evenodd;fill:rgb(94.901961%,94.901961%,94.901961%);fill-opacity:1;" d="M 40.929688 49.417969 L -4.867188 41.683594 L 16.160156 5.261719 L 46.570312 44.550781 Z M 40.929688 49.417969 "/>
</g>
</g>
<path style="fill-rule:nonzero;fill:rgb(100%,100%,100%);fill-opacity:1;stroke-width:2.780315;stroke-linecap:butt;stroke-linejoin:miter;stroke:rgb(90.588235%,90.588235%,90.588235%);stroke-opacity:1;stroke-miterlimit:4;" d="M 255.99858 185.025615 C 226.386859 185.030807 202.385672 209.028395 202.381555 238.645491 C 202.386747 268.257213 226.384336 292.2584 256.001432 292.262516 C 285.613154 292.257324 309.61434 268.259736 309.618457 238.64264 C 309.613265 209.030918 285.615677 185.029731 255.99858 185.025615 Z M 256.001271 210.18292 C 271.715098 210.183614 284.452537 222.936877 284.461152 238.64533 C 284.460458 254.359157 271.707194 267.096596 255.998742 267.105211 C 240.284915 267.104517 227.547475 254.351253 227.538861 238.642801 C 227.539555 222.928974 240.292818 210.191535 256.001271 210.18292 Z M 256.001271 210.18292 " transform="matrix(0.314719,0.181703,-0.181703,0.314719,10.79431,-73.621785)"/>
</g>
</svg>
