
<svg xmlns="http://www.w3.org/2000/svg" xmlns:xlink="http://www.w3.org/1999/xlink" width="22px" height="22px" viewBox="0 0 22 22" version="1.1">
<g id="surface1">
<path style="fill-rule:nonzero;fill:rgb(80%,80%,80%);fill-opacity:1;stroke-width:1;stroke-linecap:butt;stroke-linejoin:miter;stroke:rgb(23.137255%,20.392157%,20.392157%);stroke-opacity:1;stroke-miterlimit:4;" d="M 309.909091 42.454545 C 287.181818 42.454545 268.454545 63.363636 264.727273 91 L 444.545455 91 C 440.909091 63.363636 422.181818 42.454545 399.454545 42.454545 Z M 309.909091 42.454545 " transform="matrix(0.0429688,0,0,0.0429688,0,0)"/>
<path style=" stroke:none;fill-rule:nonzero;fill:#A9A9A9;fill-opacity:1;" d="M 2.832031 4.242188 L 19.167969 4.242188 C 20.457031 4.242188 21.507812 5.292969 21.507812 6.589844 L 21.507812 14.816406 C 21.507812 16.113281 20.457031 17.160156 19.167969 17.160156 L 2.832031 17.160156 C 1.542969 17.160156 0.492188 16.113281 0.492188 14.816406 L 0.492188 6.589844 C 0.492188 5.292969 1.542969 4.242188 2.832031 4.242188 Z M 2.832031 4.242188 "/>
<path style=" stroke:none;fill-rule:nonzero;fill:#A9A9A9;fill-opacity:1;" d="M 2.832031 7.257812 L 19.167969 7.257812 C 20.457031 7.257812 21.507812 8.308594 21.507812 9.601562 L 21.507812 17.832031 C 21.507812 19.125 20.457031 20.175781 19.167969 20.175781 L 2.832031 20.175781 C 1.542969 20.175781 0.492188 19.125 0.492188 17.832031 L 0.492188 9.601562 C 0.492188 8.308594 1.542969 7.257812 2.832031 7.257812 Z M 2.832031 7.257812 "/>
<path style=" stroke:none;fill-rule:nonzero;fill:rgb(100%,100%,100%);fill-opacity:1;" d="M 4.6875 16.277344 C 3.898438 15.867188 3.414062 15.121094 3.324219 14.171875 C 3.167969 12.53125 4.144531 11.316406 5.621094 11.3125 L 6.386719 11.3125 L 6.460938 10.28125 C 6.503906 9.683594 6.667969 9.03125 6.855469 8.734375 C 7.53125 7.652344 8.898438 7.320312 9.859375 8.007812 C 10.757812 8.648438 10.90625 9.230469 10.90625 12.160156 C 10.90625 14.71875 10.894531 14.789062 10.457031 15.398438 C 10.210938 15.742188 9.765625 16.140625 9.46875 16.285156 C 8.746094 16.640625 5.371094 16.632812 4.6875 16.277344 Z M 9.09375 15.96875 C 9.417969 15.863281 9.867188 15.550781 10.089844 15.273438 C 10.457031 14.816406 10.496094 14.59375 10.546875 12.515625 C 10.617188 9.746094 10.445312 8.972656 9.648438 8.394531 C 8.261719 7.390625 6.761719 8.691406 6.761719 10.894531 L 6.761719 11.652344 L 5.757812 11.738281 C 4.917969 11.808594 4.675781 11.917969 4.261719 12.402344 C 3.265625 13.566406 3.617188 15.375 4.941406 15.910156 C 5.648438 16.195312 8.285156 16.230469 9.09375 15.96875 Z M 9.09375 15.96875 "/>
<path style=" stroke:none;fill-rule:nonzero;fill:rgb(100%,100%,100%);fill-opacity:1;" d="M 17.074219 16.375 C 17.863281 15.964844 18.347656 15.21875 18.441406 14.269531 C 18.597656 12.628906 17.621094 11.414062 16.144531 11.414062 L 15.375 11.410156 L 15.304688 10.378906 C 15.261719 9.785156 15.09375 9.128906 14.910156 8.835938 C 14.234375 7.75 12.867188 7.417969 11.902344 8.105469 C 11.003906 8.746094 10.859375 9.328125 10.859375 12.261719 C 10.859375 14.816406 10.867188 14.886719 11.308594 15.496094 C 11.554688 15.839844 12 16.238281 12.296875 16.386719 C 13.019531 16.738281 16.390625 16.734375 17.074219 16.375 Z M 12.671875 16.066406 C 12.34375 15.960938 11.898438 15.648438 11.675781 15.375 C 11.304688 14.914062 11.269531 14.691406 11.21875 12.613281 C 11.148438 9.84375 11.316406 9.070312 12.117188 8.492188 C 13.5 7.488281 15.003906 8.792969 15.003906 10.996094 L 15.003906 11.753906 L 16.007812 11.839844 C 16.847656 11.910156 17.089844 12.015625 17.503906 12.5 C 18.496094 13.664062 18.144531 15.476562 16.820312 16.007812 C 16.117188 16.292969 13.480469 16.332031 12.671875 16.066406 Z M 12.671875 16.066406 "/>
</g>
</svg>
