
<svg xmlns="http://www.w3.org/2000/svg" xmlns:xlink="http://www.w3.org/1999/xlink" width="48px" height="48px" viewBox="0 0 48 48" version="1.1">
<g id="surface1">
<path style="fill-rule:nonzero;fill:rgb(80%,80%,80%);fill-opacity:1;stroke-width:1;stroke-linecap:butt;stroke-linejoin:miter;stroke:rgb(23.137255%,20.392157%,20.392157%);stroke-opacity:1;stroke-miterlimit:4;" d="M 309.875 42.458333 C 287.166667 42.458333 268.458333 63.333333 264.708333 90.958333 L 444.583333 90.958333 C 440.875 63.333333 422.166667 42.458333 399.458333 42.458333 Z M 309.875 42.458333 " transform="matrix(0.09375,0,0,0.09375,0,0)"/>
<path style=" stroke:none;fill-rule:nonzero;fill:#A9A9A9;fill-opacity:1;" d="M 6.183594 9.257812 L 41.816406 9.257812 C 44.636719 9.257812 46.921875 11.550781 46.921875 14.375 L 46.921875 32.328125 C 46.921875 35.152344 44.636719 37.445312 41.816406 37.445312 L 6.183594 37.445312 C 3.363281 37.445312 1.078125 35.152344 1.078125 32.328125 L 1.078125 14.375 C 1.078125 11.550781 3.363281 9.257812 6.183594 9.257812 Z M 6.183594 9.257812 "/>
<path style=" stroke:none;fill-rule:nonzero;fill:#A9A9A9;fill-opacity:1;" d="M 6.183594 15.835938 L 41.816406 15.835938 C 44.636719 15.835938 46.921875 18.125 46.921875 20.953125 L 46.921875 38.90625 C 46.921875 41.730469 44.636719 44.019531 41.816406 44.019531 L 6.183594 44.019531 C 3.363281 44.019531 1.078125 41.730469 1.078125 38.90625 L 1.078125 20.953125 C 1.078125 18.125 3.363281 15.835938 6.183594 15.835938 Z M 6.183594 15.835938 "/>
<path style=" stroke:none;fill-rule:nonzero;fill:rgb(100%,100%,100%);fill-opacity:1;" d="M 33.402344 24.8125 C 33.4375 24.519531 33.457031 24.21875 33.457031 23.917969 C 33.457031 20.179688 30.832031 17.132812 27.609375 17.132812 C 25.738281 17.132812 24.019531 18.160156 22.933594 19.839844 C 22.546875 19.734375 22.15625 19.679688 21.761719 19.679688 C 18.9375 19.679688 16.644531 22.34375 16.644531 25.617188 C 16.644531 25.699219 16.644531 25.78125 16.648438 25.859375 C 14.535156 26.589844 12.988281 28.867188 12.988281 31.554688 C 12.988281 34.828125 15.285156 37.492188 18.105469 37.492188 L 30.53125 37.492188 C 33.757812 37.492188 36.378906 34.449219 36.378906 30.707031 C 36.378906 28.230469 35.207031 25.996094 33.402344 24.8125 Z M 30.53125 35.796875 L 18.105469 35.796875 C 16.085938 35.796875 14.449219 33.894531 14.449219 31.554688 C 14.449219 29.210938 16.085938 27.3125 18.105469 27.3125 C 18.21875 27.3125 18.320312 27.339844 18.429688 27.351562 C 18.226562 26.820312 18.105469 26.234375 18.105469 25.617188 C 18.105469 23.273438 19.742188 21.375 21.761719 21.375 C 22.417969 21.375 23.03125 21.59375 23.566406 21.949219 C 24.226562 20.117188 25.789062 18.828125 27.609375 18.828125 C 30.03125 18.828125 31.992188 21.109375 31.992188 23.917969 C 31.992188 24.589844 31.875 25.226562 31.671875 25.8125 C 33.539062 26.398438 34.917969 28.355469 34.917969 30.707031 C 34.917969 33.515625 32.953125 35.796875 30.53125 35.796875 Z M 30.53125 35.796875 "/>
</g>
</svg>
