
<svg xmlns="http://www.w3.org/2000/svg" xmlns:xlink="http://www.w3.org/1999/xlink" width="128px" height="128px" viewBox="0 0 128 128" version="1.1">
<g id="surface1">
<path style="fill-rule:nonzero;fill:rgb(100%,100%,100%);fill-opacity:1;stroke-width:36.786812;stroke-linecap:butt;stroke-linejoin:miter;stroke:rgb(21.568627%,67.058824%,78.431373%);stroke-opacity:1;stroke-miterlimit:4;" d="M 112.703466 40.574903 L 568.152098 40.574903 C 608.789074 40.574903 641.729026 73.514855 641.729026 114.151831 L 641.729026 569.600463 C 641.729026 610.237439 608.789074 643.177391 568.152098 643.177391 L 112.703466 643.177391 C 72.06649 643.177391 39.126538 610.237439 39.126538 569.600463 L 39.126538 114.151831 C 39.126538 73.514855 72.06649 40.574903 112.703466 40.574903 Z M 112.703466 40.574903 " transform="matrix(0.18879,0,0,0.18879,0,0)"/>
<path style=" stroke:none;fill-rule:evenodd;fill:rgb(21.568627%,67.058824%,78.431373%);fill-opacity:1;" d="M 17.355469 67.796875 C 18.375 67.40625 19.578125 67.753906 20.609375 67.390625 C 21.664062 67.019531 23.457031 65.625 23.457031 65.625 C 21.5625 60.203125 19.757812 54.742188 19.117188 48.8125 C 19.136719 48.8125 28.398438 49.820312 32.8125 49.421875 C 35.511719 49.179688 37.96875 47.835938 40.679688 47.863281 C 42.835938 47.890625 44.757812 49.492188 46.914062 49.625 C 52.363281 49.960938 57.121094 46.609375 63.1875 46.375 C 66.945312 46.226562 69.746094 51.339844 73.492188 50.984375 C 77.789062 50.574219 82.078125 49.335938 86.386719 49.1875 C 89.050781 49.09375 91.703125 48.777344 94.34375 48.421875 C 96.5625 48.121094 98.726562 47.425781 100.960938 47.269531 C 101.949219 47.199219 103.933594 47.367188 103.933594 47.367188 C 104.839844 50.394531 104.65625 53.238281 104.507812 56.089844 C 98.484375 60.148438 92.367188 64.210938 87.921875 68.265625 C 89.289062 70.542969 91.566406 72.34375 94.34375 72.773438 L 99.90625 73.636719 C 100.921875 76.203125 99.320312 78.3125 97.988281 79.675781 C 97.988281 79.675781 95.710938 79.019531 94.535156 78.910156 C 90.84375 78.570312 87.078125 78.722656 83.414062 79.292969 C 80.265625 79.78125 76.632812 79.808594 74.210938 81.882812 C 65.382812 89.441406 53.160156 110.382812 52.882812 110.101562 L 47.457031 120.679688 L 16.542969 120.40625 L 8.40625 110.914062 L 7.59375 74.578125 C 7.59375 74.578125 13.65625 69.210938 17.355469 67.796875 Z M 17.355469 67.796875 "/>
<path style=" stroke:none;fill-rule:evenodd;fill:rgb(100%,100%,100%);fill-opacity:1;" d="M 51.199219 60.980469 C 51.199219 60.980469 54.023438 57.566406 55.800781 56.28125 C 57.503906 55.050781 59.414062 53.976562 61.457031 53.5 C 62.984375 53.148438 64.660156 53.039062 66.15625 53.5 C 67.453125 53.902344 69.40625 54.453125 69.511719 55.804688 C 69.582031 56.679688 68.328125 57.132812 67.59375 57.625 C 66.808594 58.148438 65.929688 58.589844 65.007812 58.773438 C 63.6875 59.039062 62.3125 58.539062 60.976562 58.679688 C 57.648438 59.027344 51.199219 60.980469 51.199219 60.980469 Z M 51.199219 60.980469 "/>
</g>
</svg>
