
<svg xmlns="http://www.w3.org/2000/svg" xmlns:xlink="http://www.w3.org/1999/xlink" width="128px" height="128px" viewBox="0 0 128 128" version="1.1">
<defs>
<clipPath id="clip1">
  <path d="M 83 21.75 L 103.75 21.75 L 103.75 58.25 L 83 58.25 Z M 83 21.75 "/>
</clipPath>
<clipPath id="clip2">
  <path d="M -14.5 -28.25 L 145.203125 -28.25 C 154.488281 -28.25 162.015625 -20.722656 162.015625 -11.4375 L 162.015625 148.265625 C 162.015625 157.546875 154.488281 165.074219 145.203125 165.074219 L -14.5 165.074219 C -23.78125 165.074219 -31.308594 157.546875 -31.308594 148.265625 L -31.308594 -11.4375 C -31.308594 -20.722656 -23.78125 -28.25 -14.5 -28.25 Z M -14.5 -28.25 "/>
</clipPath>
<clipPath id="clip3">
  <path d="M 56 80.25 L 79.5 80.25 L 79.5 114.75 L 56 114.75 Z M 56 80.25 "/>
</clipPath>
<clipPath id="clip4">
  <path d="M -14.5 -28.25 L 145.203125 -28.25 C 154.488281 -28.25 162.015625 -20.722656 162.015625 -11.4375 L 162.015625 148.265625 C 162.015625 157.546875 154.488281 165.074219 145.203125 165.074219 L -14.5 165.074219 C -23.78125 165.074219 -31.308594 157.546875 -31.308594 148.265625 L -31.308594 -11.4375 C -31.308594 -20.722656 -23.78125 -28.25 -14.5 -28.25 Z M -14.5 -28.25 "/>
</clipPath>
<clipPath id="clip5">
  <path d="M 48 42.25 L 89.5 42.25 L 89.5 102.75 L 48 102.75 Z M 48 42.25 "/>
</clipPath>
<clipPath id="clip6">
  <path d="M -14.5 -28.25 L 145.203125 -28.25 C 154.488281 -28.25 162.015625 -20.722656 162.015625 -11.4375 L 162.015625 148.265625 C 162.015625 157.546875 154.488281 165.074219 145.203125 165.074219 L -14.5 165.074219 C -23.78125 165.074219 -31.308594 157.546875 -31.308594 148.265625 L -31.308594 -11.4375 C -31.308594 -20.722656 -23.78125 -28.25 -14.5 -28.25 Z M -14.5 -28.25 "/>
</clipPath>
<clipPath id="clip7">
  <path d="M 32.25 27.75 L 74.75 27.75 L 74.75 85.75 L 32.25 85.75 Z M 32.25 27.75 "/>
</clipPath>
<clipPath id="clip8">
  <path d="M -14.5 -28.25 L 145.203125 -28.25 C 154.488281 -28.25 162.015625 -20.722656 162.015625 -11.4375 L 162.015625 148.265625 C 162.015625 157.546875 154.488281 165.074219 145.203125 165.074219 L -14.5 165.074219 C -23.78125 165.074219 -31.308594 157.546875 -31.308594 148.265625 L -31.308594 -11.4375 C -31.308594 -20.722656 -23.78125 -28.25 -14.5 -28.25 Z M -14.5 -28.25 "/>
</clipPath>
<clipPath id="clip9">
  <path d="M 42.25 35.25 L 107.25 35.25 L 107.25 59.5 L 42.25 59.5 Z M 42.25 35.25 "/>
</clipPath>
<clipPath id="clip10">
  <path d="M -14.5 -28.25 L 145.203125 -28.25 C 154.488281 -28.25 162.015625 -20.722656 162.015625 -11.4375 L 162.015625 148.265625 C 162.015625 157.546875 154.488281 165.074219 145.203125 165.074219 L -14.5 165.074219 C -23.78125 165.074219 -31.308594 157.546875 -31.308594 148.265625 L -31.308594 -11.4375 C -31.308594 -20.722656 -23.78125 -28.25 -14.5 -28.25 Z M -14.5 -28.25 "/>
</clipPath>
<clipPath id="clip11">
  <path d="M 44.75 13.75 L 76.5 13.75 L 76.5 78 L 44.75 78 Z M 44.75 13.75 "/>
</clipPath>
<clipPath id="clip12">
  <path d="M -14.5 -28.25 L 145.203125 -28.25 C 154.488281 -28.25 162.015625 -20.722656 162.015625 -11.4375 L 162.015625 148.265625 C 162.015625 157.546875 154.488281 165.074219 145.203125 165.074219 L -14.5 165.074219 C -23.78125 165.074219 -31.308594 157.546875 -31.308594 148.265625 L -31.308594 -11.4375 C -31.308594 -20.722656 -23.78125 -28.25 -14.5 -28.25 Z M -14.5 -28.25 "/>
</clipPath>
<clipPath id="clip13">
  <path d="M 27 58.75 L 84.25 58.75 L 84.25 97 L 27 97 Z M 27 58.75 "/>
</clipPath>
<clipPath id="clip14">
  <path d="M -14.5 -28.25 L 145.203125 -28.25 C 154.488281 -28.25 162.015625 -20.722656 162.015625 -11.4375 L 162.015625 148.265625 C 162.015625 157.546875 154.488281 165.074219 145.203125 165.074219 L -14.5 165.074219 C -23.78125 165.074219 -31.308594 157.546875 -31.308594 148.265625 L -31.308594 -11.4375 C -31.308594 -20.722656 -23.78125 -28.25 -14.5 -28.25 Z M -14.5 -28.25 "/>
</clipPath>
<clipPath id="clip15">
  <path d="M 10.5 43.25 L 50.75 43.25 L 50.75 48.75 L 10.5 48.75 Z M 10.5 43.25 "/>
</clipPath>
<clipPath id="clip16">
  <path d="M -14.5 -28.25 L 145.203125 -28.25 C 154.488281 -28.25 162.015625 -20.722656 162.015625 -11.4375 L 162.015625 148.265625 C 162.015625 157.546875 154.488281 165.074219 145.203125 165.074219 L -14.5 165.074219 C -23.78125 165.074219 -31.308594 157.546875 -31.308594 148.265625 L -31.308594 -11.4375 C -31.308594 -20.722656 -23.78125 -28.25 -14.5 -28.25 Z M -14.5 -28.25 "/>
</clipPath>
<clipPath id="clip17">
  <path d="M 54.5 44.5 L 111.75 44.5 L 111.75 83.5 L 54.5 83.5 Z M 54.5 44.5 "/>
</clipPath>
<clipPath id="clip18">
  <path d="M -14.5 -28.25 L 145.203125 -28.25 C 154.488281 -28.25 162.015625 -20.722656 162.015625 -11.4375 L 162.015625 148.265625 C 162.015625 157.546875 154.488281 165.074219 145.203125 165.074219 L -14.5 165.074219 C -23.78125 165.074219 -31.308594 157.546875 -31.308594 148.265625 L -31.308594 -11.4375 C -31.308594 -20.722656 -23.78125 -28.25 -14.5 -28.25 Z M -14.5 -28.25 "/>
</clipPath>
</defs>
<g id="surface1">
<path style="fill-rule:nonzero;fill:rgb(100%,100%,100%);fill-opacity:1;stroke-width:13.893481;stroke-linecap:butt;stroke-linejoin:miter;stroke:rgb(6.27451%,59.607843%,63.137255%);stroke-opacity:1;stroke-miterlimit:4;" d="M 43.076934 13.118379 L 215.092558 13.118379 C 230.436308 13.118379 242.881621 25.563692 242.881621 40.907441 L 242.881621 212.923067 C 242.881621 228.266817 230.436308 240.712129 215.092558 240.712129 L 43.076934 240.712129 C 27.733183 240.712129 15.287871 228.266817 15.287871 212.923067 L 15.287871 40.907441 C 15.287871 25.563692 27.733183 13.118379 43.076934 13.118379 Z M 43.076934 13.118379 " transform="matrix(0.5,0,0,0.5,-0.542373,0.542373)"/>
<g clip-path="url(#clip1)" clip-rule="nonzero">
<g clip-path="url(#clip2)" clip-rule="nonzero">
<path style=" stroke:none;fill-rule:nonzero;fill:rgb(0%,63.529412%,87.058824%);fill-opacity:1;" d="M 103.679688 21.816406 C 99.511719 32.898438 91.875 44.714844 83.125 55.140625 C 83.125 55.140625 86.804688 57.769531 86.820312 58.148438 C 95.140625 46.882812 101.578125 34.257812 103.671875 21.816406 M 103.671875 21.816406 "/>
</g>
</g>
<g clip-path="url(#clip3)" clip-rule="nonzero">
<g clip-path="url(#clip4)" clip-rule="nonzero">
<path style=" stroke:none;fill-rule:nonzero;fill:rgb(0%,63.529412%,87.058824%);fill-opacity:1;" d="M 79.421875 114.652344 C 71.835938 105.574219 65.320312 93.097656 60.5625 80.359375 C 60.5625 80.359375 56.453125 82.246094 56.125 82.082031 C 61.820312 94.871094 69.640625 106.703125 79.421875 114.652344 M 79.421875 114.652344 "/>
</g>
</g>
<g clip-path="url(#clip5)" clip-rule="nonzero">
<g clip-path="url(#clip6)" clip-rule="nonzero">
<path style=" stroke:none;fill-rule:nonzero;fill:rgb(0%,63.529412%,87.058824%);fill-opacity:1;" d="M 76.617188 42.40625 C 105.804688 66.320312 60.527344 100.226562 53.566406 95.773438 C 50.941406 93.902344 54.386719 88.453125 55.359375 84.542969 C 51.679688 88.789062 45.65625 96.53125 49.019531 100.796875 C 59.59375 112.878906 113.71875 63.234375 76.617188 42.398438 M 76.617188 42.398438 "/>
</g>
</g>
<g clip-path="url(#clip7)" clip-rule="nonzero">
<g clip-path="url(#clip8)" clip-rule="nonzero">
<path style=" stroke:none;fill-rule:nonzero;fill:rgb(0%,63.529412%,87.058824%);fill-opacity:1;" d="M 74.640625 81.660156 C 39.164062 94.515625 33.269531 38.222656 40.640625 34.527344 C 43.59375 33.230469 46.503906 38.976562 49.355469 41.796875 C 47.617188 36.460938 44.035156 27.320312 38.652344 28.027344 C 22.890625 30.929688 37.765625 102.902344 74.625 81.660156 M 74.625 81.660156 "/>
</g>
</g>
<g clip-path="url(#clip9)" clip-rule="nonzero">
<g clip-path="url(#clip10)" clip-rule="nonzero">
<path style=" stroke:none;fill-rule:nonzero;fill:rgb(0%,63.529412%,87.058824%);fill-opacity:1;" d="M 42.335938 59.460938 C 49.246094 22.324219 100.710938 45.800781 100.136719 54.039062 C 99.757812 57.242188 93.34375 56.847656 89.449219 57.882812 C 94.933594 59.0625 104.617188 60.640625 106.734375 55.617188 C 112.238281 40.546875 42.730469 16.875 42.335938 59.460938 M 42.335938 59.460938 "/>
</g>
</g>
<g clip-path="url(#clip11)" clip-rule="nonzero">
<g clip-path="url(#clip12)" clip-rule="nonzero">
<path style=" stroke:none;fill-rule:nonzero;fill:rgb(0%,63.529412%,87.058824%);fill-opacity:1;" d="M 58.652344 75.925781 C 50.886719 52.648438 49.3125 28.710938 58.0625 25.492188 C 63.953125 23.6875 69.914062 37.703125 76.398438 40.496094 C 74.507812 33.683594 64.148438 12.867188 53.296875 13.835938 C 41.464844 15.625 42.464844 48.523438 54.480469 77.992188 C 54.480469 77.992188 58.976562 75.941406 58.648438 75.941406 M 58.648438 75.941406 "/>
</g>
</g>
<g clip-path="url(#clip13)" clip-rule="nonzero">
<g clip-path="url(#clip14)" clip-rule="nonzero">
<path style=" stroke:none;fill-rule:nonzero;fill:rgb(0%,63.529412%,87.058824%);fill-opacity:1;" d="M 80.207031 58.96875 C 63.777344 77.171875 43.746094 90.339844 36.625 84.308594 C 32.15625 80.0625 41.417969 67.957031 40.644531 60.945312 C 35.652344 65.9375 22.652344 85.195312 28.839844 94.1875 C 36.210938 103.609375 64.332031 86.570312 84.019531 61.601562 C 84.019531 61.601562 80.03125 58.679688 80.195312 58.976562 M 80.195312 58.976562 "/>
</g>
</g>
<g clip-path="url(#clip15)" clip-rule="nonzero">
<g clip-path="url(#clip16)" clip-rule="nonzero">
<path style=" stroke:none;fill-rule:nonzero;fill:rgb(0%,63.529412%,87.058824%);fill-opacity:1;" d="M 10.71875 48.164062 C 22.359375 46.046875 36.40625 46.554688 49.824219 48.726562 C 49.824219 48.726562 50.203125 44.210938 50.511719 44.015625 C 36.589844 42.636719 22.453125 43.585938 10.71875 48.164062 M 10.71875 48.164062 "/>
</g>
</g>
<g clip-path="url(#clip17)" clip-rule="nonzero">
<g clip-path="url(#clip18)" clip-rule="nonzero">
<path style=" stroke:none;fill-rule:nonzero;fill:rgb(0%,63.529412%,87.058824%);fill-opacity:1;" d="M 54.597656 49.28125 C 78.648438 54.039062 100.21875 64.496094 98.691406 73.722656 C 97.328125 79.734375 82.210938 77.992188 76.59375 82.257812 C 83.421875 83.980469 106.621094 85.261719 111.152344 75.332031 C 115.453125 64.171875 86.414062 48.753906 54.890625 44.632812 C 54.890625 44.632812 54.433594 49.554688 54.597656 49.273438 M 54.597656 49.273438 "/>
</g>
</g>
</g>
</svg>
