
<svg xmlns="http://www.w3.org/2000/svg" xmlns:xlink="http://www.w3.org/1999/xlink" width="128px" height="128px" viewBox="0 0 128 128" version="1.1">
<g id="surface1">
<path style="fill-rule:nonzero;fill:rgb(16.862745%,23.529412%,30.588235%);fill-opacity:1;stroke-width:2.541277;stroke-linecap:butt;stroke-linejoin:miter;stroke:rgb(16.862745%,65.882353%,92.156863%);stroke-opacity:1;stroke-miterlimit:4;" d="M 188.505647 692.998514 L 219.969025 692.998514 C 222.775666 692.998514 225.050568 695.273416 225.050568 698.081521 L 225.050568 729.544899 C 225.050568 732.35154 222.775666 734.626442 219.969025 734.626442 L 188.505647 734.626442 C 185.697542 734.626442 183.422639 732.35154 183.422639 729.544899 L 183.422639 698.081521 C 183.422639 695.273416 185.697542 692.998514 188.505647 692.998514 Z M 188.505647 692.998514 " transform="matrix(2.666667,0,0,2.666667,-480.63096,-1839.5)"/>
<path style=" stroke:none;fill-rule:nonzero;fill:rgb(92.54902%,94.117647%,94.509804%);fill-opacity:1;" d="M 81.5 82.664062 L 81.5 116.636719 L 116.1875 82.664062 Z M 81.5 82.664062 "/>
<path style=" stroke:none;fill-rule:evenodd;fill:rgb(100%,50.196078%,50.196078%);fill-opacity:1;" d="M 31.335938 33.246094 L 33.328125 31.25 L 37.679688 35.601562 L 35.6875 37.597656 Z M 31.335938 33.246094 "/>
<path style=" stroke:none;fill-rule:nonzero;fill:rgb(17.254902%,24.313725%,31.372549%);fill-opacity:1;" d="M 21.820312 20.324219 L 50.015625 20.324219 L 50.015625 48.523438 L 21.820312 48.523438 Z M 21.820312 20.324219 "/>
<path style=" stroke:none;fill-rule:evenodd;fill:rgb(18.039216%,80%,44.313725%);fill-opacity:1;" d="M 34.503906 23.851562 C 31.734375 23.851562 28.984375 24.992188 27.03125 26.949219 C 25.074219 28.90625 23.933594 31.65625 23.933594 34.425781 C 23.933594 37.191406 25.074219 39.945312 27.03125 41.898438 C 28.984375 43.859375 31.734375 45 34.503906 45 C 37.273438 45 40.023438 43.859375 41.984375 41.902344 C 43.941406 39.945312 45.082031 37.191406 45.082031 34.425781 L 42.261719 34.425781 C 42.261719 36.453125 41.425781 38.472656 39.988281 39.90625 C 38.554688 41.34375 36.535156 42.179688 34.503906 42.179688 C 32.472656 42.179688 30.457031 41.34375 29.023438 39.90625 C 27.585938 38.472656 26.753906 36.453125 26.753906 34.425781 C 26.753906 32.394531 27.585938 30.375 29.023438 28.941406 C 30.457031 27.507812 32.472656 26.671875 34.503906 26.671875 C 34.507812 26.671875 34.507812 26.671875 34.507812 26.671875 L 34.507812 23.851562 C 34.507812 23.851562 34.507812 23.851562 34.503906 23.851562 Z M 34.503906 23.851562 "/>
<path style=" stroke:none;fill-rule:evenodd;fill:rgb(92.54902%,94.117647%,94.509804%);fill-opacity:1;" d="M 45.90625 23.851562 L 35.917969 33.839844 L 33.328125 31.25 L 31.335938 33.246094 L 35.917969 37.828125 L 47.902344 25.84375 Z M 45.90625 23.851562 "/>
<path style=" stroke:none;fill-rule:evenodd;fill:rgb(100%,50.196078%,50.196078%);fill-opacity:1;" d="M 31.335938 89.640625 L 33.328125 87.648438 L 37.679688 92 L 35.6875 93.992188 Z M 31.335938 89.640625 "/>
<path style=" stroke:none;fill-rule:nonzero;fill:rgb(17.254902%,24.313725%,31.372549%);fill-opacity:1;" d="M 21.820312 76.71875 L 50.015625 76.71875 L 50.015625 104.917969 L 21.820312 104.917969 Z M 21.820312 76.71875 "/>
<path style=" stroke:none;fill-rule:evenodd;fill:rgb(18.039216%,80%,44.313725%);fill-opacity:1;" d="M 34.503906 80.246094 C 31.734375 80.246094 28.984375 81.386719 27.03125 83.34375 C 25.074219 85.300781 23.933594 88.050781 23.933594 90.820312 C 23.933594 93.585938 25.074219 96.339844 27.03125 98.296875 C 28.984375 100.253906 31.734375 101.394531 34.503906 101.394531 C 37.273438 101.394531 40.023438 100.253906 41.984375 98.296875 C 43.941406 96.339844 45.082031 93.585938 45.082031 90.820312 L 42.261719 90.820312 C 42.261719 92.851562 41.425781 94.867188 39.988281 96.304688 C 38.554688 97.738281 36.535156 98.574219 34.503906 98.574219 C 32.472656 98.574219 30.457031 97.738281 29.023438 96.304688 C 27.585938 94.867188 26.753906 92.851562 26.753906 90.820312 C 26.753906 88.789062 27.585938 86.773438 29.023438 85.335938 C 30.457031 83.902344 32.472656 83.066406 34.503906 83.066406 C 34.507812 83.066406 34.507812 83.066406 34.507812 83.066406 L 34.507812 80.246094 C 34.507812 80.246094 34.507812 80.246094 34.503906 80.246094 Z M 34.503906 80.246094 "/>
<path style=" stroke:none;fill-rule:evenodd;fill:rgb(92.54902%,94.117647%,94.509804%);fill-opacity:1;" d="M 45.90625 80.246094 L 35.917969 90.234375 L 33.328125 87.648438 L 31.335938 89.640625 L 35.917969 94.222656 L 47.902344 82.238281 Z M 45.90625 80.246094 "/>
<path style=" stroke:none;fill-rule:evenodd;fill:rgb(100%,50.196078%,50.196078%);fill-opacity:1;" d="M 31.335938 61.445312 L 33.328125 59.449219 L 37.679688 63.800781 L 35.6875 65.792969 Z M 31.335938 61.445312 "/>
<path style=" stroke:none;fill-rule:nonzero;fill:rgb(17.254902%,24.313725%,31.372549%);fill-opacity:1;" d="M 21.820312 48.523438 L 50.015625 48.523438 L 50.015625 76.71875 L 21.820312 76.71875 Z M 21.820312 48.523438 "/>
<path style=" stroke:none;fill-rule:evenodd;fill:rgb(18.039216%,80%,44.313725%);fill-opacity:1;" d="M 34.503906 52.046875 C 31.734375 52.046875 28.984375 53.1875 27.03125 55.144531 C 25.074219 57.101562 23.933594 59.851562 23.933594 62.621094 C 23.933594 65.390625 25.074219 68.140625 27.03125 70.097656 C 28.984375 72.054688 31.734375 73.195312 34.503906 73.195312 C 37.273438 73.195312 40.023438 72.058594 41.984375 70.101562 C 43.941406 68.140625 45.082031 65.390625 45.082031 62.621094 L 42.261719 62.621094 C 42.261719 64.652344 41.425781 66.671875 39.988281 68.105469 C 38.554688 69.542969 36.535156 70.375 34.503906 70.375 C 32.472656 70.375 30.457031 69.539062 29.023438 68.105469 C 27.585938 66.667969 26.753906 64.652344 26.753906 62.621094 C 26.753906 60.59375 27.585938 58.574219 29.023438 57.140625 C 30.457031 55.703125 32.472656 54.867188 34.503906 54.867188 C 34.507812 54.867188 34.507812 54.867188 34.507812 54.867188 L 34.507812 52.046875 C 34.507812 52.046875 34.507812 52.046875 34.503906 52.046875 Z M 34.503906 52.046875 "/>
<path style=" stroke:none;fill-rule:evenodd;fill:rgb(92.54902%,94.117647%,94.509804%);fill-opacity:1;" d="M 45.90625 52.046875 L 35.917969 62.039062 L 33.328125 59.449219 L 31.335938 61.445312 L 35.917969 66.023438 L 47.902344 54.042969 Z M 45.90625 52.046875 "/>
<path style=" stroke:none;fill-rule:nonzero;fill:rgb(100%,100%,100%);fill-opacity:1;" d="M 113.546875 112.121094 C 113.96875 111.464844 114.925781 110.710938 115.195312 109.71875 C 115.398438 108.941406 115.652344 108.121094 115.820312 107.226562 C 116.5625 103.34375 116.183594 98.167969 116.15625 93.882812 C 116.117188 87.53125 115.984375 82.300781 116.1875 82.148438 L 81.5 116.121094 C 83.015625 115.78125 91.34375 116.246094 99.34375 116.042969 C 102.65625 115.960938 105.988281 116.21875 108.65625 115.554688 C 110.785156 115.023438 112.472656 113.796875 113.546875 112.121094 Z M 113.546875 112.121094 "/>
</g>
</svg>
