
<svg xmlns="http://www.w3.org/2000/svg" xmlns:xlink="http://www.w3.org/1999/xlink" width="128px" height="128px" viewBox="0 0 128 128" version="1.1">
<g id="surface1">
<path style="fill-rule:nonzero;fill:rgb(92.54902%,92.54902%,92.54902%);fill-opacity:1;stroke-width:2.67719;stroke-linecap:butt;stroke-linejoin:miter;stroke:rgb(57.647059%,85.490196%,11.372549%);stroke-opacity:1;stroke-miterlimit:4;" d="M 391.998176 501.870738 L 425.144659 501.870738 C 428.102178 501.870738 430.498663 504.267223 430.498663 507.224742 L 430.498663 540.371225 C 430.498663 543.328745 428.102178 545.725229 425.144659 545.725229 L 391.998176 545.725229 C 389.042121 545.725229 386.644172 543.328745 386.644172 540.371225 L 386.644172 507.224742 C 386.644172 504.267223 389.042121 501.870738 391.998176 501.870738 Z M 391.998176 501.870738 " transform="matrix(2.666667,0,0,2.666667,-1025.523813,-1332.794667)"/>
<path style=" stroke:none;fill-rule:evenodd;fill:rgb(63.921569%,85.882353%,7.45098%);fill-opacity:1;" d="M 64.183594 10.667969 C 47.269531 10.667969 32.261719 18.6875 22.570312 31.082031 L 29.210938 35.316406 C 37.503906 25.125 50.167969 18.632812 64.285156 18.632812 C 89.25 18.632812 109.511719 38.960938 109.511719 64.007812 C 109.511719 89.039062 89.25 109.367188 64.285156 109.367188 C 50.21875 109.367188 37.597656 102.910156 29.296875 92.773438 L 22.652344 97.007812 C 32.382812 109.367188 47.339844 117.332031 64.269531 117.332031 C 93.570312 117.332031 117.332031 93.449219 117.332031 64.007812 C 117.332031 34.585938 93.550781 10.703125 64.269531 10.703125 M 10.667969 32.882812 L 10.667969 95.097656 L 64.585938 63.679688 M 64.183594 31.5 C 54.644531 31.5 46.074219 35.648438 40.125 42.226562 L 47.011719 46.53125 C 51.433594 42.140625 57.503906 39.449219 64.203125 39.449219 C 77.75 39.449219 88.746094 50.558594 88.746094 64.234375 C 88.746094 77.929688 77.765625 89.039062 64.203125 89.039062 C 57.382812 89.039062 51.226562 86.246094 46.785156 81.71875 L 40.140625 85.953125 C 46.09375 92.527344 54.644531 96.679688 64.203125 96.679688 C 82.144531 96.679688 96.691406 82.0625 96.691406 64.078125 C 96.691406 46.078125 82.140625 31.480469 64.203125 31.480469 M 64.1875 31.5 "/>
</g>
</svg>
