<!-- color: #474747 -->
<svg xmlns="http://www.w3.org/2000/svg" xmlns:xlink="http://www.w3.org/1999/xlink" width="128px" height="128px" viewBox="0 0 128 128" version="1.1">
<defs>
<clipPath id="clip1">
  <path d="M 64 39.5 L 111.75 39.5 L 111.75 103.25 L 64 103.25 Z M 64 39.5 "/>
</clipPath>
<clipPath id="clip2">
  <path d="M 155.335938 71.316406 C 155.335938 121.75 114.445312 162.601562 64.054688 162.601562 C 13.664062 162.601562 -27.226562 121.75 -27.226562 71.316406 C -27.226562 20.882812 13.664062 -19.96875 64.054688 -19.96875 C 114.445312 -19.96875 155.335938 20.882812 155.335938 71.316406 Z M 155.335938 71.316406 "/>
</clipPath>
<clipPath id="clip3">
  <path d="M 59.5 54 L 68.75 54 L 68.75 95.25 L 59.5 95.25 Z M 59.5 54 "/>
</clipPath>
<clipPath id="clip4">
  <path d="M 155.335938 71.316406 C 155.335938 121.75 114.445312 162.601562 64.054688 162.601562 C 13.664062 162.601562 -27.226562 121.75 -27.226562 71.316406 C -27.226562 20.882812 13.664062 -19.96875 64.054688 -19.96875 C 114.445312 -19.96875 155.335938 20.882812 155.335938 71.316406 Z M 155.335938 71.316406 "/>
</clipPath>
<clipPath id="clip5">
  <path d="M 16.25 39.5 L 64.25 39.5 L 64.25 103.25 L 16.25 103.25 Z M 16.25 39.5 "/>
</clipPath>
<clipPath id="clip6">
  <path d="M 155.335938 71.316406 C 155.335938 121.75 114.445312 162.601562 64.054688 162.601562 C 13.664062 162.601562 -27.226562 121.75 -27.226562 71.316406 C -27.226562 20.882812 13.664062 -19.96875 64.054688 -19.96875 C 114.445312 -19.96875 155.335938 20.882812 155.335938 71.316406 Z M 155.335938 71.316406 "/>
</clipPath>
<clipPath id="clip7">
  <path d="M 65.5 41.5 L 78.5 41.5 L 78.5 56 L 65.5 56 Z M 65.5 41.5 "/>
</clipPath>
<clipPath id="clip8">
  <path d="M 155.335938 71.316406 C 155.335938 121.75 114.445312 162.601562 64.054688 162.601562 C 13.664062 162.601562 -27.226562 121.75 -27.226562 71.316406 C -27.226562 20.882812 13.664062 -19.96875 64.054688 -19.96875 C 114.445312 -19.96875 155.335938 20.882812 155.335938 71.316406 Z M 155.335938 71.316406 "/>
</clipPath>
<clipPath id="clip9">
  <path d="M 64.5 40.5 L 79.5 40.5 L 79.5 56.75 L 64.5 56.75 Z M 64.5 40.5 "/>
</clipPath>
<clipPath id="clip10">
  <path d="M 155.335938 71.316406 C 155.335938 121.75 114.445312 162.601562 64.054688 162.601562 C 13.664062 162.601562 -27.226562 121.75 -27.226562 71.316406 C -27.226562 20.882812 13.664062 -19.96875 64.054688 -19.96875 C 114.445312 -19.96875 155.335938 20.882812 155.335938 71.316406 Z M 155.335938 71.316406 "/>
</clipPath>
<clipPath id="clip11">
  <path d="M 49.5 41.5 L 62.75 41.5 L 62.75 56 L 49.5 56 Z M 49.5 41.5 "/>
</clipPath>
<clipPath id="clip12">
  <path d="M 155.335938 71.316406 C 155.335938 121.75 114.445312 162.601562 64.054688 162.601562 C 13.664062 162.601562 -27.226562 121.75 -27.226562 71.316406 C -27.226562 20.882812 13.664062 -19.96875 64.054688 -19.96875 C 114.445312 -19.96875 155.335938 20.882812 155.335938 71.316406 Z M 155.335938 71.316406 "/>
</clipPath>
<clipPath id="clip13">
  <path d="M 48.75 40.5 L 63.5 40.5 L 63.5 56.75 L 48.75 56.75 Z M 48.75 40.5 "/>
</clipPath>
<clipPath id="clip14">
  <path d="M 155.335938 71.316406 C 155.335938 121.75 114.445312 162.601562 64.054688 162.601562 C 13.664062 162.601562 -27.226562 121.75 -27.226562 71.316406 C -27.226562 20.882812 13.664062 -19.96875 64.054688 -19.96875 C 114.445312 -19.96875 155.335938 20.882812 155.335938 71.316406 Z M 155.335938 71.316406 "/>
</clipPath>
</defs>
<g id="surface1">
<path style="fill-rule:nonzero;fill:rgb(37.254902%,61.960784%,62.745098%);fill-opacity:1;stroke-width:7.117036;stroke-linecap:butt;stroke-linejoin:miter;stroke:rgb(100%,100%,0%);stroke-opacity:1;stroke-miterlimit:4;" d="M 19.941406 5.707031 L 108.058594 5.707031 C 115.917969 5.707031 122.292969 12.082031 122.292969 19.941406 L 122.292969 108.058594 C 122.292969 115.917969 115.917969 122.292969 108.058594 122.292969 L 19.941406 122.292969 C 12.082031 122.292969 5.707031 115.917969 5.707031 108.058594 L 5.707031 19.941406 C 5.707031 12.082031 12.082031 5.707031 19.941406 5.707031 Z M 19.941406 5.707031 "/>
<g clip-path="url(#clip1)" clip-rule="nonzero">
<g clip-path="url(#clip2)" clip-rule="nonzero">
<path style=" stroke:none;fill-rule:evenodd;fill:rgb(100%,100%,0%);fill-opacity:1;" d="M 92.789062 79.453125 C 107.160156 110.96875 64.046875 110.96875 64.046875 79.453125 C 64.046875 79.453125 64.046875 79.453125 64.046875 63.683594 C 121.53125 16.414062 121.53125 47.929688 92.789062 79.453125 M 92.789062 79.453125 "/>
</g>
</g>
<g clip-path="url(#clip3)" clip-rule="nonzero">
<g clip-path="url(#clip4)" clip-rule="nonzero">
<path style=" stroke:none;fill-rule:evenodd;fill:rgb(100%,100%,0%);fill-opacity:1;" d="M 65.496094 60.507812 C 68.382812 68.382812 66.195312 94.992188 64.070312 95.171875 C 61.945312 95.34375 59.761719 68.382812 62.628906 60.507812 C 58.320312 57.34375 58.320312 54.199219 64.070312 54.199219 C 69.820312 54.199219 69.820312 57.34375 65.496094 60.507812 M 65.496094 60.507812 "/>
</g>
</g>
<g clip-path="url(#clip5)" clip-rule="nonzero">
<g clip-path="url(#clip6)" clip-rule="nonzero">
<path style=" stroke:none;fill-rule:evenodd;fill:rgb(100%,100%,0%);fill-opacity:1;" d="M 35.3125 79.453125 C 20.941406 110.96875 64.054688 110.96875 64.054688 79.453125 C 64.054688 79.453125 64.054688 79.453125 64.054688 63.683594 C 6.570312 16.414062 6.570312 47.929688 35.3125 79.453125 M 35.3125 79.453125 "/>
</g>
</g>
<g clip-path="url(#clip7)" clip-rule="nonzero">
<g clip-path="url(#clip8)" clip-rule="nonzero">
<path style=" stroke:none;fill-rule:nonzero;fill:rgb(100%,100%,0%);fill-opacity:1;" d="M 65.503906 55.78125 C 66.945312 44.757812 78.480469 41.59375 78.480469 41.59375 "/>
</g>
</g>
<g clip-path="url(#clip9)" clip-rule="nonzero">
<g clip-path="url(#clip10)" clip-rule="nonzero">
<path style="fill:none;stroke-width:0.0382982;stroke-linecap:round;stroke-linejoin:miter;stroke:rgb(97.647059%,72.54902%,15.686275%);stroke-opacity:1;stroke-miterlimit:4;" d="M -43.369853 149.810162 C -43.006673 147.032676 -40.100254 146.235453 -40.100254 146.235453 " transform="matrix(3.968854,0,0,3.968854,237.632542,-538.793486)"/>
</g>
</g>
<g clip-path="url(#clip11)" clip-rule="nonzero">
<g clip-path="url(#clip12)" clip-rule="nonzero">
<path style=" stroke:none;fill-rule:nonzero;fill:rgb(100%,100%,0%);fill-opacity:1;" d="M 62.605469 55.78125 C 61.164062 44.757812 49.628906 41.59375 49.628906 41.59375 "/>
</g>
</g>
<g clip-path="url(#clip13)" clip-rule="nonzero">
<g clip-path="url(#clip14)" clip-rule="nonzero">
<path style="fill:none;stroke-width:0.0382982;stroke-linecap:round;stroke-linejoin:miter;stroke:rgb(97.647059%,72.54902%,15.686275%);stroke-opacity:1;stroke-miterlimit:4;" d="M -44.100148 149.810162 C -44.463328 147.032676 -47.369747 146.235453 -47.369747 146.235453 " transform="matrix(3.968854,0,0,3.968854,237.632542,-538.793486)"/>
</g>
</g>
</g>
</svg>
