
<svg xmlns="http://www.w3.org/2000/svg" xmlns:xlink="http://www.w3.org/1999/xlink" width="128px" height="128px" viewBox="0 0 128 128" version="1.1">
<g id="surface1">
<path style="fill-rule:nonzero;fill:rgb(92.54902%,92.54902%,92.54902%);fill-opacity:1;stroke-width:27.442497;stroke-linecap:butt;stroke-linejoin:miter;stroke:rgb(0%,66.666667%,83.137255%);stroke-opacity:1;stroke-miterlimit:4;" d="M 86.125 31.234375 L 425.875 31.234375 C 456.1875 31.234375 480.765625 55.8125 480.765625 86.125 L 480.765625 425.875 C 480.765625 456.1875 456.1875 480.765625 425.875 480.765625 L 86.125 480.765625 C 55.8125 480.765625 31.234375 456.1875 31.234375 425.875 L 31.234375 86.125 C 31.234375 55.8125 55.8125 31.234375 86.125 31.234375 Z M 86.125 31.234375 " transform="matrix(0.25,0,0,0.25,0,0)"/>
<path style=" stroke:none;fill-rule:evenodd;fill:rgb(50.196078%,50.196078%,50.196078%);fill-opacity:1;" d="M 56.75 98.914062 L 44.984375 106.628906 L 83.230469 106.628906 L 71.460938 98.914062 Z M 56.75 98.914062 "/>
<path style=" stroke:none;fill-rule:evenodd;fill:rgb(50.196078%,50.196078%,50.196078%);fill-opacity:1;" d="M 56.75 96.574219 L 44.984375 104.289062 L 83.230469 104.289062 L 71.460938 96.574219 Z M 56.75 96.574219 "/>
<path style=" stroke:none;fill-rule:nonzero;fill:rgb(30.196078%,30.196078%,30.196078%);fill-opacity:1;" d="M 55.933594 82.402344 L 72.304688 82.402344 L 72.304688 100.613281 L 55.933594 100.613281 Z M 55.933594 82.402344 "/>
<path style=" stroke:none;fill-rule:nonzero;fill:rgb(50.196078%,50.196078%,50.196078%);fill-opacity:1;" d="M 23.507812 21.371094 L 104.730469 21.371094 C 107.578125 21.371094 109.882812 23.574219 109.882812 26.289062 L 109.882812 83.171875 C 109.882812 85.890625 107.578125 88.09375 104.730469 88.09375 L 23.507812 88.09375 C 20.664062 88.09375 18.355469 85.890625 18.355469 83.171875 L 18.355469 26.289062 C 18.355469 23.574219 20.664062 21.371094 23.507812 21.371094 Z M 23.507812 21.371094 "/>
<path style=" stroke:none;fill-rule:nonzero;fill:rgb(0%,66.666667%,83.137255%);fill-opacity:1;" d="M 26.921875 27.617188 L 101.316406 27.617188 L 101.316406 81.847656 L 26.921875 81.847656 Z M 26.921875 27.617188 "/>
<path style=" stroke:none;fill-rule:evenodd;fill:rgb(0%,0%,0%);fill-opacity:1;" d="M 44.984375 104.289062 L 44.984375 106.628906 L 83.253906 106.628906 L 83.253906 104.289062 Z M 44.984375 104.289062 "/>
<path style=" stroke:none;fill-rule:nonzero;fill:rgb(100%,100%,100%);fill-opacity:1;" d="M 72.148438 72.117188 L 67.9375 72.117188 L 67.9375 76.59375 L 72.148438 76.59375 Z M 65.832031 72.117188 L 61.621094 72.117188 L 61.621094 76.59375 L 65.832031 76.59375 Z M 59.515625 72.117188 L 55.304688 72.117188 L 55.304688 76.59375 L 59.515625 76.59375 Z M 59.515625 72.117188 "/>
<path style=" stroke:none;fill-rule:evenodd;fill:rgb(20%,20%,20%);fill-opacity:1;" d="M 26.699219 27.75 L 26.699219 32 L 101.117188 32 L 101.117188 27.75 Z M 26.699219 27.75 "/>
<path style="fill:none;stroke-width:5.146672;stroke-linecap:butt;stroke-linejoin:miter;stroke:rgb(100%,100%,100%);stroke-opacity:1;stroke-dasharray:10.293345,10.293345;stroke-miterlimit:4;" d="M 117.09375 135.703125 L 391.015625 135.703125 L 391.015625 316.03125 L 117.09375 316.03125 Z M 117.09375 135.703125 " transform="matrix(0.25,0,0,0.25,0,0)"/>
<path style=" stroke:none;fill-rule:nonzero;fill:rgb(20%,20%,20%);fill-opacity:1;" d="M 89.328125 75.453125 C 90.21875 80.984375 92.070312 83.828125 91.058594 84.394531 C 90.265625 84.835938 90.035156 84.015625 88.039062 85.273438 C 86.117188 86.484375 85.8125 89.367188 87.03125 91.242188 C 88.113281 93.199219 90.738281 94.382812 92.8125 93.25 C 94.96875 92.234375 95.917969 89.40625 94.898438 87.265625 C 93.90625 84.644531 91.933594 81.84375 92.519531 77.152344 L 92.96875 73.554688 L 90.039062 56.628906 C 89.539062 54.566406 88.300781 52.390625 85.65625 51.792969 Z M 87.808594 88.96875 C 87.804688 86.265625 91.015625 84.691406 92.816406 86.492188 C 94.570312 88.046875 94.074219 91.570312 91.632812 92.125 C 89.710938 92.726562 87.8125 90.816406 87.808594 88.96875 Z M 87.808594 88.96875 "/>
<path style=" stroke:none;fill-rule:nonzero;fill:rgb(20%,20%,20%);fill-opacity:1;" d="M 93 71.953125 C 98.535156 72.835938 101.382812 74.675781 101.945312 73.664062 C 102.386719 72.871094 101.5625 72.640625 102.820312 70.640625 C 104.023438 68.71875 106.90625 68.40625 108.785156 69.625 C 110.746094 70.699219 111.9375 73.324219 110.804688 75.398438 C 109.792969 77.554688 106.96875 78.515625 104.828125 77.5 C 102.203125 76.511719 99.398438 74.546875 94.710938 75.140625 L 91.109375 75.597656 L 74.179688 72.707031 C 72.113281 72.210938 69.9375 70.976562 69.335938 68.335938 Z M 106.511719 70.40625 C 103.8125 70.40625 102.242188 73.621094 104.046875 75.417969 C 105.609375 77.171875 109.128906 76.664062 109.679688 74.222656 C 110.277344 72.300781 108.359375 70.402344 106.511719 70.40625 Z M 106.511719 70.40625 "/>
</g>
</svg>
