
<svg xmlns="http://www.w3.org/2000/svg" xmlns:xlink="http://www.w3.org/1999/xlink" width="128px" height="128px" viewBox="0 0 128 128" version="1.1">
<g id="surface1">
<path style="fill-rule:nonzero;fill:rgb(21.176471%,76.862745%,30.196078%);fill-opacity:1;stroke-width:28.097435;stroke-linecap:butt;stroke-linejoin:miter;stroke:rgb(1.176471%,22.745098%,55.294118%);stroke-opacity:1;stroke-miterlimit:4;" d="M 78.21972 28.537617 L 426.08521 28.537617 C 457.130092 28.537617 482.2885 53.696026 482.2885 84.740907 L 482.2885 432.606397 C 482.2885 463.651278 457.130092 488.809687 426.08521 488.809687 L 78.21972 488.809687 C 47.174839 488.809687 22.01643 463.651278 22.01643 432.606397 L 22.01643 84.740907 C 22.01643 53.696026 47.174839 28.537617 78.21972 28.537617 Z M 78.21972 28.537617 " transform="matrix(0.249513,0,0,0.249513,1.084745,-0.542374)"/>
<path style=" stroke:none;fill-rule:nonzero;fill:rgb(1.176471%,22.745098%,55.294118%);fill-opacity:1;" d="M 8.832031 7.367188 L 8.832031 119.183594 L 24.820312 119.183594 L 24.820312 7.367188 Z M 8.832031 7.367188 "/>
<path style=" stroke:none;fill-rule:nonzero;fill:rgb(90.588235%,90.588235%,90.588235%);fill-opacity:1;" d="M 106.304688 17.898438 L 111.1875 17.898438 L 111.1875 37.421875 L 106.304688 37.421875 Z M 106.304688 17.898438 "/>
<path style=" stroke:none;fill-rule:nonzero;fill:rgb(90.588235%,90.588235%,90.588235%);fill-opacity:1;" d="M 106.304688 41.851562 L 111.1875 41.851562 L 111.1875 61.375 L 106.304688 61.375 Z M 106.304688 41.851562 "/>
<path style=" stroke:none;fill-rule:nonzero;fill:rgb(90.588235%,90.588235%,90.588235%);fill-opacity:1;" d="M 106.304688 66.804688 L 111.1875 66.804688 L 111.1875 86.328125 L 106.304688 86.328125 Z M 106.304688 66.804688 "/>
<path style=" stroke:none;fill-rule:nonzero;fill:rgb(90.588235%,90.588235%,90.588235%);fill-opacity:1;" d="M 106.304688 91.253906 L 111.1875 91.253906 L 111.1875 110.78125 L 106.304688 110.78125 Z M 106.304688 91.253906 "/>
</g>
</svg>
