
<svg xmlns="http://www.w3.org/2000/svg" xmlns:xlink="http://www.w3.org/1999/xlink" width="128px" height="128px" viewBox="0 0 128 128" version="1.1">
<g id="surface1">
<path style="fill-rule:nonzero;fill:rgb(44.313725%,78.431373%,21.568627%);fill-opacity:1;stroke-width:20.136691;stroke-linecap:butt;stroke-linejoin:miter;stroke:rgb(35.686275%,62.745098%,17.254902%);stroke-opacity:1;stroke-miterlimit:4;" d="M 65.81815 14.600505 L 447.181727 14.600505 C 475.475141 14.600505 498.399371 37.541566 498.399371 65.818149 L 498.399371 447.181726 C 498.399371 475.47514 475.475141 498.39937 447.181727 498.39937 L 65.81815 498.39937 C 37.541567 498.39937 14.600506 475.47514 14.600506 447.181726 L 14.600506 65.818149 C 14.600506 37.541566 37.541567 14.600505 65.81815 14.600505 Z M 65.81815 14.600505 " transform="matrix(0.232082,0,0,0.232082,4.470853,4.470853)"/>
<path style=" stroke:none;fill-rule:nonzero;fill:rgb(100%,100%,100%);fill-opacity:1;" d="M 25.007812 25.179688 L 25.007812 35.234375 C 25.082031 35.269531 25.15625 35.308594 25.226562 35.355469 L 42.636719 46.710938 C 43.441406 47.238281 43.441406 48.082031 42.636719 48.609375 L 25.226562 59.964844 C 25.15625 60.011719 25.082031 60.050781 25.007812 60.085938 L 25.007812 70.140625 C 25.5 70.023438 25.964844 69.839844 26.359375 69.582031 L 55.25 50.742188 L 55.25 44.859375 C 55.25 44.769531 55.257812 44.679688 55.265625 44.589844 L 26.359375 25.738281 C 25.964844 25.480469 25.5 25.296875 25.007812 25.179688 Z M 25.007812 25.179688 "/>
<path style=" stroke:none;fill-rule:nonzero;fill:rgb(100%,100%,100%);fill-opacity:1;" d="M 39.898438 72.96875 L 72.882812 72.96875 L 72.882812 82.304688 L 39.898438 82.304688 Z M 39.898438 72.96875 "/>
</g>
</svg>
