
<svg xmlns="http://www.w3.org/2000/svg" xmlns:xlink="http://www.w3.org/1999/xlink" width="128px" height="128px" viewBox="0 0 128 128" version="1.1">
<g id="surface1">
<path style="fill-rule:evenodd;fill:rgb(100%,100%,100%);fill-opacity:1;stroke-width:7.620724;stroke-linecap:butt;stroke-linejoin:miter;stroke:rgb(16.078431%,50.196078%,72.54902%);stroke-opacity:1;stroke-miterlimit:4;" d="M 19.6875 7.148438 L 108.3125 7.148438 C 115.238281 7.148438 120.851562 12.761719 120.851562 19.6875 L 120.851562 108.3125 C 120.851562 115.238281 115.238281 120.851562 108.3125 120.851562 L 19.6875 120.851562 C 12.761719 120.851562 7.148438 115.238281 7.148438 108.3125 L 7.148438 19.6875 C 7.148438 12.761719 12.761719 7.148438 19.6875 7.148438 Z M 19.6875 7.148438 "/>
<path style=" stroke:none;fill-rule:nonzero;fill:rgb(17.254902%,24.313725%,31.372549%);fill-opacity:1;" d="M 84.171875 27.960938 L 30.464844 58.96875 L 33.21875 63.742188 L 30.421875 68.59375 L 84.167969 99.625 L 86.96875 94.773438 L 92.480469 94.773438 L 92.480469 32.757812 L 86.941406 32.757812 Z M 85.320312 35.5625 L 85.316406 92.015625 L 36.429688 63.792969 Z M 85.320312 35.5625 "/>
<path style=" stroke:none;fill-rule:nonzero;fill:rgb(16.078431%,50.196078%,72.54902%);fill-opacity:1;" d="M 90.09375 16.054688 C 100.640625 16.054688 109.191406 24.601562 109.191406 35.148438 C 109.191406 45.695312 100.640625 54.242188 90.09375 54.242188 C 79.546875 54.242188 71 45.695312 71 35.148438 C 71 24.601562 79.546875 16.054688 90.09375 16.054688 Z M 90.09375 16.054688 "/>
<path style=" stroke:none;fill-rule:nonzero;fill:rgb(90.588235%,29.803922%,23.529412%);fill-opacity:1;" d="M 90.09375 73.339844 C 100.640625 73.339844 109.191406 81.890625 109.191406 92.4375 C 109.191406 102.984375 100.640625 111.53125 90.09375 111.53125 C 79.546875 111.53125 71 102.984375 71 92.4375 C 71 81.890625 79.546875 73.339844 90.09375 73.339844 Z M 90.09375 73.339844 "/>
<path style=" stroke:none;fill-rule:nonzero;fill:rgb(60.784314%,34.901961%,71.372549%);fill-opacity:1;" d="M 32.804688 44.695312 C 43.351562 44.695312 51.902344 53.246094 51.902344 63.792969 C 51.902344 74.339844 43.351562 82.890625 32.804688 82.890625 C 22.261719 82.890625 13.710938 74.339844 13.710938 63.792969 C 13.710938 53.246094 22.261719 44.695312 32.804688 44.695312 Z M 32.804688 44.695312 "/>
</g>
</svg>
