
<svg xmlns="http://www.w3.org/2000/svg" xmlns:xlink="http://www.w3.org/1999/xlink" width="128px" height="128px" viewBox="0 0 128 128" version="1.1">
<g id="surface1">
<path style=" stroke:none;fill-rule:nonzero;fill:rgb(0%,47.058824%,67.843137%);fill-opacity:1;" d="M 19.734375 7.300781 L 108.269531 7.300781 C 115.308594 7.300781 121.015625 13.007812 121.015625 20.046875 L 121.015625 108.582031 C 121.015625 115.621094 115.308594 121.328125 108.269531 121.328125 L 19.734375 121.328125 C 12.695312 121.328125 6.988281 115.621094 6.988281 108.582031 L 6.988281 20.046875 C 6.988281 13.007812 12.695312 7.300781 19.734375 7.300781 Z M 19.734375 7.300781 "/>
<path style=" stroke:none;fill-rule:nonzero;fill:rgb(100%,97.254902%,92.156863%);fill-opacity:1;" d="M 70.300781 26 L 56.964844 27.324219 L 56.964844 82.023438 L 70.15625 80.109375 L 70.15625 56.730469 L 87.742188 82.609375 L 101.515625 78.199219 L 83.492188 53.351562 L 101.664062 29.824219 L 87.59375 26.585938 L 70.15625 50.113281 Z M 40.257812 39.378906 C 40.109375 39.378906 39.933594 39.464844 39.820312 39.53125 L 34.691406 44.824219 C 34.472656 45.054688 34.382812 45.441406 34.542969 45.707031 L 40.550781 55.707031 C 39.472656 57.527344 38.679688 59.519531 38.0625 61.585938 L 26.921875 63.941406 C 26.613281 64.023438 26.335938 64.210938 26.335938 64.53125 L 26.335938 71.882812 C 26.335938 72.195312 26.625 72.539062 26.921875 72.617188 L 37.765625 75.261719 C 38.34375 77.660156 39.222656 79.9375 40.40625 82.023438 L 34.105469 91.585938 C 33.929688 91.855469 34.019531 92.242188 34.25 92.46875 L 39.382812 97.613281 C 39.597656 97.824219 39.992188 97.933594 40.257812 97.765625 L 50.078125 91.734375 C 52.007812 92.851562 54.03125 93.785156 56.234375 94.382812 L 58.578125 105.410156 C 58.644531 105.730469 58.847656 106 59.164062 106 L 66.492188 106 C 66.800781 106 67.148438 105.714844 67.222656 105.410156 L 69.859375 94.382812 C 72.128906 93.765625 74.332031 92.757812 76.308594 91.589844 L 85.980469 98.058594 C 86.25 98.226562 86.632812 98.144531 86.859375 97.90625 L 91.992188 92.761719 C 92.210938 92.53125 92.296875 92.144531 92.136719 91.878906 L 88.621094 86 L 87.445312 86.4375 C 87.28125 86.519531 87.105469 86.4375 87.007812 86.285156 C 87.007812 86.285156 84.789062 82.914062 81.878906 78.636719 C 78.398438 85.476562 71.300781 90.109375 63.121094 90.109375 C 51.5 90.109375 42.019531 80.742188 42.019531 69.078125 C 42.019531 60.5 47.152344 53.125 54.476562 49.820312 L 54.476562 44.375 C 53.140625 44.847656 51.886719 45.324219 50.664062 45.996094 C 50.664062 45.996094 50.519531 45.996094 50.515625 45.996094 L 40.699219 39.523438 C 40.566406 39.441406 40.40625 39.367188 40.257812 39.382812 Z M 40.257812 39.378906 "/>
</g>
</svg>
