
<svg xmlns="http://www.w3.org/2000/svg" xmlns:xlink="http://www.w3.org/1999/xlink" width="128px" height="128px" viewBox="0 0 128 128" version="1.1">
<g id="surface1">
<path style=" stroke:none;fill-rule:nonzero;fill:rgb(0%,40%,50.196078%);fill-opacity:1;" d="M 24.898438 10.101562 L 103.441406 10.101562 C 111.726562 10.101562 118.441406 16.820312 118.441406 25.101562 L 118.441406 103.644531 C 118.441406 111.929688 111.726562 118.644531 103.441406 118.644531 L 24.898438 118.644531 C 16.617188 118.644531 9.898438 111.929688 9.898438 103.644531 L 9.898438 25.101562 C 9.898438 16.820312 16.617188 10.101562 24.898438 10.101562 Z M 24.898438 10.101562 "/>
<path style="fill:none;stroke-width:1.680285;stroke-linecap:butt;stroke-linejoin:round;stroke:rgb(33.333333%,86.666667%,100%);stroke-opacity:1;stroke-miterlimit:4;" d="M 9.902344 66.53125 L 31.949219 66.53125 L 35.539062 28.609375 L 37.335938 80.46875 L 39.128906 46.621094 L 42.722656 110.339844 L 46.3125 19.105469 L 48.410156 98.390625 L 49.90625 46.621094 L 51.910156 60.558594 L 55.292969 32.679688 L 57.085938 102.375 L 58.882812 50.601562 L 62.414062 80.46875 L 64.269531 54.582031 L 66.0625 66.53125 L 66.0625 29.964844 L 69.65625 84.453125 L 73.246094 54.582031 L 75.042969 66.53125 L 118.425781 66.53125 "/>
</g>
</svg>
