
<svg xmlns="http://www.w3.org/2000/svg" xmlns:xlink="http://www.w3.org/1999/xlink" width="128px" height="128px" viewBox="0 0 128 128" version="1.1">
<g id="surface1">
<path style="fill-rule:nonzero;fill:rgb(100%,100%,100%);fill-opacity:1;stroke-width:27.910589;stroke-linecap:butt;stroke-linejoin:miter;stroke:rgb(30.196078%,30.196078%,30.196078%);stroke-opacity:1;stroke-miterlimit:4;" d="M 83.21875 539.40625 L 428.78125 539.40625 C 459.609375 539.40625 484.59375 564.390625 484.59375 595.21875 L 484.59375 940.78125 C 484.59375 971.609375 459.609375 996.59375 428.78125 996.59375 L 83.21875 996.59375 C 52.390625 996.59375 27.40625 971.609375 27.40625 940.78125 L 27.40625 595.21875 C 27.40625 564.390625 52.390625 539.40625 83.21875 539.40625 Z M 83.21875 539.40625 " transform="matrix(0.25,0,0,0.25,0,-128)"/>
<path style=" stroke:none;fill-rule:nonzero;fill:rgb(70.196078%,70.196078%,70.196078%);fill-opacity:1;" d="M 22.890625 10.347656 C 17.902344 10.390625 14.09375 15.609375 14.8125 20.710938 C 14.835938 50.382812 14.761719 80.054688 14.847656 109.726562 C 15.214844 114.746094 19.996094 118.328125 24.625 117.65625 C 53.160156 117.628906 81.695312 117.707031 110.226562 117.613281 C 115.007812 117.234375 118.375 112.164062 117.742188 107.289062 C 117.742188 89.101562 117.742188 70.910156 117.742188 52.71875 C 115.8125 48.179688 111.175781 45.421875 108.171875 41.601562 C 98.351562 31.398438 88.613281 21.105469 78.730469 10.976562 C 75.976562 9.730469 72.796875 10.613281 69.851562 10.347656 C 54.195312 10.347656 38.542969 10.347656 22.890625 10.347656 Z M 89.953125 10.347656 C 88.058594 10.5 87.96875 13.265625 89.523438 14.070312 C 98.097656 22.9375 106.550781 31.964844 115.203125 40.734375 C 116.875 41.675781 118.246094 39.546875 117.742188 37.925781 C 117.628906 31.089844 117.976562 24.21875 117.554688 17.410156 C 116.800781 12.617188 112.027344 9.6875 107.628906 10.347656 C 101.738281 10.347656 95.84375 10.347656 89.953125 10.347656 Z M 89.953125 10.347656 "/>
<path style=" stroke:none;fill-rule:nonzero;fill:rgb(30.196078%,30.196078%,30.196078%);fill-opacity:1;" d="M 9.203125 7.941406 L 29.765625 7.941406 L 29.765625 118.742188 L 9.203125 118.742188 Z M 9.203125 7.941406 "/>
<path style=" stroke:none;fill-rule:nonzero;fill:rgb(100%,100%,100%);fill-opacity:1;" d="M 44.304688 87.707031 L 55.4375 87.707031 L 55.4375 85.542969 L 52.21875 85.121094 L 51.269531 84.117188 L 51.269531 55.304688 L 63.300781 87.707031 L 65.570312 87.707031 L 78.078125 54.777344 L 78.078125 84.539062 L 77.546875 85.28125 L 74.066406 85.542969 L 74.066406 87.707031 L 86.679688 87.707031 L 86.679688 85.542969 L 83.351562 85.28125 L 82.71875 84.539062 L 82.71875 55.464844 L 83.351562 54.726562 L 86.679688 54.410156 L 86.679688 52.296875 L 75.386719 52.296875 L 75.386719 53.933594 L 65.359375 80.214844 L 55.4375 53.722656 L 55.4375 52.296875 L 44.25 52.296875 L 44.25 54.410156 L 47.734375 54.726562 L 48.417969 55.464844 L 48.417969 84.117188 L 47.46875 85.121094 L 44.304688 85.542969 Z M 44.304688 87.707031 "/>
</g>
</svg>
