
<svg xmlns="http://www.w3.org/2000/svg" xmlns:xlink="http://www.w3.org/1999/xlink" width="128px" height="128px" viewBox="0 0 128 128" version="1.1">
<defs>
<clipPath id="clip1">
  <path d="M 10.75 7.25 L 113.25 7.25 L 113.25 121 L 10.75 121 Z M 10.75 7.25 "/>
</clipPath>
<clipPath id="clip2">
  <path d="M 19.550781 0.953125 L 122.25 0.953125 C 126.976562 0.953125 130.808594 4.785156 130.808594 9.511719 L 130.808594 112.210938 C 130.808594 116.9375 126.976562 120.769531 122.25 120.769531 L 19.550781 120.769531 C 14.824219 120.769531 10.992188 116.9375 10.992188 112.210938 L 10.992188 9.511719 C 10.992188 4.785156 14.824219 0.953125 19.550781 0.953125 Z M 19.550781 0.953125 "/>
</clipPath>
<clipPath id="clip3">
  <path d="M 10.75 9 L 111.75 9 L 111.75 121 L 10.75 121 Z M 10.75 9 "/>
</clipPath>
<clipPath id="clip4">
  <path d="M 19.550781 0.953125 L 122.25 0.953125 C 126.976562 0.953125 130.808594 4.785156 130.808594 9.511719 L 130.808594 112.210938 C 130.808594 116.9375 126.976562 120.769531 122.25 120.769531 L 19.550781 120.769531 C 14.824219 120.769531 10.992188 116.9375 10.992188 112.210938 L 10.992188 9.511719 C 10.992188 4.785156 14.824219 0.953125 19.550781 0.953125 Z M 19.550781 0.953125 "/>
</clipPath>
<clipPath id="clip5">
  <path d="M 10.75 10.5 L 110.25 10.5 L 110.25 121 L 10.75 121 Z M 10.75 10.5 "/>
</clipPath>
<clipPath id="clip6">
  <path d="M 19.550781 0.953125 L 122.25 0.953125 C 126.976562 0.953125 130.808594 4.785156 130.808594 9.511719 L 130.808594 112.210938 C 130.808594 116.9375 126.976562 120.769531 122.25 120.769531 L 19.550781 120.769531 C 14.824219 120.769531 10.992188 116.9375 10.992188 112.210938 L 10.992188 9.511719 C 10.992188 4.785156 14.824219 0.953125 19.550781 0.953125 Z M 19.550781 0.953125 "/>
</clipPath>
<clipPath id="clip7">
  <path d="M 10.75 11.75 L 109 11.75 L 109 121 L 10.75 121 Z M 10.75 11.75 "/>
</clipPath>
<clipPath id="clip8">
  <path d="M 19.550781 0.953125 L 122.25 0.953125 C 126.976562 0.953125 130.808594 4.785156 130.808594 9.511719 L 130.808594 112.210938 C 130.808594 116.9375 126.976562 120.769531 122.25 120.769531 L 19.550781 120.769531 C 14.824219 120.769531 10.992188 116.9375 10.992188 112.210938 L 10.992188 9.511719 C 10.992188 4.785156 14.824219 0.953125 19.550781 0.953125 Z M 19.550781 0.953125 "/>
</clipPath>
<clipPath id="clip9">
  <path d="M 10.75 12.75 L 108 12.75 L 108 121 L 10.75 121 Z M 10.75 12.75 "/>
</clipPath>
<clipPath id="clip10">
  <path d="M 19.550781 0.953125 L 122.25 0.953125 C 126.976562 0.953125 130.808594 4.785156 130.808594 9.511719 L 130.808594 112.210938 C 130.808594 116.9375 126.976562 120.769531 122.25 120.769531 L 19.550781 120.769531 C 14.824219 120.769531 10.992188 116.9375 10.992188 112.210938 L 10.992188 9.511719 C 10.992188 4.785156 14.824219 0.953125 19.550781 0.953125 Z M 19.550781 0.953125 "/>
</clipPath>
</defs>
<g id="surface1">
<path style=" stroke:none;fill-rule:nonzero;fill:rgb(60.784314%,48.235294%,60.392157%);fill-opacity:1;" d="M 23.335938 7.5 L 104.300781 7.5 C 112.335938 7.5 118.847656 14.011719 118.847656 22.046875 L 118.847656 106.167969 C 118.847656 114.203125 112.335938 120.714844 104.300781 120.714844 L 23.335938 120.714844 C 15.300781 120.714844 8.789062 114.203125 8.789062 106.167969 L 8.789062 22.046875 C 8.789062 14.011719 15.300781 7.5 23.335938 7.5 Z M 23.335938 7.5 "/>
<g clip-path="url(#clip1)" clip-rule="nonzero">
<g clip-path="url(#clip2)" clip-rule="nonzero">
<path style=" stroke:none;fill-rule:nonzero;fill:rgb(100%,100%,100%);fill-opacity:0.0509804;" d="M 76.339844 7.414062 C 76.292969 7.429688 76.25 7.445312 76.203125 7.460938 C 76.175781 7.460938 76.144531 7.460938 76.117188 7.460938 C 76.117188 7.460938 75.847656 7.550781 75.847656 7.550781 C 72.320312 8.183594 70.015625 10.566406 68.492188 13.210938 C 68.195312 12.726562 68.003906 12.144531 67.601562 11.738281 C 65.984375 10.101562 63.890625 9.15625 61.808594 8.796875 C 59.726562 8.441406 57.25 8.648438 55.390625 10.359375 C 53.445312 12.148438 53.019531 15.085938 53.917969 17.9375 C 53.917969 17.933594 53.960938 18.070312 53.960938 18.070312 C 53.960938 18.070312 54.050781 18.25 54.050781 18.25 C 54.050781 18.246094 54.140625 18.382812 54.140625 18.382812 C 54.140625 18.378906 54.1875 18.5625 54.1875 18.558594 C 56.398438 22.398438 57.488281 26.707031 57.796875 31.21875 C 56.394531 32.863281 54.875 34.84375 53.917969 37.28125 C 52.742188 40.265625 52.675781 44.167969 55.253906 47.175781 L 55.210938 47.175781 C 55.296875 47.359375 55.472656 47.527344 55.566406 47.710938 C 52.492188 49.78125 51.136719 53.042969 50.707031 55.867188 C 50.226562 59.039062 50.234375 61.96875 49.640625 63.582031 C 49.640625 63.578125 49.546875 63.851562 49.550781 63.847656 C 49.546875 63.863281 49.546875 63.878906 49.550781 63.890625 C 48.242188 69.023438 47.664062 72.792969 44.691406 75.570312 C 44.691406 75.585938 44.691406 75.601562 44.691406 75.617188 C 44.691406 75.617188 44.554688 75.75 44.554688 75.75 C 44.558594 75.75 44.421875 75.882812 44.421875 75.882812 C 44.425781 75.882812 44.289062 76.019531 44.289062 76.015625 C 44.289062 76.015625 44.199219 76.195312 44.199219 76.195312 C 44.203125 76.195312 44.109375 76.328125 44.109375 76.328125 C 44.113281 76.328125 44.023438 76.507812 44.023438 76.507812 C 44.023438 76.507812 43.933594 76.6875 43.933594 76.6875 C 43.933594 76.683594 43.886719 76.867188 43.890625 76.863281 C 42.28125 81.628906 39.578125 86.269531 36.398438 89.34375 C 36.386719 89.359375 36.367188 89.375 36.355469 89.390625 C 36.289062 89.453125 36.273438 89.46875 36.3125 89.433594 C 22.113281 98.953125 8.121094 108.644531 -6.703125 116.625 C -6.703125 116.625 -6.972656 116.804688 -6.972656 116.804688 C -6.96875 116.800781 -7.242188 116.984375 -7.238281 116.980469 C -7.238281 116.980469 -7.507812 117.207031 -7.507812 117.203125 C -7.503906 117.203125 -7.6875 117.429688 -7.683594 117.429688 C -7.683594 117.425781 -7.910156 117.695312 -7.90625 117.695312 C -7.90625 117.691406 -8.042969 118.007812 -8.042969 118.007812 C -8.039062 118.003906 -8.175781 118.277344 -8.175781 118.273438 C -8.175781 118.273438 -8.265625 118.589844 -8.265625 118.585938 C -8.265625 118.585938 -8.355469 118.902344 -8.351562 118.898438 C -8.351562 118.894531 -8.398438 119.257812 -8.398438 119.253906 C -8.398438 119.25 -8.398438 119.570312 -8.398438 119.566406 C -8.398438 119.5625 -8.351562 119.882812 -8.351562 119.878906 C -8.355469 119.875 -8.265625 120.195312 -8.265625 120.191406 C -8.265625 120.1875 -8.175781 120.507812 -8.175781 120.503906 C -8.175781 120.5 -8.039062 120.816406 -8.042969 120.816406 C -8.042969 120.8125 -7.90625 121.085938 -7.90625 121.082031 C -7.894531 121.097656 -7.878906 121.113281 -7.863281 121.125 C -7.960938 120.976562 -7.734375 121.519531 -7.507812 122.152344 C -7.277344 122.785156 -6.976562 123.609375 -6.527344 124.425781 C -6.007812 125.363281 -4.929688 126.632812 -3.140625 126.875 C -1.765625 127.066406 -0.585938 126.515625 0.339844 125.898438 C 0.171875 125.964844 0.21875 125.957031 0.472656 125.851562 C 15.078125 119.816406 28.304688 111.378906 41.167969 102.761719 C 40.851562 104.722656 40.800781 106.65625 40.992188 108.421875 C 41.34375 111.6875 41.914062 114.5625 41.617188 117.070312 C 41.617188 117.070312 41.617188 117.25 41.617188 117.25 C 41.617188 117.246094 41.570312 117.429688 41.570312 117.429688 C 41.570312 117.425781 41.617188 117.609375 41.617188 117.605469 C 41.617188 117.605469 41.617188 117.785156 41.617188 117.785156 C 41.890625 120.375 42.890625 123.046875 44.734375 125.183594 C 46.347656 127.050781 48.859375 128.117188 51.601562 128.171875 C 51.65625 128.1875 51.71875 128.203125 51.777344 128.214844 C 51.972656 128.316406 52.183594 128.375 52.402344 128.390625 C 56.199219 128.628906 62.074219 130.191406 67.289062 127.054688 C 67.304688 127.039062 67.320312 127.027344 67.335938 127.011719 C 67.332031 127.011719 67.605469 126.832031 67.601562 126.832031 C 67.601562 126.835938 67.828125 126.609375 67.824219 126.609375 C 67.824219 126.609375 68.050781 126.382812 68.046875 126.386719 C 68.046875 126.390625 68.191406 126.210938 68.226562 126.164062 C 68.230469 126.15625 68.226562 126.117188 68.226562 126.117188 C 68.574219 125.625 68.566406 125.082031 68.761719 124.558594 C 69.660156 125.660156 70.648438 126.726562 71.882812 127.589844 C 71.882812 127.589844 71.90625 127.621094 71.925781 127.632812 C 71.980469 127.671875 72.0625 127.726562 72.058594 127.726562 C 72.058594 127.722656 72.242188 127.8125 72.238281 127.8125 C 72.234375 127.8125 72.460938 127.949219 72.460938 127.945312 C 72.460938 127.945312 72.640625 128.039062 72.640625 128.035156 C 72.636719 128.035156 72.863281 128.082031 72.863281 128.082031 C 72.859375 128.078125 73.085938 128.171875 73.085938 128.171875 C 73.082031 128.171875 73.308594 128.214844 73.308594 128.214844 C 73.304688 128.214844 73.53125 128.214844 73.53125 128.214844 C 73.546875 128.214844 73.5625 128.214844 73.574219 128.214844 C 79.058594 128.46875 84.714844 128.359375 90.113281 128.125 C 90.109375 128.125 90.335938 128.125 90.335938 128.125 C 90.335938 128.125 90.5625 128.078125 90.558594 128.082031 C 90.554688 128.082031 90.78125 128.035156 90.78125 128.035156 C 90.78125 128.039062 91.007812 127.945312 91.003906 127.945312 C 92.410156 127.457031 93.542969 126.480469 94.167969 125.226562 C 94.765625 124.03125 94.816406 122.796875 94.703125 121.75 C 94.484375 119.738281 93.625 117.917969 92.296875 116.578125 C 92.28125 116.566406 92.265625 116.550781 92.25 116.535156 C 92.253906 116.539062 92.074219 116.402344 92.074219 116.402344 C 92.074219 116.402344 91.9375 116.3125 91.941406 116.3125 C 91.941406 116.3125 91.761719 116.179688 91.761719 116.179688 C 91.761719 116.179688 91.714844 116.160156 91.671875 116.132812 C 91.003906 115.710938 90.765625 115.382812 90.558594 114.84375 C 90.351562 114.300781 90.21875 113.476562 90.203125 112.390625 C 90.167969 110.464844 90.535156 107.851562 90.289062 105.125 C 90.285156 105.058594 90.296875 105.015625 90.289062 104.945312 C 90.3125 105.148438 90.3125 104.996094 90.289062 104.765625 C 90.292969 104.753906 90.289062 104.738281 90.289062 104.722656 C 90.300781 104.617188 90.285156 104.515625 90.289062 104.410156 C 90.867188 104.476562 91.46875 104.492188 92.074219 104.320312 C 93.144531 104.023438 93.644531 103.441406 94.167969 102.941406 C 95.699219 103.1875 97.242188 103.175781 98.625 102.539062 C 100.433594 101.710938 101.683594 100.289062 102.59375 98.929688 C 104.371094 96.273438 105.273438 93.269531 105.9375 91.839844 C 105.945312 91.820312 105.972656 91.773438 105.980469 91.75 C 105.992188 91.738281 106.015625 91.722656 106.027344 91.707031 C 109.394531 87.488281 114.246094 81.730469 113.070312 74.414062 C 113.140625 74.859375 113.164062 74.824219 113.070312 74.277344 C 113.007812 73.957031 112.851562 73.664062 112.625 73.429688 C 112.609375 73.417969 112.59375 73.402344 112.578125 73.386719 C 111.894531 71.273438 110.324219 69.683594 108.34375 69.242188 C 107.171875 68.980469 105.871094 69.027344 104.644531 69.597656 C 103.601562 70.082031 102.949219 70.917969 102.460938 71.78125 C 102.339844 71.886719 102.234375 72.007812 102.148438 72.140625 C 102.027344 72.335938 101.953125 72.476562 101.96875 72.453125 C 100.917969 74.167969 99.425781 76.660156 97.957031 78.648438 C 97.859375 78.785156 97.792969 78.828125 97.691406 78.960938 C 96.648438 74.855469 95.273438 70.960938 93.765625 67.546875 C 93.152344 61.800781 91.429688 56.664062 89.933594 51.722656 C 89.933594 51.722656 89.9375 51.691406 89.933594 51.679688 C 89.914062 51.617188 89.84375 51.453125 89.84375 51.457031 C 89.847656 51.460938 89.710938 51.140625 89.710938 51.144531 C 89.710938 51.148438 89.578125 50.875 89.578125 50.875 C 89.578125 50.878906 89.398438 50.652344 89.398438 50.652344 C 89.382812 50.640625 89.371094 50.625 89.355469 50.609375 C 87.601562 48.476562 85.476562 46.40625 83.160156 44.859375 C 83.121094 43.855469 83.136719 42.765625 82.890625 41.382812 C 82.601562 39.742188 81.648438 38.09375 80.21875 36.746094 C 80.203125 36.730469 80.1875 36.71875 80.171875 36.703125 C 80.113281 36.523438 80.023438 36.359375 79.90625 36.210938 C 79.675781 35.933594 79.664062 35.953125 79.683594 35.363281 C 79.699219 34.820312 79.894531 33.949219 80.261719 32.957031 C 81.007812 30.929688 82.496094 28.378906 83.023438 25.46875 C 83.027344 25.421875 83.027344 25.378906 83.023438 25.335938 C 83.023438 25.335938 83.023438 25.15625 83.023438 25.15625 C 83.023438 25.15625 83.070312 24.976562 83.070312 24.976562 C 83.070312 24.980469 83.023438 24.796875 83.023438 24.800781 C 83.023438 24.800781 83.03125 24.757812 83.023438 24.710938 C 83.023438 24.695312 83.027344 24.636719 83.023438 24.621094 C 82.972656 23.421875 83.78125 20.640625 84.183594 17.710938 C 84.390625 16.222656 84.492188 14.511719 83.960938 12.765625 C 83.410156 10.949219 82.113281 9.265625 80.21875 8.171875 L 80.21875 8.21875 C 80.21875 8.21875 80.039062 8.085938 80.039062 8.085938 C 80.039062 8.085938 79.859375 7.996094 79.859375 7.996094 C 78.8125 7.558594 77.644531 7.363281 76.472656 7.414062 C 76.429688 7.414062 76.382812 7.414062 76.339844 7.414062 Z M 76.339844 7.414062 "/>
</g>
</g>
<g clip-path="url(#clip3)" clip-rule="nonzero">
<g clip-path="url(#clip4)" clip-rule="nonzero">
<path style=" stroke:none;fill-rule:nonzero;fill:rgb(100%,100%,100%);fill-opacity:0.0509804;" d="M 76.5625 9.019531 C 76.515625 9.03125 76.472656 9.046875 76.429688 9.066406 C 72.695312 9.597656 70.300781 12.21875 69.027344 15.171875 C 68.671875 16 68.539062 16.886719 68.316406 17.757812 C 68.3125 17.75 68.273438 17.765625 68.269531 17.757812 C 68.304688 15.851562 67.628906 14.097656 66.445312 12.898438 C 65.09375 11.53125 63.320312 10.707031 61.539062 10.402344 C 59.761719 10.097656 57.882812 10.289062 56.503906 11.5625 C 55.125 12.832031 54.710938 15.019531 55.476562 17.445312 C 55.511719 17.554688 55.554688 17.65625 55.609375 17.757812 C 58.0625 22.015625 59.226562 26.75 59.488281 31.664062 C 58.011719 33.339844 56.390625 35.425781 55.433594 37.859375 C 54.363281 40.578125 54.265625 43.953125 56.679688 46.464844 C 57.011719 47.164062 57.363281 47.796875 57.796875 48.203125 C 57.765625 48.214844 57.734375 48.230469 57.707031 48.246094 C 54.066406 49.871094 52.765625 53.105469 52.3125 56.09375 C 51.859375 59.078125 51.9375 62.050781 51.15625 64.160156 C 51.136719 64.203125 51.121094 64.25 51.109375 64.292969 C 49.824219 69.328125 49.230469 73.574219 45.804688 76.773438 C 45.625 76.945312 45.484375 77.160156 45.40625 77.398438 C 43.71875 82.398438 40.914062 87.234375 37.46875 90.546875 C 37.453125 90.5625 37.4375 90.578125 37.425781 90.59375 C 23.160156 100.15625 9.070312 109.96875 -5.945312 118.050781 C -6.324219 118.253906 -6.601562 118.601562 -6.710938 119.015625 C -6.824219 119.429688 -6.753906 119.875 -6.527344 120.234375 C -6.191406 120.746094 -5.855469 122.257812 -5.101562 123.625 C -4.722656 124.304688 -4.03125 125.117188 -2.914062 125.273438 C -1.945312 125.40625 -1.113281 124.992188 -0.285156 124.382812 C -0.242188 124.363281 -0.195312 124.355469 -0.152344 124.335938 C 15.632812 117.8125 29.96875 108.507812 43.933594 99.0625 C 42.394531 102.191406 42.28125 105.332031 42.59375 108.246094 C 42.9375 111.410156 43.558594 114.382812 43.21875 117.25 C 43.207031 117.367188 43.207031 117.488281 43.21875 117.605469 C 43.464844 119.886719 44.386719 122.265625 45.984375 124.113281 C 47.507812 125.878906 49.839844 127.027344 52.492188 126.742188 L 52.492188 126.789062 C 56.558594 127.039062 61.914062 128.394531 66.445312 125.671875 C 66.621094 125.558594 66.773438 125.40625 66.890625 125.226562 C 68.191406 123.390625 68.03125 121.257812 67.421875 119.390625 C 68.617188 122.082031 70.328125 124.535156 72.863281 126.296875 C 73.09375 126.476562 73.375 126.585938 73.664062 126.609375 C 79.078125 126.859375 84.652344 126.75 90.023438 126.519531 C 90.175781 126.511719 90.328125 126.484375 90.46875 126.429688 C 91.46875 126.085938 92.277344 125.355469 92.699219 124.515625 C 93.117188 123.671875 93.1875 122.757812 93.101562 121.929688 C 92.921875 120.273438 92.203125 118.8125 91.136719 117.738281 C 91.042969 117.652344 90.9375 117.578125 90.828125 117.515625 C 88.992188 116.363281 88.636719 114.761719 88.597656 112.433594 C 88.558594 110.253906 88.941406 107.65625 88.6875 105.125 C 88.679688 105.046875 88.695312 104.976562 88.6875 104.902344 C 88.699219 104.8125 88.679688 104.726562 88.6875 104.632812 C 88.757812 103.839844 88.734375 103.066406 88.640625 102.273438 C 88.640625 102.253906 88.644531 102.242188 88.640625 102.226562 C 89.617188 102.761719 90.691406 103.023438 91.628906 102.761719 C 92.5 102.519531 93.097656 101.867188 93.722656 101.289062 C 95.277344 101.664062 96.738281 101.628906 97.957031 101.070312 C 99.382812 100.414062 100.445312 99.253906 101.257812 98.039062 C 102.871094 95.625 103.726562 92.695312 104.511719 91.039062 C 104.515625 91.027344 104.546875 91.007812 104.554688 90.992188 C 107.953125 86.71875 112.527344 81.296875 111.464844 74.679688 C 111.457031 74.632812 111.472656 74.59375 111.464844 74.546875 L 111.421875 74.546875 C 111.160156 72.566406 109.652344 71.171875 107.988281 70.800781 C 107.132812 70.609375 106.171875 70.667969 105.3125 71.070312 C 104.554688 71.421875 103.964844 72.183594 103.574219 73.03125 L 103.53125 72.984375 C 103.484375 73.0625 103.402344 73.21875 103.351562 73.296875 C 102.308594 75 100.789062 77.546875 99.25 79.628906 C 98.445312 80.71875 97.613281 81.628906 96.976562 82.167969 C 96.90625 82.230469 96.953125 82.167969 96.890625 82.210938 C 95.914062 77.070312 94.078125 72.257812 92.207031 68.039062 C 91.644531 62.375 89.910156 57.246094 88.375 52.167969 C 88.320312 51.976562 88.230469 51.792969 88.105469 51.632812 C 86.25 49.375 83.953125 47.117188 81.597656 45.707031 C 81.519531 44.496094 81.554688 43.144531 81.289062 41.648438 C 81.007812 40.070312 80.171875 38.40625 78.613281 37.28125 L 78.65625 37.234375 C 78.195312 36.679688 78.050781 36.128906 78.078125 35.320312 C 78.101562 34.511719 78.335938 33.488281 78.746094 32.378906 C 79.566406 30.160156 80.960938 27.679688 81.421875 25.15625 C 81.433594 25.039062 81.433594 24.917969 81.421875 24.800781 C 81.304688 22.992188 82.195312 20.257812 82.578125 17.492188 C 82.773438 16.105469 82.832031 14.671875 82.402344 13.253906 C 81.972656 11.839844 80.960938 10.492188 79.414062 9.601562 C 79.359375 9.566406 79.296875 9.539062 79.234375 9.511719 C 78.394531 9.160156 77.476562 8.980469 76.5625 9.019531 Z M 65.597656 112.703125 C 65.960938 114.65625 66.382812 116.652344 67.15625 118.585938 C 66.414062 116.8125 65.292969 115.277344 64.304688 114.085938 C 64.492188 113.800781 64.832031 113.375 65.285156 112.96875 C 65.410156 112.859375 65.46875 112.804688 65.597656 112.703125 Z M 65.597656 112.703125 "/>
</g>
</g>
<g clip-path="url(#clip5)" clip-rule="nonzero">
<g clip-path="url(#clip6)" clip-rule="nonzero">
<path style=" stroke:none;fill-rule:nonzero;fill:rgb(100%,100%,100%);fill-opacity:0.0509804;" d="M 76.652344 10.582031 C 70.339844 11.480469 68.96875 18.960938 68.882812 24.261719 C 68.386719 27.957031 68.34375 19.296875 66.84375 18.292969 C 67.847656 11.359375 54.308594 8.65625 56.945312 17.015625 C 59.609375 21.644531 60.921875 26.773438 61.140625 32.066406 C 58.085938 35.390625 53.859375 41.304688 57.796875 45.394531 C 58.429688 47.929688 62.84375 48.511719 58.3125 49.652344 C 52.0625 52.441406 54.460938 59.648438 52.585938 64.707031 C 51.328125 69.625 50.726562 74.269531 46.875 77.867188 C 45.109375 83.09375 42.191406 88.148438 38.492188 91.6875 C 24.160156 101.289062 9.96875 111.203125 -5.234375 119.390625 C -3.984375 121.300781 -4.035156 125.539062 -0.871094 122.9375 C 14.9375 116.421875 29.375 107.054688 43.488281 97.5 C 45.921875 96.601562 47.5 95.601562 45.515625 99.011719 C 42.023438 105.027344 45.492188 111.039062 44.734375 117.429688 C 45.15625 121.367188 48.082031 126.015625 52.582031 125.289062 C 56.839844 125.554688 61.796875 126.644531 65.640625 124.335938 C 67.769531 121.328125 65 117.136719 62.976562 114.75 C 61.117188 113.839844 67.074219 109.167969 66.664062 110.738281 C 67.433594 115.976562 69.238281 121.90625 73.753906 125.050781 C 79.09375 125.296875 84.632812 125.191406 89.980469 124.960938 C 92.664062 124.027344 91.53125 120.335938 90 118.792969 C 85.292969 115.828125 87.828125 109.515625 87.179688 104.855469 C 87.613281 102.460938 85.25 95.351562 88.734375 100.558594 C 90.160156 102.15625 92.40625 101.125 93.457031 99.6875 C 99.640625 101.828125 101.390625 94.015625 103.167969 90.3125 C 106.625 85.953125 110.984375 80.730469 109.960938 74.800781 C 109.710938 72.144531 105.746094 71.15625 104.820312 73.789062 C 102.78125 77.097656 98.296875 84.984375 95.824219 84.179688 C 95.0625 78.605469 92.839844 73.34375 90.765625 68.65625 C 90.28125 63.03125 88.5 57.890625 86.902344 52.617188 C 84.925781 50.210938 82.316406 47.679688 80.113281 46.570312 C 79.800781 43.648438 80.339844 39.863281 77.453125 38.21875 C 74.585938 34.75 79.125 29.144531 79.898438 24.910156 C 79.601562 20.300781 83.679688 13.832031 78.660156 10.9375 C 78.027344 10.675781 77.335938 10.550781 76.652344 10.582031 Z M 86.28125 84.398438 C 89.039062 85.492188 89.0625 92.84375 87.75 91.707031 C 88.414062 89.296875 86.558594 86.8125 86.28125 84.398438 Z M 86.28125 84.398438 "/>
</g>
</g>
<g clip-path="url(#clip7)" clip-rule="nonzero">
<g clip-path="url(#clip8)" clip-rule="nonzero">
<path style=" stroke:none;fill-rule:nonzero;fill:rgb(100%,100%,100%);fill-opacity:0.0509804;" d="M 76.695312 11.917969 C 75.5 11.96875 74.246094 12.570312 73.265625 13.746094 C 70.09375 17.460938 70.492188 22.296875 70.007812 26.179688 C 69.699219 26.589844 69.375 26.988281 69.207031 27.429688 C 68.960938 28.085938 68.804688 28.765625 68.628906 29.304688 C 68.515625 29.644531 68.410156 29.75 68.316406 29.925781 C 67.617188 28.507812 67.328125 26.890625 67.15625 25.066406 C 66.960938 23.015625 66.789062 20.746094 65.550781 18.648438 C 65.488281 15.84375 63.503906 13.816406 61.585938 13.121094 C 60.566406 12.753906 59.386719 12.632812 58.507812 13.476562 C 58.070312 13.898438 57.863281 14.519531 57.882812 15.125 C 57.90625 15.734375 58.078125 16.359375 58.421875 17.042969 C 60.488281 21.1875 62.160156 25.015625 62.074219 28.546875 C 62.050781 29.609375 62.128906 30.316406 62.253906 30.90625 C 62.347656 31.363281 62.4375 31.871094 62.519531 32.421875 C 60.6875 34.558594 59.515625 35.929688 58.820312 37.414062 C 57.851562 39.492188 57.414062 40.996094 57.484375 42.273438 C 57.542969 43.304688 58.128906 44.066406 58.820312 44.59375 C 59.074219 45.21875 59.351562 45.890625 59.980469 46.464844 C 60.460938 46.902344 61.289062 47.046875 62.074219 47.222656 C 61.953125 47.839844 61.984375 48.570312 61.984375 49.40625 C 59.546875 50.164062 57.507812 51.371094 56.234375 53.148438 C 54.867188 55.0625 54.421875 57.539062 54.945312 60.238281 C 54.945312 60.253906 54.9375 60.265625 54.945312 60.28125 C 54.757812 64.113281 52.648438 67.21875 52.3125 71.738281 C 52.179688 73.566406 51.601562 74.195312 50.707031 75.082031 C 49.8125 75.96875 48.519531 77.050781 47.765625 79.179688 C 46.296875 83.339844 44.882812 85.695312 43.796875 87.296875 C 43.257812 88.09375 42.789062 88.691406 42.417969 89.300781 C 42.191406 89.671875 42.140625 90.128906 42.015625 90.546875 C 41.449219 90.671875 40.835938 90.703125 40.457031 91.082031 C 40.089844 91.449219 39.945312 91.914062 39.875 92.375 C 37.640625 93.902344 29.605469 99.363281 20.441406 105.347656 C 11.085938 111.453125 0.789062 117.925781 -4.65625 120.59375 C -5.207031 120.828125 -5.46875 121.464844 -5.234375 122.019531 C -5 122.570312 -4.359375 122.832031 -3.804688 122.597656 C 13.070312 116.863281 40.417969 98.03125 42.730469 96.433594 C 43.253906 96.527344 43.800781 96.476562 44.289062 96.121094 C 44.714844 95.808594 44.960938 95.351562 45.136719 94.828125 C 45.769531 94.996094 46.4375 95.265625 47.007812 95.183594 C 47.515625 95.113281 47.84375 94.757812 48.257812 94.515625 C 48.304688 94.84375 48.375 95.09375 48.523438 95.363281 C 47.070312 98.25 45.859375 101.035156 45.3125 103.476562 C 45.027344 104.765625 44.914062 105.992188 45.09375 107.085938 C 45.230469 107.9375 45.660156 108.691406 46.25 109.3125 C 45.871094 112.058594 45.660156 114.808594 46.027344 117.25 C 46.421875 119.847656 47.496094 122.179688 49.640625 123.578125 C 49.796875 123.683594 49.984375 123.746094 50.171875 123.757812 C 54.441406 123.960938 60.019531 125.132812 64.304688 123.667969 C 64.71875 123.515625 65 123.128906 65.015625 122.6875 C 65.132812 120.273438 63.976562 118.214844 62.832031 116.671875 C 62.261719 115.898438 61.671875 115.265625 61.226562 114.753906 C 60.785156 114.238281 60.507812 113.730469 60.558594 113.859375 L 60.515625 113.859375 C 60.480469 114.019531 60.5 113.886719 60.828125 113.503906 C 61.433594 112.789062 61.570312 112.535156 62.03125 111.945312 C 62.171875 111.90625 62.355469 111.953125 62.476562 111.898438 C 62.859375 111.722656 63.175781 111.515625 63.5 111.230469 C 64.148438 110.664062 64.808594 109.875 65.460938 109.046875 C 66.140625 108.1875 66.664062 107.460938 67.289062 106.59375 C 67.78125 112.207031 68.761719 118.597656 73.796875 123.535156 C 74 123.734375 74.273438 123.84375 74.554688 123.84375 C 78.464844 123.84375 85.34375 123.757812 89.222656 123.757812 C 89.539062 123.757812 89.835938 123.617188 90.042969 123.378906 C 90.25 123.140625 90.339844 122.820312 90.289062 122.507812 C 89.960938 120.59375 88.851562 119.28125 87.839844 118.40625 C 87.335938 117.972656 86.828125 117.601562 86.457031 117.335938 C 86.210938 117.164062 86.1875 117.140625 86.101562 117.070312 C 85.695312 113.277344 85.773438 109.394531 85.835938 105.882812 C 85.886719 102.664062 85.820312 99.882812 85.296875 97.59375 C 85.851562 97.585938 86.316406 97.164062 86.367188 96.609375 C 86.398438 96.167969 86.3125 95.8125 86.234375 95.453125 C 86.566406 95.421875 86.867188 95.246094 87.050781 94.96875 C 87.234375 94.6875 87.277344 94.339844 87.171875 94.023438 C 86.875 93.140625 86.402344 92.40625 86.011719 91.707031 C 86.5 91.480469 86.746094 90.929688 86.59375 90.414062 C 85.628906 87.097656 84.597656 84.449219 83.960938 80.921875 C 83.9375 80.761719 83.875 80.609375 83.78125 80.476562 C 82.476562 78.570312 82.023438 77.039062 82.046875 75.484375 C 82.0625 74.121094 82.523438 72.667969 83.203125 71.070312 C 83.308594 71.296875 83.335938 71.300781 83.425781 71.605469 C 83.90625 73.167969 84.261719 75.570312 84.273438 76.105469 C 84.273438 76.121094 84.273438 76.136719 84.273438 76.148438 C 84.601562 80.625 88.046875 84.363281 89.800781 87.296875 C 89.804688 87.304688 89.796875 87.328125 89.800781 87.339844 C 90.003906 87.980469 89.980469 88.765625 89.84375 89.746094 C 89.734375 90.5625 89.648438 91.554688 89.667969 92.554688 C 89.058594 93.382812 88.785156 93.65625 87.570312 94.78125 C 87.375 94.984375 87.261719 95.257812 87.257812 95.539062 C 87.222656 96.570312 87.707031 97.332031 88.242188 98.082031 C 88.773438 98.828125 89.355469 99.480469 90.070312 99.910156 C 90.480469 100.15625 91.007812 100.101562 91.359375 99.773438 C 92.09375 99.140625 92.617188 98.71875 93.320312 98.082031 C 93.667969 98.347656 93.914062 98.632812 94.4375 98.796875 C 94.886719 98.9375 95.492188 98.972656 96.039062 98.707031 C 96.3125 98.574219 96.425781 98.265625 96.621094 98.039062 C 96.84375 98.054688 97.054688 98.121094 97.289062 98.082031 C 97.742188 98.007812 98.261719 97.671875 98.539062 97.28125 C 98.859375 96.824219 98.929688 96.390625 98.984375 95.898438 C 99.1875 95.851562 99.40625 95.878906 99.5625 95.765625 C 100.21875 95.28125 100.296875 94.664062 100.367188 94.113281 C 100.472656 93.265625 100.28125 92.386719 100.097656 91.574219 C 102.316406 89.570312 104.867188 86.375 106.695312 83.105469 C 107.660156 81.375 108.417969 79.648438 108.746094 78.066406 C 109.070312 76.488281 108.96875 74.914062 107.851562 73.832031 C 107.589844 73.570312 107.210938 73.464844 106.851562 73.546875 C 106.492188 73.625 106.195312 73.886719 106.070312 74.234375 C 105.542969 75.761719 103.523438 78.703125 101.300781 81.453125 C 99.359375 83.859375 97.460938 85.929688 96.085938 87.429688 C 96.023438 87.367188 95.863281 87.164062 95.820312 87.117188 C 95.664062 86.953125 95.433594 86.660156 95.015625 86.046875 C 93.894531 82.832031 93.394531 79.671875 92.832031 77.085938 C 92.546875 75.773438 92.257812 74.617188 91.804688 73.609375 C 91.429688 72.773438 90.851562 72.058594 90.113281 71.558594 C 89.667969 70.960938 89.5 70.460938 89.445312 69.777344 C 89.386719 69.089844 89.441406 68.234375 89.445312 67.234375 C 89.453125 65.34375 89.019531 62.878906 86.902344 60.015625 C 87.359375 57.382812 87.035156 55.433594 86.324219 54.132812 C 85.65625 52.90625 84.75 52.285156 84.140625 51.945312 C 83.664062 50.355469 82.613281 49.261719 81.421875 48.828125 C 80.449219 48.472656 79.710938 48.554688 78.96875 48.558594 C 78.8125 47.789062 78.640625 47.09375 78.835938 44.949219 C 78.878906 44.507812 78.648438 44.082031 78.257812 43.878906 C 78.226562 43.804688 78.210938 43.609375 78.210938 43.34375 C 78.210938 42.808594 78.320312 42.097656 78.300781 41.382812 C 78.289062 41.019531 78.226562 40.605469 77.988281 40.222656 C 77.75 39.839844 77.378906 39.597656 77.007812 39.464844 C 76.570312 39.3125 75.996094 39.351562 75.492188 39.332031 C 75.5625 37.738281 75.457031 36.210938 75.046875 34.742188 C 75.75 32.824219 75.992188 31.265625 77.140625 28.765625 C 78.515625 25.789062 79.761719 21.820312 79.148438 17.800781 C 79.984375 16.378906 80.269531 14.964844 79.816406 13.835938 C 79.3125 12.582031 78.011719 11.859375 76.695312 11.917969 Z M 58.464844 73.34375 C 58.414062 73.636719 58.261719 73.960938 58.285156 74.234375 C 58.3125 74.542969 58.394531 74.820312 58.554688 75.125 C 58.597656 75.207031 58.753906 75.261719 58.820312 75.347656 L 58.777344 75.347656 C 58.789062 75.371094 58.769531 75.375 58.777344 75.390625 C 58.523438 75.625 57.992188 76.152344 57.261719 76.953125 C 57.300781 76.734375 57.445312 76.46875 57.4375 76.285156 C 57.421875 75.78125 57.335938 75.519531 57.351562 75.304688 C 57.367188 75.019531 57.714844 74.328125 58.464844 73.34375 Z M 55.03125 80.429688 C 55.007812 80.542969 55.082031 80.667969 55.078125 80.785156 L 52.359375 83.015625 C 52.53125 82.828125 52.65625 82.625 52.847656 82.4375 C 53.515625 81.78125 54.292969 81.152344 55.03125 80.429688 Z M 51.019531 89.433594 C 50.914062 89.734375 50.902344 90.210938 50.976562 90.460938 C 51.007812 90.570312 51 90.539062 51.019531 90.59375 C 50.816406 90.71875 50.664062 90.867188 50.484375 90.992188 C 50.527344 90.601562 50.519531 90.222656 50.484375 89.835938 C 50.605469 89.726562 50.871094 89.5625 51.019531 89.433594 Z M 51.019531 89.433594 "/>
</g>
</g>
<g clip-path="url(#clip9)" clip-rule="nonzero">
<g clip-path="url(#clip10)" clip-rule="nonzero">
<path style=" stroke:none;fill-rule:nonzero;fill:rgb(0%,0%,0%);fill-opacity:1;" d="M 76.753906 12.96875 C 75.910156 13.007812 74.929688 13.476562 74.109375 14.460938 C 71.25 17.808594 71.601562 22.359375 71.074219 26.429688 C 69.582031 27.601562 69.886719 32.222656 67.710938 31.226562 C 65.328125 27.574219 66.851562 22.800781 64.507812 19.039062 C 64.835938 14.011719 57.019531 11.832031 59.378906 16.554688 C 61.464844 20.726562 63.222656 24.707031 63.132812 28.578125 C 63.082031 30.570312 63.484375 30.820312 63.683594 32.71875 C 61.597656 35.15625 60.46875 36.460938 59.820312 37.847656 C 57.953125 41.847656 58.414062 43.386719 59.765625 44.023438 C 60.296875 45.351562 60.726562 46.269531 63.074219 46.453125 C 64.25 46.484375 64.222656 47.007812 63.132812 47.222656 C 62.957031 47.984375 63.046875 48.519531 63.019531 50.148438 C 57.742188 51.484375 54.890625 55.15625 56.015625 60.296875 C 55.832031 64.492188 53.679688 67.609375 53.367188 71.824219 C 53.058594 75.992188 50.125 75.769531 48.789062 79.546875 C 45.785156 88.039062 42.84375 89.382812 42.832031 91.351562 C 41.273438 91.402344 40.789062 92.140625 40.902344 93.007812 C 36.847656 95.773438 6.992188 116.113281 -4.164062 121.578125 C 12.546875 115.898438 40.78125 96.457031 42.5 95.265625 C 43.308594 95.675781 44.167969 95.382812 44.320312 93.558594 C 48.195312 95.566406 49.9375 91.976562 49.394531 89.367188 C 50.753906 88.050781 54.617188 85.113281 55.519531 84.179688 C 55.101562 84.945312 54.101562 86.820312 53.203125 88.042969 C 52.863281 88.503906 52.574219 88.898438 52.375 89.199219 C 51.648438 90.300781 52.191406 89.9375 52.210938 91.074219 C 48.46875 93.140625 48.914062 94.71875 49.726562 95.378906 C 46.628906 101.414062 44.6875 107.09375 47.355469 108.945312 C 46.503906 114.679688 46.589844 120.304688 50.222656 122.679688 C 54.621094 122.890625 60.148438 123.929688 63.957031 122.625 C 64.148438 118.574219 59.964844 115.308594 59.546875 114.242188 C 59.40625 113.664062 59.28125 113.640625 59.984375 112.808594 C 60.691406 111.976562 60.695312 111.914062 61.421875 110.988281 C 62.855469 111.472656 66.292969 106.007812 68.148438 103.652344 C 68.652344 109.835938 68.984375 117.335938 74.546875 122.792969 C 78.441406 122.792969 85.328125 122.679688 89.222656 122.679688 C 88.664062 119.460938 85.609375 118.335938 85.03125 117.550781 C 84.101562 109.53125 85.484375 101.210938 84.148438 96.976562 C 84.449219 96.757812 84.683594 96.457031 85.304688 96.535156 C 85.453125 94.511719 83.507812 93.667969 86.132812 94.382812 C 85.503906 92.515625 82.953125 89.445312 85.582031 90.742188 C 84.632812 87.484375 83.53125 84.730469 82.878906 81.09375 C 80.078125 77.011719 80.703125 73.851562 82.492188 69.949219 C 83.992188 66.996094 85.320312 74.484375 85.359375 76.070312 C 85.652344 80.0625 88.996094 83.8125 90.820312 86.9375 C 91.445312 88.800781 90.472656 90.953125 90.710938 93.0625 C 89.988281 94.0625 89.628906 94.398438 88.339844 95.597656 C 88.300781 96.578125 89.699219 98.390625 90.65625 98.960938 C 91.707031 98.050781 91.875 98.164062 93.25 96.757812 C 94.046875 97.476562 95.507812 98.671875 96.226562 96.921875 C 97.75 97.242188 97.910156 96.710938 97.992188 94.714844 C 99.609375 95.9375 99.492188 92.726562 98.984375 91.1875 C 103.253906 87.539062 110.027344 77.425781 107.09375 74.582031 C 105.796875 78.339844 98.777344 86.171875 96.117188 89.035156 C 94.835938 87.582031 95.132812 88.214844 94.019531 86.554688 C 91.625 79.789062 91.972656 73.492188 89.222656 72.210938 C 86.921875 69.117188 90.425781 66.039062 85.800781 60.242188 C 86.914062 54.789062 84.402344 53.269531 83.375 52.738281 C 82.964844 49.40625 79.292969 49.363281 78.023438 49.484375 C 77.898438 48.382812 77.476562 47.800781 77.75 44.851562 C 76.71875 44.367188 77.28125 42.453125 77.25 41.429688 C 77.222656 40.410156 76.601562 40.324219 74.4375 40.328125 C 74.640625 38.296875 74.507812 36.355469 73.941406 34.59375 C 74.679688 32.671875 74.898438 31.015625 76.148438 28.304688 C 77.511719 25.347656 78.710938 21.398438 78.023438 17.601562 C 79.929688 14.820312 78.613281 12.890625 76.753906 12.96875 Z M 59.160156 70.832031 C 59.023438 72.089844 59.65625 72.816406 59.65625 72.816406 C 59.144531 73.667969 59.355469 74.789062 59.765625 74.859375 C 60.007812 75.335938 59.875 75.796875 59.875 75.796875 C 59.875 75.796875 55.464844 79.757812 56.179688 81.257812 L 49.394531 86.828125 C 49.734375 82.132812 54.050781 80.789062 55.960938 77.5625 C 57.226562 75.421875 54.394531 75.734375 59.160156 70.832031 Z M 59.160156 70.832031 "/>
</g>
</g>
</g>
</svg>
