
<svg xmlns="http://www.w3.org/2000/svg" xmlns:xlink="http://www.w3.org/1999/xlink" width="128px" height="128px" viewBox="0 0 128 128" version="1.1">
<g id="surface1">
<path style="fill-rule:nonzero;fill:rgb(100%,100%,100%);fill-opacity:1;stroke-width:3.6;stroke-linecap:butt;stroke-linejoin:miter;stroke:rgb(58.823529%,85.098039%,32.54902%);stroke-opacity:1;stroke-miterlimit:4;" d="M 50.851562 112.027344 C 38.46875 108.777344 29.484375 100.828125 25.632812 89.710938 L 24.765625 86.042969 L 24.0625 63.664062 C 23.300781 39.335938 23.734375 39.246094 21.324219 37.347656 C 20.347656 36.578125 19.605469 36.429688 16.738281 36.425781 C 14.855469 36.425781 12.316406 36.304688 11.097656 36.15625 L 8.886719 35.890625 L 8.886719 16.070312 L 48.851562 16.261719 C 92.449219 16.46875 91.050781 16.394531 97.5625 18.949219 C 105.773438 22.167969 112.964844 28.886719 116.460938 36.605469 C 119.140625 42.515625 119.082031 41.773438 119.285156 74.699219 C 119.453125 101.949219 119.40625 104.855469 118.78125 106.074219 C 117.601562 108.347656 115.070312 110.828125 112.863281 111.859375 L 110.753906 112.84375 L 82.28125 112.824219 C 56.035156 112.808594 53.578125 112.746094 50.851562 112.027344 Z M 92.039062 98.941406 C 101.097656 97.988281 108.09375 90.988281 109.328125 81.644531 C 109.632812 79.347656 109.730469 73.074219 109.601562 63.910156 C 109.363281 46.878906 109.285156 46.535156 104.675781 41.878906 C 101.25 38.417969 98.589844 37.277344 93.933594 37.277344 C 90.253906 37.277344 87.625 38 84.855469 39.78125 L 82.808594 41.09375 L 79.339844 39.292969 C 75.890625 37.496094 75.84375 37.484375 71.375 37.484375 C 67.503906 37.484375 66.605469 37.625 64.859375 38.484375 C 61.859375 39.964844 58.839844 43.132812 57.269531 46.449219 L 55.917969 49.308594 L 55.792969 62.292969 L 55.671875 75.273438 L 65.40625 75.273438 L 65.410156 63.347656 C 65.410156 52.191406 65.464844 51.332031 66.25 50.042969 C 68.152344 46.921875 72.550781 45.953125 75.09375 48.09375 C 77.597656 50.203125 77.640625 50.460938 77.640625 63.433594 L 77.640625 75.273438 L 87.257812 75.273438 L 87.40625 63.0625 C 87.546875 51.425781 87.59375 50.792969 88.441406 49.65625 C 91.167969 45.996094 96.207031 45.980469 98.804688 49.621094 C 99.78125 50.992188 99.785156 51.0625 99.917969 66.09375 L 100.046875 81.191406 L 98.882812 83.332031 C 97.578125 85.734375 95.554688 87.507812 92.542969 88.898438 C 90.523438 89.832031 90.34375 89.839844 71.640625 89.761719 C 50.695312 89.671875 51.363281 89.757812 48.300781 86.78125 C 47.445312 85.949219 46.292969 84.300781 45.746094 83.121094 L 44.746094 80.972656 L 44.738281 28.953125 L 41.511719 28.683594 C 39.738281 28.53125 37.648438 28.410156 36.871094 28.410156 L 35.457031 28.410156 L 35.488281 50.890625 C 35.503906 63.257812 35.65625 76.128906 35.828125 79.496094 C 36.125 85.324219 36.207031 85.746094 37.53125 88.226562 C 39.128906 91.230469 42.789062 95.101562 45.566406 96.734375 C 49.632812 99.121094 51.296875 99.289062 70.679688 99.308594 C 80.425781 99.316406 90.035156 99.152344 92.039062 98.941406 Z M 92.039062 98.941406 "/>
<path style="fill-rule:nonzero;fill:rgb(58.823529%,85.098039%,32.54902%);fill-opacity:1;stroke-width:0.3;stroke-linecap:butt;stroke-linejoin:miter;stroke:rgb(58.823529%,85.098039%,32.54902%);stroke-opacity:1;stroke-miterlimit:4;" d="M 58.441406 99.109375 C 51.515625 98.949219 49.605469 98.652344 46.867188 97.300781 C 44.882812 96.320312 43.660156 95.40625 41.699219 93.4375 C 39.191406 90.921875 37.144531 87.851562 36.546875 85.707031 C 35.859375 83.226562 35.722656 78.351562 35.628906 51.785156 L 35.542969 28.429688 L 35.96875 28.429688 C 36.644531 28.429688 42.996094 28.855469 43.84375 28.953125 L 44.609375 29.046875 L 44.609375 80.863281 L 45.277344 82.300781 C 45.644531 83.09375 46.292969 84.269531 46.722656 84.914062 C 47.640625 86.300781 49.542969 88.171875 50.546875 88.679688 C 52.488281 89.667969 56.183594 89.824219 75.550781 89.757812 C 92.09375 89.703125 90.960938 89.773438 93.136719 88.679688 C 96.1875 87.144531 97.902344 85.417969 99.652344 82.09375 L 100.140625 81.171875 L 99.964844 66.933594 C 99.863281 58.757812 99.726562 52.265625 99.640625 51.6875 C 99.441406 50.390625 99.078125 49.695312 98.066406 48.6875 C 95.617188 46.238281 91.917969 46.222656 89.296875 48.65625 C 88.277344 49.597656 87.941406 50.1875 87.71875 51.414062 C 87.535156 52.425781 87.28125 62.53125 87.277344 69.035156 C 87.277344 71.449219 87.234375 73.828125 87.179688 74.320312 L 87.085938 75.214844 L 77.683594 75.214844 L 77.621094 63.882812 C 77.550781 52.105469 77.523438 51.546875 76.910156 50.125 C 76.542969 49.265625 75.105469 47.871094 74.082031 47.378906 C 73.128906 46.921875 71.207031 46.808594 70.0625 47.140625 C 68.371094 47.632812 66.582031 49.042969 66.011719 50.34375 C 65.476562 51.546875 65.417969 52.753906 65.332031 64.101562 L 65.246094 75.214844 L 55.667969 75.214844 L 55.742188 74.304688 C 55.78125 73.804688 55.851562 67.984375 55.898438 61.371094 L 55.980469 49.34375 L 57.046875 47.160156 C 58.644531 43.890625 60.582031 41.46875 62.957031 39.773438 C 63.996094 39.03125 65.613281 38.179688 66.523438 37.898438 C 67.308594 37.65625 74.230469 37.53125 75.40625 37.738281 C 76.027344 37.847656 77.222656 38.363281 79.503906 39.5 C 81.277344 40.386719 82.777344 41.109375 82.839844 41.109375 C 82.902344 41.109375 83.570312 40.710938 84.324219 40.21875 C 87.09375 38.425781 89.050781 37.734375 92.199219 37.433594 C 95.320312 37.140625 98.140625 37.578125 100.378906 38.707031 C 102.234375 39.644531 104.671875 41.734375 106.488281 43.953125 C 109.214844 47.277344 109.453125 49.1875 109.46875 68.074219 C 109.476562 76.78125 109.433594 80.179688 109.292969 81.253906 C 108.09375 90.609375 101.511719 97.542969 92.660156 98.765625 C 89.816406 99.15625 69.539062 99.359375 58.441406 99.109375 Z M 58.441406 99.109375 "/>
</g>
</svg>
