
<svg xmlns="http://www.w3.org/2000/svg" xmlns:xlink="http://www.w3.org/1999/xlink" width="128px" height="128px" viewBox="0 0 128 128" version="1.1">
<g id="surface1">
<path style="fill-rule:nonzero;fill:rgb(100%,100%,100%);fill-opacity:1;stroke-width:28.971884;stroke-linecap:butt;stroke-linejoin:miter;stroke:rgb(17.254902%,28.235294%,60%);stroke-opacity:1;stroke-miterlimit:4;" d="M 84.514919 20.0488 L 443.218044 20.0488 C 475.218044 20.0488 501.155544 45.9863 501.155544 77.9863 L 501.155544 436.689425 C 501.155544 468.689425 475.218044 494.64255 443.218044 494.64255 L 84.514919 494.64255 C 52.514919 494.64255 26.561794 468.689425 26.561794 436.689425 L 26.561794 77.9863 C 26.561794 45.9863 52.514919 20.0488 84.514919 20.0488 Z M 84.514919 20.0488 " transform="matrix(0.25,0,0,0.25,-1.964667,-0.336419)"/>
<path style=" stroke:none;fill-rule:nonzero;fill:rgb(25.490196%,41.176471%,88.235294%);fill-opacity:1;" d="M 60.070312 114.3125 C 50.199219 113.40625 41.339844 110.019531 33.445312 104.125 C 30.757812 102.121094 25.882812 97.242188 23.875 94.554688 C 19.691406 88.953125 16.804688 82.972656 15.175781 76.527344 C 13.980469 71.796875 13.679688 69.289062 13.679688 64.003906 C 13.679688 58.714844 13.980469 56.207031 15.175781 51.476562 C 17.464844 42.429688 22.414062 33.992188 29.238281 27.503906 C 36.835938 20.28125 46.203125 15.71875 56.824219 14.070312 C 60.28125 13.53125 67.730469 13.53125 71.199219 14.070312 C 82.304688 15.796875 91.742188 20.554688 99.605469 28.402344 C 106.203125 34.988281 110.589844 42.648438 112.824219 51.476562 C 114.019531 56.207031 114.320312 58.714844 114.320312 64.003906 C 114.320312 69.289062 114.019531 71.796875 112.824219 76.527344 C 109.273438 90.554688 99.773438 102.371094 86.734375 108.964844 C 81.789062 111.464844 76.832031 113.058594 71.414062 113.894531 C 69.207031 114.234375 62.074219 114.496094 60.070312 114.3125 Z M 70.199219 105.945312 C 78.429688 103.773438 85.714844 96.394531 90.039062 85.839844 C 93.804688 76.648438 94.933594 65.125 93.128906 54.285156 C 90.921875 41.035156 83.699219 29.546875 74.753906 25.046875 C 71.203125 23.261719 68.820312 22.675781 65.09375 22.679688 C 62.867188 22.679688 61.96875 22.78125 60.226562 23.238281 C 52.390625 25.292969 45.90625 31.316406 41.378906 40.746094 C 37.929688 47.9375 36.273438 55.632812 36.269531 64.484375 C 36.261719 74.613281 38.453125 83.574219 42.808594 91.25 C 47.433594 99.398438 53.703125 104.53125 61.050781 106.1875 C 63.390625 106.710938 67.726562 106.601562 70.199219 105.945312 Z M 70.199219 105.945312 "/>
<path style=" stroke:none;fill-rule:nonzero;fill:rgb(17.254902%,28.235294%,60%);fill-opacity:1;" d="M 61.117188 108.972656 C 57.347656 108.511719 53.753906 107.34375 50.039062 105.371094 C 47.238281 103.882812 45.042969 102.269531 42.484375 99.820312 C 38.652344 96.148438 36.199219 92.75 33.671875 87.613281 C 27.289062 74.640625 26.789062 58.527344 32.347656 45 C 33.585938 41.980469 34.074219 41.007812 35.609375 38.476562 C 39.726562 31.683594 45.679688 26.21875 52.082031 23.347656 C 56.453125 21.386719 59.578125 20.71875 64.386719 20.714844 C 69.324219 20.707031 72.703125 21.4375 77 23.445312 C 80.984375 25.304688 83.875 27.363281 87.207031 30.71875 C 94.148438 37.710938 98.453125 46.914062 99.960938 57.984375 C 100.386719 61.117188 100.445312 68.109375 100.070312 71.011719 C 99.105469 78.472656 96.8125 85.441406 93.554688 90.828125 C 87.632812 100.617188 79.257812 106.878906 69.703125 108.660156 C 67.445312 109.082031 63.261719 109.234375 61.117188 108.972656 Z M 69.34375 105.636719 C 75.566406 104.109375 80.949219 99.980469 85.308594 93.386719 C 93.375 81.183594 95.382812 62.898438 90.320312 47.695312 C 87.082031 37.960938 81.550781 30.625 74.644531 26.898438 C 67.957031 23.292969 60.226562 23.578125 53.699219 27.675781 C 37.183594 38.046875 31.40625 67.34375 41.679688 88.628906 C 43.828125 93.078125 45.925781 96.074219 49.078125 99.183594 C 53.097656 103.148438 57.402344 105.324219 62.804688 106.121094 C 64.074219 106.308594 67.699219 106.039062 69.34375 105.636719 Z M 69.34375 105.636719 "/>
</g>
</svg>
