
<svg xmlns="http://www.w3.org/2000/svg" xmlns:xlink="http://www.w3.org/1999/xlink" width="128px" height="128px" viewBox="0 0 128 128" version="1.1">
<g id="surface1">
<path style="fill-rule:nonzero;fill:rgb(92.54902%,92.54902%,92.54902%);fill-opacity:1;stroke-width:6.841342;stroke-linecap:butt;stroke-linejoin:miter;stroke:rgb(0%,66.666667%,83.137255%);stroke-opacity:1;stroke-miterlimit:4;" d="M 21.648438 7.964844 L 106.351562 7.964844 C 113.90625 7.964844 120.035156 14.09375 120.035156 21.648438 L 120.035156 106.351562 C 120.035156 113.90625 113.90625 120.035156 106.351562 120.035156 L 21.648438 120.035156 C 14.09375 120.035156 7.964844 113.90625 7.964844 106.351562 L 7.964844 21.648438 C 7.964844 14.09375 14.09375 7.964844 21.648438 7.964844 Z M 21.648438 7.964844 "/>
<path style=" stroke:none;fill-rule:evenodd;fill:rgb(50.196078%,50.196078%,50.196078%);fill-opacity:1;" d="M 55.949219 102.15625 L 43.085938 110.59375 L 84.886719 110.59375 L 72.023438 102.15625 Z M 55.949219 102.15625 "/>
<path style=" stroke:none;fill-rule:evenodd;fill:rgb(50.196078%,50.196078%,50.196078%);fill-opacity:1;" d="M 55.949219 99.601562 L 43.085938 108.035156 L 84.886719 108.035156 L 72.023438 99.601562 Z M 55.949219 99.601562 "/>
<path style=" stroke:none;fill-rule:nonzero;fill:rgb(30.196078%,30.196078%,30.196078%);fill-opacity:1;" d="M 55.054688 84.113281 L 72.945312 84.113281 L 72.945312 104.015625 L 55.054688 104.015625 Z M 55.054688 84.113281 "/>
<path style=" stroke:none;fill-rule:nonzero;fill:rgb(50.196078%,50.196078%,50.196078%);fill-opacity:1;" d="M 19.613281 17.40625 L 108.386719 17.40625 C 111.5 17.40625 114.019531 19.8125 114.019531 22.785156 L 114.019531 84.953125 C 114.019531 87.925781 111.5 90.332031 108.386719 90.332031 L 19.613281 90.332031 C 16.5 90.332031 13.980469 87.925781 13.980469 84.953125 L 13.980469 22.785156 C 13.980469 19.8125 16.5 17.40625 19.613281 17.40625 Z M 19.613281 17.40625 "/>
<path style=" stroke:none;fill-rule:nonzero;fill:rgb(0%,66.666667%,83.137255%);fill-opacity:1;" d="M 23.34375 24.234375 L 104.65625 24.234375 L 104.65625 83.507812 L 23.34375 83.507812 Z M 23.34375 24.234375 "/>
<path style=" stroke:none;fill-rule:evenodd;fill:rgb(0%,0%,0%);fill-opacity:1;" d="M 43.085938 108.035156 L 43.085938 110.59375 L 84.914062 110.59375 L 84.914062 108.035156 Z M 43.085938 108.035156 "/>
<path style=" stroke:none;fill-rule:nonzero;fill:rgb(100%,100%,100%);fill-opacity:1;" d="M 51.597656 60.40625 C 51.597656 61.835938 50.4375 62.992188 49.007812 62.992188 C 47.578125 62.992188 46.421875 61.835938 46.421875 60.40625 C 46.421875 58.976562 47.578125 57.816406 49.007812 57.816406 C 50.4375 57.816406 51.597656 58.976562 51.597656 60.40625 Z M 51.597656 60.40625 "/>
<path style=" stroke:none;fill-rule:nonzero;fill:rgb(100%,100%,100%);fill-opacity:1;" d="M 59.097656 60.40625 C 59.097656 61.835938 57.9375 62.992188 56.507812 62.992188 C 55.078125 62.992188 53.921875 61.835938 53.921875 60.40625 C 53.921875 58.976562 55.078125 57.816406 56.507812 57.816406 C 57.9375 57.816406 59.097656 58.976562 59.097656 60.40625 Z M 59.097656 60.40625 "/>
<path style=" stroke:none;fill-rule:nonzero;fill:rgb(100%,100%,100%);fill-opacity:1;" d="M 66.597656 60.40625 C 66.597656 61.835938 65.4375 62.992188 64.007812 62.992188 C 62.578125 62.992188 61.421875 61.835938 61.421875 60.40625 C 61.421875 58.976562 62.578125 57.816406 64.007812 57.816406 C 65.4375 57.816406 66.597656 58.976562 66.597656 60.40625 Z M 66.597656 60.40625 "/>
<path style=" stroke:none;fill-rule:nonzero;fill:rgb(100%,100%,100%);fill-opacity:1;" d="M 74.097656 60.40625 C 74.097656 61.835938 72.9375 62.992188 71.507812 62.992188 C 70.078125 62.992188 68.921875 61.835938 68.921875 60.40625 C 68.921875 58.976562 70.078125 57.816406 71.507812 57.816406 C 72.9375 57.816406 74.097656 58.976562 74.097656 60.40625 Z M 74.097656 60.40625 "/>
<path style=" stroke:none;fill-rule:nonzero;fill:rgb(100%,100%,100%);fill-opacity:1;" d="M 81.597656 60.40625 C 81.597656 61.835938 80.4375 62.992188 79.007812 62.992188 C 77.578125 62.992188 76.421875 61.835938 76.421875 60.40625 C 76.421875 58.976562 77.578125 57.816406 79.007812 57.816406 C 80.4375 57.816406 81.597656 58.976562 81.597656 60.40625 Z M 81.597656 60.40625 "/>
</g>
</svg>
