<!-- color: #54d160 -->
<svg xmlns="http://www.w3.org/2000/svg" xmlns:xlink="http://www.w3.org/1999/xlink" width="128px" height="128px" viewBox="0 0 128 128" version="1.1">
<defs>
<clipPath id="clip1">
  <path d="M 24 24 L 104 24 L 104 104 L 24 104 Z M 24 24 "/>
</clipPath>
<clipPath id="clip2">
  <path d="M 125.332031 64 C 125.332031 97.886719 97.855469 125.332031 64 125.332031 C 30.144531 125.332031 2.667969 97.886719 2.667969 64 C 2.667969 30.113281 30.144531 2.667969 64 2.667969 C 97.855469 2.667969 125.332031 30.113281 125.332031 64 Z M 125.332031 64 "/>
</clipPath>
</defs>
<g id="surface1">
<path style="fill-rule:nonzero;fill:rgb(31.764706%,81.568627%,36.470588%);fill-opacity:1;stroke-width:2.641764;stroke-linecap:butt;stroke-linejoin:miter;stroke:rgb(41.176471%,69.019608%,43.529412%);stroke-opacity:1;stroke-miterlimit:4;" d="M 7.646484 2.362793 L 40.353514 2.362793 C 43.271483 2.362793 45.637206 4.728515 45.637206 7.646484 L 45.637206 40.353514 C 45.637206 43.271483 43.271483 45.637206 40.353514 45.637206 L 7.646484 45.637206 C 4.728515 45.637206 2.362793 43.271483 2.362793 40.353514 L 2.362793 7.646484 C 2.362793 4.728515 4.728515 2.362793 7.646484 2.362793 Z M 7.646484 2.362793 " transform="matrix(2.666667,0,0,2.666667,0,0)"/>
<g clip-path="url(#clip1)" clip-rule="nonzero">
<g clip-path="url(#clip2)" clip-rule="nonzero">
<path style=" stroke:none;fill-rule:nonzero;fill:rgb(97.647059%,97.647059%,97.647059%);fill-opacity:1;" d="M 64 24 C 41.90625 24 24 41.90625 24 64 C 24 86.09375 41.90625 104 64 104 C 86.09375 104 104 86.09375 104 64 C 104 41.90625 86.09375 24 64 24 M 88 37.332031 L 96 45.332031 L 53.332031 90.667969 L 32 69.332031 L 40 61.332031 L 53.332031 74.667969 M 88 37.332031 "/>
</g>
</g>
</g>
</svg>
