
<svg xmlns="http://www.w3.org/2000/svg" xmlns:xlink="http://www.w3.org/1999/xlink" width="128px" height="128px" viewBox="0 0 128 128" version="1.1">
<g id="surface1">
<path style="fill-rule:nonzero;fill:rgb(100%,100%,100%);fill-opacity:1;stroke-width:7.075311;stroke-linecap:butt;stroke-linejoin:miter;stroke:rgb(92.54902%,46.666667%,8.235294%);stroke-opacity:1;stroke-miterlimit:4;" d="M 20.199219 6.050781 L 107.800781 6.050781 C 115.613281 6.050781 121.949219 12.386719 121.949219 20.199219 L 121.949219 107.800781 C 121.949219 115.613281 115.613281 121.949219 107.800781 121.949219 L 20.199219 121.949219 C 12.386719 121.949219 6.050781 115.613281 6.050781 107.800781 L 6.050781 20.199219 C 6.050781 12.386719 12.386719 6.050781 20.199219 6.050781 Z M 20.199219 6.050781 "/>
<path style="fill-rule:nonzero;fill:rgb(45.490196%,57.254902%,50.196078%);fill-opacity:1;stroke-width:1.04972;stroke-linecap:butt;stroke-linejoin:miter;stroke:rgb(92.54902%,46.666667%,8.235294%);stroke-opacity:1;stroke-miterlimit:4;" d="M 44.201926 187.570679 C 43.896177 187.635274 43.594734 187.704175 43.29329 187.773077 C 42.737773 187.854897 42.190869 187.975474 41.66119 188.139115 C 27.868009 191.330107 16.318427 200.713604 10.375689 213.563698 C 10.15176 214.007251 9.936443 214.450803 9.729739 214.898661 C 9.479972 215.540305 9.243124 216.186255 9.019195 216.836511 C 8.709139 217.620263 8.420614 218.408322 8.153622 219.204993 C 7.865098 220.199756 7.611024 221.198825 7.387095 222.206507 C 7.257905 222.680203 7.137327 223.158206 7.021057 223.640515 C 6.573198 225.944403 6.301899 228.282741 6.211466 230.633998 C 6.15979 231.331624 6.121033 232.02925 6.103808 232.726875 C 6.103808 232.735488 6.103808 232.739794 6.103808 232.748407 C 6.103808 232.75702 6.103808 232.761326 6.103808 232.769939 C 6.116727 233.187653 6.138258 233.605367 6.168403 234.023081 C 10.220661 237.51121 14.901644 240.581625 18.889307 240.637607 C 22.562608 240.689283 26.894778 238.208836 30.809234 235.185791 C 30.766171 234.927411 30.73172 234.664725 30.705882 234.402039 C 30.662819 233.915423 30.636981 233.433114 30.632674 232.946498 C 30.628368 232.877597 30.624062 232.813002 30.624062 232.744101 C 30.624062 232.679506 30.628368 232.614911 30.632674 232.550316 C 30.636981 232.0637 30.662819 231.577085 30.705882 231.094776 C 30.744639 230.677061 30.800621 230.263654 30.865216 229.850246 C 30.895361 229.647848 30.925505 229.445451 30.959956 229.243053 C 31.050389 228.777969 31.158047 228.312885 31.282931 227.856414 C 31.317381 227.714305 31.356138 227.572196 31.394895 227.430087 C 31.545617 226.92194 31.713564 226.422406 31.907349 225.927177 C 31.937493 225.841051 31.971944 225.750618 32.002088 225.664491 C 34.163867 220.294495 38.655371 216.199174 44.201926 214.536929 L 44.201926 214.27855 C 44.395711 214.287162 44.589496 214.308694 44.787587 214.308694 L 65.475206 214.308694 C 70.268153 214.308694 74.354862 211.100477 76.081702 206.514233 C 73.403163 207.19894 68.68773 208.297054 65.772343 208.275523 C 63.817268 208.262604 61.668409 208.180784 60.019083 207.125732 C 58.920969 206.4238 57.719502 203.964885 57.719502 203.964885 C 57.719502 203.964885 65.884308 205.502245 69.798763 204.537627 C 72.03375 203.986416 75.263498 201.768655 76.9645 200.524125 L 76.9645 200.347566 C 76.9645 193.315326 71.839965 187.656806 65.475206 187.656806 L 44.787587 187.656806 C 44.589496 187.656806 44.395711 187.678337 44.201926 187.68695 Z M 61.026765 193.896681 C 62.693316 193.896681 64.045504 195.248869 64.045504 196.915419 C 64.045504 198.586276 62.693316 199.938464 61.026765 199.938464 C 59.360215 199.938464 58.008026 198.586276 58.008026 196.915419 C 58.008026 195.248869 59.360215 193.896681 61.026765 193.896681 Z M 61.026765 193.896681 " transform="matrix(0.907095,0,0,0.907095,38.642957,-151.2498)"/>
<path style="fill-rule:nonzero;fill:rgb(45.490196%,57.254902%,50.196078%);fill-opacity:1;stroke-width:1.04972;stroke-linecap:butt;stroke-linejoin:miter;stroke:rgb(92.54902%,46.666667%,8.235294%);stroke-opacity:1;stroke-miterlimit:4;" d="M 47.918291 260.149597 C 40.597526 268.960352 29.736957 274.059049 18.282114 274.063356 C 17.812724 274.04613 17.343334 274.024599 16.869638 273.990148 C 18.127087 275.282048 19.462049 276.496433 20.861607 277.628998 C 20.956347 277.6979 21.055392 277.771107 21.154438 277.840009 C 22.261165 278.709888 23.406649 279.528091 24.590891 280.294618 C 24.689936 280.3506 24.784676 280.406583 24.883721 280.462565 C 26.080882 281.220479 27.308186 281.926718 28.569941 282.572667 C 28.694825 282.62865 28.824015 282.688938 28.953205 282.744921 C 32.174341 284.329651 35.567731 285.531117 39.064472 286.327789 C 39.576926 286.482817 40.097992 286.599088 40.636283 286.676602 C 40.950646 286.749809 41.265008 286.823017 41.583677 286.887612 L 41.583677 286.767035 C 41.777461 286.779954 41.971246 286.801485 42.169338 286.801485 L 62.856956 286.801485 C 69.221715 286.801485 74.34625 281.138659 74.34625 274.110725 L 74.34625 272.840357 C 74.34625 265.808117 69.221715 260.149597 62.856956 260.149597 Z M 47.918291 260.149597 " transform="matrix(0.907095,0,0,0.907095,38.642957,-151.2498)"/>
<path style="fill-rule:nonzero;fill:rgb(92.54902%,46.666667%,8.235294%);fill-opacity:1;stroke-width:1;stroke-linecap:butt;stroke-linejoin:miter;stroke:rgb(92.54902%,46.666667%,8.235294%);stroke-opacity:1;stroke-miterlimit:4;" d="M 13.463329 195.395284 C -5.424243 196.131667 -18.239887 209.317655 -20.625594 228.127713 C -20.836605 229.006205 -20.961488 229.914841 -20.961488 230.857927 L -20.961488 246.847338 L -21.082066 246.847338 L -21.082066 283.903324 L 2.16782 283.903324 L 2.16782 267.625389 C 6.775596 269.554626 11.723571 270.553695 16.718916 270.553695 C 37.531418 270.553695 54.39932 253.681487 54.39932 232.873291 C 54.395014 226.650641 52.745689 221.642377 49.800158 216.164723 L 44.826344 217.129341 C 44.619641 217.172405 44.412937 217.10781 44.206233 217.094891 L 44.206233 217.36619 C 38.375459 219.11456 37.337633 221.55625 35.06389 227.206158 C 35.029439 227.296591 34.969151 227.554971 34.939006 227.64971 C 34.775366 228.080343 34.943313 228.489445 34.809816 228.932997 C 35.283513 230.362699 34.297363 231.710581 34.301669 233.222104 C 34.301669 241.081159 24.724387 247.252133 16.861025 247.252133 C 8.997663 247.252133 2.628598 240.878762 2.624292 233.0154 C 2.628598 230.560791 1.302248 227.946847 2.396056 225.754924 C 2.572616 225.406111 2.628598 224.833369 2.706112 224.450106 C 2.809464 223.941958 2.955879 223.44673 3.093682 222.947196 C 3.326224 221.883532 3.597523 220.832787 3.898966 219.790654 C 4.178877 218.95092 4.484627 218.119798 4.807602 217.297288 C 5.04445 216.612581 5.289911 215.932181 5.556904 215.260393 C 5.776527 214.786697 6.000456 214.317307 6.232998 213.852223 C 9.510116 206.604666 12.787235 200.265745 19.703204 195.184274 C 17.545732 194.80101 15.508837 195.037859 13.463329 195.395284 Z M 13.463329 195.395284 " transform="matrix(0.907095,0,0,0.907095,38.642957,-151.2498)"/>
</g>
</svg>
