<!-- color: #20bef9 -->
<svg xmlns="http://www.w3.org/2000/svg" xmlns:xlink="http://www.w3.org/1999/xlink" width="128px" height="128px" viewBox="0 0 128 128" version="1.1">
<defs>
<clipPath id="clip1">
  <path d="M 14 14 L 114 14 L 114 114 L 14 114 Z M 14 14 "/>
</clipPath>
<clipPath id="clip2">
  <path d="M 152.167969 64.007812 C 152.167969 112.730469 112.664062 152.195312 63.984375 152.195312 C 15.304688 152.195312 -24.199219 112.730469 -24.199219 64.007812 C -24.199219 15.289062 15.304688 -24.175781 63.984375 -24.175781 C 112.664062 -24.175781 152.167969 15.289062 152.167969 64.007812 Z M 152.167969 64.007812 "/>
</clipPath>
</defs>
<g id="surface1">
<path style="fill-rule:nonzero;fill:rgb(100%,100%,100%);fill-opacity:1;stroke-width:1.651844;stroke-linecap:butt;stroke-linejoin:miter;stroke:rgb(71.372549%,8.627451%,8.627451%);stroke-opacity:1;stroke-miterlimit:4;" d="M 14.040101 10.745401 L 34.491303 10.745401 C 36.316095 10.745401 37.79531 12.224616 37.79531 14.049408 L 37.79531 34.500611 C 37.79531 36.325403 36.316095 37.804618 34.491303 37.804618 L 14.040101 37.804618 C 12.215309 37.804618 10.736093 36.325403 10.736093 34.500611 L 10.736093 14.049408 C 10.736093 12.224616 12.215309 10.745401 14.040101 10.745401 Z M 14.040101 10.745401 " transform="matrix(4.272747,0,0,4.272747,-39.681204,-39.720974)"/>
<path style=" stroke:none;fill-rule:nonzero;fill:rgb(100%,100%,100%);fill-opacity:1;" d="M 102.980469 62.582031 C 102.980469 40.484375 85.570312 22.574219 64.09375 22.574219 C 42.617188 22.574219 25.203125 40.484375 25.203125 62.582031 C 25.203125 84.675781 42.617188 102.585938 64.09375 102.585938 C 85.570312 102.585938 102.980469 84.675781 102.980469 62.582031 Z M 102.980469 62.582031 "/>
<g clip-path="url(#clip1)" clip-rule="nonzero">
<g clip-path="url(#clip2)" clip-rule="nonzero">
<path style=" stroke:none;fill-rule:nonzero;fill:rgb(71.372549%,8.627451%,8.627451%);fill-opacity:1;" d="M 41.210938 14.164062 C 26.265625 14.164062 14.179688 26.265625 14.179688 41.195312 C 14.179688 45.808594 15.347656 50.273438 17.382812 54.074219 C 16.710938 57.296875 16.335938 60.574219 16.335938 63.992188 C 16.335938 90.304688 37.679688 111.648438 64.027344 111.648438 C 67.429688 111.648438 70.722656 111.289062 73.925781 110.613281 C 77.746094 112.679688 82.148438 113.835938 86.789062 113.835938 C 101.734375 113.835938 113.820312 101.734375 113.820312 86.804688 C 113.820312 82.160156 112.652344 77.726562 110.601562 73.910156 C 111.273438 70.703125 111.632812 67.410156 111.632812 64.007812 C 111.632812 37.710938 90.292969 16.351562 63.976562 16.351562 C 60.5625 16.351562 57.265625 16.695312 54.0625 17.386719 C 50.257812 15.351562 45.796875 14.164062 41.183594 14.164062 M 63.046875 33.949219 C 77.9375 33.949219 85.621094 41.78125 85.621094 46.378906 C 85.621094 50.992188 83.40625 51.683594 79.75 51.683594 C 72.648438 51.683594 75.554688 43.160156 62.257812 43.160156 C 57.851562 43.160156 52.355469 45.164062 52.355469 50.289062 C 52.355469 54.40625 57.226562 55.921875 65.820312 58.03125 C 78.777344 61.492188 88.496094 64.9375 88.496094 76.785156 C 88.496094 88.289062 79.089844 94.054688 64.203125 94.054688 C 49.316406 94.054688 39.804688 85.1875 39.804688 80.585938 C 39.804688 75.992188 41.558594 74.835938 45.210938 74.835938 C 52.324219 74.835938 51.367188 84.511719 64.667969 84.511719 C 69.085938 84.511719 75.601562 82.503906 75.601562 77.367188 C 75.601562 73.265625 75.257812 71.84375 65.820312 69.308594 C 55.742188 67.945312 39.460938 64.679688 39.460938 52.15625 C 39.460938 40.65625 48.175781 33.960938 63.0625 33.960938 M 63.0625 33.960938 "/>
</g>
</g>
</g>
</svg>
