
<svg xmlns="http://www.w3.org/2000/svg" xmlns:xlink="http://www.w3.org/1999/xlink" width="128px" height="128px" viewBox="0 0 128 128" version="1.1">
<defs>
<linearGradient id="linear0" gradientUnits="userSpaceOnUse" x1="1" y1="0" x2="47" y2="0" gradientTransform="matrix(0,-2.666667,2.666667,0,0.00590578,128.000003)">
<stop offset="0" style="stop-color:rgb(83.529412%,18.431373%,16.862745%);stop-opacity:1;"/>
<stop offset="1" style="stop-color:rgb(84.705882%,24.705882%,23.921569%);stop-opacity:1;"/>
</linearGradient>
</defs>
<g id="surface1">
<path style=" stroke:none;fill-rule:nonzero;fill:rgb(0%,0%,0%);fill-opacity:0.0196078;" d="M 2.667969 114.667969 L 2.667969 115.332031 C 2.667969 121.242188 7.421875 126 13.332031 126 L 114.667969 126 C 120.578125 126 125.332031 121.242188 125.332031 115.332031 L 125.332031 114.667969 C 125.332031 120.578125 120.578125 125.332031 114.667969 125.332031 L 13.332031 125.332031 C 7.421875 125.332031 2.667969 120.578125 2.667969 114.667969 Z M 2.667969 116 L 2.667969 117.332031 C 2.667969 123.242188 7.421875 128 13.332031 128 L 114.667969 128 C 120.578125 128 125.332031 123.242188 125.332031 117.332031 L 125.332031 116 C 125.332031 121.910156 120.578125 126.667969 114.667969 126.667969 L 13.332031 126.667969 C 7.421875 126.667969 2.667969 121.910156 2.667969 116 Z M 2.667969 116 "/>
<path style=" stroke:none;fill-rule:nonzero;fill:rgb(0%,0%,0%);fill-opacity:0.0509804;" d="M 2.667969 115.332031 L 2.667969 116 C 2.667969 121.910156 7.421875 126.667969 13.332031 126.667969 L 114.667969 126.667969 C 120.578125 126.667969 125.332031 121.910156 125.332031 116 L 125.332031 115.332031 C 125.332031 121.242188 120.578125 126 114.667969 126 L 13.332031 126 C 7.421875 126 2.667969 121.242188 2.667969 115.332031 Z M 2.667969 115.332031 "/>
<path style=" stroke:none;fill-rule:nonzero;fill:rgb(0%,0%,0%);fill-opacity:0.101961;" d="M 2.667969 114.667969 L 2.667969 115.332031 C 2.667969 121.242188 7.421875 126 13.332031 126 L 114.667969 126 C 120.578125 126 125.332031 121.242188 125.332031 115.332031 L 125.332031 114.667969 C 125.332031 120.578125 120.578125 125.332031 114.667969 125.332031 L 13.332031 125.332031 C 7.421875 125.332031 2.667969 120.578125 2.667969 114.667969 Z M 2.667969 114.667969 "/>
<path style=" stroke:none;fill-rule:nonzero;fill:url(#linear0);" d="M 2.667969 114.667969 L 2.667969 13.332031 C 2.667969 7.441406 7.441406 2.667969 13.332031 2.667969 L 114.667969 2.667969 C 120.558594 2.667969 125.332031 7.441406 125.332031 13.332031 L 125.332031 114.667969 C 125.332031 120.558594 120.558594 125.332031 114.667969 125.332031 L 13.332031 125.332031 C 7.441406 125.332031 2.667969 120.558594 2.667969 114.667969 Z M 2.667969 114.667969 "/>
<path style=" stroke:none;fill-rule:nonzero;fill:rgb(80%,80%,80%);fill-opacity:1;" d="M 73.210938 27.585938 C 69.328125 27.585938 66.125 31.148438 65.492188 35.859375 L 96.238281 35.859375 C 95.601562 31.148438 92.40625 27.585938 88.523438 27.585938 Z M 73.210938 27.585938 "/>
<path style=" stroke:none;fill-rule:nonzero;fill:rgb(14.509804%,68.235294%,87.45098%);fill-opacity:1;" d="M 31.507812 37.1875 L 96.492188 37.1875 C 101.628906 37.1875 105.796875 41.351562 105.796875 46.492188 L 105.796875 79.148438 C 105.796875 84.285156 101.628906 88.453125 96.492188 88.453125 L 31.507812 88.453125 C 26.371094 88.453125 22.203125 84.285156 22.203125 79.148438 L 22.203125 46.492188 C 22.203125 41.351562 26.371094 37.1875 31.507812 37.1875 Z M 31.507812 37.1875 "/>
<path style=" stroke:none;fill-rule:nonzero;fill:rgb(14.509804%,68.235294%,87.45098%);fill-opacity:1;" d="M 31.507812 49.148438 L 96.492188 49.148438 C 101.628906 49.148438 105.796875 53.316406 105.796875 58.457031 L 105.796875 91.109375 C 105.796875 96.25 101.628906 100.414062 96.492188 100.414062 L 31.507812 100.414062 C 26.371094 100.414062 22.203125 96.25 22.203125 91.109375 L 22.203125 58.457031 C 22.203125 53.316406 26.371094 49.148438 31.507812 49.148438 Z M 31.507812 49.148438 "/>
</g>
</svg>
