
<svg xmlns="http://www.w3.org/2000/svg" xmlns:xlink="http://www.w3.org/1999/xlink" width="128px" height="128px" viewBox="0 0 128 128" version="1.1">
<g id="surface1">
<path style=" stroke:none;fill-rule:evenodd;fill:rgb(100%,100%,100%);fill-opacity:1;" d="M 19.386719 13.421875 L 109.207031 13.421875 L 109.207031 117.21875 L 19.386719 117.21875 Z M 19.386719 13.421875 "/>
<path style=" stroke:none;fill-rule:nonzero;fill:rgb(23.921569%,23.921569%,23.921569%);fill-opacity:1;" d="M 13.691406 116.699219 C 11.40625 116.039062 9.105469 113.203125 8.730469 110.589844 C 8.5625 109.398438 8.488281 87.386719 8.570312 61.675781 C 8.71875 15.367188 8.730469 14.917969 9.761719 13.539062 C 10.332031 12.773438 11.429688 11.675781 12.195312 11.105469 C 13.578125 10.070312 13.867188 10.0625 64.207031 10.0625 C 114.542969 10.0625 114.832031 10.070312 116.21875 11.105469 C 116.984375 11.675781 118.078125 12.773438 118.648438 13.539062 C 119.683594 14.921875 119.691406 15.230469 119.691406 63.53125 C 119.691406 111.832031 119.683594 112.140625 118.648438 113.527344 C 116.566406 116.320312 115.234375 116.910156 110.496094 117.152344 L 106.070312 117.382812 L 107.332031 116.351562 L 108.59375 115.324219 L 108.867188 55.714844 L 92.703125 55.714844 L 92.703125 94.046875 L 89.171875 94.046875 L 89.171875 104.640625 C 89.171875 114.5625 89.238281 115.296875 90.183594 116.242188 C 91.191406 117.25 91.191406 117.25 87.371094 117.25 L 83.550781 117.25 L 84.597656 115.921875 C 85.578125 114.675781 85.640625 113.949219 85.640625 104.320312 L 85.640625 94.046875 L 81.609375 94.046875 L 81.609375 55.714844 L 69.5 55.714844 L 69.5 94.046875 L 65.96875 94.046875 L 65.96875 104.484375 C 65.96875 114.5 66.015625 114.960938 67.066406 116.085938 L 68.164062 117.25 L 60.246094 117.25 L 61.34375 116.085938 C 62.398438 114.960938 62.441406 114.5 62.441406 104.484375 L 62.441406 94.046875 L 58.910156 94.046875 L 58.910156 55.714844 L 46.804688 55.714844 L 46.804688 94.046875 L 42.769531 94.046875 L 42.769531 104.320312 C 42.769531 113.949219 42.835938 114.675781 43.8125 115.921875 L 44.859375 117.25 L 41.039062 117.25 C 37.21875 117.25 37.078125 117.683594 38.085938 116.671875 C 39.03125 115.726562 39.238281 114.5625 39.238281 104.640625 L 39.238281 94.046875 L 35.707031 94.046875 L 35.707031 55.714844 L 23.601562 55.714844 L 23.601562 85.152344 C 23.601562 114.171875 23.617188 114.613281 24.648438 115.921875 L 25.691406 117.25 L 20.484375 117.203125 C 17.621094 117.179688 14.5625 116.953125 13.691406 116.699219 Z M 40.863281 47.3125 C 44.273438 46.238281 47.847656 42.828125 49.558594 39.023438 C 50.796875 36.257812 50.933594 35.449219 50.738281 32.039062 C 50.386719 25.984375 47.59375 21.6875 42.125 18.773438 C 40.367188 17.835938 39.195312 17.636719 35.453125 17.640625 C 31.515625 17.640625 30.578125 17.816406 28.359375 18.984375 C 23.03125 21.785156 19.960938 26.808594 19.921875 32.785156 C 19.875 40.4375 25.21875 46.890625 32.640625 48.140625 C 35.308594 48.589844 37.511719 48.367188 40.863281 47.3125 Z M 31.367188 36.847656 C 29.941406 35.421875 29.65625 34.765625 29.65625 32.925781 C 29.65625 30.40625 30.585938 28.800781 32.6875 27.714844 C 37.835938 25.054688 43.164062 30.382812 40.5 35.53125 C 39.414062 37.632812 37.8125 38.5625 35.292969 38.5625 C 33.453125 38.5625 32.796875 38.277344 31.367188 36.847656 Z M 73.789062 38.5625 L 73.789062 32.761719 L 66.222656 32.761719 L 66.078125 38.023438 C 66 40.917969 66.054688 43.597656 66.195312 43.972656 C 66.394531 44.484375 67.390625 44.625 70.125 44.511719 L 73.789062 44.363281 Z M 89.171875 38.5625 L 89.171875 32.511719 L 81.609375 32.511719 L 81.609375 44.617188 L 89.171875 44.617188 Z M 104.8125 38.5625 L 104.8125 32.511719 L 96.742188 32.511719 L 96.742188 44.617188 L 104.8125 44.617188 Z M 81.609375 26.960938 L 81.609375 24.945312 L 65.96875 24.945312 L 65.96875 28.980469 L 81.609375 28.980469 Z M 104.8125 26.960938 L 104.8125 24.945312 L 85.140625 24.945312 L 85.140625 28.980469 L 104.8125 28.980469 Z M 104.8125 26.960938 "/>
<path style=" stroke:none;fill-rule:evenodd;fill:rgb(100%,0%,0%);fill-opacity:1;" d="M 65.898438 32.542969 L 74.578125 32.542969 L 74.578125 45.015625 L 65.898438 45.015625 Z M 65.898438 32.542969 "/>
<path style=" stroke:none;fill-rule:evenodd;fill:rgb(0%,50.196078%,0%);fill-opacity:1;" d="M 81.085938 32.542969 L 89.761719 32.542969 L 89.761719 45.015625 L 81.085938 45.015625 Z M 81.085938 32.542969 "/>
<path style=" stroke:none;fill-rule:evenodd;fill:rgb(50.196078%,0%,50.196078%);fill-opacity:1;" d="M 96.273438 32.273438 L 104.949219 32.273438 L 104.949219 44.746094 L 96.273438 44.746094 Z M 96.273438 32.273438 "/>
<path style=" stroke:none;fill-rule:evenodd;fill:rgb(100%,100%,100%);fill-opacity:1;" d="M 84.609375 24.40625 L 105.21875 24.40625 L 105.21875 29.289062 L 84.609375 29.289062 Z M 84.609375 24.40625 "/>
<path style=" stroke:none;fill-rule:evenodd;fill:rgb(100%,100%,100%);fill-opacity:1;" d="M 61.558594 24.40625 L 82.171875 24.40625 L 82.171875 29.289062 L 61.558594 29.289062 Z M 61.558594 24.40625 "/>
</g>
</svg>
