
<svg xmlns="http://www.w3.org/2000/svg" xmlns:xlink="http://www.w3.org/1999/xlink" width="128px" height="128px" viewBox="0 0 128 128" version="1.1">
<g id="surface1">
<path style=" stroke:none;fill-rule:evenodd;fill:rgb(94.509804%,76.862745%,5.882353%);fill-opacity:1;" d="M 96.765625 12.292969 L 106.828125 12.292969 L 106.828125 26.097656 L 96.765625 26.097656 Z M 96.765625 12.292969 "/>
<path style=" stroke:none;fill-rule:evenodd;fill:rgb(94.509804%,76.862745%,5.882353%);fill-opacity:1;" d="M 21.320312 12.175781 L 31.375 12.175781 L 31.375 25.984375 L 21.320312 25.984375 Z M 21.320312 12.175781 "/>
<path style=" stroke:none;fill-rule:evenodd;fill:rgb(90.588235%,29.803922%,23.529412%);fill-opacity:1;" d="M 11.335938 15.804688 L 117.523438 15.804688 L 117.523438 61.628906 L 11.335938 61.628906 Z M 11.335938 15.804688 "/>
<path style=" stroke:none;fill-rule:evenodd;fill:rgb(75.294118%,22.352941%,16.862745%);fill-opacity:1;" d="M 16.589844 21.746094 L 111.683594 21.746094 L 111.683594 62.785156 L 16.589844 62.785156 Z M 16.589844 21.746094 "/>
<path style=" stroke:none;fill-rule:nonzero;fill:rgb(70.196078%,70.196078%,70.196078%);fill-opacity:1;" d="M 38.425781 43.644531 L 35.214844 38.238281 L 38.03125 33.394531 C 42.457031 25.789062 43.664062 25.738281 43.664062 33.144531 C 43.664062 38.308594 44.773438 40.441406 47.460938 40.441406 C 49.609375 40.441406 50.335938 38.945312 50.921875 33.304688 C 51.277344 29.867188 51.769531 28.183594 52.359375 28.375 C 52.847656 28.535156 54.507812 30.824219 56.050781 33.457031 L 58.847656 38.25 L 56.050781 43.171875 C 53.550781 47.566406 52.992188 48.097656 50.863281 48.105469 C 49.554688 48.109375 45.046875 48.3125 45.023438 48.308594 L 41.636719 48.03125 Z M 38.425781 43.644531 "/>
<path style=" stroke:none;fill-rule:evenodd;fill:rgb(90.588235%,29.803922%,23.529412%);fill-opacity:1;" d="M 5.421875 59.160156 L 123.117188 59.160156 L 123.117188 116.109375 L 5.421875 116.109375 Z M 5.421875 59.160156 "/>
<path style=" stroke:none;fill-rule:evenodd;fill:rgb(17.254902%,24.313725%,31.372549%);fill-opacity:1;" d="M 41.84375 47.960938 L 52.625 47.960938 L 52.625 61.769531 L 41.84375 61.769531 Z M 41.84375 47.960938 "/>
<path style=" stroke:none;fill-rule:evenodd;fill:rgb(59.607843%,63.921569%,63.921569%);fill-opacity:1;" d="M 74.023438 31.648438 L 81.910156 31.648438 L 81.910156 59.285156 L 74.023438 59.285156 Z M 74.023438 31.648438 "/>
<path style=" stroke:none;fill-rule:evenodd;fill:rgb(96.078431%,37.647059%,31.764706%);fill-opacity:1;" d="M 5.441406 59.136719 L 123.136719 59.136719 L 123.136719 78.117188 L 5.441406 78.117188 Z M 5.441406 59.136719 "/>
<path style=" stroke:none;fill-rule:evenodd;fill:rgb(94.509804%,76.862745%,5.882353%);fill-opacity:1;" d="M 21.089844 53.847656 L 26.265625 53.847656 L 26.265625 67.652344 L 21.089844 67.652344 Z M 21.089844 53.847656 "/>
<path style=" stroke:none;fill-rule:evenodd;fill:rgb(95.294118%,61.176471%,7.058824%);fill-opacity:1;" d="M 26.15625 53.855469 L 31.335938 53.855469 L 31.335938 67.664062 L 26.15625 67.664062 Z M 26.15625 53.855469 "/>
<path style=" stroke:none;fill-rule:evenodd;fill:rgb(94.509804%,76.862745%,5.882353%);fill-opacity:1;" d="M 96.621094 53.996094 L 101.796875 53.996094 L 101.796875 67.804688 L 96.621094 67.804688 Z M 96.621094 53.996094 "/>
<path style=" stroke:none;fill-rule:evenodd;fill:rgb(95.294118%,61.176471%,7.058824%);fill-opacity:1;" d="M 101.6875 54.003906 L 106.867188 54.003906 L 106.867188 67.8125 L 101.6875 67.8125 Z M 101.6875 54.003906 "/>
<path style=" stroke:none;fill-rule:evenodd;fill:rgb(70.196078%,70.196078%,70.196078%);fill-opacity:1;" d="M 77.957031 31.515625 C 80.136719 31.515625 81.902344 33.714844 81.902344 36.425781 L 81.902344 39.734375 C 81.902344 42.445312 80.136719 44.644531 77.957031 44.644531 C 75.78125 44.644531 74.015625 42.445312 74.015625 39.734375 L 74.015625 36.425781 C 74.015625 33.714844 75.78125 31.515625 77.957031 31.515625 Z M 77.957031 31.515625 "/>
<path style=" stroke:none;fill-rule:evenodd;fill:rgb(70.196078%,70.196078%,70.196078%);fill-opacity:1;" d="M 74.003906 31.332031 L 81.894531 31.332031 L 81.894531 39.082031 L 74.003906 39.082031 Z M 74.003906 31.332031 "/>
</g>
</svg>
