
<svg xmlns="http://www.w3.org/2000/svg" xmlns:xlink="http://www.w3.org/1999/xlink" width="128px" height="128px" viewBox="0 0 128 128" version="1.1">
<g id="surface1">
<path style=" stroke:none;fill-rule:nonzero;fill:rgb(100%,100%,100%);fill-opacity:1;" d="M 110.378906 65.445312 C 110.386719 90.546875 89.949219 110.902344 64.734375 110.902344 C 39.523438 110.902344 19.085938 90.546875 19.09375 65.445312 C 19.085938 40.34375 39.523438 19.988281 64.734375 19.988281 C 89.949219 19.988281 110.386719 40.34375 110.378906 65.445312 Z M 110.378906 65.445312 "/>
<path style=" stroke:none;fill-rule:nonzero;fill:rgb(29.803922%,61.960784%,97.647059%);fill-opacity:1;" d="M 18.96875 120.335938 C 13.753906 119.199219 9.351562 114.757812 8.238281 109.5 C 7.707031 106.992188 7.710938 20.902344 8.242188 18.394531 C 8.945312 15.085938 11.066406 11.917969 13.972656 9.84375 C 16.003906 8.394531 17.539062 7.816406 20.257812 7.484375 C 23.289062 7.113281 105.789062 7.097656 109 7.46875 C 114.636719 8.117188 119.382812 12.292969 120.808594 17.859375 C 121.226562 19.476562 121.25 22.328125 121.25 64.082031 L 121.25 108.582031 L 120.679688 110.566406 C 119.292969 115.351562 115.042969 119.3125 110.191406 120.339844 C 107.765625 120.855469 21.335938 120.847656 18.96875 120.335938 Z M 72.03125 93.1875 C 78.136719 92.335938 84.460938 89.78125 89.238281 86.230469 C 94.78125 82.109375 98.589844 76.761719 100.414062 70.535156 C 100.925781 68.792969 100.988281 68.054688 100.988281 63.707031 C 100.988281 59.359375 100.925781 58.621094 100.414062 56.878906 C 98.074219 48.902344 92.5625 42.5 84.433594 38.3125 C 80.652344 36.359375 78.722656 35.640625 75.433594 34.960938 C 66.652344 33.136719 57.632812 34 50.441406 37.34375 C 43.105469 40.761719 37.683594 45.769531 34.757812 51.832031 C 32.476562 56.5625 31.878906 59.195312 31.839844 64.695312 C 31.804688 69.117188 32.191406 71.078125 33.757812 74.5 C 34.375 75.84375 34.875 77.144531 34.875 77.398438 C 34.875 78.929688 31.753906 82.84375 29.132812 84.59375 C 26.589844 86.296875 26.878906 87.480469 30.097656 88.542969 C 34.179688 89.890625 42.082031 89.984375 45.410156 88.71875 L 46.664062 88.242188 L 48.335938 89.070312 C 52.359375 91.070312 56.570312 92.449219 60.527344 93.0625 C 63.25 93.484375 69.402344 93.554688 72.03125 93.1875 Z M 62.652344 87.679688 C 58.554688 87.203125 53.90625 85.585938 50.03125 83.28125 C 47.265625 81.636719 43.171875 77.542969 41.539062 74.789062 C 37.445312 67.875 37.445312 59.789062 41.539062 52.878906 C 43.171875 50.121094 47.265625 46.027344 50.03125 44.382812 C 60.398438 38.226562 72.859375 38.226562 83.222656 44.382812 C 85.988281 46.027344 90.082031 50.121094 91.714844 52.878906 C 95.808594 59.789062 95.808594 67.875 91.714844 74.789062 C 90.082031 77.542969 85.988281 81.636719 83.222656 83.28125 C 76.925781 87.023438 69.914062 88.519531 62.652344 87.679688 Z M 62.652344 87.679688 "/>
</g>
</svg>
