
<svg xmlns="http://www.w3.org/2000/svg" xmlns:xlink="http://www.w3.org/1999/xlink" width="128px" height="128px" viewBox="0 0 128 128" version="1.1">
<g id="surface1">
<path style=" stroke:none;fill-rule:nonzero;fill:rgb(30.196078%,30.196078%,30.196078%);fill-opacity:1;" d="M 18.59375 6.507812 L 109.40625 6.507812 C 116.078125 6.507812 121.492188 11.921875 121.492188 18.59375 L 121.492188 109.40625 C 121.492188 116.078125 116.078125 121.492188 109.40625 121.492188 L 18.59375 121.492188 C 11.921875 121.492188 6.507812 116.078125 6.507812 109.40625 L 6.507812 18.59375 C 6.507812 11.921875 11.921875 6.507812 18.59375 6.507812 Z M 18.59375 6.507812 "/>
<path style=" stroke:none;fill-rule:nonzero;fill:rgb(90.196078%,90.196078%,90.196078%);fill-opacity:1;" d="M 64.152344 13.765625 L 114.375 63.804688 L 64.335938 114.03125 L 14.113281 63.992188 Z M 64.152344 13.765625 "/>
<path style=" stroke:none;fill-rule:nonzero;fill:rgb(0%,0%,0%);fill-opacity:0.623529;" d="M 27.703125 104.789062 C 30.730469 101.324219 53.125 78.515625 54.265625 77.734375 C 55.816406 76.671875 59.277344 72.617188 58.929688 72.269531 C 50.53125 71.867188 44.007812 71.914062 34.355469 71.960938 L 38.765625 69.058594 C 45.492188 64.632812 57.09375 57.113281 72.132812 47.4375 C 79.617188 42.617188 85.804688 38.53125 85.875 38.359375 C 85.945312 38.183594 86.246094 38.042969 86.546875 38.042969 C 86.847656 38.042969 89.859375 36.296875 93.242188 34.160156 C 96.625 32.023438 99.457031 30.34375 99.53125 30.421875 C 99.609375 30.5 92.945312 37.421875 84.722656 45.804688 C 76.503906 54.183594 69.875 61.203125 69.996094 61.394531 C 70.125 61.605469 74.558594 61.664062 80.910156 61.535156 C 86.789062 61.417969 91.910156 61.4375 92.28125 61.582031 C 92.820312 61.789062 92.398438 62.234375 90.226562 63.765625 C 66.15625 80.132812 70.734375 76.664062 47.3125 92.570312 C 35.875 100.335938 26.410156 106.691406 26.277344 106.691406 C 26.148438 106.691406 26.789062 105.835938 27.703125 104.789062 Z M 27.703125 104.789062 "/>
<path style=" stroke:none;fill-rule:nonzero;fill:rgb(97.254902%,77.647059%,23.921569%);fill-opacity:1;" d="M 28.167969 98.992188 C 31.195312 95.527344 53.585938 72.71875 54.726562 71.9375 C 56.277344 70.875 59.738281 66.820312 59.390625 66.472656 C 50.359375 66.109375 43.859375 66.136719 34.816406 66.164062 C 55.25 52.65625 76.769531 38.929688 93.703125 28.363281 C 97.089844 26.226562 99.917969 24.546875 99.992188 24.625 C 100.070312 24.703125 93.40625 31.625 85.1875 40.007812 C 76.964844 48.386719 70.335938 55.402344 70.457031 55.597656 C 79.046875 55.648438 84.402344 55.664062 92.742188 55.785156 C 63.582031 76.25 63.609375 76.261719 26.742188 100.894531 C 26.609375 100.894531 27.25 100.039062 28.167969 98.992188 Z M 28.167969 98.992188 "/>
</g>
</svg>
