
<svg xmlns="http://www.w3.org/2000/svg" xmlns:xlink="http://www.w3.org/1999/xlink" width="128px" height="128px" viewBox="0 0 128 128" version="1.1">
<g id="surface1">
<path style="fill-rule:nonzero;fill:rgb(100%,100%,100%);fill-opacity:1;stroke-width:31.174202;stroke-linecap:butt;stroke-linejoin:miter;stroke:rgb(83.137255%,10.196078%,10.196078%);stroke-opacity:1;stroke-miterlimit:4;" d="M 137.93829 -508.958327 L 523.893488 -508.958327 C 558.328474 -508.958327 586.249666 -481.037135 586.249666 -446.602149 L 586.249666 -60.646951 C 586.249666 -26.211966 558.328474 1.709227 523.893488 1.709227 L 137.93829 1.709227 C 103.503305 1.709227 75.582112 -26.211966 75.582112 -60.646951 L 75.582112 -446.602149 C 75.582112 -481.037135 103.503305 -508.958327 137.93829 -508.958327 Z M 137.93829 -508.958327 " transform="matrix(0.226083,0,0,0.226083,-10.814374,121.340136)"/>
<path style=" stroke:none;fill-rule:nonzero;fill:rgb(83.137255%,10.196078%,10.196078%);fill-opacity:1;" d="M 85.515625 110.351562 C 72.40625 107.742188 60.59375 105.375 59.261719 105.097656 L 56.835938 104.59375 L 56.835938 67.273438 L 72.335938 67.410156 C 80.859375 67.484375 93.003906 67.660156 99.328125 67.800781 L 110.820312 68.054688 L 110.820312 91.625 C 110.820312 113.808594 110.773438 115.195312 110.078125 115.148438 C 109.671875 115.125 98.617188 112.96875 85.515625 110.351562 Z M 33.640625 100.019531 L 17.402344 96.835938 L 17.292969 81.835938 L 17.179688 66.835938 L 33.53125 67.027344 C 42.519531 67.132812 49.925781 67.261719 49.988281 67.3125 C 50.046875 67.367188 50.046875 75.460938 49.988281 85.304688 L 49.875 103.203125 Z M 17.191406 46.242188 C 17.191406 38.007812 17.246094 31.269531 17.3125 31.269531 C 17.382812 31.269531 24.539062 29.847656 33.21875 28.105469 C 41.898438 26.367188 49.246094 24.945312 49.546875 24.945312 C 49.980469 24.945312 50.085938 28.515625 50.085938 42.800781 L 50.085938 60.65625 L 41.546875 60.933594 C 36.851562 61.085938 29.449219 61.210938 25.101562 61.210938 L 17.191406 61.210938 Z M 56.835938 42.183594 L 56.835938 23.4375 L 83.089844 18.253906 C 97.527344 15.402344 109.671875 12.976562 110.078125 12.863281 C 110.777344 12.667969 110.820312 13.996094 110.820312 36.515625 L 110.820312 60.371094 L 96.546875 60.371094 C 88.699219 60.371094 76.554688 60.496094 69.554688 60.648438 L 56.835938 60.929688 Z M 56.835938 42.183594 "/>
</g>
</svg>
