<!-- color: #ffbe33 -->
<svg xmlns="http://www.w3.org/2000/svg" xmlns:xlink="http://www.w3.org/1999/xlink" width="128px" height="128px" viewBox="0 0 128 128" version="1.1">
<defs>
<clipPath id="clip1">
  <path d="M 23.75 24.25 L 103.25 24.25 L 103.25 100.5 L 23.75 100.5 Z M 23.75 24.25 "/>
</clipPath>
<clipPath id="clip2">
  <path d="M 136.257812 62.277344 C 136.257812 102.515625 103.628906 135.109375 63.425781 135.109375 C 23.222656 135.109375 -9.40625 102.515625 -9.40625 62.277344 C -9.40625 22.039062 23.222656 -10.554688 63.425781 -10.554688 C 103.628906 -10.554688 136.257812 22.039062 136.257812 62.277344 Z M 136.257812 62.277344 "/>
</clipPath>
</defs>
<g id="surface1">
<path style="fill-rule:nonzero;fill:rgb(100%,73.333333%,16.078431%);fill-opacity:1;stroke-width:7.050111;stroke-linecap:butt;stroke-linejoin:miter;stroke:rgb(17.647059%,17.647059%,17.647059%);stroke-opacity:1;stroke-miterlimit:4;" d="M 20.355469 6.253906 L 107.644531 6.253906 C 115.429688 6.253906 121.746094 12.570312 121.746094 20.355469 L 121.746094 107.644531 C 121.746094 115.429688 115.429688 121.746094 107.644531 121.746094 L 20.355469 121.746094 C 12.570312 121.746094 6.253906 115.429688 6.253906 107.644531 L 6.253906 20.355469 C 6.253906 12.570312 12.570312 6.253906 20.355469 6.253906 Z M 20.355469 6.253906 "/>
<path style=" stroke:none;fill-rule:nonzero;fill:rgb(17.647059%,17.647059%,17.647059%);fill-opacity:1;" d="M 64 13.890625 C 36.320312 13.890625 13.890625 36.320312 13.890625 64 C 13.890625 91.675781 36.320312 114.109375 64 114.109375 C 91.675781 114.109375 114.109375 91.675781 114.109375 64 C 114.109375 36.320312 91.675781 13.890625 64 13.890625 Z M 64 18.261719 C 89.257812 18.261719 109.734375 38.738281 109.734375 64 C 109.734375 89.257812 89.257812 109.734375 64 109.734375 C 38.738281 109.734375 18.261719 89.257812 18.261719 64 C 18.261719 38.738281 38.738281 18.261719 64 18.261719 Z M 64 18.261719 "/>
<g clip-path="url(#clip1)" clip-rule="nonzero">
<g clip-path="url(#clip2)" clip-rule="nonzero">
<path style=" stroke:none;fill-rule:nonzero;fill:rgb(17.647059%,17.647059%,17.647059%);fill-opacity:1;" d="M 62.734375 24.277344 C 56.710938 24.414062 50.140625 26.28125 42.941406 30.511719 L 57.09375 53.964844 C 61.769531 51.292969 66.023438 51.796875 70.15625 53.964844 L 84.007812 30.511719 C 77.402344 26.726562 70.476562 24.09375 62.734375 24.277344 M 63.523438 57.332031 C 59.378906 57.332031 56.003906 60.796875 56.003906 65.050781 C 56.003906 69.304688 59.378906 72.773438 63.523438 72.773438 C 67.667969 72.773438 71.046875 69.304688 71.046875 65.050781 C 71.046875 60.796875 67.667969 57.332031 63.523438 57.332031 M 23.84375 63.171875 C 23.679688 79.289062 29.902344 91.398438 42.546875 99.488281 L 56.890625 76.132812 C 52.5 72.980469 51.066406 68.921875 51.152344 64.160156 M 103.007812 63.46875 L 76.089844 64.460938 C 76.015625 69.960938 73.539062 73.4375 69.65625 76.035156 L 83.414062 100.28125 C 100.089844 89.53125 103.070312 76.703125 103.007812 63.46875 M 103.007812 63.46875 "/>
</g>
</g>
</g>
</svg>
