
<svg xmlns="http://www.w3.org/2000/svg" xmlns:xlink="http://www.w3.org/1999/xlink" width="48px" height="48px" viewBox="0 0 48 48" version="1.1">
<defs>
<clipPath id="clip1">
  <path d="M 21.75 26.53125 L 26.25 26.53125 L 26.25 39.5625 L 21.75 39.5625 Z M 21.75 26.53125 "/>
</clipPath>
<clipPath id="clip2">
  <path d="M 20.363281 26.574219 L 27.4375 26.574219 C 27.4375 26.574219 27.4375 26.574219 27.4375 26.578125 L 27.4375 39.519531 L 20.363281 39.519531 L 20.363281 26.578125 C 20.363281 26.574219 20.363281 26.574219 20.363281 26.574219 Z M 20.363281 26.574219 "/>
</clipPath>
<clipPath id="clip3">
  <path d="M 20.625 39.09375 L 27.28125 39.09375 L 27.28125 39.5625 L 20.625 39.5625 Z M 20.625 39.09375 "/>
</clipPath>
<clipPath id="clip4">
  <path d="M 20.363281 26.574219 L 27.4375 26.574219 C 27.4375 26.574219 27.4375 26.574219 27.4375 26.578125 L 27.4375 39.519531 L 20.363281 39.519531 L 20.363281 26.578125 C 20.363281 26.574219 20.363281 26.574219 20.363281 26.574219 Z M 20.363281 26.574219 "/>
</clipPath>
<clipPath id="clip5">
  <path d="M 20.089844 26.453125 L 27.738281 26.453125 C 27.738281 26.453125 27.738281 26.460938 27.738281 26.46875 L 27.738281 65.371094 C 27.738281 65.382812 27.738281 65.386719 27.738281 65.386719 L 20.089844 65.386719 C 20.089844 65.386719 20.089844 65.382812 20.089844 65.371094 L 20.089844 26.46875 C 20.089844 26.460938 20.089844 26.453125 20.089844 26.453125 Z M 20.089844 26.453125 "/>
</clipPath>
<clipPath id="clip6">
  <path d="M 20.625 33.75 L 27.28125 33.75 L 27.28125 38.15625 L 20.625 38.15625 Z M 20.625 33.75 "/>
</clipPath>
<clipPath id="clip7">
  <path d="M 20.363281 26.574219 L 27.4375 26.574219 C 27.4375 26.574219 27.4375 26.574219 27.4375 26.578125 L 27.4375 39.519531 L 20.363281 39.519531 L 20.363281 26.578125 C 20.363281 26.574219 20.363281 26.574219 20.363281 26.574219 Z M 20.363281 26.574219 "/>
</clipPath>
<clipPath id="clip8">
  <path d="M 20.089844 26.453125 L 27.738281 26.453125 C 27.738281 26.453125 27.738281 26.460938 27.738281 26.46875 L 27.738281 65.371094 C 27.738281 65.382812 27.738281 65.386719 27.738281 65.386719 L 20.089844 65.386719 C 20.089844 65.386719 20.089844 65.382812 20.089844 65.371094 L 20.089844 26.46875 C 20.089844 26.460938 20.089844 26.453125 20.089844 26.453125 Z M 20.089844 26.453125 "/>
</clipPath>
<clipPath id="clip9">
  <path d="M 20.625 37.3125 L 27.28125 37.3125 L 27.28125 39.5625 L 20.625 39.5625 Z M 20.625 37.3125 "/>
</clipPath>
<clipPath id="clip10">
  <path d="M 20.363281 26.574219 L 27.4375 26.574219 C 27.4375 26.574219 27.4375 26.574219 27.4375 26.578125 L 27.4375 39.519531 L 20.363281 39.519531 L 20.363281 26.578125 C 20.363281 26.574219 20.363281 26.574219 20.363281 26.574219 Z M 20.363281 26.574219 "/>
</clipPath>
<clipPath id="clip11">
  <path d="M 20.089844 26.453125 L 27.738281 26.453125 C 27.738281 26.453125 27.738281 26.460938 27.738281 26.46875 L 27.738281 65.371094 C 27.738281 65.382812 27.738281 65.386719 27.738281 65.386719 L 20.089844 65.386719 C 20.089844 65.386719 20.089844 65.382812 20.089844 65.371094 L 20.089844 26.46875 C 20.089844 26.460938 20.089844 26.453125 20.089844 26.453125 Z M 20.089844 26.453125 "/>
</clipPath>
<clipPath id="clip12">
  <path d="M 20.625 28.3125 L 27.28125 28.3125 L 27.28125 32.8125 L 20.625 32.8125 Z M 20.625 28.3125 "/>
</clipPath>
<clipPath id="clip13">
  <path d="M 20.363281 26.574219 L 27.4375 26.574219 C 27.4375 26.574219 27.4375 26.574219 27.4375 26.578125 L 27.4375 39.519531 L 20.363281 39.519531 L 20.363281 26.578125 C 20.363281 26.574219 20.363281 26.574219 20.363281 26.574219 Z M 20.363281 26.574219 "/>
</clipPath>
<clipPath id="clip14">
  <path d="M 20.089844 26.453125 L 27.738281 26.453125 C 27.738281 26.453125 27.738281 26.460938 27.738281 26.46875 L 27.738281 65.371094 C 27.738281 65.382812 27.738281 65.386719 27.738281 65.386719 L 20.089844 65.386719 C 20.089844 65.386719 20.089844 65.382812 20.089844 65.371094 L 20.089844 26.46875 C 20.089844 26.460938 20.089844 26.453125 20.089844 26.453125 Z M 20.089844 26.453125 "/>
</clipPath>
<clipPath id="clip15">
  <path d="M 20.625 30.09375 L 27.28125 30.09375 L 27.28125 34.59375 L 20.625 34.59375 Z M 20.625 30.09375 "/>
</clipPath>
<clipPath id="clip16">
  <path d="M 20.363281 26.574219 L 27.4375 26.574219 C 27.4375 26.574219 27.4375 26.574219 27.4375 26.578125 L 27.4375 39.519531 L 20.363281 39.519531 L 20.363281 26.578125 C 20.363281 26.574219 20.363281 26.574219 20.363281 26.574219 Z M 20.363281 26.574219 "/>
</clipPath>
<clipPath id="clip17">
  <path d="M 20.089844 26.453125 L 27.738281 26.453125 C 27.738281 26.453125 27.738281 26.460938 27.738281 26.46875 L 27.738281 65.371094 C 27.738281 65.382812 27.738281 65.386719 27.738281 65.386719 L 20.089844 65.386719 C 20.089844 65.386719 20.089844 65.382812 20.089844 65.371094 L 20.089844 26.46875 C 20.089844 26.460938 20.089844 26.453125 20.089844 26.453125 Z M 20.089844 26.453125 "/>
</clipPath>
<clipPath id="clip18">
  <path d="M 20.625 35.53125 L 27.28125 35.53125 L 27.28125 39.5625 L 20.625 39.5625 Z M 20.625 35.53125 "/>
</clipPath>
<clipPath id="clip19">
  <path d="M 20.363281 26.574219 L 27.4375 26.574219 C 27.4375 26.574219 27.4375 26.574219 27.4375 26.578125 L 27.4375 39.519531 L 20.363281 39.519531 L 20.363281 26.578125 C 20.363281 26.574219 20.363281 26.574219 20.363281 26.574219 Z M 20.363281 26.574219 "/>
</clipPath>
<clipPath id="clip20">
  <path d="M 20.089844 26.453125 L 27.738281 26.453125 C 27.738281 26.453125 27.738281 26.460938 27.738281 26.46875 L 27.738281 65.371094 C 27.738281 65.382812 27.738281 65.386719 27.738281 65.386719 L 20.089844 65.386719 C 20.089844 65.386719 20.089844 65.382812 20.089844 65.371094 L 20.089844 26.46875 C 20.089844 26.460938 20.089844 26.453125 20.089844 26.453125 Z M 20.089844 26.453125 "/>
</clipPath>
<clipPath id="clip21">
  <path d="M 20.625 26.53125 L 27.28125 26.53125 L 27.28125 31 L 20.625 31 Z M 20.625 26.53125 "/>
</clipPath>
<clipPath id="clip22">
  <path d="M 20.363281 26.574219 L 27.4375 26.574219 C 27.4375 26.574219 27.4375 26.574219 27.4375 26.578125 L 27.4375 39.519531 L 20.363281 39.519531 L 20.363281 26.578125 C 20.363281 26.574219 20.363281 26.574219 20.363281 26.574219 Z M 20.363281 26.574219 "/>
</clipPath>
<clipPath id="clip23">
  <path d="M 20.089844 26.453125 L 27.738281 26.453125 C 27.738281 26.453125 27.738281 26.460938 27.738281 26.46875 L 27.738281 65.371094 C 27.738281 65.382812 27.738281 65.386719 27.738281 65.386719 L 20.089844 65.386719 C 20.089844 65.386719 20.089844 65.382812 20.089844 65.371094 L 20.089844 26.46875 C 20.089844 26.460938 20.089844 26.453125 20.089844 26.453125 Z M 20.089844 26.453125 "/>
</clipPath>
<clipPath id="clip24">
  <path d="M 20.625 31.96875 L 27.28125 31.96875 L 27.28125 36.375 L 20.625 36.375 Z M 20.625 31.96875 "/>
</clipPath>
<clipPath id="clip25">
  <path d="M 20.363281 26.574219 L 27.4375 26.574219 C 27.4375 26.574219 27.4375 26.574219 27.4375 26.578125 L 27.4375 39.519531 L 20.363281 39.519531 L 20.363281 26.578125 C 20.363281 26.574219 20.363281 26.574219 20.363281 26.574219 Z M 20.363281 26.574219 "/>
</clipPath>
<clipPath id="clip26">
  <path d="M 20.089844 26.453125 L 27.738281 26.453125 C 27.738281 26.453125 27.738281 26.460938 27.738281 26.46875 L 27.738281 65.371094 C 27.738281 65.382812 27.738281 65.386719 27.738281 65.386719 L 20.089844 65.386719 C 20.089844 65.386719 20.089844 65.382812 20.089844 65.371094 L 20.089844 26.46875 C 20.089844 26.460938 20.089844 26.453125 20.089844 26.453125 Z M 20.089844 26.453125 "/>
</clipPath>
<clipPath id="clip27">
  <path d="M 20.625 26.53125 L 27.28125 26.53125 L 27.28125 29.25 L 20.625 29.25 Z M 20.625 26.53125 "/>
</clipPath>
<clipPath id="clip28">
  <path d="M 20.363281 26.574219 L 27.4375 26.574219 C 27.4375 26.574219 27.4375 26.574219 27.4375 26.578125 L 27.4375 39.519531 L 20.363281 39.519531 L 20.363281 26.578125 C 20.363281 26.574219 20.363281 26.574219 20.363281 26.574219 Z M 20.363281 26.574219 "/>
</clipPath>
<clipPath id="clip29">
  <path d="M 20.089844 26.453125 L 27.738281 26.453125 C 27.738281 26.453125 27.738281 26.460938 27.738281 26.46875 L 27.738281 65.371094 C 27.738281 65.382812 27.738281 65.386719 27.738281 65.386719 L 20.089844 65.386719 C 20.089844 65.386719 20.089844 65.382812 20.089844 65.371094 L 20.089844 26.46875 C 20.089844 26.460938 20.089844 26.453125 20.089844 26.453125 Z M 20.089844 26.453125 "/>
</clipPath>
<clipPath id="clip30">
  <path d="M 20.625 39.09375 L 27.28125 39.09375 L 27.28125 39.5625 L 20.625 39.5625 Z M 20.625 39.09375 "/>
</clipPath>
<clipPath id="clip31">
  <path d="M 20.363281 26.574219 L 27.4375 26.574219 C 27.4375 26.574219 27.4375 26.574219 27.4375 26.578125 L 27.4375 39.519531 L 20.363281 39.519531 L 20.363281 26.578125 C 20.363281 26.574219 20.363281 26.574219 20.363281 26.574219 Z M 20.363281 26.574219 "/>
</clipPath>
<clipPath id="clip32">
  <path d="M 20.089844 26.453125 L 27.738281 26.453125 C 27.738281 26.453125 27.738281 26.460938 27.738281 26.46875 L 27.738281 65.371094 C 27.738281 65.382812 27.738281 65.386719 27.738281 65.386719 L 20.089844 65.386719 C 20.089844 65.386719 20.089844 65.382812 20.089844 65.371094 L 20.089844 26.46875 C 20.089844 26.460938 20.089844 26.453125 20.089844 26.453125 Z M 20.089844 26.453125 "/>
</clipPath>
<clipPath id="clip33">
  <path d="M 20.625 33.75 L 27.28125 33.75 L 27.28125 38.15625 L 20.625 38.15625 Z M 20.625 33.75 "/>
</clipPath>
<clipPath id="clip34">
  <path d="M 20.363281 26.574219 L 27.4375 26.574219 C 27.4375 26.574219 27.4375 26.574219 27.4375 26.578125 L 27.4375 39.519531 L 20.363281 39.519531 L 20.363281 26.578125 C 20.363281 26.574219 20.363281 26.574219 20.363281 26.574219 Z M 20.363281 26.574219 "/>
</clipPath>
<clipPath id="clip35">
  <path d="M 20.089844 26.453125 L 27.738281 26.453125 C 27.738281 26.453125 27.738281 26.460938 27.738281 26.46875 L 27.738281 65.371094 C 27.738281 65.382812 27.738281 65.386719 27.738281 65.386719 L 20.089844 65.386719 C 20.089844 65.386719 20.089844 65.382812 20.089844 65.371094 L 20.089844 26.46875 C 20.089844 26.460938 20.089844 26.453125 20.089844 26.453125 Z M 20.089844 26.453125 "/>
</clipPath>
<clipPath id="clip36">
  <path d="M 20.625 37.3125 L 27.28125 37.3125 L 27.28125 39.5625 L 20.625 39.5625 Z M 20.625 37.3125 "/>
</clipPath>
<clipPath id="clip37">
  <path d="M 20.363281 26.574219 L 27.4375 26.574219 C 27.4375 26.574219 27.4375 26.574219 27.4375 26.578125 L 27.4375 39.519531 L 20.363281 39.519531 L 20.363281 26.578125 C 20.363281 26.574219 20.363281 26.574219 20.363281 26.574219 Z M 20.363281 26.574219 "/>
</clipPath>
<clipPath id="clip38">
  <path d="M 20.089844 26.453125 L 27.738281 26.453125 C 27.738281 26.453125 27.738281 26.460938 27.738281 26.46875 L 27.738281 65.371094 C 27.738281 65.382812 27.738281 65.386719 27.738281 65.386719 L 20.089844 65.386719 C 20.089844 65.386719 20.089844 65.382812 20.089844 65.371094 L 20.089844 26.46875 C 20.089844 26.460938 20.089844 26.453125 20.089844 26.453125 Z M 20.089844 26.453125 "/>
</clipPath>
<clipPath id="clip39">
  <path d="M 20.625 28.3125 L 27.28125 28.3125 L 27.28125 32.8125 L 20.625 32.8125 Z M 20.625 28.3125 "/>
</clipPath>
<clipPath id="clip40">
  <path d="M 20.363281 26.574219 L 27.4375 26.574219 C 27.4375 26.574219 27.4375 26.574219 27.4375 26.578125 L 27.4375 39.519531 L 20.363281 39.519531 L 20.363281 26.578125 C 20.363281 26.574219 20.363281 26.574219 20.363281 26.574219 Z M 20.363281 26.574219 "/>
</clipPath>
<clipPath id="clip41">
  <path d="M 20.089844 26.453125 L 27.738281 26.453125 C 27.738281 26.453125 27.738281 26.460938 27.738281 26.46875 L 27.738281 65.371094 C 27.738281 65.382812 27.738281 65.386719 27.738281 65.386719 L 20.089844 65.386719 C 20.089844 65.386719 20.089844 65.382812 20.089844 65.371094 L 20.089844 26.46875 C 20.089844 26.460938 20.089844 26.453125 20.089844 26.453125 Z M 20.089844 26.453125 "/>
</clipPath>
<clipPath id="clip42">
  <path d="M 20.625 30.09375 L 27.28125 30.09375 L 27.28125 34.59375 L 20.625 34.59375 Z M 20.625 30.09375 "/>
</clipPath>
<clipPath id="clip43">
  <path d="M 20.363281 26.574219 L 27.4375 26.574219 C 27.4375 26.574219 27.4375 26.574219 27.4375 26.578125 L 27.4375 39.519531 L 20.363281 39.519531 L 20.363281 26.578125 C 20.363281 26.574219 20.363281 26.574219 20.363281 26.574219 Z M 20.363281 26.574219 "/>
</clipPath>
<clipPath id="clip44">
  <path d="M 20.089844 26.453125 L 27.738281 26.453125 C 27.738281 26.453125 27.738281 26.460938 27.738281 26.46875 L 27.738281 65.371094 C 27.738281 65.382812 27.738281 65.386719 27.738281 65.386719 L 20.089844 65.386719 C 20.089844 65.386719 20.089844 65.382812 20.089844 65.371094 L 20.089844 26.46875 C 20.089844 26.460938 20.089844 26.453125 20.089844 26.453125 Z M 20.089844 26.453125 "/>
</clipPath>
<clipPath id="clip45">
  <path d="M 20.625 35.53125 L 27.28125 35.53125 L 27.28125 39.5625 L 20.625 39.5625 Z M 20.625 35.53125 "/>
</clipPath>
<clipPath id="clip46">
  <path d="M 20.363281 26.574219 L 27.4375 26.574219 C 27.4375 26.574219 27.4375 26.574219 27.4375 26.578125 L 27.4375 39.519531 L 20.363281 39.519531 L 20.363281 26.578125 C 20.363281 26.574219 20.363281 26.574219 20.363281 26.574219 Z M 20.363281 26.574219 "/>
</clipPath>
<clipPath id="clip47">
  <path d="M 20.089844 26.453125 L 27.738281 26.453125 C 27.738281 26.453125 27.738281 26.460938 27.738281 26.46875 L 27.738281 65.371094 C 27.738281 65.382812 27.738281 65.386719 27.738281 65.386719 L 20.089844 65.386719 C 20.089844 65.386719 20.089844 65.382812 20.089844 65.371094 L 20.089844 26.46875 C 20.089844 26.460938 20.089844 26.453125 20.089844 26.453125 Z M 20.089844 26.453125 "/>
</clipPath>
<clipPath id="clip48">
  <path d="M 20.625 26.53125 L 27.28125 26.53125 L 27.28125 31 L 20.625 31 Z M 20.625 26.53125 "/>
</clipPath>
<clipPath id="clip49">
  <path d="M 20.363281 26.574219 L 27.4375 26.574219 C 27.4375 26.574219 27.4375 26.574219 27.4375 26.578125 L 27.4375 39.519531 L 20.363281 39.519531 L 20.363281 26.578125 C 20.363281 26.574219 20.363281 26.574219 20.363281 26.574219 Z M 20.363281 26.574219 "/>
</clipPath>
<clipPath id="clip50">
  <path d="M 20.089844 26.453125 L 27.738281 26.453125 C 27.738281 26.453125 27.738281 26.460938 27.738281 26.46875 L 27.738281 65.371094 C 27.738281 65.382812 27.738281 65.386719 27.738281 65.386719 L 20.089844 65.386719 C 20.089844 65.386719 20.089844 65.382812 20.089844 65.371094 L 20.089844 26.46875 C 20.089844 26.460938 20.089844 26.453125 20.089844 26.453125 Z M 20.089844 26.453125 "/>
</clipPath>
<clipPath id="clip51">
  <path d="M 20.625 31.96875 L 27.28125 31.96875 L 27.28125 36.375 L 20.625 36.375 Z M 20.625 31.96875 "/>
</clipPath>
<clipPath id="clip52">
  <path d="M 20.363281 26.574219 L 27.4375 26.574219 C 27.4375 26.574219 27.4375 26.574219 27.4375 26.578125 L 27.4375 39.519531 L 20.363281 39.519531 L 20.363281 26.578125 C 20.363281 26.574219 20.363281 26.574219 20.363281 26.574219 Z M 20.363281 26.574219 "/>
</clipPath>
<clipPath id="clip53">
  <path d="M 20.089844 26.453125 L 27.738281 26.453125 C 27.738281 26.453125 27.738281 26.460938 27.738281 26.46875 L 27.738281 65.371094 C 27.738281 65.382812 27.738281 65.386719 27.738281 65.386719 L 20.089844 65.386719 C 20.089844 65.386719 20.089844 65.382812 20.089844 65.371094 L 20.089844 26.46875 C 20.089844 26.460938 20.089844 26.453125 20.089844 26.453125 Z M 20.089844 26.453125 "/>
</clipPath>
<clipPath id="clip54">
  <path d="M 20.625 26.53125 L 27.28125 26.53125 L 27.28125 29.25 L 20.625 29.25 Z M 20.625 26.53125 "/>
</clipPath>
<clipPath id="clip55">
  <path d="M 20.363281 26.574219 L 27.4375 26.574219 C 27.4375 26.574219 27.4375 26.574219 27.4375 26.578125 L 27.4375 39.519531 L 20.363281 39.519531 L 20.363281 26.578125 C 20.363281 26.574219 20.363281 26.574219 20.363281 26.574219 Z M 20.363281 26.574219 "/>
</clipPath>
<clipPath id="clip56">
  <path d="M 20.089844 26.453125 L 27.738281 26.453125 C 27.738281 26.453125 27.738281 26.460938 27.738281 26.46875 L 27.738281 65.371094 C 27.738281 65.382812 27.738281 65.386719 27.738281 65.386719 L 20.089844 65.386719 C 20.089844 65.386719 20.089844 65.382812 20.089844 65.371094 L 20.089844 26.46875 C 20.089844 26.460938 20.089844 26.453125 20.089844 26.453125 Z M 20.089844 26.453125 "/>
</clipPath>
<clipPath id="clip57">
  <path d="M 20.625 39.09375 L 27.28125 39.09375 L 27.28125 39.5625 L 20.625 39.5625 Z M 20.625 39.09375 "/>
</clipPath>
<clipPath id="clip58">
  <path d="M 20.363281 26.574219 L 27.4375 26.574219 C 27.4375 26.574219 27.4375 26.574219 27.4375 26.578125 L 27.4375 39.519531 L 20.363281 39.519531 L 20.363281 26.578125 C 20.363281 26.574219 20.363281 26.574219 20.363281 26.574219 Z M 20.363281 26.574219 "/>
</clipPath>
<clipPath id="clip59">
  <path d="M 20.089844 26.453125 L 27.738281 26.453125 C 27.738281 26.453125 27.738281 26.460938 27.738281 26.46875 L 27.738281 65.371094 C 27.738281 65.382812 27.738281 65.386719 27.738281 65.386719 L 20.089844 65.386719 C 20.089844 65.386719 20.089844 65.382812 20.089844 65.371094 L 20.089844 26.46875 C 20.089844 26.460938 20.089844 26.453125 20.089844 26.453125 Z M 20.089844 26.453125 "/>
</clipPath>
<clipPath id="clip60">
  <path d="M 20.625 33.75 L 27.28125 33.75 L 27.28125 38.15625 L 20.625 38.15625 Z M 20.625 33.75 "/>
</clipPath>
<clipPath id="clip61">
  <path d="M 20.363281 26.574219 L 27.4375 26.574219 C 27.4375 26.574219 27.4375 26.574219 27.4375 26.578125 L 27.4375 39.519531 L 20.363281 39.519531 L 20.363281 26.578125 C 20.363281 26.574219 20.363281 26.574219 20.363281 26.574219 Z M 20.363281 26.574219 "/>
</clipPath>
<clipPath id="clip62">
  <path d="M 20.089844 26.453125 L 27.738281 26.453125 C 27.738281 26.453125 27.738281 26.460938 27.738281 26.46875 L 27.738281 65.371094 C 27.738281 65.382812 27.738281 65.386719 27.738281 65.386719 L 20.089844 65.386719 C 20.089844 65.386719 20.089844 65.382812 20.089844 65.371094 L 20.089844 26.46875 C 20.089844 26.460938 20.089844 26.453125 20.089844 26.453125 Z M 20.089844 26.453125 "/>
</clipPath>
<clipPath id="clip63">
  <path d="M 20.625 37.3125 L 27.28125 37.3125 L 27.28125 39.5625 L 20.625 39.5625 Z M 20.625 37.3125 "/>
</clipPath>
<clipPath id="clip64">
  <path d="M 20.363281 26.574219 L 27.4375 26.574219 C 27.4375 26.574219 27.4375 26.574219 27.4375 26.578125 L 27.4375 39.519531 L 20.363281 39.519531 L 20.363281 26.578125 C 20.363281 26.574219 20.363281 26.574219 20.363281 26.574219 Z M 20.363281 26.574219 "/>
</clipPath>
<clipPath id="clip65">
  <path d="M 20.089844 26.453125 L 27.738281 26.453125 C 27.738281 26.453125 27.738281 26.460938 27.738281 26.46875 L 27.738281 65.371094 C 27.738281 65.382812 27.738281 65.386719 27.738281 65.386719 L 20.089844 65.386719 C 20.089844 65.386719 20.089844 65.382812 20.089844 65.371094 L 20.089844 26.46875 C 20.089844 26.460938 20.089844 26.453125 20.089844 26.453125 Z M 20.089844 26.453125 "/>
</clipPath>
<clipPath id="clip66">
  <path d="M 20.625 28.3125 L 27.28125 28.3125 L 27.28125 32.8125 L 20.625 32.8125 Z M 20.625 28.3125 "/>
</clipPath>
<clipPath id="clip67">
  <path d="M 20.363281 26.574219 L 27.4375 26.574219 C 27.4375 26.574219 27.4375 26.574219 27.4375 26.578125 L 27.4375 39.519531 L 20.363281 39.519531 L 20.363281 26.578125 C 20.363281 26.574219 20.363281 26.574219 20.363281 26.574219 Z M 20.363281 26.574219 "/>
</clipPath>
<clipPath id="clip68">
  <path d="M 20.089844 26.453125 L 27.738281 26.453125 C 27.738281 26.453125 27.738281 26.460938 27.738281 26.46875 L 27.738281 65.371094 C 27.738281 65.382812 27.738281 65.386719 27.738281 65.386719 L 20.089844 65.386719 C 20.089844 65.386719 20.089844 65.382812 20.089844 65.371094 L 20.089844 26.46875 C 20.089844 26.460938 20.089844 26.453125 20.089844 26.453125 Z M 20.089844 26.453125 "/>
</clipPath>
<clipPath id="clip69">
  <path d="M 20.625 30.09375 L 27.28125 30.09375 L 27.28125 34.59375 L 20.625 34.59375 Z M 20.625 30.09375 "/>
</clipPath>
<clipPath id="clip70">
  <path d="M 20.363281 26.574219 L 27.4375 26.574219 C 27.4375 26.574219 27.4375 26.574219 27.4375 26.578125 L 27.4375 39.519531 L 20.363281 39.519531 L 20.363281 26.578125 C 20.363281 26.574219 20.363281 26.574219 20.363281 26.574219 Z M 20.363281 26.574219 "/>
</clipPath>
<clipPath id="clip71">
  <path d="M 20.089844 26.453125 L 27.738281 26.453125 C 27.738281 26.453125 27.738281 26.460938 27.738281 26.46875 L 27.738281 65.371094 C 27.738281 65.382812 27.738281 65.386719 27.738281 65.386719 L 20.089844 65.386719 C 20.089844 65.386719 20.089844 65.382812 20.089844 65.371094 L 20.089844 26.46875 C 20.089844 26.460938 20.089844 26.453125 20.089844 26.453125 Z M 20.089844 26.453125 "/>
</clipPath>
<clipPath id="clip72">
  <path d="M 20.625 35.53125 L 27.28125 35.53125 L 27.28125 39.5625 L 20.625 39.5625 Z M 20.625 35.53125 "/>
</clipPath>
<clipPath id="clip73">
  <path d="M 20.363281 26.574219 L 27.4375 26.574219 C 27.4375 26.574219 27.4375 26.574219 27.4375 26.578125 L 27.4375 39.519531 L 20.363281 39.519531 L 20.363281 26.578125 C 20.363281 26.574219 20.363281 26.574219 20.363281 26.574219 Z M 20.363281 26.574219 "/>
</clipPath>
<clipPath id="clip74">
  <path d="M 20.089844 26.453125 L 27.738281 26.453125 C 27.738281 26.453125 27.738281 26.460938 27.738281 26.46875 L 27.738281 65.371094 C 27.738281 65.382812 27.738281 65.386719 27.738281 65.386719 L 20.089844 65.386719 C 20.089844 65.386719 20.089844 65.382812 20.089844 65.371094 L 20.089844 26.46875 C 20.089844 26.460938 20.089844 26.453125 20.089844 26.453125 Z M 20.089844 26.453125 "/>
</clipPath>
<clipPath id="clip75">
  <path d="M 20.625 26.53125 L 27.28125 26.53125 L 27.28125 31 L 20.625 31 Z M 20.625 26.53125 "/>
</clipPath>
<clipPath id="clip76">
  <path d="M 20.363281 26.574219 L 27.4375 26.574219 C 27.4375 26.574219 27.4375 26.574219 27.4375 26.578125 L 27.4375 39.519531 L 20.363281 39.519531 L 20.363281 26.578125 C 20.363281 26.574219 20.363281 26.574219 20.363281 26.574219 Z M 20.363281 26.574219 "/>
</clipPath>
<clipPath id="clip77">
  <path d="M 20.089844 26.453125 L 27.738281 26.453125 C 27.738281 26.453125 27.738281 26.460938 27.738281 26.46875 L 27.738281 65.371094 C 27.738281 65.382812 27.738281 65.386719 27.738281 65.386719 L 20.089844 65.386719 C 20.089844 65.386719 20.089844 65.382812 20.089844 65.371094 L 20.089844 26.46875 C 20.089844 26.460938 20.089844 26.453125 20.089844 26.453125 Z M 20.089844 26.453125 "/>
</clipPath>
<clipPath id="clip78">
  <path d="M 20.625 31.96875 L 27.28125 31.96875 L 27.28125 36.375 L 20.625 36.375 Z M 20.625 31.96875 "/>
</clipPath>
<clipPath id="clip79">
  <path d="M 20.363281 26.574219 L 27.4375 26.574219 C 27.4375 26.574219 27.4375 26.574219 27.4375 26.578125 L 27.4375 39.519531 L 20.363281 39.519531 L 20.363281 26.578125 C 20.363281 26.574219 20.363281 26.574219 20.363281 26.574219 Z M 20.363281 26.574219 "/>
</clipPath>
<clipPath id="clip80">
  <path d="M 20.089844 26.453125 L 27.738281 26.453125 C 27.738281 26.453125 27.738281 26.460938 27.738281 26.46875 L 27.738281 65.371094 C 27.738281 65.382812 27.738281 65.386719 27.738281 65.386719 L 20.089844 65.386719 C 20.089844 65.386719 20.089844 65.382812 20.089844 65.371094 L 20.089844 26.46875 C 20.089844 26.460938 20.089844 26.453125 20.089844 26.453125 Z M 20.089844 26.453125 "/>
</clipPath>
<clipPath id="clip81">
  <path d="M 20.625 26.53125 L 27.28125 26.53125 L 27.28125 29.25 L 20.625 29.25 Z M 20.625 26.53125 "/>
</clipPath>
<clipPath id="clip82">
  <path d="M 20.363281 26.574219 L 27.4375 26.574219 C 27.4375 26.574219 27.4375 26.574219 27.4375 26.578125 L 27.4375 39.519531 L 20.363281 39.519531 L 20.363281 26.578125 C 20.363281 26.574219 20.363281 26.574219 20.363281 26.574219 Z M 20.363281 26.574219 "/>
</clipPath>
<clipPath id="clip83">
  <path d="M 20.089844 26.453125 L 27.738281 26.453125 C 27.738281 26.453125 27.738281 26.460938 27.738281 26.46875 L 27.738281 65.371094 C 27.738281 65.382812 27.738281 65.386719 27.738281 65.386719 L 20.089844 65.386719 C 20.089844 65.386719 20.089844 65.382812 20.089844 65.371094 L 20.089844 26.46875 C 20.089844 26.460938 20.089844 26.453125 20.089844 26.453125 Z M 20.089844 26.453125 "/>
</clipPath>
<clipPath id="clip84">
  <path d="M 20.625 39.09375 L 27.28125 39.09375 L 27.28125 39.5625 L 20.625 39.5625 Z M 20.625 39.09375 "/>
</clipPath>
<clipPath id="clip85">
  <path d="M 20.363281 26.574219 L 27.4375 26.574219 C 27.4375 26.574219 27.4375 26.574219 27.4375 26.578125 L 27.4375 39.519531 L 20.363281 39.519531 L 20.363281 26.578125 C 20.363281 26.574219 20.363281 26.574219 20.363281 26.574219 Z M 20.363281 26.574219 "/>
</clipPath>
<clipPath id="clip86">
  <path d="M 20.089844 26.453125 L 27.738281 26.453125 C 27.738281 26.453125 27.738281 26.460938 27.738281 26.46875 L 27.738281 65.371094 C 27.738281 65.382812 27.738281 65.386719 27.738281 65.386719 L 20.089844 65.386719 C 20.089844 65.386719 20.089844 65.382812 20.089844 65.371094 L 20.089844 26.46875 C 20.089844 26.460938 20.089844 26.453125 20.089844 26.453125 Z M 20.089844 26.453125 "/>
</clipPath>
<clipPath id="clip87">
  <path d="M 20.625 33.75 L 27.28125 33.75 L 27.28125 38.15625 L 20.625 38.15625 Z M 20.625 33.75 "/>
</clipPath>
<clipPath id="clip88">
  <path d="M 20.363281 26.574219 L 27.4375 26.574219 C 27.4375 26.574219 27.4375 26.574219 27.4375 26.578125 L 27.4375 39.519531 L 20.363281 39.519531 L 20.363281 26.578125 C 20.363281 26.574219 20.363281 26.574219 20.363281 26.574219 Z M 20.363281 26.574219 "/>
</clipPath>
<clipPath id="clip89">
  <path d="M 20.089844 26.453125 L 27.738281 26.453125 C 27.738281 26.453125 27.738281 26.460938 27.738281 26.46875 L 27.738281 65.371094 C 27.738281 65.382812 27.738281 65.386719 27.738281 65.386719 L 20.089844 65.386719 C 20.089844 65.386719 20.089844 65.382812 20.089844 65.371094 L 20.089844 26.46875 C 20.089844 26.460938 20.089844 26.453125 20.089844 26.453125 Z M 20.089844 26.453125 "/>
</clipPath>
<clipPath id="clip90">
  <path d="M 20.625 37.3125 L 27.28125 37.3125 L 27.28125 39.5625 L 20.625 39.5625 Z M 20.625 37.3125 "/>
</clipPath>
<clipPath id="clip91">
  <path d="M 20.363281 26.574219 L 27.4375 26.574219 C 27.4375 26.574219 27.4375 26.574219 27.4375 26.578125 L 27.4375 39.519531 L 20.363281 39.519531 L 20.363281 26.578125 C 20.363281 26.574219 20.363281 26.574219 20.363281 26.574219 Z M 20.363281 26.574219 "/>
</clipPath>
<clipPath id="clip92">
  <path d="M 20.089844 26.453125 L 27.738281 26.453125 C 27.738281 26.453125 27.738281 26.460938 27.738281 26.46875 L 27.738281 65.371094 C 27.738281 65.382812 27.738281 65.386719 27.738281 65.386719 L 20.089844 65.386719 C 20.089844 65.386719 20.089844 65.382812 20.089844 65.371094 L 20.089844 26.46875 C 20.089844 26.460938 20.089844 26.453125 20.089844 26.453125 Z M 20.089844 26.453125 "/>
</clipPath>
<clipPath id="clip93">
  <path d="M 20.625 28.3125 L 27.28125 28.3125 L 27.28125 32.8125 L 20.625 32.8125 Z M 20.625 28.3125 "/>
</clipPath>
<clipPath id="clip94">
  <path d="M 20.363281 26.574219 L 27.4375 26.574219 C 27.4375 26.574219 27.4375 26.574219 27.4375 26.578125 L 27.4375 39.519531 L 20.363281 39.519531 L 20.363281 26.578125 C 20.363281 26.574219 20.363281 26.574219 20.363281 26.574219 Z M 20.363281 26.574219 "/>
</clipPath>
<clipPath id="clip95">
  <path d="M 20.089844 26.453125 L 27.738281 26.453125 C 27.738281 26.453125 27.738281 26.460938 27.738281 26.46875 L 27.738281 65.371094 C 27.738281 65.382812 27.738281 65.386719 27.738281 65.386719 L 20.089844 65.386719 C 20.089844 65.386719 20.089844 65.382812 20.089844 65.371094 L 20.089844 26.46875 C 20.089844 26.460938 20.089844 26.453125 20.089844 26.453125 Z M 20.089844 26.453125 "/>
</clipPath>
<clipPath id="clip96">
  <path d="M 20.625 30.09375 L 27.28125 30.09375 L 27.28125 34.59375 L 20.625 34.59375 Z M 20.625 30.09375 "/>
</clipPath>
<clipPath id="clip97">
  <path d="M 20.363281 26.574219 L 27.4375 26.574219 C 27.4375 26.574219 27.4375 26.574219 27.4375 26.578125 L 27.4375 39.519531 L 20.363281 39.519531 L 20.363281 26.578125 C 20.363281 26.574219 20.363281 26.574219 20.363281 26.574219 Z M 20.363281 26.574219 "/>
</clipPath>
<clipPath id="clip98">
  <path d="M 20.089844 26.453125 L 27.738281 26.453125 C 27.738281 26.453125 27.738281 26.460938 27.738281 26.46875 L 27.738281 65.371094 C 27.738281 65.382812 27.738281 65.386719 27.738281 65.386719 L 20.089844 65.386719 C 20.089844 65.386719 20.089844 65.382812 20.089844 65.371094 L 20.089844 26.46875 C 20.089844 26.460938 20.089844 26.453125 20.089844 26.453125 Z M 20.089844 26.453125 "/>
</clipPath>
<clipPath id="clip99">
  <path d="M 20.625 35.53125 L 27.28125 35.53125 L 27.28125 39.5625 L 20.625 39.5625 Z M 20.625 35.53125 "/>
</clipPath>
<clipPath id="clip100">
  <path d="M 20.363281 26.574219 L 27.4375 26.574219 C 27.4375 26.574219 27.4375 26.574219 27.4375 26.578125 L 27.4375 39.519531 L 20.363281 39.519531 L 20.363281 26.578125 C 20.363281 26.574219 20.363281 26.574219 20.363281 26.574219 Z M 20.363281 26.574219 "/>
</clipPath>
<clipPath id="clip101">
  <path d="M 20.089844 26.453125 L 27.738281 26.453125 C 27.738281 26.453125 27.738281 26.460938 27.738281 26.46875 L 27.738281 65.371094 C 27.738281 65.382812 27.738281 65.386719 27.738281 65.386719 L 20.089844 65.386719 C 20.089844 65.386719 20.089844 65.382812 20.089844 65.371094 L 20.089844 26.46875 C 20.089844 26.460938 20.089844 26.453125 20.089844 26.453125 Z M 20.089844 26.453125 "/>
</clipPath>
<clipPath id="clip102">
  <path d="M 20.625 26.53125 L 27.28125 26.53125 L 27.28125 31 L 20.625 31 Z M 20.625 26.53125 "/>
</clipPath>
<clipPath id="clip103">
  <path d="M 20.363281 26.574219 L 27.4375 26.574219 C 27.4375 26.574219 27.4375 26.574219 27.4375 26.578125 L 27.4375 39.519531 L 20.363281 39.519531 L 20.363281 26.578125 C 20.363281 26.574219 20.363281 26.574219 20.363281 26.574219 Z M 20.363281 26.574219 "/>
</clipPath>
<clipPath id="clip104">
  <path d="M 20.089844 26.453125 L 27.738281 26.453125 C 27.738281 26.453125 27.738281 26.460938 27.738281 26.46875 L 27.738281 65.371094 C 27.738281 65.382812 27.738281 65.386719 27.738281 65.386719 L 20.089844 65.386719 C 20.089844 65.386719 20.089844 65.382812 20.089844 65.371094 L 20.089844 26.46875 C 20.089844 26.460938 20.089844 26.453125 20.089844 26.453125 Z M 20.089844 26.453125 "/>
</clipPath>
<clipPath id="clip105">
  <path d="M 20.625 31.96875 L 27.28125 31.96875 L 27.28125 36.375 L 20.625 36.375 Z M 20.625 31.96875 "/>
</clipPath>
<clipPath id="clip106">
  <path d="M 20.363281 26.574219 L 27.4375 26.574219 C 27.4375 26.574219 27.4375 26.574219 27.4375 26.578125 L 27.4375 39.519531 L 20.363281 39.519531 L 20.363281 26.578125 C 20.363281 26.574219 20.363281 26.574219 20.363281 26.574219 Z M 20.363281 26.574219 "/>
</clipPath>
<clipPath id="clip107">
  <path d="M 20.089844 26.453125 L 27.738281 26.453125 C 27.738281 26.453125 27.738281 26.460938 27.738281 26.46875 L 27.738281 65.371094 C 27.738281 65.382812 27.738281 65.386719 27.738281 65.386719 L 20.089844 65.386719 C 20.089844 65.386719 20.089844 65.382812 20.089844 65.371094 L 20.089844 26.46875 C 20.089844 26.460938 20.089844 26.453125 20.089844 26.453125 Z M 20.089844 26.453125 "/>
</clipPath>
<clipPath id="clip108">
  <path d="M 20.625 26.53125 L 27.28125 26.53125 L 27.28125 29.25 L 20.625 29.25 Z M 20.625 26.53125 "/>
</clipPath>
<clipPath id="clip109">
  <path d="M 20.363281 26.574219 L 27.4375 26.574219 C 27.4375 26.574219 27.4375 26.574219 27.4375 26.578125 L 27.4375 39.519531 L 20.363281 39.519531 L 20.363281 26.578125 C 20.363281 26.574219 20.363281 26.574219 20.363281 26.574219 Z M 20.363281 26.574219 "/>
</clipPath>
<clipPath id="clip110">
  <path d="M 20.089844 26.453125 L 27.738281 26.453125 C 27.738281 26.453125 27.738281 26.460938 27.738281 26.46875 L 27.738281 65.371094 C 27.738281 65.382812 27.738281 65.386719 27.738281 65.386719 L 20.089844 65.386719 C 20.089844 65.386719 20.089844 65.382812 20.089844 65.371094 L 20.089844 26.46875 C 20.089844 26.460938 20.089844 26.453125 20.089844 26.453125 Z M 20.089844 26.453125 "/>
</clipPath>
</defs>
<g id="surface1">
<g clip-path="url(#clip1)" clip-rule="nonzero">
<g clip-path="url(#clip2)" clip-rule="nonzero">
<path style=" stroke:none;fill-rule:evenodd;fill:rgb(21.568627%,78.431373%,44.313725%);fill-opacity:1;" d="M 21.816406 26.121094 L 26.160156 26.121094 C 26.160156 26.121094 26.164062 26.125 26.164062 26.128906 L 26.164062 64.875 C 26.164062 64.878906 26.160156 64.878906 26.160156 64.878906 L 21.816406 64.878906 C 21.8125 64.878906 21.808594 64.878906 21.808594 64.875 L 21.808594 26.128906 C 21.808594 26.125 21.8125 26.121094 21.816406 26.121094 Z M 21.816406 26.121094 "/>
</g>
</g>
<g clip-path="url(#clip3)" clip-rule="nonzero">
<g clip-path="url(#clip4)" clip-rule="nonzero">
<g clip-path="url(#clip5)" clip-rule="nonzero">
<path style=" stroke:none;fill-rule:evenodd;fill:rgb(21.568627%,78.431373%,44.313725%);fill-opacity:1;" d="M 20.703125 42.371094 L 26.542969 39.121094 C 26.546875 39.121094 26.546875 39.121094 26.546875 39.121094 L 27.222656 40.242188 C 27.222656 40.246094 27.222656 40.246094 27.21875 40.246094 L 21.375 43.496094 C 21.375 43.496094 21.375 43.496094 21.371094 43.496094 L 20.699219 42.375 C 20.699219 42.371094 20.699219 42.371094 20.703125 42.371094 Z M 20.703125 42.371094 "/>
</g>
</g>
</g>
<g clip-path="url(#clip6)" clip-rule="nonzero">
<g clip-path="url(#clip7)" clip-rule="nonzero">
<g clip-path="url(#clip8)" clip-rule="nonzero">
<path style=" stroke:none;fill-rule:evenodd;fill:rgb(21.568627%,78.431373%,44.313725%);fill-opacity:1;" d="M 20.703125 37.007812 L 26.542969 33.757812 C 26.546875 33.757812 26.546875 33.757812 26.546875 33.757812 L 27.222656 34.878906 C 27.222656 34.882812 27.222656 34.882812 27.21875 34.882812 L 21.375 38.132812 C 21.375 38.132812 21.375 38.132812 21.371094 38.132812 L 20.699219 37.007812 C 20.699219 37.007812 20.699219 37.007812 20.703125 37.007812 Z M 20.703125 37.007812 "/>
</g>
</g>
</g>
<g clip-path="url(#clip9)" clip-rule="nonzero">
<g clip-path="url(#clip10)" clip-rule="nonzero">
<g clip-path="url(#clip11)" clip-rule="nonzero">
<path style=" stroke:none;fill-rule:evenodd;fill:rgb(21.568627%,78.431373%,44.313725%);fill-opacity:1;" d="M 20.703125 40.582031 L 26.542969 37.332031 C 26.546875 37.332031 26.546875 37.332031 26.546875 37.335938 L 27.222656 38.457031 C 27.222656 38.457031 27.222656 38.460938 27.21875 38.460938 L 21.375 41.707031 C 21.375 41.707031 21.375 41.707031 21.371094 41.707031 L 20.699219 40.585938 C 20.699219 40.585938 20.699219 40.582031 20.703125 40.582031 Z M 20.703125 40.582031 "/>
</g>
</g>
</g>
<g clip-path="url(#clip12)" clip-rule="nonzero">
<g clip-path="url(#clip13)" clip-rule="nonzero">
<g clip-path="url(#clip14)" clip-rule="nonzero">
<path style=" stroke:none;fill-rule:evenodd;fill:rgb(21.568627%,78.431373%,44.313725%);fill-opacity:1;" d="M 20.703125 31.640625 L 26.542969 28.394531 C 26.546875 28.394531 26.546875 28.394531 26.546875 28.394531 L 27.222656 29.515625 C 27.222656 29.519531 27.222656 29.519531 27.21875 29.519531 L 21.375 32.769531 C 21.375 32.769531 21.375 32.769531 21.371094 32.765625 L 20.699219 31.644531 C 20.699219 31.644531 20.699219 31.644531 20.703125 31.640625 Z M 20.703125 31.640625 "/>
</g>
</g>
</g>
<g clip-path="url(#clip15)" clip-rule="nonzero">
<g clip-path="url(#clip16)" clip-rule="nonzero">
<g clip-path="url(#clip17)" clip-rule="nonzero">
<path style=" stroke:none;fill-rule:evenodd;fill:rgb(21.568627%,78.431373%,44.313725%);fill-opacity:1;" d="M 20.703125 33.429688 L 26.542969 30.183594 C 26.546875 30.179688 26.546875 30.179688 26.546875 30.183594 L 27.222656 31.304688 C 27.222656 31.304688 27.222656 31.308594 27.21875 31.308594 L 21.375 34.554688 C 21.375 34.558594 21.375 34.554688 21.371094 34.554688 L 20.699219 33.433594 C 20.699219 33.433594 20.699219 33.429688 20.703125 33.429688 Z M 20.703125 33.429688 "/>
</g>
</g>
</g>
<g clip-path="url(#clip18)" clip-rule="nonzero">
<g clip-path="url(#clip19)" clip-rule="nonzero">
<g clip-path="url(#clip20)" clip-rule="nonzero">
<path style=" stroke:none;fill-rule:evenodd;fill:rgb(21.568627%,78.431373%,44.313725%);fill-opacity:1;" d="M 20.703125 38.792969 L 26.542969 35.546875 C 26.546875 35.542969 26.546875 35.546875 26.546875 35.546875 L 27.222656 36.667969 C 27.222656 36.667969 27.222656 36.671875 27.21875 36.671875 L 21.375 39.921875 C 21.375 39.921875 21.375 39.921875 21.371094 39.917969 L 20.699219 38.796875 C 20.699219 38.796875 20.699219 38.792969 20.703125 38.792969 Z M 20.703125 38.792969 "/>
</g>
</g>
</g>
<g clip-path="url(#clip21)" clip-rule="nonzero">
<g clip-path="url(#clip22)" clip-rule="nonzero">
<g clip-path="url(#clip23)" clip-rule="nonzero">
<path style=" stroke:none;fill-rule:evenodd;fill:rgb(21.568627%,78.431373%,44.313725%);fill-opacity:1;" d="M 20.703125 29.855469 L 26.542969 26.605469 C 26.546875 26.605469 26.546875 26.605469 26.546875 26.609375 L 27.222656 27.730469 C 27.222656 27.730469 27.222656 27.730469 27.21875 27.734375 L 21.375 30.980469 C 21.375 30.980469 21.375 30.980469 21.371094 30.980469 L 20.699219 29.859375 C 20.699219 29.855469 20.699219 29.855469 20.703125 29.855469 Z M 20.703125 29.855469 "/>
</g>
</g>
</g>
<g clip-path="url(#clip24)" clip-rule="nonzero">
<g clip-path="url(#clip25)" clip-rule="nonzero">
<g clip-path="url(#clip26)" clip-rule="nonzero">
<path style=" stroke:none;fill-rule:evenodd;fill:rgb(21.568627%,78.431373%,44.313725%);fill-opacity:1;" d="M 20.703125 35.21875 L 26.542969 31.96875 C 26.546875 31.96875 26.546875 31.96875 26.546875 31.972656 L 27.222656 33.09375 C 27.222656 33.09375 27.222656 33.09375 27.21875 33.097656 L 21.375 36.34375 C 21.375 36.34375 21.375 36.34375 21.371094 36.34375 L 20.699219 35.222656 C 20.699219 35.21875 20.699219 35.21875 20.703125 35.21875 Z M 20.703125 35.21875 "/>
</g>
</g>
</g>
<g clip-path="url(#clip27)" clip-rule="nonzero">
<g clip-path="url(#clip28)" clip-rule="nonzero">
<g clip-path="url(#clip29)" clip-rule="nonzero">
<path style=" stroke:none;fill-rule:evenodd;fill:rgb(21.568627%,78.431373%,44.313725%);fill-opacity:1;" d="M 20.703125 28.066406 L 26.542969 24.816406 C 26.546875 24.816406 26.546875 24.816406 26.546875 24.820312 L 27.222656 25.941406 C 27.222656 25.941406 27.222656 25.945312 27.21875 25.945312 L 21.375 29.191406 C 21.375 29.191406 21.375 29.191406 21.371094 29.191406 L 20.699219 28.070312 C 20.699219 28.070312 20.699219 28.066406 20.703125 28.066406 Z M 20.703125 28.066406 "/>
</g>
</g>
</g>
<g clip-path="url(#clip30)" clip-rule="nonzero">
<g clip-path="url(#clip31)" clip-rule="nonzero">
<g clip-path="url(#clip32)" clip-rule="nonzero">
<path style=" stroke:none;fill-rule:evenodd;fill:rgb(21.568627%,78.431373%,44.313725%);fill-opacity:1;" d="M 27.21875 42.371094 L 21.375 39.121094 C 21.375 39.121094 21.375 39.121094 21.371094 39.121094 L 20.699219 40.242188 C 20.699219 40.246094 20.699219 40.246094 20.703125 40.246094 L 26.542969 43.496094 C 26.546875 43.496094 26.546875 43.496094 26.546875 43.496094 L 27.222656 42.375 C 27.222656 42.371094 27.222656 42.371094 27.21875 42.371094 Z M 27.21875 42.371094 "/>
</g>
</g>
</g>
<g clip-path="url(#clip33)" clip-rule="nonzero">
<g clip-path="url(#clip34)" clip-rule="nonzero">
<g clip-path="url(#clip35)" clip-rule="nonzero">
<path style=" stroke:none;fill-rule:evenodd;fill:rgb(21.568627%,78.431373%,44.313725%);fill-opacity:1;" d="M 27.21875 37.007812 L 21.375 33.757812 C 21.375 33.757812 21.375 33.757812 21.371094 33.757812 L 20.699219 34.878906 C 20.699219 34.882812 20.699219 34.882812 20.703125 34.882812 L 26.542969 38.132812 C 26.546875 38.132812 26.546875 38.132812 26.546875 38.132812 L 27.222656 37.007812 C 27.222656 37.007812 27.222656 37.007812 27.21875 37.007812 Z M 27.21875 37.007812 "/>
</g>
</g>
</g>
<g clip-path="url(#clip36)" clip-rule="nonzero">
<g clip-path="url(#clip37)" clip-rule="nonzero">
<g clip-path="url(#clip38)" clip-rule="nonzero">
<path style=" stroke:none;fill-rule:evenodd;fill:rgb(21.568627%,78.431373%,44.313725%);fill-opacity:1;" d="M 27.21875 40.582031 L 21.375 37.332031 C 21.375 37.332031 21.375 37.332031 21.371094 37.335938 L 20.699219 38.457031 C 20.699219 38.457031 20.699219 38.460938 20.703125 38.460938 L 26.542969 41.707031 C 26.546875 41.707031 26.546875 41.707031 26.546875 41.707031 L 27.222656 40.585938 C 27.222656 40.585938 27.222656 40.582031 27.21875 40.582031 Z M 27.21875 40.582031 "/>
</g>
</g>
</g>
<g clip-path="url(#clip39)" clip-rule="nonzero">
<g clip-path="url(#clip40)" clip-rule="nonzero">
<g clip-path="url(#clip41)" clip-rule="nonzero">
<path style=" stroke:none;fill-rule:evenodd;fill:rgb(21.568627%,78.431373%,44.313725%);fill-opacity:1;" d="M 27.21875 31.640625 L 21.375 28.394531 C 21.375 28.394531 21.375 28.394531 21.371094 28.394531 L 20.699219 29.515625 C 20.699219 29.519531 20.699219 29.519531 20.703125 29.519531 L 26.542969 32.769531 C 26.546875 32.769531 26.546875 32.769531 26.546875 32.765625 L 27.222656 31.644531 C 27.222656 31.644531 27.222656 31.644531 27.21875 31.640625 Z M 27.21875 31.640625 "/>
</g>
</g>
</g>
<g clip-path="url(#clip42)" clip-rule="nonzero">
<g clip-path="url(#clip43)" clip-rule="nonzero">
<g clip-path="url(#clip44)" clip-rule="nonzero">
<path style=" stroke:none;fill-rule:evenodd;fill:rgb(21.568627%,78.431373%,44.313725%);fill-opacity:1;" d="M 27.21875 33.429688 L 21.375 30.183594 C 21.375 30.179688 21.375 30.179688 21.371094 30.183594 L 20.699219 31.304688 C 20.699219 31.304688 20.699219 31.308594 20.703125 31.308594 L 26.542969 34.554688 C 26.546875 34.558594 26.546875 34.554688 26.546875 34.554688 L 27.222656 33.433594 C 27.222656 33.433594 27.222656 33.429688 27.21875 33.429688 Z M 27.21875 33.429688 "/>
</g>
</g>
</g>
<g clip-path="url(#clip45)" clip-rule="nonzero">
<g clip-path="url(#clip46)" clip-rule="nonzero">
<g clip-path="url(#clip47)" clip-rule="nonzero">
<path style=" stroke:none;fill-rule:evenodd;fill:rgb(21.568627%,78.431373%,44.313725%);fill-opacity:1;" d="M 27.21875 38.792969 L 21.375 35.546875 C 21.375 35.542969 21.375 35.546875 21.371094 35.546875 L 20.699219 36.667969 C 20.699219 36.667969 20.699219 36.671875 20.703125 36.671875 L 26.542969 39.921875 C 26.546875 39.921875 26.546875 39.921875 26.546875 39.917969 L 27.222656 38.796875 C 27.222656 38.796875 27.222656 38.792969 27.21875 38.792969 Z M 27.21875 38.792969 "/>
</g>
</g>
</g>
<g clip-path="url(#clip48)" clip-rule="nonzero">
<g clip-path="url(#clip49)" clip-rule="nonzero">
<g clip-path="url(#clip50)" clip-rule="nonzero">
<path style=" stroke:none;fill-rule:evenodd;fill:rgb(21.568627%,78.431373%,44.313725%);fill-opacity:1;" d="M 27.21875 29.855469 L 21.375 26.605469 C 21.375 26.605469 21.375 26.605469 21.371094 26.609375 L 20.699219 27.730469 C 20.699219 27.730469 20.699219 27.730469 20.703125 27.734375 L 26.542969 30.980469 C 26.546875 30.980469 26.546875 30.980469 26.546875 30.980469 L 27.222656 29.859375 C 27.222656 29.855469 27.222656 29.855469 27.21875 29.855469 Z M 27.21875 29.855469 "/>
</g>
</g>
</g>
<g clip-path="url(#clip51)" clip-rule="nonzero">
<g clip-path="url(#clip52)" clip-rule="nonzero">
<g clip-path="url(#clip53)" clip-rule="nonzero">
<path style=" stroke:none;fill-rule:evenodd;fill:rgb(21.568627%,78.431373%,44.313725%);fill-opacity:1;" d="M 27.21875 35.21875 L 21.375 31.96875 C 21.375 31.96875 21.375 31.96875 21.371094 31.972656 L 20.699219 33.09375 C 20.699219 33.09375 20.699219 33.09375 20.703125 33.097656 L 26.542969 36.34375 C 26.546875 36.34375 26.546875 36.34375 26.546875 36.34375 L 27.222656 35.222656 C 27.222656 35.21875 27.222656 35.21875 27.21875 35.21875 Z M 27.21875 35.21875 "/>
</g>
</g>
</g>
<g clip-path="url(#clip54)" clip-rule="nonzero">
<g clip-path="url(#clip55)" clip-rule="nonzero">
<g clip-path="url(#clip56)" clip-rule="nonzero">
<path style=" stroke:none;fill-rule:evenodd;fill:rgb(21.568627%,78.431373%,44.313725%);fill-opacity:1;" d="M 27.21875 28.066406 L 21.375 24.816406 C 21.375 24.816406 21.375 24.816406 21.371094 24.820312 L 20.699219 25.941406 C 20.699219 25.941406 20.699219 25.945312 20.703125 25.945312 L 26.542969 29.191406 C 26.546875 29.195312 26.546875 29.191406 26.546875 29.191406 L 27.222656 28.070312 C 27.222656 28.070312 27.222656 28.066406 27.21875 28.066406 Z M 27.21875 28.066406 "/>
</g>
</g>
</g>
<g clip-path="url(#clip57)" clip-rule="nonzero">
<g clip-path="url(#clip58)" clip-rule="nonzero">
<g clip-path="url(#clip59)" clip-rule="nonzero">
<path style=" stroke:none;fill-rule:evenodd;fill:rgb(21.568627%,78.431373%,44.313725%);fill-opacity:1;" d="M 20.703125 42.371094 L 26.542969 39.121094 C 26.546875 39.121094 26.546875 39.121094 26.546875 39.121094 L 27.222656 40.242188 C 27.222656 40.246094 27.222656 40.246094 27.21875 40.246094 L 21.375 43.496094 C 21.375 43.496094 21.375 43.496094 21.371094 43.496094 L 20.699219 42.375 C 20.699219 42.371094 20.699219 42.371094 20.703125 42.371094 Z M 20.703125 42.371094 "/>
</g>
</g>
</g>
<g clip-path="url(#clip60)" clip-rule="nonzero">
<g clip-path="url(#clip61)" clip-rule="nonzero">
<g clip-path="url(#clip62)" clip-rule="nonzero">
<path style=" stroke:none;fill-rule:evenodd;fill:rgb(21.568627%,78.431373%,44.313725%);fill-opacity:1;" d="M 20.703125 37.007812 L 26.542969 33.757812 C 26.546875 33.757812 26.546875 33.757812 26.546875 33.757812 L 27.222656 34.878906 C 27.222656 34.882812 27.222656 34.882812 27.21875 34.882812 L 21.375 38.132812 C 21.375 38.132812 21.375 38.132812 21.371094 38.132812 L 20.699219 37.007812 C 20.699219 37.007812 20.699219 37.007812 20.703125 37.007812 Z M 20.703125 37.007812 "/>
</g>
</g>
</g>
<g clip-path="url(#clip63)" clip-rule="nonzero">
<g clip-path="url(#clip64)" clip-rule="nonzero">
<g clip-path="url(#clip65)" clip-rule="nonzero">
<path style=" stroke:none;fill-rule:evenodd;fill:rgb(21.568627%,78.431373%,44.313725%);fill-opacity:1;" d="M 20.703125 40.582031 L 26.542969 37.332031 C 26.546875 37.332031 26.546875 37.332031 26.546875 37.335938 L 27.222656 38.457031 C 27.222656 38.457031 27.222656 38.460938 27.21875 38.460938 L 21.375 41.707031 C 21.375 41.707031 21.375 41.707031 21.371094 41.707031 L 20.699219 40.585938 C 20.699219 40.585938 20.699219 40.582031 20.703125 40.582031 Z M 20.703125 40.582031 "/>
</g>
</g>
</g>
<g clip-path="url(#clip66)" clip-rule="nonzero">
<g clip-path="url(#clip67)" clip-rule="nonzero">
<g clip-path="url(#clip68)" clip-rule="nonzero">
<path style=" stroke:none;fill-rule:evenodd;fill:rgb(21.568627%,78.431373%,44.313725%);fill-opacity:1;" d="M 20.703125 31.640625 L 26.542969 28.394531 C 26.546875 28.394531 26.546875 28.394531 26.546875 28.394531 L 27.222656 29.515625 C 27.222656 29.519531 27.222656 29.519531 27.21875 29.519531 L 21.375 32.769531 C 21.375 32.769531 21.375 32.769531 21.371094 32.765625 L 20.699219 31.644531 C 20.699219 31.644531 20.699219 31.644531 20.703125 31.640625 Z M 20.703125 31.640625 "/>
</g>
</g>
</g>
<g clip-path="url(#clip69)" clip-rule="nonzero">
<g clip-path="url(#clip70)" clip-rule="nonzero">
<g clip-path="url(#clip71)" clip-rule="nonzero">
<path style=" stroke:none;fill-rule:evenodd;fill:rgb(21.568627%,78.431373%,44.313725%);fill-opacity:1;" d="M 20.703125 33.429688 L 26.542969 30.183594 C 26.546875 30.179688 26.546875 30.179688 26.546875 30.183594 L 27.222656 31.304688 C 27.222656 31.304688 27.222656 31.308594 27.21875 31.308594 L 21.375 34.554688 C 21.375 34.558594 21.375 34.554688 21.371094 34.554688 L 20.699219 33.433594 C 20.699219 33.433594 20.699219 33.429688 20.703125 33.429688 Z M 20.703125 33.429688 "/>
</g>
</g>
</g>
<g clip-path="url(#clip72)" clip-rule="nonzero">
<g clip-path="url(#clip73)" clip-rule="nonzero">
<g clip-path="url(#clip74)" clip-rule="nonzero">
<path style=" stroke:none;fill-rule:evenodd;fill:rgb(21.568627%,78.431373%,44.313725%);fill-opacity:1;" d="M 20.703125 38.792969 L 26.542969 35.546875 C 26.546875 35.542969 26.546875 35.546875 26.546875 35.546875 L 27.222656 36.667969 C 27.222656 36.667969 27.222656 36.671875 27.21875 36.671875 L 21.375 39.921875 C 21.375 39.921875 21.375 39.921875 21.371094 39.917969 L 20.699219 38.796875 C 20.699219 38.796875 20.699219 38.792969 20.703125 38.792969 Z M 20.703125 38.792969 "/>
</g>
</g>
</g>
<g clip-path="url(#clip75)" clip-rule="nonzero">
<g clip-path="url(#clip76)" clip-rule="nonzero">
<g clip-path="url(#clip77)" clip-rule="nonzero">
<path style=" stroke:none;fill-rule:evenodd;fill:rgb(21.568627%,78.431373%,44.313725%);fill-opacity:1;" d="M 20.703125 29.855469 L 26.542969 26.605469 C 26.546875 26.605469 26.546875 26.605469 26.546875 26.609375 L 27.222656 27.730469 C 27.222656 27.730469 27.222656 27.730469 27.21875 27.734375 L 21.375 30.980469 C 21.375 30.980469 21.375 30.980469 21.371094 30.980469 L 20.699219 29.859375 C 20.699219 29.855469 20.699219 29.855469 20.703125 29.855469 Z M 20.703125 29.855469 "/>
</g>
</g>
</g>
<g clip-path="url(#clip78)" clip-rule="nonzero">
<g clip-path="url(#clip79)" clip-rule="nonzero">
<g clip-path="url(#clip80)" clip-rule="nonzero">
<path style=" stroke:none;fill-rule:evenodd;fill:rgb(21.568627%,78.431373%,44.313725%);fill-opacity:1;" d="M 20.703125 35.21875 L 26.542969 31.96875 C 26.546875 31.96875 26.546875 31.96875 26.546875 31.972656 L 27.222656 33.09375 C 27.222656 33.09375 27.222656 33.09375 27.21875 33.097656 L 21.375 36.34375 C 21.375 36.34375 21.375 36.34375 21.371094 36.34375 L 20.699219 35.222656 C 20.699219 35.21875 20.699219 35.21875 20.703125 35.21875 Z M 20.703125 35.21875 "/>
</g>
</g>
</g>
<g clip-path="url(#clip81)" clip-rule="nonzero">
<g clip-path="url(#clip82)" clip-rule="nonzero">
<g clip-path="url(#clip83)" clip-rule="nonzero">
<path style=" stroke:none;fill-rule:evenodd;fill:rgb(21.568627%,78.431373%,44.313725%);fill-opacity:1;" d="M 20.703125 28.066406 L 26.542969 24.816406 C 26.546875 24.816406 26.546875 24.816406 26.546875 24.820312 L 27.222656 25.941406 C 27.222656 25.941406 27.222656 25.945312 27.21875 25.945312 L 21.375 29.191406 C 21.375 29.191406 21.375 29.191406 21.371094 29.191406 L 20.699219 28.070312 C 20.699219 28.070312 20.699219 28.066406 20.703125 28.066406 Z M 20.703125 28.066406 "/>
</g>
</g>
</g>
<g clip-path="url(#clip84)" clip-rule="nonzero">
<g clip-path="url(#clip85)" clip-rule="nonzero">
<g clip-path="url(#clip86)" clip-rule="nonzero">
<path style=" stroke:none;fill-rule:evenodd;fill:rgb(21.568627%,78.431373%,44.313725%);fill-opacity:1;" d="M 27.21875 42.371094 L 21.375 39.121094 C 21.375 39.121094 21.375 39.121094 21.371094 39.121094 L 20.699219 40.242188 C 20.699219 40.246094 20.699219 40.246094 20.703125 40.246094 L 26.542969 43.496094 C 26.546875 43.496094 26.546875 43.496094 26.546875 43.496094 L 27.222656 42.375 C 27.222656 42.371094 27.222656 42.371094 27.21875 42.371094 Z M 27.21875 42.371094 "/>
</g>
</g>
</g>
<g clip-path="url(#clip87)" clip-rule="nonzero">
<g clip-path="url(#clip88)" clip-rule="nonzero">
<g clip-path="url(#clip89)" clip-rule="nonzero">
<path style=" stroke:none;fill-rule:evenodd;fill:rgb(21.568627%,78.431373%,44.313725%);fill-opacity:1;" d="M 27.21875 37.007812 L 21.375 33.757812 C 21.375 33.757812 21.375 33.757812 21.371094 33.757812 L 20.699219 34.878906 C 20.699219 34.882812 20.699219 34.882812 20.703125 34.882812 L 26.542969 38.132812 C 26.546875 38.132812 26.546875 38.132812 26.546875 38.132812 L 27.222656 37.007812 C 27.222656 37.007812 27.222656 37.007812 27.21875 37.007812 Z M 27.21875 37.007812 "/>
</g>
</g>
</g>
<g clip-path="url(#clip90)" clip-rule="nonzero">
<g clip-path="url(#clip91)" clip-rule="nonzero">
<g clip-path="url(#clip92)" clip-rule="nonzero">
<path style=" stroke:none;fill-rule:evenodd;fill:rgb(21.568627%,78.431373%,44.313725%);fill-opacity:1;" d="M 27.21875 40.582031 L 21.375 37.332031 C 21.375 37.332031 21.375 37.332031 21.371094 37.335938 L 20.699219 38.457031 C 20.699219 38.457031 20.699219 38.460938 20.703125 38.460938 L 26.542969 41.707031 C 26.546875 41.707031 26.546875 41.707031 26.546875 41.707031 L 27.222656 40.585938 C 27.222656 40.585938 27.222656 40.582031 27.21875 40.582031 Z M 27.21875 40.582031 "/>
</g>
</g>
</g>
<g clip-path="url(#clip93)" clip-rule="nonzero">
<g clip-path="url(#clip94)" clip-rule="nonzero">
<g clip-path="url(#clip95)" clip-rule="nonzero">
<path style=" stroke:none;fill-rule:evenodd;fill:rgb(21.568627%,78.431373%,44.313725%);fill-opacity:1;" d="M 27.21875 31.640625 L 21.375 28.394531 C 21.375 28.394531 21.375 28.394531 21.371094 28.394531 L 20.699219 29.515625 C 20.699219 29.519531 20.699219 29.519531 20.703125 29.519531 L 26.542969 32.769531 C 26.546875 32.769531 26.546875 32.769531 26.546875 32.765625 L 27.222656 31.644531 C 27.222656 31.644531 27.222656 31.644531 27.21875 31.640625 Z M 27.21875 31.640625 "/>
</g>
</g>
</g>
<g clip-path="url(#clip96)" clip-rule="nonzero">
<g clip-path="url(#clip97)" clip-rule="nonzero">
<g clip-path="url(#clip98)" clip-rule="nonzero">
<path style=" stroke:none;fill-rule:evenodd;fill:rgb(21.568627%,78.431373%,44.313725%);fill-opacity:1;" d="M 27.21875 33.429688 L 21.375 30.183594 C 21.375 30.179688 21.375 30.179688 21.371094 30.183594 L 20.699219 31.304688 C 20.699219 31.304688 20.699219 31.308594 20.703125 31.308594 L 26.542969 34.554688 C 26.546875 34.558594 26.546875 34.554688 26.546875 34.554688 L 27.222656 33.433594 C 27.222656 33.433594 27.222656 33.429688 27.21875 33.429688 Z M 27.21875 33.429688 "/>
</g>
</g>
</g>
<g clip-path="url(#clip99)" clip-rule="nonzero">
<g clip-path="url(#clip100)" clip-rule="nonzero">
<g clip-path="url(#clip101)" clip-rule="nonzero">
<path style=" stroke:none;fill-rule:evenodd;fill:rgb(21.568627%,78.431373%,44.313725%);fill-opacity:1;" d="M 27.21875 38.792969 L 21.375 35.546875 C 21.375 35.542969 21.375 35.546875 21.371094 35.546875 L 20.699219 36.667969 C 20.699219 36.667969 20.699219 36.671875 20.703125 36.671875 L 26.542969 39.921875 C 26.546875 39.921875 26.546875 39.921875 26.546875 39.917969 L 27.222656 38.796875 C 27.222656 38.796875 27.222656 38.792969 27.21875 38.792969 Z M 27.21875 38.792969 "/>
</g>
</g>
</g>
<g clip-path="url(#clip102)" clip-rule="nonzero">
<g clip-path="url(#clip103)" clip-rule="nonzero">
<g clip-path="url(#clip104)" clip-rule="nonzero">
<path style=" stroke:none;fill-rule:evenodd;fill:rgb(21.568627%,78.431373%,44.313725%);fill-opacity:1;" d="M 27.21875 29.855469 L 21.375 26.605469 C 21.375 26.605469 21.375 26.605469 21.371094 26.609375 L 20.699219 27.730469 C 20.699219 27.730469 20.699219 27.730469 20.703125 27.734375 L 26.542969 30.980469 C 26.546875 30.980469 26.546875 30.980469 26.546875 30.980469 L 27.222656 29.859375 C 27.222656 29.855469 27.222656 29.855469 27.21875 29.855469 Z M 27.21875 29.855469 "/>
</g>
</g>
</g>
<g clip-path="url(#clip105)" clip-rule="nonzero">
<g clip-path="url(#clip106)" clip-rule="nonzero">
<g clip-path="url(#clip107)" clip-rule="nonzero">
<path style=" stroke:none;fill-rule:evenodd;fill:rgb(21.568627%,78.431373%,44.313725%);fill-opacity:1;" d="M 27.21875 35.21875 L 21.375 31.96875 C 21.375 31.96875 21.375 31.96875 21.371094 31.972656 L 20.699219 33.09375 C 20.699219 33.09375 20.699219 33.09375 20.703125 33.097656 L 26.542969 36.34375 C 26.546875 36.34375 26.546875 36.34375 26.546875 36.34375 L 27.222656 35.222656 C 27.222656 35.21875 27.222656 35.21875 27.21875 35.21875 Z M 27.21875 35.21875 "/>
</g>
</g>
</g>
<g clip-path="url(#clip108)" clip-rule="nonzero">
<g clip-path="url(#clip109)" clip-rule="nonzero">
<g clip-path="url(#clip110)" clip-rule="nonzero">
<path style=" stroke:none;fill-rule:evenodd;fill:rgb(21.568627%,78.431373%,44.313725%);fill-opacity:1;" d="M 27.21875 28.066406 L 21.375 24.816406 C 21.375 24.816406 21.375 24.816406 21.371094 24.820312 L 20.699219 25.941406 C 20.699219 25.941406 20.699219 25.945312 20.703125 25.945312 L 26.542969 29.191406 C 26.546875 29.195312 26.546875 29.191406 26.546875 29.191406 L 27.222656 28.070312 C 27.222656 28.070312 27.222656 28.066406 27.21875 28.066406 Z M 27.21875 28.066406 "/>
</g>
</g>
</g>
<path style=" stroke:none;fill-rule:evenodd;fill:rgb(21.568627%,78.431373%,44.313725%);fill-opacity:1;" d="M 16.582031 25.042969 C 14.800781 25.039062 13.230469 25.511719 12.535156 26.941406 C 11.726562 28.617188 13.511719 30.105469 15.480469 29.089844 C 18.296875 27.636719 22.6875 27.59375 24 27.542969 C 25.3125 27.59375 29.703125 27.636719 32.519531 29.089844 C 34.488281 30.105469 36.273438 28.617188 35.464844 26.941406 C 33.664062 23.226562 25.9375 25.980469 24 26.738281 C 22.808594 26.273438 19.425781 25.050781 16.582031 25.042969 Z M 16.582031 25.042969 "/>
<path style=" stroke:none;fill-rule:evenodd;fill:rgb(21.568627%,78.431373%,44.313725%);fill-opacity:1;" d="M 24.027344 6.976562 C 23.9375 6.976562 23.847656 6.980469 23.757812 6.988281 C 20.582031 7.234375 19.019531 11.671875 21.378906 15.964844 C 23.554688 19.925781 23.492188 25.496094 23.382812 27.636719 L 25.4375 27.636719 C 25.253906 26.207031 24.753906 20.90625 26.765625 15.667969 C 28.660156 10.726562 26.769531 7 24.027344 6.976562 Z M 24.027344 6.976562 "/>
<path style=" stroke:none;fill-rule:evenodd;fill:rgb(21.568627%,78.431373%,44.313725%);fill-opacity:1;" d="M 24.183594 27.640625 L 23.839844 8.785156 "/>
<path style=" stroke:none;fill-rule:evenodd;fill:rgb(21.568627%,78.431373%,44.313725%);fill-opacity:1;" d="M 24.507812 27.640625 L 24.160156 8.785156 "/>
<path style=" stroke:none;fill-rule:evenodd;fill:rgb(21.568627%,78.431373%,44.313725%);fill-opacity:1;" d="M 15.089844 10.0625 C 14.90625 10.0625 14.71875 10.078125 14.523438 10.101562 C 11.761719 10.472656 11.375 13.9375 14.269531 15.554688 C 19.191406 18.308594 23.480469 25.511719 23.609375 25.386719 L 24 25.171875 L 24.390625 25.386719 C 24.519531 25.511719 28.808594 18.308594 33.730469 15.554688 C 36.625 13.9375 36.238281 10.472656 33.476562 10.101562 C 27.921875 9.359375 24.984375 19.089844 24 23.1875 C 23.050781 19.230469 20.28125 10.027344 15.089844 10.0625 Z M 15.089844 10.0625 "/>
<path style=" stroke:none;fill-rule:evenodd;fill:rgb(21.568627%,78.431373%,44.313725%);fill-opacity:1;" d="M 13.09375 15.886719 C 12.421875 15.886719 11.761719 16.050781 11.136719 16.414062 C 9.035156 17.644531 9.890625 20.570312 12.769531 20.898438 C 17.667969 21.457031 23.554688 25.816406 23.617188 25.667969 L 24 25.191406 L 24.382812 25.667969 C 24.445312 25.816406 30.332031 21.457031 35.230469 20.898438 C 38.109375 20.570312 38.964844 17.644531 36.863281 16.414062 C 31.875 13.496094 24.902344 23.570312 24 24.917969 C 23.210938 23.738281 17.78125 15.886719 13.09375 15.886719 Z M 13.09375 15.886719 "/>
<path style=" stroke:none;fill-rule:evenodd;fill:rgb(21.568627%,78.431373%,44.313725%);fill-opacity:1;" d="M 13.535156 20.691406 C 12.386719 20.695312 11.351562 21.039062 10.550781 21.886719 C 8.933594 23.59375 10.515625 26.070312 13.273438 25.601562 C 16.660156 25.019531 21.058594 26.136719 23.246094 26.742188 L 23.390625 27.09375 C 23.394531 27.121094 23.617188 27.0625 24 26.953125 C 24.382812 27.0625 24.605469 27.121094 24.609375 27.09375 L 24.753906 26.742188 C 26.941406 26.136719 31.339844 25.019531 34.726562 25.601562 C 37.484375 26.070312 39.066406 23.59375 37.449219 21.886719 C 34.078125 18.324219 26.574219 23.65625 24 25.679688 C 22.039062 24.140625 17.214844 20.675781 13.535156 20.691406 Z M 13.535156 20.691406 "/>
<path style=" stroke:none;fill-rule:evenodd;fill:rgb(21.568627%,78.431373%,44.313725%);fill-opacity:1;" d="M 23.953125 24.714844 C 23.953125 24.714844 29.117188 12.167969 33.742188 11.90625 "/>
<path style=" stroke:none;fill-rule:evenodd;fill:rgb(21.568627%,78.431373%,44.313725%);fill-opacity:1;" d="M 23.460938 26.421875 C 23.460938 26.421875 33.5 20.933594 36.667969 23.210938 "/>
<path style=" stroke:none;fill-rule:evenodd;fill:rgb(21.568627%,78.431373%,44.313725%);fill-opacity:1;" d="M 24.257812 24.980469 C 24.257812 24.980469 32.65625 16.609375 36.46875 17.960938 "/>
<path style=" stroke:none;fill-rule:evenodd;fill:rgb(21.568627%,78.431373%,44.313725%);fill-opacity:1;" d="M 23.820312 27.015625 C 23.820312 27.015625 32.710938 25.273438 34.558594 27.753906 "/>
<path style=" stroke:none;fill-rule:evenodd;fill:rgb(21.568627%,78.431373%,44.313725%);fill-opacity:1;" d="M 24.046875 24.714844 C 24.046875 24.714844 18.882812 12.167969 14.257812 11.90625 "/>
<path style=" stroke:none;fill-rule:evenodd;fill:rgb(21.568627%,78.431373%,44.313725%);fill-opacity:1;" d="M 24.539062 26.421875 C 24.539062 26.421875 14.5 20.933594 11.332031 23.210938 "/>
<path style=" stroke:none;fill-rule:evenodd;fill:rgb(21.568627%,78.431373%,44.313725%);fill-opacity:1;" d="M 23.742188 24.980469 C 23.742188 24.980469 15.34375 16.609375 11.53125 17.960938 "/>
<path style=" stroke:none;fill-rule:evenodd;fill:rgb(21.568627%,78.431373%,44.313725%);fill-opacity:1;" d="M 24.179688 27.015625 C 24.179688 27.015625 15.289062 25.273438 13.441406 27.753906 "/>
<path style=" stroke:none;fill-rule:evenodd;fill:rgb(21.568627%,78.431373%,44.313725%);fill-opacity:1;" d="M 24.121094 24.851562 C 24.121094 24.851562 29.285156 12.300781 33.910156 12.039062 "/>
<path style=" stroke:none;fill-rule:evenodd;fill:rgb(21.568627%,78.431373%,44.313725%);fill-opacity:1;" d="M 23.5 26.597656 C 23.5 26.597656 33.535156 21.109375 36.707031 23.390625 "/>
<path style=" stroke:none;fill-rule:evenodd;fill:rgb(21.568627%,78.431373%,44.313725%);fill-opacity:1;" d="M 24.34375 25.144531 C 24.34375 25.144531 32.742188 16.773438 36.558594 18.125 "/>
<path style=" stroke:none;fill-rule:evenodd;fill:rgb(21.568627%,78.431373%,44.313725%);fill-opacity:1;" d="M 23.878906 24.851562 C 23.878906 24.851562 18.714844 12.300781 14.089844 12.039062 "/>
<path style=" stroke:none;fill-rule:evenodd;fill:rgb(21.568627%,78.431373%,44.313725%);fill-opacity:1;" d="M 24.5 26.597656 C 24.5 26.597656 14.464844 21.109375 11.292969 23.390625 "/>
<path style=" stroke:none;fill-rule:evenodd;fill:rgb(21.568627%,78.431373%,44.313725%);fill-opacity:1;" d="M 23.65625 25.144531 C 23.65625 25.144531 15.257812 16.773438 11.441406 18.125 "/>
<path style=" stroke:none;fill-rule:evenodd;fill:rgb(21.568627%,78.431373%,44.313725%);fill-opacity:1;" d="M 23.804688 27.160156 C 23.804688 27.160156 32.695312 25.417969 34.542969 27.898438 "/>
<path style=" stroke:none;fill-rule:evenodd;fill:rgb(21.568627%,78.431373%,44.313725%);fill-opacity:1;" d="M 24.195312 27.160156 C 24.195312 27.160156 15.304688 25.417969 13.457031 27.898438 "/>
<path style=" stroke:none;fill-rule:evenodd;fill:rgb(23.921569%,77.254902%,90.588235%);fill-opacity:1;" d="M 15.246094 2.078125 C 6.714844 5.617188 1.148438 13.941406 1.148438 23.179688 C 1.160156 34.941406 10.097656 44.773438 21.804688 45.90625 L 21.804688 41.503906 C 12.523438 40.394531 5.535156 32.527344 5.527344 23.179688 C 5.535156 16.390625 9.265625 10.152344 15.246094 6.933594 Z M 32.753906 2.09375 L 32.753906 6.921875 C 38.738281 10.140625 42.46875 16.386719 42.472656 23.179688 C 42.460938 32.523438 35.472656 40.386719 26.195312 41.496094 L 26.195312 45.921875 C 37.910156 44.792969 46.851562 34.949219 46.851562 23.179688 C 46.84375 13.949219 41.28125 5.628906 32.753906 2.09375 Z M 32.753906 2.09375 "/>
</g>
</svg>
