
<svg xmlns="http://www.w3.org/2000/svg" xmlns:xlink="http://www.w3.org/1999/xlink" width="192px" height="192px" viewBox="0 0 192 192" version="1.1">
<g id="surface1">
<path style=" stroke:none;fill-rule:nonzero;fill:rgb(83.137255%,10.196078%,10.196078%);fill-opacity:1;" d="M 51.46875 10.367188 C 38.5 10.367188 28.0625 20.804688 28.0625 33.773438 L 28.0625 158.226562 C 28.0625 171.195312 38.5 181.632812 51.46875 181.632812 L 140.53125 181.632812 C 153.5 181.632812 163.9375 171.195312 163.9375 158.226562 L 163.9375 38.125 L 99.359375 10.367188 Z M 142.929688 10.484375 C 144.507812 10.644531 146.039062 10.960938 147.507812 11.414062 C 146.039062 10.960938 144.507812 10.644531 142.929688 10.484375 Z M 147.507812 11.414062 C 149.710938 12.097656 151.765625 13.09375 153.632812 14.351562 C 151.765625 13.09375 149.710938 12.097656 147.507812 11.414062 Z M 155.4375 15.695312 C 156.015625 16.171875 156.566406 16.683594 157.09375 17.210938 C 156.5625 16.679688 156.015625 16.171875 155.4375 15.695312 Z M 155.4375 15.695312 "/>
<path style=" stroke:none;fill-rule:nonzero;fill:rgb(100%,100%,100%);fill-opacity:0.682353;" d="M 163.9375 38.125 L 99.359375 10.367188 L 99.359375 14.71875 C 99.359375 27.6875 109.796875 38.125 122.765625 38.125 Z M 163.9375 38.125 "/>
<path style=" stroke:none;fill-rule:nonzero;fill:rgb(100%,100%,100%);fill-opacity:1;" d="M 72.875 95.273438 C 75.558594 95.390625 78.507812 97.109375 80.703125 98.566406 C 87.160156 102.851562 92.304688 109.960938 91.289062 118.117188 C 92.253906 116.5625 92.304688 114.296875 92.304688 112.515625 C 92.300781 106.785156 89.238281 100.898438 85.34375 96.894531 C 84.046875 95.5625 82.683594 94.027344 80.996094 93.210938 L 100.175781 70.515625 L 104.777344 65.0625 C 105.132812 64.644531 106.3125 63.667969 106.054688 63.046875 C 105.816406 62.46875 104.71875 62.105469 104.195312 61.867188 C 103.605469 61.597656 102.53125 61.035156 101.878906 61.277344 C 101.210938 61.527344 100.644531 62.46875 100.195312 63 L 96.675781 67.125 L 80.085938 86.578125 L 75.175781 92.328125 C 74.394531 93.25 73.375 94.160156 72.875 95.273438 Z M 72.875 95.273438 "/>
<path style=" stroke:none;fill-rule:nonzero;fill:rgb(100%,100%,100%);fill-opacity:1;" d="M 62 101.90625 C 68.59375 94.898438 74.425781 87.078125 80.726562 79.800781 L 88.703125 70.367188 C 90.53125 68.253906 92.722656 66.121094 94.191406 63.734375 C 93.234375 63.449219 91.042969 63.273438 90.128906 63.738281 C 89.15625 64.238281 88.332031 65.566406 87.625 66.386719 L 83.085938 71.546875 C 82.417969 72.328125 81.625 73.574219 80.707031 74.046875 C 79.378906 74.730469 76.953125 74.460938 75.484375 74.496094 L 70.121094 74.921875 C 66.117188 75.207031 61.554688 75.214844 59.578125 79.503906 C 57.996094 82.945312 58.238281 87.855469 58.078125 91.589844 C 57.738281 99.414062 57.472656 107.355469 58.203125 115.167969 C 58.515625 118.515625 58.144531 122.785156 59.855469 125.78125 C 61.527344 128.703125 64.757812 129.335938 67.796875 129.621094 C 73.6875 130.179688 80.738281 130.015625 85.488281 125.882812 C 91.128906 120.976562 90.332031 112.207031 85.199219 107.371094 C 79.585938 102.082031 69.304688 99.398438 61.996094 101.90625 Z M 62 101.90625 "/>
<path style=" stroke:none;fill-rule:nonzero;fill:rgb(100%,100%,100%);fill-opacity:1;" d="M 81.863281 130.347656 C 82.929688 130.804688 84.757812 130.644531 85.925781 130.644531 L 93.320312 130.789062 C 102.699219 130.789062 111.960938 130.195312 121.308594 129.765625 C 125.746094 129.558594 130.765625 129.398438 132.609375 124.453125 C 133.777344 121.316406 133.566406 117.300781 133.789062 113.988281 C 134.304688 106.34375 134.519531 98.492188 133.800781 90.851562 C 133.46875 87.273438 133.886719 82.820312 132.34375 79.503906 C 129.953125 74.367188 122.722656 74.757812 117.972656 74.640625 C 116.796875 74.609375 114.605469 73.917969 113.535156 74.433594 C 112.71875 74.828125 112.226562 76.9375 111.84375 77.734375 L 107.632812 87.019531 C 102.671875 98.003906 98.019531 109.257812 92.632812 120.03125 C 90.542969 124.210938 86.769531 129.492188 81.867188 130.347656 Z M 81.863281 130.347656 "/>
</g>
</svg>
