<?xml version="1.0" encoding="UTF-8"?>
<svg xmlns="http://www.w3.org/2000/svg" xmlns:xlink="http://www.w3.org/1999/xlink" width="192pt" height="192pt" viewBox="0 0 192 192" version="1.1">
<g id="surface1">
<path style=" stroke:none;fill-rule:nonzero;fill:rgb(21.568627%,67.058824%,78.431373%);fill-opacity:1;" d="M 51.46875 10.367188 C 38.5 10.367188 28.0625 20.804688 28.0625 33.773438 L 28.0625 158.226562 C 28.0625 171.195312 38.5 181.632812 51.46875 181.632812 L 140.53125 181.632812 C 153.5 181.632812 163.9375 171.195312 163.9375 158.226562 L 163.9375 38.125 L 99.359375 10.367188 Z M 142.929688 10.484375 C 144.507812 10.644531 146.039062 10.957031 147.507812 11.414062 C 146.039062 10.957031 144.507812 10.640625 142.929688 10.484375 Z M 147.507812 11.414062 C 149.710938 12.09375 151.765625 13.089844 153.632812 14.351562 C 151.765625 13.089844 149.710938 12.09375 147.507812 11.414062 Z M 155.4375 15.695312 C 156.015625 16.171875 156.566406 16.679688 157.09375 17.210938 C 156.5625 16.679688 156.015625 16.171875 155.4375 15.695312 Z M 155.4375 15.695312 "/>
<path style=" stroke:none;fill-rule:nonzero;fill:rgb(100%,100%,100%);fill-opacity:0.682353;" d="M 163.9375 38.125 L 99.359375 10.367188 L 99.359375 14.71875 C 99.359375 27.6875 109.796875 38.125 122.765625 38.125 Z M 163.9375 38.125 "/>
<path style=" stroke:none;fill-rule:evenodd;fill:rgb(100%,100%,100%);fill-opacity:1;" d="M 62.539062 84.804688 L 62.539062 142.269531 L 78.957031 142.269531 L 78.957031 138.984375 L 111.792969 138.984375 L 111.792969 142.269531 L 128.207031 142.269531 L 128.207031 84.804688 L 111.792969 84.804688 L 111.792969 88.089844 L 78.957031 88.089844 L 78.957031 84.804688 Z M 67.460938 89.730469 L 74.03125 89.730469 L 74.03125 96.296875 L 67.460938 96.296875 Z M 116.714844 89.730469 L 123.285156 89.730469 L 123.285156 96.296875 L 116.714844 96.296875 Z M 78.957031 93.015625 L 111.792969 93.015625 L 111.792969 134.058594 L 78.957031 134.058594 Z M 67.460938 102.867188 L 74.03125 102.867188 L 74.03125 109.433594 L 67.460938 109.433594 Z M 116.714844 102.867188 L 123.285156 102.867188 L 123.285156 109.433594 L 116.714844 109.433594 Z M 88.804688 104.507812 L 88.804688 120.925781 L 105.222656 112.714844 Z M 67.460938 116 L 74.03125 116 L 74.03125 122.566406 L 67.460938 122.566406 Z M 116.714844 116 L 123.285156 116 L 123.285156 122.566406 L 116.714844 122.566406 Z M 67.460938 129.132812 L 74.03125 129.132812 L 74.03125 135.703125 L 67.460938 135.703125 Z M 116.714844 129.132812 L 123.285156 129.132812 L 123.285156 135.703125 L 116.714844 135.703125 Z M 116.714844 129.132812 "/>
</g>
</svg>
