
<svg xmlns="http://www.w3.org/2000/svg" xmlns:xlink="http://www.w3.org/1999/xlink" width="192px" height="192px" viewBox="0 0 192 192" version="1.1">
<g id="surface1">
<path style=" stroke:none;fill-rule:nonzero;fill:rgb(87.843137%,29.411765%,14.901961%);fill-opacity:1;" d="M 51.46875 10.367188 C 38.5 10.367188 28.0625 20.804688 28.0625 33.773438 L 28.0625 158.226562 C 28.0625 171.195312 38.5 181.632812 51.46875 181.632812 L 140.53125 181.632812 C 153.5 181.632812 163.9375 171.195312 163.9375 158.226562 L 163.9375 38.125 L 99.359375 10.367188 Z M 142.929688 10.484375 C 144.507812 10.644531 146.039062 10.960938 147.507812 11.414062 C 146.039062 10.960938 144.507812 10.644531 142.929688 10.484375 Z M 147.507812 11.414062 C 149.710938 12.097656 151.765625 13.09375 153.632812 14.351562 C 151.765625 13.09375 149.710938 12.097656 147.507812 11.414062 Z M 155.4375 15.695312 C 156.015625 16.171875 156.566406 16.683594 157.09375 17.210938 C 156.5625 16.679688 156.015625 16.171875 155.4375 15.695312 Z M 155.4375 15.695312 "/>
<path style=" stroke:none;fill-rule:nonzero;fill:rgb(100%,100%,100%);fill-opacity:0.682353;" d="M 163.9375 38.125 L 99.359375 10.367188 L 99.359375 14.71875 C 99.359375 27.6875 109.796875 38.125 122.765625 38.125 Z M 163.9375 38.125 "/>
<path style=" stroke:none;fill-rule:nonzero;fill:rgb(100%,100%,100%);fill-opacity:1;" d="M 61.660156 123.144531 C 61.660156 121.007812 62.398438 119.214844 63.871094 117.765625 C 65.347656 116.289062 67.152344 115.550781 69.285156 115.550781 C 71.363281 115.550781 73.128906 116.289062 74.578125 117.765625 C 76.054688 119.214844 76.789062 121.007812 76.789062 123.144531 C 76.789062 125.226562 76.054688 127.007812 74.578125 128.484375 C 73.128906 129.933594 71.363281 130.65625 69.285156 130.65625 C 67.152344 130.65625 65.347656 129.933594 63.871094 128.484375 C 62.398438 127.035156 61.660156 125.253906 61.660156 123.144531 M 61.21875 88.855469 L 61.21875 101.488281 C 77.359375 101.488281 90.46875 114.617188 90.46875 130.785156 L 103.144531 130.785156 C 103.144531 107.628906 84.339844 88.855469 61.21875 88.855469 Z M 61.238281 61.21875 L 61.238281 75.179688 C 91.886719 75.179688 116.765625 100.085938 116.765625 130.761719 L 130.78125 130.761719 C 130.78125 92.363281 99.601562 61.21875 61.238281 61.21875 Z M 61.238281 61.21875 "/>
</g>
</svg>
