
<svg xmlns="http://www.w3.org/2000/svg" xmlns:xlink="http://www.w3.org/1999/xlink" width="192px" height="192px" viewBox="0 0 192 192" version="1.1">
<defs>
<clipPath id="clip1">
  <path d="M 47 10 L 164 10 L 164 120 L 47 120 Z M 47 10 "/>
</clipPath>
<clipPath id="clip2">
  <path d="M 51.46875 10.367188 C 38.5 10.367188 28.0625 20.804688 28.0625 33.773438 L 28.0625 158.226562 C 28.0625 171.195312 38.5 181.632812 51.46875 181.632812 L 140.53125 181.632812 C 153.5 181.632812 163.9375 171.195312 163.9375 158.226562 L 163.9375 38.125 L 99.359375 10.367188 Z M 142.929688 10.484375 C 144.507812 10.644531 146.039062 10.960938 147.507812 11.414062 C 146.039062 10.960938 144.507812 10.644531 142.929688 10.484375 Z M 147.507812 11.414062 C 149.710938 12.097656 151.765625 13.09375 153.632812 14.351562 C 151.765625 13.09375 149.710938 12.097656 147.507812 11.414062 Z M 155.4375 15.695312 C 156.015625 16.171875 156.566406 16.683594 157.09375 17.210938 C 156.5625 16.679688 156.015625 16.171875 155.4375 15.695312 Z M 155.4375 15.695312 "/>
</clipPath>
<clipPath id="clip3">
  <path d="M 51.46875 10.363281 L 140.53125 10.363281 C 153.457031 10.363281 163.9375 20.84375 163.9375 33.773438 L 163.9375 158.226562 C 163.9375 171.15625 153.457031 181.636719 140.53125 181.636719 L 51.46875 181.636719 C 38.542969 181.636719 28.0625 171.15625 28.0625 158.226562 L 28.0625 33.773438 C 28.0625 20.84375 38.542969 10.363281 51.46875 10.363281 Z M 51.46875 10.363281 "/>
</clipPath>
<clipPath id="clip4">
  <path d="M 28 93 L 146 93 L 146 182 L 28 182 Z M 28 93 "/>
</clipPath>
<clipPath id="clip5">
  <path d="M 51.46875 10.367188 C 38.5 10.367188 28.0625 20.804688 28.0625 33.773438 L 28.0625 158.226562 C 28.0625 171.195312 38.5 181.632812 51.46875 181.632812 L 140.53125 181.632812 C 153.5 181.632812 163.9375 171.195312 163.9375 158.226562 L 163.9375 38.125 L 99.359375 10.367188 Z M 142.929688 10.484375 C 144.507812 10.644531 146.039062 10.960938 147.507812 11.414062 C 146.039062 10.960938 144.507812 10.644531 142.929688 10.484375 Z M 147.507812 11.414062 C 149.710938 12.097656 151.765625 13.09375 153.632812 14.351562 C 151.765625 13.09375 149.710938 12.097656 147.507812 11.414062 Z M 155.4375 15.695312 C 156.015625 16.171875 156.566406 16.683594 157.09375 17.210938 C 156.5625 16.679688 156.015625 16.171875 155.4375 15.695312 Z M 155.4375 15.695312 "/>
</clipPath>
<clipPath id="clip6">
  <path d="M 51.46875 10.363281 L 140.53125 10.363281 C 153.457031 10.363281 163.9375 20.84375 163.9375 33.773438 L 163.9375 158.226562 C 163.9375 171.15625 153.457031 181.636719 140.53125 181.636719 L 51.46875 181.636719 C 38.542969 181.636719 28.0625 171.15625 28.0625 158.226562 L 28.0625 33.773438 C 28.0625 20.84375 38.542969 10.363281 51.46875 10.363281 Z M 51.46875 10.363281 "/>
</clipPath>
</defs>
<g id="surface1">
<path style=" stroke:none;fill-rule:nonzero;fill:rgb(92.54902%,91.372549%,84.705882%);fill-opacity:1;" d="M 51.46875 10.367188 C 38.5 10.367188 28.0625 20.804688 28.0625 33.773438 L 28.0625 158.226562 C 28.0625 171.195312 38.5 181.632812 51.46875 181.632812 L 140.53125 181.632812 C 153.5 181.632812 163.9375 171.195312 163.9375 158.226562 L 163.9375 38.125 L 99.359375 10.367188 Z M 142.929688 10.484375 C 144.507812 10.644531 146.039062 10.960938 147.507812 11.414062 C 146.039062 10.960938 144.507812 10.644531 142.929688 10.484375 Z M 147.507812 11.414062 C 149.710938 12.097656 151.765625 13.09375 153.632812 14.351562 C 151.765625 13.09375 149.710938 12.097656 147.507812 11.414062 Z M 155.4375 15.695312 C 156.015625 16.171875 156.566406 16.683594 157.09375 17.210938 C 156.5625 16.679688 156.015625 16.171875 155.4375 15.695312 Z M 155.4375 15.695312 "/>
<g clip-path="url(#clip1)" clip-rule="nonzero">
<g clip-path="url(#clip2)" clip-rule="nonzero">
<g clip-path="url(#clip3)" clip-rule="nonzero">
<path style=" stroke:none;fill-rule:nonzero;fill:rgb(52.54902%,56.470588%,58.039216%);fill-opacity:1;" d="M 122.203125 119.171875 C 120.695312 118.496094 119.089844 116.773438 118.371094 115.058594 C 118.003906 114.171875 117.636719 110.773438 117.320312 105.335938 C 117.050781 100.738281 116.699219 96.609375 116.539062 96.164062 C 116.324219 95.570312 115.269531 95.007812 112.636719 94.089844 C 110.65625 93.398438 107.671875 92.144531 106.003906 91.308594 C 104.335938 90.46875 102.609375 89.785156 102.167969 89.785156 C 101.667969 89.785156 98.949219 92 95.0625 95.5625 C 91.597656 98.738281 88.203125 101.625 87.519531 101.976562 C 86.109375 102.699219 82.941406 102.816406 81.304688 102.207031 C 80.003906 101.722656 66.234375 88.15625 65.351562 86.488281 C 64.476562 84.835938 64.570312 81.742188 65.550781 79.867188 C 66 79.011719 68.910156 75.554688 72.023438 72.183594 C 75.375 68.550781 77.683594 65.730469 77.683594 65.273438 C 77.683594 64.84375 76.996094 63.132812 76.160156 61.464844 C 75.320312 59.800781 74.070312 56.824219 73.382812 54.851562 C 72.695312 52.878906 71.847656 51.117188 71.503906 50.9375 C 71.160156 50.757812 67.113281 50.40625 62.515625 50.152344 C 57.167969 49.859375 53.570312 49.480469 52.527344 49.109375 C 50.542969 48.398438 48.257812 45.964844 47.933594 44.222656 C 47.804688 43.511719 47.75 38.269531 47.816406 32.570312 L 47.933594 22.203125 L 49.125 20.710938 C 51.230469 18.070312 52.222656 17.804688 62.277344 17.1875 C 67.972656 16.839844 71.433594 16.46875 71.71875 16.175781 C 71.96875 15.925781 72.820312 13.96875 73.613281 11.832031 C 74.40625 9.691406 75.648438 6.765625 76.371094 5.328125 C 77.089844 3.890625 77.683594 2.398438 77.683594 2.011719 C 77.683594 1.625 75.300781 -1.304688 72.390625 -4.496094 C 69.480469 -7.6875 66.695312 -10.832031 66.203125 -11.480469 C 64.820312 -13.3125 64.351562 -15.578125 64.902344 -17.796875 C 65.3125 -19.472656 66.070312 -20.382812 72.394531 -26.792969 C 76.265625 -30.714844 80.082031 -34.257812 80.875 -34.667969 C 82.714844 -35.613281 85.644531 -35.628906 87.472656 -34.695312 C 88.242188 -34.304688 91.617188 -31.460938 94.976562 -28.378906 C 98.335938 -25.296875 101.308594 -22.644531 101.589844 -22.484375 C 101.882812 -22.320312 103.691406 -22.953125 105.890625 -23.996094 C 107.980469 -24.988281 111.105469 -26.273438 112.835938 -26.855469 C 115.183594 -27.648438 116.09375 -28.152344 116.417969 -28.84375 C 116.65625 -29.355469 117.066406 -33.53125 117.328125 -38.128906 C 117.832031 -46.972656 118.136719 -48.371094 119.957031 -50.273438 C 121.988281 -52.390625 123.152344 -52.566406 134.492188 -52.4375 L 144.816406 -52.320312 L 146.433594 -51.253906 C 149.210938 -49.410156 149.546875 -48.269531 150.203125 -38.429688 C 150.519531 -33.667969 150.863281 -29.402344 150.972656 -28.945312 C 151.121094 -28.308594 151.972656 -27.839844 154.738281 -26.875 C 156.703125 -26.1875 159.851562 -24.851562 161.734375 -23.90625 C 163.617188 -22.964844 165.308594 -22.191406 165.492188 -22.191406 C 165.675781 -22.191406 168.699219 -24.824219 172.207031 -28.046875 C 175.714844 -31.265625 179.238281 -34.242188 180.03125 -34.65625 C 181.90625 -35.636719 184.699219 -35.625 186.75 -34.632812 C 187.722656 -34.160156 191.03125 -31.152344 195.1875 -26.953125 C 202.320312 -19.75 202.882812 -18.925781 202.886719 -15.664062 C 202.890625 -13.355469 201.863281 -11.84375 195.730469 -5.121094 C 192.398438 -1.464844 189.667969 1.679688 189.667969 1.871094 C 189.667969 2.058594 190.539062 4.027344 191.601562 6.246094 C 192.667969 8.460938 193.9375 11.566406 194.421875 13.144531 C 195.027344 15.105469 195.554688 16.117188 196.085938 16.34375 C 196.511719 16.523438 200.8125 16.921875 205.640625 17.222656 C 215.21875 17.820312 216.761719 18.214844 218.367188 20.472656 C 219.886719 22.609375 220.0625 24.207031 219.929688 34.640625 L 219.804688 44.621094 L 218.632812 46.285156 C 216.539062 49.261719 216.011719 49.414062 205.386719 50.105469 C 200.191406 50.445312 195.851562 50.8125 195.742188 50.925781 C 195.628906 51.035156 194.984375 52.695312 194.308594 54.613281 C 193.632812 56.53125 192.300781 59.644531 191.351562 61.535156 C 190.402344 63.425781 189.679688 65.207031 189.746094 65.492188 C 189.808594 65.777344 192.402344 68.777344 195.503906 72.15625 C 198.601562 75.535156 201.535156 79.078125 202.015625 80.027344 C 203.039062 82.042969 203.132812 84.175781 202.289062 86.195312 C 201.546875 87.972656 188.917969 100.808594 186.867188 101.871094 C 185.148438 102.757812 182.023438 102.851562 180.226562 102.074219 C 179.539062 101.773438 176.089844 98.886719 172.558594 95.660156 C 169.03125 92.429688 165.863281 89.789062 165.519531 89.789062 C 165.175781 89.785156 163.191406 90.582031 161.101562 91.558594 C 159.015625 92.53125 155.925781 93.785156 154.234375 94.34375 C 151.894531 95.113281 151.109375 95.550781 150.96875 96.167969 C 150.863281 96.613281 150.519531 100.875 150.203125 105.636719 C 149.503906 116.109375 149.105469 117.246094 145.457031 119.09375 C 144.398438 119.628906 142.648438 119.722656 133.792969 119.707031 C 125.953125 119.695312 123.082031 119.5625 122.203125 119.171875 Z M 137.5625 72.664062 C 146.964844 71.679688 154.820312 67.933594 161.503906 61.238281 C 166.601562 56.136719 169.890625 50.414062 171.871094 43.195312 C 173.113281 38.671875 173.105469 28.683594 171.855469 24.105469 C 168.070312 10.207031 158.121094 -0.0234375 144.367188 -4.164062 C 141.164062 -5.128906 140.292969 -5.21875 134.066406 -5.246094 C 128.097656 -5.273438 126.851562 -5.167969 123.953125 -4.375 C 109.480469 -0.425781 98.414062 11.203125 95.390625 25.632812 C 92.671875 38.597656 96.644531 51.828125 106.109375 61.339844 C 111.066406 66.320312 117.5 69.976562 124.464844 71.769531 C 126.453125 72.28125 129.269531 72.675781 133.285156 73.003906 C 133.609375 73.03125 135.53125 72.878906 137.5625 72.664062 Z M 127.921875 56.367188 C 118.007812 53.675781 111.066406 45.238281 110.453125 35.125 C 110.023438 28.054688 112.300781 22.070312 117.320312 17.066406 C 126.46875 7.957031 141.074219 7.875 150.105469 16.875 C 157.542969 24.292969 159.328125 34.839844 154.710938 44.097656 C 150.777344 51.980469 143.535156 56.632812 134.648438 56.984375 C 131.625 57.101562 130.128906 56.964844 127.921875 56.367188 Z M 139.015625 46.5625 C 141.753906 45.535156 145.019531 42.5 146.394531 39.703125 C 148.34375 35.171875 147.316406 30.957031 146.148438 27.257812 C 143.59375 22.546875 139.804688 20.164062 134.453125 19.894531 C 130.152344 19.675781 127.582031 20.585938 124.476562 23.421875 C 120.542969 27.019531 118.976562 32.015625 120.242188 36.949219 C 121.335938 41.21875 123.652344 44.117188 127.550781 46.09375 C 131.1875 47.9375 134.929688 48.089844 139.015625 46.5625 Z M 139.015625 46.5625 "/>
</g>
</g>
</g>
<g clip-path="url(#clip4)" clip-rule="nonzero">
<g clip-path="url(#clip5)" clip-rule="nonzero">
<g clip-path="url(#clip6)" clip-rule="nonzero">
<path style=" stroke:none;fill-rule:nonzero;fill:rgb(52.54902%,56.470588%,58.039216%);fill-opacity:1;" d="M 85.351562 239.765625 C 83.941406 239.613281 82.179688 238.628906 81.144531 237.417969 C 80.609375 236.792969 79.414062 234.117188 77.726562 229.769531 C 76.300781 226.089844 74.925781 222.8125 74.675781 222.492188 C 74.34375 222.0625 73.335938 221.882812 70.949219 221.828125 C 69.148438 221.785156 66.386719 221.546875 64.804688 221.304688 C 63.226562 221.058594 61.636719 220.953125 61.277344 221.070312 C 60.871094 221.203125 59.234375 223.722656 57 227.652344 C 55.011719 231.15625 53.003906 234.402344 52.539062 234.871094 C 51.578125 235.828125 49.023438 236.757812 47.53125 236.695312 C 46.339844 236.640625 31.542969 229.199219 30.382812 228.070312 C 29.234375 226.953125 28.496094 224.40625 28.804688 222.617188 C 28.941406 221.804688 30.410156 218.21875 32.058594 214.648438 C 33.835938 210.804688 34.976562 207.898438 34.855469 207.523438 C 34.742188 207.175781 33.734375 205.957031 32.613281 204.820312 C 31.488281 203.679688 29.6875 201.582031 28.605469 200.152344 C 27.523438 198.726562 26.371094 197.511719 26.042969 197.457031 C 25.714844 197.402344 22.324219 198.179688 18.507812 199.183594 C 14.070312 200.347656 11.035156 200.988281 10.085938 200.960938 C 8.28125 200.902344 5.777344 199.519531 5.054688 198.183594 C 4.761719 197.640625 3.339844 193.375 1.890625 188.710938 L -0.738281 180.226562 L -0.160156 178.695312 C 0.863281 175.988281 1.601562 175.511719 9.640625 172.359375 C 14.191406 170.574219 16.914062 169.363281 17.074219 169.050781 C 17.210938 168.777344 17.390625 166.960938 17.476562 165.007812 C 17.558594 163.054688 17.800781 160.339844 18.011719 158.976562 C 18.21875 157.613281 18.308594 156.242188 18.207031 155.925781 C 18.105469 155.613281 15.394531 153.851562 12.179688 152.015625 C 8.96875 150.175781 5.871094 148.34375 5.296875 147.945312 C 3.6875 146.816406 2.707031 145.089844 2.570312 143.136719 C 2.464844 141.660156 2.84375 140.71875 6.316406 133.828125 C 8.441406 129.609375 10.621094 125.714844 11.160156 125.175781 C 12.410156 123.917969 14.796875 123.136719 16.53125 123.414062 C 17.261719 123.53125 20.765625 124.960938 24.316406 126.59375 C 27.867188 128.222656 30.992188 129.601562 31.257812 129.65625 C 31.542969 129.714844 32.851562 128.722656 34.371094 127.292969 C 35.8125 125.9375 38.023438 124.0625 39.28125 123.132812 C 40.988281 121.871094 41.597656 121.21875 41.679688 120.570312 C 41.742188 120.089844 40.976562 116.574219 39.980469 112.753906 C 38.0625 105.410156 37.941406 104.191406 38.929688 102.160156 C 40.027344 99.898438 40.929688 99.449219 50.210938 96.570312 L 58.664062 93.949219 L 60.261719 94.394531 C 63.011719 95.164062 63.589844 96.007812 66.710938 103.859375 C 68.222656 107.660156 69.628906 111.050781 69.835938 111.390625 C 70.125 111.875 70.941406 112.03125 73.453125 112.089844 C 75.234375 112.132812 78.15625 112.394531 79.9375 112.667969 C 81.722656 112.945312 83.304688 113.128906 83.457031 113.082031 C 83.605469 113.035156 85.375 110.089844 87.390625 106.539062 C 89.40625 102.988281 91.492188 99.636719 92.03125 99.089844 C 93.304688 97.796875 95.582031 97.070312 97.519531 97.339844 C 98.4375 97.46875 101.925781 99.054688 106.421875 101.382812 C 114.132812 105.378906 114.808594 105.902344 115.671875 108.5625 C 116.28125 110.445312 115.84375 111.949219 112.609375 119.046875 C 110.851562 122.902344 109.457031 126.1875 109.503906 126.34375 C 109.554688 126.496094 110.785156 127.875 112.234375 129.402344 C 113.683594 130.929688 115.539062 133.128906 116.347656 134.285156 C 117.359375 135.726562 118.054688 136.414062 118.546875 136.457031 C 118.945312 136.496094 122.554688 135.683594 126.570312 134.660156 C 134.539062 132.628906 135.902344 132.542969 137.808594 133.960938 C 139.605469 135.304688 140.171875 136.5625 142.808594 145.105469 L 145.332031 153.277344 L 144.816406 154.945312 C 143.894531 157.921875 143.5 158.1875 135.015625 161.546875 C 130.871094 163.191406 127.429688 164.632812 127.367188 164.753906 C 127.304688 164.875 127.21875 166.394531 127.167969 168.136719 C 127.121094 169.878906 126.855469 172.769531 126.578125 174.5625 C 126.304688 176.355469 126.183594 177.996094 126.308594 178.210938 C 126.4375 178.425781 129.339844 180.191406 132.757812 182.132812 C 136.179688 184.074219 139.5 186.191406 140.144531 186.835938 C 141.507812 188.210938 142.144531 189.929688 141.988281 191.796875 C 141.851562 193.441406 134.929688 207.230469 133.535156 208.636719 C 132.371094 209.8125 129.84375 210.714844 128.175781 210.550781 C 127.535156 210.488281 123.960938 209.042969 120.234375 207.335938 C 116.503906 205.632812 113.226562 204.3125 112.945312 204.402344 C 112.667969 204.492188 111.253906 205.664062 109.808594 207.007812 C 108.363281 208.351562 106.171875 210.1875 104.941406 211.089844 C 103.234375 212.332031 102.710938 212.894531 102.757812 213.433594 C 102.789062 213.828125 103.628906 217.390625 104.625 221.359375 C 106.8125 230.085938 106.785156 231.117188 104.296875 233.582031 C 103.574219 234.296875 102.171875 234.832031 94.945312 237.152344 C 88.546875 239.207031 86.171875 239.855469 85.351562 239.765625 Z M 85.640625 197.792969 C 93.046875 194.515625 98.46875 189.390625 102.160156 182.175781 C 104.972656 176.671875 106.148438 171.136719 105.863281 164.730469 C 105.6875 160.714844 103.050781 152.570312 100.828125 149.164062 C 94.082031 138.828125 83.277344 133.101562 70.972656 133.34375 C 68.105469 133.398438 67.371094 133.550781 62.28125 135.171875 C 57.410156 136.71875 56.421875 137.132812 54.265625 138.542969 C 43.503906 145.574219 37.535156 157.96875 38.867188 170.535156 C 40.0625 181.820312 46.785156 191.570312 57.007812 196.835938 C 62.359375 199.59375 68.566406 200.878906 74.722656 200.511719 C 76.476562 200.40625 78.878906 199.984375 82.242188 199.195312 C 82.507812 199.132812 84.039062 198.503906 85.640625 197.792969 Z M 73.484375 187.039062 C 64.691406 187.453125 56.8125 182.398438 53.648438 174.3125 C 51.4375 168.65625 51.71875 163.179688 54.5 157.777344 C 59.5625 147.941406 71.453125 144.027344 81.1875 148.992188 C 89.203125 153.082031 93.433594 161.214844 92.105469 169.980469 C 90.972656 177.445312 86.289062 183.148438 79.136719 185.769531 C 76.699219 186.664062 75.441406 186.945312 73.484375 187.039062 Z M 79.953125 176.121094 C 81.917969 174.566406 83.78125 171.230469 84.167969 168.585938 C 84.566406 164.378906 82.617188 161.210938 80.691406 158.5 C 77.367188 155.332031 73.652344 154.382812 69.214844 155.570312 C 65.652344 156.527344 63.792969 157.945312 62.007812 161.074219 C 59.746094 165.042969 59.785156 169.535156 62.113281 173.222656 C 64.128906 176.417969 66.78125 178.171875 70.480469 178.757812 C 73.929688 179.304688 77.023438 178.441406 79.953125 176.121094 Z M 79.953125 176.121094 "/>
</g>
</g>
</g>
<path style=" stroke:none;fill-rule:nonzero;fill:rgb(10.196078%,10.196078%,10.196078%);fill-opacity:0.819608;" d="M 163.9375 38.125 L 99.359375 10.367188 L 99.359375 14.71875 C 99.359375 27.6875 109.796875 38.125 122.765625 38.125 Z M 163.9375 38.125 "/>
</g>
</svg>
