
<svg xmlns="http://www.w3.org/2000/svg" xmlns:xlink="http://www.w3.org/1999/xlink" width="192px" height="192px" viewBox="0 0 192 192" version="1.1">
<g id="surface1">
<path style=" stroke:none;fill-rule:nonzero;fill:rgb(92.54902%,91.372549%,84.705882%);fill-opacity:1;" d="M 51.46875 10.367188 C 38.5 10.367188 28.0625 20.804688 28.0625 33.773438 L 28.0625 158.226562 C 28.0625 171.195312 38.5 181.632812 51.46875 181.632812 L 140.53125 181.632812 C 153.5 181.632812 163.9375 171.195312 163.9375 158.226562 L 163.9375 38.125 L 99.359375 10.367188 Z M 142.929688 10.484375 C 144.507812 10.644531 146.039062 10.960938 147.507812 11.414062 C 146.039062 10.960938 144.507812 10.644531 142.929688 10.484375 Z M 147.507812 11.414062 C 149.710938 12.097656 151.765625 13.09375 153.632812 14.351562 C 151.765625 13.09375 149.710938 12.097656 147.507812 11.414062 Z M 155.4375 15.695312 C 156.015625 16.171875 156.566406 16.683594 157.09375 17.210938 C 156.5625 16.679688 156.015625 16.171875 155.4375 15.695312 Z M 155.4375 15.695312 "/>
<path style=" stroke:none;fill-rule:nonzero;fill:rgb(100%,100%,100%);fill-opacity:0.682353;" d="M 163.9375 38.125 L 99.359375 10.367188 L 99.359375 14.71875 C 99.359375 27.6875 109.796875 38.125 122.765625 38.125 Z M 163.9375 38.125 "/>
<path style=" stroke:none;fill-rule:nonzero;fill:rgb(3.529412%,3.137255%,3.137255%);fill-opacity:0.352941;" d="M 96 68.171875 C 76.789062 68.171875 61.21875 83.742188 61.21875 102.953125 C 61.21875 122.164062 76.789062 137.742188 96 137.742188 C 115.210938 137.742188 130.78125 122.164062 130.78125 102.953125 C 130.78125 83.742188 115.210938 68.171875 96 68.171875 Z M 96 75.132812 C 111.367188 75.132812 123.828125 87.585938 123.828125 102.953125 C 123.828125 118.320312 111.367188 130.78125 96 130.78125 C 80.632812 130.78125 68.171875 118.320312 68.171875 102.953125 C 68.171875 87.585938 80.632812 75.132812 96 75.132812 Z M 96.554688 82.085938 C 92.203125 82.085938 88.402344 82.945312 85.15625 84.648438 C 81.929688 86.332031 79.453125 88.761719 77.726562 91.945312 C 76 95.109375 75.132812 98.808594 75.132812 103.03125 C 75.132812 109.734375 76.894531 114.878906 80.414062 118.46875 C 83.929688 122.042969 89.007812 123.828125 95.648438 123.828125 C 100.269531 123.828125 104.457031 123.136719 108.203125 121.75 L 108.203125 114.523438 C 103.644531 115.949219 99.761719 116.664062 96.554688 116.664062 C 88.914062 116.664062 85.09375 112.140625 85.09375 103.085938 C 85.09375 98.734375 86.09375 95.347656 88.09375 92.921875 C 90.09375 90.476562 92.910156 89.257812 96.554688 89.257812 C 98.21875 89.257812 99.914062 89.527344 101.640625 90.0625 C 103.367188 90.597656 105.089844 91.222656 106.796875 91.945312 L 109.921875 84.953125 C 105.445312 83.046875 100.988281 82.085938 96.554688 82.085938 Z M 96.554688 82.085938 "/>
</g>
</svg>
