
<svg xmlns="http://www.w3.org/2000/svg" xmlns:xlink="http://www.w3.org/1999/xlink" width="96px" height="96px" viewBox="0 0 96 96" version="1.1">
<g id="surface1">
<path style="fill-rule:nonzero;fill:rgb(80%,80%,80%);fill-opacity:1;stroke-width:1;stroke-linecap:butt;stroke-linejoin:miter;stroke:rgb(23.137255%,20.392157%,20.392157%);stroke-opacity:1;stroke-miterlimit:4;" d="M 309.895833 42.4375 C 287.166667 42.4375 268.4375 63.333333 264.729167 90.979167 L 444.583333 90.979167 C 440.875 63.333333 422.166667 42.4375 399.458333 42.4375 Z M 309.895833 42.4375 " transform="matrix(0.1875,0,0,0.1875,0,0)"/>
<path style=" stroke:none;fill-rule:nonzero;fill:#A9A9A9;fill-opacity:1;" d="M 12.363281 18.515625 L 83.636719 18.515625 C 89.273438 18.515625 93.84375 23.097656 93.84375 28.75 L 93.84375 64.65625 C 93.84375 70.304688 89.273438 74.886719 83.636719 74.886719 L 12.363281 74.886719 C 6.726562 74.886719 2.15625 70.304688 2.15625 64.65625 L 2.15625 28.75 C 2.15625 23.097656 6.726562 18.515625 12.363281 18.515625 Z M 12.363281 18.515625 "/>
<path style=" stroke:none;fill-rule:nonzero;fill:#A9A9A9;fill-opacity:1;" d="M 12.363281 31.671875 L 83.636719 31.671875 C 89.273438 31.671875 93.84375 36.253906 93.84375 41.902344 L 93.84375 77.808594 C 93.84375 83.460938 89.273438 88.042969 83.636719 88.042969 L 12.363281 88.042969 C 6.726562 88.042969 2.15625 83.460938 2.15625 77.808594 L 2.15625 41.902344 C 2.15625 36.253906 6.726562 31.671875 12.363281 31.671875 Z M 12.363281 31.671875 "/>
<path style=" stroke:none;fill-rule:evenodd;fill:rgb(100%,100%,100%);fill-opacity:1;" d="M 47.171875 29.988281 L 25.171875 57.488281 L 30.671875 57.488281 L 47.171875 35.488281 L 63.671875 57.488281 L 58.722656 57.488281 L 58.722656 73.988281 L 64.222656 73.988281 L 64.222656 57.488281 L 69.171875 57.488281 Z M 30.671875 57.488281 L 30.671875 73.988281 L 36.171875 73.988281 L 36.171875 57.488281 Z M 58.171875 29.988281 L 58.171875 40.988281 L 63.671875 47.589844 L 63.671875 29.988281 Z M 47.171875 45.9375 C 45.042969 45.9375 43.320312 47.664062 43.320312 49.789062 C 43.320312 51.914062 45.042969 53.640625 47.171875 53.640625 C 49.296875 53.640625 51.019531 51.914062 51.019531 49.789062 C 51.019531 47.664062 49.296875 45.9375 47.171875 45.9375 Z M 38.921875 68.488281 L 38.921875 73.988281 L 55.421875 73.988281 L 55.421875 68.488281 Z M 38.921875 68.488281 "/>
</g>
</svg>
