
<svg xmlns="http://www.w3.org/2000/svg" xmlns:xlink="http://www.w3.org/1999/xlink" width="32px" height="32px" viewBox="0 0 32 32" version="1.1">
<g id="surface1">
<path style="fill-rule:nonzero;fill:rgb(80%,80%,80%);fill-opacity:1;stroke-width:1;stroke-linecap:butt;stroke-linejoin:miter;stroke:rgb(23.137255%,20.392157%,20.392157%);stroke-opacity:1;stroke-miterlimit:4;" d="M 309.875 42.4375 C 287.1875 42.4375 268.4375 63.375 264.75 91 L 444.5625 91 C 440.875 63.375 422.1875 42.4375 399.4375 42.4375 Z M 309.875 42.4375 " transform="matrix(0.0625,0,0,0.0625,0,0)"/>
<path style=" stroke:none;fill-rule:nonzero;fill:#71C837;fill-opacity:1;" d="M 4.121094 6.171875 L 27.878906 6.171875 C 29.757812 6.171875 31.28125 7.699219 31.28125 9.582031 L 31.28125 21.550781 C 31.28125 23.433594 29.757812 24.960938 27.878906 24.960938 L 4.121094 24.960938 C 2.242188 24.960938 0.71875 23.433594 0.71875 21.550781 L 0.71875 9.582031 C 0.71875 7.699219 2.242188 6.171875 4.121094 6.171875 Z M 4.121094 6.171875 "/>
<path style=" stroke:none;fill-rule:nonzero;fill:#71C837;fill-opacity:1;" d="M 4.121094 10.558594 L 27.878906 10.558594 C 29.757812 10.558594 31.28125 12.085938 31.28125 13.96875 L 31.28125 25.9375 C 31.28125 27.820312 29.757812 29.347656 27.878906 29.347656 L 4.121094 29.347656 C 2.242188 29.347656 0.71875 27.820312 0.71875 25.9375 L 0.71875 13.96875 C 0.71875 12.085938 2.242188 10.558594 4.121094 10.558594 Z M 4.121094 10.558594 "/>
<path style=" stroke:none;fill-rule:nonzero;fill:rgb(100%,100%,100%);fill-opacity:1;" d="M 11.199219 10.617188 C 10.941406 10.617188 10.742188 10.820312 10.742188 11.078125 L 10.742188 23.832031 C 10.742188 24.09375 10.941406 24.292969 11.199219 24.292969 L 20.800781 24.292969 C 21.058594 24.292969 21.257812 24.09375 21.257812 23.832031 L 21.257812 14.691406 L 17.183594 14.691406 L 17.183594 10.621094 Z M 12.074219 12.484375 L 15.707031 12.484375 L 15.707031 13.277344 L 12.074219 13.277344 Z M 12.074219 14.585938 L 15.707031 14.585938 L 15.707031 15.378906 L 12.074219 15.378906 Z M 12.074219 16.691406 L 20.019531 16.691406 L 20.019531 17.484375 L 12.074219 17.484375 Z M 12.074219 18.792969 L 20.019531 18.792969 L 20.019531 19.589844 L 12.074219 19.589844 Z M 12.074219 20.898438 L 20.019531 20.898438 L 20.019531 21.691406 L 12.074219 21.691406 Z M 12.074219 20.898438 "/>
<path style=" stroke:none;fill-rule:nonzero;fill:rgb(100%,100%,100%);fill-opacity:1;" d="M 18.628906 10.617188 L 18.628906 13.25 L 21.257812 13.25 M 18.628906 10.617188 "/>
</g>
</svg>
