
<svg xmlns="http://www.w3.org/2000/svg" xmlns:xlink="http://www.w3.org/1999/xlink" width="22px" height="22px" viewBox="0 0 22 22" version="1.1">
<g id="surface1">
<path style="fill-rule:nonzero;fill:rgb(100%,100%,100%);fill-opacity:1;stroke-width:2.611469;stroke-linecap:butt;stroke-linejoin:miter;stroke:rgb(60%,60%,60%);stroke-opacity:1;stroke-miterlimit:4;" d="M 7.832386 1006.970123 L 40.167612 1006.970123 C 43.048294 1006.970123 45.392044 1009.313873 45.392044 1012.194555 L 45.392044 1044.529781 C 45.392044 1047.410463 43.048294 1049.754213 40.167612 1049.754213 L 7.832386 1049.754213 C 4.951704 1049.754213 2.607954 1047.410463 2.607954 1044.529781 L 2.607954 1012.194555 C 2.607954 1009.313873 4.951704 1006.970123 7.832386 1006.970123 Z M 7.832386 1006.970123 " transform="matrix(0.458333,0,0,0.458333,0,-460.332675)"/>
<path style=" stroke:none;fill-rule:nonzero;fill:rgb(60%,60%,60%);fill-opacity:1;" d="M 15.25 8.742188 C 15.25 5.707031 13.328125 3.246094 10.953125 3.246094 C 8.582031 3.246094 6.660156 5.707031 6.660156 8.742188 C 6.660156 11.777344 8.582031 14.238281 10.953125 14.238281 C 13.328125 14.238281 15.25 11.777344 15.25 8.742188 Z M 15.25 8.742188 "/>
<path style=" stroke:none;fill-rule:nonzero;fill:rgb(60%,60%,60%);fill-opacity:1;" d="M 14.71875 13.632812 C 13.964844 15.390625 12.523438 16.484375 10.953125 16.484375 C 9.390625 16.480469 7.949219 15.390625 7.195312 13.632812 C 3.851562 14.800781 1.636719 17.40625 1.5 20.335938 L 20.40625 20.335938 C 20.269531 17.40625 18.058594 14.800781 14.71875 13.632812 Z M 14.71875 13.632812 "/>
</g>
</svg>
