<?xml version="1.0" encoding="UTF-8" standalone="no"?>
<svg
   xmlns:dc="http://purl.org/dc/elements/1.1/"
   xmlns:cc="http://creativecommons.org/ns#"
   xmlns:rdf="http://www.w3.org/1999/02/22-rdf-syntax-ns#"
   xmlns:svg="http://www.w3.org/2000/svg"
   xmlns="http://www.w3.org/2000/svg"
   xmlns:sodipodi="http://sodipodi.sourceforge.net/DTD/sodipodi-0.dtd"
   xmlns:inkscape="http://www.inkscape.org/namespaces/inkscape"
   width="48"
   viewBox="0 0 48 48"
   height="48"
   id="svg2"
   version="1.1"
   inkscape:version="0.91 r13725"
   sodipodi:docname="application-font.svg">
  <metadata
     id="metadata18">
    <rdf:RDF>
      <cc:Work
         rdf:about="">
        <dc:format>image/svg+xml</dc:format>
        <dc:type
           rdf:resource="http://purl.org/dc/dcmitype/StillImage" />
      </cc:Work>
    </rdf:RDF>
  </metadata>
  <defs
     id="defs16">
    <clipPath
       id="clipPath4157"
       clipPathUnits="userSpaceOnUse">
      <path
         style="fill:#f9f8f2;fill-opacity:1;stroke-width:1.00658333"
         inkscape:connector-curvature="0"
         id="path4159"
         d="m 27.642964,3.2951379 13.085584,13.0855841 -11.072418,0 c -0.977824,0 -2.013166,-1.035372 -2.013166,-2.013167 l 0,-11.0724171 z" />
    </clipPath>
  </defs>
  <sodipodi:namedview
     pagecolor="#ffffff"
     bordercolor="#666666"
     borderopacity="1"
     objecttolerance="10"
     gridtolerance="10"
     guidetolerance="10"
     inkscape:pageopacity="0"
     inkscape:pageshadow="2"
     inkscape:window-width="1366"
     inkscape:window-height="704"
     id="namedview14"
     showgrid="false"
     inkscape:zoom="4.4030494"
     inkscape:cx="-15.615887"
     inkscape:cy="23.227668"
     inkscape:window-x="0"
     inkscape:window-y="27"
     inkscape:window-maximized="1"
     inkscape:current-layer="svg2" />
  <path
     style="opacity:1;fill:#ece9d8;fill-opacity:1;stroke:none;stroke-width:9.30000019;stroke-miterlimit:4;stroke-dasharray:none;stroke-opacity:1"
     d="m 12.867188,2.5917969 c -3.2418681,0 -5.851563,2.6096949 -5.851563,5.8515625 l 0,31.1132816 c 0,3.241867 2.6096949,5.851562 5.851563,5.851562 l 22.265624,0 c 3.241868,0 5.851563,-2.609695 5.851563,-5.851562 l 0,-30.025391 -16.144531,-6.9394531 -11.972656,0 z m 22.865234,0.029297 c 0.39439,0.039811 0.777621,0.1187827 1.144531,0.2324218 C 36.510036,2.7398694 36.126815,2.6609073 35.732422,2.6210938 Z m 1.144531,0.2324218 c 0.550365,0.1704588 1.064441,0.4195284 1.53125,0.734375 -0.466825,-0.3148628 -0.980874,-0.5639057 -1.53125,-0.734375 z m 1.982422,1.0703125 c 0.144388,0.1190607 0.281855,0.246699 0.414063,0.3789062 C 39.140916,4.1701479 39.004141,4.0432016 38.859375,3.9238281 Z"
     id="rect4193-6"
     inkscape:connector-curvature="0" />
  <path
     style="opacity:0.68300003;fill:#ffffff;fill-opacity:1;stroke:none;stroke-width:9.30000019;stroke-miterlimit:4;stroke-dasharray:none;stroke-opacity:1"
     d="m 40.984375,9.5312499 -16.144531,-6.939453 0,1.087891 c 0,3.241867 2.609695,5.851562 5.851563,5.851562 l 10.292968,0 z"
     id="rect4142-00"
     inkscape:connector-curvature="0" />
  <g
     transform="matrix(0.78898261,0,0,0.86747826,3.5222977,5.7394669)"
     id="g10"
     style="fill:#000000;fill-opacity:0.60831101">
    <path
       d="m 30.42,13.568 -1.4888,16.304 c -0.0771,0.76126 -0.11565,1.2623 -0.11563,1.5032 -1.4e-5,0.38545 0.07226,0.67935 0.21681,0.88171 0.18307,0.27945 0.4288,0.48663 0.73717,0.62153 0.31798,0.13491 0.84797,0.20236 1.59,0.20236 l -0.159,0.53481 -7.7186,0 0.159,-0.53481 0.33245,0 c 0.62634,10e-7 1.1371,-0.13491 1.5322,-0.40472 0.27944,-0.18309 0.49625,-0.48663 0.65044,-0.91062 0.10599,-0.29872 0.20717,-1.0022 0.30354,-2.1103 l 0.23127,-2.4861 -5.6083,0 -1.9947,2.7029 c -0.4529,0.60708 -0.73717,1.0455 -0.8528,1.3153 -0.11564,0.26018 -0.17345,0.5059 -0.17345,0.73717 -3e-6,0.30836 0.12527,0.57335 0.37581,0.79498 0.25054,0.22163 0.66489,0.34208 1.2431,0.36136 l -0.159,0.53481 -5.7962,0 0.159,-0.53481 c 0.71308,-0.02891 1.3394,-0.26499 1.8791,-0.70826 0.54926,-0.4529 1.3635,-1.4117 2.4428,-2.8764 l 11.708,-15.929 0.5059,0 m -2.8619,4.8133 -5.6805,7.733 4.9289,0 0.75162,-7.733"
       id="path12"
       inkscape:connector-curvature="0"
       style="fill:#000000;fill-opacity:0.60831101" />
  </g>
</svg>
