
<svg xmlns="http://www.w3.org/2000/svg" xmlns:xlink="http://www.w3.org/1999/xlink" width="64px" height="64px" viewBox="0 0 64 64" version="1.1">
<g id="surface1">
<path style=" stroke:none;fill-rule:nonzero;fill:#D6D1D1;fill-opacity:1;" d="M 3.085938 6.957031 C 2.554688 6.957031 2.125 7.390625 2.125 7.921875 L 2.125 56.109375 C 2.125 56.644531 2.554688 57.074219 3.085938 57.074219 L 60.914062 57.074219 C 61.445312 57.074219 61.875 56.644531 61.875 56.109375 L 61.875 7.921875 C 61.875 7.390625 61.445312 6.957031 60.914062 6.957031 Z M 3.085938 6.957031 "/>
<path style=" stroke:none;fill-rule:nonzero;fill:rgb(0%,33.333333%,83.137255%);fill-opacity:1;" d="M 2.125 7.15625 L 2.125 11.355469 C 2.125 12.128906 2.554688 12.753906 3.085938 12.753906 L 60.914062 12.753906 C 61.445312 12.753906 61.875 12.128906 61.875 11.355469 L 61.875 7.15625 Z M 2.125 7.15625 "/>
<path style=" stroke:none;fill-rule:nonzero;fill:rgb(100%,100%,100%);fill-opacity:1;" d="M 58.984375 9.335938 C 58.984375 9.070312 58.769531 8.851562 58.503906 8.851562 C 58.238281 8.851562 58.023438 9.070312 58.023438 9.335938 C 58.023438 9.601562 58.238281 9.816406 58.503906 9.816406 C 58.769531 9.816406 58.984375 9.601562 58.984375 9.335938 Z M 58.984375 9.335938 "/>
<path style=" stroke:none;fill-rule:nonzero;fill:rgb(100%,100%,100%);fill-opacity:1;" d="M 56.09375 9.335938 C 56.09375 9.070312 55.878906 8.851562 55.613281 8.851562 C 55.34375 8.851562 55.128906 9.070312 55.128906 9.335938 C 55.128906 9.601562 55.34375 9.816406 55.613281 9.816406 C 55.878906 9.816406 56.09375 9.601562 56.09375 9.335938 Z M 56.09375 9.335938 "/>
<path style=" stroke:none;fill-rule:nonzero;fill:rgb(100%,100%,100%);fill-opacity:1;" d="M 53.203125 9.335938 C 53.203125 9.070312 52.988281 8.851562 52.71875 8.851562 C 52.453125 8.851562 52.238281 9.070312 52.238281 9.335938 C 52.238281 9.601562 52.453125 9.816406 52.71875 9.816406 C 52.988281 9.816406 53.203125 9.601562 53.203125 9.335938 Z M 53.203125 9.335938 "/>
<path style=" stroke:none;fill-rule:nonzero;fill:rgb(65.098039%,90.588235%,95.294118%);fill-opacity:1;" d="M 2.125 7.890625 C 2.125 7.355469 2.554688 6.925781 3.085938 6.925781 L 60.914062 6.925781 C 61.445312 6.925781 61.875 7.355469 61.875 7.890625 Z M 2.125 7.890625 "/>
<path style=" stroke:none;fill-rule:nonzero;fill:rgb(100%,100%,100%);fill-opacity:1;" d="M 4.050781 9.335938 C 4.050781 9.070312 3.835938 8.851562 3.570312 8.851562 C 3.304688 8.851562 3.085938 9.070312 3.085938 9.335938 C 3.085938 9.601562 3.304688 9.816406 3.570312 9.816406 C 3.835938 9.816406 4.050781 9.601562 4.050781 9.335938 Z M 4.050781 9.335938 "/>
<path style=" stroke:none;fill-rule:nonzero;fill:rgb(100%,100%,100%);fill-opacity:1;" d="M 5.980469 9.335938 C 5.980469 9.070312 5.761719 8.851562 5.496094 8.851562 C 5.230469 8.851562 5.015625 9.070312 5.015625 9.335938 C 5.015625 9.601562 5.230469 9.816406 5.496094 9.816406 C 5.761719 9.816406 5.980469 9.601562 5.980469 9.335938 Z M 5.980469 9.335938 "/>
<path style="fill-rule:nonzero;fill:rgb(80%,80%,80%);fill-opacity:1;stroke-width:1;stroke-linecap:butt;stroke-linejoin:miter;stroke:rgb(23.137255%,20.392157%,20.392157%);stroke-opacity:1;stroke-miterlimit:4;" d="M 97.4375 127.0625 C 94.5 127.0625 92.09375 129.75 91.625 133.3125 L 114.78125 133.3125 C 114.28125 129.75 111.875 127.0625 108.96875 127.0625 Z M 97.4375 127.0625 " transform="matrix(0.125,0,0,0.125,0,0)"/>
<path style=" stroke:none;fill-rule:nonzero;fill:#6B6B6B;fill-opacity:1;" d="M 8.253906 16.789062 L 14.371094 16.789062 C 14.851562 16.789062 15.246094 17.179688 15.246094 17.664062 L 15.246094 20.738281 C 15.246094 21.222656 14.851562 21.613281 14.371094 21.613281 L 8.253906 21.613281 C 7.769531 21.613281 7.375 21.222656 7.375 20.738281 L 7.375 17.664062 C 7.375 17.179688 7.769531 16.789062 8.253906 16.789062 Z M 8.253906 16.789062 "/>
<path style=" stroke:none;fill-rule:nonzero;fill:#6B6B6B;fill-opacity:1;" d="M 8.253906 17.914062 L 14.371094 17.914062 C 14.851562 17.914062 15.246094 18.304688 15.246094 18.789062 L 15.246094 21.863281 C 15.246094 22.347656 14.851562 22.742188 14.371094 22.742188 L 8.253906 22.742188 C 7.769531 22.742188 7.375 22.347656 7.375 21.863281 L 7.375 18.789062 C 7.375 18.304688 7.769531 17.914062 8.253906 17.914062 Z M 8.253906 17.914062 "/>
<path style="fill-rule:nonzero;fill:rgb(80%,80%,80%);fill-opacity:1;stroke-width:1;stroke-linecap:butt;stroke-linejoin:miter;stroke:rgb(23.137255%,20.392157%,20.392157%);stroke-opacity:1;stroke-miterlimit:4;" d="M 97.4375 204.40625 C 94.5 204.40625 92.09375 207.09375 91.625 210.625 L 114.78125 210.625 C 114.28125 207.09375 111.875 204.40625 108.96875 204.40625 Z M 97.4375 204.40625 " transform="matrix(0.125,0,0,0.125,0,0)"/>
<path style=" stroke:none;fill-rule:nonzero;fill:#6B6B6B;fill-opacity:1;" d="M 8.253906 26.453125 L 14.371094 26.453125 C 14.851562 26.453125 15.246094 26.847656 15.246094 27.328125 L 15.246094 30.402344 C 15.246094 30.886719 14.851562 31.28125 14.371094 31.28125 L 8.253906 31.28125 C 7.769531 31.28125 7.375 30.886719 7.375 30.402344 L 7.375 27.328125 C 7.375 26.847656 7.769531 26.453125 8.253906 26.453125 Z M 8.253906 26.453125 "/>
<path style=" stroke:none;fill-rule:nonzero;fill:#6B6B6B;fill-opacity:1;" d="M 8.253906 27.582031 L 14.371094 27.582031 C 14.851562 27.582031 15.246094 27.972656 15.246094 28.457031 L 15.246094 31.53125 C 15.246094 32.015625 14.851562 32.40625 14.371094 32.40625 L 8.253906 32.40625 C 7.769531 32.40625 7.375 32.015625 7.375 31.53125 L 7.375 28.457031 C 7.375 27.972656 7.769531 27.582031 8.253906 27.582031 Z M 8.253906 27.582031 "/>
</g>
</svg>
