<?xml version="1.0" encoding="UTF-8"?>
<svg xmlns="http://www.w3.org/2000/svg" xmlns:xlink="http://www.w3.org/1999/xlink" width="128pt" height="128pt" viewBox="0 0 128 128" version="1.1">
<g id="surface1">
<path style="fill-rule:nonzero;fill:rgb(100%,100%,100%);fill-opacity:1;stroke-width:28.191782;stroke-linecap:butt;stroke-linejoin:miter;stroke:rgb(50.196078%,50.196078%,50.196078%);stroke-opacity:1;stroke-miterlimit:4;" d="M 81.484373 25.09375 L 430.515617 25.09375 C 461.656241 25.09375 486.90624 50.343749 486.90624 81.484373 L 486.90624 430.515617 C 486.90624 461.656241 461.656241 486.90624 430.515617 486.90624 L 81.484373 486.90624 C 50.343749 486.90624 25.09375 461.656241 25.09375 430.515617 L 25.09375 81.484373 C 25.09375 50.343749 50.343749 25.09375 81.484373 25.09375 Z M 81.484373 25.09375 " transform="matrix(0.25,0,0,0.25,0,0)"/>
<path style=" stroke:none;fill-rule:nonzero;fill:rgb(30.196078%,30.196078%,30.196078%);fill-opacity:1;" d="M 27.175781 29.351562 L 100.824219 29.351562 C 106.410156 29.351562 110.9375 33.878906 110.9375 39.460938 L 110.9375 88.539062 C 110.9375 94.121094 106.410156 98.648438 100.824219 98.648438 L 27.175781 98.648438 C 21.589844 98.648438 17.0625 94.121094 17.0625 88.539062 L 17.0625 39.460938 C 17.0625 33.878906 21.589844 29.351562 27.175781 29.351562 Z M 27.175781 29.351562 "/>
<path style=" stroke:none;fill-rule:nonzero;fill:rgb(50.196078%,50.196078%,50.196078%);fill-opacity:1;" d="M 29.628906 31.660156 L 98.371094 31.660156 C 103.582031 31.660156 107.808594 35.882812 107.808594 41.097656 L 107.808594 86.902344 C 107.808594 92.117188 103.582031 96.339844 98.371094 96.339844 L 29.628906 96.339844 C 24.417969 96.339844 20.191406 92.117188 20.191406 86.902344 L 20.191406 41.097656 C 20.191406 35.882812 24.417969 31.660156 29.628906 31.660156 Z M 29.628906 31.660156 "/>
<path style=" stroke:none;fill-rule:nonzero;fill:rgb(30.196078%,30.196078%,30.196078%);fill-opacity:1;" d="M 57.355469 63.5 C 57.355469 72.136719 50.351562 79.136719 41.714844 79.136719 C 33.078125 79.136719 26.078125 72.136719 26.078125 63.5 C 26.078125 54.863281 33.078125 47.859375 41.714844 47.859375 C 50.351562 47.859375 57.355469 54.863281 57.355469 63.5 Z M 57.355469 63.5 "/>
<path style=" stroke:none;fill-rule:nonzero;fill:rgb(30.196078%,30.196078%,30.196078%);fill-opacity:1;" d="M 98.835938 63.5 C 98.835938 70.023438 93.542969 75.316406 87.019531 75.316406 C 80.492188 75.316406 75.203125 70.023438 75.203125 63.5 C 75.203125 56.972656 80.492188 51.683594 87.019531 51.683594 C 93.542969 51.683594 98.835938 56.972656 98.835938 63.5 Z M 98.835938 63.5 "/>
<path style=" stroke:none;fill-rule:nonzero;fill:rgb(100%,100%,100%);fill-opacity:1;" d="M 96.75 63.5 C 96.75 68.871094 92.390625 73.230469 87.019531 73.230469 C 81.644531 73.230469 77.289062 68.871094 77.289062 63.5 C 77.289062 58.125 81.644531 53.769531 87.019531 53.769531 C 92.390625 53.769531 96.75 58.125 96.75 63.5 Z M 96.75 63.5 "/>
<path style=" stroke:none;fill-rule:nonzero;fill:rgb(100%,100%,100%);fill-opacity:1;" d="M 53.707031 63.5 C 53.707031 70.121094 48.335938 75.488281 41.714844 75.488281 C 35.09375 75.488281 29.726562 70.121094 29.726562 63.5 C 29.726562 56.875 35.09375 51.507812 41.714844 51.507812 C 48.335938 51.507812 53.707031 56.875 53.707031 63.5 Z M 53.707031 63.5 "/>
<path style=" stroke:none;fill-rule:evenodd;fill:rgb(30.196078%,30.196078%,30.196078%);fill-opacity:1;" d="M 46.53125 31.351562 L 51.519531 39.996094 L 72.074219 39.996094 L 77.269531 30.996094 Z M 46.53125 31.351562 "/>
<path style="fill:none;stroke-width:8.033507;stroke-linecap:butt;stroke-linejoin:miter;stroke:rgb(30.196078%,30.196078%,30.196078%);stroke-opacity:1;stroke-miterlimit:4;" d="M 160.010007 199.474354 L 347.681878 213.380603 " transform="matrix(0.25,0,0,0.25,0.618591,-0.618589)"/>
</g>
</svg>
