<?xml version="1.0" encoding="UTF-8"?>
<svg xmlns="http://www.w3.org/2000/svg" xmlns:xlink="http://www.w3.org/1999/xlink" width="256pt" height="256pt" viewBox="0 0 256 256" version="1.1">
<g id="surface1">
<path style="fill-rule:nonzero;fill:rgb(100%,100%,100%);fill-opacity:1;stroke-width:28.191782;stroke-linecap:butt;stroke-linejoin:miter;stroke:rgb(40%,40%,40%);stroke-opacity:1;stroke-miterlimit:4;" d="M 81.476562 25.09375 L 430.523438 25.09375 C 461.664062 25.09375 486.90625 50.335938 486.90625 81.476562 L 486.90625 430.523438 C 486.90625 461.664062 461.664062 486.90625 430.523438 486.90625 L 81.476562 486.90625 C 50.335938 486.90625 25.09375 461.664062 25.09375 430.523438 L 25.09375 81.476562 C 25.09375 50.335938 50.335938 25.09375 81.476562 25.09375 Z M 81.476562 25.09375 " transform="matrix(0.5,0,0,0.5,0,0)"/>
<path style=" stroke:none;fill-rule:nonzero;fill:rgb(0%,0%,0%);fill-opacity:0.0980392;" d="M 214.390625 64.917969 L 183.496094 34.035156 L 51.964844 34.035156 C 50.40625 34.035156 49.058594 34.585938 47.949219 35.6875 C 46.839844 36.796875 46.289062 38.140625 46.289062 39.710938 L 46.289062 220.976562 C 46.289062 222.546875 46.839844 223.882812 47.949219 224.980469 C 49.058594 226.09375 50.40625 226.652344 51.964844 226.652344 L 208.703125 226.652344 C 210.273438 226.652344 211.609375 226.09375 212.71875 224.980469 C 213.828125 223.882812 214.390625 222.546875 214.390625 220.976562 Z M 214.390625 64.917969 "/>
<path style=" stroke:none;fill-rule:nonzero;fill:rgb(20%,20%,20%);fill-opacity:1;" d="M 209.699219 52.082031 L 186.972656 29.347656 L 175.742188 29.347656 L 175.742188 84.105469 C 175.671875 86.238281 174.539062 87.292969 172.339844 87.292969 L 62.675781 87.292969 C 60.472656 87.292969 59.339844 86.238281 59.265625 84.105469 L 59.265625 29.347656 L 47.285156 29.347656 C 45.71875 29.347656 44.371094 29.898438 43.257812 31.007812 C 42.160156 32.117188 41.609375 33.464844 41.609375 35.027344 L 41.609375 216.300781 C 41.609375 216.515625 41.609375 216.71875 41.65625 216.914062 C 41.785156 218.214844 42.324219 219.347656 43.273438 220.308594 C 44.386719 221.417969 45.730469 221.976562 47.296875 221.976562 L 58.433594 221.976562 L 58.433594 133.632812 C 58.433594 131.363281 59.566406 130.222656 61.839844 130.222656 L 189.488281 130.222656 C 191.761719 130.222656 192.902344 131.363281 192.902344 133.632812 L 192.902344 221.976562 L 204.039062 221.976562 C 205.609375 221.976562 206.941406 221.417969 208.042969 220.308594 C 209.011719 219.347656 209.550781 218.214844 209.683594 216.914062 C 209.683594 216.71875 209.726562 216.515625 209.726562 216.300781 L 209.726562 52.082031 Z M 209.699219 52.082031 "/>
<path style=" stroke:none;fill-rule:nonzero;fill:rgb(80%,80%,80%);fill-opacity:1;" d="M 172.339844 87.292969 C 174.539062 87.292969 175.671875 86.238281 175.742188 84.105469 L 175.742188 29.347656 L 96.234375 29.347656 L 96.234375 87.292969 Z M 172.339844 87.292969 "/>
<path style=" stroke:none;fill-rule:nonzero;fill:rgb(100%,100%,100%);fill-opacity:1;" d="M 192.890625 133.632812 C 192.890625 131.363281 191.75 130.222656 189.472656 130.222656 L 61.828125 130.222656 C 59.550781 130.222656 58.421875 131.363281 58.421875 133.632812 L 58.421875 214.464844 L 192.890625 214.464844 Z M 192.890625 133.632812 "/>
<path style=" stroke:none;fill-rule:nonzero;fill:rgb(40%,40%,40%);fill-opacity:1;" d="M 96.234375 87.292969 L 96.234375 29.347656 L 59.265625 29.347656 L 59.265625 84.105469 C 59.339844 86.238281 60.472656 87.292969 62.675781 87.292969 Z M 96.234375 87.292969 "/>
<path style=" stroke:none;fill-rule:nonzero;fill:rgb(65.882353%,72.941176%,74.509804%);fill-opacity:1;" d="M 58.421875 214.464844 L 58.421875 221.976562 L 192.890625 221.976562 L 192.890625 214.464844 Z M 58.421875 214.464844 "/>
<path style=" stroke:none;fill-rule:nonzero;fill:rgb(40%,40%,40%);fill-opacity:1;" d="M 162.636719 45.039062 C 162.636719 42.769531 161.503906 41.636719 159.234375 41.636719 L 151.511719 41.636719 C 149.238281 41.636719 148.097656 42.769531 148.097656 45.039062 L 148.097656 72.753906 C 148.097656 75.027344 149.238281 76.167969 151.511719 76.167969 L 159.234375 76.167969 C 161.507812 76.167969 162.636719 75.027344 162.636719 72.753906 Z M 162.636719 45.039062 "/>
<path style=" stroke:none;fill-rule:nonzero;fill:rgb(100%,100%,100%);fill-opacity:1;" d="M 54.234375 60.363281 L 54.234375 43.65625 C 54.234375 42.300781 53.554688 41.617188 52.199219 41.617188 L 48.324219 41.617188 C 46.96875 41.617188 46.289062 42.300781 46.289062 43.65625 L 46.289062 60.363281 C 46.289062 61.71875 46.96875 62.402344 48.324219 62.402344 L 52.199219 62.402344 C 53.554688 62.402344 54.234375 61.71875 54.234375 60.363281 Z M 54.234375 60.363281 "/>
<path style=" stroke:none;fill-rule:nonzero;fill:rgb(97.647059%,82.745098%,27.45098%);fill-opacity:1;" d="M 50.34375 206.710938 C 49 206.710938 47.847656 207.191406 46.898438 208.140625 C 45.953125 209.085938 45.472656 210.238281 45.472656 211.582031 C 45.472656 212.925781 45.953125 214.078125 46.898438 215.027344 C 47.847656 215.972656 49 216.453125 50.34375 216.453125 C 51.6875 216.453125 52.839844 215.972656 53.789062 215.027344 C 54.734375 214.078125 55.214844 212.925781 55.214844 211.582031 C 55.214844 210.238281 54.734375 209.085938 53.789062 208.140625 C 52.839844 207.191406 51.6875 206.710938 50.34375 206.710938 Z M 197.984375 208.140625 C 197.039062 209.085938 196.558594 210.238281 196.558594 211.582031 C 196.558594 212.925781 197.039062 214.078125 197.984375 215.027344 C 198.933594 215.972656 200.082031 216.453125 201.429688 216.453125 C 202.773438 216.453125 203.925781 215.972656 204.871094 215.027344 C 205.820312 214.078125 206.300781 212.925781 206.300781 211.582031 C 206.300781 210.238281 205.820312 209.085938 204.871094 208.140625 C 203.925781 207.191406 202.773438 206.710938 201.429688 206.710938 C 200.082031 206.710938 198.933594 207.191406 197.984375 208.140625 Z M 197.984375 208.140625 "/>
</g>
</svg>
