<?xml version="1.0" encoding="UTF-8"?>
<svg xmlns="http://www.w3.org/2000/svg" xmlns:xlink="http://www.w3.org/1999/xlink" width="32pt" height="32pt" viewBox="0 0 32 32" version="1.1">
<g id="surface1">
<path style=" stroke:none;fill-rule:nonzero;fill:rgb(30.196078%,30.196078%,30.196078%);fill-opacity:1;" d="M 27.636719 18.910156 L 24.726562 14.546875 L 21.816406 18.910156 Z M 27.636719 21.816406 L 21.816406 21.816406 L 24.726562 26.183594 Z M 23.273438 13.089844 L 20.363281 13.089844 L 20.363281 4.363281 L 7.273438 4.363281 L 7.273438 13.089844 L 4.363281 13.089844 L 4.363281 14.546875 L 23.273438 14.546875 Z M 23.273438 26.183594 L 20.363281 26.183594 L 20.363281 17.453125 L 10.183594 17.453125 L 10.183594 26.183594 L 4.363281 26.183594 L 4.363281 27.636719 L 23.273438 27.636719 Z M 18.910156 5.816406 L 18.910156 13.089844 L 8.726562 13.089844 L 8.726562 5.816406 Z M 18.910156 18.910156 L 18.910156 26.183594 L 11.636719 26.183594 L 11.636719 18.910156 Z M 18.910156 18.910156 "/>
</g>
</svg>
