
<svg xmlns="http://www.w3.org/2000/svg" xmlns:xlink="http://www.w3.org/1999/xlink" width="64px" height="64px" viewBox="0 0 64 64" version="1.1">
<g id="surface1">
<path style="fill-rule:nonzero;fill:rgb(100%,100%,100%);fill-opacity:1;stroke-width:28.191782;stroke-linecap:butt;stroke-linejoin:miter;stroke:rgb(63.137255%,19.215686%,6.27451%);stroke-opacity:1;stroke-miterlimit:4;" d="M 81.46875 25.09375 L 430.53125 25.09375 C 461.65625 25.09375 486.90625 50.34375 486.90625 81.46875 L 486.90625 430.53125 C 486.90625 461.65625 461.65625 486.90625 430.53125 486.90625 L 81.46875 486.90625 C 50.34375 486.90625 25.09375 461.65625 25.09375 430.53125 L 25.09375 81.46875 C 25.09375 50.34375 50.34375 25.09375 81.46875 25.09375 Z M 81.46875 25.09375 " transform="matrix(0.125,0,0,0.125,0,0)"/>
<path style="fill-rule:evenodd;fill:rgb(100%,100%,100%);fill-opacity:1;stroke-width:1;stroke-linecap:butt;stroke-linejoin:miter;stroke:rgb(0%,0%,0%);stroke-opacity:1;stroke-miterlimit:4;" d="M 61.375 57.03125 L 454.09375 57.03125 L 454.09375 456.1875 L 61.375 456.1875 Z M 61.375 57.03125 " transform="matrix(0.125,0,0,0.125,0,0)"/>
<path style=" stroke:none;fill-rule:nonzero;fill:rgb(93.333333%,40.784314%,16.078431%);fill-opacity:1;" d="M 9.558594 59.429688 C 7.152344 58.847656 5.234375 56.910156 4.660156 54.484375 C 4.5 53.808594 4.480469 50.996094 4.480469 31.875 C 4.480469 7.800781 4.429688 9.332031 5.222656 7.710938 C 5.738281 6.664062 7.011719 5.386719 8.0625 4.875 C 9.683594 4.082031 8.15625 4.128906 32.164062 4.128906 C 56.171875 4.128906 54.644531 4.082031 56.265625 4.875 C 57.316406 5.386719 58.589844 6.664062 59.105469 7.710938 C 59.898438 9.332031 59.847656 7.800781 59.847656 31.875 C 59.847656 50.996094 59.828125 53.808594 59.667969 54.484375 C 59.089844 56.9375 57.171875 58.859375 54.714844 59.4375 C 53.589844 59.703125 10.65625 59.695312 9.558594 59.429688 Z M 27.367188 53.347656 C 30.648438 52.679688 34.070312 50.722656 37.042969 47.8125 C 37.523438 47.339844 37.960938 46.996094 38.003906 47.050781 C 38.050781 47.105469 38.238281 47.554688 38.425781 48.046875 C 39.039062 49.679688 39.6875 50.804688 40.476562 51.597656 C 42.109375 53.246094 44.144531 53.554688 47.011719 52.585938 C 49.21875 51.839844 50.660156 50.808594 51.382812 49.453125 C 51.746094 48.78125 51.792969 48.582031 51.832031 47.566406 C 51.863281 46.742188 51.832031 46.375 51.714844 46.21875 C 51.585938 46.046875 51.21875 45.972656 49.800781 45.839844 C 47.902344 45.65625 47.621094 45.5625 46.921875 44.863281 C 45.882812 43.828125 45.472656 42.40625 45.566406 40.167969 C 45.636719 38.527344 45.796875 37.8125 47.105469 33.304688 C 48.378906 28.925781 48.53125 28.265625 48.398438 27.769531 C 48.191406 27.003906 47.324219 26.308594 45.332031 25.320312 C 43.394531 24.363281 42.691406 24.136719 41.835938 24.199219 C 41.214844 24.242188 41.054688 24.308594 40.703125 24.644531 C 40.085938 25.246094 39.835938 25.984375 39.441406 28.375 C 38.488281 34.132812 37.65625 37.179688 36.410156 39.527344 C 35.097656 41.992188 33.769531 43.136719 31.210938 43.996094 C 30.273438 44.3125 29.832031 44.390625 28.675781 44.4375 C 26.535156 44.527344 25.304688 44.214844 23.871094 43.207031 C 21.773438 41.734375 20.949219 39.320312 21.199219 35.371094 C 21.5 30.625 23.261719 26.511719 26.3125 23.453125 C 28.648438 21.109375 31.101562 19.785156 34.609375 18.96875 C 35.398438 18.785156 36.050781 18.746094 38.308594 18.746094 C 40.898438 18.75 41.136719 18.769531 42.472656 19.085938 C 45.578125 19.820312 47.582031 20.828125 49.53125 22.632812 C 50.03125 23.097656 50.625 23.554688 50.847656 23.648438 C 51.75 24.023438 52.355469 23.742188 52.496094 22.886719 C 52.597656 22.269531 52.363281 19.910156 52.09375 18.867188 C 50.769531 13.6875 46.292969 10.503906 39.785156 10.109375 C 32.285156 9.660156 24.097656 12.660156 19.566406 17.527344 C 16.050781 21.300781 13.371094 26.65625 12.304688 32.050781 C 11.460938 36.324219 11.609375 39.96875 12.769531 43.46875 C 14.433594 48.472656 18.488281 52.347656 23.109375 53.351562 C 24.152344 53.578125 26.242188 53.578125 27.367188 53.347656 Z M 27.367188 53.347656 "/>
</g>
</svg>
