
<svg xmlns="http://www.w3.org/2000/svg" xmlns:xlink="http://www.w3.org/1999/xlink" width="64px" height="64px" viewBox="0 0 64 64" version="1.1">
<g id="surface1">
<path style="fill-rule:nonzero;fill:rgb(100%,100%,100%);fill-opacity:1;stroke-width:26.401737;stroke-linecap:butt;stroke-linejoin:miter;stroke:rgb(16.862745%,65.882353%,92.156863%);stroke-opacity:1;stroke-miterlimit:4;" d="M 76.55271 23.759758 L 403.44714 23.759758 C 432.597521 23.759758 456.240092 47.402329 456.240092 76.55271 L 456.240092 403.44714 C 456.240092 432.597521 432.597521 456.240092 403.44714 456.240092 L 76.55271 456.240092 C 47.402329 456.240092 23.759758 432.597521 23.759758 403.44714 L 23.759758 76.55271 C 23.759758 47.402329 47.402329 23.759758 76.55271 23.759758 Z M 76.55271 23.759758 " transform="matrix(0.133333,0,0,0.133333,0,0)"/>
<path style=" stroke:none;fill-rule:nonzero;fill:rgb(20.784314%,48.627451%,93.333333%);fill-opacity:1;" d="M 8.761719 57.550781 C 8.410156 57.058594 7.828125 55.824219 7.550781 54.988281 C 7.070312 53.550781 6.996094 53.03125 7.003906 51.085938 C 7.011719 49.4375 7.042969 49.132812 7.289062 48.203125 C 8.195312 44.832031 10.4375 42.042969 13.640625 40.304688 C 14.925781 39.609375 14.972656 39.484375 14.226562 38.863281 C 13.179688 37.984375 12.214844 36.554688 11.75 35.1875 C 10.34375 31.054688 12.238281 26.546875 16.144531 24.71875 C 18.363281 23.683594 21.148438 23.683594 23.367188 24.71875 C 27.277344 26.550781 29.183594 31.101562 27.761719 35.207031 C 27.285156 36.570312 26.402344 37.886719 25.335938 38.816406 C 24.804688 39.277344 24.75 39.367188 24.851562 39.554688 C 24.914062 39.675781 25.3125 39.953125 25.734375 40.175781 C 26.15625 40.394531 26.679688 40.6875 26.898438 40.824219 C 27.113281 40.957031 27.351562 41.066406 27.425781 41.0625 C 27.5 41.0625 27.796875 40.742188 28.085938 40.359375 C 29.292969 38.753906 31.335938 37.050781 33.253906 36.050781 C 34.296875 35.507812 34.679688 35.214844 34.675781 34.960938 C 34.671875 34.871094 34.363281 34.546875 33.988281 34.238281 C 32.546875 33.070312 31.144531 30.855469 30.667969 28.996094 C 29.140625 23.058594 32.757812 17.179688 38.71875 15.914062 C 39.148438 15.820312 40.019531 15.761719 40.890625 15.761719 C 42.097656 15.761719 42.527344 15.804688 43.390625 16.023438 C 45.273438 16.5 46.910156 17.429688 48.289062 18.8125 C 50.929688 21.667969 51.96875 25.660156 50.984375 29.101562 C 50.378906 31.105469 49.132812 33.0625 47.757812 34.179688 C 47.414062 34.460938 47.105469 34.757812 47.070312 34.835938 C 46.964844 35.085938 47.425781 35.460938 48.570312 36.058594 C 52.527344 38.125 55.445312 41.785156 56.457031 45.953125 C 57.316406 49.492188 56.9375 52.929688 55.335938 56.203125 C 55.050781 56.78125 54.734375 57.359375 54.632812 57.480469 L 54.449219 57.707031 L 31.710938 57.777344 L 8.96875 57.847656 Z M 8.761719 57.550781 "/>
<path style=" stroke:none;fill-rule:nonzero;fill:rgb(31.372549%,70.196078%,15.686275%);fill-opacity:1;" d="M 8.757812 57.546875 C 8.410156 57.058594 7.828125 55.820312 7.550781 54.988281 C 7.070312 53.550781 6.996094 53.03125 7.003906 51.085938 C 7.011719 49.4375 7.042969 49.132812 7.289062 48.203125 C 8.195312 44.832031 10.4375 42.042969 13.640625 40.304688 C 14.925781 39.609375 14.972656 39.484375 14.226562 38.863281 C 13.179688 37.984375 12.214844 36.554688 11.75 35.1875 C 10.34375 31.054688 12.238281 26.546875 16.144531 24.71875 C 18.363281 23.683594 21.148438 23.683594 23.367188 24.71875 C 27.277344 26.550781 29.183594 31.101562 27.761719 35.207031 C 27.285156 36.570312 26.402344 37.886719 25.335938 38.816406 C 24.566406 39.484375 24.613281 39.570312 26.035156 40.332031 C 26.625 40.648438 27.148438 40.964844 27.203125 41.035156 C 27.277344 41.121094 27.160156 41.421875 26.816406 42.015625 C 25.429688 44.417969 24.824219 46.707031 24.824219 49.558594 C 24.824219 52.347656 25.460938 54.792969 26.757812 57.015625 C 26.984375 57.402344 27.140625 57.742188 27.109375 57.777344 C 27.074219 57.808594 22.980469 57.835938 18.003906 57.835938 L 8.960938 57.835938 Z M 8.757812 57.546875 "/>
</g>
</svg>
