<!-- color: #eea53a -->
<svg xmlns="http://www.w3.org/2000/svg" xmlns:xlink="http://www.w3.org/1999/xlink" width="64px" height="64px" viewBox="0 0 64 64" version="1.1">
<defs>
<clipPath id="clip1">
  <path d="M 14 11.375 L 50.75 11.375 L 50.75 44.625 L 14 44.625 Z M 14 11.375 "/>
</clipPath>
<clipPath id="clip2">
  <path d="M 6.667969 1.332031 L 57.332031 1.332031 C 60.277344 1.332031 62.667969 3.71875 62.667969 6.664062 L 62.667969 57.332031 C 62.667969 60.277344 60.277344 62.664062 57.332031 62.664062 L 6.667969 62.664062 C 3.722656 62.664062 1.332031 60.277344 1.332031 57.332031 L 1.332031 6.664062 C 1.332031 3.71875 3.722656 1.332031 6.667969 1.332031 Z M 6.667969 1.332031 "/>
</clipPath>
</defs>
<g id="surface1">
<path style="fill-rule:nonzero;fill:rgb(93.333333%,63.921569%,21.176471%);fill-opacity:1;stroke-width:2.617475;stroke-linecap:butt;stroke-linejoin:miter;stroke:rgb(63.137255%,38.823529%,6.27451%);stroke-opacity:1;stroke-miterlimit:4;" d="M 7.795898 2.560547 L 40.2041 2.560547 C 43.095702 2.560547 45.439452 4.904297 45.439452 7.795898 L 45.439452 40.2041 C 45.439452 43.095702 43.095702 45.439452 40.2041 45.439452 L 7.795898 45.439452 C 4.904297 45.439452 2.560547 43.095702 2.560547 40.2041 L 2.560547 7.795898 C 2.560547 4.904297 4.904297 2.560547 7.795898 2.560547 Z M 7.795898 2.560547 " transform="matrix(1.333333,0,0,1.333333,0,0)"/>
<g clip-path="url(#clip1)" clip-rule="nonzero">
<g clip-path="url(#clip2)" clip-rule="nonzero">
<path style=" stroke:none;fill-rule:nonzero;fill:rgb(100%,100%,100%);fill-opacity:1;" d="M 31.988281 11.386719 C 29.421875 11.386719 27.34375 13.464844 27.34375 16.03125 C 27.34375 18.191406 28.859375 19.980469 30.859375 20.5 L 30.859375 22.886719 C 26.261719 23.441406 22.703125 27.332031 22.703125 32.082031 C 22.703125 33.363281 22.96875 34.570312 23.4375 35.679688 L 21.875 36.59375 C 20.421875 35.160156 18.171875 34.789062 16.320312 35.859375 C 14.101562 37.132812 13.34375 39.972656 14.625 42.191406 C 15.90625 44.410156 18.742188 45.164062 20.964844 43.886719 C 22.867188 42.78125 23.691406 40.5625 23.089844 38.550781 L 24.605469 37.683594 C 26.304688 39.917969 28.960938 41.371094 31.980469 41.371094 C 35.210938 41.371094 38.035156 39.746094 39.703125 37.25 L 41.65625 38.382812 C 40.945312 40.445312 41.734375 42.761719 43.699219 43.890625 C 45.917969 45.171875 48.746094 44.417969 50.03125 42.199219 C 51.3125 39.980469 50.5625 37.148438 48.339844 35.863281 C 46.542969 34.824219 44.367188 35.136719 42.917969 36.472656 L 40.703125 35.214844 C 41.058594 34.242188 41.265625 33.1875 41.265625 32.09375 C 41.265625 27.371094 37.730469 23.46875 33.15625 22.898438 L 33.15625 20.511719 C 35.15625 19.992188 36.632812 18.207031 36.632812 16.039062 C 36.632812 13.476562 34.550781 11.402344 31.984375 11.402344 M 33.292969 26.492188 C 33.929688 26.492188 34.457031 26.546875 34.902344 26.710938 C 35.34375 26.867188 35.703125 27.074219 35.984375 27.320312 C 36.277344 27.574219 36.511719 27.875 36.636719 28.1875 C 36.765625 28.492188 36.8125 28.796875 36.8125 29.101562 C 36.8125 29.621094 36.710938 30.074219 36.46875 30.484375 C 36.230469 30.90625 35.855469 31.28125 35.339844 31.574219 C 34.824219 31.867188 34.144531 32.0625 33.34375 32.222656 C 32.542969 32.386719 31.605469 32.484375 30.484375 32.484375 L 29.265625 32.484375 C 29.214844 32.734375 29.160156 32.941406 29.132812 33.175781 C 29.117188 33.417969 29.132812 33.671875 29.132812 33.875 C 29.132812 34.628906 29.328125 35.207031 29.695312 35.609375 C 30.078125 36.011719 30.679688 36.171875 31.519531 36.171875 C 32.003906 36.171875 32.4375 36.152344 32.824219 36.085938 C 33.214844 36.011719 33.542969 35.953125 33.824219 35.863281 C 34.109375 35.78125 34.339844 35.671875 34.515625 35.613281 C 34.699219 35.53125 34.839844 35.527344 34.90625 35.527344 C 34.972656 35.527344 35.011719 35.5625 35.042969 35.613281 C 35.078125 35.65625 35.085938 35.699219 35.085938 35.785156 C 35.085938 35.863281 35.101562 35.980469 35.085938 36.089844 C 35.066406 36.195312 35.027344 36.28125 35 36.390625 C 34.96875 36.496094 34.921875 36.601562 34.863281 36.695312 C 34.816406 36.792969 34.796875 36.890625 34.734375 36.953125 C 34.644531 37.042969 34.492188 37.125 34.253906 37.214844 C 34.03125 37.296875 33.75 37.398438 33.433594 37.472656 C 33.121094 37.542969 32.769531 37.601562 32.394531 37.652344 C 32.015625 37.699219 31.644531 37.695312 31.265625 37.695312 C 30.59375 37.695312 29.996094 37.625 29.484375 37.472656 C 28.980469 37.324219 28.566406 37.09375 28.230469 36.78125 C 27.894531 36.464844 27.613281 36.074219 27.449219 35.605469 C 27.28125 35.132812 27.230469 34.585938 27.230469 33.957031 C 27.230469 33.46875 27.269531 32.917969 27.367188 32.355469 C 27.464844 31.785156 27.59375 31.253906 27.796875 30.703125 C 28 30.152344 28.253906 29.605469 28.578125 29.101562 C 28.90625 28.59375 29.308594 28.140625 29.75 27.75 C 30.203125 27.367188 30.722656 27.074219 31.3125 26.839844 C 31.90625 26.597656 32.566406 26.488281 33.308594 26.488281 M 33.164062 27.960938 C 32.671875 27.960938 32.234375 28.046875 31.855469 28.222656 C 31.480469 28.390625 31.109375 28.585938 30.820312 28.875 C 30.53125 29.160156 30.292969 29.527344 30.078125 29.914062 C 29.878906 30.289062 29.730469 30.660156 29.605469 31.085938 L 30.746094 31.085938 C 31.539062 31.085938 32.210938 31.050781 32.734375 30.949219 C 33.265625 30.851562 33.710938 30.726562 34.039062 30.558594 C 34.359375 30.363281 34.570312 30.175781 34.6875 29.949219 C 34.824219 29.695312 34.90625 29.507812 34.90625 29.253906 C 34.90625 28.867188 34.730469 28.539062 34.429688 28.300781 C 34.125 28.058594 33.734375 27.957031 33.179688 27.957031 M 33.164062 27.960938 "/>
</g>
</g>
</g>
</svg>
