
<svg xmlns="http://www.w3.org/2000/svg" xmlns:xlink="http://www.w3.org/1999/xlink" width="64px" height="64px" viewBox="0 0 64 64" version="1.1">
<g id="surface1">
<path style="fill-rule:nonzero;fill:rgb(0%,63.921569%,87.843137%);fill-opacity:1;stroke-width:1.864801;stroke-linecap:butt;stroke-linejoin:miter;stroke:rgb(0%,38.039216%,52.156863%);stroke-opacity:1;stroke-miterlimit:4;" d="M 6.294879 263.830066 L 29.38198 263.830066 C 31.44132 263.830066 33.112605 265.499146 33.112605 267.560691 L 33.112605 290.647793 C 33.112605 292.707133 31.44132 294.376213 29.38198 294.376213 L 6.294879 294.376213 C 4.235538 294.376213 2.564254 292.707133 2.564254 290.647793 L 2.564254 267.560691 C 2.564254 265.499146 4.235538 263.830066 6.294879 263.830066 Z M 6.294879 263.830066 " transform="matrix(1.771653,0,0,1.771653,0,-462.181085)"/>
<path style=" stroke:none;fill-rule:nonzero;fill:rgb(100%,100%,100%);fill-opacity:1;" d="M 47.976562 22.566406 C 46.808594 23.085938 45.546875 23.4375 44.226562 23.59375 C 45.574219 22.785156 46.609375 21.503906 47.097656 19.980469 C 45.835938 20.726562 44.4375 21.269531 42.949219 21.5625 C 41.757812 20.296875 40.0625 19.5 38.183594 19.5 C 34.574219 19.5 31.648438 22.425781 31.648438 26.035156 C 31.648438 26.546875 31.707031 27.042969 31.820312 27.523438 C 26.390625 27.25 21.578125 24.648438 18.355469 20.695312 C 17.792969 21.660156 17.472656 22.785156 17.472656 23.980469 C 17.472656 26.25 18.625 28.246094 20.378906 29.417969 C 19.304688 29.382812 18.300781 29.089844 17.417969 28.601562 C 17.417969 28.628906 17.417969 28.65625 17.417969 28.683594 C 17.417969 31.847656 19.671875 34.488281 22.65625 35.089844 C 22.109375 35.238281 21.53125 35.316406 20.9375 35.316406 C 20.515625 35.316406 20.105469 35.277344 19.707031 35.199219 C 20.539062 37.796875 22.953125 39.683594 25.808594 39.738281 C 23.574219 41.488281 20.757812 42.53125 17.699219 42.53125 C 17.171875 42.53125 16.648438 42.503906 16.140625 42.441406 C 19.03125 44.296875 22.464844 45.375 26.152344 45.375 C 38.167969 45.375 44.738281 35.421875 44.738281 26.792969 C 44.738281 26.507812 44.730469 26.226562 44.71875 25.945312 C 45.996094 25.023438 47.101562 23.875 47.976562 22.566406 "/>
</g>
</svg>
