
<svg xmlns="http://www.w3.org/2000/svg" xmlns:xlink="http://www.w3.org/1999/xlink" width="64px" height="64px" viewBox="0 0 64 64" version="1.1">
<g id="surface1">
<path style="fill-rule:nonzero;fill:rgb(100%,100%,100%);fill-opacity:1;stroke-width:28.191782;stroke-linecap:butt;stroke-linejoin:miter;stroke:rgb(100%,40%,0%);stroke-opacity:1;stroke-miterlimit:4;" d="M 81.46875 25.09375 L 430.53125 25.09375 C 461.65625 25.09375 486.90625 50.34375 486.90625 81.46875 L 486.90625 430.53125 C 486.90625 461.65625 461.65625 486.90625 430.53125 486.90625 L 81.46875 486.90625 C 50.34375 486.90625 25.09375 461.65625 25.09375 430.53125 L 25.09375 81.46875 C 25.09375 50.34375 50.34375 25.09375 81.46875 25.09375 Z M 81.46875 25.09375 " transform="matrix(0.125,0,0,0.125,0,0)"/>
<path style=" stroke:none;fill-rule:nonzero;fill:rgb(100%,40%,0%);fill-opacity:1;" d="M 25.035156 11.273438 C 23.917969 11.257812 22.972656 11.683594 22.582031 12.5 L 22.363281 12.949219 C 21.734375 14.257812 22.765625 16.046875 24.671875 16.964844 L 31.71875 20.351562 L 11.640625 23.128906 C 9.542969 23.417969 8.015625 24.808594 8.214844 26.246094 L 8.285156 26.738281 C 8.480469 28.175781 10.328125 29.097656 12.425781 28.808594 L 24.878906 27.085938 C 24.839844 27.125 24.800781 27.164062 24.761719 27.207031 L 10.082031 43.695312 C 8.675781 45.277344 8.417969 47.324219 9.5 48.289062 L 9.871094 48.621094 C 10.953125 49.585938 12.957031 49.089844 14.367188 47.507812 L 22.503906 38.367188 C 23.640625 46.585938 30.707031 52.71875 39.066406 52.726562 C 48.308594 52.726562 55.800781 45.285156 55.800781 36.105469 C 55.796875 30.640625 53.085938 25.53125 48.554688 22.433594 C 48.152344 22.019531 47.648438 21.648438 47.054688 21.367188 L 27.15625 11.796875 C 26.441406 11.453125 25.707031 11.285156 25.035156 11.273438 Z M 39.066406 25.382812 C 44.984375 25.382812 49.785156 30.183594 49.785156 36.105469 C 49.785156 42.023438 44.984375 46.824219 39.066406 46.824219 C 33.144531 46.824219 28.34375 42.023438 28.34375 36.105469 C 28.34375 30.183594 33.144531 25.382812 39.066406 25.382812 Z M 39.066406 29.207031 C 35.253906 29.207031 32.167969 32.292969 32.167969 36.105469 C 32.167969 39.914062 35.253906 43.003906 39.066406 43.003906 C 42.875 43.003906 45.964844 39.914062 45.964844 36.105469 C 45.964844 32.292969 42.875 29.207031 39.066406 29.207031 Z M 39.066406 29.207031 "/>
</g>
</svg>
