
<svg xmlns="http://www.w3.org/2000/svg" xmlns:xlink="http://www.w3.org/1999/xlink" width="64px" height="64px" viewBox="0 0 64 64" version="1.1">
<g id="surface1">
<path style="fill-rule:nonzero;fill:rgb(16.078431%,50.196078%,72.54902%);fill-opacity:1;stroke-width:6.392664;stroke-linecap:butt;stroke-linejoin:miter;stroke:rgb(21.568627%,20.784314%,22.745098%);stroke-opacity:1;stroke-miterlimit:4;" d="M 19.871895 936.2187 L 99.020332 936.2187 C 106.082832 936.2187 111.801582 941.945263 111.801582 949.007763 L 111.801582 1028.148388 C 111.801582 1035.210888 106.082832 1040.937451 99.020332 1040.937451 L 19.871895 1040.937451 C 12.809395 1040.937451 7.090645 1035.210888 7.090645 1028.148388 L 7.090645 949.007763 C 7.090645 941.945263 12.809395 936.2187 19.871895 936.2187 Z M 19.871895 936.2187 " transform="matrix(0.5,0,0,0.5,1.353115,-462.289038)"/>
<path style=" stroke:none;fill-rule:nonzero;fill:rgb(21.568627%,20.784314%,22.745098%);fill-opacity:1;" d="M 5.882812 6.972656 L 55.871094 6.972656 L 55.871094 15.648438 L 5.882812 15.648438 Z M 5.882812 6.972656 "/>
<path style=" stroke:none;fill-rule:nonzero;fill:rgb(100%,100%,100%);fill-opacity:1;" d="M 41.101562 10.40625 L 44.34375 10.40625 L 44.34375 13.582031 L 41.101562 13.582031 Z M 41.101562 10.40625 "/>
<path style=" stroke:none;fill-rule:nonzero;fill:rgb(100%,100%,100%);fill-opacity:1;" d="M 47.046875 10.40625 L 50.289062 10.40625 L 50.289062 13.582031 L 47.046875 13.582031 Z M 47.046875 10.40625 "/>
<path style=" stroke:none;fill-rule:nonzero;fill:rgb(100%,100%,100%);fill-opacity:1;" d="M 35.15625 10.40625 L 38.398438 10.40625 L 38.398438 13.582031 L 35.15625 13.582031 Z M 35.15625 10.40625 "/>
<path style=" stroke:none;fill-rule:nonzero;fill:rgb(90.196078%,90.196078%,90.196078%);fill-opacity:1;" d="M 32 21.234375 C 23.765625 21.234375 17.09375 27.601562 17.09375 35.449219 C 17.09375 43.300781 23.765625 49.664062 32 49.664062 C 40.234375 49.664062 46.90625 43.300781 46.90625 35.449219 C 46.90625 27.601562 40.234375 21.234375 32 21.234375 Z M 37.589844 39.003906 L 37.589844 37.226562 L 33.863281 37.226562 L 33.863281 40.78125 L 35.726562 40.78125 L 32 44.335938 L 28.273438 40.78125 L 30.136719 40.78125 L 30.136719 37.226562 L 26.410156 37.226562 L 26.410156 39.003906 L 22.683594 35.449219 L 26.410156 31.894531 L 26.410156 33.671875 L 30.136719 33.671875 L 30.136719 30.121094 L 28.273438 30.121094 L 32 26.566406 L 35.726562 30.121094 L 33.863281 30.121094 L 33.863281 33.671875 L 37.589844 33.671875 L 37.589844 31.894531 L 41.316406 35.449219 Z M 37.589844 39.003906 "/>
</g>
</svg>
