
<svg xmlns="http://www.w3.org/2000/svg" xmlns:xlink="http://www.w3.org/1999/xlink" width="64px" height="64px" viewBox="0 0 64 64" version="1.1">
<g id="surface1">
<path style="fill-rule:nonzero;fill:rgb(100%,100%,100%);fill-opacity:1;stroke-width:2.627763;stroke-linecap:butt;stroke-linejoin:miter;stroke:rgb(16.862745%,65.882353%,92.156863%);stroke-opacity:1;stroke-miterlimit:4;" d="M 7.734375 1006.840684 L 40.268553 1006.840684 C 43.168944 1006.840684 45.521483 1009.193223 45.521483 1012.096543 L 45.521483 1044.630722 C 45.521483 1047.531113 43.168944 1049.883652 40.268553 1049.883652 L 7.734375 1049.883652 C 4.831055 1049.883652 2.478516 1047.531113 2.478516 1044.630722 L 2.478516 1012.096543 C 2.478516 1009.193223 4.831055 1006.840684 7.734375 1006.840684 Z M 7.734375 1006.840684 " transform="matrix(1.333333,0,0,1.333333,0,-1339.1496)"/>
<path style=" stroke:none;fill-rule:nonzero;fill:rgb(22.745098%,31.372549%,40%);fill-opacity:1;" d="M 10.808594 34.117188 L 29.878906 34.117188 L 29.878906 53.191406 L 10.808594 53.191406 Z M 10.808594 34.117188 "/>
<path style=" stroke:none;fill-rule:nonzero;fill:rgb(11.372549%,15.686275%,20%);fill-opacity:1;" d="M 10.808594 10.808594 L 29.878906 10.808594 L 29.878906 29.878906 L 10.808594 29.878906 Z M 10.808594 10.808594 "/>
<path style=" stroke:none;fill-rule:nonzero;fill:rgb(17.647059%,23.529412%,29.411765%);fill-opacity:1;" d="M 34.117188 10.808594 L 53.191406 10.808594 L 53.191406 29.878906 L 34.117188 29.878906 Z M 34.117188 10.808594 "/>
<path style=" stroke:none;fill-rule:nonzero;fill:rgb(27.843137%,39.215686%,50.588235%);fill-opacity:1;" d="M 34.117188 34.117188 L 53.191406 34.117188 L 53.191406 53.191406 L 34.117188 53.191406 Z M 34.117188 34.117188 "/>
</g>
</svg>
