
<svg xmlns="http://www.w3.org/2000/svg" xmlns:xlink="http://www.w3.org/1999/xlink" width="64px" height="64px" viewBox="0 0 64 64" version="1.1">
<g id="surface1">
<path style="fill-rule:nonzero;fill:rgb(92.54902%,92.54902%,92.54902%);fill-opacity:1;stroke-width:2.67719;stroke-linecap:butt;stroke-linejoin:miter;stroke:rgb(0.392157%,1.960784%,3.137255%);stroke-opacity:1;stroke-miterlimit:4;" d="M 391.998176 501.869273 L 425.144659 501.869273 C 428.100713 501.869273 430.500127 504.268687 430.500127 507.224742 L 430.500127 540.371225 C 430.500127 543.32728 428.100713 545.726694 425.144659 545.726694 L 391.998176 545.726694 C 389.042121 545.726694 386.642707 543.32728 386.642707 540.371225 L 386.642707 507.224742 C 386.642707 504.268687 389.042121 501.869273 391.998176 501.869273 Z M 391.998176 501.869273 " transform="matrix(1.333333,0,0,1.333333,-512.761907,-666.397333)"/>
<path style=" stroke:none;fill-rule:nonzero;fill:rgb(100%,100%,100%);fill-opacity:0.537255;" d="M 3.375 0.875 C 2.152344 0.875 1.148438 1.726562 0.917969 2.875 C 1.363281 2.5 1.949219 2.292969 2.582031 2.292969 L 61.417969 2.292969 C 62.050781 2.292969 62.636719 2.5 63.082031 2.875 C 62.851562 1.726562 61.847656 0.875 60.625 0.875 Z M 3.375 0.875 "/>
<path style=" stroke:none;fill-rule:nonzero;fill:rgb(20%,20%,20%);fill-opacity:1;" d="M 48.707031 5.25 C 46.648438 5.34375 44.292969 6.296875 42.390625 7.855469 C 40.0625 9.769531 38.167969 14.617188 38.675781 17.328125 C 38.9375 18.71875 39.988281 20.421875 40.996094 20.953125 C 42.875 21.933594 46.296875 20.292969 49.449219 16.953125 C 52.859375 13.339844 54.421875 9.363281 53.257812 7.109375 C 52.542969 5.726562 50.765625 5.121094 48.707031 5.25 Z M 31.894531 7.386719 C 29.03125 7.386719 27.519531 9.40625 27.53125 13.246094 C 27.535156 15.871094 28.460938 18.234375 29.667969 18.816406 C 30.5625 19.25 30.585938 19.203125 31.710938 18.816406 C 33.574219 18.15625 35.324219 13.820312 34.960938 10.914062 C 34.664062 8.542969 33.640625 7.386719 31.894531 7.386719 Z M 20.5625 11.289062 C 20.027344 11.339844 19.492188 11.710938 18.984375 12.214844 C 17.964844 13.246094 17.949219 13.796875 17.964844 15.742188 C 17.972656 18.042969 18.539062 19.304688 20.097656 20.953125 C 21.265625 22.171875 22.109375 22.253906 23.164062 21.074219 C 24.308594 19.863281 24.664062 17.960938 24.277344 15.875 C 23.691406 12.691406 22.171875 11 20.5625 11.230469 Z M 12.578125 18.25 C 12.019531 18.3125 11.519531 18.664062 10.996094 19.1875 C 9.625 20.550781 10.585938 24.332031 12.761719 26.234375 C 15.359375 28.519531 17.457031 26.363281 16.570312 22.429688 C 15.9375 19.585938 14.242188 17.980469 12.578125 18.25 Z M 36.445312 23.269531 C 34.605469 23.246094 32.546875 23.351562 30.410156 23.820312 C 24.910156 24.941406 20.507812 27.019531 17.683594 29.859375 C 16.058594 31.503906 15.128906 33.011719 14.339844 35.335938 C 12.433594 40.980469 15.96875 48.988281 22.699219 54.472656 C 25.207031 56.511719 26.738281 57.421875 29.296875 58.277344 C 30.621094 58.714844 31.671875 58.820312 34.125 58.742188 C 36.9375 58.679688 37.511719 58.59375 39.324219 57.628906 C 41.984375 56.3125 45 53.289062 46.292969 50.667969 C 47.078125 49.066406 47.207031 48.378906 47.128906 47.039062 C 46.996094 44.75 46.109375 44.140625 43.226562 44.15625 C 39.113281 44.179688 37.382812 45.15625 36.539062 48.058594 C 35.902344 50.257812 35.195312 51.035156 33.753906 51.035156 C 31.464844 51.035156 29.109375 49.21875 29.109375 47.316406 C 29.109375 46.003906 31.234375 44.035156 36.539062 40.449219 C 44.011719 35.390625 46.582031 32.320312 46.199219 28.9375 C 45.804688 25.425781 41.964844 23.367188 36.445312 23.269531 Z M 36.445312 23.269531 "/>
</g>
</svg>
