
<svg xmlns="http://www.w3.org/2000/svg" xmlns:xlink="http://www.w3.org/1999/xlink" width="64px" height="64px" viewBox="0 0 64 64" version="1.1">
<g id="surface1">
<path style="fill-rule:nonzero;fill:rgb(100%,100%,100%);fill-opacity:1;stroke-width:6.815335;stroke-linecap:butt;stroke-linejoin:miter;stroke:rgb(29.019608%,68.235294%,90.980392%);stroke-opacity:1;stroke-miterlimit:4;" d="M 21.8125 8.179688 L 106.1875 8.179688 C 113.71875 8.179688 119.820312 14.28125 119.820312 21.8125 L 119.820312 106.1875 C 119.820312 113.71875 113.71875 119.820312 106.1875 119.820312 L 21.8125 119.820312 C 14.28125 119.820312 8.179688 113.71875 8.179688 106.1875 L 8.179688 21.8125 C 8.179688 14.28125 14.28125 8.179688 21.8125 8.179688 Z M 21.8125 8.179688 " transform="matrix(0.5,0,0,0.5,0,0)"/>
<path style=" stroke:none;fill-rule:nonzero;fill:rgb(100%,58.039216%,3.529412%);fill-opacity:1;" d="M 31.542969 22.089844 L 24.527344 36.125 L 38.558594 36.125 M 31.542969 26.902344 L 35.042969 33.917969 L 28.027344 33.917969 L 31.535156 26.902344 M 31.542969 26.902344 "/>
<path style=" stroke:none;fill-rule:nonzero;fill:rgb(80%,80%,80%);fill-opacity:1;" d="M 18.371094 10.433594 L 18.371094 14.617188 L 14.871094 14.539062 L 14.871094 18.671875 L 18.371094 18.761719 L 18.371094 43.320312 L 14.871094 43.257812 L 14.871094 47.382812 L 18.371094 47.460938 L 18.371094 50.117188 L 16.617188 50.117188 L 19.25 53.847656 L 21.878906 50.117188 L 20.125 50.117188 L 20.125 47.460938 L 32.40625 47.382812 C 42.121094 47.324219 49.945312 40.066406 49.945312 30.964844 C 49.945312 21.867188 42.121094 14.542969 32.40625 14.542969 L 20.125 14.617188 L 20.125 10.4375 M 20.125 18.761719 L 32.40625 18.671875 C 39.757812 18.609375 45.539062 24.085938 45.539062 30.96875 C 45.539062 37.855469 39.757812 43.265625 32.40625 43.265625 L 20.125 43.328125 M 20.125 18.769531 "/>
<path style=" stroke:none;fill-rule:nonzero;fill:rgb(0%,50.196078%,50.196078%);fill-opacity:1;" d="M 16.78125 13.945312 L 21.539062 13.945312 L 21.539062 19.40625 L 16.78125 19.40625 M 16.78125 13.945312 "/>
</g>
</svg>
