
<svg xmlns="http://www.w3.org/2000/svg" xmlns:xlink="http://www.w3.org/1999/xlink" width="64px" height="64px" viewBox="0 0 64 64" version="1.1">
<g id="surface1">
<path style="fill-rule:nonzero;fill:rgb(21.176471%,58.431373%,75.686275%);fill-opacity:1;stroke-width:6.2;stroke-linecap:butt;stroke-linejoin:miter;stroke:rgb(46.666667%,72.54902%,90.196078%);stroke-opacity:1;stroke-miterlimit:4;" d="M 22.304688 9.296875 L 106.28125 9.296875 C 113.46875 9.296875 119.296875 15.117188 119.296875 22.304688 L 119.296875 106.28125 C 119.296875 113.46875 113.46875 119.296875 106.28125 119.296875 L 22.304688 119.296875 C 15.117188 119.296875 9.296875 113.46875 9.296875 106.28125 L 9.296875 22.304688 C 9.296875 15.117188 15.117188 9.296875 22.304688 9.296875 Z M 22.304688 9.296875 " transform="matrix(0.5,0,0,0.5,0,0)"/>
<path style=" stroke:none;fill-rule:evenodd;fill:rgb(97.647059%,97.647059%,97.647059%);fill-opacity:1;" d="M 32.144531 10.273438 C 30.195312 15.046875 29.019531 18.171875 26.855469 22.800781 C 28.183594 24.210938 29.8125 25.851562 32.460938 27.703125 C 29.613281 26.53125 27.671875 25.355469 26.21875 24.132812 C 23.445312 29.921875 19.097656 38.167969 10.28125 54.019531 C 17.210938 50.015625 22.585938 47.546875 27.59375 46.605469 C 27.378906 45.679688 27.257812 44.679688 27.265625 43.636719 L 27.273438 43.414062 C 27.382812 38.972656 29.691406 35.558594 32.429688 35.789062 C 35.167969 36.023438 37.292969 39.8125 37.183594 44.253906 C 37.164062 45.089844 37.070312 45.894531 36.90625 46.640625 C 41.859375 47.609375 47.175781 50.070312 54.015625 54.019531 C 52.664062 51.535156 51.460938 49.296875 50.3125 47.164062 C 48.5 45.761719 46.613281 43.9375 42.761719 41.960938 C 45.410156 42.648438 47.304688 43.441406 48.78125 44.328125 C 37.097656 22.570312 36.148438 19.679688 32.144531 10.273438 Z M 32.144531 10.273438 "/>
</g>
</svg>
