
<svg xmlns="http://www.w3.org/2000/svg" xmlns:xlink="http://www.w3.org/1999/xlink" width="64px" height="64px" viewBox="0 0 64 64" version="1.1">
<g id="surface1">
<path style="fill-rule:nonzero;fill:rgb(91.372549%,55.686275%,74.901961%);fill-opacity:1;stroke-width:28.191782;stroke-linecap:butt;stroke-linejoin:miter;stroke:rgb(59.607843%,4.705882%,34.117647%);stroke-opacity:1;stroke-miterlimit:4;" d="M 81.46875 25.09375 L 430.53125 25.09375 C 461.65625 25.09375 486.90625 50.34375 486.90625 81.46875 L 486.90625 430.53125 C 486.90625 461.65625 461.65625 486.90625 430.53125 486.90625 L 81.46875 486.90625 C 50.34375 486.90625 25.09375 461.65625 25.09375 430.53125 L 25.09375 81.46875 C 25.09375 50.34375 50.34375 25.09375 81.46875 25.09375 Z M 81.46875 25.09375 " transform="matrix(0.125,0,0,0.125,0,0)"/>
<path style=" stroke:none;fill-rule:nonzero;fill:rgb(77.647059%,21.568627%,42.745098%);fill-opacity:1;" d="M 31.84375 11.804688 C 20.636719 11.804688 11.554688 20.886719 11.554688 32.09375 C 11.554688 43.304688 20.636719 52.390625 31.84375 52.390625 C 43.054688 52.390625 52.140625 43.304688 52.140625 32.09375 C 52.140625 20.886719 43.054688 11.804688 31.84375 11.804688 Z M 31.84375 14.972656 C 36.175781 14.972656 40.125 16.582031 43.140625 19.234375 C 40.921875 21.941406 37.835938 23.90625 34.203125 25.316406 C 32.242188 21.625 30.078125 18.296875 27.863281 15.449219 C 29.140625 15.144531 30.472656 14.972656 31.84375 14.972656 Z M 24.554688 16.597656 C 26.648438 19.433594 28.828125 22.679688 30.875 26.40625 C 26.109375 27.742188 20.664062 28.359375 15.101562 28.546875 C 16.21875 23.25 19.773438 18.847656 24.554688 16.597656 Z M 45.101562 21.234375 C 47.480469 24.136719 48.917969 27.847656 48.96875 31.878906 C 44.804688 31.109375 40.820312 30.847656 37.058594 31.363281 C 36.570312 30.203125 36.082031 29.078125 35.550781 27.972656 C 39.148438 26.457031 42.421875 24.296875 45.101562 21.234375 Z M 32.300781 29.144531 C 32.769531 30.085938 33.226562 31.054688 33.667969 32.054688 C 28.1875 33.59375 23.28125 37.109375 19.082031 43.511719 C 16.371094 40.480469 14.722656 36.484375 14.722656 32.09375 C 14.722656 31.921875 14.738281 31.753906 14.742188 31.582031 C 20.371094 31.417969 26.582031 30.921875 32.300781 29.144531 Z M 40.863281 33.820312 C 43.332031 33.722656 45.96875 34.023438 48.75 34.832031 C 47.992188 39.5625 45.292969 43.628906 41.496094 46.226562 C 40.71875 41.972656 39.570312 37.90625 38.148438 34.097656 C 39.027344 33.957031 39.933594 33.855469 40.863281 33.820312 Z M 34.835938 34.871094 C 36.367188 38.773438 37.664062 43.078125 38.5625 47.851562 C 36.5 48.734375 34.230469 49.21875 31.84375 49.21875 C 27.859375 49.21875 24.191406 47.855469 21.28125 45.570312 C 23.65625 41.539062 28.394531 36.910156 34.835938 34.871094 Z M 34.835938 34.871094 "/>
</g>
</svg>
