
<svg xmlns="http://www.w3.org/2000/svg" xmlns:xlink="http://www.w3.org/1999/xlink" width="64px" height="64px" viewBox="0 0 64 64" version="1.1">
<g id="surface1">
<path style="fill-rule:evenodd;fill:rgb(16.470588%,100%,83.529412%);fill-opacity:1;stroke-width:22.4;stroke-linecap:butt;stroke-linejoin:miter;stroke:rgb(0%,0%,0%);stroke-opacity:1;stroke-miterlimit:4;" d="M 102.65625 25.59375 L 413.1875 25.59375 C 454.375 25.59375 487.75 58.96875 487.75 100.15625 L 487.75 410.6875 C 487.75 451.875 454.375 485.28125 413.1875 485.28125 L 102.65625 485.28125 C 61.46875 485.28125 28.0625 451.875 28.0625 410.6875 L 28.0625 100.15625 C 28.0625 58.96875 61.46875 25.59375 102.65625 25.59375 Z M 102.65625 25.59375 " transform="matrix(0.125,0,0,0.125,0,0)"/>
<path style=" stroke:none;fill-rule:nonzero;fill:rgb(100%,100%,100%);fill-opacity:1;" d="M 49.914062 33.5 C 49.914062 42.871094 42.011719 50.46875 32.265625 50.46875 C 22.515625 50.46875 14.617188 42.871094 14.617188 33.5 C 14.617188 24.128906 22.515625 16.53125 32.265625 16.53125 C 42.011719 16.53125 49.914062 24.128906 49.914062 33.5 Z M 49.914062 33.5 "/>
<path style=" stroke:none;fill-rule:nonzero;fill:rgb(98.039216%,69.803922%,12.941176%);fill-opacity:1;" d="M 31.390625 48.140625 C 31.089844 48.0625 30.558594 47.730469 30.207031 47.398438 C 29.132812 46.398438 24.226562 40.089844 24.042969 39.476562 C 23.824219 38.746094 24.011719 38.242188 24.648438 37.867188 C 25.140625 37.578125 25.355469 37.570312 32.148438 37.570312 C 39.898438 37.570312 39.835938 37.5625 40.222656 38.503906 C 40.378906 38.875 40.371094 39.042969 40.175781 39.558594 C 39.984375 40.054688 35.429688 46.007812 34.261719 47.285156 C 33.585938 48.023438 32.34375 48.394531 31.390625 48.140625 Z M 31.390625 48.140625 "/>
<path style=" stroke:none;fill-rule:nonzero;fill:rgb(20%,20%,20%);fill-opacity:1;" d="M 30.890625 51.160156 C 28.605469 50.957031 26.28125 50.378906 24.34375 49.53125 C 22.210938 48.601562 19.488281 46.648438 17.816406 44.847656 C 17.328125 44.324219 16.84375 43.898438 16.734375 43.902344 C 16.628906 43.902344 16.269531 44.34375 15.9375 44.875 C 14.757812 46.757812 12.695312 48.695312 11.058594 49.449219 C 10.742188 49.59375 10.144531 49.742188 9.734375 49.777344 C 9.074219 49.835938 8.945312 49.796875 8.597656 49.453125 C 8.238281 49.09375 8.214844 48.996094 8.28125 48.171875 C 8.355469 47.277344 8.554688 46.714844 10.238281 42.589844 C 11.070312 40.558594 11.875 38.160156 12.351562 36.277344 C 12.574219 35.410156 12.570312 35.300781 12.28125 33.96875 C 11.003906 28.085938 12.757812 22.460938 17.226562 18.128906 C 21.160156 14.3125 25.820312 12.417969 32.117188 12.085938 C 38.394531 11.753906 45.558594 15.164062 49.390625 20.304688 C 50.507812 21.808594 51.707031 24.28125 52.191406 26.082031 C 52.542969 27.382812 52.582031 27.777344 52.589844 30.121094 C 52.597656 32.132812 52.535156 33.03125 52.320312 34.113281 L 52.046875 35.507812 L 52.378906 36.78125 C 52.828125 38.496094 53.875 41.457031 55.027344 44.257812 C 56.527344 47.898438 56.707031 49.015625 55.890625 49.65625 C 55.128906 50.257812 53.632812 49.941406 52.015625 48.84375 C 50.976562 48.136719 49.203125 46.296875 48.421875 45.117188 C 48.105469 44.644531 47.800781 44.195312 47.738281 44.121094 C 47.679688 44.050781 47.027344 44.574219 46.289062 45.289062 C 43.195312 48.277344 40.226562 49.957031 36.445312 50.847656 C 35.308594 51.113281 32.285156 51.285156 30.890625 51.160156 Z M 33.21875 50.089844 C 37.207031 49.691406 40.535156 48.117188 43.320312 45.3125 C 47.277344 41.324219 49.269531 35.605469 48.410156 30.683594 C 47.859375 27.519531 45.472656 24.171875 42.230469 22 C 40.964844 21.15625 41.070312 21.160156 39.449219 21.902344 C 37.925781 22.597656 36.601562 23.503906 35.167969 24.835938 C 33.613281 26.277344 32.945312 26.652344 32.152344 26.523438 C 31.308594 26.390625 30.792969 26.074219 29.59375 24.960938 C 28.105469 23.582031 26.730469 22.625 25.195312 21.894531 C 23.367188 21.027344 23.421875 21.035156 22.488281 21.597656 C 18.234375 24.160156 15.5625 28.574219 15.59375 33.003906 C 15.648438 41.015625 21.859375 48.644531 29.4375 50.015625 C 30.816406 50.265625 31.363281 50.277344 33.21875 50.089844 Z M 37.617188 34.085938 C 36.621094 33.777344 36.042969 32.640625 36.421875 31.75 C 37.027344 30.328125 38.683594 29.972656 39.601562 31.066406 C 40.808594 32.5 39.398438 34.644531 37.617188 34.085938 Z M 25.15625 33.796875 C 24.402344 33.339844 24.191406 32.410156 24.613281 31.40625 C 24.769531 31.03125 24.992188 30.828125 25.484375 30.609375 C 26.28125 30.257812 26.859375 30.386719 27.507812 31.066406 C 27.863281 31.433594 27.925781 31.617188 27.925781 32.277344 C 27.925781 32.851562 27.847656 33.140625 27.640625 33.371094 C 26.964844 34.117188 25.960938 34.289062 25.15625 33.796875 Z M 25.15625 33.796875 "/>
</g>
</svg>
