<!-- color: #ec8430 -->
<svg xmlns="http://www.w3.org/2000/svg" xmlns:xlink="http://www.w3.org/1999/xlink" width="64px" height="64px" viewBox="0 0 64 64" version="1.1">
<defs>
<clipPath id="clip1">
  <path d="M 16.25 16.25 L 48 16.25 L 48 47.875 L 16.25 47.875 Z M 16.25 16.25 "/>
</clipPath>
<clipPath id="clip2">
  <path d="M 62.332031 32.085938 C 62.332031 48.777344 48.796875 62.296875 32.117188 62.296875 C 15.441406 62.296875 1.90625 48.777344 1.90625 32.085938 C 1.90625 15.394531 15.441406 1.871094 32.117188 1.871094 C 48.796875 1.871094 62.332031 15.394531 62.332031 32.085938 Z M 62.332031 32.085938 "/>
</clipPath>
</defs>
<g id="surface1">
<path style="fill-rule:nonzero;fill:rgb(92.156863%,49.803922%,15.686275%);fill-opacity:1;stroke-width:7.09618;stroke-linecap:butt;stroke-linejoin:miter;stroke:rgb(100%,100%,100%);stroke-opacity:1;stroke-miterlimit:4;" d="M 20.070312 5.875 L 107.929688 5.875 C 115.765625 5.875 122.125 12.234375 122.125 20.070312 L 122.125 107.929688 C 122.125 115.765625 115.765625 122.125 107.929688 122.125 L 20.070312 122.125 C 12.234375 122.125 5.875 115.765625 5.875 107.929688 L 5.875 20.070312 C 5.875 12.234375 12.234375 5.875 20.070312 5.875 Z M 20.070312 5.875 " transform="matrix(0.5,0,0,0.5,0,0)"/>
<g clip-path="url(#clip1)" clip-rule="nonzero">
<g clip-path="url(#clip2)" clip-rule="nonzero">
<path style=" stroke:none;fill-rule:nonzero;fill:rgb(97.647059%,97.647059%,97.647059%);fill-opacity:1;" d="M 16.433594 27.980469 C 15.769531 22.839844 19.3125 16.320312 24.925781 16.320312 C 41.289062 16.320312 26.820312 36.089844 28.164062 37.496094 C 29.480469 38.808594 31.824219 36.675781 33.390625 34.289062 C 34.726562 32.203125 35.824219 29.984375 38.285156 31.191406 C 41.023438 32.539062 41.039062 35.132812 42.394531 37.949219 C 43.75 40.761719 45.128906 42.304688 46.503906 43.351562 C 51.203125 48.46875 42.609375 49.40625 40.039062 45.210938 C 37.367188 41.460938 38.679688 38.816406 33.601562 44.640625 C 25.550781 54.691406 17.679688 38.808594 16.445312 27.980469 M 16.449219 27.980469 "/>
</g>
</g>
</g>
</svg>
