
<svg xmlns="http://www.w3.org/2000/svg" xmlns:xlink="http://www.w3.org/1999/xlink" width="64px" height="64px" viewBox="0 0 64 64" version="1.1">
<defs>
<linearGradient id="linear0" gradientUnits="userSpaceOnUse" x1="69.087135" y1="60.327255" x2="69.087135" y2="36.595539" gradientTransform="matrix(0.447727,0,0,0.468709,-1.316113,9.716269)">
<stop offset="0" style="stop-color:rgb(83.137255%,0%,0%);stop-opacity:1;"/>
<stop offset="1" style="stop-color:rgb(83.137255%,7.843137%,0%);stop-opacity:1;"/>
</linearGradient>
<linearGradient id="linear1" gradientUnits="userSpaceOnUse" x1="69.087135" y1="60.327255" x2="69.087135" y2="36.595539" gradientTransform="matrix(0.447727,0,0,0.468709,3.783424,9.906929)">
<stop offset="0" style="stop-color:rgb(83.137255%,0%,0%);stop-opacity:1;"/>
<stop offset="1" style="stop-color:rgb(83.137255%,7.843137%,0%);stop-opacity:1;"/>
</linearGradient>
<linearGradient id="linear2" gradientUnits="userSpaceOnUse" x1="69.087135" y1="60.327255" x2="69.087135" y2="36.595539" gradientTransform="matrix(0.447727,0,0,0.468709,9.611466,9.906929)">
<stop offset="0" style="stop-color:rgb(83.137255%,0%,0%);stop-opacity:1;"/>
<stop offset="1" style="stop-color:rgb(83.137255%,7.843137%,0%);stop-opacity:1;"/>
</linearGradient>
</defs>
<g id="surface1">
<path style="fill-rule:nonzero;fill:rgb(83.137255%,0%,0%);fill-opacity:1;stroke-width:19.874;stroke-linecap:butt;stroke-linejoin:miter;stroke:rgb(52.941176%,8.627451%,8.627451%);stroke-opacity:1;stroke-miterlimit:4;" d="M 87.97915 630.796361 L 361.809057 630.796361 C 393.952621 630.796361 420.027701 656.871442 420.027701 689.015005 L 420.027701 962.872623 C 420.027701 995.016186 393.952621 1021.091266 361.809057 1021.091266 L 87.97915 1021.091266 C 55.835586 1021.091266 29.760506 995.016186 29.760506 962.872623 L 29.760506 689.015005 C 29.760506 656.871442 55.835586 630.796361 87.97915 630.796361 Z M 87.97915 630.796361 " transform="matrix(0.140969,0,0,0.140969,0,-84.414999)"/>
<path style="fill-rule:nonzero;fill:rgb(100%,100%,100%);fill-opacity:1;stroke-width:1.5;stroke-linecap:butt;stroke-linejoin:miter;stroke:rgb(83.137255%,0%,0%);stroke-opacity:1;stroke-miterlimit:4;" d="M 34.676534 4.783885 L 76.676865 4.783885 C 79.992222 4.783885 82.679405 7.46745 82.679405 10.776069 L 82.679405 82.782291 C 82.679405 86.09091 79.992222 88.782809 76.676865 88.782809 L 34.676534 88.782809 C 31.361178 88.782809 28.673994 86.09091 28.673994 82.782291 L 28.673994 10.776069 C 28.673994 7.46745 31.361178 4.783885 34.676534 4.783885 Z M 34.676534 4.783885 " transform="matrix(0.447727,0,0,0.46871,1.415781,10.097592)"/>
<path style=" stroke:none;fill-rule:nonzero;fill:url(#linear0);" d="M 24.203125 26.589844 C 22.71875 26.589844 21.519531 27.847656 21.519531 29.402344 C 21.519531 29.5 21.519531 29.59375 21.527344 29.6875 C 21.761719 33.851562 26.890625 37.839844 26.890625 37.839844 C 26.890625 37.839844 32.015625 33.6875 32.253906 29.6875 C 32.261719 29.59375 32.261719 29.5 32.261719 29.402344 C 32.261719 27.847656 31.0625 26.589844 29.578125 26.589844 C 28.09375 26.589844 26.890625 27.847656 26.890625 29.402344 C 26.890625 27.847656 25.6875 26.589844 24.203125 26.589844 Z M 24.203125 26.589844 "/>
<path style="fill-rule:nonzero;fill:rgb(100%,100%,100%);fill-opacity:1;stroke-width:1.5;stroke-linecap:butt;stroke-linejoin:miter;stroke:rgb(83.137255%,0%,0%);stroke-opacity:1;stroke-miterlimit:4;" d="M 34.681058 4.777141 L 76.681389 4.777141 C 79.988021 4.777141 82.675204 7.469041 82.675204 10.77766 L 82.675204 82.783881 C 82.675204 86.0925 79.988021 88.776065 76.681389 88.776065 L 34.681058 88.776065 C 31.365701 88.776065 28.678518 86.0925 28.678518 82.783881 L 28.678518 10.77766 C 28.678518 7.469041 31.365701 4.777141 34.681058 4.777141 Z M 34.681058 4.777141 " transform="matrix(0.447727,0,0,0.46871,6.515319,10.288252)"/>
<path style=" stroke:none;fill-rule:nonzero;fill:url(#linear1);" d="M 29.304688 26.78125 C 27.820312 26.78125 26.617188 28.039062 26.617188 29.59375 C 26.617188 29.691406 26.617188 29.785156 26.628906 29.878906 C 26.859375 34.042969 31.992188 38.027344 31.992188 38.027344 C 31.992188 38.027344 37.113281 33.878906 37.351562 29.878906 C 37.363281 29.785156 37.363281 29.691406 37.363281 29.59375 C 37.363281 28.039062 36.160156 26.78125 34.675781 26.78125 C 33.191406 26.78125 31.992188 28.039062 31.992188 29.59375 C 31.992188 28.039062 30.789062 26.78125 29.304688 26.78125 Z M 29.304688 26.78125 "/>
<path style="fill-rule:nonzero;fill:rgb(100%,100%,100%);fill-opacity:1;stroke-width:1.5;stroke-linecap:butt;stroke-linejoin:miter;stroke:rgb(83.137255%,0%,0%);stroke-opacity:1;stroke-miterlimit:4;" d="M 34.681243 4.777141 L 76.681574 4.777141 C 79.988206 4.777141 82.67539 7.469041 82.67539 10.77766 L 82.67539 82.783881 C 82.67539 86.0925 79.988206 88.776065 76.681574 88.776065 L 34.681243 88.776065 C 31.365887 88.776065 28.678703 86.0925 28.678703 82.783881 L 28.678703 10.77766 C 28.678703 7.469041 31.365887 4.777141 34.681243 4.777141 Z M 34.681243 4.777141 " transform="matrix(0.447727,0,0,0.46871,12.34336,10.288252)"/>
<path style=" stroke:none;fill-rule:nonzero;fill:url(#linear2);" d="M 35.132812 26.78125 C 33.648438 26.78125 32.445312 28.039062 32.445312 29.59375 C 32.445312 29.691406 32.445312 29.785156 32.457031 29.878906 C 32.6875 34.042969 37.820312 38.027344 37.820312 38.027344 C 37.820312 38.027344 42.941406 33.878906 43.179688 29.878906 C 43.1875 29.785156 43.191406 29.691406 43.191406 29.59375 C 43.191406 28.039062 41.988281 26.78125 40.503906 26.78125 C 39.019531 26.78125 37.820312 28.039062 37.820312 29.59375 C 37.820312 28.039062 36.617188 26.78125 35.132812 26.78125 Z M 35.132812 26.78125 "/>
<path style=" stroke:none;fill-rule:nonzero;fill:rgb(83.137255%,0%,0%);fill-opacity:1;" d="M 27.914062 17.625 L 27.914062 17.769531 L 26.75 17.769531 L 26.75 17.625 L 27.152344 17.550781 L 28.355469 14.023438 L 28.855469 14.023438 L 30.109375 17.550781 L 30.554688 17.625 L 30.554688 17.769531 L 29.0625 17.769531 L 29.0625 17.625 L 29.535156 17.550781 L 29.1875 16.476562 L 27.792969 16.476562 L 27.4375 17.550781 L 27.914062 17.625 M 28.480469 14.421875 L 27.875 16.226562 L 29.105469 16.226562 L 28.480469 14.421875 "/>
<path style=" stroke:none;fill-rule:nonzero;fill:rgb(83.137255%,0%,0%);fill-opacity:1;" d="M 27.871094 18.707031 C 27.375 18.707031 26.972656 19.128906 26.972656 19.644531 C 26.972656 19.679688 26.972656 19.710938 26.976562 19.742188 C 27.054688 21.128906 28.765625 22.457031 28.765625 22.457031 C 28.765625 22.457031 30.472656 21.074219 30.554688 19.742188 C 30.554688 19.710938 30.554688 19.679688 30.554688 19.644531 C 30.554688 19.128906 30.15625 18.707031 29.660156 18.707031 C 29.167969 18.707031 28.765625 19.128906 28.765625 19.644531 C 28.765625 19.128906 28.363281 18.707031 27.871094 18.707031 Z M 27.871094 18.707031 "/>
<path style=" stroke:none;fill-rule:nonzero;fill:rgb(83.137255%,0%,0%);fill-opacity:1;" d="M 20.585938 17.390625 L 20.585938 17.128906 L 21.046875 17.128906 L 21.046875 13.972656 L 20.585938 13.972656 L 20.585938 13.707031 L 21.992188 13.707031 L 21.992188 13.972656 L 21.53125 13.972656 L 21.53125 15.367188 L 23.078125 13.972656 L 22.691406 13.972656 L 22.691406 13.707031 L 23.882812 13.707031 L 23.882812 13.972656 L 23.480469 13.972656 L 21.9375 15.359375 L 23.660156 17.128906 L 24.070312 17.128906 L 24.070312 17.390625 L 23.234375 17.390625 L 21.53125 15.640625 L 21.53125 17.128906 L 21.992188 17.128906 L 21.992188 17.390625 L 20.585938 17.390625 "/>
<path style=" stroke:none;fill-rule:nonzero;fill:rgb(83.137255%,0%,0%);fill-opacity:1;" d="M 21.628906 21.140625 C 21.195312 21.140625 20.847656 20.824219 20.847656 20.4375 C 20.847656 20.414062 20.847656 20.390625 20.847656 20.367188 C 20.917969 19.324219 22.414062 18.328125 22.414062 18.328125 C 22.414062 18.328125 23.90625 19.367188 23.976562 20.367188 C 23.980469 20.390625 23.980469 20.414062 23.980469 20.4375 C 23.980469 20.824219 23.628906 21.140625 23.195312 21.140625 C 22.765625 21.140625 22.414062 20.824219 22.414062 20.4375 C 22.414062 20.824219 22.0625 21.140625 21.628906 21.140625 Z M 21.628906 21.140625 "/>
<path style=" stroke:none;fill-rule:nonzero;fill:rgb(83.137255%,0%,0%);fill-opacity:1;" d="M 22.414062 20.203125 C 22.414062 21.609375 21.519531 22.078125 21.519531 22.078125 L 23.308594 22.078125 C 23.308594 22.078125 22.414062 21.609375 22.414062 20.203125 Z M 22.414062 20.203125 "/>
<path style=" stroke:none;fill-rule:nonzero;fill:rgb(83.137255%,0%,0%);fill-opacity:1;" d="M 15.589844 14.394531 L 15.320312 14.394531 L 15.320312 13.738281 C 15.492188 13.644531 15.664062 13.574219 15.835938 13.523438 C 16.011719 13.476562 16.183594 13.449219 16.347656 13.449219 C 16.722656 13.449219 17.015625 13.542969 17.234375 13.730469 C 17.449219 13.914062 17.558594 14.167969 17.558594 14.488281 C 17.558594 14.847656 17.3125 15.277344 16.820312 15.777344 C 16.785156 15.816406 16.753906 15.84375 16.734375 15.867188 L 15.828125 16.796875 L 17.328125 16.796875 L 17.328125 16.339844 L 17.609375 16.339844 L 17.609375 17.199219 L 15.292969 17.199219 L 15.292969 16.929688 L 16.382812 15.816406 C 16.625 15.570312 16.792969 15.34375 16.898438 15.136719 C 17 14.929688 17.050781 14.714844 17.050781 14.488281 C 17.050781 14.238281 16.988281 14.042969 16.859375 13.902344 C 16.734375 13.765625 16.5625 13.695312 16.339844 13.695312 C 16.113281 13.695312 15.933594 13.753906 15.808594 13.871094 C 15.683594 13.988281 15.613281 14.160156 15.589844 14.394531 "/>
<path style=" stroke:none;fill-rule:nonzero;fill:rgb(83.137255%,0%,0%);fill-opacity:1;" d="M 18.398438 20.011719 C 18.398438 20.171875 17.640625 20.867188 17.53125 20.980469 C 17.425781 21.09375 16.761719 21.886719 16.609375 21.886719 C 16.457031 21.886719 15.789062 21.09375 15.683594 20.980469 C 15.574219 20.867188 14.816406 20.171875 14.816406 20.011719 C 14.816406 19.851562 15.574219 19.15625 15.683594 19.042969 C 15.789062 18.929688 16.457031 18.136719 16.609375 18.136719 C 16.761719 18.136719 17.425781 18.929688 17.53125 19.042969 C 17.640625 19.15625 18.398438 19.851562 18.398438 20.011719 Z M 18.398438 20.011719 "/>
<path style=" stroke:none;fill-rule:nonzero;fill:rgb(76.862745%,0%,0%);fill-opacity:1;" d="M 44.925781 46.804688 L 44.925781 46.65625 L 43.765625 46.65625 L 43.765625 46.804688 L 44.164062 46.878906 L 45.367188 50.40625 L 45.871094 50.40625 L 47.121094 46.878906 L 47.570312 46.804688 L 47.570312 46.65625 L 46.074219 46.65625 L 46.074219 46.804688 L 46.550781 46.878906 L 46.199219 47.953125 L 44.808594 47.953125 L 44.453125 46.878906 L 44.925781 46.804688 M 45.492188 50.007812 L 44.886719 48.203125 L 46.117188 48.203125 L 45.492188 50.007812 "/>
<path style=" stroke:none;fill-rule:nonzero;fill:rgb(76.862745%,0%,0%);fill-opacity:1;" d="M 44.882812 45.71875 C 44.390625 45.71875 43.988281 45.300781 43.988281 44.78125 C 43.988281 44.75 43.988281 44.71875 43.992188 44.6875 C 44.070312 43.296875 45.777344 41.96875 45.777344 41.96875 C 45.777344 41.96875 47.488281 43.351562 47.566406 44.6875 C 47.570312 44.71875 47.570312 44.75 47.570312 44.78125 C 47.570312 45.300781 47.167969 45.71875 46.675781 45.71875 C 46.179688 45.71875 45.777344 45.300781 45.777344 44.78125 C 45.777344 45.300781 45.378906 45.71875 44.882812 45.71875 Z M 44.882812 45.71875 "/>
</g>
</svg>
