
<svg xmlns="http://www.w3.org/2000/svg" xmlns:xlink="http://www.w3.org/1999/xlink" width="64px" height="64px" viewBox="0 0 64 64" version="1.1">
<g id="surface1">
<path style="fill-rule:nonzero;fill:rgb(21.176471%,76.862745%,30.196078%);fill-opacity:1;stroke-width:28.097435;stroke-linecap:butt;stroke-linejoin:miter;stroke:rgb(1.176471%,22.745098%,55.294118%);stroke-opacity:1;stroke-miterlimit:4;" d="M 78.21972 28.537617 L 426.08521 28.537617 C 457.114436 28.537617 482.2885 53.711681 482.2885 84.740907 L 482.2885 432.606397 C 482.2885 463.635623 457.114436 488.809687 426.08521 488.809687 L 78.21972 488.809687 C 47.190494 488.809687 22.01643 463.635623 22.01643 432.606397 L 22.01643 84.740907 C 22.01643 53.711681 47.190494 28.537617 78.21972 28.537617 Z M 78.21972 28.537617 " transform="matrix(0.124756,0,0,0.124756,0.542373,-0.271187)"/>
<path style=" stroke:none;fill-rule:nonzero;fill:rgb(1.176471%,22.745098%,55.294118%);fill-opacity:1;" d="M 4.417969 3.683594 L 4.417969 59.589844 L 12.410156 59.589844 L 12.410156 3.683594 Z M 4.417969 3.683594 "/>
<path style=" stroke:none;fill-rule:nonzero;fill:rgb(90.588235%,90.588235%,90.588235%);fill-opacity:1;" d="M 53.152344 8.949219 L 55.59375 8.949219 L 55.59375 18.710938 L 53.152344 18.710938 Z M 53.152344 8.949219 "/>
<path style=" stroke:none;fill-rule:nonzero;fill:rgb(90.588235%,90.588235%,90.588235%);fill-opacity:1;" d="M 53.152344 20.925781 L 55.59375 20.925781 L 55.59375 30.6875 L 53.152344 30.6875 Z M 53.152344 20.925781 "/>
<path style=" stroke:none;fill-rule:nonzero;fill:rgb(90.588235%,90.588235%,90.588235%);fill-opacity:1;" d="M 53.152344 33.402344 L 55.59375 33.402344 L 55.59375 43.164062 L 53.152344 43.164062 Z M 53.152344 33.402344 "/>
<path style=" stroke:none;fill-rule:nonzero;fill:rgb(90.588235%,90.588235%,90.588235%);fill-opacity:1;" d="M 53.152344 45.628906 L 55.59375 45.628906 L 55.59375 55.390625 L 53.152344 55.390625 Z M 53.152344 45.628906 "/>
</g>
</svg>
