
<svg xmlns="http://www.w3.org/2000/svg" xmlns:xlink="http://www.w3.org/1999/xlink" width="64px" height="64px" viewBox="0 0 64 64" version="1.1">
<g id="surface1">
<path style="fill-rule:nonzero;fill:rgb(70.196078%,70.196078%,70.196078%);fill-opacity:1;stroke-width:27.889618;stroke-linecap:butt;stroke-linejoin:miter;stroke:rgb(20%,20%,20%);stroke-opacity:1;stroke-miterlimit:4;" d="M 83.34375 27.5625 L 428.65625 27.5625 C 459.46875 27.5625 484.4375 52.53125 484.4375 83.34375 L 484.4375 428.65625 C 484.4375 459.46875 459.46875 484.4375 428.65625 484.4375 L 83.34375 484.4375 C 52.53125 484.4375 27.5625 459.46875 27.5625 428.65625 L 27.5625 83.34375 C 27.5625 52.53125 52.53125 27.5625 83.34375 27.5625 Z M 83.34375 27.5625 " transform="matrix(0.125,0,0,0.125,0,0)"/>
<path style=" stroke:none;fill-rule:nonzero;fill:rgb(64.705882%,64.705882%,64.705882%);fill-opacity:1;" d="M 20.714844 53.640625 C 20.410156 53.3125 20.191406 52.710938 20.191406 52.207031 C 20.195312 51.945312 20.460938 51.054688 20.960938 49.660156 C 21.378906 48.484375 21.730469 47.414062 21.738281 47.285156 C 21.746094 47.113281 21.542969 46.859375 20.980469 46.351562 C 20.558594 45.96875 19.945312 45.339844 19.617188 44.953125 C 19.289062 44.566406 18.929688 44.210938 18.820312 44.164062 C 18.695312 44.113281 17.777344 44.378906 16.429688 44.855469 C 15.226562 45.285156 14.070312 45.648438 13.863281 45.660156 C 13.433594 45.695312 12.628906 45.386719 12.285156 45.058594 C 12.007812 44.800781 10.003906 39.949219 9.960938 39.4375 C 9.917969 38.929688 10.269531 38.167969 10.714844 37.800781 C 10.914062 37.636719 12.011719 37.078125 13.144531 36.566406 C 14.371094 36.011719 15.246094 35.550781 15.292969 35.4375 C 15.339844 35.332031 15.351562 34.828125 15.316406 34.324219 C 15.285156 33.816406 15.289062 32.941406 15.324219 32.375 C 15.363281 31.808594 15.335938 31.277344 15.269531 31.195312 C 15.203125 31.117188 14.226562 30.597656 13.105469 30.046875 C 11.800781 29.40625 10.9375 28.929688 10.71875 28.726562 C 10.296875 28.339844 9.980469 27.488281 10.085938 27.015625 C 10.128906 26.824219 10.671875 25.507812 11.292969 24.089844 L 12.421875 21.507812 L 12.878906 21.261719 C 13.683594 20.824219 13.960938 20.863281 16.542969 21.777344 C 18.003906 22.292969 18.90625 22.566406 19.007812 22.523438 C 19.097656 22.488281 19.519531 22.089844 19.945312 21.636719 C 20.371094 21.1875 20.992188 20.585938 21.324219 20.304688 C 21.65625 20.019531 21.960938 19.707031 22.003906 19.613281 C 22.042969 19.515625 21.757812 18.53125 21.371094 17.421875 C 20.980469 16.316406 20.617188 15.234375 20.5625 15.019531 C 20.410156 14.414062 20.535156 13.800781 20.90625 13.300781 C 21.1875 12.925781 21.472656 12.78125 23.734375 11.847656 C 25.121094 11.277344 26.449219 10.792969 26.691406 10.777344 C 27.253906 10.734375 27.984375 11.042969 28.34375 11.46875 C 28.496094 11.648438 29.039062 12.71875 29.550781 13.84375 C 30.066406 14.972656 30.527344 15.949219 30.582031 16.019531 C 30.636719 16.09375 31.15625 16.125 31.816406 16.097656 C 32.445312 16.070312 33.363281 16.082031 33.859375 16.117188 C 34.527344 16.167969 34.808594 16.140625 34.964844 16 C 35.078125 15.898438 35.625 14.898438 36.175781 13.773438 C 37.238281 11.617188 37.464844 11.300781 38.121094 11.015625 C 38.855469 10.703125 39.164062 10.78125 41.984375 12.015625 L 44.558594 13.140625 L 44.847656 13.578125 C 45.347656 14.332031 45.308594 14.65625 44.429688 17.1875 C 44.003906 18.410156 43.640625 19.515625 43.617188 19.640625 C 43.585938 19.816406 43.75 20.023438 44.339844 20.558594 C 44.757812 20.9375 45.40625 21.605469 45.773438 22.042969 C 46.144531 22.476562 46.488281 22.851562 46.53125 22.871094 C 46.578125 22.890625 47.613281 22.550781 48.832031 22.117188 C 50.050781 21.683594 51.25 21.3125 51.492188 21.292969 C 52.0625 21.246094 52.761719 21.546875 53.167969 22.011719 C 53.363281 22.230469 53.871094 23.335938 54.464844 24.824219 C 55.484375 27.382812 55.539062 27.648438 55.195312 28.464844 C 54.949219 29.042969 54.53125 29.3125 52.285156 30.34375 C 51.066406 30.90625 50.046875 31.402344 50.027344 31.449219 C 50.007812 31.5 50.019531 32.082031 50.046875 32.75 C 50.078125 33.417969 50.066406 34.328125 50.023438 34.777344 C 49.964844 35.332031 49.988281 35.640625 50.097656 35.753906 C 50.1875 35.84375 51.21875 36.398438 52.394531 36.984375 C 54.726562 38.148438 55.070312 38.414062 55.234375 39.148438 C 55.386719 39.84375 55.261719 40.261719 54.121094 42.859375 L 53.03125 45.339844 L 52.5625 45.632812 C 51.722656 46.15625 51.574219 46.136719 48.84375 45.183594 C 47.507812 44.71875 46.386719 44.351562 46.34375 44.367188 C 46.304688 44.382812 45.96875 44.730469 45.597656 45.136719 C 45.222656 45.546875 44.558594 46.183594 44.121094 46.554688 C 43.683594 46.925781 43.316406 47.296875 43.300781 47.375 C 43.285156 47.453125 43.617188 48.476562 44.035156 49.652344 C 44.453125 50.828125 44.808594 52.023438 44.828125 52.3125 C 44.871094 52.925781 44.667969 53.46875 44.242188 53.882812 C 43.867188 54.25 39.347656 56.121094 38.722656 56.167969 C 38.199219 56.210938 37.40625 55.902344 37.039062 55.515625 C 36.898438 55.367188 36.34375 54.28125 35.804688 53.097656 C 35.261719 51.917969 34.75 50.921875 34.664062 50.882812 C 34.578125 50.847656 33.996094 50.835938 33.371094 50.859375 C 32.746094 50.878906 31.839844 50.867188 31.359375 50.828125 C 30.691406 50.769531 30.449219 50.796875 30.347656 50.9375 C 30.273438 51.035156 29.738281 52.066406 29.152344 53.222656 C 27.867188 55.769531 27.648438 56.011719 26.539062 56.085938 C 26.21875 56.109375 25.769531 55.945312 23.554688 55.003906 C 21.597656 54.167969 20.894531 53.832031 20.714844 53.640625 Z M 29.488281 43.636719 C 31.945312 44.386719 34.304688 44.28125 36.6875 43.316406 C 38.503906 42.582031 39.933594 41.496094 41.195312 39.902344 C 41.984375 38.902344 43.042969 36.402344 43.214844 35.125 C 43.742188 31.246094 42.339844 27.632812 39.335938 25.136719 C 38.640625 24.558594 38.429688 24.441406 36.875 23.773438 C 35.386719 23.136719 35.0625 23.03125 34.253906 22.921875 C 30.214844 22.375 26.214844 24.109375 23.925781 27.398438 C 21.875 30.355469 21.464844 34.085938 22.820312 37.46875 C 23.535156 39.238281 24.753906 40.835938 26.308594 42.023438 C 26.75 42.363281 27.414062 42.757812 28.382812 43.269531 C 28.460938 43.308594 28.957031 43.472656 29.488281 43.636719 Z M 28.804688 38.535156 C 26.609375 36.8125 25.769531 33.964844 26.6875 31.371094 C 27.332031 29.554688 28.535156 28.300781 30.320312 27.582031 C 33.574219 26.273438 37.238281 27.800781 38.542969 31.011719 C 39.613281 33.652344 38.945312 36.480469 36.804688 38.308594 C 34.988281 39.863281 32.679688 40.257812 30.421875 39.402344 C 29.652344 39.113281 29.292969 38.921875 28.804688 38.535156 Z M 32.621094 37.257812 C 33.414062 37.292969 34.808594 36.882812 35.449219 36.328125 C 35.898438 35.9375 36 35.785156 36.367188 34.914062 C 36.757812 33.992188 36.519531 33.90625 36.449219 33.1875 C 36.3125 31.738281 35.617188 30.742188 34.304688 30.105469 C 33.253906 29.59375 32.515625 29.550781 31.4375 29.929688 C 30.070312 30.414062 29.148438 31.496094 28.941406 32.863281 C 28.761719 34.046875 29.035156 35.019531 29.800781 35.925781 C 30.515625 36.773438 31.4375 37.210938 32.621094 37.257812 Z M 32.621094 37.257812 "/>
<path style=" stroke:none;fill-rule:nonzero;fill:rgb(100%,100%,100%);fill-opacity:1;" d="M 20.714844 52.632812 C 20.410156 52.304688 20.191406 51.703125 20.191406 51.195312 C 20.195312 50.9375 20.460938 50.046875 20.960938 48.652344 C 21.378906 47.476562 21.730469 46.40625 21.738281 46.277344 C 21.746094 46.105469 21.542969 45.851562 20.980469 45.34375 C 20.558594 44.960938 19.945312 44.332031 19.617188 43.945312 C 19.289062 43.558594 18.929688 43.203125 18.820312 43.15625 C 18.695312 43.101562 17.777344 43.367188 16.429688 43.847656 C 15.226562 44.273438 14.070312 44.636719 13.863281 44.652344 C 13.433594 44.683594 12.628906 44.378906 12.285156 44.050781 C 12.007812 43.792969 10.003906 38.9375 9.960938 38.429688 C 9.917969 37.921875 10.269531 37.15625 10.714844 36.792969 C 10.914062 36.625 12.011719 36.070312 13.144531 35.554688 C 14.371094 35.003906 15.246094 34.542969 15.292969 34.429688 C 15.339844 34.320312 15.351562 33.820312 15.316406 33.3125 C 15.285156 32.808594 15.289062 31.929688 15.324219 31.367188 C 15.363281 30.796875 15.335938 30.269531 15.269531 30.1875 C 15.203125 30.105469 14.226562 29.589844 13.105469 29.039062 C 11.800781 28.398438 10.9375 27.921875 10.71875 27.71875 C 10.296875 27.328125 9.980469 26.480469 10.085938 26.007812 C 10.128906 25.816406 10.671875 24.5 11.292969 23.082031 L 12.421875 20.5 L 12.878906 20.253906 C 13.683594 19.816406 13.960938 19.855469 16.542969 20.765625 C 18.003906 21.28125 18.90625 21.558594 19.007812 21.515625 C 19.097656 21.476562 19.519531 21.078125 19.945312 20.628906 C 20.371094 20.179688 20.992188 19.578125 21.324219 19.292969 C 21.65625 19.011719 21.960938 18.699219 22.003906 18.605469 C 22.042969 18.507812 21.757812 17.523438 21.371094 16.414062 C 20.980469 15.308594 20.617188 14.226562 20.5625 14.011719 C 20.410156 13.40625 20.535156 12.789062 20.90625 12.292969 C 21.1875 11.917969 21.472656 11.769531 23.734375 10.839844 C 25.121094 10.265625 26.449219 9.785156 26.691406 9.765625 C 27.253906 9.726562 27.984375 10.03125 28.34375 10.460938 C 28.496094 10.640625 29.039062 11.707031 29.550781 12.835938 C 30.066406 13.964844 30.527344 14.941406 30.582031 15.011719 C 30.636719 15.082031 31.15625 15.117188 31.816406 15.089844 C 32.445312 15.0625 33.363281 15.070312 33.859375 15.109375 C 34.527344 15.160156 34.808594 15.132812 34.964844 14.992188 C 35.078125 14.890625 35.625 13.886719 36.175781 12.765625 C 37.238281 10.605469 37.464844 10.289062 38.121094 10.007812 C 38.855469 9.691406 39.164062 9.773438 41.984375 11.007812 L 44.558594 12.132812 L 44.847656 12.570312 C 45.347656 13.324219 45.308594 13.644531 44.429688 16.175781 C 44.003906 17.402344 43.640625 18.503906 43.617188 18.628906 C 43.585938 18.804688 43.75 19.011719 44.339844 19.546875 C 44.757812 19.929688 45.40625 20.597656 45.773438 21.03125 C 46.144531 21.46875 46.488281 21.839844 46.53125 21.859375 C 46.578125 21.878906 47.613281 21.542969 48.832031 21.109375 C 50.050781 20.675781 51.25 20.304688 51.492188 20.285156 C 52.0625 20.238281 52.761719 20.535156 53.167969 21 C 53.363281 21.222656 53.871094 22.328125 54.464844 23.816406 C 55.484375 26.375 55.539062 26.640625 55.195312 27.457031 C 54.949219 28.035156 54.53125 28.304688 52.285156 29.335938 C 51.066406 29.898438 50.046875 30.394531 50.027344 30.441406 C 50.007812 30.488281 50.019531 31.074219 50.046875 31.742188 C 50.078125 32.410156 50.066406 33.320312 50.023438 33.765625 C 49.964844 34.320312 49.988281 34.632812 50.097656 34.742188 C 50.1875 34.835938 51.21875 35.390625 52.394531 35.976562 C 54.726562 37.140625 55.070312 37.402344 55.234375 38.140625 C 55.386719 38.835938 55.261719 39.253906 54.121094 41.847656 L 53.03125 44.332031 L 52.5625 44.625 C 51.722656 45.148438 51.574219 45.128906 48.84375 44.175781 C 47.507812 43.710938 46.386719 43.339844 46.34375 43.359375 C 46.304688 43.375 45.96875 43.71875 45.597656 44.128906 C 45.222656 44.535156 44.558594 45.175781 44.121094 45.546875 C 43.683594 45.917969 43.316406 46.285156 43.300781 46.367188 C 43.285156 46.445312 43.617188 47.46875 44.035156 48.644531 C 44.453125 49.816406 44.808594 51.015625 44.828125 51.300781 C 44.871094 51.914062 44.667969 52.460938 44.242188 52.875 C 43.867188 53.242188 39.347656 55.113281 38.722656 55.160156 C 38.199219 55.199219 37.40625 54.894531 37.039062 54.507812 C 36.898438 54.359375 36.34375 53.273438 35.804688 52.089844 C 35.261719 50.90625 34.75 49.910156 34.664062 49.875 C 34.578125 49.835938 33.996094 49.828125 33.371094 49.847656 C 32.746094 49.871094 31.839844 49.859375 31.359375 49.816406 C 30.691406 49.761719 30.449219 49.789062 30.347656 49.925781 C 30.273438 50.027344 29.738281 51.058594 29.152344 52.214844 C 27.867188 54.761719 27.648438 55.003906 26.539062 55.078125 C 26.21875 55.097656 25.769531 54.9375 23.554688 53.996094 C 21.597656 53.160156 20.894531 52.824219 20.714844 52.632812 Z M 29.488281 42.628906 C 31.945312 43.378906 34.304688 43.273438 36.6875 42.308594 C 38.503906 41.570312 39.933594 40.488281 41.195312 38.894531 C 41.984375 37.894531 43.042969 35.394531 43.214844 34.117188 C 43.742188 30.238281 42.339844 26.625 39.335938 24.128906 C 38.640625 23.546875 38.429688 23.433594 36.875 22.765625 C 35.386719 22.125 35.0625 22.023438 34.253906 21.914062 C 30.214844 21.367188 26.214844 23.101562 23.925781 26.390625 C 21.875 29.34375 21.464844 33.078125 22.820312 36.460938 C 23.535156 38.230469 24.753906 39.828125 26.308594 41.015625 C 26.75 41.351562 27.414062 41.75 28.382812 42.257812 C 28.460938 42.300781 28.957031 42.464844 29.488281 42.628906 Z M 28.804688 37.527344 C 26.609375 35.804688 25.769531 32.957031 26.6875 30.363281 C 27.332031 28.546875 28.535156 27.292969 30.320312 26.574219 C 33.574219 25.265625 37.238281 26.792969 38.542969 30 C 39.613281 32.644531 38.945312 35.472656 36.804688 37.296875 C 34.988281 38.855469 32.679688 39.25 30.421875 38.394531 C 29.652344 38.105469 29.292969 37.910156 28.804688 37.527344 Z M 32.621094 36.25 C 33.414062 36.285156 34.808594 35.871094 35.449219 35.316406 C 35.898438 34.925781 36 34.773438 36.367188 33.90625 C 36.757812 32.984375 36.519531 32.894531 36.449219 32.179688 C 36.3125 30.730469 35.617188 29.730469 34.304688 29.097656 C 33.253906 28.585938 32.515625 28.542969 31.4375 28.921875 C 30.070312 29.402344 29.148438 30.488281 28.941406 31.855469 C 28.761719 33.039062 29.035156 34.011719 29.800781 34.917969 C 30.515625 35.765625 31.4375 36.199219 32.621094 36.25 Z M 32.621094 36.25 "/>
<path style=" stroke:none;fill-rule:nonzero;fill:rgb(0%,0%,0%);fill-opacity:0.301961;" d="M 32.605469 6.984375 C 31.3125 6.992188 29.820312 7.265625 28.222656 8.046875 C 24.089844 10.066406 24.617188 14.4375 25.304688 23.171875 C 25.480469 25.523438 23.074219 27.089844 21.003906 30.175781 C 18.933594 33.242188 18.695312 35.753906 17.136719 38.292969 C 15.617188 40.726562 15.832031 40.582031 16.382812 42.648438 C 16.308594 42.71875 16.230469 42.792969 16.152344 42.867188 C 15.597656 43.394531 14.929688 44.734375 13.957031 45.386719 L 13.953125 45.386719 C 12.992188 46.039062 10.535156 45.984375 9.910156 46.75 C 9.300781 47.519531 9.9375 48.628906 9.917969 50.691406 C 9.917969 51.570312 9.761719 52.234375 9.65625 52.769531 C 9.496094 53.449219 9.402344 53.925781 9.707031 54.410156 C 10.261719 55.265625 11.132812 55.488281 16.183594 56.472656 C 18.878906 57 21.433594 58.359375 23.136719 58.5 C 24.847656 58.613281 25.21875 58.074219 26.257812 57.210938 C 26.386719 57.101562 26.507812 57.007812 26.617188 56.925781 C 26.722656 56.929688 26.820312 56.914062 26.910156 56.878906 C 29.175781 55.917969 28.398438 56.21875 32.011719 56.015625 C 35.5625 55.828125 36.601562 55.671875 39.890625 56.472656 C 40.089844 57.09375 40.390625 57.535156 40.675781 57.769531 C 41.160156 58.179688 41.894531 58.5 43.488281 58.5 C 45.089844 58.5 46.085938 58.164062 47.144531 57.167969 C 47.824219 56.53125 48.542969 55.933594 50.625 54.59375 C 52.28125 53.535156 54.773438 52.371094 55.269531 51.90625 C 55.515625 51.679688 55.957031 51.457031 55.992188 50.613281 C 56.019531 49.882812 55.390625 49.640625 54.953125 49.386719 C 54.335938 49.050781 52.738281 47.84375 51.9375 46.652344 C 51.453125 45.933594 52.140625 44.742188 51.46875 43.835938 L 51.46875 43.847656 C 51.316406 43.632812 51.113281 43.539062 50.914062 43.503906 C 51.238281 42.785156 51.492188 42.132812 51.632812 41.597656 L 51.625 41.597656 C 52.4375 38.488281 49.882812 33.101562 47.421875 29.84375 C 44.972656 26.582031 42.964844 24.554688 41.976562 20.429688 C 40.972656 16.296875 42.226562 17.488281 41.34375 13.882812 C 40.914062 12.085938 40.144531 10.664062 39.300781 9.722656 C 38.453125 8.761719 37.308594 8.207031 36.742188 7.925781 C 35.972656 7.539062 34.5 6.976562 32.605469 6.984375 Z M 32.605469 6.984375 "/>
<path style=" stroke:none;fill-rule:nonzero;fill:rgb(0%,0%,0%);fill-opacity:1;" d="M 50.9375 40.871094 C 50.21875 43.628906 46.613281 49.382812 44.6875 51.921875 C 42.769531 54.464844 43 56.753906 39.453125 55.859375 C 35.917969 54.976562 34.929688 55.136719 31.261719 55.332031 C 27.636719 55.535156 28.414062 55.234375 26.140625 56.199219 C 23.878906 57.152344 16.269531 44.523438 15.652344 42.164062 C 15.050781 39.8125 14.757812 40.09375 16.339844 37.558594 C 17.902344 35.015625 18.144531 32.496094 20.222656 29.417969 C 22.296875 26.324219 24.710938 24.75 24.535156 22.394531 C 23.84375 13.632812 23.3125 9.25 27.457031 7.226562 C 31.402344 5.300781 34.707031 6.449219 36.003906 7.101562 C 36.570312 7.386719 37.71875 7.941406 38.570312 8.90625 C 39.417969 9.851562 40.1875 11.273438 40.617188 13.078125 C 41.503906 16.695312 40.246094 15.5 41.253906 19.644531 C 42.246094 23.78125 44.257812 25.8125 46.714844 29.082031 C 49.183594 32.351562 51.746094 37.753906 50.929688 40.875 M 50.929688 40.875 "/>
<path style=" stroke:none;fill-rule:nonzero;fill:rgb(97.647059%,97.647059%,97.647059%);fill-opacity:1;" d="M 27.527344 19.421875 C 28.175781 19.183594 28.066406 19.144531 28.503906 18.261719 C 28.847656 17.582031 29.148438 17.289062 29.136719 16.253906 C 29.136719 15.25 28.804688 14.902344 28.296875 14.238281 C 27.8125 13.613281 27.042969 13.574219 26.550781 13.65625 C 26.265625 13.699219 25.90625 14.035156 25.65625 14.53125 C 25.488281 14.867188 25.363281 15.289062 25.347656 15.730469 C 25.320312 16.933594 25.417969 17.382812 25.714844 18.199219 C 26.0625 19.152344 26.898438 19.648438 27.527344 19.417969 M 27.527344 19.417969 "/>
<path style=" stroke:none;fill-rule:nonzero;fill:rgb(0%,0%,0%);fill-opacity:1;" d="M 26.929688 15.28125 C 27.25 15.28125 27.652344 15.476562 27.859375 15.75 C 28.070312 16.023438 28.210938 16.414062 28.210938 16.855469 C 28.210938 17.5 28.140625 18.214844 27.722656 18.4375 C 27.589844 18.488281 27.308594 18.570312 27.148438 18.570312 C 26.785156 18.570312 26.75 18.339844 26.40625 18.003906 C 26.28125 17.886719 25.929688 17.296875 25.929688 16.8125 C 25.929688 16.511719 25.859375 16.078125 26.140625 15.6875 C 26.335938 15.40625 26.582031 15.273438 26.929688 15.273438 M 26.929688 15.28125 "/>
<path style=" stroke:none;fill-rule:nonzero;fill:rgb(97.647059%,97.647059%,97.647059%);fill-opacity:1;" d="M 34.21875 19.5 C 35.847656 19.34375 36.410156 18.75 36.703125 17.726562 C 36.960938 16.816406 36.96875 15.808594 36.253906 14.613281 C 35.574219 13.484375 35.183594 13.308594 34.203125 13.226562 C 32.691406 13.113281 31.976562 14.101562 31.640625 14.808594 C 31.289062 15.578125 31.359375 15.472656 31.382812 16.445312 C 31.410156 17.46875 32.019531 17.753906 32.390625 18.398438 C 32.773438 19.015625 34.035156 19.519531 34.210938 19.511719 M 34.222656 19.5 "/>
<path style=" stroke:none;fill-rule:nonzero;fill:rgb(0%,0%,0%);fill-opacity:1;" d="M 34.089844 15.238281 C 34.902344 15.238281 35.367188 15.917969 35.53125 16.785156 C 35.589844 17.183594 35.503906 17.632812 35.246094 17.953125 C 34.957031 18.324219 34.433594 18.535156 34.019531 18.535156 C 33.609375 18.535156 33.171875 18.597656 32.921875 18.296875 C 32.683594 17.980469 32.640625 17.292969 32.640625 16.785156 C 32.640625 16.230469 32.816406 15.832031 33.109375 15.523438 C 33.339844 15.289062 33.746094 15.238281 34.089844 15.238281 M 34.089844 15.238281 "/>
<path style=" stroke:none;fill-rule:nonzero;fill:rgb(97.647059%,97.647059%,97.647059%);fill-opacity:1;" d="M 29.261719 24.210938 C 27.859375 24.265625 25.636719 20.570312 25.578125 22.109375 C 25.539062 23.40625 25.613281 23.382812 25.613281 24.636719 C 25.613281 25.476562 25.207031 25.546875 24.324219 26.808594 C 23.863281 27.472656 23.511719 28.195312 23.238281 28.933594 C 23.0625 29.363281 22.902344 29.816406 22.769531 30.265625 C 22.714844 30.488281 22.621094 30.726562 22.554688 30.949219 C 22.125 32.476562 20.539062 34.367188 20.179688 35.898438 C 19.808594 37.417969 19.375 38.390625 19.4375 40.421875 C 19.488281 42.464844 19.507812 41.875 20.160156 42.386719 C 20.8125 42.890625 21.476562 43.367188 22.5 44.214844 C 23.585938 45.117188 25.824219 46.636719 26.125 47.125 C 26.445312 47.609375 26.445312 48.695312 26.25 49.050781 C 26.054688 49.394531 24.367188 49.589844 24.367188 49.589844 C 24.367188 49.589844 25.84375 51.523438 26.144531 51.789062 C 26.425781 52.054688 27.636719 53.339844 32.550781 52.472656 C 35.328125 51.96875 37.464844 50.519531 39.019531 49.125 C 41.027344 47.277344 40.011719 46.753906 40.269531 45.835938 C 40.648438 44.5 41.875 44.003906 42.148438 42.503906 C 42.1875 42.289062 42.257812 42.132812 42.46875 41.796875 C 42.777344 41.371094 42.707031 40.46875 42.707031 39.671875 C 42.707031 37.550781 42.453125 35.421875 41.929688 33.839844 C 41.453125 32.355469 40.699219 31.320312 40.054688 29.984375 C 38.765625 27.324219 38.828125 26.125 37.667969 24.425781 C 36.359375 22.464844 37.003906 21.15625 35.257812 21.238281 C 33.082031 21.351562 31.324219 24.152344 29.265625 24.234375 M 29.265625 24.234375 "/>
<path style=" stroke:none;fill-rule:nonzero;fill:rgb(97.647059%,87.058824%,41.176471%);fill-opacity:1;" d="M 30.003906 17.242188 C 29.449219 17.304688 29.101562 17.253906 28.5625 17.507812 C 27.988281 17.78125 27.140625 18.425781 26.679688 18.808594 C 25.796875 19.535156 25.167969 19.832031 25.207031 20.726562 C 25.230469 21.574219 25.964844 22.238281 26.769531 22.855469 C 27.5625 23.472656 28.242188 24.246094 28.730469 24.402344 C 29.234375 24.582031 30.109375 24.546875 30.738281 24.546875 C 32.132812 24.546875 33.945312 22.894531 34.960938 22.601562 C 36.226562 22.222656 36.667969 21.585938 36.765625 20.152344 C 36.855469 18.957031 34.988281 18.746094 33.582031 18.3125 C 33.160156 18.191406 32.832031 18.015625 32.375 17.695312 C 31.878906 17.355469 30.792969 17.175781 30.003906 17.261719 Z M 17.289062 41.191406 C 16.40625 41.171875 15.910156 41.617188 15.355469 42.144531 C 14.796875 42.675781 14.125 44.019531 13.152344 44.671875 C 12.1875 45.328125 9.71875 45.273438 9.09375 46.042969 C 8.480469 46.808594 9.121094 47.925781 9.101562 49.992188 C 9.101562 50.875 8.945312 51.539062 8.839844 52.078125 C 8.679688 52.757812 8.582031 53.238281 8.890625 53.722656 C 9.445312 54.582031 10.320312 54.804688 15.386719 55.792969 C 18.089844 56.320312 20.652344 57.683594 22.359375 57.824219 C 24.074219 57.9375 24.445312 57.398438 25.488281 56.53125 C 26.523438 55.65625 26.859375 55.921875 26.824219 54.015625 C 26.789062 52.105469 25.488281 51.539062 24.015625 49.339844 C 22.539062 47.140625 22.296875 46.734375 21.316406 45.273438 C 20.335938 43.832031 18.394531 41.214844 17.289062 41.191406 Z M 41.609375 42.214844 C 40.917969 42.214844 40.789062 42.234375 40.203125 42.578125 C 39.886719 42.765625 39.859375 43.964844 39.859375 45.386719 C 39.859375 46.511719 39.867188 47.773438 39.761719 48.800781 C 39.515625 51.1875 38.996094 52.574219 38.949219 54.113281 C 38.894531 55.648438 39.453125 56.683594 39.949219 57.089844 C 40.433594 57.503906 41.167969 57.824219 42.769531 57.824219 C 44.378906 57.824219 45.375 57.484375 46.433594 56.488281 C 47.117188 55.851562 47.839844 55.25 49.925781 53.90625 C 51.589844 52.847656 54.089844 51.679688 54.585938 51.210938 C 54.832031 50.984375 55.273438 50.761719 55.308594 49.914062 C 55.335938 49.179688 54.707031 48.9375 54.265625 48.683594 C 53.648438 48.347656 52.046875 47.136719 51.242188 45.945312 C 50.757812 45.21875 51.445312 44.023438 50.773438 43.117188 L 50.773438 43.128906 C 50.375 42.582031 49.660156 42.816406 49.5625 42.816406 C 49.449219 42.816406 48.828125 43.824219 48.582031 44.113281 C 48.316406 44.425781 47.621094 44.945312 47.125 45.238281 C 46.632812 45.539062 46.238281 45.699219 45.179688 45.628906 C 44.125 45.546875 43.828125 45.210938 43.492188 44.945312 C 43.164062 44.671875 42.828125 44.460938 42.890625 43.796875 C 42.960938 43.132812 43.050781 42.664062 42.835938 42.46875 C 42.609375 42.25 42.300781 42.214844 41.609375 42.214844 Z M 41.609375 42.214844 "/>
<path style=" stroke:none;fill-rule:nonzero;fill:rgb(100%,100%,100%);fill-opacity:0.2;" d="M 31.855469 6.160156 C 30.554688 6.167969 29.0625 6.445312 27.460938 7.226562 C 24.628906 8.609375 23.980469 11.09375 24.070312 15.316406 C 24.152344 11.898438 24.945312 9.800781 27.460938 8.574219 C 29.0625 7.789062 30.554688 7.515625 31.855469 7.507812 C 33.753906 7.496094 35.234375 8.058594 36.003906 8.449219 C 36.570312 8.730469 37.71875 9.289062 38.570312 10.25 C 39.417969 11.195312 40.1875 12.621094 40.617188 14.425781 C 40.777344 15.078125 40.867188 15.570312 40.914062 15.96875 C 40.980469 15.363281 41.019531 14.710938 40.617188 13.078125 C 40.1875 11.273438 39.417969 9.851562 38.570312 8.90625 C 37.71875 7.941406 36.570312 7.386719 36.003906 7.101562 C 35.234375 6.714844 33.753906 6.152344 31.855469 6.160156 Z M 40.878906 17.621094 C 40.808594 18.265625 40.777344 19.03125 41.253906 20.988281 C 42.246094 25.125 44.257812 27.160156 46.714844 30.429688 C 48.710938 33.070312 50.765625 37.105469 51.050781 40.203125 C 51.394531 37.023438 49.015625 32.128906 46.714844 29.082031 C 44.257812 25.8125 42.246094 23.78125 41.253906 19.644531 C 41.039062 18.753906 40.929688 18.117188 40.878906 17.621094 Z M 24.492188 23.199219 C 24.144531 25.144531 22.054688 26.691406 20.222656 29.417969 C 18.144531 32.496094 17.902344 35.015625 16.339844 37.558594 C 15.15625 39.453125 15.027344 39.792969 15.285156 40.820312 C 15.4375 40.378906 15.765625 39.824219 16.339844 38.90625 C 17.902344 36.359375 18.144531 33.839844 20.222656 30.765625 C 22.296875 27.671875 24.710938 26.097656 24.535156 23.738281 C 24.519531 23.546875 24.507812 23.386719 24.492188 23.199219 Z M 15.292969 42.207031 C 14.75 42.773438 14.09375 44.042969 13.152344 44.671875 C 12.1875 45.328125 9.71875 45.273438 9.09375 46.042969 C 8.757812 46.464844 8.800781 47.003906 8.90625 47.738281 C 8.945312 47.613281 9.007812 47.496094 9.09375 47.386719 C 9.71875 46.621094 12.1875 46.671875 13.152344 46.019531 C 14.125 45.363281 14.796875 44.019531 15.355469 43.492188 C 15.433594 43.417969 15.511719 43.34375 15.585938 43.273438 C 15.46875 42.832031 15.367188 42.496094 15.292969 42.207031 Z M 50.675781 43.019531 C 50.550781 43.363281 50.398438 43.734375 50.21875 44.132812 C 50.414062 44.167969 50.617188 44.257812 50.773438 44.472656 L 50.773438 44.460938 C 50.933594 44.675781 51.015625 44.90625 51.054688 45.144531 C 51.054688 44.496094 51.234375 43.738281 50.773438 43.117188 L 50.773438 43.128906 C 50.746094 43.085938 50.710938 43.050781 50.675781 43.019531 Z M 51.089844 45.550781 C 51.097656 46.191406 50.9375 46.835938 51.242188 47.289062 C 52.046875 48.484375 53.648438 49.695312 54.265625 50.03125 C 54.550781 50.195312 54.910156 50.355469 55.125 50.640625 C 55.222656 50.464844 55.296875 50.234375 55.308594 49.914062 C 55.335938 49.179688 54.707031 48.941406 54.265625 48.683594 C 53.648438 48.347656 52.046875 47.136719 51.242188 45.945312 C 51.164062 45.824219 51.117188 45.691406 51.089844 45.550781 Z M 9.078125 50.566406 C 9.03125 51.171875 8.917969 51.664062 8.839844 52.078125 C 8.695312 52.6875 8.605469 53.132812 8.804688 53.566406 C 8.816406 53.519531 8.828125 53.472656 8.839844 53.421875 C 8.945312 52.886719 9.101562 52.222656 9.101562 51.335938 C 9.105469 51.0625 9.09375 50.808594 9.078125 50.566406 Z M 9.078125 50.566406 "/>
<path style=" stroke:none;fill-rule:nonzero;fill:rgb(97.647059%,69.411765%,32.941176%);fill-opacity:1;" d="M 36.667969 19.648438 C 36.464844 20.570312 35.980469 21.042969 34.960938 21.351562 C 33.945312 21.644531 32.132812 22.546875 30.738281 22.546875 C 30.109375 22.546875 29.234375 22.582031 28.730469 22.402344 C 28.242188 22.246094 27.5625 22.222656 26.769531 21.605469 C 26.160156 21.136719 25.589844 20.640625 25.339844 20.058594 C 25.242188 20.246094 25.195312 20.460938 25.207031 20.726562 C 25.230469 21.574219 25.964844 22.238281 26.769531 22.855469 C 27.5625 23.472656 28.242188 24.246094 28.730469 24.402344 C 29.234375 24.582031 30.109375 24.546875 30.738281 24.546875 C 32.132812 24.546875 33.945312 22.894531 34.960938 22.601562 C 36.226562 22.222656 36.667969 21.585938 36.765625 20.152344 C 36.78125 19.960938 36.742188 19.796875 36.667969 19.648438 Z M 42.890625 42.535156 C 42.890625 42.539062 42.890625 42.542969 42.890625 42.546875 C 42.867188 42.789062 42.898438 42.972656 42.960938 43.117188 C 42.980469 42.859375 42.972656 42.664062 42.890625 42.535156 Z M 51.058594 43.808594 C 51.050781 43.980469 51.058594 44.144531 51.089844 44.296875 C 51.089844 44.132812 51.082031 43.96875 51.058594 43.808594 Z M 8.894531 46.425781 C 8.699219 47.066406 9 47.9375 9.082031 49.265625 C 9.09375 49.101562 9.101562 48.925781 9.101562 48.742188 C 9.109375 47.78125 8.980469 47.035156 8.894531 46.425781 Z M 55.15625 49.335938 C 54.996094 49.660156 54.746094 49.808594 54.585938 49.960938 C 54.089844 50.429688 51.589844 51.597656 49.925781 52.65625 C 47.839844 54 47.117188 54.601562 46.433594 55.238281 C 45.375 56.234375 44.378906 56.574219 42.769531 56.574219 C 41.167969 56.574219 40.433594 56.253906 39.949219 55.839844 C 39.542969 55.507812 39.097656 54.757812 38.976562 53.65625 C 38.964844 53.808594 38.953125 53.960938 38.949219 54.113281 C 38.894531 55.648438 39.453125 56.683594 39.949219 57.089844 C 40.433594 57.503906 41.167969 57.824219 42.769531 57.824219 C 44.378906 57.824219 45.375 57.484375 46.433594 56.488281 C 47.117188 55.851562 47.839844 55.25 49.925781 53.90625 C 51.589844 52.847656 54.089844 51.679688 54.585938 51.210938 C 54.832031 50.984375 55.273438 50.761719 55.308594 49.914062 C 55.320312 49.675781 55.257812 49.488281 55.15625 49.335938 Z M 8.789062 52.285156 C 8.664062 52.859375 8.617188 53.289062 8.890625 53.722656 C 9.445312 54.582031 10.320312 54.804688 15.386719 55.792969 C 18.089844 56.320312 20.652344 57.683594 22.359375 57.824219 C 24.074219 57.9375 24.445312 57.398438 25.488281 56.53125 C 26.523438 55.65625 26.859375 55.921875 26.824219 54.015625 C 26.820312 53.886719 26.8125 53.765625 26.800781 53.648438 C 26.703125 54.609375 26.324219 54.578125 25.488281 55.28125 C 24.445312 56.148438 24.074219 56.6875 22.359375 56.574219 C 20.652344 56.433594 18.089844 55.070312 15.386719 54.542969 C 10.320312 53.554688 9.445312 53.332031 8.890625 52.472656 C 8.851562 52.410156 8.820312 52.347656 8.789062 52.285156 Z M 8.789062 52.285156 "/>
</g>
</svg>
