
<svg xmlns="http://www.w3.org/2000/svg" xmlns:xlink="http://www.w3.org/1999/xlink" width="64px" height="64px" viewBox="0 0 64 64" version="1.1">
<defs>
<linearGradient id="linear0" gradientUnits="userSpaceOnUse" x1="1" y1="0" x2="47" y2="0" gradientTransform="matrix(0,-1.333333,1.333333,0,0.00295289,64.000001)">
<stop offset="0" style="stop-color:rgb(18.823529%,62.745098%,83.137255%);stop-opacity:1;"/>
<stop offset="1" style="stop-color:rgb(25.490196%,65.882353%,84.705882%);stop-opacity:1;"/>
</linearGradient>
</defs>
<g id="surface1">
<path style=" stroke:none;fill-rule:nonzero;fill:url(#linear0);" d="M 1.332031 57.332031 L 1.332031 6.667969 C 1.332031 3.722656 3.722656 1.332031 6.667969 1.332031 L 57.332031 1.332031 C 60.277344 1.332031 62.667969 3.722656 62.667969 6.667969 L 62.667969 57.332031 C 62.667969 60.277344 60.277344 62.667969 57.332031 62.667969 L 6.667969 62.667969 C 3.722656 62.667969 1.332031 60.277344 1.332031 57.332031 Z M 1.332031 57.332031 "/>
<path style=" stroke:none;fill-rule:nonzero;fill:rgb(91.764706%,35.686275%,32.54902%);fill-opacity:1;" d="M 42.09375 13.539062 C 32.527344 8.015625 20.296875 11.292969 14.777344 20.859375 C 9.253906 30.425781 12.53125 42.65625 22.09375 48.179688 C 31.664062 53.703125 43.894531 50.425781 49.417969 40.859375 C 54.941406 31.292969 51.664062 19.0625 42.09375 13.539062 M 38.09375 20.464844 C 43.832031 23.777344 45.800781 31.121094 42.488281 36.859375 C 39.175781 42.597656 31.835938 44.5625 26.09375 41.25 C 20.359375 37.9375 18.390625 30.597656 21.703125 24.859375 C 25.015625 19.121094 32.355469 17.152344 38.09375 20.464844 M 38.09375 20.464844 "/>
<path style=" stroke:none;fill-rule:nonzero;fill:rgb(92.54902%,92.54902%,87.058824%);fill-opacity:1;" d="M 42.09375 13.539062 C 39.535156 12.058594 36.765625 11.242188 33.996094 10.980469 L 33.960938 19.042969 C 35.371094 19.265625 36.78125 19.707031 38.09375 20.464844 C 39.410156 21.222656 40.496094 22.226562 41.394531 23.332031 L 48.359375 19.269531 C 46.75 17.007812 44.65625 15.015625 42.09375 13.539062 M 42.09375 13.539062 "/>
<path style=" stroke:none;fill-rule:nonzero;fill:rgb(92.54902%,92.54902%,87.058824%);fill-opacity:1;" d="M 20.507812 14.59375 C 18.246094 16.203125 16.253906 18.296875 14.777344 20.859375 C 13.296875 23.421875 12.480469 26.191406 12.21875 28.957031 L 20.277344 28.992188 C 20.503906 27.582031 20.945312 26.171875 21.703125 24.859375 C 22.460938 23.546875 23.460938 22.457031 24.570312 21.558594 M 20.507812 14.59375 "/>
<path style="fill:none;stroke-width:3.3;stroke-linecap:butt;stroke-linejoin:miter;stroke:rgb(82.745098%,55.294118%,37.254902%);stroke-opacity:1;stroke-miterlimit:4;" d="M 6.108398 25.174804 C 6.108398 25.174804 5.094726 26.179687 6.729492 32.833007 C 8.000976 38.000975 8.000976 36.999022 10.236328 37.3916 C 16.010742 38.399413 18.509765 28.951171 21.533202 29.074218 C 27.046874 29.302733 23.112304 45.111327 28.532226 44.074217 C 34.107421 43.007811 24.410155 29.52246 29.531249 27.073241 C 34.708007 24.600585 43.532225 37.075194 43.532225 37.075194 " transform="matrix(1.333333,0,0,1.333333,0,0)"/>
<path style=" stroke:none;fill-rule:nonzero;fill:rgb(92.54902%,92.54902%,87.058824%);fill-opacity:1;" d="M 22.796875 38.382812 L 15.832031 42.445312 C 17.441406 44.710938 19.535156 46.699219 22.09375 48.179688 C 24.65625 49.65625 27.425781 50.476562 30.195312 50.738281 L 30.230469 42.675781 C 28.820312 42.449219 27.410156 42.007812 26.09375 41.25 C 24.78125 40.492188 23.695312 39.492188 22.796875 38.382812 M 22.796875 38.382812 "/>
<path style=" stroke:none;fill-rule:nonzero;fill:rgb(92.54902%,92.54902%,87.058824%);fill-opacity:1;" d="M 51.972656 32.761719 L 43.914062 32.722656 C 43.6875 34.132812 43.246094 35.546875 42.488281 36.859375 C 41.730469 38.171875 40.730469 39.257812 39.621094 40.160156 L 43.683594 47.121094 C 45.945312 45.511719 47.9375 43.421875 49.417969 40.859375 C 50.894531 38.296875 51.710938 35.527344 51.972656 32.761719 M 51.972656 32.761719 "/>
</g>
</svg>
