
<svg xmlns="http://www.w3.org/2000/svg" xmlns:xlink="http://www.w3.org/1999/xlink" width="64px" height="64px" viewBox="0 0 64 64" version="1.1">
<g id="surface1">
<path style="fill-rule:nonzero;fill:rgb(18.431373%,30.196078%,38.823529%);fill-opacity:1;stroke-width:55.870281;stroke-linecap:butt;stroke-linejoin:miter;stroke:rgb(51.764706%,66.27451%,76.862745%);stroke-opacity:1;stroke-miterlimit:4;" d="M 166.125 54.375 L 857.875 54.375 C 919.5625 54.375 969.625 104.4375 969.625 166.125 L 969.625 857.875 C 969.625 919.5625 919.5625 969.625 857.875 969.625 L 166.125 969.625 C 104.4375 969.625 54.375 919.5625 54.375 857.875 L 54.375 166.125 C 54.375 104.4375 104.4375 54.375 166.125 54.375 Z M 166.125 54.375 " transform="matrix(0.0625,0,0,0.0625,0,0)"/>
<path style=" stroke:none;fill-rule:nonzero;fill:rgb(57.647059%,71.372549%,79.215686%);fill-opacity:1;" d="M 44.574219 12.09375 C 43.433594 12.09375 42.460938 12.496094 41.65625 13.300781 C 40.851562 14.105469 40.449219 15.078125 40.449219 16.21875 L 40.449219 27.734375 L 48.703125 35.992188 L 48.703125 16.21875 C 48.703125 15.078125 48.296875 14.105469 47.492188 13.300781 C 46.6875 12.496094 45.714844 12.09375 44.574219 12.09375 Z M 35.527344 13.292969 C 34.722656 12.488281 33.75 12.082031 32.609375 12.082031 L 24.796875 12.082031 L 36.738281 24.027344 L 36.738281 16.210938 C 36.734375 15.066406 36.332031 14.097656 35.527344 13.292969 Z M 35.527344 13.292969 "/>
<path style=" stroke:none;fill-rule:nonzero;fill:rgb(48.235294%,62.745098%,70.980392%);fill-opacity:1;" d="M 47.492188 48.945312 C 48.296875 48.140625 48.699219 47.167969 48.703125 46.027344 L 48.703125 35.992188 L 40.449219 27.734375 L 40.449219 46.027344 C 40.449219 47.167969 40.851562 48.140625 41.65625 48.945312 C 42.460938 49.75 43.433594 50.152344 44.574219 50.15625 C 45.714844 50.152344 46.6875 49.75 47.492188 48.945312 Z M 36.738281 30.140625 L 36.738281 24.027344 L 24.796875 12.082031 L 17.652344 12.082031 C 16.511719 12.082031 15.539062 12.488281 14.738281 13.292969 C 13.929688 14.097656 13.527344 15.066406 13.527344 16.210938 C 13.527344 17.351562 13.929688 18.324219 14.738281 19.128906 C 15.539062 19.933594 16.511719 20.335938 17.652344 20.339844 L 28.484375 20.339844 L 28.484375 30.261719 C 28.480469 30.335938 28.484375 30.414062 28.488281 30.5 C 28.734375 34.796875 28.039062 37.925781 26.402344 39.898438 C 24.605469 41.472656 21.847656 42.042969 18.128906 41.613281 C 17 41.484375 15.992188 41.773438 15.097656 42.484375 C 14.203125 43.191406 13.691406 44.109375 13.558594 45.238281 C 13.425781 46.367188 13.714844 47.378906 14.421875 48.273438 C 15.132812 49.167969 16.050781 49.679688 17.183594 49.8125 C 24.101562 50.609375 29.152344 49.222656 32.335938 45.644531 C 35.664062 42.484375 37.132812 37.320312 36.738281 30.140625 Z M 36.738281 30.140625 "/>
<path style=" stroke:none;fill-rule:nonzero;fill:rgb(95.686275%,59.607843%,20.784314%);fill-opacity:1;" d="M 21.886719 27.640625 C 20.941406 26.695312 19.800781 26.222656 18.464844 26.222656 C 17.128906 26.222656 15.984375 26.695312 15.035156 27.640625 C 14.09375 28.589844 13.621094 29.730469 13.621094 31.070312 C 13.621094 32.40625 14.089844 33.546875 15.035156 34.492188 C 15.984375 35.4375 17.128906 35.914062 18.464844 35.914062 C 19.800781 35.914062 20.941406 35.4375 21.886719 34.492188 C 22.832031 33.546875 23.308594 32.40625 23.308594 31.070312 C 23.308594 29.734375 22.832031 28.589844 21.886719 27.640625 Z M 21.886719 27.640625 "/>
</g>
</svg>
