
<svg xmlns="http://www.w3.org/2000/svg" xmlns:xlink="http://www.w3.org/1999/xlink" width="64px" height="64px" viewBox="0 0 64 64" version="1.1">
<g id="surface1">
<path style="fill-rule:evenodd;fill:rgb(0%,50.196078%,0%);fill-opacity:1;stroke-width:30.578964;stroke-linecap:butt;stroke-linejoin:miter;stroke:rgb(0%,38.823529%,0%);stroke-opacity:1;stroke-miterlimit:4;" d="M 78.1875 27.875 L 433.8125 27.875 C 461.59375 27.875 484.125 50.40625 484.125 78.1875 L 484.125 433.8125 C 484.125 461.59375 461.59375 484.125 433.8125 484.125 L 78.1875 484.125 C 50.40625 484.125 27.875 461.59375 27.875 433.8125 L 27.875 78.1875 C 27.875 50.40625 50.40625 27.875 78.1875 27.875 Z M 78.1875 27.875 " transform="matrix(0.125,0,0,0.125,0,0)"/>
<path style=" stroke:none;fill-rule:nonzero;fill:rgb(88.627451%,89.019608%,85.882353%);fill-opacity:1;" d="M 31.566406 53.488281 C 26.765625 52.925781 22.511719 50.902344 19.234375 47.628906 C 16.074219 44.464844 14.054688 40.308594 13.503906 35.816406 C 13.386719 34.878906 13.386719 32.207031 13.503906 31.273438 C 14.054688 26.777344 16.074219 22.621094 19.234375 19.457031 C 21.765625 16.929688 24.984375 15.085938 28.433594 14.195312 C 30.511719 13.65625 31.019531 13.597656 33.621094 13.597656 C 36.222656 13.597656 36.730469 13.65625 38.808594 14.195312 C 46.820312 16.269531 52.722656 23.023438 53.742188 31.273438 C 53.855469 32.207031 53.855469 34.878906 53.742188 35.816406 C 53.1875 40.308594 51.167969 44.464844 48.007812 47.628906 C 45.058594 50.578125 41.347656 52.496094 37.058594 53.296875 C 36.347656 53.425781 35.679688 53.46875 34.007812 53.492188 C 32.828125 53.507812 31.730469 53.507812 31.566406 53.488281 Z M 31.566406 53.488281 "/>
<path style=" stroke:none;fill-rule:nonzero;fill:rgb(0%,50.196078%,0%);fill-opacity:1;" d="M 29.503906 56.859375 C 22.792969 56.226562 16.355469 52.765625 12.164062 47.53125 C 9.804688 44.589844 8.058594 40.960938 7.253906 37.324219 C 6.8125 35.320312 6.703125 34.257812 6.703125 31.945312 C 6.703125 28.941406 7.042969 26.804688 7.960938 24.019531 C 8.476562 22.453125 9.738281 19.847656 10.664062 18.425781 C 17.1875 8.40625 30.007812 4.300781 41.171875 8.652344 C 49.023438 11.710938 54.847656 18.457031 56.640625 26.570312 C 56.792969 27.257812 56.980469 28.257812 57.054688 28.796875 C 57.234375 30.058594 57.234375 33.835938 57.054688 35.097656 C 56.40625 39.695312 54.5625 44.003906 51.734375 47.53125 C 46.460938 54.109375 37.992188 57.664062 29.503906 56.859375 Z M 27.753906 47.78125 C 30.945312 44.730469 44.980469 30.613281 44.980469 30.453125 C 44.980469 30.292969 44.867188 30.261719 44.195312 30.25 C 43.761719 30.242188 41.242188 30.203125 38.601562 30.167969 L 33.796875 30.101562 L 37.109375 24.34375 C 38.933594 21.179688 40.410156 18.515625 40.394531 18.425781 C 40.367188 18.28125 39.355469 18.257812 32.195312 18.234375 C 24.5 18.207031 24.023438 18.21875 23.925781 18.398438 C 23.871094 18.5 23.152344 22.710938 22.328125 27.746094 C 21.070312 35.460938 20.855469 36.921875 20.988281 37.003906 C 21.070312 37.058594 23.015625 37.101562 25.304688 37.105469 C 29.214844 37.105469 29.460938 37.117188 29.40625 37.296875 C 28.886719 39.019531 26.4375 48.460938 26.480469 48.574219 C 26.515625 48.65625 26.589844 48.726562 26.652344 48.726562 C 26.710938 48.726562 27.207031 48.300781 27.753906 47.78125 Z M 27.753906 47.78125 "/>
</g>
</svg>
