
<svg xmlns="http://www.w3.org/2000/svg" xmlns:xlink="http://www.w3.org/1999/xlink" width="64px" height="64px" viewBox="0 0 64 64" version="1.1">
<g id="surface1">
<path style="fill-rule:nonzero;fill:rgb(92.156863%,93.72549%,94.117647%);fill-opacity:1;stroke-width:18.73;stroke-linecap:butt;stroke-linejoin:miter;stroke:rgb(58.039216%,64.313725%,64.705882%);stroke-opacity:1;stroke-miterlimit:4;" d="M 78.65625 31 L 433.34375 31 C 459.65625 31 481 52.34375 481 78.65625 L 481 433.34375 C 481 459.65625 459.65625 481 433.34375 481 L 78.65625 481 C 52.34375 481 31 459.65625 31 433.34375 L 31 78.65625 C 31 52.34375 52.34375 31 78.65625 31 Z M 78.65625 31 " transform="matrix(0.125,0,0,0.125,0,0)"/>
<path style=" stroke:none;fill-rule:nonzero;fill:rgb(70.196078%,70.196078%,70.196078%);fill-opacity:1;" d="M 36.765625 47.820312 L 34.660156 40.492188 L 24.046875 40.492188 L 21.921875 47.820312 L 15.328125 47.820312 L 25.332031 16.90625 L 33.3125 16.90625 L 43.355469 47.820312 Z M 33.144531 35.015625 L 31.164062 28.277344 C 31.078125 28.027344 30.953125 27.613281 30.785156 27.035156 C 30.617188 26.460938 30.4375 25.828125 30.246094 25.132812 C 30.058594 24.4375 29.878906 23.738281 29.710938 23.035156 C 29.542969 22.332031 29.421875 21.738281 29.351562 21.246094 C 29.296875 21.554688 29.222656 21.917969 29.132812 22.339844 C 29.039062 22.761719 28.933594 23.207031 28.816406 23.675781 C 28.695312 24.148438 28.574219 24.621094 28.449219 25.097656 C 28.320312 25.578125 28.203125 26.027344 28.089844 26.445312 C 27.976562 26.867188 27.875 27.238281 27.785156 27.5625 C 27.691406 27.886719 27.625 28.125 27.585938 28.277344 L 25.625 35.015625 Z M 33.144531 35.015625 "/>
</g>
</svg>
