
<svg xmlns="http://www.w3.org/2000/svg" xmlns:xlink="http://www.w3.org/1999/xlink" width="64px" height="64px" viewBox="0 0 64 64" version="1.1">
<g id="surface1">
<path style="fill-rule:nonzero;fill:rgb(0%,51.764706%,78.431373%);fill-opacity:1;stroke-width:56.650757;stroke-linecap:butt;stroke-linejoin:miter;stroke:rgb(43.921569%,65.098039%,99.215686%);stroke-opacity:1;stroke-miterlimit:4;" d="M 161.3125 48 L 862.6875 48 C 925.25 48 976 98.75 976 161.3125 L 976 862.6875 C 976 925.25 925.25 976 862.6875 976 L 161.3125 976 C 98.75 976 48 925.25 48 862.6875 L 48 161.3125 C 48 98.75 98.75 48 161.3125 48 Z M 161.3125 48 " transform="matrix(0.0625,0,0,0.0625,0,0)"/>
<path style=" stroke:none;fill-rule:nonzero;fill:rgb(0%,0%,0%);fill-opacity:0.2;" d="M 38.992188 34.273438 C 38.757812 33.742188 38.15625 33.429688 37.554688 33.5625 L 29.988281 35.242188 C 29.300781 35.398438 28.867188 36.078125 29.019531 36.765625 L 29.367188 38.320312 L 25.007812 36.976562 L 26.292969 42.757812 L 29.808594 40.324219 L 30.015625 41.253906 C 30.164062 41.945312 30.851562 42.378906 31.539062 42.226562 L 39.105469 40.542969 C 39.449219 40.464844 39.714844 40.28125 39.90625 39.984375 C 40.09375 39.6875 40.152344 39.363281 40.074219 39.019531 L 39.171875 34.945312 L 40.410156 35.113281 L 40.054688 33.507812 Z M 38.992188 34.273438 "/>
<path style=" stroke:none;fill-rule:nonzero;fill:rgb(45.882353%,46.666667%,46.666667%);fill-opacity:1;" d="M 40.875 11.601562 C 40.726562 11.398438 40.46875 11.304688 40.230469 11.363281 L 40.875 11.601562 L 40.230469 11.363281 C 40.46875 11.304688 40.726562 11.398438 40.875 11.601562 Z M 40.875 11.601562 "/>
<path style=" stroke:none;fill-rule:nonzero;fill:rgb(11.372549%,11.372549%,10.588235%);fill-opacity:1;" d="M 14.800781 30.429688 C 14.910156 30.429688 15.015625 30.402344 15.113281 30.347656 L 19.910156 27.578125 L 15.136719 25.804688 L 13.152344 26.953125 C 12.851562 27.125 12.75 27.507812 12.925781 27.804688 L 14.257812 30.117188 C 14.339844 30.261719 14.476562 30.367188 14.636719 30.410156 C 14.691406 30.421875 14.742188 30.429688 14.800781 30.429688 Z M 14.800781 30.429688 "/>
<path style=" stroke:none;fill-rule:nonzero;fill:rgb(11.372549%,11.372549%,10.588235%);fill-opacity:1;" d="M 33.171875 15.402344 L 37.945312 17.171875 L 41.414062 15.171875 L 36.636719 13.402344 Z M 33.171875 15.402344 "/>
<path style=" stroke:none;fill-rule:nonzero;fill:rgb(11.372549%,11.372549%,10.588235%);fill-opacity:1;" d="M 27.136719 23.410156 L 22.363281 21.636719 L 18.695312 23.753906 L 23.46875 25.523438 Z M 27.136719 23.410156 "/>
<path style=" stroke:none;fill-rule:nonzero;fill:rgb(11.372549%,11.372549%,10.588235%);fill-opacity:1;" d="M 34.386719 19.226562 L 29.613281 17.457031 L 25.921875 19.585938 L 30.695312 21.355469 Z M 34.386719 19.226562 "/>
<path style=" stroke:none;fill-rule:nonzero;fill:rgb(45.882353%,46.666667%,46.666667%);fill-opacity:1;" d="M 18.695312 23.753906 L 15.136719 25.804688 L 19.910156 27.578125 L 23.46875 25.523438 Z M 18.695312 23.753906 "/>
<path style=" stroke:none;fill-rule:nonzero;fill:rgb(45.882353%,46.666667%,46.666667%);fill-opacity:1;" d="M 40.230469 11.363281 C 40.171875 11.375 40.117188 11.398438 40.058594 11.429688 L 36.636719 13.402344 L 41.414062 15.171875 L 42.019531 14.824219 C 42.164062 14.742188 42.265625 14.605469 42.308594 14.445312 C 42.351562 14.285156 42.328125 14.117188 42.246094 13.972656 L 40.875 11.601562 Z M 40.230469 11.363281 "/>
<path style=" stroke:none;fill-rule:nonzero;fill:rgb(45.882353%,46.666667%,46.666667%);fill-opacity:1;" d="M 29.613281 17.457031 L 34.386719 19.226562 L 37.945312 17.171875 L 33.171875 15.402344 Z M 29.613281 17.457031 "/>
<path style=" stroke:none;fill-rule:nonzero;fill:rgb(45.882353%,46.666667%,46.666667%);fill-opacity:1;" d="M 22.363281 21.636719 L 27.136719 23.410156 L 30.695312 21.355469 L 25.921875 19.585938 Z M 22.363281 21.636719 "/>
<path style=" stroke:none;fill-rule:nonzero;fill:rgb(11.372549%,11.372549%,10.588235%);fill-opacity:1;" d="M 34.917969 24.882812 L 31.078125 25.816406 L 29.886719 29.046875 L 33.726562 28.109375 Z M 34.917969 24.882812 "/>
<path style=" stroke:none;fill-rule:nonzero;fill:rgb(11.372549%,11.372549%,10.588235%);fill-opacity:1;" d="M 41.332031 26.257812 L 42.492188 23.035156 L 38.625 23.976562 L 37.433594 27.210938 Z M 41.332031 26.257812 "/>
<path style=" stroke:none;fill-rule:nonzero;fill:rgb(11.372549%,11.372549%,10.588235%);fill-opacity:1;" d="M 26.183594 29.949219 L 27.375 26.71875 L 23.765625 27.601562 L 22.574219 30.828125 Z M 26.183594 29.949219 "/>
<path style=" stroke:none;fill-rule:nonzero;fill:rgb(45.882353%,46.666667%,46.666667%);fill-opacity:1;" d="M 27.375 26.71875 L 26.183594 29.949219 L 29.886719 29.046875 L 31.078125 25.816406 Z M 27.375 26.71875 "/>
<path style=" stroke:none;fill-rule:nonzero;fill:rgb(45.882353%,46.666667%,46.666667%);fill-opacity:1;" d="M 38.625 23.976562 L 34.917969 24.882812 L 33.726562 28.109375 L 37.433594 27.210938 Z M 38.625 23.976562 "/>
<path style=" stroke:none;fill-rule:nonzero;fill:rgb(45.882353%,46.666667%,46.666667%);fill-opacity:1;" d="M 47.050781 43.238281 L 42.820312 25.894531 L 18.679688 31.777344 L 22.90625 49.121094 Z M 47.050781 43.238281 "/>
<path style=" stroke:none;fill-rule:nonzero;fill:rgb(45.882353%,46.666667%,46.666667%);fill-opacity:1;" d="M 23.765625 27.601562 L 19.835938 28.554688 L 18.6875 31.777344 L 22.574219 30.828125 Z M 23.765625 27.601562 "/>
<path style=" stroke:none;fill-rule:nonzero;fill:rgb(45.882353%,46.666667%,46.666667%);fill-opacity:1;" d="M 42.820312 25.894531 L 42.824219 25.902344 L 45.011719 25.371094 L 45.917969 22.851562 L 45.917969 22.84375 C 45.875 22.675781 45.78125 22.546875 45.636719 22.457031 C 45.492188 22.371094 45.324219 22.34375 45.164062 22.382812 L 42.492188 23.035156 L 41.332031 26.257812 Z M 42.820312 25.894531 "/>
<path style=" stroke:none;fill-rule:nonzero;fill:rgb(11.372549%,11.372549%,10.588235%);fill-opacity:1;" d="M 45.730469 25.839844 L 45.984375 25.136719 L 45.011719 25.371094 L 44.757812 26.078125 Z M 45.730469 25.839844 "/>
<path style=" stroke:none;fill-rule:nonzero;fill:rgb(11.372549%,11.372549%,10.588235%);fill-opacity:1;" d="M 45.917969 22.851562 L 45.011719 25.371094 L 42.824219 25.902344 L 47.050781 43.238281 L 22.90625 49.121094 L 18.683594 31.800781 L 18.679688 31.804688 L 18.679688 31.777344 L 18.6875 31.777344 L 19.835938 28.554688 L 14.984375 29.742188 C 14.824219 29.777344 14.683594 29.882812 14.601562 30.023438 C 14.511719 30.164062 14.488281 30.335938 14.523438 30.492188 L 19.808594 52.171875 C 19.851562 52.335938 19.949219 52.472656 20.089844 52.558594 C 20.191406 52.617188 20.304688 52.648438 20.414062 52.648438 C 20.464844 52.648438 20.515625 52.644531 20.566406 52.632812 L 50.742188 45.273438 C 51.078125 45.195312 51.285156 44.855469 51.203125 44.523438 Z M 45.917969 22.851562 "/>
<path style=" stroke:none;fill-rule:nonzero;fill:rgb(47.45098%,47.843137%,47.843137%);fill-opacity:1;" d="M 16.367188 29.660156 C 16.367188 29.269531 16.050781 28.949219 15.65625 28.949219 C 15.265625 28.949219 14.949219 29.269531 14.949219 29.660156 C 14.949219 30.050781 15.265625 30.367188 15.65625 30.367188 C 15.851562 30.367188 16.019531 30.296875 16.160156 30.160156 C 16.296875 30.023438 16.367188 29.855469 16.367188 29.660156 Z M 16.367188 29.660156 "/>
<path style=" stroke:none;fill-rule:nonzero;fill:rgb(11.372549%,11.372549%,10.588235%);fill-opacity:0.301961;" d="M 45.730469 25.902344 L 45.730469 25.183594 L 17.6875 32.019531 L 18.226562 32.457031 Z M 45.730469 25.902344 "/>
<path style=" stroke:none;fill-rule:nonzero;fill:rgb(11.372549%,11.372549%,10.588235%);fill-opacity:1;" d="M 38.453125 33.910156 C 38.300781 33.21875 37.617188 32.785156 36.929688 32.9375 L 29.363281 34.617188 C 28.675781 34.773438 28.242188 35.453125 28.394531 36.140625 L 29.390625 40.628906 C 29.539062 41.320312 30.226562 41.753906 30.914062 41.601562 L 38.480469 39.917969 C 38.824219 39.839844 39.089844 39.65625 39.28125 39.359375 C 39.46875 39.0625 39.527344 38.738281 39.449219 38.394531 Z M 38.453125 33.910156 "/>
<path style="fill-rule:nonzero;fill:rgb(11.372549%,11.372549%,10.588235%);fill-opacity:1;stroke-width:14.4;stroke-linecap:round;stroke-linejoin:round;stroke:rgb(11.372549%,11.372549%,10.588235%);stroke-opacity:1;stroke-miterlimit:4;" d="M 463.5 604.25 L 390.125 581.625 L 410.6875 674.125 L 472.4375 631.375 Z M 463.5 604.25 " transform="matrix(0.0625,0,0,0.0625,0,0)"/>
<path style="fill-rule:nonzero;fill:rgb(11.372549%,11.372549%,10.588235%);fill-opacity:1;stroke-width:14.4;stroke-linecap:round;stroke-linejoin:round;stroke:rgb(11.372549%,11.372549%,10.588235%);stroke-opacity:1;stroke-miterlimit:4;" d="M 609.1875 541.75 L 610.625 548.375 L 636.5625 551.8125 L 630.875 526.125 Z M 609.1875 541.75 " transform="matrix(0.0625,0,0,0.0625,0,0)"/>
</g>
</svg>
