
<svg xmlns="http://www.w3.org/2000/svg" xmlns:xlink="http://www.w3.org/1999/xlink" width="64px" height="64px" viewBox="0 0 64 64" version="1.1">
<g id="surface1">
<path style="fill-rule:nonzero;fill:rgb(100%,100%,100%);fill-opacity:1;stroke-width:25.210211;stroke-linecap:butt;stroke-linejoin:miter;stroke:rgb(0%,80%,100%);stroke-opacity:1;stroke-miterlimit:4;" d="M 120.31197 39.186502 L 432.457627 39.186502 C 460.290848 39.186502 482.870409 61.766062 482.870409 89.599283 L 482.870409 401.74494 C 482.870409 429.578161 460.290848 452.157722 432.457627 452.157722 L 120.31197 452.157722 C 92.478749 452.157722 69.899189 429.578161 69.899189 401.74494 L 69.899189 89.599283 C 69.899189 61.766062 92.478749 39.186502 120.31197 39.186502 Z M 120.31197 39.186502 " transform="matrix(0.139784,0,0,0.139784,-6.634035,-2.340908)"/>
<path style="fill-rule:evenodd;fill:rgb(100%,50.196078%,69.803922%);fill-opacity:1;stroke-width:10.281879;stroke-linecap:butt;stroke-linejoin:miter;stroke:rgb(100%,100%,100%);stroke-opacity:1;stroke-miterlimit:4;" d="M 146.153913 127.090129 L 415.099185 127.081791 L 415.106376 332.694764 L 146.161104 332.703103 Z M 146.153913 127.090129 " transform="matrix(0.139332,-0.011223,0.011223,0.139332,-6.634035,-2.340908)"/>
<path style="fill-rule:evenodd;fill:rgb(0%,80%,100%);fill-opacity:1;stroke-width:10.281879;stroke-linecap:butt;stroke-linejoin:miter;stroke:rgb(100%,100%,100%);stroke-opacity:1;stroke-miterlimit:4;" d="M -3.269452 245.306166 L 265.66783 245.303273 L 265.68026 450.935133 L -3.282395 450.926315 Z M -3.269452 245.306166 " transform="matrix(0.126918,-0.058577,0.058577,0.126918,-6.634035,-2.340908)"/>
<path style="fill-rule:nonzero;fill:rgb(92.54902%,92.54902%,92.54902%);fill-opacity:1;stroke-width:1.144096;stroke-linecap:butt;stroke-linejoin:miter;stroke:rgb(92.54902%,92.54902%,92.54902%);stroke-opacity:1;stroke-miterlimit:4;" d="M 46.645105 20.840756 C 45.758721 19.954372 44.653026 19.488335 43.45595 19.488335 L 38.037128 19.488335 C 36.977123 19.488335 35.981083 19.862992 35.158665 20.557479 C 34.948491 19.862992 34.665214 19.186782 34.327108 18.556261 C 35.40539 18.464881 36.374016 18.01712 37.141606 17.258668 L 40.961282 13.429854 C 41.801976 12.58916 42.258875 11.492603 42.277151 10.204147 C 42.268013 8.961382 41.811114 7.855687 40.97042 7.014992 C 40.120588 6.16516 39.014892 5.708261 37.726437 5.699123 C 36.483672 5.717399 35.387114 6.174298 34.555558 7.005854 L 30.717606 10.843806 C 29.959154 11.59312 29.520531 12.561746 29.438289 13.658304 C 28.807768 13.329337 28.149834 13.055197 27.455347 12.835886 C 28.149834 12.013467 28.515353 11.026566 28.515353 9.957422 L 28.515353 4.529462 C 28.515353 3.341524 28.058454 2.244967 27.162932 1.322031 C 26.285686 0.453923 25.17999 -0.0029762 23.982915 -0.0029762 C 22.78584 -0.0029762 21.680144 0.453923 20.757208 1.358583 C 19.898238 2.254105 19.441339 3.3598 19.441339 4.529462 L 19.441339 9.957422 C 19.441339 11.00829 19.806858 11.995192 20.519621 12.845024 C 19.834272 13.055197 19.185476 13.329337 18.564093 13.667442 C 18.472713 12.598298 18.03409 11.63881 17.2665 10.87122 L 13.437686 7.042406 C 12.587854 6.192574 11.491296 5.735675 10.221117 5.726537 C 8.969214 5.744813 7.872656 6.192574 7.031962 7.033268 C 6.18213 7.883101 5.725231 8.988796 5.716093 10.268113 C 5.725231 11.510879 6.18213 12.607436 7.031962 13.457268 L 10.860776 17.286082 C 11.628366 18.053672 12.587854 18.501433 13.656998 18.583675 C 13.32803 19.205058 13.053891 19.87213 12.843717 20.557479 C 12.021299 19.862992 11.034397 19.497473 9.946978 19.497473 L 4.546432 19.497473 C 3.340218 19.497473 2.243661 19.954372 1.339001 20.849894 C 0.461755 21.72714 -0.00428242 22.832836 -0.00428242 24.029911 C -0.00428242 25.226987 0.461755 26.332682 1.357277 27.24648 C 2.243661 28.10545 3.340218 28.562349 4.546432 28.562349 L 9.946978 28.562349 C 11.043535 28.562349 12.039575 28.19683 12.852855 27.493206 C 13.063029 28.160278 13.32803 28.809075 13.656998 29.412181 C 12.587854 29.503561 11.628366 29.942184 10.869914 30.700637 L 7.050238 34.52945 C 6.200406 35.379282 5.743507 36.484978 5.734369 37.746019 C 5.734369 38.988784 6.191268 40.103618 7.0411 40.95345 C 7.890932 41.803282 9.005766 42.260181 10.248531 42.260181 L 10.275945 42.260181 C 11.51871 42.241905 12.615268 41.794144 13.4651 40.944312 L 17.293914 37.115499 C 18.052366 36.357046 18.490989 35.397558 18.573231 34.346691 C 19.185476 34.66652 19.834272 34.940659 20.510483 35.150833 C 19.806858 35.973251 19.441339 36.960153 19.441339 38.047572 L 19.441339 43.457257 C 19.441339 44.654332 19.898238 45.75089 20.784622 46.65555 C 21.671006 47.532796 22.776702 47.998833 23.982915 47.998833 C 25.189128 47.998833 26.285686 47.532796 27.181208 46.646412 C 28.049316 45.760028 28.515353 44.654332 28.515353 43.457257 L 28.515353 38.047572 C 28.515353 36.960153 28.140696 35.964113 27.455347 35.159971 C 28.140696 34.949797 28.798631 34.675658 29.420013 34.346691 C 29.511393 35.43411 29.950016 36.411874 30.708468 37.161188 L 34.54642 41.008278 C 35.396252 41.848972 36.501948 42.296733 37.744713 42.296733 L 37.781265 42.296733 C 39.014892 42.296733 40.11145 41.848972 40.961282 40.99914 C 41.820252 40.14017 42.268013 39.025336 42.258875 37.791709 C 42.258875 36.530668 41.811114 35.424972 40.97042 34.57514 L 37.132468 30.746326 C 36.383154 29.987874 35.423666 29.549251 34.327108 29.457871 C 34.656076 28.836489 34.930215 28.187692 35.140389 27.502344 C 35.971945 28.205968 36.958847 28.571487 38.037128 28.571487 L 43.45595 28.571487 C 44.653026 28.571487 45.758721 28.10545 46.626829 27.24648 C 47.522351 26.369234 47.997526 25.2544 47.997526 24.029911 C 47.997526 22.81456 47.522351 21.708864 46.645105 20.840756 Z M 11.719746 25.811817 C 11.226295 26.323544 10.632326 26.57027 9.946978 26.57027 L 4.537294 26.57027 C 3.861083 26.57027 3.276252 26.323544 2.755388 25.811817 C 2.252799 25.30009 1.996935 24.706122 1.996935 24.029911 C 1.996935 23.353701 2.252799 22.759732 2.755388 22.248005 C 3.276252 21.745416 3.861083 21.498691 4.537294 21.498691 L 9.956116 21.498691 C 10.632326 21.498691 11.226295 21.745416 11.728884 22.248005 C 12.240611 22.76887 12.496474 23.353701 12.496474 24.029911 C 12.496474 24.706122 12.240611 25.30009 11.719746 25.811817 Z M 21.442557 4.5386 C 21.442557 3.853251 21.69842 3.268421 22.201009 2.747556 C 22.712736 2.244967 23.306705 1.998241 23.982915 1.998241 C 24.659126 1.998241 25.253094 2.244967 25.764821 2.747556 C 26.258272 3.268421 26.514136 3.853251 26.514136 4.5386 L 26.514136 9.957422 C 26.514136 10.624495 26.258272 11.227601 25.764821 11.73019 C 25.253094 12.241917 24.659126 12.488642 23.982915 12.488642 C 23.306705 12.488642 22.712736 12.241917 22.201009 11.73019 C 21.69842 11.227601 21.442557 10.624495 21.442557 9.957422 Z M 12.268025 15.869695 L 8.448349 12.040881 C 7.964036 11.565706 7.726449 10.971738 7.717311 10.249837 C 7.726449 9.527937 7.964036 8.92483 8.439211 8.458793 C 8.923524 7.97448 9.517493 7.736893 10.239393 7.727755 C 10.961294 7.736893 11.546124 7.983618 12.030437 8.458793 L 15.850113 12.287607 C 16.334426 12.77192 16.581151 13.365889 16.572013 14.078651 C 16.572013 14.800551 16.343564 15.403658 15.859251 15.878833 C 15.384076 16.354008 14.780969 16.600733 14.059069 16.600733 C 13.346306 16.600733 12.752338 16.354008 12.268025 15.869695 Z M 15.877527 35.70825 L 12.048713 39.537063 C 11.5644 40.012238 10.970432 40.249826 10.248531 40.258964 C 9.535769 40.258964 8.932662 40.012238 8.457487 39.537063 C 7.982312 39.061888 7.735587 38.458782 7.735587 37.746019 C 7.744725 37.014981 7.982312 36.421012 8.457487 35.945837 L 12.286301 32.117023 C 12.761476 31.641848 13.364582 31.395123 14.077345 31.395123 C 14.799245 31.395123 15.402352 31.632711 15.877527 32.117023 C 16.352702 32.592198 16.599427 33.195305 16.590289 33.917206 C 16.599427 34.629968 16.352702 35.223937 15.877527 35.70825 Z M 26.514136 43.457257 C 26.514136 44.133467 26.258272 44.727436 25.755683 45.239163 C 25.253094 45.75089 24.649988 45.997615 23.982915 45.997615 C 23.306705 45.997615 22.703598 45.75089 22.201009 45.239163 C 21.69842 44.727436 21.442557 44.133467 21.442557 43.457257 L 21.442557 38.047572 C 21.442557 37.362224 21.689282 36.768255 22.201009 36.274804 C 22.703598 35.753939 23.306705 35.498076 23.982915 35.498076 C 24.649988 35.498076 25.253094 35.753939 25.755683 36.274804 C 26.258272 36.768255 26.514136 37.362224 26.514136 38.047572 Z M 24.001191 33.688756 C 18.655473 33.688756 14.32407 29.348216 14.32407 24.002497 C 14.32407 18.647641 18.655473 14.316238 24.001191 14.316238 C 29.346909 14.316238 33.678312 18.647641 33.678312 24.002497 C 33.678312 29.348216 29.346909 33.688756 24.001191 33.688756 Z M 35.716081 32.153575 L 39.554033 35.991527 C 40.029208 36.466702 40.257657 37.069809 40.257657 37.782571 C 40.266795 38.513609 40.029208 39.107578 39.554033 39.582753 C 39.06972 40.067066 38.466613 40.304654 37.744713 40.304654 C 37.03195 40.304654 36.437982 40.067066 35.953669 39.582753 L 32.124855 35.753939 C 31.64968 35.269627 31.412093 34.675658 31.412093 33.962895 C 31.402955 33.231857 31.64968 32.637888 32.133993 32.162713 C 32.609168 31.687538 33.203137 31.440813 33.925037 31.440813 C 34.6378 31.440813 35.240906 31.6784 35.716081 32.153575 Z M 33.934175 16.573319 C 33.212275 16.564182 32.618306 16.326594 32.143131 15.842281 C 31.658818 15.367106 31.421231 14.773137 31.412093 14.051237 C 31.421231 13.338475 31.658818 12.72623 32.133993 12.251055 L 35.962807 8.422241 C 36.44712 7.947066 37.041088 7.709479 37.762989 7.700341 C 38.484889 7.700341 39.06972 7.947066 39.554033 8.431379 C 40.029208 8.906554 40.275933 9.500523 40.285071 10.222423 C 40.266795 10.935186 40.029208 11.529155 39.554033 12.013467 L 35.725219 15.842281 C 35.250044 16.317456 34.646938 16.564182 33.934175 16.573319 Z M 45.228719 25.811817 C 44.72613 26.323544 44.132161 26.579408 43.45595 26.579408 L 38.037128 26.579408 C 37.360918 26.579408 36.776087 26.323544 36.26436 25.811817 C 35.752633 25.309228 35.505908 24.706122 35.505908 24.029911 C 35.505908 23.362839 35.752633 22.759732 36.26436 22.257143 C 36.776087 21.754554 37.360918 21.489553 38.037128 21.489553 L 43.45595 21.489553 C 44.132161 21.489553 44.72613 21.745416 45.228719 22.257143 C 45.749583 22.759732 45.996309 23.362839 45.996309 24.029911 C 45.996309 24.706122 45.749583 25.309228 45.228719 25.811817 Z M 45.228719 25.811817 " transform="matrix(0.427474,0,0,0.427474,19.935424,23.708303)"/>
</g>
</svg>
