
<svg xmlns="http://www.w3.org/2000/svg" xmlns:xlink="http://www.w3.org/1999/xlink" width="64px" height="64px" viewBox="0 0 64 64" version="1.1">
<g id="surface1">
<path style="fill-rule:nonzero;fill:rgb(100%,100%,100%);fill-opacity:1;stroke-width:28.191782;stroke-linecap:butt;stroke-linejoin:miter;stroke:rgb(38.039216%,78.039216%,5.098039%);stroke-opacity:1;stroke-miterlimit:4;" d="M 81.46875 25.09375 L 430.53125 25.09375 C 461.65625 25.09375 486.90625 50.34375 486.90625 81.46875 L 486.90625 430.53125 C 486.90625 461.65625 461.65625 486.90625 430.53125 486.90625 L 81.46875 486.90625 C 50.34375 486.90625 25.09375 461.65625 25.09375 430.53125 L 25.09375 81.46875 C 25.09375 50.34375 50.34375 25.09375 81.46875 25.09375 Z M 81.46875 25.09375 " transform="matrix(0.125,0,0,0.125,0,0)"/>
<path style=" stroke:none;fill-rule:nonzero;fill:rgb(38.039216%,78.039216%,5.098039%);fill-opacity:1;" d="M 30.304688 55.761719 C 29.75 55.507812 18.921875 44.84375 18.5625 44.195312 C 18.292969 43.703125 18.269531 43.226562 18.492188 42.695312 C 18.679688 42.242188 24.824219 36.015625 25.542969 35.546875 C 26.082031 35.195312 26.796875 35.148438 27.378906 35.425781 C 27.597656 35.53125 30.070312 37.910156 33.394531 41.222656 C 38.554688 46.363281 39.050781 46.886719 39.15625 47.304688 C 39.390625 48.230469 39.378906 48.25 35.5625 52.089844 C 31.503906 56.167969 31.386719 56.25 30.304688 55.761719 Z M 42.449219 45.359375 C 42.25 45.25 41.152344 44.21875 40.007812 43.066406 C 38.167969 41.21875 37.910156 40.914062 37.796875 40.496094 C 37.6875 40.078125 37.695312 39.976562 37.871094 39.652344 C 38.109375 39.210938 49.804688 27.253906 50.199219 27.046875 C 50.578125 26.851562 51.09375 26.867188 51.496094 27.082031 C 52.011719 27.359375 55.828125 31.097656 56.058594 31.546875 C 56.285156 31.996094 56.3125 32.515625 56.128906 32.847656 C 56.011719 33.054688 53.917969 35.214844 46.660156 42.609375 L 43.839844 45.480469 L 43.324219 45.523438 C 42.953125 45.550781 42.710938 45.507812 42.449219 45.359375 Z M 12.9375 37.652344 C 11.171875 35.996094 8.101562 32.910156 7.96875 32.652344 C 7.769531 32.28125 7.78125 31.644531 7.988281 31.332031 C 8.164062 31.066406 9.773438 29.40625 14.140625 24.976562 C 16.847656 22.226562 17.054688 22.074219 17.796875 22.210938 C 18.121094 22.273438 18.589844 22.691406 20.9375 25.027344 C 24.023438 28.101562 24.078125 28.179688 23.703125 28.992188 C 23.566406 29.292969 22.199219 30.757812 19.3125 33.703125 C 17.007812 36.054688 14.996094 38.058594 14.84375 38.160156 C 14.691406 38.261719 14.375 38.34375 14.121094 38.34375 C 13.710938 38.34375 13.613281 38.285156 12.9375 37.652344 Z M 36.265625 33.027344 C 35.75 32.804688 22.5 19.570312 22.238281 19.019531 C 21.984375 18.476562 21.988281 17.699219 22.246094 17.171875 C 22.378906 16.894531 23.890625 15.3125 26.601562 12.613281 C 30.335938 8.886719 30.796875 8.460938 31.214844 8.347656 C 31.746094 8.207031 32.410156 8.273438 32.890625 8.515625 C 33.414062 8.777344 46.554688 21.925781 46.785156 22.417969 C 47.023438 22.921875 47.039062 23.6875 46.824219 24.199219 C 46.605469 24.730469 38.644531 32.722656 38.070312 32.992188 C 37.570312 33.226562 36.761719 33.242188 36.265625 33.027344 Z M 36.265625 33.027344 "/>
</g>
</svg>
