
<svg xmlns="http://www.w3.org/2000/svg" xmlns:xlink="http://www.w3.org/1999/xlink" width="64px" height="64px" viewBox="0 0 64 64" version="1.1">
<g id="surface1">
<path style="fill-rule:nonzero;fill:rgb(80.392157%,11.372549%,19.215686%);fill-opacity:1;stroke-width:27.910587;stroke-linecap:butt;stroke-linejoin:miter;stroke:rgb(54.117647%,4.313725%,10.196078%);stroke-opacity:1;stroke-miterlimit:4;" d="M 83.21875 27.40625 L 428.78125 27.40625 C 459.625 27.40625 484.59375 52.375 484.59375 83.21875 L 484.59375 428.78125 C 484.59375 459.625 459.625 484.59375 428.78125 484.59375 L 83.21875 484.59375 C 52.375 484.59375 27.40625 459.625 27.40625 428.78125 L 27.40625 83.21875 C 27.40625 52.375 52.375 27.40625 83.21875 27.40625 Z M 83.21875 27.40625 " transform="matrix(0.125,0,0,0.125,0,0)"/>
<path style=" stroke:none;fill-rule:nonzero;fill:rgb(100%,100%,100%);fill-opacity:1;" d="M 26.523438 12.964844 C 26.351562 12.964844 19.597656 16.96875 19.335938 17.226562 C 19.195312 17.367188 19.226562 17.472656 19.550781 18.003906 C 23.117188 23.878906 25.492188 27.9375 25.410156 28.007812 C 25.355469 28.058594 23.207031 28.03125 20.636719 27.953125 C 18.066406 27.875 15.367188 27.800781 14.640625 27.796875 L 13.320312 27.796875 L 13.257812 32.085938 C 13.21875 34.609375 13.230469 36.417969 13.292969 36.484375 C 13.390625 36.585938 20.886719 36.417969 23.96875 36.242188 C 25.03125 36.183594 25.257812 36.199219 25.3125 36.339844 C 25.347656 36.4375 24.867188 37.359375 24.191406 38.484375 C 23.542969 39.570312 22.152344 41.894531 21.101562 43.648438 C 20.054688 45.402344 19.21875 46.902344 19.246094 46.976562 C 19.320312 47.171875 26.167969 51.1875 26.441406 51.195312 C 26.652344 51.195312 28.210938 48.367188 31.773438 41.511719 C 32.042969 41 32.335938 40.578125 32.425781 40.578125 C 32.527344 40.578125 33.578125 42.460938 35.128906 45.421875 C 38.339844 51.546875 38.25 51.375 38.308594 51.375 C 38.339844 51.375 39.089844 50.9375 39.984375 50.402344 C 40.875 49.867188 42.515625 48.894531 43.628906 48.234375 C 44.738281 47.570312 45.648438 46.980469 45.648438 46.921875 C 45.648438 46.863281 44.589844 45.046875 43.292969 42.878906 C 41.996094 40.714844 40.589844 38.367188 40.164062 37.660156 C 39.734375 36.9375 39.4375 36.332031 39.492188 36.273438 C 39.546875 36.214844 42.175781 36.25 45.5 36.34375 C 48.75 36.445312 51.453125 36.484375 51.503906 36.433594 C 51.632812 36.308594 51.710938 27.816406 51.582031 27.734375 C 51.527344 27.699219 49.054688 27.75 46.089844 27.847656 C 39.640625 28.058594 39.496094 28.0625 39.496094 27.902344 C 39.496094 27.835938 40.53125 26.0625 41.796875 23.964844 C 45.570312 17.695312 45.761719 17.371094 45.707031 17.285156 C 45.679688 17.238281 45.027344 16.832031 44.257812 16.382812 C 43.488281 15.933594 41.875 14.976562 40.671875 14.261719 C 39.46875 13.550781 38.433594 12.96875 38.375 12.96875 C 38.277344 12.96875 35.980469 17.214844 33.5 21.984375 C 32.910156 23.109375 32.546875 23.695312 32.4375 23.675781 C 32.347656 23.660156 31.011719 21.246094 29.476562 18.308594 C 27.882812 15.269531 26.613281 12.96875 26.523438 12.96875 Z M 26.523438 12.964844 "/>
</g>
</svg>
