
<svg xmlns="http://www.w3.org/2000/svg" xmlns:xlink="http://www.w3.org/1999/xlink" width="64px" height="64px" viewBox="0 0 64 64" version="1.1">
<g id="surface1">
<path style=" stroke:none;fill-rule:evenodd;fill:rgb(94.509804%,27.843137%,56.078431%);fill-opacity:1;" d="M 8.96875 2.726562 L 55.367188 2.726562 C 58.816406 2.726562 61.617188 5.527344 61.617188 8.976562 L 61.617188 54.929688 C 61.617188 58.382812 58.816406 61.179688 55.367188 61.179688 L 8.96875 61.179688 C 5.515625 61.179688 2.71875 58.382812 2.71875 54.929688 L 2.71875 8.976562 C 2.71875 5.527344 5.515625 2.726562 8.96875 2.726562 Z M 8.96875 2.726562 "/>
<path style=" stroke:none;fill-rule:nonzero;fill:rgb(100%,100%,100%);fill-opacity:0.392157;" d="M 21.261719 13.207031 C 18.902344 13.25 16.890625 13.960938 15.449219 15.402344 C 12.773438 18.078125 12.625 22.722656 14.554688 27.886719 C 15.433594 26.699219 16.519531 25.566406 17.777344 24.523438 C 16.023438 20.082031 15.871094 16.496094 17.734375 14.933594 C 20.054688 12.984375 24.917969 14.660156 30.238281 18.773438 C 30.746094 19.167969 31.253906 19.578125 31.765625 20.015625 C 33.972656 21.882812 36.21875 24.136719 38.367188 26.699219 C 41.371094 30.285156 43.75 33.953125 45.355469 37.285156 C 46.527344 35.429688 47.152344 33.332031 47.046875 31.144531 C 47.046875 31.101562 47.042969 31.058594 47.039062 31.015625 C 45.4375 28.359375 43.359375 25.695312 40.859375 23.191406 C 40.054688 22.390625 39.234375 21.628906 38.402344 20.914062 C 37.246094 19.921875 36.070312 19.015625 34.886719 18.203125 C 30.089844 14.90625 25.195312 13.132812 21.261719 13.207031 Z M 18.8125 26.875 C 18.738281 26.992188 18.667969 27.105469 18.597656 27.222656 C 18.597656 27.222656 18.597656 27.222656 18.59375 27.226562 C 17.542969 28.972656 16.980469 30.925781 17.042969 32.960938 C 17.042969 33.019531 17.046875 33.078125 17.046875 33.132812 C 17.054688 33.214844 17.058594 33.292969 17.0625 33.375 C 17.101562 33.3125 17.136719 33.246094 17.171875 33.183594 C 17.925781 31.902344 18.792969 30.609375 19.761719 29.316406 C 19.828125 29.226562 19.894531 29.136719 19.960938 29.050781 C 19.542969 28.3125 19.160156 27.585938 18.8125 26.875 Z M 20.898438 30.648438 C 19.925781 32.242188 19.160156 33.832031 18.621094 35.363281 C 19.941406 37.21875 21.484375 39.054688 23.238281 40.808594 C 24.210938 41.78125 25.207031 42.6875 26.21875 43.53125 C 27.25 44.386719 28.296875 45.175781 29.347656 45.890625 C 36.980469 51.085938 44.824219 52.421875 48.648438 48.597656 C 51.328125 45.921875 51.472656 41.273438 49.535156 36.101562 C 48.664062 37.296875 47.582031 38.4375 46.328125 39.492188 C 48.074219 43.925781 48.222656 47.507812 46.359375 49.070312 C 44.050781 51.007812 39.226562 49.355469 33.9375 45.289062 C 33.503906 44.957031 33.070312 44.605469 32.632812 44.242188 C 32.628906 44.242188 32.621094 44.246094 32.617188 44.246094 L 32.488281 44.125 C 30.234375 42.230469 27.929688 39.925781 25.726562 37.300781 C 23.867188 35.082031 22.242188 32.832031 20.898438 30.648438 Z M 20.898438 30.648438 "/>
<path style=" stroke:none;fill-rule:nonzero;fill:rgb(100%,100%,100%);fill-opacity:1;" d="M 43.636719 13.648438 C 39.953125 13.683594 35.207031 15.570312 30.4375 18.933594 C 30.828125 19.234375 31.214844 19.550781 31.605469 19.878906 C 36.761719 16.75 41.828125 16.074219 44.554688 18.621094 C 47.570312 21.441406 46.835938 27.394531 43.195312 33.355469 C 42.101562 35.144531 40.746094 36.933594 39.148438 38.640625 C 37.039062 40.898438 34.757812 42.746094 32.488281 44.125 C 32.410156 44.171875 32.332031 44.214844 32.253906 44.261719 C 27.257812 47.222656 22.382812 47.867188 19.671875 45.5 C 19.625 45.460938 19.585938 45.421875 19.542969 45.378906 C 19.105469 44.972656 18.75 44.5 18.464844 43.96875 C 16.671875 43.105469 15.171875 41.976562 14.070312 40.621094 C 13.660156 42.429688 13.578125 44.085938 13.863281 45.5 L 13.867188 45.5 C 14.113281 46.714844 14.632812 47.785156 15.449219 48.601562 C 19.0625 52.214844 27.308594 50.050781 35.273438 43.875 C 36.828125 42.671875 38.367188 41.316406 39.863281 39.820312 C 41.449219 38.234375 42.882812 36.597656 44.136719 34.953125 C 45.203125 33.554688 46.230469 32.398438 47.039062 31.015625 C 50.789062 24.59375 51.585938 18.339844 48.648438 15.402344 C 47.4375 14.191406 45.703125 13.628906 43.636719 13.648438 Z M 31.339844 20.042969 C 30.304688 20.117188 29.300781 20.277344 28.332031 20.511719 C 26.945312 21.617188 25.566406 22.84375 24.226562 24.183594 C 22.644531 25.765625 21.214844 27.402344 19.960938 29.050781 C 18.90625 30.429688 17.976562 31.816406 17.171875 33.183594 C 17.136719 33.246094 17.101562 33.3125 17.0625 33.375 C 17.15625 34.699219 17.515625 35.957031 18.089844 37.113281 C 18.234375 36.542969 18.410156 35.957031 18.621094 35.363281 C 19.160156 33.832031 19.925781 32.242188 20.898438 30.648438 C 21.992188 28.859375 23.347656 27.066406 24.941406 25.359375 C 26.96875 23.191406 29.160156 21.398438 31.339844 20.042969 Z M 31.339844 20.042969 "/>
<path style=" stroke:none;fill-rule:nonzero;fill:rgb(100%,100%,100%);fill-opacity:0.588235;" d="M 36.121094 18.175781 C 35.710938 18.175781 35.300781 18.183594 34.886719 18.203125 C 36.070312 19.015625 37.246094 19.921875 38.402344 20.914062 C 43.285156 22.589844 46.761719 26.382812 47.039062 31.015625 C 47.042969 31.058594 47.046875 31.101562 47.046875 31.144531 C 47.152344 33.332031 46.527344 35.429688 45.355469 37.285156 C 42.941406 41.09375 38.203125 43.867188 32.632812 44.242188 C 33.070312 44.605469 33.507812 44.957031 33.941406 45.289062 C 33.953125 45.289062 33.957031 45.289062 33.964844 45.289062 C 38.847656 44.265625 43.152344 42.160156 46.328125 39.492188 C 47.582031 38.4375 48.664062 37.296875 49.535156 36.097656 C 51.414062 33.511719 52.3125 30.667969 51.902344 27.894531 C 51.023438 21.972656 44.433594 18.183594 36.121094 18.175781 Z M 30.238281 18.773438 C 30.171875 18.789062 30.105469 18.804688 30.035156 18.816406 C 25.203125 19.828125 20.941406 21.898438 17.777344 24.523438 C 16.519531 25.566406 15.433594 26.699219 14.554688 27.886719 C 12.617188 30.503906 11.679688 33.394531 12.097656 36.210938 C 12.34375 37.859375 13.027344 39.339844 14.070312 40.621094 C 15.171875 41.976562 16.671875 43.105469 18.464844 43.96875 C 21.4375 45.398438 25.214844 46.105469 29.347656 45.890625 C 28.296875 45.175781 27.25 44.386719 26.21875 43.53125 C 22.53125 42.402344 19.582031 40.089844 18.089844 37.113281 C 17.515625 35.957031 17.15625 34.699219 17.0625 33.375 C 17.058594 33.292969 17.054688 33.214844 17.046875 33.132812 C 17.046875 33.078125 17.042969 33.019531 17.042969 32.960938 C 16.976562 30.789062 17.621094 28.710938 18.8125 26.875 C 20.769531 23.859375 24.199219 21.507812 28.332031 20.511719 C 29.300781 20.277344 30.304688 20.117188 31.339844 20.042969 C 31.382812 20.039062 31.433594 20.035156 31.480469 20.03125 C 31.574219 20.027344 31.671875 20.019531 31.765625 20.015625 C 31.714844 19.96875 31.660156 19.921875 31.605469 19.878906 C 31.214844 19.550781 30.828125 19.234375 30.4375 18.933594 C 30.375 18.878906 30.304688 18.824219 30.238281 18.773438 Z M 30.238281 18.773438 "/>
<path style=" stroke:none;fill-rule:nonzero;fill:rgb(100%,100%,100%);fill-opacity:0.392157;" d="M 17.902344 28.574219 C 17.851562 28.6875 17.804688 28.804688 17.757812 28.921875 C 17.71875 29.015625 17.683594 29.109375 17.648438 29.207031 C 17.683594 29.109375 17.71875 29.015625 17.757812 28.921875 C 17.804688 28.804688 17.851562 28.691406 17.902344 28.574219 Z M 17.902344 28.574219 "/>
<path style=" stroke:none;fill-rule:nonzero;fill:rgb(100%,100%,100%);fill-opacity:0.392157;" d="M 17.296875 30.410156 C 17.273438 30.511719 17.25 30.613281 17.230469 30.714844 C 17.207031 30.828125 17.1875 30.9375 17.167969 31.050781 C 17.1875 30.9375 17.207031 30.828125 17.230469 30.714844 C 17.25 30.613281 17.273438 30.511719 17.296875 30.410156 Z M 17.296875 30.410156 "/>
<path style=" stroke:none;fill-rule:nonzero;fill:rgb(100%,100%,100%);fill-opacity:0.392157;" d="M 17.800781 32.15625 C 17.726562 32.277344 17.652344 32.394531 17.578125 32.511719 C 17.652344 32.394531 17.726562 32.273438 17.800781 32.15625 Z M 17.800781 32.15625 "/>
</g>
</svg>
