
<svg xmlns="http://www.w3.org/2000/svg" xmlns:xlink="http://www.w3.org/1999/xlink" width="64px" height="64px" viewBox="0 0 64 64" version="1.1">
<g id="surface1">
<path style="fill-rule:nonzero;fill:rgb(17.647059%,61.176471%,17.647059%);fill-opacity:1;stroke-width:5.178082;stroke-linecap:butt;stroke-linejoin:miter;stroke:rgb(49.411765%,88.627451%,49.411765%);stroke-opacity:1;stroke-miterlimit:4;" d="M 15.94336 5.589844 L 80.056646 5.589844 C 85.775396 5.589844 90.410162 10.22461 90.410162 15.94336 L 90.410162 80.056646 C 90.410162 85.775396 85.775396 90.410162 80.056646 90.410162 L 15.94336 90.410162 C 10.22461 90.410162 5.589844 85.775396 5.589844 80.056646 L 5.589844 15.94336 C 5.589844 10.22461 10.22461 5.589844 15.94336 5.589844 Z M 15.94336 5.589844 " transform="matrix(0.666667,0,0,0.666667,0,0)"/>
<path style=" stroke:none;fill-rule:nonzero;fill:rgb(78.431373%,71.764706%,71.764706%);fill-opacity:1;" d="M 16.414062 16.667969 L 46.96875 16.667969 L 46.96875 47.222656 L 16.414062 47.222656 Z M 16.414062 16.667969 "/>
<path style=" stroke:none;fill-rule:nonzero;fill:rgb(100%,100%,100%);fill-opacity:0.313725;" d="M 16.414062 16.667969 L 46.96875 16.667969 L 46.96875 17.464844 L 16.414062 17.464844 Z M 16.414062 16.667969 "/>
<path style=" stroke:none;fill-rule:nonzero;fill:rgb(16.862745%,0%,0%);fill-opacity:0.388235;" d="M 16.414062 46.429688 L 46.96875 46.429688 L 46.96875 47.222656 L 16.414062 47.222656 Z M 16.414062 46.429688 "/>
<path style=" stroke:none;fill-rule:nonzero;fill:rgb(43.529412%,54.117647%,56.862745%);fill-opacity:1;" d="M 19.386719 19.558594 L 43.996094 19.558594 L 43.996094 39.726562 L 19.386719 39.726562 Z M 19.386719 19.558594 "/>
<path style=" stroke:none;fill-rule:nonzero;fill:rgb(54.509804%,43.921569%,43.921569%);fill-opacity:1;" d="M 24.609375 43.007812 C 24.609375 44.195312 23.648438 45.15625 22.460938 45.15625 C 21.273438 45.15625 20.3125 44.195312 20.3125 43.007812 C 20.3125 41.820312 21.273438 40.859375 22.460938 40.859375 C 23.648438 40.859375 24.609375 41.820312 24.609375 43.007812 Z M 24.609375 43.007812 "/>
<path style=" stroke:none;fill-rule:nonzero;fill:rgb(54.509804%,43.921569%,43.921569%);fill-opacity:1;" d="M 43.148438 43.007812 C 43.148438 44.195312 42.1875 45.15625 41 45.15625 C 39.816406 45.15625 38.851562 44.195312 38.851562 43.007812 C 38.851562 41.820312 39.816406 40.859375 41 40.859375 C 42.1875 40.859375 43.148438 41.820312 43.148438 43.007812 Z M 43.148438 43.007812 "/>
<path style=" stroke:none;fill-rule:nonzero;fill:rgb(83.137255%,66.666667%,0%);fill-opacity:1;" d="M 24.609375 42.289062 C 24.609375 43.476562 23.648438 44.4375 22.460938 44.4375 C 21.273438 44.4375 20.3125 43.476562 20.3125 42.289062 C 20.3125 41.105469 21.273438 40.140625 22.460938 40.140625 C 23.648438 40.140625 24.609375 41.105469 24.609375 42.289062 Z M 24.609375 42.289062 "/>
<path style=" stroke:none;fill-rule:nonzero;fill:rgb(83.137255%,66.666667%,0%);fill-opacity:1;" d="M 43.148438 42.289062 C 43.148438 43.476562 42.1875 44.4375 41 44.4375 C 39.816406 44.4375 38.851562 43.476562 38.851562 42.289062 C 38.851562 41.105469 39.816406 40.140625 41 40.140625 C 42.1875 40.140625 43.148438 41.105469 43.148438 42.289062 Z M 43.148438 42.289062 "/>
<path style=" stroke:none;fill-rule:nonzero;fill:rgb(16.862745%,0%,0%);fill-opacity:0.388235;" d="M 26.359375 43.40625 L 37.023438 43.40625 L 37.023438 44.199219 L 26.359375 44.199219 Z M 26.359375 43.40625 "/>
<path style=" stroke:none;fill-rule:nonzero;fill:rgb(16.862745%,0%,0%);fill-opacity:0.388235;" d="M 26.359375 42.132812 L 37.023438 42.132812 L 37.023438 42.925781 L 26.359375 42.925781 Z M 26.359375 42.132812 "/>
<path style=" stroke:none;fill-rule:nonzero;fill:rgb(16.862745%,0%,0%);fill-opacity:0.388235;" d="M 26.359375 40.859375 L 37.023438 40.859375 L 37.023438 41.652344 L 26.359375 41.652344 Z M 26.359375 40.859375 "/>
</g>
</svg>
