
<svg xmlns="http://www.w3.org/2000/svg" xmlns:xlink="http://www.w3.org/1999/xlink" width="64px" height="64px" viewBox="0 0 64 64" version="1.1">
<g id="surface1">
<path style="fill-rule:nonzero;fill:rgb(96.078431%,31.764706%,14.117647%);fill-opacity:1;stroke-width:27.910587;stroke-linecap:butt;stroke-linejoin:miter;stroke:rgb(89.019608%,54.901961%,45.882353%);stroke-opacity:1;stroke-miterlimit:4;" d="M 83.21875 27.40625 L 428.78125 27.40625 C 459.625 27.40625 484.59375 52.375 484.59375 83.21875 L 484.59375 428.78125 C 484.59375 459.625 459.625 484.59375 428.78125 484.59375 L 83.21875 484.59375 C 52.375 484.59375 27.40625 459.625 27.40625 428.78125 L 27.40625 83.21875 C 27.40625 52.375 52.375 27.40625 83.21875 27.40625 Z M 83.21875 27.40625 " transform="matrix(0.125,0,0,0.125,0,0)"/>
<path style=" stroke:none;fill-rule:nonzero;fill:rgb(100%,100%,100%);fill-opacity:1;" d="M 26.902344 38.582031 C 25.25 38.46875 23.90625 38 22.816406 37.15625 C 22.332031 36.78125 21.800781 36.175781 21.492188 35.648438 C 21.417969 35.523438 21.320312 35.40625 21.304688 35.386719 L 21.304688 38.328125 L 16.65625 38.328125 L 16.644531 34.933594 C 16.632812 31.414062 16.625 31.242188 16.523438 30.820312 C 16.335938 30.050781 15.648438 29.75 14.925781 29.75 C 14.082031 29.726562 13.449219 30.070312 13.078125 30.851562 C 12.925781 31.277344 12.933594 31.039062 12.925781 34.84375 L 12.914062 38.328125 L 8.242188 38.328125 C 8.175781 35.128906 8.3125 31.921875 8.1875 28.722656 C 8.132812 28.203125 8.027344 27.777344 7.804688 27.167969 L 7.683594 26.832031 L 12.226562 26.847656 L 12.34375 27.085938 C 12.410156 27.226562 12.476562 27.410156 12.503906 27.53125 C 12.527344 27.644531 12.554688 27.738281 12.5625 27.738281 C 12.574219 27.738281 12.726562 27.640625 12.910156 27.519531 C 13.613281 27.046875 14.320312 26.78125 15.230469 26.644531 C 15.714844 26.574219 16.921875 26.582031 17.414062 26.660156 C 18.546875 26.835938 19.445312 27.222656 20.140625 27.832031 C 20.652344 28.277344 21.023438 28.96875 21.179688 29.777344 L 21.238281 30.066406 L 21.359375 29.839844 C 21.589844 29.398438 21.867188 29.023438 22.238281 28.636719 C 23.359375 27.472656 24.894531 26.796875 26.882812 26.582031 C 27.355469 26.53125 28.5625 26.539062 29.042969 26.597656 C 30.054688 26.714844 30.875 26.949219 31.632812 27.34375 C 32.226562 27.652344 32.671875 27.980469 33.136719 28.457031 C 33.574219 28.90625 33.960938 29.460938 34.210938 30 L 34.296875 30.179688 L 34.296875 29.644531 C 34.300781 28.519531 34.238281 27.894531 34.066406 27.238281 L 33.960938 26.816406 L 38.554688 26.855469 L 38.613281 27.046875 C 38.707031 27.347656 38.773438 27.726562 38.796875 28.054688 L 38.8125 28.355469 L 38.980469 28.128906 C 39.527344 27.386719 40.199219 26.925781 41.039062 26.714844 C 41.449219 26.613281 41.816406 26.578125 42.375 26.59375 C 42.839844 26.605469 43.144531 26.648438 43.6875 26.773438 L 43.828125 26.804688 C 43.828125 27.261719 43.828125 27.71875 43.828125 28.171875 C 43.832031 28.171875 43.949219 28.109375 44.058594 28.03125 C 45.804688 26.78125 48.296875 26.269531 50.667969 26.675781 C 51.972656 26.902344 53.203125 27.40625 54.132812 28.109375 C 55.746094 29.320312 56.542969 31.15625 56.34375 33.203125 C 56.207031 34.605469 55.554688 35.855469 54.46875 36.785156 C 53.035156 38.011719 50.988281 38.660156 48.75 38.601562 C 47.289062 38.558594 46.050781 38.257812 44.914062 37.660156 C 43.980469 37.175781 43.191406 36.472656 42.597656 35.609375 C 41.550781 34.035156 41.414062 31.921875 42.238281 30.15625 C 42.300781 30.019531 42.355469 29.902344 42.355469 29.898438 C 41.890625 29.738281 41.390625 29.742188 40.914062 29.84375 C 40.625 29.933594 40.441406 30.027344 40.1875 30.21875 C 39.578125 30.679688 39.222656 31.347656 39.070312 32.328125 C 38.992188 32.839844 38.980469 33.339844 38.980469 35.828125 L 38.980469 38.328125 L 34.3125 38.328125 L 34.3125 35.53125 L 34.175781 35.761719 C 33.96875 36.113281 33.726562 36.417969 33.417969 36.730469 C 32.3125 37.832031 30.734375 38.441406 28.632812 38.582031 C 28.195312 38.613281 27.34375 38.609375 26.902344 38.582031 Z M 30.339844 34.726562 L 34.324219 34.796875 L 34.324219 33.492188 L 25.289062 33.492188 L 25.308594 33.664062 C 25.320312 33.761719 25.351562 33.945312 25.386719 34.070312 C 25.605469 34.945312 26.273438 35.488281 27.328125 35.65625 C 28.523438 35.769531 29.515625 35.710938 30.339844 34.726562 Z M 50.285156 35.398438 C 51.054688 34.921875 51.523438 34.015625 51.613281 32.851562 C 51.675781 32.003906 51.460938 31.109375 51.042969 30.488281 C 50.90625 30.285156 50.613281 29.980469 50.4375 29.863281 C 49.816406 29.433594 49.054688 29.382812 48.332031 29.535156 C 47.21875 29.878906 46.539062 30.925781 46.480469 32.382812 C 46.4375 33.449219 46.734375 34.359375 47.328125 34.972656 C 47.695312 35.355469 48.03125 35.539062 48.546875 35.652344 C 49.140625 35.746094 49.75 35.675781 50.285156 35.398438 Z M 29.964844 30.957031 C 30.003906 30.917969 29.855469 30.410156 29.738281 30.1875 C 29.617188 29.957031 29.316406 29.683594 29.023438 29.542969 C 28.171875 29.132812 26.890625 29.210938 26.179688 29.71875 C 25.816406 29.980469 25.53125 30.390625 25.382812 30.878906 L 25.347656 30.992188 L 27.648438 30.984375 C 28.910156 30.976562 29.953125 30.964844 29.964844 30.957031 Z M 29.964844 30.957031 "/>
</g>
</svg>
