
<svg xmlns="http://www.w3.org/2000/svg" xmlns:xlink="http://www.w3.org/1999/xlink" width="64px" height="64px" viewBox="0 0 64 64" version="1.1">
<g id="surface1">
<path style="fill-rule:nonzero;fill:rgb(92.54902%,94.117647%,94.509804%);fill-opacity:1;stroke-width:2.526949;stroke-linecap:butt;stroke-linejoin:miter;stroke:rgb(47.843137%,27.058824%,13.333333%);stroke-opacity:1;stroke-miterlimit:4;" d="M 8.358398 3.304687 L 39.64453 3.304687 C 42.433592 3.304687 44.698241 5.566406 44.698241 8.358398 L 44.698241 39.64453 C 44.698241 42.433592 42.433592 44.698241 39.64453 44.698241 L 8.358398 44.698241 C 5.566406 44.698241 3.304687 42.433592 3.304687 39.64453 L 3.304687 8.358398 C 3.304687 5.566406 5.566406 3.304687 8.358398 3.304687 Z M 8.358398 3.304687 " transform="matrix(1.333333,0,0,1.333333,0,0)"/>
<path style=" stroke:none;fill-rule:nonzero;fill:rgb(17.254902%,53.72549%,76.862745%);fill-opacity:1;" d="M 44 5.875 L 54.667969 5.875 L 54.667969 20.542969 L 49.332031 16.542969 L 44 20.542969 Z M 44 5.875 "/>
<path style=" stroke:none;fill-rule:nonzero;fill:rgb(47.843137%,27.058824%,13.333333%);fill-opacity:1;" d="M 5.542969 4.929688 L 15.46875 4.929688 L 15.46875 58.433594 L 5.542969 58.433594 Z M 5.542969 4.929688 "/>
<path style=" stroke:none;fill-rule:nonzero;fill:rgb(17.254902%,53.72549%,76.862745%);fill-opacity:1;" d="M 47.472656 28.410156 C 47.800781 27.703125 47.976562 26.996094 47.976562 26.320312 C 47.976562 25.125 47.472656 24.140625 46.460938 23.375 C 45.394531 22.546875 43.878906 22.148438 41.917969 22.148438 C 41.53125 22.148438 41.117188 22.179688 40.730469 22.207031 C 37.433594 22.484375 34.195312 23.773438 31.015625 26.136719 C 28.164062 28.253906 26.234375 30.464844 25.195312 32.828125 C 24.394531 34.671875 23.976562 36.328125 23.976562 37.832031 C 23.976562 41.238281 26.117188 43.296875 29.234375 43.449219 C 29.679688 43.480469 30.097656 43.480469 30.484375 43.480469 C 35.324219 43.480469 39.691406 41.667969 43.582031 38.078125 C 46.105469 35.746094 47.382812 33.289062 47.382812 30.742188 C 47.382812 30.15625 47.292969 29.574219 47.144531 29.054688 Z M 46.757812 28.132812 C 45.925781 26.566406 44.472656 25.523438 42.394531 25 C 41.265625 24.726562 40.3125 24.601562 39.542969 24.601562 C 38.679688 24.601562 37.789062 24.753906 36.867188 25.0625 C 36.839844 25.09375 36.808594 25.125 36.808594 25.15625 C 36.808594 25.214844 37.34375 25.277344 38.382812 25.308594 C 39.632812 25.339844 40.550781 25.429688 41.117188 25.585938 C 42.214844 25.921875 43.164062 26.445312 43.96875 27.179688 C 44.886719 28.007812 45.421875 28.992188 45.570312 30.128906 C 44.886719 30.988281 43.847656 32.03125 42.453125 33.289062 L 40.789062 34.703125 C 40.105469 35.285156 39.839844 35.5625 40.015625 35.5625 C 40.046875 35.5625 40.136719 35.53125 40.253906 35.5 C 42.777344 33.902344 44.5625 32.523438 45.601562 31.324219 C 45.394531 33.445312 44.027344 35.652344 41.5 37.984375 C 37.730469 41.453125 33.71875 43.082031 29.53125 42.835938 C 26.886719 42.683594 25.582031 41.238281 25.582031 38.570312 C 25.582031 36.910156 26.117188 35.007812 27.214844 32.890625 C 28.699219 29.972656 30.71875 27.609375 33.273438 25.769531 C 36.035156 23.773438 38.886719 22.792969 41.886719 22.792969 C 44.054688 22.792969 45.542969 23.40625 46.402344 24.632812 C 46.847656 25.277344 47.054688 25.921875 47.054688 26.628906 C 47.054688 27.121094 46.96875 27.609375 46.757812 28.132812 Z M 46.757812 28.132812 "/>
</g>
</svg>
