
<svg xmlns="http://www.w3.org/2000/svg" xmlns:xlink="http://www.w3.org/1999/xlink" width="64px" height="64px" viewBox="0 0 64 64" version="1.1">
<g id="surface1">
<path style="fill-rule:nonzero;fill:rgb(41.176471%,41.176471%,41.176471%);fill-opacity:1;stroke-width:27.746531;stroke-linecap:butt;stroke-linejoin:miter;stroke:rgb(59.607843%,63.137255%,67.45098%);stroke-opacity:1;stroke-miterlimit:4;" d="M 84.218747 30.919492 L 427.749997 30.919492 C 458.406247 30.919492 483.249997 55.763242 483.249997 86.419492 L 483.249997 429.919492 C 483.249997 460.575742 458.406247 485.419492 427.749997 485.419492 L 84.218747 485.419492 C 53.593747 485.419492 28.749997 460.575742 28.749997 429.919492 L 28.749997 86.419492 C 28.749997 55.763242 53.593747 30.919492 84.218747 30.919492 Z M 84.218747 30.919492 " transform="matrix(0.125,0,0,0.125,0.000000321823,-0.271186)"/>
<path style=" stroke:none;fill-rule:nonzero;fill:rgb(100%,100%,100%);fill-opacity:1;" d="M 56.273438 32.011719 C 56.273438 18.804688 45.492188 8.101562 32.1875 8.101562 C 18.886719 8.101562 8.101562 18.804688 8.101562 32.011719 C 8.101562 45.214844 18.886719 55.917969 32.1875 55.917969 C 45.492188 55.917969 56.273438 45.214844 56.273438 32.011719 Z M 56.273438 32.011719 "/>
<path style=" stroke:none;fill-rule:nonzero;fill:rgb(41.176471%,41.176471%,41.176471%);fill-opacity:1;" d="M 30.226562 57.878906 C 23.652344 57.1875 18.101562 54.628906 13.742188 50.28125 C 9.160156 45.710938 6.597656 40.039062 6.015625 33.1875 C 5.773438 30.335938 6.332031 26.5 7.476562 23.144531 C 8.027344 21.527344 9.421875 18.71875 10.371094 17.296875 C 14.207031 11.574219 20.085938 7.574219 26.742188 6.15625 C 30.675781 5.320312 33.675781 5.320312 37.609375 6.15625 C 44.265625 7.574219 50.144531 11.574219 53.976562 17.296875 C 54.929688 18.71875 56.320312 21.527344 56.875 23.144531 C 58.019531 26.5 58.578125 30.335938 58.335938 33.1875 C 57.835938 39.070312 55.960938 43.890625 52.480469 48.214844 C 49.15625 52.34375 44.335938 55.515625 39.253906 56.90625 C 38.089844 57.226562 37.074219 57.4375 35.109375 57.765625 C 34.210938 57.914062 31.234375 57.984375 30.226562 57.878906 Z M 33.753906 47.457031 C 33.789062 47.367188 33.816406 41.632812 33.816406 34.714844 L 33.816406 22.136719 L 34.046875 21.679688 C 34.265625 21.242188 34.300781 21.21875 34.769531 21.1875 C 35.222656 21.160156 35.296875 21.1875 35.652344 21.546875 C 35.941406 21.835938 36.074219 22.078125 36.160156 22.480469 C 36.238281 22.847656 36.277344 24.75 36.277344 28.296875 L 36.277344 33.570312 L 36.5625 33.71875 C 37.382812 34.140625 38.273438 34.339844 39.355469 34.339844 C 40.367188 34.34375 40.472656 34.324219 41.117188 34.003906 C 43.207031 32.976562 44.085938 30.703125 43.851562 26.945312 C 43.5625 22.3125 41.570312 20.085938 36.039062 18.203125 C 32.289062 16.929688 27.238281 15.605469 27.007812 15.839844 C 26.863281 15.984375 26.917969 45.363281 27.0625 45.519531 C 27.164062 45.625 33.238281 47.59375 33.523438 47.609375 C 33.617188 47.613281 33.71875 47.546875 33.753906 47.457031 Z M 40.683594 45.195312 C 43.589844 44.148438 46.863281 42.972656 47.964844 42.578125 C 50.363281 41.714844 51.425781 41.183594 52.132812 40.496094 C 53.566406 39.097656 52.800781 37.734375 49.984375 36.683594 C 45.691406 35.078125 40.675781 34.960938 35.917969 36.355469 C 34.800781 36.683594 34.839844 36.597656 34.839844 38.65625 C 34.839844 39.628906 34.867188 40.5 34.902344 40.589844 C 34.9375 40.675781 35.046875 40.75 35.144531 40.75 C 35.242188 40.75 36.839844 40.214844 38.695312 39.5625 C 42.804688 38.113281 43.296875 37.984375 44.550781 37.984375 C 46.085938 37.984375 46.902344 38.292969 46.644531 38.777344 C 46.488281 39.066406 45.875 39.308594 40.222656 41.3125 C 37.402344 42.3125 35.039062 43.207031 34.96875 43.292969 C 34.878906 43.410156 34.839844 43.960938 34.839844 45.210938 C 34.839844 47.007812 34.898438 47.289062 35.25 47.152344 C 35.335938 47.121094 37.78125 46.238281 40.683594 45.195312 Z M 24.894531 43.828125 C 25.261719 43.757812 25.621094 43.628906 25.691406 43.539062 C 25.824219 43.367188 25.882812 40.621094 25.757812 40.296875 C 25.664062 40.054688 25.460938 40.089844 24.070312 40.605469 C 21.96875 41.375 21.65625 41.464844 20.699219 41.5625 C 19.210938 41.71875 17.824219 41.425781 17.824219 40.960938 C 17.824219 40.5625 18.222656 40.394531 23.765625 38.429688 C 24.695312 38.101562 25.539062 37.75 25.636719 37.652344 C 25.796875 37.492188 25.820312 37.261719 25.820312 35.785156 C 25.820312 34.859375 25.792969 34.03125 25.757812 33.941406 C 25.679688 33.738281 25.421875 33.734375 24.925781 33.929688 C 24.710938 34.011719 22.4375 34.820312 19.875 35.730469 C 13.804688 37.875 12.027344 38.734375 11.660156 39.703125 C 11.523438 40.0625 11.550781 40.722656 11.714844 41.042969 C 11.953125 41.503906 12.773438 42.1875 13.460938 42.496094 C 14.671875 43.046875 17.371094 43.730469 19.257812 43.964844 C 19.96875 44.054688 24.246094 43.949219 24.894531 43.828125 Z M 24.894531 43.828125 "/>
</g>
</svg>
