
<svg xmlns="http://www.w3.org/2000/svg" xmlns:xlink="http://www.w3.org/1999/xlink" width="64px" height="64px" viewBox="0 0 64 64" version="1.1">
<g id="surface1">
<path style="fill-rule:nonzero;fill:rgb(80.392157%,61.176471%,42.745098%);fill-opacity:1;stroke-width:27.746531;stroke-linecap:butt;stroke-linejoin:miter;stroke:rgb(32.54902%,29.019608%,23.529412%);stroke-opacity:1;stroke-miterlimit:4;" d="M 84.25 28.75 L 427.75 28.75 C 458.40625 28.75 483.25 53.59375 483.25 84.25 L 483.25 427.75 C 483.25 458.40625 458.40625 483.25 427.75 483.25 L 84.25 483.25 C 53.59375 483.25 28.75 458.40625 28.75 427.75 L 28.75 84.25 C 28.75 53.59375 53.59375 28.75 84.25 28.75 Z M 84.25 28.75 " transform="matrix(0.125,0,0,0.125,0,0)"/>
<path style=" stroke:none;fill-rule:nonzero;fill:rgb(32.54902%,29.019608%,23.529412%);fill-opacity:1;" d="M 16.875 48.394531 L 15.75 47.347656 L 16 47.070312 C 16.136719 46.914062 18.742188 44.082031 21.792969 40.773438 C 26.777344 35.367188 27.371094 34.765625 27.6875 34.792969 C 27.988281 34.816406 28.210938 34.632812 29.25 33.511719 C 29.917969 32.792969 30.4375 32.132812 30.402344 32.042969 C 30.371094 31.957031 30.054688 31.46875 29.703125 30.960938 C 28.597656 29.355469 27.933594 27.1875 27.9375 25.171875 C 27.945312 20.324219 31.296875 16.132812 36.0625 15.007812 C 37.367188 14.699219 39.542969 14.726562 40.875 15.066406 C 43.820312 15.820312 46.296875 17.8125 47.632812 20.511719 C 48.457031 22.175781 48.71875 23.308594 48.71875 25.199219 C 48.71875 27.039062 48.464844 28.171875 47.691406 29.765625 C 45.058594 35.207031 38.324219 37.210938 33.019531 34.125 L 32.039062 33.558594 L 31.128906 34.535156 C 29.574219 36.207031 29.496094 36.316406 29.664062 36.585938 C 29.796875 36.796875 29.175781 37.511719 23.988281 43.136719 C 20.785156 46.609375 18.128906 49.445312 18.082031 49.445312 C 18.035156 49.441406 17.492188 48.96875 16.875 48.394531 Z M 40.664062 32.929688 C 42.019531 32.515625 42.917969 31.964844 44.011719 30.886719 C 45.738281 29.179688 46.53125 27.140625 46.40625 24.714844 C 46.242188 21.386719 44.039062 18.511719 40.882812 17.496094 C 34.75 15.523438 28.964844 20.972656 30.519531 27.25 C 31.414062 30.859375 35.039062 33.488281 38.789062 33.25 C 39.363281 33.214844 40.207031 33.070312 40.664062 32.929688 Z M 40.664062 32.929688 "/>
<path style=" stroke:none;fill-rule:evenodd;fill:rgb(86.666667%,70.980392%,46.666667%);fill-opacity:1;" d="M 37.695312 20.746094 C 37.695312 21.570312 36.996094 22.238281 36.136719 22.238281 C 35.273438 22.238281 34.578125 21.570312 34.578125 20.746094 C 34.578125 19.921875 35.273438 19.253906 36.136719 19.253906 C 36.996094 19.253906 37.695312 19.921875 37.695312 20.746094 Z M 37.695312 20.746094 "/>
</g>
</svg>
