
<svg xmlns="http://www.w3.org/2000/svg" xmlns:xlink="http://www.w3.org/1999/xlink" width="64px" height="64px" viewBox="0 0 64 64" version="1.1">
<g id="surface1">
<path style="fill-rule:nonzero;fill:rgb(100%,100%,100%);fill-opacity:1;stroke-width:27.746531;stroke-linecap:butt;stroke-linejoin:miter;stroke:rgb(52.54902%,56.470588%,58.039216%);stroke-opacity:1;stroke-miterlimit:4;" d="M 84.25 28.75 L 427.75 28.75 C 458.40625 28.75 483.25 53.59375 483.25 84.25 L 483.25 427.75 C 483.25 458.40625 458.40625 483.25 427.75 483.25 L 84.25 483.25 C 53.59375 483.25 28.75 458.40625 28.75 427.75 L 28.75 84.25 C 28.75 53.59375 53.59375 28.75 84.25 28.75 Z M 84.25 28.75 " transform="matrix(0.125,0,0,0.125,0,0)"/>
<path style=" stroke:none;fill-rule:nonzero;fill:rgb(100%,100%,100%);fill-opacity:1;" d="M 46.015625 32.339844 C 46.015625 24.796875 39.753906 18.683594 32.03125 18.683594 C 24.308594 18.683594 18.046875 24.796875 18.046875 32.339844 C 18.046875 39.878906 24.308594 45.992188 32.03125 45.992188 C 39.753906 45.992188 46.015625 39.878906 46.015625 32.339844 Z M 46.015625 32.339844 "/>
<path style=" stroke:none;fill-rule:nonzero;fill:rgb(52.54902%,56.470588%,58.039216%);fill-opacity:1;" d="M 29.03125 53.75 C 28.65625 53.582031 28.257812 53.152344 28.078125 52.726562 C 27.988281 52.503906 27.894531 51.660156 27.816406 50.304688 C 27.75 49.160156 27.664062 48.132812 27.621094 48.019531 C 27.566406 47.871094 27.304688 47.734375 26.652344 47.503906 C 26.15625 47.332031 25.414062 47.019531 25 46.8125 C 24.582031 46.601562 24.152344 46.433594 24.042969 46.433594 C 23.917969 46.433594 23.242188 46.984375 22.273438 47.871094 C 21.410156 48.660156 20.566406 49.382812 20.394531 49.46875 C 20.046875 49.648438 19.253906 49.675781 18.847656 49.527344 C 18.523438 49.40625 15.097656 46.027344 14.875 45.609375 C 14.65625 45.199219 14.679688 44.429688 14.925781 43.960938 C 15.039062 43.75 15.761719 42.890625 16.535156 42.046875 C 17.371094 41.144531 17.945312 40.441406 17.945312 40.328125 C 17.945312 40.222656 17.773438 39.796875 17.566406 39.378906 C 17.359375 38.964844 17.046875 38.222656 16.875 37.730469 C 16.703125 37.242188 16.492188 36.800781 16.40625 36.757812 C 16.320312 36.714844 15.316406 36.625 14.167969 36.5625 C 12.839844 36.488281 11.941406 36.394531 11.683594 36.300781 C 11.1875 36.125 10.621094 35.519531 10.539062 35.085938 C 10.507812 34.910156 10.492188 33.601562 10.507812 32.183594 L 10.539062 29.601562 L 10.835938 29.230469 C 11.359375 28.574219 11.605469 28.507812 14.109375 28.351562 C 15.527344 28.265625 16.390625 28.171875 16.460938 28.101562 C 16.523438 28.039062 16.734375 27.550781 16.933594 27.019531 C 17.132812 26.484375 17.441406 25.757812 17.621094 25.398438 C 17.800781 25.042969 17.945312 24.667969 17.945312 24.574219 C 17.945312 24.476562 17.355469 23.75 16.628906 22.953125 C 15.90625 22.15625 15.210938 21.375 15.089844 21.214844 C 14.746094 20.757812 14.628906 20.191406 14.761719 19.640625 C 14.867188 19.222656 15.054688 18.996094 16.628906 17.398438 C 17.59375 16.421875 18.542969 15.539062 18.742188 15.441406 C 19.199219 15.203125 19.929688 15.199219 20.382812 15.433594 C 20.574219 15.53125 21.417969 16.238281 22.253906 17.003906 C 23.089844 17.773438 23.828125 18.433594 23.898438 18.472656 C 23.972656 18.515625 24.421875 18.355469 24.96875 18.097656 C 25.492188 17.847656 26.269531 17.527344 26.699219 17.382812 C 27.285156 17.1875 27.511719 17.0625 27.589844 16.890625 C 27.652344 16.761719 27.753906 15.722656 27.820312 14.578125 C 27.945312 12.375 28.019531 12.027344 28.472656 11.550781 C 28.980469 11.023438 29.269531 10.980469 32.09375 11.011719 L 34.664062 11.042969 L 35.066406 11.308594 C 35.757812 11.765625 35.839844 12.050781 36.003906 14.503906 C 36.082031 15.6875 36.167969 16.75 36.195312 16.863281 C 36.234375 17.023438 36.445312 17.140625 37.132812 17.378906 C 37.625 17.550781 38.40625 17.882812 38.875 18.117188 C 39.34375 18.355469 39.765625 18.546875 39.8125 18.546875 C 39.859375 18.546875 40.609375 17.890625 41.484375 17.085938 C 42.359375 16.285156 43.234375 15.546875 43.433594 15.441406 C 43.898438 15.199219 44.59375 15.199219 45.105469 15.445312 C 45.347656 15.566406 46.171875 16.3125 47.207031 17.359375 C 48.984375 19.152344 49.121094 19.359375 49.125 20.171875 C 49.125 20.746094 48.867188 21.121094 47.339844 22.796875 C 46.511719 23.707031 45.832031 24.492188 45.832031 24.539062 C 45.832031 24.585938 46.046875 25.074219 46.3125 25.628906 C 46.578125 26.179688 46.894531 26.953125 47.015625 27.34375 C 47.167969 27.832031 47.296875 28.085938 47.429688 28.140625 C 47.535156 28.1875 48.605469 28.285156 49.808594 28.359375 C 52.195312 28.511719 52.578125 28.609375 52.976562 29.171875 C 53.355469 29.703125 53.398438 30.101562 53.367188 32.699219 L 53.335938 35.183594 L 53.042969 35.597656 C 52.523438 36.339844 52.390625 36.378906 49.746094 36.550781 C 48.453125 36.636719 47.371094 36.726562 47.34375 36.753906 C 47.316406 36.78125 47.15625 37.195312 46.988281 37.671875 C 46.820312 38.148438 46.488281 38.925781 46.25 39.398438 C 46.015625 39.867188 45.835938 40.3125 45.851562 40.382812 C 45.867188 40.453125 46.511719 41.199219 47.285156 42.042969 C 48.054688 42.882812 48.785156 43.765625 48.90625 44 C 49.160156 44.503906 49.183594 45.035156 48.972656 45.539062 C 48.789062 45.980469 45.644531 49.175781 45.132812 49.441406 C 44.707031 49.664062 43.929688 49.6875 43.480469 49.492188 C 43.308594 49.417969 42.449219 48.699219 41.570312 47.894531 C 40.695312 47.089844 39.902344 46.433594 39.820312 46.433594 C 39.734375 46.433594 39.238281 46.632812 38.71875 46.875 C 38.199219 47.117188 37.429688 47.429688 37.007812 47.566406 C 36.425781 47.757812 36.230469 47.867188 36.195312 48.023438 C 36.167969 48.132812 36.082031 49.195312 36.003906 50.378906 C 35.832031 52.988281 35.730469 53.269531 34.824219 53.730469 C 34.558594 53.863281 34.125 53.886719 31.917969 53.882812 C 29.964844 53.882812 29.25 53.847656 29.03125 53.75 Z M 32.859375 42.167969 C 35.199219 41.921875 37.152344 40.988281 38.820312 39.324219 C 40.089844 38.050781 40.90625 36.625 41.398438 34.832031 C 41.710938 33.703125 41.707031 31.214844 41.398438 30.074219 C 40.453125 26.613281 37.976562 24.066406 34.550781 23.035156 C 33.753906 22.796875 33.539062 22.773438 31.984375 22.765625 C 30.5 22.757812 30.191406 22.785156 29.46875 22.984375 C 25.863281 23.964844 23.109375 26.863281 22.355469 30.457031 C 21.679688 33.683594 22.667969 36.980469 25.023438 39.347656 C 26.257812 40.589844 27.859375 41.5 29.59375 41.945312 C 30.089844 42.074219 30.792969 42.171875 31.792969 42.253906 C 31.871094 42.257812 32.351562 42.222656 32.859375 42.167969 Z M 30.457031 38.109375 C 27.988281 37.441406 26.257812 35.339844 26.105469 32.820312 C 26 31.058594 26.566406 29.570312 27.816406 28.324219 C 30.09375 26.054688 33.730469 26.03125 35.980469 28.273438 C 37.832031 30.121094 38.277344 32.75 37.125 35.054688 C 36.148438 37.019531 34.34375 38.175781 32.132812 38.261719 C 31.378906 38.292969 31.003906 38.257812 30.457031 38.109375 Z M 33.21875 35.667969 C 33.898438 35.414062 34.714844 34.65625 35.054688 33.960938 C 35.296875 33.46875 35.328125 33.304688 35.328125 32.441406 C 35.328125 31.523438 35.308594 31.441406 34.996094 30.859375 C 34.359375 29.6875 33.414062 29.09375 32.082031 29.027344 C 31.011719 28.972656 30.371094 29.199219 29.597656 29.90625 C 28.617188 30.800781 28.230469 32.046875 28.542969 33.273438 C 28.816406 34.335938 29.394531 35.058594 30.363281 35.550781 C 31.269531 36.011719 32.203125 36.046875 33.21875 35.667969 Z M 33.21875 35.667969 "/>
</g>
</svg>
