
<svg xmlns="http://www.w3.org/2000/svg" xmlns:xlink="http://www.w3.org/1999/xlink" width="64px" height="64px" viewBox="0 0 64 64" version="1.1">
<g id="surface1">
<path style="fill-rule:nonzero;fill:rgb(100%,100%,100%);fill-opacity:1;stroke-width:7.865799;stroke-linecap:butt;stroke-linejoin:miter;stroke:rgb(97.647059%,87.058824%,41.176471%);stroke-opacity:1;stroke-miterlimit:4;" d="M -14.562424 274.716661 L 82.821884 274.716661 C 91.509037 274.716661 98.555773 281.763398 98.555773 290.450551 L 98.555773 387.834859 C 98.555773 396.522011 91.509037 403.568748 82.821884 403.568748 L -14.562424 403.568748 C -23.249577 403.568748 -30.296313 396.522011 -30.296313 387.834859 L -30.296313 290.450551 C -30.296313 281.763398 -23.249577 274.716661 -14.562424 274.716661 Z M -14.562424 274.716661 " transform="matrix(0.442913,0,0,0.442913,16.883486,-118.21084)"/>
<path style=" stroke:none;fill-rule:evenodd;fill:rgb(97.647059%,87.058824%,41.176471%);fill-opacity:1;" d="M 32 10.535156 C 26.3125 10.535156 21.710938 15.132812 21.710938 20.824219 C 21.710938 24.8125 23.960938 28.289062 27.273438 30.003906 L 27.273438 50.683594 L 31.898438 53.464844 C 31.9375 38.585938 31.972656 31.210938 31.964844 31.144531 C 31.976562 31.144531 31.988281 31.144531 32 31.144531 C 37.6875 31.144531 42.289062 26.511719 42.289062 20.824219 C 42.289062 15.132812 37.6875 10.535156 32 10.535156 Z M 31.964844 13.585938 C 33.65625 13.585938 35.015625 14.945312 35.015625 16.632812 C 35.015625 18.324219 33.65625 19.683594 31.964844 19.683594 C 30.277344 19.683594 28.917969 18.324219 28.917969 16.632812 C 28.917969 14.945312 30.277344 13.585938 31.964844 13.585938 Z M 31.964844 13.585938 "/>
<path style=" stroke:none;fill-rule:evenodd;fill:rgb(100%,78.431373%,19.215686%);fill-opacity:1;" d="M 31.894531 53.457031 L 36.644531 50.683594 C 36.644531 50.109375 36.644531 49.28125 36.644531 48.207031 L 34.523438 45.941406 L 36.644531 44.070312 L 36.644531 43.363281 L 34.507812 41.15625 L 36.644531 38.867188 L 34.488281 36.550781 L 36.644531 34.484375 C 36.644531 32.003906 36.644531 30.472656 36.644531 29.894531 C 35.53125 30.398438 33.707031 31.054688 31.941406 31.03125 C 31.933594 31.03125 31.90625 38.496094 31.894531 53.457031 Z M 31.894531 53.457031 "/>
</g>
</svg>
