
<svg xmlns="http://www.w3.org/2000/svg" xmlns:xlink="http://www.w3.org/1999/xlink" width="64px" height="64px" viewBox="0 0 64 64" version="1.1">
<g id="surface1">
<path style=" stroke:none;fill-rule:nonzero;fill:rgb(86.27451%,17.647059%,17.647059%);fill-opacity:1;" d="M 12.183594 3.832031 L 52.257812 3.832031 C 56.863281 3.832031 60.59375 7.5625 60.59375 12.164062 L 60.59375 52.242188 C 60.59375 56.84375 56.863281 60.578125 52.257812 60.578125 L 12.183594 60.578125 C 7.578125 60.578125 3.847656 56.84375 3.847656 52.242188 L 3.847656 12.164062 C 3.847656 7.5625 7.578125 3.832031 12.183594 3.832031 Z M 12.183594 3.832031 "/>
<path style="fill:none;stroke-width:2;stroke-linecap:butt;stroke-linejoin:miter;stroke:rgb(100%,100%,100%);stroke-opacity:1;stroke-miterlimit:4;" d="M 305.564123 72.498809 L 309.500239 72.498809 L 309.500239 69.186486 L 310.281264 68.405133 L 311.499291 68.405133 L 312.590246 66.51763 L 323.375826 66.51763 L 324.500874 67.57169 L 324.500874 68.625751 L 325.511247 69.499027 L 327.501 69.499027 L 327.501 71.499903 L 329.500052 71.499903 L 329.500052 69.499027 L 332.063177 69.499027 C 332.063177 69.499027 333.436169 72.93698 333.374183 74.625314 C 333.312197 76.313649 332.887592 80.499249 332.187149 80.499249 L 329.500052 80.499249 L 329.500052 78.56272 L 326.041228 78.56272 L 326.041228 79.938513 L 324.02668 81.51654 L 316.312511 81.51654 L 313.067539 77.496403 L 310.126299 77.557686 L 309.472346 76.966309 L 309.472346 72.624438 " transform="matrix(1.260363,0,0,1.274832,-369.563235,-61.220695)"/>
<path style="fill:none;stroke-width:2;stroke-linecap:butt;stroke-linejoin:miter;stroke:rgb(100%,100%,100%);stroke-opacity:1;stroke-miterlimit:4;" d="M 314.00043 63.499463 L 321.999735 63.499463 " transform="matrix(1.260363,0,0,1.274832,-369.563235,-61.220695)"/>
<path style="fill:none;stroke-width:2;stroke-linecap:butt;stroke-linejoin:miter;stroke:rgb(100%,100%,100%);stroke-opacity:1;stroke-miterlimit:4;" d="M 315.999481 63.998916 L 320.000683 63.998916 L 320.000683 65.999792 L 315.999481 65.999792 Z M 315.999481 63.998916 " transform="matrix(1.260363,0,0,1.274832,-369.563235,-61.220695)"/>
<path style="fill:none;stroke-width:3;stroke-linecap:butt;stroke-linejoin:miter;stroke:rgb(100%,100%,100%);stroke-opacity:1;stroke-miterlimit:4;" d="M 304.501061 67.46751 L 304.501061 71.843086 L 305.499037 74.812226 L 305.499037 76.99695 " transform="matrix(1.260363,0,0,1.274832,-369.563235,-61.220695)"/>
<path style="fill-rule:nonzero;fill:rgb(100%,100%,100%);fill-opacity:1;stroke-width:1.015513;stroke-linecap:butt;stroke-linejoin:miter;stroke:rgb(86.27451%,17.647059%,17.647059%);stroke-opacity:1;stroke-miterlimit:4;" d="M 82.023438 63.265625 L 62.695312 74.578125 L 65.585938 63.265625 C 66.132812 63.03125 70.453125 63.507812 70.796875 63.265625 L 77.195312 52.148438 L 73.78125 52.070312 C 73.78125 52.070312 72.703125 52.007812 72.484375 51.125 C 72.203125 50 72.359375 49.4375 73.25 48.40625 L 86.171875 27.9375 L 102.03125 27.9375 L 82.25 44.890625 L 93.898438 44.90625 L 74.640625 63.265625 Z M 82.023438 63.265625 " transform="matrix(0.5,0,0,0.5,0,0)"/>
</g>
</svg>
