
<svg xmlns="http://www.w3.org/2000/svg" xmlns:xlink="http://www.w3.org/1999/xlink" width="64px" height="64px" viewBox="0 0 64 64" version="1.1">
<g id="surface1">
<path style="fill-rule:nonzero;fill:rgb(5.490196%,39.607843%,66.666667%);fill-opacity:1;stroke-width:6.998944;stroke-linecap:butt;stroke-linejoin:miter;stroke:rgb(6.666667%,20.392157%,31.372549%);stroke-opacity:1;stroke-miterlimit:4;" d="M 20.671875 6.671875 L 107.328125 6.671875 C 115.054688 6.671875 121.328125 12.945312 121.328125 20.671875 L 121.328125 107.328125 C 121.328125 115.054688 115.054688 121.328125 107.328125 121.328125 L 20.671875 121.328125 C 12.945312 121.328125 6.671875 115.054688 6.671875 107.328125 L 6.671875 20.671875 C 6.671875 12.945312 12.945312 6.671875 20.671875 6.671875 Z M 20.671875 6.671875 " transform="matrix(0.5,0,0,0.5,0,0)"/>
<path style=" stroke:none;fill-rule:nonzero;fill:rgb(100%,100%,100%);fill-opacity:1;" d="M 57.304688 29.703125 C 58.429688 60.828125 19.3125 55.90625 19.488281 39.71875 L 11.488281 39.71875 L 23.933594 26.773438 L 36.984375 39.71875 C 36.984375 39.71875 28.738281 39.71875 28.738281 39.71875 C 28.238281 50.652344 57.078125 53.851562 57.304688 29.703125 Z M 57.304688 29.703125 "/>
<path style=" stroke:none;fill-rule:nonzero;fill:rgb(100%,100%,100%);fill-opacity:1;" d="M 6.570312 34.296875 C 5.441406 3.171875 44.675781 8.09375 44.5 24.28125 L 52.5 24.28125 L 40.054688 37.226562 L 27.003906 24.28125 C 27.003906 24.28125 35.253906 24.28125 35.253906 24.28125 C 35.753906 13.347656 6.796875 10.148438 6.570312 34.296875 Z M 6.570312 34.296875 "/>
</g>
</svg>
