
<svg xmlns="http://www.w3.org/2000/svg" xmlns:xlink="http://www.w3.org/1999/xlink" width="64px" height="64px" viewBox="0 0 64 64" version="1.1">
<g id="surface1">
<path style=" stroke:none;fill-rule:nonzero;fill:rgb(38.823529%,47.843137%,50.980392%);fill-opacity:1;" d="M 22.84375 14.21875 L 41.15625 14.21875 L 41.15625 2.773438 L 22.84375 2.773438 Z M 22.84375 14.21875 "/>
<path style=" stroke:none;fill-rule:nonzero;fill:rgb(100%,100%,100%);fill-opacity:0.654902;" d="M 25.492188 10.003906 L 30.070312 10.003906 L 30.070312 5.421875 L 25.492188 5.421875 Z M 25.492188 10.003906 "/>
<path style=" stroke:none;fill-rule:nonzero;fill:rgb(1.960784%,20.784314%,24.705882%);fill-opacity:0.654902;" d="M 25.132812 9.640625 L 29.710938 9.640625 L 29.710938 5.0625 L 25.132812 5.0625 Z M 25.132812 9.640625 "/>
<path style=" stroke:none;fill-rule:nonzero;fill:rgb(100%,100%,100%);fill-opacity:0.654902;" d="M 34.648438 10.003906 L 39.226562 10.003906 L 39.226562 5.421875 L 34.648438 5.421875 Z M 34.648438 10.003906 "/>
<path style=" stroke:none;fill-rule:nonzero;fill:rgb(1.960784%,20.784314%,24.705882%);fill-opacity:0.654902;" d="M 34.289062 9.640625 L 38.867188 9.640625 L 38.867188 5.0625 L 34.289062 5.0625 Z M 34.289062 9.640625 "/>
<path style="fill-rule:nonzero;fill:rgb(14.509804%,68.235294%,87.45098%);fill-opacity:1;stroke-width:2.44179;stroke-linecap:butt;stroke-linejoin:miter;stroke:rgb(14.509804%,68.235294%,87.45098%);stroke-opacity:1;stroke-miterlimit:4;" d="M 423.38393 449.45425 L 473.75893 449.45425 C 475.837055 449.45425 477.516743 451.14175 477.516743 453.219875 L 477.516743 537.26675 C 477.516743 539.344875 475.837055 541.032375 473.75893 541.032375 L 423.38393 541.032375 C 421.305805 541.032375 419.626118 539.344875 419.626118 537.26675 L 419.626118 453.219875 C 419.626118 451.14175 421.305805 449.45425 423.38393 449.45425 Z M 423.38393 449.45425 " transform="matrix(0.5,0,0,0.5,-192.285715,-209.899)"/>
<path style=" stroke:none;fill-rule:nonzero;fill:rgb(92.54902%,94.117647%,94.509804%);fill-opacity:1;" d="M 36.0625 32.511719 L 36.0625 27.992188 L 40.597656 27.992188 L 40.597656 32.511719 Z M 36.0625 32.511719 "/>
<path style=" stroke:none;fill-rule:nonzero;fill:rgb(92.54902%,94.117647%,94.509804%);fill-opacity:1;" d="M 31.90625 49.585938 C 33.605469 49.585938 34.984375 50.960938 34.984375 52.660156 C 34.984375 54.359375 33.605469 55.738281 31.90625 55.738281 C 30.203125 55.738281 28.824219 54.359375 28.824219 52.660156 C 28.824219 50.960938 30.203125 49.585938 31.90625 49.585938 Z M 31.90625 49.585938 "/>
<path style=" stroke:none;fill-rule:nonzero;fill:rgb(92.54902%,94.117647%,94.509804%);fill-opacity:1;" d="M 26.128906 31.964844 C 27.636719 31.964844 28.859375 33.1875 28.859375 34.691406 C 28.859375 36.195312 27.636719 37.414062 26.128906 37.414062 C 24.625 37.414062 23.402344 36.195312 23.402344 34.691406 C 23.402344 33.1875 24.625 31.964844 26.128906 31.964844 Z M 26.128906 31.964844 "/>
<path style=" stroke:none;fill-rule:evenodd;fill:rgb(92.54902%,94.117647%,94.509804%);fill-opacity:1;" d="M 29.476562 25.261719 C 29.476562 25.261719 31.90625 19.777344 31.964844 19.859375 C 32.027344 19.945312 34.375 25.261719 34.375 25.261719 Z M 29.476562 25.261719 "/>
<path style="fill:none;stroke-width:6.079651;stroke-linecap:butt;stroke-linejoin:miter;stroke:rgb(92.54902%,94.117647%,94.509804%);stroke-opacity:1;stroke-miterlimit:2.012602;" d="M 256.749484 269.514974 C 253.757751 241.516874 213.115349 227.658943 213.002453 211.401982 C 212.917781 200.422889 213.454035 195.596603 213.34114 181.625777 " transform="matrix(0.138402,0,0,0.138402,-3.640175,10.788365)"/>
<path style="fill:none;stroke-width:6.079651;stroke-linecap:butt;stroke-linejoin:miter;stroke:rgb(92.54902%,94.117647%,94.509804%);stroke-opacity:1;stroke-miterlimit:2.012602;" d="M 256.777708 239.710545 C 256.777708 212.164027 287.061943 205.672532 302.077053 185.266659 C 304.363188 181.823345 302.867322 150.664169 302.867322 148.660273 " transform="matrix(0.138402,0,0,0.138402,-3.640175,10.788365)"/>
<path style="fill:none;stroke-width:6.079651;stroke-linecap:butt;stroke-linejoin:miter;stroke:rgb(92.54902%,94.117647%,94.509804%);stroke-opacity:1;stroke-miterlimit:2.012602;" d="M 256.693036 302.93206 L 256.693036 96.135612 " transform="matrix(0.138402,0,0,0.138402,-3.640175,10.788365)"/>
</g>
</svg>
