
<svg xmlns="http://www.w3.org/2000/svg" xmlns:xlink="http://www.w3.org/1999/xlink" width="64px" height="64px" viewBox="0 0 64 64" version="1.1">
<g id="surface1">
<path style=" stroke:none;fill-rule:nonzero;fill:rgb(0%,0%,0%);fill-opacity:0.0980392;" d="M 56.496094 6.863281 C 56.480469 6.035156 56.179688 5.324219 55.601562 4.730469 C 55.003906 4.121094 54.28125 3.816406 53.433594 3.816406 L 12.125 3.816406 C 11.277344 3.816406 10.554688 4.121094 9.957031 4.730469 C 9.378906 5.320312 9.078125 6.035156 9.058594 6.863281 L 9.058594 59.566406 C 9.058594 60.429688 9.359375 61.164062 9.957031 61.773438 C 10.554688 62.382812 11.277344 62.691406 12.125 62.691406 L 53.433594 62.691406 C 54.28125 62.691406 55.003906 62.382812 55.601562 61.773438 C 56.195312 61.164062 56.496094 60.429688 56.496094 59.566406 Z M 56.496094 6.863281 "/>
<path style=" stroke:none;fill-rule:nonzero;fill:rgb(80%,80%,80%);fill-opacity:1;" d="M 56.09375 4.566406 C 55.484375 3.957031 54.746094 3.648438 53.886719 3.648438 L 11.75 3.648438 C 10.886719 3.648438 10.148438 3.957031 9.539062 4.566406 C 8.949219 5.15625 8.640625 5.867188 8.625 6.699219 L 8.625 6.695312 L 8.625 51.980469 C 8.640625 52.808594 8.945312 53.519531 9.539062 54.109375 C 10.148438 54.71875 10.886719 55.023438 11.75 55.023438 L 53.886719 55.023438 C 54.746094 55.023438 55.484375 54.71875 56.09375 54.109375 C 56.683594 53.519531 56.992188 52.808594 57.011719 51.980469 L 57.011719 6.695312 L 57.011719 6.699219 C 56.992188 5.867188 56.683594 5.15625 56.09375 4.566406 Z M 56.09375 4.566406 "/>
<path style=" stroke:none;fill-rule:nonzero;fill:rgb(52.54902%,51.372549%,48.627451%);fill-opacity:0.988235;" d="M 9.539062 54.109375 C 8.945312 53.519531 8.640625 52.808594 8.625 51.980469 L 8.625 59.398438 C 8.625 60.261719 8.929688 61 9.539062 61.609375 C 10.148438 62.21875 10.886719 62.523438 11.75 62.523438 L 53.886719 62.523438 C 54.746094 62.523438 55.484375 62.21875 56.09375 61.609375 C 56.703125 61 57.011719 60.261719 57.011719 59.398438 L 57.011719 51.980469 C 56.992188 52.808594 56.683594 53.519531 56.09375 54.109375 C 55.484375 54.71875 54.746094 55.023438 53.886719 55.023438 L 11.75 55.023438 C 10.886719 55.023438 10.148438 54.71875 9.539062 54.109375 Z M 9.539062 54.109375 "/>
<path style=" stroke:none;fill-rule:nonzero;fill:rgb(23.137255%,22.745098%,21.176471%);fill-opacity:1;" d="M 32.375 57.375 C 32.375 57.027344 32.253906 56.734375 32.007812 56.492188 C 31.765625 56.246094 31.472656 56.125 31.125 56.125 L 12.25 56.125 C 11.902344 56.125 11.609375 56.246094 11.367188 56.492188 C 11.121094 56.734375 11 57.027344 11 57.375 L 11 57.886719 C 11 58.234375 11.121094 58.527344 11.367188 58.773438 C 11.609375 59.015625 11.902344 59.136719 12.25 59.136719 L 31.125 59.136719 C 31.472656 59.136719 31.765625 59.015625 32.007812 58.773438 C 32.253906 58.527344 32.375 58.234375 32.375 57.886719 Z M 32.375 57.375 "/>
<path style=" stroke:none;fill-rule:nonzero;fill:rgb(0%,0%,0%);fill-opacity:0.2;" d="M 53.101562 57.007812 C 52.832031 56.734375 52.5 56.601562 52.113281 56.601562 C 51.726562 56.601562 51.394531 56.738281 51.117188 57.007812 C 50.847656 57.285156 50.710938 57.617188 50.710938 58.003906 C 50.710938 58.390625 50.847656 58.722656 51.117188 58.992188 C 51.394531 59.269531 51.726562 59.40625 52.113281 59.40625 C 52.5 59.40625 52.832031 59.269531 53.101562 58.992188 C 53.378906 58.722656 53.515625 58.390625 53.515625 58.003906 C 53.515625 57.617188 53.378906 57.285156 53.101562 57.007812 Z M 49.050781 58.003906 C 49.050781 57.617188 48.914062 57.285156 48.636719 57.007812 C 48.367188 56.738281 48.035156 56.601562 47.648438 56.601562 C 47.257812 56.601562 46.929688 56.738281 46.652344 57.007812 C 46.382812 57.285156 46.242188 57.617188 46.242188 58.003906 C 46.242188 58.390625 46.382812 58.722656 46.652344 58.992188 C 46.929688 59.269531 47.257812 59.40625 47.648438 59.40625 C 48.035156 59.40625 48.367188 59.269531 48.636719 58.992188 C 48.914062 58.722656 49.050781 58.390625 49.050781 58.003906 Z M 49.050781 58.003906 "/>
<path style=" stroke:none;fill-rule:nonzero;fill:rgb(100%,100%,100%);fill-opacity:0.0980392;" d="M 43.960938 40.125 C 47.265625 36.824219 48.914062 32.835938 48.914062 28.164062 C 48.914062 23.492188 47.265625 19.507812 43.960938 16.207031 C 40.660156 12.902344 36.675781 11.253906 32.003906 11.253906 C 27.332031 11.253906 23.347656 12.902344 20.042969 16.207031 C 16.742188 19.507812 15.089844 23.492188 15.089844 28.164062 C 15.089844 32.835938 16.742188 36.820312 20.042969 40.125 C 23.347656 43.429688 27.332031 45.078125 32.003906 45.078125 C 36.675781 45.078125 40.660156 43.429688 43.960938 40.125 Z M 43.960938 40.125 "/>
<path style=" stroke:none;fill-rule:nonzero;fill:rgb(80%,80%,0%);fill-opacity:1;" d="M 51.816406 58.78125 C 52.203125 58.78125 52.535156 58.644531 52.804688 58.367188 C 53.082031 58.097656 53.21875 57.765625 53.21875 57.378906 C 53.21875 56.992188 53.082031 56.660156 52.804688 56.382812 C 52.535156 56.113281 52.203125 55.976562 51.816406 55.976562 C 51.429688 55.976562 51.097656 56.113281 50.820312 56.382812 C 50.550781 56.660156 50.414062 56.992188 50.414062 57.378906 C 50.414062 57.765625 50.550781 58.097656 50.820312 58.367188 C 51.097656 58.644531 51.429688 58.78125 51.816406 58.78125 Z M 48.753906 57.378906 C 48.753906 56.992188 48.617188 56.660156 48.339844 56.382812 C 48.070312 56.113281 47.738281 55.976562 47.351562 55.976562 C 46.960938 55.976562 46.632812 56.113281 46.355469 56.382812 C 46.085938 56.660156 45.945312 56.992188 45.945312 57.378906 C 45.945312 57.765625 46.085938 58.097656 46.355469 58.367188 C 46.632812 58.644531 46.960938 58.78125 47.351562 58.78125 C 47.738281 58.78125 48.070312 58.644531 48.339844 58.367188 C 48.617188 58.097656 48.753906 57.765625 48.753906 57.378906 Z M 48.753906 57.378906 "/>
<path style=" stroke:none;fill-rule:nonzero;fill:rgb(100%,100%,100%);fill-opacity:1;" d="M 42.0625 28.125 C 42.0625 22.734375 37.585938 18.363281 32.066406 18.363281 C 26.542969 18.363281 22.066406 22.734375 22.066406 28.125 C 22.066406 33.519531 26.542969 37.890625 32.066406 37.890625 C 37.585938 37.890625 42.0625 33.519531 42.0625 28.125 Z M 42.0625 28.125 "/>
<path style=" stroke:none;fill-rule:nonzero;fill:rgb(52.54902%,56.470588%,58.039216%);fill-opacity:1;" d="M 29.921875 43.4375 C 29.652344 43.320312 29.367188 43.011719 29.238281 42.707031 C 29.171875 42.546875 29.109375 41.941406 29.050781 40.972656 C 29.003906 40.15625 28.941406 39.421875 28.914062 39.339844 C 28.875 39.234375 28.6875 39.136719 28.21875 38.972656 C 27.867188 38.847656 27.332031 38.625 27.035156 38.476562 C 26.742188 38.328125 26.433594 38.207031 26.355469 38.207031 C 26.265625 38.207031 25.78125 38.597656 25.089844 39.234375 C 24.472656 39.800781 23.867188 40.3125 23.746094 40.375 C 23.496094 40.503906 22.929688 40.527344 22.640625 40.417969 C 22.40625 40.332031 19.957031 37.914062 19.796875 37.617188 C 19.640625 37.324219 19.660156 36.773438 19.835938 36.4375 C 19.914062 36.285156 20.433594 35.671875 20.988281 35.070312 C 21.582031 34.421875 21.992188 33.921875 21.992188 33.839844 C 21.992188 33.765625 21.871094 33.460938 21.722656 33.160156 C 21.574219 32.863281 21.351562 32.335938 21.230469 31.984375 C 21.105469 31.632812 20.957031 31.320312 20.894531 31.289062 C 20.832031 31.253906 20.113281 31.191406 19.292969 31.148438 C 18.339844 31.09375 17.699219 31.027344 17.515625 30.960938 C 17.160156 30.835938 16.753906 30.402344 16.699219 30.089844 C 16.675781 29.964844 16.664062 29.03125 16.675781 28.015625 L 16.699219 26.171875 L 16.910156 25.90625 C 17.285156 25.433594 17.460938 25.386719 19.25 25.277344 C 20.265625 25.214844 20.882812 25.148438 20.933594 25.097656 C 20.976562 25.050781 21.128906 24.703125 21.269531 24.324219 C 21.410156 23.941406 21.632812 23.421875 21.761719 23.164062 C 21.890625 22.910156 21.992188 22.644531 21.992188 22.574219 C 21.992188 22.503906 21.570312 21.984375 21.050781 21.417969 C 20.535156 20.847656 20.039062 20.289062 19.949219 20.171875 C 19.703125 19.847656 19.621094 19.441406 19.71875 19.046875 C 19.792969 18.75 19.925781 18.585938 21.054688 17.445312 C 21.742188 16.746094 22.421875 16.117188 22.5625 16.042969 C 22.890625 15.875 23.410156 15.871094 23.738281 16.039062 C 23.875 16.109375 24.476562 16.613281 25.074219 17.164062 C 25.671875 17.710938 26.199219 18.183594 26.25 18.210938 C 26.304688 18.242188 26.625 18.128906 27.015625 17.941406 C 27.386719 17.765625 27.945312 17.539062 28.253906 17.433594 C 28.671875 17.292969 28.832031 17.203125 28.890625 17.078125 C 28.933594 16.988281 29.007812 16.246094 29.054688 15.425781 C 29.144531 13.851562 29.195312 13.601562 29.519531 13.265625 C 29.882812 12.886719 30.089844 12.855469 32.109375 12.878906 L 33.949219 12.898438 L 34.234375 13.089844 C 34.730469 13.417969 34.789062 13.621094 34.90625 15.375 C 34.964844 16.222656 35.023438 16.980469 35.042969 17.0625 C 35.070312 17.175781 35.222656 17.257812 35.714844 17.429688 C 36.0625 17.554688 36.625 17.789062 36.960938 17.957031 C 37.296875 18.128906 37.597656 18.265625 37.628906 18.265625 C 37.660156 18.265625 38.199219 17.796875 38.824219 17.222656 C 39.449219 16.648438 40.078125 16.117188 40.21875 16.046875 C 40.550781 15.871094 41.046875 15.871094 41.414062 16.050781 C 41.585938 16.132812 42.175781 16.667969 42.917969 17.417969 C 44.1875 18.699219 44.285156 18.847656 44.289062 19.425781 C 44.289062 19.835938 44.105469 20.109375 43.015625 21.304688 C 42.421875 21.957031 41.933594 22.515625 41.933594 22.550781 C 41.933594 22.582031 42.089844 22.933594 42.277344 23.328125 C 42.46875 23.722656 42.695312 24.277344 42.78125 24.558594 C 42.886719 24.90625 42.980469 25.085938 43.078125 25.125 C 43.152344 25.160156 43.917969 25.230469 44.777344 25.28125 C 46.484375 25.390625 46.757812 25.460938 47.042969 25.863281 C 47.3125 26.242188 47.34375 26.527344 47.320312 28.386719 L 47.300781 30.160156 L 47.089844 30.457031 C 46.71875 30.988281 46.625 31.015625 44.734375 31.140625 C 43.808594 31.199219 43.035156 31.265625 43.015625 31.285156 C 42.996094 31.304688 42.882812 31.601562 42.761719 31.941406 C 42.640625 32.28125 42.402344 32.835938 42.234375 33.175781 C 42.066406 33.511719 41.9375 33.828125 41.949219 33.878906 C 41.960938 33.929688 42.421875 34.464844 42.972656 35.066406 C 43.523438 35.667969 44.046875 36.296875 44.132812 36.46875 C 44.3125 36.828125 44.332031 37.207031 44.179688 37.566406 C 44.046875 37.882812 41.800781 40.167969 41.433594 40.355469 C 41.128906 40.515625 40.574219 40.53125 40.253906 40.394531 C 40.128906 40.339844 39.515625 39.824219 38.886719 39.25 C 38.257812 38.675781 37.695312 38.207031 37.632812 38.207031 C 37.574219 38.207031 37.21875 38.347656 36.847656 38.519531 C 36.476562 38.695312 35.925781 38.917969 35.625 39.015625 C 35.207031 39.152344 35.070312 39.230469 35.042969 39.339844 C 35.023438 39.421875 34.964844 40.179688 34.90625 41.027344 C 34.78125 42.894531 34.710938 43.09375 34.0625 43.421875 C 33.875 43.519531 33.5625 43.535156 31.984375 43.535156 C 30.589844 43.53125 30.078125 43.507812 29.921875 43.4375 Z M 32.65625 35.15625 C 34.332031 34.980469 35.730469 34.3125 36.917969 33.121094 C 37.828125 32.214844 38.410156 31.195312 38.765625 29.910156 C 38.984375 29.101562 38.984375 27.324219 38.761719 26.507812 C 38.085938 24.035156 36.316406 22.210938 33.867188 21.476562 C 33.296875 21.304688 33.144531 21.285156 32.03125 21.28125 C 30.96875 21.277344 30.75 21.296875 30.234375 21.4375 C 27.65625 22.140625 25.6875 24.210938 25.148438 26.78125 C 24.664062 29.089844 25.371094 31.445312 27.054688 33.140625 C 27.9375 34.027344 29.082031 34.675781 30.324219 34.996094 C 30.679688 35.089844 31.179688 35.160156 31.894531 35.214844 C 31.953125 35.222656 32.296875 35.195312 32.65625 35.15625 Z M 30.9375 32.253906 C 29.175781 31.773438 27.9375 30.273438 27.828125 28.472656 C 27.753906 27.210938 28.15625 26.144531 29.050781 25.253906 C 30.679688 23.632812 33.28125 23.617188 34.890625 25.222656 C 36.214844 26.542969 36.53125 28.421875 35.710938 30.070312 C 35.007812 31.472656 33.71875 32.300781 32.136719 32.363281 C 31.597656 32.382812 31.332031 32.359375 30.9375 32.253906 Z M 32.914062 30.507812 C 33.402344 30.324219 33.984375 29.785156 34.226562 29.285156 C 34.402344 28.933594 34.421875 28.816406 34.421875 28.199219 C 34.421875 27.542969 34.410156 27.484375 34.183594 27.070312 C 33.730469 26.230469 33.054688 25.808594 32.101562 25.757812 C 31.335938 25.71875 30.878906 25.882812 30.324219 26.386719 C 29.625 27.027344 29.347656 27.917969 29.570312 28.796875 C 29.765625 29.554688 30.179688 30.074219 30.875 30.425781 C 31.519531 30.753906 32.1875 30.78125 32.914062 30.507812 Z M 32.914062 30.507812 "/>
</g>
</svg>
