
<svg xmlns="http://www.w3.org/2000/svg" xmlns:xlink="http://www.w3.org/1999/xlink" width="64px" height="64px" viewBox="0 0 64 64" version="1.1">
<g id="surface1">
<path style="fill-rule:nonzero;fill:rgb(100%,100%,100%);fill-opacity:1;stroke-width:7.084184;stroke-linecap:butt;stroke-linejoin:miter;stroke:rgb(21.568627%,67.058824%,78.431373%);stroke-opacity:1;stroke-miterlimit:4;" d="M 20.148438 5.976562 L 107.851562 5.976562 C 115.679688 5.976562 122.023438 12.320312 122.023438 20.148438 L 122.023438 107.851562 C 122.023438 115.679688 115.679688 122.023438 107.851562 122.023438 L 20.148438 122.023438 C 12.320312 122.023438 5.976562 115.679688 5.976562 107.851562 L 5.976562 20.148438 C 5.976562 12.320312 12.320312 5.976562 20.148438 5.976562 Z M 20.148438 5.976562 " transform="matrix(0.5,0,0,0.5,0,0)"/>
<path style=" stroke:none;fill-rule:evenodd;fill:rgb(21.568627%,67.058824%,78.431373%);fill-opacity:1;" d="M 38.589844 12.226562 C 38.121094 12.246094 37.660156 12.300781 37.179688 12.355469 C 28.097656 13.347656 20.492188 17.191406 21.820312 26.929688 C 23.082031 31.117188 29.980469 33 32.125 32.015625 C 32.898438 29.078125 36.972656 23.503906 42.957031 26.269531 C 48.1875 29.273438 52.6875 37.566406 51.882812 45.898438 C 54.644531 41.96875 56.28125 37.183594 56.28125 32.015625 C 56.28125 24.992188 53.285156 18.671875 48.503906 14.257812 C 48.480469 14.25 48.460938 14.238281 48.4375 14.226562 C 45.820312 13.023438 42.988281 12.300781 40.003906 12.226562 C 39.535156 12.214844 39.0625 12.203125 38.59375 12.226562 Z M 38.589844 12.226562 "/>
<path style=" stroke:none;fill-rule:evenodd;fill:rgb(100%,16.470588%,16.470588%);fill-opacity:1;" d="M 32.121094 7.859375 C 23.230469 7.859375 15.472656 12.652344 11.28125 19.804688 C 10.542969 26.335938 13.351562 32.078125 18.042969 34.773438 C 24.019531 37.542969 31.34375 34.953125 32.121094 32.015625 C 29.976562 33 23.078125 31.117188 21.8125 26.929688 C 20.488281 17.191406 28.089844 13.347656 37.175781 12.355469 C 41.226562 11.914062 45.03125 12.640625 48.464844 14.226562 C 44.164062 10.273438 38.421875 7.863281 32.121094 7.863281 Z M 41.472656 25.746094 C 41.675781 25.796875 41.890625 25.871094 42.097656 25.941406 C 41.882812 25.867188 41.683594 25.796875 41.472656 25.746094 Z M 41.472656 25.746094 "/>
<path style=" stroke:none;fill-rule:nonzero;fill:rgb(37.254902%,82.745098%,37.254902%);fill-opacity:1;" d="M 39.796875 25.515625 C 35.554688 25.496094 32.75 29.632812 32.117188 32.015625 C 32.484375 31.894531 39.867188 29.882812 41.242188 33.65625 C 42.566406 43.398438 36.144531 50.683594 27.0625 51.679688 C 23.011719 52.121094 19.207031 51.394531 15.773438 49.808594 C 20.074219 53.765625 25.8125 56.171875 32.117188 56.171875 C 40.292969 56.171875 47.503906 52.113281 51.875 45.902344 C 52.675781 37.574219 48.179688 29.285156 42.949219 26.273438 C 41.832031 25.753906 40.773438 25.523438 39.796875 25.519531 Z M 39.796875 25.515625 "/>
<path style=" stroke:none;fill-rule:nonzero;fill:rgb(100%,83.137255%,16.470588%);fill-opacity:1;" d="M 11.28125 19.804688 C 9.179688 23.386719 7.964844 27.5625 7.964844 32.015625 C 7.964844 39.050781 10.972656 45.390625 15.777344 49.804688 C 19.210938 51.390625 23.015625 52.117188 27.066406 51.675781 C 36.148438 50.683594 42.570312 43.398438 41.246094 33.652344 C 41.175781 33.429688 41.082031 33.222656 40.984375 33.027344 C 40.960938 32.992188 40.96875 32.960938 40.949219 32.929688 C 40.855469 32.769531 40.734375 32.644531 40.621094 32.503906 C 40.582031 32.453125 40.554688 32.382812 40.523438 32.339844 C 40.390625 32.199219 40.234375 32.0625 40.097656 31.945312 C 40.054688 31.917969 40.027344 31.875 39.996094 31.847656 C 39.890625 31.777344 39.761719 31.742188 39.667969 31.683594 C 39.5625 31.621094 39.457031 31.539062 39.339844 31.484375 C 39.261719 31.449219 39.164062 31.417969 39.078125 31.386719 C 38.925781 31.324219 38.789062 31.273438 38.617188 31.222656 C 38.5625 31.207031 38.507812 31.171875 38.453125 31.15625 C 38.152344 31.074219 37.820312 31.035156 37.5 30.992188 C 37.347656 30.972656 37.171875 30.972656 37.007812 30.960938 C 36.660156 30.933594 36.320312 30.890625 35.960938 30.894531 C 35.511719 30.898438 35.0625 30.945312 34.613281 30.992188 C 34.175781 31.039062 33.753906 31.078125 33.332031 31.15625 C 32.542969 31.476562 32.460938 31.722656 32.183594 31.976562 C 32.191406 31.972656 32.15625 31.972656 32.152344 31.976562 C 32.144531 31.980469 32.132812 32.007812 32.121094 32.007812 C 31.347656 34.945312 24.011719 37.535156 18.039062 34.765625 C 13.351562 32.074219 10.542969 26.332031 11.277344 19.800781 Z M 11.28125 19.804688 "/>
</g>
</svg>
