
<svg xmlns="http://www.w3.org/2000/svg" xmlns:xlink="http://www.w3.org/1999/xlink" width="96px" height="96px" viewBox="0 0 96 96" version="1.1">
<g id="surface1">
<path style="fill-rule:nonzero;fill:rgb(80%,80%,80%);fill-opacity:1;stroke-width:1;stroke-linecap:butt;stroke-linejoin:miter;stroke:rgb(23.137255%,20.392157%,20.392157%);stroke-opacity:1;stroke-miterlimit:4;" d="M 309.895833 42.4375 C 287.166667 42.4375 268.4375 63.333333 264.729167 90.979167 L 444.583333 90.979167 C 440.875 63.333333 422.166667 42.4375 399.458333 42.4375 Z M 309.895833 42.4375 " transform="matrix(0.1875,0,0,0.1875,0,0)"/>
<path style=" stroke:none;fill-rule:nonzero;fill:#DCDC23;fill-opacity:1;" d="M 12.363281 18.515625 L 83.636719 18.515625 C 89.273438 18.515625 93.84375 23.097656 93.84375 28.75 L 93.84375 64.65625 C 93.84375 70.304688 89.273438 74.886719 83.636719 74.886719 L 12.363281 74.886719 C 6.726562 74.886719 2.15625 70.304688 2.15625 64.65625 L 2.15625 28.75 C 2.15625 23.097656 6.726562 18.515625 12.363281 18.515625 Z M 12.363281 18.515625 "/>
<path style=" stroke:none;fill-rule:nonzero;fill:#DCDC23;fill-opacity:1;" d="M 12.363281 31.671875 L 83.636719 31.671875 C 89.273438 31.671875 93.84375 36.253906 93.84375 41.902344 L 93.84375 77.808594 C 93.84375 83.460938 89.273438 88.042969 83.636719 88.042969 L 12.363281 88.042969 C 6.726562 88.042969 2.15625 83.460938 2.15625 77.808594 L 2.15625 41.902344 C 2.15625 36.253906 6.726562 31.671875 12.363281 31.671875 Z M 12.363281 31.671875 "/>
<path style="fill-rule:nonzero;fill:rgb(100%,100%,100%);fill-opacity:1;stroke-width:1.094694;stroke-linecap:butt;stroke-linejoin:miter;stroke:rgb(100%,100%,100%);stroke-opacity:1;stroke-miterlimit:4;" d="M 17.783203 17.160156 L 17.783203 18.550781 L 26.874999 18.550781 L 30.908202 23.474609 L 30.908202 33.158202 L 29.648437 33.158202 L 29.648437 34.353515 L 32.101561 34.353515 L 32.048827 23.187499 L 32.048827 22.898437 L 27.347655 17.160156 Z M 17.800781 19.458984 L 17.800781 22.240234 L 18.941406 22.240234 L 18.941406 19.458984 Z M 17.800781 25.023437 L 17.800781 27.80664 L 18.941406 27.80664 L 18.941406 25.023437 Z M 17.800781 30.828124 L 17.800781 33.158202 L 15.894531 33.158202 L 15.894531 34.349608 L 17.800781 34.349608 L 17.800781 36.455077 L 18.939453 36.455077 L 18.939453 34.349608 L 20.849609 34.349608 L 20.849609 33.158202 L 18.939453 33.158202 L 18.939453 30.828124 Z M 23.326171 33.158202 L 23.326171 34.353515 L 26.593749 34.353515 L 26.593749 33.158202 Z M 23.326171 33.158202 " transform="matrix(2,0,0,2,0,0)"/>
</g>
</svg>
