<?xml version="1.0" encoding="UTF-8"?>
<svg xmlns="http://www.w3.org/2000/svg" xmlns:xlink="http://www.w3.org/1999/xlink" width="24pt" height="24pt" viewBox="0 0 24 24" version="1.1">
<defs>
<clipPath id="clip1">
  <path d="M 12 11 L 17 11 L 17 16 L 12 16 Z M 12 11 "/>
</clipPath>
<clipPath id="clip2">
  <path d="M 14.425781 7.128906 C 12.105469 5.789062 9.136719 6.582031 7.800781 8.902344 C 6.460938 11.222656 7.253906 14.191406 9.574219 15.53125 C 11.894531 16.871094 14.863281 16.074219 16.199219 13.753906 C 17.539062 11.433594 16.746094 8.46875 14.425781 7.128906 Z M 12.660156 10.183594 C 13.292969 10.550781 13.511719 11.359375 13.144531 11.992188 C 12.78125 12.625 11.972656 12.839844 11.339844 12.476562 C 10.707031 12.109375 10.488281 11.300781 10.855469 10.667969 C 11.21875 10.035156 12.027344 9.820312 12.660156 10.183594 Z M 12.660156 10.183594 "/>
</clipPath>
<clipPath id="clip3">
  <path d="M 7 6 L 12 6 L 12 12 L 7 12 Z M 7 6 "/>
</clipPath>
<clipPath id="clip4">
  <path d="M 9.59375 15.578125 C 11.914062 16.914062 14.882812 16.121094 16.222656 13.800781 C 17.558594 11.480469 16.765625 8.515625 14.445312 7.175781 C 12.125 5.835938 9.15625 6.628906 7.820312 8.949219 C 6.480469 11.269531 7.273438 14.238281 9.59375 15.578125 Z M 11.359375 12.519531 C 10.726562 12.15625 10.507812 11.347656 10.875 10.714844 C 11.238281 10.082031 12.046875 9.863281 12.679688 10.230469 C 13.3125 10.59375 13.53125 11.402344 13.164062 12.035156 C 12.800781 12.667969 11.992188 12.886719 11.359375 12.519531 Z M 11.359375 12.519531 "/>
</clipPath>
</defs>
<g id="surface1">
<path style="fill-rule:nonzero;fill:rgb(92.54902%,92.54902%,92.54902%);fill-opacity:1;stroke-width:27.983692;stroke-linecap:butt;stroke-linejoin:miter;stroke:#DCDC23;stroke-opacity:1;stroke-miterlimit:4;" d="M 82.75 26.833333 L 429.25 26.833333 C 460.166667 26.833333 485.166667 51.833333 485.166667 82.75 L 485.166667 429.25 C 485.166667 460.166667 460.166667 485.166667 429.25 485.166667 L 82.75 485.166667 C 51.833333 485.166667 26.833333 460.166667 26.833333 429.25 L 26.833333 82.75 C 26.833333 51.833333 51.833333 26.833333 82.75 26.833333 Z M 82.75 26.833333 " transform="matrix(0.046875,0,0,0.046875,0,0)"/>
<path style=" stroke:none;fill-rule:nonzero;fill:rgb(42.745098%,47.843137%,49.803922%);fill-opacity:1;" d="M 5.671875 3.355469 L 18.328125 3.355469 C 18.777344 3.355469 19.144531 3.71875 19.144531 4.171875 L 19.144531 19.875 C 19.144531 20.324219 18.777344 20.691406 18.328125 20.691406 L 5.671875 20.691406 C 5.222656 20.691406 4.855469 20.324219 4.855469 19.875 L 4.855469 4.171875 C 4.855469 3.71875 5.222656 3.355469 5.671875 3.355469 Z M 5.671875 3.355469 "/>
<path style=" stroke:none;fill-rule:nonzero;fill:rgb(8.235294%,28.627451%,36.470588%);fill-opacity:1;" d="M 5.921875 19.128906 L 11.929688 19.128906 C 12.050781 19.128906 12.152344 19.226562 12.152344 19.351562 L 12.152344 19.792969 C 12.152344 19.917969 12.050781 20.019531 11.929688 20.019531 L 5.921875 20.019531 C 5.796875 20.019531 5.695312 19.917969 5.695312 19.792969 L 5.695312 19.351562 C 5.695312 19.226562 5.796875 19.128906 5.921875 19.128906 Z M 5.921875 19.128906 "/>
<path style=" stroke:none;fill-rule:nonzero;fill:#DCDC23;fill-opacity:1;" d="M 5.671875 3.308594 L 18.328125 3.308594 C 18.777344 3.308594 19.144531 3.628906 19.144531 4.023438 L 19.144531 17.789062 C 19.144531 18.183594 18.777344 18.503906 18.328125 18.503906 L 5.671875 18.503906 C 5.222656 18.503906 4.855469 18.183594 4.855469 17.789062 L 4.855469 4.023438 C 4.855469 3.628906 5.222656 3.308594 5.671875 3.308594 Z M 5.671875 3.308594 "/>
<path style=" stroke:none;fill-rule:nonzero;fill:rgb(81.960784%,82.352941%,82.745098%);fill-opacity:1;" d="M 16.339844 19.570312 C 16.339844 19.792969 16.160156 19.972656 15.941406 19.972656 C 15.71875 19.972656 15.539062 19.792969 15.539062 19.570312 C 15.539062 19.351562 15.71875 19.171875 15.941406 19.171875 C 16.160156 19.171875 16.339844 19.351562 16.339844 19.570312 Z M 16.339844 19.570312 "/>
<path style=" stroke:none;fill-rule:nonzero;fill:rgb(81.960784%,82.352941%,82.745098%);fill-opacity:1;" d="M 17.574219 19.570312 C 17.574219 19.792969 17.394531 19.972656 17.175781 19.972656 C 16.953125 19.972656 16.773438 19.792969 16.773438 19.570312 C 16.773438 19.351562 16.953125 19.171875 17.175781 19.171875 C 17.394531 19.171875 17.574219 19.351562 17.574219 19.570312 Z M 17.574219 19.570312 "/>
<path style="fill-rule:nonzero;fill:rgb(50.196078%,50.196078%,50.196078%);fill-opacity:1;stroke-width:1.569832;stroke-linecap:butt;stroke-linejoin:miter;stroke:rgb(83.137255%,83.137255%,83.137255%);stroke-opacity:1;stroke-miterlimit:4;" d="M 256.011507 113.063693 C 186.646238 113.058969 130.350663 169.265941 130.433518 238.580646 C 130.428794 307.945915 186.635766 364.241491 256.001035 364.246215 C 325.366304 364.250939 381.611316 307.956387 381.528461 238.641682 C 381.533185 169.276413 325.376776 113.068417 256.011507 113.063693 Z M 255.966659 204.405255 C 274.907443 204.446352 290.278559 219.743629 290.237462 238.684413 C 290.283944 257.574633 274.936104 272.858171 256.045883 272.904653 C 237.105099 272.863556 221.733983 257.566279 221.77508 238.625495 C 221.728598 219.735274 237.076438 204.451737 255.966659 204.405255 Z M 255.966659 204.405255 " transform="matrix(0.033452,0.0193135,-0.0193135,0.033452,8.045351,-1.597772)"/>
<g clip-path="url(#clip1)" clip-rule="nonzero">
<g clip-path="url(#clip2)" clip-rule="nonzero">
<path style=" stroke:none;fill-rule:evenodd;fill:rgb(94.901961%,94.901961%,94.901961%);fill-opacity:1;" d="M 12.769531 11.226562 L 17.640625 12.046875 L 15.402344 15.917969 L 12.171875 11.742188 Z M 12.769531 11.226562 "/>
</g>
</g>
<g clip-path="url(#clip3)" clip-rule="nonzero">
<g clip-path="url(#clip4)" clip-rule="nonzero">
<path style=" stroke:none;fill-rule:evenodd;fill:rgb(94.901961%,94.901961%,94.901961%);fill-opacity:1;" d="M 11.25 11.480469 L 6.378906 10.65625 L 8.617188 6.785156 L 11.847656 10.960938 Z M 11.25 11.480469 "/>
</g>
</g>
<path style="fill-rule:nonzero;fill:rgb(100%,100%,100%);fill-opacity:1;stroke-width:2.780315;stroke-linecap:butt;stroke-linejoin:miter;stroke:rgb(90.588235%,90.588235%,90.588235%);stroke-opacity:1;stroke-miterlimit:4;" d="M 255.980659 185.013027 C 226.440874 185.019125 202.376755 209.07171 202.382852 238.611495 C 202.351934 268.289422 226.353956 292.265962 256.031883 292.29688 C 285.571668 292.290783 309.635787 268.238197 309.579126 238.610834 C 309.660608 209.020485 285.658586 185.043946 255.980659 185.013027 Z M 256.042635 210.199988 C 271.671624 210.168027 284.447784 222.993257 284.479744 238.622246 C 284.47469 254.389378 271.73704 267.114974 255.969907 267.109919 C 240.290354 267.054301 227.564758 254.316651 227.532798 238.687661 C 227.537852 222.920529 240.275502 210.194934 256.042635 210.199988 Z M 256.042635 210.199988 " transform="matrix(0.033452,0.0193135,-0.0193135,0.033452,8.045351,-1.597772)"/>
</g>
</svg>
