
<svg xmlns="http://www.w3.org/2000/svg" xmlns:xlink="http://www.w3.org/1999/xlink" width="192px" height="192px" viewBox="0 0 192 192" version="1.1">
<g id="surface1">
<path style="fill-rule:nonzero;fill:rgb(80%,80%,80%);fill-opacity:1;stroke-width:1;stroke-linecap:butt;stroke-linejoin:miter;stroke:rgb(23.137255%,20.392157%,20.392157%);stroke-opacity:1;stroke-miterlimit:4;" d="M 309.885417 42.4375 C 287.166667 42.4375 268.447917 63.34375 264.729167 90.979167 L 444.59375 90.979167 C 440.875 63.34375 422.166667 42.4375 399.447917 42.4375 Z M 309.885417 42.4375 " transform="matrix(0.375,0,0,0.375,0,0)"/>
<path style=" stroke:none;fill-rule:nonzero;fill:#DA8752;fill-opacity:1;" d="M 24.726562 37.035156 L 167.273438 37.035156 C 178.546875 37.035156 187.6875 46.195312 187.6875 57.5 L 187.6875 129.308594 C 187.6875 140.613281 178.546875 149.777344 167.273438 149.777344 L 24.726562 149.777344 C 13.453125 149.777344 4.3125 140.613281 4.3125 129.308594 L 4.3125 57.5 C 4.3125 46.195312 13.453125 37.035156 24.726562 37.035156 Z M 24.726562 37.035156 "/>
<path style=" stroke:none;fill-rule:nonzero;fill:#DA8752;fill-opacity:1;" d="M 24.726562 63.339844 L 167.273438 63.339844 C 178.546875 63.339844 187.6875 72.503906 187.6875 83.808594 L 187.6875 155.617188 C 187.6875 166.921875 178.546875 176.085938 167.273438 176.085938 L 24.726562 176.085938 C 13.453125 176.085938 4.3125 166.921875 4.3125 155.617188 L 4.3125 83.808594 C 4.3125 72.503906 13.453125 63.339844 24.726562 63.339844 Z M 24.726562 63.339844 "/>
<path style=" stroke:none;fill-rule:nonzero;fill:rgb(100%,100%,100%);fill-opacity:1;" d="M 133.613281 99.253906 C 133.757812 98.074219 133.824219 96.875 133.824219 95.675781 C 133.824219 80.710938 123.335938 68.53125 110.433594 68.53125 C 102.953125 68.53125 96.082031 72.632812 91.730469 79.359375 C 90.191406 78.929688 88.628906 78.710938 87.039062 78.710938 C 75.757812 78.710938 66.574219 89.367188 66.574219 102.460938 C 66.574219 102.792969 66.578125 103.117188 66.589844 103.445312 C 58.132812 106.359375 51.953125 115.464844 51.953125 126.214844 C 51.953125 139.308594 61.136719 149.964844 72.421875 149.964844 L 122.128906 149.964844 C 135.027344 149.964844 145.519531 137.792969 145.519531 122.820312 C 145.519531 112.929688 140.832031 103.988281 133.613281 99.253906 Z M 122.128906 143.179688 L 72.421875 143.179688 C 64.347656 143.179688 57.800781 135.585938 57.800781 126.214844 C 57.800781 116.84375 64.347656 109.25 72.421875 109.25 C 72.867188 109.25 73.289062 109.355469 73.722656 109.402344 C 72.902344 107.28125 72.421875 104.941406 72.421875 102.460938 C 72.421875 93.09375 78.96875 85.496094 87.039062 85.496094 C 89.679688 85.496094 92.125 86.375 94.257812 87.789062 C 96.910156 80.460938 103.152344 75.316406 110.433594 75.316406 C 120.125 75.316406 127.976562 84.429688 127.976562 95.675781 C 127.976562 98.355469 127.503906 100.898438 126.691406 103.246094 C 134.15625 105.589844 139.671875 113.425781 139.671875 122.820312 C 139.671875 134.066406 131.820312 143.179688 122.128906 143.179688 Z M 122.128906 143.179688 "/>
</g>
</svg>
