<?xml version="1.0" encoding="UTF-8"?>
<svg xmlns="http://www.w3.org/2000/svg" xmlns:xlink="http://www.w3.org/1999/xlink" width="48pt" height="48pt" viewBox="0 0 48 48" version="1.1">
<g id="surface1">
<path style="fill-rule:nonzero;fill:rgb(100%,100%,100%);fill-opacity:1;stroke-width:28.191782;stroke-linecap:butt;stroke-linejoin:miter;stroke:rgb(13.333333%,21.176471%,33.72549%);stroke-opacity:1;stroke-miterlimit:4;" d="M 81.499998 25.083333 L 430.499992 25.083333 C 461.666658 25.083333 486.916657 50.333332 486.916657 81.499998 L 486.916657 430.499992 C 486.916657 461.666658 461.666658 486.916657 430.499992 486.916657 L 81.499998 486.916657 C 50.333332 486.916657 25.083333 461.666658 25.083333 430.499992 L 25.083333 81.499998 C 25.083333 50.333332 50.333332 25.083333 81.499998 25.083333 Z M 81.499998 25.083333 " transform="matrix(0.09375,0,0,0.09375,0,0)"/>
<path style=" stroke:none;fill-rule:evenodd;fill:rgb(13.333333%,21.176471%,33.72549%);fill-opacity:1;" d="M 24.011719 5.972656 C 26.746094 5.972656 28.964844 8.78125 28.964844 12.246094 L 28.964844 22.875 C 28.964844 26.339844 26.746094 29.152344 24.011719 29.152344 C 21.273438 29.152344 19.058594 26.339844 19.058594 22.875 L 19.058594 12.246094 C 19.058594 8.78125 21.273438 5.972656 24.011719 5.972656 Z M 24.011719 5.972656 "/>
<path style=" stroke:none;fill-rule:evenodd;fill:rgb(13.333333%,21.176471%,33.72549%);fill-opacity:1;" d="M 16.554688 24.09375 L 13.449219 24.105469 C 13.722656 30.535156 17.960938 34.140625 22.570312 34.769531 L 22.570312 38.90625 C 20.542969 39.246094 18.601562 40.277344 17.125 41.980469 L 30.941406 42.027344 C 29.542969 40.328125 27.691406 39.300781 25.738281 38.933594 L 25.738281 34.734375 C 30.15625 34.023438 34.160156 30.53125 34.550781 24.113281 L 31.398438 24.09375 C 30.867188 34.125 17.144531 34.195312 16.554688 24.09375 Z M 16.554688 24.09375 "/>
</g>
</svg>
