<?xml version="1.0" encoding="UTF-8"?>
<svg xmlns="http://www.w3.org/2000/svg" xmlns:xlink="http://www.w3.org/1999/xlink" width="64pt" height="64pt" viewBox="0 0 64 64" version="1.1">
<defs>
<clipPath id="clip1">
  <path d="M 33 31 L 63 31 L 63 61 L 33 61 Z M 33 31 "/>
</clipPath>
<clipPath id="clip2">
  <path d="M 47.214844 5.648438 C 32.660156 -2.75 14.050781 2.234375 5.648438 16.785156 C -2.75 31.339844 2.234375 49.949219 16.785156 58.351562 C 31.339844 66.75 49.949219 61.765625 58.351562 47.214844 C 66.75 32.660156 61.765625 14.050781 47.214844 5.648438 Z M 36.148438 24.8125 C 40.117188 27.105469 41.476562 32.179688 39.1875 36.148438 C 36.894531 40.117188 31.820312 41.476562 27.851562 39.1875 C 23.882812 36.894531 22.523438 31.820312 24.8125 27.851562 C 27.105469 23.882812 32.179688 22.523438 36.148438 24.8125 Z M 36.148438 24.8125 "/>
</clipPath>
<clipPath id="clip3">
  <path d="M 1 3 L 32 3 L 32 33 L 1 33 Z M 1 3 "/>
</clipPath>
<clipPath id="clip4">
  <path d="M 16.910156 58.636719 C 31.460938 67.039062 50.070312 62.050781 58.472656 47.5 C 66.875 32.949219 61.890625 14.339844 47.335938 5.9375 C 32.785156 -2.464844 14.175781 2.519531 5.773438 17.074219 C -2.628906 31.625 2.359375 50.234375 16.910156 58.636719 Z M 27.976562 39.472656 C 24.003906 37.179688 22.644531 32.105469 24.9375 28.136719 C 27.230469 24.167969 32.304688 22.808594 36.273438 25.101562 C 40.242188 27.390625 41.601562 32.464844 39.308594 36.4375 C 37.019531 40.40625 31.945312 41.765625 27.976562 39.472656 Z M 27.976562 39.472656 "/>
</clipPath>
</defs>
<g id="surface1">
<path style="fill-rule:nonzero;fill:rgb(50.196078%,50.196078%,50.196078%);fill-opacity:1;stroke-width:1.569832;stroke-linecap:butt;stroke-linejoin:miter;stroke:rgb(83.137255%,83.137255%,83.137255%);stroke-opacity:1;stroke-miterlimit:4;" d="M 256.00273 113.04679 C 186.642526 113.063646 130.407901 169.287039 130.402731 238.641342 C 130.419586 308.001546 186.64298 364.236171 255.997282 364.241341 C 325.357487 364.224485 381.592112 308.001092 381.597282 238.646789 C 381.580426 169.286585 325.357033 113.05196 256.00273 113.04679 Z M 255.995475 204.389923 C 274.914486 204.395678 290.24594 219.728585 290.254149 238.639534 C 290.248394 257.558545 274.915486 272.889999 256.004537 272.898208 C 237.085527 272.892453 221.754073 257.559546 221.745864 238.648597 C 221.751618 219.729586 237.084526 204.398132 255.995475 204.389923 Z M 255.995475 204.389923 " transform="matrix(0.209813,0.121135,-0.121135,0.209813,7.196207,-49.08119)"/>
<g clip-path="url(#clip1)" clip-rule="nonzero">
<g clip-path="url(#clip2)" clip-rule="nonzero">
<path style=" stroke:none;fill-rule:evenodd;fill:rgb(94.901961%,94.901961%,94.901961%);fill-opacity:1;" d="M 36.839844 31.34375 L 67.371094 36.5 L 53.351562 60.777344 L 33.074219 34.585938 Z M 36.839844 31.34375 "/>
</g>
</g>
<g clip-path="url(#clip3)" clip-rule="nonzero">
<g clip-path="url(#clip4)" clip-rule="nonzero">
<path style=" stroke:none;fill-rule:evenodd;fill:rgb(94.901961%,94.901961%,94.901961%);fill-opacity:1;" d="M 27.285156 32.945312 L -3.246094 27.789062 L 10.773438 3.507812 L 31.046875 29.699219 Z M 27.285156 32.945312 "/>
</g>
</g>
<path style="fill-rule:nonzero;fill:rgb(100%,100%,100%);fill-opacity:1;stroke-width:2.780315;stroke-linecap:butt;stroke-linejoin:miter;stroke:rgb(90.588235%,90.588235%,90.588235%);stroke-opacity:1;stroke-miterlimit:4;" d="M 256.003235 185.022927 C 226.386859 185.030807 202.379051 209.038424 202.378868 238.640837 C 202.386747 268.257213 226.394365 292.265021 255.996778 292.265204 C 285.613154 292.257324 309.620962 268.249707 309.621145 238.647294 C 309.613265 209.030918 285.605648 185.02311 256.003235 185.022927 Z M 255.997336 210.197603 C 271.708476 210.193643 284.456472 222.922194 284.446469 238.641395 C 284.450429 254.352535 271.721878 267.100531 256.002676 267.090528 C 240.291537 267.094488 227.543541 254.365937 227.553544 238.646735 C 227.549584 222.935596 240.278135 210.1876 255.997336 210.197603 Z M 255.997336 210.197603 " transform="matrix(0.209813,0.121135,-0.121135,0.209813,7.196207,-49.08119)"/>
</g>
</svg>
