<?xml version="1.0" encoding="UTF-8"?>
<svg xmlns="http://www.w3.org/2000/svg" xmlns:xlink="http://www.w3.org/1999/xlink" width="32pt" height="32pt" viewBox="0 0 32 32" version="1.1">
<g id="surface1">
<path style=" stroke:none;fill-rule:nonzero;fill:rgb(30.196078%,30.196078%,30.196078%);fill-opacity:1;" d="M 27.636719 4.363281 L 4.363281 4.363281 L 4.363281 27.636719 L 27.636719 27.636719 Z M 26.183594 5.816406 L 26.183594 8.726562 L 20.363281 8.726562 L 20.363281 5.816406 Z M 26.183594 10.183594 L 26.183594 21.816406 L 20.363281 21.816406 L 20.363281 20.363281 L 18.910156 20.363281 L 18.910156 21.816406 L 13.089844 21.816406 L 13.089844 20.363281 L 11.636719 20.363281 L 11.636719 21.816406 L 5.816406 21.816406 L 5.816406 10.183594 L 11.636719 10.183594 L 11.636719 11.636719 L 13.089844 11.636719 L 13.089844 10.183594 L 18.910156 10.183594 L 18.910156 11.636719 L 20.363281 11.636719 L 20.363281 10.183594 Z M 26.183594 23.273438 L 26.183594 26.183594 L 20.363281 26.183594 L 20.363281 23.273438 Z M 18.910156 5.816406 L 18.910156 8.726562 L 13.089844 8.726562 L 13.089844 5.816406 Z M 18.910156 23.273438 L 18.910156 26.183594 L 13.089844 26.183594 L 13.089844 23.273438 Z M 11.636719 5.816406 L 11.636719 8.726562 L 5.816406 8.726562 L 5.816406 5.816406 Z M 11.636719 23.273438 L 11.636719 26.183594 L 5.816406 26.183594 L 5.816406 23.273438 Z M 11.636719 23.273438 "/>
<path style=" stroke:none;fill-rule:nonzero;fill:rgb(85.490196%,26.666667%,32.54902%);fill-opacity:1;" d="M 5.816406 20.363281 L 26.183594 20.363281 L 26.183594 18.910156 L 25.753906 18.910156 L 19.9375 13.089844 L 26.183594 13.089844 L 26.183594 11.636719 L 5.816406 11.636719 L 5.816406 13.089844 L 6.246094 13.089844 L 12.0625 18.910156 L 5.816406 18.910156 Z M 8.300781 13.089844 L 12.0625 13.089844 L 17.878906 18.910156 L 14.121094 18.910156 Z M 14.121094 13.089844 L 17.878906 13.089844 L 23.699219 18.910156 L 19.9375 18.910156 Z M 14.121094 13.089844 "/>
</g>
</svg>
