<?xml version="1.0" encoding="UTF-8"?>
<svg xmlns="http://www.w3.org/2000/svg" xmlns:xlink="http://www.w3.org/1999/xlink" width="32pt" height="32pt" viewBox="0 0 32 32" version="1.1">
<g id="surface1">
<path style="fill-rule:nonzero;fill:rgb(10.588235%,63.921569%,53.72549%);fill-opacity:0.984314;stroke-width:27.910587;stroke-linecap:butt;stroke-linejoin:miter;stroke:rgb(16.470588%,43.921569%,38.823529%);stroke-opacity:0.984314;stroke-miterlimit:4;" d="M 83.25 27.375 L 428.75 27.375 C 459.625 27.375 484.625 52.375 484.625 83.25 L 484.625 428.75 C 484.625 459.625 459.625 484.625 428.75 484.625 L 83.25 484.625 C 52.375 484.625 27.375 459.625 27.375 428.75 L 27.375 83.25 C 27.375 52.375 52.375 27.375 83.25 27.375 Z M 83.25 27.375 " transform="matrix(0.0625,0,0,0.0625,0,0)"/>
<path style=" stroke:none;fill-rule:nonzero;fill:rgb(70.196078%,70.196078%,70.196078%);fill-opacity:1;" d="M 15.929688 8.402344 L 15.929688 14.972656 L 11.007812 14.972656 L 11.007812 13 C 11.007812 11.03125 13.46875 8.402344 15.929688 8.402344 "/>
<path style=" stroke:none;fill-rule:nonzero;fill:rgb(97.647059%,97.647059%,97.647059%);fill-opacity:1;" d="M 15.910156 8.402344 L 15.910156 13.417969 L 11.007812 13.417969 L 11.007812 19.496094 C 11.007812 22.167969 12.855469 24.167969 15.929688 24.167969 C 19.007812 24.167969 20.855469 22.167969 20.855469 19.496094 L 20.855469 13.179688 C 20.855469 11.132812 18.382812 8.402344 15.910156 8.402344 Z M 15.910156 8.402344 "/>
<path style=" stroke:none;fill-rule:nonzero;fill:rgb(30.196078%,30.196078%,30.196078%);fill-opacity:1;" d="M 15.929688 11.6875 C 16.269531 11.6875 16.546875 12.015625 16.546875 12.417969 L 16.546875 14.371094 C 16.546875 14.777344 16.269531 15.105469 15.929688 15.105469 C 15.59375 15.105469 15.316406 14.777344 15.316406 14.371094 L 15.316406 12.417969 C 15.316406 12.015625 15.59375 11.6875 15.929688 11.6875 M 15.929688 11.6875 "/>
</g>
</svg>
