
<svg xmlns="http://www.w3.org/2000/svg" xmlns:xlink="http://www.w3.org/1999/xlink" width="96px" height="96px" viewBox="0 0 96 96" version="1.1">
<g id="surface1">
<path style=" stroke:none;fill-rule:nonzero;fill:rgb(70.196078%,70.196078%,70.196078%);fill-opacity:1;" d="M 25.734375 5.183594 C 19.25 5.183594 14.03125 10.402344 14.03125 16.886719 L 14.03125 79.113281 C 14.03125 85.597656 19.25 90.816406 25.734375 90.816406 L 70.265625 90.816406 C 76.75 90.816406 81.96875 85.597656 81.96875 79.113281 L 81.96875 19.0625 L 49.679688 5.183594 Z M 71.464844 5.242188 C 72.253906 5.320312 73.019531 5.480469 73.753906 5.707031 C 73.019531 5.480469 72.253906 5.320312 71.464844 5.242188 Z M 73.753906 5.707031 C 74.855469 6.046875 75.882812 6.546875 76.816406 7.175781 C 75.882812 6.546875 74.855469 6.046875 73.753906 5.707031 Z M 77.71875 7.847656 C 78.007812 8.085938 78.28125 8.339844 78.546875 8.605469 C 78.28125 8.339844 78.007812 8.085938 77.71875 7.847656 Z M 77.71875 7.847656 "/>
<path style=" stroke:none;fill-rule:nonzero;fill:rgb(100%,100%,100%);fill-opacity:0.682353;" d="M 81.96875 19.0625 L 49.679688 5.183594 L 49.679688 7.359375 C 49.679688 13.84375 54.898438 19.0625 61.382812 19.0625 Z M 81.96875 19.0625 "/>
<path style=" stroke:none;fill-rule:nonzero;fill:rgb(0%,0%,0%);fill-opacity:0.635294;" d="M 30.644531 61.597656 L 30.0625 58.132812 L 26.769531 58.132812 L 26.207031 61.597656 L 23.652344 61.597656 C 24.238281 58.644531 24.832031 55.953125 25.429688 53.53125 C 26.027344 51.089844 26.609375 48.78125 27.167969 46.601562 L 29.84375 46.601562 C 30.429688 48.796875 31.007812 51.132812 31.582031 53.601562 C 32.167969 56.058594 32.734375 58.722656 33.277344 61.597656 L 30.644531 61.597656 M 28.445312 49.507812 C 28.3125 50.074219 28.1875 50.613281 28.066406 51.132812 C 27.960938 51.632812 27.851562 52.132812 27.746094 52.632812 C 27.652344 53.117188 27.558594 53.613281 27.46875 54.113281 C 27.386719 54.613281 27.308594 55.128906 27.226562 55.664062 L 29.644531 55.664062 C 29.5625 55.128906 29.484375 54.613281 29.40625 54.113281 C 29.324219 53.613281 29.230469 53.117188 29.125 52.632812 C 29.03125 52.132812 28.925781 51.632812 28.804688 51.132812 C 28.699219 50.613281 28.578125 50.074219 28.445312 49.507812 "/>
<path style=" stroke:none;fill-rule:nonzero;fill:rgb(0%,0%,0%);fill-opacity:0.635294;" d="M 38.09375 59.417969 C 38.503906 59.417969 38.84375 59.371094 39.109375 59.273438 C 39.390625 59.160156 39.609375 59.015625 39.769531 58.835938 C 39.929688 58.644531 40.035156 58.433594 40.089844 58.207031 C 40.15625 57.964844 40.191406 57.722656 40.191406 57.480469 C 40.191406 57.175781 40.117188 56.898438 39.96875 56.65625 C 39.824219 56.414062 39.636719 56.203125 39.410156 56.027344 C 39.183594 55.832031 38.929688 55.664062 38.652344 55.519531 C 38.371094 55.355469 38.09375 55.210938 37.8125 55.082031 C 37.441406 54.921875 37.054688 54.734375 36.65625 54.523438 C 36.253906 54.316406 35.890625 54.046875 35.554688 53.726562 C 35.234375 53.402344 34.96875 53.007812 34.757812 52.539062 C 34.542969 52.054688 34.4375 51.457031 34.4375 50.746094 C 34.4375 49.339844 34.808594 48.242188 35.554688 47.449219 C 36.316406 46.660156 37.351562 46.261719 38.671875 46.261719 C 39.429688 46.261719 40.089844 46.367188 40.648438 46.578125 C 41.222656 46.789062 41.699219 47.023438 42.085938 47.28125 L 41.367188 49.582031 C 41.035156 49.355469 40.664062 49.160156 40.25 49 C 39.851562 48.839844 39.382812 48.757812 38.851562 48.757812 C 37.546875 48.757812 36.894531 49.332031 36.894531 50.480469 C 36.894531 50.769531 36.960938 51.027344 37.09375 51.253906 C 37.226562 51.464844 37.394531 51.65625 37.59375 51.835938 C 37.804688 51.996094 38.039062 52.140625 38.292969 52.273438 C 38.558594 52.402344 38.816406 52.523438 39.070312 52.636719 C 39.457031 52.8125 39.855469 53.015625 40.269531 53.242188 C 40.695312 53.449219 41.082031 53.742188 41.429688 54.113281 C 41.789062 54.46875 42.082031 54.921875 42.308594 55.46875 C 42.535156 56.003906 42.648438 56.679688 42.648438 57.503906 C 42.648438 58.910156 42.265625 60 41.507812 60.777344 C 40.761719 61.535156 39.625 61.914062 38.09375 61.914062 C 37.066406 61.914062 36.25 61.785156 35.636719 61.527344 C 35.023438 61.253906 34.5625 61.003906 34.257812 60.777344 L 34.976562 58.351562 C 35.335938 58.613281 35.761719 58.855469 36.253906 59.082031 C 36.761719 59.304688 37.375 59.417969 38.09375 59.417969 "/>
<path style=" stroke:none;fill-rule:nonzero;fill:rgb(0%,0%,0%);fill-opacity:0.635294;" d="M 49.359375 61.914062 C 47.613281 61.914062 46.28125 61.234375 45.363281 59.878906 C 44.445312 58.519531 43.984375 56.589844 43.984375 54.085938 C 43.984375 52.84375 44.125 51.738281 44.40625 50.769531 C 44.683594 49.796875 45.070312 48.984375 45.5625 48.320312 C 46.070312 47.640625 46.664062 47.132812 47.339844 46.792969 C 48.035156 46.4375 48.785156 46.261719 49.597656 46.261719 C 50.039062 46.261719 50.429688 46.308594 50.777344 46.40625 C 51.136719 46.488281 51.449219 46.582031 51.714844 46.695312 C 51.980469 46.808594 52.203125 46.929688 52.375 47.058594 C 52.5625 47.191406 52.699219 47.285156 52.792969 47.351562 L 52.15625 49.726562 C 51.847656 49.484375 51.476562 49.28125 51.035156 49.121094 C 50.609375 48.941406 50.117188 48.851562 49.558594 48.851562 C 49.171875 48.851562 48.792969 48.941406 48.421875 49.121094 C 48.0625 49.28125 47.734375 49.5625 47.441406 49.96875 C 47.160156 50.355469 46.929688 50.878906 46.742188 51.542969 C 46.570312 52.207031 46.484375 53.027344 46.484375 54.015625 C 46.484375 55.726562 46.722656 57.042969 47.203125 57.964844 C 47.695312 58.867188 48.492188 59.320312 49.597656 59.320312 C 50.238281 59.320312 50.761719 59.230469 51.175781 59.054688 C 51.601562 58.875 51.941406 58.699219 52.195312 58.519531 L 52.8125 60.871094 C 52.46875 61.128906 51.996094 61.371094 51.394531 61.597656 C 50.808594 61.808594 50.132812 61.914062 49.359375 61.914062 "/>
<path style=" stroke:none;fill-rule:nonzero;fill:rgb(0%,0%,0%);fill-opacity:0.635294;" d="M 54.511719 61.597656 L 54.511719 59.128906 L 57.207031 59.128906 L 57.207031 49.074219 L 54.511719 49.074219 L 54.511719 46.601562 L 62.359375 46.601562 L 62.359375 49.074219 L 59.683594 49.074219 L 59.683594 59.128906 L 62.359375 59.128906 L 62.359375 61.597656 L 54.511719 61.597656 "/>
<path style=" stroke:none;fill-rule:nonzero;fill:rgb(0%,0%,0%);fill-opacity:0.635294;" d="M 64.5 61.597656 L 64.5 59.128906 L 67.195312 59.128906 L 67.195312 49.074219 L 64.5 49.074219 L 64.5 46.601562 L 72.347656 46.601562 L 72.347656 49.074219 L 69.671875 49.074219 L 69.671875 59.128906 L 72.347656 59.128906 L 72.347656 61.597656 L 64.5 61.597656 "/>
</g>
</svg>
