
<svg xmlns="http://www.w3.org/2000/svg" xmlns:xlink="http://www.w3.org/1999/xlink" width="96px" height="96px" viewBox="0 0 96 96" version="1.1">
<g id="surface1">
<path style=" stroke:none;fill-rule:nonzero;fill:rgb(60.392157%,46.666667%,23.529412%);fill-opacity:1;" d="M 25.734375 5.183594 C 19.25 5.183594 14.03125 10.402344 14.03125 16.886719 L 14.03125 79.113281 C 14.03125 85.597656 19.25 90.816406 25.734375 90.816406 L 70.265625 90.816406 C 76.75 90.816406 81.96875 85.597656 81.96875 79.113281 L 81.96875 19.0625 L 49.679688 5.183594 Z M 71.464844 5.242188 C 72.253906 5.320312 73.019531 5.480469 73.753906 5.707031 C 73.019531 5.480469 72.253906 5.320312 71.464844 5.242188 Z M 73.753906 5.707031 C 74.855469 6.046875 75.882812 6.546875 76.816406 7.175781 C 75.882812 6.546875 74.855469 6.046875 73.753906 5.707031 Z M 77.71875 7.847656 C 78.007812 8.085938 78.28125 8.339844 78.546875 8.605469 C 78.28125 8.339844 78.007812 8.085938 77.71875 7.847656 Z M 77.71875 7.847656 "/>
<path style=" stroke:none;fill-rule:nonzero;fill:rgb(100%,100%,100%);fill-opacity:0.682353;" d="M 81.96875 19.0625 L 49.679688 5.183594 L 49.679688 7.359375 C 49.679688 13.84375 54.898438 19.0625 61.382812 19.0625 Z M 81.96875 19.0625 "/>
<path style=" stroke:none;fill-rule:nonzero;fill:rgb(100%,100%,100%);fill-opacity:1;" d="M 63.078125 36.027344 C 62.925781 36.101562 62.792969 36.347656 62.664062 36.742188 C 62.316406 37.796875 59.878906 45.085938 46.070312 45.4375 C 39.484375 45.605469 36.679688 39.726562 36.679688 39.726562 L 36.511719 47.289062 C 36.511719 47.289062 37.222656 48.972656 35.808594 50.734375 C 35.734375 50.613281 35.6875 50.472656 35.601562 50.355469 C 35.09375 49.640625 34.5 49.039062 33.863281 48.589844 C 33.136719 48.074219 32.378906 47.734375 31.628906 47.625 C 30.769531 47.496094 29.933594 47.683594 29.273438 48.171875 C 28.609375 48.65625 28.222656 49.398438 28.074219 50.269531 C 27.941406 51.027344 27.988281 51.84375 28.238281 52.707031 C 28.457031 53.460938 28.804688 54.21875 29.3125 54.933594 C 29.851562 55.691406 30.519531 56.359375 31.21875 56.824219 C 32.003906 57.351562 32.839844 57.660156 33.660156 57.707031 C 33.910156 57.722656 34.171875 57.660156 34.402344 57.625 C 39.703125 61.890625 50.226562 65.875 57.203125 61.320312 C 57.351562 61.371094 57.503906 61.4375 57.65625 61.488281 C 57.660156 61.5625 57.636719 61.632812 57.65625 61.699219 L 57.988281 61.574219 C 58.046875 61.59375 58.09375 61.640625 58.152344 61.65625 C 58.167969 61.660156 58.183594 61.652344 58.195312 61.65625 L 58.320312 61.78125 L 61.464844 62.917969 C 61.335938 64.027344 61.875 65.285156 63.242188 65.816406 C 65.707031 66.773438 68 68 68 68 C 66.828125 63.949219 66.398438 60.699219 63.324219 60.984375 C 62.753906 61.039062 62.324219 61.277344 62 61.613281 L 59.230469 59.808594 L 59.105469 59.808594 L 59.0625 59.765625 C 62.796875 56.035156 64.980469 49.023438 63.65625 36.828125 C 63.582031 36.21875 63.328125 35.902344 63.078125 36.027344 Z M 63.078125 36.027344 "/>
</g>
</svg>
