
<svg xmlns="http://www.w3.org/2000/svg" xmlns:xlink="http://www.w3.org/1999/xlink" width="96px" height="96px" viewBox="0 0 96 96" version="1.1">
<g id="surface1">
<path style=" stroke:none;fill-rule:nonzero;fill:rgb(0%,41.568627%,72.54902%);fill-opacity:1;" d="M 25.734375 5.183594 C 19.25 5.183594 14.03125 10.402344 14.03125 16.886719 L 14.03125 79.113281 C 14.03125 85.597656 19.25 90.816406 25.734375 90.816406 L 70.265625 90.816406 C 76.75 90.816406 81.96875 85.597656 81.96875 79.113281 L 81.96875 19.0625 L 49.679688 5.183594 Z M 71.464844 5.242188 C 72.253906 5.320312 73.019531 5.480469 73.753906 5.707031 C 73.019531 5.480469 72.253906 5.320312 71.464844 5.242188 Z M 73.753906 5.707031 C 74.855469 6.046875 75.882812 6.546875 76.816406 7.175781 C 75.882812 6.546875 74.855469 6.046875 73.753906 5.707031 Z M 77.71875 7.847656 C 78.007812 8.085938 78.28125 8.339844 78.546875 8.605469 C 78.28125 8.339844 78.007812 8.085938 77.71875 7.847656 Z M 77.71875 7.847656 "/>
<path style=" stroke:none;fill-rule:nonzero;fill:rgb(100%,100%,100%);fill-opacity:0.682353;" d="M 81.96875 19.0625 L 49.679688 5.183594 L 49.679688 7.359375 C 49.679688 13.84375 54.898438 19.0625 61.382812 19.0625 Z M 81.96875 19.0625 "/>
<path style=" stroke:none;fill-rule:nonzero;fill:rgb(100%,100%,100%);fill-opacity:1;" d="M 48.375 32.347656 C 46.964844 32.355469 45.589844 32.464844 44.40625 32.675781 C 40.914062 33.285156 40.164062 33.464844 40.164062 35.824219 L 40.164062 41.042969 L 48.863281 41.042969 L 48.863281 42.78125 L 36.683594 42.78125 C 34.285156 42.78125 32.71875 44.25 32.058594 46.96875 C 31.300781 50.085938 31.269531 52.027344 32.058594 55.28125 C 32.644531 57.703125 34.28125 60.175781 36.679688 60.175781 L 38.421875 60.175781 L 38.421875 54.957031 C 38.421875 52.257812 40.84375 49.738281 43.640625 49.738281 L 52.34375 49.738281 C 54.640625 49.738281 55.824219 48.546875 55.824219 46.261719 L 55.824219 37.566406 C 55.824219 35.347656 54.910156 33.042969 52.671875 32.675781 C 51.253906 32.441406 49.785156 32.339844 48.375 32.347656 Z M 45.382812 35.824219 C 46.34375 35.824219 47.125 36.605469 47.125 37.566406 C 47.125 38.527344 46.34375 39.304688 45.382812 39.304688 C 44.421875 39.304688 43.644531 38.527344 43.644531 37.566406 C 43.644531 36.605469 44.421875 35.824219 45.382812 35.824219 Z M 45.382812 35.824219 "/>
<path style=" stroke:none;fill-rule:nonzero;fill:rgb(100%,100%,100%);fill-opacity:1;" d="M 47.625 68.871094 C 49.035156 68.863281 50.410156 68.75 51.59375 68.542969 C 55.085938 67.933594 55.835938 67.753906 55.835938 65.390625 L 55.835938 60.175781 L 47.136719 60.175781 L 47.136719 58.433594 L 59.316406 58.433594 C 61.714844 58.433594 63.28125 56.96875 63.941406 54.25 C 64.699219 51.132812 64.730469 49.1875 63.941406 45.933594 C 63.351562 43.511719 61.714844 41.042969 59.316406 41.042969 L 57.578125 41.042969 L 57.578125 46.261719 C 57.578125 48.960938 55.15625 51.476562 52.355469 51.476562 L 43.652344 51.476562 C 41.359375 51.476562 40.171875 52.671875 40.171875 54.957031 L 40.171875 63.652344 C 40.171875 65.871094 41.085938 68.171875 43.328125 68.542969 C 44.746094 68.777344 46.214844 68.875 47.625 68.871094 Z M 50.617188 65.390625 C 49.65625 65.390625 48.875 64.613281 48.875 63.652344 C 48.875 62.691406 49.65625 61.914062 50.617188 61.914062 C 51.578125 61.914062 52.355469 62.691406 52.355469 63.652344 C 52.355469 64.613281 51.578125 65.390625 50.617188 65.390625 Z M 50.617188 65.390625 "/>
</g>
</svg>
