
<svg xmlns="http://www.w3.org/2000/svg" xmlns:xlink="http://www.w3.org/1999/xlink" width="256px" height="256px" viewBox="0 0 256 256" version="1.1">
<g id="surface1">
<path style="fill-rule:nonzero;fill:rgb(70.196078%,70.196078%,70.196078%);fill-opacity:1;stroke-width:7.019178;stroke-linecap:butt;stroke-linejoin:miter;stroke:rgb(100%,40%,0%);stroke-opacity:1;stroke-miterlimit:4;" d="M 20.548828 6.509766 L 107.451172 6.509766 C 115.205078 6.509766 121.490234 12.794922 121.490234 20.548828 L 121.490234 107.451172 C 121.490234 115.205078 115.205078 121.490234 107.451172 121.490234 L 20.548828 121.490234 C 12.794922 121.490234 6.509766 115.205078 6.509766 107.451172 L 6.509766 20.548828 C 6.509766 12.794922 12.794922 6.509766 20.548828 6.509766 Z M 20.548828 6.509766 " transform="matrix(2,0,0,2,0,0)"/>
<path style="fill-rule:nonzero;fill:rgb(100%,40%,0%);fill-opacity:1;stroke-width:1;stroke-linecap:round;stroke-linejoin:miter;stroke:rgb(100%,40%,0%);stroke-opacity:1;stroke-miterlimit:4;" d="M 59.216797 112.683594 C 57.003906 111.175781 56.464844 109.953125 56.216797 105.867188 L 55.986328 102.060547 L 53.742188 101.539062 C 52.507812 101.251953 50.541016 100.648438 49.376953 100.201172 L 47.255859 99.388672 L 43.521484 103.035156 C 40.693359 105.794922 39.384766 106.757812 38.138672 106.990234 C 34.910156 107.595703 31.066406 104.425781 31.066406 101.154297 C 31.066406 99.533203 32.890625 96.539062 35.302734 94.208984 C 36.181641 93.357422 36.902344 92.484375 36.902344 92.267578 C 36.902344 92.050781 35.777344 90.599609 34.400391 89.041016 L 31.900391 86.210938 L 27.554688 87.523438 C 22.414062 89.078125 20.800781 88.947266 18.664062 86.810547 C 14.691406 82.837891 16.806641 78.109375 23.472656 76.070312 C 27.236328 74.916016 26.935547 75.664062 26.279297 69.044922 L 25.902344 65.232422 L 22.888672 64.6875 C 19.103516 64.003906 17.345703 63.101562 16.230469 61.273438 C 15.154297 59.507812 15.115234 57.773438 16.101562 55.695312 C 17.361328 53.039062 19.005859 52.322266 23.238281 52.589844 C 25.228516 52.716797 27.130859 52.882812 27.462891 52.960938 C 27.822266 53.042969 28.732422 51.818359 29.71875 49.917969 C 30.626953 48.167969 31.996094 45.826172 32.761719 44.712891 L 34.154297 42.689453 L 31.453125 40.037109 C 28.337891 36.976562 27.472656 35.548828 27.476562 33.476562 C 27.482422 30.652344 30.396484 27.738281 33.220703 27.732422 C 35.308594 27.728516 37.142578 28.800781 40.410156 31.9375 L 43.244141 34.662109 L 45.517578 33.382812 C 46.765625 32.681641 49.429688 31.550781 51.439453 30.871094 L 55.087891 29.634766 L 55.333984 26.101562 C 55.470703 24.15625 55.804688 22.162109 56.080078 21.667969 C 57.722656 18.708984 61.373047 17.492188 64.142578 18.982422 C 66.548828 20.277344 67.435547 22.138672 67.435547 25.888672 C 67.435547 28.085938 67.615234 29.150391 67.996094 29.251953 C 68.304688 29.332031 70.074219 29.751953 71.925781 30.183594 C 73.777344 30.617188 76.888672 31.746094 78.839844 32.695312 L 82.386719 34.419922 L 85.351562 31.599609 C 89.431641 27.710938 90.169922 27.28125 92.75 27.28125 C 94.753906 27.28125 95.130859 27.455078 96.691406 29.095703 C 98.105469 30.582031 98.417969 31.238281 98.417969 32.710938 C 98.417969 35.171875 97.585938 36.585938 94.402344 39.533203 C 92.908203 40.917969 91.681641 42.15625 91.681641 42.285156 C 91.681641 42.414062 92.683594 44.054688 93.910156 45.929688 C 95.132812 47.806641 96.386719 50.035156 96.693359 50.882812 C 97.324219 52.628906 97.492188 52.662109 102.017578 51.914062 C 104.398438 51.521484 105.416016 51.527344 106.427734 51.947266 C 110.021484 53.435547 111.582031 57.597656 109.691406 60.654297 C 108.570312 62.46875 106.544922 63.544922 103.507812 63.941406 C 100.048828 64.394531 99.767578 64.664062 99.744141 67.595703 C 99.734375 69.007812 99.560547 71.019531 99.357422 72.066406 C 98.927734 74.291016 99.148438 74.564453 102.007812 75.330078 C 106.712891 76.587891 109.189453 78.876953 109.193359 81.972656 C 109.195312 85.144531 106.5 87.894531 103.380859 87.896484 C 102.527344 87.898438 100.107422 87.373047 98.003906 86.730469 L 94.173828 85.5625 L 93.490234 86.607422 C 93.113281 87.181641 91.945312 88.623047 90.898438 89.810547 C 89.847656 90.998047 88.990234 92.072266 88.990234 92.197266 C 88.990234 92.322266 90.289062 93.808594 91.878906 95.5 C 93.810547 97.558594 94.861328 99.076172 95.050781 100.089844 C 95.572266 102.878906 93.744141 105.853516 90.941406 106.779297 C 88.341797 107.636719 86.822266 106.935547 82.816406 103.025391 L 79.111328 99.414062 L 75.40625 100.609375 C 73.369141 101.265625 70.994141 101.970703 70.130859 102.175781 L 68.558594 102.544922 L 68.308594 105.884766 C 68.039062 109.509766 67.675781 110.457031 65.919922 112.097656 C 64.339844 113.574219 60.960938 113.871094 59.216797 112.683594 Z M 65.802734 110.841797 C 67.005859 109.640625 67.152344 109.167969 67.341797 105.898438 C 67.457031 103.910156 67.777344 102.101562 68.054688 101.884766 C 68.332031 101.666016 69.669922 101.230469 71.027344 100.917969 C 72.386719 100.605469 74.773438 99.845703 76.335938 99.228516 L 79.173828 98.105469 L 82.058594 101.269531 C 85.582031 105.126953 88.064453 106.492188 90.392578 105.849609 C 92.263672 105.332031 93.361328 104.255859 93.867188 102.441406 C 94.457031 100.328125 93.617188 98.40625 90.773438 95.367188 C 89.298828 93.789062 88.089844 92.335938 88.089844 92.134766 C 88.089844 91.935547 88.857422 90.851562 89.794922 89.724609 C 90.734375 88.597656 91.960938 87.017578 92.521484 86.214844 C 93.082031 85.412109 93.880859 84.757812 94.294922 84.761719 C 94.710938 84.765625 96.666016 85.271484 98.642578 85.884766 C 102.945312 87.220703 104.044922 87.261719 105.863281 86.154297 C 108.521484 84.533203 108.992188 80.601562 106.777344 78.519531 C 106.197266 77.974609 104.029297 76.978516 101.958984 76.304688 C 98.320312 75.123047 98.195312 75.037109 98.255859 73.744141 C 98.417969 70.222656 99.025391 64.568359 99.289062 64.146484 C 99.449219 63.884766 101.130859 63.375 103.023438 63.011719 C 107.185547 62.216797 108.085938 61.771484 108.964844 60.068359 C 110.099609 57.878906 109.835938 56.119141 108.117188 54.400391 C 106.75 53.035156 106.337891 52.878906 104.1875 52.900391 C 102.867188 52.916016 100.833984 53.085938 99.671875 53.275391 C 98.507812 53.46875 97.373047 53.507812 97.148438 53.363281 C 96.921875 53.216797 96.082031 51.787109 95.28125 50.179688 C 94.478516 48.574219 93.138672 46.302734 92.304688 45.128906 C 91.466797 43.953125 90.732422 42.785156 90.671875 42.529297 C 90.611328 42.275391 92.044922 40.591797 93.863281 38.791016 C 96.826172 35.851562 97.189453 35.302734 97.398438 33.429688 C 97.617188 31.503906 97.513672 31.226562 96.050781 29.761719 C 94.785156 28.498047 94.119141 28.179688 92.738281 28.179688 C 90.595703 28.181641 89.089844 29.107422 85.525391 32.617188 C 83.992188 34.128906 82.615234 35.363281 82.466797 35.363281 C 82.320312 35.363281 80.544922 34.574219 78.523438 33.609375 C 75.375 32.109375 72.908203 31.335938 67.548828 30.177734 C 66.617188 29.976562 66.539062 29.710938 66.539062 26.808594 C 66.539062 25.076172 66.251953 22.972656 65.900391 22.132812 C 65.087891 20.189453 62.921875 19.011719 60.791016 19.357422 C 57.689453 19.861328 56.216797 22.425781 56.212891 27.337891 C 56.210938 30.210938 55.929688 30.566406 53.068359 31.310547 C 51.957031 31.601562 49.392578 32.630859 47.369141 33.599609 C 45.347656 34.570312 43.449219 35.363281 43.15625 35.363281 C 42.861328 35.363281 41.142578 33.960938 39.337891 32.244141 C 36.955078 29.980469 35.603516 29.042969 34.408203 28.818359 C 32.072266 28.380859 29.861328 29.523438 28.984375 31.623047 C 27.882812 34.261719 28.445312 35.6875 31.964844 39.181641 C 33.693359 40.896484 35.107422 42.451172 35.107422 42.636719 C 35.107422 42.822266 34.208984 44.316406 33.107422 45.957031 C 32.007812 47.595703 30.662109 50.015625 30.115234 51.335938 C 29.568359 52.654297 28.853516 53.835938 28.527344 53.960938 C 28.199219 54.085938 26.320312 53.955078 24.349609 53.666016 C 21.195312 53.208984 20.572266 53.238281 19.154297 53.914062 C 15.8125 55.507812 15.480469 60.408203 18.589844 62.298828 C 19.357422 62.763672 21.355469 63.376953 23.03125 63.660156 C 24.707031 63.943359 26.257812 64.410156 26.478516 64.697266 C 26.808594 65.130859 27.933594 73.298828 27.925781 75.199219 C 27.923828 75.5 26.226562 76.263672 24.154297 76.896484 C 18.748047 78.542969 16.929688 80.701172 18.056641 84.119141 C 19.205078 87.597656 22.041016 88.216797 28.148438 86.320312 C 30.123047 85.707031 31.964844 85.205078 32.240234 85.205078 C 32.515625 85.205078 33.222656 85.894531 33.810547 86.738281 C 34.400391 87.580078 35.664062 89.197266 36.621094 90.330078 L 38.357422 92.388672 L 35.429688 95.492188 C 33.757812 97.263672 32.375 99.173828 32.207031 99.9375 C 31.642578 102.505859 33.759766 105.632812 36.228516 105.873047 C 38.708984 106.117188 39.373047 105.753906 43.138672 102.066406 L 47.015625 98.273438 L 51.275391 99.648438 C 57.292969 101.585938 56.849609 101.146484 57.128906 105.457031 C 57.408203 109.792969 57.960938 111.066406 59.949219 111.960938 C 61.949219 112.861328 64.216797 112.427734 65.802734 110.841797 Z M 56.693359 94.833984 C 50.386719 93.466797 43.533203 89.132812 39.728516 84.105469 C 32.457031 74.496094 31.373047 63.308594 36.671875 52.570312 C 43.064453 39.617188 58.460938 33.222656 72.167969 37.824219 C 81.376953 40.914062 88.457031 48.142578 91.314453 57.365234 C 92.166016 60.117188 92.353516 61.714844 92.339844 66.121094 C 92.324219 70.833984 92.166016 71.960938 91.072266 75.097656 C 88.353516 82.888672 83.337891 88.681641 76.300781 92.15625 C 69.748047 95.390625 63.310547 96.269531 56.693359 94.833984 Z M 71.978516 93.019531 C 75.947266 91.763672 81.246094 88.447266 83.804688 85.617188 C 90.074219 78.675781 92.804688 69.236328 91.048828 60.568359 C 88.898438 49.960938 81.855469 41.970703 71.738281 38.65625 C 68.666016 37.650391 67.316406 37.46875 62.945312 37.46875 C 56.476562 37.46875 52.09375 38.753906 47.044922 42.130859 C 41.470703 45.857422 37.494141 51.255859 35.492188 57.814453 C 34.048828 62.533203 34.048828 69.259766 35.492188 73.978516 C 38.703125 84.492188 47.804688 92.507812 58.423828 94.181641 C 62.181641 94.775391 68 94.275391 71.978516 93.019531 Z M 71.978516 93.019531 " transform="matrix(2,0,0,2,0,0)"/>
<path style=" stroke:none;fill-rule:evenodd;fill:rgb(100%,40%,0%);fill-opacity:1;" d="M 120.214844 223.28125 C 116.789062 221.726562 115.679688 219.125 114.976562 210.976562 C 114.453125 204.9375 114.117188 203.714844 112.625 202.457031 C 111.578125 201.578125 95.550781 195.992188 94.078125 195.992188 C 93.765625 195.992188 90.472656 198.949219 86.757812 202.5625 C 78.832031 210.285156 77.070312 211.40625 73.375 211.070312 C 69.484375 210.71875 66.398438 207.929688 65.328125 203.804688 C 64.359375 200.070312 65.566406 197.867188 73.03125 189.753906 L 77.675781 184.699219 L 75.582031 182.269531 C 74.429688 180.933594 72.195312 178.175781 70.617188 176.140625 C 66.515625 170.859375 65.570312 169.914062 64.367188 169.914062 C 63.800781 169.914062 60.53125 170.703125 57.097656 171.671875 C 47.65625 174.328125 43.359375 174.609375 40.242188 172.765625 C 36.921875 170.804688 35.328125 164.90625 37.148438 161.332031 C 38.539062 158.609375 41.1875 157.074219 49.878906 153.953125 C 52.496094 153.015625 55.089844 151.886719 55.640625 151.445312 L 56.644531 150.648438 L 56.21875 146.367188 C 55.695312 141.125 54.390625 132.125 53.871094 130.203125 C 53.394531 128.4375 52.996094 128.25 45.984375 126.5625 C 38.898438 124.851562 37.414062 124.242188 35.828125 122.390625 C 31.605469 117.453125 33.945312 109.75 40.238281 107.878906 C 42.019531 107.351562 42.773438 107.34375 46.988281 107.84375 C 53.714844 108.640625 57.484375 108.609375 58.25 107.742188 C 58.578125 107.367188 59.929688 104.890625 61.253906 102.242188 C 62.578125 99.59375 64.8125 95.570312 66.21875 93.292969 C 69.851562 87.4375 71 85.46875 71 85.109375 C 71 84.9375 68.457031 82.101562 65.351562 78.804688 C 57.53125 70.5 56.53125 68.171875 58.765625 63.453125 C 60.40625 59.976562 63.242188 58.214844 67.195312 58.214844 C 69.796875 58.214844 72.1875 59.707031 78.429688 65.21875 C 85.027344 71.054688 85.699219 71.53125 86.898438 71.242188 C 87.402344 71.125 90.820312 69.695312 94.488281 68.078125 C 98.15625 66.453125 103.15625 64.453125 105.597656 63.625 C 108.039062 62.796875 110.460938 61.84375 110.980469 61.5 C 112.433594 60.546875 112.910156 58.835938 113.15625 53.695312 C 113.410156 48.277344 114.339844 44.929688 116.253906 42.507812 C 119.398438 38.539062 125.867188 38.347656 129.453125 42.125 C 131.257812 44.027344 131.78125 45.921875 132.171875 51.988281 C 132.371094 55.09375 132.65625 58.238281 132.804688 58.980469 C 133.125 60.578125 133.359375 60.679688 141.054688 62.507812 C 147.273438 63.992188 151.289062 65.414062 159.0625 68.882812 C 162.21875 70.292969 164.949219 71.449219 165.121094 71.449219 C 165.296875 71.449219 167.703125 69.332031 170.46875 66.742188 C 175.855469 61.703125 179.019531 59.109375 181.039062 58.070312 C 182.613281 57.257812 185.335938 56.871094 187.105469 57.203125 C 188.898438 57.539062 192.191406 60.203125 193.429688 62.3125 C 194.304688 63.8125 194.386719 64.269531 194.15625 66.335938 C 193.785156 69.601562 192.484375 71.617188 187.101562 77.289062 C 181.742188 82.925781 180.75 84.140625 180.75 85.085938 C 180.75 85.464844 182.003906 87.671875 183.535156 89.996094 C 185.066406 92.316406 187.625 96.578125 189.214844 99.46875 C 192.984375 106.3125 193.597656 107.195312 194.761719 107.445312 C 195.296875 107.5625 198.101562 107.394531 200.992188 107.070312 C 210.765625 105.976562 213.011719 106.351562 215.914062 109.570312 C 218.742188 112.710938 219.242188 115.738281 217.5 119.234375 C 215.699219 122.847656 214.671875 123.351562 203.941406 125.882812 C 201.179688 126.53125 198.683594 127.296875 198.398438 127.582031 C 197.6875 128.296875 197.203125 131.222656 196.523438 138.976562 C 195.679688 148.53125 195.710938 149.449219 196.925781 150.40625 C 197.472656 150.835938 198.742188 151.484375 199.75 151.851562 C 206.28125 154.226562 211.484375 156.4375 212.578125 157.304688 C 217.640625 161.3125 215.96875 170.089844 209.679688 172.492188 C 207.320312 173.390625 204.28125 173.058594 197.679688 171.171875 C 189.113281 168.726562 188.6875 168.648438 187.460938 169.289062 C 186.875 169.59375 185.9375 170.34375 185.382812 170.953125 C 184.117188 172.335938 176.859375 181.800781 175.945312 183.265625 L 175.257812 184.351562 L 177.132812 186.640625 C 178.15625 187.898438 180.445312 190.632812 182.203125 192.714844 C 183.96875 194.796875 185.789062 197.277344 186.246094 198.226562 C 188.589844 203.070312 186.726562 208.410156 181.984375 210.445312 C 176.835938 212.65625 171.789062 209.953125 163.070312 200.304688 C 160.734375 197.71875 158.625 195.601562 158.382812 195.601562 C 158.140625 195.601562 156.460938 196.195312 154.65625 196.925781 C 152.84375 197.652344 149.265625 198.890625 146.695312 199.679688 C 144.128906 200.46875 140.601562 201.554688 138.867188 202.085938 C 136.289062 202.875 135.613281 203.25 135.222656 204.097656 C 134.960938 204.671875 134.484375 207.679688 134.171875 210.78125 C 133.859375 213.882812 133.4375 217.0625 133.238281 217.839844 C 132.785156 219.601562 130.234375 222.28125 128.082031 223.257812 C 125.953125 224.226562 122.3125 224.234375 120.214844 223.28125 Z M 136.421875 190.539062 C 147.492188 188.296875 157.945312 183.1875 166.042969 176.046875 C 173.046875 169.875 178.617188 161.421875 182.457031 151.140625 C 184.914062 144.570312 185.164062 142.8125 185.183594 132.164062 C 185.203125 121.839844 184.992188 120.101562 183.007812 113.871094 C 176.171875 92.460938 157.84375 76.632812 135.457031 72.816406 C 131.398438 72.125 121.675781 72.03125 117.582031 72.648438 C 108.335938 74.035156 99.085938 77.695312 91.578125 82.945312 C 86.722656 86.335938 79.800781 93.414062 76.6875 98.175781 C 66.1875 114.210938 63.382812 132.75 68.894531 149.617188 C 71.976562 159.03125 76.621094 166.613281 83.632812 173.644531 C 93.5 183.546875 106.171875 189.820312 119.359375 191.335938 C 123.753906 191.84375 131.863281 191.460938 136.421875 190.539062 Z M 136.421875 190.539062 "/>
<path style=" stroke:none;fill-rule:evenodd;fill:rgb(100%,100%,100%);fill-opacity:1;" d="M 87.898438 163.382812 C 87.195312 162.910156 87.183594 162.421875 87.828125 159.90625 C 88.984375 155.398438 108.101562 103.511719 112.375 93.273438 C 112.9375 91.9375 113.832031 90.929688 114.796875 90.5625 C 115.722656 90.210938 120.304688 90.050781 126.316406 90.160156 C 134.289062 90.304688 136.460938 90.515625 137.097656 91.1875 C 139.035156 93.25 163.390625 158.710938 163.390625 161.859375 C 163.390625 162.890625 163 163.261719 161.628906 163.535156 C 158.417969 164.179688 145.71875 163.914062 144.269531 163.175781 C 143.429688 162.75 142.480469 161.382812 141.820312 159.664062 C 139.203125 152.835938 139.082031 152.648438 136.960938 152.0625 C 134.703125 151.433594 119.804688 151.289062 114.492188 151.84375 L 111.078125 152.203125 L 109.304688 157.15625 C 108.332031 159.882812 107.128906 162.445312 106.632812 162.859375 C 105.523438 163.78125 89.167969 164.238281 87.898438 163.382812 Z M 132.664062 135.71875 C 133.585938 134.953125 132.992188 131.726562 130.117188 121.898438 C 125.648438 106.617188 124.726562 106.398438 120.804688 119.734375 C 118.15625 128.734375 116.988281 134.617188 117.707031 135.335938 C 119.144531 136.773438 131.027344 137.078125 132.664062 135.71875 Z M 132.664062 135.71875 "/>
</g>
</svg>
