
<svg xmlns="http://www.w3.org/2000/svg" xmlns:xlink="http://www.w3.org/1999/xlink" width="256px" height="256px" viewBox="0 0 256 256" version="1.1">
<g id="surface1">
<path style="fill-rule:nonzero;fill:rgb(100%,100%,100%);fill-opacity:1;stroke-width:28.191782;stroke-linecap:butt;stroke-linejoin:miter;stroke:rgb(11.764706%,72.54902%,85.098039%);stroke-opacity:1;stroke-miterlimit:4;" d="M 81.484375 25.09375 L 430.515625 25.09375 C 461.65625 25.09375 486.90625 50.34375 486.90625 81.484375 L 486.90625 430.515625 C 486.90625 461.65625 461.65625 486.90625 430.515625 486.90625 L 81.484375 486.90625 C 50.34375 486.90625 25.09375 461.65625 25.09375 430.515625 L 25.09375 81.484375 C 25.09375 50.34375 50.34375 25.09375 81.484375 25.09375 Z M 81.484375 25.09375 " transform="matrix(0.5,0,0,0.5,0,0)"/>
<path style=" stroke:none;fill-rule:nonzero;fill:rgb(25.882353%,74.901961%,98.039216%);fill-opacity:1;" d="M 129.304688 195.273438 C 128.554688 194.519531 128.734375 193.652344 130.75 188.4375 C 133.679688 180.835938 134.0625 179.300781 134.078125 175 C 134.085938 171.441406 134.023438 171.125 133.171875 170.429688 C 132.664062 170.023438 131.824219 169.6875 131.300781 169.6875 C 129.023438 169.6875 119.078125 166.796875 111.96875 164.070312 C 99.960938 159.464844 83.375 148.914062 72.726562 139.105469 C 71.484375 137.960938 70.320312 137.023438 70.132812 137.023438 C 69.945312 137.023438 69.582031 137.679688 69.320312 138.484375 C 68.707031 140.371094 65.71875 146.4375 64.625 148.035156 C 59.71875 155.15625 53.515625 160.078125 46.398438 162.496094 C 42.554688 163.804688 37.949219 164.632812 34.53125 164.632812 C 29.90625 164.632812 29.40625 163.398438 32.199219 158.90625 C 37.023438 151.148438 40.867188 141.414062 42.515625 132.75 C 43.210938 129.109375 43.125 122.632812 42.328125 118.757812 C 41.023438 112.398438 38.226562 105.410156 33.78125 97.398438 C 30.734375 91.898438 30.5 91.101562 31.609375 89.992188 C 32.363281 89.242188 32.703125 89.191406 35.4375 89.429688 C 47.289062 90.460938 58.574219 98.273438 67.273438 111.460938 C 68.648438 113.542969 69.90625 115.25 70.070312 115.25 C 70.234375 115.25 72.066406 113.785156 74.140625 111.992188 C 82.394531 104.867188 93.722656 96.734375 100.984375 92.726562 C 105.328125 90.328125 107.398438 87.101562 107.75 82.199219 C 108.105469 77.273438 106.21875 72.648438 100.75 65.039062 C 99.15625 62.820312 97.636719 60.601562 97.375 60.101562 C 96.265625 58.007812 95.125 58.089844 124.363281 58.089844 L 151.40625 58.089844 L 153.742188 59.039062 C 161.351562 62.132812 169.789062 70.589844 173.640625 78.992188 L 175.304688 82.625 L 178.027344 83.445312 C 185.292969 85.632812 194.074219 89.734375 200.007812 93.710938 C 210.835938 100.972656 220.453125 111.882812 226.171875 123.386719 C 227.625 126.308594 227.796875 126.960938 227.796875 129.414062 C 227.789062 132.65625 226.84375 134.695312 222.78125 140.179688 C 212.015625 154.71875 195.988281 164.164062 175.109375 168.273438 C 172.4375 168.796875 169.578125 169.34375 168.75 169.484375 C 167.648438 169.671875 167.191406 169.96875 167.03125 170.585938 C 166.523438 172.570312 163.710938 177.316406 161.121094 180.5625 C 156.820312 185.957031 149.320312 192.632812 144.984375 194.921875 C 143.578125 195.664062 142.796875 195.742188 136.601562 195.742188 C 131.808594 195.742188 129.632812 195.601562 129.304688 195.273438 Z M 191.148438 136.167969 C 193.09375 135.507812 196.175781 133.332031 197.445312 131.71875 C 198.078125 130.921875 199.015625 129.21875 199.53125 127.9375 C 200.335938 125.949219 200.453125 125.132812 200.3125 122.425781 C 200.09375 118.339844 198.84375 115.664062 195.898438 112.96875 C 192.886719 110.21875 190.265625 109.296875 186 109.5 C 183.15625 109.632812 182.351562 109.835938 180.234375 110.964844 C 177.386719 112.484375 175.433594 114.5625 174 117.582031 C 173.15625 119.367188 172.992188 120.273438 172.992188 123.027344 C 172.992188 125.78125 173.160156 126.699219 174.015625 128.539062 C 175.898438 132.589844 179.757812 135.796875 183.75 136.632812 C 185.65625 137.03125 189.28125 136.800781 191.148438 136.167969 Z M 184.082031 128.199219 C 182.21875 127.21875 181.25 125.730469 181.0625 123.539062 C 180.835938 121 181.839844 119.230469 184.1875 118.023438 C 185.488281 117.351562 186.320312 117.167969 187.25 117.34375 C 190.390625 117.9375 192.359375 120.28125 192.3125 123.375 C 192.257812 127.34375 187.617188 130.0625 184.082031 128.199219 Z M 184.082031 128.199219 "/>
</g>
</svg>
