
<svg xmlns="http://www.w3.org/2000/svg" xmlns:xlink="http://www.w3.org/1999/xlink" width="256px" height="256px" viewBox="0 0 256 256" version="1.1">
<g id="surface1">
<path style="fill-rule:nonzero;fill:rgb(100%,100%,100%);fill-opacity:1;stroke-width:2.573321;stroke-linecap:butt;stroke-linejoin:miter;stroke:rgb(66.666667%,53.333333%,0%);stroke-opacity:1;stroke-miterlimit:4;" d="M -39.930175 2.923096 L -8.069824 2.923096 C -5.228027 2.923096 -2.923096 5.228027 -2.923096 8.069824 L -2.923096 39.930175 C -2.923096 42.772704 -5.228027 45.076903 -8.069824 45.076903 L -39.930175 45.076903 C -42.772704 45.076903 -45.076903 42.772704 -45.076903 39.930175 L -45.076903 8.069824 C -45.076903 5.228027 -42.772704 2.923096 -39.930175 2.923096 Z M -39.930175 2.923096 " transform="matrix(-5.333334,0,0,5.333334,0,0)"/>
<path style=" stroke:none;fill-rule:nonzero;fill:rgb(66.666667%,53.333333%,0%);fill-opacity:1;" d="M 32.8125 171.765625 L 108.421875 171.765625 C 110.757812 171.765625 112.65625 172.765625 112.65625 173.992188 L 112.65625 191.664062 C 112.65625 192.890625 110.757812 193.890625 108.421875 193.890625 L 32.8125 193.890625 C 30.476562 193.890625 28.578125 192.890625 28.578125 191.664062 L 28.578125 173.992188 C 28.578125 172.765625 30.476562 171.765625 32.8125 171.765625 Z M 32.8125 171.765625 "/>
<path style=" stroke:none;fill-rule:nonzero;fill:rgb(66.666667%,53.333333%,0%);fill-opacity:1;" d="M 70.625 180.304688 C 86.65625 180.304688 99.78125 167.617188 99.78125 152.132812 C 99.78125 136.660156 86.632812 123.9375 70.625 123.9375 C 54.617188 123.9375 41.492188 136.640625 41.492188 152.132812 C 41.492188 167.601562 54.617188 180.304688 70.625 180.304688 M 70.625 170.835938 C 59.859375 170.835938 51.28125 162.535156 51.28125 152.132812 C 51.28125 141.707031 59.867188 133.402344 70.625 133.402344 C 81.410156 133.402344 89.996094 141.707031 89.996094 152.132812 C 89.996094 162.535156 81.410156 170.835938 70.625 170.835938 M 70.625 170.835938 "/>
<path style=" stroke:none;fill-rule:nonzero;fill:rgb(66.666667%,53.333333%,0%);fill-opacity:1;" d="M 58.148438 152.152344 C 58.148438 145.484375 63.734375 140.085938 70.640625 140.085938 C 77.523438 140.085938 83.125 145.492188 83.125 152.152344 C 83.125 158.835938 77.523438 164.234375 70.640625 164.234375 C 63.734375 164.234375 58.148438 158.832031 58.148438 152.152344 M 58.148438 152.152344 "/>
<path style=" stroke:none;fill-rule:nonzero;fill:rgb(66.666667%,53.333333%,0%);fill-opacity:1;" d="M 95.605469 140.082031 L 95.605469 103.867188 L 74.792969 99.84375 L 57 129.898438 L 75.570312 129.898438 M 95.601562 140.101562 "/>
<path style=" stroke:none;fill-rule:nonzero;fill:rgb(66.666667%,53.333333%,0%);fill-opacity:1;" d="M 91.425781 107.871094 C 102.851562 107.871094 112.238281 98.804688 112.238281 87.742188 C 112.238281 76.675781 102.851562 67.609375 91.425781 67.609375 C 79.980469 67.609375 70.597656 76.675781 70.597656 87.742188 C 70.597656 98.804688 79.980469 107.871094 91.425781 107.871094 M 91.425781 101.109375 C 83.71875 101.109375 77.601562 95.1875 77.601562 87.742188 C 77.601562 80.304688 83.71875 74.382812 91.425781 74.382812 C 99.109375 74.382812 105.25 80.304688 105.25 87.742188 C 105.25 95.1875 99.109375 101.109375 91.425781 101.109375 M 91.425781 101.109375 "/>
<path style=" stroke:none;fill-rule:nonzero;fill:rgb(66.666667%,53.333333%,0%);fill-opacity:1;" d="M 168.046875 95.792969 C 176.878906 90.695312 180.085938 79.480469 175.152344 70.9375 C 170.210938 62.382812 158.898438 59.546875 150.0625 64.648438 C 141.21875 69.757812 138.015625 80.96875 142.957031 89.523438 C 147.886719 98.0625 159.199219 100.898438 168.046875 95.792969 M 164.476562 89.539062 C 158.027344 93.265625 153.015625 92.015625 149.425781 85.796875 C 145.828125 79.5625 147.25 74.59375 153.699219 70.871094 C 160.132812 67.15625 165.148438 68.40625 168.75 74.640625 C 172.339844 80.859375 170.914062 85.824219 164.476562 89.539062 M 164.476562 89.539062 "/>
<path style=" stroke:none;fill-rule:nonzero;fill:rgb(66.666667%,53.333333%,0%);fill-opacity:1;" d="M 160.179688 89.125 C 165.242188 88.445312 168.890625 83.890625 168.332031 78.917969 C 167.785156 73.960938 163.234375 70.492188 158.1875 71.1875 L 91.195312 78.8125 C 86.132812 79.492188 82.460938 84.0625 83.023438 89.03125 C 83.570312 93.984375 88.117188 97.460938 93.167969 96.761719 M 160.203125 89.109375 "/>
<path style=" stroke:none;fill-rule:nonzero;fill:rgb(66.666667%,53.333333%,0%);fill-opacity:1;" d="M 200.09375 104.808594 C 205.335938 104.765625 209.605469 100.566406 209.5625 95.5 C 209.523438 90.425781 205.1875 86.292969 199.945312 86.335938 C 194.695312 86.378906 190.429688 90.578125 190.46875 95.65625 C 190.507812 100.71875 194.847656 104.851562 200.09375 104.808594 M 200.085938 101.109375 C 196.257812 101.140625 194.335938 99.3125 194.304688 95.625 C 194.273438 91.929688 196.171875 90.070312 199.992188 90.039062 C 203.8125 90.007812 205.734375 91.835938 205.765625 95.53125 C 205.796875 99.21875 203.898438 101.078125 200.085938 101.109375 M 200.085938 101.109375 "/>
<path style=" stroke:none;fill-rule:nonzero;fill:rgb(66.666667%,53.333333%,0%);fill-opacity:1;" d="M 199.320312 101.59375 C 202.429688 102.84375 205.996094 101.421875 207.289062 98.398438 C 208.578125 95.390625 207.101562 91.933594 203.988281 90.695312 L 163.21875 73.359375 C 160.109375 72.109375 156.53125 73.53125 155.242188 76.554688 C 153.949219 79.5625 155.421875 83.023438 158.539062 84.257812 M 199.339844 101.59375 "/>
<path style=" stroke:none;fill-rule:nonzero;fill:rgb(66.666667%,53.333333%,0%);fill-opacity:1;" d="M 201.664062 97.828125 L 180.332031 110.382812 L 180.535156 135.132812 L 193.558594 142.507812 L 193.484375 133.546875 L 188.261719 130.585938 L 188.132812 114.800781 L 201.734375 106.796875 L 215.472656 114.578125 L 215.601562 130.363281 L 210.660156 133.269531 L 210.734375 142.234375 L 223.402344 134.78125 L 223.199219 110.03125 Z M 201.664062 97.828125 "/>
<path style=" stroke:none;fill-rule:nonzero;fill:rgb(66.666667%,53.333333%,0%);fill-opacity:1;" d="M 70.625 180.304688 C 86.65625 180.304688 99.78125 167.617188 99.78125 152.132812 C 99.78125 136.660156 86.632812 123.9375 70.625 123.9375 C 54.617188 123.9375 41.492188 136.640625 41.492188 152.132812 C 41.492188 167.601562 54.617188 180.304688 70.625 180.304688 M 70.625 170.835938 C 59.859375 170.835938 51.28125 162.535156 51.28125 152.132812 C 51.28125 141.707031 59.867188 133.402344 70.625 133.402344 C 81.410156 133.402344 89.996094 141.707031 89.996094 152.132812 C 89.996094 162.535156 81.410156 170.835938 70.625 170.835938 M 70.625 170.835938 "/>
<path style=" stroke:none;fill-rule:nonzero;fill:rgb(66.666667%,53.333333%,0%);fill-opacity:1;" d="M 58.148438 152.152344 C 58.148438 145.484375 63.734375 140.085938 70.640625 140.085938 C 77.523438 140.085938 83.125 145.492188 83.125 152.152344 C 83.125 158.835938 77.523438 164.234375 70.640625 164.234375 C 63.734375 164.234375 58.148438 158.832031 58.148438 152.152344 M 58.148438 152.152344 "/>
<path style=" stroke:none;fill-rule:nonzero;fill:rgb(66.666667%,53.333333%,0%);fill-opacity:1;" d="M 95.605469 140.082031 L 95.605469 103.867188 L 74.792969 99.84375 L 57 129.898438 L 75.570312 129.898438 M 95.601562 140.101562 "/>
<path style=" stroke:none;fill-rule:nonzero;fill:rgb(66.666667%,53.333333%,0%);fill-opacity:1;" d="M 91.425781 107.871094 C 102.851562 107.871094 112.238281 98.804688 112.238281 87.742188 C 112.238281 76.675781 102.851562 67.609375 91.425781 67.609375 C 79.980469 67.609375 70.597656 76.675781 70.597656 87.742188 C 70.597656 98.804688 79.980469 107.871094 91.425781 107.871094 M 91.425781 101.109375 C 83.71875 101.109375 77.601562 95.1875 77.601562 87.742188 C 77.601562 80.304688 83.71875 74.382812 91.425781 74.382812 C 99.109375 74.382812 105.25 80.304688 105.25 87.742188 C 105.25 95.1875 99.109375 101.109375 91.425781 101.109375 M 91.425781 101.109375 "/>
<path style=" stroke:none;fill-rule:nonzero;fill:rgb(66.666667%,53.333333%,0%);fill-opacity:1;" d="M 168.046875 95.792969 C 176.878906 90.695312 180.085938 79.480469 175.152344 70.9375 C 170.210938 62.382812 158.898438 59.546875 150.0625 64.648438 C 141.21875 69.757812 138.015625 80.96875 142.957031 89.523438 C 147.886719 98.0625 159.199219 100.898438 168.046875 95.792969 M 164.476562 89.539062 C 158.027344 93.265625 153.015625 92.015625 149.425781 85.796875 C 145.828125 79.5625 147.25 74.59375 153.699219 70.871094 C 160.132812 67.15625 165.148438 68.40625 168.75 74.640625 C 172.339844 80.859375 170.914062 85.824219 164.476562 89.539062 M 164.476562 89.539062 "/>
<path style=" stroke:none;fill-rule:nonzero;fill:rgb(66.666667%,53.333333%,0%);fill-opacity:1;" d="M 160.179688 89.125 C 165.242188 88.445312 168.890625 83.890625 168.332031 78.917969 C 167.785156 73.960938 163.234375 70.492188 158.1875 71.1875 L 91.195312 78.8125 C 86.132812 79.492188 82.460938 84.0625 83.023438 89.03125 C 83.570312 93.984375 88.117188 97.460938 93.167969 96.761719 M 160.203125 89.109375 "/>
<path style=" stroke:none;fill-rule:nonzero;fill:rgb(66.666667%,53.333333%,0%);fill-opacity:1;" d="M 200.09375 104.808594 C 205.335938 104.765625 209.605469 100.566406 209.5625 95.5 C 209.523438 90.425781 205.1875 86.292969 199.945312 86.335938 C 194.695312 86.378906 190.429688 90.578125 190.46875 95.65625 C 190.507812 100.71875 194.847656 104.851562 200.09375 104.808594 M 200.085938 101.109375 C 196.257812 101.140625 194.335938 99.3125 194.304688 95.625 C 194.273438 91.929688 196.171875 90.070312 199.992188 90.039062 C 203.8125 90.007812 205.734375 91.835938 205.765625 95.53125 C 205.796875 99.21875 203.898438 101.078125 200.085938 101.109375 M 200.085938 101.109375 "/>
<path style=" stroke:none;fill-rule:nonzero;fill:rgb(66.666667%,53.333333%,0%);fill-opacity:1;" d="M 199.320312 101.59375 C 202.429688 102.84375 205.996094 101.421875 207.289062 98.398438 C 208.578125 95.390625 207.101562 91.933594 203.988281 90.695312 L 163.21875 73.359375 C 160.109375 72.109375 156.53125 73.53125 155.242188 76.554688 C 153.949219 79.5625 155.421875 83.023438 158.539062 84.257812 M 199.339844 101.59375 "/>
<path style=" stroke:none;fill-rule:nonzero;fill:rgb(66.666667%,53.333333%,0%);fill-opacity:1;" d="M 201.664062 97.828125 L 180.332031 110.382812 L 180.535156 135.132812 L 193.558594 142.507812 L 193.484375 133.546875 L 188.261719 130.585938 L 188.132812 114.800781 L 201.734375 106.796875 L 215.472656 114.578125 L 215.601562 130.363281 L 210.660156 133.269531 L 210.734375 142.234375 L 223.402344 134.78125 L 223.199219 110.03125 Z M 201.664062 97.828125 "/>
</g>
</svg>
