
<svg xmlns="http://www.w3.org/2000/svg" xmlns:xlink="http://www.w3.org/1999/xlink" width="256px" height="256px" viewBox="0 0 256 256" version="1.1">
<g id="surface1">
<path style="fill-rule:nonzero;fill:rgb(100%,100%,0%);fill-opacity:1;stroke-width:26.850443;stroke-linecap:butt;stroke-linejoin:miter;stroke:rgb(20%,20%,20%);stroke-opacity:1;stroke-miterlimit:4;" d="M 89.78125 36.078125 L 422.21875 36.078125 C 451.875 36.078125 475.921875 60.125 475.921875 89.78125 L 475.921875 422.21875 C 475.921875 451.875 451.875 475.921875 422.21875 475.921875 L 89.78125 475.921875 C 60.125 475.921875 36.078125 451.875 36.078125 422.21875 L 36.078125 89.78125 C 36.078125 60.125 60.125 36.078125 89.78125 36.078125 Z M 89.78125 36.078125 " transform="matrix(0.5,0,0,0.5,0,0)"/>
<path style=" stroke:none;fill-rule:nonzero;fill:rgb(30.196078%,30.196078%,30.196078%);fill-opacity:1;" d="M 141.945312 193.417969 C 140.015625 193.035156 136.679688 191.40625 135.3125 190.175781 C 135 189.898438 134.703125 189.675781 134.648438 189.675781 C 134.5 189.675781 132.054688 187.507812 130.410156 185.921875 C 129.625 185.164062 128.574219 184.171875 128.066406 183.710938 C 127.5625 183.25 127.054688 182.78125 126.945312 182.664062 C 126.382812 182.070312 123.585938 180.195312 122.59375 179.75 C 121.207031 179.125 119.011719 178.742188 117.820312 178.914062 C 115.15625 179.296875 111.691406 181.285156 109.3125 183.789062 C 108.8125 184.320312 108.449219 184.359375 108.296875 183.890625 C 108.113281 183.3125 108.738281 182.265625 110.289062 180.558594 C 113.613281 176.898438 117.039062 175.03125 120.433594 175.027344 C 121.492188 175.023438 123.664062 175.496094 125.34375 176.085938 C 126.507812 176.5 132.613281 179.90625 132.796875 180.25 C 132.941406 180.515625 137.882812 183.3125 139.023438 183.777344 C 142.5 185.191406 145.226562 184.789062 147.898438 182.464844 C 148.824219 181.660156 150.234375 179.546875 150.71875 178.226562 C 151.246094 176.808594 151.472656 176.769531 153.414062 177.757812 C 154.976562 178.554688 158.710938 179.835938 159.472656 179.835938 C 159.953125 179.835938 160.398438 180.757812 160.25 181.460938 C 160.1875 181.777344 159.703125 182.835938 159.183594 183.8125 C 155.523438 190.679688 148.328125 194.683594 141.945312 193.417969 Z M 159.457031 175.992188 C 158.828125 175.84375 157.9375 175.566406 157.476562 175.375 C 157.015625 175.179688 156.5 175.023438 156.328125 175.023438 C 155.796875 175.023438 151.359375 172.234375 150 171.039062 C 145.984375 167.515625 141.183594 161.449219 136.394531 153.835938 C 136.082031 153.339844 132.265625 147.703125 131.320312 146.351562 C 131.121094 146.0625 129.898438 144.570312 128.601562 143.03125 C 124.449219 138.109375 120.324219 135.359375 114.46875 133.613281 C 110.96875 132.570312 104.601562 132.476562 98.421875 133.382812 C 97.601562 133.5 95.351562 133.832031 93.425781 134.117188 C 81.296875 135.898438 74.5625 135.601562 67.179688 132.953125 C 62.558594 131.296875 57.289062 128.117188 53.359375 124.617188 C 52.632812 123.96875 51.828125 123.277344 51.570312 123.085938 C 51.09375 122.726562 50.523438 122.1875 50.085938 121.695312 C 49.761719 121.324219 49.777344 120.726562 50.121094 120.382812 C 50.355469 120.152344 50.707031 120.230469 52.359375 120.882812 C 61.210938 124.382812 69.765625 123.226562 82.992188 116.742188 C 84.773438 115.867188 86.46875 115.046875 86.757812 114.914062 C 87.050781 114.785156 87.367188 114.605469 87.46875 114.515625 C 87.566406 114.429688 88.238281 114.078125 88.960938 113.738281 C 90.96875 112.789062 92.46875 112.023438 93.335938 111.492188 C 93.773438 111.226562 94.796875 110.6875 95.617188 110.289062 C 96.4375 109.894531 97.382812 109.421875 97.722656 109.246094 C 99.890625 108.101562 102.617188 106.796875 102.835938 106.796875 C 102.976562 106.796875 103.421875 106.609375 103.820312 106.375 C 104.21875 106.148438 104.652344 105.960938 104.78125 105.960938 C 104.914062 105.960938 105.09375 105.875 105.1875 105.773438 C 105.335938 105.601562 109.09375 103.96875 109.914062 103.71875 C 110.101562 103.660156 111.132812 103.304688 112.191406 102.925781 C 113.25 102.546875 114.320312 102.175781 114.558594 102.101562 C 114.800781 102.023438 115.707031 101.738281 116.578125 101.460938 C 119.523438 100.53125 121.304688 100.152344 127.976562 99.042969 C 130.042969 98.699219 137.75 98.554688 140.164062 98.820312 C 144.960938 99.335938 148.867188 100.085938 151.914062 101.0625 C 154.125 101.773438 157.25 102.976562 158.226562 103.496094 C 159.914062 104.390625 160.125 104.492188 160.25 104.492188 C 160.746094 104.492188 166 107.863281 168.839844 110.007812 C 171.546875 112.046875 175.75 116.226562 178.398438 119.515625 C 184.230469 126.757812 188.238281 135.8125 189.183594 143.890625 C 189.605469 147.515625 189.546875 149.460938 188.894531 153.570312 C 188.679688 154.945312 187.609375 158.40625 187.25 158.910156 C 187.128906 159.082031 186.902344 159.585938 186.75 160.027344 C 186.445312 160.914062 185 163.359375 184.023438 164.65625 C 180.183594 169.730469 174.011719 173.988281 168.402344 175.429688 C 167.871094 175.5625 167.082031 175.78125 166.648438 175.902344 C 165.449219 176.25 160.792969 176.304688 159.457031 175.992188 Z M 159.328125 163.101562 C 159.703125 162.597656 159.808594 162.253906 159.808594 161.5 C 159.808594 160.203125 159.078125 159.328125 157.984375 159.328125 C 156.261719 159.328125 155.4375 161.375 156.511719 163 C 157.257812 164.132812 158.511719 164.175781 159.328125 163.101562 Z M 180.605469 146.796875 C 182.253906 145.59375 181.5 142.585938 179.546875 142.585938 C 178.695312 142.585938 177.695312 143.6875 177.695312 144.625 C 177.695312 146.742188 179.171875 147.835938 180.605469 146.796875 Z M 100.96875 166.09375 C 95.789062 165.691406 91.082031 162.953125 87.578125 158.296875 C 85.46875 155.484375 85.566406 155.136719 88.546875 154.90625 C 90.703125 154.742188 93.929688 153.96875 95.433594 153.261719 C 98.585938 151.78125 101.523438 148.96875 103.640625 145.40625 C 104.046875 144.71875 105.046875 143.023438 105.867188 141.640625 C 108.375 137.390625 108.886719 136.726562 109.625 136.726562 C 110.742188 136.726562 113.375 137.210938 114.910156 137.695312 C 116.605469 138.234375 118.992188 139.3125 119.46875 139.75 C 119.617188 139.882812 119.953125 140.105469 120.226562 140.242188 C 120.984375 140.628906 123.019531 142.261719 124.152344 143.390625 C 125.914062 145.148438 129.625 149.742188 130.789062 151.609375 C 130.976562 151.910156 131.664062 152.945312 132.316406 153.910156 C 136.292969 159.808594 136.390625 160.023438 135.53125 160.695312 C 135.1875 160.96875 134.976562 160.988281 134.433594 160.808594 C 133.585938 160.527344 129.375 160.519531 127.941406 160.796875 C 127.34375 160.914062 126.632812 161.039062 126.363281 161.078125 C 125.886719 161.148438 123.726562 161.617188 121.75 162.078125 C 121.21875 162.203125 120.625 162.382812 120.433594 162.476562 C 120.242188 162.578125 119.136719 162.90625 117.976562 163.207031 C 116.820312 163.507812 115.203125 163.945312 114.382812 164.179688 C 111.917969 164.875 111.570312 164.964844 109.5625 165.398438 C 108 165.738281 102.273438 166.335938 101.929688 166.195312 C 101.882812 166.175781 101.449219 166.128906 100.96875 166.09375 Z M 191.210938 160.910156 L 190.8125 160.398438 L 191.609375 157.507812 C 192.386719 154.679688 192.953125 151.882812 192.953125 150.890625 C 192.953125 149.96875 193.445312 149.703125 195.140625 149.703125 C 198.640625 149.703125 201.671875 147.6875 203.046875 144.449219 C 204.1875 141.769531 204.5 139.484375 204.617188 133.0625 C 204.753906 125.757812 204.867188 123.851562 205.3125 121.34375 C 206.078125 116.992188 207.636719 113.945312 210.320312 111.535156 C 211.320312 110.636719 211.507812 110.5 213.132812 109.5 C 214.5 108.664062 217.269531 107.605469 218.210938 107.5625 C 218.933594 107.53125 219 107.570312 219 108.027344 C 219 108.453125 218.78125 108.640625 217.507812 109.304688 C 216.070312 110.050781 214.582031 111.128906 212.96875 112.585938 C 211.164062 114.21875 209.476562 117.742188 209.09375 120.6875 C 208.792969 123.027344 209.101562 127.71875 209.789062 131.179688 C 211.101562 137.777344 211.105469 145.648438 209.804688 148.34375 C 209.636719 148.695312 209.445312 149.230469 209.382812 149.539062 C 209.101562 150.859375 206.648438 154.585938 205.03125 156.148438 C 203.28125 157.828125 203.078125 157.992188 201.636719 158.867188 C 199.039062 160.4375 195.773438 161.414062 193.117188 161.417969 C 191.75 161.421875 191.578125 161.375 191.210938 160.910156 Z M 186.507812 125.578125 C 184.960938 122.804688 184.460938 122.011719 182.871094 119.792969 C 179.234375 114.726562 174.953125 110.179688 170.679688 106.863281 C 167.640625 104.5 167.671875 104.53125 167.734375 103.929688 C 167.863281 102.621094 171.332031 101.414062 178.132812 100.304688 C 183.054688 99.507812 186.1875 98.140625 188.386719 95.832031 C 189.828125 94.3125 190.535156 93.140625 191.429688 90.785156 C 191.773438 89.863281 192.226562 88.976562 192.429688 88.8125 C 192.757812 88.550781 192.890625 88.570312 193.558594 88.953125 C 196.023438 90.382812 198.757812 93.210938 199.929688 95.539062 C 201.027344 97.71875 201.289062 101.210938 200.570312 104.074219 C 200.015625 106.28125 198.015625 110.796875 196.65625 112.898438 C 196.308594 113.4375 195.710938 114.414062 195.320312 115.070312 C 194.9375 115.726562 194.1875 116.933594 193.652344 117.757812 C 191.757812 120.675781 189.585938 124.4375 189.082031 125.679688 C 188.714844 126.582031 188.179688 127.097656 187.601562 127.097656 C 187.46875 127.097656 186.976562 126.414062 186.507812 125.578125 Z M 60.101562 119.003906 C 53.121094 118.3125 47.316406 115.03125 43.609375 109.679688 C 41.773438 107.023438 40.949219 105.367188 39.289062 100.960938 C 38.75 99.53125 37.789062 94.796875 37.492188 92.144531 C 37.195312 89.429688 37.226562 84.410156 37.550781 82.988281 C 37.917969 81.390625 38.960938 81.097656 39.546875 82.429688 C 39.917969 83.277344 42.039062 85.335938 43.296875 86.078125 C 44.367188 86.710938 44.574219 86.757812 46.226562 86.75 C 47.703125 86.75 48.203125 86.65625 49.195312 86.207031 C 51.4375 85.191406 52.5625 84.421875 57.8125 80.320312 C 60.496094 78.21875 63.664062 76.292969 65.890625 75.414062 C 67.5625 74.75 67.792969 74.710938 70.921875 74.617188 C 73.917969 74.523438 74.304688 74.554688 75.445312 74.96875 C 76.96875 75.523438 79.4375 77.015625 80.277344 77.890625 C 80.617188 78.25 80.964844 78.539062 81.046875 78.539062 C 81.125 78.539062 81.289062 78.8125 81.40625 79.148438 C 81.75 80.148438 81.441406 80.539062 80.054688 80.847656 C 77.5625 81.402344 74.40625 82.992188 71.226562 85.304688 C 68.414062 87.351562 64.429688 91.898438 62.738281 94.984375 C 61.414062 97.398438 60.140625 100.625 59.726562 102.609375 C 59.304688 104.65625 59.304688 108.304688 59.734375 109.941406 C 60.382812 112.417969 61.742188 115.308594 63.007812 116.921875 C 63.597656 117.671875 63.664062 118.300781 63.203125 118.796875 C 62.886719 119.140625 62.039062 119.195312 60.101562 119.003906 Z M 60.101562 119.003906 "/>
</g>
</svg>
