
<svg xmlns="http://www.w3.org/2000/svg" xmlns:xlink="http://www.w3.org/1999/xlink" width="256px" height="256px" viewBox="0 0 256 256" version="1.1">
<g id="surface1">
<path style=" stroke:none;fill-rule:nonzero;fill:rgb(25.098039%,48.235294%,64.705882%);fill-opacity:1;" d="M 46.0625 229.140625 C 37.382812 227.261719 30.046875 220.679688 27.03125 212.070312 L 25.808594 208.570312 L 25.808594 48.371094 L 26.976562 45.203125 C 30.53125 35.59375 36.546875 30.335938 46.660156 28.003906 C 50.296875 27.164062 52.382812 27.140625 127.78125 27.140625 C 203.757812 27.140625 205.234375 27.15625 208.472656 28.015625 C 216.671875 30.195312 221.007812 33.011719 224.664062 38.546875 C 226.496094 41.316406 227.375 43.414062 228.601562 47.9375 C 229.46875 51.140625 229.484375 52.601562 229.484375 128.757812 C 229.484375 174.820312 229.320312 206.867188 229.078125 207.664062 C 228.851562 208.402344 228.335938 210.1875 227.929688 211.632812 C 225.78125 219.242188 219.730469 225.511719 211.738281 228.398438 L 208.476562 229.578125 L 128.640625 229.65625 C 62.835938 229.71875 48.328125 229.632812 46.0625 229.140625 Z M 79.746094 197.210938 C 91.171875 193.414062 107.445312 182.46875 125.324219 166.554688 C 136.148438 156.925781 151.726562 141.050781 161.847656 129.34375 C 190.722656 95.945312 203.882812 68.40625 195.484375 58.9375 C 192.851562 55.96875 186.652344 55.414062 179.945312 57.542969 C 170 60.703125 157.1875 68.640625 142.640625 80.652344 L 136.945312 85.359375 L 133.726562 85.359375 C 122.527344 85.359375 110.394531 90.726562 101.8125 99.476562 C 92.859375 108.609375 88.390625 119.359375 88.390625 131.796875 L 88.390625 136.558594 L 84.023438 142.363281 C 75.929688 153.125 69.242188 163.882812 65.601562 172 C 62.460938 179.015625 61.296875 183.34375 61.25 188.21875 C 61.207031 192.46875 61.6875 194.132812 63.566406 196.25 C 66.214844 199.234375 72.53125 199.609375 79.746094 197.210938 Z M 86.078125 169.585938 C 82.203125 167.507812 82.742188 160.851562 87.546875 151.375 C 88.726562 149.046875 89.875 147.03125 90.089844 146.898438 C 90.308594 146.765625 91.222656 148.410156 92.117188 150.554688 C 93.792969 154.546875 97.75 160.851562 99.101562 161.679688 C 101.230469 162.992188 115.398438 153.453125 126.640625 143.144531 C 140.75 130.207031 152.984375 114.757812 159.40625 101.769531 C 163.234375 94.039062 163.234375 94.019531 160.859375 92.53125 C 158.046875 90.773438 152.179688 88.125 149.742188 87.523438 C 148.578125 87.234375 147.695312 86.785156 147.78125 86.53125 C 148.027344 85.796875 155.796875 81.625 158.609375 80.710938 C 160.007812 80.257812 162.390625 79.890625 163.90625 79.886719 C 166.28125 79.882812 166.816406 80.039062 167.804688 81.023438 C 173.855469 87.007812 164.1875 107.136719 144.289062 129.988281 C 138.101562 137.09375 126.765625 148.21875 120.015625 153.796875 C 105.058594 166.171875 91.476562 172.484375 86.078125 169.585938 Z M 98.648438 135.242188 C 93.90625 132.382812 94.109375 121.203125 99.054688 112.632812 C 99.773438 111.390625 101.273438 109.367188 102.390625 108.140625 C 107.484375 102.53125 112.71875 102.023438 115.59375 106.851562 C 116.953125 109.128906 116.863281 116.835938 115.433594 121.03125 C 113.195312 127.585938 109.210938 132.976562 105.101562 135 C 102.351562 136.359375 100.605469 136.421875 98.648438 135.242188 Z M 140.804688 178.539062 C 159.054688 176.328125 174.585938 163.867188 180.316406 146.851562 C 181.917969 142.09375 182.601562 137.675781 182.59375 132.101562 C 182.585938 124.589844 180.574219 115.339844 178.945312 115.339844 C 178.570312 115.339844 177.082031 117.109375 175.640625 119.28125 C 164.359375 136.261719 145.570312 156.609375 128.515625 170.3125 C 121.078125 176.28125 121.4375 175.9375 121.96875 176.570312 C 122.515625 177.21875 126.117188 178.082031 130.335938 178.570312 C 134.726562 179.078125 136.421875 179.070312 140.804688 178.539062 Z M 140.804688 178.539062 "/>
<path style=" stroke:none;fill-rule:nonzero;fill:rgb(0%,80%,100%);fill-opacity:1;" d="M 46.28125 19.878906 C 31.65625 19.878906 19.878906 31.65625 19.878906 46.28125 L 19.878906 209.71875 C 19.878906 224.34375 31.65625 236.121094 46.28125 236.121094 L 209.71875 236.121094 C 224.34375 236.121094 236.121094 224.34375 236.121094 209.71875 L 236.121094 46.28125 C 236.121094 31.65625 224.34375 19.878906 209.71875 19.878906 Z M 52.460938 28.054688 L 203.539062 28.054688 C 217.058594 28.054688 227.945312 38.941406 227.945312 52.460938 L 227.945312 203.539062 C 227.945312 217.058594 217.058594 227.945312 203.539062 227.945312 L 52.460938 227.945312 C 38.941406 227.945312 28.054688 217.058594 28.054688 203.539062 L 28.054688 52.460938 C 28.054688 38.941406 38.941406 28.054688 52.460938 28.054688 Z M 52.460938 28.054688 "/>
</g>
</svg>
