
<svg xmlns="http://www.w3.org/2000/svg" xmlns:xlink="http://www.w3.org/1999/xlink" width="256px" height="256px" viewBox="0 0 256 256" version="1.1">
<g id="surface1">
<path style="fill-rule:nonzero;fill:rgb(16.862745%,23.529412%,30.588235%);fill-opacity:1;stroke-width:2.541277;stroke-linecap:butt;stroke-linejoin:miter;stroke:rgb(16.862745%,65.882353%,92.156863%);stroke-opacity:1;stroke-miterlimit:4;" d="M 188.504915 692.998514 L 219.968293 692.998514 C 222.775666 692.998514 225.0513 695.274148 225.0513 698.080789 L 225.0513 729.544167 C 225.0513 732.35154 222.775666 734.627174 219.968293 734.627174 L 188.504915 734.627174 C 185.698274 734.627174 183.422639 732.35154 183.422639 729.544167 L 183.422639 698.080789 C 183.422639 695.274148 185.698274 692.998514 188.504915 692.998514 Z M 188.504915 692.998514 " transform="matrix(5.333334,0,0,5.333334,-961.26192,-3679)"/>
<path style=" stroke:none;fill-rule:nonzero;fill:rgb(92.54902%,94.117647%,94.509804%);fill-opacity:1;" d="M 163 165.328125 L 163 233.273438 L 232.371094 165.328125 Z M 163 165.328125 "/>
<path style=" stroke:none;fill-rule:evenodd;fill:rgb(100%,50.196078%,50.196078%);fill-opacity:1;" d="M 62.671875 66.492188 L 66.660156 62.503906 L 75.359375 71.203125 L 71.375 75.195312 Z M 62.671875 66.492188 "/>
<path style=" stroke:none;fill-rule:nonzero;fill:rgb(17.254902%,24.313725%,31.372549%);fill-opacity:1;" d="M 43.640625 40.648438 L 100.03125 40.648438 L 100.03125 97.046875 L 43.640625 97.046875 Z M 43.640625 40.648438 "/>
<path style=" stroke:none;fill-rule:evenodd;fill:rgb(18.039216%,80%,44.313725%);fill-opacity:1;" d="M 69.007812 47.703125 C 63.46875 47.703125 57.96875 49.980469 54.058594 53.898438 C 50.148438 57.8125 47.867188 63.3125 47.867188 68.851562 C 47.867188 74.382812 50.148438 79.886719 54.058594 83.800781 C 57.96875 87.71875 63.46875 89.996094 69.007812 89.996094 C 74.546875 90 80.046875 87.71875 83.96875 83.804688 C 87.882812 79.890625 90.164062 74.382812 90.164062 68.851562 L 84.523438 68.851562 C 84.523438 72.90625 82.851562 76.945312 79.976562 79.816406 C 77.105469 82.6875 73.070312 84.359375 69.007812 84.359375 C 64.945312 84.359375 60.914062 82.6875 58.046875 79.8125 C 55.175781 76.945312 53.507812 72.90625 53.507812 68.851562 C 53.507812 64.789062 55.175781 60.753906 58.046875 57.882812 C 60.914062 55.011719 64.945312 53.339844 69.007812 53.339844 C 69.011719 53.339844 69.015625 53.339844 69.015625 53.339844 L 69.015625 47.703125 C 69.015625 47.703125 69.011719 47.703125 69.007812 47.703125 Z M 69.007812 47.703125 "/>
<path style=" stroke:none;fill-rule:evenodd;fill:rgb(92.54902%,94.117647%,94.509804%);fill-opacity:1;" d="M 91.816406 47.703125 L 71.835938 67.679688 L 66.660156 62.503906 L 62.671875 66.492188 L 67.851562 71.667969 L 71.375 75.195312 L 71.835938 75.65625 L 95.804688 51.6875 Z M 91.816406 47.703125 "/>
<path style=" stroke:none;fill-rule:evenodd;fill:rgb(100%,50.196078%,50.196078%);fill-opacity:1;" d="M 62.671875 179.28125 L 66.660156 175.296875 L 75.359375 183.996094 L 71.375 187.984375 Z M 62.671875 179.28125 "/>
<path style=" stroke:none;fill-rule:nonzero;fill:rgb(17.254902%,24.313725%,31.372549%);fill-opacity:1;" d="M 43.640625 153.441406 L 100.03125 153.441406 L 100.03125 209.835938 L 43.640625 209.835938 Z M 43.640625 153.441406 "/>
<path style=" stroke:none;fill-rule:evenodd;fill:rgb(18.039216%,80%,44.313725%);fill-opacity:1;" d="M 69.007812 160.492188 C 63.46875 160.492188 57.96875 162.773438 54.058594 166.6875 C 50.148438 170.601562 47.867188 176.101562 47.867188 181.640625 C 47.867188 187.175781 50.148438 192.679688 54.058594 196.59375 C 57.96875 200.507812 63.46875 202.789062 69.007812 202.789062 C 74.546875 202.789062 80.046875 200.507812 83.96875 196.59375 C 87.882812 192.679688 90.164062 187.175781 90.164062 181.640625 L 84.523438 181.640625 C 84.523438 185.699219 82.851562 189.734375 79.976562 192.609375 C 77.105469 195.476562 73.070312 197.148438 69.007812 197.148438 C 64.945312 197.148438 60.914062 195.476562 58.046875 192.605469 C 55.175781 189.734375 53.507812 185.699219 53.507812 181.640625 C 53.507812 177.578125 55.175781 173.546875 58.046875 170.671875 C 60.914062 167.804688 64.945312 166.132812 69.007812 166.132812 C 69.011719 166.132812 69.015625 166.132812 69.015625 166.132812 L 69.015625 160.492188 C 69.015625 160.492188 69.011719 160.492188 69.007812 160.492188 Z M 69.007812 160.492188 "/>
<path style=" stroke:none;fill-rule:evenodd;fill:rgb(92.54902%,94.117647%,94.509804%);fill-opacity:1;" d="M 91.816406 160.492188 L 71.835938 180.472656 L 66.660156 175.296875 L 62.671875 179.28125 L 71.835938 188.445312 L 95.804688 164.476562 Z M 91.816406 160.492188 "/>
<path style=" stroke:none;fill-rule:evenodd;fill:rgb(100%,50.196078%,50.196078%);fill-opacity:1;" d="M 62.671875 122.886719 L 66.660156 118.898438 L 75.359375 127.601562 L 71.375 131.585938 Z M 62.671875 122.886719 "/>
<path style=" stroke:none;fill-rule:nonzero;fill:rgb(17.254902%,24.313725%,31.372549%);fill-opacity:1;" d="M 43.640625 97.046875 L 100.03125 97.046875 L 100.03125 153.441406 L 43.640625 153.441406 Z M 43.640625 97.046875 "/>
<path style=" stroke:none;fill-rule:evenodd;fill:rgb(18.039216%,80%,44.313725%);fill-opacity:1;" d="M 69.007812 104.09375 C 63.46875 104.09375 57.96875 106.375 54.058594 110.289062 C 50.148438 114.207031 47.867188 119.707031 47.867188 125.242188 C 47.867188 130.78125 50.148438 136.28125 54.058594 140.195312 C 57.96875 144.109375 63.46875 146.390625 69.007812 146.390625 C 74.546875 146.390625 80.046875 144.117188 83.96875 140.199219 C 87.882812 136.285156 90.164062 130.78125 90.164062 125.242188 L 84.523438 125.242188 C 84.523438 129.304688 82.851562 133.34375 79.976562 136.210938 C 77.105469 139.085938 73.070312 140.753906 69.007812 140.75 C 64.945312 140.75 60.914062 139.078125 58.046875 136.210938 C 55.175781 133.335938 53.507812 129.304688 53.507812 125.242188 C 53.507812 121.183594 55.175781 117.148438 58.046875 114.28125 C 60.914062 111.40625 64.945312 109.734375 69.007812 109.734375 C 69.011719 109.734375 69.015625 109.734375 69.015625 109.734375 L 69.015625 104.09375 C 69.015625 104.09375 69.011719 104.09375 69.007812 104.09375 Z M 69.007812 104.09375 "/>
<path style=" stroke:none;fill-rule:evenodd;fill:rgb(92.54902%,94.117647%,94.509804%);fill-opacity:1;" d="M 91.816406 104.09375 L 71.835938 124.078125 L 66.660156 118.898438 L 62.671875 122.886719 L 71.835938 132.050781 L 95.804688 108.085938 Z M 91.816406 104.09375 "/>
<path style=" stroke:none;fill-rule:nonzero;fill:rgb(100%,100%,100%);fill-opacity:1;" d="M 227.097656 224.242188 C 227.941406 222.929688 229.851562 221.425781 230.386719 219.433594 C 230.800781 217.882812 231.304688 216.242188 231.640625 214.453125 C 233.125 206.683594 232.367188 196.335938 232.3125 187.765625 C 232.230469 175.0625 231.964844 164.601562 232.371094 164.296875 L 163 232.242188 C 166.035156 231.566406 182.6875 232.492188 198.691406 232.085938 C 205.3125 231.921875 211.976562 232.4375 217.3125 231.109375 C 221.570312 230.046875 224.945312 227.59375 227.097656 224.242188 Z M 227.097656 224.242188 "/>
</g>
</svg>
