
<svg xmlns="http://www.w3.org/2000/svg" xmlns:xlink="http://www.w3.org/1999/xlink" width="256px" height="256px" viewBox="0 0 256 256" version="1.1">
<g id="surface1">
<path style=" stroke:none;fill-rule:nonzero;fill:rgb(26.666667%,36.470588%,65.490196%);fill-opacity:1;" d="M 44.617188 18.585938 L 212.554688 18.585938 C 226.929688 18.585938 238.585938 30.242188 238.585938 44.617188 L 238.585938 212.554688 C 238.585938 226.929688 226.929688 238.585938 212.554688 238.585938 L 44.617188 238.585938 C 30.242188 238.585938 18.585938 226.929688 18.585938 212.554688 L 18.585938 44.617188 C 18.585938 30.242188 30.242188 18.585938 44.617188 18.585938 Z M 44.617188 18.585938 "/>
<path style=" stroke:none;fill-rule:nonzero;fill:rgb(97.647059%,97.647059%,97.647059%);fill-opacity:1;" d="M 173.53125 46.328125 C 173.09375 46.582031 173.046875 46.765625 173.164062 46.574219 C 168.914062 53.734375 168.828125 63.203125 166.929688 71.636719 C 166.929688 71.679688 166.929688 71.71875 166.929688 71.757812 C 166.90625 71.882812 166.960938 72 166.929688 72.125 C 166.007812 81.179688 162.953125 90.433594 165.09375 99.140625 C 165.199219 99.335938 165.28125 99.539062 165.34375 99.753906 C 165.359375 99.816406 165.324219 99.9375 165.34375 100 C 165.367188 100.046875 165.3125 100.070312 165.34375 100.121094 C 165.375 100.171875 165.546875 100.070312 165.585938 100.121094 C 166.042969 100.75 166.578125 101.269531 166.929688 101.34375 C 167.179688 101.394531 167.644531 101.339844 168.519531 100.734375 C 169.46875 100.070312 169.953125 98.800781 170.230469 97.0625 C 170.328125 96.847656 170.453125 96.640625 170.597656 96.453125 C 170.59375 96.371094 170.59375 96.289062 170.597656 96.210938 C 170.65625 95.996094 170.738281 95.789062 170.84375 95.597656 C 170.882812 95.554688 170.921875 95.515625 170.964844 95.476562 C 174.710938 80.535156 177.34375 64.855469 176.34375 49.507812 C 176.214844 48.746094 176.078125 48.164062 175.367188 47.308594 C 174.890625 46.742188 174.507812 46.414062 174.386719 46.328125 C 174.265625 46.246094 174.332031 46.304688 173.898438 46.328125 C 173.859375 46.328125 173.816406 46.328125 173.773438 46.328125 C 173.617188 46.347656 173.628906 46.328125 173.53125 46.328125 Z M 208.007812 53.664062 C 201.519531 56.820312 198.171875 64.390625 193.703125 70.535156 C 193.683594 70.742188 193.640625 70.949219 193.578125 71.148438 C 193.507812 71.273438 193.429688 71.398438 193.335938 71.515625 C 187.667969 81.5625 180.4375 91.5625 179.644531 103.179688 C 179.640625 103.242188 179.648438 103.355469 179.644531 103.421875 C 179.730469 105.171875 180.78125 106.125 181.84375 106.355469 C 182.886719 106.578125 184.765625 105.960938 185.511719 104.765625 C 185.589844 104.679688 185.671875 104.597656 185.757812 104.523438 C 185.757812 104.480469 185.757812 104.4375 185.757812 104.398438 C 185.753906 104.320312 185.753906 104.234375 185.757812 104.15625 C 196.058594 90 203.808594 73.28125 210.207031 56.96875 C 210.207031 56.925781 210.207031 56.882812 210.207031 56.84375 C 210.648438 55.773438 210.722656 55.449219 210.328125 54.640625 C 210.210938 54.40625 209 53.585938 208.375 53.664062 C 208.273438 53.710938 208.109375 53.617188 208.007812 53.664062 Z M 108.617188 58.1875 C 108.085938 58.179688 107.554688 58.214844 107.027344 58.3125 C 105.980469 58.507812 104.46875 59.46875 103.359375 59.898438 C 99.425781 61.390625 97.207031 64.765625 96.269531 68.703125 C 95.3125 72.734375 95.632812 77.195312 96.269531 81.78125 C 96.90625 86.359375 97.84375 91.136719 98.835938 94.742188 C 99.6875 97.859375 100.375 99.328125 100.671875 100.367188 L 100.671875 101.21875 C 100.671875 101.5625 100.40625 101.558594 100.179688 101.832031 C 100.054688 101.898438 100.304688 102.199219 100.179688 102.199219 C 99.898438 102.414062 99.554688 102.566406 99.203125 102.566406 C 98.507812 102.609375 97.964844 102.382812 97.246094 102.199219 C 96.757812 102.085938 96.121094 101.71875 96.269531 101.832031 C 96.039062 101.695312 95.683594 101.582031 95.535156 101.34375 C 95.53125 101.304688 95.570312 101.292969 95.535156 101.21875 C 95.375 100.921875 95.171875 100.15625 94.921875 99.632812 C 94.367188 98.445312 93.976562 97.09375 93.210938 95.351562 C 91.6875 91.882812 89.648438 87.617188 87.46875 83.617188 C 85.273438 79.601562 82.742188 75.984375 79.886719 73.46875 C 78.460938 72.214844 76.695312 70.957031 75 70.535156 C 73.359375 70.125 71.4375 70.421875 69.742188 71.269531 C 65.359375 73.699219 62.878906 77.632812 61.914062 81.78125 C 60.949219 86 61.335938 90.875 62.039062 95.109375 C 62.757812 99.328125 63.890625 102.882812 64.605469 105.742188 C 64.914062 106.949219 65.359375 108.074219 65.460938 108.679688 C 65.460938 109.273438 65.117188 110.789062 64.972656 111.367188 C 64.234375 113.929688 62.53125 118.210938 62.527344 118.210938 C 62.527344 118.210938 28.398438 208.914062 101.648438 202.566406 C 102.25 202.523438 103.523438 202.078125 104.09375 202.078125 C 118.476562 199.179688 132.09375 194.855469 144.191406 189.976562 C 146.570312 188.835938 149.734375 187.703125 153.238281 186.0625 C 160.242188 182.78125 168.992188 178.601562 177.445312 173.960938 C 185.898438 169.3125 193.820312 164.316406 199.816406 159.046875 C 205.820312 153.765625 210.15625 148.054688 209.351562 142.296875 C 208.078125 133.011719 201.910156 126.109375 193.703125 120.78125 C 185.464844 115.429688 175.21875 111.738281 164.976562 109.046875 C 154.734375 106.351562 144.820312 104.113281 137.222656 102.929688 C 133.425781 102.34375 129.796875 102.242188 127.5625 101.832031 C 126.90625 101.71875 126.578125 101.457031 126.21875 101.34375 C 126.03125 101.320312 126.035156 101.335938 125.851562 101.21875 C 125.625 101.085938 125.257812 101.09375 125.121094 100.851562 C 124.992188 100.625 125.121094 100.257812 125.121094 100 C 125.121094 99.898438 125.117188 99.765625 125.121094 99.632812 L 125.121094 94.007812 C 124.992188 89.328125 124.621094 83.144531 123.652344 77.382812 C 122.671875 71.59375 121.214844 65.960938 118.03125 62.222656 C 116.136719 60 113.460938 58.539062 110.203125 58.3125 C 109.71875 58.253906 109.144531 58.199219 108.617188 58.1875 Z M 108.617188 58.1875 "/>
</g>
</svg>
