
<svg xmlns="http://www.w3.org/2000/svg" xmlns:xlink="http://www.w3.org/1999/xlink" width="256px" height="256px" viewBox="0 0 256 256" version="1.1">
<g id="surface1">
<path style=" stroke:none;fill-rule:nonzero;fill:rgb(40.784314%,61.960784%,25.882353%);fill-opacity:1;" d="M 44.617188 18.585938 L 212.554688 18.585938 C 226.929688 18.585938 238.585938 30.242188 238.585938 44.617188 L 238.585938 212.554688 C 238.585938 226.929688 226.929688 238.585938 212.554688 238.585938 L 44.617188 238.585938 C 30.242188 238.585938 18.585938 226.929688 18.585938 212.554688 L 18.585938 44.617188 C 18.585938 30.242188 30.242188 18.585938 44.617188 18.585938 Z M 44.617188 18.585938 "/>
<path style=" stroke:none;fill-rule:nonzero;fill:rgb(94.901961%,94.901961%,94.901961%);fill-opacity:1;" d="M 121.648438 41.210938 C 88.140625 41.210938 69 55.035156 56.507812 70.496094 C 66.082031 73.121094 72.640625 75.28125 74.796875 75.992188 C 74.820312 74.546875 75.03125 61.53125 75.03125 61.53125 L 75.390625 61.054688 L 75.75 60.933594 C 78.691406 61.359375 141.445312 70.609375 167.90625 86.03125 C 171.179688 87.957031 172.929688 90.054688 174.960938 92.128906 C 182.269531 99.6875 191.984375 131.046875 193.007812 137.550781 L 192.648438 138.265625 C 192.273438 138.40625 191.226562 139.117188 190.019531 139.941406 C 183.84375 144.257812 169.558594 154.257812 151.054688 152.609375 C 134.410156 151.125 112.582031 141.648438 86.390625 124.402344 C 87.539062 127.121094 93.007812 139.921875 93.917969 142.09375 L 94.277344 142.6875 C 98.070312 144.648438 134.429688 163.148438 152.484375 162.773438 C 167.054688 162.480469 182.71875 155.390625 188.945312 151.65625 L 190.855469 151.296875 C 191.40625 151.730469 191.265625 152.546875 191.09375 153.328125 C 190.710938 155.109375 189.898438 158.382812 189.304688 159.902344 L 188.824219 161.21875 C 188.117188 163.101562 187.515625 164.914062 186.195312 166 C 182.523438 169.335938 176.601562 171.898438 167.429688 175.917969 C 153.242188 182.117188 130.226562 186.085938 108.859375 185.960938 C 101.210938 185.789062 93.84375 184.90625 87.34375 184.164062 C 73.78125 182.621094 62.730469 181.449219 56.148438 186.554688 C 72.15625 204.648438 95.589844 215.960938 121.648438 215.960938 C 169.90625 215.960938 209.023438 176.847656 209.023438 128.585938 C 209.023438 80.328125 169.910156 41.210938 121.648438 41.210938 Z M 144.71875 87.585938 C 138.03125 87.6875 131.703125 90.03125 126.789062 94.640625 C 121.523438 99.515625 118.554688 106.226562 118.304688 113.40625 C 117.820312 128.199219 129.441406 140.703125 144.242188 141.257812 C 151.445312 141.488281 158.117188 138.882812 163.367188 133.964844 C 168.597656 129.074219 171.707031 122.484375 171.96875 115.320312 C 172.476562 100.503906 160.859375 88.121094 146.03125 87.585938 C 145.585938 87.570312 145.164062 87.582031 144.71875 87.585938 Z M 144 95.359375 C 144.617188 95.320312 145.167969 95.335938 145.796875 95.359375 C 156.140625 95.71875 164.308594 104.46875 163.960938 114.839844 C 163.804688 119.828125 161.648438 124.4375 157.984375 127.867188 C 154.316406 131.273438 149.507812 133.164062 144.476562 133.007812 C 134.136719 132.625 126.085938 123.757812 126.429688 113.40625 C 126.589844 108.394531 128.765625 103.792969 132.40625 100.375 C 135.601562 97.382812 139.679688 95.617188 144 95.359375 Z M 148.1875 105.398438 C 143.695312 105.398438 140.054688 107.90625 140.054688 110.898438 C 140.054688 113.867188 143.695312 116.273438 148.1875 116.273438 C 152.65625 116.273438 156.195312 113.871094 156.195312 110.898438 C 156.195312 107.90625 152.65625 105.398438 148.1875 105.398438 Z M 148.1875 105.398438 "/>
</g>
</svg>
