
<svg xmlns="http://www.w3.org/2000/svg" xmlns:xlink="http://www.w3.org/1999/xlink" width="256px" height="256px" viewBox="0 0 256 256" version="1.1">
<g id="surface1">
<path style="fill-rule:nonzero;fill:rgb(0%,26.666667%,66.666667%);fill-opacity:1;stroke-width:27.7826;stroke-linecap:butt;stroke-linejoin:miter;stroke:rgb(29.019608%,68.235294%,90.980392%);stroke-opacity:1;stroke-miterlimit:4;" d="M 84.015625 28.445312 L 427.984375 28.445312 C 458.671875 28.445312 483.554688 53.328125 483.554688 84.015625 L 483.554688 427.984375 C 483.554688 458.671875 458.671875 483.554688 427.984375 483.554688 L 84.015625 483.554688 C 53.328125 483.554688 28.445312 458.671875 28.445312 427.984375 L 28.445312 84.015625 C 28.445312 53.328125 53.328125 28.445312 84.015625 28.445312 Z M 84.015625 28.445312 " transform="matrix(0.5,0,0,0.5,0,0)"/>
<path style=" stroke:none;fill-rule:nonzero;fill:rgb(24.313725%,80.392157%,96.470588%);fill-opacity:1;" d="M 172.304688 51.195312 C 172.304688 48.882812 171.476562 46.898438 169.835938 45.257812 C 168.199219 43.617188 166.210938 42.789062 163.898438 42.789062 L 48.261719 42.789062 C 45.949219 42.789062 43.960938 43.617188 42.320312 45.257812 C 40.679688 46.898438 39.855469 48.882812 39.855469 51.195312 L 39.855469 151.515625 C 39.855469 153.828125 40.679688 155.820312 42.320312 157.460938 C 43.960938 159.097656 45.949219 159.921875 48.261719 159.921875 L 57.382812 159.921875 L 57.382812 183.460938 C 57.382812 185.328125 58.039062 186.921875 59.359375 188.242188 C 60.675781 189.558594 62.273438 190.21875 64.136719 190.21875 C 66 190.21875 67.597656 189.558594 68.914062 188.242188 L 97.230469 159.921875 L 106.117188 159.921875 L 106.117188 96.609375 C 106.117188 94.296875 106.941406 92.304688 108.578125 90.664062 C 110.21875 89.027344 112.210938 88.203125 114.523438 88.203125 L 172.304688 88.203125 Z M 172.304688 51.195312 "/>
<path style=" stroke:none;fill-rule:nonzero;fill:rgb(100%,100%,100%);fill-opacity:1;" d="M 216.144531 96.609375 C 216.144531 94.296875 215.320312 92.304688 213.679688 90.664062 C 212.039062 89.027344 210.050781 88.203125 207.738281 88.203125 L 114.523438 88.203125 C 112.210938 88.203125 110.21875 89.027344 108.578125 90.664062 C 106.941406 92.304688 106.117188 94.296875 106.117188 96.609375 L 106.117188 174.507812 C 106.117188 176.820312 106.941406 178.8125 108.578125 180.453125 C 110.21875 182.089844 112.210938 182.917969 114.523438 182.917969 L 158.769531 182.917969 L 187.085938 211.234375 C 188.402344 212.550781 190 213.210938 191.863281 213.210938 C 193.726562 213.210938 195.324219 212.550781 196.640625 211.234375 C 197.960938 209.914062 198.617188 208.320312 198.617188 206.457031 L 198.617188 182.917969 L 207.738281 182.917969 C 210.050781 182.917969 212.039062 182.089844 213.679688 180.453125 C 215.320312 178.8125 216.144531 176.820312 216.144531 174.507812 Z M 133.773438 143.898438 C 131.09375 143.898438 128.828125 142.945312 126.9375 141.050781 C 125.042969 139.160156 124.105469 136.890625 124.105469 134.214844 C 124.105469 131.554688 125.042969 129.265625 126.9375 127.375 C 128.828125 125.484375 131.09375 124.546875 133.773438 124.546875 C 136.449219 124.546875 138.71875 125.484375 140.609375 127.375 C 142.5 129.265625 143.4375 131.554688 143.4375 134.214844 C 143.4375 136.890625 142.5 139.160156 140.609375 141.050781 C 138.71875 142.945312 136.449219 143.898438 133.773438 143.898438 Z M 170.902344 134.214844 C 170.902344 136.890625 169.949219 139.160156 168.058594 141.050781 C 166.164062 142.945312 163.898438 143.898438 161.234375 143.898438 C 158.558594 143.898438 156.273438 142.945312 154.382812 141.050781 C 152.492188 139.160156 151.554688 136.890625 151.554688 134.214844 C 151.554688 131.554688 152.492188 129.265625 154.382812 127.375 C 156.273438 125.484375 158.558594 124.546875 161.234375 124.546875 C 163.898438 124.546875 166.164062 125.484375 168.058594 127.375 C 169.949219 129.265625 170.902344 131.554688 170.902344 134.214844 Z M 198.367188 134.214844 C 198.367188 136.890625 197.414062 139.160156 195.519531 141.050781 C 193.628906 142.945312 191.359375 143.898438 188.683594 143.898438 C 186.023438 143.898438 183.734375 142.945312 181.84375 141.050781 C 179.953125 139.160156 179.015625 136.890625 179.015625 134.214844 C 179.015625 131.554688 179.953125 129.265625 181.84375 127.375 C 183.734375 125.484375 186.023438 124.546875 188.683594 124.546875 C 191.359375 124.546875 193.628906 125.484375 195.519531 127.375 C 197.414062 129.265625 198.367188 131.554688 198.367188 134.214844 Z M 198.367188 134.214844 "/>
<path style=" stroke:none;fill-rule:nonzero;fill:rgb(84.313725%,84.313725%,84.313725%);fill-opacity:1;" d="M 133.773438 124.546875 C 131.09375 124.546875 128.828125 125.484375 126.9375 127.375 C 125.042969 129.265625 124.105469 131.554688 124.105469 134.214844 C 124.105469 136.890625 125.042969 139.160156 126.9375 141.050781 C 128.828125 142.945312 131.09375 143.894531 133.773438 143.894531 C 136.449219 143.894531 138.71875 142.945312 140.609375 141.050781 C 142.5 139.160156 143.441406 136.890625 143.441406 134.214844 C 143.441406 131.554688 142.5 129.265625 140.609375 127.375 C 138.71875 125.484375 136.449219 124.546875 133.773438 124.546875 Z M 161.234375 124.546875 C 158.558594 124.546875 156.273438 125.484375 154.382812 127.375 C 152.492188 129.265625 151.554688 131.554688 151.554688 134.214844 C 151.554688 136.890625 152.492188 139.160156 154.382812 141.050781 C 156.273438 142.945312 158.558594 143.894531 161.234375 143.894531 C 163.898438 143.894531 166.164062 142.945312 168.058594 141.050781 C 169.949219 139.160156 170.902344 136.890625 170.902344 134.214844 C 170.902344 131.554688 169.949219 129.265625 168.058594 127.375 C 166.164062 125.484375 163.898438 124.546875 161.234375 124.546875 Z M 188.683594 124.546875 C 186.023438 124.546875 183.734375 125.484375 181.84375 127.375 C 179.953125 129.265625 179.015625 131.554688 179.015625 134.214844 C 179.015625 136.890625 179.953125 139.160156 181.84375 141.050781 C 183.734375 142.945312 186.023438 143.894531 188.683594 143.894531 C 191.359375 143.894531 193.628906 142.945312 195.519531 141.050781 C 197.414062 139.160156 198.367188 136.890625 198.367188 134.214844 C 198.367188 131.554688 197.414062 129.265625 195.519531 127.375 C 193.628906 125.484375 191.359375 124.546875 188.683594 124.546875 Z M 188.683594 124.546875 "/>
</g>
</svg>
