
<svg xmlns="http://www.w3.org/2000/svg" xmlns:xlink="http://www.w3.org/1999/xlink" width="256px" height="256px" viewBox="0 0 256 256" version="1.1">
<g id="surface1">
<path style="fill-rule:nonzero;fill:rgb(58.823529%,78.823529%,32.156863%);fill-opacity:1;stroke-width:7.116;stroke-linecap:butt;stroke-linejoin:miter;stroke:rgb(81.176471%,94.509804%,65.882353%);stroke-opacity:1;stroke-miterlimit:4;" d="M 19.949219 5.71875 L 108.050781 5.71875 C 115.910156 5.71875 122.28125 12.089844 122.28125 19.949219 L 122.28125 108.050781 C 122.28125 115.910156 115.910156 122.28125 108.050781 122.28125 L 19.949219 122.28125 C 12.089844 122.28125 5.71875 115.910156 5.71875 108.050781 L 5.71875 19.949219 C 5.71875 12.089844 12.089844 5.71875 19.949219 5.71875 Z M 19.949219 5.71875 " transform="matrix(2,0,0,2,0,0)"/>
<path style=" stroke:none;fill-rule:nonzero;fill:rgb(100%,100%,100%);fill-opacity:1;" d="M 149.761719 169.585938 L 149.761719 183.636719 L 144.652344 183.957031 C 137.117188 184.058594 133.183594 195.894531 144.011719 197.371094 C 147.636719 198.003906 151.140625 197.796875 155.828125 197.371094 C 164.886719 196.050781 166.695312 195.21875 166.6875 188.109375 C 166.582031 184.945312 166.472656 181.15625 166.367188 176.292969 C 165.851562 170.542969 162.316406 160.628906 156.148438 160.964844 C 150.515625 160.949219 144.796875 160.417969 140.5 159.046875 C 133.0625 156.6875 130.300781 157.804688 124.53125 146.59375 C 122.921875 151.121094 121.121094 153.539062 120.699219 157.453125 C 119.636719 164.179688 115.792969 166.464844 110.480469 166.394531 C 103.765625 165.730469 97.050781 164.167969 89.722656 162.5625 C 83.109375 161.105469 77.289062 160.984375 70.5625 158.410156 C 59.90625 153.925781 59.050781 141.601562 56.511719 130.625 C 54.308594 120.304688 52.75 109.242188 51.402344 98.371094 C 49.984375 88.597656 53.160156 82.1875 64.496094 81.765625 L 80.78125 82.085938 C 85.273438 81.648438 89.597656 81.015625 89.085938 74.738281 L 88.765625 56.21875 C 89.222656 54.972656 90.96875 43.707031 103.457031 43.441406 L 119.105469 44.082031 C 124.535156 44.996094 133.675781 46.683594 136.988281 56.855469 C 147.699219 57.109375 158.859375 56.910156 167.964844 58.773438 C 177.605469 62.542969 193.007812 60.554688 190.957031 76.015625 C 193.066406 76.765625 193.371094 100.042969 193.832031 121.363281 C 193.933594 134.300781 193.515625 147.5 191.917969 161.285156 C 191.828125 174.960938 187.53125 186.953125 183.292969 198.96875 C 180.695312 206.488281 177.164062 213.179688 167.007812 213.976562 C 156.683594 215.25 147.109375 215.023438 137.625 214.617188 C 128.664062 214.355469 123.914062 208.484375 122.617188 198.007812 L 122.617188 187.152344 C 122.625 179.929688 126.566406 173.617188 137.625 168.949219 Z M 149.761719 169.585938 "/>
<path style=" stroke:none;fill-rule:nonzero;fill:rgb(58.823529%,78.823529%,32.156863%);fill-opacity:1;" d="M 147.261719 125.417969 L 169.929688 125.613281 C 170.632812 113.800781 165.546875 111.5 159.082031 111.46875 C 147.453125 112.625 147.914062 119.273438 147.261719 125.417969 Z M 147.261719 125.417969 "/>
<path style=" stroke:none;fill-rule:nonzero;fill:rgb(100%,100%,100%);fill-opacity:1;" d="M 59.40625 71.066406 L 79.492188 52.050781 C 77.816406 55.996094 78.507812 63.242188 78.171875 68.640625 C 78.261719 69.445312 77.644531 69.910156 76.652344 70.195312 C 70.910156 70.4375 65.386719 69.4375 59.40625 71.066406 Z M 59.40625 71.066406 "/>
</g>
</svg>
