<!-- color: #bb0000 -->
<svg xmlns="http://www.w3.org/2000/svg" xmlns:xlink="http://www.w3.org/1999/xlink" width="256px" height="256px" viewBox="0 0 256 256" version="1.1">
<defs>
<clipPath id="clip1">
  <path d="M 59.5 59.5 L 196.5 59.5 L 196.5 196.5 L 59.5 196.5 Z M 59.5 59.5 "/>
</clipPath>
<clipPath id="clip2">
  <path d="M 258.5 128.042969 C 258.5 200.132812 200.046875 258.523438 128.019531 258.523438 C 55.992188 258.523438 -2.460938 200.132812 -2.460938 128.042969 C -2.460938 55.953125 55.992188 -2.4375 128.019531 -2.4375 C 200.046875 -2.4375 258.5 55.953125 258.5 128.042969 Z M 258.5 128.042969 "/>
</clipPath>
</defs>
<g id="surface1">
<path style="fill-rule:evenodd;fill:rgb(96.470588%,27.843137%,27.843137%);fill-opacity:0.996078;stroke-width:16;stroke-linecap:butt;stroke-linejoin:miter;stroke:rgb(62.352941%,2.745098%,2.745098%);stroke-opacity:0.996078;stroke-miterlimit:4;" d="M 87.734375 31 L 424.265625 31 C 455.601562 31 481 56.398438 481 87.734375 L 481 424.265625 C 481 455.601562 455.601562 481 424.265625 481 L 87.734375 481 C 56.398438 481 31 455.601562 31 424.265625 L 31 87.734375 C 31 56.398438 56.398438 31 87.734375 31 Z M 87.734375 31 " transform="matrix(0.5,0,0,0.5,0,0)"/>
<g clip-path="url(#clip1)" clip-rule="nonzero">
<g clip-path="url(#clip2)" clip-rule="nonzero">
<path style=" stroke:none;fill-rule:nonzero;fill:rgb(100%,100%,100%);fill-opacity:1;" d="M 87.554688 59.964844 L 59.945312 182.378906 L 82.367188 182.378906 L 95.375 127.601562 L 156.609375 127.601562 L 99.25 178.882812 L 114.1875 196.074219 L 121.835938 192.132812 C 136.308594 184.703125 142.378906 189.050781 153.351562 192.085938 C 164.03125 195.035156 174.09375 198.203125 194.921875 186.214844 L 190.78125 165.03125 C 168.085938 181.1875 160.867188 166.78125 144.664062 166.183594 L 191.023438 126.960938 L 196.054688 105.996094 L 98.933594 105.996094 L 105.203125 80.890625 L 168.871094 80.890625 L 173.257812 59.925781 L 87.539062 59.925781 M 87.582031 59.949219 "/>
</g>
</g>
</g>
</svg>
