
<svg xmlns="http://www.w3.org/2000/svg" xmlns:xlink="http://www.w3.org/1999/xlink" width="256px" height="256px" viewBox="0 0 256 256" version="1.1">
<g id="surface1">
<path style="fill-rule:nonzero;fill:rgb(83.137255%,0%,0%);fill-opacity:1;stroke-width:27.195292;stroke-linecap:butt;stroke-linejoin:miter;stroke:rgb(86.666667%,50.588235%,50.588235%);stroke-opacity:1;stroke-miterlimit:4;" d="M 87.648438 573.620013 L 424.351562 573.620013 C 454.390625 573.620013 478.742188 597.971575 478.742188 628.010638 L 478.742188 964.713763 C 478.742188 994.752825 454.390625 1019.104388 424.351562 1019.104388 L 87.648438 1019.104388 C 57.609375 1019.104388 33.257812 994.752825 33.257812 964.713763 L 33.257812 628.010638 C 33.257812 597.971575 57.609375 573.620013 87.648438 573.620013 Z M 87.648438 573.620013 " transform="matrix(0.5,0,0,0.5,0,-270.1811)"/>
<path style=" stroke:none;fill-rule:nonzero;fill:rgb(100%,100%,100%);fill-opacity:1;" d="M 188.726562 52.136719 L 188.726562 82.683594 C 158.234375 83.214844 150.742188 112.953125 150.742188 112.953125 L 173.742188 112.953125 L 173.742188 143.5 L 138.078125 143.5 C 116.628906 209.671875 67.273438 203.777344 67.273438 203.777344 L 67.273438 173.234375 C 67.273438 173.234375 98.59375 179.046875 114.5625 120.726562 C 134.539062 47.773438 188.726562 52.136719 188.726562 52.136719 Z M 188.726562 52.136719 "/>
</g>
</svg>
