
<svg xmlns="http://www.w3.org/2000/svg" xmlns:xlink="http://www.w3.org/1999/xlink" width="256px" height="256px" viewBox="0 0 256 256" version="1.1">
<g id="surface1">
<path style="fill-rule:nonzero;fill:rgb(17.254902%,24.313725%,31.372549%);fill-opacity:1;stroke-width:2.645343;stroke-linecap:butt;stroke-linejoin:miter;stroke:rgb(15.294118%,68.235294%,37.647059%);stroke-opacity:1;stroke-miterlimit:4;" d="M 7.624511 2.333496 L 40.376219 2.333496 C 43.29785 2.333496 45.666502 4.702148 45.666502 7.624511 L 45.666502 40.376219 C 45.666502 43.29785 43.29785 45.666502 40.376219 45.666502 L 7.624511 45.666502 C 4.702148 45.666502 2.333496 43.29785 2.333496 40.376219 L 2.333496 7.624511 C 2.333496 4.702148 4.702148 2.333496 7.624511 2.333496 Z M 7.624511 2.333496 " transform="matrix(5.333334,0,0,5.333334,0,0)"/>
<path style=" stroke:none;fill-rule:nonzero;fill:rgb(15.294118%,68.235294%,37.647059%);fill-opacity:1;" d="M 193.277344 138.398438 L 157.867188 150.328125 L 129.789062 125.492188 L 137.121094 88.726562 L 172.53125 76.800781 L 200.609375 101.640625 Z M 193.277344 138.398438 "/>
<path style=" stroke:none;fill-rule:nonzero;fill:rgb(15.294118%,68.235294%,37.647059%);fill-opacity:1;" d="M 126.878906 124.785156 L 91.46875 136.710938 L 63.390625 111.875 L 70.722656 75.113281 L 106.132812 63.1875 L 134.210938 88.023438 Z M 126.878906 124.785156 "/>
<path style=" stroke:none;fill-rule:nonzero;fill:rgb(15.294118%,68.235294%,37.647059%);fill-opacity:1;" d="M 148.664062 189.554688 L 113.257812 201.480469 L 85.179688 176.644531 L 92.507812 139.882812 L 127.914062 127.953125 L 155.992188 152.792969 Z M 148.664062 189.554688 "/>
</g>
</svg>
