
<svg xmlns="http://www.w3.org/2000/svg" xmlns:xlink="http://www.w3.org/1999/xlink" width="256px" height="256px" viewBox="0 0 256 256" version="1.1">
<g id="surface1">
<path style="fill-rule:nonzero;fill:rgb(100%,90.196078%,81.176471%);fill-opacity:0.980392;stroke-width:28.191782;stroke-linecap:butt;stroke-linejoin:miter;stroke:rgb(65.098039%,44.705882%,25.098039%);stroke-opacity:0.980392;stroke-miterlimit:4;" d="M 81.484375 25.101562 L 430.523438 25.101562 C 461.664062 25.101562 486.90625 50.34375 486.90625 81.484375 L 486.90625 430.523438 C 486.90625 461.664062 461.664062 486.90625 430.523438 486.90625 L 81.484375 486.90625 C 50.34375 486.90625 25.101562 461.664062 25.101562 430.523438 L 25.101562 81.484375 C 25.101562 50.34375 50.34375 25.101562 81.484375 25.101562 Z M 81.484375 25.101562 " transform="matrix(0.5,0,0,0.5,0,0)"/>
<path style=" stroke:none;fill-rule:nonzero;fill:rgb(65.098039%,44.705882%,25.098039%);fill-opacity:0.980392;" d="M 202.8125 62.125 C 186.199219 113.667969 109.890625 124.226562 64.652344 67.1875 C 65.109375 86.859375 63.515625 101.546875 72.382812 117.691406 C 66.457031 119.554688 62.15625 125.085938 62.140625 131.625 C 59.140625 131.792969 56.183594 131.921875 52.898438 132.046875 C 47.695312 126.160156 41.199219 122.570312 35.039062 125.164062 C 26.058594 128.972656 23.167969 142.007812 27.570312 154.589844 C 31.015625 164.507812 38.125 171.46875 45.265625 171.886719 C 75.125 192.835938 141.496094 207.921875 166.667969 173.289062 C 175.160156 161.65625 180.226562 152.640625 180.707031 134.429688 C 200.519531 114.078125 217.523438 98.722656 202.8125 62.125 Z M 64.652344 67.1875 C 64.652344 67.179688 64.652344 67.171875 64.652344 67.160156 L 64.632812 67.160156 C 64.640625 67.171875 64.644531 67.179688 64.652344 67.1875 Z M 64.652344 67.1875 "/>
<path style=" stroke:none;fill-rule:nonzero;fill:rgb(65.098039%,44.705882%,25.098039%);fill-opacity:0.980392;" d="M 36.523438 134.460938 C 34.527344 134.460938 32.867188 136.382812 32.867188 138.605469 C 32.867188 140.835938 34.527344 142.640625 36.523438 142.640625 C 38.523438 142.640625 40.183594 140.835938 40.183594 138.605469 C 40.183594 136.375 38.523438 134.460938 36.523438 134.460938 M 36.523438 134.460938 "/>
<path style=" stroke:none;fill-rule:nonzero;fill:rgb(41.960784%,29.411765%,15.686275%);fill-opacity:1;" d="M 125.585938 168.539062 L 168.210938 170.3125 L 165.351562 182.117188 L 120.75 172.171875 C 122.382812 171 123.894531 169.710938 125.578125 168.539062 M 125.578125 168.539062 "/>
<path style=" stroke:none;fill-rule:nonzero;fill:rgb(66.666667%,66.666667%,66.666667%);fill-opacity:1;" d="M 191.371094 172.792969 L 168.210938 169.703125 C 168.210938 169.703125 163.179688 170.765625 162.496094 174.96875 C 161.835938 179.195312 165.273438 182.117188 165.273438 182.117188 L 190.691406 182 M 191.378906 172.792969 "/>
<path style=" stroke:none;fill-rule:nonzero;fill:rgb(72.941176%,12.941176%,12.941176%);fill-opacity:1;" d="M 195.207031 169.710938 C 190.347656 170.714844 188.429688 176.628906 189 180.523438 C 189.511719 184.328125 202.035156 196.875 230.457031 177.523438 C 218.050781 175.574219 200.492188 168.492188 195.207031 169.71875 M 195.207031 169.71875 "/>
<path style=" stroke:none;fill-rule:nonzero;fill:rgb(27.45098%,25.098039%,23.921569%);fill-opacity:1;" d="M 167.296875 169.542969 C 167.296875 169.542969 162.242188 170.605469 161.582031 174.804688 C 160.921875 179.039062 164.265625 182.007812 164.265625 182.007812 L 165.09375 182.007812 C 164.296875 180.492188 163.492188 178.351562 163.835938 175.75 C 164.320312 172.003906 167.242188 170.320312 168.695312 169.71875 M 167.296875 169.550781 "/>
</g>
</svg>
