<!-- color: #474747 -->
<svg xmlns="http://www.w3.org/2000/svg" xmlns:xlink="http://www.w3.org/1999/xlink" width="256px" height="256px" viewBox="0 0 256 256" version="1.1">
<defs>
<clipPath id="clip1">
  <path d="M 38 29 L 221.5 29 L 221.5 196 L 38 196 Z M 38 29 "/>
</clipPath>
<clipPath id="clip2">
  <path d="M 305.011719 120.078125 C 305.011719 216.484375 226.46875 294.570312 129.695312 294.570312 C 32.914062 294.570312 -45.625 216.484375 -45.625 120.078125 C -45.625 23.671875 32.914062 -54.414062 129.695312 -54.414062 C 226.46875 -54.414062 305.011719 23.671875 305.011719 120.078125 Z M 305.011719 120.078125 "/>
</clipPath>
<clipPath id="clip3">
  <path d="M 68.5 165.5 L 206 165.5 L 206 226.5 L 68.5 226.5 Z M 68.5 165.5 "/>
</clipPath>
<clipPath id="clip4">
  <path d="M 305.011719 120.078125 C 305.011719 216.484375 226.46875 294.570312 129.695312 294.570312 C 32.914062 294.570312 -45.625 216.484375 -45.625 120.078125 C -45.625 23.671875 32.914062 -54.414062 129.695312 -54.414062 C 226.46875 -54.414062 305.011719 23.671875 305.011719 120.078125 Z M 305.011719 120.078125 "/>
</clipPath>
</defs>
<g id="surface1">
<path style="fill-rule:nonzero;fill:rgb(100%,100%,100%);fill-opacity:1;stroke-width:7.045022;stroke-linecap:butt;stroke-linejoin:miter;stroke:rgb(99.215686%,79.215686%,0.392157%);stroke-opacity:1;stroke-miterlimit:4;" d="M 20.386719 6.298828 L 107.613281 6.298828 C 115.394531 6.298828 121.701172 12.605469 121.701172 20.386719 L 121.701172 107.613281 C 121.701172 115.394531 115.394531 121.701172 107.613281 121.701172 L 20.386719 121.701172 C 12.605469 121.701172 6.298828 115.394531 6.298828 107.613281 L 6.298828 20.386719 C 6.298828 12.605469 12.605469 6.298828 20.386719 6.298828 Z M 20.386719 6.298828 " transform="matrix(2,0,0,2,0,0)"/>
<g clip-path="url(#clip1)" clip-rule="nonzero">
<g clip-path="url(#clip2)" clip-rule="nonzero">
<path style=" stroke:none;fill-rule:nonzero;fill:rgb(99.215686%,79.215686%,0.392157%);fill-opacity:1;" d="M 92.265625 29.039062 C 62.339844 29.039062 38.191406 53.070312 38.191406 82.859375 L 38.191406 142.132812 C 38.191406 171.917969 62.339844 195.953125 92.265625 195.953125 L 167.066406 195.953125 C 196.992188 195.953125 221.140625 171.917969 221.140625 142.132812 L 221.140625 82.859375 C 221.140625 53.070312 196.992188 29.039062 167.066406 29.039062 M 53.445312 74.554688 L 205.898438 74.554688 L 205.898438 89.730469 L 53.445312 89.730469 M 53.445312 104.90625 L 205.898438 104.90625 L 205.898438 120.078125 L 53.445312 120.078125 M 53.445312 135.25 L 205.898438 135.25 L 205.898438 150.421875 L 53.445312 150.421875 M 53.445312 135.25 "/>
</g>
</g>
<g clip-path="url(#clip3)" clip-rule="nonzero">
<g clip-path="url(#clip4)" clip-rule="nonzero">
<path style=" stroke:none;fill-rule:nonzero;fill:rgb(99.215686%,79.215686%,0.392157%);fill-opacity:1;" d="M 205.921875 165.597656 L 91.609375 165.597656 L 68.742188 226.289062 M 205.949219 165.597656 "/>
</g>
</g>
</g>
</svg>
