
<svg xmlns="http://www.w3.org/2000/svg" xmlns:xlink="http://www.w3.org/1999/xlink" width="256px" height="256px" viewBox="0 0 256 256" version="1.1">
<g id="surface1">
<path style="fill-rule:nonzero;fill:rgb(50.196078%,50.196078%,50.196078%);fill-opacity:1;stroke-width:6.392664;stroke-linecap:butt;stroke-linejoin:miter;stroke:rgb(21.568627%,20.784314%,22.745098%);stroke-opacity:1;stroke-miterlimit:4;" d="M 26.594804 935.932945 L 105.74129 935.932945 C 112.803191 935.932945 118.525896 941.65565 118.525896 948.717552 L 118.525896 1027.864038 C 118.525896 1034.925939 112.803191 1040.650531 105.74129 1040.650531 L 26.594804 1040.650531 C 19.532902 1040.650531 13.808311 1034.925939 13.808311 1027.864038 L 13.808311 948.717552 C 13.808311 941.65565 19.532902 935.932945 26.594804 935.932945 Z M 26.594804 935.932945 " transform="matrix(2.070972,0,0,2.070972,-4.827094,-1918.865142)"/>
<path style=" stroke:none;fill-rule:nonzero;fill:rgb(21.568627%,20.784314%,22.745098%);fill-opacity:1;" d="M 27.855469 24.195312 L 234.898438 24.195312 L 234.898438 60.132812 L 27.855469 60.132812 Z M 27.855469 24.195312 "/>
<path style=" stroke:none;fill-rule:nonzero;fill:rgb(100%,100%,100%);fill-opacity:1;" d="M 173.734375 38.421875 L 187.152344 38.421875 L 187.152344 51.578125 L 173.734375 51.578125 Z M 173.734375 38.421875 "/>
<path style=" stroke:none;fill-rule:nonzero;fill:rgb(100%,100%,100%);fill-opacity:1;" d="M 198.359375 38.421875 L 211.78125 38.421875 L 211.78125 51.578125 L 198.359375 51.578125 Z M 198.359375 38.421875 "/>
<path style=" stroke:none;fill-rule:nonzero;fill:rgb(100%,100%,100%);fill-opacity:1;" d="M 149.105469 38.421875 L 162.523438 38.421875 L 162.523438 51.578125 L 149.105469 51.578125 Z M 149.105469 38.421875 "/>
<path style=" stroke:none;fill-rule:nonzero;fill:rgb(82.352941%,82.352941%,82.352941%);fill-opacity:1;" d="M 169.617188 140.039062 C 169.617188 120.914062 153.734375 105.40625 134.148438 105.40625 C 114.554688 105.40625 98.675781 120.914062 98.675781 140.039062 C 98.675781 159.164062 114.554688 174.671875 134.148438 174.671875 C 153.734375 174.671875 169.617188 159.164062 169.617188 140.039062 Z M 169.617188 140.039062 "/>
<path style=" stroke:none;fill-rule:nonzero;fill:rgb(82.352941%,82.352941%,82.352941%);fill-opacity:1;" d="M 126.539062 193.871094 C 125.585938 193.445312 124.574219 192.355469 124.121094 191.273438 C 123.890625 190.710938 123.65625 188.5625 123.457031 185.132812 C 123.289062 182.226562 123.066406 179.617188 122.960938 179.335938 C 122.828125 178.960938 122.160156 178.609375 120.5 178.027344 C 119.25 177.589844 117.359375 176.796875 116.308594 176.269531 C 115.257812 175.742188 114.164062 175.304688 113.886719 175.304688 C 113.570312 175.304688 111.851562 176.703125 109.398438 178.957031 C 107.210938 180.964844 105.066406 182.789062 104.632812 183.007812 C 103.742188 183.464844 101.742188 183.539062 100.710938 183.15625 C 99.886719 182.851562 91.1875 174.28125 90.632812 173.226562 C 90.078125 172.179688 90.140625 170.226562 90.757812 169.042969 C 91.039062 168.503906 92.882812 166.320312 94.84375 164.1875 C 96.960938 161.894531 98.421875 160.113281 98.421875 159.820312 C 98.421875 159.554688 97.988281 158.46875 97.460938 157.417969 C 96.929688 156.367188 96.140625 154.484375 95.703125 153.242188 C 95.269531 151.992188 94.734375 150.882812 94.515625 150.769531 C 94.300781 150.65625 91.746094 150.429688 88.84375 150.273438 C 85.464844 150.085938 83.191406 149.851562 82.53125 149.613281 C 81.28125 149.164062 79.835938 147.625 79.632812 146.523438 C 79.546875 146.078125 79.515625 142.765625 79.554688 139.164062 L 79.632812 132.617188 L 80.382812 131.671875 C 81.714844 130.007812 82.339844 129.839844 88.691406 129.449219 C 92.289062 129.226562 94.472656 128.992188 94.65625 128.8125 C 94.8125 128.648438 95.351562 127.414062 95.851562 126.0625 C 96.351562 124.710938 97.132812 122.867188 97.59375 121.957031 C 98.046875 121.046875 98.421875 120.105469 98.421875 119.859375 C 98.421875 119.617188 96.914062 117.765625 95.078125 115.75 C 93.242188 113.734375 91.484375 111.75 91.171875 111.335938 C 90.296875 110.183594 90 108.75 90.347656 107.351562 C 90.609375 106.289062 91.085938 105.714844 95.082031 101.664062 C 97.523438 99.1875 99.9375 96.953125 100.4375 96.695312 C 101.601562 96.09375 103.449219 96.085938 104.601562 96.671875 C 105.089844 96.921875 107.222656 98.71875 109.34375 100.664062 C 111.464844 102.613281 113.34375 104.289062 113.519531 104.386719 C 113.703125 104.492188 114.847656 104.09375 116.238281 103.429688 C 117.554688 102.804688 119.53125 101.992188 120.625 101.625 C 122.109375 101.125 122.679688 100.804688 122.886719 100.371094 C 123.039062 100.046875 123.296875 97.40625 123.460938 94.503906 C 123.78125 88.921875 123.96875 88.039062 125.125 86.835938 C 126.40625 85.496094 127.140625 85.386719 134.300781 85.46875 L 140.824219 85.539062 L 141.84375 86.214844 C 143.601562 87.378906 143.8125 88.101562 144.226562 94.316406 C 144.425781 97.324219 144.644531 100.019531 144.710938 100.304688 C 144.804688 100.710938 145.34375 101.003906 147.089844 101.617188 C 148.332031 102.046875 150.320312 102.890625 151.507812 103.488281 C 152.699219 104.085938 153.765625 104.574219 153.882812 104.574219 C 154 104.574219 155.90625 102.910156 158.125 100.875 C 160.339844 98.84375 162.5625 96.960938 163.0625 96.699219 C 164.25 96.078125 166.015625 96.085938 167.308594 96.710938 C 167.921875 97.011719 170.015625 98.914062 172.640625 101.5625 C 177.144531 106.117188 177.5 106.632812 177.5 108.695312 C 177.507812 110.15625 176.855469 111.109375 172.984375 115.355469 C 170.875 117.664062 169.15625 119.652344 169.15625 119.773438 C 169.15625 119.890625 169.703125 121.132812 170.375 122.535156 C 171.046875 123.9375 171.847656 125.898438 172.15625 126.894531 C 172.539062 128.132812 172.871094 128.773438 173.207031 128.914062 C 173.476562 129.03125 176.191406 129.28125 179.242188 129.46875 C 185.289062 129.847656 186.265625 130.097656 187.28125 131.523438 C 188.238281 132.875 188.351562 133.882812 188.265625 140.472656 L 188.1875 146.777344 L 187.445312 147.828125 C 186.125 149.710938 185.792969 149.804688 179.078125 150.242188 C 175.800781 150.457031 173.058594 150.6875 172.988281 150.757812 C 172.917969 150.828125 172.511719 151.878906 172.085938 153.089844 C 171.65625 154.300781 170.816406 156.265625 170.21875 157.460938 C 169.617188 158.65625 169.160156 159.78125 169.203125 159.960938 C 169.242188 160.140625 170.878906 162.035156 172.835938 164.171875 C 174.796875 166.304688 176.648438 168.546875 176.953125 169.140625 C 177.597656 170.414062 177.65625 171.765625 177.125 173.039062 C 176.65625 174.164062 168.679688 182.269531 167.382812 182.941406 C 166.296875 183.5 164.324219 183.5625 163.1875 183.070312 C 162.757812 182.882812 160.578125 181.054688 158.347656 179.015625 C 156.117188 176.976562 154.117188 175.308594 153.898438 175.308594 C 153.683594 175.308594 152.429688 175.8125 151.109375 176.429688 C 149.792969 177.042969 147.839844 177.835938 146.773438 178.1875 C 145.296875 178.671875 144.796875 178.953125 144.710938 179.339844 C 144.640625 179.621094 144.425781 182.3125 144.226562 185.320312 C 143.785156 191.9375 143.53125 192.65625 141.226562 193.820312 C 140.5625 194.160156 139.453125 194.21875 133.859375 194.210938 C 128.910156 194.203125 127.09375 194.117188 126.539062 193.871094 Z M 136.242188 164.492188 C 142.179688 163.871094 147.140625 161.503906 151.367188 157.273438 C 154.585938 154.054688 156.660156 150.4375 157.914062 145.878906 C 158.695312 143.023438 158.691406 136.710938 157.902344 133.820312 C 155.507812 125.039062 149.226562 118.578125 140.539062 115.960938 C 138.515625 115.351562 137.96875 115.292969 134.03125 115.277344 C 130.265625 115.257812 129.476562 115.328125 127.648438 115.828125 C 118.507812 118.324219 111.515625 125.667969 109.605469 134.78125 C 107.890625 142.972656 110.398438 151.332031 116.375 157.339844 C 119.507812 160.484375 123.570312 162.796875 127.96875 163.929688 C 129.226562 164.25 131.007812 164.5 133.539062 164.710938 C 133.742188 164.726562 134.960938 164.628906 136.242188 164.492188 Z M 130.152344 154.195312 C 123.890625 152.5 119.507812 147.167969 119.117188 140.78125 C 118.847656 136.3125 120.285156 132.53125 123.457031 129.375 C 129.234375 123.617188 138.460938 123.5625 144.164062 129.25 C 148.859375 133.9375 149.988281 140.601562 147.070312 146.445312 C 144.589844 151.429688 140.015625 154.367188 134.402344 154.585938 C 132.492188 154.664062 131.546875 154.574219 130.152344 154.195312 Z M 137.15625 148.003906 C 138.890625 147.359375 140.953125 145.4375 141.820312 143.671875 C 142.429688 142.421875 142.507812 142.007812 142.507812 139.820312 C 142.507812 137.484375 142.460938 137.28125 141.664062 135.8125 C 140.050781 132.835938 137.65625 131.328125 134.277344 131.15625 C 131.5625 131.019531 129.9375 131.59375 127.976562 133.386719 C 125.492188 135.65625 124.503906 138.816406 125.300781 141.929688 C 125.992188 144.628906 127.453125 146.460938 129.917969 147.710938 C 132.214844 148.875 134.578125 148.96875 137.15625 148.003906 Z M 137.15625 148.003906 "/>
<path style=" stroke:none;fill-rule:nonzero;fill:rgb(50.196078%,50.196078%,50.196078%);fill-opacity:1;" d="M 158.941406 140.3125 C 158.941406 154.117188 147.75 165.3125 133.941406 165.3125 C 120.132812 165.3125 108.941406 154.117188 108.941406 140.3125 C 108.941406 126.503906 120.132812 115.3125 133.941406 115.3125 C 147.75 115.3125 158.941406 126.503906 158.941406 140.3125 Z M 158.941406 140.3125 "/>
</g>
</svg>
