
<svg xmlns="http://www.w3.org/2000/svg" xmlns:xlink="http://www.w3.org/1999/xlink" width="256px" height="256px" viewBox="0 0 256 256" version="1.1">
<g id="surface1">
<path style="fill-rule:nonzero;fill:rgb(100%,100%,100%);fill-opacity:1;stroke-width:28.191782;stroke-linecap:butt;stroke-linejoin:miter;stroke:rgb(100%,16.470588%,16.470588%);stroke-opacity:1;stroke-miterlimit:4;" d="M 81.484375 25.09375 L 430.515625 25.09375 C 461.65625 25.09375 486.90625 50.34375 486.90625 81.484375 L 486.90625 430.515625 C 486.90625 461.65625 461.65625 486.90625 430.515625 486.90625 L 81.484375 486.90625 C 50.34375 486.90625 25.09375 461.65625 25.09375 430.515625 L 25.09375 81.484375 C 25.09375 50.34375 50.34375 25.09375 81.484375 25.09375 Z M 81.484375 25.09375 " transform="matrix(0.5,0,0,0.5,0,0)"/>
<path style=" stroke:none;fill-rule:evenodd;fill:rgb(65.882353%,58.431373%,41.960784%);fill-opacity:1;" d="M 223.8125 44.585938 L 226.707031 180.390625 L 39.898438 184.375 L 37.003906 48.566406 Z M 223.8125 44.585938 "/>
<path style=" stroke:none;fill-rule:evenodd;fill:rgb(90.196078%,84.705882%,74.117647%);fill-opacity:1;" d="M 206.265625 67.644531 L 208.359375 165.84375 L 51.601562 169.179688 L 49.507812 70.984375 Z M 206.265625 67.644531 "/>
<path style=" stroke:none;fill-rule:evenodd;fill:rgb(90.196078%,84.705882%,74.117647%);fill-opacity:1;" d="M 193.867188 45.378906 L 214.394531 148.921875 L 61.03125 183.453125 L 40.507812 79.914062 Z M 193.867188 45.378906 "/>
<path style=" stroke:none;fill-rule:evenodd;fill:rgb(52.941176%,87.058824%,80.392157%);fill-opacity:1;" d="M 217.082031 116.699219 L 47.375 161.25 L 57.273438 193.070312 L 222.03125 152.761719 Z M 217.082031 116.699219 "/>
<path style=" stroke:none;fill-rule:evenodd;fill:rgb(50.196078%,89.803922%,100%);fill-opacity:1;" d="M 38.183594 81.914062 L 195.164062 32.554688 L 207.179688 94.953125 L 45.960938 147.105469 Z M 38.183594 81.914062 "/>
<path style="fill:none;stroke-width:32.290375;stroke-linecap:butt;stroke-linejoin:miter;stroke:rgb(76.862745%,66.27451%,45.882353%);stroke-opacity:1;stroke-miterlimit:4;" d="M 159.55204 -377.977276 L 398.151786 -377.972196 L 398.148968 -38.211124 L 159.547512 -38.20854 Z M 159.55204 -377.977276 " transform="matrix(0.097634,0.490375,-0.487888,0.109387,0,0)"/>
<path style=" stroke:none;fill-rule:evenodd;fill:rgb(40%,40%,40%);fill-opacity:1;" d="M 75.867188 147.882812 L 97.824219 106.132812 L 133.359375 129.453125 L 160.734375 66.242188 L 200.164062 127.078125 L 66.640625 158.597656 Z M 75.867188 147.882812 "/>
<path style=" stroke:none;fill-rule:nonzero;fill:rgb(100%,86.666667%,33.333333%);fill-opacity:1;" d="M 91.40625 96.683594 C 93.078125 104.3125 88.257812 111.855469 80.625 113.53125 C 73 115.210938 65.453125 110.382812 63.78125 102.757812 C 62.101562 95.125 66.929688 87.585938 74.554688 85.90625 C 82.183594 84.230469 89.726562 89.054688 91.40625 96.683594 Z M 91.40625 96.683594 "/>
<path style="fill-rule:nonzero;fill:rgb(100%,100%,100%);fill-opacity:0.372549;stroke-width:24.14362;stroke-linecap:butt;stroke-linejoin:miter;stroke:rgb(100%,33.333333%,33.333333%);stroke-opacity:1;stroke-miterlimit:4;" d="M 433.622354 131.928045 C 433.624131 171.292645 401.710904 203.197807 362.346304 203.199584 C 322.981704 203.201361 291.069283 171.291021 291.074765 131.923534 C 291.075875 92.566193 322.986215 60.653772 362.343556 60.654882 C 401.708156 60.653105 433.620577 92.563445 433.622354 131.928045 Z M 433.622354 131.928045 " transform="matrix(0.464599,0.184792,-0.184792,0.464599,9.19239,21.213205)"/>
<path style=" stroke:none;fill-rule:evenodd;fill:rgb(100%,33.333333%,33.333333%);fill-opacity:1;" d="M 164.304688 177.199219 L 165.265625 176.6875 C 168.214844 175.121094 171.875 176.242188 173.445312 179.191406 L 196.058594 221.742188 C 197.625 224.691406 196.507812 228.351562 193.554688 229.921875 L 192.59375 230.433594 C 189.644531 232 185.984375 230.882812 184.414062 227.929688 L 161.800781 185.382812 C 160.234375 182.429688 161.351562 178.765625 164.304688 177.199219 Z M 164.304688 177.199219 "/>
<path style=" stroke:none;fill-rule:evenodd;fill:rgb(100%,100%,100%);fill-opacity:1;" d="M 146.371094 99.023438 L 160.515625 66.496094 L 180.3125 95.484375 L 164.757812 90.539062 L 164.757812 101.851562 L 155.5625 94.78125 Z M 146.371094 99.023438 "/>
<path style=" stroke:none;fill-rule:evenodd;fill:rgb(100%,100%,100%);fill-opacity:1;" d="M 86.265625 127.304688 L 97.578125 103.265625 L 118.792969 121.648438 L 105.359375 119.53125 L 105.359375 128.71875 L 98.992188 123.773438 Z M 86.265625 127.304688 "/>
</g>
</svg>
