
<svg xmlns="http://www.w3.org/2000/svg" xmlns:xlink="http://www.w3.org/1999/xlink" width="256px" height="256px" viewBox="0 0 256 256" version="1.1">
<g id="surface1">
<path style="fill-rule:evenodd;fill:rgb(100%,100%,100%);fill-opacity:1;stroke-width:15.456508;stroke-linecap:butt;stroke-linejoin:miter;stroke:rgb(72.941176%,33.333333%,82.745098%);stroke-opacity:1;stroke-miterlimit:4;" d="M 38.125 12.695312 L 217.875 12.695312 C 231.921875 12.695312 243.304688 24.078125 243.304688 38.125 L 243.304688 217.875 C 243.304688 231.921875 231.921875 243.304688 217.875 243.304688 L 38.125 243.304688 C 24.078125 243.304688 12.695312 231.921875 12.695312 217.875 L 12.695312 38.125 C 12.695312 24.078125 24.078125 12.695312 38.125 12.695312 Z M 38.125 12.695312 "/>
<path style=" stroke:none;fill-rule:nonzero;fill:rgb(72.941176%,33.333333%,82.745098%);fill-opacity:1;" d="M 111.070312 211.890625 C 84.496094 206.285156 62.976562 189.953125 51.171875 166.425781 C 41.203125 146.5625 39.304688 122.484375 46.058594 101.59375 C 61.535156 53.71875 115.941406 29.386719 162.027344 49.726562 C 179.898438 57.609375 196.140625 73.367188 204.605469 91.03125 C 213.90625 110.445312 215.453125 134.296875 208.71875 154.625 C 198.835938 184.476562 173.75 206.207031 142.28125 212.175781 C 134.1875 213.710938 119.054688 213.570312 111.070312 211.890625 Z M 150.992188 195.375 C 154.835938 194.382812 160.894531 192.15625 164.445312 190.429688 C 171.441406 187.027344 181.695312 179.8125 181.695312 178.289062 C 181.695312 177.636719 180.664062 177.34375 178.34375 177.335938 C 166.515625 177.289062 146.46875 172.53125 131.664062 166.25 C 106.488281 155.570312 88.539062 140.238281 79.617188 121.792969 C 76.0625 114.4375 75.054688 109.667969 75.425781 101.898438 C 75.828125 93.492188 78.484375 88.078125 85.804688 80.734375 C 94.703125 71.8125 105.765625 67.484375 123.550781 65.960938 C 141.6875 64.414062 160.867188 67.828125 182.925781 76.53125 C 184.960938 77.332031 186.625 77.722656 186.625 77.398438 C 186.625 76.339844 177.929688 68.464844 173.320312 65.351562 C 151.878906 50.867188 124.28125 48.945312 101.011719 60.328125 C 80.554688 70.328125 66.445312 88.582031 61.75 111.109375 C 59.75 120.71875 60.265625 135.554688 62.917969 144.582031 C 66.769531 157.703125 72.765625 167.773438 82.375 177.265625 C 93.5 188.257812 107.039062 194.640625 124.96875 197.347656 C 130.476562 198.179688 144.144531 197.144531 150.992188 195.375 Z M 196.875 158 C 197.828125 157.050781 198.601562 155.625 198.601562 154.832031 C 198.601562 153.53125 198.167969 153.390625 194.117188 153.390625 C 176.300781 153.390625 153.835938 143.6875 142.171875 130.953125 C 136.136719 124.371094 133.488281 118.628906 133.1875 111.480469 C 132.964844 106.214844 133.109375 105.515625 135.308594 101.25 C 137.257812 97.46875 138.445312 96.148438 142.105469 93.6875 C 148.121094 89.648438 154.28125 87.816406 163.375 87.363281 C 172.1875 86.921875 181.097656 88.277344 190.390625 91.464844 C 196.464844 93.550781 197.832031 93.6875 196.859375 92.113281 C 196.035156 90.78125 184.339844 85.246094 176.800781 82.625 C 164.59375 78.375 156.835938 77.046875 144.347656 77.0625 C 135.503906 77.074219 132.398438 77.355469 128.03125 78.546875 C 120.796875 80.515625 115.96875 83.070312 111.535156 87.257812 C 96.769531 101.226562 105.085938 124.546875 131.152344 142.25 C 141.03125 148.957031 157.289062 155.539062 169.714844 157.859375 C 178.742188 159.539062 178.65625 159.53125 187.1875 159.636719 C 194.757812 159.726562 195.226562 159.648438 196.875 158 Z M 202.65625 140.832031 C 206.449219 138.421875 205.054688 107.761719 200.941406 103.21875 C 200.324219 102.539062 197.40625 101.050781 194.453125 99.914062 C 175.828125 92.742188 158 94.820312 152.976562 104.753906 C 151.117188 108.429688 150.992188 111.105469 152.472656 115.390625 C 157.070312 128.6875 178.578125 140.960938 197.898438 141.320312 C 200.03125 141.359375 202.171875 141.140625 202.65625 140.832031 Z M 202.65625 140.832031 "/>
</g>
</svg>
