
<svg xmlns="http://www.w3.org/2000/svg" xmlns:xlink="http://www.w3.org/1999/xlink" width="256px" height="256px" viewBox="0 0 256 256" version="1.1">
<g id="surface1">
<path style="fill-rule:nonzero;fill:rgb(92.54902%,92.54902%,92.54902%);fill-opacity:1;stroke-width:26.921061;stroke-linecap:butt;stroke-linejoin:miter;stroke:rgb(66.27451%,66.27451%,66.27451%);stroke-opacity:1;stroke-miterlimit:4;" d="M 83.289725 -432.765625 L 410.266314 -432.765625 C 439.437829 -432.765625 463.083296 -408.195312 463.083296 -377.882812 L 463.083296 -38.117188 C 463.083296 -7.804688 439.437829 16.765625 410.266314 16.765625 L 83.289725 16.765625 C 54.11821 16.765625 30.472743 -7.804688 30.472743 -38.117188 L 30.472743 -377.882812 C 30.472743 -408.195312 54.11821 -432.765625 83.289725 -432.765625 Z M 83.289725 -432.765625 " transform="matrix(0.519556,0,0,0.5,-0.215124,232)"/>
<path style=" stroke:none;fill-rule:nonzero;fill:rgb(30.196078%,30.196078%,30.196078%);fill-opacity:1;" d="M 43.53125 53.6875 L 204.015625 53.6875 C 211.515625 53.6875 217.59375 59.765625 217.59375 67.265625 L 217.59375 184.25 C 217.59375 191.75 211.515625 197.828125 204.015625 197.828125 L 43.53125 197.828125 C 36.03125 197.828125 29.953125 191.75 29.953125 184.25 L 29.953125 67.265625 C 29.953125 59.765625 36.03125 53.6875 43.53125 53.6875 Z M 43.53125 53.6875 "/>
<path style=" stroke:none;fill-rule:nonzero;fill:rgb(90.196078%,90.196078%,90.196078%);fill-opacity:1;" d="M 67.039062 62.78125 L 196.734375 62.78125 C 202.796875 62.78125 207.707031 68.089844 207.707031 74.640625 L 207.707031 176.875 C 207.707031 183.425781 202.796875 188.738281 196.734375 188.738281 L 67.039062 188.738281 C 60.984375 188.738281 56.070312 183.425781 56.070312 176.875 L 56.070312 74.640625 C 56.070312 68.089844 60.984375 62.78125 67.039062 62.78125 Z M 67.039062 62.78125 "/>
<path style=" stroke:none;fill-rule:nonzero;fill:rgb(100%,100%,100%);fill-opacity:1;" d="M 48.148438 125.757812 C 48.148438 129.503906 45.109375 132.539062 41.367188 132.539062 C 37.621094 132.539062 34.585938 129.503906 34.585938 125.757812 C 34.585938 122.011719 37.621094 118.976562 41.367188 118.976562 C 45.109375 118.976562 48.148438 122.011719 48.148438 125.757812 Z M 48.148438 125.757812 "/>
<path style=" stroke:none;fill-rule:nonzero;fill:rgb(20%,20%,20%);fill-opacity:1;" d="M 224.96875 92.253906 C 223.703125 90.988281 220.523438 92.179688 217.761719 94.9375 L 204.082031 108.648438 L 170.085938 142.644531 L 120.277344 192.457031 L 113.179688 211.515625 L 132.234375 204.421875 L 182.046875 154.609375 L 206.648438 130.003906 L 216.039062 120.613281 L 229.757812 106.933594 C 232.523438 104.164062 233.710938 100.988281 232.445312 99.726562 L 224.96875 92.246094 Z M 224.96875 92.253906 "/>
</g>
</svg>
