
<svg xmlns="http://www.w3.org/2000/svg" xmlns:xlink="http://www.w3.org/1999/xlink" width="256px" height="256px" viewBox="0 0 256 256" version="1.1">
<g id="surface1">
<path style="fill-rule:nonzero;fill:rgb(72.941176%,9.019608%,30.588235%);fill-opacity:1;stroke-width:27.878233;stroke-linecap:butt;stroke-linejoin:miter;stroke:rgb(79.215686%,35.686275%,50.588235%);stroke-opacity:1;stroke-miterlimit:4;" d="M 83.421875 27.664062 L 428.578125 27.664062 C 459.375 27.664062 484.335938 52.625 484.335938 83.421875 L 484.335938 428.578125 C 484.335938 459.375 459.375 484.335938 428.578125 484.335938 L 83.421875 484.335938 C 52.625 484.335938 27.664062 459.375 27.664062 428.578125 L 27.664062 83.421875 C 27.664062 52.625 52.625 27.664062 83.421875 27.664062 Z M 83.421875 27.664062 " transform="matrix(0.5,0,0,0.5,0,0)"/>
<path style=" stroke:none;fill-rule:evenodd;fill:rgb(100%,100%,100%);fill-opacity:1;" d="M 168.734375 68.644531 C 164.167969 72.953125 153.613281 82.015625 153.613281 82.015625 L 178.347656 106.929688 C 178.347656 106.929688 189.054688 95.929688 193.890625 91.367188 C 195.09375 90.230469 194.9375 87.6875 193.734375 86.554688 C 189.984375 83.015625 183.765625 77.265625 183.765625 77.265625 C 183.765625 77.265625 177.90625 71.699219 174.304688 68.296875 C 172.988281 67.054688 170.046875 67.402344 168.734375 68.644531 Z M 142.742188 90.914062 L 76.632812 153.195312 L 77.203125 177.828125 L 103.007812 177.679688 L 168.398438 115.972656 Z M 142.742188 90.914062 "/>
</g>
</svg>
