
<svg xmlns="http://www.w3.org/2000/svg" xmlns:xlink="http://www.w3.org/1999/xlink" width="256px" height="256px" viewBox="0 0 256 256" version="1.1">
<g id="surface1">
<path style="fill-rule:nonzero;fill:rgb(100%,100%,100%);fill-opacity:1;stroke-width:62.625244;stroke-linecap:butt;stroke-linejoin:miter;stroke:rgb(63.921569%,12.156863%,12.156863%);stroke-opacity:1;stroke-miterlimit:4;" d="M 130.291409 -2.007913 L 905.658492 -2.007913 C 974.830099 -2.007913 1030.907131 54.06912 1030.907131 123.240726 L 1030.907131 898.607809 C 1030.907131 967.779416 974.830099 1023.856448 905.658492 1023.856448 L 130.291409 1023.856448 C 61.119802 1023.856448 5.04277 967.779416 5.04277 898.607809 L 5.04277 123.240726 C 5.04277 54.06912 61.119802 -2.007913 130.291409 -2.007913 Z M 130.291409 -2.007913 " transform="matrix(0.222838,0,0,0.222838,12.575498,14.146658)"/>
<path style=" stroke:none;fill-rule:nonzero;fill:rgb(83.137255%,10.196078%,10.196078%);fill-opacity:1;" d="M 45.78125 20.695312 C 35.804688 20.78125 28.1875 31.21875 29.625 41.421875 C 29.671875 100.765625 29.523438 160.109375 29.695312 219.449219 C 30.429688 229.492188 39.992188 236.65625 49.253906 235.308594 C 106.320312 235.257812 163.390625 235.414062 220.453125 235.226562 C 230.015625 234.472656 236.753906 224.332031 235.488281 214.582031 C 235.488281 178.199219 235.488281 141.820312 235.488281 105.4375 C 231.625 96.359375 222.351562 90.84375 216.347656 83.203125 C 196.707031 62.800781 177.226562 42.210938 157.460938 21.953125 C 151.953125 19.460938 145.59375 21.226562 139.703125 20.695312 C 108.394531 20.695312 77.085938 20.695312 45.78125 20.695312 Z M 179.90625 20.695312 C 176.117188 21.003906 175.9375 26.53125 179.046875 28.136719 C 196.195312 45.875 213.101562 63.929688 230.40625 81.464844 C 233.753906 83.351562 236.492188 79.09375 235.488281 75.851562 C 235.257812 62.179688 235.957031 48.4375 235.113281 34.820312 C 233.601562 25.234375 224.054688 19.378906 215.257812 20.695312 C 203.476562 20.695312 191.691406 20.695312 179.90625 20.695312 Z M 179.90625 20.695312 "/>
<path style=" stroke:none;fill-rule:nonzero;fill:rgb(63.921569%,12.156863%,12.156863%);fill-opacity:1;" d="M 18.40625 15.882812 L 59.53125 15.882812 L 59.53125 237.484375 L 18.40625 237.484375 Z M 18.40625 15.882812 "/>
<path style=" stroke:none;fill-rule:nonzero;fill:rgb(100%,100%,100%);fill-opacity:1;" d="M 92.355469 96.847656 L 92.355469 102.246094 L 100.042969 103.050781 L 102.339844 104.941406 L 102.339844 179.269531 L 100.042969 181.160156 L 92.355469 181.832031 L 92.355469 187.363281 L 127.964844 187.363281 C 150.902344 187.363281 163.175781 177.917969 163.175781 160.925781 C 163.175781 147.707031 154.136719 139.472656 138.082031 139.339844 C 151.035156 135.832031 157.644531 128.949219 157.644531 118.699219 C 157.644531 103.863281 147.394531 96.847656 126.753906 96.847656 Z M 114.480469 137.855469 L 114.480469 103.183594 C 117.847656 103.050781 120.410156 102.785156 122.167969 102.785156 C 137.003906 102.785156 144.292969 108.316406 144.292969 119.238281 C 144.292969 132.324219 136.464844 137.988281 119.605469 137.988281 C 117.988281 137.988281 116.230469 137.988281 114.480469 137.855469 Z M 114.480469 180.621094 L 114.480469 144.597656 C 119.738281 144.058594 124.191406 143.792969 127.699219 143.792969 C 142.667969 143.792969 149.957031 149.589844 149.957031 161.871094 C 149.957031 175.496094 141.589844 181.019531 123.511719 181.019531 C 120.683594 181.019531 117.714844 180.886719 114.480469 180.621094 Z M 114.480469 180.621094 "/>
</g>
</svg>
