<!-- color: #eeeeee -->
<svg xmlns="http://www.w3.org/2000/svg" xmlns:xlink="http://www.w3.org/1999/xlink" width="256px" height="256px" viewBox="0 0 256 256" version="1.1">
<defs>
<clipPath id="clip1">
  <path d="M 17.5 75 L 108 75 L 108 173.5 L 17.5 173.5 Z M 17.5 75 "/>
</clipPath>
<clipPath id="clip2">
  <path d="M 320.398438 128.019531 C 320.398438 234.820312 233.796875 321.324219 127.09375 321.324219 C 20.386719 321.324219 -66.210938 234.820312 -66.210938 128.019531 C -66.210938 21.21875 20.386719 -65.285156 127.09375 -65.285156 C 233.796875 -65.285156 320.398438 21.21875 320.398438 128.019531 Z M 320.398438 128.019531 "/>
</clipPath>
<clipPath id="clip3">
  <path d="M 76 89 L 169.5 89 L 169.5 195.5 L 76 195.5 Z M 76 89 "/>
</clipPath>
<clipPath id="clip4">
  <path d="M 320.398438 128.019531 C 320.398438 234.820312 233.796875 321.324219 127.09375 321.324219 C 20.386719 321.324219 -66.210938 234.820312 -66.210938 128.019531 C -66.210938 21.21875 20.386719 -65.285156 127.09375 -65.285156 C 233.796875 -65.285156 320.398438 21.21875 320.398438 128.019531 Z M 320.398438 128.019531 "/>
</clipPath>
<clipPath id="clip5">
  <path d="M 137 60.5 L 236.5 60.5 L 236.5 165.5 L 137 165.5 Z M 137 60.5 "/>
</clipPath>
<clipPath id="clip6">
  <path d="M 320.398438 128.019531 C 320.398438 234.820312 233.796875 321.324219 127.09375 321.324219 C 20.386719 321.324219 -66.210938 234.820312 -66.210938 128.019531 C -66.210938 21.21875 20.386719 -65.285156 127.09375 -65.285156 C 233.796875 -65.285156 320.398438 21.21875 320.398438 128.019531 Z M 320.398438 128.019531 "/>
</clipPath>
</defs>
<g id="surface1">
<path style="fill-rule:nonzero;fill:rgb(100%,100%,100%);fill-opacity:1;stroke-width:7.222011;stroke-linecap:butt;stroke-linejoin:miter;stroke:rgb(0%,80%,100%);stroke-opacity:1;stroke-miterlimit:4;" d="M 19.291016 4.849609 L 108.708984 4.849609 C 116.683594 4.849609 123.150391 11.316406 123.150391 19.291016 L 123.150391 108.708984 C 123.150391 116.683594 116.683594 123.150391 108.708984 123.150391 L 19.291016 123.150391 C 11.316406 123.150391 4.849609 116.683594 4.849609 108.708984 L 4.849609 19.291016 C 4.849609 11.316406 11.316406 4.849609 19.291016 4.849609 Z M 19.291016 4.849609 " transform="matrix(2,0,0,2,0,0)"/>
<g clip-path="url(#clip1)" clip-rule="nonzero">
<g clip-path="url(#clip2)" clip-rule="nonzero">
<path style=" stroke:none;fill-rule:evenodd;fill:rgb(23.921569%,61.176471%,100%);fill-opacity:1;" d="M 52.375 173.261719 L 17.875 89.90625 L 45.652344 76.3125 L 46.339844 75.398438 L 68.730469 132.0625 L 95.617188 117.78125 L 107.703125 144.703125 M 52.382812 173.261719 "/>
</g>
</g>
<g clip-path="url(#clip3)" clip-rule="nonzero">
<g clip-path="url(#clip4)" clip-rule="nonzero">
<path style=" stroke:none;fill-rule:evenodd;fill:rgb(97.647059%,75.686275%,23.529412%);fill-opacity:1;" d="M 76.304688 89.214844 L 111.039062 94.109375 L 121.351562 116.597656 L 134.320312 97.15625 L 169.28125 101.820312 L 137.234375 149.59375 L 129.386719 195.265625 L 96.921875 189.875 L 102.5 148.90625 M 76.304688 89.214844 "/>
</g>
</g>
<g clip-path="url(#clip5)" clip-rule="nonzero">
<g clip-path="url(#clip6)" clip-rule="nonzero">
<path style=" stroke:none;fill-rule:evenodd;fill:rgb(87.058824%,32.54902%,15.686275%);fill-opacity:1;" d="M 152.894531 60.78125 L 183.226562 66.859375 L 189.757812 87.375 L 203.085938 71.546875 L 236.34375 78.867188 L 206.5625 113.570312 L 223.375 165.242188 L 187.585938 161.59375 L 181.21875 133.558594 L 165.03125 156.601562 L 137.160156 147.578125 L 165.132812 106.277344 M 152.785156 60.773438 "/>
</g>
</g>
</g>
</svg>
