
<svg xmlns="http://www.w3.org/2000/svg" xmlns:xlink="http://www.w3.org/1999/xlink" width="256px" height="256px" viewBox="0 0 256 256" version="1.1">
<g id="surface1">
<path style="fill-rule:nonzero;fill:rgb(30.196078%,30.196078%,30.196078%);fill-opacity:1;stroke-width:33.073723;stroke-linecap:butt;stroke-linejoin:miter;stroke:rgb(0%,43.137255%,87.058824%);stroke-opacity:1;stroke-miterlimit:4;" d="M 939.251831 21.104622 L 1348.739906 21.104622 C 1385.269462 21.104622 1414.886783 50.721943 1414.886783 87.251499 L 1414.886783 496.739574 C 1414.886783 533.269129 1385.269462 562.88645 1348.739906 562.88645 L 939.251831 562.88645 C 902.722276 562.88645 873.104955 533.269129 873.104955 496.739574 L 873.104955 87.251499 C 873.104955 50.721943 902.722276 21.104622 939.251831 21.104622 Z M 939.251831 21.104622 " transform="matrix(0.426667,0,0,0.426667,-360.106667,3.413333)"/>
<path style=" stroke:none;fill-rule:nonzero;fill:rgb(0%,43.137255%,87.058824%);fill-opacity:1;" d="M 69.253906 52.65625 L 228.21875 52.65625 C 236.140625 52.65625 242.566406 59.078125 242.566406 67 L 242.566406 188.554688 C 242.566406 196.476562 236.140625 202.898438 228.21875 202.898438 L 69.253906 202.898438 C 61.332031 202.898438 54.910156 196.476562 54.910156 188.554688 L 54.910156 67 C 54.910156 59.078125 61.332031 52.65625 69.253906 52.65625 Z M 69.253906 52.65625 "/>
<path style=" stroke:none;fill-rule:evenodd;fill:rgb(100%,100%,100%);fill-opacity:1;" d="M 80.449219 101.25 L 135.832031 101.25 C 138.757812 101.25 141.128906 103.621094 141.128906 106.546875 C 141.128906 109.472656 138.757812 111.84375 135.832031 111.84375 L 80.449219 111.84375 C 77.523438 111.84375 75.152344 109.472656 75.152344 106.546875 C 75.152344 103.621094 77.523438 101.25 80.449219 101.25 Z M 80.449219 101.25 "/>
<path style=" stroke:none;fill-rule:evenodd;fill:rgb(100%,100%,100%);fill-opacity:1;" d="M 80.398438 119.648438 L 135.78125 119.648438 C 138.710938 119.648438 141.078125 122.015625 141.078125 124.945312 C 141.078125 127.867188 138.710938 130.242188 135.78125 130.242188 L 80.398438 130.242188 C 77.476562 130.242188 75.101562 127.867188 75.101562 124.945312 C 75.101562 122.015625 77.476562 119.648438 80.398438 119.648438 Z M 80.398438 119.648438 "/>
<path style=" stroke:none;fill-rule:evenodd;fill:rgb(100%,100%,100%);fill-opacity:1;" d="M 80.398438 138.234375 L 135.78125 138.234375 C 138.710938 138.234375 141.078125 140.609375 141.078125 143.53125 C 141.078125 146.460938 138.710938 148.828125 135.78125 148.828125 L 80.398438 148.828125 C 77.476562 148.828125 75.101562 146.460938 75.101562 143.53125 C 75.101562 140.609375 77.476562 138.234375 80.398438 138.234375 Z M 80.398438 138.234375 "/>
</g>
</svg>
