
<svg xmlns="http://www.w3.org/2000/svg" xmlns:xlink="http://www.w3.org/1999/xlink" width="256px" height="256px" viewBox="0 0 256 256" version="1.1">
<g id="surface1">
<path style="fill-rule:nonzero;fill:rgb(92.54902%,92.54902%,92.54902%);fill-opacity:1;stroke-width:27.442497;stroke-linecap:butt;stroke-linejoin:miter;stroke:rgb(59.215686%,85.490196%,32.941176%);stroke-opacity:1;stroke-miterlimit:4;" d="M 86.621951 31.733724 L 426.385713 31.733724 C 456.694786 31.733724 481.266113 56.305051 481.266113 86.621951 L 481.266113 426.385713 C 481.266113 456.694786 456.694786 481.266113 426.385713 481.266113 L 86.621951 481.266113 C 56.305051 481.266113 31.733724 456.694786 31.733724 426.385713 L 31.733724 86.621951 C 31.733724 56.305051 56.305051 31.733724 86.621951 31.733724 Z M 86.621951 31.733724 " transform="matrix(0.499026,0,0,0.499026,0,0)"/>
<path style=" stroke:none;fill-rule:nonzero;fill:rgb(100%,100%,100%);fill-opacity:1;" d="M 217.835938 128.746094 C 217.835938 178.3125 177.65625 218.492188 128.09375 218.492188 C 78.53125 218.492188 38.351562 178.3125 38.351562 128.746094 C 38.351562 79.183594 78.53125 39.003906 128.09375 39.003906 C 177.65625 39.003906 217.835938 79.183594 217.835938 128.746094 Z M 217.835938 128.746094 "/>
<path style=" stroke:none;fill-rule:nonzero;fill:rgb(59.215686%,85.490196%,32.941176%);fill-opacity:1;" d="M 119.605469 222.695312 C 106.421875 221.535156 91.957031 216.84375 80.355469 209.957031 C 54.898438 194.847656 38.453125 169.804688 34.578125 140.242188 C 33.265625 130.25 33.929688 117 36.230469 107.273438 C 38.65625 97.007812 43.734375 85.039062 49.128906 76.855469 C 64.988281 52.804688 90.460938 37.359375 119.15625 34.394531 C 125.5625 33.734375 137.433594 34.132812 143.816406 35.226562 C 179.03125 41.25 207.207031 65.503906 218.375 99.410156 C 221.390625 108.570312 222.792969 117.828125 222.792969 128.585938 C 222.792969 140.039062 221.203125 149.515625 217.476562 160.246094 C 214.429688 169.03125 207.835938 180.828125 201.980469 187.976562 C 181.789062 212.625 151.296875 225.476562 119.605469 222.695312 Z M 139.898438 186.734375 C 145.816406 185.53125 149.617188 184.222656 155.023438 181.53125 C 164.851562 176.632812 173.34375 168.796875 179.210938 159.210938 C 185.582031 148.8125 188.6875 135.398438 187.5 123.414062 C 186.019531 108.449219 180.042969 95.988281 169.453125 85.789062 C 161.085938 77.726562 151.015625 72.457031 139.585938 70.152344 C 134.421875 69.109375 122.015625 69.113281 117.125 70.15625 C 105 72.742188 94.867188 78.167969 86.492188 86.5625 C 76.320312 96.765625 70.382812 109.503906 69.21875 123.621094 L 68.90625 127.34375 L 63.742188 127.554688 C 59.089844 127.738281 58.554688 127.835938 58.421875 128.539062 C 58.222656 129.585938 75.128906 146.589844 76.367188 146.589844 C 77.433594 146.589844 94.949219 129.109375 94.683594 128.3125 C 94.546875 127.890625 93.078125 127.730469 88.636719 127.644531 L 82.773438 127.53125 L 82.773438 126.164062 C 82.773438 121.804688 85.1875 112.742188 87.636719 107.894531 C 92.203125 98.867188 101.300781 90.351562 110.457031 86.539062 C 116.625 83.96875 120.78125 83.15625 127.882812 83.109375 C 134.65625 83.070312 136.917969 83.394531 142.578125 85.21875 C 149.566406 87.46875 155.140625 90.945312 160.585938 96.457031 C 169.605469 105.582031 173.820312 115.8125 173.820312 128.578125 C 173.820312 136.578125 172.351562 142.71875 168.789062 149.570312 C 164.1875 158.417969 157.167969 165.203125 148.140625 169.523438 C 130.625 177.910156 110.617188 174.65625 96.46875 161.125 C 95.015625 159.734375 93.671875 158.59375 93.492188 158.59375 C 93.3125 158.59375 91.101562 160.402344 88.585938 162.617188 C 85.726562 165.132812 84.015625 166.9375 84.015625 167.441406 C 84.015625 169.199219 93.09375 176.804688 99.53125 180.433594 C 105.492188 183.792969 114.289062 186.679688 121.195312 187.53125 C 126.015625 188.132812 134.890625 187.75 139.898438 186.734375 Z M 139.898438 186.734375 "/>
</g>
</svg>
