
<svg xmlns="http://www.w3.org/2000/svg" xmlns:xlink="http://www.w3.org/1999/xlink" width="256px" height="256px" viewBox="0 0 256 256" version="1.1">
<g id="surface1">
<path style=" stroke:none;fill-rule:evenodd;fill:rgb(80.392157%,61.176471%,42.745098%);fill-opacity:1;" d="M 40.164062 18.566406 L 216.59375 18.566406 C 230.460938 18.566406 241.703125 29.804688 241.703125 43.671875 L 241.703125 217.0625 C 241.703125 230.929688 230.460938 242.171875 216.59375 242.171875 L 40.164062 242.171875 C 26.296875 242.171875 15.054688 230.929688 15.054688 217.0625 L 15.054688 43.671875 C 15.054688 29.804688 26.296875 18.566406 40.164062 18.566406 Z M 40.164062 18.566406 "/>
<path style=" stroke:none;fill-rule:evenodd;fill:rgb(89.019608%,76.862745%,66.27451%);fill-opacity:1;" d="M 107.9375 220.957031 L 144.445312 220.957031 C 145.035156 220.957031 145.511719 221.433594 145.511719 222.023438 L 145.511719 241.082031 C 145.511719 241.671875 145.035156 242.148438 144.445312 242.148438 L 107.9375 242.148438 C 107.347656 242.148438 106.871094 241.671875 106.871094 241.082031 L 106.871094 222.023438 C 106.871094 221.433594 107.347656 220.957031 107.9375 220.957031 Z M 107.9375 220.957031 "/>
<path style=" stroke:none;fill-rule:evenodd;fill:rgb(89.019608%,76.862745%,66.27451%);fill-opacity:1;" d="M 108.375 18.5625 L 144.882812 18.5625 C 145.46875 18.5625 145.945312 19.039062 145.945312 19.625 L 145.945312 38.6875 C 145.945312 39.273438 145.46875 39.75 144.882812 39.75 L 108.375 39.75 C 107.785156 39.75 107.308594 39.273438 107.308594 38.6875 L 107.308594 19.625 C 107.308594 19.039062 107.785156 18.5625 108.375 18.5625 Z M 108.375 18.5625 "/>
<path style=" stroke:none;fill-rule:nonzero;fill:rgb(100%,100%,100%);fill-opacity:1;" d="M 113.976562 177.171875 C 102.445312 174.148438 94.078125 166.75 90.492188 156.410156 L 89.304688 152.996094 L 89.03125 132.179688 C 88.730469 109.535156 88.722656 109.460938 86.476562 107.695312 C 85.570312 106.980469 84.878906 106.84375 82.207031 106.835938 C 80.453125 106.835938 78.09375 106.726562 76.957031 106.585938 L 74.894531 106.339844 L 74.894531 87.898438 L 112.113281 88.078125 C 152.710938 88.273438 151.40625 88.203125 157.472656 90.578125 C 165.117188 93.574219 171.8125 99.824219 175.070312 107.003906 C 177.5625 112.503906 177.511719 111.8125 177.703125 142.445312 C 177.859375 167.796875 177.8125 170.5 177.226562 171.632812 C 176.132812 173.75 173.773438 176.054688 171.71875 177.015625 L 169.753906 177.929688 L 143.242188 177.914062 C 118.800781 177.898438 116.511719 177.835938 113.976562 177.171875 Z M 152.328125 165 C 160.765625 164.109375 167.277344 157.601562 168.429688 148.90625 C 168.710938 146.765625 168.804688 140.929688 168.683594 132.40625 C 168.460938 116.5625 168.390625 116.242188 164.097656 111.910156 C 160.90625 108.6875 158.429688 107.625 154.089844 107.625 C 150.664062 107.625 148.21875 108.304688 145.640625 109.957031 L 143.734375 111.179688 L 140.5 109.5 C 137.289062 107.835938 137.25 107.824219 133.085938 107.824219 C 129.484375 107.824219 128.640625 107.953125 127.019531 108.75 C 124.226562 110.125 121.414062 113.078125 119.953125 116.164062 L 118.691406 118.820312 L 118.578125 130.898438 L 118.460938 142.976562 L 127.53125 142.976562 L 127.53125 131.882812 C 127.53125 121.503906 127.582031 120.703125 128.3125 119.507812 C 130.085938 116.601562 134.179688 115.699219 136.546875 117.691406 C 138.882812 119.65625 138.921875 119.890625 138.921875 131.960938 L 138.921875 142.976562 L 147.875 142.976562 L 148.015625 131.617188 C 148.144531 120.792969 148.1875 120.203125 148.976562 119.148438 C 151.515625 115.742188 156.210938 115.726562 158.625 119.109375 C 159.539062 120.390625 159.542969 120.453125 159.664062 134.4375 L 159.78125 148.484375 L 158.703125 150.476562 C 157.484375 152.710938 155.601562 154.359375 152.796875 155.65625 C 150.917969 156.523438 150.75 156.53125 133.335938 156.457031 C 113.828125 156.375 114.453125 156.453125 111.601562 153.683594 C 110.804688 152.90625 109.730469 151.375 109.21875 150.277344 L 108.289062 148.28125 L 108.28125 99.886719 L 105.277344 99.632812 C 103.625 99.492188 101.679688 99.378906 100.957031 99.378906 L 99.640625 99.378906 L 99.667969 120.296875 C 99.683594 131.796875 99.828125 143.773438 99.984375 146.90625 C 100.261719 152.328125 100.335938 152.71875 101.570312 155.03125 C 103.058594 157.820312 106.464844 161.425781 109.054688 162.945312 C 112.835938 165.164062 114.386719 165.320312 132.4375 165.335938 C 141.515625 165.347656 150.460938 165.195312 152.328125 165 Z M 152.328125 165 "/>
<path style="fill-rule:nonzero;fill:rgb(58.823529%,85.098039%,32.54902%);fill-opacity:1;stroke-width:0.3;stroke-linecap:butt;stroke-linejoin:miter;stroke:rgb(58.823529%,85.098039%,32.54902%);stroke-opacity:1;stroke-miterlimit:4;" d="M 60.523438 82.576172 C 57.298828 82.503906 56.40625 82.363281 55.132812 81.736328 C 54.208984 81.279297 53.638672 80.853516 52.726562 79.939453 C 51.556641 78.769531 50.605469 77.339844 50.328125 76.34375 C 50.005859 75.189453 49.945312 72.919922 49.898438 60.564453 L 49.859375 49.699219 L 50.058594 49.699219 C 50.373047 49.699219 53.330078 49.896484 53.726562 49.943359 L 54.082031 49.986328 L 54.082031 74.087891 L 54.392578 74.757812 C 54.5625 75.126953 54.865234 75.673828 55.066406 75.974609 C 55.492188 76.617188 56.378906 77.488281 56.845703 77.726562 C 57.75 78.183594 59.470703 78.257812 68.488281 78.226562 C 76.189453 78.201172 75.664062 78.232422 76.675781 77.726562 C 78.095703 77.011719 78.894531 76.207031 79.708984 74.662109 L 79.935547 74.232422 L 79.853516 67.611328 C 79.808594 63.806641 79.742188 60.789062 79.703125 60.519531 C 79.611328 59.914062 79.443359 59.591797 78.970703 59.121094 C 77.830078 57.982422 76.107422 57.976562 74.886719 59.105469 C 74.414062 59.544922 74.255859 59.820312 74.152344 60.390625 C 74.068359 60.863281 73.949219 65.560547 73.947266 68.587891 C 73.945312 69.710938 73.925781 70.816406 73.902344 71.044922 L 73.857422 71.460938 L 69.480469 71.460938 L 69.449219 66.191406 C 69.417969 60.710938 69.40625 60.453125 69.121094 59.791016 C 68.949219 59.390625 68.279297 58.742188 67.804688 58.513672 C 67.359375 58.300781 66.464844 58.246094 65.931641 58.402344 C 65.144531 58.632812 64.3125 59.287109 64.044922 59.892578 C 63.798828 60.451172 63.769531 61.013672 63.728516 66.292969 L 63.689453 71.460938 L 59.230469 71.460938 L 59.263672 71.039062 C 59.283203 70.804688 59.316406 68.097656 59.335938 65.021484 L 59.375 59.427734 L 59.871094 58.412109 C 60.615234 56.890625 61.519531 55.763672 62.623047 54.976562 C 63.107422 54.630859 63.861328 54.234375 64.285156 54.103516 C 64.648438 53.990234 67.871094 53.931641 68.419922 54.029297 C 68.708984 54.080078 69.265625 54.320312 70.328125 54.849609 C 71.152344 55.259766 71.851562 55.597656 71.880859 55.597656 C 71.910156 55.597656 72.220703 55.412109 72.572266 55.183594 C 73.861328 54.349609 74.773438 54.025391 76.240234 53.886719 C 77.691406 53.75 79.005859 53.955078 80.048828 54.478516 C 80.912109 54.914062 82.044922 55.886719 82.892578 56.919922 C 84.162109 58.464844 84.271484 59.355469 84.279297 68.138672 C 84.283203 72.191406 84.261719 73.771484 84.197266 74.271484 C 83.638672 78.623047 80.574219 81.847656 76.455078 82.416016 C 75.130859 82.599609 65.6875 82.695312 60.523438 82.576172 Z M 60.523438 82.576172 " transform="matrix(2,0,0,2,0,0)"/>
</g>
</svg>
