
<svg xmlns="http://www.w3.org/2000/svg" xmlns:xlink="http://www.w3.org/1999/xlink" width="256px" height="256px" viewBox="0 0 256 256" version="1.1">
<g id="surface1">
<path style="fill-rule:nonzero;fill:rgb(81.176471%,9.803922%,12.941176%);fill-opacity:1;stroke-width:28.191782;stroke-linecap:butt;stroke-linejoin:miter;stroke:rgb(95.686275%,38.039216%,40.784314%);stroke-opacity:1;stroke-miterlimit:4;" d="M 81.484375 25.09375 L 430.515625 25.09375 C 461.65625 25.09375 486.90625 50.34375 486.90625 81.484375 L 486.90625 430.515625 C 486.90625 461.65625 461.65625 486.90625 430.515625 486.90625 L 81.484375 486.90625 C 50.34375 486.90625 25.09375 461.65625 25.09375 430.515625 L 25.09375 81.484375 C 25.09375 50.34375 50.34375 25.09375 81.484375 25.09375 Z M 81.484375 25.09375 " transform="matrix(0.5,0,0,0.5,0,0)"/>
<path style=" stroke:none;fill-rule:nonzero;fill:rgb(100%,100%,100%);fill-opacity:1;" d="M 81.359375 57.03125 C 74.871094 57.03125 69.632812 62.246094 69.632812 68.734375 L 69.632812 190.71875 C 69.632812 197.207031 74.871094 202.445312 81.359375 202.445312 L 81.539062 202.445312 C 88.027344 202.445312 93.242188 197.207031 93.242188 190.71875 L 93.242188 68.734375 C 93.242188 62.246094 88.027344 57.03125 81.539062 57.03125 Z M 81.359375 57.03125 "/>
<path style=" stroke:none;fill-rule:nonzero;fill:rgb(100%,100%,100%);fill-opacity:1;" d="M 175.785156 57.03125 C 169.296875 57.03125 164.0625 62.246094 164.0625 68.734375 L 164.0625 190.71875 C 164.0625 197.207031 169.296875 202.445312 175.785156 202.445312 L 175.96875 202.445312 C 182.453125 202.445312 187.671875 197.207031 187.671875 190.71875 L 187.671875 68.734375 C 187.671875 62.246094 182.453125 57.03125 175.96875 57.03125 Z M 175.785156 57.03125 "/>
<path style=" stroke:none;fill-rule:nonzero;fill:rgb(72.54902%,72.54902%,72.54902%);fill-opacity:1;" d="M 128.652344 108.015625 C 122.113281 108.015625 116.851562 113.28125 116.851562 119.820312 L 116.851562 190.640625 C 116.851562 197.179688 122.113281 202.445312 128.652344 202.445312 C 135.191406 202.445312 140.453125 197.179688 140.453125 190.640625 L 140.453125 119.820312 C 140.453125 113.28125 135.191406 108.015625 128.652344 108.015625 Z M 128.652344 108.015625 "/>
</g>
</svg>
