
<svg xmlns="http://www.w3.org/2000/svg" xmlns:xlink="http://www.w3.org/1999/xlink" width="256px" height="256px" viewBox="0 0 256 256" version="1.1">
<g id="surface1">
<path style="fill-rule:nonzero;fill:rgb(17.254902%,24.313725%,31.372549%);fill-opacity:1;stroke-width:2.632158;stroke-linecap:butt;stroke-linejoin:miter;stroke:rgb(10.196078%,73.72549%,61.176471%);stroke-opacity:1;stroke-miterlimit:4;" d="M 7.70581 2.441162 L 40.294188 2.441162 C 43.201903 2.441162 45.558836 4.798828 45.558836 7.70581 L 45.558836 40.294188 C 45.558836 43.201903 43.201903 45.558836 40.294188 45.558836 L 7.70581 45.558836 C 4.798828 45.558836 2.441162 43.201903 2.441162 40.294188 L 2.441162 7.70581 C 2.441162 4.798828 4.798828 2.441162 7.70581 2.441162 Z M 7.70581 2.441162 " transform="matrix(5.333334,0,0,5.333334,0,0)"/>
<path style=" stroke:none;fill-rule:nonzero;fill:rgb(10.196078%,73.72549%,61.176471%);fill-opacity:1;" d="M 200.453125 121.25 C 202.167969 119.550781 215.9375 86.890625 216.078125 84.1875 C 216.238281 80.976562 203.671875 72.21875 188.285156 64.820312 C 153.429688 48.070312 106.640625 47.898438 70.632812 64.398438 C 60.203125 69.179688 41.898438 80.382812 40.335938 82.941406 C 39.875 83.695312 43.085938 92.820312 47.464844 103.226562 L 47.460938 103.234375 C 51.84375 113.644531 55.578125 122.3125 55.765625 122.5 C 55.953125 122.683594 66.230469 119.425781 78.609375 115.257812 L 101.105469 107.675781 L 101.246094 93.375 L 101.382812 79.082031 L 109.039062 77.65625 C 117.664062 76.054688 141.46875 76.117188 149.484375 77.773438 L 154.761719 78.867188 L 154.761719 93.132812 L 154.753906 107.390625 L 177.175781 114.742188 C 189.507812 118.789062 199.984375 121.71875 200.453125 121.25 Z M 200.453125 121.25 "/>
<path style=" stroke:none;fill-rule:evenodd;fill:rgb(10.196078%,73.72549%,61.176471%);fill-opacity:1;" d="M 86.78125 126.363281 L 101.359375 126.363281 C 105.1875 126.363281 108.289062 130.195312 108.289062 134.917969 L 108.289062 139.421875 C 108.289062 144.140625 105.1875 147.972656 101.359375 147.972656 L 86.78125 147.972656 C 82.957031 147.972656 79.855469 144.140625 79.855469 139.421875 L 79.855469 134.917969 C 79.855469 130.195312 82.957031 126.363281 86.78125 126.363281 Z M 86.78125 126.363281 "/>
<path style=" stroke:none;fill-rule:evenodd;fill:rgb(10.196078%,73.72549%,61.176471%);fill-opacity:1;" d="M 119.746094 126.203125 L 134.328125 126.203125 C 138.148438 126.203125 141.25 130.03125 141.25 134.757812 L 141.25 139.257812 C 141.25 143.984375 138.148438 147.8125 134.328125 147.8125 L 119.746094 147.8125 C 115.921875 147.8125 112.820312 143.984375 112.820312 139.257812 L 112.820312 134.757812 C 112.820312 130.03125 115.921875 126.203125 119.746094 126.203125 Z M 119.746094 126.203125 "/>
<path style=" stroke:none;fill-rule:evenodd;fill:rgb(10.196078%,73.72549%,61.176471%);fill-opacity:1;" d="M 152.492188 125.835938 L 167.070312 125.835938 C 170.894531 125.835938 173.996094 129.667969 173.996094 134.390625 L 173.996094 138.890625 C 173.996094 143.617188 170.894531 147.445312 167.070312 147.445312 L 152.492188 147.445312 C 148.664062 147.445312 145.566406 143.617188 145.566406 138.890625 L 145.566406 134.390625 C 145.566406 129.667969 148.664062 125.835938 152.492188 125.835938 Z M 152.492188 125.835938 "/>
<path style=" stroke:none;fill-rule:evenodd;fill:rgb(10.196078%,73.72549%,61.176471%);fill-opacity:1;" d="M 86.960938 153.824219 L 101.539062 153.824219 C 105.367188 153.824219 108.46875 157.65625 108.46875 162.375 L 108.46875 166.878906 C 108.46875 171.601562 105.367188 175.429688 101.539062 175.429688 L 86.960938 175.429688 C 83.136719 175.429688 80.035156 171.601562 80.035156 166.878906 L 80.035156 162.375 C 80.035156 157.65625 83.136719 153.824219 86.960938 153.824219 Z M 86.960938 153.824219 "/>
<path style=" stroke:none;fill-rule:evenodd;fill:rgb(10.196078%,73.72549%,61.176471%);fill-opacity:1;" d="M 119.925781 153.664062 L 134.507812 153.664062 C 138.328125 153.664062 141.429688 157.492188 141.429688 162.21875 L 141.429688 166.71875 C 141.429688 171.445312 138.328125 175.273438 134.507812 175.273438 L 119.925781 175.273438 C 116.101562 175.273438 113 171.445312 113 166.71875 L 113 162.21875 C 113 157.492188 116.101562 153.664062 119.925781 153.664062 Z M 119.925781 153.664062 "/>
<path style=" stroke:none;fill-rule:evenodd;fill:rgb(10.196078%,73.72549%,61.176471%);fill-opacity:1;" d="M 152.671875 153.296875 L 167.25 153.296875 C 171.074219 153.296875 174.175781 157.128906 174.175781 161.851562 L 174.175781 166.351562 C 174.175781 171.078125 171.074219 174.90625 167.25 174.90625 L 152.671875 174.90625 C 148.84375 174.90625 145.746094 171.078125 145.746094 166.351562 L 145.746094 161.851562 C 145.746094 157.128906 148.84375 153.296875 152.671875 153.296875 Z M 152.671875 153.296875 "/>
<path style=" stroke:none;fill-rule:evenodd;fill:rgb(10.196078%,73.72549%,61.176471%);fill-opacity:1;" d="M 86.824219 181.289062 L 101.402344 181.289062 C 105.226562 181.289062 108.328125 185.117188 108.328125 189.84375 L 108.328125 194.34375 C 108.328125 199.070312 105.226562 202.898438 101.402344 202.898438 L 86.824219 202.898438 C 83 202.898438 79.898438 199.070312 79.898438 194.34375 L 79.898438 189.84375 C 79.898438 185.117188 83 181.289062 86.824219 181.289062 Z M 86.824219 181.289062 "/>
<path style=" stroke:none;fill-rule:evenodd;fill:rgb(10.196078%,73.72549%,61.176471%);fill-opacity:1;" d="M 119.789062 181.128906 L 134.367188 181.128906 C 138.195312 181.128906 141.292969 184.960938 141.292969 189.683594 L 141.292969 194.183594 C 141.292969 198.90625 138.195312 202.738281 134.367188 202.738281 L 119.789062 202.738281 C 115.960938 202.738281 112.863281 198.90625 112.863281 194.183594 L 112.863281 189.683594 C 112.863281 184.960938 115.960938 181.128906 119.789062 181.128906 Z M 119.789062 181.128906 "/>
<path style=" stroke:none;fill-rule:evenodd;fill:rgb(10.196078%,73.72549%,61.176471%);fill-opacity:1;" d="M 152.53125 180.765625 L 167.109375 180.765625 C 170.9375 180.765625 174.039062 184.59375 174.039062 189.316406 L 174.039062 193.820312 C 174.039062 198.542969 170.9375 202.371094 167.109375 202.371094 L 152.53125 202.371094 C 148.707031 202.371094 145.609375 198.542969 145.609375 193.820312 L 145.609375 189.316406 C 145.609375 184.59375 148.707031 180.765625 152.53125 180.765625 Z M 152.53125 180.765625 "/>
</g>
</svg>
