
<svg xmlns="http://www.w3.org/2000/svg" xmlns:xlink="http://www.w3.org/1999/xlink" width="256px" height="256px" viewBox="0 0 256 256" version="1.1">
<g id="surface1">
<path style=" stroke:none;fill-rule:evenodd;fill:rgb(23.921569%,45.882353%,20%);fill-opacity:1;" d="M 52.148438 17.046875 L 205.21875 17.046875 C 225.078125 17.046875 241.175781 33.144531 241.175781 53 L 241.175781 204.601562 C 241.175781 224.460938 225.078125 240.554688 205.21875 240.554688 L 52.148438 240.554688 C 32.292969 240.554688 16.195312 224.460938 16.195312 204.601562 L 16.195312 53 C 16.195312 33.144531 32.292969 17.046875 52.148438 17.046875 Z M 52.148438 17.046875 "/>
<path style=" stroke:none;fill-rule:nonzero;fill:rgb(100%,100%,100%);fill-opacity:1;" d="M 122.878906 62.679688 L 122.878906 78.285156 C 115.953125 78.5625 110.039062 79.976562 105.265625 82.457031 C 100.496094 84.9375 96.773438 88.265625 94.085938 92.472656 C 91.394531 96.683594 90.078125 101.039062 90.078125 105.578125 C 90.078125 109.554688 91.179688 113.546875 93.335938 117.429688 C 95.484375 121.3125 98.4375 124.4375 102.179688 126.945312 C 105.921875 129.445312 112.820312 132.421875 122.878906 135.789062 L 122.878906 159.15625 C 120.445312 158.316406 118.175781 157.003906 116.117188 155.320312 C 113.3125 153.074219 110.765625 150.453125 108.523438 147.390625 C 106.277344 144.328125 103.945312 140.121094 101.511719 134.789062 L 88.074219 138.042969 L 95 175.015625 L 102.597656 175.015625 L 106.019531 166.753906 C 111.867188 171.011719 117.5 173.753906 122.878906 175.015625 L 122.878906 193.210938 L 136.398438 193.210938 L 136.398438 176.1875 C 142.902344 175.71875 148.695312 174.054688 153.84375 171.179688 C 158.988281 168.300781 162.882812 164.691406 165.527344 160.410156 C 168.171875 156.132812 169.53125 151.6875 169.53125 147.054688 C 169.53125 142.753906 168.417969 138.621094 166.195312 134.621094 C 163.972656 130.621094 160.726562 127.257812 156.515625 124.523438 C 152.304688 121.785156 145.617188 119.128906 136.398438 116.507812 L 136.398438 96.3125 C 143.882812 100.382812 149.304688 106.84375 152.671875 115.59375 L 165.527344 111.835938 L 157.347656 80.039062 L 149.671875 80.039062 L 147.082031 85.046875 C 144.742188 83.59375 142.871094 82.585938 141.492188 81.957031 C 140.109375 81.328125 138.410156 80.644531 136.398438 80.039062 L 136.398438 62.679688 Z M 122.878906 93.808594 L 122.878906 112.671875 C 118.480469 111.171875 115.441406 109.523438 113.78125 107.746094 C 112.121094 105.96875 111.277344 104.070312 111.277344 102.15625 C 111.277344 99.863281 112.40625 97.949219 114.699219 96.3125 C 116.289062 95.1875 119.042969 94.320312 122.878906 93.808594 Z M 136.398438 139.878906 C 140.515625 141.140625 143.667969 142.929688 145.914062 145.21875 C 147.550781 146.953125 148.335938 149.011719 148.335938 151.398438 C 148.335938 154.109375 147.253906 156.234375 145.078125 157.824219 C 142.90625 159.414062 140.046875 160.445312 136.398438 160.914062 Z M 136.398438 139.878906 "/>
<path style=" stroke:none;fill-rule:evenodd;fill:rgb(99.607843%,46.27451%,0%);fill-opacity:1;" d="M 128.792969 28.644531 L 29.519531 127.917969 L 128.792969 227.195312 L 228.09375 127.917969 Z M 122.84375 62.664062 L 136.394531 62.664062 L 136.394531 80.0625 C 138.40625 80.671875 140.097656 81.292969 141.476562 81.921875 C 142.859375 82.554688 144.71875 83.59375 147.0625 85.042969 L 149.707031 80.0625 L 157.359375 80.0625 L 165.5625 111.851562 L 152.671875 115.574219 C 149.300781 106.828125 143.878906 100.40625 136.394531 96.335938 L 136.394531 116.492188 C 145.609375 119.109375 152.3125 121.773438 156.523438 124.511719 C 160.734375 127.25 163.945312 130.628906 166.164062 134.628906 C 168.390625 138.625 169.492188 142.773438 169.492188 147.078125 C 169.492188 151.707031 168.179688 156.164062 165.539062 160.445312 C 162.894531 164.722656 158.992188 168.3125 153.847656 171.1875 C 148.703125 174.0625 142.898438 175.726562 136.394531 176.195312 L 136.394531 193.175781 L 122.84375 193.175781 L 122.84375 175.015625 C 117.464844 173.75 111.839844 170.992188 105.992188 166.734375 L 102.640625 175.015625 L 94.984375 175.015625 L 88.09375 138.035156 L 101.511719 134.8125 C 103.945312 140.144531 106.289062 144.328125 108.535156 147.390625 C 110.78125 150.453125 113.304688 153.113281 116.109375 155.359375 C 118.167969 157.042969 120.414062 158.316406 122.84375 159.15625 L 122.84375 135.78125 C 112.789062 132.414062 105.882812 129.476562 102.140625 126.976562 C 98.398438 124.472656 95.460938 121.292969 93.308594 117.410156 C 91.15625 113.527344 90.058594 109.59375 90.058594 105.617188 C 90.058594 101.078125 91.40625 96.695312 94.09375 92.484375 C 96.785156 88.273438 100.515625 84.929688 105.285156 82.449219 C 110.054688 79.96875 115.921875 78.585938 122.84375 78.308594 Z M 122.84375 93.820312 C 119.007812 94.335938 116.285156 95.164062 114.695312 96.285156 C 112.402344 97.921875 111.261719 99.890625 111.261719 102.183594 C 111.261719 104.101562 112.089844 105.9375 113.75 107.710938 C 115.414062 109.492188 118.445312 111.140625 122.84375 112.640625 Z M 136.394531 139.84375 L 136.394531 160.914062 C 140.042969 160.445312 142.945312 159.414062 145.121094 157.820312 C 147.296875 156.230469 148.371094 154.085938 148.371094 151.375 C 148.371094 148.988281 147.570312 146.921875 145.933594 145.1875 C 143.6875 142.898438 140.507812 141.105469 136.394531 139.84375 Z M 136.394531 139.84375 "/>
<path style="fill-rule:evenodd;fill:rgb(41.960784%,73.333333%,18.039216%);fill-opacity:1;stroke-width:2.670781;stroke-linecap:round;stroke-linejoin:round;stroke:rgb(0%,0%,0%);stroke-opacity:1;stroke-miterlimit:4;" d="M 66.93346 34.804294 L 114.599641 34.804294 L 114.599641 47.620605 L 66.93346 47.620605 Z M 66.93346 34.804294 " transform="matrix(1.414214,1.414214,-1.414214,1.414214,0,0)"/>
<path style="fill:none;stroke-width:2.670781;stroke-linecap:round;stroke-linejoin:round;stroke:rgb(0%,0%,0%);stroke-opacity:1;stroke-miterlimit:4;" d="M 55.666708 -35.411964 L 125.867775 -35.410583 L 125.867775 34.789103 L 55.666708 34.790484 Z M 55.666708 -35.411964 " transform="matrix(1.414214,1.414214,-1.414214,1.414214,0,0)"/>
<path style="fill-rule:evenodd;fill:rgb(41.960784%,73.333333%,18.039216%);fill-opacity:1;stroke-width:2.670781;stroke-linecap:round;stroke-linejoin:round;stroke:rgb(0%,0%,0%);stroke-opacity:1;stroke-miterlimit:4;" d="M -24.143831 -138.697896 L 23.52235 -138.697896 L 23.52235 -125.881585 L -24.143831 -125.881585 Z M -24.143831 -138.697896 " transform="matrix(-1.414214,1.414214,-1.414214,-1.414214,0,0)"/>
<path style=" stroke:none;fill-rule:nonzero;fill:rgb(83.137255%,33.333333%,0%);fill-opacity:1;" d="M 122.878906 60.007812 L 122.878906 62.679688 L 136.398438 62.679688 L 136.398438 60.007812 Z M 122.878906 75.613281 C 115.953125 75.894531 110.039062 77.308594 105.265625 79.789062 C 100.496094 82.265625 96.773438 85.59375 94.085938 89.804688 C 91.394531 94.011719 90.078125 98.367188 90.078125 102.90625 C 90.078125 103.402344 90.125 103.910156 90.164062 104.40625 C 90.371094 100.296875 91.628906 96.3125 94.085938 92.472656 C 96.773438 88.265625 100.496094 84.9375 105.265625 82.457031 C 110.039062 79.976562 115.953125 78.5625 122.878906 78.285156 Z M 136.398438 77.367188 L 136.398438 80.039062 C 138.410156 80.644531 140.109375 81.328125 141.492188 81.957031 C 142.871094 82.585938 144.742188 83.59375 147.082031 85.046875 L 149.671875 80.039062 L 157.347656 80.039062 L 164.859375 109.332031 L 165.527344 109.164062 L 157.347656 77.367188 L 149.671875 77.367188 L 147.082031 82.375 C 144.742188 80.921875 142.871094 79.917969 141.492188 79.285156 C 140.109375 78.65625 138.410156 77.976562 136.398438 77.367188 Z M 111.445312 100.902344 C 111.367188 101.304688 111.277344 101.726562 111.277344 102.15625 C 111.277344 104.070312 112.121094 105.96875 113.78125 107.746094 C 115.441406 109.523438 118.480469 111.171875 122.878906 112.671875 L 122.878906 110 C 118.480469 108.503906 115.441406 106.851562 113.78125 105.078125 C 112.535156 103.742188 111.757812 102.328125 111.445312 100.902344 Z M 136.398438 113.839844 L 136.398438 116.507812 C 145.617188 119.128906 152.304688 121.785156 156.515625 124.523438 C 160.726562 127.257812 163.972656 130.621094 166.195312 134.621094 C 168.195312 138.226562 169.25 141.953125 169.453125 145.804688 C 169.476562 145.328125 169.53125 144.867188 169.53125 144.386719 C 169.53125 140.082031 168.417969 135.953125 166.195312 131.953125 C 163.972656 127.953125 160.726562 124.585938 156.515625 121.851562 C 152.304688 119.117188 145.617188 116.460938 136.398438 113.839844 Z M 101.511719 132.117188 L 88.074219 135.375 L 88.578125 137.960938 L 101.511719 134.789062 C 103.945312 140.121094 106.277344 144.328125 108.523438 147.390625 C 110.765625 150.453125 113.3125 153.074219 116.117188 155.320312 C 118.175781 157.003906 120.445312 158.316406 122.878906 159.15625 L 122.878906 156.488281 C 120.445312 155.648438 118.175781 154.335938 116.117188 152.648438 C 113.3125 150.40625 110.765625 147.785156 108.523438 144.71875 C 106.277344 141.65625 103.945312 137.453125 101.511719 132.117188 Z M 148.25 150.144531 C 147.925781 152.179688 146.851562 153.855469 145.078125 155.152344 C 142.90625 156.742188 140.046875 157.773438 136.398438 158.242188 L 136.398438 160.914062 C 140.046875 160.445312 142.90625 159.414062 145.078125 157.824219 C 147.253906 156.234375 148.335938 154.109375 148.335938 151.398438 C 148.335938 150.972656 148.300781 150.546875 148.25 150.144531 Z M 148.25 150.144531 "/>
</g>
</svg>
