
<svg xmlns="http://www.w3.org/2000/svg" xmlns:xlink="http://www.w3.org/1999/xlink" width="256px" height="256px" viewBox="0 0 256 256" version="1.1">
<g id="surface1">
<path style="fill-rule:nonzero;fill:rgb(80.392157%,61.176471%,42.745098%);fill-opacity:1;stroke-width:27.746531;stroke-linecap:butt;stroke-linejoin:miter;stroke:rgb(32.54902%,29.019608%,23.529412%);stroke-opacity:1;stroke-miterlimit:4;" d="M 84.234375 28.742188 L 427.765625 28.742188 C 458.414062 28.742188 483.257812 53.585938 483.257812 84.234375 L 483.257812 427.765625 C 483.257812 458.414062 458.414062 483.257812 427.765625 483.257812 L 84.234375 483.257812 C 53.585938 483.257812 28.742188 458.414062 28.742188 427.765625 L 28.742188 84.234375 C 28.742188 53.585938 53.585938 28.742188 84.234375 28.742188 Z M 84.234375 28.742188 " transform="matrix(0.5,0,0,0.5,0,0)"/>
<path style=" stroke:none;fill-rule:nonzero;fill:rgb(32.54902%,29.019608%,23.529412%);fill-opacity:1;" d="M 67.5 193.574219 L 63.007812 189.390625 L 64 188.273438 C 64.546875 187.65625 74.976562 176.328125 87.171875 163.101562 C 107.109375 141.472656 109.484375 139.058594 110.75 139.167969 C 111.953125 139.273438 112.851562 138.535156 117.007812 134.046875 C 119.671875 131.164062 121.75 128.523438 121.613281 128.179688 C 121.476562 127.828125 120.21875 125.878906 118.8125 123.839844 C 114.382812 117.421875 111.742188 108.75 111.75 100.695312 C 111.78125 81.304688 125.1875 64.527344 144.246094 60.027344 C 149.472656 58.792969 158.175781 58.898438 163.496094 60.261719 C 175.285156 63.28125 185.179688 71.257812 190.523438 82.046875 C 193.820312 88.695312 194.875 93.234375 194.875 100.796875 C 194.875 108.148438 193.851562 112.6875 190.769531 119.058594 C 180.226562 140.835938 153.304688 148.839844 132.074219 136.507812 L 128.15625 134.230469 L 124.523438 138.140625 C 118.304688 144.835938 117.992188 145.273438 118.65625 146.34375 C 119.179688 147.179688 116.695312 150.050781 95.953125 172.539062 C 83.144531 186.429688 72.511719 197.789062 72.328125 197.777344 C 72.148438 197.765625 69.972656 195.875 67.5 193.574219 Z M 162.664062 131.71875 C 168.082031 130.0625 171.679688 127.867188 176.046875 123.546875 C 182.957031 116.71875 186.117188 108.570312 185.632812 98.859375 C 184.960938 85.550781 176.160156 74.046875 163.535156 69.984375 C 139.003906 62.09375 115.855469 83.882812 122.085938 109.007812 C 125.660156 123.433594 140.160156 133.953125 155.164062 133 C 157.457031 132.855469 160.832031 132.28125 162.664062 131.71875 Z M 162.664062 131.71875 "/>
<path style=" stroke:none;fill-rule:evenodd;fill:rgb(86.666667%,70.980392%,46.666667%);fill-opacity:1;" d="M 150.78125 82.984375 C 150.78125 86.277344 147.984375 88.949219 144.542969 88.949219 C 141.097656 88.949219 138.304688 86.277344 138.304688 82.984375 C 138.304688 79.6875 141.097656 77.015625 144.542969 77.015625 C 147.984375 77.015625 150.78125 79.6875 150.78125 82.984375 Z M 150.78125 82.984375 "/>
</g>
</svg>
