
<svg xmlns="http://www.w3.org/2000/svg" xmlns:xlink="http://www.w3.org/1999/xlink" width="256px" height="256px" viewBox="0 0 256 256" version="1.1">
<g id="surface1">
<path style="fill-rule:nonzero;fill:rgb(100%,100%,100%);fill-opacity:1;stroke-width:7.072551;stroke-linecap:butt;stroke-linejoin:miter;stroke:rgb(19.215686%,21.176471%,27.843137%);stroke-opacity:1;stroke-miterlimit:4;" d="M 20.216797 6.072266 L 107.783203 6.072266 C 115.595703 6.072266 121.927734 12.404297 121.927734 20.216797 L 121.927734 107.783203 C 121.927734 115.595703 115.595703 121.927734 107.783203 121.927734 L 20.216797 121.927734 C 12.404297 121.927734 6.072266 115.595703 6.072266 107.783203 L 6.072266 20.216797 C 6.072266 12.404297 12.404297 6.072266 20.216797 6.072266 Z M 20.216797 6.072266 " transform="matrix(2,0,0,2,0,0)"/>
<path style=" stroke:none;fill-rule:nonzero;fill:rgb(100%,86.666667%,33.333333%);fill-opacity:1;" d="M 210.796875 94.578125 C 211.6875 96.730469 212.492188 98.882812 213.21875 101.117188 C 212.5 98.910156 211.679688 96.710938 210.796875 94.578125 Z M 213.21875 101.117188 L 172.757812 114.199219 C 172.273438 112.695312 171.695312 111.273438 171.0625 109.839844 L 170.945312 109.839844 C 173.46875 115.578125 174.9375 121.921875 174.9375 128.617188 C 174.9375 144.96875 166.566406 159.347656 153.859375 167.609375 L 176.148438 203.824219 C 201.054688 188.015625 217.574219 160.292969 217.574219 128.609375 C 217.574219 118.984375 216.03125 109.785156 213.210938 101.109375 Z M 213.21875 101.117188 "/>
<path style=" stroke:none;fill-rule:nonzero;fill:rgb(33.333333%,86.666667%,100%);fill-opacity:1;" d="M 43.890625 100.632812 C 38.238281 181.300781 41.0625 140.960938 43.890625 100.632812 Z M 43.648438 101.117188 C 40.832031 109.765625 39.285156 119.015625 39.285156 128.609375 C 39.285156 158.234375 53.757812 184.46875 75.984375 200.679688 L 101.0625 166.28125 C 89.445312 157.839844 81.921875 144.125 81.921875 128.609375 C 81.921875 123.601562 82.644531 118.714844 84.101562 114.195312 Z M 43.648438 101.117188 "/>
<path style=" stroke:none;fill-rule:nonzero;fill:rgb(37.254902%,82.745098%,37.254902%);fill-opacity:1;" d="M 101.0625 166.28125 L 75.984375 200.679688 C 90.707031 211.414062 108.816406 217.757812 128.429688 217.757812 C 148.046875 217.757812 166.15625 211.414062 180.875 200.679688 L 155.804688 166.28125 C 148.140625 171.855469 138.667969 175.121094 128.4375 175.121094 C 118.1875 175.121094 108.714844 171.851562 101.078125 166.28125 Z M 101.0625 166.28125 "/>
<path style=" stroke:none;fill-rule:nonzero;fill:rgb(83.137255%,0%,0%);fill-opacity:1;" d="M 128.429688 39.464844 C 88.792969 39.464844 55.234375 65.339844 43.648438 101.117188 L 84.101562 114.195312 C 90.128906 95.5 107.671875 82.101562 128.4375 82.101562 L 128.4375 39.464844 Z M 128.429688 39.464844 "/>
<path style=" stroke:none;fill-rule:nonzero;fill:rgb(100%,40%,0%);fill-opacity:1;" d="M 128.3125 39.464844 L 128.429688 82.101562 C 149.1875 82.101562 166.75 95.484375 172.765625 114.195312 L 213.21875 101.117188 C 201.632812 65.335938 168.074219 39.464844 128.4375 39.464844 C 128.398438 39.464844 128.351562 39.464844 128.3125 39.464844 Z M 128.3125 39.464844 "/>
</g>
</svg>
