<?xml version="1.0" encoding="UTF-8"?>
<svg xmlns="http://www.w3.org/2000/svg" xmlns:xlink="http://www.w3.org/1999/xlink" width="256pt" height="256pt" viewBox="0 0 256 256" version="1.1">
<g id="surface1">
<path style="fill-rule:nonzero;fill:rgb(30.196078%,30.196078%,30.196078%);fill-opacity:1;stroke-width:28.191782;stroke-linecap:butt;stroke-linejoin:miter;stroke:rgb(35.294118%,49.803922%,53.333333%);stroke-opacity:1;stroke-miterlimit:4;" d="M 294.619413 58.02737 L 643.666287 58.02737 C 674.806912 58.02737 700.0491 83.269557 700.0491 114.410182 L 700.0491 463.457058 C 700.0491 494.597683 674.806912 519.83987 643.666287 519.83987 L 294.619413 519.83987 C 263.478788 519.83987 238.2366 494.597683 238.2366 463.457058 L 238.2366 114.410182 C 238.2366 83.269557 263.478788 58.02737 294.619413 58.02737 Z M 294.619413 58.02737 " transform="matrix(0.5,0,0,0.5,-106.571425,-16.46681)"/>
<path style=" stroke:none;fill-rule:nonzero;fill:rgb(100%,100%,100%);fill-opacity:1;" d="M 154.296875 57.558594 C 141.78125 67.632812 136.644531 83.390625 139.742188 97.769531 L 49.738281 170.195312 C 39.804688 178.1875 36.210938 190.097656 41.683594 196.890625 C 47.152344 203.6875 59.550781 202.722656 69.484375 194.730469 L 158.40625 123.171875 C 172.253906 131.019531 190.34375 129.941406 203.820312 119.097656 C 221.308594 105.023438 224.402344 79.835938 210.726562 62.84375 C 197.050781 45.851562 171.789062 43.484375 154.296875 57.558594 Z M 182.253906 66.871094 C 187.855469 62.363281 195.945312 63.121094 200.324219 68.5625 C 204.707031 74.007812 203.714844 82.074219 198.113281 86.582031 C 192.511719 91.085938 184.421875 90.332031 180.039062 84.886719 C 175.660156 79.445312 176.652344 71.378906 182.253906 66.871094 Z M 58.070312 176.589844 L 62.402344 177.203125 L 63.480469 172.941406 L 65.601562 176.703125 L 69.609375 174.78125 L 67.921875 178.871094 L 71.835938 180.742188 L 67.617188 182.066406 L 68.496094 186.320312 L 64.910156 183.894531 L 62.085938 187.324219 L 61.839844 182.96875 L 57.449219 182.992188 L 60.730469 179.988281 Z M 71.734375 165.59375 L 76.066406 166.210938 L 77.140625 161.945312 L 79.261719 165.707031 L 83.269531 163.789062 L 81.585938 167.878906 L 85.5 169.75 L 81.277344 171.074219 L 82.15625 175.328125 L 78.570312 172.902344 L 75.75 176.332031 L 75.503906 171.972656 L 71.109375 172 L 74.394531 168.992188 Z M 84.980469 154.933594 L 89.3125 155.550781 L 90.390625 151.285156 L 92.507812 155.046875 L 96.515625 153.128906 L 94.832031 157.21875 L 98.746094 159.089844 L 94.527344 160.414062 L 95.402344 164.667969 L 91.820312 162.242188 L 88.996094 165.671875 L 88.75 161.3125 L 84.355469 161.339844 L 87.640625 158.332031 Z M 99.46875 143.273438 L 103.800781 143.890625 L 104.878906 139.625 L 107 143.386719 L 111.007812 141.46875 L 109.320312 145.558594 L 113.234375 147.429688 L 109.015625 148.753906 L 109.890625 153.007812 L 106.308594 150.582031 L 103.484375 154.011719 L 103.238281 149.652344 L 98.847656 149.679688 L 102.128906 146.671875 Z M 112.304688 132.949219 L 116.632812 133.5625 L 117.710938 129.300781 L 119.832031 133.058594 L 123.839844 131.140625 L 122.152344 135.230469 L 126.070312 137.101562 L 121.847656 138.425781 L 122.726562 142.679688 L 119.140625 140.253906 L 116.316406 143.683594 L 116.070312 139.328125 L 111.679688 139.351562 L 114.964844 136.347656 Z M 125.964844 121.953125 L 130.296875 122.570312 L 131.371094 118.304688 L 133.492188 122.066406 L 137.5 120.144531 L 135.816406 124.234375 L 139.730469 126.109375 L 135.511719 127.433594 L 136.386719 131.6875 L 132.800781 129.257812 L 129.980469 132.691406 L 129.734375 128.332031 L 125.339844 128.359375 L 128.625 125.351562 Z M 125.964844 121.953125 "/>
</g>
</svg>
