<?xml version="1.0" encoding="UTF-8"?>
<svg xmlns="http://www.w3.org/2000/svg" xmlns:xlink="http://www.w3.org/1999/xlink" width="256pt" height="256pt" viewBox="0 0 256 256" version="1.1">
<g id="surface1">
<path style="fill-rule:nonzero;fill:rgb(30.196078%,30.196078%,30.196078%);fill-opacity:1;stroke-width:28.191782;stroke-linecap:butt;stroke-linejoin:miter;stroke:rgb(35.294118%,49.803922%,53.333333%);stroke-opacity:1;stroke-miterlimit:4;" d="M 294.619413 58.02737 L 643.666287 58.02737 C 674.806912 58.02737 700.0491 83.269557 700.0491 114.410182 L 700.0491 463.457058 C 700.0491 494.597683 674.806912 519.83987 643.666287 519.83987 L 294.619413 519.83987 C 263.478788 519.83987 238.2366 494.597683 238.2366 463.457058 L 238.2366 114.410182 C 238.2366 83.269557 263.478788 58.02737 294.619413 58.02737 Z M 294.619413 58.02737 " transform="matrix(0.5,0,0,0.5,-106.571425,-16.46681)"/>
<path style=" stroke:none;fill-rule:nonzero;fill:rgb(100%,100%,100%);fill-opacity:1;" d="M 111.109375 41.113281 C 94.199219 41.113281 80.582031 54.722656 80.582031 71.628906 L 80.582031 97.480469 C 80.582031 98.992188 80.695312 100.476562 80.902344 101.929688 L 88.15625 101.929688 C 87.625 99.867188 87.339844 97.703125 87.339844 95.46875 L 87.339844 73.636719 C 87.339844 59.359375 98.839844 47.871094 113.117188 47.871094 L 134.949219 47.871094 C 149.226562 47.871094 160.71875 59.359375 160.71875 73.636719 L 160.71875 95.46875 C 160.71875 97.703125 160.441406 99.867188 159.910156 101.929688 L 167.15625 101.929688 C 167.363281 100.476562 167.476562 98.992188 167.476562 97.480469 L 167.476562 71.628906 C 167.476562 54.722656 153.867188 41.113281 136.957031 41.113281 Z M 111.109375 41.113281 "/>
<path style=" stroke:none;fill-rule:nonzero;fill:rgb(100%,100%,100%);fill-opacity:1;" d="M 72.125 94.207031 C 65.578125 94.207031 60.3125 98.546875 60.3125 103.945312 L 60.3125 191.152344 C 60.3125 196.546875 65.578125 200.886719 72.125 200.886719 L 177.871094 200.886719 C 184.414062 200.886719 189.6875 196.546875 189.6875 191.152344 L 189.6875 103.945312 C 189.6875 98.546875 184.414062 94.207031 177.871094 94.207031 Z M 124.996094 114.964844 C 134.460938 114.964844 142.132812 122.640625 142.132812 132.101562 C 142.132812 138.882812 138.191406 144.742188 132.476562 147.523438 L 132.476562 179.085938 C 132.476562 184.480469 129.140625 188.820312 124.996094 188.820312 C 120.851562 188.820312 117.515625 184.480469 117.515625 179.085938 L 117.515625 147.523438 C 111.800781 144.742188 107.859375 138.882812 107.859375 132.101562 C 107.859375 122.640625 115.53125 114.964844 124.996094 114.964844 Z M 124.996094 114.964844 "/>
</g>
</svg>
