
<svg xmlns="http://www.w3.org/2000/svg" xmlns:xlink="http://www.w3.org/1999/xlink" width="256px" height="256px" viewBox="0 0 256 256" version="1.1">
<g id="surface1">
<path style="fill-rule:nonzero;fill:rgb(100%,100%,100%);fill-opacity:1;stroke-width:6.940816;stroke-linecap:butt;stroke-linejoin:miter;stroke:rgb(95.294118%,61.176471%,7.058824%);stroke-opacity:1;stroke-miterlimit:4;" d="M 21.033203 7.150391 L 106.966797 7.150391 C 114.632812 7.150391 120.849609 13.367188 120.849609 21.033203 L 120.849609 106.966797 C 120.849609 114.632812 114.632812 120.849609 106.966797 120.849609 L 21.033203 120.849609 C 13.367188 120.849609 7.150391 114.632812 7.150391 106.966797 L 7.150391 21.033203 C 7.150391 13.367188 13.367188 7.150391 21.033203 7.150391 Z M 21.033203 7.150391 " transform="matrix(2,0,0,2,0,0)"/>
<path style=" stroke:none;fill-rule:nonzero;fill:rgb(95.294118%,61.176471%,7.058824%);fill-opacity:1;" d="M 29.660156 33.8125 L 29.660156 72.953125 L 68.796875 72.953125 C 133.84375 72.953125 186.210938 125.320312 186.210938 190.367188 L 186.210938 229.503906 L 225.351562 229.503906 L 225.351562 190.367188 C 225.351562 103.636719 155.527344 33.8125 68.796875 33.8125 Z M 29.660156 112.089844 L 29.660156 151.226562 L 68.796875 151.226562 C 90.480469 151.226562 107.9375 168.683594 107.9375 190.367188 L 107.9375 229.503906 L 147.074219 229.503906 L 147.074219 190.367188 C 147.074219 147 112.164062 112.089844 68.796875 112.089844 Z M 52.492188 183.84375 C 39.84375 183.84375 29.660156 194.023438 29.660156 206.671875 C 29.660156 219.320312 39.84375 229.503906 52.492188 229.503906 C 65.140625 229.503906 75.320312 219.320312 75.320312 206.671875 C 75.320312 194.023438 65.140625 183.84375 52.492188 183.84375 Z M 52.492188 183.84375 "/>
</g>
</svg>
