<!-- color: #ef5353 -->
<svg xmlns="http://www.w3.org/2000/svg" xmlns:xlink="http://www.w3.org/1999/xlink" width="256px" height="256px" viewBox="0 0 256 256" version="1.1">
<defs>
<clipPath id="clip1">
  <path d="M 51 50 L 206 50 L 206 205 L 51 205 Z M 51 50 "/>
</clipPath>
<clipPath id="clip2">
  <path d="M 246.96875 127.515625 C 246.96875 192.976562 193.890625 246 128.484375 246 C 63.078125 246 10 192.976562 10 127.515625 C 10 62.054688 63.078125 9.03125 128.484375 9.03125 C 193.890625 9.03125 246.96875 62.054688 246.96875 127.515625 Z M 246.96875 127.515625 "/>
</clipPath>
<clipPath id="clip3">
  <path d="M 51 106.5 L 87.5 106.5 L 87.5 153.5 L 51 153.5 Z M 51 106.5 "/>
</clipPath>
<clipPath id="clip4">
  <path d="M 246.96875 127.515625 C 246.96875 192.976562 193.890625 246 128.484375 246 C 63.078125 246 10 192.976562 10 127.515625 C 10 62.054688 63.078125 9.03125 128.484375 9.03125 C 193.890625 9.03125 246.96875 62.054688 246.96875 127.515625 Z M 246.96875 127.515625 "/>
</clipPath>
</defs>
<g id="surface1">
<path style="fill-rule:nonzero;fill:rgb(93.333333%,29.803922%,29.803922%);fill-opacity:1;stroke-width:6.881345;stroke-linecap:butt;stroke-linejoin:miter;stroke:rgb(4.313725%,11.764706%,18.039216%);stroke-opacity:1;stroke-miterlimit:4;" d="M 21.400391 7.638672 L 106.599609 7.638672 C 114.199219 7.638672 120.361328 13.800781 120.361328 21.400391 L 120.361328 106.599609 C 120.361328 114.199219 114.199219 120.361328 106.599609 120.361328 L 21.400391 120.361328 C 13.800781 120.361328 7.638672 114.199219 7.638672 106.599609 L 7.638672 21.400391 C 7.638672 13.800781 13.800781 7.638672 21.400391 7.638672 Z M 21.400391 7.638672 " transform="matrix(2,0,0,2,0,0)"/>
<g clip-path="url(#clip1)" clip-rule="nonzero">
<g clip-path="url(#clip2)" clip-rule="nonzero">
<path style=" stroke:none;fill-rule:nonzero;fill:rgb(17.647059%,17.647059%,17.647059%);fill-opacity:0.501961;" d="M 128.421875 50.242188 C 85.859375 50.242188 51.210938 84.753906 51.210938 127.433594 C 51.210938 170.132812 85.867188 204.757812 128.421875 204.757812 C 170.984375 204.757812 205.746094 170.125 205.746094 127.433594 C 205.746094 84.734375 170.976562 50.242188 128.421875 50.242188 M 128.421875 60.546875 C 165.570312 60.546875 195.492188 90.46875 195.492188 127.433594 C 195.492188 164.398438 165.546875 194.507812 128.421875 194.507812 C 91.273438 194.507812 61.476562 164.421875 61.476562 127.433594 C 61.476562 90.46875 91.253906 60.546875 128.421875 60.546875 M 128.421875 60.546875 "/>
<path style=" stroke:none;fill-rule:nonzero;fill:rgb(17.647059%,17.647059%,17.647059%);fill-opacity:1;" d="M 128.421875 50.242188 C 85.859375 50.242188 51.210938 84.753906 51.210938 127.433594 L 61.476562 127.433594 C 61.476562 90.46875 91.253906 60.546875 128.421875 60.546875 C 165.570312 60.546875 195.492188 90.46875 195.492188 127.433594 L 195.492188 128.140625 C 195.09375 164.84375 165.3125 194.484375 128.421875 194.484375 L 128.421875 204.765625 C 170.984375 204.765625 205.746094 170.132812 205.746094 127.445312 C 205.746094 84.742188 170.976562 50.289062 128.421875 50.289062 M 128.421875 50.289062 "/>
</g>
</g>
<g clip-path="url(#clip3)" clip-rule="nonzero">
<g clip-path="url(#clip4)" clip-rule="nonzero">
<path style=" stroke:none;fill-rule:nonzero;fill:rgb(17.647059%,17.647059%,17.647059%);fill-opacity:1;" d="M 54.109375 106.910156 C 52.296875 113.46875 51.210938 120.390625 51.210938 127.515625 C 51.210938 136.414062 52.78125 145.007812 55.5625 152.953125 L 56.363281 153.277344 L 87.273438 106.914062 M 54.109375 106.914062 "/>
</g>
</g>
</g>
</svg>
