
<svg xmlns="http://www.w3.org/2000/svg" xmlns:xlink="http://www.w3.org/1999/xlink" width="256px" height="256px" viewBox="0 0 256 256" version="1.1">
<defs>
<clipPath id="clip1">
  <path d="M 117 140.5 L 139 140.5 L 139 206 L 117 206 Z M 117 140.5 "/>
</clipPath>
<clipPath id="clip2">
  <path d="M 109.789062 140.894531 L 145.21875 140.894531 C 145.21875 140.894531 145.222656 140.898438 145.222656 140.902344 L 145.222656 205.71875 C 145.222656 205.71875 145.21875 205.726562 145.21875 205.726562 L 109.789062 205.726562 C 109.789062 205.726562 109.785156 205.71875 109.785156 205.71875 L 109.785156 140.902344 C 109.785156 140.898438 109.789062 140.894531 109.789062 140.894531 Z M 109.789062 140.894531 "/>
</clipPath>
<clipPath id="clip3">
  <path d="M 111 203.5 L 144.5 203.5 L 144.5 206 L 111 206 Z M 111 203.5 "/>
</clipPath>
<clipPath id="clip4">
  <path d="M 109.789062 140.894531 L 145.21875 140.894531 C 145.21875 140.894531 145.222656 140.898438 145.222656 140.902344 L 145.222656 205.71875 C 145.222656 205.71875 145.21875 205.726562 145.21875 205.726562 L 109.789062 205.726562 C 109.789062 205.726562 109.785156 205.71875 109.785156 205.71875 L 109.785156 140.902344 C 109.785156 140.898438 109.789062 140.894531 109.789062 140.894531 Z M 109.789062 140.894531 "/>
</clipPath>
<clipPath id="clip5">
  <path d="M 108.417969 140.285156 L 146.710938 140.285156 C 146.714844 140.285156 146.71875 140.320312 146.71875 140.359375 L 146.71875 335.195312 C 146.71875 335.234375 146.714844 335.265625 146.710938 335.265625 L 108.417969 335.265625 C 108.414062 335.265625 108.414062 335.234375 108.414062 335.195312 L 108.414062 140.359375 C 108.414062 140.320312 108.414062 140.285156 108.417969 140.285156 Z M 108.417969 140.285156 "/>
</clipPath>
<clipPath id="clip6">
  <path d="M 111 176.5 L 144.5 176.5 L 144.5 199 L 111 199 Z M 111 176.5 "/>
</clipPath>
<clipPath id="clip7">
  <path d="M 109.789062 140.894531 L 145.21875 140.894531 C 145.21875 140.894531 145.222656 140.898438 145.222656 140.902344 L 145.222656 205.71875 C 145.222656 205.71875 145.21875 205.726562 145.21875 205.726562 L 109.789062 205.726562 C 109.789062 205.726562 109.785156 205.71875 109.785156 205.71875 L 109.785156 140.902344 C 109.785156 140.898438 109.789062 140.894531 109.789062 140.894531 Z M 109.789062 140.894531 "/>
</clipPath>
<clipPath id="clip8">
  <path d="M 108.417969 140.285156 L 146.710938 140.285156 C 146.714844 140.285156 146.71875 140.320312 146.71875 140.359375 L 146.71875 335.195312 C 146.71875 335.234375 146.714844 335.265625 146.710938 335.265625 L 108.417969 335.265625 C 108.414062 335.265625 108.414062 335.234375 108.414062 335.195312 L 108.414062 140.359375 C 108.414062 140.320312 108.414062 140.285156 108.417969 140.285156 Z M 108.417969 140.285156 "/>
</clipPath>
<clipPath id="clip9">
  <path d="M 111 194.5 L 144.5 194.5 L 144.5 206 L 111 206 Z M 111 194.5 "/>
</clipPath>
<clipPath id="clip10">
  <path d="M 109.789062 140.894531 L 145.21875 140.894531 C 145.21875 140.894531 145.222656 140.898438 145.222656 140.902344 L 145.222656 205.71875 C 145.222656 205.71875 145.21875 205.726562 145.21875 205.726562 L 109.789062 205.726562 C 109.789062 205.726562 109.785156 205.71875 109.785156 205.71875 L 109.785156 140.902344 C 109.785156 140.898438 109.789062 140.894531 109.789062 140.894531 Z M 109.789062 140.894531 "/>
</clipPath>
<clipPath id="clip11">
  <path d="M 108.417969 140.285156 L 146.710938 140.285156 C 146.714844 140.285156 146.71875 140.320312 146.71875 140.359375 L 146.71875 335.195312 C 146.71875 335.234375 146.714844 335.265625 146.710938 335.265625 L 108.417969 335.265625 C 108.414062 335.265625 108.414062 335.234375 108.414062 335.195312 L 108.414062 140.359375 C 108.414062 140.320312 108.414062 140.285156 108.417969 140.285156 Z M 108.417969 140.285156 "/>
</clipPath>
<clipPath id="clip12">
  <path d="M 111 150 L 144.5 150 L 144.5 172 L 111 172 Z M 111 150 "/>
</clipPath>
<clipPath id="clip13">
  <path d="M 109.789062 140.894531 L 145.21875 140.894531 C 145.21875 140.894531 145.222656 140.898438 145.222656 140.902344 L 145.222656 205.71875 C 145.222656 205.71875 145.21875 205.726562 145.21875 205.726562 L 109.789062 205.726562 C 109.789062 205.726562 109.785156 205.71875 109.785156 205.71875 L 109.785156 140.902344 C 109.785156 140.898438 109.789062 140.894531 109.789062 140.894531 Z M 109.789062 140.894531 "/>
</clipPath>
<clipPath id="clip14">
  <path d="M 108.417969 140.285156 L 146.710938 140.285156 C 146.714844 140.285156 146.71875 140.320312 146.71875 140.359375 L 146.71875 335.195312 C 146.71875 335.234375 146.714844 335.265625 146.710938 335.265625 L 108.417969 335.265625 C 108.414062 335.265625 108.414062 335.234375 108.414062 335.195312 L 108.414062 140.359375 C 108.414062 140.320312 108.414062 140.285156 108.417969 140.285156 Z M 108.417969 140.285156 "/>
</clipPath>
<clipPath id="clip15">
  <path d="M 111 158.5 L 144.5 158.5 L 144.5 181 L 111 181 Z M 111 158.5 "/>
</clipPath>
<clipPath id="clip16">
  <path d="M 109.789062 140.894531 L 145.21875 140.894531 C 145.21875 140.894531 145.222656 140.898438 145.222656 140.902344 L 145.222656 205.71875 C 145.222656 205.71875 145.21875 205.726562 145.21875 205.726562 L 109.789062 205.726562 C 109.789062 205.726562 109.785156 205.71875 109.785156 205.71875 L 109.785156 140.902344 C 109.785156 140.898438 109.789062 140.894531 109.789062 140.894531 Z M 109.789062 140.894531 "/>
</clipPath>
<clipPath id="clip17">
  <path d="M 108.417969 140.285156 L 146.710938 140.285156 C 146.714844 140.285156 146.71875 140.320312 146.71875 140.359375 L 146.71875 335.195312 C 146.71875 335.234375 146.714844 335.265625 146.710938 335.265625 L 108.417969 335.265625 C 108.414062 335.265625 108.414062 335.234375 108.414062 335.195312 L 108.414062 140.359375 C 108.414062 140.320312 108.414062 140.285156 108.417969 140.285156 Z M 108.417969 140.285156 "/>
</clipPath>
<clipPath id="clip18">
  <path d="M 111 185.5 L 144.5 185.5 L 144.5 206 L 111 206 Z M 111 185.5 "/>
</clipPath>
<clipPath id="clip19">
  <path d="M 109.789062 140.894531 L 145.21875 140.894531 C 145.21875 140.894531 145.222656 140.898438 145.222656 140.902344 L 145.222656 205.71875 C 145.222656 205.71875 145.21875 205.726562 145.21875 205.726562 L 109.789062 205.726562 C 109.789062 205.726562 109.785156 205.71875 109.785156 205.71875 L 109.785156 140.902344 C 109.785156 140.898438 109.789062 140.894531 109.789062 140.894531 Z M 109.789062 140.894531 "/>
</clipPath>
<clipPath id="clip20">
  <path d="M 108.417969 140.285156 L 146.710938 140.285156 C 146.714844 140.285156 146.71875 140.320312 146.71875 140.359375 L 146.71875 335.195312 C 146.71875 335.234375 146.714844 335.265625 146.710938 335.265625 L 108.417969 335.265625 C 108.414062 335.265625 108.414062 335.234375 108.414062 335.195312 L 108.414062 140.359375 C 108.414062 140.320312 108.414062 140.285156 108.417969 140.285156 Z M 108.417969 140.285156 "/>
</clipPath>
<clipPath id="clip21">
  <path d="M 111 141 L 144.5 141 L 144.5 163 L 111 163 Z M 111 141 "/>
</clipPath>
<clipPath id="clip22">
  <path d="M 109.789062 140.894531 L 145.21875 140.894531 C 145.21875 140.894531 145.222656 140.898438 145.222656 140.902344 L 145.222656 205.71875 C 145.222656 205.71875 145.21875 205.726562 145.21875 205.726562 L 109.789062 205.726562 C 109.789062 205.726562 109.785156 205.71875 109.785156 205.71875 L 109.785156 140.902344 C 109.785156 140.898438 109.789062 140.894531 109.789062 140.894531 Z M 109.789062 140.894531 "/>
</clipPath>
<clipPath id="clip23">
  <path d="M 108.417969 140.285156 L 146.710938 140.285156 C 146.714844 140.285156 146.71875 140.320312 146.71875 140.359375 L 146.71875 335.195312 C 146.71875 335.234375 146.714844 335.265625 146.710938 335.265625 L 108.417969 335.265625 C 108.414062 335.265625 108.414062 335.234375 108.414062 335.195312 L 108.414062 140.359375 C 108.414062 140.320312 108.414062 140.285156 108.417969 140.285156 Z M 108.417969 140.285156 "/>
</clipPath>
<clipPath id="clip24">
  <path d="M 111 167.5 L 144.5 167.5 L 144.5 190 L 111 190 Z M 111 167.5 "/>
</clipPath>
<clipPath id="clip25">
  <path d="M 109.789062 140.894531 L 145.21875 140.894531 C 145.21875 140.894531 145.222656 140.898438 145.222656 140.902344 L 145.222656 205.71875 C 145.222656 205.71875 145.21875 205.726562 145.21875 205.726562 L 109.789062 205.726562 C 109.789062 205.726562 109.785156 205.71875 109.785156 205.71875 L 109.785156 140.902344 C 109.785156 140.898438 109.789062 140.894531 109.789062 140.894531 Z M 109.789062 140.894531 "/>
</clipPath>
<clipPath id="clip26">
  <path d="M 108.417969 140.285156 L 146.710938 140.285156 C 146.714844 140.285156 146.71875 140.320312 146.71875 140.359375 L 146.71875 335.195312 C 146.71875 335.234375 146.714844 335.265625 146.710938 335.265625 L 108.417969 335.265625 C 108.414062 335.265625 108.414062 335.234375 108.414062 335.195312 L 108.414062 140.359375 C 108.414062 140.320312 108.414062 140.285156 108.417969 140.285156 Z M 108.417969 140.285156 "/>
</clipPath>
<clipPath id="clip27">
  <path d="M 111 140.5 L 144.5 140.5 L 144.5 154.5 L 111 154.5 Z M 111 140.5 "/>
</clipPath>
<clipPath id="clip28">
  <path d="M 109.789062 140.894531 L 145.21875 140.894531 C 145.21875 140.894531 145.222656 140.898438 145.222656 140.902344 L 145.222656 205.71875 C 145.222656 205.71875 145.21875 205.726562 145.21875 205.726562 L 109.789062 205.726562 C 109.789062 205.726562 109.785156 205.71875 109.785156 205.71875 L 109.785156 140.902344 C 109.785156 140.898438 109.789062 140.894531 109.789062 140.894531 Z M 109.789062 140.894531 "/>
</clipPath>
<clipPath id="clip29">
  <path d="M 108.417969 140.285156 L 146.710938 140.285156 C 146.714844 140.285156 146.71875 140.320312 146.71875 140.359375 L 146.71875 335.195312 C 146.71875 335.234375 146.714844 335.265625 146.710938 335.265625 L 108.417969 335.265625 C 108.414062 335.265625 108.414062 335.234375 108.414062 335.195312 L 108.414062 140.359375 C 108.414062 140.320312 108.414062 140.285156 108.417969 140.285156 Z M 108.417969 140.285156 "/>
</clipPath>
<clipPath id="clip30">
  <path d="M 111 203.5 L 144.5 203.5 L 144.5 206 L 111 206 Z M 111 203.5 "/>
</clipPath>
<clipPath id="clip31">
  <path d="M 109.789062 140.894531 L 145.21875 140.894531 C 145.21875 140.894531 145.222656 140.898438 145.222656 140.902344 L 145.222656 205.71875 C 145.222656 205.71875 145.21875 205.726562 145.21875 205.726562 L 109.789062 205.726562 C 109.789062 205.726562 109.785156 205.71875 109.785156 205.71875 L 109.785156 140.902344 C 109.785156 140.898438 109.789062 140.894531 109.789062 140.894531 Z M 109.789062 140.894531 "/>
</clipPath>
<clipPath id="clip32">
  <path d="M 108.417969 140.285156 L 146.710938 140.285156 C 146.714844 140.285156 146.71875 140.320312 146.71875 140.359375 L 146.71875 335.195312 C 146.71875 335.234375 146.714844 335.265625 146.710938 335.265625 L 108.417969 335.265625 C 108.414062 335.265625 108.414062 335.234375 108.414062 335.195312 L 108.414062 140.359375 C 108.414062 140.320312 108.414062 140.285156 108.417969 140.285156 Z M 108.417969 140.285156 "/>
</clipPath>
<clipPath id="clip33">
  <path d="M 111 176.5 L 144.5 176.5 L 144.5 199 L 111 199 Z M 111 176.5 "/>
</clipPath>
<clipPath id="clip34">
  <path d="M 109.789062 140.894531 L 145.21875 140.894531 C 145.21875 140.894531 145.222656 140.898438 145.222656 140.902344 L 145.222656 205.71875 C 145.222656 205.71875 145.21875 205.726562 145.21875 205.726562 L 109.789062 205.726562 C 109.789062 205.726562 109.785156 205.71875 109.785156 205.71875 L 109.785156 140.902344 C 109.785156 140.898438 109.789062 140.894531 109.789062 140.894531 Z M 109.789062 140.894531 "/>
</clipPath>
<clipPath id="clip35">
  <path d="M 108.417969 140.285156 L 146.710938 140.285156 C 146.714844 140.285156 146.71875 140.320312 146.71875 140.359375 L 146.71875 335.195312 C 146.71875 335.234375 146.714844 335.265625 146.710938 335.265625 L 108.417969 335.265625 C 108.414062 335.265625 108.414062 335.234375 108.414062 335.195312 L 108.414062 140.359375 C 108.414062 140.320312 108.414062 140.285156 108.417969 140.285156 Z M 108.417969 140.285156 "/>
</clipPath>
<clipPath id="clip36">
  <path d="M 111 194.5 L 144.5 194.5 L 144.5 206 L 111 206 Z M 111 194.5 "/>
</clipPath>
<clipPath id="clip37">
  <path d="M 109.789062 140.894531 L 145.21875 140.894531 C 145.21875 140.894531 145.222656 140.898438 145.222656 140.902344 L 145.222656 205.71875 C 145.222656 205.71875 145.21875 205.726562 145.21875 205.726562 L 109.789062 205.726562 C 109.789062 205.726562 109.785156 205.71875 109.785156 205.71875 L 109.785156 140.902344 C 109.785156 140.898438 109.789062 140.894531 109.789062 140.894531 Z M 109.789062 140.894531 "/>
</clipPath>
<clipPath id="clip38">
  <path d="M 108.417969 140.285156 L 146.710938 140.285156 C 146.714844 140.285156 146.71875 140.320312 146.71875 140.359375 L 146.71875 335.195312 C 146.71875 335.234375 146.714844 335.265625 146.710938 335.265625 L 108.417969 335.265625 C 108.414062 335.265625 108.414062 335.234375 108.414062 335.195312 L 108.414062 140.359375 C 108.414062 140.320312 108.414062 140.285156 108.417969 140.285156 Z M 108.417969 140.285156 "/>
</clipPath>
<clipPath id="clip39">
  <path d="M 111 150 L 144.5 150 L 144.5 172 L 111 172 Z M 111 150 "/>
</clipPath>
<clipPath id="clip40">
  <path d="M 109.789062 140.894531 L 145.21875 140.894531 C 145.21875 140.894531 145.222656 140.898438 145.222656 140.902344 L 145.222656 205.71875 C 145.222656 205.71875 145.21875 205.726562 145.21875 205.726562 L 109.789062 205.726562 C 109.789062 205.726562 109.785156 205.71875 109.785156 205.71875 L 109.785156 140.902344 C 109.785156 140.898438 109.789062 140.894531 109.789062 140.894531 Z M 109.789062 140.894531 "/>
</clipPath>
<clipPath id="clip41">
  <path d="M 108.417969 140.285156 L 146.710938 140.285156 C 146.714844 140.285156 146.71875 140.320312 146.71875 140.359375 L 146.71875 335.195312 C 146.71875 335.234375 146.714844 335.265625 146.710938 335.265625 L 108.417969 335.265625 C 108.414062 335.265625 108.414062 335.234375 108.414062 335.195312 L 108.414062 140.359375 C 108.414062 140.320312 108.414062 140.285156 108.417969 140.285156 Z M 108.417969 140.285156 "/>
</clipPath>
<clipPath id="clip42">
  <path d="M 111 158.5 L 144.5 158.5 L 144.5 181 L 111 181 Z M 111 158.5 "/>
</clipPath>
<clipPath id="clip43">
  <path d="M 109.789062 140.894531 L 145.21875 140.894531 C 145.21875 140.894531 145.222656 140.898438 145.222656 140.902344 L 145.222656 205.71875 C 145.222656 205.71875 145.21875 205.726562 145.21875 205.726562 L 109.789062 205.726562 C 109.789062 205.726562 109.785156 205.71875 109.785156 205.71875 L 109.785156 140.902344 C 109.785156 140.898438 109.789062 140.894531 109.789062 140.894531 Z M 109.789062 140.894531 "/>
</clipPath>
<clipPath id="clip44">
  <path d="M 108.417969 140.285156 L 146.710938 140.285156 C 146.714844 140.285156 146.71875 140.320312 146.71875 140.359375 L 146.71875 335.195312 C 146.71875 335.234375 146.714844 335.265625 146.710938 335.265625 L 108.417969 335.265625 C 108.414062 335.265625 108.414062 335.234375 108.414062 335.195312 L 108.414062 140.359375 C 108.414062 140.320312 108.414062 140.285156 108.417969 140.285156 Z M 108.417969 140.285156 "/>
</clipPath>
<clipPath id="clip45">
  <path d="M 111 185.5 L 144.5 185.5 L 144.5 206 L 111 206 Z M 111 185.5 "/>
</clipPath>
<clipPath id="clip46">
  <path d="M 109.789062 140.894531 L 145.21875 140.894531 C 145.21875 140.894531 145.222656 140.898438 145.222656 140.902344 L 145.222656 205.71875 C 145.222656 205.71875 145.21875 205.726562 145.21875 205.726562 L 109.789062 205.726562 C 109.789062 205.726562 109.785156 205.71875 109.785156 205.71875 L 109.785156 140.902344 C 109.785156 140.898438 109.789062 140.894531 109.789062 140.894531 Z M 109.789062 140.894531 "/>
</clipPath>
<clipPath id="clip47">
  <path d="M 108.417969 140.285156 L 146.710938 140.285156 C 146.714844 140.285156 146.71875 140.320312 146.71875 140.359375 L 146.71875 335.195312 C 146.71875 335.234375 146.714844 335.265625 146.710938 335.265625 L 108.417969 335.265625 C 108.414062 335.265625 108.414062 335.234375 108.414062 335.195312 L 108.414062 140.359375 C 108.414062 140.320312 108.414062 140.285156 108.417969 140.285156 Z M 108.417969 140.285156 "/>
</clipPath>
<clipPath id="clip48">
  <path d="M 111 141 L 144.5 141 L 144.5 163 L 111 163 Z M 111 141 "/>
</clipPath>
<clipPath id="clip49">
  <path d="M 109.789062 140.894531 L 145.21875 140.894531 C 145.21875 140.894531 145.222656 140.898438 145.222656 140.902344 L 145.222656 205.71875 C 145.222656 205.71875 145.21875 205.726562 145.21875 205.726562 L 109.789062 205.726562 C 109.789062 205.726562 109.785156 205.71875 109.785156 205.71875 L 109.785156 140.902344 C 109.785156 140.898438 109.789062 140.894531 109.789062 140.894531 Z M 109.789062 140.894531 "/>
</clipPath>
<clipPath id="clip50">
  <path d="M 108.417969 140.285156 L 146.710938 140.285156 C 146.714844 140.285156 146.71875 140.320312 146.71875 140.359375 L 146.71875 335.195312 C 146.71875 335.234375 146.714844 335.265625 146.710938 335.265625 L 108.417969 335.265625 C 108.414062 335.265625 108.414062 335.234375 108.414062 335.195312 L 108.414062 140.359375 C 108.414062 140.320312 108.414062 140.285156 108.417969 140.285156 Z M 108.417969 140.285156 "/>
</clipPath>
<clipPath id="clip51">
  <path d="M 111 167.5 L 144.5 167.5 L 144.5 190 L 111 190 Z M 111 167.5 "/>
</clipPath>
<clipPath id="clip52">
  <path d="M 109.789062 140.894531 L 145.21875 140.894531 C 145.21875 140.894531 145.222656 140.898438 145.222656 140.902344 L 145.222656 205.71875 C 145.222656 205.71875 145.21875 205.726562 145.21875 205.726562 L 109.789062 205.726562 C 109.789062 205.726562 109.785156 205.71875 109.785156 205.71875 L 109.785156 140.902344 C 109.785156 140.898438 109.789062 140.894531 109.789062 140.894531 Z M 109.789062 140.894531 "/>
</clipPath>
<clipPath id="clip53">
  <path d="M 108.417969 140.285156 L 146.710938 140.285156 C 146.714844 140.285156 146.71875 140.320312 146.71875 140.359375 L 146.71875 335.195312 C 146.71875 335.234375 146.714844 335.265625 146.710938 335.265625 L 108.417969 335.265625 C 108.414062 335.265625 108.414062 335.234375 108.414062 335.195312 L 108.414062 140.359375 C 108.414062 140.320312 108.414062 140.285156 108.417969 140.285156 Z M 108.417969 140.285156 "/>
</clipPath>
<clipPath id="clip54">
  <path d="M 111 140.5 L 144.5 140.5 L 144.5 154.5 L 111 154.5 Z M 111 140.5 "/>
</clipPath>
<clipPath id="clip55">
  <path d="M 109.789062 140.894531 L 145.21875 140.894531 C 145.21875 140.894531 145.222656 140.898438 145.222656 140.902344 L 145.222656 205.71875 C 145.222656 205.71875 145.21875 205.726562 145.21875 205.726562 L 109.789062 205.726562 C 109.789062 205.726562 109.785156 205.71875 109.785156 205.71875 L 109.785156 140.902344 C 109.785156 140.898438 109.789062 140.894531 109.789062 140.894531 Z M 109.789062 140.894531 "/>
</clipPath>
<clipPath id="clip56">
  <path d="M 108.417969 140.285156 L 146.710938 140.285156 C 146.714844 140.285156 146.71875 140.320312 146.71875 140.359375 L 146.71875 335.195312 C 146.71875 335.234375 146.714844 335.265625 146.710938 335.265625 L 108.417969 335.265625 C 108.414062 335.265625 108.414062 335.234375 108.414062 335.195312 L 108.414062 140.359375 C 108.414062 140.320312 108.414062 140.285156 108.417969 140.285156 Z M 108.417969 140.285156 "/>
</clipPath>
<clipPath id="clip57">
  <path d="M 111 203.5 L 144.5 203.5 L 144.5 206 L 111 206 Z M 111 203.5 "/>
</clipPath>
<clipPath id="clip58">
  <path d="M 109.789062 140.894531 L 145.21875 140.894531 C 145.21875 140.894531 145.222656 140.898438 145.222656 140.902344 L 145.222656 205.71875 C 145.222656 205.71875 145.21875 205.726562 145.21875 205.726562 L 109.789062 205.726562 C 109.789062 205.726562 109.785156 205.71875 109.785156 205.71875 L 109.785156 140.902344 C 109.785156 140.898438 109.789062 140.894531 109.789062 140.894531 Z M 109.789062 140.894531 "/>
</clipPath>
<clipPath id="clip59">
  <path d="M 108.417969 140.285156 L 146.710938 140.285156 C 146.714844 140.285156 146.71875 140.320312 146.71875 140.359375 L 146.71875 335.195312 C 146.71875 335.234375 146.714844 335.265625 146.710938 335.265625 L 108.417969 335.265625 C 108.414062 335.265625 108.414062 335.234375 108.414062 335.195312 L 108.414062 140.359375 C 108.414062 140.320312 108.414062 140.285156 108.417969 140.285156 Z M 108.417969 140.285156 "/>
</clipPath>
<clipPath id="clip60">
  <path d="M 111 176.5 L 144.5 176.5 L 144.5 199 L 111 199 Z M 111 176.5 "/>
</clipPath>
<clipPath id="clip61">
  <path d="M 109.789062 140.894531 L 145.21875 140.894531 C 145.21875 140.894531 145.222656 140.898438 145.222656 140.902344 L 145.222656 205.71875 C 145.222656 205.71875 145.21875 205.726562 145.21875 205.726562 L 109.789062 205.726562 C 109.789062 205.726562 109.785156 205.71875 109.785156 205.71875 L 109.785156 140.902344 C 109.785156 140.898438 109.789062 140.894531 109.789062 140.894531 Z M 109.789062 140.894531 "/>
</clipPath>
<clipPath id="clip62">
  <path d="M 108.417969 140.285156 L 146.710938 140.285156 C 146.714844 140.285156 146.71875 140.320312 146.71875 140.359375 L 146.71875 335.195312 C 146.71875 335.234375 146.714844 335.265625 146.710938 335.265625 L 108.417969 335.265625 C 108.414062 335.265625 108.414062 335.234375 108.414062 335.195312 L 108.414062 140.359375 C 108.414062 140.320312 108.414062 140.285156 108.417969 140.285156 Z M 108.417969 140.285156 "/>
</clipPath>
<clipPath id="clip63">
  <path d="M 111 194.5 L 144.5 194.5 L 144.5 206 L 111 206 Z M 111 194.5 "/>
</clipPath>
<clipPath id="clip64">
  <path d="M 109.789062 140.894531 L 145.21875 140.894531 C 145.21875 140.894531 145.222656 140.898438 145.222656 140.902344 L 145.222656 205.71875 C 145.222656 205.71875 145.21875 205.726562 145.21875 205.726562 L 109.789062 205.726562 C 109.789062 205.726562 109.785156 205.71875 109.785156 205.71875 L 109.785156 140.902344 C 109.785156 140.898438 109.789062 140.894531 109.789062 140.894531 Z M 109.789062 140.894531 "/>
</clipPath>
<clipPath id="clip65">
  <path d="M 108.417969 140.285156 L 146.710938 140.285156 C 146.714844 140.285156 146.71875 140.320312 146.71875 140.359375 L 146.71875 335.195312 C 146.71875 335.234375 146.714844 335.265625 146.710938 335.265625 L 108.417969 335.265625 C 108.414062 335.265625 108.414062 335.234375 108.414062 335.195312 L 108.414062 140.359375 C 108.414062 140.320312 108.414062 140.285156 108.417969 140.285156 Z M 108.417969 140.285156 "/>
</clipPath>
<clipPath id="clip66">
  <path d="M 111 150 L 144.5 150 L 144.5 172 L 111 172 Z M 111 150 "/>
</clipPath>
<clipPath id="clip67">
  <path d="M 109.789062 140.894531 L 145.21875 140.894531 C 145.21875 140.894531 145.222656 140.898438 145.222656 140.902344 L 145.222656 205.71875 C 145.222656 205.71875 145.21875 205.726562 145.21875 205.726562 L 109.789062 205.726562 C 109.789062 205.726562 109.785156 205.71875 109.785156 205.71875 L 109.785156 140.902344 C 109.785156 140.898438 109.789062 140.894531 109.789062 140.894531 Z M 109.789062 140.894531 "/>
</clipPath>
<clipPath id="clip68">
  <path d="M 108.417969 140.285156 L 146.710938 140.285156 C 146.714844 140.285156 146.71875 140.320312 146.71875 140.359375 L 146.71875 335.195312 C 146.71875 335.234375 146.714844 335.265625 146.710938 335.265625 L 108.417969 335.265625 C 108.414062 335.265625 108.414062 335.234375 108.414062 335.195312 L 108.414062 140.359375 C 108.414062 140.320312 108.414062 140.285156 108.417969 140.285156 Z M 108.417969 140.285156 "/>
</clipPath>
<clipPath id="clip69">
  <path d="M 111 158.5 L 144.5 158.5 L 144.5 181 L 111 181 Z M 111 158.5 "/>
</clipPath>
<clipPath id="clip70">
  <path d="M 109.789062 140.894531 L 145.21875 140.894531 C 145.21875 140.894531 145.222656 140.898438 145.222656 140.902344 L 145.222656 205.71875 C 145.222656 205.71875 145.21875 205.726562 145.21875 205.726562 L 109.789062 205.726562 C 109.789062 205.726562 109.785156 205.71875 109.785156 205.71875 L 109.785156 140.902344 C 109.785156 140.898438 109.789062 140.894531 109.789062 140.894531 Z M 109.789062 140.894531 "/>
</clipPath>
<clipPath id="clip71">
  <path d="M 108.417969 140.285156 L 146.710938 140.285156 C 146.714844 140.285156 146.71875 140.320312 146.71875 140.359375 L 146.71875 335.195312 C 146.71875 335.234375 146.714844 335.265625 146.710938 335.265625 L 108.417969 335.265625 C 108.414062 335.265625 108.414062 335.234375 108.414062 335.195312 L 108.414062 140.359375 C 108.414062 140.320312 108.414062 140.285156 108.417969 140.285156 Z M 108.417969 140.285156 "/>
</clipPath>
<clipPath id="clip72">
  <path d="M 111 185.5 L 144.5 185.5 L 144.5 206 L 111 206 Z M 111 185.5 "/>
</clipPath>
<clipPath id="clip73">
  <path d="M 109.789062 140.894531 L 145.21875 140.894531 C 145.21875 140.894531 145.222656 140.898438 145.222656 140.902344 L 145.222656 205.71875 C 145.222656 205.71875 145.21875 205.726562 145.21875 205.726562 L 109.789062 205.726562 C 109.789062 205.726562 109.785156 205.71875 109.785156 205.71875 L 109.785156 140.902344 C 109.785156 140.898438 109.789062 140.894531 109.789062 140.894531 Z M 109.789062 140.894531 "/>
</clipPath>
<clipPath id="clip74">
  <path d="M 108.417969 140.285156 L 146.710938 140.285156 C 146.714844 140.285156 146.71875 140.320312 146.71875 140.359375 L 146.71875 335.195312 C 146.71875 335.234375 146.714844 335.265625 146.710938 335.265625 L 108.417969 335.265625 C 108.414062 335.265625 108.414062 335.234375 108.414062 335.195312 L 108.414062 140.359375 C 108.414062 140.320312 108.414062 140.285156 108.417969 140.285156 Z M 108.417969 140.285156 "/>
</clipPath>
<clipPath id="clip75">
  <path d="M 111 141 L 144.5 141 L 144.5 163 L 111 163 Z M 111 141 "/>
</clipPath>
<clipPath id="clip76">
  <path d="M 109.789062 140.894531 L 145.21875 140.894531 C 145.21875 140.894531 145.222656 140.898438 145.222656 140.902344 L 145.222656 205.71875 C 145.222656 205.71875 145.21875 205.726562 145.21875 205.726562 L 109.789062 205.726562 C 109.789062 205.726562 109.785156 205.71875 109.785156 205.71875 L 109.785156 140.902344 C 109.785156 140.898438 109.789062 140.894531 109.789062 140.894531 Z M 109.789062 140.894531 "/>
</clipPath>
<clipPath id="clip77">
  <path d="M 108.417969 140.285156 L 146.710938 140.285156 C 146.714844 140.285156 146.71875 140.320312 146.71875 140.359375 L 146.71875 335.195312 C 146.71875 335.234375 146.714844 335.265625 146.710938 335.265625 L 108.417969 335.265625 C 108.414062 335.265625 108.414062 335.234375 108.414062 335.195312 L 108.414062 140.359375 C 108.414062 140.320312 108.414062 140.285156 108.417969 140.285156 Z M 108.417969 140.285156 "/>
</clipPath>
<clipPath id="clip78">
  <path d="M 111 167.5 L 144.5 167.5 L 144.5 190 L 111 190 Z M 111 167.5 "/>
</clipPath>
<clipPath id="clip79">
  <path d="M 109.789062 140.894531 L 145.21875 140.894531 C 145.21875 140.894531 145.222656 140.898438 145.222656 140.902344 L 145.222656 205.71875 C 145.222656 205.71875 145.21875 205.726562 145.21875 205.726562 L 109.789062 205.726562 C 109.789062 205.726562 109.785156 205.71875 109.785156 205.71875 L 109.785156 140.902344 C 109.785156 140.898438 109.789062 140.894531 109.789062 140.894531 Z M 109.789062 140.894531 "/>
</clipPath>
<clipPath id="clip80">
  <path d="M 108.417969 140.285156 L 146.710938 140.285156 C 146.714844 140.285156 146.71875 140.320312 146.71875 140.359375 L 146.71875 335.195312 C 146.71875 335.234375 146.714844 335.265625 146.710938 335.265625 L 108.417969 335.265625 C 108.414062 335.265625 108.414062 335.234375 108.414062 335.195312 L 108.414062 140.359375 C 108.414062 140.320312 108.414062 140.285156 108.417969 140.285156 Z M 108.417969 140.285156 "/>
</clipPath>
<clipPath id="clip81">
  <path d="M 111 140.5 L 144.5 140.5 L 144.5 154.5 L 111 154.5 Z M 111 140.5 "/>
</clipPath>
<clipPath id="clip82">
  <path d="M 109.789062 140.894531 L 145.21875 140.894531 C 145.21875 140.894531 145.222656 140.898438 145.222656 140.902344 L 145.222656 205.71875 C 145.222656 205.71875 145.21875 205.726562 145.21875 205.726562 L 109.789062 205.726562 C 109.789062 205.726562 109.785156 205.71875 109.785156 205.71875 L 109.785156 140.902344 C 109.785156 140.898438 109.789062 140.894531 109.789062 140.894531 Z M 109.789062 140.894531 "/>
</clipPath>
<clipPath id="clip83">
  <path d="M 108.417969 140.285156 L 146.710938 140.285156 C 146.714844 140.285156 146.71875 140.320312 146.71875 140.359375 L 146.71875 335.195312 C 146.71875 335.234375 146.714844 335.265625 146.710938 335.265625 L 108.417969 335.265625 C 108.414062 335.265625 108.414062 335.234375 108.414062 335.195312 L 108.414062 140.359375 C 108.414062 140.320312 108.414062 140.285156 108.417969 140.285156 Z M 108.417969 140.285156 "/>
</clipPath>
<clipPath id="clip84">
  <path d="M 111 203.5 L 144.5 203.5 L 144.5 206 L 111 206 Z M 111 203.5 "/>
</clipPath>
<clipPath id="clip85">
  <path d="M 109.789062 140.894531 L 145.21875 140.894531 C 145.21875 140.894531 145.222656 140.898438 145.222656 140.902344 L 145.222656 205.71875 C 145.222656 205.71875 145.21875 205.726562 145.21875 205.726562 L 109.789062 205.726562 C 109.789062 205.726562 109.785156 205.71875 109.785156 205.71875 L 109.785156 140.902344 C 109.785156 140.898438 109.789062 140.894531 109.789062 140.894531 Z M 109.789062 140.894531 "/>
</clipPath>
<clipPath id="clip86">
  <path d="M 108.417969 140.285156 L 146.710938 140.285156 C 146.714844 140.285156 146.71875 140.320312 146.71875 140.359375 L 146.71875 335.195312 C 146.71875 335.234375 146.714844 335.265625 146.710938 335.265625 L 108.417969 335.265625 C 108.414062 335.265625 108.414062 335.234375 108.414062 335.195312 L 108.414062 140.359375 C 108.414062 140.320312 108.414062 140.285156 108.417969 140.285156 Z M 108.417969 140.285156 "/>
</clipPath>
<clipPath id="clip87">
  <path d="M 111 176.5 L 144.5 176.5 L 144.5 199 L 111 199 Z M 111 176.5 "/>
</clipPath>
<clipPath id="clip88">
  <path d="M 109.789062 140.894531 L 145.21875 140.894531 C 145.21875 140.894531 145.222656 140.898438 145.222656 140.902344 L 145.222656 205.71875 C 145.222656 205.71875 145.21875 205.726562 145.21875 205.726562 L 109.789062 205.726562 C 109.789062 205.726562 109.785156 205.71875 109.785156 205.71875 L 109.785156 140.902344 C 109.785156 140.898438 109.789062 140.894531 109.789062 140.894531 Z M 109.789062 140.894531 "/>
</clipPath>
<clipPath id="clip89">
  <path d="M 108.417969 140.285156 L 146.710938 140.285156 C 146.714844 140.285156 146.71875 140.320312 146.71875 140.359375 L 146.71875 335.195312 C 146.71875 335.234375 146.714844 335.265625 146.710938 335.265625 L 108.417969 335.265625 C 108.414062 335.265625 108.414062 335.234375 108.414062 335.195312 L 108.414062 140.359375 C 108.414062 140.320312 108.414062 140.285156 108.417969 140.285156 Z M 108.417969 140.285156 "/>
</clipPath>
<clipPath id="clip90">
  <path d="M 111 194.5 L 144.5 194.5 L 144.5 206 L 111 206 Z M 111 194.5 "/>
</clipPath>
<clipPath id="clip91">
  <path d="M 109.789062 140.894531 L 145.21875 140.894531 C 145.21875 140.894531 145.222656 140.898438 145.222656 140.902344 L 145.222656 205.71875 C 145.222656 205.71875 145.21875 205.726562 145.21875 205.726562 L 109.789062 205.726562 C 109.789062 205.726562 109.785156 205.71875 109.785156 205.71875 L 109.785156 140.902344 C 109.785156 140.898438 109.789062 140.894531 109.789062 140.894531 Z M 109.789062 140.894531 "/>
</clipPath>
<clipPath id="clip92">
  <path d="M 108.417969 140.285156 L 146.710938 140.285156 C 146.714844 140.285156 146.71875 140.320312 146.71875 140.359375 L 146.71875 335.195312 C 146.71875 335.234375 146.714844 335.265625 146.710938 335.265625 L 108.417969 335.265625 C 108.414062 335.265625 108.414062 335.234375 108.414062 335.195312 L 108.414062 140.359375 C 108.414062 140.320312 108.414062 140.285156 108.417969 140.285156 Z M 108.417969 140.285156 "/>
</clipPath>
<clipPath id="clip93">
  <path d="M 111 150 L 144.5 150 L 144.5 172 L 111 172 Z M 111 150 "/>
</clipPath>
<clipPath id="clip94">
  <path d="M 109.789062 140.894531 L 145.21875 140.894531 C 145.21875 140.894531 145.222656 140.898438 145.222656 140.902344 L 145.222656 205.71875 C 145.222656 205.71875 145.21875 205.726562 145.21875 205.726562 L 109.789062 205.726562 C 109.789062 205.726562 109.785156 205.71875 109.785156 205.71875 L 109.785156 140.902344 C 109.785156 140.898438 109.789062 140.894531 109.789062 140.894531 Z M 109.789062 140.894531 "/>
</clipPath>
<clipPath id="clip95">
  <path d="M 108.417969 140.285156 L 146.710938 140.285156 C 146.714844 140.285156 146.71875 140.320312 146.71875 140.359375 L 146.71875 335.195312 C 146.71875 335.234375 146.714844 335.265625 146.710938 335.265625 L 108.417969 335.265625 C 108.414062 335.265625 108.414062 335.234375 108.414062 335.195312 L 108.414062 140.359375 C 108.414062 140.320312 108.414062 140.285156 108.417969 140.285156 Z M 108.417969 140.285156 "/>
</clipPath>
<clipPath id="clip96">
  <path d="M 111 158.5 L 144.5 158.5 L 144.5 181 L 111 181 Z M 111 158.5 "/>
</clipPath>
<clipPath id="clip97">
  <path d="M 109.789062 140.894531 L 145.21875 140.894531 C 145.21875 140.894531 145.222656 140.898438 145.222656 140.902344 L 145.222656 205.71875 C 145.222656 205.71875 145.21875 205.726562 145.21875 205.726562 L 109.789062 205.726562 C 109.789062 205.726562 109.785156 205.71875 109.785156 205.71875 L 109.785156 140.902344 C 109.785156 140.898438 109.789062 140.894531 109.789062 140.894531 Z M 109.789062 140.894531 "/>
</clipPath>
<clipPath id="clip98">
  <path d="M 108.417969 140.285156 L 146.710938 140.285156 C 146.714844 140.285156 146.71875 140.320312 146.71875 140.359375 L 146.71875 335.195312 C 146.71875 335.234375 146.714844 335.265625 146.710938 335.265625 L 108.417969 335.265625 C 108.414062 335.265625 108.414062 335.234375 108.414062 335.195312 L 108.414062 140.359375 C 108.414062 140.320312 108.414062 140.285156 108.417969 140.285156 Z M 108.417969 140.285156 "/>
</clipPath>
<clipPath id="clip99">
  <path d="M 111 185.5 L 144.5 185.5 L 144.5 206 L 111 206 Z M 111 185.5 "/>
</clipPath>
<clipPath id="clip100">
  <path d="M 109.789062 140.894531 L 145.21875 140.894531 C 145.21875 140.894531 145.222656 140.898438 145.222656 140.902344 L 145.222656 205.71875 C 145.222656 205.71875 145.21875 205.726562 145.21875 205.726562 L 109.789062 205.726562 C 109.789062 205.726562 109.785156 205.71875 109.785156 205.71875 L 109.785156 140.902344 C 109.785156 140.898438 109.789062 140.894531 109.789062 140.894531 Z M 109.789062 140.894531 "/>
</clipPath>
<clipPath id="clip101">
  <path d="M 108.417969 140.285156 L 146.710938 140.285156 C 146.714844 140.285156 146.71875 140.320312 146.71875 140.359375 L 146.71875 335.195312 C 146.71875 335.234375 146.714844 335.265625 146.710938 335.265625 L 108.417969 335.265625 C 108.414062 335.265625 108.414062 335.234375 108.414062 335.195312 L 108.414062 140.359375 C 108.414062 140.320312 108.414062 140.285156 108.417969 140.285156 Z M 108.417969 140.285156 "/>
</clipPath>
<clipPath id="clip102">
  <path d="M 111 141 L 144.5 141 L 144.5 163 L 111 163 Z M 111 141 "/>
</clipPath>
<clipPath id="clip103">
  <path d="M 109.789062 140.894531 L 145.21875 140.894531 C 145.21875 140.894531 145.222656 140.898438 145.222656 140.902344 L 145.222656 205.71875 C 145.222656 205.71875 145.21875 205.726562 145.21875 205.726562 L 109.789062 205.726562 C 109.789062 205.726562 109.785156 205.71875 109.785156 205.71875 L 109.785156 140.902344 C 109.785156 140.898438 109.789062 140.894531 109.789062 140.894531 Z M 109.789062 140.894531 "/>
</clipPath>
<clipPath id="clip104">
  <path d="M 108.417969 140.285156 L 146.710938 140.285156 C 146.714844 140.285156 146.71875 140.320312 146.71875 140.359375 L 146.71875 335.195312 C 146.71875 335.234375 146.714844 335.265625 146.710938 335.265625 L 108.417969 335.265625 C 108.414062 335.265625 108.414062 335.234375 108.414062 335.195312 L 108.414062 140.359375 C 108.414062 140.320312 108.414062 140.285156 108.417969 140.285156 Z M 108.417969 140.285156 "/>
</clipPath>
<clipPath id="clip105">
  <path d="M 111 167.5 L 144.5 167.5 L 144.5 190 L 111 190 Z M 111 167.5 "/>
</clipPath>
<clipPath id="clip106">
  <path d="M 109.789062 140.894531 L 145.21875 140.894531 C 145.21875 140.894531 145.222656 140.898438 145.222656 140.902344 L 145.222656 205.71875 C 145.222656 205.71875 145.21875 205.726562 145.21875 205.726562 L 109.789062 205.726562 C 109.789062 205.726562 109.785156 205.71875 109.785156 205.71875 L 109.785156 140.902344 C 109.785156 140.898438 109.789062 140.894531 109.789062 140.894531 Z M 109.789062 140.894531 "/>
</clipPath>
<clipPath id="clip107">
  <path d="M 108.417969 140.285156 L 146.710938 140.285156 C 146.714844 140.285156 146.71875 140.320312 146.71875 140.359375 L 146.71875 335.195312 C 146.71875 335.234375 146.714844 335.265625 146.710938 335.265625 L 108.417969 335.265625 C 108.414062 335.265625 108.414062 335.234375 108.414062 335.195312 L 108.414062 140.359375 C 108.414062 140.320312 108.414062 140.285156 108.417969 140.285156 Z M 108.417969 140.285156 "/>
</clipPath>
<clipPath id="clip108">
  <path d="M 111 140.5 L 144.5 140.5 L 144.5 154.5 L 111 154.5 Z M 111 140.5 "/>
</clipPath>
<clipPath id="clip109">
  <path d="M 109.789062 140.894531 L 145.21875 140.894531 C 145.21875 140.894531 145.222656 140.898438 145.222656 140.902344 L 145.222656 205.71875 C 145.222656 205.71875 145.21875 205.726562 145.21875 205.726562 L 109.789062 205.726562 C 109.789062 205.726562 109.785156 205.71875 109.785156 205.71875 L 109.785156 140.902344 C 109.785156 140.898438 109.789062 140.894531 109.789062 140.894531 Z M 109.789062 140.894531 "/>
</clipPath>
<clipPath id="clip110">
  <path d="M 108.417969 140.285156 L 146.710938 140.285156 C 146.714844 140.285156 146.71875 140.320312 146.71875 140.359375 L 146.71875 335.195312 C 146.71875 335.234375 146.714844 335.265625 146.710938 335.265625 L 108.417969 335.265625 C 108.414062 335.265625 108.414062 335.234375 108.414062 335.195312 L 108.414062 140.359375 C 108.414062 140.320312 108.414062 140.285156 108.417969 140.285156 Z M 108.417969 140.285156 "/>
</clipPath>
</defs>
<g id="surface1">
<g clip-path="url(#clip1)" clip-rule="nonzero">
<g clip-path="url(#clip2)" clip-rule="nonzero">
<path style=" stroke:none;fill-rule:evenodd;fill:rgb(21.568627%,78.431373%,44.313725%);fill-opacity:1;" d="M 117.0625 138.625 L 138.8125 138.625 C 138.828125 138.625 138.835938 138.640625 138.835938 138.65625 L 138.835938 332.699219 C 138.835938 332.71875 138.828125 332.730469 138.8125 332.730469 L 117.0625 332.730469 C 117.046875 332.730469 117.03125 332.71875 117.03125 332.699219 L 117.03125 138.65625 C 117.03125 138.640625 117.046875 138.625 117.0625 138.625 Z M 117.0625 138.625 "/>
</g>
</g>
<g clip-path="url(#clip3)" clip-rule="nonzero">
<g clip-path="url(#clip4)" clip-rule="nonzero">
<g clip-path="url(#clip5)" clip-rule="nonzero">
<path style=" stroke:none;fill-rule:evenodd;fill:rgb(21.568627%,78.431373%,44.313725%);fill-opacity:1;" d="M 111.476562 219.996094 L 140.742188 203.726562 C 140.75 203.726562 140.757812 203.726562 140.761719 203.734375 L 144.128906 209.351562 C 144.132812 209.355469 144.132812 209.363281 144.125 209.367188 L 114.859375 225.632812 C 114.855469 225.640625 114.84375 225.636719 114.84375 225.628906 L 111.476562 220.015625 C 111.46875 220.007812 111.472656 220 111.476562 219.996094 Z M 111.476562 219.996094 "/>
</g>
</g>
</g>
<g clip-path="url(#clip6)" clip-rule="nonzero">
<g clip-path="url(#clip7)" clip-rule="nonzero">
<g clip-path="url(#clip8)" clip-rule="nonzero">
<path style=" stroke:none;fill-rule:evenodd;fill:rgb(21.568627%,78.431373%,44.313725%);fill-opacity:1;" d="M 111.476562 193.132812 L 140.742188 176.867188 C 140.75 176.863281 140.757812 176.867188 140.761719 176.875 L 144.128906 182.488281 C 144.132812 182.492188 144.132812 182.5 144.125 182.507812 L 114.859375 198.773438 C 114.855469 198.777344 114.84375 198.773438 114.84375 198.765625 L 111.476562 193.152344 C 111.46875 193.148438 111.472656 193.140625 111.476562 193.132812 Z M 111.476562 193.132812 "/>
</g>
</g>
</g>
<g clip-path="url(#clip9)" clip-rule="nonzero">
<g clip-path="url(#clip10)" clip-rule="nonzero">
<g clip-path="url(#clip11)" clip-rule="nonzero">
<path style=" stroke:none;fill-rule:evenodd;fill:rgb(21.568627%,78.431373%,44.313725%);fill-opacity:1;" d="M 111.476562 211.039062 L 140.742188 194.773438 C 140.75 194.773438 140.757812 194.773438 140.761719 194.78125 L 144.128906 200.394531 C 144.132812 200.402344 144.132812 200.410156 144.125 200.414062 L 114.859375 216.679688 C 114.855469 216.6875 114.84375 216.679688 114.84375 216.675781 L 111.476562 211.0625 C 111.46875 211.054688 111.472656 211.046875 111.476562 211.039062 Z M 111.476562 211.039062 "/>
</g>
</g>
</g>
<g clip-path="url(#clip12)" clip-rule="nonzero">
<g clip-path="url(#clip13)" clip-rule="nonzero">
<g clip-path="url(#clip14)" clip-rule="nonzero">
<path style=" stroke:none;fill-rule:evenodd;fill:rgb(21.568627%,78.431373%,44.313725%);fill-opacity:1;" d="M 111.476562 166.273438 L 140.742188 150.007812 C 140.75 150 140.757812 150.003906 140.761719 150.011719 L 144.128906 155.625 C 144.132812 155.632812 144.132812 155.640625 144.125 155.644531 L 114.859375 171.914062 C 114.855469 171.914062 114.84375 171.914062 114.84375 171.90625 L 111.476562 166.289062 C 111.46875 166.285156 111.472656 166.277344 111.476562 166.273438 Z M 111.476562 166.273438 "/>
</g>
</g>
</g>
<g clip-path="url(#clip15)" clip-rule="nonzero">
<g clip-path="url(#clip16)" clip-rule="nonzero">
<g clip-path="url(#clip17)" clip-rule="nonzero">
<path style=" stroke:none;fill-rule:evenodd;fill:rgb(21.568627%,78.431373%,44.313725%);fill-opacity:1;" d="M 111.476562 175.226562 L 140.742188 158.960938 C 140.75 158.953125 140.757812 158.960938 140.761719 158.964844 L 144.128906 164.578125 C 144.132812 164.585938 144.132812 164.59375 144.125 164.601562 L 114.859375 180.867188 C 114.855469 180.867188 114.84375 180.867188 114.84375 180.859375 L 111.476562 175.246094 C 111.46875 175.238281 111.472656 175.230469 111.476562 175.226562 Z M 111.476562 175.226562 "/>
</g>
</g>
</g>
<g clip-path="url(#clip18)" clip-rule="nonzero">
<g clip-path="url(#clip19)" clip-rule="nonzero">
<g clip-path="url(#clip20)" clip-rule="nonzero">
<path style=" stroke:none;fill-rule:evenodd;fill:rgb(21.568627%,78.431373%,44.313725%);fill-opacity:1;" d="M 111.476562 202.085938 L 140.742188 185.820312 C 140.75 185.816406 140.757812 185.820312 140.761719 185.828125 L 144.128906 191.441406 C 144.132812 191.449219 144.132812 191.457031 144.125 191.460938 L 114.859375 207.726562 C 114.855469 207.730469 114.84375 207.726562 114.84375 207.722656 L 111.476562 202.109375 C 111.46875 202.101562 111.472656 202.09375 111.476562 202.085938 Z M 111.476562 202.085938 "/>
</g>
</g>
</g>
<g clip-path="url(#clip21)" clip-rule="nonzero">
<g clip-path="url(#clip22)" clip-rule="nonzero">
<g clip-path="url(#clip23)" clip-rule="nonzero">
<path style=" stroke:none;fill-rule:evenodd;fill:rgb(21.568627%,78.431373%,44.313725%);fill-opacity:1;" d="M 111.476562 157.320312 L 140.742188 141.050781 C 140.75 141.046875 140.757812 141.050781 140.761719 141.054688 L 144.128906 146.671875 C 144.132812 146.679688 144.132812 146.6875 144.125 146.691406 L 114.859375 162.960938 C 114.855469 162.960938 114.84375 162.960938 114.84375 162.953125 L 111.476562 157.335938 C 111.46875 157.328125 111.472656 157.320312 111.476562 157.320312 Z M 111.476562 157.320312 "/>
</g>
</g>
</g>
<g clip-path="url(#clip24)" clip-rule="nonzero">
<g clip-path="url(#clip25)" clip-rule="nonzero">
<g clip-path="url(#clip26)" clip-rule="nonzero">
<path style=" stroke:none;fill-rule:evenodd;fill:rgb(21.568627%,78.431373%,44.313725%);fill-opacity:1;" d="M 111.476562 184.179688 L 140.742188 167.914062 C 140.75 167.910156 140.757812 167.914062 140.761719 167.917969 L 144.128906 173.53125 C 144.132812 173.539062 144.132812 173.546875 144.125 173.554688 L 114.859375 189.820312 C 114.855469 189.824219 114.84375 189.820312 114.84375 189.8125 L 111.476562 184.199219 C 111.46875 184.191406 111.472656 184.183594 111.476562 184.179688 Z M 111.476562 184.179688 "/>
</g>
</g>
</g>
<g clip-path="url(#clip27)" clip-rule="nonzero">
<g clip-path="url(#clip28)" clip-rule="nonzero">
<g clip-path="url(#clip29)" clip-rule="nonzero">
<path style=" stroke:none;fill-rule:evenodd;fill:rgb(21.568627%,78.431373%,44.313725%);fill-opacity:1;" d="M 111.476562 148.367188 L 140.742188 132.097656 C 140.75 132.09375 140.757812 132.097656 140.761719 132.101562 L 144.128906 137.71875 C 144.132812 137.726562 144.132812 137.734375 144.125 137.738281 L 114.859375 154.007812 C 114.855469 154.007812 114.84375 154.007812 114.84375 154 L 111.476562 148.382812 C 111.46875 148.375 111.472656 148.367188 111.476562 148.367188 Z M 111.476562 148.367188 "/>
</g>
</g>
</g>
<g clip-path="url(#clip30)" clip-rule="nonzero">
<g clip-path="url(#clip31)" clip-rule="nonzero">
<g clip-path="url(#clip32)" clip-rule="nonzero">
<path style=" stroke:none;fill-rule:evenodd;fill:rgb(21.568627%,78.431373%,44.313725%);fill-opacity:1;" d="M 144.125 219.996094 L 114.859375 203.726562 C 114.855469 203.726562 114.84375 203.726562 114.84375 203.734375 L 111.476562 209.351562 C 111.46875 209.355469 111.472656 209.363281 111.476562 209.367188 L 140.742188 225.632812 C 140.75 225.640625 140.757812 225.636719 140.761719 225.628906 L 144.128906 220.015625 C 144.132812 220.007812 144.132812 220 144.125 219.996094 Z M 144.125 219.996094 "/>
</g>
</g>
</g>
<g clip-path="url(#clip33)" clip-rule="nonzero">
<g clip-path="url(#clip34)" clip-rule="nonzero">
<g clip-path="url(#clip35)" clip-rule="nonzero">
<path style=" stroke:none;fill-rule:evenodd;fill:rgb(21.568627%,78.431373%,44.313725%);fill-opacity:1;" d="M 144.125 193.132812 L 114.859375 176.867188 C 114.855469 176.863281 114.84375 176.867188 114.84375 176.875 L 111.476562 182.488281 C 111.46875 182.492188 111.472656 182.5 111.476562 182.507812 L 140.742188 198.773438 C 140.75 198.777344 140.757812 198.773438 140.761719 198.765625 L 144.128906 193.152344 C 144.132812 193.148438 144.132812 193.140625 144.125 193.132812 Z M 144.125 193.132812 "/>
</g>
</g>
</g>
<g clip-path="url(#clip36)" clip-rule="nonzero">
<g clip-path="url(#clip37)" clip-rule="nonzero">
<g clip-path="url(#clip38)" clip-rule="nonzero">
<path style=" stroke:none;fill-rule:evenodd;fill:rgb(21.568627%,78.431373%,44.313725%);fill-opacity:1;" d="M 144.125 211.039062 L 114.859375 194.773438 C 114.855469 194.773438 114.84375 194.773438 114.84375 194.78125 L 111.476562 200.394531 C 111.46875 200.402344 111.472656 200.410156 111.476562 200.414062 L 140.742188 216.679688 C 140.75 216.6875 140.757812 216.679688 140.761719 216.675781 L 144.128906 211.0625 C 144.132812 211.054688 144.132812 211.046875 144.125 211.039062 Z M 144.125 211.039062 "/>
</g>
</g>
</g>
<g clip-path="url(#clip39)" clip-rule="nonzero">
<g clip-path="url(#clip40)" clip-rule="nonzero">
<g clip-path="url(#clip41)" clip-rule="nonzero">
<path style=" stroke:none;fill-rule:evenodd;fill:rgb(21.568627%,78.431373%,44.313725%);fill-opacity:1;" d="M 144.125 166.273438 L 114.859375 150.007812 C 114.855469 150 114.84375 150.003906 114.84375 150.011719 L 111.476562 155.625 C 111.46875 155.632812 111.472656 155.640625 111.476562 155.644531 L 140.742188 171.914062 C 140.75 171.914062 140.757812 171.914062 140.761719 171.90625 L 144.128906 166.289062 C 144.132812 166.285156 144.132812 166.277344 144.125 166.273438 Z M 144.125 166.273438 "/>
</g>
</g>
</g>
<g clip-path="url(#clip42)" clip-rule="nonzero">
<g clip-path="url(#clip43)" clip-rule="nonzero">
<g clip-path="url(#clip44)" clip-rule="nonzero">
<path style=" stroke:none;fill-rule:evenodd;fill:rgb(21.568627%,78.431373%,44.313725%);fill-opacity:1;" d="M 144.125 175.226562 L 114.859375 158.960938 C 114.855469 158.953125 114.84375 158.960938 114.84375 158.964844 L 111.476562 164.578125 C 111.46875 164.585938 111.472656 164.59375 111.476562 164.601562 L 140.742188 180.867188 C 140.75 180.867188 140.757812 180.867188 140.761719 180.859375 L 144.128906 175.246094 C 144.132812 175.238281 144.132812 175.230469 144.125 175.226562 Z M 144.125 175.226562 "/>
</g>
</g>
</g>
<g clip-path="url(#clip45)" clip-rule="nonzero">
<g clip-path="url(#clip46)" clip-rule="nonzero">
<g clip-path="url(#clip47)" clip-rule="nonzero">
<path style=" stroke:none;fill-rule:evenodd;fill:rgb(21.568627%,78.431373%,44.313725%);fill-opacity:1;" d="M 144.125 202.085938 L 114.859375 185.820312 C 114.855469 185.816406 114.84375 185.820312 114.84375 185.828125 L 111.476562 191.441406 C 111.46875 191.449219 111.472656 191.457031 111.476562 191.460938 L 140.742188 207.726562 C 140.75 207.730469 140.757812 207.726562 140.761719 207.722656 L 144.128906 202.109375 C 144.132812 202.101562 144.132812 202.09375 144.125 202.085938 Z M 144.125 202.085938 "/>
</g>
</g>
</g>
<g clip-path="url(#clip48)" clip-rule="nonzero">
<g clip-path="url(#clip49)" clip-rule="nonzero">
<g clip-path="url(#clip50)" clip-rule="nonzero">
<path style=" stroke:none;fill-rule:evenodd;fill:rgb(21.568627%,78.431373%,44.313725%);fill-opacity:1;" d="M 144.125 157.320312 L 114.859375 141.050781 C 114.855469 141.046875 114.84375 141.050781 114.84375 141.054688 L 111.476562 146.671875 C 111.46875 146.679688 111.472656 146.6875 111.476562 146.691406 L 140.742188 162.960938 C 140.75 162.960938 140.757812 162.960938 140.761719 162.953125 L 144.128906 157.335938 C 144.132812 157.328125 144.132812 157.320312 144.125 157.320312 Z M 144.125 157.320312 "/>
</g>
</g>
</g>
<g clip-path="url(#clip51)" clip-rule="nonzero">
<g clip-path="url(#clip52)" clip-rule="nonzero">
<g clip-path="url(#clip53)" clip-rule="nonzero">
<path style=" stroke:none;fill-rule:evenodd;fill:rgb(21.568627%,78.431373%,44.313725%);fill-opacity:1;" d="M 144.125 184.179688 L 114.859375 167.914062 C 114.855469 167.910156 114.84375 167.914062 114.84375 167.917969 L 111.476562 173.53125 C 111.46875 173.539062 111.472656 173.546875 111.476562 173.554688 L 140.742188 189.820312 C 140.75 189.824219 140.757812 189.820312 140.761719 189.8125 L 144.128906 184.199219 C 144.132812 184.191406 144.132812 184.183594 144.125 184.179688 Z M 144.125 184.179688 "/>
</g>
</g>
</g>
<g clip-path="url(#clip54)" clip-rule="nonzero">
<g clip-path="url(#clip55)" clip-rule="nonzero">
<g clip-path="url(#clip56)" clip-rule="nonzero">
<path style=" stroke:none;fill-rule:evenodd;fill:rgb(21.568627%,78.431373%,44.313725%);fill-opacity:1;" d="M 144.125 148.367188 L 114.859375 132.097656 C 114.855469 132.09375 114.84375 132.097656 114.84375 132.101562 L 111.476562 137.71875 C 111.46875 137.726562 111.472656 137.734375 111.476562 137.738281 L 140.742188 154.007812 C 140.75 154.007812 140.757812 154.007812 140.761719 154 L 144.128906 148.382812 C 144.132812 148.375 144.132812 148.367188 144.125 148.367188 Z M 144.125 148.367188 "/>
</g>
</g>
</g>
<g clip-path="url(#clip57)" clip-rule="nonzero">
<g clip-path="url(#clip58)" clip-rule="nonzero">
<g clip-path="url(#clip59)" clip-rule="nonzero">
<path style=" stroke:none;fill-rule:evenodd;fill:rgb(21.568627%,78.431373%,44.313725%);fill-opacity:1;" d="M 111.476562 219.996094 L 140.742188 203.726562 C 140.75 203.726562 140.757812 203.726562 140.761719 203.734375 L 144.128906 209.351562 C 144.132812 209.355469 144.132812 209.363281 144.125 209.367188 L 114.859375 225.632812 C 114.855469 225.640625 114.84375 225.636719 114.84375 225.628906 L 111.476562 220.015625 C 111.46875 220.007812 111.472656 220 111.476562 219.996094 Z M 111.476562 219.996094 "/>
</g>
</g>
</g>
<g clip-path="url(#clip60)" clip-rule="nonzero">
<g clip-path="url(#clip61)" clip-rule="nonzero">
<g clip-path="url(#clip62)" clip-rule="nonzero">
<path style=" stroke:none;fill-rule:evenodd;fill:rgb(21.568627%,78.431373%,44.313725%);fill-opacity:1;" d="M 111.476562 193.132812 L 140.742188 176.867188 C 140.75 176.863281 140.757812 176.867188 140.761719 176.875 L 144.128906 182.488281 C 144.132812 182.492188 144.132812 182.5 144.125 182.507812 L 114.859375 198.773438 C 114.855469 198.777344 114.84375 198.773438 114.84375 198.765625 L 111.476562 193.152344 C 111.46875 193.148438 111.472656 193.140625 111.476562 193.132812 Z M 111.476562 193.132812 "/>
</g>
</g>
</g>
<g clip-path="url(#clip63)" clip-rule="nonzero">
<g clip-path="url(#clip64)" clip-rule="nonzero">
<g clip-path="url(#clip65)" clip-rule="nonzero">
<path style=" stroke:none;fill-rule:evenodd;fill:rgb(21.568627%,78.431373%,44.313725%);fill-opacity:1;" d="M 111.476562 211.039062 L 140.742188 194.773438 C 140.75 194.773438 140.757812 194.773438 140.761719 194.78125 L 144.128906 200.394531 C 144.132812 200.402344 144.132812 200.410156 144.125 200.414062 L 114.859375 216.679688 C 114.855469 216.6875 114.84375 216.679688 114.84375 216.675781 L 111.476562 211.0625 C 111.46875 211.054688 111.472656 211.046875 111.476562 211.039062 Z M 111.476562 211.039062 "/>
</g>
</g>
</g>
<g clip-path="url(#clip66)" clip-rule="nonzero">
<g clip-path="url(#clip67)" clip-rule="nonzero">
<g clip-path="url(#clip68)" clip-rule="nonzero">
<path style=" stroke:none;fill-rule:evenodd;fill:rgb(21.568627%,78.431373%,44.313725%);fill-opacity:1;" d="M 111.476562 166.273438 L 140.742188 150.007812 C 140.75 150 140.757812 150.003906 140.761719 150.011719 L 144.128906 155.625 C 144.132812 155.632812 144.132812 155.640625 144.125 155.644531 L 114.859375 171.914062 C 114.855469 171.914062 114.84375 171.914062 114.84375 171.90625 L 111.476562 166.289062 C 111.46875 166.285156 111.472656 166.277344 111.476562 166.273438 Z M 111.476562 166.273438 "/>
</g>
</g>
</g>
<g clip-path="url(#clip69)" clip-rule="nonzero">
<g clip-path="url(#clip70)" clip-rule="nonzero">
<g clip-path="url(#clip71)" clip-rule="nonzero">
<path style=" stroke:none;fill-rule:evenodd;fill:rgb(21.568627%,78.431373%,44.313725%);fill-opacity:1;" d="M 111.476562 175.226562 L 140.742188 158.960938 C 140.75 158.953125 140.757812 158.960938 140.761719 158.964844 L 144.128906 164.578125 C 144.132812 164.585938 144.132812 164.59375 144.125 164.601562 L 114.859375 180.867188 C 114.855469 180.867188 114.84375 180.867188 114.84375 180.859375 L 111.476562 175.246094 C 111.46875 175.238281 111.472656 175.230469 111.476562 175.226562 Z M 111.476562 175.226562 "/>
</g>
</g>
</g>
<g clip-path="url(#clip72)" clip-rule="nonzero">
<g clip-path="url(#clip73)" clip-rule="nonzero">
<g clip-path="url(#clip74)" clip-rule="nonzero">
<path style=" stroke:none;fill-rule:evenodd;fill:rgb(21.568627%,78.431373%,44.313725%);fill-opacity:1;" d="M 111.476562 202.085938 L 140.742188 185.820312 C 140.75 185.816406 140.757812 185.820312 140.761719 185.828125 L 144.128906 191.441406 C 144.132812 191.449219 144.132812 191.457031 144.125 191.460938 L 114.859375 207.726562 C 114.855469 207.730469 114.84375 207.726562 114.84375 207.722656 L 111.476562 202.109375 C 111.46875 202.101562 111.472656 202.09375 111.476562 202.085938 Z M 111.476562 202.085938 "/>
</g>
</g>
</g>
<g clip-path="url(#clip75)" clip-rule="nonzero">
<g clip-path="url(#clip76)" clip-rule="nonzero">
<g clip-path="url(#clip77)" clip-rule="nonzero">
<path style=" stroke:none;fill-rule:evenodd;fill:rgb(21.568627%,78.431373%,44.313725%);fill-opacity:1;" d="M 111.476562 157.320312 L 140.742188 141.050781 C 140.75 141.046875 140.757812 141.050781 140.761719 141.054688 L 144.128906 146.671875 C 144.132812 146.679688 144.132812 146.6875 144.125 146.691406 L 114.859375 162.960938 C 114.855469 162.960938 114.84375 162.960938 114.84375 162.953125 L 111.476562 157.335938 C 111.46875 157.328125 111.472656 157.320312 111.476562 157.320312 Z M 111.476562 157.320312 "/>
</g>
</g>
</g>
<g clip-path="url(#clip78)" clip-rule="nonzero">
<g clip-path="url(#clip79)" clip-rule="nonzero">
<g clip-path="url(#clip80)" clip-rule="nonzero">
<path style=" stroke:none;fill-rule:evenodd;fill:rgb(21.568627%,78.431373%,44.313725%);fill-opacity:1;" d="M 111.476562 184.179688 L 140.742188 167.914062 C 140.75 167.910156 140.757812 167.914062 140.761719 167.917969 L 144.128906 173.53125 C 144.132812 173.539062 144.132812 173.546875 144.125 173.554688 L 114.859375 189.820312 C 114.855469 189.824219 114.84375 189.820312 114.84375 189.8125 L 111.476562 184.199219 C 111.46875 184.191406 111.472656 184.183594 111.476562 184.179688 Z M 111.476562 184.179688 "/>
</g>
</g>
</g>
<g clip-path="url(#clip81)" clip-rule="nonzero">
<g clip-path="url(#clip82)" clip-rule="nonzero">
<g clip-path="url(#clip83)" clip-rule="nonzero">
<path style=" stroke:none;fill-rule:evenodd;fill:rgb(21.568627%,78.431373%,44.313725%);fill-opacity:1;" d="M 111.476562 148.367188 L 140.742188 132.097656 C 140.75 132.09375 140.757812 132.097656 140.761719 132.101562 L 144.128906 137.71875 C 144.132812 137.726562 144.132812 137.734375 144.125 137.738281 L 114.859375 154.007812 C 114.855469 154.007812 114.84375 154.007812 114.84375 154 L 111.476562 148.382812 C 111.46875 148.375 111.472656 148.367188 111.476562 148.367188 Z M 111.476562 148.367188 "/>
</g>
</g>
</g>
<g clip-path="url(#clip84)" clip-rule="nonzero">
<g clip-path="url(#clip85)" clip-rule="nonzero">
<g clip-path="url(#clip86)" clip-rule="nonzero">
<path style=" stroke:none;fill-rule:evenodd;fill:rgb(21.568627%,78.431373%,44.313725%);fill-opacity:1;" d="M 144.125 219.996094 L 114.859375 203.726562 C 114.855469 203.726562 114.84375 203.726562 114.84375 203.734375 L 111.476562 209.351562 C 111.46875 209.355469 111.472656 209.363281 111.476562 209.367188 L 140.742188 225.632812 C 140.75 225.640625 140.757812 225.636719 140.761719 225.628906 L 144.128906 220.015625 C 144.132812 220.007812 144.132812 220 144.125 219.996094 Z M 144.125 219.996094 "/>
</g>
</g>
</g>
<g clip-path="url(#clip87)" clip-rule="nonzero">
<g clip-path="url(#clip88)" clip-rule="nonzero">
<g clip-path="url(#clip89)" clip-rule="nonzero">
<path style=" stroke:none;fill-rule:evenodd;fill:rgb(21.568627%,78.431373%,44.313725%);fill-opacity:1;" d="M 144.125 193.132812 L 114.859375 176.867188 C 114.855469 176.863281 114.84375 176.867188 114.84375 176.875 L 111.476562 182.488281 C 111.46875 182.492188 111.472656 182.5 111.476562 182.507812 L 140.742188 198.773438 C 140.75 198.777344 140.757812 198.773438 140.761719 198.765625 L 144.128906 193.152344 C 144.132812 193.148438 144.132812 193.140625 144.125 193.132812 Z M 144.125 193.132812 "/>
</g>
</g>
</g>
<g clip-path="url(#clip90)" clip-rule="nonzero">
<g clip-path="url(#clip91)" clip-rule="nonzero">
<g clip-path="url(#clip92)" clip-rule="nonzero">
<path style=" stroke:none;fill-rule:evenodd;fill:rgb(21.568627%,78.431373%,44.313725%);fill-opacity:1;" d="M 144.125 211.039062 L 114.859375 194.773438 C 114.855469 194.773438 114.84375 194.773438 114.84375 194.78125 L 111.476562 200.394531 C 111.46875 200.402344 111.472656 200.410156 111.476562 200.414062 L 140.742188 216.679688 C 140.75 216.6875 140.757812 216.679688 140.761719 216.675781 L 144.128906 211.0625 C 144.132812 211.054688 144.132812 211.046875 144.125 211.039062 Z M 144.125 211.039062 "/>
</g>
</g>
</g>
<g clip-path="url(#clip93)" clip-rule="nonzero">
<g clip-path="url(#clip94)" clip-rule="nonzero">
<g clip-path="url(#clip95)" clip-rule="nonzero">
<path style=" stroke:none;fill-rule:evenodd;fill:rgb(21.568627%,78.431373%,44.313725%);fill-opacity:1;" d="M 144.125 166.273438 L 114.859375 150.007812 C 114.855469 150 114.84375 150.003906 114.84375 150.011719 L 111.476562 155.625 C 111.46875 155.632812 111.472656 155.640625 111.476562 155.644531 L 140.742188 171.914062 C 140.75 171.914062 140.757812 171.914062 140.761719 171.90625 L 144.128906 166.289062 C 144.132812 166.285156 144.132812 166.277344 144.125 166.273438 Z M 144.125 166.273438 "/>
</g>
</g>
</g>
<g clip-path="url(#clip96)" clip-rule="nonzero">
<g clip-path="url(#clip97)" clip-rule="nonzero">
<g clip-path="url(#clip98)" clip-rule="nonzero">
<path style=" stroke:none;fill-rule:evenodd;fill:rgb(21.568627%,78.431373%,44.313725%);fill-opacity:1;" d="M 144.125 175.226562 L 114.859375 158.960938 C 114.855469 158.953125 114.84375 158.960938 114.84375 158.964844 L 111.476562 164.578125 C 111.46875 164.585938 111.472656 164.59375 111.476562 164.601562 L 140.742188 180.867188 C 140.75 180.867188 140.757812 180.867188 140.761719 180.859375 L 144.128906 175.246094 C 144.132812 175.238281 144.132812 175.230469 144.125 175.226562 Z M 144.125 175.226562 "/>
</g>
</g>
</g>
<g clip-path="url(#clip99)" clip-rule="nonzero">
<g clip-path="url(#clip100)" clip-rule="nonzero">
<g clip-path="url(#clip101)" clip-rule="nonzero">
<path style=" stroke:none;fill-rule:evenodd;fill:rgb(21.568627%,78.431373%,44.313725%);fill-opacity:1;" d="M 144.125 202.085938 L 114.859375 185.820312 C 114.855469 185.816406 114.84375 185.820312 114.84375 185.828125 L 111.476562 191.441406 C 111.46875 191.449219 111.472656 191.457031 111.476562 191.460938 L 140.742188 207.726562 C 140.75 207.730469 140.757812 207.726562 140.761719 207.722656 L 144.128906 202.109375 C 144.132812 202.101562 144.132812 202.09375 144.125 202.085938 Z M 144.125 202.085938 "/>
</g>
</g>
</g>
<g clip-path="url(#clip102)" clip-rule="nonzero">
<g clip-path="url(#clip103)" clip-rule="nonzero">
<g clip-path="url(#clip104)" clip-rule="nonzero">
<path style=" stroke:none;fill-rule:evenodd;fill:rgb(21.568627%,78.431373%,44.313725%);fill-opacity:1;" d="M 144.125 157.320312 L 114.859375 141.050781 C 114.855469 141.046875 114.84375 141.050781 114.84375 141.054688 L 111.476562 146.671875 C 111.46875 146.679688 111.472656 146.6875 111.476562 146.691406 L 140.742188 162.960938 C 140.75 162.960938 140.757812 162.960938 140.761719 162.953125 L 144.128906 157.335938 C 144.132812 157.328125 144.132812 157.320312 144.125 157.320312 Z M 144.125 157.320312 "/>
</g>
</g>
</g>
<g clip-path="url(#clip105)" clip-rule="nonzero">
<g clip-path="url(#clip106)" clip-rule="nonzero">
<g clip-path="url(#clip107)" clip-rule="nonzero">
<path style=" stroke:none;fill-rule:evenodd;fill:rgb(21.568627%,78.431373%,44.313725%);fill-opacity:1;" d="M 144.125 184.179688 L 114.859375 167.914062 C 114.855469 167.910156 114.84375 167.914062 114.84375 167.917969 L 111.476562 173.53125 C 111.46875 173.539062 111.472656 173.546875 111.476562 173.554688 L 140.742188 189.820312 C 140.75 189.824219 140.757812 189.820312 140.761719 189.8125 L 144.128906 184.199219 C 144.132812 184.191406 144.132812 184.183594 144.125 184.179688 Z M 144.125 184.179688 "/>
</g>
</g>
</g>
<g clip-path="url(#clip108)" clip-rule="nonzero">
<g clip-path="url(#clip109)" clip-rule="nonzero">
<g clip-path="url(#clip110)" clip-rule="nonzero">
<path style=" stroke:none;fill-rule:evenodd;fill:rgb(21.568627%,78.431373%,44.313725%);fill-opacity:1;" d="M 144.125 148.367188 L 114.859375 132.097656 C 114.855469 132.09375 114.84375 132.097656 114.84375 132.101562 L 111.476562 137.71875 C 111.46875 137.726562 111.472656 137.734375 111.476562 137.738281 L 140.742188 154.007812 C 140.75 154.007812 140.757812 154.007812 140.761719 154 L 144.128906 148.382812 C 144.132812 148.375 144.132812 148.367188 144.125 148.367188 Z M 144.125 148.367188 "/>
</g>
</g>
</g>
<path style=" stroke:none;fill-rule:evenodd;fill:rgb(21.568627%,78.431373%,44.313725%);fill-opacity:1;" d="M 90.84375 133.226562 C 81.925781 133.203125 74.058594 135.570312 70.589844 142.730469 C 66.53125 151.117188 75.480469 158.585938 85.328125 153.5 C 99.429688 146.21875 121.429688 145.992188 128 145.746094 C 134.570312 145.992188 156.570312 146.21875 170.671875 153.5 C 180.519531 158.585938 189.46875 151.117188 185.410156 142.730469 C 176.398438 124.121094 137.699219 137.910156 128 141.71875 C 122.03125 139.375 105.101562 133.257812 90.84375 133.226562 Z M 90.84375 133.226562 "/>
<path style=" stroke:none;fill-rule:evenodd;fill:rgb(21.568627%,78.431373%,44.313725%);fill-opacity:1;" d="M 128.128906 42.75 C 127.6875 42.75 127.238281 42.765625 126.785156 42.796875 C 110.882812 44.03125 103.054688 66.269531 114.871094 87.765625 C 125.773438 107.585938 125.453125 135.492188 124.898438 146.210938 L 135.207031 146.210938 C 134.269531 139.0625 131.765625 112.515625 141.84375 86.269531 C 151.335938 61.53125 141.867188 42.875 128.128906 42.75 Z M 128.128906 42.75 "/>
<path style=" stroke:none;fill-rule:evenodd;fill:rgb(21.568627%,78.431373%,44.313725%);fill-opacity:1;" d="M 128.929688 146.234375 L 127.195312 51.8125 "/>
<path style=" stroke:none;fill-rule:evenodd;fill:rgb(21.568627%,78.431373%,44.313725%);fill-opacity:1;" d="M 130.546875 146.234375 L 128.8125 51.8125 "/>
<path style=" stroke:none;fill-rule:evenodd;fill:rgb(21.568627%,78.431373%,44.313725%);fill-opacity:1;" d="M 83.386719 58.203125 C 82.457031 58.210938 81.511719 58.273438 80.546875 58.40625 C 66.71875 60.253906 64.777344 77.605469 79.265625 85.710938 C 103.914062 99.507812 125.398438 135.570312 126.046875 134.9375 L 128 133.871094 L 129.953125 134.9375 C 130.601562 135.570312 152.085938 99.507812 176.734375 85.710938 C 191.222656 77.605469 189.28125 60.253906 175.453125 58.40625 C 147.632812 54.679688 132.929688 103.40625 128 123.933594 C 123.242188 104.117188 109.375 58.015625 83.386719 58.203125 Z M 83.386719 58.203125 "/>
<path style=" stroke:none;fill-rule:evenodd;fill:rgb(21.568627%,78.431373%,44.313725%);fill-opacity:1;" d="M 73.378906 87.375 C 70.007812 87.375 66.71875 88.183594 63.582031 90.015625 C 53.054688 96.179688 57.351562 110.820312 71.765625 112.464844 C 96.289062 115.265625 125.777344 137.085938 126.085938 136.355469 L 128 133.960938 L 129.914062 136.355469 C 130.222656 137.085938 159.710938 115.265625 184.234375 112.464844 C 198.648438 110.820312 202.945312 96.179688 192.417969 90.015625 C 167.429688 75.394531 132.515625 125.839844 128 132.585938 C 124.050781 126.6875 96.859375 87.371094 73.378906 87.375 Z M 73.378906 87.375 "/>
<path style=" stroke:none;fill-rule:evenodd;fill:rgb(21.568627%,78.431373%,44.313725%);fill-opacity:1;" d="M 75.59375 111.429688 C 69.847656 111.457031 64.660156 113.179688 60.644531 117.421875 C 52.554688 125.96875 60.480469 138.375 74.28125 136.007812 C 91.242188 133.105469 113.273438 138.699219 124.234375 141.742188 L 124.953125 143.492188 C 124.96875 143.625 126.078125 143.335938 128 142.796875 C 129.921875 143.335938 131.03125 143.625 131.046875 143.492188 L 131.765625 141.742188 C 142.726562 138.699219 164.757812 133.105469 181.71875 136.007812 C 195.519531 138.375 203.445312 125.96875 195.355469 117.421875 C 178.46875 99.578125 140.898438 126.289062 128 136.410156 C 118.171875 128.695312 94.015625 111.351562 75.59375 111.429688 Z M 75.59375 111.429688 "/>
<path style=" stroke:none;fill-rule:evenodd;fill:rgb(21.568627%,78.431373%,44.313725%);fill-opacity:1;" d="M 127.773438 131.585938 C 127.773438 131.585938 153.632812 68.742188 176.792969 67.433594 "/>
<path style=" stroke:none;fill-rule:evenodd;fill:rgb(21.568627%,78.431373%,44.313725%);fill-opacity:1;" d="M 125.300781 140.132812 C 125.300781 140.132812 175.570312 112.640625 191.449219 124.054688 "/>
<path style=" stroke:none;fill-rule:evenodd;fill:rgb(21.568627%,78.431373%,44.313725%);fill-opacity:1;" d="M 129.289062 132.917969 C 129.289062 132.917969 171.34375 90.992188 190.453125 97.75 "/>
<path style=" stroke:none;fill-rule:evenodd;fill:rgb(21.568627%,78.431373%,44.313725%);fill-opacity:1;" d="M 127.09375 143.109375 C 127.09375 143.109375 171.617188 134.382812 180.875 146.804688 "/>
<path style=" stroke:none;fill-rule:evenodd;fill:rgb(21.568627%,78.431373%,44.313725%);fill-opacity:1;" d="M 128.226562 131.585938 C 128.226562 131.585938 102.367188 68.742188 79.207031 67.433594 "/>
<path style=" stroke:none;fill-rule:evenodd;fill:rgb(21.568627%,78.431373%,44.313725%);fill-opacity:1;" d="M 130.699219 140.132812 C 130.699219 140.132812 80.429688 112.640625 64.550781 124.054688 "/>
<path style=" stroke:none;fill-rule:evenodd;fill:rgb(21.568627%,78.431373%,44.313725%);fill-opacity:1;" d="M 126.710938 132.917969 C 126.710938 132.917969 84.65625 90.992188 65.546875 97.75 "/>
<path style=" stroke:none;fill-rule:evenodd;fill:rgb(21.568627%,78.431373%,44.313725%);fill-opacity:1;" d="M 128.90625 143.109375 C 128.90625 143.109375 84.382812 134.382812 75.125 146.804688 "/>
<path style=" stroke:none;fill-rule:evenodd;fill:rgb(21.568627%,78.431373%,44.313725%);fill-opacity:1;" d="M 128.601562 132.257812 C 128.601562 132.257812 154.464844 69.414062 177.625 68.109375 "/>
<path style=" stroke:none;fill-rule:evenodd;fill:rgb(21.568627%,78.431373%,44.313725%);fill-opacity:1;" d="M 125.492188 141.015625 C 125.492188 141.015625 175.757812 113.523438 191.640625 124.9375 "/>
<path style=" stroke:none;fill-rule:evenodd;fill:rgb(21.568627%,78.431373%,44.313725%);fill-opacity:1;" d="M 129.730469 133.742188 C 129.730469 133.742188 171.785156 91.8125 190.898438 98.574219 "/>
<path style=" stroke:none;fill-rule:evenodd;fill:rgb(21.568627%,78.431373%,44.313725%);fill-opacity:1;" d="M 127.398438 132.257812 C 127.398438 132.257812 101.535156 69.414062 78.375 68.109375 "/>
<path style=" stroke:none;fill-rule:evenodd;fill:rgb(21.568627%,78.431373%,44.313725%);fill-opacity:1;" d="M 130.507812 141.015625 C 130.507812 141.015625 80.242188 113.523438 64.359375 124.9375 "/>
<path style=" stroke:none;fill-rule:evenodd;fill:rgb(21.568627%,78.431373%,44.313725%);fill-opacity:1;" d="M 126.269531 133.742188 C 126.269531 133.742188 84.214844 91.8125 65.101562 98.574219 "/>
<path style=" stroke:none;fill-rule:evenodd;fill:rgb(21.568627%,78.431373%,44.313725%);fill-opacity:1;" d="M 127.027344 143.820312 C 127.027344 143.820312 171.550781 135.09375 180.804688 147.515625 "/>
<path style=" stroke:none;fill-rule:evenodd;fill:rgb(21.568627%,78.431373%,44.313725%);fill-opacity:1;" d="M 128.972656 143.820312 C 128.972656 143.820312 84.449219 135.09375 75.195312 147.515625 "/>
<path style=" stroke:none;fill-rule:evenodd;fill:rgb(23.921569%,77.254902%,90.588235%);fill-opacity:1;" d="M 84.152344 18.210938 C 41.425781 35.9375 13.570312 77.632812 13.554688 123.890625 C 13.609375 182.796875 58.371094 232.039062 117.007812 237.695312 L 117.007812 215.667969 C 70.527344 210.101562 35.53125 170.699219 35.492188 123.890625 C 35.527344 89.886719 54.210938 58.644531 84.152344 42.53125 Z M 171.847656 18.28125 L 171.847656 42.464844 C 201.804688 58.59375 220.496094 89.867188 220.507812 123.890625 C 220.445312 170.679688 185.453125 210.0625 138.992188 215.625 L 138.992188 237.789062 C 197.664062 232.125 242.4375 182.828125 242.445312 123.890625 C 242.40625 77.65625 214.550781 35.992188 171.847656 18.28125 Z M 171.847656 18.28125 "/>
</g>
</svg>
