
<svg xmlns="http://www.w3.org/2000/svg" xmlns:xlink="http://www.w3.org/1999/xlink" width="256px" height="256px" viewBox="0 0 256 256" version="1.1">
<g id="surface1">
<path style="fill-rule:nonzero;fill:rgb(72.156863%,0%,0%);fill-opacity:1;stroke-width:1.199;stroke-linecap:butt;stroke-linejoin:miter;stroke:rgb(0%,0%,0%);stroke-opacity:1;stroke-miterlimit:4;" d="M 68.367188 11.9375 L 443.632812 11.9375 C 474.796875 11.9375 500.0625 37.203125 500.0625 68.367188 L 500.0625 443.632812 C 500.0625 474.796875 474.796875 500.0625 443.632812 500.0625 L 68.367188 500.0625 C 37.203125 500.0625 11.9375 474.796875 11.9375 443.632812 L 11.9375 68.367188 C 11.9375 37.203125 37.203125 11.9375 68.367188 11.9375 Z M 68.367188 11.9375 " transform="matrix(0.5,0,0,0.5,0,0)"/>
<path style=" stroke:none;fill-rule:nonzero;fill:rgb(100%,33.333333%,33.333333%);fill-opacity:1;" d="M 30.210938 19.847656 L 225.789062 19.847656 C 231.515625 19.847656 236.152344 24.484375 236.152344 30.210938 L 236.152344 225.789062 C 236.152344 231.515625 231.515625 236.152344 225.789062 236.152344 L 30.210938 236.152344 C 24.484375 236.152344 19.847656 231.515625 19.847656 225.789062 L 19.847656 30.210938 C 19.847656 24.484375 24.484375 19.847656 30.210938 19.847656 Z M 30.210938 19.847656 "/>
<path style=" stroke:none;fill-rule:nonzero;fill:rgb(100%,100%,100%);fill-opacity:1;" d="M 52.882812 53.210938 L 52.882812 72.578125 C 53.023438 72.652344 53.167969 72.726562 53.300781 72.8125 L 86.84375 94.695312 C 88.398438 95.707031 88.398438 97.335938 86.84375 98.351562 L 53.296875 120.226562 C 53.164062 120.3125 53.023438 120.390625 52.882812 120.460938 L 52.882812 139.832031 C 53.832031 139.609375 54.726562 139.25 55.492188 138.753906 L 111.140625 102.453125 L 111.140625 91.128906 C 111.140625 90.953125 111.160156 90.78125 111.171875 90.609375 L 55.492188 54.289062 C 54.726562 53.789062 53.832031 53.4375 52.882812 53.210938 Z M 52.882812 53.210938 "/>
<path style=" stroke:none;fill-rule:nonzero;fill:rgb(100%,100%,100%);fill-opacity:1;" d="M 81.570312 145.273438 L 145.109375 145.273438 L 145.109375 163.265625 L 81.570312 163.265625 Z M 81.570312 145.273438 "/>
</g>
</svg>
