
<svg xmlns="http://www.w3.org/2000/svg" xmlns:xlink="http://www.w3.org/1999/xlink" width="256px" height="256px" viewBox="0 0 256 256" version="1.1">
<g id="surface1">
<path style="fill-rule:nonzero;fill:rgb(100%,100%,100%);fill-opacity:1;stroke-width:11.089861;stroke-linecap:butt;stroke-linejoin:miter;stroke:rgb(6.666667%,20.392157%,31.372549%);stroke-opacity:1;stroke-miterlimit:4;" d="M 31.347656 9.16748 L 168.652344 9.16748 C 180.9021 9.16748 190.83252 19.0979 190.83252 31.347656 L 190.83252 168.652344 C 190.83252 180.9021 180.9021 190.83252 168.652344 190.83252 L 31.347656 190.83252 C 19.0979 190.83252 9.16748 180.9021 9.16748 168.652344 L 9.16748 31.347656 C 9.16748 19.0979 19.0979 9.16748 31.347656 9.16748 Z M 31.347656 9.16748 " transform="matrix(1.28,0,0,1.28,0,0)"/>
<path style=" stroke:none;fill-rule:nonzero;fill:rgb(0.392157%,50.196078%,70.980392%);fill-opacity:1;" d="M 64.984375 213.53125 C 64.671875 212.554688 56.960938 175.265625 47.84375 130.667969 C 38.726562 86.070312 30.929688 48.140625 30.515625 46.382812 C 29.773438 43.1875 29.808594 43.179688 48.335938 43.179688 C 58.542969 43.179688 67.246094 43.746094 67.671875 44.4375 C 68.101562 45.125 71.3125 60.59375 74.808594 78.800781 C 78.304688 97.007812 81.8125 112.554688 82.601562 113.339844 C 84.703125 115.445312 85.8125 111.648438 93.320312 76.609375 C 97.007812 59.398438 100.507812 44.8125 101.09375 44.195312 C 101.679688 43.582031 109.132812 43.261719 117.652344 43.484375 L 133.140625 43.890625 L 140.289062 79.46875 C 143.15625 93.734375 143.296875 103.746094 145.476562 111.40625 C 149.855469 126.816406 156.445312 132.703125 167.828125 144.507812 C 178.929688 156.03125 177.9375 158.84375 178.503906 165.070312 C 179.328125 174.117188 178.066406 178.484375 160.359375 199.046875 L 146.246094 215.4375 L 138.46875 215.015625 L 130.691406 214.601562 L 124 180.804688 C 120.320312 162.21875 116.878906 146.578125 116.347656 146.046875 C 114.199219 143.898438 112.558594 149.070312 106.117188 178.324219 C 102.410156 195.144531 98.84375 210.351562 98.195312 212.109375 C 97.0625 215.164062 96.292969 215.3125 81.28125 215.3125 C 69.953125 215.3125 65.394531 214.8125 64.984375 213.53125 Z M 64.984375 213.53125 "/>
<path style=" stroke:none;fill-rule:nonzero;fill:rgb(94.901961%,56.078431%,4.313725%);fill-opacity:1;" d="M 155.191406 214.09375 C 154.78125 213.425781 156.085938 211.34375 158.101562 209.46875 C 164.648438 203.375 178.921875 184.867188 181.574219 179.035156 C 184.46875 172.679688 185.023438 160.6875 182.703125 154.585938 C 181.867188 152.382812 176.527344 145.78125 170.839844 139.914062 C 152.40625 120.898438 147.835938 110.460938 149.003906 90.019531 C 149.816406 75.78125 154.503906 63.828125 164.4375 50.667969 L 170.09375 43.179688 L 194.230469 43.179688 C 207.507812 43.179688 218.367188 43.722656 218.367188 44.386719 C 218.367188 45.050781 213.953125 50.601562 208.5625 56.726562 C 203.167969 62.84375 196.632812 71.351562 194.042969 75.632812 C 189.957031 82.375 189.335938 84.65625 189.355469 92.8125 C 189.367188 97.984375 190.234375 103.789062 191.277344 105.710938 C 192.320312 107.632812 198.769531 115.074219 205.605469 122.25 C 218.820312 136.125 223.414062 144.695312 225.054688 158.570312 C 226.710938 172.554688 220.484375 192.191406 208.792969 209.859375 L 205.1875 215.3125 L 180.566406 215.3125 C 167.023438 215.3125 155.605469 214.765625 155.191406 214.09375 Z M 155.191406 214.09375 "/>
</g>
</svg>
