
<svg xmlns="http://www.w3.org/2000/svg" xmlns:xlink="http://www.w3.org/1999/xlink" width="256px" height="256px" viewBox="0 0 256 256" version="1.1">
<g id="surface1">
<path style="fill-rule:nonzero;fill:rgb(36.862745%,64.705882%,83.137255%);fill-opacity:1;stroke-width:2.444939;stroke-linecap:butt;stroke-linejoin:miter;stroke:rgb(0%,23.921569%,29.019608%);stroke-opacity:1;stroke-miterlimit:4;" d="M 6.742676 1007.267686 L 41.258055 1007.267686 C 43.112547 1007.267686 44.615477 1008.770616 44.615477 1010.625108 L 44.615477 1046.099228 C 44.615477 1047.95372 43.112547 1049.457382 41.258055 1049.457382 L 6.742676 1049.457382 C 4.887451 1049.457382 3.384521 1047.95372 3.384521 1046.099228 L 3.384521 1010.625108 C 3.384521 1008.770616 4.887451 1007.267686 6.742676 1007.267686 Z M 6.742676 1007.267686 " transform="matrix(5.333334,0,0,5.333334,0,-5356.5984)"/>
<path style=" stroke:none;fill-rule:evenodd;fill:rgb(88.235294%,32.156863%,32.156863%);fill-opacity:1;" d="M 148.765625 22.746094 L 215.75 22.746094 C 224.359375 21.910156 229.304688 25.039062 231.085938 31.597656 L 231.085938 223.351562 C 229.5 232.105469 225.148438 232.882812 220.789062 233.648438 L 87.054688 233.648438 Z M 148.765625 22.746094 "/>
<path style=" stroke:none;fill-rule:nonzero;fill:rgb(100%,100%,100%);fill-opacity:1;" d="M 103.867188 53.375 C 101.828125 53.375 100.21875 55.070312 100.21875 57.140625 L 100.21875 64.441406 C 96.570312 65.414062 93.101562 66.886719 89.914062 68.742188 L 84.675781 63.558594 C 83.941406 62.828125 83.09375 62.390625 82.144531 62.382812 C 81.195312 62.371094 80.214844 62.71875 79.492188 63.441406 L 69.3125 73.625 C 67.867188 75.070312 67.960938 77.339844 69.429688 78.804688 L 74.609375 84.046875 C 72.753906 87.234375 71.28125 90.703125 70.3125 94.351562 L 63.007812 94.351562 C 60.9375 94.351562 59.242188 95.960938 59.242188 98 L 59.242188 112.363281 C 59.242188 114.402344 60.9375 116.015625 63.007812 116.015625 L 70.3125 116.015625 C 71.28125 119.660156 72.753906 123.128906 74.609375 126.316406 L 69.429688 131.554688 C 67.960938 133.023438 67.867188 135.296875 69.3125 136.734375 L 79.492188 146.921875 C 80.9375 148.363281 83.210938 148.269531 84.675781 146.804688 L 89.914062 141.625 C 93.101562 143.476562 96.570312 144.949219 100.21875 145.921875 L 100.21875 153.21875 C 100.21875 155.296875 101.828125 156.988281 103.867188 156.988281 L 118.234375 156.988281 C 120.273438 156.988281 121.882812 155.296875 121.882812 153.21875 L 121.882812 145.921875 C 125.527344 144.949219 129 143.476562 132.1875 141.625 L 137.421875 146.804688 C 138.890625 148.269531 141.164062 148.363281 142.605469 146.921875 L 152.789062 136.734375 C 154.234375 135.296875 154.140625 133.023438 152.671875 131.554688 L 147.492188 126.316406 C 149.34375 123.128906 150.820312 119.660156 151.789062 116.015625 L 159.089844 116.015625 C 161.164062 116.015625 162.859375 114.402344 162.859375 112.363281 L 162.859375 98 C 162.859375 95.960938 161.164062 94.351562 159.089844 94.351562 L 151.789062 94.351562 C 150.820312 90.703125 149.34375 87.234375 147.492188 84.046875 L 152.671875 78.804688 C 154.140625 77.339844 154.234375 75.070312 152.789062 73.625 L 142.605469 63.441406 C 141.164062 62 138.890625 62.09375 137.421875 63.558594 L 132.1875 68.742188 C 129 66.886719 125.527344 65.414062 121.882812 64.441406 L 121.882812 57.140625 C 121.882812 55.070312 120.273438 53.375 118.234375 53.375 Z M 111.050781 78.804688 C 125.617188 78.804688 137.421875 90.617188 137.421875 105.179688 C 137.421875 119.75 125.617188 131.554688 111.050781 131.554688 C 96.484375 131.554688 84.675781 119.75 84.675781 105.179688 C 84.675781 90.617188 96.484375 78.804688 111.050781 78.804688 Z M 111.050781 78.804688 "/>
<path style=" stroke:none;fill-rule:nonzero;fill:rgb(100%,100%,100%);fill-opacity:1;" d="M 147.984375 143.898438 C 146.84375 143.796875 145.855469 144.664062 145.75 145.820312 L 145.382812 149.90625 C 143.292969 150.269531 141.277344 150.917969 139.398438 151.796875 L 136.726562 148.632812 C 136.351562 148.183594 135.898438 147.898438 135.371094 147.84375 C 134.839844 147.792969 134.273438 147.9375 133.835938 148.304688 L 127.617188 153.492188 C 126.742188 154.226562 126.679688 155.5 127.421875 156.398438 L 130.0625 159.59375 C 128.859375 161.28125 127.863281 163.148438 127.132812 165.140625 L 123.046875 164.773438 C 121.890625 164.667969 120.859375 165.484375 120.757812 166.625 L 120.03125 174.664062 C 119.929688 175.804688 120.796875 176.796875 121.957031 176.898438 L 126.042969 177.265625 C 126.402344 179.359375 127.054688 181.375 127.929688 183.25 L 124.765625 185.921875 C 123.871094 186.667969 123.703125 187.9375 124.4375 188.816406 L 129.625 195.03125 C 130.359375 195.910156 131.636719 195.972656 132.53125 195.226562 L 135.726562 192.589844 C 137.414062 193.789062 139.28125 194.789062 141.273438 195.515625 L 140.90625 199.601562 C 140.804688 200.761719 141.617188 201.789062 142.757812 201.894531 L 150.796875 202.617188 C 151.941406 202.71875 152.929688 201.851562 153.03125 200.695312 L 153.398438 196.609375 C 155.492188 196.246094 157.507812 195.597656 159.382812 194.71875 L 162.054688 197.882812 C 162.804688 198.78125 164.070312 198.945312 164.949219 198.210938 L 171.164062 193.023438 C 172.042969 192.289062 172.105469 191.015625 171.359375 190.117188 L 168.722656 186.925781 C 169.921875 185.234375 170.921875 183.367188 171.648438 181.375 L 175.734375 181.742188 C 176.894531 181.847656 177.921875 181.03125 178.027344 179.890625 L 178.75 171.851562 C 178.851562 170.710938 177.984375 169.71875 176.828125 169.617188 L 172.742188 169.25 C 172.382812 167.160156 171.730469 165.140625 170.851562 163.265625 L 174.015625 160.59375 C 174.914062 159.847656 175.078125 158.578125 174.34375 157.699219 L 169.15625 151.484375 C 168.421875 150.605469 167.148438 150.542969 166.25 151.289062 L 163.058594 153.925781 C 161.367188 152.726562 159.5 151.726562 157.507812 151 L 157.875 146.914062 C 157.980469 145.753906 157.164062 144.726562 156.023438 144.625 Z M 150.71875 158.496094 C 158.875 159.230469 164.890625 166.433594 164.15625 174.585938 C 163.421875 182.742188 156.214844 188.753906 148.0625 188.019531 C 139.910156 187.285156 133.894531 180.082031 134.628906 171.929688 C 135.363281 163.773438 142.570312 157.761719 150.71875 158.496094 Z M 150.71875 158.496094 "/>
<path style=" stroke:none;fill-rule:nonzero;fill:rgb(100%,100%,100%);fill-opacity:1;" d="M 175 109.46875 C 174.195312 109.390625 173.496094 110.007812 173.421875 110.828125 L 173.164062 113.714844 C 171.6875 113.96875 170.257812 114.429688 168.933594 115.046875 L 167.046875 112.8125 C 166.78125 112.496094 166.460938 112.292969 166.085938 112.257812 C 165.710938 112.21875 165.308594 112.320312 165 112.578125 L 160.605469 116.25 C 159.984375 116.765625 159.9375 117.671875 160.46875 118.300781 L 162.328125 120.558594 C 161.484375 121.753906 160.777344 123.074219 160.265625 124.484375 L 157.375 124.222656 C 156.554688 124.148438 155.828125 124.726562 155.753906 125.53125 L 155.242188 131.21875 C 155.171875 132.023438 155.78125 132.71875 156.601562 132.796875 L 159.492188 133.054688 C 159.746094 134.53125 160.203125 135.957031 160.824219 137.285156 L 158.585938 139.171875 C 157.953125 139.703125 157.835938 140.597656 158.359375 141.21875 L 162.023438 145.609375 C 162.542969 146.234375 163.445312 146.277344 164.078125 145.75 L 166.335938 143.886719 C 167.53125 144.734375 168.851562 145.4375 170.257812 145.953125 L 170 148.84375 C 169.921875 149.664062 170.5 150.390625 171.308594 150.460938 L 176.992188 150.976562 C 177.796875 151.046875 178.496094 150.4375 178.570312 149.617188 L 178.828125 146.726562 C 180.308594 146.472656 181.734375 146.015625 183.0625 145.390625 L 184.949219 147.628906 C 185.476562 148.261719 186.375 148.378906 186.992188 147.859375 L 191.386719 144.195312 C 192.007812 143.675781 192.054688 142.773438 191.523438 142.140625 L 189.664062 139.882812 C 190.507812 138.6875 191.21875 137.367188 191.730469 135.960938 L 194.617188 136.21875 C 195.4375 136.292969 196.164062 135.714844 196.242188 134.90625 L 196.75 129.226562 C 196.824219 128.417969 196.210938 127.71875 195.390625 127.648438 L 192.5 127.386719 C 192.25 125.910156 191.789062 124.484375 191.171875 123.15625 L 193.40625 121.265625 C 194.039062 120.742188 194.15625 119.84375 193.636719 119.222656 L 189.96875 114.828125 C 189.453125 114.207031 188.546875 114.164062 187.914062 114.691406 L 185.65625 116.554688 C 184.460938 115.707031 183.140625 115 181.734375 114.484375 L 181.992188 111.601562 C 182.070312 110.777344 181.492188 110.050781 180.6875 109.976562 Z M 176.9375 119.785156 C 182.699219 120.304688 186.953125 125.398438 186.429688 131.160156 C 185.914062 136.921875 180.820312 141.175781 175.054688 140.65625 C 169.292969 140.136719 165.039062 135.046875 165.5625 129.28125 C 166.078125 123.515625 171.171875 119.265625 176.9375 119.785156 Z M 176.9375 119.785156 "/>
</g>
</svg>
