<?xml version="1.0" encoding="UTF-8"?>
<svg xmlns="http://www.w3.org/2000/svg" xmlns:xlink="http://www.w3.org/1999/xlink" width="32pt" height="32pt" viewBox="0 0 32 32" version="1.1">
<g id="surface1">
<path style=" stroke:none;fill-rule:nonzero;fill:rgb(30.196078%,30.196078%,30.196078%);fill-opacity:1;" d="M 4.363281 4.363281 L 4.363281 27.636719 L 5.816406 27.636719 L 5.816406 16 L 13.089844 16 L 13.089844 17.453125 L 20.363281 17.453125 L 20.363281 7.273438 L 13.089844 7.273438 L 13.089844 5.816406 L 5.816406 5.816406 L 5.816406 4.363281 Z M 24.726562 8.726562 L 23.273438 10.183594 L 21.816406 11.636719 L 24.726562 14.546875 L 24.726562 12.675781 C 25.636719 14.046875 26.183594 15.679688 26.183594 17.453125 C 26.183594 22.289062 22.289062 26.183594 17.453125 26.183594 L 17.453125 27.636719 C 23.09375 27.636719 27.636719 23.09375 27.636719 17.453125 C 27.636719 14.675781 26.519531 12.183594 24.726562 10.351562 Z M 24.726562 8.726562 "/>
</g>
</svg>
