
<svg xmlns="http://www.w3.org/2000/svg" xmlns:xlink="http://www.w3.org/1999/xlink" width="512px" height="512px" viewBox="0 0 512 512" version="1.1">
<g id="surface1">
<path style="fill-rule:nonzero;fill:rgb(100%,100%,100%);fill-opacity:1;stroke-width:28.191782;stroke-linecap:butt;stroke-linejoin:miter;stroke:rgb(16.078431%,50.196078%,72.54902%);stroke-opacity:1;stroke-miterlimit:4;" d="M 81.480469 25.097656 L 430.519531 25.097656 C 461.660156 25.097656 486.902344 50.339844 486.902344 81.480469 L 486.902344 430.519531 C 486.902344 461.660156 461.660156 486.902344 430.519531 486.902344 L 81.480469 486.902344 C 50.339844 486.902344 25.097656 461.660156 25.097656 430.519531 L 25.097656 81.480469 C 25.097656 50.339844 50.339844 25.097656 81.480469 25.097656 Z M 81.480469 25.097656 "/>
<path style=" stroke:none;fill-rule:nonzero;fill:rgb(100%,78.431373%,19.215686%);fill-opacity:1;" d="M 227.921875 405.914062 C 218.660156 373.289062 210.15625 344.214844 209.023438 341.308594 C 206.613281 335.128906 203.164062 334.320312 201.925781 339.640625 C 200.953125 343.800781 186.371094 436.933594 186.296875 439.449219 C 186.183594 443.167969 183.335938 436.878906 171.675781 407.199219 L 159.660156 376.617188 L 159.765625 349.929688 L 159.871094 323.238281 L 167.1875 343.0625 C 171.210938 353.964844 175.210938 363.878906 176.074219 365.09375 C 178.941406 369.109375 181.128906 366.550781 182.9375 357.070312 C 184.800781 347.292969 194.492188 271.859375 196.179688 254.015625 C 196.714844 248.355469 197.597656 243.726562 198.148438 243.726562 C 198.695312 243.726562 203.304688 258.363281 208.390625 276.253906 C 219.21875 314.34375 234.960938 364.652344 236.921875 367.441406 C 238.789062 370.09375 240.925781 369.886719 242.664062 366.886719 C 243.910156 364.742188 259.261719 274.644531 265.261719 234.273438 L 267.246094 220.929688 L 269.121094 227.046875 C 270.152344 230.410156 276.242188 251.929688 282.65625 274.863281 C 300.472656 338.597656 301.867188 342.699219 305.671875 342.699219 C 306.742188 342.699219 307.964844 341.824219 308.394531 340.753906 C 309.609375 337.722656 313.226562 316.121094 318.222656 282.09375 C 320.734375 264.96875 323.269531 250.046875 323.851562 248.933594 C 324.566406 247.574219 327.6875 254 333.402344 268.597656 L 341.890625 290.285156 L 341.800781 315.65625 L 341.707031 341.03125 L 337.542969 330.109375 C 333.261719 318.878906 331.09375 315.847656 328.695312 317.734375 C 327.296875 318.832031 323.363281 339.960938 314.523438 393.855469 C 308.957031 427.773438 307.730469 433.96875 306.921875 432.21875 C 306.640625 431.609375 300.421875 406.835938 293.105469 377.171875 C 276.863281 311.34375 276.921875 311.554688 274.273438 310.792969 C 269.773438 309.496094 270.816406 304.453125 257.527344 391.628906 C 251.703125 429.855469 246.445312 462.058594 245.847656 463.1875 C 245.164062 464.476562 238.503906 443.199219 227.921875 405.914062 Z M 227.921875 405.914062 "/>
<path style=" stroke:none;fill-rule:nonzero;fill:rgb(16.078431%,50.196078%,72.54902%);fill-opacity:1;" d="M 255.847656 48.757812 C 235.878906 48.695312 215.992188 51.964844 195.992188 58.566406 C 135.96875 78.378906 92.015625 126.777344 75.496094 191.25 C 69.390625 215.089844 69.246094 217.332031 69.355469 286.433594 C 69.449219 344.351562 69.589844 349.332031 71.296875 357.726562 C 77.371094 387.582031 96.933594 411.003906 124.714844 422.542969 C 127.722656 423.792969 130.816406 425.042969 134.011719 426.003906 C 135.226562 426.367188 136.648438 426.585938 137.871094 427.085938 C 140.554688 428.171875 142.863281 429.695312 143.976562 430.660156 C 151.976562 437.59375 165.53125 425.257812 168.261719 417.640625 C 168.347656 417.40625 168.433594 414.613281 168.511719 411.410156 C 167.671875 406.773438 167.175781 402.003906 167.203125 397.117188 L 167.804688 276.523438 C 167.835938 270.75 168.441406 265.128906 169.605469 259.714844 L 167.769531 257.992188 C 163.96875 254.421875 167.753906 246.796875 159.628906 246.761719 C 152.914062 246.730469 151.28125 247.082031 146.046875 249.675781 C 142.777344 251.296875 137.0625 253.5 133.351562 254.570312 C 123.214844 257.496094 111.105469 263.988281 101.964844 271.390625 C 97.472656 275.027344 93.566406 278 93.285156 278 C 93.003906 278 92.882812 268.210938 93.023438 256.234375 L 93.273438 234.460938 L 96.082031 234.15625 C 97.628906 233.984375 98.84375 233.347656 99.183594 233 C 99.519531 232.65625 100.8125 227.738281 101.652344 221.816406 C 112.871094 142.683594 159.402344 93.164062 233.289062 81.722656 C 247.179688 79.570312 273.070312 79.570312 285.265625 81.722656 C 331.914062 89.949219 372.875 121.140625 394.839844 165.160156 C 404.351562 184.222656 409.027344 200.371094 411.503906 222.753906 C 412.324219 230.195312 412.941406 232.136719 413.867188 232.957031 C 414.230469 233.277344 414.472656 233.660156 415.097656 233.742188 C 419.460938 234.308594 419.664062 235.8125 419.644531 256.410156 C 419.640625 267 419.25 276.257812 418.789062 276.984375 C 418.125 278.027344 416.757812 277.230469 412.316406 273.210938 C 404.0625 265.746094 392.226562 259.050781 381.042969 255.535156 C 375.753906 253.871094 369.199219 251.449219 366.476562 250.148438 C 356.875 245.5625 349.300781 243.390625 343.449219 248.855469 L 340.554688 251.5625 L 340.558594 252 C 341.546875 257.003906 342.074219 262.175781 342.074219 267.476562 L 342.074219 407.371094 C 342.074219 411.785156 341.695312 416.113281 341.003906 420.328125 C 341.167969 424.917969 341.4375 427.324219 341.871094 428.164062 C 342.53125 429.453125 345.117188 431.515625 347.609375 432.75 C 351.289062 434.574219 346.347656 435.597656 352.546875 435.589844 C 360.84375 435.574219 363.523438 433.730469 367.871094 430.222656 C 368.542969 429.59375 372.402344 428.042969 374.710938 427.003906 C 376.824219 426.058594 379.445312 425.632812 381.972656 424.777344 C 395.972656 420.03125 405.238281 414.164062 416.382812 402.984375 C 427.445312 391.886719 433.382812 382.566406 438.304688 368.570312 C 445.566406 343.644531 441.777344 316.035156 441.9375 290.175781 C 442.234375 214.71875 442.15625 213.21875 436.5625 190.316406 C 428.210938 156.113281 411.511719 126.585938 386.753906 102.222656 C 366.65625 82.445312 342.617188 67.707031 316.171875 58.949219 C 295.855469 52.21875 275.8125 48.820312 255.847656 48.757812 Z M 255.847656 48.757812 "/>
</g>
</svg>
