
<svg xmlns="http://www.w3.org/2000/svg" xmlns:xlink="http://www.w3.org/1999/xlink" width="512px" height="512px" viewBox="0 0 512 512" version="1.1">
<g id="surface1">
<path style="fill-rule:nonzero;fill:rgb(100%,100%,100%);fill-opacity:1;stroke-width:28.191782;stroke-linecap:butt;stroke-linejoin:miter;stroke:rgb(11.764706%,72.54902%,85.098039%);stroke-opacity:1;stroke-miterlimit:4;" d="M 81.480469 25.097656 L 430.519531 25.097656 C 461.660156 25.097656 486.902344 50.339844 486.902344 81.480469 L 486.902344 430.519531 C 486.902344 461.660156 461.660156 486.902344 430.519531 486.902344 L 81.480469 486.902344 C 50.339844 486.902344 25.097656 461.660156 25.097656 430.519531 L 25.097656 81.480469 C 25.097656 50.339844 50.339844 25.097656 81.480469 25.097656 Z M 81.480469 25.097656 "/>
<path style=" stroke:none;fill-rule:nonzero;fill:rgb(25.882353%,74.901961%,98.039216%);fill-opacity:1;" d="M 258.613281 390.546875 C 257.105469 389.039062 257.472656 387.304688 261.496094 376.875 C 267.363281 361.667969 268.121094 358.601562 268.152344 350 C 268.175781 342.882812 268.050781 342.246094 266.34375 340.863281 C 265.332031 340.042969 263.648438 339.375 262.601562 339.375 C 258.046875 339.375 238.15625 333.597656 223.941406 328.144531 C 199.925781 318.929688 166.753906 297.828125 145.453125 278.210938 C 142.972656 275.921875 140.636719 274.050781 140.265625 274.050781 C 139.894531 274.050781 139.164062 275.363281 138.644531 276.964844 C 137.414062 280.742188 131.441406 292.878906 129.246094 296.070312 C 119.433594 310.3125 107.03125 320.152344 92.796875 324.992188 C 85.109375 327.609375 75.898438 329.265625 69.0625 329.265625 C 59.816406 329.265625 58.8125 326.792969 64.398438 317.8125 C 74.050781 302.300781 81.734375 282.828125 85.035156 265.496094 C 86.421875 258.214844 86.25 245.261719 84.660156 237.519531 C 82.042969 224.792969 76.457031 210.820312 67.566406 194.792969 C 61.464844 183.796875 61 182.207031 63.222656 179.988281 C 64.726562 178.484375 65.410156 178.382812 70.871094 178.859375 C 94.574219 180.921875 117.148438 196.542969 134.542969 222.917969 C 137.292969 227.085938 139.8125 230.5 140.140625 230.5 C 140.46875 230.5 144.132812 227.570312 148.28125 223.984375 C 164.789062 209.730469 187.445312 193.46875 201.96875 185.453125 C 210.65625 180.65625 214.800781 174.207031 215.503906 164.398438 C 216.210938 154.542969 212.4375 145.296875 201.5 130.078125 C 198.3125 125.640625 195.273438 121.199219 194.746094 120.203125 C 192.53125 116.011719 190.25 116.179688 248.726562 116.179688 L 302.816406 116.179688 L 307.488281 118.078125 C 322.707031 124.265625 339.578125 141.179688 347.28125 157.984375 L 350.613281 165.246094 L 356.054688 166.886719 C 370.585938 171.261719 388.148438 179.46875 400.011719 187.425781 C 421.667969 201.945312 440.90625 223.765625 452.34375 246.773438 C 455.246094 252.617188 455.597656 253.917969 455.59375 258.828125 C 455.582031 265.316406 453.6875 269.390625 445.5625 280.363281 C 424.035156 309.441406 391.976562 328.332031 350.222656 336.542969 C 344.878906 337.59375 339.152344 338.683594 337.5 338.964844 C 335.300781 339.339844 334.382812 339.933594 334.0625 341.175781 C 333.046875 345.144531 327.425781 354.632812 322.242188 361.128906 C 313.640625 371.914062 298.636719 385.261719 289.964844 389.84375 C 287.15625 391.328125 285.59375 391.480469 273.207031 391.480469 C 263.617188 391.480469 259.269531 391.203125 258.613281 390.546875 Z M 382.296875 272.335938 C 386.1875 271.019531 392.351562 266.664062 394.894531 263.441406 C 396.152344 261.84375 398.03125 258.4375 399.066406 255.871094 C 400.671875 251.898438 400.902344 250.261719 400.621094 244.851562 C 400.191406 236.679688 397.691406 231.328125 391.792969 225.933594 C 385.773438 220.433594 380.53125 218.597656 372 218.996094 C 366.3125 219.261719 364.699219 219.671875 360.46875 221.929688 C 354.773438 224.972656 350.867188 229.121094 348.003906 235.164062 C 346.316406 238.730469 345.980469 240.546875 345.980469 246.054688 C 345.980469 251.5625 346.320312 253.398438 348.03125 257.078125 C 351.800781 265.179688 359.519531 271.59375 367.503906 273.261719 C 371.308594 274.058594 378.5625 273.601562 382.296875 272.335938 Z M 368.164062 256.398438 C 364.433594 254.4375 362.503906 251.460938 362.121094 247.082031 C 361.675781 242 363.679688 238.460938 368.371094 236.046875 C 370.976562 234.703125 372.636719 234.335938 374.5 234.6875 C 380.785156 235.875 384.722656 240.566406 384.628906 246.746094 C 384.511719 254.683594 375.234375 260.121094 368.164062 256.398438 Z M 368.164062 256.398438 "/>
</g>
</svg>
