
<svg xmlns="http://www.w3.org/2000/svg" xmlns:xlink="http://www.w3.org/1999/xlink" width="512px" height="512px" viewBox="0 0 512 512" version="1.1">
<g id="surface1">
<path style="fill-rule:nonzero;fill:rgb(16.078431%,50.196078%,72.54902%);fill-opacity:1;stroke-width:6.392664;stroke-linecap:butt;stroke-linejoin:miter;stroke:rgb(21.568627%,20.784314%,22.745098%);stroke-opacity:1;stroke-miterlimit:4;" d="M 19.872871 936.2187 L 99.020332 936.2187 C 106.081856 936.2187 111.805488 941.94331 111.805488 949.004833 L 111.805488 1028.151318 C 111.805488 1035.212841 106.081856 1040.937451 99.020332 1040.937451 L 19.872871 1040.937451 C 12.812324 1040.937451 7.087715 1035.212841 7.087715 1028.151318 L 7.087715 949.004833 C 7.087715 941.94331 12.812324 936.2187 19.872871 936.2187 Z M 19.872871 936.2187 " transform="matrix(4,0,0,4,10.824921,-3698.312302)"/>
<path style=" stroke:none;fill-rule:nonzero;fill:rgb(21.568627%,20.784314%,22.745098%);fill-opacity:1;" d="M 47.070312 55.78125 L 446.957031 55.78125 L 446.957031 125.191406 L 47.070312 125.191406 Z M 47.070312 55.78125 "/>
<path style=" stroke:none;fill-rule:nonzero;fill:rgb(100%,100%,100%);fill-opacity:1;" d="M 328.824219 83.261719 L 354.742188 83.261719 L 354.742188 108.667969 L 328.824219 108.667969 Z M 328.824219 83.261719 "/>
<path style=" stroke:none;fill-rule:nonzero;fill:rgb(100%,100%,100%);fill-opacity:1;" d="M 376.390625 83.261719 L 402.308594 83.261719 L 402.308594 108.667969 L 376.390625 108.667969 Z M 376.390625 83.261719 "/>
<path style=" stroke:none;fill-rule:nonzero;fill:rgb(100%,100%,100%);fill-opacity:1;" d="M 281.257812 83.261719 L 307.175781 83.261719 L 307.175781 108.667969 L 281.257812 108.667969 Z M 281.257812 83.261719 "/>
<path style=" stroke:none;fill-rule:nonzero;fill:rgb(90.196078%,90.196078%,90.196078%);fill-opacity:1;" d="M 256 169.886719 C 190.136719 169.886719 136.738281 220.800781 136.738281 283.601562 C 136.738281 346.398438 190.136719 397.316406 256 397.316406 C 321.863281 397.316406 375.261719 346.398438 375.261719 283.601562 C 375.261719 220.800781 321.863281 169.886719 256 169.886719 Z M 300.722656 312.027344 L 300.722656 297.816406 L 270.90625 297.816406 L 270.90625 326.242188 L 285.816406 326.242188 L 256 354.671875 L 226.183594 326.242188 L 241.09375 326.242188 L 241.09375 297.816406 L 211.277344 297.816406 L 211.277344 312.027344 L 181.460938 283.601562 L 211.277344 255.171875 L 211.277344 269.386719 L 241.09375 269.386719 L 241.09375 240.957031 L 226.183594 240.957031 L 256 212.527344 L 285.816406 240.957031 L 270.90625 240.957031 L 270.90625 269.386719 L 300.722656 269.386719 L 300.722656 255.171875 L 330.539062 283.601562 Z M 300.722656 312.027344 "/>
</g>
</svg>
