
<svg xmlns="http://www.w3.org/2000/svg" xmlns:xlink="http://www.w3.org/1999/xlink" width="512px" height="512px" viewBox="0 0 512 512" version="1.1">
<g id="surface1">
<path style="fill-rule:nonzero;fill:rgb(83.137255%,0%,0%);fill-opacity:1;stroke-width:27.195292;stroke-linecap:butt;stroke-linejoin:miter;stroke:rgb(86.666667%,50.588235%,50.588235%);stroke-opacity:1;stroke-miterlimit:4;" d="M 87.648438 573.620013 L 424.351562 573.620013 C 454.390625 573.620013 478.742188 597.971575 478.742188 628.010638 L 478.742188 964.713763 C 478.742188 994.752825 454.390625 1019.104388 424.351562 1019.104388 L 87.648438 1019.104388 C 57.609375 1019.104388 33.257812 994.752825 33.257812 964.713763 L 33.257812 628.010638 C 33.257812 597.971575 57.609375 573.620013 87.648438 573.620013 Z M 87.648438 573.620013 " transform="matrix(1,0,0,1,0,-540.3622)"/>
<path style=" stroke:none;fill-rule:nonzero;fill:rgb(100%,100%,100%);fill-opacity:1;" d="M 377.457031 104.273438 L 377.457031 165.367188 C 316.46875 166.429688 301.480469 225.910156 301.480469 225.910156 L 347.480469 225.910156 L 347.480469 286.996094 L 276.15625 286.996094 C 233.257812 419.339844 134.542969 407.554688 134.542969 407.554688 L 134.542969 346.464844 C 134.542969 346.464844 197.183594 358.09375 229.125 241.449219 C 269.078125 95.546875 377.457031 104.273438 377.457031 104.273438 Z M 377.457031 104.273438 "/>
</g>
</svg>
