
<svg xmlns="http://www.w3.org/2000/svg" xmlns:xlink="http://www.w3.org/1999/xlink" width="512px" height="512px" viewBox="0 0 512 512" version="1.1">
<g id="surface1">
<path style="fill-rule:nonzero;fill:rgb(16.078431%,50.196078%,72.54902%);fill-opacity:1;stroke-width:6.392664;stroke-linecap:butt;stroke-linejoin:miter;stroke:rgb(21.568627%,20.784314%,22.745098%);stroke-opacity:1;stroke-miterlimit:4;" d="M 19.873339 936.219384 L 99.020341 936.219384 C 106.08171 936.219384 111.80572 941.943394 111.80572 949.004763 L 111.80572 1028.151765 C 111.80572 1035.213134 106.08171 1040.937144 99.020341 1040.937144 L 19.873339 1040.937144 C 12.81197 1040.937144 7.08796 1035.213134 7.08796 1028.151765 L 7.08796 949.004763 C 7.08796 941.943394 12.81197 936.219384 19.873339 936.219384 Z M 19.873339 936.219384 " transform="matrix(4.150554,0,0,4.150554,7.670884,-3844.856452)"/>
<path style=" stroke:none;fill-rule:nonzero;fill:rgb(21.568627%,20.784314%,22.745098%);fill-opacity:1;" d="M 45.277344 50.535156 L 460.21875 50.535156 L 460.21875 122.558594 L 45.277344 122.558594 Z M 45.277344 50.535156 "/>
<path style=" stroke:none;fill-rule:nonzero;fill:rgb(100%,100%,100%);fill-opacity:1;" d="M 337.640625 79.050781 L 364.53125 79.050781 L 364.53125 105.414062 L 337.640625 105.414062 Z M 337.640625 79.050781 "/>
<path style=" stroke:none;fill-rule:nonzero;fill:rgb(100%,100%,100%);fill-opacity:1;" d="M 386.996094 79.050781 L 413.890625 79.050781 L 413.890625 105.414062 L 386.996094 105.414062 Z M 386.996094 79.050781 "/>
<path style=" stroke:none;fill-rule:nonzero;fill:rgb(100%,100%,100%);fill-opacity:1;" d="M 288.28125 79.050781 L 315.175781 79.050781 L 315.175781 105.414062 L 288.28125 105.414062 Z M 288.28125 79.050781 "/>
<path style=" stroke:none;fill-rule:nonzero;fill:rgb(92.54902%,94.117647%,94.509804%);fill-opacity:1;" d="M 272.460938 171.351562 L 237.625 174.800781 L 237.625 317.242188 L 272.078125 312.261719 L 272.078125 251.378906 L 318.011719 318.773438 L 353.992188 307.285156 L 306.910156 242.574219 L 354.375 181.308594 L 317.628906 172.882812 L 272.078125 234.148438 Z M 193.988281 206.195312 C 193.597656 206.195312 193.132812 206.414062 192.839844 206.589844 L 179.441406 220.375 C 178.871094 220.972656 178.640625 221.976562 179.058594 222.675781 L 194.753906 248.710938 C 191.933594 253.449219 189.859375 258.640625 188.246094 264.023438 L 159.152344 270.152344 C 158.34375 270.378906 157.625 270.855469 157.625 271.6875 L 157.625 290.835938 C 157.625 291.644531 158.375 292.546875 159.152344 292.742188 L 187.480469 299.636719 C 188.988281 305.878906 191.277344 311.8125 194.371094 317.246094 L 177.910156 342.140625 C 177.453125 342.84375 177.691406 343.851562 178.292969 344.4375 L 191.691406 357.839844 C 192.261719 358.390625 193.292969 358.667969 193.988281 358.234375 L 219.636719 342.535156 C 224.679688 345.445312 229.964844 347.875 235.710938 349.425781 L 241.835938 378.144531 C 242.011719 378.976562 242.542969 379.679688 243.367188 379.679688 L 262.507812 379.679688 C 263.3125 379.679688 264.226562 378.933594 264.421875 378.144531 L 271.308594 349.425781 C 277.234375 347.824219 282.988281 345.195312 288.152344 342.152344 L 313.417969 359 C 314.113281 359.4375 315.121094 359.222656 315.714844 358.605469 L 329.109375 345.203125 C 329.6875 344.605469 329.914062 343.601562 329.496094 342.90625 L 320.308594 327.589844 L 317.246094 328.734375 C 316.808594 328.953125 316.355469 328.734375 316.097656 328.335938 C 316.097656 328.335938 310.308594 319.5625 302.699219 308.421875 C 293.605469 326.230469 275.070312 338.292969 253.703125 338.292969 C 223.34375 338.292969 198.582031 313.90625 198.582031 283.535156 C 198.582031 261.195312 211.996094 241.980469 231.117188 233.375 L 231.117188 219.207031 C 227.636719 220.433594 224.363281 221.675781 221.164062 223.421875 C 221.164062 223.421875 220.789062 223.421875 220.78125 223.421875 L 195.136719 206.570312 C 194.785156 206.351562 194.375 206.152344 193.988281 206.199219 Z M 193.988281 206.195312 "/>
</g>
</svg>
