
<svg xmlns="http://www.w3.org/2000/svg" xmlns:xlink="http://www.w3.org/1999/xlink" width="512px" height="512px" viewBox="0 0 512 512" version="1.1">
<g id="surface1">
<path style="fill-rule:nonzero;fill:rgb(100%,100%,100%);fill-opacity:1;stroke-width:27.910587;stroke-linecap:butt;stroke-linejoin:miter;stroke:rgb(9.019608%,36.862745%,60%);stroke-opacity:1;stroke-miterlimit:4;" d="M 84.910418 32.965663 L 430.472918 32.965663 C 461.301043 32.965663 486.29323 57.957851 486.29323 88.785976 L 486.29323 434.348476 C 486.29323 465.176601 461.301043 490.168789 430.472918 490.168789 L 84.910418 490.168789 C 54.082293 490.168789 29.090105 465.176601 29.090105 434.348476 L 29.090105 88.785976 C 29.090105 57.957851 54.082293 32.965663 84.910418 32.965663 Z M 84.910418 32.965663 " transform="matrix(1,0,0,1,-1.691668,-5.567226)"/>
<path style=" stroke:none;fill-rule:nonzero;fill:rgb(29.019608%,68.235294%,90.980392%);fill-opacity:1;" d="M 91.5625 41.390625 C 71.613281 41.566406 56.371094 62.441406 59.246094 82.84375 C 59.347656 201.527344 59.042969 320.21875 59.394531 438.898438 C 60.855469 458.984375 79.988281 473.3125 98.507812 470.617188 C 212.636719 470.511719 326.777344 470.824219 440.902344 470.457031 C 460.027344 468.945312 473.507812 448.664062 470.976562 429.164062 C 470.976562 356.398438 470.976562 283.636719 470.976562 210.871094 C 463.253906 192.71875 444.703125 181.6875 432.695312 166.410156 C 393.414062 125.601562 354.449219 84.425781 314.921875 43.902344 C 303.910156 38.925781 291.183594 42.449219 279.402344 41.390625 C 216.789062 41.390625 154.175781 41.390625 91.5625 41.390625 Z M 359.816406 41.390625 C 352.230469 42.007812 351.871094 53.058594 358.097656 56.273438 C 392.394531 91.746094 426.199219 127.855469 460.808594 162.929688 C 467.507812 166.703125 472.984375 158.1875 470.976562 151.703125 C 470.519531 124.363281 471.914062 96.875 470.226562 69.636719 C 467.199219 50.472656 448.109375 38.757812 430.515625 41.390625 C 406.949219 41.390625 383.382812 41.390625 359.816406 41.390625 Z M 359.816406 41.390625 "/>
<path style=" stroke:none;fill-rule:nonzero;fill:rgb(9.019608%,36.862745%,60%);fill-opacity:1;" d="M 36.816406 31.765625 L 119.058594 31.765625 L 119.058594 474.972656 L 36.816406 474.972656 Z M 36.816406 31.765625 "/>
<path style=" stroke:none;fill-rule:nonzero;fill:rgb(100%,100%,100%);fill-opacity:1;" d="M 203.707031 384.007812 L 221.191406 384.007812 L 264.503906 241.289062 L 308.597656 384.007812 L 326.332031 384.007812 L 367.816406 223.023438 L 385.300781 219.382812 L 385.300781 208.945312 L 331.300781 208.945312 L 331.300781 219.382812 L 348.769531 222.507812 L 351.644531 226.164062 L 320.082031 348.523438 L 277.285156 208.945312 L 259.019531 208.945312 L 217.019531 345.648438 L 183.363281 225.117188 L 185.441406 221.460938 L 201.878906 219.382812 L 201.878906 208.945312 L 143.441406 208.945312 L 143.441406 219.382812 L 159.878906 223.023438 Z M 203.707031 384.007812 "/>
</g>
</svg>
