
<svg xmlns="http://www.w3.org/2000/svg" xmlns:xlink="http://www.w3.org/1999/xlink" width="512px" height="512px" viewBox="0 0 512 512" version="1.1">
<g id="surface1">
<path style="fill-rule:nonzero;fill:rgb(83.137255%,10.196078%,10.196078%);fill-opacity:1;stroke-width:27.746531;stroke-linecap:butt;stroke-linejoin:miter;stroke:rgb(88.627451%,53.72549%,53.72549%);stroke-opacity:1;stroke-miterlimit:4;" d="M 84.234375 28.742188 L 427.765625 28.742188 C 458.414062 28.742188 483.257812 53.585938 483.257812 84.234375 L 483.257812 427.765625 C 483.257812 458.414062 458.414062 483.257812 427.765625 483.257812 L 84.234375 483.257812 C 53.585938 483.257812 28.742188 458.414062 28.742188 427.765625 L 28.742188 84.234375 C 28.742188 53.585938 53.585938 28.742188 84.234375 28.742188 Z M 84.234375 28.742188 "/>
<path style=" stroke:none;fill-rule:nonzero;fill:rgb(100%,100%,100%);fill-opacity:1;" d="M 279.289062 117.246094 C 271.878906 117.253906 270.445312 117.398438 265.882812 118.609375 C 246.394531 123.796875 232.882812 135.421875 221.460938 156.828125 C 220.023438 159.523438 218.773438 161.726562 218.683594 161.726562 C 218.597656 161.726562 216.410156 159.632812 213.824219 157.078125 C 206.59375 149.925781 200.285156 146.761719 192.28125 146.277344 C 186.800781 145.945312 183.234375 146.703125 178.066406 149.285156 C 170.480469 153.082031 164.328125 161.007812 162.3125 169.582031 C 160.117188 178.910156 162.925781 189.472656 169.8125 197.808594 L 171.738281 200.136719 L 170.316406 201.125 C 166.777344 203.574219 161.734375 209.308594 160.082031 212.753906 C 156.757812 219.695312 157.609375 228.121094 162.28125 234.464844 C 164.785156 237.867188 168.460938 240.527344 171.269531 240.976562 C 172.324219 241.144531 173.269531 241.425781 173.371094 241.597656 C 173.46875 241.769531 173.34375 243.429688 173.089844 245.289062 C 172.496094 249.613281 173.214844 251.136719 176.824219 253.222656 C 189.117188 260.324219 232.535156 264.363281 279.273438 262.761719 C 319.429688 261.382812 343.773438 257.089844 345.914062 251.011719 C 346.351562 249.757812 346.238281 249.445312 344.925781 248.316406 L 343.441406 247.039062 L 344.683594 246.234375 C 345.367188 245.789062 347.027344 244.414062 348.367188 243.175781 C 357.242188 234.976562 355.214844 220.15625 344.253906 213.132812 C 342.78125 212.1875 341.691406 211.148438 341.832031 210.824219 C 346.746094 199.515625 347.742188 195.363281 348.058594 184.851562 C 348.332031 175.753906 347.746094 171.148438 345.417969 164.011719 C 338.894531 144.035156 321.203125 126.988281 300.097656 120.34375 C 292.117188 117.828125 288.15625 117.238281 279.289062 117.246094 Z M 307.113281 189.753906 C 309.136719 189.699219 311.226562 190.128906 313.222656 191.105469 C 323.121094 195.945312 321.792969 210.601562 311.167969 213.796875 C 308.09375 214.722656 306.78125 214.679688 303.429688 213.527344 C 296.671875 211.207031 293.464844 203.3125 296.574219 196.644531 C 298.5625 192.371094 302.667969 189.878906 307.113281 189.753906 Z M 222.503906 189.855469 C 225.519531 189.917969 228.199219 191.039062 230.535156 193.222656 C 234.152344 196.605469 235.382812 201.234375 233.941406 206.035156 C 232.574219 210.597656 227.164062 214.5 222.203125 214.5 C 220.617188 214.5 218.75 214.0625 217.148438 213.316406 C 211.34375 210.617188 208.636719 204.472656 210.5 198.230469 C 211.34375 195.410156 215.535156 191.152344 218.179688 190.433594 C 219.691406 190.019531 221.132812 189.828125 222.503906 189.855469 Z M 225.921875 192.933594 C 224.628906 192.949219 223.320312 193.605469 222.429688 195.042969 C 219.820312 199.269531 225.011719 203.519531 228.800781 200.261719 C 229.738281 199.457031 230.167969 198.601562 230.167969 197.539062 C 230.167969 194.664062 228.074219 192.910156 225.921875 192.933594 Z M 311.742188 193.136719 C 310.617188 193.078125 309.574219 193.59375 308.585938 194.699219 C 306.664062 196.847656 307.480469 200.367188 310.148438 201.445312 C 311.730469 202.082031 312.070312 202.039062 313.851562 200.953125 C 316.6875 199.222656 316.6875 195.625 313.851562 193.875 C 313.117188 193.421875 312.414062 193.175781 311.742188 193.136719 Z M 263.761719 215.265625 C 280.796875 215.265625 281.40625 215.296875 282.132812 216.269531 C 282.730469 217.070312 282.84375 218.519531 282.695312 223.308594 C 282.539062 228.328125 282.316406 229.738281 281.355469 231.710938 C 279.5 235.519531 276.578125 238.441406 272.847656 240.222656 C 269.949219 241.605469 268.851562 241.84375 264.710938 241.988281 C 261.574219 242.097656 259.195312 241.917969 257.804688 241.460938 C 252.765625 239.8125 248.671875 236.316406 246.253906 231.601562 C 244.929688 229.015625 244.835938 228.441406 244.835938 222.707031 C 244.835938 218.34375 245.027344 216.382812 245.492188 215.917969 C 246.003906 215.40625 249.964844 215.265625 263.761719 215.265625 Z M 348.160156 251.820312 C 347.730469 251.738281 347.097656 252.191406 346.757812 252.824219 C 344.195312 257.613281 329.4375 261.21875 302.773438 263.570312 C 290.671875 264.640625 250.71875 265.078125 235.53125 264.3125 C 203.613281 262.699219 183.054688 259.375 175.539062 254.613281 C 174.214844 253.773438 172.988281 253.226562 172.816406 253.398438 C 172.644531 253.570312 175.722656 280.011719 179.65625 312.152344 L 186.808594 370.597656 L 188.664062 372.523438 C 191.042969 374.992188 198.375 379.910156 203.570312 382.523438 C 215.550781 388.550781 232.722656 392.953125 250.117188 394.457031 C 257.277344 395.074219 274.179688 394.675781 281.496094 393.71875 C 298.152344 391.535156 312.945312 386.820312 323.742188 380.261719 C 327.554688 377.945312 334.519531 372.460938 335.152344 371.277344 C 335.421875 370.773438 338.824219 344.738281 342.707031 313.421875 C 350.011719 254.523438 350.214844 252.207031 348.160156 251.820312 Z M 322.46875 264.890625 C 322.703125 264.898438 322.855469 264.925781 322.898438 264.96875 C 323.320312 265.390625 316.546875 378.875 316.019531 380.1875 C 315.53125 381.398438 308.519531 384.253906 301.226562 386.207031 C 296.386719 387.503906 295.070312 387.675781 294.726562 387.058594 C 294.46875 386.597656 297.824219 267.699219 298.105469 267.421875 C 298.214844 267.3125 302.003906 266.898438 306.523438 266.507812 C 311.046875 266.113281 316.511719 265.539062 318.667969 265.226562 C 320.285156 264.992188 321.757812 264.867188 322.46875 264.890625 Z M 200.382812 264.90625 C 201.582031 264.945312 204.03125 265.164062 206.695312 265.484375 C 210.246094 265.914062 215.367188 266.417969 218.074219 266.605469 C 220.78125 266.789062 223.136719 267.171875 223.308594 267.453125 C 223.726562 268.128906 231.542969 386.976562 231.207031 387.519531 C 230.902344 388.015625 230.421875 387.992188 227.738281 387.371094 C 223.242188 386.332031 209.609375 381.789062 209.335938 381.242188 C 209.3125 381.191406 206.984375 355.054688 204.164062 323.160156 C 200.324219 279.71875 199.191406 265.109375 199.640625 264.9375 C 199.722656 264.90625 199.980469 264.894531 200.382812 264.90625 Z M 248.105469 268.28125 L 260.300781 268.414062 L 272.5 268.550781 L 272.9375 329.289062 C 273.1875 363.816406 273.1875 390.210938 272.9375 390.457031 C 272.417969 390.964844 260.886719 391.414062 256.003906 391.117188 C 253.960938 390.992188 252.496094 390.664062 252.367188 390.304688 C 252.136719 389.652344 248.101562 277.355469 248.105469 271.683594 Z M 248.105469 268.28125 "/>
</g>
</svg>
