
<svg xmlns="http://www.w3.org/2000/svg" xmlns:xlink="http://www.w3.org/1999/xlink" width="512px" height="512px" viewBox="0 0 512 512" version="1.1">
<g id="surface1">
<path style="fill-rule:nonzero;fill:rgb(100%,100%,100%);fill-opacity:1;stroke-width:7.007607;stroke-linecap:butt;stroke-linejoin:miter;stroke:rgb(9.019608%,36.862745%,60%);stroke-opacity:1;stroke-miterlimit:4;" d="M 20.619141 6.604492 L 107.380859 6.604492 C 115.121094 6.604492 121.395508 12.878906 121.395508 20.619141 L 121.395508 107.380859 C 121.395508 115.121094 115.121094 121.395508 107.380859 121.395508 L 20.619141 121.395508 C 12.878906 121.395508 6.604492 115.121094 6.604492 107.380859 L 6.604492 20.619141 C 6.604492 12.878906 12.878906 6.604492 20.619141 6.604492 Z M 20.619141 6.604492 " transform="matrix(4,0,0,4,0,0)"/>
<path style="fill-rule:nonzero;fill:rgb(0%,36.078431%,58.039216%);fill-opacity:1;stroke-width:0.962356;stroke-linecap:butt;stroke-linejoin:miter;stroke:rgb(0%,36.078431%,58.039216%);stroke-opacity:1;stroke-miterlimit:4;" d="M 823.000284 384.000197 L 813.000403 394.000077 L 813.000403 411.999862 L 823.000284 421.999743 Z M 823.000284 384.000197 " transform="matrix(4.923887,0,0,4.923887,-3855.47368,-1723.43764)"/>
<path style="fill-rule:nonzero;fill:rgb(0%,36.078431%,58.039216%);fill-opacity:1;stroke-width:0.962356;stroke-linecap:butt;stroke-linejoin:miter;stroke:rgb(0%,36.078431%,58.039216%);stroke-opacity:1;stroke-miterlimit:4;" d="M 808.37531 394.000077 C 804.311892 394.000077 804.000114 395.549444 804.000114 400.187231 L 804.000114 405.009069 C 804.000114 409.646856 804.411851 411.999862 808.37531 411.999862 L 811.000427 411.999862 L 811.000427 394.000077 Z M 808.37531 394.000077 " transform="matrix(4.923887,0,0,4.923887,-3855.47368,-1723.43764)"/>
<path style="fill:none;stroke-width:4.665237;stroke-linecap:butt;stroke-linejoin:round;stroke:rgb(0%,36.078431%,58.039216%);stroke-opacity:1;stroke-miterlimit:4;" d="M 62.041332 19.958869 C 68.682309 26.599846 72.413588 35.607611 72.413588 45.00035 C 72.413588 54.392329 68.682309 63.400094 62.041332 70.041071 " transform="matrix(5.144433,0,0,5.144433,11.465336,29.389341)"/>
<path style="fill:none;stroke-width:6.904553;stroke-linecap:butt;stroke-linejoin:round;stroke:rgb(0%,36.078431%,58.039216%);stroke-opacity:1;stroke-miterlimit:4;" d="M 62.04115 19.959153 C 68.682737 26.599616 72.413713 35.607901 72.413713 45.000521 C 72.413713 54.392017 68.682737 63.400302 62.04115 70.040765 " transform="matrix(3.475967,0,0,3.475967,73.198572,104.4703)"/>
<path style="fill:none;stroke-width:13.277991;stroke-linecap:butt;stroke-linejoin:round;stroke:rgb(0%,36.078431%,58.039216%);stroke-opacity:1;stroke-miterlimit:4;" d="M 62.040564 19.957804 C 68.681718 26.60112 72.413991 35.608712 72.413991 45.000985 C 72.413991 54.393259 68.681718 63.400851 62.040564 70.042005 " transform="matrix(1.807503,0,0,1.807503,134.931807,179.551209)"/>
</g>
</svg>
