
<svg xmlns="http://www.w3.org/2000/svg" xmlns:xlink="http://www.w3.org/1999/xlink" width="512px" height="512px" viewBox="0 0 512 512" version="1.1">
<defs>
<linearGradient id="linear0" gradientUnits="userSpaceOnUse" x1="1" y1="0" x2="47" y2="0" gradientTransform="matrix(0,-10.666667,10.666667,0,0.0236231,512.000011)">
<stop offset="0" style="stop-color:rgb(40.392157%,40.392157%,60%);stop-opacity:1;"/>
<stop offset="1" style="stop-color:rgb(45.098039%,45.098039%,63.137255%);stop-opacity:1;"/>
</linearGradient>
</defs>
<g id="surface1">
<path style=" stroke:none;fill-rule:nonzero;fill:rgb(0%,0%,0%);fill-opacity:0.0196078;" d="M 10.667969 458.667969 L 10.667969 461.332031 C 10.667969 484.96875 29.695312 504 53.332031 504 L 458.667969 504 C 482.304688 504 501.332031 484.96875 501.332031 461.332031 L 501.332031 458.667969 C 501.332031 482.304688 482.304688 501.332031 458.667969 501.332031 L 53.332031 501.332031 C 29.695312 501.332031 10.667969 482.304688 10.667969 458.667969 Z M 10.667969 464 L 10.667969 469.332031 C 10.667969 492.96875 29.695312 512 53.332031 512 L 458.667969 512 C 482.304688 512 501.332031 492.96875 501.332031 469.332031 L 501.332031 464 C 501.332031 487.636719 482.304688 506.667969 458.667969 506.667969 L 53.332031 506.667969 C 29.695312 506.667969 10.667969 487.636719 10.667969 464 Z M 10.667969 464 "/>
<path style=" stroke:none;fill-rule:nonzero;fill:rgb(0%,0%,0%);fill-opacity:0.0509804;" d="M 10.667969 461.332031 L 10.667969 464 C 10.667969 487.636719 29.695312 506.667969 53.332031 506.667969 L 458.667969 506.667969 C 482.304688 506.667969 501.332031 487.636719 501.332031 464 L 501.332031 461.332031 C 501.332031 484.96875 482.304688 504 458.667969 504 L 53.332031 504 C 29.695312 504 10.667969 484.96875 10.667969 461.332031 Z M 10.667969 461.332031 "/>
<path style=" stroke:none;fill-rule:nonzero;fill:rgb(0%,0%,0%);fill-opacity:0.101961;" d="M 10.667969 458.667969 L 10.667969 461.332031 C 10.667969 484.96875 29.695312 504 53.332031 504 L 458.667969 504 C 482.304688 504 501.332031 484.96875 501.332031 461.332031 L 501.332031 458.667969 C 501.332031 482.304688 482.304688 501.332031 458.667969 501.332031 L 53.332031 501.332031 C 29.695312 501.332031 10.667969 482.304688 10.667969 458.667969 Z M 10.667969 458.667969 "/>
<path style=" stroke:none;fill-rule:nonzero;fill:url(#linear0);" d="M 10.667969 458.667969 L 10.667969 53.332031 C 10.667969 29.769531 29.769531 10.667969 53.332031 10.667969 L 458.667969 10.667969 C 482.230469 10.667969 501.332031 29.769531 501.332031 53.332031 L 501.332031 458.667969 C 501.332031 482.230469 482.230469 501.332031 458.667969 501.332031 L 53.332031 501.332031 C 29.769531 501.332031 10.667969 482.230469 10.667969 458.667969 Z M 10.667969 458.667969 "/>
<path style=" stroke:none;fill-rule:nonzero;fill:rgb(80%,80%,80%);fill-opacity:1;" d="M 292.847656 110.335938 C 277.308594 110.335938 264.507812 124.59375 261.96875 143.441406 L 384.957031 143.441406 C 382.414062 124.59375 369.625 110.335938 354.089844 110.335938 Z M 292.847656 110.335938 "/>
<path style=" stroke:none;fill-rule:nonzero;fill:rgb(14.509804%,68.235294%,87.45098%);fill-opacity:1;" d="M 126.039062 148.746094 L 385.960938 148.746094 C 406.519531 148.746094 423.1875 165.414062 423.1875 185.972656 L 423.1875 316.585938 C 423.1875 337.144531 406.519531 353.8125 385.960938 353.8125 L 126.039062 353.8125 C 105.480469 353.8125 88.8125 337.144531 88.8125 316.585938 L 88.8125 185.972656 C 88.8125 165.414062 105.480469 148.746094 126.039062 148.746094 Z M 126.039062 148.746094 "/>
<path style=" stroke:none;fill-rule:nonzero;fill:rgb(14.509804%,68.235294%,87.45098%);fill-opacity:1;" d="M 126.039062 196.597656 L 385.960938 196.597656 C 406.519531 196.597656 423.1875 213.265625 423.1875 233.824219 L 423.1875 364.4375 C 423.1875 384.996094 406.519531 401.664062 385.960938 401.664062 L 126.039062 401.664062 C 105.480469 401.664062 88.8125 384.996094 88.8125 364.4375 L 88.8125 233.824219 C 88.8125 213.265625 105.480469 196.597656 126.039062 196.597656 Z M 126.039062 196.597656 "/>
<path style=" stroke:none;fill-rule:nonzero;fill:rgb(100%,100%,100%);fill-opacity:1;" d="M 200.609375 193.851562 C 192.308594 193.851562 184.265625 194.976562 176.609375 196.921875 C 176.609375 196.792969 176.609375 196.730469 176.609375 196.601562 C 168.066406 198.804688 161.585938 201.75 160.332031 202.3125 C 160.332031 202.503906 160.332031 202.679688 160.332031 202.875 C 160.265625 202.875 160.136719 202.9375 160.007812 203.003906 C 160.894531 209.984375 162.148438 216.882812 162.777344 220.035156 C 169.5625 248.75 189.171875 272.441406 215.117188 285.019531 C 214.988281 286.96875 214.796875 288.851562 214.796875 290.859375 C 214.796875 317.367188 225.476562 341.382812 242.625 358.902344 C 242.496094 358.964844 242.75 359.03125 242.625 359.09375 C 247.59375 363.742188 254.316406 369.148438 255.699219 370.207031 C 256.070312 370.402344 256.648438 370.578125 256.828125 370.835938 C 262.488281 365.800781 267.636719 360.347656 268.953125 358.902344 C 286.101562 341.367188 296.78125 317.367188 296.78125 290.859375 C 296.78125 289.042969 296.414062 287.273438 296.414062 285.457031 C 322.808594 273.261719 342.722656 249.585938 349.816406 220.792969 C 349.445312 220.730469 349.878906 220.664062 349.816406 220.601562 C 351.457031 212.878906 352.839844 204.515625 352.839844 203.628906 C 352.710938 203.566406 352.519531 203.5 352.40625 203.4375 C 352.40625 203.003906 352.40625 203.5 352.40625 203.066406 C 348.753906 201.425781 340.46875 198.613281 336.0625 197.164062 C 336.0625 197.484375 336.0625 197.035156 336.0625 197.355469 C 328.085938 195.21875 319.65625 193.898438 311.113281 193.898438 C 290.445312 193.898438 271.335938 200.558594 255.636719 211.671875 C 249.605469 216.257812 245.261719 220.148438 242.511719 222.789062 C 242.1875 223.109375 242.011719 223.480469 241.691406 223.800781 C 232.632812 233.226562 225.605469 244.46875 220.890625 256.921875 C 225.976562 259.945312 231.007812 262.453125 235.53125 264.59375 C 239.292969 253.65625 245.519531 243.796875 253.367188 235.496094 C 253.433594 235.367188 253.691406 235.0625 253.867188 234.867188 C 254.1875 234.433594 254.621094 233.917969 254.878906 233.421875 C 255.25 233.226562 255.25 233.226562 255.378906 233.050781 C 261.039062 228.144531 265.367188 224.941406 268.632812 222.804688 C 270.273438 221.789062 271.960938 220.792969 273.667969 219.910156 C 284.78125 214.003906 297.296875 210.609375 310.871094 210.609375 C 318.914062 210.609375 326.699219 211.800781 334.050781 214.070312 C 329.082031 237.570312 314.203125 257.179688 293.515625 268.164062 C 290.316406 254.589844 284.414062 241.960938 276.046875 231.28125 C 268.953125 236.121094 262.921875 241.011719 262.792969 241.398438 C 269.644531 250.066406 274.488281 260.1875 277.367188 271.238281 C 277.367188 271.238281 277.6875 272.363281 278.1875 274.5 C 278.445312 275.515625 278.507812 276.140625 278.945312 278.152344 C 280.003906 283.1875 279.894531 288.960938 279.828125 291.277344 C 279.828125 291.714844 279.828125 292.917969 279.828125 292.917969 L 279.570312 293.175781 C 278.945312 314.925781 269.839844 334.402344 255.25 348.476562 C 240.113281 333.96875 230.753906 313.605469 230.753906 290.925781 C 238.796875 293.128906 247.207031 294.382812 255.941406 294.382812 C 260.65625 294.382812 265.367188 293.882812 269.644531 293.191406 C 270.015625 291.550781 270.015625 289.671875 270.144531 286.839844 C 270.339844 281.804688 269.773438 278.363281 269.082031 276.414062 C 264.742188 277.171875 260.15625 277.542969 255.636719 277.542969 C 247.527344 277.542969 239.679688 276.351562 232.265625 274.148438 C 226.554688 272.957031 220.890625 270.0625 216.871094 267.554688 C 214.601562 266.167969 213.21875 265.171875 212.351562 264.65625 C 194.625 253.222656 181.757812 235.1875 177.285156 213.765625 C 184.378906 211.6875 191.859375 210.5 199.773438 210.5 C 211.144531 210.5 221.824219 212.878906 231.574219 217.222656 C 236.351562 212.703125 242.058594 208.167969 245.324219 205.65625 C 231.574219 198.242188 216.113281 193.914062 199.707031 193.914062 M 199.835938 193.980469 "/>
</g>
</svg>
