
<svg xmlns="http://www.w3.org/2000/svg" xmlns:xlink="http://www.w3.org/1999/xlink" width="512px" height="512px" viewBox="0 0 512 512" version="1.1">
<g id="surface1">
<path style="fill-rule:nonzero;fill:rgb(10.196078%,73.72549%,61.176471%);fill-opacity:1;stroke-width:28.636707;stroke-linecap:butt;stroke-linejoin:miter;stroke:rgb(100%,100%,100%);stroke-opacity:1;stroke-miterlimit:4;" d="M 78.726552 631.972701 L 433.273428 631.972701 C 464.90624 631.972701 490.546865 657.613326 490.546865 689.246139 L 490.546865 1043.793014 C 490.546865 1075.425826 464.90624 1101.066451 433.273428 1101.066451 L 78.726552 1101.066451 C 47.09374 1101.066451 21.453115 1075.425826 21.453115 1043.793014 L 21.453115 689.246139 C 21.453115 657.613326 47.09374 631.972701 78.726552 631.972701 Z M 78.726552 631.972701 " transform="matrix(1,0,0,1,0.00001,-610.519576)"/>
<path style=" stroke:none;fill-rule:nonzero;fill:rgb(13.333333%,21.176471%,33.72549%);fill-opacity:1;" d="M 256 131 C 186.75 131 131 186.75 131 256 C 131 325.25 186.75 381 256 381 C 325.25 381 381 325.25 381 256 C 381 186.75 325.25 131 256 131 Z M 256 156 C 311.398438 156 356 200.597656 356 256 C 356 311.398438 311.398438 356 256 356 C 200.601562 356 156 311.398438 156 256 C 156 200.597656 200.601562 156 256 156 Z M 256 197.667969 L 197.667969 256 L 231 256 L 231 314.332031 L 281 314.332031 L 281 256 L 314.332031 256 Z M 256 197.667969 "/>
</g>
</svg>
