<!-- Generator: Adobe Illustrator 16.0.4, SVG Export Plug-In . SVG Version: 6.00 Build 0)  -->
<svg xmlns="http://www.w3.org/2000/svg" xmlns:xlink="http://www.w3.org/1999/xlink" width="512px" height="512px" viewBox="0 0 512 512" version="1.1">
<g id="surface1">
<path style=" stroke:none;fill-rule:nonzero;fill:rgb(33.333333%,86.666667%,100%);fill-opacity:1;" d="M 483.558594 278.394531 C 483.578125 263.640625 481.964844 249.273438 479.007812 235.375 L 479.007812 232.789062 L 478.40625 232.789062 C 462.078125 160.785156 407.78125 103.261719 337.703125 82.113281 C 388.535156 60.75 432.0625 58.941406 455.234375 82.113281 C 474.617188 101.492188 476.636719 135.164062 464.214844 175.382812 C 484.996094 121.457031 485.210938 75.367188 459.878906 50.054688 C 426.113281 16.289062 355.527344 28.03125 278.605469 73.25 C 278.546875 73.25 278.488281 73.25 278.429688 73.25 C 165.273438 73.25 73.457031 164.925781 73.300781 278.105469 C 27.5625 355.433594 15.566406 426.527344 49.488281 460.429688 C 74.839844 485.796875 120.890625 485.585938 174.796875 464.804688 C 134.578125 477.207031 100.964844 475.222656 81.5625 455.800781 C 58.238281 432.476562 60.238281 388.558594 81.972656 337.296875 C 107.300781 421.898438 185.644531 483.5625 278.429688 483.5625 C 369.445312 483.5625 446.546875 424.269531 473.390625 342.234375 L 352.691406 342.234375 C 334.707031 363.113281 308.113281 376.410156 278.390625 376.410156 C 233 376.410156 194.859375 345.441406 183.738281 303.492188 L 481.984375 303.492188 C 482.9375 295.25 483.558594 286.890625 483.558594 278.394531 Z M 191.691406 232.808594 C 208.117188 201.6875 240.757812 180.417969 278.429688 180.417969 C 316.085938 180.417969 348.761719 201.707031 365.171875 232.808594 Z M 191.691406 232.808594 "/>
</g>
</svg>
