
<svg xmlns="http://www.w3.org/2000/svg" xmlns:xlink="http://www.w3.org/1999/xlink" width="512px" height="512px" viewBox="0 0 512 512" version="1.1">
<g id="surface1">
<path style="fill-rule:nonzero;fill:rgb(90.588235%,29.803922%,23.529412%);fill-opacity:1;stroke-width:2.634141;stroke-linecap:butt;stroke-linejoin:miter;stroke:rgb(90.588235%,53.72549%,49.803922%);stroke-opacity:1;stroke-miterlimit:4;" d="M 7.693359 2.425049 L 40.306639 2.425049 C 43.216185 2.425049 45.57495 4.783813 45.57495 7.693359 L 45.57495 40.306639 C 45.57495 43.216185 43.216185 45.57495 40.306639 45.57495 L 7.693359 45.57495 C 4.783813 45.57495 2.425049 43.216185 2.425049 40.306639 L 2.425049 7.693359 C 2.425049 4.783813 4.783813 2.425049 7.693359 2.425049 Z M 7.693359 2.425049 " transform="matrix(10.666667,0,0,10.666667,0,0)"/>
<path style=" stroke:none;fill-rule:nonzero;fill:rgb(100%,100%,100%);fill-opacity:1;" d="M 117.570312 180.289062 L 160.476562 180.289062 L 208.035156 272.222656 L 257.734375 174.351562 L 309.148438 273.023438 L 354.992188 180.289062 L 397.5 180.289062 L 310.097656 349.308594 L 258.140625 240.773438 L 206.105469 349.308594 Z M 117.570312 180.289062 "/>
</g>
</svg>
