
<svg xmlns="http://www.w3.org/2000/svg" xmlns:xlink="http://www.w3.org/1999/xlink" width="512px" height="512px" viewBox="0 0 512 512" version="1.1">
<g id="surface1">
<path style="fill-rule:nonzero;fill:rgb(100%,100%,100%);fill-opacity:0.27451;stroke-width:0.748945;stroke-linecap:butt;stroke-linejoin:miter;stroke:rgb(17.254902%,24.313725%,31.372549%);stroke-opacity:1;stroke-miterlimit:4;" d="M -35.982126 398.484073 L -26.709513 398.484073 C -25.882277 398.484073 -25.21162 399.154626 -25.21162 399.981966 L -25.21162 409.254579 C -25.21162 410.081816 -25.882277 410.752472 -26.709513 410.752472 L -35.982126 410.752472 C -36.809363 410.752472 -37.48002 410.081816 -37.48002 409.254579 L -37.48002 399.981966 C -37.48002 399.154626 -36.809363 398.484073 -35.982126 398.484073 Z M -35.982126 398.484073 " transform="matrix(37.795272,0,0,37.795272,1440.723789,-15036.65767)"/>
<path style=" stroke:none;fill-rule:nonzero;fill:rgb(17.254902%,24.313725%,31.372549%);fill-opacity:1;" d="M 78.707031 469.183594 L 215.640625 266.121094 L 74.667969 42.847656 L 165.277344 42.960938 L 277.609375 218.519531 L 109.648438 469.210938 L 78.707031 469.210938 Z M 78.707031 469.183594 "/>
<path style=" stroke:none;fill-rule:nonzero;fill:rgb(90.196078%,49.411765%,13.333333%);fill-opacity:1;" d="M 346.722656 469.332031 L 235.167969 293.472656 L 404.523438 42.667969 L 434.699219 42.667969 L 297.207031 246.6875 L 437.332031 469.332031 Z M 346.722656 469.332031 "/>
</g>
</svg>
