
<svg xmlns="http://www.w3.org/2000/svg" xmlns:xlink="http://www.w3.org/1999/xlink" width="32px" height="32px" viewBox="0 0 32 32" version="1.1">
<g id="surface1">
<path style="fill-rule:nonzero;fill:rgb(92.54902%,92.54902%,92.54902%);fill-opacity:1;stroke-width:27.983692;stroke-linecap:butt;stroke-linejoin:miter;stroke:#AB37C8;stroke-opacity:1;stroke-miterlimit:4;" d="M 82.75 26.8125 L 429.25 26.8125 C 460.125 26.8125 485.1875 51.875 485.1875 82.75 L 485.1875 429.25 C 485.1875 460.125 460.125 485.1875 429.25 485.1875 L 82.75 485.1875 C 51.875 485.1875 26.8125 460.125 26.8125 429.25 L 26.8125 82.75 C 26.8125 51.875 51.875 26.8125 82.75 26.8125 Z M 82.75 26.8125 " transform="matrix(0.0625,0,0,0.0625,0,0)"/>
<path style=" stroke:none;fill-rule:nonzero;fill:rgb(42.745098%,47.843137%,49.803922%);fill-opacity:1;" d="M 8.054688 9.878906 L 23.945312 9.878906 C 24.511719 9.878906 24.96875 10.246094 24.96875 10.699219 L 24.96875 26.503906 C 24.96875 26.957031 24.511719 27.324219 23.945312 27.324219 L 8.054688 27.324219 C 7.488281 27.324219 7.03125 26.957031 7.03125 26.503906 L 7.03125 10.699219 C 7.03125 10.246094 7.488281 9.878906 8.054688 9.878906 Z M 8.054688 9.878906 "/>
<path style=" stroke:none;fill-rule:nonzero;fill:rgb(8.235294%,28.627451%,36.470588%);fill-opacity:1;" d="M 8.367188 25.75 L 15.910156 25.75 C 16.066406 25.75 16.191406 25.851562 16.191406 25.976562 L 16.191406 26.421875 C 16.191406 26.546875 16.066406 26.648438 15.910156 26.648438 L 8.367188 26.648438 C 8.210938 26.648438 8.085938 26.546875 8.085938 26.421875 L 8.085938 25.976562 C 8.085938 25.851562 8.210938 25.75 8.367188 25.75 Z M 8.367188 25.75 "/>
<path style=" stroke:none;fill-rule:nonzero;fill:rgb(81.960784%,82.352941%,82.745098%);fill-opacity:1;" d="M 21.449219 26.199219 C 21.449219 26.417969 21.222656 26.597656 20.945312 26.597656 C 20.667969 26.597656 20.445312 26.417969 20.445312 26.199219 C 20.445312 25.976562 20.667969 25.796875 20.945312 25.796875 C 21.222656 25.796875 21.449219 25.976562 21.449219 26.199219 Z M 21.449219 26.199219 "/>
<path style=" stroke:none;fill-rule:nonzero;fill:rgb(81.960784%,82.352941%,82.745098%);fill-opacity:1;" d="M 23 26.195312 C 23 26.417969 22.773438 26.597656 22.496094 26.597656 C 22.21875 26.597656 21.996094 26.417969 21.996094 26.195312 C 21.996094 25.976562 22.21875 25.796875 22.496094 25.796875 C 22.773438 25.796875 23 25.976562 23 26.195312 Z M 23 26.195312 "/>
<path style=" stroke:none;fill-rule:nonzero;fill:rgb(42.745098%,47.843137%,49.803922%);fill-opacity:1;" d="M 8.054688 8.148438 L 23.945312 8.148438 C 24.511719 8.148438 24.96875 8.515625 24.96875 8.972656 L 24.96875 24.773438 C 24.96875 25.226562 24.511719 25.597656 23.945312 25.597656 L 8.054688 25.597656 C 7.488281 25.597656 7.03125 25.226562 7.03125 24.773438 L 7.03125 8.972656 C 7.03125 8.515625 7.488281 8.148438 8.054688 8.148438 Z M 8.054688 8.148438 "/>
<path style=" stroke:none;fill-rule:nonzero;fill:rgb(8.235294%,28.627451%,36.470588%);fill-opacity:1;" d="M 8.367188 24.023438 L 15.910156 24.023438 C 16.066406 24.023438 16.191406 24.125 16.191406 24.246094 L 16.191406 24.695312 C 16.191406 24.816406 16.066406 24.917969 15.910156 24.917969 L 8.367188 24.917969 C 8.210938 24.917969 8.085938 24.816406 8.085938 24.695312 L 8.085938 24.246094 C 8.085938 24.125 8.210938 24.023438 8.367188 24.023438 Z M 8.367188 24.023438 "/>
<path style=" stroke:none;fill-rule:nonzero;fill:rgb(81.960784%,82.352941%,82.745098%);fill-opacity:1;" d="M 21.449219 24.46875 C 21.449219 24.691406 21.222656 24.871094 20.945312 24.871094 C 20.667969 24.871094 20.445312 24.691406 20.445312 24.46875 C 20.445312 24.246094 20.667969 24.066406 20.945312 24.066406 C 21.222656 24.066406 21.449219 24.246094 21.449219 24.46875 Z M 21.449219 24.46875 "/>
<path style=" stroke:none;fill-rule:nonzero;fill:rgb(81.960784%,82.352941%,82.745098%);fill-opacity:1;" d="M 23 24.46875 C 23 24.691406 22.773438 24.871094 22.496094 24.871094 C 22.21875 24.871094 21.996094 24.691406 21.996094 24.46875 C 21.996094 24.246094 22.21875 24.066406 22.496094 24.066406 C 22.773438 24.066406 23 24.246094 23 24.46875 Z M 23 24.46875 "/>
<path style=" stroke:none;fill-rule:nonzero;fill:rgb(42.745098%,47.843137%,49.803922%);fill-opacity:1;" d="M 8.054688 6.449219 L 23.945312 6.449219 C 24.511719 6.449219 24.96875 6.820312 24.96875 7.273438 L 24.96875 23.074219 C 24.96875 23.527344 24.511719 23.898438 23.945312 23.898438 L 8.054688 23.898438 C 7.488281 23.898438 7.03125 23.527344 7.03125 23.074219 L 7.03125 7.273438 C 7.03125 6.820312 7.488281 6.449219 8.054688 6.449219 Z M 8.054688 6.449219 "/>
<path style=" stroke:none;fill-rule:nonzero;fill:rgb(8.235294%,28.627451%,36.470588%);fill-opacity:1;" d="M 8.367188 22.324219 L 15.910156 22.324219 C 16.066406 22.324219 16.191406 22.425781 16.191406 22.550781 L 16.191406 22.996094 C 16.191406 23.117188 16.066406 23.21875 15.910156 23.21875 L 8.367188 23.21875 C 8.210938 23.21875 8.085938 23.117188 8.085938 22.996094 L 8.085938 22.550781 C 8.085938 22.425781 8.210938 22.324219 8.367188 22.324219 Z M 8.367188 22.324219 "/>
<path style=" stroke:none;fill-rule:nonzero;fill:rgb(81.960784%,82.352941%,82.745098%);fill-opacity:1;" d="M 21.449219 22.769531 C 21.449219 22.992188 21.222656 23.171875 20.945312 23.171875 C 20.667969 23.171875 20.445312 22.992188 20.445312 22.769531 C 20.445312 22.546875 20.667969 22.367188 20.945312 22.367188 C 21.222656 22.367188 21.449219 22.546875 21.449219 22.769531 Z M 21.449219 22.769531 "/>
<path style=" stroke:none;fill-rule:nonzero;fill:rgb(81.960784%,82.352941%,82.745098%);fill-opacity:1;" d="M 23 22.769531 C 23 22.992188 22.773438 23.171875 22.496094 23.171875 C 22.21875 23.171875 21.996094 22.992188 21.996094 22.769531 C 21.996094 22.546875 22.21875 22.367188 22.496094 22.367188 C 22.773438 22.367188 23 22.546875 23 22.769531 Z M 23 22.769531 "/>
<path style=" stroke:none;fill-rule:nonzero;fill:rgb(42.745098%,47.843137%,49.803922%);fill-opacity:1;" d="M 8.054688 4.722656 L 23.945312 4.722656 C 24.511719 4.722656 24.96875 5.089844 24.96875 5.542969 L 24.96875 21.347656 C 24.96875 21.800781 24.511719 22.167969 23.945312 22.167969 L 8.054688 22.167969 C 7.488281 22.167969 7.03125 21.800781 7.03125 21.347656 L 7.03125 5.542969 C 7.03125 5.089844 7.488281 4.722656 8.054688 4.722656 Z M 8.054688 4.722656 "/>
<path style=" stroke:none;fill-rule:nonzero;fill:rgb(8.235294%,28.627451%,36.470588%);fill-opacity:1;" d="M 8.367188 20.59375 L 15.910156 20.59375 C 16.066406 20.59375 16.191406 20.695312 16.191406 20.820312 L 16.191406 21.265625 C 16.191406 21.390625 16.066406 21.492188 15.910156 21.492188 L 8.367188 21.492188 C 8.210938 21.492188 8.085938 21.390625 8.085938 21.265625 L 8.085938 20.820312 C 8.085938 20.695312 8.210938 20.59375 8.367188 20.59375 Z M 8.367188 20.59375 "/>
<path style=" stroke:none;fill-rule:nonzero;fill:rgb(81.960784%,82.352941%,82.745098%);fill-opacity:1;" d="M 21.449219 21.042969 C 21.449219 21.265625 21.222656 21.445312 20.945312 21.445312 C 20.667969 21.445312 20.445312 21.265625 20.445312 21.042969 C 20.445312 20.820312 20.667969 20.640625 20.945312 20.640625 C 21.222656 20.640625 21.449219 20.820312 21.449219 21.042969 Z M 21.449219 21.042969 "/>
<path style=" stroke:none;fill-rule:nonzero;fill:rgb(81.960784%,82.352941%,82.745098%);fill-opacity:1;" d="M 23 21.042969 C 23 21.265625 22.773438 21.445312 22.496094 21.445312 C 22.21875 21.445312 21.996094 21.265625 21.996094 21.042969 C 21.996094 20.820312 22.21875 20.640625 22.496094 20.640625 C 22.773438 20.640625 23 20.820312 23 21.042969 Z M 23 21.042969 "/>
<path style=" stroke:none;fill-rule:nonzero;fill:#AB37C8;fill-opacity:1;" d="M 8.054688 4.675781 L 23.945312 4.675781 C 24.511719 4.675781 24.96875 5 24.96875 5.394531 L 24.96875 19.246094 C 24.96875 19.644531 24.511719 19.96875 23.945312 19.96875 L 8.054688 19.96875 C 7.488281 19.96875 7.03125 19.644531 7.03125 19.246094 L 7.03125 5.394531 C 7.03125 5 7.488281 4.675781 8.054688 4.675781 Z M 8.054688 4.675781 "/>
<path style=" stroke:none;fill-rule:nonzero;fill:rgb(92.156863%,92.156863%,92.156863%);fill-opacity:1;" d="M 20.628906 16.03125 C 21.910156 15.007812 22.546875 13.769531 22.546875 12.320312 C 22.546875 10.871094 21.910156 9.636719 20.628906 8.609375 C 19.351562 7.585938 17.808594 7.074219 16 7.074219 C 14.191406 7.074219 12.648438 7.585938 11.371094 8.609375 C 10.089844 9.636719 9.453125 10.871094 9.453125 12.320312 C 9.453125 13.773438 10.089844 15.007812 11.371094 16.03125 C 12.648438 17.058594 14.191406 17.570312 16 17.570312 C 17.808594 17.570312 19.351562 17.058594 20.628906 16.03125 Z M 20.628906 16.03125 "/>
</g>
</svg>
