<?xml version="1.0" encoding="UTF-8"?>
<svg xmlns="http://www.w3.org/2000/svg" xmlns:xlink="http://www.w3.org/1999/xlink" width="32pt" height="32pt" viewBox="0 0 32 32" version="1.1">
<g id="surface1">
<path style="fill-rule:nonzero;fill:rgb(70.196078%,70.196078%,70.196078%);fill-opacity:1;stroke-width:2.611469;stroke-linecap:butt;stroke-linejoin:miter;stroke:rgb(35.294118%,35.294118%,35.294118%);stroke-opacity:1;stroke-miterlimit:4;" d="M 7.833984 2.613281 L 40.166016 2.613281 C 43.048828 2.613281 45.386719 4.951172 45.386719 7.833984 L 45.386719 40.166016 C 45.386719 43.048828 43.048828 45.386719 40.166016 45.386719 L 7.833984 45.386719 C 4.951172 45.386719 2.613281 43.048828 2.613281 40.166016 L 2.613281 7.833984 C 2.613281 4.951172 4.951172 2.613281 7.833984 2.613281 Z M 7.833984 2.613281 " transform="matrix(0.666667,0,0,0.666667,0,0)"/>
<path style=" stroke:none;fill-rule:evenodd;fill:rgb(30.196078%,30.196078%,30.196078%);fill-opacity:1;" d="M 16.164062 17.480469 C 17.230469 17.410156 18.042969 16.5 17.988281 15.433594 C 17.933594 14.367188 17.039062 13.539062 15.972656 13.574219 C 14.90625 13.613281 14.0625 14.496094 14.082031 15.5625 C 14.097656 16.628906 14.96875 17.484375 16.035156 17.484375 "/>
<path style="fill:none;stroke-width:3.131226;stroke-linecap:square;stroke-linejoin:bevel;stroke:rgb(30.196078%,30.196078%,30.196078%);stroke-opacity:1;stroke-miterlimit:4;" d="M -0.00136368 -0.00372317 L -0.00136368 23.268502 " transform="matrix(0.48173,0,0,0.48173,16.039719,15.501794)"/>
<path style="fill:none;stroke-width:3.131226;stroke-linecap:square;stroke-linejoin:miter;stroke:rgb(30.196078%,30.196078%,30.196078%);stroke-opacity:1;stroke-miterlimit:2.012602;" d="M 17.904297 16.144034 C 21.155921 11.959899 20.580197 5.967504 16.590673 2.472616 C 12.601149 -1.014163 6.584427 -0.787117 2.870602 2.991579 C -0.843223 6.770274 -0.964855 12.795105 2.586794 16.719759 " transform="matrix(0.48173,0,0,0.48173,11.218706,10.859647)"/>
<path style="fill:none;stroke-width:3.131226;stroke-linecap:square;stroke-linejoin:miter;stroke:rgb(30.196078%,30.196078%,30.196078%);stroke-opacity:1;stroke-miterlimit:2.012602;" d="M 28.705667 25.884069 C 33.952054 19.129448 32.978999 9.439445 26.491968 3.868707 C 19.996828 -1.702031 10.282498 -1.199286 4.395517 5.012046 C -1.483355 11.21527 -1.459028 20.953926 4.452279 27.132823 " transform="matrix(0.48173,0,0,0.48173,8.273171,8.023045)"/>
<path style="fill:none;stroke-width:3.131226;stroke-linecap:square;stroke-linejoin:miter;stroke:rgb(30.196078%,30.196078%,30.196078%);stroke-opacity:1;stroke-miterlimit:2.012602;" d="M 39.253712 35.389189 C 46.413773 26.177605 45.100149 12.968387 36.277786 5.338017 C 27.447315 -2.292354 14.189445 -1.676086 6.104982 6.748946 C -1.971372 15.165869 -2.044351 28.439957 5.942806 36.946076 " transform="matrix(0.48173,0,0,0.48173,5.434045,5.283984)"/>
</g>
</svg>
