
<svg xmlns="http://www.w3.org/2000/svg" xmlns:xlink="http://www.w3.org/1999/xlink" width="256px" height="256px" viewBox="0 0 256 256" version="1.1">
<g id="surface1">
<path style="fill-rule:nonzero;fill:rgb(100%,100%,100%);fill-opacity:1;stroke-width:28.191782;stroke-linecap:butt;stroke-linejoin:miter;stroke:rgb(0.392157%,59.215686%,99.215686%);stroke-opacity:1;stroke-miterlimit:4;" d="M 81.484375 25.09375 L 430.515625 25.09375 C 461.65625 25.09375 486.90625 50.34375 486.90625 81.484375 L 486.90625 430.515625 C 486.90625 461.65625 461.65625 486.90625 430.515625 486.90625 L 81.484375 486.90625 C 50.34375 486.90625 25.09375 461.65625 25.09375 430.515625 L 25.09375 81.484375 C 25.09375 50.34375 50.34375 25.09375 81.484375 25.09375 Z M 81.484375 25.09375 " transform="matrix(0.5,0,0,0.5,0,0)"/>
<path style=" stroke:none;fill-rule:nonzero;fill:rgb(43.529412%,48.627451%,56.862745%);fill-opacity:1;" d="M 198.382812 157.726562 L 198.382812 152.050781 L 201.78125 149.460938 C 214.601562 137.96875 223.910156 123.328125 219.707031 106.007812 C 215.582031 90.316406 203.492188 79.289062 184.085938 73.515625 C 165.351562 67.945312 140.023438 67.597656 114.554688 72.554688 C 96.648438 76.039062 77.753906 82.289062 62.640625 89.730469 C 56.75 92.632812 51.226562 95.382812 51.804688 92.984375 C 52.148438 91.582031 58.34375 87.78125 66.054688 83.632812 C 103.289062 63.601562 150.855469 56.59375 186.3125 65.917969 C 207.71875 71.976562 226.21875 84.6875 231.019531 107.328125 C 231.277344 108.671875 230.703125 106.71875 230.984375 107.304688 C 234.960938 127.445312 223.351562 144.703125 209.324219 157.617188 C 206.539062 160.171875 199.507812 165.65625 198.5625 165.65625 C 198.140625 165.65625 198.382812 162.03125 198.382812 157.726562 Z M 198.382812 157.726562 "/>
<path style=" stroke:none;fill-rule:nonzero;fill:rgb(0.392157%,59.215686%,99.215686%);fill-opacity:1;" d="M 195.523438 76.902344 C 195.523438 65.148438 185.910156 55.625 174.050781 55.625 C 162.1875 55.625 152.578125 65.148438 152.578125 76.902344 C 152.578125 88.65625 162.1875 98.179688 174.050781 98.179688 C 185.910156 98.179688 195.523438 88.65625 195.523438 76.902344 Z M 195.523438 76.902344 "/>
<path style=" stroke:none;fill-rule:evenodd;fill:rgb(32.54902%,40.392157%,42.352941%);fill-opacity:1;" d="M 173.90625 76.050781 L 174.582031 76.640625 C 176.734375 78.53125 176.976562 82.15625 175.117188 84.742188 L 148.609375 121.597656 C 146.75 124.179688 143.492188 124.75 141.339844 122.859375 L 140.664062 122.265625 C 138.507812 120.382812 138.265625 116.757812 140.125 114.171875 L 166.636719 77.3125 C 168.496094 74.726562 171.75 74.164062 173.90625 76.050781 Z M 173.90625 76.050781 "/>
<path style=" stroke:none;fill-rule:nonzero;fill:rgb(0.392157%,59.215686%,99.215686%);fill-opacity:1;" d="M 102.730469 72.265625 C 102.730469 57.640625 90.765625 45.78125 76.007812 45.78125 C 61.25 45.78125 49.28125 57.640625 49.28125 72.265625 C 49.28125 86.886719 61.25 98.742188 76.007812 98.742188 C 90.765625 98.742188 102.730469 86.886719 102.730469 72.265625 Z M 102.730469 72.265625 "/>
<path style=" stroke:none;fill-rule:evenodd;fill:rgb(32.54902%,40.392157%,42.352941%);fill-opacity:1;" d="M 78.1875 74.5 L 78.382812 74.25 C 80.359375 71.769531 83.734375 71.546875 85.921875 73.746094 L 119.78125 107.84375 C 121.96875 110.046875 122.140625 113.84375 120.167969 116.328125 L 119.96875 116.574219 C 117.996094 119.054688 114.625 119.28125 112.4375 117.078125 L 78.574219 82.976562 C 76.386719 80.773438 76.214844 76.976562 78.1875 74.5 Z M 78.1875 74.5 "/>
<path style=" stroke:none;fill-rule:nonzero;fill:rgb(0.392157%,59.215686%,99.215686%);fill-opacity:1;" d="M 163.527344 132.898438 C 163.527344 116.949219 150.480469 104.015625 134.382812 104.015625 C 118.289062 104.015625 105.238281 116.949219 105.238281 132.898438 C 105.238281 148.847656 118.289062 161.777344 134.382812 161.777344 C 150.480469 161.777344 163.527344 148.847656 163.527344 132.898438 Z M 163.527344 132.898438 "/>
<path style=" stroke:none;fill-rule:evenodd;fill:rgb(32.54902%,40.392157%,42.352941%);fill-opacity:1;" d="M 124.972656 134.074219 C 126.5 137.03125 125.335938 140.664062 122.382812 142.1875 L 90.273438 158.761719 C 87.316406 160.289062 83.683594 159.128906 82.15625 156.171875 C 80.632812 153.21875 81.789062 149.585938 84.746094 148.058594 L 116.859375 131.484375 C 119.8125 129.960938 123.445312 131.117188 124.972656 134.074219 Z M 124.972656 134.074219 "/>
<path style=" stroke:none;fill-rule:evenodd;fill:rgb(32.54902%,40.392157%,42.352941%);fill-opacity:1;" d="M 142.242188 143.265625 L 142.960938 142.835938 C 145.75 141.179688 149.382812 142.097656 151.070312 144.890625 L 179.382812 191.625 C 181.078125 194.417969 180.1875 198.023438 177.402344 199.683594 L 176.679688 200.113281 C 173.890625 201.769531 170.261719 200.851562 168.570312 198.054688 L 140.257812 151.320312 C 138.566406 148.53125 139.453125 144.921875 142.242188 143.265625 Z M 142.242188 143.265625 "/>
<path style=" stroke:none;fill-rule:nonzero;fill:rgb(0.392157%,59.215686%,99.215686%);fill-opacity:1;" d="M 193.367188 184.652344 C 193.367188 171.007812 182.207031 159.949219 168.4375 159.949219 C 154.671875 159.949219 143.507812 171.007812 143.507812 184.652344 C 143.507812 198.296875 154.671875 209.359375 168.4375 209.359375 C 182.207031 209.359375 193.367188 198.296875 193.367188 184.652344 Z M 193.367188 184.652344 "/>
<path style=" stroke:none;fill-rule:nonzero;fill:rgb(43.529412%,48.627451%,56.862745%);fill-opacity:1;" d="M 28.996094 155.953125 C 26.265625 149.410156 24.734375 139.972656 25.378906 133.679688 C 26.335938 124.328125 29.945312 115.210938 36.066406 106.671875 C 38.414062 103.398438 45.925781 95.210938 46.582031 95.210938 C 46.777344 95.210938 46.9375 96.125 46.9375 97.242188 C 46.9375 99.019531 46.742188 99.507812 45.398438 101.117188 C 43.476562 103.421875 39.835938 109.023438 38.394531 111.882812 C 34.050781 120.515625 32 130.773438 32.988281 138.878906 C 34.007812 147.210938 37.21875 153.914062 42.914062 159.625 C 81.199219 188.449219 145.703125 177.117188 186.445312 157.796875 C 190.242188 155.953125 193.421875 154.453125 193.5 154.453125 C 193.585938 154.453125 193.652344 157.671875 193.652344 161.601562 L 193.652344 168.757812 L 190.371094 170.40625 C 148.632812 189.445312 52.335938 207.554688 28.996094 155.953125 Z M 28.996094 155.953125 "/>
<path style=" stroke:none;fill-rule:nonzero;fill:rgb(0.392157%,59.215686%,99.215686%);fill-opacity:1;" d="M 99.945312 157.507812 C 99.945312 144.878906 89.617188 134.640625 76.867188 134.640625 C 64.125 134.640625 53.792969 144.878906 53.792969 157.507812 C 53.792969 170.136719 64.125 180.375 76.867188 180.375 C 89.617188 180.375 99.945312 170.136719 99.945312 157.507812 Z M 99.945312 157.507812 "/>
</g>
</svg>
