
<svg xmlns="http://www.w3.org/2000/svg" xmlns:xlink="http://www.w3.org/1999/xlink" width="256px" height="256px" viewBox="0 0 256 256" version="1.1">
<g id="surface1">
<path style="fill-rule:nonzero;fill:rgb(80%,80%,80%);fill-opacity:1;stroke-width:28.191782;stroke-linecap:butt;stroke-linejoin:miter;stroke:rgb(6.27451%,45.490196%,63.137255%);stroke-opacity:1;stroke-miterlimit:4;" d="M 85.479159 29.096081 L 434.521044 29.096081 C 465.65631 29.096081 490.904122 54.335959 490.904122 85.479159 L 490.904122 434.521044 C 490.904122 465.65631 465.65631 490.904122 434.521044 490.904122 L 85.479159 490.904122 C 54.335959 490.904122 29.096081 465.65631 29.096081 434.521044 L 29.096081 85.479159 C 29.096081 54.335959 54.335959 29.096081 85.479159 29.096081 Z M 85.479159 29.096081 " transform="matrix(0.492308,0,0,0.492308,0,0)"/>
<path style=" stroke:none;fill-rule:nonzero;fill:rgb(8.627451%,43.529412%,65.882353%);fill-opacity:1;" d="M 46.554688 236.632812 C 46.390625 236.375 48.265625 230.976562 48.65625 225.125 C 49.484375 212.859375 48.445312 201.71875 47.765625 198.191406 C 46.285156 190.546875 41.9375 186.316406 22.320312 172.929688 C 19.609375 171.078125 16.804688 169.6875 16.617188 169.40625 C 16.429688 169.125 16.375 158.445312 16.40625 157.835938 L 16.585938 146.945312 L 18.148438 146.316406 C 18.789062 146.054688 24.210938 145 30.1875 143.460938 C 48.554688 138.726562 53.066406 136.601562 57.3125 132.859375 C 61.445312 129.210938 63.726562 124.007812 69.492188 104.90625 C 71.578125 97.984375 74.324219 89.71875 75.359375 87.117188 C 77.238281 82.40625 79.984375 77.28125 81.375 77.890625 C 82.222656 78.265625 85.410156 78.191406 90.789062 87.0625 C 92.078125 89.1875 96.296875 95.15625 99.996094 100.941406 C 110.734375 117.742188 114.398438 121.867188 118.992188 124.320312 C 124.125 127.0625 122.976562 126.886719 146.773438 126.976562 C 172.859375 127.078125 179.289062 127.730469 179.289062 130.351562 C 179.289062 133.539062 173.652344 141.890625 159.546875 158.917969 C 153.320312 166.429688 148.925781 172.066406 147.039062 175.976562 C 145.605469 178.9375 145.511719 179.050781 145.515625 183.8125 C 145.523438 187.492188 147.179688 191.695312 154.023438 211.679688 C 159.304688 227.105469 161.039062 234.851562 160.09375 236.289062 C 159.652344 236.96875 155.570312 236.585938 150.355469 236.660156 L 145.390625 236.726562 L 142.269531 235.609375 L 130.929688 231.539062 C 111.882812 224.703125 109.695312 223.382812 103.617188 223.316406 C 99.273438 223.273438 98.78125 223.472656 95.90625 224.808594 C 92.199219 226.53125 86.539062 231.597656 81.125 235.273438 L 78.976562 236.730469 L 62.6875 236.757812 C 53.59375 236.769531 46.738281 236.925781 46.554688 236.632812 Z M 194.148438 82.554688 C 186.882812 72.664062 184.84375 72.90625 173.175781 74.148438 C 170.398438 74.445312 167.984375 73.632812 167.808594 73.460938 C 167.632812 73.289062 169.882812 69.84375 171.703125 67.253906 C 178.117188 58.109375 177.964844 57.644531 174.328125 48.796875 C 172.285156 43.828125 171.601562 41.570312 171.945312 41.257812 C 172.382812 40.851562 176.042969 41.765625 179.136719 42.671875 C 188.960938 45.558594 189.835938 45.421875 197.605469 38.757812 C 199.96875 36.726562 202.886719 34.398438 203.730469 34.429688 C 204.125 34.445312 204.464844 37.59375 204.648438 42.484375 C 205.023438 52.335938 205.875 52.84375 215.148438 58.253906 C 217.847656 59.828125 219.953125 61.71875 219.953125 62.007812 C 219.953125 62.296875 217.304688 63.726562 215.175781 64.445312 C 203.414062 68.410156 202.90625 69.023438 200.371094 79.5 C 199.632812 82.550781 198.675781 85.859375 198.421875 86.085938 C 197.8125 86.625 195.804688 84.8125 194.148438 82.554688 Z M 194.148438 82.554688 "/>
</g>
</svg>
