
<svg xmlns="http://www.w3.org/2000/svg" xmlns:xlink="http://www.w3.org/1999/xlink" width="256px" height="256px" viewBox="0 0 256 256" version="1.1">
<g id="surface1">
<path style="fill-rule:nonzero;fill:rgb(100%,100%,100%);fill-opacity:1;stroke-width:28.191782;stroke-linecap:butt;stroke-linejoin:miter;stroke:rgb(60.784314%,61.568627%,65.098039%);stroke-opacity:1;stroke-miterlimit:4;" d="M 81.484375 25.09375 L 430.515625 25.09375 C 461.65625 25.09375 486.90625 50.34375 486.90625 81.484375 L 486.90625 430.515625 C 486.90625 461.65625 461.65625 486.90625 430.515625 486.90625 L 81.484375 486.90625 C 50.34375 486.90625 25.09375 461.65625 25.09375 430.515625 L 25.09375 81.484375 C 25.09375 50.34375 50.34375 25.09375 81.484375 25.09375 Z M 81.484375 25.09375 " transform="matrix(0.5,0,0,0.5,0,0)"/>
<path style=" stroke:none;fill-rule:nonzero;fill:rgb(100%,100%,100%);fill-opacity:1;" d="M 208.273438 129.171875 C 208.273438 172.304688 172.457031 207.273438 128.28125 207.273438 C 84.101562 207.273438 48.289062 172.304688 48.289062 129.171875 C 48.289062 86.035156 84.101562 51.070312 128.28125 51.070312 C 172.457031 51.070312 208.273438 86.035156 208.273438 129.171875 Z M 208.273438 129.171875 "/>
<path style=" stroke:none;fill-rule:nonzero;fill:rgb(52.54902%,56.470588%,58.039216%);fill-opacity:1;" d="M 114.070312 229.011719 C 112.304688 228.21875 110.421875 226.199219 109.578125 224.1875 C 109.148438 223.148438 108.714844 219.164062 108.34375 212.789062 C 108.03125 207.398438 107.617188 202.554688 107.429688 202.03125 C 107.175781 201.335938 105.9375 200.679688 102.855469 199.601562 C 100.53125 198.789062 97.03125 197.320312 95.078125 196.335938 C 93.125 195.359375 91.101562 194.554688 90.578125 194.554688 C 89.996094 194.554688 86.804688 197.148438 82.25 201.328125 C 78.1875 205.054688 74.210938 208.4375 73.40625 208.851562 C 71.753906 209.695312 68.039062 209.835938 66.117188 209.117188 C 64.59375 208.550781 48.453125 192.644531 47.414062 190.6875 C 46.390625 188.75 46.5 185.121094 47.648438 182.921875 C 48.175781 181.921875 51.589844 177.867188 55.238281 173.914062 C 59.164062 169.65625 61.875 166.351562 61.875 165.8125 C 61.875 165.308594 61.070312 163.300781 60.085938 161.347656 C 59.101562 159.390625 57.640625 155.902344 56.832031 153.589844 C 56.023438 151.273438 55.03125 149.210938 54.628906 149 C 54.226562 148.792969 49.484375 148.378906 44.09375 148.082031 C 37.820312 147.734375 33.601562 147.296875 32.382812 146.859375 C 30.054688 146.023438 27.375 143.171875 26.996094 141.125 C 26.84375 140.296875 26.78125 134.148438 26.859375 127.460938 L 26.996094 115.308594 L 28.390625 113.558594 C 30.859375 110.464844 32.023438 110.152344 43.8125 109.429688 C 50.488281 109.015625 54.546875 108.582031 54.882812 108.242188 C 55.171875 107.945312 56.171875 105.652344 57.101562 103.144531 C 58.03125 100.640625 59.484375 97.207031 60.335938 95.519531 C 61.179688 93.835938 61.875 92.085938 61.875 91.632812 C 61.875 91.179688 59.078125 87.746094 55.667969 84 C 52.257812 80.257812 48.992188 76.574219 48.414062 75.8125 C 46.792969 73.664062 46.246094 71.007812 46.886719 68.40625 C 47.371094 66.4375 48.257812 65.375 55.675781 57.859375 C 60.210938 53.257812 64.6875 49.101562 65.617188 48.625 C 67.773438 47.515625 71.207031 47.5 73.351562 48.589844 C 74.25 49.050781 78.210938 52.382812 82.148438 56 C 86.085938 59.613281 89.574219 62.722656 89.898438 62.90625 C 90.242188 63.101562 92.367188 62.359375 94.945312 61.132812 C 97.394531 59.976562 101.058594 58.46875 103.085938 57.78125 C 105.839844 56.855469 106.90625 56.261719 107.289062 55.453125 C 107.570312 54.851562 108.046875 49.953125 108.355469 44.5625 C 108.945312 34.195312 109.300781 32.554688 111.4375 30.324219 C 113.816406 27.84375 115.1875 27.636719 128.476562 27.789062 L 140.585938 27.921875 L 142.476562 29.175781 C 145.734375 31.335938 146.132812 32.675781 146.898438 44.210938 C 147.269531 49.796875 147.675781 54.796875 147.796875 55.328125 C 147.972656 56.078125 148.96875 56.625 152.214844 57.757812 C 154.523438 58.566406 158.210938 60.132812 160.417969 61.238281 C 162.625 62.347656 164.609375 63.253906 164.824219 63.253906 C 165.039062 63.253906 168.585938 60.164062 172.695312 56.390625 C 176.8125 52.609375 180.9375 49.125 181.867188 48.640625 C 184.070312 47.488281 187.34375 47.5 189.746094 48.664062 C 190.890625 49.21875 194.765625 52.746094 199.640625 57.667969 C 208.003906 66.113281 208.664062 67.078125 208.667969 70.90625 C 208.671875 73.609375 207.46875 75.382812 200.28125 83.265625 C 196.367188 87.554688 193.171875 91.242188 193.171875 91.464844 C 193.171875 91.6875 194.191406 93.996094 195.4375 96.59375 C 196.6875 99.195312 198.171875 102.835938 198.742188 104.6875 C 199.453125 106.984375 200.070312 108.171875 200.695312 108.4375 C 201.195312 108.648438 206.234375 109.113281 211.894531 109.46875 C 223.125 110.167969 224.933594 110.632812 226.816406 113.28125 C 228.597656 115.78125 228.804688 117.65625 228.648438 129.890625 L 228.5 141.59375 L 227.128906 143.546875 C 224.675781 147.035156 224.054688 147.210938 211.59375 148.027344 C 205.507812 148.421875 200.421875 148.855469 200.289062 148.984375 C 200.160156 149.117188 199.40625 151.0625 198.609375 153.3125 C 197.816406 155.558594 196.257812 159.210938 195.144531 161.429688 C 194.03125 163.644531 193.183594 165.734375 193.257812 166.066406 C 193.335938 166.398438 196.375 169.914062 200.007812 173.882812 C 203.644531 177.84375 207.082031 182 207.648438 183.109375 C 208.84375 185.476562 208.953125 187.976562 207.96875 190.34375 C 207.09375 192.429688 192.289062 207.476562 189.882812 208.722656 C 187.871094 209.765625 184.207031 209.875 182.101562 208.960938 C 181.292969 208.609375 177.25 205.226562 173.109375 201.4375 C 168.976562 197.65625 165.257812 194.554688 164.859375 194.554688 C 164.453125 194.554688 162.125 195.488281 159.679688 196.632812 C 157.234375 197.773438 153.609375 199.242188 151.625 199.898438 C 148.882812 200.800781 147.960938 201.3125 147.796875 202.039062 C 147.671875 202.558594 147.269531 207.554688 146.898438 213.140625 C 146.082031 225.421875 145.609375 226.75 141.335938 228.917969 C 140.09375 229.546875 138.042969 229.65625 127.65625 229.640625 C 118.46875 229.625 115.101562 229.46875 114.070312 229.011719 Z M 132.078125 174.480469 C 143.101562 173.324219 152.3125 168.929688 160.148438 161.078125 C 166.125 155.101562 169.980469 148.386719 172.304688 139.925781 C 173.757812 134.621094 173.75 122.90625 172.285156 117.539062 C 167.84375 101.242188 156.179688 89.246094 140.058594 84.390625 C 136.304688 83.257812 135.28125 83.152344 127.976562 83.121094 C 120.980469 83.089844 119.523438 83.21875 116.125 84.144531 C 99.15625 88.773438 86.179688 102.410156 82.632812 119.328125 C 79.445312 134.53125 84.105469 150.046875 95.203125 161.203125 C 101.015625 167.039062 108.554688 171.328125 116.722656 173.429688 C 119.054688 174.03125 122.359375 174.492188 127.066406 174.875 C 127.441406 174.90625 129.699219 174.726562 132.078125 174.480469 Z M 120.773438 155.367188 C 109.148438 152.210938 101.015625 142.320312 100.296875 130.460938 C 99.789062 122.167969 102.460938 115.152344 108.347656 109.289062 C 119.070312 98.605469 136.195312 98.507812 146.78125 109.0625 C 155.503906 117.757812 157.59375 130.125 152.183594 140.980469 C 147.574219 150.226562 139.078125 155.679688 128.664062 156.089844 C 125.117188 156.226562 123.363281 156.070312 120.773438 155.367188 Z M 133.78125 143.867188 C 136.992188 142.667969 140.820312 139.109375 142.429688 135.828125 C 143.570312 133.515625 143.703125 132.742188 143.703125 128.675781 C 143.703125 124.347656 143.625 123.96875 142.140625 121.234375 C 139.148438 115.710938 134.707031 112.914062 128.433594 112.601562 C 123.390625 112.34375 120.375 113.414062 116.734375 116.738281 C 112.125 120.953125 110.289062 126.816406 111.769531 132.601562 C 113.054688 137.605469 115.769531 141.007812 120.339844 143.320312 C 124.601562 145.484375 128.992188 145.664062 133.78125 143.867188 Z M 133.78125 143.867188 "/>
</g>
</svg>
