
<svg xmlns="http://www.w3.org/2000/svg" xmlns:xlink="http://www.w3.org/1999/xlink" width="256px" height="256px" viewBox="0 0 256 256" version="1.1">
<g id="surface1">
<path style="fill-rule:nonzero;fill:rgb(100%,100%,100%);fill-opacity:1;stroke-width:28.191782;stroke-linecap:butt;stroke-linejoin:miter;stroke:rgb(82.745098%,34.901961%,30.196078%);stroke-opacity:1;stroke-miterlimit:4;" d="M 81.484375 25.09375 L 430.515625 25.09375 C 461.65625 25.09375 486.90625 50.34375 486.90625 81.484375 L 486.90625 430.515625 C 486.90625 461.65625 461.65625 486.90625 430.515625 486.90625 L 81.484375 486.90625 C 50.34375 486.90625 25.09375 461.65625 25.09375 430.515625 L 25.09375 81.484375 C 25.09375 50.34375 50.34375 25.09375 81.484375 25.09375 Z M 81.484375 25.09375 " transform="matrix(0.5,0,0,0.5,0,0)"/>
<path style=" stroke:none;fill-rule:nonzero;fill:rgb(96.470588%,27.843137%,27.843137%);fill-opacity:0.996078;" d="M 128 31.839844 C 128 31.839844 36.453125 214.90625 31.839844 224.160156 C 128 137.617188 127.90625 224.160156 224.160156 224.160156 C 221.65625 219.285156 128 31.839844 128 31.839844 Z M 128 31.839844 "/>
<path style=" stroke:none;fill-rule:nonzero;fill:rgb(0%,0%,0%);fill-opacity:0.301961;" d="M 110.757812 156.847656 C 84.320312 156.847656 34.144531 219.53125 31.839844 224.160156 C 128 137.617188 127.90625 224.160156 224.160156 224.160156 C 222.910156 221.722656 219.332031 214.648438 219.332031 214.648438 C 167.449219 214.292969 145.726562 156.847656 110.757812 156.847656 Z M 110.757812 156.847656 "/>
<path style=" stroke:none;fill-rule:nonzero;fill:rgb(0%,0%,0%);fill-opacity:0.301961;" d="M 104.703125 180.914062 C 87.375 180.335938 66.742188 188.921875 36.101562 215.640625 C 35.570312 216.703125 32.042969 223.75 31.839844 224.160156 C 128 137.617188 127.90625 224.160156 224.160156 224.160156 C 224.097656 224.039062 221.898438 219.640625 221.71875 219.289062 C 160.46875 218.320312 138.855469 182.066406 104.703125 180.914062 Z M 104.703125 180.914062 "/>
</g>
</svg>
