<!-- color: #b0d0da -->
<svg xmlns="http://www.w3.org/2000/svg" xmlns:xlink="http://www.w3.org/1999/xlink" width="256px" height="256px" viewBox="0 0 256 256" version="1.1">
<defs>
<clipPath id="clip1">
  <path d="M 93 93 L 164 93 L 164 164 L 93 164 Z M 93 93 "/>
</clipPath>
<clipPath id="clip2">
  <path d="M 306.234375 128.359375 C 306.234375 226.523438 226.640625 306.03125 128.5625 306.03125 C 30.484375 306.03125 -49.109375 226.523438 -49.109375 128.359375 C -49.109375 30.195312 30.484375 -49.316406 128.5625 -49.316406 C 226.640625 -49.316406 306.234375 30.195312 306.234375 128.359375 Z M 306.234375 128.359375 "/>
</clipPath>
<clipPath id="clip3">
  <path d="M 28 27.5 L 229 27.5 L 229 229 L 28 229 Z M 28 27.5 "/>
</clipPath>
<clipPath id="clip4">
  <path d="M 306.234375 128.359375 C 306.234375 226.523438 226.640625 306.03125 128.5625 306.03125 C 30.484375 306.03125 -49.109375 226.523438 -49.109375 128.359375 C -49.109375 30.195312 30.484375 -49.316406 128.5625 -49.316406 C 226.640625 -49.316406 306.234375 30.195312 306.234375 128.359375 Z M 306.234375 128.359375 "/>
</clipPath>
</defs>
<g id="surface1">
<path style="fill-rule:nonzero;fill:rgb(100%,100%,100%);fill-opacity:1;stroke-width:6.876723;stroke-linecap:butt;stroke-linejoin:miter;stroke:rgb(14.117647%,28.627451%,51.764706%);stroke-opacity:1;stroke-miterlimit:4;" d="M 21.429688 7.677734 L 106.570312 7.677734 C 114.166016 7.677734 120.322266 13.833984 120.322266 21.429688 L 120.322266 106.570312 C 120.322266 114.166016 114.166016 120.322266 106.570312 120.322266 L 21.429688 120.322266 C 13.833984 120.322266 7.677734 114.166016 7.677734 106.570312 L 7.677734 21.429688 C 7.677734 13.833984 13.833984 7.677734 21.429688 7.677734 Z M 21.429688 7.677734 " transform="matrix(2,0,0,2,0,0)"/>
<g clip-path="url(#clip1)" clip-rule="nonzero">
<g clip-path="url(#clip2)" clip-rule="nonzero">
<path style=" stroke:none;fill-rule:nonzero;fill:rgb(97.647059%,72.941176%,9.411765%);fill-opacity:1;" d="M 163.867188 128.359375 C 163.867188 147.851562 148.054688 163.664062 128.5625 163.664062 C 109.070312 163.664062 93.257812 147.851562 93.257812 128.359375 C 93.257812 108.867188 109.070312 93.054688 128.5625 93.054688 C 148.054688 93.054688 163.867188 108.867188 163.867188 128.359375 M 163.867188 128.359375 "/>
</g>
</g>
<g clip-path="url(#clip3)" clip-rule="nonzero">
<g clip-path="url(#clip4)" clip-rule="nonzero">
<path style=" stroke:none;fill-rule:nonzero;fill:rgb(9.019608%,27.058824%,45.882353%);fill-opacity:1;" d="M 40.628906 27.933594 L 28.136719 40.425781 L 72.828125 85.144531 L 72.828125 85.320312 L 85.351562 97.8125 C 94.945312 84.265625 110.695312 75.367188 128.5625 75.367188 C 135.476562 75.367188 142.019531 76.84375 148.054688 79.226562 L 161.300781 66.007812 C 151.492188 60.789062 140.453125 57.714844 128.5625 57.714844 C 112.269531 57.714844 97.296875 63.351562 85.351562 72.625 M 216.496094 27.933594 L 171.773438 72.625 C 171.714844 72.5625 171.683594 72.5 171.597656 72.445312 L 159.109375 84.9375 C 172.71875 94.53125 181.523438 110.46875 181.523438 128.359375 C 181.523438 135.328125 180.101562 141.9375 177.664062 148.035156 L 190.910156 161.28125 C 196.164062 151.449219 199.207031 140.28125 199.207031 128.359375 C 199.207031 112.066406 193.570312 97.09375 184.296875 85.144531 L 228.984375 40.457031 L 216.464844 27.933594 M 66.222656 95.4375 C 60.9375 105.269531 57.925781 116.40625 57.925781 128.359375 C 57.925781 144.648438 63.5625 159.621094 72.835938 171.570312 L 28.144531 216.261719 L 40.636719 228.78125 L 53.882812 215.535156 L 53.707031 215.359375 L 97.671875 171.394531 C 84.304688 161.769531 75.585938 146.078125 75.585938 128.335938 C 75.585938 121.398438 77.039062 114.757812 79.445312 108.660156 L 66.226562 95.414062 M 171.78125 158.90625 C 162.1875 172.453125 146.4375 181.320312 128.570312 181.320312 C 121.445312 181.320312 114.71875 179.8125 108.53125 177.28125 L 95.28125 190.53125 C 105.210938 195.898438 116.496094 198.980469 128.570312 198.980469 C 144.859375 198.980469 159.832031 193.367188 171.78125 184.101562 L 216.472656 228.789062 L 228.992188 216.269531 L 202.683594 189.773438 L 184.304688 171.578125 C 184.335938 171.546875 184.273438 171.425781 184.304688 171.402344 L 171.78125 158.882812 M 171.78125 158.910156 "/>
</g>
</g>
</g>
</svg>
