
<svg xmlns="http://www.w3.org/2000/svg" xmlns:xlink="http://www.w3.org/1999/xlink" width="256px" height="256px" viewBox="0 0 256 256" version="1.1">
<g id="surface1">
<path style="fill-rule:nonzero;fill:rgb(17.254902%,24.313725%,31.372549%);fill-opacity:1;stroke-width:2.48309;stroke-linecap:butt;stroke-linejoin:miter;stroke:rgb(16.862745%,65.882353%,92.156863%);stroke-opacity:1;stroke-miterlimit:4;" d="M 8.628662 3.662842 L 39.371337 3.662842 C 42.114256 3.662842 44.337889 5.885742 44.337889 8.628662 L 44.337889 39.371337 C 44.337889 42.114256 42.114256 44.337889 39.371337 44.337889 L 8.628662 44.337889 C 5.885742 44.337889 3.662842 42.114256 3.662842 39.371337 L 3.662842 8.628662 C 3.662842 5.885742 5.885742 3.662842 8.628662 3.662842 Z M 8.628662 3.662842 " transform="matrix(5.333334,0,0,5.333334,0,0)"/>
<path style=" stroke:none;fill-rule:nonzero;fill:rgb(92.54902%,94.117647%,94.509804%);fill-opacity:1;" d="M 78.277344 73.789062 L 78.277344 79.867188 C 78.882812 79.835938 79.484375 79.820312 80.085938 79.8125 C 105.039062 79.8125 125.265625 100.039062 125.265625 124.988281 C 125.261719 143.664062 113.769531 160.410156 96.347656 167.132812 L 96.347656 158.117188 L 72.253906 158.117188 L 72.253906 182.210938 L 96.347656 182.210938 L 96.347656 173.492188 C 96.617188 173.390625 96.890625 173.285156 97.160156 173.179688 L 156.984375 173.179688 C 158.355469 178.492188 163.144531 182.203125 168.632812 182.210938 C 175.285156 182.210938 180.679688 176.820312 180.679688 170.164062 C 180.679688 163.511719 175.285156 158.117188 168.632812 158.117188 C 163.140625 158.121094 158.34375 161.835938 156.972656 167.15625 L 108.992188 167.15625 C 122.921875 157.628906 131.257812 141.859375 131.289062 124.988281 C 131.273438 106.058594 120.8125 88.683594 104.089844 79.8125 L 162.609375 79.8125 L 162.609375 73.789062 Z M 78.277344 164.140625 L 90.324219 164.140625 L 90.324219 176.1875 L 78.277344 176.1875 Z M 168.632812 164.140625 C 171.960938 164.140625 174.65625 166.835938 174.65625 170.164062 C 174.65625 173.492188 171.960938 176.1875 168.632812 176.1875 C 165.304688 176.1875 162.609375 173.492188 162.609375 170.164062 C 162.609375 166.835938 165.304688 164.140625 168.632812 164.140625 Z M 168.632812 164.140625 "/>
</g>
</svg>
