
<svg xmlns="http://www.w3.org/2000/svg" xmlns:xlink="http://www.w3.org/1999/xlink" width="256px" height="256px" viewBox="0 0 256 256" version="1.1">
<g id="surface1">
<path style=" stroke:none;fill-rule:nonzero;fill:rgb(100%,100%,100%);fill-opacity:1;" d="M 101.335938 74.664062 C 145.515625 74.664062 181.335938 110.484375 181.335938 154.664062 C 181.335938 198.851562 145.515625 234.664062 101.335938 234.664062 C 57.148438 234.664062 21.335938 198.851562 21.335938 154.664062 C 21.335938 110.484375 57.148438 74.664062 101.335938 74.664062 Z M 101.335938 74.664062 "/>
<path style=" stroke:none;fill-rule:nonzero;fill:rgb(100%,100%,100%);fill-opacity:1;" d="M 150.945312 21.335938 C 129.699219 35.421875 117.023438 48.207031 112.179688 64.695312 C 146.632812 68.78125 174.96875 92.023438 186.4375 123.554688 C 216.515625 108.265625 234.664062 58.59375 234.664062 58.59375 C 234.664062 58.59375 194.640625 47.53125 160.96875 61.523438 C 163.523438 45.960938 150.945312 21.335938 150.945312 21.335938 Z M 150.945312 21.335938 "/>
</g>
</svg>
