
<svg xmlns="http://www.w3.org/2000/svg" xmlns:xlink="http://www.w3.org/1999/xlink" width="256px" height="256px" viewBox="0 0 256 256" version="1.1">
<g id="surface1">
<path style="fill-rule:nonzero;fill:rgb(100%,100%,100%);fill-opacity:1;stroke-width:28.624428;stroke-linecap:butt;stroke-linejoin:miter;stroke:rgb(83.137255%,10.196078%,10.196078%);stroke-opacity:1;stroke-miterlimit:4;" d="M 78.796875 21.546875 L 433.203125 21.546875 C 464.8125 21.546875 490.453125 47.1875 490.453125 78.796875 L 490.453125 433.203125 C 490.453125 464.8125 464.8125 490.453125 433.203125 490.453125 L 78.796875 490.453125 C 47.1875 490.453125 21.546875 464.8125 21.546875 433.203125 L 21.546875 78.796875 C 21.546875 47.1875 47.1875 21.546875 78.796875 21.546875 Z M 78.796875 21.546875 " transform="matrix(0.5,0,0,0.5,0,0)"/>
<path style=" stroke:none;fill-rule:evenodd;fill:rgb(83.137255%,10.196078%,10.196078%);fill-opacity:1;" d="M 127.335938 59.328125 C 138.449219 59.328125 147.453125 70.738281 147.453125 84.8125 L 147.453125 127.984375 C 147.453125 142.058594 138.449219 153.46875 127.335938 153.46875 C 116.226562 153.46875 107.222656 142.058594 107.222656 127.984375 L 107.222656 84.8125 C 107.222656 70.738281 116.226562 59.328125 127.335938 59.328125 Z M 127.335938 59.328125 "/>
<path style=" stroke:none;fill-rule:evenodd;fill:rgb(83.137255%,10.196078%,10.196078%);fill-opacity:1;" d="M 99.382812 205.582031 L 155.484375 205.769531 C 140.945312 188.078125 114.3125 188.328125 99.382812 205.582031 Z M 99.382812 205.582031 "/>
<path style=" stroke:none;fill-rule:evenodd;fill:rgb(83.137255%,10.196078%,10.196078%);fill-opacity:1;" d="M 121.484375 172.59375 L 133.546875 172.59375 L 133.546875 193.21875 L 121.484375 193.21875 Z M 121.484375 172.59375 "/>
<path style=" stroke:none;fill-rule:evenodd;fill:rgb(83.137255%,10.196078%,10.196078%);fill-opacity:1;" d="M 84.4375 132.984375 L 97.046875 132.929688 C 99.449219 173.960938 155.1875 173.664062 157.34375 132.929688 L 170.152344 133.003906 C 166.523438 192.335938 86.882812 190.171875 84.4375 132.984375 Z M 84.4375 132.984375 "/>
</g>
</svg>
