
<svg xmlns="http://www.w3.org/2000/svg" xmlns:xlink="http://www.w3.org/1999/xlink" width="256px" height="256px" viewBox="0 0 256 256" version="1.1">
<g id="surface1">
<path style="fill-rule:nonzero;fill:rgb(100%,100%,100%);fill-opacity:1;stroke-width:28.191782;stroke-linecap:butt;stroke-linejoin:miter;stroke:rgb(7.058824%,69.803922%,90.588235%);stroke-opacity:1;stroke-miterlimit:4;" d="M 81.476562 25.09375 L 430.515625 25.09375 C 461.65625 25.09375 486.898438 50.335938 486.898438 81.476562 L 486.898438 430.515625 C 486.898438 461.65625 461.65625 486.898438 430.515625 486.898438 L 81.476562 486.898438 C 50.335938 486.898438 25.09375 461.65625 25.09375 430.515625 L 25.09375 81.476562 C 25.09375 50.335938 50.335938 25.09375 81.476562 25.09375 Z M 81.476562 25.09375 " transform="matrix(0.5,0,0,0.5,0,0)"/>
<path style=" stroke:none;fill-rule:nonzero;fill:rgb(7.058824%,69.803922%,90.588235%);fill-opacity:1;" d="M 134.90625 151.96875 L 168 185.066406 C 170.953125 188.019531 170.953125 192.804688 168 195.757812 L 134.90625 228.851562 C 131.953125 231.804688 127.164062 231.804688 124.210938 228.851562 L 91.117188 195.757812 C 88.164062 192.804688 88.164062 188.019531 91.117188 185.066406 L 124.210938 151.96875 C 127.164062 149.019531 131.953125 149.019531 134.90625 151.96875 Z M 134.90625 151.96875 "/>
<path style=" stroke:none;fill-rule:nonzero;fill:rgb(7.058824%,69.803922%,90.588235%);fill-opacity:1;" d="M 196.195312 90.683594 L 229.289062 123.777344 C 232.242188 126.730469 232.242188 131.515625 229.289062 134.46875 L 196.195312 167.566406 C 193.242188 170.515625 188.453125 170.515625 185.5 167.566406 L 152.40625 134.46875 C 149.453125 131.515625 149.453125 126.730469 152.40625 123.777344 L 185.5 90.683594 C 188.453125 87.730469 193.242188 87.730469 196.195312 90.683594 Z M 196.195312 90.683594 "/>
<path style=" stroke:none;fill-rule:nonzero;fill:rgb(7.058824%,69.803922%,90.588235%);fill-opacity:1;" d="M 134.492188 27.148438 L 167.585938 60.242188 C 170.546875 63.203125 170.484375 67.910156 167.585938 70.933594 L 98.5 142.960938 C 95.601562 145.984375 87.757812 147.148438 87.804688 142.960938 L 88.625 70.933594 C 88.796875 68.445312 87.742188 63.203125 90.703125 60.242188 L 123.796875 27.148438 C 126.761719 24.183594 131.53125 24.183594 134.492188 27.148438 Z M 134.492188 27.148438 "/>
<path style=" stroke:none;fill-rule:nonzero;fill:rgb(7.058824%,69.803922%,90.588235%);fill-opacity:1;" d="M 70.5 91.203125 L 70.882812 124.296875 C 70.933594 128.484375 70.933594 130.800781 70.882812 134.992188 L 70.5 168.085938 C 70.453125 172.273438 62.769531 171.046875 59.804688 168.085938 L 26.710938 134.992188 C 23.75 132.027344 23.75 127.257812 26.710938 124.296875 L 59.804688 91.203125 C 62.769531 88.242188 70.453125 87.015625 70.5 91.203125 Z M 70.5 91.203125 "/>
</g>
</svg>
