
<svg xmlns="http://www.w3.org/2000/svg" xmlns:xlink="http://www.w3.org/1999/xlink" width="256px" height="256px" viewBox="0 0 256 256" version="1.1">
<g id="surface1">
<path style="fill-rule:nonzero;fill:rgb(100%,100%,100%);fill-opacity:1;stroke-width:7.167403;stroke-linecap:butt;stroke-linejoin:miter;stroke:rgb(67.45098%,57.647059%,57.647059%);stroke-opacity:1;stroke-miterlimit:4;" d="M 19.630859 0.144377 L 108.369141 0.144377 C 116.287109 0.144377 122.705078 6.562346 122.705078 14.480314 L 122.705078 103.218596 C 122.705078 111.136564 116.287109 117.554533 108.369141 117.554533 L 19.630859 117.554533 C 11.712891 117.554533 5.294922 111.136564 5.294922 103.218596 L 5.294922 14.480314 C 5.294922 6.562346 11.712891 0.144377 19.630859 0.144377 Z M 19.630859 0.144377 " transform="matrix(2,0,0,2,0,10.30109)"/>
<path style="fill-rule:nonzero;fill:rgb(100%,100%,100%);fill-opacity:1;stroke-width:1.533927;stroke-linecap:round;stroke-linejoin:round;stroke:rgb(33.333333%,34.117647%,32.54902%);stroke-opacity:1;stroke-miterlimit:10;" d="M 12.876271 -0.248577 L 74.877477 -0.248577 C 75.983217 -0.248577 76.876873 0.646891 76.876873 1.750818 L 76.876873 37.750817 C 76.876873 38.856557 75.983217 39.750213 74.877477 39.750213 L 12.876271 39.750213 C 11.774156 39.750213 10.878688 38.856557 10.878688 37.750817 L 10.878688 1.750818 C 10.878688 0.646891 11.774156 -0.248577 12.876271 -0.248577 Z M 12.876271 -0.248577 " transform="matrix(2.154948,0,0,2.154948,41.947618,68.863796)"/>
<path style=" stroke:none;fill-rule:nonzero;fill:rgb(31.372549%,28.627451%,28.627451%);fill-opacity:1;" d="M 67.542969 85.566406 L 205.460938 85.566406 L 205.460938 104.960938 L 67.542969 104.960938 Z M 67.542969 85.566406 "/>
<path style=" stroke:none;fill-rule:nonzero;fill:rgb(0%,0%,0%);fill-opacity:1;" d="M 83.109375 115.609375 L 185.992188 115.609375 L 185.992188 152.957031 L 83.109375 152.957031 Z M 83.109375 115.609375 "/>
<path style="fill-rule:nonzero;fill:rgb(100%,100%,100%);fill-opacity:1;stroke-width:1.533925;stroke-linecap:round;stroke-linejoin:round;stroke:rgb(33.333333%,34.117647%,32.54902%);stroke-opacity:1;stroke-miterlimit:10;" d="M 1.066167 -50.059294 L 63.066341 -50.058144 C 64.171221 -50.058147 65.065894 -49.163478 65.065896 -48.058598 L 65.065973 -12.058993 C 65.065975 -10.954113 64.170025 -10.058159 63.065145 -10.058156 L 1.066253 -10.058024 C -0.0373455 -10.059304 -0.934582 -10.953972 -0.934584 -12.058852 L -0.934661 -48.058457 C -0.934663 -49.163337 -0.0387126 -50.059292 1.066167 -50.059294 Z M 1.066167 -50.059294 " transform="matrix(1.523777,1.523783,-1.523783,1.523777,29.720898,108.685818)"/>
<path style=" stroke:none;fill-rule:nonzero;fill:rgb(31.372549%,28.627451%,28.627451%);fill-opacity:1;" d="M 93.910156 44.695312 L 191.429688 142.21875 L 177.71875 155.933594 L 80.195312 58.414062 Z M 93.910156 44.695312 "/>
<path style=" stroke:none;fill-rule:evenodd;fill:rgb(67.45098%,57.647059%,57.647059%);fill-opacity:1;" d="M 51.195312 102.070312 L 214.21875 102.070312 C 219.765625 102.070312 224.265625 106.570312 224.265625 112.117188 L 224.265625 211.078125 C 224.265625 216.625 219.765625 221.125 214.21875 221.125 L 51.195312 221.125 C 45.648438 221.125 41.148438 216.625 41.148438 211.078125 L 41.148438 112.117188 C 41.148438 106.570312 45.648438 102.070312 51.195312 102.070312 Z M 51.195312 102.070312 "/>
<path style="fill-rule:evenodd;fill:rgb(65.490196%,57.647059%,57.647059%);fill-opacity:1;stroke-width:2.892341;stroke-linecap:butt;stroke-linejoin:miter;stroke:rgb(41.176471%,35.686275%,35.686275%);stroke-opacity:1;stroke-miterlimit:4;" d="M 15.505859 67.292814 L 37.951172 67.292814 C 38.677734 67.292814 39.267578 67.882658 39.267578 68.609221 L 39.267578 81.581877 C 39.267578 82.310393 38.677734 82.900236 37.951172 82.900236 L 15.505859 82.900236 C 14.777344 82.900236 14.1875 82.310393 14.1875 81.581877 L 14.1875 68.609221 C 14.1875 67.882658 14.777344 67.292814 15.505859 67.292814 Z M 15.505859 67.292814 " transform="matrix(2,0,0,2,0,10.30109)"/>
<path style=" stroke:none;fill-rule:nonzero;fill:rgb(78.431373%,76.862745%,71.764706%);fill-opacity:1;" d="M 68.949219 160.078125 C 68.949219 165.71875 64.125 170.308594 58.148438 170.351562 C 52.171875 170.390625 47.28125 165.867188 47.195312 160.222656 C 47.109375 154.578125 51.859375 149.921875 57.835938 149.804688 C 63.8125 149.683594 68.773438 154.140625 68.945312 159.78125 "/>
<path style=" stroke:none;fill-rule:nonzero;fill:rgb(100%,96.470588%,83.529412%);fill-opacity:1;" d="M 59.703125 157.40625 C 59.703125 159.867188 57.601562 161.871094 54.992188 161.890625 C 52.386719 161.90625 50.25 159.933594 50.214844 157.46875 C 50.179688 155.007812 52.25 152.976562 54.859375 152.925781 C 57.464844 152.875 59.628906 154.816406 59.703125 157.277344 "/>
</g>
</svg>
