<!-- color: #1d384d -->
<svg xmlns="http://www.w3.org/2000/svg" xmlns:xlink="http://www.w3.org/1999/xlink" width="256px" height="256px" viewBox="0 0 256 256" version="1.1">
<defs>
<clipPath id="clip1">
  <path d="M 31.5 31.5 L 124.5 31.5 L 124.5 124.5 L 31.5 124.5 Z M 31.5 31.5 "/>
</clipPath>
<clipPath id="clip2">
  <path d="M 298.496094 128 C 298.496094 222.203125 222.109375 298.5 127.996094 298.5 C 33.882812 298.5 -42.503906 222.203125 -42.503906 128 C -42.503906 33.796875 33.882812 -42.5 127.996094 -42.5 C 222.109375 -42.5 298.496094 33.796875 298.496094 128 Z M 298.496094 128 "/>
</clipPath>
<clipPath id="clip3">
  <path d="M 131.5 31.5 L 224.5 31.5 L 224.5 124.5 L 131.5 124.5 Z M 131.5 31.5 "/>
</clipPath>
<clipPath id="clip4">
  <path d="M 298.496094 128 C 298.496094 222.203125 222.109375 298.5 127.996094 298.5 C 33.882812 298.5 -42.503906 222.203125 -42.503906 128 C -42.503906 33.796875 33.882812 -42.5 127.996094 -42.5 C 222.109375 -42.5 298.496094 33.796875 298.496094 128 Z M 298.496094 128 "/>
</clipPath>
<clipPath id="clip5">
  <path d="M 83 135 L 121 135 L 121 172.5 L 83 172.5 Z M 83 135 "/>
</clipPath>
<clipPath id="clip6">
  <path d="M 298.496094 128 C 298.496094 222.203125 222.109375 298.5 127.996094 298.5 C 33.882812 298.5 -42.503906 222.203125 -42.503906 128 C -42.503906 33.796875 33.882812 -42.5 127.996094 -42.5 C 222.109375 -42.5 298.496094 33.796875 298.496094 128 Z M 298.496094 128 "/>
</clipPath>
<clipPath id="clip7">
  <path d="M 31.5 131.5 L 124.5 131.5 L 124.5 224.5 L 31.5 224.5 Z M 31.5 131.5 "/>
</clipPath>
<clipPath id="clip8">
  <path d="M 298.496094 128 C 298.496094 222.203125 222.109375 298.5 127.996094 298.5 C 33.882812 298.5 -42.503906 222.203125 -42.503906 128 C -42.503906 33.796875 33.882812 -42.5 127.996094 -42.5 C 222.109375 -42.5 298.496094 33.796875 298.496094 128 Z M 298.496094 128 "/>
</clipPath>
<clipPath id="clip9">
  <path d="M 131.5 131.5 L 224.5 131.5 L 224.5 224.5 L 131.5 224.5 Z M 131.5 131.5 "/>
</clipPath>
<clipPath id="clip10">
  <path d="M 298.496094 128 C 298.496094 222.203125 222.109375 298.5 127.996094 298.5 C 33.882812 298.5 -42.503906 222.203125 -42.503906 128 C -42.503906 33.796875 33.882812 -42.5 127.996094 -42.5 C 222.109375 -42.5 298.496094 33.796875 298.496094 128 Z M 298.496094 128 "/>
</clipPath>
<clipPath id="clip11">
  <path d="M 135 135 L 172.5 135 L 172.5 172.5 L 135 172.5 Z M 135 135 "/>
</clipPath>
<clipPath id="clip12">
  <path d="M 298.496094 128 C 298.496094 222.203125 222.109375 298.5 127.996094 298.5 C 33.882812 298.5 -42.503906 222.203125 -42.503906 128 C -42.503906 33.796875 33.882812 -42.5 127.996094 -42.5 C 222.109375 -42.5 298.496094 33.796875 298.496094 128 Z M 298.496094 128 "/>
</clipPath>
<clipPath id="clip13">
  <path d="M 135 83.5 L 172.5 83.5 L 172.5 121 L 135 121 Z M 135 83.5 "/>
</clipPath>
<clipPath id="clip14">
  <path d="M 298.496094 128 C 298.496094 222.203125 222.109375 298.5 127.996094 298.5 C 33.882812 298.5 -42.503906 222.203125 -42.503906 128 C -42.503906 33.796875 33.882812 -42.5 127.996094 -42.5 C 222.109375 -42.5 298.496094 33.796875 298.496094 128 Z M 298.496094 128 "/>
</clipPath>
<clipPath id="clip15">
  <path d="M 83 83.5 L 121 83.5 L 121 121 L 83 121 Z M 83 83.5 "/>
</clipPath>
<clipPath id="clip16">
  <path d="M 298.496094 128 C 298.496094 222.203125 222.109375 298.5 127.996094 298.5 C 33.882812 298.5 -42.503906 222.203125 -42.503906 128 C -42.503906 33.796875 33.882812 -42.5 127.996094 -42.5 C 222.109375 -42.5 298.496094 33.796875 298.496094 128 Z M 298.496094 128 "/>
</clipPath>
</defs>
<g id="surface1">
<path style="fill-rule:nonzero;fill:rgb(100%,100%,100%);fill-opacity:1;stroke-width:7.042213;stroke-linecap:butt;stroke-linejoin:miter;stroke:rgb(20.392157%,39.607843%,64.313725%);stroke-opacity:1;stroke-miterlimit:4;" d="M 20.404297 6.320312 L 107.595703 6.320312 C 115.373047 6.320312 121.679688 12.626953 121.679688 20.404297 L 121.679688 107.595703 C 121.679688 115.373047 115.373047 121.679688 107.595703 121.679688 L 20.404297 121.679688 C 12.626953 121.679688 6.320312 115.373047 6.320312 107.595703 L 6.320312 20.404297 C 6.320312 12.626953 12.626953 6.320312 20.404297 6.320312 Z M 20.404297 6.320312 " transform="matrix(2,0,0,2,0,0)"/>
<g clip-path="url(#clip1)" clip-rule="nonzero">
<g clip-path="url(#clip2)" clip-rule="nonzero">
<path style=" stroke:none;fill-rule:nonzero;fill:rgb(20.392157%,39.607843%,64.313725%);fill-opacity:1;" d="M 78.015625 31.632812 C 52.390625 31.632812 31.625 52.394531 31.625 78.023438 C 31.625 102.523438 50.648438 122.46875 74.6875 124.203125 C 76.601562 97.789062 97.796875 76.597656 124.210938 74.6875 C 122.472656 50.652344 102.515625 31.625 78.046875 31.625 M 78.015625 31.625 "/>
</g>
</g>
<g clip-path="url(#clip3)" clip-rule="nonzero">
<g clip-path="url(#clip4)" clip-rule="nonzero">
<path style=" stroke:none;fill-rule:nonzero;fill:rgb(20.392157%,39.607843%,64.313725%);fill-opacity:1;" d="M 177.976562 31.632812 C 153.476562 31.632812 133.527344 50.652344 131.789062 74.695312 C 158.203125 76.605469 179.398438 97.796875 181.3125 124.210938 C 205.34375 122.476562 224.375 102.523438 224.375 78.050781 C 224.375 52.421875 203.609375 31.632812 177.984375 31.632812 M 177.984375 31.632812 "/>
</g>
</g>
<g clip-path="url(#clip5)" clip-rule="nonzero">
<g clip-path="url(#clip6)" clip-rule="nonzero">
<path style=" stroke:none;fill-rule:nonzero;fill:rgb(20.392157%,39.607843%,64.313725%);fill-opacity:1;" d="M 83.488281 135.414062 C 85.34375 157.96875 97.996094 170.625 120.554688 172.476562 L 120.554688 135.414062 M 83.488281 135.414062 "/>
</g>
</g>
<g clip-path="url(#clip7)" clip-rule="nonzero">
<g clip-path="url(#clip8)" clip-rule="nonzero">
<path style=" stroke:none;fill-rule:nonzero;fill:rgb(20.392157%,39.607843%,64.313725%);fill-opacity:1;" d="M 73.355469 131.796875 C 49.960938 134.167969 31.625 153.914062 31.625 177.957031 C 31.625 203.585938 52.390625 224.347656 78.015625 224.347656 C 102.515625 224.347656 122.46875 205.347656 124.203125 181.3125 C 97.789062 179.402344 76.59375 158.179688 74.679688 131.765625 C 74.214844 131.824219 73.785156 131.734375 73.320312 131.765625 M 73.347656 131.796875 "/>
</g>
</g>
<g clip-path="url(#clip9)" clip-rule="nonzero">
<g clip-path="url(#clip10)" clip-rule="nonzero">
<path style=" stroke:none;fill-rule:nonzero;fill:rgb(20.392157%,39.607843%,64.313725%);fill-opacity:1;" d="M 181.296875 131.796875 C 179.382812 158.179688 158.1875 179.402344 131.777344 181.3125 C 133.460938 205.347656 153.46875 224.375 177.9375 224.375 C 203.5625 224.375 224.328125 203.585938 224.328125 177.957031 C 224.328125 153.484375 205.328125 133.539062 181.265625 131.796875 M 181.265625 131.796875 "/>
</g>
</g>
<g clip-path="url(#clip11)" clip-rule="nonzero">
<g clip-path="url(#clip12)" clip-rule="nonzero">
<path style=" stroke:none;fill-rule:nonzero;fill:rgb(20.392157%,39.607843%,64.313725%);fill-opacity:1;" d="M 172.476562 135.414062 C 170.621094 157.96875 157.96875 170.625 135.410156 172.476562 L 135.410156 135.414062 M 172.476562 135.414062 "/>
</g>
</g>
<g clip-path="url(#clip13)" clip-rule="nonzero">
<g clip-path="url(#clip14)" clip-rule="nonzero">
<path style=" stroke:none;fill-rule:nonzero;fill:rgb(20.392157%,39.607843%,64.313725%);fill-opacity:1;" d="M 172.476562 120.585938 C 170.621094 98.03125 157.96875 85.375 135.410156 83.523438 L 135.410156 120.585938 M 172.476562 120.585938 "/>
</g>
</g>
<g clip-path="url(#clip15)" clip-rule="nonzero">
<g clip-path="url(#clip16)" clip-rule="nonzero">
<path style=" stroke:none;fill-rule:nonzero;fill:rgb(20.392157%,39.607843%,64.313725%);fill-opacity:1;" d="M 83.488281 120.585938 C 85.34375 98.03125 97.996094 85.375 120.554688 83.523438 L 120.554688 120.585938 M 83.488281 120.585938 "/>
</g>
</g>
</g>
</svg>
