
<svg xmlns="http://www.w3.org/2000/svg" xmlns:xlink="http://www.w3.org/1999/xlink" width="256px" height="256px" viewBox="0 0 256 256" version="1.1">
<g id="surface1">
<path style=" stroke:none;fill-rule:evenodd;fill:rgb(80.392157%,61.176471%,42.745098%);fill-opacity:1;" d="M 40.164062 18.566406 L 216.59375 18.566406 C 230.460938 18.566406 241.703125 29.804688 241.703125 43.671875 L 241.703125 217.0625 C 241.703125 230.929688 230.460938 242.171875 216.59375 242.171875 L 40.164062 242.171875 C 26.296875 242.171875 15.054688 230.929688 15.054688 217.0625 L 15.054688 43.671875 C 15.054688 29.804688 26.296875 18.566406 40.164062 18.566406 Z M 40.164062 18.566406 "/>
<path style=" stroke:none;fill-rule:nonzero;fill:rgb(10.196078%,10.196078%,10.196078%);fill-opacity:1;" d="M 119.445312 80.585938 C 109.851562 82.101562 99.070312 87.679688 92.074219 94.738281 C 81.613281 105.289062 76.203125 120.78125 77.90625 135.296875 C 80.675781 158.90625 98.609375 176.929688 122.039062 179.65625 C 137.09375 181.40625 152.453125 176.039062 163.054688 165.328125 C 173.644531 154.625 179.0625 139.195312 177.351562 124.609375 C 175.070312 105.179688 162.851562 89.6875 144.460938 82.90625 C 136.640625 80.023438 128.03125 79.226562 119.445312 80.585938 Z M 138.996094 92.015625 C 152.398438 96.457031 163.25 108.21875 166.738281 122.082031 C 167.664062 125.75 167.664062 134.136719 166.746094 137.882812 C 163.367188 151.648438 152.472656 163.398438 138.835938 167.992188 C 134.199219 169.554688 133.109375 169.722656 127.628906 169.710938 C 122.484375 169.703125 120.867188 169.480469 117.070312 168.261719 C 107 165.03125 99.351562 159 93.5625 149.714844 C 87.925781 140.667969 86.304688 130.789062 88.84375 120.9375 C 92.710938 105.925781 106.832031 92.996094 122.21875 90.382812 C 126.945312 89.582031 133.617188 90.230469 138.996094 92.015625 Z M 119.664062 111.320312 C 115.476562 115.871094 109.71875 122.109375 106.859375 125.175781 C 99.804688 132.753906 98.328125 134.648438 99.207031 134.972656 C 99.59375 135.117188 103.59375 135.292969 108.09375 135.367188 L 116.277344 135.507812 L 116.804688 157.148438 L 122.21875 157.414062 C 125.195312 157.558594 130.0625 157.558594 133.039062 157.414062 L 138.453125 157.148438 L 138.976562 135.507812 L 147.164062 135.367188 C 151.664062 135.292969 155.664062 135.117188 156.046875 134.972656 C 156.929688 134.648438 155.449219 132.753906 148.398438 125.175781 C 145.539062 122.109375 139.777344 115.871094 135.59375 111.320312 C 131.40625 106.765625 127.820312 103.039062 127.628906 103.039062 C 127.433594 103.039062 123.851562 106.765625 119.664062 111.320312 Z M 119.664062 111.320312 "/>
<path style=" stroke:none;fill-rule:evenodd;fill:rgb(89.019608%,76.862745%,66.27451%);fill-opacity:1;" d="M 107.9375 220.957031 L 144.445312 220.957031 C 145.035156 220.957031 145.511719 221.433594 145.511719 222.023438 L 145.511719 241.082031 C 145.511719 241.671875 145.035156 242.148438 144.445312 242.148438 L 107.9375 242.148438 C 107.347656 242.148438 106.871094 241.671875 106.871094 241.082031 L 106.871094 222.023438 C 106.871094 221.433594 107.347656 220.957031 107.9375 220.957031 Z M 107.9375 220.957031 "/>
<path style=" stroke:none;fill-rule:evenodd;fill:rgb(89.019608%,76.862745%,66.27451%);fill-opacity:1;" d="M 108.375 18.5625 L 144.882812 18.5625 C 145.46875 18.5625 145.945312 19.039062 145.945312 19.625 L 145.945312 38.6875 C 145.945312 39.273438 145.46875 39.75 144.882812 39.75 L 108.375 39.75 C 107.785156 39.75 107.308594 39.273438 107.308594 38.6875 L 107.308594 19.625 C 107.308594 19.039062 107.785156 18.5625 108.375 18.5625 Z M 108.375 18.5625 "/>
</g>
</svg>
