
<svg xmlns="http://www.w3.org/2000/svg" xmlns:xlink="http://www.w3.org/1999/xlink" width="256px" height="256px" viewBox="0 0 256 256" version="1.1">
<g id="surface1">
<path style="fill-rule:nonzero;fill:rgb(100%,100%,100%);fill-opacity:1;stroke-width:7.034204;stroke-linecap:butt;stroke-linejoin:miter;stroke:rgb(30.196078%,30.196078%,30.196078%);stroke-opacity:1;stroke-miterlimit:4;" d="M 20.455078 6.386719 L 107.544922 6.386719 C 115.314453 6.386719 121.613281 12.685547 121.613281 20.455078 L 121.613281 107.544922 C 121.613281 115.314453 115.314453 121.613281 107.544922 121.613281 L 20.455078 121.613281 C 12.685547 121.613281 6.386719 115.314453 6.386719 107.544922 L 6.386719 20.455078 C 6.386719 12.685547 12.685547 6.386719 20.455078 6.386719 Z M 20.455078 6.386719 " transform="matrix(2,0,0,2,0,0)"/>
<path style=" stroke:none;fill-rule:nonzero;fill:rgb(30.196078%,30.196078%,30.196078%);fill-opacity:1;" d="M 186.886719 185.109375 C 186.601562 178.359375 176.453125 158.289062 176.695312 150.5 C 176.96875 141.664062 182.308594 130.789062 193.429688 152.054688 C 200.09375 164.796875 210.328125 156.867188 211.570312 150.664062 C 215.320312 131.90625 209.75 109.410156 192.015625 87.367188 C 161.34375 49.242188 107.429688 38.773438 71.628906 63.984375 C 35.828125 89.195312 35.109375 145.976562 67.78125 178.882812 C 97.390625 208.695312 138.226562 221.800781 172.371094 207.429688 C 175.898438 205.9375 187.585938 201.367188 186.886719 185.109375 Z M 90.980469 74.570312 C 97.441406 70.019531 106.363281 71.566406 110.914062 78.03125 C 115.46875 84.492188 113.914062 93.414062 107.457031 97.96875 C 100.992188 102.515625 92.070312 100.96875 87.515625 94.507812 C 82.964844 88.046875 84.515625 79.125 90.980469 74.570312 Z M 63.085938 132.71875 C 58.535156 126.253906 60.085938 117.328125 66.546875 112.78125 C 73.003906 108.234375 81.933594 109.773438 86.484375 116.234375 C 91.035156 122.703125 89.480469 131.625 83.023438 136.175781 C 76.5625 140.726562 67.632812 139.1875 63.085938 132.71875 Z M 132.539062 95.476562 C 127.980469 89.011719 129.53125 80.085938 135.996094 75.535156 C 142.460938 70.984375 151.382812 72.535156 155.9375 79 C 160.484375 85.460938 158.9375 94.382812 152.472656 98.933594 C 146.011719 103.484375 137.085938 101.9375 132.539062 95.476562 Z M 84.132812 169.238281 C 79.585938 162.769531 81.132812 153.84375 87.59375 149.292969 C 94.054688 144.742188 102.984375 146.292969 107.53125 152.75 C 112.082031 159.21875 110.535156 168.144531 104.070312 172.695312 C 97.613281 177.246094 88.6875 175.695312 84.132812 169.238281 Z M 84.132812 169.238281 "/>
<path style=" stroke:none;fill-rule:nonzero;fill:rgb(100%,80%,0%);fill-opacity:1;" d="M 94.820312 100.816406 C 87.5 98.523438 82.539062 90.203125 84.113281 82.859375 C 84.898438 79.1875 86.40625 76.480469 89.027344 74.03125 C 92.492188 70.789062 95.007812 69.8125 99.875 69.8125 C 104.753906 69.8125 107.257812 70.789062 110.757812 74.0625 C 119.453125 82.199219 116.34375 96.820312 105.0625 100.796875 C 102.667969 101.640625 97.488281 101.652344 94.820312 100.816406 Z M 94.820312 100.816406 "/>
<path style=" stroke:none;fill-rule:nonzero;fill:rgb(0%,40%,100%);fill-opacity:1;" d="M 139.453125 101.667969 C 132.429688 99.46875 127.664062 91.476562 129.171875 84.429688 C 129.929688 80.902344 131.375 78.300781 133.890625 75.949219 C 137.21875 72.835938 139.632812 71.898438 144.304688 71.898438 C 148.992188 71.898438 151.398438 72.835938 154.757812 75.980469 C 163.109375 83.792969 160.117188 97.828125 149.289062 101.648438 C 146.992188 102.460938 142.015625 102.46875 139.453125 101.667969 Z M 139.453125 101.667969 "/>
<path style=" stroke:none;fill-rule:nonzero;fill:rgb(0%,100%,0%);fill-opacity:1;" d="M 71 139.046875 C 63.972656 136.84375 59.203125 128.851562 60.71875 121.804688 C 61.476562 118.28125 62.921875 115.679688 65.4375 113.328125 C 68.761719 110.214844 71.179688 109.273438 75.851562 109.273438 C 80.535156 109.273438 82.9375 110.210938 86.300781 113.359375 C 94.652344 121.171875 91.664062 135.203125 80.832031 139.023438 C 78.53125 139.835938 73.5625 139.84375 71 139.046875 Z M 71 139.046875 "/>
<path style=" stroke:none;fill-rule:nonzero;fill:rgb(100%,0%,80%);fill-opacity:1;" d="M 91.15625 175.585938 C 84.132812 173.382812 79.367188 165.390625 80.875 158.34375 C 81.632812 154.820312 83.078125 152.21875 85.59375 149.863281 C 88.921875 146.75 91.335938 145.8125 96.007812 145.8125 C 100.695312 145.8125 103.097656 146.75 106.460938 149.898438 C 114.8125 157.707031 111.820312 171.742188 100.992188 175.5625 C 98.695312 176.375 93.71875 176.382812 91.15625 175.585938 Z M 91.15625 175.585938 "/>
<path style=" stroke:none;fill-rule:nonzero;fill:rgb(80.392157%,68.627451%,47.843137%);fill-opacity:1;" d="M 210.035156 56.648438 C 209.476562 56.648438 209.109375 56.730469 208.636719 56.953125 C 207.070312 57.679688 205.945312 58.703125 202.242188 62.742188 C 186.933594 79.476562 176.101562 93.367188 166.519531 108.5625 C 160.226562 118.539062 154.878906 128.03125 145.796875 145.320312 C 144.140625 148.476562 142.6875 151.167969 142.570312 151.296875 C 142.453125 151.429688 141.929688 152.28125 141.414062 153.195312 C 137.882812 159.429688 134.664062 166.179688 132.042969 172.84375 C 130.796875 176.019531 131.015625 175.734375 129.546875 176.058594 C 125.265625 177 120.734375 179.523438 117.800781 182.59375 C 115.367188 185.140625 114.21875 187.3125 111.203125 195.085938 C 109.394531 199.734375 109.027344 200.59375 108.152344 202.195312 C 105.710938 206.671875 102.074219 210.0625 95.546875 213.945312 C 94.851562 214.359375 94.25 214.742188 94.214844 214.804688 C 94.183594 214.851562 94.355469 214.941406 94.636719 215.046875 C 94.789062 214.953125 94.917969 214.867188 95.097656 214.757812 C 100.984375 211.300781 105.132812 207.59375 107.460938 203.703125 C 108.3125 202.273438 109.429688 199.757812 110.953125 195.800781 C 113.835938 188.328125 114.90625 186.234375 117.128906 183.671875 C 119.175781 181.3125 122.480469 179.015625 125.753906 177.679688 C 127.136719 177.117188 129.175781 176.511719 130.054688 176.40625 C 130.398438 176.367188 130.734375 176.273438 130.789062 176.203125 C 130.851562 176.125 131.296875 175.046875 131.789062 173.796875 C 133.640625 169.066406 135.558594 164.765625 137.9375 160.03125 C 139.320312 157.273438 142.085938 152.140625 142.324219 151.882812 C 142.421875 151.773438 155.378906 159.625 155.378906 159.789062 C 155.378906 159.933594 152.972656 163.382812 151.320312 165.609375 C 149.921875 167.484375 148.261719 169.597656 146.507812 171.742188 C 147.1875 170.929688 147.96875 170.007812 148.445312 169.414062 C 150.851562 166.417969 155.335938 160.226562 155.667969 159.445312 C 155.757812 159.234375 157.007812 157.425781 158.449219 155.421875 C 163.472656 148.4375 170.453125 138.601562 173.226562 134.605469 C 187.796875 113.59375 196.703125 97.585938 205.96875 75.765625 C 207.996094 70.992188 210.742188 64.175781 211.1875 62.820312 C 212.140625 59.898438 212.15625 58.015625 211.234375 57.09375 C 210.8125 56.671875 210.75 56.648438 210.035156 56.648438 Z M 142.734375 153.398438 C 142.652344 153.429688 142.222656 154.109375 141.78125 154.914062 C 141.164062 156.027344 141.003906 156.414062 141.09375 156.5625 C 141.238281 156.796875 150.875 163.960938 151.054688 163.964844 C 151.125 163.964844 151.289062 163.847656 151.425781 163.699219 C 151.921875 163.148438 153.851562 160.265625 153.8125 160.140625 C 153.808594 160.132812 153.644531 160.03125 153.628906 160.019531 C 153.589844 160.1875 153.304688 160.59375 152.238281 162.101562 C 151.71875 162.835938 151.234375 163.429688 151.164062 163.429688 C 151 163.421875 141.601562 156.507812 141.453125 156.28125 C 141.375 156.164062 141.539062 155.765625 142.023438 154.890625 C 142.398438 154.21875 142.773438 153.59375 142.859375 153.507812 C 142.867188 153.5 142.894531 153.5 142.914062 153.5 C 142.894531 153.492188 142.738281 153.398438 142.734375 153.398438 Z M 140.648438 157.3125 C 140.414062 157.367188 140.09375 157.980469 138.445312 161.304688 C 137.488281 163.238281 136.855469 164.648438 136.878906 164.804688 C 136.921875 165.070312 137.664062 165.441406 144.75 168.742188 L 146.765625 169.679688 L 147.046875 169.417969 C 147.199219 169.273438 148.015625 168.253906 148.859375 167.15625 C 150.695312 164.761719 150.734375 164.726562 150.457031 164.46875 C 150.398438 164.65625 149.550781 165.796875 147.984375 167.785156 C 147.40625 168.515625 146.898438 169.113281 146.851562 169.109375 C 146.6875 169.09375 137.367188 164.671875 137.242188 164.546875 C 137.15625 164.460938 137.636719 163.382812 138.90625 160.835938 C 140.171875 158.296875 140.621094 157.484375 140.816406 157.363281 C 140.8125 157.359375 140.757812 157.320312 140.753906 157.320312 C 140.71875 157.3125 140.6875 157.304688 140.652344 157.3125 Z M 136.523438 165.640625 C 136.285156 165.636719 134.328125 170.039062 134.390625 170.445312 C 134.429688 170.726562 141.445312 175.652344 141.75 175.617188 C 141.863281 175.601562 142.921875 174.441406 144.101562 173.035156 C 145.28125 171.625 146.226562 170.394531 146.210938 170.296875 C 146.210938 170.289062 146 170.1875 145.96875 170.164062 C 145.824219 170.414062 145.070312 171.363281 144.046875 172.578125 C 142.90625 173.929688 141.90625 175.03125 141.828125 175.027344 C 141.632812 175.015625 134.78125 170.28125 134.710938 170.109375 C 134.640625 169.9375 136.382812 166 136.65625 165.695312 C 136.640625 165.6875 136.53125 165.640625 136.523438 165.640625 Z M 134.128906 171.425781 C 133.851562 171.421875 133.765625 171.582031 132.921875 173.683594 C 132.417969 174.929688 132.003906 176.109375 132 176.3125 C 131.988281 176.765625 132.652344 177.90625 133.335938 178.609375 C 134.421875 179.734375 136.40625 180.347656 137.835938 180 C 137.984375 179.960938 138.773438 179.179688 139.589844 178.257812 C 141.234375 176.398438 141.269531 176.347656 141.15625 176.171875 C 141.144531 176.15625 140.996094 176.054688 140.96875 176.03125 C 140.84375 176.265625 140.472656 176.714844 139.617188 177.664062 C 138.773438 178.613281 137.992188 179.421875 137.886719 179.460938 C 137.78125 179.5 137.5 179.53125 137.265625 179.523438 C 135.226562 179.453125 133.570312 178.445312 132.648438 176.71875 L 132.261719 175.992188 L 132.960938 174.183594 C 133.679688 172.332031 133.953125 171.671875 134.132812 171.429688 C 134.132812 171.429688 134.128906 171.425781 134.128906 171.425781 Z M 145.375 173.101562 C 145.1875 173.324219 145 173.546875 144.8125 173.773438 C 145.023438 173.523438 145.164062 173.351562 145.375 173.101562 Z M 139.359375 180.125 C 139.144531 180.40625 139.023438 180.59375 139.039062 180.648438 C 139.078125 180.75 139.238281 181.210938 139.398438 181.671875 C 139.96875 183.289062 140.117188 184.367188 140.117188 186.679688 C 140.117188 189.359375 139.875 190.761719 138.96875 193.296875 C 138.84375 193.65625 138.679688 194.019531 138.523438 194.382812 C 138.882812 193.621094 139.195312 192.882812 139.421875 192.179688 C 140.144531 189.96875 140.371094 188.527344 140.367188 186.164062 C 140.359375 183.917969 140.164062 182.664062 139.566406 181.023438 C 139.421875 180.617188 139.34375 180.265625 139.359375 180.125 Z M 139.359375 180.125 "/>
<path style=" stroke:none;fill-rule:nonzero;fill:rgb(80%,80%,80%);fill-opacity:1;" d="M 101.769531 216.679688 C 99.539062 216.4375 97.164062 215.960938 94.945312 215.304688 C 94.507812 215.175781 94.140625 215.03125 94.140625 214.980469 C 94.140625 214.929688 94.640625 214.601562 95.246094 214.246094 C 101.152344 210.78125 105.316406 207.066406 107.652344 203.171875 C 108.511719 201.734375 109.628906 199.214844 111.160156 195.253906 C 114.054688 187.769531 115.125 185.671875 117.359375 183.101562 C 119.414062 180.742188 122.730469 178.441406 126.015625 177.101562 C 127.34375 176.5625 129.382812 175.953125 130.246094 175.835938 C 130.945312 175.742188 130.929688 175.773438 132.164062 172.621094 C 134.355469 167.046875 137.15625 160.992188 139.867188 155.960938 C 141.824219 152.328125 142.609375 151 142.765625 151.039062 C 142.878906 151.066406 153.4375 157.472656 155.546875 158.789062 C 156.085938 159.128906 156.171875 158.925781 154.476562 161.359375 C 150.953125 166.4375 146.289062 172.28125 141.453125 177.675781 C 140.4375 178.8125 139.558594 179.828125 139.5 179.925781 C 139.4375 180.039062 139.511719 180.441406 139.703125 181.023438 C 140.292969 182.820312 140.433594 183.804688 140.429688 186.117188 C 140.429688 188.804688 140.1875 190.207031 139.28125 192.746094 C 138.5625 194.757812 137.472656 196.65625 134.890625 200.390625 C 133.183594 202.859375 129.523438 206.726562 126.808594 208.914062 C 122.9375 212.042969 118.554688 214.382812 114.246094 215.625 C 110.386719 216.742188 105.835938 217.125 101.769531 216.679688 Z M 138.046875 179.296875 C 138.152344 179.257812 138.9375 178.441406 139.789062 177.484375 C 141.050781 176.078125 141.3125 175.71875 141.1875 175.601562 C 140.878906 175.304688 134.710938 171.09375 134.511719 171.039062 C 134.273438 170.972656 134.167969 171.1875 133.09375 173.96875 L 132.386719 175.796875 L 132.773438 176.53125 C 133.703125 178.273438 135.375 179.289062 137.421875 179.355469 C 137.660156 179.363281 137.945312 179.335938 138.046875 179.296875 Z M 144.25 172.351562 C 145.398438 170.992188 146.320312 169.820312 146.296875 169.757812 C 146.242188 169.585938 137.023438 165.257812 136.859375 165.320312 C 136.679688 165.390625 134.78125 169.6875 134.851562 169.859375 C 134.921875 170.03125 141.820312 174.8125 142.015625 174.820312 C 142.09375 174.828125 143.101562 173.71875 144.25 172.351562 Z M 148.210938 167.515625 C 149.84375 165.4375 150.746094 164.226562 150.746094 164.101562 C 150.746094 163.96875 141.355469 157.019531 141.070312 156.945312 C 140.914062 156.90625 140.5 157.640625 139.070312 160.507812 C 137.796875 163.078125 137.3125 164.160156 137.398438 164.25 C 137.523438 164.375 146.90625 168.835938 147.070312 168.851562 C 147.117188 168.859375 147.628906 168.257812 148.210938 167.515625 Z M 152.492188 161.78125 C 154.117188 159.484375 154.015625 159.664062 153.828125 159.484375 C 153.738281 159.398438 151.3125 157.894531 148.4375 156.140625 C 144.125 153.515625 143.179688 152.984375 143.054688 153.117188 C 142.96875 153.203125 142.59375 153.828125 142.214844 154.507812 C 141.726562 155.390625 141.558594 155.796875 141.636719 155.914062 C 141.789062 156.140625 151.25 163.117188 151.414062 163.125 C 151.484375 163.125 151.972656 162.523438 152.492188 161.78125 Z M 152.492188 161.78125 "/>
<path style=" stroke:none;fill-rule:nonzero;fill:rgb(99.215686%,8.235294%,8.235294%);fill-opacity:1;" d="M 102.101562 216.792969 C 100.699219 216.652344 98.90625 216.371094 97.5625 216.082031 C 96.203125 215.789062 93.921875 215.132812 93.921875 215.035156 C 93.921875 214.992188 94.484375 214.503906 95.148438 214.101562 C 100.835938 210.660156 104.976562 207.351562 107.296875 203.59375 C 108.164062 202.195312 109.148438 200.140625 110.046875 197.859375 C 113.101562 190.117188 114.085938 187.796875 114.328125 187.796875 C 114.441406 187.796875 114.65625 188.4375 115.402344 190.992188 C 116.066406 193.277344 116.859375 194.84375 117.722656 195.566406 C 118.429688 196.15625 119.3125 196.476562 120.242188 196.46875 C 121.414062 196.460938 122.414062 196.1875 124.90625 195.1875 C 127.476562 194.160156 128.238281 193.953125 129.40625 193.953125 C 130.59375 193.953125 131.273438 194.289062 132.296875 195.382812 C 133.425781 196.59375 134.328125 198.46875 134.578125 200.140625 C 134.648438 200.601562 134.617188 200.75 134.390625 201.078125 C 133.695312 202.335938 131.726562 204.421875 130.117188 206.046875 C 124.105469 212.121094 117.375 215.433594 109.863281 216.578125 C 108.070312 216.851562 103.828125 216.96875 102.101562 216.792969 Z M 102.101562 216.792969 "/>
<path style="fill-rule:nonzero;fill:rgb(60%,60%,60%);fill-opacity:1;stroke-width:0.488254;stroke-linecap:butt;stroke-linejoin:miter;stroke:rgb(60%,60%,60%);stroke-opacity:1;stroke-miterlimit:4;" d="M 67.960938 89.720703 C 67.574219 89.613281 67.121094 89.349609 66.835938 89.066406 C 66.591797 88.822266 66.185547 88.197266 66.185547 88.0625 C 66.183594 87.921875 67.068359 85.769531 67.136719 85.742188 C 67.246094 85.701172 70.417969 87.845703 70.478516 88.001953 C 70.509766 88.085938 70.248047 88.416016 69.46875 89.273438 L 68.982422 89.804688 L 68.603516 89.798828 C 68.396484 89.794922 68.107422 89.759766 67.960938 89.720703 Z M 67.960938 89.720703 " transform="matrix(2,0,0,2,0,0)"/>
<path style="fill-rule:nonzero;fill:rgb(60%,60%,60%);fill-opacity:1;stroke-width:0.0517218;stroke-linecap:butt;stroke-linejoin:miter;stroke:rgb(60%,60%,60%);stroke-opacity:1;stroke-miterlimit:4;" d="M 69.917969 86.664062 C 68.537109 85.716797 67.582031 85.037109 67.505859 84.943359 C 67.458984 84.888672 67.527344 84.671875 67.765625 84.111328 C 67.943359 83.693359 68.164062 83.199219 68.257812 83.015625 C 68.416016 82.701172 68.435547 82.683594 68.570312 82.734375 C 68.884766 82.853516 70.712891 83.701172 71.884766 84.271484 L 73.132812 84.876953 L 72.808594 85.287109 C 72.337891 85.882812 71.339844 87.048828 71.146484 87.232422 L 70.976562 87.390625 Z M 69.917969 86.664062 " transform="matrix(2,0,0,2,0,0)"/>
<path style="fill-rule:nonzero;fill:rgb(60%,60%,60%);fill-opacity:1;stroke-width:0.0517218;stroke-linecap:butt;stroke-linejoin:miter;stroke:rgb(60%,60%,60%);stroke-opacity:1;stroke-miterlimit:4;" d="M 72.191406 83.779297 C 69.939453 82.714844 68.714844 82.113281 68.714844 82.070312 C 68.714844 81.994141 69.591797 80.179688 69.960938 79.494141 C 70.167969 79.111328 70.376953 78.726562 70.423828 78.636719 C 70.525391 78.443359 70.357422 78.345703 72.070312 79.597656 C 73.964844 80.980469 75.320312 82.009766 75.322266 82.064453 C 75.322266 82.121094 74.007812 83.855469 73.722656 84.173828 L 73.513672 84.404297 Z M 72.191406 83.779297 " transform="matrix(2,0,0,2,0,0)"/>
<path style="fill-rule:nonzero;fill:rgb(60%,60%,60%);fill-opacity:1;stroke-width:0.105788;stroke-linecap:butt;stroke-linejoin:miter;stroke:rgb(60%,60%,60%);stroke-opacity:1;stroke-miterlimit:4;" d="M 74.285156 80.517578 C 72.326172 79.097656 70.839844 77.966797 70.839844 77.900391 C 70.839844 77.744141 71.517578 76.585938 71.609375 76.585938 C 71.759766 76.587891 76.931641 79.726562 76.931641 79.814453 C 76.931641 79.869141 75.931641 81.283203 75.789062 81.429688 C 75.691406 81.529297 75.630859 81.492188 74.285156 80.517578 Z M 74.285156 80.517578 " transform="matrix(2,0,0,2,0,0)"/>
</g>
</svg>
