
<svg xmlns="http://www.w3.org/2000/svg" xmlns:xlink="http://www.w3.org/1999/xlink" width="256px" height="256px" viewBox="0 0 256 256" version="1.1">
<g id="surface1">
<path style="fill-rule:nonzero;fill:rgb(96.078431%,31.764706%,14.117647%);fill-opacity:1;stroke-width:27.910587;stroke-linecap:butt;stroke-linejoin:miter;stroke:rgb(89.019608%,54.901961%,45.882353%);stroke-opacity:1;stroke-miterlimit:4;" d="M 83.21875 27.398438 L 428.78125 27.398438 C 459.609375 27.398438 484.601562 52.390625 484.601562 83.21875 L 484.601562 428.78125 C 484.601562 459.609375 459.609375 484.601562 428.78125 484.601562 L 83.21875 484.601562 C 52.390625 484.601562 27.398438 459.609375 27.398438 428.78125 L 27.398438 83.21875 C 27.398438 52.390625 52.390625 27.398438 83.21875 27.398438 Z M 83.21875 27.398438 " transform="matrix(0.5,0,0,0.5,0,0)"/>
<path style=" stroke:none;fill-rule:nonzero;fill:rgb(100%,100%,100%);fill-opacity:1;" d="M 107.617188 154.324219 C 100.992188 153.875 95.625 152 91.257812 148.617188 C 89.335938 147.125 87.203125 144.703125 85.960938 142.59375 C 85.671875 142.101562 85.277344 141.628906 85.226562 141.546875 L 85.226562 153.308594 L 66.621094 153.308594 L 66.574219 139.726562 C 66.527344 125.65625 66.507812 124.976562 66.085938 123.28125 C 65.335938 120.195312 62.59375 119 59.695312 119 C 56.328125 118.910156 53.796875 120.28125 52.3125 123.40625 C 51.695312 125.105469 51.734375 124.164062 51.695312 139.371094 L 51.664062 153.308594 L 32.96875 153.308594 C 32.695312 140.511719 33.257812 127.6875 32.742188 114.890625 C 32.53125 112.820312 32.113281 111.117188 31.226562 108.671875 L 30.734375 107.320312 L 48.914062 107.398438 L 49.375 108.347656 C 49.648438 108.90625 49.90625 109.640625 50.007812 110.125 C 50.101562 110.582031 50.210938 110.953125 50.25 110.953125 C 50.296875 110.953125 50.914062 110.558594 51.636719 110.074219 C 54.449219 108.1875 57.28125 107.125 60.929688 106.585938 C 62.855469 106.304688 67.679688 106.332031 69.660156 106.640625 C 74.1875 107.34375 77.78125 108.890625 80.566406 111.324219 C 82.617188 113.117188 84.085938 115.871094 84.726562 119.113281 L 84.953125 120.265625 L 85.433594 119.359375 C 86.367188 117.59375 87.460938 116.09375 88.957031 114.546875 C 93.4375 109.898438 99.570312 107.1875 107.527344 106.335938 C 109.421875 106.132812 114.242188 106.160156 116.171875 106.382812 C 120.214844 106.855469 123.507812 107.804688 126.523438 109.367188 C 128.90625 110.601562 130.6875 111.921875 132.550781 113.832031 C 134.289062 115.617188 135.84375 117.847656 136.84375 119.992188 L 137.183594 120.726562 L 137.1875 118.578125 C 137.195312 114.070312 136.960938 111.570312 136.265625 108.960938 L 135.84375 107.273438 L 154.214844 107.421875 L 154.453125 108.191406 C 154.828125 109.398438 155.101562 110.898438 155.179688 112.210938 L 155.253906 113.417969 L 155.914062 112.519531 C 158.109375 109.546875 160.789062 107.703125 164.15625 106.859375 C 165.789062 106.445312 167.265625 106.3125 169.5 106.375 C 171.359375 106.429688 172.578125 106.59375 174.742188 107.09375 L 175.304688 107.226562 C 175.304688 109.046875 175.304688 110.875 175.304688 112.695312 C 175.328125 112.695312 175.804688 112.4375 176.234375 112.125 C 183.214844 107.121094 193.1875 105.078125 202.671875 106.707031 C 207.898438 107.601562 212.804688 109.632812 216.539062 112.4375 C 222.992188 117.289062 226.175781 124.621094 225.378906 132.804688 C 224.832031 138.429688 222.21875 143.421875 217.875 147.140625 C 212.148438 152.046875 203.945312 154.648438 195 154.398438 C 189.152344 154.238281 184.207031 153.027344 179.660156 150.640625 C 175.929688 148.710938 172.765625 145.890625 170.382812 142.441406 C 166.207031 136.148438 165.648438 127.6875 168.953125 120.632812 C 169.210938 120.078125 169.421875 119.609375 169.421875 119.59375 C 167.5625 118.953125 165.570312 118.96875 163.664062 119.382812 C 162.5 119.734375 161.765625 120.109375 160.75 120.875 C 158.3125 122.710938 156.894531 125.394531 156.289062 129.320312 C 155.976562 131.359375 155.921875 133.359375 155.921875 143.308594 L 155.921875 153.3125 L 137.25 153.3125 L 137.25 142.128906 L 136.703125 143.046875 C 135.867188 144.460938 134.914062 145.679688 133.671875 146.914062 C 129.242188 151.328125 122.945312 153.773438 114.539062 154.328125 C 112.785156 154.445312 109.371094 154.445312 107.617188 154.324219 Z M 121.351562 138.90625 L 137.296875 139.191406 L 137.296875 133.972656 L 101.160156 133.972656 L 101.234375 134.664062 C 101.273438 135.042969 101.414062 135.773438 101.539062 136.28125 C 102.429688 139.789062 105.089844 141.960938 109.316406 142.625 C 114.09375 143.070312 118.070312 142.84375 121.351562 138.90625 Z M 201.148438 141.59375 C 204.21875 139.679688 206.101562 136.070312 206.453125 131.402344 C 206.710938 128.023438 205.84375 124.429688 204.175781 121.953125 C 203.628906 121.140625 202.453125 119.925781 201.75 119.449219 C 199.273438 117.730469 196.21875 117.523438 193.332031 118.148438 C 188.878906 119.523438 186.15625 123.699219 185.929688 129.523438 C 185.757812 133.800781 186.941406 137.429688 189.308594 139.882812 C 190.789062 141.421875 192.125 142.164062 194.195312 142.613281 C 196.566406 142.992188 199.003906 142.710938 201.148438 141.59375 Z M 119.859375 123.824219 C 120.015625 123.664062 119.425781 121.640625 118.960938 120.75 C 118.476562 119.828125 117.265625 118.742188 116.101562 118.179688 C 112.691406 116.53125 107.5625 116.84375 104.722656 118.875 C 103.265625 119.914062 102.132812 121.5625 101.53125 123.519531 L 101.390625 123.960938 L 110.589844 123.929688 C 115.648438 123.914062 119.820312 123.867188 119.859375 123.828125 Z M 119.859375 123.824219 "/>
</g>
</svg>
