
<svg xmlns="http://www.w3.org/2000/svg" xmlns:xlink="http://www.w3.org/1999/xlink" width="256px" height="256px" viewBox="0 0 256 256" version="1.1">
<g id="surface1">
<path style="fill-rule:nonzero;fill:rgb(73.72549%,100%,98.431373%);fill-opacity:1;stroke-width:57.055691;stroke-linecap:butt;stroke-linejoin:miter;stroke:rgb(38.823529%,49.019608%,48.235294%);stroke-opacity:1;stroke-miterlimit:4;" d="M 158.796875 44.6875 L 865.203125 44.6875 C 928.21875 44.6875 979.3125 95.78125 979.3125 158.796875 L 979.3125 865.203125 C 979.3125 928.21875 928.21875 979.3125 865.203125 979.3125 L 158.796875 979.3125 C 95.78125 979.3125 44.6875 928.21875 44.6875 865.203125 L 44.6875 158.796875 C 44.6875 95.78125 95.78125 44.6875 158.796875 44.6875 Z M 158.796875 44.6875 " transform="matrix(0.25,0,0,0.25,0,0)"/>
<path style=" stroke:none;fill-rule:nonzero;fill:rgb(38.823529%,49.019608%,48.235294%);fill-opacity:1;" d="M 220.835938 78.949219 C 219.4375 77.199219 217.648438 76.023438 215.488281 75.414062 C 215.414062 75.386719 215.351562 75.375 215.289062 75.363281 C 215.011719 75.289062 214.738281 75.226562 214.476562 75.175781 L 214.476562 75.167969 L 131.394531 46.488281 L 131.386719 46.488281 C 129.074219 45.699219 126.75 45.699219 124.4375 46.488281 C 124.363281 46.5 124.289062 46.523438 124.226562 46.5625 L 40.550781 75.40625 L 40.550781 75.414062 C 39.363281 75.738281 38.273438 76.261719 37.273438 76.976562 L 37.269531 76.976562 L 37.324219 76.929688 L 37.324219 76.9375 C 37.273438 76.976562 37.226562 77 37.175781 77.039062 C 37.085938 77.101562 37.011719 77.164062 36.925781 77.238281 L 36.917969 77.230469 L 36.875 77.273438 C 36.863281 77.273438 36.863281 77.273438 36.851562 77.289062 C 36.835938 77.300781 36.8125 77.3125 36.800781 77.324219 C 36.636719 77.460938 36.476562 77.585938 36.324219 77.726562 C 36.238281 77.800781 36.148438 77.886719 36.0625 77.976562 C 35.949219 78.0625 35.851562 78.164062 35.761719 78.273438 C 35.75 78.289062 35.75 78.289062 35.738281 78.300781 C 35.449219 78.585938 35.1875 78.898438 34.949219 79.226562 C 34.835938 79.335938 34.75 79.460938 34.675781 79.601562 C 33.851562 80.761719 33.289062 82.050781 33 83.460938 C 32.988281 83.476562 32.988281 83.5 32.988281 83.523438 C 32.976562 83.5625 32.976562 83.601562 32.960938 83.636719 C 32.949219 83.664062 32.949219 83.6875 32.949219 83.710938 L 32.945312 83.710938 L 32.894531 84.011719 L 32.898438 84.011719 C 32.886719 84.039062 32.886719 84.0625 32.886719 84.074219 C 32.886719 84.085938 32.886719 84.085938 32.886719 84.101562 C 32.863281 84.210938 32.851562 84.324219 32.835938 84.4375 C 32.824219 84.601562 32.8125 84.773438 32.800781 84.9375 C 32.789062 84.976562 32.789062 85.023438 32.789062 85.074219 C 32.773438 85.25 32.761719 85.398438 32.761719 85.539062 L 32.761719 85.75 C 32.761719 85.898438 32.761719 86.050781 32.773438 86.199219 L 32.773438 170.261719 C 32.773438 172.5 33.425781 174.550781 34.710938 176.398438 C 34.726562 176.414062 34.75 176.4375 34.761719 176.460938 C 36.039062 178.226562 37.6875 179.488281 39.699219 180.238281 C 39.8125 180.289062 39.914062 180.324219 40.023438 180.363281 L 124.21875 209.4375 L 124.226562 209.4375 C 124.789062 209.648438 125.386719 209.824219 126.023438 209.949219 C 126.113281 209.976562 126.199219 209.988281 126.289062 210 C 126.300781 210 126.3125 210 126.324219 210.011719 C 126.363281 210.011719 126.398438 210.011719 126.4375 210.023438 C 126.976562 210.101562 127.5 210.136719 128.011719 210.136719 C 128.023438 210.136719 128.050781 210.136719 128.0625 210.136719 C 128.101562 210.136719 128.136719 210.136719 128.175781 210.136719 C 128.1875 210.136719 128.210938 210.136719 128.226562 210.136719 C 128.25 210.136719 128.289062 210.136719 128.324219 210.136719 C 128.835938 210.125 129.351562 210.0625 129.863281 209.976562 C 129.898438 209.960938 129.949219 209.960938 130 209.949219 L 129.992188 209.945312 L 129.835938 209.957031 L 129.835938 209.960938 C 129.898438 209.949219 129.976562 209.9375 130.050781 209.925781 C 130.148438 209.914062 130.25 209.886719 130.351562 209.863281 C 130.863281 209.75 131.375 209.601562 131.863281 209.414062 L 131.855469 209.414062 L 216.070312 180.335938 L 216.074219 180.335938 C 216.125 180.324219 216.175781 180.300781 216.238281 180.273438 L 216.199219 180.28125 L 216.199219 180.289062 C 216.226562 180.273438 216.25 180.261719 216.289062 180.261719 C 218.335938 179.5 220 178.226562 221.261719 176.449219 C 221.273438 176.4375 221.289062 176.414062 221.300781 176.398438 C 221.3125 176.386719 221.3125 176.363281 221.324219 176.351562 C 222.601562 174.539062 223.25 172.523438 223.261719 170.324219 L 223.261719 85.613281 C 223.25 83.273438 222.539062 81.175781 221.136719 79.300781 C 221.050781 79.175781 220.949219 79.0625 220.835938 78.949219 Z M 57.4375 87.863281 L 54.414062 85.710938 L 57.4375 86.75 Z M 192.523438 84.425781 C 192.398438 84.601562 192.300781 84.800781 192.238281 85 C 192.136719 85.25 192.085938 85.488281 192.101562 85.75 C 192.085938 86.011719 192.136719 86.273438 192.238281 86.511719 C 192.289062 86.710938 192.386719 86.898438 192.523438 87.085938 C 192.800781 87.460938 193.148438 87.738281 193.601562 87.914062 L 193.710938 87.949219 C 194.175781 88.101562 194.636719 88.101562 195.085938 87.949219 L 194.398438 88.1875 L 199.9375 90.101562 C 200.414062 90.273438 200.898438 90.273438 201.375 90.125 C 201.851562 89.976562 202.238281 89.699219 202.550781 89.300781 C 202.851562 88.875 203 88.4375 203 87.9375 L 203 84.355469 L 203 84.363281 C 203.050781 84.425781 203.101562 84.488281 203.148438 84.550781 L 203.148438 84.542969 L 203.15625 84.554688 L 203.164062 84.5625 C 203.414062 84.914062 203.539062 85.3125 203.539062 85.75 L 203.539062 85.761719 C 203.539062 85.949219 203.511719 86.136719 203.476562 86.324219 C 203.324219 86.925781 203.386719 87.5 203.675781 88.0625 C 203.960938 88.601562 204.386719 88.988281 204.960938 89.226562 C 204.8125 89.398438 204.6875 89.585938 204.601562 89.789062 C 204.476562 90.074219 204.425781 90.375 204.425781 90.699219 L 204.425781 92.289062 L 209.023438 90.699219 L 205.386719 92.574219 L 208.449219 94.75 L 209.023438 90.738281 L 209.023438 95.5625 L 210.523438 95.039062 C 210.75 94.960938 210.949219 94.863281 211.125 94.738281 L 211.125 167.699219 C 211.125 168.148438 210.988281 168.5625 210.726562 168.925781 C 210.488281 169.261719 210.175781 169.511719 209.789062 169.664062 C 209.761719 169.675781 209.738281 169.675781 209.710938 169.6875 L 209.707031 169.6875 L 136.09375 195.105469 L 136.101562 195.113281 C 136.164062 194.898438 136.1875 194.675781 136.1875 194.4375 L 136.1875 192.851562 L 131.699219 194.398438 L 131.675781 194.414062 L 131.585938 194.4375 L 135.226562 192.5625 L 132.175781 190.386719 L 131.585938 194.398438 L 131.585938 189.574219 L 130.085938 190.085938 C 129.789062 190.199219 129.5 190.363281 129.289062 190.5625 C 129.210938 190.648438 129.125 190.726562 129.050781 190.824219 C 128.960938 190.9375 128.898438 191.039062 128.824219 191.148438 C 128.539062 191.664062 128.476562 192.210938 128.601562 192.773438 C 128.675781 193.125 128.824219 193.449219 129.050781 193.710938 C 129.125 193.8125 129.210938 193.886719 129.289062 193.960938 C 129.351562 194.023438 129.425781 194.085938 129.5 194.136719 L 132.550781 196.3125 C 132.5625 196.3125 132.5625 196.3125 132.5625 196.324219 L 132.269531 196.425781 L 132.273438 196.425781 C 131.824219 196.5625 131.375 196.574219 130.9375 196.449219 C 130.550781 196.3125 130.226562 196.085938 129.976562 195.773438 C 129.648438 195.386719 129.25 195.113281 128.761719 194.960938 C 128.273438 194.8125 127.789062 194.8125 127.3125 194.960938 C 126.824219 195.101562 126.425781 195.375 126.101562 195.761719 C 125.824219 196.101562 125.476562 196.324219 125.0625 196.460938 L 125.054688 196.457031 L 125.085938 196.445312 L 125.085938 196.449219 C 124.648438 196.585938 124.199219 196.574219 123.761719 196.425781 L 123.757812 196.425781 L 123.460938 196.324219 C 123.460938 196.3125 123.460938 196.3125 123.476562 196.3125 L 126.539062 194.136719 C 126.613281 194.085938 126.675781 194.023438 126.75 193.960938 C 126.824219 193.886719 126.914062 193.8125 126.988281 193.710938 C 127.199219 193.449219 127.363281 193.125 127.449219 192.773438 C 127.574219 192.210938 127.488281 191.664062 127.199219 191.148438 C 127.136719 191.039062 127.0625 190.9375 126.988281 190.824219 C 126.914062 190.726562 126.824219 190.648438 126.75 190.5625 C 126.523438 190.363281 126.261719 190.199219 125.949219 190.085938 L 124.449219 189.574219 L 124.449219 194.398438 L 123.875 190.386719 L 120.8125 192.5625 L 124.449219 194.4375 L 119.851562 192.851562 L 119.851562 194.4375 C 119.851562 194.675781 119.886719 194.898438 119.949219 195.113281 L 119.945312 195.105469 L 46.332031 169.6875 L 46.335938 169.6875 C 46.300781 169.675781 46.261719 169.675781 46.226562 169.664062 C 45.835938 169.5 45.539062 169.261719 45.300781 168.925781 L 45.292969 168.917969 L 45.3125 168.9375 C 45.050781 168.5625 44.914062 168.148438 44.914062 167.699219 L 44.914062 94.738281 C 45.085938 94.863281 45.289062 94.960938 45.511719 95.039062 L 47.011719 95.5625 L 47.011719 94 C 47.023438 94.449219 47.175781 94.875 47.4375 95.25 C 47.726562 95.648438 48.085938 95.925781 48.5625 96.101562 L 48.664062 96.125 C 48.875 96.1875 49.101562 96.226562 49.3125 96.226562 C 49.539062 96.226562 49.773438 96.1875 50 96.125 C 50.476562 95.976562 50.863281 95.6875 51.164062 95.289062 C 51.3125 95.085938 51.414062 94.898438 51.488281 94.675781 C 51.5625 94.460938 51.601562 94.210938 51.613281 93.976562 L 51.613281 93.886719 C 51.601562 93.414062 51.460938 92.988281 51.1875 92.601562 C 50.925781 92.210938 50.5625 91.9375 50.136719 91.773438 L 51.613281 92.289062 L 51.613281 90.699219 C 51.613281 90.375 51.550781 90.074219 51.425781 89.789062 C 51.335938 89.574219 51.199219 89.363281 51.023438 89.164062 C 51.011719 89.148438 51 89.136719 50.988281 89.125 C 51.523438 88.886719 51.925781 88.5 52.1875 87.960938 C 52.476562 87.398438 52.523438 86.8125 52.363281 86.210938 C 52.324219 86.039062 52.300781 85.863281 52.300781 85.6875 C 52.300781 85.25 52.425781 84.851562 52.6875 84.5 L 52.6875 84.492188 L 52.699219 84.46875 L 52.699219 84.476562 C 52.738281 84.414062 52.789062 84.351562 52.835938 84.300781 L 52.835938 84.292969 L 52.835938 87.863281 C 52.835938 88.363281 52.988281 88.824219 53.289062 89.238281 C 53.585938 89.636719 53.976562 89.914062 54.460938 90.0625 C 54.9375 90.210938 55.414062 90.210938 55.886719 90.039062 L 61.449219 88.136719 L 57.4375 86.75 L 57.4375 84.648438 L 61.449219 83.261719 L 58.230469 82.15625 L 127.226562 58.363281 C 127.25 58.351562 127.273438 58.351562 127.289062 58.335938 C 127.726562 58.199219 128.148438 58.210938 128.585938 58.363281 L 128.59375 58.363281 L 197.625 82.207031 L 194.398438 83.324219 L 195.042969 83.542969 L 195.050781 83.550781 C 194.585938 83.398438 194.125 83.414062 193.664062 83.574219 L 193.5625 83.613281 C 193.136719 83.773438 192.800781 84.050781 192.523438 84.425781 Z M 210.113281 164.148438 C 209.824219 163.773438 209.460938 163.523438 209.023438 163.375 L 209.023438 167.699219 L 209.011719 167.710938 L 204.914062 169.125 C 205.199219 169.5 205.574219 169.75 206.011719 169.898438 C 206.488281 170.050781 206.976562 170.050781 207.449219 169.886719 C 207.914062 169.726562 208.3125 169.4375 208.601562 169.039062 L 210.148438 166.863281 C 210.4375 166.460938 210.574219 166 210.574219 165.511719 C 210.5625 165 210.414062 164.550781 210.113281 164.148438 Z M 206.398438 164.199219 L 204.851562 166.375 L 209.023438 167.699219 Z M 204.851562 164.738281 C 205.113281 164.363281 205.460938 164.085938 205.898438 163.925781 L 204.425781 164.425781 L 204.425781 166 C 204.4375 165.539062 204.585938 165.113281 204.851562 164.738281 Z M 125.675781 60.773438 C 125.488281 60.925781 125.335938 61.085938 125.226562 61.289062 L 127.074219 60.648438 C 126.648438 60.8125 126.300781 61.074219 126.039062 61.449219 C 125.75 61.851562 125.613281 62.289062 125.613281 62.773438 C 125.601562 63.039062 125.636719 63.300781 125.738281 63.539062 C 125.789062 63.738281 125.898438 63.925781 126.039062 64.113281 C 126.300781 64.5 126.648438 64.773438 127.101562 64.9375 L 127.898438 65.210938 L 128.699219 64.9375 C 129.136719 64.773438 129.5 64.5 129.773438 64.125 C 129.898438 63.925781 130 63.738281 130.074219 63.539062 C 130.164062 63.300781 130.199219 63.050781 130.210938 62.789062 C 130.210938 62.300781 130.074219 61.863281 129.789062 61.449219 C 129.5 61.0625 129.136719 60.789062 128.699219 60.625 L 130.601562 61.289062 C 130.476562 61.085938 130.324219 60.925781 130.136719 60.773438 C 129.710938 60.414062 129.210938 60.226562 128.648438 60.226562 L 127.164062 60.226562 C 126.601562 60.226562 126.101562 60.414062 125.675781 60.773438 Z M 47.011719 163.375 C 46.5625 163.523438 46.210938 163.773438 45.9375 164.148438 C 45.625 164.550781 45.476562 165 45.476562 165.511719 C 45.460938 166 45.613281 166.460938 45.898438 166.863281 L 47.4375 169.039062 C 47.726562 169.4375 48.113281 169.726562 48.585938 169.886719 C 49.0625 170.050781 49.539062 170.050781 50.011719 169.898438 C 50.460938 169.75 50.835938 169.5 51.125 169.125 L 47.023438 167.699219 L 51.1875 166.375 L 49.648438 164.199219 L 47.011719 167.699219 Z M 51.1875 164.738281 C 51.449219 165.113281 51.601562 165.539062 51.613281 166 L 51.613281 164.425781 L 50.132812 163.917969 L 50.136719 163.925781 C 50.574219 164.085938 50.925781 164.351562 51.1875 164.738281 Z M 125.710938 108.664062 C 125.710938 109.148438 125.851562 109.585938 126.136719 109.988281 C 126.414062 110.386719 126.761719 110.664062 127.210938 110.824219 L 125.335938 110.175781 C 125.460938 110.363281 125.613281 110.539062 125.773438 110.6875 C 126.199219 111.039062 126.699219 111.226562 127.261719 111.226562 L 128.761719 111.226562 C 129.324219 111.226562 129.8125 111.039062 130.238281 110.6875 C 130.414062 110.539062 130.5625 110.363281 130.6875 110.175781 L 128.8125 110.824219 C 129.25 110.664062 129.613281 110.386719 129.886719 109.988281 C 130.175781 109.585938 130.3125 109.148438 130.3125 108.664062 C 130.3125 108.386719 130.261719 108.148438 130.1875 107.925781 C 130.113281 107.710938 130.011719 107.523438 129.886719 107.335938 C 129.601562 106.9375 129.210938 106.664062 128.761719 106.5 L 128.6875 106.460938 L 128.664062 106.460938 L 128.011719 106.238281 L 127.351562 106.460938 L 127.335938 106.460938 L 127.261719 106.5 C 126.800781 106.664062 126.4375 106.9375 126.148438 107.335938 C 126.011719 107.523438 125.914062 107.710938 125.835938 107.914062 C 125.761719 108.148438 125.710938 108.386719 125.710938 108.664062 Z M 128.199219 114.761719 L 128.199219 114.75 C 128.136719 114.675781 128.074219 114.601562 128.023438 114.539062 C 127.960938 114.613281 127.898438 114.699219 127.835938 114.773438 C 127.636719 115.050781 127.476562 115.335938 127.335938 115.648438 C 127.789062 115.710938 128.25 115.710938 128.699219 115.648438 C 128.574219 115.335938 128.398438 115.050781 128.199219 114.761719 Z M 124.4375 117.425781 L 124.449219 117.425781 L 120.289062 118.75 L 121.835938 120.925781 L 124.449219 117.4375 L 124.449219 121.761719 C 124.898438 121.613281 125.25 121.351562 125.539062 120.976562 C 125.835938 120.574219 125.988281 120.113281 126 119.613281 C 126.011719 119.125 125.863281 118.664062 125.574219 118.261719 L 124.023438 116.085938 C 123.738281 115.6875 123.335938 115.398438 122.875 115.238281 C 122.398438 115.074219 121.914062 115.074219 121.449219 115.238281 C 121 115.375 120.625 115.625 120.335938 116 Z M 130.5 120.988281 C 130.789062 121.363281 131.136719 121.625 131.585938 121.773438 L 131.585938 117.4375 L 134.226562 120.9375 L 135.761719 118.761719 L 131.601562 117.4375 L 135.699219 116.011719 C 135.414062 115.636719 135.039062 115.386719 134.585938 115.25 C 134.113281 115.085938 133.636719 115.085938 133.164062 115.25 C 132.6875 115.414062 132.300781 115.699219 132.011719 116.101562 L 130.476562 118.273438 C 130.1875 118.675781 130.039062 119.136719 130.050781 119.636719 C 130.050781 120.136719 130.199219 120.585938 130.5 120.988281 Z M 136.1875 120.710938 L 136.1875 119.148438 C 136.175781 119.585938 136.023438 120.023438 135.761719 120.398438 C 135.5 120.789062 135.148438 121.0625 134.710938 121.226562 L 134.707031 121.21875 Z M 121.324219 121.210938 C 120.886719 121.039062 120.539062 120.761719 120.273438 120.386719 C 120.011719 120.011719 119.863281 119.585938 119.851562 119.136719 L 119.851562 120.699219 Z M 210.726562 89.460938 C 210.988281 89.824219 211.125 90.238281 211.125 90.699219 L 211.125 91.011719 C 211.113281 91 211.113281 91 211.113281 91 L 208.050781 88.824219 C 208.050781 88.824219 208.050781 88.824219 208.039062 88.824219 L 208.039062 88.820312 L 208.335938 88.710938 L 208.324219 88.710938 C 208.335938 88.710938 208.335938 88.710938 208.351562 88.710938 C 208.789062 88.5625 209.210938 88.550781 209.648438 88.6875 C 210.085938 88.824219 210.4375 89.085938 210.710938 89.460938 L 210.710938 89.457031 L 210.71875 89.460938 Z M 46.398438 88.6875 C 46.789062 88.5625 47.1875 88.5625 47.601562 88.675781 C 47.625 88.6875 47.664062 88.699219 47.699219 88.710938 L 47.695312 88.710938 L 47.988281 88.8125 C 47.988281 88.824219 47.988281 88.824219 47.976562 88.824219 L 44.9375 91 C 44.925781 91.011719 44.925781 91.011719 44.914062 91.011719 L 44.914062 90.699219 C 44.914062 90.238281 45.050781 89.824219 45.324219 89.460938 L 45.320312 89.460938 L 45.324219 89.457031 L 45.324219 89.460938 C 45.601562 89.085938 45.960938 88.824219 46.398438 88.6875 Z M 46.398438 88.6875 "/>
<path style=" stroke:none;fill-rule:nonzero;fill:rgb(100%,100%,100%);fill-opacity:1;" d="M 213.527344 82.222656 C 213.28125 82.15625 213.039062 82.109375 212.792969 82.097656 L 129.058594 53.1875 C 128.289062 52.921875 127.515625 52.921875 126.734375 53.1875 L 42.539062 82.210938 C 42.117188 82.3125 41.734375 82.488281 41.378906 82.742188 L 41.273438 82.820312 C 41.171875 82.890625 41.070312 82.984375 40.976562 83.0625 L 40.898438 83.15625 C 40.746094 83.292969 40.621094 83.441406 40.507812 83.601562 C 40.21875 83.992188 40.03125 84.429688 39.929688 84.914062 L 39.882812 85.179688 C 39.875 85.304688 39.859375 85.429688 39.851562 85.558594 L 39.851562 85.742188 C 39.851562 85.796875 39.851562 85.859375 39.859375 85.914062 L 39.859375 170.246094 C 39.859375 170.992188 40.078125 171.683594 40.515625 172.304688 C 40.953125 172.925781 41.539062 173.363281 42.265625 173.617188 L 126.5625 202.730469 C 126.835938 202.84375 127.125 202.9375 127.4375 202.984375 C 127.632812 203.007812 127.839844 203.03125 128.035156 203.03125 C 128.242188 203.015625 128.449219 202.996094 128.65625 202.960938 L 128.6875 202.949219 C 128.945312 202.90625 129.183594 202.835938 129.414062 202.730469 L 213.734375 173.617188 C 214.460938 173.363281 215.046875 172.925781 215.484375 172.304688 C 215.921875 171.683594 216.140625 170.992188 216.148438 170.246094 L 216.148438 85.671875 C 216.140625 84.878906 215.898438 84.15625 215.414062 83.523438 C 214.929688 82.878906 214.296875 82.441406 213.527344 82.222656 Z M 128 111.085938 L 54.382812 85.683594 L 127.898438 60.339844 L 201.429688 85.742188 Z M 209.007812 90.6875 L 209.007812 167.695312 L 131.578125 194.429688 L 131.578125 117.421875 Z M 124.4375 117.410156 L 124.4375 194.429688 L 47 167.695312 L 47 90.6875 Z M 124.4375 117.410156 "/>
<path style=" stroke:none;fill-rule:nonzero;fill:rgb(89.411765%,98.823529%,95.686275%);fill-opacity:1;" d="M 128 111.085938 L 201.429688 85.742188 L 127.898438 60.339844 L 54.382812 85.683594 Z M 128 111.085938 "/>
<path style=" stroke:none;fill-rule:nonzero;fill:rgb(65.098039%,81.960784%,80.784314%);fill-opacity:1;" d="M 209.007812 90.6875 L 131.578125 117.421875 L 131.578125 194.429688 L 209.007812 167.695312 Z M 209.007812 90.6875 "/>
<path style=" stroke:none;fill-rule:nonzero;fill:rgb(56.470588%,76.862745%,75.686275%);fill-opacity:1;" d="M 124.4375 117.410156 L 47 90.6875 L 47 167.695312 L 124.4375 194.429688 Z M 124.4375 117.410156 "/>
</g>
</svg>
