<!-- Generator: Adobe Illustrator 16.0.0, SVG Export Plug-In . SVG Version: 6.00 Build 0)  -->
<svg xmlns="http://www.w3.org/2000/svg" xmlns:xlink="http://www.w3.org/1999/xlink" width="256px" height="256px" viewBox="0 0 256 256" version="1.1">
<g id="surface1">
<path style="fill-rule:nonzero;fill:rgb(0%,41.568627%,72.54902%);fill-opacity:1;stroke-width:28.191782;stroke-linecap:butt;stroke-linejoin:miter;stroke:rgb(38.039216%,64.705882%,84.313725%);stroke-opacity:1;stroke-miterlimit:4;" d="M 81.484375 25.09375 L 430.515625 25.09375 C 461.65625 25.09375 486.90625 50.34375 486.90625 81.484375 L 486.90625 430.515625 C 486.90625 461.65625 461.65625 486.90625 430.515625 486.90625 L 81.484375 486.90625 C 50.34375 486.90625 25.09375 461.65625 25.09375 430.515625 L 25.09375 81.484375 C 25.09375 50.34375 50.34375 25.09375 81.484375 25.09375 Z M 81.484375 25.09375 " transform="matrix(0.5,0,0,0.5,0,0)"/>
<path style=" stroke:none;fill-rule:evenodd;fill:rgb(100%,100%,100%);fill-opacity:1;" d="M 164.484375 68.371094 C 159.445312 73.125 147.796875 83.128906 147.796875 83.128906 L 175.09375 110.625 C 175.09375 110.625 186.910156 98.484375 192.25 93.445312 C 193.578125 92.195312 193.40625 89.390625 192.078125 88.136719 C 187.9375 84.230469 181.074219 77.886719 181.074219 77.886719 C 181.074219 77.886719 174.609375 71.742188 170.632812 67.984375 C 169.179688 66.617188 165.9375 67 164.484375 68.371094 Z M 135.804688 92.945312 L 62.835938 161.679688 L 63.46875 188.867188 L 91.949219 188.707031 L 164.117188 120.601562 Z M 135.804688 92.945312 "/>
<path style=" stroke:none;fill-rule:nonzero;fill:rgb(100%,100%,100%);fill-opacity:1;" d="M 141.914062 180.464844 L 137.648438 180.464844 L 137.648438 204.921875 L 143.738281 204.921875 L 143.738281 186.351562 C 146.429688 185.234375 148.457031 184.980469 149.570312 184.980469 C 153.480469 184.980469 153.984375 188.125 153.984375 189.953125 L 153.984375 204.921875 L 160.078125 204.921875 L 160.078125 191.019531 C 160.078125 186.757812 159.671875 180.007812 151.195312 180.007812 C 147.847656 180.007812 144.648438 181.328125 142.722656 182.140625 Z M 141.914062 180.464844 "/>
<path style=" stroke:none;fill-rule:nonzero;fill:rgb(100%,100%,100%);fill-opacity:1;" d="M 183.601562 181.984375 C 181.925781 181.074219 179.234375 179.957031 176.296875 179.957031 C 171.578125 179.957031 164.625 182.796875 164.625 192.695312 C 164.625 200.558594 169.140625 205.429688 177.105469 205.429688 C 179.234375 205.429688 180.757812 205.023438 182.433594 204.160156 L 182.433594 218.0625 L 188.523438 218.0625 L 188.523438 180.464844 L 184.257812 180.464844 Z M 177.96875 184.878906 C 179.289062 184.878906 180.757812 185.082031 182.382812 185.691406 L 182.382812 199.542969 C 181.265625 200.203125 179.898438 200.757812 178.171875 200.757812 C 174.113281 200.757812 170.867188 198.78125 170.867188 193.046875 C 170.867188 186.703125 173.910156 184.878906 177.96875 184.878906 Z M 177.96875 184.878906 "/>
<path style=" stroke:none;fill-rule:nonzero;fill:rgb(100%,100%,100%);fill-opacity:1;" d="M 212.339844 181.984375 C 210.664062 181.074219 207.976562 179.957031 205.03125 179.957031 C 200.3125 179.957031 193.363281 182.796875 193.363281 192.695312 C 193.363281 200.558594 197.878906 205.429688 205.84375 205.429688 C 207.976562 205.429688 209.5 205.023438 211.171875 204.160156 L 211.171875 218.0625 L 217.261719 218.0625 L 217.261719 180.464844 L 213 180.464844 Z M 206.707031 184.878906 C 208.027344 184.878906 209.5 185.082031 211.125 185.691406 L 211.125 199.542969 C 210.007812 200.203125 208.636719 200.757812 206.910156 200.757812 C 202.851562 200.757812 199.601562 198.78125 199.601562 193.046875 C 199.601562 186.703125 202.648438 184.878906 206.707031 184.878906 Z M 206.707031 184.878906 "/>
</g>
</svg>
