
<svg xmlns="http://www.w3.org/2000/svg" xmlns:xlink="http://www.w3.org/1999/xlink" width="256px" height="256px" viewBox="0 0 256 256" version="1.1">
<defs>
<linearGradient id="linear0" gradientUnits="userSpaceOnUse" x1="1" y1="0" x2="47" y2="0" gradientTransform="matrix(0,-5.333334,5.333334,0,0.0118116,256.000005)">
<stop offset="0" style="stop-color:rgb(51.372549%,70.980392%,91.372549%);stop-opacity:1;"/>
<stop offset="1" style="stop-color:rgb(57.647059%,75.294118%,92.54902%);stop-opacity:1;"/>
</linearGradient>
</defs>
<g id="surface1">
<path style=" stroke:none;fill-rule:nonzero;fill:rgb(0%,0%,0%);fill-opacity:0.0196078;" d="M 5.335938 229.335938 L 5.335938 230.664062 C 5.335938 242.484375 14.847656 252 26.664062 252 L 229.335938 252 C 241.152344 252 250.664062 242.484375 250.664062 230.664062 L 250.664062 229.335938 C 250.664062 241.152344 241.152344 250.664062 229.335938 250.664062 L 26.664062 250.664062 C 14.847656 250.664062 5.335938 241.152344 5.335938 229.335938 Z M 5.335938 232 L 5.335938 234.664062 C 5.335938 246.484375 14.847656 256 26.664062 256 L 229.335938 256 C 241.152344 256 250.664062 246.484375 250.664062 234.664062 L 250.664062 232 C 250.664062 243.820312 241.152344 253.335938 229.335938 253.335938 L 26.664062 253.335938 C 14.847656 253.335938 5.335938 243.820312 5.335938 232 Z M 5.335938 232 "/>
<path style=" stroke:none;fill-rule:nonzero;fill:rgb(0%,0%,0%);fill-opacity:0.0509804;" d="M 5.335938 230.664062 L 5.335938 232 C 5.335938 243.820312 14.847656 253.335938 26.664062 253.335938 L 229.335938 253.335938 C 241.152344 253.335938 250.664062 243.820312 250.664062 232 L 250.664062 230.664062 C 250.664062 242.484375 241.152344 252 229.335938 252 L 26.664062 252 C 14.847656 252 5.335938 242.484375 5.335938 230.664062 Z M 5.335938 230.664062 "/>
<path style=" stroke:none;fill-rule:nonzero;fill:rgb(0%,0%,0%);fill-opacity:0.101961;" d="M 5.335938 229.335938 L 5.335938 230.664062 C 5.335938 242.484375 14.847656 252 26.664062 252 L 229.335938 252 C 241.152344 252 250.664062 242.484375 250.664062 230.664062 L 250.664062 229.335938 C 250.664062 241.152344 241.152344 250.664062 229.335938 250.664062 L 26.664062 250.664062 C 14.847656 250.664062 5.335938 241.152344 5.335938 229.335938 Z M 5.335938 229.335938 "/>
<path style=" stroke:none;fill-rule:nonzero;fill:url(#linear0);" d="M 5.335938 229.335938 L 5.335938 26.664062 C 5.335938 14.882812 14.882812 5.335938 26.664062 5.335938 L 229.335938 5.335938 C 241.117188 5.335938 250.664062 14.882812 250.664062 26.664062 L 250.664062 229.335938 C 250.664062 241.117188 241.117188 250.664062 229.335938 250.664062 L 26.664062 250.664062 C 14.882812 250.664062 5.335938 241.117188 5.335938 229.335938 Z M 5.335938 229.335938 "/>
<path style=" stroke:none;fill-rule:nonzero;fill:rgb(100%,100%,100%);fill-opacity:1;" d="M 242.292969 128.117188 C 242.292969 191.378906 191.007812 242.664062 127.75 242.664062 C 64.484375 242.664062 13.203125 191.378906 13.203125 128.117188 C 13.203125 64.855469 64.484375 13.570312 127.75 13.570312 C 191.007812 13.570312 242.292969 64.855469 242.292969 128.117188 Z M 242.292969 128.117188 "/>
<path style=" stroke:none;fill-rule:nonzero;fill:rgb(30.196078%,30.196078%,30.196078%);fill-opacity:1;" d="M 128 10.75 C 63.246094 10.75 10.75 63.246094 10.75 128 C 10.75 192.753906 63.246094 245.25 128 245.25 C 192.753906 245.25 245.25 192.753906 245.25 128 C 245.25 63.246094 192.753906 10.75 128 10.75 Z M 128 17.0625 C 189.265625 17.0625 238.9375 66.734375 238.9375 128 C 238.933594 189.265625 189.265625 238.933594 128 238.933594 C 66.734375 238.933594 17.066406 189.265625 17.0625 128 C 17.0625 66.734375 66.734375 17.0625 128 17.0625 Z M 128 17.0625 "/>
<path style=" stroke:none;fill-rule:nonzero;fill:rgb(30.196078%,30.196078%,30.196078%);fill-opacity:1;" d="M 128.398438 12.445312 C 98.761719 12.445312 74.734375 36.472656 74.734375 66.109375 C 74.734375 95.75 98.761719 119.773438 128.398438 119.773438 C 148.015625 119.773438 166.066406 109.070312 175.480469 91.863281 C 176.867188 91.71875 178.257812 91.625 179.648438 91.585938 C 206.800781 91.609375 231.082031 112.820312 240.542969 144.78125 C 241.730469 138.382812 242.34375 131.894531 242.375 125.390625 C 242.375 72.316406 204.164062 26.949219 151.867188 17.921875 C 144.5625 14.34375 136.535156 12.46875 128.398438 12.445312 Z M 128.398438 12.445312 "/>
<path style=" stroke:none;fill-rule:nonzero;fill:rgb(30.196078%,30.196078%,30.196078%);fill-opacity:1;" d="M 27.328125 185.917969 C 42.148438 211.585938 74.96875 220.378906 100.636719 205.5625 C 126.304688 190.742188 135.097656 157.921875 120.28125 132.25 C 110.46875 115.265625 92.179688 104.984375 72.570312 105.4375 C 71.746094 104.3125 70.972656 103.152344 70.246094 101.96875 C 56.6875 78.4375 62.914062 46.804688 85.863281 22.632812 C 79.730469 24.804688 73.804688 27.515625 68.15625 30.742188 C 22.191406 57.28125 2.007812 113.054688 20.339844 162.859375 C 20.890625 170.976562 23.28125 178.859375 27.328125 185.917969 Z M 27.328125 185.917969 "/>
<path style=" stroke:none;fill-rule:nonzero;fill:rgb(30.196078%,30.196078%,30.196078%);fill-opacity:1;" d="M 228.09375 186.710938 C 242.914062 161.046875 234.121094 128.222656 208.453125 113.40625 C 182.785156 98.585938 149.964844 107.378906 135.148438 133.046875 C 125.339844 150.035156 125.582031 171.019531 135.777344 187.773438 C 135.210938 189.046875 134.597656 190.296875 133.933594 191.523438 C 120.335938 215.023438 89.828125 225.449219 57.421875 217.664062 C 62.367188 221.890625 67.679688 225.664062 73.296875 228.945312 C 119.261719 255.480469 177.65625 245.074219 211.621094 204.296875 C 218.375 199.757812 224.007812 193.746094 228.09375 186.710938 Z M 228.09375 186.710938 "/>
</g>
</svg>
