
<svg xmlns="http://www.w3.org/2000/svg" xmlns:xlink="http://www.w3.org/1999/xlink" width="256px" height="256px" viewBox="0 0 256 256" version="1.1">
<g id="surface1">
<path style="fill-rule:evenodd;fill:rgb(16.078431%,50.196078%,72.54902%);fill-opacity:1;stroke-width:5.9325;stroke-linecap:butt;stroke-linejoin:miter;stroke:rgb(0%,41.568627%,72.54902%);stroke-opacity:1;stroke-miterlimit:4;" d="M 19.0624 166.825015 L 116.404251 166.825015 C 124.011021 166.825015 130.174985 172.991046 130.174985 180.595749 L 130.174985 277.9376 C 130.174985 285.54437 124.011021 291.708334 116.404251 291.708334 L 19.0624 291.708334 C 11.457697 291.708334 5.291666 285.54437 5.291666 277.9376 L 5.291666 180.595749 C 5.291666 172.991046 11.457697 166.825015 19.0624 166.825015 Z M 19.0624 166.825015 " transform="matrix(1.889764,0,0,1.889764,0,-305.259908)"/>
<path style=" stroke:none;fill-rule:nonzero;fill:rgb(100%,100%,100%);fill-opacity:1;" d="M 55.734375 87.484375 C 53.464844 87.484375 53.464844 94.296875 55.734375 94.296875 L 151.097656 94.296875 C 153.367188 94.296875 153.367188 87.484375 151.097656 87.484375 Z M 55.734375 107.921875 C 53.464844 107.921875 53.464844 114.730469 55.734375 114.730469 C 83.199219 114.730469 124.265625 114.730469 151.097656 114.730469 C 153.367188 114.730469 153.367188 107.921875 151.097656 107.921875 C 120.8125 107.921875 81.382812 107.921875 55.734375 107.921875 Z M 55.734375 128.351562 C 53.464844 128.351562 53.464844 135.164062 55.734375 135.164062 C 70.222656 135.164062 92.164062 135.164062 103.414062 135.164062 C 105.6875 135.164062 105.6875 128.351562 103.414062 128.351562 C 91.882812 128.351562 70.851562 128.351562 55.734375 128.351562 Z M 55.734375 128.351562 "/>
<path style="fill-rule:evenodd;fill:rgb(72.941176%,9.019608%,30.588235%);fill-opacity:1;stroke-width:2.892373;stroke-linecap:butt;stroke-linejoin:miter;stroke:rgb(18.039216%,18.039216%,18.039216%);stroke-opacity:1;stroke-miterlimit:0;" d="M 22.380027 195.335933 L 22.380027 243.982054 L 26.464531 243.982054 L 36.043274 257.614295 L 36.043274 243.982054 L 87.705231 243.982054 L 87.705231 195.335933 Z M 22.380027 195.335933 " transform="matrix(1.889764,0,0,1.889764,0,-305.259908)"/>
<path style="fill-rule:evenodd;fill:rgb(0%,41.568627%,72.54902%);fill-opacity:1;stroke-width:2.892373;stroke-linecap:butt;stroke-linejoin:miter;stroke:rgb(18.039216%,18.039216%,18.039216%);stroke-opacity:1;stroke-miterlimit:0;" d="M 46.535655 204.280089 L 46.535655 250.596636 L 98.745382 250.596636 L 98.745382 262.980375 L 108.156693 250.596636 L 113.092825 250.596636 L 113.092825 204.280089 Z M 46.535655 204.280089 " transform="matrix(1.889764,0,0,1.889764,0,-305.259908)"/>
<path style=" stroke:none;fill-rule:evenodd;fill:rgb(100%,100%,100%);fill-opacity:1;" d="M 123.863281 128.074219 C 122.054688 133.03125 116.574219 135.585938 111.617188 133.789062 C 106.65625 131.984375 104.09375 126.503906 105.894531 121.542969 C 107.695312 116.585938 113.171875 114.015625 118.132812 115.8125 C 123.09375 117.605469 125.664062 123.082031 123.875 128.046875 "/>
<path style=" stroke:none;fill-rule:evenodd;fill:rgb(100%,100%,100%);fill-opacity:1;" d="M 160.304688 128.074219 C 158.496094 133.03125 153.015625 135.585938 148.054688 133.789062 C 143.09375 131.984375 140.535156 126.503906 142.335938 121.542969 C 144.132812 116.585938 149.609375 114.015625 154.570312 115.8125 C 159.53125 117.605469 162.101562 123.082031 160.3125 128.046875 "/>
<path style=" stroke:none;fill-rule:evenodd;fill:rgb(100%,100%,100%);fill-opacity:1;" d="M 195.285156 128.074219 C 193.476562 133.03125 187.996094 135.585938 183.039062 133.789062 C 178.078125 131.984375 175.515625 126.503906 177.316406 121.542969 C 179.113281 116.585938 184.59375 114.015625 189.554688 115.8125 C 194.515625 117.605469 197.085938 123.082031 195.296875 128.046875 "/>
</g>
</svg>
