
<svg xmlns="http://www.w3.org/2000/svg" xmlns:xlink="http://www.w3.org/1999/xlink" width="256px" height="256px" viewBox="0 0 256 256" version="1.1">
<g id="surface1">
<path style="fill-rule:nonzero;fill:rgb(83.137255%,10.196078%,10.196078%);fill-opacity:1;stroke-width:27.746531;stroke-linecap:butt;stroke-linejoin:miter;stroke:rgb(88.627451%,53.72549%,53.72549%);stroke-opacity:1;stroke-miterlimit:4;" d="M 84.234375 28.742188 L 427.765625 28.742188 C 458.414062 28.742188 483.257812 53.585938 483.257812 84.234375 L 483.257812 427.765625 C 483.257812 458.414062 458.414062 483.257812 427.765625 483.257812 L 84.234375 483.257812 C 53.585938 483.257812 28.742188 458.414062 28.742188 427.765625 L 28.742188 84.234375 C 28.742188 53.585938 53.585938 28.742188 84.234375 28.742188 Z M 84.234375 28.742188 " transform="matrix(0.5,0,0,0.5,0,0)"/>
<path style=" stroke:none;fill-rule:nonzero;fill:rgb(100%,100%,100%);fill-opacity:1;" d="M 139.644531 58.625 C 135.9375 58.625 135.222656 58.699219 132.941406 59.304688 C 123.195312 61.898438 116.441406 67.710938 110.730469 78.414062 C 110.011719 79.761719 109.386719 80.863281 109.34375 80.863281 C 109.296875 80.863281 108.203125 79.816406 106.914062 78.539062 C 103.296875 74.960938 100.140625 73.382812 96.140625 73.140625 C 93.398438 72.972656 91.617188 73.351562 89.03125 74.640625 C 85.242188 76.539062 82.164062 80.503906 81.15625 84.789062 C 80.058594 89.453125 81.460938 94.734375 84.90625 98.90625 L 85.867188 100.070312 L 85.15625 100.5625 C 83.390625 101.789062 80.867188 104.65625 80.039062 106.375 C 78.378906 109.847656 78.804688 114.0625 81.140625 117.234375 C 82.390625 118.933594 84.230469 120.265625 85.632812 120.488281 C 86.164062 120.570312 86.632812 120.710938 86.6875 120.796875 C 86.734375 120.882812 86.671875 121.714844 86.546875 122.644531 C 86.25 124.804688 86.609375 125.570312 88.414062 126.609375 C 94.558594 130.164062 116.265625 132.179688 139.636719 131.382812 C 159.714844 130.691406 171.886719 128.546875 172.957031 125.507812 C 173.175781 124.878906 173.117188 124.722656 172.460938 124.15625 L 171.71875 123.519531 L 172.34375 123.117188 C 172.683594 122.894531 173.515625 122.207031 174.183594 121.585938 C 178.621094 117.488281 177.609375 110.078125 172.125 106.566406 C 171.390625 106.09375 170.84375 105.574219 170.914062 105.414062 C 173.375 99.757812 173.871094 97.679688 174.03125 92.425781 C 174.164062 87.875 173.875 85.574219 172.710938 82.007812 C 169.445312 72.015625 160.601562 63.492188 150.046875 60.171875 C 146.058594 58.914062 144.078125 58.617188 139.644531 58.625 Z M 153.554688 94.875 C 154.570312 94.851562 155.613281 95.0625 156.609375 95.554688 C 161.5625 97.972656 160.898438 105.300781 155.585938 106.898438 C 154.046875 107.359375 153.390625 107.339844 151.714844 106.765625 C 148.335938 105.601562 146.734375 101.65625 148.289062 98.320312 C 149.28125 96.1875 151.335938 94.9375 153.554688 94.875 Z M 111.25 94.929688 C 112.757812 94.960938 114.101562 95.519531 115.265625 96.609375 C 117.078125 98.304688 117.691406 100.617188 116.96875 103.015625 C 116.289062 105.296875 113.582031 107.25 111.101562 107.25 C 110.308594 107.25 109.375 107.03125 108.574219 106.65625 C 105.671875 105.308594 104.320312 102.234375 105.25 99.117188 C 105.671875 97.703125 107.765625 95.578125 109.089844 95.21875 C 109.84375 95.007812 110.566406 94.914062 111.25 94.929688 Z M 112.960938 96.46875 C 112.3125 96.476562 111.660156 96.804688 111.214844 97.523438 C 109.910156 99.632812 112.507812 101.757812 114.398438 100.132812 C 114.867188 99.726562 115.085938 99.300781 115.085938 98.769531 C 115.085938 97.332031 114.039062 96.453125 112.960938 96.46875 Z M 155.871094 96.570312 C 155.308594 96.539062 154.789062 96.796875 154.292969 97.351562 C 153.332031 98.421875 153.742188 100.183594 155.074219 100.722656 C 155.867188 101.039062 156.035156 101.019531 156.925781 100.476562 C 158.34375 99.609375 158.34375 97.8125 156.925781 96.9375 C 156.558594 96.710938 156.207031 96.585938 155.871094 96.570312 Z M 131.882812 107.632812 C 140.398438 107.632812 140.703125 107.648438 141.066406 108.132812 C 141.367188 108.535156 141.421875 109.257812 141.347656 111.65625 C 141.269531 114.164062 141.15625 114.867188 140.679688 115.855469 C 139.75 117.757812 138.289062 119.21875 136.421875 120.109375 C 134.976562 120.804688 134.425781 120.921875 132.355469 120.992188 C 130.789062 121.046875 129.597656 120.960938 128.902344 120.730469 C 126.382812 119.90625 124.335938 118.15625 123.125 115.800781 C 122.464844 114.507812 122.417969 114.21875 122.417969 111.351562 C 122.417969 109.171875 122.515625 108.191406 122.746094 107.960938 C 123 107.703125 124.984375 107.632812 131.882812 107.632812 Z M 174.078125 125.910156 C 173.867188 125.867188 173.546875 126.09375 173.378906 126.414062 C 172.097656 128.804688 164.71875 130.609375 151.386719 131.785156 C 145.335938 132.320312 125.359375 132.539062 117.765625 132.15625 C 101.804688 131.351562 91.527344 129.6875 87.769531 127.304688 C 87.109375 126.886719 86.492188 126.613281 86.40625 126.699219 C 86.320312 126.785156 87.859375 140.007812 89.828125 156.078125 L 93.40625 185.296875 L 94.332031 186.261719 C 95.523438 187.496094 99.1875 189.953125 101.785156 191.261719 C 107.773438 194.273438 116.359375 196.476562 125.058594 197.226562 C 128.640625 197.539062 137.089844 197.335938 140.75 196.859375 C 149.078125 195.765625 156.472656 193.410156 161.871094 190.132812 C 163.777344 188.972656 167.257812 186.230469 167.578125 185.640625 C 167.710938 185.386719 169.414062 172.367188 171.351562 156.710938 C 175.007812 127.261719 175.109375 126.101562 174.078125 125.910156 Z M 161.234375 132.445312 C 161.351562 132.449219 161.429688 132.460938 161.449219 132.484375 C 161.660156 132.695312 158.273438 189.4375 158.007812 190.09375 C 157.765625 190.699219 154.257812 192.125 150.613281 193.101562 C 148.195312 193.75 147.535156 193.835938 147.363281 193.53125 C 147.234375 193.296875 148.914062 133.851562 149.054688 133.710938 C 149.109375 133.65625 151 133.449219 153.261719 133.253906 C 155.523438 133.054688 158.257812 132.769531 159.335938 132.613281 C 160.140625 132.496094 160.878906 132.433594 161.234375 132.445312 Z M 100.191406 132.453125 C 100.789062 132.472656 102.015625 132.582031 103.347656 132.742188 C 105.125 132.957031 107.683594 133.210938 109.039062 133.304688 C 110.390625 133.394531 111.570312 133.585938 111.65625 133.726562 C 111.863281 134.0625 115.773438 193.488281 115.601562 193.757812 C 115.453125 194.007812 115.210938 193.996094 113.867188 193.6875 C 111.621094 193.164062 104.804688 190.894531 104.667969 190.621094 C 104.65625 190.59375 103.492188 177.527344 102.082031 161.578125 C 100.164062 139.859375 99.59375 132.554688 99.820312 132.46875 C 99.859375 132.453125 99.992188 132.445312 100.191406 132.453125 Z M 124.054688 134.140625 L 130.148438 134.207031 L 136.25 134.273438 L 136.46875 164.644531 C 136.59375 181.90625 136.59375 195.105469 136.46875 195.226562 C 136.210938 195.484375 130.445312 195.707031 128 195.558594 C 126.980469 195.496094 126.25 195.332031 126.183594 195.152344 C 126.070312 194.828125 124.050781 138.679688 124.054688 135.84375 Z M 124.054688 134.140625 "/>
</g>
</svg>
