
<svg xmlns="http://www.w3.org/2000/svg" xmlns:xlink="http://www.w3.org/1999/xlink" width="256px" height="256px" viewBox="0 0 256 256" version="1.1">
<g id="surface1">
<path style="fill-rule:nonzero;fill:rgb(100%,100%,100%);fill-opacity:1;stroke-width:6.994187;stroke-linecap:butt;stroke-linejoin:miter;stroke:rgb(45.490196%,47.843137%,54.901961%);stroke-opacity:1;stroke-miterlimit:4;" d="M 20.70312 1001.234366 L 107.29687 1001.234366 C 115.023432 1001.234366 121.287104 1007.496085 121.287104 1015.222647 L 121.287104 1101.816397 C 121.287104 1109.54296 115.023432 1115.806632 107.29687 1115.806632 L 20.70312 1115.806632 C 12.978511 1115.806632 6.714839 1109.54296 6.714839 1101.816397 L 6.714839 1015.222647 C 6.714839 1007.496085 12.978511 1001.234366 20.70312 1001.234366 Z M 20.70312 1001.234366 " transform="matrix(2,0,0,2,0.00001,-1989.039045)"/>
<path style=" stroke:none;fill-rule:nonzero;fill:rgb(64.313725%,66.666667%,74.509804%);fill-opacity:1;" d="M 226.976562 127.65625 C 226.976562 73.183594 182.820312 29.023438 128.347656 29.023438 C 73.875 29.023438 29.71875 73.183594 29.71875 127.65625 C 29.71875 182.125 73.875 226.28125 128.347656 226.28125 C 182.820312 226.28125 226.976562 182.125 226.976562 127.65625 Z M 226.976562 127.65625 "/>
<path style=" stroke:none;fill-rule:nonzero;fill:rgb(45.490196%,47.843137%,54.901961%);fill-opacity:1;" d="M 197.75 127.65625 C 197.75 89.320312 166.679688 58.25 128.347656 58.25 C 90.015625 58.25 58.941406 89.320312 58.941406 127.65625 C 58.941406 165.984375 90.015625 197.058594 128.347656 197.058594 C 166.679688 197.058594 197.75 165.984375 197.75 127.65625 Z M 197.75 127.65625 "/>
<path style=" stroke:none;fill-rule:nonzero;fill:rgb(26.27451%,30.588235%,37.254902%);fill-opacity:1;" d="M 179.484375 127.65625 C 179.484375 99.410156 156.59375 76.515625 128.347656 76.515625 C 100.101562 76.515625 77.207031 99.410156 77.207031 127.65625 C 77.207031 155.898438 100.101562 178.792969 128.347656 178.792969 C 156.59375 178.792969 179.484375 155.898438 179.484375 127.65625 Z M 179.484375 127.65625 "/>
<path style=" stroke:none;fill-rule:nonzero;fill:rgb(63.921569%,65.490196%,73.333333%);fill-opacity:1;" d="M 175.835938 127.65625 C 175.835938 101.429688 154.574219 80.164062 128.347656 80.164062 C 102.121094 80.164062 80.859375 101.429688 80.859375 127.65625 C 80.859375 153.878906 102.121094 175.140625 128.347656 175.140625 C 154.574219 175.140625 175.835938 153.878906 175.835938 127.65625 Z M 175.835938 127.65625 "/>
<path style=" stroke:none;fill-rule:nonzero;fill:rgb(37.254902%,38.431373%,46.27451%);fill-opacity:1;" d="M 150.265625 127.65625 C 150.265625 115.546875 140.453125 105.734375 128.347656 105.734375 C 116.242188 105.734375 106.429688 115.546875 106.429688 127.65625 C 106.429688 139.757812 116.242188 149.570312 128.347656 149.570312 C 140.453125 149.570312 150.265625 139.757812 150.265625 127.65625 Z M 150.265625 127.65625 "/>
<path style=" stroke:none;fill-rule:nonzero;fill:rgb(0%,4.705882%,12.941176%);fill-opacity:1;" d="M 121.039062 98.429688 L 135.652344 98.429688 L 135.652344 156.875 L 121.039062 156.875 Z M 121.039062 98.429688 "/>
</g>
</svg>
