
<svg xmlns="http://www.w3.org/2000/svg" xmlns:xlink="http://www.w3.org/1999/xlink" width="256px" height="256px" viewBox="0 0 256 256" version="1.1">
<g id="surface1">
<path style="fill-rule:nonzero;fill:rgb(100%,100%,100%);fill-opacity:1;stroke-width:27.746531;stroke-linecap:butt;stroke-linejoin:miter;stroke:rgb(52.54902%,56.470588%,58.039216%);stroke-opacity:1;stroke-miterlimit:4;" d="M 84.234375 28.742188 L 427.765625 28.742188 C 458.414062 28.742188 483.257812 53.585938 483.257812 84.234375 L 483.257812 427.765625 C 483.257812 458.414062 458.414062 483.257812 427.765625 483.257812 L 84.234375 483.257812 C 53.585938 483.257812 28.742188 458.414062 28.742188 427.765625 L 28.742188 84.234375 C 28.742188 53.585938 53.585938 28.742188 84.234375 28.742188 Z M 84.234375 28.742188 " transform="matrix(0.5,0,0,0.5,0,0)"/>
<path style=" stroke:none;fill-rule:nonzero;fill:rgb(100%,100%,100%);fill-opacity:1;" d="M 184.054688 129.351562 C 184.054688 99.191406 159.015625 74.742188 128.125 74.742188 C 97.234375 74.742188 72.1875 99.191406 72.1875 129.351562 C 72.1875 159.515625 97.234375 183.964844 128.125 183.964844 C 159.015625 183.964844 184.054688 159.515625 184.054688 129.351562 Z M 184.054688 129.351562 "/>
<path style=" stroke:none;fill-rule:nonzero;fill:rgb(52.54902%,56.470588%,58.039216%);fill-opacity:1;" d="M 116.132812 215 C 114.625 214.328125 113.03125 212.613281 112.3125 210.90625 C 111.945312 210.023438 111.578125 206.632812 111.265625 201.21875 C 111 196.640625 110.648438 192.53125 110.488281 192.082031 C 110.273438 191.492188 109.222656 190.929688 106.601562 190.015625 C 104.628906 189.328125 101.65625 188.078125 99.992188 187.246094 C 98.335938 186.414062 96.617188 185.726562 96.171875 185.726562 C 95.679688 185.726562 92.96875 187.933594 89.097656 191.484375 C 85.648438 194.648438 82.265625 197.523438 81.585938 197.875 C 80.179688 198.59375 77.023438 198.710938 75.390625 198.101562 C 74.097656 197.621094 60.382812 184.109375 59.503906 182.445312 C 58.632812 180.796875 58.726562 177.71875 59.703125 175.847656 C 60.148438 175 63.046875 171.554688 66.148438 168.195312 C 69.484375 164.578125 71.785156 161.765625 71.785156 161.3125 C 71.785156 160.882812 71.101562 159.179688 70.265625 157.519531 C 69.433594 155.859375 68.1875 152.890625 67.503906 150.929688 C 66.816406 148.960938 65.976562 147.210938 65.632812 147.03125 C 65.289062 146.851562 61.257812 146.5 56.679688 146.25 C 51.351562 145.953125 47.769531 145.582031 46.734375 145.210938 C 44.757812 144.5 42.476562 142.078125 42.15625 140.339844 C 42.023438 139.632812 41.972656 134.414062 42.039062 128.734375 L 42.15625 118.40625 L 43.34375 116.921875 C 45.441406 114.289062 46.425781 114.027344 56.445312 113.414062 C 62.113281 113.0625 65.5625 112.695312 65.847656 112.40625 C 66.09375 112.152344 66.945312 110.203125 67.734375 108.074219 C 68.523438 105.945312 69.757812 103.03125 70.476562 101.59375 C 71.195312 100.164062 71.785156 98.679688 71.785156 98.292969 C 71.785156 97.90625 69.414062 94.992188 66.515625 91.8125 C 63.617188 88.632812 60.84375 85.5 60.351562 84.851562 C 58.976562 83.03125 58.507812 80.773438 59.054688 78.5625 C 59.46875 76.890625 60.21875 75.984375 66.523438 69.601562 C 70.375 65.695312 74.171875 62.164062 74.964844 61.757812 C 76.796875 60.8125 79.714844 60.796875 81.539062 61.726562 C 82.304688 62.117188 85.667969 64.953125 89.011719 68.023438 C 92.359375 71.09375 95.320312 73.734375 95.597656 73.890625 C 95.890625 74.054688 97.691406 73.421875 99.882812 72.382812 C 101.960938 71.398438 105.078125 70.117188 106.800781 69.539062 C 109.140625 68.75 110.046875 68.242188 110.367188 67.554688 C 110.605469 67.046875 111.015625 62.882812 111.273438 58.304688 C 111.777344 49.5 112.078125 48.105469 113.894531 46.210938 C 115.914062 44.101562 117.078125 43.929688 128.367188 44.054688 L 138.65625 44.171875 L 140.265625 45.234375 C 143.03125 47.070312 143.367188 48.207031 144.015625 58.007812 C 144.335938 62.75 144.679688 67 144.78125 67.453125 C 144.929688 68.089844 145.78125 68.554688 148.535156 69.515625 C 150.492188 70.203125 153.632812 71.53125 155.503906 72.472656 C 157.378906 73.414062 159.0625 74.1875 159.246094 74.1875 C 159.429688 74.1875 162.441406 71.5625 165.9375 68.351562 C 169.429688 65.144531 172.9375 62.179688 173.726562 61.765625 C 175.59375 60.789062 178.375 60.800781 180.421875 61.789062 C 181.390625 62.257812 184.6875 65.257812 188.824219 69.4375 C 195.929688 76.617188 196.492188 77.4375 196.492188 80.6875 C 196.5 82.984375 195.476562 84.492188 189.367188 91.1875 C 186.046875 94.828125 183.328125 97.960938 183.328125 98.148438 C 183.328125 98.339844 184.195312 100.300781 185.257812 102.507812 C 186.3125 104.71875 187.578125 107.8125 188.0625 109.382812 C 188.664062 111.335938 189.1875 112.34375 189.71875 112.570312 C 190.144531 112.75 194.429688 113.144531 199.234375 113.445312 C 208.773438 114.039062 210.3125 114.433594 211.914062 116.683594 C 213.425781 118.8125 213.601562 120.40625 213.46875 130.796875 L 213.34375 140.734375 L 212.179688 142.398438 C 210.09375 145.359375 209.566406 145.511719 198.984375 146.203125 C 193.8125 146.539062 189.488281 146.90625 189.375 147.015625 C 189.265625 147.128906 188.625 148.78125 187.949219 150.691406 C 187.273438 152.601562 185.953125 155.703125 185.007812 157.585938 C 184.058594 159.46875 183.335938 161.242188 183.40625 161.527344 C 183.46875 161.8125 186.046875 164.796875 189.140625 168.164062 C 192.226562 171.535156 195.148438 175.0625 195.625 176.007812 C 196.644531 178.015625 196.738281 180.140625 195.898438 182.148438 C 195.15625 183.921875 182.578125 196.710938 180.539062 197.765625 C 178.828125 198.648438 175.710938 198.746094 173.921875 197.96875 C 173.238281 197.671875 169.804688 194.796875 166.289062 191.578125 C 162.773438 188.363281 159.617188 185.730469 159.273438 185.730469 C 158.933594 185.726562 156.953125 186.523438 154.875 187.492188 C 152.796875 188.464844 149.71875 189.714844 148.03125 190.269531 C 145.703125 191.039062 144.921875 191.472656 144.78125 192.085938 C 144.679688 192.53125 144.335938 196.773438 144.015625 201.519531 C 143.324219 211.953125 142.925781 213.085938 139.292969 214.921875 C 138.238281 215.457031 136.496094 215.546875 127.671875 215.535156 C 119.867188 215.523438 117.007812 215.390625 116.132812 215 Z M 131.429688 168.675781 C 140.792969 167.695312 148.617188 163.960938 155.277344 157.292969 C 160.351562 152.210938 163.628906 146.507812 165.601562 139.320312 C 166.835938 134.8125 166.828125 124.863281 165.585938 120.300781 C 161.8125 106.457031 151.90625 96.265625 138.207031 92.140625 C 135.015625 91.179688 134.148438 91.089844 127.945312 91.0625 C 122 91.039062 120.761719 91.140625 117.875 91.929688 C 103.460938 95.867188 92.4375 107.449219 89.421875 121.824219 C 86.714844 134.738281 90.671875 147.921875 100.101562 157.394531 C 105.039062 162.355469 111.445312 165.996094 118.382812 167.78125 C 120.359375 168.296875 123.171875 168.6875 127.171875 169.015625 C 127.488281 169.039062 129.40625 168.886719 131.429688 168.675781 Z M 121.828125 152.4375 C 111.949219 149.757812 105.039062 141.355469 104.425781 131.28125 C 104 124.234375 106.265625 118.273438 111.265625 113.292969 C 120.378906 104.21875 134.925781 104.132812 143.921875 113.101562 C 151.328125 120.488281 153.109375 130.992188 148.507812 140.21875 C 144.59375 148.070312 137.375 152.707031 128.527344 153.054688 C 125.515625 153.171875 124.023438 153.035156 121.828125 152.4375 Z M 132.875 142.671875 C 135.601562 141.648438 138.855469 138.625 140.226562 135.839844 C 141.1875 133.875 141.304688 133.21875 141.304688 129.765625 C 141.304688 126.085938 141.238281 125.765625 139.976562 123.441406 C 137.4375 118.75 133.664062 116.375 128.332031 116.105469 C 124.046875 115.890625 121.484375 116.796875 118.394531 119.621094 C 114.476562 123.203125 112.914062 128.183594 114.175781 133.097656 C 115.265625 137.351562 117.574219 140.238281 121.457031 142.203125 C 125.078125 144.039062 128.804688 144.195312 132.875 142.671875 Z M 132.875 142.671875 "/>
</g>
</svg>
