<!-- color: #eeeeee -->
<svg xmlns="http://www.w3.org/2000/svg" xmlns:xlink="http://www.w3.org/1999/xlink" width="256px" height="256px" viewBox="0 0 256 256" version="1.1">
<defs>
<linearGradient id="linear0" gradientUnits="userSpaceOnUse" x1="1" y1="0" x2="47" y2="0" gradientTransform="matrix(0,-4.132763,4.132763,0,28.813684,227.186302)">
<stop offset="0" style="stop-color:rgb(89.411765%,89.411765%,89.411765%);stop-opacity:1;"/>
<stop offset="1" style="stop-color:rgb(93.333333%,93.333333%,93.333333%);stop-opacity:1;"/>
</linearGradient>
<clipPath id="clip1">
  <path d="M 66 66 L 190 66 L 190 190 L 66 190 Z M 66 66 "/>
</clipPath>
<clipPath id="clip2">
  <path d="M 223.054688 128 C 223.054688 180.515625 180.46875 223.054688 128 223.054688 C 75.53125 223.054688 32.945312 180.515625 32.945312 128 C 32.945312 75.484375 75.53125 32.945312 128 32.945312 C 180.46875 32.945312 223.054688 75.484375 223.054688 128 Z M 223.054688 128 "/>
</clipPath>
<clipPath id="clip3">
  <path d="M 94.5 99 L 111.5 99 L 111.5 108 L 94.5 108 Z M 94.5 99 "/>
</clipPath>
<clipPath id="clip4">
  <path d="M 223.054688 128 C 223.054688 180.515625 180.46875 223.054688 128 223.054688 C 75.53125 223.054688 32.945312 180.515625 32.945312 128 C 32.945312 75.484375 75.53125 32.945312 128 32.945312 C 180.46875 32.945312 223.054688 75.484375 223.054688 128 Z M 223.054688 128 "/>
</clipPath>
<clipPath id="clip5">
  <path d="M 135.5 78.5 L 148.5 78.5 L 148.5 87.5 L 135.5 87.5 Z M 135.5 78.5 "/>
</clipPath>
<clipPath id="clip6">
  <path d="M 223.054688 128 C 223.054688 180.515625 180.46875 223.054688 128 223.054688 C 75.53125 223.054688 32.945312 180.515625 32.945312 128 C 32.945312 75.484375 75.53125 32.945312 128 32.945312 C 180.46875 32.945312 223.054688 75.484375 223.054688 128 Z M 223.054688 128 "/>
</clipPath>
<clipPath id="clip7">
  <path d="M 127.5 103.5 L 140.5 103.5 L 140.5 116 L 127.5 116 Z M 127.5 103.5 "/>
</clipPath>
<clipPath id="clip8">
  <path d="M 223.054688 128 C 223.054688 180.515625 180.46875 223.054688 128 223.054688 C 75.53125 223.054688 32.945312 180.515625 32.945312 128 C 32.945312 75.484375 75.53125 32.945312 128 32.945312 C 180.46875 32.945312 223.054688 75.484375 223.054688 128 Z M 223.054688 128 "/>
</clipPath>
<clipPath id="clip9">
  <path d="M 160.5 99 L 173.5 99 L 173.5 116 L 160.5 116 Z M 160.5 99 "/>
</clipPath>
<clipPath id="clip10">
  <path d="M 223.054688 128 C 223.054688 180.515625 180.46875 223.054688 128 223.054688 C 75.53125 223.054688 32.945312 180.515625 32.945312 128 C 32.945312 75.484375 75.53125 32.945312 128 32.945312 C 180.46875 32.945312 223.054688 75.484375 223.054688 128 Z M 223.054688 128 "/>
</clipPath>
<clipPath id="clip11">
  <path d="M 98.5 120 L 107 120 L 107 137 L 98.5 137 Z M 98.5 120 "/>
</clipPath>
<clipPath id="clip12">
  <path d="M 223.054688 128 C 223.054688 180.515625 180.46875 223.054688 128 223.054688 C 75.53125 223.054688 32.945312 180.515625 32.945312 128 C 32.945312 75.484375 75.53125 32.945312 128 32.945312 C 180.46875 32.945312 223.054688 75.484375 223.054688 128 Z M 223.054688 128 "/>
</clipPath>
<clipPath id="clip13">
  <path d="M 119 136.5 L 132 136.5 L 132 153.5 L 119 153.5 Z M 119 136.5 "/>
</clipPath>
<clipPath id="clip14">
  <path d="M 223.054688 128 C 223.054688 180.515625 180.46875 223.054688 128 223.054688 C 75.53125 223.054688 32.945312 180.515625 32.945312 128 C 32.945312 75.484375 75.53125 32.945312 128 32.945312 C 180.46875 32.945312 223.054688 75.484375 223.054688 128 Z M 223.054688 128 "/>
</clipPath>
<clipPath id="clip15">
  <path d="M 111 82.5 L 115.5 82.5 L 115.5 91.5 L 111 91.5 Z M 111 82.5 "/>
</clipPath>
<clipPath id="clip16">
  <path d="M 223.054688 128 C 223.054688 180.515625 180.46875 223.054688 128 223.054688 C 75.53125 223.054688 32.945312 180.515625 32.945312 128 C 32.945312 75.484375 75.53125 32.945312 128 32.945312 C 180.46875 32.945312 223.054688 75.484375 223.054688 128 Z M 223.054688 128 "/>
</clipPath>
<clipPath id="clip17">
  <path d="M 140 128 L 152.5 128 L 152.5 141 L 140 141 Z M 140 128 "/>
</clipPath>
<clipPath id="clip18">
  <path d="M 223.054688 128 C 223.054688 180.515625 180.46875 223.054688 128 223.054688 C 75.53125 223.054688 32.945312 180.515625 32.945312 128 C 32.945312 75.484375 75.53125 32.945312 128 32.945312 C 180.46875 32.945312 223.054688 75.484375 223.054688 128 Z M 223.054688 128 "/>
</clipPath>
<clipPath id="clip19">
  <path d="M 160.5 128 L 177.5 128 L 177.5 149 L 160.5 149 Z M 160.5 128 "/>
</clipPath>
<clipPath id="clip20">
  <path d="M 223.054688 128 C 223.054688 180.515625 180.46875 223.054688 128 223.054688 C 75.53125 223.054688 32.945312 180.515625 32.945312 128 C 32.945312 75.484375 75.53125 32.945312 128 32.945312 C 180.46875 32.945312 223.054688 75.484375 223.054688 128 Z M 223.054688 128 "/>
</clipPath>
<clipPath id="clip21">
  <path d="M 140 157 L 161 157 L 161 174 L 140 174 Z M 140 157 "/>
</clipPath>
<clipPath id="clip22">
  <path d="M 223.054688 128 C 223.054688 180.515625 180.46875 223.054688 128 223.054688 C 75.53125 223.054688 32.945312 180.515625 32.945312 128 C 32.945312 75.484375 75.53125 32.945312 128 32.945312 C 180.46875 32.945312 223.054688 75.484375 223.054688 128 Z M 223.054688 128 "/>
</clipPath>
<clipPath id="clip23">
  <path d="M 107 165.5 L 124 165.5 L 124 174 L 107 174 Z M 107 165.5 "/>
</clipPath>
<clipPath id="clip24">
  <path d="M 223.054688 128 C 223.054688 180.515625 180.46875 223.054688 128 223.054688 C 75.53125 223.054688 32.945312 180.515625 32.945312 128 C 32.945312 75.484375 75.53125 32.945312 128 32.945312 C 180.46875 32.945312 223.054688 75.484375 223.054688 128 Z M 223.054688 128 "/>
</clipPath>
<clipPath id="clip25">
  <path d="M 90 144.5 L 107 144.5 L 107 153.5 L 90 153.5 Z M 90 144.5 "/>
</clipPath>
<clipPath id="clip26">
  <path d="M 223.054688 128 C 223.054688 180.515625 180.46875 223.054688 128 223.054688 C 75.53125 223.054688 32.945312 180.515625 32.945312 128 C 32.945312 75.484375 75.53125 32.945312 128 32.945312 C 180.46875 32.945312 223.054688 75.484375 223.054688 128 Z M 223.054688 128 "/>
</clipPath>
<clipPath id="clip27">
  <path d="M 78 120 L 82.5 120 L 82.5 137 L 78 137 Z M 78 120 "/>
</clipPath>
<clipPath id="clip28">
  <path d="M 223.054688 128 C 223.054688 180.515625 180.46875 223.054688 128 223.054688 C 75.53125 223.054688 32.945312 180.515625 32.945312 128 C 32.945312 75.484375 75.53125 32.945312 128 32.945312 C 180.46875 32.945312 223.054688 75.484375 223.054688 128 Z M 223.054688 128 "/>
</clipPath>
</defs>
<g id="surface1">
<path style="fill-rule:nonzero;fill:rgb(100%,100%,100%);fill-opacity:1;stroke-width:2.648788;stroke-linecap:butt;stroke-linejoin:miter;stroke:rgb(82.745098%,66.27451%,41.568627%);stroke-opacity:1;stroke-miterlimit:4;" d="M 7.602539 2.305664 L 40.39746 2.305664 C 43.323485 2.305664 45.695067 4.677246 45.695067 7.602539 L 45.695067 40.39746 C 45.695067 43.323485 43.323485 45.695067 40.39746 45.695067 L 7.602539 45.695067 C 4.677246 45.695067 2.305664 43.323485 2.305664 40.39746 L 2.305664 7.602539 C 2.305664 4.677246 4.677246 2.305664 7.602539 2.305664 Z M 7.602539 2.305664 " transform="matrix(5.333334,0,0,5.333334,0,0)"/>
<path style=" stroke:none;fill-rule:nonzero;fill:url(#linear0);" d="M 128 32.945312 C 180.5 32.945312 223.054688 75.5 223.054688 128 C 223.054688 180.5 180.5 223.054688 128 223.054688 C 75.5 223.054688 32.945312 180.5 32.945312 128 C 32.945312 75.5 75.5 32.945312 128 32.945312 Z M 128 32.945312 "/>
<g clip-path="url(#clip1)" clip-rule="nonzero">
<g clip-path="url(#clip2)" clip-rule="nonzero">
<path style=" stroke:none;fill-rule:nonzero;fill:rgb(81.568627%,63.137255%,35.686275%);fill-opacity:0.886275;" d="M 189.992188 128 C 189.992188 162.242188 162.242188 189.992188 128 189.992188 C 93.757812 189.992188 66.007812 162.242188 66.007812 128 C 66.007812 93.757812 93.757812 66.007812 128 66.007812 C 162.242188 66.007812 189.992188 93.757812 189.992188 128 M 189.992188 128 "/>
</g>
</g>
<g clip-path="url(#clip3)" clip-rule="nonzero">
<g clip-path="url(#clip4)" clip-rule="nonzero">
<path style=" stroke:none;fill-rule:nonzero;fill:rgb(52.54902%,35.686275%,12.941176%);fill-opacity:1;" d="M 94.601562 99.445312 L 94.601562 107.710938 L 111.132812 103.578125 M 94.601562 99.445312 "/>
</g>
</g>
<g clip-path="url(#clip5)" clip-rule="nonzero">
<g clip-path="url(#clip6)" clip-rule="nonzero">
<path style=" stroke:none;fill-rule:nonzero;fill:rgb(52.54902%,35.686275%,12.941176%);fill-opacity:1;" d="M 135.910156 78.78125 L 135.910156 87.046875 L 148.308594 82.914062 M 135.910156 78.78125 "/>
</g>
</g>
<g clip-path="url(#clip7)" clip-rule="nonzero">
<g clip-path="url(#clip8)" clip-rule="nonzero">
<path style=" stroke:none;fill-rule:nonzero;fill:rgb(52.54902%,35.686275%,12.941176%);fill-opacity:1;" d="M 127.644531 103.578125 L 131.777344 115.976562 L 140.023438 107.710938 M 127.644531 103.578125 "/>
</g>
</g>
<g clip-path="url(#clip9)" clip-rule="nonzero">
<g clip-path="url(#clip10)" clip-rule="nonzero">
<path style=" stroke:none;fill-rule:nonzero;fill:rgb(52.54902%,35.686275%,12.941176%);fill-opacity:1;" d="M 164.839844 99.445312 L 160.707031 115.976562 L 173.105469 111.84375 M 164.839844 99.445312 "/>
</g>
</g>
<g clip-path="url(#clip11)" clip-rule="nonzero">
<g clip-path="url(#clip12)" clip-rule="nonzero">
<path style=" stroke:none;fill-rule:nonzero;fill:rgb(52.54902%,35.686275%,12.941176%);fill-opacity:1;" d="M 98.714844 120.105469 L 98.714844 136.636719 L 106.980469 124.238281 M 98.714844 120.105469 "/>
</g>
</g>
<g clip-path="url(#clip13)" clip-rule="nonzero">
<g clip-path="url(#clip14)" clip-rule="nonzero">
<path style=" stroke:none;fill-rule:nonzero;fill:rgb(52.54902%,35.686275%,12.941176%);fill-opacity:1;" d="M 119.378906 144.902344 L 119.378906 153.152344 L 131.777344 149.019531 L 123.511719 136.621094 M 119.378906 144.886719 "/>
</g>
</g>
<g clip-path="url(#clip15)" clip-rule="nonzero">
<g clip-path="url(#clip16)" clip-rule="nonzero">
<path style=" stroke:none;fill-rule:nonzero;fill:rgb(52.54902%,35.686275%,12.941176%);fill-opacity:1;" d="M 111.132812 82.914062 L 111.132812 87.046875 L 115.265625 91.160156 M 111.132812 82.914062 "/>
</g>
</g>
<g clip-path="url(#clip17)" clip-rule="nonzero">
<g clip-path="url(#clip18)" clip-rule="nonzero">
<path style=" stroke:none;fill-rule:nonzero;fill:rgb(52.54902%,35.686275%,12.941176%);fill-opacity:1;" d="M 152.457031 128.328125 L 140.058594 132.460938 L 148.324219 140.726562 L 152.457031 132.460938 L 152.457031 128.328125 M 152.476562 128.328125 "/>
</g>
</g>
<g clip-path="url(#clip19)" clip-rule="nonzero">
<g clip-path="url(#clip20)" clip-rule="nonzero">
<path style=" stroke:none;fill-rule:nonzero;fill:rgb(52.54902%,35.686275%,12.941176%);fill-opacity:1;" d="M 168.988281 128.328125 L 160.722656 148.992188 L 164.855469 140.78125 L 177.253906 136.648438 M 168.988281 128.382812 "/>
</g>
</g>
<g clip-path="url(#clip21)" clip-rule="nonzero">
<g clip-path="url(#clip22)" clip-rule="nonzero">
<path style=" stroke:none;fill-rule:nonzero;fill:rgb(52.54902%,35.686275%,12.941176%);fill-opacity:1;" d="M 148.324219 157.300781 L 140.058594 165.550781 L 152.457031 173.816406 L 160.722656 165.550781 M 148.324219 157.300781 "/>
</g>
</g>
<g clip-path="url(#clip23)" clip-rule="nonzero">
<g clip-path="url(#clip24)" clip-rule="nonzero">
<path style=" stroke:none;fill-rule:nonzero;fill:rgb(52.54902%,35.686275%,12.941176%);fill-opacity:1;" d="M 115.265625 165.523438 L 107 165.523438 L 119.398438 173.789062 L 123.53125 169.65625 M 115.265625 165.523438 "/>
</g>
</g>
<g clip-path="url(#clip25)" clip-rule="nonzero">
<g clip-path="url(#clip26)" clip-rule="nonzero">
<path style=" stroke:none;fill-rule:nonzero;fill:rgb(52.54902%,35.686275%,12.941176%);fill-opacity:1;" d="M 90.449219 148.992188 L 106.980469 144.914062 L 106.980469 153.125 L 94.582031 153.125 M 90.449219 148.992188 "/>
</g>
</g>
<g clip-path="url(#clip27)" clip-rule="nonzero">
<g clip-path="url(#clip28)" clip-rule="nonzero">
<path style=" stroke:none;fill-rule:nonzero;fill:rgb(52.54902%,35.686275%,12.941176%);fill-opacity:1;" d="M 78.070312 120.105469 L 82.183594 136.636719 L 82.183594 120.105469 M 78.070312 120.105469 "/>
</g>
</g>
</g>
</svg>
