
<svg xmlns="http://www.w3.org/2000/svg" xmlns:xlink="http://www.w3.org/1999/xlink" width="256px" height="256px" viewBox="0 0 256 256" version="1.1">
<g id="surface1">
<path style="fill-rule:nonzero;fill:rgb(82.352941%,85.882353%,90.980392%);fill-opacity:1;stroke-width:7.086947;stroke-linecap:butt;stroke-linejoin:miter;stroke:rgb(19.215686%,21.176471%,27.843137%);stroke-opacity:1;stroke-miterlimit:4;" d="M 471.825336 1058.553878 L 559.567524 1058.553878 C 567.395649 1058.553878 573.741352 1064.899581 573.741352 1072.727706 L 573.741352 1160.469894 C 573.741352 1168.298019 567.395649 1174.643722 559.567524 1174.643722 L 471.825336 1174.643722 C 463.997211 1174.643722 457.651508 1168.298019 457.651508 1160.469894 L 457.651508 1072.727706 C 457.651508 1064.899581 463.997211 1058.553878 471.825336 1058.553878 Z M 471.825336 1058.553878 " transform="matrix(2,0,0,2,-903.39286,-2105.1976)"/>
<path style=" stroke:none;fill-rule:nonzero;fill:rgb(16.078431%,50.196078%,72.54902%);fill-opacity:1;" d="M 129.390625 37.0625 C 104.539062 37.0625 82.765625 48.613281 70.703125 65.914062 C 69.695312 67.351562 68.761719 68.828125 67.898438 70.34375 L 50.1875 102.796875 C 49.042969 104.875 48.003906 107 47.074219 109.179688 C 43.507812 117.523438 41.554688 126.554688 41.554688 135.992188 C 41.554688 178.410156 80.914062 212.820312 129.390625 212.820312 C 177.867188 212.820312 217.222656 178.410156 217.222656 135.992188 C 217.222656 124.359375 214.257812 113.34375 208.960938 103.464844 L 191.53125 71.503906 C 180.515625 51.148438 156.828125 37.0625 129.390625 37.0625 Z M 129.292969 83.296875 C 149.953125 83.296875 168.363281 91.65625 180.398438 104.71875 C 178.1875 127.71875 156.144531 145.789062 129.292969 145.789062 C 102.445312 145.789062 80.402344 127.714844 78.1875 104.71875 C 90.226562 91.664062 108.640625 83.296875 129.292969 83.296875 Z M 129.292969 83.296875 "/>
<path style=" stroke:none;fill-rule:evenodd;fill:rgb(20.392157%,59.607843%,85.882353%);fill-opacity:1;" d="M 52.578125 98.742188 C 88.398438 41.339844 179.789062 48.679688 206.765625 99.707031 C 172.570312 51.46875 95.675781 42.917969 52.578125 98.742188 Z M 52.578125 98.742188 "/>
<path style=" stroke:none;fill-rule:evenodd;fill:rgb(20.392157%,59.607843%,85.882353%);fill-opacity:1;" d="M 181.738281 106.523438 C 208.539062 135.523438 189.398438 195.996094 130.003906 195.996094 C 70.886719 195.996094 49.320312 135.671875 78.125 104.832031 C 44.671875 139.773438 67.238281 200.335938 130.003906 200.335938 C 192.960938 200.335938 212.6875 140.019531 181.738281 106.523438 Z M 181.738281 106.523438 "/>
<path style=" stroke:none;fill-rule:nonzero;fill:rgb(20.392157%,28.627451%,36.862745%);fill-opacity:1;" d="M 186.0625 146.648438 C 186.0625 168.054688 168.714844 185.40625 147.3125 185.40625 C 125.90625 185.40625 108.554688 168.054688 108.554688 146.648438 C 108.554688 125.246094 125.90625 107.894531 147.3125 107.894531 C 168.714844 107.894531 186.0625 125.246094 186.0625 146.648438 Z M 186.0625 146.648438 "/>
</g>
</svg>
