<!-- color: #474747 -->
<svg xmlns="http://www.w3.org/2000/svg" xmlns:xlink="http://www.w3.org/1999/xlink" width="256px" height="256px" viewBox="0 0 256 256" version="1.1">
<defs>
<clipPath id="clip1">
  <path d="M 95 29.5 L 118.5 29.5 L 118.5 49.5 L 95 49.5 Z M 95 29.5 "/>
</clipPath>
<clipPath id="clip2">
  <path d="M 306.902344 127.1875 C 306.902344 226.539062 226.34375 307.007812 127.085938 307.007812 C 27.828125 307.007812 -52.726562 226.539062 -52.726562 127.1875 C -52.726562 27.84375 27.828125 -52.625 127.085938 -52.625 C 226.34375 -52.625 306.902344 27.84375 306.902344 127.1875 Z M 306.902344 127.1875 "/>
</clipPath>
<clipPath id="clip3">
  <path d="M 80 25.5 L 221 25.5 L 221 135.5 L 80 135.5 Z M 80 25.5 "/>
</clipPath>
<clipPath id="clip4">
  <path d="M 306.902344 127.1875 C 306.902344 226.539062 226.34375 307.007812 127.085938 307.007812 C 27.828125 307.007812 -52.726562 226.539062 -52.726562 127.1875 C -52.726562 27.84375 27.828125 -52.625 127.085938 -52.625 C 226.34375 -52.625 306.902344 27.84375 306.902344 127.1875 Z M 306.902344 127.1875 "/>
</clipPath>
<clipPath id="clip5">
  <path d="M 72 71.5 L 229 71.5 L 229 230 L 72 230 Z M 72 71.5 "/>
</clipPath>
<clipPath id="clip6">
  <path d="M 306.902344 127.1875 C 306.902344 226.539062 226.34375 307.007812 127.085938 307.007812 C 27.828125 307.007812 -52.726562 226.539062 -52.726562 127.1875 C -52.726562 27.84375 27.828125 -52.625 127.085938 -52.625 C 226.34375 -52.625 306.902344 27.84375 306.902344 127.1875 Z M 306.902344 127.1875 "/>
</clipPath>
<clipPath id="clip7">
  <path d="M 25 72 L 182 72 L 182 119.5 L 25 119.5 Z M 25 72 "/>
</clipPath>
<clipPath id="clip8">
  <path d="M 306.902344 127.1875 C 306.902344 226.539062 226.34375 307.007812 127.085938 307.007812 C 27.828125 307.007812 -52.726562 226.539062 -52.726562 127.1875 C -52.726562 27.84375 27.828125 -52.625 127.085938 -52.625 C 226.34375 -52.625 306.902344 27.84375 306.902344 127.1875 Z M 306.902344 127.1875 "/>
</clipPath>
<clipPath id="clip9">
  <path d="M 25 95.5 L 166.5 95.5 L 166.5 198 L 25 198 Z M 25 95.5 "/>
</clipPath>
<clipPath id="clip10">
  <path d="M 306.902344 127.1875 C 306.902344 226.539062 226.34375 307.007812 127.085938 307.007812 C 27.828125 307.007812 -52.726562 226.539062 -52.726562 127.1875 C -52.726562 27.84375 27.828125 -52.625 127.085938 -52.625 C 226.34375 -52.625 306.902344 27.84375 306.902344 127.1875 Z M 306.902344 127.1875 "/>
</clipPath>
<clipPath id="clip11">
  <path d="M 111 111 L 190 111 L 190 190.5 L 111 190.5 Z M 111 111 "/>
</clipPath>
<clipPath id="clip12">
  <path d="M 306.902344 127.1875 C 306.902344 226.539062 226.34375 307.007812 127.085938 307.007812 C 27.828125 307.007812 -52.726562 226.539062 -52.726562 127.1875 C -52.726562 27.84375 27.828125 -52.625 127.085938 -52.625 C 226.34375 -52.625 306.902344 27.84375 306.902344 127.1875 Z M 306.902344 127.1875 "/>
</clipPath>
</defs>
<g id="surface1">
<path style="fill-rule:nonzero;fill:rgb(100%,100%,100%);fill-opacity:1;stroke-width:7.039455;stroke-linecap:butt;stroke-linejoin:miter;stroke:rgb(86.27451%,61.568627%,0%);stroke-opacity:1;stroke-miterlimit:4;" d="M 20.423828 6.34375 L 107.576172 6.34375 C 115.353516 6.34375 121.65625 12.646484 121.65625 20.423828 L 121.65625 107.576172 C 121.65625 115.353516 115.353516 121.65625 107.576172 121.65625 L 20.423828 121.65625 C 12.646484 121.65625 6.34375 115.353516 6.34375 107.576172 L 6.34375 20.423828 C 6.34375 12.646484 12.646484 6.34375 20.423828 6.34375 Z M 20.423828 6.34375 " transform="matrix(2,0,0,2,0,0)"/>
<g clip-path="url(#clip1)" clip-rule="nonzero">
<g clip-path="url(#clip2)" clip-rule="nonzero">
<path style=" stroke:none;fill-rule:nonzero;fill:rgb(97.647059%,97.647059%,97.647059%);fill-opacity:1;" d="M 118.226562 39.359375 C 118.257812 42.871094 116.09375 46.140625 112.546875 47.914062 C 109.003906 49.65625 104.601562 49.65625 101.0625 47.914062 C 97.519531 46.140625 95.351562 42.871094 95.375 39.359375 C 95.34375 35.851562 97.507812 32.585938 101.0625 30.808594 C 104.601562 29.0625 109.003906 29.0625 112.546875 30.808594 C 116.085938 32.585938 118.25 35.851562 118.226562 39.359375 M 118.226562 39.359375 "/>
</g>
</g>
<g clip-path="url(#clip3)" clip-rule="nonzero">
<g clip-path="url(#clip4)" clip-rule="nonzero">
<path style=" stroke:none;fill-rule:nonzero;fill:rgb(23.529412%,61.568627%,9.019608%);fill-opacity:1;" d="M 209.480469 131.710938 C 216.078125 127.640625 220.902344 118.792969 220.902344 110.757812 C 220.902344 103.453125 217.234375 91.640625 210.765625 77.898438 C 203.921875 63.394531 184.53125 43.390625 170.054688 35.875 C 152.433594 26.742188 144.066406 25.09375 117.1875 25.671875 C 96.507812 26.132812 93.335938 26.523438 89.828125 29.242188 C 85.03125 32.976562 79.59375 44.0625 80.234375 48.757812 C 80.96875 54.074219 89.976562 56.703125 103.445312 55.539062 C 116.484375 54.40625 118.375 55.84375 112.273438 62.34375 C 109.246094 65.585938 106.070312 67.109375 100.914062 67.84375 C 97 68.390625 92.820312 69 91.625 69.1875 C 90.132812 69.429688 90.585938 70.257812 93.0625 71.78125 C 95.53125 73.273438 103.296875 74.230469 117.765625 74.808594 C 136.460938 75.542969 139.726562 76.089844 146.8125 79.601562 C 155.367188 83.875 165.957031 94.101562 169.625 101.617188 C 170.84375 104.148438 173.101562 110.078125 174.636719 114.78125 C 179.09375 128.558594 186.636719 135.09375 197.996094 135.03125 C 201.664062 135 206.421875 133.65625 209.511719 131.734375 M 100.609375 45.1875 C 96.328125 40.605469 100.484375 30.066406 106.59375 30.066406 C 113.5 30.066406 117.375 39.5 112.554688 44.632812 C 109.832031 47.5 103.085938 47.804688 100.617188 45.210938 M 100.617188 45.179688 "/>
</g>
</g>
<g clip-path="url(#clip5)" clip-rule="nonzero">
<g clip-path="url(#clip6)" clip-rule="nonzero">
<path style=" stroke:none;fill-rule:nonzero;fill:rgb(86.27451%,61.568627%,0%);fill-opacity:1;" d="M 228.71875 150.644531 C 228.992188 178.742188 214.125 204.820312 189.84375 218.960938 C 165.535156 233.070312 135.546875 233.070312 111.273438 218.960938 C 86.996094 204.8125 72.179688 178.734375 72.390625 150.644531 C 72.148438 122.546875 86.988281 96.464844 111.273438 82.328125 C 135.578125 68.21875 165.566406 68.21875 189.84375 82.328125 C 214.117188 96.472656 229.007812 122.554688 228.71875 150.644531 M 228.71875 150.644531 "/>
</g>
</g>
<g clip-path="url(#clip7)" clip-rule="nonzero">
<g clip-path="url(#clip8)" clip-rule="nonzero">
<path style=" stroke:none;fill-rule:nonzero;fill:rgb(86.27451%,61.568627%,0%);fill-opacity:1;" d="M 50.523438 72.460938 L 156.679688 72.460938 C 170.539062 72.460938 181.78125 82.476562 181.78125 94.78125 L 181.78125 97.042969 C 181.78125 109.382812 170.539062 119.363281 156.679688 119.363281 L 50.523438 119.363281 C 36.6875 119.363281 25.453125 109.382812 25.453125 97.042969 L 25.453125 94.78125 C 25.453125 82.476562 36.695312 72.460938 50.523438 72.460938 M 50.523438 72.460938 "/>
</g>
</g>
<g clip-path="url(#clip9)" clip-rule="nonzero">
<g clip-path="url(#clip10)" clip-rule="nonzero">
<path style=" stroke:none;fill-rule:nonzero;fill:rgb(86.27451%,61.568627%,0%);fill-opacity:1;" d="M 38.734375 152.597656 L 129.953125 99.585938 C 141.894531 92.648438 156.4375 95.832031 162.445312 106.667969 L 163.550781 108.621094 C 169.59375 119.464844 164.800781 133.875 152.894531 140.808594 L 61.671875 193.851562 C 49.765625 200.757812 35.195312 197.585938 29.179688 186.742188 L 28.078125 184.785156 C 22.058594 173.941406 26.828125 159.53125 38.734375 152.597656 M 38.734375 152.597656 "/>
</g>
</g>
<g clip-path="url(#clip11)" clip-rule="nonzero">
<g clip-path="url(#clip12)" clip-rule="nonzero">
<path style=" stroke:none;fill-rule:nonzero;fill:rgb(0%,43.921569%,72.54902%);fill-opacity:1;" d="M 189.632812 150.644531 C 189.757812 164.695312 182.328125 177.734375 170.179688 184.785156 C 158.054688 191.867188 143.027344 191.867188 130.933594 184.785156 C 118.773438 177.734375 111.359375 164.695312 111.484375 150.644531 C 111.359375 136.59375 118.78125 123.554688 130.933594 116.5 C 143.058594 109.421875 158.085938 109.421875 170.179688 116.5 C 182.335938 123.554688 189.757812 136.59375 189.632812 150.644531 M 189.632812 150.644531 "/>
</g>
</g>
</g>
</svg>
