
<svg xmlns="http://www.w3.org/2000/svg" xmlns:xlink="http://www.w3.org/1999/xlink" width="256px" height="256px" viewBox="0 0 256 256" version="1.1">
<defs>
<clipPath id="clip1">
  <path d="M 16.5 16.5 L 239.5 16.5 L 239.5 239.5 L 16.5 239.5 Z M 16.5 16.5 "/>
</clipPath>
<clipPath id="clip2">
  <path d="M 44.101562 16.992188 L 211.898438 16.992188 C 226.871094 16.992188 239.007812 29.128906 239.007812 44.101562 L 239.007812 211.898438 C 239.007812 226.871094 226.871094 239.007812 211.898438 239.007812 L 44.101562 239.007812 C 29.128906 239.007812 16.992188 226.871094 16.992188 211.898438 L 16.992188 44.101562 C 16.992188 29.128906 29.128906 16.992188 44.101562 16.992188 Z M 44.101562 16.992188 "/>
</clipPath>
<clipPath id="clip3">
  <path d="M 16.5 69.5 L 239.5 69.5 L 239.5 187 L 16.5 187 Z M 16.5 69.5 "/>
</clipPath>
<clipPath id="clip4">
  <path d="M 44.101562 16.992188 L 211.898438 16.992188 C 226.871094 16.992188 239.007812 29.128906 239.007812 44.101562 L 239.007812 211.898438 C 239.007812 226.871094 226.871094 239.007812 211.898438 239.007812 L 44.101562 239.007812 C 29.128906 239.007812 16.992188 226.871094 16.992188 211.898438 L 16.992188 44.101562 C 16.992188 29.128906 29.128906 16.992188 44.101562 16.992188 Z M 44.101562 16.992188 "/>
</clipPath>
<clipPath id="clip5">
  <path d="M 122 16.5 L 239.5 16.5 L 239.5 118.5 L 122 118.5 Z M 122 16.5 "/>
</clipPath>
<clipPath id="clip6">
  <path d="M 44.101562 16.992188 L 211.898438 16.992188 C 226.871094 16.992188 239.007812 29.128906 239.007812 44.101562 L 239.007812 211.898438 C 239.007812 226.871094 226.871094 239.007812 211.898438 239.007812 L 44.101562 239.007812 C 29.128906 239.007812 16.992188 226.871094 16.992188 211.898438 L 16.992188 44.101562 C 16.992188 29.128906 29.128906 16.992188 44.101562 16.992188 Z M 44.101562 16.992188 "/>
</clipPath>
<clipPath id="clip7">
  <path d="M 105 16.5 L 186.5 16.5 L 186.5 139 L 105 139 Z M 105 16.5 "/>
</clipPath>
<clipPath id="clip8">
  <path d="M 44.101562 16.992188 L 211.898438 16.992188 C 226.871094 16.992188 239.007812 29.128906 239.007812 44.101562 L 239.007812 211.898438 C 239.007812 226.871094 226.871094 239.007812 211.898438 239.007812 L 44.101562 239.007812 C 29.128906 239.007812 16.992188 226.871094 16.992188 211.898438 L 16.992188 44.101562 C 16.992188 29.128906 29.128906 16.992188 44.101562 16.992188 Z M 44.101562 16.992188 "/>
</clipPath>
<clipPath id="clip9">
  <path d="M 69 16.5 L 151 16.5 L 151 139 L 69 139 Z M 69 16.5 "/>
</clipPath>
<clipPath id="clip10">
  <path d="M 44.101562 16.992188 L 211.898438 16.992188 C 226.871094 16.992188 239.007812 29.128906 239.007812 44.101562 L 239.007812 211.898438 C 239.007812 226.871094 226.871094 239.007812 211.898438 239.007812 L 44.101562 239.007812 C 29.128906 239.007812 16.992188 226.871094 16.992188 211.898438 L 16.992188 44.101562 C 16.992188 29.128906 29.128906 16.992188 44.101562 16.992188 Z M 44.101562 16.992188 "/>
</clipPath>
<clipPath id="clip11">
  <path d="M 16.5 16.5 L 177.5 16.5 L 177.5 150.5 L 16.5 150.5 Z M 16.5 16.5 "/>
</clipPath>
<clipPath id="clip12">
  <path d="M 44.101562 16.992188 L 211.898438 16.992188 C 226.871094 16.992188 239.007812 29.128906 239.007812 44.101562 L 239.007812 211.898438 C 239.007812 226.871094 226.871094 239.007812 211.898438 239.007812 L 44.101562 239.007812 C 29.128906 239.007812 16.992188 226.871094 16.992188 211.898438 L 16.992188 44.101562 C 16.992188 29.128906 29.128906 16.992188 44.101562 16.992188 Z M 44.101562 16.992188 "/>
</clipPath>
<clipPath id="clip13">
  <path d="M 108.5 143.5 L 147.5 143.5 L 147.5 239.5 L 108.5 239.5 Z M 108.5 143.5 "/>
</clipPath>
<clipPath id="clip14">
  <path d="M 44.101562 16.992188 L 211.898438 16.992188 C 226.871094 16.992188 239.007812 29.128906 239.007812 44.101562 L 239.007812 211.898438 C 239.007812 226.871094 226.871094 239.007812 211.898438 239.007812 L 44.101562 239.007812 C 29.128906 239.007812 16.992188 226.871094 16.992188 211.898438 L 16.992188 44.101562 C 16.992188 29.128906 29.128906 16.992188 44.101562 16.992188 Z M 44.101562 16.992188 "/>
</clipPath>
<clipPath id="clip15">
  <path d="M 16.5 69.5 L 239.5 69.5 L 239.5 187 L 16.5 187 Z M 16.5 69.5 "/>
</clipPath>
<clipPath id="clip16">
  <path d="M 44.101562 16.992188 L 211.898438 16.992188 C 226.871094 16.992188 239.007812 29.128906 239.007812 44.101562 L 239.007812 211.898438 C 239.007812 226.871094 226.871094 239.007812 211.898438 239.007812 L 44.101562 239.007812 C 29.128906 239.007812 16.992188 226.871094 16.992188 211.898438 L 16.992188 44.101562 C 16.992188 29.128906 29.128906 16.992188 44.101562 16.992188 Z M 44.101562 16.992188 "/>
</clipPath>
</defs>
<g id="surface1">
<path style="fill-rule:nonzero;fill:rgb(82.352941%,85.882353%,90.980392%);fill-opacity:1;stroke-width:1.97109;stroke-linecap:butt;stroke-linejoin:miter;stroke:rgb(19.215686%,21.176471%,27.843137%);stroke-opacity:1;stroke-miterlimit:4;" d="M -32.259185 377.185388 L -7.854678 377.185388 C -5.677928 377.185388 -3.912386 378.95038 -3.912386 381.12768 L -3.912386 405.531636 C -3.912386 407.708937 -5.677928 409.473928 -7.854678 409.473928 L -32.259185 409.473928 C -34.435935 409.473928 -36.201477 407.708937 -36.201477 405.531636 L -36.201477 381.12768 C -36.201477 378.95038 -34.435935 377.185388 -32.259185 377.185388 Z M -32.259185 377.185388 " transform="matrix(7.086614,0,0,7.086614,270.135721,-2659.373313)"/>
<g clip-path="url(#clip1)" clip-rule="nonzero">
<g clip-path="url(#clip2)" clip-rule="nonzero">
<path style=" stroke:none;fill-rule:nonzero;fill:rgb(17.254902%,24.313725%,31.372549%);fill-opacity:1;" d="M 127.867188 -26.117188 C 213.15625 -26.117188 282.296875 43.023438 282.296875 128.3125 C 282.296875 213.601562 213.15625 282.742188 127.867188 282.742188 C 42.578125 282.742188 -26.5625 213.601562 -26.5625 128.3125 C -26.5625 43.023438 42.578125 -26.117188 127.867188 -26.117188 Z M 127.867188 -26.117188 "/>
</g>
</g>
<g clip-path="url(#clip3)" clip-rule="nonzero">
<g clip-path="url(#clip4)" clip-rule="nonzero">
<path style=" stroke:none;fill-rule:nonzero;fill:rgb(90.588235%,29.803922%,23.529412%);fill-opacity:1;" d="M -26.296875 106.984375 L -16.304688 69.695312 L 282.03125 149.632812 L 272.039062 186.925781 Z M -26.296875 106.984375 "/>
<path style=" stroke:none;fill-rule:nonzero;fill:rgb(90.196078%,49.411765%,13.333333%);fill-opacity:1;" d="M -26.296875 149.632812 L -16.304688 186.921875 L 282.03125 106.984375 L 272.039062 69.695312 Z M -26.296875 149.632812 "/>
</g>
</g>
<g clip-path="url(#clip5)" clip-rule="nonzero">
<g clip-path="url(#clip6)" clip-rule="nonzero">
<path style=" stroke:none;fill-rule:nonzero;fill:rgb(95.294118%,61.176471%,7.058824%);fill-opacity:1;" d="M 223.421875 5.460938 L 122.105469 106.773438 L 165.164062 118.3125 L 250.71875 32.757812 Z M 223.421875 5.460938 "/>
</g>
</g>
<g clip-path="url(#clip7)" clip-rule="nonzero">
<g clip-path="url(#clip8)" clip-rule="nonzero">
<path style=" stroke:none;fill-rule:nonzero;fill:rgb(94.509804%,76.862745%,5.882353%);fill-opacity:1;" d="M 149.191406 -25.84375 L 105.035156 138.960938 C 112.347656 137.117188 119.96875 136.03125 127.867188 136.03125 C 133.847656 136.03125 139.671875 136.648438 145.328125 137.722656 L 186.484375 -15.859375 Z M 149.191406 -25.84375 "/>
</g>
</g>
<g clip-path="url(#clip9)" clip-rule="nonzero">
<g clip-path="url(#clip10)" clip-rule="nonzero">
<path style=" stroke:none;fill-rule:nonzero;fill:rgb(90.196078%,49.411765%,13.333333%);fill-opacity:1;" d="M 106.542969 -25.84375 L 69.25 -15.859375 L 110.40625 137.722656 C 116.0625 136.648438 121.886719 136.03125 127.867188 136.03125 C 135.765625 136.03125 143.386719 137.117188 150.699219 138.960938 Z M 106.542969 -25.84375 "/>
</g>
</g>
<g clip-path="url(#clip11)" clip-rule="nonzero">
<g clip-path="url(#clip12)" clip-rule="nonzero">
<path style=" stroke:none;fill-rule:nonzero;fill:rgb(95.294118%,61.176471%,7.058824%);fill-opacity:1;" d="M 32.3125 5.460938 L 5.015625 32.757812 L 110.023438 137.765625 C 115.800781 136.648438 121.757812 136.03125 127.867188 136.03125 C 145.96875 136.03125 162.773438 141.257812 177.015625 150.164062 Z M 32.3125 5.460938 "/>
</g>
</g>
<g clip-path="url(#clip13)" clip-rule="nonzero">
<g clip-path="url(#clip14)" clip-rule="nonzero">
<path style=" stroke:none;fill-rule:nonzero;fill:rgb(75.294118%,22.352941%,16.862745%);fill-opacity:1;" d="M 108.5625 143.742188 L 147.171875 143.742188 L 147.171875 282.726562 L 108.5625 282.726562 Z M 108.5625 143.742188 "/>
</g>
</g>
<g clip-path="url(#clip15)" clip-rule="nonzero">
<g clip-path="url(#clip16)" clip-rule="nonzero">
<path style=" stroke:none;fill-rule:nonzero;fill:rgb(90.196078%,49.411765%,13.333333%);fill-opacity:1;" d="M -26.296875 106.984375 L -16.304688 69.695312 L 282.03125 149.632812 L 272.039062 186.925781 Z M -26.296875 106.984375 "/>
</g>
</g>
</g>
</svg>
