
<svg xmlns="http://www.w3.org/2000/svg" xmlns:xlink="http://www.w3.org/1999/xlink" width="256px" height="256px" viewBox="0 0 256 256" version="1.1">
<g id="surface1">
<path style="fill-rule:nonzero;fill:rgb(37.254902%,82.745098%,73.72549%);fill-opacity:1;stroke-width:2.018116;stroke-linecap:butt;stroke-linejoin:miter;stroke:rgb(92.54902%,94.117647%,94.509804%);stroke-opacity:1;stroke-miterlimit:4;" d="M -32.549676 376.800089 L -7.564187 376.800089 C -5.335072 376.800089 -3.527637 378.607524 -3.527637 380.836638 L -3.527637 405.822678 C -3.527637 408.051793 -5.335072 409.858677 -7.564187 409.858677 L -32.549676 409.858677 C -34.77879 409.858677 -36.586226 408.051793 -36.586226 405.822678 L -36.586226 380.836638 C -36.586226 378.607524 -34.77879 376.800089 -32.549676 376.800089 Z M -32.549676 376.800089 " transform="matrix(7.086614,0,0,7.086614,270.135721,-2659.373313)"/>
<path style=" stroke:none;fill-rule:nonzero;fill:rgb(92.54902%,94.117647%,94.509804%);fill-opacity:0.901961;" d="M 62.96875 193.859375 L 184.339844 194.355469 C 212.195312 197.351562 259.453125 134.941406 187.324219 100.492188 C 185.832031 36.085938 134.597656 21.109375 100.773438 67.039062 C 77.085938 56.851562 44.066406 70.535156 51.527344 110.976562 C 9.335938 128.023438 26.15625 186.867188 62.96875 193.855469 Z M 62.96875 193.859375 "/>
<path style=" stroke:none;fill-rule:nonzero;fill:rgb(12.54902%,17.647059%,22.745098%);fill-opacity:1;" d="M 105.203125 149.351562 L 93.457031 170.683594 L 80.753906 170.683594 C 89.703125 154.546875 98.410156 139.6875 106.878906 126.101562 C 115.429688 112.523438 123.855469 99.699219 132.164062 87.636719 L 143.546875 87.636719 C 144.75 93.625 145.828125 99.699219 146.785156 105.851562 C 147.824219 111.921875 148.820312 118.3125 149.78125 125.023438 C 150.742188 131.734375 151.65625 138.847656 152.539062 146.359375 C 153.414062 153.867188 154.335938 161.976562 155.292969 170.683594 L 143.546875 170.683594 C 143.148438 167.085938 142.789062 163.492188 142.46875 159.898438 C 142.152344 156.222656 141.789062 152.710938 141.390625 149.351562 L 105.203125 149.351562 M 140.3125 140.007812 C 139.671875 133.53125 138.914062 127.101562 138.039062 120.710938 C 137.238281 114.320312 136.28125 107.726562 135.160156 100.9375 C 132.367188 105.011719 128.890625 110.285156 124.734375 116.757812 C 120.578125 123.148438 115.867188 130.898438 110.59375 140.007812 L 140.3125 140.007812 "/>
</g>
</svg>
