<?xml version="1.0" encoding="UTF-8"?>
<svg xmlns="http://www.w3.org/2000/svg" xmlns:xlink="http://www.w3.org/1999/xlink" width="512pt" height="512pt" viewBox="0 0 512 512" version="1.1">
<g id="surface1">
<path style=" stroke:#3B3434;fill-rule:nonzero;fill:rgb(80%,80%,80%);fill-opacity:1;" d="M 309.886719 42.441406 C 287.164062 42.441406 268.445312 63.34375 264.726562 90.976562 L 444.589844 90.976562 C 440.871094 63.34375 422.167969 42.441406 399.449219 42.441406 Z M 309.886719 42.441406 "/>
<path style=" stroke:none;fill-rule:nonzero;fill:#FF5555;fill-opacity:1;" d="M 65.9375 98.757812 L 446.058594 98.757812 C 476.125 98.757812 500.5 123.191406 500.5 153.332031 L 500.5 344.828125 C 500.5 374.96875 476.125 399.402344 446.058594 399.402344 L 65.9375 399.402344 C 35.875 399.402344 11.5 374.96875 11.5 344.828125 L 11.5 153.332031 C 11.5 123.191406 35.875 98.757812 65.9375 98.757812 Z M 65.9375 98.757812 "/>
<path style=" stroke:none;fill-rule:nonzero;fill:#FF5555;fill-opacity:1;" d="M 65.9375 168.910156 L 446.058594 168.910156 C 476.125 168.910156 500.5 193.347656 500.5 223.488281 L 500.5 414.980469 C 500.5 445.121094 476.125 469.558594 446.058594 469.558594 L 65.9375 469.558594 C 35.875 469.558594 11.5 445.121094 11.5 414.980469 L 11.5 223.488281 C 11.5 193.347656 35.875 168.910156 65.9375 168.910156 Z M 65.9375 168.910156 "/>
<path style=" stroke:none;fill-rule:nonzero;fill:rgb(100%,100%,100%);fill-opacity:1;" d="M 328.0625 168.171875 L 328.03125 168.199219 L 138.332031 168.199219 L 138.332031 361.082031 L 138.527344 361.082031 L 138.511719 361.09375 L 183.863281 402.703125 L 183.863281 404.050781 L 373.5625 404.050781 L 373.5625 211.242188 L 373.667969 211.125 L 328.0625 168.167969 Z M 149.863281 175.511719 L 320.839844 175.511719 L 320.839844 211.183594 L 188.199219 211.183594 Z M 328.03125 176.238281 L 365.109375 211.183594 L 328.03125 211.183594 Z M 145.527344 179.285156 L 183.863281 214.957031 L 183.863281 353.753906 L 145.527344 353.753906 Z M 191.425781 218.882812 L 320.839844 218.882812 L 320.839844 353.753906 L 191.425781 353.753906 Z M 328.03125 218.882812 L 365.984375 218.882812 L 365.984375 392.625 L 328.03125 354.96875 Z M 146.992188 361.082031 L 183.863281 361.082031 L 183.863281 394.875 Z M 191.425781 361.082031 L 326.050781 361.082031 L 361.617188 396.367188 L 191.425781 396.367188 Z M 191.425781 361.082031 "/>
<path style=" stroke:none;fill-rule:nonzero;fill:rgb(100%,100%,100%);fill-opacity:1;" d="M 230.425781 277.730469 C 230.425781 285.546875 224.089844 291.882812 216.273438 291.882812 C 208.457031 291.882812 202.121094 285.546875 202.121094 277.730469 C 202.121094 269.914062 208.457031 263.578125 216.273438 263.578125 C 224.089844 263.578125 230.425781 269.914062 230.425781 277.730469 Z M 230.425781 277.730469 "/>
<path style=" stroke:none;fill-rule:nonzero;fill:rgb(100%,100%,100%);fill-opacity:1;" d="M 272.886719 277.730469 C 272.886719 285.546875 266.546875 291.882812 258.730469 291.882812 C 250.914062 291.882812 244.578125 285.546875 244.578125 277.730469 C 244.578125 269.914062 250.914062 263.578125 258.730469 263.578125 C 266.546875 263.578125 272.886719 269.914062 272.886719 277.730469 Z M 272.886719 277.730469 "/>
<path style=" stroke:none;fill-rule:nonzero;fill:rgb(100%,100%,100%);fill-opacity:1;" d="M 315.34375 277.730469 C 315.34375 285.546875 309.007812 291.882812 301.191406 291.882812 C 293.375 291.882812 287.039062 285.546875 287.039062 277.730469 C 287.039062 269.914062 293.375 263.578125 301.191406 263.578125 C 309.007812 263.578125 315.34375 269.914062 315.34375 277.730469 Z M 315.34375 277.730469 "/>
</g>
</svg>
