
<svg xmlns="http://www.w3.org/2000/svg" xmlns:xlink="http://www.w3.org/1999/xlink" width="256px" height="256px" viewBox="0 0 256 256" version="1.1">
<g id="surface1">
<path style=" stroke:none;fill-rule:nonzero;fill:rgb(55.686275%,26.666667%,67.843137%);fill-opacity:1;" d="M 68.625 13.824219 C 51.335938 13.824219 37.417969 27.742188 37.417969 45.03125 L 37.417969 210.96875 C 37.417969 228.257812 51.335938 242.175781 68.625 242.175781 L 187.375 242.175781 C 204.664062 242.175781 218.582031 228.257812 218.582031 210.96875 L 218.582031 50.832031 L 132.480469 13.824219 Z M 190.574219 13.980469 C 192.675781 14.191406 194.71875 14.613281 196.675781 15.21875 C 194.71875 14.613281 192.675781 14.191406 190.574219 13.980469 Z M 196.675781 15.21875 C 199.613281 16.128906 202.355469 17.457031 204.84375 19.136719 C 202.355469 17.457031 199.613281 16.128906 196.675781 15.21875 Z M 207.25 20.925781 C 208.019531 21.5625 208.753906 22.242188 209.457031 22.949219 C 208.75 22.242188 208.023438 21.5625 207.25 20.925781 Z M 207.25 20.925781 "/>
<path style=" stroke:none;fill-rule:nonzero;fill:rgb(100%,100%,100%);fill-opacity:0.682353;" d="M 218.582031 50.832031 L 132.480469 13.824219 L 132.480469 19.625 C 132.480469 36.914062 146.398438 50.832031 163.6875 50.832031 Z M 218.582031 50.832031 "/>
<path style=" stroke:none;fill-rule:nonzero;fill:rgb(100%,100%,100%);fill-opacity:1;" d="M 143.457031 100.175781 L 153.761719 100.175781 C 169.222656 100.175781 169.222656 116.074219 169.222656 116.074219 L 169.222656 131.808594 C 169.222656 137.109375 158.917969 147.875 158.917969 147.875 L 158.917969 153.175781 L 174.378906 163.777344 L 174.378906 174.378906 L 117.695312 174.378906 L 117.695312 163.777344 L 138.308594 153.179688 L 138.308594 147.878906 C 138.308594 147.878906 127.96875 137.113281 128 131.8125 L 128 116.078125 C 128 116.078125 128 100.175781 143.457031 100.175781 Z M 107.386719 110.773438 L 117.691406 110.773438 L 117.691406 131.808594 C 117.695312 137.105469 128 147.875 128 147.875 L 107.390625 158.476562 L 107.390625 169.074219 L 81.625 168.914062 L 81.625 163.613281 L 102.234375 153.175781 L 102.234375 147.878906 C 102.234375 147.878906 91.894531 137.109375 91.929688 131.8125 L 91.929688 126.675781 C 91.929688 110.777344 107.386719 110.777344 107.386719 110.777344 Z M 107.386719 110.773438 "/>
</g>
</svg>
