
<svg xmlns="http://www.w3.org/2000/svg" xmlns:xlink="http://www.w3.org/1999/xlink" width="256px" height="256px" viewBox="0 0 256 256" version="1.1">
<g id="surface1">
<path style=" stroke:none;fill-rule:nonzero;fill:rgb(5.882353%,63.137255%,37.254902%);fill-opacity:1;" d="M 68.625 13.824219 C 51.335938 13.824219 37.417969 27.742188 37.417969 45.03125 L 37.417969 210.96875 C 37.417969 228.257812 51.335938 242.175781 68.625 242.175781 L 187.375 242.175781 C 204.664062 242.175781 218.582031 228.257812 218.582031 210.96875 L 218.582031 50.832031 L 132.480469 13.824219 Z M 190.574219 13.980469 C 192.675781 14.191406 194.71875 14.613281 196.675781 15.21875 C 194.71875 14.613281 192.675781 14.191406 190.574219 13.980469 Z M 196.675781 15.21875 C 199.613281 16.128906 202.355469 17.457031 204.84375 19.136719 C 202.355469 17.457031 199.613281 16.128906 196.675781 15.21875 Z M 207.25 20.925781 C 208.019531 21.5625 208.753906 22.242188 209.457031 22.949219 C 208.75 22.242188 208.023438 21.5625 207.25 20.925781 Z M 207.25 20.925781 "/>
<path style=" stroke:none;fill-rule:nonzero;fill:rgb(100%,100%,100%);fill-opacity:0.682353;" d="M 218.582031 50.832031 L 132.480469 13.824219 L 132.480469 19.625 C 132.480469 36.914062 146.398438 50.832031 163.6875 50.832031 Z M 218.582031 50.832031 "/>
<path style=" stroke:none;fill-rule:evenodd;fill:rgb(100%,100%,100%);fill-opacity:1;" d="M 127.980469 71.769531 L 127.980469 71.8125 L 96.082031 103.699219 L 117.15625 103.699219 L 117.15625 152.300781 L 96.082031 152.300781 L 127.980469 184.1875 L 127.980469 184.230469 L 128 184.207031 L 128.019531 184.230469 L 128.019531 184.1875 L 159.917969 152.300781 L 138.84375 152.300781 L 138.84375 103.699219 L 159.917969 103.699219 L 128.019531 71.8125 L 128.019531 71.769531 L 128 71.792969 Z M 127.980469 71.769531 "/>
</g>
</svg>
