
<svg xmlns="http://www.w3.org/2000/svg" xmlns:xlink="http://www.w3.org/1999/xlink" width="256px" height="256px" viewBox="0 0 256 256" version="1.1">
<g id="surface1">
<path style=" stroke:none;fill-rule:nonzero;fill:rgb(92.54902%,91.372549%,84.705882%);fill-opacity:1;" d="M 68.625 13.824219 C 51.335938 13.824219 37.417969 27.742188 37.417969 45.03125 L 37.417969 210.96875 C 37.417969 228.257812 51.335938 242.175781 68.625 242.175781 L 187.375 242.175781 C 204.664062 242.175781 218.582031 228.257812 218.582031 210.96875 L 218.582031 50.832031 L 132.480469 13.824219 Z M 190.574219 13.980469 C 192.675781 14.191406 194.71875 14.613281 196.675781 15.21875 C 194.71875 14.613281 192.675781 14.191406 190.574219 13.980469 Z M 196.675781 15.21875 C 199.613281 16.128906 202.355469 17.457031 204.84375 19.136719 C 202.355469 17.457031 199.613281 16.128906 196.675781 15.21875 Z M 207.25 20.925781 C 208.019531 21.5625 208.753906 22.242188 209.457031 22.949219 C 208.75 22.242188 208.023438 21.5625 207.25 20.925781 Z M 207.25 20.925781 "/>
<path style=" stroke:none;fill-rule:nonzero;fill:rgb(100%,100%,100%);fill-opacity:0.682353;" d="M 218.582031 50.832031 L 132.480469 13.824219 L 132.480469 19.625 C 132.480469 36.914062 146.398438 50.832031 163.6875 50.832031 Z M 218.582031 50.832031 "/>
<path style=" stroke:none;fill-rule:nonzero;fill:rgb(0%,0%,0%);fill-opacity:0.352941;" d="M 100.175781 104.8125 L 100.175781 109.449219 L 174.375 109.449219 L 174.375 104.8125 Z M 100.175781 104.8125 "/>
<path style=" stroke:none;fill-rule:nonzero;fill:rgb(0%,0%,0%);fill-opacity:0.352941;" d="M 100.175781 118.726562 L 100.175781 123.363281 L 174.375 123.363281 L 174.375 118.726562 Z M 100.175781 118.726562 "/>
<path style=" stroke:none;fill-rule:nonzero;fill:rgb(0%,0%,0%);fill-opacity:0.352941;" d="M 100.175781 132.636719 L 100.175781 137.273438 L 174.375 137.273438 L 174.375 132.636719 Z M 100.175781 132.636719 "/>
<path style=" stroke:none;fill-rule:nonzero;fill:rgb(0%,0%,0%);fill-opacity:0.352941;" d="M 100.175781 146.550781 L 100.175781 151.1875 L 174.375 151.1875 L 174.375 146.550781 Z M 100.175781 146.550781 "/>
<path style=" stroke:none;fill-rule:nonzero;fill:rgb(0%,0%,0%);fill-opacity:0.352941;" d="M 100.175781 160.464844 L 100.175781 165.101562 L 174.375 165.101562 L 174.375 160.464844 Z M 100.175781 160.464844 "/>
<path style=" stroke:none;fill-rule:nonzero;fill:rgb(0%,0%,0%);fill-opacity:0.352941;" d="M 100.175781 174.375 L 100.175781 179.015625 L 174.375 179.015625 L 174.375 174.375 Z M 100.175781 174.375 "/>
<path style=" stroke:none;fill-rule:nonzero;fill:rgb(0%,0%,0%);fill-opacity:0.352941;" d="M 90.898438 107.128906 C 90.898438 109.691406 88.820312 111.769531 86.261719 111.769531 C 83.699219 111.769531 81.625 109.691406 81.625 107.128906 C 81.625 104.570312 83.699219 102.492188 86.261719 102.492188 C 88.820312 102.492188 90.898438 104.570312 90.898438 107.128906 Z M 90.898438 107.128906 "/>
<path style=" stroke:none;fill-rule:nonzero;fill:rgb(0%,0%,0%);fill-opacity:0.352941;" d="M 90.898438 121.042969 C 90.898438 123.605469 88.820312 125.679688 86.261719 125.679688 C 83.699219 125.679688 81.625 123.605469 81.625 121.042969 C 81.625 118.480469 83.699219 116.40625 86.261719 116.40625 C 88.820312 116.40625 90.898438 118.480469 90.898438 121.042969 Z M 90.898438 121.042969 "/>
<path style=" stroke:none;fill-rule:nonzero;fill:rgb(0%,0%,0%);fill-opacity:0.352941;" d="M 90.898438 134.957031 C 90.898438 137.519531 88.820312 139.59375 86.261719 139.59375 C 83.699219 139.59375 81.625 137.519531 81.625 134.957031 C 81.625 132.394531 83.699219 130.320312 86.261719 130.320312 C 88.820312 130.320312 90.898438 132.394531 90.898438 134.957031 Z M 90.898438 134.957031 "/>
<path style=" stroke:none;fill-rule:nonzero;fill:rgb(0%,0%,0%);fill-opacity:0.352941;" d="M 90.898438 148.871094 C 90.898438 151.429688 88.820312 153.507812 86.261719 153.507812 C 83.699219 153.507812 81.625 151.429688 81.625 148.871094 C 81.625 146.308594 83.699219 144.230469 86.261719 144.230469 C 88.820312 144.230469 90.898438 146.308594 90.898438 148.871094 Z M 90.898438 148.871094 "/>
<path style=" stroke:none;fill-rule:nonzero;fill:rgb(0%,0%,0%);fill-opacity:0.352941;" d="M 90.898438 162.78125 C 90.898438 165.34375 88.820312 167.421875 86.261719 167.421875 C 83.699219 167.421875 81.625 165.34375 81.625 162.78125 C 81.625 160.222656 83.699219 158.144531 86.261719 158.144531 C 88.820312 158.144531 90.898438 160.222656 90.898438 162.78125 Z M 90.898438 162.78125 "/>
<path style=" stroke:none;fill-rule:nonzero;fill:rgb(0%,0%,0%);fill-opacity:0.352941;" d="M 90.898438 176.695312 C 90.898438 179.257812 88.820312 181.332031 86.261719 181.332031 C 83.699219 181.332031 81.625 179.257812 81.625 176.695312 C 81.625 174.132812 83.699219 172.058594 86.261719 172.058594 C 88.820312 172.058594 90.898438 174.132812 90.898438 176.695312 Z M 90.898438 176.695312 "/>
</g>
</svg>
