
<svg xmlns="http://www.w3.org/2000/svg" xmlns:xlink="http://www.w3.org/1999/xlink" width="96px" height="96px" viewBox="0 0 96 96" version="1.1">
<g id="surface1">
<path style="fill-rule:nonzero;fill:rgb(100%,100%,100%);fill-opacity:1;stroke-width:28.191782;stroke-linecap:butt;stroke-linejoin:miter;stroke:rgb(20%,20%,20%);stroke-opacity:1;stroke-miterlimit:4;" d="M 81.479167 25.104167 L 430.520833 25.104167 C 461.666667 25.104167 486.895833 50.333333 486.895833 81.479167 L 486.895833 430.520833 C 486.895833 461.666667 461.666667 486.895833 430.520833 486.895833 L 81.479167 486.895833 C 50.333333 486.895833 25.104167 461.666667 25.104167 430.520833 L 25.104167 81.479167 C 25.104167 50.333333 50.333333 25.104167 81.479167 25.104167 Z M 81.479167 25.104167 " transform="matrix(0.1875,0,0,0.1875,0,0)"/>
<path style=" stroke:none;fill-rule:nonzero;fill:rgb(20%,20%,20%);fill-opacity:1;" d="M 37.847656 36.519531 C 41.253906 34.585938 44.640625 32.609375 48.039062 30.660156 C 51.457031 32.609375 54.863281 34.585938 58.285156 36.527344 C 54.863281 38.484375 51.453125 40.445312 48.039062 42.40625 C 44.648438 40.433594 41.230469 38.5 37.847656 36.519531 Z M 23.046875 33.636719 C 23.054688 35.589844 23.046875 37.550781 23.046875 39.507812 C 31.386719 44.261719 39.699219 49.054688 48.039062 53.796875 C 53.0625 50.898438 58.085938 47.992188 63.101562 45.085938 C 63.121094 48.925781 63.078125 52.761719 63.125 56.601562 C 58.128906 59.574219 53.050781 62.402344 48.039062 65.347656 C 43.015625 62.425781 37.964844 59.542969 32.929688 56.636719 C 29.601562 58.519531 26.28125 60.414062 22.960938 62.308594 C 31.289062 67.171875 39.6875 71.914062 48.039062 76.738281 C 56.371094 71.957031 64.722656 67.21875 73.039062 62.40625 C 73.019531 52.8125 73.023438 43.21875 73.035156 33.621094 C 64.714844 28.820312 56.375 24.046875 48.042969 19.261719 C 39.707031 24.042969 31.375 28.835938 23.046875 33.636719 Z M 23.046875 33.636719 "/>
</g>
</svg>
