
<svg xmlns="http://www.w3.org/2000/svg" xmlns:xlink="http://www.w3.org/1999/xlink" width="96px" height="96px" viewBox="0 0 96 96" version="1.1">
<g id="surface1">
<path style="fill-rule:nonzero;fill:rgb(17.254902%,24.313725%,31.372549%);fill-opacity:1;stroke-width:7.207702;stroke-linecap:butt;stroke-linejoin:miter;stroke:rgb(20.392157%,59.607843%,85.882353%);stroke-opacity:1;stroke-miterlimit:4;" d="M 19.380208 4.963542 L 108.619792 4.963542 C 116.578125 4.963542 123.036458 11.421875 123.036458 19.380208 L 123.036458 108.619792 C 123.036458 116.578125 116.578125 123.036458 108.619792 123.036458 L 19.380208 123.036458 C 11.421875 123.036458 4.963542 116.578125 4.963542 108.619792 L 4.963542 19.380208 C 4.963542 11.421875 11.421875 4.963542 19.380208 4.963542 Z M 19.380208 4.963542 " transform="matrix(0.75,0,0,0.75,0,0)"/>
<path style=" stroke:none;fill-rule:nonzero;fill:rgb(20.392157%,59.607843%,85.882353%);fill-opacity:1;" d="M 5.546875 4.570312 L 21.476562 4.570312 L 21.476562 90.410156 L 5.546875 90.410156 Z M 5.546875 4.570312 "/>
<path style=" stroke:none;fill-rule:nonzero;fill:rgb(92.54902%,94.117647%,94.509804%);fill-opacity:1;" d="M 55.648438 27.011719 C 44.300781 27.011719 35.167969 36.144531 35.167969 47.492188 C 35.167969 47.617188 35.183594 47.738281 35.1875 47.863281 C 35.183594 48.003906 35.167969 48.140625 35.167969 48.28125 C 35.167969 50.128906 35.496094 51.890625 36.070312 53.535156 C 38.636719 61.910156 46.410156 67.972656 55.648438 67.972656 C 66.992188 67.972656 76.125 58.835938 76.125 47.492188 C 76.125 36.144531 66.992188 27.011719 55.648438 27.011719 Z M 55.648438 31.5625 C 64.472656 31.5625 71.574219 38.667969 71.574219 47.492188 C 71.574219 56.246094 64.578125 63.300781 55.851562 63.410156 C 61.242188 61.707031 65.375 57.230469 66.566406 51.628906 C 63.660156 54.980469 59.375 57.105469 54.570312 57.105469 C 47.777344 57.105469 42.023438 52.871094 39.75 46.890625 C 40.066406 38.351562 47.027344 31.5625 55.648438 31.5625 Z M 55.648438 31.5625 "/>
</g>
</svg>
