
<svg xmlns="http://www.w3.org/2000/svg" xmlns:xlink="http://www.w3.org/1999/xlink" width="96px" height="96px" viewBox="0 0 96 96" version="1.1">
<g id="surface1">
<path style="fill-rule:nonzero;fill:rgb(80%,80%,80%);fill-opacity:1;stroke-width:28.191782;stroke-linecap:butt;stroke-linejoin:miter;stroke:rgb(6.27451%,45.490196%,63.137255%);stroke-opacity:1;stroke-miterlimit:4;" d="M 85.481804 29.093436 L 434.518399 29.093436 C 465.664244 29.093436 490.906767 54.335959 490.906767 85.481804 L 490.906767 434.518399 C 490.906767 465.664244 465.664244 490.906767 434.518399 490.906767 L 85.481804 490.906767 C 54.335959 490.906767 29.093436 465.664244 29.093436 434.518399 L 29.093436 85.481804 C 29.093436 54.335959 54.335959 29.093436 85.481804 29.093436 Z M 85.481804 29.093436 " transform="matrix(0.184615,0,0,0.184615,0,0)"/>
<path style=" stroke:none;fill-rule:nonzero;fill:rgb(8.627451%,43.529412%,65.882353%);fill-opacity:1;" d="M 17.457031 88.738281 C 17.398438 88.640625 18.101562 86.617188 18.246094 84.421875 C 18.554688 79.820312 18.167969 75.644531 17.910156 74.320312 C 17.355469 71.453125 15.726562 69.867188 8.371094 64.847656 C 7.351562 64.152344 6.300781 63.632812 6.230469 63.527344 C 6.160156 63.421875 6.140625 59.417969 6.152344 59.1875 L 6.21875 55.105469 L 6.804688 54.867188 C 7.046875 54.769531 9.078125 54.375 11.320312 53.796875 C 18.207031 52.023438 19.898438 51.226562 21.492188 49.824219 C 23.042969 48.453125 23.898438 46.503906 26.058594 39.339844 C 26.84375 36.742188 27.871094 33.644531 28.257812 32.667969 C 28.964844 30.902344 29.996094 28.980469 30.515625 29.210938 C 30.832031 29.347656 32.027344 29.320312 34.046875 32.648438 C 34.527344 33.445312 36.113281 35.683594 37.5 37.851562 C 41.523438 44.152344 42.898438 45.699219 44.621094 46.621094 C 46.546875 47.648438 46.117188 47.582031 55.039062 47.617188 C 64.820312 47.652344 67.234375 47.898438 67.234375 48.882812 C 67.234375 50.078125 65.121094 53.207031 59.828125 59.59375 C 57.496094 62.410156 55.847656 64.523438 55.140625 65.992188 C 54.601562 67.101562 54.566406 67.144531 54.570312 68.929688 C 54.570312 70.308594 55.191406 71.886719 57.757812 79.378906 C 59.738281 85.164062 60.390625 88.070312 60.035156 88.609375 C 59.871094 88.863281 58.339844 88.71875 56.382812 88.746094 L 54.519531 88.773438 L 53.351562 88.351562 L 49.097656 86.828125 C 41.957031 84.265625 41.136719 83.769531 38.855469 83.742188 C 37.226562 83.726562 37.042969 83.800781 35.964844 84.304688 C 34.574219 84.949219 32.453125 86.847656 30.421875 88.226562 L 29.617188 88.773438 L 23.507812 88.785156 C 20.097656 88.789062 17.527344 88.847656 17.457031 88.738281 Z M 72.804688 30.957031 C 70.082031 27.25 69.316406 27.339844 64.941406 27.804688 C 63.898438 27.917969 62.992188 27.613281 62.929688 27.546875 C 62.863281 27.484375 63.707031 26.191406 64.386719 25.21875 C 66.792969 21.789062 66.738281 21.617188 65.375 18.300781 C 64.605469 16.4375 64.351562 15.589844 64.480469 15.472656 C 64.644531 15.320312 66.015625 15.660156 67.175781 16 C 70.859375 17.085938 71.1875 17.035156 74.101562 14.535156 C 74.988281 13.773438 76.082031 12.898438 76.398438 12.910156 C 76.546875 12.917969 76.675781 14.097656 76.742188 15.933594 C 76.882812 19.625 77.203125 19.816406 80.679688 21.84375 C 81.691406 22.4375 82.484375 23.144531 82.484375 23.253906 C 82.484375 23.359375 81.488281 23.898438 80.691406 24.167969 C 76.28125 25.652344 76.089844 25.882812 75.140625 29.8125 C 74.863281 30.957031 74.503906 32.199219 74.40625 32.28125 C 74.179688 32.484375 73.425781 31.804688 72.804688 30.957031 Z M 72.804688 30.957031 "/>
</g>
</svg>
