
<svg xmlns="http://www.w3.org/2000/svg" xmlns:xlink="http://www.w3.org/1999/xlink" width="96px" height="96px" viewBox="0 0 96 96" version="1.1">
<g id="surface1">
<path style="fill-rule:nonzero;fill:rgb(16.862745%,23.529412%,30.588235%);fill-opacity:1;stroke-width:2.541277;stroke-linecap:butt;stroke-linejoin:miter;stroke:rgb(16.862745%,65.882353%,92.156863%);stroke-opacity:1;stroke-miterlimit:4;" d="M 188.504182 692.998025 L 219.969025 692.998025 C 222.775666 692.998025 225.051056 695.273416 225.051056 698.080056 L 225.051056 729.544899 C 225.051056 732.35154 222.775666 734.62693 219.969025 734.62693 L 188.504182 734.62693 C 185.697542 734.62693 183.422151 732.35154 183.422151 729.544899 L 183.422151 698.080056 C 183.422151 695.273416 185.697542 692.998025 188.504182 692.998025 Z M 188.504182 692.998025 " transform="matrix(2,0,0,2,-360.47322,-1379.625)"/>
<path style=" stroke:none;fill-rule:nonzero;fill:rgb(92.54902%,94.117647%,94.509804%);fill-opacity:1;" d="M 61.125 62 L 61.125 87.476562 L 87.140625 62 Z M 61.125 62 "/>
<path style=" stroke:none;fill-rule:evenodd;fill:rgb(100%,50.196078%,50.196078%);fill-opacity:1;" d="M 23.5 24.933594 L 24.996094 23.4375 L 28.261719 26.703125 L 26.765625 28.199219 Z M 23.5 24.933594 "/>
<path style=" stroke:none;fill-rule:nonzero;fill:rgb(17.254902%,24.313725%,31.372549%);fill-opacity:1;" d="M 16.363281 15.242188 L 37.511719 15.242188 L 37.511719 36.390625 L 16.363281 36.390625 Z M 16.363281 15.242188 "/>
<path style=" stroke:none;fill-rule:evenodd;fill:rgb(18.039216%,80%,44.313725%);fill-opacity:1;" d="M 25.878906 17.886719 C 23.800781 17.886719 21.738281 18.742188 20.273438 20.210938 C 18.804688 21.679688 17.949219 23.742188 17.949219 25.820312 C 17.949219 27.894531 18.804688 29.957031 20.273438 31.425781 C 21.738281 32.894531 23.800781 33.75 25.878906 33.75 C 27.953125 33.75 30.019531 32.894531 31.488281 31.425781 C 32.957031 29.957031 33.8125 27.894531 33.8125 25.820312 L 31.695312 25.820312 C 31.695312 27.339844 31.070312 28.855469 29.992188 29.929688 C 28.914062 31.007812 27.402344 31.632812 25.878906 31.632812 C 24.355469 31.632812 22.84375 31.007812 21.765625 29.929688 C 20.691406 28.855469 20.066406 27.339844 20.066406 25.820312 C 20.066406 24.296875 20.691406 22.78125 21.765625 21.707031 C 22.84375 20.628906 24.355469 20.003906 25.878906 20.003906 C 25.878906 20.003906 25.878906 20.003906 25.882812 20.003906 L 25.882812 17.886719 C 25.878906 17.886719 25.878906 17.886719 25.878906 17.886719 Z M 25.878906 17.886719 "/>
<path style=" stroke:none;fill-rule:evenodd;fill:rgb(92.54902%,94.117647%,94.509804%);fill-opacity:1;" d="M 34.429688 17.886719 L 26.9375 25.378906 L 24.996094 23.4375 L 23.5 24.933594 L 25.445312 26.875 L 26.765625 28.199219 L 26.9375 28.371094 L 35.925781 19.382812 Z M 34.429688 17.886719 "/>
<path style=" stroke:none;fill-rule:evenodd;fill:rgb(100%,50.196078%,50.196078%);fill-opacity:1;" d="M 23.5 67.230469 L 24.996094 65.734375 L 28.261719 69 L 26.765625 70.492188 Z M 23.5 67.230469 "/>
<path style=" stroke:none;fill-rule:nonzero;fill:rgb(17.254902%,24.313725%,31.372549%);fill-opacity:1;" d="M 16.363281 57.539062 L 37.511719 57.539062 L 37.511719 78.6875 L 16.363281 78.6875 Z M 16.363281 57.539062 "/>
<path style=" stroke:none;fill-rule:evenodd;fill:rgb(18.039216%,80%,44.313725%);fill-opacity:1;" d="M 25.878906 60.183594 C 23.800781 60.183594 21.738281 61.039062 20.273438 62.507812 C 18.804688 63.976562 17.949219 66.039062 17.949219 68.113281 C 17.949219 70.191406 18.804688 72.253906 20.273438 73.722656 C 21.738281 75.191406 23.800781 76.046875 25.878906 76.046875 C 27.953125 76.046875 30.019531 75.191406 31.488281 73.722656 C 32.957031 72.253906 33.8125 70.191406 33.8125 68.113281 L 31.695312 68.113281 C 31.695312 69.636719 31.070312 71.152344 29.992188 72.226562 C 28.914062 73.304688 27.402344 73.929688 25.878906 73.929688 C 24.355469 73.929688 22.84375 73.304688 21.765625 72.226562 C 20.691406 71.148438 20.066406 69.636719 20.066406 68.113281 C 20.066406 66.59375 20.691406 65.078125 21.765625 64.003906 C 22.84375 62.925781 24.355469 62.300781 25.878906 62.300781 C 25.878906 62.300781 25.878906 62.300781 25.882812 62.300781 L 25.882812 60.183594 C 25.878906 60.183594 25.878906 60.183594 25.878906 60.183594 Z M 25.878906 60.183594 "/>
<path style=" stroke:none;fill-rule:evenodd;fill:rgb(92.54902%,94.117647%,94.509804%);fill-opacity:1;" d="M 34.429688 60.183594 L 26.9375 67.675781 L 24.996094 65.734375 L 23.5 67.230469 L 25.445312 69.171875 L 26.765625 70.492188 L 26.9375 70.667969 L 35.925781 61.679688 Z M 34.429688 60.183594 "/>
<path style=" stroke:none;fill-rule:evenodd;fill:rgb(100%,50.196078%,50.196078%);fill-opacity:1;" d="M 23.5 46.082031 L 24.996094 44.585938 L 28.261719 47.851562 L 26.765625 49.34375 Z M 23.5 46.082031 "/>
<path style=" stroke:none;fill-rule:nonzero;fill:rgb(17.254902%,24.313725%,31.372549%);fill-opacity:1;" d="M 16.363281 36.390625 L 37.511719 36.390625 L 37.511719 57.539062 L 16.363281 57.539062 Z M 16.363281 36.390625 "/>
<path style=" stroke:none;fill-rule:evenodd;fill:rgb(18.039216%,80%,44.313725%);fill-opacity:1;" d="M 25.878906 39.035156 C 23.800781 39.035156 21.738281 39.890625 20.273438 41.359375 C 18.804688 42.828125 17.949219 44.890625 17.949219 46.964844 C 17.949219 49.042969 18.804688 51.105469 20.273438 52.574219 C 21.738281 54.042969 23.800781 54.898438 25.878906 54.898438 C 27.953125 54.898438 30.019531 54.042969 31.488281 52.574219 C 32.957031 51.105469 33.8125 49.042969 33.8125 46.964844 L 31.695312 46.964844 C 31.695312 48.488281 31.070312 50.003906 29.992188 51.078125 C 28.914062 52.15625 27.402344 52.78125 25.878906 52.78125 C 24.355469 52.78125 22.84375 52.15625 21.765625 51.078125 C 20.691406 50 20.066406 48.488281 20.066406 46.964844 C 20.066406 45.445312 20.691406 43.929688 21.765625 42.855469 C 22.84375 41.777344 24.355469 41.152344 25.878906 41.152344 C 25.878906 41.152344 25.878906 41.148438 25.882812 41.152344 L 25.882812 39.035156 C 25.878906 39.035156 25.878906 39.035156 25.878906 39.035156 Z M 25.878906 39.035156 "/>
<path style=" stroke:none;fill-rule:evenodd;fill:rgb(92.54902%,94.117647%,94.509804%);fill-opacity:1;" d="M 34.429688 39.035156 L 26.9375 46.527344 L 24.996094 44.585938 L 23.5 46.082031 L 26.9375 49.519531 L 35.925781 40.53125 Z M 34.429688 39.035156 "/>
<path style=" stroke:none;fill-rule:nonzero;fill:rgb(100%,100%,100%);fill-opacity:1;" d="M 85.160156 84.089844 C 85.476562 83.597656 86.195312 83.035156 86.394531 82.289062 C 86.550781 81.707031 86.738281 81.089844 86.867188 80.421875 C 87.421875 77.507812 87.136719 73.625 87.117188 70.410156 C 87.085938 65.648438 86.988281 61.726562 87.140625 61.609375 L 61.125 87.089844 C 62.261719 86.835938 68.507812 87.183594 74.507812 87.03125 C 76.992188 86.96875 79.492188 87.164062 81.492188 86.664062 C 83.089844 86.265625 84.355469 85.347656 85.160156 84.089844 Z M 85.160156 84.089844 "/>
</g>
</svg>
