
<svg xmlns="http://www.w3.org/2000/svg" xmlns:xlink="http://www.w3.org/1999/xlink" width="96px" height="96px" viewBox="0 0 96 96" version="1.1">
<g id="surface1">
<path style="fill-rule:nonzero;fill:rgb(92.54902%,92.54902%,92.54902%);fill-opacity:1;stroke-width:2.67719;stroke-linecap:butt;stroke-linejoin:miter;stroke:rgb(43.921569%,5.490196%,38.823529%);stroke-opacity:1;stroke-miterlimit:4;" d="M 391.999152 501.87025 L 425.145635 501.87025 C 428.102667 501.87025 430.499151 504.266734 430.499151 507.225719 L 430.499151 540.372202 C 430.499151 543.329233 428.102667 545.725717 425.145635 545.725717 L 391.999152 545.725717 C 389.042121 545.725717 386.643684 543.329233 386.643684 540.372202 L 386.643684 507.225719 C 386.643684 504.266734 389.042121 501.87025 391.999152 501.87025 Z M 391.999152 501.87025 " transform="matrix(2,0,0,2,-769.14286,-999.596)"/>
<path style=" stroke:none;fill-rule:nonzero;fill:rgb(61.568627%,22.352941%,43.529412%);fill-opacity:1;" d="M 17.308594 10.066406 L 17.308594 51.722656 C 17.308594 56.769531 17.886719 61.335938 18.949219 65.507812 C 20.03125 69.597656 21.78125 73.199219 24.214844 76.230469 C 26.648438 79.269531 29.769531 81.570312 33.761719 83.28125 C 37.765625 84.894531 42.730469 85.683594 48.582031 85.683594 C 55.308594 85.683594 61.28125 85.410156 66.355469 84.566406 C 71.523438 83.703125 75.5625 82.753906 78.695312 82.003906 L 78.695312 10.054688 L 66.414062 10.054688 L 66.414062 72.425781 C 65.9375 72.625 63.730469 72.992188 62.566406 73.1875 C 61.484375 73.285156 60.324219 73.472656 58.941406 73.667969 C 57.578125 73.753906 56.21875 73.886719 54.671875 73.988281 C 53.113281 74.074219 51.53125 74.148438 50.054688 74.148438 C 43.136719 74.148438 38.171875 72.117188 35.246094 68.214844 C 32.320312 64.328125 29.570312 58.121094 29.570312 49.117188 L 29.570312 10.050781 M 17.304688 10.074219 "/>
</g>
</svg>
