
<svg xmlns="http://www.w3.org/2000/svg" xmlns:xlink="http://www.w3.org/1999/xlink" width="96px" height="96px" viewBox="0 0 96 96" version="1.1">
<g id="surface1">
<path style="fill-rule:nonzero;fill:rgb(100%,100%,100%);fill-opacity:1;stroke-width:6.815335;stroke-linecap:butt;stroke-linejoin:miter;stroke:rgb(29.019608%,68.235294%,90.980392%);stroke-opacity:1;stroke-miterlimit:4;" d="M 21.807292 932.539283 L 106.192708 932.539283 C 113.71875 932.539283 119.822917 938.64345 119.822917 946.169492 L 119.822917 1030.554908 C 119.822917 1038.08095 113.71875 1044.185117 106.192708 1044.185117 L 21.807292 1044.185117 C 14.28125 1044.185117 8.177083 1038.08095 8.177083 1030.554908 L 8.177083 946.169492 C 8.177083 938.64345 14.28125 932.539283 21.807292 932.539283 Z M 21.807292 932.539283 " transform="matrix(0.75,0,0,0.75,0,-693.27165)"/>
<path style=" stroke:none;fill-rule:nonzero;fill:rgb(0%,50.196078%,86.27451%);fill-opacity:1;" d="M 48.066406 13.144531 C 28.851562 13.144531 13.273438 28.71875 13.273438 47.933594 C 13.273438 67.148438 28.851562 82.726562 48.066406 82.726562 C 67.28125 82.726562 82.855469 67.148438 82.855469 47.933594 C 82.855469 28.71875 67.28125 13.144531 48.066406 13.144531 Z M 48.066406 44.195312 C 50.125 44.195312 51.804688 45.875 51.804688 47.933594 C 51.804688 49.992188 50.125 51.671875 48.066406 51.671875 C 46.007812 51.671875 44.328125 49.992188 44.328125 47.933594 C 44.328125 45.875 46.007812 44.195312 48.066406 44.195312 Z M 48.066406 44.195312 "/>
<path style=" stroke:none;fill-rule:nonzero;fill:rgb(18.823529%,66.27451%,100%);fill-opacity:1;" d="M 48.066406 14.230469 C 29.453125 14.230469 14.363281 29.320312 14.363281 47.933594 C 14.363281 66.546875 29.453125 81.636719 48.066406 81.636719 C 66.679688 81.636719 81.769531 66.546875 81.769531 47.933594 C 81.769531 29.320312 66.679688 14.230469 48.066406 14.230469 Z M 48.066406 44.195312 C 50.125 44.195312 51.804688 45.875 51.804688 47.933594 C 51.804688 49.992188 50.125 51.671875 48.066406 51.671875 C 46.007812 51.671875 44.328125 49.992188 44.328125 47.933594 C 44.328125 45.875 46.007812 44.195312 48.066406 44.195312 Z M 48.066406 44.195312 "/>
<path style=" stroke:none;fill-rule:nonzero;fill:rgb(41.960784%,75.686275%,100%);fill-opacity:1;" d="M 48.066406 15.929688 C 30.394531 15.929688 16.0625 30.265625 16.0625 47.933594 C 16.0625 65.605469 30.394531 79.9375 48.066406 79.9375 C 65.734375 79.9375 80.070312 65.605469 80.070312 47.933594 C 80.070312 30.265625 65.734375 15.929688 48.066406 15.929688 Z M 48.066406 44.195312 C 50.125 44.195312 51.804688 45.875 51.804688 47.933594 C 51.804688 49.992188 50.125 51.671875 48.066406 51.671875 C 46.007812 51.671875 44.328125 49.992188 44.328125 47.933594 C 44.328125 45.875 46.007812 44.195312 48.066406 44.195312 Z M 48.066406 44.195312 "/>
<path style="fill-rule:nonzero;fill:rgb(82.745098%,83.529412%,84.313725%);fill-opacity:1;stroke-width:0.763027;stroke-linecap:butt;stroke-linejoin:miter;stroke:rgb(100%,100%,100%);stroke-opacity:1;stroke-miterlimit:4;" d="M 64.088542 974.591367 C 56.536458 974.591367 50.40625 980.726783 50.40625 988.273658 C 50.40625 995.825742 56.536458 1001.95595 64.088542 1001.95595 C 71.635417 1001.95595 77.770833 995.825742 77.770833 988.273658 C 77.770833 980.726783 71.635417 974.591367 64.088542 974.591367 Z M 64.088542 983.289283 C 66.833333 983.289283 69.072917 985.528867 69.072917 988.273658 C 69.072917 991.01845 66.833333 993.258033 64.088542 993.258033 C 61.34375 993.258033 59.104167 991.01845 59.104167 988.273658 C 59.104167 985.528867 61.34375 983.289283 64.088542 983.289283 Z M 64.088542 983.289283 " transform="matrix(0.75,0,0,0.75,0,-693.27165)"/>
<path style=" stroke:none;fill-rule:nonzero;fill:rgb(87.843137%,87.843137%,88.627451%);fill-opacity:1;" d="M 48.066406 39.847656 C 43.605469 39.847656 39.980469 43.472656 39.980469 47.933594 C 39.980469 52.394531 43.605469 56.019531 48.066406 56.019531 C 52.527344 56.019531 56.152344 52.394531 56.152344 47.933594 C 56.152344 43.472656 52.527344 39.847656 48.066406 39.847656 Z M 48.066406 44.195312 C 50.125 44.195312 51.804688 45.875 51.804688 47.933594 C 51.804688 49.992188 50.125 51.671875 48.066406 51.671875 C 46.007812 51.671875 44.328125 49.992188 44.328125 47.933594 C 44.328125 45.875 46.007812 44.195312 48.066406 44.195312 Z M 48.066406 44.195312 "/>
</g>
</svg>
