
<svg xmlns="http://www.w3.org/2000/svg" xmlns:xlink="http://www.w3.org/1999/xlink" width="96px" height="96px" viewBox="0 0 96 96" version="1.1">
<g id="surface1">
<path style="fill-rule:nonzero;fill:rgb(20%,20%,20%);fill-opacity:1;stroke-width:28.191782;stroke-linecap:butt;stroke-linejoin:miter;stroke:rgb(85.098039%,83.921569%,83.921569%);stroke-opacity:1;stroke-miterlimit:4;" d="M 81.479167 25.591545 L 430.520833 25.591545 C 461.666667 25.591545 486.895833 50.849105 486.895833 81.972264 L 486.895833 431.027573 C 486.895833 462.150732 461.666667 487.408292 430.520833 487.408292 L 81.479167 487.408292 C 50.333333 487.408292 25.104167 462.150732 25.104167 431.027573 L 25.104167 81.972264 C 25.104167 50.849105 50.333333 25.591545 81.479167 25.591545 Z M 81.479167 25.591545 " transform="matrix(0.1875,0,0,0.187135,0,0)"/>
<path style=" stroke:none;fill-rule:nonzero;fill:rgb(100%,0%,0%);fill-opacity:0.760784;" d="M 41.816406 30.597656 C 40.027344 22.984375 38.511719 16.542969 38.441406 16.28125 C 38.375 16.015625 38.449219 15.804688 38.605469 15.804688 C 38.761719 15.804688 39.136719 16.445312 39.4375 17.234375 C 39.734375 18.023438 42.144531 24.175781 44.785156 30.914062 C 47.425781 37.648438 49.585938 43.1875 49.585938 43.21875 C 49.585938 43.25 48.992188 43.332031 48.269531 43.402344 C 47.546875 43.472656 46.542969 43.734375 46.042969 43.984375 C 45.539062 44.234375 45.117188 44.4375 45.097656 44.4375 C 45.078125 44.4375 43.601562 38.210938 41.816406 30.597656 Z M 41.816406 30.597656 "/>
<path style=" stroke:none;fill-rule:nonzero;fill:rgb(89.803922%,89.803922%,89.803922%);fill-opacity:1;" d="M 55.308594 48.777344 C 55.308594 52.289062 52.453125 55.140625 48.933594 55.140625 C 45.410156 55.140625 42.554688 52.289062 42.554688 48.777344 C 42.554688 45.261719 45.410156 42.414062 48.933594 42.414062 C 52.453125 42.414062 55.308594 45.261719 55.308594 48.777344 Z M 55.308594 48.777344 "/>
</g>
</svg>
