
<svg xmlns="http://www.w3.org/2000/svg" xmlns:xlink="http://www.w3.org/1999/xlink" width="96px" height="96px" viewBox="0 0 96 96" version="1.1">
<g id="surface1">
<path style="fill-rule:nonzero;fill:rgb(100%,100%,100%);fill-opacity:1;stroke-width:28.191782;stroke-linecap:butt;stroke-linejoin:miter;stroke:rgb(60.784314%,82.352941%,12.156863%);stroke-opacity:1;stroke-miterlimit:4;" d="M 81.479167 25.104167 L 430.520833 25.104167 C 461.666667 25.104167 486.895833 50.333333 486.895833 81.479167 L 486.895833 430.520833 C 486.895833 461.666667 461.666667 486.895833 430.520833 486.895833 L 81.479167 486.895833 C 50.333333 486.895833 25.104167 461.666667 25.104167 430.520833 L 25.104167 81.479167 C 25.104167 50.333333 50.333333 25.104167 81.479167 25.104167 Z M 81.479167 25.104167 " transform="matrix(0.1875,0,0,0.1875,0,0)"/>
<path style=" stroke:none;fill-rule:nonzero;fill:rgb(60.784314%,82.352941%,12.156863%);fill-opacity:1;" d="M 23.355469 16.578125 L 13.347656 33.5625 L 33.398438 33.5625 L 23.355469 16.578125 M 25.875 16.578125 L 35.882812 33.5625 L 45.886719 16.578125 L 25.875 16.578125 M 48.40625 16.578125 L 38.402344 33.5625 L 58.414062 33.5625 L 48.40625 16.578125 M 50.925781 16.578125 L 60.933594 33.5625 L 70.941406 16.578125 L 50.925781 16.578125 M 73.460938 16.578125 L 63.417969 33.5625 L 83.464844 33.5625 L 73.457031 16.578125 M 13.347656 36.164062 L 46.46875 80.773438 L 34.636719 36.164062 L 13.347656 36.164062 M 37.121094 36.164062 L 48.40625 80.773438 L 59.691406 36.164062 L 37.125 36.164062 M 62.175781 36.164062 L 50.34375 80.773438 L 83.464844 36.164062 L 62.175781 36.164062 "/>
</g>
</svg>
