
<svg xmlns="http://www.w3.org/2000/svg" xmlns:xlink="http://www.w3.org/1999/xlink" width="96px" height="96px" viewBox="0 0 96 96" version="1.1">
<defs>
<clipPath id="clip1">
  <path d="M 32.25 32.25 L 63.75 32.25 L 63.75 63.75 L 32.25 63.75 Z M 32.25 32.25 "/>
</clipPath>
<clipPath id="clip2">
  <path d="M 18.730469 9.273438 L 77.269531 9.273438 C 82.492188 9.273438 86.726562 13.507812 86.726562 18.730469 L 86.726562 77.269531 C 86.726562 82.492188 82.492188 86.726562 77.269531 86.726562 L 18.730469 86.726562 C 13.507812 86.726562 9.273438 82.492188 9.273438 77.269531 L 9.273438 18.730469 C 9.273438 13.507812 13.507812 9.273438 18.730469 9.273438 Z M 18.730469 9.273438 "/>
</clipPath>
<clipPath id="clip3">
  <path d="M 28.3125 28.3125 L 67.6875 28.3125 L 67.6875 67.6875 L 28.3125 67.6875 Z M 28.3125 28.3125 "/>
</clipPath>
<clipPath id="clip4">
  <path d="M 18.730469 9.273438 L 77.269531 9.273438 C 82.492188 9.273438 86.726562 13.507812 86.726562 18.730469 L 86.726562 77.269531 C 86.726562 82.492188 82.492188 86.726562 77.269531 86.726562 L 18.730469 86.726562 C 13.507812 86.726562 9.273438 82.492188 9.273438 77.269531 L 9.273438 18.730469 C 9.273438 13.507812 13.507812 9.273438 18.730469 9.273438 Z M 18.730469 9.273438 "/>
</clipPath>
<clipPath id="clip5">
  <path d="M 32.25 32.25 L 63.75 32.25 L 63.75 63.75 L 32.25 63.75 Z M 32.25 32.25 "/>
</clipPath>
<clipPath id="clip6">
  <path d="M 18.730469 9.273438 L 77.269531 9.273438 C 82.492188 9.273438 86.726562 13.507812 86.726562 18.730469 L 86.726562 77.269531 C 86.726562 82.492188 82.492188 86.726562 77.269531 86.726562 L 18.730469 86.726562 C 13.507812 86.726562 9.273438 82.492188 9.273438 77.269531 L 9.273438 18.730469 C 9.273438 13.507812 13.507812 9.273438 18.730469 9.273438 Z M 18.730469 9.273438 "/>
</clipPath>
<clipPath id="clip7">
  <path d="M 9.1875 9.1875 L 86.8125 9.1875 L 86.8125 45.375 L 9.1875 45.375 Z M 9.1875 9.1875 "/>
</clipPath>
<clipPath id="clip8">
  <path d="M 18.730469 9.273438 L 77.269531 9.273438 C 82.492188 9.273438 86.726562 13.507812 86.726562 18.730469 L 86.726562 77.269531 C 86.726562 82.492188 82.492188 86.726562 77.269531 86.726562 L 18.730469 86.726562 C 13.507812 86.726562 9.273438 82.492188 9.273438 77.269531 L 9.273438 18.730469 C 9.273438 13.507812 13.507812 9.273438 18.730469 9.273438 Z M 18.730469 9.273438 "/>
</clipPath>
<clipPath id="clip9">
  <path d="M 32.25 34.125 L 86.8125 34.125 L 86.8125 86.8125 L 32.25 86.8125 Z M 32.25 34.125 "/>
</clipPath>
<clipPath id="clip10">
  <path d="M 18.730469 9.273438 L 77.269531 9.273438 C 82.492188 9.273438 86.726562 13.507812 86.726562 18.730469 L 86.726562 77.269531 C 86.726562 82.492188 82.492188 86.726562 77.269531 86.726562 L 18.730469 86.726562 C 13.507812 86.726562 9.273438 82.492188 9.273438 77.269531 L 9.273438 18.730469 C 9.273438 13.507812 13.507812 9.273438 18.730469 9.273438 Z M 18.730469 9.273438 "/>
</clipPath>
<clipPath id="clip11">
  <path d="M 9.1875 9.1875 L 54.5625 9.1875 L 54.5625 86.8125 L 9.1875 86.8125 Z M 9.1875 9.1875 "/>
</clipPath>
<clipPath id="clip12">
  <path d="M 18.730469 9.273438 L 77.269531 9.273438 C 82.492188 9.273438 86.726562 13.507812 86.726562 18.730469 L 86.726562 77.269531 C 86.726562 82.492188 82.492188 86.726562 77.269531 86.726562 L 18.730469 86.726562 C 13.507812 86.726562 9.273438 82.492188 9.273438 77.269531 L 9.273438 18.730469 C 9.273438 13.507812 13.507812 9.273438 18.730469 9.273438 Z M 18.730469 9.273438 "/>
</clipPath>
<clipPath id="clip13">
  <path d="M 30.1875 30.1875 L 65.8125 30.1875 L 65.8125 65.8125 L 30.1875 65.8125 Z M 30.1875 30.1875 "/>
</clipPath>
<clipPath id="clip14">
  <path d="M 18.730469 9.273438 L 77.269531 9.273438 C 82.492188 9.273438 86.726562 13.507812 86.726562 18.730469 L 86.726562 77.269531 C 86.726562 82.492188 82.492188 86.726562 77.269531 86.726562 L 18.730469 86.726562 C 13.507812 86.726562 9.273438 82.492188 9.273438 77.269531 L 9.273438 18.730469 C 9.273438 13.507812 13.507812 9.273438 18.730469 9.273438 Z M 18.730469 9.273438 "/>
</clipPath>
<clipPath id="clip15">
  <path d="M 34.125 34.125 L 61.875 34.125 L 61.875 61.875 L 34.125 61.875 Z M 34.125 34.125 "/>
</clipPath>
<clipPath id="clip16">
  <path d="M 18.730469 9.273438 L 77.269531 9.273438 C 82.492188 9.273438 86.726562 13.507812 86.726562 18.730469 L 86.726562 77.269531 C 86.726562 82.492188 82.492188 86.726562 77.269531 86.726562 L 18.730469 86.726562 C 13.507812 86.726562 9.273438 82.492188 9.273438 77.269531 L 9.273438 18.730469 C 9.273438 13.507812 13.507812 9.273438 18.730469 9.273438 Z M 18.730469 9.273438 "/>
</clipPath>
</defs>
<g id="surface1">
<path style="fill-rule:nonzero;fill:rgb(100%,16.470588%,16.470588%);fill-opacity:1;stroke-width:26.401737;stroke-linecap:butt;stroke-linejoin:miter;stroke:rgb(100%,16.470588%,16.470588%);stroke-opacity:1;stroke-miterlimit:4;" d="M 92.559661 39.76753 L 419.440341 39.76753 C 448.593898 39.76753 472.232472 63.406104 472.232472 92.559661 L 472.232472 419.440341 C 472.232472 448.593898 448.593898 472.232472 419.440341 472.232472 L 92.559661 472.232472 C 63.406104 472.232472 39.76753 448.593898 39.76753 419.440341 L 39.76753 92.559661 C 39.76753 63.406104 63.406104 39.76753 92.559661 39.76753 Z M 92.559661 39.76753 " transform="matrix(0.190532,0,0,0.190532,-0.776208,-0.776208)"/>
<g clip-path="url(#clip1)" clip-rule="nonzero">
<g clip-path="url(#clip2)" clip-rule="nonzero">
<path style=" stroke:none;fill-rule:nonzero;fill:rgb(12.54902%,61.176471%,78.431373%);fill-opacity:1;" d="M 63.738281 48 C 63.738281 56.691406 56.691406 63.738281 48 63.738281 C 39.308594 63.738281 32.261719 56.691406 32.261719 48 C 32.261719 39.308594 39.308594 32.261719 48 32.261719 C 56.691406 32.261719 63.738281 39.308594 63.738281 48 M 63.738281 48 "/>
</g>
</g>
<g clip-path="url(#clip3)" clip-rule="nonzero">
<g clip-path="url(#clip4)" clip-rule="nonzero">
<path style=" stroke:none;fill-rule:nonzero;fill:rgb(97.647059%,97.647059%,97.647059%);fill-opacity:1;" d="M 67.609375 48 C 67.609375 58.828125 58.828125 67.609375 48 67.609375 C 37.171875 67.609375 28.390625 58.828125 28.390625 48 C 28.390625 37.171875 37.171875 28.390625 48 28.390625 C 58.828125 28.390625 67.609375 37.171875 67.609375 48 M 67.609375 48 "/>
</g>
</g>
<g clip-path="url(#clip5)" clip-rule="nonzero">
<g clip-path="url(#clip6)" clip-rule="nonzero">
<path style=" stroke:none;fill-rule:nonzero;fill:rgb(12.54902%,61.176471%,78.431373%);fill-opacity:1;" d="M 63.683594 48 C 63.683594 56.660156 56.660156 63.683594 48 63.683594 C 39.339844 63.683594 32.316406 56.660156 32.316406 48 C 32.316406 39.339844 39.339844 32.316406 48 32.316406 C 56.660156 32.316406 63.683594 39.339844 63.683594 48 M 63.683594 48 "/>
</g>
</g>
<g clip-path="url(#clip7)" clip-rule="nonzero">
<g clip-path="url(#clip8)" clip-rule="nonzero">
<path style=" stroke:none;fill-rule:nonzero;fill:rgb(83.137255%,10.196078%,10.196078%);fill-opacity:1;" d="M 62.476562 38.242188 L 95.210938 38.164062 C 95.210938 26.363281 95.210938 12.59375 95.210938 0.789062 C 65.050781 0.789062 34.882812 0.789062 4.722656 0.789062 L 30.570312 45.375 C 30.96875 42.8125 31.890625 40.347656 33.335938 38.183594 C 34.789062 36.007812 36.761719 34.164062 39.175781 32.773438 C 41.296875 31.542969 43.535156 30.773438 45.816406 30.5 C 48.097656 30.210938 50.449219 30.398438 52.640625 30.988281 C 54.828125 31.574219 56.890625 32.550781 58.726562 33.941406 C 60.226562 35.0625 61.378906 36.621094 62.476562 38.246094 M 62.476562 38.246094 "/>
</g>
</g>
<g clip-path="url(#clip9)" clip-rule="nonzero">
<g clip-path="url(#clip10)" clip-rule="nonzero">
<path style=" stroke:none;fill-rule:nonzero;fill:rgb(100%,78.431373%,19.215686%);fill-opacity:1;" d="M 49.328125 65.503906 L 32.261719 95.207031 C 49.96875 95.207031 89.3125 95.207031 95.210938 95.207031 C 95.210938 87.339844 95.210938 46.027344 95.210938 34.226562 L 58.925781 34.226562 C 60.949219 35.847656 62.792969 37.960938 63.953125 40.332031 C 65.105469 42.671875 65.714844 45.292969 65.714844 48.082031 C 65.714844 50.523438 65.261719 52.882812 64.367188 54.964844 C 63.46875 57.085938 62.132812 59.03125 60.527344 60.667969 C 58.925781 62.273438 57.046875 63.570312 54.933594 64.484375 C 53.203125 65.207031 51.285156 65.421875 49.328125 65.585938 M 49.328125 65.585938 "/>
</g>
</g>
<g clip-path="url(#clip11)" clip-rule="nonzero">
<g clip-path="url(#clip12)" clip-rule="nonzero">
<path style=" stroke:none;fill-rule:nonzero;fill:rgb(5.882353%,63.137255%,37.254902%);fill-opacity:1;" d="M 32.300781 40.484375 L 8.65625 0.789062 C 4.722656 0.789062 2.753906 0.789062 0.789062 0.789062 C 0.789062 16.523438 0.789062 81.441406 0.789062 95.210938 C 14.558594 95.210938 24.394531 95.210938 36.195312 95.210938 L 54.417969 64.542969 C 52.003906 65.480469 49.414062 65.910156 46.808594 65.742188 C 44.207031 65.574219 41.613281 64.789062 39.203125 63.390625 C 37.089844 62.167969 35.300781 60.617188 33.914062 58.78125 C 32.523438 56.941406 31.507812 54.804688 30.925781 52.625 C 30.339844 50.433594 30.15625 48.160156 30.441406 45.878906 C 30.671875 44.019531 31.441406 42.242188 32.292969 40.476562 M 32.292969 40.476562 "/>
</g>
</g>
<g clip-path="url(#clip13)" clip-rule="nonzero">
<g clip-path="url(#clip14)" clip-rule="nonzero">
<path style=" stroke:none;fill-rule:nonzero;fill:rgb(97.647059%,97.647059%,97.647059%);fill-opacity:1;" d="M 65.703125 48 C 65.703125 57.78125 57.777344 65.703125 48 65.703125 C 38.226562 65.703125 30.296875 57.777344 30.296875 48 C 30.296875 38.226562 38.222656 30.296875 48 30.296875 C 57.78125 30.296875 65.703125 38.222656 65.703125 48 M 65.703125 48 "/>
</g>
</g>
<g clip-path="url(#clip15)" clip-rule="nonzero">
<g clip-path="url(#clip16)" clip-rule="nonzero">
<path style=" stroke:none;fill-rule:nonzero;fill:rgb(23.921569%,49.019608%,89.803922%);fill-opacity:1;" d="M 61.769531 48 C 61.769531 55.605469 55.605469 61.769531 48 61.769531 C 40.394531 61.769531 34.230469 55.605469 34.230469 48 C 34.230469 40.394531 40.394531 34.230469 48 34.230469 C 55.605469 34.230469 61.769531 40.394531 61.769531 48 M 61.769531 48 "/>
</g>
</g>
</g>
</svg>
