
<svg xmlns="http://www.w3.org/2000/svg" xmlns:xlink="http://www.w3.org/1999/xlink" width="96px" height="96px" viewBox="0 0 96 96" version="1.1">
<g id="surface1">
<path style=" stroke:none;fill-rule:evenodd;fill:rgb(40%,69.803922%,27.058824%);fill-opacity:1;" d="M 17.03125 2.652344 L 79.671875 2.652344 C 87.800781 2.652344 94.386719 9.238281 94.386719 17.367188 L 94.386719 79.40625 C 94.386719 87.53125 87.800781 94.121094 79.671875 94.121094 L 17.03125 94.121094 C 8.90625 94.121094 2.316406 87.53125 2.316406 79.40625 L 2.316406 17.367188 C 2.316406 9.238281 8.90625 2.652344 17.03125 2.652344 Z M 17.03125 2.652344 "/>
<path style=" stroke:none;fill-rule:evenodd;fill:rgb(100%,100%,100%);fill-opacity:1;" d="M 19.789062 6.679688 L 76.914062 6.679688 C 84.324219 6.679688 90.332031 12.6875 90.332031 20.097656 L 90.332031 76.675781 C 90.332031 84.085938 84.324219 90.09375 76.914062 90.09375 L 19.789062 90.09375 C 12.378906 90.09375 6.371094 84.085938 6.371094 76.675781 L 6.371094 20.097656 C 6.371094 12.6875 12.378906 6.679688 19.789062 6.679688 Z M 19.789062 6.679688 "/>
<path style=" stroke:none;fill-rule:nonzero;fill:rgb(10.196078%,10.196078%,10.196078%);fill-opacity:1;" d="M 56.21875 80.515625 L 64.0625 72.609375 L 63.488281 72 C 63.175781 71.664062 62.914062 71.300781 62.914062 71.191406 C 62.914062 71.082031 63.835938 70.136719 64.957031 69.089844 C 67.945312 66.308594 72.234375 61.921875 72.234375 61.644531 C 72.234375 61.515625 71.980469 61.25 71.667969 61.054688 C 70.847656 60.542969 70.960938 60.183594 72.304688 58.996094 C 72.964844 58.410156 75.054688 56.417969 76.949219 54.570312 C 79.394531 52.183594 80.269531 51.164062 79.96875 51.050781 C 79.683594 50.9375 76.726562 53.71875 70.71875 59.746094 C 60.03125 70.46875 48.519531 81.730469 48.25 81.730469 C 48.144531 81.730469 46.015625 79.667969 43.523438 77.144531 C 22.378906 55.722656 17.347656 50.675781 17.136719 50.675781 C 16.363281 50.675781 17.371094 51.921875 21.332031 55.863281 L 25.769531 60.277344 L 24.832031 61.863281 L 34.105469 71.121094 L 33.507812 71.757812 C 32.953125 72.347656 32.941406 72.441406 33.351562 73.039062 C 33.59375 73.394531 37.070312 77 41.082031 81.054688 L 48.375 88.421875 Z M 56.21875 80.515625 "/>
<path style=" stroke:none;fill-rule:nonzero;fill:rgb(10.196078%,10.196078%,10.196078%);fill-opacity:1;" d="M 19.167969 86.335938 L 39.933594 86.335938 L 39.933594 87.53125 L 19.167969 87.53125 Z M 19.167969 86.335938 "/>
<path style=" stroke:none;fill-rule:nonzero;fill:rgb(10.196078%,10.196078%,10.196078%);fill-opacity:1;" d="M 59.296875 86.335938 L 80.058594 86.335938 L 80.058594 87.53125 L 59.296875 87.53125 Z M 59.296875 86.335938 "/>
<path style=" stroke:none;fill-rule:nonzero;fill:rgb(0%,56.470588%,0%);fill-opacity:1;" d="M 49.445312 24.210938 C 49.347656 22.851562 49.140625 21.699219 48.980469 21.644531 C 48.820312 21.59375 48.6875 21.394531 48.6875 21.207031 C 48.6875 21.019531 48.425781 20.363281 48.109375 19.75 C 47.753906 19.0625 47.585938 18.335938 47.675781 17.867188 C 47.765625 17.390625 47.660156 16.9375 47.398438 16.675781 C 47.058594 16.335938 47.042969 16.148438 47.316406 15.707031 C 47.597656 15.257812 47.570312 15.070312 47.160156 14.664062 C 46.792969 14.296875 46.710938 13.921875 46.84375 13.21875 C 46.96875 12.558594 46.867188 12.011719 46.519531 11.421875 C 46.109375 10.726562 46.082031 10.472656 46.363281 10.019531 C 46.554688 9.710938 46.710938 9.214844 46.710938 8.914062 C 46.710938 8.402344 46.765625 8.394531 47.558594 8.792969 C 48.15625 9.089844 48.40625 9.417969 48.40625 9.910156 C 48.40625 10.296875 48.714844 10.941406 49.089844 11.347656 C 49.53125 11.824219 49.878906 12.679688 50.070312 13.785156 C 50.238281 14.722656 50.5 15.617188 50.660156 15.773438 C 50.816406 15.933594 50.945312 16.410156 50.945312 16.835938 C 50.945312 17.261719 51.082031 17.691406 51.25 17.796875 C 51.414062 17.898438 51.488281 18.144531 51.410156 18.34375 C 51.335938 18.539062 51.410156 18.839844 51.578125 19.007812 C 51.789062 19.21875 51.792969 19.425781 51.589844 19.675781 C 51.425781 19.878906 51.203125 21.304688 51.089844 22.847656 C 50.976562 24.390625 50.742188 25.882812 50.566406 26.164062 C 49.917969 27.207031 49.621094 26.6875 49.445312 24.210938 Z M 49.445312 24.210938 "/>
<path style=" stroke:none;fill-rule:nonzero;fill:rgb(0%,56.470588%,0%);fill-opacity:1;" d="M 47.46875 76.703125 C 47.054688 76.269531 46.710938 75.753906 46.710938 75.558594 C 46.710938 75.105469 45.902344 72.417969 45.582031 71.8125 C 45.449219 71.5625 45.253906 70.894531 45.144531 70.328125 C 45.039062 69.765625 44.839844 69.234375 44.703125 69.148438 C 44.566406 69.0625 44.449219 68.777344 44.445312 68.515625 C 44.4375 68.253906 44.1875 67.53125 43.886719 66.910156 C 43.589844 66.289062 43.339844 65.636719 43.332031 65.457031 C 43.328125 65.28125 43.132812 64.773438 42.902344 64.328125 C 42.671875 63.882812 42.480469 63.296875 42.480469 63.027344 C 42.476562 62.753906 42.351562 62.53125 42.195312 62.53125 C 42.039062 62.53125 41.910156 62.308594 41.910156 62.039062 C 41.910156 61.765625 41.71875 61.179688 41.488281 60.734375 C 41.253906 60.292969 41.0625 59.78125 41.054688 59.605469 C 41.050781 59.429688 40.800781 58.777344 40.5 58.15625 C 40.199219 57.535156 39.949219 56.832031 39.945312 56.589844 C 39.941406 56.347656 39.828125 56.03125 39.699219 55.882812 C 39.570312 55.738281 39.238281 54.980469 38.957031 54.203125 C 38.679688 53.425781 38.289062 52.410156 38.085938 51.945312 C 36.355469 47.933594 35.71875 46.328125 35.820312 46.226562 C 35.882812 46.164062 36.09375 46.40625 36.285156 46.769531 C 36.476562 47.132812 36.707031 47.492188 36.800781 47.570312 C 37.023438 47.753906 40.277344 54.351562 41.054688 56.179688 C 41.382812 56.957031 41.773438 57.8125 41.921875 58.082031 C 42.070312 58.351562 42.195312 58.714844 42.195312 58.886719 C 42.195312 59.058594 42.375 59.601562 42.597656 60.089844 C 43.703125 62.519531 44.707031 65.140625 45.269531 67.050781 C 45.613281 68.214844 46.015625 69.386719 46.160156 69.65625 C 46.308594 69.925781 46.429688 70.339844 46.429688 70.574219 C 46.429688 70.808594 46.566406 71.003906 46.734375 71.003906 C 47.070312 71.003906 46.8125 66.964844 46.429688 66.203125 C 46.3125 65.96875 46.125 64.636719 46.011719 63.238281 C 45.898438 61.839844 45.710938 60.570312 45.59375 60.414062 C 45.472656 60.261719 45.296875 58.964844 45.203125 57.539062 C 45.035156 55.082031 44.957031 54.828125 43.691406 52.738281 C 42.960938 51.527344 42.195312 50.367188 41.996094 50.160156 C 41.792969 49.957031 41.628906 49.617188 41.628906 49.40625 C 41.628906 49.199219 41.527344 48.984375 41.40625 48.933594 C 41.28125 48.882812 40.878906 48.332031 40.507812 47.710938 C 40.136719 47.089844 39.285156 45.730469 38.613281 44.691406 C 37.945312 43.652344 37.394531 42.675781 37.394531 42.527344 C 37.394531 42.375 37.300781 42.210938 37.183594 42.15625 C 36.808594 41.992188 32.3125 33.296875 32.3125 32.738281 C 32.3125 32.667969 31.917969 31.773438 31.4375 30.753906 C 30.957031 29.734375 30.613281 28.847656 30.675781 28.785156 C 30.738281 28.722656 32.496094 31.238281 34.582031 34.378906 C 36.667969 37.519531 38.535156 40.253906 38.734375 40.460938 C 38.929688 40.664062 39.089844 41.003906 39.089844 41.214844 C 39.089844 41.421875 39.1875 41.636719 39.3125 41.6875 C 39.433594 41.738281 39.957031 42.480469 40.476562 43.335938 C 42.445312 46.582031 43.714844 48.382812 43.9375 48.242188 C 44.253906 48.046875 44.230469 46.898438 43.90625 46.566406 C 43.761719 46.417969 43.550781 44.546875 43.441406 42.40625 C 43.332031 40.269531 43.132812 38.449219 43 38.367188 C 42.867188 38.285156 42.777344 36.925781 42.796875 35.34375 L 42.835938 32.464844 L 43.226562 35.570312 C 43.445312 37.277344 43.804688 40.199219 44.027344 42.0625 C 44.964844 49.894531 45.027344 50.21875 45.914062 51.988281 C 46.394531 52.941406 47.074219 54.082031 47.421875 54.523438 L 48.0625 55.320312 L 48.355469 54.25 C 48.679688 53.078125 49.113281 52.355469 53.363281 45.875 C 54.941406 43.46875 56.539062 40.960938 56.90625 40.300781 C 57.277344 39.644531 57.683594 39.101562 57.8125 39.101562 C 58.128906 39.097656 57.738281 40.253906 57.261719 40.730469 C 57.050781 40.941406 56.875 41.246094 56.875 41.40625 C 56.875 41.570312 56.496094 42.265625 56.027344 42.953125 C 55.5625 43.644531 55.179688 44.253906 55.179688 44.308594 C 55.179688 44.367188 54.445312 45.660156 53.542969 47.191406 C 52.640625 48.71875 51.15625 51.464844 50.246094 53.292969 L 48.585938 56.621094 L 49.183594 57.664062 C 49.511719 58.238281 49.886719 58.742188 50.015625 58.785156 C 50.273438 58.875 51.230469 56.835938 51.230469 56.195312 C 51.230469 55.972656 51.34375 55.71875 51.480469 55.636719 C 51.617188 55.550781 51.820312 55.132812 51.925781 54.707031 C 52.253906 53.398438 62.359375 33.253906 62.882812 32.867188 C 63 32.777344 63.195312 32.144531 63.308594 31.457031 C 63.460938 30.558594 63.695312 30.128906 64.144531 29.929688 C 64.488281 29.777344 64.894531 29.332031 65.042969 28.941406 C 65.195312 28.550781 65.570312 27.785156 65.882812 27.242188 C 66.191406 26.699219 66.773438 25.554688 67.167969 24.699219 C 67.808594 23.328125 67.875 23.261719 67.738281 24.136719 C 67.445312 25.996094 66.933594 27.636719 66.246094 28.921875 C 63.183594 34.640625 62.886719 35.453125 62.207031 39.945312 C 62.054688 40.957031 61.824219 41.976562 61.695312 42.214844 C 61.566406 42.457031 61.367188 43.472656 61.253906 44.476562 C 61.140625 45.476562 60.949219 46.425781 60.828125 46.582031 C 60.707031 46.738281 60.519531 47.65625 60.410156 48.628906 C 60.296875 49.597656 60.105469 50.457031 59.980469 50.53125 C 59.859375 50.609375 59.667969 51.5625 59.558594 52.652344 C 59.449219 53.738281 59.253906 54.695312 59.128906 54.773438 C 59 54.851562 58.808594 55.742188 58.699219 56.75 C 58.589844 57.761719 58.402344 58.652344 58.277344 58.726562 C 58.152344 58.804688 57.960938 60.261719 57.851562 61.96875 C 57.742188 63.675781 57.558594 65.074219 57.445312 65.074219 C 57.332031 65.074219 57.164062 66.085938 57.066406 67.324219 C 56.902344 69.480469 56.847656 69.617188 55.75 70.71875 C 54.78125 71.683594 54.582031 71.785156 54.449219 71.363281 C 54.125 70.3125 52.488281 67.054688 52.289062 67.050781 C 52.171875 67.050781 52.074219 66.910156 52.074219 66.742188 C 52.074219 66.089844 50.230469 63.378906 49.785156 63.378906 C 49.445312 63.378906 49.078125 64.140625 48.410156 66.230469 C 47.460938 69.210938 47.421875 70.105469 48.117188 73.542969 C 48.484375 75.378906 48.648438 77.496094 48.425781 77.496094 C 48.316406 77.496094 47.886719 77.140625 47.46875 76.703125 Z M 47.769531 66.910156 C 47.769531 66.519531 47.660156 66.203125 47.523438 66.203125 C 47.386719 66.203125 47.277344 66.519531 47.277344 66.910156 C 47.277344 67.296875 47.386719 67.613281 47.523438 67.613281 C 47.660156 67.613281 47.769531 67.296875 47.769531 66.910156 Z M 55.109375 66.839844 C 55.996094 64.355469 56.351562 62.871094 57.453125 57.027344 C 58.046875 53.882812 58.671875 51.121094 59.839844 46.441406 C 61.835938 38.460938 61.859375 38.3125 61.019531 39.148438 C 60.800781 39.371094 60.523438 39.859375 60.402344 40.242188 C 60.285156 40.621094 60.109375 41 60.011719 41.074219 C 59.742188 41.296875 58.570312 43.785156 58.570312 44.140625 C 58.570312 44.320312 58.441406 44.464844 58.289062 44.464844 C 58.132812 44.464844 58.003906 44.605469 58.003906 44.777344 C 58.003906 44.949219 57.386719 46.375 56.628906 47.953125 C 55.871094 49.527344 54.46875 52.46875 53.511719 54.488281 C 52.554688 56.503906 51.585938 58.492188 51.359375 58.90625 C 50.714844 60.078125 50.855469 60.835938 52.148438 63.109375 C 52.804688 64.273438 53.601562 65.761719 53.910156 66.417969 C 54.222656 67.070312 54.554688 67.609375 54.652344 67.609375 C 54.75 67.613281 54.957031 67.265625 55.109375 66.839844 Z M 48.117188 63.097656 C 48.429688 63.097656 48.699219 62.816406 48.808594 62.367188 C 49.054688 61.394531 48.746094 60.472656 48.238281 60.667969 C 47.960938 60.773438 47.839844 60.605469 47.839844 60.097656 C 47.839844 59.304688 47.027344 57.734375 46.613281 57.734375 C 46.347656 57.734375 46.597656 63.035156 46.914062 64.085938 C 47.066406 64.59375 47.109375 64.574219 47.34375 63.875 C 47.5 63.410156 47.8125 63.097656 48.117188 63.097656 Z M 48.117188 63.097656 "/>
<path style=" stroke:none;fill-rule:nonzero;fill:rgb(0%,56.470588%,0%);fill-opacity:1;" d="M 59.230469 66.203125 C 59.320312 65.660156 59.53125 64.261719 59.695312 63.097656 C 59.863281 61.933594 60.113281 60.773438 60.253906 60.519531 C 60.394531 60.269531 60.59375 59.597656 60.699219 59.035156 C 60.804688 58.472656 60.992188 57.945312 61.117188 57.871094 C 61.242188 57.792969 61.429688 57.222656 61.535156 56.601562 C 61.640625 55.980469 61.835938 55.472656 61.96875 55.472656 C 62.105469 55.472656 62.296875 55.027344 62.398438 54.484375 C 62.503906 53.9375 62.707031 53.417969 62.859375 53.324219 C 63.175781 53.128906 62.859375 55.738281 62.511719 56.179688 C 62.390625 56.335938 62.199219 57.097656 62.089844 57.875 C 61.976562 58.652344 61.785156 59.414062 61.660156 59.570312 C 61.539062 59.726562 61.355469 60.679688 61.253906 61.6875 C 60.996094 64.304688 60.515625 65.851562 59.742188 66.566406 L 59.066406 67.191406 Z M 59.230469 66.203125 "/>
<path style=" stroke:none;fill-rule:nonzero;fill:rgb(0%,56.470588%,0%);fill-opacity:1;" d="M 37.203125 66.695312 C 35.855469 65.328125 35.125 64.34375 35 63.726562 C 34.785156 62.699219 31.816406 55.671875 30.890625 53.996094 C 30.742188 53.726562 30.621094 53.34375 30.625 53.148438 C 30.628906 52.953125 31.191406 53.683594 31.878906 54.769531 C 32.5625 55.855469 33.222656 56.878906 33.351562 57.042969 C 33.578125 57.339844 34.53125 59.035156 35.398438 60.699219 C 35.644531 61.164062 35.90625 61.609375 35.984375 61.683594 C 36.0625 61.761719 36.441406 62.460938 36.832031 63.238281 C 37.21875 64.015625 37.601562 64.714844 37.679688 64.792969 C 37.796875 64.90625 39.222656 67.671875 39.605469 68.53125 C 39.910156 69.210938 38.964844 68.488281 37.203125 66.695312 Z M 37.203125 66.695312 "/>
<path style=" stroke:none;fill-rule:evenodd;fill:rgb(0%,56.470588%,0%);fill-opacity:1;" d="M 50.511719 24.847656 C 47.917969 54.792969 47.117188 54.59375 47.117188 54.59375 "/>
</g>
</svg>
