
<svg xmlns="http://www.w3.org/2000/svg" xmlns:xlink="http://www.w3.org/1999/xlink" width="96px" height="96px" viewBox="0 0 96 96" version="1.1">
<defs>
<linearGradient id="linear0" gradientUnits="userSpaceOnUse" x1="-644.89142" y1="-262.48706" x2="-560.57697" y2="-260.20828" gradientTransform="matrix(0.0435553,0.0188773,-0.0188773,0.0435553,89.297868,65.983116)">
<stop offset="0" style="stop-color:rgb(0%,0%,0%);stop-opacity:1;"/>
<stop offset="1" style="stop-color:rgb(0%,0%,0%);stop-opacity:0;"/>
</linearGradient>
<linearGradient id="linear1" gradientUnits="userSpaceOnUse" x1="-644.89142" y1="-262.48706" x2="-560.57697" y2="-260.20828" gradientTransform="matrix(0.0435553,0.0188773,-0.0188773,0.0435553,89.297868,65.983116)">
<stop offset="0" style="stop-color:rgb(0%,0%,0%);stop-opacity:1;"/>
<stop offset="1" style="stop-color:rgb(0%,0%,0%);stop-opacity:0;"/>
</linearGradient>
<linearGradient id="linear2" gradientUnits="userSpaceOnUse" x1="-644.89142" y1="-262.48706" x2="-560.57697" y2="-260.20828" gradientTransform="matrix(0.0435553,0.0188773,-0.0188773,0.0435553,89.297868,65.983116)">
<stop offset="0" style="stop-color:rgb(0%,0%,0%);stop-opacity:1;"/>
<stop offset="1" style="stop-color:rgb(0%,0%,0%);stop-opacity:0;"/>
</linearGradient>
<linearGradient id="linear3" gradientUnits="userSpaceOnUse" x1="-644.89142" y1="-262.48706" x2="-560.57697" y2="-260.20828" gradientTransform="matrix(0.0435553,0.0188773,-0.0188773,0.0435553,89.297868,65.983116)">
<stop offset="0" style="stop-color:rgb(0%,0%,0%);stop-opacity:1;"/>
<stop offset="1" style="stop-color:rgb(0%,0%,0%);stop-opacity:0;"/>
</linearGradient>
<linearGradient id="linear4" gradientUnits="userSpaceOnUse" x1="-644.89142" y1="-262.48706" x2="-560.57697" y2="-260.20828" gradientTransform="matrix(0.0326824,0.0141648,-0.0188773,0.0435553,69.940404,39.997454)">
<stop offset="0" style="stop-color:rgb(0%,0%,0%);stop-opacity:1;"/>
<stop offset="1" style="stop-color:rgb(0%,0%,0%);stop-opacity:0;"/>
</linearGradient>
<linearGradient id="linear5" gradientUnits="userSpaceOnUse" x1="-644.89142" y1="-262.48706" x2="-560.57697" y2="-260.20828" gradientTransform="matrix(0.00942598,-0.0296199,0.0168219,0.000550892,78.604772,52.506144)">
<stop offset="0" style="stop-color:rgb(0%,0%,0%);stop-opacity:1;"/>
<stop offset="1" style="stop-color:rgb(0%,0%,0%);stop-opacity:0;"/>
</linearGradient>
<linearGradient id="linear6" gradientUnits="userSpaceOnUse" x1="-644.89142" y1="-262.48706" x2="-560.57697" y2="-260.20828" gradientTransform="matrix(0.0188773,-0.0435553,-0.0435553,-0.0188773,89.297868,65.983116)">
<stop offset="0" style="stop-color:rgb(0%,0%,0%);stop-opacity:1;"/>
<stop offset="1" style="stop-color:rgb(0%,0%,0%);stop-opacity:0;"/>
</linearGradient>
</defs>
<g id="surface1">
<path style="fill-rule:evenodd;fill:rgb(16.078431%,50.196078%,72.54902%);fill-opacity:1;stroke-width:4.588;stroke-linecap:butt;stroke-linejoin:miter;stroke:rgb(41.960784%,75.686275%,100%);stroke-opacity:1;stroke-miterlimit:4;" d="M 18.713542 930.263242 L 109.286458 930.263242 C 116.359375 930.263242 122.098958 936.002825 122.098958 943.075742 L 122.098958 1033.648658 C 122.098958 1040.721575 116.359375 1046.461158 109.286458 1046.461158 L 18.713542 1046.461158 C 11.640625 1046.461158 5.901042 1040.721575 5.901042 1033.648658 L 5.901042 943.075742 C 5.901042 936.002825 11.640625 930.263242 18.713542 930.263242 Z M 18.713542 930.263242 " transform="matrix(0.75,0,0,0.75,0,-693.27165)"/>
<path style=" stroke:none;fill-rule:nonzero;fill:rgb(0%,50.196078%,86.27451%);fill-opacity:1;" d="M 48.066406 12.636719 C 28.570312 12.636719 12.765625 28.441406 12.765625 47.933594 C 12.765625 67.429688 28.570312 83.230469 48.066406 83.230469 C 67.5625 83.230469 83.363281 67.429688 83.363281 47.933594 C 83.363281 28.441406 67.5625 12.636719 48.066406 12.636719 Z M 48.066406 44.140625 C 50.15625 44.140625 51.859375 45.84375 51.859375 47.933594 C 51.859375 50.023438 50.15625 51.726562 48.066406 51.726562 C 45.976562 51.726562 44.273438 50.023438 44.273438 47.933594 C 44.273438 45.84375 45.976562 44.140625 48.066406 44.140625 Z M 48.066406 44.140625 "/>
<path style=" stroke:none;fill-rule:nonzero;fill:rgb(18.823529%,66.27451%,100%);fill-opacity:1;" d="M 48.066406 13.738281 C 29.179688 13.738281 13.871094 29.046875 13.871094 47.933594 C 13.871094 66.820312 29.179688 82.128906 48.066406 82.128906 C 66.953125 82.128906 82.261719 66.820312 82.261719 47.933594 C 82.261719 29.046875 66.953125 13.738281 48.066406 13.738281 Z M 48.066406 44.140625 C 50.15625 44.140625 51.859375 45.84375 51.859375 47.933594 C 51.859375 50.023438 50.15625 51.726562 48.066406 51.726562 C 45.976562 51.726562 44.273438 50.023438 44.273438 47.933594 C 44.273438 45.84375 45.976562 44.140625 48.066406 44.140625 Z M 48.066406 44.140625 "/>
<path style=" stroke:none;fill-rule:nonzero;fill:rgb(41.960784%,75.686275%,100%);fill-opacity:1;" d="M 48.066406 15.460938 C 30.136719 15.460938 15.59375 30.007812 15.59375 47.933594 C 15.59375 65.863281 30.136719 80.40625 48.066406 80.40625 C 65.992188 80.40625 80.539062 65.863281 80.539062 47.933594 C 80.539062 30.007812 65.992188 15.460938 48.066406 15.460938 Z M 48.066406 44.140625 C 50.15625 44.140625 51.859375 45.84375 51.859375 47.933594 C 51.859375 50.023438 50.15625 51.726562 48.066406 51.726562 C 45.976562 51.726562 44.273438 50.023438 44.273438 47.933594 C 44.273438 45.84375 45.976562 44.140625 48.066406 44.140625 Z M 48.066406 44.140625 "/>
<path style="fill-rule:nonzero;fill:rgb(82.745098%,83.529412%,84.313725%);fill-opacity:1;stroke-width:0.774153;stroke-linecap:butt;stroke-linejoin:miter;stroke:rgb(100%,100%,100%);stroke-opacity:1;stroke-miterlimit:4;" d="M 64.088542 974.39345 C 56.432292 974.39345 50.208333 980.617408 50.208333 988.273658 C 50.208333 995.935117 56.432292 1002.153867 64.088542 1002.153867 C 71.744792 1002.153867 77.96875 995.935117 77.96875 988.273658 C 77.96875 980.617408 71.744792 974.39345 64.088542 974.39345 Z M 64.088542 983.216367 C 66.875 983.216367 69.145833 985.4872 69.145833 988.273658 C 69.145833 991.060117 66.875 993.33095 64.088542 993.33095 C 61.302083 993.33095 59.03125 991.060117 59.03125 988.273658 C 59.03125 985.4872 61.302083 983.216367 64.088542 983.216367 Z M 64.088542 983.216367 " transform="matrix(0.75,0,0,0.75,0,-693.27165)"/>
<path style=" stroke:none;fill-rule:nonzero;fill:rgb(87.843137%,87.843137%,88.627451%);fill-opacity:1;" d="M 48.066406 39.730469 C 43.539062 39.730469 39.863281 43.410156 39.863281 47.933594 C 39.863281 52.460938 43.539062 56.136719 48.066406 56.136719 C 52.589844 56.136719 56.269531 52.460938 56.269531 47.933594 C 56.269531 43.410156 52.589844 39.730469 48.066406 39.730469 Z M 48.066406 44.140625 C 50.15625 44.140625 51.859375 45.84375 51.859375 47.933594 C 51.859375 50.023438 50.15625 51.726562 48.066406 51.726562 C 45.976562 51.726562 44.273438 50.023438 44.273438 47.933594 C 44.273438 45.84375 45.976562 44.140625 48.066406 44.140625 Z M 48.066406 44.140625 "/>
<path style=" stroke:none;fill-rule:nonzero;fill:rgb(10.196078%,10.196078%,10.196078%);fill-opacity:1;" d="M 74.28125 25.671875 L 79.136719 27.773438 L 65.113281 60.128906 L 60.261719 58.027344 Z M 74.28125 25.671875 "/>
<path style=" stroke:none;fill-rule:nonzero;fill:rgb(10.196078%,10.196078%,10.196078%);fill-opacity:1;" d="M 60.175781 58.222656 L 65.027344 60.328125 L 60.921875 67.417969 L 57.933594 66.125 Z M 60.175781 58.222656 "/>
<path style=" stroke:none;fill-rule:nonzero;fill:rgb(10.196078%,10.196078%,10.196078%);fill-opacity:1;" d="M 58.410156 66.5625 L 60.152344 67.316406 L 57.480469 71.480469 C 57.480469 71.480469 58.234375 67.746094 58.410156 66.5625 Z M 58.410156 66.5625 "/>
<path style=" stroke:none;fill-rule:nonzero;fill:rgb(10.196078%,10.196078%,10.196078%);fill-opacity:1;" d="M 80.34375 20.867188 C 79.925781 19.960938 79.257812 19.863281 78.5 20.066406 L 75.894531 26.074219 L 77.738281 26.875 Z M 80.34375 20.867188 "/>
<path style=" stroke:none;fill-rule:nonzero;fill:rgb(10.196078%,10.196078%,10.196078%);fill-opacity:1;" d="M 80.628906 28.46875 L 81.558594 28.871094 L 76.175781 41.292969 L 75.246094 40.890625 Z M 80.628906 28.46875 "/>
<path style=" stroke:none;fill-rule:nonzero;fill:rgb(10.196078%,10.196078%,10.196078%);fill-opacity:1;" d="M 76.230469 38.285156 L 75.15625 40.742188 L 74.621094 39.035156 Z M 76.230469 38.285156 "/>
<path style=" stroke:none;fill-rule:nonzero;fill:rgb(10.196078%,10.196078%,10.196078%);fill-opacity:1;" d="M 79.824219 29.59375 L 80.363281 28.351562 L 79.34375 27.910156 L 78.804688 29.152344 Z M 79.824219 29.59375 "/>
<path style=" stroke:none;fill-rule:nonzero;fill:url(#linear0);" d="M 74.28125 25.671875 L 79.136719 27.773438 L 65.113281 60.128906 L 60.261719 58.027344 Z M 74.28125 25.671875 "/>
<path style=" stroke:none;fill-rule:nonzero;fill:url(#linear1);" d="M 60.175781 58.222656 L 65.027344 60.328125 L 60.921875 67.417969 L 57.933594 66.125 Z M 60.175781 58.222656 "/>
<path style=" stroke:none;fill-rule:nonzero;fill:url(#linear2);" d="M 58.410156 66.5625 L 60.152344 67.316406 L 57.480469 71.480469 C 57.480469 71.480469 58.234375 67.746094 58.410156 66.5625 Z M 58.410156 66.5625 "/>
<path style=" stroke:none;fill-rule:nonzero;fill:url(#linear3);" d="M 80.34375 20.867188 C 79.925781 19.960938 79.257812 19.863281 78.5 20.066406 L 75.894531 26.074219 L 77.738281 26.875 Z M 80.34375 20.867188 "/>
<path style=" stroke:none;fill-rule:nonzero;fill:url(#linear4);" d="M 80.628906 28.46875 L 81.558594 28.871094 L 76.175781 41.292969 L 75.246094 40.890625 Z M 80.628906 28.46875 "/>
<path style=" stroke:none;fill-rule:nonzero;fill:url(#linear5);" d="M 76.230469 38.285156 L 75.15625 40.742188 L 74.621094 39.035156 Z M 76.230469 38.285156 "/>
<path style=" stroke:none;fill-rule:nonzero;fill:url(#linear6);" d="M 79.824219 29.59375 L 80.363281 28.351562 L 79.34375 27.910156 L 78.804688 29.152344 Z M 79.824219 29.59375 "/>
</g>
</svg>
