
<svg xmlns="http://www.w3.org/2000/svg" xmlns:xlink="http://www.w3.org/1999/xlink" width="96px" height="96px" viewBox="0 0 96 96" version="1.1">
<defs>
<clipPath id="clip1">
  <path d="M 6.75 6 L 90 6 L 90 90.1875 L 6.75 90.1875 Z M 6.75 6 "/>
</clipPath>
<clipPath id="clip2">
  <path d="M 17.046875 6.125 L 79.746094 6.125 C 85.339844 6.125 89.875 10.71875 89.875 16.382812 L 89.875 79.882812 C 89.875 85.546875 85.339844 90.140625 79.746094 90.140625 L 17.046875 90.140625 C 11.457031 90.140625 6.921875 85.546875 6.921875 79.882812 L 6.921875 16.382812 C 6.921875 10.71875 11.457031 6.125 17.046875 6.125 Z M 17.046875 6.125 "/>
</clipPath>
<clipPath id="clip3">
  <path d="M 6.75 48 L 48.5625 48 L 48.5625 90.1875 L 6.75 90.1875 Z M 6.75 48 "/>
</clipPath>
<clipPath id="clip4">
  <path d="M 17.046875 6.125 L 79.746094 6.125 C 85.339844 6.125 89.875 10.71875 89.875 16.382812 L 89.875 79.882812 C 89.875 85.546875 85.339844 90.140625 79.746094 90.140625 L 17.046875 90.140625 C 11.457031 90.140625 6.921875 85.546875 6.921875 79.882812 L 6.921875 16.382812 C 6.921875 10.71875 11.457031 6.125 17.046875 6.125 Z M 17.046875 6.125 "/>
</clipPath>
<clipPath id="clip5">
  <path d="M 6.75 82.125 L 14.8125 82.125 L 14.8125 90.1875 L 6.75 90.1875 Z M 6.75 82.125 "/>
</clipPath>
<clipPath id="clip6">
  <path d="M 17.046875 6.125 L 79.746094 6.125 C 85.339844 6.125 89.875 10.71875 89.875 16.382812 L 89.875 79.882812 C 89.875 85.546875 85.339844 90.140625 79.746094 90.140625 L 17.046875 90.140625 C 11.457031 90.140625 6.921875 85.546875 6.921875 79.882812 L 6.921875 16.382812 C 6.921875 10.71875 11.457031 6.125 17.046875 6.125 Z M 17.046875 6.125 "/>
</clipPath>
<clipPath id="clip7">
  <path d="M 14.625 82.125 L 26 82.125 L 26 90.1875 L 14.625 90.1875 Z M 14.625 82.125 "/>
</clipPath>
<clipPath id="clip8">
  <path d="M 17.046875 6.125 L 79.746094 6.125 C 85.339844 6.125 89.875 10.71875 89.875 16.382812 L 89.875 79.882812 C 89.875 85.546875 85.339844 90.140625 79.746094 90.140625 L 17.046875 90.140625 C 11.457031 90.140625 6.921875 85.546875 6.921875 79.882812 L 6.921875 16.382812 C 6.921875 10.71875 11.457031 6.125 17.046875 6.125 Z M 17.046875 6.125 "/>
</clipPath>
<clipPath id="clip9">
  <path d="M 25.875 82.125 L 37.3125 82.125 L 37.3125 90.1875 L 25.875 90.1875 Z M 25.875 82.125 "/>
</clipPath>
<clipPath id="clip10">
  <path d="M 17.046875 6.125 L 79.746094 6.125 C 85.339844 6.125 89.875 10.71875 89.875 16.382812 L 89.875 79.882812 C 89.875 85.546875 85.339844 90.140625 79.746094 90.140625 L 17.046875 90.140625 C 11.457031 90.140625 6.921875 85.546875 6.921875 79.882812 L 6.921875 16.382812 C 6.921875 10.71875 11.457031 6.125 17.046875 6.125 Z M 17.046875 6.125 "/>
</clipPath>
<clipPath id="clip11">
  <path d="M 37.125 82.125 L 48.5625 82.125 L 48.5625 90.1875 L 37.125 90.1875 Z M 37.125 82.125 "/>
</clipPath>
<clipPath id="clip12">
  <path d="M 17.046875 6.125 L 79.746094 6.125 C 85.339844 6.125 89.875 10.71875 89.875 16.382812 L 89.875 79.882812 C 89.875 85.546875 85.339844 90.140625 79.746094 90.140625 L 17.046875 90.140625 C 11.457031 90.140625 6.921875 85.546875 6.921875 79.882812 L 6.921875 16.382812 C 6.921875 10.71875 11.457031 6.125 17.046875 6.125 Z M 17.046875 6.125 "/>
</clipPath>
<clipPath id="clip13">
  <path d="M 48.375 82.125 L 59.8125 82.125 L 59.8125 90.1875 L 48.375 90.1875 Z M 48.375 82.125 "/>
</clipPath>
<clipPath id="clip14">
  <path d="M 17.046875 6.125 L 79.746094 6.125 C 85.339844 6.125 89.875 10.71875 89.875 16.382812 L 89.875 79.882812 C 89.875 85.546875 85.339844 90.140625 79.746094 90.140625 L 17.046875 90.140625 C 11.457031 90.140625 6.921875 85.546875 6.921875 79.882812 L 6.921875 16.382812 C 6.921875 10.71875 11.457031 6.125 17.046875 6.125 Z M 17.046875 6.125 "/>
</clipPath>
<clipPath id="clip15">
  <path d="M 59.625 82.125 L 71 82.125 L 71 90.1875 L 59.625 90.1875 Z M 59.625 82.125 "/>
</clipPath>
<clipPath id="clip16">
  <path d="M 17.046875 6.125 L 79.746094 6.125 C 85.339844 6.125 89.875 10.71875 89.875 16.382812 L 89.875 79.882812 C 89.875 85.546875 85.339844 90.140625 79.746094 90.140625 L 17.046875 90.140625 C 11.457031 90.140625 6.921875 85.546875 6.921875 79.882812 L 6.921875 16.382812 C 6.921875 10.71875 11.457031 6.125 17.046875 6.125 Z M 17.046875 6.125 "/>
</clipPath>
<clipPath id="clip17">
  <path d="M 70.875 82.125 L 82.3125 82.125 L 82.3125 90.1875 L 70.875 90.1875 Z M 70.875 82.125 "/>
</clipPath>
<clipPath id="clip18">
  <path d="M 17.046875 6.125 L 79.746094 6.125 C 85.339844 6.125 89.875 10.71875 89.875 16.382812 L 89.875 79.882812 C 89.875 85.546875 85.339844 90.140625 79.746094 90.140625 L 17.046875 90.140625 C 11.457031 90.140625 6.921875 85.546875 6.921875 79.882812 L 6.921875 16.382812 C 6.921875 10.71875 11.457031 6.125 17.046875 6.125 Z M 17.046875 6.125 "/>
</clipPath>
<clipPath id="clip19">
  <path d="M 82.125 82.125 L 90 82.125 L 90 90.1875 L 82.125 90.1875 Z M 82.125 82.125 "/>
</clipPath>
<clipPath id="clip20">
  <path d="M 17.046875 6.125 L 79.746094 6.125 C 85.339844 6.125 89.875 10.71875 89.875 16.382812 L 89.875 79.882812 C 89.875 85.546875 85.339844 90.140625 79.746094 90.140625 L 17.046875 90.140625 C 11.457031 90.140625 6.921875 85.546875 6.921875 79.882812 L 6.921875 16.382812 C 6.921875 10.71875 11.457031 6.125 17.046875 6.125 Z M 17.046875 6.125 "/>
</clipPath>
<clipPath id="clip21">
  <path d="M 6.75 70.875 L 14.8125 70.875 L 14.8125 82.3125 L 6.75 82.3125 Z M 6.75 70.875 "/>
</clipPath>
<clipPath id="clip22">
  <path d="M 17.046875 6.125 L 79.746094 6.125 C 85.339844 6.125 89.875 10.71875 89.875 16.382812 L 89.875 79.882812 C 89.875 85.546875 85.339844 90.140625 79.746094 90.140625 L 17.046875 90.140625 C 11.457031 90.140625 6.921875 85.546875 6.921875 79.882812 L 6.921875 16.382812 C 6.921875 10.71875 11.457031 6.125 17.046875 6.125 Z M 17.046875 6.125 "/>
</clipPath>
<clipPath id="clip23">
  <path d="M 14.625 70.875 L 26 70.875 L 26 82.3125 L 14.625 82.3125 Z M 14.625 70.875 "/>
</clipPath>
<clipPath id="clip24">
  <path d="M 17.046875 6.125 L 79.746094 6.125 C 85.339844 6.125 89.875 10.71875 89.875 16.382812 L 89.875 79.882812 C 89.875 85.546875 85.339844 90.140625 79.746094 90.140625 L 17.046875 90.140625 C 11.457031 90.140625 6.921875 85.546875 6.921875 79.882812 L 6.921875 16.382812 C 6.921875 10.71875 11.457031 6.125 17.046875 6.125 Z M 17.046875 6.125 "/>
</clipPath>
<clipPath id="clip25">
  <path d="M 25.875 70.875 L 37.3125 70.875 L 37.3125 82.3125 L 25.875 82.3125 Z M 25.875 70.875 "/>
</clipPath>
<clipPath id="clip26">
  <path d="M 17.046875 6.125 L 79.746094 6.125 C 85.339844 6.125 89.875 10.71875 89.875 16.382812 L 89.875 79.882812 C 89.875 85.546875 85.339844 90.140625 79.746094 90.140625 L 17.046875 90.140625 C 11.457031 90.140625 6.921875 85.546875 6.921875 79.882812 L 6.921875 16.382812 C 6.921875 10.71875 11.457031 6.125 17.046875 6.125 Z M 17.046875 6.125 "/>
</clipPath>
<clipPath id="clip27">
  <path d="M 37.125 70.875 L 48.5625 70.875 L 48.5625 82.3125 L 37.125 82.3125 Z M 37.125 70.875 "/>
</clipPath>
<clipPath id="clip28">
  <path d="M 17.046875 6.125 L 79.746094 6.125 C 85.339844 6.125 89.875 10.71875 89.875 16.382812 L 89.875 79.882812 C 89.875 85.546875 85.339844 90.140625 79.746094 90.140625 L 17.046875 90.140625 C 11.457031 90.140625 6.921875 85.546875 6.921875 79.882812 L 6.921875 16.382812 C 6.921875 10.71875 11.457031 6.125 17.046875 6.125 Z M 17.046875 6.125 "/>
</clipPath>
<clipPath id="clip29">
  <path d="M 48.375 70.875 L 59.8125 70.875 L 59.8125 82.3125 L 48.375 82.3125 Z M 48.375 70.875 "/>
</clipPath>
<clipPath id="clip30">
  <path d="M 17.046875 6.125 L 79.746094 6.125 C 85.339844 6.125 89.875 10.71875 89.875 16.382812 L 89.875 79.882812 C 89.875 85.546875 85.339844 90.140625 79.746094 90.140625 L 17.046875 90.140625 C 11.457031 90.140625 6.921875 85.546875 6.921875 79.882812 L 6.921875 16.382812 C 6.921875 10.71875 11.457031 6.125 17.046875 6.125 Z M 17.046875 6.125 "/>
</clipPath>
<clipPath id="clip31">
  <path d="M 59.625 70.875 L 71 70.875 L 71 82.3125 L 59.625 82.3125 Z M 59.625 70.875 "/>
</clipPath>
<clipPath id="clip32">
  <path d="M 17.046875 6.125 L 79.746094 6.125 C 85.339844 6.125 89.875 10.71875 89.875 16.382812 L 89.875 79.882812 C 89.875 85.546875 85.339844 90.140625 79.746094 90.140625 L 17.046875 90.140625 C 11.457031 90.140625 6.921875 85.546875 6.921875 79.882812 L 6.921875 16.382812 C 6.921875 10.71875 11.457031 6.125 17.046875 6.125 Z M 17.046875 6.125 "/>
</clipPath>
<clipPath id="clip33">
  <path d="M 70.875 70.875 L 82.3125 70.875 L 82.3125 82.3125 L 70.875 82.3125 Z M 70.875 70.875 "/>
</clipPath>
<clipPath id="clip34">
  <path d="M 17.046875 6.125 L 79.746094 6.125 C 85.339844 6.125 89.875 10.71875 89.875 16.382812 L 89.875 79.882812 C 89.875 85.546875 85.339844 90.140625 79.746094 90.140625 L 17.046875 90.140625 C 11.457031 90.140625 6.921875 85.546875 6.921875 79.882812 L 6.921875 16.382812 C 6.921875 10.71875 11.457031 6.125 17.046875 6.125 Z M 17.046875 6.125 "/>
</clipPath>
<clipPath id="clip35">
  <path d="M 82.125 70.875 L 90 70.875 L 90 82.3125 L 82.125 82.3125 Z M 82.125 70.875 "/>
</clipPath>
<clipPath id="clip36">
  <path d="M 17.046875 6.125 L 79.746094 6.125 C 85.339844 6.125 89.875 10.71875 89.875 16.382812 L 89.875 79.882812 C 89.875 85.546875 85.339844 90.140625 79.746094 90.140625 L 17.046875 90.140625 C 11.457031 90.140625 6.921875 85.546875 6.921875 79.882812 L 6.921875 16.382812 C 6.921875 10.71875 11.457031 6.125 17.046875 6.125 Z M 17.046875 6.125 "/>
</clipPath>
<clipPath id="clip37">
  <path d="M 6.75 59.4375 L 14.8125 59.4375 L 14.8125 71 L 6.75 71 Z M 6.75 59.4375 "/>
</clipPath>
<clipPath id="clip38">
  <path d="M 17.046875 6.125 L 79.746094 6.125 C 85.339844 6.125 89.875 10.71875 89.875 16.382812 L 89.875 79.882812 C 89.875 85.546875 85.339844 90.140625 79.746094 90.140625 L 17.046875 90.140625 C 11.457031 90.140625 6.921875 85.546875 6.921875 79.882812 L 6.921875 16.382812 C 6.921875 10.71875 11.457031 6.125 17.046875 6.125 Z M 17.046875 6.125 "/>
</clipPath>
<clipPath id="clip39">
  <path d="M 14.625 59.4375 L 26 59.4375 L 26 71 L 14.625 71 Z M 14.625 59.4375 "/>
</clipPath>
<clipPath id="clip40">
  <path d="M 17.046875 6.125 L 79.746094 6.125 C 85.339844 6.125 89.875 10.71875 89.875 16.382812 L 89.875 79.882812 C 89.875 85.546875 85.339844 90.140625 79.746094 90.140625 L 17.046875 90.140625 C 11.457031 90.140625 6.921875 85.546875 6.921875 79.882812 L 6.921875 16.382812 C 6.921875 10.71875 11.457031 6.125 17.046875 6.125 Z M 17.046875 6.125 "/>
</clipPath>
<clipPath id="clip41">
  <path d="M 25.875 59.4375 L 37.3125 59.4375 L 37.3125 71 L 25.875 71 Z M 25.875 59.4375 "/>
</clipPath>
<clipPath id="clip42">
  <path d="M 17.046875 6.125 L 79.746094 6.125 C 85.339844 6.125 89.875 10.71875 89.875 16.382812 L 89.875 79.882812 C 89.875 85.546875 85.339844 90.140625 79.746094 90.140625 L 17.046875 90.140625 C 11.457031 90.140625 6.921875 85.546875 6.921875 79.882812 L 6.921875 16.382812 C 6.921875 10.71875 11.457031 6.125 17.046875 6.125 Z M 17.046875 6.125 "/>
</clipPath>
<clipPath id="clip43">
  <path d="M 37.125 59.4375 L 48.5625 59.4375 L 48.5625 71 L 37.125 71 Z M 37.125 59.4375 "/>
</clipPath>
<clipPath id="clip44">
  <path d="M 17.046875 6.125 L 79.746094 6.125 C 85.339844 6.125 89.875 10.71875 89.875 16.382812 L 89.875 79.882812 C 89.875 85.546875 85.339844 90.140625 79.746094 90.140625 L 17.046875 90.140625 C 11.457031 90.140625 6.921875 85.546875 6.921875 79.882812 L 6.921875 16.382812 C 6.921875 10.71875 11.457031 6.125 17.046875 6.125 Z M 17.046875 6.125 "/>
</clipPath>
<clipPath id="clip45">
  <path d="M 48.375 59.4375 L 59.8125 59.4375 L 59.8125 71 L 48.375 71 Z M 48.375 59.4375 "/>
</clipPath>
<clipPath id="clip46">
  <path d="M 17.046875 6.125 L 79.746094 6.125 C 85.339844 6.125 89.875 10.71875 89.875 16.382812 L 89.875 79.882812 C 89.875 85.546875 85.339844 90.140625 79.746094 90.140625 L 17.046875 90.140625 C 11.457031 90.140625 6.921875 85.546875 6.921875 79.882812 L 6.921875 16.382812 C 6.921875 10.71875 11.457031 6.125 17.046875 6.125 Z M 17.046875 6.125 "/>
</clipPath>
<clipPath id="clip47">
  <path d="M 59.625 59.4375 L 71 59.4375 L 71 71 L 59.625 71 Z M 59.625 59.4375 "/>
</clipPath>
<clipPath id="clip48">
  <path d="M 17.046875 6.125 L 79.746094 6.125 C 85.339844 6.125 89.875 10.71875 89.875 16.382812 L 89.875 79.882812 C 89.875 85.546875 85.339844 90.140625 79.746094 90.140625 L 17.046875 90.140625 C 11.457031 90.140625 6.921875 85.546875 6.921875 79.882812 L 6.921875 16.382812 C 6.921875 10.71875 11.457031 6.125 17.046875 6.125 Z M 17.046875 6.125 "/>
</clipPath>
<clipPath id="clip49">
  <path d="M 70.875 59.4375 L 82.3125 59.4375 L 82.3125 71 L 70.875 71 Z M 70.875 59.4375 "/>
</clipPath>
<clipPath id="clip50">
  <path d="M 17.046875 6.125 L 79.746094 6.125 C 85.339844 6.125 89.875 10.71875 89.875 16.382812 L 89.875 79.882812 C 89.875 85.546875 85.339844 90.140625 79.746094 90.140625 L 17.046875 90.140625 C 11.457031 90.140625 6.921875 85.546875 6.921875 79.882812 L 6.921875 16.382812 C 6.921875 10.71875 11.457031 6.125 17.046875 6.125 Z M 17.046875 6.125 "/>
</clipPath>
<clipPath id="clip51">
  <path d="M 82.125 59.4375 L 90 59.4375 L 90 71 L 82.125 71 Z M 82.125 59.4375 "/>
</clipPath>
<clipPath id="clip52">
  <path d="M 17.046875 6.125 L 79.746094 6.125 C 85.339844 6.125 89.875 10.71875 89.875 16.382812 L 89.875 79.882812 C 89.875 85.546875 85.339844 90.140625 79.746094 90.140625 L 17.046875 90.140625 C 11.457031 90.140625 6.921875 85.546875 6.921875 79.882812 L 6.921875 16.382812 C 6.921875 10.71875 11.457031 6.125 17.046875 6.125 Z M 17.046875 6.125 "/>
</clipPath>
<clipPath id="clip53">
  <path d="M 6.75 48 L 14.8125 48 L 14.8125 59.625 L 6.75 59.625 Z M 6.75 48 "/>
</clipPath>
<clipPath id="clip54">
  <path d="M 17.046875 6.125 L 79.746094 6.125 C 85.339844 6.125 89.875 10.71875 89.875 16.382812 L 89.875 79.882812 C 89.875 85.546875 85.339844 90.140625 79.746094 90.140625 L 17.046875 90.140625 C 11.457031 90.140625 6.921875 85.546875 6.921875 79.882812 L 6.921875 16.382812 C 6.921875 10.71875 11.457031 6.125 17.046875 6.125 Z M 17.046875 6.125 "/>
</clipPath>
<clipPath id="clip55">
  <path d="M 14.625 48 L 26 48 L 26 59.625 L 14.625 59.625 Z M 14.625 48 "/>
</clipPath>
<clipPath id="clip56">
  <path d="M 17.046875 6.125 L 79.746094 6.125 C 85.339844 6.125 89.875 10.71875 89.875 16.382812 L 89.875 79.882812 C 89.875 85.546875 85.339844 90.140625 79.746094 90.140625 L 17.046875 90.140625 C 11.457031 90.140625 6.921875 85.546875 6.921875 79.882812 L 6.921875 16.382812 C 6.921875 10.71875 11.457031 6.125 17.046875 6.125 Z M 17.046875 6.125 "/>
</clipPath>
<clipPath id="clip57">
  <path d="M 25.875 48 L 37.3125 48 L 37.3125 59.625 L 25.875 59.625 Z M 25.875 48 "/>
</clipPath>
<clipPath id="clip58">
  <path d="M 17.046875 6.125 L 79.746094 6.125 C 85.339844 6.125 89.875 10.71875 89.875 16.382812 L 89.875 79.882812 C 89.875 85.546875 85.339844 90.140625 79.746094 90.140625 L 17.046875 90.140625 C 11.457031 90.140625 6.921875 85.546875 6.921875 79.882812 L 6.921875 16.382812 C 6.921875 10.71875 11.457031 6.125 17.046875 6.125 Z M 17.046875 6.125 "/>
</clipPath>
<clipPath id="clip59">
  <path d="M 37.125 48 L 48.5625 48 L 48.5625 59.625 L 37.125 59.625 Z M 37.125 48 "/>
</clipPath>
<clipPath id="clip60">
  <path d="M 17.046875 6.125 L 79.746094 6.125 C 85.339844 6.125 89.875 10.71875 89.875 16.382812 L 89.875 79.882812 C 89.875 85.546875 85.339844 90.140625 79.746094 90.140625 L 17.046875 90.140625 C 11.457031 90.140625 6.921875 85.546875 6.921875 79.882812 L 6.921875 16.382812 C 6.921875 10.71875 11.457031 6.125 17.046875 6.125 Z M 17.046875 6.125 "/>
</clipPath>
<clipPath id="clip61">
  <path d="M 48.375 48 L 59.8125 48 L 59.8125 59.625 L 48.375 59.625 Z M 48.375 48 "/>
</clipPath>
<clipPath id="clip62">
  <path d="M 17.046875 6.125 L 79.746094 6.125 C 85.339844 6.125 89.875 10.71875 89.875 16.382812 L 89.875 79.882812 C 89.875 85.546875 85.339844 90.140625 79.746094 90.140625 L 17.046875 90.140625 C 11.457031 90.140625 6.921875 85.546875 6.921875 79.882812 L 6.921875 16.382812 C 6.921875 10.71875 11.457031 6.125 17.046875 6.125 Z M 17.046875 6.125 "/>
</clipPath>
<clipPath id="clip63">
  <path d="M 59.625 48 L 71 48 L 71 59.625 L 59.625 59.625 Z M 59.625 48 "/>
</clipPath>
<clipPath id="clip64">
  <path d="M 17.046875 6.125 L 79.746094 6.125 C 85.339844 6.125 89.875 10.71875 89.875 16.382812 L 89.875 79.882812 C 89.875 85.546875 85.339844 90.140625 79.746094 90.140625 L 17.046875 90.140625 C 11.457031 90.140625 6.921875 85.546875 6.921875 79.882812 L 6.921875 16.382812 C 6.921875 10.71875 11.457031 6.125 17.046875 6.125 Z M 17.046875 6.125 "/>
</clipPath>
<clipPath id="clip65">
  <path d="M 70.875 48 L 82.3125 48 L 82.3125 59.625 L 70.875 59.625 Z M 70.875 48 "/>
</clipPath>
<clipPath id="clip66">
  <path d="M 17.046875 6.125 L 79.746094 6.125 C 85.339844 6.125 89.875 10.71875 89.875 16.382812 L 89.875 79.882812 C 89.875 85.546875 85.339844 90.140625 79.746094 90.140625 L 17.046875 90.140625 C 11.457031 90.140625 6.921875 85.546875 6.921875 79.882812 L 6.921875 16.382812 C 6.921875 10.71875 11.457031 6.125 17.046875 6.125 Z M 17.046875 6.125 "/>
</clipPath>
<clipPath id="clip67">
  <path d="M 82.125 48 L 90 48 L 90 59.625 L 82.125 59.625 Z M 82.125 48 "/>
</clipPath>
<clipPath id="clip68">
  <path d="M 17.046875 6.125 L 79.746094 6.125 C 85.339844 6.125 89.875 10.71875 89.875 16.382812 L 89.875 79.882812 C 89.875 85.546875 85.339844 90.140625 79.746094 90.140625 L 17.046875 90.140625 C 11.457031 90.140625 6.921875 85.546875 6.921875 79.882812 L 6.921875 16.382812 C 6.921875 10.71875 11.457031 6.125 17.046875 6.125 Z M 17.046875 6.125 "/>
</clipPath>
<clipPath id="clip69">
  <path d="M 6.75 6 L 48.5625 6 L 48.5625 48.1875 L 6.75 48.1875 Z M 6.75 6 "/>
</clipPath>
<clipPath id="clip70">
  <path d="M 17.046875 6.125 L 79.746094 6.125 C 85.339844 6.125 89.875 10.71875 89.875 16.382812 L 89.875 79.882812 C 89.875 85.546875 85.339844 90.140625 79.746094 90.140625 L 17.046875 90.140625 C 11.457031 90.140625 6.921875 85.546875 6.921875 79.882812 L 6.921875 16.382812 C 6.921875 10.71875 11.457031 6.125 17.046875 6.125 Z M 17.046875 6.125 "/>
</clipPath>
<clipPath id="clip71">
  <path d="M 6.75 36.5625 L 14.8125 36.5625 L 14.8125 48.1875 L 6.75 48.1875 Z M 6.75 36.5625 "/>
</clipPath>
<clipPath id="clip72">
  <path d="M 17.046875 6.125 L 79.746094 6.125 C 85.339844 6.125 89.875 10.71875 89.875 16.382812 L 89.875 79.882812 C 89.875 85.546875 85.339844 90.140625 79.746094 90.140625 L 17.046875 90.140625 C 11.457031 90.140625 6.921875 85.546875 6.921875 79.882812 L 6.921875 16.382812 C 6.921875 10.71875 11.457031 6.125 17.046875 6.125 Z M 17.046875 6.125 "/>
</clipPath>
<clipPath id="clip73">
  <path d="M 14.625 36.5625 L 26 36.5625 L 26 48.1875 L 14.625 48.1875 Z M 14.625 36.5625 "/>
</clipPath>
<clipPath id="clip74">
  <path d="M 17.046875 6.125 L 79.746094 6.125 C 85.339844 6.125 89.875 10.71875 89.875 16.382812 L 89.875 79.882812 C 89.875 85.546875 85.339844 90.140625 79.746094 90.140625 L 17.046875 90.140625 C 11.457031 90.140625 6.921875 85.546875 6.921875 79.882812 L 6.921875 16.382812 C 6.921875 10.71875 11.457031 6.125 17.046875 6.125 Z M 17.046875 6.125 "/>
</clipPath>
<clipPath id="clip75">
  <path d="M 25.875 36.5625 L 37.3125 36.5625 L 37.3125 48.1875 L 25.875 48.1875 Z M 25.875 36.5625 "/>
</clipPath>
<clipPath id="clip76">
  <path d="M 17.046875 6.125 L 79.746094 6.125 C 85.339844 6.125 89.875 10.71875 89.875 16.382812 L 89.875 79.882812 C 89.875 85.546875 85.339844 90.140625 79.746094 90.140625 L 17.046875 90.140625 C 11.457031 90.140625 6.921875 85.546875 6.921875 79.882812 L 6.921875 16.382812 C 6.921875 10.71875 11.457031 6.125 17.046875 6.125 Z M 17.046875 6.125 "/>
</clipPath>
<clipPath id="clip77">
  <path d="M 37.125 36.5625 L 48.5625 36.5625 L 48.5625 48.1875 L 37.125 48.1875 Z M 37.125 36.5625 "/>
</clipPath>
<clipPath id="clip78">
  <path d="M 17.046875 6.125 L 79.746094 6.125 C 85.339844 6.125 89.875 10.71875 89.875 16.382812 L 89.875 79.882812 C 89.875 85.546875 85.339844 90.140625 79.746094 90.140625 L 17.046875 90.140625 C 11.457031 90.140625 6.921875 85.546875 6.921875 79.882812 L 6.921875 16.382812 C 6.921875 10.71875 11.457031 6.125 17.046875 6.125 Z M 17.046875 6.125 "/>
</clipPath>
<clipPath id="clip79">
  <path d="M 48.375 36.5625 L 59.8125 36.5625 L 59.8125 48.1875 L 48.375 48.1875 Z M 48.375 36.5625 "/>
</clipPath>
<clipPath id="clip80">
  <path d="M 17.046875 6.125 L 79.746094 6.125 C 85.339844 6.125 89.875 10.71875 89.875 16.382812 L 89.875 79.882812 C 89.875 85.546875 85.339844 90.140625 79.746094 90.140625 L 17.046875 90.140625 C 11.457031 90.140625 6.921875 85.546875 6.921875 79.882812 L 6.921875 16.382812 C 6.921875 10.71875 11.457031 6.125 17.046875 6.125 Z M 17.046875 6.125 "/>
</clipPath>
<clipPath id="clip81">
  <path d="M 59.625 36.5625 L 71 36.5625 L 71 48.1875 L 59.625 48.1875 Z M 59.625 36.5625 "/>
</clipPath>
<clipPath id="clip82">
  <path d="M 17.046875 6.125 L 79.746094 6.125 C 85.339844 6.125 89.875 10.71875 89.875 16.382812 L 89.875 79.882812 C 89.875 85.546875 85.339844 90.140625 79.746094 90.140625 L 17.046875 90.140625 C 11.457031 90.140625 6.921875 85.546875 6.921875 79.882812 L 6.921875 16.382812 C 6.921875 10.71875 11.457031 6.125 17.046875 6.125 Z M 17.046875 6.125 "/>
</clipPath>
<clipPath id="clip83">
  <path d="M 70.875 36.5625 L 82.3125 36.5625 L 82.3125 48.1875 L 70.875 48.1875 Z M 70.875 36.5625 "/>
</clipPath>
<clipPath id="clip84">
  <path d="M 17.046875 6.125 L 79.746094 6.125 C 85.339844 6.125 89.875 10.71875 89.875 16.382812 L 89.875 79.882812 C 89.875 85.546875 85.339844 90.140625 79.746094 90.140625 L 17.046875 90.140625 C 11.457031 90.140625 6.921875 85.546875 6.921875 79.882812 L 6.921875 16.382812 C 6.921875 10.71875 11.457031 6.125 17.046875 6.125 Z M 17.046875 6.125 "/>
</clipPath>
<clipPath id="clip85">
  <path d="M 82.125 36.5625 L 90 36.5625 L 90 48.1875 L 82.125 48.1875 Z M 82.125 36.5625 "/>
</clipPath>
<clipPath id="clip86">
  <path d="M 17.046875 6.125 L 79.746094 6.125 C 85.339844 6.125 89.875 10.71875 89.875 16.382812 L 89.875 79.882812 C 89.875 85.546875 85.339844 90.140625 79.746094 90.140625 L 17.046875 90.140625 C 11.457031 90.140625 6.921875 85.546875 6.921875 79.882812 L 6.921875 16.382812 C 6.921875 10.71875 11.457031 6.125 17.046875 6.125 Z M 17.046875 6.125 "/>
</clipPath>
<clipPath id="clip87">
  <path d="M 6.75 25.3125 L 14.8125 25.3125 L 14.8125 36.75 L 6.75 36.75 Z M 6.75 25.3125 "/>
</clipPath>
<clipPath id="clip88">
  <path d="M 17.046875 6.125 L 79.746094 6.125 C 85.339844 6.125 89.875 10.71875 89.875 16.382812 L 89.875 79.882812 C 89.875 85.546875 85.339844 90.140625 79.746094 90.140625 L 17.046875 90.140625 C 11.457031 90.140625 6.921875 85.546875 6.921875 79.882812 L 6.921875 16.382812 C 6.921875 10.71875 11.457031 6.125 17.046875 6.125 Z M 17.046875 6.125 "/>
</clipPath>
<clipPath id="clip89">
  <path d="M 14.625 25.3125 L 26 25.3125 L 26 36.75 L 14.625 36.75 Z M 14.625 25.3125 "/>
</clipPath>
<clipPath id="clip90">
  <path d="M 17.046875 6.125 L 79.746094 6.125 C 85.339844 6.125 89.875 10.71875 89.875 16.382812 L 89.875 79.882812 C 89.875 85.546875 85.339844 90.140625 79.746094 90.140625 L 17.046875 90.140625 C 11.457031 90.140625 6.921875 85.546875 6.921875 79.882812 L 6.921875 16.382812 C 6.921875 10.71875 11.457031 6.125 17.046875 6.125 Z M 17.046875 6.125 "/>
</clipPath>
<clipPath id="clip91">
  <path d="M 25.875 25.3125 L 37.3125 25.3125 L 37.3125 36.75 L 25.875 36.75 Z M 25.875 25.3125 "/>
</clipPath>
<clipPath id="clip92">
  <path d="M 17.046875 6.125 L 79.746094 6.125 C 85.339844 6.125 89.875 10.71875 89.875 16.382812 L 89.875 79.882812 C 89.875 85.546875 85.339844 90.140625 79.746094 90.140625 L 17.046875 90.140625 C 11.457031 90.140625 6.921875 85.546875 6.921875 79.882812 L 6.921875 16.382812 C 6.921875 10.71875 11.457031 6.125 17.046875 6.125 Z M 17.046875 6.125 "/>
</clipPath>
<clipPath id="clip93">
  <path d="M 37.125 25.3125 L 48.5625 25.3125 L 48.5625 36.75 L 37.125 36.75 Z M 37.125 25.3125 "/>
</clipPath>
<clipPath id="clip94">
  <path d="M 17.046875 6.125 L 79.746094 6.125 C 85.339844 6.125 89.875 10.71875 89.875 16.382812 L 89.875 79.882812 C 89.875 85.546875 85.339844 90.140625 79.746094 90.140625 L 17.046875 90.140625 C 11.457031 90.140625 6.921875 85.546875 6.921875 79.882812 L 6.921875 16.382812 C 6.921875 10.71875 11.457031 6.125 17.046875 6.125 Z M 17.046875 6.125 "/>
</clipPath>
<clipPath id="clip95">
  <path d="M 48.375 25.3125 L 59.8125 25.3125 L 59.8125 36.75 L 48.375 36.75 Z M 48.375 25.3125 "/>
</clipPath>
<clipPath id="clip96">
  <path d="M 17.046875 6.125 L 79.746094 6.125 C 85.339844 6.125 89.875 10.71875 89.875 16.382812 L 89.875 79.882812 C 89.875 85.546875 85.339844 90.140625 79.746094 90.140625 L 17.046875 90.140625 C 11.457031 90.140625 6.921875 85.546875 6.921875 79.882812 L 6.921875 16.382812 C 6.921875 10.71875 11.457031 6.125 17.046875 6.125 Z M 17.046875 6.125 "/>
</clipPath>
<clipPath id="clip97">
  <path d="M 59.625 25.3125 L 71 25.3125 L 71 36.75 L 59.625 36.75 Z M 59.625 25.3125 "/>
</clipPath>
<clipPath id="clip98">
  <path d="M 17.046875 6.125 L 79.746094 6.125 C 85.339844 6.125 89.875 10.71875 89.875 16.382812 L 89.875 79.882812 C 89.875 85.546875 85.339844 90.140625 79.746094 90.140625 L 17.046875 90.140625 C 11.457031 90.140625 6.921875 85.546875 6.921875 79.882812 L 6.921875 16.382812 C 6.921875 10.71875 11.457031 6.125 17.046875 6.125 Z M 17.046875 6.125 "/>
</clipPath>
<clipPath id="clip99">
  <path d="M 70.875 25.3125 L 82.3125 25.3125 L 82.3125 36.75 L 70.875 36.75 Z M 70.875 25.3125 "/>
</clipPath>
<clipPath id="clip100">
  <path d="M 17.046875 6.125 L 79.746094 6.125 C 85.339844 6.125 89.875 10.71875 89.875 16.382812 L 89.875 79.882812 C 89.875 85.546875 85.339844 90.140625 79.746094 90.140625 L 17.046875 90.140625 C 11.457031 90.140625 6.921875 85.546875 6.921875 79.882812 L 6.921875 16.382812 C 6.921875 10.71875 11.457031 6.125 17.046875 6.125 Z M 17.046875 6.125 "/>
</clipPath>
<clipPath id="clip101">
  <path d="M 82.125 25.3125 L 90 25.3125 L 90 36.75 L 82.125 36.75 Z M 82.125 25.3125 "/>
</clipPath>
<clipPath id="clip102">
  <path d="M 17.046875 6.125 L 79.746094 6.125 C 85.339844 6.125 89.875 10.71875 89.875 16.382812 L 89.875 79.882812 C 89.875 85.546875 85.339844 90.140625 79.746094 90.140625 L 17.046875 90.140625 C 11.457031 90.140625 6.921875 85.546875 6.921875 79.882812 L 6.921875 16.382812 C 6.921875 10.71875 11.457031 6.125 17.046875 6.125 Z M 17.046875 6.125 "/>
</clipPath>
<clipPath id="clip103">
  <path d="M 6.75 13.875 L 14.8125 13.875 L 14.8125 25.5 L 6.75 25.5 Z M 6.75 13.875 "/>
</clipPath>
<clipPath id="clip104">
  <path d="M 17.046875 6.125 L 79.746094 6.125 C 85.339844 6.125 89.875 10.71875 89.875 16.382812 L 89.875 79.882812 C 89.875 85.546875 85.339844 90.140625 79.746094 90.140625 L 17.046875 90.140625 C 11.457031 90.140625 6.921875 85.546875 6.921875 79.882812 L 6.921875 16.382812 C 6.921875 10.71875 11.457031 6.125 17.046875 6.125 Z M 17.046875 6.125 "/>
</clipPath>
<clipPath id="clip105">
  <path d="M 14.625 13.875 L 26 13.875 L 26 25.5 L 14.625 25.5 Z M 14.625 13.875 "/>
</clipPath>
<clipPath id="clip106">
  <path d="M 17.046875 6.125 L 79.746094 6.125 C 85.339844 6.125 89.875 10.71875 89.875 16.382812 L 89.875 79.882812 C 89.875 85.546875 85.339844 90.140625 79.746094 90.140625 L 17.046875 90.140625 C 11.457031 90.140625 6.921875 85.546875 6.921875 79.882812 L 6.921875 16.382812 C 6.921875 10.71875 11.457031 6.125 17.046875 6.125 Z M 17.046875 6.125 "/>
</clipPath>
<clipPath id="clip107">
  <path d="M 25.875 13.875 L 37.3125 13.875 L 37.3125 25.5 L 25.875 25.5 Z M 25.875 13.875 "/>
</clipPath>
<clipPath id="clip108">
  <path d="M 17.046875 6.125 L 79.746094 6.125 C 85.339844 6.125 89.875 10.71875 89.875 16.382812 L 89.875 79.882812 C 89.875 85.546875 85.339844 90.140625 79.746094 90.140625 L 17.046875 90.140625 C 11.457031 90.140625 6.921875 85.546875 6.921875 79.882812 L 6.921875 16.382812 C 6.921875 10.71875 11.457031 6.125 17.046875 6.125 Z M 17.046875 6.125 "/>
</clipPath>
<clipPath id="clip109">
  <path d="M 37.125 13.875 L 48.5625 13.875 L 48.5625 25.5 L 37.125 25.5 Z M 37.125 13.875 "/>
</clipPath>
<clipPath id="clip110">
  <path d="M 17.046875 6.125 L 79.746094 6.125 C 85.339844 6.125 89.875 10.71875 89.875 16.382812 L 89.875 79.882812 C 89.875 85.546875 85.339844 90.140625 79.746094 90.140625 L 17.046875 90.140625 C 11.457031 90.140625 6.921875 85.546875 6.921875 79.882812 L 6.921875 16.382812 C 6.921875 10.71875 11.457031 6.125 17.046875 6.125 Z M 17.046875 6.125 "/>
</clipPath>
<clipPath id="clip111">
  <path d="M 48.375 13.875 L 59.8125 13.875 L 59.8125 25.5 L 48.375 25.5 Z M 48.375 13.875 "/>
</clipPath>
<clipPath id="clip112">
  <path d="M 17.046875 6.125 L 79.746094 6.125 C 85.339844 6.125 89.875 10.71875 89.875 16.382812 L 89.875 79.882812 C 89.875 85.546875 85.339844 90.140625 79.746094 90.140625 L 17.046875 90.140625 C 11.457031 90.140625 6.921875 85.546875 6.921875 79.882812 L 6.921875 16.382812 C 6.921875 10.71875 11.457031 6.125 17.046875 6.125 Z M 17.046875 6.125 "/>
</clipPath>
<clipPath id="clip113">
  <path d="M 59.625 13.875 L 71 13.875 L 71 25.5 L 59.625 25.5 Z M 59.625 13.875 "/>
</clipPath>
<clipPath id="clip114">
  <path d="M 17.046875 6.125 L 79.746094 6.125 C 85.339844 6.125 89.875 10.71875 89.875 16.382812 L 89.875 79.882812 C 89.875 85.546875 85.339844 90.140625 79.746094 90.140625 L 17.046875 90.140625 C 11.457031 90.140625 6.921875 85.546875 6.921875 79.882812 L 6.921875 16.382812 C 6.921875 10.71875 11.457031 6.125 17.046875 6.125 Z M 17.046875 6.125 "/>
</clipPath>
<clipPath id="clip115">
  <path d="M 70.875 13.875 L 82.3125 13.875 L 82.3125 25.5 L 70.875 25.5 Z M 70.875 13.875 "/>
</clipPath>
<clipPath id="clip116">
  <path d="M 17.046875 6.125 L 79.746094 6.125 C 85.339844 6.125 89.875 10.71875 89.875 16.382812 L 89.875 79.882812 C 89.875 85.546875 85.339844 90.140625 79.746094 90.140625 L 17.046875 90.140625 C 11.457031 90.140625 6.921875 85.546875 6.921875 79.882812 L 6.921875 16.382812 C 6.921875 10.71875 11.457031 6.125 17.046875 6.125 Z M 17.046875 6.125 "/>
</clipPath>
<clipPath id="clip117">
  <path d="M 82.125 13.875 L 90 13.875 L 90 25.5 L 82.125 25.5 Z M 82.125 13.875 "/>
</clipPath>
<clipPath id="clip118">
  <path d="M 17.046875 6.125 L 79.746094 6.125 C 85.339844 6.125 89.875 10.71875 89.875 16.382812 L 89.875 79.882812 C 89.875 85.546875 85.339844 90.140625 79.746094 90.140625 L 17.046875 90.140625 C 11.457031 90.140625 6.921875 85.546875 6.921875 79.882812 L 6.921875 16.382812 C 6.921875 10.71875 11.457031 6.125 17.046875 6.125 Z M 17.046875 6.125 "/>
</clipPath>
<clipPath id="clip119">
  <path d="M 6.75 6 L 14.8125 6 L 14.8125 14 L 6.75 14 Z M 6.75 6 "/>
</clipPath>
<clipPath id="clip120">
  <path d="M 17.046875 6.125 L 79.746094 6.125 C 85.339844 6.125 89.875 10.71875 89.875 16.382812 L 89.875 79.882812 C 89.875 85.546875 85.339844 90.140625 79.746094 90.140625 L 17.046875 90.140625 C 11.457031 90.140625 6.921875 85.546875 6.921875 79.882812 L 6.921875 16.382812 C 6.921875 10.71875 11.457031 6.125 17.046875 6.125 Z M 17.046875 6.125 "/>
</clipPath>
<clipPath id="clip121">
  <path d="M 14.625 6 L 26 6 L 26 14 L 14.625 14 Z M 14.625 6 "/>
</clipPath>
<clipPath id="clip122">
  <path d="M 17.046875 6.125 L 79.746094 6.125 C 85.339844 6.125 89.875 10.71875 89.875 16.382812 L 89.875 79.882812 C 89.875 85.546875 85.339844 90.140625 79.746094 90.140625 L 17.046875 90.140625 C 11.457031 90.140625 6.921875 85.546875 6.921875 79.882812 L 6.921875 16.382812 C 6.921875 10.71875 11.457031 6.125 17.046875 6.125 Z M 17.046875 6.125 "/>
</clipPath>
<clipPath id="clip123">
  <path d="M 25.875 6 L 37.3125 6 L 37.3125 14 L 25.875 14 Z M 25.875 6 "/>
</clipPath>
<clipPath id="clip124">
  <path d="M 17.046875 6.125 L 79.746094 6.125 C 85.339844 6.125 89.875 10.71875 89.875 16.382812 L 89.875 79.882812 C 89.875 85.546875 85.339844 90.140625 79.746094 90.140625 L 17.046875 90.140625 C 11.457031 90.140625 6.921875 85.546875 6.921875 79.882812 L 6.921875 16.382812 C 6.921875 10.71875 11.457031 6.125 17.046875 6.125 Z M 17.046875 6.125 "/>
</clipPath>
<clipPath id="clip125">
  <path d="M 37.125 6 L 48.5625 6 L 48.5625 14 L 37.125 14 Z M 37.125 6 "/>
</clipPath>
<clipPath id="clip126">
  <path d="M 17.046875 6.125 L 79.746094 6.125 C 85.339844 6.125 89.875 10.71875 89.875 16.382812 L 89.875 79.882812 C 89.875 85.546875 85.339844 90.140625 79.746094 90.140625 L 17.046875 90.140625 C 11.457031 90.140625 6.921875 85.546875 6.921875 79.882812 L 6.921875 16.382812 C 6.921875 10.71875 11.457031 6.125 17.046875 6.125 Z M 17.046875 6.125 "/>
</clipPath>
<clipPath id="clip127">
  <path d="M 48.375 6 L 59.8125 6 L 59.8125 14 L 48.375 14 Z M 48.375 6 "/>
</clipPath>
<clipPath id="clip128">
  <path d="M 17.046875 6.125 L 79.746094 6.125 C 85.339844 6.125 89.875 10.71875 89.875 16.382812 L 89.875 79.882812 C 89.875 85.546875 85.339844 90.140625 79.746094 90.140625 L 17.046875 90.140625 C 11.457031 90.140625 6.921875 85.546875 6.921875 79.882812 L 6.921875 16.382812 C 6.921875 10.71875 11.457031 6.125 17.046875 6.125 Z M 17.046875 6.125 "/>
</clipPath>
<clipPath id="clip129">
  <path d="M 59.625 6 L 71 6 L 71 14 L 59.625 14 Z M 59.625 6 "/>
</clipPath>
<clipPath id="clip130">
  <path d="M 17.046875 6.125 L 79.746094 6.125 C 85.339844 6.125 89.875 10.71875 89.875 16.382812 L 89.875 79.882812 C 89.875 85.546875 85.339844 90.140625 79.746094 90.140625 L 17.046875 90.140625 C 11.457031 90.140625 6.921875 85.546875 6.921875 79.882812 L 6.921875 16.382812 C 6.921875 10.71875 11.457031 6.125 17.046875 6.125 Z M 17.046875 6.125 "/>
</clipPath>
<clipPath id="clip131">
  <path d="M 70.875 6 L 82.3125 6 L 82.3125 14 L 70.875 14 Z M 70.875 6 "/>
</clipPath>
<clipPath id="clip132">
  <path d="M 17.046875 6.125 L 79.746094 6.125 C 85.339844 6.125 89.875 10.71875 89.875 16.382812 L 89.875 79.882812 C 89.875 85.546875 85.339844 90.140625 79.746094 90.140625 L 17.046875 90.140625 C 11.457031 90.140625 6.921875 85.546875 6.921875 79.882812 L 6.921875 16.382812 C 6.921875 10.71875 11.457031 6.125 17.046875 6.125 Z M 17.046875 6.125 "/>
</clipPath>
<clipPath id="clip133">
  <path d="M 82.125 6 L 90 6 L 90 14 L 82.125 14 Z M 82.125 6 "/>
</clipPath>
<clipPath id="clip134">
  <path d="M 17.046875 6.125 L 79.746094 6.125 C 85.339844 6.125 89.875 10.71875 89.875 16.382812 L 89.875 79.882812 C 89.875 85.546875 85.339844 90.140625 79.746094 90.140625 L 17.046875 90.140625 C 11.457031 90.140625 6.921875 85.546875 6.921875 79.882812 L 6.921875 16.382812 C 6.921875 10.71875 11.457031 6.125 17.046875 6.125 Z M 17.046875 6.125 "/>
</clipPath>
<clipPath id="clip135">
  <path d="M 6.75 6 L 90 6 L 90 48.1875 L 6.75 48.1875 Z M 6.75 6 "/>
</clipPath>
<clipPath id="clip136">
  <path d="M 17.046875 6.125 L 79.746094 6.125 C 85.339844 6.125 89.875 10.71875 89.875 16.382812 L 89.875 79.882812 C 89.875 85.546875 85.339844 90.140625 79.746094 90.140625 L 17.046875 90.140625 C 11.457031 90.140625 6.921875 85.546875 6.921875 79.882812 L 6.921875 16.382812 C 6.921875 10.71875 11.457031 6.125 17.046875 6.125 Z M 17.046875 6.125 "/>
</clipPath>
<clipPath id="clip137">
  <path d="M 6.75 25.3125 L 90 25.3125 L 90 90.1875 L 6.75 90.1875 Z M 6.75 25.3125 "/>
</clipPath>
<clipPath id="clip138">
  <path d="M 17.046875 6.125 L 79.746094 6.125 C 85.339844 6.125 89.875 10.71875 89.875 16.382812 L 89.875 79.882812 C 89.875 85.546875 85.339844 90.140625 79.746094 90.140625 L 17.046875 90.140625 C 11.457031 90.140625 6.921875 85.546875 6.921875 79.882812 L 6.921875 16.382812 C 6.921875 10.71875 11.457031 6.125 17.046875 6.125 Z M 17.046875 6.125 "/>
</clipPath>
</defs>
<g id="surface1">
<path style="fill-rule:nonzero;fill:rgb(92.54902%,92.54902%,92.54902%);fill-opacity:1;stroke-width:7.017838;stroke-linecap:butt;stroke-linejoin:miter;stroke:rgb(41.176471%,28.627451%,16.862745%);stroke-opacity:1;stroke-miterlimit:4;" d="M 405.128722 426.318833 L 492.014138 426.318833 C 499.769347 426.318833 506.050597 432.605292 506.050597 440.355292 L 506.050597 527.240708 C 506.050597 534.995917 499.769347 541.277167 492.014138 541.277167 L 405.128722 541.277167 C 397.378722 541.277167 391.092263 534.995917 391.092263 527.240708 L 391.092263 440.355292 C 391.092263 432.605292 397.378722 426.318833 405.128722 426.318833 Z M 405.128722 426.318833 " transform="matrix(0.75,0,0,0.75,-288.428573,-314.8485)"/>
<g clip-path="url(#clip1)" clip-rule="nonzero">
<g clip-path="url(#clip2)" clip-rule="nonzero">
<path style=" stroke:none;fill-rule:nonzero;fill:rgb(46.27451%,74.117647%,45.490196%);fill-opacity:1;" d="M 3.414062 2.574219 L 93.382812 2.574219 L 93.382812 93.691406 L 3.414062 93.691406 Z M 3.414062 2.574219 "/>
</g>
</g>
<g clip-path="url(#clip3)" clip-rule="nonzero">
<g clip-path="url(#clip4)" clip-rule="nonzero">
<path style=" stroke:none;fill-rule:nonzero;fill:rgb(35.686275%,69.019608%,34.901961%);fill-opacity:1;" d="M 3.414062 48.132812 L 48.398438 48.132812 L 48.398438 93.691406 L 3.414062 93.691406 Z M 3.414062 48.132812 "/>
</g>
</g>
<g clip-path="url(#clip5)" clip-rule="nonzero">
<g clip-path="url(#clip6)" clip-rule="nonzero">
<path style=" stroke:none;fill-rule:nonzero;fill:rgb(56.078431%,38.823529%,20.784314%);fill-opacity:1;" d="M 3.414062 82.300781 L 14.660156 82.300781 L 14.660156 93.691406 L 3.414062 93.691406 Z M 3.414062 82.300781 "/>
</g>
</g>
<g clip-path="url(#clip7)" clip-rule="nonzero">
<g clip-path="url(#clip8)" clip-rule="nonzero">
<path style=" stroke:none;fill-rule:nonzero;fill:rgb(63.529412%,43.921569%,23.529412%);fill-opacity:1;" d="M 14.660156 82.300781 L 25.90625 82.300781 L 25.90625 93.691406 L 14.660156 93.691406 Z M 14.660156 82.300781 "/>
</g>
</g>
<g clip-path="url(#clip9)" clip-rule="nonzero">
<g clip-path="url(#clip10)" clip-rule="nonzero">
<path style=" stroke:none;fill-rule:nonzero;fill:rgb(52.941176%,36.470588%,19.607843%);fill-opacity:1;" d="M 25.90625 82.300781 L 37.152344 82.300781 L 37.152344 93.691406 L 25.90625 93.691406 Z M 25.90625 82.300781 "/>
</g>
</g>
<g clip-path="url(#clip11)" clip-rule="nonzero">
<g clip-path="url(#clip12)" clip-rule="nonzero">
<path style=" stroke:none;fill-rule:nonzero;fill:rgb(71.764706%,47.45098%,22.352941%);fill-opacity:1;" d="M 37.152344 82.300781 L 48.398438 82.300781 L 48.398438 93.691406 L 37.152344 93.691406 Z M 37.152344 82.300781 "/>
</g>
</g>
<g clip-path="url(#clip13)" clip-rule="nonzero">
<g clip-path="url(#clip14)" clip-rule="nonzero">
<path style=" stroke:none;fill-rule:nonzero;fill:rgb(58.431373%,40.784314%,21.568627%);fill-opacity:1;" d="M 48.398438 82.300781 L 59.644531 82.300781 L 59.644531 93.691406 L 48.398438 93.691406 Z M 48.398438 82.300781 "/>
</g>
</g>
<g clip-path="url(#clip15)" clip-rule="nonzero">
<g clip-path="url(#clip16)" clip-rule="nonzero">
<path style=" stroke:none;fill-rule:nonzero;fill:rgb(63.529412%,43.921569%,23.529412%);fill-opacity:1;" d="M 59.644531 82.300781 L 70.890625 82.300781 L 70.890625 93.691406 L 59.644531 93.691406 Z M 59.644531 82.300781 "/>
</g>
</g>
<g clip-path="url(#clip17)" clip-rule="nonzero">
<g clip-path="url(#clip18)" clip-rule="nonzero">
<path style=" stroke:none;fill-rule:nonzero;fill:rgb(58.431373%,40.784314%,21.568627%);fill-opacity:1;" d="M 70.890625 82.300781 L 82.136719 82.300781 L 82.136719 93.691406 L 70.890625 93.691406 Z M 70.890625 82.300781 "/>
</g>
</g>
<g clip-path="url(#clip19)" clip-rule="nonzero">
<g clip-path="url(#clip20)" clip-rule="nonzero">
<path style=" stroke:none;fill-rule:nonzero;fill:rgb(63.529412%,43.921569%,23.529412%);fill-opacity:1;" d="M 82.136719 82.300781 L 93.382812 82.300781 L 93.382812 93.691406 L 82.136719 93.691406 Z M 82.136719 82.300781 "/>
</g>
</g>
<g clip-path="url(#clip21)" clip-rule="nonzero">
<g clip-path="url(#clip22)" clip-rule="nonzero">
<path style=" stroke:none;fill-rule:nonzero;fill:rgb(63.529412%,43.921569%,23.529412%);fill-opacity:1;" d="M 3.414062 70.914062 L 14.660156 70.914062 L 14.660156 82.300781 L 3.414062 82.300781 Z M 3.414062 70.914062 "/>
</g>
</g>
<g clip-path="url(#clip23)" clip-rule="nonzero">
<g clip-path="url(#clip24)" clip-rule="nonzero">
<path style=" stroke:none;fill-rule:nonzero;fill:rgb(58.039216%,43.529412%,17.647059%);fill-opacity:1;" d="M 14.660156 70.914062 L 25.90625 70.914062 L 25.90625 82.300781 L 14.660156 82.300781 Z M 14.660156 70.914062 "/>
</g>
</g>
<g clip-path="url(#clip25)" clip-rule="nonzero">
<g clip-path="url(#clip26)" clip-rule="nonzero">
<path style=" stroke:none;fill-rule:nonzero;fill:rgb(56.078431%,38.823529%,20.784314%);fill-opacity:1;" d="M 25.90625 70.914062 L 37.152344 70.914062 L 37.152344 82.300781 L 25.90625 82.300781 Z M 25.90625 70.914062 "/>
</g>
</g>
<g clip-path="url(#clip27)" clip-rule="nonzero">
<g clip-path="url(#clip28)" clip-rule="nonzero">
<path style=" stroke:none;fill-rule:nonzero;fill:rgb(66.666667%,43.921569%,20.392157%);fill-opacity:1;" d="M 37.152344 70.914062 L 48.398438 70.914062 L 48.398438 82.300781 L 37.152344 82.300781 Z M 37.152344 70.914062 "/>
</g>
</g>
<g clip-path="url(#clip29)" clip-rule="nonzero">
<g clip-path="url(#clip30)" clip-rule="nonzero">
<path style=" stroke:none;fill-rule:nonzero;fill:rgb(58.431373%,40.784314%,21.568627%);fill-opacity:1;" d="M 48.398438 70.914062 L 59.644531 70.914062 L 59.644531 82.300781 L 48.398438 82.300781 Z M 48.398438 70.914062 "/>
</g>
</g>
<g clip-path="url(#clip31)" clip-rule="nonzero">
<g clip-path="url(#clip32)" clip-rule="nonzero">
<path style=" stroke:none;fill-rule:nonzero;fill:rgb(56.078431%,38.823529%,20.784314%);fill-opacity:1;" d="M 59.644531 70.914062 L 70.890625 70.914062 L 70.890625 82.300781 L 59.644531 82.300781 Z M 59.644531 70.914062 "/>
</g>
</g>
<g clip-path="url(#clip33)" clip-rule="nonzero">
<g clip-path="url(#clip34)" clip-rule="nonzero">
<path style=" stroke:none;fill-rule:nonzero;fill:rgb(56.078431%,38.823529%,20.784314%);fill-opacity:1;" d="M 70.890625 70.914062 L 82.136719 70.914062 L 82.136719 82.300781 L 70.890625 82.300781 Z M 70.890625 70.914062 "/>
</g>
</g>
<g clip-path="url(#clip35)" clip-rule="nonzero">
<g clip-path="url(#clip36)" clip-rule="nonzero">
<path style=" stroke:none;fill-rule:nonzero;fill:rgb(67.45098%,46.666667%,25.098039%);fill-opacity:1;" d="M 82.136719 70.914062 L 93.382812 70.914062 L 93.382812 82.300781 L 82.136719 82.300781 Z M 82.136719 70.914062 "/>
</g>
</g>
<g clip-path="url(#clip37)" clip-rule="nonzero">
<g clip-path="url(#clip38)" clip-rule="nonzero">
<path style=" stroke:none;fill-rule:nonzero;fill:rgb(63.921569%,41.960784%,18.823529%);fill-opacity:1;" d="M 3.414062 59.523438 L 14.660156 59.523438 L 14.660156 70.914062 L 3.414062 70.914062 Z M 3.414062 59.523438 "/>
</g>
</g>
<g clip-path="url(#clip39)" clip-rule="nonzero">
<g clip-path="url(#clip40)" clip-rule="nonzero">
<path style=" stroke:none;fill-rule:nonzero;fill:rgb(63.529412%,43.921569%,23.529412%);fill-opacity:1;" d="M 14.660156 59.523438 L 25.90625 59.523438 L 25.90625 70.914062 L 14.660156 70.914062 Z M 14.660156 59.523438 "/>
</g>
</g>
<g clip-path="url(#clip41)" clip-rule="nonzero">
<g clip-path="url(#clip42)" clip-rule="nonzero">
<path style=" stroke:none;fill-rule:nonzero;fill:rgb(48.627451%,31.372549%,18.039216%);fill-opacity:1;" d="M 25.90625 59.523438 L 37.152344 59.523438 L 37.152344 70.914062 L 25.90625 70.914062 Z M 25.90625 59.523438 "/>
</g>
</g>
<g clip-path="url(#clip43)" clip-rule="nonzero">
<g clip-path="url(#clip44)" clip-rule="nonzero">
<path style=" stroke:none;fill-rule:nonzero;fill:rgb(63.529412%,43.921569%,23.529412%);fill-opacity:1;" d="M 37.152344 59.523438 L 48.398438 59.523438 L 48.398438 70.914062 L 37.152344 70.914062 Z M 37.152344 59.523438 "/>
</g>
</g>
<g clip-path="url(#clip45)" clip-rule="nonzero">
<g clip-path="url(#clip46)" clip-rule="nonzero">
<path style=" stroke:none;fill-rule:nonzero;fill:rgb(73.72549%,51.764706%,29.019608%);fill-opacity:1;" d="M 48.398438 59.523438 L 59.644531 59.523438 L 59.644531 70.914062 L 48.398438 70.914062 Z M 48.398438 59.523438 "/>
</g>
</g>
<g clip-path="url(#clip47)" clip-rule="nonzero">
<g clip-path="url(#clip48)" clip-rule="nonzero">
<path style=" stroke:none;fill-rule:nonzero;fill:rgb(63.529412%,43.921569%,23.529412%);fill-opacity:1;" d="M 59.644531 59.523438 L 70.890625 59.523438 L 70.890625 70.914062 L 59.644531 70.914062 Z M 59.644531 59.523438 "/>
</g>
</g>
<g clip-path="url(#clip49)" clip-rule="nonzero">
<g clip-path="url(#clip50)" clip-rule="nonzero">
<path style=" stroke:none;fill-rule:nonzero;fill:rgb(52.54902%,41.960784%,23.137255%);fill-opacity:1;" d="M 70.890625 59.523438 L 82.136719 59.523438 L 82.136719 70.914062 L 70.890625 70.914062 Z M 70.890625 59.523438 "/>
</g>
</g>
<g clip-path="url(#clip51)" clip-rule="nonzero">
<g clip-path="url(#clip52)" clip-rule="nonzero">
<path style=" stroke:none;fill-rule:nonzero;fill:rgb(63.529412%,43.921569%,23.529412%);fill-opacity:1;" d="M 82.136719 59.523438 L 93.382812 59.523438 L 93.382812 70.914062 L 82.136719 70.914062 Z M 82.136719 59.523438 "/>
</g>
</g>
<g clip-path="url(#clip53)" clip-rule="nonzero">
<g clip-path="url(#clip54)" clip-rule="nonzero">
<path style=" stroke:none;fill-rule:nonzero;fill:rgb(63.529412%,43.921569%,23.529412%);fill-opacity:1;" d="M 3.414062 48.132812 L 14.660156 48.132812 L 14.660156 59.523438 L 3.414062 59.523438 Z M 3.414062 48.132812 "/>
</g>
</g>
<g clip-path="url(#clip55)" clip-rule="nonzero">
<g clip-path="url(#clip56)" clip-rule="nonzero">
<path style=" stroke:none;fill-rule:nonzero;fill:rgb(58.431373%,40.784314%,21.568627%);fill-opacity:1;" d="M 14.660156 48.132812 L 25.90625 48.132812 L 25.90625 59.523438 L 14.660156 59.523438 Z M 14.660156 48.132812 "/>
</g>
</g>
<g clip-path="url(#clip57)" clip-rule="nonzero">
<g clip-path="url(#clip58)" clip-rule="nonzero">
<path style=" stroke:none;fill-rule:nonzero;fill:rgb(63.921569%,41.960784%,18.823529%);fill-opacity:1;" d="M 25.90625 48.132812 L 37.152344 48.132812 L 37.152344 59.523438 L 25.90625 59.523438 Z M 25.90625 48.132812 "/>
</g>
</g>
<g clip-path="url(#clip59)" clip-rule="nonzero">
<g clip-path="url(#clip60)" clip-rule="nonzero">
<path style=" stroke:none;fill-rule:nonzero;fill:rgb(67.058824%,43.921569%,20%);fill-opacity:1;" d="M 37.152344 48.132812 L 48.398438 48.132812 L 48.398438 59.523438 L 37.152344 59.523438 Z M 37.152344 48.132812 "/>
</g>
</g>
<g clip-path="url(#clip61)" clip-rule="nonzero">
<g clip-path="url(#clip62)" clip-rule="nonzero">
<path style=" stroke:none;fill-rule:nonzero;fill:rgb(56.078431%,38.823529%,20.784314%);fill-opacity:1;" d="M 48.398438 48.132812 L 59.644531 48.132812 L 59.644531 59.523438 L 48.398438 59.523438 Z M 48.398438 48.132812 "/>
</g>
</g>
<g clip-path="url(#clip63)" clip-rule="nonzero">
<g clip-path="url(#clip64)" clip-rule="nonzero">
<path style=" stroke:none;fill-rule:nonzero;fill:rgb(51.764706%,33.333333%,19.215686%);fill-opacity:1;" d="M 59.644531 48.132812 L 70.890625 48.132812 L 70.890625 59.523438 L 59.644531 59.523438 Z M 59.644531 48.132812 "/>
</g>
</g>
<g clip-path="url(#clip65)" clip-rule="nonzero">
<g clip-path="url(#clip66)" clip-rule="nonzero">
<path style=" stroke:none;fill-rule:nonzero;fill:rgb(63.529412%,43.921569%,23.529412%);fill-opacity:1;" d="M 70.890625 48.132812 L 82.136719 48.132812 L 82.136719 59.523438 L 70.890625 59.523438 Z M 70.890625 48.132812 "/>
</g>
</g>
<g clip-path="url(#clip67)" clip-rule="nonzero">
<g clip-path="url(#clip68)" clip-rule="nonzero">
<path style=" stroke:none;fill-rule:nonzero;fill:rgb(67.45098%,46.666667%,25.098039%);fill-opacity:1;" d="M 82.136719 48.132812 L 93.382812 48.132812 L 93.382812 59.523438 L 82.136719 59.523438 Z M 82.136719 48.132812 "/>
</g>
</g>
<g clip-path="url(#clip69)" clip-rule="nonzero">
<g clip-path="url(#clip70)" clip-rule="nonzero">
<path style=" stroke:none;fill-rule:nonzero;fill:rgb(35.686275%,69.019608%,34.901961%);fill-opacity:1;" d="M 3.414062 2.574219 L 48.398438 2.574219 L 48.398438 48.132812 L 3.414062 48.132812 Z M 3.414062 2.574219 "/>
</g>
</g>
<g clip-path="url(#clip71)" clip-rule="nonzero">
<g clip-path="url(#clip72)" clip-rule="nonzero">
<path style=" stroke:none;fill-rule:nonzero;fill:rgb(24.705882%,63.137255%,23.921569%);fill-opacity:1;" d="M 3.414062 36.742188 L 14.660156 36.742188 L 14.660156 48.132812 L 3.414062 48.132812 Z M 3.414062 36.742188 "/>
</g>
</g>
<g clip-path="url(#clip73)" clip-rule="nonzero">
<g clip-path="url(#clip74)" clip-rule="nonzero">
<path style=" stroke:none;fill-rule:nonzero;fill:rgb(40.392157%,27.843137%,14.901961%);fill-opacity:1;" d="M 14.660156 36.742188 L 25.90625 36.742188 L 25.90625 48.132812 L 14.660156 48.132812 Z M 14.660156 36.742188 "/>
</g>
</g>
<g clip-path="url(#clip75)" clip-rule="nonzero">
<g clip-path="url(#clip76)" clip-rule="nonzero">
<path style=" stroke:none;fill-rule:nonzero;fill:rgb(63.921569%,41.960784%,18.823529%);fill-opacity:1;" d="M 25.90625 36.742188 L 37.152344 36.742188 L 37.152344 48.132812 L 25.90625 48.132812 Z M 25.90625 36.742188 "/>
</g>
</g>
<g clip-path="url(#clip77)" clip-rule="nonzero">
<g clip-path="url(#clip78)" clip-rule="nonzero">
<path style=" stroke:none;fill-rule:nonzero;fill:rgb(59.215686%,43.921569%,27.843137%);fill-opacity:1;" d="M 37.152344 36.742188 L 48.398438 36.742188 L 48.398438 48.132812 L 37.152344 48.132812 Z M 37.152344 36.742188 "/>
</g>
</g>
<g clip-path="url(#clip79)" clip-rule="nonzero">
<g clip-path="url(#clip80)" clip-rule="nonzero">
<path style=" stroke:none;fill-rule:nonzero;fill:rgb(63.921569%,41.960784%,18.823529%);fill-opacity:1;" d="M 48.398438 36.742188 L 59.644531 36.742188 L 59.644531 48.132812 L 48.398438 48.132812 Z M 48.398438 36.742188 "/>
</g>
</g>
<g clip-path="url(#clip81)" clip-rule="nonzero">
<g clip-path="url(#clip82)" clip-rule="nonzero">
<path style=" stroke:none;fill-rule:nonzero;fill:rgb(23.137255%,51.764706%,22.745098%);fill-opacity:1;" d="M 59.644531 36.742188 L 70.890625 36.742188 L 70.890625 48.132812 L 59.644531 48.132812 Z M 59.644531 36.742188 "/>
</g>
</g>
<g clip-path="url(#clip83)" clip-rule="nonzero">
<g clip-path="url(#clip84)" clip-rule="nonzero">
<path style=" stroke:none;fill-rule:nonzero;fill:rgb(69.411765%,47.843137%,25.490196%);fill-opacity:1;" d="M 70.890625 36.742188 L 82.136719 36.742188 L 82.136719 48.132812 L 70.890625 48.132812 Z M 70.890625 36.742188 "/>
</g>
</g>
<g clip-path="url(#clip85)" clip-rule="nonzero">
<g clip-path="url(#clip86)" clip-rule="nonzero">
<path style=" stroke:none;fill-rule:nonzero;fill:rgb(63.529412%,43.921569%,23.529412%);fill-opacity:1;" d="M 82.136719 36.742188 L 93.382812 36.742188 L 93.382812 48.132812 L 82.136719 48.132812 Z M 82.136719 36.742188 "/>
</g>
</g>
<g clip-path="url(#clip87)" clip-rule="nonzero">
<g clip-path="url(#clip88)" clip-rule="nonzero">
<path style=" stroke:none;fill-rule:nonzero;fill:rgb(30.588235%,72.156863%,29.411765%);fill-opacity:1;" d="M 3.414062 25.351562 L 14.660156 25.351562 L 14.660156 36.742188 L 3.414062 36.742188 Z M 3.414062 25.351562 "/>
</g>
</g>
<g clip-path="url(#clip89)" clip-rule="nonzero">
<g clip-path="url(#clip90)" clip-rule="nonzero">
<path style=" stroke:none;fill-rule:nonzero;fill:rgb(58.431373%,40.784314%,21.568627%);fill-opacity:1;" d="M 14.660156 25.351562 L 25.90625 25.351562 L 25.90625 36.742188 L 14.660156 36.742188 Z M 14.660156 25.351562 "/>
</g>
</g>
<g clip-path="url(#clip91)" clip-rule="nonzero">
<g clip-path="url(#clip92)" clip-rule="nonzero">
<path style=" stroke:none;fill-rule:nonzero;fill:rgb(48.627451%,31.372549%,18.039216%);fill-opacity:1;" d="M 25.90625 25.351562 L 37.152344 25.351562 L 37.152344 36.742188 L 25.90625 36.742188 Z M 25.90625 25.351562 "/>
</g>
</g>
<g clip-path="url(#clip93)" clip-rule="nonzero">
<g clip-path="url(#clip94)" clip-rule="nonzero">
<path style=" stroke:none;fill-rule:nonzero;fill:rgb(31.372549%,65.882353%,37.254902%);fill-opacity:1;" d="M 37.152344 25.351562 L 48.398438 25.351562 L 48.398438 36.742188 L 37.152344 36.742188 Z M 37.152344 25.351562 "/>
</g>
</g>
<g clip-path="url(#clip95)" clip-rule="nonzero">
<g clip-path="url(#clip96)" clip-rule="nonzero">
<path style=" stroke:none;fill-rule:nonzero;fill:rgb(26.27451%,76.470588%,25.098039%);fill-opacity:1;" d="M 48.398438 25.351562 L 59.644531 25.351562 L 59.644531 36.742188 L 48.398438 36.742188 Z M 48.398438 25.351562 "/>
</g>
</g>
<g clip-path="url(#clip97)" clip-rule="nonzero">
<g clip-path="url(#clip98)" clip-rule="nonzero">
<path style=" stroke:none;fill-rule:nonzero;fill:rgb(23.137255%,51.764706%,22.745098%);fill-opacity:1;" d="M 59.644531 25.351562 L 70.890625 25.351562 L 70.890625 36.742188 L 59.644531 36.742188 Z M 59.644531 25.351562 "/>
</g>
</g>
<g clip-path="url(#clip99)" clip-rule="nonzero">
<g clip-path="url(#clip100)" clip-rule="nonzero">
<path style=" stroke:none;fill-rule:nonzero;fill:rgb(60.784314%,47.058824%,22.745098%);fill-opacity:1;" d="M 70.890625 25.351562 L 82.136719 25.351562 L 82.136719 36.742188 L 70.890625 36.742188 Z M 70.890625 25.351562 "/>
</g>
</g>
<g clip-path="url(#clip101)" clip-rule="nonzero">
<g clip-path="url(#clip102)" clip-rule="nonzero">
<path style=" stroke:none;fill-rule:nonzero;fill:rgb(21.568627%,48.627451%,21.176471%);fill-opacity:1;" d="M 82.136719 25.351562 L 93.382812 25.351562 L 93.382812 36.742188 L 82.136719 36.742188 Z M 82.136719 25.351562 "/>
</g>
</g>
<g clip-path="url(#clip103)" clip-rule="nonzero">
<g clip-path="url(#clip104)" clip-rule="nonzero">
<path style=" stroke:none;fill-rule:nonzero;fill:rgb(28.627451%,58.823529%,28.235294%);fill-opacity:1;" d="M 3.414062 13.960938 L 14.660156 13.960938 L 14.660156 25.351562 L 3.414062 25.351562 Z M 3.414062 13.960938 "/>
</g>
</g>
<g clip-path="url(#clip105)" clip-rule="nonzero">
<g clip-path="url(#clip106)" clip-rule="nonzero">
<path style=" stroke:none;fill-rule:nonzero;fill:rgb(27.058824%,66.27451%,26.27451%);fill-opacity:1;" d="M 14.660156 13.960938 L 25.90625 13.960938 L 25.90625 25.351562 L 14.660156 25.351562 Z M 14.660156 13.960938 "/>
</g>
</g>
<g clip-path="url(#clip107)" clip-rule="nonzero">
<g clip-path="url(#clip108)" clip-rule="nonzero">
<path style=" stroke:none;fill-rule:nonzero;fill:rgb(23.137255%,51.764706%,22.745098%);fill-opacity:1;" d="M 25.90625 13.960938 L 37.152344 13.960938 L 37.152344 25.351562 L 25.90625 25.351562 Z M 25.90625 13.960938 "/>
</g>
</g>
<g clip-path="url(#clip109)" clip-rule="nonzero">
<g clip-path="url(#clip110)" clip-rule="nonzero">
<path style=" stroke:none;fill-rule:nonzero;fill:rgb(30.588235%,72.156863%,29.411765%);fill-opacity:1;" d="M 37.152344 13.960938 L 48.398438 13.960938 L 48.398438 25.351562 L 37.152344 25.351562 Z M 37.152344 13.960938 "/>
</g>
</g>
<g clip-path="url(#clip111)" clip-rule="nonzero">
<g clip-path="url(#clip112)" clip-rule="nonzero">
<path style=" stroke:none;fill-rule:nonzero;fill:rgb(28.627451%,58.823529%,28.235294%);fill-opacity:1;" d="M 48.398438 13.960938 L 59.644531 13.960938 L 59.644531 25.351562 L 48.398438 25.351562 Z M 48.398438 13.960938 "/>
</g>
</g>
<g clip-path="url(#clip113)" clip-rule="nonzero">
<g clip-path="url(#clip114)" clip-rule="nonzero">
<path style=" stroke:none;fill-rule:nonzero;fill:rgb(27.058824%,66.27451%,26.27451%);fill-opacity:1;" d="M 59.644531 13.960938 L 70.890625 13.960938 L 70.890625 25.351562 L 59.644531 25.351562 Z M 59.644531 13.960938 "/>
</g>
</g>
<g clip-path="url(#clip115)" clip-rule="nonzero">
<g clip-path="url(#clip116)" clip-rule="nonzero">
<path style=" stroke:none;fill-rule:nonzero;fill:rgb(23.529412%,63.921569%,23.137255%);fill-opacity:1;" d="M 70.890625 13.960938 L 82.136719 13.960938 L 82.136719 25.351562 L 70.890625 25.351562 Z M 70.890625 13.960938 "/>
</g>
</g>
<g clip-path="url(#clip117)" clip-rule="nonzero">
<g clip-path="url(#clip118)" clip-rule="nonzero">
<path style=" stroke:none;fill-rule:nonzero;fill:rgb(28.627451%,58.823529%,28.235294%);fill-opacity:1;" d="M 82.136719 13.960938 L 93.382812 13.960938 L 93.382812 25.351562 L 82.136719 25.351562 Z M 82.136719 13.960938 "/>
</g>
</g>
<g clip-path="url(#clip119)" clip-rule="nonzero">
<g clip-path="url(#clip120)" clip-rule="nonzero">
<path style=" stroke:none;fill-rule:nonzero;fill:rgb(24.313725%,69.411765%,23.137255%);fill-opacity:1;" d="M 3.414062 2.574219 L 14.660156 2.574219 L 14.660156 13.960938 L 3.414062 13.960938 Z M 3.414062 2.574219 "/>
</g>
</g>
<g clip-path="url(#clip121)" clip-rule="nonzero">
<g clip-path="url(#clip122)" clip-rule="nonzero">
<path style=" stroke:none;fill-rule:nonzero;fill:rgb(28.627451%,58.823529%,28.235294%);fill-opacity:1;" d="M 14.660156 2.574219 L 25.90625 2.574219 L 25.90625 13.960938 L 14.660156 13.960938 Z M 14.660156 2.574219 "/>
</g>
</g>
<g clip-path="url(#clip123)" clip-rule="nonzero">
<g clip-path="url(#clip124)" clip-rule="nonzero">
<path style=" stroke:none;fill-rule:nonzero;fill:rgb(32.941176%,54.509804%,32.54902%);fill-opacity:1;" d="M 25.90625 2.574219 L 37.152344 2.574219 L 37.152344 13.960938 L 25.90625 13.960938 Z M 25.90625 2.574219 "/>
</g>
</g>
<g clip-path="url(#clip125)" clip-rule="nonzero">
<g clip-path="url(#clip126)" clip-rule="nonzero">
<path style=" stroke:none;fill-rule:nonzero;fill:rgb(23.137255%,51.764706%,22.745098%);fill-opacity:1;" d="M 37.152344 2.574219 L 48.398438 2.574219 L 48.398438 13.960938 L 37.152344 13.960938 Z M 37.152344 2.574219 "/>
</g>
</g>
<g clip-path="url(#clip127)" clip-rule="nonzero">
<g clip-path="url(#clip128)" clip-rule="nonzero">
<path style=" stroke:none;fill-rule:nonzero;fill:rgb(23.137255%,51.764706%,22.745098%);fill-opacity:1;" d="M 48.398438 2.574219 L 59.644531 2.574219 L 59.644531 13.960938 L 48.398438 13.960938 Z M 48.398438 2.574219 "/>
</g>
</g>
<g clip-path="url(#clip129)" clip-rule="nonzero">
<g clip-path="url(#clip130)" clip-rule="nonzero">
<path style=" stroke:none;fill-rule:nonzero;fill:rgb(28.627451%,58.823529%,28.235294%);fill-opacity:1;" d="M 59.644531 2.574219 L 70.890625 2.574219 L 70.890625 13.960938 L 59.644531 13.960938 Z M 59.644531 2.574219 "/>
</g>
</g>
<g clip-path="url(#clip131)" clip-rule="nonzero">
<g clip-path="url(#clip132)" clip-rule="nonzero">
<path style=" stroke:none;fill-rule:nonzero;fill:rgb(27.45098%,69.019608%,26.666667%);fill-opacity:1;" d="M 70.890625 2.574219 L 82.136719 2.574219 L 82.136719 13.960938 L 70.890625 13.960938 Z M 70.890625 2.574219 "/>
</g>
</g>
<g clip-path="url(#clip133)" clip-rule="nonzero">
<g clip-path="url(#clip134)" clip-rule="nonzero">
<path style=" stroke:none;fill-rule:nonzero;fill:rgb(27.058824%,66.27451%,26.27451%);fill-opacity:1;" d="M 82.136719 2.574219 L 93.382812 2.574219 L 93.382812 13.960938 L 82.136719 13.960938 Z M 82.136719 2.574219 "/>
</g>
</g>
<g clip-path="url(#clip135)" clip-rule="nonzero">
<g clip-path="url(#clip136)" clip-rule="nonzero">
<path style=" stroke:none;fill-rule:nonzero;fill:rgb(31.764706%,75.686275%,39.215686%);fill-opacity:0.870588;" d="M 93.382812 36.742188 L 82.128906 36.742188 L 82.136719 25.34375 L 70.894531 25.367188 L 70.886719 48.125 L 59.632812 48.132812 L 59.625 36.734375 L 37.140625 36.742188 L 37.15625 25.34375 L 25.898438 25.421875 L 14.65625 25.355469 L 14.65625 48.128906 L 3.414062 48.140625 L 3.414062 2.578125 L 93.382812 2.578125 Z M 93.382812 36.742188 "/>
</g>
</g>
<g clip-path="url(#clip137)" clip-rule="nonzero">
<g clip-path="url(#clip138)" clip-rule="nonzero">
<path style=" stroke:none;fill-rule:nonzero;fill:rgb(61.176471%,42.745098%,25.882353%);fill-opacity:0.756863;" d="M 3.414062 48.136719 L 3.414062 93.691406 L 93.382812 93.691406 L 93.382812 36.742188 L 82.128906 36.734375 L 82.128906 25.351562 L 70.890625 25.351562 L 70.890625 48.132812 L 59.632812 48.132812 L 59.636719 36.71875 L 37.152344 36.738281 L 37.164062 25.320312 L 14.675781 25.34375 L 14.65625 48.128906 Z M 3.414062 48.136719 "/>
</g>
</g>
</g>
</svg>
