
<svg xmlns="http://www.w3.org/2000/svg" xmlns:xlink="http://www.w3.org/1999/xlink" width="96px" height="96px" viewBox="0 0 96 96" version="1.1">
<g id="surface1">
<path style=" stroke:none;fill-rule:evenodd;fill:rgb(80.392157%,61.176471%,42.745098%);fill-opacity:1;" d="M 15.0625 6.960938 L 81.222656 6.960938 C 86.421875 6.960938 90.636719 11.175781 90.636719 16.378906 L 90.636719 81.398438 C 90.636719 86.597656 86.421875 90.8125 81.222656 90.8125 L 15.0625 90.8125 C 9.863281 90.8125 5.644531 86.597656 5.644531 81.398438 L 5.644531 16.378906 C 5.644531 11.175781 9.863281 6.960938 15.0625 6.960938 Z M 15.0625 6.960938 "/>
<path style=" stroke:none;fill-rule:nonzero;fill:rgb(10.196078%,10.196078%,10.196078%);fill-opacity:1;" d="M 44.792969 30.21875 C 41.195312 30.789062 37.152344 32.878906 34.527344 35.527344 C 30.605469 39.484375 28.574219 45.292969 29.214844 50.734375 C 30.253906 59.589844 36.976562 66.347656 45.765625 67.371094 C 51.410156 68.027344 57.167969 66.015625 61.144531 61.996094 C 65.117188 57.984375 67.148438 52.199219 66.507812 46.726562 C 65.652344 39.441406 61.070312 33.632812 54.171875 31.089844 C 51.242188 30.007812 48.011719 29.710938 44.792969 30.21875 Z M 52.125 34.503906 C 57.148438 36.171875 61.21875 40.582031 62.527344 45.78125 C 62.875 47.15625 62.875 50.300781 62.53125 51.707031 C 61.261719 56.867188 57.175781 61.273438 52.0625 62.996094 C 50.324219 63.582031 49.914062 63.644531 47.859375 63.640625 C 45.933594 63.636719 45.324219 63.554688 43.902344 63.097656 C 40.125 61.886719 37.257812 59.625 35.085938 56.144531 C 32.972656 52.75 32.363281 49.046875 33.316406 45.351562 C 34.765625 39.722656 40.0625 34.875 45.832031 33.894531 C 47.605469 33.59375 50.105469 33.835938 52.125 34.503906 Z M 44.875 41.746094 C 43.304688 43.453125 41.144531 45.789062 40.074219 46.941406 C 37.425781 49.78125 36.871094 50.492188 37.203125 50.613281 C 37.347656 50.667969 38.847656 50.734375 40.535156 50.761719 L 43.605469 50.816406 L 43.800781 58.929688 L 45.832031 59.03125 C 46.949219 59.085938 48.773438 59.085938 49.890625 59.03125 L 51.917969 58.929688 L 52.117188 50.816406 L 55.1875 50.761719 C 56.875 50.734375 58.375 50.667969 58.519531 50.613281 C 58.847656 50.492188 58.292969 49.78125 55.648438 46.941406 C 54.578125 45.789062 52.417969 43.453125 50.847656 41.746094 C 49.277344 40.039062 47.933594 38.640625 47.859375 38.640625 C 47.789062 38.640625 46.445312 40.039062 44.875 41.746094 Z M 44.875 41.746094 "/>
<path style=" stroke:none;fill-rule:evenodd;fill:rgb(89.019608%,76.862745%,66.27451%);fill-opacity:1;" d="M 40.476562 82.859375 L 54.167969 82.859375 C 54.386719 82.859375 54.566406 83.039062 54.566406 83.257812 L 54.566406 90.40625 C 54.566406 90.625 54.386719 90.804688 54.167969 90.804688 L 40.476562 90.804688 C 40.253906 90.804688 40.078125 90.625 40.078125 90.40625 L 40.078125 83.257812 C 40.078125 83.039062 40.253906 82.859375 40.476562 82.859375 Z M 40.476562 82.859375 "/>
<path style=" stroke:none;fill-rule:evenodd;fill:rgb(89.019608%,76.862745%,66.27451%);fill-opacity:1;" d="M 40.640625 6.960938 L 54.332031 6.960938 C 54.550781 6.960938 54.730469 7.140625 54.730469 7.359375 L 54.730469 14.507812 C 54.730469 14.726562 54.550781 14.90625 54.332031 14.90625 L 40.640625 14.90625 C 40.417969 14.90625 40.242188 14.726562 40.242188 14.507812 L 40.242188 7.359375 C 40.242188 7.140625 40.417969 6.960938 40.640625 6.960938 Z M 40.640625 6.960938 "/>
</g>
</svg>
