
<svg xmlns="http://www.w3.org/2000/svg" xmlns:xlink="http://www.w3.org/1999/xlink" width="96px" height="96px" viewBox="0 0 96 96" version="1.1">
<g id="surface1">
<path style="fill-rule:nonzero;fill:rgb(100%,100%,100%);fill-opacity:1;stroke-width:3.6;stroke-linecap:butt;stroke-linejoin:miter;stroke:rgb(58.823529%,85.098039%,32.54902%);stroke-opacity:1;stroke-miterlimit:4;" d="M 50.854167 112.026042 C 38.46875 108.776042 29.484375 100.828125 25.635417 89.713542 L 24.765625 86.041667 L 24.0625 63.661458 C 23.302083 39.338542 23.734375 39.244792 21.322917 37.348958 C 20.348958 36.578125 19.604167 36.432292 16.739583 36.427083 C 14.854167 36.427083 12.317708 36.302083 11.098958 36.15625 L 8.885417 35.890625 L 8.885417 16.067708 L 48.848958 16.260417 C 92.447917 16.46875 91.052083 16.395833 97.5625 18.947917 C 105.776042 22.166667 112.963542 28.885417 116.463542 36.604167 C 119.140625 42.515625 119.083333 41.770833 119.286458 74.697917 C 119.453125 101.947917 119.40625 104.854167 118.78125 106.072917 C 117.604167 108.348958 115.067708 110.828125 112.864583 111.859375 L 110.755208 112.84375 L 82.28125 112.822917 C 56.036458 112.807292 53.578125 112.744792 50.854167 112.026042 Z M 92.036458 98.942708 C 101.098958 97.989583 108.09375 90.989583 109.328125 81.645833 C 109.635417 79.348958 109.729167 73.072917 109.598958 63.911458 C 109.364583 46.880208 109.286458 46.536458 104.677083 41.880208 C 101.25 38.416667 98.588542 37.276042 93.932292 37.276042 C 90.255208 37.276042 87.625 38 84.854167 39.78125 L 82.807292 41.09375 L 79.338542 39.291667 C 75.890625 37.494792 75.84375 37.484375 71.375 37.484375 C 67.505208 37.484375 66.604167 37.625 64.859375 38.484375 C 61.859375 39.963542 58.838542 43.130208 57.270833 46.447917 L 55.916667 49.307292 L 55.791667 62.291667 L 55.671875 75.276042 L 65.40625 75.276042 L 65.411458 63.348958 C 65.411458 52.192708 65.463542 51.333333 66.25 50.041667 C 68.151042 46.921875 72.552083 45.953125 75.09375 48.09375 C 77.598958 50.203125 77.640625 50.458333 77.640625 63.432292 L 77.640625 75.276042 L 87.255208 75.276042 L 87.40625 63.0625 C 87.546875 51.427083 87.59375 50.791667 88.442708 49.65625 C 91.166667 45.994792 96.208333 45.979167 98.802083 49.619792 C 99.78125 50.989583 99.786458 51.0625 99.916667 66.09375 L 100.046875 81.192708 L 98.880208 83.333333 C 97.578125 85.734375 95.557292 87.505208 92.541667 88.901042 C 90.526042 89.833333 90.34375 89.838542 71.640625 89.760417 C 50.697917 89.671875 51.364583 89.755208 48.302083 86.78125 C 47.442708 85.947917 46.291667 84.302083 45.744792 83.119792 L 44.744792 80.973958 L 44.739583 28.953125 L 41.510417 28.682292 C 39.739583 28.53125 37.651042 28.411458 36.869792 28.411458 L 35.458333 28.411458 L 35.489583 50.890625 C 35.505208 63.255208 35.65625 76.130208 35.828125 79.494792 C 36.125 85.322917 36.208333 85.744792 37.53125 88.223958 C 39.130208 91.229167 42.786458 95.104167 45.567708 96.734375 C 49.630208 99.119792 51.296875 99.291667 70.682292 99.307292 C 80.427083 99.317708 90.036458 99.151042 92.036458 98.942708 Z M 92.036458 98.942708 " transform="matrix(0.75,0,0,0.75,0,0)"/>
<path style="fill-rule:nonzero;fill:rgb(58.823529%,85.098039%,32.54902%);fill-opacity:1;stroke-width:0.3;stroke-linecap:butt;stroke-linejoin:miter;stroke:rgb(58.823529%,85.098039%,32.54902%);stroke-opacity:1;stroke-miterlimit:4;" d="M 58.442708 99.109375 C 51.515625 98.947917 49.604167 98.651042 46.869792 97.302083 C 44.880208 96.317708 43.661458 95.40625 41.697917 93.4375 C 39.192708 90.921875 37.145833 87.854167 36.546875 85.708333 C 35.859375 83.223958 35.723958 78.348958 35.630208 51.786458 L 35.541667 28.432292 L 35.96875 28.432292 C 36.645833 28.432292 42.994792 28.854167 43.84375 28.953125 L 44.609375 29.046875 L 44.609375 80.864583 L 45.276042 82.302083 C 45.645833 83.09375 46.291667 84.270833 46.723958 84.916667 C 47.640625 86.302083 49.541667 88.171875 50.546875 88.682292 C 52.489583 89.666667 56.182292 89.822917 75.552083 89.760417 C 92.09375 89.703125 90.963542 89.770833 93.135417 88.682292 C 96.1875 87.145833 97.901042 85.416667 99.651042 82.09375 L 100.140625 81.171875 L 99.963542 66.932292 C 99.864583 58.760417 99.723958 52.265625 99.640625 51.6875 C 99.442708 50.390625 99.078125 49.697917 98.067708 48.6875 C 95.614583 46.239583 91.916667 46.223958 89.296875 48.65625 C 88.276042 49.598958 87.942708 50.1875 87.71875 51.411458 C 87.536458 52.427083 87.28125 62.53125 87.276042 69.036458 C 87.276042 71.447917 87.234375 73.828125 87.182292 74.317708 L 87.088542 75.213542 L 77.682292 75.213542 L 77.619792 63.880208 C 77.552083 52.104167 77.526042 51.546875 76.911458 50.125 C 76.541667 49.265625 75.104167 47.869792 74.083333 47.380208 C 73.130208 46.921875 71.208333 46.807292 70.0625 47.140625 C 68.369792 47.630208 66.583333 49.041667 66.010417 50.34375 C 65.479167 51.546875 65.416667 52.755208 65.333333 64.098958 L 65.244792 75.213542 L 55.666667 75.213542 L 55.744792 74.307292 C 55.78125 73.802083 55.854167 67.984375 55.895833 61.369792 L 55.979167 49.34375 L 57.046875 47.161458 C 58.645833 43.890625 60.583333 41.46875 62.958333 39.770833 C 63.994792 39.03125 65.614583 38.182292 66.526042 37.901042 C 67.307292 37.65625 74.229167 37.53125 75.40625 37.739583 C 76.026042 37.848958 77.223958 38.364583 79.505208 39.5 C 81.276042 40.385417 82.776042 41.109375 82.838542 41.109375 C 82.901042 41.109375 83.567708 40.708333 84.322917 40.21875 C 87.09375 38.427083 89.052083 37.734375 92.197917 37.432292 C 95.317708 37.140625 98.140625 37.578125 100.380208 38.708333 C 102.234375 39.645833 104.671875 41.734375 106.489583 43.953125 C 109.213542 47.276042 109.453125 49.1875 109.46875 68.072917 C 109.473958 76.78125 109.432292 80.182292 109.291667 81.255208 C 108.09375 90.609375 101.510417 97.541667 92.661458 98.765625 C 89.817708 99.15625 69.536458 99.359375 58.442708 99.109375 Z M 58.442708 99.109375 " transform="matrix(0.75,0,0,0.75,0,0)"/>
</g>
</svg>
