<!-- color: #474747 -->
<svg xmlns="http://www.w3.org/2000/svg" xmlns:xlink="http://www.w3.org/1999/xlink" width="96px" height="96px" viewBox="0 0 96 96" version="1.1">
<defs>
<clipPath id="clip1">
  <path d="M 46.125 15.1875 L 75.375 15.1875 L 75.375 48.1875 L 46.125 48.1875 Z M 46.125 15.1875 "/>
</clipPath>
<clipPath id="clip2">
  <path d="M 106.375 48.074219 C 106.375 80.195312 80.328125 106.214844 48.234375 106.214844 C 16.140625 106.214844 -9.90625 80.195312 -9.90625 48.074219 C -9.90625 15.953125 16.140625 -10.066406 48.234375 -10.066406 C 80.328125 -10.066406 106.375 15.953125 106.375 48.074219 Z M 106.375 48.074219 "/>
</clipPath>
<clipPath id="clip3">
  <path d="M 48.1875 46 L 81.1875 46 L 81.1875 75.1875 L 48.1875 75.1875 Z M 48.1875 46 "/>
</clipPath>
<clipPath id="clip4">
  <path d="M 106.375 48.074219 C 106.375 80.195312 80.328125 106.214844 48.234375 106.214844 C 16.140625 106.214844 -9.90625 80.195312 -9.90625 48.074219 C -9.90625 15.953125 16.140625 -10.066406 48.234375 -10.066406 C 80.328125 -10.066406 106.375 15.953125 106.375 48.074219 Z M 106.375 48.074219 "/>
</clipPath>
<clipPath id="clip5">
  <path d="M 21.1875 48 L 50.25 48 L 50.25 81 L 21.1875 81 Z M 21.1875 48 "/>
</clipPath>
<clipPath id="clip6">
  <path d="M 106.375 48.074219 C 106.375 80.195312 80.328125 106.214844 48.234375 106.214844 C 16.140625 106.214844 -9.90625 80.195312 -9.90625 48.074219 C -9.90625 15.953125 16.140625 -10.066406 48.234375 -10.066406 C 80.328125 -10.066406 106.375 15.953125 106.375 48.074219 Z M 106.375 48.074219 "/>
</clipPath>
<clipPath id="clip7">
  <path d="M 15.1875 21 L 48.375 21 L 48.375 50.0625 L 15.1875 50.0625 Z M 15.1875 21 "/>
</clipPath>
<clipPath id="clip8">
  <path d="M 106.375 48.074219 C 106.375 80.195312 80.328125 106.214844 48.234375 106.214844 C 16.140625 106.214844 -9.90625 80.195312 -9.90625 48.074219 C -9.90625 15.953125 16.140625 -10.066406 48.234375 -10.066406 C 80.328125 -10.066406 106.375 15.953125 106.375 48.074219 Z M 106.375 48.074219 "/>
</clipPath>
</defs>
<g id="surface1">
<path style="fill-rule:nonzero;fill:rgb(100%,100%,100%);fill-opacity:1;stroke-width:6.963993;stroke-linecap:butt;stroke-linejoin:miter;stroke:rgb(0%,67.058824%,92.54902%);stroke-opacity:1;stroke-miterlimit:4;" d="M 20.890625 6.963542 L 107.109375 6.963542 C 114.802083 6.963542 121.036458 13.197917 121.036458 20.890625 L 121.036458 107.109375 C 121.036458 114.802083 114.802083 121.036458 107.109375 121.036458 L 20.890625 121.036458 C 13.197917 121.036458 6.963542 114.802083 6.963542 107.109375 L 6.963542 20.890625 C 6.963542 13.197917 13.197917 6.963542 20.890625 6.963542 Z M 20.890625 6.963542 " transform="matrix(0.75,0,0,0.75,0,0)"/>
<g clip-path="url(#clip1)" clip-rule="nonzero">
<g clip-path="url(#clip2)" clip-rule="nonzero">
<path style=" stroke:none;fill-rule:nonzero;fill:rgb(49.803922%,80%,15.686275%);fill-opacity:1;" d="M 57.636719 16.859375 C 46.320312 10.324219 46.25 25.371094 46.25 25.371094 L 48.234375 48.070312 L 68.882812 38.433594 C 68.882812 38.433594 81.886719 30.851562 70.570312 24.3125 C 67.074219 22.296875 64.507812 22.25 62.613281 23.15625 C 62.445312 21.074219 61.132812 18.875 57.636719 16.847656 M 57.636719 16.859375 "/>
</g>
</g>
<g clip-path="url(#clip3)" clip-rule="nonzero">
<g clip-path="url(#clip4)" clip-rule="nonzero">
<path style=" stroke:none;fill-rule:nonzero;fill:rgb(98.431373%,72.54902%,3.529412%);fill-opacity:1;" d="M 48.234375 48.074219 L 57.875 68.722656 C 57.875 68.722656 65.457031 81.726562 71.984375 70.410156 C 74 66.914062 74.039062 64.347656 73.140625 62.453125 C 75.234375 62.285156 77.433594 60.972656 79.460938 57.476562 C 85.984375 46.15625 70.9375 46.089844 70.9375 46.089844 L 48.246094 48.074219 M 48.234375 48.074219 "/>
</g>
</g>
<g clip-path="url(#clip5)" clip-rule="nonzero">
<g clip-path="url(#clip6)" clip-rule="nonzero">
<path style=" stroke:none;fill-rule:nonzero;fill:rgb(0%,67.058824%,92.54902%);fill-opacity:1;" d="M 48.234375 48.074219 L 27.578125 57.710938 C 27.578125 57.710938 14.582031 65.296875 25.890625 71.824219 C 29.386719 73.835938 31.960938 73.878906 33.847656 72.976562 C 34.015625 75.070312 35.328125 77.273438 38.824219 79.296875 C 50.140625 85.824219 50.210938 70.777344 50.210938 70.777344 L 48.234375 48.085938 M 48.234375 48.074219 "/>
</g>
</g>
<g clip-path="url(#clip7)" clip-rule="nonzero">
<g clip-path="url(#clip8)" clip-rule="nonzero">
<path style=" stroke:none;fill-rule:nonzero;fill:rgb(94.509804%,31.764706%,9.803922%);fill-opacity:1;" d="M 48.234375 48.074219 L 38.597656 27.417969 C 38.597656 27.417969 31.015625 14.421875 24.476562 25.726562 C 22.460938 29.222656 22.421875 31.800781 23.320312 33.6875 C 21.238281 33.851562 19.039062 35.167969 17.011719 38.664062 C 10.476562 49.980469 25.523438 50.046875 25.523438 50.046875 L 48.222656 48.074219 M 48.234375 48.074219 "/>
</g>
</g>
</g>
</svg>
