
<svg xmlns="http://www.w3.org/2000/svg" xmlns:xlink="http://www.w3.org/1999/xlink" width="96px" height="96px" viewBox="0 0 96 96" version="1.1">
<g id="surface1">
<path style="fill-rule:nonzero;fill:rgb(100%,100%,100%);fill-opacity:1;stroke-width:27.460871;stroke-linecap:butt;stroke-linejoin:miter;stroke:rgb(29.019608%,80.392157%,20.784314%);stroke-opacity:1;stroke-miterlimit:4;" d="M 86 31.083333 L 426 31.083333 C 456.333333 31.083333 480.916667 55.666667 480.916667 86 L 480.916667 426 C 480.916667 456.333333 456.333333 480.916667 426 480.916667 L 86 480.916667 C 55.666667 480.916667 31.083333 456.333333 31.083333 426 L 31.083333 86 C 31.083333 55.666667 55.666667 31.083333 86 31.083333 Z M 86 31.083333 " transform="matrix(0.1875,0,0,0.1875,0,0)"/>
<path style=" stroke:none;fill-rule:nonzero;fill:rgb(29.019608%,80.392157%,20.784314%);fill-opacity:1;" d="M 42.71875 80.171875 C 41.925781 79.503906 41.894531 79.308594 41.894531 74.921875 L 41.894531 70.894531 L 40.871094 70.597656 C 38.773438 69.988281 38.0625 69.714844 36.261719 68.828125 C 35.246094 68.324219 34.371094 67.914062 34.316406 67.914062 C 34.261719 67.914062 32.902344 69.21875 31.300781 70.8125 C 28.238281 73.851562 28.296875 73.808594 27.132812 73.71875 C 26.441406 73.664062 25.984375 73.289062 23.375 70.644531 C 19.664062 66.882812 19.65625 67.085938 23.679688 63.039062 C 25.230469 61.484375 26.496094 60.167969 26.496094 60.117188 C 26.496094 60.0625 26.265625 59.628906 25.988281 59.15625 C 25.226562 57.851562 24.265625 55.601562 23.855469 54.15625 C 23.65625 53.449219 23.429688 52.789062 23.351562 52.691406 C 23.246094 52.558594 22.265625 52.515625 19.328125 52.515625 C 15.03125 52.515625 14.777344 52.472656 14.164062 51.617188 C 13.859375 51.183594 13.851562 51.089844 13.851562 47.078125 C 13.851562 42.464844 13.851562 42.460938 14.925781 41.910156 C 15.421875 41.660156 15.78125 41.636719 19.339844 41.636719 C 22.265625 41.636719 23.246094 41.59375 23.355469 41.460938 C 23.433594 41.363281 23.632812 40.78125 23.800781 40.167969 C 24.171875 38.808594 25.1875 36.398438 25.9375 35.089844 C 26.246094 34.558594 26.496094 34.082031 26.496094 34.03125 C 26.496094 33.980469 25.230469 32.667969 23.679688 31.113281 C 20.34375 27.761719 20.226562 27.535156 21.03125 26.015625 C 21.332031 25.449219 25.894531 20.949219 26.453125 20.671875 C 26.703125 20.546875 27.238281 20.445312 27.644531 20.445312 L 28.382812 20.445312 L 31.300781 23.339844 C 32.902344 24.933594 34.265625 26.238281 34.328125 26.238281 C 34.386719 26.238281 35.335938 25.792969 36.433594 25.253906 C 37.714844 24.621094 39.046875 24.09375 40.128906 23.78125 L 41.824219 23.296875 L 41.894531 19.152344 C 41.957031 15.605469 42 14.941406 42.207031 14.566406 C 42.699219 13.667969 42.722656 13.664062 47.371094 13.664062 C 52.007812 13.664062 51.914062 13.648438 52.480469 14.5625 C 52.761719 15.015625 52.773438 15.234375 52.773438 19.058594 C 52.773438 22.0625 52.820312 23.128906 52.949219 23.289062 C 53.046875 23.40625 53.636719 23.65625 54.257812 23.839844 C 55.792969 24.296875 57.089844 24.835938 58.683594 25.675781 C 59.417969 26.0625 60.089844 26.378906 60.175781 26.378906 C 60.261719 26.378906 61.644531 25.0625 63.253906 23.457031 L 66.179688 20.535156 L 67.027344 20.472656 C 67.710938 20.425781 67.96875 20.46875 68.34375 20.703125 C 68.601562 20.863281 69.933594 22.125 71.304688 23.507812 C 75.050781 27.289062 75.0625 27.058594 70.933594 31.179688 C 69.207031 32.902344 68.03125 34.183594 68.03125 34.34375 C 68.03125 34.488281 68.226562 34.945312 68.460938 35.359375 C 69.136719 36.539062 70.066406 38.773438 70.429688 40.082031 C 70.613281 40.742188 70.824219 41.363281 70.898438 41.460938 C 71 41.59375 72.039062 41.636719 75.234375 41.636719 C 79.363281 41.636719 79.445312 41.640625 79.914062 41.957031 C 80.179688 42.132812 80.523438 42.53125 80.675781 42.839844 C 80.9375 43.359375 80.960938 43.683594 80.960938 47.078125 C 80.960938 50.46875 80.9375 50.792969 80.675781 51.3125 C 80.523438 51.625 80.179688 52.019531 79.914062 52.195312 C 79.445312 52.511719 79.359375 52.515625 75.316406 52.515625 C 72.230469 52.515625 71.140625 52.5625 70.972656 52.691406 C 70.851562 52.789062 70.617188 53.386719 70.449219 54.023438 C 70.128906 55.242188 69.148438 57.597656 68.449219 58.835938 C 68.21875 59.242188 68.03125 59.6875 68.03125 59.820312 C 68.03125 59.957031 69.363281 61.402344 70.984375 63.039062 C 75.101562 67.179688 75.101562 66.910156 70.984375 70.972656 C 68.179688 73.738281 67.90625 73.917969 66.757812 73.707031 C 66.21875 73.609375 65.875 73.3125 63.246094 70.6875 C 61.640625 69.085938 60.277344 67.773438 60.214844 67.773438 C 60.148438 67.773438 59.132812 68.246094 57.953125 68.824219 C 56.777344 69.402344 55.207031 70.046875 54.46875 70.261719 C 53.730469 70.472656 53.046875 70.742188 52.949219 70.863281 C 52.820312 71.023438 52.773438 72.089844 52.773438 75.097656 C 52.773438 78.921875 52.761719 79.136719 52.480469 79.589844 C 51.914062 80.507812 52.011719 80.488281 47.339844 80.488281 C 43.148438 80.488281 43.09375 80.484375 42.71875 80.171875 Z M 50.050781 63.039062 C 51.175781 62.828125 52.742188 62.304688 54.1875 61.664062 C 57.019531 60.410156 60.449219 57.011719 61.699219 54.226562 C 63.070312 51.175781 63.304688 50.089844 63.289062 46.863281 C 63.277344 44.675781 63.234375 44.238281 62.910156 43.027344 C 62.136719 40.132812 60.382812 37.191406 58.234375 35.183594 C 56.144531 33.234375 53.324219 31.734375 50.65625 31.164062 C 48.570312 30.714844 45.671875 30.714844 43.589844 31.164062 C 39.835938 31.972656 36 34.554688 33.742188 37.796875 C 32.785156 39.164062 31.671875 41.671875 31.277344 43.332031 C 30.816406 45.273438 30.816406 48.898438 31.28125 50.777344 C 31.675781 52.378906 32.667969 54.664062 33.539062 55.976562 C 34.980469 58.148438 37.914062 60.714844 40.023438 61.652344 C 41.40625 62.265625 43.074219 62.828125 44.09375 63.03125 C 45.445312 63.300781 48.65625 63.304688 50.050781 63.039062 Z M 50.050781 63.039062 "/>
</g>
</svg>
