<!-- color: #5b92d9 -->
<svg xmlns="http://www.w3.org/2000/svg" xmlns:xlink="http://www.w3.org/1999/xlink" width="96px" height="96px" viewBox="0 0 96 96" version="1.1">
<defs>
<clipPath id="clip1">
  <path d="M 18.375 19.3125 L 77 19.3125 L 77 77.8125 L 18.375 77.8125 Z M 18.375 19.3125 "/>
</clipPath>
<clipPath id="clip2">
  <path d="M 92.511719 48.589844 C 92.511719 73.335938 72.449219 93.375 47.726562 93.375 C 23.003906 93.375 2.941406 73.335938 2.941406 48.589844 C 2.941406 23.847656 23.003906 3.804688 47.726562 3.804688 C 72.449219 3.804688 92.511719 23.847656 92.511719 48.589844 Z M 92.511719 48.589844 "/>
</clipPath>
<clipPath id="clip3">
  <path d="M 24.1875 38.8125 L 71.25 38.8125 L 71.25 58.5 L 24.1875 58.5 Z M 24.1875 38.8125 "/>
</clipPath>
<clipPath id="clip4">
  <path d="M 92.511719 48.589844 C 92.511719 73.335938 72.449219 93.375 47.726562 93.375 C 23.003906 93.375 2.941406 73.335938 2.941406 48.589844 C 2.941406 23.847656 23.003906 3.804688 47.726562 3.804688 C 72.449219 3.804688 92.511719 23.847656 92.511719 48.589844 Z M 92.511719 48.589844 "/>
</clipPath>
</defs>
<g id="surface1">
<path style="fill-rule:nonzero;fill:rgb(21.568627%,44.313725%,78.431373%);fill-opacity:1;stroke-width:6.815335;stroke-linecap:butt;stroke-linejoin:miter;stroke:rgb(29.019608%,68.235294%,90.980392%);stroke-opacity:1;stroke-miterlimit:4;" d="M 21.807292 8.177083 L 106.192708 8.177083 C 113.71875 8.177083 119.822917 14.28125 119.822917 21.807292 L 119.822917 106.192708 C 119.822917 113.71875 113.71875 119.822917 106.192708 119.822917 L 21.807292 119.822917 C 14.28125 119.822917 8.177083 113.71875 8.177083 106.192708 L 8.177083 21.807292 C 8.177083 14.28125 14.28125 8.177083 21.807292 8.177083 Z M 21.807292 8.177083 " transform="matrix(0.75,0,0,0.75,0,0)"/>
<g clip-path="url(#clip1)" clip-rule="nonzero">
<g clip-path="url(#clip2)" clip-rule="nonzero">
<path style=" stroke:none;fill-rule:nonzero;fill:rgb(97.647059%,97.647059%,97.647059%);fill-opacity:1;" d="M 47.726562 19.382812 C 31.578125 19.382812 18.519531 32.445312 18.519531 48.589844 C 18.519531 64.730469 31.578125 77.792969 47.726562 77.792969 C 63.867188 77.792969 76.925781 64.730469 76.925781 48.589844 C 76.925781 32.445312 63.867188 19.382812 47.726562 19.382812 M 47.726562 19.382812 "/>
</g>
</g>
<g clip-path="url(#clip3)" clip-rule="nonzero">
<g clip-path="url(#clip4)" clip-rule="nonzero">
<path style=" stroke:none;fill-rule:nonzero;fill:rgb(29.019608%,52.54902%,83.921569%);fill-opacity:1;" d="M 39.9375 38.855469 L 39.9375 44.695312 L 55.515625 44.695312 L 55.515625 38.855469 L 63.085938 43.722656 L 71.09375 48.597656 L 63.085938 53.46875 L 55.515625 58.335938 L 55.515625 52.492188 L 39.9375 52.492188 L 39.9375 58.335938 L 32.371094 53.46875 L 24.351562 48.597656 L 32.371094 43.722656 M 39.9375 38.855469 "/>
</g>
</g>
</g>
</svg>
