
<svg xmlns="http://www.w3.org/2000/svg" xmlns:xlink="http://www.w3.org/1999/xlink" width="128px" height="128px" viewBox="0 0 128 128" version="1.1">
<g id="surface1">
<path style=" stroke:none;fill-rule:nonzero;fill:rgb(87.843137%,29.411765%,14.901961%);fill-opacity:1;" d="M 34.3125 6.910156 C 25.667969 6.910156 18.707031 13.871094 18.707031 22.515625 L 18.707031 105.484375 C 18.707031 114.128906 25.667969 121.089844 34.3125 121.089844 L 93.6875 121.089844 C 102.332031 121.089844 109.292969 114.128906 109.292969 105.484375 L 109.292969 25.417969 L 66.238281 6.910156 Z M 95.285156 6.988281 C 96.339844 7.097656 97.359375 7.304688 98.339844 7.609375 C 97.359375 7.304688 96.339844 7.097656 95.285156 6.988281 Z M 98.339844 7.609375 C 99.804688 8.0625 101.175781 8.726562 102.421875 9.566406 C 101.175781 8.726562 99.804688 8.0625 98.339844 7.609375 Z M 103.625 10.464844 C 104.011719 10.78125 104.375 11.121094 104.730469 11.472656 C 104.375 11.121094 104.011719 10.78125 103.625 10.464844 Z M 103.625 10.464844 "/>
<path style=" stroke:none;fill-rule:nonzero;fill:rgb(100%,100%,100%);fill-opacity:0.682353;" d="M 109.292969 25.417969 L 66.238281 6.910156 L 66.238281 9.8125 C 66.238281 18.457031 73.199219 25.417969 81.84375 25.417969 Z M 109.292969 25.417969 "/>
<path style=" stroke:none;fill-rule:nonzero;fill:rgb(100%,100%,100%);fill-opacity:1;" d="M 41.105469 82.097656 C 41.105469 80.671875 41.597656 79.476562 42.582031 78.511719 C 43.5625 77.527344 44.765625 77.035156 46.191406 77.035156 C 47.578125 77.035156 48.753906 77.527344 49.71875 78.511719 C 50.703125 79.476562 51.195312 80.671875 51.195312 82.097656 C 51.195312 83.484375 50.703125 84.671875 49.71875 85.65625 C 48.753906 86.621094 47.578125 87.105469 46.191406 87.105469 C 44.765625 87.105469 43.566406 86.621094 42.582031 85.65625 C 41.597656 84.6875 41.105469 83.503906 41.105469 82.097656 M 40.8125 59.238281 L 40.8125 67.660156 C 51.574219 67.660156 60.3125 76.410156 60.3125 87.1875 L 68.765625 87.1875 C 68.765625 71.75 56.226562 59.238281 40.8125 59.238281 Z M 40.828125 40.8125 L 40.828125 50.121094 C 61.257812 50.121094 77.84375 66.726562 77.84375 87.171875 L 87.1875 87.171875 C 87.1875 61.574219 66.398438 40.8125 40.824219 40.8125 Z M 40.828125 40.8125 "/>
</g>
</svg>
