
<svg xmlns="http://www.w3.org/2000/svg" xmlns:xlink="http://www.w3.org/1999/xlink" width="128px" height="128px" viewBox="0 0 128 128" version="1.1">
<g id="surface1">
<path style=" stroke:none;fill-rule:nonzero;fill:rgb(92.54902%,91.372549%,84.705882%);fill-opacity:1;" d="M 34.3125 6.910156 C 25.667969 6.910156 18.707031 13.871094 18.707031 22.515625 L 18.707031 105.484375 C 18.707031 114.128906 25.667969 121.089844 34.3125 121.089844 L 93.6875 121.089844 C 102.332031 121.089844 109.292969 114.128906 109.292969 105.484375 L 109.292969 25.417969 L 66.238281 6.910156 Z M 95.285156 6.988281 C 96.339844 7.097656 97.359375 7.304688 98.339844 7.609375 C 97.359375 7.304688 96.339844 7.097656 95.285156 6.988281 Z M 98.339844 7.609375 C 99.804688 8.0625 101.175781 8.726562 102.421875 9.566406 C 101.175781 8.726562 99.804688 8.0625 98.339844 7.609375 Z M 103.625 10.464844 C 104.011719 10.78125 104.375 11.121094 104.730469 11.472656 C 104.375 11.121094 104.011719 10.78125 103.625 10.464844 Z M 103.625 10.464844 "/>
<path style=" stroke:none;fill-rule:nonzero;fill:rgb(100%,100%,100%);fill-opacity:0.682353;" d="M 109.292969 25.417969 L 66.238281 6.910156 L 66.238281 9.8125 C 66.238281 18.457031 73.199219 25.417969 81.84375 25.417969 Z M 109.292969 25.417969 "/>
<path style=" stroke:none;fill-rule:nonzero;fill:rgb(0%,0%,0%);fill-opacity:0.556863;" d="M 49.179688 47.53125 L 46.414062 47.53125 L 46.414062 39.183594 C 45.402344 39.941406 44.210938 40.5 42.835938 40.863281 L 42.835938 38.851562 C 43.558594 38.664062 44.34375 38.304688 45.191406 37.78125 C 46.039062 37.25 46.621094 36.632812 46.933594 35.929688 L 49.179688 35.929688 L 49.179688 47.53125 "/>
<path style=" stroke:none;fill-rule:nonzero;fill:rgb(0%,0%,0%);fill-opacity:0.556863;" d="M 49.179688 63.589844 L 46.414062 63.589844 L 46.414062 55.242188 C 45.402344 56 44.210938 56.558594 42.835938 56.921875 L 42.835938 54.914062 C 43.558594 54.722656 44.34375 54.367188 45.191406 53.839844 C 46.039062 53.308594 46.621094 52.691406 46.933594 51.988281 L 49.179688 51.988281 L 49.179688 63.589844 "/>
<path style=" stroke:none;fill-rule:nonzero;fill:rgb(0%,0%,0%);fill-opacity:0.556863;" d="M 58.007812 51.988281 C 59.40625 51.988281 60.5 52.386719 61.289062 53.1875 C 62.230469 54.132812 62.699219 55.699219 62.699219 57.890625 C 62.699219 60.078125 62.226562 61.648438 61.28125 62.605469 C 60.5 63.394531 59.40625 63.789062 58.007812 63.789062 C 56.601562 63.789062 55.46875 63.355469 54.609375 62.496094 C 53.75 61.628906 53.320312 60.085938 53.320312 57.867188 C 53.320312 55.691406 53.792969 54.125 54.738281 53.171875 C 55.519531 52.382812 56.609375 51.988281 58.007812 51.988281 M 58.007812 53.824219 C 57.675781 53.824219 57.375 53.910156 57.113281 54.085938 C 56.851562 54.253906 56.644531 54.558594 56.5 55 C 56.3125 55.570312 56.214844 56.535156 56.214844 57.890625 C 56.214844 59.246094 56.300781 60.179688 56.472656 60.691406 C 56.644531 61.195312 56.855469 61.53125 57.113281 61.699219 C 57.375 61.867188 57.675781 61.949219 58.007812 61.949219 C 58.34375 61.949219 58.644531 61.867188 58.90625 61.699219 C 59.167969 61.523438 59.371094 61.21875 59.515625 60.777344 C 59.707031 60.207031 59.800781 59.246094 59.800781 57.890625 C 59.800781 56.535156 59.714844 55.605469 59.546875 55.101562 C 59.375 54.589844 59.160156 54.253906 58.894531 54.085938 C 58.640625 53.910156 58.34375 53.824219 58.007812 53.824219 "/>
<path style=" stroke:none;fill-rule:nonzero;fill:rgb(0%,0%,0%);fill-opacity:0.556863;" d="M 49.179688 82.421875 L 46.414062 82.421875 L 46.414062 74.074219 C 45.402344 74.832031 44.210938 75.390625 42.835938 75.753906 L 42.835938 73.746094 C 43.558594 73.554688 44.34375 73.199219 45.191406 72.671875 C 46.039062 72.140625 46.621094 71.523438 46.933594 70.820312 L 49.179688 70.820312 L 49.179688 82.421875 "/>
<path style=" stroke:none;fill-rule:nonzero;fill:rgb(0%,0%,0%);fill-opacity:0.556863;" d="M 58.007812 70.820312 C 59.40625 70.820312 60.5 71.21875 61.289062 72.015625 C 62.230469 72.964844 62.699219 74.53125 62.699219 76.722656 C 62.699219 78.910156 62.226562 80.480469 61.28125 81.4375 C 60.5 82.226562 59.40625 82.617188 58.007812 82.617188 C 56.601562 82.617188 55.46875 82.1875 54.609375 81.328125 C 53.75 80.460938 53.320312 78.917969 53.320312 76.699219 C 53.320312 74.523438 53.792969 72.957031 54.738281 72 C 55.519531 71.214844 56.609375 70.820312 58.007812 70.820312 M 58.007812 72.65625 C 57.675781 72.65625 57.375 72.742188 57.113281 72.914062 C 56.851562 73.085938 56.644531 73.390625 56.5 73.832031 C 56.3125 74.402344 56.214844 75.367188 56.214844 76.722656 C 56.214844 78.078125 56.300781 79.011719 56.472656 79.519531 C 56.644531 80.027344 56.855469 80.363281 57.113281 80.53125 C 57.375 80.699219 57.675781 80.78125 58.007812 80.78125 C 58.34375 80.78125 58.644531 80.699219 58.90625 80.53125 C 59.167969 80.355469 59.371094 80.050781 59.515625 79.609375 C 59.707031 79.039062 59.800781 78.078125 59.800781 76.722656 C 59.800781 75.367188 59.714844 74.4375 59.546875 73.933594 C 59.375 73.421875 59.160156 73.085938 58.894531 72.917969 C 58.640625 72.742188 58.34375 72.65625 58.007812 72.65625 "/>
<path style=" stroke:none;fill-rule:nonzero;fill:rgb(0%,0%,0%);fill-opacity:0.556863;" d="M 71.644531 82.421875 L 68.878906 82.421875 L 68.878906 74.074219 C 67.867188 74.832031 66.675781 75.390625 65.300781 75.753906 L 65.300781 73.746094 C 66.023438 73.554688 66.808594 73.199219 67.65625 72.671875 C 68.503906 72.140625 69.085938 71.523438 69.398438 70.820312 L 71.644531 70.820312 L 71.644531 82.421875 "/>
<path style=" stroke:none;fill-rule:nonzero;fill:rgb(0%,0%,0%);fill-opacity:0.556863;" d="M 49.179688 98.648438 L 46.414062 98.648438 L 46.414062 90.300781 C 45.402344 91.058594 44.210938 91.617188 42.835938 91.980469 L 42.835938 89.96875 C 43.558594 89.78125 44.34375 89.425781 45.191406 88.898438 C 46.039062 88.367188 46.621094 87.75 46.933594 87.046875 L 49.179688 87.046875 L 49.179688 98.648438 "/>
<path style=" stroke:none;fill-rule:nonzero;fill:rgb(0%,0%,0%);fill-opacity:0.556863;" d="M 58.007812 87.046875 C 59.40625 87.046875 60.5 87.449219 61.289062 88.246094 C 62.230469 89.191406 62.699219 90.761719 62.699219 92.953125 C 62.699219 95.136719 62.226562 96.707031 61.28125 97.664062 C 60.5 98.453125 59.40625 98.847656 58.007812 98.847656 C 56.601562 98.847656 55.46875 98.417969 54.609375 97.554688 C 53.75 96.6875 53.320312 95.144531 53.320312 92.929688 C 53.320312 90.753906 53.792969 89.1875 54.738281 88.230469 C 55.519531 87.441406 56.609375 87.046875 58.007812 87.046875 M 58.007812 88.882812 C 57.675781 88.882812 57.375 88.972656 57.113281 89.144531 C 56.851562 89.3125 56.644531 89.617188 56.5 90.058594 C 56.3125 90.632812 56.214844 91.597656 56.214844 92.953125 C 56.214844 94.308594 56.300781 95.242188 56.472656 95.75 C 56.644531 96.253906 56.855469 96.589844 57.113281 96.757812 C 57.375 96.925781 57.675781 97.011719 58.007812 97.011719 C 58.34375 97.011719 58.644531 96.925781 58.90625 96.757812 C 59.167969 96.585938 59.371094 96.277344 59.515625 95.835938 C 59.707031 95.269531 59.800781 94.308594 59.800781 92.953125 C 59.800781 91.597656 59.714844 90.667969 59.546875 90.160156 C 59.375 89.652344 59.160156 89.3125 58.894531 89.144531 C 58.640625 88.972656 58.34375 88.882812 58.007812 88.882812 "/>
<path style=" stroke:none;fill-rule:nonzero;fill:rgb(0%,0%,0%);fill-opacity:0.556863;" d="M 71.644531 98.648438 L 68.878906 98.648438 L 68.878906 90.300781 C 67.867188 91.058594 66.675781 91.617188 65.300781 91.980469 L 65.300781 89.96875 C 66.023438 89.78125 66.808594 89.425781 67.65625 88.898438 C 68.503906 88.367188 69.085938 87.75 69.398438 87.046875 L 71.644531 87.046875 L 71.644531 98.648438 "/>
<path style=" stroke:none;fill-rule:nonzero;fill:rgb(0%,0%,0%);fill-opacity:0.556863;" d="M 80.472656 87.046875 C 81.871094 87.046875 82.964844 87.449219 83.753906 88.246094 C 84.695312 89.191406 85.164062 90.761719 85.164062 92.953125 C 85.164062 95.136719 84.691406 96.707031 83.746094 97.664062 C 82.964844 98.453125 81.871094 98.847656 80.472656 98.847656 C 79.066406 98.847656 77.933594 98.417969 77.074219 97.554688 C 76.214844 96.6875 75.785156 95.144531 75.785156 92.929688 C 75.785156 90.753906 76.257812 89.1875 77.203125 88.230469 C 77.984375 87.441406 79.074219 87.046875 80.472656 87.046875 M 80.472656 88.882812 C 80.140625 88.882812 79.839844 88.972656 79.578125 89.144531 C 79.3125 89.3125 79.109375 89.617188 78.964844 90.058594 C 78.777344 90.632812 78.679688 91.597656 78.679688 92.953125 C 78.679688 94.308594 78.765625 95.242188 78.9375 95.75 C 79.109375 96.253906 79.320312 96.589844 79.578125 96.757812 C 79.839844 96.925781 80.140625 97.011719 80.472656 97.011719 C 80.808594 97.011719 81.109375 96.925781 81.371094 96.757812 C 81.632812 96.585938 81.835938 96.277344 81.980469 95.835938 C 82.171875 95.269531 82.265625 94.308594 82.265625 92.953125 C 82.265625 91.597656 82.179688 90.667969 82.011719 90.160156 C 81.839844 89.652344 81.625 89.3125 81.359375 89.144531 C 81.105469 88.972656 80.808594 88.882812 80.472656 88.882812 "/>
</g>
</svg>
