
<svg xmlns="http://www.w3.org/2000/svg" xmlns:xlink="http://www.w3.org/1999/xlink" width="128px" height="128px" viewBox="0 0 128 128" version="1.1">
<defs>
<clipPath id="clip1">
  <path d="M 64 72 L 94 72 L 94 102 L 64 102 Z M 64 72 "/>
</clipPath>
<clipPath id="clip2">
  <path d="M 78.46875 46.574219 C 63.839844 38.128906 45.132812 43.140625 36.6875 57.769531 C 28.242188 72.398438 33.253906 91.105469 47.882812 99.550781 C 62.511719 107.996094 81.21875 102.984375 89.664062 88.355469 C 98.113281 73.726562 93.097656 55.019531 78.46875 46.574219 Z M 67.347656 65.839844 C 71.339844 68.140625 72.703125 73.242188 70.402344 77.234375 C 68.097656 81.222656 62.996094 82.589844 59.007812 80.285156 C 55.015625 77.984375 53.648438 72.882812 55.953125 68.890625 C 58.257812 64.902344 63.359375 63.535156 67.347656 65.839844 Z M 67.347656 65.839844 "/>
</clipPath>
<clipPath id="clip3">
  <path d="M 32 44 L 63 44 L 63 75 L 32 75 Z M 32 44 "/>
</clipPath>
<clipPath id="clip4">
  <path d="M 48.007812 99.839844 C 62.636719 108.285156 81.34375 103.273438 89.789062 88.644531 C 98.238281 74.015625 93.222656 55.308594 78.59375 46.863281 C 63.964844 38.414062 45.257812 43.429688 36.8125 58.058594 C 28.367188 72.6875 33.378906 91.394531 48.007812 99.839844 Z M 59.128906 80.574219 C 55.140625 78.269531 53.773438 73.167969 56.078125 69.179688 C 58.378906 65.1875 63.480469 63.824219 67.472656 66.125 C 71.460938 68.429688 72.828125 73.53125 70.527344 77.523438 C 68.222656 81.511719 63.121094 82.878906 59.128906 80.574219 Z M 59.128906 80.574219 "/>
</clipPath>
</defs>
<g id="surface1">
<path style=" stroke:none;fill-rule:nonzero;fill:rgb(80%,80%,80%);fill-opacity:1;" d="M 34.3125 6.910156 C 25.667969 6.910156 18.707031 13.871094 18.707031 22.515625 L 18.707031 105.484375 C 18.707031 114.128906 25.667969 121.089844 34.3125 121.089844 L 93.6875 121.089844 C 102.332031 121.089844 109.292969 114.128906 109.292969 105.484375 L 109.292969 25.417969 L 66.238281 6.910156 Z M 95.285156 6.988281 C 96.339844 7.097656 97.359375 7.304688 98.339844 7.609375 C 97.359375 7.304688 96.339844 7.097656 95.285156 6.988281 Z M 98.339844 7.609375 C 99.804688 8.0625 101.175781 8.726562 102.421875 9.566406 C 101.175781 8.726562 99.804688 8.0625 98.339844 7.609375 Z M 103.625 10.464844 C 104.011719 10.78125 104.375 11.121094 104.730469 11.472656 C 104.375 11.121094 104.011719 10.78125 103.625 10.464844 Z M 103.625 10.464844 "/>
<path style=" stroke:none;fill-rule:nonzero;fill:rgb(100%,100%,100%);fill-opacity:0.682353;" d="M 109.292969 25.417969 L 66.238281 6.910156 L 66.238281 9.8125 C 66.238281 18.457031 73.199219 25.417969 81.84375 25.417969 Z M 109.292969 25.417969 "/>
<path style="fill-rule:nonzero;fill:rgb(50.196078%,50.196078%,50.196078%);fill-opacity:1;stroke-width:0.143376;stroke-linecap:butt;stroke-linejoin:miter;stroke:rgb(83.137255%,83.137255%,83.137255%);stroke-opacity:1;stroke-miterlimit:4;" d="M 29.425781 17.465332 C 23.939941 14.29834 16.924805 16.177734 13.757812 21.663574 C 10.59082 27.149414 12.470215 34.164551 17.956055 37.331543 C 23.441895 40.498535 30.457031 38.619141 33.624023 33.133301 C 36.79248 27.647461 34.911621 20.632324 29.425781 17.465332 Z M 25.255371 24.689941 C 26.752441 25.552734 27.263672 27.46582 26.400879 28.962891 C 25.536621 30.458496 23.623535 30.971191 22.12793 30.106934 C 20.630859 29.244141 20.118164 27.331055 20.982422 25.833984 C 21.84668 24.338379 23.759766 23.825684 25.255371 24.689941 Z M 25.255371 24.689941 " transform="matrix(2.666667,0,0,2.666667,0,0)"/>
<g clip-path="url(#clip1)" clip-rule="nonzero">
<g clip-path="url(#clip2)" clip-rule="nonzero">
<path style=" stroke:none;fill-rule:evenodd;fill:rgb(94.901961%,94.901961%,94.901961%);fill-opacity:1;" d="M 68.039062 72.402344 L 98.734375 77.585938 L 84.640625 101.992188 L 64.257812 75.664062 Z M 68.039062 72.402344 "/>
</g>
</g>
<g clip-path="url(#clip3)" clip-rule="nonzero">
<g clip-path="url(#clip4)" clip-rule="nonzero">
<path style=" stroke:none;fill-rule:evenodd;fill:rgb(94.901961%,94.901961%,94.901961%);fill-opacity:1;" d="M 58.4375 74.011719 L 27.746094 68.828125 L 41.835938 44.417969 L 62.21875 70.75 Z M 58.4375 74.011719 "/>
</g>
</g>
<path style="fill-rule:nonzero;fill:rgb(100%,100%,100%);fill-opacity:1;stroke-width:0.253932;stroke-linecap:butt;stroke-linejoin:miter;stroke:rgb(90.588235%,90.588235%,90.588235%);stroke-opacity:1;stroke-miterlimit:4;" d="M 26.140137 23.157715 C 23.797852 21.805664 20.802246 22.606934 19.450195 24.949219 C 18.098145 27.291504 18.900879 30.287109 21.243164 31.63916 C 23.585449 32.991211 26.57959 32.189941 27.933105 29.847656 C 29.285156 27.505371 28.482422 24.509766 26.140137 23.157715 Z M 24.990234 25.148438 C 26.233887 25.864746 26.660156 27.455566 25.942383 28.697754 C 25.224609 29.941406 23.635254 30.366211 22.391602 29.648438 C 21.149414 28.932129 20.723145 27.341309 21.440918 26.099121 C 22.158691 24.855469 23.748047 24.430664 24.990234 25.148438 Z M 24.990234 25.148438 " transform="matrix(2.666667,0,0,2.666667,0,0)"/>
</g>
</svg>
