
<svg xmlns="http://www.w3.org/2000/svg" xmlns:xlink="http://www.w3.org/1999/xlink" width="128px" height="128px" viewBox="0 0 128 128" version="1.1">
<g id="surface1">
<path style=" stroke:none;fill-rule:nonzero;fill:rgb(55.686275%,26.666667%,67.843137%);fill-opacity:1;" d="M 34.3125 6.910156 C 25.667969 6.910156 18.707031 13.871094 18.707031 22.515625 L 18.707031 105.484375 C 18.707031 114.128906 25.667969 121.089844 34.3125 121.089844 L 93.6875 121.089844 C 102.332031 121.089844 109.292969 114.128906 109.292969 105.484375 L 109.292969 25.417969 L 66.238281 6.910156 Z M 95.285156 6.988281 C 96.339844 7.097656 97.359375 7.304688 98.339844 7.609375 C 97.359375 7.304688 96.339844 7.097656 95.285156 6.988281 Z M 98.339844 7.609375 C 99.804688 8.0625 101.175781 8.726562 102.421875 9.566406 C 101.175781 8.726562 99.804688 8.0625 98.339844 7.609375 Z M 103.625 10.464844 C 104.011719 10.78125 104.375 11.121094 104.730469 11.472656 C 104.375 11.121094 104.011719 10.78125 103.625 10.464844 Z M 103.625 10.464844 "/>
<path style=" stroke:none;fill-rule:nonzero;fill:rgb(100%,100%,100%);fill-opacity:0.682353;" d="M 109.292969 25.417969 L 66.238281 6.910156 L 66.238281 9.8125 C 66.238281 18.457031 73.199219 25.417969 81.84375 25.417969 Z M 109.292969 25.417969 "/>
<path style=" stroke:none;fill-rule:nonzero;fill:rgb(100%,100%,100%);fill-opacity:1;" d="M 71.730469 50.085938 L 76.882812 50.085938 C 84.609375 50.085938 84.609375 58.035156 84.609375 58.035156 L 84.609375 65.90625 C 84.609375 68.554688 79.457031 73.9375 79.457031 73.9375 L 79.457031 76.585938 L 87.1875 81.890625 L 87.1875 87.191406 L 58.847656 87.191406 L 58.847656 81.890625 L 69.152344 76.589844 L 69.152344 73.9375 C 69.152344 73.9375 63.984375 68.554688 64 65.90625 L 64 58.039062 C 64 58.039062 64 50.085938 71.730469 50.085938 Z M 53.691406 55.386719 L 58.847656 55.386719 L 58.847656 65.90625 C 58.847656 68.554688 64 73.9375 64 73.9375 L 53.695312 79.238281 L 53.695312 84.539062 L 40.8125 84.457031 L 40.8125 81.804688 L 51.117188 76.589844 L 51.117188 73.9375 C 51.117188 73.9375 45.949219 68.554688 45.964844 65.90625 L 45.964844 63.339844 C 45.964844 55.386719 53.695312 55.386719 53.695312 55.386719 Z M 53.691406 55.386719 "/>
</g>
</svg>
