<?xml version="1.0" encoding="UTF-8"?>
<svg xmlns="http://www.w3.org/2000/svg" xmlns:xlink="http://www.w3.org/1999/xlink" width="128pt" height="128pt" viewBox="0 0 128 128" version="1.1">
<g id="surface1">
<path style="fill-rule:nonzero;fill:rgb(100%,100%,100%);fill-opacity:1;stroke-width:2.611469;stroke-linecap:butt;stroke-linejoin:miter;stroke:rgb(56.470588%,56.470588%,56.470588%);stroke-opacity:1;stroke-miterlimit:4;" d="M 7.833984 1006.972552 L 40.166016 1006.972552 C 43.050293 1006.972552 45.389648 1009.311907 45.389648 1012.196184 L 45.389648 1044.528216 C 45.389648 1047.412493 43.050293 1049.751848 40.166016 1049.751848 L 7.833984 1049.751848 C 4.949707 1049.751848 2.610352 1047.412493 2.610352 1044.528216 L 2.610352 1012.196184 C 2.610352 1009.311907 4.949707 1006.972552 7.833984 1006.972552 Z M 7.833984 1006.972552 " transform="matrix(2.666667,0,0,2.666667,0,-2678.2992)"/>
<path style=" stroke:none;fill-rule:evenodd;fill:rgb(90.588235%,29.803922%,23.529412%);fill-opacity:1;" d="M 43.257812 56.457031 C 35.421875 64.292969 35.421875 76.90625 43.257812 84.742188 C 51.09375 92.578125 63.707031 92.578125 71.542969 84.742188 L 84.742188 71.542969 C 92.578125 63.707031 92.578125 51.09375 84.742188 43.257812 C 76.90625 35.421875 64.292969 35.421875 56.457031 43.257812 Z M 50.796875 64.34375 L 64.34375 50.796875 C 67.902344 47.234375 73.636719 47.238281 77.199219 50.796875 C 80.761719 54.359375 80.761719 60.089844 77.199219 63.648438 L 63.652344 77.195312 C 60.09375 80.757812 54.363281 80.757812 50.800781 77.195312 C 47.238281 73.632812 47.234375 67.898438 50.796875 64.339844 Z M 50.796875 64.34375 "/>
<path style=" stroke:none;fill-rule:evenodd;fill:rgb(90.588235%,29.803922%,23.529412%);fill-opacity:1;" d="M 24 96.457031 L 31.542969 104 L 53.335938 82.207031 L 45.792969 74.664062 Z M 24 96.457031 "/>
<path style=" stroke:none;fill-rule:evenodd;fill:rgb(90.588235%,29.803922%,23.529412%);fill-opacity:1;" d="M 74.664062 45.792969 L 82.207031 53.335938 L 104 31.542969 L 96.457031 24 Z M 74.664062 45.792969 "/>
</g>
</svg>
