
<svg xmlns="http://www.w3.org/2000/svg" xmlns:xlink="http://www.w3.org/1999/xlink" width="16px" height="16px" viewBox="0 0 16 16" version="1.1">
<g id="surface1">
<path style="fill:none;stroke-width:1;stroke-linecap:round;stroke-linejoin:miter;stroke:rgb(0%,0%,0%);stroke-opacity:0.301961;stroke-miterlimit:4;" d="M 6.500973 4.500975 L 8.49902 4.500975 C 10.717281 4.500975 12.500483 5.838377 12.500483 7.498044 L 12.500483 16.499994 C 12.500483 18.159661 10.717281 19.502434 8.49902 19.502434 L 6.500973 19.502434 C 4.282713 19.502434 2.49951 18.159661 2.49951 16.499994 L 2.49951 7.498044 C 2.49951 5.838377 4.282713 4.500975 6.500973 4.500975 Z M 7.542965 4.500975 L 7.542965 8.502438 " transform="matrix(0.727273,0,0,0.727273,2.545455,0)"/>
<path style="fill:none;stroke-width:2;stroke-linecap:round;stroke-linejoin:miter;stroke:#4D4D4D;stroke-opacity:0.301961;stroke-miterlimit:4;" d="M 7.499997 4.334471 L 7.499997 7.664548 " transform="matrix(0.727273,0,0,0.727273,2.545455,0)"/>
<path style="fill:none;stroke-width:0.5;stroke-linecap:round;stroke-linejoin:miter;stroke:#4D4D4D;stroke-opacity:0.301961;stroke-miterlimit:4;" d="M -15.452631 3.251463 L -6.547361 3.251463 C -5.279783 3.251463 -4.248534 4.728513 -4.248534 6.549313 L -4.248534 8.45068 C -4.248534 10.27148 -5.279783 11.74853 -6.547361 11.74853 L -15.452631 11.74853 C -16.720209 11.74853 -17.751458 10.27148 -17.751458 8.45068 L -17.751458 6.549313 C -17.751458 4.728513 -16.720209 3.251463 -15.452631 3.251463 Z M -15.452631 3.251463 " transform="matrix(0,-0.727273,0.727273,0,2.545455,0)"/>
<path style="fill:none;stroke-width:1;stroke-linecap:round;stroke-linejoin:miter;stroke:#4D4D4D;stroke-opacity:1;stroke-miterlimit:4;" d="M 6.500973 3.501952 L 8.49902 3.501952 C 10.717281 3.501952 12.500483 4.839354 12.500483 6.499021 L 12.500483 15.500971 C 12.500483 17.160638 10.717281 18.49804 8.49902 18.49804 L 6.500973 18.49804 C 4.282713 18.49804 2.49951 17.160638 2.49951 15.500971 L 2.49951 6.499021 C 2.49951 4.839354 4.282713 3.501952 6.500973 3.501952 Z M 7.542965 3.501952 L 7.542965 7.498044 " transform="matrix(0.727273,0,0,0.727273,2.545455,0)"/>
<path style=" stroke:none;fill-rule:evenodd;fill:#4D4D4D;fill-opacity:1;" d="M 5.664062 8 C 5.144531 8 4.726562 8.324219 4.726562 8.726562 L 4.726562 11.636719 C 4.726562 12.441406 5.550781 13.089844 7.53125 13.089844 L 8.46875 13.089844 C 10.546875 13.089844 11.273438 12.441406 11.273438 11.636719 L 11.273438 8.726562 C 11.273438 8.324219 10.855469 8 10.335938 8 Z M 5.664062 8 "/>
</g>
</svg>
