
<svg xmlns="http://www.w3.org/2000/svg" xmlns:xlink="http://www.w3.org/1999/xlink" width="16px" height="16px" viewBox="0 0 16 16" version="1.1">
<g id="surface1">
<path style=" stroke:none;fill-rule:nonzero;fill:rgb(0%,0%,0%);fill-opacity:0.301961;" d="M 12.011719 9.003906 C 12.011719 11.214844 10.21875 13.011719 8.007812 13.011719 C 5.792969 13.011719 4 11.214844 4 9.003906 C 4 6.789062 5.792969 4.996094 8.007812 4.996094 C 10.21875 4.996094 12.011719 6.789062 12.011719 9.003906 Z M 12.011719 9.003906 "/>
<path style=" stroke:none;fill-rule:nonzero;fill:rgb(87.45098%,85.882353%,82.352941%);fill-opacity:1;" d="M 12.011719 8.007812 C 12.011719 10.21875 10.21875 12.015625 8.007812 12.015625 C 5.792969 12.015625 4 10.21875 4 8.007812 C 4 5.792969 5.792969 4 8.007812 4 C 10.21875 4 12.011719 5.792969 12.011719 8.007812 Z M 12.011719 8.007812 "/>
<path style="fill:none;stroke-width:2;stroke-linecap:round;stroke-linejoin:miter;stroke:rgb(0%,0%,0%);stroke-opacity:0.301961;stroke-miterlimit:4;" d="M 3.554688 13.460938 L 3.0625 13.957031 M 8.011719 15.003906 L 8.011719 16.003906 M 12.949219 13.953125 L 12.382812 13.390625 M 12.453125 4.550781 L 12.949219 4.054688 M 3.617188 4.621094 L 3.050781 4.054688 M 1 9.003906 L 2 9.003906 M 14 9.003906 L 15 9.003906 M 8 3.003906 L 8 2.003906 "/>
<path style="fill:none;stroke-width:2;stroke-linecap:round;stroke-linejoin:miter;stroke:rgb(87.45098%,85.882353%,82.352941%);stroke-opacity:1;stroke-miterlimit:4;" d="M 3.554688 12.457031 L 3.0625 12.949219 M 8.011719 14 L 8.011719 15 M 12.949219 12.949219 L 12.382812 12.382812 M 12.453125 3.546875 L 12.949219 3.050781 M 3.617188 3.617188 L 3.050781 3.050781 M 1 8 L 2 8 M 14 8 L 15 8 M 8 2 L 8 1 "/>
</g>
</svg>
