
<svg xmlns="http://www.w3.org/2000/svg" xmlns:xlink="http://www.w3.org/1999/xlink" width="16px" height="16px" viewBox="0 0 16 16" version="1.1">
<g id="surface1">
<path style="fill:none;stroke-width:2;stroke-linecap:round;stroke-linejoin:miter;stroke:rgb(0%,0%,0%);stroke-opacity:0.301961;stroke-miterlimit:4;" d="M 12.949219 13.949219 L 12.382812 13.382812 M 12.457031 4.546875 L 12.949219 4.050781 M 3.617188 4.617188 L 3.050781 4.050781 M 1 9 L 2 9 M 14 9 L 15 9 M 8 3 L 8 2 "/>
<path style=" stroke:none;fill-rule:nonzero;fill:rgb(0%,0%,0%);fill-opacity:0.301961;" d="M 8 5 C 5.789062 5 4 6.789062 4 9 C 4 9.285156 4.035156 9.574219 4.09375 9.84375 C 4.675781 9.316406 5.394531 8.9375 6.25 8.9375 C 7.863281 8.9375 9.175781 10.125 9.4375 11.65625 C 9.746094 11.832031 10.003906 12.066406 10.25 12.3125 C 10.253906 12.316406 10.277344 12.308594 10.28125 12.3125 C 11.335938 11.59375 12 10.371094 12 9 C 12 6.792969 10.210938 5 8 5 Z M 6.25 10 C 5.40625 10 4.679688 10.457031 4.296875 11.113281 C 4.082031 10.957031 3.804688 10.855469 3.5 10.855469 C 2.808594 10.855469 2.25 11.335938 2.25 11.929688 C 2.25 12.0625 2.277344 12.1875 2.328125 12.304688 C 1.542969 12.605469 1 13.285156 1 14.070312 C 1 15.140625 2.003906 16 3.25 16 L 7.75 16 C 8.996094 16 10 15.140625 10 14.070312 C 10 13.222656 9.367188 12.511719 8.484375 12.25 C 8.488281 12.214844 8.5 12.179688 8.5 12.140625 C 8.5 10.960938 7.492188 10 6.25 10 Z M 6.25 10 "/>
<path style="fill:none;stroke-width:2;stroke-linecap:round;stroke-linejoin:miter;stroke:rgb(87.45098%,85.882353%,82.352941%);stroke-opacity:1;stroke-miterlimit:4;" d="M 12.949219 12.949219 L 12.382812 12.382812 M 12.453125 3.546875 L 12.949219 3.050781 M 3.617188 3.617188 L 3.050781 3.050781 M 1 8 L 2 8 M 14 8 L 15 8 M 8 2 L 8 1 "/>
<path style=" stroke:none;fill-rule:nonzero;fill:rgb(87.45098%,85.882353%,82.352941%);fill-opacity:1;" d="M 8 4 C 5.789062 4 4 5.789062 4 8 C 4 8.285156 4.035156 8.574219 4.09375 8.84375 C 4.675781 8.316406 5.394531 7.9375 6.25 7.9375 C 7.863281 7.9375 9.175781 9.125 9.4375 10.65625 C 9.746094 10.832031 10.003906 11.066406 10.25 11.3125 C 10.253906 11.316406 10.277344 11.308594 10.28125 11.3125 C 11.335938 10.59375 12 9.371094 12 8 C 12 5.792969 10.210938 4 8 4 Z M 6.25 9 C 5.40625 9 4.679688 9.457031 4.296875 10.113281 C 4.082031 9.957031 3.804688 9.855469 3.5 9.855469 C 2.808594 9.855469 2.25 10.335938 2.25 10.929688 C 2.25 11.0625 2.277344 11.1875 2.328125 11.304688 C 1.542969 11.601562 1 12.285156 1 13.070312 C 1 14.136719 2.003906 15 3.25 15 L 7.75 15 C 8.996094 15 10 14.136719 10 13.070312 C 10 12.222656 9.367188 11.507812 8.484375 11.25 C 8.488281 11.210938 8.5 11.179688 8.5 11.140625 C 8.5 9.957031 7.492188 9 6.25 9 Z M 6.25 9 "/>
</g>
</svg>
