<?xml version="1.0" encoding="UTF-8"?>
<svg xmlns="http://www.w3.org/2000/svg" xmlns:xlink="http://www.w3.org/1999/xlink" width="256pt" height="256pt" viewBox="0 0 256 256" version="1.1">
<g id="surface1">
<path style="fill-rule:nonzero;fill:rgb(34.509804%,47.058824%,35.686275%);fill-opacity:1;stroke-width:18.73;stroke-linecap:butt;stroke-linejoin:miter;stroke:rgb(24.705882%,33.72549%,25.490196%);stroke-opacity:1;stroke-miterlimit:4;" d="M 78.640625 31 L 433.359375 31 C 459.671875 31 481 52.328125 481 78.640625 L 481 433.359375 C 481 459.671875 459.671875 481 433.359375 481 L 78.640625 481 C 52.328125 481 31 459.671875 31 433.359375 L 31 78.640625 C 31 52.328125 52.328125 31 78.640625 31 Z M 78.640625 31 " transform="matrix(0.5,0,0,0.5,0,0)"/>
<path style=" stroke:none;fill-rule:nonzero;fill:rgb(100%,100%,100%);fill-opacity:1;" d="M 169.015625 57.488281 L 178.984375 57.488281 C 183.433594 57.488281 187.039062 60.960938 187.039062 65.242188 L 187.039062 69.675781 C 187.039062 73.957031 183.433594 77.429688 178.984375 77.429688 L 169.015625 77.429688 C 164.566406 77.429688 160.960938 73.957031 160.960938 69.675781 L 160.960938 65.242188 C 160.960938 60.960938 164.566406 57.488281 169.015625 57.488281 Z M 169.015625 57.488281 "/>
<path style=" stroke:none;fill-rule:nonzero;fill:rgb(100%,100%,100%);fill-opacity:1;" d="M 169.015625 86.488281 L 178.984375 86.488281 C 183.433594 86.488281 187.039062 89.960938 187.039062 94.242188 L 187.039062 98.675781 C 187.039062 102.957031 183.433594 106.429688 178.984375 106.429688 L 169.015625 106.429688 C 164.566406 106.429688 160.960938 102.957031 160.960938 98.675781 L 160.960938 94.242188 C 160.960938 89.960938 164.566406 86.488281 169.015625 86.488281 Z M 169.015625 86.488281 "/>
<path style=" stroke:none;fill-rule:nonzero;fill:rgb(100%,100%,100%);fill-opacity:1;" d="M 169.015625 117.488281 L 178.984375 117.488281 C 183.433594 117.488281 187.039062 120.960938 187.039062 125.242188 L 187.039062 129.675781 C 187.039062 133.957031 183.433594 137.429688 178.984375 137.429688 L 169.015625 137.429688 C 164.566406 137.429688 160.960938 133.957031 160.960938 129.675781 L 160.960938 125.242188 C 160.960938 120.960938 164.566406 117.488281 169.015625 117.488281 Z M 169.015625 117.488281 "/>
<path style=" stroke:none;fill-rule:nonzero;fill:rgb(100%,100%,100%);fill-opacity:1;" d="M 169.015625 146.488281 L 178.984375 146.488281 C 183.433594 146.488281 187.039062 149.960938 187.039062 154.242188 L 187.039062 158.675781 C 187.039062 162.957031 183.433594 166.429688 178.984375 166.429688 L 169.015625 166.429688 C 164.566406 166.429688 160.960938 162.957031 160.960938 158.675781 L 160.960938 154.242188 C 160.960938 149.960938 164.566406 146.488281 169.015625 146.488281 Z M 169.015625 146.488281 "/>
<path style=" stroke:none;fill-rule:nonzero;fill:rgb(100%,100%,100%);fill-opacity:1;" d="M 169.015625 176.488281 L 178.984375 176.488281 C 183.433594 176.488281 187.039062 179.960938 187.039062 184.242188 L 187.039062 188.675781 C 187.039062 192.957031 183.433594 196.429688 178.984375 196.429688 L 169.015625 196.429688 C 164.566406 196.429688 160.960938 192.957031 160.960938 188.675781 L 160.960938 184.242188 C 160.960938 179.960938 164.566406 176.488281 169.015625 176.488281 Z M 169.015625 176.488281 "/>
<path style=" stroke:none;fill-rule:nonzero;fill:rgb(100%,100%,100%);fill-opacity:1;" d="M 77.015625 57.488281 L 86.984375 57.488281 C 91.433594 57.488281 95.039062 60.960938 95.039062 65.242188 L 95.039062 69.675781 C 95.039062 73.957031 91.433594 77.429688 86.984375 77.429688 L 77.015625 77.429688 C 72.566406 77.429688 68.960938 73.957031 68.960938 69.675781 L 68.960938 65.242188 C 68.960938 60.960938 72.566406 57.488281 77.015625 57.488281 Z M 77.015625 57.488281 "/>
<path style=" stroke:none;fill-rule:nonzero;fill:rgb(100%,100%,100%);fill-opacity:1;" d="M 77.015625 86.488281 L 86.984375 86.488281 C 91.433594 86.488281 95.039062 89.960938 95.039062 94.242188 L 95.039062 98.675781 C 95.039062 102.957031 91.433594 106.429688 86.984375 106.429688 L 77.015625 106.429688 C 72.566406 106.429688 68.960938 102.957031 68.960938 98.675781 L 68.960938 94.242188 C 68.960938 89.960938 72.566406 86.488281 77.015625 86.488281 Z M 77.015625 86.488281 "/>
<path style=" stroke:none;fill-rule:nonzero;fill:rgb(100%,100%,100%);fill-opacity:1;" d="M 77.015625 117.488281 L 86.984375 117.488281 C 91.433594 117.488281 95.039062 120.960938 95.039062 125.242188 L 95.039062 129.675781 C 95.039062 133.957031 91.433594 137.429688 86.984375 137.429688 L 77.015625 137.429688 C 72.566406 137.429688 68.960938 133.957031 68.960938 129.675781 L 68.960938 125.242188 C 68.960938 120.960938 72.566406 117.488281 77.015625 117.488281 Z M 77.015625 117.488281 "/>
<path style=" stroke:none;fill-rule:nonzero;fill:rgb(100%,100%,100%);fill-opacity:1;" d="M 77.015625 146.488281 L 86.984375 146.488281 C 91.433594 146.488281 95.039062 149.960938 95.039062 154.242188 L 95.039062 158.675781 C 95.039062 162.957031 91.433594 166.429688 86.984375 166.429688 L 77.015625 166.429688 C 72.566406 166.429688 68.960938 162.957031 68.960938 158.675781 L 68.960938 154.242188 C 68.960938 149.960938 72.566406 146.488281 77.015625 146.488281 Z M 77.015625 146.488281 "/>
<path style=" stroke:none;fill-rule:nonzero;fill:rgb(100%,100%,100%);fill-opacity:1;" d="M 77.015625 176.488281 L 86.984375 176.488281 C 91.433594 176.488281 95.039062 179.960938 95.039062 184.242188 L 95.039062 188.675781 C 95.039062 192.957031 91.433594 196.429688 86.984375 196.429688 L 77.015625 196.429688 C 72.566406 196.429688 68.960938 192.957031 68.960938 188.675781 L 68.960938 184.242188 C 68.960938 179.960938 72.566406 176.488281 77.015625 176.488281 Z M 77.015625 176.488281 "/>
<path style=" stroke:none;fill-rule:nonzero;fill:rgb(28.627451%,28.627451%,29.803922%);fill-opacity:1;" d="M 161.632812 216.140625 C 160.5 216.777344 158.648438 217.515625 157.523438 217.785156 C 154.761719 218.4375 96.023438 217.871094 93.84375 217.171875 C 91.082031 216.285156 87.785156 213.335938 86.074219 210.222656 C 84.75 207.8125 84.609375 206.882812 84.742188 201.347656 C 84.824219 197.949219 84.875 191.527344 84.847656 187.082031 C 84.824219 182.632812 84.816406 176.15625 84.832031 172.6875 C 84.847656 169.222656 84.863281 162.566406 84.863281 157.898438 C 84.863281 153.234375 84.863281 146.550781 84.863281 143.050781 C 84.863281 139.550781 84.863281 132.828125 84.859375 128.113281 C 84.859375 123.398438 84.859375 116.679688 84.859375 113.179688 C 84.859375 109.679688 84.945312 103.082031 85.050781 98.519531 C 85.160156 93.960938 85.070312 90.050781 84.855469 89.835938 C 84.640625 89.621094 84.558594 86.664062 84.675781 83.265625 C 84.953125 75.050781 84.953125 60.867188 84.675781 55.519531 C 84.28125 47.941406 86.757812 42.925781 92.433594 39.804688 C 95.03125 38.375 95.804688 38.335938 126.070312 38.054688 C 160.578125 37.734375 160.238281 37.695312 164.714844 42.160156 C 167.941406 45.378906 168.972656 48.386719 169 54.667969 C 169.015625 57.472656 168.855469 59.941406 168.644531 60.152344 C 168.289062 60.503906 168.359375 68.226562 168.851562 83.277344 C 168.960938 86.667969 168.875 89.621094 168.65625 89.835938 C 168.441406 90.054688 168.355469 94.039062 168.464844 98.691406 C 168.578125 103.34375 168.664062 109.816406 168.660156 113.078125 C 168.65625 116.339844 168.652344 122.984375 168.652344 127.847656 C 168.652344 132.707031 168.652344 139.390625 168.652344 142.695312 C 168.652344 146.003906 168.652344 152.683594 168.652344 157.546875 C 168.652344 162.40625 168.652344 169.089844 168.652344 172.394531 C 168.652344 192.152344 168.667969 197.40625 168.757812 201.335938 C 168.90625 208.140625 166.324219 213.503906 161.632812 216.140625 Z M 161.632812 216.140625 "/>
<path style=" stroke:none;fill-rule:nonzero;fill:rgb(80%,80%,80%);fill-opacity:1;" d="M 159.042969 206.292969 C 159.042969 209.679688 156.296875 212.429688 152.90625 212.429688 C 149.519531 212.429688 146.769531 209.679688 146.769531 206.292969 C 146.769531 202.902344 149.519531 200.15625 152.90625 200.15625 C 156.296875 200.15625 159.042969 202.902344 159.042969 206.292969 Z M 159.042969 206.292969 "/>
<path style=" stroke:none;fill-rule:nonzero;fill:rgb(80%,80%,80%);fill-opacity:1;" d="M 123.375 38.949219 L 130.277344 38.949219 L 130.277344 52.804688 L 123.375 52.804688 Z M 123.375 38.949219 "/>
<path style=" stroke:none;fill-rule:nonzero;fill:rgb(100%,100%,100%);fill-opacity:1;" d="M 105.132812 154.441406 C 104.703125 154.011719 104.578125 153.09375 104.578125 150.347656 C 104.578125 147.320312 104.683594 146.664062 105.320312 145.769531 C 105.96875 144.859375 106.25 144.738281 107.527344 144.832031 C 108.894531 144.929688 108.996094 145.015625 109.101562 146.085938 C 109.164062 146.730469 109.046875 147.230469 108.835938 147.230469 C 108.628906 147.230469 108.144531 147.550781 107.753906 147.9375 C 107.175781 148.515625 107.050781 149.113281 107.050781 151.261719 C 107.050781 152.703125 106.953125 154.132812 106.835938 154.4375 C 106.5625 155.148438 105.84375 155.152344 105.132812 154.441406 Z M 105.132812 154.441406 "/>
<path style=" stroke:none;fill-rule:nonzero;fill:rgb(100%,100%,100%);fill-opacity:1;" d="M 149.136719 154.765625 C 148.832031 154.640625 148.695312 153.652344 148.695312 151.578125 C 148.695312 148.695312 148.652344 148.535156 147.636719 147.585938 C 146.5 146.523438 146.324219 145.859375 147 145.183594 C 147.753906 144.433594 149.292969 144.691406 150.089844 145.707031 C 150.761719 146.558594 150.824219 147.03125 150.734375 150.730469 C 150.632812 154.914062 150.472656 155.320312 149.136719 154.765625 Z M 149.136719 154.765625 "/>
<path style=" stroke:none;fill-rule:nonzero;fill:rgb(100%,100%,100%);fill-opacity:1;" d="M 101.296875 151.949219 C 101.160156 151.8125 101.050781 150.023438 101.054688 147.96875 L 101.0625 144.230469 L 104.164062 140.925781 L 106.222656 141.109375 C 109.003906 141.355469 109.234375 141.457031 109.101562 142.378906 C 109.007812 143.042969 108.714844 143.207031 107.320312 143.367188 C 106.144531 143.5 105.3125 143.863281 104.5 144.601562 C 103.863281 145.175781 103.265625 145.695312 103.167969 145.761719 C 103.070312 145.824219 102.910156 147.25 102.8125 148.933594 C 102.675781 151.320312 102.515625 152.011719 102.089844 152.09375 C 101.789062 152.152344 101.433594 152.085938 101.296875 151.949219 Z M 101.296875 151.949219 "/>
<path style=" stroke:none;fill-rule:nonzero;fill:rgb(100%,100%,100%);fill-opacity:1;" d="M 153.015625 151.632812 C 152.835938 151.3125 152.757812 150.34375 152.84375 149.480469 C 153.117188 146.769531 152.699219 145.5625 151.09375 144.398438 C 150.199219 143.75 149.210938 143.351562 148.507812 143.351562 C 147.25 143.351562 146.386719 142.59375 146.703125 141.765625 C 146.859375 141.359375 147.496094 141.234375 149.359375 141.234375 L 151.808594 141.234375 L 153.261719 142.878906 C 155.015625 144.875 155.105469 145.195312 154.972656 148.996094 C 154.878906 151.765625 154.8125 152.003906 154.105469 152.105469 C 153.671875 152.167969 153.199219 151.964844 153.015625 151.632812 Z M 153.015625 151.632812 "/>
<path style=" stroke:none;fill-rule:nonzero;fill:rgb(100%,100%,100%);fill-opacity:1;" d="M 97.605469 149.292969 C 97.3125 149.003906 97.167969 147.664062 97.171875 145.308594 L 97.175781 141.761719 L 99.503906 139.191406 L 101.835938 136.621094 L 105.238281 136.71875 L 108.636719 136.820312 L 108.636719 137.878906 C 108.636719 138.9375 108.632812 138.9375 106.351562 139.046875 C 103.847656 139.164062 103.613281 139.300781 101.3125 142.046875 C 99.972656 143.644531 99.878906 143.910156 99.675781 146.632812 C 99.488281 149.175781 99.375 149.539062 98.75 149.628906 C 98.359375 149.683594 97.84375 149.53125 97.605469 149.292969 Z M 97.605469 149.292969 "/>
<path style=" stroke:none;fill-rule:nonzero;fill:rgb(100%,100%,100%);fill-opacity:1;" d="M 111.015625 149.296875 C 110.691406 148.96875 110.578125 146.753906 110.578125 140.777344 C 110.578125 133.230469 110.53125 132.636719 109.871094 131.800781 C 109.332031 131.113281 109.167969 130.367188 109.167969 128.621094 L 109.167969 126.339844 L 105.8125 122.878906 L 102.460938 119.421875 L 102.457031 116.121094 C 102.453125 114.308594 102.3125 112.609375 102.148438 112.347656 C 101.980469 112.082031 101.308594 111.761719 100.652344 111.625 L 99.460938 111.382812 L 99.460938 101.175781 L 101.039062 101.175781 C 102.570312 101.175781 102.625 101.214844 103.003906 102.558594 C 103.226562 103.351562 103.675781 104.042969 104.050781 104.175781 C 104.425781 104.308594 104.875 105 105.09375 105.789062 C 105.5625 107.460938 106.464844 107.652344 106.640625 106.117188 C 106.785156 104.808594 107.226562 104.25 108.222656 104.109375 C 108.828125 104.023438 109.027344 103.699219 109.167969 102.585938 C 109.34375 101.175781 109.34375 101.175781 110.925781 101.175781 C 112.492188 101.175781 112.507812 101.1875 112.757812 102.585938 C 112.894531 103.363281 113.015625 105.535156 113.027344 107.414062 C 113.050781 111.125 112.707031 111.941406 111.125 111.941406 C 110.195312 111.941406 109.882812 112.703125 109.878906 114.996094 C 109.871094 116.652344 111.054688 118.359375 114.597656 121.808594 L 116.578125 123.738281 L 116.582031 126.75 C 116.585938 128.40625 116.722656 129.976562 116.886719 130.234375 C 117.078125 130.535156 118.238281 130.777344 120.082031 130.902344 L 122.976562 131.101562 L 125.492188 133.875 C 126.875 135.398438 128.234375 136.644531 128.515625 136.644531 C 128.792969 136.644531 130.25 135.335938 131.753906 133.734375 L 134.484375 130.820312 L 136.964844 130.917969 C 140.363281 131.054688 140.578125 130.804688 140.578125 126.671875 L 140.578125 123.453125 L 143.929688 120.039062 C 147.140625 116.769531 147.28125 116.5625 147.277344 115.078125 C 147.269531 112.730469 146.957031 111.960938 145.917969 111.710938 C 144.179688 111.296875 144.105469 111.078125 144.105469 106.292969 C 144.105469 101.277344 144.277344 100.871094 146.277344 101.0625 C 147.296875 101.164062 147.488281 101.347656 147.832031 102.578125 C 148.117188 103.605469 148.449219 104.035156 149.074219 104.183594 C 149.726562 104.335938 149.972656 104.6875 150.136719 105.695312 C 150.386719 107.242188 150.59375 107.511719 151.324219 107.230469 C 151.671875 107.097656 151.871094 106.574219 151.871094 105.808594 C 151.871094 104.785156 152.03125 104.542969 152.90625 104.238281 C 153.773438 103.933594 153.960938 103.65625 154.054688 102.527344 C 154.15625 101.269531 154.25 101.167969 155.382812 101.058594 C 157.28125 100.878906 157.515625 101.5 157.515625 106.644531 C 157.515625 111.335938 157.332031 111.941406 155.898438 111.941406 C 154.902344 111.941406 154.703125 112.722656 154.699219 116.703125 L 154.695312 119.878906 L 148.226562 125.980469 L 148.019531 128.378906 C 147.816406 130.71875 147.78125 130.785156 146.6875 131.070312 C 145.632812 131.339844 145.554688 131.472656 145.34375 133.382812 C 145.222656 134.496094 145.089844 135.648438 145.050781 135.9375 C 144.996094 136.363281 144.269531 136.488281 141.457031 136.570312 C 139.523438 136.625 137.828125 136.785156 137.691406 136.921875 C 137.34375 137.277344 137.199219 145.738281 137.535156 146.074219 C 137.6875 146.226562 139.347656 146.429688 141.222656 146.527344 L 144.636719 146.703125 L 144.742188 148.203125 L 144.851562 149.703125 L 139.40625 149.703125 C 135.472656 149.703125 133.859375 149.578125 133.597656 149.261719 C 133.402344 149.019531 133.183594 147.042969 133.109375 144.875 C 133.039062 142.703125 132.867188 140.816406 132.730469 140.679688 C 132.589844 140.542969 131.746094 141.246094 130.847656 142.242188 C 129.953125 143.238281 128.964844 144.054688 128.652344 144.054688 C 128.34375 144.054688 127.355469 143.261719 126.460938 142.292969 C 125.5625 141.320312 124.644531 140.527344 124.417969 140.527344 C 124.136719 140.527344 123.980469 141.90625 123.910156 145.027344 L 123.8125 149.527344 L 121.398438 149.632812 C 119.972656 149.695312 118.789062 149.574219 118.507812 149.339844 C 118.242188 149.121094 117.980469 148.28125 117.921875 147.472656 C 117.832031 146.269531 117.636719 145.917969 116.84375 145.539062 C 116.070312 145.171875 115.871094 144.835938 115.871094 143.902344 C 115.871094 142.46875 115.066406 141.640625 114.296875 142.28125 C 113.921875 142.589844 113.75 143.652344 113.679688 146.117188 L 113.578125 149.527344 L 112.515625 149.628906 C 111.933594 149.6875 111.257812 149.535156 111.019531 149.296875 Z M 111.015625 149.296875 "/>
<path style=" stroke:none;fill-rule:nonzero;fill:rgb(100%,100%,100%);fill-opacity:1;" d="M 117.570312 137.4375 C 117.433594 136.707031 114.953125 136.363281 114.328125 136.988281 C 113.761719 137.554688 114.6875 138.042969 116.339844 138.050781 C 117.433594 138.054688 117.667969 137.941406 117.570312 137.4375 Z M 117.570312 137.4375 "/>
<path style=" stroke:none;fill-rule:nonzero;fill:rgb(100%,100%,100%);fill-opacity:1;" d="M 156.546875 149.46875 C 156.246094 149.347656 156.105469 148.417969 156.105469 146.578125 C 156.105469 143.933594 156.070312 143.824219 154.675781 142.109375 C 152.546875 139.492188 151.992188 139.121094 150.15625 139.078125 C 147.578125 139.023438 146.753906 138.6875 146.753906 137.6875 C 146.753906 136.835938 146.804688 136.820312 150.160156 136.71875 L 153.566406 136.621094 L 155.894531 139.289062 C 157.175781 140.757812 158.226562 142.15625 158.230469 142.390625 C 158.234375 142.628906 158.335938 144.128906 158.453125 145.730469 C 158.707031 149.242188 158.242188 150.152344 156.546875 149.46875 Z M 156.546875 149.46875 "/>
<path style=" stroke:none;fill-rule:nonzero;fill:rgb(100%,100%,100%);fill-opacity:1;" d="M 93.875 146.996094 C 93.742188 146.867188 93.636719 145.050781 93.636719 142.957031 L 93.636719 139.148438 L 96.371094 135.949219 L 99.109375 132.746094 L 104.050781 132.84375 L 108.988281 132.9375 L 108.988281 133.820312 C 108.988281 134.703125 108.980469 134.703125 104.871094 134.878906 C 102.605469 134.976562 100.679688 135.136719 100.59375 135.234375 C 97.542969 138.652344 96.109375 140.738281 96.109375 141.753906 C 96.109375 142.378906 96.007812 143.871094 95.882812 145.0625 C 95.679688 146.992188 95.570312 147.230469 94.882812 147.230469 C 94.457031 147.230469 94.003906 147.125 93.875 146.996094 Z M 93.875 146.996094 "/>
<path style=" stroke:none;fill-rule:nonzero;fill:rgb(100%,100%,100%);fill-opacity:1;" d="M 159.871094 146.996094 C 159.742188 146.867188 159.632812 145.289062 159.632812 143.488281 L 159.632812 140.214844 L 157.519531 137.761719 C 156.355469 136.414062 155.152344 135.214844 154.84375 135.09375 C 154.535156 134.976562 152.90625 134.878906 151.222656 134.875 C 147.136719 134.867188 146.507812 134.683594 146.644531 133.511719 C 146.765625 132.480469 146.1875 132.554688 152.894531 132.691406 L 156.386719 132.761719 L 159.246094 136.136719 C 160.816406 137.992188 162.121094 139.859375 162.144531 140.285156 C 162.164062 140.707031 162.238281 142.007812 162.304688 143.171875 C 162.496094 146.398438 162.242188 147.230469 161.078125 147.230469 C 160.542969 147.230469 160 147.125 159.871094 146.996094 Z M 159.871094 146.996094 "/>
<path style=" stroke:none;fill-rule:nonzero;fill:rgb(100%,100%,100%);fill-opacity:1;" d="M 123.214844 128.160156 C 122.449219 127.980469 122.394531 127.777344 122.296875 124.808594 C 122.207031 122.019531 122.09375 121.546875 121.332031 120.753906 C 120.859375 120.257812 120.371094 119.351562 120.25 118.734375 C 120.0625 117.796875 120.199219 117.441406 121.097656 116.542969 C 121.6875 115.953125 122.429688 115.46875 122.746094 115.46875 C 123.824219 115.46875 125.300781 116.492188 125.734375 117.542969 C 126.257812 118.804688 125.972656 119.914062 124.8125 121.15625 C 124.066406 121.953125 123.964844 122.355469 124.058594 124.15625 L 124.164062 126.234375 L 132.988281 126.234375 L 133.09375 124.011719 C 133.1875 122.058594 133.089844 121.65625 132.300781 120.71875 C 130.949219 119.113281 130.972656 117.476562 132.359375 116.230469 C 133.507812 115.199219 135.089844 115.402344 136.253906 116.722656 C 137.292969 117.90625 137.261719 119.394531 136.164062 120.699219 C 135.390625 121.621094 135.28125 122.082031 135.277344 124.519531 C 135.273438 126.042969 135.136719 127.507812 134.96875 127.773438 C 134.734375 128.140625 133.40625 128.265625 129.34375 128.300781 C 126.421875 128.328125 123.660156 128.265625 123.214844 128.160156 Z M 123.214844 128.160156 "/>
</g>
</svg>
