
<svg xmlns="http://www.w3.org/2000/svg" xmlns:xlink="http://www.w3.org/1999/xlink" width="256px" height="256px" viewBox="0 0 256 256" version="1.1">
<g id="surface1">
<path style="fill-rule:nonzero;fill:rgb(92.54902%,92.54902%,92.54902%);fill-opacity:1;stroke-width:27.983692;stroke-linecap:butt;stroke-linejoin:miter;stroke:#DCDC23;stroke-opacity:1;stroke-miterlimit:4;" d="M 82.765625 26.796875 L 429.234375 26.796875 C 460.140625 26.796875 485.203125 51.859375 485.203125 82.765625 L 485.203125 429.234375 C 485.203125 460.140625 460.140625 485.203125 429.234375 485.203125 L 82.765625 485.203125 C 51.859375 485.203125 26.796875 460.140625 26.796875 429.234375 L 26.796875 82.765625 C 26.796875 51.859375 51.859375 26.796875 82.765625 26.796875 Z M 82.765625 26.796875 " transform="matrix(0.5,0,0,0.5,0,0)"/>
<path style=" stroke:none;fill-rule:nonzero;fill:rgb(42.745098%,47.843137%,49.803922%);fill-opacity:1;" d="M 64.433594 79.023438 L 191.5625 79.023438 C 196.085938 79.023438 199.753906 81.964844 199.753906 85.589844 L 199.753906 212.023438 C 199.753906 215.648438 196.085938 218.589844 191.5625 218.589844 L 64.433594 218.589844 C 59.910156 218.589844 56.242188 215.648438 56.242188 212.023438 L 56.242188 85.589844 C 56.242188 81.964844 59.910156 79.023438 64.433594 79.023438 Z M 64.433594 79.023438 "/>
<path style=" stroke:none;fill-rule:nonzero;fill:rgb(8.235294%,28.627451%,36.470588%);fill-opacity:1;" d="M 66.941406 206 L 127.277344 206 C 128.523438 206 129.53125 206.808594 129.53125 207.808594 L 129.53125 211.371094 C 129.53125 212.367188 128.523438 213.175781 127.277344 213.175781 L 66.941406 213.175781 C 65.699219 213.175781 64.691406 212.367188 64.691406 211.371094 L 64.691406 207.808594 C 64.691406 206.808594 65.699219 206 66.941406 206 Z M 66.941406 206 "/>
<path style=" stroke:none;fill-rule:nonzero;fill:rgb(81.960784%,82.352941%,82.745098%);fill-opacity:1;" d="M 171.589844 209.578125 C 171.589844 211.355469 169.792969 212.796875 167.574219 212.796875 C 165.359375 212.796875 163.5625 211.355469 163.5625 209.578125 C 163.5625 207.800781 165.359375 206.363281 167.574219 206.363281 C 169.792969 206.363281 171.589844 207.800781 171.589844 209.578125 Z M 171.589844 209.578125 "/>
<path style=" stroke:none;fill-rule:nonzero;fill:rgb(81.960784%,82.352941%,82.745098%);fill-opacity:1;" d="M 183.984375 209.578125 C 183.984375 211.355469 182.1875 212.792969 179.972656 212.792969 C 177.753906 212.792969 175.957031 211.355469 175.957031 209.578125 C 175.957031 207.800781 177.753906 206.359375 179.972656 206.359375 C 182.1875 206.359375 183.984375 207.800781 183.984375 209.578125 Z M 183.984375 209.578125 "/>
<path style=" stroke:none;fill-rule:nonzero;fill:rgb(42.745098%,47.843137%,49.803922%);fill-opacity:1;" d="M 64.433594 65.199219 L 191.5625 65.199219 C 196.085938 65.199219 199.753906 68.140625 199.753906 71.765625 L 199.753906 198.199219 C 199.753906 201.828125 196.085938 204.765625 191.5625 204.765625 L 64.433594 204.765625 C 59.910156 204.765625 56.242188 201.828125 56.242188 198.199219 L 56.242188 71.765625 C 56.242188 68.140625 59.910156 65.199219 64.433594 65.199219 Z M 64.433594 65.199219 "/>
<path style=" stroke:none;fill-rule:nonzero;fill:rgb(8.235294%,28.627451%,36.470588%);fill-opacity:1;" d="M 66.941406 192.179688 L 127.277344 192.179688 C 128.523438 192.179688 129.53125 192.988281 129.53125 193.984375 L 129.53125 197.546875 C 129.53125 198.542969 128.523438 199.351562 127.277344 199.351562 L 66.941406 199.351562 C 65.699219 199.351562 64.691406 198.542969 64.691406 197.546875 L 64.691406 193.984375 C 64.691406 192.988281 65.699219 192.179688 66.941406 192.179688 Z M 66.941406 192.179688 "/>
<path style=" stroke:none;fill-rule:nonzero;fill:rgb(81.960784%,82.352941%,82.745098%);fill-opacity:1;" d="M 171.589844 195.753906 C 171.589844 197.53125 169.792969 198.972656 167.574219 198.972656 C 165.359375 198.972656 163.5625 197.53125 163.5625 195.753906 C 163.5625 193.980469 165.359375 192.539062 167.574219 192.539062 C 169.792969 192.539062 171.589844 193.980469 171.589844 195.753906 Z M 171.589844 195.753906 "/>
<path style=" stroke:none;fill-rule:nonzero;fill:rgb(81.960784%,82.352941%,82.745098%);fill-opacity:1;" d="M 183.984375 195.753906 C 183.984375 197.53125 182.1875 198.972656 179.972656 198.972656 C 177.753906 198.972656 175.957031 197.53125 175.957031 195.753906 C 175.957031 193.976562 177.753906 192.535156 179.972656 192.535156 C 182.1875 192.535156 183.984375 193.976562 183.984375 195.753906 Z M 183.984375 195.753906 "/>
<path style=" stroke:none;fill-rule:nonzero;fill:rgb(42.745098%,47.843137%,49.803922%);fill-opacity:1;" d="M 64.433594 51.609375 L 191.5625 51.609375 C 196.085938 51.609375 199.753906 54.546875 199.753906 58.171875 L 199.753906 184.609375 C 199.753906 188.234375 196.085938 191.171875 191.5625 191.171875 L 64.433594 191.171875 C 59.910156 191.171875 56.242188 188.234375 56.242188 184.609375 L 56.242188 58.171875 C 56.242188 54.546875 59.910156 51.609375 64.433594 51.609375 Z M 64.433594 51.609375 "/>
<path style=" stroke:none;fill-rule:nonzero;fill:rgb(8.235294%,28.627451%,36.470588%);fill-opacity:1;" d="M 66.941406 178.585938 L 127.277344 178.585938 C 128.523438 178.585938 129.53125 179.394531 129.53125 180.390625 L 129.53125 183.953125 C 129.53125 184.953125 128.523438 185.757812 127.277344 185.757812 L 66.941406 185.757812 C 65.699219 185.757812 64.691406 184.953125 64.691406 183.953125 L 64.691406 180.390625 C 64.691406 179.394531 65.699219 178.585938 66.941406 178.585938 Z M 66.941406 178.585938 "/>
<path style=" stroke:none;fill-rule:nonzero;fill:rgb(81.960784%,82.352941%,82.745098%);fill-opacity:1;" d="M 171.589844 182.164062 C 171.589844 183.9375 169.792969 185.378906 167.574219 185.378906 C 165.359375 185.378906 163.5625 183.9375 163.5625 182.164062 C 163.5625 180.386719 165.359375 178.945312 167.574219 178.945312 C 169.792969 178.945312 171.589844 180.386719 171.589844 182.164062 Z M 171.589844 182.164062 "/>
<path style=" stroke:none;fill-rule:nonzero;fill:rgb(81.960784%,82.352941%,82.745098%);fill-opacity:1;" d="M 183.984375 182.160156 C 183.984375 183.9375 182.1875 185.378906 179.96875 185.378906 C 177.753906 185.378906 175.957031 183.9375 175.957031 182.160156 C 175.957031 180.382812 177.753906 178.945312 179.96875 178.945312 C 182.1875 178.945312 183.984375 180.382812 183.984375 182.160156 Z M 183.984375 182.160156 "/>
<path style=" stroke:none;fill-rule:nonzero;fill:rgb(42.745098%,47.843137%,49.803922%);fill-opacity:1;" d="M 64.433594 37.785156 L 191.5625 37.785156 C 196.085938 37.785156 199.753906 40.722656 199.753906 44.351562 L 199.753906 170.785156 C 199.753906 174.410156 196.085938 177.351562 191.5625 177.351562 L 64.433594 177.351562 C 59.910156 177.351562 56.242188 174.410156 56.242188 170.785156 L 56.242188 44.351562 C 56.242188 40.722656 59.910156 37.785156 64.433594 37.785156 Z M 64.433594 37.785156 "/>
<path style=" stroke:none;fill-rule:nonzero;fill:rgb(8.235294%,28.627451%,36.470588%);fill-opacity:1;" d="M 66.941406 164.761719 L 127.277344 164.761719 C 128.523438 164.761719 129.53125 165.570312 129.53125 166.566406 L 129.53125 170.132812 C 129.53125 171.128906 128.523438 171.9375 127.277344 171.9375 L 66.941406 171.9375 C 65.699219 171.9375 64.691406 171.128906 64.691406 170.132812 L 64.691406 166.566406 C 64.691406 165.570312 65.699219 164.761719 66.941406 164.761719 Z M 66.941406 164.761719 "/>
<path style=" stroke:none;fill-rule:nonzero;fill:rgb(81.960784%,82.352941%,82.745098%);fill-opacity:1;" d="M 171.589844 168.339844 C 171.589844 170.117188 169.792969 171.554688 167.574219 171.554688 C 165.359375 171.554688 163.5625 170.117188 163.5625 168.339844 C 163.5625 166.5625 165.359375 165.121094 167.574219 165.121094 C 169.792969 165.121094 171.589844 166.5625 171.589844 168.339844 Z M 171.589844 168.339844 "/>
<path style=" stroke:none;fill-rule:nonzero;fill:rgb(81.960784%,82.352941%,82.745098%);fill-opacity:1;" d="M 183.984375 168.335938 C 183.984375 170.113281 182.1875 171.554688 179.96875 171.554688 C 177.753906 171.554688 175.957031 170.113281 175.957031 168.335938 C 175.957031 166.5625 177.753906 165.121094 179.96875 165.121094 C 182.1875 165.121094 183.984375 166.5625 183.984375 168.335938 Z M 183.984375 168.335938 "/>
<path style=" stroke:none;fill-rule:nonzero;fill:#DCDC23;fill-opacity:1;" d="M 64.4375 37.410156 L 191.566406 37.410156 C 196.089844 37.410156 199.757812 39.988281 199.757812 43.164062 L 199.757812 153.984375 C 199.757812 157.160156 196.089844 159.738281 191.566406 159.738281 L 64.4375 159.738281 C 59.914062 159.738281 56.246094 157.160156 56.246094 153.984375 L 56.246094 43.164062 C 56.246094 39.988281 59.914062 37.410156 64.4375 37.410156 Z M 64.4375 37.410156 "/>
<path style=" stroke:none;fill-rule:nonzero;fill:rgb(92.156863%,92.156863%,92.156863%);fill-opacity:1;" d="M 165.042969 128.261719 C 175.269531 120.066406 180.382812 110.167969 180.382812 98.574219 C 180.382812 86.976562 175.273438 77.085938 165.042969 68.886719 C 154.8125 60.6875 142.472656 56.589844 128.003906 56.589844 C 113.53125 56.589844 101.191406 60.6875 90.960938 68.886719 C 80.730469 77.085938 75.621094 86.976562 75.621094 98.574219 C 75.621094 110.171875 80.730469 120.0625 90.960938 128.261719 C 101.191406 136.460938 113.53125 140.558594 128.003906 140.558594 C 142.472656 140.558594 154.8125 136.460938 165.042969 128.261719 Z M 165.042969 128.261719 "/>
</g>
</svg>
