
<svg xmlns="http://www.w3.org/2000/svg" xmlns:xlink="http://www.w3.org/1999/xlink" width="192px" height="192px" viewBox="0 0 192 192" version="1.1">
<g id="surface1">
<path style=" stroke:none;fill-rule:nonzero;fill:rgb(10.588235%,63.921569%,61.176471%);fill-opacity:1;" d="M 51.46875 10.367188 C 38.5 10.367188 28.0625 20.804688 28.0625 33.773438 L 28.0625 158.226562 C 28.0625 171.195312 38.5 181.632812 51.46875 181.632812 L 140.53125 181.632812 C 153.5 181.632812 163.9375 171.195312 163.9375 158.226562 L 163.9375 38.125 L 99.359375 10.367188 Z M 142.929688 10.484375 C 144.507812 10.644531 146.039062 10.960938 147.507812 11.414062 C 146.039062 10.960938 144.507812 10.644531 142.929688 10.484375 Z M 147.507812 11.414062 C 149.710938 12.097656 151.765625 13.09375 153.632812 14.351562 C 151.765625 13.09375 149.710938 12.097656 147.507812 11.414062 Z M 155.4375 15.695312 C 156.015625 16.171875 156.566406 16.683594 157.09375 17.210938 C 156.5625 16.679688 156.015625 16.171875 155.4375 15.695312 Z M 155.4375 15.695312 "/>
<path style=" stroke:none;fill-rule:nonzero;fill:rgb(100%,100%,100%);fill-opacity:0.682353;" d="M 163.9375 38.125 L 99.359375 10.367188 L 99.359375 14.71875 C 99.359375 27.6875 109.796875 38.125 122.765625 38.125 Z M 163.9375 38.125 "/>
<path style=" stroke:none;fill-rule:nonzero;fill:rgb(100%,100%,100%);fill-opacity:1;" d="M 114.9375 75.128906 C 112.933594 75.128906 111.222656 76.183594 110.285156 77.738281 L 90.585938 77.738281 C 90.585938 77.738281 86.667969 77.671875 82.640625 79.613281 C 78.613281 81.554688 74.355469 86 74.355469 93.390625 C 74.355469 100.78125 78.613281 105.226562 82.640625 107.167969 C 84.550781 108.089844 86.425781 108.476562 87.882812 108.71875 L 87.882812 109.859375 L 80.441406 117.03125 C 80.214844 116.972656 80.015625 116.871094 79.765625 116.871094 C 78.273438 116.871094 77.0625 118.039062 77.0625 119.476562 C 77.0625 120.917969 78.273438 122.085938 79.765625 122.085938 C 81.261719 122.085938 82.472656 120.917969 82.472656 119.476562 C 82.472656 119.238281 82.367188 119.046875 82.300781 118.824219 L 89.742188 111.652344 L 98.703125 111.652344 L 98.703125 109.042969 L 101.410156 109.042969 C 101.410156 109.042969 104.253906 109.109375 106.988281 110.429688 C 109.726562 111.75 112.230469 113.824219 112.230469 119.476562 C 112.230469 125.128906 109.726562 127.207031 106.988281 128.527344 C 104.253906 129.847656 101.410156 129.914062 101.410156 129.914062 L 81.710938 129.914062 C 80.773438 128.355469 79.0625 127.304688 77.0625 127.304688 C 74.074219 127.304688 71.652344 129.640625 71.652344 132.523438 C 71.652344 135.402344 74.074219 137.738281 77.0625 137.738281 C 79.066406 137.738281 80.777344 136.6875 81.714844 135.128906 L 101.410156 135.128906 C 101.410156 135.128906 105.332031 135.195312 109.359375 133.253906 C 113.386719 131.3125 117.644531 126.871094 117.644531 119.476562 C 117.644531 112.085938 113.386719 107.644531 109.359375 105.703125 C 105.332031 103.761719 101.410156 103.828125 101.410156 103.828125 L 98.707031 103.828125 L 98.707031 103.011719 L 106.144531 95.835938 C 106.375 95.898438 106.574219 96 106.824219 96 C 108.316406 96 109.527344 94.832031 109.527344 93.390625 C 109.527344 91.949219 108.316406 90.78125 106.824219 90.78125 C 105.328125 90.78125 104.117188 91.949219 104.117188 93.390625 C 104.117188 93.632812 104.222656 93.824219 104.285156 94.042969 L 96.847656 101.21875 L 87.886719 101.21875 L 87.886719 103.417969 C 86.992188 103.214844 86.023438 102.929688 85.011719 102.441406 C 82.273438 101.121094 79.769531 99.042969 79.769531 93.390625 C 79.769531 87.738281 82.273438 85.660156 85.011719 84.34375 C 87.746094 83.023438 90.585938 82.957031 90.585938 82.957031 L 110.285156 82.957031 C 111.21875 84.515625 112.933594 85.566406 114.933594 85.566406 C 117.921875 85.566406 120.34375 83.230469 120.34375 80.347656 C 120.34375 77.46875 117.921875 75.132812 114.933594 75.132812 Z M 114.9375 75.128906 "/>
</g>
</svg>
