
<svg xmlns="http://www.w3.org/2000/svg" xmlns:xlink="http://www.w3.org/1999/xlink" width="192px" height="192px" viewBox="0 0 192 192" version="1.1">
<g id="surface1">
<path style=" stroke:none;fill-rule:nonzero;fill:rgb(93.333333%,93.333333%,93.333333%);fill-opacity:1;" d="M 25.140625 16 C 20.570312 16 16 20.570312 16 25.144531 L 16 167.109375 C 16 171.429688 20.570312 176 24.886719 176 L 167.109375 176 C 171.425781 176 176 171.429688 176 167.109375 L 176 24.890625 C 176 20.570312 171.425781 16 167.109375 16 Z M 25.140625 16 "/>
<path style=" stroke:none;fill-rule:nonzero;fill:rgb(66.666667%,66.666667%,66.666667%);fill-opacity:1;" d="M 27.109375 16 C 24.148438 16 21.488281 17.457031 19.472656 19.472656 C 17.457031 21.488281 16 24.148438 16 27.109375 L 16 165.164062 C 16 168.046875 17.359375 170.691406 19.332031 172.667969 C 21.304688 174.640625 23.949219 176 26.832031 176 L 165.164062 176 C 168.050781 176 170.695312 174.640625 172.667969 172.667969 C 174.640625 170.691406 176 168.046875 176 165.164062 L 176 26.835938 C 176 23.949219 174.640625 21.304688 172.667969 19.332031 C 170.695312 17.363281 168.050781 16 165.164062 16 Z M 27.109375 20.445312 L 165.164062 20.445312 C 166.476562 20.445312 168.167969 21.226562 169.46875 22.527344 C 170.769531 23.828125 171.554688 25.519531 171.554688 26.832031 L 171.554688 165.167969 C 171.554688 166.480469 170.769531 168.171875 169.46875 169.472656 C 168.171875 170.773438 166.480469 171.554688 165.164062 171.554688 L 26.835938 171.554688 C 25.519531 171.554688 23.828125 170.773438 22.527344 169.472656 C 21.226562 168.171875 20.445312 166.480469 20.445312 165.164062 L 20.445312 27.113281 C 20.445312 25.628906 21.210938 23.847656 22.527344 22.527344 C 23.84375 21.210938 25.628906 20.445312 27.109375 20.445312 Z M 27.109375 20.445312 "/>
<path style=" stroke:none;fill-rule:nonzero;fill:rgb(50.196078%,50.196078%,50.196078%);fill-opacity:1;" d="M 114.105469 136.871094 C 102.980469 134.648438 92.953125 132.640625 91.820312 132.40625 L 89.761719 131.980469 L 89.761719 100.300781 L 102.917969 100.414062 C 110.152344 100.480469 120.464844 100.628906 125.832031 100.746094 L 135.585938 100.964844 L 135.585938 120.972656 C 135.585938 139.800781 135.550781 140.976562 134.960938 140.941406 C 134.613281 140.921875 125.230469 139.089844 114.105469 136.871094 Z M 70.070312 128.097656 L 56.289062 125.394531 L 56.191406 112.660156 L 56.097656 99.925781 L 69.976562 100.089844 C 77.609375 100.179688 83.894531 100.289062 83.945312 100.332031 C 84 100.378906 84 107.25 83.945312 115.605469 L 83.855469 130.796875 Z M 56.109375 82.445312 C 56.109375 75.453125 56.15625 69.734375 56.210938 69.734375 C 56.269531 69.734375 62.34375 68.527344 69.710938 67.050781 C 77.082031 65.574219 83.316406 64.367188 83.570312 64.367188 C 83.941406 64.367188 84.03125 67.398438 84.03125 79.523438 L 84.03125 94.683594 L 76.78125 94.917969 C 72.796875 95.046875 66.511719 95.152344 62.820312 95.152344 L 56.109375 95.15625 Z M 89.761719 79 L 89.761719 63.089844 L 112.046875 58.6875 C 124.304688 56.265625 134.613281 54.207031 134.960938 54.109375 C 135.550781 53.945312 135.585938 55.070312 135.585938 74.1875 L 135.585938 94.4375 L 123.472656 94.4375 C 116.808594 94.4375 106.5 94.542969 100.558594 94.675781 L 89.761719 94.910156 Z M 89.761719 79 "/>
</g>
</svg>
