
<svg xmlns="http://www.w3.org/2000/svg" xmlns:xlink="http://www.w3.org/1999/xlink" width="192px" height="192px" viewBox="0 0 192 192" version="1.1">
<g id="surface1">
<path style=" stroke:none;fill-rule:nonzero;fill:rgb(72.941176%,9.019608%,30.588235%);fill-opacity:1;" d="M 51.46875 10.367188 C 38.5 10.367188 28.0625 20.804688 28.0625 33.773438 L 28.0625 158.226562 C 28.0625 171.195312 38.5 181.632812 51.46875 181.632812 L 140.53125 181.632812 C 153.5 181.632812 163.9375 171.195312 163.9375 158.226562 L 163.9375 38.125 L 99.359375 10.367188 Z M 142.929688 10.484375 C 144.507812 10.644531 146.039062 10.960938 147.507812 11.414062 C 146.039062 10.960938 144.507812 10.644531 142.929688 10.484375 Z M 147.507812 11.414062 C 149.710938 12.097656 151.765625 13.09375 153.632812 14.351562 C 151.765625 13.09375 149.710938 12.097656 147.507812 11.414062 Z M 155.4375 15.695312 C 156.015625 16.171875 156.566406 16.683594 157.09375 17.210938 C 156.5625 16.679688 156.015625 16.171875 155.4375 15.695312 Z M 155.4375 15.695312 "/>
<path style=" stroke:none;fill-rule:nonzero;fill:rgb(100%,100%,100%);fill-opacity:0.682353;" d="M 163.9375 38.125 L 99.359375 10.367188 L 99.359375 14.71875 C 99.359375 27.6875 109.796875 38.125 122.765625 38.125 Z M 163.9375 38.125 "/>
<path style=" stroke:none;fill-rule:nonzero;fill:rgb(100%,100%,100%);fill-opacity:1;" d="M 106.390625 75.394531 C 105.652344 75.394531 105.058594 75.988281 105.058594 76.726562 L 105.058594 79.726562 C 103.71875 80.035156 102.476562 80.558594 101.347656 81.269531 L 99.222656 79.148438 C 98.699219 78.628906 97.867188 78.628906 97.347656 79.148438 L 95.472656 81.023438 C 94.949219 81.546875 94.949219 82.378906 95.472656 82.898438 L 97.597656 85.023438 C 96.882812 86.152344 96.359375 87.394531 96.054688 88.734375 L 93.054688 88.734375 C 92.320312 88.730469 91.722656 89.324219 91.722656 90.066406 L 91.722656 92.730469 C 91.722656 93.46875 92.316406 94.066406 93.054688 94.066406 L 96.054688 94.066406 C 96.359375 95.40625 96.882812 96.644531 97.597656 97.773438 L 95.476562 99.898438 C 94.957031 100.421875 94.957031 101.25 95.476562 101.773438 L 97.351562 103.648438 C 97.875 104.171875 98.707031 104.171875 99.226562 103.648438 L 101.351562 101.523438 C 102.480469 102.234375 103.71875 102.757812 105.0625 103.0625 L 105.0625 106.0625 C 105.058594 106.800781 105.652344 107.394531 106.394531 107.394531 L 109.058594 107.394531 C 109.796875 107.394531 110.394531 106.800781 110.394531 106.0625 L 110.394531 103.0625 C 111.734375 102.757812 112.972656 102.234375 114.101562 101.519531 L 116.226562 103.640625 C 116.746094 104.164062 117.578125 104.164062 118.101562 103.640625 L 119.976562 101.765625 C 120.496094 101.242188 120.496094 100.414062 119.976562 99.890625 L 117.851562 97.765625 C 118.5625 96.636719 119.085938 95.398438 119.390625 94.058594 L 122.390625 94.058594 C 123.128906 94.0625 123.722656 93.464844 123.722656 92.726562 L 123.722656 90.058594 C 123.722656 89.324219 123.128906 88.726562 122.390625 88.726562 L 119.390625 88.726562 C 119.082031 87.386719 118.558594 86.148438 117.847656 85.019531 L 119.972656 82.894531 C 120.496094 82.371094 120.496094 81.542969 119.972656 81.019531 L 118.101562 79.148438 C 117.578125 78.625 116.746094 78.625 116.226562 79.148438 L 114.101562 81.273438 C 112.972656 80.558594 111.730469 80.035156 110.390625 79.730469 L 110.390625 76.730469 C 110.390625 75.992188 109.796875 75.394531 109.054688 75.394531 Z M 107.722656 86.0625 C 110.667969 86.0625 113.054688 88.449219 113.054688 91.394531 C 113.054688 94.339844 110.667969 96.726562 107.722656 96.726562 C 104.777344 96.726562 102.390625 94.339844 102.390625 91.394531 C 102.390625 88.449219 104.777344 86.0625 107.722656 86.0625 Z M 107.722656 86.0625 "/>
<path style=" stroke:none;fill-rule:nonzero;fill:rgb(100%,100%,100%);fill-opacity:1;" d="M 68.214844 76.96875 C 67.847656 76.96875 66.664062 77.261719 66.664062 77.628906 L 66.703125 127.339844 C 65.351562 126.308594 64.371094 125.804688 62.480469 125.804688 C 59.761719 125.804688 57.113281 126.796875 54.726562 128.1875 C 51.613281 130.042969 47.90625 133.289062 47.90625 138.058594 C 47.90625 142.167969 51.417969 144.09375 55.128906 144.09375 C 57.84375 144.09375 60.496094 143.097656 62.878906 141.707031 C 65.992188 139.851562 69.703125 136.601562 69.703125 131.832031 C 69.703125 131.648438 69.660156 131.496094 69.644531 131.320312 C 69.65625 131.269531 69.707031 131.234375 69.707031 131.175781 L 69.707031 94.199219 C 74.476562 99.167969 80.769531 106.058594 80.769531 112.949219 C 80.769531 117.320312 79.710938 121.632812 77.988281 125.671875 C 77.789062 126.734375 78.652344 127.460938 79.511719 127.460938 C 79.976562 127.460938 80.4375 127.195312 80.769531 126.664062 C 82.492188 122.292969 83.554688 117.652344 83.554688 112.949219 C 83.554688 99.855469 69.761719 90.785156 69.707031 77.707031 L 69.707031 77.628906 C 69.707031 77.261719 69.410156 76.96875 69.042969 76.96875 Z M 68.214844 76.96875 "/>
<path style=" stroke:none;fill-rule:nonzero;fill:rgb(100%,100%,100%);fill-opacity:1;" d="M 88.171875 111.582031 L 88.171875 116.445312 L 128.171875 116.445312 L 128.171875 111.582031 Z M 88.171875 111.582031 "/>
<path style=" stroke:none;fill-rule:nonzero;fill:rgb(100%,100%,100%);fill-opacity:1;" d="M 88.425781 124.519531 L 88.425781 129.417969 L 128.425781 129.417969 L 128.425781 124.519531 Z M 88.425781 124.519531 "/>
<path style=" stroke:none;fill-rule:nonzero;fill:rgb(100%,100%,100%);fill-opacity:1;" d="M 88.34375 137.507812 L 88.34375 142.390625 L 128.34375 142.390625 L 128.34375 137.507812 Z M 88.34375 137.507812 "/>
</g>
</svg>
