<?xml version="1.0" encoding="UTF-8"?>
<svg xmlns="http://www.w3.org/2000/svg" xmlns:xlink="http://www.w3.org/1999/xlink" width="24pt" height="24pt" viewBox="0 0 24 24" version="1.1">
<g id="surface1">
<path style="fill-rule:nonzero;fill:rgb(100%,100%,100%);fill-opacity:1;stroke-width:2.611469;stroke-linecap:butt;stroke-linejoin:miter;stroke:rgb(56.470588%,56.470588%,56.470588%);stroke-opacity:1;stroke-miterlimit:4;" d="M 7.835938 2.609375 L 40.164062 2.609375 C 43.054688 2.609375 45.390625 4.945312 45.390625 7.835938 L 45.390625 40.164062 C 45.390625 43.054688 43.054688 45.390625 40.164062 45.390625 L 7.835938 45.390625 C 4.945312 45.390625 2.609375 43.054688 2.609375 40.164062 L 2.609375 7.835938 C 2.609375 4.945312 4.945312 2.609375 7.835938 2.609375 Z M 7.835938 2.609375 " transform="matrix(0.5,0,0,0.5,0,0)"/>
<path style=" stroke:none;fill-rule:evenodd;fill:rgb(94.901961%,94.901961%,94.901961%);fill-opacity:1;" d="M 12.125 13.109375 C 12.921875 13.058594 13.53125 12.375 13.492188 11.574219 C 13.453125 10.773438 12.777344 10.15625 11.976562 10.183594 C 11.179688 10.207031 10.546875 10.871094 10.5625 11.671875 C 10.574219 12.472656 11.226562 13.113281 12.027344 13.113281 "/>
<path style="fill:none;stroke-width:2.26261;stroke-linecap:square;stroke-linejoin:bevel;stroke:rgb(94.901961%,94.901961%,94.901961%);stroke-opacity:1;stroke-miterlimit:4;" d="M 24.0625 23.25 L 24.0625 40.070312 " transform="matrix(0.5,0,0,0.5,0,0)"/>
<path style="fill:none;stroke-width:2.26261;stroke-linecap:square;stroke-linejoin:miter;stroke:rgb(94.901961%,94.901961%,94.901961%);stroke-opacity:1;stroke-miterlimit:2.012602;" d="M 29.765625 27.953125 C 32.117188 24.929688 31.703125 20.601562 28.820312 18.078125 C 25.9375 15.554688 21.585938 15.71875 18.898438 18.453125 C 16.21875 21.179688 16.125 25.53125 18.703125 28.375 " transform="matrix(0.5,0,0,0.5,0,0)"/>
<path style="fill:none;stroke-width:2.26261;stroke-linecap:square;stroke-linejoin:miter;stroke:rgb(94.901961%,94.901961%,94.901961%);stroke-opacity:1;stroke-miterlimit:2.012602;" d="M 33.148438 30.734375 C 36.945312 25.859375 36.242188 18.859375 31.546875 14.828125 C 26.859375 10.804688 19.835938 11.164062 15.585938 15.65625 C 11.335938 20.140625 11.351562 27.171875 15.625 31.640625 " transform="matrix(0.5,0,0,0.5,0,0)"/>
<path style="fill:none;stroke-width:2.26261;stroke-linecap:square;stroke-linejoin:miter;stroke:rgb(30.196078%,30.196078%,30.196078%);stroke-opacity:1;stroke-miterlimit:2.012602;" d="M 36.515625 33.5 C 41.6875 26.84375 40.742188 17.296875 34.359375 11.78125 C 27.984375 6.273438 18.40625 6.71875 12.5625 12.804688 C 6.726562 18.882812 6.671875 28.476562 12.445312 34.625 " transform="matrix(0.5,0,0,0.5,0,0)"/>
</g>
</svg>
