
<svg xmlns="http://www.w3.org/2000/svg" xmlns:xlink="http://www.w3.org/1999/xlink" width="24px" height="24px" viewBox="0 0 24 24" version="1.1">
<g id="surface1">
<path style=" stroke:none;fill-rule:nonzero;fill:rgb(0%,0%,0%);fill-opacity:0.4;" d="M 6 17 L 6 21 L 18 21 L 18 17 L 12.5625 17 L 10 20 L 10.59375 17 Z M 6 17 "/>
<path style=" stroke:none;fill-rule:nonzero;fill:rgb(74.509804%,74.509804%,74.509804%);fill-opacity:0.6;" d="M 9 4 L 9 6 L 6 6 L 6 20 L 18 20 L 18 6 L 15 6 L 15 4 Z M 14 7 L 13 12 L 16 12 L 10 19 L 11 14 L 8 14 Z M 14 7 "/>
<path style=" stroke:none;fill-rule:nonzero;fill:rgb(100%,50.196078%,0%);fill-opacity:1;" d="M 6 16 L 6 20 L 18 20 L 18 16 L 12.5625 16 L 10 19 L 10.59375 16 Z M 6 16 "/>
</g>
</svg>
