<?xml version="1.0" encoding="UTF-8"?>
<svg xmlns="http://www.w3.org/2000/svg" xmlns:xlink="http://www.w3.org/1999/xlink" width="24pt" height="24pt" viewBox="0 0 24 24" version="1.1">
<g id="surface1">
<path style=" stroke:none;fill-rule:evenodd;fill:rgb(100%,0%,0%);fill-opacity:1;" d="M 12.242188 20.507812 C 16.640625 20.109375 19.488281 24.40625 21.039062 17.808594 C 22.585938 11.214844 20.738281 12.8125 20.238281 9.515625 C 19.738281 6.21875 22.488281 3.171875 18.738281 3.921875 C 14.992188 4.667969 13.34375 1.074219 10.796875 3.121094 C 8.246094 5.167969 5.398438 10.117188 4.351562 9.316406 C 3.300781 8.515625 1.25 11.117188 3.101562 13.3125 C 4.949219 15.511719 2.851562 18.808594 4.847656 20.160156 C 6.847656 21.507812 7.996094 20.507812 9.894531 21.007812 C 11.792969 21.507812 12.242188 20.507812 12.242188 20.507812 Z M 12.242188 20.507812 "/>
<path style="fill-rule:nonzero;fill:rgb(100%,33.333333%,33.333333%);fill-opacity:1;stroke-width:1;stroke-linecap:butt;stroke-linejoin:miter;stroke:rgb(100%,100%,100%);stroke-opacity:1;stroke-miterlimit:4;" d="M 46.745617 30.002624 C 46.745617 39.24703 39.246936 46.745711 30.00253 46.745711 C 20.748205 46.745711 13.249523 39.24703 13.249523 30.002624 C 13.249523 20.748299 20.748205 13.249617 30.00253 13.249617 C 39.246936 13.249617 46.745617 20.748299 46.745617 30.002624 Z M 46.745617 30.002624 " transform="matrix(0.393819,0,0,0.393819,0.485208,1.235171)"/>
<path style="fill-rule:nonzero;fill:rgb(80%,80%,80%);fill-opacity:1;stroke-width:1;stroke-linecap:butt;stroke-linejoin:miter;stroke:rgb(0%,0%,0%);stroke-opacity:1;stroke-miterlimit:4;" d="M 3.78418 14.731445 L 9.707031 20.649414 L 12.30957 23.251953 L 14.912109 20.649414 L 26.21582 9.350586 L 23.613281 6.748047 L 12.30957 18.051758 L 6.386719 12.128906 Z M 3.78418 14.731445 " transform="matrix(0.8,0,0,0.8,0,0)"/>
</g>
</svg>
