
<svg xmlns="http://www.w3.org/2000/svg" xmlns:xlink="http://www.w3.org/1999/xlink" width="24px" height="24px" viewBox="0 0 24 24" version="1.1">
<g id="surface1">
<path style=" stroke:none;fill-rule:nonzero;fill:rgb(0%,0%,0%);fill-opacity:0.301961;" d="M 4.894531 5 C 4.402344 5.046875 3.996094 5.507812 4 6 L 4 16 C 4 16.523438 4.476562 17 5 17 L 13 17 L 17 21 L 17 17 L 19 17 C 19.523438 17 20 16.523438 20 16 L 20 6 C 20 5.476562 19.523438 5 19 5 L 5 5 C 4.96875 5 4.925781 5 4.894531 5 Z M 7.429688 7.285156 L 9.035156 7.285156 C 9.421875 7.300781 9.765625 7.472656 10.035156 7.714844 L 12 9.394531 L 14 7.714844 C 14.402344 7.410156 14.667969 7.296875 15.035156 7.285156 L 16.570312 7.285156 L 16.570312 8.609375 C 16.570312 8.992188 16.503906 9.378906 16.179688 9.644531 L 14.214844 11.320312 L 16.144531 13 C 16.429688 13.25 16.570312 13.613281 16.570312 13.964844 L 16.570312 15.285156 L 15.035156 15.285156 C 14.632812 15.285156 14.25 15.144531 13.964844 14.894531 L 12 13.214844 L 10.035156 14.894531 C 9.75 15.144531 9.367188 15.285156 8.964844 15.285156 L 7.429688 15.285156 L 7.429688 13.964844 C 7.429688 13.613281 7.570312 13.25 7.855469 13 L 9.820312 11.320312 L 7.855469 9.644531 C 7.535156 9.382812 7.394531 8.984375 7.429688 8.609375 Z M 7.429688 7.285156 "/>
<path style=" stroke:none;fill-rule:nonzero;fill:rgb(90.196078%,24.705882%,35.686275%);fill-opacity:1;" d="M 4.894531 4 C 4.402344 4.046875 3.996094 4.507812 4 5 L 4 15 C 4 15.523438 4.476562 16 5 16 L 13 16 L 17 20 L 17 16 L 19 16 C 19.523438 16 20 15.523438 20 15 L 20 5 C 20 4.476562 19.523438 4 19 4 L 5 4 C 4.96875 4 4.925781 4 4.894531 4 Z M 7.429688 6.285156 L 9.035156 6.285156 C 9.421875 6.300781 9.765625 6.472656 10.035156 6.714844 L 12 8.394531 L 14 6.714844 C 14.402344 6.410156 14.667969 6.296875 15.035156 6.285156 L 16.570312 6.285156 L 16.570312 7.609375 C 16.570312 7.992188 16.503906 8.378906 16.179688 8.644531 L 14.214844 10.320312 L 16.144531 12 C 16.429688 12.25 16.570312 12.613281 16.570312 12.964844 L 16.570312 14.285156 L 15.035156 14.285156 C 14.632812 14.285156 14.25 14.144531 13.964844 13.894531 L 12 12.214844 L 10.035156 13.894531 C 9.75 14.144531 9.367188 14.285156 8.964844 14.285156 L 7.429688 14.285156 L 7.429688 12.964844 C 7.429688 12.613281 7.570312 12.25 7.855469 12 L 9.820312 10.320312 L 7.855469 8.644531 C 7.535156 8.382812 7.394531 7.984375 7.429688 7.609375 Z M 7.429688 6.285156 "/>
</g>
</svg>
